{
 "cells": [
  {
   "cell_type": "code",
   "execution_count": 44,
   "metadata": {},
   "outputs": [],
   "source": [
    "\"\"\"Train a simple CNN-Capsule Network on the CIFAR10 small images dataset.\n",
    "\n",
    "Without Data Augmentation:\n",
    "It gets to 75% validation accuracy in 10 epochs,\n",
    "and 79% after 15 epochs, and overfitting after 20 epochs\n",
    "\n",
    "With Data Augmentation:\n",
    "It gets to 75% validation accuracy in 10 epochs,\n",
    "and 79% after 15 epochs, and 83% after 30 epcohs.\n",
    "In my test, highest validation accuracy is 83.79% after 50 epcohs.\n",
    "\n",
    "This is a fast Implement, just 20s/epcoh with a gtx 1070 gpu.\n",
    "\"\"\"\n",
    "\n",
    "from __future__ import print_function\n",
    "import keras\n",
    "from keras import backend as K\n",
    "from keras.layers import Layer\n",
    "from keras import activations\n",
    "from keras import utils\n",
    "from keras.datasets import cifar10\n",
    "from keras.models import Model\n",
    "from keras.layers import *\n",
    "from keras.preprocessing.image import ImageDataGenerator"
   ]
  },
  {
   "cell_type": "code",
   "execution_count": 139,
   "metadata": {},
   "outputs": [],
   "source": [
    "import matplotlib.pyplot as plt\n",
    "%matplotlib inline\n",
    "# local libs\n",
    "import config, models, functions\n",
    "from data import data, midi, midi_generators as g\n",
    "from utils import io, models_io, utils, plot"
   ]
  },
  {
   "cell_type": "code",
   "execution_count": 37,
   "metadata": {},
   "outputs": [
    {
     "name": "stdout",
     "output_type": "stream",
     "text": [
      "Setting up params\n",
      "\n",
      "max min f 25.0 0.5\n",
      " >> Context(max_t=2.0, dt=0.02, n_instances=100, note_length=0.03, bpm=120.0, tempo=500000, ticks_per_beat=480)\n",
      "Setting up params\n",
      "\n",
      "max min f 25.0 0.5\n",
      " >> Context(max_t=2.0, dt=0.02, n_instances=100, note_length=0.03, bpm=120.0, tempo=500000, ticks_per_beat=480)\n",
      "Importing midi-data\n",
      "\n",
      "\u001b[92m [INFO] : \u001b[0m\n",
      " |  reading file: ../datasets/examples/01 16th Snare.mid\n",
      "\u001b[92m [INFO] : \u001b[0m\n",
      " |  reading file: ../datasets/examples/01 8th Cym.mid\n",
      "\n",
      "Encoding midi-data\n",
      " [<midi file '../datasets/examples/01 16th Snare.mid' type 0, 1 tracks, 182 messages>, <midi file '../datasets/examples/01 8th Cym.mid' type 0, 1 tracks, 68 messages>]\n",
      "> -> multi-track = True\n",
      "<meta message track_name name='01 16th Snare\\x00' time=0>\n",
      "<meta message time_signature numerator=4 denominator=4 clocks_per_click=36 notated_32nd_notes_per_beat=8 time=0>\n",
      "<meta message time_signature numerator=4 denominator=4 clocks_per_click=36 notated_32nd_notes_per_beat=8 time=0>\n",
      "note_on channel=0 note=36 velocity=104 time=0\n",
      "note_on channel=0 note=38 velocity=57 time=0\n",
      "note_off channel=0 note=38 velocity=64 time=0.08333333333333333\n",
      "note_off channel=0 note=36 velocity=64 time=0.020833333333333332\n",
      "note_on channel=0 note=38 velocity=73 time=0.010416666666666666\n",
      "note_off channel=0 note=38 velocity=64 time=0.08333333333333333\n",
      "note_on channel=0 note=38 velocity=107 time=0.041666666666666664\n",
      "note_off channel=0 note=38 velocity=64 time=0.109375\n",
      "note_on channel=0 note=38 velocity=104 time=0.020833333333333332\n",
      "note_off channel=0 note=38 velocity=64 time=0.09895833333333333\n",
      "note_on channel=0 note=38 velocity=64 time=0.020833333333333332\n",
      "note_on channel=0 note=36 velocity=103 time=0.005208333333333333\n",
      "note_on channel=0 note=44 velocity=105 time=0\n",
      "note_off channel=0 note=38 velocity=64 time=0.08854166666666666\n",
      "note_off channel=0 note=36 velocity=64 time=0.020833333333333332\n",
      "note_off channel=0 note=44 velocity=64 time=0.005208333333333333\n",
      "note_on channel=0 note=38 velocity=107 time=0.13020833333333331\n",
      "note_off channel=0 note=38 velocity=64 time=0.109375\n",
      "note_on channel=0 note=38 velocity=27 time=0.03125\n",
      "note_off channel=0 note=38 velocity=64 time=0.08333333333333333\n",
      "note_on channel=0 note=36 velocity=104 time=0.03645833333333333\n",
      "note_on channel=0 note=38 velocity=54 time=0\n",
      "note_off channel=0 note=36 velocity=64 time=0.078125\n",
      "note_off channel=0 note=38 velocity=64 time=0\n",
      "note_on channel=0 note=38 velocity=98 time=0.041666666666666664\n",
      "note_off channel=0 note=38 velocity=64 time=0.09375\n",
      "note_on channel=0 note=38 velocity=107 time=0.026041666666666664\n",
      "note_off channel=0 note=38 velocity=64 time=0.09895833333333333\n",
      "note_on channel=0 note=38 velocity=104 time=0.03125\n",
      "note_off channel=0 note=38 velocity=64 time=0.08333333333333333\n",
      "note_on channel=0 note=36 velocity=104 time=0.03645833333333333\n",
      "note_on channel=0 note=38 velocity=50 time=0\n",
      "note_on channel=0 note=44 velocity=107 time=0\n",
      "note_off channel=0 note=38 velocity=64 time=0.078125\n",
      "note_off channel=0 note=36 velocity=64 time=0.03125\n",
      "note_off channel=0 note=44 velocity=64 time=0\n",
      "note_on channel=0 note=38 velocity=74 time=0.005208333333333333\n",
      "note_off channel=0 note=38 velocity=64 time=0.08854166666666666\n",
      "note_on channel=0 note=38 velocity=107 time=0.03645833333333333\n",
      "note_on channel=0 note=36 velocity=99 time=0.010416666666666666\n",
      "note_off channel=0 note=38 velocity=64 time=0.08854166666666666\n",
      "note_off channel=0 note=36 velocity=64 time=0.026041666666666664\n",
      "note_on channel=0 note=38 velocity=34 time=0\n",
      "note_off channel=0 note=38 velocity=64 time=0.08854166666666666\n",
      "note_on channel=0 note=36 velocity=104 time=0.05208333333333333\n",
      "\u001b[91m [DEBUG] > \u001b[0m\n",
      " |>  to_array: msg.time > max_t; t, n\n",
      " |>  1.9947916666666667\n",
      " |>  100\n",
      "<meta message track_name name='01 8th Cym\\x00' time=0>\n",
      "<meta message time_signature numerator=4 denominator=4 clocks_per_click=36 notated_32nd_notes_per_beat=8 time=0>\n",
      "<meta message time_signature numerator=4 denominator=4 clocks_per_click=36 notated_32nd_notes_per_beat=8 time=0>\n",
      "note_on channel=0 note=36 velocity=123 time=0\n",
      "note_on channel=0 note=44 velocity=87 time=0\n",
      "note_on channel=0 note=57 velocity=118 time=0\n",
      "note_off channel=0 note=36 velocity=64 time=0.0625\n",
      "note_off channel=0 note=44 velocity=64 time=0\n",
      "note_off channel=0 note=57 velocity=64 time=0\n",
      "note_on channel=0 note=57 velocity=99 time=0.17708333333333331\n",
      "note_off channel=0 note=57 velocity=64 time=0.0625\n",
      "note_on channel=0 note=38 velocity=119 time=0.1875\n",
      "note_on channel=0 note=57 velocity=118 time=0.005208333333333333\n",
      "note_on channel=0 note=44 velocity=88 time=0.005208333333333333\n",
      "note_off channel=0 note=38 velocity=64 time=0.05208333333333333\n",
      "note_off channel=0 note=57 velocity=64 time=0.005208333333333333\n",
      "note_off channel=0 note=44 velocity=64 time=0.005208333333333333\n",
      "note_on channel=0 note=57 velocity=107 time=0.1875\n",
      "note_on channel=0 note=38 velocity=118 time=0.005208333333333333\n",
      "note_off channel=0 note=57 velocity=64 time=0.057291666666666664\n",
      "note_off channel=0 note=38 velocity=64 time=0.005208333333333333\n",
      "note_on channel=0 note=44 velocity=90 time=0.17708333333333331\n",
      "note_on channel=0 note=57 velocity=118 time=0.005208333333333333\n",
      "note_off channel=0 note=44 velocity=64 time=0.057291666666666664\n",
      "note_off channel=0 note=57 velocity=64 time=0.005208333333333333\n",
      "note_on channel=0 note=57 velocity=100 time=0.171875\n",
      "note_off channel=0 note=57 velocity=64 time=0.0625\n",
      "note_on channel=0 note=38 velocity=120 time=0.203125\n",
      "note_on channel=0 note=44 velocity=88 time=0\n",
      "note_on channel=0 note=57 velocity=119 time=0.010416666666666666\n",
      "note_off channel=0 note=38 velocity=64 time=0.05208333333333333\n",
      "note_off channel=0 note=44 velocity=64 time=0\n",
      "note_off channel=0 note=57 velocity=64 time=0.010416666666666666\n",
      "note_on channel=0 note=57 velocity=101 time=0.17708333333333331\n",
      "note_off channel=0 note=57 velocity=64 time=0.0625\n",
      "note_on channel=0 note=44 velocity=87 time=0.18229166666666666\n",
      "\u001b[91m [DEBUG] > \u001b[0m\n",
      " |>  to_array: msg.time > max_t; t, n\n",
      " |>  1.9947916666666667\n",
      " |>  100\n"
     ]
    }
   ],
   "source": [
    "context = data.init()\n",
    "n = 2\n",
    "multiTrack = True\n",
    "context, x_train, labels = data.import_data(data.init(), n, multiTrack=multiTrack)"
   ]
  },
  {
   "cell_type": "code",
   "execution_count": 128,
   "metadata": {},
   "outputs": [
    {
     "name": "stdout",
     "output_type": "stream",
     "text": [
      "note_on channel=0 note=60 velocity=127 time=0.016666666666666666\n",
      "note_off channel=0 note=60 velocity=127 time=0.019791666666666666\n",
      "note_on channel=0 note=61 velocity=127 time=0.017708333333333333\n",
      "note_on channel=0 note=62 velocity=127 time=0.01875\n",
      "note_off channel=0 note=61 velocity=127 time=0.0020833333333333333\n",
      "note_on channel=0 note=60 velocity=127 time=0.017708333333333333\n",
      "note_off channel=0 note=62 velocity=127 time=0.0010416666666666667\n",
      "note_off channel=0 note=60 velocity=127 time=0.01875\n",
      "note_on channel=0 note=61 velocity=127 time=0.026041666666666668\n",
      "note_on channel=0 note=62 velocity=127 time=0.009375\n",
      "note_off channel=0 note=61 velocity=127 time=0.011458333333333333\n",
      "note_off channel=0 note=62 velocity=127 time=0.009375\n",
      "note_on channel=0 note=60 velocity=127 time=0\n",
      "note_off channel=0 note=60 velocity=127 time=0.019791666666666666\n",
      "note_on channel=0 note=62 velocity=127 time=0.034375\n",
      "note_on channel=0 note=61 velocity=127 time=0\n",
      "note_off channel=0 note=62 velocity=127 time=0.019791666666666666\n",
      "note_off channel=0 note=61 velocity=127 time=0\n",
      "note_on channel=0 note=60 velocity=127 time=0.0010416666666666667\n",
      "note_off channel=0 note=60 velocity=127 time=0.019791666666666666\n",
      "note_on channel=0 note=62 velocity=127 time=0.03333333333333333\n",
      "note_on channel=0 note=61 velocity=127 time=0.009375\n",
      "note_off channel=0 note=62 velocity=127 time=0.010416666666666666\n",
      "note_on channel=0 note=60 velocity=127 time=0.0020833333333333333\n",
      "note_off channel=0 note=61 velocity=127 time=0.007291666666666667\n",
      "note_off channel=0 note=60 velocity=127 time=0.0125\n",
      "note_on channel=0 note=62 velocity=127 time=0.03229166666666666\n",
      "note_on channel=0 note=61 velocity=127 time=0.01875\n",
      "note_off channel=0 note=62 velocity=127 time=0.0010416666666666667\n",
      "note_on channel=0 note=60 velocity=127 time=0.003125\n",
      "note_off channel=0 note=61 velocity=127 time=0.015625\n",
      "note_off channel=0 note=60 velocity=127 time=0.004166666666666667\n",
      "note_on channel=0 note=62 velocity=127 time=0.03125\n",
      "note_off channel=0 note=62 velocity=127 time=0.019791666666666666\n",
      "note_on channel=0 note=60 velocity=127 time=0.004166666666666667\n",
      "note_on channel=0 note=61 velocity=127 time=0.004166666666666667\n",
      "note_off channel=0 note=60 velocity=127 time=0.015625\n",
      "note_off channel=0 note=61 velocity=127 time=0.004166666666666667\n",
      "note_on channel=0 note=62 velocity=127 time=0.026041666666666668\n",
      "note_off channel=0 note=62 velocity=127 time=0.019791666666666666\n",
      "note_on channel=0 note=60 velocity=127 time=0.005208333333333333\n",
      "note_on channel=0 note=61 velocity=127 time=0.0125\n",
      "note_off channel=0 note=60 velocity=127 time=0.007291666666666667\n",
      "note_off channel=0 note=61 velocity=127 time=0.0125\n",
      "note_on channel=0 note=62 velocity=127 time=0.016666666666666666\n",
      "note_off channel=0 note=62 velocity=127 time=0.019791666666666666\n",
      "note_on channel=0 note=60 velocity=127 time=0.005208333333333333\n",
      "note_off channel=0 note=60 velocity=127 time=0.019791666666666666\n",
      "note_on channel=0 note=61 velocity=127 time=0.0010416666666666667\n",
      "note_off channel=0 note=61 velocity=127 time=0.019791666666666666\n",
      "note_on channel=0 note=62 velocity=127 time=0.008333333333333333\n",
      "note_off channel=0 note=62 velocity=127 time=0.019791666666666666\n",
      "note_on channel=0 note=60 velocity=127 time=0.00625\n",
      "note_off channel=0 note=60 velocity=127 time=0.019791666666666666\n",
      "note_on channel=0 note=61 velocity=127 time=0.009375\n",
      "note_on channel=0 note=62 velocity=127 time=0.01875\n",
      "note_off channel=0 note=61 velocity=127 time=0.0010416666666666667\n",
      "note_off channel=0 note=62 velocity=127 time=0.01875\n",
      "note_on channel=0 note=60 velocity=127 time=0.007291666666666667\n",
      "note_off channel=0 note=60 velocity=127 time=0.019791666666666666\n",
      "note_on channel=0 note=61 velocity=127 time=0.017708333333333333\n",
      "note_on channel=0 note=62 velocity=127 time=0.009375\n",
      "note_off channel=0 note=61 velocity=127 time=0.010416666666666666\n",
      "note_off channel=0 note=62 velocity=127 time=0.009375\n",
      "note_on channel=0 note=60 velocity=127 time=0.008333333333333333\n",
      "note_off channel=0 note=60 velocity=127 time=0.019791666666666666\n",
      "note_on channel=0 note=62 velocity=127 time=0.026041666666666668\n",
      "note_on channel=0 note=61 velocity=127 time=0\n",
      "note_off channel=0 note=62 velocity=127 time=0.019791666666666666\n",
      "note_off channel=0 note=61 velocity=127 time=0\n",
      "note_on channel=0 note=60 velocity=127 time=0.009375\n",
      "note_off channel=0 note=60 velocity=127 time=0.019791666666666666\n",
      "note_on channel=0 note=62 velocity=127 time=0.025\n",
      "note_on channel=0 note=61 velocity=127 time=0.009375\n",
      "note_off channel=0 note=62 velocity=127 time=0.010416666666666666\n",
      "note_off channel=0 note=61 velocity=127 time=0.009375\n",
      "note_on channel=0 note=60 velocity=127 time=0.0010416666666666667\n",
      "note_off channel=0 note=60 velocity=127 time=0.019791666666666666\n",
      "note_on channel=0 note=62 velocity=127 time=0.02395833333333333\n",
      "note_on channel=0 note=61 velocity=127 time=0.01875\n",
      "note_off channel=0 note=62 velocity=127 time=0.0010416666666666667\n",
      "note_on channel=0 note=60 velocity=127 time=0.011458333333333333\n",
      "note_off channel=0 note=61 velocity=127 time=0.007291666666666667\n",
      "note_off channel=0 note=60 velocity=127 time=0.0125\n",
      "note_on channel=0 note=62 velocity=127 time=0.02395833333333333\n",
      "note_off channel=0 note=62 velocity=127 time=0.019791666666666666\n",
      "note_on channel=0 note=61 velocity=127 time=0.008333333333333333\n",
      "note_on channel=0 note=60 velocity=127 time=0.004166666666666667\n",
      "note_off channel=0 note=61 velocity=127 time=0.015625\n",
      "note_off channel=0 note=60 velocity=127 time=0.004166666666666667\n",
      "note_on channel=0 note=62 velocity=127 time=0.022916666666666665\n",
      "note_off channel=0 note=62 velocity=127 time=0.019791666666666666\n",
      "note_on channel=0 note=60 velocity=127 time=0.0125\n",
      "note_on channel=0 note=61 velocity=127 time=0.004166666666666667\n",
      "note_off channel=0 note=60 velocity=127 time=0.015625\n",
      "note_off channel=0 note=61 velocity=127 time=0.004166666666666667\n",
      "note_on channel=0 note=62 velocity=127 time=0.017708333333333333\n",
      "note_off channel=0 note=62 velocity=127 time=0.019791666666666666\n",
      "note_on channel=0 note=60 velocity=127 time=0.013541666666666667\n",
      "note_on channel=0 note=61 velocity=127 time=0.0125\n",
      "note_off channel=0 note=60 velocity=127 time=0.007291666666666667\n",
      "note_off channel=0 note=61 velocity=127 time=0.0125\n",
      "note_on channel=0 note=62 velocity=127 time=0.008333333333333333\n",
      "note_off channel=0 note=62 velocity=127 time=0.019791666666666666\n",
      "note_on channel=0 note=60 velocity=127 time=0.014583333333333334\n",
      "note_off channel=0 note=60 velocity=127 time=0.019791666666666666\n",
      "note_on channel=0 note=61 velocity=127 time=0.0010416666666666667\n",
      "note_on channel=0 note=62 velocity=127 time=0.01875\n",
      "note_off channel=0 note=61 velocity=127 time=0.0010416666666666667\n",
      "note_off channel=0 note=62 velocity=127 time=0.01875\n",
      "note_on channel=0 note=60 velocity=127 time=0.015625\n",
      "note_off channel=0 note=60 velocity=127 time=0.019791666666666666\n",
      "note_on channel=0 note=61 velocity=127 time=0.009375\n",
      "note_on channel=0 note=62 velocity=127 time=0.009375\n",
      "note_off channel=0 note=61 velocity=127 time=0.010416666666666666\n",
      "note_off channel=0 note=62 velocity=127 time=0.009375\n",
      "note_on channel=0 note=60 velocity=127 time=0.016666666666666666\n",
      "note_off channel=0 note=60 velocity=127 time=0.019791666666666666\n",
      "note_on channel=0 note=61 velocity=127 time=0.017708333333333333\n",
      "note_on channel=0 note=62 velocity=127 time=0\n",
      "note_off channel=0 note=61 velocity=127 time=0.019791666666666666\n",
      "note_off channel=0 note=62 velocity=127 time=0\n",
      "note_on channel=0 note=60 velocity=127 time=0.017708333333333333\n",
      "note_off channel=0 note=60 velocity=127 time=0.019791666666666666\n",
      "note_on channel=0 note=62 velocity=127 time=0.016666666666666666\n",
      "note_on channel=0 note=61 velocity=127 time=0.009375\n",
      "note_off channel=0 note=62 velocity=127 time=0.010416666666666666\n",
      "note_off channel=0 note=61 velocity=127 time=0.009375\n",
      "note_on channel=0 note=60 velocity=127 time=0.009375\n",
      "note_off channel=0 note=60 velocity=127 time=0.019791666666666666\n",
      "note_on channel=0 note=62 velocity=127 time=0.015625\n",
      "note_on channel=0 note=61 velocity=127 time=0.01875\n",
      "note_off channel=0 note=62 velocity=127 time=0.0020833333333333333\n",
      "note_off channel=0 note=61 velocity=127 time=0.01875\n",
      "note_on channel=0 note=60 velocity=127 time=0.0010416666666666667\n",
      "note_off channel=0 note=60 velocity=127 time=0.019791666666666666\n",
      "note_on channel=0 note=62 velocity=127 time=0.015625\n",
      "note_off channel=0 note=62 velocity=127 time=0.019791666666666666\n",
      "note_on channel=0 note=61 velocity=127 time=0.007291666666666667\n",
      "note_on channel=0 note=60 velocity=127 time=0.0125\n",
      "note_off channel=0 note=61 velocity=127 time=0.007291666666666667\n",
      "note_off channel=0 note=60 velocity=127 time=0.0125\n",
      "note_on channel=0 note=62 velocity=127 time=0.014583333333333334\n",
      "note_off channel=0 note=62 velocity=127 time=0.019791666666666666\n",
      "note_on channel=0 note=61 velocity=127 time=0.016666666666666666\n",
      "note_on channel=0 note=60 velocity=127 time=0.004166666666666667\n",
      "note_off channel=0 note=61 velocity=127 time=0.015625\n",
      "note_off channel=0 note=60 velocity=127 time=0.004166666666666667\n",
      "note_on channel=0 note=62 velocity=127 time=0.013541666666666667\n",
      "note_off channel=0 note=62 velocity=127 time=0.019791666666666666\n",
      "note_on channel=0 note=60 velocity=127 time=0.021875\n",
      "note_on channel=0 note=61 velocity=127 time=0.004166666666666667\n",
      "note_off channel=0 note=60 velocity=127 time=0.015625\n",
      "note_off channel=0 note=61 velocity=127 time=0.004166666666666667\n",
      "\u001b[91m [DEBUG] > \u001b[0m\n",
      " |>  to_array: msg.time > max_t; t, n\n",
      " |>  1.9937499999999992\n",
      " |>  100\n",
      "note_on channel=0 note=60 velocity=127 time=0.017708333333333333\n",
      "note_off channel=0 note=60 velocity=127 time=0.019791666666666666\n",
      "note_on channel=0 note=62 velocity=127 time=0.029166666666666667\n",
      "note_off channel=0 note=62 velocity=127 time=0.019791666666666666\n",
      "note_on channel=0 note=60 velocity=127 time=0.015625\n",
      "note_off channel=0 note=60 velocity=127 time=0.019791666666666666\n",
      "note_on channel=0 note=61 velocity=127 time=0.003125\n",
      "note_off channel=0 note=61 velocity=127 time=0.019791666666666666\n",
      "note_on channel=0 note=62 velocity=127 time=0.011458333333333333\n",
      "note_off channel=0 note=62 velocity=127 time=0.019791666666666666\n",
      "note_on channel=0 note=60 velocity=127 time=0.010416666666666666\n",
      "note_off channel=0 note=60 velocity=127 time=0.019791666666666666\n",
      "note_on channel=0 note=62 velocity=127 time=0.03958333333333333\n",
      "note_off channel=0 note=62 velocity=127 time=0.019791666666666666\n",
      "note_on channel=0 note=60 velocity=127 time=0.004166666666666667\n",
      "note_on channel=0 note=61 velocity=127 time=0.013541666666666667\n",
      "note_off channel=0 note=60 velocity=127 time=0.00625\n",
      "note_off channel=0 note=61 velocity=127 time=0.013541666666666667\n",
      "note_on channel=0 note=62 velocity=127 time=0.03229166666666666\n",
      "note_on channel=0 note=60 velocity=127 time=0.01875\n",
      "note_off channel=0 note=62 velocity=127 time=0.0010416666666666667\n",
      "note_off channel=0 note=60 velocity=127 time=0.01875\n",
      "note_on channel=0 note=62 velocity=127 time=0.051041666666666666\n",
      "note_on channel=0 note=60 velocity=127 time=0.013541666666666667\n",
      "note_on channel=0 note=61 velocity=127 time=0.003125\n",
      "note_off channel=0 note=62 velocity=127 time=0.003125\n",
      "note_off channel=0 note=60 velocity=127 time=0.013541666666666667\n",
      "note_off channel=0 note=61 velocity=127 time=0.003125\n",
      "note_on channel=0 note=62 velocity=127 time=0.053125\n",
      "note_on channel=0 note=60 velocity=127 time=0.008333333333333333\n",
      "note_off channel=0 note=62 velocity=127 time=0.0125\n",
      "note_off channel=0 note=60 velocity=127 time=0.008333333333333333\n",
      "note_on channel=0 note=61 velocity=127 time=0.058333333333333334\n",
      "note_on channel=0 note=62 velocity=127 time=0.004166666666666667\n",
      "note_on channel=0 note=60 velocity=127 time=0.0020833333333333333\n",
      "note_off channel=0 note=61 velocity=127 time=0.013541666666666667\n",
      "note_off channel=0 note=62 velocity=127 time=0.004166666666666667\n",
      "note_off channel=0 note=60 velocity=127 time=0.0020833333333333333\n",
      "note_on channel=0 note=60 velocity=127 time=0.06458333333333333\n",
      "note_on channel=0 note=62 velocity=127 time=0.003125\n",
      "note_off channel=0 note=60 velocity=127 time=0.016666666666666666\n",
      "note_off channel=0 note=62 velocity=127 time=0.003125\n",
      "note_on channel=0 note=61 velocity=127 time=0.04583333333333333\n",
      "note_on channel=0 note=60 velocity=127 time=0.015625\n",
      "note_off channel=0 note=61 velocity=127 time=0.004166666666666667\n",
      "note_on channel=0 note=62 velocity=127 time=0.005208333333333333\n",
      "note_off channel=0 note=60 velocity=127 time=0.011458333333333333\n",
      "note_off channel=0 note=62 velocity=127 time=0.008333333333333333\n",
      "note_on channel=0 note=60 velocity=127 time=0.05625\n",
      "note_on channel=0 note=62 velocity=127 time=0.014583333333333334\n",
      "note_off channel=0 note=60 velocity=127 time=0.005208333333333333\n",
      "note_off channel=0 note=62 velocity=127 time=0.014583333333333334\n",
      "note_on channel=0 note=61 velocity=127 time=0.025\n",
      "note_off channel=0 note=61 velocity=127 time=0.019791666666666666\n",
      "note_on channel=0 note=60 velocity=127 time=0.00625\n",
      "note_on channel=0 note=62 velocity=127 time=0.019791666666666666\n",
      "note_off channel=0 note=60 velocity=127 time=0\n",
      "note_off channel=0 note=62 velocity=127 time=0.019791666666666666\n",
      "note_on channel=0 note=60 velocity=127 time=0.04479166666666667\n",
      "note_off channel=0 note=60 velocity=127 time=0.019791666666666666\n",
      "note_on channel=0 note=62 velocity=127 time=0.005208333333333333\n",
      "note_off channel=0 note=62 velocity=127 time=0.019791666666666666\n",
      "note_on channel=0 note=61 velocity=127 time=0.004166666666666667\n",
      "note_off channel=0 note=61 velocity=127 time=0.019791666666666666\n",
      "note_on channel=0 note=60 velocity=127 time=0.015625\n",
      "note_off channel=0 note=60 velocity=127 time=0.019791666666666666\n",
      "note_on channel=0 note=62 velocity=127 time=0.011458333333333333\n",
      "note_off channel=0 note=62 velocity=127 time=0.019791666666666666\n",
      "note_on channel=0 note=60 velocity=127 time=0.03333333333333333\n",
      "note_off channel=0 note=60 velocity=127 time=0.019791666666666666\n",
      "note_on channel=0 note=62 velocity=127 time=0.016666666666666666\n",
      "note_on channel=0 note=61 velocity=127 time=0.003125\n",
      "note_off channel=0 note=62 velocity=127 time=0.017708333333333333\n",
      "note_off channel=0 note=61 velocity=127 time=0.003125\n",
      "note_on channel=0 note=60 velocity=127 time=0.025\n",
      "note_off channel=0 note=60 velocity=127 time=0.019791666666666666\n",
      "note_on channel=0 note=62 velocity=127 time=0.021875\n",
      "note_off channel=0 note=62 velocity=127 time=0.019791666666666666\n",
      "note_on channel=0 note=60 velocity=127 time=0.022916666666666665\n",
      "note_off channel=0 note=60 velocity=127 time=0.019791666666666666\n",
      "note_on channel=0 note=61 velocity=127 time=0.009375\n",
      "note_on channel=0 note=62 velocity=127 time=0.017708333333333333\n",
      "note_off channel=0 note=61 velocity=127 time=0.0020833333333333333\n",
      "note_off channel=0 note=62 velocity=127 time=0.017708333333333333\n",
      "note_on channel=0 note=60 velocity=127 time=0.016666666666666666\n",
      "note_off channel=0 note=60 velocity=127 time=0.019791666666666666\n",
      "note_on channel=0 note=62 velocity=127 time=0.03333333333333333\n",
      "note_off channel=0 note=62 velocity=127 time=0.019791666666666666\n",
      "note_on channel=0 note=60 velocity=127 time=0.011458333333333333\n",
      "note_on channel=0 note=61 velocity=127 time=0.019791666666666666\n",
      "note_off channel=0 note=60 velocity=127 time=0\n",
      "note_off channel=0 note=61 velocity=127 time=0.019791666666666666\n",
      "note_on channel=0 note=62 velocity=127 time=0.01875\n",
      "note_off channel=0 note=62 velocity=127 time=0.019791666666666666\n",
      "note_on channel=0 note=60 velocity=127 time=0.00625\n",
      "note_off channel=0 note=60 velocity=127 time=0.019791666666666666\n",
      "note_on channel=0 note=62 velocity=127 time=0.04479166666666667\n",
      "note_off channel=0 note=62 velocity=127 time=0.019791666666666666\n",
      "note_on channel=0 note=60 velocity=127 time=0\n",
      "note_on channel=0 note=61 velocity=127 time=0.010416666666666666\n",
      "note_off channel=0 note=60 velocity=127 time=0.010416666666666666\n",
      "note_off channel=0 note=61 velocity=127 time=0.010416666666666666\n",
      "note_on channel=0 note=62 velocity=127 time=0.03958333333333333\n",
      "note_on channel=0 note=60 velocity=127 time=0.014583333333333334\n",
      "note_off channel=0 note=62 velocity=127 time=0.005208333333333333\n",
      "note_off channel=0 note=60 velocity=127 time=0.014583333333333334\n",
      "note_on channel=0 note=62 velocity=127 time=0.05520833333333333\n",
      "note_on channel=0 note=60 velocity=127 time=0.009375\n",
      "note_on channel=0 note=61 velocity=127 time=0\n",
      "note_off channel=0 note=62 velocity=127 time=0.010416666666666666\n",
      "note_off channel=0 note=60 velocity=127 time=0.009375\n",
      "note_off channel=0 note=61 velocity=127 time=0\n",
      "note_on channel=0 note=62 velocity=127 time=0.06041666666666667\n",
      "note_on channel=0 note=60 velocity=127 time=0.004166666666666667\n",
      "note_off channel=0 note=62 velocity=127 time=0.016666666666666666\n",
      "note_off channel=0 note=60 velocity=127 time=0.004166666666666667\n",
      "note_on channel=0 note=61 velocity=127 time=0.05520833333333333\n",
      "\u001b[91m [DEBUG] > \u001b[0m\n",
      " |>  to_array: msg.time > max_t; t, n\n",
      " |>  2.0375\n",
      " |>  100\n",
      "note_on channel=0 note=60 velocity=127 time=0.0010416666666666667\n",
      "note_off channel=0 note=60 velocity=127 time=0.019791666666666666\n",
      "note_on channel=0 note=60 velocity=127 time=0.058333333333333334\n",
      "note_on channel=0 note=61 velocity=127 time=0.0010416666666666667\n",
      "note_off channel=0 note=60 velocity=127 time=0.01875\n",
      "note_off channel=0 note=61 velocity=127 time=0.0010416666666666667\n",
      "note_on channel=0 note=62 velocity=127 time=0.025\n",
      "note_off channel=0 note=62 velocity=127 time=0.019791666666666666\n",
      "note_on channel=0 note=60 velocity=127 time=0.0125\n",
      "note_off channel=0 note=60 velocity=127 time=0.019791666666666666\n",
      "note_on channel=0 note=60 velocity=127 time=0.058333333333333334\n",
      "note_off channel=0 note=60 velocity=127 time=0.019791666666666666\n",
      "note_on channel=0 note=62 velocity=127 time=0.005208333333333333\n",
      "note_off channel=0 note=62 velocity=127 time=0.019791666666666666\n",
      "note_on channel=0 note=61 velocity=127 time=0.009375\n",
      "note_off channel=0 note=61 velocity=127 time=0.019791666666666666\n",
      "note_on channel=0 note=60 velocity=127 time=0.003125\n",
      "note_off channel=0 note=60 velocity=127 time=0.019791666666666666\n",
      "note_on channel=0 note=60 velocity=127 time=0.058333333333333334\n",
      "note_on channel=0 note=62 velocity=127 time=0.005208333333333333\n",
      "note_off channel=0 note=60 velocity=127 time=0.014583333333333334\n",
      "note_off channel=0 note=62 velocity=127 time=0.005208333333333333\n",
      "note_on channel=0 note=60 velocity=127 time=0.053125\n",
      "note_off channel=0 note=60 velocity=127 time=0.019791666666666666\n",
      "note_on channel=0 note=61 velocity=127 time=0.010416666666666666\n",
      "note_off channel=0 note=61 velocity=127 time=0.019791666666666666\n",
      "note_on channel=0 note=62 velocity=127 time=0.0125\n",
      "note_on channel=0 note=60 velocity=127 time=0.015625\n",
      "note_off channel=0 note=62 velocity=127 time=0.004166666666666667\n",
      "note_off channel=0 note=60 velocity=127 time=0.015625\n",
      "note_on channel=0 note=60 velocity=127 time=0.058333333333333334\n",
      "note_off channel=0 note=60 velocity=127 time=0.019791666666666666\n",
      "note_on channel=0 note=62 velocity=127 time=0.022916666666666665\n",
      "note_off channel=0 note=62 velocity=127 time=0.019791666666666666\n",
      "note_on channel=0 note=60 velocity=127 time=0.015625\n",
      "note_on channel=0 note=61 velocity=127 time=0.005208333333333333\n",
      "note_off channel=0 note=60 velocity=127 time=0.014583333333333334\n",
      "note_off channel=0 note=61 velocity=127 time=0.005208333333333333\n",
      "note_on channel=0 note=60 velocity=127 time=0.053125\n",
      "note_off channel=0 note=60 velocity=127 time=0.019791666666666666\n",
      "note_on channel=0 note=62 velocity=127 time=0.0020833333333333333\n",
      "note_off channel=0 note=62 velocity=127 time=0.019791666666666666\n",
      "note_on channel=0 note=60 velocity=127 time=0.036458333333333336\n",
      "note_off channel=0 note=60 velocity=127 time=0.019791666666666666\n",
      "note_on channel=0 note=61 velocity=127 time=0.03958333333333333\n",
      "note_on channel=0 note=60 velocity=127 time=0.01875\n",
      "note_off channel=0 note=61 velocity=127 time=0.0010416666666666667\n",
      "note_on channel=0 note=62 velocity=127 time=0.0010416666666666667\n",
      "note_off channel=0 note=60 velocity=127 time=0.01875\n",
      "note_off channel=0 note=62 velocity=127 time=0.0020833333333333333\n",
      "note_on channel=0 note=60 velocity=127 time=0.057291666666666664\n",
      "note_off channel=0 note=60 velocity=127 time=0.019791666666666666\n",
      "note_on channel=0 note=62 velocity=127 time=0.03958333333333333\n",
      "note_on channel=0 note=60 velocity=127 time=0.01875\n",
      "note_off channel=0 note=62 velocity=127 time=0.0010416666666666667\n",
      "note_off channel=0 note=60 velocity=127 time=0.01875\n",
      "note_on channel=0 note=61 velocity=127 time=0.014583333333333334\n",
      "note_off channel=0 note=61 velocity=127 time=0.019791666666666666\n",
      "note_on channel=0 note=60 velocity=127 time=0.02395833333333333\n",
      "note_off channel=0 note=60 velocity=127 time=0.019791666666666666\n",
      "note_on channel=0 note=62 velocity=127 time=0.01875\n",
      "note_off channel=0 note=62 velocity=127 time=0.019791666666666666\n",
      "note_on channel=0 note=60 velocity=127 time=0.019791666666666666\n",
      "note_off channel=0 note=60 velocity=127 time=0.019791666666666666\n",
      "note_on channel=0 note=60 velocity=127 time=0.058333333333333334\n",
      "note_on channel=0 note=61 velocity=127 time=0.010416666666666666\n",
      "note_on channel=0 note=62 velocity=127 time=0.008333333333333333\n",
      "note_off channel=0 note=60 velocity=127 time=0.0010416666666666667\n",
      "note_off channel=0 note=61 velocity=127 time=0.010416666666666666\n",
      "note_off channel=0 note=62 velocity=127 time=0.008333333333333333\n",
      "note_on channel=0 note=60 velocity=127 time=0.03958333333333333\n",
      "note_off channel=0 note=60 velocity=127 time=0.019791666666666666\n",
      "note_on channel=0 note=62 velocity=127 time=0.057291666666666664\n",
      "note_on channel=0 note=60 velocity=127 time=0.0020833333333333333\n",
      "note_off channel=0 note=62 velocity=127 time=0.017708333333333333\n",
      "note_off channel=0 note=60 velocity=127 time=0.0020833333333333333\n",
      "note_on channel=0 note=61 velocity=127 time=0.04375\n",
      "note_on channel=0 note=60 velocity=127 time=0.014583333333333334\n",
      "note_off channel=0 note=61 velocity=127 time=0.005208333333333333\n",
      "note_off channel=0 note=60 velocity=127 time=0.014583333333333334\n",
      "note_on channel=0 note=62 velocity=127 time=0.036458333333333336\n",
      "note_off channel=0 note=62 velocity=127 time=0.019791666666666666\n",
      "note_on channel=0 note=60 velocity=127 time=0.0020833333333333333\n",
      "note_off channel=0 note=60 velocity=127 time=0.019791666666666666\n",
      "note_on channel=0 note=60 velocity=127 time=0.058333333333333334\n",
      "note_off channel=0 note=60 velocity=127 time=0.019791666666666666\n",
      "note_on channel=0 note=62 velocity=127 time=0.015625\n",
      "note_on channel=0 note=61 velocity=127 time=0.003125\n",
      "note_off channel=0 note=62 velocity=127 time=0.016666666666666666\n",
      "note_off channel=0 note=61 velocity=127 time=0.003125\n",
      "note_on channel=0 note=60 velocity=127 time=0.019791666666666666\n",
      "note_off channel=0 note=60 velocity=127 time=0.019791666666666666\n",
      "note_on channel=0 note=60 velocity=127 time=0.058333333333333334\n",
      "note_on channel=0 note=62 velocity=127 time=0.015625\n",
      "note_off channel=0 note=60 velocity=127 time=0.004166666666666667\n",
      "note_off channel=0 note=62 velocity=127 time=0.015625\n",
      "note_on channel=0 note=60 velocity=127 time=0.04375\n",
      "note_on channel=0 note=61 velocity=127 time=0.014583333333333334\n",
      "note_off channel=0 note=60 velocity=127 time=0.005208333333333333\n",
      "note_off channel=0 note=61 velocity=127 time=0.014583333333333334\n",
      "\u001b[91m [DEBUG] > \u001b[0m\n",
      " |>  to_array: msg.time > max_t; t, n\n",
      " |>  1.9916666666666671\n",
      " |>  100\n",
      "note_on channel=0 note=62 velocity=127 time=0.06145833333333333\n",
      "note_off channel=0 note=62 velocity=127 time=0.019791666666666666\n",
      "note_on channel=0 note=61 velocity=127 time=0.011458333333333333\n",
      "note_off channel=0 note=61 velocity=127 time=0.019791666666666666\n",
      "note_on channel=0 note=60 velocity=127 time=0.011458333333333333\n",
      "note_off channel=0 note=60 velocity=127 time=0.019791666666666666\n",
      "note_on channel=0 note=62 velocity=127 time=0.020833333333333332\n",
      "note_off channel=0 note=62 velocity=127 time=0.019791666666666666\n",
      "note_on channel=0 note=61 velocity=127 time=0.013541666666666667\n",
      "note_off channel=0 note=61 velocity=127 time=0.019791666666666666\n",
      "note_on channel=0 note=62 velocity=127 time=0.051041666666666666\n",
      "note_off channel=0 note=62 velocity=127 time=0.019791666666666666\n",
      "note_on channel=0 note=61 velocity=127 time=0.015625\n",
      "note_off channel=0 note=61 velocity=127 time=0.019791666666666666\n",
      "note_on channel=0 note=60 velocity=127 time=0.014583333333333334\n",
      "note_off channel=0 note=60 velocity=127 time=0.019791666666666666\n",
      "note_on channel=0 note=62 velocity=127 time=0.013541666666666667\n",
      "note_off channel=0 note=62 velocity=127 time=0.019791666666666666\n",
      "note_on channel=0 note=61 velocity=127 time=0.016666666666666666\n",
      "note_off channel=0 note=61 velocity=127 time=0.019791666666666666\n",
      "note_on channel=0 note=62 velocity=127 time=0.046875\n",
      "note_off channel=0 note=62 velocity=127 time=0.019791666666666666\n",
      "note_on channel=0 note=61 velocity=127 time=0.01875\n",
      "note_off channel=0 note=61 velocity=127 time=0.019791666666666666\n",
      "note_on channel=0 note=60 velocity=127 time=0.017708333333333333\n",
      "note_off channel=0 note=60 velocity=127 time=0.019791666666666666\n",
      "note_on channel=0 note=62 velocity=127 time=0.007291666666666667\n",
      "note_off channel=0 note=62 velocity=127 time=0.019791666666666666\n",
      "note_on channel=0 note=61 velocity=127 time=0.020833333333333332\n",
      "note_off channel=0 note=61 velocity=127 time=0.019791666666666666\n",
      "note_on channel=0 note=62 velocity=127 time=0.042708333333333334\n",
      "note_off channel=0 note=62 velocity=127 time=0.019791666666666666\n",
      "note_on channel=0 note=61 velocity=127 time=0.022916666666666665\n",
      "note_off channel=0 note=61 velocity=127 time=0.019791666666666666\n",
      "note_on channel=0 note=60 velocity=127 time=0.020833333333333332\n",
      "note_off channel=0 note=60 velocity=127 time=0.019791666666666666\n",
      "note_on channel=0 note=62 velocity=127 time=0\n",
      "note_off channel=0 note=62 velocity=127 time=0.019791666666666666\n",
      "note_on channel=0 note=61 velocity=127 time=0.025\n",
      "note_off channel=0 note=61 velocity=127 time=0.019791666666666666\n",
      "note_on channel=0 note=62 velocity=127 time=0.03958333333333333\n",
      "note_off channel=0 note=62 velocity=127 time=0.019791666666666666\n",
      "note_on channel=0 note=61 velocity=127 time=0.027083333333333334\n",
      "note_off channel=0 note=61 velocity=127 time=0.019791666666666666\n",
      "note_on channel=0 note=60 velocity=127 time=0.02395833333333333\n",
      "note_on channel=0 note=62 velocity=127 time=0.013541666666666667\n",
      "note_off channel=0 note=60 velocity=127 time=0.00625\n",
      "note_off channel=0 note=62 velocity=127 time=0.013541666666666667\n",
      "note_on channel=0 note=61 velocity=127 time=0.028125\n",
      "note_off channel=0 note=61 velocity=127 time=0.019791666666666666\n",
      "note_on channel=0 note=62 velocity=127 time=0.035416666666666666\n",
      "note_off channel=0 note=62 velocity=127 time=0.019791666666666666\n",
      "note_on channel=0 note=61 velocity=127 time=0.030208333333333334\n",
      "note_off channel=0 note=61 velocity=127 time=0.019791666666666666\n",
      "note_on channel=0 note=60 velocity=127 time=0.027083333333333334\n",
      "note_on channel=0 note=62 velocity=127 time=0.00625\n",
      "note_off channel=0 note=60 velocity=127 time=0.013541666666666667\n",
      "note_off channel=0 note=62 velocity=127 time=0.00625\n",
      "note_on channel=0 note=61 velocity=127 time=0.03229166666666666\n",
      "note_off channel=0 note=61 velocity=127 time=0.019791666666666666\n",
      "note_on channel=0 note=62 velocity=127 time=0.03125\n",
      "note_off channel=0 note=62 velocity=127 time=0.019791666666666666\n",
      "note_on channel=0 note=61 velocity=127 time=0.034375\n",
      "note_off channel=0 note=61 velocity=127 time=0.019791666666666666\n",
      "note_on channel=0 note=62 velocity=127 time=0.030208333333333334\n",
      "note_on channel=0 note=60 velocity=127 time=0\n",
      "note_off channel=0 note=62 velocity=127 time=0.019791666666666666\n",
      "note_off channel=0 note=60 velocity=127 time=0\n",
      "note_on channel=0 note=61 velocity=127 time=0.036458333333333336\n",
      "note_off channel=0 note=61 velocity=127 time=0.019791666666666666\n",
      "note_on channel=0 note=62 velocity=127 time=0.028125\n",
      "note_off channel=0 note=62 velocity=127 time=0.019791666666666666\n",
      "note_on channel=0 note=61 velocity=127 time=0.03854166666666667\n",
      "note_off channel=0 note=61 velocity=127 time=0.019791666666666666\n",
      "note_on channel=0 note=62 velocity=127 time=0.026041666666666668\n",
      "note_on channel=0 note=60 velocity=127 time=0.007291666666666667\n",
      "note_off channel=0 note=62 velocity=127 time=0.0125\n",
      "note_off channel=0 note=60 velocity=127 time=0.007291666666666667\n",
      "note_on channel=0 note=61 velocity=127 time=0.03333333333333333\n",
      "note_off channel=0 note=61 velocity=127 time=0.019791666666666666\n",
      "note_on channel=0 note=62 velocity=127 time=0.02395833333333333\n",
      "note_off channel=0 note=62 velocity=127 time=0.019791666666666666\n",
      "note_on channel=0 note=61 velocity=127 time=0.041666666666666664\n",
      "note_off channel=0 note=61 velocity=127 time=0.019791666666666666\n",
      "note_on channel=0 note=62 velocity=127 time=0.021875\n",
      "note_on channel=0 note=60 velocity=127 time=0.013541666666666667\n",
      "note_off channel=0 note=62 velocity=127 time=0.00625\n",
      "note_off channel=0 note=60 velocity=127 time=0.013541666666666667\n",
      "note_on channel=0 note=61 velocity=127 time=0.030208333333333334\n",
      "note_off channel=0 note=61 velocity=127 time=0.019791666666666666\n",
      "note_on channel=0 note=62 velocity=127 time=0.019791666666666666\n",
      "note_off channel=0 note=62 velocity=127 time=0.019791666666666666\n",
      "note_on channel=0 note=61 velocity=127 time=0.04583333333333333\n",
      "\u001b[91m [DEBUG] > \u001b[0m\n",
      " |>  to_array: msg.time > max_t; t, n\n",
      " |>  1.9906249999999999\n",
      " |>  100\n",
      "note_on channel=0 note=62 velocity=127 time=0.07291666666666667\n",
      "note_off channel=0 note=62 velocity=127 time=0.019791666666666666\n",
      "note_on channel=0 note=61 velocity=127 time=0.06979166666666667\n",
      "note_on channel=0 note=62 velocity=127 time=0.019791666666666666\n",
      "note_off channel=0 note=61 velocity=127 time=0\n",
      "note_off channel=0 note=62 velocity=127 time=0.019791666666666666\n",
      "note_on channel=0 note=62 velocity=127 time=0.08958333333333333\n",
      "note_on channel=0 note=60 velocity=127 time=0.011458333333333333\n",
      "note_off channel=0 note=62 velocity=127 time=0.008333333333333333\n",
      "note_off channel=0 note=60 velocity=127 time=0.011458333333333333\n",
      "note_on channel=0 note=61 velocity=127 time=0.007291666666666667\n",
      "note_off channel=0 note=61 velocity=127 time=0.019791666666666666\n",
      "note_on channel=0 note=62 velocity=127 time=0.051041666666666666\n",
      "note_off channel=0 note=62 velocity=127 time=0.019791666666666666\n",
      "note_on channel=0 note=61 velocity=127 time=0.07708333333333334\n",
      "note_on channel=0 note=62 velocity=127 time=0.0125\n",
      "note_off channel=0 note=61 velocity=127 time=0.007291666666666667\n",
      "note_off channel=0 note=62 velocity=127 time=0.0125\n",
      "note_on channel=0 note=60 velocity=127 time=0.0875\n",
      "note_on channel=0 note=62 velocity=127 time=0.0020833333333333333\n",
      "note_off channel=0 note=60 velocity=127 time=0.017708333333333333\n",
      "note_off channel=0 note=62 velocity=127 time=0.0020833333333333333\n",
      "note_on channel=0 note=61 velocity=127 time=0.026041666666666668\n",
      "note_off channel=0 note=61 velocity=127 time=0.019791666666666666\n",
      "note_on channel=0 note=62 velocity=127 time=0.04375\n",
      "note_off channel=0 note=62 velocity=127 time=0.019791666666666666\n",
      "note_on channel=0 note=61 velocity=127 time=0.08541666666666667\n",
      "note_on channel=0 note=62 velocity=127 time=0.005208333333333333\n",
      "note_off channel=0 note=61 velocity=127 time=0.014583333333333334\n",
      "note_off channel=0 note=62 velocity=127 time=0.005208333333333333\n",
      "note_on channel=0 note=60 velocity=127 time=0.07395833333333333\n",
      "note_on channel=0 note=62 velocity=127 time=0.016666666666666666\n",
      "note_off channel=0 note=60 velocity=127 time=0.004166666666666667\n",
      "note_off channel=0 note=62 velocity=127 time=0.016666666666666666\n",
      "note_on channel=0 note=61 velocity=127 time=0.03333333333333333\n",
      "note_off channel=0 note=61 velocity=127 time=0.019791666666666666\n",
      "note_on channel=0 note=62 velocity=127 time=0.036458333333333336\n",
      "note_off channel=0 note=62 velocity=127 time=0.019791666666666666\n",
      "note_on channel=0 note=62 velocity=127 time=0.08958333333333333\n",
      "note_on channel=0 note=61 velocity=127 time=0.0020833333333333333\n",
      "note_off channel=0 note=62 velocity=127 time=0.017708333333333333\n",
      "note_off channel=0 note=61 velocity=127 time=0.0020833333333333333\n",
      "note_on channel=0 note=60 velocity=127 time=0.057291666666666664\n",
      "note_off channel=0 note=60 velocity=127 time=0.019791666666666666\n",
      "note_on channel=0 note=62 velocity=127 time=0.010416666666666666\n",
      "note_off channel=0 note=62 velocity=127 time=0.019791666666666666\n",
      "note_on channel=0 note=61 velocity=127 time=0.040625\n",
      "note_off channel=0 note=61 velocity=127 time=0.019791666666666666\n",
      "note_on channel=0 note=62 velocity=127 time=0.029166666666666667\n",
      "note_off channel=0 note=62 velocity=127 time=0.019791666666666666\n",
      "note_on channel=0 note=62 velocity=127 time=0.08958333333333333\n",
      "note_on channel=0 note=61 velocity=127 time=0.009375\n",
      "note_off channel=0 note=62 velocity=127 time=0.010416666666666666\n",
      "note_off channel=0 note=61 velocity=127 time=0.009375\n",
      "note_on channel=0 note=60 velocity=127 time=0.036458333333333336\n",
      "note_off channel=0 note=60 velocity=127 time=0.019791666666666666\n",
      "note_on channel=0 note=62 velocity=127 time=0.02395833333333333\n",
      "note_off channel=0 note=62 velocity=127 time=0.019791666666666666\n",
      "note_on channel=0 note=61 velocity=127 time=0.04791666666666666\n",
      "note_off channel=0 note=61 velocity=127 time=0.019791666666666666\n",
      "note_on channel=0 note=62 velocity=127 time=0.021875\n",
      "note_off channel=0 note=62 velocity=127 time=0.019791666666666666\n",
      "note_on channel=0 note=62 velocity=127 time=0.08958333333333333\n",
      "note_on channel=0 note=61 velocity=127 time=0.016666666666666666\n",
      "note_off channel=0 note=62 velocity=127 time=0.003125\n",
      "note_off channel=0 note=61 velocity=127 time=0.016666666666666666\n",
      "note_on channel=0 note=60 velocity=127 time=0.014583333333333334\n",
      "note_off channel=0 note=60 velocity=127 time=0.019791666666666666\n",
      "note_on channel=0 note=62 velocity=127 time=0.0375\n",
      "note_off channel=0 note=62 velocity=127 time=0.019791666666666666\n",
      "note_on channel=0 note=61 velocity=127 time=0.05520833333333333\n",
      "\u001b[91m [DEBUG] > \u001b[0m\n",
      " |>  to_array: msg.time > max_t; t, n\n",
      " |>  2.009375\n",
      " |>  100\n"
     ]
    },
    {
     "name": "stdout",
     "output_type": "stream",
     "text": [
      "note_on channel=0 note=62 velocity=127 time=0.052083333333333336\n",
      "note_on channel=0 note=61 velocity=127 time=0.0010416666666666667\n",
      "note_off channel=0 note=62 velocity=127 time=0.01875\n",
      "note_off channel=0 note=61 velocity=127 time=0.0010416666666666667\n",
      "note_on channel=0 note=61 velocity=127 time=0.04895833333333333\n",
      "note_on channel=0 note=62 velocity=127 time=0.017708333333333333\n",
      "note_off channel=0 note=61 velocity=127 time=0.003125\n",
      "note_off channel=0 note=62 velocity=127 time=0.017708333333333333\n",
      "note_on channel=0 note=60 velocity=127 time=0.014583333333333334\n",
      "note_on channel=0 note=61 velocity=127 time=0.016666666666666666\n",
      "note_off channel=0 note=60 velocity=127 time=0.003125\n",
      "note_off channel=0 note=61 velocity=127 time=0.016666666666666666\n",
      "note_on channel=0 note=62 velocity=127 time=0.015625\n",
      "note_off channel=0 note=62 velocity=127 time=0.019791666666666666\n",
      "note_on channel=0 note=61 velocity=127 time=0.0125\n",
      "note_off channel=0 note=61 velocity=127 time=0.019791666666666666\n",
      "note_on channel=0 note=62 velocity=127 time=0.034375\n",
      "note_on channel=0 note=61 velocity=127 time=0.014583333333333334\n",
      "note_off channel=0 note=62 velocity=127 time=0.005208333333333333\n",
      "note_off channel=0 note=61 velocity=127 time=0.014583333333333334\n",
      "note_on channel=0 note=60 velocity=127 time=0.03125\n",
      "note_on channel=0 note=61 velocity=127 time=0.017708333333333333\n",
      "note_off channel=0 note=60 velocity=127 time=0.003125\n",
      "note_on channel=0 note=62 velocity=127 time=0.0010416666666666667\n",
      "note_off channel=0 note=61 velocity=127 time=0.016666666666666666\n",
      "note_off channel=0 note=62 velocity=127 time=0.004166666666666667\n",
      "note_on channel=0 note=61 velocity=127 time=0.04479166666666667\n",
      "note_off channel=0 note=61 velocity=127 time=0.019791666666666666\n",
      "note_on channel=0 note=62 velocity=127 time=0.0020833333333333333\n",
      "note_off channel=0 note=62 velocity=127 time=0.019791666666666666\n",
      "note_on channel=0 note=61 velocity=127 time=0.026041666666666668\n",
      "note_off channel=0 note=61 velocity=127 time=0.019791666666666666\n",
      "note_on channel=0 note=62 velocity=127 time=0.020833333333333332\n",
      "note_on channel=0 note=60 velocity=127 time=0.010416666666666666\n",
      "note_off channel=0 note=62 velocity=127 time=0.009375\n",
      "note_on channel=0 note=61 velocity=127 time=0.008333333333333333\n",
      "note_off channel=0 note=60 velocity=127 time=0.0020833333333333333\n",
      "note_off channel=0 note=61 velocity=127 time=0.017708333333333333\n",
      "note_on channel=0 note=62 velocity=127 time=0.03854166666666667\n",
      "note_on channel=0 note=61 velocity=127 time=0.009375\n",
      "note_off channel=0 note=62 velocity=127 time=0.010416666666666666\n",
      "note_off channel=0 note=61 velocity=127 time=0.009375\n",
      "note_on channel=0 note=61 velocity=127 time=0.04895833333333333\n",
      "note_on channel=0 note=62 velocity=127 time=0.008333333333333333\n",
      "note_off channel=0 note=61 velocity=127 time=0.011458333333333333\n",
      "note_off channel=0 note=62 velocity=127 time=0.008333333333333333\n",
      "note_on channel=0 note=60 velocity=127 time=0.020833333333333332\n",
      "note_on channel=0 note=61 velocity=127 time=0.01875\n",
      "note_off channel=0 note=60 velocity=127 time=0.0010416666666666667\n",
      "note_off channel=0 note=61 velocity=127 time=0.01875\n",
      "note_on channel=0 note=62 velocity=127 time=0.007291666666666667\n",
      "note_off channel=0 note=62 velocity=127 time=0.019791666666666666\n",
      "note_on channel=0 note=61 velocity=127 time=0.021875\n",
      "note_off channel=0 note=61 velocity=127 time=0.019791666666666666\n",
      "note_on channel=0 note=62 velocity=127 time=0.025\n",
      "note_off channel=0 note=62 velocity=127 time=0.019791666666666666\n",
      "note_on channel=0 note=61 velocity=127 time=0.003125\n",
      "note_off channel=0 note=61 velocity=127 time=0.019791666666666666\n",
      "note_on channel=0 note=60 velocity=127 time=0.029166666666666667\n",
      "note_on channel=0 note=62 velocity=127 time=0.014583333333333334\n",
      "note_on channel=0 note=61 velocity=127 time=0.005208333333333333\n",
      "note_off channel=0 note=60 velocity=127 time=0.0010416666666666667\n",
      "note_off channel=0 note=62 velocity=127 time=0.014583333333333334\n",
      "note_off channel=0 note=61 velocity=127 time=0.005208333333333333\n",
      "note_on channel=0 note=61 velocity=127 time=0.04895833333333333\n",
      "note_on channel=0 note=62 velocity=127 time=0.013541666666666667\n",
      "note_off channel=0 note=61 velocity=127 time=0.00625\n",
      "note_off channel=0 note=62 velocity=127 time=0.013541666666666667\n",
      "note_on channel=0 note=61 velocity=127 time=0.035416666666666666\n",
      "note_off channel=0 note=61 velocity=127 time=0.019791666666666666\n",
      "note_on channel=0 note=62 velocity=127 time=0.011458333333333333\n",
      "note_on channel=0 note=60 velocity=127 time=0.016666666666666666\n",
      "note_off channel=0 note=62 velocity=127 time=0.003125\n",
      "note_off channel=0 note=60 velocity=127 time=0.016666666666666666\n",
      "note_on channel=0 note=61 velocity=127 time=0\n",
      "note_off channel=0 note=61 velocity=127 time=0.019791666666666666\n",
      "note_on channel=0 note=62 velocity=127 time=0.030208333333333334\n",
      "note_on channel=0 note=61 velocity=127 time=0.01875\n",
      "note_off channel=0 note=62 velocity=127 time=0.0010416666666666667\n",
      "note_off channel=0 note=61 velocity=127 time=0.01875\n",
      "note_on channel=0 note=62 velocity=127 time=0.04895833333333333\n",
      "note_on channel=0 note=61 velocity=127 time=0\n",
      "note_off channel=0 note=62 velocity=127 time=0.019791666666666666\n",
      "note_off channel=0 note=61 velocity=127 time=0\n",
      "note_on channel=0 note=60 velocity=127 time=0.028125\n",
      "note_off channel=0 note=60 velocity=127 time=0.019791666666666666\n",
      "note_on channel=0 note=61 velocity=127 time=0.0010416666666666667\n",
      "note_on channel=0 note=62 velocity=127 time=0.01875\n",
      "note_off channel=0 note=61 velocity=127 time=0.0020833333333333333\n",
      "note_off channel=0 note=62 velocity=127 time=0.01875\n",
      "note_on channel=0 note=61 velocity=127 time=0.030208333333333334\n",
      "note_off channel=0 note=61 velocity=127 time=0.019791666666666666\n",
      "note_on channel=0 note=62 velocity=127 time=0.016666666666666666\n",
      "note_off channel=0 note=62 velocity=127 time=0.019791666666666666\n",
      "note_on channel=0 note=61 velocity=127 time=0.0125\n",
      "note_off channel=0 note=61 velocity=127 time=0.019791666666666666\n",
      "note_on channel=0 note=60 velocity=127 time=0.027083333333333334\n",
      "note_on channel=0 note=62 velocity=127 time=0.008333333333333333\n",
      "note_off channel=0 note=60 velocity=127 time=0.0125\n",
      "note_on channel=0 note=61 velocity=127 time=0.0010416666666666667\n",
      "note_off channel=0 note=62 velocity=127 time=0.00625\n",
      "note_off channel=0 note=61 velocity=127 time=0.013541666666666667\n",
      "note_on channel=0 note=61 velocity=127 time=0.04895833333333333\n",
      "note_on channel=0 note=62 velocity=127 time=0.005208333333333333\n",
      "note_off channel=0 note=61 velocity=127 time=0.015625\n",
      "note_off channel=0 note=62 velocity=127 time=0.005208333333333333\n",
      "note_on channel=0 note=61 velocity=127 time=0.04375\n",
      "note_off channel=0 note=61 velocity=127 time=0.019791666666666666\n",
      "note_on channel=0 note=62 velocity=127 time=0.003125\n",
      "note_off channel=0 note=62 velocity=127 time=0.019791666666666666\n",
      "note_on channel=0 note=60 velocity=127 time=0.003125\n",
      "note_off channel=0 note=60 velocity=127 time=0.019791666666666666\n",
      "note_on channel=0 note=61 velocity=127 time=0.0020833333333333333\n",
      "note_off channel=0 note=61 velocity=127 time=0.019791666666666666\n",
      "note_on channel=0 note=62 velocity=127 time=0.021875\n",
      "note_off channel=0 note=62 velocity=127 time=0.019791666666666666\n",
      "note_on channel=0 note=61 velocity=127 time=0.007291666666666667\n",
      "note_off channel=0 note=61 velocity=127 time=0.019791666666666666\n",
      "note_on channel=0 note=62 velocity=127 time=0.03958333333333333\n",
      "note_on channel=0 note=61 velocity=127 time=0.008333333333333333\n",
      "note_off channel=0 note=62 velocity=127 time=0.011458333333333333\n",
      "note_off channel=0 note=61 velocity=127 time=0.008333333333333333\n",
      "\u001b[91m [DEBUG] > \u001b[0m\n",
      " |>  to_array: msg.time > max_t; t, n\n",
      " |>  1.9947916666666665\n",
      " |>  100\n",
      "note_on channel=0 note=61 velocity=127 time=0.015625\n",
      "note_on channel=0 note=60 velocity=127 time=0.00625\n",
      "note_on channel=0 note=62 velocity=127 time=0.009375\n",
      "note_off channel=0 note=61 velocity=127 time=0.004166666666666667\n",
      "note_off channel=0 note=60 velocity=127 time=0.00625\n",
      "note_off channel=0 note=62 velocity=127 time=0.009375\n",
      "note_on channel=0 note=61 velocity=127 time=0.058333333333333334\n",
      "note_off channel=0 note=61 velocity=127 time=0.019791666666666666\n",
      "note_on channel=0 note=60 velocity=127 time=0.00625\n",
      "note_on channel=0 note=62 velocity=127 time=0.016666666666666666\n",
      "note_off channel=0 note=60 velocity=127 time=0.003125\n",
      "note_off channel=0 note=62 velocity=127 time=0.016666666666666666\n",
      "note_on channel=0 note=61 velocity=127 time=0.03229166666666666\n",
      "note_off channel=0 note=61 velocity=127 time=0.019791666666666666\n",
      "note_on channel=0 note=60 velocity=127 time=0.026041666666666668\n",
      "note_off channel=0 note=60 velocity=127 time=0.019791666666666666\n",
      "note_on channel=0 note=62 velocity=127 time=0.003125\n",
      "note_off channel=0 note=62 velocity=127 time=0.019791666666666666\n",
      "note_on channel=0 note=61 velocity=127 time=0.005208333333333333\n",
      "note_off channel=0 note=61 velocity=127 time=0.019791666666666666\n",
      "note_on channel=0 note=60 velocity=127 time=0.04583333333333333\n",
      "note_off channel=0 note=60 velocity=127 time=0.019791666666666666\n",
      "note_on channel=0 note=61 velocity=127 time=0.009375\n",
      "note_on channel=0 note=62 velocity=127 time=0.0010416666666666667\n",
      "note_off channel=0 note=61 velocity=127 time=0.01875\n",
      "note_off channel=0 note=62 velocity=127 time=0.0010416666666666667\n",
      "note_on channel=0 note=60 velocity=127 time=0.06458333333333333\n",
      "note_on channel=0 note=61 velocity=127 time=0.009375\n",
      "note_off channel=0 note=60 velocity=127 time=0.010416666666666666\n",
      "note_off channel=0 note=61 velocity=127 time=0.009375\n",
      "note_on channel=0 note=62 velocity=127 time=0.007291666666666667\n",
      "note_off channel=0 note=62 velocity=127 time=0.019791666666666666\n",
      "note_on channel=0 note=61 velocity=127 time=0.046875\n",
      "note_on channel=0 note=60 velocity=127 time=0.010416666666666666\n",
      "note_off channel=0 note=61 velocity=127 time=0.009375\n",
      "note_off channel=0 note=60 velocity=127 time=0.010416666666666666\n",
      "note_on channel=0 note=62 velocity=127 time=0.02395833333333333\n",
      "note_off channel=0 note=62 velocity=127 time=0.019791666666666666\n",
      "note_on channel=0 note=61 velocity=127 time=0.020833333333333332\n",
      "note_off channel=0 note=61 velocity=127 time=0.019791666666666666\n",
      "note_on channel=0 note=60 velocity=127 time=0.009375\n",
      "note_off channel=0 note=60 velocity=127 time=0.019791666666666666\n",
      "note_on channel=0 note=62 velocity=127 time=0.03125\n",
      "note_on channel=0 note=61 velocity=127 time=0.013541666666666667\n",
      "note_off channel=0 note=62 velocity=127 time=0.00625\n",
      "note_off channel=0 note=61 velocity=127 time=0.013541666666666667\n",
      "note_on channel=0 note=60 velocity=127 time=0.029166666666666667\n",
      "note_off channel=0 note=60 velocity=127 time=0.019791666666666666\n",
      "note_on channel=0 note=61 velocity=127 time=0.025\n",
      "note_on channel=0 note=62 velocity=127 time=0.0125\n",
      "note_off channel=0 note=61 velocity=127 time=0.007291666666666667\n",
      "note_off channel=0 note=62 velocity=127 time=0.0125\n",
      "note_on channel=0 note=60 velocity=127 time=0.036458333333333336\n",
      "note_off channel=0 note=60 velocity=127 time=0.019791666666666666\n",
      "note_on channel=0 note=61 velocity=127 time=0.005208333333333333\n",
      "note_off channel=0 note=61 velocity=127 time=0.019791666666666666\n",
      "note_on channel=0 note=62 velocity=127 time=0.01875\n",
      "note_off channel=0 note=62 velocity=127 time=0.019791666666666666\n",
      "note_on channel=0 note=60 velocity=127 time=0.030208333333333334\n",
      "note_on channel=0 note=61 velocity=127 time=0.00625\n",
      "note_off channel=0 note=60 velocity=127 time=0.013541666666666667\n",
      "note_off channel=0 note=61 velocity=127 time=0.00625\n",
      "note_on channel=0 note=62 velocity=127 time=0.04583333333333333\n",
      "note_off channel=0 note=62 velocity=127 time=0.019791666666666666\n",
      "note_on channel=0 note=61 velocity=127 time=0.009375\n",
      "note_on channel=0 note=60 velocity=127 time=0.013541666666666667\n",
      "note_off channel=0 note=61 velocity=127 time=0.00625\n",
      "note_off channel=0 note=60 velocity=127 time=0.013541666666666667\n",
      "note_on channel=0 note=62 velocity=127 time=0.058333333333333334\n",
      "note_on channel=0 note=61 velocity=127 time=0.003125\n",
      "note_off channel=0 note=62 velocity=127 time=0.017708333333333333\n",
      "note_off channel=0 note=61 velocity=127 time=0.003125\n",
      "note_on channel=0 note=60 velocity=127 time=0.013541666666666667\n",
      "note_off channel=0 note=60 velocity=127 time=0.019791666666666666\n",
      "note_on channel=0 note=61 velocity=127 time=0.041666666666666664\n",
      "note_off channel=0 note=61 velocity=127 time=0.019791666666666666\n",
      "note_on channel=0 note=62 velocity=127 time=0.004166666666666667\n",
      "note_off channel=0 note=62 velocity=127 time=0.019791666666666666\n",
      "note_on channel=0 note=60 velocity=127 time=0.009375\n",
      "note_off channel=0 note=60 velocity=127 time=0.019791666666666666\n",
      "note_on channel=0 note=61 velocity=127 time=0.021875\n",
      "note_off channel=0 note=61 velocity=127 time=0.019791666666666666\n",
      "note_on channel=0 note=62 velocity=127 time=0.030208333333333334\n",
      "note_off channel=0 note=62 velocity=127 time=0.019791666666666666\n",
      "note_on channel=0 note=60 velocity=127 time=0.0020833333333333333\n",
      "note_off channel=0 note=60 velocity=127 time=0.019791666666666666\n",
      "note_on channel=0 note=61 velocity=127 time=0.0020833333333333333\n",
      "note_off channel=0 note=61 velocity=127 time=0.019791666666666666\n",
      "note_on channel=0 note=62 velocity=127 time=0.057291666666666664\n",
      "note_on channel=0 note=60 velocity=127 time=0.015625\n",
      "note_on channel=0 note=61 velocity=127 time=0.0020833333333333333\n",
      "note_off channel=0 note=62 velocity=127 time=0.0020833333333333333\n",
      "note_off channel=0 note=60 velocity=127 time=0.015625\n",
      "note_off channel=0 note=61 velocity=127 time=0.0020833333333333333\n",
      "note_on channel=0 note=61 velocity=127 time=0.075\n",
      "note_on channel=0 note=62 velocity=127 time=0.008333333333333333\n",
      "note_on channel=0 note=60 velocity=127 time=0.008333333333333333\n",
      "note_off channel=0 note=61 velocity=127 time=0.003125\n",
      "note_off channel=0 note=62 velocity=127 time=0.008333333333333333\n",
      "note_off channel=0 note=60 velocity=127 time=0.008333333333333333\n",
      "note_on channel=0 note=61 velocity=127 time=0.058333333333333334\n",
      "note_off channel=0 note=61 velocity=127 time=0.019791666666666666\n",
      "note_on channel=0 note=62 velocity=127 time=0.015625\n",
      "note_on channel=0 note=60 velocity=127 time=0.0010416666666666667\n",
      "note_off channel=0 note=62 velocity=127 time=0.01875\n",
      "note_off channel=0 note=60 velocity=127 time=0.0010416666666666667\n",
      "note_on channel=0 note=61 velocity=127 time=0.03854166666666667\n",
      "note_off channel=0 note=61 velocity=127 time=0.019791666666666666\n",
      "note_on channel=0 note=60 velocity=127 time=0.036458333333333336\n",
      "note_on channel=0 note=62 velocity=127 time=0.005208333333333333\n",
      "note_off channel=0 note=60 velocity=127 time=0.014583333333333334\n",
      "note_off channel=0 note=62 velocity=127 time=0.005208333333333333\n",
      "note_on channel=0 note=61 velocity=127 time=0.013541666666666667\n",
      "\u001b[91m [DEBUG] > \u001b[0m\n",
      " |>  to_array: msg.time > max_t; t, n\n",
      " |>  2.0000000000000004\n",
      " |>  100\n",
      "note_on channel=0 note=61 velocity=127 time=0.00625\n",
      "note_off channel=0 note=61 velocity=127 time=0.019791666666666666\n",
      "note_on channel=0 note=62 velocity=127 time=0.019791666666666666\n",
      "note_on channel=0 note=60 velocity=127 time=0.017708333333333333\n",
      "note_off channel=0 note=62 velocity=127 time=0.0020833333333333333\n",
      "note_off channel=0 note=60 velocity=127 time=0.017708333333333333\n",
      "note_on channel=0 note=62 velocity=127 time=0.04479166666666667\n",
      "note_off channel=0 note=62 velocity=127 time=0.019791666666666666\n",
      "note_on channel=0 note=61 velocity=127 time=0.026041666666666668\n",
      "note_off channel=0 note=61 velocity=127 time=0.019791666666666666\n",
      "note_on channel=0 note=62 velocity=127 time=0.016666666666666666\n",
      "note_on channel=0 note=60 velocity=127 time=0.010416666666666666\n",
      "note_off channel=0 note=62 velocity=127 time=0.009375\n",
      "note_off channel=0 note=60 velocity=127 time=0.010416666666666666\n",
      "note_on channel=0 note=62 velocity=127 time=0.052083333333333336\n",
      "note_off channel=0 note=62 velocity=127 time=0.019791666666666666\n",
      "note_on channel=0 note=61 velocity=127 time=0.028125\n",
      "note_off channel=0 note=61 velocity=127 time=0.019791666666666666\n",
      "note_on channel=0 note=62 velocity=127 time=0.013541666666666667\n",
      "note_on channel=0 note=60 velocity=127 time=0.003125\n",
      "note_off channel=0 note=62 velocity=127 time=0.017708333333333333\n",
      "note_off channel=0 note=60 velocity=127 time=0.003125\n",
      "note_on channel=0 note=62 velocity=127 time=0.059375\n",
      "note_off channel=0 note=62 velocity=127 time=0.019791666666666666\n",
      "note_on channel=0 note=61 velocity=127 time=0.03125\n",
      "note_off channel=0 note=61 velocity=127 time=0.019791666666666666\n",
      "note_on channel=0 note=60 velocity=127 time=0.00625\n",
      "note_on channel=0 note=62 velocity=127 time=0.005208333333333333\n",
      "note_off channel=0 note=60 velocity=127 time=0.015625\n",
      "note_off channel=0 note=62 velocity=127 time=0.005208333333333333\n",
      "note_on channel=0 note=62 velocity=127 time=0.0625\n",
      "note_off channel=0 note=62 velocity=127 time=0.019791666666666666\n",
      "note_on channel=0 note=61 velocity=127 time=0.034375\n",
      "note_on channel=0 note=60 velocity=127 time=0.015625\n",
      "note_off channel=0 note=61 velocity=127 time=0.004166666666666667\n",
      "note_on channel=0 note=62 velocity=127 time=0.008333333333333333\n",
      "note_off channel=0 note=60 velocity=127 time=0.007291666666666667\n",
      "note_off channel=0 note=62 velocity=127 time=0.0125\n",
      "note_on channel=0 note=62 velocity=127 time=0.0625\n",
      "note_off channel=0 note=62 velocity=127 time=0.019791666666666666\n",
      "note_on channel=0 note=61 velocity=127 time=0.0375\n",
      "note_on channel=0 note=60 velocity=127 time=0.005208333333333333\n",
      "note_off channel=0 note=61 velocity=127 time=0.014583333333333334\n",
      "note_on channel=0 note=62 velocity=127 time=0.005208333333333333\n",
      "note_off channel=0 note=60 velocity=127 time=0\n",
      "note_off channel=0 note=62 velocity=127 time=0.019791666666666666\n",
      "note_on channel=0 note=62 velocity=127 time=0.0625\n",
      "note_off channel=0 note=62 velocity=127 time=0.019791666666666666\n",
      "note_on channel=0 note=60 velocity=127 time=0.034375\n",
      "note_on channel=0 note=61 velocity=127 time=0.005208333333333333\n",
      "note_off channel=0 note=60 velocity=127 time=0.014583333333333334\n",
      "note_off channel=0 note=61 velocity=127 time=0.005208333333333333\n",
      "note_on channel=0 note=62 velocity=127 time=0.0020833333333333333\n",
      "note_off channel=0 note=62 velocity=127 time=0.019791666666666666\n",
      "note_on channel=0 note=62 velocity=127 time=0.0625\n",
      "note_off channel=0 note=62 velocity=127 time=0.019791666666666666\n",
      "note_on channel=0 note=60 velocity=127 time=0.027083333333333334\n",
      "note_on channel=0 note=61 velocity=127 time=0.015625\n",
      "note_off channel=0 note=60 velocity=127 time=0.004166666666666667\n",
      "note_on channel=0 note=62 velocity=127 time=0.014583333333333334\n",
      "note_off channel=0 note=61 velocity=127 time=0.0010416666666666667\n",
      "note_off channel=0 note=62 velocity=127 time=0.019791666666666666\n",
      "note_on channel=0 note=62 velocity=127 time=0.0625\n",
      "note_off channel=0 note=62 velocity=127 time=0.019791666666666666\n",
      "note_on channel=0 note=60 velocity=127 time=0.019791666666666666\n",
      "note_off channel=0 note=60 velocity=127 time=0.019791666666666666\n",
      "note_on channel=0 note=61 velocity=127 time=0.00625\n",
      "note_on channel=0 note=62 velocity=127 time=0.016666666666666666\n",
      "note_off channel=0 note=61 velocity=127 time=0.003125\n",
      "note_off channel=0 note=62 velocity=127 time=0.016666666666666666\n",
      "note_on channel=0 note=62 velocity=127 time=0.0625\n",
      "note_off channel=0 note=62 velocity=127 time=0.019791666666666666\n",
      "note_on channel=0 note=60 velocity=127 time=0.0125\n",
      "note_off channel=0 note=60 velocity=127 time=0.019791666666666666\n",
      "note_on channel=0 note=61 velocity=127 time=0.016666666666666666\n",
      "note_on channel=0 note=62 velocity=127 time=0.013541666666666667\n",
      "note_off channel=0 note=61 velocity=127 time=0.00625\n",
      "note_off channel=0 note=62 velocity=127 time=0.013541666666666667\n",
      "note_on channel=0 note=62 velocity=127 time=0.0625\n",
      "note_off channel=0 note=62 velocity=127 time=0.019791666666666666\n",
      "note_on channel=0 note=60 velocity=127 time=0.005208333333333333\n",
      "note_off channel=0 note=60 velocity=127 time=0.019791666666666666\n",
      "note_on channel=0 note=61 velocity=127 time=0.027083333333333334\n",
      "note_on channel=0 note=62 velocity=127 time=0.010416666666666666\n",
      "note_off channel=0 note=61 velocity=127 time=0.009375\n",
      "note_off channel=0 note=62 velocity=127 time=0.010416666666666666\n",
      "note_on channel=0 note=62 velocity=127 time=0.0625\n",
      "note_on channel=0 note=60 velocity=127 time=0.017708333333333333\n",
      "note_off channel=0 note=62 velocity=127 time=0.003125\n",
      "note_off channel=0 note=60 velocity=127 time=0.017708333333333333\n",
      "note_on channel=0 note=61 velocity=127 time=0.0375\n",
      "note_on channel=0 note=62 velocity=127 time=0.007291666666666667\n",
      "note_off channel=0 note=61 velocity=127 time=0.0125\n",
      "note_off channel=0 note=62 velocity=127 time=0.007291666666666667\n",
      "note_on channel=0 note=62 velocity=127 time=0.0625\n",
      "note_on channel=0 note=60 velocity=127 time=0.009375\n",
      "note_off channel=0 note=62 velocity=127 time=0.010416666666666666\n",
      "note_off channel=0 note=60 velocity=127 time=0.009375\n",
      "note_on channel=0 note=61 velocity=127 time=0.04791666666666666\n",
      "\u001b[91m [DEBUG] > \u001b[0m\n",
      " |>  to_array: msg.time > max_t; t, n\n",
      " |>  2.0166666666666666\n",
      " |>  100\n",
      "note_on channel=0 note=62 velocity=127 time=0.021875\n",
      "note_off channel=0 note=62 velocity=127 time=0.019791666666666666\n",
      "note_on channel=0 note=61 velocity=127 time=0.03125\n",
      "note_on channel=0 note=60 velocity=127 time=0.010416666666666666\n",
      "note_off channel=0 note=61 velocity=127 time=0.009375\n",
      "note_off channel=0 note=60 velocity=127 time=0.010416666666666666\n",
      "note_on channel=0 note=61 velocity=127 time=0.042708333333333334\n",
      "note_on channel=0 note=62 velocity=127 time=0.007291666666666667\n",
      "note_off channel=0 note=61 velocity=127 time=0.0125\n",
      "note_off channel=0 note=62 velocity=127 time=0.007291666666666667\n",
      "note_on channel=0 note=60 velocity=127 time=0.016666666666666666\n",
      "note_off channel=0 note=60 velocity=127 time=0.019791666666666666\n",
      "note_on channel=0 note=61 velocity=127 time=0.009375\n",
      "note_off channel=0 note=61 velocity=127 time=0.019791666666666666\n",
      "note_on channel=0 note=62 velocity=127 time=0.046875\n",
      "note_on channel=0 note=61 velocity=127 time=0.007291666666666667\n",
      "note_on channel=0 note=60 velocity=127 time=0.004166666666666667\n",
      "note_off channel=0 note=62 velocity=127 time=0.008333333333333333\n",
      "note_off channel=0 note=61 velocity=127 time=0.007291666666666667\n",
      "note_off channel=0 note=60 velocity=127 time=0.004166666666666667\n",
      "note_on channel=0 note=61 velocity=127 time=0.04895833333333333\n",
      "note_off channel=0 note=61 velocity=127 time=0.019791666666666666\n",
      "note_on channel=0 note=60 velocity=127 time=0.017708333333333333\n",
      "note_on channel=0 note=62 velocity=127 time=0.014583333333333334\n",
      "note_off channel=0 note=60 velocity=127 time=0.00625\n",
      "note_off channel=0 note=62 velocity=127 time=0.014583333333333334\n",
      "note_on channel=0 note=61 velocity=127 time=0.0010416666666666667\n",
      "note_off channel=0 note=61 velocity=127 time=0.019791666666666666\n",
      "note_on channel=0 note=60 velocity=127 time=0.052083333333333336\n",
      "note_on channel=0 note=61 velocity=127 time=0.0010416666666666667\n",
      "note_off channel=0 note=60 velocity=127 time=0.01875\n",
      "note_off channel=0 note=61 velocity=127 time=0.0010416666666666667\n",
      "note_on channel=0 note=62 velocity=127 time=0.017708333333333333\n",
      "note_off channel=0 note=62 velocity=127 time=0.019791666666666666\n",
      "note_on channel=0 note=61 velocity=127 time=0.015625\n",
      "note_off channel=0 note=61 velocity=127 time=0.019791666666666666\n",
      "note_on channel=0 note=60 velocity=127 time=0.0125\n",
      "note_off channel=0 note=60 velocity=127 time=0.019791666666666666\n",
      "note_on channel=0 note=61 velocity=127 time=0.020833333333333332\n",
      "note_off channel=0 note=61 velocity=127 time=0.019791666666666666\n",
      "note_on channel=0 note=62 velocity=127 time=0.003125\n",
      "note_off channel=0 note=62 velocity=127 time=0.019791666666666666\n",
      "note_on channel=0 note=60 velocity=127 time=0.022916666666666665\n",
      "note_on channel=0 note=61 velocity=127 time=0.007291666666666667\n",
      "note_off channel=0 note=60 velocity=127 time=0.0125\n",
      "note_off channel=0 note=61 velocity=127 time=0.007291666666666667\n",
      "note_on channel=0 note=61 velocity=127 time=0.053125\n",
      "note_on channel=0 note=62 velocity=127 time=0.009375\n",
      "note_off channel=0 note=61 velocity=127 time=0.010416666666666666\n",
      "note_on channel=0 note=60 velocity=127 time=0.00625\n",
      "note_off channel=0 note=62 velocity=127 time=0.003125\n",
      "note_off channel=0 note=60 velocity=127 time=0.016666666666666666\n",
      "note_on channel=0 note=61 velocity=127 time=0.027083333333333334\n",
      "note_off channel=0 note=61 velocity=127 time=0.019791666666666666\n",
      "note_on channel=0 note=60 velocity=127 time=0.040625\n",
      "note_on channel=0 note=62 velocity=127 time=0.008333333333333333\n",
      "note_on channel=0 note=61 velocity=127 time=0.005208333333333333\n",
      "note_off channel=0 note=60 velocity=127 time=0.00625\n",
      "note_off channel=0 note=62 velocity=127 time=0.008333333333333333\n",
      "note_off channel=0 note=61 velocity=127 time=0.005208333333333333\n",
      "note_on channel=0 note=61 velocity=127 time=0.053125\n",
      "note_off channel=0 note=61 velocity=127 time=0.019791666666666666\n",
      "note_on channel=0 note=60 velocity=127 time=0\n",
      "note_off channel=0 note=60 velocity=127 time=0.019791666666666666\n",
      "note_on channel=0 note=62 velocity=127 time=0.013541666666666667\n",
      "note_on channel=0 note=61 velocity=127 time=0.019791666666666666\n",
      "note_off channel=0 note=62 velocity=127 time=0.0010416666666666667\n",
      "note_off channel=0 note=61 velocity=127 time=0.019791666666666666\n",
      "note_on channel=0 note=60 velocity=127 time=0.034375\n",
      "note_on channel=0 note=61 velocity=127 time=0.01875\n",
      "note_off channel=0 note=60 velocity=127 time=0.0010416666666666667\n",
      "note_off channel=0 note=61 velocity=127 time=0.01875\n",
      "note_on channel=0 note=62 velocity=127 time=0.019791666666666666\n",
      "note_off channel=0 note=62 velocity=127 time=0.019791666666666666\n",
      "note_on channel=0 note=61 velocity=127 time=0.013541666666666667\n",
      "note_on channel=0 note=60 velocity=127 time=0.014583333333333334\n",
      "note_off channel=0 note=61 velocity=127 time=0.005208333333333333\n",
      "note_off channel=0 note=60 velocity=127 time=0.014583333333333334\n",
      "note_on channel=0 note=61 velocity=127 time=0.03854166666666667\n",
      "note_off channel=0 note=61 velocity=127 time=0.019791666666666666\n",
      "note_on channel=0 note=62 velocity=127 time=0.005208333333333333\n",
      "note_off channel=0 note=62 velocity=127 time=0.019791666666666666\n",
      "note_on channel=0 note=60 velocity=127 time=0.003125\n",
      "note_off channel=0 note=60 velocity=127 time=0.019791666666666666\n",
      "note_on channel=0 note=61 velocity=127 time=0.005208333333333333\n",
      "note_off channel=0 note=61 velocity=127 time=0.019791666666666666\n",
      "note_on channel=0 note=61 velocity=127 time=0.053125\n",
      "note_on channel=0 note=60 velocity=127 time=0.008333333333333333\n",
      "note_on channel=0 note=62 velocity=127 time=0.0020833333333333333\n",
      "note_off channel=0 note=61 velocity=127 time=0.008333333333333333\n",
      "note_off channel=0 note=60 velocity=127 time=0.008333333333333333\n",
      "note_off channel=0 note=62 velocity=127 time=0.0020833333333333333\n",
      "note_on channel=0 note=61 velocity=127 time=0.042708333333333334\n",
      "note_off channel=0 note=61 velocity=127 time=0.019791666666666666\n",
      "note_on channel=0 note=60 velocity=127 time=0.022916666666666665\n",
      "note_off channel=0 note=60 velocity=127 time=0.019791666666666666\n",
      "note_on channel=0 note=62 velocity=127 time=0.008333333333333333\n",
      "note_on channel=0 note=61 velocity=127 time=0.003125\n",
      "note_off channel=0 note=62 velocity=127 time=0.016666666666666666\n",
      "note_off channel=0 note=61 velocity=127 time=0.003125\n",
      "note_on channel=0 note=61 velocity=127 time=0.053125\n",
      "note_on channel=0 note=60 velocity=127 time=0.003125\n",
      "note_off channel=0 note=61 velocity=127 time=0.017708333333333333\n",
      "note_off channel=0 note=60 velocity=127 time=0.003125\n",
      "note_on channel=0 note=62 velocity=127 time=0.03333333333333333\n",
      "note_on channel=0 note=61 velocity=127 time=0.017708333333333333\n",
      "note_off channel=0 note=62 velocity=127 time=0.0020833333333333333\n",
      "note_off channel=0 note=61 velocity=127 time=0.017708333333333333\n",
      "note_on channel=0 note=60 velocity=127 time=0.016666666666666666\n",
      "note_off channel=0 note=60 velocity=127 time=0.019791666666666666\n",
      "note_on channel=0 note=61 velocity=127 time=0.016666666666666666\n",
      "note_off channel=0 note=61 velocity=127 time=0.019791666666666666\n",
      "note_on channel=0 note=62 velocity=127 time=0.021875\n",
      "note_off channel=0 note=62 velocity=127 time=0.019791666666666666\n",
      "note_on channel=0 note=60 velocity=127 time=0.008333333333333333\n",
      "note_on channel=0 note=61 velocity=127 time=0.003125\n",
      "note_off channel=0 note=60 velocity=127 time=0.016666666666666666\n",
      "note_off channel=0 note=61 velocity=127 time=0.003125\n",
      "note_on channel=0 note=61 velocity=127 time=0.053125\n",
      "note_off channel=0 note=61 velocity=127 time=0.019791666666666666\n",
      "\u001b[91m [DEBUG] > \u001b[0m\n",
      " |>  to_array: msg.time > max_t; t, n\n",
      " |>  1.9947916666666674\n",
      " |>  100\n",
      "note_on channel=0 note=60 velocity=127 time=0.03854166666666667\n",
      "note_on channel=0 note=61 velocity=127 time=0.00625\n",
      "note_off channel=0 note=60 velocity=127 time=0.013541666666666667\n",
      "note_on channel=0 note=62 velocity=127 time=0.0020833333333333333\n",
      "note_off channel=0 note=61 velocity=127 time=0.004166666666666667\n",
      "note_off channel=0 note=62 velocity=127 time=0.015625\n",
      "note_on channel=0 note=60 velocity=127 time=0.05\n",
      "note_on channel=0 note=61 velocity=127 time=0.013541666666666667\n",
      "note_on channel=0 note=62 velocity=127 time=0.0020833333333333333\n",
      "note_off channel=0 note=60 velocity=127 time=0.003125\n",
      "note_off channel=0 note=61 velocity=127 time=0.013541666666666667\n",
      "note_off channel=0 note=62 velocity=127 time=0.0020833333333333333\n",
      "note_on channel=0 note=60 velocity=127 time=0.05520833333333333\n",
      "note_on channel=0 note=62 velocity=127 time=0.011458333333333333\n",
      "note_off channel=0 note=60 velocity=127 time=0.009375\n",
      "note_on channel=0 note=61 velocity=127 time=0.0020833333333333333\n",
      "note_off channel=0 note=62 velocity=127 time=0.009375\n",
      "note_off channel=0 note=61 velocity=127 time=0.010416666666666666\n",
      "note_on channel=0 note=60 velocity=127 time=0.05\n",
      "note_on channel=0 note=62 velocity=127 time=0.005208333333333333\n",
      "note_off channel=0 note=60 velocity=127 time=0.014583333333333334\n",
      "note_off channel=0 note=62 velocity=127 time=0.005208333333333333\n",
      "note_on channel=0 note=61 velocity=127 time=0.004166666666666667\n",
      "note_off channel=0 note=61 velocity=127 time=0.019791666666666666\n",
      "note_on channel=0 note=62 velocity=127 time=0.041666666666666664\n",
      "note_on channel=0 note=60 velocity=127 time=0\n",
      "note_off channel=0 note=62 velocity=127 time=0.019791666666666666\n",
      "note_off channel=0 note=60 velocity=127 time=0\n",
      "note_on channel=0 note=61 velocity=127 time=0.016666666666666666\n",
      "note_off channel=0 note=61 velocity=127 time=0.019791666666666666\n"
     ]
    },
    {
     "name": "stdout",
     "output_type": "stream",
     "text": [
      "note_on channel=0 note=62 velocity=127 time=0.029166666666666667\n",
      "note_on channel=0 note=60 velocity=127 time=0.005208333333333333\n",
      "note_off channel=0 note=62 velocity=127 time=0.014583333333333334\n",
      "note_off channel=0 note=60 velocity=127 time=0.005208333333333333\n",
      "note_on channel=0 note=61 velocity=127 time=0.025\n",
      "note_off channel=0 note=61 velocity=127 time=0.019791666666666666\n",
      "note_on channel=0 note=62 velocity=127 time=0.015625\n",
      "note_on channel=0 note=60 velocity=127 time=0.011458333333333333\n",
      "note_off channel=0 note=62 velocity=127 time=0.009375\n",
      "note_off channel=0 note=60 velocity=127 time=0.011458333333333333\n",
      "note_on channel=0 note=61 velocity=127 time=0.03229166666666666\n",
      "note_off channel=0 note=61 velocity=127 time=0.019791666666666666\n",
      "note_on channel=0 note=62 velocity=127 time=0.003125\n",
      "note_on channel=0 note=60 velocity=127 time=0.016666666666666666\n",
      "note_off channel=0 note=62 velocity=127 time=0.003125\n",
      "note_off channel=0 note=60 velocity=127 time=0.016666666666666666\n",
      "note_on channel=0 note=61 velocity=127 time=0.03958333333333333\n",
      "note_on channel=0 note=62 velocity=127 time=0.009375\n",
      "note_off channel=0 note=61 velocity=127 time=0.010416666666666666\n",
      "note_off channel=0 note=62 velocity=127 time=0.009375\n",
      "note_on channel=0 note=60 velocity=127 time=0.0020833333333333333\n",
      "note_off channel=0 note=60 velocity=127 time=0.019791666666666666\n",
      "note_on channel=0 note=62 velocity=127 time=0.04375\n",
      "note_on channel=0 note=61 velocity=127 time=0.003125\n",
      "note_off channel=0 note=62 velocity=127 time=0.016666666666666666\n",
      "note_off channel=0 note=61 velocity=127 time=0.003125\n",
      "note_on channel=0 note=60 velocity=127 time=0.004166666666666667\n",
      "note_off channel=0 note=60 velocity=127 time=0.019791666666666666\n",
      "note_on channel=0 note=62 velocity=127 time=0.03854166666666667\n",
      "note_on channel=0 note=61 velocity=127 time=0.016666666666666666\n",
      "note_off channel=0 note=62 velocity=127 time=0.003125\n",
      "note_on channel=0 note=60 velocity=127 time=0.013541666666666667\n",
      "note_off channel=0 note=61 velocity=127 time=0.003125\n",
      "note_off channel=0 note=60 velocity=127 time=0.016666666666666666\n",
      "note_on channel=0 note=62 velocity=127 time=0.03333333333333333\n",
      "note_off channel=0 note=62 velocity=127 time=0.019791666666666666\n",
      "note_on channel=0 note=61 velocity=127 time=0.009375\n",
      "note_on channel=0 note=60 velocity=127 time=0.008333333333333333\n",
      "note_off channel=0 note=61 velocity=127 time=0.011458333333333333\n",
      "note_off channel=0 note=60 velocity=127 time=0.008333333333333333\n",
      "note_on channel=0 note=62 velocity=127 time=0.027083333333333334\n",
      "note_off channel=0 note=62 velocity=127 time=0.019791666666666666\n",
      "note_on channel=0 note=61 velocity=127 time=0.022916666666666665\n",
      "note_on channel=0 note=60 velocity=127 time=0.0010416666666666667\n",
      "note_off channel=0 note=61 velocity=127 time=0.01875\n",
      "note_off channel=0 note=60 velocity=127 time=0.0010416666666666667\n",
      "note_on channel=0 note=62 velocity=127 time=0.021875\n",
      "note_off channel=0 note=62 velocity=127 time=0.019791666666666666\n",
      "note_on channel=0 note=60 velocity=127 time=0.029166666666666667\n",
      "note_on channel=0 note=61 velocity=127 time=0.00625\n",
      "note_off channel=0 note=60 velocity=127 time=0.013541666666666667\n",
      "note_off channel=0 note=61 velocity=127 time=0.00625\n",
      "note_on channel=0 note=62 velocity=127 time=0.010416666666666666\n",
      "note_off channel=0 note=62 velocity=127 time=0.019791666666666666\n",
      "note_on channel=0 note=60 velocity=127 time=0.035416666666666666\n",
      "note_on channel=0 note=61 velocity=127 time=0.014583333333333334\n",
      "note_off channel=0 note=60 velocity=127 time=0.00625\n",
      "note_on channel=0 note=62 velocity=127 time=0.010416666666666666\n",
      "note_off channel=0 note=61 velocity=127 time=0.003125\n",
      "note_off channel=0 note=62 velocity=127 time=0.016666666666666666\n",
      "note_on channel=0 note=60 velocity=127 time=0.040625\n",
      "note_off channel=0 note=60 velocity=127 time=0.019791666666666666\n",
      "note_on channel=0 note=61 velocity=127 time=0.0020833333333333333\n",
      "note_on channel=0 note=62 velocity=127 time=0.003125\n",
      "note_off channel=0 note=61 velocity=127 time=0.016666666666666666\n",
      "note_off channel=0 note=62 velocity=127 time=0.003125\n",
      "note_on channel=0 note=60 velocity=127 time=0.04583333333333333\n",
      "note_on channel=0 note=62 velocity=127 time=0.019791666666666666\n",
      "note_off channel=0 note=60 velocity=127 time=0\n",
      "note_on channel=0 note=61 velocity=127 time=0.009375\n",
      "note_off channel=0 note=62 velocity=127 time=0.010416666666666666\n",
      "note_off channel=0 note=61 velocity=127 time=0.009375\n",
      "note_on channel=0 note=60 velocity=127 time=0.041666666666666664\n",
      "note_on channel=0 note=62 velocity=127 time=0.014583333333333334\n",
      "note_off channel=0 note=60 velocity=127 time=0.005208333333333333\n",
      "note_off channel=0 note=62 velocity=127 time=0.014583333333333334\n",
      "note_on channel=0 note=61 velocity=127 time=0.003125\n",
      "note_off channel=0 note=61 velocity=127 time=0.019791666666666666\n",
      "note_on channel=0 note=60 velocity=127 time=0.034375\n",
      "note_on channel=0 note=62 velocity=127 time=0.008333333333333333\n",
      "note_off channel=0 note=60 velocity=127 time=0.011458333333333333\n",
      "note_off channel=0 note=62 velocity=127 time=0.008333333333333333\n",
      "note_on channel=0 note=61 velocity=127 time=0.015625\n",
      "note_off channel=0 note=61 velocity=127 time=0.019791666666666666\n",
      "note_on channel=0 note=60 velocity=127 time=0.027083333333333334\n",
      "note_on channel=0 note=62 velocity=127 time=0.003125\n",
      "note_off channel=0 note=60 velocity=127 time=0.016666666666666666\n",
      "note_off channel=0 note=62 velocity=127 time=0.003125\n",
      "note_on channel=0 note=61 velocity=127 time=0.029166666666666667\n",
      "note_off channel=0 note=61 velocity=127 time=0.019791666666666666\n",
      "note_on channel=0 note=62 velocity=127 time=0.016666666666666666\n",
      "note_on channel=0 note=60 velocity=127 time=0.0020833333333333333\n",
      "note_off channel=0 note=62 velocity=127 time=0.017708333333333333\n",
      "note_off channel=0 note=60 velocity=127 time=0.0020833333333333333\n",
      "note_on channel=0 note=61 velocity=127 time=0.03958333333333333\n",
      "note_off channel=0 note=61 velocity=127 time=0.019791666666666666\n",
      "note_on channel=0 note=62 velocity=127 time=0.004166666666666667\n",
      "note_on channel=0 note=60 velocity=127 time=0.007291666666666667\n",
      "note_off channel=0 note=62 velocity=127 time=0.0125\n",
      "note_off channel=0 note=60 velocity=127 time=0.007291666666666667\n",
      "note_on channel=0 note=61 velocity=127 time=0.04791666666666666\n",
      "\u001b[91m [DEBUG] > \u001b[0m\n",
      " |>  to_array: msg.time > max_t; t, n\n",
      " |>  2.0187500000000007\n",
      " |>  100\n",
      "note_on channel=0 note=60 velocity=127 time=0.027083333333333334\n",
      "note_off channel=0 note=60 velocity=127 time=0.019791666666666666\n",
      "note_on channel=0 note=62 velocity=127 time=0.013541666666666667\n",
      "note_on channel=0 note=61 velocity=127 time=0.0010416666666666667\n",
      "note_off channel=0 note=62 velocity=127 time=0.01875\n",
      "note_off channel=0 note=61 velocity=127 time=0.0010416666666666667\n",
      "note_on channel=0 note=60 velocity=127 time=0.013541666666666667\n",
      "note_off channel=0 note=60 velocity=127 time=0.019791666666666666\n",
      "note_on channel=0 note=61 velocity=127 time=0.016666666666666666\n",
      "note_off channel=0 note=61 velocity=127 time=0.019791666666666666\n",
      "note_on channel=0 note=62 velocity=127 time=0.007291666666666667\n",
      "note_on channel=0 note=60 velocity=127 time=0.004166666666666667\n",
      "note_off channel=0 note=62 velocity=127 time=0.015625\n",
      "note_off channel=0 note=60 velocity=127 time=0.004166666666666667\n",
      "note_on channel=0 note=61 velocity=127 time=0.017708333333333333\n",
      "note_off channel=0 note=61 velocity=127 time=0.019791666666666666\n",
      "note_on channel=0 note=60 velocity=127 time=0.009375\n",
      "note_off channel=0 note=60 velocity=127 time=0.019791666666666666\n",
      "note_on channel=0 note=62 velocity=127 time=0.00625\n",
      "note_on channel=0 note=61 velocity=127 time=0.013541666666666667\n",
      "note_off channel=0 note=62 velocity=127 time=0.00625\n",
      "note_off channel=0 note=61 velocity=127 time=0.013541666666666667\n",
      "note_on channel=0 note=60 velocity=127 time=0.008333333333333333\n",
      "note_off channel=0 note=60 velocity=127 time=0.019791666666666666\n",
      "note_on channel=0 note=61 velocity=127 time=0.021875\n",
      "note_on channel=0 note=62 velocity=127 time=0.014583333333333334\n",
      "note_off channel=0 note=61 velocity=127 time=0.005208333333333333\n",
      "note_on channel=0 note=60 velocity=127 time=0.00625\n",
      "note_off channel=0 note=62 velocity=127 time=0.008333333333333333\n",
      "note_off channel=0 note=60 velocity=127 time=0.011458333333333333\n",
      "note_on channel=0 note=61 velocity=127 time=0.022916666666666665\n",
      "note_off channel=0 note=61 velocity=127 time=0.019791666666666666\n",
      "note_on channel=0 note=60 velocity=127 time=0.005208333333333333\n",
      "note_on channel=0 note=62 velocity=127 time=0.01875\n",
      "note_off channel=0 note=60 velocity=127 time=0.0010416666666666667\n",
      "note_off channel=0 note=62 velocity=127 time=0.01875\n",
      "note_on channel=0 note=61 velocity=127 time=0.00625\n",
      "note_off channel=0 note=61 velocity=127 time=0.019791666666666666\n",
      "note_on channel=0 note=60 velocity=127 time=0.003125\n",
      "note_off channel=0 note=60 velocity=127 time=0.019791666666666666\n",
      "note_on channel=0 note=61 velocity=127 time=0.027083333333333334\n",
      "note_on channel=0 note=62 velocity=127 time=0.0020833333333333333\n",
      "note_off channel=0 note=61 velocity=127 time=0.017708333333333333\n",
      "note_on channel=0 note=60 velocity=127 time=0.0010416666666666667\n",
      "note_off channel=0 note=62 velocity=127 time=0.0010416666666666667\n",
      "note_off channel=0 note=60 velocity=127 time=0.01875\n",
      "note_on channel=0 note=61 velocity=127 time=0.028125\n",
      "note_on channel=0 note=60 velocity=127 time=0.019791666666666666\n",
      "note_off channel=0 note=61 velocity=127 time=0\n",
      "note_on channel=0 note=62 velocity=127 time=0.011458333333333333\n",
      "note_off channel=0 note=60 velocity=127 time=0.008333333333333333\n",
      "note_off channel=0 note=62 velocity=127 time=0.011458333333333333\n",
      "note_on channel=0 note=61 velocity=127 time=0.01875\n",
      "note_on channel=0 note=60 velocity=127 time=0.017708333333333333\n",
      "note_off channel=0 note=61 velocity=127 time=0.0020833333333333333\n",
      "note_off channel=0 note=60 velocity=127 time=0.017708333333333333\n",
      "note_on channel=0 note=62 velocity=127 time=0.021875\n",
      "note_on channel=0 note=61 velocity=127 time=0.010416666666666666\n",
      "note_off channel=0 note=62 velocity=127 time=0.010416666666666666\n",
      "note_on channel=0 note=60 velocity=127 time=0.00625\n",
      "note_off channel=0 note=61 velocity=127 time=0.004166666666666667\n",
      "note_off channel=0 note=60 velocity=127 time=0.016666666666666666\n",
      "note_on channel=0 note=61 velocity=127 time=0.03333333333333333\n",
      "note_on channel=0 note=60 velocity=127 time=0.014583333333333334\n",
      "note_on channel=0 note=62 velocity=127 time=0.004166666666666667\n",
      "note_off channel=0 note=61 velocity=127 time=0.0010416666666666667\n",
      "note_off channel=0 note=60 velocity=127 time=0.014583333333333334\n",
      "note_off channel=0 note=62 velocity=127 time=0.004166666666666667\n",
      "note_on channel=0 note=61 velocity=127 time=0.03125\n",
      "note_on channel=0 note=60 velocity=127 time=0.0125\n",
      "note_off channel=0 note=61 velocity=127 time=0.007291666666666667\n",
      "note_off channel=0 note=60 velocity=127 time=0.0125\n",
      "note_on channel=0 note=62 velocity=127 time=0.014583333333333334\n",
      "note_off channel=0 note=62 velocity=127 time=0.019791666666666666\n",
      "note_on channel=0 note=61 velocity=127 time=0.0020833333333333333\n",
      "note_on channel=0 note=60 velocity=127 time=0.011458333333333333\n",
      "note_off channel=0 note=61 velocity=127 time=0.008333333333333333\n",
      "note_off channel=0 note=60 velocity=127 time=0.011458333333333333\n",
      "note_on channel=0 note=61 velocity=127 time=0.03854166666666667\n",
      "note_on channel=0 note=62 velocity=127 time=0.00625\n",
      "note_on channel=0 note=60 velocity=127 time=0.003125\n",
      "note_off channel=0 note=61 velocity=127 time=0.010416666666666666\n",
      "note_off channel=0 note=62 velocity=127 time=0.00625\n",
      "note_off channel=0 note=60 velocity=127 time=0.003125\n",
      "note_on channel=0 note=61 velocity=127 time=0.040625\n",
      "note_on channel=0 note=60 velocity=127 time=0.007291666666666667\n",
      "note_off channel=0 note=61 velocity=127 time=0.0125\n",
      "note_off channel=0 note=60 velocity=127 time=0.007291666666666667\n",
      "note_on channel=0 note=62 velocity=127 time=0.007291666666666667\n",
      "note_off channel=0 note=62 velocity=127 time=0.019791666666666666\n",
      "note_on channel=0 note=61 velocity=127 time=0.014583333333333334\n",
      "note_on channel=0 note=60 velocity=127 time=0.00625\n",
      "note_off channel=0 note=61 velocity=127 time=0.013541666666666667\n",
      "note_off channel=0 note=60 velocity=127 time=0.00625\n",
      "note_on channel=0 note=62 velocity=127 time=0.0375\n",
      "note_on channel=0 note=61 velocity=127 time=0.00625\n",
      "note_on channel=0 note=60 velocity=127 time=0.004166666666666667\n",
      "note_off channel=0 note=62 velocity=127 time=0.009375\n",
      "note_off channel=0 note=61 velocity=127 time=0.00625\n",
      "note_off channel=0 note=60 velocity=127 time=0.004166666666666667\n",
      "note_on channel=0 note=61 velocity=127 time=0.04479166666666667\n",
      "note_on channel=0 note=60 velocity=127 time=0.003125\n",
      "note_off channel=0 note=61 velocity=127 time=0.017708333333333333\n",
      "note_on channel=0 note=62 velocity=127 time=0.003125\n",
      "note_off channel=0 note=60 velocity=127 time=0\n",
      "note_off channel=0 note=62 velocity=127 time=0.019791666666666666\n",
      "note_on channel=0 note=61 velocity=127 time=0.027083333333333334\n",
      "note_on channel=0 note=60 velocity=127 time=0.0010416666666666667\n",
      "note_off channel=0 note=61 velocity=127 time=0.01875\n",
      "note_off channel=0 note=60 velocity=127 time=0.0010416666666666667\n",
      "note_on channel=0 note=62 velocity=127 time=0.030208333333333334\n",
      "note_on channel=0 note=60 velocity=127 time=0.017708333333333333\n",
      "note_on channel=0 note=61 velocity=127 time=0.0010416666666666667\n",
      "note_off channel=0 note=62 velocity=127 time=0.0020833333333333333\n",
      "note_off channel=0 note=60 velocity=127 time=0.017708333333333333\n",
      "note_off channel=0 note=61 velocity=127 time=0.0010416666666666667\n",
      "note_on channel=0 note=60 velocity=127 time=0.046875\n",
      "note_on channel=0 note=61 velocity=127 time=0.0020833333333333333\n",
      "note_on channel=0 note=62 velocity=127 time=0.010416666666666666\n",
      "note_off channel=0 note=60 velocity=127 time=0.007291666666666667\n",
      "note_off channel=0 note=61 velocity=127 time=0.0020833333333333333\n",
      "note_off channel=0 note=62 velocity=127 time=0.010416666666666666\n",
      "note_on channel=0 note=60 velocity=127 time=0.035416666666666666\n",
      "note_on channel=0 note=61 velocity=127 time=0.004166666666666667\n",
      "note_off channel=0 note=60 velocity=127 time=0.015625\n",
      "note_off channel=0 note=61 velocity=127 time=0.004166666666666667\n",
      "note_on channel=0 note=62 velocity=127 time=0.01875\n",
      "note_off channel=0 note=62 velocity=127 time=0.019791666666666666\n",
      "note_on channel=0 note=60 velocity=127 time=0.005208333333333333\n",
      "note_on channel=0 note=61 velocity=127 time=0.00625\n",
      "note_off channel=0 note=60 velocity=127 time=0.014583333333333334\n",
      "note_off channel=0 note=61 velocity=127 time=0.00625\n",
      "note_on channel=0 note=60 velocity=127 time=0.041666666666666664\n",
      "note_on channel=0 note=62 velocity=127 time=0.005208333333333333\n",
      "note_on channel=0 note=61 velocity=127 time=0.0020833333333333333\n",
      "note_off channel=0 note=60 velocity=127 time=0.0125\n",
      "note_off channel=0 note=62 velocity=127 time=0.005208333333333333\n",
      "note_off channel=0 note=61 velocity=127 time=0.0020833333333333333\n",
      "note_on channel=0 note=60 velocity=127 time=0.040625\n",
      "note_on channel=0 note=61 velocity=127 time=0.009375\n",
      "note_off channel=0 note=60 velocity=127 time=0.010416666666666666\n",
      "note_off channel=0 note=61 velocity=127 time=0.009375\n",
      "note_on channel=0 note=62 velocity=127 time=0.00625\n",
      "note_off channel=0 note=62 velocity=127 time=0.019791666666666666\n",
      "note_on channel=0 note=60 velocity=127 time=0.0125\n",
      "note_on channel=0 note=61 velocity=127 time=0.010416666666666666\n",
      "note_off channel=0 note=60 velocity=127 time=0.009375\n",
      "note_off channel=0 note=61 velocity=127 time=0.010416666666666666\n",
      "note_on channel=0 note=62 velocity=127 time=0.035416666666666666\n",
      "note_on channel=0 note=60 velocity=127 time=0.0020833333333333333\n",
      "note_on channel=0 note=61 velocity=127 time=0.0125\n",
      "note_off channel=0 note=62 velocity=127 time=0.005208333333333333\n",
      "note_off channel=0 note=60 velocity=127 time=0.0020833333333333333\n",
      "note_off channel=0 note=61 velocity=127 time=0.0125\n",
      "note_on channel=0 note=60 velocity=127 time=0.035416666666666666\n",
      "\u001b[91m [DEBUG] > \u001b[0m\n",
      " |>  to_array: msg.time > max_t; t, n\n",
      " |>  1.9947916666666676\n",
      " |>  100\n",
      "note_on channel=0 note=61 velocity=127 time=0.007291666666666667\n",
      "note_off channel=0 note=61 velocity=127 time=0.019791666666666666\n",
      "note_on channel=0 note=60 velocity=127 time=0.051041666666666666\n",
      "note_on channel=0 note=62 velocity=127 time=0.009375\n",
      "note_off channel=0 note=60 velocity=127 time=0.010416666666666666\n",
      "note_off channel=0 note=62 velocity=127 time=0.009375\n",
      "note_on channel=0 note=61 velocity=127 time=0.03125\n",
      "note_on channel=0 note=60 velocity=127 time=0.01875\n",
      "note_off channel=0 note=61 velocity=127 time=0.0010416666666666667\n",
      "note_off channel=0 note=60 velocity=127 time=0.01875\n",
      "note_on channel=0 note=62 velocity=127 time=0.0020833333333333333\n",
      "note_off channel=0 note=62 velocity=127 time=0.019791666666666666\n",
      "note_on channel=0 note=60 velocity=127 time=0.0375\n",
      "note_off channel=0 note=60 velocity=127 time=0.019791666666666666\n",
      "note_on channel=0 note=61 velocity=127 time=0.013541666666666667\n",
      "note_on channel=0 note=62 velocity=127 time=0.0010416666666666667\n",
      "note_off channel=0 note=61 velocity=127 time=0.01875\n",
      "note_off channel=0 note=62 velocity=127 time=0.0010416666666666667\n",
      "note_on channel=0 note=60 velocity=127 time=0.025\n",
      "note_off channel=0 note=60 velocity=127 time=0.019791666666666666\n",
      "note_on channel=0 note=62 velocity=127 time=0.027083333333333334\n",
      "note_off channel=0 note=62 velocity=127 time=0.019791666666666666\n",
      "note_on channel=0 note=60 velocity=127 time=0.0125\n",
      "note_on channel=0 note=61 velocity=127 time=0.00625\n",
      "note_off channel=0 note=60 velocity=127 time=0.013541666666666667\n",
      "note_off channel=0 note=61 velocity=127 time=0.00625\n",
      "note_on channel=0 note=62 velocity=127 time=0.03333333333333333\n",
      "note_on channel=0 note=60 velocity=127 time=0.019791666666666666\n",
      "note_off channel=0 note=62 velocity=127 time=0\n",
      "note_off channel=0 note=60 velocity=127 time=0.019791666666666666\n",
      "note_on channel=0 note=61 velocity=127 time=0.03854166666666667\n",
      "note_on channel=0 note=62 velocity=127 time=0.014583333333333334\n",
      "note_off channel=0 note=61 velocity=127 time=0.00625\n",
      "note_on channel=0 note=60 velocity=127 time=0.0010416666666666667\n",
      "note_off channel=0 note=62 velocity=127 time=0.0125\n",
      "note_off channel=0 note=60 velocity=127 time=0.007291666666666667\n",
      "note_on channel=0 note=60 velocity=127 time=0.059375\n",
      "note_on channel=0 note=62 velocity=127 time=0.005208333333333333\n",
      "note_off channel=0 note=60 velocity=127 time=0.014583333333333334\n",
      "note_off channel=0 note=62 velocity=127 time=0.005208333333333333\n",
      "note_on channel=0 note=61 velocity=127 time=0.005208333333333333\n",
      "note_off channel=0 note=61 velocity=127 time=0.019791666666666666\n",
      "note_on channel=0 note=60 velocity=127 time=0.028125\n",
      "note_on channel=0 note=62 velocity=127 time=0.01875\n",
      "note_off channel=0 note=60 velocity=127 time=0.0020833333333333333\n",
      "note_off channel=0 note=62 velocity=127 time=0.01875\n",
      "note_on channel=0 note=60 velocity=127 time=0.040625\n",
      "note_on channel=0 note=61 velocity=127 time=0.003125\n",
      "note_off channel=0 note=60 velocity=127 time=0.016666666666666666\n",
      "note_off channel=0 note=61 velocity=127 time=0.003125\n",
      "note_on channel=0 note=62 velocity=127 time=0.007291666666666667\n",
      "note_off channel=0 note=62 velocity=127 time=0.019791666666666666\n",
      "note_on channel=0 note=60 velocity=127 time=0.028125\n",
      "note_off channel=0 note=60 velocity=127 time=0.019791666666666666\n",
      "note_on channel=0 note=62 velocity=127 time=0.02395833333333333\n",
      "note_on channel=0 note=61 velocity=127 time=0.0125\n",
      "note_off channel=0 note=62 velocity=127 time=0.008333333333333333\n",
      "note_off channel=0 note=61 velocity=127 time=0.0125\n",
      "note_on channel=0 note=60 velocity=127 time=0.004166666666666667\n",
      "note_off channel=0 note=60 velocity=127 time=0.019791666666666666\n",
      "note_on channel=0 note=62 velocity=127 time=0.036458333333333336\n",
      "note_off channel=0 note=62 velocity=127 time=0.019791666666666666\n",
      "note_on channel=0 note=60 velocity=127 time=0.003125\n",
      "note_off channel=0 note=60 velocity=127 time=0.019791666666666666\n",
      "note_on channel=0 note=61 velocity=127 time=0.008333333333333333\n",
      "note_off channel=0 note=61 velocity=127 time=0.019791666666666666\n",
      "note_on channel=0 note=62 velocity=127 time=0.020833333333333332\n",
      "note_on channel=0 note=60 velocity=127 time=0.010416666666666666\n",
      "note_off channel=0 note=62 velocity=127 time=0.009375\n",
      "note_off channel=0 note=60 velocity=127 time=0.010416666666666666\n",
      "note_on channel=0 note=60 velocity=127 time=0.059375\n",
      "note_on channel=0 note=61 velocity=127 time=0.0010416666666666667\n",
      "note_on channel=0 note=62 velocity=127 time=0.0010416666666666667\n",
      "note_off channel=0 note=60 velocity=127 time=0.017708333333333333\n",
      "note_off channel=0 note=61 velocity=127 time=0.0010416666666666667\n",
      "note_off channel=0 note=62 velocity=127 time=0.0010416666666666667\n",
      "note_on channel=0 note=60 velocity=127 time=0.057291666666666664\n",
      "note_on channel=0 note=62 velocity=127 time=0.014583333333333334\n",
      "note_off channel=0 note=60 velocity=127 time=0.005208333333333333\n",
      "note_off channel=0 note=62 velocity=127 time=0.014583333333333334\n",
      "note_on channel=0 note=61 velocity=127 time=0.01875\n",
      "note_off channel=0 note=61 velocity=127 time=0.019791666666666666\n",
      "note_on channel=0 note=60 velocity=127 time=0.00625\n",
      "note_off channel=0 note=60 velocity=127 time=0.019791666666666666\n",
      "note_on channel=0 note=62 velocity=127 time=0.007291666666666667\n",
      "note_off channel=0 note=62 velocity=127 time=0.019791666666666666\n",
      "note_on channel=0 note=60 velocity=127 time=0.03229166666666666\n",
      "note_off channel=0 note=60 velocity=127 time=0.019791666666666666\n",
      "note_on channel=0 note=61 velocity=127 time=0.005208333333333333\n",
      "note_on channel=0 note=62 velocity=127 time=0.014583333333333334\n",
      "note_off channel=0 note=61 velocity=127 time=0.00625\n",
      "note_off channel=0 note=62 velocity=127 time=0.014583333333333334\n",
      "note_on channel=0 note=60 velocity=127 time=0.019791666666666666\n",
      "note_off channel=0 note=60 velocity=127 time=0.019791666666666666\n",
      "note_on channel=0 note=62 velocity=127 time=0.03229166666666666\n",
      "note_off channel=0 note=62 velocity=127 time=0.019791666666666666\n",
      "note_on channel=0 note=61 velocity=127 time=0.005208333333333333\n",
      "note_on channel=0 note=60 velocity=127 time=0.0020833333333333333\n",
      "note_off channel=0 note=61 velocity=127 time=0.01875\n",
      "note_off channel=0 note=60 velocity=127 time=0.0020833333333333333\n",
      "note_on channel=0 note=62 velocity=127 time=0.04479166666666667\n",
      "note_on channel=0 note=60 velocity=127 time=0.014583333333333334\n",
      "note_off channel=0 note=62 velocity=127 time=0.00625\n",
      "note_off channel=0 note=60 velocity=127 time=0.014583333333333334\n",
      "note_on channel=0 note=61 velocity=127 time=0.030208333333333334\n",
      "note_off channel=0 note=61 velocity=127 time=0.019791666666666666\n",
      "note_on channel=0 note=62 velocity=127 time=0.007291666666666667\n",
      "note_on channel=0 note=60 velocity=127 time=0.0010416666666666667\n",
      "note_off channel=0 note=62 velocity=127 time=0.01875\n",
      "note_off channel=0 note=60 velocity=127 time=0.0010416666666666667\n",
      "note_on channel=0 note=60 velocity=127 time=0.059375\n",
      "note_on channel=0 note=62 velocity=127 time=0.011458333333333333\n",
      "note_off channel=0 note=60 velocity=127 time=0.009375\n",
      "note_on channel=0 note=61 velocity=127 time=0.003125\n",
      "note_off channel=0 note=62 velocity=127 time=0.008333333333333333\n",
      "note_off channel=0 note=61 velocity=127 time=0.0125\n",
      "note_on channel=0 note=60 velocity=127 time=0.036458333333333336\n",
      "note_off channel=0 note=60 velocity=127 time=0.019791666666666666\n",
      "note_on channel=0 note=62 velocity=127 time=0.004166666666666667\n",
      "note_off channel=0 note=62 velocity=127 time=0.019791666666666666\n",
      "note_on channel=0 note=61 velocity=127 time=0.03125\n",
      "note_on channel=0 note=60 velocity=127 time=0.004166666666666667\n",
      "note_off channel=0 note=61 velocity=127 time=0.015625\n",
      "\u001b[91m [DEBUG] > \u001b[0m\n",
      " |>  to_array: msg.time > max_t; t, n\n",
      " |>  1.9999999999999998\n",
      " |>  100\n",
      "note_on channel=0 note=61 velocity=127 time=0.015625\n",
      "note_on channel=0 note=60 velocity=127 time=0.0010416666666666667\n",
      "note_off channel=0 note=61 velocity=127 time=0.019791666666666666\n",
      "note_off channel=0 note=60 velocity=127 time=0.0010416666666666667\n",
      "note_on channel=0 note=60 velocity=127 time=0.052083333333333336\n",
      "note_on channel=0 note=62 velocity=127 time=0.005208333333333333\n",
      "note_off channel=0 note=60 velocity=127 time=0.014583333333333334\n",
      "note_off channel=0 note=62 velocity=127 time=0.005208333333333333\n",
      "note_on channel=0 note=61 velocity=127 time=0.0125\n",
      "note_off channel=0 note=61 velocity=127 time=0.019791666666666666\n",
      "note_on channel=0 note=60 velocity=127 time=0.014583333333333334\n",
      "note_off channel=0 note=60 velocity=127 time=0.019791666666666666\n",
      "note_on channel=0 note=62 velocity=127 time=0.015625\n",
      "note_off channel=0 note=62 velocity=127 time=0.019791666666666666\n",
      "note_on channel=0 note=60 velocity=127 time=0.016666666666666666\n",
      "note_on channel=0 note=61 velocity=127 time=0.004166666666666667\n",
      "note_off channel=0 note=60 velocity=127 time=0.015625\n",
      "note_off channel=0 note=61 velocity=127 time=0.004166666666666667\n",
      "note_on channel=0 note=62 velocity=127 time=0.041666666666666664\n",
      "note_on channel=0 note=60 velocity=127 time=0.00625\n",
      "note_off channel=0 note=62 velocity=127 time=0.014583333333333334\n",
      "note_off channel=0 note=60 velocity=127 time=0.00625\n",
      "note_on channel=0 note=61 velocity=127 time=0.021875\n",
      "note_off channel=0 note=61 velocity=127 time=0.019791666666666666\n",
      "note_on channel=0 note=60 velocity=127 time=0.009375\n",
      "note_off channel=0 note=60 velocity=127 time=0.019791666666666666\n",
      "note_on channel=0 note=62 velocity=127 time=0.005208333333333333\n",
      "note_off channel=0 note=62 velocity=127 time=0.019791666666666666\n",
      "note_on channel=0 note=60 velocity=127 time=0.027083333333333334\n",
      "note_on channel=0 note=61 velocity=127 time=0.008333333333333333\n",
      "note_off channel=0 note=60 velocity=127 time=0.011458333333333333\n",
      "note_off channel=0 note=61 velocity=127 time=0.008333333333333333\n",
      "note_on channel=0 note=62 velocity=127 time=0.026041666666666668\n",
      "note_on channel=0 note=60 velocity=127 time=0.016666666666666666\n",
      "note_off channel=0 note=62 velocity=127 time=0.003125\n",
      "note_off channel=0 note=60 velocity=127 time=0.016666666666666666\n",
      "note_on channel=0 note=61 velocity=127 time=0.027083333333333334\n",
      "note_off channel=0 note=61 velocity=127 time=0.019791666666666666\n",
      "note_on channel=0 note=60 velocity=127 time=0.005208333333333333\n",
      "note_on channel=0 note=62 velocity=127 time=0.013541666666666667\n",
      "note_off channel=0 note=60 velocity=127 time=0.00625\n",
      "note_off channel=0 note=62 velocity=127 time=0.013541666666666667\n",
      "note_on channel=0 note=60 velocity=127 time=0.0375\n",
      "note_on channel=0 note=61 velocity=127 time=0.013541666666666667\n",
      "note_off channel=0 note=60 velocity=127 time=0.00625\n",
      "note_off channel=0 note=61 velocity=127 time=0.013541666666666667\n",
      "note_on channel=0 note=62 velocity=127 time=0.011458333333333333\n",
      "note_off channel=0 note=62 velocity=127 time=0.019791666666666666\n",
      "note_on channel=0 note=60 velocity=127 time=0.007291666666666667\n",
      "note_off channel=0 note=60 velocity=127 time=0.019791666666666666\n",
      "note_on channel=0 note=61 velocity=127 time=0.03125\n",
      "note_off channel=0 note=61 velocity=127 time=0.019791666666666666\n",
      "note_on channel=0 note=60 velocity=127 time=0\n",
      "note_on channel=0 note=62 velocity=127 time=0.003125\n",
      "note_off channel=0 note=60 velocity=127 time=0.016666666666666666\n",
      "note_off channel=0 note=62 velocity=127 time=0.003125\n",
      "note_on channel=0 note=60 velocity=127 time=0.04895833333333333\n",
      "note_on channel=0 note=61 velocity=127 time=0.017708333333333333\n",
      "note_off channel=0 note=60 velocity=127 time=0.0020833333333333333\n",
      "note_on channel=0 note=62 velocity=127 time=0.013541666666666667\n",
      "note_off channel=0 note=61 velocity=127 time=0.004166666666666667\n",
      "note_off channel=0 note=62 velocity=127 time=0.015625\n",
      "note_on channel=0 note=60 velocity=127 time=0.017708333333333333\n",
      "note_off channel=0 note=60 velocity=127 time=0.019791666666666666\n",
      "note_on channel=0 note=61 velocity=127 time=0.036458333333333336\n",
      "note_on channel=0 note=62 velocity=127 time=0.008333333333333333\n",
      "note_on channel=0 note=60 velocity=127 time=0.007291666666666667\n",
      "note_off channel=0 note=61 velocity=127 time=0.004166666666666667\n"
     ]
    },
    {
     "name": "stdout",
     "output_type": "stream",
     "text": [
      "note_off channel=0 note=62 velocity=127 time=0.008333333333333333\n",
      "note_off channel=0 note=60 velocity=127 time=0.007291666666666667\n",
      "note_on channel=0 note=60 velocity=127 time=0.052083333333333336\n",
      "note_off channel=0 note=60 velocity=127 time=0.019791666666666666\n",
      "note_on channel=0 note=61 velocity=127 time=0.0020833333333333333\n",
      "note_on channel=0 note=62 velocity=127 time=0\n",
      "note_off channel=0 note=61 velocity=127 time=0.019791666666666666\n",
      "note_off channel=0 note=62 velocity=127 time=0\n",
      "note_on channel=0 note=60 velocity=127 time=0.029166666666666667\n",
      "note_off channel=0 note=60 velocity=127 time=0.019791666666666666\n",
      "note_on channel=0 note=62 velocity=127 time=0.03333333333333333\n",
      "note_on channel=0 note=61 velocity=127 time=0.007291666666666667\n",
      "note_on channel=0 note=60 velocity=127 time=0.011458333333333333\n",
      "note_off channel=0 note=62 velocity=127 time=0.0010416666666666667\n",
      "note_off channel=0 note=61 velocity=127 time=0.007291666666666667\n",
      "note_off channel=0 note=60 velocity=127 time=0.011458333333333333\n",
      "note_on channel=0 note=60 velocity=127 time=0.052083333333333336\n",
      "note_on channel=0 note=62 velocity=127 time=0.011458333333333333\n",
      "note_off channel=0 note=60 velocity=127 time=0.008333333333333333\n",
      "note_on channel=0 note=61 velocity=127 time=0.007291666666666667\n",
      "note_off channel=0 note=62 velocity=127 time=0.005208333333333333\n",
      "note_off channel=0 note=61 velocity=127 time=0.015625\n",
      "note_on channel=0 note=60 velocity=127 time=0.025\n",
      "note_off channel=0 note=60 velocity=127 time=0.019791666666666666\n",
      "note_on channel=0 note=62 velocity=127 time=0.021875\n",
      "note_off channel=0 note=62 velocity=127 time=0.019791666666666666\n",
      "note_on channel=0 note=61 velocity=127 time=0.003125\n",
      "note_on channel=0 note=60 velocity=127 time=0.00625\n",
      "note_off channel=0 note=61 velocity=127 time=0.013541666666666667\n",
      "note_off channel=0 note=60 velocity=127 time=0.00625\n",
      "note_on channel=0 note=60 velocity=127 time=0.052083333333333336\n",
      "note_on channel=0 note=62 velocity=127 time=0.0010416666666666667\n",
      "note_off channel=0 note=60 velocity=127 time=0.01875\n",
      "note_off channel=0 note=62 velocity=127 time=0.0010416666666666667\n",
      "note_on channel=0 note=61 velocity=127 time=0.010416666666666666\n",
      "note_off channel=0 note=61 velocity=127 time=0.019791666666666666\n",
      "note_on channel=0 note=60 velocity=127 time=0.019791666666666666\n",
      "note_off channel=0 note=60 velocity=127 time=0.019791666666666666\n",
      "note_on channel=0 note=62 velocity=127 time=0.011458333333333333\n",
      "note_off channel=0 note=62 velocity=127 time=0.019791666666666666\n",
      "note_on channel=0 note=61 velocity=127 time=0.01875\n",
      "note_on channel=0 note=60 velocity=127 time=0.0020833333333333333\n",
      "note_off channel=0 note=61 velocity=127 time=0.017708333333333333\n",
      "note_off channel=0 note=60 velocity=127 time=0.0020833333333333333\n",
      "note_on channel=0 note=62 velocity=127 time=0.041666666666666664\n",
      "note_on channel=0 note=60 velocity=127 time=0.009375\n",
      "note_off channel=0 note=62 velocity=127 time=0.010416666666666666\n",
      "note_off channel=0 note=60 velocity=127 time=0.009375\n",
      "note_on channel=0 note=61 velocity=127 time=0.016666666666666666\n",
      "note_off channel=0 note=61 velocity=127 time=0.019791666666666666\n",
      "note_on channel=0 note=60 velocity=127 time=0.015625\n",
      "note_off channel=0 note=60 velocity=127 time=0.019791666666666666\n",
      "note_on channel=0 note=62 velocity=127 time=0.0010416666666666667\n",
      "note_off channel=0 note=62 velocity=127 time=0.019791666666666666\n",
      "note_on channel=0 note=60 velocity=127 time=0.03125\n",
      "note_on channel=0 note=61 velocity=127 time=0.003125\n",
      "note_off channel=0 note=60 velocity=127 time=0.017708333333333333\n",
      "note_off channel=0 note=61 velocity=127 time=0.003125\n",
      "note_on channel=0 note=62 velocity=127 time=0.028125\n",
      "note_off channel=0 note=62 velocity=127 time=0.019791666666666666\n",
      "note_on channel=0 note=60 velocity=127 time=0\n",
      "note_off channel=0 note=60 velocity=127 time=0.019791666666666666\n",
      "note_on channel=0 note=61 velocity=127 time=0.020833333333333332\n",
      "\u001b[91m [DEBUG] > \u001b[0m\n",
      " |>  to_array: msg.time > max_t; t, n\n",
      " |>  1.991666666666667\n",
      " |>  100\n",
      "note_on channel=0 note=62 velocity=127 time=0.04791666666666666\n",
      "note_off channel=0 note=62 velocity=127 time=0.019791666666666666\n",
      "note_on channel=0 note=60 velocity=127 time=0.020833333333333332\n",
      "note_off channel=0 note=60 velocity=127 time=0.019791666666666666\n",
      "note_on channel=0 note=62 velocity=127 time=0.017708333333333333\n",
      "note_off channel=0 note=62 velocity=127 time=0.019791666666666666\n",
      "note_on channel=0 note=61 velocity=127 time=0.026041666666666668\n",
      "note_off channel=0 note=61 velocity=127 time=0.019791666666666666\n",
      "note_on channel=0 note=62 velocity=127 time=0.0125\n",
      "note_off channel=0 note=62 velocity=127 time=0.019791666666666666\n",
      "note_on channel=0 note=62 velocity=127 time=0.058333333333333334\n",
      "note_on channel=0 note=60 velocity=127 time=0.01875\n",
      "note_off channel=0 note=62 velocity=127 time=0.0020833333333333333\n",
      "note_off channel=0 note=60 velocity=127 time=0.01875\n",
      "note_on channel=0 note=61 velocity=127 time=0.028125\n",
      "note_on channel=0 note=62 velocity=127 time=0.0125\n",
      "note_off channel=0 note=61 velocity=127 time=0.007291666666666667\n",
      "note_off channel=0 note=62 velocity=127 time=0.0125\n",
      "note_on channel=0 note=62 velocity=127 time=0.058333333333333334\n",
      "note_off channel=0 note=62 velocity=127 time=0.019791666666666666\n",
      "note_on channel=0 note=60 velocity=127 time=0.05416666666666667\n",
      "note_on channel=0 note=62 velocity=127 time=0.004166666666666667\n",
      "note_on channel=0 note=61 velocity=127 time=0.007291666666666667\n",
      "note_off channel=0 note=60 velocity=127 time=0.008333333333333333\n",
      "note_off channel=0 note=62 velocity=127 time=0.004166666666666667\n",
      "note_off channel=0 note=61 velocity=127 time=0.007291666666666667\n",
      "note_on channel=0 note=62 velocity=127 time=0.051041666666666666\n",
      "note_off channel=0 note=62 velocity=127 time=0.019791666666666666\n",
      "note_on channel=0 note=62 velocity=127 time=0.058333333333333334\n",
      "note_off channel=0 note=62 velocity=127 time=0.019791666666666666\n",
      "note_on channel=0 note=61 velocity=127 time=0.008333333333333333\n",
      "note_off channel=0 note=61 velocity=127 time=0.019791666666666666\n",
      "note_on channel=0 note=60 velocity=127 time=0.003125\n",
      "note_off channel=0 note=60 velocity=127 time=0.019791666666666666\n",
      "note_on channel=0 note=62 velocity=127 time=0.007291666666666667\n",
      "note_off channel=0 note=62 velocity=127 time=0.019791666666666666\n",
      "note_on channel=0 note=62 velocity=127 time=0.058333333333333334\n",
      "note_off channel=0 note=62 velocity=127 time=0.019791666666666666\n",
      "note_on channel=0 note=61 velocity=127 time=0.028125\n",
      "note_off channel=0 note=61 velocity=127 time=0.019791666666666666\n",
      "note_on channel=0 note=62 velocity=127 time=0.010416666666666666\n",
      "note_off channel=0 note=62 velocity=127 time=0.019791666666666666\n",
      "note_on channel=0 note=60 velocity=127 time=0.008333333333333333\n",
      "note_off channel=0 note=60 velocity=127 time=0.019791666666666666\n",
      "note_on channel=0 note=62 velocity=127 time=0.030208333333333334\n",
      "note_off channel=0 note=62 velocity=127 time=0.019791666666666666\n",
      "note_on channel=0 note=61 velocity=127 time=0.04791666666666666\n",
      "note_on channel=0 note=62 velocity=127 time=0.010416666666666666\n",
      "note_off channel=0 note=61 velocity=127 time=0.009375\n",
      "note_off channel=0 note=62 velocity=127 time=0.010416666666666666\n",
      "note_on channel=0 note=62 velocity=127 time=0.058333333333333334\n",
      "note_on channel=0 note=60 velocity=127 time=0.005208333333333333\n",
      "note_off channel=0 note=62 velocity=127 time=0.014583333333333334\n",
      "note_off channel=0 note=60 velocity=127 time=0.005208333333333333\n",
      "note_on channel=0 note=62 velocity=127 time=0.053125\n",
      "note_on channel=0 note=61 velocity=127 time=0.010416666666666666\n",
      "note_off channel=0 note=62 velocity=127 time=0.010416666666666666\n",
      "note_off channel=0 note=61 velocity=127 time=0.010416666666666666\n",
      "note_on channel=0 note=62 velocity=127 time=0.04895833333333333\n",
      "note_off channel=0 note=62 velocity=127 time=0.019791666666666666\n",
      "note_on channel=0 note=60 velocity=127 time=0.041666666666666664\n",
      "note_on channel=0 note=62 velocity=127 time=0.017708333333333333\n",
      "note_off channel=0 note=60 velocity=127 time=0.003125\n",
      "note_off channel=0 note=62 velocity=127 time=0.017708333333333333\n",
      "note_on channel=0 note=61 velocity=127 time=0.010416666666666666\n",
      "note_off channel=0 note=61 velocity=127 time=0.019791666666666666\n",
      "note_on channel=0 note=62 velocity=127 time=0.028125\n",
      "note_off channel=0 note=62 velocity=127 time=0.019791666666666666\n",
      "note_on channel=0 note=62 velocity=127 time=0.058333333333333334\n",
      "note_off channel=0 note=62 velocity=127 time=0.019791666666666666\n",
      "note_on channel=0 note=60 velocity=127 time=0.01875\n",
      "note_on channel=0 note=61 velocity=127 time=0.011458333333333333\n",
      "note_off channel=0 note=60 velocity=127 time=0.008333333333333333\n",
      "note_off channel=0 note=61 velocity=127 time=0.011458333333333333\n",
      "note_on channel=0 note=62 velocity=127 time=0.008333333333333333\n",
      "note_off channel=0 note=62 velocity=127 time=0.019791666666666666\n",
      "note_on channel=0 note=62 velocity=127 time=0.058333333333333334\n",
      "note_off channel=0 note=62 velocity=127 time=0.019791666666666666\n",
      "note_on channel=0 note=61 velocity=127 time=0.051041666666666666\n",
      "note_on channel=0 note=62 velocity=127 time=0.008333333333333333\n",
      "note_off channel=0 note=61 velocity=127 time=0.011458333333333333\n",
      "note_on channel=0 note=60 velocity=127 time=0.004166666666666667\n",
      "note_off channel=0 note=62 velocity=127 time=0.004166666666666667\n",
      "note_off channel=0 note=60 velocity=127 time=0.015625\n",
      "note_on channel=0 note=62 velocity=127 time=0.042708333333333334\n",
      "note_off channel=0 note=62 velocity=127 time=0.019791666666666666\n",
      "note_on channel=0 note=62 velocity=127 time=0.058333333333333334\n",
      "note_on channel=0 note=61 velocity=127 time=0.0125\n",
      "note_off channel=0 note=62 velocity=127 time=0.008333333333333333\n",
      "note_off channel=0 note=61 velocity=127 time=0.0125\n",
      "note_on channel=0 note=60 velocity=127 time=0.03958333333333333\n",
      "\u001b[91m [DEBUG] > \u001b[0m\n",
      " |>  to_array: msg.time > max_t; t, n\n",
      " |>  2.0031250000000003\n",
      " |>  100\n",
      "note_on channel=0 note=62 velocity=127 time=0.065625\n",
      "note_off channel=0 note=62 velocity=127 time=0.019791666666666666\n",
      "note_on channel=0 note=60 velocity=127 time=0.009375\n",
      "note_on channel=0 note=61 velocity=127 time=0.014583333333333334\n",
      "note_off channel=0 note=60 velocity=127 time=0.005208333333333333\n",
      "note_off channel=0 note=61 velocity=127 time=0.014583333333333334\n",
      "note_on channel=0 note=60 velocity=127 time=0.08020833333333333\n",
      "note_on channel=0 note=62 velocity=127 time=0.007291666666666667\n",
      "note_off channel=0 note=60 velocity=127 time=0.013541666666666667\n",
      "note_off channel=0 note=62 velocity=127 time=0.007291666666666667\n",
      "note_on channel=0 note=61 velocity=127 time=0.003125\n",
      "note_off channel=0 note=61 velocity=127 time=0.019791666666666666\n",
      "note_on channel=0 note=60 velocity=127 time=0.065625\n",
      "note_off channel=0 note=60 velocity=127 time=0.019791666666666666\n",
      "note_on channel=0 note=62 velocity=127 time=0.022916666666666665\n",
      "note_on channel=0 note=61 velocity=127 time=0.0020833333333333333\n",
      "note_off channel=0 note=62 velocity=127 time=0.017708333333333333\n",
      "note_off channel=0 note=61 velocity=127 time=0.0020833333333333333\n",
      "note_on channel=0 note=60 velocity=127 time=0.05\n",
      "note_off channel=0 note=60 velocity=127 time=0.019791666666666666\n",
      "note_on channel=0 note=61 velocity=127 time=0.040625\n",
      "note_on channel=0 note=62 velocity=127 time=0.01875\n",
      "note_off channel=0 note=61 velocity=127 time=0.0010416666666666667\n",
      "note_off channel=0 note=62 velocity=127 time=0.01875\n",
      "note_on channel=0 note=60 velocity=127 time=0.015625\n",
      "note_off channel=0 note=60 velocity=127 time=0.019791666666666666\n",
      "note_on channel=0 note=61 velocity=127 time=0.05625\n",
      "note_off channel=0 note=61 velocity=127 time=0.019791666666666666\n",
      "note_on channel=0 note=60 velocity=127 time=0.01875\n",
      "note_on channel=0 note=62 velocity=127 time=0.0010416666666666667\n",
      "note_off channel=0 note=60 velocity=127 time=0.01875\n",
      "note_off channel=0 note=62 velocity=127 time=0.0010416666666666667\n",
      "note_on channel=0 note=61 velocity=127 time=0.07083333333333333\n",
      "note_off channel=0 note=61 velocity=127 time=0.019791666666666666\n",
      "note_on channel=0 note=60 velocity=127 time=0.003125\n",
      "note_off channel=0 note=60 velocity=127 time=0.019791666666666666\n",
      "note_on channel=0 note=62 velocity=127 time=0.017708333333333333\n",
      "note_off channel=0 note=62 velocity=127 time=0.019791666666666666\n",
      "note_on channel=0 note=61 velocity=127 time=0.05\n",
      "note_on channel=0 note=60 velocity=127 time=0.007291666666666667\n",
      "note_off channel=0 note=61 velocity=127 time=0.0125\n",
      "note_off channel=0 note=60 velocity=127 time=0.007291666666666667\n",
      "note_on channel=0 note=62 velocity=127 time=0.05416666666666667\n",
      "note_off channel=0 note=62 velocity=127 time=0.019791666666666666\n",
      "note_on channel=0 note=60 velocity=127 time=0.020833333333333332\n",
      "note_on channel=0 note=61 velocity=127 time=0.008333333333333333\n",
      "note_off channel=0 note=60 velocity=127 time=0.011458333333333333\n",
      "note_off channel=0 note=61 velocity=127 time=0.008333333333333333\n",
      "note_on channel=0 note=62 velocity=127 time=0.08229166666666667\n",
      "note_on channel=0 note=60 velocity=127 time=0.004166666666666667\n",
      "note_off channel=0 note=62 velocity=127 time=0.015625\n",
      "note_off channel=0 note=60 velocity=127 time=0.004166666666666667\n",
      "note_on channel=0 note=61 velocity=127 time=0.004166666666666667\n",
      "note_off channel=0 note=61 velocity=127 time=0.019791666666666666\n",
      "note_on channel=0 note=60 velocity=127 time=0.07083333333333333\n",
      "note_off channel=0 note=60 velocity=127 time=0.019791666666666666\n",
      "note_on channel=0 note=62 velocity=127 time=0.011458333333333333\n",
      "note_on channel=0 note=61 velocity=127 time=0.007291666666666667\n",
      "note_off channel=0 note=62 velocity=127 time=0.0125\n",
      "note_off channel=0 note=61 velocity=127 time=0.007291666666666667\n",
      "note_on channel=0 note=60 velocity=127 time=0.05520833333333333\n",
      "note_off channel=0 note=60 velocity=127 time=0.019791666666666666\n",
      "note_on channel=0 note=61 velocity=127 time=0.035416666666666666\n",
      "note_on channel=0 note=62 velocity=127 time=0.013541666666666667\n",
      "note_off channel=0 note=61 velocity=127 time=0.00625\n",
      "note_off channel=0 note=62 velocity=127 time=0.013541666666666667\n",
      "note_on channel=0 note=60 velocity=127 time=0.027083333333333334\n",
      "note_off channel=0 note=60 velocity=127 time=0.019791666666666666\n",
      "note_on channel=0 note=61 velocity=127 time=0.051041666666666666\n",
      "note_off channel=0 note=61 velocity=127 time=0.019791666666666666\n",
      "note_on channel=0 note=62 velocity=127 time=0.014583333333333334\n",
      "note_on channel=0 note=60 velocity=127 time=0.010416666666666666\n",
      "note_off channel=0 note=62 velocity=127 time=0.009375\n",
      "note_off channel=0 note=60 velocity=127 time=0.010416666666666666\n",
      "note_on channel=0 note=61 velocity=127 time=0.06666666666666667\n",
      "note_off channel=0 note=61 velocity=127 time=0.019791666666666666\n",
      "note_on channel=0 note=60 velocity=127 time=0.008333333333333333\n",
      "note_off channel=0 note=60 velocity=127 time=0.019791666666666666\n",
      "note_on channel=0 note=62 velocity=127 time=0.00625\n",
      "note_off channel=0 note=62 velocity=127 time=0.019791666666666666\n",
      "note_on channel=0 note=61 velocity=127 time=0.05520833333333333\n",
      "note_on channel=0 note=60 velocity=127 time=0.013541666666666667\n",
      "note_off channel=0 note=61 velocity=127 time=0.007291666666666667\n",
      "note_off channel=0 note=60 velocity=127 time=0.013541666666666667\n",
      "note_on channel=0 note=62 velocity=127 time=0.042708333333333334\n",
      "note_off channel=0 note=62 velocity=127 time=0.019791666666666666\n",
      "note_on channel=0 note=60 velocity=127 time=0.03229166666666666\n",
      "note_on channel=0 note=61 velocity=127 time=0.0020833333333333333\n",
      "note_off channel=0 note=60 velocity=127 time=0.017708333333333333\n",
      "note_off channel=0 note=61 velocity=127 time=0.0020833333333333333\n",
      "note_on channel=0 note=62 velocity=127 time=0.07708333333333334\n",
      "\u001b[91m [DEBUG] > \u001b[0m\n",
      " |>  to_array: msg.time > max_t; t, n\n",
      " |>  2.03125\n",
      " |>  100\n",
      "note_on channel=0 note=61 velocity=127 time=0.010416666666666666\n",
      "note_off channel=0 note=61 velocity=127 time=0.019791666666666666\n",
      "note_on channel=0 note=62 velocity=127 time=0.03854166666666667\n",
      "note_off channel=0 note=62 velocity=127 time=0.019791666666666666\n",
      "note_on channel=0 note=61 velocity=127 time=0.014583333333333334\n",
      "note_on channel=0 note=60 velocity=127 time=0.0010416666666666667\n",
      "note_off channel=0 note=61 velocity=127 time=0.019791666666666666\n",
      "note_off channel=0 note=60 velocity=127 time=0.0010416666666666667\n",
      "note_on channel=0 note=62 velocity=127 time=0.04583333333333333\n",
      "note_off channel=0 note=62 velocity=127 time=0.019791666666666666\n",
      "note_on channel=0 note=61 velocity=127 time=0.00625\n",
      "note_off channel=0 note=61 velocity=127 time=0.019791666666666666\n",
      "note_on channel=0 note=60 velocity=127 time=0.026041666666666668\n",
      "note_off channel=0 note=60 velocity=127 time=0.019791666666666666\n",
      "note_on channel=0 note=62 velocity=127 time=0.008333333333333333\n",
      "note_on channel=0 note=61 velocity=127 time=0.01875\n",
      "note_off channel=0 note=62 velocity=127 time=0.0010416666666666667\n",
      "note_off channel=0 note=61 velocity=127 time=0.01875\n",
      "note_on channel=0 note=62 velocity=127 time=0.0625\n",
      "note_on channel=0 note=60 velocity=127 time=0.009375\n",
      "note_on channel=0 note=61 velocity=127 time=0.0020833333333333333\n",
      "note_off channel=0 note=62 velocity=127 time=0.009375\n",
      "note_off channel=0 note=60 velocity=127 time=0.009375\n",
      "note_off channel=0 note=61 velocity=127 time=0.0020833333333333333\n",
      "note_on channel=0 note=62 velocity=127 time=0.06979166666666667\n",
      "note_on channel=0 note=61 velocity=127 time=0.003125\n",
      "note_off channel=0 note=62 velocity=127 time=0.016666666666666666\n",
      "note_off channel=0 note=61 velocity=127 time=0.003125\n",
      "note_on channel=0 note=60 velocity=127 time=0.02395833333333333\n",
      "note_off channel=0 note=60 velocity=127 time=0.019791666666666666\n",
      "note_on channel=0 note=61 velocity=127 time=0.029166666666666667\n",
      "note_on channel=0 note=62 velocity=127 time=0.005208333333333333\n",
      "note_off channel=0 note=61 velocity=127 time=0.014583333333333334\n",
      "note_off channel=0 note=62 velocity=127 time=0.005208333333333333\n",
      "note_on channel=0 note=60 velocity=127 time=0.06354166666666666\n",
      "note_on channel=0 note=61 velocity=127 time=0.004166666666666667\n",
      "note_on channel=0 note=62 velocity=127 time=0.0125\n",
      "note_off channel=0 note=60 velocity=127 time=0.003125\n",
      "note_off channel=0 note=61 velocity=127 time=0.004166666666666667\n",
      "note_off channel=0 note=62 velocity=127 time=0.0125\n",
      "note_on channel=0 note=61 velocity=127 time=0.06041666666666667\n",
      "note_off channel=0 note=61 velocity=127 time=0.019791666666666666\n",
      "note_on channel=0 note=62 velocity=127 time=0.0010416666666666667\n",
      "note_off channel=0 note=62 velocity=127 time=0.019791666666666666\n",
      "note_on channel=0 note=60 velocity=127 time=0.0010416666666666667\n",
      "note_off channel=0 note=60 velocity=127 time=0.019791666666666666\n",
      "note_on channel=0 note=61 velocity=127 time=0.03125\n",
      "note_off channel=0 note=61 velocity=127 time=0.019791666666666666\n",
      "note_on channel=0 note=62 velocity=127 time=0.008333333333333333\n",
      "note_off channel=0 note=62 velocity=127 time=0.019791666666666666\n",
      "note_on channel=0 note=60 velocity=127 time=0.0375\n",
      "note_on channel=0 note=61 velocity=127 time=0.00625\n",
      "note_off channel=0 note=60 velocity=127 time=0.013541666666666667\n",
      "note_off channel=0 note=61 velocity=127 time=0.00625\n",
      "note_on channel=0 note=62 velocity=127 time=0.016666666666666666\n",
      "note_off channel=0 note=62 velocity=127 time=0.019791666666666666\n",
      "note_on channel=0 note=61 velocity=127 time=0.036458333333333336\n",
      "note_off channel=0 note=61 velocity=127 time=0.019791666666666666\n",
      "note_on channel=0 note=60 velocity=127 time=0.019791666666666666\n",
      "note_on channel=0 note=62 velocity=127 time=0.005208333333333333\n",
      "note_off channel=0 note=60 velocity=127 time=0.014583333333333334\n",
      "note_off channel=0 note=62 velocity=127 time=0.005208333333333333\n",
      "note_on channel=0 note=61 velocity=127 time=0.028125\n",
      "note_off channel=0 note=61 velocity=127 time=0.019791666666666666\n",
      "note_on channel=0 note=62 velocity=127 time=0.03229166666666666\n",
      "note_off channel=0 note=62 velocity=127 time=0.019791666666666666\n",
      "note_on channel=0 note=60 velocity=127 time=0.011458333333333333\n",
      "note_on channel=0 note=61 velocity=127 time=0.008333333333333333\n",
      "note_off channel=0 note=60 velocity=127 time=0.011458333333333333\n",
      "note_off channel=0 note=61 velocity=127 time=0.008333333333333333\n",
      "note_on channel=0 note=62 velocity=127 time=0.040625\n",
      "note_off channel=0 note=62 velocity=127 time=0.019791666666666666\n",
      "note_on channel=0 note=61 velocity=127 time=0.0125\n",
      "note_off channel=0 note=61 velocity=127 time=0.019791666666666666\n",
      "note_on channel=0 note=60 velocity=127 time=0.016666666666666666\n",
      "note_off channel=0 note=60 velocity=127 time=0.019791666666666666\n",
      "note_on channel=0 note=62 velocity=127 time=0.011458333333333333\n",
      "note_off channel=0 note=62 velocity=127 time=0.019791666666666666\n",
      "note_on channel=0 note=61 velocity=127 time=0.004166666666666667\n",
      "note_off channel=0 note=61 velocity=127 time=0.019791666666666666\n",
      "note_on channel=0 note=62 velocity=127 time=0.05625\n",
      "note_on channel=0 note=60 velocity=127 time=0.00625\n",
      "note_on channel=0 note=61 velocity=127 time=0.010416666666666666\n",
      "note_off channel=0 note=62 velocity=127 time=0.003125\n",
      "note_off channel=0 note=60 velocity=127 time=0.00625\n",
      "note_off channel=0 note=61 velocity=127 time=0.010416666666666666\n",
      "note_on channel=0 note=62 velocity=127 time=0.06458333333333333\n",
      "note_on channel=0 note=61 velocity=127 time=0.008333333333333333\n",
      "note_off channel=0 note=62 velocity=127 time=0.011458333333333333\n",
      "note_off channel=0 note=61 velocity=127 time=0.008333333333333333\n",
      "note_on channel=0 note=60 velocity=127 time=0.014583333333333334\n",
      "note_off channel=0 note=60 velocity=127 time=0.019791666666666666\n",
      "note_on channel=0 note=62 velocity=127 time=0.0375\n",
      "note_on channel=0 note=61 velocity=127 time=0\n",
      "note_off channel=0 note=62 velocity=127 time=0.019791666666666666\n",
      "note_off channel=0 note=61 velocity=127 time=0\n",
      "note_on channel=0 note=60 velocity=127 time=0.06041666666666667\n",
      "note_on channel=0 note=61 velocity=127 time=0.0125\n",
      "note_off channel=0 note=60 velocity=127 time=0.007291666666666667\n",
      "note_on channel=0 note=62 velocity=127 time=0\n",
      "note_off channel=0 note=61 velocity=127 time=0.0125\n",
      "note_off channel=0 note=62 velocity=127 time=0.007291666666666667\n",
      "note_on channel=0 note=61 velocity=127 time=0.065625\n",
      "note_on channel=0 note=62 velocity=127 time=0.015625\n",
      "note_off channel=0 note=61 velocity=127 time=0.004166666666666667\n",
      "note_on channel=0 note=60 velocity=127 time=0.0125\n",
      "note_off channel=0 note=62 velocity=127 time=0.003125\n",
      "note_off channel=0 note=60 velocity=127 time=0.017708333333333333\n",
      "note_on channel=0 note=61 velocity=127 time=0.040625\n",
      "note_off channel=0 note=61 velocity=127 time=0.019791666666666666\n",
      "note_on channel=0 note=62 velocity=127 time=0.003125\n",
      "note_off channel=0 note=62 velocity=127 time=0.019791666666666666\n",
      "\u001b[91m [DEBUG] > \u001b[0m\n",
      " |>  to_array: msg.time > max_t; t, n\n",
      " |>  1.9999999999999996\n",
      " |>  100\n",
      "note_on channel=0 note=60 velocity=127 time=0.0875\n",
      "note_off channel=0 note=60 velocity=127 time=0.019791666666666666\n",
      "note_on channel=0 note=62 velocity=127 time=0.014583333333333334\n",
      "note_off channel=0 note=62 velocity=127 time=0.019791666666666666\n",
      "note_on channel=0 note=61 velocity=127 time=0.029166666666666667\n",
      "note_off channel=0 note=61 velocity=127 time=0.019791666666666666\n",
      "note_on channel=0 note=60 velocity=127 time=0.014583333333333334\n",
      "note_off channel=0 note=60 velocity=127 time=0.019791666666666666\n",
      "note_on channel=0 note=62 velocity=127 time=0.042708333333333334\n",
      "note_off channel=0 note=62 velocity=127 time=0.019791666666666666\n",
      "note_on channel=0 note=60 velocity=127 time=0.036458333333333336\n",
      "note_off channel=0 note=60 velocity=127 time=0.019791666666666666\n",
      "note_on channel=0 note=61 velocity=127 time=0.034375\n",
      "note_off channel=0 note=61 velocity=127 time=0.019791666666666666\n",
      "note_on channel=0 note=62 velocity=127 time=0.015625\n",
      "note_off channel=0 note=62 velocity=127 time=0.019791666666666666\n",
      "note_on channel=0 note=60 velocity=127 time=0.009375\n",
      "note_off channel=0 note=60 velocity=127 time=0.019791666666666666\n",
      "note_on channel=0 note=62 velocity=127 time=0.096875\n",
      "note_on channel=0 note=60 velocity=127 time=0.0020833333333333333\n",
      "note_off channel=0 note=62 velocity=127 time=0.01875\n",
      "note_off channel=0 note=60 velocity=127 time=0.0020833333333333333\n",
      "note_on channel=0 note=61 velocity=127 time=0.005208333333333333\n",
      "note_off channel=0 note=61 velocity=127 time=0.019791666666666666\n",
      "note_on channel=0 note=60 velocity=127 time=0.07395833333333333\n",
      "note_off channel=0 note=60 velocity=127 time=0.019791666666666666\n",
      "note_on channel=0 note=62 velocity=127 time=0.00625\n",
      "note_off channel=0 note=62 velocity=127 time=0.019791666666666666\n",
      "note_on channel=0 note=61 velocity=127 time=0.06875\n",
      "note_on channel=0 note=60 velocity=127 time=0.004166666666666667\n",
      "note_off channel=0 note=61 velocity=127 time=0.015625\n",
      "note_off channel=0 note=60 velocity=127 time=0.004166666666666667\n",
      "note_on channel=0 note=62 velocity=127 time=0.03333333333333333\n",
      "note_off channel=0 note=62 velocity=127 time=0.019791666666666666\n",
      "note_on channel=0 note=60 velocity=127 time=0.04583333333333333\n",
      "note_off channel=0 note=60 velocity=127 time=0.019791666666666666\n",
      "note_on channel=0 note=62 velocity=127 time=0.06041666666666667\n",
      "note_on channel=0 note=61 velocity=127 time=0.004166666666666667\n",
      "note_off channel=0 note=62 velocity=127 time=0.015625\n",
      "note_off channel=0 note=61 velocity=127 time=0.004166666666666667\n",
      "note_on channel=0 note=60 velocity=127 time=0.013541666666666667\n",
      "note_off channel=0 note=60 velocity=127 time=0.019791666666666666\n",
      "note_on channel=0 note=62 velocity=127 time=0.08854166666666667\n",
      "note_on channel=0 note=60 velocity=127 time=0.010416666666666666\n",
      "note_off channel=0 note=62 velocity=127 time=0.009375\n",
      "note_off channel=0 note=60 velocity=127 time=0.010416666666666666\n",
      "note_on channel=0 note=61 velocity=127 time=0.035416666666666666\n",
      "note_off channel=0 note=61 velocity=127 time=0.019791666666666666\n",
      "note_on channel=0 note=60 velocity=127 time=0.04375\n",
      "note_on channel=0 note=62 velocity=127 time=0.016666666666666666\n",
      "note_off channel=0 note=60 velocity=127 time=0.003125\n",
      "note_off channel=0 note=62 velocity=127 time=0.016666666666666666\n",
      "note_on channel=0 note=60 velocity=127 time=0.08229166666666667\n",
      "note_off channel=0 note=60 velocity=127 time=0.019791666666666666\n",
      "note_on channel=0 note=61 velocity=127 time=0.00625\n",
      "note_on channel=0 note=62 velocity=127 time=0.01875\n",
      "note_off channel=0 note=61 velocity=127 time=0.0020833333333333333\n",
      "note_off channel=0 note=62 velocity=127 time=0.01875\n",
      "note_on channel=0 note=60 velocity=127 time=0.05520833333333333\n",
      "note_off channel=0 note=60 velocity=127 time=0.019791666666666666\n",
      "note_on channel=0 note=62 velocity=127 time=0.052083333333333336\n",
      "note_off channel=0 note=62 velocity=127 time=0.019791666666666666\n",
      "note_on channel=0 note=61 velocity=127 time=0.02395833333333333\n",
      "note_on channel=0 note=60 velocity=127 time=0.004166666666666667\n",
      "note_off channel=0 note=61 velocity=127 time=0.016666666666666666\n",
      "note_off channel=0 note=60 velocity=127 time=0.004166666666666667\n",
      "note_on channel=0 note=62 velocity=127 time=0.07916666666666666\n",
      "note_on channel=0 note=60 velocity=127 time=0.019791666666666666\n",
      "note_off channel=0 note=62 velocity=127 time=0\n",
      "note_off channel=0 note=60 velocity=127 time=0.019791666666666666\n",
      "note_on channel=0 note=61 velocity=127 time=0.065625\n",
      "note_off channel=0 note=61 velocity=127 time=0.019791666666666666\n",
      "note_on channel=0 note=60 velocity=127 time=0.013541666666666667\n",
      "note_on channel=0 note=62 velocity=127 time=0.007291666666666667\n",
      "note_off channel=0 note=60 velocity=127 time=0.0125\n",
      "note_off channel=0 note=62 velocity=127 time=0.007291666666666667\n",
      "note_on channel=0 note=60 velocity=127 time=0.09166666666666666\n",
      "\u001b[91m [DEBUG] > \u001b[0m\n",
      " |>  to_array: msg.time > max_t; t, n\n",
      " |>  1.9906249999999994\n",
      " |>  100\n"
     ]
    },
    {
     "name": "stdout",
     "output_type": "stream",
     "text": [
      "note_on channel=0 note=60 velocity=127 time=0.02395833333333333\n",
      "note_on channel=0 note=62 velocity=127 time=0.004166666666666667\n",
      "note_off channel=0 note=60 velocity=127 time=0.016666666666666666\n",
      "note_off channel=0 note=62 velocity=127 time=0.004166666666666667\n",
      "note_on channel=0 note=61 velocity=127 time=0.017708333333333333\n",
      "note_off channel=0 note=61 velocity=127 time=0.019791666666666666\n",
      "note_on channel=0 note=62 velocity=127 time=0.019791666666666666\n",
      "note_off channel=0 note=62 velocity=127 time=0.019791666666666666\n",
      "note_on channel=0 note=60 velocity=127 time=0.042708333333333334\n",
      "note_on channel=0 note=62 velocity=127 time=0.015625\n",
      "note_off channel=0 note=60 velocity=127 time=0.005208333333333333\n",
      "note_off channel=0 note=62 velocity=127 time=0.015625\n",
      "note_on channel=0 note=62 velocity=127 time=0.057291666666666664\n",
      "note_off channel=0 note=62 velocity=127 time=0.019791666666666666\n",
      "note_on channel=0 note=60 velocity=127 time=0.03125\n",
      "note_on channel=0 note=61 velocity=127 time=0.004166666666666667\n",
      "note_off channel=0 note=60 velocity=127 time=0.015625\n",
      "note_off channel=0 note=61 velocity=127 time=0.004166666666666667\n",
      "note_on channel=0 note=62 velocity=127 time=0.0020833333333333333\n",
      "note_off channel=0 note=62 velocity=127 time=0.019791666666666666\n",
      "note_on channel=0 note=62 velocity=127 time=0.057291666666666664\n",
      "note_off channel=0 note=62 velocity=127 time=0.019791666666666666\n",
      "note_on channel=0 note=60 velocity=127 time=0.019791666666666666\n",
      "note_off channel=0 note=60 velocity=127 time=0.019791666666666666\n",
      "note_on channel=0 note=62 velocity=127 time=0.017708333333333333\n",
      "note_off channel=0 note=62 velocity=127 time=0.019791666666666666\n",
      "note_on channel=0 note=61 velocity=127 time=0.053125\n",
      "note_on channel=0 note=62 velocity=127 time=0.005208333333333333\n",
      "note_off channel=0 note=61 velocity=127 time=0.015625\n",
      "note_off channel=0 note=62 velocity=127 time=0.005208333333333333\n",
      "note_on channel=0 note=60 velocity=127 time=0.008333333333333333\n",
      "note_off channel=0 note=60 velocity=127 time=0.019791666666666666\n",
      "note_on channel=0 note=62 velocity=127 time=0.029166666666666667\n",
      "note_off channel=0 note=62 velocity=127 time=0.019791666666666666\n",
      "note_on channel=0 note=62 velocity=127 time=0.057291666666666664\n",
      "note_on channel=0 note=60 velocity=127 time=0.016666666666666666\n",
      "note_off channel=0 note=62 velocity=127 time=0.003125\n",
      "note_off channel=0 note=60 velocity=127 time=0.016666666666666666\n",
      "note_on channel=0 note=62 velocity=127 time=0.040625\n",
      "note_on channel=0 note=61 velocity=127 time=0.0125\n",
      "note_off channel=0 note=62 velocity=127 time=0.007291666666666667\n",
      "note_off channel=0 note=61 velocity=127 time=0.0125\n",
      "note_on channel=0 note=62 velocity=127 time=0.04479166666666667\n",
      "note_on channel=0 note=60 velocity=127 time=0.005208333333333333\n",
      "note_off channel=0 note=62 velocity=127 time=0.014583333333333334\n",
      "note_off channel=0 note=60 velocity=127 time=0.005208333333333333\n",
      "note_on channel=0 note=62 velocity=127 time=0.052083333333333336\n",
      "note_off channel=0 note=62 velocity=127 time=0.019791666666666666\n",
      "note_on channel=0 note=60 velocity=127 time=0.052083333333333336\n",
      "note_on channel=0 note=62 velocity=127 time=0.00625\n",
      "note_off channel=0 note=60 velocity=127 time=0.014583333333333334\n",
      "note_off channel=0 note=62 velocity=127 time=0.00625\n",
      "note_on channel=0 note=61 velocity=127 time=0.010416666666666666\n",
      "note_off channel=0 note=61 velocity=127 time=0.019791666666666666\n",
      "note_on channel=0 note=62 velocity=127 time=0.027083333333333334\n",
      "note_off channel=0 note=62 velocity=127 time=0.019791666666666666\n",
      "note_on channel=0 note=60 velocity=127 time=0.040625\n",
      "note_on channel=0 note=62 velocity=127 time=0.017708333333333333\n",
      "note_off channel=0 note=60 velocity=127 time=0.003125\n",
      "note_off channel=0 note=62 velocity=127 time=0.017708333333333333\n",
      "note_on channel=0 note=62 velocity=127 time=0.057291666666666664\n",
      "note_off channel=0 note=62 velocity=127 time=0.019791666666666666\n",
      "note_on channel=0 note=61 velocity=127 time=0.028125\n",
      "note_on channel=0 note=60 velocity=127 time=0.0010416666666666667\n",
      "note_off channel=0 note=61 velocity=127 time=0.019791666666666666\n",
      "note_off channel=0 note=60 velocity=127 time=0.0010416666666666667\n",
      "note_on channel=0 note=62 velocity=127 time=0.008333333333333333\n",
      "note_off channel=0 note=62 velocity=127 time=0.019791666666666666\n",
      "note_on channel=0 note=62 velocity=127 time=0.057291666666666664\n",
      "note_off channel=0 note=62 velocity=127 time=0.019791666666666666\n",
      "note_on channel=0 note=60 velocity=127 time=0.017708333333333333\n",
      "note_off channel=0 note=60 velocity=127 time=0.019791666666666666\n",
      "note_on channel=0 note=62 velocity=127 time=0.019791666666666666\n",
      "note_off channel=0 note=62 velocity=127 time=0.019791666666666666\n",
      "note_on channel=0 note=61 velocity=127 time=0.04583333333333333\n",
      "note_on channel=0 note=62 velocity=127 time=0.011458333333333333\n",
      "note_off channel=0 note=61 velocity=127 time=0.008333333333333333\n",
      "note_off channel=0 note=62 velocity=127 time=0.011458333333333333\n",
      "note_on channel=0 note=60 velocity=127 time=0.00625\n",
      "note_off channel=0 note=60 velocity=127 time=0.019791666666666666\n",
      "note_on channel=0 note=62 velocity=127 time=0.03125\n",
      "note_off channel=0 note=62 velocity=127 time=0.019791666666666666\n",
      "note_on channel=0 note=62 velocity=127 time=0.057291666666666664\n",
      "note_on channel=0 note=60 velocity=127 time=0.014583333333333334\n",
      "note_off channel=0 note=62 velocity=127 time=0.005208333333333333\n",
      "note_off channel=0 note=60 velocity=127 time=0.014583333333333334\n",
      "note_on channel=0 note=62 velocity=127 time=0.042708333333333334\n",
      "note_on channel=0 note=61 velocity=127 time=0.00625\n",
      "note_off channel=0 note=62 velocity=127 time=0.013541666666666667\n",
      "note_off channel=0 note=61 velocity=127 time=0.00625\n",
      "note_on channel=0 note=62 velocity=127 time=0.051041666666666666\n",
      "note_on channel=0 note=60 velocity=127 time=0.003125\n",
      "note_off channel=0 note=62 velocity=127 time=0.016666666666666666\n",
      "note_off channel=0 note=60 velocity=127 time=0.003125\n",
      "note_on channel=0 note=62 velocity=127 time=0.05416666666666667\n",
      "note_off channel=0 note=62 velocity=127 time=0.019791666666666666\n",
      "note_on channel=0 note=60 velocity=127 time=0.05\n",
      "\u001b[91m [DEBUG] > \u001b[0m\n",
      " |>  to_array: msg.time > max_t; t, n\n",
      " |>  2.0354166666666673\n",
      " |>  100\n",
      "note_on channel=0 note=61 velocity=127 time=0.030208333333333334\n",
      "note_off channel=0 note=61 velocity=127 time=0.019791666666666666\n",
      "note_on channel=0 note=60 velocity=127 time=0.04479166666666667\n",
      "note_off channel=0 note=60 velocity=127 time=0.019791666666666666\n",
      "note_on channel=0 note=62 velocity=127 time=0.007291666666666667\n",
      "note_on channel=0 note=61 velocity=127 time=0.007291666666666667\n",
      "note_off channel=0 note=62 velocity=127 time=0.0125\n",
      "note_off channel=0 note=61 velocity=127 time=0.007291666666666667\n",
      "note_on channel=0 note=61 velocity=127 time=0.07916666666666666\n",
      "note_on channel=0 note=62 velocity=127 time=0.016666666666666666\n",
      "note_off channel=0 note=61 velocity=127 time=0.003125\n",
      "note_off channel=0 note=62 velocity=127 time=0.016666666666666666\n",
      "note_on channel=0 note=60 velocity=127 time=0.051041666666666666\n",
      "note_on channel=0 note=61 velocity=127 time=0.011458333333333333\n",
      "note_off channel=0 note=60 velocity=127 time=0.008333333333333333\n",
      "note_off channel=0 note=61 velocity=127 time=0.011458333333333333\n",
      "note_on channel=0 note=62 velocity=127 time=0.021875\n",
      "note_off channel=0 note=62 velocity=127 time=0.019791666666666666\n",
      "note_on channel=0 note=61 velocity=127 time=0.0375\n",
      "note_off channel=0 note=61 velocity=127 time=0.019791666666666666\n",
      "note_on channel=0 note=62 velocity=127 time=0.04583333333333333\n",
      "note_off channel=0 note=62 velocity=127 time=0.019791666666666666\n",
      "note_on channel=0 note=61 velocity=127 time=0.013541666666666667\n",
      "note_on channel=0 note=60 velocity=127 time=0.011458333333333333\n",
      "note_off channel=0 note=61 velocity=127 time=0.008333333333333333\n",
      "note_off channel=0 note=60 velocity=127 time=0.011458333333333333\n",
      "note_on channel=0 note=62 velocity=127 time=0.058333333333333334\n",
      "note_on channel=0 note=61 velocity=127 time=0.008333333333333333\n",
      "note_off channel=0 note=62 velocity=127 time=0.011458333333333333\n",
      "note_off channel=0 note=61 velocity=127 time=0.008333333333333333\n",
      "note_on channel=0 note=61 velocity=127 time=0.07916666666666666\n",
      "note_on channel=0 note=62 velocity=127 time=0.015625\n",
      "note_off channel=0 note=61 velocity=127 time=0.004166666666666667\n",
      "note_on channel=0 note=60 velocity=127 time=0.015625\n",
      "note_off channel=0 note=62 velocity=127 time=0.0010416666666666667\n",
      "note_off channel=0 note=60 velocity=127 time=0.019791666666666666\n",
      "note_on channel=0 note=61 velocity=127 time=0.04375\n",
      "note_off channel=0 note=61 velocity=127 time=0.019791666666666666\n",
      "note_on channel=0 note=62 velocity=127 time=0.019791666666666666\n",
      "note_off channel=0 note=62 velocity=127 time=0.019791666666666666\n",
      "note_on channel=0 note=61 velocity=127 time=0.03854166666666667\n",
      "note_off channel=0 note=61 velocity=127 time=0.019791666666666666\n",
      "note_on channel=0 note=60 velocity=127 time=0.03854166666666667\n",
      "note_on channel=0 note=62 velocity=127 time=0.00625\n",
      "note_off channel=0 note=60 velocity=127 time=0.013541666666666667\n",
      "note_off channel=0 note=62 velocity=127 time=0.00625\n",
      "note_on channel=0 note=61 velocity=127 time=0.014583333333333334\n",
      "note_off channel=0 note=61 velocity=127 time=0.019791666666666666\n",
      "note_on channel=0 note=62 velocity=127 time=0.06979166666666667\n",
      "note_on channel=0 note=61 velocity=127 time=0.010416666666666666\n",
      "note_off channel=0 note=62 velocity=127 time=0.010416666666666666\n",
      "note_off channel=0 note=61 velocity=127 time=0.010416666666666666\n",
      "note_on channel=0 note=60 velocity=127 time=0.06145833333333333\n",
      "note_on channel=0 note=61 velocity=127 time=0.017708333333333333\n",
      "note_off channel=0 note=60 velocity=127 time=0.003125\n",
      "note_on channel=0 note=62 velocity=127 time=0.0125\n",
      "note_off channel=0 note=61 velocity=127 time=0.005208333333333333\n",
      "note_off channel=0 note=62 velocity=127 time=0.014583333333333334\n",
      "note_on channel=0 note=61 velocity=127 time=0.06458333333333333\n",
      "note_off channel=0 note=61 velocity=127 time=0.019791666666666666\n",
      "note_on channel=0 note=62 velocity=127 time=0.01875\n",
      "note_off channel=0 note=62 velocity=127 time=0.019791666666666666\n",
      "note_on channel=0 note=61 velocity=127 time=0.040625\n",
      "note_on channel=0 note=60 velocity=127 time=0.00625\n",
      "note_off channel=0 note=61 velocity=127 time=0.013541666666666667\n",
      "note_off channel=0 note=60 velocity=127 time=0.00625\n",
      "note_on channel=0 note=62 velocity=127 time=0.0375\n",
      "note_off channel=0 note=62 velocity=127 time=0.019791666666666666\n",
      "note_on channel=0 note=61 velocity=127 time=0.015625\n",
      "note_off channel=0 note=61 velocity=127 time=0.019791666666666666\n",
      "note_on channel=0 note=62 velocity=127 time=0.06770833333333333\n",
      "note_on channel=0 note=61 velocity=127 time=0.011458333333333333\n",
      "note_off channel=0 note=62 velocity=127 time=0.009375\n",
      "note_off channel=0 note=61 velocity=127 time=0.011458333333333333\n",
      "note_on channel=0 note=60 velocity=127 time=0.009375\n",
      "note_off channel=0 note=60 velocity=127 time=0.019791666666666666\n",
      "note_on channel=0 note=61 velocity=127 time=0.05\n",
      "note_on channel=0 note=62 velocity=127 time=0.013541666666666667\n",
      "note_off channel=0 note=61 velocity=127 time=0.00625\n",
      "note_off channel=0 note=62 velocity=127 time=0.013541666666666667\n",
      "note_on channel=0 note=61 velocity=127 time=0.065625\n",
      "note_off channel=0 note=61 velocity=127 time=0.019791666666666666\n",
      "note_on channel=0 note=62 velocity=127 time=0.017708333333333333\n",
      "note_on channel=0 note=60 velocity=127 time=0.014583333333333334\n",
      "note_off channel=0 note=62 velocity=127 time=0.005208333333333333\n",
      "note_off channel=0 note=60 velocity=127 time=0.014583333333333334\n",
      "note_on channel=0 note=61 velocity=127 time=0.026041666666666668\n",
      "note_off channel=0 note=61 velocity=127 time=0.019791666666666666\n",
      "note_on channel=0 note=62 velocity=127 time=0.042708333333333334\n",
      "note_off channel=0 note=62 velocity=127 time=0.019791666666666666\n",
      "\u001b[91m [DEBUG] > \u001b[0m\n",
      " |>  to_array: msg.time > max_t; t, n\n",
      " |>  1.9947916666666672\n",
      " |>  100\n",
      "note_on channel=0 note=61 velocity=127 time=0.03229166666666666\n",
      "note_on channel=0 note=60 velocity=127 time=0.019791666666666666\n",
      "note_off channel=0 note=61 velocity=127 time=0\n",
      "note_off channel=0 note=60 velocity=127 time=0.019791666666666666\n",
      "note_on channel=0 note=62 velocity=127 time=0.04375\n",
      "note_on channel=0 note=60 velocity=127 time=0.011458333333333333\n",
      "note_on channel=0 note=61 velocity=127 time=0.0010416666666666667\n",
      "note_off channel=0 note=62 velocity=127 time=0.007291666666666667\n",
      "note_off channel=0 note=60 velocity=127 time=0.011458333333333333\n",
      "note_off channel=0 note=61 velocity=127 time=0.0010416666666666667\n",
      "note_on channel=0 note=60 velocity=127 time=0.05416666666666667\n",
      "note_off channel=0 note=60 velocity=127 time=0.019791666666666666\n",
      "note_on channel=0 note=61 velocity=127 time=0.0020833333333333333\n",
      "note_off channel=0 note=61 velocity=127 time=0.019791666666666666\n",
      "note_on channel=0 note=62 velocity=127 time=0.011458333333333333\n",
      "note_off channel=0 note=62 velocity=127 time=0.019791666666666666\n",
      "note_on channel=0 note=60 velocity=127 time=0.0010416666666666667\n",
      "note_off channel=0 note=60 velocity=127 time=0.019791666666666666\n",
      "note_on channel=0 note=61 velocity=127 time=0.02395833333333333\n",
      "note_off channel=0 note=61 velocity=127 time=0.019791666666666666\n",
      "note_on channel=0 note=60 velocity=127 time=0.011458333333333333\n",
      "note_off channel=0 note=60 velocity=127 time=0.019791666666666666\n",
      "note_on channel=0 note=62 velocity=127 time=0.025\n",
      "note_on channel=0 note=61 velocity=127 time=0.019791666666666666\n",
      "note_off channel=0 note=62 velocity=127 time=0\n",
      "note_on channel=0 note=60 velocity=127 time=0.010416666666666666\n",
      "note_off channel=0 note=61 velocity=127 time=0.009375\n",
      "note_off channel=0 note=60 velocity=127 time=0.010416666666666666\n",
      "note_on channel=0 note=60 velocity=127 time=0.05520833333333333\n",
      "note_on channel=0 note=61 velocity=127 time=0.010416666666666666\n",
      "note_off channel=0 note=60 velocity=127 time=0.009375\n",
      "note_off channel=0 note=61 velocity=127 time=0.010416666666666666\n",
      "note_on channel=0 note=62 velocity=127 time=0.005208333333333333\n",
      "note_off channel=0 note=62 velocity=127 time=0.019791666666666666\n",
      "note_on channel=0 note=60 velocity=127 time=0.019791666666666666\n",
      "note_off channel=0 note=60 velocity=127 time=0.019791666666666666\n",
      "note_on channel=0 note=61 velocity=127 time=0.011458333333333333\n",
      "note_off channel=0 note=61 velocity=127 time=0.019791666666666666\n",
      "note_on channel=0 note=60 velocity=127 time=0.02395833333333333\n",
      "note_off channel=0 note=60 velocity=127 time=0.019791666666666666\n",
      "note_on channel=0 note=62 velocity=127 time=0.00625\n",
      "note_off channel=0 note=62 velocity=127 time=0.019791666666666666\n",
      "note_on channel=0 note=61 velocity=127 time=0.00625\n",
      "note_off channel=0 note=61 velocity=127 time=0.019791666666666666\n",
      "note_on channel=0 note=60 velocity=127 time=0.0020833333333333333\n",
      "note_off channel=0 note=60 velocity=127 time=0.019791666666666666\n",
      "note_on channel=0 note=61 velocity=127 time=0.05416666666666667\n",
      "note_on channel=0 note=60 velocity=127 time=0.0010416666666666667\n",
      "note_on channel=0 note=62 velocity=127 time=0.016666666666666666\n",
      "note_off channel=0 note=61 velocity=127 time=0.0020833333333333333\n",
      "note_off channel=0 note=60 velocity=127 time=0.0010416666666666667\n",
      "note_off channel=0 note=62 velocity=127 time=0.016666666666666666\n",
      "note_on channel=0 note=60 velocity=127 time=0.03854166666666667\n",
      "note_on channel=0 note=61 velocity=127 time=0.019791666666666666\n",
      "note_off channel=0 note=60 velocity=127 time=0\n",
      "note_off channel=0 note=61 velocity=127 time=0.019791666666666666\n",
      "note_on channel=0 note=60 velocity=127 time=0.035416666666666666\n",
      "note_on channel=0 note=62 velocity=127 time=0.007291666666666667\n",
      "note_off channel=0 note=60 velocity=127 time=0.0125\n",
      "note_off channel=0 note=62 velocity=127 time=0.007291666666666667\n",
      "note_on channel=0 note=61 velocity=127 time=0.013541666666666667\n",
      "note_off channel=0 note=61 velocity=127 time=0.019791666666666666\n",
      "note_on channel=0 note=60 velocity=127 time=0.014583333333333334\n",
      "note_off channel=0 note=60 velocity=127 time=0.019791666666666666\n",
      "note_on channel=0 note=61 velocity=127 time=0.042708333333333334\n",
      "note_on channel=0 note=62 velocity=127 time=0.011458333333333333\n",
      "note_on channel=0 note=60 velocity=127 time=0.0020833333333333333\n",
      "note_off channel=0 note=61 velocity=127 time=0.007291666666666667\n",
      "note_off channel=0 note=62 velocity=127 time=0.011458333333333333\n",
      "note_off channel=0 note=60 velocity=127 time=0.0020833333333333333\n",
      "note_on channel=0 note=60 velocity=127 time=0.05520833333333333\n",
      "note_on channel=0 note=61 velocity=127 time=0.008333333333333333\n",
      "note_off channel=0 note=60 velocity=127 time=0.011458333333333333\n",
      "note_off channel=0 note=61 velocity=127 time=0.008333333333333333\n",
      "note_on channel=0 note=62 velocity=127 time=0.036458333333333336\n",
      "note_on channel=0 note=60 velocity=127 time=0.011458333333333333\n",
      "note_off channel=0 note=62 velocity=127 time=0.009375\n",
      "note_off channel=0 note=60 velocity=127 time=0.011458333333333333\n",
      "note_on channel=0 note=61 velocity=127 time=0.009375\n",
      "note_off channel=0 note=61 velocity=127 time=0.019791666666666666\n",
      "note_on channel=0 note=60 velocity=127 time=0.026041666666666668\n",
      "note_off channel=0 note=60 velocity=127 time=0.019791666666666666\n",
      "note_on channel=0 note=61 velocity=127 time=0.030208333333333334\n",
      "note_on channel=0 note=62 velocity=127 time=0.004166666666666667\n",
      "note_off channel=0 note=61 velocity=127 time=0.015625\n",
      "note_off channel=0 note=62 velocity=127 time=0.004166666666666667\n",
      "note_on channel=0 note=60 velocity=127 time=0\n",
      "note_off channel=0 note=60 velocity=127 time=0.019791666666666666\n",
      "note_on channel=0 note=61 velocity=127 time=0.052083333333333336\n",
      "note_on channel=0 note=60 velocity=127 time=0.004166666666666667\n",
      "note_off channel=0 note=61 velocity=127 time=0.016666666666666666\n",
      "note_off channel=0 note=60 velocity=127 time=0.004166666666666667\n",
      "note_on channel=0 note=62 velocity=127 time=0.026041666666666668\n",
      "note_off channel=0 note=62 velocity=127 time=0.019791666666666666\n",
      "note_on channel=0 note=60 velocity=127 time=0.009375\n",
      "note_on channel=0 note=61 velocity=127 time=0.017708333333333333\n",
      "note_off channel=0 note=60 velocity=127 time=0.0020833333333333333\n",
      "note_off channel=0 note=61 velocity=127 time=0.017708333333333333\n",
      "note_on channel=0 note=60 velocity=127 time=0.0375\n",
      "note_off channel=0 note=60 velocity=127 time=0.019791666666666666\n",
      "note_on channel=0 note=62 velocity=127 time=0.016666666666666666\n",
      "note_on channel=0 note=61 velocity=127 time=0.0020833333333333333\n",
      "note_off channel=0 note=62 velocity=127 time=0.017708333333333333\n",
      "note_off channel=0 note=61 velocity=127 time=0.0020833333333333333\n",
      "note_on channel=0 note=60 velocity=127 time=0.016666666666666666\n",
      "note_off channel=0 note=60 velocity=127 time=0.019791666666666666\n",
      "note_on channel=0 note=61 velocity=127 time=0.03958333333333333\n",
      "note_on channel=0 note=60 velocity=127 time=0.015625\n",
      "note_off channel=0 note=61 velocity=127 time=0.004166666666666667\n",
      "note_off channel=0 note=60 velocity=127 time=0.015625\n",
      "note_on channel=0 note=62 velocity=127 time=0.007291666666666667\n",
      "note_off channel=0 note=62 velocity=127 time=0.019791666666666666\n",
      "note_on channel=0 note=60 velocity=127 time=0.028125\n",
      "note_on channel=0 note=61 velocity=127 time=0.00625\n",
      "note_off channel=0 note=60 velocity=127 time=0.014583333333333334\n",
      "note_off channel=0 note=61 velocity=127 time=0.00625\n",
      "note_on channel=0 note=60 velocity=127 time=0.05\n",
      "note_on channel=0 note=62 velocity=127 time=0.017708333333333333\n",
      "note_off channel=0 note=60 velocity=127 time=0.0020833333333333333\n",
      "note_on channel=0 note=61 velocity=127 time=0.007291666666666667\n",
      "note_off channel=0 note=62 velocity=127 time=0.010416666666666666\n",
      "note_off channel=0 note=61 velocity=127 time=0.009375\n",
      "note_on channel=0 note=60 velocity=127 time=0.028125\n",
      "\u001b[91m [DEBUG] > \u001b[0m\n",
      " |>  to_array: msg.time > max_t; t, n\n",
      " |>  2.0072916666666676\n",
      " |>  100\n",
      "note_on channel=0 note=61 velocity=127 time=0.026041666666666668\n",
      "note_on channel=0 note=60 velocity=127 time=0.016666666666666666\n",
      "note_off channel=0 note=61 velocity=127 time=0.003125\n",
      "note_off channel=0 note=60 velocity=127 time=0.016666666666666666\n",
      "note_on channel=0 note=61 velocity=127 time=0.035416666666666666\n",
      "note_off channel=0 note=61 velocity=127 time=0.019791666666666666\n",
      "note_on channel=0 note=60 velocity=127 time=0.017708333333333333\n",
      "note_off channel=0 note=60 velocity=127 time=0.019791666666666666\n",
      "note_on channel=0 note=61 velocity=127 time=0.013541666666666667\n",
      "note_off channel=0 note=61 velocity=127 time=0.019791666666666666\n",
      "note_on channel=0 note=62 velocity=127 time=0.007291666666666667\n",
      "note_off channel=0 note=62 velocity=127 time=0.019791666666666666\n",
      "note_on channel=0 note=60 velocity=127 time=0.0125\n",
      "note_on channel=0 note=61 velocity=127 time=0.0125\n",
      "note_off channel=0 note=60 velocity=127 time=0.007291666666666667\n",
      "note_off channel=0 note=61 velocity=127 time=0.0125\n",
      "note_on channel=0 note=61 velocity=127 time=0.052083333333333336\n",
      "note_on channel=0 note=60 velocity=127 time=0.009375\n",
      "note_off channel=0 note=61 velocity=127 time=0.010416666666666666\n",
      "note_off channel=0 note=60 velocity=127 time=0.009375\n",
      "note_on channel=0 note=61 velocity=127 time=0.042708333333333334\n",
      "note_off channel=0 note=61 velocity=127 time=0.019791666666666666\n",
      "note_on channel=0 note=60 velocity=127 time=0.010416666666666666\n",
      "note_off channel=0 note=60 velocity=127 time=0.019791666666666666\n",
      "note_on channel=0 note=61 velocity=127 time=0.020833333333333332\n",
      "note_off channel=0 note=61 velocity=127 time=0.019791666666666666\n",
      "note_on channel=0 note=62 velocity=127 time=0.022916666666666665\n",
      "note_on channel=0 note=60 velocity=127 time=0.009375\n",
      "note_off channel=0 note=62 velocity=127 time=0.010416666666666666\n",
      "note_on channel=0 note=61 velocity=127 time=0.009375\n",
      "note_off channel=0 note=60 velocity=127 time=0\n",
      "note_off channel=0 note=61 velocity=127 time=0.019791666666666666\n",
      "note_on channel=0 note=61 velocity=127 time=0.052083333333333336\n",
      "note_on channel=0 note=60 velocity=127 time=0.0020833333333333333\n",
      "note_off channel=0 note=61 velocity=127 time=0.017708333333333333\n",
      "note_off channel=0 note=60 velocity=127 time=0.0020833333333333333\n",
      "note_on channel=0 note=61 velocity=127 time=0.05\n",
      "note_off channel=0 note=61 velocity=127 time=0.019791666666666666\n",
      "note_on channel=0 note=60 velocity=127 time=0.004166666666666667\n",
      "note_off channel=0 note=60 velocity=127 time=0.019791666666666666\n",
      "note_on channel=0 note=61 velocity=127 time=0.028125\n",
      "note_off channel=0 note=61 velocity=127 time=0.019791666666666666\n",
      "note_on channel=0 note=60 velocity=127 time=0.025\n",
      "note_on channel=0 note=62 velocity=127 time=0.013541666666666667\n",
      "note_off channel=0 note=60 velocity=127 time=0.00625\n",
      "note_on channel=0 note=61 velocity=127 time=0.00625\n",
      "note_off channel=0 note=62 velocity=127 time=0.007291666666666667\n",
      "note_off channel=0 note=61 velocity=127 time=0.013541666666666667\n",
      "note_on channel=0 note=60 velocity=127 time=0.046875\n",
      "note_on channel=0 note=61 velocity=127 time=0.005208333333333333\n",
      "note_off channel=0 note=60 velocity=127 time=0.014583333333333334\n",
      "note_off channel=0 note=61 velocity=127 time=0.005208333333333333\n",
      "note_on channel=0 note=61 velocity=127 time=0.052083333333333336\n",
      "note_on channel=0 note=60 velocity=127 time=0.016666666666666666\n",
      "note_off channel=0 note=61 velocity=127 time=0.003125\n",
      "note_off channel=0 note=60 velocity=127 time=0.016666666666666666\n",
      "note_on channel=0 note=61 velocity=127 time=0.035416666666666666\n",
      "note_off channel=0 note=61 velocity=127 time=0.019791666666666666\n",
      "note_on channel=0 note=60 velocity=127 time=0.017708333333333333\n",
      "note_off channel=0 note=60 velocity=127 time=0.019791666666666666\n",
      "note_on channel=0 note=61 velocity=127 time=0.013541666666666667\n",
      "note_on channel=0 note=62 velocity=127 time=0.003125\n",
      "note_off channel=0 note=61 velocity=127 time=0.017708333333333333\n",
      "note_off channel=0 note=62 velocity=127 time=0.003125\n",
      "note_on channel=0 note=60 velocity=127 time=0.0375\n",
      "note_on channel=0 note=61 velocity=127 time=0.0125\n",
      "note_off channel=0 note=60 velocity=127 time=0.007291666666666667\n",
      "note_off channel=0 note=61 velocity=127 time=0.0125\n",
      "note_on channel=0 note=61 velocity=127 time=0.052083333333333336\n",
      "note_on channel=0 note=60 velocity=127 time=0.009375\n",
      "note_off channel=0 note=61 velocity=127 time=0.010416666666666666\n",
      "note_off channel=0 note=60 velocity=127 time=0.009375\n",
      "note_on channel=0 note=61 velocity=127 time=0.042708333333333334\n",
      "note_off channel=0 note=61 velocity=127 time=0.019791666666666666\n",
      "note_on channel=0 note=60 velocity=127 time=0.011458333333333333\n",
      "note_off channel=0 note=60 velocity=127 time=0.019791666666666666\n",
      "note_on channel=0 note=61 velocity=127 time=0.020833333333333332\n",
      "note_on channel=0 note=62 velocity=127 time=0.01875\n",
      "note_off channel=0 note=61 velocity=127 time=0.0010416666666666667\n",
      "note_off channel=0 note=62 velocity=127 time=0.01875\n",
      "note_on channel=0 note=60 velocity=127 time=0.014583333333333334\n",
      "note_on channel=0 note=61 velocity=127 time=0.019791666666666666\n",
      "note_off channel=0 note=60 velocity=127 time=0.0010416666666666667\n",
      "note_off channel=0 note=61 velocity=127 time=0.019791666666666666\n",
      "note_on channel=0 note=61 velocity=127 time=0.052083333333333336\n",
      "note_on channel=0 note=60 velocity=127 time=0.0020833333333333333\n",
      "note_off channel=0 note=61 velocity=127 time=0.017708333333333333\n",
      "note_off channel=0 note=60 velocity=127 time=0.0020833333333333333\n",
      "note_on channel=0 note=61 velocity=127 time=0.05\n",
      "note_off channel=0 note=61 velocity=127 time=0.019791666666666666\n",
      "note_on channel=0 note=60 velocity=127 time=0.004166666666666667\n",
      "note_off channel=0 note=60 velocity=127 time=0.019791666666666666\n",
      "note_on channel=0 note=61 velocity=127 time=0.028125\n",
      "note_off channel=0 note=61 velocity=127 time=0.019791666666666666\n",
      "note_on channel=0 note=62 velocity=127 time=0.014583333333333334\n",
      "note_on channel=0 note=60 velocity=127 time=0.011458333333333333\n",
      "note_off channel=0 note=62 velocity=127 time=0.008333333333333333\n",
      "note_off channel=0 note=60 velocity=127 time=0.011458333333333333\n",
      "note_on channel=0 note=61 velocity=127 time=0.00625\n",
      "note_off channel=0 note=61 velocity=127 time=0.019791666666666666\n",
      "note_on channel=0 note=60 velocity=127 time=0.046875\n",
      "note_on channel=0 note=61 velocity=127 time=0.005208333333333333\n",
      "note_off channel=0 note=60 velocity=127 time=0.014583333333333334\n",
      "note_off channel=0 note=61 velocity=127 time=0.005208333333333333\n",
      "note_on channel=0 note=61 velocity=127 time=0.052083333333333336\n",
      "note_on channel=0 note=60 velocity=127 time=0.016666666666666666\n",
      "note_off channel=0 note=61 velocity=127 time=0.003125\n",
      "note_off channel=0 note=60 velocity=127 time=0.016666666666666666\n",
      "note_on channel=0 note=61 velocity=127 time=0.035416666666666666\n",
      "note_off channel=0 note=61 velocity=127 time=0.019791666666666666\n",
      "note_on channel=0 note=60 velocity=127 time=0.01875\n",
      "\u001b[91m [DEBUG] > \u001b[0m\n",
      " |>  to_array: msg.time > max_t; t, n\n",
      " |>  2.00625\n",
      " |>  100\n",
      "note_on channel=0 note=61 velocity=127 time=0.016666666666666666\n",
      "note_off channel=0 note=61 velocity=127 time=0.019791666666666666\n",
      "note_on channel=0 note=62 velocity=127 time=0.016666666666666666\n",
      "note_off channel=0 note=62 velocity=127 time=0.019791666666666666\n",
      "note_on channel=0 note=60 velocity=127 time=0.004166666666666667\n",
      "note_off channel=0 note=60 velocity=127 time=0.019791666666666666\n",
      "note_on channel=0 note=62 velocity=127 time=0.05416666666666667\n",
      "note_off channel=0 note=62 velocity=127 time=0.019791666666666666\n",
      "note_on channel=0 note=60 velocity=127 time=0.015625\n",
      "note_off channel=0 note=60 velocity=127 time=0.019791666666666666\n",
      "note_on channel=0 note=62 velocity=127 time=0.042708333333333334\n",
      "note_off channel=0 note=62 velocity=127 time=0.019791666666666666\n",
      "note_on channel=0 note=60 velocity=127 time=0.027083333333333334\n",
      "note_on channel=0 note=61 velocity=127 time=0.0020833333333333333\n",
      "note_off channel=0 note=60 velocity=127 time=0.017708333333333333\n",
      "note_off channel=0 note=61 velocity=127 time=0.0020833333333333333\n",
      "note_on channel=0 note=62 velocity=127 time=0.029166666666666667\n",
      "note_off channel=0 note=62 velocity=127 time=0.019791666666666666\n",
      "note_on channel=0 note=60 velocity=127 time=0.03854166666666667\n",
      "note_off channel=0 note=60 velocity=127 time=0.019791666666666666\n",
      "note_on channel=0 note=62 velocity=127 time=0.019791666666666666\n",
      "note_off channel=0 note=62 velocity=127 time=0.019791666666666666\n",
      "note_on channel=0 note=60 velocity=127 time=0.05\n",
      "note_off channel=0 note=60 velocity=127 time=0.019791666666666666\n",
      "note_on channel=0 note=62 velocity=127 time=0.008333333333333333\n"
     ]
    },
    {
     "name": "stdout",
     "output_type": "stream",
     "text": [
      "note_off channel=0 note=62 velocity=127 time=0.019791666666666666\n",
      "note_on channel=0 note=61 velocity=127 time=0.017708333333333333\n",
      "note_off channel=0 note=61 velocity=127 time=0.019791666666666666\n",
      "note_on channel=0 note=60 velocity=127 time=0.02395833333333333\n",
      "note_on channel=0 note=62 velocity=127 time=0.016666666666666666\n",
      "note_off channel=0 note=60 velocity=127 time=0.003125\n",
      "note_off channel=0 note=62 velocity=127 time=0.016666666666666666\n",
      "note_on channel=0 note=60 velocity=127 time=0.07395833333333333\n",
      "note_on channel=0 note=62 velocity=127 time=0.005208333333333333\n",
      "note_off channel=0 note=60 velocity=127 time=0.014583333333333334\n",
      "note_off channel=0 note=62 velocity=127 time=0.005208333333333333\n",
      "note_on channel=0 note=62 velocity=127 time=0.078125\n",
      "note_on channel=0 note=60 velocity=127 time=0.00625\n",
      "note_off channel=0 note=62 velocity=127 time=0.013541666666666667\n",
      "note_on channel=0 note=61 velocity=127 time=0.00625\n",
      "note_off channel=0 note=60 velocity=127 time=0.0010416666666666667\n",
      "note_off channel=0 note=61 velocity=127 time=0.01875\n",
      "note_on channel=0 note=62 velocity=127 time=0.053125\n",
      "note_on channel=0 note=60 velocity=127 time=0.017708333333333333\n",
      "note_off channel=0 note=62 velocity=127 time=0.0020833333333333333\n",
      "note_off channel=0 note=60 velocity=127 time=0.017708333333333333\n",
      "note_on channel=0 note=62 velocity=127 time=0.06041666666666667\n",
      "note_off channel=0 note=62 velocity=127 time=0.019791666666666666\n",
      "note_on channel=0 note=60 velocity=127 time=0.009375\n",
      "note_off channel=0 note=60 velocity=127 time=0.019791666666666666\n",
      "note_on channel=0 note=62 velocity=127 time=0.04895833333333333\n",
      "note_on channel=0 note=61 velocity=127 time=0.013541666666666667\n",
      "note_off channel=0 note=62 velocity=127 time=0.00625\n",
      "note_off channel=0 note=61 velocity=127 time=0.013541666666666667\n",
      "note_on channel=0 note=60 velocity=127 time=0.007291666666666667\n",
      "note_off channel=0 note=60 velocity=127 time=0.019791666666666666\n",
      "note_on channel=0 note=62 velocity=127 time=0.0375\n",
      "note_off channel=0 note=62 velocity=127 time=0.019791666666666666\n",
      "note_on channel=0 note=60 velocity=127 time=0.03229166666666666\n",
      "note_off channel=0 note=60 velocity=127 time=0.019791666666666666\n",
      "note_on channel=0 note=62 velocity=127 time=0.026041666666666668\n",
      "note_off channel=0 note=62 velocity=127 time=0.019791666666666666\n",
      "note_on channel=0 note=60 velocity=127 time=0.04375\n",
      "note_off channel=0 note=60 velocity=127 time=0.019791666666666666\n",
      "note_on channel=0 note=62 velocity=127 time=0.014583333333333334\n",
      "note_on channel=0 note=61 velocity=127 time=0.0020833333333333333\n",
      "note_off channel=0 note=62 velocity=127 time=0.017708333333333333\n",
      "note_off channel=0 note=61 velocity=127 time=0.0020833333333333333\n",
      "note_on channel=0 note=60 velocity=127 time=0.053125\n",
      "note_off channel=0 note=60 velocity=127 time=0.019791666666666666\n",
      "note_on channel=0 note=62 velocity=127 time=0.003125\n",
      "note_off channel=0 note=62 velocity=127 time=0.019791666666666666\n",
      "note_on channel=0 note=60 velocity=127 time=0.06666666666666667\n",
      "note_on channel=0 note=62 velocity=127 time=0.011458333333333333\n",
      "note_off channel=0 note=60 velocity=127 time=0.008333333333333333\n",
      "note_off channel=0 note=62 velocity=127 time=0.011458333333333333\n",
      "note_on channel=0 note=61 velocity=127 time=0.06875\n",
      "note_on channel=0 note=62 velocity=127 time=0.010416666666666666\n",
      "note_on channel=0 note=60 velocity=127 time=0\n",
      "note_off channel=0 note=61 velocity=127 time=0.009375\n",
      "note_off channel=0 note=62 velocity=127 time=0.010416666666666666\n",
      "note_off channel=0 note=60 velocity=127 time=0\n",
      "note_on channel=0 note=62 velocity=127 time=0.078125\n",
      "note_on channel=0 note=60 velocity=127 time=0.011458333333333333\n",
      "note_off channel=0 note=62 velocity=127 time=0.008333333333333333\n",
      "note_off channel=0 note=60 velocity=127 time=0.011458333333333333\n",
      "note_on channel=0 note=62 velocity=127 time=0.06666666666666667\n",
      "note_off channel=0 note=62 velocity=127 time=0.019791666666666666\n",
      "note_on channel=0 note=60 velocity=127 time=0.003125\n",
      "note_off channel=0 note=60 velocity=127 time=0.019791666666666666\n",
      "note_on channel=0 note=61 velocity=127 time=0.03333333333333333\n",
      "\u001b[91m [DEBUG] > \u001b[0m\n",
      " |>  to_array: msg.time > max_t; t, n\n",
      " |>  1.992708333333334\n",
      " |>  100\n",
      "note_on channel=0 note=60 velocity=127 time=0.003125\n",
      "note_on channel=0 note=62 velocity=127 time=0.008333333333333333\n",
      "note_off channel=0 note=60 velocity=127 time=0.011458333333333333\n",
      "note_off channel=0 note=62 velocity=127 time=0.008333333333333333\n",
      "note_on channel=0 note=61 velocity=127 time=0.04583333333333333\n",
      "note_off channel=0 note=61 velocity=127 time=0.019791666666666666\n",
      "note_on channel=0 note=62 velocity=127 time=0.0010416666666666667\n",
      "note_off channel=0 note=62 velocity=127 time=0.019791666666666666\n",
      "note_on channel=0 note=61 velocity=127 time=0.05625\n",
      "note_on channel=0 note=62 velocity=127 time=0.011458333333333333\n",
      "note_off channel=0 note=61 velocity=127 time=0.008333333333333333\n",
      "note_off channel=0 note=62 velocity=127 time=0.011458333333333333\n",
      "note_on channel=0 note=60 velocity=127 time=0\n",
      "note_off channel=0 note=60 velocity=127 time=0.019791666666666666\n",
      "note_on channel=0 note=61 velocity=127 time=0.04583333333333333\n",
      "note_on channel=0 note=62 velocity=127 time=0.0010416666666666667\n",
      "note_off channel=0 note=61 velocity=127 time=0.01875\n",
      "note_off channel=0 note=62 velocity=127 time=0.0010416666666666667\n",
      "note_on channel=0 note=62 velocity=127 time=0.06770833333333333\n",
      "note_on channel=0 note=61 velocity=127 time=0.008333333333333333\n",
      "note_off channel=0 note=62 velocity=127 time=0.011458333333333333\n",
      "note_off channel=0 note=61 velocity=127 time=0.008333333333333333\n",
      "note_on channel=0 note=60 velocity=127 time=0.020833333333333332\n",
      "note_off channel=0 note=60 velocity=127 time=0.019791666666666666\n",
      "note_on channel=0 note=62 velocity=127 time=0.017708333333333333\n",
      "note_on channel=0 note=61 velocity=127 time=0.017708333333333333\n",
      "note_off channel=0 note=62 velocity=127 time=0.0020833333333333333\n",
      "note_off channel=0 note=61 velocity=127 time=0.017708333333333333\n",
      "note_on channel=0 note=62 velocity=127 time=0.04895833333333333\n",
      "note_off channel=0 note=62 velocity=127 time=0.019791666666666666\n",
      "note_on channel=0 note=61 velocity=127 time=0.008333333333333333\n",
      "note_off channel=0 note=61 velocity=127 time=0.019791666666666666\n",
      "note_on channel=0 note=60 velocity=127 time=0.030208333333333334\n",
      "note_on channel=0 note=62 velocity=127 time=0.009375\n",
      "note_off channel=0 note=60 velocity=127 time=0.011458333333333333\n",
      "note_off channel=0 note=62 velocity=127 time=0.009375\n",
      "note_on channel=0 note=61 velocity=127 time=0.017708333333333333\n",
      "note_off channel=0 note=61 velocity=127 time=0.019791666666666666\n",
      "note_on channel=0 note=62 velocity=127 time=0.029166666666666667\n",
      "note_off channel=0 note=62 velocity=127 time=0.019791666666666666\n",
      "note_on channel=0 note=61 velocity=127 time=0.028125\n",
      "note_off channel=0 note=61 velocity=127 time=0.019791666666666666\n",
      "note_on channel=0 note=62 velocity=127 time=0.019791666666666666\n",
      "note_on channel=0 note=60 velocity=127 time=0.019791666666666666\n",
      "note_off channel=0 note=62 velocity=127 time=0\n",
      "note_off channel=0 note=60 velocity=127 time=0.019791666666666666\n",
      "note_on channel=0 note=61 velocity=127 time=0.017708333333333333\n",
      "note_off channel=0 note=61 velocity=127 time=0.019791666666666666\n",
      "note_on channel=0 note=62 velocity=127 time=0.009375\n",
      "note_off channel=0 note=62 velocity=127 time=0.019791666666666666\n",
      "note_on channel=0 note=61 velocity=127 time=0.04791666666666666\n",
      "note_on channel=0 note=62 velocity=127 time=0.019791666666666666\n",
      "note_off channel=0 note=61 velocity=127 time=0\n",
      "note_off channel=0 note=62 velocity=127 time=0.019791666666666666\n",
      "note_on channel=0 note=60 velocity=127 time=0.029166666666666667\n",
      "note_off channel=0 note=60 velocity=127 time=0.019791666666666666\n",
      "note_on channel=0 note=61 velocity=127 time=0.008333333333333333\n",
      "note_on channel=0 note=62 velocity=127 time=0.010416666666666666\n",
      "note_off channel=0 note=61 velocity=127 time=0.010416666666666666\n",
      "note_off channel=0 note=62 velocity=127 time=0.010416666666666666\n",
      "note_on channel=0 note=61 velocity=127 time=0.06666666666666667\n",
      "note_on channel=0 note=62 velocity=127 time=0\n",
      "note_off channel=0 note=61 velocity=127 time=0.019791666666666666\n",
      "note_off channel=0 note=62 velocity=127 time=0\n",
      "note_on channel=0 note=60 velocity=127 time=0.057291666666666664\n",
      "note_on channel=0 note=62 velocity=127 time=0.009375\n",
      "note_on channel=0 note=61 velocity=127 time=0.009375\n",
      "note_off channel=0 note=60 velocity=127 time=0.0010416666666666667\n",
      "note_off channel=0 note=62 velocity=127 time=0.009375\n",
      "note_off channel=0 note=61 velocity=127 time=0.009375\n",
      "note_on channel=0 note=62 velocity=127 time=0.057291666666666664\n",
      "note_on channel=0 note=61 velocity=127 time=0.019791666666666666\n",
      "note_off channel=0 note=62 velocity=127 time=0.0010416666666666667\n",
      "note_off channel=0 note=61 velocity=127 time=0.019791666666666666\n",
      "note_on channel=0 note=62 velocity=127 time=0.04791666666666666\n",
      "note_on channel=0 note=60 velocity=127 time=0.01875\n",
      "note_off channel=0 note=62 velocity=127 time=0.0010416666666666667\n",
      "note_on channel=0 note=61 velocity=127 time=0.009375\n",
      "note_off channel=0 note=60 velocity=127 time=0.010416666666666666\n",
      "note_off channel=0 note=61 velocity=127 time=0.010416666666666666\n",
      "note_on channel=0 note=62 velocity=127 time=0.0375\n",
      "note_off channel=0 note=62 velocity=127 time=0.019791666666666666\n",
      "note_on channel=0 note=61 velocity=127 time=0.01875\n",
      "note_off channel=0 note=61 velocity=127 time=0.019791666666666666\n",
      "note_on channel=0 note=62 velocity=127 time=0.028125\n",
      "note_off channel=0 note=62 velocity=127 time=0.019791666666666666\n",
      "note_on channel=0 note=60 velocity=127 time=0.028125\n",
      "note_on channel=0 note=61 velocity=127 time=0.0010416666666666667\n",
      "note_off channel=0 note=60 velocity=127 time=0.01875\n",
      "note_off channel=0 note=61 velocity=127 time=0.0010416666666666667\n",
      "note_on channel=0 note=62 velocity=127 time=0.01875\n",
      "note_off channel=0 note=62 velocity=127 time=0.019791666666666666\n",
      "note_on channel=0 note=61 velocity=127 time=0.03854166666666667\n",
      "note_off channel=0 note=61 velocity=127 time=0.019791666666666666\n",
      "note_on channel=0 note=62 velocity=127 time=0.008333333333333333\n",
      "note_off channel=0 note=62 velocity=127 time=0.019791666666666666\n",
      "note_on channel=0 note=61 velocity=127 time=0.04895833333333333\n",
      "note_on channel=0 note=60 velocity=127 time=0.008333333333333333\n",
      "note_on channel=0 note=62 velocity=127 time=0.010416666666666666\n",
      "note_off channel=0 note=61 velocity=127 time=0.0010416666666666667\n",
      "note_off channel=0 note=60 velocity=127 time=0.008333333333333333\n",
      "note_off channel=0 note=62 velocity=127 time=0.010416666666666666\n",
      "note_on channel=0 note=61 velocity=127 time=0.058333333333333334\n",
      "note_on channel=0 note=62 velocity=127 time=0.008333333333333333\n",
      "note_off channel=0 note=61 velocity=127 time=0.011458333333333333\n",
      "note_off channel=0 note=62 velocity=127 time=0.008333333333333333\n",
      "note_on channel=0 note=62 velocity=127 time=0.06770833333333333\n",
      "\u001b[91m [DEBUG] > \u001b[0m\n",
      " |>  to_array: msg.time > max_t; t, n\n",
      " |>  2.014583333333333\n",
      " |>  100\n",
      "note_on channel=0 note=61 velocity=127 time=0.022916666666666665\n",
      "note_on channel=0 note=60 velocity=127 time=0.016666666666666666\n",
      "note_off channel=0 note=61 velocity=127 time=0.004166666666666667\n",
      "note_off channel=0 note=60 velocity=127 time=0.016666666666666666\n",
      "note_on channel=0 note=61 velocity=127 time=0.053125\n",
      "note_off channel=0 note=61 velocity=127 time=0.019791666666666666\n",
      "note_on channel=0 note=60 velocity=127 time=0.042708333333333334\n",
      "note_off channel=0 note=60 velocity=127 time=0.019791666666666666\n",
      "note_on channel=0 note=61 velocity=127 time=0.00625\n",
      "note_off channel=0 note=61 velocity=127 time=0.019791666666666666\n",
      "note_on channel=0 note=62 velocity=127 time=0.011458333333333333\n",
      "note_off channel=0 note=62 velocity=127 time=0.019791666666666666\n",
      "note_on channel=0 note=61 velocity=127 time=0.0375\n",
      "note_on channel=0 note=60 velocity=127 time=0.019791666666666666\n",
      "note_off channel=0 note=61 velocity=127 time=0\n",
      "note_off channel=0 note=60 velocity=127 time=0.019791666666666666\n",
      "note_on channel=0 note=61 velocity=127 time=0.04895833333333333\n",
      "note_off channel=0 note=61 velocity=127 time=0.019791666666666666\n",
      "note_on channel=0 note=60 velocity=127 time=0.046875\n",
      "note_off channel=0 note=60 velocity=127 time=0.019791666666666666\n",
      "note_on channel=0 note=61 velocity=127 time=0.003125\n",
      "note_on channel=0 note=62 velocity=127 time=0.0020833333333333333\n",
      "note_off channel=0 note=61 velocity=127 time=0.017708333333333333\n",
      "note_off channel=0 note=62 velocity=127 time=0.0020833333333333333\n",
      "note_on channel=0 note=61 velocity=127 time=0.06770833333333333\n",
      "note_off channel=0 note=61 velocity=127 time=0.019791666666666666\n",
      "note_on channel=0 note=60 velocity=127 time=0.004166666666666667\n",
      "note_off channel=0 note=60 velocity=127 time=0.019791666666666666\n",
      "note_on channel=0 note=61 velocity=127 time=0.04583333333333333\n",
      "note_off channel=0 note=61 velocity=127 time=0.019791666666666666\n",
      "note_on channel=0 note=62 velocity=127 time=0.041666666666666664\n",
      "note_on channel=0 note=60 velocity=127 time=0.008333333333333333\n",
      "note_off channel=0 note=62 velocity=127 time=0.011458333333333333\n",
      "note_on channel=0 note=61 velocity=127 time=0.007291666666666667\n",
      "note_off channel=0 note=60 velocity=127 time=0.0010416666666666667\n",
      "note_off channel=0 note=61 velocity=127 time=0.01875\n",
      "note_on channel=0 note=61 velocity=127 time=0.06979166666666667\n",
      "note_off channel=0 note=61 velocity=127 time=0.019791666666666666\n",
      "note_on channel=0 note=60 velocity=127 time=0.007291666666666667\n",
      "note_off channel=0 note=60 velocity=127 time=0.019791666666666666\n",
      "note_on channel=0 note=61 velocity=127 time=0.041666666666666664\n",
      "note_off channel=0 note=61 velocity=127 time=0.019791666666666666\n",
      "note_on channel=0 note=62 velocity=127 time=0.0125\n",
      "note_off channel=0 note=62 velocity=127 time=0.019791666666666666\n",
      "note_on channel=0 note=60 velocity=127 time=0.021875\n",
      "note_on channel=0 note=61 velocity=127 time=0.015625\n",
      "note_off channel=0 note=60 velocity=127 time=0.004166666666666667\n",
      "note_off channel=0 note=61 velocity=127 time=0.015625\n",
      "note_on channel=0 note=61 velocity=127 time=0.06979166666666667\n",
      "note_off channel=0 note=61 velocity=127 time=0.019791666666666666\n",
      "note_on channel=0 note=60 velocity=127 time=0.011458333333333333\n",
      "note_off channel=0 note=60 velocity=127 time=0.019791666666666666\n",
      "note_on channel=0 note=61 velocity=127 time=0.03854166666666667\n",
      "note_on channel=0 note=62 velocity=127 time=0.003125\n",
      "note_off channel=0 note=61 velocity=127 time=0.016666666666666666\n",
      "note_off channel=0 note=62 velocity=127 time=0.003125\n",
      "note_on channel=0 note=60 velocity=127 time=0.05416666666666667\n",
      "note_on channel=0 note=61 velocity=127 time=0.011458333333333333\n",
      "note_off channel=0 note=60 velocity=127 time=0.008333333333333333\n",
      "note_off channel=0 note=61 velocity=127 time=0.011458333333333333\n",
      "note_on channel=0 note=61 velocity=127 time=0.06979166666666667\n",
      "note_off channel=0 note=61 velocity=127 time=0.019791666666666666\n",
      "note_on channel=0 note=60 velocity=127 time=0.014583333333333334\n",
      "note_off channel=0 note=60 velocity=127 time=0.019791666666666666\n",
      "note_on channel=0 note=62 velocity=127 time=0.008333333333333333\n",
      "note_off channel=0 note=62 velocity=127 time=0.019791666666666666\n",
      "note_on channel=0 note=61 velocity=127 time=0.00625\n",
      "note_off channel=0 note=61 velocity=127 time=0.019791666666666666\n",
      "note_on channel=0 note=60 velocity=127 time=0.06145833333333333\n",
      "note_on channel=0 note=61 velocity=127 time=0.008333333333333333\n",
      "note_off channel=0 note=60 velocity=127 time=0.011458333333333333\n",
      "note_off channel=0 note=61 velocity=127 time=0.008333333333333333\n",
      "note_on channel=0 note=61 velocity=127 time=0.06979166666666667\n",
      "note_off channel=0 note=61 velocity=127 time=0.019791666666666666\n",
      "note_on channel=0 note=62 velocity=127 time=0.013541666666666667\n",
      "note_on channel=0 note=60 velocity=127 time=0.005208333333333333\n",
      "note_off channel=0 note=62 velocity=127 time=0.014583333333333334\n",
      "note_off channel=0 note=60 velocity=127 time=0.005208333333333333\n",
      "note_on channel=0 note=61 velocity=127 time=0.03125\n",
      "note_off channel=0 note=61 velocity=127 time=0.019791666666666666\n",
      "note_on channel=0 note=60 velocity=127 time=0.06458333333333333\n",
      "note_on channel=0 note=61 velocity=127 time=0.004166666666666667\n",
      "note_off channel=0 note=60 velocity=127 time=0.015625\n",
      "note_off channel=0 note=61 velocity=127 time=0.004166666666666667\n",
      "note_on channel=0 note=61 velocity=127 time=0.06979166666666667\n",
      "note_on channel=0 note=62 velocity=127 time=0.003125\n",
      "note_off channel=0 note=61 velocity=127 time=0.016666666666666666\n",
      "note_off channel=0 note=62 velocity=127 time=0.003125\n",
      "note_on channel=0 note=60 velocity=127 time=0.01875\n",
      "note_off channel=0 note=60 velocity=127 time=0.019791666666666666\n",
      "note_on channel=0 note=61 velocity=127 time=0.027083333333333334\n",
      "note_off channel=0 note=61 velocity=127 time=0.019791666666666666\n",
      "\u001b[91m [DEBUG] > \u001b[0m\n",
      " |>  to_array: msg.time > max_t; t, n\n",
      " |>  2.005208333333333\n",
      " |>  100\n",
      "note_on channel=0 note=60 velocity=127 time=0.04583333333333333\n",
      "note_off channel=0 note=60 velocity=127 time=0.019791666666666666\n",
      "note_on channel=0 note=62 velocity=127 time=0.051041666666666666\n",
      "note_on channel=0 note=61 velocity=127 time=0.015625\n",
      "note_off channel=0 note=62 velocity=127 time=0.004166666666666667\n",
      "note_off channel=0 note=61 velocity=127 time=0.015625\n",
      "note_on channel=0 note=60 velocity=127 time=0.08333333333333333\n",
      "note_on channel=0 note=62 velocity=127 time=0.0010416666666666667\n",
      "note_off channel=0 note=60 velocity=127 time=0.01875\n",
      "note_off channel=0 note=62 velocity=127 time=0.0010416666666666667\n",
      "note_on channel=0 note=61 velocity=127 time=0.09895833333333333\n",
      "note_on channel=0 note=62 velocity=127 time=0.0010416666666666667\n",
      "note_off channel=0 note=61 velocity=127 time=0.01875\n",
      "note_off channel=0 note=62 velocity=127 time=0.0010416666666666667\n",
      "note_on channel=0 note=60 velocity=127 time=0.04895833333333333\n",
      "note_off channel=0 note=60 velocity=127 time=0.019791666666666666\n",
      "note_on channel=0 note=62 velocity=127 time=0.03125\n",
      "note_off channel=0 note=62 velocity=127 time=0.019791666666666666\n",
      "note_on channel=0 note=61 velocity=127 time=0.08333333333333333\n",
      "note_on channel=0 note=62 velocity=127 time=0.016666666666666666\n",
      "note_off channel=0 note=61 velocity=127 time=0.003125\n",
      "note_on channel=0 note=60 velocity=127 time=0.015625\n",
      "note_off channel=0 note=62 velocity=127 time=0.0010416666666666667\n",
      "note_off channel=0 note=60 velocity=127 time=0.01875\n",
      "note_on channel=0 note=62 velocity=127 time=0.08020833333333333\n",
      "note_off channel=0 note=62 velocity=127 time=0.019791666666666666\n",
      "note_on channel=0 note=61 velocity=127 time=0.06666666666666667\n",
      "note_on channel=0 note=60 velocity=127 time=0.0020833333333333333\n",
      "note_off channel=0 note=61 velocity=127 time=0.017708333333333333\n",
      "note_off channel=0 note=60 velocity=127 time=0.0020833333333333333\n",
      "note_on channel=0 note=62 velocity=127 time=0.010416666666666666\n",
      "note_off channel=0 note=62 velocity=127 time=0.019791666666666666\n",
      "note_on channel=0 note=62 velocity=127 time=0.1\n",
      "note_off channel=0 note=62 velocity=127 time=0.019791666666666666\n",
      "note_on channel=0 note=60 velocity=127 time=0.01875\n",
      "note_off channel=0 note=60 velocity=127 time=0.019791666666666666\n",
      "note_on channel=0 note=61 velocity=127 time=0.011458333333333333\n",
      "note_off channel=0 note=61 velocity=127 time=0.019791666666666666\n",
      "note_on channel=0 note=62 velocity=127 time=0.029166666666666667\n",
      "note_off channel=0 note=62 velocity=127 time=0.019791666666666666\n",
      "note_on channel=0 note=60 velocity=127 time=0.08854166666666667\n",
      "note_on channel=0 note=62 velocity=127 time=0.011458333333333333\n",
      "note_off channel=0 note=60 velocity=127 time=0.009375\n",
      "note_off channel=0 note=62 velocity=127 time=0.011458333333333333\n",
      "note_on channel=0 note=61 velocity=127 time=0.034375\n",
      "note_off channel=0 note=61 velocity=127 time=0.019791666666666666\n",
      "note_on channel=0 note=62 velocity=127 time=0.04479166666666667\n",
      "note_off channel=0 note=62 velocity=127 time=0.019791666666666666\n",
      "note_on channel=0 note=60 velocity=127 time=0.03854166666666667\n",
      "note_off channel=0 note=60 velocity=127 time=0.019791666666666666\n",
      "note_on channel=0 note=62 velocity=127 time=0.040625\n",
      "note_off channel=0 note=62 velocity=127 time=0.019791666666666666\n",
      "note_on channel=0 note=61 velocity=127 time=0.01875\n",
      "note_off channel=0 note=61 velocity=127 time=0.019791666666666666\n",
      "note_on channel=0 note=62 velocity=127 time=0.06145833333333333\n",
      "note_on channel=0 note=60 velocity=127 time=0.009375\n",
      "note_off channel=0 note=62 velocity=127 time=0.011458333333333333\n",
      "note_off channel=0 note=60 velocity=127 time=0.009375\n",
      "note_on channel=0 note=62 velocity=127 time=0.090625\n",
      "note_off channel=0 note=62 velocity=127 time=0.019791666666666666\n",
      "note_on channel=0 note=61 velocity=127 time=0.0020833333333333333\n",
      "note_off channel=0 note=61 velocity=127 time=0.019791666666666666\n",
      "note_on channel=0 note=60 velocity=127 time=0.036458333333333336\n",
      "note_off channel=0 note=60 velocity=127 time=0.019791666666666666\n",
      "note_on channel=0 note=62 velocity=127 time=0.020833333333333332\n",
      "note_off channel=0 note=62 velocity=127 time=0.019791666666666666\n",
      "note_on channel=0 note=62 velocity=127 time=0.1\n",
      "note_on channel=0 note=61 velocity=127 time=0.00625\n",
      "note_off channel=0 note=62 velocity=127 time=0.013541666666666667\n",
      "note_off channel=0 note=61 velocity=127 time=0.00625\n",
      "note_on channel=0 note=60 velocity=127 time=0.0020833333333333333\n",
      "note_off channel=0 note=60 velocity=127 time=0.019791666666666666\n",
      "note_on channel=0 note=62 velocity=127 time=0.07083333333333333\n",
      "\u001b[91m [DEBUG] > \u001b[0m\n",
      " |>  to_array: msg.time > max_t; t, n\n",
      " |>  2.0281249999999997\n",
      " |>  100\n",
      "note_on channel=0 note=60 velocity=127 time=0.004166666666666667\n",
      "note_off channel=0 note=60 velocity=127 time=0.019791666666666666\n",
      "note_on channel=0 note=61 velocity=127 time=0.051041666666666666\n",
      "note_on channel=0 note=60 velocity=127 time=0.007291666666666667\n",
      "note_on channel=0 note=62 velocity=127 time=0.008333333333333333\n",
      "note_off channel=0 note=61 velocity=127 time=0.005208333333333333\n",
      "note_off channel=0 note=60 velocity=127 time=0.007291666666666667\n",
      "note_off channel=0 note=62 velocity=127 time=0.008333333333333333\n",
      "note_on channel=0 note=60 velocity=127 time=0.05\n",
      "note_on channel=0 note=61 velocity=127 time=0.0020833333333333333\n",
      "note_off channel=0 note=60 velocity=127 time=0.017708333333333333\n",
      "note_off channel=0 note=61 velocity=127 time=0.0020833333333333333\n",
      "note_on channel=0 note=62 velocity=127 time=0.022916666666666665\n",
      "note_off channel=0 note=62 velocity=127 time=0.019791666666666666\n",
      "note_on channel=0 note=60 velocity=127 time=0.0125\n",
      "note_on channel=0 note=61 velocity=127 time=0.011458333333333333\n",
      "note_off channel=0 note=60 velocity=127 time=0.008333333333333333\n",
      "note_off channel=0 note=61 velocity=127 time=0.011458333333333333\n",
      "note_on channel=0 note=60 velocity=127 time=0.046875\n",
      "note_on channel=0 note=62 velocity=127 time=0.004166666666666667\n",
      "note_off channel=0 note=60 velocity=127 time=0.015625\n",
      "note_on channel=0 note=61 velocity=127 time=0\n",
      "note_off channel=0 note=62 velocity=127 time=0.003125\n",
      "note_off channel=0 note=61 velocity=127 time=0.016666666666666666\n",
      "note_on channel=0 note=60 velocity=127 time=0.0375\n",
      "note_off channel=0 note=60 velocity=127 time=0.019791666666666666\n",
      "note_on channel=0 note=61 velocity=127 time=0.009375\n",
      "note_on channel=0 note=62 velocity=127 time=0.011458333333333333\n",
      "note_off channel=0 note=61 velocity=127 time=0.008333333333333333\n",
      "note_off channel=0 note=62 velocity=127 time=0.011458333333333333\n",
      "note_on channel=0 note=60 velocity=127 time=0.017708333333333333\n",
      "note_off channel=0 note=60 velocity=127 time=0.019791666666666666\n",
      "note_on channel=0 note=61 velocity=127 time=0.01875\n",
      "note_off channel=0 note=61 velocity=127 time=0.019791666666666666\n",
      "note_on channel=0 note=62 velocity=127 time=0.01875\n",
      "note_on channel=0 note=60 velocity=127 time=0\n",
      "note_off channel=0 note=62 velocity=127 time=0.019791666666666666\n",
      "note_off channel=0 note=60 velocity=127 time=0\n",
      "note_on channel=0 note=61 velocity=127 time=0.028125\n",
      "note_off channel=0 note=61 velocity=127 time=0.019791666666666666\n",
      "note_on channel=0 note=60 velocity=127 time=0.010416666666666666\n",
      "note_off channel=0 note=60 velocity=127 time=0.019791666666666666\n",
      "note_on channel=0 note=62 velocity=127 time=0.016666666666666666\n",
      "note_off channel=0 note=62 velocity=127 time=0.019791666666666666\n",
      "note_on channel=0 note=61 velocity=127 time=0\n",
      "note_off channel=0 note=61 velocity=127 time=0.019791666666666666\n",
      "note_on channel=0 note=60 velocity=127 time=0.0010416666666666667\n",
      "note_off channel=0 note=60 velocity=127 time=0.019791666666666666\n",
      "note_on channel=0 note=61 velocity=127 time=0.04583333333333333\n",
      "note_on channel=0 note=62 velocity=127 time=0.007291666666666667\n",
      "note_on channel=0 note=60 velocity=127 time=0.005208333333333333\n",
      "note_off channel=0 note=61 velocity=127 time=0.008333333333333333\n",
      "note_off channel=0 note=62 velocity=127 time=0.007291666666666667\n",
      "note_off channel=0 note=60 velocity=127 time=0.005208333333333333\n",
      "note_on channel=0 note=61 velocity=127 time=0.05520833333333333\n",
      "note_on channel=0 note=60 velocity=127 time=0.003125\n",
      "note_off channel=0 note=61 velocity=127 time=0.016666666666666666\n",
      "note_off channel=0 note=60 velocity=127 time=0.003125\n",
      "note_on channel=0 note=62 velocity=127 time=0.0125\n",
      "note_off channel=0 note=62 velocity=127 time=0.019791666666666666\n",
      "note_on channel=0 note=60 velocity=127 time=0.026041666666666668\n",
      "note_on channel=0 note=61 velocity=127 time=0.00625\n",
      "note_off channel=0 note=60 velocity=127 time=0.013541666666666667\n",
      "note_off channel=0 note=61 velocity=127 time=0.00625\n",
      "note_on channel=0 note=62 velocity=127 time=0.042708333333333334\n",
      "note_on channel=0 note=60 velocity=127 time=0.009375\n",
      "note_off channel=0 note=62 velocity=127 time=0.010416666666666666\n",
      "note_on channel=0 note=61 velocity=127 time=0.004166666666666667\n",
      "note_off channel=0 note=60 velocity=127 time=0.004166666666666667\n",
      "note_off channel=0 note=61 velocity=127 time=0.015625\n",
      "note_on channel=0 note=60 velocity=127 time=0.042708333333333334\n",
      "note_off channel=0 note=60 velocity=127 time=0.019791666666666666\n",
      "note_on channel=0 note=61 velocity=127 time=0.004166666666666667\n",
      "note_on channel=0 note=62 velocity=127 time=0.003125\n",
      "note_off channel=0 note=61 velocity=127 time=0.016666666666666666\n"
     ]
    },
    {
     "name": "stdout",
     "output_type": "stream",
     "text": [
      "note_off channel=0 note=62 velocity=127 time=0.003125\n",
      "note_on channel=0 note=60 velocity=127 time=0.030208333333333334\n",
      "note_off channel=0 note=60 velocity=127 time=0.019791666666666666\n",
      "note_on channel=0 note=61 velocity=127 time=0.013541666666666667\n",
      "note_off channel=0 note=61 velocity=127 time=0.019791666666666666\n",
      "note_on channel=0 note=62 velocity=127 time=0.011458333333333333\n",
      "note_on channel=0 note=60 velocity=127 time=0.013541666666666667\n",
      "note_off channel=0 note=62 velocity=127 time=0.00625\n",
      "note_off channel=0 note=60 velocity=127 time=0.013541666666666667\n",
      "note_on channel=0 note=61 velocity=127 time=0.022916666666666665\n",
      "note_off channel=0 note=61 velocity=127 time=0.019791666666666666\n",
      "note_on channel=0 note=60 velocity=127 time=0.015625\n",
      "note_off channel=0 note=60 velocity=127 time=0.019791666666666666\n",
      "note_on channel=0 note=62 velocity=127 time=0.003125\n",
      "note_off channel=0 note=62 velocity=127 time=0.019791666666666666\n",
      "note_on channel=0 note=61 velocity=127 time=0.008333333333333333\n",
      "note_off channel=0 note=61 velocity=127 time=0.019791666666666666\n",
      "note_on channel=0 note=60 velocity=127 time=0.00625\n",
      "note_off channel=0 note=60 velocity=127 time=0.019791666666666666\n",
      "note_on channel=0 note=62 velocity=127 time=0.040625\n",
      "note_on channel=0 note=61 velocity=127 time=0.0010416666666666667\n",
      "note_on channel=0 note=60 velocity=127 time=0.017708333333333333\n",
      "note_off channel=0 note=62 velocity=127 time=0.0020833333333333333\n",
      "note_off channel=0 note=61 velocity=127 time=0.0010416666666666667\n",
      "note_off channel=0 note=60 velocity=127 time=0.017708333333333333\n",
      "note_on channel=0 note=61 velocity=127 time=0.05\n",
      "note_on channel=0 note=60 velocity=127 time=0.008333333333333333\n",
      "note_off channel=0 note=61 velocity=127 time=0.011458333333333333\n",
      "note_on channel=0 note=62 velocity=127 time=0.007291666666666667\n",
      "note_off channel=0 note=60 velocity=127 time=0.0010416666666666667\n",
      "note_off channel=0 note=62 velocity=127 time=0.01875\n",
      "note_on channel=0 note=60 velocity=127 time=0.03958333333333333\n",
      "note_on channel=0 note=61 velocity=127 time=0.0010416666666666667\n",
      "note_off channel=0 note=60 velocity=127 time=0.01875\n",
      "note_off channel=0 note=61 velocity=127 time=0.0010416666666666667\n",
      "note_on channel=0 note=62 velocity=127 time=0.034375\n",
      "note_off channel=0 note=62 velocity=127 time=0.019791666666666666\n",
      "note_on channel=0 note=60 velocity=127 time=0.0020833333333333333\n",
      "note_on channel=0 note=61 velocity=127 time=0.010416666666666666\n",
      "note_off channel=0 note=60 velocity=127 time=0.009375\n",
      "note_off channel=0 note=61 velocity=127 time=0.010416666666666666\n",
      "note_on channel=0 note=60 velocity=127 time=0.04791666666666666\n",
      "note_on channel=0 note=62 velocity=127 time=0.014583333333333334\n",
      "note_on channel=0 note=61 velocity=127 time=0.005208333333333333\n",
      "note_off channel=0 note=60 velocity=127 time=0.0010416666666666667\n",
      "note_off channel=0 note=62 velocity=127 time=0.014583333333333334\n",
      "note_off channel=0 note=61 velocity=127 time=0.005208333333333333\n",
      "note_on channel=0 note=60 velocity=127 time=0.03854166666666667\n",
      "note_off channel=0 note=60 velocity=127 time=0.019791666666666666\n",
      "note_on channel=0 note=61 velocity=127 time=0.008333333333333333\n",
      "note_off channel=0 note=61 velocity=127 time=0.019791666666666666\n",
      "note_on channel=0 note=62 velocity=127 time=0.003125\n",
      "note_off channel=0 note=62 velocity=127 time=0.019791666666666666\n",
      "note_on channel=0 note=60 velocity=127 time=0.00625\n",
      "note_off channel=0 note=60 velocity=127 time=0.019791666666666666\n",
      "note_on channel=0 note=61 velocity=127 time=0.017708333333333333\n",
      "\u001b[91m [DEBUG] > \u001b[0m\n",
      " |>  to_array: msg.time > max_t; t, n\n",
      " |>  1.990625\n",
      " |>  100\n",
      "note_on channel=0 note=62 velocity=127 time=0.03229166666666666\n",
      "note_off channel=0 note=62 velocity=127 time=0.019791666666666666\n",
      "note_on channel=0 note=60 velocity=127 time=0.0020833333333333333\n",
      "note_off channel=0 note=60 velocity=127 time=0.019791666666666666\n",
      "note_on channel=0 note=61 velocity=127 time=0.027083333333333334\n",
      "note_off channel=0 note=61 velocity=127 time=0.019791666666666666\n",
      "note_on channel=0 note=61 velocity=127 time=0.09166666666666666\n",
      "note_on channel=0 note=60 velocity=127 time=0.01875\n",
      "note_off channel=0 note=61 velocity=127 time=0.0020833333333333333\n",
      "note_on channel=0 note=62 velocity=127 time=0.00625\n",
      "note_off channel=0 note=60 velocity=127 time=0.0125\n",
      "note_off channel=0 note=62 velocity=127 time=0.008333333333333333\n",
      "note_on channel=0 note=61 velocity=127 time=0.065625\n",
      "note_off channel=0 note=61 velocity=127 time=0.019791666666666666\n",
      "note_on channel=0 note=60 velocity=127 time=0.06354166666666666\n",
      "note_off channel=0 note=60 velocity=127 time=0.019791666666666666\n",
      "note_on channel=0 note=61 velocity=127 time=0.008333333333333333\n",
      "note_on channel=0 note=62 velocity=127 time=0.009375\n",
      "note_off channel=0 note=61 velocity=127 time=0.010416666666666666\n",
      "note_off channel=0 note=62 velocity=127 time=0.009375\n",
      "note_on channel=0 note=61 velocity=127 time=0.08229166666666667\n",
      "note_off channel=0 note=61 velocity=127 time=0.019791666666666666\n",
      "note_on channel=0 note=60 velocity=127 time=0.017708333333333333\n",
      "note_off channel=0 note=60 velocity=127 time=0.019791666666666666\n",
      "note_on channel=0 note=62 velocity=127 time=0.046875\n",
      "note_on channel=0 note=61 velocity=127 time=0.007291666666666667\n",
      "note_off channel=0 note=62 velocity=127 time=0.0125\n",
      "note_off channel=0 note=61 velocity=127 time=0.007291666666666667\n",
      "note_on channel=0 note=60 velocity=127 time=0.08229166666666667\n",
      "note_on channel=0 note=61 velocity=127 time=0.009375\n",
      "note_off channel=0 note=60 velocity=127 time=0.010416666666666666\n",
      "note_off channel=0 note=61 velocity=127 time=0.009375\n",
      "note_on channel=0 note=62 velocity=127 time=0.06770833333333333\n",
      "note_off channel=0 note=62 velocity=127 time=0.019791666666666666\n",
      "note_on channel=0 note=61 velocity=127 time=0.005208333333333333\n",
      "note_off channel=0 note=61 velocity=127 time=0.019791666666666666\n",
      "note_on channel=0 note=60 velocity=127 time=0.036458333333333336\n",
      "note_off channel=0 note=60 velocity=127 time=0.019791666666666666\n",
      "note_on channel=0 note=61 velocity=127 time=0.036458333333333336\n",
      "note_off channel=0 note=61 velocity=127 time=0.019791666666666666\n",
      "note_on channel=0 note=62 velocity=127 time=0.05\n",
      "note_off channel=0 note=62 velocity=127 time=0.019791666666666666\n",
      "note_on channel=0 note=61 velocity=127 time=0.021875\n",
      "note_on channel=0 note=60 velocity=127 time=0.009375\n",
      "note_off channel=0 note=61 velocity=127 time=0.010416666666666666\n",
      "note_off channel=0 note=60 velocity=127 time=0.009375\n",
      "note_on channel=0 note=61 velocity=127 time=0.08229166666666667\n",
      "note_off channel=0 note=61 velocity=127 time=0.019791666666666666\n",
      "note_on channel=0 note=62 velocity=127 time=0.03333333333333333\n",
      "note_off channel=0 note=62 velocity=127 time=0.019791666666666666\n",
      "note_on channel=0 note=60 velocity=127 time=0.0020833333333333333\n",
      "note_off channel=0 note=60 velocity=127 time=0.019791666666666666\n",
      "note_on channel=0 note=61 velocity=127 time=0.016666666666666666\n",
      "note_off channel=0 note=61 velocity=127 time=0.019791666666666666\n",
      "note_on channel=0 note=61 velocity=127 time=0.09166666666666666\n",
      "note_off channel=0 note=61 velocity=127 time=0.019791666666666666\n",
      "note_on channel=0 note=60 velocity=127 time=0.008333333333333333\n",
      "note_on channel=0 note=62 velocity=127 time=0.008333333333333333\n",
      "note_off channel=0 note=60 velocity=127 time=0.0125\n",
      "note_off channel=0 note=62 velocity=127 time=0.008333333333333333\n",
      "note_on channel=0 note=61 velocity=127 time=0.05625\n",
      "note_off channel=0 note=61 velocity=127 time=0.019791666666666666\n",
      "note_on channel=0 note=60 velocity=127 time=0.07395833333333333\n",
      "note_on channel=0 note=61 velocity=127 time=0.01875\n",
      "note_off channel=0 note=60 velocity=127 time=0.0020833333333333333\n",
      "note_on channel=0 note=62 velocity=127 time=0.017708333333333333\n",
      "note_off channel=0 note=61 velocity=127 time=0.0010416666666666667\n",
      "note_off channel=0 note=62 velocity=127 time=0.019791666666666666\n",
      "note_on channel=0 note=61 velocity=127 time=0.07291666666666667\n",
      "note_off channel=0 note=61 velocity=127 time=0.019791666666666666\n",
      "note_on channel=0 note=60 velocity=127 time=0.027083333333333334\n",
      "note_off channel=0 note=60 velocity=127 time=0.019791666666666666\n",
      "note_on channel=0 note=61 velocity=127 time=0.04479166666666667\n",
      "note_on channel=0 note=62 velocity=127 time=0.0020833333333333333\n",
      "note_off channel=0 note=61 velocity=127 time=0.017708333333333333\n",
      "note_off channel=0 note=62 velocity=127 time=0.0020833333333333333\n",
      "note_on channel=0 note=61 velocity=127 time=0.08958333333333333\n",
      "\u001b[91m [DEBUG] > \u001b[0m\n",
      " |>  to_array: msg.time > max_t; t, n\n",
      " |>  2.0052083333333335\n",
      " |>  100\n",
      "note_on channel=0 note=62 velocity=127 time=0.026041666666666668\n",
      "note_on channel=0 note=60 velocity=127 time=0.0020833333333333333\n",
      "note_on channel=0 note=61 velocity=127 time=0.0010416666666666667\n",
      "note_off channel=0 note=62 velocity=127 time=0.016666666666666666\n",
      "note_off channel=0 note=60 velocity=127 time=0.0020833333333333333\n",
      "note_off channel=0 note=61 velocity=127 time=0.0010416666666666667\n",
      "note_on channel=0 note=60 velocity=127 time=0.046875\n",
      "note_on channel=0 note=61 velocity=127 time=0.0125\n",
      "note_off channel=0 note=60 velocity=127 time=0.007291666666666667\n",
      "note_off channel=0 note=61 velocity=127 time=0.0125\n",
      "note_on channel=0 note=60 velocity=127 time=0.035416666666666666\n",
      "note_off channel=0 note=60 velocity=127 time=0.019791666666666666\n",
      "note_on channel=0 note=61 velocity=127 time=0.005208333333333333\n",
      "note_off channel=0 note=61 velocity=127 time=0.019791666666666666\n",
      "note_on channel=0 note=60 velocity=127 time=0.022916666666666665\n",
      "note_off channel=0 note=60 velocity=127 time=0.019791666666666666\n",
      "note_on channel=0 note=62 velocity=127 time=0.003125\n",
      "note_on channel=0 note=61 velocity=127 time=0.014583333333333334\n",
      "note_off channel=0 note=62 velocity=127 time=0.005208333333333333\n",
      "note_off channel=0 note=61 velocity=127 time=0.014583333333333334\n",
      "note_on channel=0 note=60 velocity=127 time=0.010416666666666666\n",
      "note_off channel=0 note=60 velocity=127 time=0.019791666666666666\n",
      "note_on channel=0 note=61 velocity=127 time=0.030208333333333334\n",
      "note_on channel=0 note=60 velocity=127 time=0.017708333333333333\n",
      "note_off channel=0 note=61 velocity=127 time=0.0020833333333333333\n",
      "note_off channel=0 note=60 velocity=127 time=0.017708333333333333\n",
      "note_on channel=0 note=61 velocity=127 time=0.041666666666666664\n",
      "note_on channel=0 note=60 velocity=127 time=0.00625\n",
      "note_off channel=0 note=61 velocity=127 time=0.013541666666666667\n",
      "note_off channel=0 note=60 velocity=127 time=0.00625\n",
      "note_on channel=0 note=62 velocity=127 time=0.029166666666666667\n",
      "note_on channel=0 note=60 velocity=127 time=0.019791666666666666\n",
      "note_off channel=0 note=62 velocity=127 time=0.0010416666666666667\n",
      "note_on channel=0 note=61 velocity=127 time=0.005208333333333333\n",
      "note_off channel=0 note=60 velocity=127 time=0.013541666666666667\n",
      "note_off channel=0 note=61 velocity=127 time=0.00625\n",
      "note_on channel=0 note=60 velocity=127 time=0.041666666666666664\n",
      "note_on channel=0 note=61 velocity=127 time=0.01875\n",
      "note_off channel=0 note=60 velocity=127 time=0.0010416666666666667\n",
      "note_off channel=0 note=61 velocity=127 time=0.01875\n",
      "note_on channel=0 note=60 velocity=127 time=0.029166666666666667\n",
      "note_off channel=0 note=60 velocity=127 time=0.019791666666666666\n",
      "note_on channel=0 note=61 velocity=127 time=0.010416666666666666\n",
      "note_off channel=0 note=61 velocity=127 time=0.019791666666666666\n",
      "note_on channel=0 note=60 velocity=127 time=0.017708333333333333\n",
      "note_on channel=0 note=62 velocity=127 time=0.00625\n",
      "note_off channel=0 note=60 velocity=127 time=0.013541666666666667\n",
      "note_off channel=0 note=62 velocity=127 time=0.00625\n",
      "note_on channel=0 note=61 velocity=127 time=0.016666666666666666\n",
      "note_off channel=0 note=61 velocity=127 time=0.019791666666666666\n",
      "note_on channel=0 note=60 velocity=127 time=0.005208333333333333\n",
      "note_off channel=0 note=60 velocity=127 time=0.019791666666666666\n",
      "note_on channel=0 note=61 velocity=127 time=0.035416666666666666\n",
      "note_on channel=0 note=60 velocity=127 time=0.0125\n",
      "note_off channel=0 note=61 velocity=127 time=0.007291666666666667\n",
      "note_off channel=0 note=60 velocity=127 time=0.0125\n",
      "note_on channel=0 note=61 velocity=127 time=0.04791666666666666\n",
      "note_on channel=0 note=60 velocity=127 time=0\n",
      "note_off channel=0 note=61 velocity=127 time=0.019791666666666666\n",
      "note_off channel=0 note=60 velocity=127 time=0\n",
      "note_on channel=0 note=62 velocity=127 time=0.011458333333333333\n",
      "note_off channel=0 note=62 velocity=127 time=0.019791666666666666\n",
      "note_on channel=0 note=60 velocity=127 time=0.015625\n",
      "note_on channel=0 note=61 velocity=127 time=0.011458333333333333\n",
      "note_off channel=0 note=60 velocity=127 time=0.008333333333333333\n",
      "note_off channel=0 note=61 velocity=127 time=0.011458333333333333\n",
      "note_on channel=0 note=60 velocity=127 time=0.036458333333333336\n",
      "note_off channel=0 note=60 velocity=127 time=0.019791666666666666\n",
      "note_on channel=0 note=61 velocity=127 time=0.004166666666666667\n",
      "note_off channel=0 note=61 velocity=127 time=0.019791666666666666\n",
      "note_on channel=0 note=60 velocity=127 time=0.02395833333333333\n",
      "note_off channel=0 note=60 velocity=127 time=0.019791666666666666\n",
      "note_on channel=0 note=61 velocity=127 time=0.016666666666666666\n",
      "note_off channel=0 note=61 velocity=127 time=0.019791666666666666\n",
      "note_on channel=0 note=62 velocity=127 time=0.0010416666666666667\n",
      "note_on channel=0 note=60 velocity=127 time=0.010416666666666666\n",
      "note_off channel=0 note=62 velocity=127 time=0.009375\n",
      "note_off channel=0 note=60 velocity=127 time=0.010416666666666666\n",
      "note_on channel=0 note=61 velocity=127 time=0.029166666666666667\n",
      "note_on channel=0 note=60 velocity=127 time=0.019791666666666666\n",
      "note_off channel=0 note=61 velocity=127 time=0.0010416666666666667\n",
      "note_off channel=0 note=60 velocity=127 time=0.019791666666666666\n",
      "note_on channel=0 note=61 velocity=127 time=0.040625\n",
      "note_on channel=0 note=60 velocity=127 time=0.007291666666666667\n",
      "note_off channel=0 note=61 velocity=127 time=0.0125\n",
      "note_off channel=0 note=60 velocity=127 time=0.007291666666666667\n",
      "note_on channel=0 note=60 velocity=127 time=0.04791666666666666\n",
      "note_on channel=0 note=61 velocity=127 time=0.005208333333333333\n",
      "note_on channel=0 note=62 velocity=127 time=0.010416666666666666\n",
      "note_off channel=0 note=60 velocity=127 time=0.005208333333333333\n",
      "note_off channel=0 note=61 velocity=127 time=0.005208333333333333\n",
      "note_off channel=0 note=62 velocity=127 time=0.010416666666666666\n",
      "note_on channel=0 note=60 velocity=127 time=0.03333333333333333\n",
      "note_on channel=0 note=61 velocity=127 time=0.017708333333333333\n",
      "note_off channel=0 note=60 velocity=127 time=0.0020833333333333333\n",
      "note_off channel=0 note=61 velocity=127 time=0.017708333333333333\n",
      "note_on channel=0 note=60 velocity=127 time=0.030208333333333334\n",
      "note_off channel=0 note=60 velocity=127 time=0.019791666666666666\n",
      "note_on channel=0 note=61 velocity=127 time=0.009375\n",
      "note_off channel=0 note=61 velocity=127 time=0.019791666666666666\n",
      "note_on channel=0 note=60 velocity=127 time=0.01875\n",
      "note_off channel=0 note=60 velocity=127 time=0.019791666666666666\n",
      "note_on channel=0 note=62 velocity=127 time=0.020833333333333332\n",
      "note_on channel=0 note=61 velocity=127 time=0.0010416666666666667\n",
      "note_off channel=0 note=62 velocity=127 time=0.01875\n",
      "note_off channel=0 note=61 velocity=127 time=0.0010416666666666667\n",
      "note_on channel=0 note=60 velocity=127 time=0.00625\n",
      "note_off channel=0 note=60 velocity=127 time=0.019791666666666666\n",
      "note_on channel=0 note=61 velocity=127 time=0.034375\n",
      "note_on channel=0 note=60 velocity=127 time=0.013541666666666667\n",
      "note_off channel=0 note=61 velocity=127 time=0.00625\n",
      "note_off channel=0 note=60 velocity=127 time=0.013541666666666667\n",
      "note_on channel=0 note=61 velocity=127 time=0.046875\n",
      "note_on channel=0 note=60 velocity=127 time=0.0010416666666666667\n",
      "note_off channel=0 note=61 velocity=127 time=0.01875\n",
      "note_off channel=0 note=60 velocity=127 time=0.0010416666666666667\n",
      "note_on channel=0 note=62 velocity=127 time=0.046875\n",
      "note_on channel=0 note=60 velocity=127 time=0.0010416666666666667\n",
      "note_on channel=0 note=61 velocity=127 time=0.010416666666666666\n",
      "note_off channel=0 note=62 velocity=127 time=0.007291666666666667\n",
      "note_off channel=0 note=60 velocity=127 time=0.0010416666666666667\n",
      "note_off channel=0 note=61 velocity=127 time=0.010416666666666666\n",
      "note_on channel=0 note=60 velocity=127 time=0.0375\n",
      "note_off channel=0 note=60 velocity=127 time=0.019791666666666666\n",
      "note_on channel=0 note=61 velocity=127 time=0.003125\n",
      "note_off channel=0 note=61 velocity=127 time=0.019791666666666666\n",
      "note_on channel=0 note=60 velocity=127 time=0.025\n",
      "\u001b[91m [DEBUG] > \u001b[0m\n",
      " |>  to_array: msg.time > max_t; t, n\n",
      " |>  1.9947916666666663\n",
      " |>  100\n",
      "note_on channel=0 note=60 velocity=127 time=0.052083333333333336\n",
      "note_on channel=0 note=61 velocity=127 time=0.009375\n",
      "note_off channel=0 note=60 velocity=127 time=0.010416666666666666\n",
      "note_off channel=0 note=61 velocity=127 time=0.009375\n",
      "note_on channel=0 note=62 velocity=127 time=0.08958333333333333\n",
      "note_on channel=0 note=61 velocity=127 time=0.003125\n",
      "note_off channel=0 note=62 velocity=127 time=0.016666666666666666\n",
      "note_off channel=0 note=61 velocity=127 time=0.003125\n",
      "note_on channel=0 note=60 velocity=127 time=0.0020833333333333333\n",
      "note_off channel=0 note=60 velocity=127 time=0.019791666666666666\n",
      "note_on channel=0 note=61 velocity=127 time=0.06979166666666667\n",
      "note_off channel=0 note=61 velocity=127 time=0.019791666666666666\n",
      "note_on channel=0 note=60 velocity=127 time=0.03333333333333333\n",
      "note_off channel=0 note=60 velocity=127 time=0.019791666666666666\n",
      "note_on channel=0 note=61 velocity=127 time=0.03854166666666667\n",
      "note_off channel=0 note=61 velocity=127 time=0.019791666666666666\n",
      "note_on channel=0 note=62 velocity=127 time=0.041666666666666664\n",
      "note_off channel=0 note=62 velocity=127 time=0.019791666666666666\n",
      "note_on channel=0 note=60 velocity=127 time=0.003125\n",
      "note_off channel=0 note=60 velocity=127 time=0.019791666666666666\n",
      "note_on channel=0 note=61 velocity=127 time=0.007291666666666667\n",
      "note_off channel=0 note=61 velocity=127 time=0.019791666666666666\n",
      "note_on channel=0 note=61 velocity=127 time=0.09270833333333334\n",
      "note_on channel=0 note=60 velocity=127 time=0.004166666666666667\n",
      "note_off channel=0 note=61 velocity=127 time=0.015625\n",
      "note_off channel=0 note=60 velocity=127 time=0.004166666666666667\n",
      "note_on channel=0 note=61 velocity=127 time=0.08854166666666667\n",
      "note_on channel=0 note=62 velocity=127 time=0.014583333333333334\n",
      "note_off channel=0 note=61 velocity=127 time=0.005208333333333333\n",
      "note_off channel=0 note=62 velocity=127 time=0.014583333333333334\n",
      "note_on channel=0 note=60 velocity=127 time=0.0010416666666666667\n",
      "note_off channel=0 note=60 velocity=127 time=0.019791666666666666\n",
      "note_on channel=0 note=61 velocity=127 time=0.057291666666666664\n",
      "note_off channel=0 note=61 velocity=127 time=0.019791666666666666\n",
      "note_on channel=0 note=60 velocity=127 time=0.046875\n",
      "note_off channel=0 note=60 velocity=127 time=0.019791666666666666\n",
      "note_on channel=0 note=61 velocity=127 time=0.026041666666666668\n",
      "note_off channel=0 note=61 velocity=127 time=0.019791666666666666\n",
      "note_on channel=0 note=62 velocity=127 time=0.059375\n",
      "note_on channel=0 note=60 velocity=127 time=0.01875\n",
      "note_off channel=0 note=62 velocity=127 time=0.0010416666666666667\n",
      "note_on channel=0 note=61 velocity=127 time=0.0125\n",
      "note_off channel=0 note=60 velocity=127 time=0.00625\n",
      "note_off channel=0 note=61 velocity=127 time=0.014583333333333334\n",
      "note_on channel=0 note=61 velocity=127 time=0.09270833333333334\n",
      "note_on channel=0 note=60 velocity=127 time=0.017708333333333333\n",
      "note_off channel=0 note=61 velocity=127 time=0.003125\n",
      "note_off channel=0 note=60 velocity=127 time=0.017708333333333333\n",
      "note_on channel=0 note=61 velocity=127 time=0.075\n",
      "note_off channel=0 note=61 velocity=127 time=0.019791666666666666\n",
      "note_on channel=0 note=62 velocity=127 time=0.011458333333333333\n",
      "note_on channel=0 note=60 velocity=127 time=0.016666666666666666\n",
      "note_off channel=0 note=62 velocity=127 time=0.003125\n",
      "note_off channel=0 note=60 velocity=127 time=0.016666666666666666\n",
      "note_on channel=0 note=61 velocity=127 time=0.04375\n",
      "note_off channel=0 note=61 velocity=127 time=0.019791666666666666\n",
      "note_on channel=0 note=60 velocity=127 time=0.06041666666666667\n",
      "note_off channel=0 note=60 velocity=127 time=0.019791666666666666\n",
      "note_on channel=0 note=61 velocity=127 time=0.0125\n",
      "note_off channel=0 note=61 velocity=127 time=0.019791666666666666\n",
      "note_on channel=0 note=62 velocity=127 time=0.07708333333333334\n",
      "note_on channel=0 note=60 velocity=127 time=0.014583333333333334\n",
      "note_on channel=0 note=61 velocity=127 time=0.0010416666666666667\n",
      "note_off channel=0 note=62 velocity=127 time=0.004166666666666667\n",
      "note_off channel=0 note=60 velocity=127 time=0.014583333333333334\n",
      "note_off channel=0 note=61 velocity=127 time=0.0010416666666666667\n",
      "note_on channel=0 note=61 velocity=127 time=0.09270833333333334\n",
      "note_off channel=0 note=61 velocity=127 time=0.019791666666666666\n",
      "note_on channel=0 note=60 velocity=127 time=0.010416666666666666\n",
      "note_off channel=0 note=60 velocity=127 time=0.019791666666666666\n",
      "note_on channel=0 note=61 velocity=127 time=0.06145833333333333\n",
      "note_off channel=0 note=61 velocity=127 time=0.019791666666666666\n",
      "note_on channel=0 note=62 velocity=127 time=0.029166666666666667\n",
      "note_on channel=0 note=60 velocity=127 time=0.0125\n",
      "note_off channel=0 note=62 velocity=127 time=0.007291666666666667\n",
      "note_off channel=0 note=60 velocity=127 time=0.0125\n",
      "note_on channel=0 note=61 velocity=127 time=0.030208333333333334\n",
      "note_off channel=0 note=61 velocity=127 time=0.019791666666666666\n",
      "note_on channel=0 note=60 velocity=127 time=0.07291666666666667\n",
      "\u001b[91m [DEBUG] > \u001b[0m\n",
      " |>  to_array: msg.time > max_t; t, n\n",
      " |>  2.0614583333333334\n",
      " |>  100\n"
     ]
    },
    {
     "name": "stdout",
     "output_type": "stream",
     "text": [
      "note_on channel=0 note=60 velocity=127 time=0.007291666666666667\n",
      "note_off channel=0 note=60 velocity=127 time=0.019791666666666666\n",
      "note_on channel=0 note=62 velocity=127 time=0.010416666666666666\n",
      "note_on channel=0 note=61 velocity=127 time=0.004166666666666667\n",
      "note_off channel=0 note=62 velocity=127 time=0.015625\n",
      "note_off channel=0 note=61 velocity=127 time=0.004166666666666667\n",
      "note_on channel=0 note=60 velocity=127 time=0.051041666666666666\n",
      "note_on channel=0 note=62 velocity=127 time=0.0010416666666666667\n",
      "note_on channel=0 note=61 velocity=127 time=0.008333333333333333\n",
      "note_off channel=0 note=60 velocity=127 time=0.011458333333333333\n",
      "note_off channel=0 note=62 velocity=127 time=0.0010416666666666667\n",
      "note_off channel=0 note=61 velocity=127 time=0.008333333333333333\n",
      "note_on channel=0 note=62 velocity=127 time=0.04791666666666666\n",
      "note_on channel=0 note=61 velocity=127 time=0.011458333333333333\n",
      "note_off channel=0 note=62 velocity=127 time=0.008333333333333333\n",
      "note_on channel=0 note=60 velocity=127 time=0.009375\n",
      "note_off channel=0 note=61 velocity=127 time=0.003125\n",
      "note_off channel=0 note=60 velocity=127 time=0.017708333333333333\n",
      "note_on channel=0 note=62 velocity=127 time=0.027083333333333334\n",
      "note_on channel=0 note=61 velocity=127 time=0.015625\n",
      "note_off channel=0 note=62 velocity=127 time=0.004166666666666667\n",
      "note_off channel=0 note=61 velocity=127 time=0.015625\n",
      "note_on channel=0 note=60 velocity=127 time=0.022916666666666665\n",
      "note_on channel=0 note=62 velocity=127 time=0.016666666666666666\n",
      "note_off channel=0 note=60 velocity=127 time=0.003125\n",
      "note_on channel=0 note=61 velocity=127 time=0.016666666666666666\n",
      "note_off channel=0 note=62 velocity=127 time=0.0010416666666666667\n",
      "note_off channel=0 note=61 velocity=127 time=0.01875\n",
      "note_on channel=0 note=62 velocity=127 time=0.036458333333333336\n",
      "note_on channel=0 note=60 velocity=127 time=0.0125\n",
      "note_off channel=0 note=62 velocity=127 time=0.007291666666666667\n",
      "note_on channel=0 note=61 velocity=127 time=0.003125\n",
      "note_off channel=0 note=60 velocity=127 time=0.009375\n",
      "note_off channel=0 note=61 velocity=127 time=0.010416666666666666\n",
      "note_on channel=0 note=62 velocity=127 time=0.03333333333333333\n",
      "note_off channel=0 note=62 velocity=127 time=0.019791666666666666\n",
      "note_on channel=0 note=61 velocity=127 time=0.00625\n",
      "note_on channel=0 note=60 velocity=127 time=0.015625\n",
      "note_off channel=0 note=61 velocity=127 time=0.004166666666666667\n",
      "note_off channel=0 note=60 velocity=127 time=0.015625\n",
      "note_on channel=0 note=62 velocity=127 time=0.013541666666666667\n",
      "note_off channel=0 note=62 velocity=127 time=0.019791666666666666\n",
      "note_on channel=0 note=61 velocity=127 time=0.010416666666666666\n",
      "note_off channel=0 note=61 velocity=127 time=0.019791666666666666\n",
      "note_on channel=0 note=60 velocity=127 time=0.021875\n",
      "note_on channel=0 note=62 velocity=127 time=0.004166666666666667\n",
      "note_off channel=0 note=60 velocity=127 time=0.015625\n",
      "note_off channel=0 note=62 velocity=127 time=0.004166666666666667\n",
      "note_on channel=0 note=61 velocity=127 time=0.013541666666666667\n",
      "note_off channel=0 note=61 velocity=127 time=0.019791666666666666\n",
      "note_on channel=0 note=62 velocity=127 time=0.021875\n",
      "note_off channel=0 note=62 velocity=127 time=0.019791666666666666\n",
      "note_on channel=0 note=60 velocity=127 time=0.005208333333333333\n",
      "note_on channel=0 note=61 velocity=127 time=0.011458333333333333\n",
      "note_off channel=0 note=60 velocity=127 time=0.008333333333333333\n",
      "note_off channel=0 note=61 velocity=127 time=0.011458333333333333\n",
      "note_on channel=0 note=62 velocity=127 time=0.01875\n",
      "note_off channel=0 note=62 velocity=127 time=0.019791666666666666\n",
      "note_on channel=0 note=61 velocity=127 time=0.020833333333333332\n",
      "note_on channel=0 note=60 velocity=127 time=0.014583333333333334\n",
      "note_off channel=0 note=61 velocity=127 time=0.00625\n",
      "note_off channel=0 note=60 velocity=127 time=0.014583333333333334\n",
      "note_on channel=0 note=62 velocity=127 time=0.0010416666666666667\n",
      "note_off channel=0 note=62 velocity=127 time=0.019791666666666666\n",
      "note_on channel=0 note=61 velocity=127 time=0.025\n",
      "note_off channel=0 note=61 velocity=127 time=0.019791666666666666\n",
      "note_on channel=0 note=62 velocity=127 time=0.011458333333333333\n",
      "note_on channel=0 note=60 velocity=127 time=0.009375\n",
      "note_off channel=0 note=62 velocity=127 time=0.010416666666666666\n",
      "note_off channel=0 note=60 velocity=127 time=0.009375\n",
      "note_on channel=0 note=61 velocity=127 time=0.019791666666666666\n",
      "note_off channel=0 note=61 velocity=127 time=0.019791666666666666\n",
      "note_on channel=0 note=62 velocity=127 time=0.007291666666666667\n",
      "note_off channel=0 note=62 velocity=127 time=0.019791666666666666\n",
      "note_on channel=0 note=60 velocity=127 time=0.01875\n",
      "note_on channel=0 note=61 velocity=127 time=0.013541666666666667\n",
      "note_off channel=0 note=60 velocity=127 time=0.00625\n",
      "note_off channel=0 note=61 velocity=127 time=0.013541666666666667\n",
      "note_on channel=0 note=62 velocity=127 time=0.003125\n",
      "note_off channel=0 note=62 velocity=127 time=0.019791666666666666\n",
      "note_on channel=0 note=61 velocity=127 time=0.036458333333333336\n",
      "note_on channel=0 note=60 velocity=127 time=0.0125\n",
      "note_on channel=0 note=62 velocity=127 time=0.007291666666666667\n",
      "note_off channel=0 note=61 velocity=127 time=0\n",
      "note_off channel=0 note=60 velocity=127 time=0.0125\n",
      "note_off channel=0 note=62 velocity=127 time=0.007291666666666667\n",
      "note_on channel=0 note=61 velocity=127 time=0.03958333333333333\n",
      "note_on channel=0 note=62 velocity=127 time=0.016666666666666666\n",
      "note_off channel=0 note=61 velocity=127 time=0.004166666666666667\n",
      "note_off channel=0 note=62 velocity=127 time=0.016666666666666666\n",
      "note_on channel=0 note=60 velocity=127 time=0.0020833333333333333\n",
      "note_off channel=0 note=60 velocity=127 time=0.019791666666666666\n",
      "note_on channel=0 note=61 velocity=127 time=0.020833333333333332\n",
      "note_on channel=0 note=62 velocity=127 time=0.0125\n",
      "note_off channel=0 note=61 velocity=127 time=0.007291666666666667\n",
      "note_off channel=0 note=62 velocity=127 time=0.0125\n",
      "note_on channel=0 note=60 velocity=127 time=0.03229166666666666\n",
      "note_on channel=0 note=61 velocity=127 time=0.014583333333333334\n",
      "note_off channel=0 note=60 velocity=127 time=0.005208333333333333\n",
      "note_on channel=0 note=62 velocity=127 time=0.004166666666666667\n",
      "note_off channel=0 note=61 velocity=127 time=0.011458333333333333\n",
      "note_off channel=0 note=62 velocity=127 time=0.008333333333333333\n",
      "note_on channel=0 note=61 velocity=127 time=0.051041666666666666\n",
      "note_on channel=0 note=62 velocity=127 time=0.005208333333333333\n",
      "note_on channel=0 note=60 velocity=127 time=0.00625\n",
      "note_off channel=0 note=61 velocity=127 time=0.009375\n",
      "note_off channel=0 note=62 velocity=127 time=0.005208333333333333\n",
      "note_off channel=0 note=60 velocity=127 time=0.00625\n",
      "note_on channel=0 note=61 velocity=127 time=0.04895833333333333\n",
      "note_on channel=0 note=62 velocity=127 time=0.0010416666666666667\n",
      "note_off channel=0 note=61 velocity=127 time=0.01875\n",
      "note_off channel=0 note=62 velocity=127 time=0.0010416666666666667\n",
      "note_on channel=0 note=60 velocity=127 time=0.015625\n",
      "note_off channel=0 note=60 velocity=127 time=0.019791666666666666\n",
      "note_on channel=0 note=62 velocity=127 time=0.020833333333333332\n",
      "note_on channel=0 note=61 velocity=127 time=0.0020833333333333333\n",
      "note_off channel=0 note=62 velocity=127 time=0.017708333333333333\n",
      "note_off channel=0 note=61 velocity=127 time=0.0020833333333333333\n",
      "note_on channel=0 note=60 velocity=127 time=0.042708333333333334\n",
      "note_on channel=0 note=62 velocity=127 time=0.010416666666666666\n",
      "note_on channel=0 note=61 velocity=127 time=0.00625\n",
      "note_off channel=0 note=60 velocity=127 time=0.003125\n",
      "note_off channel=0 note=62 velocity=127 time=0.010416666666666666\n",
      "note_off channel=0 note=61 velocity=127 time=0.00625\n",
      "note_on channel=0 note=62 velocity=127 time=0.05\n",
      "note_on channel=0 note=61 velocity=127 time=0.009375\n",
      "note_on channel=0 note=60 velocity=127 time=0.009375\n",
      "note_off channel=0 note=62 velocity=127 time=0.0010416666666666667\n",
      "note_off channel=0 note=61 velocity=127 time=0.009375\n",
      "note_off channel=0 note=60 velocity=127 time=0.009375\n",
      "note_on channel=0 note=62 velocity=127 time=0.036458333333333336\n",
      "note_on channel=0 note=61 velocity=127 time=0.013541666666666667\n",
      "note_off channel=0 note=62 velocity=127 time=0.00625\n",
      "note_off channel=0 note=61 velocity=127 time=0.013541666666666667\n",
      "note_on channel=0 note=60 velocity=127 time=0.015625\n",
      "note_off channel=0 note=60 velocity=127 time=0.019791666666666666\n",
      "note_on channel=0 note=62 velocity=127 time=0.007291666666666667\n",
      "note_on channel=0 note=61 velocity=127 time=0.016666666666666666\n",
      "note_off channel=0 note=62 velocity=127 time=0.003125\n",
      "note_off channel=0 note=61 velocity=127 time=0.016666666666666666\n",
      "note_on channel=0 note=62 velocity=127 time=0.03854166666666667\n",
      "\u001b[91m [DEBUG] > \u001b[0m\n",
      " |>  to_array: msg.time > max_t; t, n\n",
      " |>  2.0104166666666656\n",
      " |>  100\n",
      "note_on channel=0 note=61 velocity=127 time=0.0020833333333333333\n",
      "note_off channel=0 note=61 velocity=127 time=0.019791666666666666\n",
      "note_on channel=0 note=62 velocity=127 time=0.052083333333333336\n",
      "note_on channel=0 note=60 velocity=127 time=0.00625\n",
      "note_off channel=0 note=62 velocity=127 time=0.014583333333333334\n",
      "note_off channel=0 note=60 velocity=127 time=0.00625\n",
      "note_on channel=0 note=62 velocity=127 time=0.058333333333333334\n",
      "note_on channel=0 note=61 velocity=127 time=0.010416666666666666\n",
      "note_off channel=0 note=62 velocity=127 time=0.009375\n",
      "note_off channel=0 note=61 velocity=127 time=0.010416666666666666\n",
      "note_on channel=0 note=62 velocity=127 time=0.053125\n",
      "note_off channel=0 note=62 velocity=127 time=0.019791666666666666\n",
      "note_on channel=0 note=60 velocity=127 time=0.041666666666666664\n",
      "note_off channel=0 note=60 velocity=127 time=0.019791666666666666\n",
      "note_on channel=0 note=62 velocity=127 time=0.0020833333333333333\n",
      "note_on channel=0 note=61 velocity=127 time=0.009375\n",
      "note_off channel=0 note=62 velocity=127 time=0.010416666666666666\n",
      "note_off channel=0 note=61 velocity=127 time=0.009375\n",
      "note_on channel=0 note=62 velocity=127 time=0.05520833333333333\n",
      "note_off channel=0 note=62 velocity=127 time=0.019791666666666666\n",
      "note_on channel=0 note=62 velocity=127 time=0.06354166666666666\n",
      "note_on channel=0 note=61 velocity=127 time=0.008333333333333333\n",
      "note_off channel=0 note=62 velocity=127 time=0.0125\n",
      "note_off channel=0 note=61 velocity=127 time=0.008333333333333333\n",
      "note_on channel=0 note=60 velocity=127 time=0.005208333333333333\n",
      "note_off channel=0 note=60 velocity=127 time=0.019791666666666666\n",
      "note_on channel=0 note=62 velocity=127 time=0.030208333333333334\n",
      "note_off channel=0 note=62 velocity=127 time=0.019791666666666666\n",
      "note_on channel=0 note=62 velocity=127 time=0.06354166666666666\n",
      "note_on channel=0 note=61 velocity=127 time=0.00625\n",
      "note_off channel=0 note=62 velocity=127 time=0.013541666666666667\n",
      "note_off channel=0 note=61 velocity=127 time=0.00625\n",
      "note_on channel=0 note=62 velocity=127 time=0.057291666666666664\n",
      "note_on channel=0 note=60 velocity=127 time=0.005208333333333333\n",
      "note_off channel=0 note=62 velocity=127 time=0.014583333333333334\n",
      "note_off channel=0 note=60 velocity=127 time=0.005208333333333333\n",
      "note_on channel=0 note=62 velocity=127 time=0.058333333333333334\n",
      "note_on channel=0 note=61 velocity=127 time=0.005208333333333333\n",
      "note_off channel=0 note=62 velocity=127 time=0.014583333333333334\n",
      "note_off channel=0 note=61 velocity=127 time=0.005208333333333333\n",
      "note_on channel=0 note=62 velocity=127 time=0.058333333333333334\n",
      "note_off channel=0 note=62 velocity=127 time=0.019791666666666666\n",
      "note_on channel=0 note=60 velocity=127 time=0.040625\n",
      "note_off channel=0 note=60 velocity=127 time=0.019791666666666666\n",
      "note_on channel=0 note=62 velocity=127 time=0.003125\n",
      "note_on channel=0 note=61 velocity=127 time=0.004166666666666667\n",
      "note_off channel=0 note=62 velocity=127 time=0.016666666666666666\n",
      "note_off channel=0 note=61 velocity=127 time=0.004166666666666667\n",
      "note_on channel=0 note=62 velocity=127 time=0.06041666666666667\n",
      "note_off channel=0 note=62 velocity=127 time=0.019791666666666666\n",
      "note_on channel=0 note=62 velocity=127 time=0.06354166666666666\n",
      "note_on channel=0 note=61 velocity=127 time=0.0020833333333333333\n",
      "note_off channel=0 note=62 velocity=127 time=0.017708333333333333\n",
      "note_off channel=0 note=61 velocity=127 time=0.0020833333333333333\n",
      "note_on channel=0 note=60 velocity=127 time=0.010416666666666666\n",
      "note_off channel=0 note=60 velocity=127 time=0.019791666666666666\n",
      "note_on channel=0 note=62 velocity=127 time=0.03125\n",
      "note_off channel=0 note=62 velocity=127 time=0.019791666666666666\n",
      "note_on channel=0 note=62 velocity=127 time=0.06354166666666666\n",
      "note_on channel=0 note=61 velocity=127 time=0.0010416666666666667\n",
      "note_off channel=0 note=62 velocity=127 time=0.01875\n",
      "note_off channel=0 note=61 velocity=127 time=0.0010416666666666667\n",
      "note_on channel=0 note=62 velocity=127 time=0.0625\n",
      "note_on channel=0 note=60 velocity=127 time=0.005208333333333333\n",
      "note_off channel=0 note=62 velocity=127 time=0.015625\n",
      "note_off channel=0 note=60 velocity=127 time=0.005208333333333333\n",
      "note_on channel=0 note=61 velocity=127 time=0.058333333333333334\n",
      "note_on channel=0 note=62 velocity=127 time=0\n",
      "note_off channel=0 note=61 velocity=127 time=0.019791666666666666\n",
      "note_off channel=0 note=62 velocity=127 time=0\n",
      "note_on channel=0 note=62 velocity=127 time=0.06354166666666666\n",
      "note_off channel=0 note=62 velocity=127 time=0.019791666666666666\n",
      "note_on channel=0 note=60 velocity=127 time=0.040625\n",
      "note_off channel=0 note=60 velocity=127 time=0.019791666666666666\n",
      "note_on channel=0 note=61 velocity=127 time=0.0020833333333333333\n",
      "note_on channel=0 note=62 velocity=127 time=0.0020833333333333333\n",
      "note_off channel=0 note=61 velocity=127 time=0.01875\n",
      "note_off channel=0 note=62 velocity=127 time=0.0020833333333333333\n",
      "note_on channel=0 note=62 velocity=127 time=0.06354166666666666\n",
      "note_off channel=0 note=62 velocity=127 time=0.019791666666666666\n",
      "note_on channel=0 note=61 velocity=127 time=0.06041666666666667\n",
      "note_on channel=0 note=62 velocity=127 time=0.003125\n",
      "note_off channel=0 note=61 velocity=127 time=0.016666666666666666\n",
      "note_off channel=0 note=62 velocity=127 time=0.003125\n",
      "note_on channel=0 note=60 velocity=127 time=0.0125\n",
      "note_off channel=0 note=60 velocity=127 time=0.019791666666666666\n",
      "note_on channel=0 note=62 velocity=127 time=0.03125\n",
      "note_off channel=0 note=62 velocity=127 time=0.019791666666666666\n",
      "note_on channel=0 note=61 velocity=127 time=0.059375\n",
      "\u001b[91m [DEBUG] > \u001b[0m\n",
      " |>  to_array: msg.time > max_t; t, n\n",
      " |>  1.9958333333333331\n",
      " |>  100\n",
      "note_on channel=0 note=60 velocity=127 time=0.06145833333333333\n",
      "note_on channel=0 note=61 velocity=127 time=0.00625\n",
      "note_off channel=0 note=60 velocity=127 time=0.013541666666666667\n",
      "note_off channel=0 note=61 velocity=127 time=0.00625\n",
      "note_on channel=0 note=62 velocity=127 time=0.046875\n",
      "note_on channel=0 note=60 velocity=127 time=0.0010416666666666667\n",
      "note_off channel=0 note=62 velocity=127 time=0.019791666666666666\n",
      "note_off channel=0 note=60 velocity=127 time=0.0010416666666666667\n",
      "note_on channel=0 note=61 velocity=127 time=0.01875\n",
      "note_off channel=0 note=61 velocity=127 time=0.019791666666666666\n",
      "note_on channel=0 note=60 velocity=127 time=0.014583333333333334\n",
      "note_off channel=0 note=60 velocity=127 time=0.019791666666666666\n",
      "note_on channel=0 note=61 velocity=127 time=0.051041666666666666\n",
      "note_on channel=0 note=62 velocity=127 time=0.0010416666666666667\n",
      "note_on channel=0 note=60 velocity=127 time=0.0010416666666666667\n",
      "note_off channel=0 note=61 velocity=127 time=0.017708333333333333\n",
      "note_off channel=0 note=62 velocity=127 time=0.0010416666666666667\n",
      "note_off channel=0 note=60 velocity=127 time=0.0010416666666666667\n",
      "note_on channel=0 note=60 velocity=127 time=0.053125\n",
      "note_off channel=0 note=60 velocity=127 time=0.019791666666666666\n",
      "note_on channel=0 note=61 velocity=127 time=0.010416666666666666\n",
      "note_off channel=0 note=61 velocity=127 time=0.019791666666666666\n",
      "note_on channel=0 note=62 velocity=127 time=0.020833333333333332\n",
      "note_on channel=0 note=60 velocity=127 time=0.0020833333333333333\n",
      "note_off channel=0 note=62 velocity=127 time=0.017708333333333333\n",
      "note_off channel=0 note=60 velocity=127 time=0.0020833333333333333\n",
      "note_on channel=0 note=61 velocity=127 time=0.042708333333333334\n",
      "note_on channel=0 note=60 velocity=127 time=0.010416666666666666\n",
      "note_off channel=0 note=61 velocity=127 time=0.009375\n",
      "note_off channel=0 note=60 velocity=127 time=0.010416666666666666\n",
      "note_on channel=0 note=62 velocity=127 time=0.051041666666666666\n",
      "note_on channel=0 note=60 velocity=127 time=0.0020833333333333333\n",
      "note_off channel=0 note=62 velocity=127 time=0.017708333333333333\n",
      "note_off channel=0 note=60 velocity=127 time=0.0020833333333333333\n",
      "note_on channel=0 note=61 velocity=127 time=0.0020833333333333333\n",
      "note_off channel=0 note=61 velocity=127 time=0.019791666666666666\n",
      "note_on channel=0 note=60 velocity=127 time=0.03125\n",
      "note_off channel=0 note=60 velocity=127 time=0.019791666666666666\n",
      "note_on channel=0 note=61 velocity=127 time=0.034375\n",
      "note_on channel=0 note=62 velocity=127 time=0.015625\n",
      "note_on channel=0 note=60 velocity=127 time=0.003125\n",
      "note_off channel=0 note=61 velocity=127 time=0.0010416666666666667\n",
      "note_off channel=0 note=62 velocity=127 time=0.015625\n",
      "note_off channel=0 note=60 velocity=127 time=0.003125\n",
      "note_on channel=0 note=60 velocity=127 time=0.053125\n",
      "note_on channel=0 note=61 velocity=127 time=0.013541666666666667\n",
      "note_off channel=0 note=60 velocity=127 time=0.00625\n",
      "note_off channel=0 note=61 velocity=127 time=0.013541666666666667\n",
      "note_on channel=0 note=62 velocity=127 time=0.035416666666666666\n",
      "note_on channel=0 note=60 velocity=127 time=0.004166666666666667\n",
      "note_off channel=0 note=62 velocity=127 time=0.016666666666666666\n",
      "note_off channel=0 note=60 velocity=127 time=0.004166666666666667\n",
      "note_on channel=0 note=61 velocity=127 time=0.026041666666666668\n",
      "note_off channel=0 note=61 velocity=127 time=0.019791666666666666\n",
      "note_on channel=0 note=60 velocity=127 time=0.007291666666666667\n",
      "note_off channel=0 note=60 velocity=127 time=0.019791666666666666\n",
      "note_on channel=0 note=62 velocity=127 time=0.04895833333333333\n",
      "note_on channel=0 note=60 velocity=127 time=0.004166666666666667\n",
      "note_on channel=0 note=61 velocity=127 time=0.005208333333333333\n",
      "note_off channel=0 note=62 velocity=127 time=0.010416666666666666\n",
      "note_off channel=0 note=60 velocity=127 time=0.004166666666666667\n",
      "note_off channel=0 note=61 velocity=127 time=0.005208333333333333\n",
      "note_on channel=0 note=60 velocity=127 time=0.04791666666666666\n",
      "note_off channel=0 note=60 velocity=127 time=0.019791666666666666\n",
      "note_on channel=0 note=61 velocity=127 time=0.017708333333333333\n",
      "note_off channel=0 note=61 velocity=127 time=0.019791666666666666\n",
      "note_on channel=0 note=62 velocity=127 time=0.010416666666666666\n",
      "note_on channel=0 note=60 velocity=127 time=0.005208333333333333\n",
      "note_off channel=0 note=62 velocity=127 time=0.014583333333333334\n",
      "note_off channel=0 note=60 velocity=127 time=0.005208333333333333\n",
      "note_on channel=0 note=61 velocity=127 time=0.05\n",
      "note_on channel=0 note=60 velocity=127 time=0.003125\n",
      "note_off channel=0 note=61 velocity=127 time=0.016666666666666666\n",
      "note_off channel=0 note=60 velocity=127 time=0.003125\n",
      "note_on channel=0 note=62 velocity=127 time=0.04791666666666666\n",
      "note_on channel=0 note=60 velocity=127 time=0.005208333333333333\n",
      "note_off channel=0 note=62 velocity=127 time=0.014583333333333334\n",
      "note_off channel=0 note=60 velocity=127 time=0.005208333333333333\n",
      "note_on channel=0 note=61 velocity=127 time=0.009375\n",
      "note_off channel=0 note=61 velocity=127 time=0.019791666666666666\n",
      "note_on channel=0 note=60 velocity=127 time=0.02395833333333333\n",
      "note_off channel=0 note=60 velocity=127 time=0.019791666666666666\n",
      "note_on channel=0 note=61 velocity=127 time=0.041666666666666664\n",
      "note_on channel=0 note=62 velocity=127 time=0.005208333333333333\n",
      "note_on channel=0 note=60 velocity=127 time=0.00625\n",
      "note_off channel=0 note=61 velocity=127 time=0.009375\n",
      "note_off channel=0 note=62 velocity=127 time=0.005208333333333333\n",
      "note_off channel=0 note=60 velocity=127 time=0.00625\n",
      "note_on channel=0 note=60 velocity=127 time=0.053125\n",
      "note_off channel=0 note=60 velocity=127 time=0.019791666666666666\n",
      "note_on channel=0 note=61 velocity=127 time=0.0010416666666666667\n",
      "note_off channel=0 note=61 velocity=127 time=0.019791666666666666\n",
      "note_on channel=0 note=62 velocity=127 time=0.025\n",
      "note_on channel=0 note=60 velocity=127 time=0.007291666666666667\n",
      "note_off channel=0 note=62 velocity=127 time=0.013541666666666667\n",
      "note_off channel=0 note=60 velocity=127 time=0.007291666666666667\n",
      "note_on channel=0 note=61 velocity=127 time=0.03333333333333333\n",
      "note_on channel=0 note=60 velocity=127 time=0.019791666666666666\n",
      "note_off channel=0 note=61 velocity=127 time=0.0010416666666666667\n",
      "note_off channel=0 note=60 velocity=127 time=0.019791666666666666\n",
      "note_on channel=0 note=62 velocity=127 time=0.04583333333333333\n",
      "note_on channel=0 note=60 velocity=127 time=0.007291666666666667\n",
      "note_off channel=0 note=62 velocity=127 time=0.0125\n",
      "note_on channel=0 note=61 velocity=127 time=0.0010416666666666667\n",
      "note_off channel=0 note=60 velocity=127 time=0.007291666666666667\n",
      "note_off channel=0 note=61 velocity=127 time=0.013541666666666667\n",
      "note_on channel=0 note=60 velocity=127 time=0.03958333333333333\n",
      "note_off channel=0 note=60 velocity=127 time=0.019791666666666666\n",
      "note_on channel=0 note=61 velocity=127 time=0.025\n",
      "note_on channel=0 note=62 velocity=127 time=0.019791666666666666\n",
      "note_off channel=0 note=61 velocity=127 time=0.0010416666666666667\n",
      "note_on channel=0 note=60 velocity=127 time=0.007291666666666667\n",
      "note_off channel=0 note=62 velocity=127 time=0.011458333333333333\n",
      "note_off channel=0 note=60 velocity=127 time=0.008333333333333333\n",
      "note_on channel=0 note=60 velocity=127 time=0.053125\n",
      "note_on channel=0 note=61 velocity=127 time=0.005208333333333333\n",
      "note_off channel=0 note=60 velocity=127 time=0.015625\n",
      "note_off channel=0 note=61 velocity=127 time=0.005208333333333333\n",
      "\u001b[91m [DEBUG] > \u001b[0m\n",
      " |>  to_array: msg.time > max_t; t, n\n",
      " |>  1.9906249999999992\n",
      " |>  100\n",
      "note_on channel=0 note=62 velocity=127 time=0.015625\n",
      "note_off channel=0 note=62 velocity=127 time=0.019791666666666666\n",
      "note_on channel=0 note=62 velocity=127 time=0.06875\n",
      "note_off channel=0 note=62 velocity=127 time=0.019791666666666666\n",
      "note_on channel=0 note=61 velocity=127 time=0.015625\n",
      "note_off channel=0 note=61 velocity=127 time=0.019791666666666666\n",
      "note_on channel=0 note=62 velocity=127 time=0.03229166666666666\n",
      "note_off channel=0 note=62 velocity=127 time=0.019791666666666666\n",
      "note_on channel=0 note=60 velocity=127 time=0.010416666666666666\n",
      "note_off channel=0 note=60 velocity=127 time=0.019791666666666666\n",
      "note_on channel=0 note=62 velocity=127 time=0.03854166666666667\n",
      "note_off channel=0 note=62 velocity=127 time=0.019791666666666666\n",
      "note_on channel=0 note=61 velocity=127 time=0.046875\n",
      "note_off channel=0 note=61 velocity=127 time=0.019791666666666666\n",
      "note_on channel=0 note=62 velocity=127 time=0.0020833333333333333\n",
      "note_off channel=0 note=62 velocity=127 time=0.019791666666666666\n",
      "note_on channel=0 note=62 velocity=127 time=0.06875\n",
      "note_off channel=0 note=62 velocity=127 time=0.019791666666666666\n",
      "note_on channel=0 note=60 velocity=127 time=0.034375\n",
      "note_off channel=0 note=60 velocity=127 time=0.019791666666666666\n",
      "note_on channel=0 note=62 velocity=127 time=0.013541666666666667\n",
      "note_on channel=0 note=61 velocity=127 time=0.008333333333333333\n",
      "note_off channel=0 note=62 velocity=127 time=0.011458333333333333\n",
      "note_off channel=0 note=61 velocity=127 time=0.008333333333333333\n",
      "note_on channel=0 note=62 velocity=127 time=0.059375\n",
      "note_off channel=0 note=62 velocity=127 time=0.019791666666666666\n",
      "note_on channel=0 note=62 velocity=127 time=0.06875\n",
      "note_off channel=0 note=62 velocity=127 time=0.019791666666666666\n",
      "note_on channel=0 note=61 velocity=127 time=0.01875\n",
      "note_off channel=0 note=61 velocity=127 time=0.019791666666666666\n",
      "note_on channel=0 note=60 velocity=127 time=0.019791666666666666\n",
      "note_on channel=0 note=62 velocity=127 time=0.009375\n",
      "note_off channel=0 note=60 velocity=127 time=0.010416666666666666\n",
      "note_off channel=0 note=62 velocity=127 time=0.009375\n",
      "note_on channel=0 note=62 velocity=127 time=0.06875\n",
      "note_off channel=0 note=62 velocity=127 time=0.019791666666666666\n",
      "note_on channel=0 note=61 velocity=127 time=0.05\n",
      "note_on channel=0 note=62 velocity=127 time=0.01875\n",
      "note_off channel=0 note=61 velocity=127 time=0.0010416666666666667\n",
      "note_off channel=0 note=62 velocity=127 time=0.01875\n",
      "note_on channel=0 note=62 velocity=127 time=0.06875\n",
      "note_on channel=0 note=60 velocity=127 time=0.015625\n",
      "note_off channel=0 note=62 velocity=127 time=0.005208333333333333\n",
      "note_off channel=0 note=60 velocity=127 time=0.015625\n",
      "note_on channel=0 note=62 velocity=127 time=0.053125\n",
      "note_on channel=0 note=61 velocity=127 time=0.011458333333333333\n",
      "note_off channel=0 note=62 velocity=127 time=0.008333333333333333\n",
      "note_off channel=0 note=61 velocity=127 time=0.011458333333333333\n",
      "note_on channel=0 note=62 velocity=127 time=0.05625\n",
      "note_off channel=0 note=62 velocity=127 time=0.019791666666666666\n",
      "note_on channel=0 note=62 velocity=127 time=0.06875\n",
      "note_off channel=0 note=62 velocity=127 time=0.019791666666666666\n",
      "note_on channel=0 note=60 velocity=127 time=0.019791666666666666\n",
      "note_on channel=0 note=61 velocity=127 time=0.0020833333333333333\n",
      "note_off channel=0 note=60 velocity=127 time=0.017708333333333333\n",
      "note_off channel=0 note=61 velocity=127 time=0.0020833333333333333\n",
      "note_on channel=0 note=62 velocity=127 time=0.026041666666666668\n",
      "note_off channel=0 note=62 velocity=127 time=0.019791666666666666\n",
      "note_on channel=0 note=62 velocity=127 time=0.06875\n",
      "note_off channel=0 note=62 velocity=127 time=0.019791666666666666\n",
      "note_on channel=0 note=61 velocity=127 time=0.052083333333333336\n",
      "note_on channel=0 note=62 velocity=127 time=0.015625\n",
      "note_off channel=0 note=61 velocity=127 time=0.004166666666666667\n",
      "note_off channel=0 note=62 velocity=127 time=0.015625\n",
      "note_on channel=0 note=60 velocity=127 time=0.04375\n",
      "note_off channel=0 note=60 velocity=127 time=0.019791666666666666\n",
      "note_on channel=0 note=62 velocity=127 time=0.004166666666666667\n",
      "note_off channel=0 note=62 velocity=127 time=0.019791666666666666\n",
      "note_on channel=0 note=62 velocity=127 time=0.06875\n",
      "note_on channel=0 note=61 velocity=127 time=0.014583333333333334\n",
      "note_off channel=0 note=62 velocity=127 time=0.005208333333333333\n",
      "note_off channel=0 note=61 velocity=127 time=0.014583333333333334\n",
      "note_on channel=0 note=62 velocity=127 time=0.05416666666666667\n",
      "note_off channel=0 note=62 velocity=127 time=0.019791666666666666\n",
      "note_on channel=0 note=62 velocity=127 time=0.06875\n",
      "note_on channel=0 note=60 velocity=127 time=0\n",
      "note_off channel=0 note=62 velocity=127 time=0.019791666666666666\n",
      "note_off channel=0 note=60 velocity=127 time=0\n",
      "note_on channel=0 note=61 velocity=127 time=0.025\n",
      "\u001b[91m [DEBUG] > \u001b[0m\n",
      " |>  to_array: msg.time > max_t; t, n\n",
      " |>  2.001041666666667\n",
      " |>  100\n",
      "note_on channel=0 note=60 velocity=127 time=0.009375\n",
      "note_on channel=0 note=62 velocity=127 time=0.010416666666666666\n",
      "note_on channel=0 note=61 velocity=127 time=0.009375\n",
      "note_off channel=0 note=60 velocity=127 time=0.0010416666666666667\n",
      "note_off channel=0 note=62 velocity=127 time=0.010416666666666666\n",
      "note_off channel=0 note=61 velocity=127 time=0.009375\n",
      "note_on channel=0 note=62 velocity=127 time=0.08854166666666667\n",
      "note_on channel=0 note=60 velocity=127 time=0.0125\n",
      "note_off channel=0 note=62 velocity=127 time=0.008333333333333333\n",
      "note_off channel=0 note=60 velocity=127 time=0.0125\n",
      "note_on channel=0 note=61 velocity=127 time=0.0010416666666666667\n",
      "note_off channel=0 note=61 velocity=127 time=0.019791666666666666\n",
      "note_on channel=0 note=62 velocity=127 time=0.06458333333333333\n",
      "note_off channel=0 note=62 velocity=127 time=0.019791666666666666\n",
      "note_on channel=0 note=60 velocity=127 time=0.014583333333333334\n",
      "note_off channel=0 note=60 velocity=127 time=0.019791666666666666\n",
      "note_on channel=0 note=61 velocity=127 time=0.003125\n",
      "note_off channel=0 note=61 velocity=127 time=0.019791666666666666\n",
      "note_on channel=0 note=62 velocity=127 time=0.03958333333333333\n",
      "note_off channel=0 note=62 velocity=127 time=0.019791666666666666\n",
      "note_on channel=0 note=60 velocity=127 time=0.036458333333333336\n",
      "note_off channel=0 note=60 velocity=127 time=0.019791666666666666\n",
      "note_on channel=0 note=61 velocity=127 time=0.005208333333333333\n",
      "note_off channel=0 note=61 velocity=127 time=0.019791666666666666\n",
      "note_on channel=0 note=62 velocity=127 time=0.015625\n",
      "note_off channel=0 note=62 velocity=127 time=0.019791666666666666\n",
      "note_on channel=0 note=60 velocity=127 time=0.058333333333333334\n",
      "note_off channel=0 note=60 velocity=127 time=0.019791666666666666\n",
      "note_on channel=0 note=61 velocity=127 time=0.007291666666666667\n",
      "note_on channel=0 note=62 velocity=127 time=0.011458333333333333\n",
      "note_off channel=0 note=61 velocity=127 time=0.008333333333333333\n",
      "note_off channel=0 note=62 velocity=127 time=0.011458333333333333\n",
      "note_on channel=0 note=60 velocity=127 time=0.08020833333333333\n",
      "note_on channel=0 note=62 velocity=127 time=0.016666666666666666\n",
      "note_off channel=0 note=60 velocity=127 time=0.003125\n",
      "note_on channel=0 note=61 velocity=127 time=0.009375\n",
      "note_off channel=0 note=62 velocity=127 time=0.007291666666666667\n",
      "note_off channel=0 note=61 velocity=127 time=0.0125\n",
      "note_on channel=0 note=62 velocity=127 time=0.08541666666666667\n",
      "note_on channel=0 note=60 velocity=127 time=0.005208333333333333\n",
      "note_off channel=0 note=62 velocity=127 time=0.014583333333333334\n"
     ]
    },
    {
     "name": "stdout",
     "output_type": "stream",
     "text": [
      "note_off channel=0 note=60 velocity=127 time=0.005208333333333333\n",
      "note_on channel=0 note=61 velocity=127 time=0.011458333333333333\n",
      "note_off channel=0 note=61 velocity=127 time=0.019791666666666666\n",
      "note_on channel=0 note=62 velocity=127 time=0.06145833333333333\n",
      "note_off channel=0 note=62 velocity=127 time=0.019791666666666666\n",
      "note_on channel=0 note=60 velocity=127 time=0.007291666666666667\n",
      "note_off channel=0 note=60 velocity=127 time=0.019791666666666666\n",
      "note_on channel=0 note=61 velocity=127 time=0.013541666666666667\n",
      "note_off channel=0 note=61 velocity=127 time=0.019791666666666666\n",
      "note_on channel=0 note=62 velocity=127 time=0.0375\n",
      "note_off channel=0 note=62 velocity=127 time=0.019791666666666666\n",
      "note_on channel=0 note=60 velocity=127 time=0.029166666666666667\n",
      "note_off channel=0 note=60 velocity=127 time=0.019791666666666666\n",
      "note_on channel=0 note=61 velocity=127 time=0.015625\n",
      "note_off channel=0 note=61 velocity=127 time=0.019791666666666666\n",
      "note_on channel=0 note=62 velocity=127 time=0.013541666666666667\n",
      "note_off channel=0 note=62 velocity=127 time=0.019791666666666666\n",
      "note_on channel=0 note=60 velocity=127 time=0.051041666666666666\n",
      "note_off channel=0 note=60 velocity=127 time=0.019791666666666666\n",
      "note_on channel=0 note=61 velocity=127 time=0.016666666666666666\n",
      "note_on channel=0 note=62 velocity=127 time=0.009375\n",
      "note_off channel=0 note=61 velocity=127 time=0.011458333333333333\n",
      "note_off channel=0 note=62 velocity=127 time=0.009375\n",
      "note_on channel=0 note=60 velocity=127 time=0.07395833333333333\n",
      "note_off channel=0 note=60 velocity=127 time=0.019791666666666666\n",
      "note_on channel=0 note=62 velocity=127 time=0.004166666666666667\n",
      "note_on channel=0 note=61 velocity=127 time=0.015625\n",
      "note_off channel=0 note=62 velocity=127 time=0.005208333333333333\n",
      "note_off channel=0 note=61 velocity=127 time=0.015625\n",
      "note_on channel=0 note=60 velocity=127 time=0.08020833333333333\n",
      "note_on channel=0 note=62 velocity=127 time=0.0020833333333333333\n",
      "note_off channel=0 note=60 velocity=127 time=0.017708333333333333\n",
      "note_off channel=0 note=62 velocity=127 time=0.0020833333333333333\n",
      "note_on channel=0 note=61 velocity=127 time=0.01875\n",
      "note_off channel=0 note=61 velocity=127 time=0.019791666666666666\n",
      "note_on channel=0 note=62 velocity=127 time=0.058333333333333334\n",
      "note_off channel=0 note=62 velocity=127 time=0.019791666666666666\n",
      "note_on channel=0 note=60 velocity=127 time=0\n",
      "note_off channel=0 note=60 velocity=127 time=0.019791666666666666\n",
      "note_on channel=0 note=61 velocity=127 time=0.022916666666666665\n",
      "note_off channel=0 note=61 velocity=127 time=0.019791666666666666\n",
      "note_on channel=0 note=62 velocity=127 time=0.034375\n",
      "note_off channel=0 note=62 velocity=127 time=0.019791666666666666\n",
      "note_on channel=0 note=60 velocity=127 time=0.022916666666666665\n",
      "note_off channel=0 note=60 velocity=127 time=0.019791666666666666\n",
      "note_on channel=0 note=61 velocity=127 time=0.025\n",
      "note_off channel=0 note=61 velocity=127 time=0.019791666666666666\n",
      "note_on channel=0 note=62 velocity=127 time=0.010416666666666666\n",
      "note_off channel=0 note=62 velocity=127 time=0.019791666666666666\n",
      "note_on channel=0 note=60 velocity=127 time=0.04479166666666667\n",
      "note_off channel=0 note=60 velocity=127 time=0.019791666666666666\n",
      "note_on channel=0 note=61 velocity=127 time=0.027083333333333334\n",
      "\u001b[91m [DEBUG] > \u001b[0m\n",
      " |>  to_array: msg.time > max_t; t, n\n",
      " |>  2.011458333333333\n",
      " |>  100\n",
      "note_on channel=0 note=61 velocity=127 time=0.058333333333333334\n",
      "note_on channel=0 note=62 velocity=127 time=0.011458333333333333\n",
      "note_off channel=0 note=61 velocity=127 time=0.008333333333333333\n",
      "note_off channel=0 note=62 velocity=127 time=0.011458333333333333\n",
      "note_on channel=0 note=61 velocity=127 time=0.03958333333333333\n",
      "note_on channel=0 note=60 velocity=127 time=0.015625\n",
      "note_off channel=0 note=61 velocity=127 time=0.005208333333333333\n",
      "note_off channel=0 note=60 velocity=127 time=0.015625\n",
      "note_on channel=0 note=61 velocity=127 time=0.035416666666666666\n",
      "note_on channel=0 note=62 velocity=127 time=0.008333333333333333\n",
      "note_off channel=0 note=61 velocity=127 time=0.011458333333333333\n",
      "note_off channel=0 note=62 velocity=127 time=0.008333333333333333\n",
      "note_on channel=0 note=61 velocity=127 time=0.041666666666666664\n",
      "note_off channel=0 note=61 velocity=127 time=0.019791666666666666\n",
      "note_on channel=0 note=61 velocity=127 time=0.05\n",
      "note_on channel=0 note=62 velocity=127 time=0.005208333333333333\n",
      "note_off channel=0 note=61 velocity=127 time=0.014583333333333334\n",
      "note_off channel=0 note=62 velocity=127 time=0.005208333333333333\n",
      "note_on channel=0 note=60 velocity=127 time=0.03958333333333333\n",
      "note_on channel=0 note=61 velocity=127 time=0.005208333333333333\n",
      "note_off channel=0 note=60 velocity=127 time=0.014583333333333334\n",
      "note_off channel=0 note=61 velocity=127 time=0.005208333333333333\n",
      "note_on channel=0 note=61 velocity=127 time=0.05\n",
      "note_on channel=0 note=62 velocity=127 time=0.003125\n",
      "note_off channel=0 note=61 velocity=127 time=0.017708333333333333\n",
      "note_off channel=0 note=62 velocity=127 time=0.003125\n",
      "note_on channel=0 note=61 velocity=127 time=0.04791666666666666\n",
      "note_off channel=0 note=61 velocity=127 time=0.019791666666666666\n",
      "note_on channel=0 note=62 velocity=127 time=0.05\n",
      "note_on channel=0 note=61 velocity=127 time=0\n",
      "note_off channel=0 note=62 velocity=127 time=0.019791666666666666\n",
      "note_off channel=0 note=61 velocity=127 time=0\n",
      "note_on channel=0 note=60 velocity=127 time=0.025\n",
      "note_off channel=0 note=60 velocity=127 time=0.019791666666666666\n",
      "note_on channel=0 note=61 velocity=127 time=0.00625\n",
      "note_off channel=0 note=61 velocity=127 time=0.019791666666666666\n",
      "note_on channel=0 note=62 velocity=127 time=0.04791666666666666\n",
      "note_on channel=0 note=61 velocity=127 time=0.003125\n",
      "note_off channel=0 note=62 velocity=127 time=0.016666666666666666\n",
      "note_off channel=0 note=61 velocity=127 time=0.003125\n",
      "note_on channel=0 note=61 velocity=127 time=0.05\n",
      "note_off channel=0 note=61 velocity=127 time=0.019791666666666666\n",
      "note_on channel=0 note=62 velocity=127 time=0.04479166666666667\n",
      "note_on channel=0 note=61 velocity=127 time=0.005208333333333333\n",
      "note_off channel=0 note=62 velocity=127 time=0.014583333333333334\n",
      "note_off channel=0 note=61 velocity=127 time=0.005208333333333333\n",
      "note_on channel=0 note=60 velocity=127 time=0.004166666666666667\n",
      "note_off channel=0 note=60 velocity=127 time=0.019791666666666666\n",
      "note_on channel=0 note=61 velocity=127 time=0.026041666666666668\n",
      "note_off channel=0 note=61 velocity=127 time=0.019791666666666666\n",
      "note_on channel=0 note=62 velocity=127 time=0.041666666666666664\n",
      "note_on channel=0 note=61 velocity=127 time=0.008333333333333333\n",
      "note_off channel=0 note=62 velocity=127 time=0.011458333333333333\n",
      "note_off channel=0 note=61 velocity=127 time=0.008333333333333333\n",
      "note_on channel=0 note=61 velocity=127 time=0.05\n",
      "note_off channel=0 note=61 velocity=127 time=0.019791666666666666\n",
      "note_on channel=0 note=62 velocity=127 time=0.03854166666666667\n",
      "note_on channel=0 note=61 velocity=127 time=0.011458333333333333\n",
      "note_on channel=0 note=60 velocity=127 time=0.004166666666666667\n",
      "note_off channel=0 note=62 velocity=127 time=0.005208333333333333\n",
      "note_off channel=0 note=61 velocity=127 time=0.011458333333333333\n",
      "note_off channel=0 note=60 velocity=127 time=0.004166666666666667\n",
      "note_on channel=0 note=61 velocity=127 time=0.046875\n",
      "note_off channel=0 note=61 velocity=127 time=0.019791666666666666\n",
      "note_on channel=0 note=62 velocity=127 time=0.036458333333333336\n",
      "note_on channel=0 note=61 velocity=127 time=0.014583333333333334\n",
      "note_off channel=0 note=62 velocity=127 time=0.00625\n",
      "note_off channel=0 note=61 velocity=127 time=0.014583333333333334\n",
      "note_on channel=0 note=61 velocity=127 time=0.05\n",
      "note_off channel=0 note=61 velocity=127 time=0.019791666666666666\n",
      "note_on channel=0 note=62 velocity=127 time=0.03333333333333333\n",
      "note_on channel=0 note=60 velocity=127 time=0\n",
      "note_on channel=0 note=61 velocity=127 time=0.016666666666666666\n",
      "note_off channel=0 note=62 velocity=127 time=0.003125\n",
      "note_off channel=0 note=60 velocity=127 time=0\n",
      "note_off channel=0 note=61 velocity=127 time=0.016666666666666666\n",
      "note_on channel=0 note=61 velocity=127 time=0.05\n",
      "note_off channel=0 note=61 velocity=127 time=0.019791666666666666\n",
      "note_on channel=0 note=62 velocity=127 time=0.030208333333333334\n",
      "note_on channel=0 note=61 velocity=127 time=0.019791666666666666\n",
      "note_off channel=0 note=62 velocity=127 time=0\n",
      "note_off channel=0 note=61 velocity=127 time=0.019791666666666666\n",
      "note_on channel=0 note=61 velocity=127 time=0.05\n",
      "note_off channel=0 note=61 velocity=127 time=0.019791666666666666\n",
      "note_on channel=0 note=60 velocity=127 time=0.013541666666666667\n",
      "note_on channel=0 note=62 velocity=127 time=0.014583333333333334\n",
      "note_off channel=0 note=60 velocity=127 time=0.005208333333333333\n",
      "note_off channel=0 note=62 velocity=127 time=0.014583333333333334\n",
      "note_on channel=0 note=61 velocity=127 time=0.003125\n",
      "note_off channel=0 note=61 velocity=127 time=0.019791666666666666\n",
      "note_on channel=0 note=61 velocity=127 time=0.05\n",
      "note_off channel=0 note=61 velocity=127 time=0.019791666666666666\n",
      "note_on channel=0 note=62 velocity=127 time=0.025\n",
      "note_off channel=0 note=62 velocity=127 time=0.019791666666666666\n",
      "note_on channel=0 note=61 velocity=127 time=0.005208333333333333\n",
      "note_off channel=0 note=61 velocity=127 time=0.019791666666666666\n",
      "note_on channel=0 note=61 velocity=127 time=0.05\n",
      "note_on channel=0 note=60 velocity=127 time=0.0125\n",
      "note_off channel=0 note=61 velocity=127 time=0.007291666666666667\n",
      "note_off channel=0 note=60 velocity=127 time=0.0125\n",
      "note_on channel=0 note=62 velocity=127 time=0.009375\n",
      "\u001b[91m [DEBUG] > \u001b[0m\n",
      " |>  to_array: msg.time > max_t; t, n\n",
      " |>  1.996875\n",
      " |>  100\n",
      "note_on channel=0 note=61 velocity=127 time=0.03854166666666667\n",
      "note_off channel=0 note=61 velocity=127 time=0.019791666666666666\n",
      "note_on channel=0 note=62 velocity=127 time=0.0020833333333333333\n",
      "note_on channel=0 note=60 velocity=127 time=0.0010416666666666667\n",
      "note_off channel=0 note=62 velocity=127 time=0.01875\n",
      "note_off channel=0 note=60 velocity=127 time=0.0010416666666666667\n",
      "note_on channel=0 note=61 velocity=127 time=0.057291666666666664\n",
      "note_on channel=0 note=62 velocity=127 time=0.0125\n",
      "note_off channel=0 note=61 velocity=127 time=0.007291666666666667\n",
      "note_off channel=0 note=62 velocity=127 time=0.0125\n",
      "note_on channel=0 note=60 velocity=127 time=0.0375\n",
      "note_off channel=0 note=60 velocity=127 time=0.019791666666666666\n",
      "note_on channel=0 note=61 velocity=127 time=0.011458333333333333\n",
      "note_on channel=0 note=62 velocity=127 time=0.003125\n",
      "note_off channel=0 note=61 velocity=127 time=0.016666666666666666\n",
      "note_off channel=0 note=62 velocity=127 time=0.003125\n",
      "note_on channel=0 note=62 velocity=127 time=0.07083333333333333\n",
      "note_on channel=0 note=61 velocity=127 time=0.00625\n",
      "note_off channel=0 note=62 velocity=127 time=0.013541666666666667\n",
      "note_on channel=0 note=60 velocity=127 time=0.0020833333333333333\n",
      "note_off channel=0 note=61 velocity=127 time=0.004166666666666667\n",
      "note_off channel=0 note=60 velocity=127 time=0.015625\n",
      "note_on channel=0 note=62 velocity=127 time=0.04895833333333333\n",
      "note_on channel=0 note=61 velocity=127 time=0.016666666666666666\n",
      "note_off channel=0 note=62 velocity=127 time=0.004166666666666667\n",
      "note_off channel=0 note=61 velocity=127 time=0.016666666666666666\n",
      "note_on channel=0 note=60 velocity=127 time=0.041666666666666664\n",
      "note_on channel=0 note=62 velocity=127 time=0.0125\n",
      "note_off channel=0 note=60 velocity=127 time=0.007291666666666667\n",
      "note_off channel=0 note=62 velocity=127 time=0.0125\n",
      "note_on channel=0 note=61 velocity=127 time=0.00625\n",
      "note_off channel=0 note=61 velocity=127 time=0.019791666666666666\n",
      "note_on channel=0 note=62 velocity=127 time=0.04479166666666667\n",
      "note_off channel=0 note=62 velocity=127 time=0.019791666666666666\n",
      "note_on channel=0 note=61 velocity=127 time=0.015625\n",
      "note_on channel=0 note=60 velocity=127 time=0.007291666666666667\n",
      "note_off channel=0 note=61 velocity=127 time=0.0125\n",
      "note_off channel=0 note=60 velocity=127 time=0.007291666666666667\n",
      "note_on channel=0 note=62 velocity=127 time=0.028125\n",
      "note_off channel=0 note=62 velocity=127 time=0.019791666666666666\n",
      "note_on channel=0 note=61 velocity=127 time=0.025\n",
      "note_off channel=0 note=61 velocity=127 time=0.019791666666666666\n",
      "note_on channel=0 note=62 velocity=127 time=0.026041666666666668\n",
      "note_on channel=0 note=60 velocity=127 time=0.008333333333333333\n",
      "note_off channel=0 note=62 velocity=127 time=0.011458333333333333\n",
      "note_off channel=0 note=60 velocity=127 time=0.008333333333333333\n",
      "note_on channel=0 note=61 velocity=127 time=0.026041666666666668\n",
      "note_off channel=0 note=61 velocity=127 time=0.019791666666666666\n",
      "note_on channel=0 note=62 velocity=127 time=0.016666666666666666\n",
      "note_off channel=0 note=62 velocity=127 time=0.019791666666666666\n",
      "note_on channel=0 note=61 velocity=127 time=0.04375\n",
      "note_on channel=0 note=60 velocity=127 time=0\n",
      "note_off channel=0 note=61 velocity=127 time=0.019791666666666666\n",
      "note_off channel=0 note=60 velocity=127 time=0\n",
      "note_on channel=0 note=62 velocity=127 time=0.007291666666666667\n",
      "note_off channel=0 note=62 velocity=127 time=0.019791666666666666\n",
      "note_on channel=0 note=61 velocity=127 time=0.053125\n",
      "note_on channel=0 note=62 velocity=127 time=0.017708333333333333\n",
      "note_off channel=0 note=61 velocity=127 time=0.0020833333333333333\n",
      "note_off channel=0 note=62 velocity=127 time=0.017708333333333333\n",
      "note_on channel=0 note=60 velocity=127 time=0.009375\n",
      "note_off channel=0 note=60 velocity=127 time=0.019791666666666666\n",
      "note_on channel=0 note=61 velocity=127 time=0.034375\n",
      "note_on channel=0 note=62 velocity=127 time=0.008333333333333333\n",
      "note_off channel=0 note=61 velocity=127 time=0.0125\n",
      "note_off channel=0 note=62 velocity=127 time=0.008333333333333333\n",
      "note_on channel=0 note=60 velocity=127 time=0.065625\n",
      "note_on channel=0 note=62 velocity=127 time=0.00625\n",
      "note_on channel=0 note=61 velocity=127 time=0.0020833333333333333\n",
      "note_off channel=0 note=60 velocity=127 time=0.0125\n",
      "note_off channel=0 note=62 velocity=127 time=0.00625\n",
      "note_off channel=0 note=61 velocity=127 time=0.0020833333333333333\n",
      "note_on channel=0 note=62 velocity=127 time=0.06979166666666667\n",
      "note_on channel=0 note=61 velocity=127 time=0.011458333333333333\n",
      "note_off channel=0 note=62 velocity=127 time=0.008333333333333333\n",
      "note_off channel=0 note=61 velocity=127 time=0.011458333333333333\n",
      "note_on channel=0 note=60 velocity=127 time=0.01875\n",
      "note_off channel=0 note=60 velocity=127 time=0.019791666666666666\n",
      "note_on channel=0 note=62 velocity=127 time=0.020833333333333332\n",
      "note_off channel=0 note=62 velocity=127 time=0.019791666666666666\n",
      "note_on channel=0 note=61 velocity=127 time=0.0010416666666666667\n",
      "note_off channel=0 note=61 velocity=127 time=0.019791666666666666\n",
      "note_on channel=0 note=62 velocity=127 time=0.05\n",
      "note_on channel=0 note=60 velocity=127 time=0.015625\n",
      "note_off channel=0 note=62 velocity=127 time=0.005208333333333333\n",
      "note_on channel=0 note=61 velocity=127 time=0.010416666666666666\n",
      "note_off channel=0 note=60 velocity=127 time=0.005208333333333333\n",
      "note_off channel=0 note=61 velocity=127 time=0.014583333333333334\n",
      "note_on channel=0 note=62 velocity=127 time=0.040625\n",
      "note_off channel=0 note=62 velocity=127 time=0.019791666666666666\n",
      "note_on channel=0 note=61 velocity=127 time=0.019791666666666666\n",
      "note_off channel=0 note=61 velocity=127 time=0.019791666666666666\n",
      "note_on channel=0 note=60 velocity=127 time=0.011458333333333333\n",
      "note_on channel=0 note=62 velocity=127 time=0.019791666666666666\n",
      "note_off channel=0 note=60 velocity=127 time=0\n",
      "note_off channel=0 note=62 velocity=127 time=0.019791666666666666\n",
      "note_on channel=0 note=61 velocity=127 time=0.029166666666666667\n",
      "note_off channel=0 note=61 velocity=127 time=0.019791666666666666\n",
      "note_on channel=0 note=62 velocity=127 time=0.021875\n",
      "note_off channel=0 note=62 velocity=127 time=0.019791666666666666\n",
      "note_on channel=0 note=60 velocity=127 time=0.016666666666666666\n",
      "note_off channel=0 note=60 velocity=127 time=0.019791666666666666\n",
      "note_on channel=0 note=61 velocity=127 time=0.003125\n",
      "note_off channel=0 note=61 velocity=127 time=0.019791666666666666\n",
      "note_on channel=0 note=62 velocity=127 time=0.0125\n",
      "note_off channel=0 note=62 velocity=127 time=0.019791666666666666\n",
      "note_on channel=0 note=61 velocity=127 time=0.04895833333333333\n",
      "note_off channel=0 note=61 velocity=127 time=0.019791666666666666\n",
      "note_on channel=0 note=62 velocity=127 time=0.0020833333333333333\n",
      "note_on channel=0 note=60 velocity=127 time=0.0010416666666666667\n",
      "note_off channel=0 note=62 velocity=127 time=0.01875\n",
      "\u001b[91m [DEBUG] > \u001b[0m\n",
      " |>  to_array: msg.time > max_t; t, n\n",
      " |>  1.9927083333333333\n",
      " |>  100\n",
      "note_on channel=0 note=61 velocity=127 time=0.009375\n",
      "note_off channel=0 note=61 velocity=127 time=0.019791666666666666\n",
      "note_on channel=0 note=60 velocity=127 time=0.027083333333333334\n",
      "note_on channel=0 note=62 velocity=127 time=0.009375\n",
      "note_off channel=0 note=60 velocity=127 time=0.010416666666666666\n",
      "note_on channel=0 note=61 velocity=127 time=0.005208333333333333\n",
      "note_off channel=0 note=62 velocity=127 time=0.005208333333333333\n",
      "note_off channel=0 note=61 velocity=127 time=0.014583333333333334\n",
      "note_on channel=0 note=60 velocity=127 time=0.036458333333333336\n",
      "note_on channel=0 note=62 velocity=127 time=0.009375\n",
      "note_on channel=0 note=61 velocity=127 time=0.00625\n",
      "note_off channel=0 note=60 velocity=127 time=0.004166666666666667\n",
      "note_off channel=0 note=62 velocity=127 time=0.009375\n",
      "note_off channel=0 note=61 velocity=127 time=0.00625\n",
      "note_on channel=0 note=60 velocity=127 time=0.04479166666666667\n",
      "note_on channel=0 note=61 velocity=127 time=0.00625\n",
      "note_on channel=0 note=62 velocity=127 time=0.0020833333333333333\n",
      "note_off channel=0 note=60 velocity=127 time=0.010416666666666666\n",
      "note_off channel=0 note=61 velocity=127 time=0.00625\n",
      "note_off channel=0 note=62 velocity=127 time=0.0020833333333333333\n",
      "note_on channel=0 note=61 velocity=127 time=0.04895833333333333\n",
      "note_on channel=0 note=60 velocity=127 time=0.0020833333333333333\n",
      "note_on channel=0 note=62 velocity=127 time=0.009375\n",
      "note_off channel=0 note=61 velocity=127 time=0.008333333333333333\n",
      "note_off channel=0 note=60 velocity=127 time=0.0020833333333333333\n",
      "note_off channel=0 note=62 velocity=127 time=0.009375\n",
      "note_on channel=0 note=61 velocity=127 time=0.040625\n",
      "note_on channel=0 note=60 velocity=127 time=0.011458333333333333\n",
      "note_off channel=0 note=61 velocity=127 time=0.008333333333333333\n",
      "note_on channel=0 note=62 velocity=127 time=0\n",
      "note_off channel=0 note=60 velocity=127 time=0.011458333333333333\n",
      "note_off channel=0 note=62 velocity=127 time=0.008333333333333333\n",
      "note_on channel=0 note=61 velocity=127 time=0.03125\n",
      "note_off channel=0 note=61 velocity=127 time=0.019791666666666666\n",
      "note_on channel=0 note=60 velocity=127 time=0.0010416666666666667\n",
      "note_on channel=0 note=62 velocity=127 time=0.008333333333333333\n",
      "note_off channel=0 note=60 velocity=127 time=0.011458333333333333\n",
      "note_off channel=0 note=62 velocity=127 time=0.008333333333333333\n",
      "note_on channel=0 note=61 velocity=127 time=0.022916666666666665\n",
      "note_off channel=0 note=61 velocity=127 time=0.019791666666666666\n",
      "note_on channel=0 note=60 velocity=127 time=0.009375\n",
      "note_on channel=0 note=62 velocity=127 time=0.008333333333333333\n",
      "note_off channel=0 note=60 velocity=127 time=0.011458333333333333\n",
      "note_off channel=0 note=62 velocity=127 time=0.008333333333333333\n",
      "note_on channel=0 note=61 velocity=127 time=0.013541666666666667\n",
      "note_off channel=0 note=61 velocity=127 time=0.019791666666666666\n",
      "note_on channel=0 note=60 velocity=127 time=0.01875\n",
      "note_on channel=0 note=62 velocity=127 time=0.008333333333333333\n",
      "note_off channel=0 note=60 velocity=127 time=0.011458333333333333\n",
      "note_off channel=0 note=62 velocity=127 time=0.008333333333333333\n",
      "note_on channel=0 note=61 velocity=127 time=0.005208333333333333\n",
      "note_off channel=0 note=61 velocity=127 time=0.019791666666666666\n",
      "note_on channel=0 note=60 velocity=127 time=0.028125\n",
      "note_on channel=0 note=62 velocity=127 time=0.008333333333333333\n",
      "note_off channel=0 note=60 velocity=127 time=0.0125\n",
      "note_on channel=0 note=61 velocity=127 time=0.004166666666666667\n",
      "note_off channel=0 note=62 velocity=127 time=0.004166666666666667\n",
      "note_off channel=0 note=61 velocity=127 time=0.015625\n",
      "note_on channel=0 note=60 velocity=127 time=0.036458333333333336\n",
      "note_on channel=0 note=62 velocity=127 time=0.007291666666666667\n",
      "note_on channel=0 note=61 velocity=127 time=0.007291666666666667\n",
      "note_off channel=0 note=60 velocity=127 time=0.005208333333333333\n",
      "note_off channel=0 note=62 velocity=127 time=0.007291666666666667\n",
      "note_off channel=0 note=61 velocity=127 time=0.007291666666666667\n",
      "note_on channel=0 note=60 velocity=127 time=0.04583333333333333\n",
      "note_on channel=0 note=61 velocity=127 time=0.00625\n",
      "note_on channel=0 note=62 velocity=127 time=0.0020833333333333333\n",
      "note_off channel=0 note=60 velocity=127 time=0.0125\n",
      "note_off channel=0 note=61 velocity=127 time=0.00625\n",
      "note_off channel=0 note=62 velocity=127 time=0.0020833333333333333\n",
      "note_on channel=0 note=61 velocity=127 time=0.05\n",
      "note_on channel=0 note=60 velocity=127 time=0.003125\n",
      "note_on channel=0 note=62 velocity=127 time=0.007291666666666667\n",
      "note_off channel=0 note=61 velocity=127 time=0.009375\n",
      "note_off channel=0 note=60 velocity=127 time=0.003125\n",
      "note_off channel=0 note=62 velocity=127 time=0.007291666666666667\n",
      "note_on channel=0 note=61 velocity=127 time=0.041666666666666664\n",
      "note_on channel=0 note=60 velocity=127 time=0.0125\n",
      "note_on channel=0 note=62 velocity=127 time=0.007291666666666667\n",
      "note_off channel=0 note=61 velocity=127 time=0.0010416666666666667\n",
      "note_off channel=0 note=60 velocity=127 time=0.0125\n",
      "note_off channel=0 note=62 velocity=127 time=0.007291666666666667\n",
      "note_on channel=0 note=61 velocity=127 time=0.03229166666666666\n",
      "note_off channel=0 note=61 velocity=127 time=0.019791666666666666\n",
      "note_on channel=0 note=60 velocity=127 time=0.0010416666666666667\n",
      "note_on channel=0 note=62 velocity=127 time=0.007291666666666667\n",
      "note_off channel=0 note=60 velocity=127 time=0.013541666666666667\n",
      "note_off channel=0 note=62 velocity=127 time=0.007291666666666667\n",
      "note_on channel=0 note=61 velocity=127 time=0.02395833333333333\n",
      "note_off channel=0 note=61 velocity=127 time=0.019791666666666666\n",
      "note_on channel=0 note=60 velocity=127 time=0.010416666666666666\n",
      "note_on channel=0 note=62 velocity=127 time=0.00625\n",
      "note_off channel=0 note=60 velocity=127 time=0.013541666666666667\n",
      "note_off channel=0 note=62 velocity=127 time=0.00625\n",
      "note_on channel=0 note=61 velocity=127 time=0.014583333333333334\n",
      "note_off channel=0 note=61 velocity=127 time=0.019791666666666666\n",
      "note_on channel=0 note=60 velocity=127 time=0.019791666666666666\n",
      "note_on channel=0 note=62 velocity=127 time=0.00625\n",
      "note_off channel=0 note=60 velocity=127 time=0.013541666666666667\n",
      "note_off channel=0 note=62 velocity=127 time=0.00625\n",
      "note_on channel=0 note=61 velocity=127 time=0.00625\n",
      "note_off channel=0 note=61 velocity=127 time=0.019791666666666666\n",
      "note_on channel=0 note=60 velocity=127 time=0.028125\n",
      "note_on channel=0 note=62 velocity=127 time=0.00625\n",
      "note_off channel=0 note=60 velocity=127 time=0.013541666666666667\n",
      "note_on channel=0 note=61 velocity=127 time=0.003125\n",
      "note_off channel=0 note=62 velocity=127 time=0.003125\n",
      "note_off channel=0 note=61 velocity=127 time=0.016666666666666666\n",
      "note_on channel=0 note=60 velocity=127 time=0.0375\n",
      "note_on channel=0 note=62 velocity=127 time=0.00625\n",
      "note_on channel=0 note=61 velocity=127 time=0.008333333333333333\n",
      "note_off channel=0 note=60 velocity=127 time=0.005208333333333333\n",
      "note_off channel=0 note=62 velocity=127 time=0.00625\n",
      "note_off channel=0 note=61 velocity=127 time=0.008333333333333333\n",
      "note_on channel=0 note=60 velocity=127 time=0.046875\n",
      "note_on channel=0 note=61 velocity=127 time=0.005208333333333333\n",
      "note_on channel=0 note=62 velocity=127 time=0.0010416666666666667\n",
      "note_off channel=0 note=60 velocity=127 time=0.014583333333333334\n",
      "note_off channel=0 note=61 velocity=127 time=0.005208333333333333\n",
      "note_off channel=0 note=62 velocity=127 time=0.0010416666666666667\n",
      "note_on channel=0 note=61 velocity=127 time=0.051041666666666666\n",
      "note_on channel=0 note=60 velocity=127 time=0.004166666666666667\n",
      "note_on channel=0 note=62 velocity=127 time=0.005208333333333333\n",
      "note_off channel=0 note=61 velocity=127 time=0.010416666666666666\n",
      "note_off channel=0 note=60 velocity=127 time=0.004166666666666667\n",
      "note_off channel=0 note=62 velocity=127 time=0.005208333333333333\n",
      "note_on channel=0 note=61 velocity=127 time=0.042708333333333334\n",
      "note_on channel=0 note=60 velocity=127 time=0.0125\n",
      "note_on channel=0 note=62 velocity=127 time=0.005208333333333333\n",
      "note_off channel=0 note=61 velocity=127 time=0.0020833333333333333\n",
      "note_off channel=0 note=60 velocity=127 time=0.0125\n",
      "note_off channel=0 note=62 velocity=127 time=0.005208333333333333\n",
      "note_on channel=0 note=61 velocity=127 time=0.03333333333333333\n",
      "note_off channel=0 note=61 velocity=127 time=0.019791666666666666\n",
      "note_on channel=0 note=60 velocity=127 time=0.0020833333333333333\n",
      "note_on channel=0 note=62 velocity=127 time=0.005208333333333333\n",
      "note_off channel=0 note=60 velocity=127 time=0.014583333333333334\n",
      "note_off channel=0 note=62 velocity=127 time=0.005208333333333333\n",
      "note_on channel=0 note=61 velocity=127 time=0.025\n",
      "note_off channel=0 note=61 velocity=127 time=0.019791666666666666\n",
      "note_on channel=0 note=60 velocity=127 time=0.011458333333333333\n",
      "note_on channel=0 note=62 velocity=127 time=0.005208333333333333\n",
      "note_off channel=0 note=60 velocity=127 time=0.014583333333333334\n",
      "note_off channel=0 note=62 velocity=127 time=0.005208333333333333\n",
      "note_on channel=0 note=61 velocity=127 time=0.015625\n",
      "note_off channel=0 note=61 velocity=127 time=0.019791666666666666\n",
      "note_on channel=0 note=60 velocity=127 time=0.019791666666666666\n",
      "note_on channel=0 note=62 velocity=127 time=0.005208333333333333\n",
      "note_off channel=0 note=60 velocity=127 time=0.015625\n",
      "note_off channel=0 note=62 velocity=127 time=0.005208333333333333\n",
      "note_on channel=0 note=61 velocity=127 time=0.007291666666666667\n",
      "note_off channel=0 note=61 velocity=127 time=0.019791666666666666\n",
      "note_on channel=0 note=60 velocity=127 time=0.029166666666666667\n",
      "\u001b[91m [DEBUG] > \u001b[0m\n",
      " |>  to_array: msg.time > max_t; t, n\n",
      " |>  1.995833333333333\n",
      " |>  100\n",
      "note_on channel=0 note=61 velocity=127 time=0.028125\n",
      "note_off channel=0 note=61 velocity=127 time=0.019791666666666666\n",
      "note_on channel=0 note=60 velocity=127 time=0.014583333333333334\n",
      "note_off channel=0 note=60 velocity=127 time=0.019791666666666666\n",
      "note_on channel=0 note=60 velocity=127 time=0.05416666666666667\n",
      "note_on channel=0 note=61 velocity=127 time=0.004166666666666667\n",
      "note_off channel=0 note=60 velocity=127 time=0.016666666666666666\n",
      "note_off channel=0 note=61 velocity=127 time=0.004166666666666667\n",
      "note_on channel=0 note=62 velocity=127 time=0.022916666666666665\n"
     ]
    },
    {
     "name": "stdout",
     "output_type": "stream",
     "text": [
      "note_off channel=0 note=62 velocity=127 time=0.019791666666666666\n",
      "note_on channel=0 note=60 velocity=127 time=0.008333333333333333\n",
      "note_off channel=0 note=60 velocity=127 time=0.019791666666666666\n",
      "note_on channel=0 note=61 velocity=127 time=0.021875\n",
      "note_off channel=0 note=61 velocity=127 time=0.019791666666666666\n",
      "note_on channel=0 note=60 velocity=127 time=0.0125\n",
      "note_off channel=0 note=60 velocity=127 time=0.019791666666666666\n",
      "note_on channel=0 note=60 velocity=127 time=0.05416666666666667\n",
      "note_on channel=0 note=61 velocity=127 time=0.005208333333333333\n",
      "note_off channel=0 note=60 velocity=127 time=0.014583333333333334\n",
      "note_off channel=0 note=61 velocity=127 time=0.005208333333333333\n",
      "note_on channel=0 note=62 velocity=127 time=0.004166666666666667\n",
      "note_off channel=0 note=62 velocity=127 time=0.019791666666666666\n",
      "note_on channel=0 note=60 velocity=127 time=0.025\n",
      "note_off channel=0 note=60 velocity=127 time=0.019791666666666666\n",
      "note_on channel=0 note=61 velocity=127 time=0.022916666666666665\n",
      "note_off channel=0 note=61 velocity=127 time=0.019791666666666666\n",
      "note_on channel=0 note=60 velocity=127 time=0.011458333333333333\n",
      "note_off channel=0 note=60 velocity=127 time=0.019791666666666666\n",
      "note_on channel=0 note=60 velocity=127 time=0.05416666666666667\n",
      "note_on channel=0 note=61 velocity=127 time=0.00625\n",
      "note_on channel=0 note=62 velocity=127 time=0.005208333333333333\n",
      "note_off channel=0 note=60 velocity=127 time=0.008333333333333333\n",
      "note_off channel=0 note=61 velocity=127 time=0.00625\n",
      "note_off channel=0 note=62 velocity=127 time=0.005208333333333333\n",
      "note_on channel=0 note=60 velocity=127 time=0.042708333333333334\n",
      "note_off channel=0 note=60 velocity=127 time=0.019791666666666666\n",
      "note_on channel=0 note=61 velocity=127 time=0.025\n",
      "note_off channel=0 note=61 velocity=127 time=0.019791666666666666\n",
      "note_on channel=0 note=60 velocity=127 time=0.009375\n",
      "note_off channel=0 note=60 velocity=127 time=0.019791666666666666\n",
      "note_on channel=0 note=62 velocity=127 time=0.04895833333333333\n",
      "note_on channel=0 note=60 velocity=127 time=0.00625\n",
      "note_on channel=0 note=61 velocity=127 time=0.008333333333333333\n",
      "note_off channel=0 note=62 velocity=127 time=0.00625\n",
      "note_off channel=0 note=60 velocity=127 time=0.00625\n",
      "note_off channel=0 note=61 velocity=127 time=0.008333333333333333\n",
      "note_on channel=0 note=60 velocity=127 time=0.04583333333333333\n",
      "note_off channel=0 note=60 velocity=127 time=0.019791666666666666\n",
      "note_on channel=0 note=61 velocity=127 time=0.026041666666666668\n",
      "note_off channel=0 note=61 velocity=127 time=0.019791666666666666\n",
      "note_on channel=0 note=60 velocity=127 time=0.008333333333333333\n",
      "note_off channel=0 note=60 velocity=127 time=0.019791666666666666\n",
      "note_on channel=0 note=62 velocity=127 time=0.03125\n",
      "note_off channel=0 note=62 velocity=127 time=0.019791666666666666\n",
      "note_on channel=0 note=60 velocity=127 time=0.003125\n",
      "note_on channel=0 note=61 velocity=127 time=0.009375\n",
      "note_off channel=0 note=60 velocity=127 time=0.010416666666666666\n",
      "note_off channel=0 note=61 velocity=127 time=0.009375\n",
      "note_on channel=0 note=60 velocity=127 time=0.04479166666666667\n",
      "note_off channel=0 note=60 velocity=127 time=0.019791666666666666\n",
      "note_on channel=0 note=61 velocity=127 time=0.028125\n",
      "note_off channel=0 note=61 velocity=127 time=0.019791666666666666\n",
      "note_on channel=0 note=60 velocity=127 time=0.00625\n",
      "note_off channel=0 note=60 velocity=127 time=0.019791666666666666\n",
      "note_on channel=0 note=62 velocity=127 time=0.013541666666666667\n",
      "note_off channel=0 note=62 velocity=127 time=0.019791666666666666\n",
      "note_on channel=0 note=60 velocity=127 time=0.020833333333333332\n",
      "note_on channel=0 note=61 velocity=127 time=0.011458333333333333\n",
      "note_off channel=0 note=60 velocity=127 time=0.008333333333333333\n",
      "note_off channel=0 note=61 velocity=127 time=0.011458333333333333\n",
      "note_on channel=0 note=60 velocity=127 time=0.042708333333333334\n",
      "note_off channel=0 note=60 velocity=127 time=0.019791666666666666\n",
      "note_on channel=0 note=61 velocity=127 time=0.029166666666666667\n",
      "note_off channel=0 note=61 velocity=127 time=0.019791666666666666\n",
      "note_on channel=0 note=60 velocity=127 time=0.005208333333333333\n",
      "note_on channel=0 note=62 velocity=127 time=0.016666666666666666\n",
      "note_off channel=0 note=60 velocity=127 time=0.003125\n",
      "note_off channel=0 note=62 velocity=127 time=0.016666666666666666\n",
      "note_on channel=0 note=60 velocity=127 time=0.03854166666666667\n",
      "note_on channel=0 note=61 velocity=127 time=0.0125\n",
      "note_off channel=0 note=60 velocity=127 time=0.007291666666666667\n",
      "note_off channel=0 note=61 velocity=127 time=0.0125\n",
      "note_on channel=0 note=60 velocity=127 time=0.041666666666666664\n",
      "note_off channel=0 note=60 velocity=127 time=0.019791666666666666\n",
      "note_on channel=0 note=61 velocity=127 time=0.03125\n",
      "note_off channel=0 note=61 velocity=127 time=0.019791666666666666\n",
      "note_on channel=0 note=62 velocity=127 time=0.0020833333333333333\n",
      "note_on channel=0 note=60 velocity=127 time=0.0010416666666666667\n",
      "note_off channel=0 note=62 velocity=127 time=0.01875\n",
      "note_off channel=0 note=60 velocity=127 time=0.0010416666666666667\n",
      "note_on channel=0 note=60 velocity=127 time=0.05416666666666667\n",
      "note_on channel=0 note=61 velocity=127 time=0.014583333333333334\n",
      "note_off channel=0 note=60 velocity=127 time=0.005208333333333333\n",
      "note_off channel=0 note=61 velocity=127 time=0.014583333333333334\n",
      "note_on channel=0 note=60 velocity=127 time=0.03958333333333333\n",
      "note_off channel=0 note=60 velocity=127 time=0.019791666666666666\n",
      "note_on channel=0 note=61 velocity=127 time=0.03229166666666666\n",
      "note_on channel=0 note=62 velocity=127 time=0.003125\n",
      "note_off channel=0 note=61 velocity=127 time=0.016666666666666666\n",
      "note_on channel=0 note=60 velocity=127 time=0.0020833333333333333\n",
      "note_off channel=0 note=62 velocity=127 time=0.0010416666666666667\n",
      "note_off channel=0 note=60 velocity=127 time=0.01875\n",
      "note_on channel=0 note=60 velocity=127 time=0.05416666666666667\n",
      "note_on channel=0 note=61 velocity=127 time=0.015625\n",
      "note_off channel=0 note=60 velocity=127 time=0.004166666666666667\n",
      "note_off channel=0 note=61 velocity=127 time=0.015625\n",
      "note_on channel=0 note=60 velocity=127 time=0.03854166666666667\n",
      "\u001b[91m [DEBUG] > \u001b[0m\n",
      " |>  to_array: msg.time > max_t; t, n\n",
      " |>  1.9906249999999992\n",
      " |>  100\n",
      "note_on channel=0 note=60 velocity=127 time=0.036458333333333336\n",
      "note_on channel=0 note=62 velocity=127 time=0.0010416666666666667\n",
      "note_on channel=0 note=61 velocity=127 time=0.016666666666666666\n",
      "note_off channel=0 note=60 velocity=127 time=0.003125\n",
      "note_off channel=0 note=62 velocity=127 time=0.0010416666666666667\n",
      "note_off channel=0 note=61 velocity=127 time=0.016666666666666666\n",
      "note_on channel=0 note=62 velocity=127 time=0.0375\n",
      "note_off channel=0 note=62 velocity=127 time=0.019791666666666666\n",
      "note_on channel=0 note=61 velocity=127 time=0.005208333333333333\n",
      "note_off channel=0 note=61 velocity=127 time=0.019791666666666666\n",
      "note_on channel=0 note=62 velocity=127 time=0.028125\n",
      "note_off channel=0 note=62 velocity=127 time=0.019791666666666666\n",
      "note_on channel=0 note=61 velocity=127 time=0.014583333333333334\n",
      "note_off channel=0 note=61 velocity=127 time=0.019791666666666666\n",
      "note_on channel=0 note=62 velocity=127 time=0.019791666666666666\n",
      "note_off channel=0 note=62 velocity=127 time=0.019791666666666666\n",
      "note_on channel=0 note=61 velocity=127 time=0.022916666666666665\n",
      "note_off channel=0 note=61 velocity=127 time=0.019791666666666666\n",
      "note_on channel=0 note=62 velocity=127 time=0.010416666666666666\n",
      "note_on channel=0 note=60 velocity=127 time=0.004166666666666667\n",
      "note_off channel=0 note=62 velocity=127 time=0.015625\n",
      "note_off channel=0 note=60 velocity=127 time=0.004166666666666667\n",
      "note_on channel=0 note=61 velocity=127 time=0.027083333333333334\n",
      "note_off channel=0 note=61 velocity=127 time=0.019791666666666666\n",
      "note_on channel=0 note=62 velocity=127 time=0.0020833333333333333\n",
      "note_off channel=0 note=62 velocity=127 time=0.019791666666666666\n",
      "note_on channel=0 note=61 velocity=127 time=0.040625\n",
      "note_on channel=0 note=62 velocity=127 time=0.0125\n",
      "note_off channel=0 note=61 velocity=127 time=0.007291666666666667\n",
      "note_off channel=0 note=62 velocity=127 time=0.0125\n",
      "note_on channel=0 note=61 velocity=127 time=0.05\n",
      "note_on channel=0 note=62 velocity=127 time=0.004166666666666667\n",
      "note_off channel=0 note=61 velocity=127 time=0.015625\n",
      "note_off channel=0 note=62 velocity=127 time=0.004166666666666667\n",
      "note_on channel=0 note=62 velocity=127 time=0.05416666666666667\n",
      "note_on channel=0 note=61 velocity=127 time=0.005208333333333333\n",
      "note_on channel=0 note=60 velocity=127 time=0.004166666666666667\n",
      "note_off channel=0 note=62 velocity=127 time=0.010416666666666666\n",
      "note_off channel=0 note=61 velocity=127 time=0.005208333333333333\n",
      "note_off channel=0 note=60 velocity=127 time=0.004166666666666667\n",
      "note_on channel=0 note=62 velocity=127 time=0.04479166666666667\n",
      "note_on channel=0 note=61 velocity=127 time=0.013541666666666667\n",
      "note_off channel=0 note=62 velocity=127 time=0.00625\n",
      "note_off channel=0 note=61 velocity=127 time=0.013541666666666667\n",
      "note_on channel=0 note=62 velocity=127 time=0.03958333333333333\n",
      "note_off channel=0 note=62 velocity=127 time=0.019791666666666666\n",
      "note_on channel=0 note=61 velocity=127 time=0.003125\n",
      "note_off channel=0 note=61 velocity=127 time=0.019791666666666666\n",
      "note_on channel=0 note=62 velocity=127 time=0.03125\n",
      "note_off channel=0 note=62 velocity=127 time=0.019791666666666666\n",
      "note_on channel=0 note=61 velocity=127 time=0.011458333333333333\n",
      "note_off channel=0 note=61 velocity=127 time=0.019791666666666666\n",
      "note_on channel=0 note=62 velocity=127 time=0.021875\n",
      "note_on channel=0 note=60 velocity=127 time=0.014583333333333334\n",
      "note_off channel=0 note=62 velocity=127 time=0.005208333333333333\n",
      "note_off channel=0 note=60 velocity=127 time=0.014583333333333334\n",
      "note_on channel=0 note=61 velocity=127 time=0.00625\n",
      "note_off channel=0 note=61 velocity=127 time=0.019791666666666666\n",
      "note_on channel=0 note=62 velocity=127 time=0.013541666666666667\n",
      "note_off channel=0 note=62 velocity=127 time=0.019791666666666666\n",
      "note_on channel=0 note=61 velocity=127 time=0.029166666666666667\n",
      "note_off channel=0 note=61 velocity=127 time=0.019791666666666666\n",
      "note_on channel=0 note=62 velocity=127 time=0.004166666666666667\n",
      "note_off channel=0 note=62 velocity=127 time=0.019791666666666666\n",
      "note_on channel=0 note=61 velocity=127 time=0.03854166666666667\n",
      "note_on channel=0 note=62 velocity=127 time=0.015625\n",
      "note_off channel=0 note=61 velocity=127 time=0.005208333333333333\n",
      "note_off channel=0 note=62 velocity=127 time=0.015625\n",
      "note_on channel=0 note=61 velocity=127 time=0.04791666666666666\n",
      "note_on channel=0 note=62 velocity=127 time=0.00625\n",
      "note_off channel=0 note=61 velocity=127 time=0.013541666666666667\n",
      "note_on channel=0 note=60 velocity=127 time=0.00625\n",
      "note_off channel=0 note=62 velocity=127 time=0.0010416666666666667\n",
      "note_off channel=0 note=60 velocity=127 time=0.019791666666666666\n",
      "note_on channel=0 note=62 velocity=127 time=0.034375\n",
      "note_on channel=0 note=61 velocity=127 time=0.003125\n",
      "note_off channel=0 note=62 velocity=127 time=0.017708333333333333\n",
      "note_off channel=0 note=61 velocity=127 time=0.003125\n",
      "note_on channel=0 note=62 velocity=127 time=0.051041666666666666\n",
      "note_on channel=0 note=61 velocity=127 time=0.011458333333333333\n",
      "note_off channel=0 note=62 velocity=127 time=0.008333333333333333\n",
      "note_off channel=0 note=61 velocity=127 time=0.011458333333333333\n",
      "note_on channel=0 note=62 velocity=127 time=0.041666666666666664\n",
      "note_off channel=0 note=62 velocity=127 time=0.019791666666666666\n",
      "note_on channel=0 note=61 velocity=127 time=0\n",
      "note_off channel=0 note=61 velocity=127 time=0.019791666666666666\n",
      "note_on channel=0 note=62 velocity=127 time=0.03333333333333333\n",
      "note_off channel=0 note=62 velocity=127 time=0.019791666666666666\n",
      "note_on channel=0 note=60 velocity=127 time=0.004166666666666667\n",
      "note_on channel=0 note=61 velocity=127 time=0.005208333333333333\n",
      "note_off channel=0 note=60 velocity=127 time=0.015625\n",
      "note_off channel=0 note=61 velocity=127 time=0.005208333333333333\n",
      "note_on channel=0 note=62 velocity=127 time=0.02395833333333333\n",
      "note_off channel=0 note=62 velocity=127 time=0.019791666666666666\n",
      "note_on channel=0 note=61 velocity=127 time=0.01875\n",
      "note_off channel=0 note=61 velocity=127 time=0.019791666666666666\n",
      "note_on channel=0 note=62 velocity=127 time=0.015625\n",
      "note_off channel=0 note=62 velocity=127 time=0.019791666666666666\n",
      "note_on channel=0 note=61 velocity=127 time=0.027083333333333334\n",
      "note_off channel=0 note=61 velocity=127 time=0.019791666666666666\n",
      "note_on channel=0 note=62 velocity=127 time=0.00625\n",
      "note_off channel=0 note=62 velocity=127 time=0.019791666666666666\n",
      "note_on channel=0 note=61 velocity=127 time=0.036458333333333336\n",
      "note_on channel=0 note=62 velocity=127 time=0.017708333333333333\n",
      "note_off channel=0 note=61 velocity=127 time=0.0020833333333333333\n",
      "note_off channel=0 note=62 velocity=127 time=0.017708333333333333\n",
      "note_on channel=0 note=60 velocity=127 time=0.009375\n",
      "note_off channel=0 note=60 velocity=127 time=0.019791666666666666\n",
      "note_on channel=0 note=61 velocity=127 time=0.015625\n",
      "note_on channel=0 note=62 velocity=127 time=0.008333333333333333\n",
      "note_off channel=0 note=61 velocity=127 time=0.011458333333333333\n",
      "note_off channel=0 note=62 velocity=127 time=0.008333333333333333\n",
      "note_on channel=0 note=62 velocity=127 time=0.05416666666666667\n",
      "note_on channel=0 note=61 velocity=127 time=0\n",
      "note_off channel=0 note=62 velocity=127 time=0.019791666666666666\n",
      "note_off channel=0 note=61 velocity=127 time=0\n",
      "note_on channel=0 note=62 velocity=127 time=0.053125\n",
      "\u001b[91m [DEBUG] > \u001b[0m\n",
      " |>  to_array: msg.time > max_t; t, n\n",
      " |>  2.0260416666666665\n",
      " |>  100\n",
      "note_on channel=0 note=62 velocity=127 time=0.004166666666666667\n",
      "note_on channel=0 note=60 velocity=127 time=0.010416666666666666\n",
      "note_off channel=0 note=62 velocity=127 time=0.009375\n",
      "note_on channel=0 note=61 velocity=127 time=0.008333333333333333\n",
      "note_off channel=0 note=60 velocity=127 time=0.0020833333333333333\n",
      "note_off channel=0 note=61 velocity=127 time=0.017708333333333333\n",
      "note_on channel=0 note=62 velocity=127 time=0.035416666666666666\n",
      "note_off channel=0 note=62 velocity=127 time=0.019791666666666666\n",
      "note_on channel=0 note=61 velocity=127 time=0.003125\n",
      "note_on channel=0 note=60 velocity=127 time=0.00625\n",
      "note_off channel=0 note=61 velocity=127 time=0.013541666666666667\n",
      "note_off channel=0 note=60 velocity=127 time=0.00625\n",
      "note_on channel=0 note=62 velocity=127 time=0.034375\n",
      "note_on channel=0 note=61 velocity=127 time=0.017708333333333333\n",
      "note_off channel=0 note=62 velocity=127 time=0.003125\n",
      "note_off channel=0 note=61 velocity=127 time=0.017708333333333333\n",
      "note_on channel=0 note=60 velocity=127 time=0.010416666666666666\n",
      "note_off channel=0 note=60 velocity=127 time=0.019791666666666666\n",
      "note_on channel=0 note=62 velocity=127 time=0.016666666666666666\n",
      "note_on channel=0 note=61 velocity=127 time=0.011458333333333333\n",
      "note_off channel=0 note=62 velocity=127 time=0.008333333333333333\n",
      "note_off channel=0 note=61 velocity=127 time=0.011458333333333333\n",
      "note_on channel=0 note=60 velocity=127 time=0.034375\n",
      "note_on channel=0 note=62 velocity=127 time=0.017708333333333333\n",
      "note_off channel=0 note=60 velocity=127 time=0.0020833333333333333\n",
      "note_on channel=0 note=61 velocity=127 time=0.004166666666666667\n",
      "note_off channel=0 note=62 velocity=127 time=0.014583333333333334\n",
      "note_off channel=0 note=61 velocity=127 time=0.00625\n",
      "note_on channel=0 note=62 velocity=127 time=0.057291666666666664\n",
      "note_on channel=0 note=61 velocity=127 time=0\n",
      "note_on channel=0 note=60 velocity=127 time=0\n",
      "note_off channel=0 note=62 velocity=127 time=0.019791666666666666\n",
      "note_off channel=0 note=61 velocity=127 time=0\n",
      "note_off channel=0 note=60 velocity=127 time=0\n",
      "note_on channel=0 note=61 velocity=127 time=0.057291666666666664\n",
      "note_on channel=0 note=62 velocity=127 time=0.005208333333333333\n",
      "note_off channel=0 note=61 velocity=127 time=0.014583333333333334\n",
      "note_on channel=0 note=60 velocity=127 time=0.004166666666666667\n",
      "note_off channel=0 note=62 velocity=127 time=0.0010416666666666667\n",
      "note_off channel=0 note=60 velocity=127 time=0.01875\n",
      "note_on channel=0 note=61 velocity=127 time=0.03333333333333333\n",
      "note_on channel=0 note=62 velocity=127 time=0.011458333333333333\n",
      "note_off channel=0 note=61 velocity=127 time=0.008333333333333333\n",
      "note_off channel=0 note=62 velocity=127 time=0.011458333333333333\n",
      "note_on channel=0 note=60 velocity=127 time=0.016666666666666666\n",
      "note_off channel=0 note=60 velocity=127 time=0.019791666666666666\n",
      "note_on channel=0 note=61 velocity=127 time=0.009375\n",
      "note_on channel=0 note=62 velocity=127 time=0.016666666666666666\n",
      "note_off channel=0 note=61 velocity=127 time=0.003125\n",
      "note_off channel=0 note=62 velocity=127 time=0.016666666666666666\n",
      "note_on channel=0 note=60 velocity=127 time=0.035416666666666666\n",
      "note_on channel=0 note=61 velocity=127 time=0.005208333333333333\n",
      "note_off channel=0 note=60 velocity=127 time=0.014583333333333334\n",
      "note_off channel=0 note=61 velocity=127 time=0.005208333333333333\n",
      "note_on channel=0 note=62 velocity=127 time=0.003125\n",
      "note_off channel=0 note=62 velocity=127 time=0.019791666666666666\n",
      "note_on channel=0 note=61 velocity=127 time=0.035416666666666666\n",
      "note_on channel=0 note=60 velocity=127 time=0.01875\n",
      "note_off channel=0 note=61 velocity=127 time=0.0020833333333333333\n",
      "note_on channel=0 note=62 velocity=127 time=0.008333333333333333\n",
      "note_off channel=0 note=60 velocity=127 time=0.010416666666666666\n",
      "note_off channel=0 note=62 velocity=127 time=0.010416666666666666\n",
      "note_on channel=0 note=61 velocity=127 time=0.029166666666666667\n",
      "note_off channel=0 note=61 velocity=127 time=0.019791666666666666\n",
      "note_on channel=0 note=62 velocity=127 time=0.014583333333333334\n",
      "note_on channel=0 note=60 velocity=127 time=0.008333333333333333\n",
      "note_off channel=0 note=62 velocity=127 time=0.011458333333333333\n",
      "note_off channel=0 note=60 velocity=127 time=0.008333333333333333\n",
      "note_on channel=0 note=61 velocity=127 time=0.015625\n",
      "note_off channel=0 note=61 velocity=127 time=0.019791666666666666\n",
      "note_on channel=0 note=62 velocity=127 time=0.019791666666666666\n",
      "note_off channel=0 note=62 velocity=127 time=0.019791666666666666\n",
      "note_on channel=0 note=60 velocity=127 time=0.00625\n",
      "note_on channel=0 note=61 velocity=127 time=0.011458333333333333\n",
      "note_off channel=0 note=60 velocity=127 time=0.008333333333333333\n",
      "note_off channel=0 note=61 velocity=127 time=0.011458333333333333\n",
      "note_on channel=0 note=62 velocity=127 time=0.026041666666666668\n",
      "note_off channel=0 note=62 velocity=127 time=0.019791666666666666\n",
      "note_on channel=0 note=61 velocity=127 time=0.0125\n",
      "note_on channel=0 note=60 velocity=127 time=0.0125\n",
      "note_off channel=0 note=61 velocity=127 time=0.007291666666666667\n",
      "note_off channel=0 note=60 velocity=127 time=0.0125\n",
      "note_on channel=0 note=62 velocity=127 time=0.01875\n",
      "note_off channel=0 note=62 velocity=127 time=0.019791666666666666\n",
      "note_on channel=0 note=61 velocity=127 time=0.00625\n",
      "note_off channel=0 note=61 velocity=127 time=0.019791666666666666\n",
      "note_on channel=0 note=60 velocity=127 time=0.016666666666666666\n",
      "note_off channel=0 note=60 velocity=127 time=0.019791666666666666\n",
      "note_on channel=0 note=62 velocity=127 time=0\n",
      "note_off channel=0 note=62 velocity=127 time=0.019791666666666666\n",
      "note_on channel=0 note=61 velocity=127 time=0.0010416666666666667\n",
      "note_off channel=0 note=61 velocity=127 time=0.019791666666666666\n",
      "note_on channel=0 note=60 velocity=127 time=0.040625\n",
      "note_on channel=0 note=62 velocity=127 time=0.0020833333333333333\n",
      "note_on channel=0 note=61 velocity=127 time=0.015625\n",
      "note_off channel=0 note=60 velocity=127 time=0.003125\n",
      "note_off channel=0 note=62 velocity=127 time=0.0020833333333333333\n",
      "note_off channel=0 note=61 velocity=127 time=0.015625\n",
      "note_on channel=0 note=62 velocity=127 time=0.04895833333333333\n",
      "note_on channel=0 note=61 velocity=127 time=0.009375\n",
      "note_on channel=0 note=60 velocity=127 time=0.00625\n",
      "note_off channel=0 note=62 velocity=127 time=0.004166666666666667\n",
      "note_off channel=0 note=61 velocity=127 time=0.009375\n",
      "note_off channel=0 note=60 velocity=127 time=0.00625\n",
      "note_on channel=0 note=62 velocity=127 time=0.04791666666666666\n",
      "note_on channel=0 note=61 velocity=127 time=0.004166666666666667\n",
      "note_off channel=0 note=62 velocity=127 time=0.016666666666666666\n",
      "note_off channel=0 note=61 velocity=127 time=0.004166666666666667\n",
      "note_on channel=0 note=60 velocity=127 time=0.010416666666666666\n",
      "note_off channel=0 note=60 velocity=127 time=0.019791666666666666\n",
      "note_on channel=0 note=61 velocity=127 time=0.027083333333333334\n",
      "note_on channel=0 note=62 velocity=127 time=0.0020833333333333333\n",
      "note_off channel=0 note=61 velocity=127 time=0.017708333333333333\n",
      "note_off channel=0 note=62 velocity=127 time=0.0020833333333333333\n",
      "note_on channel=0 note=60 velocity=127 time=0.03229166666666666\n",
      "note_off channel=0 note=60 velocity=127 time=0.019791666666666666\n",
      "note_on channel=0 note=61 velocity=127 time=0.003125\n",
      "note_on channel=0 note=62 velocity=127 time=0.007291666666666667\n",
      "note_off channel=0 note=61 velocity=127 time=0.0125\n",
      "note_off channel=0 note=62 velocity=127 time=0.007291666666666667\n",
      "note_on channel=0 note=61 velocity=127 time=0.05\n",
      "note_on channel=0 note=60 velocity=127 time=0.0010416666666666667\n",
      "note_on channel=0 note=62 velocity=127 time=0.0125\n",
      "note_off channel=0 note=61 velocity=127 time=0.00625\n",
      "note_off channel=0 note=60 velocity=127 time=0.0010416666666666667\n",
      "note_off channel=0 note=62 velocity=127 time=0.0125\n",
      "note_on channel=0 note=61 velocity=127 time=0.04479166666666667\n",
      "note_on channel=0 note=62 velocity=127 time=0.01875\n",
      "note_off channel=0 note=61 velocity=127 time=0.0010416666666666667\n",
      "note_on channel=0 note=60 velocity=127 time=0.005208333333333333\n",
      "note_off channel=0 note=62 velocity=127 time=0.014583333333333334\n",
      "note_off channel=0 note=60 velocity=127 time=0.005208333333333333\n",
      "note_on channel=0 note=61 velocity=127 time=0.03333333333333333\n",
      "note_off channel=0 note=61 velocity=127 time=0.019791666666666666\n",
      "note_on channel=0 note=62 velocity=127 time=0.005208333333333333\n",
      "note_off channel=0 note=62 velocity=127 time=0.019791666666666666\n",
      "note_on channel=0 note=60 velocity=127 time=0.004166666666666667\n",
      "note_off channel=0 note=60 velocity=127 time=0.019791666666666666\n",
      "note_on channel=0 note=61 velocity=127 time=0.009375\n",
      "note_off channel=0 note=61 velocity=127 time=0.019791666666666666\n",
      "\u001b[91m [DEBUG] > \u001b[0m\n",
      " |>  to_array: msg.time > max_t; t, n\n",
      " |>  1.9989583333333334\n",
      " |>  100\n",
      "note_on channel=0 note=60 velocity=127 time=0.029166666666666667\n",
      "note_off channel=0 note=60 velocity=127 time=0.019791666666666666\n",
      "note_on channel=0 note=61 velocity=127 time=0.022916666666666665\n",
      "note_off channel=0 note=61 velocity=127 time=0.019791666666666666\n",
      "note_on channel=0 note=60 velocity=127 time=0.041666666666666664\n",
      "note_on channel=0 note=62 velocity=127 time=0.019791666666666666\n",
      "note_off channel=0 note=60 velocity=127 time=0.0010416666666666667\n",
      "note_off channel=0 note=62 velocity=127 time=0.019791666666666666\n",
      "note_on channel=0 note=61 velocity=127 time=0.029166666666666667\n",
      "note_off channel=0 note=61 velocity=127 time=0.019791666666666666\n",
      "note_on channel=0 note=60 velocity=127 time=0.016666666666666666\n",
      "note_off channel=0 note=60 velocity=127 time=0.019791666666666666\n",
      "note_on channel=0 note=61 velocity=127 time=0.07291666666666667\n",
      "note_on channel=0 note=60 velocity=127 time=0.011458333333333333\n",
      "note_off channel=0 note=61 velocity=127 time=0.008333333333333333\n",
      "note_off channel=0 note=60 velocity=127 time=0.011458333333333333\n",
      "note_on channel=0 note=62 velocity=127 time=0.08125\n",
      "note_on channel=0 note=60 velocity=127 time=0.004166666666666667\n",
      "note_on channel=0 note=61 velocity=127 time=0.013541666666666667\n",
      "note_off channel=0 note=62 velocity=127 time=0.003125\n",
      "note_off channel=0 note=60 velocity=127 time=0.004166666666666667\n",
      "note_off channel=0 note=61 velocity=127 time=0.013541666666666667\n",
      "note_on channel=0 note=60 velocity=127 time=0.071875\n",
      "note_off channel=0 note=60 velocity=127 time=0.019791666666666666\n",
      "note_on channel=0 note=61 velocity=127 time=0.017708333333333333\n",
      "note_off channel=0 note=61 velocity=127 time=0.019791666666666666\n",
      "note_on channel=0 note=60 velocity=127 time=0.046875\n",
      "note_off channel=0 note=60 velocity=127 time=0.019791666666666666\n",
      "note_on channel=0 note=61 velocity=127 time=0.042708333333333334\n",
      "note_on channel=0 note=62 velocity=127 time=0.014583333333333334\n",
      "note_off channel=0 note=61 velocity=127 time=0.005208333333333333\n",
      "note_off channel=0 note=62 velocity=127 time=0.014583333333333334\n",
      "note_on channel=0 note=60 velocity=127 time=0.007291666666666667\n",
      "note_off channel=0 note=60 velocity=127 time=0.019791666666666666\n",
      "note_on channel=0 note=61 velocity=127 time=0.06770833333333333\n",
      "note_on channel=0 note=60 velocity=127 time=0.016666666666666666\n",
      "note_off channel=0 note=61 velocity=127 time=0.003125\n",
      "note_off channel=0 note=60 velocity=127 time=0.016666666666666666\n",
      "note_on channel=0 note=60 velocity=127 time=0.08541666666666667\n",
      "note_on channel=0 note=61 velocity=127 time=0.008333333333333333\n",
      "note_off channel=0 note=60 velocity=127 time=0.011458333333333333\n",
      "note_off channel=0 note=61 velocity=127 time=0.008333333333333333\n",
      "note_on channel=0 note=62 velocity=127 time=0.026041666666666668\n",
      "note_off channel=0 note=62 velocity=127 time=0.019791666666666666\n",
      "note_on channel=0 note=60 velocity=127 time=0.030208333333333334\n",
      "note_off channel=0 note=60 velocity=127 time=0.019791666666666666\n",
      "note_on channel=0 note=61 velocity=127 time=0.013541666666666667\n",
      "note_off channel=0 note=61 velocity=127 time=0.019791666666666666\n",
      "note_on channel=0 note=60 velocity=127 time=0.052083333333333336\n",
      "note_off channel=0 note=60 velocity=127 time=0.019791666666666666\n",
      "note_on channel=0 note=61 velocity=127 time=0.03854166666666667\n",
      "note_off channel=0 note=61 velocity=127 time=0.019791666666666666\n",
      "note_on channel=0 note=60 velocity=127 time=0.027083333333333334\n",
      "note_off channel=0 note=60 velocity=127 time=0.019791666666666666\n",
      "note_on channel=0 note=62 velocity=127 time=0.011458333333333333\n",
      "note_off channel=0 note=62 velocity=127 time=0.019791666666666666\n",
      "note_on channel=0 note=61 velocity=127 time=0.03229166666666666\n",
      "note_off channel=0 note=61 velocity=127 time=0.019791666666666666\n",
      "note_on channel=0 note=60 velocity=127 time=0.0020833333333333333\n",
      "note_off channel=0 note=60 velocity=127 time=0.019791666666666666\n",
      "note_on channel=0 note=60 velocity=127 time=0.08541666666666667\n",
      "note_on channel=0 note=61 velocity=127 time=0.003125\n",
      "note_off channel=0 note=60 velocity=127 time=0.016666666666666666\n",
      "note_off channel=0 note=61 velocity=127 time=0.003125\n",
      "note_on channel=0 note=60 velocity=127 time=0.08229166666666667\n",
      "note_on channel=0 note=62 velocity=127 time=0.008333333333333333\n",
      "note_off channel=0 note=60 velocity=127 time=0.0125\n",
      "note_off channel=0 note=62 velocity=127 time=0.008333333333333333\n",
      "note_on channel=0 note=61 velocity=127 time=0\n",
      "note_off channel=0 note=61 velocity=127 time=0.019791666666666666\n",
      "note_on channel=0 note=60 velocity=127 time=0.057291666666666664\n",
      "note_off channel=0 note=60 velocity=127 time=0.019791666666666666\n",
      "note_on channel=0 note=61 velocity=127 time=0.03333333333333333\n",
      "note_off channel=0 note=61 velocity=127 time=0.019791666666666666\n",
      "note_on channel=0 note=60 velocity=127 time=0.03229166666666666\n",
      "note_off channel=0 note=60 velocity=127 time=0.019791666666666666\n",
      "note_on channel=0 note=61 velocity=127 time=0.058333333333333334\n",
      "note_on channel=0 note=62 velocity=127 time=0.011458333333333333\n",
      "note_off channel=0 note=61 velocity=127 time=0.008333333333333333\n",
      "note_on channel=0 note=60 velocity=127 time=0.007291666666666667\n",
      "note_off channel=0 note=62 velocity=127 time=0.004166666666666667\n",
      "note_off channel=0 note=60 velocity=127 time=0.015625\n",
      "note_on channel=0 note=61 velocity=127 time=0.08333333333333333\n",
      "\u001b[91m [DEBUG] > \u001b[0m\n",
      " |>  to_array: msg.time > max_t; t, n\n",
      " |>  2.0229166666666667\n",
      " |>  100\n",
      "note_on channel=0 note=60 velocity=127 time=0.0010416666666666667\n",
      "note_on channel=0 note=61 velocity=127 time=0.007291666666666667\n",
      "note_on channel=0 note=62 velocity=127 time=0.0010416666666666667\n",
      "note_off channel=0 note=60 velocity=127 time=0.011458333333333333\n",
      "note_off channel=0 note=61 velocity=127 time=0.007291666666666667\n",
      "note_off channel=0 note=62 velocity=127 time=0.0010416666666666667\n",
      "note_on channel=0 note=61 velocity=127 time=0.05\n",
      "note_on channel=0 note=60 velocity=127 time=0.004166666666666667\n",
      "note_on channel=0 note=62 velocity=127 time=0.005208333333333333\n",
      "note_off channel=0 note=61 velocity=127 time=0.010416666666666666\n",
      "note_off channel=0 note=60 velocity=127 time=0.004166666666666667\n",
      "note_off channel=0 note=62 velocity=127 time=0.005208333333333333\n",
      "note_on channel=0 note=61 velocity=127 time=0.041666666666666664\n",
      "note_on channel=0 note=60 velocity=127 time=0.015625\n",
      "note_on channel=0 note=62 velocity=127 time=0.0020833333333333333\n",
      "note_off channel=0 note=61 velocity=127 time=0.0020833333333333333\n"
     ]
    },
    {
     "name": "stdout",
     "output_type": "stream",
     "text": [
      "note_off channel=0 note=60 velocity=127 time=0.015625\n",
      "note_off channel=0 note=62 velocity=127 time=0.0020833333333333333\n",
      "note_on channel=0 note=61 velocity=127 time=0.03333333333333333\n",
      "note_off channel=0 note=61 velocity=127 time=0.019791666666666666\n",
      "note_on channel=0 note=62 velocity=127 time=0.00625\n",
      "note_on channel=0 note=60 velocity=127 time=0.0010416666666666667\n",
      "note_off channel=0 note=62 velocity=127 time=0.019791666666666666\n",
      "note_off channel=0 note=60 velocity=127 time=0.0010416666666666667\n",
      "note_on channel=0 note=61 velocity=127 time=0.02395833333333333\n",
      "note_off channel=0 note=61 velocity=127 time=0.019791666666666666\n",
      "note_on channel=0 note=62 velocity=127 time=0.015625\n",
      "note_on channel=0 note=60 velocity=127 time=0.003125\n",
      "note_off channel=0 note=62 velocity=127 time=0.016666666666666666\n",
      "note_off channel=0 note=60 velocity=127 time=0.003125\n",
      "note_on channel=0 note=61 velocity=127 time=0.0125\n",
      "note_off channel=0 note=61 velocity=127 time=0.019791666666666666\n",
      "note_on channel=0 note=62 velocity=127 time=0.02395833333333333\n",
      "note_on channel=0 note=60 velocity=127 time=0.00625\n",
      "note_off channel=0 note=62 velocity=127 time=0.013541666666666667\n",
      "note_off channel=0 note=60 velocity=127 time=0.00625\n",
      "note_on channel=0 note=61 velocity=127 time=0.0010416666666666667\n",
      "note_off channel=0 note=61 velocity=127 time=0.019791666666666666\n",
      "note_on channel=0 note=62 velocity=127 time=0.03229166666666666\n",
      "note_on channel=0 note=60 velocity=127 time=0.009375\n",
      "note_on channel=0 note=61 velocity=127 time=0.009375\n",
      "note_off channel=0 note=62 velocity=127 time=0.0010416666666666667\n",
      "note_off channel=0 note=60 velocity=127 time=0.009375\n",
      "note_off channel=0 note=61 velocity=127 time=0.009375\n",
      "note_on channel=0 note=62 velocity=127 time=0.040625\n",
      "note_on channel=0 note=61 velocity=127 time=0.010416666666666666\n",
      "note_on channel=0 note=60 velocity=127 time=0.0020833333333333333\n",
      "note_off channel=0 note=62 velocity=127 time=0.007291666666666667\n",
      "note_off channel=0 note=61 velocity=127 time=0.010416666666666666\n",
      "note_off channel=0 note=60 velocity=127 time=0.0020833333333333333\n",
      "note_on channel=0 note=62 velocity=127 time=0.046875\n",
      "note_on channel=0 note=61 velocity=127 time=0.0010416666666666667\n",
      "note_on channel=0 note=60 velocity=127 time=0.014583333333333334\n",
      "note_off channel=0 note=62 velocity=127 time=0.004166666666666667\n",
      "note_off channel=0 note=61 velocity=127 time=0.0010416666666666667\n",
      "note_off channel=0 note=60 velocity=127 time=0.014583333333333334\n",
      "note_on channel=0 note=61 velocity=127 time=0.036458333333333336\n",
      "note_on channel=0 note=62 velocity=127 time=0.007291666666666667\n",
      "note_off channel=0 note=61 velocity=127 time=0.0125\n",
      "note_on channel=0 note=60 velocity=127 time=0.005208333333333333\n",
      "note_off channel=0 note=62 velocity=127 time=0.0010416666666666667\n",
      "note_off channel=0 note=60 velocity=127 time=0.01875\n",
      "note_on channel=0 note=61 velocity=127 time=0.025\n",
      "note_on channel=0 note=62 velocity=127 time=0.015625\n",
      "note_off channel=0 note=61 velocity=127 time=0.004166666666666667\n",
      "note_off channel=0 note=62 velocity=127 time=0.015625\n",
      "note_on channel=0 note=60 velocity=127 time=0.0020833333333333333\n",
      "note_off channel=0 note=60 velocity=127 time=0.019791666666666666\n",
      "note_on channel=0 note=61 velocity=127 time=0.013541666666666667\n",
      "note_off channel=0 note=61 velocity=127 time=0.019791666666666666\n",
      "note_on channel=0 note=62 velocity=127 time=0.004166666666666667\n",
      "note_off channel=0 note=62 velocity=127 time=0.019791666666666666\n",
      "note_on channel=0 note=60 velocity=127 time=0.005208333333333333\n",
      "note_off channel=0 note=60 velocity=127 time=0.019791666666666666\n",
      "note_on channel=0 note=61 velocity=127 time=0.0020833333333333333\n",
      "note_off channel=0 note=61 velocity=127 time=0.019791666666666666\n",
      "note_on channel=0 note=62 velocity=127 time=0.0125\n",
      "note_off channel=0 note=62 velocity=127 time=0.019791666666666666\n",
      "note_on channel=0 note=60 velocity=127 time=0.007291666666666667\n",
      "note_on channel=0 note=61 velocity=127 time=0.010416666666666666\n",
      "note_off channel=0 note=60 velocity=127 time=0.009375\n",
      "note_off channel=0 note=61 velocity=127 time=0.010416666666666666\n",
      "note_on channel=0 note=62 velocity=127 time=0.020833333333333332\n",
      "note_off channel=0 note=62 velocity=127 time=0.019791666666666666\n",
      "note_on channel=0 note=61 velocity=127 time=0.009375\n",
      "note_on channel=0 note=60 velocity=127 time=0.0010416666666666667\n",
      "note_off channel=0 note=61 velocity=127 time=0.01875\n",
      "note_off channel=0 note=60 velocity=127 time=0.0010416666666666667\n",
      "note_on channel=0 note=62 velocity=127 time=0.029166666666666667\n",
      "note_off channel=0 note=62 velocity=127 time=0.019791666666666666\n",
      "note_on channel=0 note=61 velocity=127 time=0.0010416666666666667\n",
      "note_on channel=0 note=60 velocity=127 time=0.0125\n",
      "note_off channel=0 note=61 velocity=127 time=0.007291666666666667\n",
      "note_off channel=0 note=60 velocity=127 time=0.0125\n",
      "note_on channel=0 note=62 velocity=127 time=0.026041666666666668\n",
      "note_on channel=0 note=61 velocity=127 time=0.0125\n",
      "note_off channel=0 note=62 velocity=127 time=0.007291666666666667\n",
      "note_off channel=0 note=61 velocity=127 time=0.0125\n",
      "note_on channel=0 note=60 velocity=127 time=0.004166666666666667\n",
      "note_off channel=0 note=60 velocity=127 time=0.019791666666666666\n",
      "note_on channel=0 note=62 velocity=127 time=0.022916666666666665\n",
      "note_on channel=0 note=61 velocity=127 time=0.004166666666666667\n",
      "note_off channel=0 note=62 velocity=127 time=0.015625\n",
      "note_off channel=0 note=61 velocity=127 time=0.004166666666666667\n",
      "note_on channel=0 note=60 velocity=127 time=0.015625\n",
      "note_off channel=0 note=60 velocity=127 time=0.019791666666666666\n",
      "note_on channel=0 note=61 velocity=127 time=0.015625\n",
      "note_on channel=0 note=62 velocity=127 time=0.004166666666666667\n",
      "note_off channel=0 note=61 velocity=127 time=0.015625\n",
      "note_off channel=0 note=62 velocity=127 time=0.004166666666666667\n",
      "note_on channel=0 note=60 velocity=127 time=0.022916666666666665\n",
      "note_off channel=0 note=60 velocity=127 time=0.019791666666666666\n",
      "note_on channel=0 note=61 velocity=127 time=0.004166666666666667\n",
      "note_on channel=0 note=62 velocity=127 time=0.0125\n",
      "note_off channel=0 note=61 velocity=127 time=0.007291666666666667\n",
      "note_off channel=0 note=62 velocity=127 time=0.0125\n",
      "note_on channel=0 note=60 velocity=127 time=0.026041666666666668\n",
      "note_on channel=0 note=61 velocity=127 time=0.0125\n",
      "note_off channel=0 note=60 velocity=127 time=0.007291666666666667\n",
      "note_off channel=0 note=61 velocity=127 time=0.0125\n",
      "note_on channel=0 note=62 velocity=127 time=0.0020833333333333333\n",
      "note_off channel=0 note=62 velocity=127 time=0.019791666666666666\n",
      "note_on channel=0 note=60 velocity=127 time=0.029166666666666667\n",
      "note_on channel=0 note=61 velocity=127 time=0.0010416666666666667\n",
      "note_off channel=0 note=60 velocity=127 time=0.019791666666666666\n",
      "note_off channel=0 note=61 velocity=127 time=0.0010416666666666667\n",
      "note_on channel=0 note=62 velocity=127 time=0.010416666666666666\n",
      "note_off channel=0 note=62 velocity=127 time=0.019791666666666666\n",
      "note_on channel=0 note=61 velocity=127 time=0.020833333333333332\n",
      "note_on channel=0 note=60 velocity=127 time=0.010416666666666666\n",
      "note_off channel=0 note=61 velocity=127 time=0.009375\n",
      "note_off channel=0 note=60 velocity=127 time=0.010416666666666666\n",
      "note_on channel=0 note=62 velocity=127 time=0.008333333333333333\n",
      "note_off channel=0 note=62 velocity=127 time=0.019791666666666666\n",
      "note_on channel=0 note=61 velocity=127 time=0.0125\n",
      "note_off channel=0 note=61 velocity=127 time=0.019791666666666666\n",
      "note_on channel=0 note=60 velocity=127 time=0.0020833333333333333\n",
      "note_off channel=0 note=60 velocity=127 time=0.019791666666666666\n",
      "note_on channel=0 note=62 velocity=127 time=0.005208333333333333\n",
      "note_off channel=0 note=62 velocity=127 time=0.019791666666666666\n",
      "note_on channel=0 note=61 velocity=127 time=0.004166666666666667\n",
      "note_off channel=0 note=61 velocity=127 time=0.019791666666666666\n",
      "note_on channel=0 note=60 velocity=127 time=0.013541666666666667\n",
      "note_off channel=0 note=60 velocity=127 time=0.019791666666666666\n",
      "note_on channel=0 note=62 velocity=127 time=0.0020833333333333333\n",
      "note_on channel=0 note=61 velocity=127 time=0.015625\n",
      "note_off channel=0 note=62 velocity=127 time=0.005208333333333333\n",
      "note_off channel=0 note=61 velocity=127 time=0.015625\n",
      "note_on channel=0 note=60 velocity=127 time=0.026041666666666668\n",
      "note_on channel=0 note=62 velocity=127 time=0.01875\n",
      "note_off channel=0 note=60 velocity=127 time=0.0010416666666666667\n",
      "note_on channel=0 note=61 velocity=127 time=0.005208333333333333\n",
      "note_off channel=0 note=62 velocity=127 time=0.013541666666666667\n",
      "note_off channel=0 note=61 velocity=127 time=0.00625\n",
      "note_on channel=0 note=60 velocity=127 time=0.0375\n",
      "note_on channel=0 note=61 velocity=127 time=0.013541666666666667\n",
      "\u001b[91m [DEBUG] > \u001b[0m\n",
      " |>  to_array: msg.time > max_t; t, n\n",
      " |>  1.9916666666666658\n",
      " |>  100\n",
      "note_on channel=0 note=61 velocity=127 time=0.04895833333333333\n",
      "note_on channel=0 note=60 velocity=127 time=0.005208333333333333\n",
      "note_off channel=0 note=61 velocity=127 time=0.015625\n",
      "note_on channel=0 note=62 velocity=127 time=0.003125\n",
      "note_off channel=0 note=60 velocity=127 time=0.0020833333333333333\n",
      "note_off channel=0 note=62 velocity=127 time=0.017708333333333333\n",
      "note_on channel=0 note=62 velocity=127 time=0.08333333333333333\n",
      "note_on channel=0 note=60 velocity=127 time=0.010416666666666666\n",
      "note_off channel=0 note=62 velocity=127 time=0.009375\n",
      "note_off channel=0 note=60 velocity=127 time=0.010416666666666666\n",
      "note_on channel=0 note=61 velocity=127 time=0.041666666666666664\n",
      "note_off channel=0 note=61 velocity=127 time=0.019791666666666666\n",
      "note_on channel=0 note=62 velocity=127 time=0.011458333333333333\n",
      "note_off channel=0 note=62 velocity=127 time=0.019791666666666666\n",
      "note_on channel=0 note=60 velocity=127 time=0.01875\n",
      "note_off channel=0 note=60 velocity=127 time=0.019791666666666666\n",
      "note_on channel=0 note=62 velocity=127 time=0.04479166666666667\n",
      "note_off channel=0 note=62 velocity=127 time=0.019791666666666666\n",
      "note_on channel=0 note=61 velocity=127 time=0.042708333333333334\n",
      "note_on channel=0 note=60 velocity=127 time=0.004166666666666667\n",
      "note_off channel=0 note=61 velocity=127 time=0.015625\n",
      "note_off channel=0 note=60 velocity=127 time=0.004166666666666667\n",
      "note_on channel=0 note=62 velocity=127 time=0.015625\n",
      "note_off channel=0 note=62 velocity=127 time=0.019791666666666666\n",
      "note_on channel=0 note=60 velocity=127 time=0.075\n",
      "note_on channel=0 note=62 velocity=127 time=0.008333333333333333\n",
      "note_off channel=0 note=60 velocity=127 time=0.0125\n",
      "note_off channel=0 note=62 velocity=127 time=0.008333333333333333\n",
      "note_on channel=0 note=61 velocity=127 time=0.034375\n",
      "note_off channel=0 note=61 velocity=127 time=0.019791666666666666\n",
      "note_on channel=0 note=62 velocity=127 time=0.029166666666666667\n",
      "note_off channel=0 note=62 velocity=127 time=0.019791666666666666\n",
      "note_on channel=0 note=60 velocity=127 time=0\n",
      "note_off channel=0 note=60 velocity=127 time=0.019791666666666666\n",
      "note_on channel=0 note=62 velocity=127 time=0.0625\n",
      "note_off channel=0 note=62 velocity=127 time=0.019791666666666666\n",
      "note_on channel=0 note=61 velocity=127 time=0.026041666666666668\n",
      "note_on channel=0 note=60 velocity=127 time=0.003125\n",
      "note_off channel=0 note=61 velocity=127 time=0.016666666666666666\n",
      "note_off channel=0 note=60 velocity=127 time=0.003125\n",
      "note_on channel=0 note=62 velocity=127 time=0.034375\n",
      "note_off channel=0 note=62 velocity=127 time=0.019791666666666666\n",
      "note_on channel=0 note=60 velocity=127 time=0.057291666666666664\n",
      "note_off channel=0 note=60 velocity=127 time=0.019791666666666666\n",
      "note_on channel=0 note=62 velocity=127 time=0.00625\n",
      "note_off channel=0 note=62 velocity=127 time=0.019791666666666666\n",
      "note_on channel=0 note=61 velocity=127 time=0.016666666666666666\n",
      "note_off channel=0 note=61 velocity=127 time=0.019791666666666666\n",
      "note_on channel=0 note=62 velocity=127 time=0.04583333333333333\n",
      "note_on channel=0 note=60 velocity=127 time=0.0020833333333333333\n",
      "note_off channel=0 note=62 velocity=127 time=0.017708333333333333\n",
      "note_off channel=0 note=60 velocity=127 time=0.0020833333333333333\n",
      "note_on channel=0 note=62 velocity=127 time=0.08125\n",
      "note_off channel=0 note=62 velocity=127 time=0.019791666666666666\n",
      "note_on channel=0 note=61 velocity=127 time=0.008333333333333333\n",
      "note_on channel=0 note=60 velocity=127 time=0.0020833333333333333\n",
      "note_off channel=0 note=61 velocity=127 time=0.017708333333333333\n",
      "note_off channel=0 note=60 velocity=127 time=0.0020833333333333333\n",
      "note_on channel=0 note=62 velocity=127 time=0.053125\n",
      "note_off channel=0 note=62 velocity=127 time=0.019791666666666666\n",
      "note_on channel=0 note=60 velocity=127 time=0.03854166666666667\n",
      "note_off channel=0 note=60 velocity=127 time=0.019791666666666666\n",
      "note_on channel=0 note=62 velocity=127 time=0.02395833333333333\n",
      "note_on channel=0 note=61 velocity=127 time=0.019791666666666666\n",
      "note_off channel=0 note=62 velocity=127 time=0.0010416666666666667\n",
      "note_off channel=0 note=61 velocity=127 time=0.019791666666666666\n",
      "note_on channel=0 note=60 velocity=127 time=0.04791666666666666\n",
      "note_on channel=0 note=62 velocity=127 time=0.015625\n",
      "note_off channel=0 note=60 velocity=127 time=0.004166666666666667\n",
      "note_off channel=0 note=62 velocity=127 time=0.015625\n",
      "note_on channel=0 note=62 velocity=127 time=0.08333333333333333\n",
      "note_on channel=0 note=61 velocity=127 time=0.010416666666666666\n",
      "note_on channel=0 note=60 velocity=127 time=0.0010416666666666667\n",
      "note_off channel=0 note=62 velocity=127 time=0.008333333333333333\n",
      "note_off channel=0 note=61 velocity=127 time=0.010416666666666666\n",
      "note_off channel=0 note=60 velocity=127 time=0.0010416666666666667\n",
      "note_on channel=0 note=62 velocity=127 time=0.07083333333333333\n",
      "note_off channel=0 note=62 velocity=127 time=0.019791666666666666\n",
      "note_on channel=0 note=60 velocity=127 time=0.020833333333333332\n",
      "note_off channel=0 note=60 velocity=127 time=0.019791666666666666\n",
      "note_on channel=0 note=62 velocity=127 time=0.042708333333333334\n",
      "note_on channel=0 note=61 velocity=127 time=0.0020833333333333333\n",
      "note_off channel=0 note=62 velocity=127 time=0.017708333333333333\n",
      "note_off channel=0 note=61 velocity=127 time=0.0020833333333333333\n",
      "note_on channel=0 note=60 velocity=127 time=0.046875\n",
      "note_off channel=0 note=60 velocity=127 time=0.019791666666666666\n",
      "note_on channel=0 note=62 velocity=127 time=0.014583333333333334\n",
      "note_off channel=0 note=62 velocity=127 time=0.019791666666666666\n",
      "note_on channel=0 note=61 velocity=127 time=0.07604166666666666\n",
      "\u001b[91m [DEBUG] > \u001b[0m\n",
      " |>  to_array: msg.time > max_t; t, n\n",
      " |>  2.0218750000000005\n",
      " |>  100\n",
      "note_on channel=0 note=62 velocity=127 time=0.0125\n",
      "note_on channel=0 note=61 velocity=127 time=0.014583333333333334\n",
      "note_off channel=0 note=62 velocity=127 time=0.005208333333333333\n",
      "note_off channel=0 note=61 velocity=127 time=0.014583333333333334\n",
      "note_on channel=0 note=60 velocity=127 time=0.021875\n",
      "note_on channel=0 note=62 velocity=127 time=0.017708333333333333\n",
      "note_off channel=0 note=60 velocity=127 time=0.0020833333333333333\n",
      "note_off channel=0 note=62 velocity=127 time=0.017708333333333333\n",
      "note_on channel=0 note=61 velocity=127 time=0.042708333333333334\n",
      "note_on channel=0 note=60 velocity=127 time=0.010416666666666666\n",
      "note_on channel=0 note=62 velocity=127 time=0.0020833333333333333\n",
      "note_off channel=0 note=61 velocity=127 time=0.008333333333333333\n",
      "note_off channel=0 note=60 velocity=127 time=0.010416666666666666\n",
      "note_off channel=0 note=62 velocity=127 time=0.0020833333333333333\n",
      "note_on channel=0 note=62 velocity=127 time=0.05416666666666667\n",
      "note_on channel=0 note=60 velocity=127 time=0.013541666666666667\n",
      "note_off channel=0 note=62 velocity=127 time=0.00625\n",
      "note_off channel=0 note=60 velocity=127 time=0.013541666666666667\n",
      "note_on channel=0 note=61 velocity=127 time=0.0020833333333333333\n",
      "note_off channel=0 note=61 velocity=127 time=0.019791666666666666\n",
      "note_on channel=0 note=62 velocity=127 time=0.01875\n",
      "note_off channel=0 note=62 velocity=127 time=0.019791666666666666\n",
      "note_on channel=0 note=60 velocity=127 time=0.009375\n",
      "note_off channel=0 note=60 velocity=127 time=0.019791666666666666\n",
      "note_on channel=0 note=62 velocity=127 time=0.025\n",
      "note_on channel=0 note=61 velocity=127 time=0.009375\n",
      "note_off channel=0 note=62 velocity=127 time=0.011458333333333333\n",
      "note_off channel=0 note=61 velocity=127 time=0.009375\n",
      "note_on channel=0 note=60 velocity=127 time=0.016666666666666666\n",
      "note_off channel=0 note=60 velocity=127 time=0.019791666666666666\n",
      "note_on channel=0 note=62 velocity=127 time=0.009375\n",
      "note_off channel=0 note=62 velocity=127 time=0.019791666666666666\n",
      "note_on channel=0 note=61 velocity=127 time=0.036458333333333336\n",
      "note_on channel=0 note=60 velocity=127 time=0.005208333333333333\n",
      "note_on channel=0 note=62 velocity=127 time=0.013541666666666667\n",
      "note_off channel=0 note=61 velocity=127 time=0.0020833333333333333\n",
      "note_off channel=0 note=60 velocity=127 time=0.005208333333333333\n",
      "note_off channel=0 note=62 velocity=127 time=0.013541666666666667\n",
      "note_on channel=0 note=62 velocity=127 time=0.05416666666666667\n",
      "note_on channel=0 note=60 velocity=127 time=0.003125\n",
      "note_off channel=0 note=62 velocity=127 time=0.017708333333333333\n",
      "note_off channel=0 note=60 velocity=127 time=0.003125\n",
      "note_on channel=0 note=61 velocity=127 time=0.007291666666666667\n",
      "note_off channel=0 note=61 velocity=127 time=0.019791666666666666\n",
      "note_on channel=0 note=62 velocity=127 time=0.025\n",
      "note_on channel=0 note=60 velocity=127 time=0.01875\n",
      "note_off channel=0 note=62 velocity=127 time=0.0010416666666666667\n",
      "note_off channel=0 note=60 velocity=127 time=0.01875\n",
      "note_on channel=0 note=62 velocity=127 time=0.036458333333333336\n",
      "note_on channel=0 note=61 velocity=127 time=0.003125\n",
      "note_off channel=0 note=62 velocity=127 time=0.016666666666666666\n",
      "note_off channel=0 note=61 velocity=127 time=0.003125\n",
      "note_on channel=0 note=60 velocity=127 time=0.011458333333333333\n",
      "note_off channel=0 note=60 velocity=127 time=0.019791666666666666\n",
      "note_on channel=0 note=62 velocity=127 time=0.019791666666666666\n",
      "note_off channel=0 note=62 velocity=127 time=0.019791666666666666\n",
      "note_on channel=0 note=60 velocity=127 time=0.030208333333333334\n",
      "note_on channel=0 note=61 velocity=127 time=0\n",
      "note_off channel=0 note=60 velocity=127 time=0.019791666666666666\n",
      "note_off channel=0 note=61 velocity=127 time=0\n",
      "note_on channel=0 note=62 velocity=127 time=0.004166666666666667\n",
      "note_off channel=0 note=62 velocity=127 time=0.019791666666666666\n",
      "note_on channel=0 note=60 velocity=127 time=0.04583333333333333\n",
      "note_on channel=0 note=62 velocity=127 time=0.008333333333333333\n",
      "note_off channel=0 note=60 velocity=127 time=0.011458333333333333\n",
      "note_off channel=0 note=62 velocity=127 time=0.008333333333333333\n",
      "note_on channel=0 note=61 velocity=127 time=0.004166666666666667\n",
      "note_off channel=0 note=61 velocity=127 time=0.019791666666666666\n",
      "note_on channel=0 note=62 velocity=127 time=0.03125\n",
      "note_on channel=0 note=60 velocity=127 time=0.007291666666666667\n",
      "note_off channel=0 note=62 velocity=127 time=0.0125\n",
      "note_off channel=0 note=60 velocity=127 time=0.007291666666666667\n",
      "note_on channel=0 note=61 velocity=127 time=0.04375\n",
      "note_on channel=0 note=62 velocity=127 time=0.003125\n",
      "note_off channel=0 note=61 velocity=127 time=0.016666666666666666\n",
      "note_off channel=0 note=62 velocity=127 time=0.003125\n",
      "note_on channel=0 note=60 velocity=127 time=0.003125\n",
      "note_off channel=0 note=60 velocity=127 time=0.019791666666666666\n",
      "note_on channel=0 note=62 velocity=127 time=0.03125\n",
      "note_off channel=0 note=62 velocity=127 time=0.019791666666666666\n",
      "note_on channel=0 note=60 velocity=127 time=0.01875\n",
      "note_on channel=0 note=61 velocity=127 time=0.005208333333333333\n",
      "note_off channel=0 note=60 velocity=127 time=0.014583333333333334\n",
      "note_off channel=0 note=61 velocity=127 time=0.005208333333333333\n",
      "note_on channel=0 note=62 velocity=127 time=0.010416666666666666\n",
      "note_off channel=0 note=62 velocity=127 time=0.019791666666666666\n",
      "note_on channel=0 note=60 velocity=127 time=0.034375\n",
      "note_on channel=0 note=62 velocity=127 time=0.019791666666666666\n",
      "note_off channel=0 note=60 velocity=127 time=0\n",
      "note_on channel=0 note=61 velocity=127 time=0.017708333333333333\n",
      "note_off channel=0 note=62 velocity=127 time=0.0020833333333333333\n",
      "note_off channel=0 note=61 velocity=127 time=0.017708333333333333\n",
      "note_on channel=0 note=60 velocity=127 time=0.03333333333333333\n",
      "note_on channel=0 note=62 velocity=127 time=0.004166666666666667\n",
      "note_off channel=0 note=60 velocity=127 time=0.016666666666666666\n",
      "note_off channel=0 note=62 velocity=127 time=0.004166666666666667\n",
      "note_on channel=0 note=61 velocity=127 time=0.04583333333333333\n",
      "note_on channel=0 note=62 velocity=127 time=0.009375\n",
      "note_off channel=0 note=61 velocity=127 time=0.010416666666666666\n",
      "note_on channel=0 note=60 velocity=127 time=0.0010416666666666667\n",
      "note_off channel=0 note=62 velocity=127 time=0.008333333333333333\n",
      "note_off channel=0 note=60 velocity=127 time=0.0125\n",
      "note_on channel=0 note=62 velocity=127 time=0.042708333333333334\n",
      "note_off channel=0 note=62 velocity=127 time=0.019791666666666666\n",
      "note_on channel=0 note=60 velocity=127 time=0.008333333333333333\n",
      "note_on channel=0 note=61 velocity=127 time=0.010416666666666666\n",
      "note_off channel=0 note=60 velocity=127 time=0.009375\n",
      "note_off channel=0 note=61 velocity=127 time=0.010416666666666666\n",
      "note_on channel=0 note=62 velocity=127 time=0.015625\n",
      "note_off channel=0 note=62 velocity=127 time=0.019791666666666666\n",
      "note_on channel=0 note=60 velocity=127 time=0.02395833333333333\n",
      "note_off channel=0 note=60 velocity=127 time=0.019791666666666666\n",
      "note_on channel=0 note=62 velocity=127 time=0.010416666666666666\n",
      "note_on channel=0 note=61 velocity=127 time=0.011458333333333333\n",
      "note_off channel=0 note=62 velocity=127 time=0.008333333333333333\n",
      "note_off channel=0 note=61 velocity=127 time=0.011458333333333333\n",
      "note_on channel=0 note=60 velocity=127 time=0.028125\n",
      "note_on channel=0 note=62 velocity=127 time=0.014583333333333334\n",
      "note_off channel=0 note=60 velocity=127 time=0.005208333333333333\n",
      "note_off channel=0 note=62 velocity=127 time=0.014583333333333334\n",
      "note_on channel=0 note=61 velocity=127 time=0.03958333333333333\n",
      "note_on channel=0 note=62 velocity=127 time=0.015625\n",
      "note_on channel=0 note=60 velocity=127 time=0.0010416666666666667\n",
      "note_off channel=0 note=61 velocity=127 time=0.004166666666666667\n",
      "note_off channel=0 note=62 velocity=127 time=0.015625\n",
      "note_off channel=0 note=60 velocity=127 time=0.0010416666666666667\n",
      "note_on channel=0 note=62 velocity=127 time=0.05416666666666667\n",
      "note_on channel=0 note=60 velocity=127 time=0.016666666666666666\n",
      "note_off channel=0 note=62 velocity=127 time=0.003125\n",
      "note_on channel=0 note=61 velocity=127 time=0.0125\n",
      "note_off channel=0 note=60 velocity=127 time=0.004166666666666667\n",
      "note_off channel=0 note=61 velocity=127 time=0.015625\n",
      "\u001b[91m [DEBUG] > \u001b[0m\n",
      " |>  to_array: msg.time > max_t; t, n\n",
      " |>  2.005208333333334\n",
      " |>  100\n",
      "note_on channel=0 note=62 velocity=127 time=0.04791666666666666\n",
      "note_off channel=0 note=62 velocity=127 time=0.019791666666666666\n",
      "note_on channel=0 note=60 velocity=127 time=0.01875\n",
      "note_off channel=0 note=60 velocity=127 time=0.019791666666666666\n",
      "note_on channel=0 note=62 velocity=127 time=0.008333333333333333\n",
      "note_off channel=0 note=62 velocity=127 time=0.019791666666666666\n",
      "note_on channel=0 note=62 velocity=127 time=0.046875\n",
      "note_on channel=0 note=61 velocity=127 time=0.017708333333333333\n",
      "note_off channel=0 note=62 velocity=127 time=0.003125\n",
      "note_off channel=0 note=61 velocity=127 time=0.017708333333333333\n",
      "note_on channel=0 note=60 velocity=127 time=0.013541666666666667\n",
      "note_on channel=0 note=62 velocity=127 time=0.016666666666666666\n",
      "note_off channel=0 note=60 velocity=127 time=0.004166666666666667\n",
      "note_off channel=0 note=62 velocity=127 time=0.016666666666666666\n",
      "note_on channel=0 note=62 velocity=127 time=0.046875\n",
      "note_off channel=0 note=62 velocity=127 time=0.019791666666666666\n",
      "note_on channel=0 note=60 velocity=127 time=0.042708333333333334\n",
      "note_on channel=0 note=62 velocity=127 time=0.004166666666666667\n",
      "note_off channel=0 note=60 velocity=127 time=0.015625\n",
      "note_on channel=0 note=61 velocity=127 time=0.0010416666666666667\n",
      "note_off channel=0 note=62 velocity=127 time=0.003125\n",
      "note_off channel=0 note=61 velocity=127 time=0.016666666666666666\n",
      "note_on channel=0 note=62 velocity=127 time=0.030208333333333334\n",
      "note_off channel=0 note=62 velocity=127 time=0.019791666666666666\n",
      "note_on channel=0 note=62 velocity=127 time=0.046875\n",
      "note_on channel=0 note=60 velocity=127 time=0.008333333333333333\n",
      "note_off channel=0 note=62 velocity=127 time=0.011458333333333333\n",
      "note_off channel=0 note=60 velocity=127 time=0.008333333333333333\n",
      "note_on channel=0 note=62 velocity=127 time=0.03854166666666667\n",
      "note_on channel=0 note=61 velocity=127 time=0.016666666666666666\n",
      "note_off channel=0 note=62 velocity=127 time=0.003125\n",
      "note_off channel=0 note=61 velocity=127 time=0.016666666666666666\n",
      "note_on channel=0 note=62 velocity=127 time=0.030208333333333334\n",
      "note_off channel=0 note=62 velocity=127 time=0.019791666666666666\n",
      "note_on channel=0 note=60 velocity=127 time=0.0010416666666666667\n",
      "note_off channel=0 note=60 velocity=127 time=0.019791666666666666\n",
      "note_on channel=0 note=62 velocity=127 time=0.026041666666666668\n",
      "note_off channel=0 note=62 velocity=127 time=0.019791666666666666\n",
      "note_on channel=0 note=62 velocity=127 time=0.046875\n",
      "note_on channel=0 note=61 velocity=127 time=0.016666666666666666\n",
      "note_off channel=0 note=62 velocity=127 time=0.003125\n",
      "note_on channel=0 note=60 velocity=127 time=0.013541666666666667\n",
      "note_off channel=0 note=61 velocity=127 time=0.003125\n",
      "note_off channel=0 note=60 velocity=127 time=0.016666666666666666\n",
      "note_on channel=0 note=62 velocity=127 time=0.013541666666666667\n",
      "note_off channel=0 note=62 velocity=127 time=0.019791666666666666\n",
      "note_on channel=0 note=62 velocity=127 time=0.046875\n",
      "note_off channel=0 note=62 velocity=127 time=0.019791666666666666\n",
      "note_on channel=0 note=60 velocity=127 time=0.026041666666666668\n",
      "note_off channel=0 note=60 velocity=127 time=0.019791666666666666\n",
      "note_on channel=0 note=62 velocity=127 time=0.0010416666666666667\n",
      "note_on channel=0 note=61 velocity=127 time=0.016666666666666666\n",
      "note_off channel=0 note=62 velocity=127 time=0.003125\n",
      "note_off channel=0 note=61 velocity=127 time=0.016666666666666666\n",
      "note_on channel=0 note=62 velocity=127 time=0.030208333333333334\n",
      "note_off channel=0 note=62 velocity=127 time=0.019791666666666666\n",
      "note_on channel=0 note=60 velocity=127 time=0.0375\n",
      "note_on channel=0 note=62 velocity=127 time=0.009375\n",
      "note_off channel=0 note=60 velocity=127 time=0.010416666666666666\n",
      "note_off channel=0 note=62 velocity=127 time=0.009375\n",
      "note_on channel=0 note=62 velocity=127 time=0.046875\n",
      "note_on channel=0 note=61 velocity=127 time=0.016666666666666666\n",
      "note_off channel=0 note=62 velocity=127 time=0.004166666666666667\n",
      "note_off channel=0 note=61 velocity=127 time=0.016666666666666666\n",
      "note_on channel=0 note=62 velocity=127 time=0.03125\n",
      "note_on channel=0 note=60 velocity=127 time=0.003125\n",
      "note_off channel=0 note=62 velocity=127 time=0.016666666666666666\n",
      "note_off channel=0 note=60 velocity=127 time=0.003125\n",
      "note_on channel=0 note=62 velocity=127 time=0.04375\n",
      "note_off channel=0 note=62 velocity=127 time=0.019791666666666666\n",
      "note_on channel=0 note=62 velocity=127 time=0.046875\n",
      "note_on channel=0 note=60 velocity=127 time=0.015625\n",
      "note_on channel=0 note=61 velocity=127 time=0\n",
      "note_off channel=0 note=62 velocity=127 time=0.004166666666666667\n",
      "note_off channel=0 note=60 velocity=127 time=0.015625\n",
      "note_off channel=0 note=61 velocity=127 time=0\n",
      "note_on channel=0 note=62 velocity=127 time=0.03125\n",
      "note_off channel=0 note=62 velocity=127 time=0.019791666666666666\n",
      "note_on channel=0 note=62 velocity=127 time=0.046875\n",
      "note_off channel=0 note=62 velocity=127 time=0.019791666666666666\n",
      "note_on channel=0 note=60 velocity=127 time=0.008333333333333333\n",
      "note_off channel=0 note=60 velocity=127 time=0.019791666666666666\n",
      "note_on channel=0 note=62 velocity=127 time=0.01875\n",
      "note_on channel=0 note=61 velocity=127 time=0.015625\n",
      "note_off channel=0 note=62 velocity=127 time=0.004166666666666667\n",
      "note_off channel=0 note=61 velocity=127 time=0.015625\n",
      "note_on channel=0 note=62 velocity=127 time=0.03125\n",
      "note_off channel=0 note=62 velocity=127 time=0.019791666666666666\n",
      "note_on channel=0 note=60 velocity=127 time=0.020833333333333332\n",
      "note_off channel=0 note=60 velocity=127 time=0.019791666666666666\n",
      "note_on channel=0 note=62 velocity=127 time=0.00625\n",
      "note_off channel=0 note=62 velocity=127 time=0.019791666666666666\n",
      "note_on channel=0 note=62 velocity=127 time=0.046875\n",
      "note_on channel=0 note=61 velocity=127 time=0.015625\n",
      "note_off channel=0 note=62 velocity=127 time=0.004166666666666667\n",
      "note_off channel=0 note=61 velocity=127 time=0.015625\n",
      "note_on channel=0 note=60 velocity=127 time=0.017708333333333333\n",
      "note_on channel=0 note=62 velocity=127 time=0.014583333333333334\n",
      "note_off channel=0 note=60 velocity=127 time=0.005208333333333333\n",
      "note_off channel=0 note=62 velocity=127 time=0.014583333333333334\n",
      "note_on channel=0 note=62 velocity=127 time=0.046875\n",
      "note_off channel=0 note=62 velocity=127 time=0.019791666666666666\n",
      "note_on channel=0 note=60 velocity=127 time=0.04479166666666667\n",
      "note_on channel=0 note=62 velocity=127 time=0.0020833333333333333\n",
      "note_on channel=0 note=61 velocity=127 time=0.015625\n",
      "\u001b[91m [DEBUG] > \u001b[0m\n",
      " |>  to_array: msg.time > max_t; t, n\n",
      " |>  2.003125\n",
      " |>  100\n",
      "note_on channel=0 note=60 velocity=127 time=0.02395833333333333\n",
      "note_off channel=0 note=60 velocity=127 time=0.019791666666666666\n",
      "note_on channel=0 note=61 velocity=127 time=0.03125\n",
      "note_off channel=0 note=61 velocity=127 time=0.019791666666666666\n",
      "note_on channel=0 note=60 velocity=127 time=0.0020833333333333333\n",
      "note_on channel=0 note=62 velocity=127 time=0.003125\n",
      "note_off channel=0 note=60 velocity=127 time=0.016666666666666666\n",
      "note_off channel=0 note=62 velocity=127 time=0.003125\n",
      "note_on channel=0 note=60 velocity=127 time=0.05\n",
      "note_off channel=0 note=60 velocity=127 time=0.019791666666666666\n",
      "note_on channel=0 note=60 velocity=127 time=0.053125\n",
      "note_off channel=0 note=60 velocity=127 time=0.019791666666666666\n",
      "note_on channel=0 note=62 velocity=127 time=0.004166666666666667\n",
      "note_off channel=0 note=62 velocity=127 time=0.019791666666666666\n",
      "note_on channel=0 note=61 velocity=127 time=0.013541666666666667\n",
      "note_on channel=0 note=60 velocity=127 time=0.015625\n",
      "note_off channel=0 note=61 velocity=127 time=0.004166666666666667\n",
      "note_off channel=0 note=60 velocity=127 time=0.015625\n",
      "note_on channel=0 note=60 velocity=127 time=0.053125\n",
      "note_off channel=0 note=60 velocity=127 time=0.019791666666666666\n",
      "note_on channel=0 note=62 velocity=127 time=0.025\n",
      "note_off channel=0 note=62 velocity=127 time=0.019791666666666666\n",
      "note_on channel=0 note=60 velocity=127 time=0.008333333333333333\n",
      "note_off channel=0 note=60 velocity=127 time=0.019791666666666666\n",
      "note_on channel=0 note=61 velocity=127 time=0.04479166666666667\n",
      "note_on channel=0 note=60 velocity=127 time=0.008333333333333333\n",
      "note_off channel=0 note=61 velocity=127 time=0.011458333333333333\n",
      "note_off channel=0 note=60 velocity=127 time=0.008333333333333333\n",
      "note_on channel=0 note=62 velocity=127 time=0.04583333333333333\n",
      "note_on channel=0 note=60 velocity=127 time=0.008333333333333333\n",
      "note_off channel=0 note=62 velocity=127 time=0.0125\n",
      "note_off channel=0 note=60 velocity=127 time=0.008333333333333333\n",
      "note_on channel=0 note=60 velocity=127 time=0.053125\n",
      "note_off channel=0 note=60 velocity=127 time=0.019791666666666666\n",
      "note_on channel=0 note=61 velocity=127 time=0.051041666666666666\n",
      "note_on channel=0 note=60 velocity=127 time=0.0020833333333333333\n",
      "note_on channel=0 note=62 velocity=127 time=0.0125\n",
      "note_off channel=0 note=61 velocity=127 time=0.005208333333333333\n",
      "note_off channel=0 note=60 velocity=127 time=0.0020833333333333333\n",
      "note_off channel=0 note=62 velocity=127 time=0.0125\n",
      "note_on channel=0 note=60 velocity=127 time=0.040625\n",
      "note_off channel=0 note=60 velocity=127 time=0.019791666666666666\n",
      "note_on channel=0 note=60 velocity=127 time=0.053125\n",
      "note_off channel=0 note=60 velocity=127 time=0.019791666666666666\n"
     ]
    },
    {
     "name": "stdout",
     "output_type": "stream",
     "text": [
      "note_on channel=0 note=62 velocity=127 time=0.013541666666666667\n",
      "note_off channel=0 note=62 velocity=127 time=0.019791666666666666\n",
      "note_on channel=0 note=60 velocity=127 time=0.019791666666666666\n",
      "note_on channel=0 note=61 velocity=127 time=0.004166666666666667\n",
      "note_off channel=0 note=60 velocity=127 time=0.015625\n",
      "note_off channel=0 note=61 velocity=127 time=0.004166666666666667\n",
      "note_on channel=0 note=60 velocity=127 time=0.04895833333333333\n",
      "note_off channel=0 note=60 velocity=127 time=0.019791666666666666\n",
      "note_on channel=0 note=62 velocity=127 time=0.034375\n",
      "note_on channel=0 note=60 velocity=127 time=0.019791666666666666\n",
      "note_off channel=0 note=62 velocity=127 time=0\n",
      "note_off channel=0 note=60 velocity=127 time=0.019791666666666666\n",
      "note_on channel=0 note=60 velocity=127 time=0.053125\n",
      "note_on channel=0 note=61 velocity=127 time=0.011458333333333333\n",
      "note_off channel=0 note=60 velocity=127 time=0.009375\n",
      "note_off channel=0 note=61 velocity=127 time=0.011458333333333333\n",
      "note_on channel=0 note=60 velocity=127 time=0.042708333333333334\n",
      "note_on channel=0 note=62 velocity=127 time=0.0010416666666666667\n",
      "note_off channel=0 note=60 velocity=127 time=0.01875\n",
      "note_off channel=0 note=62 velocity=127 time=0.0010416666666666667\n",
      "note_on channel=0 note=60 velocity=127 time=0.052083333333333336\n",
      "note_off channel=0 note=60 velocity=127 time=0.019791666666666666\n",
      "note_on channel=0 note=60 velocity=127 time=0.053125\n",
      "note_on channel=0 note=61 velocity=127 time=0.017708333333333333\n",
      "note_off channel=0 note=60 velocity=127 time=0.0020833333333333333\n",
      "note_on channel=0 note=62 velocity=127 time=0.0020833333333333333\n",
      "note_off channel=0 note=61 velocity=127 time=0.015625\n",
      "note_off channel=0 note=62 velocity=127 time=0.004166666666666667\n",
      "note_on channel=0 note=60 velocity=127 time=0.03125\n",
      "note_off channel=0 note=60 velocity=127 time=0.019791666666666666\n",
      "note_on channel=0 note=60 velocity=127 time=0.053125\n",
      "note_off channel=0 note=60 velocity=127 time=0.019791666666666666\n",
      "note_on channel=0 note=62 velocity=127 time=0.022916666666666665\n",
      "note_off channel=0 note=62 velocity=127 time=0.019791666666666666\n",
      "note_on channel=0 note=60 velocity=127 time=0.011458333333333333\n",
      "note_off channel=0 note=60 velocity=127 time=0.019791666666666666\n",
      "note_on channel=0 note=61 velocity=127 time=0.004166666666666667\n",
      "note_off channel=0 note=61 velocity=127 time=0.019791666666666666\n",
      "note_on channel=0 note=60 velocity=127 time=0.029166666666666667\n",
      "note_off channel=0 note=60 velocity=127 time=0.019791666666666666\n",
      "note_on channel=0 note=62 velocity=127 time=0.04375\n",
      "note_on channel=0 note=60 velocity=127 time=0.010416666666666666\n",
      "note_off channel=0 note=62 velocity=127 time=0.009375\n",
      "note_off channel=0 note=60 velocity=127 time=0.010416666666666666\n",
      "note_on channel=0 note=60 velocity=127 time=0.053125\n",
      "note_off channel=0 note=60 velocity=127 time=0.019791666666666666\n",
      "note_on channel=0 note=61 velocity=127 time=0.010416666666666666\n",
      "note_off channel=0 note=61 velocity=127 time=0.019791666666666666\n",
      "note_on channel=0 note=60 velocity=127 time=0.022916666666666665\n",
      "note_on channel=0 note=62 velocity=127 time=0.010416666666666666\n",
      "note_off channel=0 note=60 velocity=127 time=0.009375\n",
      "note_off channel=0 note=62 velocity=127 time=0.010416666666666666\n",
      "note_on channel=0 note=60 velocity=127 time=0.04375\n",
      "\u001b[91m [DEBUG] > \u001b[0m\n",
      " |>  to_array: msg.time > max_t; t, n\n",
      " |>  2.0010416666666666\n",
      " |>  100\n",
      "note_on channel=0 note=60 velocity=127 time=0.003125\n",
      "note_on channel=0 note=62 velocity=127 time=0.010416666666666666\n",
      "note_off channel=0 note=60 velocity=127 time=0.009375\n",
      "note_off channel=0 note=62 velocity=127 time=0.010416666666666666\n",
      "note_on channel=0 note=61 velocity=127 time=0.030208333333333334\n",
      "note_off channel=0 note=61 velocity=127 time=0.019791666666666666\n",
      "note_on channel=0 note=60 velocity=127 time=0.0020833333333333333\n",
      "note_off channel=0 note=60 velocity=127 time=0.019791666666666666\n",
      "note_on channel=0 note=60 velocity=127 time=0.06354166666666666\n",
      "note_off channel=0 note=60 velocity=127 time=0.019791666666666666\n",
      "note_on channel=0 note=61 velocity=127 time=0.013541666666666667\n",
      "note_on channel=0 note=62 velocity=127 time=0.015625\n",
      "note_off channel=0 note=61 velocity=127 time=0.004166666666666667\n",
      "note_off channel=0 note=62 velocity=127 time=0.015625\n",
      "note_on channel=0 note=60 velocity=127 time=0.014583333333333334\n",
      "note_off channel=0 note=60 velocity=127 time=0.019791666666666666\n",
      "note_on channel=0 note=60 velocity=127 time=0.06354166666666666\n",
      "note_on channel=0 note=61 velocity=127 time=0.00625\n",
      "note_off channel=0 note=60 velocity=127 time=0.014583333333333334\n",
      "note_off channel=0 note=61 velocity=127 time=0.00625\n",
      "note_on channel=0 note=60 velocity=127 time=0.057291666666666664\n",
      "note_on channel=0 note=62 velocity=127 time=0.004166666666666667\n",
      "note_off channel=0 note=60 velocity=127 time=0.015625\n",
      "note_off channel=0 note=62 velocity=127 time=0.004166666666666667\n",
      "note_on channel=0 note=61 velocity=127 time=0.0375\n",
      "note_off channel=0 note=61 velocity=127 time=0.019791666666666666\n",
      "note_on channel=0 note=60 velocity=127 time=0.0010416666666666667\n",
      "note_off channel=0 note=60 velocity=127 time=0.019791666666666666\n",
      "note_on channel=0 note=60 velocity=127 time=0.06354166666666666\n",
      "note_off channel=0 note=60 velocity=127 time=0.019791666666666666\n",
      "note_on channel=0 note=61 velocity=127 time=0.014583333333333334\n",
      "note_on channel=0 note=62 velocity=127 time=0.008333333333333333\n",
      "note_off channel=0 note=61 velocity=127 time=0.011458333333333333\n",
      "note_off channel=0 note=62 velocity=127 time=0.008333333333333333\n",
      "note_on channel=0 note=60 velocity=127 time=0.019791666666666666\n",
      "note_off channel=0 note=60 velocity=127 time=0.019791666666666666\n",
      "note_on channel=0 note=60 velocity=127 time=0.06354166666666666\n",
      "note_on channel=0 note=61 velocity=127 time=0.007291666666666667\n",
      "note_off channel=0 note=60 velocity=127 time=0.013541666666666667\n",
      "note_off channel=0 note=61 velocity=127 time=0.007291666666666667\n",
      "note_on channel=0 note=62 velocity=127 time=0.05416666666666667\n",
      "note_on channel=0 note=60 velocity=127 time=0.0020833333333333333\n",
      "note_off channel=0 note=62 velocity=127 time=0.01875\n",
      "note_off channel=0 note=60 velocity=127 time=0.0020833333333333333\n",
      "note_on channel=0 note=61 velocity=127 time=0.042708333333333334\n",
      "note_off channel=0 note=61 velocity=127 time=0.019791666666666666\n",
      "note_on channel=0 note=60 velocity=127 time=0\n",
      "note_off channel=0 note=60 velocity=127 time=0.019791666666666666\n",
      "note_on channel=0 note=60 velocity=127 time=0.06354166666666666\n",
      "note_off channel=0 note=60 velocity=127 time=0.019791666666666666\n",
      "note_on channel=0 note=61 velocity=127 time=0.015625\n",
      "note_on channel=0 note=62 velocity=127 time=0.0020833333333333333\n",
      "note_off channel=0 note=61 velocity=127 time=0.01875\n",
      "note_off channel=0 note=62 velocity=127 time=0.0020833333333333333\n",
      "note_on channel=0 note=60 velocity=127 time=0.026041666666666668\n",
      "note_off channel=0 note=60 velocity=127 time=0.019791666666666666\n",
      "note_on channel=0 note=60 velocity=127 time=0.06354166666666666\n",
      "note_on channel=0 note=61 velocity=127 time=0.008333333333333333\n",
      "note_off channel=0 note=60 velocity=127 time=0.0125\n",
      "note_off channel=0 note=61 velocity=127 time=0.008333333333333333\n",
      "note_on channel=0 note=62 velocity=127 time=0.04791666666666666\n",
      "note_on channel=0 note=60 velocity=127 time=0.007291666666666667\n",
      "note_off channel=0 note=62 velocity=127 time=0.0125\n",
      "note_off channel=0 note=60 velocity=127 time=0.007291666666666667\n",
      "note_on channel=0 note=61 velocity=127 time=0.04375\n",
      "note_on channel=0 note=60 velocity=127 time=0.019791666666666666\n",
      "note_off channel=0 note=61 velocity=127 time=0\n",
      "note_off channel=0 note=60 velocity=127 time=0.019791666666666666\n",
      "note_on channel=0 note=60 velocity=127 time=0.06354166666666666\n",
      "note_off channel=0 note=60 velocity=127 time=0.019791666666666666\n",
      "note_on channel=0 note=62 velocity=127 time=0.010416666666666666\n",
      "note_on channel=0 note=61 velocity=127 time=0.005208333333333333\n",
      "note_off channel=0 note=62 velocity=127 time=0.014583333333333334\n",
      "note_off channel=0 note=61 velocity=127 time=0.005208333333333333\n",
      "note_on channel=0 note=60 velocity=127 time=0.027083333333333334\n",
      "note_off channel=0 note=60 velocity=127 time=0.019791666666666666\n",
      "note_on channel=0 note=60 velocity=127 time=0.06354166666666666\n",
      "note_on channel=0 note=61 velocity=127 time=0.008333333333333333\n",
      "note_off channel=0 note=60 velocity=127 time=0.011458333333333333\n",
      "note_off channel=0 note=61 velocity=127 time=0.008333333333333333\n",
      "note_on channel=0 note=62 velocity=127 time=0.040625\n",
      "note_on channel=0 note=60 velocity=127 time=0.013541666666666667\n",
      "note_off channel=0 note=62 velocity=127 time=0.00625\n",
      "note_off channel=0 note=60 velocity=127 time=0.013541666666666667\n",
      "note_on channel=0 note=61 velocity=127 time=0.04479166666666667\n",
      "note_on channel=0 note=60 velocity=127 time=0.01875\n",
      "note_off channel=0 note=61 velocity=127 time=0.0010416666666666667\n",
      "note_off channel=0 note=60 velocity=127 time=0.01875\n",
      "note_on channel=0 note=60 velocity=127 time=0.06354166666666666\n",
      "note_off channel=0 note=60 velocity=127 time=0.019791666666666666\n",
      "note_on channel=0 note=62 velocity=127 time=0.005208333333333333\n",
      "note_on channel=0 note=61 velocity=127 time=0.0125\n",
      "note_off channel=0 note=62 velocity=127 time=0.007291666666666667\n",
      "note_off channel=0 note=61 velocity=127 time=0.0125\n",
      "note_on channel=0 note=60 velocity=127 time=0.026041666666666668\n",
      "note_off channel=0 note=60 velocity=127 time=0.019791666666666666\n",
      "note_on channel=0 note=60 velocity=127 time=0.06354166666666666\n",
      "\u001b[91m [DEBUG] > \u001b[0m\n",
      " |>  to_array: msg.time > max_t; t, n\n",
      " |>  2.0020833333333328\n",
      " |>  100\n",
      "note_on channel=0 note=60 velocity=127 time=0.016666666666666666\n",
      "note_on channel=0 note=61 velocity=127 time=0.0010416666666666667\n",
      "note_off channel=0 note=60 velocity=127 time=0.019791666666666666\n",
      "note_off channel=0 note=61 velocity=127 time=0.0010416666666666667\n",
      "note_on channel=0 note=60 velocity=127 time=0.04895833333333333\n",
      "note_off channel=0 note=60 velocity=127 time=0.019791666666666666\n",
      "note_on channel=0 note=62 velocity=127 time=0.015625\n",
      "note_on channel=0 note=61 velocity=127 time=0.003125\n",
      "note_off channel=0 note=62 velocity=127 time=0.016666666666666666\n",
      "note_off channel=0 note=61 velocity=127 time=0.003125\n",
      "note_on channel=0 note=60 velocity=127 time=0.011458333333333333\n",
      "note_off channel=0 note=60 velocity=127 time=0.019791666666666666\n",
      "note_on channel=0 note=60 velocity=127 time=0.05\n",
      "note_on channel=0 note=61 velocity=127 time=0.00625\n",
      "note_off channel=0 note=60 velocity=127 time=0.013541666666666667\n",
      "note_off channel=0 note=61 velocity=127 time=0.00625\n",
      "note_on channel=0 note=60 velocity=127 time=0.04375\n",
      "note_on channel=0 note=62 velocity=127 time=0.011458333333333333\n",
      "note_off channel=0 note=60 velocity=127 time=0.008333333333333333\n",
      "note_off channel=0 note=62 velocity=127 time=0.011458333333333333\n",
      "note_on channel=0 note=61 velocity=127 time=0.0125\n",
      "note_off channel=0 note=61 velocity=127 time=0.019791666666666666\n",
      "note_on channel=0 note=60 velocity=127 time=0.00625\n",
      "note_off channel=0 note=60 velocity=127 time=0.019791666666666666\n",
      "note_on channel=0 note=60 velocity=127 time=0.05\n",
      "note_on channel=0 note=61 velocity=127 time=0.0125\n",
      "note_off channel=0 note=60 velocity=127 time=0.008333333333333333\n",
      "note_off channel=0 note=61 velocity=127 time=0.0125\n",
      "note_on channel=0 note=62 velocity=127 time=0.026041666666666668\n",
      "note_on channel=0 note=60 velocity=127 time=0.0125\n",
      "note_off channel=0 note=62 velocity=127 time=0.008333333333333333\n",
      "note_off channel=0 note=60 velocity=127 time=0.0125\n",
      "note_on channel=0 note=61 velocity=127 time=0.030208333333333334\n",
      "note_off channel=0 note=61 velocity=127 time=0.019791666666666666\n",
      "note_on channel=0 note=60 velocity=127 time=0\n",
      "note_off channel=0 note=60 velocity=127 time=0.019791666666666666\n",
      "note_on channel=0 note=60 velocity=127 time=0.05\n",
      "note_on channel=0 note=61 velocity=127 time=0.017708333333333333\n",
      "note_off channel=0 note=60 velocity=127 time=0.0020833333333333333\n",
      "note_on channel=0 note=62 velocity=127 time=0.014583333333333334\n",
      "note_off channel=0 note=61 velocity=127 time=0.003125\n",
      "note_off channel=0 note=62 velocity=127 time=0.016666666666666666\n",
      "note_on channel=0 note=60 velocity=127 time=0.015625\n",
      "note_off channel=0 note=60 velocity=127 time=0.019791666666666666\n",
      "note_on channel=0 note=61 velocity=127 time=0.035416666666666666\n",
      "note_on channel=0 note=60 velocity=127 time=0.014583333333333334\n",
      "note_off channel=0 note=61 velocity=127 time=0.005208333333333333\n",
      "note_off channel=0 note=60 velocity=127 time=0.014583333333333334\n",
      "note_on channel=0 note=60 velocity=127 time=0.05\n",
      "note_on channel=0 note=62 velocity=127 time=0.010416666666666666\n",
      "note_off channel=0 note=60 velocity=127 time=0.009375\n",
      "note_on channel=0 note=61 velocity=127 time=0.003125\n",
      "note_off channel=0 note=62 velocity=127 time=0.007291666666666667\n",
      "note_off channel=0 note=61 velocity=127 time=0.0125\n",
      "note_on channel=0 note=60 velocity=127 time=0.027083333333333334\n",
      "note_off channel=0 note=60 velocity=127 time=0.019791666666666666\n",
      "note_on channel=0 note=61 velocity=127 time=0.041666666666666664\n",
      "note_on channel=0 note=60 velocity=127 time=0.008333333333333333\n",
      "note_off channel=0 note=61 velocity=127 time=0.011458333333333333\n",
      "note_off channel=0 note=60 velocity=127 time=0.008333333333333333\n",
      "note_on channel=0 note=62 velocity=127 time=0.036458333333333336\n",
      "note_on channel=0 note=60 velocity=127 time=0.013541666666666667\n",
      "note_off channel=0 note=62 velocity=127 time=0.00625\n",
      "note_off channel=0 note=60 velocity=127 time=0.013541666666666667\n",
      "note_on channel=0 note=61 velocity=127 time=0.009375\n",
      "note_off channel=0 note=61 velocity=127 time=0.019791666666666666\n",
      "note_on channel=0 note=60 velocity=127 time=0.020833333333333332\n",
      "note_off channel=0 note=60 velocity=127 time=0.019791666666666666\n",
      "note_on channel=0 note=61 velocity=127 time=0.046875\n",
      "note_on channel=0 note=60 velocity=127 time=0.003125\n",
      "note_off channel=0 note=61 velocity=127 time=0.016666666666666666\n",
      "note_off channel=0 note=60 velocity=127 time=0.003125\n",
      "note_on channel=0 note=62 velocity=127 time=0.0125\n",
      "note_off channel=0 note=62 velocity=127 time=0.019791666666666666\n",
      "note_on channel=0 note=60 velocity=127 time=0.016666666666666666\n",
      "note_off channel=0 note=60 velocity=127 time=0.019791666666666666\n",
      "note_on channel=0 note=61 velocity=127 time=0.014583333333333334\n",
      "note_off channel=0 note=61 velocity=127 time=0.019791666666666666\n",
      "note_on channel=0 note=60 velocity=127 time=0.015625\n",
      "note_off channel=0 note=60 velocity=127 time=0.019791666666666666\n",
      "note_on channel=0 note=60 velocity=127 time=0.05\n",
      "note_on channel=0 note=61 velocity=127 time=0.003125\n",
      "note_on channel=0 note=62 velocity=127 time=0.00625\n",
      "note_off channel=0 note=60 velocity=127 time=0.010416666666666666\n",
      "note_off channel=0 note=61 velocity=127 time=0.003125\n",
      "note_off channel=0 note=62 velocity=127 time=0.00625\n",
      "note_on channel=0 note=60 velocity=127 time=0.040625\n",
      "note_off channel=0 note=60 velocity=127 time=0.019791666666666666\n",
      "note_on channel=0 note=61 velocity=127 time=0.020833333333333332\n",
      "note_off channel=0 note=61 velocity=127 time=0.019791666666666666\n",
      "note_on channel=0 note=60 velocity=127 time=0.009375\n",
      "note_off channel=0 note=60 velocity=127 time=0.019791666666666666\n",
      "note_on channel=0 note=62 velocity=127 time=0.035416666666666666\n",
      "note_on channel=0 note=60 velocity=127 time=0.014583333333333334\n",
      "note_off channel=0 note=62 velocity=127 time=0.005208333333333333\n",
      "note_on channel=0 note=61 velocity=127 time=0.003125\n",
      "note_off channel=0 note=60 velocity=127 time=0.011458333333333333\n",
      "note_off channel=0 note=61 velocity=127 time=0.008333333333333333\n",
      "note_on channel=0 note=60 velocity=127 time=0.041666666666666664\n",
      "note_off channel=0 note=60 velocity=127 time=0.019791666666666666\n",
      "note_on channel=0 note=61 velocity=127 time=0.026041666666666668\n",
      "note_off channel=0 note=61 velocity=127 time=0.019791666666666666\n",
      "note_on channel=0 note=60 velocity=127 time=0.004166666666666667\n",
      "note_off channel=0 note=60 velocity=127 time=0.019791666666666666\n",
      "note_on channel=0 note=62 velocity=127 time=0.011458333333333333\n",
      "note_off channel=0 note=62 velocity=127 time=0.019791666666666666\n",
      "note_on channel=0 note=60 velocity=127 time=0.01875\n",
      "note_on channel=0 note=61 velocity=127 time=0.013541666666666667\n",
      "note_off channel=0 note=60 velocity=127 time=0.00625\n",
      "note_off channel=0 note=61 velocity=127 time=0.013541666666666667\n",
      "note_on channel=0 note=60 velocity=127 time=0.036458333333333336\n",
      "note_off channel=0 note=60 velocity=127 time=0.019791666666666666\n",
      "note_on channel=0 note=61 velocity=127 time=0.03229166666666666\n",
      "note_on channel=0 note=60 velocity=127 time=0.017708333333333333\n",
      "note_off channel=0 note=61 velocity=127 time=0.0020833333333333333\n",
      "note_on channel=0 note=62 velocity=127 time=0.00625\n",
      "note_off channel=0 note=60 velocity=127 time=0.0125\n",
      "\u001b[91m [DEBUG] > \u001b[0m\n",
      " |>  to_array: msg.time > max_t; t, n\n",
      " |>  1.9947916666666663\n",
      " |>  100\n",
      "note_on channel=0 note=61 velocity=127 time=0.034375\n",
      "note_on channel=0 note=62 velocity=127 time=0.013541666666666667\n",
      "note_off channel=0 note=61 velocity=127 time=0.00625\n",
      "note_off channel=0 note=62 velocity=127 time=0.013541666666666667\n",
      "note_on channel=0 note=61 velocity=127 time=0.034375\n",
      "note_off channel=0 note=61 velocity=127 time=0.019791666666666666\n",
      "note_on channel=0 note=62 velocity=127 time=0.013541666666666667\n",
      "note_off channel=0 note=62 velocity=127 time=0.019791666666666666\n",
      "note_on channel=0 note=61 velocity=127 time=0.014583333333333334\n",
      "note_off channel=0 note=61 velocity=127 time=0.019791666666666666\n",
      "note_on channel=0 note=60 velocity=127 time=0.01875\n",
      "note_on channel=0 note=62 velocity=127 time=0.015625\n",
      "note_off channel=0 note=60 velocity=127 time=0.004166666666666667\n",
      "note_on channel=0 note=61 velocity=127 time=0.009375\n",
      "note_off channel=0 note=62 velocity=127 time=0.00625\n",
      "note_off channel=0 note=61 velocity=127 time=0.013541666666666667\n",
      "note_on channel=0 note=61 velocity=127 time=0.04791666666666666\n",
      "note_on channel=0 note=62 velocity=127 time=0.00625\n",
      "note_off channel=0 note=61 velocity=127 time=0.013541666666666667\n",
      "note_off channel=0 note=62 velocity=127 time=0.00625\n",
      "note_on channel=0 note=61 velocity=127 time=0.041666666666666664\n",
      "note_off channel=0 note=61 velocity=127 time=0.019791666666666666\n",
      "note_on channel=0 note=62 velocity=127 time=0.007291666666666667\n",
      "note_off channel=0 note=62 velocity=127 time=0.019791666666666666\n",
      "note_on channel=0 note=60 velocity=127 time=0.008333333333333333\n",
      "note_on channel=0 note=61 velocity=127 time=0.0125\n",
      "note_off channel=0 note=60 velocity=127 time=0.007291666666666667\n",
      "note_off channel=0 note=61 velocity=127 time=0.0125\n",
      "note_on channel=0 note=62 velocity=127 time=0.027083333333333334\n",
      "note_off channel=0 note=62 velocity=127 time=0.019791666666666666\n",
      "note_on channel=0 note=61 velocity=127 time=0.0010416666666666667\n",
      "note_off channel=0 note=61 velocity=127 time=0.019791666666666666\n",
      "note_on channel=0 note=62 velocity=127 time=0.04791666666666666\n",
      "note_on channel=0 note=61 velocity=127 time=0.0010416666666666667\n",
      "note_off channel=0 note=62 velocity=127 time=0.019791666666666666\n",
      "note_off channel=0 note=61 velocity=127 time=0.0010416666666666667\n",
      "note_on channel=0 note=61 velocity=127 time=0.04791666666666666\n",
      "note_on channel=0 note=60 velocity=127 time=0.003125\n",
      "note_on channel=0 note=62 velocity=127 time=0.015625\n",
      "note_off channel=0 note=61 velocity=127 time=0\n",
      "note_off channel=0 note=60 velocity=127 time=0.003125\n",
      "note_off channel=0 note=62 velocity=127 time=0.015625\n",
      "note_on channel=0 note=61 velocity=127 time=0.028125\n",
      "note_off channel=0 note=61 velocity=127 time=0.019791666666666666\n",
      "note_on channel=0 note=62 velocity=127 time=0.019791666666666666\n",
      "note_off channel=0 note=62 velocity=127 time=0.019791666666666666\n",
      "note_on channel=0 note=61 velocity=127 time=0.008333333333333333\n",
      "note_off channel=0 note=61 velocity=127 time=0.019791666666666666\n",
      "note_on channel=0 note=62 velocity=127 time=0.040625\n",
      "note_on channel=0 note=61 velocity=127 time=0.007291666666666667\n",
      "note_off channel=0 note=62 velocity=127 time=0.0125\n",
      "note_off channel=0 note=61 velocity=127 time=0.007291666666666667\n",
      "note_on channel=0 note=60 velocity=127 time=0\n",
      "note_off channel=0 note=60 velocity=127 time=0.019791666666666666\n",
      "note_on channel=0 note=61 velocity=127 time=0.028125\n",
      "note_on channel=0 note=62 velocity=127 time=0.0125\n",
      "note_off channel=0 note=61 velocity=127 time=0.007291666666666667\n",
      "note_off channel=0 note=62 velocity=127 time=0.0125\n",
      "note_on channel=0 note=61 velocity=127 time=0.035416666666666666\n",
      "note_off channel=0 note=61 velocity=127 time=0.019791666666666666\n",
      "note_on channel=0 note=62 velocity=127 time=0.0125\n",
      "note_off channel=0 note=62 velocity=127 time=0.019791666666666666\n",
      "note_on channel=0 note=61 velocity=127 time=0.015625\n",
      "note_off channel=0 note=61 velocity=127 time=0.019791666666666666\n",
      "note_on channel=0 note=60 velocity=127 time=0.016666666666666666\n",
      "note_on channel=0 note=62 velocity=127 time=0.016666666666666666\n",
      "note_off channel=0 note=60 velocity=127 time=0.003125\n",
      "note_on channel=0 note=61 velocity=127 time=0.011458333333333333\n",
      "note_off channel=0 note=62 velocity=127 time=0.005208333333333333\n",
      "note_off channel=0 note=61 velocity=127 time=0.014583333333333334\n",
      "note_on channel=0 note=61 velocity=127 time=0.04791666666666666\n",
      "note_on channel=0 note=62 velocity=127 time=0.005208333333333333\n",
      "note_off channel=0 note=61 velocity=127 time=0.014583333333333334\n",
      "note_off channel=0 note=62 velocity=127 time=0.005208333333333333\n",
      "note_on channel=0 note=61 velocity=127 time=0.042708333333333334\n",
      "note_off channel=0 note=61 velocity=127 time=0.019791666666666666\n",
      "note_on channel=0 note=62 velocity=127 time=0.00625\n",
      "note_off channel=0 note=62 velocity=127 time=0.019791666666666666\n",
      "note_on channel=0 note=60 velocity=127 time=0.007291666666666667\n",
      "note_on channel=0 note=61 velocity=127 time=0.014583333333333334\n",
      "note_off channel=0 note=60 velocity=127 time=0.005208333333333333\n",
      "note_off channel=0 note=61 velocity=127 time=0.014583333333333334\n",
      "note_on channel=0 note=62 velocity=127 time=0.026041666666666668\n",
      "note_off channel=0 note=62 velocity=127 time=0.019791666666666666\n",
      "note_on channel=0 note=61 velocity=127 time=0.0020833333333333333\n",
      "note_off channel=0 note=61 velocity=127 time=0.019791666666666666\n",
      "note_on channel=0 note=62 velocity=127 time=0.046875\n",
      "note_on channel=0 note=61 velocity=127 time=0.0020833333333333333\n",
      "note_off channel=0 note=62 velocity=127 time=0.01875\n",
      "note_off channel=0 note=61 velocity=127 time=0.0020833333333333333\n",
      "note_on channel=0 note=61 velocity=127 time=0.04791666666666666\n",
      "note_on channel=0 note=60 velocity=127 time=0.0010416666666666667\n",
      "note_on channel=0 note=62 velocity=127 time=0.017708333333333333\n",
      "note_off channel=0 note=61 velocity=127 time=0.0010416666666666667\n",
      "note_off channel=0 note=60 velocity=127 time=0.0010416666666666667\n",
      "note_off channel=0 note=62 velocity=127 time=0.017708333333333333\n",
      "note_on channel=0 note=61 velocity=127 time=0.029166666666666667\n",
      "note_off channel=0 note=61 velocity=127 time=0.019791666666666666\n",
      "note_on channel=0 note=62 velocity=127 time=0.01875\n",
      "note_off channel=0 note=62 velocity=127 time=0.019791666666666666\n",
      "note_on channel=0 note=61 velocity=127 time=0.009375\n",
      "note_off channel=0 note=61 velocity=127 time=0.019791666666666666\n",
      "note_on channel=0 note=62 velocity=127 time=0.03958333333333333\n",
      "note_on channel=0 note=61 velocity=127 time=0.008333333333333333\n",
      "note_off channel=0 note=62 velocity=127 time=0.011458333333333333\n",
      "note_on channel=0 note=60 velocity=127 time=0.00625\n",
      "note_off channel=0 note=61 velocity=127 time=0.0020833333333333333\n",
      "note_off channel=0 note=60 velocity=127 time=0.017708333333333333\n",
      "note_on channel=0 note=61 velocity=127 time=0.030208333333333334\n",
      "note_on channel=0 note=62 velocity=127 time=0.011458333333333333\n",
      "note_off channel=0 note=61 velocity=127 time=0.008333333333333333\n",
      "note_off channel=0 note=62 velocity=127 time=0.011458333333333333\n",
      "note_on channel=0 note=61 velocity=127 time=0.036458333333333336\n",
      "note_off channel=0 note=61 velocity=127 time=0.019791666666666666\n",
      "note_on channel=0 note=62 velocity=127 time=0.0125\n",
      "note_off channel=0 note=62 velocity=127 time=0.019791666666666666\n",
      "note_on channel=0 note=61 velocity=127 time=0.016666666666666666\n",
      "note_off channel=0 note=61 velocity=127 time=0.019791666666666666\n",
      "note_on channel=0 note=60 velocity=127 time=0.014583333333333334\n",
      "note_on channel=0 note=62 velocity=127 time=0.017708333333333333\n",
      "note_off channel=0 note=60 velocity=127 time=0.0020833333333333333\n",
      "note_on channel=0 note=61 velocity=127 time=0.013541666666666667\n",
      "\u001b[91m [DEBUG] > \u001b[0m\n",
      " |>  to_array: msg.time > max_t; t, n\n",
      " |>  2.001041666666667\n",
      " |>  100\n",
      "note_on channel=0 note=61 velocity=127 time=0.016666666666666666\n",
      "note_on channel=0 note=60 velocity=127 time=0.015625\n",
      "note_off channel=0 note=61 velocity=127 time=0.004166666666666667\n",
      "note_on channel=0 note=62 velocity=127 time=0.003125\n",
      "note_off channel=0 note=60 velocity=127 time=0.0125\n",
      "note_off channel=0 note=62 velocity=127 time=0.007291666666666667\n",
      "note_on channel=0 note=61 velocity=127 time=0.0625\n",
      "note_on channel=0 note=60 velocity=127 time=0.011458333333333333\n",
      "note_on channel=0 note=62 velocity=127 time=0.005208333333333333\n",
      "note_off channel=0 note=61 velocity=127 time=0.004166666666666667\n",
      "note_off channel=0 note=60 velocity=127 time=0.011458333333333333\n",
      "note_off channel=0 note=62 velocity=127 time=0.005208333333333333\n",
      "note_on channel=0 note=61 velocity=127 time=0.06875\n",
      "note_on channel=0 note=60 velocity=127 time=0.007291666666666667\n",
      "note_on channel=0 note=62 velocity=127 time=0.003125\n",
      "note_off channel=0 note=61 velocity=127 time=0.010416666666666666\n",
      "note_off channel=0 note=60 velocity=127 time=0.007291666666666667\n",
      "note_off channel=0 note=62 velocity=127 time=0.003125\n",
      "note_on channel=0 note=61 velocity=127 time=0.07604166666666666\n",
      "note_on channel=0 note=60 velocity=127 time=0.003125\n",
      "note_on channel=0 note=62 velocity=127 time=0\n",
      "note_off channel=0 note=61 velocity=127 time=0.017708333333333333\n",
      "note_off channel=0 note=60 velocity=127 time=0.003125\n",
      "note_off channel=0 note=62 velocity=127 time=0\n"
     ]
    },
    {
     "name": "stdout",
     "output_type": "stream",
     "text": [
      "note_on channel=0 note=62 velocity=127 time=0.078125\n",
      "note_on channel=0 note=60 velocity=127 time=0.0020833333333333333\n",
      "note_on channel=0 note=61 velocity=127 time=0.0020833333333333333\n",
      "note_off channel=0 note=62 velocity=127 time=0.015625\n",
      "note_off channel=0 note=60 velocity=127 time=0.0020833333333333333\n",
      "note_off channel=0 note=61 velocity=127 time=0.0020833333333333333\n",
      "note_on channel=0 note=62 velocity=127 time=0.07395833333333333\n",
      "note_on channel=0 note=60 velocity=127 time=0.005208333333333333\n",
      "note_on channel=0 note=61 velocity=127 time=0.00625\n",
      "note_off channel=0 note=62 velocity=127 time=0.009375\n",
      "note_off channel=0 note=60 velocity=127 time=0.005208333333333333\n",
      "note_off channel=0 note=61 velocity=127 time=0.00625\n",
      "note_on channel=0 note=62 velocity=127 time=0.06770833333333333\n",
      "note_on channel=0 note=60 velocity=127 time=0.007291666666666667\n",
      "note_on channel=0 note=61 velocity=127 time=0.010416666666666666\n",
      "note_off channel=0 note=62 velocity=127 time=0.0020833333333333333\n",
      "note_off channel=0 note=60 velocity=127 time=0.007291666666666667\n",
      "note_off channel=0 note=61 velocity=127 time=0.010416666666666666\n",
      "note_on channel=0 note=62 velocity=127 time=0.06041666666666667\n",
      "note_on channel=0 note=60 velocity=127 time=0.010416666666666666\n",
      "note_off channel=0 note=62 velocity=127 time=0.010416666666666666\n",
      "note_on channel=0 note=61 velocity=127 time=0.004166666666666667\n",
      "note_off channel=0 note=60 velocity=127 time=0.005208333333333333\n",
      "note_off channel=0 note=61 velocity=127 time=0.014583333333333334\n",
      "note_on channel=0 note=62 velocity=127 time=0.05416666666666667\n",
      "note_on channel=0 note=60 velocity=127 time=0.0125\n",
      "note_off channel=0 note=62 velocity=127 time=0.007291666666666667\n",
      "note_on channel=0 note=61 velocity=127 time=0.011458333333333333\n",
      "note_off channel=0 note=60 velocity=127 time=0.0010416666666666667\n",
      "note_off channel=0 note=61 velocity=127 time=0.01875\n",
      "note_on channel=0 note=62 velocity=127 time=0.046875\n",
      "note_on channel=0 note=60 velocity=127 time=0.014583333333333334\n",
      "note_off channel=0 note=62 velocity=127 time=0.005208333333333333\n",
      "note_off channel=0 note=60 velocity=127 time=0.014583333333333334\n",
      "note_on channel=0 note=61 velocity=127 time=0.003125\n",
      "note_off channel=0 note=61 velocity=127 time=0.019791666666666666\n",
      "note_on channel=0 note=62 velocity=127 time=0.040625\n",
      "note_on channel=0 note=60 velocity=127 time=0.017708333333333333\n",
      "note_off channel=0 note=62 velocity=127 time=0.0020833333333333333\n",
      "note_off channel=0 note=60 velocity=127 time=0.017708333333333333\n",
      "note_on channel=0 note=61 velocity=127 time=0.007291666666666667\n",
      "note_off channel=0 note=61 velocity=127 time=0.019791666666666666\n",
      "note_on channel=0 note=62 velocity=127 time=0.03333333333333333\n",
      "note_off channel=0 note=62 velocity=127 time=0.019791666666666666\n",
      "note_on channel=0 note=60 velocity=127 time=0\n",
      "note_off channel=0 note=60 velocity=127 time=0.019791666666666666\n",
      "note_on channel=0 note=61 velocity=127 time=0.011458333333333333\n",
      "note_off channel=0 note=61 velocity=127 time=0.019791666666666666\n",
      "note_on channel=0 note=62 velocity=127 time=0.027083333333333334\n",
      "note_off channel=0 note=62 velocity=127 time=0.019791666666666666\n",
      "note_on channel=0 note=60 velocity=127 time=0.0020833333333333333\n",
      "note_off channel=0 note=60 velocity=127 time=0.019791666666666666\n",
      "note_on channel=0 note=61 velocity=127 time=0.015625\n",
      "note_off channel=0 note=61 velocity=127 time=0.019791666666666666\n",
      "note_on channel=0 note=62 velocity=127 time=0.019791666666666666\n",
      "note_off channel=0 note=62 velocity=127 time=0.019791666666666666\n",
      "note_on channel=0 note=60 velocity=127 time=0.005208333333333333\n",
      "note_off channel=0 note=60 velocity=127 time=0.019791666666666666\n",
      "note_on channel=0 note=61 velocity=127 time=0.019791666666666666\n",
      "note_off channel=0 note=61 velocity=127 time=0.019791666666666666\n",
      "note_on channel=0 note=62 velocity=127 time=0.013541666666666667\n",
      "note_off channel=0 note=62 velocity=127 time=0.019791666666666666\n",
      "note_on channel=0 note=60 velocity=127 time=0.007291666666666667\n",
      "note_off channel=0 note=60 velocity=127 time=0.019791666666666666\n",
      "note_on channel=0 note=61 velocity=127 time=0.02395833333333333\n",
      "note_off channel=0 note=61 velocity=127 time=0.019791666666666666\n",
      "note_on channel=0 note=62 velocity=127 time=0.00625\n",
      "note_off channel=0 note=62 velocity=127 time=0.019791666666666666\n",
      "note_on channel=0 note=60 velocity=127 time=0.010416666666666666\n",
      "note_off channel=0 note=60 velocity=127 time=0.019791666666666666\n",
      "note_on channel=0 note=61 velocity=127 time=0.028125\n",
      "note_on channel=0 note=62 velocity=127 time=0.019791666666666666\n",
      "note_off channel=0 note=61 velocity=127 time=0\n",
      "note_off channel=0 note=62 velocity=127 time=0.019791666666666666\n",
      "note_on channel=0 note=60 velocity=127 time=0.0125\n",
      "note_off channel=0 note=60 velocity=127 time=0.019791666666666666\n",
      "note_on channel=0 note=61 velocity=127 time=0.03229166666666666\n",
      "note_on channel=0 note=62 velocity=127 time=0.013541666666666667\n",
      "note_off channel=0 note=61 velocity=127 time=0.007291666666666667\n",
      "note_off channel=0 note=62 velocity=127 time=0.013541666666666667\n",
      "note_on channel=0 note=60 velocity=127 time=0.015625\n",
      "note_off channel=0 note=60 velocity=127 time=0.019791666666666666\n",
      "note_on channel=0 note=61 velocity=127 time=0.036458333333333336\n",
      "note_on channel=0 note=62 velocity=127 time=0.00625\n",
      "note_off channel=0 note=61 velocity=127 time=0.013541666666666667\n",
      "note_off channel=0 note=62 velocity=127 time=0.00625\n",
      "note_on channel=0 note=60 velocity=127 time=0.017708333333333333\n",
      "note_off channel=0 note=60 velocity=127 time=0.019791666666666666\n",
      "note_on channel=0 note=62 velocity=127 time=0.040625\n",
      "note_on channel=0 note=61 velocity=127 time=0\n",
      "note_off channel=0 note=62 velocity=127 time=0.019791666666666666\n",
      "note_off channel=0 note=61 velocity=127 time=0\n",
      "note_on channel=0 note=60 velocity=127 time=0.019791666666666666\n",
      "note_off channel=0 note=60 velocity=127 time=0.019791666666666666\n",
      "note_on channel=0 note=62 velocity=127 time=0.03854166666666667\n",
      "\u001b[91m [DEBUG] > \u001b[0m\n",
      " |>  to_array: msg.time > max_t; t, n\n",
      " |>  2.0062499999999996\n",
      " |>  100\n",
      "note_on channel=0 note=62 velocity=127 time=0.035416666666666666\n",
      "note_on channel=0 note=61 velocity=127 time=0.011458333333333333\n",
      "note_off channel=0 note=62 velocity=127 time=0.008333333333333333\n",
      "note_off channel=0 note=61 velocity=127 time=0.011458333333333333\n",
      "note_on channel=0 note=62 velocity=127 time=0.035416666666666666\n",
      "note_off channel=0 note=62 velocity=127 time=0.019791666666666666\n",
      "note_on channel=0 note=61 velocity=127 time=0.005208333333333333\n",
      "note_off channel=0 note=61 velocity=127 time=0.019791666666666666\n",
      "note_on channel=0 note=60 velocity=127 time=0.0020833333333333333\n",
      "note_on channel=0 note=62 velocity=127 time=0.019791666666666666\n",
      "note_off channel=0 note=60 velocity=127 time=0.0010416666666666667\n",
      "note_off channel=0 note=62 velocity=127 time=0.019791666666666666\n",
      "note_on channel=0 note=61 velocity=127 time=0.01875\n",
      "note_off channel=0 note=61 velocity=127 time=0.019791666666666666\n",
      "note_on channel=0 note=62 velocity=127 time=0.008333333333333333\n",
      "note_off channel=0 note=62 velocity=127 time=0.019791666666666666\n",
      "note_on channel=0 note=61 velocity=127 time=0.03229166666666666\n",
      "note_on channel=0 note=62 velocity=127 time=0.014583333333333334\n",
      "note_off channel=0 note=61 velocity=127 time=0.00625\n",
      "note_on channel=0 note=60 velocity=127 time=0.007291666666666667\n",
      "note_off channel=0 note=62 velocity=127 time=0.007291666666666667\n",
      "note_off channel=0 note=60 velocity=127 time=0.0125\n",
      "note_on channel=0 note=61 velocity=127 time=0.03333333333333333\n",
      "note_on channel=0 note=62 velocity=127 time=0\n",
      "note_off channel=0 note=61 velocity=127 time=0.019791666666666666\n",
      "note_off channel=0 note=62 velocity=127 time=0\n",
      "note_on channel=0 note=62 velocity=127 time=0.046875\n",
      "note_on channel=0 note=61 velocity=127 time=0.013541666666666667\n",
      "note_off channel=0 note=62 velocity=127 time=0.00625\n",
      "note_off channel=0 note=61 velocity=127 time=0.013541666666666667\n",
      "note_on channel=0 note=60 velocity=127 time=0.011458333333333333\n",
      "note_off channel=0 note=60 velocity=127 time=0.019791666666666666\n",
      "note_on channel=0 note=62 velocity=127 time=0.0020833333333333333\n",
      "note_off channel=0 note=62 velocity=127 time=0.019791666666666666\n",
      "note_on channel=0 note=61 velocity=127 time=0.007291666666666667\n",
      "note_off channel=0 note=61 velocity=127 time=0.019791666666666666\n",
      "note_on channel=0 note=62 velocity=127 time=0.019791666666666666\n",
      "note_off channel=0 note=62 velocity=127 time=0.019791666666666666\n",
      "note_on channel=0 note=61 velocity=127 time=0.020833333333333332\n",
      "note_off channel=0 note=61 velocity=127 time=0.019791666666666666\n",
      "note_on channel=0 note=62 velocity=127 time=0.00625\n",
      "note_on channel=0 note=60 velocity=127 time=0.009375\n",
      "note_off channel=0 note=62 velocity=127 time=0.010416666666666666\n",
      "note_off channel=0 note=60 velocity=127 time=0.009375\n",
      "note_on channel=0 note=61 velocity=127 time=0.025\n",
      "note_on channel=0 note=62 velocity=127 time=0.0125\n",
      "note_off channel=0 note=61 velocity=127 time=0.008333333333333333\n",
      "note_off channel=0 note=62 velocity=127 time=0.0125\n",
      "note_on channel=0 note=62 velocity=127 time=0.046875\n",
      "note_on channel=0 note=61 velocity=127 time=0.0020833333333333333\n",
      "note_off channel=0 note=62 velocity=127 time=0.01875\n",
      "note_off channel=0 note=61 velocity=127 time=0.0020833333333333333\n",
      "note_on channel=0 note=60 velocity=127 time=0.019791666666666666\n",
      "note_off channel=0 note=60 velocity=127 time=0.019791666666666666\n",
      "note_on channel=0 note=62 velocity=127 time=0.005208333333333333\n",
      "note_on channel=0 note=61 velocity=127 time=0.015625\n",
      "note_off channel=0 note=62 velocity=127 time=0.004166666666666667\n",
      "note_off channel=0 note=61 velocity=127 time=0.015625\n",
      "note_on channel=0 note=62 velocity=127 time=0.03125\n",
      "note_off channel=0 note=62 velocity=127 time=0.019791666666666666\n",
      "note_on channel=0 note=61 velocity=127 time=0.009375\n",
      "note_off channel=0 note=61 velocity=127 time=0.019791666666666666\n",
      "note_on channel=0 note=62 velocity=127 time=0.017708333333333333\n",
      "note_on channel=0 note=60 velocity=127 time=0.007291666666666667\n",
      "note_off channel=0 note=62 velocity=127 time=0.0125\n",
      "note_off channel=0 note=60 velocity=127 time=0.007291666666666667\n",
      "note_on channel=0 note=61 velocity=127 time=0.015625\n",
      "note_off channel=0 note=61 velocity=127 time=0.019791666666666666\n",
      "note_on channel=0 note=62 velocity=127 time=0.004166666666666667\n",
      "note_off channel=0 note=62 velocity=127 time=0.019791666666666666\n",
      "note_on channel=0 note=61 velocity=127 time=0.036458333333333336\n",
      "note_on channel=0 note=62 velocity=127 time=0.010416666666666666\n",
      "note_off channel=0 note=61 velocity=127 time=0.010416666666666666\n",
      "note_off channel=0 note=62 velocity=127 time=0.010416666666666666\n",
      "note_on channel=0 note=60 velocity=127 time=0.01875\n",
      "note_off channel=0 note=60 velocity=127 time=0.019791666666666666\n",
      "note_on channel=0 note=62 velocity=127 time=0.008333333333333333\n",
      "note_on channel=0 note=61 velocity=127 time=0.004166666666666667\n",
      "note_off channel=0 note=62 velocity=127 time=0.016666666666666666\n",
      "note_off channel=0 note=61 velocity=127 time=0.004166666666666667\n",
      "note_on channel=0 note=62 velocity=127 time=0.042708333333333334\n",
      "note_on channel=0 note=61 velocity=127 time=0.017708333333333333\n",
      "note_off channel=0 note=62 velocity=127 time=0.0020833333333333333\n",
      "note_off channel=0 note=61 velocity=127 time=0.017708333333333333\n",
      "note_on channel=0 note=62 velocity=127 time=0.029166666666666667\n",
      "note_on channel=0 note=60 velocity=127 time=0.004166666666666667\n",
      "note_off channel=0 note=62 velocity=127 time=0.015625\n",
      "note_off channel=0 note=60 velocity=127 time=0.004166666666666667\n",
      "note_on channel=0 note=61 velocity=127 time=0.007291666666666667\n",
      "note_off channel=0 note=61 velocity=127 time=0.019791666666666666\n",
      "note_on channel=0 note=62 velocity=127 time=0.015625\n",
      "note_off channel=0 note=62 velocity=127 time=0.019791666666666666\n",
      "note_on channel=0 note=61 velocity=127 time=0.025\n",
      "note_off channel=0 note=61 velocity=127 time=0.019791666666666666\n",
      "note_on channel=0 note=62 velocity=127 time=0.0020833333333333333\n",
      "note_off channel=0 note=62 velocity=127 time=0.019791666666666666\n",
      "note_on channel=0 note=60 velocity=127 time=0.016666666666666666\n",
      "note_off channel=0 note=60 velocity=127 time=0.019791666666666666\n",
      "note_on channel=0 note=61 velocity=127 time=0.003125\n",
      "note_on channel=0 note=62 velocity=127 time=0.008333333333333333\n",
      "note_off channel=0 note=61 velocity=127 time=0.0125\n",
      "note_off channel=0 note=62 velocity=127 time=0.008333333333333333\n",
      "note_on channel=0 note=62 velocity=127 time=0.046875\n",
      "note_on channel=0 note=61 velocity=127 time=0.00625\n",
      "note_off channel=0 note=62 velocity=127 time=0.014583333333333334\n",
      "note_off channel=0 note=61 velocity=127 time=0.00625\n",
      "note_on channel=0 note=62 velocity=127 time=0.040625\n",
      "note_on channel=0 note=60 velocity=127 time=0.0010416666666666667\n",
      "note_on channel=0 note=61 velocity=127 time=0.01875\n",
      "note_off channel=0 note=62 velocity=127 time=0\n",
      "note_off channel=0 note=60 velocity=127 time=0.0010416666666666667\n",
      "note_off channel=0 note=61 velocity=127 time=0.01875\n",
      "note_on channel=0 note=62 velocity=127 time=0.027083333333333334\n",
      "note_off channel=0 note=62 velocity=127 time=0.019791666666666666\n",
      "note_on channel=0 note=61 velocity=127 time=0.013541666666666667\n",
      "note_off channel=0 note=61 velocity=127 time=0.019791666666666666\n",
      "note_on channel=0 note=62 velocity=127 time=0.013541666666666667\n",
      "note_off channel=0 note=62 velocity=127 time=0.019791666666666666\n",
      "note_on channel=0 note=60 velocity=127 time=0.013541666666666667\n",
      "note_on channel=0 note=61 velocity=127 time=0.013541666666666667\n",
      "note_off channel=0 note=60 velocity=127 time=0.00625\n",
      "note_on channel=0 note=62 velocity=127 time=0.013541666666666667\n",
      "note_off channel=0 note=61 velocity=127 time=0\n",
      "note_off channel=0 note=62 velocity=127 time=0.019791666666666666\n",
      "note_on channel=0 note=61 velocity=127 time=0.040625\n",
      "note_on channel=0 note=62 velocity=127 time=0.00625\n",
      "note_off channel=0 note=61 velocity=127 time=0.014583333333333334\n",
      "note_off channel=0 note=62 velocity=127 time=0.00625\n",
      "note_on channel=0 note=60 velocity=127 time=0.04583333333333333\n",
      "note_on channel=0 note=62 velocity=127 time=0.0010416666666666667\n",
      "note_on channel=0 note=61 velocity=127 time=0.008333333333333333\n",
      "note_off channel=0 note=60 velocity=127 time=0.010416666666666666\n",
      "\u001b[91m [DEBUG] > \u001b[0m\n",
      " |>  to_array: msg.time > max_t; t, n\n",
      " |>  1.9968749999999995\n",
      " |>  100\n",
      "note_on channel=0 note=60 velocity=127 time=0.013541666666666667\n",
      "note_off channel=0 note=60 velocity=127 time=0.019791666666666666\n",
      "note_on channel=0 note=62 velocity=127 time=0.008333333333333333\n",
      "note_off channel=0 note=62 velocity=127 time=0.019791666666666666\n",
      "note_on channel=0 note=61 velocity=127 time=0.035416666666666666\n",
      "note_on channel=0 note=62 velocity=127 time=0.014583333333333334\n",
      "note_off channel=0 note=61 velocity=127 time=0.005208333333333333\n",
      "note_off channel=0 note=62 velocity=127 time=0.014583333333333334\n",
      "note_on channel=0 note=62 velocity=127 time=0.05\n",
      "note_off channel=0 note=62 velocity=127 time=0.019791666666666666\n",
      "note_on channel=0 note=61 velocity=127 time=0.00625\n",
      "note_on channel=0 note=60 velocity=127 time=0.007291666666666667\n",
      "note_off channel=0 note=61 velocity=127 time=0.0125\n",
      "note_off channel=0 note=60 velocity=127 time=0.007291666666666667\n",
      "note_on channel=0 note=62 velocity=127 time=0.016666666666666666\n",
      "note_off channel=0 note=62 velocity=127 time=0.019791666666666666\n",
      "note_on channel=0 note=61 velocity=127 time=0.046875\n",
      "note_on channel=0 note=62 velocity=127 time=0.003125\n",
      "note_off channel=0 note=61 velocity=127 time=0.016666666666666666\n",
      "note_off channel=0 note=62 velocity=127 time=0.003125\n",
      "note_on channel=0 note=62 velocity=127 time=0.05\n",
      "note_off channel=0 note=62 velocity=127 time=0.019791666666666666\n",
      "note_on channel=0 note=60 velocity=127 time=0.005208333333333333\n",
      "note_on channel=0 note=61 velocity=127 time=0.011458333333333333\n",
      "note_off channel=0 note=60 velocity=127 time=0.008333333333333333\n",
      "note_off channel=0 note=61 velocity=127 time=0.011458333333333333\n",
      "note_on channel=0 note=62 velocity=127 time=0.0125\n",
      "note_off channel=0 note=62 velocity=127 time=0.019791666666666666\n",
      "note_on channel=0 note=62 velocity=127 time=0.05\n",
      "note_on channel=0 note=61 velocity=127 time=0.008333333333333333\n",
      "note_off channel=0 note=62 velocity=127 time=0.011458333333333333\n",
      "note_off channel=0 note=61 velocity=127 time=0.008333333333333333\n",
      "note_on channel=0 note=62 velocity=127 time=0.041666666666666664\n",
      "note_on channel=0 note=60 velocity=127 time=0.017708333333333333\n",
      "note_off channel=0 note=62 velocity=127 time=0.0020833333333333333\n",
      "note_off channel=0 note=60 velocity=127 time=0.017708333333333333\n",
      "note_on channel=0 note=61 velocity=127 time=0.011458333333333333\n",
      "note_off channel=0 note=61 velocity=127 time=0.019791666666666666\n",
      "note_on channel=0 note=62 velocity=127 time=0.0010416666666666667\n",
      "note_off channel=0 note=62 velocity=127 time=0.019791666666666666\n",
      "note_on channel=0 note=62 velocity=127 time=0.05\n",
      "note_on channel=0 note=61 velocity=127 time=0.019791666666666666\n",
      "note_off channel=0 note=62 velocity=127 time=0\n",
      "note_off channel=0 note=61 velocity=127 time=0.019791666666666666\n",
      "note_on channel=0 note=62 velocity=127 time=0.030208333333333334\n",
      "note_on channel=0 note=60 velocity=127 time=0.010416666666666666\n",
      "note_off channel=0 note=62 velocity=127 time=0.009375\n",
      "note_off channel=0 note=60 velocity=127 time=0.010416666666666666\n",
      "note_on channel=0 note=61 velocity=127 time=0.030208333333333334\n",
      "note_on channel=0 note=62 velocity=127 time=0.009375\n",
      "note_off channel=0 note=61 velocity=127 time=0.010416666666666666\n",
      "note_off channel=0 note=62 velocity=127 time=0.009375\n",
      "note_on channel=0 note=62 velocity=127 time=0.05\n",
      "note_off channel=0 note=62 velocity=127 time=0.019791666666666666\n",
      "note_on channel=0 note=61 velocity=127 time=0.011458333333333333\n",
      "note_off channel=0 note=61 velocity=127 time=0.019791666666666666\n",
      "note_on channel=0 note=62 velocity=127 time=0.01875\n",
      "note_on channel=0 note=60 velocity=127 time=0.0020833333333333333\n",
      "note_off channel=0 note=62 velocity=127 time=0.017708333333333333\n",
      "note_off channel=0 note=60 velocity=127 time=0.0020833333333333333\n",
      "note_on channel=0 note=62 velocity=127 time=0.04791666666666666\n",
      "note_on channel=0 note=61 velocity=127 time=0.0020833333333333333\n",
      "note_off channel=0 note=62 velocity=127 time=0.017708333333333333\n",
      "note_off channel=0 note=61 velocity=127 time=0.0020833333333333333\n",
      "note_on channel=0 note=62 velocity=127 time=0.04791666666666666\n",
      "note_off channel=0 note=62 velocity=127 time=0.019791666666666666\n",
      "note_on channel=0 note=61 velocity=127 time=0.022916666666666665\n",
      "note_off channel=0 note=61 velocity=127 time=0.019791666666666666\n",
      "note_on channel=0 note=60 velocity=127 time=0.0020833333333333333\n",
      "note_on channel=0 note=62 velocity=127 time=0.005208333333333333\n",
      "note_off channel=0 note=60 velocity=127 time=0.014583333333333334\n",
      "note_off channel=0 note=62 velocity=127 time=0.005208333333333333\n",
      "note_on channel=0 note=62 velocity=127 time=0.05\n",
      "note_on channel=0 note=61 velocity=127 time=0.013541666666666667\n",
      "note_off channel=0 note=62 velocity=127 time=0.00625\n",
      "note_off channel=0 note=61 velocity=127 time=0.013541666666666667\n",
      "note_on channel=0 note=62 velocity=127 time=0.036458333333333336\n",
      "note_off channel=0 note=62 velocity=127 time=0.019791666666666666\n",
      "note_on channel=0 note=61 velocity=127 time=0.034375\n",
      "note_on channel=0 note=60 velocity=127 time=0.0020833333333333333\n",
      "note_on channel=0 note=62 velocity=127 time=0.013541666666666667\n",
      "note_off channel=0 note=61 velocity=127 time=0.004166666666666667\n",
      "note_off channel=0 note=60 velocity=127 time=0.0020833333333333333\n",
      "note_off channel=0 note=62 velocity=127 time=0.013541666666666667\n",
      "note_on channel=0 note=62 velocity=127 time=0.05\n",
      "note_off channel=0 note=62 velocity=127 time=0.019791666666666666\n",
      "note_on channel=0 note=61 velocity=127 time=0.005208333333333333\n",
      "note_off channel=0 note=61 velocity=127 time=0.019791666666666666\n",
      "note_on channel=0 note=62 velocity=127 time=0.025\n",
      "note_off channel=0 note=62 velocity=127 time=0.019791666666666666\n",
      "note_on channel=0 note=60 velocity=127 time=0.029166666666666667\n",
      "note_on channel=0 note=61 velocity=127 time=0.016666666666666666\n",
      "note_off channel=0 note=60 velocity=127 time=0.003125\n",
      "note_on channel=0 note=62 velocity=127 time=0.0010416666666666667\n",
      "note_off channel=0 note=61 velocity=127 time=0.015625\n",
      "note_off channel=0 note=62 velocity=127 time=0.004166666666666667\n",
      "note_on channel=0 note=62 velocity=127 time=0.05\n",
      "note_off channel=0 note=62 velocity=127 time=0.019791666666666666\n",
      "note_on channel=0 note=61 velocity=127 time=0.016666666666666666\n",
      "note_off channel=0 note=61 velocity=127 time=0.019791666666666666\n",
      "note_on channel=0 note=62 velocity=127 time=0.013541666666666667\n",
      "note_off channel=0 note=62 velocity=127 time=0.019791666666666666\n",
      "note_on channel=0 note=60 velocity=127 time=0.020833333333333332\n",
      "note_off channel=0 note=60 velocity=127 time=0.019791666666666666\n",
      "note_on channel=0 note=62 velocity=127 time=0.008333333333333333\n",
      "note_on channel=0 note=61 velocity=127 time=0.007291666666666667\n",
      "note_off channel=0 note=62 velocity=127 time=0.0125\n",
      "note_off channel=0 note=61 velocity=127 time=0.007291666666666667\n",
      "note_on channel=0 note=62 velocity=127 time=0.042708333333333334\n",
      "note_off channel=0 note=62 velocity=127 time=0.019791666666666666\n",
      "note_on channel=0 note=61 velocity=127 time=0.028125\n",
      "note_off channel=0 note=61 velocity=127 time=0.019791666666666666\n",
      "\u001b[91m [DEBUG] > \u001b[0m\n",
      " |>  to_array: msg.time > max_t; t, n\n",
      " |>  1.9916666666666663\n",
      " |>  100\n",
      "note_on channel=0 note=61 velocity=127 time=0.096875\n",
      "note_on channel=0 note=60 velocity=127 time=0\n",
      "note_off channel=0 note=61 velocity=127 time=0.019791666666666666\n",
      "note_off channel=0 note=60 velocity=127 time=0\n",
      "note_on channel=0 note=62 velocity=127 time=0.029166666666666667\n",
      "note_off channel=0 note=62 velocity=127 time=0.019791666666666666\n",
      "note_on channel=0 note=61 velocity=127 time=0.07708333333333334\n",
      "note_on channel=0 note=60 velocity=127 time=0.005208333333333333\n",
      "note_off channel=0 note=61 velocity=127 time=0.014583333333333334\n",
      "note_off channel=0 note=60 velocity=127 time=0.005208333333333333\n",
      "note_on channel=0 note=62 velocity=127 time=0.08854166666666667\n",
      "note_off channel=0 note=62 velocity=127 time=0.019791666666666666\n",
      "note_on channel=0 note=61 velocity=127 time=0.013541666666666667\n",
      "note_on channel=0 note=60 velocity=127 time=0.010416666666666666\n",
      "note_off channel=0 note=61 velocity=127 time=0.010416666666666666\n",
      "note_off channel=0 note=60 velocity=127 time=0.010416666666666666\n",
      "note_on channel=0 note=61 velocity=127 time=0.11666666666666667\n",
      "note_on channel=0 note=60 velocity=127 time=0.014583333333333334\n",
      "note_off channel=0 note=61 velocity=127 time=0.005208333333333333\n",
      "note_on channel=0 note=62 velocity=127 time=0.010416666666666666\n",
      "note_off channel=0 note=60 velocity=127 time=0.004166666666666667\n",
      "note_off channel=0 note=62 velocity=127 time=0.015625\n",
      "note_on channel=0 note=61 velocity=127 time=0.09583333333333333\n",
      "note_on channel=0 note=60 velocity=127 time=0.019791666666666666\n",
      "note_off channel=0 note=61 velocity=127 time=0\n",
      "note_off channel=0 note=60 velocity=127 time=0.019791666666666666\n",
      "note_on channel=0 note=62 velocity=127 time=0.05520833333333333\n",
      "note_off channel=0 note=62 velocity=127 time=0.019791666666666666\n",
      "note_on channel=0 note=61 velocity=127 time=0.03229166666666666\n",
      "note_off channel=0 note=61 velocity=127 time=0.019791666666666666\n",
      "note_on channel=0 note=60 velocity=127 time=0.004166666666666667\n",
      "note_off channel=0 note=60 velocity=127 time=0.019791666666666666\n",
      "note_on channel=0 note=61 velocity=127 time=0.10208333333333333\n",
      "note_on channel=0 note=62 velocity=127 time=0.0125\n",
      "note_off channel=0 note=61 velocity=127 time=0.008333333333333333\n",
      "note_on channel=0 note=60 velocity=127 time=0.009375\n",
      "note_off channel=0 note=62 velocity=127 time=0.003125\n",
      "note_off channel=0 note=60 velocity=127 time=0.016666666666666666\n",
      "note_on channel=0 note=61 velocity=127 time=0.09791666666666667\n",
      "note_off channel=0 note=61 velocity=127 time=0.019791666666666666\n",
      "note_on channel=0 note=60 velocity=127 time=0.013541666666666667\n",
      "note_off channel=0 note=60 velocity=127 time=0.019791666666666666\n",
      "note_on channel=0 note=62 velocity=127 time=0.021875\n",
      "note_off channel=0 note=62 velocity=127 time=0.019791666666666666\n",
      "note_on channel=0 note=61 velocity=127 time=0.051041666666666666\n",
      "note_off channel=0 note=61 velocity=127 time=0.019791666666666666\n",
      "note_on channel=0 note=60 velocity=127 time=0.01875\n",
      "note_off channel=0 note=60 velocity=127 time=0.019791666666666666\n",
      "note_on channel=0 note=62 velocity=127 time=0.08125\n",
      "note_on channel=0 note=61 velocity=127 time=0.00625\n",
      "note_off channel=0 note=62 velocity=127 time=0.013541666666666667\n",
      "note_off channel=0 note=61 velocity=127 time=0.00625\n",
      "note_on channel=0 note=60 velocity=127 time=0.02395833333333333\n",
      "note_off channel=0 note=60 velocity=127 time=0.019791666666666666\n",
      "note_on channel=0 note=61 velocity=127 time=0.08333333333333333\n",
      "note_off channel=0 note=61 velocity=127 time=0.019791666666666666\n",
      "note_on channel=0 note=60 velocity=127 time=0.028125\n",
      "note_on channel=0 note=62 velocity=127 time=0.009375\n",
      "note_off channel=0 note=60 velocity=127 time=0.010416666666666666\n",
      "note_off channel=0 note=62 velocity=127 time=0.009375\n",
      "note_on channel=0 note=61 velocity=127 time=0.06875\n",
      "note_off channel=0 note=61 velocity=127 time=0.019791666666666666\n",
      "note_on channel=0 note=60 velocity=127 time=0.03333333333333333\n",
      "note_off channel=0 note=60 velocity=127 time=0.019791666666666666\n",
      "note_on channel=0 note=62 velocity=127 time=0.04791666666666666\n",
      "note_off channel=0 note=62 velocity=127 time=0.019791666666666666\n",
      "note_on channel=0 note=61 velocity=127 time=0.005208333333333333\n",
      "note_off channel=0 note=61 velocity=127 time=0.019791666666666666\n",
      "note_on channel=0 note=60 velocity=127 time=0.0375\n",
      "note_off channel=0 note=60 velocity=127 time=0.019791666666666666\n",
      "note_on channel=0 note=61 velocity=127 time=0.06875\n",
      "\u001b[91m [DEBUG] > \u001b[0m\n",
      " |>  to_array: msg.time > max_t; t, n\n",
      " |>  1.9999999999999996\n",
      " |>  100\n",
      "note_on channel=0 note=62 velocity=127 time=0.014583333333333334\n",
      "note_off channel=0 note=62 velocity=127 time=0.019791666666666666\n",
      "note_on channel=0 note=61 velocity=127 time=0.040625\n",
      "note_on channel=0 note=62 velocity=127 time=0.014583333333333334\n",
      "note_off channel=0 note=61 velocity=127 time=0.005208333333333333\n",
      "note_off channel=0 note=62 velocity=127 time=0.014583333333333334\n",
      "note_on channel=0 note=60 velocity=127 time=0.008333333333333333\n",
      "note_off channel=0 note=60 velocity=127 time=0.019791666666666666\n",
      "note_on channel=0 note=62 velocity=127 time=0.027083333333333334\n",
      "note_off channel=0 note=62 velocity=127 time=0.019791666666666666\n",
      "note_on channel=0 note=61 velocity=127 time=0.005208333333333333\n",
      "note_off channel=0 note=61 velocity=127 time=0.019791666666666666\n",
      "note_on channel=0 note=60 velocity=127 time=0.028125\n",
      "note_on channel=0 note=62 velocity=127 time=0.0010416666666666667\n",
      "note_off channel=0 note=60 velocity=127 time=0.01875\n",
      "note_off channel=0 note=62 velocity=127 time=0.0010416666666666667\n",
      "note_on channel=0 note=61 velocity=127 time=0.04479166666666667\n",
      "note_on channel=0 note=62 velocity=127 time=0.010416666666666666\n",
      "note_off channel=0 note=61 velocity=127 time=0.009375\n",
      "note_off channel=0 note=62 velocity=127 time=0.010416666666666666\n",
      "note_on channel=0 note=60 velocity=127 time=0.02395833333333333\n",
      "note_off channel=0 note=60 velocity=127 time=0.019791666666666666\n",
      "note_on channel=0 note=62 velocity=127 time=0.011458333333333333\n",
      "note_off channel=0 note=62 velocity=127 time=0.019791666666666666\n",
      "note_on channel=0 note=61 velocity=127 time=0.009375\n",
      "note_off channel=0 note=61 velocity=127 time=0.019791666666666666\n",
      "note_on channel=0 note=62 velocity=127 time=0.025\n",
      "note_on channel=0 note=60 velocity=127 time=0.013541666666666667\n",
      "note_off channel=0 note=62 velocity=127 time=0.00625\n",
      "note_off channel=0 note=60 velocity=127 time=0.013541666666666667\n",
      "note_on channel=0 note=61 velocity=127 time=0.036458333333333336\n",
      "note_on channel=0 note=62 velocity=127 time=0.005208333333333333\n"
     ]
    },
    {
     "name": "stdout",
     "output_type": "stream",
     "text": [
      "note_off channel=0 note=61 velocity=127 time=0.014583333333333334\n",
      "note_off channel=0 note=62 velocity=127 time=0.005208333333333333\n",
      "note_on channel=0 note=60 velocity=127 time=0.03854166666666667\n",
      "note_on channel=0 note=62 velocity=127 time=0.016666666666666666\n",
      "note_off channel=0 note=60 velocity=127 time=0.003125\n",
      "note_off channel=0 note=62 velocity=127 time=0.016666666666666666\n",
      "note_on channel=0 note=61 velocity=127 time=0.014583333333333334\n",
      "note_off channel=0 note=61 velocity=127 time=0.019791666666666666\n",
      "note_on channel=0 note=62 velocity=127 time=0.020833333333333332\n",
      "note_off channel=0 note=62 velocity=127 time=0.019791666666666666\n",
      "note_on channel=0 note=60 velocity=127 time=0.008333333333333333\n",
      "note_off channel=0 note=60 velocity=127 time=0.019791666666666666\n",
      "note_on channel=0 note=61 velocity=127 time=0.025\n",
      "note_on channel=0 note=62 velocity=127 time=0.0010416666666666667\n",
      "note_off channel=0 note=61 velocity=127 time=0.01875\n",
      "note_off channel=0 note=62 velocity=127 time=0.0010416666666666667\n",
      "note_on channel=0 note=60 velocity=127 time=0.053125\n",
      "note_on channel=0 note=62 velocity=127 time=0.0020833333333333333\n",
      "note_off channel=0 note=60 velocity=127 time=0.01875\n",
      "note_off channel=0 note=62 velocity=127 time=0.0020833333333333333\n",
      "note_on channel=0 note=61 velocity=127 time=0.01875\n",
      "note_off channel=0 note=61 velocity=127 time=0.019791666666666666\n",
      "note_on channel=0 note=62 velocity=127 time=0.016666666666666666\n",
      "note_off channel=0 note=62 velocity=127 time=0.019791666666666666\n",
      "note_on channel=0 note=60 velocity=127 time=0.02395833333333333\n",
      "note_off channel=0 note=60 velocity=127 time=0.019791666666666666\n",
      "note_on channel=0 note=62 velocity=127 time=0.011458333333333333\n",
      "note_on channel=0 note=61 velocity=127 time=0.003125\n",
      "note_off channel=0 note=62 velocity=127 time=0.016666666666666666\n",
      "note_off channel=0 note=61 velocity=127 time=0.003125\n",
      "note_on channel=0 note=62 velocity=127 time=0.052083333333333336\n",
      "note_on channel=0 note=60 velocity=127 time=0.013541666666666667\n",
      "note_off channel=0 note=62 velocity=127 time=0.00625\n",
      "note_off channel=0 note=60 velocity=127 time=0.013541666666666667\n",
      "note_on channel=0 note=61 velocity=127 time=0.009375\n",
      "note_off channel=0 note=61 velocity=127 time=0.019791666666666666\n",
      "note_on channel=0 note=62 velocity=127 time=0.0125\n",
      "note_off channel=0 note=62 velocity=127 time=0.019791666666666666\n",
      "note_on channel=0 note=60 velocity=127 time=0.03854166666666667\n",
      "note_on channel=0 note=62 velocity=127 time=0.016666666666666666\n",
      "note_off channel=0 note=60 velocity=127 time=0.003125\n",
      "note_on channel=0 note=61 velocity=127 time=0.004166666666666667\n",
      "note_off channel=0 note=62 velocity=127 time=0.0125\n",
      "note_off channel=0 note=61 velocity=127 time=0.007291666666666667\n",
      "note_on channel=0 note=62 velocity=127 time=0.04791666666666666\n",
      "note_off channel=0 note=62 velocity=127 time=0.019791666666666666\n",
      "note_on channel=0 note=60 velocity=127 time=0.008333333333333333\n",
      "note_on channel=0 note=61 velocity=127 time=0.01875\n",
      "note_off channel=0 note=60 velocity=127 time=0.0010416666666666667\n",
      "note_off channel=0 note=61 velocity=127 time=0.01875\n",
      "note_on channel=0 note=62 velocity=127 time=0.007291666666666667\n",
      "note_off channel=0 note=62 velocity=127 time=0.019791666666666666\n",
      "note_on channel=0 note=60 velocity=127 time=0.053125\n",
      "note_on channel=0 note=62 velocity=127 time=0.0020833333333333333\n",
      "note_on channel=0 note=61 velocity=127 time=0.0125\n",
      "note_off channel=0 note=60 velocity=127 time=0.00625\n",
      "note_off channel=0 note=62 velocity=127 time=0.0020833333333333333\n",
      "note_off channel=0 note=61 velocity=127 time=0.0125\n",
      "note_on channel=0 note=62 velocity=127 time=0.042708333333333334\n",
      "note_off channel=0 note=62 velocity=127 time=0.019791666666666666\n",
      "note_on channel=0 note=60 velocity=127 time=0.02395833333333333\n",
      "note_on channel=0 note=61 velocity=127 time=0.008333333333333333\n",
      "note_off channel=0 note=60 velocity=127 time=0.011458333333333333\n",
      "note_off channel=0 note=61 velocity=127 time=0.008333333333333333\n",
      "note_on channel=0 note=62 velocity=127 time=0.003125\n",
      "note_off channel=0 note=62 velocity=127 time=0.019791666666666666\n",
      "note_on channel=0 note=62 velocity=127 time=0.05520833333333333\n",
      "note_on channel=0 note=60 velocity=127 time=0.013541666666666667\n",
      "note_on channel=0 note=61 velocity=127 time=0.003125\n",
      "note_off channel=0 note=62 velocity=127 time=0.003125\n",
      "note_off channel=0 note=60 velocity=127 time=0.013541666666666667\n",
      "note_off channel=0 note=61 velocity=127 time=0.003125\n",
      "note_on channel=0 note=62 velocity=127 time=0.03854166666666667\n",
      "note_off channel=0 note=62 velocity=127 time=0.019791666666666666\n",
      "note_on channel=0 note=61 velocity=127 time=0.036458333333333336\n",
      "note_on channel=0 note=60 velocity=127 time=0.0020833333333333333\n",
      "note_on channel=0 note=62 velocity=127 time=0.016666666666666666\n",
      "note_off channel=0 note=61 velocity=127 time=0.0010416666666666667\n",
      "note_off channel=0 note=60 velocity=127 time=0.0020833333333333333\n",
      "note_off channel=0 note=62 velocity=127 time=0.016666666666666666\n",
      "note_on channel=0 note=62 velocity=127 time=0.05520833333333333\n",
      "note_off channel=0 note=62 velocity=127 time=0.019791666666666666\n",
      "note_on channel=0 note=61 velocity=127 time=0.0010416666666666667\n",
      "note_on channel=0 note=60 velocity=127 time=0.007291666666666667\n",
      "note_off channel=0 note=61 velocity=127 time=0.0125\n",
      "note_off channel=0 note=60 velocity=127 time=0.007291666666666667\n",
      "note_on channel=0 note=62 velocity=127 time=0.027083333333333334\n",
      "note_off channel=0 note=62 velocity=127 time=0.019791666666666666\n",
      "note_on channel=0 note=61 velocity=127 time=0.040625\n",
      "\u001b[91m [DEBUG] > \u001b[0m\n",
      " |>  to_array: msg.time > max_t; t, n\n",
      " |>  2.0229166666666667\n",
      " |>  100\n",
      "note_on channel=0 note=60 velocity=127 time=0.030208333333333334\n",
      "note_on channel=0 note=61 velocity=127 time=0.019791666666666666\n",
      "note_off channel=0 note=60 velocity=127 time=0.0010416666666666667\n",
      "note_off channel=0 note=61 velocity=127 time=0.019791666666666666\n",
      "note_on channel=0 note=60 velocity=127 time=0.03229166666666666\n",
      "note_on channel=0 note=62 velocity=127 time=0.008333333333333333\n",
      "note_off channel=0 note=60 velocity=127 time=0.011458333333333333\n",
      "note_off channel=0 note=62 velocity=127 time=0.008333333333333333\n",
      "note_on channel=0 note=60 velocity=127 time=0.04375\n",
      "note_on channel=0 note=61 velocity=127 time=0.004166666666666667\n",
      "note_off channel=0 note=60 velocity=127 time=0.016666666666666666\n",
      "note_off channel=0 note=61 velocity=127 time=0.004166666666666667\n",
      "note_on channel=0 note=62 velocity=127 time=0.028125\n",
      "note_on channel=0 note=60 velocity=127 time=0.019791666666666666\n",
      "note_off channel=0 note=62 velocity=127 time=0\n",
      "note_off channel=0 note=60 velocity=127 time=0.019791666666666666\n",
      "note_on channel=0 note=61 velocity=127 time=0.03958333333333333\n",
      "note_on channel=0 note=60 velocity=127 time=0.0125\n",
      "note_off channel=0 note=61 velocity=127 time=0.008333333333333333\n",
      "note_off channel=0 note=60 velocity=127 time=0.0125\n",
      "note_on channel=0 note=62 velocity=127 time=0.004166666666666667\n",
      "note_off channel=0 note=62 velocity=127 time=0.019791666666666666\n",
      "note_on channel=0 note=60 velocity=127 time=0.027083333333333334\n",
      "note_off channel=0 note=60 velocity=127 time=0.019791666666666666\n",
      "note_on channel=0 note=61 velocity=127 time=0.02395833333333333\n",
      "note_off channel=0 note=61 velocity=127 time=0.019791666666666666\n",
      "note_on channel=0 note=62 velocity=127 time=0.004166666666666667\n",
      "note_on channel=0 note=60 velocity=127 time=0.003125\n",
      "note_off channel=0 note=62 velocity=127 time=0.016666666666666666\n",
      "note_off channel=0 note=60 velocity=127 time=0.003125\n",
      "note_on channel=0 note=60 velocity=127 time=0.052083333333333336\n",
      "note_off channel=0 note=60 velocity=127 time=0.019791666666666666\n",
      "note_on channel=0 note=61 velocity=127 time=0.008333333333333333\n",
      "note_on channel=0 note=62 velocity=127 time=0.0125\n",
      "note_off channel=0 note=61 velocity=127 time=0.007291666666666667\n",
      "note_off channel=0 note=62 velocity=127 time=0.0125\n",
      "note_on channel=0 note=60 velocity=127 time=0.011458333333333333\n",
      "note_off channel=0 note=60 velocity=127 time=0.019791666666666666\n",
      "note_on channel=0 note=60 velocity=127 time=0.052083333333333336\n",
      "note_on channel=0 note=61 velocity=127 time=0.0125\n",
      "note_on channel=0 note=62 velocity=127 time=0.0010416666666666667\n",
      "note_off channel=0 note=60 velocity=127 time=0.007291666666666667\n",
      "note_off channel=0 note=61 velocity=127 time=0.0125\n",
      "note_off channel=0 note=62 velocity=127 time=0.0010416666666666667\n",
      "note_on channel=0 note=60 velocity=127 time=0.03854166666666667\n",
      "note_off channel=0 note=60 velocity=127 time=0.019791666666666666\n",
      "note_on channel=0 note=62 velocity=127 time=0.0375\n",
      "note_on channel=0 note=61 velocity=127 time=0.011458333333333333\n",
      "note_on channel=0 note=60 velocity=127 time=0.003125\n",
      "note_off channel=0 note=62 velocity=127 time=0.005208333333333333\n",
      "note_off channel=0 note=61 velocity=127 time=0.011458333333333333\n",
      "note_off channel=0 note=60 velocity=127 time=0.003125\n",
      "note_on channel=0 note=60 velocity=127 time=0.052083333333333336\n",
      "note_off channel=0 note=60 velocity=127 time=0.019791666666666666\n",
      "note_on channel=0 note=62 velocity=127 time=0.009375\n",
      "note_off channel=0 note=62 velocity=127 time=0.019791666666666666\n",
      "note_on channel=0 note=61 velocity=127 time=0.003125\n",
      "note_on channel=0 note=60 velocity=127 time=0.01875\n",
      "note_off channel=0 note=61 velocity=127 time=0.0010416666666666667\n",
      "note_off channel=0 note=60 velocity=127 time=0.01875\n",
      "note_on channel=0 note=60 velocity=127 time=0.052083333333333336\n",
      "note_on channel=0 note=62 velocity=127 time=0.0010416666666666667\n",
      "note_off channel=0 note=60 velocity=127 time=0.01875\n",
      "note_off channel=0 note=62 velocity=127 time=0.0010416666666666667\n",
      "note_on channel=0 note=61 velocity=127 time=0.015625\n",
      "note_off channel=0 note=61 velocity=127 time=0.019791666666666666\n",
      "note_on channel=0 note=60 velocity=127 time=0.014583333333333334\n",
      "note_off channel=0 note=60 velocity=127 time=0.019791666666666666\n",
      "note_on channel=0 note=62 velocity=127 time=0.026041666666666668\n",
      "note_off channel=0 note=62 velocity=127 time=0.019791666666666666\n",
      "note_on channel=0 note=60 velocity=127 time=0.00625\n",
      "note_off channel=0 note=60 velocity=127 time=0.019791666666666666\n",
      "note_on channel=0 note=61 velocity=127 time=0.0010416666666666667\n",
      "note_off channel=0 note=61 velocity=127 time=0.019791666666666666\n",
      "note_on channel=0 note=60 velocity=127 time=0.03125\n",
      "note_on channel=0 note=62 velocity=127 time=0.017708333333333333\n",
      "note_off channel=0 note=60 velocity=127 time=0.0020833333333333333\n",
      "note_off channel=0 note=62 velocity=127 time=0.017708333333333333\n",
      "note_on channel=0 note=60 velocity=127 time=0.034375\n",
      "note_on channel=0 note=61 velocity=127 time=0.005208333333333333\n",
      "note_off channel=0 note=60 velocity=127 time=0.014583333333333334\n",
      "note_off channel=0 note=61 velocity=127 time=0.005208333333333333\n",
      "note_on channel=0 note=62 velocity=127 time=0.036458333333333336\n",
      "note_on channel=0 note=60 velocity=127 time=0.010416666666666666\n",
      "note_off channel=0 note=62 velocity=127 time=0.010416666666666666\n",
      "note_off channel=0 note=60 velocity=127 time=0.010416666666666666\n",
      "note_on channel=0 note=61 velocity=127 time=0.041666666666666664\n",
      "note_on channel=0 note=60 velocity=127 time=0.010416666666666666\n",
      "note_off channel=0 note=61 velocity=127 time=0.009375\n",
      "note_off channel=0 note=60 velocity=127 time=0.010416666666666666\n",
      "note_on channel=0 note=62 velocity=127 time=0.014583333333333334\n",
      "note_off channel=0 note=62 velocity=127 time=0.019791666666666666\n",
      "note_on channel=0 note=60 velocity=127 time=0.017708333333333333\n",
      "note_off channel=0 note=60 velocity=127 time=0.019791666666666666\n",
      "note_on channel=0 note=61 velocity=127 time=0.026041666666666668\n",
      "note_off channel=0 note=61 velocity=127 time=0.019791666666666666\n",
      "note_on channel=0 note=60 velocity=127 time=0.00625\n",
      "note_on channel=0 note=62 velocity=127 time=0.00625\n",
      "note_off channel=0 note=60 velocity=127 time=0.013541666666666667\n",
      "note_off channel=0 note=62 velocity=127 time=0.00625\n",
      "note_on channel=0 note=60 velocity=127 time=0.04583333333333333\n",
      "note_off channel=0 note=60 velocity=127 time=0.019791666666666666\n",
      "note_on channel=0 note=61 velocity=127 time=0.009375\n",
      "note_off channel=0 note=61 velocity=127 time=0.019791666666666666\n",
      "note_on channel=0 note=62 velocity=127 time=0.0010416666666666667\n",
      "note_off channel=0 note=62 velocity=127 time=0.019791666666666666\n",
      "note_on channel=0 note=60 velocity=127 time=0.0010416666666666667\n",
      "note_off channel=0 note=60 velocity=127 time=0.019791666666666666\n",
      "note_on channel=0 note=60 velocity=127 time=0.052083333333333336\n",
      "note_on channel=0 note=61 velocity=127 time=0.013541666666666667\n",
      "note_off channel=0 note=60 velocity=127 time=0.00625\n",
      "note_on channel=0 note=62 velocity=127 time=0.003125\n",
      "note_off channel=0 note=61 velocity=127 time=0.011458333333333333\n",
      "note_off channel=0 note=62 velocity=127 time=0.008333333333333333\n",
      "note_on channel=0 note=60 velocity=127 time=0.029166666666666667\n",
      "note_off channel=0 note=60 velocity=127 time=0.019791666666666666\n",
      "note_on channel=0 note=62 velocity=127 time=0.046875\n",
      "note_on channel=0 note=61 velocity=127 time=0.003125\n",
      "note_on channel=0 note=60 velocity=127 time=0.0020833333333333333\n",
      "note_off channel=0 note=62 velocity=127 time=0.014583333333333334\n",
      "note_off channel=0 note=61 velocity=127 time=0.003125\n",
      "note_off channel=0 note=60 velocity=127 time=0.0020833333333333333\n",
      "\u001b[91m [DEBUG] > \u001b[0m\n",
      " |>  to_array: msg.time > max_t; t, n\n",
      " |>  1.9906250000000012\n",
      " |>  100\n",
      "note_on channel=0 note=60 velocity=127 time=0.0020833333333333333\n",
      "note_on channel=0 note=62 velocity=127 time=0.011458333333333333\n",
      "note_off channel=0 note=60 velocity=127 time=0.008333333333333333\n",
      "note_off channel=0 note=62 velocity=127 time=0.011458333333333333\n",
      "note_on channel=0 note=61 velocity=127 time=0.020833333333333332\n",
      "note_off channel=0 note=61 velocity=127 time=0.019791666666666666\n",
      "note_on channel=0 note=62 velocity=127 time=0.008333333333333333\n",
      "note_off channel=0 note=62 velocity=127 time=0.019791666666666666\n",
      "note_on channel=0 note=60 velocity=127 time=0.008333333333333333\n",
      "note_on channel=0 note=61 velocity=127 time=0.010416666666666666\n",
      "note_off channel=0 note=60 velocity=127 time=0.009375\n",
      "note_off channel=0 note=61 velocity=127 time=0.010416666666666666\n",
      "note_on channel=0 note=62 velocity=127 time=0.010416666666666666\n",
      "note_off channel=0 note=62 velocity=127 time=0.019791666666666666\n",
      "note_on channel=0 note=61 velocity=127 time=0.017708333333333333\n",
      "note_off channel=0 note=61 velocity=127 time=0.019791666666666666\n",
      "note_on channel=0 note=60 velocity=127 time=0.011458333333333333\n",
      "note_on channel=0 note=62 velocity=127 time=0.0010416666666666667\n",
      "note_off channel=0 note=60 velocity=127 time=0.01875\n",
      "note_off channel=0 note=62 velocity=127 time=0.0010416666666666667\n",
      "note_on channel=0 note=61 velocity=127 time=0.015625\n",
      "note_off channel=0 note=61 velocity=127 time=0.019791666666666666\n",
      "note_on channel=0 note=62 velocity=127 time=0.013541666666666667\n",
      "note_off channel=0 note=62 velocity=127 time=0.019791666666666666\n",
      "note_on channel=0 note=61 velocity=127 time=0.013541666666666667\n",
      "note_on channel=0 note=60 velocity=127 time=0.005208333333333333\n",
      "note_off channel=0 note=61 velocity=127 time=0.014583333333333334\n",
      "note_off channel=0 note=60 velocity=127 time=0.005208333333333333\n",
      "note_on channel=0 note=62 velocity=127 time=0.010416666666666666\n",
      "note_off channel=0 note=62 velocity=127 time=0.019791666666666666\n",
      "note_on channel=0 note=61 velocity=127 time=0.0125\n",
      "note_off channel=0 note=61 velocity=127 time=0.019791666666666666\n",
      "note_on channel=0 note=62 velocity=127 time=0.016666666666666666\n",
      "note_on channel=0 note=60 velocity=127 time=0.010416666666666666\n",
      "note_off channel=0 note=62 velocity=127 time=0.010416666666666666\n",
      "note_off channel=0 note=60 velocity=127 time=0.010416666666666666\n",
      "note_on channel=0 note=61 velocity=127 time=0.0010416666666666667\n",
      "note_off channel=0 note=61 velocity=127 time=0.019791666666666666\n",
      "note_on channel=0 note=62 velocity=127 time=0.01875\n",
      "note_off channel=0 note=62 velocity=127 time=0.019791666666666666\n",
      "note_on channel=0 note=61 velocity=127 time=0.009375\n",
      "note_off channel=0 note=61 velocity=127 time=0.019791666666666666\n",
      "note_on channel=0 note=60 velocity=127 time=0.0010416666666666667\n",
      "note_on channel=0 note=62 velocity=127 time=0.01875\n",
      "note_off channel=0 note=60 velocity=127 time=0.0010416666666666667\n",
      "note_off channel=0 note=62 velocity=127 time=0.01875\n",
      "note_on channel=0 note=61 velocity=127 time=0.007291666666666667\n",
      "note_off channel=0 note=61 velocity=127 time=0.019791666666666666\n",
      "note_on channel=0 note=62 velocity=127 time=0.021875\n",
      "note_off channel=0 note=62 velocity=127 time=0.019791666666666666\n",
      "note_on channel=0 note=60 velocity=127 time=0.0010416666666666667\n",
      "note_on channel=0 note=61 velocity=127 time=0.004166666666666667\n",
      "note_off channel=0 note=60 velocity=127 time=0.015625\n",
      "note_off channel=0 note=61 velocity=127 time=0.004166666666666667\n",
      "note_on channel=0 note=62 velocity=127 time=0.02395833333333333\n",
      "note_off channel=0 note=62 velocity=127 time=0.019791666666666666\n",
      "note_on channel=0 note=61 velocity=127 time=0.004166666666666667\n",
      "note_off channel=0 note=61 velocity=127 time=0.019791666666666666\n",
      "note_on channel=0 note=60 velocity=127 time=0.017708333333333333\n",
      "note_on channel=0 note=62 velocity=127 time=0.008333333333333333\n",
      "note_off channel=0 note=60 velocity=127 time=0.011458333333333333\n",
      "note_off channel=0 note=62 velocity=127 time=0.008333333333333333\n",
      "note_on channel=0 note=61 velocity=127 time=0.0020833333333333333\n",
      "note_off channel=0 note=61 velocity=127 time=0.019791666666666666\n",
      "note_on channel=0 note=62 velocity=127 time=0.027083333333333334\n",
      "note_off channel=0 note=62 velocity=127 time=0.019791666666666666\n",
      "note_on channel=0 note=61 velocity=127 time=0\n",
      "note_on channel=0 note=60 velocity=127 time=0.011458333333333333\n",
      "note_off channel=0 note=61 velocity=127 time=0.008333333333333333\n",
      "note_off channel=0 note=60 velocity=127 time=0.011458333333333333\n",
      "note_on channel=0 note=62 velocity=127 time=0.017708333333333333\n",
      "note_on channel=0 note=61 velocity=127 time=0.01875\n",
      "note_off channel=0 note=62 velocity=127 time=0.0010416666666666667\n",
      "note_off channel=0 note=61 velocity=127 time=0.01875\n",
      "note_on channel=0 note=62 velocity=127 time=0.030208333333333334\n",
      "note_on channel=0 note=60 velocity=127 time=0.003125\n",
      "note_on channel=0 note=61 velocity=127 time=0.014583333333333334\n",
      "note_off channel=0 note=62 velocity=127 time=0.003125\n",
      "note_off channel=0 note=60 velocity=127 time=0.003125\n",
      "note_off channel=0 note=61 velocity=127 time=0.014583333333333334\n",
      "note_on channel=0 note=62 velocity=127 time=0.03229166666666666\n",
      "note_on channel=0 note=61 velocity=127 time=0.015625\n",
      "note_off channel=0 note=62 velocity=127 time=0.004166666666666667\n",
      "note_off channel=0 note=61 velocity=127 time=0.015625\n",
      "note_on channel=0 note=60 velocity=127 time=0.007291666666666667\n",
      "note_off channel=0 note=60 velocity=127 time=0.019791666666666666\n",
      "note_on channel=0 note=62 velocity=127 time=0.00625\n",
      "note_on channel=0 note=61 velocity=127 time=0.013541666666666667\n",
      "note_off channel=0 note=62 velocity=127 time=0.00625\n",
      "note_off channel=0 note=61 velocity=127 time=0.013541666666666667\n",
      "note_on channel=0 note=62 velocity=127 time=0.035416666666666666\n",
      "note_on channel=0 note=61 velocity=127 time=0.011458333333333333\n",
      "note_on channel=0 note=60 velocity=127 time=0.0020833333333333333\n",
      "note_off channel=0 note=62 velocity=127 time=0.00625\n",
      "note_off channel=0 note=61 velocity=127 time=0.011458333333333333\n",
      "note_off channel=0 note=60 velocity=127 time=0.0020833333333333333\n",
      "note_on channel=0 note=62 velocity=127 time=0.035416666666666666\n",
      "note_on channel=0 note=61 velocity=127 time=0.010416666666666666\n",
      "note_off channel=0 note=62 velocity=127 time=0.009375\n",
      "note_off channel=0 note=61 velocity=127 time=0.010416666666666666\n",
      "note_on channel=0 note=60 velocity=127 time=0.02395833333333333\n",
      "note_on channel=0 note=62 velocity=127 time=0.015625\n",
      "note_off channel=0 note=60 velocity=127 time=0.004166666666666667\n",
      "note_on channel=0 note=61 velocity=127 time=0.004166666666666667\n",
      "note_off channel=0 note=62 velocity=127 time=0.011458333333333333\n",
      "note_off channel=0 note=61 velocity=127 time=0.008333333333333333\n",
      "note_on channel=0 note=62 velocity=127 time=0.040625\n",
      "note_on channel=0 note=61 velocity=127 time=0.007291666666666667\n",
      "note_off channel=0 note=62 velocity=127 time=0.013541666666666667\n",
      "note_on channel=0 note=60 velocity=127 time=0.004166666666666667\n",
      "note_off channel=0 note=61 velocity=127 time=0.0020833333333333333\n",
      "note_off channel=0 note=60 velocity=127 time=0.017708333333333333\n",
      "note_on channel=0 note=62 velocity=127 time=0.025\n",
      "note_on channel=0 note=61 velocity=127 time=0.005208333333333333\n",
      "note_off channel=0 note=62 velocity=127 time=0.014583333333333334\n",
      "note_off channel=0 note=61 velocity=127 time=0.005208333333333333\n",
      "note_on channel=0 note=60 velocity=127 time=0.03958333333333333\n",
      "note_on channel=0 note=62 velocity=127 time=0.005208333333333333\n",
      "note_on channel=0 note=61 velocity=127 time=0.003125\n",
      "note_off channel=0 note=60 velocity=127 time=0.011458333333333333\n",
      "note_off channel=0 note=62 velocity=127 time=0.005208333333333333\n",
      "note_off channel=0 note=61 velocity=127 time=0.003125\n",
      "note_on channel=0 note=62 velocity=127 time=0.04583333333333333\n",
      "note_on channel=0 note=61 velocity=127 time=0.0020833333333333333\n",
      "note_off channel=0 note=62 velocity=127 time=0.01875\n",
      "note_off channel=0 note=61 velocity=127 time=0.0020833333333333333\n",
      "note_on channel=0 note=60 velocity=127 time=0.013541666666666667\n",
      "note_off channel=0 note=60 velocity=127 time=0.019791666666666666\n",
      "note_on channel=0 note=62 velocity=127 time=0.013541666666666667\n",
      "note_on channel=0 note=61 velocity=127 time=0\n",
      "note_off channel=0 note=62 velocity=127 time=0.019791666666666666\n",
      "note_off channel=0 note=61 velocity=127 time=0\n",
      "note_on channel=0 note=61 velocity=127 time=0.04791666666666666\n",
      "note_on channel=0 note=62 velocity=127 time=0.0020833333333333333\n",
      "note_on channel=0 note=60 velocity=127 time=0.00625\n",
      "note_off channel=0 note=61 velocity=127 time=0.0125\n",
      "note_off channel=0 note=62 velocity=127 time=0.0020833333333333333\n",
      "note_off channel=0 note=60 velocity=127 time=0.00625\n",
      "note_on channel=0 note=61 velocity=127 time=0.03958333333333333\n",
      "note_on channel=0 note=62 velocity=127 time=0.003125\n",
      "note_off channel=0 note=61 velocity=127 time=0.016666666666666666\n",
      "note_off channel=0 note=62 velocity=127 time=0.003125\n",
      "note_on channel=0 note=60 velocity=127 time=0.026041666666666668\n",
      "note_on channel=0 note=61 velocity=127 time=0.017708333333333333\n",
      "note_off channel=0 note=60 velocity=127 time=0.0020833333333333333\n",
      "note_on channel=0 note=62 velocity=127 time=0.003125\n",
      "note_off channel=0 note=61 velocity=127 time=0.014583333333333334\n",
      "note_off channel=0 note=62 velocity=127 time=0.005208333333333333\n",
      "note_on channel=0 note=61 velocity=127 time=0.042708333333333334\n",
      "note_on channel=0 note=62 velocity=127 time=0.007291666666666667\n",
      "note_off channel=0 note=61 velocity=127 time=0.013541666666666667\n",
      "note_on channel=0 note=60 velocity=127 time=0.004166666666666667\n",
      "note_off channel=0 note=62 velocity=127 time=0.003125\n",
      "note_off channel=0 note=60 velocity=127 time=0.016666666666666666\n",
      "note_on channel=0 note=61 velocity=127 time=0.02395833333333333\n",
      "\u001b[91m [DEBUG] > \u001b[0m\n",
      " |>  to_array: msg.time > max_t; t, n\n",
      " |>  2.0135416666666677\n",
      " |>  100\n",
      "note_on channel=0 note=60 velocity=127 time=0.003125\n",
      "note_off channel=0 note=60 velocity=127 time=0.019791666666666666\n",
      "note_on channel=0 note=62 velocity=127 time=0.019791666666666666\n",
      "note_off channel=0 note=62 velocity=127 time=0.019791666666666666\n",
      "note_on channel=0 note=61 velocity=127 time=0.03229166666666666\n",
      "note_on channel=0 note=60 velocity=127 time=0.004166666666666667\n",
      "note_off channel=0 note=61 velocity=127 time=0.016666666666666666\n",
      "note_off channel=0 note=60 velocity=127 time=0.004166666666666667\n",
      "note_on channel=0 note=62 velocity=127 time=0.004166666666666667\n",
      "note_off channel=0 note=62 velocity=127 time=0.019791666666666666\n",
      "note_on channel=0 note=60 velocity=127 time=0.052083333333333336\n",
      "note_on channel=0 note=62 velocity=127 time=0.008333333333333333\n",
      "note_off channel=0 note=60 velocity=127 time=0.011458333333333333\n",
      "note_off channel=0 note=62 velocity=127 time=0.008333333333333333\n",
      "note_on channel=0 note=61 velocity=127 time=0.003125\n",
      "note_off channel=0 note=61 velocity=127 time=0.019791666666666666\n",
      "note_on channel=0 note=62 velocity=127 time=0.0375\n",
      "note_on channel=0 note=60 velocity=127 time=0.007291666666666667\n",
      "note_off channel=0 note=62 velocity=127 time=0.013541666666666667\n",
      "note_off channel=0 note=60 velocity=127 time=0.007291666666666667\n",
      "note_on channel=0 note=61 velocity=127 time=0.04791666666666666\n",
      "note_on channel=0 note=62 velocity=127 time=0.005208333333333333\n",
      "note_off channel=0 note=61 velocity=127 time=0.014583333333333334\n",
      "note_off channel=0 note=62 velocity=127 time=0.005208333333333333\n",
      "note_on channel=0 note=60 velocity=127 time=0.0020833333333333333\n",
      "note_off channel=0 note=60 velocity=127 time=0.019791666666666666\n",
      "note_on channel=0 note=62 velocity=127 time=0.03854166666666667\n",
      "note_off channel=0 note=62 velocity=127 time=0.019791666666666666\n",
      "note_on channel=0 note=60 velocity=127 time=0.017708333333333333\n",
      "note_on channel=0 note=61 velocity=127 time=0.008333333333333333\n",
      "note_off channel=0 note=60 velocity=127 time=0.011458333333333333\n",
      "note_off channel=0 note=61 velocity=127 time=0.008333333333333333\n",
      "note_on channel=0 note=62 velocity=127 time=0.014583333333333334\n",
      "note_off channel=0 note=62 velocity=127 time=0.019791666666666666\n",
      "note_on channel=0 note=60 velocity=127 time=0.03333333333333333\n",
      "note_off channel=0 note=60 velocity=127 time=0.019791666666666666\n",
      "note_on channel=0 note=62 velocity=127 time=0.007291666666666667\n",
      "note_on channel=0 note=61 velocity=127 time=0.016666666666666666\n",
      "note_off channel=0 note=62 velocity=127 time=0.003125\n",
      "note_off channel=0 note=61 velocity=127 time=0.016666666666666666\n",
      "note_on channel=0 note=60 velocity=127 time=0.03229166666666666\n",
      "note_on channel=0 note=62 velocity=127 time=0.011458333333333333\n",
      "note_off channel=0 note=60 velocity=127 time=0.008333333333333333\n",
      "note_off channel=0 note=62 velocity=127 time=0.011458333333333333\n",
      "note_on channel=0 note=61 velocity=127 time=0.04895833333333333\n",
      "note_on channel=0 note=62 velocity=127 time=0.011458333333333333\n",
      "note_on channel=0 note=60 velocity=127 time=0.004166666666666667\n",
      "note_off channel=0 note=61 velocity=127 time=0.004166666666666667\n",
      "note_off channel=0 note=62 velocity=127 time=0.011458333333333333\n",
      "note_off channel=0 note=60 velocity=127 time=0.004166666666666667\n",
      "note_on channel=0 note=62 velocity=127 time=0.05625\n",
      "note_on channel=0 note=60 velocity=127 time=0.019791666666666666\n",
      "note_off channel=0 note=62 velocity=127 time=0\n",
      "note_off channel=0 note=60 velocity=127 time=0.019791666666666666\n",
      "note_on channel=0 note=61 velocity=127 time=0\n",
      "note_off channel=0 note=61 velocity=127 time=0.019791666666666666\n",
      "note_on channel=0 note=62 velocity=127 time=0.020833333333333332\n",
      "note_off channel=0 note=62 velocity=127 time=0.019791666666666666\n",
      "note_on channel=0 note=60 velocity=127 time=0.015625\n",
      "note_off channel=0 note=60 velocity=127 time=0.019791666666666666\n",
      "note_on channel=0 note=62 velocity=127 time=0.025\n",
      "note_on channel=0 note=61 velocity=127 time=0.010416666666666666\n",
      "note_off channel=0 note=62 velocity=127 time=0.009375\n",
      "note_off channel=0 note=61 velocity=127 time=0.010416666666666666\n",
      "note_on channel=0 note=60 velocity=127 time=0.019791666666666666\n",
      "note_off channel=0 note=60 velocity=127 time=0.019791666666666666\n",
      "note_on channel=0 note=62 velocity=127 time=0.009375\n",
      "note_off channel=0 note=62 velocity=127 time=0.019791666666666666\n",
      "note_on channel=0 note=61 velocity=127 time=0.042708333333333334\n",
      "note_on channel=0 note=60 velocity=127 time=0.004166666666666667\n",
      "note_on channel=0 note=62 velocity=127 time=0.013541666666666667\n",
      "note_off channel=0 note=61 velocity=127 time=0.0020833333333333333\n",
      "note_off channel=0 note=60 velocity=127 time=0.004166666666666667\n",
      "note_off channel=0 note=62 velocity=127 time=0.013541666666666667\n",
      "note_on channel=0 note=62 velocity=127 time=0.06041666666666667\n",
      "note_on channel=0 note=60 velocity=127 time=0.0010416666666666667\n",
      "note_off channel=0 note=62 velocity=127 time=0.01875\n",
      "note_off channel=0 note=60 velocity=127 time=0.0010416666666666667\n",
      "note_on channel=0 note=61 velocity=127 time=0.0125\n",
      "note_off channel=0 note=61 velocity=127 time=0.019791666666666666\n",
      "note_on channel=0 note=62 velocity=127 time=0.027083333333333334\n",
      "note_on channel=0 note=60 velocity=127 time=0.016666666666666666\n",
      "note_off channel=0 note=62 velocity=127 time=0.003125\n",
      "note_off channel=0 note=60 velocity=127 time=0.016666666666666666\n",
      "note_on channel=0 note=62 velocity=127 time=0.04375\n",
      "note_on channel=0 note=61 velocity=127 time=0.004166666666666667\n",
      "note_off channel=0 note=62 velocity=127 time=0.015625\n",
      "note_off channel=0 note=61 velocity=127 time=0.004166666666666667\n",
      "note_on channel=0 note=60 velocity=127 time=0.008333333333333333\n",
      "note_off channel=0 note=60 velocity=127 time=0.019791666666666666\n",
      "note_on channel=0 note=62 velocity=127 time=0.028125\n",
      "note_off channel=0 note=62 velocity=127 time=0.019791666666666666\n",
      "note_on channel=0 note=60 velocity=127 time=0.028125\n",
      "note_on channel=0 note=61 velocity=127 time=0.008333333333333333\n",
      "note_off channel=0 note=60 velocity=127 time=0.0125\n",
      "note_off channel=0 note=61 velocity=127 time=0.008333333333333333\n",
      "note_on channel=0 note=62 velocity=127 time=0.004166666666666667\n",
      "note_off channel=0 note=62 velocity=127 time=0.019791666666666666\n",
      "note_on channel=0 note=60 velocity=127 time=0.04375\n",
      "note_on channel=0 note=62 velocity=127 time=0.016666666666666666\n",
      "note_off channel=0 note=60 velocity=127 time=0.003125\n",
      "note_off channel=0 note=62 velocity=127 time=0.016666666666666666\n",
      "note_on channel=0 note=61 velocity=127 time=0.007291666666666667\n",
      "note_off channel=0 note=61 velocity=127 time=0.019791666666666666\n",
      "note_on channel=0 note=60 velocity=127 time=0.03229166666666666\n",
      "note_on channel=0 note=62 velocity=127 time=0.0010416666666666667\n",
      "note_off channel=0 note=60 velocity=127 time=0.01875\n",
      "note_off channel=0 note=62 velocity=127 time=0.0010416666666666667\n",
      "note_on channel=0 note=61 velocity=127 time=0.059375\n",
      "note_on channel=0 note=62 velocity=127 time=0.0020833333333333333\n",
      "note_on channel=0 note=60 velocity=127 time=0.014583333333333334\n",
      "note_off channel=0 note=61 velocity=127 time=0.004166666666666667\n",
      "note_off channel=0 note=62 velocity=127 time=0.0020833333333333333\n",
      "note_off channel=0 note=60 velocity=127 time=0.014583333333333334\n",
      "note_on channel=0 note=62 velocity=127 time=0.04583333333333333\n",
      "note_off channel=0 note=62 velocity=127 time=0.019791666666666666\n",
      "note_on channel=0 note=60 velocity=127 time=0.010416666666666666\n",
      "note_on channel=0 note=61 velocity=127 time=0.019791666666666666\n",
      "note_off channel=0 note=60 velocity=127 time=0\n",
      "note_off channel=0 note=61 velocity=127 time=0.019791666666666666\n",
      "note_on channel=0 note=62 velocity=127 time=0.010416666666666666\n",
      "note_off channel=0 note=62 velocity=127 time=0.019791666666666666\n",
      "\u001b[91m [DEBUG] > \u001b[0m\n",
      " |>  to_array: msg.time > max_t; t, n\n",
      " |>  1.9916666666666658\n",
      " |>  100\n"
     ]
    },
    {
     "name": "stdout",
     "output_type": "stream",
     "text": [
      "note_on channel=0 note=62 velocity=127 time=0.03229166666666666\n",
      "note_on channel=0 note=61 velocity=127 time=0.007291666666666667\n",
      "note_off channel=0 note=62 velocity=127 time=0.0125\n",
      "note_off channel=0 note=61 velocity=127 time=0.007291666666666667\n",
      "note_on channel=0 note=60 velocity=127 time=0.016666666666666666\n",
      "note_off channel=0 note=60 velocity=127 time=0.019791666666666666\n",
      "note_on channel=0 note=61 velocity=127 time=0.019791666666666666\n",
      "note_on channel=0 note=62 velocity=127 time=0.01875\n",
      "note_off channel=0 note=61 velocity=127 time=0.0010416666666666667\n",
      "note_off channel=0 note=62 velocity=127 time=0.01875\n",
      "note_on channel=0 note=60 velocity=127 time=0.02395833333333333\n",
      "note_on channel=0 note=61 velocity=127 time=0.0125\n",
      "note_off channel=0 note=60 velocity=127 time=0.007291666666666667\n",
      "note_off channel=0 note=61 velocity=127 time=0.0125\n",
      "note_on channel=0 note=62 velocity=127 time=0.02395833333333333\n",
      "note_off channel=0 note=62 velocity=127 time=0.019791666666666666\n",
      "note_on channel=0 note=61 velocity=127 time=0.011458333333333333\n",
      "note_on channel=0 note=60 velocity=127 time=0.013541666666666667\n",
      "note_off channel=0 note=61 velocity=127 time=0.00625\n",
      "note_off channel=0 note=60 velocity=127 time=0.013541666666666667\n",
      "note_on channel=0 note=62 velocity=127 time=0.0375\n",
      "note_on channel=0 note=61 velocity=127 time=0.005208333333333333\n",
      "note_off channel=0 note=62 velocity=127 time=0.014583333333333334\n",
      "note_off channel=0 note=61 velocity=127 time=0.005208333333333333\n",
      "note_on channel=0 note=60 velocity=127 time=0.019791666666666666\n",
      "note_off channel=0 note=60 velocity=127 time=0.019791666666666666\n",
      "note_on channel=0 note=61 velocity=127 time=0.015625\n",
      "note_off channel=0 note=61 velocity=127 time=0.019791666666666666\n",
      "note_on channel=0 note=62 velocity=127 time=0.0010416666666666667\n",
      "note_off channel=0 note=62 velocity=127 time=0.019791666666666666\n",
      "note_on channel=0 note=60 velocity=127 time=0.025\n",
      "note_on channel=0 note=61 velocity=127 time=0.009375\n",
      "note_off channel=0 note=60 velocity=127 time=0.010416666666666666\n",
      "note_off channel=0 note=61 velocity=127 time=0.009375\n",
      "note_on channel=0 note=62 velocity=127 time=0.027083333333333334\n",
      "note_off channel=0 note=62 velocity=127 time=0.019791666666666666\n",
      "note_on channel=0 note=61 velocity=127 time=0.008333333333333333\n",
      "note_on channel=0 note=60 velocity=127 time=0.016666666666666666\n",
      "note_off channel=0 note=61 velocity=127 time=0.003125\n",
      "note_off channel=0 note=60 velocity=127 time=0.016666666666666666\n",
      "note_on channel=0 note=62 velocity=127 time=0.035416666666666666\n",
      "note_on channel=0 note=61 velocity=127 time=0.003125\n",
      "note_off channel=0 note=62 velocity=127 time=0.017708333333333333\n",
      "note_off channel=0 note=61 velocity=127 time=0.003125\n",
      "note_on channel=0 note=60 velocity=127 time=0.022916666666666665\n",
      "note_off channel=0 note=60 velocity=127 time=0.019791666666666666\n",
      "note_on channel=0 note=61 velocity=127 time=0.0125\n",
      "note_off channel=0 note=61 velocity=127 time=0.019791666666666666\n",
      "note_on channel=0 note=62 velocity=127 time=0.003125\n",
      "note_off channel=0 note=62 velocity=127 time=0.019791666666666666\n",
      "note_on channel=0 note=60 velocity=127 time=0.026041666666666668\n",
      "note_on channel=0 note=61 velocity=127 time=0.00625\n",
      "note_off channel=0 note=60 velocity=127 time=0.014583333333333334\n",
      "note_off channel=0 note=61 velocity=127 time=0.00625\n",
      "note_on channel=0 note=62 velocity=127 time=0.029166666666666667\n",
      "note_off channel=0 note=62 velocity=127 time=0.019791666666666666\n",
      "note_on channel=0 note=61 velocity=127 time=0.00625\n",
      "note_off channel=0 note=61 velocity=127 time=0.019791666666666666\n",
      "note_on channel=0 note=60 velocity=127 time=0\n",
      "note_off channel=0 note=60 velocity=127 time=0.019791666666666666\n",
      "note_on channel=0 note=62 velocity=127 time=0.034375\n",
      "note_on channel=0 note=61 velocity=127 time=0\n",
      "note_off channel=0 note=62 velocity=127 time=0.019791666666666666\n",
      "note_off channel=0 note=61 velocity=127 time=0\n",
      "note_on channel=0 note=60 velocity=127 time=0.027083333333333334\n",
      "note_off channel=0 note=60 velocity=127 time=0.019791666666666666\n",
      "note_on channel=0 note=61 velocity=127 time=0.008333333333333333\n",
      "note_off channel=0 note=61 velocity=127 time=0.019791666666666666\n",
      "note_on channel=0 note=62 velocity=127 time=0.00625\n",
      "note_off channel=0 note=62 velocity=127 time=0.019791666666666666\n",
      "note_on channel=0 note=60 velocity=127 time=0.027083333333333334\n",
      "note_on channel=0 note=61 velocity=127 time=0.0020833333333333333\n",
      "note_off channel=0 note=60 velocity=127 time=0.017708333333333333\n",
      "note_off channel=0 note=61 velocity=127 time=0.0020833333333333333\n",
      "note_on channel=0 note=62 velocity=127 time=0.03125\n",
      "note_off channel=0 note=62 velocity=127 time=0.019791666666666666\n",
      "note_on channel=0 note=61 velocity=127 time=0.004166666666666667\n",
      "note_off channel=0 note=61 velocity=127 time=0.019791666666666666\n",
      "note_on channel=0 note=60 velocity=127 time=0.004166666666666667\n",
      "note_off channel=0 note=60 velocity=127 time=0.019791666666666666\n",
      "note_on channel=0 note=61 velocity=127 time=0.03125\n",
      "note_on channel=0 note=62 velocity=127 time=0.0020833333333333333\n",
      "note_off channel=0 note=61 velocity=127 time=0.017708333333333333\n",
      "note_off channel=0 note=62 velocity=127 time=0.0020833333333333333\n",
      "note_on channel=0 note=60 velocity=127 time=0.028125\n",
      "note_off channel=0 note=60 velocity=127 time=0.019791666666666666\n",
      "note_on channel=0 note=61 velocity=127 time=0.005208333333333333\n",
      "note_off channel=0 note=61 velocity=127 time=0.019791666666666666\n",
      "note_on channel=0 note=62 velocity=127 time=0.008333333333333333\n",
      "note_off channel=0 note=62 velocity=127 time=0.019791666666666666\n",
      "note_on channel=0 note=61 velocity=127 time=0.027083333333333334\n",
      "note_on channel=0 note=60 velocity=127 time=0.0010416666666666667\n",
      "note_off channel=0 note=61 velocity=127 time=0.01875\n",
      "note_off channel=0 note=60 velocity=127 time=0.0010416666666666667\n",
      "note_on channel=0 note=62 velocity=127 time=0.03333333333333333\n",
      "note_off channel=0 note=62 velocity=127 time=0.019791666666666666\n",
      "note_on channel=0 note=61 velocity=127 time=0.0010416666666666667\n",
      "note_off channel=0 note=61 velocity=127 time=0.019791666666666666\n",
      "note_on channel=0 note=60 velocity=127 time=0.007291666666666667\n",
      "note_off channel=0 note=60 velocity=127 time=0.019791666666666666\n",
      "note_on channel=0 note=61 velocity=127 time=0.028125\n",
      "note_on channel=0 note=62 velocity=127 time=0.004166666666666667\n",
      "note_off channel=0 note=61 velocity=127 time=0.015625\n",
      "note_off channel=0 note=62 velocity=127 time=0.004166666666666667\n",
      "note_on channel=0 note=60 velocity=127 time=0.029166666666666667\n",
      "note_off channel=0 note=60 velocity=127 time=0.019791666666666666\n",
      "note_on channel=0 note=61 velocity=127 time=0.0010416666666666667\n",
      "note_off channel=0 note=61 velocity=127 time=0.019791666666666666\n",
      "note_on channel=0 note=62 velocity=127 time=0.010416666666666666\n",
      "note_off channel=0 note=62 velocity=127 time=0.019791666666666666\n",
      "note_on channel=0 note=61 velocity=127 time=0.025\n",
      "note_on channel=0 note=60 velocity=127 time=0.005208333333333333\n",
      "note_off channel=0 note=61 velocity=127 time=0.015625\n",
      "note_off channel=0 note=60 velocity=127 time=0.005208333333333333\n",
      "note_on channel=0 note=62 velocity=127 time=0.03229166666666666\n",
      "note_on channel=0 note=61 velocity=127 time=0.01875\n",
      "note_off channel=0 note=62 velocity=127 time=0.0010416666666666667\n",
      "note_off channel=0 note=61 velocity=127 time=0.01875\n",
      "note_on channel=0 note=60 velocity=127 time=0.011458333333333333\n",
      "note_off channel=0 note=60 velocity=127 time=0.019791666666666666\n",
      "note_on channel=0 note=61 velocity=127 time=0.02395833333333333\n",
      "note_on channel=0 note=62 velocity=127 time=0.007291666666666667\n",
      "note_off channel=0 note=61 velocity=127 time=0.0125\n",
      "note_off channel=0 note=62 velocity=127 time=0.007291666666666667\n",
      "note_on channel=0 note=60 velocity=127 time=0.030208333333333334\n",
      "note_on channel=0 note=61 velocity=127 time=0.017708333333333333\n",
      "note_off channel=0 note=60 velocity=127 time=0.0020833333333333333\n",
      "note_off channel=0 note=61 velocity=127 time=0.017708333333333333\n",
      "note_on channel=0 note=62 velocity=127 time=0.0125\n",
      "note_off channel=0 note=62 velocity=127 time=0.019791666666666666\n",
      "note_on channel=0 note=61 velocity=127 time=0.022916666666666665\n",
      "\u001b[91m [DEBUG] > \u001b[0m\n",
      " |>  to_array: msg.time > max_t; t, n\n",
      " |>  1.9937500000000001\n",
      " |>  100\n",
      "note_on channel=0 note=61 velocity=127 time=0.041666666666666664\n",
      "note_off channel=0 note=61 velocity=127 time=0.019791666666666666\n",
      "note_on channel=0 note=62 velocity=127 time=0.0020833333333333333\n",
      "note_off channel=0 note=62 velocity=127 time=0.019791666666666666\n",
      "note_on channel=0 note=60 velocity=127 time=0.03854166666666667\n",
      "note_on channel=0 note=61 velocity=127 time=0.0020833333333333333\n",
      "note_off channel=0 note=60 velocity=127 time=0.017708333333333333\n",
      "note_off channel=0 note=61 velocity=127 time=0.0020833333333333333\n",
      "note_on channel=0 note=62 velocity=127 time=0.015625\n",
      "note_off channel=0 note=62 velocity=127 time=0.019791666666666666\n",
      "note_on channel=0 note=61 velocity=127 time=0.027083333333333334\n",
      "note_off channel=0 note=61 velocity=127 time=0.019791666666666666\n",
      "note_on channel=0 note=60 velocity=127 time=0.028125\n",
      "note_on channel=0 note=62 velocity=127 time=0.0010416666666666667\n",
      "note_off channel=0 note=60 velocity=127 time=0.01875\n",
      "note_off channel=0 note=62 velocity=127 time=0.0010416666666666667\n",
      "note_on channel=0 note=61 velocity=127 time=0.013541666666666667\n",
      "note_off channel=0 note=61 velocity=127 time=0.019791666666666666\n",
      "note_on channel=0 note=62 velocity=127 time=0.041666666666666664\n",
      "note_off channel=0 note=62 velocity=127 time=0.019791666666666666\n",
      "note_on channel=0 note=61 velocity=127 time=0\n",
      "note_on channel=0 note=60 velocity=127 time=0.015625\n",
      "note_off channel=0 note=61 velocity=127 time=0.004166666666666667\n",
      "note_off channel=0 note=60 velocity=127 time=0.015625\n",
      "note_on channel=0 note=62 velocity=127 time=0.03958333333333333\n",
      "note_on channel=0 note=61 velocity=127 time=0.007291666666666667\n",
      "note_off channel=0 note=62 velocity=127 time=0.0125\n",
      "note_off channel=0 note=61 velocity=127 time=0.007291666666666667\n",
      "note_on channel=0 note=60 velocity=127 time=0.04583333333333333\n",
      "note_on channel=0 note=61 velocity=127 time=0.016666666666666666\n",
      "note_off channel=0 note=60 velocity=127 time=0.003125\n",
      "note_on channel=0 note=62 velocity=127 time=0.003125\n",
      "note_off channel=0 note=61 velocity=127 time=0.013541666666666667\n",
      "note_off channel=0 note=62 velocity=127 time=0.00625\n",
      "note_on channel=0 note=61 velocity=127 time=0.05625\n",
      "note_on channel=0 note=62 velocity=127 time=0.019791666666666666\n",
      "note_off channel=0 note=61 velocity=127 time=0.0010416666666666667\n",
      "note_on channel=0 note=60 velocity=127 time=0.013541666666666667\n",
      "note_off channel=0 note=62 velocity=127 time=0.00625\n",
      "note_off channel=0 note=60 velocity=127 time=0.013541666666666667\n",
      "note_on channel=0 note=61 velocity=127 time=0.029166666666666667\n",
      "note_off channel=0 note=61 velocity=127 time=0.019791666666666666\n",
      "note_on channel=0 note=62 velocity=127 time=0.0125\n",
      "note_off channel=0 note=62 velocity=127 time=0.019791666666666666\n",
      "note_on channel=0 note=61 velocity=127 time=0.030208333333333334\n",
      "note_on channel=0 note=60 velocity=127 time=0.0010416666666666667\n",
      "note_off channel=0 note=61 velocity=127 time=0.01875\n",
      "note_off channel=0 note=60 velocity=127 time=0.0010416666666666667\n",
      "note_on channel=0 note=62 velocity=127 time=0.025\n",
      "note_off channel=0 note=62 velocity=127 time=0.019791666666666666\n",
      "note_on channel=0 note=61 velocity=127 time=0.016666666666666666\n",
      "note_off channel=0 note=61 velocity=127 time=0.019791666666666666\n",
      "note_on channel=0 note=60 velocity=127 time=0.03125\n",
      "note_on channel=0 note=62 velocity=127 time=0.008333333333333333\n",
      "note_off channel=0 note=60 velocity=127 time=0.011458333333333333\n",
      "note_off channel=0 note=62 velocity=127 time=0.008333333333333333\n",
      "note_on channel=0 note=61 velocity=127 time=0.003125\n",
      "note_off channel=0 note=61 velocity=127 time=0.019791666666666666\n",
      "note_on channel=0 note=62 velocity=127 time=0.052083333333333336\n",
      "note_on channel=0 note=61 velocity=127 time=0.010416666666666666\n",
      "note_off channel=0 note=62 velocity=127 time=0.010416666666666666\n",
      "note_on channel=0 note=60 velocity=127 time=0.008333333333333333\n",
      "note_off channel=0 note=61 velocity=127 time=0.0020833333333333333\n",
      "note_off channel=0 note=60 velocity=127 time=0.01875\n",
      "note_on channel=0 note=61 velocity=127 time=0.04375\n",
      "note_on channel=0 note=62 velocity=127 time=0.003125\n",
      "note_off channel=0 note=61 velocity=127 time=0.016666666666666666\n",
      "note_off channel=0 note=62 velocity=127 time=0.003125\n",
      "note_on channel=0 note=60 velocity=127 time=0.04479166666666667\n",
      "note_on channel=0 note=61 velocity=127 time=0.013541666666666667\n",
      "note_off channel=0 note=60 velocity=127 time=0.00625\n",
      "note_on channel=0 note=62 velocity=127 time=0.010416666666666666\n",
      "note_off channel=0 note=61 velocity=127 time=0.003125\n",
      "note_off channel=0 note=62 velocity=127 time=0.016666666666666666\n",
      "note_on channel=0 note=61 velocity=127 time=0.04583333333333333\n",
      "note_off channel=0 note=61 velocity=127 time=0.019791666666666666\n",
      "note_on channel=0 note=62 velocity=127 time=0.009375\n",
      "note_on channel=0 note=60 velocity=127 time=0.00625\n",
      "note_off channel=0 note=62 velocity=127 time=0.013541666666666667\n",
      "note_off channel=0 note=60 velocity=127 time=0.00625\n",
      "note_on channel=0 note=61 velocity=127 time=0.026041666666666668\n",
      "note_off channel=0 note=61 velocity=127 time=0.019791666666666666\n",
      "note_on channel=0 note=62 velocity=127 time=0.022916666666666665\n",
      "note_off channel=0 note=62 velocity=127 time=0.019791666666666666\n",
      "note_on channel=0 note=61 velocity=127 time=0.01875\n",
      "note_on channel=0 note=60 velocity=127 time=0.003125\n",
      "note_off channel=0 note=61 velocity=127 time=0.016666666666666666\n",
      "note_off channel=0 note=60 velocity=127 time=0.003125\n",
      "note_on channel=0 note=62 velocity=127 time=0.03333333333333333\n",
      "note_off channel=0 note=62 velocity=127 time=0.019791666666666666\n",
      "note_on channel=0 note=61 velocity=127 time=0.00625\n",
      "note_off channel=0 note=61 velocity=127 time=0.019791666666666666\n",
      "note_on channel=0 note=60 velocity=127 time=0.03333333333333333\n",
      "note_on channel=0 note=62 velocity=127 time=0.015625\n",
      "note_off channel=0 note=60 velocity=127 time=0.004166666666666667\n",
      "note_on channel=0 note=61 velocity=127 time=0.009375\n",
      "note_off channel=0 note=62 velocity=127 time=0.007291666666666667\n",
      "note_off channel=0 note=61 velocity=127 time=0.0125\n",
      "note_on channel=0 note=61 velocity=127 time=0.0625\n",
      "note_on channel=0 note=62 velocity=127 time=0.0010416666666666667\n",
      "note_off channel=0 note=61 velocity=127 time=0.019791666666666666\n",
      "note_off channel=0 note=62 velocity=127 time=0.0010416666666666667\n",
      "note_on channel=0 note=60 velocity=127 time=0.0010416666666666667\n",
      "note_off channel=0 note=60 velocity=127 time=0.019791666666666666\n",
      "note_on channel=0 note=61 velocity=127 time=0.041666666666666664\n",
      "note_on channel=0 note=62 velocity=127 time=0.013541666666666667\n",
      "note_off channel=0 note=61 velocity=127 time=0.00625\n",
      "note_off channel=0 note=62 velocity=127 time=0.013541666666666667\n",
      "note_on channel=0 note=60 velocity=127 time=0.0375\n",
      "note_on channel=0 note=61 velocity=127 time=0.011458333333333333\n",
      "note_off channel=0 note=60 velocity=127 time=0.008333333333333333\n",
      "note_off channel=0 note=61 velocity=127 time=0.011458333333333333\n",
      "note_on channel=0 note=62 velocity=127 time=0.007291666666666667\n",
      "note_off channel=0 note=62 velocity=127 time=0.019791666666666666\n",
      "note_on channel=0 note=61 velocity=127 time=0.035416666666666666\n",
      "note_off channel=0 note=61 velocity=127 time=0.019791666666666666\n",
      "note_on channel=0 note=60 velocity=127 time=0.01875\n",
      "note_on channel=0 note=62 velocity=127 time=0.0020833333333333333\n",
      "note_off channel=0 note=60 velocity=127 time=0.01875\n",
      "\u001b[91m [DEBUG] > \u001b[0m\n",
      " |>  to_array: msg.time > max_t; t, n\n",
      " |>  1.9937500000000006\n",
      " |>  100\n",
      "note_on channel=0 note=60 velocity=127 time=0.03958333333333333\n",
      "note_on channel=0 note=61 velocity=127 time=0.003125\n",
      "note_off channel=0 note=60 velocity=127 time=0.016666666666666666\n",
      "note_off channel=0 note=61 velocity=127 time=0.003125\n",
      "note_on channel=0 note=61 velocity=127 time=0.05520833333333333\n",
      "note_on channel=0 note=60 velocity=127 time=0.005208333333333333\n",
      "note_off channel=0 note=61 velocity=127 time=0.014583333333333334\n",
      "note_off channel=0 note=60 velocity=127 time=0.005208333333333333\n",
      "note_on channel=0 note=61 velocity=127 time=0.04895833333333333\n",
      "note_on channel=0 note=60 velocity=127 time=0.014583333333333334\n",
      "note_off channel=0 note=61 velocity=127 time=0.005208333333333333\n",
      "note_off channel=0 note=60 velocity=127 time=0.014583333333333334\n",
      "note_on channel=0 note=61 velocity=127 time=0.040625\n",
      "note_on channel=0 note=62 velocity=127 time=0.004166666666666667\n",
      "note_off channel=0 note=61 velocity=127 time=0.015625\n",
      "note_on channel=0 note=60 velocity=127 time=0.004166666666666667\n",
      "note_off channel=0 note=62 velocity=127 time=0\n",
      "note_off channel=0 note=60 velocity=127 time=0.019791666666666666\n",
      "note_on channel=0 note=61 velocity=127 time=0.03125\n",
      "note_off channel=0 note=61 velocity=127 time=0.019791666666666666\n",
      "note_on channel=0 note=60 velocity=127 time=0.0125\n",
      "note_off channel=0 note=60 velocity=127 time=0.019791666666666666\n",
      "note_on channel=0 note=61 velocity=127 time=0.021875\n",
      "note_off channel=0 note=61 velocity=127 time=0.019791666666666666\n",
      "note_on channel=0 note=60 velocity=127 time=0.021875\n",
      "note_off channel=0 note=60 velocity=127 time=0.019791666666666666\n",
      "note_on channel=0 note=61 velocity=127 time=0.013541666666666667\n",
      "note_off channel=0 note=61 velocity=127 time=0.019791666666666666\n",
      "note_on channel=0 note=60 velocity=127 time=0.03125\n",
      "note_on channel=0 note=62 velocity=127 time=0.003125\n",
      "note_off channel=0 note=60 velocity=127 time=0.016666666666666666\n",
      "note_off channel=0 note=62 velocity=127 time=0.003125\n",
      "note_on channel=0 note=61 velocity=127 time=0.0010416666666666667\n",
      "note_off channel=0 note=61 velocity=127 time=0.019791666666666666\n",
      "note_on channel=0 note=60 velocity=127 time=0.03958333333333333\n",
      "note_on channel=0 note=61 velocity=127 time=0.014583333333333334\n",
      "note_off channel=0 note=60 velocity=127 time=0.005208333333333333\n",
      "note_off channel=0 note=61 velocity=127 time=0.014583333333333334\n",
      "note_on channel=0 note=60 velocity=127 time=0.04895833333333333\n",
      "note_on channel=0 note=61 velocity=127 time=0.00625\n",
      "note_off channel=0 note=60 velocity=127 time=0.014583333333333334\n",
      "note_off channel=0 note=61 velocity=127 time=0.00625\n",
      "note_on channel=0 note=61 velocity=127 time=0.05520833333333333\n",
      "note_on channel=0 note=60 velocity=127 time=0.003125\n",
      "note_off channel=0 note=61 velocity=127 time=0.016666666666666666\n",
      "note_off channel=0 note=60 velocity=127 time=0.003125\n",
      "note_on channel=0 note=62 velocity=127 time=0.005208333333333333\n",
      "note_off channel=0 note=62 velocity=127 time=0.019791666666666666\n",
      "note_on channel=0 note=61 velocity=127 time=0.026041666666666668\n",
      "note_on channel=0 note=60 velocity=127 time=0.0125\n",
      "note_off channel=0 note=61 velocity=127 time=0.007291666666666667\n",
      "note_off channel=0 note=60 velocity=127 time=0.0125\n",
      "note_on channel=0 note=61 velocity=127 time=0.042708333333333334\n",
      "note_off channel=0 note=61 velocity=127 time=0.019791666666666666\n",
      "note_on channel=0 note=60 velocity=127 time=0.0010416666666666667\n",
      "note_off channel=0 note=60 velocity=127 time=0.019791666666666666\n",
      "note_on channel=0 note=61 velocity=127 time=0.03333333333333333\n",
      "note_off channel=0 note=61 velocity=127 time=0.019791666666666666\n",
      "note_on channel=0 note=60 velocity=127 time=0.010416666666666666\n",
      "note_off channel=0 note=60 velocity=127 time=0.019791666666666666\n",
      "note_on channel=0 note=61 velocity=127 time=0.025\n",
      "note_on channel=0 note=62 velocity=127 time=0.004166666666666667\n",
      "note_off channel=0 note=61 velocity=127 time=0.016666666666666666\n",
      "note_off channel=0 note=62 velocity=127 time=0.004166666666666667\n",
      "note_on channel=0 note=60 velocity=127 time=0.015625\n",
      "note_off channel=0 note=60 velocity=127 time=0.019791666666666666\n",
      "note_on channel=0 note=61 velocity=127 time=0.015625\n",
      "note_off channel=0 note=61 velocity=127 time=0.019791666666666666\n",
      "note_on channel=0 note=60 velocity=127 time=0.028125\n",
      "note_off channel=0 note=60 velocity=127 time=0.019791666666666666\n",
      "note_on channel=0 note=61 velocity=127 time=0.00625\n",
      "note_off channel=0 note=61 velocity=127 time=0.019791666666666666\n",
      "note_on channel=0 note=60 velocity=127 time=0.0375\n",
      "note_on channel=0 note=61 velocity=127 time=0.017708333333333333\n",
      "note_off channel=0 note=60 velocity=127 time=0.0020833333333333333\n",
      "note_off channel=0 note=61 velocity=127 time=0.017708333333333333\n",
      "note_on channel=0 note=62 velocity=127 time=0.03333333333333333\n",
      "note_on channel=0 note=60 velocity=127 time=0.0125\n",
      "note_off channel=0 note=62 velocity=127 time=0.007291666666666667\n",
      "note_on channel=0 note=61 velocity=127 time=0.0010416666666666667\n",
      "note_off channel=0 note=60 velocity=127 time=0.011458333333333333\n",
      "note_off channel=0 note=61 velocity=127 time=0.008333333333333333\n",
      "note_on channel=0 note=61 velocity=127 time=0.05520833333333333\n",
      "note_on channel=0 note=60 velocity=127 time=0.0010416666666666667\n",
      "note_off channel=0 note=61 velocity=127 time=0.019791666666666666\n",
      "note_off channel=0 note=60 velocity=127 time=0.0010416666666666667\n",
      "note_on channel=0 note=61 velocity=127 time=0.05416666666666667\n",
      "note_on channel=0 note=60 velocity=127 time=0.009375\n",
      "note_off channel=0 note=61 velocity=127 time=0.010416666666666666\n",
      "note_off channel=0 note=60 velocity=127 time=0.009375\n",
      "note_on channel=0 note=61 velocity=127 time=0.04479166666666667\n",
      "note_on channel=0 note=60 velocity=127 time=0.01875\n",
      "note_off channel=0 note=61 velocity=127 time=0.0010416666666666667\n",
      "note_on channel=0 note=62 velocity=127 time=0.008333333333333333\n",
      "note_off channel=0 note=60 velocity=127 time=0.010416666666666666\n",
      "note_off channel=0 note=62 velocity=127 time=0.009375\n",
      "note_on channel=0 note=61 velocity=127 time=0.026041666666666668\n",
      "note_off channel=0 note=61 velocity=127 time=0.019791666666666666\n",
      "note_on channel=0 note=60 velocity=127 time=0.008333333333333333\n",
      "note_off channel=0 note=60 velocity=127 time=0.019791666666666666\n",
      "note_on channel=0 note=61 velocity=127 time=0.027083333333333334\n",
      "note_off channel=0 note=61 velocity=127 time=0.019791666666666666\n",
      "note_on channel=0 note=60 velocity=127 time=0.016666666666666666\n",
      "note_off channel=0 note=60 velocity=127 time=0.019791666666666666\n",
      "note_on channel=0 note=61 velocity=127 time=0.017708333333333333\n",
      "note_off channel=0 note=61 velocity=127 time=0.019791666666666666\n",
      "note_on channel=0 note=60 velocity=127 time=0.026041666666666668\n",
      "note_off channel=0 note=60 velocity=127 time=0.019791666666666666\n",
      "note_on channel=0 note=61 velocity=127 time=0.009375\n",
      "note_on channel=0 note=62 velocity=127 time=0.003125\n",
      "note_off channel=0 note=61 velocity=127 time=0.016666666666666666\n",
      "note_off channel=0 note=62 velocity=127 time=0.003125\n",
      "note_on channel=0 note=60 velocity=127 time=0.03125\n",
      "note_on channel=0 note=61 velocity=127 time=0.019791666666666666\n",
      "note_off channel=0 note=60 velocity=127 time=0\n",
      "note_off channel=0 note=61 velocity=127 time=0.019791666666666666\n",
      "\u001b[91m [DEBUG] > \u001b[0m\n",
      " |>  to_array: msg.time > max_t; t, n\n",
      " |>  2.0041666666666664\n",
      " |>  100\n",
      "note_on channel=0 note=62 velocity=127 time=0.016666666666666666\n",
      "note_on channel=0 note=60 velocity=127 time=0.00625\n",
      "note_on channel=0 note=61 velocity=127 time=0.005208333333333333\n",
      "note_off channel=0 note=62 velocity=127 time=0.008333333333333333\n",
      "note_off channel=0 note=60 velocity=127 time=0.00625\n",
      "note_off channel=0 note=61 velocity=127 time=0.005208333333333333\n",
      "note_on channel=0 note=60 velocity=127 time=0.042708333333333334\n",
      "note_on channel=0 note=62 velocity=127 time=0.003125\n",
      "note_on channel=0 note=61 velocity=127 time=0.0020833333333333333\n",
      "note_off channel=0 note=60 velocity=127 time=0.014583333333333334\n",
      "note_off channel=0 note=62 velocity=127 time=0.003125\n",
      "note_off channel=0 note=61 velocity=127 time=0.0020833333333333333\n",
      "note_on channel=0 note=60 velocity=127 time=0.042708333333333334\n",
      "note_on channel=0 note=61 velocity=127 time=0.005208333333333333\n",
      "note_on channel=0 note=62 velocity=127 time=0.008333333333333333\n",
      "note_off channel=0 note=60 velocity=127 time=0.00625\n",
      "note_off channel=0 note=61 velocity=127 time=0.005208333333333333\n",
      "note_off channel=0 note=62 velocity=127 time=0.008333333333333333\n",
      "note_on channel=0 note=60 velocity=127 time=0.034375\n",
      "note_on channel=0 note=61 velocity=127 time=0.005208333333333333\n",
      "note_off channel=0 note=60 velocity=127 time=0.014583333333333334\n",
      "note_on channel=0 note=62 velocity=127 time=0.003125\n",
      "note_off channel=0 note=61 velocity=127 time=0.0020833333333333333\n",
      "note_off channel=0 note=62 velocity=127 time=0.01875\n",
      "note_on channel=0 note=60 velocity=127 time=0.025\n",
      "note_on channel=0 note=61 velocity=127 time=0.005208333333333333\n",
      "note_off channel=0 note=60 velocity=127 time=0.014583333333333334\n",
      "note_off channel=0 note=61 velocity=127 time=0.005208333333333333\n",
      "note_on channel=0 note=62 velocity=127 time=0.008333333333333333\n",
      "note_off channel=0 note=62 velocity=127 time=0.019791666666666666\n",
      "note_on channel=0 note=60 velocity=127 time=0.014583333333333334\n",
      "note_on channel=0 note=61 velocity=127 time=0.005208333333333333\n",
      "note_off channel=0 note=60 velocity=127 time=0.015625\n",
      "note_off channel=0 note=61 velocity=127 time=0.005208333333333333\n",
      "note_on channel=0 note=62 velocity=127 time=0.01875\n",
      "note_off channel=0 note=62 velocity=127 time=0.019791666666666666\n",
      "note_on channel=0 note=60 velocity=127 time=0.004166666666666667\n",
      "note_on channel=0 note=61 velocity=127 time=0.004166666666666667\n",
      "note_off channel=0 note=60 velocity=127 time=0.015625\n",
      "note_off channel=0 note=61 velocity=127 time=0.004166666666666667\n",
      "note_on channel=0 note=62 velocity=127 time=0.029166666666666667\n",
      "note_on channel=0 note=60 velocity=127 time=0.014583333333333334\n",
      "note_on channel=0 note=61 velocity=127 time=0.004166666666666667\n",
      "note_off channel=0 note=62 velocity=127 time=0.0010416666666666667\n",
      "note_off channel=0 note=60 velocity=127 time=0.014583333333333334\n",
      "note_off channel=0 note=61 velocity=127 time=0.004166666666666667\n",
      "note_on channel=0 note=62 velocity=127 time=0.03854166666666667\n",
      "note_on channel=0 note=60 velocity=127 time=0.004166666666666667\n",
      "note_on channel=0 note=61 velocity=127 time=0.004166666666666667\n",
      "note_off channel=0 note=62 velocity=127 time=0.011458333333333333\n",
      "note_off channel=0 note=60 velocity=127 time=0.004166666666666667\n",
      "note_off channel=0 note=61 velocity=127 time=0.004166666666666667\n",
      "note_on channel=0 note=60 velocity=127 time=0.04375\n",
      "note_on channel=0 note=61 velocity=127 time=0.004166666666666667\n",
      "note_on channel=0 note=62 velocity=127 time=0.0010416666666666667\n",
      "note_off channel=0 note=60 velocity=127 time=0.014583333333333334\n",
      "note_off channel=0 note=61 velocity=127 time=0.004166666666666667\n",
      "note_off channel=0 note=62 velocity=127 time=0.0010416666666666667\n",
      "note_on channel=0 note=60 velocity=127 time=0.042708333333333334\n",
      "note_on channel=0 note=61 velocity=127 time=0.004166666666666667\n",
      "note_on channel=0 note=62 velocity=127 time=0.011458333333333333\n",
      "note_off channel=0 note=60 velocity=127 time=0.004166666666666667\n",
      "note_off channel=0 note=61 velocity=127 time=0.004166666666666667\n",
      "note_off channel=0 note=62 velocity=127 time=0.011458333333333333\n",
      "note_on channel=0 note=60 velocity=127 time=0.03229166666666666\n",
      "note_on channel=0 note=61 velocity=127 time=0.004166666666666667\n",
      "note_off channel=0 note=60 velocity=127 time=0.015625\n",
      "note_off channel=0 note=61 velocity=127 time=0.004166666666666667\n",
      "note_on channel=0 note=62 velocity=127 time=0.0020833333333333333\n",
      "note_off channel=0 note=62 velocity=127 time=0.019791666666666666\n",
      "note_on channel=0 note=60 velocity=127 time=0.021875\n",
      "note_on channel=0 note=61 velocity=127 time=0.004166666666666667\n",
      "note_off channel=0 note=60 velocity=127 time=0.015625\n",
      "note_off channel=0 note=61 velocity=127 time=0.004166666666666667\n",
      "note_on channel=0 note=62 velocity=127 time=0.011458333333333333\n",
      "note_off channel=0 note=62 velocity=127 time=0.019791666666666666\n",
      "note_on channel=0 note=60 velocity=127 time=0.0125\n",
      "note_on channel=0 note=61 velocity=127 time=0.004166666666666667\n",
      "note_off channel=0 note=60 velocity=127 time=0.016666666666666666\n",
      "note_off channel=0 note=61 velocity=127 time=0.004166666666666667\n",
      "note_on channel=0 note=62 velocity=127 time=0.021875\n",
      "note_off channel=0 note=62 velocity=127 time=0.019791666666666666\n",
      "note_on channel=0 note=60 velocity=127 time=0.0020833333333333333\n",
      "note_on channel=0 note=61 velocity=127 time=0.004166666666666667\n",
      "note_off channel=0 note=60 velocity=127 time=0.016666666666666666\n",
      "note_off channel=0 note=61 velocity=127 time=0.004166666666666667\n",
      "note_on channel=0 note=62 velocity=127 time=0.03229166666666666\n",
      "note_on channel=0 note=60 velocity=127 time=0.0125\n",
      "note_on channel=0 note=61 velocity=127 time=0.003125\n",
      "note_off channel=0 note=62 velocity=127 time=0.004166666666666667\n",
      "note_off channel=0 note=60 velocity=127 time=0.0125\n",
      "note_off channel=0 note=61 velocity=127 time=0.003125\n",
      "note_on channel=0 note=62 velocity=127 time=0.041666666666666664\n",
      "note_on channel=0 note=60 velocity=127 time=0.0020833333333333333\n",
      "note_on channel=0 note=61 velocity=127 time=0.003125\n",
      "note_off channel=0 note=62 velocity=127 time=0.014583333333333334\n",
      "note_off channel=0 note=60 velocity=127 time=0.0020833333333333333\n",
      "note_off channel=0 note=61 velocity=127 time=0.003125\n",
      "note_on channel=0 note=60 velocity=127 time=0.04479166666666667\n",
      "note_on channel=0 note=61 velocity=127 time=0.003125\n",
      "note_on channel=0 note=62 velocity=127 time=0.004166666666666667\n",
      "note_off channel=0 note=60 velocity=127 time=0.0125\n",
      "note_off channel=0 note=61 velocity=127 time=0.003125\n",
      "note_off channel=0 note=62 velocity=127 time=0.004166666666666667\n",
      "note_on channel=0 note=60 velocity=127 time=0.03958333333333333\n",
      "note_on channel=0 note=61 velocity=127 time=0.003125\n",
      "note_on channel=0 note=62 velocity=127 time=0.014583333333333334\n",
      "note_off channel=0 note=60 velocity=127 time=0.0020833333333333333\n",
      "note_off channel=0 note=61 velocity=127 time=0.003125\n",
      "note_off channel=0 note=62 velocity=127 time=0.014583333333333334\n",
      "note_on channel=0 note=60 velocity=127 time=0.030208333333333334\n",
      "note_on channel=0 note=61 velocity=127 time=0.003125\n",
      "note_off channel=0 note=60 velocity=127 time=0.016666666666666666\n",
      "note_off channel=0 note=61 velocity=127 time=0.003125\n",
      "note_on channel=0 note=62 velocity=127 time=0.005208333333333333\n",
      "note_off channel=0 note=62 velocity=127 time=0.019791666666666666\n",
      "note_on channel=0 note=60 velocity=127 time=0.019791666666666666\n",
      "note_on channel=0 note=61 velocity=127 time=0.003125\n",
      "note_off channel=0 note=60 velocity=127 time=0.016666666666666666\n",
      "note_off channel=0 note=61 velocity=127 time=0.003125\n"
     ]
    },
    {
     "name": "stdout",
     "output_type": "stream",
     "text": [
      "note_on channel=0 note=62 velocity=127 time=0.014583333333333334\n",
      "note_off channel=0 note=62 velocity=127 time=0.019791666666666666\n",
      "note_on channel=0 note=60 velocity=127 time=0.010416666666666666\n",
      "note_on channel=0 note=61 velocity=127 time=0.003125\n",
      "note_off channel=0 note=60 velocity=127 time=0.016666666666666666\n",
      "note_off channel=0 note=61 velocity=127 time=0.003125\n",
      "note_on channel=0 note=62 velocity=127 time=0.025\n",
      "note_on channel=0 note=60 velocity=127 time=0.019791666666666666\n",
      "note_off channel=0 note=62 velocity=127 time=0\n",
      "note_on channel=0 note=61 velocity=127 time=0.003125\n",
      "note_off channel=0 note=60 velocity=127 time=0.017708333333333333\n",
      "note_off channel=0 note=61 velocity=127 time=0.003125\n",
      "note_on channel=0 note=62 velocity=127 time=0.035416666666666666\n",
      "note_on channel=0 note=60 velocity=127 time=0.010416666666666666\n",
      "note_on channel=0 note=61 velocity=127 time=0.003125\n",
      "note_off channel=0 note=62 velocity=127 time=0.007291666666666667\n",
      "note_off channel=0 note=60 velocity=127 time=0.010416666666666666\n",
      "note_off channel=0 note=61 velocity=127 time=0.003125\n",
      "note_on channel=0 note=60 velocity=127 time=0.04479166666666667\n",
      "note_on channel=0 note=62 velocity=127 time=0\n",
      "note_on channel=0 note=61 velocity=127 time=0.0020833333333333333\n",
      "note_off channel=0 note=60 velocity=127 time=0.017708333333333333\n",
      "note_off channel=0 note=62 velocity=127 time=0\n",
      "note_off channel=0 note=61 velocity=127 time=0.0020833333333333333\n",
      "note_on channel=0 note=60 velocity=127 time=0.04583333333333333\n",
      "note_on channel=0 note=61 velocity=127 time=0.0020833333333333333\n",
      "note_on channel=0 note=62 velocity=127 time=0.007291666666666667\n",
      "note_off channel=0 note=60 velocity=127 time=0.009375\n",
      "note_off channel=0 note=61 velocity=127 time=0.0020833333333333333\n",
      "note_off channel=0 note=62 velocity=127 time=0.007291666666666667\n",
      "note_on channel=0 note=60 velocity=127 time=0.0375\n",
      "note_on channel=0 note=61 velocity=127 time=0.0020833333333333333\n",
      "note_off channel=0 note=60 velocity=127 time=0.017708333333333333\n",
      "note_on channel=0 note=62 velocity=127 time=0\n",
      "note_off channel=0 note=61 velocity=127 time=0.0020833333333333333\n",
      "note_off channel=0 note=62 velocity=127 time=0.017708333333333333\n",
      "note_on channel=0 note=60 velocity=127 time=0.028125\n",
      "note_on channel=0 note=61 velocity=127 time=0.0020833333333333333\n",
      "note_off channel=0 note=60 velocity=127 time=0.017708333333333333\n",
      "note_off channel=0 note=61 velocity=127 time=0.0020833333333333333\n",
      "note_on channel=0 note=62 velocity=127 time=0.008333333333333333\n",
      "note_off channel=0 note=62 velocity=127 time=0.019791666666666666\n",
      "note_on channel=0 note=60 velocity=127 time=0.017708333333333333\n",
      "note_on channel=0 note=61 velocity=127 time=0.0020833333333333333\n",
      "note_off channel=0 note=60 velocity=127 time=0.017708333333333333\n",
      "note_off channel=0 note=61 velocity=127 time=0.0020833333333333333\n",
      "note_on channel=0 note=62 velocity=127 time=0.017708333333333333\n",
      "note_off channel=0 note=62 velocity=127 time=0.019791666666666666\n",
      "note_on channel=0 note=60 velocity=127 time=0.007291666666666667\n",
      "note_on channel=0 note=61 velocity=127 time=0.0020833333333333333\n",
      "\u001b[91m [DEBUG] > \u001b[0m\n",
      " |>  to_array: msg.time > max_t; t, n\n",
      " |>  1.9906250000000028\n",
      " |>  100\n",
      "note_on channel=0 note=62 velocity=127 time=0.025\n",
      "note_on channel=0 note=60 velocity=127 time=0.015625\n",
      "note_off channel=0 note=62 velocity=127 time=0.004166666666666667\n",
      "note_off channel=0 note=60 velocity=127 time=0.015625\n",
      "note_on channel=0 note=61 velocity=127 time=0.004166666666666667\n",
      "note_off channel=0 note=61 velocity=127 time=0.019791666666666666\n",
      "note_on channel=0 note=62 velocity=127 time=0.011458333333333333\n",
      "note_off channel=0 note=62 velocity=127 time=0.019791666666666666\n",
      "note_on channel=0 note=60 velocity=127 time=0.005208333333333333\n",
      "note_off channel=0 note=60 velocity=127 time=0.019791666666666666\n",
      "note_on channel=0 note=62 velocity=127 time=0.026041666666666668\n",
      "note_off channel=0 note=62 velocity=127 time=0.019791666666666666\n",
      "note_on channel=0 note=60 velocity=127 time=0.014583333333333334\n",
      "note_off channel=0 note=60 velocity=127 time=0.019791666666666666\n",
      "note_on channel=0 note=61 velocity=127 time=0.013541666666666667\n",
      "note_on channel=0 note=62 velocity=127 time=0.003125\n",
      "note_off channel=0 note=61 velocity=127 time=0.017708333333333333\n",
      "note_off channel=0 note=62 velocity=127 time=0.003125\n",
      "note_on channel=0 note=60 velocity=127 time=0.02395833333333333\n",
      "note_off channel=0 note=60 velocity=127 time=0.019791666666666666\n",
      "note_on channel=0 note=62 velocity=127 time=0.00625\n",
      "note_off channel=0 note=62 velocity=127 time=0.019791666666666666\n",
      "note_on channel=0 note=60 velocity=127 time=0.03333333333333333\n",
      "note_on channel=0 note=62 velocity=127 time=0.016666666666666666\n",
      "note_off channel=0 note=60 velocity=127 time=0.003125\n",
      "note_off channel=0 note=62 velocity=127 time=0.016666666666666666\n",
      "note_on channel=0 note=61 velocity=127 time=0.005208333333333333\n",
      "note_off channel=0 note=61 velocity=127 time=0.019791666666666666\n",
      "note_on channel=0 note=60 velocity=127 time=0.017708333333333333\n",
      "note_on channel=0 note=62 velocity=127 time=0.007291666666666667\n",
      "note_off channel=0 note=60 velocity=127 time=0.0125\n",
      "note_off channel=0 note=62 velocity=127 time=0.007291666666666667\n",
      "note_on channel=0 note=62 velocity=127 time=0.051041666666666666\n",
      "note_on channel=0 note=60 velocity=127 time=0.0020833333333333333\n",
      "note_off channel=0 note=62 velocity=127 time=0.017708333333333333\n",
      "note_off channel=0 note=60 velocity=127 time=0.0020833333333333333\n",
      "note_on channel=0 note=61 velocity=127 time=0.03125\n",
      "note_on channel=0 note=62 velocity=127 time=0.016666666666666666\n",
      "note_off channel=0 note=61 velocity=127 time=0.003125\n",
      "note_on channel=0 note=60 velocity=127 time=0.008333333333333333\n",
      "note_off channel=0 note=62 velocity=127 time=0.008333333333333333\n",
      "note_off channel=0 note=60 velocity=127 time=0.011458333333333333\n",
      "note_on channel=0 note=62 velocity=127 time=0.03958333333333333\n",
      "note_off channel=0 note=62 velocity=127 time=0.019791666666666666\n",
      "note_on channel=0 note=60 velocity=127 time=0.0010416666666666667\n",
      "note_off channel=0 note=60 velocity=127 time=0.019791666666666666\n",
      "note_on channel=0 note=62 velocity=127 time=0.029166666666666667\n",
      "note_on channel=0 note=61 velocity=127 time=0.011458333333333333\n",
      "note_off channel=0 note=62 velocity=127 time=0.008333333333333333\n",
      "note_on channel=0 note=60 velocity=127 time=0.010416666666666666\n",
      "note_off channel=0 note=61 velocity=127 time=0.0010416666666666667\n",
      "note_off channel=0 note=60 velocity=127 time=0.019791666666666666\n",
      "note_on channel=0 note=62 velocity=127 time=0.019791666666666666\n",
      "note_off channel=0 note=62 velocity=127 time=0.019791666666666666\n",
      "note_on channel=0 note=60 velocity=127 time=0.019791666666666666\n",
      "note_off channel=0 note=60 velocity=127 time=0.019791666666666666\n",
      "note_on channel=0 note=62 velocity=127 time=0.010416666666666666\n",
      "note_off channel=0 note=62 velocity=127 time=0.019791666666666666\n",
      "note_on channel=0 note=61 velocity=127 time=0.019791666666666666\n",
      "note_on channel=0 note=60 velocity=127 time=0.010416666666666666\n",
      "note_off channel=0 note=61 velocity=127 time=0.010416666666666666\n",
      "note_off channel=0 note=60 velocity=127 time=0.010416666666666666\n",
      "note_on channel=0 note=62 velocity=127 time=0.0010416666666666667\n",
      "note_off channel=0 note=62 velocity=127 time=0.019791666666666666\n",
      "note_on channel=0 note=60 velocity=127 time=0.03958333333333333\n",
      "note_on channel=0 note=62 velocity=127 time=0.011458333333333333\n",
      "note_off channel=0 note=60 velocity=127 time=0.008333333333333333\n",
      "note_off channel=0 note=62 velocity=127 time=0.011458333333333333\n",
      "note_on channel=0 note=61 velocity=127 time=0.04791666666666666\n",
      "note_on channel=0 note=60 velocity=127 time=0.0010416666666666667\n",
      "note_on channel=0 note=62 velocity=127 time=0.0020833333333333333\n",
      "note_off channel=0 note=61 velocity=127 time=0.016666666666666666\n",
      "note_off channel=0 note=60 velocity=127 time=0.0010416666666666667\n",
      "note_off channel=0 note=62 velocity=127 time=0.0020833333333333333\n",
      "note_on channel=0 note=62 velocity=127 time=0.051041666666666666\n",
      "note_on channel=0 note=60 velocity=127 time=0.007291666666666667\n",
      "note_off channel=0 note=62 velocity=127 time=0.0125\n",
      "note_off channel=0 note=60 velocity=127 time=0.007291666666666667\n",
      "note_on channel=0 note=62 velocity=127 time=0.042708333333333334\n",
      "note_on channel=0 note=60 velocity=127 time=0.016666666666666666\n",
      "note_off channel=0 note=62 velocity=127 time=0.003125\n",
      "note_on channel=0 note=61 velocity=127 time=0.005208333333333333\n",
      "note_off channel=0 note=60 velocity=127 time=0.011458333333333333\n",
      "note_off channel=0 note=61 velocity=127 time=0.008333333333333333\n",
      "note_on channel=0 note=62 velocity=127 time=0.025\n",
      "note_off channel=0 note=62 velocity=127 time=0.019791666666666666\n",
      "note_on channel=0 note=60 velocity=127 time=0.00625\n",
      "note_off channel=0 note=60 velocity=127 time=0.019791666666666666\n",
      "note_on channel=0 note=62 velocity=127 time=0.02395833333333333\n",
      "note_off channel=0 note=62 velocity=127 time=0.019791666666666666\n",
      "note_on channel=0 note=60 velocity=127 time=0.016666666666666666\n",
      "note_on channel=0 note=61 velocity=127 time=0.017708333333333333\n",
      "note_off channel=0 note=60 velocity=127 time=0.0020833333333333333\n",
      "note_on channel=0 note=62 velocity=127 time=0.014583333333333334\n",
      "note_off channel=0 note=61 velocity=127 time=0.003125\n",
      "note_off channel=0 note=62 velocity=127 time=0.016666666666666666\n",
      "note_on channel=0 note=60 velocity=127 time=0.026041666666666668\n",
      "note_off channel=0 note=60 velocity=127 time=0.019791666666666666\n",
      "note_on channel=0 note=62 velocity=127 time=0.005208333333333333\n",
      "note_off channel=0 note=62 velocity=127 time=0.019791666666666666\n",
      "note_on channel=0 note=60 velocity=127 time=0.035416666666666666\n",
      "note_on channel=0 note=62 velocity=127 time=0.015625\n",
      "note_off channel=0 note=60 velocity=127 time=0.004166666666666667\n",
      "note_on channel=0 note=61 velocity=127 time=0.00625\n",
      "note_off channel=0 note=62 velocity=127 time=0.008333333333333333\n",
      "note_off channel=0 note=61 velocity=127 time=0.011458333333333333\n",
      "note_on channel=0 note=60 velocity=127 time=0.03333333333333333\n",
      "note_on channel=0 note=62 velocity=127 time=0.00625\n",
      "note_off channel=0 note=60 velocity=127 time=0.014583333333333334\n",
      "note_off channel=0 note=62 velocity=127 time=0.00625\n",
      "note_on channel=0 note=62 velocity=127 time=0.051041666666666666\n",
      "note_on channel=0 note=60 velocity=127 time=0.003125\n",
      "note_off channel=0 note=62 velocity=127 time=0.016666666666666666\n",
      "note_off channel=0 note=60 velocity=127 time=0.003125\n",
      "note_on channel=0 note=61 velocity=127 time=0.015625\n",
      "note_off channel=0 note=61 velocity=127 time=0.019791666666666666\n",
      "note_on channel=0 note=62 velocity=127 time=0.011458333333333333\n",
      "note_on channel=0 note=60 velocity=127 time=0.013541666666666667\n",
      "note_off channel=0 note=62 velocity=127 time=0.007291666666666667\n",
      "note_off channel=0 note=60 velocity=127 time=0.013541666666666667\n",
      "note_on channel=0 note=62 velocity=127 time=0.0375\n",
      "note_off channel=0 note=62 velocity=127 time=0.019791666666666666\n",
      "note_on channel=0 note=60 velocity=127 time=0.003125\n",
      "note_off channel=0 note=60 velocity=127 time=0.019791666666666666\n",
      "note_on channel=0 note=61 velocity=127 time=0.025\n",
      "note_on channel=0 note=62 velocity=127 time=0.003125\n",
      "note_off channel=0 note=61 velocity=127 time=0.016666666666666666\n",
      "note_off channel=0 note=62 velocity=127 time=0.003125\n",
      "note_on channel=0 note=60 velocity=127 time=0.0125\n",
      "note_off channel=0 note=60 velocity=127 time=0.019791666666666666\n",
      "note_on channel=0 note=62 velocity=127 time=0.01875\n",
      "\u001b[91m [DEBUG] > \u001b[0m\n",
      " |>  to_array: msg.time > max_t; t, n\n",
      " |>  2.0010416666666666\n",
      " |>  100\n",
      "note_on channel=0 note=61 velocity=127 time=0.026041666666666668\n",
      "note_off channel=0 note=61 velocity=127 time=0.019791666666666666\n",
      "note_on channel=0 note=60 velocity=127 time=0.0020833333333333333\n",
      "note_off channel=0 note=60 velocity=127 time=0.019791666666666666\n",
      "note_on channel=0 note=60 velocity=127 time=0.05520833333333333\n",
      "note_off channel=0 note=60 velocity=127 time=0.019791666666666666\n",
      "note_on channel=0 note=61 velocity=127 time=0.019791666666666666\n",
      "note_off channel=0 note=61 velocity=127 time=0.019791666666666666\n",
      "note_on channel=0 note=62 velocity=127 time=0.003125\n",
      "note_on channel=0 note=60 velocity=127 time=0.0125\n",
      "note_off channel=0 note=62 velocity=127 time=0.007291666666666667\n",
      "note_off channel=0 note=60 velocity=127 time=0.0125\n",
      "note_on channel=0 note=60 velocity=127 time=0.05520833333333333\n",
      "note_off channel=0 note=60 velocity=127 time=0.019791666666666666\n",
      "note_on channel=0 note=61 velocity=127 time=0.00625\n",
      "note_off channel=0 note=61 velocity=127 time=0.019791666666666666\n",
      "note_on channel=0 note=60 velocity=127 time=0.030208333333333334\n",
      "note_off channel=0 note=60 velocity=127 time=0.019791666666666666\n",
      "note_on channel=0 note=62 velocity=127 time=0.008333333333333333\n",
      "note_off channel=0 note=62 velocity=127 time=0.019791666666666666\n",
      "note_on channel=0 note=60 velocity=127 time=0.027083333333333334\n",
      "note_on channel=0 note=61 velocity=127 time=0.011458333333333333\n",
      "note_off channel=0 note=60 velocity=127 time=0.008333333333333333\n",
      "note_off channel=0 note=61 velocity=127 time=0.011458333333333333\n",
      "note_on channel=0 note=60 velocity=127 time=0.04375\n",
      "note_off channel=0 note=60 velocity=127 time=0.019791666666666666\n",
      "note_on channel=0 note=62 velocity=127 time=0.04895833333333333\n",
      "note_on channel=0 note=61 velocity=127 time=0.004166666666666667\n",
      "note_on channel=0 note=60 velocity=127 time=0.0020833333333333333\n",
      "note_off channel=0 note=62 velocity=127 time=0.013541666666666667\n",
      "note_off channel=0 note=61 velocity=127 time=0.004166666666666667\n",
      "note_off channel=0 note=60 velocity=127 time=0.0020833333333333333\n",
      "note_on channel=0 note=60 velocity=127 time=0.05520833333333333\n",
      "note_off channel=0 note=60 velocity=127 time=0.019791666666666666\n",
      "note_on channel=0 note=61 velocity=127 time=0.03958333333333333\n",
      "note_on channel=0 note=60 velocity=127 time=0.016666666666666666\n",
      "note_off channel=0 note=61 velocity=127 time=0.004166666666666667\n",
      "note_off channel=0 note=60 velocity=127 time=0.016666666666666666\n",
      "note_on channel=0 note=62 velocity=127 time=0.014583333333333334\n",
      "note_off channel=0 note=62 velocity=127 time=0.019791666666666666\n",
      "note_on channel=0 note=60 velocity=127 time=0.020833333333333332\n",
      "note_off channel=0 note=60 velocity=127 time=0.019791666666666666\n",
      "note_on channel=0 note=61 velocity=127 time=0.025\n",
      "note_off channel=0 note=61 velocity=127 time=0.019791666666666666\n",
      "note_on channel=0 note=60 velocity=127 time=0.010416666666666666\n",
      "note_off channel=0 note=60 velocity=127 time=0.019791666666666666\n",
      "note_on channel=0 note=62 velocity=127 time=0.05520833333333333\n",
      "note_on channel=0 note=60 velocity=127 time=0.0010416666666666667\n",
      "note_off channel=0 note=62 velocity=127 time=0.019791666666666666\n",
      "note_off channel=0 note=60 velocity=127 time=0.0010416666666666667\n",
      "note_on channel=0 note=61 velocity=127 time=0.011458333333333333\n",
      "note_off channel=0 note=61 velocity=127 time=0.019791666666666666\n",
      "note_on channel=0 note=60 velocity=127 time=0.02395833333333333\n",
      "note_off channel=0 note=60 velocity=127 time=0.019791666666666666\n",
      "note_on channel=0 note=60 velocity=127 time=0.05520833333333333\n",
      "note_on channel=0 note=61 velocity=127 time=0.017708333333333333\n",
      "note_off channel=0 note=60 velocity=127 time=0.003125\n",
      "note_off channel=0 note=61 velocity=127 time=0.017708333333333333\n",
      "note_on channel=0 note=62 velocity=127 time=0.003125\n",
      "note_off channel=0 note=62 velocity=127 time=0.019791666666666666\n",
      "note_on channel=0 note=60 velocity=127 time=0.015625\n",
      "note_off channel=0 note=60 velocity=127 time=0.019791666666666666\n",
      "note_on channel=0 note=60 velocity=127 time=0.05520833333333333\n",
      "note_on channel=0 note=61 velocity=127 time=0.003125\n",
      "note_off channel=0 note=60 velocity=127 time=0.016666666666666666\n",
      "note_off channel=0 note=61 velocity=127 time=0.003125\n",
      "note_on channel=0 note=60 velocity=127 time=0.052083333333333336\n",
      "note_on channel=0 note=62 velocity=127 time=0.005208333333333333\n",
      "note_off channel=0 note=60 velocity=127 time=0.014583333333333334\n",
      "note_off channel=0 note=62 velocity=127 time=0.005208333333333333\n",
      "note_on channel=0 note=61 velocity=127 time=0.03958333333333333\n",
      "note_on channel=0 note=60 velocity=127 time=0.010416666666666666\n",
      "note_off channel=0 note=61 velocity=127 time=0.009375\n",
      "note_off channel=0 note=60 velocity=127 time=0.010416666666666666\n",
      "note_on channel=0 note=60 velocity=127 time=0.05520833333333333\n",
      "note_off channel=0 note=60 velocity=127 time=0.019791666666666666\n",
      "note_on channel=0 note=62 velocity=127 time=0.026041666666666668\n",
      "note_on channel=0 note=61 velocity=127 time=0.005208333333333333\n",
      "note_off channel=0 note=62 velocity=127 time=0.015625\n",
      "note_off channel=0 note=61 velocity=127 time=0.005208333333333333\n",
      "note_on channel=0 note=60 velocity=127 time=0.005208333333333333\n",
      "note_off channel=0 note=60 velocity=127 time=0.019791666666666666\n",
      "note_on channel=0 note=60 velocity=127 time=0.05520833333333333\n",
      "note_off channel=0 note=60 velocity=127 time=0.019791666666666666\n",
      "note_on channel=0 note=61 velocity=127 time=0.016666666666666666\n",
      "note_off channel=0 note=61 velocity=127 time=0.019791666666666666\n",
      "note_on channel=0 note=60 velocity=127 time=0.01875\n",
      "note_on channel=0 note=62 velocity=127 time=0.011458333333333333\n",
      "note_off channel=0 note=60 velocity=127 time=0.009375\n",
      "note_off channel=0 note=62 velocity=127 time=0.011458333333333333\n",
      "note_on channel=0 note=60 velocity=127 time=0.04479166666666667\n",
      "note_off channel=0 note=60 velocity=127 time=0.019791666666666666\n",
      "note_on channel=0 note=61 velocity=127 time=0.003125\n",
      "note_off channel=0 note=61 velocity=127 time=0.019791666666666666\n",
      "note_on channel=0 note=60 velocity=127 time=0.03229166666666666\n",
      "note_off channel=0 note=60 velocity=127 time=0.019791666666666666\n",
      "note_on channel=0 note=62 velocity=127 time=0.03229166666666666\n",
      "note_off channel=0 note=62 velocity=127 time=0.019791666666666666\n",
      "note_on channel=0 note=60 velocity=127 time=0.004166666666666667\n",
      "note_on channel=0 note=61 velocity=127 time=0.008333333333333333\n",
      "note_off channel=0 note=60 velocity=127 time=0.011458333333333333\n",
      "note_off channel=0 note=61 velocity=127 time=0.008333333333333333\n",
      "note_on channel=0 note=60 velocity=127 time=0.046875\n",
      "\u001b[91m [DEBUG] > \u001b[0m\n",
      " |>  to_array: msg.time > max_t; t, n\n",
      " |>  2.010416666666666\n",
      " |>  100\n",
      "note_on channel=0 note=61 velocity=127 time=0.013541666666666667\n",
      "note_on channel=0 note=62 velocity=127 time=0.015625\n",
      "note_off channel=0 note=61 velocity=127 time=0.005208333333333333\n",
      "note_on channel=0 note=60 velocity=127 time=0.005208333333333333\n",
      "note_off channel=0 note=62 velocity=127 time=0.009375\n",
      "note_off channel=0 note=60 velocity=127 time=0.010416666666666666\n",
      "note_on channel=0 note=62 velocity=127 time=0.057291666666666664\n",
      "note_off channel=0 note=62 velocity=127 time=0.019791666666666666\n",
      "note_on channel=0 note=61 velocity=127 time=0.005208333333333333\n",
      "note_off channel=0 note=61 velocity=127 time=0.019791666666666666\n",
      "note_on channel=0 note=60 velocity=127 time=0.016666666666666666\n",
      "note_off channel=0 note=60 velocity=127 time=0.019791666666666666\n",
      "note_on channel=0 note=62 velocity=127 time=0.005208333333333333\n",
      "note_off channel=0 note=62 velocity=127 time=0.019791666666666666\n",
      "note_on channel=0 note=61 velocity=127 time=0.04583333333333333\n",
      "note_off channel=0 note=61 velocity=127 time=0.019791666666666666\n",
      "note_on channel=0 note=62 velocity=127 time=0.0020833333333333333\n",
      "note_off channel=0 note=62 velocity=127 time=0.019791666666666666\n",
      "note_on channel=0 note=60 velocity=127 time=0.00625\n",
      "note_off channel=0 note=60 velocity=127 time=0.019791666666666666\n",
      "note_on channel=0 note=62 velocity=127 time=0.040625\n",
      "note_on channel=0 note=61 velocity=127 time=0.01875\n",
      "note_off channel=0 note=62 velocity=127 time=0.0010416666666666667\n",
      "note_off channel=0 note=61 velocity=127 time=0.01875\n",
      "note_on channel=0 note=60 velocity=127 time=0.03958333333333333\n",
      "note_on channel=0 note=62 velocity=127 time=0.009375\n",
      "note_off channel=0 note=60 velocity=127 time=0.010416666666666666\n",
      "note_off channel=0 note=62 velocity=127 time=0.009375\n",
      "note_on channel=0 note=61 velocity=127 time=0.03958333333333333\n",
      "note_off channel=0 note=61 velocity=127 time=0.019791666666666666\n",
      "note_on channel=0 note=62 velocity=127 time=0.008333333333333333\n",
      "note_off channel=0 note=62 velocity=127 time=0.019791666666666666\n",
      "note_on channel=0 note=60 velocity=127 time=0.021875\n",
      "note_off channel=0 note=60 velocity=127 time=0.019791666666666666\n",
      "note_on channel=0 note=62 velocity=127 time=0.025\n",
      "note_on channel=0 note=61 velocity=127 time=0.0125\n",
      "note_off channel=0 note=62 velocity=127 time=0.007291666666666667\n",
      "note_off channel=0 note=61 velocity=127 time=0.0125\n",
      "note_on channel=0 note=62 velocity=127 time=0.05520833333333333\n",
      "note_on channel=0 note=60 velocity=127 time=0.00625\n",
      "note_off channel=0 note=62 velocity=127 time=0.013541666666666667\n",
      "note_off channel=0 note=60 velocity=127 time=0.00625\n",
      "note_on channel=0 note=61 velocity=127 time=0.026041666666666668\n",
      "note_off channel=0 note=61 velocity=127 time=0.019791666666666666\n",
      "note_on channel=0 note=62 velocity=127 time=0.014583333333333334\n",
      "note_off channel=0 note=62 velocity=127 time=0.019791666666666666\n",
      "note_on channel=0 note=60 velocity=127 time=0.03854166666666667\n",
      "note_off channel=0 note=60 velocity=127 time=0.019791666666666666\n",
      "note_on channel=0 note=62 velocity=127 time=0.009375\n",
      "note_on channel=0 note=61 velocity=127 time=0.00625\n",
      "note_off channel=0 note=62 velocity=127 time=0.013541666666666667\n",
      "note_off channel=0 note=61 velocity=127 time=0.00625\n",
      "note_on channel=0 note=62 velocity=127 time=0.06145833333333333\n",
      "note_off channel=0 note=62 velocity=127 time=0.019791666666666666\n",
      "note_on channel=0 note=60 velocity=127 time=0.003125\n",
      "note_off channel=0 note=60 velocity=127 time=0.019791666666666666\n",
      "note_on channel=0 note=61 velocity=127 time=0.004166666666666667\n",
      "note_off channel=0 note=61 velocity=127 time=0.019791666666666666\n",
      "note_on channel=0 note=62 velocity=127 time=0.020833333333333332\n",
      "note_off channel=0 note=62 velocity=127 time=0.019791666666666666\n",
      "note_on channel=0 note=60 velocity=127 time=0.05416666666666667\n",
      "note_on channel=0 note=61 velocity=127 time=0.0125\n",
      "note_on channel=0 note=62 velocity=127 time=0\n",
      "note_off channel=0 note=60 velocity=127 time=0.007291666666666667\n",
      "note_off channel=0 note=61 velocity=127 time=0.0125\n",
      "note_off channel=0 note=62 velocity=127 time=0\n",
      "note_on channel=0 note=62 velocity=127 time=0.06770833333333333\n",
      "note_off channel=0 note=62 velocity=127 time=0.019791666666666666\n",
      "note_on channel=0 note=60 velocity=127 time=0.01875\n",
      "note_on channel=0 note=61 velocity=127 time=0.0010416666666666667\n",
      "note_off channel=0 note=60 velocity=127 time=0.01875\n",
      "note_off channel=0 note=61 velocity=127 time=0.0010416666666666667\n",
      "note_on channel=0 note=62 velocity=127 time=0.027083333333333334\n",
      "note_off channel=0 note=62 velocity=127 time=0.019791666666666666\n",
      "note_on channel=0 note=61 velocity=127 time=0.06041666666666667\n",
      "note_on channel=0 note=62 velocity=127 time=0.00625\n",
      "note_on channel=0 note=60 velocity=127 time=0.003125\n",
      "note_off channel=0 note=61 velocity=127 time=0.010416666666666666\n",
      "note_off channel=0 note=62 velocity=127 time=0.00625\n",
      "note_off channel=0 note=60 velocity=127 time=0.003125\n",
      "note_on channel=0 note=62 velocity=127 time=0.06458333333333333\n",
      "note_off channel=0 note=62 velocity=127 time=0.019791666666666666\n",
      "note_on channel=0 note=61 velocity=127 time=0.013541666666666667\n",
      "note_off channel=0 note=61 velocity=127 time=0.019791666666666666\n",
      "note_on channel=0 note=60 velocity=127 time=0.0010416666666666667\n",
      "note_off channel=0 note=60 velocity=127 time=0.019791666666666666\n",
      "note_on channel=0 note=62 velocity=127 time=0.0125\n",
      "note_off channel=0 note=62 velocity=127 time=0.019791666666666666\n",
      "note_on channel=0 note=61 velocity=127 time=0.05416666666666667\n",
      "note_on channel=0 note=62 velocity=127 time=0.0125\n",
      "note_off channel=0 note=61 velocity=127 time=0.007291666666666667\n",
      "note_on channel=0 note=60 velocity=127 time=0.0125\n",
      "note_off channel=0 note=62 velocity=127 time=0.0010416666666666667\n",
      "note_off channel=0 note=60 velocity=127 time=0.01875\n",
      "note_on channel=0 note=62 velocity=127 time=0.04791666666666666\n",
      "note_off channel=0 note=62 velocity=127 time=0.019791666666666666\n",
      "note_on channel=0 note=61 velocity=127 time=0.007291666666666667\n",
      "note_off channel=0 note=61 velocity=127 time=0.019791666666666666\n",
      "note_on channel=0 note=60 velocity=127 time=0.022916666666666665\n",
      "note_on channel=0 note=62 velocity=127 time=0.016666666666666666\n",
      "note_off channel=0 note=60 velocity=127 time=0.003125\n",
      "note_off channel=0 note=62 velocity=127 time=0.016666666666666666\n",
      "note_on channel=0 note=61 velocity=127 time=0.04791666666666666\n",
      "note_on channel=0 note=62 velocity=127 time=0.019791666666666666\n",
      "note_off channel=0 note=61 velocity=127 time=0.0010416666666666667\n",
      "note_off channel=0 note=62 velocity=127 time=0.019791666666666666\n",
      "note_on channel=0 note=60 velocity=127 time=0.015625\n",
      "note_off channel=0 note=60 velocity=127 time=0.019791666666666666\n",
      "\u001b[91m [DEBUG] > \u001b[0m\n",
      " |>  to_array: msg.time > max_t; t, n\n",
      " |>  1.9999999999999993\n",
      " |>  100\n",
      "note_on channel=0 note=62 velocity=127 time=0.026041666666666668\n",
      "note_off channel=0 note=62 velocity=127 time=0.019791666666666666\n",
      "note_on channel=0 note=60 velocity=127 time=0.005208333333333333\n",
      "note_off channel=0 note=60 velocity=127 time=0.019791666666666666\n",
      "note_on channel=0 note=61 velocity=127 time=0.026041666666666668\n",
      "note_on channel=0 note=62 velocity=127 time=0.004166666666666667\n",
      "note_off channel=0 note=61 velocity=127 time=0.015625\n",
      "note_off channel=0 note=62 velocity=127 time=0.004166666666666667\n",
      "note_on channel=0 note=62 velocity=127 time=0.05625\n",
      "note_off channel=0 note=62 velocity=127 time=0.019791666666666666\n",
      "note_on channel=0 note=61 velocity=127 time=0.022916666666666665\n",
      "note_off channel=0 note=61 velocity=127 time=0.019791666666666666\n",
      "note_on channel=0 note=62 velocity=127 time=0.0125\n",
      "note_on channel=0 note=60 velocity=127 time=0.017708333333333333\n",
      "note_off channel=0 note=62 velocity=127 time=0.003125\n",
      "note_off channel=0 note=60 velocity=127 time=0.017708333333333333\n",
      "note_on channel=0 note=62 velocity=127 time=0.03854166666666667\n",
      "note_on channel=0 note=61 velocity=127 time=0.014583333333333334\n",
      "note_off channel=0 note=62 velocity=127 time=0.005208333333333333\n",
      "note_off channel=0 note=61 velocity=127 time=0.014583333333333334\n",
      "note_on channel=0 note=62 velocity=127 time=0.041666666666666664\n",
      "note_off channel=0 note=62 velocity=127 time=0.019791666666666666\n",
      "note_on channel=0 note=61 velocity=127 time=0.041666666666666664\n",
      "note_on channel=0 note=62 velocity=127 time=0.014583333333333334\n",
      "note_off channel=0 note=61 velocity=127 time=0.00625\n",
      "note_on channel=0 note=60 velocity=127 time=0.003125\n",
      "note_off channel=0 note=62 velocity=127 time=0.011458333333333333\n",
      "note_off channel=0 note=60 velocity=127 time=0.009375\n",
      "note_on channel=0 note=62 velocity=127 time=0.046875\n",
      "note_off channel=0 note=62 velocity=127 time=0.019791666666666666\n",
      "note_on channel=0 note=61 velocity=127 time=0.013541666666666667\n",
      "note_off channel=0 note=61 velocity=127 time=0.019791666666666666\n",
      "note_on channel=0 note=62 velocity=127 time=0.022916666666666665\n",
      "note_off channel=0 note=62 velocity=127 time=0.019791666666666666\n",
      "note_on channel=0 note=62 velocity=127 time=0.05625\n",
      "note_on channel=0 note=60 velocity=127 time=0\n",
      "note_on channel=0 note=61 velocity=127 time=0.004166666666666667\n",
      "note_off channel=0 note=62 velocity=127 time=0.015625\n",
      "note_off channel=0 note=60 velocity=127 time=0\n",
      "note_off channel=0 note=61 velocity=127 time=0.004166666666666667\n",
      "note_on channel=0 note=62 velocity=127 time=0.051041666666666666\n",
      "note_off channel=0 note=62 velocity=127 time=0.019791666666666666\n",
      "note_on channel=0 note=61 velocity=127 time=0.03229166666666666\n",
      "note_off channel=0 note=61 velocity=127 time=0.019791666666666666\n",
      "note_on channel=0 note=62 velocity=127 time=0.004166666666666667\n",
      "note_off channel=0 note=62 velocity=127 time=0.019791666666666666\n",
      "note_on channel=0 note=60 velocity=127 time=0.04791666666666666\n",
      "note_on channel=0 note=62 velocity=127 time=0.008333333333333333\n",
      "note_off channel=0 note=60 velocity=127 time=0.0125\n",
      "note_off channel=0 note=62 velocity=127 time=0.008333333333333333\n",
      "note_on channel=0 note=61 velocity=127 time=0.003125\n",
      "note_off channel=0 note=61 velocity=127 time=0.019791666666666666\n",
      "note_on channel=0 note=62 velocity=127 time=0.03229166666666666\n",
      "note_off channel=0 note=62 velocity=127 time=0.019791666666666666\n",
      "note_on channel=0 note=61 velocity=127 time=0.051041666666666666\n",
      "note_on channel=0 note=62 velocity=127 time=0.005208333333333333\n",
      "note_off channel=0 note=61 velocity=127 time=0.014583333333333334\n",
      "note_off channel=0 note=62 velocity=127 time=0.005208333333333333\n",
      "note_on channel=0 note=60 velocity=127 time=0.03958333333333333\n",
      "note_on channel=0 note=62 velocity=127 time=0.016666666666666666\n",
      "note_off channel=0 note=60 velocity=127 time=0.004166666666666667\n",
      "note_off channel=0 note=62 velocity=127 time=0.016666666666666666\n",
      "note_on channel=0 note=61 velocity=127 time=0.021875\n",
      "note_off channel=0 note=61 velocity=127 time=0.019791666666666666\n",
      "note_on channel=0 note=62 velocity=127 time=0.013541666666666667\n",
      "note_off channel=0 note=62 velocity=127 time=0.019791666666666666\n",
      "note_on channel=0 note=62 velocity=127 time=0.05625\n",
      "note_on channel=0 note=61 velocity=127 time=0.013541666666666667\n",
      "note_off channel=0 note=62 velocity=127 time=0.00625\n",
      "note_off channel=0 note=61 velocity=127 time=0.013541666666666667\n",
      "note_on channel=0 note=60 velocity=127 time=0.017708333333333333\n",
      "note_off channel=0 note=60 velocity=127 time=0.019791666666666666\n",
      "note_on channel=0 note=62 velocity=127 time=0.004166666666666667\n",
      "note_off channel=0 note=62 velocity=127 time=0.019791666666666666\n",
      "note_on channel=0 note=61 velocity=127 time=0.041666666666666664\n",
      "note_on channel=0 note=62 velocity=127 time=0.014583333333333334\n",
      "note_off channel=0 note=61 velocity=127 time=0.005208333333333333\n",
      "note_off channel=0 note=62 velocity=127 time=0.014583333333333334\n",
      "note_on channel=0 note=62 velocity=127 time=0.05625\n",
      "note_off channel=0 note=62 velocity=127 time=0.019791666666666666\n",
      "note_on channel=0 note=61 velocity=127 time=0.0125\n",
      "note_on channel=0 note=60 velocity=127 time=0.010416666666666666\n",
      "note_off channel=0 note=61 velocity=127 time=0.010416666666666666\n",
      "note_off channel=0 note=60 velocity=127 time=0.010416666666666666\n",
      "note_on channel=0 note=62 velocity=127 time=0.013541666666666667\n",
      "note_off channel=0 note=62 velocity=127 time=0.019791666666666666\n",
      "note_on channel=0 note=62 velocity=127 time=0.05625\n",
      "note_on channel=0 note=61 velocity=127 time=0.004166666666666667\n",
      "note_off channel=0 note=62 velocity=127 time=0.015625\n",
      "note_off channel=0 note=61 velocity=127 time=0.004166666666666667\n",
      "note_on channel=0 note=62 velocity=127 time=0.052083333333333336\n",
      "note_off channel=0 note=62 velocity=127 time=0.019791666666666666\n",
      "note_on channel=0 note=60 velocity=127 time=0.014583333333333334\n",
      "note_on channel=0 note=61 velocity=127 time=0.017708333333333333\n",
      "note_off channel=0 note=60 velocity=127 time=0.003125\n"
     ]
    },
    {
     "name": "stdout",
     "output_type": "stream",
     "text": [
      "note_off channel=0 note=61 velocity=127 time=0.017708333333333333\n",
      "note_on channel=0 note=62 velocity=127 time=0.004166666666666667\n",
      "note_off channel=0 note=62 velocity=127 time=0.019791666666666666\n",
      "note_on channel=0 note=62 velocity=127 time=0.05625\n",
      "note_off channel=0 note=62 velocity=127 time=0.019791666666666666\n",
      "note_on channel=0 note=61 velocity=127 time=0.003125\n",
      "note_off channel=0 note=61 velocity=127 time=0.019791666666666666\n",
      "note_on channel=0 note=62 velocity=127 time=0.03229166666666666\n",
      "\u001b[91m [DEBUG] > \u001b[0m\n",
      " |>  to_array: msg.time > max_t; t, n\n",
      " |>  2.0020833333333328\n",
      " |>  100\n",
      "note_on channel=0 note=62 velocity=127 time=0.028125\n",
      "note_on channel=0 note=60 velocity=127 time=0.013541666666666667\n",
      "note_off channel=0 note=62 velocity=127 time=0.00625\n",
      "note_off channel=0 note=60 velocity=127 time=0.013541666666666667\n",
      "note_on channel=0 note=61 velocity=127 time=0.029166666666666667\n",
      "note_off channel=0 note=61 velocity=127 time=0.019791666666666666\n",
      "note_on channel=0 note=60 velocity=127 time=0.010416666666666666\n",
      "note_on channel=0 note=62 velocity=127 time=0.003125\n",
      "note_off channel=0 note=60 velocity=127 time=0.016666666666666666\n",
      "note_off channel=0 note=62 velocity=127 time=0.003125\n",
      "note_on channel=0 note=60 velocity=127 time=0.05625\n",
      "note_on channel=0 note=61 velocity=127 time=0.005208333333333333\n",
      "note_off channel=0 note=60 velocity=127 time=0.014583333333333334\n",
      "note_on channel=0 note=62 velocity=127 time=0\n",
      "note_off channel=0 note=61 velocity=127 time=0.005208333333333333\n",
      "note_off channel=0 note=62 velocity=127 time=0.014583333333333334\n",
      "note_on channel=0 note=60 velocity=127 time=0.03958333333333333\n",
      "note_off channel=0 note=60 velocity=127 time=0.019791666666666666\n",
      "note_on channel=0 note=62 velocity=127 time=0.017708333333333333\n",
      "note_on channel=0 note=61 velocity=127 time=0.004166666666666667\n",
      "note_off channel=0 note=62 velocity=127 time=0.016666666666666666\n",
      "note_off channel=0 note=61 velocity=127 time=0.004166666666666667\n",
      "note_on channel=0 note=60 velocity=127 time=0.01875\n",
      "note_off channel=0 note=60 velocity=127 time=0.019791666666666666\n",
      "note_on channel=0 note=62 velocity=127 time=0.034375\n",
      "note_off channel=0 note=62 velocity=127 time=0.019791666666666666\n",
      "note_on channel=0 note=61 velocity=127 time=0.0020833333333333333\n",
      "note_on channel=0 note=60 velocity=127 time=0.003125\n",
      "note_off channel=0 note=61 velocity=127 time=0.016666666666666666\n",
      "note_off channel=0 note=60 velocity=127 time=0.003125\n",
      "note_on channel=0 note=62 velocity=127 time=0.051041666666666666\n",
      "note_on channel=0 note=60 velocity=127 time=0.008333333333333333\n",
      "note_off channel=0 note=62 velocity=127 time=0.011458333333333333\n",
      "note_off channel=0 note=60 velocity=127 time=0.008333333333333333\n",
      "note_on channel=0 note=61 velocity=127 time=0.0125\n",
      "note_off channel=0 note=61 velocity=127 time=0.019791666666666666\n",
      "note_on channel=0 note=60 velocity=127 time=0.027083333333333334\n",
      "note_on channel=0 note=62 velocity=127 time=0.009375\n",
      "note_off channel=0 note=60 velocity=127 time=0.011458333333333333\n",
      "note_off channel=0 note=62 velocity=127 time=0.009375\n",
      "note_on channel=0 note=61 velocity=127 time=0.03958333333333333\n",
      "note_on channel=0 note=60 velocity=127 time=0.011458333333333333\n",
      "note_off channel=0 note=61 velocity=127 time=0.009375\n",
      "note_off channel=0 note=60 velocity=127 time=0.011458333333333333\n",
      "note_on channel=0 note=62 velocity=127 time=0.00625\n",
      "note_off channel=0 note=62 velocity=127 time=0.019791666666666666\n",
      "note_on channel=0 note=60 velocity=127 time=0.03333333333333333\n",
      "note_off channel=0 note=60 velocity=127 time=0.019791666666666666\n",
      "note_on channel=0 note=61 velocity=127 time=0.004166666666666667\n",
      "note_on channel=0 note=62 velocity=127 time=0.01875\n",
      "note_off channel=0 note=61 velocity=127 time=0.0010416666666666667\n",
      "note_off channel=0 note=62 velocity=127 time=0.01875\n",
      "note_on channel=0 note=60 velocity=127 time=0.016666666666666666\n",
      "note_off channel=0 note=60 velocity=127 time=0.019791666666666666\n",
      "note_on channel=0 note=61 velocity=127 time=0.040625\n",
      "note_on channel=0 note=62 velocity=127 time=0\n",
      "note_on channel=0 note=60 velocity=127 time=0.019791666666666666\n",
      "note_off channel=0 note=61 velocity=127 time=0.0010416666666666667\n",
      "note_off channel=0 note=62 velocity=127 time=0\n",
      "note_off channel=0 note=60 velocity=127 time=0.019791666666666666\n",
      "note_on channel=0 note=62 velocity=127 time=0.057291666666666664\n",
      "note_on channel=0 note=60 velocity=127 time=0.0020833333333333333\n",
      "note_on channel=0 note=61 velocity=127 time=0.016666666666666666\n",
      "note_off channel=0 note=62 velocity=127 time=0.0020833333333333333\n",
      "note_off channel=0 note=60 velocity=127 time=0.0020833333333333333\n",
      "note_off channel=0 note=61 velocity=127 time=0.016666666666666666\n",
      "note_on channel=0 note=60 velocity=127 time=0.04375\n",
      "note_on channel=0 note=62 velocity=127 time=0.014583333333333334\n",
      "note_off channel=0 note=60 velocity=127 time=0.005208333333333333\n",
      "note_off channel=0 note=62 velocity=127 time=0.014583333333333334\n",
      "note_on channel=0 note=61 velocity=127 time=0.016666666666666666\n",
      "note_off channel=0 note=61 velocity=127 time=0.019791666666666666\n",
      "note_on channel=0 note=60 velocity=127 time=0.007291666666666667\n",
      "note_off channel=0 note=60 velocity=127 time=0.019791666666666666\n",
      "note_on channel=0 note=62 velocity=127 time=0.011458333333333333\n",
      "note_off channel=0 note=62 velocity=127 time=0.019791666666666666\n",
      "note_on channel=0 note=60 velocity=127 time=0.028125\n",
      "note_on channel=0 note=61 velocity=127 time=0.008333333333333333\n",
      "note_off channel=0 note=60 velocity=127 time=0.0125\n",
      "note_off channel=0 note=61 velocity=127 time=0.008333333333333333\n",
      "note_on channel=0 note=62 velocity=127 time=0.020833333333333332\n",
      "note_off channel=0 note=62 velocity=127 time=0.019791666666666666\n",
      "note_on channel=0 note=60 velocity=127 time=0.010416666666666666\n",
      "note_off channel=0 note=60 velocity=127 time=0.019791666666666666\n",
      "note_on channel=0 note=61 velocity=127 time=0.02395833333333333\n",
      "note_off channel=0 note=61 velocity=127 time=0.019791666666666666\n",
      "note_on channel=0 note=62 velocity=127 time=0.0020833333333333333\n",
      "note_on channel=0 note=60 velocity=127 time=0.013541666666666667\n",
      "note_off channel=0 note=62 velocity=127 time=0.00625\n",
      "note_off channel=0 note=60 velocity=127 time=0.013541666666666667\n",
      "note_on channel=0 note=61 velocity=127 time=0.059375\n",
      "note_on channel=0 note=60 velocity=127 time=0\n",
      "note_on channel=0 note=62 velocity=127 time=0.003125\n",
      "note_off channel=0 note=61 velocity=127 time=0.015625\n",
      "note_off channel=0 note=60 velocity=127 time=0\n",
      "note_off channel=0 note=62 velocity=127 time=0.003125\n",
      "note_on channel=0 note=60 velocity=127 time=0.05625\n",
      "note_off channel=0 note=60 velocity=127 time=0.019791666666666666\n",
      "note_on channel=0 note=62 velocity=127 time=0.0010416666666666667\n",
      "note_on channel=0 note=61 velocity=127 time=0.014583333333333334\n",
      "note_off channel=0 note=62 velocity=127 time=0.005208333333333333\n",
      "note_off channel=0 note=61 velocity=127 time=0.014583333333333334\n",
      "note_on channel=0 note=60 velocity=127 time=0.02395833333333333\n",
      "note_off channel=0 note=60 velocity=127 time=0.019791666666666666\n",
      "note_on channel=0 note=62 velocity=127 time=0.017708333333333333\n",
      "note_off channel=0 note=62 velocity=127 time=0.019791666666666666\n",
      "note_on channel=0 note=61 velocity=127 time=0.013541666666666667\n",
      "note_on channel=0 note=60 velocity=127 time=0.008333333333333333\n",
      "note_off channel=0 note=61 velocity=127 time=0.011458333333333333\n",
      "note_off channel=0 note=60 velocity=127 time=0.008333333333333333\n",
      "note_on channel=0 note=62 velocity=127 time=0.034375\n",
      "note_off channel=0 note=62 velocity=127 time=0.019791666666666666\n",
      "note_on channel=0 note=60 velocity=127 time=0.004166666666666667\n",
      "note_off channel=0 note=60 velocity=127 time=0.019791666666666666\n",
      "note_on channel=0 note=61 velocity=127 time=0.007291666666666667\n",
      "note_off channel=0 note=61 velocity=127 time=0.019791666666666666\n",
      "note_on channel=0 note=62 velocity=127 time=0.025\n",
      "note_on channel=0 note=60 velocity=127 time=0.007291666666666667\n",
      "note_off channel=0 note=62 velocity=127 time=0.0125\n",
      "note_off channel=0 note=60 velocity=127 time=0.007291666666666667\n",
      "note_on channel=0 note=61 velocity=127 time=0.042708333333333334\n",
      "note_on channel=0 note=60 velocity=127 time=0.016666666666666666\n",
      "note_off channel=0 note=61 velocity=127 time=0.003125\n",
      "note_on channel=0 note=62 velocity=127 time=0.00625\n",
      "note_off channel=0 note=60 velocity=127 time=0.010416666666666666\n",
      "note_off channel=0 note=62 velocity=127 time=0.009375\n",
      "note_on channel=0 note=60 velocity=127 time=0.05\n",
      "\u001b[91m [DEBUG] > \u001b[0m\n",
      " |>  to_array: msg.time > max_t; t, n\n",
      " |>  2.0281249999999997\n",
      " |>  100\n",
      "note_on channel=0 note=60 velocity=127 time=0.008333333333333333\n",
      "note_on channel=0 note=62 velocity=127 time=0.0125\n",
      "note_off channel=0 note=60 velocity=127 time=0.007291666666666667\n",
      "note_off channel=0 note=62 velocity=127 time=0.0125\n",
      "note_on channel=0 note=61 velocity=127 time=0.01875\n",
      "note_off channel=0 note=61 velocity=127 time=0.019791666666666666\n",
      "note_on channel=0 note=62 velocity=127 time=0.03333333333333333\n",
      "note_off channel=0 note=62 velocity=127 time=0.019791666666666666\n",
      "note_on channel=0 note=60 velocity=127 time=0.013541666666666667\n",
      "note_off channel=0 note=60 velocity=127 time=0.019791666666666666\n",
      "note_on channel=0 note=61 velocity=127 time=0.027083333333333334\n",
      "note_on channel=0 note=62 velocity=127 time=0.011458333333333333\n",
      "note_off channel=0 note=61 velocity=127 time=0.008333333333333333\n",
      "note_off channel=0 note=62 velocity=127 time=0.011458333333333333\n",
      "note_on channel=0 note=60 velocity=127 time=0.06041666666666667\n",
      "note_on channel=0 note=62 velocity=127 time=0.011458333333333333\n",
      "note_off channel=0 note=60 velocity=127 time=0.008333333333333333\n",
      "note_off channel=0 note=62 velocity=127 time=0.011458333333333333\n",
      "note_on channel=0 note=61 velocity=127 time=0.010416666666666666\n",
      "note_off channel=0 note=61 velocity=127 time=0.019791666666666666\n",
      "note_on channel=0 note=62 velocity=127 time=0.041666666666666664\n",
      "note_off channel=0 note=62 velocity=127 time=0.019791666666666666\n",
      "note_on channel=0 note=60 velocity=127 time=0.014583333333333334\n",
      "note_off channel=0 note=60 velocity=127 time=0.019791666666666666\n",
      "note_on channel=0 note=61 velocity=127 time=0.01875\n",
      "note_on channel=0 note=62 velocity=127 time=0.01875\n",
      "note_off channel=0 note=61 velocity=127 time=0.0010416666666666667\n",
      "note_off channel=0 note=62 velocity=127 time=0.01875\n",
      "note_on channel=0 note=60 velocity=127 time=0.06145833333333333\n",
      "note_on channel=0 note=62 velocity=127 time=0.011458333333333333\n",
      "note_off channel=0 note=60 velocity=127 time=0.009375\n",
      "note_off channel=0 note=62 velocity=127 time=0.011458333333333333\n",
      "note_on channel=0 note=61 velocity=127 time=0.003125\n",
      "note_off channel=0 note=61 velocity=127 time=0.019791666666666666\n",
      "note_on channel=0 note=62 velocity=127 time=0.04895833333333333\n",
      "note_off channel=0 note=62 velocity=127 time=0.019791666666666666\n",
      "note_on channel=0 note=60 velocity=127 time=0.015625\n",
      "note_off channel=0 note=60 velocity=127 time=0.019791666666666666\n",
      "note_on channel=0 note=61 velocity=127 time=0.010416666666666666\n",
      "note_off channel=0 note=61 velocity=127 time=0.019791666666666666\n",
      "note_on channel=0 note=62 velocity=127 time=0.00625\n",
      "note_off channel=0 note=62 velocity=127 time=0.019791666666666666\n",
      "note_on channel=0 note=60 velocity=127 time=0.06145833333333333\n",
      "note_on channel=0 note=62 velocity=127 time=0.010416666666666666\n",
      "note_off channel=0 note=60 velocity=127 time=0.009375\n",
      "note_on channel=0 note=61 velocity=127 time=0.00625\n",
      "note_off channel=0 note=62 velocity=127 time=0.004166666666666667\n",
      "note_off channel=0 note=61 velocity=127 time=0.015625\n",
      "note_on channel=0 note=62 velocity=127 time=0.05625\n",
      "note_off channel=0 note=62 velocity=127 time=0.019791666666666666\n",
      "note_on channel=0 note=60 velocity=127 time=0.015625\n",
      "note_off channel=0 note=60 velocity=127 time=0.019791666666666666\n",
      "note_on channel=0 note=61 velocity=127 time=0.0020833333333333333\n",
      "note_off channel=0 note=61 velocity=127 time=0.019791666666666666\n",
      "note_on channel=0 note=62 velocity=127 time=0.013541666666666667\n",
      "note_off channel=0 note=62 velocity=127 time=0.019791666666666666\n",
      "note_on channel=0 note=60 velocity=127 time=0.0625\n",
      "note_on channel=0 note=62 velocity=127 time=0.009375\n",
      "note_on channel=0 note=61 velocity=127 time=0.008333333333333333\n",
      "note_off channel=0 note=60 velocity=127 time=0.0020833333333333333\n",
      "note_off channel=0 note=62 velocity=127 time=0.009375\n",
      "note_off channel=0 note=61 velocity=127 time=0.008333333333333333\n",
      "note_on channel=0 note=62 velocity=127 time=0.06354166666666666\n",
      "note_off channel=0 note=62 velocity=127 time=0.019791666666666666\n",
      "note_on channel=0 note=60 velocity=127 time=0.016666666666666666\n",
      "note_on channel=0 note=61 velocity=127 time=0.013541666666666667\n",
      "note_off channel=0 note=60 velocity=127 time=0.00625\n",
      "note_off channel=0 note=61 velocity=127 time=0.013541666666666667\n",
      "note_on channel=0 note=62 velocity=127 time=0.021875\n",
      "note_off channel=0 note=62 velocity=127 time=0.019791666666666666\n",
      "note_on channel=0 note=60 velocity=127 time=0.06354166666666666\n",
      "note_on channel=0 note=62 velocity=127 time=0.008333333333333333\n",
      "note_on channel=0 note=61 velocity=127 time=0.0010416666666666667\n",
      "note_off channel=0 note=60 velocity=127 time=0.010416666666666666\n",
      "note_off channel=0 note=62 velocity=127 time=0.008333333333333333\n",
      "note_off channel=0 note=61 velocity=127 time=0.0010416666666666667\n",
      "note_on channel=0 note=62 velocity=127 time=0.07083333333333333\n",
      "note_off channel=0 note=62 velocity=127 time=0.019791666666666666\n",
      "note_on channel=0 note=60 velocity=127 time=0.017708333333333333\n",
      "note_on channel=0 note=61 velocity=127 time=0.005208333333333333\n",
      "note_off channel=0 note=60 velocity=127 time=0.014583333333333334\n",
      "note_off channel=0 note=61 velocity=127 time=0.005208333333333333\n",
      "note_on channel=0 note=62 velocity=127 time=0.029166666666666667\n",
      "note_off channel=0 note=62 velocity=127 time=0.019791666666666666\n",
      "note_on channel=0 note=60 velocity=127 time=0.06354166666666666\n",
      "note_on channel=0 note=61 velocity=127 time=0.0010416666666666667\n",
      "note_on channel=0 note=62 velocity=127 time=0.007291666666666667\n",
      "note_off channel=0 note=60 velocity=127 time=0.0125\n",
      "note_off channel=0 note=61 velocity=127 time=0.0010416666666666667\n",
      "note_off channel=0 note=62 velocity=127 time=0.007291666666666667\n",
      "note_on channel=0 note=62 velocity=127 time=0.071875\n",
      "note_off channel=0 note=62 velocity=127 time=0.019791666666666666\n",
      "note_on channel=0 note=61 velocity=127 time=0.015625\n",
      "note_on channel=0 note=60 velocity=127 time=0.003125\n",
      "note_off channel=0 note=61 velocity=127 time=0.016666666666666666\n",
      "note_off channel=0 note=60 velocity=127 time=0.003125\n",
      "note_on channel=0 note=62 velocity=127 time=0.03333333333333333\n",
      "note_off channel=0 note=62 velocity=127 time=0.019791666666666666\n",
      "note_on channel=0 note=61 velocity=127 time=0.057291666666666664\n",
      "note_on channel=0 note=60 velocity=127 time=0.007291666666666667\n",
      "note_on channel=0 note=62 velocity=127 time=0.007291666666666667\n",
      "note_off channel=0 note=61 velocity=127 time=0.005208333333333333\n",
      "note_off channel=0 note=60 velocity=127 time=0.007291666666666667\n",
      "note_off channel=0 note=62 velocity=127 time=0.007291666666666667\n",
      "note_on channel=0 note=62 velocity=127 time=0.071875\n",
      "\u001b[91m [DEBUG] > \u001b[0m\n",
      " |>  to_array: msg.time > max_t; t, n\n",
      " |>  2.0395833333333324\n",
      " |>  100\n",
      "note_on channel=0 note=62 velocity=127 time=0.03854166666666667\n",
      "note_on channel=0 note=60 velocity=127 time=0.016666666666666666\n",
      "note_off channel=0 note=62 velocity=127 time=0.003125\n",
      "note_on channel=0 note=61 velocity=127 time=0.004166666666666667\n",
      "note_off channel=0 note=60 velocity=127 time=0.0125\n",
      "note_off channel=0 note=61 velocity=127 time=0.007291666666666667\n",
      "note_on channel=0 note=62 velocity=127 time=0.03854166666666667\n",
      "note_off channel=0 note=62 velocity=127 time=0.019791666666666666\n",
      "note_on channel=0 note=61 velocity=127 time=0.036458333333333336\n",
      "note_off channel=0 note=61 velocity=127 time=0.019791666666666666\n",
      "note_on channel=0 note=62 velocity=127 time=0.005208333333333333\n",
      "note_on channel=0 note=60 velocity=127 time=0.008333333333333333\n",
      "note_off channel=0 note=62 velocity=127 time=0.0125\n",
      "note_off channel=0 note=60 velocity=127 time=0.008333333333333333\n",
      "note_on channel=0 note=62 velocity=127 time=0.05416666666666667\n",
      "note_on channel=0 note=61 velocity=127 time=0.00625\n",
      "note_off channel=0 note=62 velocity=127 time=0.013541666666666667\n",
      "note_off channel=0 note=61 velocity=127 time=0.00625\n",
      "note_on channel=0 note=60 velocity=127 time=0.05520833333333333\n",
      "note_on channel=0 note=62 velocity=127 time=0\n",
      "note_off channel=0 note=60 velocity=127 time=0.019791666666666666\n",
      "note_off channel=0 note=62 velocity=127 time=0\n",
      "note_on channel=0 note=61 velocity=127 time=0.01875\n",
      "note_off channel=0 note=61 velocity=127 time=0.019791666666666666\n",
      "note_on channel=0 note=62 velocity=127 time=0.022916666666666665\n",
      "note_off channel=0 note=62 velocity=127 time=0.019791666666666666\n",
      "note_on channel=0 note=61 velocity=127 time=0.051041666666666666\n",
      "note_on channel=0 note=60 velocity=127 time=0.0020833333333333333\n",
      "note_on channel=0 note=62 velocity=127 time=0.008333333333333333\n",
      "note_off channel=0 note=61 velocity=127 time=0.009375\n",
      "note_off channel=0 note=60 velocity=127 time=0.0020833333333333333\n",
      "note_off channel=0 note=62 velocity=127 time=0.008333333333333333\n",
      "note_on channel=0 note=62 velocity=127 time=0.0625\n",
      "note_off channel=0 note=62 velocity=127 time=0.019791666666666666\n",
      "note_on channel=0 note=61 velocity=127 time=0.0020833333333333333\n",
      "note_off channel=0 note=61 velocity=127 time=0.019791666666666666\n",
      "note_on channel=0 note=60 velocity=127 time=0.02395833333333333\n",
      "note_on channel=0 note=62 velocity=127 time=0.016666666666666666\n",
      "note_off channel=0 note=60 velocity=127 time=0.003125\n",
      "note_off channel=0 note=62 velocity=127 time=0.016666666666666666\n",
      "note_on channel=0 note=61 velocity=127 time=0.034375\n",
      "note_off channel=0 note=61 velocity=127 time=0.019791666666666666\n",
      "note_on channel=0 note=62 velocity=127 time=0.008333333333333333\n",
      "note_off channel=0 note=62 velocity=127 time=0.019791666666666666\n",
      "note_on channel=0 note=60 velocity=127 time=0.036458333333333336\n",
      "note_off channel=0 note=60 velocity=127 time=0.019791666666666666\n",
      "note_on channel=0 note=62 velocity=127 time=0.005208333333333333\n",
      "note_on channel=0 note=61 velocity=127 time=0.004166666666666667\n",
      "note_off channel=0 note=62 velocity=127 time=0.015625\n",
      "note_off channel=0 note=61 velocity=127 time=0.004166666666666667\n",
      "note_on channel=0 note=62 velocity=127 time=0.058333333333333334\n",
      "note_off channel=0 note=62 velocity=127 time=0.019791666666666666\n",
      "note_on channel=0 note=61 velocity=127 time=0.016666666666666666\n",
      "note_on channel=0 note=60 velocity=127 time=0.011458333333333333\n",
      "note_off channel=0 note=61 velocity=127 time=0.008333333333333333\n",
      "note_off channel=0 note=60 velocity=127 time=0.011458333333333333\n",
      "note_on channel=0 note=62 velocity=127 time=0.013541666666666667\n",
      "note_off channel=0 note=62 velocity=127 time=0.019791666666666666\n",
      "note_on channel=0 note=61 velocity=127 time=0.04895833333333333\n",
      "note_on channel=0 note=62 velocity=127 time=0.013541666666666667\n",
      "note_off channel=0 note=61 velocity=127 time=0.00625\n",
      "note_off channel=0 note=62 velocity=127 time=0.013541666666666667\n",
      "note_on channel=0 note=60 velocity=127 time=0.019791666666666666\n",
      "note_off channel=0 note=60 velocity=127 time=0.019791666666666666\n",
      "note_on channel=0 note=62 velocity=127 time=0.021875\n",
      "note_on channel=0 note=61 velocity=127 time=0.01875\n",
      "note_off channel=0 note=62 velocity=127 time=0.0010416666666666667\n",
      "note_off channel=0 note=61 velocity=127 time=0.01875\n",
      "note_on channel=0 note=62 velocity=127 time=0.042708333333333334\n",
      "note_off channel=0 note=62 velocity=127 time=0.019791666666666666\n",
      "note_on channel=0 note=60 velocity=127 time=0.011458333333333333\n",
      "note_on channel=0 note=61 velocity=127 time=0.019791666666666666\n",
      "note_off channel=0 note=60 velocity=127 time=0\n",
      "note_off channel=0 note=61 velocity=127 time=0.019791666666666666\n",
      "note_on channel=0 note=62 velocity=127 time=0.010416666666666666\n",
      "note_off channel=0 note=62 velocity=127 time=0.019791666666666666\n",
      "note_on channel=0 note=62 velocity=127 time=0.0625\n",
      "note_on channel=0 note=61 velocity=127 time=0.0020833333333333333\n",
      "note_off channel=0 note=62 velocity=127 time=0.01875\n",
      "note_off channel=0 note=61 velocity=127 time=0.0020833333333333333\n",
      "note_on channel=0 note=60 velocity=127 time=0.0020833333333333333\n",
      "note_off channel=0 note=60 velocity=127 time=0.019791666666666666\n",
      "note_on channel=0 note=62 velocity=127 time=0.03854166666666667\n",
      "note_off channel=0 note=62 velocity=127 time=0.019791666666666666\n",
      "note_on channel=0 note=61 velocity=127 time=0.013541666666666667\n",
      "note_off channel=0 note=61 velocity=127 time=0.019791666666666666\n",
      "note_on channel=0 note=62 velocity=127 time=0.028125\n",
      "note_on channel=0 note=60 velocity=127 time=0.014583333333333334\n",
      "note_off channel=0 note=62 velocity=127 time=0.005208333333333333\n",
      "note_off channel=0 note=60 velocity=127 time=0.014583333333333334\n",
      "note_on channel=0 note=61 velocity=127 time=0.03125\n",
      "note_on channel=0 note=62 velocity=127 time=0.015625\n",
      "note_off channel=0 note=61 velocity=127 time=0.004166666666666667\n",
      "note_off channel=0 note=62 velocity=127 time=0.015625\n",
      "note_on channel=0 note=62 velocity=127 time=0.0625\n",
      "note_on channel=0 note=60 velocity=127 time=0.00625\n",
      "note_on channel=0 note=61 velocity=127 time=0.009375\n",
      "note_off channel=0 note=62 velocity=127 time=0.003125\n",
      "note_off channel=0 note=60 velocity=127 time=0.00625\n",
      "note_off channel=0 note=61 velocity=127 time=0.009375\n",
      "note_on channel=0 note=62 velocity=127 time=0.04583333333333333\n",
      "note_off channel=0 note=62 velocity=127 time=0.019791666666666666\n",
      "note_on channel=0 note=61 velocity=127 time=0.029166666666666667\n",
      "note_off channel=0 note=61 velocity=127 time=0.019791666666666666\n",
      "note_on channel=0 note=60 velocity=127 time=0.011458333333333333\n",
      "note_on channel=0 note=62 velocity=127 time=0.0020833333333333333\n",
      "note_off channel=0 note=60 velocity=127 time=0.017708333333333333\n",
      "note_off channel=0 note=62 velocity=127 time=0.0020833333333333333\n",
      "note_on channel=0 note=61 velocity=127 time=0.06145833333333333\n",
      "\u001b[91m [DEBUG] > \u001b[0m\n",
      " |>  to_array: msg.time > max_t; t, n\n",
      " |>  2.001041666666667\n",
      " |>  100\n",
      "note_on channel=0 note=61 velocity=127 time=0.026041666666666668\n",
      "note_on channel=0 note=62 velocity=127 time=0.013541666666666667\n",
      "note_off channel=0 note=61 velocity=127 time=0.00625\n",
      "note_off channel=0 note=62 velocity=127 time=0.013541666666666667\n",
      "note_on channel=0 note=60 velocity=127 time=0.03125\n",
      "note_on channel=0 note=61 velocity=127 time=0.007291666666666667\n",
      "note_off channel=0 note=60 velocity=127 time=0.0125\n",
      "note_off channel=0 note=61 velocity=127 time=0.007291666666666667\n",
      "note_on channel=0 note=61 velocity=127 time=0.052083333333333336\n",
      "note_on channel=0 note=60 velocity=127 time=0.019791666666666666\n",
      "note_off channel=0 note=61 velocity=127 time=0\n",
      "note_off channel=0 note=60 velocity=127 time=0.019791666666666666\n",
      "note_on channel=0 note=61 velocity=127 time=0.03229166666666666\n",
      "note_off channel=0 note=61 velocity=127 time=0.019791666666666666\n",
      "note_on channel=0 note=60 velocity=127 time=0.027083333333333334\n",
      "note_off channel=0 note=60 velocity=127 time=0.019791666666666666\n",
      "note_on channel=0 note=61 velocity=127 time=0.005208333333333333\n",
      "note_off channel=0 note=61 velocity=127 time=0.019791666666666666\n",
      "note_on channel=0 note=62 velocity=127 time=0.005208333333333333\n",
      "note_off channel=0 note=62 velocity=127 time=0.019791666666666666\n",
      "note_on channel=0 note=61 velocity=127 time=0.027083333333333334\n",
      "note_on channel=0 note=60 velocity=127 time=0.0020833333333333333\n",
      "note_off channel=0 note=61 velocity=127 time=0.017708333333333333\n",
      "note_off channel=0 note=60 velocity=127 time=0.0020833333333333333\n",
      "note_on channel=0 note=61 velocity=127 time=0.05\n",
      "note_off channel=0 note=61 velocity=127 time=0.019791666666666666\n",
      "note_on channel=0 note=60 velocity=127 time=0.010416666666666666\n",
      "note_off channel=0 note=60 velocity=127 time=0.019791666666666666\n",
      "note_on channel=0 note=61 velocity=127 time=0.021875\n",
      "note_off channel=0 note=61 velocity=127 time=0.019791666666666666\n",
      "note_on channel=0 note=60 velocity=127 time=0.0375\n",
      "note_on channel=0 note=61 velocity=127 time=0.014583333333333334\n",
      "note_off channel=0 note=60 velocity=127 time=0.005208333333333333\n",
      "note_off channel=0 note=61 velocity=127 time=0.014583333333333334\n",
      "note_on channel=0 note=62 velocity=127 time=0.016666666666666666\n",
      "note_off channel=0 note=62 velocity=127 time=0.019791666666666666\n",
      "note_on channel=0 note=61 velocity=127 time=0.015625\n",
      "note_on channel=0 note=60 velocity=127 time=0.0125\n",
      "note_off channel=0 note=61 velocity=127 time=0.007291666666666667\n",
      "note_off channel=0 note=60 velocity=127 time=0.0125\n",
      "note_on channel=0 note=61 velocity=127 time=0.03958333333333333\n",
      "note_off channel=0 note=61 velocity=127 time=0.019791666666666666\n",
      "note_on channel=0 note=60 velocity=127 time=0.019791666666666666\n",
      "note_off channel=0 note=60 velocity=127 time=0.019791666666666666\n",
      "note_on channel=0 note=61 velocity=127 time=0.0125\n",
      "note_off channel=0 note=61 velocity=127 time=0.019791666666666666\n",
      "note_on channel=0 note=60 velocity=127 time=0.04791666666666666\n",
      "note_on channel=0 note=61 velocity=127 time=0.004166666666666667\n",
      "note_off channel=0 note=60 velocity=127 time=0.015625\n",
      "note_off channel=0 note=61 velocity=127 time=0.004166666666666667\n",
      "note_on channel=0 note=62 velocity=127 time=0.028125\n",
      "note_off channel=0 note=62 velocity=127 time=0.019791666666666666\n",
      "note_on channel=0 note=61 velocity=127 time=0.004166666666666667\n",
      "note_off channel=0 note=61 velocity=127 time=0.019791666666666666\n",
      "note_on channel=0 note=60 velocity=127 time=0.003125\n",
      "note_off channel=0 note=60 velocity=127 time=0.019791666666666666\n",
      "note_on channel=0 note=61 velocity=127 time=0.029166666666666667\n",
      "note_off channel=0 note=61 velocity=127 time=0.019791666666666666\n",
      "note_on channel=0 note=60 velocity=127 time=0.030208333333333334\n",
      "note_off channel=0 note=60 velocity=127 time=0.019791666666666666\n",
      "note_on channel=0 note=61 velocity=127 time=0.0020833333333333333\n",
      "note_off channel=0 note=61 velocity=127 time=0.019791666666666666\n",
      "note_on channel=0 note=61 velocity=127 time=0.052083333333333336\n",
      "note_on channel=0 note=60 velocity=127 time=0.005208333333333333\n",
      "note_off channel=0 note=61 velocity=127 time=0.014583333333333334\n",
      "note_off channel=0 note=60 velocity=127 time=0.005208333333333333\n",
      "note_on channel=0 note=62 velocity=127 time=0.034375\n",
      "note_on channel=0 note=61 velocity=127 time=0.0125\n",
      "note_off channel=0 note=62 velocity=127 time=0.007291666666666667\n",
      "note_off channel=0 note=61 velocity=127 time=0.0125\n",
      "note_on channel=0 note=60 velocity=127 time=0.0125\n",
      "note_off channel=0 note=60 velocity=127 time=0.019791666666666666\n",
      "note_on channel=0 note=61 velocity=127 time=0.019791666666666666\n",
      "note_off channel=0 note=61 velocity=127 time=0.019791666666666666\n",
      "note_on channel=0 note=60 velocity=127 time=0.040625\n",
      "note_on channel=0 note=61 velocity=127 time=0.011458333333333333\n",
      "note_off channel=0 note=60 velocity=127 time=0.008333333333333333\n",
      "note_off channel=0 note=61 velocity=127 time=0.011458333333333333\n",
      "note_on channel=0 note=61 velocity=127 time=0.052083333333333336\n",
      "note_on channel=0 note=60 velocity=127 time=0.015625\n",
      "note_off channel=0 note=61 velocity=127 time=0.004166666666666667\n",
      "note_off channel=0 note=60 velocity=127 time=0.015625\n",
      "note_on channel=0 note=62 velocity=127 time=0.035416666666666666\n",
      "note_on channel=0 note=61 velocity=127 time=0.0010416666666666667\n",
      "note_off channel=0 note=62 velocity=127 time=0.01875\n",
      "note_off channel=0 note=61 velocity=127 time=0.0010416666666666667\n",
      "note_on channel=0 note=60 velocity=127 time=0.022916666666666665\n",
      "note_off channel=0 note=60 velocity=127 time=0.019791666666666666\n",
      "note_on channel=0 note=61 velocity=127 time=0.009375\n",
      "note_off channel=0 note=61 velocity=127 time=0.019791666666666666\n",
      "note_on channel=0 note=60 velocity=127 time=0.05\n",
      "note_on channel=0 note=61 velocity=127 time=0.0020833333333333333\n",
      "note_off channel=0 note=60 velocity=127 time=0.017708333333333333\n",
      "note_off channel=0 note=61 velocity=127 time=0.0020833333333333333\n",
      "note_on channel=0 note=61 velocity=127 time=0.052083333333333336\n",
      "note_off channel=0 note=61 velocity=127 time=0.019791666666666666\n",
      "note_on channel=0 note=60 velocity=127 time=0.005208333333333333\n",
      "note_off channel=0 note=60 velocity=127 time=0.019791666666666666\n",
      "note_on channel=0 note=61 velocity=127 time=0.026041666666666668\n",
      "note_on channel=0 note=62 velocity=127 time=0.010416666666666666\n",
      "note_off channel=0 note=61 velocity=127 time=0.009375\n",
      "note_off channel=0 note=62 velocity=127 time=0.010416666666666666\n",
      "note_on channel=0 note=60 velocity=127 time=0.022916666666666665\n",
      "note_on channel=0 note=61 velocity=127 time=0.01875\n",
      "note_off channel=0 note=60 velocity=127 time=0.0010416666666666667\n",
      "note_off channel=0 note=61 velocity=127 time=0.01875\n",
      "note_on channel=0 note=61 velocity=127 time=0.052083333333333336\n",
      "note_on channel=0 note=60 velocity=127 time=0.008333333333333333\n",
      "note_off channel=0 note=61 velocity=127 time=0.011458333333333333\n",
      "note_off channel=0 note=60 velocity=127 time=0.008333333333333333\n",
      "\u001b[91m [DEBUG] > \u001b[0m\n",
      " |>  to_array: msg.time > max_t; t, n\n",
      " |>  1.9937499999999992\n",
      " |>  100\n",
      "note_on channel=0 note=62 velocity=127 time=0.020833333333333332\n",
      "note_on channel=0 note=61 velocity=127 time=0.010416666666666666\n"
     ]
    },
    {
     "name": "stdout",
     "output_type": "stream",
     "text": [
      "note_on channel=0 note=60 velocity=127 time=0\n",
      "note_off channel=0 note=62 velocity=127 time=0.008333333333333333\n",
      "note_off channel=0 note=61 velocity=127 time=0.010416666666666666\n",
      "note_off channel=0 note=60 velocity=127 time=0\n",
      "note_on channel=0 note=61 velocity=127 time=0.084375\n",
      "note_off channel=0 note=61 velocity=127 time=0.019791666666666666\n",
      "note_on channel=0 note=62 velocity=127 time=0.02395833333333333\n",
      "note_off channel=0 note=62 velocity=127 time=0.019791666666666666\n",
      "note_on channel=0 note=61 velocity=127 time=0.040625\n",
      "note_on channel=0 note=60 velocity=127 time=0.005208333333333333\n",
      "note_off channel=0 note=61 velocity=127 time=0.014583333333333334\n",
      "note_off channel=0 note=60 velocity=127 time=0.005208333333333333\n",
      "note_on channel=0 note=62 velocity=127 time=0.07395833333333333\n",
      "note_on channel=0 note=61 velocity=127 time=0.00625\n",
      "note_off channel=0 note=62 velocity=127 time=0.013541666666666667\n",
      "note_off channel=0 note=61 velocity=127 time=0.00625\n",
      "note_on channel=0 note=61 velocity=127 time=0.08541666666666667\n",
      "note_on channel=0 note=60 velocity=127 time=0.009375\n",
      "note_off channel=0 note=61 velocity=127 time=0.010416666666666666\n",
      "note_off channel=0 note=60 velocity=127 time=0.009375\n",
      "note_on channel=0 note=62 velocity=127 time=0.019791666666666666\n",
      "note_off channel=0 note=62 velocity=127 time=0.019791666666666666\n",
      "note_on channel=0 note=61 velocity=127 time=0.036458333333333336\n",
      "note_off channel=0 note=61 velocity=127 time=0.019791666666666666\n",
      "note_on channel=0 note=62 velocity=127 time=0.08333333333333333\n",
      "note_on channel=0 note=61 velocity=127 time=0.0010416666666666667\n",
      "note_on channel=0 note=60 velocity=127 time=0.013541666666666667\n",
      "note_off channel=0 note=62 velocity=127 time=0.005208333333333333\n",
      "note_off channel=0 note=61 velocity=127 time=0.0010416666666666667\n",
      "note_off channel=0 note=60 velocity=127 time=0.013541666666666667\n",
      "note_on channel=0 note=61 velocity=127 time=0.07083333333333333\n",
      "note_off channel=0 note=61 velocity=127 time=0.019791666666666666\n",
      "note_on channel=0 note=62 velocity=127 time=0.03333333333333333\n",
      "note_off channel=0 note=62 velocity=127 time=0.019791666666666666\n",
      "note_on channel=0 note=61 velocity=127 time=0.03125\n",
      "note_on channel=0 note=60 velocity=127 time=0.017708333333333333\n",
      "note_off channel=0 note=61 velocity=127 time=0.0020833333333333333\n",
      "note_off channel=0 note=60 velocity=127 time=0.017708333333333333\n",
      "note_on channel=0 note=61 velocity=127 time=0.06666666666666667\n",
      "note_on channel=0 note=62 velocity=127 time=0.003125\n",
      "note_off channel=0 note=61 velocity=127 time=0.016666666666666666\n",
      "note_off channel=0 note=62 velocity=127 time=0.003125\n",
      "note_on channel=0 note=61 velocity=127 time=0.08229166666666667\n",
      "note_off channel=0 note=61 velocity=127 time=0.019791666666666666\n",
      "note_on channel=0 note=60 velocity=127 time=0.003125\n",
      "note_off channel=0 note=60 velocity=127 time=0.019791666666666666\n",
      "note_on channel=0 note=62 velocity=127 time=0.015625\n",
      "note_off channel=0 note=62 velocity=127 time=0.019791666666666666\n",
      "note_on channel=0 note=61 velocity=127 time=0.027083333333333334\n",
      "note_off channel=0 note=61 velocity=127 time=0.019791666666666666\n",
      "note_on channel=0 note=61 velocity=127 time=0.08541666666666667\n",
      "note_on channel=0 note=62 velocity=127 time=0.008333333333333333\n",
      "note_off channel=0 note=61 velocity=127 time=0.0125\n",
      "note_on channel=0 note=60 velocity=127 time=0.007291666666666667\n",
      "note_off channel=0 note=62 velocity=127 time=0.0010416666666666667\n",
      "note_off channel=0 note=60 velocity=127 time=0.01875\n",
      "note_on channel=0 note=61 velocity=127 time=0.058333333333333334\n",
      "note_off channel=0 note=61 velocity=127 time=0.019791666666666666\n",
      "note_on channel=0 note=62 velocity=127 time=0.042708333333333334\n",
      "note_off channel=0 note=62 velocity=127 time=0.019791666666666666\n",
      "note_on channel=0 note=61 velocity=127 time=0.021875\n",
      "note_off channel=0 note=61 velocity=127 time=0.019791666666666666\n",
      "note_on channel=0 note=60 velocity=127 time=0.011458333333333333\n",
      "note_off channel=0 note=60 velocity=127 time=0.019791666666666666\n",
      "note_on channel=0 note=61 velocity=127 time=0.053125\n",
      "note_on channel=0 note=62 velocity=127 time=0.0125\n",
      "note_off channel=0 note=61 velocity=127 time=0.007291666666666667\n",
      "note_off channel=0 note=62 velocity=127 time=0.0125\n",
      "note_on channel=0 note=61 velocity=127 time=0.07291666666666667\n",
      "note_off channel=0 note=61 velocity=127 time=0.019791666666666666\n",
      "note_on channel=0 note=60 velocity=127 time=0.015625\n",
      "note_off channel=0 note=60 velocity=127 time=0.019791666666666666\n",
      "note_on channel=0 note=62 velocity=127 time=0.011458333333333333\n",
      "note_off channel=0 note=62 velocity=127 time=0.019791666666666666\n",
      "note_on channel=0 note=61 velocity=127 time=0.017708333333333333\n",
      "note_off channel=0 note=61 velocity=127 time=0.019791666666666666\n",
      "note_on channel=0 note=61 velocity=127 time=0.08541666666666667\n",
      "note_on channel=0 note=62 velocity=127 time=0.017708333333333333\n",
      "note_off channel=0 note=61 velocity=127 time=0.003125\n",
      "note_off channel=0 note=62 velocity=127 time=0.017708333333333333\n",
      "note_on channel=0 note=60 velocity=127 time=0.003125\n",
      "note_off channel=0 note=60 velocity=127 time=0.019791666666666666\n",
      "note_on channel=0 note=61 velocity=127 time=0.04479166666666667\n",
      "\u001b[91m [DEBUG] > \u001b[0m\n",
      " |>  to_array: msg.time > max_t; t, n\n",
      " |>  2.021875000000001\n",
      " |>  100\n",
      "note_on channel=0 note=62 velocity=127 time=0.042708333333333334\n",
      "note_off channel=0 note=62 velocity=127 time=0.019791666666666666\n",
      "note_on channel=0 note=61 velocity=127 time=0.036458333333333336\n",
      "note_on channel=0 note=62 velocity=127 time=0.019791666666666666\n",
      "note_off channel=0 note=61 velocity=127 time=0\n",
      "note_off channel=0 note=62 velocity=127 time=0.019791666666666666\n",
      "note_on channel=0 note=60 velocity=127 time=0.016666666666666666\n",
      "note_off channel=0 note=60 velocity=127 time=0.019791666666666666\n",
      "note_on channel=0 note=62 velocity=127 time=0.019791666666666666\n",
      "note_on channel=0 note=61 velocity=127 time=0.008333333333333333\n",
      "note_off channel=0 note=62 velocity=127 time=0.011458333333333333\n",
      "note_off channel=0 note=61 velocity=127 time=0.008333333333333333\n",
      "note_on channel=0 note=62 velocity=127 time=0.046875\n",
      "note_off channel=0 note=62 velocity=127 time=0.019791666666666666\n",
      "note_on channel=0 note=61 velocity=127 time=0.016666666666666666\n",
      "note_off channel=0 note=61 velocity=127 time=0.019791666666666666\n",
      "note_on channel=0 note=62 velocity=127 time=0.01875\n",
      "note_off channel=0 note=62 velocity=127 time=0.019791666666666666\n",
      "note_on channel=0 note=60 velocity=127 time=0.011458333333333333\n",
      "note_off channel=0 note=60 velocity=127 time=0.019791666666666666\n",
      "note_on channel=0 note=61 velocity=127 time=0.013541666666666667\n",
      "note_on channel=0 note=62 velocity=127 time=0.010416666666666666\n",
      "note_off channel=0 note=61 velocity=127 time=0.009375\n",
      "note_off channel=0 note=62 velocity=127 time=0.010416666666666666\n",
      "note_on channel=0 note=62 velocity=127 time=0.05625\n",
      "note_on channel=0 note=61 velocity=127 time=0.017708333333333333\n",
      "note_off channel=0 note=62 velocity=127 time=0.0020833333333333333\n",
      "note_off channel=0 note=61 velocity=127 time=0.017708333333333333\n",
      "note_on channel=0 note=62 velocity=127 time=0.0375\n",
      "note_off channel=0 note=62 velocity=127 time=0.019791666666666666\n",
      "note_on channel=0 note=60 velocity=127 time=0.007291666666666667\n",
      "note_on channel=0 note=61 velocity=127 time=0.01875\n",
      "note_off channel=0 note=60 velocity=127 time=0.0010416666666666667\n",
      "note_off channel=0 note=61 velocity=127 time=0.01875\n",
      "note_on channel=0 note=62 velocity=127 time=0.009375\n",
      "note_off channel=0 note=62 velocity=127 time=0.019791666666666666\n",
      "note_on channel=0 note=61 velocity=127 time=0.05416666666666667\n",
      "note_on channel=0 note=62 velocity=127 time=0.0010416666666666667\n",
      "note_off channel=0 note=61 velocity=127 time=0.01875\n",
      "note_off channel=0 note=62 velocity=127 time=0.0010416666666666667\n",
      "note_on channel=0 note=62 velocity=127 time=0.05625\n",
      "note_off channel=0 note=62 velocity=127 time=0.019791666666666666\n",
      "note_on channel=0 note=60 velocity=127 time=0.0020833333333333333\n",
      "note_on channel=0 note=61 velocity=127 time=0.004166666666666667\n",
      "note_off channel=0 note=60 velocity=127 time=0.015625\n",
      "note_off channel=0 note=61 velocity=127 time=0.004166666666666667\n",
      "note_on channel=0 note=62 velocity=127 time=0.029166666666666667\n",
      "note_off channel=0 note=62 velocity=127 time=0.019791666666666666\n",
      "note_on channel=0 note=61 velocity=127 time=0.035416666666666666\n",
      "note_off channel=0 note=61 velocity=127 time=0.019791666666666666\n",
      "note_on channel=0 note=62 velocity=127 time=0\n",
      "note_off channel=0 note=62 velocity=127 time=0.019791666666666666\n",
      "note_on channel=0 note=62 velocity=127 time=0.05625\n",
      "note_on channel=0 note=61 velocity=127 time=0.008333333333333333\n",
      "note_on channel=0 note=60 velocity=127 time=0.009375\n",
      "note_off channel=0 note=62 velocity=127 time=0.0020833333333333333\n",
      "note_off channel=0 note=61 velocity=127 time=0.008333333333333333\n",
      "note_off channel=0 note=60 velocity=127 time=0.009375\n",
      "note_on channel=0 note=62 velocity=127 time=0.0375\n",
      "note_off channel=0 note=62 velocity=127 time=0.019791666666666666\n",
      "note_on channel=0 note=61 velocity=127 time=0.016666666666666666\n",
      "note_off channel=0 note=61 velocity=127 time=0.019791666666666666\n",
      "note_on channel=0 note=62 velocity=127 time=0.019791666666666666\n",
      "note_off channel=0 note=62 velocity=127 time=0.019791666666666666\n",
      "note_on channel=0 note=61 velocity=127 time=0.04479166666666667\n",
      "note_on channel=0 note=62 velocity=127 time=0.011458333333333333\n",
      "note_off channel=0 note=61 velocity=127 time=0.008333333333333333\n",
      "note_on channel=0 note=60 velocity=127 time=0.004166666666666667\n",
      "note_off channel=0 note=62 velocity=127 time=0.007291666666666667\n",
      "note_off channel=0 note=60 velocity=127 time=0.013541666666666667\n",
      "note_on channel=0 note=62 velocity=127 time=0.042708333333333334\n",
      "note_on channel=0 note=61 velocity=127 time=0.016666666666666666\n",
      "note_off channel=0 note=62 velocity=127 time=0.003125\n",
      "note_off channel=0 note=61 velocity=127 time=0.016666666666666666\n",
      "note_on channel=0 note=62 velocity=127 time=0.03854166666666667\n",
      "note_off channel=0 note=62 velocity=127 time=0.019791666666666666\n",
      "note_on channel=0 note=61 velocity=127 time=0.025\n",
      "note_off channel=0 note=61 velocity=127 time=0.019791666666666666\n",
      "note_on channel=0 note=62 velocity=127 time=0.010416666666666666\n",
      "note_on channel=0 note=60 velocity=127 time=0.008333333333333333\n",
      "note_off channel=0 note=62 velocity=127 time=0.011458333333333333\n",
      "note_off channel=0 note=60 velocity=127 time=0.008333333333333333\n",
      "note_on channel=0 note=61 velocity=127 time=0.04479166666666667\n",
      "note_on channel=0 note=62 velocity=127 time=0.0020833333333333333\n",
      "note_off channel=0 note=61 velocity=127 time=0.017708333333333333\n",
      "note_off channel=0 note=62 velocity=127 time=0.0020833333333333333\n",
      "note_on channel=0 note=62 velocity=127 time=0.05625\n",
      "note_off channel=0 note=62 velocity=127 time=0.019791666666666666\n",
      "note_on channel=0 note=61 velocity=127 time=0.00625\n",
      "note_off channel=0 note=61 velocity=127 time=0.019791666666666666\n",
      "note_on channel=0 note=62 velocity=127 time=0.029166666666666667\n",
      "note_on channel=0 note=60 velocity=127 time=0.004166666666666667\n",
      "note_off channel=0 note=62 velocity=127 time=0.016666666666666666\n",
      "note_off channel=0 note=60 velocity=127 time=0.004166666666666667\n",
      "note_on channel=0 note=61 velocity=127 time=0.03125\n",
      "note_off channel=0 note=61 velocity=127 time=0.019791666666666666\n",
      "note_on channel=0 note=62 velocity=127 time=0.0010416666666666667\n",
      "note_off channel=0 note=62 velocity=127 time=0.019791666666666666\n",
      "note_on channel=0 note=62 velocity=127 time=0.05625\n",
      "note_on channel=0 note=61 velocity=127 time=0.007291666666666667\n",
      "note_off channel=0 note=62 velocity=127 time=0.0125\n",
      "note_off channel=0 note=61 velocity=127 time=0.007291666666666667\n",
      "note_on channel=0 note=60 velocity=127 time=0.04791666666666666\n",
      "note_on channel=0 note=62 velocity=127 time=0.0010416666666666667\n",
      "note_off channel=0 note=60 velocity=127 time=0.01875\n",
      "note_off channel=0 note=62 velocity=127 time=0.0010416666666666667\n",
      "note_on channel=0 note=61 velocity=127 time=0.015625\n",
      "note_off channel=0 note=61 velocity=127 time=0.019791666666666666\n",
      "note_on channel=0 note=62 velocity=127 time=0.020833333333333332\n",
      "\u001b[91m [DEBUG] > \u001b[0m\n",
      " |>  to_array: msg.time > max_t; t, n\n",
      " |>  2.0072916666666663\n",
      " |>  100\n",
      "note_on channel=0 note=62 velocity=127 time=0.026041666666666668\n",
      "note_off channel=0 note=62 velocity=127 time=0.019791666666666666\n",
      "note_on channel=0 note=60 velocity=127 time=0.0020833333333333333\n",
      "note_off channel=0 note=60 velocity=127 time=0.019791666666666666\n",
      "note_on channel=0 note=62 velocity=127 time=0.040625\n",
      "note_on channel=0 note=61 velocity=127 time=0.0010416666666666667\n",
      "note_off channel=0 note=62 velocity=127 time=0.01875\n",
      "note_off channel=0 note=61 velocity=127 time=0.0010416666666666667\n",
      "note_on channel=0 note=62 velocity=127 time=0.06145833333333333\n",
      "note_on channel=0 note=60 velocity=127 time=0\n",
      "note_off channel=0 note=62 velocity=127 time=0.019791666666666666\n",
      "note_off channel=0 note=60 velocity=127 time=0\n",
      "note_on channel=0 note=61 velocity=127 time=0.034375\n",
      "note_off channel=0 note=61 velocity=127 time=0.019791666666666666\n",
      "note_on channel=0 note=62 velocity=127 time=0.008333333333333333\n",
      "note_off channel=0 note=62 velocity=127 time=0.019791666666666666\n",
      "note_on channel=0 note=60 velocity=127 time=0.040625\n",
      "note_off channel=0 note=60 velocity=127 time=0.019791666666666666\n",
      "note_on channel=0 note=62 velocity=127 time=0.0020833333333333333\n",
      "note_off channel=0 note=62 velocity=127 time=0.019791666666666666\n",
      "note_on channel=0 note=61 velocity=127 time=0.004166666666666667\n",
      "note_off channel=0 note=61 velocity=127 time=0.019791666666666666\n",
      "note_on channel=0 note=62 velocity=127 time=0.03854166666666667\n",
      "note_off channel=0 note=62 velocity=127 time=0.019791666666666666\n",
      "note_on channel=0 note=60 velocity=127 time=0.01875\n",
      "note_off channel=0 note=60 velocity=127 time=0.019791666666666666\n",
      "note_on channel=0 note=61 velocity=127 time=0.01875\n",
      "note_on channel=0 note=62 velocity=127 time=0.005208333333333333\n",
      "note_off channel=0 note=61 velocity=127 time=0.014583333333333334\n",
      "note_off channel=0 note=62 velocity=127 time=0.005208333333333333\n",
      "note_on channel=0 note=62 velocity=127 time=0.0625\n",
      "note_on channel=0 note=60 velocity=127 time=0.017708333333333333\n",
      "note_off channel=0 note=62 velocity=127 time=0.003125\n",
      "note_off channel=0 note=60 velocity=127 time=0.017708333333333333\n",
      "note_on channel=0 note=61 velocity=127 time=0.010416666666666666\n",
      "note_off channel=0 note=61 velocity=127 time=0.019791666666666666\n",
      "note_on channel=0 note=62 velocity=127 time=0.014583333333333334\n",
      "note_off channel=0 note=62 velocity=127 time=0.019791666666666666\n",
      "note_on channel=0 note=60 velocity=127 time=0.058333333333333334\n",
      "note_on channel=0 note=62 velocity=127 time=0.004166666666666667\n",
      "note_off channel=0 note=60 velocity=127 time=0.015625\n",
      "note_on channel=0 note=61 velocity=127 time=0.003125\n",
      "note_off channel=0 note=62 velocity=127 time=0.0020833333333333333\n",
      "note_off channel=0 note=61 velocity=127 time=0.01875\n",
      "note_on channel=0 note=62 velocity=127 time=0.04479166666666667\n",
      "note_off channel=0 note=62 velocity=127 time=0.019791666666666666\n",
      "note_on channel=0 note=60 velocity=127 time=0.036458333333333336\n",
      "note_on channel=0 note=61 velocity=127 time=0.014583333333333334\n",
      "note_off channel=0 note=60 velocity=127 time=0.005208333333333333\n",
      "note_on channel=0 note=62 velocity=127 time=0.00625\n",
      "note_off channel=0 note=61 velocity=127 time=0.008333333333333333\n",
      "note_off channel=0 note=62 velocity=127 time=0.011458333333333333\n",
      "note_on channel=0 note=62 velocity=127 time=0.0625\n",
      "note_off channel=0 note=62 velocity=127 time=0.019791666666666666\n",
      "note_on channel=0 note=60 velocity=127 time=0.014583333333333334\n",
      "note_on channel=0 note=61 velocity=127 time=0.007291666666666667\n",
      "note_off channel=0 note=60 velocity=127 time=0.0125\n",
      "note_off channel=0 note=61 velocity=127 time=0.007291666666666667\n",
      "note_on channel=0 note=62 velocity=127 time=0.020833333333333332\n",
      "note_off channel=0 note=62 velocity=127 time=0.019791666666666666\n",
      "note_on channel=0 note=62 velocity=127 time=0.0625\n",
      "note_on channel=0 note=61 velocity=127 time=0.0125\n",
      "note_on channel=0 note=60 velocity=127 time=0.0010416666666666667\n",
      "note_off channel=0 note=62 velocity=127 time=0.007291666666666667\n",
      "note_off channel=0 note=61 velocity=127 time=0.0125\n",
      "note_off channel=0 note=60 velocity=127 time=0.0010416666666666667\n",
      "note_on channel=0 note=62 velocity=127 time=0.05\n",
      "note_off channel=0 note=62 velocity=127 time=0.019791666666666666\n",
      "note_on channel=0 note=61 velocity=127 time=0.04479166666666667\n",
      "note_on channel=0 note=60 velocity=127 time=0.008333333333333333\n",
      "note_on channel=0 note=62 velocity=127 time=0.009375\n",
      "note_off channel=0 note=61 velocity=127 time=0.0020833333333333333\n",
      "note_off channel=0 note=60 velocity=127 time=0.008333333333333333\n",
      "note_off channel=0 note=62 velocity=127 time=0.009375\n",
      "note_on channel=0 note=62 velocity=127 time=0.0625\n",
      "note_off channel=0 note=62 velocity=127 time=0.019791666666666666\n",
      "note_on channel=0 note=61 velocity=127 time=0.015625\n",
      "note_on channel=0 note=60 velocity=127 time=0.016666666666666666\n",
      "note_off channel=0 note=61 velocity=127 time=0.004166666666666667\n",
      "note_off channel=0 note=60 velocity=127 time=0.016666666666666666\n",
      "note_on channel=0 note=62 velocity=127 time=0.011458333333333333\n",
      "note_off channel=0 note=62 velocity=127 time=0.019791666666666666\n",
      "note_on channel=0 note=62 velocity=127 time=0.0625\n",
      "note_on channel=0 note=61 velocity=127 time=0.00625\n",
      "note_off channel=0 note=62 velocity=127 time=0.014583333333333334\n",
      "note_off channel=0 note=61 velocity=127 time=0.00625\n",
      "note_on channel=0 note=60 velocity=127 time=0.004166666666666667\n",
      "note_off channel=0 note=60 velocity=127 time=0.019791666666666666\n",
      "note_on channel=0 note=62 velocity=127 time=0.03333333333333333\n",
      "note_off channel=0 note=62 velocity=127 time=0.019791666666666666\n",
      "note_on channel=0 note=61 velocity=127 time=0.03854166666666667\n",
      "note_off channel=0 note=61 velocity=127 time=0.019791666666666666\n",
      "note_on channel=0 note=62 velocity=127 time=0.004166666666666667\n",
      "note_on channel=0 note=60 velocity=127 time=0.008333333333333333\n",
      "note_off channel=0 note=62 velocity=127 time=0.0125\n",
      "note_off channel=0 note=60 velocity=127 time=0.008333333333333333\n",
      "note_on channel=0 note=62 velocity=127 time=0.05520833333333333\n",
      "note_off channel=0 note=62 velocity=127 time=0.019791666666666666\n",
      "note_on channel=0 note=61 velocity=127 time=0.009375\n",
      "note_off channel=0 note=61 velocity=127 time=0.019791666666666666\n",
      "note_on channel=0 note=60 velocity=127 time=0.019791666666666666\n",
      "note_on channel=0 note=62 velocity=127 time=0.013541666666666667\n",
      "note_off channel=0 note=60 velocity=127 time=0.00625\n",
      "note_off channel=0 note=62 velocity=127 time=0.013541666666666667\n",
      "note_on channel=0 note=61 velocity=127 time=0.0625\n",
      "\u001b[91m [DEBUG] > \u001b[0m\n",
      " |>  to_array: msg.time > max_t; t, n\n",
      " |>  2.0124999999999993\n",
      " |>  100\n",
      "note_on channel=0 note=60 velocity=127 time=0.019791666666666666\n",
      "note_off channel=0 note=60 velocity=127 time=0.019791666666666666\n",
      "note_on channel=0 note=62 velocity=127 time=0.025\n",
      "note_off channel=0 note=62 velocity=127 time=0.019791666666666666\n",
      "note_on channel=0 note=61 velocity=127 time=0.020833333333333332\n",
      "note_off channel=0 note=61 velocity=127 time=0.019791666666666666\n",
      "note_on channel=0 note=60 velocity=127 time=0.04375\n",
      "note_on channel=0 note=62 velocity=127 time=0.00625\n",
      "note_off channel=0 note=60 velocity=127 time=0.013541666666666667\n",
      "note_off channel=0 note=62 velocity=127 time=0.00625\n",
      "note_on channel=0 note=61 velocity=127 time=0.04479166666666667\n",
      "note_off channel=0 note=61 velocity=127 time=0.019791666666666666\n",
      "note_on channel=0 note=62 velocity=127 time=0.026041666666666668\n",
      "note_off channel=0 note=62 velocity=127 time=0.019791666666666666\n",
      "note_on channel=0 note=60 velocity=127 time=0.0125\n",
      "note_off channel=0 note=60 velocity=127 time=0.019791666666666666\n",
      "note_on channel=0 note=61 velocity=127 time=0.036458333333333336\n",
      "note_off channel=0 note=61 velocity=127 time=0.019791666666666666\n",
      "note_on channel=0 note=62 velocity=127 time=0.0020833333333333333\n",
      "note_off channel=0 note=62 velocity=127 time=0.019791666666666666\n",
      "note_on channel=0 note=60 velocity=127 time=0.052083333333333336\n",
      "note_off channel=0 note=60 velocity=127 time=0.019791666666666666\n",
      "note_on channel=0 note=62 velocity=127 time=0.01875\n",
      "note_on channel=0 note=61 velocity=127 time=0.0020833333333333333\n",
      "note_off channel=0 note=62 velocity=127 time=0.017708333333333333\n",
      "note_off channel=0 note=61 velocity=127 time=0.0020833333333333333\n",
      "note_on channel=0 note=60 velocity=127 time=0.08854166666666667\n",
      "note_on channel=0 note=62 velocity=127 time=0\n",
      "note_off channel=0 note=60 velocity=127 time=0.019791666666666666\n",
      "note_off channel=0 note=62 velocity=127 time=0\n",
      "note_on channel=0 note=61 velocity=127 time=0.005208333333333333\n",
      "note_off channel=0 note=61 velocity=127 time=0.019791666666666666\n",
      "note_on channel=0 note=62 velocity=127 time=0.065625\n",
      "note_off channel=0 note=62 velocity=127 time=0.019791666666666666\n",
      "note_on channel=0 note=60 velocity=127 time=0.01875\n",
      "note_on channel=0 note=61 velocity=127 time=0.010416666666666666\n",
      "note_off channel=0 note=60 velocity=127 time=0.009375\n",
      "note_off channel=0 note=61 velocity=127 time=0.010416666666666666\n",
      "note_on channel=0 note=62 velocity=127 time=0.041666666666666664\n",
      "note_off channel=0 note=62 velocity=127 time=0.019791666666666666\n",
      "note_on channel=0 note=61 velocity=127 time=0.053125\n",
      "note_on channel=0 note=60 velocity=127 time=0.004166666666666667\n",
      "note_off channel=0 note=61 velocity=127 time=0.015625\n",
      "note_off channel=0 note=60 velocity=127 time=0.004166666666666667\n",
      "note_on channel=0 note=62 velocity=127 time=0.013541666666666667\n",
      "note_off channel=0 note=62 velocity=127 time=0.019791666666666666\n",
      "note_on channel=0 note=61 velocity=127 time=0.07708333333333334\n",
      "note_on channel=0 note=62 velocity=127 time=0.013541666666666667\n",
      "note_on channel=0 note=60 velocity=127 time=0.005208333333333333\n",
      "note_off channel=0 note=61 velocity=127 time=0.0010416666666666667\n",
      "note_off channel=0 note=62 velocity=127 time=0.013541666666666667\n",
      "note_off channel=0 note=60 velocity=127 time=0.005208333333333333\n",
      "note_on channel=0 note=62 velocity=127 time=0.08541666666666667\n",
      "note_on channel=0 note=61 velocity=127 time=0.010416666666666666\n",
      "note_off channel=0 note=62 velocity=127 time=0.010416666666666666\n",
      "note_off channel=0 note=61 velocity=127 time=0.010416666666666666\n",
      "note_on channel=0 note=60 velocity=127 time=0.014583333333333334\n",
      "note_off channel=0 note=60 velocity=127 time=0.019791666666666666\n",
      "note_on channel=0 note=62 velocity=127 time=0.046875\n",
      "note_off channel=0 note=62 velocity=127 time=0.019791666666666666\n",
      "note_on channel=0 note=61 velocity=127 time=0.013541666666666667\n",
      "note_off channel=0 note=61 velocity=127 time=0.019791666666666666\n",
      "note_on channel=0 note=60 velocity=127 time=0.029166666666666667\n",
      "note_off channel=0 note=60 velocity=127 time=0.019791666666666666\n",
      "note_on channel=0 note=62 velocity=127 time=0.007291666666666667\n",
      "note_off channel=0 note=62 velocity=127 time=0.019791666666666666\n",
      "note_on channel=0 note=61 velocity=127 time=0.0375\n",
      "note_off channel=0 note=61 velocity=127 time=0.019791666666666666\n",
      "note_on channel=0 note=62 velocity=127 time=0.03333333333333333\n",
      "note_on channel=0 note=60 velocity=127 time=0.011458333333333333\n",
      "note_off channel=0 note=62 velocity=127 time=0.009375\n",
      "note_off channel=0 note=60 velocity=127 time=0.011458333333333333\n",
      "note_on channel=0 note=61 velocity=127 time=0.05\n",
      "note_off channel=0 note=61 velocity=127 time=0.019791666666666666\n",
      "note_on channel=0 note=62 velocity=127 time=0.009375\n",
      "note_off channel=0 note=62 velocity=127 time=0.019791666666666666\n",
      "note_on channel=0 note=60 velocity=127 time=0.030208333333333334\n",
      "note_off channel=0 note=60 velocity=127 time=0.019791666666666666\n",
      "note_on channel=0 note=61 velocity=127 time=0.035416666666666666\n",
      "note_on channel=0 note=62 velocity=127 time=0.005208333333333333\n",
      "note_off channel=0 note=61 velocity=127 time=0.014583333333333334\n",
      "note_off channel=0 note=62 velocity=127 time=0.005208333333333333\n",
      "note_on channel=0 note=60 velocity=127 time=0.06875\n",
      "note_off channel=0 note=60 velocity=127 time=0.019791666666666666\n",
      "note_on channel=0 note=62 velocity=127 time=0.0020833333333333333\n",
      "note_on channel=0 note=61 velocity=127 time=0.017708333333333333\n",
      "note_off channel=0 note=62 velocity=127 time=0.0020833333333333333\n",
      "note_off channel=0 note=61 velocity=127 time=0.017708333333333333\n",
      "note_on channel=0 note=62 velocity=127 time=0.07291666666666667\n",
      "note_on channel=0 note=60 velocity=127 time=0.016666666666666666\n",
      "note_off channel=0 note=62 velocity=127 time=0.003125\n",
      "note_off channel=0 note=60 velocity=127 time=0.016666666666666666\n",
      "note_on channel=0 note=61 velocity=127 time=0.005208333333333333\n",
      "note_off channel=0 note=61 velocity=127 time=0.019791666666666666\n",
      "\u001b[91m [DEBUG] > \u001b[0m\n",
      " |>  to_array: msg.time > max_t; t, n\n",
      " |>  2.0052083333333335\n",
      " |>  100\n",
      "note_on channel=0 note=61 velocity=127 time=0.06666666666666667\n",
      "note_off channel=0 note=61 velocity=127 time=0.019791666666666666\n",
      "note_on channel=0 note=60 velocity=127 time=0.0020833333333333333\n",
      "note_off channel=0 note=60 velocity=127 time=0.019791666666666666\n",
      "note_on channel=0 note=62 velocity=127 time=0.027083333333333334\n",
      "note_off channel=0 note=62 velocity=127 time=0.019791666666666666\n",
      "note_on channel=0 note=60 velocity=127 time=0.046875\n",
      "note_off channel=0 note=60 velocity=127 time=0.019791666666666666\n",
      "note_on channel=0 note=61 velocity=127 time=0.005208333333333333\n",
      "note_off channel=0 note=61 velocity=127 time=0.019791666666666666\n",
      "note_on channel=0 note=62 velocity=127 time=0.04479166666666667\n",
      "note_off channel=0 note=62 velocity=127 time=0.019791666666666666\n",
      "note_on channel=0 note=60 velocity=127 time=0.004166666666666667\n",
      "note_off channel=0 note=60 velocity=127 time=0.019791666666666666\n",
      "note_on channel=0 note=61 velocity=127 time=0.052083333333333336\n",
      "note_off channel=0 note=61 velocity=127 time=0.019791666666666666\n",
      "note_on channel=0 note=60 velocity=127 time=0.022916666666666665\n",
      "note_on channel=0 note=62 velocity=127 time=0.01875\n",
      "note_off channel=0 note=60 velocity=127 time=0.0010416666666666667\n",
      "note_off channel=0 note=62 velocity=127 time=0.01875\n",
      "note_on channel=0 note=60 velocity=127 time=0.07604166666666666\n",
      "note_on channel=0 note=61 velocity=127 time=0.004166666666666667\n",
      "note_off channel=0 note=60 velocity=127 time=0.015625\n",
      "note_off channel=0 note=61 velocity=127 time=0.004166666666666667\n",
      "note_on channel=0 note=62 velocity=127 time=0.036458333333333336\n",
      "note_off channel=0 note=62 velocity=127 time=0.019791666666666666\n",
      "note_on channel=0 note=60 velocity=127 time=0.03333333333333333\n",
      "note_off channel=0 note=60 velocity=127 time=0.019791666666666666\n",
      "note_on channel=0 note=61 velocity=127 time=0.03125\n",
      "note_off channel=0 note=61 velocity=127 time=0.019791666666666666\n",
      "note_on channel=0 note=62 velocity=127 time=0.03229166666666666\n",
      "note_on channel=0 note=60 velocity=127 time=0.010416666666666666\n",
      "note_off channel=0 note=62 velocity=127 time=0.009375\n",
      "note_off channel=0 note=60 velocity=127 time=0.010416666666666666\n",
      "note_on channel=0 note=61 velocity=127 time=0.078125\n",
      "note_on channel=0 note=60 velocity=127 time=0.016666666666666666\n",
      "note_off channel=0 note=61 velocity=127 time=0.004166666666666667\n",
      "note_off channel=0 note=60 velocity=127 time=0.016666666666666666\n",
      "note_on channel=0 note=62 velocity=127 time=0.0125\n",
      "note_off channel=0 note=62 velocity=127 time=0.019791666666666666\n",
      "note_on channel=0 note=60 velocity=127 time=0.0625\n",
      "note_off channel=0 note=60 velocity=127 time=0.019791666666666666\n",
      "note_on channel=0 note=61 velocity=127 time=0.010416666666666666\n",
      "note_off channel=0 note=61 velocity=127 time=0.019791666666666666\n",
      "note_on channel=0 note=62 velocity=127 time=0.02395833333333333\n",
      "note_off channel=0 note=62 velocity=127 time=0.019791666666666666\n",
      "note_on channel=0 note=60 velocity=127 time=0.019791666666666666\n",
      "note_off channel=0 note=60 velocity=127 time=0.019791666666666666\n",
      "note_on channel=0 note=61 velocity=127 time=0.057291666666666664\n",
      "note_off channel=0 note=61 velocity=127 time=0.019791666666666666\n",
      "note_on channel=0 note=60 velocity=127 time=0.016666666666666666\n",
      "note_on channel=0 note=62 velocity=127 time=0.003125\n",
      "note_off channel=0 note=60 velocity=127 time=0.016666666666666666\n",
      "note_off channel=0 note=62 velocity=127 time=0.003125\n",
      "note_on channel=0 note=60 velocity=127 time=0.09166666666666666\n",
      "note_on channel=0 note=61 velocity=127 time=0.010416666666666666\n",
      "note_off channel=0 note=60 velocity=127 time=0.010416666666666666\n",
      "note_off channel=0 note=61 velocity=127 time=0.010416666666666666\n",
      "note_on channel=0 note=62 velocity=127 time=0.015625\n",
      "note_off channel=0 note=62 velocity=127 time=0.019791666666666666\n",
      "note_on channel=0 note=60 velocity=127 time=0.04895833333333333\n",
      "note_off channel=0 note=60 velocity=127 time=0.019791666666666666\n",
      "note_on channel=0 note=61 velocity=127 time=0.036458333333333336\n",
      "note_off channel=0 note=61 velocity=127 time=0.019791666666666666\n",
      "note_on channel=0 note=62 velocity=127 time=0.011458333333333333\n",
      "note_off channel=0 note=62 velocity=127 time=0.019791666666666666\n",
      "note_on channel=0 note=60 velocity=127 time=0.00625\n",
      "note_off channel=0 note=60 velocity=127 time=0.019791666666666666\n",
      "note_on channel=0 note=61 velocity=127 time=0.08333333333333333\n",
      "note_on channel=0 note=60 velocity=127 time=0.010416666666666666\n",
      "note_off channel=0 note=61 velocity=127 time=0.009375\n",
      "note_on channel=0 note=62 velocity=127 time=0.007291666666666667\n",
      "note_off channel=0 note=60 velocity=127 time=0.003125\n",
      "note_off channel=0 note=62 velocity=127 time=0.016666666666666666\n",
      "note_on channel=0 note=60 velocity=127 time=0.078125\n",
      "note_off channel=0 note=60 velocity=127 time=0.019791666666666666\n",
      "note_on channel=0 note=61 velocity=127 time=0.016666666666666666\n",
      "note_off channel=0 note=61 velocity=127 time=0.019791666666666666\n",
      "note_on channel=0 note=62 velocity=127 time=0.003125\n",
      "note_off channel=0 note=62 velocity=127 time=0.019791666666666666\n",
      "note_on channel=0 note=60 velocity=127 time=0.035416666666666666\n",
      "note_off channel=0 note=60 velocity=127 time=0.019791666666666666\n",
      "note_on channel=0 note=61 velocity=127 time=0.06354166666666666\n",
      "\u001b[91m [DEBUG] > \u001b[0m\n",
      " |>  to_array: msg.time > max_t; t, n\n",
      " |>  1.9989583333333332\n",
      " |>  100\n"
     ]
    },
    {
     "name": "stdout",
     "output_type": "stream",
     "text": [
      "note_on channel=0 note=62 velocity=127 time=0.015625\n",
      "note_off channel=0 note=62 velocity=127 time=0.019791666666666666\n",
      "note_on channel=0 note=61 velocity=127 time=0.020833333333333332\n",
      "note_off channel=0 note=61 velocity=127 time=0.019791666666666666\n",
      "note_on channel=0 note=60 velocity=127 time=0.00625\n",
      "note_off channel=0 note=60 velocity=127 time=0.019791666666666666\n",
      "note_on channel=0 note=61 velocity=127 time=0.022916666666666665\n",
      "note_off channel=0 note=61 velocity=127 time=0.019791666666666666\n",
      "note_on channel=0 note=61 velocity=127 time=0.05\n",
      "note_on channel=0 note=62 velocity=127 time=0.003125\n",
      "note_off channel=0 note=61 velocity=127 time=0.016666666666666666\n",
      "note_off channel=0 note=62 velocity=127 time=0.003125\n",
      "note_on channel=0 note=60 velocity=127 time=0.016666666666666666\n",
      "note_off channel=0 note=60 velocity=127 time=0.019791666666666666\n",
      "note_on channel=0 note=61 velocity=127 time=0.010416666666666666\n",
      "note_off channel=0 note=61 velocity=127 time=0.019791666666666666\n",
      "note_on channel=0 note=61 velocity=127 time=0.05\n",
      "note_off channel=0 note=61 velocity=127 time=0.019791666666666666\n",
      "note_on channel=0 note=62 velocity=127 time=0.027083333333333334\n",
      "note_on channel=0 note=60 velocity=127 time=0.005208333333333333\n",
      "note_off channel=0 note=62 velocity=127 time=0.014583333333333334\n",
      "note_on channel=0 note=61 velocity=127 time=0.0020833333333333333\n",
      "note_off channel=0 note=60 velocity=127 time=0.0020833333333333333\n",
      "note_off channel=0 note=61 velocity=127 time=0.017708333333333333\n",
      "note_on channel=0 note=61 velocity=127 time=0.05\n",
      "note_off channel=0 note=61 velocity=127 time=0.019791666666666666\n",
      "note_on channel=0 note=60 velocity=127 time=0.04479166666666667\n",
      "note_on channel=0 note=61 velocity=127 time=0.004166666666666667\n",
      "note_off channel=0 note=60 velocity=127 time=0.015625\n",
      "note_off channel=0 note=61 velocity=127 time=0.004166666666666667\n",
      "note_on channel=0 note=62 velocity=127 time=0.0020833333333333333\n",
      "note_off channel=0 note=62 velocity=127 time=0.019791666666666666\n",
      "note_on channel=0 note=61 velocity=127 time=0.028125\n",
      "note_off channel=0 note=61 velocity=127 time=0.019791666666666666\n",
      "note_on channel=0 note=61 velocity=127 time=0.05\n",
      "note_on channel=0 note=60 velocity=127 time=0.008333333333333333\n",
      "note_off channel=0 note=61 velocity=127 time=0.011458333333333333\n",
      "note_off channel=0 note=60 velocity=127 time=0.008333333333333333\n",
      "note_on channel=0 note=62 velocity=127 time=0.0375\n",
      "note_on channel=0 note=61 velocity=127 time=0.004166666666666667\n",
      "note_off channel=0 note=62 velocity=127 time=0.016666666666666666\n",
      "note_off channel=0 note=61 velocity=127 time=0.004166666666666667\n",
      "note_on channel=0 note=61 velocity=127 time=0.05\n",
      "note_off channel=0 note=61 velocity=127 time=0.019791666666666666\n",
      "note_on channel=0 note=60 velocity=127 time=0.0010416666666666667\n",
      "note_off channel=0 note=60 velocity=127 time=0.019791666666666666\n",
      "note_on channel=0 note=61 velocity=127 time=0.028125\n",
      "note_off channel=0 note=61 velocity=127 time=0.019791666666666666\n",
      "note_on channel=0 note=62 velocity=127 time=0.019791666666666666\n",
      "note_off channel=0 note=62 velocity=127 time=0.019791666666666666\n",
      "note_on channel=0 note=61 velocity=127 time=0.009375\n",
      "note_off channel=0 note=61 velocity=127 time=0.019791666666666666\n",
      "note_on channel=0 note=60 velocity=127 time=0.013541666666666667\n",
      "note_off channel=0 note=60 velocity=127 time=0.019791666666666666\n",
      "note_on channel=0 note=61 velocity=127 time=0.015625\n",
      "note_off channel=0 note=61 velocity=127 time=0.019791666666666666\n",
      "note_on channel=0 note=61 velocity=127 time=0.05\n",
      "note_on channel=0 note=62 velocity=127 time=0.014583333333333334\n",
      "note_off channel=0 note=61 velocity=127 time=0.005208333333333333\n",
      "note_off channel=0 note=62 velocity=127 time=0.014583333333333334\n",
      "note_on channel=0 note=60 velocity=127 time=0.011458333333333333\n",
      "note_off channel=0 note=60 velocity=127 time=0.019791666666666666\n",
      "note_on channel=0 note=61 velocity=127 time=0.003125\n",
      "note_off channel=0 note=61 velocity=127 time=0.019791666666666666\n",
      "note_on channel=0 note=61 velocity=127 time=0.05\n",
      "note_off channel=0 note=61 velocity=127 time=0.019791666666666666\n",
      "note_on channel=0 note=62 velocity=127 time=0.03854166666666667\n",
      "note_on channel=0 note=60 velocity=127 time=0.0010416666666666667\n",
      "note_on channel=0 note=61 velocity=127 time=0.010416666666666666\n",
      "note_off channel=0 note=62 velocity=127 time=0.009375\n",
      "note_off channel=0 note=60 velocity=127 time=0.0010416666666666667\n",
      "note_off channel=0 note=61 velocity=127 time=0.010416666666666666\n",
      "note_on channel=0 note=61 velocity=127 time=0.05\n",
      "note_off channel=0 note=61 velocity=127 time=0.019791666666666666\n",
      "note_on channel=0 note=61 velocity=127 time=0.05\n",
      "note_on channel=0 note=60 velocity=127 time=0.003125\n",
      "note_off channel=0 note=61 velocity=127 time=0.017708333333333333\n",
      "note_off channel=0 note=60 velocity=127 time=0.003125\n",
      "note_on channel=0 note=62 velocity=127 time=0.010416666666666666\n",
      "note_off channel=0 note=62 velocity=127 time=0.019791666666666666\n",
      "note_on channel=0 note=61 velocity=127 time=0.016666666666666666\n",
      "note_off channel=0 note=61 velocity=127 time=0.019791666666666666\n",
      "note_on channel=0 note=61 velocity=127 time=0.05\n",
      "note_on channel=0 note=60 velocity=127 time=0.015625\n",
      "note_off channel=0 note=61 velocity=127 time=0.004166666666666667\n",
      "note_off channel=0 note=60 velocity=127 time=0.015625\n",
      "note_on channel=0 note=61 velocity=127 time=0.034375\n",
      "note_on channel=0 note=62 velocity=127 time=0.008333333333333333\n",
      "note_off channel=0 note=61 velocity=127 time=0.0125\n",
      "note_off channel=0 note=62 velocity=127 time=0.008333333333333333\n",
      "note_on channel=0 note=61 velocity=127 time=0.041666666666666664\n",
      "note_off channel=0 note=61 velocity=127 time=0.019791666666666666\n",
      "note_on channel=0 note=60 velocity=127 time=0.008333333333333333\n",
      "note_off channel=0 note=60 velocity=127 time=0.019791666666666666\n",
      "note_on channel=0 note=61 velocity=127 time=0.020833333333333332\n",
      "note_off channel=0 note=61 velocity=127 time=0.019791666666666666\n",
      "note_on channel=0 note=62 velocity=127 time=0.03229166666666666\n",
      "note_on channel=0 note=61 velocity=127 time=0.017708333333333333\n",
      "note_off channel=0 note=62 velocity=127 time=0.0020833333333333333\n",
      "note_off channel=0 note=61 velocity=127 time=0.017708333333333333\n",
      "note_on channel=0 note=60 velocity=127 time=0.020833333333333332\n",
      "note_off channel=0 note=60 velocity=127 time=0.019791666666666666\n",
      "note_on channel=0 note=61 velocity=127 time=0.008333333333333333\n",
      "note_off channel=0 note=61 velocity=127 time=0.019791666666666666\n",
      "note_on channel=0 note=61 velocity=127 time=0.05\n",
      "\u001b[91m [DEBUG] > \u001b[0m\n",
      " |>  to_array: msg.time > max_t; t, n\n",
      " |>  2.0052083333333335\n",
      " |>  100\n",
      "note_on channel=0 note=62 velocity=127 time=0.053125\n",
      "note_on channel=0 note=61 velocity=127 time=0.014583333333333334\n",
      "note_off channel=0 note=62 velocity=127 time=0.005208333333333333\n",
      "note_off channel=0 note=61 velocity=127 time=0.014583333333333334\n",
      "note_on channel=0 note=60 velocity=127 time=0.011458333333333333\n",
      "note_off channel=0 note=60 velocity=127 time=0.019791666666666666\n",
      "note_on channel=0 note=62 velocity=127 time=0.004166666666666667\n",
      "note_off channel=0 note=62 velocity=127 time=0.019791666666666666\n",
      "note_on channel=0 note=61 velocity=127 time=0.0020833333333333333\n",
      "note_off channel=0 note=61 velocity=127 time=0.019791666666666666\n",
      "note_on channel=0 note=62 velocity=127 time=0.027083333333333334\n",
      "note_off channel=0 note=62 velocity=127 time=0.019791666666666666\n",
      "note_on channel=0 note=61 velocity=127 time=0.010416666666666666\n",
      "note_on channel=0 note=60 velocity=127 time=0.010416666666666666\n",
      "note_off channel=0 note=61 velocity=127 time=0.009375\n",
      "note_off channel=0 note=60 velocity=127 time=0.010416666666666666\n",
      "note_on channel=0 note=62 velocity=127 time=0.009375\n",
      "note_off channel=0 note=62 velocity=127 time=0.019791666666666666\n",
      "note_on channel=0 note=61 velocity=127 time=0.01875\n",
      "note_off channel=0 note=61 velocity=127 time=0.019791666666666666\n",
      "note_on channel=0 note=62 velocity=127 time=0.011458333333333333\n",
      "note_off channel=0 note=62 velocity=127 time=0.019791666666666666\n",
      "note_on channel=0 note=60 velocity=127 time=0.015625\n",
      "note_on channel=0 note=61 velocity=127 time=0.010416666666666666\n",
      "note_off channel=0 note=60 velocity=127 time=0.009375\n",
      "note_off channel=0 note=61 velocity=127 time=0.010416666666666666\n",
      "note_on channel=0 note=62 velocity=127 time=0.003125\n",
      "note_off channel=0 note=62 velocity=127 time=0.019791666666666666\n",
      "note_on channel=0 note=61 velocity=127 time=0.034375\n",
      "note_on channel=0 note=62 velocity=127 time=0.015625\n",
      "note_off channel=0 note=61 velocity=127 time=0.005208333333333333\n",
      "note_off channel=0 note=62 velocity=127 time=0.015625\n",
      "note_on channel=0 note=60 velocity=127 time=0.011458333333333333\n",
      "note_off channel=0 note=60 velocity=127 time=0.019791666666666666\n",
      "note_on channel=0 note=61 velocity=127 time=0.011458333333333333\n",
      "note_on channel=0 note=62 velocity=127 time=0.007291666666666667\n",
      "note_off channel=0 note=61 velocity=127 time=0.0125\n",
      "note_off channel=0 note=62 velocity=127 time=0.007291666666666667\n",
      "note_on channel=0 note=62 velocity=127 time=0.05\n",
      "note_on channel=0 note=61 velocity=127 time=0.0010416666666666667\n",
      "note_off channel=0 note=62 velocity=127 time=0.01875\n",
      "note_off channel=0 note=61 velocity=127 time=0.0010416666666666667\n",
      "note_on channel=0 note=60 velocity=127 time=0.00625\n",
      "note_off channel=0 note=60 velocity=127 time=0.019791666666666666\n",
      "note_on channel=0 note=62 velocity=127 time=0.022916666666666665\n",
      "note_on channel=0 note=61 velocity=127 time=0.008333333333333333\n",
      "note_off channel=0 note=62 velocity=127 time=0.011458333333333333\n",
      "note_off channel=0 note=61 velocity=127 time=0.008333333333333333\n",
      "note_on channel=0 note=62 velocity=127 time=0.040625\n",
      "note_on channel=0 note=61 velocity=127 time=0.016666666666666666\n",
      "note_off channel=0 note=62 velocity=127 time=0.003125\n",
      "note_on channel=0 note=60 velocity=127 time=0.0020833333333333333\n",
      "note_off channel=0 note=61 velocity=127 time=0.014583333333333334\n",
      "note_off channel=0 note=60 velocity=127 time=0.005208333333333333\n",
      "note_on channel=0 note=62 velocity=127 time=0.028125\n",
      "note_off channel=0 note=62 velocity=127 time=0.019791666666666666\n",
      "note_on channel=0 note=61 velocity=127 time=0.005208333333333333\n",
      "note_off channel=0 note=61 velocity=127 time=0.019791666666666666\n",
      "note_on channel=0 note=62 velocity=127 time=0.025\n",
      "note_on channel=0 note=60 velocity=127 time=0.016666666666666666\n",
      "note_off channel=0 note=62 velocity=127 time=0.003125\n",
      "note_on channel=0 note=61 velocity=127 time=0.0125\n",
      "note_off channel=0 note=60 velocity=127 time=0.004166666666666667\n",
      "note_off channel=0 note=61 velocity=127 time=0.015625\n",
      "note_on channel=0 note=62 velocity=127 time=0.016666666666666666\n",
      "note_off channel=0 note=62 velocity=127 time=0.019791666666666666\n",
      "note_on channel=0 note=61 velocity=127 time=0.020833333333333332\n",
      "note_off channel=0 note=61 velocity=127 time=0.019791666666666666\n",
      "note_on channel=0 note=62 velocity=127 time=0.009375\n",
      "note_on channel=0 note=60 velocity=127 time=0.0125\n",
      "note_off channel=0 note=62 velocity=127 time=0.007291666666666667\n",
      "note_off channel=0 note=60 velocity=127 time=0.0125\n",
      "note_on channel=0 note=61 velocity=127 time=0.016666666666666666\n",
      "note_off channel=0 note=61 velocity=127 time=0.019791666666666666\n",
      "note_on channel=0 note=62 velocity=127 time=0.0010416666666666667\n",
      "note_off channel=0 note=62 velocity=127 time=0.019791666666666666\n",
      "note_on channel=0 note=61 velocity=127 time=0.036458333333333336\n",
      "note_on channel=0 note=62 velocity=127 time=0.013541666666666667\n",
      "note_off channel=0 note=61 velocity=127 time=0.007291666666666667\n",
      "note_on channel=0 note=60 velocity=127 time=0.0010416666666666667\n",
      "note_off channel=0 note=62 velocity=127 time=0.0125\n",
      "note_off channel=0 note=60 velocity=127 time=0.007291666666666667\n",
      "note_on channel=0 note=61 velocity=127 time=0.0375\n",
      "note_on channel=0 note=62 velocity=127 time=0.005208333333333333\n",
      "note_off channel=0 note=61 velocity=127 time=0.014583333333333334\n",
      "note_off channel=0 note=62 velocity=127 time=0.005208333333333333\n",
      "note_on channel=0 note=62 velocity=127 time=0.05\n",
      "note_on channel=0 note=60 velocity=127 time=0.003125\n",
      "note_on channel=0 note=61 velocity=127 time=0\n",
      "note_off channel=0 note=62 velocity=127 time=0.016666666666666666\n",
      "note_off channel=0 note=60 velocity=127 time=0.003125\n",
      "note_off channel=0 note=61 velocity=127 time=0\n",
      "note_on channel=0 note=62 velocity=127 time=0.046875\n",
      "note_on channel=0 note=61 velocity=127 time=0.010416666666666666\n",
      "note_off channel=0 note=62 velocity=127 time=0.009375\n",
      "note_off channel=0 note=61 velocity=127 time=0.010416666666666666\n",
      "note_on channel=0 note=60 velocity=127 time=0.0375\n",
      "note_on channel=0 note=62 velocity=127 time=0.0020833333333333333\n",
      "note_off channel=0 note=60 velocity=127 time=0.017708333333333333\n",
      "note_on channel=0 note=61 velocity=127 time=0.0010416666666666667\n",
      "note_off channel=0 note=62 velocity=127 time=0.0010416666666666667\n",
      "note_off channel=0 note=61 velocity=127 time=0.01875\n",
      "note_on channel=0 note=62 velocity=127 time=0.03125\n",
      "note_off channel=0 note=62 velocity=127 time=0.019791666666666666\n",
      "note_on channel=0 note=61 velocity=127 time=0.007291666666666667\n",
      "note_off channel=0 note=61 velocity=127 time=0.019791666666666666\n",
      "note_on channel=0 note=60 velocity=127 time=0.016666666666666666\n",
      "note_on channel=0 note=62 velocity=127 time=0.00625\n",
      "note_off channel=0 note=60 velocity=127 time=0.013541666666666667\n",
      "note_off channel=0 note=62 velocity=127 time=0.00625\n",
      "note_on channel=0 note=61 velocity=127 time=0.014583333333333334\n",
      "note_off channel=0 note=61 velocity=127 time=0.019791666666666666\n",
      "note_on channel=0 note=62 velocity=127 time=0.014583333333333334\n",
      "note_off channel=0 note=62 velocity=127 time=0.019791666666666666\n",
      "note_on channel=0 note=61 velocity=127 time=0.022916666666666665\n",
      "note_on channel=0 note=60 velocity=127 time=0.015625\n",
      "note_off channel=0 note=61 velocity=127 time=0.004166666666666667\n",
      "note_on channel=0 note=62 velocity=127 time=0.007291666666666667\n",
      "note_off channel=0 note=60 velocity=127 time=0.008333333333333333\n",
      "note_off channel=0 note=62 velocity=127 time=0.011458333333333333\n",
      "note_on channel=0 note=61 velocity=127 time=0.03125\n",
      "note_on channel=0 note=62 velocity=127 time=0.01875\n",
      "note_off channel=0 note=61 velocity=127 time=0.0010416666666666667\n",
      "note_off channel=0 note=62 velocity=127 time=0.01875\n",
      "note_on channel=0 note=60 velocity=127 time=0.03333333333333333\n",
      "note_on channel=0 note=61 velocity=127 time=0.005208333333333333\n",
      "note_on channel=0 note=62 velocity=127 time=0.011458333333333333\n",
      "note_off channel=0 note=60 velocity=127 time=0.004166666666666667\n",
      "note_off channel=0 note=61 velocity=127 time=0.005208333333333333\n",
      "note_off channel=0 note=62 velocity=127 time=0.011458333333333333\n",
      "note_on channel=0 note=61 velocity=127 time=0.046875\n",
      "note_on channel=0 note=62 velocity=127 time=0.003125\n",
      "note_off channel=0 note=61 velocity=127 time=0.016666666666666666\n",
      "note_off channel=0 note=62 velocity=127 time=0.003125\n",
      "note_on channel=0 note=60 velocity=127 time=0.029166666666666667\n",
      "note_off channel=0 note=60 velocity=127 time=0.019791666666666666\n",
      "\u001b[91m [DEBUG] > \u001b[0m\n",
      " |>  to_array: msg.time > max_t; t, n\n",
      " |>  2.004166666666667\n",
      " |>  100\n",
      "note_on channel=0 note=60 velocity=127 time=0.0010416666666666667\n",
      "note_on channel=0 note=62 velocity=127 time=0.014583333333333334\n",
      "note_off channel=0 note=60 velocity=127 time=0.00625\n",
      "note_off channel=0 note=62 velocity=127 time=0.014583333333333334\n",
      "note_on channel=0 note=61 velocity=127 time=0.028125\n",
      "note_off channel=0 note=61 velocity=127 time=0.019791666666666666\n",
      "note_on channel=0 note=62 velocity=127 time=0.035416666666666666\n",
      "note_off channel=0 note=62 velocity=127 time=0.019791666666666666\n",
      "note_on channel=0 note=61 velocity=127 time=0.07708333333333334\n",
      "note_on channel=0 note=60 velocity=127 time=0.005208333333333333\n",
      "note_on channel=0 note=62 velocity=127 time=0\n",
      "note_off channel=0 note=61 velocity=127 time=0.014583333333333334\n",
      "note_off channel=0 note=60 velocity=127 time=0.005208333333333333\n",
      "note_off channel=0 note=62 velocity=127 time=0\n",
      "note_on channel=0 note=62 velocity=127 time=0.08333333333333333\n",
      "note_off channel=0 note=62 velocity=127 time=0.019791666666666666\n",
      "note_on channel=0 note=61 velocity=127 time=0.02395833333333333\n",
      "note_off channel=0 note=61 velocity=127 time=0.019791666666666666\n",
      "note_on channel=0 note=62 velocity=127 time=0.03854166666666667\n",
      "note_on channel=0 note=60 velocity=127 time=0.013541666666666667\n",
      "note_off channel=0 note=62 velocity=127 time=0.00625\n",
      "note_off channel=0 note=60 velocity=127 time=0.013541666666666667\n",
      "note_on channel=0 note=61 velocity=127 time=0.06041666666666667\n",
      "note_on channel=0 note=62 velocity=127 time=0.009375\n",
      "note_off channel=0 note=61 velocity=127 time=0.010416666666666666\n",
      "note_off channel=0 note=62 velocity=127 time=0.009375\n",
      "note_on channel=0 note=62 velocity=127 time=0.08333333333333333\n",
      "note_off channel=0 note=62 velocity=127 time=0.019791666666666666\n",
      "note_on channel=0 note=60 velocity=127 time=0.007291666666666667\n",
      "note_on channel=0 note=61 velocity=127 time=0.013541666666666667\n",
      "note_off channel=0 note=60 velocity=127 time=0.007291666666666667\n",
      "note_off channel=0 note=61 velocity=127 time=0.013541666666666667\n",
      "note_on channel=0 note=62 velocity=127 time=0.042708333333333334\n",
      "note_off channel=0 note=62 velocity=127 time=0.019791666666666666\n",
      "note_on channel=0 note=61 velocity=127 time=0.06979166666666667\n",
      "note_on channel=0 note=62 velocity=127 time=0.0125\n",
      "note_off channel=0 note=61 velocity=127 time=0.007291666666666667\n",
      "note_off channel=0 note=62 velocity=127 time=0.0125\n",
      "note_on channel=0 note=60 velocity=127 time=0.020833333333333332\n",
      "note_off channel=0 note=60 velocity=127 time=0.019791666666666666\n",
      "note_on channel=0 note=62 velocity=127 time=0.041666666666666664\n",
      "note_off channel=0 note=62 velocity=127 time=0.019791666666666666\n",
      "note_on channel=0 note=61 velocity=127 time=0.016666666666666666\n",
      "note_off channel=0 note=61 velocity=127 time=0.019791666666666666\n",
      "note_on channel=0 note=62 velocity=127 time=0.04583333333333333\n",
      "note_off channel=0 note=62 velocity=127 time=0.019791666666666666\n",
      "note_on channel=0 note=60 velocity=127 time=0.034375\n",
      "note_off channel=0 note=60 velocity=127 time=0.019791666666666666\n",
      "note_on channel=0 note=61 velocity=127 time=0.011458333333333333\n",
      "note_on channel=0 note=62 velocity=127 time=0.016666666666666666\n",
      "note_off channel=0 note=61 velocity=127 time=0.003125\n",
      "note_off channel=0 note=62 velocity=127 time=0.016666666666666666\n",
      "note_on channel=0 note=62 velocity=127 time=0.08333333333333333\n",
      "note_off channel=0 note=62 velocity=127 time=0.019791666666666666\n",
      "note_on channel=0 note=61 velocity=127 time=0.0125\n",
      "note_off channel=0 note=61 velocity=127 time=0.019791666666666666\n",
      "note_on channel=0 note=60 velocity=127 time=0.015625\n",
      "note_off channel=0 note=60 velocity=127 time=0.019791666666666666\n",
      "note_on channel=0 note=62 velocity=127 time=0.014583333333333334\n",
      "note_off channel=0 note=62 velocity=127 time=0.019791666666666666\n",
      "note_on channel=0 note=61 velocity=127 time=0.0625\n",
      "note_off channel=0 note=61 velocity=127 time=0.019791666666666666\n",
      "note_on channel=0 note=62 velocity=127 time=0\n",
      "note_off channel=0 note=62 velocity=127 time=0.019791666666666666\n",
      "note_on channel=0 note=60 velocity=127 time=0.0625\n",
      "note_off channel=0 note=60 velocity=127 time=0.019791666666666666\n",
      "note_on channel=0 note=62 velocity=127 time=0.0010416666666666667\n",
      "note_off channel=0 note=62 velocity=127 time=0.019791666666666666\n",
      "note_on channel=0 note=61 velocity=127 time=0.009375\n",
      "note_off channel=0 note=61 velocity=127 time=0.019791666666666666\n",
      "note_on channel=0 note=62 velocity=127 time=0.05416666666666667\n",
      "note_off channel=0 note=62 velocity=127 time=0.019791666666666666\n",
      "note_on channel=0 note=61 velocity=127 time=0.058333333333333334\n",
      "note_on channel=0 note=60 velocity=127 time=0.017708333333333333\n",
      "note_off channel=0 note=61 velocity=127 time=0.0020833333333333333\n",
      "note_on channel=0 note=62 velocity=127 time=0.004166666666666667\n",
      "note_off channel=0 note=60 velocity=127 time=0.013541666666666667\n",
      "note_off channel=0 note=62 velocity=127 time=0.00625\n",
      "note_on channel=0 note=62 velocity=127 time=0.08333333333333333\n",
      "note_off channel=0 note=62 velocity=127 time=0.019791666666666666\n",
      "note_on channel=0 note=61 velocity=127 time=0.005208333333333333\n",
      "note_off channel=0 note=61 velocity=127 time=0.019791666666666666\n",
      "note_on channel=0 note=62 velocity=127 time=0.057291666666666664\n",
      "note_on channel=0 note=60 velocity=127 time=0.007291666666666667\n",
      "note_off channel=0 note=62 velocity=127 time=0.0125\n",
      "note_off channel=0 note=60 velocity=127 time=0.007291666666666667\n",
      "\u001b[91m [DEBUG] > \u001b[0m\n",
      " |>  to_array: msg.time > max_t; t, n\n",
      " |>  1.99375\n",
      " |>  100\n",
      "note_on channel=0 note=61 velocity=127 time=0.021875\n",
      "note_off channel=0 note=61 velocity=127 time=0.019791666666666666\n",
      "note_on channel=0 note=60 velocity=127 time=0.01875\n",
      "note_on channel=0 note=62 velocity=127 time=0.00625\n",
      "note_off channel=0 note=60 velocity=127 time=0.013541666666666667\n",
      "note_off channel=0 note=62 velocity=127 time=0.00625\n",
      "note_on channel=0 note=61 velocity=127 time=0.007291666666666667\n",
      "note_off channel=0 note=61 velocity=127 time=0.019791666666666666\n",
      "note_on channel=0 note=61 velocity=127 time=0.052083333333333336\n",
      "note_off channel=0 note=61 velocity=127 time=0.019791666666666666\n",
      "note_on channel=0 note=60 velocity=127 time=0.005208333333333333\n",
      "note_off channel=0 note=60 velocity=127 time=0.019791666666666666\n",
      "note_on channel=0 note=62 velocity=127 time=0.027083333333333334\n",
      "note_on channel=0 note=61 velocity=127 time=0.0010416666666666667\n",
      "note_off channel=0 note=62 velocity=127 time=0.019791666666666666\n",
      "note_off channel=0 note=61 velocity=127 time=0.0010416666666666667\n",
      "note_on channel=0 note=61 velocity=127 time=0.052083333333333336\n",
      "note_on channel=0 note=60 velocity=127 time=0.010416666666666666\n",
      "note_off channel=0 note=61 velocity=127 time=0.009375\n",
      "note_off channel=0 note=60 velocity=127 time=0.010416666666666666\n",
      "note_on channel=0 note=61 velocity=127 time=0.041666666666666664\n",
      "note_off channel=0 note=61 velocity=127 time=0.019791666666666666\n",
      "note_on channel=0 note=62 velocity=127 time=0.00625\n",
      "note_off channel=0 note=62 velocity=127 time=0.019791666666666666\n",
      "note_on channel=0 note=60 velocity=127 time=0.022916666666666665\n",
      "note_on channel=0 note=61 velocity=127 time=0.003125\n",
      "note_off channel=0 note=60 velocity=127 time=0.016666666666666666\n",
      "note_off channel=0 note=61 velocity=127 time=0.003125\n",
      "note_on channel=0 note=61 velocity=127 time=0.052083333333333336\n",
      "note_off channel=0 note=61 velocity=127 time=0.019791666666666666\n",
      "note_on channel=0 note=62 velocity=127 time=0.03229166666666666\n",
      "note_on channel=0 note=60 velocity=127 time=0.0020833333333333333\n",
      "note_on channel=0 note=61 velocity=127 time=0.017708333333333333\n",
      "note_off channel=0 note=62 velocity=127 time=0\n",
      "note_off channel=0 note=60 velocity=127 time=0.0020833333333333333\n",
      "note_off channel=0 note=61 velocity=127 time=0.017708333333333333\n",
      "note_on channel=0 note=61 velocity=127 time=0.052083333333333336\n",
      "note_off channel=0 note=61 velocity=127 time=0.019791666666666666\n",
      "note_on channel=0 note=60 velocity=127 time=0.020833333333333332\n",
      "note_off channel=0 note=60 velocity=127 time=0.019791666666666666\n",
      "note_on channel=0 note=61 velocity=127 time=0.011458333333333333\n",
      "note_on channel=0 note=62 velocity=127 time=0.00625\n",
      "note_off channel=0 note=61 velocity=127 time=0.013541666666666667\n",
      "note_off channel=0 note=62 velocity=127 time=0.00625\n",
      "note_on channel=0 note=61 velocity=127 time=0.04583333333333333\n",
      "note_off channel=0 note=61 velocity=127 time=0.019791666666666666\n",
      "note_on channel=0 note=60 velocity=127 time=0.00625\n",
      "note_off channel=0 note=60 velocity=127 time=0.019791666666666666\n",
      "note_on channel=0 note=61 velocity=127 time=0.025\n",
      "note_off channel=0 note=61 velocity=127 time=0.019791666666666666\n",
      "note_on channel=0 note=62 velocity=127 time=0.0125\n",
      "note_off channel=0 note=62 velocity=127 time=0.019791666666666666\n",
      "note_on channel=0 note=61 velocity=127 time=0.019791666666666666\n",
      "note_on channel=0 note=60 velocity=127 time=0.0125\n",
      "note_off channel=0 note=61 velocity=127 time=0.007291666666666667\n",
      "note_off channel=0 note=60 velocity=127 time=0.0125\n",
      "note_on channel=0 note=61 velocity=127 time=0.03958333333333333\n",
      "note_off channel=0 note=61 velocity=127 time=0.019791666666666666\n",
      "note_on channel=0 note=62 velocity=127 time=0.03854166666666667\n",
      "note_on channel=0 note=60 velocity=127 time=0.011458333333333333\n",
      "note_on channel=0 note=61 velocity=127 time=0.0010416666666666667\n",
      "note_off channel=0 note=62 velocity=127 time=0.007291666666666667\n",
      "note_off channel=0 note=60 velocity=127 time=0.011458333333333333\n",
      "note_off channel=0 note=61 velocity=127 time=0.0010416666666666667\n",
      "note_on channel=0 note=61 velocity=127 time=0.052083333333333336\n",
      "note_off channel=0 note=61 velocity=127 time=0.019791666666666666\n",
      "note_on channel=0 note=60 velocity=127 time=0.036458333333333336\n",
      "note_on channel=0 note=61 velocity=127 time=0.015625\n",
      "note_off channel=0 note=60 velocity=127 time=0.004166666666666667\n",
      "note_on channel=0 note=62 velocity=127 time=0.008333333333333333\n",
      "note_off channel=0 note=61 velocity=127 time=0.00625\n",
      "note_off channel=0 note=62 velocity=127 time=0.013541666666666667\n",
      "note_on channel=0 note=61 velocity=127 time=0.03854166666666667\n",
      "note_off channel=0 note=61 velocity=127 time=0.019791666666666666\n",
      "note_on channel=0 note=60 velocity=127 time=0.021875\n",
      "note_off channel=0 note=60 velocity=127 time=0.019791666666666666\n",
      "note_on channel=0 note=61 velocity=127 time=0.009375\n",
      "note_off channel=0 note=61 velocity=127 time=0.019791666666666666\n",
      "note_on channel=0 note=62 velocity=127 time=0.019791666666666666\n",
      "note_off channel=0 note=62 velocity=127 time=0.019791666666666666\n",
      "note_on channel=0 note=61 velocity=127 time=0.0125\n",
      "note_off channel=0 note=61 velocity=127 time=0.019791666666666666\n",
      "note_on channel=0 note=60 velocity=127 time=0.008333333333333333\n",
      "note_off channel=0 note=60 velocity=127 time=0.019791666666666666\n",
      "note_on channel=0 note=61 velocity=127 time=0.02395833333333333\n",
      "note_off channel=0 note=61 velocity=127 time=0.019791666666666666\n",
      "note_on channel=0 note=62 velocity=127 time=0.04583333333333333\n",
      "note_on channel=0 note=61 velocity=127 time=0.00625\n",
      "note_off channel=0 note=62 velocity=127 time=0.013541666666666667\n",
      "note_on channel=0 note=60 velocity=127 time=0\n",
      "note_off channel=0 note=61 velocity=127 time=0.005208333333333333\n",
      "note_off channel=0 note=60 velocity=127 time=0.014583333333333334\n",
      "note_on channel=0 note=61 velocity=127 time=0.0375\n",
      "note_off channel=0 note=61 velocity=127 time=0.019791666666666666\n",
      "note_on channel=0 note=61 velocity=127 time=0.052083333333333336\n",
      "note_on channel=0 note=60 velocity=127 time=0\n",
      "note_off channel=0 note=61 velocity=127 time=0.019791666666666666\n",
      "note_on channel=0 note=62 velocity=127 time=0\n",
      "note_off channel=0 note=60 velocity=127 time=0\n",
      "note_off channel=0 note=62 velocity=127 time=0.019791666666666666\n",
      "note_on channel=0 note=61 velocity=127 time=0.03229166666666666\n",
      "note_off channel=0 note=61 velocity=127 time=0.019791666666666666\n",
      "note_on channel=0 note=60 velocity=127 time=0.03854166666666667\n",
      "note_on channel=0 note=61 velocity=127 time=0.013541666666666667\n",
      "note_off channel=0 note=60 velocity=127 time=0.00625\n",
      "note_off channel=0 note=61 velocity=127 time=0.013541666666666667\n",
      "note_on channel=0 note=62 velocity=127 time=0.026041666666666668\n",
      "note_off channel=0 note=62 velocity=127 time=0.019791666666666666\n",
      "note_on channel=0 note=61 velocity=127 time=0.005208333333333333\n",
      "note_off channel=0 note=61 velocity=127 time=0.019791666666666666\n",
      "note_on channel=0 note=60 velocity=127 time=0.02395833333333333\n",
      "\u001b[91m [DEBUG] > \u001b[0m\n",
      " |>  to_array: msg.time > max_t; t, n\n",
      " |>  2.0020833333333323\n",
      " |>  100\n",
      "note_on channel=0 note=60 velocity=127 time=0.03333333333333333\n",
      "note_off channel=0 note=60 velocity=127 time=0.019791666666666666\n",
      "note_on channel=0 note=61 velocity=127 time=0.015625\n",
      "note_off channel=0 note=61 velocity=127 time=0.019791666666666666\n",
      "note_on channel=0 note=60 velocity=127 time=0.021875\n",
      "note_off channel=0 note=60 velocity=127 time=0.019791666666666666\n",
      "note_on channel=0 note=61 velocity=127 time=0.053125\n",
      "note_on channel=0 note=60 velocity=127 time=0.004166666666666667\n",
      "note_off channel=0 note=61 velocity=127 time=0.015625\n",
      "note_off channel=0 note=60 velocity=127 time=0.004166666666666667\n",
      "note_on channel=0 note=60 velocity=127 time=0.057291666666666664\n",
      "note_on channel=0 note=62 velocity=127 time=0.00625\n",
      "note_off channel=0 note=60 velocity=127 time=0.013541666666666667\n",
      "note_off channel=0 note=62 velocity=127 time=0.00625\n",
      "note_on channel=0 note=61 velocity=127 time=0.00625\n",
      "note_off channel=0 note=61 velocity=127 time=0.019791666666666666\n",
      "note_on channel=0 note=60 velocity=127 time=0.025\n",
      "note_off channel=0 note=60 velocity=127 time=0.019791666666666666\n",
      "note_on channel=0 note=61 velocity=127 time=0.05\n",
      "note_on channel=0 note=60 velocity=127 time=0.008333333333333333\n",
      "note_off channel=0 note=61 velocity=127 time=0.0125\n",
      "note_off channel=0 note=60 velocity=127 time=0.008333333333333333\n",
      "note_on channel=0 note=60 velocity=127 time=0.057291666666666664\n",
      "note_off channel=0 note=60 velocity=127 time=0.019791666666666666\n",
      "note_on channel=0 note=61 velocity=127 time=0.009375\n",
      "note_off channel=0 note=61 velocity=127 time=0.019791666666666666\n",
      "note_on channel=0 note=62 velocity=127 time=0.017708333333333333\n",
      "note_on channel=0 note=60 velocity=127 time=0.011458333333333333\n",
      "note_off channel=0 note=62 velocity=127 time=0.009375\n",
      "note_off channel=0 note=60 velocity=127 time=0.011458333333333333\n",
      "note_on channel=0 note=61 velocity=127 time=0.046875\n",
      "note_on channel=0 note=60 velocity=127 time=0.011458333333333333\n",
      "note_off channel=0 note=61 velocity=127 time=0.008333333333333333\n",
      "note_off channel=0 note=60 velocity=127 time=0.011458333333333333\n",
      "note_on channel=0 note=60 velocity=127 time=0.057291666666666664\n",
      "note_off channel=0 note=60 velocity=127 time=0.019791666666666666\n",
      "note_on channel=0 note=61 velocity=127 time=0.00625\n",
      "note_off channel=0 note=61 velocity=127 time=0.019791666666666666\n",
      "note_on channel=0 note=60 velocity=127 time=0.03229166666666666\n",
      "note_off channel=0 note=60 velocity=127 time=0.019791666666666666\n",
      "note_on channel=0 note=62 velocity=127 time=0.029166666666666667\n",
      "note_on channel=0 note=61 velocity=127 time=0.013541666666666667\n",
      "note_off channel=0 note=62 velocity=127 time=0.00625\n",
      "note_on channel=0 note=60 velocity=127 time=0.008333333333333333\n",
      "note_off channel=0 note=61 velocity=127 time=0.005208333333333333\n",
      "note_off channel=0 note=60 velocity=127 time=0.014583333333333334\n",
      "note_on channel=0 note=60 velocity=127 time=0.057291666666666664\n",
      "note_off channel=0 note=60 velocity=127 time=0.019791666666666666\n",
      "note_on channel=0 note=61 velocity=127 time=0.0020833333333333333\n",
      "note_off channel=0 note=61 velocity=127 time=0.019791666666666666\n",
      "note_on channel=0 note=60 velocity=127 time=0.035416666666666666\n",
      "note_off channel=0 note=60 velocity=127 time=0.019791666666666666\n",
      "note_on channel=0 note=61 velocity=127 time=0.03958333333333333\n",
      "note_on channel=0 note=60 velocity=127 time=0.017708333333333333\n",
      "note_off channel=0 note=61 velocity=127 time=0.0020833333333333333\n",
      "note_off channel=0 note=60 velocity=127 time=0.017708333333333333\n",
      "note_on channel=0 note=62 velocity=127 time=0.0125\n",
      "note_off channel=0 note=62 velocity=127 time=0.019791666666666666\n",
      "note_on channel=0 note=60 velocity=127 time=0.026041666666666668\n",
      "note_on channel=0 note=61 velocity=127 time=0.01875\n",
      "note_off channel=0 note=60 velocity=127 time=0.0010416666666666667\n",
      "note_off channel=0 note=61 velocity=127 time=0.01875\n",
      "note_on channel=0 note=60 velocity=127 time=0.03854166666666667\n",
      "note_off channel=0 note=60 velocity=127 time=0.019791666666666666\n",
      "note_on channel=0 note=61 velocity=127 time=0.036458333333333336\n",
      "note_off channel=0 note=61 velocity=127 time=0.019791666666666666\n",
      "note_on channel=0 note=60 velocity=127 time=0.0010416666666666667\n"
     ]
    },
    {
     "name": "stdout",
     "output_type": "stream",
     "text": [
      "note_off channel=0 note=60 velocity=127 time=0.019791666666666666\n",
      "note_on channel=0 note=60 velocity=127 time=0.057291666666666664\n",
      "note_on channel=0 note=62 velocity=127 time=0.014583333333333334\n",
      "note_on channel=0 note=61 velocity=127 time=0.0010416666666666667\n",
      "note_off channel=0 note=60 velocity=127 time=0.004166666666666667\n",
      "note_off channel=0 note=62 velocity=127 time=0.014583333333333334\n",
      "note_off channel=0 note=61 velocity=127 time=0.0010416666666666667\n",
      "note_on channel=0 note=60 velocity=127 time=0.041666666666666664\n",
      "note_off channel=0 note=60 velocity=127 time=0.019791666666666666\n",
      "note_on channel=0 note=61 velocity=127 time=0.03333333333333333\n",
      "note_off channel=0 note=61 velocity=127 time=0.019791666666666666\n",
      "note_on channel=0 note=60 velocity=127 time=0.004166666666666667\n",
      "note_off channel=0 note=60 velocity=127 time=0.019791666666666666\n",
      "note_on channel=0 note=60 velocity=127 time=0.057291666666666664\n",
      "note_on channel=0 note=61 velocity=127 time=0.0125\n",
      "note_off channel=0 note=60 velocity=127 time=0.007291666666666667\n",
      "note_off channel=0 note=61 velocity=127 time=0.0125\n",
      "note_on channel=0 note=62 velocity=127 time=0.042708333333333334\n",
      "note_on channel=0 note=60 velocity=127 time=0.003125\n",
      "note_off channel=0 note=62 velocity=127 time=0.017708333333333333\n",
      "note_off channel=0 note=60 velocity=127 time=0.003125\n",
      "note_on channel=0 note=61 velocity=127 time=0.030208333333333334\n",
      "note_off channel=0 note=61 velocity=127 time=0.019791666666666666\n",
      "note_on channel=0 note=60 velocity=127 time=0.008333333333333333\n",
      "note_off channel=0 note=60 velocity=127 time=0.019791666666666666\n",
      "note_on channel=0 note=60 velocity=127 time=0.057291666666666664\n",
      "note_on channel=0 note=61 velocity=127 time=0.009375\n",
      "note_off channel=0 note=60 velocity=127 time=0.010416666666666666\n",
      "note_off channel=0 note=61 velocity=127 time=0.009375\n",
      "note_on channel=0 note=60 velocity=127 time=0.04895833333333333\n",
      "note_off channel=0 note=60 velocity=127 time=0.019791666666666666\n",
      "\u001b[91m [DEBUG] > \u001b[0m\n",
      " |>  to_array: msg.time > max_t; t, n\n",
      " |>  1.9916666666666671\n",
      " |>  100\n",
      "note_on channel=0 note=60 velocity=127 time=0.03854166666666667\n",
      "note_off channel=0 note=60 velocity=127 time=0.019791666666666666\n",
      "note_on channel=0 note=62 velocity=127 time=0.029166666666666667\n",
      "note_off channel=0 note=62 velocity=127 time=0.019791666666666666\n",
      "note_on channel=0 note=60 velocity=127 time=0.005208333333333333\n",
      "note_off channel=0 note=60 velocity=127 time=0.019791666666666666\n",
      "note_on channel=0 note=61 velocity=127 time=0.007291666666666667\n",
      "note_off channel=0 note=61 velocity=127 time=0.019791666666666666\n",
      "note_on channel=0 note=62 velocity=127 time=0.025\n",
      "note_on channel=0 note=60 velocity=127 time=0.003125\n",
      "note_off channel=0 note=62 velocity=127 time=0.017708333333333333\n",
      "note_off channel=0 note=60 velocity=127 time=0.003125\n",
      "note_on channel=0 note=60 velocity=127 time=0.05416666666666667\n",
      "note_on channel=0 note=62 velocity=127 time=0.019791666666666666\n",
      "note_off channel=0 note=60 velocity=127 time=0\n",
      "note_off channel=0 note=62 velocity=127 time=0.019791666666666666\n",
      "note_on channel=0 note=60 velocity=127 time=0.034375\n",
      "note_off channel=0 note=60 velocity=127 time=0.019791666666666666\n",
      "note_on channel=0 note=62 velocity=127 time=0.022916666666666665\n",
      "note_on channel=0 note=61 velocity=127 time=0.014583333333333334\n",
      "note_off channel=0 note=62 velocity=127 time=0.00625\n",
      "note_on channel=0 note=60 velocity=127 time=0.011458333333333333\n",
      "note_off channel=0 note=61 velocity=127 time=0.0020833333333333333\n",
      "note_off channel=0 note=60 velocity=127 time=0.017708333333333333\n",
      "note_on channel=0 note=62 velocity=127 time=0.04479166666666667\n",
      "note_on channel=0 note=60 velocity=127 time=0.009375\n",
      "note_off channel=0 note=62 velocity=127 time=0.010416666666666666\n",
      "note_off channel=0 note=60 velocity=127 time=0.009375\n",
      "note_on channel=0 note=60 velocity=127 time=0.05416666666666667\n",
      "note_on channel=0 note=62 velocity=127 time=0.013541666666666667\n",
      "note_off channel=0 note=60 velocity=127 time=0.00625\n",
      "note_off channel=0 note=62 velocity=127 time=0.013541666666666667\n",
      "note_on channel=0 note=60 velocity=127 time=0.040625\n",
      "note_on channel=0 note=61 velocity=127 time=0.0125\n",
      "note_off channel=0 note=60 velocity=127 time=0.007291666666666667\n",
      "note_off channel=0 note=61 velocity=127 time=0.0125\n",
      "note_on channel=0 note=62 velocity=127 time=0.003125\n",
      "note_off channel=0 note=62 velocity=127 time=0.019791666666666666\n",
      "note_on channel=0 note=60 velocity=127 time=0.017708333333333333\n",
      "note_off channel=0 note=60 velocity=127 time=0.019791666666666666\n",
      "note_on channel=0 note=62 velocity=127 time=0.03854166666666667\n",
      "note_on channel=0 note=60 velocity=127 time=0.015625\n",
      "note_off channel=0 note=62 velocity=127 time=0.004166666666666667\n",
      "note_off channel=0 note=60 velocity=127 time=0.015625\n",
      "note_on channel=0 note=60 velocity=127 time=0.05416666666666667\n",
      "note_on channel=0 note=62 velocity=127 time=0.007291666666666667\n",
      "note_off channel=0 note=60 velocity=127 time=0.013541666666666667\n",
      "note_off channel=0 note=62 velocity=127 time=0.007291666666666667\n",
      "note_on channel=0 note=61 velocity=127 time=0.015625\n",
      "note_off channel=0 note=61 velocity=127 time=0.019791666666666666\n",
      "note_on channel=0 note=60 velocity=127 time=0.011458333333333333\n",
      "note_off channel=0 note=60 velocity=127 time=0.019791666666666666\n",
      "note_on channel=0 note=62 velocity=127 time=0.009375\n",
      "note_off channel=0 note=62 velocity=127 time=0.019791666666666666\n",
      "note_on channel=0 note=60 velocity=127 time=0.025\n",
      "note_off channel=0 note=60 velocity=127 time=0.019791666666666666\n",
      "note_on channel=0 note=62 velocity=127 time=0.03229166666666666\n",
      "note_off channel=0 note=62 velocity=127 time=0.019791666666666666\n",
      "note_on channel=0 note=60 velocity=127 time=0.0020833333333333333\n",
      "note_off channel=0 note=60 velocity=127 time=0.019791666666666666\n",
      "note_on channel=0 note=61 velocity=127 time=0.052083333333333336\n",
      "note_on channel=0 note=60 velocity=127 time=0.0020833333333333333\n",
      "note_on channel=0 note=62 velocity=127 time=0\n",
      "note_off channel=0 note=61 velocity=127 time=0.017708333333333333\n",
      "note_off channel=0 note=60 velocity=127 time=0.0020833333333333333\n",
      "note_off channel=0 note=62 velocity=127 time=0\n",
      "note_on channel=0 note=60 velocity=127 time=0.05416666666666667\n",
      "note_off channel=0 note=60 velocity=127 time=0.019791666666666666\n",
      "note_on channel=0 note=62 velocity=127 time=0.003125\n",
      "note_off channel=0 note=62 velocity=127 time=0.019791666666666666\n",
      "note_on channel=0 note=60 velocity=127 time=0.03125\n",
      "note_off channel=0 note=60 velocity=127 time=0.019791666666666666\n",
      "note_on channel=0 note=62 velocity=127 time=0.026041666666666668\n",
      "note_off channel=0 note=62 velocity=127 time=0.019791666666666666\n",
      "note_on channel=0 note=60 velocity=127 time=0.008333333333333333\n",
      "note_off channel=0 note=60 velocity=127 time=0.019791666666666666\n",
      "note_on channel=0 note=61 velocity=127 time=0.007291666666666667\n",
      "note_off channel=0 note=61 velocity=127 time=0.019791666666666666\n",
      "note_on channel=0 note=62 velocity=127 time=0.020833333333333332\n",
      "note_on channel=0 note=60 velocity=127 time=0.00625\n",
      "note_off channel=0 note=62 velocity=127 time=0.013541666666666667\n",
      "note_off channel=0 note=60 velocity=127 time=0.00625\n",
      "note_on channel=0 note=60 velocity=127 time=0.05416666666666667\n",
      "note_on channel=0 note=62 velocity=127 time=0.016666666666666666\n",
      "note_off channel=0 note=60 velocity=127 time=0.003125\n",
      "note_off channel=0 note=62 velocity=127 time=0.016666666666666666\n",
      "note_on channel=0 note=60 velocity=127 time=0.0375\n",
      "note_off channel=0 note=60 velocity=127 time=0.019791666666666666\n",
      "note_on channel=0 note=62 velocity=127 time=0.01875\n",
      "note_on channel=0 note=61 velocity=127 time=0.01875\n",
      "note_off channel=0 note=62 velocity=127 time=0.0020833333333333333\n",
      "note_on channel=0 note=60 velocity=127 time=0.014583333333333334\n",
      "note_off channel=0 note=61 velocity=127 time=0.003125\n",
      "note_off channel=0 note=60 velocity=127 time=0.016666666666666666\n",
      "note_on channel=0 note=62 velocity=127 time=0.041666666666666664\n",
      "note_on channel=0 note=60 velocity=127 time=0.0125\n",
      "note_off channel=0 note=62 velocity=127 time=0.007291666666666667\n",
      "note_off channel=0 note=60 velocity=127 time=0.0125\n",
      "note_on channel=0 note=60 velocity=127 time=0.05416666666666667\n",
      "note_on channel=0 note=62 velocity=127 time=0.010416666666666666\n",
      "note_off channel=0 note=60 velocity=127 time=0.010416666666666666\n",
      "note_off channel=0 note=62 velocity=127 time=0.010416666666666666\n",
      "note_on channel=0 note=60 velocity=127 time=0.04375\n",
      "note_on channel=0 note=61 velocity=127 time=0.013541666666666667\n",
      "note_off channel=0 note=60 velocity=127 time=0.007291666666666667\n",
      "note_on channel=0 note=62 velocity=127 time=0.0125\n",
      "note_off channel=0 note=61 velocity=127 time=0.0010416666666666667\n",
      "note_off channel=0 note=62 velocity=127 time=0.019791666666666666\n",
      "note_on channel=0 note=60 velocity=127 time=0.021875\n",
      "note_off channel=0 note=60 velocity=127 time=0.019791666666666666\n",
      "note_on channel=0 note=62 velocity=127 time=0.035416666666666666\n",
      "\u001b[91m [DEBUG] > \u001b[0m\n",
      " |>  to_array: msg.time > max_t; t, n\n",
      " |>  2.0229166666666676\n",
      " |>  100\n",
      "note_on channel=0 note=62 velocity=127 time=0.026041666666666668\n",
      "note_on channel=0 note=60 velocity=127 time=0.013541666666666667\n",
      "note_off channel=0 note=62 velocity=127 time=0.007291666666666667\n",
      "note_off channel=0 note=60 velocity=127 time=0.013541666666666667\n",
      "note_on channel=0 note=61 velocity=127 time=0.0625\n",
      "note_on channel=0 note=62 velocity=127 time=0.003125\n",
      "note_on channel=0 note=60 velocity=127 time=0.011458333333333333\n",
      "note_off channel=0 note=61 velocity=127 time=0.005208333333333333\n",
      "note_off channel=0 note=62 velocity=127 time=0.003125\n",
      "note_off channel=0 note=60 velocity=127 time=0.011458333333333333\n",
      "note_on channel=0 note=62 velocity=127 time=0.06875\n",
      "note_on channel=0 note=60 velocity=127 time=0.009375\n",
      "note_off channel=0 note=62 velocity=127 time=0.011458333333333333\n",
      "note_off channel=0 note=60 velocity=127 time=0.009375\n",
      "note_on channel=0 note=61 velocity=127 time=0.013541666666666667\n",
      "note_off channel=0 note=61 velocity=127 time=0.019791666666666666\n",
      "note_on channel=0 note=62 velocity=127 time=0.036458333333333336\n",
      "note_on channel=0 note=60 velocity=127 time=0.007291666666666667\n",
      "note_off channel=0 note=62 velocity=127 time=0.013541666666666667\n",
      "note_off channel=0 note=60 velocity=127 time=0.007291666666666667\n",
      "note_on channel=0 note=61 velocity=127 time=0.0625\n",
      "note_on channel=0 note=62 velocity=127 time=0.010416666666666666\n",
      "note_on channel=0 note=60 velocity=127 time=0.005208333333333333\n",
      "note_off channel=0 note=61 velocity=127 time=0.005208333333333333\n",
      "note_off channel=0 note=62 velocity=127 time=0.010416666666666666\n",
      "note_off channel=0 note=60 velocity=127 time=0.005208333333333333\n",
      "note_on channel=0 note=62 velocity=127 time=0.075\n",
      "note_on channel=0 note=60 velocity=127 time=0.003125\n",
      "note_off channel=0 note=62 velocity=127 time=0.017708333333333333\n",
      "note_off channel=0 note=60 velocity=127 time=0.003125\n",
      "note_on channel=0 note=61 velocity=127 time=0.013541666666666667\n",
      "note_off channel=0 note=61 velocity=127 time=0.019791666666666666\n",
      "note_on channel=0 note=62 velocity=127 time=0.04375\n",
      "note_on channel=0 note=60 velocity=127 time=0.0010416666666666667\n",
      "note_off channel=0 note=62 velocity=127 time=0.019791666666666666\n",
      "note_off channel=0 note=60 velocity=127 time=0.0010416666666666667\n",
      "note_on channel=0 note=61 velocity=127 time=0.06145833333333333\n",
      "note_on channel=0 note=60 velocity=127 time=0.015625\n",
      "note_on channel=0 note=62 velocity=127 time=0.0010416666666666667\n",
      "note_off channel=0 note=61 velocity=127 time=0.003125\n",
      "note_off channel=0 note=60 velocity=127 time=0.015625\n",
      "note_off channel=0 note=62 velocity=127 time=0.0010416666666666667\n",
      "note_on channel=0 note=60 velocity=127 time=0.07604166666666666\n",
      "note_on channel=0 note=62 velocity=127 time=0.003125\n",
      "note_off channel=0 note=60 velocity=127 time=0.016666666666666666\n",
      "note_off channel=0 note=62 velocity=127 time=0.003125\n",
      "note_on channel=0 note=61 velocity=127 time=0.009375\n",
      "note_off channel=0 note=61 velocity=127 time=0.019791666666666666\n",
      "note_on channel=0 note=60 velocity=127 time=0.04479166666666667\n",
      "note_on channel=0 note=62 velocity=127 time=0.005208333333333333\n",
      "note_off channel=0 note=60 velocity=127 time=0.014583333333333334\n",
      "note_off channel=0 note=62 velocity=127 time=0.005208333333333333\n",
      "note_on channel=0 note=61 velocity=127 time=0.05520833333333333\n",
      "note_on channel=0 note=60 velocity=127 time=0.016666666666666666\n",
      "note_off channel=0 note=61 velocity=127 time=0.004166666666666667\n",
      "note_on channel=0 note=62 velocity=127 time=0.004166666666666667\n",
      "note_off channel=0 note=60 velocity=127 time=0.0125\n",
      "note_off channel=0 note=62 velocity=127 time=0.007291666666666667\n",
      "note_on channel=0 note=60 velocity=127 time=0.06979166666666667\n",
      "note_on channel=0 note=62 velocity=127 time=0.009375\n",
      "note_off channel=0 note=60 velocity=127 time=0.010416666666666666\n",
      "note_off channel=0 note=62 velocity=127 time=0.009375\n",
      "note_on channel=0 note=61 velocity=127 time=0.0020833333333333333\n",
      "note_off channel=0 note=61 velocity=127 time=0.019791666666666666\n",
      "note_on channel=0 note=60 velocity=127 time=0.04479166666666667\n",
      "note_on channel=0 note=62 velocity=127 time=0.011458333333333333\n",
      "note_off channel=0 note=60 velocity=127 time=0.008333333333333333\n",
      "note_off channel=0 note=62 velocity=127 time=0.011458333333333333\n",
      "note_on channel=0 note=61 velocity=127 time=0.04895833333333333\n",
      "note_on channel=0 note=60 velocity=127 time=0.016666666666666666\n",
      "note_off channel=0 note=61 velocity=127 time=0.003125\n",
      "note_on channel=0 note=62 velocity=127 time=0.010416666666666666\n",
      "note_off channel=0 note=60 velocity=127 time=0.00625\n",
      "note_off channel=0 note=62 velocity=127 time=0.013541666666666667\n",
      "note_on channel=0 note=60 velocity=127 time=0.06354166666666666\n",
      "note_on channel=0 note=62 velocity=127 time=0.015625\n",
      "note_off channel=0 note=60 velocity=127 time=0.004166666666666667\n",
      "note_on channel=0 note=61 velocity=127 time=0.011458333333333333\n",
      "note_off channel=0 note=62 velocity=127 time=0.004166666666666667\n",
      "note_off channel=0 note=61 velocity=127 time=0.015625\n",
      "note_on channel=0 note=60 velocity=127 time=0.04583333333333333\n",
      "note_on channel=0 note=62 velocity=127 time=0.017708333333333333\n",
      "note_off channel=0 note=60 velocity=127 time=0.0020833333333333333\n",
      "note_off channel=0 note=62 velocity=127 time=0.017708333333333333\n",
      "note_on channel=0 note=61 velocity=127 time=0.041666666666666664\n",
      "note_on channel=0 note=60 velocity=127 time=0.017708333333333333\n",
      "note_off channel=0 note=61 velocity=127 time=0.003125\n",
      "note_off channel=0 note=60 velocity=127 time=0.017708333333333333\n",
      "note_on channel=0 note=62 velocity=127 time=0\n",
      "note_off channel=0 note=62 velocity=127 time=0.019791666666666666\n",
      "note_on channel=0 note=60 velocity=127 time=0.057291666666666664\n",
      "note_off channel=0 note=60 velocity=127 time=0.019791666666666666\n",
      "note_on channel=0 note=62 velocity=127 time=0.0020833333333333333\n",
      "note_on channel=0 note=61 velocity=127 time=0.008333333333333333\n",
      "note_off channel=0 note=62 velocity=127 time=0.011458333333333333\n",
      "note_off channel=0 note=61 velocity=127 time=0.008333333333333333\n",
      "note_on channel=0 note=60 velocity=127 time=0.04583333333333333\n",
      "note_off channel=0 note=60 velocity=127 time=0.019791666666666666\n",
      "note_on channel=0 note=62 velocity=127 time=0.004166666666666667\n",
      "note_off channel=0 note=62 velocity=127 time=0.019791666666666666\n",
      "note_on channel=0 note=61 velocity=127 time=0.034375\n",
      "note_on channel=0 note=60 velocity=127 time=0.017708333333333333\n",
      "note_off channel=0 note=61 velocity=127 time=0.0020833333333333333\n",
      "note_off channel=0 note=60 velocity=127 time=0.017708333333333333\n",
      "note_on channel=0 note=62 velocity=127 time=0.00625\n",
      "note_off channel=0 note=62 velocity=127 time=0.019791666666666666\n",
      "note_on channel=0 note=60 velocity=127 time=0.051041666666666666\n",
      "note_off channel=0 note=60 velocity=127 time=0.019791666666666666\n",
      "\u001b[91m [DEBUG] > \u001b[0m\n",
      " |>  to_array: msg.time > max_t; t, n\n",
      " |>  2.0062500000000014\n",
      " |>  100\n",
      "note_on channel=0 note=62 velocity=127 time=0.019791666666666666\n",
      "note_off channel=0 note=62 velocity=127 time=0.019791666666666666\n",
      "note_on channel=0 note=61 velocity=127 time=0.04791666666666666\n",
      "note_off channel=0 note=61 velocity=127 time=0.019791666666666666\n",
      "note_on channel=0 note=62 velocity=127 time=0.003125\n",
      "note_off channel=0 note=62 velocity=127 time=0.019791666666666666\n",
      "note_on channel=0 note=60 velocity=127 time=0.04895833333333333\n",
      "note_off channel=0 note=60 velocity=127 time=0.019791666666666666\n",
      "note_on channel=0 note=62 velocity=127 time=0.0010416666666666667\n",
      "note_off channel=0 note=62 velocity=127 time=0.019791666666666666\n",
      "note_on channel=0 note=61 velocity=127 time=0.008333333333333333\n",
      "note_off channel=0 note=61 velocity=127 time=0.019791666666666666\n",
      "note_on channel=0 note=62 velocity=127 time=0.042708333333333334\n",
      "note_off channel=0 note=62 velocity=127 time=0.019791666666666666\n",
      "note_on channel=0 note=61 velocity=127 time=0.059375\n",
      "note_on channel=0 note=62 velocity=127 time=0.011458333333333333\n",
      "note_on channel=0 note=60 velocity=127 time=0.004166666666666667\n",
      "note_off channel=0 note=61 velocity=127 time=0.005208333333333333\n",
      "note_off channel=0 note=62 velocity=127 time=0.011458333333333333\n",
      "note_off channel=0 note=60 velocity=127 time=0.004166666666666667\n",
      "note_on channel=0 note=62 velocity=127 time=0.06666666666666667\n",
      "note_off channel=0 note=62 velocity=127 time=0.019791666666666666\n",
      "note_on channel=0 note=61 velocity=127 time=0.019791666666666666\n",
      "note_off channel=0 note=61 velocity=127 time=0.019791666666666666\n",
      "note_on channel=0 note=62 velocity=127 time=0.03125\n",
      "note_off channel=0 note=62 velocity=127 time=0.019791666666666666\n",
      "note_on channel=0 note=60 velocity=127 time=0.009375\n",
      "note_off channel=0 note=60 velocity=127 time=0.019791666666666666\n",
      "note_on channel=0 note=61 velocity=127 time=0.041666666666666664\n",
      "note_on channel=0 note=62 velocity=127 time=0\n",
      "note_off channel=0 note=61 velocity=127 time=0.019791666666666666\n",
      "note_off channel=0 note=62 velocity=127 time=0\n",
      "note_on channel=0 note=62 velocity=127 time=0.07083333333333333\n",
      "note_off channel=0 note=62 velocity=127 time=0.019791666666666666\n",
      "note_on channel=0 note=61 velocity=127 time=0.030208333333333334\n",
      "note_on channel=0 note=60 velocity=127 time=0.003125\n",
      "note_off channel=0 note=61 velocity=127 time=0.016666666666666666\n",
      "note_off channel=0 note=60 velocity=127 time=0.003125\n",
      "note_on channel=0 note=62 velocity=127 time=0.016666666666666666\n",
      "note_off channel=0 note=62 velocity=127 time=0.019791666666666666\n",
      "note_on channel=0 note=62 velocity=127 time=0.07083333333333333\n",
      "note_on channel=0 note=61 velocity=127 time=0.010416666666666666\n",
      "note_off channel=0 note=62 velocity=127 time=0.009375\n",
      "note_off channel=0 note=61 velocity=127 time=0.010416666666666666\n",
      "note_on channel=0 note=60 velocity=127 time=0.04791666666666666\n",
      "note_on channel=0 note=62 velocity=127 time=0.011458333333333333\n",
      "note_off channel=0 note=60 velocity=127 time=0.008333333333333333\n",
      "note_off channel=0 note=62 velocity=127 time=0.011458333333333333\n",
      "note_on channel=0 note=61 velocity=127 time=0.041666666666666664\n",
      "note_off channel=0 note=61 velocity=127 time=0.019791666666666666\n",
      "note_on channel=0 note=62 velocity=127 time=0.009375\n",
      "note_off channel=0 note=62 velocity=127 time=0.019791666666666666\n",
      "note_on channel=0 note=62 velocity=127 time=0.07083333333333333\n",
      "note_on channel=0 note=60 velocity=127 time=0.013541666666666667\n",
      "note_off channel=0 note=62 velocity=127 time=0.00625\n",
      "note_on channel=0 note=61 velocity=127 time=0.0020833333333333333\n",
      "note_off channel=0 note=60 velocity=127 time=0.011458333333333333\n",
      "note_off channel=0 note=61 velocity=127 time=0.008333333333333333\n",
      "note_on channel=0 note=62 velocity=127 time=0.04895833333333333\n",
      "note_off channel=0 note=62 velocity=127 time=0.019791666666666666\n",
      "note_on channel=0 note=61 velocity=127 time=0.053125\n",
      "note_on channel=0 note=62 velocity=127 time=0.017708333333333333\n",
      "note_off channel=0 note=61 velocity=127 time=0.0020833333333333333\n",
      "note_off channel=0 note=62 velocity=127 time=0.017708333333333333\n",
      "note_on channel=0 note=60 velocity=127 time=0.01875\n",
      "note_off channel=0 note=60 velocity=127 time=0.019791666666666666\n",
      "note_on channel=0 note=62 velocity=127 time=0.03229166666666666\n",
      "note_off channel=0 note=62 velocity=127 time=0.019791666666666666\n",
      "note_on channel=0 note=61 velocity=127 time=0.013541666666666667\n",
      "note_off channel=0 note=61 velocity=127 time=0.019791666666666666\n",
      "note_on channel=0 note=62 velocity=127 time=0.0375\n",
      "note_off channel=0 note=62 velocity=127 time=0.019791666666666666\n",
      "note_on channel=0 note=60 velocity=127 time=0.04375\n",
      "note_off channel=0 note=60 velocity=127 time=0.019791666666666666\n",
      "note_on channel=0 note=61 velocity=127 time=0\n",
      "note_on channel=0 note=62 velocity=127 time=0.00625\n",
      "note_off channel=0 note=61 velocity=127 time=0.013541666666666667\n",
      "note_off channel=0 note=62 velocity=127 time=0.00625\n",
      "note_on channel=0 note=62 velocity=127 time=0.07083333333333333\n",
      "note_off channel=0 note=62 velocity=127 time=0.019791666666666666\n",
      "note_on channel=0 note=61 velocity=127 time=0.02395833333333333\n",
      "note_off channel=0 note=61 velocity=127 time=0.019791666666666666\n",
      "note_on channel=0 note=60 velocity=127 time=0.025\n",
      "note_on channel=0 note=62 velocity=127 time=0.0020833333333333333\n",
      "note_off channel=0 note=60 velocity=127 time=0.01875\n",
      "note_off channel=0 note=62 velocity=127 time=0.0020833333333333333\n",
      "note_on channel=0 note=62 velocity=127 time=0.07083333333333333\n",
      "note_on channel=0 note=61 velocity=127 time=0.004166666666666667\n",
      "note_off channel=0 note=62 velocity=127 time=0.015625\n",
      "note_off channel=0 note=61 velocity=127 time=0.004166666666666667\n",
      "note_on channel=0 note=62 velocity=127 time=0.06666666666666667\n",
      "\u001b[91m [DEBUG] > \u001b[0m\n",
      " |>  to_array: msg.time > max_t; t, n\n",
      " |>  2.0114583333333336\n",
      " |>  100\n",
      "note_on channel=0 note=61 velocity=127 time=0.020833333333333332\n",
      "note_off channel=0 note=61 velocity=127 time=0.019791666666666666\n",
      "note_on channel=0 note=62 velocity=127 time=0.014583333333333334\n",
      "note_off channel=0 note=62 velocity=127 time=0.019791666666666666\n",
      "note_on channel=0 note=60 velocity=127 time=0.003125\n",
      "note_off channel=0 note=60 velocity=127 time=0.019791666666666666\n",
      "note_on channel=0 note=62 velocity=127 time=0.03333333333333333\n",
      "note_on channel=0 note=61 velocity=127 time=0.014583333333333334\n",
      "note_off channel=0 note=62 velocity=127 time=0.005208333333333333\n",
      "note_off channel=0 note=61 velocity=127 time=0.014583333333333334\n",
      "note_on channel=0 note=60 velocity=127 time=0.01875\n",
      "note_off channel=0 note=60 velocity=127 time=0.019791666666666666\n",
      "note_on channel=0 note=62 velocity=127 time=0.003125\n",
      "note_off channel=0 note=62 velocity=127 time=0.019791666666666666\n",
      "note_on channel=0 note=61 velocity=127 time=0.04375\n",
      "note_on channel=0 note=62 velocity=127 time=0.013541666666666667\n",
      "note_on channel=0 note=60 velocity=127 time=0.00625\n",
      "note_off channel=0 note=61 velocity=127 time=0\n",
      "note_off channel=0 note=62 velocity=127 time=0.013541666666666667\n",
      "note_off channel=0 note=60 velocity=127 time=0.00625\n",
      "note_on channel=0 note=62 velocity=127 time=0.05\n",
      "note_off channel=0 note=62 velocity=127 time=0.019791666666666666\n",
      "note_on channel=0 note=61 velocity=127 time=0.015625\n",
      "note_on channel=0 note=60 velocity=127 time=0.0010416666666666667\n",
      "note_off channel=0 note=61 velocity=127 time=0.01875\n",
      "note_off channel=0 note=60 velocity=127 time=0.0010416666666666667\n",
      "note_on channel=0 note=62 velocity=127 time=0.019791666666666666\n",
      "note_off channel=0 note=62 velocity=127 time=0.019791666666666666\n",
      "note_on channel=0 note=60 velocity=127 time=0.046875\n",
      "note_on channel=0 note=62 velocity=127 time=0.010416666666666666\n",
      "note_on channel=0 note=61 velocity=127 time=0.007291666666666667\n",
      "note_off channel=0 note=60 velocity=127 time=0.0020833333333333333\n",
      "note_off channel=0 note=62 velocity=127 time=0.010416666666666666\n",
      "note_off channel=0 note=61 velocity=127 time=0.007291666666666667\n",
      "note_on channel=0 note=62 velocity=127 time=0.04895833333333333\n",
      "note_on channel=0 note=60 velocity=127 time=0.019791666666666666\n",
      "note_off channel=0 note=62 velocity=127 time=0\n",
      "note_off channel=0 note=60 velocity=127 time=0.019791666666666666\n",
      "note_on channel=0 note=61 velocity=127 time=0.016666666666666666\n",
      "note_off channel=0 note=61 velocity=127 time=0.019791666666666666\n",
      "note_on channel=0 note=62 velocity=127 time=0.0010416666666666667\n",
      "note_off channel=0 note=62 velocity=127 time=0.019791666666666666\n",
      "note_on channel=0 note=60 velocity=127 time=0.030208333333333334\n",
      "note_off channel=0 note=60 velocity=127 time=0.019791666666666666\n",
      "note_on channel=0 note=62 velocity=127 time=0.007291666666666667\n",
      "note_off channel=0 note=62 velocity=127 time=0.019791666666666666\n",
      "note_on channel=0 note=61 velocity=127 time=0.008333333333333333\n",
      "note_off channel=0 note=61 velocity=127 time=0.019791666666666666\n",
      "note_on channel=0 note=62 velocity=127 time=0.029166666666666667\n",
      "note_on channel=0 note=60 velocity=127 time=0.003125\n",
      "note_off channel=0 note=62 velocity=127 time=0.016666666666666666\n",
      "note_off channel=0 note=60 velocity=127 time=0.003125\n",
      "note_on channel=0 note=62 velocity=127 time=0.053125\n",
      "note_on channel=0 note=61 velocity=127 time=0\n",
      "note_off channel=0 note=62 velocity=127 time=0.019791666666666666\n",
      "note_off channel=0 note=61 velocity=127 time=0\n",
      "note_on channel=0 note=60 velocity=127 time=0.013541666666666667\n",
      "note_off channel=0 note=60 velocity=127 time=0.019791666666666666\n",
      "note_on channel=0 note=62 velocity=127 time=0.02395833333333333\n",
      "note_off channel=0 note=62 velocity=127 time=0.019791666666666666\n",
      "note_on channel=0 note=61 velocity=127 time=0.029166666666666667\n",
      "note_on channel=0 note=60 velocity=127 time=0.014583333333333334\n",
      "note_off channel=0 note=61 velocity=127 time=0.005208333333333333\n",
      "note_on channel=0 note=62 velocity=127 time=0.008333333333333333\n",
      "note_off channel=0 note=60 velocity=127 time=0.00625\n",
      "note_off channel=0 note=62 velocity=127 time=0.013541666666666667\n",
      "note_on channel=0 note=62 velocity=127 time=0.05625\n",
      "note_on channel=0 note=60 velocity=127 time=0.016666666666666666\n",
      "note_off channel=0 note=62 velocity=127 time=0.003125\n",
      "note_on channel=0 note=61 velocity=127 time=0.0010416666666666667\n",
      "note_off channel=0 note=60 velocity=127 time=0.015625\n",
      "note_off channel=0 note=61 velocity=127 time=0.004166666666666667\n",
      "note_on channel=0 note=62 velocity=127 time=0.036458333333333336\n",
      "note_off channel=0 note=62 velocity=127 time=0.019791666666666666\n",
      "note_on channel=0 note=60 velocity=127 time=0.027083333333333334\n",
      "note_off channel=0 note=60 velocity=127 time=0.019791666666666666\n",
      "note_on channel=0 note=61 velocity=127 time=0.003125\n",
      "note_on channel=0 note=62 velocity=127 time=0.007291666666666667\n",
      "note_off channel=0 note=61 velocity=127 time=0.0125\n",
      "note_off channel=0 note=62 velocity=127 time=0.007291666666666667\n",
      "note_on channel=0 note=60 velocity=127 time=0.05625\n",
      "note_on channel=0 note=62 velocity=127 time=0\n",
      "note_off channel=0 note=60 velocity=127 time=0.019791666666666666\n",
      "note_off channel=0 note=62 velocity=127 time=0\n",
      "note_on channel=0 note=61 velocity=127 time=0.021875\n",
      "note_off channel=0 note=61 velocity=127 time=0.019791666666666666\n",
      "note_on channel=0 note=62 velocity=127 time=0.015625\n",
      "note_off channel=0 note=62 velocity=127 time=0.019791666666666666\n",
      "note_on channel=0 note=60 velocity=127 time=0.010416666666666666\n",
      "note_off channel=0 note=60 velocity=127 time=0.019791666666666666\n",
      "note_on channel=0 note=62 velocity=127 time=0.027083333333333334\n",
      "note_on channel=0 note=61 velocity=127 time=0.013541666666666667\n",
      "note_off channel=0 note=62 velocity=127 time=0.00625\n",
      "note_off channel=0 note=61 velocity=127 time=0.013541666666666667\n",
      "note_on channel=0 note=60 velocity=127 time=0.026041666666666668\n",
      "note_on channel=0 note=62 velocity=127 time=0.016666666666666666\n",
      "note_off channel=0 note=60 velocity=127 time=0.003125\n",
      "note_off channel=0 note=62 velocity=127 time=0.016666666666666666\n",
      "note_on channel=0 note=61 velocity=127 time=0.042708333333333334\n",
      "note_on channel=0 note=62 velocity=127 time=0.014583333333333334\n",
      "note_off channel=0 note=61 velocity=127 time=0.005208333333333333\n",
      "note_on channel=0 note=60 velocity=127 time=0.007291666666666667\n",
      "note_off channel=0 note=62 velocity=127 time=0.00625\n",
      "note_off channel=0 note=60 velocity=127 time=0.013541666666666667\n",
      "note_on channel=0 note=62 velocity=127 time=0.04375\n",
      "note_off channel=0 note=62 velocity=127 time=0.019791666666666666\n",
      "note_on channel=0 note=61 velocity=127 time=0.014583333333333334\n",
      "note_on channel=0 note=60 velocity=127 time=0.009375\n",
      "note_off channel=0 note=61 velocity=127 time=0.010416666666666666\n"
     ]
    },
    {
     "name": "stdout",
     "output_type": "stream",
     "text": [
      "note_off channel=0 note=60 velocity=127 time=0.009375\n",
      "note_on channel=0 note=62 velocity=127 time=0.013541666666666667\n",
      "note_off channel=0 note=62 velocity=127 time=0.019791666666666666\n",
      "note_on channel=0 note=60 velocity=127 time=0.053125\n",
      "note_on channel=0 note=62 velocity=127 time=0.003125\n",
      "note_on channel=0 note=61 velocity=127 time=0.00625\n",
      "note_off channel=0 note=60 velocity=127 time=0.010416666666666666\n",
      "note_off channel=0 note=62 velocity=127 time=0.003125\n",
      "note_off channel=0 note=61 velocity=127 time=0.00625\n",
      "note_on channel=0 note=62 velocity=127 time=0.05\n",
      "note_off channel=0 note=62 velocity=127 time=0.019791666666666666\n",
      "note_on channel=0 note=60 velocity=127 time=0.00625\n",
      "\u001b[91m [DEBUG] > \u001b[0m\n",
      " |>  to_array: msg.time > max_t; t, n\n",
      " |>  1.9958333333333331\n",
      " |>  100\n",
      "note_on channel=0 note=61 velocity=127 time=0.04895833333333333\n",
      "note_off channel=0 note=61 velocity=127 time=0.019791666666666666\n",
      "note_on channel=0 note=62 velocity=127 time=0.00625\n",
      "note_on channel=0 note=60 velocity=127 time=0.01875\n",
      "note_off channel=0 note=62 velocity=127 time=0.0010416666666666667\n",
      "note_off channel=0 note=60 velocity=127 time=0.01875\n",
      "note_on channel=0 note=61 velocity=127 time=0.00625\n",
      "note_off channel=0 note=61 velocity=127 time=0.019791666666666666\n",
      "note_on channel=0 note=61 velocity=127 time=0.051041666666666666\n",
      "note_off channel=0 note=61 velocity=127 time=0.019791666666666666\n",
      "note_on channel=0 note=62 velocity=127 time=0.0020833333333333333\n",
      "note_off channel=0 note=62 velocity=127 time=0.019791666666666666\n",
      "note_on channel=0 note=61 velocity=127 time=0.029166666666666667\n",
      "note_on channel=0 note=60 velocity=127 time=0.008333333333333333\n",
      "note_off channel=0 note=61 velocity=127 time=0.011458333333333333\n",
      "note_off channel=0 note=60 velocity=127 time=0.008333333333333333\n",
      "note_on channel=0 note=61 velocity=127 time=0.041666666666666664\n",
      "note_on channel=0 note=62 velocity=127 time=0.01875\n",
      "note_off channel=0 note=61 velocity=127 time=0.0010416666666666667\n",
      "note_off channel=0 note=62 velocity=127 time=0.01875\n",
      "note_on channel=0 note=61 velocity=127 time=0.03229166666666666\n",
      "note_off channel=0 note=61 velocity=127 time=0.019791666666666666\n",
      "note_on channel=0 note=60 velocity=127 time=0.02395833333333333\n",
      "note_off channel=0 note=60 velocity=127 time=0.019791666666666666\n",
      "note_on channel=0 note=61 velocity=127 time=0.007291666666666667\n",
      "note_on channel=0 note=62 velocity=127 time=0.014583333333333334\n",
      "note_off channel=0 note=61 velocity=127 time=0.005208333333333333\n",
      "note_off channel=0 note=62 velocity=127 time=0.014583333333333334\n",
      "note_on channel=0 note=61 velocity=127 time=0.035416666666666666\n",
      "note_off channel=0 note=61 velocity=127 time=0.019791666666666666\n",
      "note_on channel=0 note=61 velocity=127 time=0.051041666666666666\n",
      "note_on channel=0 note=60 velocity=127 time=0.008333333333333333\n",
      "note_on channel=0 note=62 velocity=127 time=0.003125\n",
      "note_off channel=0 note=61 velocity=127 time=0.008333333333333333\n",
      "note_off channel=0 note=60 velocity=127 time=0.008333333333333333\n",
      "note_off channel=0 note=62 velocity=127 time=0.003125\n",
      "note_on channel=0 note=61 velocity=127 time=0.03958333333333333\n",
      "note_off channel=0 note=61 velocity=127 time=0.019791666666666666\n",
      "note_on channel=0 note=61 velocity=127 time=0.051041666666666666\n",
      "note_on channel=0 note=62 velocity=127 time=0.007291666666666667\n",
      "note_off channel=0 note=61 velocity=127 time=0.0125\n",
      "note_off channel=0 note=62 velocity=127 time=0.007291666666666667\n",
      "note_on channel=0 note=60 velocity=127 time=0.015625\n",
      "note_off channel=0 note=60 velocity=127 time=0.019791666666666666\n",
      "note_on channel=0 note=61 velocity=127 time=0.008333333333333333\n",
      "note_off channel=0 note=61 velocity=127 time=0.019791666666666666\n",
      "note_on channel=0 note=61 velocity=127 time=0.051041666666666666\n",
      "note_on channel=0 note=62 velocity=127 time=0.004166666666666667\n",
      "note_off channel=0 note=61 velocity=127 time=0.015625\n",
      "note_off channel=0 note=62 velocity=127 time=0.004166666666666667\n",
      "note_on channel=0 note=61 velocity=127 time=0.046875\n",
      "note_on channel=0 note=60 velocity=127 time=0.007291666666666667\n",
      "note_off channel=0 note=61 velocity=127 time=0.0125\n",
      "note_off channel=0 note=60 velocity=127 time=0.007291666666666667\n",
      "note_on channel=0 note=61 velocity=127 time=0.04375\n",
      "note_on channel=0 note=62 velocity=127 time=0\n",
      "note_off channel=0 note=61 velocity=127 time=0.019791666666666666\n",
      "note_off channel=0 note=62 velocity=127 time=0\n",
      "note_on channel=0 note=61 velocity=127 time=0.05\n",
      "note_off channel=0 note=61 velocity=127 time=0.019791666666666666\n",
      "note_on channel=0 note=60 velocity=127 time=0.021875\n",
      "note_off channel=0 note=60 velocity=127 time=0.019791666666666666\n",
      "note_on channel=0 note=62 velocity=127 time=0.005208333333333333\n",
      "note_on channel=0 note=61 velocity=127 time=0.003125\n",
      "note_off channel=0 note=62 velocity=127 time=0.016666666666666666\n",
      "note_off channel=0 note=61 velocity=127 time=0.003125\n",
      "note_on channel=0 note=61 velocity=127 time=0.051041666666666666\n",
      "note_off channel=0 note=61 velocity=127 time=0.019791666666666666\n",
      "note_on channel=0 note=62 velocity=127 time=0.04375\n",
      "note_on channel=0 note=61 velocity=127 time=0.007291666666666667\n",
      "note_on channel=0 note=60 velocity=127 time=0.00625\n",
      "note_off channel=0 note=62 velocity=127 time=0.00625\n",
      "note_off channel=0 note=61 velocity=127 time=0.007291666666666667\n",
      "note_off channel=0 note=60 velocity=127 time=0.00625\n",
      "note_on channel=0 note=61 velocity=127 time=0.04479166666666667\n",
      "note_off channel=0 note=61 velocity=127 time=0.019791666666666666\n",
      "note_on channel=0 note=62 velocity=127 time=0.040625\n",
      "note_on channel=0 note=61 velocity=127 time=0.010416666666666666\n",
      "note_off channel=0 note=62 velocity=127 time=0.009375\n",
      "note_off channel=0 note=61 velocity=127 time=0.010416666666666666\n",
      "note_on channel=0 note=60 velocity=127 time=0.021875\n",
      "note_off channel=0 note=60 velocity=127 time=0.019791666666666666\n",
      "note_on channel=0 note=61 velocity=127 time=0.009375\n",
      "note_off channel=0 note=61 velocity=127 time=0.019791666666666666\n",
      "note_on channel=0 note=62 velocity=127 time=0.036458333333333336\n",
      "note_on channel=0 note=61 velocity=127 time=0.014583333333333334\n",
      "note_off channel=0 note=62 velocity=127 time=0.00625\n",
      "note_off channel=0 note=61 velocity=127 time=0.014583333333333334\n",
      "note_on channel=0 note=61 velocity=127 time=0.051041666666666666\n",
      "note_on channel=0 note=60 velocity=127 time=0.00625\n",
      "note_off channel=0 note=61 velocity=127 time=0.014583333333333334\n",
      "note_off channel=0 note=60 velocity=127 time=0.00625\n",
      "note_on channel=0 note=62 velocity=127 time=0.027083333333333334\n",
      "note_on channel=0 note=61 velocity=127 time=0.017708333333333333\n",
      "note_off channel=0 note=62 velocity=127 time=0.0020833333333333333\n",
      "note_off channel=0 note=61 velocity=127 time=0.017708333333333333\n",
      "note_on channel=0 note=61 velocity=127 time=0.051041666666666666\n",
      "note_off channel=0 note=61 velocity=127 time=0.019791666666666666\n",
      "note_on channel=0 note=60 velocity=127 time=0.020833333333333332\n",
      "note_on channel=0 note=62 velocity=127 time=0.008333333333333333\n",
      "note_off channel=0 note=60 velocity=127 time=0.011458333333333333\n",
      "note_off channel=0 note=62 velocity=127 time=0.008333333333333333\n",
      "note_on channel=0 note=61 velocity=127 time=0.0010416666666666667\n",
      "note_off channel=0 note=61 velocity=127 time=0.019791666666666666\n",
      "note_on channel=0 note=61 velocity=127 time=0.051041666666666666\n",
      "note_off channel=0 note=61 velocity=127 time=0.019791666666666666\n",
      "note_on channel=0 note=62 velocity=127 time=0.026041666666666668\n",
      "\u001b[91m [DEBUG] > \u001b[0m\n",
      " |>  to_array: msg.time > max_t; t, n\n",
      " |>  2.004166666666667\n",
      " |>  100\n",
      "note_on channel=0 note=60 velocity=127 time=0.004166666666666667\n",
      "note_off channel=0 note=60 velocity=127 time=0.019791666666666666\n",
      "note_on channel=0 note=61 velocity=127 time=0.017708333333333333\n",
      "note_on channel=0 note=62 velocity=127 time=0.01875\n",
      "note_off channel=0 note=61 velocity=127 time=0.0010416666666666667\n",
      "note_on channel=0 note=60 velocity=127 time=0.017708333333333333\n",
      "note_off channel=0 note=62 velocity=127 time=0.0010416666666666667\n",
      "note_off channel=0 note=60 velocity=127 time=0.01875\n",
      "note_on channel=0 note=60 velocity=127 time=0.05520833333333333\n",
      "note_on channel=0 note=61 velocity=127 time=0.010416666666666666\n",
      "note_off channel=0 note=60 velocity=127 time=0.009375\n",
      "note_off channel=0 note=61 velocity=127 time=0.010416666666666666\n",
      "note_on channel=0 note=60 velocity=127 time=0.04479166666666667\n",
      "note_off channel=0 note=60 velocity=127 time=0.019791666666666666\n",
      "note_on channel=0 note=61 velocity=127 time=0.03854166666666667\n",
      "note_on channel=0 note=60 velocity=127 time=0.017708333333333333\n",
      "note_off channel=0 note=61 velocity=127 time=0.003125\n",
      "note_on channel=0 note=62 velocity=127 time=0.011458333333333333\n",
      "note_off channel=0 note=60 velocity=127 time=0.00625\n",
      "note_off channel=0 note=62 velocity=127 time=0.013541666666666667\n",
      "note_on channel=0 note=60 velocity=127 time=0.041666666666666664\n",
      "note_off channel=0 note=60 velocity=127 time=0.019791666666666666\n",
      "note_on channel=0 note=61 velocity=127 time=0.010416666666666666\n",
      "note_off channel=0 note=61 velocity=127 time=0.019791666666666666\n",
      "note_on channel=0 note=60 velocity=127 time=0.025\n",
      "note_off channel=0 note=60 velocity=127 time=0.019791666666666666\n",
      "note_on channel=0 note=60 velocity=127 time=0.05520833333333333\n",
      "note_on channel=0 note=61 velocity=127 time=0.003125\n",
      "note_off channel=0 note=60 velocity=127 time=0.016666666666666666\n",
      "note_off channel=0 note=61 velocity=127 time=0.003125\n",
      "note_on channel=0 note=62 velocity=127 time=0.022916666666666665\n",
      "note_off channel=0 note=62 velocity=127 time=0.019791666666666666\n",
      "note_on channel=0 note=60 velocity=127 time=0.009375\n",
      "note_off channel=0 note=60 velocity=127 time=0.019791666666666666\n",
      "note_on channel=0 note=61 velocity=127 time=0.03125\n",
      "note_off channel=0 note=61 velocity=127 time=0.019791666666666666\n",
      "note_on channel=0 note=60 velocity=127 time=0.004166666666666667\n",
      "note_off channel=0 note=60 velocity=127 time=0.019791666666666666\n",
      "note_on channel=0 note=60 velocity=127 time=0.05520833333333333\n",
      "note_off channel=0 note=60 velocity=127 time=0.019791666666666666\n",
      "note_on channel=0 note=61 velocity=127 time=0.003125\n",
      "note_off channel=0 note=61 velocity=127 time=0.019791666666666666\n",
      "note_on channel=0 note=60 velocity=127 time=0.03229166666666666\n",
      "note_on channel=0 note=62 velocity=127 time=0.003125\n",
      "note_off channel=0 note=60 velocity=127 time=0.016666666666666666\n",
      "note_off channel=0 note=62 velocity=127 time=0.003125\n",
      "note_on channel=0 note=61 velocity=127 time=0.04791666666666666\n",
      "note_on channel=0 note=60 velocity=127 time=0.004166666666666667\n",
      "note_off channel=0 note=61 velocity=127 time=0.015625\n",
      "note_off channel=0 note=60 velocity=127 time=0.004166666666666667\n",
      "note_on channel=0 note=60 velocity=127 time=0.05520833333333333\n",
      "note_off channel=0 note=60 velocity=127 time=0.019791666666666666\n",
      "note_on channel=0 note=61 velocity=127 time=0.02395833333333333\n",
      "note_off channel=0 note=61 velocity=127 time=0.019791666666666666\n",
      "note_on channel=0 note=60 velocity=127 time=0.011458333333333333\n",
      "note_off channel=0 note=60 velocity=127 time=0.019791666666666666\n",
      "note_on channel=0 note=62 velocity=127 time=0.015625\n",
      "note_off channel=0 note=62 velocity=127 time=0.019791666666666666\n",
      "note_on channel=0 note=60 velocity=127 time=0.019791666666666666\n",
      "note_on channel=0 note=61 velocity=127 time=0.016666666666666666\n",
      "note_off channel=0 note=60 velocity=127 time=0.004166666666666667\n",
      "note_off channel=0 note=61 velocity=127 time=0.016666666666666666\n",
      "note_on channel=0 note=60 velocity=127 time=0.03958333333333333\n",
      "note_off channel=0 note=60 velocity=127 time=0.019791666666666666\n",
      "note_on channel=0 note=61 velocity=127 time=0.04375\n",
      "note_on channel=0 note=60 velocity=127 time=0.011458333333333333\n",
      "note_off channel=0 note=61 velocity=127 time=0.008333333333333333\n",
      "note_off channel=0 note=60 velocity=127 time=0.011458333333333333\n",
      "note_on channel=0 note=62 velocity=127 time=0.04895833333333333\n",
      "note_on channel=0 note=60 velocity=127 time=0.007291666666666667\n",
      "note_off channel=0 note=62 velocity=127 time=0.0125\n",
      "note_off channel=0 note=60 velocity=127 time=0.007291666666666667\n",
      "note_on channel=0 note=61 velocity=127 time=0.016666666666666666\n",
      "note_off channel=0 note=61 velocity=127 time=0.019791666666666666\n",
      "note_on channel=0 note=60 velocity=127 time=0.01875\n",
      "note_off channel=0 note=60 velocity=127 time=0.019791666666666666\n",
      "note_on channel=0 note=60 velocity=127 time=0.05520833333333333\n",
      "note_on channel=0 note=61 velocity=127 time=0.009375\n",
      "note_off channel=0 note=60 velocity=127 time=0.011458333333333333\n",
      "note_off channel=0 note=61 velocity=127 time=0.009375\n",
      "note_on channel=0 note=60 velocity=127 time=0.046875\n",
      "note_off channel=0 note=60 velocity=127 time=0.019791666666666666\n",
      "note_on channel=0 note=62 velocity=127 time=0.005208333333333333\n",
      "note_off channel=0 note=62 velocity=127 time=0.019791666666666666\n",
      "note_on channel=0 note=61 velocity=127 time=0.011458333333333333\n",
      "note_on channel=0 note=60 velocity=127 time=0.01875\n",
      "note_off channel=0 note=61 velocity=127 time=0.0010416666666666667\n",
      "note_off channel=0 note=60 velocity=127 time=0.01875\n",
      "note_on channel=0 note=60 velocity=127 time=0.05520833333333333\n",
      "note_off channel=0 note=60 velocity=127 time=0.019791666666666666\n",
      "note_on channel=0 note=61 velocity=127 time=0.009375\n",
      "note_off channel=0 note=61 velocity=127 time=0.019791666666666666\n",
      "note_on channel=0 note=60 velocity=127 time=0.026041666666666668\n",
      "note_off channel=0 note=60 velocity=127 time=0.019791666666666666\n",
      "note_on channel=0 note=62 velocity=127 time=0.0375\n",
      "note_on channel=0 note=60 velocity=127 time=0.017708333333333333\n",
      "note_on channel=0 note=61 velocity=127 time=0.0020833333333333333\n",
      "note_off channel=0 note=62 velocity=127 time=0.0010416666666666667\n",
      "note_off channel=0 note=60 velocity=127 time=0.017708333333333333\n",
      "note_off channel=0 note=61 velocity=127 time=0.0020833333333333333\n",
      "note_on channel=0 note=60 velocity=127 time=0.05416666666666667\n",
      "note_off channel=0 note=60 velocity=127 time=0.019791666666666666\n",
      "note_on channel=0 note=61 velocity=127 time=0.030208333333333334\n",
      "\u001b[91m [DEBUG] > \u001b[0m\n",
      " |>  to_array: msg.time > max_t; t, n\n",
      " |>  2.013541666666667\n",
      " |>  100\n",
      "note_on channel=0 note=62 velocity=127 time=0.090625\n",
      "note_on channel=0 note=60 velocity=127 time=0.017708333333333333\n",
      "note_off channel=0 note=62 velocity=127 time=0.0020833333333333333\n",
      "note_off channel=0 note=60 velocity=127 time=0.017708333333333333\n",
      "note_on channel=0 note=61 velocity=127 time=0.040625\n",
      "note_off channel=0 note=61 velocity=127 time=0.019791666666666666\n",
      "note_on channel=0 note=62 velocity=127 time=0.04375\n",
      "note_off channel=0 note=62 velocity=127 time=0.019791666666666666\n",
      "note_on channel=0 note=61 velocity=127 time=0.08645833333333333\n",
      "note_off channel=0 note=61 velocity=127 time=0.019791666666666666\n",
      "note_on channel=0 note=60 velocity=127 time=0.010416666666666666\n",
      "note_on channel=0 note=62 velocity=127 time=0.005208333333333333\n",
      "note_off channel=0 note=60 velocity=127 time=0.014583333333333334\n",
      "note_off channel=0 note=62 velocity=127 time=0.005208333333333333\n",
      "note_on channel=0 note=61 velocity=127 time=0.11354166666666667\n",
      "note_on channel=0 note=62 velocity=127 time=0.009375\n",
      "note_off channel=0 note=61 velocity=127 time=0.011458333333333333\n",
      "note_off channel=0 note=62 velocity=127 time=0.009375\n",
      "note_on channel=0 note=60 velocity=127 time=0.09375\n",
      "note_off channel=0 note=60 velocity=127 time=0.019791666666666666\n",
      "note_on channel=0 note=62 velocity=127 time=0.009375\n",
      "note_on channel=0 note=61 velocity=127 time=0.01875\n",
      "note_off channel=0 note=62 velocity=127 time=0.0020833333333333333\n",
      "note_off channel=0 note=61 velocity=127 time=0.01875\n",
      "note_on channel=0 note=62 velocity=127 time=0.10416666666666667\n",
      "note_off channel=0 note=62 velocity=127 time=0.019791666666666666\n",
      "note_on channel=0 note=61 velocity=127 time=0.026041666666666668\n",
      "note_off channel=0 note=61 velocity=127 time=0.019791666666666666\n",
      "note_on channel=0 note=60 velocity=127 time=0.02395833333333333\n",
      "note_off channel=0 note=60 velocity=127 time=0.019791666666666666\n",
      "note_on channel=0 note=62 velocity=127 time=0.03333333333333333\n",
      "note_off channel=0 note=62 velocity=127 time=0.019791666666666666\n",
      "note_on channel=0 note=61 velocity=127 time=0.053125\n",
      "note_off channel=0 note=61 velocity=127 time=0.019791666666666666\n",
      "note_on channel=0 note=62 velocity=127 time=0.04895833333333333\n",
      "note_off channel=0 note=62 velocity=127 time=0.019791666666666666\n",
      "note_on channel=0 note=60 velocity=127 time=0.04583333333333333\n",
      "note_off channel=0 note=60 velocity=127 time=0.019791666666666666\n",
      "note_on channel=0 note=61 velocity=127 time=0.014583333333333334\n",
      "note_off channel=0 note=61 velocity=127 time=0.019791666666666666\n",
      "note_on channel=0 note=62 velocity=127 time=0.021875\n",
      "note_off channel=0 note=62 velocity=127 time=0.019791666666666666\n",
      "note_on channel=0 note=61 velocity=127 time=0.10833333333333334\n",
      "note_on channel=0 note=62 velocity=127 time=0.014583333333333334\n",
      "note_off channel=0 note=61 velocity=127 time=0.005208333333333333\n",
      "note_off channel=0 note=62 velocity=127 time=0.014583333333333334\n",
      "note_on channel=0 note=60 velocity=127 time=0.021875\n",
      "note_off channel=0 note=60 velocity=127 time=0.019791666666666666\n",
      "note_on channel=0 note=62 velocity=127 time=0.08020833333333333\n",
      "note_on channel=0 note=61 velocity=127 time=0.013541666666666667\n",
      "note_off channel=0 note=62 velocity=127 time=0.007291666666666667\n",
      "note_off channel=0 note=61 velocity=127 time=0.013541666666666667\n",
      "note_on channel=0 note=62 velocity=127 time=0.109375\n",
      "note_on channel=0 note=60 velocity=127 time=0.017708333333333333\n",
      "note_off channel=0 note=62 velocity=127 time=0.0020833333333333333\n",
      "note_off channel=0 note=60 velocity=127 time=0.017708333333333333\n",
      "note_on channel=0 note=61 velocity=127 time=0.0020833333333333333\n",
      "note_off channel=0 note=61 velocity=127 time=0.019791666666666666\n",
      "note_on channel=0 note=62 velocity=127 time=0.08229166666666667\n",
      "note_off channel=0 note=62 velocity=127 time=0.019791666666666666\n",
      "note_on channel=0 note=61 velocity=127 time=0.04791666666666666\n",
      "note_off channel=0 note=61 velocity=127 time=0.019791666666666666\n",
      "note_on channel=0 note=60 velocity=127 time=0.04895833333333333\n",
      "note_on channel=0 note=62 velocity=127 time=0.005208333333333333\n",
      "note_off channel=0 note=60 velocity=127 time=0.014583333333333334\n",
      "note_off channel=0 note=62 velocity=127 time=0.005208333333333333\n",
      "note_on channel=0 note=61 velocity=127 time=0.075\n",
      "\u001b[91m [DEBUG] > \u001b[0m\n",
      " |>  to_array: msg.time > max_t; t, n\n",
      " |>  2.036458333333334\n",
      " |>  100\n",
      "note_on channel=0 note=60 velocity=127 time=0.017708333333333333\n",
      "note_off channel=0 note=60 velocity=127 time=0.019791666666666666\n",
      "note_on channel=0 note=61 velocity=127 time=0.008333333333333333\n",
      "note_off channel=0 note=61 velocity=127 time=0.019791666666666666\n",
      "note_on channel=0 note=62 velocity=127 time=0.028125\n",
      "note_on channel=0 note=60 velocity=127 time=0.01875\n",
      "note_off channel=0 note=62 velocity=127 time=0.0010416666666666667\n",
      "note_off channel=0 note=60 velocity=127 time=0.01875\n",
      "note_on channel=0 note=61 velocity=127 time=0.06979166666666667\n",
      "note_on channel=0 note=60 velocity=127 time=0.00625\n",
      "note_off channel=0 note=61 velocity=127 time=0.013541666666666667\n",
      "note_off channel=0 note=60 velocity=127 time=0.00625\n",
      "note_on channel=0 note=62 velocity=127 time=0.057291666666666664\n",
      "note_on channel=0 note=60 velocity=127 time=0.01875\n",
      "note_off channel=0 note=62 velocity=127 time=0.0010416666666666667\n",
      "note_off channel=0 note=60 velocity=127 time=0.01875\n",
      "note_on channel=0 note=61 velocity=127 time=0.035416666666666666\n",
      "note_off channel=0 note=61 velocity=127 time=0.019791666666666666\n",
      "note_on channel=0 note=60 velocity=127 time=0.020833333333333332\n",
      "note_off channel=0 note=60 velocity=127 time=0.019791666666666666\n",
      "note_on channel=0 note=62 velocity=127 time=0.058333333333333334\n",
      "note_on channel=0 note=60 velocity=127 time=0.01875\n",
      "note_off channel=0 note=62 velocity=127 time=0.0020833333333333333\n",
      "note_on channel=0 note=61 velocity=127 time=0.01875\n",
      "note_off channel=0 note=60 velocity=127 time=0\n",
      "note_off channel=0 note=61 velocity=127 time=0.019791666666666666\n",
      "note_on channel=0 note=60 velocity=127 time=0.05625\n",
      "note_off channel=0 note=60 velocity=127 time=0.019791666666666666\n",
      "note_on channel=0 note=62 velocity=127 time=0.058333333333333334\n",
      "note_on channel=0 note=61 velocity=127 time=0.003125\n",
      "note_on channel=0 note=60 velocity=127 time=0.014583333333333334\n",
      "note_off channel=0 note=62 velocity=127 time=0.0020833333333333333\n",
      "note_off channel=0 note=61 velocity=127 time=0.003125\n",
      "note_off channel=0 note=60 velocity=127 time=0.014583333333333334\n",
      "note_on channel=0 note=60 velocity=127 time=0.07604166666666666\n",
      "note_off channel=0 note=60 velocity=127 time=0.019791666666666666\n",
      "note_on channel=0 note=61 velocity=127 time=0.026041666666666668\n",
      "note_off channel=0 note=61 velocity=127 time=0.019791666666666666\n",
      "note_on channel=0 note=62 velocity=127 time=0.0125\n",
      "note_on channel=0 note=60 velocity=127 time=0.017708333333333333\n",
      "note_off channel=0 note=62 velocity=127 time=0.0020833333333333333\n",
      "note_off channel=0 note=60 velocity=127 time=0.017708333333333333\n",
      "note_on channel=0 note=60 velocity=127 time=0.07604166666666666\n",
      "note_on channel=0 note=61 velocity=127 time=0.011458333333333333\n",
      "note_off channel=0 note=60 velocity=127 time=0.008333333333333333\n",
      "note_off channel=0 note=61 velocity=127 time=0.011458333333333333\n",
      "note_on channel=0 note=62 velocity=127 time=0.04791666666666666\n",
      "note_on channel=0 note=60 velocity=127 time=0.017708333333333333\n",
      "note_off channel=0 note=62 velocity=127 time=0.003125\n",
      "note_off channel=0 note=60 velocity=127 time=0.017708333333333333\n",
      "note_on channel=0 note=61 velocity=127 time=0.052083333333333336\n",
      "note_off channel=0 note=61 velocity=127 time=0.019791666666666666\n",
      "note_on channel=0 note=60 velocity=127 time=0.004166666666666667\n",
      "note_off channel=0 note=60 velocity=127 time=0.019791666666666666\n",
      "note_on channel=0 note=62 velocity=127 time=0.059375\n",
      "note_on channel=0 note=60 velocity=127 time=0.016666666666666666\n",
      "note_off channel=0 note=62 velocity=127 time=0.003125\n",
      "note_off channel=0 note=60 velocity=127 time=0.016666666666666666\n",
      "note_on channel=0 note=61 velocity=127 time=0.017708333333333333\n",
      "note_off channel=0 note=61 velocity=127 time=0.019791666666666666\n",
      "note_on channel=0 note=60 velocity=127 time=0.03854166666666667\n",
      "note_off channel=0 note=60 velocity=127 time=0.019791666666666666\n",
      "note_on channel=0 note=62 velocity=127 time=0.059375\n",
      "note_on channel=0 note=60 velocity=127 time=0.016666666666666666\n",
      "note_on channel=0 note=61 velocity=127 time=0.0020833333333333333\n",
      "note_off channel=0 note=62 velocity=127 time=0.0010416666666666667\n",
      "note_off channel=0 note=60 velocity=127 time=0.016666666666666666\n",
      "note_off channel=0 note=61 velocity=127 time=0.0020833333333333333\n",
      "note_on channel=0 note=60 velocity=127 time=0.07395833333333333\n",
      "note_off channel=0 note=60 velocity=127 time=0.019791666666666666\n",
      "note_on channel=0 note=61 velocity=127 time=0.04375\n",
      "note_on channel=0 note=62 velocity=127 time=0.016666666666666666\n",
      "note_off channel=0 note=61 velocity=127 time=0.003125\n",
      "note_on channel=0 note=60 velocity=127 time=0.0125\n",
      "note_off channel=0 note=62 velocity=127 time=0.004166666666666667\n",
      "note_off channel=0 note=60 velocity=127 time=0.016666666666666666\n",
      "note_on channel=0 note=60 velocity=127 time=0.07604166666666666\n",
      "note_off channel=0 note=60 velocity=127 time=0.019791666666666666\n",
      "note_on channel=0 note=61 velocity=127 time=0.008333333333333333\n",
      "note_off channel=0 note=61 velocity=127 time=0.019791666666666666\n",
      "note_on channel=0 note=62 velocity=127 time=0.03229166666666666\n",
      "note_on channel=0 note=60 velocity=127 time=0.015625\n",
      "note_off channel=0 note=62 velocity=127 time=0.004166666666666667\n",
      "note_off channel=0 note=60 velocity=127 time=0.015625\n",
      "note_on channel=0 note=61 velocity=127 time=0.06979166666666667\n",
      "note_on channel=0 note=60 velocity=127 time=0.00625\n",
      "note_off channel=0 note=61 velocity=127 time=0.013541666666666667\n",
      "note_off channel=0 note=60 velocity=127 time=0.00625\n",
      "note_on channel=0 note=62 velocity=127 time=0.06041666666666667\n",
      "\u001b[91m [DEBUG] > \u001b[0m\n",
      " |>  to_array: msg.time > max_t; t, n\n",
      " |>  2.0187499999999994\n",
      " |>  100\n",
      "note_on channel=0 note=62 velocity=127 time=0.026041666666666668\n",
      "note_off channel=0 note=62 velocity=127 time=0.019791666666666666\n",
      "note_on channel=0 note=60 velocity=127 time=0.013541666666666667\n",
      "note_off channel=0 note=60 velocity=127 time=0.019791666666666666\n",
      "note_on channel=0 note=62 velocity=127 time=0.03854166666666667\n",
      "note_off channel=0 note=62 velocity=127 time=0.019791666666666666\n",
      "note_on channel=0 note=61 velocity=127 time=0.040625\n",
      "note_on channel=0 note=60 velocity=127 time=0.015625\n",
      "note_off channel=0 note=61 velocity=127 time=0.004166666666666667\n",
      "note_on channel=0 note=62 velocity=127 time=0.011458333333333333\n",
      "note_off channel=0 note=60 velocity=127 time=0.004166666666666667\n",
      "note_off channel=0 note=62 velocity=127 time=0.015625\n",
      "note_on channel=0 note=62 velocity=127 time=0.071875\n",
      "note_off channel=0 note=62 velocity=127 time=0.019791666666666666\n",
      "note_on channel=0 note=60 velocity=127 time=0.007291666666666667\n",
      "note_off channel=0 note=60 velocity=127 time=0.019791666666666666\n",
      "note_on channel=0 note=62 velocity=127 time=0.04479166666666667\n",
      "note_off channel=0 note=62 velocity=127 time=0.019791666666666666\n",
      "note_on channel=0 note=61 velocity=127 time=0.0020833333333333333\n",
      "note_off channel=0 note=61 velocity=127 time=0.019791666666666666\n",
      "note_on channel=0 note=60 velocity=127 time=0.028125\n",
      "note_off channel=0 note=60 velocity=127 time=0.019791666666666666\n",
      "note_on channel=0 note=62 velocity=127 time=0.0020833333333333333\n",
      "note_off channel=0 note=62 velocity=127 time=0.019791666666666666\n",
      "note_on channel=0 note=62 velocity=127 time=0.071875\n",
      "note_off channel=0 note=62 velocity=127 time=0.019791666666666666\n",
      "note_on channel=0 note=60 velocity=127 time=0.0010416666666666667\n",
      "note_off channel=0 note=60 velocity=127 time=0.019791666666666666\n",
      "note_on channel=0 note=61 velocity=127 time=0.034375\n",
      "note_on channel=0 note=62 velocity=127 time=0.016666666666666666\n",
      "note_off channel=0 note=61 velocity=127 time=0.003125\n",
      "note_off channel=0 note=62 velocity=127 time=0.016666666666666666\n",
      "note_on channel=0 note=60 velocity=127 time=0.04375\n",
      "note_off channel=0 note=60 velocity=127 time=0.019791666666666666\n",
      "note_on channel=0 note=62 velocity=127 time=0.008333333333333333\n",
      "note_off channel=0 note=62 velocity=127 time=0.019791666666666666\n",
      "note_on channel=0 note=62 velocity=127 time=0.071875\n",
      "note_on channel=0 note=60 velocity=127 time=0.014583333333333334\n",
      "note_off channel=0 note=62 velocity=127 time=0.005208333333333333\n",
      "note_off channel=0 note=60 velocity=127 time=0.014583333333333334\n",
      "note_on channel=0 note=61 velocity=127 time=0.0020833333333333333\n",
      "note_off channel=0 note=61 velocity=127 time=0.019791666666666666\n",
      "note_on channel=0 note=62 velocity=127 time=0.035416666666666666\n",
      "note_off channel=0 note=62 velocity=127 time=0.019791666666666666\n",
      "note_on channel=0 note=60 velocity=127 time=0.0375\n",
      "note_off channel=0 note=60 velocity=127 time=0.019791666666666666\n",
      "note_on channel=0 note=62 velocity=127 time=0.014583333333333334\n",
      "note_off channel=0 note=62 velocity=127 time=0.019791666666666666\n",
      "note_on channel=0 note=61 velocity=127 time=0.06875\n",
      "note_on channel=0 note=62 velocity=127 time=0.003125\n",
      "note_on channel=0 note=60 velocity=127 time=0.008333333333333333\n",
      "note_off channel=0 note=61 velocity=127 time=0.009375\n",
      "note_off channel=0 note=62 velocity=127 time=0.003125\n",
      "note_off channel=0 note=60 velocity=127 time=0.008333333333333333\n",
      "note_on channel=0 note=62 velocity=127 time=0.06354166666666666\n",
      "note_off channel=0 note=62 velocity=127 time=0.019791666666666666\n",
      "note_on channel=0 note=60 velocity=127 time=0.03125\n",
      "note_off channel=0 note=60 velocity=127 time=0.019791666666666666\n",
      "note_on channel=0 note=62 velocity=127 time=0.020833333333333332\n",
      "note_off channel=0 note=62 velocity=127 time=0.019791666666666666\n",
      "note_on channel=0 note=61 velocity=127 time=0.030208333333333334\n",
      "note_off channel=0 note=61 velocity=127 time=0.019791666666666666\n",
      "note_on channel=0 note=62 velocity=127 time=0.021875\n",
      "note_on channel=0 note=60 velocity=127 time=0.0020833333333333333\n",
      "note_off channel=0 note=62 velocity=127 time=0.01875\n",
      "note_off channel=0 note=60 velocity=127 time=0.0020833333333333333\n",
      "note_on channel=0 note=62 velocity=127 time=0.06979166666666667\n",
      "note_off channel=0 note=62 velocity=127 time=0.019791666666666666\n",
      "note_on channel=0 note=60 velocity=127 time=0.025\n",
      "note_off channel=0 note=60 velocity=127 time=0.019791666666666666\n",
      "note_on channel=0 note=62 velocity=127 time=0.027083333333333334\n",
      "note_on channel=0 note=61 velocity=127 time=0.011458333333333333\n",
      "note_off channel=0 note=62 velocity=127 time=0.008333333333333333\n",
      "note_off channel=0 note=61 velocity=127 time=0.011458333333333333\n",
      "note_on channel=0 note=60 velocity=127 time=0.05625\n",
      "note_on channel=0 note=62 velocity=127 time=0.004166666666666667\n",
      "note_off channel=0 note=60 velocity=127 time=0.015625\n",
      "note_off channel=0 note=62 velocity=127 time=0.004166666666666667\n",
      "note_on channel=0 note=62 velocity=127 time=0.071875\n",
      "note_off channel=0 note=62 velocity=127 time=0.019791666666666666\n",
      "note_on channel=0 note=60 velocity=127 time=0.017708333333333333\n",
      "note_off channel=0 note=60 velocity=127 time=0.019791666666666666\n",
      "note_on channel=0 note=61 velocity=127 time=0.00625\n",
      "note_off channel=0 note=61 velocity=127 time=0.019791666666666666\n",
      "note_on channel=0 note=62 velocity=127 time=0.007291666666666667\n",
      "note_off channel=0 note=62 velocity=127 time=0.019791666666666666\n",
      "note_on channel=0 note=60 velocity=127 time=0.06145833333333333\n",
      "note_on channel=0 note=62 velocity=127 time=0.011458333333333333\n",
      "note_off channel=0 note=60 velocity=127 time=0.009375\n",
      "note_off channel=0 note=62 velocity=127 time=0.011458333333333333\n",
      "note_on channel=0 note=62 velocity=127 time=0.071875\n",
      "\u001b[91m [DEBUG] > \u001b[0m\n",
      " |>  to_array: msg.time > max_t; t, n\n",
      " |>  2.0458333333333334\n",
      " |>  100\n"
     ]
    },
    {
     "name": "stdout",
     "output_type": "stream",
     "text": [
      "note_on channel=0 note=61 velocity=127 time=0.057291666666666664\n",
      "note_on channel=0 note=62 velocity=127 time=0.015625\n",
      "note_off channel=0 note=61 velocity=127 time=0.005208333333333333\n",
      "note_on channel=0 note=60 velocity=127 time=0.0010416666666666667\n",
      "note_off channel=0 note=62 velocity=127 time=0.014583333333333334\n",
      "note_off channel=0 note=60 velocity=127 time=0.005208333333333333\n",
      "note_on channel=0 note=61 velocity=127 time=0.03125\n",
      "note_off channel=0 note=61 velocity=127 time=0.019791666666666666\n",
      "note_on channel=0 note=62 velocity=127 time=0.004166666666666667\n",
      "note_on channel=0 note=60 velocity=127 time=0.016666666666666666\n",
      "note_off channel=0 note=62 velocity=127 time=0.003125\n",
      "note_off channel=0 note=60 velocity=127 time=0.016666666666666666\n",
      "note_on channel=0 note=61 velocity=127 time=0.010416666666666666\n",
      "note_off channel=0 note=61 velocity=127 time=0.019791666666666666\n",
      "note_on channel=0 note=62 velocity=127 time=0.013541666666666667\n",
      "note_off channel=0 note=62 velocity=127 time=0.019791666666666666\n",
      "note_on channel=0 note=60 velocity=127 time=0.008333333333333333\n",
      "note_on channel=0 note=61 velocity=127 time=0.009375\n",
      "note_off channel=0 note=60 velocity=127 time=0.010416666666666666\n",
      "note_off channel=0 note=61 velocity=127 time=0.009375\n",
      "note_on channel=0 note=62 velocity=127 time=0.022916666666666665\n",
      "note_off channel=0 note=62 velocity=127 time=0.019791666666666666\n",
      "note_on channel=0 note=61 velocity=127 time=0.009375\n",
      "note_on channel=0 note=60 velocity=127 time=0.011458333333333333\n",
      "note_off channel=0 note=61 velocity=127 time=0.009375\n",
      "note_off channel=0 note=60 velocity=127 time=0.011458333333333333\n",
      "note_on channel=0 note=62 velocity=127 time=0.020833333333333332\n",
      "note_off channel=0 note=62 velocity=127 time=0.019791666666666666\n",
      "note_on channel=0 note=61 velocity=127 time=0\n",
      "note_off channel=0 note=61 velocity=127 time=0.019791666666666666\n",
      "note_on channel=0 note=60 velocity=127 time=0.011458333333333333\n",
      "note_off channel=0 note=60 velocity=127 time=0.019791666666666666\n",
      "note_on channel=0 note=62 velocity=127 time=0.008333333333333333\n",
      "note_on channel=0 note=61 velocity=127 time=0.011458333333333333\n",
      "note_off channel=0 note=62 velocity=127 time=0.008333333333333333\n",
      "note_off channel=0 note=61 velocity=127 time=0.011458333333333333\n",
      "note_on channel=0 note=60 velocity=127 time=0.03229166666666666\n",
      "note_on channel=0 note=62 velocity=127 time=0.016666666666666666\n",
      "note_on channel=0 note=61 velocity=127 time=0.0020833333333333333\n",
      "note_off channel=0 note=60 velocity=127 time=0\n",
      "note_off channel=0 note=62 velocity=127 time=0.016666666666666666\n",
      "note_off channel=0 note=61 velocity=127 time=0.0020833333333333333\n",
      "note_on channel=0 note=61 velocity=127 time=0.052083333333333336\n",
      "note_on channel=0 note=60 velocity=127 time=0.0010416666666666667\n",
      "note_on channel=0 note=62 velocity=127 time=0.005208333333333333\n",
      "note_off channel=0 note=61 velocity=127 time=0.013541666666666667\n",
      "note_off channel=0 note=60 velocity=127 time=0.0010416666666666667\n",
      "note_off channel=0 note=62 velocity=127 time=0.005208333333333333\n",
      "note_on channel=0 note=61 velocity=127 time=0.04583333333333333\n",
      "note_on channel=0 note=62 velocity=127 time=0.015625\n",
      "note_off channel=0 note=61 velocity=127 time=0.004166666666666667\n",
      "note_on channel=0 note=60 velocity=127 time=0.0020833333333333333\n",
      "note_off channel=0 note=62 velocity=127 time=0.013541666666666667\n",
      "note_off channel=0 note=60 velocity=127 time=0.00625\n",
      "note_on channel=0 note=61 velocity=127 time=0.030208333333333334\n",
      "note_off channel=0 note=61 velocity=127 time=0.019791666666666666\n",
      "note_on channel=0 note=62 velocity=127 time=0.005208333333333333\n",
      "note_on channel=0 note=60 velocity=127 time=0.017708333333333333\n",
      "note_off channel=0 note=62 velocity=127 time=0.0020833333333333333\n",
      "note_off channel=0 note=60 velocity=127 time=0.017708333333333333\n",
      "note_on channel=0 note=61 velocity=127 time=0.009375\n",
      "note_off channel=0 note=61 velocity=127 time=0.019791666666666666\n",
      "note_on channel=0 note=62 velocity=127 time=0.013541666666666667\n",
      "note_off channel=0 note=62 velocity=127 time=0.019791666666666666\n",
      "note_on channel=0 note=60 velocity=127 time=0.009375\n",
      "note_on channel=0 note=61 velocity=127 time=0.008333333333333333\n",
      "note_off channel=0 note=60 velocity=127 time=0.011458333333333333\n",
      "note_off channel=0 note=61 velocity=127 time=0.008333333333333333\n",
      "note_on channel=0 note=62 velocity=127 time=0.022916666666666665\n",
      "note_off channel=0 note=62 velocity=127 time=0.019791666666666666\n",
      "note_on channel=0 note=61 velocity=127 time=0.009375\n",
      "note_on channel=0 note=60 velocity=127 time=0.0125\n",
      "note_off channel=0 note=61 velocity=127 time=0.007291666666666667\n",
      "note_off channel=0 note=60 velocity=127 time=0.0125\n",
      "note_on channel=0 note=62 velocity=127 time=0.019791666666666666\n",
      "note_off channel=0 note=62 velocity=127 time=0.019791666666666666\n",
      "note_on channel=0 note=61 velocity=127 time=0\n",
      "note_off channel=0 note=61 velocity=127 time=0.019791666666666666\n",
      "note_on channel=0 note=60 velocity=127 time=0.0125\n",
      "note_off channel=0 note=60 velocity=127 time=0.019791666666666666\n",
      "note_on channel=0 note=62 velocity=127 time=0.008333333333333333\n",
      "note_on channel=0 note=61 velocity=127 time=0.011458333333333333\n",
      "note_off channel=0 note=62 velocity=127 time=0.009375\n",
      "note_off channel=0 note=61 velocity=127 time=0.011458333333333333\n",
      "note_on channel=0 note=60 velocity=127 time=0.03333333333333333\n",
      "note_on channel=0 note=62 velocity=127 time=0.016666666666666666\n",
      "note_on channel=0 note=61 velocity=127 time=0.0020833333333333333\n",
      "note_off channel=0 note=60 velocity=127 time=0.0020833333333333333\n",
      "note_off channel=0 note=62 velocity=127 time=0.016666666666666666\n",
      "note_off channel=0 note=61 velocity=127 time=0.0020833333333333333\n",
      "note_on channel=0 note=61 velocity=127 time=0.052083333333333336\n",
      "note_on channel=0 note=60 velocity=127 time=0.0020833333333333333\n",
      "note_on channel=0 note=62 velocity=127 time=0.004166666666666667\n",
      "note_off channel=0 note=61 velocity=127 time=0.0125\n",
      "note_off channel=0 note=60 velocity=127 time=0.0020833333333333333\n",
      "note_off channel=0 note=62 velocity=127 time=0.004166666666666667\n",
      "note_on channel=0 note=61 velocity=127 time=0.04479166666666667\n",
      "note_on channel=0 note=62 velocity=127 time=0.016666666666666666\n",
      "note_off channel=0 note=61 velocity=127 time=0.004166666666666667\n",
      "note_on channel=0 note=60 velocity=127 time=0.003125\n",
      "note_off channel=0 note=62 velocity=127 time=0.0125\n",
      "note_off channel=0 note=60 velocity=127 time=0.007291666666666667\n",
      "note_on channel=0 note=61 velocity=127 time=0.029166666666666667\n",
      "note_off channel=0 note=61 velocity=127 time=0.019791666666666666\n",
      "note_on channel=0 note=62 velocity=127 time=0.005208333333333333\n",
      "note_on channel=0 note=60 velocity=127 time=0.01875\n",
      "note_off channel=0 note=62 velocity=127 time=0.0010416666666666667\n",
      "note_off channel=0 note=60 velocity=127 time=0.01875\n",
      "note_on channel=0 note=61 velocity=127 time=0.008333333333333333\n",
      "note_off channel=0 note=61 velocity=127 time=0.019791666666666666\n",
      "note_on channel=0 note=62 velocity=127 time=0.014583333333333334\n",
      "note_off channel=0 note=62 velocity=127 time=0.019791666666666666\n",
      "note_on channel=0 note=60 velocity=127 time=0.010416666666666666\n",
      "note_on channel=0 note=61 velocity=127 time=0.007291666666666667\n",
      "note_off channel=0 note=60 velocity=127 time=0.0125\n",
      "note_off channel=0 note=61 velocity=127 time=0.007291666666666667\n",
      "note_on channel=0 note=62 velocity=127 time=0.022916666666666665\n",
      "note_off channel=0 note=62 velocity=127 time=0.019791666666666666\n",
      "note_on channel=0 note=61 velocity=127 time=0.008333333333333333\n",
      "note_on channel=0 note=60 velocity=127 time=0.013541666666666667\n",
      "note_off channel=0 note=61 velocity=127 time=0.00625\n",
      "note_off channel=0 note=60 velocity=127 time=0.013541666666666667\n",
      "note_on channel=0 note=62 velocity=127 time=0.01875\n",
      "note_on channel=0 note=61 velocity=127 time=0.019791666666666666\n",
      "note_off channel=0 note=62 velocity=127 time=0\n",
      "note_off channel=0 note=61 velocity=127 time=0.019791666666666666\n",
      "note_on channel=0 note=60 velocity=127 time=0.014583333333333334\n",
      "note_off channel=0 note=60 velocity=127 time=0.019791666666666666\n",
      "note_on channel=0 note=62 velocity=127 time=0.007291666666666667\n",
      "note_on channel=0 note=61 velocity=127 time=0.010416666666666666\n",
      "note_off channel=0 note=62 velocity=127 time=0.009375\n",
      "note_off channel=0 note=61 velocity=127 time=0.010416666666666666\n",
      "note_on channel=0 note=60 velocity=127 time=0.035416666666666666\n",
      "note_on channel=0 note=62 velocity=127 time=0.015625\n",
      "note_on channel=0 note=61 velocity=127 time=0.0010416666666666667\n",
      "note_off channel=0 note=60 velocity=127 time=0.003125\n",
      "note_off channel=0 note=62 velocity=127 time=0.015625\n",
      "note_off channel=0 note=61 velocity=127 time=0.0010416666666666667\n",
      "note_on channel=0 note=61 velocity=127 time=0.052083333333333336\n",
      "note_on channel=0 note=60 velocity=127 time=0.004166666666666667\n",
      "note_on channel=0 note=62 velocity=127 time=0.004166666666666667\n",
      "note_off channel=0 note=61 velocity=127 time=0.0125\n",
      "note_off channel=0 note=60 velocity=127 time=0.004166666666666667\n",
      "note_off channel=0 note=62 velocity=127 time=0.004166666666666667\n",
      "note_on channel=0 note=61 velocity=127 time=0.04479166666666667\n",
      "\u001b[91m [DEBUG] > \u001b[0m\n",
      " |>  to_array: msg.time > max_t; t, n\n",
      " |>  1.9958333333333331\n",
      " |>  100\n",
      "note_on channel=0 note=61 velocity=127 time=0.022916666666666665\n",
      "note_off channel=0 note=61 velocity=127 time=0.019791666666666666\n",
      "note_on channel=0 note=62 velocity=127 time=0.03854166666666667\n",
      "note_off channel=0 note=62 velocity=127 time=0.019791666666666666\n",
      "note_on channel=0 note=60 velocity=127 time=0.03854166666666667\n",
      "note_off channel=0 note=60 velocity=127 time=0.019791666666666666\n",
      "note_on channel=0 note=61 velocity=127 time=0.08333333333333333\n",
      "note_off channel=0 note=61 velocity=127 time=0.019791666666666666\n",
      "note_on channel=0 note=60 velocity=127 time=0.036458333333333336\n",
      "note_off channel=0 note=60 velocity=127 time=0.019791666666666666\n",
      "note_on channel=0 note=62 velocity=127 time=0.036458333333333336\n",
      "note_off channel=0 note=62 velocity=127 time=0.019791666666666666\n",
      "note_on channel=0 note=60 velocity=127 time=0.08229166666666667\n",
      "note_on channel=0 note=61 velocity=127 time=0.004166666666666667\n",
      "note_off channel=0 note=60 velocity=127 time=0.015625\n",
      "note_off channel=0 note=61 velocity=127 time=0.004166666666666667\n",
      "note_on channel=0 note=60 velocity=127 time=0.134375\n",
      "note_on channel=0 note=62 velocity=127 time=0.0125\n",
      "note_off channel=0 note=60 velocity=127 time=0.007291666666666667\n",
      "note_off channel=0 note=62 velocity=127 time=0.0125\n",
      "note_on channel=0 note=61 velocity=127 time=0.03229166666666666\n",
      "note_off channel=0 note=61 velocity=127 time=0.019791666666666666\n",
      "note_on channel=0 note=60 velocity=127 time=0.07395833333333333\n",
      "note_off channel=0 note=60 velocity=127 time=0.019791666666666666\n",
      "note_on channel=0 note=61 velocity=127 time=0.10625\n",
      "note_on channel=0 note=62 velocity=127 time=0.0020833333333333333\n",
      "note_off channel=0 note=61 velocity=127 time=0.017708333333333333\n",
      "note_off channel=0 note=62 velocity=127 time=0.0020833333333333333\n",
      "note_on channel=0 note=60 velocity=127 time=0.011458333333333333\n",
      "note_off channel=0 note=60 velocity=127 time=0.019791666666666666\n",
      "note_on channel=0 note=60 velocity=127 time=0.13958333333333334\n",
      "note_off channel=0 note=60 velocity=127 time=0.019791666666666666\n",
      "note_on channel=0 note=61 velocity=127 time=0.007291666666666667\n",
      "note_off channel=0 note=61 velocity=127 time=0.019791666666666666\n",
      "note_on channel=0 note=62 velocity=127 time=0.036458333333333336\n",
      "note_off channel=0 note=62 velocity=127 time=0.019791666666666666\n",
      "note_on channel=0 note=60 velocity=127 time=0.05520833333333333\n",
      "note_off channel=0 note=60 velocity=127 time=0.019791666666666666\n",
      "note_on channel=0 note=61 velocity=127 time=0.06770833333333333\n",
      "note_off channel=0 note=61 velocity=127 time=0.019791666666666666\n",
      "note_on channel=0 note=60 velocity=127 time=0.051041666666666666\n",
      "note_off channel=0 note=60 velocity=127 time=0.019791666666666666\n",
      "note_on channel=0 note=62 velocity=127 time=0.020833333333333332\n",
      "note_off channel=0 note=62 velocity=127 time=0.019791666666666666\n",
      "note_on channel=0 note=61 velocity=127 time=0.08854166666666667\n",
      "note_on channel=0 note=60 velocity=127 time=0.010416666666666666\n",
      "note_off channel=0 note=61 velocity=127 time=0.009375\n",
      "note_off channel=0 note=60 velocity=127 time=0.010416666666666666\n",
      "note_on channel=0 note=62 velocity=127 time=0.13541666666666666\n",
      "note_on channel=0 note=60 velocity=127 time=0.003125\n",
      "note_off channel=0 note=62 velocity=127 time=0.016666666666666666\n",
      "note_off channel=0 note=60 velocity=127 time=0.003125\n",
      "note_on channel=0 note=61 velocity=127 time=0.030208333333333334\n",
      "note_off channel=0 note=61 velocity=127 time=0.019791666666666666\n",
      "note_on channel=0 note=60 velocity=127 time=0.08958333333333333\n",
      "note_off channel=0 note=60 velocity=127 time=0.019791666666666666\n",
      "note_on channel=0 note=61 velocity=127 time=0.090625\n",
      "\u001b[91m [DEBUG] > \u001b[0m\n",
      " |>  to_array: msg.time > max_t; t, n\n",
      " |>  1.9968749999999995\n",
      " |>  100\n",
      "note_on channel=0 note=61 velocity=127 time=0.013541666666666667\n",
      "note_off channel=0 note=61 velocity=127 time=0.019791666666666666\n",
      "note_on channel=0 note=60 velocity=127 time=0.014583333333333334\n",
      "note_on channel=0 note=62 velocity=127 time=0.014583333333333334\n",
      "note_off channel=0 note=60 velocity=127 time=0.005208333333333333\n",
      "note_off channel=0 note=62 velocity=127 time=0.014583333333333334\n",
      "note_on channel=0 note=60 velocity=127 time=0.04479166666666667\n",
      "note_on channel=0 note=62 velocity=127 time=0.007291666666666667\n",
      "note_on channel=0 note=61 velocity=127 time=0.011458333333333333\n",
      "note_off channel=0 note=60 velocity=127 time=0.0010416666666666667\n",
      "note_off channel=0 note=62 velocity=127 time=0.007291666666666667\n",
      "note_off channel=0 note=61 velocity=127 time=0.011458333333333333\n",
      "note_on channel=0 note=62 velocity=127 time=0.040625\n",
      "note_on channel=0 note=60 velocity=127 time=0\n",
      "note_off channel=0 note=62 velocity=127 time=0.019791666666666666\n",
      "note_off channel=0 note=60 velocity=127 time=0\n",
      "note_on channel=0 note=62 velocity=127 time=0.052083333333333336\n",
      "note_on channel=0 note=61 velocity=127 time=0.0010416666666666667\n",
      "note_on channel=0 note=60 velocity=127 time=0.00625\n",
      "note_off channel=0 note=62 velocity=127 time=0.011458333333333333\n",
      "note_off channel=0 note=61 velocity=127 time=0.0010416666666666667\n",
      "note_off channel=0 note=60 velocity=127 time=0.00625\n",
      "note_on channel=0 note=62 velocity=127 time=0.04375\n",
      "note_on channel=0 note=60 velocity=127 time=0.015625\n",
      "note_off channel=0 note=62 velocity=127 time=0.004166666666666667\n",
      "note_off channel=0 note=60 velocity=127 time=0.015625\n",
      "note_on channel=0 note=61 velocity=127 time=0.027083333333333334\n",
      "note_on channel=0 note=62 velocity=127 time=0.009375\n",
      "note_off channel=0 note=61 velocity=127 time=0.010416666666666666\n",
      "note_off channel=0 note=62 velocity=127 time=0.009375\n",
      "note_on channel=0 note=60 velocity=127 time=0.003125\n",
      "note_off channel=0 note=60 velocity=127 time=0.019791666666666666\n",
      "note_on channel=0 note=62 velocity=127 time=0.029166666666666667\n",
      "note_off channel=0 note=62 velocity=127 time=0.019791666666666666\n",
      "note_on channel=0 note=60 velocity=127 time=0.011458333333333333\n",
      "note_off channel=0 note=60 velocity=127 time=0.019791666666666666\n",
      "note_on channel=0 note=61 velocity=127 time=0.0010416666666666667\n",
      "note_on channel=0 note=62 velocity=127 time=0.019791666666666666\n",
      "note_off channel=0 note=61 velocity=127 time=0\n",
      "note_off channel=0 note=62 velocity=127 time=0.019791666666666666\n",
      "note_on channel=0 note=60 velocity=127 time=0.01875\n",
      "note_off channel=0 note=60 velocity=127 time=0.019791666666666666\n",
      "note_on channel=0 note=62 velocity=127 time=0.013541666666666667\n",
      "note_off channel=0 note=62 velocity=127 time=0.019791666666666666\n",
      "note_on channel=0 note=61 velocity=127 time=0.021875\n",
      "note_on channel=0 note=60 velocity=127 time=0.004166666666666667\n",
      "note_off channel=0 note=61 velocity=127 time=0.015625\n",
      "note_off channel=0 note=60 velocity=127 time=0.004166666666666667\n",
      "note_on channel=0 note=62 velocity=127 time=0.005208333333333333\n",
      "note_off channel=0 note=62 velocity=127 time=0.019791666666666666\n",
      "note_on channel=0 note=60 velocity=127 time=0.034375\n",
      "note_on channel=0 note=62 velocity=127 time=0.017708333333333333\n",
      "note_off channel=0 note=60 velocity=127 time=0.0020833333333333333\n",
      "note_off channel=0 note=62 velocity=127 time=0.017708333333333333\n",
      "note_on channel=0 note=61 velocity=127 time=0.011458333333333333\n",
      "note_off channel=0 note=61 velocity=127 time=0.019791666666666666\n",
      "note_on channel=0 note=60 velocity=127 time=0.010416666666666666\n",
      "note_on channel=0 note=62 velocity=127 time=0.010416666666666666\n",
      "note_off channel=0 note=60 velocity=127 time=0.009375\n",
      "note_off channel=0 note=62 velocity=127 time=0.010416666666666666\n",
      "note_on channel=0 note=60 velocity=127 time=0.05\n",
      "note_on channel=0 note=62 velocity=127 time=0.003125\n",
      "note_off channel=0 note=60 velocity=127 time=0.017708333333333333\n",
      "note_off channel=0 note=62 velocity=127 time=0.003125\n",
      "note_on channel=0 note=61 velocity=127 time=0.0010416666666666667\n",
      "note_off channel=0 note=61 velocity=127 time=0.019791666666666666\n",
      "note_on channel=0 note=62 velocity=127 time=0.03125\n",
      "note_on channel=0 note=60 velocity=127 time=0.005208333333333333\n",
      "note_off channel=0 note=62 velocity=127 time=0.014583333333333334\n",
      "note_off channel=0 note=60 velocity=127 time=0.005208333333333333\n",
      "note_on channel=0 note=62 velocity=127 time=0.046875\n",
      "note_on channel=0 note=61 velocity=127 time=0.010416666666666666\n",
      "note_on channel=0 note=60 velocity=127 time=0.0020833333333333333\n",
      "note_off channel=0 note=62 velocity=127 time=0.007291666666666667\n",
      "note_off channel=0 note=61 velocity=127 time=0.010416666666666666\n",
      "note_off channel=0 note=60 velocity=127 time=0.0020833333333333333\n",
      "note_on channel=0 note=62 velocity=127 time=0.03958333333333333\n",
      "note_off channel=0 note=62 velocity=127 time=0.019791666666666666\n",
      "note_on channel=0 note=60 velocity=127 time=0\n",
      "note_off channel=0 note=60 velocity=127 time=0.019791666666666666\n",
      "note_on channel=0 note=62 velocity=127 time=0.03229166666666666\n",
      "note_on channel=0 note=61 velocity=127 time=0\n",
      "note_off channel=0 note=62 velocity=127 time=0.019791666666666666\n",
      "note_off channel=0 note=61 velocity=127 time=0\n",
      "note_on channel=0 note=60 velocity=127 time=0.007291666666666667\n",
      "note_off channel=0 note=60 velocity=127 time=0.019791666666666666\n",
      "note_on channel=0 note=62 velocity=127 time=0.02395833333333333\n",
      "note_off channel=0 note=62 velocity=127 time=0.019791666666666666\n",
      "note_on channel=0 note=60 velocity=127 time=0.015625\n",
      "note_off channel=0 note=60 velocity=127 time=0.019791666666666666\n",
      "note_on channel=0 note=61 velocity=127 time=0.00625\n",
      "note_on channel=0 note=62 velocity=127 time=0.010416666666666666\n",
      "note_off channel=0 note=61 velocity=127 time=0.010416666666666666\n",
      "note_off channel=0 note=62 velocity=127 time=0.010416666666666666\n",
      "note_on channel=0 note=60 velocity=127 time=0.02395833333333333\n",
      "note_off channel=0 note=60 velocity=127 time=0.019791666666666666\n",
      "note_on channel=0 note=62 velocity=127 time=0.008333333333333333\n",
      "note_off channel=0 note=62 velocity=127 time=0.019791666666666666\n",
      "note_on channel=0 note=60 velocity=127 time=0.03125\n",
      "note_on channel=0 note=61 velocity=127 time=0.0010416666666666667\n",
      "note_off channel=0 note=60 velocity=127 time=0.019791666666666666\n",
      "note_off channel=0 note=61 velocity=127 time=0.0010416666666666667\n",
      "note_on channel=0 note=62 velocity=127 time=0\n",
      "note_off channel=0 note=62 velocity=127 time=0.019791666666666666\n",
      "note_on channel=0 note=60 velocity=127 time=0.03854166666666667\n",
      "note_on channel=0 note=62 velocity=127 time=0.013541666666666667\n",
      "note_off channel=0 note=60 velocity=127 time=0.00625\n",
      "note_off channel=0 note=62 velocity=127 time=0.013541666666666667\n",
      "note_on channel=0 note=61 velocity=127 time=0.020833333333333332\n",
      "note_off channel=0 note=61 velocity=127 time=0.019791666666666666\n",
      "note_on channel=0 note=60 velocity=127 time=0.005208333333333333\n",
      "note_on channel=0 note=62 velocity=127 time=0.005208333333333333\n",
      "note_off channel=0 note=60 velocity=127 time=0.014583333333333334\n",
      "note_off channel=0 note=62 velocity=127 time=0.005208333333333333\n",
      "note_on channel=0 note=62 velocity=127 time=0.052083333333333336\n",
      "note_on channel=0 note=60 velocity=127 time=0.0020833333333333333\n",
      "note_off channel=0 note=62 velocity=127 time=0.017708333333333333\n",
      "note_off channel=0 note=60 velocity=127 time=0.0020833333333333333\n",
      "note_on channel=0 note=61 velocity=127 time=0.009375\n",
      "note_off channel=0 note=61 velocity=127 time=0.019791666666666666\n",
      "note_on channel=0 note=62 velocity=127 time=0.021875\n",
      "note_on channel=0 note=60 velocity=127 time=0.009375\n",
      "note_off channel=0 note=62 velocity=127 time=0.010416666666666666\n",
      "note_off channel=0 note=60 velocity=127 time=0.009375\n",
      "note_on channel=0 note=62 velocity=127 time=0.042708333333333334\n",
      "note_on channel=0 note=60 velocity=127 time=0.017708333333333333\n",
      "note_off channel=0 note=62 velocity=127 time=0.0020833333333333333\n",
      "note_on channel=0 note=61 velocity=127 time=0\n",
      "note_off channel=0 note=60 velocity=127 time=0.016666666666666666\n",
      "note_off channel=0 note=61 velocity=127 time=0.003125\n",
      "note_on channel=0 note=62 velocity=127 time=0.03229166666666666\n",
      "note_off channel=0 note=62 velocity=127 time=0.019791666666666666\n",
      "note_on channel=0 note=60 velocity=127 time=0.005208333333333333\n",
      "note_off channel=0 note=60 velocity=127 time=0.019791666666666666\n",
      "note_on channel=0 note=62 velocity=127 time=0.027083333333333334\n",
      "\u001b[91m [DEBUG] > \u001b[0m\n",
      " |>  to_array: msg.time > max_t; t, n\n",
      " |>  2.0031250000000003\n",
      " |>  100\n",
      "note_on channel=0 note=60 velocity=127 time=0.07604166666666666\n",
      "note_off channel=0 note=60 velocity=127 time=0.019791666666666666\n",
      "note_on channel=0 note=61 velocity=127 time=0.011458333333333333\n",
      "note_off channel=0 note=61 velocity=127 time=0.019791666666666666\n",
      "note_on channel=0 note=60 velocity=127 time=0.09270833333333334\n",
      "note_off channel=0 note=60 velocity=127 time=0.019791666666666666\n",
      "note_on channel=0 note=62 velocity=127 time=0.03854166666666667\n",
      "note_off channel=0 note=62 velocity=127 time=0.019791666666666666\n",
      "note_on channel=0 note=61 velocity=127 time=0.019791666666666666\n",
      "note_off channel=0 note=61 velocity=127 time=0.019791666666666666\n",
      "note_on channel=0 note=60 velocity=127 time=0.026041666666666668\n",
      "note_off channel=0 note=60 velocity=127 time=0.019791666666666666\n",
      "note_on channel=0 note=60 velocity=127 time=0.12395833333333334\n",
      "note_off channel=0 note=60 velocity=127 time=0.019791666666666666\n",
      "note_on channel=0 note=61 velocity=127 time=0.0010416666666666667\n",
      "note_off channel=0 note=61 velocity=127 time=0.019791666666666666\n",
      "note_on channel=0 note=62 velocity=127 time=0.026041666666666668\n",
      "note_off channel=0 note=62 velocity=127 time=0.019791666666666666\n",
      "note_on channel=0 note=60 velocity=127 time=0.057291666666666664\n",
      "note_off channel=0 note=60 velocity=127 time=0.019791666666666666\n",
      "note_on channel=0 note=61 velocity=127 time=0.06875\n",
      "note_off channel=0 note=61 velocity=127 time=0.019791666666666666\n",
      "note_on channel=0 note=60 velocity=127 time=0.035416666666666666\n",
      "note_off channel=0 note=60 velocity=127 time=0.019791666666666666\n",
      "note_on channel=0 note=62 velocity=127 time=0.05520833333333333\n",
      "note_off channel=0 note=62 velocity=127 time=0.019791666666666666\n",
      "note_on channel=0 note=60 velocity=127 time=0.04895833333333333\n",
      "note_on channel=0 note=61 velocity=127 time=0.011458333333333333\n",
      "note_off channel=0 note=60 velocity=127 time=0.008333333333333333\n",
      "note_off channel=0 note=61 velocity=127 time=0.011458333333333333\n",
      "note_on channel=0 note=60 velocity=127 time=0.1125\n",
      "note_off channel=0 note=60 velocity=127 time=0.019791666666666666\n",
      "note_on channel=0 note=61 velocity=127 time=0.058333333333333334\n",
      "note_on channel=0 note=62 velocity=127 time=0.005208333333333333\n",
      "note_off channel=0 note=61 velocity=127 time=0.014583333333333334\n",
      "note_off channel=0 note=62 velocity=127 time=0.005208333333333333\n",
      "note_on channel=0 note=60 velocity=127 time=0.040625\n",
      "note_off channel=0 note=60 velocity=127 time=0.019791666666666666\n",
      "note_on channel=0 note=60 velocity=127 time=0.12395833333333334\n",
      "note_on channel=0 note=61 velocity=127 time=0.0010416666666666667\n",
      "note_off channel=0 note=60 velocity=127 time=0.01875\n",
      "note_off channel=0 note=61 velocity=127 time=0.0010416666666666667\n",
      "note_on channel=0 note=62 velocity=127 time=0.07083333333333333\n",
      "note_off channel=0 note=62 velocity=127 time=0.019791666666666666\n",
      "note_on channel=0 note=60 velocity=127 time=0.03229166666666666\n",
      "note_off channel=0 note=60 velocity=127 time=0.019791666666666666\n",
      "note_on channel=0 note=61 velocity=127 time=0.04791666666666666\n",
      "note_off channel=0 note=61 velocity=127 time=0.019791666666666666\n",
      "note_on channel=0 note=60 velocity=127 time=0.05625\n",
      "note_off channel=0 note=60 velocity=127 time=0.019791666666666666\n",
      "note_on channel=0 note=62 velocity=127 time=0.08020833333333333\n",
      "note_off channel=0 note=62 velocity=127 time=0.019791666666666666\n",
      "note_on channel=0 note=61 velocity=127 time=0.014583333333333334\n",
      "note_on channel=0 note=60 velocity=127 time=0.009375\n",
      "note_off channel=0 note=61 velocity=127 time=0.010416666666666666\n",
      "note_off channel=0 note=60 velocity=127 time=0.009375\n",
      "note_on channel=0 note=60 velocity=127 time=0.12395833333333334\n",
      "note_off channel=0 note=60 velocity=127 time=0.019791666666666666\n",
      "note_on channel=0 note=61 velocity=127 time=0.0375\n",
      "\u001b[91m [DEBUG] > \u001b[0m\n",
      " |>  to_array: msg.time > max_t; t, n\n",
      " |>  2.0020833333333323\n",
      " |>  100\n",
      "note_on channel=0 note=61 velocity=127 time=0.0010416666666666667\n",
      "note_off channel=0 note=61 velocity=127 time=0.019791666666666666\n",
      "note_on channel=0 note=62 velocity=127 time=0.005208333333333333\n",
      "note_off channel=0 note=62 velocity=127 time=0.019791666666666666\n",
      "note_on channel=0 note=60 velocity=127 time=0.007291666666666667\n",
      "note_off channel=0 note=60 velocity=127 time=0.019791666666666666\n",
      "note_on channel=0 note=61 velocity=127 time=0.005208333333333333\n",
      "note_off channel=0 note=61 velocity=127 time=0.019791666666666666\n",
      "note_on channel=0 note=61 velocity=127 time=0.057291666666666664\n",
      "note_off channel=0 note=61 velocity=127 time=0.019791666666666666\n",
      "note_on channel=0 note=60 velocity=127 time=0.030208333333333334\n",
      "note_off channel=0 note=60 velocity=127 time=0.019791666666666666\n",
      "note_on channel=0 note=61 velocity=127 time=0.00625\n",
      "note_off channel=0 note=61 velocity=127 time=0.019791666666666666\n",
      "note_on channel=0 note=62 velocity=127 time=0.0010416666666666667\n",
      "note_off channel=0 note=62 velocity=127 time=0.019791666666666666\n",
      "note_on channel=0 note=61 velocity=127 time=0.035416666666666666\n",
      "note_off channel=0 note=61 velocity=127 time=0.019791666666666666\n",
      "note_on channel=0 note=60 velocity=127 time=0.029166666666666667\n",
      "note_off channel=0 note=60 velocity=127 time=0.019791666666666666\n",
      "note_on channel=0 note=61 velocity=127 time=0.008333333333333333\n",
      "note_off channel=0 note=61 velocity=127 time=0.019791666666666666\n",
      "note_on channel=0 note=61 velocity=127 time=0.057291666666666664\n",
      "note_on channel=0 note=62 velocity=127 time=0.017708333333333333\n",
      "note_off channel=0 note=61 velocity=127 time=0.003125\n",
      "note_off channel=0 note=62 velocity=127 time=0.017708333333333333\n",
      "note_on channel=0 note=60 velocity=127 time=0.010416666666666666\n",
      "note_off channel=0 note=60 velocity=127 time=0.019791666666666666\n",
      "note_on channel=0 note=61 velocity=127 time=0.009375\n",
      "note_off channel=0 note=61 velocity=127 time=0.019791666666666666\n",
      "note_on channel=0 note=61 velocity=127 time=0.057291666666666664\n",
      "note_off channel=0 note=61 velocity=127 time=0.019791666666666666\n",
      "note_on channel=0 note=60 velocity=127 time=0.026041666666666668\n",
      "note_off channel=0 note=60 velocity=127 time=0.019791666666666666\n",
      "note_on channel=0 note=61 velocity=127 time=0.011458333333333333\n",
      "note_on channel=0 note=62 velocity=127 time=0.013541666666666667\n",
      "note_off channel=0 note=61 velocity=127 time=0.00625\n",
      "note_off channel=0 note=62 velocity=127 time=0.013541666666666667\n",
      "note_on channel=0 note=61 velocity=127 time=0.04375\n",
      "note_off channel=0 note=61 velocity=127 time=0.019791666666666666\n",
      "note_on channel=0 note=60 velocity=127 time=0.02395833333333333\n",
      "note_off channel=0 note=60 velocity=127 time=0.019791666666666666\n",
      "note_on channel=0 note=61 velocity=127 time=0.0125\n",
      "note_off channel=0 note=61 velocity=127 time=0.019791666666666666\n",
      "note_on channel=0 note=61 velocity=127 time=0.057291666666666664\n",
      "note_on channel=0 note=62 velocity=127 time=0.009375\n",
      "note_off channel=0 note=61 velocity=127 time=0.010416666666666666\n",
      "note_off channel=0 note=62 velocity=127 time=0.009375\n",
      "note_on channel=0 note=60 velocity=127 time=0.0125\n",
      "note_off channel=0 note=60 velocity=127 time=0.019791666666666666\n",
      "note_on channel=0 note=61 velocity=127 time=0.014583333333333334\n",
      "note_off channel=0 note=61 velocity=127 time=0.019791666666666666\n",
      "note_on channel=0 note=61 velocity=127 time=0.057291666666666664\n",
      "note_off channel=0 note=61 velocity=127 time=0.019791666666666666\n",
      "note_on channel=0 note=60 velocity=127 time=0.020833333333333332\n",
      "note_off channel=0 note=60 velocity=127 time=0.019791666666666666\n",
      "note_on channel=0 note=61 velocity=127 time=0.015625\n",
      "note_on channel=0 note=62 velocity=127 time=0.00625\n",
      "note_off channel=0 note=61 velocity=127 time=0.013541666666666667\n",
      "note_off channel=0 note=62 velocity=127 time=0.00625\n",
      "note_on channel=0 note=61 velocity=127 time=0.051041666666666666\n",
      "note_off channel=0 note=61 velocity=127 time=0.019791666666666666\n",
      "note_on channel=0 note=60 velocity=127 time=0.019791666666666666\n",
      "note_off channel=0 note=60 velocity=127 time=0.019791666666666666\n",
      "note_on channel=0 note=61 velocity=127 time=0.017708333333333333\n",
      "note_off channel=0 note=61 velocity=127 time=0.019791666666666666\n",
      "note_on channel=0 note=61 velocity=127 time=0.057291666666666664\n",
      "note_on channel=0 note=62 velocity=127 time=0.0020833333333333333\n",
      "note_off channel=0 note=61 velocity=127 time=0.017708333333333333\n",
      "note_off channel=0 note=62 velocity=127 time=0.0020833333333333333\n",
      "note_on channel=0 note=60 velocity=127 time=0.015625\n",
      "note_off channel=0 note=60 velocity=127 time=0.019791666666666666\n",
      "note_on channel=0 note=61 velocity=127 time=0.01875\n",
      "note_off channel=0 note=61 velocity=127 time=0.019791666666666666\n",
      "note_on channel=0 note=61 velocity=127 time=0.057291666666666664\n",
      "note_off channel=0 note=61 velocity=127 time=0.019791666666666666\n",
      "note_on channel=0 note=60 velocity=127 time=0.016666666666666666\n",
      "note_off channel=0 note=60 velocity=127 time=0.019791666666666666\n",
      "note_on channel=0 note=62 velocity=127 time=0.01875\n",
      "note_on channel=0 note=61 velocity=127 time=0.0020833333333333333\n",
      "note_off channel=0 note=62 velocity=127 time=0.01875\n",
      "note_off channel=0 note=61 velocity=127 time=0.0020833333333333333\n",
      "note_on channel=0 note=61 velocity=127 time=0.057291666666666664\n",
      "note_off channel=0 note=61 velocity=127 time=0.019791666666666666\n",
      "note_on channel=0 note=60 velocity=127 time=0.014583333333333334\n",
      "note_off channel=0 note=60 velocity=127 time=0.019791666666666666\n",
      "note_on channel=0 note=61 velocity=127 time=0.021875\n",
      "note_off channel=0 note=61 velocity=127 time=0.019791666666666666\n",
      "note_on channel=0 note=62 velocity=127 time=0.051041666666666666\n",
      "note_on channel=0 note=61 velocity=127 time=0.005208333333333333\n",
      "note_off channel=0 note=62 velocity=127 time=0.014583333333333334\n",
      "note_off channel=0 note=61 velocity=127 time=0.005208333333333333\n",
      "note_on channel=0 note=60 velocity=127 time=0.013541666666666667\n",
      "note_off channel=0 note=60 velocity=127 time=0.019791666666666666\n",
      "note_on channel=0 note=61 velocity=127 time=0.02395833333333333\n",
      "note_off channel=0 note=61 velocity=127 time=0.019791666666666666\n",
      "note_on channel=0 note=61 velocity=127 time=0.057291666666666664\n",
      "\u001b[91m [DEBUG] > \u001b[0m\n",
      " |>  to_array: msg.time > max_t; t, n\n",
      " |>  1.9989583333333336\n",
      " |>  100\n"
     ]
    },
    {
     "name": "stdout",
     "output_type": "stream",
     "text": [
      "note_on channel=0 note=60 velocity=127 time=0.011458333333333333\n",
      "note_off channel=0 note=60 velocity=127 time=0.019791666666666666\n",
      "note_on channel=0 note=61 velocity=127 time=0.009375\n",
      "note_off channel=0 note=61 velocity=127 time=0.019791666666666666\n",
      "note_on channel=0 note=62 velocity=127 time=0.015625\n",
      "note_on channel=0 note=60 velocity=127 time=0.010416666666666666\n",
      "note_off channel=0 note=62 velocity=127 time=0.010416666666666666\n",
      "note_off channel=0 note=60 velocity=127 time=0.010416666666666666\n",
      "note_on channel=0 note=61 velocity=127 time=0.034375\n",
      "note_off channel=0 note=61 velocity=127 time=0.019791666666666666\n",
      "note_on channel=0 note=60 velocity=127 time=0\n",
      "note_on channel=0 note=62 velocity=127 time=0.004166666666666667\n",
      "note_off channel=0 note=60 velocity=127 time=0.016666666666666666\n",
      "note_off channel=0 note=62 velocity=127 time=0.004166666666666667\n",
      "note_on channel=0 note=60 velocity=127 time=0.051041666666666666\n",
      "note_on channel=0 note=61 velocity=127 time=0.005208333333333333\n",
      "note_on channel=0 note=62 velocity=127 time=0.0125\n",
      "note_off channel=0 note=60 velocity=127 time=0.0020833333333333333\n",
      "note_off channel=0 note=61 velocity=127 time=0.005208333333333333\n",
      "note_off channel=0 note=62 velocity=127 time=0.0125\n",
      "note_on channel=0 note=60 velocity=127 time=0.0375\n",
      "note_off channel=0 note=60 velocity=127 time=0.019791666666666666\n",
      "note_on channel=0 note=61 velocity=127 time=0.010416666666666666\n",
      "note_on channel=0 note=62 velocity=127 time=0\n",
      "note_off channel=0 note=61 velocity=127 time=0.019791666666666666\n",
      "note_off channel=0 note=62 velocity=127 time=0\n",
      "note_on channel=0 note=60 velocity=127 time=0.02395833333333333\n",
      "note_off channel=0 note=60 velocity=127 time=0.019791666666666666\n",
      "note_on channel=0 note=62 velocity=127 time=0.025\n",
      "note_on channel=0 note=61 velocity=127 time=0.011458333333333333\n",
      "note_off channel=0 note=62 velocity=127 time=0.008333333333333333\n",
      "note_on channel=0 note=60 velocity=127 time=0.010416666666666666\n",
      "note_off channel=0 note=61 velocity=127 time=0.0020833333333333333\n",
      "note_off channel=0 note=60 velocity=127 time=0.01875\n",
      "note_on channel=0 note=62 velocity=127 time=0.03854166666666667\n",
      "note_on channel=0 note=60 velocity=127 time=0.016666666666666666\n",
      "note_off channel=0 note=62 velocity=127 time=0.004166666666666667\n",
      "note_on channel=0 note=61 velocity=127 time=0.003125\n",
      "note_off channel=0 note=60 velocity=127 time=0.0125\n",
      "note_off channel=0 note=61 velocity=127 time=0.007291666666666667\n",
      "note_on channel=0 note=62 velocity=127 time=0.04479166666666667\n",
      "note_on channel=0 note=60 velocity=127 time=0.0020833333333333333\n",
      "note_off channel=0 note=62 velocity=127 time=0.017708333333333333\n",
      "note_off channel=0 note=60 velocity=127 time=0.0020833333333333333\n",
      "note_on channel=0 note=61 velocity=127 time=0.0125\n",
      "note_off channel=0 note=61 velocity=127 time=0.019791666666666666\n",
      "note_on channel=0 note=60 velocity=127 time=0.021875\n",
      "note_on channel=0 note=62 velocity=127 time=0.011458333333333333\n",
      "note_off channel=0 note=60 velocity=127 time=0.008333333333333333\n",
      "note_off channel=0 note=62 velocity=127 time=0.011458333333333333\n",
      "note_on channel=0 note=61 velocity=127 time=0.027083333333333334\n",
      "note_on channel=0 note=60 velocity=127 time=0.016666666666666666\n",
      "note_off channel=0 note=61 velocity=127 time=0.003125\n",
      "note_off channel=0 note=60 velocity=127 time=0.016666666666666666\n",
      "note_on channel=0 note=62 velocity=127 time=0.005208333333333333\n",
      "note_off channel=0 note=62 velocity=127 time=0.019791666666666666\n",
      "note_on channel=0 note=60 velocity=127 time=0.030208333333333334\n",
      "note_on channel=0 note=61 velocity=127 time=0.009375\n",
      "note_off channel=0 note=60 velocity=127 time=0.011458333333333333\n",
      "note_off channel=0 note=61 velocity=127 time=0.009375\n",
      "note_on channel=0 note=62 velocity=127 time=0.009375\n",
      "note_off channel=0 note=62 velocity=127 time=0.019791666666666666\n",
      "note_on channel=0 note=60 velocity=127 time=0.016666666666666666\n",
      "note_off channel=0 note=60 velocity=127 time=0.019791666666666666\n",
      "note_on channel=0 note=61 velocity=127 time=0.014583333333333334\n",
      "note_on channel=0 note=62 velocity=127 time=0.017708333333333333\n",
      "note_off channel=0 note=61 velocity=127 time=0.0020833333333333333\n",
      "note_off channel=0 note=62 velocity=127 time=0.017708333333333333\n",
      "note_on channel=0 note=60 velocity=127 time=0.0020833333333333333\n",
      "note_off channel=0 note=60 velocity=127 time=0.019791666666666666\n",
      "note_on channel=0 note=61 velocity=127 time=0.03958333333333333\n",
      "note_on channel=0 note=62 velocity=127 time=0.00625\n",
      "note_on channel=0 note=60 velocity=127 time=0.008333333333333333\n",
      "note_off channel=0 note=61 velocity=127 time=0.005208333333333333\n",
      "note_off channel=0 note=62 velocity=127 time=0.00625\n",
      "note_off channel=0 note=60 velocity=127 time=0.008333333333333333\n",
      "note_on channel=0 note=60 velocity=127 time=0.05520833333333333\n",
      "note_on channel=0 note=62 velocity=127 time=0.005208333333333333\n",
      "note_on channel=0 note=61 velocity=127 time=0.00625\n",
      "note_off channel=0 note=60 velocity=127 time=0.009375\n",
      "note_off channel=0 note=62 velocity=127 time=0.005208333333333333\n",
      "note_off channel=0 note=61 velocity=127 time=0.00625\n",
      "note_on channel=0 note=60 velocity=127 time=0.04375\n",
      "note_on channel=0 note=62 velocity=127 time=0.01875\n",
      "note_off channel=0 note=60 velocity=127 time=0.0010416666666666667\n",
      "note_on channel=0 note=61 velocity=127 time=0.016666666666666666\n",
      "note_off channel=0 note=62 velocity=127 time=0.0020833333333333333\n",
      "note_off channel=0 note=61 velocity=127 time=0.017708333333333333\n",
      "note_on channel=0 note=60 velocity=127 time=0.01875\n",
      "note_off channel=0 note=60 velocity=127 time=0.019791666666666666\n",
      "note_on channel=0 note=62 velocity=127 time=0.0125\n",
      "note_off channel=0 note=62 velocity=127 time=0.019791666666666666\n",
      "note_on channel=0 note=61 velocity=127 time=0.009375\n",
      "note_on channel=0 note=60 velocity=127 time=0.0125\n",
      "note_off channel=0 note=61 velocity=127 time=0.007291666666666667\n",
      "note_off channel=0 note=60 velocity=127 time=0.0125\n",
      "note_on channel=0 note=62 velocity=127 time=0.026041666666666668\n",
      "note_off channel=0 note=62 velocity=127 time=0.019791666666666666\n",
      "note_on channel=0 note=60 velocity=127 time=0.008333333333333333\n",
      "note_on channel=0 note=61 velocity=127 time=0.0125\n",
      "note_off channel=0 note=60 velocity=127 time=0.007291666666666667\n",
      "note_off channel=0 note=61 velocity=127 time=0.0125\n",
      "note_on channel=0 note=62 velocity=127 time=0.027083333333333334\n",
      "note_on channel=0 note=60 velocity=127 time=0.014583333333333334\n",
      "note_off channel=0 note=62 velocity=127 time=0.005208333333333333\n",
      "note_off channel=0 note=60 velocity=127 time=0.014583333333333334\n",
      "note_on channel=0 note=61 velocity=127 time=0.017708333333333333\n",
      "note_off channel=0 note=61 velocity=127 time=0.019791666666666666\n",
      "note_on channel=0 note=62 velocity=127 time=0.015625\n",
      "note_on channel=0 note=60 velocity=127 time=0.0010416666666666667\n",
      "note_off channel=0 note=62 velocity=127 time=0.01875\n",
      "note_off channel=0 note=60 velocity=127 time=0.0010416666666666667\n",
      "note_on channel=0 note=61 velocity=127 time=0.04375\n",
      "note_on channel=0 note=60 velocity=127 time=0.011458333333333333\n",
      "note_off channel=0 note=61 velocity=127 time=0.009375\n",
      "note_on channel=0 note=62 velocity=127 time=0.003125\n",
      "note_off channel=0 note=60 velocity=127 time=0.007291666666666667\n",
      "note_off channel=0 note=62 velocity=127 time=0.0125\n",
      "note_on channel=0 note=60 velocity=127 time=0.042708333333333334\n",
      "note_on channel=0 note=61 velocity=127 time=0.014583333333333334\n",
      "note_off channel=0 note=60 velocity=127 time=0.005208333333333333\n",
      "note_on channel=0 note=62 velocity=127 time=0.00625\n",
      "note_off channel=0 note=61 velocity=127 time=0.008333333333333333\n",
      "note_off channel=0 note=62 velocity=127 time=0.011458333333333333\n",
      "note_on channel=0 note=60 velocity=127 time=0.029166666666666667\n",
      "note_off channel=0 note=60 velocity=127 time=0.019791666666666666\n",
      "note_on channel=0 note=62 velocity=127 time=0.019791666666666666\n",
      "note_on channel=0 note=61 velocity=127 time=0\n",
      "note_off channel=0 note=62 velocity=127 time=0.019791666666666666\n",
      "note_off channel=0 note=61 velocity=127 time=0\n",
      "note_on channel=0 note=60 velocity=127 time=0.014583333333333334\n",
      "note_off channel=0 note=60 velocity=127 time=0.019791666666666666\n",
      "note_on channel=0 note=62 velocity=127 time=0.03333333333333333\n",
      "note_on channel=0 note=61 velocity=127 time=0.0125\n",
      "note_off channel=0 note=62 velocity=127 time=0.008333333333333333\n",
      "note_on channel=0 note=60 velocity=127 time=0.0010416666666666667\n",
      "note_off channel=0 note=61 velocity=127 time=0.010416666666666666\n",
      "note_off channel=0 note=60 velocity=127 time=0.009375\n",
      "note_on channel=0 note=62 velocity=127 time=0.046875\n",
      "\u001b[91m [DEBUG] > \u001b[0m\n",
      " |>  to_array: msg.time > max_t; t, n\n",
      " |>  2.0218749999999996\n",
      " |>  100\n",
      "note_on channel=0 note=61 velocity=127 time=0.04375\n",
      "note_on channel=0 note=60 velocity=127 time=0.017708333333333333\n",
      "note_off channel=0 note=61 velocity=127 time=0.0020833333333333333\n",
      "note_off channel=0 note=60 velocity=127 time=0.017708333333333333\n",
      "note_on channel=0 note=62 velocity=127 time=0.009375\n",
      "note_off channel=0 note=62 velocity=127 time=0.019791666666666666\n",
      "note_on channel=0 note=61 velocity=127 time=0.004166666666666667\n",
      "note_on channel=0 note=60 velocity=127 time=0.013541666666666667\n",
      "note_off channel=0 note=61 velocity=127 time=0.00625\n",
      "note_off channel=0 note=60 velocity=127 time=0.013541666666666667\n",
      "note_on channel=0 note=61 velocity=127 time=0.0375\n",
      "note_on channel=0 note=60 velocity=127 time=0.010416666666666666\n",
      "note_off channel=0 note=61 velocity=127 time=0.010416666666666666\n",
      "note_on channel=0 note=62 velocity=127 time=0.0020833333333333333\n",
      "note_off channel=0 note=60 velocity=127 time=0.008333333333333333\n",
      "note_off channel=0 note=62 velocity=127 time=0.0125\n",
      "note_on channel=0 note=61 velocity=127 time=0.029166666666666667\n",
      "note_on channel=0 note=60 velocity=127 time=0.00625\n",
      "note_off channel=0 note=61 velocity=127 time=0.013541666666666667\n",
      "note_off channel=0 note=60 velocity=127 time=0.00625\n",
      "note_on channel=0 note=62 velocity=127 time=0.042708333333333334\n",
      "note_on channel=0 note=61 velocity=127 time=0.003125\n",
      "note_on channel=0 note=60 velocity=127 time=0.0020833333333333333\n",
      "note_off channel=0 note=62 velocity=127 time=0.014583333333333334\n",
      "note_off channel=0 note=61 velocity=127 time=0.003125\n",
      "note_off channel=0 note=60 velocity=127 time=0.0020833333333333333\n",
      "note_on channel=0 note=60 velocity=127 time=0.04791666666666666\n",
      "note_on channel=0 note=61 velocity=127 time=0.0010416666666666667\n",
      "note_off channel=0 note=60 velocity=127 time=0.01875\n",
      "note_off channel=0 note=61 velocity=127 time=0.0010416666666666667\n",
      "note_on channel=0 note=62 velocity=127 time=0.02395833333333333\n",
      "note_off channel=0 note=62 velocity=127 time=0.019791666666666666\n",
      "note_on channel=0 note=60 velocity=127 time=0.003125\n",
      "note_on channel=0 note=61 velocity=127 time=0.005208333333333333\n",
      "note_off channel=0 note=60 velocity=127 time=0.015625\n",
      "note_off channel=0 note=61 velocity=127 time=0.005208333333333333\n",
      "note_on channel=0 note=60 velocity=127 time=0.042708333333333334\n",
      "note_on channel=0 note=61 velocity=127 time=0.008333333333333333\n",
      "note_off channel=0 note=60 velocity=127 time=0.011458333333333333\n",
      "note_on channel=0 note=62 velocity=127 time=0.007291666666666667\n",
      "note_off channel=0 note=61 velocity=127 time=0.0010416666666666667\n",
      "note_off channel=0 note=62 velocity=127 time=0.01875\n",
      "note_on channel=0 note=60 velocity=127 time=0.019791666666666666\n",
      "note_on channel=0 note=61 velocity=127 time=0.0125\n",
      "note_off channel=0 note=60 velocity=127 time=0.007291666666666667\n",
      "note_off channel=0 note=61 velocity=127 time=0.0125\n",
      "note_on channel=0 note=60 velocity=127 time=0.035416666666666666\n",
      "note_on channel=0 note=62 velocity=127 time=0.010416666666666666\n",
      "note_on channel=0 note=61 velocity=127 time=0.00625\n",
      "note_off channel=0 note=60 velocity=127 time=0.004166666666666667\n",
      "note_off channel=0 note=62 velocity=127 time=0.010416666666666666\n",
      "note_off channel=0 note=61 velocity=127 time=0.00625\n",
      "note_on channel=0 note=60 velocity=127 time=0.03125\n",
      "note_on channel=0 note=61 velocity=127 time=0.019791666666666666\n",
      "note_off channel=0 note=60 velocity=127 time=0\n",
      "note_off channel=0 note=61 velocity=127 time=0.019791666666666666\n",
      "note_on channel=0 note=62 velocity=127 time=0.020833333333333332\n",
      "note_on channel=0 note=60 velocity=127 time=0.007291666666666667\n",
      "note_off channel=0 note=62 velocity=127 time=0.0125\n",
      "note_off channel=0 note=60 velocity=127 time=0.007291666666666667\n",
      "note_on channel=0 note=61 velocity=127 time=0.003125\n",
      "note_off channel=0 note=61 velocity=127 time=0.019791666666666666\n",
      "note_on channel=0 note=60 velocity=127 time=0.02395833333333333\n",
      "note_off channel=0 note=60 velocity=127 time=0.019791666666666666\n",
      "note_on channel=0 note=61 velocity=127 time=0.007291666666666667\n",
      "note_on channel=0 note=62 velocity=127 time=0.015625\n",
      "note_off channel=0 note=61 velocity=127 time=0.004166666666666667\n",
      "note_off channel=0 note=62 velocity=127 time=0.015625\n",
      "note_on channel=0 note=60 velocity=127 time=0.004166666666666667\n",
      "note_off channel=0 note=60 velocity=127 time=0.019791666666666666\n",
      "note_on channel=0 note=61 velocity=127 time=0.010416666666666666\n",
      "note_off channel=0 note=61 velocity=127 time=0.019791666666666666\n",
      "note_on channel=0 note=60 velocity=127 time=0.016666666666666666\n",
      "note_off channel=0 note=60 velocity=127 time=0.019791666666666666\n",
      "note_on channel=0 note=62 velocity=127 time=0.005208333333333333\n",
      "note_on channel=0 note=61 velocity=127 time=0.009375\n",
      "note_off channel=0 note=62 velocity=127 time=0.011458333333333333\n",
      "note_off channel=0 note=61 velocity=127 time=0.009375\n",
      "note_on channel=0 note=60 velocity=127 time=0.013541666666666667\n",
      "note_off channel=0 note=60 velocity=127 time=0.019791666666666666\n",
      "note_on channel=0 note=61 velocity=127 time=0.01875\n",
      "note_off channel=0 note=61 velocity=127 time=0.019791666666666666\n",
      "note_on channel=0 note=60 velocity=127 time=0.009375\n",
      "note_on channel=0 note=62 velocity=127 time=0.008333333333333333\n",
      "note_off channel=0 note=60 velocity=127 time=0.011458333333333333\n",
      "note_off channel=0 note=62 velocity=127 time=0.008333333333333333\n",
      "note_on channel=0 note=61 velocity=127 time=0.013541666666666667\n",
      "note_off channel=0 note=61 velocity=127 time=0.019791666666666666\n",
      "note_on channel=0 note=60 velocity=127 time=0.005208333333333333\n",
      "note_off channel=0 note=60 velocity=127 time=0.019791666666666666\n",
      "note_on channel=0 note=61 velocity=127 time=0.026041666666666668\n",
      "note_on channel=0 note=62 velocity=127 time=0.0125\n",
      "note_off channel=0 note=61 velocity=127 time=0.007291666666666667\n",
      "note_on channel=0 note=60 velocity=127 time=0.0020833333333333333\n",
      "note_off channel=0 note=62 velocity=127 time=0.010416666666666666\n",
      "note_off channel=0 note=60 velocity=127 time=0.009375\n",
      "note_on channel=0 note=61 velocity=127 time=0.029166666666666667\n",
      "note_on channel=0 note=60 velocity=127 time=0.01875\n",
      "note_off channel=0 note=61 velocity=127 time=0.0020833333333333333\n",
      "note_off channel=0 note=60 velocity=127 time=0.01875\n",
      "note_on channel=0 note=62 velocity=127 time=0.020833333333333332\n",
      "note_on channel=0 note=61 velocity=127 time=0.0125\n",
      "note_off channel=0 note=62 velocity=127 time=0.008333333333333333\n",
      "note_on channel=0 note=60 velocity=127 time=0.00625\n",
      "note_off channel=0 note=61 velocity=127 time=0.005208333333333333\n",
      "note_off channel=0 note=60 velocity=127 time=0.014583333333333334\n",
      "note_on channel=0 note=61 velocity=127 time=0.036458333333333336\n",
      "note_on channel=0 note=60 velocity=127 time=0.010416666666666666\n",
      "note_off channel=0 note=61 velocity=127 time=0.009375\n",
      "note_off channel=0 note=60 velocity=127 time=0.010416666666666666\n",
      "note_on channel=0 note=62 velocity=127 time=0.004166666666666667\n",
      "note_off channel=0 note=62 velocity=127 time=0.019791666666666666\n",
      "note_on channel=0 note=61 velocity=127 time=0.016666666666666666\n",
      "note_on channel=0 note=60 velocity=127 time=0.007291666666666667\n",
      "note_off channel=0 note=61 velocity=127 time=0.0125\n",
      "note_off channel=0 note=60 velocity=127 time=0.007291666666666667\n",
      "note_on channel=0 note=61 velocity=127 time=0.04479166666666667\n",
      "note_on channel=0 note=60 velocity=127 time=0.003125\n",
      "note_on channel=0 note=62 velocity=127 time=0.00625\n",
      "note_off channel=0 note=61 velocity=127 time=0.010416666666666666\n",
      "note_off channel=0 note=60 velocity=127 time=0.003125\n",
      "note_off channel=0 note=62 velocity=127 time=0.00625\n",
      "note_on channel=0 note=60 velocity=127 time=0.041666666666666664\n",
      "note_on channel=0 note=61 velocity=127 time=0\n",
      "note_off channel=0 note=60 velocity=127 time=0.019791666666666666\n",
      "note_off channel=0 note=61 velocity=127 time=0\n",
      "note_on channel=0 note=62 velocity=127 time=0.036458333333333336\n",
      "note_on channel=0 note=60 velocity=127 time=0.011458333333333333\n",
      "note_on channel=0 note=61 velocity=127 time=0.004166666666666667\n",
      "note_off channel=0 note=62 velocity=127 time=0.005208333333333333\n",
      "note_off channel=0 note=60 velocity=127 time=0.011458333333333333\n",
      "note_off channel=0 note=61 velocity=127 time=0.004166666666666667\n",
      "note_on channel=0 note=60 velocity=127 time=0.04375\n",
      "note_on channel=0 note=61 velocity=127 time=0.007291666666666667\n",
      "note_off channel=0 note=60 velocity=127 time=0.0125\n",
      "note_off channel=0 note=61 velocity=127 time=0.007291666666666667\n",
      "note_on channel=0 note=62 velocity=127 time=0.011458333333333333\n",
      "note_off channel=0 note=62 velocity=127 time=0.019791666666666666\n",
      "note_on channel=0 note=60 velocity=127 time=0.008333333333333333\n",
      "note_on channel=0 note=61 velocity=127 time=0.011458333333333333\n",
      "note_off channel=0 note=60 velocity=127 time=0.008333333333333333\n",
      "note_off channel=0 note=61 velocity=127 time=0.011458333333333333\n",
      "note_on channel=0 note=60 velocity=127 time=0.036458333333333336\n",
      "note_on channel=0 note=61 velocity=127 time=0.015625\n",
      "note_off channel=0 note=60 velocity=127 time=0.005208333333333333\n",
      "note_on channel=0 note=62 velocity=127 time=0.0020833333333333333\n",
      "note_off channel=0 note=61 velocity=127 time=0.013541666666666667\n",
      "\u001b[91m [DEBUG] > \u001b[0m\n",
      " |>  to_array: msg.time > max_t; t, n\n",
      " |>  1.9916666666666656\n",
      " |>  100\n",
      "note_on channel=0 note=60 velocity=127 time=0.06458333333333333\n",
      "note_off channel=0 note=60 velocity=127 time=0.019791666666666666\n",
      "note_on channel=0 note=61 velocity=127 time=0.003125\n",
      "note_off channel=0 note=61 velocity=127 time=0.019791666666666666\n",
      "note_on channel=0 note=62 velocity=127 time=0.059375\n",
      "note_on channel=0 note=61 velocity=127 time=0.01875\n",
      "note_off channel=0 note=62 velocity=127 time=0.0010416666666666667\n",
      "note_off channel=0 note=61 velocity=127 time=0.01875\n",
      "note_on channel=0 note=61 velocity=127 time=0.07916666666666666\n",
      "note_off channel=0 note=61 velocity=127 time=0.019791666666666666\n",
      "note_on channel=0 note=60 velocity=127 time=0.059375\n",
      "note_on channel=0 note=62 velocity=127 time=0.0020833333333333333\n",
      "note_on channel=0 note=61 velocity=127 time=0.017708333333333333\n",
      "note_off channel=0 note=60 velocity=127 time=0.0010416666666666667\n",
      "note_off channel=0 note=62 velocity=127 time=0.0020833333333333333\n",
      "note_off channel=0 note=61 velocity=127 time=0.017708333333333333\n",
      "note_on channel=0 note=61 velocity=127 time=0.07916666666666666\n",
      "note_off channel=0 note=61 velocity=127 time=0.019791666666666666\n",
      "note_on channel=0 note=62 velocity=127 time=0.0625\n",
      "note_on channel=0 note=61 velocity=127 time=0.015625\n",
      "note_off channel=0 note=62 velocity=127 time=0.004166666666666667\n",
      "note_off channel=0 note=61 velocity=127 time=0.015625\n",
      "note_on channel=0 note=60 velocity=127 time=0.06354166666666666\n",
      "note_on channel=0 note=61 velocity=127 time=0.015625\n",
      "note_off channel=0 note=60 velocity=127 time=0.005208333333333333\n",
      "note_off channel=0 note=61 velocity=127 time=0.015625\n",
      "note_on channel=0 note=62 velocity=127 time=0.06458333333333333\n",
      "note_on channel=0 note=61 velocity=127 time=0.014583333333333334\n",
      "note_off channel=0 note=62 velocity=127 time=0.00625\n",
      "note_off channel=0 note=61 velocity=127 time=0.014583333333333334\n",
      "note_on channel=0 note=61 velocity=127 time=0.07916666666666666\n",
      "note_off channel=0 note=61 velocity=127 time=0.019791666666666666\n",
      "note_on channel=0 note=62 velocity=127 time=0.065625\n",
      "note_on channel=0 note=60 velocity=127 time=0.0010416666666666667\n",
      "note_on channel=0 note=61 velocity=127 time=0.011458333333333333\n",
      "note_off channel=0 note=62 velocity=127 time=0.007291666666666667\n",
      "note_off channel=0 note=60 velocity=127 time=0.0010416666666666667\n",
      "note_off channel=0 note=61 velocity=127 time=0.011458333333333333\n",
      "note_on channel=0 note=61 velocity=127 time=0.07916666666666666\n",
      "note_off channel=0 note=61 velocity=127 time=0.019791666666666666\n",
      "note_on channel=0 note=62 velocity=127 time=0.06770833333333333\n",
      "note_on channel=0 note=61 velocity=127 time=0.011458333333333333\n",
      "note_off channel=0 note=62 velocity=127 time=0.009375\n",
      "note_off channel=0 note=61 velocity=127 time=0.011458333333333333\n",
      "note_on channel=0 note=60 velocity=127 time=0.07083333333333333\n",
      "note_on channel=0 note=61 velocity=127 time=0.007291666666666667\n",
      "note_off channel=0 note=60 velocity=127 time=0.0125\n",
      "note_off channel=0 note=61 velocity=127 time=0.007291666666666667\n",
      "note_on channel=0 note=62 velocity=127 time=0.06979166666666667\n",
      "note_on channel=0 note=61 velocity=127 time=0.009375\n",
      "note_off channel=0 note=62 velocity=127 time=0.010416666666666666\n",
      "note_off channel=0 note=61 velocity=127 time=0.009375\n",
      "note_on channel=0 note=61 velocity=127 time=0.07916666666666666\n",
      "note_off channel=0 note=61 velocity=127 time=0.019791666666666666\n",
      "note_on channel=0 note=62 velocity=127 time=0.07083333333333333\n",
      "note_on channel=0 note=60 velocity=127 time=0.004166666666666667\n",
      "note_on channel=0 note=61 velocity=127 time=0.004166666666666667\n",
      "note_off channel=0 note=62 velocity=127 time=0.0125\n",
      "note_off channel=0 note=60 velocity=127 time=0.004166666666666667\n",
      "note_off channel=0 note=61 velocity=127 time=0.004166666666666667\n",
      "note_on channel=0 note=61 velocity=127 time=0.07916666666666666\n",
      "note_off channel=0 note=61 velocity=127 time=0.019791666666666666\n",
      "note_on channel=0 note=62 velocity=127 time=0.07291666666666667\n",
      "note_on channel=0 note=61 velocity=127 time=0.00625\n",
      "note_off channel=0 note=62 velocity=127 time=0.013541666666666667\n",
      "note_off channel=0 note=61 velocity=127 time=0.00625\n",
      "note_on channel=0 note=61 velocity=127 time=0.07916666666666666\n",
      "note_on channel=0 note=60 velocity=127 time=0\n",
      "note_off channel=0 note=61 velocity=127 time=0.019791666666666666\n",
      "note_off channel=0 note=60 velocity=127 time=0\n",
      "note_on channel=0 note=62 velocity=127 time=0.07395833333333333\n",
      "note_on channel=0 note=61 velocity=127 time=0.004166666666666667\n",
      "note_off channel=0 note=62 velocity=127 time=0.015625\n",
      "note_off channel=0 note=61 velocity=127 time=0.004166666666666667\n",
      "note_on channel=0 note=61 velocity=127 time=0.07916666666666666\n",
      "\u001b[91m [DEBUG] > \u001b[0m\n",
      " |>  to_array: msg.time > max_t; t, n\n",
      " |>  2.0666666666666664\n",
      " |>  100\n",
      "note_on channel=0 note=61 velocity=127 time=0.016666666666666666\n",
      "note_off channel=0 note=61 velocity=127 time=0.019791666666666666\n",
      "note_on channel=0 note=62 velocity=127 time=0.019791666666666666\n",
      "note_on channel=0 note=60 velocity=127 time=0.0010416666666666667\n",
      "note_off channel=0 note=62 velocity=127 time=0.01875\n",
      "note_off channel=0 note=60 velocity=127 time=0.0010416666666666667\n",
      "note_on channel=0 note=62 velocity=127 time=0.05\n",
      "note_on channel=0 note=61 velocity=127 time=0.016666666666666666\n",
      "note_off channel=0 note=62 velocity=127 time=0.003125\n",
      "note_off channel=0 note=61 velocity=127 time=0.016666666666666666\n",
      "note_on channel=0 note=62 velocity=127 time=0.03333333333333333\n",
      "note_on channel=0 note=60 velocity=127 time=0.004166666666666667\n",
      "note_off channel=0 note=62 velocity=127 time=0.015625\n",
      "note_off channel=0 note=60 velocity=127 time=0.004166666666666667\n",
      "note_on channel=0 note=62 velocity=127 time=0.04583333333333333\n",
      "note_on channel=0 note=61 velocity=127 time=0.0020833333333333333\n",
      "note_off channel=0 note=62 velocity=127 time=0.017708333333333333\n",
      "note_off channel=0 note=61 velocity=127 time=0.0020833333333333333\n",
      "note_on channel=0 note=62 velocity=127 time=0.04791666666666666\n",
      "note_on channel=0 note=60 velocity=127 time=0.008333333333333333\n",
      "note_off channel=0 note=62 velocity=127 time=0.011458333333333333\n",
      "note_off channel=0 note=60 velocity=127 time=0.008333333333333333\n",
      "note_on channel=0 note=61 velocity=127 time=0.030208333333333334\n",
      "note_on channel=0 note=62 velocity=127 time=0.011458333333333333\n",
      "note_off channel=0 note=61 velocity=127 time=0.008333333333333333\n",
      "note_off channel=0 note=62 velocity=127 time=0.011458333333333333\n",
      "note_on channel=0 note=62 velocity=127 time=0.051041666666666666\n",
      "note_on channel=0 note=60 velocity=127 time=0.0125\n",
      "note_off channel=0 note=62 velocity=127 time=0.007291666666666667\n",
      "note_off channel=0 note=60 velocity=127 time=0.0125\n",
      "note_on channel=0 note=61 velocity=127 time=0.0125\n",
      "note_off channel=0 note=61 velocity=127 time=0.019791666666666666\n",
      "note_on channel=0 note=62 velocity=127 time=0.00625\n",
      "note_off channel=0 note=62 velocity=127 time=0.019791666666666666\n",
      "note_on channel=0 note=62 velocity=127 time=0.051041666666666666\n",
      "note_on channel=0 note=60 velocity=127 time=0.016666666666666666\n",
      "note_off channel=0 note=62 velocity=127 time=0.004166666666666667\n",
      "note_on channel=0 note=61 velocity=127 time=0.010416666666666666\n",
      "note_off channel=0 note=60 velocity=127 time=0.00625\n",
      "note_off channel=0 note=61 velocity=127 time=0.013541666666666667\n",
      "note_on channel=0 note=62 velocity=127 time=0.020833333333333332\n",
      "note_off channel=0 note=62 velocity=127 time=0.019791666666666666\n",
      "note_on channel=0 note=62 velocity=127 time=0.051041666666666666\n",
      "note_on channel=0 note=61 velocity=127 time=0.015625\n",
      "note_off channel=0 note=62 velocity=127 time=0.004166666666666667\n",
      "note_on channel=0 note=60 velocity=127 time=0\n",
      "note_off channel=0 note=61 velocity=127 time=0.015625\n",
      "note_off channel=0 note=60 velocity=127 time=0.004166666666666667\n",
      "note_on channel=0 note=62 velocity=127 time=0.030208333333333334\n",
      "note_off channel=0 note=62 velocity=127 time=0.019791666666666666\n",
      "note_on channel=0 note=62 velocity=127 time=0.051041666666666666\n",
      "note_on channel=0 note=61 velocity=127 time=0.0020833333333333333\n",
      "note_off channel=0 note=62 velocity=127 time=0.01875\n",
      "note_off channel=0 note=61 velocity=127 time=0.0020833333333333333\n",
      "note_on channel=0 note=60 velocity=127 time=0.0020833333333333333\n",
      "note_off channel=0 note=60 velocity=127 time=0.019791666666666666\n",
      "note_on channel=0 note=62 velocity=127 time=0.027083333333333334\n",
      "note_off channel=0 note=62 velocity=127 time=0.019791666666666666\n",
      "note_on channel=0 note=61 velocity=127 time=0.0375\n",
      "note_on channel=0 note=62 velocity=127 time=0.0125\n",
      "note_off channel=0 note=61 velocity=127 time=0.007291666666666667\n",
      "note_off channel=0 note=62 velocity=127 time=0.0125\n",
      "note_on channel=0 note=60 velocity=127 time=0.008333333333333333\n",
      "note_off channel=0 note=60 velocity=127 time=0.019791666666666666\n",
      "note_on channel=0 note=62 velocity=127 time=0.022916666666666665\n",
      "note_off channel=0 note=62 velocity=127 time=0.019791666666666666\n",
      "note_on channel=0 note=61 velocity=127 time=0.02395833333333333\n",
      "note_off channel=0 note=61 velocity=127 time=0.019791666666666666\n",
      "note_on channel=0 note=62 velocity=127 time=0.007291666666666667\n",
      "note_off channel=0 note=62 velocity=127 time=0.019791666666666666\n",
      "note_on channel=0 note=60 velocity=127 time=0.011458333333333333\n",
      "note_off channel=0 note=60 velocity=127 time=0.019791666666666666\n",
      "note_on channel=0 note=62 velocity=127 time=0.01875\n",
      "note_off channel=0 note=62 velocity=127 time=0.019791666666666666\n",
      "note_on channel=0 note=61 velocity=127 time=0.009375\n",
      "note_off channel=0 note=61 velocity=127 time=0.019791666666666666\n",
      "note_on channel=0 note=62 velocity=127 time=0.021875\n",
      "note_off channel=0 note=62 velocity=127 time=0.019791666666666666\n",
      "note_on channel=0 note=60 velocity=127 time=0.015625\n",
      "note_off channel=0 note=60 velocity=127 time=0.019791666666666666\n",
      "note_on channel=0 note=62 velocity=127 time=0.014583333333333334\n",
      "note_on channel=0 note=61 velocity=127 time=0.014583333333333334\n",
      "note_off channel=0 note=62 velocity=127 time=0.005208333333333333\n",
      "note_off channel=0 note=61 velocity=127 time=0.014583333333333334\n",
      "note_on channel=0 note=62 velocity=127 time=0.035416666666666666\n",
      "note_off channel=0 note=62 velocity=127 time=0.019791666666666666\n",
      "note_on channel=0 note=60 velocity=127 time=0.019791666666666666\n",
      "note_off channel=0 note=60 velocity=127 time=0.019791666666666666\n",
      "note_on channel=0 note=62 velocity=127 time=0.011458333333333333\n",
      "note_on channel=0 note=61 velocity=127 time=0.0010416666666666667\n",
      "note_off channel=0 note=62 velocity=127 time=0.019791666666666666\n",
      "note_off channel=0 note=61 velocity=127 time=0.0010416666666666667\n",
      "note_on channel=0 note=62 velocity=127 time=0.05\n",
      "note_off channel=0 note=62 velocity=127 time=0.019791666666666666\n",
      "note_on channel=0 note=60 velocity=127 time=0.02395833333333333\n",
      "note_on channel=0 note=61 velocity=127 time=0.013541666666666667\n",
      "note_off channel=0 note=60 velocity=127 time=0.00625\n",
      "note_on channel=0 note=62 velocity=127 time=0.007291666666666667\n",
      "note_off channel=0 note=61 velocity=127 time=0.00625\n",
      "note_off channel=0 note=62 velocity=127 time=0.013541666666666667\n",
      "note_on channel=0 note=62 velocity=127 time=0.051041666666666666\n",
      "note_off channel=0 note=62 velocity=127 time=0.019791666666666666\n",
      "note_on channel=0 note=61 velocity=127 time=0.022916666666666665\n",
      "note_on channel=0 note=60 velocity=127 time=0.004166666666666667\n",
      "note_off channel=0 note=61 velocity=127 time=0.015625\n",
      "note_off channel=0 note=60 velocity=127 time=0.004166666666666667\n",
      "note_on channel=0 note=62 velocity=127 time=0.003125\n",
      "note_off channel=0 note=62 velocity=127 time=0.019791666666666666\n",
      "note_on channel=0 note=62 velocity=127 time=0.051041666666666666\n",
      "note_off channel=0 note=62 velocity=127 time=0.019791666666666666\n",
      "note_on channel=0 note=61 velocity=127 time=0.008333333333333333\n",
      "note_off channel=0 note=61 velocity=127 time=0.019791666666666666\n",
      "note_on channel=0 note=60 velocity=127 time=0.003125\n",
      "note_on channel=0 note=62 velocity=127 time=0.019791666666666666\n",
      "note_off channel=0 note=60 velocity=127 time=0\n",
      "note_off channel=0 note=62 velocity=127 time=0.019791666666666666\n",
      "note_on channel=0 note=62 velocity=127 time=0.051041666666666666\n",
      "\u001b[91m [DEBUG] > \u001b[0m\n",
      " |>  to_array: msg.time > max_t; t, n\n",
      " |>  2.032291666666666\n",
      " |>  100\n",
      "note_on channel=0 note=60 velocity=127 time=0.027083333333333334\n",
      "note_on channel=0 note=61 velocity=127 time=0.005208333333333333\n",
      "note_off channel=0 note=60 velocity=127 time=0.014583333333333334\n",
      "note_off channel=0 note=61 velocity=127 time=0.005208333333333333\n",
      "note_on channel=0 note=62 velocity=127 time=0.004166666666666667\n",
      "note_off channel=0 note=62 velocity=127 time=0.019791666666666666\n",
      "note_on channel=0 note=60 velocity=127 time=0.03229166666666666\n",
      "note_off channel=0 note=60 velocity=127 time=0.019791666666666666\n",
      "note_on channel=0 note=61 velocity=127 time=0.003125\n",
      "note_off channel=0 note=61 velocity=127 time=0.019791666666666666\n",
      "note_on channel=0 note=62 velocity=127 time=0.0010416666666666667\n",
      "note_off channel=0 note=62 velocity=127 time=0.019791666666666666\n",
      "note_on channel=0 note=60 velocity=127 time=0.017708333333333333\n",
      "note_off channel=0 note=60 velocity=127 time=0.019791666666666666\n",
      "note_on channel=0 note=61 velocity=127 time=0.020833333333333332\n",
      "note_on channel=0 note=62 velocity=127 time=0.017708333333333333\n",
      "note_off channel=0 note=61 velocity=127 time=0.0020833333333333333\n"
     ]
    },
    {
     "name": "stdout",
     "output_type": "stream",
     "text": [
      "note_off channel=0 note=62 velocity=127 time=0.017708333333333333\n",
      "note_on channel=0 note=60 velocity=127 time=0.003125\n",
      "note_off channel=0 note=60 velocity=127 time=0.019791666666666666\n",
      "note_on channel=0 note=61 velocity=127 time=0.03854166666666667\n",
      "note_on channel=0 note=62 velocity=127 time=0.013541666666666667\n",
      "note_off channel=0 note=61 velocity=127 time=0.00625\n",
      "note_on channel=0 note=60 velocity=127 time=0.003125\n",
      "note_off channel=0 note=62 velocity=127 time=0.011458333333333333\n",
      "note_off channel=0 note=60 velocity=127 time=0.009375\n",
      "note_on channel=0 note=61 velocity=127 time=0.05625\n",
      "note_on channel=0 note=60 velocity=127 time=0.005208333333333333\n",
      "note_on channel=0 note=62 velocity=127 time=0.005208333333333333\n",
      "note_off channel=0 note=61 velocity=127 time=0.009375\n",
      "note_off channel=0 note=60 velocity=127 time=0.005208333333333333\n",
      "note_off channel=0 note=62 velocity=127 time=0.005208333333333333\n",
      "note_on channel=0 note=60 velocity=127 time=0.05625\n",
      "note_on channel=0 note=61 velocity=127 time=0.0125\n",
      "note_on channel=0 note=62 velocity=127 time=0.007291666666666667\n",
      "note_off channel=0 note=60 velocity=127 time=0\n",
      "note_off channel=0 note=61 velocity=127 time=0.0125\n",
      "note_off channel=0 note=62 velocity=127 time=0.007291666666666667\n",
      "note_on channel=0 note=60 velocity=127 time=0.041666666666666664\n",
      "note_off channel=0 note=60 velocity=127 time=0.019791666666666666\n",
      "note_on channel=0 note=61 velocity=127 time=0.010416666666666666\n",
      "note_on channel=0 note=62 velocity=127 time=0.003125\n",
      "note_off channel=0 note=61 velocity=127 time=0.016666666666666666\n",
      "note_off channel=0 note=62 velocity=127 time=0.003125\n",
      "note_on channel=0 note=60 velocity=127 time=0.027083333333333334\n",
      "note_off channel=0 note=60 velocity=127 time=0.019791666666666666\n",
      "note_on channel=0 note=62 velocity=127 time=0.028125\n",
      "note_on channel=0 note=61 velocity=127 time=0\n",
      "note_off channel=0 note=62 velocity=127 time=0.019791666666666666\n",
      "note_off channel=0 note=61 velocity=127 time=0\n",
      "note_on channel=0 note=60 velocity=127 time=0.0125\n",
      "note_off channel=0 note=60 velocity=127 time=0.019791666666666666\n",
      "note_on channel=0 note=62 velocity=127 time=0.042708333333333334\n",
      "note_on channel=0 note=61 velocity=127 time=0.004166666666666667\n",
      "note_on channel=0 note=60 velocity=127 time=0.014583333333333334\n",
      "note_off channel=0 note=62 velocity=127 time=0.0010416666666666667\n",
      "note_off channel=0 note=61 velocity=127 time=0.004166666666666667\n",
      "note_off channel=0 note=60 velocity=127 time=0.014583333333333334\n",
      "note_on channel=0 note=62 velocity=127 time=0.057291666666666664\n",
      "note_on channel=0 note=60 velocity=127 time=0.004166666666666667\n",
      "note_on channel=0 note=61 velocity=127 time=0.003125\n",
      "note_off channel=0 note=62 velocity=127 time=0.0125\n",
      "note_off channel=0 note=60 velocity=127 time=0.004166666666666667\n",
      "note_off channel=0 note=61 velocity=127 time=0.003125\n",
      "note_on channel=0 note=60 velocity=127 time=0.058333333333333334\n",
      "note_on channel=0 note=62 velocity=127 time=0.010416666666666666\n",
      "note_off channel=0 note=60 velocity=127 time=0.009375\n",
      "note_on channel=0 note=61 velocity=127 time=0.0010416666666666667\n",
      "note_off channel=0 note=62 velocity=127 time=0.009375\n",
      "note_off channel=0 note=61 velocity=127 time=0.010416666666666666\n",
      "note_on channel=0 note=60 velocity=127 time=0.040625\n",
      "note_off channel=0 note=60 velocity=127 time=0.019791666666666666\n",
      "note_on channel=0 note=62 velocity=127 time=0.004166666666666667\n",
      "note_on channel=0 note=61 velocity=127 time=0.014583333333333334\n",
      "note_off channel=0 note=62 velocity=127 time=0.00625\n",
      "note_off channel=0 note=61 velocity=127 time=0.014583333333333334\n",
      "note_on channel=0 note=60 velocity=127 time=0.022916666666666665\n",
      "note_off channel=0 note=60 velocity=127 time=0.019791666666666666\n",
      "note_on channel=0 note=62 velocity=127 time=0.01875\n",
      "note_on channel=0 note=61 velocity=127 time=0.017708333333333333\n",
      "note_off channel=0 note=62 velocity=127 time=0.0020833333333333333\n",
      "note_off channel=0 note=61 velocity=127 time=0.017708333333333333\n",
      "note_on channel=0 note=60 velocity=127 time=0.005208333333333333\n",
      "note_off channel=0 note=60 velocity=127 time=0.019791666666666666\n",
      "note_on channel=0 note=62 velocity=127 time=0.03333333333333333\n",
      "note_off channel=0 note=62 velocity=127 time=0.019791666666666666\n",
      "note_on channel=0 note=61 velocity=127 time=0.0010416666666666667\n",
      "note_on channel=0 note=60 velocity=127 time=0.007291666666666667\n",
      "note_off channel=0 note=61 velocity=127 time=0.013541666666666667\n",
      "note_off channel=0 note=60 velocity=127 time=0.007291666666666667\n",
      "note_on channel=0 note=62 velocity=127 time=0.04791666666666666\n",
      "note_on channel=0 note=60 velocity=127 time=0.013541666666666667\n",
      "note_off channel=0 note=62 velocity=127 time=0.00625\n",
      "note_on channel=0 note=61 velocity=127 time=0.005208333333333333\n",
      "note_off channel=0 note=60 velocity=127 time=0.009375\n",
      "note_off channel=0 note=61 velocity=127 time=0.011458333333333333\n",
      "note_on channel=0 note=60 velocity=127 time=0.051041666666666666\n",
      "note_on channel=0 note=62 velocity=127 time=0\n",
      "note_off channel=0 note=60 velocity=127 time=0.019791666666666666\n",
      "note_off channel=0 note=62 velocity=127 time=0\n",
      "note_on channel=0 note=61 velocity=127 time=0.008333333333333333\n",
      "note_off channel=0 note=61 velocity=127 time=0.019791666666666666\n",
      "note_on channel=0 note=60 velocity=127 time=0.03229166666666666\n",
      "note_on channel=0 note=62 velocity=127 time=0.014583333333333334\n",
      "note_off channel=0 note=60 velocity=127 time=0.005208333333333333\n",
      "note_off channel=0 note=62 velocity=127 time=0.014583333333333334\n",
      "note_on channel=0 note=61 velocity=127 time=0.011458333333333333\n",
      "note_off channel=0 note=61 velocity=127 time=0.019791666666666666\n",
      "note_on channel=0 note=60 velocity=127 time=0.014583333333333334\n",
      "note_off channel=0 note=60 velocity=127 time=0.019791666666666666\n",
      "note_on channel=0 note=62 velocity=127 time=0.009375\n",
      "note_off channel=0 note=62 velocity=127 time=0.019791666666666666\n",
      "note_on channel=0 note=61 velocity=127 time=0.015625\n",
      "note_on channel=0 note=60 velocity=127 time=0.016666666666666666\n",
      "note_off channel=0 note=61 velocity=127 time=0.003125\n",
      "note_off channel=0 note=60 velocity=127 time=0.016666666666666666\n",
      "note_on channel=0 note=62 velocity=127 time=0.02395833333333333\n",
      "note_off channel=0 note=62 velocity=127 time=0.019791666666666666\n",
      "note_on channel=0 note=60 velocity=127 time=0.017708333333333333\n",
      "note_on channel=0 note=61 velocity=127 time=0.0010416666666666667\n",
      "note_off channel=0 note=60 velocity=127 time=0.01875\n",
      "note_off channel=0 note=61 velocity=127 time=0.0010416666666666667\n",
      "note_on channel=0 note=62 velocity=127 time=0.036458333333333336\n",
      "note_off channel=0 note=62 velocity=127 time=0.019791666666666666\n",
      "note_on channel=0 note=60 velocity=127 time=0.003125\n",
      "note_on channel=0 note=61 velocity=127 time=0.01875\n",
      "note_off channel=0 note=60 velocity=127 time=0.0010416666666666667\n",
      "note_off channel=0 note=61 velocity=127 time=0.01875\n",
      "note_on channel=0 note=62 velocity=127 time=0.03333333333333333\n",
      "note_on channel=0 note=60 velocity=127 time=0.009375\n",
      "note_off channel=0 note=62 velocity=127 time=0.010416666666666666\n",
      "note_off channel=0 note=60 velocity=127 time=0.009375\n",
      "\u001b[91m [DEBUG] > \u001b[0m\n",
      " |>  to_array: msg.time > max_t; t, n\n",
      " |>  1.9968749999999995\n",
      " |>  100\n",
      "note_on channel=0 note=61 velocity=127 time=0.059375\n",
      "note_off channel=0 note=61 velocity=127 time=0.019791666666666666\n",
      "note_on channel=0 note=60 velocity=127 time=0.00625\n",
      "note_off channel=0 note=60 velocity=127 time=0.019791666666666666\n",
      "note_on channel=0 note=61 velocity=127 time=0.058333333333333334\n",
      "note_off channel=0 note=61 velocity=127 time=0.019791666666666666\n",
      "note_on channel=0 note=60 velocity=127 time=0.035416666666666666\n",
      "note_on channel=0 note=62 velocity=127 time=0.00625\n",
      "note_off channel=0 note=60 velocity=127 time=0.013541666666666667\n",
      "note_off channel=0 note=62 velocity=127 time=0.00625\n",
      "note_on channel=0 note=61 velocity=127 time=0.02395833333333333\n",
      "note_off channel=0 note=61 velocity=127 time=0.019791666666666666\n",
      "note_on channel=0 note=60 velocity=127 time=0.06354166666666666\n",
      "note_off channel=0 note=60 velocity=127 time=0.019791666666666666\n",
      "note_on channel=0 note=61 velocity=127 time=0.0010416666666666667\n",
      "note_off channel=0 note=61 velocity=127 time=0.019791666666666666\n",
      "note_on channel=0 note=61 velocity=127 time=0.08541666666666667\n",
      "note_on channel=0 note=60 velocity=127 time=0.007291666666666667\n",
      "note_off channel=0 note=61 velocity=127 time=0.0125\n",
      "note_off channel=0 note=60 velocity=127 time=0.007291666666666667\n",
      "note_on channel=0 note=62 velocity=127 time=0.013541666666666667\n",
      "note_off channel=0 note=62 velocity=127 time=0.019791666666666666\n",
      "note_on channel=0 note=61 velocity=127 time=0.04375\n",
      "note_off channel=0 note=61 velocity=127 time=0.019791666666666666\n",
      "note_on channel=0 note=60 velocity=127 time=0.015625\n",
      "note_off channel=0 note=60 velocity=127 time=0.019791666666666666\n",
      "note_on channel=0 note=61 velocity=127 time=0.04895833333333333\n",
      "note_off channel=0 note=61 velocity=127 time=0.019791666666666666\n",
      "note_on channel=0 note=60 velocity=127 time=0.04479166666666667\n",
      "note_off channel=0 note=60 velocity=127 time=0.019791666666666666\n",
      "note_on channel=0 note=61 velocity=127 time=0.020833333333333332\n",
      "note_off channel=0 note=61 velocity=127 time=0.019791666666666666\n",
      "note_on channel=0 note=62 velocity=127 time=0\n",
      "note_off channel=0 note=62 velocity=127 time=0.019791666666666666\n",
      "note_on channel=0 note=60 velocity=127 time=0.052083333333333336\n",
      "note_on channel=0 note=61 velocity=127 time=0.0125\n",
      "note_off channel=0 note=60 velocity=127 time=0.007291666666666667\n",
      "note_off channel=0 note=61 velocity=127 time=0.0125\n",
      "note_on channel=0 note=61 velocity=127 time=0.08541666666666667\n",
      "note_on channel=0 note=60 velocity=127 time=0.016666666666666666\n",
      "note_off channel=0 note=61 velocity=127 time=0.004166666666666667\n",
      "note_off channel=0 note=60 velocity=127 time=0.016666666666666666\n",
      "note_on channel=0 note=62 velocity=127 time=0.06875\n",
      "note_on channel=0 note=61 velocity=127 time=0\n",
      "note_off channel=0 note=62 velocity=127 time=0.019791666666666666\n",
      "note_off channel=0 note=61 velocity=127 time=0\n",
      "note_on channel=0 note=60 velocity=127 time=0.025\n",
      "note_off channel=0 note=60 velocity=127 time=0.019791666666666666\n",
      "note_on channel=0 note=61 velocity=127 time=0.040625\n",
      "note_off channel=0 note=61 velocity=127 time=0.019791666666666666\n",
      "note_on channel=0 note=60 velocity=127 time=0.053125\n",
      "note_off channel=0 note=60 velocity=127 time=0.019791666666666666\n",
      "note_on channel=0 note=61 velocity=127 time=0.011458333333333333\n",
      "note_off channel=0 note=61 velocity=127 time=0.019791666666666666\n",
      "note_on channel=0 note=62 velocity=127 time=0.06458333333333333\n",
      "note_on channel=0 note=60 velocity=127 time=0.017708333333333333\n",
      "note_off channel=0 note=62 velocity=127 time=0.0020833333333333333\n",
      "note_on channel=0 note=61 velocity=127 time=0.0010416666666666667\n",
      "note_off channel=0 note=60 velocity=127 time=0.016666666666666666\n",
      "note_off channel=0 note=61 velocity=127 time=0.003125\n",
      "note_on channel=0 note=61 velocity=127 time=0.08541666666666667\n",
      "note_off channel=0 note=61 velocity=127 time=0.019791666666666666\n",
      "note_on channel=0 note=60 velocity=127 time=0.005208333333333333\n",
      "note_off channel=0 note=60 velocity=127 time=0.019791666666666666\n",
      "note_on channel=0 note=61 velocity=127 time=0.059375\n",
      "note_off channel=0 note=61 velocity=127 time=0.019791666666666666\n",
      "note_on channel=0 note=60 velocity=127 time=0.034375\n",
      "note_on channel=0 note=62 velocity=127 time=0.009375\n",
      "note_off channel=0 note=60 velocity=127 time=0.010416666666666666\n",
      "note_off channel=0 note=62 velocity=127 time=0.009375\n",
      "note_on channel=0 note=61 velocity=127 time=0.021875\n",
      "note_off channel=0 note=61 velocity=127 time=0.019791666666666666\n",
      "note_on channel=0 note=60 velocity=127 time=0.0625\n",
      "note_off channel=0 note=60 velocity=127 time=0.019791666666666666\n",
      "note_on channel=0 note=61 velocity=127 time=0.003125\n",
      "note_off channel=0 note=61 velocity=127 time=0.019791666666666666\n",
      "note_on channel=0 note=61 velocity=127 time=0.08541666666666667\n",
      "note_on channel=0 note=60 velocity=127 time=0.00625\n",
      "note_off channel=0 note=61 velocity=127 time=0.014583333333333334\n",
      "note_off channel=0 note=60 velocity=127 time=0.00625\n",
      "note_on channel=0 note=62 velocity=127 time=0.016666666666666666\n",
      "\u001b[91m [DEBUG] > \u001b[0m\n",
      " |>  to_array: msg.time > max_t; t, n\n",
      " |>  1.990625\n",
      " |>  100\n",
      "note_on channel=0 note=60 velocity=127 time=0.015625\n",
      "note_on channel=0 note=61 velocity=127 time=0.0125\n",
      "note_off channel=0 note=60 velocity=127 time=0.007291666666666667\n",
      "note_off channel=0 note=61 velocity=127 time=0.0125\n",
      "note_on channel=0 note=62 velocity=127 time=0.025\n",
      "note_off channel=0 note=62 velocity=127 time=0.019791666666666666\n",
      "note_on channel=0 note=60 velocity=127 time=0.065625\n",
      "note_on channel=0 note=62 velocity=127 time=0.00625\n",
      "note_off channel=0 note=60 velocity=127 time=0.013541666666666667\n",
      "note_off channel=0 note=62 velocity=127 time=0.00625\n",
      "note_on channel=0 note=61 velocity=127 time=0.05\n",
      "note_off channel=0 note=61 velocity=127 time=0.019791666666666666\n",
      "note_on channel=0 note=62 velocity=127 time=0.0020833333333333333\n",
      "note_off channel=0 note=62 velocity=127 time=0.019791666666666666\n",
      "note_on channel=0 note=60 velocity=127 time=0.025\n",
      "note_off channel=0 note=60 velocity=127 time=0.019791666666666666\n",
      "note_on channel=0 note=62 velocity=127 time=0.026041666666666668\n",
      "note_off channel=0 note=62 velocity=127 time=0.019791666666666666\n",
      "note_on channel=0 note=62 velocity=127 time=0.071875\n",
      "note_on channel=0 note=61 velocity=127 time=0.0010416666666666667\n",
      "note_on channel=0 note=60 velocity=127 time=0.004166666666666667\n",
      "note_off channel=0 note=62 velocity=127 time=0.014583333333333334\n",
      "note_off channel=0 note=61 velocity=127 time=0.0010416666666666667\n",
      "note_off channel=0 note=60 velocity=127 time=0.004166666666666667\n",
      "note_on channel=0 note=62 velocity=127 time=0.06666666666666667\n",
      "note_off channel=0 note=62 velocity=127 time=0.019791666666666666\n",
      "note_on channel=0 note=60 velocity=127 time=0.036458333333333336\n",
      "note_off channel=0 note=60 velocity=127 time=0.019791666666666666\n",
      "note_on channel=0 note=62 velocity=127 time=0.015625\n",
      "note_off channel=0 note=62 velocity=127 time=0.019791666666666666\n",
      "note_on channel=0 note=61 velocity=127 time=0.004166666666666667\n",
      "note_off channel=0 note=61 velocity=127 time=0.019791666666666666\n",
      "note_on channel=0 note=62 velocity=127 time=0.04791666666666666\n",
      "note_on channel=0 note=60 velocity=127 time=0.016666666666666666\n",
      "note_off channel=0 note=62 velocity=127 time=0.003125\n",
      "note_off channel=0 note=60 velocity=127 time=0.016666666666666666\n",
      "note_on channel=0 note=62 velocity=127 time=0.05520833333333333\n",
      "note_off channel=0 note=62 velocity=127 time=0.019791666666666666\n",
      "note_on channel=0 note=61 velocity=127 time=0.027083333333333334\n",
      "note_off channel=0 note=61 velocity=127 time=0.019791666666666666\n",
      "note_on channel=0 note=60 velocity=127 time=0.0010416666666666667\n",
      "note_off channel=0 note=60 velocity=127 time=0.019791666666666666\n",
      "note_on channel=0 note=62 velocity=127 time=0.004166666666666667\n",
      "note_off channel=0 note=62 velocity=127 time=0.019791666666666666\n",
      "note_on channel=0 note=62 velocity=127 time=0.071875\n",
      "note_off channel=0 note=62 velocity=127 time=0.019791666666666666\n",
      "note_on channel=0 note=60 velocity=127 time=0.007291666666666667\n",
      "note_off channel=0 note=60 velocity=127 time=0.019791666666666666\n",
      "note_on channel=0 note=61 velocity=127 time=0.022916666666666665\n",
      "note_off channel=0 note=61 velocity=127 time=0.019791666666666666\n",
      "note_on channel=0 note=62 velocity=127 time=0.0020833333333333333\n",
      "note_off channel=0 note=62 velocity=127 time=0.019791666666666666\n",
      "note_on channel=0 note=60 velocity=127 time=0.059375\n",
      "note_on channel=0 note=62 velocity=127 time=0.0125\n",
      "note_off channel=0 note=60 velocity=127 time=0.007291666666666667\n",
      "note_off channel=0 note=62 velocity=127 time=0.0125\n",
      "note_on channel=0 note=62 velocity=127 time=0.071875\n",
      "note_on channel=0 note=61 velocity=127 time=0.0010416666666666667\n",
      "note_off channel=0 note=62 velocity=127 time=0.01875\n",
      "note_off channel=0 note=61 velocity=127 time=0.0010416666666666667\n",
      "note_on channel=0 note=60 velocity=127 time=0.017708333333333333\n",
      "note_off channel=0 note=60 velocity=127 time=0.019791666666666666\n",
      "note_on channel=0 note=62 velocity=127 time=0.03333333333333333\n",
      "note_off channel=0 note=62 velocity=127 time=0.019791666666666666\n",
      "note_on channel=0 note=60 velocity=127 time=0.07083333333333333\n",
      "note_on channel=0 note=62 velocity=127 time=0.0010416666666666667\n",
      "note_off channel=0 note=60 velocity=127 time=0.01875\n",
      "note_off channel=0 note=62 velocity=127 time=0.0010416666666666667\n",
      "note_on channel=0 note=61 velocity=127 time=0.004166666666666667\n",
      "note_off channel=0 note=61 velocity=127 time=0.019791666666666666\n",
      "note_on channel=0 note=62 velocity=127 time=0.04791666666666666\n",
      "note_off channel=0 note=62 velocity=127 time=0.019791666666666666\n",
      "note_on channel=0 note=60 velocity=127 time=0.030208333333333334\n",
      "note_off channel=0 note=60 velocity=127 time=0.019791666666666666\n",
      "note_on channel=0 note=62 velocity=127 time=0.021875\n",
      "note_off channel=0 note=62 velocity=127 time=0.019791666666666666\n",
      "note_on channel=0 note=61 velocity=127 time=0.027083333333333334\n",
      "note_off channel=0 note=61 velocity=127 time=0.019791666666666666\n",
      "note_on channel=0 note=62 velocity=127 time=0.02395833333333333\n",
      "note_on channel=0 note=60 velocity=127 time=0.010416666666666666\n",
      "note_off channel=0 note=62 velocity=127 time=0.010416666666666666\n",
      "note_off channel=0 note=60 velocity=127 time=0.010416666666666666\n",
      "note_on channel=0 note=62 velocity=127 time=0.06145833333333333\n",
      "note_off channel=0 note=62 velocity=127 time=0.019791666666666666\n",
      "note_on channel=0 note=60 velocity=127 time=0.041666666666666664\n",
      "note_on channel=0 note=61 velocity=127 time=0.009375\n",
      "note_off channel=0 note=60 velocity=127 time=0.011458333333333333\n",
      "note_off channel=0 note=61 velocity=127 time=0.009375\n",
      "note_on channel=0 note=62 velocity=127 time=0.0010416666666666667\n",
      "note_off channel=0 note=62 velocity=127 time=0.019791666666666666\n",
      "note_on channel=0 note=62 velocity=127 time=0.071875\n",
      "\u001b[91m [DEBUG] > \u001b[0m\n",
      " |>  to_array: msg.time > max_t; t, n\n",
      " |>  1.9979166666666666\n",
      " |>  100\n"
     ]
    }
   ],
   "source": [
    "n = 100\n",
    "min_f = 3\n",
    "max_f = 15\n",
    "# x_train = g.gen_data(context, n, max_f=max_f, min_f=min_f)\n",
    "# x_train = g.gen_data_complex(context, n, max_f=max_f, min_f=min_f, multiTrack=multiTrack)\n",
    "x_train = g.gen_data_complex(context, n, max_f=max_f, min_f=min_f, \n",
    "    n_polyrythms=1,\n",
    "    n_channels=midi.N_NOTES,\n",
    "    multiTrack=multiTrack)"
   ]
  },
  {
   "cell_type": "code",
   "execution_count": 129,
   "metadata": {},
   "outputs": [],
   "source": [
    "n = 10\n",
    "total = 1000 * 1\n",
    "x_test = x_train[n:]\n",
    "x_train = np.concatenate([x_train[:n] for _ in range(int(total/n))])"
   ]
  },
  {
   "cell_type": "code",
   "execution_count": 130,
   "metadata": {},
   "outputs": [],
   "source": [
    "x_train = x_train.reshape(list(x_train.shape) + [1])\n",
    "x_test = x_train[:-500]"
   ]
  },
  {
   "cell_type": "code",
   "execution_count": 131,
   "metadata": {},
   "outputs": [
    {
     "data": {
      "text/plain": [
       "(1000, 100, 3, 1)"
      ]
     },
     "execution_count": 131,
     "metadata": {},
     "output_type": "execute_result"
    }
   ],
   "source": [
    "x_train.shape"
   ]
  },
  {
   "cell_type": "code",
   "execution_count": 132,
   "metadata": {},
   "outputs": [
    {
     "data": {
      "text/plain": [
       "(1000, 10)"
      ]
     },
     "execution_count": 132,
     "metadata": {},
     "output_type": "execute_result"
    }
   ],
   "source": [
    "y_train = np.concatenate([list(range(n)) for _ in range(int(total/n)+1)])[:total]\n",
    "y_train = keras.utils.to_categorical(y_train)\n",
    "y_test = y_train[-500:]\n",
    "y_train.shape"
   ]
  },
  {
   "cell_type": "code",
   "execution_count": null,
   "metadata": {},
   "outputs": [],
   "source": []
  },
  {
   "cell_type": "code",
   "execution_count": 80,
   "metadata": {},
   "outputs": [],
   "source": [
    "# the squashing function.\n",
    "# we use 0.5 in stead of 1 in hinton's paper.\n",
    "# if 1, the norm of vector will be zoomed out.\n",
    "# if 0.5, the norm will be zoomed in while original norm is less than 0.5\n",
    "# and be zoomed out while original norm is greater than 0.5.\n",
    "def squash(x, axis=-1):\n",
    "    s_squared_norm = K.sum(K.square(x), axis, keepdims=True) + K.epsilon()\n",
    "    scale = K.sqrt(s_squared_norm) / (0.5 + s_squared_norm)\n",
    "    return scale * x\n",
    "\n",
    "\n",
    "# define our own softmax function instead of K.softmax\n",
    "# because K.softmax can not specify axis.\n",
    "def softmax(x, axis=-1):\n",
    "    ex = K.exp(x - K.max(x, axis=axis, keepdims=True))\n",
    "    return ex / K.sum(ex, axis=axis, keepdims=True)\n",
    "\n",
    "\n",
    "# define the margin loss like hinge loss\n",
    "def margin_loss(y_true, y_pred):\n",
    "    lamb, margin = 0.5, 0.1\n",
    "    return K.sum(y_true * K.square(K.relu(1 - margin - y_pred)) + lamb * (\n",
    "        1 - y_true) * K.square(K.relu(y_pred - margin)), axis=-1)"
   ]
  },
  {
   "cell_type": "code",
   "execution_count": 81,
   "metadata": {},
   "outputs": [],
   "source": [
    "class Capsule(Layer):\n",
    "    \"\"\"A Capsule Implement with Pure Keras\n",
    "    There are two vesions of Capsule.\n",
    "    One is like dense layer (for the fixed-shape input),\n",
    "    and the other is like timedistributed dense (for various length input).\n",
    "\n",
    "    input shape :: (batch_size, input_num_capsule, input_dim_capsule)\n",
    "    output shape :: (batch_size, num_capsule, dim_capsule)\n",
    "\n",
    "    Capsule Implement is from https://github.com/bojone/Capsule/\n",
    "    Capsule Paper: https://arxiv.org/abs/1710.09829\n",
    "    \"\"\"\n",
    "\n",
    "    def __init__(self,\n",
    "                 num_capsule,\n",
    "                 dim_capsule,\n",
    "                 routings=3,\n",
    "                 share_weights=True,\n",
    "                 activation='squash',\n",
    "                 **kwargs):\n",
    "        super(Capsule, self).__init__(**kwargs)\n",
    "        self.num_capsule = num_capsule\n",
    "        self.dim_capsule = dim_capsule\n",
    "        self.routings = routings\n",
    "        self.share_weights = share_weights\n",
    "        if activation == 'squash':\n",
    "            self.activation = squash\n",
    "        else:\n",
    "            self.activation = activations.get(activation)\n",
    "\n",
    "    def build(self, input_shape):\n",
    "        input_dim_capsule = input_shape[-1]\n",
    "        if self.share_weights:\n",
    "            self.kernel = self.add_weight(\n",
    "                name='capsule_kernel',\n",
    "                shape=(1, input_dim_capsule,\n",
    "                       self.num_capsule * self.dim_capsule),\n",
    "                initializer='glorot_uniform',\n",
    "                trainable=True)\n",
    "        else:\n",
    "            input_num_capsule = input_shape[-2]\n",
    "            self.kernel = self.add_weight(\n",
    "                name='capsule_kernel',\n",
    "                shape=(input_num_capsule, input_dim_capsule,\n",
    "                       self.num_capsule * self.dim_capsule),\n",
    "                initializer='glorot_uniform',\n",
    "                trainable=True)\n",
    "\n",
    "    def call(self, inputs):\n",
    "        \"\"\"Following the routing algorithm from Hinton's paper,\n",
    "        but replace b = b + <u,v> with b = <u,v>.\n",
    "\n",
    "        This change can improve the feature representation of Capsule.\n",
    "\n",
    "        However, you can replace\n",
    "            b = K.batch_dot(outputs, hat_inputs, [2, 3])\n",
    "        with\n",
    "            b += K.batch_dot(outputs, hat_inputs, [2, 3])\n",
    "        to realize a standard routing.\n",
    "        \"\"\"\n",
    "\n",
    "        if self.share_weights:\n",
    "            hat_inputs = K.conv1d(inputs, self.kernel)\n",
    "        else:\n",
    "            hat_inputs = K.local_conv1d(inputs, self.kernel, [1], [1])\n",
    "\n",
    "        batch_size = K.shape(inputs)[0]\n",
    "        input_num_capsule = K.shape(inputs)[1]\n",
    "        hat_inputs = K.reshape(hat_inputs,\n",
    "                               (batch_size, input_num_capsule,\n",
    "                                self.num_capsule, self.dim_capsule))\n",
    "        hat_inputs = K.permute_dimensions(hat_inputs, (0, 2, 1, 3))\n",
    "\n",
    "        b = K.zeros_like(hat_inputs[:, :, :, 0])\n",
    "        for i in range(self.routings):\n",
    "            c = softmax(b, 1)\n",
    "            if K.backend() == 'theano':\n",
    "                o = K.sum(o, axis=1)\n",
    "            o = self.activation(K.batch_dot(c, hat_inputs, [2, 2]))\n",
    "            if i < self.routings - 1:\n",
    "                # b = K.batch_dot(o, hat_inputs, [2, 3])\n",
    "                b += K.batch_dot(o, hat_inputs, [2, 3])\n",
    "                if K.backend() == 'theano':\n",
    "                    o = K.sum(o, axis=1)\n",
    "\n",
    "        return o\n",
    "\n",
    "    def compute_output_shape(self, input_shape):\n",
    "        return (None, self.num_capsule, self.dim_capsule)"
   ]
  },
  {
   "cell_type": "code",
   "execution_count": null,
   "metadata": {},
   "outputs": [],
   "source": [
    "num_classes = 10\n",
    "m = 9000"
   ]
  },
  {
   "cell_type": "code",
   "execution_count": null,
   "metadata": {},
   "outputs": [],
   "source": [
    "# (x_train, y_train), (x_test, y_test) = cifar10.load_data()\n",
    "# x_train /= 255\n",
    "# x_test /= 255\n",
    "# x_train = x_train[:m].astype('float32')\n",
    "# x_test = x_test[:1000].astype('float32')\n",
    "# y_train = y_train[:m]\n",
    "# y_test = y_train[:1000]\n",
    "# y_train = utils.to_categorical(y_train, num_classes)\n",
    "# y_test = utils.to_categorical(y_test, num_classes)"
   ]
  },
  {
   "cell_type": "code",
   "execution_count": null,
   "metadata": {},
   "outputs": [],
   "source": [
    "x_train.shape"
   ]
  },
  {
   "cell_type": "code",
   "execution_count": null,
   "metadata": {},
   "outputs": [],
   "source": [
    "y_train.shape"
   ]
  },
  {
   "cell_type": "code",
   "execution_count": null,
   "metadata": {},
   "outputs": [],
   "source": [
    "# plt.imshow(x_train[0,:,:,0])\n",
    "plot.multi(x_train[0,:30,:,0])"
   ]
  },
  {
   "cell_type": "code",
   "execution_count": null,
   "metadata": {},
   "outputs": [],
   "source": [
    "# A common Conv2D model\n",
    "n_channels = x_train.shape[-1]\n",
    "n_notes = x_train.shape[-2]\n",
    "kernel_size = (3,3) if n_notes > 27 else (3,1)\n",
    "\n",
    "input_image = Input(shape=(None, None, n_channels))\n",
    "x = Conv2D(64, (3,3), activation='relu')(input_image)\n",
    "x = Conv2D(64, kernel_size, activation='relu')(x)\n",
    "x = AveragePooling2D((2, 2))(x)\n",
    "x = Conv2D(128, kernel_size, activation='relu')(x)\n",
    "x = Conv2D(128, kernel_size, activation='relu')(x)\n",
    "\n",
    "\"\"\"now we reshape it as (batch_size, input_num_capsule, input_dim_capsule)\n",
    "then connect a Capsule layer.\n",
    "\n",
    "the output of final model is the lengths of 10 Capsule, whose dim=16.\n",
    "\n",
    "the length of Capsule is the proba,\n",
    "so the problem becomes a 10 two-classification problem.\n",
    "\"\"\"\n",
    "\n",
    "x = Reshape((-1, 128))(x)\n",
    "capsule = Capsule(10, 16, 3, True)(x)\n",
    "output = Lambda(lambda z: K.sqrt(K.sum(K.square(z), 2)))(capsule)\n",
    "model = Model(inputs=input_image, outputs=output)"
   ]
  },
  {
   "cell_type": "code",
   "execution_count": null,
   "metadata": {},
   "outputs": [],
   "source": [
    "# we use a margin loss\n",
    "model.compile(loss=margin_loss, optimizer='adam', metrics=['accuracy'])\n",
    "model.summary()"
   ]
  },
  {
   "cell_type": "code",
   "execution_count": null,
   "metadata": {},
   "outputs": [],
   "source": [
    "batch_size = 128\n",
    "epochs = 50"
   ]
  },
  {
   "cell_type": "code",
   "execution_count": 133,
   "metadata": {},
   "outputs": [
    {
     "name": "stdout",
     "output_type": "stream",
     "text": [
      "Not using data augmentation.\n",
      "Train on 1000 samples, validate on 500 samples\n",
      "Epoch 1/50\n",
      "1000/1000 [==============================] - 2s 2ms/step - loss: 0.8100 - acc: 0.1000 - val_loss: 0.8100 - val_acc: 0.1000\n",
      "Epoch 2/50\n",
      "1000/1000 [==============================] - 0s 345us/step - loss: 0.8100 - acc: 0.1000 - val_loss: 0.8100 - val_acc: 0.1000\n",
      "Epoch 3/50\n",
      "1000/1000 [==============================] - 0s 345us/step - loss: 0.8100 - acc: 0.1000 - val_loss: 0.8100 - val_acc: 0.1000\n",
      "Epoch 4/50\n",
      "1000/1000 [==============================] - 0s 346us/step - loss: 0.8100 - acc: 0.1000 - val_loss: 0.8100 - val_acc: 0.1000\n",
      "Epoch 5/50\n",
      "1000/1000 [==============================] - 0s 354us/step - loss: 0.8100 - acc: 0.1000 - val_loss: 0.8100 - val_acc: 0.1000\n",
      "Epoch 6/50\n",
      "1000/1000 [==============================] - 0s 352us/step - loss: 0.8100 - acc: 0.1000 - val_loss: 0.8100 - val_acc: 0.1000\n",
      "Epoch 7/50\n",
      "1000/1000 [==============================] - 0s 378us/step - loss: 0.8100 - acc: 0.1000 - val_loss: 0.8100 - val_acc: 0.1000\n",
      "Epoch 8/50\n",
      "1000/1000 [==============================] - 0s 350us/step - loss: 0.8100 - acc: 0.1000 - val_loss: 0.8100 - val_acc: 0.1000\n",
      "Epoch 9/50\n",
      "1000/1000 [==============================] - 0s 342us/step - loss: 0.8100 - acc: 0.1000 - val_loss: 0.8100 - val_acc: 0.1000\n",
      "Epoch 10/50\n",
      "1000/1000 [==============================] - 0s 378us/step - loss: 0.8100 - acc: 0.1000 - val_loss: 0.8100 - val_acc: 0.1000\n",
      "Epoch 11/50\n",
      "1000/1000 [==============================] - 0s 410us/step - loss: 0.8100 - acc: 0.1000 - val_loss: 0.8100 - val_acc: 0.1000\n",
      "Epoch 12/50\n",
      "1000/1000 [==============================] - 0s 389us/step - loss: 0.8100 - acc: 0.1000 - val_loss: 0.8100 - val_acc: 0.1000\n",
      "Epoch 13/50\n",
      "1000/1000 [==============================] - 0s 395us/step - loss: 0.8100 - acc: 0.1000 - val_loss: 0.8100 - val_acc: 0.1000\n",
      "Epoch 14/50\n",
      "1000/1000 [==============================] - 0s 409us/step - loss: 0.8100 - acc: 0.1000 - val_loss: 0.8100 - val_acc: 0.1000\n",
      "Epoch 15/50\n",
      "1000/1000 [==============================] - 0s 391us/step - loss: 0.8100 - acc: 0.1000 - val_loss: 0.8100 - val_acc: 0.1000\n",
      "Epoch 16/50\n",
      "1000/1000 [==============================] - 0s 358us/step - loss: 0.8100 - acc: 0.1000 - val_loss: 0.8100 - val_acc: 0.1000\n",
      "Epoch 17/50\n",
      "1000/1000 [==============================] - 0s 430us/step - loss: 0.8100 - acc: 0.1000 - val_loss: 0.8100 - val_acc: 0.1000\n",
      "Epoch 18/50\n",
      "1000/1000 [==============================] - 0s 397us/step - loss: 0.8100 - acc: 0.1000 - val_loss: 0.8100 - val_acc: 0.1000\n",
      "Epoch 19/50\n",
      "1000/1000 [==============================] - 0s 387us/step - loss: 0.8100 - acc: 0.1000 - val_loss: 0.8100 - val_acc: 0.1000\n",
      "Epoch 20/50\n",
      "1000/1000 [==============================] - 0s 378us/step - loss: 0.8100 - acc: 0.1000 - val_loss: 0.8100 - val_acc: 0.1000\n",
      "Epoch 21/50\n",
      "1000/1000 [==============================] - 0s 380us/step - loss: 0.8100 - acc: 0.1000 - val_loss: 0.8100 - val_acc: 0.1000\n",
      "Epoch 22/50\n",
      "1000/1000 [==============================] - 0s 403us/step - loss: 0.8100 - acc: 0.1000 - val_loss: 0.8100 - val_acc: 0.1000\n",
      "Epoch 23/50\n",
      "1000/1000 [==============================] - 0s 358us/step - loss: 0.8100 - acc: 0.1000 - val_loss: 0.8100 - val_acc: 0.1000\n",
      "Epoch 24/50\n",
      "1000/1000 [==============================] - 0s 339us/step - loss: 0.8100 - acc: 0.1000 - val_loss: 0.8100 - val_acc: 0.1000\n",
      "Epoch 25/50\n",
      "1000/1000 [==============================] - 0s 382us/step - loss: 0.8100 - acc: 0.1000 - val_loss: 0.8100 - val_acc: 0.1000\n",
      "Epoch 26/50\n",
      "1000/1000 [==============================] - 0s 373us/step - loss: 0.8100 - acc: 0.1000 - val_loss: 0.8100 - val_acc: 0.1000\n",
      "Epoch 27/50\n",
      "1000/1000 [==============================] - 0s 392us/step - loss: 0.8100 - acc: 0.1000 - val_loss: 0.8100 - val_acc: 0.1000\n",
      "Epoch 28/50\n",
      "1000/1000 [==============================] - 0s 364us/step - loss: 0.8100 - acc: 0.1000 - val_loss: 0.8100 - val_acc: 0.1000\n",
      "Epoch 29/50\n",
      "1000/1000 [==============================] - 0s 400us/step - loss: 0.8100 - acc: 0.1000 - val_loss: 0.8100 - val_acc: 0.1000\n",
      "Epoch 30/50\n",
      "1000/1000 [==============================] - 0s 364us/step - loss: 0.8100 - acc: 0.1000 - val_loss: 0.8100 - val_acc: 0.1000\n",
      "Epoch 31/50\n",
      "1000/1000 [==============================] - 0s 352us/step - loss: 0.8100 - acc: 0.1000 - val_loss: 0.8100 - val_acc: 0.1000\n",
      "Epoch 32/50\n",
      "1000/1000 [==============================] - 0s 383us/step - loss: 0.8100 - acc: 0.1000 - val_loss: 0.8100 - val_acc: 0.1000\n",
      "Epoch 33/50\n",
      "1000/1000 [==============================] - 0s 395us/step - loss: 0.8100 - acc: 0.1000 - val_loss: 0.8100 - val_acc: 0.1000\n",
      "Epoch 34/50\n",
      "1000/1000 [==============================] - 0s 377us/step - loss: 0.8100 - acc: 0.1000 - val_loss: 0.8100 - val_acc: 0.1000\n",
      "Epoch 35/50\n",
      "1000/1000 [==============================] - 0s 440us/step - loss: 0.8100 - acc: 0.1000 - val_loss: 0.8100 - val_acc: 0.1000\n",
      "Epoch 36/50\n",
      "1000/1000 [==============================] - 0s 466us/step - loss: 0.8100 - acc: 0.1000 - val_loss: 0.8100 - val_acc: 0.1000\n",
      "Epoch 37/50\n",
      "1000/1000 [==============================] - 1s 564us/step - loss: 0.8100 - acc: 0.1000 - val_loss: 0.8100 - val_acc: 0.1000\n",
      "Epoch 38/50\n",
      "1000/1000 [==============================] - 0s 496us/step - loss: 0.8100 - acc: 0.1000 - val_loss: 0.8100 - val_acc: 0.1000\n",
      "Epoch 39/50\n",
      "1000/1000 [==============================] - 1s 565us/step - loss: 0.8100 - acc: 0.1000 - val_loss: 0.8100 - val_acc: 0.1000\n",
      "Epoch 40/50\n",
      "1000/1000 [==============================] - 0s 482us/step - loss: 0.8100 - acc: 0.1000 - val_loss: 0.8100 - val_acc: 0.1000\n",
      "Epoch 41/50\n",
      " 256/1000 [======>.......................] - ETA: 0s - loss: 0.8100 - acc: 0.0938"
     ]
    },
    {
     "ename": "KeyboardInterrupt",
     "evalue": "",
     "output_type": "error",
     "traceback": [
      "\u001b[0;31m---------------------------------------------------------------------------\u001b[0m",
      "\u001b[0;31mKeyboardInterrupt\u001b[0m                         Traceback (most recent call last)",
      "\u001b[0;32m<ipython-input-133-6686ed4f5113>\u001b[0m in \u001b[0;36m<module>\u001b[0;34m()\u001b[0m\n\u001b[1;32m     10\u001b[0m         \u001b[0mepochs\u001b[0m\u001b[0;34m=\u001b[0m\u001b[0mepochs\u001b[0m\u001b[0;34m,\u001b[0m\u001b[0;34m\u001b[0m\u001b[0m\n\u001b[1;32m     11\u001b[0m         \u001b[0mvalidation_data\u001b[0m\u001b[0;34m=\u001b[0m\u001b[0;34m(\u001b[0m\u001b[0mx_test\u001b[0m\u001b[0;34m,\u001b[0m \u001b[0my_test\u001b[0m\u001b[0;34m)\u001b[0m\u001b[0;34m,\u001b[0m\u001b[0;34m\u001b[0m\u001b[0m\n\u001b[0;32m---> 12\u001b[0;31m         shuffle=True)\n\u001b[0m\u001b[1;32m     13\u001b[0m \u001b[0;32melse\u001b[0m\u001b[0;34m:\u001b[0m\u001b[0;34m\u001b[0m\u001b[0m\n\u001b[1;32m     14\u001b[0m     \u001b[0mprint\u001b[0m\u001b[0;34m(\u001b[0m\u001b[0;34m'Using real-time data augmentation.'\u001b[0m\u001b[0;34m)\u001b[0m\u001b[0;34m\u001b[0m\u001b[0m\n",
      "\u001b[0;32m/Library/Frameworks/Python.framework/Versions/3.6/lib/python3.6/site-packages/keras/engine/training.py\u001b[0m in \u001b[0;36mfit\u001b[0;34m(self, x, y, batch_size, epochs, verbose, callbacks, validation_split, validation_data, shuffle, class_weight, sample_weight, initial_epoch, steps_per_epoch, validation_steps, **kwargs)\u001b[0m\n\u001b[1;32m   1703\u001b[0m                               \u001b[0minitial_epoch\u001b[0m\u001b[0;34m=\u001b[0m\u001b[0minitial_epoch\u001b[0m\u001b[0;34m,\u001b[0m\u001b[0;34m\u001b[0m\u001b[0m\n\u001b[1;32m   1704\u001b[0m                               \u001b[0msteps_per_epoch\u001b[0m\u001b[0;34m=\u001b[0m\u001b[0msteps_per_epoch\u001b[0m\u001b[0;34m,\u001b[0m\u001b[0;34m\u001b[0m\u001b[0m\n\u001b[0;32m-> 1705\u001b[0;31m                               validation_steps=validation_steps)\n\u001b[0m\u001b[1;32m   1706\u001b[0m \u001b[0;34m\u001b[0m\u001b[0m\n\u001b[1;32m   1707\u001b[0m     def evaluate(self, x=None, y=None,\n",
      "\u001b[0;32m/Library/Frameworks/Python.framework/Versions/3.6/lib/python3.6/site-packages/keras/engine/training.py\u001b[0m in \u001b[0;36m_fit_loop\u001b[0;34m(self, f, ins, out_labels, batch_size, epochs, verbose, callbacks, val_f, val_ins, shuffle, callback_metrics, initial_epoch, steps_per_epoch, validation_steps)\u001b[0m\n\u001b[1;32m   1233\u001b[0m                         \u001b[0mins_batch\u001b[0m\u001b[0;34m[\u001b[0m\u001b[0mi\u001b[0m\u001b[0;34m]\u001b[0m \u001b[0;34m=\u001b[0m \u001b[0mins_batch\u001b[0m\u001b[0;34m[\u001b[0m\u001b[0mi\u001b[0m\u001b[0;34m]\u001b[0m\u001b[0;34m.\u001b[0m\u001b[0mtoarray\u001b[0m\u001b[0;34m(\u001b[0m\u001b[0;34m)\u001b[0m\u001b[0;34m\u001b[0m\u001b[0m\n\u001b[1;32m   1234\u001b[0m \u001b[0;34m\u001b[0m\u001b[0m\n\u001b[0;32m-> 1235\u001b[0;31m                     \u001b[0mouts\u001b[0m \u001b[0;34m=\u001b[0m \u001b[0mf\u001b[0m\u001b[0;34m(\u001b[0m\u001b[0mins_batch\u001b[0m\u001b[0;34m)\u001b[0m\u001b[0;34m\u001b[0m\u001b[0m\n\u001b[0m\u001b[1;32m   1236\u001b[0m                     \u001b[0;32mif\u001b[0m \u001b[0;32mnot\u001b[0m \u001b[0misinstance\u001b[0m\u001b[0;34m(\u001b[0m\u001b[0mouts\u001b[0m\u001b[0;34m,\u001b[0m \u001b[0mlist\u001b[0m\u001b[0;34m)\u001b[0m\u001b[0;34m:\u001b[0m\u001b[0;34m\u001b[0m\u001b[0m\n\u001b[1;32m   1237\u001b[0m                         \u001b[0mouts\u001b[0m \u001b[0;34m=\u001b[0m \u001b[0;34m[\u001b[0m\u001b[0mouts\u001b[0m\u001b[0;34m]\u001b[0m\u001b[0;34m\u001b[0m\u001b[0m\n",
      "\u001b[0;32m/Library/Frameworks/Python.framework/Versions/3.6/lib/python3.6/site-packages/keras/backend/tensorflow_backend.py\u001b[0m in \u001b[0;36m__call__\u001b[0;34m(self, inputs)\u001b[0m\n\u001b[1;32m   2476\u001b[0m         \u001b[0msession\u001b[0m \u001b[0;34m=\u001b[0m \u001b[0mget_session\u001b[0m\u001b[0;34m(\u001b[0m\u001b[0;34m)\u001b[0m\u001b[0;34m\u001b[0m\u001b[0m\n\u001b[1;32m   2477\u001b[0m         updated = session.run(fetches=fetches, feed_dict=feed_dict,\n\u001b[0;32m-> 2478\u001b[0;31m                               **self.session_kwargs)\n\u001b[0m\u001b[1;32m   2479\u001b[0m         \u001b[0;32mreturn\u001b[0m \u001b[0mupdated\u001b[0m\u001b[0;34m[\u001b[0m\u001b[0;34m:\u001b[0m\u001b[0mlen\u001b[0m\u001b[0;34m(\u001b[0m\u001b[0mself\u001b[0m\u001b[0;34m.\u001b[0m\u001b[0moutputs\u001b[0m\u001b[0;34m)\u001b[0m\u001b[0;34m]\u001b[0m\u001b[0;34m\u001b[0m\u001b[0m\n\u001b[1;32m   2480\u001b[0m \u001b[0;34m\u001b[0m\u001b[0m\n",
      "\u001b[0;32m/Library/Frameworks/Python.framework/Versions/3.6/lib/python3.6/site-packages/tensorflow/python/client/session.py\u001b[0m in \u001b[0;36mrun\u001b[0;34m(self, fetches, feed_dict, options, run_metadata)\u001b[0m\n\u001b[1;32m    893\u001b[0m     \u001b[0;32mtry\u001b[0m\u001b[0;34m:\u001b[0m\u001b[0;34m\u001b[0m\u001b[0m\n\u001b[1;32m    894\u001b[0m       result = self._run(None, fetches, feed_dict, options_ptr,\n\u001b[0;32m--> 895\u001b[0;31m                          run_metadata_ptr)\n\u001b[0m\u001b[1;32m    896\u001b[0m       \u001b[0;32mif\u001b[0m \u001b[0mrun_metadata\u001b[0m\u001b[0;34m:\u001b[0m\u001b[0;34m\u001b[0m\u001b[0m\n\u001b[1;32m    897\u001b[0m         \u001b[0mproto_data\u001b[0m \u001b[0;34m=\u001b[0m \u001b[0mtf_session\u001b[0m\u001b[0;34m.\u001b[0m\u001b[0mTF_GetBuffer\u001b[0m\u001b[0;34m(\u001b[0m\u001b[0mrun_metadata_ptr\u001b[0m\u001b[0;34m)\u001b[0m\u001b[0;34m\u001b[0m\u001b[0m\n",
      "\u001b[0;32m/Library/Frameworks/Python.framework/Versions/3.6/lib/python3.6/site-packages/tensorflow/python/client/session.py\u001b[0m in \u001b[0;36m_run\u001b[0;34m(self, handle, fetches, feed_dict, options, run_metadata)\u001b[0m\n\u001b[1;32m   1126\u001b[0m     \u001b[0;32mif\u001b[0m \u001b[0mfinal_fetches\u001b[0m \u001b[0;32mor\u001b[0m \u001b[0mfinal_targets\u001b[0m \u001b[0;32mor\u001b[0m \u001b[0;34m(\u001b[0m\u001b[0mhandle\u001b[0m \u001b[0;32mand\u001b[0m \u001b[0mfeed_dict_tensor\u001b[0m\u001b[0;34m)\u001b[0m\u001b[0;34m:\u001b[0m\u001b[0;34m\u001b[0m\u001b[0m\n\u001b[1;32m   1127\u001b[0m       results = self._do_run(handle, final_targets, final_fetches,\n\u001b[0;32m-> 1128\u001b[0;31m                              feed_dict_tensor, options, run_metadata)\n\u001b[0m\u001b[1;32m   1129\u001b[0m     \u001b[0;32melse\u001b[0m\u001b[0;34m:\u001b[0m\u001b[0;34m\u001b[0m\u001b[0m\n\u001b[1;32m   1130\u001b[0m       \u001b[0mresults\u001b[0m \u001b[0;34m=\u001b[0m \u001b[0;34m[\u001b[0m\u001b[0;34m]\u001b[0m\u001b[0;34m\u001b[0m\u001b[0m\n",
      "\u001b[0;32m/Library/Frameworks/Python.framework/Versions/3.6/lib/python3.6/site-packages/tensorflow/python/client/session.py\u001b[0m in \u001b[0;36m_do_run\u001b[0;34m(self, handle, target_list, fetch_list, feed_dict, options, run_metadata)\u001b[0m\n\u001b[1;32m   1342\u001b[0m     \u001b[0;32mif\u001b[0m \u001b[0mhandle\u001b[0m \u001b[0;32mis\u001b[0m \u001b[0;32mNone\u001b[0m\u001b[0;34m:\u001b[0m\u001b[0;34m\u001b[0m\u001b[0m\n\u001b[1;32m   1343\u001b[0m       return self._do_call(_run_fn, self._session, feeds, fetches, targets,\n\u001b[0;32m-> 1344\u001b[0;31m                            options, run_metadata)\n\u001b[0m\u001b[1;32m   1345\u001b[0m     \u001b[0;32melse\u001b[0m\u001b[0;34m:\u001b[0m\u001b[0;34m\u001b[0m\u001b[0m\n\u001b[1;32m   1346\u001b[0m       \u001b[0;32mreturn\u001b[0m \u001b[0mself\u001b[0m\u001b[0;34m.\u001b[0m\u001b[0m_do_call\u001b[0m\u001b[0;34m(\u001b[0m\u001b[0m_prun_fn\u001b[0m\u001b[0;34m,\u001b[0m \u001b[0mself\u001b[0m\u001b[0;34m.\u001b[0m\u001b[0m_session\u001b[0m\u001b[0;34m,\u001b[0m \u001b[0mhandle\u001b[0m\u001b[0;34m,\u001b[0m \u001b[0mfeeds\u001b[0m\u001b[0;34m,\u001b[0m \u001b[0mfetches\u001b[0m\u001b[0;34m)\u001b[0m\u001b[0;34m\u001b[0m\u001b[0m\n",
      "\u001b[0;32m/Library/Frameworks/Python.framework/Versions/3.6/lib/python3.6/site-packages/tensorflow/python/client/session.py\u001b[0m in \u001b[0;36m_do_call\u001b[0;34m(self, fn, *args)\u001b[0m\n\u001b[1;32m   1348\u001b[0m   \u001b[0;32mdef\u001b[0m \u001b[0m_do_call\u001b[0m\u001b[0;34m(\u001b[0m\u001b[0mself\u001b[0m\u001b[0;34m,\u001b[0m \u001b[0mfn\u001b[0m\u001b[0;34m,\u001b[0m \u001b[0;34m*\u001b[0m\u001b[0margs\u001b[0m\u001b[0;34m)\u001b[0m\u001b[0;34m:\u001b[0m\u001b[0;34m\u001b[0m\u001b[0m\n\u001b[1;32m   1349\u001b[0m     \u001b[0;32mtry\u001b[0m\u001b[0;34m:\u001b[0m\u001b[0;34m\u001b[0m\u001b[0m\n\u001b[0;32m-> 1350\u001b[0;31m       \u001b[0;32mreturn\u001b[0m \u001b[0mfn\u001b[0m\u001b[0;34m(\u001b[0m\u001b[0;34m*\u001b[0m\u001b[0margs\u001b[0m\u001b[0;34m)\u001b[0m\u001b[0;34m\u001b[0m\u001b[0m\n\u001b[0m\u001b[1;32m   1351\u001b[0m     \u001b[0;32mexcept\u001b[0m \u001b[0merrors\u001b[0m\u001b[0;34m.\u001b[0m\u001b[0mOpError\u001b[0m \u001b[0;32mas\u001b[0m \u001b[0me\u001b[0m\u001b[0;34m:\u001b[0m\u001b[0;34m\u001b[0m\u001b[0m\n\u001b[1;32m   1352\u001b[0m       \u001b[0mmessage\u001b[0m \u001b[0;34m=\u001b[0m \u001b[0mcompat\u001b[0m\u001b[0;34m.\u001b[0m\u001b[0mas_text\u001b[0m\u001b[0;34m(\u001b[0m\u001b[0me\u001b[0m\u001b[0;34m.\u001b[0m\u001b[0mmessage\u001b[0m\u001b[0;34m)\u001b[0m\u001b[0;34m\u001b[0m\u001b[0m\n",
      "\u001b[0;32m/Library/Frameworks/Python.framework/Versions/3.6/lib/python3.6/site-packages/tensorflow/python/client/session.py\u001b[0m in \u001b[0;36m_run_fn\u001b[0;34m(session, feed_dict, fetch_list, target_list, options, run_metadata)\u001b[0m\n\u001b[1;32m   1327\u001b[0m           return tf_session.TF_Run(session, options,\n\u001b[1;32m   1328\u001b[0m                                    \u001b[0mfeed_dict\u001b[0m\u001b[0;34m,\u001b[0m \u001b[0mfetch_list\u001b[0m\u001b[0;34m,\u001b[0m \u001b[0mtarget_list\u001b[0m\u001b[0;34m,\u001b[0m\u001b[0;34m\u001b[0m\u001b[0m\n\u001b[0;32m-> 1329\u001b[0;31m                                    status, run_metadata)\n\u001b[0m\u001b[1;32m   1330\u001b[0m \u001b[0;34m\u001b[0m\u001b[0m\n\u001b[1;32m   1331\u001b[0m     \u001b[0;32mdef\u001b[0m \u001b[0m_prun_fn\u001b[0m\u001b[0;34m(\u001b[0m\u001b[0msession\u001b[0m\u001b[0;34m,\u001b[0m \u001b[0mhandle\u001b[0m\u001b[0;34m,\u001b[0m \u001b[0mfeed_dict\u001b[0m\u001b[0;34m,\u001b[0m \u001b[0mfetch_list\u001b[0m\u001b[0;34m)\u001b[0m\u001b[0;34m:\u001b[0m\u001b[0;34m\u001b[0m\u001b[0m\n",
      "\u001b[0;31mKeyboardInterrupt\u001b[0m: "
     ]
    }
   ],
   "source": [
    "# we can compare the performance with or without data augmentation\n",
    "data_augmentation = False\n",
    "\n",
    "if not data_augmentation:\n",
    "    print('Not using data augmentation.')\n",
    "    history = model.fit(\n",
    "        x_train,\n",
    "        y_train,\n",
    "        batch_size=batch_size,\n",
    "        epochs=epochs,\n",
    "        validation_data=(x_test, y_test),\n",
    "        shuffle=True)\n",
    "else:\n",
    "    print('Using real-time data augmentation.')\n",
    "    # This will do preprocessing and realtime data augmentation:\n",
    "    datagen = ImageDataGenerator(\n",
    "        featurewise_center=False,  # set input mean to 0 over the dataset\n",
    "        samplewise_center=False,  # set each sample mean to 0\n",
    "        featurewise_std_normalization=False,  # divide inputs by dataset std\n",
    "        samplewise_std_normalization=False,  # divide each input by its std\n",
    "        zca_whitening=False,  # apply ZCA whitening\n",
    "        rotation_range=0,  # randomly rotate images in 0 to 180 degrees\n",
    "        width_shift_range=0.1,  # randomly shift images horizontally\n",
    "        height_shift_range=0.1,  # randomly shift images vertically\n",
    "        horizontal_flip=True,  # randomly flip images\n",
    "        vertical_flip=False)  # randomly flip images\n",
    "\n",
    "    # Compute quantities required for feature-wise normalization\n",
    "    # (std, mean, and principal components if ZCA whitening is applied).\n",
    "    datagen.fit(x_train)\n",
    "\n",
    "    # Fit the model on the batches generated by datagen.flow().\n",
    "    history = model.fit_generator(\n",
    "        datagen.flow(x_train, y_train, batch_size=batch_size),\n",
    "        epochs=epochs,\n",
    "        validation_data=(x_test, y_test),\n",
    "        workers=4)\n"
   ]
  },
  {
   "cell_type": "code",
   "execution_count": 136,
   "metadata": {},
   "outputs": [],
   "source": [
    "datagen = ImageDataGenerator(\n",
    "        featurewise_center=False,  # set input mean to 0 over the dataset\n",
    "        samplewise_center=False,  # set each sample mean to 0\n",
    "        featurewise_std_normalization=False,  # divide inputs by dataset std\n",
    "        samplewise_std_normalization=False,  # divide each input by its std\n",
    "        zca_whitening=False,  # apply ZCA whitening\n",
    "        rotation_range=0,  # randomly rotate images in 0 to 180 degrees\n",
    "        width_shift_range=0.1,  # randomly shift images horizontally\n",
    "        height_shift_range=0.1,  # randomly shift images vertically\n",
    "        horizontal_flip=True,  # randomly flip images\n",
    "        vertical_flip=False)  # randomly flip images"
   ]
  },
  {
   "cell_type": "code",
   "execution_count": 137,
   "metadata": {},
   "outputs": [],
   "source": [
    "datagen.fit(x_train)"
   ]
  },
  {
   "cell_type": "code",
   "execution_count": 138,
   "metadata": {},
   "outputs": [
    {
     "ename": "NameError",
     "evalue": "name 'a' is not defined",
     "output_type": "error",
     "traceback": [
      "\u001b[0;31m---------------------------------------------------------------------------\u001b[0m",
      "\u001b[0;31mNameError\u001b[0m                                 Traceback (most recent call last)",
      "\u001b[0;32m<ipython-input-138-3f786850e387>\u001b[0m in \u001b[0;36m<module>\u001b[0;34m()\u001b[0m\n\u001b[0;32m----> 1\u001b[0;31m \u001b[0ma\u001b[0m\u001b[0;34m\u001b[0m\u001b[0m\n\u001b[0m",
      "\u001b[0;31mNameError\u001b[0m: name 'a' is not defined"
     ]
    }
   ],
   "source": [
    "a"
   ]
  },
  {
   "cell_type": "code",
   "execution_count": null,
   "metadata": {},
   "outputs": [],
   "source": []
  },
  {
   "cell_type": "code",
   "execution_count": null,
   "metadata": {},
   "outputs": [],
   "source": []
  }
 ],
 "metadata": {
  "kernelspec": {
   "display_name": "Python 3",
   "language": "python",
   "name": "python3"
  },
  "language_info": {
   "codemirror_mode": {
    "name": "ipython",
    "version": 3
   },
   "file_extension": ".py",
   "mimetype": "text/x-python",
   "name": "python",
   "nbconvert_exporter": "python",
   "pygments_lexer": "ipython3",
   "version": "3.6.4"
  }
 },
 "nbformat": 4,
 "nbformat_minor": 2
}
