{
 "cells": [
  {
   "cell_type": "code",
   "execution_count": 15,
   "metadata": {},
   "outputs": [],
   "source": [
    "'''This script demonstrates how to build a variational autoencoder\n",
    "with Keras and deconvolution layers.\n",
    "# Reference\n",
    "- Auto-Encoding Variational Bayes\n",
    "  https://arxiv.org/abs/1312.6114\n",
    "'''\n",
    "from __future__ import print_function\n",
    "\n",
    "import numpy as np\n",
    "import matplotlib.pyplot as plt\n",
    "from scipy.stats import norm\n",
    "from keras.layers import Input, Dense, Lambda, Flatten, Reshape, Conv1D\n",
    "from keras.layers import Conv2D, Conv2DTranspose\n",
    "from keras.models import Model\n",
    "from keras import backend as K\n",
    "from keras import metrics\n",
    "from keras.datasets import mnist"
   ]
  },
  {
   "cell_type": "code",
   "execution_count": 2,
   "metadata": {},
   "outputs": [],
   "source": [
    "import config\n",
    "import os, numpy as np, pandas, sklearn, scipy.signal as signal\n",
    "import mido\n",
    "import matplotlib.pyplot as plt\n",
    "%matplotlib inline"
   ]
  },
  {
   "cell_type": "code",
   "execution_count": 3,
   "metadata": {},
   "outputs": [
    {
     "name": "stdout",
     "output_type": "stream",
     "text": [
      " Context :: namedtuple(\n",
      "[ max_t = float\n",
      ", dt = float\n",
      ", n_instances = int\n",
      ", note_length = int\n",
      ", bpm = float\n",
      ", tempo = float\n",
      ", ticks_per_beat = int\n",
      "]\n",
      "\n"
     ]
    }
   ],
   "source": [
    "# local libs\n",
    "import config, models, functions\n",
    "from data import data, midi, midi_generators as g\n",
    "from utils import io, models_io, utils, plot"
   ]
  },
  {
   "cell_type": "code",
   "execution_count": 4,
   "metadata": {},
   "outputs": [
    {
     "name": "stdout",
     "output_type": "stream",
     "text": [
      "Setting up params\n",
      "\n",
      "max min f 25.0 0.3333333333333333\n",
      " >> Context(max_t=3.0, dt=0.02, n_instances=150, note_length=0.03, bpm=120.0, tempo=500000, ticks_per_beat=480)\n",
      "Setting up params\n",
      "\n",
      "max min f 25.0 0.3333333333333333\n",
      " >> Context(max_t=3.0, dt=0.02, n_instances=150, note_length=0.03, bpm=120.0, tempo=500000, ticks_per_beat=480)\n",
      "Importing midi-data\n",
      "\n",
      "\u001b[92m [INFO] : \u001b[0m\n",
      " |  reading file: ../datasets/examples/01 16th Snare.mid\n",
      "\u001b[92m [INFO] : \u001b[0m\n",
      " |  reading file: ../datasets/examples/01 8th Cym.mid\n",
      "\n",
      "Encoding midi-data\n",
      " [<midi file '../datasets/examples/01 16th Snare.mid' type 0, 1 tracks, 182 messages>, <midi file '../datasets/examples/01 8th Cym.mid' type 0, 1 tracks, 68 messages>]\n",
      "> -> multi-track = True\n",
      "<meta message track_name name='01 16th Snare\\x00' time=0>\n",
      "<meta message time_signature numerator=4 denominator=4 clocks_per_click=36 notated_32nd_notes_per_beat=8 time=0>\n",
      "<meta message time_signature numerator=4 denominator=4 clocks_per_click=36 notated_32nd_notes_per_beat=8 time=0>\n",
      "note_on channel=0 note=36 velocity=104 time=0\n",
      "note_on channel=0 note=38 velocity=57 time=0\n",
      "note_off channel=0 note=38 velocity=64 time=0.08333333333333333\n",
      "note_off channel=0 note=36 velocity=64 time=0.020833333333333332\n",
      "note_on channel=0 note=38 velocity=73 time=0.010416666666666666\n",
      "note_off channel=0 note=38 velocity=64 time=0.08333333333333333\n",
      "note_on channel=0 note=38 velocity=107 time=0.041666666666666664\n",
      "note_off channel=0 note=38 velocity=64 time=0.109375\n",
      "note_on channel=0 note=38 velocity=104 time=0.020833333333333332\n",
      "note_off channel=0 note=38 velocity=64 time=0.09895833333333333\n",
      "note_on channel=0 note=38 velocity=64 time=0.020833333333333332\n",
      "note_on channel=0 note=36 velocity=103 time=0.005208333333333333\n",
      "note_on channel=0 note=44 velocity=105 time=0\n",
      "note_off channel=0 note=38 velocity=64 time=0.08854166666666666\n",
      "note_off channel=0 note=36 velocity=64 time=0.020833333333333332\n",
      "note_off channel=0 note=44 velocity=64 time=0.005208333333333333\n",
      "note_on channel=0 note=38 velocity=107 time=0.13020833333333331\n",
      "note_off channel=0 note=38 velocity=64 time=0.109375\n",
      "note_on channel=0 note=38 velocity=27 time=0.03125\n",
      "note_off channel=0 note=38 velocity=64 time=0.08333333333333333\n",
      "note_on channel=0 note=36 velocity=104 time=0.03645833333333333\n",
      "note_on channel=0 note=38 velocity=54 time=0\n",
      "note_off channel=0 note=36 velocity=64 time=0.078125\n",
      "note_off channel=0 note=38 velocity=64 time=0\n",
      "note_on channel=0 note=38 velocity=98 time=0.041666666666666664\n",
      "note_off channel=0 note=38 velocity=64 time=0.09375\n",
      "note_on channel=0 note=38 velocity=107 time=0.026041666666666664\n",
      "note_off channel=0 note=38 velocity=64 time=0.09895833333333333\n",
      "note_on channel=0 note=38 velocity=104 time=0.03125\n",
      "note_off channel=0 note=38 velocity=64 time=0.08333333333333333\n",
      "note_on channel=0 note=36 velocity=104 time=0.03645833333333333\n",
      "note_on channel=0 note=38 velocity=50 time=0\n",
      "note_on channel=0 note=44 velocity=107 time=0\n",
      "note_off channel=0 note=38 velocity=64 time=0.078125\n",
      "note_off channel=0 note=36 velocity=64 time=0.03125\n",
      "note_off channel=0 note=44 velocity=64 time=0\n",
      "note_on channel=0 note=38 velocity=74 time=0.005208333333333333\n",
      "note_off channel=0 note=38 velocity=64 time=0.08854166666666666\n",
      "note_on channel=0 note=38 velocity=107 time=0.03645833333333333\n",
      "note_on channel=0 note=36 velocity=99 time=0.010416666666666666\n",
      "note_off channel=0 note=38 velocity=64 time=0.08854166666666666\n",
      "note_off channel=0 note=36 velocity=64 time=0.026041666666666664\n",
      "note_on channel=0 note=38 velocity=34 time=0\n",
      "note_off channel=0 note=38 velocity=64 time=0.08854166666666666\n",
      "note_on channel=0 note=36 velocity=104 time=0.05208333333333333\n",
      "note_on channel=0 note=38 velocity=60 time=0\n",
      "note_off channel=0 note=36 velocity=64 time=0.09895833333333333\n",
      "note_off channel=0 note=38 velocity=64 time=0.005208333333333333\n",
      "note_on channel=0 note=38 velocity=74 time=0.026041666666666664\n",
      "note_off channel=0 note=38 velocity=64 time=0.10416666666666666\n",
      "note_on channel=0 note=38 velocity=107 time=0.015625\n",
      "note_off channel=0 note=38 velocity=64 time=0.08333333333333333\n",
      "note_on channel=0 note=38 velocity=104 time=0.046875\n",
      "note_off channel=0 note=38 velocity=64 time=0.09895833333333333\n",
      "note_on channel=0 note=36 velocity=104 time=0.020833333333333332\n",
      "note_on channel=0 note=44 velocity=107 time=0\n",
      "note_on channel=0 note=38 velocity=76 time=0.005208333333333333\n",
      "note_off channel=0 note=36 velocity=64 time=0.078125\n",
      "note_off channel=0 note=44 velocity=64 time=0\n",
      "note_off channel=0 note=38 velocity=64 time=0.020833333333333332\n",
      "note_on channel=0 note=38 velocity=107 time=0.14583333333333331\n",
      "note_off channel=0 note=38 velocity=64 time=0.08854166666666666\n",
      "note_on channel=0 note=38 velocity=34 time=0.03125\n",
      "note_off channel=0 note=38 velocity=64 time=0.08854166666666666\n",
      "note_on channel=0 note=36 velocity=103 time=0.041666666666666664\n",
      "\u001b[91m [DEBUG] > \u001b[0m\n",
      " |>  to_array: msg.time > max_t; t, n\n",
      " |>  2.994791666666667\n",
      " |>  150\n",
      "<meta message track_name name='01 8th Cym\\x00' time=0>\n",
      "<meta message time_signature numerator=4 denominator=4 clocks_per_click=36 notated_32nd_notes_per_beat=8 time=0>\n",
      "<meta message time_signature numerator=4 denominator=4 clocks_per_click=36 notated_32nd_notes_per_beat=8 time=0>\n",
      "note_on channel=0 note=36 velocity=123 time=0\n",
      "note_on channel=0 note=44 velocity=87 time=0\n",
      "note_on channel=0 note=57 velocity=118 time=0\n",
      "note_off channel=0 note=36 velocity=64 time=0.0625\n",
      "note_off channel=0 note=44 velocity=64 time=0\n",
      "note_off channel=0 note=57 velocity=64 time=0\n",
      "note_on channel=0 note=57 velocity=99 time=0.17708333333333331\n",
      "note_off channel=0 note=57 velocity=64 time=0.0625\n",
      "note_on channel=0 note=38 velocity=119 time=0.1875\n",
      "note_on channel=0 note=57 velocity=118 time=0.005208333333333333\n",
      "note_on channel=0 note=44 velocity=88 time=0.005208333333333333\n",
      "note_off channel=0 note=38 velocity=64 time=0.05208333333333333\n",
      "note_off channel=0 note=57 velocity=64 time=0.005208333333333333\n",
      "note_off channel=0 note=44 velocity=64 time=0.005208333333333333\n",
      "note_on channel=0 note=57 velocity=107 time=0.1875\n",
      "note_on channel=0 note=38 velocity=118 time=0.005208333333333333\n",
      "note_off channel=0 note=57 velocity=64 time=0.057291666666666664\n",
      "note_off channel=0 note=38 velocity=64 time=0.005208333333333333\n",
      "note_on channel=0 note=44 velocity=90 time=0.17708333333333331\n",
      "note_on channel=0 note=57 velocity=118 time=0.005208333333333333\n",
      "note_off channel=0 note=44 velocity=64 time=0.057291666666666664\n",
      "note_off channel=0 note=57 velocity=64 time=0.005208333333333333\n",
      "note_on channel=0 note=57 velocity=100 time=0.171875\n",
      "note_off channel=0 note=57 velocity=64 time=0.0625\n",
      "note_on channel=0 note=38 velocity=120 time=0.203125\n",
      "note_on channel=0 note=44 velocity=88 time=0\n",
      "note_on channel=0 note=57 velocity=119 time=0.010416666666666666\n",
      "note_off channel=0 note=38 velocity=64 time=0.05208333333333333\n",
      "note_off channel=0 note=44 velocity=64 time=0\n",
      "note_off channel=0 note=57 velocity=64 time=0.010416666666666666\n",
      "note_on channel=0 note=57 velocity=101 time=0.17708333333333331\n",
      "note_off channel=0 note=57 velocity=64 time=0.0625\n",
      "note_on channel=0 note=44 velocity=87 time=0.18229166666666666\n",
      "note_on channel=0 note=57 velocity=115 time=0.005208333333333333\n",
      "note_on channel=0 note=36 velocity=118 time=0\n",
      "note_off channel=0 note=44 velocity=64 time=0.057291666666666664\n",
      "note_off channel=0 note=57 velocity=64 time=0.005208333333333333\n",
      "note_off channel=0 note=36 velocity=64 time=0\n",
      "note_on channel=0 note=57 velocity=108 time=0.18229166666666666\n",
      "note_off channel=0 note=57 velocity=64 time=0.0625\n",
      "note_on channel=0 note=38 velocity=120 time=0.17708333333333331\n",
      "note_on channel=0 note=44 velocity=90 time=0.010416666666666666\n",
      "note_on channel=0 note=57 velocity=115 time=0.015625\n",
      "note_off channel=0 note=38 velocity=64 time=0.03645833333333333\n",
      "note_off channel=0 note=44 velocity=64 time=0.010416666666666666\n",
      "note_off channel=0 note=57 velocity=64 time=0.015625\n",
      "note_on channel=0 note=38 velocity=120 time=0.16145833333333331\n",
      "note_on channel=0 note=57 velocity=101 time=0.010416666666666666\n",
      "note_off channel=0 note=38 velocity=64 time=0.05208333333333333\n",
      "note_off channel=0 note=57 velocity=64 time=0.010416666666666666\n",
      "note_on channel=0 note=44 velocity=91 time=0.18229166666666666\n",
      "note_on channel=0 note=57 velocity=115 time=0.005208333333333333\n",
      "\u001b[91m [DEBUG] > \u001b[0m\n",
      " |>  to_array: msg.time > max_t; t, n\n",
      " |>  2.9947916666666665\n",
      " |>  150\n"
     ]
    }
   ],
   "source": [
    "context = data.init()\n",
    "n = 2\n",
    "multiTrack = True\n",
    "context, x_train, labels = data.import_data(data.init(), n, multiTrack=multiTrack)"
   ]
  },
  {
   "cell_type": "code",
   "execution_count": 5,
   "metadata": {},
   "outputs": [
    {
     "name": "stdout",
     "output_type": "stream",
     "text": [
      "note_on channel=0 note=60 velocity=127 time=0.009375\n",
      "note_on channel=0 note=62 velocity=127 time=0.016666666666666666\n",
      "note_off channel=0 note=60 velocity=127 time=0.003125\n",
      "note_on channel=0 note=61 velocity=127 time=0.005208333333333333\n",
      "note_off channel=0 note=62 velocity=127 time=0.011458333333333333\n",
      "note_off channel=0 note=61 velocity=127 time=0.008333333333333333\n",
      "note_on channel=0 note=61 velocity=127 time=0.06041666666666667\n",
      "note_off channel=0 note=61 velocity=127 time=0.019791666666666666\n",
      "note_on channel=0 note=61 velocity=127 time=0.06041666666666667\n",
      "note_on channel=0 note=60 velocity=127 time=0.00625\n",
      "note_off channel=0 note=61 velocity=127 time=0.013541666666666667\n",
      "note_off channel=0 note=60 velocity=127 time=0.00625\n",
      "note_on channel=0 note=61 velocity=127 time=0.05416666666666667\n",
      "note_on channel=0 note=62 velocity=127 time=0.0125\n",
      "note_off channel=0 note=61 velocity=127 time=0.007291666666666667\n",
      "note_off channel=0 note=62 velocity=127 time=0.0125\n",
      "note_on channel=0 note=61 velocity=127 time=0.04791666666666666\n",
      "note_off channel=0 note=61 velocity=127 time=0.019791666666666666\n",
      "note_on channel=0 note=60 velocity=127 time=0.017708333333333333\n",
      "note_off channel=0 note=60 velocity=127 time=0.019791666666666666\n",
      "note_on channel=0 note=61 velocity=127 time=0.022916666666666665\n",
      "note_off channel=0 note=61 velocity=127 time=0.019791666666666666\n",
      "note_on channel=0 note=61 velocity=127 time=0.06041666666666667\n",
      "note_off channel=0 note=61 velocity=127 time=0.019791666666666666\n",
      "note_on channel=0 note=62 velocity=127 time=0.0125\n",
      "note_off channel=0 note=62 velocity=127 time=0.019791666666666666\n",
      "note_on channel=0 note=60 velocity=127 time=0.015625\n",
      "note_on channel=0 note=61 velocity=127 time=0.011458333333333333\n",
      "note_off channel=0 note=60 velocity=127 time=0.008333333333333333\n",
      "note_off channel=0 note=61 velocity=127 time=0.011458333333333333\n",
      "note_on channel=0 note=61 velocity=127 time=0.06041666666666667\n",
      "note_off channel=0 note=61 velocity=127 time=0.019791666666666666\n",
      "note_on channel=0 note=61 velocity=127 time=0.06041666666666667\n",
      "note_off channel=0 note=61 velocity=127 time=0.019791666666666666\n",
      "note_on channel=0 note=60 velocity=127 time=0\n",
      "note_off channel=0 note=60 velocity=127 time=0.019791666666666666\n",
      "note_on channel=0 note=62 velocity=127 time=0.013541666666666667\n",
      "note_off channel=0 note=62 velocity=127 time=0.019791666666666666\n",
      "note_on channel=0 note=61 velocity=127 time=0.00625\n",
      "note_off channel=0 note=61 velocity=127 time=0.019791666666666666\n",
      "note_on channel=0 note=61 velocity=127 time=0.06041666666666667\n",
      "note_off channel=0 note=61 velocity=127 time=0.019791666666666666\n",
      "note_on channel=0 note=60 velocity=127 time=0.03125\n",
      "note_off channel=0 note=60 velocity=127 time=0.019791666666666666\n",
      "note_on channel=0 note=61 velocity=127 time=0.008333333333333333\n",
      "note_off channel=0 note=61 velocity=127 time=0.019791666666666666\n",
      "note_on channel=0 note=62 velocity=127 time=0.05416666666666667\n",
      "note_on channel=0 note=61 velocity=127 time=0.00625\n",
      "note_off channel=0 note=62 velocity=127 time=0.014583333333333334\n",
      "note_off channel=0 note=61 velocity=127 time=0.00625\n",
      "note_on channel=0 note=61 velocity=127 time=0.06041666666666667\n",
      "note_on channel=0 note=60 velocity=127 time=0.003125\n",
      "note_off channel=0 note=61 velocity=127 time=0.016666666666666666\n",
      "note_off channel=0 note=60 velocity=127 time=0.003125\n",
      "note_on channel=0 note=61 velocity=127 time=0.057291666666666664\n",
      "note_off channel=0 note=61 velocity=127 time=0.019791666666666666\n",
      "note_on channel=0 note=61 velocity=127 time=0.06041666666666667\n",
      "note_on channel=0 note=62 velocity=127 time=0.014583333333333334\n",
      "note_off channel=0 note=61 velocity=127 time=0.005208333333333333\n",
      "note_on channel=0 note=60 velocity=127 time=0.014583333333333334\n",
      "note_off channel=0 note=62 velocity=127 time=0\n",
      "note_off channel=0 note=60 velocity=127 time=0.019791666666666666\n",
      "note_on channel=0 note=61 velocity=127 time=0.026041666666666668\n",
      "note_off channel=0 note=61 velocity=127 time=0.019791666666666666\n",
      "note_on channel=0 note=61 velocity=127 time=0.06041666666666667\n",
      "note_off channel=0 note=61 velocity=127 time=0.019791666666666666\n",
      "note_on channel=0 note=60 velocity=127 time=0.04583333333333333\n",
      "note_on channel=0 note=61 velocity=127 time=0.014583333333333334\n",
      "note_off channel=0 note=60 velocity=127 time=0.005208333333333333\n",
      "note_off channel=0 note=61 velocity=127 time=0.014583333333333334\n",
      "note_on channel=0 note=62 velocity=127 time=0.015625\n",
      "note_off channel=0 note=62 velocity=127 time=0.019791666666666666\n",
      "note_on channel=0 note=61 velocity=127 time=0.025\n",
      "note_off channel=0 note=61 velocity=127 time=0.019791666666666666\n",
      "note_on channel=0 note=61 velocity=127 time=0.06041666666666667\n",
      "note_on channel=0 note=60 velocity=127 time=0.016666666666666666\n",
      "note_off channel=0 note=61 velocity=127 time=0.003125\n",
      "note_off channel=0 note=60 velocity=127 time=0.016666666666666666\n",
      "note_on channel=0 note=61 velocity=127 time=0.042708333333333334\n",
      "note_off channel=0 note=61 velocity=127 time=0.019791666666666666\n",
      "note_on channel=0 note=62 velocity=127 time=0.036458333333333336\n",
      "note_off channel=0 note=62 velocity=127 time=0.019791666666666666\n",
      "note_on channel=0 note=61 velocity=127 time=0.004166666666666667\n",
      "note_off channel=0 note=61 velocity=127 time=0.019791666666666666\n",
      "note_on channel=0 note=60 velocity=127 time=0.028125\n",
      "note_off channel=0 note=60 velocity=127 time=0.019791666666666666\n",
      "note_on channel=0 note=61 velocity=127 time=0.011458333333333333\n",
      "note_off channel=0 note=61 velocity=127 time=0.019791666666666666\n",
      "note_on channel=0 note=61 velocity=127 time=0.06041666666666667\n",
      "note_off channel=0 note=61 velocity=127 time=0.019791666666666666\n",
      "note_on channel=0 note=62 velocity=127 time=0.05625\n",
      "note_on channel=0 note=60 velocity=127 time=0.003125\n",
      "note_on channel=0 note=61 velocity=127 time=0\n",
      "note_off channel=0 note=62 velocity=127 time=0.016666666666666666\n",
      "note_off channel=0 note=60 velocity=127 time=0.003125\n",
      "note_off channel=0 note=61 velocity=127 time=0\n",
      "note_on channel=0 note=61 velocity=127 time=0.06041666666666667\n",
      "note_off channel=0 note=61 velocity=127 time=0.019791666666666666\n",
      "note_on channel=0 note=61 velocity=127 time=0.06041666666666667\n",
      "note_off channel=0 note=61 velocity=127 time=0.019791666666666666\n",
      "note_on channel=0 note=60 velocity=127 time=0.011458333333333333\n",
      "note_off channel=0 note=60 velocity=127 time=0.019791666666666666\n",
      "note_on channel=0 note=61 velocity=127 time=0.029166666666666667\n",
      "note_on channel=0 note=62 velocity=127 time=0.017708333333333333\n",
      "note_off channel=0 note=61 velocity=127 time=0.003125\n",
      "note_off channel=0 note=62 velocity=127 time=0.017708333333333333\n",
      "note_on channel=0 note=61 velocity=127 time=0.042708333333333334\n",
      "note_off channel=0 note=61 velocity=127 time=0.019791666666666666\n",
      "note_on channel=0 note=60 velocity=127 time=0.042708333333333334\n",
      "note_on channel=0 note=61 velocity=127 time=0.017708333333333333\n",
      "note_off channel=0 note=60 velocity=127 time=0.0020833333333333333\n",
      "note_off channel=0 note=61 velocity=127 time=0.017708333333333333\n",
      "note_on channel=0 note=61 velocity=127 time=0.06041666666666667\n",
      "note_off channel=0 note=61 velocity=127 time=0.019791666666666666\n",
      "note_on channel=0 note=62 velocity=127 time=0.017708333333333333\n",
      "note_off channel=0 note=62 velocity=127 time=0.019791666666666666\n",
      "note_on channel=0 note=61 velocity=127 time=0.021875\n",
      "note_on channel=0 note=60 velocity=127 time=0.013541666666666667\n",
      "note_off channel=0 note=61 velocity=127 time=0.00625\n",
      "note_off channel=0 note=60 velocity=127 time=0.013541666666666667\n",
      "note_on channel=0 note=61 velocity=127 time=0.04583333333333333\n",
      "note_off channel=0 note=61 velocity=127 time=0.019791666666666666\n",
      "note_on channel=0 note=61 velocity=127 time=0.06041666666666667\n",
      "note_off channel=0 note=61 velocity=127 time=0.019791666666666666\n",
      "note_on channel=0 note=60 velocity=127 time=0.025\n",
      "note_on channel=0 note=62 velocity=127 time=0.013541666666666667\n",
      "note_off channel=0 note=60 velocity=127 time=0.00625\n",
      "note_off channel=0 note=62 velocity=127 time=0.013541666666666667\n",
      "note_on channel=0 note=61 velocity=127 time=0.0010416666666666667\n",
      "note_off channel=0 note=61 velocity=127 time=0.019791666666666666\n",
      "note_on channel=0 note=61 velocity=127 time=0.06041666666666667\n",
      "\u001b[91m [DEBUG] > \u001b[0m\n",
      " |>  to_array: msg.time > max_t; t, n\n",
      " |>  2.9947916666666674\n",
      " |>  150\n",
      "note_on channel=0 note=62 velocity=127 time=0.03229166666666666\n",
      "note_on channel=0 note=60 velocity=127 time=0.013541666666666667\n",
      "note_off channel=0 note=62 velocity=127 time=0.007291666666666667\n",
      "note_off channel=0 note=60 velocity=127 time=0.013541666666666667\n",
      "note_on channel=0 note=61 velocity=127 time=0.013541666666666667\n",
      "note_off channel=0 note=61 velocity=127 time=0.019791666666666666\n",
      "note_on channel=0 note=62 velocity=127 time=0.003125\n",
      "note_off channel=0 note=62 velocity=127 time=0.019791666666666666\n",
      "note_on channel=0 note=62 velocity=127 time=0.04895833333333333\n",
      "note_off channel=0 note=62 velocity=127 time=0.019791666666666666\n",
      "note_on channel=0 note=62 velocity=127 time=0.04895833333333333\n",
      "note_on channel=0 note=60 velocity=127 time=0.017708333333333333\n",
      "note_off channel=0 note=62 velocity=127 time=0.0020833333333333333\n",
      "note_off channel=0 note=60 velocity=127 time=0.017708333333333333\n",
      "note_on channel=0 note=61 velocity=127 time=0.021875\n",
      "note_on channel=0 note=62 velocity=127 time=0.009375\n",
      "note_off channel=0 note=61 velocity=127 time=0.011458333333333333\n",
      "note_off channel=0 note=62 velocity=127 time=0.009375\n",
      "note_on channel=0 note=62 velocity=127 time=0.04895833333333333\n",
      "note_off channel=0 note=62 velocity=127 time=0.019791666666666666\n",
      "note_on channel=0 note=62 velocity=127 time=0.04895833333333333\n",
      "note_off channel=0 note=62 velocity=127 time=0.019791666666666666\n",
      "note_on channel=0 note=60 velocity=127 time=0.003125\n",
      "note_off channel=0 note=60 velocity=127 time=0.019791666666666666\n",
      "note_on channel=0 note=62 velocity=127 time=0.026041666666666668\n",
      "note_on channel=0 note=61 velocity=127 time=0.005208333333333333\n",
      "note_off channel=0 note=62 velocity=127 time=0.015625\n",
      "note_off channel=0 note=61 velocity=127 time=0.005208333333333333\n",
      "note_on channel=0 note=62 velocity=127 time=0.04479166666666667\n",
      "note_off channel=0 note=62 velocity=127 time=0.019791666666666666\n",
      "note_on channel=0 note=62 velocity=127 time=0.04895833333333333\n",
      "note_off channel=0 note=62 velocity=127 time=0.019791666666666666\n",
      "note_on channel=0 note=60 velocity=127 time=0.007291666666666667\n",
      "note_off channel=0 note=60 velocity=127 time=0.019791666666666666\n",
      "note_on channel=0 note=62 velocity=127 time=0.020833333333333332\n",
      "note_on channel=0 note=61 velocity=127 time=0.01875\n",
      "note_off channel=0 note=62 velocity=127 time=0.0010416666666666667\n",
      "note_off channel=0 note=61 velocity=127 time=0.01875\n",
      "note_on channel=0 note=62 velocity=127 time=0.030208333333333334\n",
      "note_off channel=0 note=62 velocity=127 time=0.019791666666666666\n",
      "note_on channel=0 note=62 velocity=127 time=0.04895833333333333\n",
      "note_off channel=0 note=62 velocity=127 time=0.019791666666666666\n",
      "note_on channel=0 note=60 velocity=127 time=0.0125\n",
      "note_off channel=0 note=60 velocity=127 time=0.019791666666666666\n",
      "note_on channel=0 note=62 velocity=127 time=0.016666666666666666\n",
      "note_off channel=0 note=62 velocity=127 time=0.019791666666666666\n",
      "note_on channel=0 note=61 velocity=127 time=0.0125\n",
      "note_off channel=0 note=61 velocity=127 time=0.019791666666666666\n",
      "note_on channel=0 note=62 velocity=127 time=0.016666666666666666\n",
      "note_off channel=0 note=62 velocity=127 time=0.019791666666666666\n",
      "note_on channel=0 note=62 velocity=127 time=0.04895833333333333\n",
      "note_off channel=0 note=62 velocity=127 time=0.019791666666666666\n",
      "note_on channel=0 note=60 velocity=127 time=0.017708333333333333\n",
      "note_off channel=0 note=60 velocity=127 time=0.019791666666666666\n",
      "note_on channel=0 note=62 velocity=127 time=0.011458333333333333\n",
      "note_off channel=0 note=62 velocity=127 time=0.019791666666666666\n",
      "note_on channel=0 note=61 velocity=127 time=0.026041666666666668\n",
      "note_off channel=0 note=61 velocity=127 time=0.019791666666666666\n",
      "note_on channel=0 note=62 velocity=127 time=0.003125\n",
      "note_off channel=0 note=62 velocity=127 time=0.019791666666666666\n",
      "note_on channel=0 note=62 velocity=127 time=0.04895833333333333\n",
      "note_off channel=0 note=62 velocity=127 time=0.019791666666666666\n",
      "note_on channel=0 note=60 velocity=127 time=0.022916666666666665\n",
      "note_off channel=0 note=60 velocity=127 time=0.019791666666666666\n",
      "note_on channel=0 note=62 velocity=127 time=0.00625\n",
      "note_off channel=0 note=62 velocity=127 time=0.019791666666666666\n",
      "note_on channel=0 note=61 velocity=127 time=0.03958333333333333\n",
      "note_on channel=0 note=62 velocity=127 time=0.009375\n",
      "note_off channel=0 note=61 velocity=127 time=0.011458333333333333\n",
      "note_off channel=0 note=62 velocity=127 time=0.009375\n",
      "note_on channel=0 note=62 velocity=127 time=0.04895833333333333\n",
      "note_off channel=0 note=62 velocity=127 time=0.019791666666666666\n",
      "note_on channel=0 note=60 velocity=127 time=0.027083333333333334\n",
      "note_off channel=0 note=60 velocity=127 time=0.019791666666666666\n",
      "note_on channel=0 note=62 velocity=127 time=0.0020833333333333333\n",
      "note_off channel=0 note=62 velocity=127 time=0.019791666666666666\n",
      "note_on channel=0 note=62 velocity=127 time=0.04895833333333333\n",
      "note_on channel=0 note=61 velocity=127 time=0.005208333333333333\n",
      "note_off channel=0 note=62 velocity=127 time=0.015625\n",
      "note_off channel=0 note=61 velocity=127 time=0.005208333333333333\n",
      "note_on channel=0 note=62 velocity=127 time=0.04479166666666667\n",
      "note_off channel=0 note=62 velocity=127 time=0.019791666666666666\n",
      "note_on channel=0 note=60 velocity=127 time=0.03229166666666666\n",
      "note_on channel=0 note=62 velocity=127 time=0.016666666666666666\n",
      "note_off channel=0 note=60 velocity=127 time=0.003125\n",
      "note_off channel=0 note=62 velocity=127 time=0.016666666666666666\n",
      "note_on channel=0 note=62 velocity=127 time=0.04895833333333333\n",
      "note_on channel=0 note=61 velocity=127 time=0.01875\n",
      "note_off channel=0 note=62 velocity=127 time=0.0010416666666666667\n",
      "note_off channel=0 note=61 velocity=127 time=0.01875\n",
      "note_on channel=0 note=62 velocity=127 time=0.030208333333333334\n",
      "note_off channel=0 note=62 velocity=127 time=0.019791666666666666\n",
      "note_on channel=0 note=60 velocity=127 time=0.0375\n",
      "note_on channel=0 note=62 velocity=127 time=0.0125\n",
      "note_off channel=0 note=60 velocity=127 time=0.008333333333333333\n",
      "note_off channel=0 note=62 velocity=127 time=0.0125\n",
      "note_on channel=0 note=62 velocity=127 time=0.04895833333333333\n",
      "note_off channel=0 note=62 velocity=127 time=0.019791666666666666\n",
      "note_on channel=0 note=61 velocity=127 time=0.0125\n",
      "note_off channel=0 note=61 velocity=127 time=0.019791666666666666\n",
      "note_on channel=0 note=62 velocity=127 time=0.016666666666666666\n",
      "note_off channel=0 note=62 velocity=127 time=0.019791666666666666\n",
      "note_on channel=0 note=60 velocity=127 time=0.041666666666666664\n",
      "note_on channel=0 note=62 velocity=127 time=0.007291666666666667\n",
      "note_off channel=0 note=60 velocity=127 time=0.0125\n",
      "note_off channel=0 note=62 velocity=127 time=0.007291666666666667\n",
      "note_on channel=0 note=62 velocity=127 time=0.04895833333333333\n",
      "note_off channel=0 note=62 velocity=127 time=0.019791666666666666\n",
      "note_on channel=0 note=61 velocity=127 time=0.026041666666666668\n",
      "note_off channel=0 note=61 velocity=127 time=0.019791666666666666\n",
      "note_on channel=0 note=62 velocity=127 time=0.003125\n",
      "note_off channel=0 note=62 velocity=127 time=0.019791666666666666\n",
      "note_on channel=0 note=60 velocity=127 time=0.046875\n",
      "note_on channel=0 note=62 velocity=127 time=0.0020833333333333333\n",
      "note_off channel=0 note=60 velocity=127 time=0.017708333333333333\n",
      "note_off channel=0 note=62 velocity=127 time=0.0020833333333333333\n",
      "note_on channel=0 note=62 velocity=127 time=0.04895833333333333\n",
      "note_off channel=0 note=62 velocity=127 time=0.019791666666666666\n",
      "note_on channel=0 note=61 velocity=127 time=0.040625\n",
      "note_on channel=0 note=62 velocity=127 time=0.009375\n",
      "note_off channel=0 note=61 velocity=127 time=0.011458333333333333\n",
      "note_off channel=0 note=62 velocity=127 time=0.009375\n",
      "note_on channel=0 note=62 velocity=127 time=0.04895833333333333\n",
      "note_on channel=0 note=60 velocity=127 time=0.003125\n",
      "note_off channel=0 note=62 velocity=127 time=0.017708333333333333\n",
      "note_off channel=0 note=60 velocity=127 time=0.003125\n",
      "note_on channel=0 note=62 velocity=127 time=0.046875\n",
      "note_off channel=0 note=62 velocity=127 time=0.019791666666666666\n",
      "note_on channel=0 note=62 velocity=127 time=0.04895833333333333\n",
      "note_on channel=0 note=61 velocity=127 time=0.005208333333333333\n",
      "note_off channel=0 note=62 velocity=127 time=0.015625\n",
      "note_off channel=0 note=61 velocity=127 time=0.005208333333333333\n",
      "note_on channel=0 note=62 velocity=127 time=0.04375\n",
      "note_on channel=0 note=60 velocity=127 time=0.007291666666666667\n",
      "note_off channel=0 note=62 velocity=127 time=0.0125\n",
      "note_off channel=0 note=60 velocity=127 time=0.007291666666666667\n",
      "note_on channel=0 note=62 velocity=127 time=0.041666666666666664\n",
      "note_off channel=0 note=62 velocity=127 time=0.019791666666666666\n",
      "note_on channel=0 note=62 velocity=127 time=0.04895833333333333\n",
      "note_on channel=0 note=61 velocity=127 time=0.01875\n",
      "note_off channel=0 note=62 velocity=127 time=0.0010416666666666667\n",
      "note_off channel=0 note=61 velocity=127 time=0.01875\n",
      "note_on channel=0 note=62 velocity=127 time=0.030208333333333334\n",
      "\u001b[91m [DEBUG] > \u001b[0m\n",
      " |>  to_array: msg.time > max_t; t, n\n",
      " |>  3.0031250000000003\n",
      " |>  150\n",
      "note_on channel=0 note=60 velocity=127 time=0.025\n",
      "note_on channel=0 note=61 velocity=127 time=0.005208333333333333\n",
      "note_off channel=0 note=60 velocity=127 time=0.014583333333333334\n",
      "note_off channel=0 note=61 velocity=127 time=0.005208333333333333\n",
      "note_on channel=0 note=61 velocity=127 time=0.058333333333333334\n",
      "note_on channel=0 note=60 velocity=127 time=0.01875\n",
      "note_off channel=0 note=61 velocity=127 time=0.0010416666666666667\n",
      "note_on channel=0 note=62 velocity=127 time=0.015625\n",
      "note_off channel=0 note=60 velocity=127 time=0.003125\n",
      "note_off channel=0 note=62 velocity=127 time=0.016666666666666666\n",
      "note_on channel=0 note=61 velocity=127 time=0.022916666666666665\n",
      "note_off channel=0 note=61 velocity=127 time=0.019791666666666666\n",
      "note_on channel=0 note=60 velocity=127 time=0.022916666666666665\n",
      "note_off channel=0 note=60 velocity=127 time=0.019791666666666666\n",
      "note_on channel=0 note=61 velocity=127 time=0.014583333333333334\n",
      "note_off channel=0 note=61 velocity=127 time=0.019791666666666666\n",
      "note_on channel=0 note=62 velocity=127 time=0.01875\n",
      "note_off channel=0 note=62 velocity=127 time=0.019791666666666666\n",
      "note_on channel=0 note=60 velocity=127 time=0.008333333333333333\n",
      "note_on channel=0 note=61 velocity=127 time=0.010416666666666666\n",
      "note_off channel=0 note=60 velocity=127 time=0.009375\n",
      "note_off channel=0 note=61 velocity=127 time=0.010416666666666666\n",
      "note_on channel=0 note=61 velocity=127 time=0.058333333333333334\n",
      "note_on channel=0 note=60 velocity=127 time=0.014583333333333334\n",
      "note_off channel=0 note=61 velocity=127 time=0.005208333333333333\n",
      "note_off channel=0 note=60 velocity=127 time=0.014583333333333334\n",
      "note_on channel=0 note=62 velocity=127 time=0.008333333333333333\n",
      "note_off channel=0 note=62 velocity=127 time=0.019791666666666666\n",
      "note_on channel=0 note=61 velocity=127 time=0.014583333333333334\n",
      "note_off channel=0 note=61 velocity=127 time=0.019791666666666666\n",
      "note_on channel=0 note=60 velocity=127 time=0.01875\n",
      "note_off channel=0 note=60 velocity=127 time=0.019791666666666666\n",
      "note_on channel=0 note=61 velocity=127 time=0.01875\n",
      "note_off channel=0 note=61 velocity=127 time=0.019791666666666666\n",
      "note_on channel=0 note=62 velocity=127 time=0.027083333333333334\n",
      "note_on channel=0 note=60 velocity=127 time=0.016666666666666666\n",
      "note_off channel=0 note=62 velocity=127 time=0.004166666666666667\n",
      "note_on channel=0 note=61 velocity=127 time=0.011458333333333333\n",
      "note_off channel=0 note=60 velocity=127 time=0.005208333333333333\n",
      "note_off channel=0 note=61 velocity=127 time=0.014583333333333334\n",
      "note_on channel=0 note=61 velocity=127 time=0.058333333333333334\n",
      "note_on channel=0 note=60 velocity=127 time=0.009375\n",
      "note_off channel=0 note=61 velocity=127 time=0.010416666666666666\n",
      "note_off channel=0 note=60 velocity=127 time=0.009375\n",
      "note_on channel=0 note=62 velocity=127 time=0.020833333333333332\n",
      "note_off channel=0 note=62 velocity=127 time=0.019791666666666666\n",
      "note_on channel=0 note=61 velocity=127 time=0.007291666666666667\n",
      "note_off channel=0 note=61 velocity=127 time=0.019791666666666666\n",
      "note_on channel=0 note=60 velocity=127 time=0.014583333333333334\n",
      "note_off channel=0 note=60 velocity=127 time=0.019791666666666666\n",
      "note_on channel=0 note=61 velocity=127 time=0.02395833333333333\n",
      "note_off channel=0 note=61 velocity=127 time=0.019791666666666666\n",
      "note_on channel=0 note=62 velocity=127 time=0.035416666666666666\n",
      "note_on channel=0 note=60 velocity=127 time=0.004166666666666667\n",
      "note_off channel=0 note=62 velocity=127 time=0.016666666666666666\n",
      "note_on channel=0 note=61 velocity=127 time=0.003125\n",
      "note_off channel=0 note=60 velocity=127 time=0.0010416666666666667\n",
      "note_off channel=0 note=61 velocity=127 time=0.019791666666666666\n",
      "note_on channel=0 note=61 velocity=127 time=0.058333333333333334\n",
      "note_on channel=0 note=60 velocity=127 time=0.005208333333333333\n",
      "note_off channel=0 note=61 velocity=127 time=0.014583333333333334\n",
      "note_off channel=0 note=60 velocity=127 time=0.005208333333333333\n",
      "note_on channel=0 note=62 velocity=127 time=0.03333333333333333\n",
      "note_on channel=0 note=61 velocity=127 time=0.01875\n",
      "note_off channel=0 note=62 velocity=127 time=0.0010416666666666667\n",
      "note_off channel=0 note=61 velocity=127 time=0.01875\n",
      "note_on channel=0 note=60 velocity=127 time=0.009375\n",
      "note_off channel=0 note=60 velocity=127 time=0.019791666666666666\n",
      "note_on channel=0 note=61 velocity=127 time=0.028125\n",
      "note_off channel=0 note=61 velocity=127 time=0.019791666666666666\n",
      "note_on channel=0 note=60 velocity=127 time=0.034375\n",
      "note_on channel=0 note=62 velocity=127 time=0.008333333333333333\n",
      "note_off channel=0 note=60 velocity=127 time=0.011458333333333333\n",
      "note_on channel=0 note=61 velocity=127 time=0.004166666666666667\n",
      "note_off channel=0 note=62 velocity=127 time=0.005208333333333333\n",
      "note_off channel=0 note=61 velocity=127 time=0.015625\n",
      "note_on channel=0 note=61 velocity=127 time=0.058333333333333334\n",
      "note_on channel=0 note=60 velocity=127 time=0.0010416666666666667\n",
      "note_off channel=0 note=61 velocity=127 time=0.019791666666666666\n",
      "note_off channel=0 note=60 velocity=127 time=0.0010416666666666667\n",
      "note_on channel=0 note=62 velocity=127 time=0.04583333333333333\n",
      "note_on channel=0 note=61 velocity=127 time=0.011458333333333333\n",
      "note_off channel=0 note=62 velocity=127 time=0.008333333333333333\n",
      "note_off channel=0 note=61 velocity=127 time=0.011458333333333333\n",
      "note_on channel=0 note=60 velocity=127 time=0.005208333333333333\n",
      "note_off channel=0 note=60 velocity=127 time=0.019791666666666666\n",
      "note_on channel=0 note=61 velocity=127 time=0.03333333333333333\n",
      "note_off channel=0 note=61 velocity=127 time=0.019791666666666666\n",
      "note_on channel=0 note=60 velocity=127 time=0.029166666666666667\n",
      "note_off channel=0 note=60 velocity=127 time=0.019791666666666666\n",
      "note_on channel=0 note=62 velocity=127 time=0.0010416666666666667\n",
      "note_on channel=0 note=61 velocity=127 time=0.007291666666666667\n",
      "note_off channel=0 note=62 velocity=127 time=0.0125\n",
      "note_off channel=0 note=61 velocity=127 time=0.007291666666666667\n",
      "note_on channel=0 note=60 velocity=127 time=0.05416666666666667\n",
      "note_on channel=0 note=61 velocity=127 time=0.004166666666666667\n",
      "note_off channel=0 note=60 velocity=127 time=0.015625\n",
      "note_off channel=0 note=61 velocity=127 time=0.004166666666666667\n",
      "note_on channel=0 note=62 velocity=127 time=0.05416666666666667\n",
      "note_on channel=0 note=61 velocity=127 time=0.003125\n",
      "note_off channel=0 note=62 velocity=127 time=0.016666666666666666\n",
      "note_off channel=0 note=61 velocity=127 time=0.003125\n",
      "note_on channel=0 note=60 velocity=127 time=0.0010416666666666667\n",
      "note_off channel=0 note=60 velocity=127 time=0.019791666666666666\n",
      "note_on channel=0 note=61 velocity=127 time=0.0375\n",
      "note_off channel=0 note=61 velocity=127 time=0.019791666666666666\n",
      "note_on channel=0 note=60 velocity=127 time=0.025\n",
      "note_off channel=0 note=60 velocity=127 time=0.019791666666666666\n",
      "note_on channel=0 note=61 velocity=127 time=0.0125\n",
      "note_on channel=0 note=62 velocity=127 time=0\n",
      "note_off channel=0 note=61 velocity=127 time=0.019791666666666666\n",
      "note_off channel=0 note=62 velocity=127 time=0\n",
      "note_on channel=0 note=60 velocity=127 time=0.04895833333333333\n",
      "note_on channel=0 note=61 velocity=127 time=0.008333333333333333\n",
      "note_off channel=0 note=60 velocity=127 time=0.011458333333333333\n",
      "note_off channel=0 note=61 velocity=127 time=0.008333333333333333\n",
      "note_on channel=0 note=61 velocity=127 time=0.058333333333333334\n",
      "note_on channel=0 note=62 velocity=127 time=0.004166666666666667\n",
      "note_on channel=0 note=60 velocity=127 time=0.011458333333333333\n",
      "note_off channel=0 note=61 velocity=127 time=0.004166666666666667\n",
      "note_off channel=0 note=62 velocity=127 time=0.004166666666666667\n",
      "note_off channel=0 note=60 velocity=127 time=0.011458333333333333\n",
      "note_on channel=0 note=61 velocity=127 time=0.041666666666666664\n",
      "note_off channel=0 note=61 velocity=127 time=0.019791666666666666\n",
      "note_on channel=0 note=60 velocity=127 time=0.020833333333333332\n",
      "note_off channel=0 note=60 velocity=127 time=0.019791666666666666\n",
      "note_on channel=0 note=61 velocity=127 time=0.017708333333333333\n",
      "note_on channel=0 note=62 velocity=127 time=0.008333333333333333\n",
      "note_off channel=0 note=61 velocity=127 time=0.011458333333333333\n",
      "note_off channel=0 note=62 velocity=127 time=0.008333333333333333\n",
      "note_on channel=0 note=60 velocity=127 time=0.036458333333333336\n",
      "note_on channel=0 note=61 velocity=127 time=0.013541666666666667\n",
      "note_off channel=0 note=60 velocity=127 time=0.007291666666666667\n",
      "note_off channel=0 note=61 velocity=127 time=0.013541666666666667\n",
      "note_on channel=0 note=61 velocity=127 time=0.058333333333333334\n",
      "note_on channel=0 note=60 velocity=127 time=0.011458333333333333\n",
      "note_on channel=0 note=62 velocity=127 time=0.0010416666666666667\n",
      "note_off channel=0 note=61 velocity=127 time=0.007291666666666667\n",
      "note_off channel=0 note=60 velocity=127 time=0.011458333333333333\n",
      "note_off channel=0 note=62 velocity=127 time=0.0010416666666666667\n",
      "note_on channel=0 note=61 velocity=127 time=0.04583333333333333\n",
      "note_off channel=0 note=61 velocity=127 time=0.019791666666666666\n",
      "note_on channel=0 note=60 velocity=127 time=0.015625\n",
      "note_off channel=0 note=60 velocity=127 time=0.019791666666666666\n",
      "note_on channel=0 note=61 velocity=127 time=0.021875\n",
      "note_on channel=0 note=62 velocity=127 time=0.015625\n",
      "note_off channel=0 note=61 velocity=127 time=0.004166666666666667\n",
      "note_off channel=0 note=62 velocity=127 time=0.015625\n",
      "note_on channel=0 note=60 velocity=127 time=0.02395833333333333\n",
      "note_on channel=0 note=61 velocity=127 time=0.017708333333333333\n",
      "note_off channel=0 note=60 velocity=127 time=0.0020833333333333333\n",
      "note_off channel=0 note=61 velocity=127 time=0.017708333333333333\n",
      "note_on channel=0 note=61 velocity=127 time=0.058333333333333334\n",
      "note_on channel=0 note=60 velocity=127 time=0.007291666666666667\n",
      "note_off channel=0 note=61 velocity=127 time=0.013541666666666667\n",
      "note_on channel=0 note=62 velocity=127 time=0\n",
      "note_off channel=0 note=60 velocity=127 time=0.007291666666666667\n",
      "note_off channel=0 note=62 velocity=127 time=0.013541666666666667\n",
      "note_on channel=0 note=61 velocity=127 time=0.0375\n",
      "note_off channel=0 note=61 velocity=127 time=0.019791666666666666\n",
      "note_on channel=0 note=60 velocity=127 time=0.011458333333333333\n",
      "note_off channel=0 note=60 velocity=127 time=0.019791666666666666\n",
      "note_on channel=0 note=61 velocity=127 time=0.027083333333333334\n",
      "note_off channel=0 note=61 velocity=127 time=0.019791666666666666\n",
      "note_on channel=0 note=62 velocity=127 time=0.004166666666666667\n",
      "note_off channel=0 note=62 velocity=127 time=0.019791666666666666\n",
      "note_on channel=0 note=60 velocity=127 time=0.011458333333333333\n",
      "note_off channel=0 note=60 velocity=127 time=0.019791666666666666\n",
      "note_on channel=0 note=61 velocity=127 time=0.0020833333333333333\n",
      "note_off channel=0 note=61 velocity=127 time=0.019791666666666666\n",
      "note_on channel=0 note=61 velocity=127 time=0.058333333333333334\n",
      "\u001b[91m [DEBUG] > \u001b[0m\n",
      " |>  to_array: msg.time > max_t; t, n\n",
      " |>  2.9906250000000005\n",
      " |>  150\n",
      "note_on channel=0 note=62 velocity=127 time=0.028125\n",
      "note_on channel=0 note=61 velocity=127 time=0.01875\n",
      "note_off channel=0 note=62 velocity=127 time=0.0020833333333333333\n",
      "note_on channel=0 note=60 velocity=127 time=0.013541666666666667\n",
      "note_off channel=0 note=61 velocity=127 time=0.004166666666666667\n",
      "note_off channel=0 note=60 velocity=127 time=0.015625\n",
      "note_on channel=0 note=61 velocity=127 time=0.046875\n",
      "note_on channel=0 note=60 velocity=127 time=0.0010416666666666667\n",
      "note_on channel=0 note=62 velocity=127 time=0\n",
      "note_off channel=0 note=61 velocity=127 time=0.01875\n",
      "note_off channel=0 note=60 velocity=127 time=0.0010416666666666667\n",
      "note_off channel=0 note=62 velocity=127 time=0\n",
      "note_on channel=0 note=60 velocity=127 time=0.046875\n",
      "note_on channel=0 note=61 velocity=127 time=0.013541666666666667\n",
      "note_off channel=0 note=60 velocity=127 time=0.00625\n",
      "note_off channel=0 note=61 velocity=127 time=0.013541666666666667\n",
      "note_on channel=0 note=62 velocity=127 time=0.0010416666666666667\n",
      "note_off channel=0 note=62 velocity=127 time=0.019791666666666666\n",
      "note_on channel=0 note=60 velocity=127 time=0.0125\n",
      "note_off channel=0 note=60 velocity=127 time=0.019791666666666666\n",
      "note_on channel=0 note=61 velocity=127 time=0.008333333333333333\n",
      "note_off channel=0 note=61 velocity=127 time=0.019791666666666666\n",
      "note_on channel=0 note=60 velocity=127 time=0.01875\n",
      "note_on channel=0 note=62 velocity=127 time=0.0010416666666666667\n",
      "note_off channel=0 note=60 velocity=127 time=0.01875\n",
      "note_off channel=0 note=62 velocity=127 time=0.0010416666666666667\n",
      "note_on channel=0 note=61 velocity=127 time=0.021875\n",
      "note_off channel=0 note=61 velocity=127 time=0.019791666666666666\n",
      "note_on channel=0 note=60 velocity=127 time=0.004166666666666667\n",
      "note_off channel=0 note=60 velocity=127 time=0.019791666666666666\n",
      "note_on channel=0 note=62 velocity=127 time=0.015625\n",
      "note_off channel=0 note=62 velocity=127 time=0.019791666666666666\n",
      "note_on channel=0 note=61 velocity=127 time=0.0020833333333333333\n",
      "note_on channel=0 note=60 velocity=127 time=0.010416666666666666\n",
      "note_off channel=0 note=61 velocity=127 time=0.010416666666666666\n",
      "note_off channel=0 note=60 velocity=127 time=0.010416666666666666\n",
      "note_on channel=0 note=60 velocity=127 time=0.046875\n",
      "note_on channel=0 note=62 velocity=127 time=0.0020833333333333333\n",
      "note_on channel=0 note=61 velocity=127 time=0.0020833333333333333\n",
      "note_off channel=0 note=60 velocity=127 time=0.015625\n",
      "note_off channel=0 note=62 velocity=127 time=0.0020833333333333333\n",
      "note_off channel=0 note=61 velocity=127 time=0.0020833333333333333\n",
      "note_on channel=0 note=60 velocity=127 time=0.042708333333333334\n",
      "note_on channel=0 note=61 velocity=127 time=0.01875\n",
      "note_off channel=0 note=60 velocity=127 time=0.0010416666666666667\n",
      "note_on channel=0 note=62 velocity=127 time=0.016666666666666666\n",
      "note_off channel=0 note=61 velocity=127 time=0.0020833333333333333\n",
      "note_off channel=0 note=62 velocity=127 time=0.017708333333333333\n",
      "note_on channel=0 note=60 velocity=127 time=0.010416666666666666\n",
      "note_off channel=0 note=60 velocity=127 time=0.019791666666666666\n",
      "note_on channel=0 note=61 velocity=127 time=0.013541666666666667\n",
      "note_off channel=0 note=61 velocity=127 time=0.019791666666666666\n",
      "note_on channel=0 note=60 velocity=127 time=0.013541666666666667\n",
      "note_on channel=0 note=62 velocity=127 time=0.003125\n",
      "note_off channel=0 note=60 velocity=127 time=0.016666666666666666\n",
      "note_off channel=0 note=62 velocity=127 time=0.003125\n",
      "note_on channel=0 note=61 velocity=127 time=0.025\n",
      "note_on channel=0 note=60 velocity=127 time=0.019791666666666666\n",
      "note_off channel=0 note=61 velocity=127 time=0.0010416666666666667\n",
      "note_off channel=0 note=60 velocity=127 time=0.019791666666666666\n",
      "note_on channel=0 note=62 velocity=127 time=0.017708333333333333\n",
      "note_off channel=0 note=62 velocity=127 time=0.019791666666666666\n",
      "note_on channel=0 note=61 velocity=127 time=0.005208333333333333\n",
      "note_on channel=0 note=60 velocity=127 time=0.005208333333333333\n",
      "note_off channel=0 note=61 velocity=127 time=0.015625\n",
      "note_off channel=0 note=60 velocity=127 time=0.005208333333333333\n",
      "note_on channel=0 note=60 velocity=127 time=0.046875\n",
      "note_on channel=0 note=62 velocity=127 time=0.004166666666666667\n",
      "note_on channel=0 note=61 velocity=127 time=0.005208333333333333\n",
      "note_off channel=0 note=60 velocity=127 time=0.010416666666666666\n",
      "note_off channel=0 note=62 velocity=127 time=0.004166666666666667\n",
      "note_off channel=0 note=61 velocity=127 time=0.005208333333333333\n",
      "note_on channel=0 note=60 velocity=127 time=0.0375\n",
      "note_off channel=0 note=60 velocity=127 time=0.019791666666666666\n",
      "note_on channel=0 note=61 velocity=127 time=0.004166666666666667\n",
      "note_on channel=0 note=62 velocity=127 time=0.013541666666666667\n",
      "note_off channel=0 note=61 velocity=127 time=0.00625\n",
      "note_off channel=0 note=62 velocity=127 time=0.013541666666666667\n",
      "note_on channel=0 note=60 velocity=127 time=0.009375\n",
      "note_off channel=0 note=60 velocity=127 time=0.019791666666666666\n",
      "note_on channel=0 note=61 velocity=127 time=0.01875\n",
      "note_off channel=0 note=61 velocity=127 time=0.019791666666666666\n",
      "note_on channel=0 note=60 velocity=127 time=0.008333333333333333\n",
      "note_on channel=0 note=62 velocity=127 time=0.005208333333333333\n",
      "note_off channel=0 note=60 velocity=127 time=0.014583333333333334\n",
      "note_off channel=0 note=62 velocity=127 time=0.005208333333333333\n",
      "note_on channel=0 note=61 velocity=127 time=0.028125\n",
      "note_on channel=0 note=60 velocity=127 time=0.013541666666666667\n",
      "note_off channel=0 note=61 velocity=127 time=0.00625\n",
      "note_off channel=0 note=60 velocity=127 time=0.013541666666666667\n",
      "note_on channel=0 note=62 velocity=127 time=0.01875\n",
      "note_off channel=0 note=62 velocity=127 time=0.019791666666666666\n",
      "note_on channel=0 note=60 velocity=127 time=0.008333333333333333\n",
      "note_on channel=0 note=61 velocity=127 time=0\n",
      "note_off channel=0 note=60 velocity=127 time=0.019791666666666666\n",
      "note_off channel=0 note=61 velocity=127 time=0\n",
      "note_on channel=0 note=60 velocity=127 time=0.046875\n"
     ]
    },
    {
     "name": "stdout",
     "output_type": "stream",
     "text": [
      "note_on channel=0 note=62 velocity=127 time=0.00625\n",
      "note_on channel=0 note=61 velocity=127 time=0.009375\n",
      "note_off channel=0 note=60 velocity=127 time=0.005208333333333333\n",
      "note_off channel=0 note=62 velocity=127 time=0.00625\n",
      "note_off channel=0 note=61 velocity=127 time=0.009375\n",
      "note_on channel=0 note=60 velocity=127 time=0.03229166666666666\n",
      "note_off channel=0 note=60 velocity=127 time=0.019791666666666666\n",
      "note_on channel=0 note=61 velocity=127 time=0.009375\n",
      "note_on channel=0 note=62 velocity=127 time=0.010416666666666666\n",
      "note_off channel=0 note=61 velocity=127 time=0.009375\n",
      "note_off channel=0 note=62 velocity=127 time=0.010416666666666666\n",
      "note_on channel=0 note=60 velocity=127 time=0.007291666666666667\n",
      "note_off channel=0 note=60 velocity=127 time=0.019791666666666666\n",
      "note_on channel=0 note=61 velocity=127 time=0.02395833333333333\n",
      "note_off channel=0 note=61 velocity=127 time=0.019791666666666666\n",
      "note_on channel=0 note=60 velocity=127 time=0.003125\n",
      "note_on channel=0 note=62 velocity=127 time=0.007291666666666667\n",
      "note_off channel=0 note=60 velocity=127 time=0.013541666666666667\n",
      "note_off channel=0 note=62 velocity=127 time=0.007291666666666667\n",
      "note_on channel=0 note=61 velocity=127 time=0.03125\n",
      "note_on channel=0 note=60 velocity=127 time=0.008333333333333333\n",
      "note_off channel=0 note=61 velocity=127 time=0.011458333333333333\n",
      "note_off channel=0 note=60 velocity=127 time=0.008333333333333333\n",
      "note_on channel=0 note=62 velocity=127 time=0.020833333333333332\n",
      "note_off channel=0 note=62 velocity=127 time=0.019791666666666666\n",
      "note_on channel=0 note=60 velocity=127 time=0.00625\n",
      "note_on channel=0 note=61 velocity=127 time=0.00625\n",
      "note_off channel=0 note=60 velocity=127 time=0.014583333333333334\n",
      "note_off channel=0 note=61 velocity=127 time=0.00625\n",
      "note_on channel=0 note=60 velocity=127 time=0.041666666666666664\n",
      "note_on channel=0 note=62 velocity=127 time=0.008333333333333333\n",
      "note_off channel=0 note=60 velocity=127 time=0.0125\n",
      "note_on channel=0 note=61 velocity=127 time=0\n",
      "note_off channel=0 note=62 velocity=127 time=0.007291666666666667\n",
      "note_off channel=0 note=61 velocity=127 time=0.0125\n",
      "note_on channel=0 note=60 velocity=127 time=0.027083333333333334\n",
      "note_off channel=0 note=60 velocity=127 time=0.019791666666666666\n",
      "note_on channel=0 note=61 velocity=127 time=0.014583333333333334\n",
      "note_on channel=0 note=62 velocity=127 time=0.007291666666666667\n",
      "note_off channel=0 note=61 velocity=127 time=0.0125\n",
      "note_off channel=0 note=62 velocity=127 time=0.007291666666666667\n",
      "note_on channel=0 note=60 velocity=127 time=0.005208333333333333\n",
      "note_off channel=0 note=60 velocity=127 time=0.019791666666666666\n",
      "note_on channel=0 note=61 velocity=127 time=0.029166666666666667\n",
      "note_on channel=0 note=60 velocity=127 time=0.017708333333333333\n",
      "note_off channel=0 note=61 velocity=127 time=0.0020833333333333333\n",
      "note_on channel=0 note=62 velocity=127 time=0.00625\n",
      "note_off channel=0 note=60 velocity=127 time=0.011458333333333333\n",
      "note_off channel=0 note=62 velocity=127 time=0.008333333333333333\n",
      "note_on channel=0 note=61 velocity=127 time=0.035416666666666666\n",
      "note_on channel=0 note=60 velocity=127 time=0.003125\n",
      "note_off channel=0 note=61 velocity=127 time=0.016666666666666666\n",
      "note_off channel=0 note=60 velocity=127 time=0.003125\n",
      "note_on channel=0 note=62 velocity=127 time=0.022916666666666665\n",
      "note_off channel=0 note=62 velocity=127 time=0.019791666666666666\n",
      "note_on channel=0 note=60 velocity=127 time=0.004166666666666667\n",
      "note_on channel=0 note=61 velocity=127 time=0.011458333333333333\n",
      "note_off channel=0 note=60 velocity=127 time=0.009375\n",
      "note_off channel=0 note=61 velocity=127 time=0.011458333333333333\n",
      "note_on channel=0 note=60 velocity=127 time=0.036458333333333336\n",
      "note_on channel=0 note=62 velocity=127 time=0.009375\n",
      "note_off channel=0 note=60 velocity=127 time=0.010416666666666666\n",
      "note_on channel=0 note=61 velocity=127 time=0.005208333333333333\n",
      "note_off channel=0 note=62 velocity=127 time=0.004166666666666667\n",
      "note_off channel=0 note=61 velocity=127 time=0.015625\n",
      "note_on channel=0 note=60 velocity=127 time=0.021875\n",
      "note_off channel=0 note=60 velocity=127 time=0.019791666666666666\n",
      "note_on channel=0 note=61 velocity=127 time=0.019791666666666666\n",
      "note_on channel=0 note=62 velocity=127 time=0.003125\n",
      "note_off channel=0 note=61 velocity=127 time=0.016666666666666666\n",
      "note_off channel=0 note=62 velocity=127 time=0.003125\n",
      "note_on channel=0 note=60 velocity=127 time=0.003125\n",
      "note_off channel=0 note=60 velocity=127 time=0.019791666666666666\n",
      "note_on channel=0 note=61 velocity=127 time=0.034375\n",
      "note_on channel=0 note=60 velocity=127 time=0.0125\n",
      "note_off channel=0 note=61 velocity=127 time=0.007291666666666667\n",
      "note_on channel=0 note=62 velocity=127 time=0.003125\n",
      "note_off channel=0 note=60 velocity=127 time=0.009375\n",
      "note_off channel=0 note=62 velocity=127 time=0.010416666666666666\n",
      "note_on channel=0 note=60 velocity=127 time=0.036458333333333336\n",
      "note_on channel=0 note=61 velocity=127 time=0.0020833333333333333\n",
      "note_off channel=0 note=60 velocity=127 time=0.017708333333333333\n",
      "note_off channel=0 note=61 velocity=127 time=0.0020833333333333333\n",
      "note_on channel=0 note=62 velocity=127 time=0.022916666666666665\n",
      "note_off channel=0 note=62 velocity=127 time=0.019791666666666666\n",
      "note_on channel=0 note=60 velocity=127 time=0.003125\n",
      "note_on channel=0 note=61 velocity=127 time=0.016666666666666666\n",
      "note_off channel=0 note=60 velocity=127 time=0.003125\n",
      "note_off channel=0 note=61 velocity=127 time=0.016666666666666666\n",
      "note_on channel=0 note=60 velocity=127 time=0.03125\n",
      "note_on channel=0 note=62 velocity=127 time=0.011458333333333333\n",
      "note_off channel=0 note=60 velocity=127 time=0.008333333333333333\n",
      "note_on channel=0 note=61 velocity=127 time=0.010416666666666666\n",
      "note_off channel=0 note=62 velocity=127 time=0.0010416666666666667\n",
      "note_off channel=0 note=61 velocity=127 time=0.019791666666666666\n",
      "note_on channel=0 note=60 velocity=127 time=0.016666666666666666\n",
      "note_off channel=0 note=60 velocity=127 time=0.019791666666666666\n",
      "note_on channel=0 note=61 velocity=127 time=0.025\n",
      "note_on channel=0 note=62 velocity=127 time=0\n",
      "note_off channel=0 note=61 velocity=127 time=0.019791666666666666\n",
      "note_off channel=0 note=62 velocity=127 time=0\n",
      "note_on channel=0 note=60 velocity=127 time=0.0020833333333333333\n",
      "note_off channel=0 note=60 velocity=127 time=0.019791666666666666\n",
      "note_on channel=0 note=61 velocity=127 time=0.03958333333333333\n",
      "note_on channel=0 note=60 velocity=127 time=0.007291666666666667\n",
      "note_on channel=0 note=62 velocity=127 time=0.0125\n",
      "note_off channel=0 note=61 velocity=127 time=0\n",
      "note_off channel=0 note=60 velocity=127 time=0.007291666666666667\n",
      "note_off channel=0 note=62 velocity=127 time=0.0125\n",
      "note_on channel=0 note=60 velocity=127 time=0.035416666666666666\n",
      "note_on channel=0 note=61 velocity=127 time=0.007291666666666667\n",
      "note_off channel=0 note=60 velocity=127 time=0.0125\n",
      "note_off channel=0 note=61 velocity=127 time=0.007291666666666667\n",
      "note_on channel=0 note=62 velocity=127 time=0.019791666666666666\n",
      "note_off channel=0 note=62 velocity=127 time=0.019791666666666666\n",
      "note_on channel=0 note=60 velocity=127 time=0.0010416666666666667\n",
      "note_off channel=0 note=60 velocity=127 time=0.019791666666666666\n",
      "note_on channel=0 note=61 velocity=127 time=0.0020833333333333333\n",
      "note_off channel=0 note=61 velocity=127 time=0.019791666666666666\n",
      "note_on channel=0 note=60 velocity=127 time=0.026041666666666668\n",
      "note_on channel=0 note=62 velocity=127 time=0.013541666666666667\n",
      "note_off channel=0 note=60 velocity=127 time=0.00625\n",
      "note_off channel=0 note=62 velocity=127 time=0.013541666666666667\n",
      "note_on channel=0 note=61 velocity=127 time=0.003125\n",
      "note_off channel=0 note=61 velocity=127 time=0.019791666666666666\n",
      "\u001b[91m [DEBUG] > \u001b[0m\n",
      " |>  to_array: msg.time > max_t; t, n\n",
      " |>  3.006250000000001\n",
      " |>  150\n",
      "note_on channel=0 note=62 velocity=127 time=0.004166666666666667\n",
      "note_off channel=0 note=62 velocity=127 time=0.019791666666666666\n",
      "note_on channel=0 note=60 velocity=127 time=0.042708333333333334\n",
      "note_on channel=0 note=61 velocity=127 time=0.013541666666666667\n",
      "note_off channel=0 note=60 velocity=127 time=0.00625\n",
      "note_off channel=0 note=61 velocity=127 time=0.013541666666666667\n",
      "note_on channel=0 note=61 velocity=127 time=0.08333333333333333\n",
      "note_on channel=0 note=62 velocity=127 time=0.0010416666666666667\n",
      "note_off channel=0 note=61 velocity=127 time=0.019791666666666666\n",
      "note_off channel=0 note=62 velocity=127 time=0.0010416666666666667\n",
      "note_on channel=0 note=60 velocity=127 time=0.03854166666666667\n",
      "note_off channel=0 note=60 velocity=127 time=0.019791666666666666\n",
      "note_on channel=0 note=61 velocity=127 time=0.022916666666666665\n",
      "note_off channel=0 note=61 velocity=127 time=0.019791666666666666\n",
      "note_on channel=0 note=62 velocity=127 time=0.057291666666666664\n",
      "note_off channel=0 note=62 velocity=127 time=0.019791666666666666\n",
      "note_on channel=0 note=61 velocity=127 time=0.005208333333333333\n",
      "note_off channel=0 note=61 velocity=127 time=0.019791666666666666\n",
      "note_on channel=0 note=60 velocity=127 time=0.009375\n",
      "note_off channel=0 note=60 velocity=127 time=0.019791666666666666\n",
      "note_on channel=0 note=61 velocity=127 time=0.053125\n",
      "note_off channel=0 note=61 velocity=127 time=0.019791666666666666\n",
      "note_on channel=0 note=62 velocity=127 time=0.03125\n",
      "note_off channel=0 note=62 velocity=127 time=0.019791666666666666\n",
      "note_on channel=0 note=60 velocity=127 time=0.03125\n",
      "note_on channel=0 note=61 velocity=127 time=0\n",
      "note_off channel=0 note=60 velocity=127 time=0.019791666666666666\n",
      "note_off channel=0 note=61 velocity=127 time=0\n",
      "note_on channel=0 note=61 velocity=127 time=0.08333333333333333\n",
      "note_off channel=0 note=61 velocity=127 time=0.019791666666666666\n",
      "note_on channel=0 note=62 velocity=127 time=0.00625\n",
      "note_off channel=0 note=62 velocity=127 time=0.019791666666666666\n",
      "note_on channel=0 note=60 velocity=127 time=0.027083333333333334\n",
      "note_off channel=0 note=60 velocity=127 time=0.019791666666666666\n",
      "note_on channel=0 note=61 velocity=127 time=0.010416666666666666\n",
      "note_off channel=0 note=61 velocity=127 time=0.019791666666666666\n",
      "note_on channel=0 note=62 velocity=127 time=0.08229166666666667\n",
      "note_on channel=0 note=61 velocity=127 time=0\n",
      "note_off channel=0 note=62 velocity=127 time=0.019791666666666666\n",
      "note_off channel=0 note=61 velocity=127 time=0\n",
      "note_on channel=0 note=60 velocity=127 time=0.022916666666666665\n",
      "note_off channel=0 note=60 velocity=127 time=0.019791666666666666\n",
      "note_on channel=0 note=61 velocity=127 time=0.040625\n",
      "note_off channel=0 note=61 velocity=127 time=0.019791666666666666\n",
      "note_on channel=0 note=62 velocity=127 time=0.057291666666666664\n",
      "note_off channel=0 note=62 velocity=127 time=0.019791666666666666\n",
      "note_on channel=0 note=61 velocity=127 time=0.00625\n",
      "note_on channel=0 note=60 velocity=127 time=0.0125\n",
      "note_off channel=0 note=61 velocity=127 time=0.007291666666666667\n",
      "note_off channel=0 note=60 velocity=127 time=0.0125\n",
      "note_on channel=0 note=61 velocity=127 time=0.06979166666666667\n",
      "note_off channel=0 note=61 velocity=127 time=0.019791666666666666\n",
      "note_on channel=0 note=62 velocity=127 time=0.03125\n",
      "note_off channel=0 note=62 velocity=127 time=0.019791666666666666\n",
      "note_on channel=0 note=60 velocity=127 time=0.014583333333333334\n",
      "note_on channel=0 note=61 velocity=127 time=0.016666666666666666\n",
      "note_off channel=0 note=60 velocity=127 time=0.003125\n",
      "note_off channel=0 note=61 velocity=127 time=0.016666666666666666\n",
      "note_on channel=0 note=61 velocity=127 time=0.08333333333333333\n",
      "note_off channel=0 note=61 velocity=127 time=0.019791666666666666\n",
      "note_on channel=0 note=62 velocity=127 time=0.005208333333333333\n",
      "note_off channel=0 note=62 velocity=127 time=0.019791666666666666\n",
      "note_on channel=0 note=60 velocity=127 time=0.010416666666666666\n",
      "note_off channel=0 note=60 velocity=127 time=0.019791666666666666\n",
      "note_on channel=0 note=61 velocity=127 time=0.027083333333333334\n",
      "note_off channel=0 note=61 velocity=127 time=0.019791666666666666\n",
      "note_on channel=0 note=62 velocity=127 time=0.08229166666666667\n",
      "note_on channel=0 note=61 velocity=127 time=0.0010416666666666667\n",
      "note_off channel=0 note=62 velocity=127 time=0.01875\n",
      "note_off channel=0 note=61 velocity=127 time=0.0010416666666666667\n",
      "note_on channel=0 note=60 velocity=127 time=0.00625\n",
      "note_off channel=0 note=60 velocity=127 time=0.019791666666666666\n",
      "note_on channel=0 note=61 velocity=127 time=0.057291666666666664\n",
      "note_off channel=0 note=61 velocity=127 time=0.019791666666666666\n",
      "note_on channel=0 note=62 velocity=127 time=0.05625\n",
      "note_off channel=0 note=62 velocity=127 time=0.019791666666666666\n",
      "note_on channel=0 note=60 velocity=127 time=0.003125\n",
      "note_on channel=0 note=61 velocity=127 time=0.004166666666666667\n",
      "note_off channel=0 note=60 velocity=127 time=0.015625\n",
      "note_off channel=0 note=61 velocity=127 time=0.004166666666666667\n",
      "note_on channel=0 note=61 velocity=127 time=0.08333333333333333\n",
      "note_off channel=0 note=61 velocity=127 time=0.019791666666666666\n",
      "note_on channel=0 note=62 velocity=127 time=0.030208333333333334\n",
      "note_on channel=0 note=60 velocity=127 time=0.01875\n",
      "note_off channel=0 note=62 velocity=127 time=0.0010416666666666667\n",
      "note_off channel=0 note=60 velocity=127 time=0.01875\n",
      "note_on channel=0 note=61 velocity=127 time=0.013541666666666667\n",
      "note_off channel=0 note=61 velocity=127 time=0.019791666666666666\n",
      "note_on channel=0 note=61 velocity=127 time=0.08333333333333333\n",
      "note_off channel=0 note=61 velocity=127 time=0.019791666666666666\n",
      "note_on channel=0 note=62 velocity=127 time=0.004166666666666667\n",
      "note_on channel=0 note=60 velocity=127 time=0.014583333333333334\n",
      "note_off channel=0 note=62 velocity=127 time=0.005208333333333333\n",
      "note_off channel=0 note=60 velocity=127 time=0.014583333333333334\n",
      "note_on channel=0 note=61 velocity=127 time=0.04375\n",
      "note_off channel=0 note=61 velocity=127 time=0.019791666666666666\n",
      "note_on channel=0 note=62 velocity=127 time=0.08125\n",
      "note_on channel=0 note=61 velocity=127 time=0.0020833333333333333\n",
      "note_on channel=0 note=60 velocity=127 time=0.009375\n",
      "note_off channel=0 note=62 velocity=127 time=0.009375\n",
      "note_off channel=0 note=61 velocity=127 time=0.0020833333333333333\n",
      "note_off channel=0 note=60 velocity=127 time=0.009375\n",
      "note_on channel=0 note=61 velocity=127 time=0.07395833333333333\n",
      "note_off channel=0 note=61 velocity=127 time=0.019791666666666666\n",
      "note_on channel=0 note=62 velocity=127 time=0.05520833333333333\n",
      "note_on channel=0 note=60 velocity=127 time=0.00625\n",
      "note_off channel=0 note=62 velocity=127 time=0.013541666666666667\n",
      "note_off channel=0 note=60 velocity=127 time=0.00625\n",
      "note_on channel=0 note=61 velocity=127 time=0.0010416666666666667\n",
      "note_off channel=0 note=61 velocity=127 time=0.019791666666666666\n",
      "note_on channel=0 note=61 velocity=127 time=0.08333333333333333\n",
      "note_off channel=0 note=61 velocity=127 time=0.019791666666666666\n",
      "note_on channel=0 note=62 velocity=127 time=0.029166666666666667\n",
      "note_on channel=0 note=60 velocity=127 time=0.0020833333333333333\n",
      "note_off channel=0 note=62 velocity=127 time=0.017708333333333333\n",
      "note_off channel=0 note=60 velocity=127 time=0.0020833333333333333\n",
      "note_on channel=0 note=61 velocity=127 time=0.03125\n",
      "note_off channel=0 note=61 velocity=127 time=0.019791666666666666\n",
      "note_on channel=0 note=61 velocity=127 time=0.08333333333333333\n",
      "note_off channel=0 note=61 velocity=127 time=0.019791666666666666\n",
      "note_on channel=0 note=60 velocity=127 time=0.0020833333333333333\n",
      "note_on channel=0 note=62 velocity=127 time=0.0020833333333333333\n",
      "note_off channel=0 note=60 velocity=127 time=0.01875\n",
      "note_off channel=0 note=62 velocity=127 time=0.0020833333333333333\n",
      "note_on channel=0 note=61 velocity=127 time=0.059375\n",
      "note_off channel=0 note=61 velocity=127 time=0.019791666666666666\n",
      "note_on channel=0 note=60 velocity=127 time=0.075\n",
      "\u001b[91m [DEBUG] > \u001b[0m\n",
      " |>  to_array: msg.time > max_t; t, n\n",
      " |>  3.0531250000000014\n",
      " |>  150\n",
      "note_on channel=0 note=62 velocity=127 time=0.013541666666666667\n",
      "note_off channel=0 note=62 velocity=127 time=0.019791666666666666\n",
      "note_on channel=0 note=60 velocity=127 time=0.019791666666666666\n",
      "note_on channel=0 note=61 velocity=127 time=0.014583333333333334\n",
      "note_off channel=0 note=60 velocity=127 time=0.005208333333333333\n",
      "note_off channel=0 note=61 velocity=127 time=0.014583333333333334\n",
      "note_on channel=0 note=60 velocity=127 time=0.05625\n",
      "note_off channel=0 note=60 velocity=127 time=0.019791666666666666\n",
      "note_on channel=0 note=61 velocity=127 time=0\n",
      "note_off channel=0 note=61 velocity=127 time=0.019791666666666666\n",
      "note_on channel=0 note=62 velocity=127 time=0.003125\n",
      "note_off channel=0 note=62 velocity=127 time=0.019791666666666666\n",
      "note_on channel=0 note=60 velocity=127 time=0.027083333333333334\n",
      "note_off channel=0 note=60 velocity=127 time=0.019791666666666666\n",
      "note_on channel=0 note=61 velocity=127 time=0.00625\n",
      "note_off channel=0 note=61 velocity=127 time=0.019791666666666666\n",
      "note_on channel=0 note=60 velocity=127 time=0.04479166666666667\n",
      "note_off channel=0 note=60 velocity=127 time=0.019791666666666666\n",
      "note_on channel=0 note=61 velocity=127 time=0.011458333333333333\n",
      "note_on channel=0 note=62 velocity=127 time=0.004166666666666667\n",
      "note_off channel=0 note=61 velocity=127 time=0.015625\n",
      "note_off channel=0 note=62 velocity=127 time=0.004166666666666667\n",
      "note_on channel=0 note=60 velocity=127 time=0.035416666666666666\n",
      "note_off channel=0 note=60 velocity=127 time=0.019791666666666666\n",
      "note_on channel=0 note=61 velocity=127 time=0.017708333333333333\n",
      "note_off channel=0 note=61 velocity=127 time=0.019791666666666666\n",
      "note_on channel=0 note=60 velocity=127 time=0.03333333333333333\n",
      "note_off channel=0 note=60 velocity=127 time=0.019791666666666666\n",
      "note_on channel=0 note=62 velocity=127 time=0.008333333333333333\n",
      "note_on channel=0 note=61 velocity=127 time=0.014583333333333334\n",
      "note_off channel=0 note=62 velocity=127 time=0.005208333333333333\n",
      "note_off channel=0 note=61 velocity=127 time=0.014583333333333334\n",
      "note_on channel=0 note=60 velocity=127 time=0.027083333333333334\n",
      "note_off channel=0 note=60 velocity=127 time=0.019791666666666666\n",
      "note_on channel=0 note=61 velocity=127 time=0.029166666666666667\n",
      "note_off channel=0 note=61 velocity=127 time=0.019791666666666666\n",
      "note_on channel=0 note=60 velocity=127 time=0.021875\n",
      "note_off channel=0 note=60 velocity=127 time=0.019791666666666666\n",
      "note_on channel=0 note=62 velocity=127 time=0.0010416666666666667\n",
      "note_off channel=0 note=62 velocity=127 time=0.019791666666666666\n",
      "note_on channel=0 note=61 velocity=127 time=0.014583333333333334\n",
      "note_off channel=0 note=61 velocity=127 time=0.019791666666666666\n",
      "note_on channel=0 note=60 velocity=127 time=0.015625\n",
      "note_off channel=0 note=60 velocity=127 time=0.019791666666666666\n",
      "note_on channel=0 note=61 velocity=127 time=0.040625\n",
      "note_off channel=0 note=61 velocity=127 time=0.019791666666666666\n",
      "note_on channel=0 note=60 velocity=127 time=0.010416666666666666\n",
      "note_on channel=0 note=62 velocity=127 time=0.013541666666666667\n",
      "note_off channel=0 note=60 velocity=127 time=0.00625\n",
      "note_off channel=0 note=62 velocity=127 time=0.013541666666666667\n",
      "note_on channel=0 note=61 velocity=127 time=0.03333333333333333\n",
      "note_off channel=0 note=61 velocity=127 time=0.019791666666666666\n",
      "note_on channel=0 note=60 velocity=127 time=0.004166666666666667\n",
      "note_off channel=0 note=60 velocity=127 time=0.019791666666666666\n",
      "note_on channel=0 note=61 velocity=127 time=0.052083333333333336\n",
      "note_on channel=0 note=60 velocity=127 time=0.01875\n",
      "note_off channel=0 note=61 velocity=127 time=0.0010416666666666667\n",
      "note_on channel=0 note=62 velocity=127 time=0.004166666666666667\n",
      "note_off channel=0 note=60 velocity=127 time=0.014583333333333334\n",
      "note_off channel=0 note=62 velocity=127 time=0.005208333333333333\n",
      "note_on channel=0 note=61 velocity=127 time=0.053125\n",
      "note_on channel=0 note=60 velocity=127 time=0.0125\n",
      "note_off channel=0 note=61 velocity=127 time=0.007291666666666667\n",
      "note_off channel=0 note=60 velocity=127 time=0.0125\n",
      "note_on channel=0 note=61 velocity=127 time=0.06458333333333333\n",
      "note_on channel=0 note=62 velocity=127 time=0.005208333333333333\n",
      "note_on channel=0 note=60 velocity=127 time=0.0020833333333333333\n",
      "note_off channel=0 note=61 velocity=127 time=0.013541666666666667\n",
      "note_off channel=0 note=62 velocity=127 time=0.005208333333333333\n",
      "note_off channel=0 note=60 velocity=127 time=0.0020833333333333333\n",
      "note_on channel=0 note=61 velocity=127 time=0.06979166666666667\n",
      "note_on channel=0 note=60 velocity=127 time=0.0010416666666666667\n",
      "note_off channel=0 note=61 velocity=127 time=0.01875\n",
      "note_off channel=0 note=60 velocity=127 time=0.0010416666666666667\n",
      "note_on channel=0 note=62 velocity=127 time=0.06145833333333333\n",
      "note_on channel=0 note=60 velocity=127 time=0.009375\n",
      "note_on channel=0 note=61 velocity=127 time=0.005208333333333333\n",
      "note_off channel=0 note=62 velocity=127 time=0.005208333333333333\n",
      "note_off channel=0 note=60 velocity=127 time=0.009375\n",
      "note_off channel=0 note=61 velocity=127 time=0.005208333333333333\n",
      "note_on channel=0 note=60 velocity=127 time=0.06666666666666667\n",
      "note_on channel=0 note=61 velocity=127 time=0.010416666666666666\n",
      "note_off channel=0 note=60 velocity=127 time=0.009375\n",
      "note_off channel=0 note=61 velocity=127 time=0.010416666666666666\n",
      "note_on channel=0 note=62 velocity=127 time=0.04375\n",
      "note_on channel=0 note=60 velocity=127 time=0.016666666666666666\n",
      "note_off channel=0 note=62 velocity=127 time=0.003125\n",
      "note_on channel=0 note=61 velocity=127 time=0.013541666666666667\n",
      "note_off channel=0 note=60 velocity=127 time=0.003125\n",
      "note_off channel=0 note=61 velocity=127 time=0.016666666666666666\n",
      "note_on channel=0 note=60 velocity=127 time=0.05416666666666667\n",
      "note_off channel=0 note=60 velocity=127 time=0.019791666666666666\n",
      "note_on channel=0 note=61 velocity=127 time=0.0020833333333333333\n",
      "note_off channel=0 note=61 velocity=127 time=0.019791666666666666\n",
      "note_on channel=0 note=62 velocity=127 time=0.02395833333333333\n",
      "note_off channel=0 note=62 velocity=127 time=0.019791666666666666\n",
      "note_on channel=0 note=60 velocity=127 time=0.004166666666666667\n",
      "note_off channel=0 note=60 velocity=127 time=0.019791666666666666\n",
      "note_on channel=0 note=61 velocity=127 time=0.008333333333333333\n",
      "note_off channel=0 note=61 velocity=127 time=0.019791666666666666\n",
      "note_on channel=0 note=60 velocity=127 time=0.042708333333333334\n",
      "note_off channel=0 note=60 velocity=127 time=0.019791666666666666\n",
      "note_on channel=0 note=61 velocity=127 time=0.013541666666666667\n",
      "note_off channel=0 note=61 velocity=127 time=0.019791666666666666\n",
      "note_on channel=0 note=62 velocity=127 time=0.005208333333333333\n",
      "note_off channel=0 note=62 velocity=127 time=0.019791666666666666\n",
      "note_on channel=0 note=60 velocity=127 time=0.0125\n",
      "note_off channel=0 note=60 velocity=127 time=0.019791666666666666\n",
      "note_on channel=0 note=61 velocity=127 time=0.019791666666666666\n",
      "note_off channel=0 note=61 velocity=127 time=0.019791666666666666\n",
      "note_on channel=0 note=60 velocity=127 time=0.03125\n",
      "note_off channel=0 note=60 velocity=127 time=0.019791666666666666\n",
      "note_on channel=0 note=61 velocity=127 time=0.026041666666666668\n",
      "note_on channel=0 note=62 velocity=127 time=0.005208333333333333\n",
      "note_off channel=0 note=61 velocity=127 time=0.014583333333333334\n",
      "note_off channel=0 note=62 velocity=127 time=0.005208333333333333\n",
      "note_on channel=0 note=60 velocity=127 time=0.019791666666666666\n",
      "note_off channel=0 note=60 velocity=127 time=0.019791666666666666\n",
      "note_on channel=0 note=61 velocity=127 time=0.03125\n",
      "note_off channel=0 note=61 velocity=127 time=0.019791666666666666\n",
      "note_on channel=0 note=60 velocity=127 time=0.019791666666666666\n",
      "note_off channel=0 note=60 velocity=127 time=0.019791666666666666\n",
      "note_on channel=0 note=62 velocity=127 time=0.02395833333333333\n",
      "note_on channel=0 note=61 velocity=127 time=0.013541666666666667\n",
      "note_off channel=0 note=62 velocity=127 time=0.00625\n",
      "note_off channel=0 note=61 velocity=127 time=0.013541666666666667\n",
      "note_on channel=0 note=60 velocity=127 time=0.013541666666666667\n",
      "note_off channel=0 note=60 velocity=127 time=0.019791666666666666\n",
      "note_on channel=0 note=61 velocity=127 time=0.042708333333333334\n",
      "note_off channel=0 note=61 velocity=127 time=0.019791666666666666\n",
      "note_on channel=0 note=60 velocity=127 time=0.008333333333333333\n",
      "note_off channel=0 note=60 velocity=127 time=0.019791666666666666\n",
      "note_on channel=0 note=62 velocity=127 time=0.015625\n",
      "note_off channel=0 note=62 velocity=127 time=0.019791666666666666\n",
      "note_on channel=0 note=61 velocity=127 time=0.0125\n",
      "note_off channel=0 note=61 velocity=127 time=0.019791666666666666\n",
      "note_on channel=0 note=60 velocity=127 time=0.0020833333333333333\n",
      "note_off channel=0 note=60 velocity=127 time=0.019791666666666666\n",
      "note_on channel=0 note=61 velocity=127 time=0.05520833333333333\n",
      "note_on channel=0 note=60 velocity=127 time=0.016666666666666666\n",
      "note_off channel=0 note=61 velocity=127 time=0.004166666666666667\n",
      "note_off channel=0 note=60 velocity=127 time=0.016666666666666666\n",
      "note_on channel=0 note=62 velocity=127 time=0.008333333333333333\n",
      "note_off channel=0 note=62 velocity=127 time=0.019791666666666666\n",
      "note_on channel=0 note=61 velocity=127 time=0.03229166666666666\n",
      "note_on channel=0 note=60 velocity=127 time=0.010416666666666666\n",
      "note_off channel=0 note=61 velocity=127 time=0.009375\n",
      "note_off channel=0 note=60 velocity=127 time=0.010416666666666666\n",
      "note_on channel=0 note=61 velocity=127 time=0.06666666666666667\n",
      "note_on channel=0 note=60 velocity=127 time=0.004166666666666667\n",
      "note_off channel=0 note=61 velocity=127 time=0.015625\n",
      "note_off channel=0 note=60 velocity=127 time=0.004166666666666667\n",
      "note_on channel=0 note=62 velocity=127 time=0.0010416666666666667\n",
      "note_off channel=0 note=62 velocity=127 time=0.019791666666666666\n",
      "note_on channel=0 note=60 velocity=127 time=0.05\n",
      "note_on channel=0 note=61 velocity=127 time=0.0010416666666666667\n",
      "note_off channel=0 note=60 velocity=127 time=0.01875\n",
      "note_off channel=0 note=61 velocity=127 time=0.0010416666666666667\n",
      "note_on channel=0 note=60 velocity=127 time=0.06979166666666667\n",
      "note_on channel=0 note=61 velocity=127 time=0.007291666666666667\n",
      "note_on channel=0 note=62 velocity=127 time=0.00625\n",
      "note_off channel=0 note=60 velocity=127 time=0.00625\n",
      "note_off channel=0 note=61 velocity=127 time=0.007291666666666667\n",
      "note_off channel=0 note=62 velocity=127 time=0.00625\n",
      "note_on channel=0 note=60 velocity=127 time=0.057291666666666664\n",
      "\u001b[91m [DEBUG] > \u001b[0m\n",
      " |>  to_array: msg.time > max_t; t, n\n",
      " |>  3.0447916666666686\n",
      " |>  150\n",
      "note_on channel=0 note=60 velocity=127 time=0.04479166666666667\n",
      "note_off channel=0 note=60 velocity=127 time=0.019791666666666666\n",
      "note_on channel=0 note=61 velocity=127 time=0.022916666666666665\n",
      "note_off channel=0 note=61 velocity=127 time=0.019791666666666666\n",
      "note_on channel=0 note=62 velocity=127 time=0.04895833333333333\n",
      "note_off channel=0 note=62 velocity=127 time=0.019791666666666666\n",
      "note_on channel=0 note=60 velocity=127 time=0.004166666666666667\n",
      "note_off channel=0 note=60 velocity=127 time=0.019791666666666666\n",
      "note_on channel=0 note=61 velocity=127 time=0.08958333333333333\n",
      "note_off channel=0 note=61 velocity=127 time=0.019791666666666666\n",
      "note_on channel=0 note=60 velocity=127 time=0.007291666666666667\n",
      "note_on channel=0 note=62 velocity=127 time=0.014583333333333334\n",
      "note_off channel=0 note=60 velocity=127 time=0.005208333333333333\n",
      "note_off channel=0 note=62 velocity=127 time=0.014583333333333334\n",
      "note_on channel=0 note=60 velocity=127 time=0.10208333333333333\n",
      "note_off channel=0 note=60 velocity=127 time=0.019791666666666666\n",
      "note_on channel=0 note=61 velocity=127 time=0.01875\n",
      "note_on channel=0 note=62 velocity=127 time=0.014583333333333334\n",
      "note_off channel=0 note=61 velocity=127 time=0.005208333333333333\n",
      "note_off channel=0 note=62 velocity=127 time=0.014583333333333334\n",
      "note_on channel=0 note=60 velocity=127 time=0.0625\n",
      "note_off channel=0 note=60 velocity=127 time=0.019791666666666666\n",
      "note_on channel=0 note=62 velocity=127 time=0.07291666666666667\n",
      "note_on channel=0 note=61 velocity=127 time=0.0125\n",
      "note_off channel=0 note=62 velocity=127 time=0.008333333333333333\n",
      "note_off channel=0 note=61 velocity=127 time=0.0125\n",
      "note_on channel=0 note=60 velocity=127 time=0.011458333333333333\n",
      "note_off channel=0 note=60 velocity=127 time=0.019791666666666666\n",
      "note_on channel=0 note=62 velocity=127 time=0.1125\n",
      "note_on channel=0 note=60 velocity=127 time=0.004166666666666667\n",
      "note_off channel=0 note=62 velocity=127 time=0.015625\n",
      "note_off channel=0 note=60 velocity=127 time=0.004166666666666667\n",
      "note_on channel=0 note=61 velocity=127 time=0.014583333333333334\n",
      "note_off channel=0 note=61 velocity=127 time=0.019791666666666666\n",
      "note_on channel=0 note=60 velocity=127 time=0.08229166666666667\n",
      "note_off channel=0 note=60 velocity=127 time=0.019791666666666666\n",
      "note_on channel=0 note=62 velocity=127 time=0.014583333333333334\n",
      "note_off channel=0 note=62 velocity=127 time=0.019791666666666666\n",
      "note_on channel=0 note=61 velocity=127 time=0.046875\n",
      "note_off channel=0 note=61 velocity=127 time=0.019791666666666666\n",
      "note_on channel=0 note=60 velocity=127 time=0.015625\n",
      "note_off channel=0 note=60 velocity=127 time=0.019791666666666666\n",
      "note_on channel=0 note=62 velocity=127 time=0.05416666666666667\n",
      "note_off channel=0 note=62 velocity=127 time=0.019791666666666666\n",
      "note_on channel=0 note=60 velocity=127 time=0.042708333333333334\n",
      "note_off channel=0 note=60 velocity=127 time=0.019791666666666666\n",
      "note_on channel=0 note=61 velocity=127 time=0.010416666666666666\n",
      "note_off channel=0 note=61 velocity=127 time=0.019791666666666666\n",
      "note_on channel=0 note=62 velocity=127 time=0.0625\n",
      "note_off channel=0 note=62 velocity=127 time=0.019791666666666666\n",
      "note_on channel=0 note=60 velocity=127 time=0.003125\n",
      "note_off channel=0 note=60 velocity=127 time=0.019791666666666666\n",
      "note_on channel=0 note=61 velocity=127 time=0.07708333333333334\n",
      "note_off channel=0 note=61 velocity=127 time=0.019791666666666666\n",
      "note_on channel=0 note=60 velocity=127 time=0.019791666666666666\n",
      "note_on channel=0 note=62 velocity=127 time=0.015625\n",
      "note_off channel=0 note=60 velocity=127 time=0.004166666666666667\n",
      "note_off channel=0 note=62 velocity=127 time=0.015625\n",
      "note_on channel=0 note=60 velocity=127 time=0.10104166666666667\n",
      "note_off channel=0 note=60 velocity=127 time=0.019791666666666666\n",
      "note_on channel=0 note=61 velocity=127 time=0.007291666666666667\n",
      "note_off channel=0 note=61 velocity=127 time=0.019791666666666666\n",
      "note_on channel=0 note=62 velocity=127 time=0.008333333333333333\n",
      "note_off channel=0 note=62 velocity=127 time=0.019791666666666666\n",
      "note_on channel=0 note=60 velocity=127 time=0.06145833333333333\n",
      "note_off channel=0 note=60 velocity=127 time=0.019791666666666666\n",
      "note_on channel=0 note=61 velocity=127 time=0.07291666666666667\n",
      "note_on channel=0 note=62 velocity=127 time=0.0010416666666666667\n",
      "note_off channel=0 note=61 velocity=127 time=0.01875\n",
      "note_off channel=0 note=62 velocity=127 time=0.0010416666666666667\n",
      "note_on channel=0 note=60 velocity=127 time=0.021875\n",
      "note_off channel=0 note=60 velocity=127 time=0.019791666666666666\n",
      "note_on channel=0 note=62 velocity=127 time=0.11354166666666667\n",
      "note_on channel=0 note=60 velocity=127 time=0.003125\n",
      "note_off channel=0 note=62 velocity=127 time=0.016666666666666666\n",
      "note_off channel=0 note=60 velocity=127 time=0.003125\n",
      "note_on channel=0 note=61 velocity=127 time=0.003125\n",
      "note_off channel=0 note=61 velocity=127 time=0.019791666666666666\n",
      "note_on channel=0 note=60 velocity=127 time=0.09375\n",
      "note_off channel=0 note=60 velocity=127 time=0.019791666666666666\n",
      "note_on channel=0 note=62 velocity=127 time=0.016666666666666666\n",
      "note_off channel=0 note=62 velocity=127 time=0.019791666666666666\n",
      "note_on channel=0 note=61 velocity=127 time=0.03333333333333333\n",
      "note_off channel=0 note=61 velocity=127 time=0.019791666666666666\n",
      "note_on channel=0 note=60 velocity=127 time=0.028125\n",
      "note_off channel=0 note=60 velocity=127 time=0.019791666666666666\n",
      "note_on channel=0 note=62 velocity=127 time=0.05520833333333333\n",
      "note_off channel=0 note=62 velocity=127 time=0.019791666666666666\n",
      "note_on channel=0 note=60 velocity=127 time=0.041666666666666664\n",
      "note_on channel=0 note=61 velocity=127 time=0.01875\n",
      "note_off channel=0 note=60 velocity=127 time=0.0010416666666666667\n",
      "note_off channel=0 note=61 velocity=127 time=0.01875\n",
      "note_on channel=0 note=62 velocity=127 time=0.07604166666666666\n",
      "note_off channel=0 note=62 velocity=127 time=0.019791666666666666\n",
      "note_on channel=0 note=60 velocity=127 time=0.0020833333333333333\n",
      "note_off channel=0 note=60 velocity=127 time=0.019791666666666666\n",
      "note_on channel=0 note=61 velocity=127 time=0.065625\n",
      "note_off channel=0 note=61 velocity=127 time=0.019791666666666666\n",
      "note_on channel=0 note=60 velocity=127 time=0.03125\n",
      "note_on channel=0 note=62 velocity=127 time=0.017708333333333333\n",
      "note_off channel=0 note=60 velocity=127 time=0.003125\n",
      "note_off channel=0 note=62 velocity=127 time=0.017708333333333333\n",
      "note_on channel=0 note=60 velocity=127 time=0.1\n",
      "note_on channel=0 note=61 velocity=127 time=0.014583333333333334\n",
      "note_off channel=0 note=60 velocity=127 time=0.005208333333333333\n",
      "note_off channel=0 note=61 velocity=127 time=0.014583333333333334\n",
      "note_on channel=0 note=62 velocity=127 time=0.021875\n",
      "note_off channel=0 note=62 velocity=127 time=0.019791666666666666\n",
      "note_on channel=0 note=60 velocity=127 time=0.06041666666666667\n",
      "\u001b[91m [DEBUG] > \u001b[0m\n",
      " |>  to_array: msg.time > max_t; t, n\n",
      " |>  3.046875000000001\n",
      " |>  150\n"
     ]
    },
    {
     "name": "stdout",
     "output_type": "stream",
     "text": [
      "note_on channel=0 note=61 velocity=127 time=0.0125\n",
      "note_on channel=0 note=60 velocity=127 time=0.009375\n",
      "note_off channel=0 note=61 velocity=127 time=0.010416666666666666\n",
      "note_off channel=0 note=60 velocity=127 time=0.009375\n",
      "note_on channel=0 note=62 velocity=127 time=0.03958333333333333\n",
      "note_off channel=0 note=62 velocity=127 time=0.019791666666666666\n",
      "note_on channel=0 note=60 velocity=127 time=0.00625\n",
      "note_on channel=0 note=61 velocity=127 time=0.013541666666666667\n",
      "note_off channel=0 note=60 velocity=127 time=0.00625\n",
      "note_off channel=0 note=61 velocity=127 time=0.013541666666666667\n",
      "note_on channel=0 note=60 velocity=127 time=0.052083333333333336\n",
      "note_on channel=0 note=62 velocity=127 time=0.010416666666666666\n",
      "note_off channel=0 note=60 velocity=127 time=0.009375\n",
      "note_off channel=0 note=62 velocity=127 time=0.010416666666666666\n",
      "note_on channel=0 note=61 velocity=127 time=0.005208333333333333\n",
      "note_off channel=0 note=61 velocity=127 time=0.019791666666666666\n",
      "note_on channel=0 note=60 velocity=127 time=0.029166666666666667\n",
      "note_off channel=0 note=60 velocity=127 time=0.019791666666666666\n",
      "note_on channel=0 note=62 velocity=127 time=0.027083333333333334\n",
      "note_on channel=0 note=61 velocity=127 time=0.010416666666666666\n",
      "note_off channel=0 note=62 velocity=127 time=0.009375\n",
      "note_off channel=0 note=61 velocity=127 time=0.010416666666666666\n",
      "note_on channel=0 note=60 velocity=127 time=0.007291666666666667\n",
      "note_off channel=0 note=60 velocity=127 time=0.019791666666666666\n",
      "note_on channel=0 note=61 velocity=127 time=0.06041666666666667\n",
      "note_on channel=0 note=62 velocity=127 time=0.003125\n",
      "note_on channel=0 note=60 velocity=127 time=0.0010416666666666667\n",
      "note_off channel=0 note=61 velocity=127 time=0.015625\n",
      "note_off channel=0 note=62 velocity=127 time=0.003125\n",
      "note_off channel=0 note=60 velocity=127 time=0.0010416666666666667\n",
      "note_on channel=0 note=60 velocity=127 time=0.06458333333333333\n",
      "note_on channel=0 note=61 velocity=127 time=0.017708333333333333\n",
      "note_off channel=0 note=60 velocity=127 time=0.0020833333333333333\n",
      "note_on channel=0 note=62 velocity=127 time=0.015625\n",
      "note_off channel=0 note=61 velocity=127 time=0.0020833333333333333\n",
      "note_off channel=0 note=62 velocity=127 time=0.017708333333333333\n",
      "note_on channel=0 note=60 velocity=127 time=0.029166666666666667\n",
      "note_off channel=0 note=60 velocity=127 time=0.019791666666666666\n",
      "note_on channel=0 note=61 velocity=127 time=0.019791666666666666\n",
      "note_off channel=0 note=61 velocity=127 time=0.019791666666666666\n",
      "note_on channel=0 note=62 velocity=127 time=0.0125\n",
      "note_on channel=0 note=60 velocity=127 time=0.0125\n",
      "note_off channel=0 note=62 velocity=127 time=0.007291666666666667\n",
      "note_off channel=0 note=60 velocity=127 time=0.0125\n",
      "note_on channel=0 note=61 velocity=127 time=0.042708333333333334\n",
      "note_off channel=0 note=61 velocity=127 time=0.019791666666666666\n",
      "note_on channel=0 note=60 velocity=127 time=0.0020833333333333333\n",
      "note_off channel=0 note=60 velocity=127 time=0.019791666666666666\n",
      "note_on channel=0 note=62 velocity=127 time=0.004166666666666667\n",
      "note_off channel=0 note=62 velocity=127 time=0.019791666666666666\n",
      "note_on channel=0 note=61 velocity=127 time=0.041666666666666664\n",
      "note_on channel=0 note=60 velocity=127 time=0\n",
      "note_off channel=0 note=61 velocity=127 time=0.019791666666666666\n",
      "note_off channel=0 note=60 velocity=127 time=0\n",
      "note_on channel=0 note=62 velocity=127 time=0.040625\n",
      "note_off channel=0 note=62 velocity=127 time=0.019791666666666666\n",
      "note_on channel=0 note=60 velocity=127 time=0.005208333333333333\n",
      "note_off channel=0 note=60 velocity=127 time=0.019791666666666666\n",
      "note_on channel=0 note=61 velocity=127 time=0.0020833333333333333\n",
      "note_off channel=0 note=61 velocity=127 time=0.019791666666666666\n",
      "note_on channel=0 note=60 velocity=127 time=0.042708333333333334\n",
      "note_on channel=0 note=62 velocity=127 time=0.011458333333333333\n",
      "note_off channel=0 note=60 velocity=127 time=0.008333333333333333\n",
      "note_off channel=0 note=62 velocity=127 time=0.011458333333333333\n",
      "note_on channel=0 note=61 velocity=127 time=0.0125\n",
      "note_off channel=0 note=61 velocity=127 time=0.019791666666666666\n",
      "note_on channel=0 note=60 velocity=127 time=0.020833333333333332\n",
      "note_off channel=0 note=60 velocity=127 time=0.019791666666666666\n",
      "note_on channel=0 note=62 velocity=127 time=0.028125\n",
      "note_on channel=0 note=61 velocity=127 time=0.01875\n",
      "note_off channel=0 note=62 velocity=127 time=0.0010416666666666667\n",
      "note_on channel=0 note=60 velocity=127 time=0.016666666666666666\n",
      "note_off channel=0 note=61 velocity=127 time=0.0020833333333333333\n",
      "note_off channel=0 note=60 velocity=127 time=0.017708333333333333\n",
      "note_on channel=0 note=60 velocity=127 time=0.06458333333333333\n",
      "note_on channel=0 note=62 velocity=127 time=0\n",
      "note_on channel=0 note=61 velocity=127 time=0.004166666666666667\n",
      "note_off channel=0 note=60 velocity=127 time=0.015625\n",
      "note_off channel=0 note=62 velocity=127 time=0\n",
      "note_off channel=0 note=61 velocity=127 time=0.004166666666666667\n",
      "note_on channel=0 note=60 velocity=127 time=0.06041666666666667\n",
      "note_off channel=0 note=60 velocity=127 time=0.019791666666666666\n",
      "note_on channel=0 note=61 velocity=127 time=0.00625\n",
      "note_on channel=0 note=62 velocity=127 time=0.010416666666666666\n",
      "note_off channel=0 note=61 velocity=127 time=0.010416666666666666\n",
      "note_off channel=0 note=62 velocity=127 time=0.010416666666666666\n",
      "note_on channel=0 note=60 velocity=127 time=0.028125\n",
      "note_off channel=0 note=60 velocity=127 time=0.019791666666666666\n",
      "note_on channel=0 note=61 velocity=127 time=0.029166666666666667\n",
      "note_off channel=0 note=61 velocity=127 time=0.019791666666666666\n",
      "note_on channel=0 note=62 velocity=127 time=0.004166666666666667\n",
      "note_on channel=0 note=60 velocity=127 time=0.011458333333333333\n",
      "note_off channel=0 note=62 velocity=127 time=0.008333333333333333\n",
      "note_off channel=0 note=60 velocity=127 time=0.011458333333333333\n",
      "note_on channel=0 note=61 velocity=127 time=0.051041666666666666\n",
      "note_on channel=0 note=60 velocity=127 time=0.013541666666666667\n",
      "note_off channel=0 note=61 velocity=127 time=0.00625\n",
      "note_off channel=0 note=60 velocity=127 time=0.013541666666666667\n",
      "note_on channel=0 note=62 velocity=127 time=0.005208333333333333\n",
      "note_off channel=0 note=62 velocity=127 time=0.019791666666666666\n",
      "note_on channel=0 note=60 velocity=127 time=0.040625\n",
      "note_on channel=0 note=61 velocity=127 time=0.009375\n",
      "note_off channel=0 note=60 velocity=127 time=0.011458333333333333\n",
      "note_off channel=0 note=61 velocity=127 time=0.009375\n",
      "note_on channel=0 note=62 velocity=127 time=0.03229166666666666\n",
      "note_off channel=0 note=62 velocity=127 time=0.019791666666666666\n",
      "note_on channel=0 note=60 velocity=127 time=0.003125\n",
      "note_off channel=0 note=60 velocity=127 time=0.019791666666666666\n",
      "note_on channel=0 note=61 velocity=127 time=0.011458333333333333\n",
      "note_off channel=0 note=61 velocity=127 time=0.019791666666666666\n",
      "note_on channel=0 note=60 velocity=127 time=0.03333333333333333\n",
      "note_on channel=0 note=62 velocity=127 time=0.013541666666666667\n",
      "note_off channel=0 note=60 velocity=127 time=0.007291666666666667\n",
      "note_off channel=0 note=62 velocity=127 time=0.013541666666666667\n",
      "note_on channel=0 note=61 velocity=127 time=0.020833333333333332\n",
      "note_off channel=0 note=61 velocity=127 time=0.019791666666666666\n",
      "note_on channel=0 note=60 velocity=127 time=0.011458333333333333\n",
      "note_off channel=0 note=60 velocity=127 time=0.019791666666666666\n",
      "note_on channel=0 note=62 velocity=127 time=0.030208333333333334\n",
      "note_off channel=0 note=62 velocity=127 time=0.019791666666666666\n",
      "note_on channel=0 note=61 velocity=127 time=0.00625\n",
      "note_on channel=0 note=60 velocity=127 time=0.009375\n",
      "note_off channel=0 note=61 velocity=127 time=0.011458333333333333\n",
      "note_off channel=0 note=60 velocity=127 time=0.009375\n",
      "note_on channel=0 note=60 velocity=127 time=0.06458333333333333\n",
      "note_on channel=0 note=62 velocity=127 time=0.0010416666666666667\n",
      "note_on channel=0 note=61 velocity=127 time=0.0125\n",
      "note_off channel=0 note=60 velocity=127 time=0.00625\n",
      "note_off channel=0 note=62 velocity=127 time=0.0010416666666666667\n",
      "note_off channel=0 note=61 velocity=127 time=0.0125\n",
      "note_on channel=0 note=60 velocity=127 time=0.052083333333333336\n",
      "note_off channel=0 note=60 velocity=127 time=0.019791666666666666\n",
      "note_on channel=0 note=61 velocity=127 time=0.015625\n",
      "note_on channel=0 note=62 velocity=127 time=0.0020833333333333333\n",
      "note_off channel=0 note=61 velocity=127 time=0.017708333333333333\n",
      "note_off channel=0 note=62 velocity=127 time=0.0020833333333333333\n",
      "note_on channel=0 note=60 velocity=127 time=0.027083333333333334\n",
      "note_off channel=0 note=60 velocity=127 time=0.019791666666666666\n",
      "note_on channel=0 note=61 velocity=127 time=0.03854166666666667\n",
      "note_on channel=0 note=62 velocity=127 time=0.016666666666666666\n",
      "note_off channel=0 note=61 velocity=127 time=0.003125\n",
      "note_on channel=0 note=60 velocity=127 time=0.007291666666666667\n",
      "note_off channel=0 note=62 velocity=127 time=0.009375\n",
      "note_off channel=0 note=60 velocity=127 time=0.010416666666666666\n",
      "note_on channel=0 note=61 velocity=127 time=0.06041666666666667\n",
      "note_on channel=0 note=60 velocity=127 time=0.004166666666666667\n",
      "note_off channel=0 note=61 velocity=127 time=0.015625\n",
      "note_off channel=0 note=60 velocity=127 time=0.004166666666666667\n",
      "note_on channel=0 note=62 velocity=127 time=0.00625\n",
      "note_off channel=0 note=62 velocity=127 time=0.019791666666666666\n",
      "note_on channel=0 note=60 velocity=127 time=0.03854166666666667\n",
      "note_on channel=0 note=61 velocity=127 time=0.017708333333333333\n",
      "note_off channel=0 note=60 velocity=127 time=0.0020833333333333333\n",
      "note_off channel=0 note=61 velocity=127 time=0.017708333333333333\n",
      "note_on channel=0 note=62 velocity=127 time=0.025\n",
      "note_off channel=0 note=62 velocity=127 time=0.019791666666666666\n",
      "note_on channel=0 note=60 velocity=127 time=0.0020833333333333333\n",
      "note_off channel=0 note=60 velocity=127 time=0.019791666666666666\n",
      "note_on channel=0 note=61 velocity=127 time=0.019791666666666666\n",
      "note_off channel=0 note=61 velocity=127 time=0.019791666666666666\n",
      "note_on channel=0 note=60 velocity=127 time=0.025\n",
      "note_on channel=0 note=62 velocity=127 time=0.014583333333333334\n",
      "note_off channel=0 note=60 velocity=127 time=0.00625\n",
      "note_off channel=0 note=62 velocity=127 time=0.014583333333333334\n",
      "note_on channel=0 note=61 velocity=127 time=0.028125\n",
      "note_off channel=0 note=61 velocity=127 time=0.019791666666666666\n",
      "note_on channel=0 note=60 velocity=127 time=0.0020833333333333333\n",
      "note_off channel=0 note=60 velocity=127 time=0.019791666666666666\n",
      "note_on channel=0 note=62 velocity=127 time=0.03125\n",
      "note_off channel=0 note=62 velocity=127 time=0.019791666666666666\n",
      "note_on channel=0 note=61 velocity=127 time=0.014583333333333334\n",
      "note_on channel=0 note=60 velocity=127 time=0\n",
      "note_off channel=0 note=61 velocity=127 time=0.019791666666666666\n",
      "note_off channel=0 note=60 velocity=127 time=0\n",
      "note_on channel=0 note=60 velocity=127 time=0.06458333333333333\n",
      "\u001b[91m [DEBUG] > \u001b[0m\n",
      " |>  to_array: msg.time > max_t; t, n\n",
      " |>  2.990625000000001\n",
      " |>  150\n",
      "note_on channel=0 note=61 velocity=127 time=0.022916666666666665\n",
      "note_off channel=0 note=61 velocity=127 time=0.019791666666666666\n",
      "note_on channel=0 note=60 velocity=127 time=0.009375\n",
      "note_off channel=0 note=60 velocity=127 time=0.019791666666666666\n",
      "note_on channel=0 note=62 velocity=127 time=0.022916666666666665\n",
      "note_on channel=0 note=61 velocity=127 time=0.014583333333333334\n",
      "note_off channel=0 note=62 velocity=127 time=0.005208333333333333\n",
      "note_on channel=0 note=60 velocity=127 time=0.004166666666666667\n",
      "note_off channel=0 note=61 velocity=127 time=0.010416666666666666\n",
      "note_off channel=0 note=60 velocity=127 time=0.010416666666666666\n",
      "note_on channel=0 note=60 velocity=127 time=0.046875\n",
      "note_on channel=0 note=61 velocity=127 time=0.009375\n",
      "note_off channel=0 note=60 velocity=127 time=0.010416666666666666\n",
      "note_off channel=0 note=61 velocity=127 time=0.009375\n",
      "note_on channel=0 note=60 velocity=127 time=0.0375\n",
      "note_off channel=0 note=60 velocity=127 time=0.019791666666666666\n",
      "note_on channel=0 note=61 velocity=127 time=0.008333333333333333\n",
      "note_off channel=0 note=61 velocity=127 time=0.019791666666666666\n",
      "note_on channel=0 note=60 velocity=127 time=0.01875\n",
      "note_off channel=0 note=60 velocity=127 time=0.019791666666666666\n",
      "note_on channel=0 note=61 velocity=127 time=0.027083333333333334\n",
      "note_on channel=0 note=62 velocity=127 time=0.00625\n",
      "note_on channel=0 note=60 velocity=127 time=0.0125\n",
      "note_off channel=0 note=61 velocity=127 time=0.0010416666666666667\n",
      "note_off channel=0 note=62 velocity=127 time=0.00625\n",
      "note_off channel=0 note=60 velocity=127 time=0.0125\n",
      "note_on channel=0 note=61 velocity=127 time=0.046875\n",
      "note_on channel=0 note=60 velocity=127 time=0\n",
      "note_off channel=0 note=61 velocity=127 time=0.019791666666666666\n",
      "note_off channel=0 note=60 velocity=127 time=0\n",
      "note_on channel=0 note=60 velocity=127 time=0.046875\n",
      "note_on channel=0 note=61 velocity=127 time=0.01875\n",
      "note_off channel=0 note=60 velocity=127 time=0.0010416666666666667\n",
      "note_off channel=0 note=61 velocity=127 time=0.01875\n",
      "note_on channel=0 note=60 velocity=127 time=0.028125\n",
      "note_off channel=0 note=60 velocity=127 time=0.019791666666666666\n",
      "note_on channel=0 note=61 velocity=127 time=0.017708333333333333\n",
      "note_off channel=0 note=61 velocity=127 time=0.019791666666666666\n",
      "note_on channel=0 note=62 velocity=127 time=0.007291666666666667\n",
      "note_on channel=0 note=60 velocity=127 time=0.0010416666666666667\n",
      "note_off channel=0 note=62 velocity=127 time=0.01875\n",
      "note_off channel=0 note=60 velocity=127 time=0.0010416666666666667\n",
      "note_on channel=0 note=61 velocity=127 time=0.0375\n",
      "note_on channel=0 note=60 velocity=127 time=0.009375\n",
      "note_off channel=0 note=61 velocity=127 time=0.010416666666666666\n",
      "note_off channel=0 note=60 velocity=127 time=0.009375\n",
      "note_on channel=0 note=60 velocity=127 time=0.046875\n",
      "note_on channel=0 note=61 velocity=127 time=0.009375\n",
      "note_off channel=0 note=60 velocity=127 time=0.010416666666666666\n",
      "note_off channel=0 note=61 velocity=127 time=0.009375\n",
      "note_on channel=0 note=60 velocity=127 time=0.0375\n",
      "note_off channel=0 note=60 velocity=127 time=0.019791666666666666\n",
      "note_on channel=0 note=61 velocity=127 time=0.008333333333333333\n",
      "note_off channel=0 note=61 velocity=127 time=0.019791666666666666\n",
      "note_on channel=0 note=60 velocity=127 time=0.017708333333333333\n",
      "note_on channel=0 note=62 velocity=127 time=0.010416666666666666\n",
      "note_off channel=0 note=60 velocity=127 time=0.009375\n",
      "note_off channel=0 note=62 velocity=127 time=0.010416666666666666\n",
      "note_on channel=0 note=61 velocity=127 time=0.017708333333333333\n",
      "note_on channel=0 note=60 velocity=127 time=0.01875\n",
      "note_off channel=0 note=61 velocity=127 time=0.0010416666666666667\n",
      "note_off channel=0 note=60 velocity=127 time=0.01875\n",
      "note_on channel=0 note=61 velocity=127 time=0.046875\n",
      "note_on channel=0 note=60 velocity=127 time=0\n",
      "note_off channel=0 note=61 velocity=127 time=0.019791666666666666\n",
      "note_off channel=0 note=60 velocity=127 time=0\n",
      "note_on channel=0 note=60 velocity=127 time=0.046875\n",
      "note_on channel=0 note=61 velocity=127 time=0.01875\n",
      "note_off channel=0 note=60 velocity=127 time=0.0010416666666666667\n",
      "note_off channel=0 note=61 velocity=127 time=0.01875\n",
      "note_on channel=0 note=60 velocity=127 time=0.028125\n",
      "note_off channel=0 note=60 velocity=127 time=0.019791666666666666\n",
      "note_on channel=0 note=62 velocity=127 time=0.0020833333333333333\n",
      "note_on channel=0 note=61 velocity=127 time=0.016666666666666666\n",
      "note_off channel=0 note=62 velocity=127 time=0.003125\n",
      "note_off channel=0 note=61 velocity=127 time=0.016666666666666666\n",
      "note_on channel=0 note=60 velocity=127 time=0.008333333333333333\n",
      "note_off channel=0 note=60 velocity=127 time=0.019791666666666666\n",
      "note_on channel=0 note=61 velocity=127 time=0.0375\n",
      "note_on channel=0 note=60 velocity=127 time=0.009375\n",
      "note_off channel=0 note=61 velocity=127 time=0.010416666666666666\n",
      "note_off channel=0 note=60 velocity=127 time=0.009375\n",
      "note_on channel=0 note=60 velocity=127 time=0.046875\n",
      "note_on channel=0 note=61 velocity=127 time=0.009375\n",
      "note_off channel=0 note=60 velocity=127 time=0.010416666666666666\n",
      "note_off channel=0 note=61 velocity=127 time=0.009375\n",
      "note_on channel=0 note=60 velocity=127 time=0.0375\n",
      "note_off channel=0 note=60 velocity=127 time=0.019791666666666666\n",
      "note_on channel=0 note=61 velocity=127 time=0.008333333333333333\n",
      "note_on channel=0 note=62 velocity=127 time=0.004166666666666667\n",
      "note_off channel=0 note=61 velocity=127 time=0.015625\n",
      "note_off channel=0 note=62 velocity=127 time=0.004166666666666667\n",
      "note_on channel=0 note=60 velocity=127 time=0.013541666666666667\n",
      "note_off channel=0 note=60 velocity=127 time=0.019791666666666666\n",
      "note_on channel=0 note=61 velocity=127 time=0.028125\n",
      "note_on channel=0 note=60 velocity=127 time=0.01875\n",
      "note_off channel=0 note=61 velocity=127 time=0.0010416666666666667\n",
      "note_off channel=0 note=60 velocity=127 time=0.01875\n",
      "note_on channel=0 note=60 velocity=127 time=0.046875\n",
      "note_on channel=0 note=61 velocity=127 time=0\n",
      "note_off channel=0 note=60 velocity=127 time=0.019791666666666666\n",
      "note_off channel=0 note=61 velocity=127 time=0\n",
      "note_on channel=0 note=60 velocity=127 time=0.046875\n",
      "note_on channel=0 note=61 velocity=127 time=0.019791666666666666\n",
      "note_off channel=0 note=60 velocity=127 time=0.0010416666666666667\n",
      "note_off channel=0 note=61 velocity=127 time=0.019791666666666666\n",
      "note_on channel=0 note=62 velocity=127 time=0.005208333333333333\n",
      "note_off channel=0 note=62 velocity=127 time=0.019791666666666666\n",
      "note_on channel=0 note=60 velocity=127 time=0.0020833333333333333\n",
      "note_off channel=0 note=60 velocity=127 time=0.019791666666666666\n",
      "note_on channel=0 note=61 velocity=127 time=0.01875\n",
      "note_off channel=0 note=61 velocity=127 time=0.019791666666666666\n",
      "note_on channel=0 note=60 velocity=127 time=0.008333333333333333\n",
      "note_off channel=0 note=60 velocity=127 time=0.019791666666666666\n",
      "note_on channel=0 note=61 velocity=127 time=0.0375\n",
      "note_on channel=0 note=60 velocity=127 time=0.009375\n",
      "note_off channel=0 note=61 velocity=127 time=0.010416666666666666\n",
      "note_off channel=0 note=60 velocity=127 time=0.009375\n",
      "note_on channel=0 note=60 velocity=127 time=0.046875\n",
      "note_on channel=0 note=61 velocity=127 time=0.010416666666666666\n",
      "note_off channel=0 note=60 velocity=127 time=0.010416666666666666\n",
      "note_off channel=0 note=61 velocity=127 time=0.010416666666666666\n",
      "note_on channel=0 note=62 velocity=127 time=0.026041666666666668\n",
      "note_on channel=0 note=60 velocity=127 time=0.010416666666666666\n",
      "note_off channel=0 note=62 velocity=127 time=0.009375\n",
      "note_off channel=0 note=60 velocity=127 time=0.010416666666666666\n",
      "note_on channel=0 note=61 velocity=127 time=0.009375\n",
      "note_off channel=0 note=61 velocity=127 time=0.019791666666666666\n",
      "note_on channel=0 note=60 velocity=127 time=0.017708333333333333\n",
      "note_off channel=0 note=60 velocity=127 time=0.019791666666666666\n",
      "note_on channel=0 note=61 velocity=127 time=0.028125\n",
      "note_on channel=0 note=60 velocity=127 time=0.01875\n",
      "note_off channel=0 note=61 velocity=127 time=0.0010416666666666667\n",
      "note_off channel=0 note=60 velocity=127 time=0.01875\n",
      "note_on channel=0 note=60 velocity=127 time=0.046875\n",
      "note_on channel=0 note=61 velocity=127 time=0\n",
      "note_off channel=0 note=60 velocity=127 time=0.019791666666666666\n",
      "note_off channel=0 note=61 velocity=127 time=0\n",
      "note_on channel=0 note=60 velocity=127 time=0.04583333333333333\n",
      "note_on channel=0 note=62 velocity=127 time=0.0010416666666666667\n",
      "note_on channel=0 note=61 velocity=127 time=0.01875\n",
      "note_off channel=0 note=60 velocity=127 time=0\n",
      "note_off channel=0 note=62 velocity=127 time=0.0010416666666666667\n",
      "note_off channel=0 note=61 velocity=127 time=0.01875\n",
      "note_on channel=0 note=60 velocity=127 time=0.027083333333333334\n",
      "note_off channel=0 note=60 velocity=127 time=0.019791666666666666\n",
      "note_on channel=0 note=61 velocity=127 time=0.01875\n",
      "note_off channel=0 note=61 velocity=127 time=0.019791666666666666\n",
      "note_on channel=0 note=60 velocity=127 time=0.008333333333333333\n",
      "note_off channel=0 note=60 velocity=127 time=0.019791666666666666\n",
      "note_on channel=0 note=61 velocity=127 time=0.0375\n",
      "note_on channel=0 note=60 velocity=127 time=0.009375\n",
      "note_off channel=0 note=61 velocity=127 time=0.011458333333333333\n",
      "note_off channel=0 note=60 velocity=127 time=0.009375\n",
      "note_on channel=0 note=60 velocity=127 time=0.046875\n",
      "note_on channel=0 note=61 velocity=127 time=0.010416666666666666\n",
      "note_on channel=0 note=62 velocity=127 time=0.0020833333333333333\n",
      "note_off channel=0 note=60 velocity=127 time=0.007291666666666667\n",
      "note_off channel=0 note=61 velocity=127 time=0.010416666666666666\n",
      "note_off channel=0 note=62 velocity=127 time=0.0020833333333333333\n",
      "note_on channel=0 note=60 velocity=127 time=0.034375\n",
      "note_off channel=0 note=60 velocity=127 time=0.019791666666666666\n",
      "note_on channel=0 note=61 velocity=127 time=0.009375\n",
      "note_off channel=0 note=61 velocity=127 time=0.019791666666666666\n",
      "note_on channel=0 note=60 velocity=127 time=0.017708333333333333\n",
      "note_off channel=0 note=60 velocity=127 time=0.019791666666666666\n",
      "note_on channel=0 note=61 velocity=127 time=0.028125\n",
      "note_on channel=0 note=60 velocity=127 time=0.01875\n",
      "note_off channel=0 note=61 velocity=127 time=0.0020833333333333333\n",
      "note_off channel=0 note=60 velocity=127 time=0.01875\n",
      "note_on channel=0 note=60 velocity=127 time=0.046875\n",
      "note_on channel=0 note=61 velocity=127 time=0.0010416666666666667\n",
      "note_off channel=0 note=60 velocity=127 time=0.01875\n",
      "note_off channel=0 note=61 velocity=127 time=0.0010416666666666667\n",
      "note_on channel=0 note=62 velocity=127 time=0.003125\n",
      "note_off channel=0 note=62 velocity=127 time=0.019791666666666666\n",
      "note_on channel=0 note=60 velocity=127 time=0.022916666666666665\n",
      "note_on channel=0 note=61 velocity=127 time=0.019791666666666666\n",
      "note_off channel=0 note=60 velocity=127 time=0\n",
      "note_off channel=0 note=61 velocity=127 time=0.019791666666666666\n",
      "note_on channel=0 note=60 velocity=127 time=0.027083333333333334\n",
      "note_off channel=0 note=60 velocity=127 time=0.019791666666666666\n",
      "\u001b[91m [DEBUG] > \u001b[0m\n",
      " |>  to_array: msg.time > max_t; t, n\n",
      " |>  3.0052083333333317\n",
      " |>  150\n",
      "note_on channel=0 note=61 velocity=127 time=0.08020833333333333\n",
      "note_on channel=0 note=60 velocity=127 time=0.015625\n",
      "note_off channel=0 note=61 velocity=127 time=0.004166666666666667\n",
      "note_off channel=0 note=60 velocity=127 time=0.015625\n",
      "note_on channel=0 note=61 velocity=127 time=0.04791666666666666\n",
      "note_off channel=0 note=61 velocity=127 time=0.019791666666666666\n",
      "note_on channel=0 note=62 velocity=127 time=0.042708333333333334\n",
      "note_on channel=0 note=60 velocity=127 time=0\n",
      "note_off channel=0 note=62 velocity=127 time=0.019791666666666666\n",
      "note_off channel=0 note=60 velocity=127 time=0\n",
      "note_on channel=0 note=61 velocity=127 time=0.0010416666666666667\n",
      "note_off channel=0 note=61 velocity=127 time=0.019791666666666666\n",
      "note_on channel=0 note=61 velocity=127 time=0.06458333333333333\n",
      "note_off channel=0 note=61 velocity=127 time=0.019791666666666666\n",
      "note_on channel=0 note=60 velocity=127 time=0.00625\n",
      "note_off channel=0 note=60 velocity=127 time=0.019791666666666666\n",
      "note_on channel=0 note=61 velocity=127 time=0.0375\n",
      "note_off channel=0 note=61 velocity=127 time=0.019791666666666666\n",
      "note_on channel=0 note=60 velocity=127 time=0.053125\n",
      "note_on channel=0 note=62 velocity=127 time=0.009375\n",
      "note_on channel=0 note=61 velocity=127 time=0.0010416666666666667\n",
      "note_off channel=0 note=60 velocity=127 time=0.009375\n",
      "note_off channel=0 note=62 velocity=127 time=0.009375\n",
      "note_off channel=0 note=61 velocity=127 time=0.0010416666666666667\n",
      "note_on channel=0 note=61 velocity=127 time=0.06458333333333333\n",
      "note_off channel=0 note=61 velocity=127 time=0.019791666666666666\n",
      "note_on channel=0 note=60 velocity=127 time=0.016666666666666666\n",
      "note_off channel=0 note=60 velocity=127 time=0.019791666666666666\n",
      "note_on channel=0 note=61 velocity=127 time=0.027083333333333334\n",
      "note_off channel=0 note=61 velocity=127 time=0.019791666666666666\n",
      "note_on channel=0 note=60 velocity=127 time=0.06354166666666666\n",
      "note_on channel=0 note=61 velocity=127 time=0\n",
      "note_on channel=0 note=62 velocity=127 time=0.01875\n",
      "note_off channel=0 note=60 velocity=127 time=0.0010416666666666667\n",
      "note_off channel=0 note=61 velocity=127 time=0\n",
      "note_off channel=0 note=62 velocity=127 time=0.01875\n",
      "note_on channel=0 note=61 velocity=127 time=0.04583333333333333\n",
      "note_off channel=0 note=61 velocity=127 time=0.019791666666666666\n",
      "note_on channel=0 note=60 velocity=127 time=0.027083333333333334\n",
      "note_off channel=0 note=60 velocity=127 time=0.019791666666666666\n",
      "note_on channel=0 note=61 velocity=127 time=0.016666666666666666\n",
      "note_off channel=0 note=61 velocity=127 time=0.019791666666666666\n",
      "note_on channel=0 note=61 velocity=127 time=0.06458333333333333\n",
      "note_on channel=0 note=60 velocity=127 time=0.010416666666666666\n",
      "note_off channel=0 note=61 velocity=127 time=0.009375\n",
      "note_off channel=0 note=60 velocity=127 time=0.010416666666666666\n",
      "note_on channel=0 note=62 velocity=127 time=0.008333333333333333\n",
      "note_off channel=0 note=62 velocity=127 time=0.019791666666666666\n",
      "note_on channel=0 note=61 velocity=127 time=0.026041666666666668\n",
      "note_off channel=0 note=61 velocity=127 time=0.019791666666666666\n",
      "note_on channel=0 note=60 velocity=127 time=0.0375\n",
      "note_off channel=0 note=60 velocity=127 time=0.019791666666666666\n",
      "note_on channel=0 note=61 velocity=127 time=0.00625\n",
      "note_off channel=0 note=61 velocity=127 time=0.019791666666666666\n",
      "note_on channel=0 note=61 velocity=127 time=0.06458333333333333\n",
      "note_off channel=0 note=61 velocity=127 time=0.019791666666666666\n",
      "note_on channel=0 note=60 velocity=127 time=0.0010416666666666667\n",
      "note_off channel=0 note=60 velocity=127 time=0.019791666666666666\n",
      "note_on channel=0 note=62 velocity=127 time=0.017708333333333333\n",
      "note_off channel=0 note=62 velocity=127 time=0.019791666666666666\n",
      "note_on channel=0 note=61 velocity=127 time=0.00625\n",
      "note_off channel=0 note=61 velocity=127 time=0.019791666666666666\n",
      "note_on channel=0 note=60 velocity=127 time=0.04791666666666666\n",
      "note_on channel=0 note=61 velocity=127 time=0.016666666666666666\n",
      "note_off channel=0 note=60 velocity=127 time=0.004166666666666667\n",
      "note_off channel=0 note=61 velocity=127 time=0.016666666666666666\n",
      "note_on channel=0 note=61 velocity=127 time=0.06458333333333333\n",
      "note_off channel=0 note=61 velocity=127 time=0.019791666666666666\n",
      "note_on channel=0 note=60 velocity=127 time=0.011458333333333333\n",
      "note_off channel=0 note=60 velocity=127 time=0.019791666666666666\n",
      "note_on channel=0 note=62 velocity=127 time=0.027083333333333334\n",
      "note_on channel=0 note=61 velocity=127 time=0.00625\n",
      "note_off channel=0 note=62 velocity=127 time=0.013541666666666667\n",
      "note_off channel=0 note=61 velocity=127 time=0.00625\n",
      "note_on channel=0 note=60 velocity=127 time=0.058333333333333334\n",
      "note_on channel=0 note=61 velocity=127 time=0.00625\n",
      "note_off channel=0 note=60 velocity=127 time=0.014583333333333334\n",
      "note_off channel=0 note=61 velocity=127 time=0.00625\n",
      "note_on channel=0 note=61 velocity=127 time=0.06458333333333333\n",
      "note_off channel=0 note=61 velocity=127 time=0.019791666666666666\n",
      "note_on channel=0 note=60 velocity=127 time=0.021875\n",
      "note_off channel=0 note=60 velocity=127 time=0.019791666666666666\n",
      "note_on channel=0 note=61 velocity=127 time=0.022916666666666665\n",
      "note_on channel=0 note=62 velocity=127 time=0.013541666666666667\n",
      "note_off channel=0 note=61 velocity=127 time=0.00625\n",
      "note_off channel=0 note=62 velocity=127 time=0.013541666666666667\n",
      "note_on channel=0 note=61 velocity=127 time=0.05\n",
      "note_on channel=0 note=60 velocity=127 time=0.004166666666666667\n",
      "note_off channel=0 note=61 velocity=127 time=0.015625\n",
      "note_off channel=0 note=60 velocity=127 time=0.004166666666666667\n",
      "note_on channel=0 note=61 velocity=127 time=0.059375\n",
      "note_off channel=0 note=61 velocity=127 time=0.019791666666666666\n",
      "note_on channel=0 note=60 velocity=127 time=0.03229166666666666\n",
      "note_off channel=0 note=60 velocity=127 time=0.019791666666666666\n",
      "note_on channel=0 note=61 velocity=127 time=0.0125\n",
      "note_off channel=0 note=61 velocity=127 time=0.019791666666666666\n",
      "note_on channel=0 note=62 velocity=127 time=0.013541666666666667\n",
      "note_off channel=0 note=62 velocity=127 time=0.019791666666666666\n",
      "note_on channel=0 note=61 velocity=127 time=0.030208333333333334\n",
      "note_on channel=0 note=60 velocity=127 time=0.014583333333333334\n",
      "note_off channel=0 note=61 velocity=127 time=0.005208333333333333\n",
      "note_off channel=0 note=60 velocity=127 time=0.014583333333333334\n",
      "note_on channel=0 note=61 velocity=127 time=0.04895833333333333\n",
      "note_off channel=0 note=61 velocity=127 time=0.019791666666666666\n",
      "note_on channel=0 note=60 velocity=127 time=0.042708333333333334\n",
      "note_off channel=0 note=60 velocity=127 time=0.019791666666666666\n",
      "note_on channel=0 note=61 velocity=127 time=0.0020833333333333333\n",
      "note_off channel=0 note=61 velocity=127 time=0.019791666666666666\n",
      "note_on channel=0 note=62 velocity=127 time=0.03333333333333333\n",
      "note_off channel=0 note=62 velocity=127 time=0.019791666666666666\n",
      "note_on channel=0 note=61 velocity=127 time=0.010416666666666666\n",
      "note_off channel=0 note=61 velocity=127 time=0.019791666666666666\n",
      "note_on channel=0 note=60 velocity=127 time=0.005208333333333333\n",
      "note_off channel=0 note=60 velocity=127 time=0.019791666666666666\n",
      "note_on channel=0 note=61 velocity=127 time=0.03854166666666667\n",
      "note_off channel=0 note=61 velocity=127 time=0.019791666666666666\n",
      "note_on channel=0 note=60 velocity=127 time=0.052083333333333336\n",
      "note_on channel=0 note=61 velocity=127 time=0.011458333333333333\n",
      "note_off channel=0 note=60 velocity=127 time=0.008333333333333333\n",
      "note_off channel=0 note=61 velocity=127 time=0.011458333333333333\n",
      "note_on channel=0 note=62 velocity=127 time=0.053125\n",
      "note_on channel=0 note=61 velocity=127 time=0.011458333333333333\n",
      "note_off channel=0 note=62 velocity=127 time=0.009375\n",
      "note_off channel=0 note=61 velocity=127 time=0.011458333333333333\n",
      "note_on channel=0 note=60 velocity=127 time=0.015625\n",
      "note_off channel=0 note=60 velocity=127 time=0.019791666666666666\n",
      "note_on channel=0 note=61 velocity=127 time=0.028125\n",
      "note_off channel=0 note=61 velocity=127 time=0.019791666666666666\n",
      "note_on channel=0 note=60 velocity=127 time=0.0625\n",
      "note_on channel=0 note=61 velocity=127 time=0.0010416666666666667\n",
      "note_off channel=0 note=60 velocity=127 time=0.01875\n",
      "note_off channel=0 note=61 velocity=127 time=0.0010416666666666667\n",
      "note_on channel=0 note=61 velocity=127 time=0.06458333333333333\n",
      "note_on channel=0 note=62 velocity=127 time=0.008333333333333333\n",
      "note_off channel=0 note=61 velocity=127 time=0.011458333333333333\n",
      "note_off channel=0 note=62 velocity=127 time=0.008333333333333333\n",
      "note_on channel=0 note=60 velocity=127 time=0.017708333333333333\n",
      "note_off channel=0 note=60 velocity=127 time=0.019791666666666666\n",
      "\u001b[91m [DEBUG] > \u001b[0m\n",
      " |>  to_array: msg.time > max_t; t, n\n",
      " |>  3.0000000000000018\n",
      " |>  150\n",
      "note_on channel=0 note=62 velocity=127 time=0.021875\n",
      "note_off channel=0 note=62 velocity=127 time=0.019791666666666666\n",
      "note_on channel=0 note=61 velocity=127 time=0.011458333333333333\n",
      "note_off channel=0 note=61 velocity=127 time=0.019791666666666666\n",
      "note_on channel=0 note=60 velocity=127 time=0.020833333333333332\n",
      "note_on channel=0 note=62 velocity=127 time=0.003125\n",
      "note_off channel=0 note=60 velocity=127 time=0.017708333333333333\n",
      "note_off channel=0 note=62 velocity=127 time=0.003125\n",
      "note_on channel=0 note=61 velocity=127 time=0.025\n",
      "note_off channel=0 note=61 velocity=127 time=0.019791666666666666\n",
      "note_on channel=0 note=62 velocity=127 time=0.009375\n",
      "note_off channel=0 note=62 velocity=127 time=0.019791666666666666\n",
      "note_on channel=0 note=61 velocity=127 time=0.03854166666666667\n",
      "note_on channel=0 note=62 velocity=127 time=0.015625\n",
      "note_off channel=0 note=61 velocity=127 time=0.004166666666666667\n",
      "note_on channel=0 note=60 velocity=127 time=0.0020833333333333333\n",
      "note_off channel=0 note=62 velocity=127 time=0.013541666666666667\n",
      "note_off channel=0 note=60 velocity=127 time=0.00625\n",
      "note_on channel=0 note=61 velocity=127 time=0.046875\n",
      "note_on channel=0 note=62 velocity=127 time=0.0020833333333333333\n",
      "note_off channel=0 note=61 velocity=127 time=0.01875\n",
      "note_off channel=0 note=62 velocity=127 time=0.0020833333333333333\n",
      "note_on channel=0 note=62 velocity=127 time=0.05416666666666667\n",
      "note_on channel=0 note=61 velocity=127 time=0.0125\n",
      "note_on channel=0 note=60 velocity=127 time=0.003125\n",
      "note_off channel=0 note=62 velocity=127 time=0.005208333333333333\n",
      "note_off channel=0 note=61 velocity=127 time=0.0125\n",
      "note_off channel=0 note=60 velocity=127 time=0.003125\n",
      "note_on channel=0 note=62 velocity=127 time=0.03958333333333333\n",
      "note_off channel=0 note=62 velocity=127 time=0.019791666666666666\n",
      "note_on channel=0 note=61 velocity=127 time=0.00625\n"
     ]
    },
    {
     "name": "stdout",
     "output_type": "stream",
     "text": [
      "note_off channel=0 note=61 velocity=127 time=0.019791666666666666\n",
      "note_on channel=0 note=62 velocity=127 time=0.028125\n",
      "note_off channel=0 note=62 velocity=127 time=0.019791666666666666\n",
      "note_on channel=0 note=60 velocity=127 time=0.004166666666666667\n",
      "note_on channel=0 note=61 velocity=127 time=0.015625\n",
      "note_off channel=0 note=60 velocity=127 time=0.004166666666666667\n",
      "note_off channel=0 note=61 velocity=127 time=0.015625\n",
      "note_on channel=0 note=62 velocity=127 time=0.014583333333333334\n",
      "note_off channel=0 note=62 velocity=127 time=0.019791666666666666\n",
      "note_on channel=0 note=61 velocity=127 time=0.034375\n",
      "note_off channel=0 note=61 velocity=127 time=0.019791666666666666\n",
      "note_on channel=0 note=62 velocity=127 time=0\n",
      "note_off channel=0 note=62 velocity=127 time=0.019791666666666666\n",
      "note_on channel=0 note=60 velocity=127 time=0.0125\n",
      "note_off channel=0 note=60 velocity=127 time=0.019791666666666666\n",
      "note_on channel=0 note=61 velocity=127 time=0.014583333333333334\n",
      "note_on channel=0 note=62 velocity=127 time=0.00625\n",
      "note_off channel=0 note=61 velocity=127 time=0.013541666666666667\n",
      "note_off channel=0 note=62 velocity=127 time=0.00625\n",
      "note_on channel=0 note=62 velocity=127 time=0.05416666666666667\n",
      "note_on channel=0 note=61 velocity=127 time=0.007291666666666667\n",
      "note_off channel=0 note=62 velocity=127 time=0.0125\n",
      "note_off channel=0 note=61 velocity=127 time=0.007291666666666667\n",
      "note_on channel=0 note=60 velocity=127 time=0.014583333333333334\n",
      "note_off channel=0 note=60 velocity=127 time=0.019791666666666666\n",
      "note_on channel=0 note=62 velocity=127 time=0.0125\n",
      "note_off channel=0 note=62 velocity=127 time=0.019791666666666666\n",
      "note_on channel=0 note=61 velocity=127 time=0.0010416666666666667\n",
      "note_off channel=0 note=61 velocity=127 time=0.019791666666666666\n",
      "note_on channel=0 note=62 velocity=127 time=0.03333333333333333\n",
      "note_off channel=0 note=62 velocity=127 time=0.019791666666666666\n",
      "note_on channel=0 note=61 velocity=127 time=0.014583333333333334\n",
      "note_on channel=0 note=60 velocity=127 time=0.015625\n",
      "note_off channel=0 note=61 velocity=127 time=0.004166666666666667\n",
      "note_off channel=0 note=60 velocity=127 time=0.015625\n",
      "note_on channel=0 note=62 velocity=127 time=0.004166666666666667\n",
      "note_off channel=0 note=62 velocity=127 time=0.019791666666666666\n",
      "note_on channel=0 note=61 velocity=127 time=0.029166666666666667\n",
      "note_off channel=0 note=61 velocity=127 time=0.019791666666666666\n",
      "note_on channel=0 note=62 velocity=127 time=0.005208333333333333\n",
      "note_off channel=0 note=62 velocity=127 time=0.019791666666666666\n",
      "note_on channel=0 note=60 velocity=127 time=0.03958333333333333\n",
      "note_on channel=0 note=61 velocity=127 time=0.003125\n",
      "note_on channel=0 note=62 velocity=127 time=0.011458333333333333\n",
      "note_off channel=0 note=60 velocity=127 time=0.005208333333333333\n",
      "note_off channel=0 note=61 velocity=127 time=0.003125\n",
      "note_off channel=0 note=62 velocity=127 time=0.011458333333333333\n",
      "note_on channel=0 note=62 velocity=127 time=0.05416666666666667\n",
      "note_on channel=0 note=61 velocity=127 time=0.0020833333333333333\n",
      "note_off channel=0 note=62 velocity=127 time=0.017708333333333333\n",
      "note_off channel=0 note=61 velocity=127 time=0.0020833333333333333\n",
      "note_on channel=0 note=60 velocity=127 time=0.04583333333333333\n",
      "note_on channel=0 note=62 velocity=127 time=0.00625\n",
      "note_off channel=0 note=60 velocity=127 time=0.013541666666666667\n",
      "note_on channel=0 note=61 velocity=127 time=0.0020833333333333333\n",
      "note_off channel=0 note=62 velocity=127 time=0.004166666666666667\n",
      "note_off channel=0 note=61 velocity=127 time=0.015625\n",
      "note_on channel=0 note=62 velocity=127 time=0.03854166666666667\n",
      "note_off channel=0 note=62 velocity=127 time=0.019791666666666666\n",
      "note_on channel=0 note=61 velocity=127 time=0.010416666666666666\n",
      "note_off channel=0 note=61 velocity=127 time=0.019791666666666666\n",
      "note_on channel=0 note=62 velocity=127 time=0.02395833333333333\n",
      "note_on channel=0 note=60 velocity=127 time=0.003125\n",
      "note_off channel=0 note=62 velocity=127 time=0.017708333333333333\n",
      "note_off channel=0 note=60 velocity=127 time=0.003125\n",
      "note_on channel=0 note=61 velocity=127 time=0.020833333333333332\n",
      "note_off channel=0 note=61 velocity=127 time=0.019791666666666666\n",
      "note_on channel=0 note=62 velocity=127 time=0.010416666666666666\n",
      "note_off channel=0 note=62 velocity=127 time=0.019791666666666666\n",
      "note_on channel=0 note=61 velocity=127 time=0.0375\n",
      "note_on channel=0 note=62 velocity=127 time=0.016666666666666666\n",
      "note_off channel=0 note=61 velocity=127 time=0.003125\n",
      "note_on channel=0 note=60 velocity=127 time=0.008333333333333333\n",
      "note_off channel=0 note=62 velocity=127 time=0.008333333333333333\n",
      "note_off channel=0 note=60 velocity=127 time=0.011458333333333333\n",
      "note_on channel=0 note=61 velocity=127 time=0.03958333333333333\n",
      "note_on channel=0 note=62 velocity=127 time=0.003125\n",
      "note_off channel=0 note=61 velocity=127 time=0.016666666666666666\n",
      "note_off channel=0 note=62 velocity=127 time=0.003125\n",
      "note_on channel=0 note=62 velocity=127 time=0.05416666666666667\n",
      "note_on channel=0 note=61 velocity=127 time=0.011458333333333333\n",
      "note_off channel=0 note=62 velocity=127 time=0.009375\n",
      "note_on channel=0 note=60 velocity=127 time=0.0010416666666666667\n",
      "note_off channel=0 note=61 velocity=127 time=0.010416666666666666\n",
      "note_off channel=0 note=60 velocity=127 time=0.009375\n",
      "note_on channel=0 note=62 velocity=127 time=0.034375\n",
      "note_off channel=0 note=62 velocity=127 time=0.019791666666666666\n",
      "note_on channel=0 note=61 velocity=127 time=0.005208333333333333\n",
      "note_off channel=0 note=61 velocity=127 time=0.019791666666666666\n",
      "note_on channel=0 note=62 velocity=127 time=0.029166666666666667\n",
      "note_off channel=0 note=62 velocity=127 time=0.019791666666666666\n",
      "note_on channel=0 note=60 velocity=127 time=0.009375\n",
      "note_on channel=0 note=61 velocity=127 time=0.009375\n",
      "note_off channel=0 note=60 velocity=127 time=0.010416666666666666\n",
      "note_off channel=0 note=61 velocity=127 time=0.009375\n",
      "note_on channel=0 note=62 velocity=127 time=0.015625\n",
      "note_off channel=0 note=62 velocity=127 time=0.019791666666666666\n",
      "note_on channel=0 note=61 velocity=127 time=0.03229166666666666\n",
      "note_off channel=0 note=61 velocity=127 time=0.019791666666666666\n",
      "note_on channel=0 note=62 velocity=127 time=0.0020833333333333333\n",
      "note_off channel=0 note=62 velocity=127 time=0.019791666666666666\n",
      "note_on channel=0 note=60 velocity=127 time=0.01875\n",
      "note_off channel=0 note=60 velocity=127 time=0.019791666666666666\n",
      "note_on channel=0 note=61 velocity=127 time=0.008333333333333333\n",
      "note_on channel=0 note=62 velocity=127 time=0.008333333333333333\n",
      "note_off channel=0 note=61 velocity=127 time=0.0125\n",
      "note_off channel=0 note=62 velocity=127 time=0.008333333333333333\n",
      "note_on channel=0 note=62 velocity=127 time=0.05416666666666667\n",
      "note_on channel=0 note=61 velocity=127 time=0.00625\n",
      "note_off channel=0 note=62 velocity=127 time=0.013541666666666667\n",
      "note_off channel=0 note=61 velocity=127 time=0.00625\n",
      "note_on channel=0 note=60 velocity=127 time=0.020833333333333332\n",
      "note_off channel=0 note=60 velocity=127 time=0.019791666666666666\n",
      "note_on channel=0 note=62 velocity=127 time=0.007291666666666667\n",
      "note_on channel=0 note=61 velocity=127 time=0.019791666666666666\n",
      "note_off channel=0 note=62 velocity=127 time=0\n",
      "note_off channel=0 note=61 velocity=127 time=0.019791666666666666\n",
      "note_on channel=0 note=62 velocity=127 time=0.034375\n",
      "note_off channel=0 note=62 velocity=127 time=0.019791666666666666\n",
      "note_on channel=0 note=61 velocity=127 time=0.013541666666666667\n",
      "note_off channel=0 note=61 velocity=127 time=0.019791666666666666\n",
      "note_on channel=0 note=60 velocity=127 time=0.0020833333333333333\n",
      "note_on channel=0 note=62 velocity=127 time=0.01875\n",
      "note_off channel=0 note=60 velocity=127 time=0.0020833333333333333\n",
      "note_off channel=0 note=62 velocity=127 time=0.01875\n",
      "note_on channel=0 note=61 velocity=127 time=0.028125\n",
      "note_off channel=0 note=61 velocity=127 time=0.019791666666666666\n",
      "note_on channel=0 note=62 velocity=127 time=0.007291666666666667\n",
      "note_off channel=0 note=62 velocity=127 time=0.019791666666666666\n",
      "note_on channel=0 note=61 velocity=127 time=0.041666666666666664\n",
      "note_on channel=0 note=60 velocity=127 time=0.003125\n",
      "note_on channel=0 note=62 velocity=127 time=0.009375\n",
      "note_off channel=0 note=61 velocity=127 time=0.007291666666666667\n",
      "note_off channel=0 note=60 velocity=127 time=0.003125\n",
      "note_off channel=0 note=62 velocity=127 time=0.009375\n",
      "note_on channel=0 note=62 velocity=127 time=0.05416666666666667\n",
      "note_on channel=0 note=61 velocity=127 time=0.0010416666666666667\n",
      "note_off channel=0 note=62 velocity=127 time=0.01875\n",
      "note_off channel=0 note=61 velocity=127 time=0.0010416666666666667\n",
      "note_on channel=0 note=60 velocity=127 time=0.053125\n",
      "note_on channel=0 note=62 velocity=127 time=0.0010416666666666667\n",
      "note_on channel=0 note=61 velocity=127 time=0.014583333333333334\n",
      "note_off channel=0 note=60 velocity=127 time=0.004166666666666667\n",
      "note_off channel=0 note=62 velocity=127 time=0.0010416666666666667\n",
      "note_off channel=0 note=61 velocity=127 time=0.014583333333333334\n",
      "note_on channel=0 note=62 velocity=127 time=0.03958333333333333\n",
      "note_off channel=0 note=62 velocity=127 time=0.019791666666666666\n",
      "note_on channel=0 note=61 velocity=127 time=0.008333333333333333\n",
      "note_off channel=0 note=61 velocity=127 time=0.019791666666666666\n",
      "note_on channel=0 note=62 velocity=127 time=0.026041666666666668\n",
      "note_on channel=0 note=60 velocity=127 time=0.008333333333333333\n",
      "note_off channel=0 note=62 velocity=127 time=0.011458333333333333\n",
      "note_off channel=0 note=60 velocity=127 time=0.008333333333333333\n",
      "note_on channel=0 note=61 velocity=127 time=0.014583333333333334\n",
      "note_off channel=0 note=61 velocity=127 time=0.019791666666666666\n",
      "note_on channel=0 note=62 velocity=127 time=0.011458333333333333\n",
      "\u001b[91m [DEBUG] > \u001b[0m\n",
      " |>  to_array: msg.time > max_t; t, n\n",
      " |>  2.993750000000001\n",
      " |>  150\n",
      "note_on channel=0 note=60 velocity=127 time=0.004166666666666667\n",
      "note_off channel=0 note=60 velocity=127 time=0.019791666666666666\n",
      "note_on channel=0 note=60 velocity=127 time=0.053125\n",
      "note_off channel=0 note=60 velocity=127 time=0.019791666666666666\n",
      "note_on channel=0 note=61 velocity=127 time=0.008333333333333333\n",
      "note_off channel=0 note=61 velocity=127 time=0.019791666666666666\n",
      "note_on channel=0 note=60 velocity=127 time=0.025\n",
      "note_off channel=0 note=60 velocity=127 time=0.019791666666666666\n",
      "note_on channel=0 note=61 velocity=127 time=0.04583333333333333\n",
      "note_on channel=0 note=60 velocity=127 time=0.007291666666666667\n",
      "note_off channel=0 note=61 velocity=127 time=0.0125\n",
      "note_off channel=0 note=60 velocity=127 time=0.007291666666666667\n",
      "note_on channel=0 note=62 velocity=127 time=0.0125\n",
      "note_off channel=0 note=62 velocity=127 time=0.019791666666666666\n",
      "note_on channel=0 note=60 velocity=127 time=0.019791666666666666\n",
      "note_off channel=0 note=60 velocity=127 time=0.019791666666666666\n",
      "note_on channel=0 note=61 velocity=127 time=0.010416666666666666\n",
      "note_off channel=0 note=61 velocity=127 time=0.019791666666666666\n",
      "note_on channel=0 note=60 velocity=127 time=0.022916666666666665\n",
      "note_off channel=0 note=60 velocity=127 time=0.019791666666666666\n",
      "note_on channel=0 note=61 velocity=127 time=0.04791666666666666\n",
      "note_on channel=0 note=60 velocity=127 time=0.005208333333333333\n",
      "note_off channel=0 note=61 velocity=127 time=0.014583333333333334\n",
      "note_off channel=0 note=60 velocity=127 time=0.005208333333333333\n",
      "note_on channel=0 note=60 velocity=127 time=0.053125\n",
      "note_on channel=0 note=62 velocity=127 time=0.007291666666666667\n",
      "note_off channel=0 note=60 velocity=127 time=0.013541666666666667\n",
      "note_off channel=0 note=62 velocity=127 time=0.007291666666666667\n",
      "note_on channel=0 note=61 velocity=127 time=0.005208333333333333\n",
      "note_off channel=0 note=61 velocity=127 time=0.019791666666666666\n",
      "note_on channel=0 note=60 velocity=127 time=0.020833333333333332\n",
      "note_off channel=0 note=60 velocity=127 time=0.019791666666666666\n",
      "note_on channel=0 note=61 velocity=127 time=0.05\n",
      "note_on channel=0 note=60 velocity=127 time=0.003125\n",
      "note_off channel=0 note=61 velocity=127 time=0.017708333333333333\n",
      "note_off channel=0 note=60 velocity=127 time=0.003125\n",
      "note_on channel=0 note=60 velocity=127 time=0.053125\n",
      "note_off channel=0 note=60 velocity=127 time=0.019791666666666666\n",
      "note_on channel=0 note=61 velocity=127 time=0.014583333333333334\n",
      "note_on channel=0 note=62 velocity=127 time=0.01875\n",
      "note_off channel=0 note=61 velocity=127 time=0.0010416666666666667\n",
      "note_on channel=0 note=60 velocity=127 time=0.017708333333333333\n",
      "note_off channel=0 note=62 velocity=127 time=0.0010416666666666667\n",
      "note_off channel=0 note=60 velocity=127 time=0.01875\n",
      "note_on channel=0 note=61 velocity=127 time=0.052083333333333336\n",
      "note_on channel=0 note=60 velocity=127 time=0\n",
      "note_off channel=0 note=61 velocity=127 time=0.019791666666666666\n",
      "note_off channel=0 note=60 velocity=127 time=0\n",
      "note_on channel=0 note=60 velocity=127 time=0.053125\n",
      "note_off channel=0 note=60 velocity=127 time=0.019791666666666666\n",
      "note_on channel=0 note=61 velocity=127 time=0.017708333333333333\n",
      "note_off channel=0 note=61 velocity=127 time=0.019791666666666666\n",
      "note_on channel=0 note=60 velocity=127 time=0.015625\n",
      "note_off channel=0 note=60 velocity=127 time=0.019791666666666666\n",
      "note_on channel=0 note=62 velocity=127 time=0.007291666666666667\n",
      "note_off channel=0 note=62 velocity=127 time=0.019791666666666666\n",
      "note_on channel=0 note=60 velocity=127 time=0.025\n",
      "note_on channel=0 note=61 velocity=127 time=0.0020833333333333333\n",
      "note_off channel=0 note=60 velocity=127 time=0.017708333333333333\n",
      "note_off channel=0 note=61 velocity=127 time=0.0020833333333333333\n",
      "note_on channel=0 note=60 velocity=127 time=0.051041666666666666\n",
      "note_off channel=0 note=60 velocity=127 time=0.019791666666666666\n",
      "note_on channel=0 note=61 velocity=127 time=0.019791666666666666\n",
      "note_off channel=0 note=61 velocity=127 time=0.019791666666666666\n",
      "note_on channel=0 note=60 velocity=127 time=0.013541666666666667\n",
      "note_off channel=0 note=60 velocity=127 time=0.019791666666666666\n",
      "note_on channel=0 note=60 velocity=127 time=0.053125\n",
      "note_on channel=0 note=62 velocity=127 time=0.0020833333333333333\n",
      "note_on channel=0 note=61 velocity=127 time=0.003125\n",
      "note_off channel=0 note=60 velocity=127 time=0.015625\n",
      "note_off channel=0 note=62 velocity=127 time=0.0020833333333333333\n",
      "note_off channel=0 note=61 velocity=127 time=0.003125\n",
      "note_on channel=0 note=60 velocity=127 time=0.04895833333333333\n",
      "note_off channel=0 note=60 velocity=127 time=0.019791666666666666\n",
      "note_on channel=0 note=61 velocity=127 time=0.021875\n",
      "note_off channel=0 note=61 velocity=127 time=0.019791666666666666\n",
      "note_on channel=0 note=60 velocity=127 time=0.010416666666666666\n",
      "note_off channel=0 note=60 velocity=127 time=0.019791666666666666\n",
      "note_on channel=0 note=60 velocity=127 time=0.053125\n",
      "note_on channel=0 note=61 velocity=127 time=0.007291666666666667\n",
      "note_off channel=0 note=60 velocity=127 time=0.013541666666666667\n",
      "note_off channel=0 note=61 velocity=127 time=0.007291666666666667\n",
      "note_on channel=0 note=62 velocity=127 time=0.021875\n",
      "note_off channel=0 note=62 velocity=127 time=0.019791666666666666\n",
      "note_on channel=0 note=60 velocity=127 time=0.004166666666666667\n",
      "note_off channel=0 note=60 velocity=127 time=0.019791666666666666\n",
      "note_on channel=0 note=61 velocity=127 time=0.02395833333333333\n",
      "note_off channel=0 note=61 velocity=127 time=0.019791666666666666\n",
      "note_on channel=0 note=60 velocity=127 time=0.008333333333333333\n",
      "note_off channel=0 note=60 velocity=127 time=0.019791666666666666\n",
      "note_on channel=0 note=60 velocity=127 time=0.053125\n",
      "note_on channel=0 note=61 velocity=127 time=0.009375\n",
      "note_off channel=0 note=60 velocity=127 time=0.010416666666666666\n",
      "note_off channel=0 note=61 velocity=127 time=0.009375\n",
      "note_on channel=0 note=60 velocity=127 time=0.04375\n",
      "note_off channel=0 note=60 velocity=127 time=0.019791666666666666\n",
      "note_on channel=0 note=62 velocity=127 time=0.0020833333333333333\n",
      "note_off channel=0 note=62 velocity=127 time=0.019791666666666666\n",
      "note_on channel=0 note=61 velocity=127 time=0.004166666666666667\n",
      "note_off channel=0 note=61 velocity=127 time=0.019791666666666666\n",
      "note_on channel=0 note=60 velocity=127 time=0.00625\n",
      "note_off channel=0 note=60 velocity=127 time=0.019791666666666666\n",
      "note_on channel=0 note=60 velocity=127 time=0.053125\n",
      "note_on channel=0 note=61 velocity=127 time=0.011458333333333333\n",
      "note_off channel=0 note=60 velocity=127 time=0.008333333333333333\n",
      "note_off channel=0 note=61 velocity=127 time=0.011458333333333333\n",
      "note_on channel=0 note=60 velocity=127 time=0.041666666666666664\n",
      "note_off channel=0 note=60 velocity=127 time=0.019791666666666666\n",
      "note_on channel=0 note=61 velocity=127 time=0.029166666666666667\n",
      "note_off channel=0 note=61 velocity=127 time=0.019791666666666666\n",
      "note_on channel=0 note=62 velocity=127 time=0\n",
      "note_on channel=0 note=60 velocity=127 time=0.003125\n",
      "note_off channel=0 note=62 velocity=127 time=0.016666666666666666\n",
      "note_off channel=0 note=60 velocity=127 time=0.003125\n",
      "note_on channel=0 note=60 velocity=127 time=0.053125\n",
      "note_on channel=0 note=61 velocity=127 time=0.013541666666666667\n",
      "note_off channel=0 note=60 velocity=127 time=0.00625\n",
      "note_off channel=0 note=61 velocity=127 time=0.013541666666666667\n",
      "note_on channel=0 note=60 velocity=127 time=0.03854166666666667\n",
      "note_off channel=0 note=60 velocity=127 time=0.019791666666666666\n",
      "note_on channel=0 note=61 velocity=127 time=0.03125\n",
      "note_off channel=0 note=61 velocity=127 time=0.019791666666666666\n",
      "note_on channel=0 note=60 velocity=127 time=0.0010416666666666667\n",
      "note_off channel=0 note=60 velocity=127 time=0.019791666666666666\n",
      "note_on channel=0 note=62 velocity=127 time=0.022916666666666665\n",
      "note_off channel=0 note=62 velocity=127 time=0.019791666666666666\n",
      "note_on channel=0 note=60 velocity=127 time=0.009375\n",
      "note_on channel=0 note=61 velocity=127 time=0.016666666666666666\n",
      "note_off channel=0 note=60 velocity=127 time=0.004166666666666667\n",
      "note_off channel=0 note=61 velocity=127 time=0.016666666666666666\n",
      "note_on channel=0 note=60 velocity=127 time=0.036458333333333336\n",
      "note_off channel=0 note=60 velocity=127 time=0.019791666666666666\n",
      "note_on channel=0 note=61 velocity=127 time=0.034375\n",
      "note_on channel=0 note=60 velocity=127 time=0.01875\n",
      "note_off channel=0 note=61 velocity=127 time=0.0010416666666666667\n",
      "note_off channel=0 note=60 velocity=127 time=0.01875\n",
      "note_on channel=0 note=60 velocity=127 time=0.053125\n",
      "note_on channel=0 note=62 velocity=127 time=0.017708333333333333\n",
      "note_on channel=0 note=61 velocity=127 time=0.0010416666666666667\n",
      "note_off channel=0 note=60 velocity=127 time=0.0010416666666666667\n",
      "note_off channel=0 note=62 velocity=127 time=0.017708333333333333\n",
      "note_off channel=0 note=61 velocity=127 time=0.0010416666666666667\n",
      "note_on channel=0 note=60 velocity=127 time=0.034375\n",
      "note_off channel=0 note=60 velocity=127 time=0.019791666666666666\n",
      "note_on channel=0 note=61 velocity=127 time=0.036458333333333336\n",
      "note_on channel=0 note=60 velocity=127 time=0.016666666666666666\n",
      "note_off channel=0 note=61 velocity=127 time=0.003125\n",
      "note_off channel=0 note=60 velocity=127 time=0.016666666666666666\n",
      "note_on channel=0 note=60 velocity=127 time=0.053125\n",
      "note_off channel=0 note=60 velocity=127 time=0.019791666666666666\n",
      "note_on channel=0 note=61 velocity=127 time=0.0010416666666666667\n",
      "note_off channel=0 note=61 velocity=127 time=0.019791666666666666\n",
      "note_on channel=0 note=62 velocity=127 time=0.022916666666666665\n",
      "note_on channel=0 note=60 velocity=127 time=0.008333333333333333\n",
      "note_off channel=0 note=62 velocity=127 time=0.011458333333333333\n",
      "note_off channel=0 note=60 velocity=127 time=0.008333333333333333\n",
      "note_on channel=0 note=61 velocity=127 time=0.03854166666666667\n",
      "note_on channel=0 note=60 velocity=127 time=0.014583333333333334\n",
      "note_off channel=0 note=61 velocity=127 time=0.005208333333333333\n",
      "\u001b[91m [DEBUG] > \u001b[0m\n",
      " |>  to_array: msg.time > max_t; t, n\n",
      " |>  2.992708333333335\n",
      " |>  150\n",
      "note_on channel=0 note=60 velocity=127 time=0.029166666666666667\n",
      "note_off channel=0 note=60 velocity=127 time=0.019791666666666666\n",
      "note_on channel=0 note=61 velocity=127 time=0.0125\n",
      "note_off channel=0 note=61 velocity=127 time=0.019791666666666666\n",
      "note_on channel=0 note=60 velocity=127 time=0.015625\n",
      "note_off channel=0 note=60 velocity=127 time=0.019791666666666666\n",
      "note_on channel=0 note=61 velocity=127 time=0.013541666666666667\n",
      "note_on channel=0 note=62 velocity=127 time=0.00625\n",
      "note_off channel=0 note=61 velocity=127 time=0.013541666666666667\n",
      "note_off channel=0 note=62 velocity=127 time=0.00625\n",
      "note_on channel=0 note=60 velocity=127 time=0.008333333333333333\n",
      "note_off channel=0 note=60 velocity=127 time=0.019791666666666666\n",
      "note_on channel=0 note=61 velocity=127 time=0.013541666666666667\n",
      "note_off channel=0 note=61 velocity=127 time=0.019791666666666666\n",
      "note_on channel=0 note=60 velocity=127 time=0.014583333333333334\n",
      "note_off channel=0 note=60 velocity=127 time=0.019791666666666666\n",
      "note_on channel=0 note=61 velocity=127 time=0.013541666666666667\n",
      "note_off channel=0 note=61 velocity=127 time=0.019791666666666666\n",
      "note_on channel=0 note=62 velocity=127 time=0.0010416666666666667\n",
      "note_on channel=0 note=60 velocity=127 time=0.013541666666666667\n",
      "note_off channel=0 note=62 velocity=127 time=0.00625\n",
      "note_off channel=0 note=60 velocity=127 time=0.013541666666666667\n",
      "note_on channel=0 note=61 velocity=127 time=0.013541666666666667\n",
      "note_off channel=0 note=61 velocity=127 time=0.019791666666666666\n",
      "note_on channel=0 note=60 velocity=127 time=0.014583333333333334\n",
      "note_off channel=0 note=60 velocity=127 time=0.019791666666666666\n",
      "note_on channel=0 note=61 velocity=127 time=0.014583333333333334\n",
      "note_off channel=0 note=61 velocity=127 time=0.019791666666666666\n",
      "note_on channel=0 note=60 velocity=127 time=0.014583333333333334\n",
      "note_on channel=0 note=62 velocity=127 time=0.0010416666666666667\n",
      "note_off channel=0 note=60 velocity=127 time=0.01875\n",
      "note_off channel=0 note=62 velocity=127 time=0.0010416666666666667\n",
      "note_on channel=0 note=61 velocity=127 time=0.0125\n",
      "note_off channel=0 note=61 velocity=127 time=0.019791666666666666\n",
      "note_on channel=0 note=60 velocity=127 time=0.013541666666666667\n",
      "note_off channel=0 note=60 velocity=127 time=0.019791666666666666\n",
      "note_on channel=0 note=61 velocity=127 time=0.014583333333333334\n",
      "note_off channel=0 note=61 velocity=127 time=0.019791666666666666\n",
      "note_on channel=0 note=60 velocity=127 time=0.013541666666666667\n",
      "note_on channel=0 note=62 velocity=127 time=0.016666666666666666\n",
      "note_off channel=0 note=60 velocity=127 time=0.003125\n",
      "note_on channel=0 note=61 velocity=127 time=0.014583333333333334\n",
      "note_off channel=0 note=62 velocity=127 time=0.0020833333333333333\n",
      "note_off channel=0 note=61 velocity=127 time=0.01875\n",
      "note_on channel=0 note=60 velocity=127 time=0.013541666666666667\n",
      "note_off channel=0 note=60 velocity=127 time=0.019791666666666666\n",
      "note_on channel=0 note=61 velocity=127 time=0.015625\n",
      "note_off channel=0 note=61 velocity=127 time=0.019791666666666666\n",
      "note_on channel=0 note=60 velocity=127 time=0.013541666666666667\n",
      "note_off channel=0 note=60 velocity=127 time=0.019791666666666666\n",
      "note_on channel=0 note=62 velocity=127 time=0.011458333333333333\n",
      "note_on channel=0 note=61 velocity=127 time=0.004166666666666667\n",
      "note_off channel=0 note=62 velocity=127 time=0.015625\n",
      "note_off channel=0 note=61 velocity=127 time=0.004166666666666667\n",
      "note_on channel=0 note=60 velocity=127 time=0.0125\n",
      "note_off channel=0 note=60 velocity=127 time=0.019791666666666666\n",
      "note_on channel=0 note=61 velocity=127 time=0.015625\n",
      "note_off channel=0 note=61 velocity=127 time=0.019791666666666666\n",
      "note_on channel=0 note=60 velocity=127 time=0.0125\n",
      "note_off channel=0 note=60 velocity=127 time=0.019791666666666666\n",
      "note_on channel=0 note=61 velocity=127 time=0.015625\n",
      "note_on channel=0 note=62 velocity=127 time=0.010416666666666666\n",
      "note_off channel=0 note=61 velocity=127 time=0.009375\n",
      "note_off channel=0 note=62 velocity=127 time=0.010416666666666666\n",
      "note_on channel=0 note=60 velocity=127 time=0.0020833333333333333\n",
      "note_off channel=0 note=60 velocity=127 time=0.019791666666666666\n",
      "note_on channel=0 note=61 velocity=127 time=0.016666666666666666\n",
      "note_off channel=0 note=61 velocity=127 time=0.019791666666666666\n",
      "note_on channel=0 note=60 velocity=127 time=0.0125\n",
      "note_off channel=0 note=60 velocity=127 time=0.019791666666666666\n",
      "note_on channel=0 note=61 velocity=127 time=0.016666666666666666\n",
      "note_off channel=0 note=61 velocity=127 time=0.019791666666666666\n",
      "note_on channel=0 note=62 velocity=127 time=0.005208333333333333\n",
      "note_on channel=0 note=60 velocity=127 time=0.00625\n",
      "note_off channel=0 note=62 velocity=127 time=0.013541666666666667\n",
      "note_off channel=0 note=60 velocity=127 time=0.00625\n",
      "note_on channel=0 note=61 velocity=127 time=0.016666666666666666\n",
      "note_off channel=0 note=61 velocity=127 time=0.019791666666666666\n",
      "note_on channel=0 note=60 velocity=127 time=0.011458333333333333\n",
      "note_off channel=0 note=60 velocity=127 time=0.019791666666666666\n",
      "note_on channel=0 note=61 velocity=127 time=0.016666666666666666\n",
      "note_off channel=0 note=61 velocity=127 time=0.019791666666666666\n",
      "note_on channel=0 note=60 velocity=127 time=0.011458333333333333\n",
      "note_on channel=0 note=62 velocity=127 time=0.008333333333333333\n",
      "note_off channel=0 note=60 velocity=127 time=0.011458333333333333\n",
      "note_off channel=0 note=62 velocity=127 time=0.008333333333333333\n",
      "note_on channel=0 note=61 velocity=127 time=0.009375\n",
      "note_off channel=0 note=61 velocity=127 time=0.019791666666666666\n",
      "note_on channel=0 note=60 velocity=127 time=0.011458333333333333\n",
      "note_off channel=0 note=60 velocity=127 time=0.019791666666666666\n",
      "note_on channel=0 note=61 velocity=127 time=0.017708333333333333\n",
      "note_off channel=0 note=61 velocity=127 time=0.019791666666666666\n",
      "note_on channel=0 note=60 velocity=127 time=0.010416666666666666\n",
      "note_off channel=0 note=60 velocity=127 time=0.019791666666666666\n",
      "note_on channel=0 note=62 velocity=127 time=0.003125\n",
      "note_on channel=0 note=61 velocity=127 time=0.014583333333333334\n",
      "note_off channel=0 note=62 velocity=127 time=0.005208333333333333\n",
      "note_off channel=0 note=61 velocity=127 time=0.014583333333333334\n",
      "note_on channel=0 note=60 velocity=127 time=0.010416666666666666\n",
      "note_off channel=0 note=60 velocity=127 time=0.019791666666666666\n",
      "note_on channel=0 note=61 velocity=127 time=0.017708333333333333\n",
      "note_off channel=0 note=61 velocity=127 time=0.019791666666666666\n",
      "note_on channel=0 note=60 velocity=127 time=0.010416666666666666\n",
      "note_off channel=0 note=60 velocity=127 time=0.019791666666666666\n",
      "note_on channel=0 note=61 velocity=127 time=0.01875\n",
      "note_on channel=0 note=62 velocity=127 time=0\n",
      "note_off channel=0 note=61 velocity=127 time=0.019791666666666666\n",
      "note_off channel=0 note=62 velocity=127 time=0\n",
      "note_on channel=0 note=60 velocity=127 time=0.009375\n",
      "note_off channel=0 note=60 velocity=127 time=0.019791666666666666\n",
      "note_on channel=0 note=61 velocity=127 time=0.01875\n",
      "note_off channel=0 note=61 velocity=127 time=0.019791666666666666\n",
      "note_on channel=0 note=60 velocity=127 time=0.009375\n",
      "note_off channel=0 note=60 velocity=127 time=0.019791666666666666\n",
      "note_on channel=0 note=61 velocity=127 time=0.01875\n",
      "note_on channel=0 note=62 velocity=127 time=0.014583333333333334\n",
      "note_off channel=0 note=61 velocity=127 time=0.005208333333333333\n",
      "note_on channel=0 note=60 velocity=127 time=0.009375\n",
      "note_off channel=0 note=62 velocity=127 time=0.005208333333333333\n",
      "note_off channel=0 note=60 velocity=127 time=0.014583333333333334\n",
      "note_on channel=0 note=61 velocity=127 time=0.01875\n",
      "note_off channel=0 note=61 velocity=127 time=0.019791666666666666\n",
      "note_on channel=0 note=60 velocity=127 time=0.009375\n",
      "note_off channel=0 note=60 velocity=127 time=0.019791666666666666\n",
      "note_on channel=0 note=61 velocity=127 time=0.019791666666666666\n",
      "note_off channel=0 note=61 velocity=127 time=0.019791666666666666\n",
      "note_on channel=0 note=60 velocity=127 time=0.009375\n",
      "note_on channel=0 note=62 velocity=127 time=0\n",
      "note_off channel=0 note=60 velocity=127 time=0.019791666666666666\n",
      "note_off channel=0 note=62 velocity=127 time=0\n",
      "note_on channel=0 note=61 velocity=127 time=0.019791666666666666\n",
      "note_off channel=0 note=61 velocity=127 time=0.019791666666666666\n",
      "note_on channel=0 note=60 velocity=127 time=0.008333333333333333\n",
      "note_off channel=0 note=60 velocity=127 time=0.019791666666666666\n",
      "note_on channel=0 note=61 velocity=127 time=0.019791666666666666\n",
      "note_off channel=0 note=61 velocity=127 time=0.019791666666666666\n",
      "note_on channel=0 note=60 velocity=127 time=0.008333333333333333\n",
      "note_on channel=0 note=62 velocity=127 time=0.015625\n",
      "note_off channel=0 note=60 velocity=127 time=0.004166666666666667\n",
      "note_off channel=0 note=62 velocity=127 time=0.015625\n",
      "note_on channel=0 note=61 velocity=127 time=0.005208333333333333\n",
      "note_off channel=0 note=61 velocity=127 time=0.019791666666666666\n",
      "note_on channel=0 note=60 velocity=127 time=0.008333333333333333\n",
      "note_off channel=0 note=60 velocity=127 time=0.019791666666666666\n",
      "note_on channel=0 note=61 velocity=127 time=0.020833333333333332\n",
      "note_off channel=0 note=61 velocity=127 time=0.019791666666666666\n",
      "note_on channel=0 note=60 velocity=127 time=0.008333333333333333\n",
      "note_off channel=0 note=60 velocity=127 time=0.019791666666666666\n",
      "note_on channel=0 note=62 velocity=127 time=0.010416666666666666\n",
      "note_on channel=0 note=61 velocity=127 time=0.010416666666666666\n",
      "note_off channel=0 note=62 velocity=127 time=0.009375\n",
      "note_off channel=0 note=61 velocity=127 time=0.010416666666666666\n",
      "note_on channel=0 note=60 velocity=127 time=0.007291666666666667\n",
      "note_off channel=0 note=60 velocity=127 time=0.019791666666666666\n",
      "note_on channel=0 note=61 velocity=127 time=0.020833333333333332\n",
      "note_off channel=0 note=61 velocity=127 time=0.019791666666666666\n",
      "note_on channel=0 note=60 velocity=127 time=0.007291666666666667\n",
      "note_off channel=0 note=60 velocity=127 time=0.019791666666666666\n",
      "note_on channel=0 note=61 velocity=127 time=0.021875\n",
      "note_on channel=0 note=62 velocity=127 time=0.004166666666666667\n",
      "note_off channel=0 note=61 velocity=127 time=0.015625\n",
      "note_off channel=0 note=62 velocity=127 time=0.004166666666666667\n",
      "note_on channel=0 note=60 velocity=127 time=0.003125\n",
      "note_off channel=0 note=60 velocity=127 time=0.019791666666666666\n",
      "note_on channel=0 note=61 velocity=127 time=0.021875\n",
      "note_off channel=0 note=61 velocity=127 time=0.019791666666666666\n",
      "note_on channel=0 note=60 velocity=127 time=0.007291666666666667\n",
      "note_off channel=0 note=60 velocity=127 time=0.019791666666666666\n",
      "note_on channel=0 note=61 velocity=127 time=0.021875\n",
      "note_on channel=0 note=62 velocity=127 time=0.01875\n",
      "note_off channel=0 note=61 velocity=127 time=0.0010416666666666667\n",
      "note_on channel=0 note=60 velocity=127 time=0.00625\n",
      "note_off channel=0 note=62 velocity=127 time=0.0125\n",
      "note_off channel=0 note=60 velocity=127 time=0.008333333333333333\n",
      "note_on channel=0 note=61 velocity=127 time=0.021875\n",
      "note_off channel=0 note=61 velocity=127 time=0.019791666666666666\n",
      "note_on channel=0 note=60 velocity=127 time=0.00625\n",
      "note_off channel=0 note=60 velocity=127 time=0.019791666666666666\n",
      "note_on channel=0 note=61 velocity=127 time=0.022916666666666665\n",
      "note_off channel=0 note=61 velocity=127 time=0.019791666666666666\n",
      "note_on channel=0 note=60 velocity=127 time=0.00625\n",
      "note_on channel=0 note=62 velocity=127 time=0.007291666666666667\n",
      "note_off channel=0 note=60 velocity=127 time=0.0125\n",
      "note_off channel=0 note=62 velocity=127 time=0.007291666666666667\n",
      "note_on channel=0 note=61 velocity=127 time=0.015625\n",
      "note_off channel=0 note=61 velocity=127 time=0.019791666666666666\n",
      "note_on channel=0 note=60 velocity=127 time=0.005208333333333333\n",
      "note_off channel=0 note=60 velocity=127 time=0.019791666666666666\n",
      "note_on channel=0 note=61 velocity=127 time=0.022916666666666665\n",
      "note_off channel=0 note=61 velocity=127 time=0.019791666666666666\n",
      "note_on channel=0 note=60 velocity=127 time=0.005208333333333333\n",
      "note_off channel=0 note=60 velocity=127 time=0.019791666666666666\n",
      "note_on channel=0 note=62 velocity=127 time=0.0020833333333333333\n",
      "note_off channel=0 note=62 velocity=127 time=0.019791666666666666\n",
      "note_on channel=0 note=61 velocity=127 time=0.0010416666666666667\n",
      "note_off channel=0 note=61 velocity=127 time=0.019791666666666666\n",
      "note_on channel=0 note=60 velocity=127 time=0.005208333333333333\n",
      "note_off channel=0 note=60 velocity=127 time=0.019791666666666666\n",
      "note_on channel=0 note=61 velocity=127 time=0.02395833333333333\n",
      "note_off channel=0 note=61 velocity=127 time=0.019791666666666666\n",
      "note_on channel=0 note=60 velocity=127 time=0.005208333333333333\n",
      "note_off channel=0 note=60 velocity=127 time=0.019791666666666666\n",
      "note_on channel=0 note=62 velocity=127 time=0.017708333333333333\n",
      "note_on channel=0 note=61 velocity=127 time=0.00625\n",
      "note_off channel=0 note=62 velocity=127 time=0.013541666666666667\n",
      "note_off channel=0 note=61 velocity=127 time=0.00625\n",
      "note_on channel=0 note=60 velocity=127 time=0.004166666666666667\n",
      "note_off channel=0 note=60 velocity=127 time=0.019791666666666666\n",
      "note_on channel=0 note=61 velocity=127 time=0.02395833333333333\n",
      "note_off channel=0 note=61 velocity=127 time=0.019791666666666666\n",
      "note_on channel=0 note=60 velocity=127 time=0.004166666666666667\n",
      "note_off channel=0 note=60 velocity=127 time=0.019791666666666666\n",
      "note_on channel=0 note=61 velocity=127 time=0.02395833333333333\n",
      "\u001b[91m [DEBUG] > \u001b[0m\n",
      " |>  to_array: msg.time > max_t; t, n\n",
      " |>  2.996875000000006\n",
      " |>  150\n"
     ]
    },
    {
     "name": "stdout",
     "output_type": "stream",
     "text": [
      "note_on channel=0 note=60 velocity=127 time=0.0020833333333333333\n",
      "note_off channel=0 note=60 velocity=127 time=0.019791666666666666\n",
      "note_on channel=0 note=62 velocity=127 time=0.00625\n",
      "note_off channel=0 note=62 velocity=127 time=0.019791666666666666\n",
      "note_on channel=0 note=61 velocity=127 time=0\n",
      "note_off channel=0 note=61 velocity=127 time=0.019791666666666666\n",
      "note_on channel=0 note=62 velocity=127 time=0.030208333333333334\n",
      "note_off channel=0 note=62 velocity=127 time=0.019791666666666666\n",
      "note_on channel=0 note=61 velocity=127 time=0.016666666666666666\n",
      "note_off channel=0 note=61 velocity=127 time=0.019791666666666666\n",
      "note_on channel=0 note=60 velocity=127 time=0.004166666666666667\n",
      "note_on channel=0 note=62 velocity=127 time=0.010416666666666666\n",
      "note_off channel=0 note=60 velocity=127 time=0.009375\n",
      "note_off channel=0 note=62 velocity=127 time=0.010416666666666666\n",
      "note_on channel=0 note=61 velocity=127 time=0.03229166666666666\n",
      "note_on channel=0 note=62 velocity=127 time=0.017708333333333333\n",
      "note_off channel=0 note=61 velocity=127 time=0.0020833333333333333\n",
      "note_off channel=0 note=62 velocity=127 time=0.017708333333333333\n",
      "note_on channel=0 note=61 velocity=127 time=0.04895833333333333\n",
      "note_on channel=0 note=62 velocity=127 time=0.0020833333333333333\n",
      "note_on channel=0 note=60 velocity=127 time=0.00625\n",
      "note_off channel=0 note=61 velocity=127 time=0.0125\n",
      "note_off channel=0 note=62 velocity=127 time=0.0020833333333333333\n",
      "note_off channel=0 note=60 velocity=127 time=0.00625\n",
      "note_on channel=0 note=62 velocity=127 time=0.04479166666666667\n",
      "note_on channel=0 note=61 velocity=127 time=0.014583333333333334\n",
      "note_off channel=0 note=62 velocity=127 time=0.005208333333333333\n",
      "note_off channel=0 note=61 velocity=127 time=0.014583333333333334\n",
      "note_on channel=0 note=62 velocity=127 time=0.036458333333333336\n",
      "note_off channel=0 note=62 velocity=127 time=0.019791666666666666\n",
      "note_on channel=0 note=60 velocity=127 time=0.0020833333333333333\n",
      "note_on channel=0 note=61 velocity=127 time=0.008333333333333333\n",
      "note_off channel=0 note=60 velocity=127 time=0.011458333333333333\n",
      "note_off channel=0 note=61 velocity=127 time=0.008333333333333333\n",
      "note_on channel=0 note=62 velocity=127 time=0.019791666666666666\n",
      "note_off channel=0 note=62 velocity=127 time=0.019791666666666666\n",
      "note_on channel=0 note=61 velocity=127 time=0.027083333333333334\n",
      "note_off channel=0 note=61 velocity=127 time=0.019791666666666666\n",
      "note_on channel=0 note=62 velocity=127 time=0.003125\n",
      "note_off channel=0 note=62 velocity=127 time=0.019791666666666666\n",
      "note_on channel=0 note=60 velocity=127 time=0.017708333333333333\n",
      "note_off channel=0 note=60 velocity=127 time=0.019791666666666666\n",
      "note_on channel=0 note=61 velocity=127 time=0.005208333333333333\n",
      "note_on channel=0 note=62 velocity=127 time=0.007291666666666667\n",
      "note_off channel=0 note=61 velocity=127 time=0.0125\n",
      "note_off channel=0 note=62 velocity=127 time=0.007291666666666667\n",
      "note_on channel=0 note=62 velocity=127 time=0.05\n",
      "note_on channel=0 note=61 velocity=127 time=0.008333333333333333\n",
      "note_off channel=0 note=62 velocity=127 time=0.011458333333333333\n",
      "note_off channel=0 note=61 velocity=127 time=0.008333333333333333\n",
      "note_on channel=0 note=60 velocity=127 time=0.025\n",
      "note_on channel=0 note=62 velocity=127 time=0.016666666666666666\n",
      "note_off channel=0 note=60 velocity=127 time=0.003125\n",
      "note_off channel=0 note=62 velocity=127 time=0.016666666666666666\n",
      "note_on channel=0 note=61 velocity=127 time=0.005208333333333333\n",
      "note_off channel=0 note=61 velocity=127 time=0.019791666666666666\n",
      "note_on channel=0 note=62 velocity=127 time=0.026041666666666668\n",
      "note_off channel=0 note=62 velocity=127 time=0.019791666666666666\n",
      "note_on channel=0 note=61 velocity=127 time=0.020833333333333332\n",
      "note_off channel=0 note=61 velocity=127 time=0.019791666666666666\n",
      "note_on channel=0 note=60 velocity=127 time=0.009375\n",
      "note_on channel=0 note=62 velocity=127 time=0\n",
      "note_off channel=0 note=60 velocity=127 time=0.019791666666666666\n",
      "note_off channel=0 note=62 velocity=127 time=0\n",
      "note_on channel=0 note=61 velocity=127 time=0.0375\n",
      "note_on channel=0 note=62 velocity=127 time=0.013541666666666667\n",
      "note_off channel=0 note=61 velocity=127 time=0.007291666666666667\n",
      "note_off channel=0 note=62 velocity=127 time=0.013541666666666667\n",
      "note_on channel=0 note=62 velocity=127 time=0.05\n",
      "note_on channel=0 note=61 velocity=127 time=0.003125\n",
      "note_on channel=0 note=60 velocity=127 time=0.0125\n",
      "note_off channel=0 note=62 velocity=127 time=0.004166666666666667\n",
      "note_off channel=0 note=61 velocity=127 time=0.003125\n",
      "note_off channel=0 note=60 velocity=127 time=0.0125\n",
      "note_on channel=0 note=62 velocity=127 time=0.034375\n",
      "note_on channel=0 note=61 velocity=127 time=0.01875\n",
      "note_off channel=0 note=62 velocity=127 time=0.0010416666666666667\n",
      "note_off channel=0 note=61 velocity=127 time=0.01875\n",
      "note_on channel=0 note=62 velocity=127 time=0.03125\n",
      "note_off channel=0 note=62 velocity=127 time=0.019791666666666666\n",
      "note_on channel=0 note=60 velocity=127 time=0.011458333333333333\n",
      "note_on channel=0 note=61 velocity=127 time=0.003125\n",
      "note_off channel=0 note=60 velocity=127 time=0.016666666666666666\n",
      "note_off channel=0 note=61 velocity=127 time=0.003125\n",
      "note_on channel=0 note=62 velocity=127 time=0.014583333333333334\n",
      "note_off channel=0 note=62 velocity=127 time=0.019791666666666666\n",
      "note_on channel=0 note=61 velocity=127 time=0.03125\n",
      "note_on channel=0 note=62 velocity=127 time=0.01875\n",
      "note_off channel=0 note=61 velocity=127 time=0.0010416666666666667\n",
      "note_off channel=0 note=62 velocity=127 time=0.01875\n",
      "note_on channel=0 note=60 velocity=127 time=0.028125\n",
      "note_on channel=0 note=61 velocity=127 time=0.019791666666666666\n",
      "note_off channel=0 note=60 velocity=127 time=0\n",
      "note_on channel=0 note=62 velocity=127 time=0.0020833333333333333\n",
      "note_off channel=0 note=61 velocity=127 time=0.017708333333333333\n",
      "note_off channel=0 note=62 velocity=127 time=0.003125\n",
      "note_on channel=0 note=62 velocity=127 time=0.05\n",
      "note_on channel=0 note=61 velocity=127 time=0.013541666666666667\n",
      "note_off channel=0 note=62 velocity=127 time=0.00625\n",
      "note_off channel=0 note=61 velocity=127 time=0.013541666666666667\n",
      "note_on channel=0 note=60 velocity=127 time=0.030208333333333334\n",
      "note_on channel=0 note=62 velocity=127 time=0.00625\n",
      "note_off channel=0 note=60 velocity=127 time=0.013541666666666667\n",
      "note_off channel=0 note=62 velocity=127 time=0.00625\n",
      "note_on channel=0 note=61 velocity=127 time=0.009375\n",
      "note_off channel=0 note=61 velocity=127 time=0.019791666666666666\n",
      "note_on channel=0 note=62 velocity=127 time=0.020833333333333332\n",
      "note_off channel=0 note=62 velocity=127 time=0.019791666666666666\n",
      "note_on channel=0 note=61 velocity=127 time=0.026041666666666668\n",
      "note_off channel=0 note=61 velocity=127 time=0.019791666666666666\n",
      "note_on channel=0 note=62 velocity=127 time=0.004166666666666667\n",
      "note_on channel=0 note=60 velocity=127 time=0.009375\n",
      "note_off channel=0 note=62 velocity=127 time=0.010416666666666666\n",
      "note_off channel=0 note=60 velocity=127 time=0.009375\n",
      "note_on channel=0 note=61 velocity=127 time=0.03229166666666666\n",
      "note_on channel=0 note=62 velocity=127 time=0.008333333333333333\n",
      "note_off channel=0 note=61 velocity=127 time=0.011458333333333333\n",
      "note_off channel=0 note=62 velocity=127 time=0.008333333333333333\n",
      "note_on channel=0 note=62 velocity=127 time=0.05\n",
      "note_on channel=0 note=61 velocity=127 time=0.007291666666666667\n",
      "note_off channel=0 note=62 velocity=127 time=0.0125\n",
      "note_on channel=0 note=60 velocity=127 time=0.005208333333333333\n",
      "note_off channel=0 note=61 velocity=127 time=0.0020833333333333333\n",
      "note_off channel=0 note=60 velocity=127 time=0.017708333333333333\n",
      "note_on channel=0 note=62 velocity=127 time=0.025\n",
      "note_off channel=0 note=62 velocity=127 time=0.019791666666666666\n",
      "note_on channel=0 note=61 velocity=127 time=0.004166666666666667\n",
      "note_off channel=0 note=61 velocity=127 time=0.019791666666666666\n",
      "note_on channel=0 note=62 velocity=127 time=0.027083333333333334\n",
      "note_off channel=0 note=62 velocity=127 time=0.019791666666666666\n",
      "note_on channel=0 note=61 velocity=127 time=0.019791666666666666\n",
      "note_on channel=0 note=60 velocity=127 time=0.0020833333333333333\n",
      "note_off channel=0 note=61 velocity=127 time=0.01875\n",
      "note_off channel=0 note=60 velocity=127 time=0.0020833333333333333\n",
      "note_on channel=0 note=62 velocity=127 time=0.008333333333333333\n",
      "note_off channel=0 note=62 velocity=127 time=0.019791666666666666\n",
      "note_on channel=0 note=61 velocity=127 time=0.036458333333333336\n",
      "note_on channel=0 note=62 velocity=127 time=0.014583333333333334\n",
      "note_off channel=0 note=61 velocity=127 time=0.00625\n",
      "note_off channel=0 note=62 velocity=127 time=0.014583333333333334\n",
      "note_on channel=0 note=60 velocity=127 time=0.0375\n",
      "note_on channel=0 note=62 velocity=127 time=0.0125\n",
      "note_on channel=0 note=61 velocity=127 time=0.0020833333333333333\n",
      "note_off channel=0 note=60 velocity=127 time=0.005208333333333333\n",
      "note_off channel=0 note=62 velocity=127 time=0.0125\n",
      "note_off channel=0 note=61 velocity=127 time=0.0020833333333333333\n",
      "note_on channel=0 note=62 velocity=127 time=0.04895833333333333\n",
      "note_on channel=0 note=61 velocity=127 time=0.017708333333333333\n",
      "note_off channel=0 note=62 velocity=127 time=0.0020833333333333333\n",
      "note_off channel=0 note=61 velocity=127 time=0.017708333333333333\n",
      "note_on channel=0 note=62 velocity=127 time=0.03229166666666666\n",
      "note_on channel=0 note=60 velocity=127 time=0.003125\n",
      "note_off channel=0 note=62 velocity=127 time=0.016666666666666666\n",
      "note_off channel=0 note=60 velocity=127 time=0.003125\n",
      "note_on channel=0 note=61 velocity=127 time=0.010416666666666666\n",
      "note_off channel=0 note=61 velocity=127 time=0.019791666666666666\n",
      "note_on channel=0 note=62 velocity=127 time=0.016666666666666666\n",
      "note_off channel=0 note=62 velocity=127 time=0.019791666666666666\n",
      "note_on channel=0 note=61 velocity=127 time=0.030208333333333334\n",
      "note_on channel=0 note=62 velocity=127 time=0.019791666666666666\n",
      "note_off channel=0 note=61 velocity=127 time=0\n",
      "note_on channel=0 note=60 velocity=127 time=0.019791666666666666\n",
      "note_off channel=0 note=62 velocity=127 time=0\n",
      "note_off channel=0 note=60 velocity=127 time=0.019791666666666666\n",
      "note_on channel=0 note=61 velocity=127 time=0.027083333333333334\n",
      "note_on channel=0 note=62 velocity=127 time=0.004166666666666667\n",
      "note_off channel=0 note=61 velocity=127 time=0.016666666666666666\n",
      "note_off channel=0 note=62 velocity=127 time=0.004166666666666667\n",
      "note_on channel=0 note=62 velocity=127 time=0.05\n",
      "note_on channel=0 note=61 velocity=127 time=0.0125\n",
      "note_off channel=0 note=62 velocity=127 time=0.007291666666666667\n",
      "note_off channel=0 note=61 velocity=127 time=0.0125\n",
      "note_on channel=0 note=60 velocity=127 time=0.003125\n",
      "note_off channel=0 note=60 velocity=127 time=0.019791666666666666\n",
      "note_on channel=0 note=62 velocity=127 time=0.014583333333333334\n",
      "note_off channel=0 note=62 velocity=127 time=0.019791666666666666\n",
      "note_on channel=0 note=61 velocity=127 time=0.008333333333333333\n",
      "note_off channel=0 note=61 velocity=127 time=0.019791666666666666\n",
      "note_on channel=0 note=62 velocity=127 time=0.021875\n",
      "note_off channel=0 note=62 velocity=127 time=0.019791666666666666\n",
      "note_on channel=0 note=61 velocity=127 time=0.025\n",
      "note_on channel=0 note=60 velocity=127 time=0.007291666666666667\n",
      "note_off channel=0 note=61 velocity=127 time=0.013541666666666667\n",
      "note_on channel=0 note=62 velocity=127 time=0.005208333333333333\n",
      "note_off channel=0 note=60 velocity=127 time=0.0010416666666666667\n",
      "note_off channel=0 note=62 velocity=127 time=0.01875\n",
      "note_on channel=0 note=61 velocity=127 time=0.040625\n",
      "note_on channel=0 note=62 velocity=127 time=0.009375\n",
      "note_off channel=0 note=61 velocity=127 time=0.010416666666666666\n",
      "note_off channel=0 note=62 velocity=127 time=0.009375\n",
      "note_on channel=0 note=60 velocity=127 time=0.04791666666666666\n",
      "note_on channel=0 note=62 velocity=127 time=0.003125\n",
      "note_on channel=0 note=61 velocity=127 time=0.00625\n",
      "note_off channel=0 note=60 velocity=127 time=0.010416666666666666\n",
      "\u001b[91m [DEBUG] > \u001b[0m\n",
      " |>  to_array: msg.time > max_t; t, n\n",
      " |>  2.9937500000000012\n",
      " |>  150\n",
      "note_on channel=0 note=60 velocity=127 time=0.03125\n",
      "note_off channel=0 note=60 velocity=127 time=0.019791666666666666\n",
      "note_on channel=0 note=62 velocity=127 time=0.06041666666666667\n",
      "note_off channel=0 note=62 velocity=127 time=0.019791666666666666\n",
      "note_on channel=0 note=61 velocity=127 time=0.020833333333333332\n",
      "note_off channel=0 note=61 velocity=127 time=0.019791666666666666\n",
      "note_on channel=0 note=62 velocity=127 time=0.08645833333333333\n",
      "note_off channel=0 note=62 velocity=127 time=0.019791666666666666\n",
      "note_on channel=0 note=60 velocity=127 time=0.0625\n",
      "note_off channel=0 note=60 velocity=127 time=0.019791666666666666\n",
      "note_on channel=0 note=62 velocity=127 time=0.04479166666666667\n",
      "note_off channel=0 note=62 velocity=127 time=0.019791666666666666\n",
      "note_on channel=0 note=61 velocity=127 time=0.04479166666666667\n",
      "note_off channel=0 note=61 velocity=127 time=0.019791666666666666\n",
      "note_on channel=0 note=62 velocity=127 time=0.0625\n",
      "note_off channel=0 note=62 velocity=127 time=0.019791666666666666\n",
      "note_on channel=0 note=60 velocity=127 time=0.07916666666666666\n",
      "note_off channel=0 note=60 velocity=127 time=0.019791666666666666\n",
      "note_on channel=0 note=62 velocity=127 time=0.028125\n",
      "note_off channel=0 note=62 velocity=127 time=0.019791666666666666\n",
      "note_on channel=0 note=61 velocity=127 time=0.06770833333333333\n",
      "note_off channel=0 note=61 velocity=127 time=0.019791666666666666\n",
      "note_on channel=0 note=62 velocity=127 time=0.03854166666666667\n",
      "note_off channel=0 note=62 velocity=127 time=0.019791666666666666\n",
      "note_on channel=0 note=60 velocity=127 time=0.09583333333333333\n",
      "note_off channel=0 note=60 velocity=127 time=0.019791666666666666\n",
      "note_on channel=0 note=62 velocity=127 time=0.011458333333333333\n",
      "note_off channel=0 note=62 velocity=127 time=0.019791666666666666\n",
      "note_on channel=0 note=61 velocity=127 time=0.09166666666666666\n",
      "note_off channel=0 note=61 velocity=127 time=0.019791666666666666\n",
      "note_on channel=0 note=62 velocity=127 time=0.014583333333333334\n",
      "note_off channel=0 note=62 velocity=127 time=0.019791666666666666\n",
      "note_on channel=0 note=60 velocity=127 time=0.1125\n",
      "note_on channel=0 note=62 velocity=127 time=0.014583333333333334\n",
      "note_off channel=0 note=60 velocity=127 time=0.005208333333333333\n",
      "note_off channel=0 note=62 velocity=127 time=0.014583333333333334\n",
      "note_on channel=0 note=61 velocity=127 time=0.11562499999999999\n",
      "note_on channel=0 note=62 velocity=127 time=0.011458333333333333\n",
      "note_off channel=0 note=61 velocity=127 time=0.009375\n",
      "note_off channel=0 note=62 velocity=127 time=0.011458333333333333\n",
      "note_on channel=0 note=62 velocity=127 time=0.12708333333333333\n",
      "note_on channel=0 note=60 velocity=127 time=0.0020833333333333333\n",
      "note_off channel=0 note=62 velocity=127 time=0.01875\n",
      "note_off channel=0 note=60 velocity=127 time=0.0020833333333333333\n",
      "note_on channel=0 note=62 velocity=127 time=0.125\n",
      "note_on channel=0 note=61 velocity=127 time=0.0125\n",
      "note_off channel=0 note=62 velocity=127 time=0.007291666666666667\n",
      "note_off channel=0 note=61 velocity=127 time=0.0125\n",
      "note_on channel=0 note=62 velocity=127 time=0.11458333333333333\n",
      "note_on channel=0 note=60 velocity=127 time=0.01875\n",
      "note_off channel=0 note=62 velocity=127 time=0.0020833333333333333\n",
      "note_off channel=0 note=60 velocity=127 time=0.01875\n",
      "note_on channel=0 note=62 velocity=127 time=0.10833333333333334\n",
      "note_off channel=0 note=62 velocity=127 time=0.019791666666666666\n",
      "note_on channel=0 note=61 velocity=127 time=0.016666666666666666\n",
      "note_off channel=0 note=61 velocity=127 time=0.019791666666666666\n",
      "note_on channel=0 note=62 velocity=127 time=0.090625\n",
      "note_off channel=0 note=62 velocity=127 time=0.019791666666666666\n",
      "note_on channel=0 note=60 velocity=127 time=0.014583333333333334\n",
      "note_off channel=0 note=60 velocity=127 time=0.019791666666666666\n",
      "note_on channel=0 note=62 velocity=127 time=0.09270833333333334\n",
      "note_off channel=0 note=62 velocity=127 time=0.019791666666666666\n",
      "note_on channel=0 note=61 velocity=127 time=0.040625\n",
      "note_off channel=0 note=61 velocity=127 time=0.019791666666666666\n",
      "note_on channel=0 note=62 velocity=127 time=0.06666666666666667\n",
      "note_off channel=0 note=62 velocity=127 time=0.019791666666666666\n",
      "note_on channel=0 note=60 velocity=127 time=0.03125\n",
      "note_off channel=0 note=60 velocity=127 time=0.019791666666666666\n",
      "note_on channel=0 note=62 velocity=127 time=0.07604166666666666\n",
      "note_off channel=0 note=62 velocity=127 time=0.019791666666666666\n",
      "note_on channel=0 note=61 velocity=127 time=0.06458333333333333\n",
      "note_off channel=0 note=61 velocity=127 time=0.019791666666666666\n",
      "note_on channel=0 note=62 velocity=127 time=0.042708333333333334\n",
      "note_off channel=0 note=62 velocity=127 time=0.019791666666666666\n",
      "note_on channel=0 note=60 velocity=127 time=0.04791666666666666\n",
      "note_off channel=0 note=60 velocity=127 time=0.019791666666666666\n",
      "note_on channel=0 note=62 velocity=127 time=0.059375\n",
      "note_off channel=0 note=62 velocity=127 time=0.019791666666666666\n",
      "note_on channel=0 note=61 velocity=127 time=0.08854166666666667\n",
      "\u001b[91m [DEBUG] > \u001b[0m\n",
      " |>  to_array: msg.time > max_t; t, n\n",
      " |>  3.0114583333333362\n",
      " |>  150\n",
      "note_on channel=0 note=61 velocity=127 time=0.0125\n",
      "note_on channel=0 note=62 velocity=127 time=0.00625\n",
      "note_off channel=0 note=61 velocity=127 time=0.014583333333333334\n",
      "note_off channel=0 note=62 velocity=127 time=0.00625\n",
      "note_on channel=0 note=60 velocity=127 time=0.025\n",
      "note_off channel=0 note=60 velocity=127 time=0.019791666666666666\n",
      "note_on channel=0 note=62 velocity=127 time=0.007291666666666667\n",
      "note_on channel=0 note=61 velocity=127 time=0\n",
      "note_off channel=0 note=62 velocity=127 time=0.019791666666666666\n",
      "note_off channel=0 note=61 velocity=127 time=0\n",
      "note_on channel=0 note=60 velocity=127 time=0.0375\n",
      "note_on channel=0 note=62 velocity=127 time=0.014583333333333334\n",
      "note_off channel=0 note=60 velocity=127 time=0.00625\n",
      "note_on channel=0 note=61 velocity=127 time=0\n",
      "note_off channel=0 note=62 velocity=127 time=0.013541666666666667\n",
      "note_off channel=0 note=61 velocity=127 time=0.00625\n",
      "note_on channel=0 note=60 velocity=127 time=0.04479166666666667\n",
      "note_on channel=0 note=62 velocity=127 time=0.0010416666666666667\n",
      "note_on channel=0 note=61 velocity=127 time=0.0125\n",
      "note_off channel=0 note=60 velocity=127 time=0.007291666666666667\n",
      "note_off channel=0 note=62 velocity=127 time=0.0010416666666666667\n",
      "note_off channel=0 note=61 velocity=127 time=0.0125\n",
      "note_on channel=0 note=62 velocity=127 time=0.03958333333333333\n",
      "note_on channel=0 note=60 velocity=127 time=0.0125\n",
      "note_on channel=0 note=61 velocity=127 time=0.00625\n",
      "note_off channel=0 note=62 velocity=127 time=0.0020833333333333333\n",
      "note_off channel=0 note=60 velocity=127 time=0.0125\n",
      "note_off channel=0 note=61 velocity=127 time=0.00625\n",
      "note_on channel=0 note=62 velocity=127 time=0.034375\n",
      "note_off channel=0 note=62 velocity=127 time=0.019791666666666666\n",
      "note_on channel=0 note=61 velocity=127 time=0.004166666666666667\n",
      "note_on channel=0 note=60 velocity=127 time=0.0010416666666666667\n",
      "note_off channel=0 note=61 velocity=127 time=0.01875\n",
      "note_off channel=0 note=60 velocity=127 time=0.0010416666666666667\n",
      "note_on channel=0 note=62 velocity=127 time=0.026041666666666668\n",
      "note_off channel=0 note=62 velocity=127 time=0.019791666666666666\n",
      "note_on channel=0 note=61 velocity=127 time=0.010416666666666666\n",
      "note_on channel=0 note=60 velocity=127 time=0.008333333333333333\n",
      "note_off channel=0 note=61 velocity=127 time=0.011458333333333333\n",
      "note_off channel=0 note=60 velocity=127 time=0.008333333333333333\n",
      "note_on channel=0 note=62 velocity=127 time=0.013541666666666667\n",
      "note_off channel=0 note=62 velocity=127 time=0.019791666666666666\n",
      "note_on channel=0 note=61 velocity=127 time=0.016666666666666666\n",
      "note_on channel=0 note=60 velocity=127 time=0.015625\n",
      "note_off channel=0 note=61 velocity=127 time=0.004166666666666667\n",
      "note_on channel=0 note=62 velocity=127 time=0.015625\n",
      "note_off channel=0 note=60 velocity=127 time=0\n",
      "note_off channel=0 note=62 velocity=127 time=0.019791666666666666\n",
      "note_on channel=0 note=61 velocity=127 time=0.022916666666666665\n",
      "note_off channel=0 note=61 velocity=127 time=0.019791666666666666\n",
      "note_on channel=0 note=60 velocity=127 time=0.003125\n",
      "note_on channel=0 note=62 velocity=127 time=0.00625\n",
      "note_off channel=0 note=60 velocity=127 time=0.013541666666666667\n",
      "note_off channel=0 note=62 velocity=127 time=0.00625\n",
      "note_on channel=0 note=61 velocity=127 time=0.028125\n",
      "note_off channel=0 note=61 velocity=127 time=0.019791666666666666\n",
      "note_on channel=0 note=62 velocity=127 time=0.004166666666666667\n",
      "note_on channel=0 note=60 velocity=127 time=0.00625\n",
      "note_off channel=0 note=62 velocity=127 time=0.013541666666666667\n",
      "note_off channel=0 note=60 velocity=127 time=0.00625\n",
      "note_on channel=0 note=61 velocity=127 time=0.028125\n",
      "note_on channel=0 note=62 velocity=127 time=0.017708333333333333\n",
      "note_off channel=0 note=61 velocity=127 time=0.0020833333333333333\n",
      "note_on channel=0 note=60 velocity=127 time=0.017708333333333333\n",
      "note_off channel=0 note=62 velocity=127 time=0\n",
      "note_off channel=0 note=60 velocity=127 time=0.019791666666666666\n",
      "note_on channel=0 note=61 velocity=127 time=0.020833333333333332\n",
      "note_on channel=0 note=62 velocity=127 time=0.011458333333333333\n",
      "note_off channel=0 note=61 velocity=127 time=0.008333333333333333\n",
      "note_off channel=0 note=62 velocity=127 time=0.011458333333333333\n",
      "note_on channel=0 note=60 velocity=127 time=0.013541666666666667\n",
      "note_off channel=0 note=60 velocity=127 time=0.019791666666666666\n",
      "note_on channel=0 note=61 velocity=127 time=0.013541666666666667\n",
      "note_on channel=0 note=62 velocity=127 time=0.005208333333333333\n",
      "note_off channel=0 note=61 velocity=127 time=0.014583333333333334\n",
      "note_off channel=0 note=62 velocity=127 time=0.005208333333333333\n",
      "note_on channel=0 note=60 velocity=127 time=0.026041666666666668\n",
      "note_off channel=0 note=60 velocity=127 time=0.019791666666666666\n",
      "note_on channel=0 note=62 velocity=127 time=0.00625\n",
      "note_on channel=0 note=61 velocity=127 time=0\n",
      "note_off channel=0 note=62 velocity=127 time=0.019791666666666666\n",
      "note_off channel=0 note=61 velocity=127 time=0\n",
      "note_on channel=0 note=60 velocity=127 time=0.03958333333333333\n",
      "note_on channel=0 note=62 velocity=127 time=0.0125\n",
      "note_on channel=0 note=61 velocity=127 time=0.00625\n",
      "note_off channel=0 note=60 velocity=127 time=0.0010416666666666667\n",
      "note_off channel=0 note=62 velocity=127 time=0.0125\n",
      "note_off channel=0 note=61 velocity=127 time=0.00625\n",
      "note_on channel=0 note=62 velocity=127 time=0.04583333333333333\n",
      "note_on channel=0 note=60 velocity=127 time=0.0010416666666666667\n",
      "note_on channel=0 note=61 velocity=127 time=0.011458333333333333\n",
      "note_off channel=0 note=62 velocity=127 time=0.007291666666666667\n",
      "note_off channel=0 note=60 velocity=127 time=0.0010416666666666667\n",
      "note_off channel=0 note=61 velocity=127 time=0.011458333333333333\n",
      "note_on channel=0 note=62 velocity=127 time=0.03958333333333333\n",
      "note_on channel=0 note=60 velocity=127 time=0.013541666666666667\n",
      "note_on channel=0 note=61 velocity=127 time=0.004166666666666667\n",
      "note_off channel=0 note=62 velocity=127 time=0.0020833333333333333\n",
      "note_off channel=0 note=60 velocity=127 time=0.013541666666666667\n",
      "note_off channel=0 note=61 velocity=127 time=0.004166666666666667\n",
      "note_on channel=0 note=62 velocity=127 time=0.03333333333333333\n",
      "note_off channel=0 note=62 velocity=127 time=0.019791666666666666\n",
      "note_on channel=0 note=61 velocity=127 time=0.004166666666666667\n",
      "note_on channel=0 note=60 velocity=127 time=0.003125\n",
      "note_off channel=0 note=61 velocity=127 time=0.016666666666666666\n",
      "note_off channel=0 note=60 velocity=127 time=0.003125\n",
      "note_on channel=0 note=62 velocity=127 time=0.025\n",
      "note_off channel=0 note=62 velocity=127 time=0.019791666666666666\n",
      "note_on channel=0 note=61 velocity=127 time=0.010416666666666666\n",
      "note_on channel=0 note=60 velocity=127 time=0.010416666666666666\n",
      "note_off channel=0 note=61 velocity=127 time=0.009375\n",
      "note_off channel=0 note=60 velocity=127 time=0.010416666666666666\n",
      "note_on channel=0 note=62 velocity=127 time=0.011458333333333333\n",
      "note_off channel=0 note=62 velocity=127 time=0.019791666666666666\n",
      "note_on channel=0 note=61 velocity=127 time=0.016666666666666666\n",
      "note_on channel=0 note=60 velocity=127 time=0.017708333333333333\n",
      "note_off channel=0 note=61 velocity=127 time=0.003125\n",
      "note_on channel=0 note=62 velocity=127 time=0.015625\n",
      "note_off channel=0 note=60 velocity=127 time=0.0020833333333333333\n",
      "note_off channel=0 note=62 velocity=127 time=0.01875\n",
      "note_on channel=0 note=61 velocity=127 time=0.022916666666666665\n",
      "note_off channel=0 note=61 velocity=127 time=0.019791666666666666\n",
      "note_on channel=0 note=60 velocity=127 time=0.004166666666666667\n",
      "note_on channel=0 note=62 velocity=127 time=0.005208333333333333\n",
      "note_off channel=0 note=60 velocity=127 time=0.014583333333333334\n",
      "note_off channel=0 note=62 velocity=127 time=0.005208333333333333\n",
      "note_on channel=0 note=61 velocity=127 time=0.028125\n",
      "note_off channel=0 note=61 velocity=127 time=0.019791666666666666\n",
      "note_on channel=0 note=62 velocity=127 time=0.003125\n",
      "note_on channel=0 note=60 velocity=127 time=0.008333333333333333\n",
      "note_off channel=0 note=62 velocity=127 time=0.011458333333333333\n",
      "note_off channel=0 note=60 velocity=127 time=0.008333333333333333\n",
      "note_on channel=0 note=61 velocity=127 time=0.026041666666666668\n",
      "note_on channel=0 note=62 velocity=127 time=0.017708333333333333\n",
      "note_off channel=0 note=61 velocity=127 time=0.0020833333333333333\n",
      "note_off channel=0 note=62 velocity=127 time=0.017708333333333333\n",
      "note_on channel=0 note=60 velocity=127 time=0.0010416666666666667\n",
      "note_off channel=0 note=60 velocity=127 time=0.019791666666666666\n",
      "note_on channel=0 note=61 velocity=127 time=0.01875\n",
      "note_on channel=0 note=62 velocity=127 time=0.011458333333333333\n",
      "note_off channel=0 note=61 velocity=127 time=0.008333333333333333\n",
      "note_off channel=0 note=62 velocity=127 time=0.011458333333333333\n",
      "note_on channel=0 note=60 velocity=127 time=0.014583333333333334\n",
      "note_off channel=0 note=60 velocity=127 time=0.019791666666666666\n",
      "note_on channel=0 note=61 velocity=127 time=0.011458333333333333\n",
      "note_on channel=0 note=62 velocity=127 time=0.005208333333333333\n",
      "note_off channel=0 note=61 velocity=127 time=0.014583333333333334\n",
      "note_off channel=0 note=62 velocity=127 time=0.005208333333333333\n",
      "note_on channel=0 note=60 velocity=127 time=0.028125\n",
      "note_off channel=0 note=60 velocity=127 time=0.019791666666666666\n",
      "note_on channel=0 note=62 velocity=127 time=0.004166666666666667\n",
      "note_on channel=0 note=61 velocity=127 time=0\n",
      "note_off channel=0 note=62 velocity=127 time=0.019791666666666666\n",
      "note_off channel=0 note=61 velocity=127 time=0\n",
      "note_on channel=0 note=60 velocity=127 time=0.040625\n",
      "note_on channel=0 note=62 velocity=127 time=0.010416666666666666\n",
      "note_on channel=0 note=61 velocity=127 time=0.00625\n",
      "note_off channel=0 note=60 velocity=127 time=0.003125\n",
      "note_off channel=0 note=62 velocity=127 time=0.010416666666666666\n",
      "note_off channel=0 note=61 velocity=127 time=0.00625\n",
      "note_on channel=0 note=62 velocity=127 time=0.04583333333333333\n",
      "note_on channel=0 note=60 velocity=127 time=0.0020833333333333333\n",
      "note_on channel=0 note=61 velocity=127 time=0.010416666666666666\n",
      "note_off channel=0 note=62 velocity=127 time=0.007291666666666667\n",
      "note_off channel=0 note=60 velocity=127 time=0.0020833333333333333\n",
      "note_off channel=0 note=61 velocity=127 time=0.010416666666666666\n",
      "note_on channel=0 note=62 velocity=127 time=0.03958333333333333\n",
      "note_on channel=0 note=60 velocity=127 time=0.015625\n",
      "note_on channel=0 note=61 velocity=127 time=0.003125\n",
      "note_off channel=0 note=62 velocity=127 time=0.0010416666666666667\n",
      "note_off channel=0 note=60 velocity=127 time=0.015625\n",
      "note_off channel=0 note=61 velocity=127 time=0.003125\n",
      "note_on channel=0 note=62 velocity=127 time=0.03333333333333333\n",
      "note_off channel=0 note=62 velocity=127 time=0.019791666666666666\n",
      "note_on channel=0 note=61 velocity=127 time=0.004166666666666667\n",
      "note_on channel=0 note=60 velocity=127 time=0.004166666666666667\n",
      "note_off channel=0 note=61 velocity=127 time=0.015625\n",
      "note_off channel=0 note=60 velocity=127 time=0.004166666666666667\n",
      "note_on channel=0 note=62 velocity=127 time=0.022916666666666665\n",
      "note_off channel=0 note=62 velocity=127 time=0.019791666666666666\n",
      "note_on channel=0 note=61 velocity=127 time=0.010416666666666666\n",
      "note_on channel=0 note=60 velocity=127 time=0.011458333333333333\n",
      "note_off channel=0 note=61 velocity=127 time=0.008333333333333333\n",
      "note_off channel=0 note=60 velocity=127 time=0.011458333333333333\n",
      "note_on channel=0 note=62 velocity=127 time=0.010416666666666666\n",
      "note_off channel=0 note=62 velocity=127 time=0.019791666666666666\n",
      "note_on channel=0 note=61 velocity=127 time=0.016666666666666666\n",
      "note_on channel=0 note=60 velocity=127 time=0.01875\n",
      "note_off channel=0 note=61 velocity=127 time=0.0010416666666666667\n",
      "note_on channel=0 note=62 velocity=127 time=0.015625\n",
      "note_off channel=0 note=60 velocity=127 time=0.003125\n",
      "note_off channel=0 note=62 velocity=127 time=0.016666666666666666\n",
      "note_on channel=0 note=61 velocity=127 time=0.022916666666666665\n",
      "note_off channel=0 note=61 velocity=127 time=0.019791666666666666\n",
      "note_on channel=0 note=60 velocity=127 time=0.00625\n",
      "note_on channel=0 note=62 velocity=127 time=0.003125\n",
      "note_off channel=0 note=60 velocity=127 time=0.016666666666666666\n",
      "note_off channel=0 note=62 velocity=127 time=0.003125\n",
      "note_on channel=0 note=61 velocity=127 time=0.029166666666666667\n",
      "note_off channel=0 note=61 velocity=127 time=0.019791666666666666\n",
      "note_on channel=0 note=62 velocity=127 time=0.003125\n",
      "note_on channel=0 note=60 velocity=127 time=0.010416666666666666\n",
      "note_off channel=0 note=62 velocity=127 time=0.010416666666666666\n",
      "note_off channel=0 note=60 velocity=127 time=0.010416666666666666\n",
      "note_on channel=0 note=61 velocity=127 time=0.025\n",
      "note_on channel=0 note=62 velocity=127 time=0.017708333333333333\n",
      "note_off channel=0 note=61 velocity=127 time=0.0020833333333333333\n",
      "note_off channel=0 note=62 velocity=127 time=0.017708333333333333\n",
      "note_on channel=0 note=60 velocity=127 time=0.003125\n",
      "note_off channel=0 note=60 velocity=127 time=0.019791666666666666\n",
      "note_on channel=0 note=61 velocity=127 time=0.017708333333333333\n",
      "note_on channel=0 note=62 velocity=127 time=0.011458333333333333\n",
      "note_off channel=0 note=61 velocity=127 time=0.008333333333333333\n",
      "note_off channel=0 note=62 velocity=127 time=0.011458333333333333\n",
      "note_on channel=0 note=60 velocity=127 time=0.016666666666666666\n",
      "note_off channel=0 note=60 velocity=127 time=0.019791666666666666\n",
      "note_on channel=0 note=61 velocity=127 time=0.010416666666666666\n",
      "note_on channel=0 note=62 velocity=127 time=0.005208333333333333\n",
      "note_off channel=0 note=61 velocity=127 time=0.014583333333333334\n",
      "note_off channel=0 note=62 velocity=127 time=0.005208333333333333\n",
      "note_on channel=0 note=60 velocity=127 time=0.030208333333333334\n",
      "note_off channel=0 note=60 velocity=127 time=0.019791666666666666\n",
      "note_on channel=0 note=62 velocity=127 time=0.0020833333333333333\n",
      "note_on channel=0 note=61 velocity=127 time=0.0010416666666666667\n",
      "note_off channel=0 note=62 velocity=127 time=0.019791666666666666\n",
      "note_off channel=0 note=61 velocity=127 time=0.0010416666666666667\n",
      "note_on channel=0 note=60 velocity=127 time=0.042708333333333334\n",
      "note_on channel=0 note=62 velocity=127 time=0.009375\n",
      "note_on channel=0 note=61 velocity=127 time=0.00625\n",
      "note_off channel=0 note=60 velocity=127 time=0.004166666666666667\n",
      "note_off channel=0 note=62 velocity=127 time=0.009375\n",
      "note_off channel=0 note=61 velocity=127 time=0.00625\n",
      "\u001b[91m [DEBUG] > \u001b[0m\n",
      " |>  to_array: msg.time > max_t; t, n\n",
      " |>  2.9947916666666647\n",
      " |>  150\n",
      "note_on channel=0 note=60 velocity=127 time=0.03125\n",
      "note_off channel=0 note=60 velocity=127 time=0.019791666666666666\n",
      "note_on channel=0 note=62 velocity=127 time=0.041666666666666664\n",
      "note_off channel=0 note=62 velocity=127 time=0.019791666666666666\n",
      "note_on channel=0 note=61 velocity=127 time=0\n",
      "note_on channel=0 note=60 velocity=127 time=0.014583333333333334\n",
      "note_off channel=0 note=61 velocity=127 time=0.005208333333333333\n",
      "note_off channel=0 note=60 velocity=127 time=0.014583333333333334\n",
      "note_on channel=0 note=62 velocity=127 time=0.04791666666666666\n",
      "note_off channel=0 note=62 velocity=127 time=0.019791666666666666\n",
      "note_on channel=0 note=60 velocity=127 time=0.008333333333333333\n",
      "note_on channel=0 note=61 velocity=127 time=0.005208333333333333\n",
      "note_off channel=0 note=60 velocity=127 time=0.014583333333333334\n",
      "note_off channel=0 note=61 velocity=127 time=0.005208333333333333\n",
      "note_on channel=0 note=62 velocity=127 time=0.05\n",
      "note_off channel=0 note=62 velocity=127 time=0.019791666666666666\n",
      "note_on channel=0 note=60 velocity=127 time=0.0010416666666666667\n",
      "note_off channel=0 note=60 velocity=127 time=0.019791666666666666\n"
     ]
    },
    {
     "name": "stdout",
     "output_type": "stream",
     "text": [
      "note_on channel=0 note=61 velocity=127 time=0.005208333333333333\n",
      "note_off channel=0 note=61 velocity=127 time=0.019791666666666666\n",
      "note_on channel=0 note=62 velocity=127 time=0.0375\n",
      "note_on channel=0 note=60 velocity=127 time=0.014583333333333334\n",
      "note_off channel=0 note=62 velocity=127 time=0.005208333333333333\n",
      "note_off channel=0 note=60 velocity=127 time=0.014583333333333334\n",
      "note_on channel=0 note=61 velocity=127 time=0.025\n",
      "note_off channel=0 note=61 velocity=127 time=0.019791666666666666\n",
      "note_on channel=0 note=62 velocity=127 time=0.02395833333333333\n",
      "note_on channel=0 note=60 velocity=127 time=0.007291666666666667\n",
      "note_off channel=0 note=62 velocity=127 time=0.0125\n",
      "note_off channel=0 note=60 velocity=127 time=0.007291666666666667\n",
      "note_on channel=0 note=61 velocity=127 time=0.04479166666666667\n",
      "note_off channel=0 note=61 velocity=127 time=0.019791666666666666\n",
      "note_on channel=0 note=62 velocity=127 time=0.011458333333333333\n",
      "note_on channel=0 note=60 velocity=127 time=0.0010416666666666667\n",
      "note_off channel=0 note=62 velocity=127 time=0.01875\n",
      "note_off channel=0 note=60 velocity=127 time=0.0010416666666666667\n",
      "note_on channel=0 note=61 velocity=127 time=0.06458333333333333\n",
      "note_on channel=0 note=60 velocity=127 time=0.0125\n",
      "note_on channel=0 note=62 velocity=127 time=0.00625\n",
      "note_off channel=0 note=61 velocity=127 time=0.0010416666666666667\n",
      "note_off channel=0 note=60 velocity=127 time=0.0125\n",
      "note_off channel=0 note=62 velocity=127 time=0.00625\n",
      "note_on channel=0 note=60 velocity=127 time=0.07083333333333333\n",
      "note_on channel=0 note=61 velocity=127 time=0.007291666666666667\n",
      "note_on channel=0 note=62 velocity=127 time=0.005208333333333333\n",
      "note_off channel=0 note=60 velocity=127 time=0.007291666666666667\n",
      "note_off channel=0 note=61 velocity=127 time=0.007291666666666667\n",
      "note_off channel=0 note=62 velocity=127 time=0.005208333333333333\n",
      "note_on channel=0 note=60 velocity=127 time=0.06354166666666666\n",
      "note_on channel=0 note=62 velocity=127 time=0.019791666666666666\n",
      "note_off channel=0 note=60 velocity=127 time=0\n",
      "note_on channel=0 note=61 velocity=127 time=0.007291666666666667\n",
      "note_off channel=0 note=62 velocity=127 time=0.0125\n",
      "note_off channel=0 note=61 velocity=127 time=0.007291666666666667\n",
      "note_on channel=0 note=60 velocity=127 time=0.04895833333333333\n",
      "note_off channel=0 note=60 velocity=127 time=0.019791666666666666\n",
      "note_on channel=0 note=62 velocity=127 time=0.00625\n",
      "note_off channel=0 note=62 velocity=127 time=0.019791666666666666\n",
      "note_on channel=0 note=61 velocity=127 time=0\n",
      "note_off channel=0 note=61 velocity=127 time=0.019791666666666666\n",
      "note_on channel=0 note=60 velocity=127 time=0.030208333333333334\n",
      "note_off channel=0 note=60 velocity=127 time=0.019791666666666666\n",
      "note_on channel=0 note=62 velocity=127 time=0.013541666666666667\n",
      "note_off channel=0 note=62 velocity=127 time=0.019791666666666666\n",
      "note_on channel=0 note=61 velocity=127 time=0.013541666666666667\n",
      "note_off channel=0 note=61 velocity=127 time=0.019791666666666666\n",
      "note_on channel=0 note=60 velocity=127 time=0.010416666666666666\n",
      "note_off channel=0 note=60 velocity=127 time=0.019791666666666666\n",
      "note_on channel=0 note=62 velocity=127 time=0.020833333333333332\n",
      "note_off channel=0 note=62 velocity=127 time=0.019791666666666666\n",
      "note_on channel=0 note=61 velocity=127 time=0.026041666666666668\n",
      "note_on channel=0 note=60 velocity=127 time=0.010416666666666666\n",
      "note_off channel=0 note=61 velocity=127 time=0.009375\n",
      "note_off channel=0 note=60 velocity=127 time=0.010416666666666666\n",
      "note_on channel=0 note=62 velocity=127 time=0.027083333333333334\n",
      "note_off channel=0 note=62 velocity=127 time=0.019791666666666666\n",
      "note_on channel=0 note=60 velocity=127 time=0.029166666666666667\n",
      "note_on channel=0 note=61 velocity=127 time=0.009375\n",
      "note_off channel=0 note=60 velocity=127 time=0.010416666666666666\n",
      "note_off channel=0 note=61 velocity=127 time=0.009375\n",
      "note_on channel=0 note=62 velocity=127 time=0.025\n",
      "note_off channel=0 note=62 velocity=127 time=0.019791666666666666\n",
      "note_on channel=0 note=60 velocity=127 time=0.022916666666666665\n",
      "note_off channel=0 note=60 velocity=127 time=0.019791666666666666\n",
      "note_on channel=0 note=61 velocity=127 time=0.009375\n",
      "note_off channel=0 note=61 velocity=127 time=0.019791666666666666\n",
      "note_on channel=0 note=62 velocity=127 time=0.011458333333333333\n",
      "note_off channel=0 note=62 velocity=127 time=0.019791666666666666\n",
      "note_on channel=0 note=60 velocity=127 time=0.015625\n",
      "note_off channel=0 note=60 velocity=127 time=0.019791666666666666\n",
      "note_on channel=0 note=61 velocity=127 time=0.029166666666666667\n",
      "note_on channel=0 note=62 velocity=127 time=0.01875\n",
      "note_off channel=0 note=61 velocity=127 time=0.0010416666666666667\n",
      "note_off channel=0 note=62 velocity=127 time=0.01875\n",
      "note_on channel=0 note=60 velocity=127 time=0.008333333333333333\n",
      "note_off channel=0 note=60 velocity=127 time=0.019791666666666666\n",
      "note_on channel=0 note=61 velocity=127 time=0.04895833333333333\n",
      "note_on channel=0 note=62 velocity=127 time=0.00625\n",
      "note_off channel=0 note=61 velocity=127 time=0.013541666666666667\n",
      "note_off channel=0 note=62 velocity=127 time=0.00625\n",
      "note_on channel=0 note=60 velocity=127 time=0.0020833333333333333\n",
      "note_off channel=0 note=60 velocity=127 time=0.019791666666666666\n",
      "note_on channel=0 note=62 velocity=127 time=0.06145833333333333\n",
      "note_on channel=0 note=61 velocity=127 time=0.007291666666666667\n",
      "note_on channel=0 note=60 velocity=127 time=0.008333333333333333\n",
      "note_off channel=0 note=62 velocity=127 time=0.005208333333333333\n",
      "note_off channel=0 note=61 velocity=127 time=0.007291666666666667\n",
      "note_off channel=0 note=60 velocity=127 time=0.008333333333333333\n",
      "note_on channel=0 note=62 velocity=127 time=0.06875\n",
      "note_on channel=0 note=60 velocity=127 time=0.008333333333333333\n",
      "note_on channel=0 note=61 velocity=127 time=0.011458333333333333\n",
      "note_off channel=0 note=62 velocity=127 time=0\n",
      "note_off channel=0 note=60 velocity=127 time=0.008333333333333333\n",
      "note_off channel=0 note=61 velocity=127 time=0.011458333333333333\n",
      "note_on channel=0 note=62 velocity=127 time=0.06354166666666666\n",
      "note_on channel=0 note=60 velocity=127 time=0.0010416666666666667\n",
      "note_off channel=0 note=62 velocity=127 time=0.01875\n",
      "note_off channel=0 note=60 velocity=127 time=0.0010416666666666667\n",
      "note_on channel=0 note=61 velocity=127 time=0.011458333333333333\n",
      "note_off channel=0 note=61 velocity=127 time=0.019791666666666666\n",
      "note_on channel=0 note=60 velocity=127 time=0.04479166666666667\n",
      "note_on channel=0 note=62 velocity=127 time=0.005208333333333333\n",
      "note_off channel=0 note=60 velocity=127 time=0.014583333333333334\n",
      "note_off channel=0 note=62 velocity=127 time=0.005208333333333333\n",
      "note_on channel=0 note=61 velocity=127 time=0.026041666666666668\n",
      "note_off channel=0 note=61 velocity=127 time=0.019791666666666666\n",
      "note_on channel=0 note=60 velocity=127 time=0.026041666666666668\n",
      "note_on channel=0 note=62 velocity=127 time=0.0125\n",
      "note_off channel=0 note=60 velocity=127 time=0.007291666666666667\n",
      "note_off channel=0 note=62 velocity=127 time=0.0125\n",
      "note_on channel=0 note=61 velocity=127 time=0.03854166666666667\n",
      "note_off channel=0 note=61 velocity=127 time=0.019791666666666666\n",
      "note_on channel=0 note=60 velocity=127 time=0.00625\n",
      "note_on channel=0 note=62 velocity=127 time=0.01875\n",
      "note_off channel=0 note=60 velocity=127 time=0.0010416666666666667\n",
      "note_off channel=0 note=62 velocity=127 time=0.01875\n",
      "note_on channel=0 note=61 velocity=127 time=0.051041666666666666\n",
      "note_on channel=0 note=60 velocity=127 time=0.00625\n",
      "note_off channel=0 note=61 velocity=127 time=0.013541666666666667\n",
      "note_off channel=0 note=60 velocity=127 time=0.00625\n",
      "note_on channel=0 note=62 velocity=127 time=0.00625\n",
      "note_off channel=0 note=62 velocity=127 time=0.019791666666666666\n",
      "note_on channel=0 note=60 velocity=127 time=0.051041666666666666\n",
      "note_on channel=0 note=61 velocity=127 time=0.013541666666666667\n",
      "note_off channel=0 note=60 velocity=127 time=0.00625\n",
      "note_on channel=0 note=62 velocity=127 time=0.0125\n",
      "note_off channel=0 note=61 velocity=127 time=0.0010416666666666667\n",
      "note_off channel=0 note=62 velocity=127 time=0.01875\n",
      "note_on channel=0 note=60 velocity=127 time=0.04375\n",
      "note_off channel=0 note=60 velocity=127 time=0.019791666666666666\n",
      "note_on channel=0 note=61 velocity=127 time=0.013541666666666667\n",
      "note_on channel=0 note=62 velocity=127 time=0.00625\n",
      "note_off channel=0 note=61 velocity=127 time=0.013541666666666667\n",
      "note_off channel=0 note=62 velocity=127 time=0.00625\n",
      "note_on channel=0 note=60 velocity=127 time=0.036458333333333336\n",
      "note_off channel=0 note=60 velocity=127 time=0.019791666666666666\n",
      "note_on channel=0 note=62 velocity=127 time=0.026041666666666668\n",
      "note_on channel=0 note=61 velocity=127 time=0.00625\n",
      "note_off channel=0 note=62 velocity=127 time=0.013541666666666667\n",
      "note_off channel=0 note=61 velocity=127 time=0.00625\n",
      "note_on channel=0 note=60 velocity=127 time=0.02395833333333333\n",
      "note_off channel=0 note=60 velocity=127 time=0.019791666666666666\n",
      "note_on channel=0 note=62 velocity=127 time=0.03333333333333333\n",
      "note_on channel=0 note=61 velocity=127 time=0.019791666666666666\n",
      "note_off channel=0 note=62 velocity=127 time=0\n",
      "note_off channel=0 note=61 velocity=127 time=0.019791666666666666\n",
      "note_on channel=0 note=60 velocity=127 time=0.004166666666666667\n",
      "note_off channel=0 note=60 velocity=127 time=0.019791666666666666\n",
      "note_on channel=0 note=62 velocity=127 time=0.040625\n",
      "note_off channel=0 note=62 velocity=127 time=0.019791666666666666\n",
      "\u001b[91m [DEBUG] > \u001b[0m\n",
      " |>  to_array: msg.time > max_t; t, n\n",
      " |>  3.002083333333337\n",
      " |>  150\n",
      "note_on channel=0 note=62 velocity=127 time=0.00625\n",
      "note_off channel=0 note=62 velocity=127 time=0.019791666666666666\n",
      "note_on channel=0 note=61 velocity=127 time=0.005208333333333333\n",
      "note_off channel=0 note=61 velocity=127 time=0.019791666666666666\n",
      "note_on channel=0 note=60 velocity=127 time=0.015625\n",
      "note_off channel=0 note=60 velocity=127 time=0.019791666666666666\n",
      "note_on channel=0 note=62 velocity=127 time=0.010416666666666666\n",
      "note_on channel=0 note=61 velocity=127 time=0.005208333333333333\n",
      "note_off channel=0 note=62 velocity=127 time=0.015625\n",
      "note_off channel=0 note=61 velocity=127 time=0.005208333333333333\n",
      "note_on channel=0 note=60 velocity=127 time=0.016666666666666666\n",
      "note_off channel=0 note=60 velocity=127 time=0.019791666666666666\n",
      "note_on channel=0 note=61 velocity=127 time=0.013541666666666667\n",
      "note_on channel=0 note=62 velocity=127 time=0.015625\n",
      "note_off channel=0 note=61 velocity=127 time=0.004166666666666667\n",
      "note_off channel=0 note=62 velocity=127 time=0.015625\n",
      "note_on channel=0 note=60 velocity=127 time=0.0020833333333333333\n",
      "note_off channel=0 note=60 velocity=127 time=0.019791666666666666\n",
      "note_on channel=0 note=61 velocity=127 time=0.0125\n",
      "note_off channel=0 note=61 velocity=127 time=0.019791666666666666\n",
      "note_on channel=0 note=62 velocity=127 time=0.016666666666666666\n",
      "note_on channel=0 note=60 velocity=127 time=0.0020833333333333333\n",
      "note_off channel=0 note=62 velocity=127 time=0.017708333333333333\n",
      "note_off channel=0 note=60 velocity=127 time=0.0020833333333333333\n",
      "note_on channel=0 note=61 velocity=127 time=0.011458333333333333\n",
      "note_off channel=0 note=61 velocity=127 time=0.019791666666666666\n",
      "note_on channel=0 note=60 velocity=127 time=0.019791666666666666\n",
      "note_on channel=0 note=62 velocity=127 time=0.016666666666666666\n",
      "note_off channel=0 note=60 velocity=127 time=0.003125\n",
      "note_on channel=0 note=61 velocity=127 time=0.010416666666666666\n",
      "note_off channel=0 note=62 velocity=127 time=0.007291666666666667\n",
      "note_off channel=0 note=61 velocity=127 time=0.0125\n",
      "note_on channel=0 note=60 velocity=127 time=0.020833333333333332\n",
      "note_off channel=0 note=60 velocity=127 time=0.019791666666666666\n",
      "note_on channel=0 note=61 velocity=127 time=0.008333333333333333\n",
      "note_on channel=0 note=62 velocity=127 time=0.007291666666666667\n",
      "note_off channel=0 note=61 velocity=127 time=0.0125\n",
      "note_off channel=0 note=62 velocity=127 time=0.007291666666666667\n",
      "note_on channel=0 note=60 velocity=127 time=0.014583333333333334\n",
      "note_off channel=0 note=60 velocity=127 time=0.019791666666666666\n",
      "note_on channel=0 note=61 velocity=127 time=0.007291666666666667\n",
      "note_off channel=0 note=61 velocity=127 time=0.019791666666666666\n",
      "note_on channel=0 note=62 velocity=127 time=0.008333333333333333\n",
      "note_on channel=0 note=60 velocity=127 time=0.015625\n",
      "note_off channel=0 note=62 velocity=127 time=0.005208333333333333\n",
      "note_off channel=0 note=60 velocity=127 time=0.015625\n",
      "note_on channel=0 note=61 velocity=127 time=0.00625\n",
      "note_off channel=0 note=61 velocity=127 time=0.019791666666666666\n",
      "note_on channel=0 note=60 velocity=127 time=0.025\n",
      "note_on channel=0 note=62 velocity=127 time=0.004166666666666667\n",
      "note_off channel=0 note=60 velocity=127 time=0.015625\n",
      "note_off channel=0 note=62 velocity=127 time=0.004166666666666667\n",
      "note_on channel=0 note=61 velocity=127 time=0.0010416666666666667\n",
      "note_off channel=0 note=61 velocity=127 time=0.019791666666666666\n",
      "note_on channel=0 note=60 velocity=127 time=0.026041666666666668\n",
      "note_off channel=0 note=60 velocity=127 time=0.019791666666666666\n",
      "note_on channel=0 note=62 velocity=127 time=0.003125\n",
      "note_on channel=0 note=61 velocity=127 time=0\n",
      "note_off channel=0 note=62 velocity=127 time=0.019791666666666666\n",
      "note_off channel=0 note=61 velocity=127 time=0\n",
      "note_on channel=0 note=60 velocity=127 time=0.027083333333333334\n",
      "note_off channel=0 note=60 velocity=127 time=0.019791666666666666\n",
      "note_on channel=0 note=61 velocity=127 time=0.003125\n",
      "note_off channel=0 note=61 velocity=127 time=0.019791666666666666\n",
      "note_on channel=0 note=62 velocity=127 time=0\n",
      "note_off channel=0 note=62 velocity=127 time=0.019791666666666666\n",
      "note_on channel=0 note=60 velocity=127 time=0.008333333333333333\n",
      "note_off channel=0 note=60 velocity=127 time=0.019791666666666666\n",
      "note_on channel=0 note=61 velocity=127 time=0.0010416666666666667\n",
      "note_off channel=0 note=61 velocity=127 time=0.019791666666666666\n",
      "note_on channel=0 note=62 velocity=127 time=0.020833333333333332\n",
      "note_on channel=0 note=60 velocity=127 time=0.009375\n",
      "note_off channel=0 note=62 velocity=127 time=0.011458333333333333\n",
      "note_off channel=0 note=60 velocity=127 time=0.009375\n",
      "note_on channel=0 note=61 velocity=127 time=0\n",
      "note_off channel=0 note=61 velocity=127 time=0.019791666666666666\n",
      "note_on channel=0 note=60 velocity=127 time=0.03125\n",
      "note_on channel=0 note=62 velocity=127 time=0.010416666666666666\n",
      "note_on channel=0 note=61 velocity=127 time=0.008333333333333333\n",
      "note_off channel=0 note=60 velocity=127 time=0.0010416666666666667\n",
      "note_off channel=0 note=62 velocity=127 time=0.010416666666666666\n",
      "note_off channel=0 note=61 velocity=127 time=0.008333333333333333\n",
      "note_on channel=0 note=60 velocity=127 time=0.03229166666666666\n",
      "note_on channel=0 note=61 velocity=127 time=0.017708333333333333\n",
      "note_off channel=0 note=60 velocity=127 time=0.0020833333333333333\n",
      "note_on channel=0 note=62 velocity=127 time=0.010416666666666666\n",
      "note_off channel=0 note=61 velocity=127 time=0.008333333333333333\n",
      "note_off channel=0 note=62 velocity=127 time=0.0125\n",
      "note_on channel=0 note=60 velocity=127 time=0.020833333333333332\n",
      "note_on channel=0 note=61 velocity=127 time=0.016666666666666666\n",
      "note_off channel=0 note=60 velocity=127 time=0.003125\n",
      "note_off channel=0 note=61 velocity=127 time=0.016666666666666666\n",
      "note_on channel=0 note=62 velocity=127 time=0.0125\n",
      "note_off channel=0 note=62 velocity=127 time=0.019791666666666666\n",
      "note_on channel=0 note=60 velocity=127 time=0.0020833333333333333\n",
      "note_on channel=0 note=61 velocity=127 time=0.015625\n",
      "note_off channel=0 note=60 velocity=127 time=0.004166666666666667\n",
      "note_off channel=0 note=61 velocity=127 time=0.015625\n",
      "note_on channel=0 note=62 velocity=127 time=0.03333333333333333\n",
      "note_on channel=0 note=60 velocity=127 time=0.0020833333333333333\n",
      "note_on channel=0 note=61 velocity=127 time=0.014583333333333334\n",
      "note_off channel=0 note=62 velocity=127 time=0.003125\n",
      "note_off channel=0 note=60 velocity=127 time=0.0020833333333333333\n",
      "note_off channel=0 note=61 velocity=127 time=0.014583333333333334\n",
      "note_on channel=0 note=60 velocity=127 time=0.0375\n",
      "note_on channel=0 note=61 velocity=127 time=0.0125\n",
      "note_on channel=0 note=62 velocity=127 time=0.004166666666666667\n",
      "note_off channel=0 note=60 velocity=127 time=0.003125\n",
      "note_off channel=0 note=61 velocity=127 time=0.0125\n",
      "note_off channel=0 note=62 velocity=127 time=0.004166666666666667\n",
      "note_on channel=0 note=60 velocity=127 time=0.034375\n",
      "note_on channel=0 note=61 velocity=127 time=0.011458333333333333\n",
      "note_off channel=0 note=60 velocity=127 time=0.008333333333333333\n",
      "note_off channel=0 note=61 velocity=127 time=0.011458333333333333\n",
      "note_on channel=0 note=62 velocity=127 time=0.004166666666666667\n",
      "note_off channel=0 note=62 velocity=127 time=0.019791666666666666\n",
      "note_on channel=0 note=60 velocity=127 time=0.014583333333333334\n",
      "note_on channel=0 note=61 velocity=127 time=0.010416666666666666\n",
      "note_off channel=0 note=60 velocity=127 time=0.009375\n",
      "note_off channel=0 note=61 velocity=127 time=0.010416666666666666\n",
      "note_on channel=0 note=62 velocity=127 time=0.025\n",
      "note_on channel=0 note=60 velocity=127 time=0.015625\n",
      "note_off channel=0 note=62 velocity=127 time=0.004166666666666667\n",
      "note_on channel=0 note=61 velocity=127 time=0.005208333333333333\n",
      "note_off channel=0 note=60 velocity=127 time=0.010416666666666666\n",
      "note_off channel=0 note=61 velocity=127 time=0.009375\n",
      "note_on channel=0 note=60 velocity=127 time=0.041666666666666664\n",
      "note_on channel=0 note=62 velocity=127 time=0.004166666666666667\n",
      "note_on channel=0 note=61 velocity=127 time=0.004166666666666667\n",
      "note_off channel=0 note=60 velocity=127 time=0.011458333333333333\n",
      "note_off channel=0 note=62 velocity=127 time=0.004166666666666667\n",
      "note_off channel=0 note=61 velocity=127 time=0.004166666666666667\n",
      "note_on channel=0 note=60 velocity=127 time=0.042708333333333334\n",
      "note_on channel=0 note=61 velocity=127 time=0.007291666666666667\n",
      "note_off channel=0 note=60 velocity=127 time=0.013541666666666667\n",
      "note_on channel=0 note=62 velocity=127 time=0.003125\n",
      "note_off channel=0 note=61 velocity=127 time=0.003125\n",
      "note_off channel=0 note=62 velocity=127 time=0.016666666666666666\n",
      "note_on channel=0 note=60 velocity=127 time=0.028125\n",
      "note_on channel=0 note=61 velocity=127 time=0.005208333333333333\n",
      "note_off channel=0 note=60 velocity=127 time=0.014583333333333334\n",
      "note_off channel=0 note=61 velocity=127 time=0.005208333333333333\n",
      "note_on channel=0 note=62 velocity=127 time=0.016666666666666666\n",
      "note_off channel=0 note=62 velocity=127 time=0.019791666666666666\n",
      "note_on channel=0 note=60 velocity=127 time=0.008333333333333333\n",
      "note_on channel=0 note=61 velocity=127 time=0.004166666666666667\n",
      "note_off channel=0 note=60 velocity=127 time=0.015625\n",
      "note_off channel=0 note=61 velocity=127 time=0.004166666666666667\n",
      "note_on channel=0 note=62 velocity=127 time=0.0375\n",
      "note_on channel=0 note=60 velocity=127 time=0.009375\n",
      "note_on channel=0 note=61 velocity=127 time=0.003125\n",
      "note_off channel=0 note=62 velocity=127 time=0.007291666666666667\n",
      "note_off channel=0 note=60 velocity=127 time=0.009375\n",
      "note_off channel=0 note=61 velocity=127 time=0.003125\n",
      "note_on channel=0 note=60 velocity=127 time=0.04791666666666666\n",
      "note_on channel=0 note=61 velocity=127 time=0.0020833333333333333\n",
      "note_on channel=0 note=62 velocity=127 time=0.008333333333333333\n",
      "note_off channel=0 note=60 velocity=127 time=0.009375\n",
      "note_off channel=0 note=61 velocity=127 time=0.0020833333333333333\n",
      "note_off channel=0 note=62 velocity=127 time=0.008333333333333333\n",
      "note_on channel=0 note=60 velocity=127 time=0.040625\n",
      "note_on channel=0 note=61 velocity=127 time=0.0010416666666666667\n",
      "note_off channel=0 note=60 velocity=127 time=0.01875\n",
      "note_off channel=0 note=61 velocity=127 time=0.0010416666666666667\n",
      "note_on channel=0 note=62 velocity=127 time=0.009375\n",
      "note_off channel=0 note=62 velocity=127 time=0.019791666666666666\n",
      "note_on channel=0 note=61 velocity=127 time=0.020833333333333332\n",
      "note_on channel=0 note=60 velocity=127 time=0\n",
      "note_off channel=0 note=61 velocity=127 time=0.019791666666666666\n",
      "note_off channel=0 note=60 velocity=127 time=0\n",
      "note_on channel=0 note=62 velocity=127 time=0.029166666666666667\n",
      "note_off channel=0 note=62 velocity=127 time=0.019791666666666666\n",
      "note_on channel=0 note=61 velocity=127 time=0\n",
      "note_on channel=0 note=60 velocity=127 time=0.0020833333333333333\n",
      "note_off channel=0 note=61 velocity=127 time=0.01875\n",
      "note_off channel=0 note=60 velocity=127 time=0.0020833333333333333\n",
      "note_on channel=0 note=61 velocity=127 time=0.04791666666666666\n",
      "note_on channel=0 note=62 velocity=127 time=0\n",
      "note_on channel=0 note=60 velocity=127 time=0.0020833333333333333\n",
      "note_off channel=0 note=61 velocity=127 time=0.017708333333333333\n",
      "note_off channel=0 note=62 velocity=127 time=0\n",
      "note_off channel=0 note=60 velocity=127 time=0.0020833333333333333\n",
      "note_on channel=0 note=61 velocity=127 time=0.046875\n",
      "note_on channel=0 note=60 velocity=127 time=0.004166666666666667\n",
      "note_off channel=0 note=61 velocity=127 time=0.015625\n",
      "note_on channel=0 note=62 velocity=127 time=0.0010416666666666667\n",
      "note_off channel=0 note=60 velocity=127 time=0.003125\n",
      "note_off channel=0 note=62 velocity=127 time=0.016666666666666666\n",
      "note_on channel=0 note=61 velocity=127 time=0.029166666666666667\n",
      "note_on channel=0 note=60 velocity=127 time=0.005208333333333333\n",
      "note_off channel=0 note=61 velocity=127 time=0.014583333333333334\n",
      "note_off channel=0 note=60 velocity=127 time=0.005208333333333333\n",
      "note_on channel=0 note=62 velocity=127 time=0.016666666666666666\n",
      "note_off channel=0 note=62 velocity=127 time=0.019791666666666666\n",
      "note_on channel=0 note=61 velocity=127 time=0.008333333333333333\n",
      "note_on channel=0 note=60 velocity=127 time=0.00625\n",
      "note_off channel=0 note=61 velocity=127 time=0.013541666666666667\n",
      "note_off channel=0 note=60 velocity=127 time=0.00625\n",
      "note_on channel=0 note=62 velocity=127 time=0.035416666666666666\n",
      "note_on channel=0 note=61 velocity=127 time=0.008333333333333333\n",
      "note_on channel=0 note=60 velocity=127 time=0.007291666666666667\n",
      "note_off channel=0 note=62 velocity=127 time=0.004166666666666667\n",
      "note_off channel=0 note=61 velocity=127 time=0.008333333333333333\n",
      "note_off channel=0 note=60 velocity=127 time=0.007291666666666667\n",
      "note_on channel=0 note=61 velocity=127 time=0.042708333333333334\n",
      "note_on channel=0 note=60 velocity=127 time=0.008333333333333333\n",
      "note_on channel=0 note=62 velocity=127 time=0.004166666666666667\n",
      "note_off channel=0 note=61 velocity=127 time=0.007291666666666667\n",
      "note_off channel=0 note=60 velocity=127 time=0.008333333333333333\n",
      "note_off channel=0 note=62 velocity=127 time=0.004166666666666667\n",
      "note_on channel=0 note=61 velocity=127 time=0.0375\n",
      "note_on channel=0 note=60 velocity=127 time=0.010416666666666666\n",
      "note_off channel=0 note=61 velocity=127 time=0.010416666666666666\n",
      "note_off channel=0 note=60 velocity=127 time=0.010416666666666666\n",
      "note_on channel=0 note=62 velocity=127 time=0.003125\n",
      "note_off channel=0 note=62 velocity=127 time=0.019791666666666666\n",
      "note_on channel=0 note=61 velocity=127 time=0.016666666666666666\n",
      "note_on channel=0 note=60 velocity=127 time=0.011458333333333333\n",
      "note_off channel=0 note=61 velocity=127 time=0.008333333333333333\n",
      "note_off channel=0 note=60 velocity=127 time=0.011458333333333333\n",
      "note_on channel=0 note=62 velocity=127 time=0.022916666666666665\n",
      "note_on channel=0 note=61 velocity=127 time=0.015625\n",
      "note_off channel=0 note=62 velocity=127 time=0.004166666666666667\n",
      "note_on channel=0 note=60 velocity=127 time=0.008333333333333333\n",
      "note_off channel=0 note=61 velocity=127 time=0.007291666666666667\n",
      "note_off channel=0 note=60 velocity=127 time=0.0125\n",
      "note_on channel=0 note=61 velocity=127 time=0.0375\n",
      "note_on channel=0 note=62 velocity=127 time=0.004166666666666667\n",
      "note_on channel=0 note=60 velocity=127 time=0.009375\n",
      "note_off channel=0 note=61 velocity=127 time=0.00625\n",
      "note_off channel=0 note=62 velocity=127 time=0.004166666666666667\n",
      "note_off channel=0 note=60 velocity=127 time=0.009375\n",
      "note_on channel=0 note=61 velocity=127 time=0.036458333333333336\n",
      "note_on channel=0 note=60 velocity=127 time=0.014583333333333334\n",
      "note_off channel=0 note=61 velocity=127 time=0.005208333333333333\n",
      "note_on channel=0 note=62 velocity=127 time=0.005208333333333333\n",
      "note_off channel=0 note=60 velocity=127 time=0.009375\n",
      "\u001b[91m [DEBUG] > \u001b[0m\n",
      " |>  to_array: msg.time > max_t; t, n\n",
      " |>  2.995833333333335\n",
      " |>  150\n",
      "note_on channel=0 note=60 velocity=127 time=0.036458333333333336\n",
      "note_off channel=0 note=60 velocity=127 time=0.019791666666666666\n",
      "note_on channel=0 note=62 velocity=127 time=0.004166666666666667\n",
      "note_on channel=0 note=61 velocity=127 time=0.013541666666666667\n",
      "note_off channel=0 note=62 velocity=127 time=0.00625\n",
      "note_off channel=0 note=61 velocity=127 time=0.013541666666666667\n",
      "note_on channel=0 note=60 velocity=127 time=0.027083333333333334\n",
      "note_off channel=0 note=60 velocity=127 time=0.019791666666666666\n",
      "note_on channel=0 note=62 velocity=127 time=0\n",
      "note_on channel=0 note=61 velocity=127 time=0.013541666666666667\n",
      "note_off channel=0 note=62 velocity=127 time=0.00625\n",
      "note_off channel=0 note=61 velocity=127 time=0.013541666666666667\n",
      "note_on channel=0 note=60 velocity=127 time=0.03125\n",
      "note_on channel=0 note=62 velocity=127 time=0.015625\n",
      "note_off channel=0 note=60 velocity=127 time=0.004166666666666667\n",
      "note_on channel=0 note=61 velocity=127 time=0.009375\n",
      "note_off channel=0 note=62 velocity=127 time=0.00625\n",
      "note_off channel=0 note=61 velocity=127 time=0.013541666666666667\n",
      "note_on channel=0 note=60 velocity=127 time=0.035416666666666666\n",
      "note_on channel=0 note=62 velocity=127 time=0.011458333333333333\n",
      "note_off channel=0 note=60 velocity=127 time=0.008333333333333333\n",
      "note_on channel=0 note=61 velocity=127 time=0.005208333333333333\n",
      "note_off channel=0 note=62 velocity=127 time=0.00625\n",
      "note_off channel=0 note=61 velocity=127 time=0.013541666666666667\n",
      "note_on channel=0 note=60 velocity=127 time=0.040625\n",
      "note_on channel=0 note=62 velocity=127 time=0.007291666666666667\n",
      "note_off channel=0 note=60 velocity=127 time=0.013541666666666667\n",
      "note_on channel=0 note=61 velocity=127 time=0.0010416666666666667\n",
      "note_off channel=0 note=62 velocity=127 time=0.00625\n",
      "note_off channel=0 note=61 velocity=127 time=0.013541666666666667\n",
      "note_on channel=0 note=60 velocity=127 time=0.04479166666666667\n",
      "note_on channel=0 note=62 velocity=127 time=0.0020833333333333333\n",
      "note_on channel=0 note=61 velocity=127 time=0.013541666666666667\n",
      "note_off channel=0 note=60 velocity=127 time=0.004166666666666667\n",
      "note_off channel=0 note=62 velocity=127 time=0.0020833333333333333\n",
      "note_off channel=0 note=61 velocity=127 time=0.013541666666666667\n",
      "note_on channel=0 note=62 velocity=127 time=0.046875\n",
      "note_on channel=0 note=60 velocity=127 time=0.0020833333333333333\n",
      "note_on channel=0 note=61 velocity=127 time=0.011458333333333333\n",
      "note_off channel=0 note=62 velocity=127 time=0.00625\n",
      "note_off channel=0 note=60 velocity=127 time=0.0020833333333333333\n",
      "note_off channel=0 note=61 velocity=127 time=0.011458333333333333\n",
      "note_on channel=0 note=62 velocity=127 time=0.046875\n",
      "note_on channel=0 note=60 velocity=127 time=0.00625\n",
      "note_on channel=0 note=61 velocity=127 time=0.007291666666666667\n",
      "note_off channel=0 note=62 velocity=127 time=0.00625\n",
      "note_off channel=0 note=60 velocity=127 time=0.00625\n",
      "note_off channel=0 note=61 velocity=127 time=0.007291666666666667\n",
      "note_on channel=0 note=62 velocity=127 time=0.046875\n",
      "note_on channel=0 note=60 velocity=127 time=0.010416666666666666\n",
      "note_on channel=0 note=61 velocity=127 time=0.003125\n",
      "note_off channel=0 note=62 velocity=127 time=0.00625\n",
      "note_off channel=0 note=60 velocity=127 time=0.010416666666666666\n",
      "note_off channel=0 note=61 velocity=127 time=0.003125\n",
      "note_on channel=0 note=62 velocity=127 time=0.046875\n",
      "note_on channel=0 note=61 velocity=127 time=0.014583333333333334\n",
      "note_on channel=0 note=60 velocity=127 time=0.0010416666666666667\n",
      "note_off channel=0 note=62 velocity=127 time=0.005208333333333333\n",
      "note_off channel=0 note=61 velocity=127 time=0.014583333333333334\n",
      "note_off channel=0 note=60 velocity=127 time=0.0010416666666666667\n",
      "note_on channel=0 note=62 velocity=127 time=0.04583333333333333\n",
      "note_on channel=0 note=61 velocity=127 time=0.014583333333333334\n",
      "note_on channel=0 note=60 velocity=127 time=0.005208333333333333\n",
      "note_off channel=0 note=62 velocity=127 time=0\n",
      "note_off channel=0 note=61 velocity=127 time=0.014583333333333334\n",
      "note_off channel=0 note=60 velocity=127 time=0.005208333333333333\n",
      "note_on channel=0 note=62 velocity=127 time=0.040625\n",
      "note_on channel=0 note=61 velocity=127 time=0.014583333333333334\n",
      "note_off channel=0 note=62 velocity=127 time=0.00625\n",
      "note_on channel=0 note=60 velocity=127 time=0.004166666666666667\n",
      "note_off channel=0 note=61 velocity=127 time=0.010416666666666666\n",
      "note_off channel=0 note=60 velocity=127 time=0.010416666666666666\n",
      "note_on channel=0 note=62 velocity=127 time=0.036458333333333336\n",
      "note_on channel=0 note=61 velocity=127 time=0.014583333333333334\n",
      "note_off channel=0 note=62 velocity=127 time=0.005208333333333333\n",
      "note_on channel=0 note=60 velocity=127 time=0.008333333333333333\n",
      "note_off channel=0 note=61 velocity=127 time=0.00625\n",
      "note_off channel=0 note=60 velocity=127 time=0.014583333333333334\n",
      "note_on channel=0 note=62 velocity=127 time=0.03229166666666666\n",
      "note_on channel=0 note=61 velocity=127 time=0.014583333333333334\n",
      "note_off channel=0 note=62 velocity=127 time=0.005208333333333333\n",
      "note_on channel=0 note=60 velocity=127 time=0.0125\n",
      "note_off channel=0 note=61 velocity=127 time=0.0010416666666666667\n",
      "note_off channel=0 note=60 velocity=127 time=0.01875\n",
      "note_on channel=0 note=62 velocity=127 time=0.028125\n",
      "note_on channel=0 note=61 velocity=127 time=0.014583333333333334\n",
      "note_off channel=0 note=62 velocity=127 time=0.005208333333333333\n",
      "note_off channel=0 note=61 velocity=127 time=0.014583333333333334\n",
      "note_on channel=0 note=60 velocity=127 time=0.003125\n",
      "note_off channel=0 note=60 velocity=127 time=0.019791666666666666\n",
      "note_on channel=0 note=62 velocity=127 time=0.022916666666666665\n",
      "note_on channel=0 note=61 velocity=127 time=0.014583333333333334\n",
      "note_off channel=0 note=62 velocity=127 time=0.005208333333333333\n",
      "note_off channel=0 note=61 velocity=127 time=0.014583333333333334\n",
      "note_on channel=0 note=60 velocity=127 time=0.007291666666666667\n",
      "note_off channel=0 note=60 velocity=127 time=0.019791666666666666\n",
      "note_on channel=0 note=62 velocity=127 time=0.01875\n",
      "note_on channel=0 note=61 velocity=127 time=0.014583333333333334\n",
      "note_off channel=0 note=62 velocity=127 time=0.005208333333333333\n",
      "note_off channel=0 note=61 velocity=127 time=0.014583333333333334\n",
      "note_on channel=0 note=60 velocity=127 time=0.011458333333333333\n",
      "note_off channel=0 note=60 velocity=127 time=0.019791666666666666\n",
      "note_on channel=0 note=62 velocity=127 time=0.014583333333333334\n",
      "note_on channel=0 note=61 velocity=127 time=0.014583333333333334\n",
      "note_off channel=0 note=62 velocity=127 time=0.005208333333333333\n",
      "note_off channel=0 note=61 velocity=127 time=0.014583333333333334\n",
      "note_on channel=0 note=60 velocity=127 time=0.015625\n",
      "note_off channel=0 note=60 velocity=127 time=0.019791666666666666\n",
      "note_on channel=0 note=62 velocity=127 time=0.010416666666666666\n",
      "note_on channel=0 note=61 velocity=127 time=0.014583333333333334\n",
      "note_off channel=0 note=62 velocity=127 time=0.005208333333333333\n",
      "note_off channel=0 note=61 velocity=127 time=0.014583333333333334\n",
      "note_on channel=0 note=60 velocity=127 time=0.020833333333333332\n",
      "note_off channel=0 note=60 velocity=127 time=0.019791666666666666\n",
      "note_on channel=0 note=62 velocity=127 time=0.005208333333333333\n",
      "note_on channel=0 note=61 velocity=127 time=0.014583333333333334\n",
      "note_off channel=0 note=62 velocity=127 time=0.005208333333333333\n",
      "note_off channel=0 note=61 velocity=127 time=0.014583333333333334\n",
      "note_on channel=0 note=60 velocity=127 time=0.025\n",
      "note_off channel=0 note=60 velocity=127 time=0.019791666666666666\n",
      "note_on channel=0 note=62 velocity=127 time=0.0010416666666666667\n",
      "note_on channel=0 note=61 velocity=127 time=0.014583333333333334\n",
      "note_off channel=0 note=62 velocity=127 time=0.005208333333333333\n",
      "note_off channel=0 note=61 velocity=127 time=0.014583333333333334\n",
      "note_on channel=0 note=60 velocity=127 time=0.029166666666666667\n",
      "note_on channel=0 note=62 velocity=127 time=0.016666666666666666\n",
      "note_off channel=0 note=60 velocity=127 time=0.003125\n",
      "note_on channel=0 note=61 velocity=127 time=0.011458333333333333\n",
      "note_off channel=0 note=62 velocity=127 time=0.005208333333333333\n",
      "note_off channel=0 note=61 velocity=127 time=0.014583333333333334\n",
      "note_on channel=0 note=60 velocity=127 time=0.03333333333333333\n",
      "note_on channel=0 note=62 velocity=127 time=0.0125\n",
      "note_off channel=0 note=60 velocity=127 time=0.007291666666666667\n",
      "note_on channel=0 note=61 velocity=127 time=0.007291666666666667\n",
      "note_off channel=0 note=62 velocity=127 time=0.005208333333333333\n",
      "note_off channel=0 note=61 velocity=127 time=0.014583333333333334\n",
      "note_on channel=0 note=60 velocity=127 time=0.0375\n",
      "note_on channel=0 note=62 velocity=127 time=0.008333333333333333\n",
      "note_off channel=0 note=60 velocity=127 time=0.0125\n",
      "note_on channel=0 note=61 velocity=127 time=0.003125\n",
      "note_off channel=0 note=62 velocity=127 time=0.005208333333333333\n",
      "note_off channel=0 note=61 velocity=127 time=0.014583333333333334\n",
      "note_on channel=0 note=60 velocity=127 time=0.041666666666666664\n",
      "note_on channel=0 note=62 velocity=127 time=0.003125\n",
      "note_on channel=0 note=61 velocity=127 time=0.014583333333333334\n",
      "note_off channel=0 note=60 velocity=127 time=0.0010416666666666667\n",
      "note_off channel=0 note=62 velocity=127 time=0.003125\n",
      "note_off channel=0 note=61 velocity=127 time=0.014583333333333334\n",
      "note_on channel=0 note=62 velocity=127 time=0.04583333333333333\n",
      "note_on channel=0 note=60 velocity=127 time=0.0010416666666666667\n",
      "note_on channel=0 note=61 velocity=127 time=0.014583333333333334\n",
      "note_off channel=0 note=62 velocity=127 time=0.005208333333333333\n",
      "note_off channel=0 note=60 velocity=127 time=0.0010416666666666667\n",
      "note_off channel=0 note=61 velocity=127 time=0.014583333333333334\n",
      "note_on channel=0 note=62 velocity=127 time=0.04583333333333333\n",
      "note_on channel=0 note=60 velocity=127 time=0.005208333333333333\n",
      "note_on channel=0 note=61 velocity=127 time=0.009375\n",
      "note_off channel=0 note=62 velocity=127 time=0.005208333333333333\n",
      "note_off channel=0 note=60 velocity=127 time=0.005208333333333333\n",
      "note_off channel=0 note=61 velocity=127 time=0.009375\n",
      "note_on channel=0 note=62 velocity=127 time=0.04583333333333333\n",
      "note_on channel=0 note=60 velocity=127 time=0.009375\n",
      "note_on channel=0 note=61 velocity=127 time=0.005208333333333333\n",
      "note_off channel=0 note=62 velocity=127 time=0.005208333333333333\n",
      "note_off channel=0 note=60 velocity=127 time=0.009375\n",
      "note_off channel=0 note=61 velocity=127 time=0.005208333333333333\n",
      "note_on channel=0 note=62 velocity=127 time=0.04583333333333333\n",
      "note_on channel=0 note=60 velocity=127 time=0.014583333333333334\n",
      "note_on channel=0 note=61 velocity=127 time=0.0010416666666666667\n",
      "note_off channel=0 note=62 velocity=127 time=0.005208333333333333\n",
      "note_off channel=0 note=60 velocity=127 time=0.014583333333333334\n",
      "note_off channel=0 note=61 velocity=127 time=0.0010416666666666667\n",
      "note_on channel=0 note=62 velocity=127 time=0.04583333333333333\n",
      "note_on channel=0 note=61 velocity=127 time=0.015625\n",
      "note_on channel=0 note=60 velocity=127 time=0.003125\n",
      "note_off channel=0 note=62 velocity=127 time=0.0010416666666666667\n",
      "note_off channel=0 note=61 velocity=127 time=0.015625\n",
      "note_off channel=0 note=60 velocity=127 time=0.003125\n",
      "note_on channel=0 note=62 velocity=127 time=0.041666666666666664\n",
      "note_on channel=0 note=61 velocity=127 time=0.015625\n",
      "note_off channel=0 note=62 velocity=127 time=0.004166666666666667\n",
      "note_on channel=0 note=60 velocity=127 time=0.003125\n",
      "note_off channel=0 note=61 velocity=127 time=0.0125\n",
      "note_off channel=0 note=60 velocity=127 time=0.007291666666666667\n",
      "note_on channel=0 note=62 velocity=127 time=0.0375\n",
      "note_on channel=0 note=61 velocity=127 time=0.015625\n",
      "note_off channel=0 note=62 velocity=127 time=0.004166666666666667\n",
      "note_on channel=0 note=60 velocity=127 time=0.007291666666666667\n",
      "note_off channel=0 note=61 velocity=127 time=0.008333333333333333\n",
      "note_off channel=0 note=60 velocity=127 time=0.011458333333333333\n",
      "note_on channel=0 note=62 velocity=127 time=0.03333333333333333\n",
      "note_on channel=0 note=61 velocity=127 time=0.015625\n",
      "note_off channel=0 note=62 velocity=127 time=0.004166666666666667\n",
      "note_on channel=0 note=60 velocity=127 time=0.011458333333333333\n",
      "note_off channel=0 note=61 velocity=127 time=0.004166666666666667\n",
      "note_off channel=0 note=60 velocity=127 time=0.016666666666666666\n",
      "note_on channel=0 note=62 velocity=127 time=0.029166666666666667\n",
      "note_on channel=0 note=61 velocity=127 time=0.015625\n",
      "note_off channel=0 note=62 velocity=127 time=0.004166666666666667\n",
      "note_off channel=0 note=61 velocity=127 time=0.015625\n",
      "note_on channel=0 note=60 velocity=127 time=0.0010416666666666667\n",
      "note_off channel=0 note=60 velocity=127 time=0.019791666666666666\n",
      "note_on channel=0 note=62 velocity=127 time=0.02395833333333333\n",
      "note_on channel=0 note=61 velocity=127 time=0.015625\n",
      "note_off channel=0 note=62 velocity=127 time=0.004166666666666667\n",
      "note_off channel=0 note=61 velocity=127 time=0.015625\n",
      "note_on channel=0 note=60 velocity=127 time=0.005208333333333333\n",
      "note_off channel=0 note=60 velocity=127 time=0.019791666666666666\n",
      "note_on channel=0 note=62 velocity=127 time=0.019791666666666666\n",
      "note_on channel=0 note=61 velocity=127 time=0.015625\n",
      "note_off channel=0 note=62 velocity=127 time=0.004166666666666667\n",
      "note_off channel=0 note=61 velocity=127 time=0.015625\n",
      "note_on channel=0 note=60 velocity=127 time=0.009375\n",
      "note_off channel=0 note=60 velocity=127 time=0.019791666666666666\n",
      "note_on channel=0 note=62 velocity=127 time=0.015625\n",
      "note_on channel=0 note=61 velocity=127 time=0.015625\n",
      "note_off channel=0 note=62 velocity=127 time=0.004166666666666667\n",
      "note_off channel=0 note=61 velocity=127 time=0.015625\n",
      "\u001b[91m [DEBUG] > \u001b[0m\n",
      " |>  to_array: msg.time > max_t; t, n\n",
      " |>  2.994791666666669\n",
      " |>  150\n"
     ]
    },
    {
     "name": "stdout",
     "output_type": "stream",
     "text": [
      "note_on channel=0 note=60 velocity=127 time=0.07916666666666666\n",
      "note_on channel=0 note=62 velocity=127 time=0.0020833333333333333\n",
      "note_off channel=0 note=60 velocity=127 time=0.017708333333333333\n",
      "note_off channel=0 note=62 velocity=127 time=0.0020833333333333333\n",
      "note_on channel=0 note=61 velocity=127 time=0.04583333333333333\n",
      "note_off channel=0 note=61 velocity=127 time=0.019791666666666666\n",
      "note_on channel=0 note=60 velocity=127 time=0.022916666666666665\n",
      "note_off channel=0 note=60 velocity=127 time=0.019791666666666666\n",
      "note_on channel=0 note=61 velocity=127 time=0.08333333333333333\n",
      "note_on channel=0 note=60 velocity=127 time=0.007291666666666667\n",
      "note_off channel=0 note=61 velocity=127 time=0.0125\n",
      "note_off channel=0 note=60 velocity=127 time=0.007291666666666667\n",
      "note_on channel=0 note=62 velocity=127 time=0.007291666666666667\n",
      "note_off channel=0 note=62 velocity=127 time=0.019791666666666666\n",
      "note_on channel=0 note=60 velocity=127 time=0.06354166666666666\n",
      "note_off channel=0 note=60 velocity=127 time=0.019791666666666666\n",
      "note_on channel=0 note=61 velocity=127 time=0.008333333333333333\n",
      "note_off channel=0 note=61 velocity=127 time=0.019791666666666666\n",
      "note_on channel=0 note=60 velocity=127 time=0.06145833333333333\n",
      "note_off channel=0 note=60 velocity=127 time=0.019791666666666666\n",
      "note_on channel=0 note=62 velocity=127 time=0.03333333333333333\n",
      "note_on channel=0 note=61 velocity=127 time=0.011458333333333333\n",
      "note_off channel=0 note=62 velocity=127 time=0.008333333333333333\n",
      "note_off channel=0 note=61 velocity=127 time=0.011458333333333333\n",
      "note_on channel=0 note=60 velocity=127 time=0.026041666666666668\n",
      "note_off channel=0 note=60 velocity=127 time=0.019791666666666666\n",
      "note_on channel=0 note=61 velocity=127 time=0.08020833333333333\n",
      "note_on channel=0 note=60 velocity=127 time=0.010416666666666666\n",
      "note_off channel=0 note=61 velocity=127 time=0.010416666666666666\n",
      "note_off channel=0 note=60 velocity=127 time=0.010416666666666666\n",
      "note_on channel=0 note=62 velocity=127 time=0.058333333333333334\n",
      "note_off channel=0 note=62 velocity=127 time=0.019791666666666666\n",
      "note_on channel=0 note=60 velocity=127 time=0.0125\n",
      "note_off channel=0 note=60 velocity=127 time=0.019791666666666666\n",
      "note_on channel=0 note=61 velocity=127 time=0.00625\n",
      "note_off channel=0 note=61 velocity=127 time=0.019791666666666666\n",
      "note_on channel=0 note=60 velocity=127 time=0.06458333333333333\n",
      "note_off channel=0 note=60 velocity=127 time=0.019791666666666666\n",
      "note_on channel=0 note=61 velocity=127 time=0.041666666666666664\n",
      "note_off channel=0 note=61 velocity=127 time=0.019791666666666666\n",
      "note_on channel=0 note=62 velocity=127 time=0.021875\n",
      "note_on channel=0 note=60 velocity=127 time=0.00625\n",
      "note_off channel=0 note=62 velocity=127 time=0.013541666666666667\n",
      "note_off channel=0 note=60 velocity=127 time=0.00625\n",
      "note_on channel=0 note=61 velocity=127 time=0.078125\n",
      "note_on channel=0 note=60 velocity=127 time=0.0125\n",
      "note_off channel=0 note=61 velocity=127 time=0.007291666666666667\n",
      "note_off channel=0 note=60 velocity=127 time=0.0125\n",
      "note_on channel=0 note=60 velocity=127 time=0.090625\n",
      "note_on channel=0 note=62 velocity=127 time=0.01875\n",
      "note_off channel=0 note=60 velocity=127 time=0.0010416666666666667\n",
      "note_on channel=0 note=61 velocity=127 time=0.003125\n",
      "note_off channel=0 note=62 velocity=127 time=0.015625\n",
      "note_off channel=0 note=61 velocity=127 time=0.004166666666666667\n",
      "note_on channel=0 note=60 velocity=127 time=0.06770833333333333\n",
      "note_off channel=0 note=60 velocity=127 time=0.019791666666666666\n",
      "note_on channel=0 note=61 velocity=127 time=0.03854166666666667\n",
      "note_off channel=0 note=61 velocity=127 time=0.019791666666666666\n",
      "note_on channel=0 note=60 velocity=127 time=0.03125\n",
      "note_off channel=0 note=60 velocity=127 time=0.019791666666666666\n",
      "note_on channel=0 note=62 velocity=127 time=0.025\n",
      "note_off channel=0 note=62 velocity=127 time=0.019791666666666666\n",
      "note_on channel=0 note=61 velocity=127 time=0.030208333333333334\n",
      "note_on channel=0 note=60 velocity=127 time=0.015625\n",
      "note_off channel=0 note=61 velocity=127 time=0.004166666666666667\n",
      "note_off channel=0 note=60 velocity=127 time=0.015625\n",
      "note_on channel=0 note=60 velocity=127 time=0.090625\n",
      "note_off channel=0 note=60 velocity=127 time=0.019791666666666666\n",
      "note_on channel=0 note=61 velocity=127 time=0\n",
      "note_off channel=0 note=61 velocity=127 time=0.019791666666666666\n",
      "note_on channel=0 note=62 velocity=127 time=0.030208333333333334\n",
      "note_off channel=0 note=62 velocity=127 time=0.019791666666666666\n",
      "note_on channel=0 note=60 velocity=127 time=0.020833333333333332\n",
      "note_off channel=0 note=60 velocity=127 time=0.019791666666666666\n",
      "note_on channel=0 note=61 velocity=127 time=0.036458333333333336\n",
      "note_off channel=0 note=61 velocity=127 time=0.019791666666666666\n",
      "note_on channel=0 note=60 velocity=127 time=0.034375\n",
      "note_off channel=0 note=60 velocity=127 time=0.019791666666666666\n",
      "note_on channel=0 note=61 velocity=127 time=0.071875\n",
      "note_on channel=0 note=62 velocity=127 time=0.003125\n",
      "note_on channel=0 note=60 velocity=127 time=0.014583333333333334\n",
      "note_off channel=0 note=61 velocity=127 time=0.0020833333333333333\n",
      "note_off channel=0 note=62 velocity=127 time=0.003125\n",
      "note_off channel=0 note=60 velocity=127 time=0.014583333333333334\n",
      "note_on channel=0 note=60 velocity=127 time=0.090625\n",
      "note_on channel=0 note=61 velocity=127 time=0.017708333333333333\n",
      "note_off channel=0 note=60 velocity=127 time=0.0020833333333333333\n",
      "note_off channel=0 note=61 velocity=127 time=0.017708333333333333\n",
      "note_on channel=0 note=60 velocity=127 time=0.07291666666666667\n",
      "note_on channel=0 note=62 velocity=127 time=0.010416666666666666\n",
      "note_off channel=0 note=60 velocity=127 time=0.009375\n",
      "note_off channel=0 note=62 velocity=127 time=0.010416666666666666\n",
      "note_on channel=0 note=61 velocity=127 time=0.022916666666666665\n",
      "note_off channel=0 note=61 velocity=127 time=0.019791666666666666\n",
      "note_on channel=0 note=60 velocity=127 time=0.0375\n",
      "note_off channel=0 note=60 velocity=127 time=0.019791666666666666\n",
      "note_on channel=0 note=61 velocity=127 time=0.06979166666666667\n",
      "note_off channel=0 note=61 velocity=127 time=0.019791666666666666\n",
      "note_on channel=0 note=60 velocity=127 time=0.0010416666666666667\n",
      "note_off channel=0 note=60 velocity=127 time=0.019791666666666666\n",
      "note_on channel=0 note=62 velocity=127 time=0.015625\n",
      "note_off channel=0 note=62 velocity=127 time=0.019791666666666666\n",
      "note_on channel=0 note=60 velocity=127 time=0.05416666666666667\n",
      "note_on channel=0 note=61 velocity=127 time=0.014583333333333334\n",
      "note_off channel=0 note=60 velocity=127 time=0.005208333333333333\n",
      "note_off channel=0 note=61 velocity=127 time=0.014583333333333334\n",
      "note_on channel=0 note=60 velocity=127 time=0.07604166666666666\n",
      "note_off channel=0 note=60 velocity=127 time=0.019791666666666666\n",
      "note_on channel=0 note=61 velocity=127 time=0.030208333333333334\n",
      "note_on channel=0 note=62 velocity=127 time=0.011458333333333333\n",
      "note_off channel=0 note=61 velocity=127 time=0.009375\n",
      "note_off channel=0 note=62 velocity=127 time=0.011458333333333333\n",
      "note_on channel=0 note=60 velocity=127 time=0.029166666666666667\n",
      "note_off channel=0 note=60 velocity=127 time=0.019791666666666666\n",
      "note_on channel=0 note=61 velocity=127 time=0.06666666666666667\n",
      "note_off channel=0 note=61 velocity=127 time=0.019791666666666666\n",
      "note_on channel=0 note=60 velocity=127 time=0.004166666666666667\n",
      "note_off channel=0 note=60 velocity=127 time=0.019791666666666666\n",
      "note_on channel=0 note=62 velocity=127 time=0.06770833333333333\n",
      "\u001b[91m [DEBUG] > \u001b[0m\n",
      " |>  to_array: msg.time > max_t; t, n\n",
      " |>  3.0343750000000007\n",
      " |>  150\n",
      "note_on channel=0 note=60 velocity=127 time=0.014583333333333334\n",
      "note_off channel=0 note=60 velocity=127 time=0.019791666666666666\n",
      "note_on channel=0 note=61 velocity=127 time=0.03333333333333333\n",
      "note_on channel=0 note=62 velocity=127 time=0.005208333333333333\n",
      "note_off channel=0 note=61 velocity=127 time=0.014583333333333334\n",
      "note_off channel=0 note=62 velocity=127 time=0.005208333333333333\n",
      "note_on channel=0 note=60 velocity=127 time=0.019791666666666666\n",
      "note_off channel=0 note=60 velocity=127 time=0.019791666666666666\n",
      "note_on channel=0 note=61 velocity=127 time=0.03333333333333333\n",
      "note_off channel=0 note=61 velocity=127 time=0.019791666666666666\n",
      "note_on channel=0 note=60 velocity=127 time=0.026041666666666668\n",
      "note_off channel=0 note=60 velocity=127 time=0.019791666666666666\n",
      "note_on channel=0 note=62 velocity=127 time=0.01875\n",
      "note_on channel=0 note=61 velocity=127 time=0.014583333333333334\n",
      "note_off channel=0 note=62 velocity=127 time=0.005208333333333333\n",
      "note_off channel=0 note=61 velocity=127 time=0.014583333333333334\n",
      "note_on channel=0 note=60 velocity=127 time=0.026041666666666668\n",
      "note_off channel=0 note=60 velocity=127 time=0.019791666666666666\n",
      "note_on channel=0 note=61 velocity=127 time=0.03333333333333333\n",
      "note_off channel=0 note=61 velocity=127 time=0.019791666666666666\n",
      "note_on channel=0 note=60 velocity=127 time=0.026041666666666668\n",
      "note_on channel=0 note=62 velocity=127 time=0.01875\n",
      "note_off channel=0 note=60 velocity=127 time=0.0010416666666666667\n",
      "note_off channel=0 note=62 velocity=127 time=0.01875\n",
      "note_on channel=0 note=61 velocity=127 time=0.014583333333333334\n",
      "note_off channel=0 note=61 velocity=127 time=0.019791666666666666\n",
      "note_on channel=0 note=60 velocity=127 time=0.026041666666666668\n",
      "note_off channel=0 note=60 velocity=127 time=0.019791666666666666\n",
      "note_on channel=0 note=61 velocity=127 time=0.03333333333333333\n",
      "note_off channel=0 note=61 velocity=127 time=0.019791666666666666\n",
      "note_on channel=0 note=62 velocity=127 time=0.02395833333333333\n",
      "note_on channel=0 note=60 velocity=127 time=0.0020833333333333333\n",
      "note_off channel=0 note=62 velocity=127 time=0.01875\n",
      "note_off channel=0 note=60 velocity=127 time=0.0020833333333333333\n",
      "note_on channel=0 note=61 velocity=127 time=0.03333333333333333\n",
      "note_off channel=0 note=61 velocity=127 time=0.019791666666666666\n",
      "note_on channel=0 note=60 velocity=127 time=0.025\n",
      "note_off channel=0 note=60 velocity=127 time=0.019791666666666666\n",
      "note_on channel=0 note=61 velocity=127 time=0.03333333333333333\n",
      "note_off channel=0 note=61 velocity=127 time=0.019791666666666666\n",
      "note_on channel=0 note=62 velocity=127 time=0.004166666666666667\n",
      "note_off channel=0 note=62 velocity=127 time=0.019791666666666666\n",
      "note_on channel=0 note=60 velocity=127 time=0.0020833333333333333\n",
      "note_off channel=0 note=60 velocity=127 time=0.019791666666666666\n",
      "note_on channel=0 note=61 velocity=127 time=0.03333333333333333\n",
      "note_off channel=0 note=61 velocity=127 time=0.019791666666666666\n",
      "note_on channel=0 note=60 velocity=127 time=0.025\n",
      "note_off channel=0 note=60 velocity=127 time=0.019791666666666666\n",
      "note_on channel=0 note=61 velocity=127 time=0.03333333333333333\n",
      "note_on channel=0 note=62 velocity=127 time=0.003125\n",
      "note_off channel=0 note=61 velocity=127 time=0.016666666666666666\n",
      "note_off channel=0 note=62 velocity=127 time=0.003125\n",
      "note_on channel=0 note=60 velocity=127 time=0.021875\n",
      "note_off channel=0 note=60 velocity=127 time=0.019791666666666666\n",
      "note_on channel=0 note=61 velocity=127 time=0.03333333333333333\n",
      "note_off channel=0 note=61 velocity=127 time=0.019791666666666666\n",
      "note_on channel=0 note=60 velocity=127 time=0.025\n",
      "note_off channel=0 note=60 velocity=127 time=0.019791666666666666\n",
      "note_on channel=0 note=62 velocity=127 time=0.016666666666666666\n",
      "note_on channel=0 note=61 velocity=127 time=0.016666666666666666\n",
      "note_off channel=0 note=62 velocity=127 time=0.003125\n",
      "note_off channel=0 note=61 velocity=127 time=0.016666666666666666\n",
      "note_on channel=0 note=60 velocity=127 time=0.025\n",
      "note_off channel=0 note=60 velocity=127 time=0.019791666666666666\n",
      "note_on channel=0 note=61 velocity=127 time=0.03333333333333333\n",
      "note_off channel=0 note=61 velocity=127 time=0.019791666666666666\n",
      "note_on channel=0 note=60 velocity=127 time=0.025\n",
      "note_on channel=0 note=62 velocity=127 time=0.016666666666666666\n",
      "note_off channel=0 note=60 velocity=127 time=0.003125\n",
      "note_off channel=0 note=62 velocity=127 time=0.016666666666666666\n",
      "note_on channel=0 note=61 velocity=127 time=0.016666666666666666\n",
      "note_off channel=0 note=61 velocity=127 time=0.019791666666666666\n",
      "note_on channel=0 note=60 velocity=127 time=0.025\n",
      "note_off channel=0 note=60 velocity=127 time=0.019791666666666666\n",
      "note_on channel=0 note=61 velocity=127 time=0.034375\n",
      "note_off channel=0 note=61 velocity=127 time=0.019791666666666666\n",
      "note_on channel=0 note=62 velocity=127 time=0.021875\n",
      "note_on channel=0 note=60 velocity=127 time=0.003125\n",
      "note_off channel=0 note=62 velocity=127 time=0.016666666666666666\n",
      "note_off channel=0 note=60 velocity=127 time=0.003125\n",
      "note_on channel=0 note=61 velocity=127 time=0.034375\n",
      "note_off channel=0 note=61 velocity=127 time=0.019791666666666666\n",
      "note_on channel=0 note=60 velocity=127 time=0.025\n",
      "note_off channel=0 note=60 velocity=127 time=0.019791666666666666\n",
      "note_on channel=0 note=61 velocity=127 time=0.034375\n",
      "note_off channel=0 note=61 velocity=127 time=0.019791666666666666\n",
      "note_on channel=0 note=62 velocity=127 time=0.0010416666666666667\n",
      "note_off channel=0 note=62 velocity=127 time=0.019791666666666666\n",
      "note_on channel=0 note=60 velocity=127 time=0.003125\n",
      "note_off channel=0 note=60 velocity=127 time=0.019791666666666666\n",
      "note_on channel=0 note=61 velocity=127 time=0.034375\n",
      "note_off channel=0 note=61 velocity=127 time=0.019791666666666666\n",
      "note_on channel=0 note=60 velocity=127 time=0.025\n",
      "note_off channel=0 note=60 velocity=127 time=0.019791666666666666\n",
      "note_on channel=0 note=61 velocity=127 time=0.034375\n",
      "note_on channel=0 note=62 velocity=127 time=0.0010416666666666667\n",
      "note_off channel=0 note=61 velocity=127 time=0.01875\n",
      "note_off channel=0 note=62 velocity=127 time=0.0010416666666666667\n",
      "note_on channel=0 note=60 velocity=127 time=0.02395833333333333\n",
      "note_off channel=0 note=60 velocity=127 time=0.019791666666666666\n",
      "note_on channel=0 note=61 velocity=127 time=0.034375\n",
      "note_off channel=0 note=61 velocity=127 time=0.019791666666666666\n",
      "note_on channel=0 note=60 velocity=127 time=0.025\n",
      "note_off channel=0 note=60 velocity=127 time=0.019791666666666666\n",
      "note_on channel=0 note=62 velocity=127 time=0.015625\n",
      "note_on channel=0 note=61 velocity=127 time=0.01875\n",
      "note_off channel=0 note=62 velocity=127 time=0.0010416666666666667\n",
      "note_off channel=0 note=61 velocity=127 time=0.01875\n",
      "note_on channel=0 note=60 velocity=127 time=0.025\n",
      "note_off channel=0 note=60 velocity=127 time=0.019791666666666666\n",
      "note_on channel=0 note=61 velocity=127 time=0.034375\n",
      "note_off channel=0 note=61 velocity=127 time=0.019791666666666666\n",
      "note_on channel=0 note=60 velocity=127 time=0.025\n",
      "note_on channel=0 note=62 velocity=127 time=0.014583333333333334\n",
      "note_off channel=0 note=60 velocity=127 time=0.005208333333333333\n",
      "note_off channel=0 note=62 velocity=127 time=0.014583333333333334\n",
      "note_on channel=0 note=61 velocity=127 time=0.019791666666666666\n",
      "note_off channel=0 note=61 velocity=127 time=0.019791666666666666\n",
      "note_on channel=0 note=60 velocity=127 time=0.025\n",
      "note_off channel=0 note=60 velocity=127 time=0.019791666666666666\n",
      "note_on channel=0 note=61 velocity=127 time=0.034375\n",
      "note_off channel=0 note=61 velocity=127 time=0.019791666666666666\n",
      "note_on channel=0 note=62 velocity=127 time=0.019791666666666666\n",
      "note_on channel=0 note=60 velocity=127 time=0.005208333333333333\n",
      "note_off channel=0 note=62 velocity=127 time=0.014583333333333334\n",
      "note_off channel=0 note=60 velocity=127 time=0.005208333333333333\n",
      "note_on channel=0 note=61 velocity=127 time=0.034375\n",
      "note_off channel=0 note=61 velocity=127 time=0.019791666666666666\n",
      "note_on channel=0 note=60 velocity=127 time=0.02395833333333333\n",
      "note_off channel=0 note=60 velocity=127 time=0.019791666666666666\n",
      "note_on channel=0 note=61 velocity=127 time=0.034375\n",
      "note_on channel=0 note=62 velocity=127 time=0.01875\n",
      "note_off channel=0 note=61 velocity=127 time=0.0010416666666666667\n",
      "note_off channel=0 note=62 velocity=127 time=0.01875\n",
      "note_on channel=0 note=60 velocity=127 time=0.005208333333333333\n",
      "note_off channel=0 note=60 velocity=127 time=0.019791666666666666\n",
      "note_on channel=0 note=61 velocity=127 time=0.034375\n",
      "note_off channel=0 note=61 velocity=127 time=0.019791666666666666\n",
      "note_on channel=0 note=60 velocity=127 time=0.02395833333333333\n",
      "note_off channel=0 note=60 velocity=127 time=0.019791666666666666\n",
      "note_on channel=0 note=62 velocity=127 time=0.03333333333333333\n",
      "note_on channel=0 note=61 velocity=127 time=0.0010416666666666667\n",
      "note_off channel=0 note=62 velocity=127 time=0.01875\n",
      "note_off channel=0 note=61 velocity=127 time=0.0010416666666666667\n",
      "note_on channel=0 note=60 velocity=127 time=0.02395833333333333\n",
      "note_off channel=0 note=60 velocity=127 time=0.019791666666666666\n",
      "note_on channel=0 note=61 velocity=127 time=0.034375\n",
      "note_off channel=0 note=61 velocity=127 time=0.019791666666666666\n",
      "note_on channel=0 note=60 velocity=127 time=0.02395833333333333\n",
      "note_off channel=0 note=60 velocity=127 time=0.019791666666666666\n",
      "note_on channel=0 note=62 velocity=127 time=0.013541666666666667\n",
      "note_off channel=0 note=62 velocity=127 time=0.019791666666666666\n",
      "note_on channel=0 note=61 velocity=127 time=0.0010416666666666667\n",
      "note_off channel=0 note=61 velocity=127 time=0.019791666666666666\n",
      "note_on channel=0 note=60 velocity=127 time=0.02395833333333333\n",
      "note_off channel=0 note=60 velocity=127 time=0.019791666666666666\n",
      "note_on channel=0 note=61 velocity=127 time=0.034375\n",
      "\u001b[91m [DEBUG] > \u001b[0m\n",
      " |>  to_array: msg.time > max_t; t, n\n",
      " |>  3.0229166666666676\n",
      " |>  150\n",
      "note_on channel=0 note=62 velocity=127 time=0.034375\n",
      "note_on channel=0 note=60 velocity=127 time=0.0010416666666666667\n",
      "note_off channel=0 note=62 velocity=127 time=0.01875\n",
      "note_off channel=0 note=60 velocity=127 time=0.0010416666666666667\n",
      "note_on channel=0 note=61 velocity=127 time=0.021875\n",
      "note_off channel=0 note=61 velocity=127 time=0.019791666666666666\n",
      "note_on channel=0 note=62 velocity=127 time=0.029166666666666667\n",
      "note_off channel=0 note=62 velocity=127 time=0.019791666666666666\n",
      "note_on channel=0 note=60 velocity=127 time=0.021875\n",
      "note_on channel=0 note=61 velocity=127 time=0\n",
      "note_off channel=0 note=60 velocity=127 time=0.019791666666666666\n",
      "note_off channel=0 note=61 velocity=127 time=0\n",
      "note_on channel=0 note=62 velocity=127 time=0.030208333333333334\n",
      "note_off channel=0 note=62 velocity=127 time=0.019791666666666666\n",
      "note_on channel=0 note=61 velocity=127 time=0.019791666666666666\n",
      "note_off channel=0 note=61 velocity=127 time=0.019791666666666666\n",
      "note_on channel=0 note=60 velocity=127 time=0.021875\n",
      "note_on channel=0 note=62 velocity=127 time=0.010416666666666666\n",
      "note_off channel=0 note=60 velocity=127 time=0.009375\n",
      "note_off channel=0 note=62 velocity=127 time=0.010416666666666666\n",
      "note_on channel=0 note=61 velocity=127 time=0.01875\n",
      "note_off channel=0 note=61 velocity=127 time=0.019791666666666666\n",
      "note_on channel=0 note=62 velocity=127 time=0.034375\n",
      "note_off channel=0 note=62 velocity=127 time=0.019791666666666666\n",
      "note_on channel=0 note=60 velocity=127 time=0.009375\n",
      "note_on channel=0 note=61 velocity=127 time=0.007291666666666667\n",
      "note_off channel=0 note=60 velocity=127 time=0.0125\n",
      "note_off channel=0 note=61 velocity=127 time=0.007291666666666667\n",
      "note_on channel=0 note=62 velocity=127 time=0.035416666666666666\n",
      "note_off channel=0 note=62 velocity=127 time=0.019791666666666666\n",
      "note_on channel=0 note=61 velocity=127 time=0.015625\n",
      "note_off channel=0 note=61 velocity=127 time=0.019791666666666666\n",
      "note_on channel=0 note=60 velocity=127 time=0.014583333333333334\n",
      "note_off channel=0 note=60 velocity=127 time=0.019791666666666666\n",
      "note_on channel=0 note=62 velocity=127 time=0.003125\n",
      "note_off channel=0 note=62 velocity=127 time=0.019791666666666666\n",
      "note_on channel=0 note=61 velocity=127 time=0.013541666666666667\n",
      "note_off channel=0 note=61 velocity=127 time=0.019791666666666666\n",
      "note_on channel=0 note=62 velocity=127 time=0.03854166666666667\n",
      "note_on channel=0 note=60 velocity=127 time=0.017708333333333333\n",
      "note_off channel=0 note=62 velocity=127 time=0.0020833333333333333\n",
      "note_on channel=0 note=61 velocity=127 time=0.0125\n",
      "note_off channel=0 note=60 velocity=127 time=0.005208333333333333\n",
      "note_off channel=0 note=61 velocity=127 time=0.014583333333333334\n",
      "note_on channel=0 note=62 velocity=127 time=0.040625\n",
      "note_off channel=0 note=62 velocity=127 time=0.019791666666666666\n",
      "note_on channel=0 note=61 velocity=127 time=0.010416666666666666\n",
      "note_off channel=0 note=61 velocity=127 time=0.019791666666666666\n",
      "note_on channel=0 note=60 velocity=127 time=0.007291666666666667\n",
      "note_off channel=0 note=60 velocity=127 time=0.019791666666666666\n",
      "note_on channel=0 note=62 velocity=127 time=0.014583333333333334\n",
      "note_off channel=0 note=62 velocity=127 time=0.019791666666666666\n",
      "note_on channel=0 note=61 velocity=127 time=0.008333333333333333\n",
      "note_off channel=0 note=61 velocity=127 time=0.019791666666666666\n",
      "note_on channel=0 note=62 velocity=127 time=0.04375\n",
      "note_on channel=0 note=60 velocity=127 time=0.005208333333333333\n",
      "note_off channel=0 note=62 velocity=127 time=0.014583333333333334\n",
      "note_off channel=0 note=60 velocity=127 time=0.005208333333333333\n",
      "note_on channel=0 note=61 velocity=127 time=0.0020833333333333333\n",
      "note_off channel=0 note=61 velocity=127 time=0.019791666666666666\n",
      "note_on channel=0 note=62 velocity=127 time=0.04479166666666667\n",
      "note_off channel=0 note=62 velocity=127 time=0.019791666666666666\n",
      "note_on channel=0 note=61 velocity=127 time=0.005208333333333333\n",
      "note_off channel=0 note=61 velocity=127 time=0.019791666666666666\n",
      "note_on channel=0 note=60 velocity=127 time=0\n",
      "note_off channel=0 note=60 velocity=127 time=0.019791666666666666\n",
      "note_on channel=0 note=62 velocity=127 time=0.027083333333333334\n",
      "note_off channel=0 note=62 velocity=127 time=0.019791666666666666\n",
      "note_on channel=0 note=61 velocity=127 time=0.004166666666666667\n",
      "note_off channel=0 note=61 velocity=127 time=0.019791666666666666\n",
      "note_on channel=0 note=60 velocity=127 time=0.041666666666666664\n",
      "note_on channel=0 note=62 velocity=127 time=0.00625\n",
      "note_off channel=0 note=60 velocity=127 time=0.013541666666666667\n",
      "note_off channel=0 note=62 velocity=127 time=0.00625\n",
      "note_on channel=0 note=61 velocity=127 time=0.0020833333333333333\n",
      "note_off channel=0 note=61 velocity=127 time=0.019791666666666666\n",
      "note_on channel=0 note=62 velocity=127 time=0.05\n",
      "note_off channel=0 note=62 velocity=127 time=0.019791666666666666\n",
      "note_on channel=0 note=61 velocity=127 time=0.0010416666666666667\n",
      "note_on channel=0 note=60 velocity=127 time=0.013541666666666667\n",
      "note_off channel=0 note=61 velocity=127 time=0.007291666666666667\n",
      "note_off channel=0 note=60 velocity=127 time=0.013541666666666667\n",
      "note_on channel=0 note=62 velocity=127 time=0.03854166666666667\n",
      "note_on channel=0 note=61 velocity=127 time=0.01875\n",
      "note_off channel=0 note=62 velocity=127 time=0.0010416666666666667\n",
      "note_off channel=0 note=61 velocity=127 time=0.01875\n",
      "note_on channel=0 note=60 velocity=127 time=0.035416666666666666\n",
      "note_on channel=0 note=62 velocity=127 time=0.01875\n",
      "note_off channel=0 note=60 velocity=127 time=0.0020833333333333333\n",
      "note_on channel=0 note=61 velocity=127 time=0.015625\n",
      "note_off channel=0 note=62 velocity=127 time=0.0020833333333333333\n",
      "note_off channel=0 note=61 velocity=127 time=0.017708333333333333\n",
      "note_on channel=0 note=62 velocity=127 time=0.05520833333333333\n",
      "note_on channel=0 note=61 velocity=127 time=0.015625\n",
      "note_off channel=0 note=62 velocity=127 time=0.004166666666666667\n",
      "note_on channel=0 note=60 velocity=127 time=0.0020833333333333333\n",
      "note_off channel=0 note=61 velocity=127 time=0.013541666666666667\n",
      "note_off channel=0 note=60 velocity=127 time=0.00625\n",
      "note_on channel=0 note=62 velocity=127 time=0.05\n",
      "note_on channel=0 note=61 velocity=127 time=0.014583333333333334\n",
      "note_off channel=0 note=62 velocity=127 time=0.005208333333333333\n",
      "note_off channel=0 note=61 velocity=127 time=0.014583333333333334\n",
      "note_on channel=0 note=60 velocity=127 time=0.028125\n",
      "note_off channel=0 note=60 velocity=127 time=0.019791666666666666\n",
      "note_on channel=0 note=62 velocity=127 time=0.010416666666666666\n",
      "note_on channel=0 note=61 velocity=127 time=0.0125\n",
      "note_off channel=0 note=62 velocity=127 time=0.007291666666666667\n",
      "note_off channel=0 note=61 velocity=127 time=0.0125\n",
      "note_on channel=0 note=62 velocity=127 time=0.059375\n",
      "note_on channel=0 note=60 velocity=127 time=0.010416666666666666\n",
      "note_on channel=0 note=61 velocity=127 time=0.0010416666666666667\n",
      "note_off channel=0 note=62 velocity=127 time=0.009375\n",
      "note_off channel=0 note=60 velocity=127 time=0.010416666666666666\n",
      "note_off channel=0 note=61 velocity=127 time=0.0010416666666666667\n",
      "note_on channel=0 note=62 velocity=127 time=0.06145833333333333\n",
      "note_on channel=0 note=61 velocity=127 time=0.009375\n",
      "note_off channel=0 note=62 velocity=127 time=0.010416666666666666\n",
      "note_off channel=0 note=61 velocity=127 time=0.009375\n",
      "note_on channel=0 note=60 velocity=127 time=0.020833333333333332\n",
      "note_off channel=0 note=60 velocity=127 time=0.019791666666666666\n",
      "note_on channel=0 note=62 velocity=127 time=0.021875\n",
      "note_on channel=0 note=61 velocity=127 time=0.008333333333333333\n",
      "note_off channel=0 note=62 velocity=127 time=0.0125\n",
      "note_off channel=0 note=61 velocity=127 time=0.008333333333333333\n",
      "note_on channel=0 note=60 velocity=127 time=0.0625\n",
      "note_on channel=0 note=62 velocity=127 time=0.0020833333333333333\n",
      "note_on channel=0 note=61 velocity=127 time=0.00625\n",
      "note_off channel=0 note=60 velocity=127 time=0.011458333333333333\n",
      "note_off channel=0 note=62 velocity=127 time=0.0020833333333333333\n",
      "note_off channel=0 note=61 velocity=127 time=0.00625\n",
      "note_on channel=0 note=62 velocity=127 time=0.065625\n",
      "note_on channel=0 note=61 velocity=127 time=0.005208333333333333\n",
      "note_off channel=0 note=62 velocity=127 time=0.015625\n",
      "note_off channel=0 note=61 velocity=127 time=0.005208333333333333\n",
      "note_on channel=0 note=60 velocity=127 time=0.013541666666666667\n",
      "note_off channel=0 note=60 velocity=127 time=0.019791666666666666\n",
      "note_on channel=0 note=62 velocity=127 time=0.034375\n",
      "note_on channel=0 note=61 velocity=127 time=0.003125\n",
      "note_off channel=0 note=62 velocity=127 time=0.016666666666666666\n",
      "note_off channel=0 note=61 velocity=127 time=0.003125\n",
      "note_on channel=0 note=60 velocity=127 time=0.05520833333333333\n",
      "note_on channel=0 note=62 velocity=127 time=0.013541666666666667\n",
      "note_on channel=0 note=61 velocity=127 time=0.0010416666666666667\n",
      "note_off channel=0 note=60 velocity=127 time=0.005208333333333333\n",
      "note_off channel=0 note=62 velocity=127 time=0.013541666666666667\n",
      "note_off channel=0 note=61 velocity=127 time=0.0010416666666666667\n",
      "note_on channel=0 note=61 velocity=127 time=0.07083333333333333\n",
      "note_on channel=0 note=62 velocity=127 time=0\n",
      "note_off channel=0 note=61 velocity=127 time=0.019791666666666666\n",
      "note_off channel=0 note=62 velocity=127 time=0\n",
      "note_on channel=0 note=60 velocity=127 time=0.00625\n",
      "note_off channel=0 note=60 velocity=127 time=0.019791666666666666\n",
      "note_on channel=0 note=61 velocity=127 time=0.04375\n",
      "note_on channel=0 note=62 velocity=127 time=0.0020833333333333333\n",
      "note_off channel=0 note=61 velocity=127 time=0.01875\n",
      "note_off channel=0 note=62 velocity=127 time=0.0020833333333333333\n",
      "note_on channel=0 note=60 velocity=127 time=0.046875\n",
      "note_off channel=0 note=60 velocity=127 time=0.019791666666666666\n",
      "note_on channel=0 note=61 velocity=127 time=0.0020833333333333333\n",
      "note_on channel=0 note=62 velocity=127 time=0.003125\n",
      "note_off channel=0 note=61 velocity=127 time=0.016666666666666666\n",
      "note_off channel=0 note=62 velocity=127 time=0.003125\n",
      "note_on channel=0 note=61 velocity=127 time=0.06770833333333333\n",
      "note_on channel=0 note=62 velocity=127 time=0.005208333333333333\n",
      "note_on channel=0 note=60 velocity=127 time=0.014583333333333334\n",
      "note_off channel=0 note=61 velocity=127 time=0\n",
      "note_off channel=0 note=62 velocity=127 time=0.005208333333333333\n",
      "note_off channel=0 note=60 velocity=127 time=0.014583333333333334\n",
      "note_on channel=0 note=61 velocity=127 time=0.051041666666666666\n",
      "note_on channel=0 note=62 velocity=127 time=0.00625\n",
      "note_off channel=0 note=61 velocity=127 time=0.013541666666666667\n",
      "note_off channel=0 note=62 velocity=127 time=0.00625\n",
      "note_on channel=0 note=60 velocity=127 time=0.034375\n",
      "note_off channel=0 note=60 velocity=127 time=0.019791666666666666\n",
      "note_on channel=0 note=61 velocity=127 time=0.009375\n",
      "note_on channel=0 note=62 velocity=127 time=0.008333333333333333\n",
      "note_off channel=0 note=61 velocity=127 time=0.011458333333333333\n",
      "\u001b[91m [DEBUG] > \u001b[0m\n",
      " |>  to_array: msg.time > max_t; t, n\n",
      " |>  2.995833333333334\n",
      " |>  150\n",
      "note_on channel=0 note=60 velocity=127 time=0.03333333333333333\n",
      "note_on channel=0 note=62 velocity=127 time=0.008333333333333333\n",
      "note_off channel=0 note=60 velocity=127 time=0.011458333333333333\n",
      "note_on channel=0 note=61 velocity=127 time=0.007291666666666667\n",
      "note_off channel=0 note=62 velocity=127 time=0.0010416666666666667\n",
      "note_off channel=0 note=61 velocity=127 time=0.01875\n",
      "note_on channel=0 note=60 velocity=127 time=0.03229166666666666\n",
      "note_off channel=0 note=60 velocity=127 time=0.019791666666666666\n",
      "note_on channel=0 note=62 velocity=127 time=0.003125\n",
      "note_on channel=0 note=61 velocity=127 time=0.008333333333333333\n",
      "note_off channel=0 note=62 velocity=127 time=0.011458333333333333\n",
      "note_off channel=0 note=61 velocity=127 time=0.008333333333333333\n",
      "note_on channel=0 note=60 velocity=127 time=0.028125\n",
      "note_off channel=0 note=60 velocity=127 time=0.019791666666666666\n",
      "note_on channel=0 note=61 velocity=127 time=0.015625\n",
      "note_on channel=0 note=62 velocity=127 time=0.0020833333333333333\n",
      "note_off channel=0 note=61 velocity=127 time=0.017708333333333333\n",
      "note_off channel=0 note=62 velocity=127 time=0.0020833333333333333\n",
      "note_on channel=0 note=60 velocity=127 time=0.021875\n",
      "note_off channel=0 note=60 velocity=127 time=0.019791666666666666\n",
      "note_on channel=0 note=61 velocity=127 time=0.01875\n",
      "note_on channel=0 note=62 velocity=127 time=0.0125\n",
      "note_off channel=0 note=61 velocity=127 time=0.007291666666666667\n",
      "note_off channel=0 note=62 velocity=127 time=0.0125\n",
      "note_on channel=0 note=60 velocity=127 time=0.007291666666666667\n",
      "note_off channel=0 note=60 velocity=127 time=0.019791666666666666\n",
      "note_on channel=0 note=61 velocity=127 time=0.022916666666666665\n",
      "note_off channel=0 note=61 velocity=127 time=0.019791666666666666\n",
      "note_on channel=0 note=62 velocity=127 time=0.003125\n",
      "note_on channel=0 note=60 velocity=127 time=0.0125\n",
      "note_off channel=0 note=62 velocity=127 time=0.007291666666666667\n",
      "note_off channel=0 note=60 velocity=127 time=0.0125\n",
      "note_on channel=0 note=61 velocity=127 time=0.027083333333333334\n",
      "note_off channel=0 note=61 velocity=127 time=0.019791666666666666\n",
      "note_on channel=0 note=60 velocity=127 time=0.0125\n",
      "note_on channel=0 note=62 velocity=127 time=0.0020833333333333333\n",
      "note_off channel=0 note=60 velocity=127 time=0.01875\n",
      "note_off channel=0 note=62 velocity=127 time=0.0020833333333333333\n",
      "note_on channel=0 note=61 velocity=127 time=0.029166666666666667\n",
      "note_off channel=0 note=61 velocity=127 time=0.019791666666666666\n",
      "note_on channel=0 note=60 velocity=127 time=0.009375\n",
      "note_on channel=0 note=62 velocity=127 time=0.015625\n",
      "note_off channel=0 note=60 velocity=127 time=0.004166666666666667\n",
      "note_off channel=0 note=62 velocity=127 time=0.015625\n",
      "note_on channel=0 note=61 velocity=127 time=0.01875\n",
      "note_off channel=0 note=61 velocity=127 time=0.019791666666666666\n",
      "note_on channel=0 note=60 velocity=127 time=0.005208333333333333\n",
      "note_off channel=0 note=60 velocity=127 time=0.019791666666666666\n",
      "note_on channel=0 note=62 velocity=127 time=0.010416666666666666\n",
      "note_off channel=0 note=62 velocity=127 time=0.019791666666666666\n",
      "note_on channel=0 note=61 velocity=127 time=0.007291666666666667\n",
      "note_off channel=0 note=61 velocity=127 time=0.019791666666666666\n",
      "note_on channel=0 note=60 velocity=127 time=0.0010416666666666667\n",
      "note_off channel=0 note=60 velocity=127 time=0.019791666666666666\n",
      "note_on channel=0 note=62 velocity=127 time=0.025\n",
      "note_on channel=0 note=61 velocity=127 time=0.016666666666666666\n",
      "note_off channel=0 note=62 velocity=127 time=0.003125\n",
      "note_on channel=0 note=60 velocity=127 time=0.014583333333333334\n",
      "note_off channel=0 note=61 velocity=127 time=0.0020833333333333333\n",
      "note_off channel=0 note=60 velocity=127 time=0.017708333333333333\n",
      "note_on channel=0 note=62 velocity=127 time=0.03958333333333333\n",
      "note_on channel=0 note=61 velocity=127 time=0.00625\n",
      "note_on channel=0 note=60 velocity=127 time=0.013541666666666667\n",
      "note_off channel=0 note=62 velocity=127 time=0\n",
      "note_off channel=0 note=61 velocity=127 time=0.00625\n",
      "note_off channel=0 note=60 velocity=127 time=0.013541666666666667\n",
      "note_on channel=0 note=61 velocity=127 time=0.05\n",
      "note_on channel=0 note=62 velocity=127 time=0.004166666666666667\n",
      "note_on channel=0 note=60 velocity=127 time=0.005208333333333333\n",
      "note_off channel=0 note=61 velocity=127 time=0.010416666666666666\n",
      "note_off channel=0 note=62 velocity=127 time=0.004166666666666667\n",
      "note_off channel=0 note=60 velocity=127 time=0.005208333333333333\n",
      "note_on channel=0 note=61 velocity=127 time=0.05416666666666667\n",
      "note_on channel=0 note=60 velocity=127 time=0.00625\n",
      "note_on channel=0 note=62 velocity=127 time=0.009375\n",
      "note_off channel=0 note=61 velocity=127 time=0.005208333333333333\n",
      "note_off channel=0 note=60 velocity=127 time=0.00625\n",
      "note_off channel=0 note=62 velocity=127 time=0.009375\n",
      "note_on channel=0 note=61 velocity=127 time=0.04791666666666666\n",
      "note_on channel=0 note=60 velocity=127 time=0.0020833333333333333\n",
      "note_off channel=0 note=61 velocity=127 time=0.017708333333333333\n",
      "note_off channel=0 note=60 velocity=127 time=0.0020833333333333333\n",
      "note_on channel=0 note=62 velocity=127 time=0.004166666666666667\n",
      "note_off channel=0 note=62 velocity=127 time=0.019791666666666666\n",
      "note_on channel=0 note=60 velocity=127 time=0.035416666666666666\n",
      "note_on channel=0 note=61 velocity=127 time=0.0020833333333333333\n",
      "note_off channel=0 note=60 velocity=127 time=0.01875\n",
      "note_off channel=0 note=61 velocity=127 time=0.0020833333333333333\n",
      "note_on channel=0 note=62 velocity=127 time=0.016666666666666666\n",
      "note_off channel=0 note=62 velocity=127 time=0.019791666666666666\n",
      "note_on channel=0 note=60 velocity=127 time=0.020833333333333332\n",
      "note_on channel=0 note=61 velocity=127 time=0.005208333333333333\n",
      "note_off channel=0 note=60 velocity=127 time=0.014583333333333334\n",
      "note_off channel=0 note=61 velocity=127 time=0.005208333333333333\n",
      "note_on channel=0 note=62 velocity=127 time=0.027083333333333334\n",
      "note_off channel=0 note=62 velocity=127 time=0.019791666666666666\n",
      "note_on channel=0 note=60 velocity=127 time=0.00625\n",
      "note_on channel=0 note=61 velocity=127 time=0.009375\n",
      "note_off channel=0 note=60 velocity=127 time=0.010416666666666666\n",
      "note_off channel=0 note=61 velocity=127 time=0.009375\n",
      "note_on channel=0 note=62 velocity=127 time=0.0375\n",
      "note_on channel=0 note=60 velocity=127 time=0.0125\n",
      "note_off channel=0 note=62 velocity=127 time=0.007291666666666667\n",
      "note_on channel=0 note=61 velocity=127 time=0.005208333333333333\n",
      "note_off channel=0 note=60 velocity=127 time=0.00625\n",
      "note_off channel=0 note=61 velocity=127 time=0.013541666666666667\n",
      "note_on channel=0 note=60 velocity=127 time=0.04583333333333333\n",
      "note_on channel=0 note=62 velocity=127 time=0.0020833333333333333\n",
      "note_on channel=0 note=61 velocity=127 time=0.014583333333333334\n",
      "note_off channel=0 note=60 velocity=127 time=0.003125\n",
      "note_off channel=0 note=62 velocity=127 time=0.0020833333333333333\n",
      "note_off channel=0 note=61 velocity=127 time=0.014583333333333334\n",
      "note_on channel=0 note=60 velocity=127 time=0.042708333333333334\n",
      "note_on channel=0 note=62 velocity=127 time=0.016666666666666666\n",
      "note_off channel=0 note=60 velocity=127 time=0.003125\n",
      "note_on channel=0 note=61 velocity=127 time=0.0010416666666666667\n",
      "note_off channel=0 note=62 velocity=127 time=0.015625\n",
      "note_off channel=0 note=61 velocity=127 time=0.004166666666666667\n",
      "note_on channel=0 note=60 velocity=127 time=0.03854166666666667\n",
      "note_off channel=0 note=60 velocity=127 time=0.019791666666666666\n",
      "note_on channel=0 note=61 velocity=127 time=0.005208333333333333\n"
     ]
    },
    {
     "name": "stdout",
     "output_type": "stream",
     "text": [
      "note_on channel=0 note=62 velocity=127 time=0.00625\n",
      "note_off channel=0 note=61 velocity=127 time=0.013541666666666667\n",
      "note_off channel=0 note=62 velocity=127 time=0.00625\n",
      "note_on channel=0 note=60 velocity=127 time=0.028125\n",
      "note_off channel=0 note=60 velocity=127 time=0.019791666666666666\n",
      "note_on channel=0 note=61 velocity=127 time=0.008333333333333333\n",
      "note_on channel=0 note=62 velocity=127 time=0.017708333333333333\n",
      "note_off channel=0 note=61 velocity=127 time=0.003125\n",
      "note_off channel=0 note=62 velocity=127 time=0.017708333333333333\n",
      "note_on channel=0 note=60 velocity=127 time=0.013541666666666667\n",
      "note_off channel=0 note=60 velocity=127 time=0.019791666666666666\n",
      "note_on channel=0 note=61 velocity=127 time=0.0125\n",
      "note_off channel=0 note=61 velocity=127 time=0.019791666666666666\n",
      "note_on channel=0 note=62 velocity=127 time=0.008333333333333333\n",
      "note_on channel=0 note=60 velocity=127 time=0.01875\n",
      "note_off channel=0 note=62 velocity=127 time=0.0010416666666666667\n",
      "note_off channel=0 note=60 velocity=127 time=0.01875\n",
      "note_on channel=0 note=61 velocity=127 time=0.016666666666666666\n",
      "note_off channel=0 note=61 velocity=127 time=0.019791666666666666\n",
      "note_on channel=0 note=62 velocity=127 time=0.01875\n",
      "note_on channel=0 note=60 velocity=127 time=0.004166666666666667\n",
      "note_off channel=0 note=62 velocity=127 time=0.015625\n",
      "note_off channel=0 note=60 velocity=127 time=0.004166666666666667\n",
      "note_on channel=0 note=61 velocity=127 time=0.019791666666666666\n",
      "note_off channel=0 note=61 velocity=127 time=0.019791666666666666\n",
      "note_on channel=0 note=60 velocity=127 time=0.019791666666666666\n",
      "note_on channel=0 note=62 velocity=127 time=0.010416666666666666\n",
      "note_off channel=0 note=60 velocity=127 time=0.010416666666666666\n",
      "note_off channel=0 note=62 velocity=127 time=0.010416666666666666\n",
      "note_on channel=0 note=61 velocity=127 time=0.013541666666666667\n",
      "note_off channel=0 note=61 velocity=127 time=0.019791666666666666\n",
      "note_on channel=0 note=60 velocity=127 time=0.015625\n",
      "note_off channel=0 note=60 velocity=127 time=0.019791666666666666\n",
      "note_on channel=0 note=62 velocity=127 time=0.004166666666666667\n",
      "note_off channel=0 note=62 velocity=127 time=0.019791666666666666\n",
      "note_on channel=0 note=61 velocity=127 time=0.003125\n",
      "note_off channel=0 note=61 velocity=127 time=0.019791666666666666\n",
      "note_on channel=0 note=60 velocity=127 time=0.011458333333333333\n",
      "note_off channel=0 note=60 velocity=127 time=0.019791666666666666\n",
      "note_on channel=0 note=62 velocity=127 time=0.01875\n",
      "note_on channel=0 note=61 velocity=127 time=0.0125\n",
      "note_off channel=0 note=62 velocity=127 time=0.007291666666666667\n",
      "note_off channel=0 note=61 velocity=127 time=0.0125\n",
      "note_on channel=0 note=60 velocity=127 time=0.008333333333333333\n",
      "note_off channel=0 note=60 velocity=127 time=0.019791666666666666\n",
      "note_on channel=0 note=62 velocity=127 time=0.03333333333333333\n",
      "note_on channel=0 note=61 velocity=127 time=0.0020833333333333333\n",
      "note_off channel=0 note=62 velocity=127 time=0.017708333333333333\n",
      "note_off channel=0 note=61 velocity=127 time=0.0020833333333333333\n",
      "note_on channel=0 note=60 velocity=127 time=0.004166666666666667\n",
      "note_off channel=0 note=60 velocity=127 time=0.019791666666666666\n",
      "note_on channel=0 note=61 velocity=127 time=0.03958333333333333\n",
      "note_on channel=0 note=62 velocity=127 time=0.008333333333333333\n",
      "note_off channel=0 note=61 velocity=127 time=0.011458333333333333\n",
      "note_on channel=0 note=60 velocity=127 time=0\n",
      "note_off channel=0 note=62 velocity=127 time=0.008333333333333333\n",
      "note_off channel=0 note=60 velocity=127 time=0.011458333333333333\n",
      "note_on channel=0 note=61 velocity=127 time=0.042708333333333334\n",
      "note_on channel=0 note=60 velocity=127 time=0.016666666666666666\n",
      "note_on channel=0 note=62 velocity=127 time=0.003125\n",
      "note_off channel=0 note=61 velocity=127 time=0\n",
      "note_off channel=0 note=60 velocity=127 time=0.016666666666666666\n",
      "note_off channel=0 note=62 velocity=127 time=0.003125\n",
      "note_on channel=0 note=61 velocity=127 time=0.04375\n",
      "note_on channel=0 note=60 velocity=127 time=0.0125\n",
      "note_off channel=0 note=61 velocity=127 time=0.007291666666666667\n",
      "note_on channel=0 note=62 velocity=127 time=0.010416666666666666\n",
      "note_off channel=0 note=60 velocity=127 time=0.0020833333333333333\n",
      "note_off channel=0 note=62 velocity=127 time=0.017708333333333333\n",
      "note_on channel=0 note=61 velocity=127 time=0.03333333333333333\n",
      "note_on channel=0 note=60 velocity=127 time=0.008333333333333333\n",
      "note_off channel=0 note=61 velocity=127 time=0.011458333333333333\n",
      "note_off channel=0 note=60 velocity=127 time=0.008333333333333333\n",
      "note_on channel=0 note=62 velocity=127 time=0.0125\n",
      "note_off channel=0 note=62 velocity=127 time=0.019791666666666666\n",
      "note_on channel=0 note=61 velocity=127 time=0.022916666666666665\n",
      "note_on channel=0 note=60 velocity=127 time=0.005208333333333333\n",
      "note_off channel=0 note=61 velocity=127 time=0.014583333333333334\n",
      "note_off channel=0 note=60 velocity=127 time=0.005208333333333333\n",
      "note_on channel=0 note=62 velocity=127 time=0.027083333333333334\n",
      "note_off channel=0 note=62 velocity=127 time=0.019791666666666666\n",
      "note_on channel=0 note=61 velocity=127 time=0.011458333333333333\n",
      "note_on channel=0 note=60 velocity=127 time=0.0010416666666666667\n",
      "note_off channel=0 note=61 velocity=127 time=0.01875\n",
      "note_off channel=0 note=60 velocity=127 time=0.0010416666666666667\n",
      "note_on channel=0 note=62 velocity=127 time=0.041666666666666664\n",
      "note_on channel=0 note=60 velocity=127 time=0.01875\n",
      "note_off channel=0 note=62 velocity=127 time=0.0020833333333333333\n",
      "note_on channel=0 note=61 velocity=127 time=0.0010416666666666667\n",
      "note_off channel=0 note=60 velocity=127 time=0.017708333333333333\n",
      "note_off channel=0 note=61 velocity=127 time=0.003125\n",
      "note_on channel=0 note=62 velocity=127 time=0.053125\n",
      "\u001b[91m [DEBUG] > \u001b[0m\n",
      " |>  to_array: msg.time > max_t; t, n\n",
      " |>  3.0427083333333336\n",
      " |>  150\n",
      "note_on channel=0 note=61 velocity=127 time=0.0010416666666666667\n",
      "note_off channel=0 note=61 velocity=127 time=0.019791666666666666\n",
      "note_on channel=0 note=62 velocity=127 time=0.06770833333333333\n",
      "note_off channel=0 note=62 velocity=127 time=0.019791666666666666\n",
      "note_on channel=0 note=60 velocity=127 time=0.011458333333333333\n",
      "note_off channel=0 note=60 velocity=127 time=0.019791666666666666\n",
      "note_on channel=0 note=62 velocity=127 time=0.06354166666666666\n",
      "note_on channel=0 note=61 velocity=127 time=0.009375\n",
      "note_off channel=0 note=62 velocity=127 time=0.010416666666666666\n",
      "note_off channel=0 note=61 velocity=127 time=0.009375\n",
      "note_on channel=0 note=60 velocity=127 time=0.009375\n",
      "note_off channel=0 note=60 velocity=127 time=0.019791666666666666\n",
      "note_on channel=0 note=62 velocity=127 time=0.05520833333333333\n",
      "note_off channel=0 note=62 velocity=127 time=0.019791666666666666\n",
      "note_on channel=0 note=60 velocity=127 time=0.027083333333333334\n",
      "note_off channel=0 note=60 velocity=127 time=0.019791666666666666\n",
      "note_on channel=0 note=61 velocity=127 time=0.03958333333333333\n",
      "note_on channel=0 note=62 velocity=127 time=0.008333333333333333\n",
      "note_off channel=0 note=61 velocity=127 time=0.011458333333333333\n",
      "note_off channel=0 note=62 velocity=127 time=0.008333333333333333\n",
      "note_on channel=0 note=60 velocity=127 time=0.034375\n",
      "note_off channel=0 note=60 velocity=127 time=0.019791666666666666\n",
      "note_on channel=0 note=62 velocity=127 time=0.040625\n",
      "note_off channel=0 note=62 velocity=127 time=0.019791666666666666\n",
      "note_on channel=0 note=60 velocity=127 time=0.041666666666666664\n",
      "note_off channel=0 note=60 velocity=127 time=0.019791666666666666\n",
      "note_on channel=0 note=61 velocity=127 time=0.007291666666666667\n",
      "note_off channel=0 note=61 velocity=127 time=0.019791666666666666\n",
      "note_on channel=0 note=62 velocity=127 time=0.00625\n",
      "note_off channel=0 note=62 velocity=127 time=0.019791666666666666\n",
      "note_on channel=0 note=60 velocity=127 time=0.04895833333333333\n",
      "note_off channel=0 note=60 velocity=127 time=0.019791666666666666\n",
      "note_on channel=0 note=62 velocity=127 time=0.026041666666666668\n",
      "note_off channel=0 note=62 velocity=127 time=0.019791666666666666\n",
      "note_on channel=0 note=61 velocity=127 time=0.051041666666666666\n",
      "note_on channel=0 note=60 velocity=127 time=0.00625\n",
      "note_off channel=0 note=61 velocity=127 time=0.014583333333333334\n",
      "note_off channel=0 note=60 velocity=127 time=0.00625\n",
      "note_on channel=0 note=62 velocity=127 time=0.01875\n",
      "note_off channel=0 note=62 velocity=127 time=0.019791666666666666\n",
      "note_on channel=0 note=60 velocity=127 time=0.06354166666666666\n",
      "note_off channel=0 note=60 velocity=127 time=0.019791666666666666\n",
      "note_on channel=0 note=62 velocity=127 time=0.011458333333333333\n",
      "note_off channel=0 note=62 velocity=127 time=0.019791666666666666\n",
      "note_on channel=0 note=61 velocity=127 time=0.03229166666666666\n",
      "note_off channel=0 note=61 velocity=127 time=0.019791666666666666\n",
      "note_on channel=0 note=60 velocity=127 time=0.01875\n",
      "note_off channel=0 note=60 velocity=127 time=0.019791666666666666\n",
      "note_on channel=0 note=62 velocity=127 time=0.003125\n",
      "note_off channel=0 note=62 velocity=127 time=0.019791666666666666\n",
      "note_on channel=0 note=60 velocity=127 time=0.07916666666666666\n",
      "note_on channel=0 note=62 velocity=127 time=0.015625\n",
      "note_off channel=0 note=60 velocity=127 time=0.004166666666666667\n",
      "note_off channel=0 note=62 velocity=127 time=0.015625\n",
      "note_on channel=0 note=61 velocity=127 time=0.014583333333333334\n",
      "note_off channel=0 note=61 velocity=127 time=0.019791666666666666\n",
      "note_on channel=0 note=60 velocity=127 time=0.051041666666666666\n",
      "note_on channel=0 note=62 velocity=127 time=0.008333333333333333\n",
      "note_off channel=0 note=60 velocity=127 time=0.011458333333333333\n",
      "note_off channel=0 note=62 velocity=127 time=0.008333333333333333\n",
      "note_on channel=0 note=60 velocity=127 time=0.09375\n",
      "note_on channel=0 note=62 velocity=127 time=0.0010416666666666667\n",
      "note_on channel=0 note=61 velocity=127 time=0.016666666666666666\n",
      "note_off channel=0 note=60 velocity=127 time=0.0020833333333333333\n",
      "note_off channel=0 note=62 velocity=127 time=0.0010416666666666667\n",
      "note_off channel=0 note=61 velocity=127 time=0.016666666666666666\n",
      "note_on channel=0 note=62 velocity=127 time=0.078125\n",
      "note_on channel=0 note=60 velocity=127 time=0.00625\n",
      "note_off channel=0 note=62 velocity=127 time=0.013541666666666667\n",
      "note_off channel=0 note=60 velocity=127 time=0.00625\n",
      "note_on channel=0 note=61 velocity=127 time=0.0875\n",
      "note_on channel=0 note=62 velocity=127 time=0.0010416666666666667\n",
      "note_on channel=0 note=60 velocity=127 time=0.013541666666666667\n",
      "note_off channel=0 note=61 velocity=127 time=0.005208333333333333\n",
      "note_off channel=0 note=62 velocity=127 time=0.0010416666666666667\n",
      "note_off channel=0 note=60 velocity=127 time=0.013541666666666667\n",
      "note_on channel=0 note=62 velocity=127 time=0.08125\n",
      "note_off channel=0 note=62 velocity=127 time=0.019791666666666666\n",
      "note_on channel=0 note=60 velocity=127 time=0.0010416666666666667\n",
      "note_off channel=0 note=60 velocity=127 time=0.019791666666666666\n",
      "note_on channel=0 note=61 velocity=127 time=0.05520833333333333\n",
      "note_on channel=0 note=62 velocity=127 time=0.01875\n",
      "note_off channel=0 note=61 velocity=127 time=0.0010416666666666667\n",
      "note_off channel=0 note=62 velocity=127 time=0.01875\n",
      "note_on channel=0 note=60 velocity=127 time=0.008333333333333333\n",
      "note_off channel=0 note=60 velocity=127 time=0.019791666666666666\n",
      "note_on channel=0 note=62 velocity=127 time=0.06666666666666667\n",
      "note_off channel=0 note=62 velocity=127 time=0.019791666666666666\n",
      "note_on channel=0 note=60 velocity=127 time=0.015625\n",
      "note_off channel=0 note=60 velocity=127 time=0.019791666666666666\n",
      "note_on channel=0 note=61 velocity=127 time=0.021875\n",
      "note_off channel=0 note=61 velocity=127 time=0.019791666666666666\n",
      "note_on channel=0 note=62 velocity=127 time=0.016666666666666666\n",
      "note_off channel=0 note=62 velocity=127 time=0.019791666666666666\n",
      "note_on channel=0 note=60 velocity=127 time=0.022916666666666665\n",
      "note_off channel=0 note=60 velocity=127 time=0.019791666666666666\n",
      "note_on channel=0 note=62 velocity=127 time=0.051041666666666666\n",
      "note_off channel=0 note=62 velocity=127 time=0.019791666666666666\n",
      "note_on channel=0 note=60 velocity=127 time=0.03125\n",
      "note_on channel=0 note=61 velocity=127 time=0.009375\n",
      "note_off channel=0 note=60 velocity=127 time=0.010416666666666666\n",
      "note_off channel=0 note=61 velocity=127 time=0.009375\n",
      "note_on channel=0 note=62 velocity=127 time=0.034375\n",
      "note_off channel=0 note=62 velocity=127 time=0.019791666666666666\n",
      "note_on channel=0 note=60 velocity=127 time=0.03854166666666667\n",
      "note_off channel=0 note=60 velocity=127 time=0.019791666666666666\n",
      "note_on channel=0 note=62 velocity=127 time=0.036458333333333336\n",
      "note_off channel=0 note=62 velocity=127 time=0.019791666666666666\n",
      "note_on channel=0 note=61 velocity=127 time=0.021875\n",
      "note_off channel=0 note=61 velocity=127 time=0.019791666666666666\n",
      "note_on channel=0 note=60 velocity=127 time=0.003125\n",
      "note_off channel=0 note=60 velocity=127 time=0.019791666666666666\n",
      "note_on channel=0 note=62 velocity=127 time=0.029166666666666667\n",
      "note_off channel=0 note=62 velocity=127 time=0.019791666666666666\n",
      "note_on channel=0 note=60 velocity=127 time=0.053125\n",
      "note_off channel=0 note=60 velocity=127 time=0.019791666666666666\n",
      "note_on channel=0 note=62 velocity=127 time=0.021875\n",
      "note_off channel=0 note=62 velocity=127 time=0.019791666666666666\n",
      "note_on channel=0 note=61 velocity=127 time=0.004166666666666667\n",
      "note_off channel=0 note=61 velocity=127 time=0.019791666666666666\n",
      "note_on channel=0 note=60 velocity=127 time=0.036458333333333336\n",
      "note_off channel=0 note=60 velocity=127 time=0.019791666666666666\n",
      "note_on channel=0 note=62 velocity=127 time=0.014583333333333334\n",
      "note_off channel=0 note=62 velocity=127 time=0.019791666666666666\n",
      "note_on channel=0 note=60 velocity=127 time=0.06770833333333333\n",
      "note_off channel=0 note=60 velocity=127 time=0.019791666666666666\n",
      "note_on channel=0 note=62 velocity=127 time=0.00625\n",
      "note_on channel=0 note=61 velocity=127 time=0.00625\n",
      "note_off channel=0 note=62 velocity=127 time=0.013541666666666667\n",
      "note_off channel=0 note=61 velocity=127 time=0.00625\n",
      "note_on channel=0 note=60 velocity=127 time=0.06875\n",
      "\u001b[91m [DEBUG] > \u001b[0m\n",
      " |>  to_array: msg.time > max_t; t, n\n",
      " |>  3.0427083333333376\n",
      " |>  150\n",
      "note_on channel=0 note=61 velocity=127 time=0.05\n",
      "note_on channel=0 note=60 velocity=127 time=0.017708333333333333\n",
      "note_off channel=0 note=61 velocity=127 time=0.0020833333333333333\n",
      "note_on channel=0 note=62 velocity=127 time=0.016666666666666666\n",
      "note_off channel=0 note=60 velocity=127 time=0.0010416666666666667\n",
      "note_off channel=0 note=62 velocity=127 time=0.01875\n",
      "note_on channel=0 note=60 velocity=127 time=0.034375\n",
      "note_on channel=0 note=61 velocity=127 time=0.0010416666666666667\n",
      "note_off channel=0 note=60 velocity=127 time=0.01875\n",
      "note_off channel=0 note=61 velocity=127 time=0.0010416666666666667\n",
      "note_on channel=0 note=62 velocity=127 time=0.014583333333333334\n",
      "note_off channel=0 note=62 velocity=127 time=0.019791666666666666\n",
      "note_on channel=0 note=60 velocity=127 time=0.017708333333333333\n",
      "note_on channel=0 note=61 velocity=127 time=0.019791666666666666\n",
      "note_off channel=0 note=60 velocity=127 time=0\n",
      "note_off channel=0 note=61 velocity=127 time=0.019791666666666666\n",
      "note_on channel=0 note=62 velocity=127 time=0.0125\n",
      "note_off channel=0 note=62 velocity=127 time=0.019791666666666666\n",
      "note_on channel=0 note=60 velocity=127 time=0.0010416666666666667\n",
      "note_off channel=0 note=60 velocity=127 time=0.019791666666666666\n",
      "note_on channel=0 note=61 velocity=127 time=0.01875\n",
      "note_off channel=0 note=61 velocity=127 time=0.019791666666666666\n",
      "note_on channel=0 note=62 velocity=127 time=0.010416666666666666\n",
      "note_on channel=0 note=60 velocity=127 time=0.004166666666666667\n",
      "note_off channel=0 note=62 velocity=127 time=0.015625\n",
      "note_off channel=0 note=60 velocity=127 time=0.004166666666666667\n",
      "note_on channel=0 note=61 velocity=127 time=0.0375\n",
      "note_on channel=0 note=60 velocity=127 time=0.015625\n",
      "note_off channel=0 note=61 velocity=127 time=0.004166666666666667\n",
      "note_on channel=0 note=62 velocity=127 time=0.008333333333333333\n",
      "note_off channel=0 note=60 velocity=127 time=0.007291666666666667\n",
      "note_off channel=0 note=62 velocity=127 time=0.0125\n",
      "note_on channel=0 note=60 velocity=127 time=0.040625\n",
      "note_on channel=0 note=61 velocity=127 time=0.003125\n",
      "note_off channel=0 note=60 velocity=127 time=0.016666666666666666\n",
      "note_off channel=0 note=61 velocity=127 time=0.003125\n",
      "note_on channel=0 note=62 velocity=127 time=0.00625\n",
      "note_off channel=0 note=62 velocity=127 time=0.019791666666666666\n",
      "note_on channel=0 note=60 velocity=127 time=0.02395833333333333\n",
      "note_off channel=0 note=60 velocity=127 time=0.019791666666666666\n",
      "note_on channel=0 note=61 velocity=127 time=0.0020833333333333333\n",
      "note_off channel=0 note=61 velocity=127 time=0.019791666666666666\n",
      "note_on channel=0 note=62 velocity=127 time=0.003125\n",
      "note_off channel=0 note=62 velocity=127 time=0.019791666666666666\n",
      "note_on channel=0 note=60 velocity=127 time=0.007291666666666667\n",
      "note_off channel=0 note=60 velocity=127 time=0.019791666666666666\n",
      "note_on channel=0 note=61 velocity=127 time=0.020833333333333332\n",
      "note_off channel=0 note=61 velocity=127 time=0.019791666666666666\n",
      "note_on channel=0 note=62 velocity=127 time=0.0010416666666666667\n",
      "note_on channel=0 note=60 velocity=127 time=0.010416666666666666\n",
      "note_off channel=0 note=62 velocity=127 time=0.009375\n",
      "note_off channel=0 note=60 velocity=127 time=0.010416666666666666\n",
      "note_on channel=0 note=61 velocity=127 time=0.03958333333333333\n",
      "note_on channel=0 note=60 velocity=127 time=0.013541666666666667\n",
      "note_on channel=0 note=62 velocity=127 time=0.005208333333333333\n",
      "note_off channel=0 note=61 velocity=127 time=0.0010416666666666667\n",
      "note_off channel=0 note=60 velocity=127 time=0.013541666666666667\n",
      "note_off channel=0 note=62 velocity=127 time=0.005208333333333333\n",
      "note_on channel=0 note=60 velocity=127 time=0.046875\n",
      "note_on channel=0 note=61 velocity=127 time=0.005208333333333333\n",
      "note_off channel=0 note=60 velocity=127 time=0.014583333333333334\n",
      "note_on channel=0 note=62 velocity=127 time=0.0020833333333333333\n",
      "note_off channel=0 note=61 velocity=127 time=0.003125\n",
      "note_off channel=0 note=62 velocity=127 time=0.016666666666666666\n",
      "note_on channel=0 note=60 velocity=127 time=0.030208333333333334\n",
      "note_off channel=0 note=60 velocity=127 time=0.019791666666666666\n",
      "note_on channel=0 note=61 velocity=127 time=0.004166666666666667\n",
      "note_on channel=0 note=62 velocity=127 time=0.014583333333333334\n",
      "note_off channel=0 note=61 velocity=127 time=0.005208333333333333\n",
      "note_off channel=0 note=62 velocity=127 time=0.014583333333333334\n",
      "note_on channel=0 note=60 velocity=127 time=0.013541666666666667\n",
      "note_off channel=0 note=60 velocity=127 time=0.019791666666666666\n",
      "note_on channel=0 note=61 velocity=127 time=0.022916666666666665\n",
      "note_on channel=0 note=62 velocity=127 time=0.0125\n",
      "note_off channel=0 note=61 velocity=127 time=0.007291666666666667\n",
      "note_on channel=0 note=60 velocity=127 time=0.009375\n",
      "note_off channel=0 note=62 velocity=127 time=0.0020833333333333333\n",
      "note_off channel=0 note=60 velocity=127 time=0.017708333333333333\n",
      "note_on channel=0 note=61 velocity=127 time=0.041666666666666664\n",
      "note_on channel=0 note=62 velocity=127 time=0.010416666666666666\n",
      "note_on channel=0 note=60 velocity=127 time=0.0010416666666666667\n",
      "note_off channel=0 note=61 velocity=127 time=0.009375\n",
      "note_off channel=0 note=62 velocity=127 time=0.010416666666666666\n",
      "note_off channel=0 note=60 velocity=127 time=0.0010416666666666667\n",
      "note_on channel=0 note=60 velocity=127 time=0.053125\n",
      "note_on channel=0 note=61 velocity=127 time=0.007291666666666667\n",
      "note_on channel=0 note=62 velocity=127 time=0.008333333333333333\n",
      "note_off channel=0 note=60 velocity=127 time=0.004166666666666667\n",
      "note_off channel=0 note=61 velocity=127 time=0.007291666666666667\n",
      "note_off channel=0 note=62 velocity=127 time=0.008333333333333333\n",
      "note_on channel=0 note=60 velocity=127 time=0.0375\n",
      "note_off channel=0 note=60 velocity=127 time=0.019791666666666666\n",
      "note_on channel=0 note=61 velocity=127 time=0.00625\n",
      "note_on channel=0 note=62 velocity=127 time=0.005208333333333333\n",
      "note_off channel=0 note=61 velocity=127 time=0.014583333333333334\n",
      "note_off channel=0 note=62 velocity=127 time=0.005208333333333333\n",
      "note_on channel=0 note=60 velocity=127 time=0.020833333333333332\n",
      "note_off channel=0 note=60 velocity=127 time=0.019791666666666666\n",
      "note_on channel=0 note=61 velocity=127 time=0.025\n",
      "note_on channel=0 note=62 velocity=127 time=0.003125\n",
      "note_off channel=0 note=61 velocity=127 time=0.016666666666666666\n",
      "note_off channel=0 note=62 velocity=127 time=0.003125\n",
      "note_on channel=0 note=60 velocity=127 time=0.004166666666666667\n",
      "note_off channel=0 note=60 velocity=127 time=0.019791666666666666\n",
      "note_on channel=0 note=61 velocity=127 time=0.04375\n",
      "note_on channel=0 note=62 velocity=127 time=0.0010416666666666667\n",
      "note_on channel=0 note=60 velocity=127 time=0.007291666666666667\n",
      "note_off channel=0 note=61 velocity=127 time=0.011458333333333333\n",
      "note_off channel=0 note=62 velocity=127 time=0.0010416666666666667\n",
      "note_off channel=0 note=60 velocity=127 time=0.007291666666666667\n",
      "note_on channel=0 note=60 velocity=127 time=0.053125\n",
      "note_on channel=0 note=62 velocity=127 time=0.009375\n",
      "note_on channel=0 note=61 velocity=127 time=0.0010416666666666667\n",
      "note_off channel=0 note=60 velocity=127 time=0.009375\n",
      "note_off channel=0 note=62 velocity=127 time=0.009375\n",
      "note_off channel=0 note=61 velocity=127 time=0.0010416666666666667\n",
      "note_on channel=0 note=60 velocity=127 time=0.042708333333333334\n",
      "note_off channel=0 note=60 velocity=127 time=0.019791666666666666\n",
      "note_on channel=0 note=62 velocity=127 time=0.005208333333333333\n",
      "note_on channel=0 note=61 velocity=127 time=0.003125\n",
      "note_off channel=0 note=62 velocity=127 time=0.016666666666666666\n",
      "note_off channel=0 note=61 velocity=127 time=0.003125\n",
      "note_on channel=0 note=60 velocity=127 time=0.02395833333333333\n",
      "note_off channel=0 note=60 velocity=127 time=0.019791666666666666\n",
      "note_on channel=0 note=62 velocity=127 time=0.021875\n",
      "note_on channel=0 note=61 velocity=127 time=0.005208333333333333\n",
      "note_off channel=0 note=62 velocity=127 time=0.014583333333333334\n",
      "note_off channel=0 note=61 velocity=127 time=0.005208333333333333\n",
      "note_on channel=0 note=60 velocity=127 time=0.005208333333333333\n",
      "note_off channel=0 note=60 velocity=127 time=0.019791666666666666\n",
      "note_on channel=0 note=62 velocity=127 time=0.03854166666666667\n",
      "note_on channel=0 note=61 velocity=127 time=0.008333333333333333\n",
      "note_on channel=0 note=60 velocity=127 time=0.00625\n",
      "note_off channel=0 note=62 velocity=127 time=0.00625\n",
      "note_off channel=0 note=61 velocity=127 time=0.008333333333333333\n",
      "note_off channel=0 note=60 velocity=127 time=0.00625\n",
      "note_on channel=0 note=60 velocity=127 time=0.053125\n",
      "note_on channel=0 note=62 velocity=127 time=0.0020833333333333333\n",
      "note_on channel=0 note=61 velocity=127 time=0.010416666666666666\n",
      "note_off channel=0 note=60 velocity=127 time=0.007291666666666667\n",
      "note_off channel=0 note=62 velocity=127 time=0.0020833333333333333\n",
      "note_off channel=0 note=61 velocity=127 time=0.010416666666666666\n",
      "note_on channel=0 note=60 velocity=127 time=0.040625\n",
      "note_on channel=0 note=62 velocity=127 time=0.01875\n",
      "note_off channel=0 note=60 velocity=127 time=0.0010416666666666667\n",
      "note_on channel=0 note=61 velocity=127 time=0.011458333333333333\n",
      "note_off channel=0 note=62 velocity=127 time=0.007291666666666667\n",
      "note_off channel=0 note=61 velocity=127 time=0.0125\n",
      "note_on channel=0 note=60 velocity=127 time=0.021875\n",
      "note_off channel=0 note=60 velocity=127 time=0.019791666666666666\n",
      "note_on channel=0 note=62 velocity=127 time=0.015625\n",
      "note_on channel=0 note=61 velocity=127 time=0.014583333333333334\n",
      "note_off channel=0 note=62 velocity=127 time=0.005208333333333333\n",
      "note_off channel=0 note=61 velocity=127 time=0.014583333333333334\n",
      "note_on channel=0 note=60 velocity=127 time=0.003125\n",
      "note_off channel=0 note=60 velocity=127 time=0.019791666666666666\n",
      "note_on channel=0 note=62 velocity=127 time=0.03229166666666666\n",
      "note_on channel=0 note=61 velocity=127 time=0.016666666666666666\n",
      "note_off channel=0 note=62 velocity=127 time=0.003125\n",
      "note_on channel=0 note=60 velocity=127 time=0.0010416666666666667\n",
      "note_off channel=0 note=61 velocity=127 time=0.015625\n",
      "note_off channel=0 note=60 velocity=127 time=0.004166666666666667\n",
      "note_on channel=0 note=62 velocity=127 time=0.04895833333333333\n",
      "note_on channel=0 note=60 velocity=127 time=0.004166666666666667\n",
      "note_on channel=0 note=61 velocity=127 time=0.014583333333333334\n",
      "note_off channel=0 note=62 velocity=127 time=0.0010416666666666667\n",
      "note_off channel=0 note=60 velocity=127 time=0.004166666666666667\n",
      "note_off channel=0 note=61 velocity=127 time=0.014583333333333334\n",
      "note_on channel=0 note=60 velocity=127 time=0.03854166666666667\n",
      "note_on channel=0 note=62 velocity=127 time=0.0125\n",
      "note_off channel=0 note=60 velocity=127 time=0.007291666666666667\n",
      "note_off channel=0 note=62 velocity=127 time=0.0125\n",
      "note_on channel=0 note=61 velocity=127 time=0.0010416666666666667\n",
      "note_off channel=0 note=61 velocity=127 time=0.019791666666666666\n",
      "note_on channel=0 note=60 velocity=127 time=0.019791666666666666\n",
      "note_off channel=0 note=60 velocity=127 time=0.019791666666666666\n",
      "note_on channel=0 note=62 velocity=127 time=0.008333333333333333\n",
      "note_off channel=0 note=62 velocity=127 time=0.019791666666666666\n",
      "note_on channel=0 note=61 velocity=127 time=0.003125\n",
      "note_off channel=0 note=61 velocity=127 time=0.019791666666666666\n",
      "note_on channel=0 note=60 velocity=127 time=0\n",
      "note_off channel=0 note=60 velocity=127 time=0.019791666666666666\n",
      "note_on channel=0 note=62 velocity=127 time=0.025\n",
      "note_off channel=0 note=62 velocity=127 time=0.019791666666666666\n",
      "note_on channel=0 note=61 velocity=127 time=0.00625\n",
      "note_on channel=0 note=60 velocity=127 time=0.0020833333333333333\n",
      "note_off channel=0 note=61 velocity=127 time=0.01875\n",
      "note_off channel=0 note=60 velocity=127 time=0.0020833333333333333\n",
      "note_on channel=0 note=62 velocity=127 time=0.041666666666666664\n",
      "note_on channel=0 note=60 velocity=127 time=0.011458333333333333\n",
      "note_off channel=0 note=62 velocity=127 time=0.009375\n",
      "note_on channel=0 note=61 velocity=127 time=0.008333333333333333\n",
      "note_off channel=0 note=60 velocity=127 time=0.003125\n",
      "note_off channel=0 note=61 velocity=127 time=0.016666666666666666\n",
      "note_on channel=0 note=60 velocity=127 time=0.035416666666666666\n",
      "note_on channel=0 note=62 velocity=127 time=0.005208333333333333\n",
      "note_off channel=0 note=60 velocity=127 time=0.014583333333333334\n",
      "note_off channel=0 note=62 velocity=127 time=0.005208333333333333\n",
      "note_on channel=0 note=61 velocity=127 time=0.010416666666666666\n",
      "note_off channel=0 note=61 velocity=127 time=0.019791666666666666\n",
      "note_on channel=0 note=60 velocity=127 time=0.016666666666666666\n",
      "note_off channel=0 note=60 velocity=127 time=0.019791666666666666\n",
      "note_on channel=0 note=62 velocity=127 time=0.0020833333333333333\n",
      "note_off channel=0 note=62 velocity=127 time=0.019791666666666666\n",
      "note_on channel=0 note=61 velocity=127 time=0.0125\n",
      "note_on channel=0 note=60 velocity=127 time=0.017708333333333333\n",
      "note_off channel=0 note=61 velocity=127 time=0.0020833333333333333\n",
      "note_off channel=0 note=60 velocity=127 time=0.017708333333333333\n",
      "note_on channel=0 note=62 velocity=127 time=0.01875\n",
      "note_off channel=0 note=62 velocity=127 time=0.019791666666666666\n",
      "note_on channel=0 note=60 velocity=127 time=0.014583333333333334\n",
      "note_on channel=0 note=61 velocity=127 time=0.0010416666666666667\n",
      "note_off channel=0 note=60 velocity=127 time=0.019791666666666666\n",
      "\u001b[91m [DEBUG] > \u001b[0m\n",
      " |>  to_array: msg.time > max_t; t, n\n",
      " |>  2.9927083333333355\n",
      " |>  150\n",
      "note_on channel=0 note=60 velocity=127 time=0.0125\n",
      "note_on channel=0 note=61 velocity=127 time=0.016666666666666666\n",
      "note_off channel=0 note=60 velocity=127 time=0.004166666666666667\n",
      "note_off channel=0 note=61 velocity=127 time=0.016666666666666666\n",
      "note_on channel=0 note=62 velocity=127 time=0.028125\n",
      "note_on channel=0 note=60 velocity=127 time=0.0125\n",
      "note_off channel=0 note=62 velocity=127 time=0.007291666666666667\n",
      "note_off channel=0 note=60 velocity=127 time=0.0125\n",
      "note_on channel=0 note=61 velocity=127 time=0.03125\n",
      "note_off channel=0 note=61 velocity=127 time=0.019791666666666666\n",
      "note_on channel=0 note=60 velocity=127 time=0.005208333333333333\n",
      "note_on channel=0 note=62 velocity=127 time=0.015625\n",
      "note_off channel=0 note=60 velocity=127 time=0.004166666666666667\n",
      "note_off channel=0 note=62 velocity=127 time=0.015625\n",
      "note_on channel=0 note=60 velocity=127 time=0.041666666666666664\n",
      "note_on channel=0 note=61 velocity=127 time=0.010416666666666666\n",
      "note_off channel=0 note=60 velocity=127 time=0.009375\n",
      "note_off channel=0 note=61 velocity=127 time=0.010416666666666666\n",
      "note_on channel=0 note=62 velocity=127 time=0.013541666666666667\n",
      "note_off channel=0 note=62 velocity=127 time=0.019791666666666666\n",
      "note_on channel=0 note=60 velocity=127 time=0.013541666666666667\n",
      "note_off channel=0 note=60 velocity=127 time=0.019791666666666666\n",
      "note_on channel=0 note=61 velocity=127 time=0.026041666666666668\n",
      "note_off channel=0 note=61 velocity=127 time=0.019791666666666666\n",
      "note_on channel=0 note=62 velocity=127 time=0.005208333333333333\n",
      "note_on channel=0 note=60 velocity=127 time=0.005208333333333333\n",
      "note_off channel=0 note=62 velocity=127 time=0.014583333333333334\n",
      "note_off channel=0 note=60 velocity=127 time=0.005208333333333333\n",
      "note_on channel=0 note=60 velocity=127 time=0.057291666666666664\n",
      "note_on channel=0 note=61 velocity=127 time=0.004166666666666667\n",
      "note_off channel=0 note=60 velocity=127 time=0.015625\n",
      "note_on channel=0 note=62 velocity=127 time=0.0020833333333333333\n",
      "note_off channel=0 note=61 velocity=127 time=0.0020833333333333333\n",
      "note_off channel=0 note=62 velocity=127 time=0.017708333333333333\n",
      "note_on channel=0 note=60 velocity=127 time=0.034375\n",
      "note_off channel=0 note=60 velocity=127 time=0.019791666666666666\n",
      "note_on channel=0 note=61 velocity=127 time=0.019791666666666666\n",
      "note_on channel=0 note=62 velocity=127 time=0.010416666666666666\n",
      "note_off channel=0 note=61 velocity=127 time=0.009375\n",
      "note_off channel=0 note=62 velocity=127 time=0.010416666666666666\n",
      "note_on channel=0 note=60 velocity=127 time=0.007291666666666667\n",
      "note_off channel=0 note=60 velocity=127 time=0.019791666666666666\n",
      "note_on channel=0 note=61 velocity=127 time=0.05520833333333333\n",
      "note_on channel=0 note=60 velocity=127 time=0.0020833333333333333\n",
      "note_on channel=0 note=62 velocity=127 time=0.0010416666666666667\n",
      "note_off channel=0 note=61 velocity=127 time=0.017708333333333333\n",
      "note_off channel=0 note=60 velocity=127 time=0.0020833333333333333\n",
      "note_off channel=0 note=62 velocity=127 time=0.0010416666666666667\n",
      "note_on channel=0 note=60 velocity=127 time=0.05625\n",
      "note_off channel=0 note=60 velocity=127 time=0.019791666666666666\n",
      "note_on channel=0 note=62 velocity=127 time=0.009375\n",
      "note_on channel=0 note=61 velocity=127 time=0.005208333333333333\n",
      "note_off channel=0 note=62 velocity=127 time=0.014583333333333334\n",
      "note_off channel=0 note=61 velocity=127 time=0.005208333333333333\n",
      "note_on channel=0 note=60 velocity=127 time=0.022916666666666665\n",
      "note_off channel=0 note=60 velocity=127 time=0.019791666666666666\n",
      "note_on channel=0 note=62 velocity=127 time=0.036458333333333336\n",
      "note_on channel=0 note=61 velocity=127 time=0.0125\n",
      "note_off channel=0 note=62 velocity=127 time=0.007291666666666667\n",
      "note_on channel=0 note=60 velocity=127 time=0\n",
      "note_off channel=0 note=61 velocity=127 time=0.0125\n",
      "note_off channel=0 note=60 velocity=127 time=0.007291666666666667\n",
      "note_on channel=0 note=60 velocity=127 time=0.057291666666666664\n",
      "note_on channel=0 note=62 velocity=127 time=0.007291666666666667\n",
      "note_off channel=0 note=60 velocity=127 time=0.0125\n",
      "note_off channel=0 note=62 velocity=127 time=0.007291666666666667\n",
      "note_on channel=0 note=61 velocity=127 time=0\n",
      "note_off channel=0 note=61 velocity=127 time=0.019791666666666666\n",
      "note_on channel=0 note=60 velocity=127 time=0.029166666666666667\n",
      "note_off channel=0 note=60 velocity=127 time=0.019791666666666666\n",
      "note_on channel=0 note=62 velocity=127 time=0.015625\n",
      "note_off channel=0 note=62 velocity=127 time=0.019791666666666666\n",
      "note_on channel=0 note=61 velocity=127 time=0.008333333333333333\n",
      "note_on channel=0 note=60 velocity=127 time=0.013541666666666667\n",
      "note_off channel=0 note=61 velocity=127 time=0.00625\n",
      "note_off channel=0 note=60 velocity=127 time=0.013541666666666667\n",
      "note_on channel=0 note=62 velocity=127 time=0.04375\n",
      "note_on channel=0 note=60 velocity=127 time=0.013541666666666667\n",
      "note_off channel=0 note=62 velocity=127 time=0.00625\n",
      "note_off channel=0 note=60 velocity=127 time=0.013541666666666667\n",
      "note_on channel=0 note=61 velocity=127 time=0.0020833333333333333\n",
      "note_off channel=0 note=61 velocity=127 time=0.019791666666666666\n",
      "note_on channel=0 note=60 velocity=127 time=0.035416666666666666\n",
      "note_on channel=0 note=62 velocity=127 time=0.014583333333333334\n",
      "note_off channel=0 note=60 velocity=127 time=0.00625\n",
      "note_off channel=0 note=62 velocity=127 time=0.014583333333333334\n",
      "note_on channel=0 note=61 velocity=127 time=0.022916666666666665\n",
      "note_on channel=0 note=60 velocity=127 time=0.019791666666666666\n",
      "note_off channel=0 note=61 velocity=127 time=0\n",
      "note_off channel=0 note=60 velocity=127 time=0.019791666666666666\n",
      "note_on channel=0 note=62 velocity=127 time=0.021875\n",
      "note_off channel=0 note=62 velocity=127 time=0.019791666666666666\n",
      "note_on channel=0 note=60 velocity=127 time=0.014583333333333334\n",
      "note_on channel=0 note=61 velocity=127 time=0.015625\n",
      "note_off channel=0 note=60 velocity=127 time=0.004166666666666667\n",
      "note_off channel=0 note=61 velocity=127 time=0.015625\n",
      "note_on channel=0 note=62 velocity=127 time=0.034375\n",
      "note_on channel=0 note=60 velocity=127 time=0.007291666666666667\n",
      "note_off channel=0 note=62 velocity=127 time=0.0125\n",
      "note_off channel=0 note=60 velocity=127 time=0.007291666666666667\n",
      "note_on channel=0 note=61 velocity=127 time=0.03125\n",
      "note_off channel=0 note=61 velocity=127 time=0.019791666666666666\n",
      "note_on channel=0 note=60 velocity=127 time=0.005208333333333333\n",
      "note_off channel=0 note=60 velocity=127 time=0.019791666666666666\n",
      "note_on channel=0 note=62 velocity=127 time=0.0010416666666666667\n",
      "note_off channel=0 note=62 velocity=127 time=0.019791666666666666\n",
      "note_on channel=0 note=60 velocity=127 time=0.036458333333333336\n",
      "note_on channel=0 note=61 velocity=127 time=0.010416666666666666\n",
      "note_off channel=0 note=60 velocity=127 time=0.010416666666666666\n",
      "note_off channel=0 note=61 velocity=127 time=0.010416666666666666\n",
      "note_on channel=0 note=62 velocity=127 time=0.01875\n",
      "note_off channel=0 note=62 velocity=127 time=0.019791666666666666\n",
      "note_on channel=0 note=60 velocity=127 time=0.008333333333333333\n",
      "note_off channel=0 note=60 velocity=127 time=0.019791666666666666\n",
      "note_on channel=0 note=61 velocity=127 time=0.026041666666666668\n",
      "note_off channel=0 note=61 velocity=127 time=0.019791666666666666\n",
      "note_on channel=0 note=62 velocity=127 time=0.011458333333333333\n",
      "note_on channel=0 note=60 velocity=127 time=0\n",
      "note_off channel=0 note=62 velocity=127 time=0.019791666666666666\n",
      "note_off channel=0 note=60 velocity=127 time=0\n",
      "note_on channel=0 note=60 velocity=127 time=0.057291666666666664\n",
      "note_on channel=0 note=61 velocity=127 time=0.004166666666666667\n",
      "note_off channel=0 note=60 velocity=127 time=0.015625\n",
      "note_off channel=0 note=61 velocity=127 time=0.004166666666666667\n",
      "note_on channel=0 note=62 velocity=127 time=0.003125\n",
      "note_off channel=0 note=62 velocity=127 time=0.019791666666666666\n",
      "note_on channel=0 note=60 velocity=127 time=0.029166666666666667\n",
      "note_off channel=0 note=60 velocity=127 time=0.019791666666666666\n",
      "note_on channel=0 note=61 velocity=127 time=0.019791666666666666\n",
      "note_on channel=0 note=62 velocity=127 time=0.015625\n",
      "note_off channel=0 note=61 velocity=127 time=0.004166666666666667\n",
      "note_off channel=0 note=62 velocity=127 time=0.015625\n",
      "note_on channel=0 note=60 velocity=127 time=0.0020833333333333333\n",
      "note_off channel=0 note=60 velocity=127 time=0.019791666666666666\n",
      "note_on channel=0 note=61 velocity=127 time=0.05520833333333333\n",
      "note_on channel=0 note=60 velocity=127 time=0.0020833333333333333\n",
      "note_on channel=0 note=62 velocity=127 time=0.00625\n",
      "note_off channel=0 note=61 velocity=127 time=0.011458333333333333\n",
      "note_off channel=0 note=60 velocity=127 time=0.0020833333333333333\n",
      "note_off channel=0 note=62 velocity=127 time=0.00625\n",
      "note_on channel=0 note=60 velocity=127 time=0.051041666666666666\n",
      "note_off channel=0 note=60 velocity=127 time=0.019791666666666666\n"
     ]
    },
    {
     "name": "stdout",
     "output_type": "stream",
     "text": [
      "note_on channel=0 note=61 velocity=127 time=0.013541666666666667\n",
      "note_on channel=0 note=62 velocity=127 time=0\n",
      "note_off channel=0 note=61 velocity=127 time=0.019791666666666666\n",
      "note_off channel=0 note=62 velocity=127 time=0\n",
      "note_on channel=0 note=60 velocity=127 time=0.022916666666666665\n",
      "note_off channel=0 note=60 velocity=127 time=0.019791666666666666\n",
      "note_on channel=0 note=62 velocity=127 time=0.041666666666666664\n",
      "note_on channel=0 note=61 velocity=127 time=0.007291666666666667\n",
      "note_on channel=0 note=60 velocity=127 time=0.008333333333333333\n",
      "note_off channel=0 note=62 velocity=127 time=0.005208333333333333\n",
      "note_off channel=0 note=61 velocity=127 time=0.007291666666666667\n",
      "note_off channel=0 note=60 velocity=127 time=0.008333333333333333\n",
      "note_on channel=0 note=60 velocity=127 time=0.057291666666666664\n",
      "note_on channel=0 note=62 velocity=127 time=0.0125\n",
      "note_off channel=0 note=60 velocity=127 time=0.007291666666666667\n",
      "note_on channel=0 note=61 velocity=127 time=0.007291666666666667\n",
      "note_off channel=0 note=62 velocity=127 time=0.005208333333333333\n",
      "note_off channel=0 note=61 velocity=127 time=0.014583333333333334\n",
      "note_on channel=0 note=60 velocity=127 time=0.029166666666666667\n",
      "note_off channel=0 note=60 velocity=127 time=0.019791666666666666\n",
      "note_on channel=0 note=62 velocity=127 time=0.020833333333333332\n",
      "note_off channel=0 note=62 velocity=127 time=0.019791666666666666\n",
      "note_on channel=0 note=61 velocity=127 time=0.0020833333333333333\n",
      "note_on channel=0 note=60 velocity=127 time=0.013541666666666667\n",
      "note_off channel=0 note=61 velocity=127 time=0.00625\n",
      "note_off channel=0 note=60 velocity=127 time=0.013541666666666667\n",
      "note_on channel=0 note=62 velocity=127 time=0.04895833333333333\n",
      "note_on channel=0 note=60 velocity=127 time=0.008333333333333333\n",
      "note_off channel=0 note=62 velocity=127 time=0.011458333333333333\n",
      "note_off channel=0 note=60 velocity=127 time=0.008333333333333333\n",
      "note_on channel=0 note=61 velocity=127 time=0.0020833333333333333\n",
      "note_off channel=0 note=61 velocity=127 time=0.019791666666666666\n",
      "note_on channel=0 note=60 velocity=127 time=0.035416666666666666\n",
      "note_on channel=0 note=62 velocity=127 time=0.019791666666666666\n",
      "note_off channel=0 note=60 velocity=127 time=0.0010416666666666667\n",
      "note_off channel=0 note=62 velocity=127 time=0.019791666666666666\n",
      "note_on channel=0 note=61 velocity=127 time=0.017708333333333333\n",
      "note_on channel=0 note=60 velocity=127 time=0.019791666666666666\n",
      "note_off channel=0 note=61 velocity=127 time=0\n",
      "note_off channel=0 note=60 velocity=127 time=0.019791666666666666\n",
      "note_on channel=0 note=62 velocity=127 time=0.027083333333333334\n",
      "note_off channel=0 note=62 velocity=127 time=0.019791666666666666\n",
      "note_on channel=0 note=60 velocity=127 time=0.009375\n",
      "note_on channel=0 note=61 velocity=127 time=0.015625\n",
      "note_off channel=0 note=60 velocity=127 time=0.004166666666666667\n",
      "note_off channel=0 note=61 velocity=127 time=0.015625\n",
      "note_on channel=0 note=62 velocity=127 time=0.03958333333333333\n",
      "\u001b[91m [DEBUG] > \u001b[0m\n",
      " |>  to_array: msg.time > max_t; t, n\n",
      " |>  3.01041666666667\n",
      " |>  150\n",
      "note_on channel=0 note=61 velocity=127 time=0.008333333333333333\n",
      "note_on channel=0 note=60 velocity=127 time=0.004166666666666667\n",
      "note_off channel=0 note=61 velocity=127 time=0.015625\n",
      "note_off channel=0 note=60 velocity=127 time=0.004166666666666667\n",
      "note_on channel=0 note=62 velocity=127 time=0.015625\n",
      "note_off channel=0 note=62 velocity=127 time=0.019791666666666666\n",
      "note_on channel=0 note=60 velocity=127 time=0.019791666666666666\n",
      "note_off channel=0 note=60 velocity=127 time=0.019791666666666666\n",
      "note_on channel=0 note=61 velocity=127 time=0.04583333333333333\n",
      "note_on channel=0 note=60 velocity=127 time=0.009375\n",
      "note_off channel=0 note=61 velocity=127 time=0.010416666666666666\n",
      "note_off channel=0 note=60 velocity=127 time=0.009375\n",
      "note_on channel=0 note=60 velocity=127 time=0.05520833333333333\n",
      "note_off channel=0 note=60 velocity=127 time=0.019791666666666666\n",
      "note_on channel=0 note=62 velocity=127 time=0.025\n",
      "note_on channel=0 note=61 velocity=127 time=0.015625\n",
      "note_off channel=0 note=62 velocity=127 time=0.004166666666666667\n",
      "note_on channel=0 note=60 velocity=127 time=0.010416666666666666\n",
      "note_off channel=0 note=61 velocity=127 time=0.005208333333333333\n",
      "note_off channel=0 note=60 velocity=127 time=0.014583333333333334\n",
      "note_on channel=0 note=60 velocity=127 time=0.05520833333333333\n",
      "note_off channel=0 note=60 velocity=127 time=0.019791666666666666\n",
      "note_on channel=0 note=61 velocity=127 time=0.035416666666666666\n",
      "note_on channel=0 note=60 velocity=127 time=0.019791666666666666\n",
      "note_off channel=0 note=61 velocity=127 time=0\n",
      "note_off channel=0 note=60 velocity=127 time=0.019791666666666666\n",
      "note_on channel=0 note=62 velocity=127 time=0.034375\n",
      "note_off channel=0 note=62 velocity=127 time=0.019791666666666666\n",
      "note_on channel=0 note=60 velocity=127 time=0.0010416666666666667\n",
      "note_off channel=0 note=60 velocity=127 time=0.019791666666666666\n",
      "note_on channel=0 note=61 velocity=127 time=0.029166666666666667\n",
      "note_off channel=0 note=61 velocity=127 time=0.019791666666666666\n",
      "note_on channel=0 note=60 velocity=127 time=0.005208333333333333\n",
      "note_off channel=0 note=60 velocity=127 time=0.019791666666666666\n",
      "note_on channel=0 note=60 velocity=127 time=0.05520833333333333\n",
      "note_off channel=0 note=60 velocity=127 time=0.019791666666666666\n",
      "note_on channel=0 note=61 velocity=127 time=0.02395833333333333\n",
      "note_on channel=0 note=62 velocity=127 time=0.01875\n",
      "note_off channel=0 note=61 velocity=127 time=0.0010416666666666667\n",
      "note_on channel=0 note=60 velocity=127 time=0.010416666666666666\n",
      "note_off channel=0 note=62 velocity=127 time=0.008333333333333333\n",
      "note_off channel=0 note=60 velocity=127 time=0.011458333333333333\n",
      "note_on channel=0 note=60 velocity=127 time=0.05520833333333333\n",
      "note_off channel=0 note=60 velocity=127 time=0.019791666666666666\n",
      "note_on channel=0 note=61 velocity=127 time=0.01875\n",
      "note_off channel=0 note=61 velocity=127 time=0.019791666666666666\n",
      "note_on channel=0 note=60 velocity=127 time=0.015625\n",
      "note_off channel=0 note=60 velocity=127 time=0.019791666666666666\n",
      "note_on channel=0 note=62 velocity=127 time=0.052083333333333336\n",
      "note_on channel=0 note=60 velocity=127 time=0.0020833333333333333\n",
      "note_off channel=0 note=62 velocity=127 time=0.017708333333333333\n",
      "note_off channel=0 note=60 velocity=127 time=0.0020833333333333333\n",
      "note_on channel=0 note=61 velocity=127 time=0.013541666666666667\n",
      "note_off channel=0 note=61 velocity=127 time=0.019791666666666666\n",
      "note_on channel=0 note=60 velocity=127 time=0.020833333333333332\n",
      "note_off channel=0 note=60 velocity=127 time=0.019791666666666666\n",
      "note_on channel=0 note=60 velocity=127 time=0.05520833333333333\n",
      "note_off channel=0 note=60 velocity=127 time=0.019791666666666666\n",
      "note_on channel=0 note=61 velocity=127 time=0.008333333333333333\n",
      "note_off channel=0 note=61 velocity=127 time=0.019791666666666666\n",
      "note_on channel=0 note=60 velocity=127 time=0.026041666666666668\n",
      "note_on channel=0 note=62 velocity=127 time=0.007291666666666667\n",
      "note_off channel=0 note=60 velocity=127 time=0.0125\n",
      "note_off channel=0 note=62 velocity=127 time=0.007291666666666667\n",
      "note_on channel=0 note=60 velocity=127 time=0.04791666666666666\n",
      "note_off channel=0 note=60 velocity=127 time=0.019791666666666666\n",
      "note_on channel=0 note=61 velocity=127 time=0.003125\n",
      "note_off channel=0 note=61 velocity=127 time=0.019791666666666666\n",
      "note_on channel=0 note=60 velocity=127 time=0.03125\n",
      "note_off channel=0 note=60 velocity=127 time=0.019791666666666666\n",
      "note_on channel=0 note=60 velocity=127 time=0.05520833333333333\n",
      "note_on channel=0 note=62 velocity=127 time=0.016666666666666666\n",
      "note_on channel=0 note=61 velocity=127 time=0.0010416666666666667\n",
      "note_off channel=0 note=60 velocity=127 time=0.0020833333333333333\n",
      "note_off channel=0 note=62 velocity=127 time=0.016666666666666666\n",
      "note_off channel=0 note=61 velocity=127 time=0.0010416666666666667\n",
      "note_on channel=0 note=60 velocity=127 time=0.036458333333333336\n",
      "note_off channel=0 note=60 velocity=127 time=0.019791666666666666\n",
      "note_on channel=0 note=60 velocity=127 time=0.05520833333333333\n",
      "note_on channel=0 note=61 velocity=127 time=0.0125\n",
      "note_off channel=0 note=60 velocity=127 time=0.007291666666666667\n",
      "note_off channel=0 note=61 velocity=127 time=0.0125\n",
      "note_on channel=0 note=60 velocity=127 time=0.042708333333333334\n",
      "note_off channel=0 note=60 velocity=127 time=0.019791666666666666\n",
      "note_on channel=0 note=62 velocity=127 time=0.00625\n",
      "note_off channel=0 note=62 velocity=127 time=0.019791666666666666\n",
      "note_on channel=0 note=60 velocity=127 time=0.029166666666666667\n",
      "note_on channel=0 note=61 velocity=127 time=0.007291666666666667\n",
      "note_off channel=0 note=60 velocity=127 time=0.0125\n",
      "note_off channel=0 note=61 velocity=127 time=0.007291666666666667\n",
      "note_on channel=0 note=60 velocity=127 time=0.04791666666666666\n",
      "note_off channel=0 note=60 velocity=127 time=0.019791666666666666\n",
      "note_on channel=0 note=60 velocity=127 time=0.05520833333333333\n",
      "note_on channel=0 note=61 velocity=127 time=0.0020833333333333333\n",
      "note_off channel=0 note=60 velocity=127 time=0.017708333333333333\n",
      "note_off channel=0 note=61 velocity=127 time=0.0020833333333333333\n",
      "note_on channel=0 note=62 velocity=127 time=0.013541666666666667\n",
      "note_off channel=0 note=62 velocity=127 time=0.019791666666666666\n",
      "note_on channel=0 note=60 velocity=127 time=0.019791666666666666\n",
      "note_off channel=0 note=60 velocity=127 time=0.019791666666666666\n",
      "note_on channel=0 note=61 velocity=127 time=0.051041666666666666\n",
      "note_on channel=0 note=60 velocity=127 time=0.003125\n",
      "note_off channel=0 note=61 velocity=127 time=0.016666666666666666\n",
      "note_off channel=0 note=60 velocity=127 time=0.003125\n",
      "note_on channel=0 note=60 velocity=127 time=0.05520833333333333\n",
      "note_off channel=0 note=60 velocity=127 time=0.019791666666666666\n",
      "note_on channel=0 note=62 velocity=127 time=0.02395833333333333\n",
      "note_off channel=0 note=62 velocity=127 time=0.019791666666666666\n",
      "note_on channel=0 note=61 velocity=127 time=0.0020833333333333333\n",
      "note_on channel=0 note=60 velocity=127 time=0.008333333333333333\n",
      "note_off channel=0 note=61 velocity=127 time=0.011458333333333333\n",
      "note_off channel=0 note=60 velocity=127 time=0.008333333333333333\n",
      "note_on channel=0 note=60 velocity=127 time=0.05520833333333333\n",
      "note_off channel=0 note=60 velocity=127 time=0.019791666666666666\n",
      "note_on channel=0 note=61 velocity=127 time=0.040625\n",
      "note_on channel=0 note=60 velocity=127 time=0.013541666666666667\n",
      "note_off channel=0 note=61 velocity=127 time=0.00625\n",
      "note_off channel=0 note=60 velocity=127 time=0.013541666666666667\n",
      "note_on channel=0 note=62 velocity=127 time=0.03333333333333333\n",
      "note_off channel=0 note=62 velocity=127 time=0.019791666666666666\n",
      "note_on channel=0 note=60 velocity=127 time=0.0010416666666666667\n",
      "note_off channel=0 note=60 velocity=127 time=0.019791666666666666\n",
      "note_on channel=0 note=61 velocity=127 time=0.035416666666666666\n",
      "note_on channel=0 note=60 velocity=127 time=0.01875\n",
      "note_off channel=0 note=61 velocity=127 time=0.0010416666666666667\n",
      "note_off channel=0 note=60 velocity=127 time=0.01875\n",
      "note_on channel=0 note=60 velocity=127 time=0.05520833333333333\n",
      "note_off channel=0 note=60 velocity=127 time=0.019791666666666666\n",
      "note_on channel=0 note=61 velocity=127 time=0.030208333333333334\n",
      "note_on channel=0 note=62 velocity=127 time=0.0125\n",
      "note_off channel=0 note=61 velocity=127 time=0.007291666666666667\n",
      "note_on channel=0 note=60 velocity=127 time=0.004166666666666667\n",
      "note_off channel=0 note=62 velocity=127 time=0.008333333333333333\n",
      "note_off channel=0 note=60 velocity=127 time=0.011458333333333333\n",
      "note_on channel=0 note=60 velocity=127 time=0.05520833333333333\n",
      "note_off channel=0 note=60 velocity=127 time=0.019791666666666666\n",
      "note_on channel=0 note=61 velocity=127 time=0.025\n",
      "note_off channel=0 note=61 velocity=127 time=0.019791666666666666\n",
      "note_on channel=0 note=60 velocity=127 time=0.009375\n",
      "note_off channel=0 note=60 velocity=127 time=0.019791666666666666\n",
      "note_on channel=0 note=62 velocity=127 time=0.052083333333333336\n",
      "note_on channel=0 note=60 velocity=127 time=0.0020833333333333333\n",
      "note_off channel=0 note=62 velocity=127 time=0.017708333333333333\n",
      "note_off channel=0 note=60 velocity=127 time=0.0020833333333333333\n",
      "note_on channel=0 note=61 velocity=127 time=0.019791666666666666\n",
      "note_off channel=0 note=61 velocity=127 time=0.019791666666666666\n",
      "note_on channel=0 note=60 velocity=127 time=0.015625\n",
      "note_off channel=0 note=60 velocity=127 time=0.019791666666666666\n",
      "note_on channel=0 note=60 velocity=127 time=0.05520833333333333\n",
      "\u001b[91m [DEBUG] > \u001b[0m\n",
      " |>  to_array: msg.time > max_t; t, n\n",
      " |>  2.995833333333334\n",
      " |>  150\n",
      "note_on channel=0 note=60 velocity=127 time=0.013541666666666667\n",
      "note_off channel=0 note=60 velocity=127 time=0.019791666666666666\n",
      "note_on channel=0 note=62 velocity=127 time=0.022916666666666665\n",
      "note_off channel=0 note=62 velocity=127 time=0.019791666666666666\n",
      "note_on channel=0 note=60 velocity=127 time=0.010416666666666666\n",
      "note_off channel=0 note=60 velocity=127 time=0.019791666666666666\n",
      "note_on channel=0 note=60 velocity=127 time=0.053125\n",
      "note_off channel=0 note=60 velocity=127 time=0.019791666666666666\n",
      "note_on channel=0 note=62 velocity=127 time=0.009375\n",
      "note_off channel=0 note=62 velocity=127 time=0.019791666666666666\n",
      "note_on channel=0 note=61 velocity=127 time=0.0125\n",
      "note_on channel=0 note=60 velocity=127 time=0.011458333333333333\n",
      "note_off channel=0 note=61 velocity=127 time=0.008333333333333333\n",
      "note_off channel=0 note=60 velocity=127 time=0.011458333333333333\n",
      "note_on channel=0 note=60 velocity=127 time=0.053125\n",
      "note_on channel=0 note=62 velocity=127 time=0.015625\n",
      "note_off channel=0 note=60 velocity=127 time=0.004166666666666667\n",
      "note_off channel=0 note=62 velocity=127 time=0.015625\n",
      "note_on channel=0 note=60 velocity=127 time=0.0375\n",
      "note_off channel=0 note=60 velocity=127 time=0.019791666666666666\n",
      "note_on channel=0 note=61 velocity=127 time=0.04583333333333333\n",
      "note_on channel=0 note=60 velocity=127 time=0.007291666666666667\n",
      "note_on channel=0 note=62 velocity=127 time=0.0020833333333333333\n",
      "note_off channel=0 note=61 velocity=127 time=0.010416666666666666\n",
      "note_off channel=0 note=60 velocity=127 time=0.007291666666666667\n",
      "note_off channel=0 note=62 velocity=127 time=0.0020833333333333333\n",
      "note_on channel=0 note=60 velocity=127 time=0.051041666666666666\n",
      "note_off channel=0 note=60 velocity=127 time=0.019791666666666666\n",
      "note_on channel=0 note=62 velocity=127 time=0.041666666666666664\n",
      "note_on channel=0 note=60 velocity=127 time=0.011458333333333333\n",
      "note_off channel=0 note=62 velocity=127 time=0.008333333333333333\n",
      "note_off channel=0 note=60 velocity=127 time=0.011458333333333333\n",
      "note_on channel=0 note=61 velocity=127 time=0.051041666666666666\n",
      "note_on channel=0 note=60 velocity=127 time=0.003125\n",
      "note_off channel=0 note=61 velocity=127 time=0.016666666666666666\n",
      "note_off channel=0 note=60 velocity=127 time=0.003125\n",
      "note_on channel=0 note=62 velocity=127 time=0.028125\n",
      "note_off channel=0 note=62 velocity=127 time=0.019791666666666666\n",
      "note_on channel=0 note=60 velocity=127 time=0.005208333333333333\n",
      "note_off channel=0 note=60 velocity=127 time=0.019791666666666666\n",
      "note_on channel=0 note=60 velocity=127 time=0.053125\n",
      "note_off channel=0 note=60 velocity=127 time=0.019791666666666666\n",
      "note_on channel=0 note=62 velocity=127 time=0.014583333333333334\n",
      "note_off channel=0 note=62 velocity=127 time=0.019791666666666666\n",
      "note_on channel=0 note=60 velocity=127 time=0.01875\n",
      "note_on channel=0 note=61 velocity=127 time=0.0010416666666666667\n",
      "note_off channel=0 note=60 velocity=127 time=0.01875\n",
      "note_off channel=0 note=61 velocity=127 time=0.0010416666666666667\n",
      "note_on channel=0 note=60 velocity=127 time=0.052083333333333336\n",
      "note_off channel=0 note=60 velocity=127 time=0.019791666666666666\n",
      "note_on channel=0 note=62 velocity=127 time=0\n",
      "note_off channel=0 note=62 velocity=127 time=0.019791666666666666\n",
      "note_on channel=0 note=60 velocity=127 time=0.03333333333333333\n",
      "note_off channel=0 note=60 velocity=127 time=0.019791666666666666\n",
      "note_on channel=0 note=60 velocity=127 time=0.053125\n",
      "note_on channel=0 note=61 velocity=127 time=0.00625\n",
      "note_on channel=0 note=62 velocity=127 time=0.0010416666666666667\n",
      "note_off channel=0 note=60 velocity=127 time=0.013541666666666667\n",
      "note_off channel=0 note=61 velocity=127 time=0.00625\n",
      "note_off channel=0 note=62 velocity=127 time=0.0010416666666666667\n",
      "note_on channel=0 note=60 velocity=127 time=0.046875\n",
      "note_off channel=0 note=60 velocity=127 time=0.019791666666666666\n",
      "note_on channel=0 note=62 velocity=127 time=0.046875\n",
      "note_on channel=0 note=60 velocity=127 time=0.007291666666666667\n",
      "note_off channel=0 note=62 velocity=127 time=0.013541666666666667\n",
      "note_off channel=0 note=60 velocity=127 time=0.007291666666666667\n",
      "note_on channel=0 note=60 velocity=127 time=0.053125\n",
      "note_on channel=0 note=61 velocity=127 time=0.010416666666666666\n",
      "note_off channel=0 note=60 velocity=127 time=0.010416666666666666\n",
      "note_off channel=0 note=61 velocity=127 time=0.010416666666666666\n",
      "note_on channel=0 note=62 velocity=127 time=0.022916666666666665\n",
      "note_off channel=0 note=62 velocity=127 time=0.019791666666666666\n",
      "note_on channel=0 note=60 velocity=127 time=0.0010416666666666667\n",
      "note_off channel=0 note=60 velocity=127 time=0.019791666666666666\n",
      "note_on channel=0 note=60 velocity=127 time=0.053125\n",
      "note_off channel=0 note=60 velocity=127 time=0.019791666666666666\n",
      "note_on channel=0 note=62 velocity=127 time=0.01875\n",
      "note_off channel=0 note=62 velocity=127 time=0.019791666666666666\n",
      "note_on channel=0 note=60 velocity=127 time=0.014583333333333334\n",
      "note_on channel=0 note=61 velocity=127 time=0.014583333333333334\n",
      "note_off channel=0 note=60 velocity=127 time=0.005208333333333333\n",
      "note_off channel=0 note=61 velocity=127 time=0.014583333333333334\n",
      "note_on channel=0 note=60 velocity=127 time=0.03854166666666667\n",
      "note_off channel=0 note=60 velocity=127 time=0.019791666666666666\n",
      "note_on channel=0 note=62 velocity=127 time=0.005208333333333333\n",
      "note_off channel=0 note=62 velocity=127 time=0.019791666666666666\n",
      "note_on channel=0 note=60 velocity=127 time=0.028125\n",
      "note_off channel=0 note=60 velocity=127 time=0.019791666666666666\n",
      "note_on channel=0 note=60 velocity=127 time=0.053125\n",
      "note_on channel=0 note=62 velocity=127 time=0.011458333333333333\n",
      "note_on channel=0 note=61 velocity=127 time=0.007291666666666667\n",
      "note_off channel=0 note=60 velocity=127 time=0.0010416666666666667\n",
      "note_off channel=0 note=62 velocity=127 time=0.011458333333333333\n",
      "note_off channel=0 note=61 velocity=127 time=0.007291666666666667\n",
      "note_on channel=0 note=60 velocity=127 time=0.034375\n",
      "note_off channel=0 note=60 velocity=127 time=0.019791666666666666\n",
      "note_on channel=0 note=62 velocity=127 time=0.051041666666666666\n",
      "note_on channel=0 note=60 velocity=127 time=0.0020833333333333333\n",
      "note_off channel=0 note=62 velocity=127 time=0.017708333333333333\n",
      "note_off channel=0 note=60 velocity=127 time=0.0020833333333333333\n",
      "note_on channel=0 note=60 velocity=127 time=0.053125\n",
      "note_off channel=0 note=60 velocity=127 time=0.019791666666666666\n",
      "note_on channel=0 note=61 velocity=127 time=0.003125\n",
      "note_off channel=0 note=61 velocity=127 time=0.019791666666666666\n",
      "note_on channel=0 note=62 velocity=127 time=0.014583333333333334\n",
      "note_on channel=0 note=60 velocity=127 time=0.015625\n",
      "note_off channel=0 note=62 velocity=127 time=0.004166666666666667\n",
      "note_off channel=0 note=60 velocity=127 time=0.015625\n",
      "note_on channel=0 note=60 velocity=127 time=0.053125\n",
      "note_off channel=0 note=60 velocity=127 time=0.019791666666666666\n",
      "note_on channel=0 note=62 velocity=127 time=0.02395833333333333\n",
      "note_off channel=0 note=62 velocity=127 time=0.019791666666666666\n",
      "note_on channel=0 note=60 velocity=127 time=0.009375\n",
      "note_off channel=0 note=60 velocity=127 time=0.019791666666666666\n",
      "note_on channel=0 note=61 velocity=127 time=0.007291666666666667\n",
      "note_off channel=0 note=61 velocity=127 time=0.019791666666666666\n",
      "note_on channel=0 note=60 velocity=127 time=0.026041666666666668\n",
      "note_off channel=0 note=60 velocity=127 time=0.019791666666666666\n",
      "note_on channel=0 note=62 velocity=127 time=0.010416666666666666\n",
      "note_off channel=0 note=62 velocity=127 time=0.019791666666666666\n",
      "note_on channel=0 note=60 velocity=127 time=0.022916666666666665\n",
      "note_off channel=0 note=60 velocity=127 time=0.019791666666666666\n",
      "note_on channel=0 note=60 velocity=127 time=0.053125\n",
      "note_on channel=0 note=62 velocity=127 time=0.016666666666666666\n",
      "note_off channel=0 note=60 velocity=127 time=0.004166666666666667\n",
      "note_on channel=0 note=61 velocity=127 time=0.011458333333333333\n",
      "note_off channel=0 note=62 velocity=127 time=0.004166666666666667\n",
      "note_off channel=0 note=61 velocity=127 time=0.015625\n",
      "note_on channel=0 note=60 velocity=127 time=0.021875\n",
      "note_off channel=0 note=60 velocity=127 time=0.019791666666666666\n",
      "note_on channel=0 note=60 velocity=127 time=0.053125\n",
      "note_on channel=0 note=62 velocity=127 time=0.003125\n",
      "note_off channel=0 note=60 velocity=127 time=0.017708333333333333\n",
      "note_off channel=0 note=62 velocity=127 time=0.003125\n",
      "note_on channel=0 note=60 velocity=127 time=0.051041666666666666\n",
      "note_off channel=0 note=60 velocity=127 time=0.019791666666666666\n",
      "note_on channel=0 note=61 velocity=127 time=0.015625\n",
      "note_off channel=0 note=61 velocity=127 time=0.019791666666666666\n",
      "note_on channel=0 note=62 velocity=127 time=0.00625\n",
      "note_on channel=0 note=60 velocity=127 time=0.011458333333333333\n",
      "note_off channel=0 note=62 velocity=127 time=0.009375\n",
      "note_off channel=0 note=60 velocity=127 time=0.011458333333333333\n",
      "note_on channel=0 note=60 velocity=127 time=0.053125\n",
      "note_off channel=0 note=60 velocity=127 time=0.019791666666666666\n",
      "note_on channel=0 note=62 velocity=127 time=0.028125\n",
      "note_off channel=0 note=62 velocity=127 time=0.019791666666666666\n",
      "note_on channel=0 note=60 velocity=127 time=0.005208333333333333\n",
      "note_off channel=0 note=60 velocity=127 time=0.019791666666666666\n",
      "note_on channel=0 note=61 velocity=127 time=0.019791666666666666\n",
      "note_off channel=0 note=61 velocity=127 time=0.019791666666666666\n",
      "note_on channel=0 note=60 velocity=127 time=0.013541666666666667\n",
      "note_off channel=0 note=60 velocity=127 time=0.019791666666666666\n",
      "note_on channel=0 note=62 velocity=127 time=0.014583333333333334\n",
      "note_off channel=0 note=62 velocity=127 time=0.019791666666666666\n",
      "\u001b[91m [DEBUG] > \u001b[0m\n",
      " |>  to_array: msg.time > max_t; t, n\n",
      " |>  2.9958333333333385\n",
      " |>  150\n",
      "note_on channel=0 note=62 velocity=127 time=0.028125\n",
      "note_off channel=0 note=62 velocity=127 time=0.019791666666666666\n",
      "note_on channel=0 note=60 velocity=127 time=0.010416666666666666\n",
      "note_off channel=0 note=60 velocity=127 time=0.019791666666666666\n",
      "note_on channel=0 note=61 velocity=127 time=0.058333333333333334\n",
      "note_on channel=0 note=60 velocity=127 time=0.007291666666666667\n",
      "note_off channel=0 note=61 velocity=127 time=0.0125\n",
      "note_off channel=0 note=60 velocity=127 time=0.007291666666666667\n",
      "note_on channel=0 note=62 velocity=127 time=0.013541666666666667\n",
      "note_off channel=0 note=62 velocity=127 time=0.019791666666666666\n",
      "note_on channel=0 note=60 velocity=127 time=0.03125\n",
      "note_off channel=0 note=60 velocity=127 time=0.019791666666666666\n",
      "note_on channel=0 note=61 velocity=127 time=0.04375\n",
      "note_off channel=0 note=61 velocity=127 time=0.019791666666666666\n",
      "note_on channel=0 note=60 velocity=127 time=0.0010416666666666667\n",
      "note_on channel=0 note=62 velocity=127 time=0.0125\n",
      "note_off channel=0 note=60 velocity=127 time=0.008333333333333333\n",
      "note_off channel=0 note=62 velocity=127 time=0.0125\n",
      "note_on channel=0 note=60 velocity=127 time=0.053125\n",
      "note_off channel=0 note=60 velocity=127 time=0.019791666666666666\n",
      "note_on channel=0 note=61 velocity=127 time=0.030208333333333334\n",
      "note_off channel=0 note=61 velocity=127 time=0.019791666666666666\n",
      "note_on channel=0 note=62 velocity=127 time=0.005208333333333333\n",
      "note_on channel=0 note=60 velocity=127 time=0.009375\n",
      "note_off channel=0 note=62 velocity=127 time=0.010416666666666666\n",
      "note_off channel=0 note=60 velocity=127 time=0.009375\n",
      "note_on channel=0 note=60 velocity=127 time=0.065625\n",
      "note_off channel=0 note=60 velocity=127 time=0.019791666666666666\n",
      "note_on channel=0 note=61 velocity=127 time=0.016666666666666666\n",
      "note_on channel=0 note=62 velocity=127 time=0.017708333333333333\n",
      "note_off channel=0 note=61 velocity=127 time=0.0020833333333333333\n",
      "note_off channel=0 note=62 velocity=127 time=0.017708333333333333\n",
      "note_on channel=0 note=60 velocity=127 time=0.011458333333333333\n",
      "note_off channel=0 note=60 velocity=127 time=0.019791666666666666\n",
      "note_on channel=0 note=60 velocity=127 time=0.065625\n",
      "note_off channel=0 note=60 velocity=127 time=0.019791666666666666\n",
      "note_on channel=0 note=61 velocity=127 time=0.0020833333333333333\n",
      "note_on channel=0 note=62 velocity=127 time=0.010416666666666666\n",
      "note_off channel=0 note=61 velocity=127 time=0.009375\n",
      "note_off channel=0 note=62 velocity=127 time=0.010416666666666666\n",
      "note_on channel=0 note=60 velocity=127 time=0.03229166666666666\n",
      "note_off channel=0 note=60 velocity=127 time=0.019791666666666666\n",
      "note_on channel=0 note=60 velocity=127 time=0.065625\n",
      "note_on channel=0 note=61 velocity=127 time=0.008333333333333333\n",
      "note_on channel=0 note=62 velocity=127 time=0.0020833333333333333\n",
      "note_off channel=0 note=60 velocity=127 time=0.009375\n",
      "note_off channel=0 note=61 velocity=127 time=0.008333333333333333\n",
      "note_off channel=0 note=62 velocity=127 time=0.0020833333333333333\n",
      "note_on channel=0 note=60 velocity=127 time=0.05416666666666667\n",
      "note_off channel=0 note=60 velocity=127 time=0.019791666666666666\n",
      "note_on channel=0 note=62 velocity=127 time=0.05520833333333333\n",
      "note_on channel=0 note=61 velocity=127 time=0.005208333333333333\n",
      "note_on channel=0 note=60 velocity=127 time=0.005208333333333333\n",
      "note_off channel=0 note=62 velocity=127 time=0.009375\n",
      "note_off channel=0 note=61 velocity=127 time=0.005208333333333333\n",
      "note_off channel=0 note=60 velocity=127 time=0.005208333333333333\n",
      "note_on channel=0 note=60 velocity=127 time=0.065625\n",
      "note_off channel=0 note=60 velocity=127 time=0.019791666666666666\n",
      "note_on channel=0 note=62 velocity=127 time=0.03333333333333333\n",
      "note_on channel=0 note=61 velocity=127 time=0.0125\n",
      "note_off channel=0 note=62 velocity=127 time=0.007291666666666667\n",
      "note_on channel=0 note=60 velocity=127 time=0.0125\n",
      "note_off channel=0 note=61 velocity=127 time=0.0010416666666666667\n",
      "note_off channel=0 note=60 velocity=127 time=0.01875\n",
      "note_on channel=0 note=60 velocity=127 time=0.065625\n",
      "note_off channel=0 note=60 velocity=127 time=0.019791666666666666\n",
      "note_on channel=0 note=62 velocity=127 time=0.011458333333333333\n",
      "note_off channel=0 note=62 velocity=127 time=0.019791666666666666\n",
      "note_on channel=0 note=61 velocity=127 time=0.0010416666666666667\n",
      "note_off channel=0 note=61 velocity=127 time=0.019791666666666666\n",
      "note_on channel=0 note=60 velocity=127 time=0.0125\n",
      "note_off channel=0 note=60 velocity=127 time=0.019791666666666666\n",
      "note_on channel=0 note=60 velocity=127 time=0.065625\n",
      "note_on channel=0 note=62 velocity=127 time=0.010416666666666666\n",
      "note_off channel=0 note=60 velocity=127 time=0.010416666666666666\n",
      "note_off channel=0 note=62 velocity=127 time=0.010416666666666666\n",
      "note_on channel=0 note=61 velocity=127 time=0.008333333333333333\n",
      "note_off channel=0 note=61 velocity=127 time=0.019791666666666666\n",
      "note_on channel=0 note=60 velocity=127 time=0.027083333333333334\n",
      "note_off channel=0 note=60 velocity=127 time=0.019791666666666666\n",
      "note_on channel=0 note=62 velocity=127 time=0.05416666666666667\n",
      "note_on channel=0 note=60 velocity=127 time=0.011458333333333333\n",
      "note_off channel=0 note=62 velocity=127 time=0.008333333333333333\n",
      "note_off channel=0 note=60 velocity=127 time=0.011458333333333333\n",
      "note_on channel=0 note=61 velocity=127 time=0.004166666666666667\n",
      "note_off channel=0 note=61 velocity=127 time=0.019791666666666666\n",
      "note_on channel=0 note=60 velocity=127 time=0.040625\n",
      "note_off channel=0 note=60 velocity=127 time=0.019791666666666666\n",
      "note_on channel=0 note=62 velocity=127 time=0.03229166666666666\n",
      "note_off channel=0 note=62 velocity=127 time=0.019791666666666666\n",
      "note_on channel=0 note=60 velocity=127 time=0.013541666666666667\n",
      "note_on channel=0 note=61 velocity=127 time=0.010416666666666666\n",
      "note_off channel=0 note=60 velocity=127 time=0.009375\n",
      "note_off channel=0 note=61 velocity=127 time=0.010416666666666666\n",
      "note_on channel=0 note=60 velocity=127 time=0.05416666666666667\n",
      "note_off channel=0 note=60 velocity=127 time=0.019791666666666666\n",
      "note_on channel=0 note=62 velocity=127 time=0.010416666666666666\n",
      "note_off channel=0 note=62 velocity=127 time=0.019791666666666666\n",
      "note_on channel=0 note=61 velocity=127 time=0.03125\n",
      "note_on channel=0 note=60 velocity=127 time=0.003125\n",
      "note_off channel=0 note=61 velocity=127 time=0.016666666666666666\n",
      "note_off channel=0 note=60 velocity=127 time=0.003125\n",
      "note_on channel=0 note=60 velocity=127 time=0.065625\n",
      "note_on channel=0 note=62 velocity=127 time=0.009375\n",
      "note_off channel=0 note=60 velocity=127 time=0.011458333333333333\n",
      "note_off channel=0 note=62 velocity=127 time=0.009375\n",
      "note_on channel=0 note=61 velocity=127 time=0.03958333333333333\n",
      "note_on channel=0 note=60 velocity=127 time=0.016666666666666666\n",
      "note_off channel=0 note=61 velocity=127 time=0.003125\n",
      "note_off channel=0 note=60 velocity=127 time=0.016666666666666666\n",
      "note_on channel=0 note=62 velocity=127 time=0.053125\n",
      "note_on channel=0 note=60 velocity=127 time=0.0125\n",
      "note_off channel=0 note=62 velocity=127 time=0.007291666666666667\n",
      "note_off channel=0 note=60 velocity=127 time=0.0125\n",
      "note_on channel=0 note=61 velocity=127 time=0.034375\n",
      "note_off channel=0 note=61 velocity=127 time=0.019791666666666666\n",
      "note_on channel=0 note=60 velocity=127 time=0.010416666666666666\n",
      "note_off channel=0 note=60 velocity=127 time=0.019791666666666666\n",
      "note_on channel=0 note=62 velocity=127 time=0.03125\n",
      "note_off channel=0 note=62 velocity=127 time=0.019791666666666666\n",
      "note_on channel=0 note=60 velocity=127 time=0.014583333333333334\n",
      "note_off channel=0 note=60 velocity=127 time=0.019791666666666666\n",
      "note_on channel=0 note=61 velocity=127 time=0.020833333333333332\n",
      "note_off channel=0 note=61 velocity=127 time=0.019791666666666666\n",
      "note_on channel=0 note=60 velocity=127 time=0.025\n",
      "note_off channel=0 note=60 velocity=127 time=0.019791666666666666\n",
      "note_on channel=0 note=62 velocity=127 time=0.009375\n",
      "note_off channel=0 note=62 velocity=127 time=0.019791666666666666\n",
      "note_on channel=0 note=60 velocity=127 time=0.035416666666666666\n",
      "note_off channel=0 note=60 velocity=127 time=0.019791666666666666\n",
      "note_on channel=0 note=61 velocity=127 time=0.00625\n",
      "note_off channel=0 note=61 velocity=127 time=0.019791666666666666\n",
      "note_on channel=0 note=60 velocity=127 time=0.03854166666666667\n",
      "note_on channel=0 note=62 velocity=127 time=0.008333333333333333\n",
      "note_off channel=0 note=60 velocity=127 time=0.0125\n",
      "note_off channel=0 note=62 velocity=127 time=0.008333333333333333\n",
      "note_on channel=0 note=60 velocity=127 time=0.057291666666666664\n",
      "note_on channel=0 note=61 velocity=127 time=0.0125\n",
      "note_off channel=0 note=60 velocity=127 time=0.007291666666666667\n",
      "note_off channel=0 note=61 velocity=127 time=0.0125\n",
      "note_on channel=0 note=62 velocity=127 time=0.03854166666666667\n",
      "note_on channel=0 note=60 velocity=127 time=0.013541666666666667\n",
      "note_off channel=0 note=62 velocity=127 time=0.00625\n",
      "note_off channel=0 note=60 velocity=127 time=0.013541666666666667\n",
      "note_on channel=0 note=61 velocity=127 time=0.06458333333333333\n",
      "note_on channel=0 note=60 velocity=127 time=0.0010416666666666667\n",
      "note_off channel=0 note=61 velocity=127 time=0.01875\n",
      "note_off channel=0 note=60 velocity=127 time=0.0010416666666666667\n",
      "note_on channel=0 note=62 velocity=127 time=0.030208333333333334\n",
      "\u001b[91m [DEBUG] > \u001b[0m\n",
      " |>  to_array: msg.time > max_t; t, n\n",
      " |>  3.003125000000001\n",
      " |>  150\n"
     ]
    },
    {
     "name": "stdout",
     "output_type": "stream",
     "text": [
      "note_on channel=0 note=60 velocity=127 time=0.007291666666666667\n",
      "note_off channel=0 note=60 velocity=127 time=0.019791666666666666\n",
      "note_on channel=0 note=61 velocity=127 time=0.029166666666666667\n",
      "note_off channel=0 note=61 velocity=127 time=0.019791666666666666\n",
      "note_on channel=0 note=62 velocity=127 time=0.0010416666666666667\n",
      "note_on channel=0 note=60 velocity=127 time=0.0010416666666666667\n",
      "note_off channel=0 note=62 velocity=127 time=0.01875\n",
      "note_off channel=0 note=60 velocity=127 time=0.0010416666666666667\n",
      "note_on channel=0 note=60 velocity=127 time=0.051041666666666666\n",
      "note_on channel=0 note=61 velocity=127 time=0.011458333333333333\n",
      "note_on channel=0 note=62 velocity=127 time=0.003125\n",
      "note_off channel=0 note=60 velocity=127 time=0.00625\n",
      "note_off channel=0 note=61 velocity=127 time=0.011458333333333333\n",
      "note_off channel=0 note=62 velocity=127 time=0.003125\n",
      "note_on channel=0 note=60 velocity=127 time=0.036458333333333336\n",
      "note_off channel=0 note=60 velocity=127 time=0.019791666666666666\n",
      "note_on channel=0 note=62 velocity=127 time=0.009375\n",
      "note_on channel=0 note=61 velocity=127 time=0.015625\n",
      "note_off channel=0 note=62 velocity=127 time=0.005208333333333333\n",
      "note_off channel=0 note=61 velocity=127 time=0.015625\n",
      "note_on channel=0 note=60 velocity=127 time=0.00625\n",
      "note_off channel=0 note=60 velocity=127 time=0.019791666666666666\n",
      "note_on channel=0 note=62 velocity=127 time=0.02395833333333333\n",
      "note_off channel=0 note=62 velocity=127 time=0.019791666666666666\n",
      "note_on channel=0 note=60 velocity=127 time=0.007291666666666667\n",
      "note_on channel=0 note=61 velocity=127 time=0.00625\n",
      "note_off channel=0 note=60 velocity=127 time=0.013541666666666667\n",
      "note_off channel=0 note=61 velocity=127 time=0.00625\n",
      "note_on channel=0 note=62 velocity=127 time=0.03229166666666666\n",
      "note_on channel=0 note=60 velocity=127 time=0.0125\n",
      "note_off channel=0 note=62 velocity=127 time=0.008333333333333333\n",
      "note_off channel=0 note=60 velocity=127 time=0.0125\n",
      "note_on channel=0 note=61 velocity=127 time=0.019791666666666666\n",
      "note_off channel=0 note=61 velocity=127 time=0.019791666666666666\n",
      "note_on channel=0 note=60 velocity=127 time=0.011458333333333333\n",
      "note_on channel=0 note=62 velocity=127 time=0.003125\n",
      "note_off channel=0 note=60 velocity=127 time=0.016666666666666666\n",
      "note_off channel=0 note=62 velocity=127 time=0.003125\n",
      "note_on channel=0 note=60 velocity=127 time=0.04791666666666666\n",
      "note_on channel=0 note=61 velocity=127 time=0.0020833333333333333\n",
      "note_on channel=0 note=62 velocity=127 time=0.015625\n",
      "note_off channel=0 note=60 velocity=127 time=0.0020833333333333333\n",
      "note_off channel=0 note=61 velocity=127 time=0.0020833333333333333\n",
      "note_off channel=0 note=62 velocity=127 time=0.015625\n",
      "note_on channel=0 note=60 velocity=127 time=0.03333333333333333\n",
      "note_off channel=0 note=60 velocity=127 time=0.019791666666666666\n",
      "note_on channel=0 note=62 velocity=127 time=0.0125\n",
      "note_on channel=0 note=61 velocity=127 time=0.0020833333333333333\n",
      "note_off channel=0 note=62 velocity=127 time=0.017708333333333333\n",
      "note_off channel=0 note=61 velocity=127 time=0.0020833333333333333\n",
      "note_on channel=0 note=60 velocity=127 time=0.015625\n",
      "note_off channel=0 note=60 velocity=127 time=0.019791666666666666\n",
      "note_on channel=0 note=62 velocity=127 time=0.028125\n",
      "note_off channel=0 note=62 velocity=127 time=0.019791666666666666\n",
      "note_on channel=0 note=61 velocity=127 time=0\n",
      "note_on channel=0 note=60 velocity=127 time=0.003125\n",
      "note_off channel=0 note=61 velocity=127 time=0.017708333333333333\n",
      "note_off channel=0 note=60 velocity=127 time=0.003125\n",
      "note_on channel=0 note=62 velocity=127 time=0.042708333333333334\n",
      "note_on channel=0 note=60 velocity=127 time=0.008333333333333333\n",
      "note_off channel=0 note=62 velocity=127 time=0.011458333333333333\n",
      "note_off channel=0 note=60 velocity=127 time=0.008333333333333333\n",
      "note_on channel=0 note=61 velocity=127 time=0.010416666666666666\n",
      "note_off channel=0 note=61 velocity=127 time=0.019791666666666666\n",
      "note_on channel=0 note=60 velocity=127 time=0.020833333333333332\n",
      "note_on channel=0 note=62 velocity=127 time=0.00625\n",
      "note_off channel=0 note=60 velocity=127 time=0.013541666666666667\n",
      "note_off channel=0 note=62 velocity=127 time=0.00625\n",
      "note_on channel=0 note=61 velocity=127 time=0.036458333333333336\n",
      "note_on channel=0 note=60 velocity=127 time=0.007291666666666667\n",
      "note_off channel=0 note=61 velocity=127 time=0.0125\n",
      "note_off channel=0 note=60 velocity=127 time=0.007291666666666667\n",
      "note_on channel=0 note=62 velocity=127 time=0.0020833333333333333\n",
      "note_off channel=0 note=62 velocity=127 time=0.019791666666666666\n",
      "note_on channel=0 note=60 velocity=127 time=0.029166666666666667\n",
      "note_off channel=0 note=60 velocity=127 time=0.019791666666666666\n",
      "note_on channel=0 note=61 velocity=127 time=0.00625\n",
      "note_on channel=0 note=62 velocity=127 time=0.010416666666666666\n",
      "note_off channel=0 note=61 velocity=127 time=0.009375\n",
      "note_off channel=0 note=62 velocity=127 time=0.010416666666666666\n",
      "note_on channel=0 note=60 velocity=127 time=0.014583333333333334\n",
      "note_off channel=0 note=60 velocity=127 time=0.019791666666666666\n",
      "note_on channel=0 note=62 velocity=127 time=0.03125\n",
      "note_on channel=0 note=61 velocity=127 time=0.007291666666666667\n",
      "note_on channel=0 note=60 velocity=127 time=0.011458333333333333\n",
      "note_off channel=0 note=62 velocity=127 time=0.0010416666666666667\n",
      "note_off channel=0 note=61 velocity=127 time=0.007291666666666667\n",
      "note_off channel=0 note=60 velocity=127 time=0.011458333333333333\n",
      "note_on channel=0 note=62 velocity=127 time=0.046875\n",
      "note_on channel=0 note=60 velocity=127 time=0.004166666666666667\n",
      "note_off channel=0 note=62 velocity=127 time=0.015625\n",
      "note_off channel=0 note=60 velocity=127 time=0.004166666666666667\n",
      "note_on channel=0 note=61 velocity=127 time=0.0010416666666666667\n",
      "note_off channel=0 note=61 velocity=127 time=0.019791666666666666\n",
      "note_on channel=0 note=60 velocity=127 time=0.029166666666666667\n",
      "note_on channel=0 note=62 velocity=127 time=0.010416666666666666\n",
      "note_off channel=0 note=60 velocity=127 time=0.009375\n",
      "note_off channel=0 note=62 velocity=127 time=0.010416666666666666\n",
      "note_on channel=0 note=61 velocity=127 time=0.02395833333333333\n",
      "note_on channel=0 note=60 velocity=127 time=0.016666666666666666\n",
      "note_off channel=0 note=61 velocity=127 time=0.003125\n",
      "note_off channel=0 note=60 velocity=127 time=0.016666666666666666\n",
      "note_on channel=0 note=62 velocity=127 time=0.005208333333333333\n",
      "note_off channel=0 note=62 velocity=127 time=0.019791666666666666\n",
      "note_on channel=0 note=60 velocity=127 time=0.025\n",
      "note_on channel=0 note=61 velocity=127 time=0.016666666666666666\n",
      "note_off channel=0 note=60 velocity=127 time=0.003125\n",
      "note_off channel=0 note=61 velocity=127 time=0.016666666666666666\n",
      "note_on channel=0 note=62 velocity=127 time=0.004166666666666667\n",
      "note_off channel=0 note=62 velocity=127 time=0.019791666666666666\n",
      "note_on channel=0 note=60 velocity=127 time=0.010416666666666666\n",
      "note_off channel=0 note=60 velocity=127 time=0.019791666666666666\n",
      "note_on channel=0 note=61 velocity=127 time=0.030208333333333334\n",
      "note_on channel=0 note=62 velocity=127 time=0.005208333333333333\n",
      "note_off channel=0 note=61 velocity=127 time=0.014583333333333334\n",
      "note_on channel=0 note=60 velocity=127 time=0.0010416666666666667\n",
      "note_off channel=0 note=62 velocity=127 time=0.004166666666666667\n",
      "note_off channel=0 note=60 velocity=127 time=0.015625\n",
      "note_on channel=0 note=62 velocity=127 time=0.05\n",
      "note_on channel=0 note=60 velocity=127 time=0.0010416666666666667\n",
      "note_on channel=0 note=61 velocity=127 time=0.0125\n",
      "note_off channel=0 note=62 velocity=127 time=0.007291666666666667\n",
      "note_off channel=0 note=60 velocity=127 time=0.0010416666666666667\n",
      "note_off channel=0 note=61 velocity=127 time=0.0125\n",
      "note_on channel=0 note=60 velocity=127 time=0.03854166666666667\n",
      "note_on channel=0 note=62 velocity=127 time=0.014583333333333334\n",
      "note_off channel=0 note=60 velocity=127 time=0.00625\n",
      "note_off channel=0 note=62 velocity=127 time=0.014583333333333334\n",
      "note_on channel=0 note=61 velocity=127 time=0.010416666666666666\n",
      "note_off channel=0 note=61 velocity=127 time=0.019791666666666666\n",
      "note_on channel=0 note=60 velocity=127 time=0.005208333333333333\n",
      "note_off channel=0 note=60 velocity=127 time=0.019791666666666666\n",
      "note_on channel=0 note=62 velocity=127 time=0.009375\n",
      "note_off channel=0 note=62 velocity=127 time=0.019791666666666666\n",
      "note_on channel=0 note=60 velocity=127 time=0.021875\n",
      "note_on channel=0 note=61 velocity=127 time=0.007291666666666667\n",
      "note_off channel=0 note=60 velocity=127 time=0.0125\n",
      "note_off channel=0 note=61 velocity=127 time=0.007291666666666667\n",
      "note_on channel=0 note=62 velocity=127 time=0.016666666666666666\n",
      "note_off channel=0 note=62 velocity=127 time=0.019791666666666666\n",
      "note_on channel=0 note=60 velocity=127 time=0.00625\n",
      "note_off channel=0 note=60 velocity=127 time=0.019791666666666666\n",
      "note_on channel=0 note=61 velocity=127 time=0.020833333333333332\n",
      "note_on channel=0 note=62 velocity=127 time=0.01875\n",
      "note_off channel=0 note=61 velocity=127 time=0.0010416666666666667\n",
      "note_on channel=0 note=60 velocity=127 time=0.010416666666666666\n",
      "note_off channel=0 note=62 velocity=127 time=0.008333333333333333\n",
      "note_off channel=0 note=60 velocity=127 time=0.011458333333333333\n",
      "note_on channel=0 note=60 velocity=127 time=0.051041666666666666\n",
      "note_on channel=0 note=61 velocity=127 time=0.003125\n",
      "note_on channel=0 note=62 velocity=127 time=0\n",
      "note_off channel=0 note=60 velocity=127 time=0.016666666666666666\n",
      "note_off channel=0 note=61 velocity=127 time=0.003125\n",
      "note_off channel=0 note=62 velocity=127 time=0\n",
      "note_on channel=0 note=60 velocity=127 time=0.04791666666666666\n",
      "note_on channel=0 note=62 velocity=127 time=0.017708333333333333\n",
      "note_off channel=0 note=60 velocity=127 time=0.0020833333333333333\n",
      "note_on channel=0 note=61 velocity=127 time=0.015625\n",
      "note_off channel=0 note=62 velocity=127 time=0.0020833333333333333\n",
      "note_off channel=0 note=61 velocity=127 time=0.017708333333333333\n",
      "note_on channel=0 note=60 velocity=127 time=0.014583333333333334\n",
      "note_off channel=0 note=60 velocity=127 time=0.019791666666666666\n",
      "note_on channel=0 note=62 velocity=127 time=0.0125\n",
      "note_off channel=0 note=62 velocity=127 time=0.019791666666666666\n",
      "note_on channel=0 note=61 velocity=127 time=0.015625\n",
      "note_on channel=0 note=60 velocity=127 time=0.0020833333333333333\n",
      "note_off channel=0 note=61 velocity=127 time=0.01875\n",
      "note_off channel=0 note=60 velocity=127 time=0.0020833333333333333\n",
      "note_on channel=0 note=62 velocity=127 time=0.028125\n",
      "note_off channel=0 note=62 velocity=127 time=0.019791666666666666\n",
      "note_on channel=0 note=60 velocity=127 time=0.003125\n",
      "note_off channel=0 note=60 velocity=127 time=0.019791666666666666\n",
      "note_on channel=0 note=61 velocity=127 time=0.011458333333333333\n",
      "note_off channel=0 note=61 velocity=127 time=0.019791666666666666\n",
      "note_on channel=0 note=62 velocity=127 time=0.011458333333333333\n",
      "note_on channel=0 note=60 velocity=127 time=0.008333333333333333\n",
      "note_off channel=0 note=62 velocity=127 time=0.0125\n",
      "note_off channel=0 note=60 velocity=127 time=0.008333333333333333\n",
      "note_on channel=0 note=61 velocity=127 time=0.04479166666666667\n",
      "note_on channel=0 note=60 velocity=127 time=0.00625\n",
      "note_on channel=0 note=62 velocity=127 time=0.007291666666666667\n",
      "note_off channel=0 note=61 velocity=127 time=0.00625\n",
      "note_off channel=0 note=60 velocity=127 time=0.00625\n",
      "note_off channel=0 note=62 velocity=127 time=0.007291666666666667\n",
      "note_on channel=0 note=60 velocity=127 time=0.04375\n",
      "note_off channel=0 note=60 velocity=127 time=0.019791666666666666\n",
      "note_on channel=0 note=62 velocity=127 time=0.0020833333333333333\n",
      "note_on channel=0 note=61 velocity=127 time=0.005208333333333333\n",
      "note_off channel=0 note=62 velocity=127 time=0.014583333333333334\n",
      "note_off channel=0 note=61 velocity=127 time=0.005208333333333333\n",
      "note_on channel=0 note=60 velocity=127 time=0.02395833333333333\n",
      "note_off channel=0 note=60 velocity=127 time=0.019791666666666666\n",
      "note_on channel=0 note=62 velocity=127 time=0.016666666666666666\n",
      "note_off channel=0 note=62 velocity=127 time=0.019791666666666666\n",
      "note_on channel=0 note=61 velocity=127 time=0.003125\n",
      "note_on channel=0 note=60 velocity=127 time=0.010416666666666666\n",
      "note_off channel=0 note=61 velocity=127 time=0.009375\n",
      "note_off channel=0 note=60 velocity=127 time=0.010416666666666666\n",
      "note_on channel=0 note=62 velocity=127 time=0.03125\n",
      "note_on channel=0 note=60 velocity=127 time=0.01875\n",
      "note_off channel=0 note=62 velocity=127 time=0.0010416666666666667\n",
      "note_off channel=0 note=60 velocity=127 time=0.01875\n",
      "note_on channel=0 note=61 velocity=127 time=0.0020833333333333333\n",
      "note_off channel=0 note=61 velocity=127 time=0.019791666666666666\n",
      "note_on channel=0 note=62 velocity=127 time=0.02395833333333333\n",
      "note_on channel=0 note=60 velocity=127 time=0.004166666666666667\n",
      "note_off channel=0 note=62 velocity=127 time=0.015625\n",
      "note_off channel=0 note=60 velocity=127 time=0.004166666666666667\n",
      "note_on channel=0 note=61 velocity=127 time=0.035416666666666666\n",
      "note_on channel=0 note=60 velocity=127 time=0.015625\n",
      "note_off channel=0 note=61 velocity=127 time=0.004166666666666667\n",
      "note_on channel=0 note=62 velocity=127 time=0.00625\n",
      "note_off channel=0 note=60 velocity=127 time=0.009375\n",
      "\u001b[91m [DEBUG] > \u001b[0m\n",
      " |>  to_array: msg.time > max_t; t, n\n",
      " |>  2.9979166666666672\n",
      " |>  150\n",
      "note_on channel=0 note=61 velocity=127 time=0.03854166666666667\n",
      "note_on channel=0 note=60 velocity=127 time=0.005208333333333333\n",
      "note_off channel=0 note=61 velocity=127 time=0.014583333333333334\n",
      "note_off channel=0 note=60 velocity=127 time=0.005208333333333333\n",
      "note_on channel=0 note=62 velocity=127 time=0.026041666666666668\n",
      "note_off channel=0 note=62 velocity=127 time=0.019791666666666666\n",
      "note_on channel=0 note=60 velocity=127 time=0.009375\n",
      "note_off channel=0 note=60 velocity=127 time=0.019791666666666666\n",
      "note_on channel=0 note=61 velocity=127 time=0.02395833333333333\n",
      "note_off channel=0 note=61 velocity=127 time=0.019791666666666666\n",
      "note_on channel=0 note=60 velocity=127 time=0.011458333333333333\n",
      "note_off channel=0 note=60 velocity=127 time=0.019791666666666666\n",
      "note_on channel=0 note=62 velocity=127 time=0.003125\n",
      "note_off channel=0 note=62 velocity=127 time=0.019791666666666666\n",
      "note_on channel=0 note=60 velocity=127 time=0.03229166666666666\n",
      "note_on channel=0 note=61 velocity=127 time=0.017708333333333333\n",
      "note_off channel=0 note=60 velocity=127 time=0.0020833333333333333\n",
      "note_off channel=0 note=61 velocity=127 time=0.017708333333333333\n",
      "note_on channel=0 note=60 velocity=127 time=0.0375\n",
      "note_on channel=0 note=62 velocity=127 time=0\n",
      "note_off channel=0 note=60 velocity=127 time=0.019791666666666666\n",
      "note_off channel=0 note=62 velocity=127 time=0\n",
      "note_on channel=0 note=61 velocity=127 time=0.046875\n",
      "note_on channel=0 note=60 velocity=127 time=0.008333333333333333\n",
      "note_off channel=0 note=61 velocity=127 time=0.011458333333333333\n",
      "note_off channel=0 note=60 velocity=127 time=0.008333333333333333\n",
      "note_on channel=0 note=62 velocity=127 time=0.03333333333333333\n",
      "note_off channel=0 note=62 velocity=127 time=0.019791666666666666\n",
      "note_on channel=0 note=60 velocity=127 time=0.0020833333333333333\n",
      "note_off channel=0 note=60 velocity=127 time=0.019791666666666666\n",
      "note_on channel=0 note=61 velocity=127 time=0.020833333333333332\n",
      "note_off channel=0 note=61 velocity=127 time=0.019791666666666666\n",
      "note_on channel=0 note=60 velocity=127 time=0.014583333333333334\n",
      "note_off channel=0 note=60 velocity=127 time=0.019791666666666666\n",
      "note_on channel=0 note=62 velocity=127 time=0.010416666666666666\n",
      "note_off channel=0 note=62 velocity=127 time=0.019791666666666666\n",
      "note_on channel=0 note=60 velocity=127 time=0.025\n",
      "note_on channel=0 note=61 velocity=127 time=0.014583333333333334\n",
      "note_off channel=0 note=60 velocity=127 time=0.005208333333333333\n",
      "note_off channel=0 note=61 velocity=127 time=0.014583333333333334\n",
      "note_on channel=0 note=60 velocity=127 time=0.040625\n",
      "note_on channel=0 note=62 velocity=127 time=0.007291666666666667\n",
      "note_off channel=0 note=60 velocity=127 time=0.0125\n",
      "note_off channel=0 note=62 velocity=127 time=0.007291666666666667\n",
      "note_on channel=0 note=61 velocity=127 time=0.036458333333333336\n",
      "note_on channel=0 note=60 velocity=127 time=0.011458333333333333\n",
      "note_off channel=0 note=61 velocity=127 time=0.008333333333333333\n",
      "note_off channel=0 note=60 velocity=127 time=0.011458333333333333\n",
      "note_on channel=0 note=62 velocity=127 time=0.040625\n",
      "note_on channel=0 note=60 velocity=127 time=0.014583333333333334\n",
      "note_off channel=0 note=62 velocity=127 time=0.005208333333333333\n",
      "note_off channel=0 note=60 velocity=127 time=0.014583333333333334\n",
      "note_on channel=0 note=61 velocity=127 time=0.017708333333333333\n",
      "note_off channel=0 note=61 velocity=127 time=0.019791666666666666\n",
      "note_on channel=0 note=60 velocity=127 time=0.017708333333333333\n",
      "note_off channel=0 note=60 velocity=127 time=0.019791666666666666\n",
      "note_on channel=0 note=62 velocity=127 time=0.017708333333333333\n",
      "note_off channel=0 note=62 velocity=127 time=0.019791666666666666\n",
      "note_on channel=0 note=60 velocity=127 time=0.017708333333333333\n",
      "note_on channel=0 note=61 velocity=127 time=0.011458333333333333\n",
      "note_off channel=0 note=60 velocity=127 time=0.008333333333333333\n",
      "note_off channel=0 note=61 velocity=127 time=0.011458333333333333\n",
      "note_on channel=0 note=60 velocity=127 time=0.04479166666666667\n",
      "note_on channel=0 note=62 velocity=127 time=0.014583333333333334\n",
      "note_off channel=0 note=60 velocity=127 time=0.005208333333333333\n",
      "note_off channel=0 note=62 velocity=127 time=0.014583333333333334\n",
      "note_on channel=0 note=61 velocity=127 time=0.026041666666666668\n",
      "note_on channel=0 note=60 velocity=127 time=0.014583333333333334\n",
      "note_off channel=0 note=61 velocity=127 time=0.005208333333333333\n",
      "note_off channel=0 note=60 velocity=127 time=0.014583333333333334\n",
      "note_on channel=0 note=62 velocity=127 time=0.04791666666666666\n",
      "note_on channel=0 note=60 velocity=127 time=0.007291666666666667\n",
      "note_off channel=0 note=62 velocity=127 time=0.0125\n",
      "note_off channel=0 note=60 velocity=127 time=0.007291666666666667\n",
      "note_on channel=0 note=61 velocity=127 time=0.014583333333333334\n",
      "note_off channel=0 note=61 velocity=127 time=0.019791666666666666\n",
      "note_on channel=0 note=60 velocity=127 time=0.021875\n",
      "note_off channel=0 note=60 velocity=127 time=0.019791666666666666\n",
      "note_on channel=0 note=62 velocity=127 time=0.025\n",
      "note_off channel=0 note=62 velocity=127 time=0.019791666666666666\n",
      "note_on channel=0 note=60 velocity=127 time=0.010416666666666666\n",
      "note_on channel=0 note=61 velocity=127 time=0.008333333333333333\n",
      "note_off channel=0 note=60 velocity=127 time=0.0125\n",
      "note_off channel=0 note=61 velocity=127 time=0.008333333333333333\n",
      "note_on channel=0 note=60 velocity=127 time=0.04791666666666666\n",
      "note_off channel=0 note=60 velocity=127 time=0.019791666666666666\n",
      "note_on channel=0 note=62 velocity=127 time=0.0020833333333333333\n",
      "note_off channel=0 note=62 velocity=127 time=0.019791666666666666\n",
      "note_on channel=0 note=61 velocity=127 time=0.014583333333333334\n",
      "note_on channel=0 note=60 velocity=127 time=0.01875\n",
      "note_off channel=0 note=61 velocity=127 time=0.0020833333333333333\n",
      "note_off channel=0 note=60 velocity=127 time=0.01875\n",
      "note_on channel=0 note=62 velocity=127 time=0.05520833333333333\n",
      "note_on channel=0 note=60 velocity=127 time=0.0010416666666666667\n",
      "note_off channel=0 note=62 velocity=127 time=0.019791666666666666\n",
      "note_off channel=0 note=60 velocity=127 time=0.0010416666666666667\n",
      "note_on channel=0 note=61 velocity=127 time=0.011458333333333333\n",
      "note_off channel=0 note=61 velocity=127 time=0.019791666666666666\n",
      "note_on channel=0 note=60 velocity=127 time=0.025\n",
      "note_off channel=0 note=60 velocity=127 time=0.019791666666666666\n",
      "note_on channel=0 note=62 velocity=127 time=0.03229166666666666\n",
      "note_off channel=0 note=62 velocity=127 time=0.019791666666666666\n",
      "note_on channel=0 note=60 velocity=127 time=0.003125\n",
      "note_on channel=0 note=61 velocity=127 time=0.004166666666666667\n",
      "note_off channel=0 note=60 velocity=127 time=0.015625\n",
      "note_off channel=0 note=61 velocity=127 time=0.004166666666666667\n",
      "note_on channel=0 note=60 velocity=127 time=0.051041666666666666\n",
      "note_off channel=0 note=60 velocity=127 time=0.019791666666666666\n",
      "note_on channel=0 note=62 velocity=127 time=0.009375\n",
      "note_off channel=0 note=62 velocity=127 time=0.019791666666666666\n",
      "note_on channel=0 note=61 velocity=127 time=0.004166666666666667\n",
      "note_off channel=0 note=61 velocity=127 time=0.019791666666666666\n",
      "note_on channel=0 note=60 velocity=127 time=0.0020833333333333333\n",
      "note_off channel=0 note=60 velocity=127 time=0.019791666666666666\n",
      "note_on channel=0 note=60 velocity=127 time=0.05625\n",
      "note_on channel=0 note=62 velocity=127 time=0.00625\n",
      "note_off channel=0 note=60 velocity=127 time=0.013541666666666667\n",
      "note_off channel=0 note=62 velocity=127 time=0.00625\n",
      "note_on channel=0 note=61 velocity=127 time=0.0010416666666666667\n",
      "note_off channel=0 note=61 velocity=127 time=0.019791666666666666\n",
      "note_on channel=0 note=60 velocity=127 time=0.028125\n",
      "note_off channel=0 note=60 velocity=127 time=0.019791666666666666\n",
      "note_on channel=0 note=62 velocity=127 time=0.03958333333333333\n",
      "note_on channel=0 note=60 velocity=127 time=0.015625\n",
      "note_on channel=0 note=61 velocity=127 time=0.0010416666666666667\n",
      "note_off channel=0 note=62 velocity=127 time=0.003125\n",
      "note_off channel=0 note=60 velocity=127 time=0.015625\n",
      "note_off channel=0 note=61 velocity=127 time=0.0010416666666666667\n",
      "note_on channel=0 note=60 velocity=127 time=0.05416666666666667\n",
      "note_off channel=0 note=60 velocity=127 time=0.019791666666666666\n",
      "note_on channel=0 note=62 velocity=127 time=0.016666666666666666\n",
      "note_on channel=0 note=61 velocity=127 time=0.013541666666666667\n",
      "note_off channel=0 note=62 velocity=127 time=0.00625\n",
      "note_off channel=0 note=61 velocity=127 time=0.013541666666666667\n",
      "note_on channel=0 note=60 velocity=127 time=0.005208333333333333\n",
      "note_off channel=0 note=60 velocity=127 time=0.019791666666666666\n",
      "note_on channel=0 note=60 velocity=127 time=0.05625\n",
      "note_on channel=0 note=62 velocity=127 time=0.013541666666666667\n",
      "note_off channel=0 note=60 velocity=127 time=0.00625\n",
      "note_on channel=0 note=61 velocity=127 time=0.004166666666666667\n",
      "note_off channel=0 note=62 velocity=127 time=0.009375\n",
      "note_off channel=0 note=61 velocity=127 time=0.010416666666666666\n",
      "note_on channel=0 note=60 velocity=127 time=0.03125\n",
      "note_off channel=0 note=60 velocity=127 time=0.019791666666666666\n",
      "note_on channel=0 note=62 velocity=127 time=0.046875\n",
      "note_on channel=0 note=61 velocity=127 time=0.00625\n",
      "note_on channel=0 note=60 velocity=127 time=0.0020833333333333333\n",
      "note_off channel=0 note=62 velocity=127 time=0.011458333333333333\n",
      "note_off channel=0 note=61 velocity=127 time=0.00625\n",
      "note_off channel=0 note=60 velocity=127 time=0.0020833333333333333\n",
      "note_on channel=0 note=60 velocity=127 time=0.05625\n",
      "note_off channel=0 note=60 velocity=127 time=0.019791666666666666\n",
      "note_on channel=0 note=62 velocity=127 time=0.02395833333333333\n",
      "note_on channel=0 note=61 velocity=127 time=0.003125\n",
      "note_off channel=0 note=62 velocity=127 time=0.016666666666666666\n",
      "note_off channel=0 note=61 velocity=127 time=0.003125\n",
      "note_on channel=0 note=60 velocity=127 time=0.008333333333333333\n",
      "note_off channel=0 note=60 velocity=127 time=0.019791666666666666\n",
      "note_on channel=0 note=60 velocity=127 time=0.05625\n",
      "note_off channel=0 note=60 velocity=127 time=0.019791666666666666\n",
      "note_on channel=0 note=61 velocity=127 time=0.0010416666666666667\n",
      "note_on channel=0 note=62 velocity=127 time=0\n",
      "note_off channel=0 note=61 velocity=127 time=0.019791666666666666\n",
      "note_off channel=0 note=62 velocity=127 time=0\n",
      "note_on channel=0 note=60 velocity=127 time=0.034375\n",
      "note_off channel=0 note=60 velocity=127 time=0.019791666666666666\n",
      "note_on channel=0 note=61 velocity=127 time=0.05\n",
      "note_on channel=0 note=62 velocity=127 time=0.004166666666666667\n",
      "note_on channel=0 note=60 velocity=127 time=0.0020833333333333333\n",
      "note_off channel=0 note=61 velocity=127 time=0.014583333333333334\n",
      "note_off channel=0 note=62 velocity=127 time=0.004166666666666667\n",
      "note_off channel=0 note=60 velocity=127 time=0.0020833333333333333\n",
      "note_on channel=0 note=60 velocity=127 time=0.05625\n",
      "note_off channel=0 note=60 velocity=127 time=0.019791666666666666\n",
      "\u001b[91m [DEBUG] > \u001b[0m\n",
      " |>  to_array: msg.time > max_t; t, n\n",
      " |>  3.004166666666668\n",
      " |>  150\n",
      "note_on channel=0 note=62 velocity=127 time=0.03125\n",
      "note_on channel=0 note=60 velocity=127 time=0.003125\n",
      "note_off channel=0 note=62 velocity=127 time=0.016666666666666666\n",
      "note_off channel=0 note=60 velocity=127 time=0.003125\n",
      "note_on channel=0 note=61 velocity=127 time=0.0010416666666666667\n",
      "note_off channel=0 note=61 velocity=127 time=0.019791666666666666\n",
      "note_on channel=0 note=62 velocity=127 time=0.03229166666666666\n",
      "note_on channel=0 note=60 velocity=127 time=0.007291666666666667\n",
      "note_on channel=0 note=61 velocity=127 time=0.009375\n",
      "note_off channel=0 note=62 velocity=127 time=0.0020833333333333333\n",
      "note_off channel=0 note=60 velocity=127 time=0.007291666666666667\n",
      "note_off channel=0 note=61 velocity=127 time=0.009375\n",
      "note_on channel=0 note=62 velocity=127 time=0.03958333333333333\n",
      "note_on channel=0 note=61 velocity=127 time=0.010416666666666666\n",
      "note_on channel=0 note=60 velocity=127 time=0.0010416666666666667\n",
      "note_off channel=0 note=62 velocity=127 time=0.007291666666666667\n",
      "note_off channel=0 note=61 velocity=127 time=0.010416666666666666\n",
      "note_off channel=0 note=60 velocity=127 time=0.0010416666666666667\n",
      "note_on channel=0 note=62 velocity=127 time=0.04479166666666667\n",
      "note_on channel=0 note=61 velocity=127 time=0.004166666666666667\n",
      "note_on channel=0 note=60 velocity=127 time=0.0125\n",
      "note_off channel=0 note=62 velocity=127 time=0.003125\n",
      "note_off channel=0 note=61 velocity=127 time=0.004166666666666667\n",
      "note_off channel=0 note=60 velocity=127 time=0.0125\n",
      "note_on channel=0 note=61 velocity=127 time=0.0375\n",
      "note_on channel=0 note=62 velocity=127 time=0.0020833333333333333\n",
      "note_off channel=0 note=61 velocity=127 time=0.017708333333333333\n",
      "note_off channel=0 note=62 velocity=127 time=0.0020833333333333333\n",
      "note_on channel=0 note=60 velocity=127 time=0.0010416666666666667\n",
      "note_off channel=0 note=60 velocity=127 time=0.019791666666666666\n",
      "note_on channel=0 note=61 velocity=127 time=0.026041666666666668\n",
      "note_on channel=0 note=62 velocity=127 time=0.009375\n",
      "note_off channel=0 note=61 velocity=127 time=0.010416666666666666\n",
      "note_off channel=0 note=62 velocity=127 time=0.009375\n",
      "note_on channel=0 note=60 velocity=127 time=0.00625\n",
      "note_off channel=0 note=60 velocity=127 time=0.019791666666666666\n",
      "note_on channel=0 note=61 velocity=127 time=0.014583333333333334\n",
      "note_on channel=0 note=62 velocity=127 time=0.015625\n",
      "note_off channel=0 note=61 velocity=127 time=0.004166666666666667\n",
      "note_off channel=0 note=62 velocity=127 time=0.015625\n",
      "note_on channel=0 note=60 velocity=127 time=0.010416666666666666\n",
      "note_off channel=0 note=60 velocity=127 time=0.019791666666666666\n",
      "note_on channel=0 note=61 velocity=127 time=0.003125\n",
      "note_off channel=0 note=61 velocity=127 time=0.019791666666666666\n",
      "note_on channel=0 note=62 velocity=127 time=0.003125\n",
      "note_off channel=0 note=62 velocity=127 time=0.019791666666666666\n",
      "note_on channel=0 note=60 velocity=127 time=0.014583333333333334\n",
      "note_on channel=0 note=61 velocity=127 time=0.0125\n",
      "note_off channel=0 note=60 velocity=127 time=0.007291666666666667\n",
      "note_off channel=0 note=61 velocity=127 time=0.0125\n",
      "note_on channel=0 note=62 velocity=127 time=0.009375\n",
      "note_off channel=0 note=62 velocity=127 time=0.019791666666666666\n",
      "note_on channel=0 note=60 velocity=127 time=0.019791666666666666\n",
      "note_on channel=0 note=61 velocity=127 time=0.0010416666666666667\n",
      "note_off channel=0 note=60 velocity=127 time=0.01875\n",
      "note_off channel=0 note=61 velocity=127 time=0.0010416666666666667\n",
      "note_on channel=0 note=62 velocity=127 time=0.015625\n",
      "note_off channel=0 note=62 velocity=127 time=0.019791666666666666\n",
      "note_on channel=0 note=61 velocity=127 time=0.013541666666666667\n",
      "note_on channel=0 note=60 velocity=127 time=0.010416666666666666\n",
      "note_off channel=0 note=61 velocity=127 time=0.009375\n",
      "note_off channel=0 note=60 velocity=127 time=0.010416666666666666\n",
      "note_on channel=0 note=62 velocity=127 time=0.0125\n",
      "note_off channel=0 note=62 velocity=127 time=0.019791666666666666\n",
      "note_on channel=0 note=61 velocity=127 time=0.007291666666666667\n",
      "note_off channel=0 note=61 velocity=127 time=0.019791666666666666\n",
      "note_on channel=0 note=60 velocity=127 time=0.0020833333333333333\n",
      "note_off channel=0 note=60 velocity=127 time=0.019791666666666666\n",
      "note_on channel=0 note=62 velocity=127 time=0.008333333333333333\n",
      "note_off channel=0 note=62 velocity=127 time=0.019791666666666666\n",
      "note_on channel=0 note=61 velocity=127 time=0\n",
      "note_off channel=0 note=61 velocity=127 time=0.019791666666666666\n",
      "note_on channel=0 note=60 velocity=127 time=0.0125\n",
      "note_off channel=0 note=60 velocity=127 time=0.019791666666666666\n",
      "note_on channel=0 note=62 velocity=127 time=0.003125\n",
      "note_on channel=0 note=61 velocity=127 time=0.013541666666666667\n",
      "note_off channel=0 note=62 velocity=127 time=0.00625\n",
      "note_off channel=0 note=61 velocity=127 time=0.013541666666666667\n",
      "note_on channel=0 note=60 velocity=127 time=0.02395833333333333\n",
      "note_on channel=0 note=62 velocity=127 time=0.01875\n",
      "note_off channel=0 note=60 velocity=127 time=0.0010416666666666667\n",
      "note_on channel=0 note=61 velocity=127 time=0.00625\n",
      "note_off channel=0 note=62 velocity=127 time=0.0125\n",
      "note_off channel=0 note=61 velocity=127 time=0.007291666666666667\n",
      "note_on channel=0 note=60 velocity=127 time=0.035416666666666666\n",
      "note_on channel=0 note=62 velocity=127 time=0.014583333333333334\n",
      "note_on channel=0 note=61 velocity=127 time=0\n",
      "note_off channel=0 note=60 velocity=127 time=0.005208333333333333\n",
      "note_off channel=0 note=62 velocity=127 time=0.014583333333333334\n",
      "note_off channel=0 note=61 velocity=127 time=0\n",
      "note_on channel=0 note=60 velocity=127 time=0.046875\n",
      "note_on channel=0 note=61 velocity=127 time=0.003125\n",
      "note_on channel=0 note=62 velocity=127 time=0.00625\n",
      "note_off channel=0 note=60 velocity=127 time=0.010416666666666666\n",
      "note_off channel=0 note=61 velocity=127 time=0.003125\n",
      "note_off channel=0 note=62 velocity=127 time=0.00625\n",
      "note_on channel=0 note=61 velocity=127 time=0.04375\n",
      "note_on channel=0 note=60 velocity=127 time=0.008333333333333333\n",
      "note_on channel=0 note=62 velocity=127 time=0.005208333333333333\n",
      "note_off channel=0 note=61 velocity=127 time=0.007291666666666667\n",
      "note_off channel=0 note=60 velocity=127 time=0.008333333333333333\n",
      "note_off channel=0 note=62 velocity=127 time=0.005208333333333333\n",
      "note_on channel=0 note=61 velocity=127 time=0.036458333333333336\n",
      "note_on channel=0 note=60 velocity=127 time=0.019791666666666666\n",
      "note_on channel=0 note=62 velocity=127 time=0.0010416666666666667\n",
      "note_off channel=0 note=61 velocity=127 time=0\n",
      "note_off channel=0 note=60 velocity=127 time=0.019791666666666666\n",
      "note_off channel=0 note=62 velocity=127 time=0.0010416666666666667\n",
      "note_on channel=0 note=61 velocity=127 time=0.030208333333333334\n",
      "note_off channel=0 note=61 velocity=127 time=0.019791666666666666\n",
      "note_on channel=0 note=62 velocity=127 time=0.00625\n",
      "note_on channel=0 note=60 velocity=127 time=0.004166666666666667\n",
      "note_off channel=0 note=62 velocity=127 time=0.015625\n",
      "note_off channel=0 note=60 velocity=127 time=0.004166666666666667\n",
      "note_on channel=0 note=61 velocity=127 time=0.019791666666666666\n",
      "note_off channel=0 note=61 velocity=127 time=0.019791666666666666\n",
      "note_on channel=0 note=62 velocity=127 time=0.013541666666666667\n",
      "note_on channel=0 note=60 velocity=127 time=0.008333333333333333\n",
      "note_off channel=0 note=62 velocity=127 time=0.011458333333333333\n",
      "note_off channel=0 note=60 velocity=127 time=0.008333333333333333\n",
      "note_on channel=0 note=61 velocity=127 time=0.008333333333333333\n",
      "note_off channel=0 note=61 velocity=127 time=0.019791666666666666\n",
      "note_on channel=0 note=62 velocity=127 time=0.019791666666666666\n",
      "note_on channel=0 note=60 velocity=127 time=0.013541666666666667\n",
      "note_off channel=0 note=62 velocity=127 time=0.007291666666666667\n",
      "note_on channel=0 note=61 velocity=127 time=0.010416666666666666\n",
      "note_off channel=0 note=60 velocity=127 time=0.003125\n",
      "note_off channel=0 note=61 velocity=127 time=0.016666666666666666\n",
      "note_on channel=0 note=62 velocity=127 time=0.027083333333333334\n",
      "note_on channel=0 note=60 velocity=127 time=0.017708333333333333\n",
      "note_off channel=0 note=62 velocity=127 time=0.0020833333333333333\n",
      "note_on channel=0 note=61 velocity=127 time=0.003125\n",
      "note_off channel=0 note=60 velocity=127 time=0.014583333333333334\n",
      "note_off channel=0 note=61 velocity=127 time=0.005208333333333333\n",
      "note_on channel=0 note=62 velocity=127 time=0.03333333333333333\n",
      "note_on channel=0 note=61 velocity=127 time=0.016666666666666666\n",
      "note_off channel=0 note=62 velocity=127 time=0.003125\n",
      "note_on channel=0 note=60 velocity=127 time=0.0020833333333333333\n",
      "note_off channel=0 note=61 velocity=127 time=0.014583333333333334\n",
      "note_off channel=0 note=60 velocity=127 time=0.005208333333333333\n",
      "note_on channel=0 note=62 velocity=127 time=0.034375\n",
      "note_on channel=0 note=61 velocity=127 time=0.009375\n",
      "note_off channel=0 note=62 velocity=127 time=0.010416666666666666\n"
     ]
    },
    {
     "name": "stdout",
     "output_type": "stream",
     "text": [
      "note_on channel=0 note=60 velocity=127 time=0.007291666666666667\n",
      "note_off channel=0 note=61 velocity=127 time=0.003125\n",
      "note_off channel=0 note=60 velocity=127 time=0.016666666666666666\n",
      "note_on channel=0 note=62 velocity=127 time=0.030208333333333334\n",
      "note_on channel=0 note=61 velocity=127 time=0.003125\n",
      "note_off channel=0 note=62 velocity=127 time=0.016666666666666666\n",
      "note_off channel=0 note=61 velocity=127 time=0.003125\n",
      "note_on channel=0 note=60 velocity=127 time=0.008333333333333333\n",
      "note_off channel=0 note=60 velocity=127 time=0.019791666666666666\n",
      "note_on channel=0 note=61 velocity=127 time=0.021875\n",
      "note_on channel=0 note=62 velocity=127 time=0.003125\n",
      "note_off channel=0 note=61 velocity=127 time=0.016666666666666666\n",
      "note_off channel=0 note=62 velocity=127 time=0.003125\n",
      "note_on channel=0 note=60 velocity=127 time=0.015625\n",
      "note_off channel=0 note=60 velocity=127 time=0.019791666666666666\n",
      "note_on channel=0 note=61 velocity=127 time=0.010416666666666666\n",
      "note_on channel=0 note=62 velocity=127 time=0.010416666666666666\n",
      "note_off channel=0 note=61 velocity=127 time=0.009375\n",
      "note_off channel=0 note=62 velocity=127 time=0.010416666666666666\n",
      "note_on channel=0 note=60 velocity=127 time=0.020833333333333332\n",
      "note_on channel=0 note=61 velocity=127 time=0.01875\n",
      "note_off channel=0 note=60 velocity=127 time=0.0010416666666666667\n",
      "note_on channel=0 note=62 velocity=127 time=0.016666666666666666\n",
      "note_off channel=0 note=61 velocity=127 time=0.003125\n",
      "note_off channel=0 note=62 velocity=127 time=0.016666666666666666\n",
      "note_on channel=0 note=60 velocity=127 time=0.025\n",
      "note_on channel=0 note=61 velocity=127 time=0.008333333333333333\n",
      "note_off channel=0 note=60 velocity=127 time=0.0125\n",
      "note_off channel=0 note=61 velocity=127 time=0.008333333333333333\n",
      "note_on channel=0 note=62 velocity=127 time=0.004166666666666667\n",
      "note_off channel=0 note=62 velocity=127 time=0.019791666666666666\n",
      "note_on channel=0 note=61 velocity=127 time=0.026041666666666668\n",
      "note_on channel=0 note=60 velocity=127 time=0.003125\n",
      "note_off channel=0 note=61 velocity=127 time=0.016666666666666666\n",
      "note_off channel=0 note=60 velocity=127 time=0.003125\n",
      "note_on channel=0 note=62 velocity=127 time=0.007291666666666667\n",
      "note_off channel=0 note=62 velocity=127 time=0.019791666666666666\n",
      "note_on channel=0 note=61 velocity=127 time=0.019791666666666666\n",
      "note_on channel=0 note=60 velocity=127 time=0.014583333333333334\n",
      "note_off channel=0 note=61 velocity=127 time=0.005208333333333333\n",
      "note_off channel=0 note=60 velocity=127 time=0.014583333333333334\n",
      "note_on channel=0 note=62 velocity=127 time=0.0020833333333333333\n",
      "note_off channel=0 note=62 velocity=127 time=0.019791666666666666\n",
      "note_on channel=0 note=61 velocity=127 time=0.0125\n",
      "note_off channel=0 note=61 velocity=127 time=0.019791666666666666\n",
      "note_on channel=0 note=60 velocity=127 time=0.00625\n",
      "note_on channel=0 note=62 velocity=127 time=0.017708333333333333\n",
      "note_off channel=0 note=60 velocity=127 time=0.0020833333333333333\n",
      "note_off channel=0 note=62 velocity=127 time=0.017708333333333333\n",
      "note_on channel=0 note=61 velocity=127 time=0.00625\n",
      "note_off channel=0 note=61 velocity=127 time=0.019791666666666666\n",
      "note_on channel=0 note=60 velocity=127 time=0.016666666666666666\n",
      "note_on channel=0 note=62 velocity=127 time=0.013541666666666667\n",
      "note_off channel=0 note=60 velocity=127 time=0.00625\n",
      "note_on channel=0 note=61 velocity=127 time=0.0125\n",
      "note_off channel=0 note=62 velocity=127 time=0.0010416666666666667\n",
      "note_off channel=0 note=61 velocity=127 time=0.019791666666666666\n",
      "note_on channel=0 note=60 velocity=127 time=0.028125\n",
      "note_on channel=0 note=62 velocity=127 time=0.009375\n",
      "note_off channel=0 note=60 velocity=127 time=0.011458333333333333\n",
      "note_on channel=0 note=61 velocity=127 time=0.0010416666666666667\n",
      "note_off channel=0 note=62 velocity=127 time=0.007291666666666667\n",
      "note_off channel=0 note=61 velocity=127 time=0.0125\n",
      "note_on channel=0 note=60 velocity=127 time=0.03958333333333333\n",
      "note_on channel=0 note=62 velocity=127 time=0.004166666666666667\n",
      "note_on channel=0 note=61 velocity=127 time=0.00625\n",
      "note_off channel=0 note=60 velocity=127 time=0.009375\n",
      "note_off channel=0 note=62 velocity=127 time=0.004166666666666667\n",
      "note_off channel=0 note=61 velocity=127 time=0.00625\n",
      "note_on channel=0 note=61 velocity=127 time=0.05\n",
      "note_on channel=0 note=62 velocity=127 time=0.0010416666666666667\n",
      "note_on channel=0 note=60 velocity=127 time=0\n",
      "note_off channel=0 note=61 velocity=127 time=0.01875\n",
      "note_off channel=0 note=62 velocity=127 time=0.0010416666666666667\n",
      "note_off channel=0 note=60 velocity=127 time=0\n",
      "note_on channel=0 note=61 velocity=127 time=0.04895833333333333\n",
      "note_on channel=0 note=62 velocity=127 time=0.007291666666666667\n",
      "note_on channel=0 note=60 velocity=127 time=0.005208333333333333\n",
      "note_off channel=0 note=61 velocity=127 time=0.007291666666666667\n",
      "note_off channel=0 note=62 velocity=127 time=0.007291666666666667\n",
      "note_off channel=0 note=60 velocity=127 time=0.005208333333333333\n",
      "note_on channel=0 note=61 velocity=127 time=0.0375\n",
      "note_on channel=0 note=62 velocity=127 time=0.014583333333333334\n",
      "note_off channel=0 note=61 velocity=127 time=0.00625\n",
      "note_on channel=0 note=60 velocity=127 time=0.003125\n",
      "note_off channel=0 note=62 velocity=127 time=0.010416666666666666\n",
      "note_off channel=0 note=60 velocity=127 time=0.009375\n",
      "note_on channel=0 note=61 velocity=127 time=0.026041666666666668\n",
      "note_off channel=0 note=61 velocity=127 time=0.019791666666666666\n",
      "note_on channel=0 note=62 velocity=127 time=0.0010416666666666667\n",
      "note_on channel=0 note=60 velocity=127 time=0.013541666666666667\n",
      "note_off channel=0 note=62 velocity=127 time=0.00625\n",
      "note_off channel=0 note=60 velocity=127 time=0.013541666666666667\n",
      "note_on channel=0 note=61 velocity=127 time=0.015625\n",
      "note_off channel=0 note=61 velocity=127 time=0.019791666666666666\n",
      "\u001b[91m [DEBUG] > \u001b[0m\n",
      " |>  to_array: msg.time > max_t; t, n\n",
      " |>  3.0031250000000016\n",
      " |>  150\n",
      "note_on channel=0 note=62 velocity=127 time=0.04479166666666667\n",
      "note_on channel=0 note=61 velocity=127 time=0.007291666666666667\n",
      "note_off channel=0 note=62 velocity=127 time=0.0125\n",
      "note_off channel=0 note=61 velocity=127 time=0.007291666666666667\n",
      "note_on channel=0 note=60 velocity=127 time=0.00625\n",
      "note_off channel=0 note=60 velocity=127 time=0.019791666666666666\n",
      "note_on channel=0 note=62 velocity=127 time=0.04583333333333333\n",
      "note_off channel=0 note=62 velocity=127 time=0.019791666666666666\n",
      "note_on channel=0 note=62 velocity=127 time=0.07916666666666666\n",
      "note_off channel=0 note=62 velocity=127 time=0.019791666666666666\n",
      "note_on channel=0 note=61 velocity=127 time=0.027083333333333334\n",
      "note_on channel=0 note=60 velocity=127 time=0.0020833333333333333\n",
      "note_off channel=0 note=61 velocity=127 time=0.017708333333333333\n",
      "note_off channel=0 note=60 velocity=127 time=0.0020833333333333333\n",
      "note_on channel=0 note=62 velocity=127 time=0.029166666666666667\n",
      "note_off channel=0 note=62 velocity=127 time=0.019791666666666666\n",
      "note_on channel=0 note=62 velocity=127 time=0.07916666666666666\n",
      "note_off channel=0 note=62 velocity=127 time=0.019791666666666666\n",
      "note_on channel=0 note=60 velocity=127 time=0.04583333333333333\n",
      "note_off channel=0 note=60 velocity=127 time=0.019791666666666666\n",
      "note_on channel=0 note=61 velocity=127 time=0.0010416666666666667\n",
      "note_on channel=0 note=62 velocity=127 time=0.0125\n",
      "note_off channel=0 note=61 velocity=127 time=0.007291666666666667\n",
      "note_off channel=0 note=62 velocity=127 time=0.0125\n",
      "note_on channel=0 note=62 velocity=127 time=0.07916666666666666\n",
      "note_off channel=0 note=62 velocity=127 time=0.019791666666666666\n",
      "note_on channel=0 note=60 velocity=127 time=0.0625\n",
      "note_on channel=0 note=62 velocity=127 time=0.016666666666666666\n",
      "note_off channel=0 note=60 velocity=127 time=0.003125\n",
      "note_off channel=0 note=62 velocity=127 time=0.016666666666666666\n",
      "note_on channel=0 note=61 velocity=127 time=0.007291666666666667\n",
      "note_off channel=0 note=61 velocity=127 time=0.019791666666666666\n",
      "note_on channel=0 note=62 velocity=127 time=0.052083333333333336\n",
      "note_off channel=0 note=62 velocity=127 time=0.019791666666666666\n",
      "note_on channel=0 note=60 velocity=127 time=0.07916666666666666\n",
      "note_on channel=0 note=62 velocity=127 time=0.0010416666666666667\n",
      "note_off channel=0 note=60 velocity=127 time=0.019791666666666666\n",
      "note_off channel=0 note=62 velocity=127 time=0.0010416666666666667\n",
      "note_on channel=0 note=61 velocity=127 time=0.046875\n",
      "note_off channel=0 note=61 velocity=127 time=0.019791666666666666\n",
      "note_on channel=0 note=62 velocity=127 time=0.0125\n",
      "note_off channel=0 note=62 velocity=127 time=0.019791666666666666\n",
      "note_on channel=0 note=62 velocity=127 time=0.07916666666666666\n",
      "note_on channel=0 note=60 velocity=127 time=0.015625\n",
      "note_off channel=0 note=62 velocity=127 time=0.004166666666666667\n",
      "note_off channel=0 note=60 velocity=127 time=0.015625\n",
      "note_on channel=0 note=62 velocity=127 time=0.06354166666666666\n",
      "note_on channel=0 note=61 velocity=127 time=0.007291666666666667\n",
      "note_off channel=0 note=62 velocity=127 time=0.0125\n",
      "note_off channel=0 note=61 velocity=127 time=0.007291666666666667\n",
      "note_on channel=0 note=62 velocity=127 time=0.071875\n",
      "note_off channel=0 note=62 velocity=127 time=0.019791666666666666\n",
      "note_on channel=0 note=60 velocity=127 time=0.0125\n",
      "note_off channel=0 note=60 velocity=127 time=0.019791666666666666\n",
      "note_on channel=0 note=62 velocity=127 time=0.046875\n",
      "note_off channel=0 note=62 velocity=127 time=0.019791666666666666\n",
      "note_on channel=0 note=61 velocity=127 time=0.027083333333333334\n",
      "note_off channel=0 note=61 velocity=127 time=0.019791666666666666\n",
      "note_on channel=0 note=62 velocity=127 time=0.03229166666666666\n",
      "note_off channel=0 note=62 velocity=127 time=0.019791666666666666\n",
      "note_on channel=0 note=60 velocity=127 time=0.028125\n",
      "note_off channel=0 note=60 velocity=127 time=0.019791666666666666\n",
      "note_on channel=0 note=62 velocity=127 time=0.030208333333333334\n",
      "note_off channel=0 note=62 velocity=127 time=0.019791666666666666\n",
      "note_on channel=0 note=61 velocity=127 time=0.06666666666666667\n",
      "note_on channel=0 note=62 velocity=127 time=0.0125\n",
      "note_off channel=0 note=61 velocity=127 time=0.007291666666666667\n",
      "note_off channel=0 note=62 velocity=127 time=0.0125\n",
      "note_on channel=0 note=60 velocity=127 time=0.04479166666666667\n",
      "note_off channel=0 note=60 velocity=127 time=0.019791666666666666\n",
      "note_on channel=0 note=62 velocity=127 time=0.014583333333333334\n",
      "note_off channel=0 note=62 velocity=127 time=0.019791666666666666\n",
      "note_on channel=0 note=62 velocity=127 time=0.07916666666666666\n",
      "note_off channel=0 note=62 velocity=127 time=0.019791666666666666\n",
      "note_on channel=0 note=61 velocity=127 time=0.007291666666666667\n",
      "note_off channel=0 note=61 velocity=127 time=0.019791666666666666\n",
      "note_on channel=0 note=60 velocity=127 time=0.034375\n",
      "note_on channel=0 note=62 velocity=127 time=0.017708333333333333\n",
      "note_off channel=0 note=60 velocity=127 time=0.0020833333333333333\n",
      "note_off channel=0 note=62 velocity=127 time=0.017708333333333333\n",
      "note_on channel=0 note=62 velocity=127 time=0.07916666666666666\n",
      "note_off channel=0 note=62 velocity=127 time=0.019791666666666666\n",
      "note_on channel=0 note=61 velocity=127 time=0.046875\n",
      "note_off channel=0 note=61 velocity=127 time=0.019791666666666666\n",
      "note_on channel=0 note=60 velocity=127 time=0.011458333333333333\n",
      "note_on channel=0 note=62 velocity=127 time=0.0010416666666666667\n",
      "note_off channel=0 note=60 velocity=127 time=0.01875\n",
      "note_off channel=0 note=62 velocity=127 time=0.0010416666666666667\n",
      "note_on channel=0 note=62 velocity=127 time=0.07916666666666666\n",
      "note_off channel=0 note=62 velocity=127 time=0.019791666666666666\n",
      "note_on channel=0 note=62 velocity=127 time=0.07916666666666666\n",
      "note_on channel=0 note=61 velocity=127 time=0.007291666666666667\n",
      "note_on channel=0 note=60 velocity=127 time=0.008333333333333333\n",
      "note_off channel=0 note=62 velocity=127 time=0.005208333333333333\n",
      "note_off channel=0 note=61 velocity=127 time=0.007291666666666667\n",
      "note_off channel=0 note=60 velocity=127 time=0.008333333333333333\n",
      "note_on channel=0 note=62 velocity=127 time=0.06458333333333333\n",
      "note_off channel=0 note=62 velocity=127 time=0.019791666666666666\n",
      "note_on channel=0 note=62 velocity=127 time=0.07916666666666666\n",
      "note_off channel=0 note=62 velocity=127 time=0.019791666666666666\n",
      "note_on channel=0 note=60 velocity=127 time=0.011458333333333333\n",
      "note_on channel=0 note=61 velocity=127 time=0.015625\n",
      "note_off channel=0 note=60 velocity=127 time=0.005208333333333333\n",
      "note_off channel=0 note=61 velocity=127 time=0.015625\n",
      "note_on channel=0 note=62 velocity=127 time=0.03229166666666666\n",
      "note_off channel=0 note=62 velocity=127 time=0.019791666666666666\n",
      "note_on channel=0 note=62 velocity=127 time=0.07916666666666666\n",
      "note_off channel=0 note=62 velocity=127 time=0.019791666666666666\n",
      "note_on channel=0 note=60 velocity=127 time=0.028125\n",
      "note_off channel=0 note=60 velocity=127 time=0.019791666666666666\n",
      "note_on channel=0 note=61 velocity=127 time=0.01875\n",
      "note_on channel=0 note=62 velocity=127 time=0.013541666666666667\n",
      "note_off channel=0 note=61 velocity=127 time=0.007291666666666667\n",
      "note_off channel=0 note=62 velocity=127 time=0.013541666666666667\n",
      "note_on channel=0 note=62 velocity=127 time=0.07916666666666666\n",
      "\u001b[91m [DEBUG] > \u001b[0m\n",
      " |>  to_array: msg.time > max_t; t, n\n",
      " |>  3.0187500000000003\n",
      " |>  150\n",
      "note_on channel=0 note=60 velocity=127 time=0.06979166666666667\n",
      "note_on channel=0 note=62 velocity=127 time=0.007291666666666667\n",
      "note_off channel=0 note=60 velocity=127 time=0.0125\n",
      "note_off channel=0 note=62 velocity=127 time=0.007291666666666667\n",
      "note_on channel=0 note=61 velocity=127 time=0.040625\n",
      "note_on channel=0 note=60 velocity=127 time=0.008333333333333333\n",
      "note_off channel=0 note=61 velocity=127 time=0.0125\n",
      "note_on channel=0 note=62 velocity=127 time=0.005208333333333333\n",
      "note_off channel=0 note=60 velocity=127 time=0.0020833333333333333\n",
      "note_off channel=0 note=62 velocity=127 time=0.017708333333333333\n",
      "note_on channel=0 note=60 velocity=127 time=0.0375\n",
      "note_off channel=0 note=60 velocity=127 time=0.019791666666666666\n",
      "note_on channel=0 note=62 velocity=127 time=0.008333333333333333\n",
      "note_off channel=0 note=62 velocity=127 time=0.019791666666666666\n",
      "note_on channel=0 note=61 velocity=127 time=0.025\n",
      "note_on channel=0 note=60 velocity=127 time=0.0020833333333333333\n",
      "note_off channel=0 note=61 velocity=127 time=0.017708333333333333\n",
      "note_off channel=0 note=60 velocity=127 time=0.0020833333333333333\n",
      "note_on channel=0 note=62 velocity=127 time=0.01875\n",
      "note_off channel=0 note=62 velocity=127 time=0.019791666666666666\n",
      "note_on channel=0 note=60 velocity=127 time=0.016666666666666666\n",
      "note_off channel=0 note=60 velocity=127 time=0.019791666666666666\n",
      "note_on channel=0 note=62 velocity=127 time=0.029166666666666667\n",
      "note_off channel=0 note=62 velocity=127 time=0.019791666666666666\n",
      "note_on channel=0 note=60 velocity=127 time=0.00625\n",
      "note_on channel=0 note=61 velocity=127 time=0.003125\n",
      "note_off channel=0 note=60 velocity=127 time=0.016666666666666666\n",
      "note_off channel=0 note=61 velocity=127 time=0.003125\n",
      "note_on channel=0 note=62 velocity=127 time=0.036458333333333336\n",
      "note_on channel=0 note=60 velocity=127 time=0.016666666666666666\n",
      "note_off channel=0 note=62 velocity=127 time=0.004166666666666667\n",
      "note_off channel=0 note=60 velocity=127 time=0.016666666666666666\n",
      "note_on channel=0 note=62 velocity=127 time=0.05\n",
      "note_on channel=0 note=60 velocity=127 time=0.005208333333333333\n",
      "note_on channel=0 note=61 velocity=127 time=0.008333333333333333\n",
      "note_off channel=0 note=62 velocity=127 time=0.00625\n",
      "note_off channel=0 note=60 velocity=127 time=0.005208333333333333\n",
      "note_off channel=0 note=61 velocity=127 time=0.008333333333333333\n",
      "note_on channel=0 note=60 velocity=127 time=0.046875\n",
      "note_on channel=0 note=62 velocity=127 time=0.005208333333333333\n",
      "note_off channel=0 note=60 velocity=127 time=0.015625\n",
      "note_off channel=0 note=62 velocity=127 time=0.005208333333333333\n",
      "note_on channel=0 note=60 velocity=127 time=0.051041666666666666\n",
      "note_on channel=0 note=61 velocity=127 time=0.013541666666666667\n",
      "note_on channel=0 note=62 velocity=127 time=0.0010416666666666667\n",
      "note_off channel=0 note=60 velocity=127 time=0.005208333333333333\n",
      "note_off channel=0 note=61 velocity=127 time=0.013541666666666667\n",
      "note_off channel=0 note=62 velocity=127 time=0.0010416666666666667\n",
      "note_on channel=0 note=60 velocity=127 time=0.040625\n",
      "note_off channel=0 note=60 velocity=127 time=0.019791666666666666\n",
      "note_on channel=0 note=62 velocity=127 time=0.005208333333333333\n",
      "note_off channel=0 note=62 velocity=127 time=0.019791666666666666\n",
      "note_on channel=0 note=60 velocity=127 time=0.030208333333333334\n",
      "note_on channel=0 note=61 velocity=127 time=0.01875\n",
      "note_off channel=0 note=60 velocity=127 time=0.0010416666666666667\n",
      "note_on channel=0 note=62 velocity=127 time=0.015625\n",
      "note_off channel=0 note=61 velocity=127 time=0.003125\n",
      "note_off channel=0 note=62 velocity=127 time=0.016666666666666666\n",
      "note_on channel=0 note=60 velocity=127 time=0.019791666666666666\n",
      "note_off channel=0 note=60 velocity=127 time=0.019791666666666666\n",
      "note_on channel=0 note=62 velocity=127 time=0.026041666666666668\n",
      "note_off channel=0 note=62 velocity=127 time=0.019791666666666666\n",
      "note_on channel=0 note=60 velocity=127 time=0.009375\n",
      "note_off channel=0 note=60 velocity=127 time=0.019791666666666666\n",
      "note_on channel=0 note=61 velocity=127 time=0.004166666666666667\n",
      "note_off channel=0 note=61 velocity=127 time=0.019791666666666666\n",
      "note_on channel=0 note=62 velocity=127 time=0.0125\n",
      "note_on channel=0 note=60 velocity=127 time=0.01875\n",
      "note_off channel=0 note=62 velocity=127 time=0.0010416666666666667\n",
      "note_off channel=0 note=60 velocity=127 time=0.01875\n",
      "note_on channel=0 note=62 velocity=127 time=0.046875\n",
      "note_on channel=0 note=60 velocity=127 time=0.008333333333333333\n",
      "note_off channel=0 note=62 velocity=127 time=0.011458333333333333\n",
      "note_off channel=0 note=60 velocity=127 time=0.008333333333333333\n",
      "note_on channel=0 note=61 velocity=127 time=0.010416666666666666\n",
      "note_off channel=0 note=61 velocity=127 time=0.019791666666666666\n",
      "note_on channel=0 note=60 velocity=127 time=0.026041666666666668\n",
      "note_on channel=0 note=62 velocity=127 time=0.0020833333333333333\n",
      "note_off channel=0 note=60 velocity=127 time=0.017708333333333333\n",
      "note_off channel=0 note=62 velocity=127 time=0.0020833333333333333\n",
      "note_on channel=0 note=60 velocity=127 time=0.053125\n",
      "note_on channel=0 note=62 velocity=127 time=0.0125\n",
      "note_off channel=0 note=60 velocity=127 time=0.007291666666666667\n",
      "note_off channel=0 note=62 velocity=127 time=0.0125\n",
      "note_on channel=0 note=61 velocity=127 time=0.003125\n",
      "note_off channel=0 note=61 velocity=127 time=0.019791666666666666\n",
      "note_on channel=0 note=60 velocity=127 time=0.019791666666666666\n",
      "note_off channel=0 note=60 velocity=127 time=0.019791666666666666\n",
      "note_on channel=0 note=62 velocity=127 time=0.003125\n",
      "note_off channel=0 note=62 velocity=127 time=0.019791666666666666\n",
      "note_on channel=0 note=60 velocity=127 time=0.03229166666666666\n",
      "note_off channel=0 note=60 velocity=127 time=0.019791666666666666\n",
      "note_on channel=0 note=62 velocity=127 time=0.013541666666666667\n",
      "note_on channel=0 note=61 velocity=127 time=0.007291666666666667\n",
      "note_off channel=0 note=62 velocity=127 time=0.0125\n",
      "note_off channel=0 note=61 velocity=127 time=0.007291666666666667\n",
      "note_on channel=0 note=60 velocity=127 time=0.014583333333333334\n",
      "note_off channel=0 note=60 velocity=127 time=0.019791666666666666\n",
      "note_on channel=0 note=62 velocity=127 time=0.02395833333333333\n",
      "note_off channel=0 note=62 velocity=127 time=0.019791666666666666\n",
      "note_on channel=0 note=60 velocity=127 time=0.011458333333333333\n",
      "note_off channel=0 note=60 velocity=127 time=0.019791666666666666\n",
      "note_on channel=0 note=61 velocity=127 time=0.026041666666666668\n",
      "note_on channel=0 note=62 velocity=127 time=0.008333333333333333\n",
      "note_off channel=0 note=61 velocity=127 time=0.011458333333333333\n",
      "note_off channel=0 note=62 velocity=127 time=0.008333333333333333\n",
      "note_on channel=0 note=60 velocity=127 time=0.0010416666666666667\n",
      "note_off channel=0 note=60 velocity=127 time=0.019791666666666666\n",
      "note_on channel=0 note=62 velocity=127 time=0.04479166666666667\n",
      "note_on channel=0 note=60 velocity=127 time=0.010416666666666666\n",
      "note_off channel=0 note=62 velocity=127 time=0.009375\n",
      "note_off channel=0 note=60 velocity=127 time=0.010416666666666666\n",
      "note_on channel=0 note=61 velocity=127 time=0.03125\n",
      "note_off channel=0 note=61 velocity=127 time=0.019791666666666666\n",
      "note_on channel=0 note=62 velocity=127 time=0.003125\n",
      "note_on channel=0 note=60 velocity=127 time=0\n",
      "note_off channel=0 note=62 velocity=127 time=0.019791666666666666\n",
      "note_off channel=0 note=60 velocity=127 time=0\n",
      "note_on channel=0 note=60 velocity=127 time=0.05520833333333333\n",
      "note_on channel=0 note=62 velocity=127 time=0.010416666666666666\n",
      "note_off channel=0 note=60 velocity=127 time=0.010416666666666666\n",
      "note_off channel=0 note=62 velocity=127 time=0.010416666666666666\n",
      "note_on channel=0 note=61 velocity=127 time=0.027083333333333334\n",
      "note_on channel=0 note=60 velocity=127 time=0.01875\n",
      "note_off channel=0 note=61 velocity=127 time=0.0010416666666666667\n",
      "note_off channel=0 note=60 velocity=127 time=0.01875\n",
      "note_on channel=0 note=62 velocity=127 time=0\n",
      "note_off channel=0 note=62 velocity=127 time=0.019791666666666666\n",
      "note_on channel=0 note=60 velocity=127 time=0.035416666666666666\n",
      "note_off channel=0 note=60 velocity=127 time=0.019791666666666666\n",
      "note_on channel=0 note=62 velocity=127 time=0.011458333333333333\n",
      "note_off channel=0 note=62 velocity=127 time=0.019791666666666666\n",
      "note_on channel=0 note=61 velocity=127 time=0.011458333333333333\n",
      "note_on channel=0 note=60 velocity=127 time=0.013541666666666667\n",
      "note_off channel=0 note=61 velocity=127 time=0.007291666666666667\n",
      "note_off channel=0 note=60 velocity=127 time=0.013541666666666667\n",
      "note_on channel=0 note=62 velocity=127 time=0.021875\n",
      "note_off channel=0 note=62 velocity=127 time=0.019791666666666666\n",
      "note_on channel=0 note=60 velocity=127 time=0.014583333333333334\n",
      "note_off channel=0 note=60 velocity=127 time=0.019791666666666666\n",
      "note_on channel=0 note=62 velocity=127 time=0.03229166666666666\n",
      "note_on channel=0 note=61 velocity=127 time=0.015625\n",
      "note_off channel=0 note=62 velocity=127 time=0.004166666666666667\n",
      "note_on channel=0 note=60 velocity=127 time=0.004166666666666667\n",
      "note_off channel=0 note=61 velocity=127 time=0.0125\n",
      "note_off channel=0 note=60 velocity=127 time=0.007291666666666667\n",
      "note_on channel=0 note=62 velocity=127 time=0.042708333333333334\n",
      "note_on channel=0 note=60 velocity=127 time=0.013541666666666667\n",
      "note_off channel=0 note=62 velocity=127 time=0.00625\n",
      "note_off channel=0 note=60 velocity=127 time=0.013541666666666667\n",
      "note_on channel=0 note=62 velocity=127 time=0.053125\n",
      "note_on channel=0 note=61 velocity=127 time=0.0010416666666666667\n",
      "note_on channel=0 note=60 velocity=127 time=0.0020833333333333333\n",
      "note_off channel=0 note=62 velocity=127 time=0.016666666666666666\n",
      "note_off channel=0 note=61 velocity=127 time=0.0010416666666666667\n",
      "note_off channel=0 note=60 velocity=127 time=0.0020833333333333333\n",
      "note_on channel=0 note=60 velocity=127 time=0.05520833333333333\n",
      "note_on channel=0 note=62 velocity=127 time=0.007291666666666667\n",
      "note_off channel=0 note=60 velocity=127 time=0.0125\n",
      "note_off channel=0 note=62 velocity=127 time=0.007291666666666667\n",
      "note_on channel=0 note=60 velocity=127 time=0.04791666666666666\n",
      "note_on channel=0 note=61 velocity=127 time=0.003125\n",
      "note_on channel=0 note=62 velocity=127 time=0.014583333333333334\n",
      "note_off channel=0 note=60 velocity=127 time=0.0020833333333333333\n",
      "note_off channel=0 note=61 velocity=127 time=0.003125\n",
      "note_off channel=0 note=62 velocity=127 time=0.014583333333333334\n",
      "note_on channel=0 note=60 velocity=127 time=0.0375\n",
      "note_off channel=0 note=60 velocity=127 time=0.019791666666666666\n",
      "note_on channel=0 note=62 velocity=127 time=0.008333333333333333\n",
      "note_off channel=0 note=62 velocity=127 time=0.019791666666666666\n",
      "note_on channel=0 note=60 velocity=127 time=0.027083333333333334\n",
      "note_on channel=0 note=61 velocity=127 time=0.008333333333333333\n",
      "note_off channel=0 note=60 velocity=127 time=0.011458333333333333\n",
      "note_off channel=0 note=61 velocity=127 time=0.008333333333333333\n",
      "note_on channel=0 note=62 velocity=127 time=0.010416666666666666\n",
      "note_off channel=0 note=62 velocity=127 time=0.019791666666666666\n",
      "note_on channel=0 note=60 velocity=127 time=0.016666666666666666\n",
      "note_off channel=0 note=60 velocity=127 time=0.019791666666666666\n",
      "note_on channel=0 note=62 velocity=127 time=0.029166666666666667\n",
      "note_off channel=0 note=62 velocity=127 time=0.019791666666666666\n",
      "note_on channel=0 note=60 velocity=127 time=0.00625\n",
      "note_on channel=0 note=61 velocity=127 time=0.013541666666666667\n",
      "note_off channel=0 note=60 velocity=127 time=0.00625\n",
      "note_off channel=0 note=61 velocity=127 time=0.013541666666666667\n",
      "note_on channel=0 note=62 velocity=127 time=0.026041666666666668\n",
      "\u001b[91m [DEBUG] > \u001b[0m\n",
      " |>  to_array: msg.time > max_t; t, n\n",
      " |>  2.9927083333333355\n",
      " |>  150\n",
      "note_on channel=0 note=61 velocity=127 time=0.0625\n",
      "note_off channel=0 note=61 velocity=127 time=0.019791666666666666\n",
      "note_on channel=0 note=60 velocity=127 time=0.027083333333333334\n",
      "note_off channel=0 note=60 velocity=127 time=0.019791666666666666\n",
      "note_on channel=0 note=61 velocity=127 time=0.008333333333333333\n",
      "note_off channel=0 note=61 velocity=127 time=0.019791666666666666\n",
      "note_on channel=0 note=62 velocity=127 time=0.05416666666666667\n",
      "note_on channel=0 note=61 velocity=127 time=0.0010416666666666667\n",
      "note_off channel=0 note=62 velocity=127 time=0.01875\n",
      "note_off channel=0 note=61 velocity=127 time=0.0010416666666666667\n",
      "note_on channel=0 note=60 velocity=127 time=0.00625\n",
      "note_off channel=0 note=60 velocity=127 time=0.019791666666666666\n",
      "note_on channel=0 note=61 velocity=127 time=0.029166666666666667\n",
      "note_off channel=0 note=61 velocity=127 time=0.019791666666666666\n",
      "note_on channel=0 note=61 velocity=127 time=0.05520833333333333\n",
      "note_on channel=0 note=60 velocity=127 time=0.005208333333333333\n",
      "note_off channel=0 note=61 velocity=127 time=0.014583333333333334\n",
      "note_off channel=0 note=60 velocity=127 time=0.005208333333333333\n",
      "note_on channel=0 note=61 velocity=127 time=0.05\n",
      "note_off channel=0 note=61 velocity=127 time=0.019791666666666666\n",
      "note_on channel=0 note=60 velocity=127 time=0.03958333333333333\n",
      "note_on channel=0 note=62 velocity=127 time=0.008333333333333333\n",
      "note_on channel=0 note=61 velocity=127 time=0.007291666666666667\n",
      "note_off channel=0 note=60 velocity=127 time=0.004166666666666667\n",
      "note_off channel=0 note=62 velocity=127 time=0.008333333333333333\n",
      "note_off channel=0 note=61 velocity=127 time=0.007291666666666667\n",
      "note_on channel=0 note=61 velocity=127 time=0.05520833333333333\n",
      "note_off channel=0 note=61 velocity=127 time=0.019791666666666666\n",
      "note_on channel=0 note=60 velocity=127 time=0.01875\n",
      "note_off channel=0 note=60 velocity=127 time=0.019791666666666666\n",
      "note_on channel=0 note=61 velocity=127 time=0.016666666666666666\n",
      "note_off channel=0 note=61 velocity=127 time=0.019791666666666666\n",
      "note_on channel=0 note=61 velocity=127 time=0.05520833333333333\n",
      "note_on channel=0 note=60 velocity=127 time=0.017708333333333333\n",
      "note_off channel=0 note=61 velocity=127 time=0.0020833333333333333\n",
      "note_off channel=0 note=60 velocity=127 time=0.017708333333333333\n",
      "note_on channel=0 note=62 velocity=127 time=0.025\n",
      "note_on channel=0 note=61 velocity=127 time=0.0125\n",
      "note_off channel=0 note=62 velocity=127 time=0.007291666666666667\n",
      "note_off channel=0 note=61 velocity=127 time=0.0125\n",
      "note_on channel=0 note=60 velocity=127 time=0.052083333333333336\n",
      "note_on channel=0 note=61 velocity=127 time=0.003125\n",
      "note_off channel=0 note=60 velocity=127 time=0.016666666666666666\n",
      "note_off channel=0 note=61 velocity=127 time=0.003125\n",
      "note_on channel=0 note=61 velocity=127 time=0.05520833333333333\n",
      "note_off channel=0 note=61 velocity=127 time=0.019791666666666666\n",
      "note_on channel=0 note=60 velocity=127 time=0.03125\n",
      "note_off channel=0 note=60 velocity=127 time=0.019791666666666666\n",
      "note_on channel=0 note=61 velocity=127 time=0.004166666666666667\n",
      "note_off channel=0 note=61 velocity=127 time=0.019791666666666666\n",
      "note_on channel=0 note=62 velocity=127 time=0.0375\n",
      "note_on channel=0 note=61 velocity=127 time=0.017708333333333333\n",
      "note_off channel=0 note=62 velocity=127 time=0.0020833333333333333\n",
      "note_off channel=0 note=61 velocity=127 time=0.017708333333333333\n",
      "note_on channel=0 note=60 velocity=127 time=0.010416666666666666\n",
      "note_off channel=0 note=60 velocity=127 time=0.019791666666666666\n",
      "note_on channel=0 note=61 velocity=127 time=0.026041666666666668\n",
      "note_off channel=0 note=61 velocity=127 time=0.019791666666666666\n",
      "note_on channel=0 note=61 velocity=127 time=0.05520833333333333\n",
      "note_on channel=0 note=60 velocity=127 time=0.009375\n",
      "note_off channel=0 note=61 velocity=127 time=0.011458333333333333\n",
      "note_off channel=0 note=60 velocity=127 time=0.009375\n",
      "note_on channel=0 note=61 velocity=127 time=0.046875\n",
      "note_off channel=0 note=61 velocity=127 time=0.019791666666666666\n",
      "note_on channel=0 note=62 velocity=127 time=0.03229166666666666\n",
      "note_on channel=0 note=60 velocity=127 time=0.011458333333333333\n",
      "note_off channel=0 note=62 velocity=127 time=0.008333333333333333\n",
      "note_on channel=0 note=61 velocity=127 time=0.004166666666666667\n",
      "note_off channel=0 note=60 velocity=127 time=0.008333333333333333\n",
      "note_off channel=0 note=61 velocity=127 time=0.0125\n",
      "note_on channel=0 note=61 velocity=127 time=0.05520833333333333\n",
      "note_off channel=0 note=61 velocity=127 time=0.019791666666666666\n",
      "note_on channel=0 note=60 velocity=127 time=0.022916666666666665\n",
      "note_off channel=0 note=60 velocity=127 time=0.019791666666666666\n",
      "note_on channel=0 note=61 velocity=127 time=0.013541666666666667\n",
      "note_off channel=0 note=61 velocity=127 time=0.019791666666666666\n",
      "note_on channel=0 note=61 velocity=127 time=0.05520833333333333\n",
      "note_off channel=0 note=61 velocity=127 time=0.019791666666666666\n",
      "note_on channel=0 note=60 velocity=127 time=0.0010416666666666667\n",
      "note_off channel=0 note=60 velocity=127 time=0.019791666666666666\n",
      "note_on channel=0 note=62 velocity=127 time=0.005208333333333333\n",
      "note_off channel=0 note=62 velocity=127 time=0.019791666666666666\n",
      "note_on channel=0 note=61 velocity=127 time=0.009375\n",
      "note_off channel=0 note=61 velocity=127 time=0.019791666666666666\n",
      "note_on channel=0 note=61 velocity=127 time=0.05520833333333333\n",
      "note_on channel=0 note=60 velocity=127 time=0\n",
      "note_off channel=0 note=61 velocity=127 time=0.019791666666666666\n",
      "note_off channel=0 note=60 velocity=127 time=0\n",
      "note_on channel=0 note=61 velocity=127 time=0.05520833333333333\n",
      "note_off channel=0 note=61 velocity=127 time=0.019791666666666666\n",
      "note_on channel=0 note=60 velocity=127 time=0.034375\n",
      "note_off channel=0 note=60 velocity=127 time=0.019791666666666666\n",
      "note_on channel=0 note=61 velocity=127 time=0.0010416666666666667\n",
      "note_off channel=0 note=61 velocity=127 time=0.019791666666666666\n",
      "note_on channel=0 note=62 velocity=127 time=0.020833333333333332\n",
      "note_off channel=0 note=62 velocity=127 time=0.019791666666666666\n",
      "note_on channel=0 note=61 velocity=127 time=0.014583333333333334\n",
      "note_off channel=0 note=61 velocity=127 time=0.019791666666666666\n",
      "note_on channel=0 note=60 velocity=127 time=0.013541666666666667\n",
      "note_off channel=0 note=60 velocity=127 time=0.019791666666666666\n",
      "note_on channel=0 note=61 velocity=127 time=0.021875\n",
      "note_off channel=0 note=61 velocity=127 time=0.019791666666666666\n",
      "note_on channel=0 note=61 velocity=127 time=0.05520833333333333\n",
      "note_on channel=0 note=60 velocity=127 time=0.0125\n",
      "note_off channel=0 note=61 velocity=127 time=0.007291666666666667\n",
      "note_off channel=0 note=60 velocity=127 time=0.0125\n",
      "note_on channel=0 note=61 velocity=127 time=0.042708333333333334\n",
      "note_off channel=0 note=61 velocity=127 time=0.019791666666666666\n",
      "note_on channel=0 note=62 velocity=127 time=0.015625\n",
      "note_off channel=0 note=62 velocity=127 time=0.019791666666666666\n",
      "note_on channel=0 note=60 velocity=127 time=0.011458333333333333\n",
      "note_on channel=0 note=61 velocity=127 time=0.008333333333333333\n",
      "note_off channel=0 note=60 velocity=127 time=0.011458333333333333\n",
      "note_off channel=0 note=61 velocity=127 time=0.008333333333333333\n",
      "note_on channel=0 note=61 velocity=127 time=0.05520833333333333\n",
      "note_off channel=0 note=61 velocity=127 time=0.019791666666666666\n",
      "note_on channel=0 note=60 velocity=127 time=0.026041666666666668\n",
      "note_off channel=0 note=60 velocity=127 time=0.019791666666666666\n",
      "note_on channel=0 note=61 velocity=127 time=0.009375\n",
      "note_off channel=0 note=61 velocity=127 time=0.019791666666666666\n"
     ]
    },
    {
     "name": "stdout",
     "output_type": "stream",
     "text": [
      "note_on channel=0 note=61 velocity=127 time=0.05520833333333333\n",
      "note_off channel=0 note=61 velocity=127 time=0.019791666666666666\n",
      "note_on channel=0 note=60 velocity=127 time=0.005208333333333333\n",
      "note_on channel=0 note=62 velocity=127 time=0.005208333333333333\n",
      "note_off channel=0 note=60 velocity=127 time=0.015625\n",
      "note_off channel=0 note=62 velocity=127 time=0.005208333333333333\n",
      "note_on channel=0 note=61 velocity=127 time=0.026041666666666668\n",
      "note_off channel=0 note=61 velocity=127 time=0.019791666666666666\n",
      "note_on channel=0 note=61 velocity=127 time=0.05520833333333333\n",
      "note_on channel=0 note=60 velocity=127 time=0.004166666666666667\n",
      "note_off channel=0 note=61 velocity=127 time=0.016666666666666666\n",
      "note_off channel=0 note=60 velocity=127 time=0.004166666666666667\n",
      "note_on channel=0 note=61 velocity=127 time=0.052083333333333336\n",
      "note_off channel=0 note=61 velocity=127 time=0.019791666666666666\n",
      "note_on channel=0 note=60 velocity=127 time=0.03854166666666667\n",
      "note_on channel=0 note=61 velocity=127 time=0.017708333333333333\n",
      "note_off channel=0 note=60 velocity=127 time=0.003125\n",
      "note_off channel=0 note=61 velocity=127 time=0.017708333333333333\n",
      "note_on channel=0 note=62 velocity=127 time=0.004166666666666667\n",
      "note_off channel=0 note=62 velocity=127 time=0.019791666666666666\n",
      "note_on channel=0 note=61 velocity=127 time=0.03125\n",
      "note_off channel=0 note=61 velocity=127 time=0.019791666666666666\n",
      "note_on channel=0 note=60 velocity=127 time=0.017708333333333333\n",
      "note_off channel=0 note=60 velocity=127 time=0.019791666666666666\n",
      "note_on channel=0 note=61 velocity=127 time=0.01875\n",
      "\u001b[91m [DEBUG] > \u001b[0m\n",
      " |>  to_array: msg.time > max_t; t, n\n",
      " |>  3.001041666666669\n",
      " |>  150\n",
      "note_on channel=0 note=60 velocity=127 time=0.025\n",
      "note_off channel=0 note=60 velocity=127 time=0.019791666666666666\n",
      "note_on channel=0 note=61 velocity=127 time=0.03958333333333333\n",
      "note_off channel=0 note=61 velocity=127 time=0.019791666666666666\n",
      "note_on channel=0 note=60 velocity=127 time=0.029166666666666667\n",
      "note_off channel=0 note=60 velocity=127 time=0.019791666666666666\n",
      "note_on channel=0 note=61 velocity=127 time=0.028125\n",
      "note_off channel=0 note=61 velocity=127 time=0.019791666666666666\n",
      "note_on channel=0 note=62 velocity=127 time=0.019791666666666666\n",
      "note_off channel=0 note=62 velocity=127 time=0.019791666666666666\n",
      "note_on channel=0 note=60 velocity=127 time=0\n",
      "note_off channel=0 note=60 velocity=127 time=0.019791666666666666\n",
      "note_on channel=0 note=61 velocity=127 time=0.017708333333333333\n",
      "note_off channel=0 note=61 velocity=127 time=0.019791666666666666\n",
      "note_on channel=0 note=60 velocity=127 time=0.05\n",
      "note_off channel=0 note=60 velocity=127 time=0.019791666666666666\n",
      "note_on channel=0 note=61 velocity=127 time=0.007291666666666667\n",
      "note_off channel=0 note=61 velocity=127 time=0.019791666666666666\n",
      "note_on channel=0 note=60 velocity=127 time=0.06145833333333333\n",
      "note_on channel=0 note=61 velocity=127 time=0.015625\n",
      "note_off channel=0 note=60 velocity=127 time=0.004166666666666667\n",
      "note_off channel=0 note=61 velocity=127 time=0.015625\n",
      "note_on channel=0 note=62 velocity=127 time=0.05520833333333333\n",
      "note_on channel=0 note=60 velocity=127 time=0.016666666666666666\n",
      "note_off channel=0 note=62 velocity=127 time=0.003125\n",
      "note_on channel=0 note=61 velocity=127 time=0.0020833333333333333\n",
      "note_off channel=0 note=60 velocity=127 time=0.014583333333333334\n",
      "note_off channel=0 note=61 velocity=127 time=0.005208333333333333\n",
      "note_on channel=0 note=61 velocity=127 time=0.07708333333333334\n",
      "note_on channel=0 note=60 velocity=127 time=0.005208333333333333\n",
      "note_off channel=0 note=61 velocity=127 time=0.014583333333333334\n",
      "note_off channel=0 note=60 velocity=127 time=0.005208333333333333\n",
      "note_on channel=0 note=61 velocity=127 time=0.071875\n",
      "note_on channel=0 note=60 velocity=127 time=0.016666666666666666\n",
      "note_off channel=0 note=61 velocity=127 time=0.004166666666666667\n",
      "note_off channel=0 note=60 velocity=127 time=0.016666666666666666\n",
      "note_on channel=0 note=61 velocity=127 time=0.06145833333333333\n",
      "note_on channel=0 note=62 velocity=127 time=0.014583333333333334\n",
      "note_off channel=0 note=61 velocity=127 time=0.00625\n",
      "note_on channel=0 note=60 velocity=127 time=0.007291666666666667\n",
      "note_off channel=0 note=62 velocity=127 time=0.007291666666666667\n",
      "note_off channel=0 note=60 velocity=127 time=0.0125\n",
      "note_on channel=0 note=61 velocity=127 time=0.05\n",
      "note_off channel=0 note=61 velocity=127 time=0.019791666666666666\n",
      "note_on channel=0 note=60 velocity=127 time=0.017708333333333333\n",
      "note_off channel=0 note=60 velocity=127 time=0.019791666666666666\n",
      "note_on channel=0 note=61 velocity=127 time=0.03958333333333333\n",
      "note_off channel=0 note=61 velocity=127 time=0.019791666666666666\n",
      "note_on channel=0 note=60 velocity=127 time=0.028125\n",
      "note_off channel=0 note=60 velocity=127 time=0.019791666666666666\n",
      "note_on channel=0 note=61 velocity=127 time=0.029166666666666667\n",
      "note_off channel=0 note=61 velocity=127 time=0.019791666666666666\n",
      "note_on channel=0 note=62 velocity=127 time=0.030208333333333334\n",
      "note_on channel=0 note=60 velocity=127 time=0.009375\n",
      "note_off channel=0 note=62 velocity=127 time=0.010416666666666666\n",
      "note_off channel=0 note=60 velocity=127 time=0.009375\n",
      "note_on channel=0 note=61 velocity=127 time=0.017708333333333333\n",
      "note_off channel=0 note=61 velocity=127 time=0.019791666666666666\n",
      "note_on channel=0 note=60 velocity=127 time=0.05\n",
      "note_off channel=0 note=60 velocity=127 time=0.019791666666666666\n",
      "note_on channel=0 note=61 velocity=127 time=0.007291666666666667\n",
      "note_off channel=0 note=61 velocity=127 time=0.019791666666666666\n",
      "note_on channel=0 note=60 velocity=127 time=0.06041666666666667\n",
      "note_on channel=0 note=61 velocity=127 time=0.016666666666666666\n",
      "note_off channel=0 note=60 velocity=127 time=0.003125\n",
      "note_off channel=0 note=61 velocity=127 time=0.016666666666666666\n",
      "note_on channel=0 note=62 velocity=127 time=0.065625\n",
      "note_on channel=0 note=60 velocity=127 time=0.005208333333333333\n",
      "note_on channel=0 note=61 velocity=127 time=0.005208333333333333\n",
      "note_off channel=0 note=62 velocity=127 time=0.008333333333333333\n",
      "note_off channel=0 note=60 velocity=127 time=0.005208333333333333\n",
      "note_off channel=0 note=61 velocity=127 time=0.005208333333333333\n",
      "note_on channel=0 note=61 velocity=127 time=0.07708333333333334\n",
      "note_on channel=0 note=60 velocity=127 time=0.005208333333333333\n",
      "note_off channel=0 note=61 velocity=127 time=0.014583333333333334\n",
      "note_off channel=0 note=60 velocity=127 time=0.005208333333333333\n",
      "note_on channel=0 note=61 velocity=127 time=0.071875\n",
      "note_on channel=0 note=60 velocity=127 time=0.015625\n",
      "note_off channel=0 note=61 velocity=127 time=0.004166666666666667\n",
      "note_off channel=0 note=60 velocity=127 time=0.015625\n",
      "note_on channel=0 note=61 velocity=127 time=0.06145833333333333\n",
      "note_off channel=0 note=61 velocity=127 time=0.019791666666666666\n",
      "note_on channel=0 note=62 velocity=127 time=0.004166666666666667\n",
      "note_on channel=0 note=60 velocity=127 time=0.0020833333333333333\n",
      "note_off channel=0 note=62 velocity=127 time=0.017708333333333333\n",
      "note_off channel=0 note=60 velocity=127 time=0.0020833333333333333\n",
      "note_on channel=0 note=61 velocity=127 time=0.051041666666666666\n",
      "note_off channel=0 note=61 velocity=127 time=0.019791666666666666\n",
      "note_on channel=0 note=60 velocity=127 time=0.017708333333333333\n",
      "note_off channel=0 note=60 velocity=127 time=0.019791666666666666\n",
      "note_on channel=0 note=61 velocity=127 time=0.03958333333333333\n",
      "note_off channel=0 note=61 velocity=127 time=0.019791666666666666\n",
      "note_on channel=0 note=60 velocity=127 time=0.028125\n",
      "note_off channel=0 note=60 velocity=127 time=0.019791666666666666\n",
      "note_on channel=0 note=61 velocity=127 time=0.029166666666666667\n",
      "note_off channel=0 note=61 velocity=127 time=0.019791666666666666\n",
      "note_on channel=0 note=60 velocity=127 time=0.03854166666666667\n",
      "note_on channel=0 note=62 velocity=127 time=0.0020833333333333333\n",
      "note_off channel=0 note=60 velocity=127 time=0.01875\n",
      "note_off channel=0 note=62 velocity=127 time=0.0020833333333333333\n",
      "note_on channel=0 note=61 velocity=127 time=0.016666666666666666\n",
      "note_off channel=0 note=61 velocity=127 time=0.019791666666666666\n",
      "note_on channel=0 note=60 velocity=127 time=0.05\n",
      "note_off channel=0 note=60 velocity=127 time=0.019791666666666666\n",
      "note_on channel=0 note=61 velocity=127 time=0.007291666666666667\n",
      "note_off channel=0 note=61 velocity=127 time=0.019791666666666666\n",
      "note_on channel=0 note=60 velocity=127 time=0.06041666666666667\n",
      "note_on channel=0 note=61 velocity=127 time=0.016666666666666666\n",
      "note_off channel=0 note=60 velocity=127 time=0.003125\n",
      "note_off channel=0 note=61 velocity=127 time=0.016666666666666666\n",
      "note_on channel=0 note=60 velocity=127 time=0.07083333333333333\n",
      "note_on channel=0 note=62 velocity=127 time=0.005208333333333333\n",
      "note_on channel=0 note=61 velocity=127 time=0.0010416666666666667\n",
      "note_off channel=0 note=60 velocity=127 time=0.013541666666666667\n",
      "note_off channel=0 note=62 velocity=127 time=0.005208333333333333\n",
      "note_off channel=0 note=61 velocity=127 time=0.0010416666666666667\n",
      "note_on channel=0 note=61 velocity=127 time=0.07708333333333334\n",
      "note_on channel=0 note=60 velocity=127 time=0.004166666666666667\n",
      "note_off channel=0 note=61 velocity=127 time=0.015625\n",
      "note_off channel=0 note=60 velocity=127 time=0.004166666666666667\n",
      "note_on channel=0 note=61 velocity=127 time=0.07291666666666667\n",
      "note_on channel=0 note=60 velocity=127 time=0.015625\n",
      "note_off channel=0 note=61 velocity=127 time=0.004166666666666667\n",
      "note_off channel=0 note=60 velocity=127 time=0.015625\n",
      "note_on channel=0 note=61 velocity=127 time=0.06145833333333333\n",
      "note_off channel=0 note=61 velocity=127 time=0.019791666666666666\n",
      "note_on channel=0 note=60 velocity=127 time=0.00625\n",
      "note_on channel=0 note=62 velocity=127 time=0.008333333333333333\n",
      "note_off channel=0 note=60 velocity=127 time=0.011458333333333333\n",
      "note_off channel=0 note=62 velocity=127 time=0.008333333333333333\n",
      "note_on channel=0 note=61 velocity=127 time=0.042708333333333334\n",
      "note_off channel=0 note=61 velocity=127 time=0.019791666666666666\n",
      "note_on channel=0 note=60 velocity=127 time=0.016666666666666666\n",
      "note_off channel=0 note=60 velocity=127 time=0.019791666666666666\n",
      "note_on channel=0 note=61 velocity=127 time=0.040625\n",
      "\u001b[91m [DEBUG] > \u001b[0m\n",
      " |>  to_array: msg.time > max_t; t, n\n",
      " |>  2.9927083333333346\n",
      " |>  150\n",
      "note_on channel=0 note=61 velocity=127 time=0.05416666666666667\n",
      "note_off channel=0 note=61 velocity=127 time=0.019791666666666666\n",
      "note_on channel=0 note=60 velocity=127 time=0.014583333333333334\n",
      "note_off channel=0 note=60 velocity=127 time=0.019791666666666666\n",
      "note_on channel=0 note=62 velocity=127 time=0.015625\n",
      "note_off channel=0 note=62 velocity=127 time=0.019791666666666666\n",
      "note_on channel=0 note=61 velocity=127 time=0.011458333333333333\n",
      "note_off channel=0 note=61 velocity=127 time=0.019791666666666666\n",
      "note_on channel=0 note=60 velocity=127 time=0.022916666666666665\n",
      "note_off channel=0 note=60 velocity=127 time=0.019791666666666666\n",
      "note_on channel=0 note=61 velocity=127 time=0.03854166666666667\n",
      "note_off channel=0 note=61 velocity=127 time=0.019791666666666666\n",
      "note_on channel=0 note=60 velocity=127 time=0.03229166666666666\n",
      "note_off channel=0 note=60 velocity=127 time=0.019791666666666666\n",
      "note_on channel=0 note=61 velocity=127 time=0.029166666666666667\n",
      "note_off channel=0 note=61 velocity=127 time=0.019791666666666666\n",
      "note_on channel=0 note=60 velocity=127 time=0.041666666666666664\n",
      "note_off channel=0 note=60 velocity=127 time=0.019791666666666666\n",
      "note_on channel=0 note=62 velocity=127 time=0.004166666666666667\n",
      "note_on channel=0 note=61 velocity=127 time=0.015625\n",
      "note_off channel=0 note=62 velocity=127 time=0.004166666666666667\n",
      "note_off channel=0 note=61 velocity=127 time=0.015625\n",
      "note_on channel=0 note=60 velocity=127 time=0.05\n",
      "note_off channel=0 note=60 velocity=127 time=0.019791666666666666\n",
      "note_on channel=0 note=61 velocity=127 time=0.011458333333333333\n",
      "note_off channel=0 note=61 velocity=127 time=0.019791666666666666\n",
      "note_on channel=0 note=60 velocity=127 time=0.059375\n",
      "note_off channel=0 note=60 velocity=127 time=0.019791666666666666\n",
      "note_on channel=0 note=61 velocity=127 time=0.0020833333333333333\n",
      "note_off channel=0 note=61 velocity=127 time=0.019791666666666666\n",
      "note_on channel=0 note=60 velocity=127 time=0.06875\n",
      "note_on channel=0 note=61 velocity=127 time=0.013541666666666667\n",
      "note_on channel=0 note=62 velocity=127 time=0.0010416666666666667\n",
      "note_off channel=0 note=60 velocity=127 time=0.00625\n",
      "note_off channel=0 note=61 velocity=127 time=0.013541666666666667\n",
      "note_off channel=0 note=62 velocity=127 time=0.0010416666666666667\n",
      "note_on channel=0 note=60 velocity=127 time=0.07708333333333334\n",
      "note_on channel=0 note=61 velocity=127 time=0.004166666666666667\n",
      "note_off channel=0 note=60 velocity=127 time=0.015625\n",
      "note_off channel=0 note=61 velocity=127 time=0.004166666666666667\n",
      "note_on channel=0 note=61 velocity=127 time=0.08229166666666667\n",
      "note_on channel=0 note=60 velocity=127 time=0.005208333333333333\n",
      "note_off channel=0 note=61 velocity=127 time=0.014583333333333334\n",
      "note_off channel=0 note=60 velocity=127 time=0.005208333333333333\n",
      "note_on channel=0 note=61 velocity=127 time=0.07708333333333334\n",
      "note_on channel=0 note=60 velocity=127 time=0.013541666666666667\n",
      "note_on channel=0 note=62 velocity=127 time=0.003125\n",
      "note_off channel=0 note=61 velocity=127 time=0.003125\n",
      "note_off channel=0 note=60 velocity=127 time=0.013541666666666667\n",
      "note_off channel=0 note=62 velocity=127 time=0.003125\n",
      "note_on channel=0 note=61 velocity=127 time=0.06458333333333333\n",
      "note_off channel=0 note=61 velocity=127 time=0.019791666666666666\n",
      "note_on channel=0 note=60 velocity=127 time=0.003125\n",
      "note_off channel=0 note=60 velocity=127 time=0.019791666666666666\n",
      "note_on channel=0 note=61 velocity=127 time=0.058333333333333334\n",
      "note_off channel=0 note=61 velocity=127 time=0.019791666666666666\n",
      "note_on channel=0 note=60 velocity=127 time=0.0125\n",
      "note_off channel=0 note=60 velocity=127 time=0.019791666666666666\n",
      "note_on channel=0 note=61 velocity=127 time=0.05\n",
      "note_off channel=0 note=61 velocity=127 time=0.019791666666666666\n",
      "note_on channel=0 note=62 velocity=127 time=0.0125\n",
      "note_on channel=0 note=60 velocity=127 time=0.008333333333333333\n",
      "note_off channel=0 note=62 velocity=127 time=0.011458333333333333\n",
      "note_off channel=0 note=60 velocity=127 time=0.008333333333333333\n",
      "note_on channel=0 note=61 velocity=127 time=0.040625\n",
      "note_off channel=0 note=61 velocity=127 time=0.019791666666666666\n",
      "note_on channel=0 note=60 velocity=127 time=0.030208333333333334\n",
      "note_off channel=0 note=60 velocity=127 time=0.019791666666666666\n",
      "note_on channel=0 note=61 velocity=127 time=0.03125\n",
      "note_off channel=0 note=61 velocity=127 time=0.019791666666666666\n",
      "note_on channel=0 note=60 velocity=127 time=0.03958333333333333\n",
      "note_off channel=0 note=60 velocity=127 time=0.019791666666666666\n",
      "note_on channel=0 note=61 velocity=127 time=0.022916666666666665\n",
      "note_off channel=0 note=61 velocity=127 time=0.019791666666666666\n",
      "note_on channel=0 note=62 velocity=127 time=0.029166666666666667\n",
      "note_on channel=0 note=60 velocity=127 time=0.01875\n",
      "note_off channel=0 note=62 velocity=127 time=0.0010416666666666667\n",
      "note_off channel=0 note=60 velocity=127 time=0.01875\n",
      "note_on channel=0 note=61 velocity=127 time=0.013541666666666667\n",
      "note_off channel=0 note=61 velocity=127 time=0.019791666666666666\n",
      "note_on channel=0 note=60 velocity=127 time=0.057291666666666664\n",
      "note_off channel=0 note=60 velocity=127 time=0.019791666666666666\n",
      "note_on channel=0 note=61 velocity=127 time=0.004166666666666667\n",
      "note_off channel=0 note=61 velocity=127 time=0.019791666666666666\n",
      "note_on channel=0 note=60 velocity=127 time=0.06666666666666667\n",
      "note_on channel=0 note=61 velocity=127 time=0.015625\n",
      "note_off channel=0 note=60 velocity=127 time=0.004166666666666667\n",
      "note_off channel=0 note=61 velocity=127 time=0.015625\n",
      "note_on channel=0 note=62 velocity=127 time=0.04583333333333333\n",
      "note_off channel=0 note=62 velocity=127 time=0.019791666666666666\n",
      "note_on channel=0 note=60 velocity=127 time=0.010416666666666666\n",
      "note_on channel=0 note=61 velocity=127 time=0.00625\n",
      "note_off channel=0 note=60 velocity=127 time=0.013541666666666667\n",
      "note_off channel=0 note=61 velocity=127 time=0.00625\n",
      "note_on channel=0 note=61 velocity=127 time=0.08229166666666667\n",
      "note_on channel=0 note=60 velocity=127 time=0.003125\n",
      "note_off channel=0 note=61 velocity=127 time=0.017708333333333333\n",
      "note_off channel=0 note=60 velocity=127 time=0.003125\n",
      "note_on channel=0 note=61 velocity=127 time=0.07916666666666666\n",
      "note_on channel=0 note=60 velocity=127 time=0.011458333333333333\n",
      "note_off channel=0 note=61 velocity=127 time=0.008333333333333333\n",
      "note_off channel=0 note=60 velocity=127 time=0.011458333333333333\n",
      "note_on channel=0 note=62 velocity=127 time=0.05\n",
      "note_off channel=0 note=62 velocity=127 time=0.019791666666666666\n",
      "note_on channel=0 note=61 velocity=127 time=0\n",
      "note_off channel=0 note=61 velocity=127 time=0.019791666666666666\n",
      "note_on channel=0 note=60 velocity=127 time=0.0010416666666666667\n",
      "note_off channel=0 note=60 velocity=127 time=0.019791666666666666\n",
      "note_on channel=0 note=61 velocity=127 time=0.06145833333333333\n",
      "note_off channel=0 note=61 velocity=127 time=0.019791666666666666\n",
      "note_on channel=0 note=60 velocity=127 time=0.010416666666666666\n",
      "note_off channel=0 note=60 velocity=127 time=0.019791666666666666\n",
      "note_on channel=0 note=61 velocity=127 time=0.052083333333333336\n",
      "note_off channel=0 note=61 velocity=127 time=0.019791666666666666\n",
      "note_on channel=0 note=60 velocity=127 time=0.01875\n",
      "note_off channel=0 note=60 velocity=127 time=0.019791666666666666\n",
      "note_on channel=0 note=62 velocity=127 time=0.03854166666666667\n",
      "note_on channel=0 note=61 velocity=127 time=0.004166666666666667\n",
      "note_off channel=0 note=62 velocity=127 time=0.015625\n",
      "note_off channel=0 note=61 velocity=127 time=0.004166666666666667\n",
      "note_on channel=0 note=60 velocity=127 time=0.028125\n",
      "note_off channel=0 note=60 velocity=127 time=0.019791666666666666\n",
      "note_on channel=0 note=61 velocity=127 time=0.03333333333333333\n",
      "note_off channel=0 note=61 velocity=127 time=0.019791666666666666\n",
      "note_on channel=0 note=60 velocity=127 time=0.0375\n",
      "note_off channel=0 note=60 velocity=127 time=0.019791666666666666\n",
      "note_on channel=0 note=61 velocity=127 time=0.025\n",
      "note_off channel=0 note=61 velocity=127 time=0.019791666666666666\n",
      "note_on channel=0 note=60 velocity=127 time=0.04583333333333333\n",
      "note_off channel=0 note=60 velocity=127 time=0.019791666666666666\n",
      "note_on channel=0 note=61 velocity=127 time=0.015625\n",
      "\u001b[91m [DEBUG] > \u001b[0m\n",
      " |>  to_array: msg.time > max_t; t, n\n",
      " |>  3.0000000000000013\n",
      " |>  150\n",
      "note_on channel=0 note=61 velocity=127 time=0.011458333333333333\n",
      "note_off channel=0 note=61 velocity=127 time=0.019791666666666666\n",
      "note_on channel=0 note=60 velocity=127 time=0.017708333333333333\n",
      "note_off channel=0 note=60 velocity=127 time=0.019791666666666666\n",
      "note_on channel=0 note=61 velocity=127 time=0.021875\n",
      "note_off channel=0 note=61 velocity=127 time=0.019791666666666666\n",
      "note_on channel=0 note=60 velocity=127 time=0.026041666666666668\n",
      "note_on channel=0 note=62 velocity=127 time=0.005208333333333333\n",
      "note_off channel=0 note=60 velocity=127 time=0.014583333333333334\n",
      "note_off channel=0 note=62 velocity=127 time=0.005208333333333333\n",
      "note_on channel=0 note=61 velocity=127 time=0.008333333333333333\n",
      "note_off channel=0 note=61 velocity=127 time=0.019791666666666666\n",
      "note_on channel=0 note=60 velocity=127 time=0.034375\n",
      "note_off channel=0 note=60 velocity=127 time=0.019791666666666666\n",
      "note_on channel=0 note=61 velocity=127 time=0.005208333333333333\n",
      "note_off channel=0 note=61 velocity=127 time=0.019791666666666666\n",
      "note_on channel=0 note=60 velocity=127 time=0.042708333333333334\n",
      "note_on channel=0 note=61 velocity=127 time=0.017708333333333333\n",
      "note_off channel=0 note=60 velocity=127 time=0.003125\n",
      "note_off channel=0 note=61 velocity=127 time=0.017708333333333333\n",
      "note_on channel=0 note=62 velocity=127 time=0.015625\n",
      "note_off channel=0 note=62 velocity=127 time=0.019791666666666666\n",
      "note_on channel=0 note=60 velocity=127 time=0.014583333333333334\n",
      "note_on channel=0 note=61 velocity=127 time=0.009375\n",
      "note_off channel=0 note=60 velocity=127 time=0.010416666666666666\n",
      "note_off channel=0 note=61 velocity=127 time=0.009375\n",
      "note_on channel=0 note=60 velocity=127 time=0.058333333333333334\n",
      "note_on channel=0 note=61 velocity=127 time=0.0010416666666666667\n",
      "note_off channel=0 note=60 velocity=127 time=0.01875\n",
      "note_off channel=0 note=61 velocity=127 time=0.0010416666666666667\n",
      "note_on channel=0 note=61 velocity=127 time=0.059375\n",
      "note_on channel=0 note=60 velocity=127 time=0.007291666666666667\n",
      "note_on channel=0 note=62 velocity=127 time=0.0125\n",
      "note_off channel=0 note=61 velocity=127 time=0\n",
      "note_off channel=0 note=60 velocity=127 time=0.007291666666666667\n",
      "note_off channel=0 note=62 velocity=127 time=0.0125\n",
      "note_on channel=0 note=61 velocity=127 time=0.03958333333333333\n",
      "note_on channel=0 note=60 velocity=127 time=0.014583333333333334\n",
      "note_off channel=0 note=61 velocity=127 time=0.005208333333333333\n",
      "note_off channel=0 note=60 velocity=127 time=0.014583333333333334\n",
      "note_on channel=0 note=61 velocity=127 time=0.04479166666666667\n",
      "note_off channel=0 note=61 velocity=127 time=0.019791666666666666\n",
      "note_on channel=0 note=60 velocity=127 time=0.003125\n",
      "note_off channel=0 note=60 velocity=127 time=0.019791666666666666\n",
      "note_on channel=0 note=61 velocity=127 time=0.036458333333333336\n",
      "note_on channel=0 note=62 velocity=127 time=0.004166666666666667\n",
      "note_off channel=0 note=61 velocity=127 time=0.016666666666666666\n",
      "note_off channel=0 note=62 velocity=127 time=0.004166666666666667\n",
      "note_on channel=0 note=60 velocity=127 time=0.007291666666666667\n",
      "note_off channel=0 note=60 velocity=127 time=0.019791666666666666\n",
      "note_on channel=0 note=61 velocity=127 time=0.029166666666666667\n",
      "note_off channel=0 note=61 velocity=127 time=0.019791666666666666\n",
      "note_on channel=0 note=60 velocity=127 time=0.01875\n",
      "note_off channel=0 note=60 velocity=127 time=0.019791666666666666\n",
      "note_on channel=0 note=61 velocity=127 time=0.020833333333333332\n",
      "note_off channel=0 note=61 velocity=127 time=0.019791666666666666\n",
      "note_on channel=0 note=60 velocity=127 time=0.027083333333333334\n",
      "note_off channel=0 note=60 velocity=127 time=0.019791666666666666\n",
      "note_on channel=0 note=62 velocity=127 time=0.0010416666666666667\n",
      "note_on channel=0 note=61 velocity=127 time=0.0125\n",
      "note_off channel=0 note=62 velocity=127 time=0.008333333333333333\n",
      "note_off channel=0 note=61 velocity=127 time=0.0125\n",
      "note_on channel=0 note=60 velocity=127 time=0.035416666666666666\n",
      "note_off channel=0 note=60 velocity=127 time=0.019791666666666666\n",
      "note_on channel=0 note=61 velocity=127 time=0.004166666666666667\n",
      "note_off channel=0 note=61 velocity=127 time=0.019791666666666666\n",
      "note_on channel=0 note=60 velocity=127 time=0.042708333333333334\n",
      "note_on channel=0 note=61 velocity=127 time=0.016666666666666666\n",
      "note_off channel=0 note=60 velocity=127 time=0.003125\n",
      "note_off channel=0 note=61 velocity=127 time=0.016666666666666666\n",
      "note_on channel=0 note=62 velocity=127 time=0.03125\n",
      "note_on channel=0 note=60 velocity=127 time=0.019791666666666666\n",
      "note_off channel=0 note=62 velocity=127 time=0\n",
      "note_on channel=0 note=61 velocity=127 time=0.008333333333333333\n",
      "note_off channel=0 note=60 velocity=127 time=0.011458333333333333\n",
      "note_off channel=0 note=61 velocity=127 time=0.008333333333333333\n",
      "note_on channel=0 note=60 velocity=127 time=0.059375\n",
      "note_on channel=0 note=61 velocity=127 time=0\n",
      "note_off channel=0 note=60 velocity=127 time=0.019791666666666666\n",
      "note_off channel=0 note=61 velocity=127 time=0\n",
      "note_on channel=0 note=61 velocity=127 time=0.059375\n",
      "note_on channel=0 note=60 velocity=127 time=0.007291666666666667\n",
      "note_off channel=0 note=61 velocity=127 time=0.0125\n",
      "note_off channel=0 note=60 velocity=127 time=0.007291666666666667\n",
      "note_on channel=0 note=62 velocity=127 time=0.008333333333333333\n",
      "note_off channel=0 note=62 velocity=127 time=0.019791666666666666\n",
      "note_on channel=0 note=61 velocity=127 time=0.02395833333333333\n",
      "note_on channel=0 note=60 velocity=127 time=0.015625\n",
      "note_off channel=0 note=61 velocity=127 time=0.004166666666666667\n",
      "note_off channel=0 note=60 velocity=127 time=0.015625\n",
      "note_on channel=0 note=61 velocity=127 time=0.04375\n",
      "note_off channel=0 note=61 velocity=127 time=0.019791666666666666\n",
      "note_on channel=0 note=60 velocity=127 time=0.004166666666666667\n",
      "note_off channel=0 note=60 velocity=127 time=0.019791666666666666\n",
      "note_on channel=0 note=61 velocity=127 time=0.036458333333333336\n",
      "note_on channel=0 note=62 velocity=127 time=0.019791666666666666\n",
      "note_off channel=0 note=61 velocity=127 time=0\n",
      "note_on channel=0 note=60 velocity=127 time=0.011458333333333333\n",
      "note_off channel=0 note=62 velocity=127 time=0.008333333333333333\n",
      "note_off channel=0 note=60 velocity=127 time=0.011458333333333333\n",
      "note_on channel=0 note=61 velocity=127 time=0.028125\n",
      "note_off channel=0 note=61 velocity=127 time=0.019791666666666666\n",
      "note_on channel=0 note=60 velocity=127 time=0.019791666666666666\n",
      "note_off channel=0 note=60 velocity=127 time=0.019791666666666666\n",
      "note_on channel=0 note=61 velocity=127 time=0.019791666666666666\n",
      "note_off channel=0 note=61 velocity=127 time=0.019791666666666666\n",
      "note_on channel=0 note=60 velocity=127 time=0.028125\n",
      "note_off channel=0 note=60 velocity=127 time=0.019791666666666666\n",
      "note_on channel=0 note=61 velocity=127 time=0.011458333333333333\n",
      "note_on channel=0 note=62 velocity=127 time=0.004166666666666667\n",
      "note_off channel=0 note=61 velocity=127 time=0.015625\n",
      "note_off channel=0 note=62 velocity=127 time=0.004166666666666667\n",
      "note_on channel=0 note=60 velocity=127 time=0.03229166666666666\n",
      "note_off channel=0 note=60 velocity=127 time=0.019791666666666666\n",
      "note_on channel=0 note=61 velocity=127 time=0.004166666666666667\n",
      "note_off channel=0 note=61 velocity=127 time=0.019791666666666666\n",
      "note_on channel=0 note=60 velocity=127 time=0.04375\n",
      "note_on channel=0 note=61 velocity=127 time=0.015625\n",
      "note_off channel=0 note=60 velocity=127 time=0.004166666666666667\n",
      "note_off channel=0 note=61 velocity=127 time=0.015625\n",
      "note_on channel=0 note=62 velocity=127 time=0.04791666666666666\n",
      "note_on channel=0 note=60 velocity=127 time=0.004166666666666667\n",
      "note_on channel=0 note=61 velocity=127 time=0.007291666666666667\n",
      "note_off channel=0 note=62 velocity=127 time=0.008333333333333333\n",
      "note_off channel=0 note=60 velocity=127 time=0.004166666666666667\n",
      "note_off channel=0 note=61 velocity=127 time=0.007291666666666667\n",
      "note_on channel=0 note=61 velocity=127 time=0.059375\n",
      "note_on channel=0 note=60 velocity=127 time=0\n",
      "note_off channel=0 note=61 velocity=127 time=0.019791666666666666\n",
      "note_off channel=0 note=60 velocity=127 time=0\n",
      "note_on channel=0 note=61 velocity=127 time=0.059375\n",
      "note_on channel=0 note=60 velocity=127 time=0.008333333333333333\n",
      "note_off channel=0 note=61 velocity=127 time=0.011458333333333333\n",
      "note_off channel=0 note=60 velocity=127 time=0.008333333333333333\n",
      "note_on channel=0 note=62 velocity=127 time=0.022916666666666665\n",
      "note_off channel=0 note=62 velocity=127 time=0.019791666666666666\n",
      "note_on channel=0 note=61 velocity=127 time=0.008333333333333333\n",
      "note_on channel=0 note=60 velocity=127 time=0.016666666666666666\n",
      "note_off channel=0 note=61 velocity=127 time=0.003125\n",
      "note_off channel=0 note=60 velocity=127 time=0.016666666666666666\n",
      "note_on channel=0 note=61 velocity=127 time=0.04375\n",
      "note_off channel=0 note=61 velocity=127 time=0.019791666666666666\n",
      "note_on channel=0 note=60 velocity=127 time=0.004166666666666667\n",
      "note_off channel=0 note=60 velocity=127 time=0.019791666666666666\n",
      "note_on channel=0 note=61 velocity=127 time=0.035416666666666666\n",
      "note_off channel=0 note=61 velocity=127 time=0.019791666666666666\n",
      "note_on channel=0 note=60 velocity=127 time=0.0125\n",
      "note_on channel=0 note=62 velocity=127 time=0.003125\n",
      "note_off channel=0 note=60 velocity=127 time=0.016666666666666666\n",
      "note_off channel=0 note=62 velocity=127 time=0.003125\n",
      "note_on channel=0 note=61 velocity=127 time=0.02395833333333333\n",
      "note_off channel=0 note=61 velocity=127 time=0.019791666666666666\n",
      "note_on channel=0 note=60 velocity=127 time=0.020833333333333332\n",
      "note_off channel=0 note=60 velocity=127 time=0.019791666666666666\n",
      "note_on channel=0 note=61 velocity=127 time=0.01875\n",
      "note_off channel=0 note=61 velocity=127 time=0.019791666666666666\n",
      "note_on channel=0 note=60 velocity=127 time=0.028125\n",
      "note_off channel=0 note=60 velocity=127 time=0.019791666666666666\n",
      "note_on channel=0 note=61 velocity=127 time=0.011458333333333333\n",
      "note_on channel=0 note=62 velocity=127 time=0.019791666666666666\n",
      "note_off channel=0 note=61 velocity=127 time=0\n",
      "note_off channel=0 note=62 velocity=127 time=0.019791666666666666\n",
      "note_on channel=0 note=60 velocity=127 time=0.016666666666666666\n",
      "note_off channel=0 note=60 velocity=127 time=0.019791666666666666\n",
      "note_on channel=0 note=61 velocity=127 time=0.003125\n",
      "note_off channel=0 note=61 velocity=127 time=0.019791666666666666\n",
      "note_on channel=0 note=60 velocity=127 time=0.04479166666666667\n",
      "note_on channel=0 note=61 velocity=127 time=0.014583333333333334\n",
      "note_off channel=0 note=60 velocity=127 time=0.005208333333333333\n",
      "note_off channel=0 note=61 velocity=127 time=0.014583333333333334\n",
      "note_on channel=0 note=60 velocity=127 time=0.053125\n",
      "\u001b[91m [DEBUG] > \u001b[0m\n",
      " |>  to_array: msg.time > max_t; t, n\n",
      " |>  3.02291666666667\n",
      " |>  150\n",
      "note_on channel=0 note=61 velocity=127 time=0.052083333333333336\n",
      "note_on channel=0 note=62 velocity=127 time=0.0010416666666666667\n",
      "note_off channel=0 note=61 velocity=127 time=0.019791666666666666\n",
      "note_off channel=0 note=62 velocity=127 time=0.0010416666666666667\n",
      "note_on channel=0 note=60 velocity=127 time=0.03854166666666667\n",
      "note_off channel=0 note=60 velocity=127 time=0.019791666666666666\n",
      "note_on channel=0 note=62 velocity=127 time=0.00625\n",
      "note_off channel=0 note=62 velocity=127 time=0.019791666666666666\n",
      "note_on channel=0 note=61 velocity=127 time=0.036458333333333336\n",
      "note_off channel=0 note=61 velocity=127 time=0.019791666666666666\n",
      "note_on channel=0 note=62 velocity=127 time=0.008333333333333333\n",
      "note_on channel=0 note=60 velocity=127 time=0.009375\n",
      "note_off channel=0 note=62 velocity=127 time=0.010416666666666666\n",
      "note_off channel=0 note=60 velocity=127 time=0.009375\n",
      "note_on channel=0 note=62 velocity=127 time=0.05520833333333333\n",
      "note_off channel=0 note=62 velocity=127 time=0.019791666666666666\n",
      "note_on channel=0 note=61 velocity=127 time=0.008333333333333333\n",
      "note_on channel=0 note=60 velocity=127 time=0.016666666666666666\n",
      "note_off channel=0 note=61 velocity=127 time=0.003125\n",
      "note_off channel=0 note=60 velocity=127 time=0.016666666666666666\n",
      "note_on channel=0 note=62 velocity=127 time=0.019791666666666666\n",
      "note_off channel=0 note=62 velocity=127 time=0.019791666666666666\n",
      "note_on channel=0 note=60 velocity=127 time=0.06041666666666667\n",
      "note_on channel=0 note=62 velocity=127 time=0.004166666666666667\n",
      "note_on channel=0 note=61 velocity=127 time=0\n",
      "note_off channel=0 note=60 velocity=127 time=0.015625\n",
      "note_off channel=0 note=62 velocity=127 time=0.004166666666666667\n",
      "note_off channel=0 note=61 velocity=127 time=0\n",
      "note_on channel=0 note=62 velocity=127 time=0.06458333333333333\n",
      "note_off channel=0 note=62 velocity=127 time=0.019791666666666666\n",
      "note_on channel=0 note=60 velocity=127 time=0.011458333333333333\n",
      "note_off channel=0 note=60 velocity=127 time=0.019791666666666666\n",
      "note_on channel=0 note=61 velocity=127 time=0.005208333333333333\n",
      "note_off channel=0 note=61 velocity=127 time=0.019791666666666666\n"
     ]
    },
    {
     "name": "stdout",
     "output_type": "stream",
     "text": [
      "note_on channel=0 note=62 velocity=127 time=0.008333333333333333\n",
      "note_off channel=0 note=62 velocity=127 time=0.019791666666666666\n",
      "note_on channel=0 note=60 velocity=127 time=0.046875\n",
      "note_on channel=0 note=62 velocity=127 time=0.017708333333333333\n",
      "note_off channel=0 note=60 velocity=127 time=0.003125\n",
      "note_off channel=0 note=62 velocity=127 time=0.017708333333333333\n",
      "note_on channel=0 note=61 velocity=127 time=0.008333333333333333\n",
      "note_off channel=0 note=61 velocity=127 time=0.019791666666666666\n",
      "note_on channel=0 note=62 velocity=127 time=0.035416666666666666\n",
      "note_on channel=0 note=60 velocity=127 time=0.01875\n",
      "note_off channel=0 note=62 velocity=127 time=0.0020833333333333333\n",
      "note_off channel=0 note=60 velocity=127 time=0.01875\n",
      "note_on channel=0 note=62 velocity=127 time=0.046875\n",
      "note_on channel=0 note=61 velocity=127 time=0.0010416666666666667\n",
      "note_off channel=0 note=62 velocity=127 time=0.01875\n",
      "note_off channel=0 note=61 velocity=127 time=0.0010416666666666667\n",
      "note_on channel=0 note=60 velocity=127 time=0.03333333333333333\n",
      "note_off channel=0 note=60 velocity=127 time=0.019791666666666666\n",
      "note_on channel=0 note=62 velocity=127 time=0.010416666666666666\n",
      "note_off channel=0 note=62 velocity=127 time=0.019791666666666666\n",
      "note_on channel=0 note=61 velocity=127 time=0.0375\n",
      "note_off channel=0 note=61 velocity=127 time=0.019791666666666666\n",
      "note_on channel=0 note=62 velocity=127 time=0.007291666666666667\n",
      "note_on channel=0 note=60 velocity=127 time=0.005208333333333333\n",
      "note_off channel=0 note=62 velocity=127 time=0.014583333333333334\n",
      "note_off channel=0 note=60 velocity=127 time=0.005208333333333333\n",
      "note_on channel=0 note=62 velocity=127 time=0.059375\n",
      "note_off channel=0 note=62 velocity=127 time=0.019791666666666666\n",
      "note_on channel=0 note=61 velocity=127 time=0.009375\n",
      "note_on channel=0 note=60 velocity=127 time=0.011458333333333333\n",
      "note_off channel=0 note=61 velocity=127 time=0.009375\n",
      "note_off channel=0 note=60 velocity=127 time=0.011458333333333333\n",
      "note_on channel=0 note=62 velocity=127 time=0.02395833333333333\n",
      "note_off channel=0 note=62 velocity=127 time=0.019791666666666666\n",
      "note_on channel=0 note=60 velocity=127 time=0.05625\n",
      "note_on channel=0 note=62 velocity=127 time=0.008333333333333333\n",
      "note_on channel=0 note=61 velocity=127 time=0.0010416666666666667\n",
      "note_off channel=0 note=60 velocity=127 time=0.010416666666666666\n",
      "note_off channel=0 note=62 velocity=127 time=0.008333333333333333\n",
      "note_off channel=0 note=61 velocity=127 time=0.0010416666666666667\n",
      "note_on channel=0 note=62 velocity=127 time=0.06354166666666666\n",
      "note_off channel=0 note=62 velocity=127 time=0.019791666666666666\n",
      "note_on channel=0 note=60 velocity=127 time=0.007291666666666667\n",
      "note_off channel=0 note=60 velocity=127 time=0.019791666666666666\n",
      "note_on channel=0 note=61 velocity=127 time=0.011458333333333333\n",
      "note_off channel=0 note=61 velocity=127 time=0.019791666666666666\n",
      "note_on channel=0 note=62 velocity=127 time=0.00625\n",
      "note_off channel=0 note=62 velocity=127 time=0.019791666666666666\n",
      "note_on channel=0 note=60 velocity=127 time=0.042708333333333334\n",
      "note_off channel=0 note=60 velocity=127 time=0.019791666666666666\n",
      "note_on channel=0 note=62 velocity=127 time=0.0020833333333333333\n",
      "note_off channel=0 note=62 velocity=127 time=0.019791666666666666\n",
      "note_on channel=0 note=61 velocity=127 time=0.010416666666666666\n",
      "note_off channel=0 note=61 velocity=127 time=0.019791666666666666\n",
      "note_on channel=0 note=62 velocity=127 time=0.034375\n",
      "note_on channel=0 note=60 velocity=127 time=0.013541666666666667\n",
      "note_off channel=0 note=62 velocity=127 time=0.00625\n",
      "note_off channel=0 note=60 velocity=127 time=0.013541666666666667\n",
      "note_on channel=0 note=62 velocity=127 time=0.051041666666666666\n",
      "note_on channel=0 note=61 velocity=127 time=0.0020833333333333333\n",
      "note_off channel=0 note=62 velocity=127 time=0.017708333333333333\n",
      "note_off channel=0 note=61 velocity=127 time=0.0020833333333333333\n",
      "note_on channel=0 note=60 velocity=127 time=0.027083333333333334\n",
      "note_off channel=0 note=60 velocity=127 time=0.019791666666666666\n",
      "note_on channel=0 note=62 velocity=127 time=0.015625\n",
      "note_off channel=0 note=62 velocity=127 time=0.019791666666666666\n",
      "note_on channel=0 note=61 velocity=127 time=0.03854166666666667\n",
      "note_off channel=0 note=61 velocity=127 time=0.019791666666666666\n",
      "note_on channel=0 note=62 velocity=127 time=0.00625\n",
      "note_on channel=0 note=60 velocity=127 time=0\n",
      "note_off channel=0 note=62 velocity=127 time=0.019791666666666666\n",
      "note_off channel=0 note=60 velocity=127 time=0\n",
      "note_on channel=0 note=62 velocity=127 time=0.06458333333333333\n",
      "note_off channel=0 note=62 velocity=127 time=0.019791666666666666\n",
      "note_on channel=0 note=61 velocity=127 time=0.010416666666666666\n",
      "note_on channel=0 note=60 velocity=127 time=0.005208333333333333\n",
      "note_off channel=0 note=61 velocity=127 time=0.014583333333333334\n",
      "note_off channel=0 note=60 velocity=127 time=0.005208333333333333\n",
      "note_on channel=0 note=62 velocity=127 time=0.029166666666666667\n",
      "note_off channel=0 note=62 velocity=127 time=0.019791666666666666\n",
      "note_on channel=0 note=60 velocity=127 time=0.052083333333333336\n",
      "note_on channel=0 note=62 velocity=127 time=0.0125\n",
      "note_on channel=0 note=61 velocity=127 time=0.003125\n",
      "note_off channel=0 note=60 velocity=127 time=0.004166666666666667\n",
      "note_off channel=0 note=62 velocity=127 time=0.0125\n",
      "note_off channel=0 note=61 velocity=127 time=0.003125\n",
      "note_on channel=0 note=62 velocity=127 time=0.06145833333333333\n",
      "note_off channel=0 note=62 velocity=127 time=0.019791666666666666\n",
      "note_on channel=0 note=60 velocity=127 time=0.003125\n",
      "note_off channel=0 note=60 velocity=127 time=0.019791666666666666\n",
      "note_on channel=0 note=61 velocity=127 time=0.016666666666666666\n",
      "note_off channel=0 note=61 velocity=127 time=0.019791666666666666\n",
      "note_on channel=0 note=62 velocity=127 time=0.005208333333333333\n",
      "note_off channel=0 note=62 velocity=127 time=0.019791666666666666\n",
      "note_on channel=0 note=60 velocity=127 time=0.03854166666666667\n",
      "note_off channel=0 note=60 velocity=127 time=0.019791666666666666\n",
      "note_on channel=0 note=62 velocity=127 time=0.00625\n",
      "note_off channel=0 note=62 velocity=127 time=0.019791666666666666\n",
      "note_on channel=0 note=61 velocity=127 time=0.011458333333333333\n",
      "note_off channel=0 note=61 velocity=127 time=0.019791666666666666\n",
      "note_on channel=0 note=62 velocity=127 time=0.03333333333333333\n",
      "note_on channel=0 note=60 velocity=127 time=0.009375\n",
      "note_off channel=0 note=62 velocity=127 time=0.010416666666666666\n",
      "note_off channel=0 note=60 velocity=127 time=0.009375\n",
      "note_on channel=0 note=62 velocity=127 time=0.05520833333333333\n",
      "note_on channel=0 note=61 velocity=127 time=0.003125\n",
      "note_off channel=0 note=62 velocity=127 time=0.016666666666666666\n",
      "note_off channel=0 note=61 velocity=127 time=0.003125\n",
      "note_on channel=0 note=60 velocity=127 time=0.021875\n",
      "note_off channel=0 note=60 velocity=127 time=0.019791666666666666\n",
      "note_on channel=0 note=62 velocity=127 time=0.019791666666666666\n",
      "note_off channel=0 note=62 velocity=127 time=0.019791666666666666\n",
      "note_on channel=0 note=61 velocity=127 time=0.03958333333333333\n",
      "note_off channel=0 note=61 velocity=127 time=0.019791666666666666\n",
      "note_on channel=0 note=60 velocity=127 time=0\n",
      "note_on channel=0 note=62 velocity=127 time=0.004166666666666667\n",
      "note_off channel=0 note=60 velocity=127 time=0.015625\n",
      "note_off channel=0 note=62 velocity=127 time=0.004166666666666667\n",
      "note_on channel=0 note=62 velocity=127 time=0.06458333333333333\n",
      "note_off channel=0 note=62 velocity=127 time=0.019791666666666666\n",
      "note_on channel=0 note=60 velocity=127 time=0.011458333333333333\n",
      "note_on channel=0 note=61 velocity=127 time=0.0010416666666666667\n",
      "note_off channel=0 note=60 velocity=127 time=0.019791666666666666\n",
      "note_off channel=0 note=61 velocity=127 time=0.0010416666666666667\n",
      "note_on channel=0 note=62 velocity=127 time=0.03229166666666666\n",
      "note_off channel=0 note=62 velocity=127 time=0.019791666666666666\n",
      "note_on channel=0 note=60 velocity=127 time=0.046875\n",
      "\u001b[91m [DEBUG] > \u001b[0m\n",
      " |>  to_array: msg.time > max_t; t, n\n",
      " |>  2.9927083333333364\n",
      " |>  150\n",
      "note_on channel=0 note=61 velocity=127 time=0.007291666666666667\n",
      "note_off channel=0 note=61 velocity=127 time=0.019791666666666666\n",
      "note_on channel=0 note=60 velocity=127 time=0.075\n",
      "note_on channel=0 note=61 velocity=127 time=0.0010416666666666667\n",
      "note_off channel=0 note=60 velocity=127 time=0.01875\n",
      "note_off channel=0 note=61 velocity=127 time=0.0010416666666666667\n",
      "note_on channel=0 note=62 velocity=127 time=0.026041666666666668\n",
      "note_off channel=0 note=62 velocity=127 time=0.019791666666666666\n",
      "note_on channel=0 note=61 velocity=127 time=0.030208333333333334\n",
      "note_off channel=0 note=61 velocity=127 time=0.019791666666666666\n",
      "note_on channel=0 note=61 velocity=127 time=0.07604166666666666\n",
      "note_off channel=0 note=61 velocity=127 time=0.019791666666666666\n",
      "note_on channel=0 note=60 velocity=127 time=0\n",
      "note_on channel=0 note=62 velocity=127 time=0.016666666666666666\n",
      "note_off channel=0 note=60 velocity=127 time=0.004166666666666667\n",
      "note_off channel=0 note=62 velocity=127 time=0.016666666666666666\n",
      "note_on channel=0 note=61 velocity=127 time=0.03958333333333333\n",
      "note_off channel=0 note=61 velocity=127 time=0.019791666666666666\n",
      "note_on channel=0 note=61 velocity=127 time=0.07604166666666666\n",
      "note_off channel=0 note=61 velocity=127 time=0.019791666666666666\n",
      "note_on channel=0 note=62 velocity=127 time=0.007291666666666667\n",
      "note_on channel=0 note=60 velocity=127 time=0.014583333333333334\n",
      "note_off channel=0 note=62 velocity=127 time=0.005208333333333333\n",
      "note_off channel=0 note=60 velocity=127 time=0.014583333333333334\n",
      "note_on channel=0 note=61 velocity=127 time=0.034375\n",
      "note_off channel=0 note=61 velocity=127 time=0.019791666666666666\n",
      "note_on channel=0 note=61 velocity=127 time=0.07604166666666666\n",
      "note_on channel=0 note=62 velocity=127 time=0.017708333333333333\n",
      "note_off channel=0 note=61 velocity=127 time=0.0020833333333333333\n",
      "note_off channel=0 note=62 velocity=127 time=0.017708333333333333\n",
      "note_on channel=0 note=60 velocity=127 time=0.026041666666666668\n",
      "note_off channel=0 note=60 velocity=127 time=0.019791666666666666\n",
      "note_on channel=0 note=61 velocity=127 time=0.0125\n",
      "note_off channel=0 note=61 velocity=127 time=0.019791666666666666\n",
      "note_on channel=0 note=61 velocity=127 time=0.07604166666666666\n",
      "note_on channel=0 note=62 velocity=127 time=0.008333333333333333\n",
      "note_off channel=0 note=61 velocity=127 time=0.011458333333333333\n",
      "note_off channel=0 note=62 velocity=127 time=0.008333333333333333\n",
      "note_on channel=0 note=60 velocity=127 time=0.057291666666666664\n",
      "note_on channel=0 note=61 velocity=127 time=0.011458333333333333\n",
      "note_off channel=0 note=60 velocity=127 time=0.008333333333333333\n",
      "note_off channel=0 note=61 velocity=127 time=0.011458333333333333\n",
      "note_on channel=0 note=62 velocity=127 time=0.075\n",
      "note_on channel=0 note=61 velocity=127 time=0.0010416666666666667\n",
      "note_off channel=0 note=62 velocity=127 time=0.01875\n",
      "note_off channel=0 note=61 velocity=127 time=0.0010416666666666667\n",
      "note_on channel=0 note=61 velocity=127 time=0.07604166666666666\n",
      "note_on channel=0 note=60 velocity=127 time=0.010416666666666666\n",
      "note_off channel=0 note=61 velocity=127 time=0.009375\n",
      "note_off channel=0 note=60 velocity=127 time=0.010416666666666666\n",
      "note_on channel=0 note=62 velocity=127 time=0.05520833333333333\n",
      "note_on channel=0 note=61 velocity=127 time=0.011458333333333333\n",
      "note_off channel=0 note=62 velocity=127 time=0.009375\n",
      "note_off channel=0 note=61 velocity=127 time=0.011458333333333333\n",
      "note_on channel=0 note=61 velocity=127 time=0.07604166666666666\n",
      "note_off channel=0 note=61 velocity=127 time=0.019791666666666666\n",
      "note_on channel=0 note=60 velocity=127 time=0.011458333333333333\n",
      "note_off channel=0 note=60 velocity=127 time=0.019791666666666666\n",
      "note_on channel=0 note=62 velocity=127 time=0.02395833333333333\n",
      "note_off channel=0 note=62 velocity=127 time=0.019791666666666666\n",
      "note_on channel=0 note=61 velocity=127 time=0.0010416666666666667\n",
      "note_off channel=0 note=61 velocity=127 time=0.019791666666666666\n",
      "note_on channel=0 note=61 velocity=127 time=0.07604166666666666\n",
      "note_off channel=0 note=61 velocity=127 time=0.019791666666666666\n",
      "note_on channel=0 note=60 velocity=127 time=0.03333333333333333\n",
      "note_on channel=0 note=62 velocity=127 time=0.0125\n",
      "note_off channel=0 note=60 velocity=127 time=0.007291666666666667\n",
      "note_off channel=0 note=62 velocity=127 time=0.0125\n",
      "note_on channel=0 note=61 velocity=127 time=0.010416666666666666\n",
      "note_off channel=0 note=61 velocity=127 time=0.019791666666666666\n",
      "note_on channel=0 note=61 velocity=127 time=0.07604166666666666\n",
      "note_off channel=0 note=61 velocity=127 time=0.019791666666666666\n",
      "note_on channel=0 note=62 velocity=127 time=0.036458333333333336\n",
      "note_on channel=0 note=60 velocity=127 time=0.01875\n",
      "note_off channel=0 note=62 velocity=127 time=0.0020833333333333333\n",
      "note_off channel=0 note=60 velocity=127 time=0.01875\n",
      "note_on channel=0 note=61 velocity=127 time=0.0010416666666666667\n",
      "note_off channel=0 note=61 velocity=127 time=0.019791666666666666\n",
      "note_on channel=0 note=61 velocity=127 time=0.07604166666666666\n",
      "note_off channel=0 note=61 velocity=127 time=0.019791666666666666\n",
      "note_on channel=0 note=62 velocity=127 time=0.027083333333333334\n",
      "note_off channel=0 note=62 velocity=127 time=0.019791666666666666\n",
      "note_on channel=0 note=61 velocity=127 time=0.029166666666666667\n",
      "note_on channel=0 note=60 velocity=127 time=0\n",
      "note_off channel=0 note=61 velocity=127 time=0.019791666666666666\n",
      "note_off channel=0 note=60 velocity=127 time=0\n",
      "note_on channel=0 note=61 velocity=127 time=0.07604166666666666\n",
      "note_off channel=0 note=61 velocity=127 time=0.019791666666666666\n",
      "note_on channel=0 note=62 velocity=127 time=0.017708333333333333\n",
      "note_off channel=0 note=62 velocity=127 time=0.019791666666666666\n",
      "note_on channel=0 note=61 velocity=127 time=0.03854166666666667\n",
      "note_off channel=0 note=61 velocity=127 time=0.019791666666666666\n",
      "note_on channel=0 note=60 velocity=127 time=0.0020833333333333333\n",
      "note_off channel=0 note=60 velocity=127 time=0.019791666666666666\n",
      "note_on channel=0 note=61 velocity=127 time=0.05416666666666667\n",
      "note_off channel=0 note=61 velocity=127 time=0.019791666666666666\n",
      "note_on channel=0 note=62 velocity=127 time=0.008333333333333333\n",
      "note_off channel=0 note=62 velocity=127 time=0.019791666666666666\n",
      "note_on channel=0 note=61 velocity=127 time=0.04791666666666666\n",
      "note_off channel=0 note=61 velocity=127 time=0.019791666666666666\n",
      "note_on channel=0 note=60 velocity=127 time=0.022916666666666665\n",
      "note_off channel=0 note=60 velocity=127 time=0.019791666666666666\n",
      "note_on channel=0 note=61 velocity=127 time=0.03333333333333333\n",
      "note_on channel=0 note=62 velocity=127 time=0.01875\n",
      "note_off channel=0 note=61 velocity=127 time=0.0020833333333333333\n",
      "note_off channel=0 note=62 velocity=127 time=0.01875\n",
      "note_on channel=0 note=61 velocity=127 time=0.058333333333333334\n",
      "note_off channel=0 note=61 velocity=127 time=0.019791666666666666\n",
      "note_on channel=0 note=60 velocity=127 time=0.04479166666666667\n",
      "note_off channel=0 note=60 velocity=127 time=0.019791666666666666\n",
      "note_on channel=0 note=61 velocity=127 time=0.011458333333333333\n",
      "note_on channel=0 note=62 velocity=127 time=0.008333333333333333\n",
      "note_off channel=0 note=61 velocity=127 time=0.011458333333333333\n",
      "note_off channel=0 note=62 velocity=127 time=0.008333333333333333\n",
      "note_on channel=0 note=61 velocity=127 time=0.06770833333333333\n",
      "note_off channel=0 note=61 velocity=127 time=0.019791666666666666\n",
      "note_on channel=0 note=60 velocity=127 time=0.06666666666666667\n",
      "note_on channel=0 note=62 velocity=127 time=0.009375\n",
      "note_on channel=0 note=61 velocity=127 time=0.0010416666666666667\n",
      "note_off channel=0 note=60 velocity=127 time=0.010416666666666666\n",
      "note_off channel=0 note=62 velocity=127 time=0.009375\n",
      "note_off channel=0 note=61 velocity=127 time=0.0010416666666666667\n",
      "note_on channel=0 note=61 velocity=127 time=0.07604166666666666\n",
      "note_off channel=0 note=61 velocity=127 time=0.019791666666666666\n",
      "\u001b[91m [DEBUG] > \u001b[0m\n",
      " |>  to_array: msg.time > max_t; t, n\n",
      " |>  3.007291666666667\n",
      " |>  150\n",
      "note_on channel=0 note=60 velocity=127 time=0.014583333333333334\n",
      "note_on channel=0 note=62 velocity=127 time=0.01875\n",
      "note_off channel=0 note=60 velocity=127 time=0.0010416666666666667\n",
      "note_off channel=0 note=62 velocity=127 time=0.01875\n",
      "note_on channel=0 note=60 velocity=127 time=0.057291666666666664\n",
      "note_on channel=0 note=62 velocity=127 time=0.01875\n",
      "note_off channel=0 note=60 velocity=127 time=0.0010416666666666667\n",
      "note_off channel=0 note=62 velocity=127 time=0.01875\n",
      "note_on channel=0 note=60 velocity=127 time=0.057291666666666664\n",
      "note_on channel=0 note=62 velocity=127 time=0.019791666666666666\n",
      "note_off channel=0 note=60 velocity=127 time=0\n",
      "note_on channel=0 note=61 velocity=127 time=0.0020833333333333333\n",
      "note_off channel=0 note=62 velocity=127 time=0.017708333333333333\n",
      "note_off channel=0 note=61 velocity=127 time=0.003125\n",
      "note_on channel=0 note=60 velocity=127 time=0.05416666666666667\n",
      "note_off channel=0 note=60 velocity=127 time=0.019791666666666666\n",
      "note_on channel=0 note=62 velocity=127 time=0\n",
      "note_off channel=0 note=62 velocity=127 time=0.019791666666666666\n",
      "note_on channel=0 note=60 velocity=127 time=0.05625\n",
      "note_off channel=0 note=60 velocity=127 time=0.019791666666666666\n",
      "note_on channel=0 note=62 velocity=127 time=0.0010416666666666667\n",
      "note_off channel=0 note=62 velocity=127 time=0.019791666666666666\n",
      "note_on channel=0 note=60 velocity=127 time=0.05520833333333333\n",
      "note_off channel=0 note=60 velocity=127 time=0.019791666666666666\n",
      "note_on channel=0 note=62 velocity=127 time=0.0010416666666666667\n",
      "note_off channel=0 note=62 velocity=127 time=0.019791666666666666\n",
      "note_on channel=0 note=61 velocity=127 time=0.0020833333333333333\n",
      "note_off channel=0 note=61 velocity=127 time=0.019791666666666666\n",
      "note_on channel=0 note=60 velocity=127 time=0.03229166666666666\n",
      "note_off channel=0 note=60 velocity=127 time=0.019791666666666666\n",
      "note_on channel=0 note=62 velocity=127 time=0.0020833333333333333\n",
      "note_off channel=0 note=62 velocity=127 time=0.019791666666666666\n",
      "note_on channel=0 note=60 velocity=127 time=0.05416666666666667\n",
      "note_off channel=0 note=60 velocity=127 time=0.019791666666666666\n",
      "note_on channel=0 note=62 velocity=127 time=0.0020833333333333333\n",
      "note_off channel=0 note=62 velocity=127 time=0.019791666666666666\n",
      "note_on channel=0 note=60 velocity=127 time=0.05416666666666667\n",
      "note_off channel=0 note=60 velocity=127 time=0.019791666666666666\n",
      "note_on channel=0 note=62 velocity=127 time=0.003125\n",
      "note_off channel=0 note=62 velocity=127 time=0.019791666666666666\n",
      "note_on channel=0 note=61 velocity=127 time=0.021875\n",
      "note_off channel=0 note=61 velocity=127 time=0.019791666666666666\n",
      "note_on channel=0 note=60 velocity=127 time=0.011458333333333333\n",
      "note_off channel=0 note=60 velocity=127 time=0.019791666666666666\n",
      "note_on channel=0 note=62 velocity=127 time=0.003125\n",
      "note_off channel=0 note=62 velocity=127 time=0.019791666666666666\n",
      "note_on channel=0 note=60 velocity=127 time=0.053125\n",
      "note_off channel=0 note=60 velocity=127 time=0.019791666666666666\n",
      "note_on channel=0 note=62 velocity=127 time=0.004166666666666667\n",
      "note_off channel=0 note=62 velocity=127 time=0.019791666666666666\n",
      "note_on channel=0 note=60 velocity=127 time=0.052083333333333336\n",
      "note_off channel=0 note=60 velocity=127 time=0.019791666666666666\n",
      "note_on channel=0 note=62 velocity=127 time=0.004166666666666667\n",
      "note_off channel=0 note=62 velocity=127 time=0.019791666666666666\n",
      "note_on channel=0 note=61 velocity=127 time=0.041666666666666664\n",
      "note_on channel=0 note=60 velocity=127 time=0.010416666666666666\n",
      "note_off channel=0 note=61 velocity=127 time=0.009375\n",
      "note_off channel=0 note=60 velocity=127 time=0.010416666666666666\n",
      "note_on channel=0 note=62 velocity=127 time=0.005208333333333333\n",
      "note_off channel=0 note=62 velocity=127 time=0.019791666666666666\n",
      "note_on channel=0 note=60 velocity=127 time=0.051041666666666666\n",
      "note_off channel=0 note=60 velocity=127 time=0.019791666666666666\n",
      "note_on channel=0 note=62 velocity=127 time=0.005208333333333333\n",
      "note_off channel=0 note=62 velocity=127 time=0.019791666666666666\n",
      "note_on channel=0 note=60 velocity=127 time=0.051041666666666666\n",
      "note_off channel=0 note=60 velocity=127 time=0.019791666666666666\n",
      "note_on channel=0 note=62 velocity=127 time=0.00625\n",
      "note_off channel=0 note=62 velocity=127 time=0.019791666666666666\n",
      "note_on channel=0 note=60 velocity=127 time=0.05\n",
      "note_on channel=0 note=61 velocity=127 time=0.011458333333333333\n",
      "note_off channel=0 note=60 velocity=127 time=0.009375\n",
      "note_on channel=0 note=62 velocity=127 time=0.00625\n",
      "note_off channel=0 note=61 velocity=127 time=0.005208333333333333\n",
      "note_off channel=0 note=62 velocity=127 time=0.015625\n",
      "note_on channel=0 note=60 velocity=127 time=0.05\n",
      "note_off channel=0 note=60 velocity=127 time=0.019791666666666666\n",
      "note_on channel=0 note=62 velocity=127 time=0.00625\n",
      "note_off channel=0 note=62 velocity=127 time=0.019791666666666666\n",
      "note_on channel=0 note=60 velocity=127 time=0.05\n",
      "note_off channel=0 note=60 velocity=127 time=0.019791666666666666\n",
      "note_on channel=0 note=62 velocity=127 time=0.007291666666666667\n",
      "note_off channel=0 note=62 velocity=127 time=0.019791666666666666\n",
      "note_on channel=0 note=60 velocity=127 time=0.04895833333333333\n",
      "note_off channel=0 note=60 velocity=127 time=0.019791666666666666\n",
      "note_on channel=0 note=62 velocity=127 time=0.007291666666666667\n",
      "note_on channel=0 note=61 velocity=127 time=0.004166666666666667\n",
      "note_off channel=0 note=62 velocity=127 time=0.015625\n",
      "note_off channel=0 note=61 velocity=127 time=0.004166666666666667\n",
      "note_on channel=0 note=60 velocity=127 time=0.04375\n",
      "note_off channel=0 note=60 velocity=127 time=0.019791666666666666\n",
      "note_on channel=0 note=62 velocity=127 time=0.008333333333333333\n",
      "note_off channel=0 note=62 velocity=127 time=0.019791666666666666\n",
      "note_on channel=0 note=60 velocity=127 time=0.04791666666666666\n",
      "note_off channel=0 note=60 velocity=127 time=0.019791666666666666\n",
      "note_on channel=0 note=62 velocity=127 time=0.008333333333333333\n",
      "note_off channel=0 note=62 velocity=127 time=0.019791666666666666\n",
      "note_on channel=0 note=60 velocity=127 time=0.04791666666666666\n",
      "note_off channel=0 note=60 velocity=127 time=0.019791666666666666\n",
      "note_on channel=0 note=62 velocity=127 time=0.009375\n",
      "note_off channel=0 note=62 velocity=127 time=0.019791666666666666\n",
      "note_on channel=0 note=61 velocity=127 time=0.004166666666666667\n",
      "note_off channel=0 note=61 velocity=127 time=0.019791666666666666\n",
      "note_on channel=0 note=60 velocity=127 time=0.022916666666666665\n",
      "note_off channel=0 note=60 velocity=127 time=0.019791666666666666\n",
      "note_on channel=0 note=62 velocity=127 time=0.009375\n",
      "note_off channel=0 note=62 velocity=127 time=0.019791666666666666\n",
      "note_on channel=0 note=60 velocity=127 time=0.046875\n",
      "note_off channel=0 note=60 velocity=127 time=0.019791666666666666\n",
      "note_on channel=0 note=62 velocity=127 time=0.010416666666666666\n",
      "note_off channel=0 note=62 velocity=127 time=0.019791666666666666\n",
      "note_on channel=0 note=60 velocity=127 time=0.04583333333333333\n",
      "note_off channel=0 note=60 velocity=127 time=0.019791666666666666\n",
      "note_on channel=0 note=62 velocity=127 time=0.010416666666666666\n",
      "note_off channel=0 note=62 velocity=127 time=0.019791666666666666\n",
      "note_on channel=0 note=61 velocity=127 time=0.02395833333333333\n",
      "note_off channel=0 note=61 velocity=127 time=0.019791666666666666\n",
      "note_on channel=0 note=60 velocity=127 time=0.0010416666666666667\n",
      "note_off channel=0 note=60 velocity=127 time=0.019791666666666666\n",
      "note_on channel=0 note=62 velocity=127 time=0.011458333333333333\n",
      "note_off channel=0 note=62 velocity=127 time=0.019791666666666666\n",
      "note_on channel=0 note=60 velocity=127 time=0.04479166666666667\n",
      "note_off channel=0 note=60 velocity=127 time=0.019791666666666666\n",
      "note_on channel=0 note=62 velocity=127 time=0.011458333333333333\n",
      "note_off channel=0 note=62 velocity=127 time=0.019791666666666666\n",
      "note_on channel=0 note=60 velocity=127 time=0.04479166666666667\n",
      "note_off channel=0 note=60 velocity=127 time=0.019791666666666666\n",
      "note_on channel=0 note=62 velocity=127 time=0.0125\n",
      "note_off channel=0 note=62 velocity=127 time=0.019791666666666666\n",
      "note_on channel=0 note=61 velocity=127 time=0.04375\n",
      "note_on channel=0 note=60 velocity=127 time=0\n",
      "note_off channel=0 note=61 velocity=127 time=0.019791666666666666\n",
      "note_off channel=0 note=60 velocity=127 time=0\n",
      "note_on channel=0 note=62 velocity=127 time=0.0125\n",
      "note_off channel=0 note=62 velocity=127 time=0.019791666666666666\n",
      "note_on channel=0 note=60 velocity=127 time=0.04375\n",
      "note_off channel=0 note=60 velocity=127 time=0.019791666666666666\n",
      "note_on channel=0 note=62 velocity=127 time=0.013541666666666667\n",
      "note_off channel=0 note=62 velocity=127 time=0.019791666666666666\n",
      "note_on channel=0 note=60 velocity=127 time=0.042708333333333334\n",
      "note_off channel=0 note=60 velocity=127 time=0.019791666666666666\n",
      "note_on channel=0 note=62 velocity=127 time=0.013541666666666667\n",
      "note_off channel=0 note=62 velocity=127 time=0.019791666666666666\n",
      "note_on channel=0 note=60 velocity=127 time=0.042708333333333334\n",
      "note_off channel=0 note=60 velocity=127 time=0.019791666666666666\n",
      "\u001b[91m [DEBUG] > \u001b[0m\n",
      " |>  to_array: msg.time > max_t; t, n\n",
      " |>  3.005208333333338\n",
      " |>  150\n",
      "note_on channel=0 note=61 velocity=127 time=0.034375\n",
      "note_off channel=0 note=61 velocity=127 time=0.019791666666666666\n",
      "note_on channel=0 note=60 velocity=127 time=0.010416666666666666\n",
      "note_on channel=0 note=62 velocity=127 time=0.003125\n",
      "note_off channel=0 note=60 velocity=127 time=0.017708333333333333\n",
      "note_off channel=0 note=62 velocity=127 time=0.003125\n",
      "note_on channel=0 note=61 velocity=127 time=0.022916666666666665\n",
      "note_off channel=0 note=61 velocity=127 time=0.019791666666666666\n",
      "note_on channel=0 note=60 velocity=127 time=0.035416666666666666\n",
      "note_off channel=0 note=60 velocity=127 time=0.019791666666666666\n",
      "note_on channel=0 note=61 velocity=127 time=0\n",
      "note_on channel=0 note=62 velocity=127 time=0.017708333333333333\n",
      "note_off channel=0 note=61 velocity=127 time=0.0020833333333333333\n",
      "note_off channel=0 note=62 velocity=127 time=0.017708333333333333\n",
      "note_on channel=0 note=61 velocity=127 time=0.0375\n",
      "note_on channel=0 note=60 velocity=127 time=0.004166666666666667\n",
      "note_off channel=0 note=61 velocity=127 time=0.015625\n",
      "note_off channel=0 note=60 velocity=127 time=0.004166666666666667\n",
      "note_on channel=0 note=61 velocity=127 time=0.051041666666666666\n",
      "note_on channel=0 note=62 velocity=127 time=0.0020833333333333333\n",
      "note_off channel=0 note=61 velocity=127 time=0.017708333333333333\n",
      "note_off channel=0 note=62 velocity=127 time=0.0020833333333333333\n",
      "note_on channel=0 note=60 velocity=127 time=0.007291666666666667\n",
      "note_off channel=0 note=60 velocity=127 time=0.019791666666666666\n",
      "note_on channel=0 note=61 velocity=127 time=0.026041666666666668\n",
      "note_off channel=0 note=61 velocity=127 time=0.019791666666666666\n",
      "note_on channel=0 note=60 velocity=127 time=0.034375\n",
      "note_on channel=0 note=62 velocity=127 time=0.008333333333333333\n",
      "note_off channel=0 note=60 velocity=127 time=0.011458333333333333\n",
      "note_on channel=0 note=61 velocity=127 time=0.0010416666666666667\n",
      "note_off channel=0 note=62 velocity=127 time=0.007291666666666667\n",
      "note_off channel=0 note=61 velocity=127 time=0.013541666666666667\n",
      "note_on channel=0 note=61 velocity=127 time=0.05520833333333333\n",
      "note_on channel=0 note=60 velocity=127 time=0.003125\n",
      "note_off channel=0 note=61 velocity=127 time=0.016666666666666666\n",
      "note_off channel=0 note=60 velocity=127 time=0.003125\n",
      "note_on channel=0 note=62 velocity=127 time=0.022916666666666665\n",
      "note_off channel=0 note=62 velocity=127 time=0.019791666666666666\n",
      "note_on channel=0 note=61 velocity=127 time=0.008333333333333333\n",
      "note_off channel=0 note=61 velocity=127 time=0.019791666666666666\n",
      "note_on channel=0 note=60 velocity=127 time=0.008333333333333333\n",
      "note_off channel=0 note=60 velocity=127 time=0.019791666666666666\n",
      "note_on channel=0 note=61 velocity=127 time=0.027083333333333334\n",
      "note_off channel=0 note=61 velocity=127 time=0.019791666666666666\n",
      "note_on channel=0 note=62 velocity=127 time=0.011458333333333333\n",
      "note_off channel=0 note=62 velocity=127 time=0.019791666666666666\n",
      "note_on channel=0 note=60 velocity=127 time=0.0020833333333333333\n",
      "note_off channel=0 note=60 velocity=127 time=0.019791666666666666\n",
      "note_on channel=0 note=61 velocity=127 time=0.0020833333333333333\n",
      "note_off channel=0 note=61 velocity=127 time=0.019791666666666666\n",
      "note_on channel=0 note=61 velocity=127 time=0.05520833333333333\n",
      "note_on channel=0 note=60 velocity=127 time=0.003125\n",
      "note_on channel=0 note=62 velocity=127 time=0.013541666666666667\n",
      "note_off channel=0 note=61 velocity=127 time=0.004166666666666667\n",
      "note_off channel=0 note=60 velocity=127 time=0.003125\n",
      "note_off channel=0 note=62 velocity=127 time=0.013541666666666667\n",
      "note_on channel=0 note=61 velocity=127 time=0.03958333333333333\n",
      "note_off channel=0 note=61 velocity=127 time=0.019791666666666666\n",
      "note_on channel=0 note=60 velocity=127 time=0.007291666666666667\n",
      "note_off channel=0 note=60 velocity=127 time=0.019791666666666666\n",
      "note_on channel=0 note=61 velocity=127 time=0.028125\n",
      "note_on channel=0 note=62 velocity=127 time=0.0010416666666666667\n",
      "note_off channel=0 note=61 velocity=127 time=0.01875\n",
      "note_off channel=0 note=62 velocity=127 time=0.0010416666666666667\n",
      "note_on channel=0 note=60 velocity=127 time=0.03125\n",
      "note_off channel=0 note=60 velocity=127 time=0.019791666666666666\n",
      "note_on channel=0 note=61 velocity=127 time=0.003125\n",
      "note_off channel=0 note=61 velocity=127 time=0.019791666666666666\n",
      "note_on channel=0 note=62 velocity=127 time=0.040625\n",
      "note_on channel=0 note=61 velocity=127 time=0.014583333333333334\n",
      "note_on channel=0 note=60 velocity=127 time=0.0020833333333333333\n",
      "note_off channel=0 note=62 velocity=127 time=0.004166666666666667\n",
      "note_off channel=0 note=61 velocity=127 time=0.014583333333333334\n",
      "note_off channel=0 note=60 velocity=127 time=0.0020833333333333333\n",
      "note_on channel=0 note=61 velocity=127 time=0.05416666666666667\n",
      "note_off channel=0 note=61 velocity=127 time=0.019791666666666666\n",
      "note_on channel=0 note=60 velocity=127 time=0.00625\n"
     ]
    },
    {
     "name": "stdout",
     "output_type": "stream",
     "text": [
      "note_on channel=0 note=62 velocity=127 time=0.01875\n",
      "note_off channel=0 note=60 velocity=127 time=0.0010416666666666667\n",
      "note_off channel=0 note=62 velocity=127 time=0.01875\n",
      "note_on channel=0 note=61 velocity=127 time=0.010416666666666666\n",
      "note_off channel=0 note=61 velocity=127 time=0.019791666666666666\n",
      "note_on channel=0 note=60 velocity=127 time=0.03125\n",
      "note_off channel=0 note=60 velocity=127 time=0.019791666666666666\n",
      "note_on channel=0 note=61 velocity=127 time=0.004166666666666667\n",
      "note_off channel=0 note=61 velocity=127 time=0.019791666666666666\n",
      "note_on channel=0 note=62 velocity=127 time=0.010416666666666666\n",
      "note_off channel=0 note=62 velocity=127 time=0.019791666666666666\n",
      "note_on channel=0 note=61 velocity=127 time=0.025\n",
      "note_on channel=0 note=60 velocity=127 time=0.0010416666666666667\n",
      "note_off channel=0 note=61 velocity=127 time=0.01875\n",
      "note_off channel=0 note=60 velocity=127 time=0.0010416666666666667\n",
      "note_on channel=0 note=61 velocity=127 time=0.05416666666666667\n",
      "note_on channel=0 note=62 velocity=127 time=0.014583333333333334\n",
      "note_off channel=0 note=61 velocity=127 time=0.005208333333333333\n",
      "note_on channel=0 note=60 velocity=127 time=0.005208333333333333\n",
      "note_off channel=0 note=62 velocity=127 time=0.009375\n",
      "note_off channel=0 note=60 velocity=127 time=0.010416666666666666\n",
      "note_on channel=0 note=61 velocity=127 time=0.030208333333333334\n",
      "note_off channel=0 note=61 velocity=127 time=0.019791666666666666\n",
      "note_on channel=0 note=60 velocity=127 time=0.030208333333333334\n",
      "note_off channel=0 note=60 velocity=127 time=0.019791666666666666\n",
      "note_on channel=0 note=62 velocity=127 time=0.004166666666666667\n",
      "note_on channel=0 note=61 velocity=127 time=0.0010416666666666667\n",
      "note_off channel=0 note=62 velocity=127 time=0.019791666666666666\n",
      "note_off channel=0 note=61 velocity=127 time=0.0010416666666666667\n",
      "note_on channel=0 note=60 velocity=127 time=0.05520833333333333\n",
      "note_on channel=0 note=61 velocity=127 time=0\n",
      "note_off channel=0 note=60 velocity=127 time=0.019791666666666666\n",
      "note_off channel=0 note=61 velocity=127 time=0\n",
      "note_on channel=0 note=62 velocity=127 time=0.03958333333333333\n",
      "note_on channel=0 note=61 velocity=127 time=0.015625\n",
      "note_off channel=0 note=62 velocity=127 time=0.004166666666666667\n",
      "note_off channel=0 note=61 velocity=127 time=0.015625\n",
      "note_on channel=0 note=60 velocity=127 time=0.004166666666666667\n",
      "note_off channel=0 note=60 velocity=127 time=0.019791666666666666\n",
      "note_on channel=0 note=61 velocity=127 time=0.03125\n",
      "note_off channel=0 note=61 velocity=127 time=0.019791666666666666\n",
      "note_on channel=0 note=62 velocity=127 time=0.02395833333333333\n",
      "note_on channel=0 note=60 velocity=127 time=0.005208333333333333\n",
      "note_off channel=0 note=62 velocity=127 time=0.014583333333333334\n",
      "note_off channel=0 note=60 velocity=127 time=0.005208333333333333\n",
      "note_on channel=0 note=61 velocity=127 time=0.00625\n",
      "note_off channel=0 note=61 velocity=127 time=0.019791666666666666\n",
      "note_on channel=0 note=60 velocity=127 time=0.05416666666666667\n",
      "note_on channel=0 note=61 velocity=127 time=0.0010416666666666667\n",
      "note_off channel=0 note=60 velocity=127 time=0.01875\n",
      "note_off channel=0 note=61 velocity=127 time=0.0010416666666666667\n",
      "note_on channel=0 note=62 velocity=127 time=0.008333333333333333\n",
      "note_off channel=0 note=62 velocity=127 time=0.019791666666666666\n",
      "note_on channel=0 note=61 velocity=127 time=0.027083333333333334\n",
      "note_off channel=0 note=61 velocity=127 time=0.019791666666666666\n",
      "note_on channel=0 note=60 velocity=127 time=0.004166666666666667\n",
      "note_off channel=0 note=60 velocity=127 time=0.019791666666666666\n",
      "note_on channel=0 note=61 velocity=127 time=0.03125\n",
      "note_on channel=0 note=62 velocity=127 time=0.013541666666666667\n",
      "note_off channel=0 note=61 velocity=127 time=0.00625\n",
      "note_off channel=0 note=62 velocity=127 time=0.013541666666666667\n",
      "note_on channel=0 note=60 velocity=127 time=0.015625\n",
      "note_off channel=0 note=60 velocity=127 time=0.019791666666666666\n",
      "note_on channel=0 note=61 velocity=127 time=0.007291666666666667\n",
      "note_off channel=0 note=61 velocity=127 time=0.019791666666666666\n",
      "note_on channel=0 note=62 velocity=127 time=0.053125\n",
      "note_on channel=0 note=60 velocity=127 time=0\n",
      "note_on channel=0 note=61 velocity=127 time=0.0020833333333333333\n",
      "note_off channel=0 note=62 velocity=127 time=0.017708333333333333\n",
      "note_off channel=0 note=60 velocity=127 time=0\n",
      "note_off channel=0 note=61 velocity=127 time=0.0020833333333333333\n",
      "note_on channel=0 note=61 velocity=127 time=0.05520833333333333\n",
      "note_off channel=0 note=61 velocity=127 time=0.019791666666666666\n",
      "note_on channel=0 note=60 velocity=127 time=0.003125\n",
      "note_off channel=0 note=60 velocity=127 time=0.019791666666666666\n",
      "note_on channel=0 note=62 velocity=127 time=0.015625\n",
      "note_on channel=0 note=61 velocity=127 time=0.017708333333333333\n",
      "note_off channel=0 note=62 velocity=127 time=0.0020833333333333333\n",
      "note_off channel=0 note=61 velocity=127 time=0.017708333333333333\n",
      "note_on channel=0 note=60 velocity=127 time=0.028125\n",
      "note_off channel=0 note=60 velocity=127 time=0.019791666666666666\n",
      "note_on channel=0 note=61 velocity=127 time=0.007291666666666667\n",
      "note_off channel=0 note=61 velocity=127 time=0.019791666666666666\n",
      "note_on channel=0 note=62 velocity=127 time=0.022916666666666665\n",
      "note_off channel=0 note=62 velocity=127 time=0.019791666666666666\n",
      "note_on channel=0 note=60 velocity=127 time=0.009375\n",
      "note_on channel=0 note=61 velocity=127 time=0.003125\n",
      "note_off channel=0 note=60 velocity=127 time=0.016666666666666666\n",
      "note_off channel=0 note=61 velocity=127 time=0.003125\n",
      "note_on channel=0 note=61 velocity=127 time=0.05520833333333333\n",
      "note_off channel=0 note=61 velocity=127 time=0.019791666666666666\n",
      "note_on channel=0 note=60 velocity=127 time=0.0020833333333333333\n",
      "note_on channel=0 note=62 velocity=127 time=0.005208333333333333\n",
      "note_off channel=0 note=60 velocity=127 time=0.014583333333333334\n",
      "note_off channel=0 note=62 velocity=127 time=0.005208333333333333\n",
      "note_on channel=0 note=61 velocity=127 time=0.028125\n",
      "note_off channel=0 note=61 velocity=127 time=0.019791666666666666\n",
      "note_on channel=0 note=60 velocity=127 time=0.027083333333333334\n",
      "note_off channel=0 note=60 velocity=127 time=0.019791666666666666\n",
      "note_on channel=0 note=61 velocity=127 time=0.008333333333333333\n",
      "note_on channel=0 note=62 velocity=127 time=0.011458333333333333\n",
      "note_off channel=0 note=61 velocity=127 time=0.008333333333333333\n",
      "note_off channel=0 note=62 velocity=127 time=0.011458333333333333\n",
      "note_on channel=0 note=60 velocity=127 time=0.03958333333333333\n",
      "note_on channel=0 note=61 velocity=127 time=0.004166666666666667\n",
      "note_off channel=0 note=60 velocity=127 time=0.015625\n",
      "note_off channel=0 note=61 velocity=127 time=0.004166666666666667\n",
      "note_on channel=0 note=62 velocity=127 time=0.052083333333333336\n",
      "\u001b[91m [DEBUG] > \u001b[0m\n",
      " |>  to_array: msg.time > max_t; t, n\n",
      " |>  3.0406250000000017\n",
      " |>  150\n",
      "note_on channel=0 note=61 velocity=127 time=0.03125\n",
      "note_off channel=0 note=61 velocity=127 time=0.019791666666666666\n",
      "note_on channel=0 note=62 velocity=127 time=0.003125\n",
      "note_off channel=0 note=62 velocity=127 time=0.019791666666666666\n",
      "note_on channel=0 note=61 velocity=127 time=0.065625\n",
      "note_off channel=0 note=61 velocity=127 time=0.019791666666666666\n",
      "note_on channel=0 note=60 velocity=127 time=0.011458333333333333\n",
      "note_off channel=0 note=60 velocity=127 time=0.019791666666666666\n",
      "note_on channel=0 note=61 velocity=127 time=0.057291666666666664\n",
      "note_off channel=0 note=61 velocity=127 time=0.019791666666666666\n",
      "note_on channel=0 note=62 velocity=127 time=0.04791666666666666\n",
      "note_off channel=0 note=62 velocity=127 time=0.019791666666666666\n",
      "note_on channel=0 note=60 velocity=127 time=0.019791666666666666\n",
      "note_on channel=0 note=61 velocity=127 time=0.0010416666666666667\n",
      "note_off channel=0 note=60 velocity=127 time=0.01875\n",
      "note_off channel=0 note=61 velocity=127 time=0.0010416666666666667\n",
      "note_on channel=0 note=61 velocity=127 time=0.08958333333333333\n",
      "note_off channel=0 note=61 velocity=127 time=0.019791666666666666\n",
      "note_on channel=0 note=60 velocity=127 time=0.05520833333333333\n",
      "note_off channel=0 note=60 velocity=127 time=0.019791666666666666\n",
      "note_on channel=0 note=61 velocity=127 time=0.013541666666666667\n",
      "note_on channel=0 note=62 velocity=127 time=0.004166666666666667\n",
      "note_off channel=0 note=61 velocity=127 time=0.016666666666666666\n",
      "note_off channel=0 note=62 velocity=127 time=0.004166666666666667\n",
      "note_on channel=0 note=61 velocity=127 time=0.08541666666666667\n",
      "note_off channel=0 note=61 velocity=127 time=0.019791666666666666\n",
      "note_on channel=0 note=60 velocity=127 time=0.022916666666666665\n",
      "note_off channel=0 note=60 velocity=127 time=0.019791666666666666\n",
      "note_on channel=0 note=61 velocity=127 time=0.046875\n",
      "note_off channel=0 note=61 velocity=127 time=0.019791666666666666\n",
      "note_on channel=0 note=62 velocity=127 time=0.028125\n",
      "note_off channel=0 note=62 velocity=127 time=0.019791666666666666\n",
      "note_on channel=0 note=61 velocity=127 time=0.040625\n",
      "note_on channel=0 note=60 velocity=127 time=0.010416666666666666\n",
      "note_off channel=0 note=61 velocity=127 time=0.010416666666666666\n",
      "note_off channel=0 note=60 velocity=127 time=0.010416666666666666\n",
      "note_on channel=0 note=61 velocity=127 time=0.07916666666666666\n",
      "note_off channel=0 note=61 velocity=127 time=0.019791666666666666\n",
      "note_on channel=0 note=60 velocity=127 time=0.06666666666666667\n",
      "note_on channel=0 note=62 velocity=127 time=0.007291666666666667\n",
      "note_off channel=0 note=60 velocity=127 time=0.013541666666666667\n",
      "note_on channel=0 note=61 velocity=127 time=0.003125\n",
      "note_off channel=0 note=62 velocity=127 time=0.004166666666666667\n",
      "note_off channel=0 note=61 velocity=127 time=0.015625\n",
      "note_on channel=0 note=61 velocity=127 time=0.08958333333333333\n",
      "note_off channel=0 note=61 velocity=127 time=0.019791666666666666\n",
      "note_on channel=0 note=60 velocity=127 time=0.03333333333333333\n",
      "note_off channel=0 note=60 velocity=127 time=0.019791666666666666\n",
      "note_on channel=0 note=61 velocity=127 time=0.035416666666666666\n",
      "note_off channel=0 note=61 velocity=127 time=0.019791666666666666\n",
      "note_on channel=0 note=62 velocity=127 time=0.009375\n",
      "note_off channel=0 note=62 velocity=127 time=0.019791666666666666\n",
      "note_on channel=0 note=61 velocity=127 time=0.06041666666666667\n",
      "note_off channel=0 note=61 velocity=127 time=0.019791666666666666\n",
      "note_on channel=0 note=60 velocity=127 time=0.0010416666666666667\n",
      "note_off channel=0 note=60 velocity=127 time=0.019791666666666666\n",
      "note_on channel=0 note=61 velocity=127 time=0.06770833333333333\n",
      "note_off channel=0 note=61 velocity=127 time=0.019791666666666666\n",
      "note_on channel=0 note=62 velocity=127 time=0.053125\n",
      "note_off channel=0 note=62 velocity=127 time=0.019791666666666666\n",
      "note_on channel=0 note=60 velocity=127 time=0.004166666666666667\n",
      "note_on channel=0 note=61 velocity=127 time=0.011458333333333333\n",
      "note_off channel=0 note=60 velocity=127 time=0.008333333333333333\n",
      "note_off channel=0 note=61 velocity=127 time=0.011458333333333333\n",
      "note_on channel=0 note=61 velocity=127 time=0.08958333333333333\n",
      "note_off channel=0 note=61 velocity=127 time=0.019791666666666666\n",
      "note_on channel=0 note=60 velocity=127 time=0.04479166666666667\n",
      "note_off channel=0 note=60 velocity=127 time=0.019791666666666666\n",
      "note_on channel=0 note=61 velocity=127 time=0.02395833333333333\n",
      "note_on channel=0 note=62 velocity=127 time=0.009375\n",
      "note_off channel=0 note=61 velocity=127 time=0.010416666666666666\n",
      "note_off channel=0 note=62 velocity=127 time=0.009375\n",
      "note_on channel=0 note=61 velocity=127 time=0.08020833333333333\n",
      "note_off channel=0 note=61 velocity=127 time=0.019791666666666666\n",
      "note_on channel=0 note=60 velocity=127 time=0.011458333333333333\n",
      "note_off channel=0 note=60 velocity=127 time=0.019791666666666666\n",
      "note_on channel=0 note=61 velocity=127 time=0.057291666666666664\n",
      "note_off channel=0 note=61 velocity=127 time=0.019791666666666666\n",
      "note_on channel=0 note=62 velocity=127 time=0.034375\n",
      "note_off channel=0 note=62 velocity=127 time=0.019791666666666666\n",
      "note_on channel=0 note=60 velocity=127 time=0.034375\n",
      "note_on channel=0 note=61 velocity=127 time=0.0010416666666666667\n",
      "note_off channel=0 note=60 velocity=127 time=0.01875\n",
      "note_off channel=0 note=61 velocity=127 time=0.0010416666666666667\n",
      "note_on channel=0 note=61 velocity=127 time=0.08958333333333333\n",
      "note_off channel=0 note=61 velocity=127 time=0.019791666666666666\n",
      "note_on channel=0 note=60 velocity=127 time=0.05520833333333333\n",
      "note_off channel=0 note=60 velocity=127 time=0.019791666666666666\n",
      "note_on channel=0 note=62 velocity=127 time=0.003125\n",
      "note_on channel=0 note=61 velocity=127 time=0.010416666666666666\n",
      "note_off channel=0 note=62 velocity=127 time=0.009375\n",
      "note_off channel=0 note=61 velocity=127 time=0.010416666666666666\n",
      "note_on channel=0 note=61 velocity=127 time=0.08958333333333333\n",
      "note_off channel=0 note=61 velocity=127 time=0.019791666666666666\n",
      "note_on channel=0 note=60 velocity=127 time=0.022916666666666665\n",
      "note_off channel=0 note=60 velocity=127 time=0.019791666666666666\n",
      "note_on channel=0 note=61 velocity=127 time=0.04583333333333333\n",
      "note_off channel=0 note=61 velocity=127 time=0.019791666666666666\n",
      "note_on channel=0 note=62 velocity=127 time=0.014583333333333334\n",
      "note_off channel=0 note=62 velocity=127 time=0.019791666666666666\n",
      "note_on channel=0 note=61 velocity=127 time=0.05520833333333333\n",
      "note_on channel=0 note=60 velocity=127 time=0.010416666666666666\n",
      "note_off channel=0 note=61 velocity=127 time=0.009375\n",
      "note_off channel=0 note=60 velocity=127 time=0.010416666666666666\n",
      "note_on channel=0 note=61 velocity=127 time=0.07916666666666666\n",
      "note_off channel=0 note=61 velocity=127 time=0.019791666666666666\n",
      "note_on channel=0 note=62 velocity=127 time=0.059375\n",
      "note_on channel=0 note=60 velocity=127 time=0.007291666666666667\n",
      "note_off channel=0 note=62 velocity=127 time=0.0125\n",
      "note_off channel=0 note=60 velocity=127 time=0.007291666666666667\n",
      "note_on channel=0 note=61 velocity=127 time=0.0020833333333333333\n",
      "note_off channel=0 note=61 velocity=127 time=0.019791666666666666\n",
      "\u001b[91m [DEBUG] > \u001b[0m\n",
      " |>  to_array: msg.time > max_t; t, n\n",
      " |>  2.9937499999999995\n",
      " |>  150\n",
      "note_on channel=0 note=62 velocity=127 time=0.014583333333333334\n",
      "note_on channel=0 note=60 velocity=127 time=0.017708333333333333\n",
      "note_off channel=0 note=62 velocity=127 time=0.0020833333333333333\n",
      "note_off channel=0 note=60 velocity=127 time=0.017708333333333333\n",
      "note_on channel=0 note=61 velocity=127 time=0.022916666666666665\n",
      "note_off channel=0 note=61 velocity=127 time=0.019791666666666666\n",
      "note_on channel=0 note=60 velocity=127 time=0.028125\n",
      "note_off channel=0 note=60 velocity=127 time=0.019791666666666666\n",
      "note_on channel=0 note=62 velocity=127 time=0.0010416666666666667\n",
      "note_off channel=0 note=62 velocity=127 time=0.019791666666666666\n",
      "note_on channel=0 note=60 velocity=127 time=0.05\n",
      "note_on channel=0 note=61 velocity=127 time=0.0020833333333333333\n",
      "note_off channel=0 note=60 velocity=127 time=0.017708333333333333\n",
      "note_off channel=0 note=61 velocity=127 time=0.0020833333333333333\n",
      "note_on channel=0 note=62 velocity=127 time=0.03854166666666667\n",
      "note_off channel=0 note=62 velocity=127 time=0.019791666666666666\n",
      "note_on channel=0 note=60 velocity=127 time=0.010416666666666666\n",
      "note_off channel=0 note=60 velocity=127 time=0.019791666666666666\n",
      "note_on channel=0 note=61 velocity=127 time=0.03229166666666666\n",
      "note_off channel=0 note=61 velocity=127 time=0.019791666666666666\n",
      "note_on channel=0 note=60 velocity=127 time=0.01875\n",
      "note_on channel=0 note=62 velocity=127 time=0.008333333333333333\n",
      "note_off channel=0 note=60 velocity=127 time=0.011458333333333333\n",
      "note_off channel=0 note=62 velocity=127 time=0.008333333333333333\n",
      "note_on channel=0 note=60 velocity=127 time=0.0625\n",
      "note_on channel=0 note=61 velocity=127 time=0.011458333333333333\n",
      "note_off channel=0 note=60 velocity=127 time=0.008333333333333333\n",
      "note_off channel=0 note=61 velocity=127 time=0.011458333333333333\n",
      "note_on channel=0 note=62 velocity=127 time=0.015625\n",
      "note_off channel=0 note=62 velocity=127 time=0.019791666666666666\n",
      "note_on channel=0 note=60 velocity=127 time=0.02395833333333333\n",
      "note_off channel=0 note=60 velocity=127 time=0.019791666666666666\n",
      "note_on channel=0 note=61 velocity=127 time=0.041666666666666664\n",
      "note_off channel=0 note=61 velocity=127 time=0.019791666666666666\n",
      "note_on channel=0 note=62 velocity=127 time=0.004166666666666667\n",
      "note_on channel=0 note=60 velocity=127 time=0.005208333333333333\n",
      "note_off channel=0 note=62 velocity=127 time=0.014583333333333334\n",
      "note_off channel=0 note=60 velocity=127 time=0.005208333333333333\n",
      "note_on channel=0 note=60 velocity=127 time=0.07083333333333333\n",
      "note_off channel=0 note=60 velocity=127 time=0.019791666666666666\n",
      "note_on channel=0 note=61 velocity=127 time=0.0010416666666666667\n",
      "note_on channel=0 note=62 velocity=127 time=0.0125\n",
      "note_off channel=0 note=61 velocity=127 time=0.007291666666666667\n",
      "note_off channel=0 note=62 velocity=127 time=0.0125\n",
      "note_on channel=0 note=60 velocity=127 time=0.0375\n",
      "note_off channel=0 note=60 velocity=127 time=0.019791666666666666\n",
      "note_on channel=0 note=61 velocity=127 time=0.051041666666666666\n",
      "note_on channel=0 note=62 velocity=127 time=0.0010416666666666667\n",
      "note_on channel=0 note=60 velocity=127 time=0.01875\n",
      "note_off channel=0 note=61 velocity=127 time=0\n",
      "note_off channel=0 note=62 velocity=127 time=0.0010416666666666667\n",
      "note_off channel=0 note=60 velocity=127 time=0.01875\n",
      "note_on channel=0 note=60 velocity=127 time=0.07083333333333333\n",
      "note_off channel=0 note=60 velocity=127 time=0.019791666666666666\n",
      "note_on channel=0 note=62 velocity=127 time=0\n",
      "note_on channel=0 note=61 velocity=127 time=0.010416666666666666\n",
      "note_off channel=0 note=62 velocity=127 time=0.009375\n",
      "note_off channel=0 note=61 velocity=127 time=0.010416666666666666\n",
      "note_on channel=0 note=60 velocity=127 time=0.040625\n",
      "note_off channel=0 note=60 velocity=127 time=0.019791666666666666\n",
      "note_on channel=0 note=62 velocity=127 time=0.03958333333333333\n",
      "note_off channel=0 note=62 velocity=127 time=0.019791666666666666\n",
      "note_on channel=0 note=61 velocity=127 time=0.0020833333333333333\n",
      "note_on channel=0 note=60 velocity=127 time=0.010416666666666666\n",
      "note_off channel=0 note=61 velocity=127 time=0.009375\n",
      "note_off channel=0 note=60 velocity=127 time=0.010416666666666666\n",
      "note_on channel=0 note=60 velocity=127 time=0.07083333333333333\n",
      "note_on channel=0 note=62 velocity=127 time=0.007291666666666667\n",
      "note_off channel=0 note=60 velocity=127 time=0.013541666666666667\n",
      "note_off channel=0 note=62 velocity=127 time=0.007291666666666667\n",
      "note_on channel=0 note=61 velocity=127 time=0.013541666666666667\n",
      "note_off channel=0 note=61 velocity=127 time=0.019791666666666666\n",
      "note_on channel=0 note=60 velocity=127 time=0.03125\n",
      "note_off channel=0 note=60 velocity=127 time=0.019791666666666666\n",
      "note_on channel=0 note=62 velocity=127 time=0.026041666666666668\n",
      "note_off channel=0 note=62 velocity=127 time=0.019791666666666666\n",
      "note_on channel=0 note=61 velocity=127 time=0.025\n",
      "note_on channel=0 note=60 velocity=127 time=0.0010416666666666667\n",
      "note_off channel=0 note=61 velocity=127 time=0.019791666666666666\n",
      "note_off channel=0 note=60 velocity=127 time=0.0010416666666666667\n",
      "note_on channel=0 note=62 velocity=127 time=0.06458333333333333\n",
      "note_on channel=0 note=60 velocity=127 time=0.00625\n",
      "note_off channel=0 note=62 velocity=127 time=0.013541666666666667\n",
      "note_off channel=0 note=60 velocity=127 time=0.00625\n",
      "note_on channel=0 note=61 velocity=127 time=0.029166666666666667\n",
      "note_off channel=0 note=61 velocity=127 time=0.019791666666666666\n",
      "note_on channel=0 note=60 velocity=127 time=0.021875\n",
      "note_off channel=0 note=60 velocity=127 time=0.019791666666666666\n",
      "note_on channel=0 note=62 velocity=127 time=0.0125\n",
      "note_off channel=0 note=62 velocity=127 time=0.019791666666666666\n",
      "note_on channel=0 note=60 velocity=127 time=0.03854166666666667\n",
      "note_on channel=0 note=61 velocity=127 time=0.008333333333333333\n",
      "note_off channel=0 note=60 velocity=127 time=0.011458333333333333\n",
      "note_off channel=0 note=61 velocity=127 time=0.008333333333333333\n",
      "note_on channel=0 note=62 velocity=127 time=0.042708333333333334\n",
      "note_on channel=0 note=60 velocity=127 time=0.019791666666666666\n",
      "note_off channel=0 note=62 velocity=127 time=0\n",
      "note_off channel=0 note=60 velocity=127 time=0.019791666666666666\n",
      "note_on channel=0 note=61 velocity=127 time=0.03958333333333333\n",
      "note_off channel=0 note=61 velocity=127 time=0.019791666666666666\n",
      "note_on channel=0 note=60 velocity=127 time=0.011458333333333333\n",
      "note_on channel=0 note=62 velocity=127 time=0.01875\n",
      "note_off channel=0 note=60 velocity=127 time=0.0010416666666666667\n",
      "note_off channel=0 note=62 velocity=127 time=0.01875\n",
      "note_on channel=0 note=60 velocity=127 time=0.052083333333333336\n",
      "note_on channel=0 note=61 velocity=127 time=0.01875\n",
      "note_off channel=0 note=60 velocity=127 time=0.0020833333333333333\n",
      "note_off channel=0 note=61 velocity=127 time=0.01875\n",
      "note_on channel=0 note=62 velocity=127 time=0.019791666666666666\n",
      "note_off channel=0 note=62 velocity=127 time=0.019791666666666666\n",
      "note_on channel=0 note=60 velocity=127 time=0.013541666666666667\n",
      "note_off channel=0 note=60 velocity=127 time=0.019791666666666666\n",
      "note_on channel=0 note=61 velocity=127 time=0.04895833333333333\n",
      "note_off channel=0 note=61 velocity=127 time=0.019791666666666666\n",
      "note_on channel=0 note=60 velocity=127 time=0.0020833333333333333\n",
      "note_on channel=0 note=62 velocity=127 time=0.00625\n",
      "note_off channel=0 note=60 velocity=127 time=0.014583333333333334\n",
      "note_off channel=0 note=62 velocity=127 time=0.00625\n",
      "note_on channel=0 note=60 velocity=127 time=0.065625\n",
      "note_off channel=0 note=60 velocity=127 time=0.019791666666666666\n",
      "note_on channel=0 note=61 velocity=127 time=0.008333333333333333\n",
      "note_on channel=0 note=62 velocity=127 time=0.016666666666666666\n",
      "note_off channel=0 note=61 velocity=127 time=0.003125\n",
      "note_off channel=0 note=62 velocity=127 time=0.016666666666666666\n",
      "note_on channel=0 note=60 velocity=127 time=0.026041666666666668\n",
      "note_off channel=0 note=60 velocity=127 time=0.019791666666666666\n",
      "note_on channel=0 note=61 velocity=127 time=0.058333333333333334\n",
      "note_on channel=0 note=62 velocity=127 time=0.005208333333333333\n",
      "note_on channel=0 note=60 velocity=127 time=0.007291666666666667\n",
      "note_off channel=0 note=61 velocity=127 time=0.007291666666666667\n",
      "note_off channel=0 note=62 velocity=127 time=0.005208333333333333\n",
      "note_off channel=0 note=60 velocity=127 time=0.007291666666666667\n",
      "note_on channel=0 note=60 velocity=127 time=0.07083333333333333\n",
      "note_off channel=0 note=60 velocity=127 time=0.019791666666666666\n",
      "note_on channel=0 note=62 velocity=127 time=0.011458333333333333\n",
      "note_on channel=0 note=61 velocity=127 time=0.00625\n",
      "note_off channel=0 note=62 velocity=127 time=0.013541666666666667\n",
      "note_off channel=0 note=61 velocity=127 time=0.00625\n",
      "note_on channel=0 note=60 velocity=127 time=0.03333333333333333\n",
      "note_off channel=0 note=60 velocity=127 time=0.019791666666666666\n",
      "note_on channel=0 note=62 velocity=127 time=0.05\n",
      "note_on channel=0 note=61 velocity=127 time=0.017708333333333333\n",
      "note_off channel=0 note=62 velocity=127 time=0.0020833333333333333\n",
      "note_on channel=0 note=60 velocity=127 time=0.0010416666666666667\n",
      "note_off channel=0 note=61 velocity=127 time=0.016666666666666666\n",
      "note_off channel=0 note=60 velocity=127 time=0.003125\n",
      "note_on channel=0 note=60 velocity=127 time=0.07083333333333333\n",
      "note_on channel=0 note=62 velocity=127 time=0.017708333333333333\n",
      "note_off channel=0 note=60 velocity=127 time=0.0020833333333333333\n",
      "note_off channel=0 note=62 velocity=127 time=0.017708333333333333\n",
      "note_on channel=0 note=61 velocity=127 time=0.009375\n",
      "note_off channel=0 note=61 velocity=127 time=0.019791666666666666\n",
      "note_on channel=0 note=60 velocity=127 time=0.02395833333333333\n",
      "note_off channel=0 note=60 velocity=127 time=0.019791666666666666\n",
      "note_on channel=0 note=62 velocity=127 time=0.036458333333333336\n",
      "\u001b[91m [DEBUG] > \u001b[0m\n",
      " |>  to_array: msg.time > max_t; t, n\n",
      " |>  2.997916666666667\n",
      " |>  150\n",
      "note_on channel=0 note=62 velocity=127 time=0.009375\n",
      "note_off channel=0 note=62 velocity=127 time=0.019791666666666666\n",
      "note_on channel=0 note=61 velocity=127 time=0.011458333333333333\n",
      "note_off channel=0 note=61 velocity=127 time=0.019791666666666666\n",
      "note_on channel=0 note=60 velocity=127 time=0.030208333333333334\n",
      "note_off channel=0 note=60 velocity=127 time=0.019791666666666666\n",
      "note_on channel=0 note=61 velocity=127 time=0.004166666666666667\n",
      "note_off channel=0 note=61 velocity=127 time=0.019791666666666666\n",
      "note_on channel=0 note=62 velocity=127 time=0.029166666666666667\n",
      "note_off channel=0 note=62 velocity=127 time=0.019791666666666666\n",
      "note_on channel=0 note=61 velocity=127 time=0.005208333333333333\n",
      "note_off channel=0 note=61 velocity=127 time=0.019791666666666666\n",
      "note_on channel=0 note=61 velocity=127 time=0.05416666666666667\n",
      "note_on channel=0 note=60 velocity=127 time=0.013541666666666667\n",
      "note_off channel=0 note=61 velocity=127 time=0.007291666666666667\n",
      "note_off channel=0 note=60 velocity=127 time=0.013541666666666667\n",
      "note_on channel=0 note=62 velocity=127 time=0.021875\n",
      "note_on channel=0 note=61 velocity=127 time=0.01875\n",
      "note_off channel=0 note=62 velocity=127 time=0.0010416666666666667\n",
      "note_off channel=0 note=61 velocity=127 time=0.01875\n",
      "note_on channel=0 note=61 velocity=127 time=0.05416666666666667\n",
      "note_off channel=0 note=61 velocity=127 time=0.019791666666666666\n",
      "note_on channel=0 note=60 velocity=127 time=0.030208333333333334\n",
      "note_on channel=0 note=62 velocity=127 time=0.010416666666666666\n",
      "note_off channel=0 note=60 velocity=127 time=0.009375\n",
      "note_on channel=0 note=61 velocity=127 time=0.004166666666666667\n",
      "note_off channel=0 note=62 velocity=127 time=0.007291666666666667\n",
      "note_off channel=0 note=61 velocity=127 time=0.013541666666666667\n",
      "note_on channel=0 note=61 velocity=127 time=0.05416666666666667\n",
      "note_off channel=0 note=61 velocity=127 time=0.019791666666666666\n",
      "note_on channel=0 note=62 velocity=127 time=0.046875\n",
      "note_on channel=0 note=61 velocity=127 time=0.007291666666666667\n",
      "note_on channel=0 note=60 velocity=127 time=0.0125\n",
      "note_off channel=0 note=62 velocity=127 time=0\n",
      "note_off channel=0 note=61 velocity=127 time=0.007291666666666667\n",
      "note_off channel=0 note=60 velocity=127 time=0.0125\n",
      "note_on channel=0 note=61 velocity=127 time=0.040625\n",
      "note_off channel=0 note=61 velocity=127 time=0.019791666666666666\n",
      "note_on channel=0 note=62 velocity=127 time=0.053125\n",
      "note_on channel=0 note=61 velocity=127 time=0.0010416666666666667\n",
      "note_off channel=0 note=62 velocity=127 time=0.01875\n",
      "note_off channel=0 note=61 velocity=127 time=0.0010416666666666667\n",
      "note_on channel=0 note=60 velocity=127 time=0.030208333333333334\n",
      "note_off channel=0 note=60 velocity=127 time=0.019791666666666666\n",
      "note_on channel=0 note=61 velocity=127 time=0.004166666666666667\n",
      "note_off channel=0 note=61 velocity=127 time=0.019791666666666666\n",
      "note_on channel=0 note=61 velocity=127 time=0.05416666666666667\n",
      "note_on channel=0 note=62 velocity=127 time=0.005208333333333333\n",
      "note_off channel=0 note=61 velocity=127 time=0.014583333333333334\n",
      "note_off channel=0 note=62 velocity=127 time=0.005208333333333333\n",
      "note_on channel=0 note=61 velocity=127 time=0.04895833333333333\n",
      "note_on channel=0 note=60 velocity=127 time=0.0125\n",
      "note_off channel=0 note=61 velocity=127 time=0.007291666666666667\n",
      "note_off channel=0 note=60 velocity=127 time=0.0125\n",
      "note_on channel=0 note=61 velocity=127 time=0.040625\n",
      "note_on channel=0 note=62 velocity=127 time=0.011458333333333333\n",
      "note_off channel=0 note=61 velocity=127 time=0.008333333333333333\n",
      "note_off channel=0 note=62 velocity=127 time=0.011458333333333333\n",
      "note_on channel=0 note=61 velocity=127 time=0.042708333333333334\n",
      "note_off channel=0 note=61 velocity=127 time=0.019791666666666666\n",
      "note_on channel=0 note=60 velocity=127 time=0.030208333333333334\n",
      "note_off channel=0 note=60 velocity=127 time=0.019791666666666666\n",
      "note_on channel=0 note=61 velocity=127 time=0.004166666666666667\n",
      "note_on channel=0 note=62 velocity=127 time=0.017708333333333333\n",
      "note_off channel=0 note=61 velocity=127 time=0.0020833333333333333\n",
      "note_off channel=0 note=62 velocity=127 time=0.017708333333333333\n",
      "note_on channel=0 note=61 velocity=127 time=0.036458333333333336\n",
      "note_off channel=0 note=61 velocity=127 time=0.019791666666666666\n",
      "note_on channel=0 note=61 velocity=127 time=0.05416666666666667\n",
      "note_on channel=0 note=60 velocity=127 time=0.0125\n",
      "note_off channel=0 note=61 velocity=127 time=0.007291666666666667\n",
      "note_on channel=0 note=62 velocity=127 time=0.003125\n",
      "note_off channel=0 note=60 velocity=127 time=0.009375\n",
      "note_off channel=0 note=62 velocity=127 time=0.010416666666666666\n",
      "note_on channel=0 note=61 velocity=127 time=0.030208333333333334\n",
      "note_off channel=0 note=61 velocity=127 time=0.019791666666666666\n",
      "note_on channel=0 note=61 velocity=127 time=0.05416666666666667\n",
      "note_off channel=0 note=61 velocity=127 time=0.019791666666666666\n",
      "note_on channel=0 note=62 velocity=127 time=0.009375\n",
      "note_off channel=0 note=62 velocity=127 time=0.019791666666666666\n",
      "note_on channel=0 note=60 velocity=127 time=0\n",
      "note_off channel=0 note=60 velocity=127 time=0.019791666666666666\n",
      "note_on channel=0 note=61 velocity=127 time=0.004166666666666667\n",
      "note_off channel=0 note=61 velocity=127 time=0.019791666666666666\n",
      "note_on channel=0 note=61 velocity=127 time=0.05416666666666667\n",
      "note_off channel=0 note=61 velocity=127 time=0.019791666666666666\n",
      "note_on channel=0 note=62 velocity=127 time=0.015625\n",
      "note_off channel=0 note=62 velocity=127 time=0.019791666666666666\n",
      "note_on channel=0 note=61 velocity=127 time=0.017708333333333333\n",
      "note_on channel=0 note=60 velocity=127 time=0.0125\n",
      "note_off channel=0 note=61 velocity=127 time=0.007291666666666667\n",
      "note_off channel=0 note=60 velocity=127 time=0.0125\n",
      "note_on channel=0 note=61 velocity=127 time=0.040625\n",
      "note_off channel=0 note=61 velocity=127 time=0.019791666666666666\n",
      "note_on channel=0 note=62 velocity=127 time=0.021875\n",
      "note_off channel=0 note=62 velocity=127 time=0.019791666666666666\n",
      "note_on channel=0 note=61 velocity=127 time=0.0125\n",
      "note_off channel=0 note=61 velocity=127 time=0.019791666666666666\n",
      "note_on channel=0 note=60 velocity=127 time=0.030208333333333334\n",
      "note_off channel=0 note=60 velocity=127 time=0.019791666666666666\n",
      "note_on channel=0 note=61 velocity=127 time=0.004166666666666667\n",
      "note_off channel=0 note=61 velocity=127 time=0.019791666666666666\n",
      "note_on channel=0 note=62 velocity=127 time=0.028125\n",
      "note_off channel=0 note=62 velocity=127 time=0.019791666666666666\n",
      "note_on channel=0 note=61 velocity=127 time=0.00625\n",
      "note_off channel=0 note=61 velocity=127 time=0.019791666666666666\n",
      "note_on channel=0 note=61 velocity=127 time=0.05416666666666667\n",
      "note_on channel=0 note=60 velocity=127 time=0.0125\n",
      "note_off channel=0 note=61 velocity=127 time=0.007291666666666667\n",
      "note_off channel=0 note=60 velocity=127 time=0.0125\n",
      "note_on channel=0 note=62 velocity=127 time=0.020833333333333332\n",
      "note_on channel=0 note=61 velocity=127 time=0.019791666666666666\n",
      "note_off channel=0 note=62 velocity=127 time=0\n",
      "note_off channel=0 note=61 velocity=127 time=0.019791666666666666\n",
      "note_on channel=0 note=61 velocity=127 time=0.05416666666666667\n",
      "note_off channel=0 note=61 velocity=127 time=0.019791666666666666\n",
      "note_on channel=0 note=60 velocity=127 time=0.029166666666666667\n",
      "note_on channel=0 note=62 velocity=127 time=0.010416666666666666\n",
      "note_off channel=0 note=60 velocity=127 time=0.009375\n",
      "note_on channel=0 note=61 velocity=127 time=0.004166666666666667\n",
      "note_off channel=0 note=62 velocity=127 time=0.00625\n",
      "note_off channel=0 note=61 velocity=127 time=0.013541666666666667\n",
      "note_on channel=0 note=61 velocity=127 time=0.05416666666666667\n",
      "note_off channel=0 note=61 velocity=127 time=0.019791666666666666\n",
      "note_on channel=0 note=62 velocity=127 time=0.04583333333333333\n",
      "note_on channel=0 note=61 velocity=127 time=0.007291666666666667\n",
      "note_off channel=0 note=62 velocity=127 time=0.0125\n",
      "note_on channel=0 note=60 velocity=127 time=0\n",
      "note_off channel=0 note=61 velocity=127 time=0.007291666666666667\n",
      "note_off channel=0 note=60 velocity=127 time=0.0125\n",
      "note_on channel=0 note=61 velocity=127 time=0.040625\n",
      "note_off channel=0 note=61 velocity=127 time=0.019791666666666666\n",
      "note_on channel=0 note=62 velocity=127 time=0.052083333333333336\n",
      "note_on channel=0 note=61 velocity=127 time=0.0020833333333333333\n",
      "note_off channel=0 note=62 velocity=127 time=0.01875\n",
      "note_off channel=0 note=61 velocity=127 time=0.0020833333333333333\n",
      "note_on channel=0 note=60 velocity=127 time=0.029166666666666667\n",
      "note_off channel=0 note=60 velocity=127 time=0.019791666666666666\n",
      "note_on channel=0 note=61 velocity=127 time=0.004166666666666667\n",
      "note_off channel=0 note=61 velocity=127 time=0.019791666666666666\n",
      "note_on channel=0 note=61 velocity=127 time=0.05416666666666667\n",
      "note_on channel=0 note=62 velocity=127 time=0.004166666666666667\n",
      "note_off channel=0 note=61 velocity=127 time=0.015625\n",
      "note_off channel=0 note=62 velocity=127 time=0.004166666666666667\n",
      "note_on channel=0 note=61 velocity=127 time=0.04895833333333333\n",
      "note_on channel=0 note=60 velocity=127 time=0.0125\n",
      "note_off channel=0 note=61 velocity=127 time=0.007291666666666667\n",
      "note_off channel=0 note=60 velocity=127 time=0.0125\n",
      "note_on channel=0 note=61 velocity=127 time=0.041666666666666664\n",
      "note_on channel=0 note=62 velocity=127 time=0.010416666666666666\n",
      "note_off channel=0 note=61 velocity=127 time=0.009375\n",
      "note_off channel=0 note=62 velocity=127 time=0.010416666666666666\n",
      "note_on channel=0 note=61 velocity=127 time=0.04375\n",
      "note_off channel=0 note=61 velocity=127 time=0.019791666666666666\n",
      "\u001b[91m [DEBUG] > \u001b[0m\n",
      " |>  to_array: msg.time > max_t; t, n\n",
      " |>  3.009375000000004\n",
      " |>  150\n",
      "note_on channel=0 note=60 velocity=127 time=0.005208333333333333\n",
      "note_off channel=0 note=60 velocity=127 time=0.019791666666666666\n"
     ]
    },
    {
     "name": "stdout",
     "output_type": "stream",
     "text": [
      "note_on channel=0 note=60 velocity=127 time=0.046875\n",
      "note_on channel=0 note=61 velocity=127 time=0.0010416666666666667\n",
      "note_off channel=0 note=60 velocity=127 time=0.01875\n",
      "note_off channel=0 note=61 velocity=127 time=0.0010416666666666667\n",
      "note_on channel=0 note=60 velocity=127 time=0.04583333333333333\n",
      "note_on channel=0 note=61 velocity=127 time=0.011458333333333333\n",
      "note_off channel=0 note=60 velocity=127 time=0.008333333333333333\n",
      "note_off channel=0 note=61 velocity=127 time=0.011458333333333333\n",
      "note_on channel=0 note=60 velocity=127 time=0.035416666666666666\n",
      "note_on channel=0 note=62 velocity=127 time=0.009375\n",
      "note_off channel=0 note=60 velocity=127 time=0.010416666666666666\n",
      "note_on channel=0 note=61 velocity=127 time=0.0020833333333333333\n",
      "note_off channel=0 note=62 velocity=127 time=0.008333333333333333\n",
      "note_off channel=0 note=61 velocity=127 time=0.011458333333333333\n",
      "note_on channel=0 note=60 velocity=127 time=0.026041666666666668\n",
      "note_off channel=0 note=60 velocity=127 time=0.019791666666666666\n",
      "note_on channel=0 note=61 velocity=127 time=0.011458333333333333\n",
      "note_off channel=0 note=61 velocity=127 time=0.019791666666666666\n",
      "note_on channel=0 note=60 velocity=127 time=0.015625\n",
      "note_off channel=0 note=60 velocity=127 time=0.019791666666666666\n",
      "note_on channel=0 note=61 velocity=127 time=0.021875\n",
      "note_off channel=0 note=61 velocity=127 time=0.019791666666666666\n",
      "note_on channel=0 note=60 velocity=127 time=0.005208333333333333\n",
      "note_off channel=0 note=60 velocity=127 time=0.019791666666666666\n",
      "note_on channel=0 note=61 velocity=127 time=0.03229166666666666\n",
      "note_on channel=0 note=60 velocity=127 time=0.014583333333333334\n",
      "note_off channel=0 note=61 velocity=127 time=0.005208333333333333\n",
      "note_on channel=0 note=62 velocity=127 time=0.00625\n",
      "note_off channel=0 note=60 velocity=127 time=0.008333333333333333\n",
      "note_off channel=0 note=62 velocity=127 time=0.011458333333333333\n",
      "note_on channel=0 note=61 velocity=127 time=0.03125\n",
      "note_on channel=0 note=60 velocity=127 time=0.004166666666666667\n",
      "note_off channel=0 note=61 velocity=127 time=0.015625\n",
      "note_off channel=0 note=60 velocity=127 time=0.004166666666666667\n",
      "note_on channel=0 note=60 velocity=127 time=0.046875\n",
      "note_on channel=0 note=61 velocity=127 time=0.00625\n",
      "note_off channel=0 note=60 velocity=127 time=0.013541666666666667\n",
      "note_off channel=0 note=61 velocity=127 time=0.00625\n",
      "note_on channel=0 note=60 velocity=127 time=0.041666666666666664\n",
      "note_on channel=0 note=61 velocity=127 time=0.016666666666666666\n",
      "note_off channel=0 note=60 velocity=127 time=0.003125\n",
      "note_off channel=0 note=61 velocity=127 time=0.016666666666666666\n",
      "note_on channel=0 note=60 velocity=127 time=0.03125\n",
      "note_on channel=0 note=62 velocity=127 time=0.0125\n",
      "note_off channel=0 note=60 velocity=127 time=0.007291666666666667\n",
      "note_on channel=0 note=61 velocity=127 time=0.00625\n",
      "note_off channel=0 note=62 velocity=127 time=0.00625\n",
      "note_off channel=0 note=61 velocity=127 time=0.014583333333333334\n",
      "note_on channel=0 note=60 velocity=127 time=0.020833333333333332\n",
      "note_off channel=0 note=60 velocity=127 time=0.019791666666666666\n",
      "note_on channel=0 note=61 velocity=127 time=0.016666666666666666\n",
      "note_off channel=0 note=61 velocity=127 time=0.019791666666666666\n",
      "note_on channel=0 note=60 velocity=127 time=0.010416666666666666\n",
      "note_off channel=0 note=60 velocity=127 time=0.019791666666666666\n",
      "note_on channel=0 note=61 velocity=127 time=0.027083333333333334\n",
      "note_on channel=0 note=60 velocity=127 time=0.019791666666666666\n",
      "note_off channel=0 note=61 velocity=127 time=0\n",
      "note_off channel=0 note=60 velocity=127 time=0.019791666666666666\n",
      "note_on channel=0 note=61 velocity=127 time=0.0375\n",
      "note_on channel=0 note=60 velocity=127 time=0.009375\n",
      "note_off channel=0 note=61 velocity=127 time=0.010416666666666666\n",
      "note_on channel=0 note=62 velocity=127 time=0.003125\n",
      "note_off channel=0 note=60 velocity=127 time=0.00625\n",
      "note_off channel=0 note=62 velocity=127 time=0.013541666666666667\n",
      "note_on channel=0 note=60 velocity=127 time=0.03333333333333333\n",
      "note_on channel=0 note=61 velocity=127 time=0.0010416666666666667\n",
      "note_off channel=0 note=60 velocity=127 time=0.01875\n",
      "note_off channel=0 note=61 velocity=127 time=0.0010416666666666667\n",
      "note_on channel=0 note=60 velocity=127 time=0.046875\n",
      "note_on channel=0 note=61 velocity=127 time=0.011458333333333333\n",
      "note_off channel=0 note=60 velocity=127 time=0.009375\n",
      "note_off channel=0 note=61 velocity=127 time=0.011458333333333333\n",
      "note_on channel=0 note=60 velocity=127 time=0.036458333333333336\n",
      "note_off channel=0 note=60 velocity=127 time=0.019791666666666666\n",
      "note_on channel=0 note=61 velocity=127 time=0.0010416666666666667\n",
      "note_off channel=0 note=61 velocity=127 time=0.019791666666666666\n",
      "note_on channel=0 note=60 velocity=127 time=0.026041666666666668\n",
      "note_on channel=0 note=62 velocity=127 time=0.015625\n",
      "note_off channel=0 note=60 velocity=127 time=0.004166666666666667\n",
      "note_on channel=0 note=61 velocity=127 time=0.011458333333333333\n",
      "note_off channel=0 note=62 velocity=127 time=0.003125\n",
      "note_off channel=0 note=61 velocity=127 time=0.016666666666666666\n",
      "note_on channel=0 note=60 velocity=127 time=0.015625\n",
      "note_off channel=0 note=60 velocity=127 time=0.019791666666666666\n",
      "note_on channel=0 note=61 velocity=127 time=0.021875\n",
      "note_off channel=0 note=61 velocity=127 time=0.019791666666666666\n",
      "note_on channel=0 note=60 velocity=127 time=0.005208333333333333\n",
      "note_off channel=0 note=60 velocity=127 time=0.019791666666666666\n",
      "note_on channel=0 note=61 velocity=127 time=0.03229166666666666\n",
      "note_on channel=0 note=60 velocity=127 time=0.014583333333333334\n",
      "note_off channel=0 note=61 velocity=127 time=0.005208333333333333\n",
      "note_off channel=0 note=60 velocity=127 time=0.014583333333333334\n",
      "note_on channel=0 note=61 velocity=127 time=0.042708333333333334\n",
      "note_on channel=0 note=60 velocity=127 time=0.004166666666666667\n",
      "note_off channel=0 note=61 velocity=127 time=0.015625\n",
      "note_on channel=0 note=62 velocity=127 time=0.0010416666666666667\n",
      "note_off channel=0 note=60 velocity=127 time=0.003125\n",
      "note_off channel=0 note=62 velocity=127 time=0.016666666666666666\n",
      "note_on channel=0 note=60 velocity=127 time=0.030208333333333334\n",
      "note_on channel=0 note=61 velocity=127 time=0.00625\n",
      "note_off channel=0 note=60 velocity=127 time=0.014583333333333334\n",
      "note_off channel=0 note=61 velocity=127 time=0.00625\n",
      "note_on channel=0 note=60 velocity=127 time=0.041666666666666664\n",
      "note_on channel=0 note=61 velocity=127 time=0.016666666666666666\n",
      "note_off channel=0 note=60 velocity=127 time=0.004166666666666667\n",
      "note_off channel=0 note=61 velocity=127 time=0.016666666666666666\n",
      "note_on channel=0 note=60 velocity=127 time=0.03125\n",
      "note_off channel=0 note=60 velocity=127 time=0.019791666666666666\n",
      "note_on channel=0 note=61 velocity=127 time=0.00625\n",
      "note_off channel=0 note=61 velocity=127 time=0.019791666666666666\n",
      "note_on channel=0 note=60 velocity=127 time=0.020833333333333332\n",
      "note_on channel=0 note=62 velocity=127 time=0.017708333333333333\n",
      "note_off channel=0 note=60 velocity=127 time=0.0020833333333333333\n",
      "note_on channel=0 note=61 velocity=127 time=0.016666666666666666\n",
      "note_off channel=0 note=62 velocity=127 time=0.0010416666666666667\n",
      "note_off channel=0 note=61 velocity=127 time=0.01875\n",
      "note_on channel=0 note=60 velocity=127 time=0.010416666666666666\n",
      "note_off channel=0 note=60 velocity=127 time=0.019791666666666666\n",
      "note_on channel=0 note=61 velocity=127 time=0.027083333333333334\n",
      "note_off channel=0 note=61 velocity=127 time=0.019791666666666666\n",
      "note_on channel=0 note=60 velocity=127 time=0\n",
      "note_off channel=0 note=60 velocity=127 time=0.019791666666666666\n",
      "note_on channel=0 note=61 velocity=127 time=0.0375\n",
      "note_on channel=0 note=60 velocity=127 time=0.009375\n",
      "note_off channel=0 note=61 velocity=127 time=0.010416666666666666\n",
      "note_off channel=0 note=60 velocity=127 time=0.009375\n",
      "note_on channel=0 note=60 velocity=127 time=0.046875\n",
      "note_on channel=0 note=61 velocity=127 time=0.0010416666666666667\n",
      "note_on channel=0 note=62 velocity=127 time=0.01875\n",
      "note_off channel=0 note=60 velocity=127 time=0.0010416666666666667\n",
      "note_off channel=0 note=61 velocity=127 time=0.0010416666666666667\n",
      "note_off channel=0 note=62 velocity=127 time=0.01875\n",
      "note_on channel=0 note=60 velocity=127 time=0.028125\n",
      "note_on channel=0 note=61 velocity=127 time=0.010416666666666666\n",
      "note_off channel=0 note=60 velocity=127 time=0.009375\n",
      "note_off channel=0 note=61 velocity=127 time=0.010416666666666666\n",
      "note_on channel=0 note=60 velocity=127 time=0.036458333333333336\n",
      "note_off channel=0 note=60 velocity=127 time=0.019791666666666666\n",
      "note_on channel=0 note=61 velocity=127 time=0.0010416666666666667\n",
      "note_off channel=0 note=61 velocity=127 time=0.019791666666666666\n",
      "note_on channel=0 note=60 velocity=127 time=0.026041666666666668\n",
      "note_off channel=0 note=60 velocity=127 time=0.019791666666666666\n",
      "note_on channel=0 note=61 velocity=127 time=0.011458333333333333\n",
      "note_off channel=0 note=61 velocity=127 time=0.019791666666666666\n",
      "note_on channel=0 note=60 velocity=127 time=0.015625\n",
      "note_off channel=0 note=60 velocity=127 time=0.019791666666666666\n",
      "note_on channel=0 note=62 velocity=127 time=0.0010416666666666667\n",
      "note_off channel=0 note=62 velocity=127 time=0.019791666666666666\n",
      "note_on channel=0 note=61 velocity=127 time=0.0010416666666666667\n",
      "note_off channel=0 note=61 velocity=127 time=0.019791666666666666\n",
      "note_on channel=0 note=60 velocity=127 time=0.005208333333333333\n",
      "note_off channel=0 note=60 velocity=127 time=0.019791666666666666\n",
      "note_on channel=0 note=61 velocity=127 time=0.03229166666666666\n",
      "note_on channel=0 note=60 velocity=127 time=0.014583333333333334\n",
      "note_off channel=0 note=61 velocity=127 time=0.005208333333333333\n",
      "note_off channel=0 note=60 velocity=127 time=0.014583333333333334\n",
      "note_on channel=0 note=61 velocity=127 time=0.042708333333333334\n",
      "note_on channel=0 note=60 velocity=127 time=0.004166666666666667\n",
      "note_off channel=0 note=61 velocity=127 time=0.015625\n",
      "note_off channel=0 note=60 velocity=127 time=0.004166666666666667\n",
      "note_on channel=0 note=60 velocity=127 time=0.046875\n",
      "note_on channel=0 note=61 velocity=127 time=0.005208333333333333\n",
      "note_off channel=0 note=60 velocity=127 time=0.014583333333333334\n",
      "note_on channel=0 note=62 velocity=127 time=0.0020833333333333333\n",
      "note_off channel=0 note=61 velocity=127 time=0.003125\n",
      "note_off channel=0 note=62 velocity=127 time=0.016666666666666666\n",
      "note_on channel=0 note=60 velocity=127 time=0.025\n",
      "note_on channel=0 note=61 velocity=127 time=0.015625\n",
      "note_off channel=0 note=60 velocity=127 time=0.004166666666666667\n",
      "note_off channel=0 note=61 velocity=127 time=0.015625\n",
      "note_on channel=0 note=60 velocity=127 time=0.03125\n",
      "note_off channel=0 note=60 velocity=127 time=0.019791666666666666\n",
      "note_on channel=0 note=61 velocity=127 time=0.00625\n",
      "note_off channel=0 note=61 velocity=127 time=0.019791666666666666\n",
      "note_on channel=0 note=60 velocity=127 time=0.020833333333333332\n",
      "note_off channel=0 note=60 velocity=127 time=0.019791666666666666\n",
      "note_on channel=0 note=61 velocity=127 time=0.016666666666666666\n",
      "note_off channel=0 note=61 velocity=127 time=0.019791666666666666\n",
      "note_on channel=0 note=60 velocity=127 time=0.010416666666666666\n",
      "note_off channel=0 note=60 velocity=127 time=0.019791666666666666\n",
      "note_on channel=0 note=62 velocity=127 time=0.003125\n",
      "note_off channel=0 note=62 velocity=127 time=0.019791666666666666\n",
      "note_on channel=0 note=61 velocity=127 time=0.003125\n",
      "note_off channel=0 note=61 velocity=127 time=0.019791666666666666\n",
      "note_on channel=0 note=60 velocity=127 time=0\n",
      "note_off channel=0 note=60 velocity=127 time=0.019791666666666666\n",
      "note_on channel=0 note=61 velocity=127 time=0.0375\n",
      "\u001b[91m [DEBUG] > \u001b[0m\n",
      " |>  to_array: msg.time > max_t; t, n\n",
      " |>  3.0083333333333355\n",
      " |>  150\n",
      "note_on channel=0 note=62 velocity=127 time=0.041666666666666664\n",
      "note_off channel=0 note=62 velocity=127 time=0.019791666666666666\n",
      "note_on channel=0 note=60 velocity=127 time=0.010416666666666666\n",
      "note_on channel=0 note=61 velocity=127 time=0.005208333333333333\n",
      "note_off channel=0 note=60 velocity=127 time=0.014583333333333334\n",
      "note_off channel=0 note=61 velocity=127 time=0.005208333333333333\n",
      "note_on channel=0 note=60 velocity=127 time=0.057291666666666664\n",
      "note_on channel=0 note=62 velocity=127 time=0.016666666666666666\n",
      "note_off channel=0 note=60 velocity=127 time=0.003125\n",
      "note_off channel=0 note=62 velocity=127 time=0.016666666666666666\n",
      "note_on channel=0 note=60 velocity=127 time=0.04583333333333333\n",
      "note_on channel=0 note=61 velocity=127 time=0.0020833333333333333\n",
      "note_off channel=0 note=60 velocity=127 time=0.017708333333333333\n",
      "note_off channel=0 note=61 velocity=127 time=0.0020833333333333333\n",
      "note_on channel=0 note=62 velocity=127 time=0.041666666666666664\n",
      "note_on channel=0 note=60 velocity=127 time=0.01875\n",
      "note_off channel=0 note=62 velocity=127 time=0.0010416666666666667\n",
      "note_off channel=0 note=60 velocity=127 time=0.01875\n",
      "note_on channel=0 note=61 velocity=127 time=0.06145833333333333\n",
      "note_on channel=0 note=60 velocity=127 time=0.0010416666666666667\n",
      "note_off channel=0 note=61 velocity=127 time=0.01875\n",
      "note_off channel=0 note=60 velocity=127 time=0.0010416666666666667\n",
      "note_on channel=0 note=62 velocity=127 time=0.007291666666666667\n",
      "note_off channel=0 note=62 velocity=127 time=0.019791666666666666\n",
      "note_on channel=0 note=60 velocity=127 time=0.034375\n",
      "note_off channel=0 note=60 velocity=127 time=0.019791666666666666\n",
      "note_on channel=0 note=62 velocity=127 time=0.05416666666666667\n",
      "note_on channel=0 note=61 velocity=127 time=0.003125\n",
      "note_on channel=0 note=60 velocity=127 time=0.004166666666666667\n",
      "note_off channel=0 note=62 velocity=127 time=0.011458333333333333\n",
      "note_off channel=0 note=61 velocity=127 time=0.003125\n",
      "note_off channel=0 note=60 velocity=127 time=0.004166666666666667\n",
      "note_on channel=0 note=60 velocity=127 time=0.0625\n",
      "note_off channel=0 note=60 velocity=127 time=0.019791666666666666\n",
      "note_on channel=0 note=62 velocity=127 time=0.01875\n",
      "note_off channel=0 note=62 velocity=127 time=0.019791666666666666\n",
      "note_on channel=0 note=61 velocity=127 time=0.015625\n",
      "note_on channel=0 note=60 velocity=127 time=0.007291666666666667\n",
      "note_off channel=0 note=61 velocity=127 time=0.0125\n",
      "note_off channel=0 note=60 velocity=127 time=0.007291666666666667\n",
      "note_on channel=0 note=60 velocity=127 time=0.0625\n",
      "note_on channel=0 note=62 velocity=127 time=0.003125\n",
      "note_off channel=0 note=60 velocity=127 time=0.016666666666666666\n",
      "note_off channel=0 note=62 velocity=127 time=0.003125\n",
      "note_on channel=0 note=61 velocity=127 time=0.04895833333333333\n",
      "note_on channel=0 note=60 velocity=127 time=0.011458333333333333\n",
      "note_off channel=0 note=61 velocity=127 time=0.009375\n",
      "note_off channel=0 note=60 velocity=127 time=0.011458333333333333\n",
      "note_on channel=0 note=62 velocity=127 time=0.030208333333333334\n",
      "note_off channel=0 note=62 velocity=127 time=0.019791666666666666\n",
      "note_on channel=0 note=60 velocity=127 time=0.0125\n",
      "note_off channel=0 note=60 velocity=127 time=0.019791666666666666\n",
      "note_on channel=0 note=61 velocity=127 time=0.04791666666666666\n",
      "note_on channel=0 note=60 velocity=127 time=0.014583333333333334\n",
      "note_off channel=0 note=61 velocity=127 time=0.00625\n",
      "note_on channel=0 note=62 velocity=127 time=0.008333333333333333\n",
      "note_off channel=0 note=60 velocity=127 time=0.00625\n",
      "note_off channel=0 note=62 velocity=127 time=0.014583333333333334\n",
      "note_on channel=0 note=60 velocity=127 time=0.04791666666666666\n",
      "note_off channel=0 note=60 velocity=127 time=0.019791666666666666\n",
      "note_on channel=0 note=62 velocity=127 time=0.040625\n",
      "note_on channel=0 note=61 velocity=127 time=0.004166666666666667\n",
      "note_off channel=0 note=62 velocity=127 time=0.015625\n",
      "note_on channel=0 note=60 velocity=127 time=0.0020833333333333333\n",
      "note_off channel=0 note=61 velocity=127 time=0.0020833333333333333\n",
      "note_off channel=0 note=60 velocity=127 time=0.017708333333333333\n",
      "note_on channel=0 note=60 velocity=127 time=0.0625\n",
      "note_off channel=0 note=60 velocity=127 time=0.019791666666666666\n",
      "note_on channel=0 note=62 velocity=127 time=0.005208333333333333\n",
      "note_off channel=0 note=62 velocity=127 time=0.019791666666666666\n",
      "note_on channel=0 note=61 velocity=127 time=0.016666666666666666\n",
      "note_off channel=0 note=61 velocity=127 time=0.019791666666666666\n",
      "note_on channel=0 note=60 velocity=127 time=0.0010416666666666667\n",
      "note_off channel=0 note=60 velocity=127 time=0.019791666666666666\n",
      "note_on channel=0 note=62 velocity=127 time=0.052083333333333336\n",
      "note_on channel=0 note=60 velocity=127 time=0.010416666666666666\n",
      "note_off channel=0 note=62 velocity=127 time=0.009375\n",
      "note_off channel=0 note=60 velocity=127 time=0.010416666666666666\n",
      "note_on channel=0 note=61 velocity=127 time=0.03854166666666667\n",
      "note_off channel=0 note=61 velocity=127 time=0.019791666666666666\n",
      "note_on channel=0 note=60 velocity=127 time=0.004166666666666667\n",
      "note_off channel=0 note=60 velocity=127 time=0.019791666666666666\n",
      "note_on channel=0 note=62 velocity=127 time=0.016666666666666666\n",
      "note_off channel=0 note=62 velocity=127 time=0.019791666666666666\n",
      "note_on channel=0 note=60 velocity=127 time=0.026041666666666668\n",
      "note_off channel=0 note=60 velocity=127 time=0.019791666666666666\n",
      "note_on channel=0 note=61 velocity=127 time=0.035416666666666666\n",
      "note_off channel=0 note=61 velocity=127 time=0.019791666666666666\n",
      "note_on channel=0 note=60 velocity=127 time=0.007291666666666667\n",
      "note_on channel=0 note=62 velocity=127 time=0.0010416666666666667\n",
      "note_off channel=0 note=60 velocity=127 time=0.019791666666666666\n",
      "note_off channel=0 note=62 velocity=127 time=0.0010416666666666667\n",
      "note_on channel=0 note=60 velocity=127 time=0.0625\n",
      "note_off channel=0 note=60 velocity=127 time=0.019791666666666666\n",
      "note_on channel=0 note=62 velocity=127 time=0.027083333333333334\n",
      "note_on channel=0 note=61 velocity=127 time=0.005208333333333333\n",
      "note_off channel=0 note=62 velocity=127 time=0.015625\n",
      "note_off channel=0 note=61 velocity=127 time=0.005208333333333333\n",
      "note_on channel=0 note=60 velocity=127 time=0.010416666666666666\n",
      "note_off channel=0 note=60 velocity=127 time=0.019791666666666666\n",
      "note_on channel=0 note=60 velocity=127 time=0.0625\n",
      "note_on channel=0 note=62 velocity=127 time=0.011458333333333333\n",
      "note_off channel=0 note=60 velocity=127 time=0.008333333333333333\n",
      "note_off channel=0 note=62 velocity=127 time=0.011458333333333333\n",
      "note_on channel=0 note=61 velocity=127 time=0.017708333333333333\n",
      "note_off channel=0 note=61 velocity=127 time=0.019791666666666666\n",
      "note_on channel=0 note=60 velocity=127 time=0.013541666666666667\n",
      "note_off channel=0 note=60 velocity=127 time=0.019791666666666666\n",
      "note_on channel=0 note=62 velocity=127 time=0.03854166666666667\n",
      "note_off channel=0 note=62 velocity=127 time=0.019791666666666666\n",
      "note_on channel=0 note=60 velocity=127 time=0.004166666666666667\n",
      "note_off channel=0 note=60 velocity=127 time=0.019791666666666666\n",
      "note_on channel=0 note=61 velocity=127 time=0.026041666666666668\n",
      "note_off channel=0 note=61 velocity=127 time=0.019791666666666666\n",
      "note_on channel=0 note=60 velocity=127 time=0.016666666666666666\n",
      "note_off channel=0 note=60 velocity=127 time=0.019791666666666666\n",
      "note_on channel=0 note=62 velocity=127 time=0.003125\n",
      "note_off channel=0 note=62 velocity=127 time=0.019791666666666666\n",
      "note_on channel=0 note=60 velocity=127 time=0.03958333333333333\n",
      "note_off channel=0 note=60 velocity=127 time=0.019791666666666666\n",
      "note_on channel=0 note=61 velocity=127 time=0.022916666666666665\n",
      "note_off channel=0 note=61 velocity=127 time=0.019791666666666666\n",
      "note_on channel=0 note=62 velocity=127 time=0.007291666666666667\n",
      "note_on channel=0 note=60 velocity=127 time=0.013541666666666667\n",
      "note_off channel=0 note=62 velocity=127 time=0.007291666666666667\n",
      "note_off channel=0 note=60 velocity=127 time=0.013541666666666667\n",
      "note_on channel=0 note=60 velocity=127 time=0.0625\n",
      "note_off channel=0 note=60 velocity=127 time=0.019791666666666666\n",
      "note_on channel=0 note=62 velocity=127 time=0.013541666666666667\n",
      "note_on channel=0 note=61 velocity=127 time=0.005208333333333333\n",
      "note_off channel=0 note=62 velocity=127 time=0.014583333333333334\n",
      "note_off channel=0 note=61 velocity=127 time=0.005208333333333333\n",
      "note_on channel=0 note=60 velocity=127 time=0.022916666666666665\n",
      "note_off channel=0 note=60 velocity=127 time=0.019791666666666666\n",
      "note_on channel=0 note=62 velocity=127 time=0.06041666666666667\n",
      "note_on channel=0 note=60 velocity=127 time=0.0020833333333333333\n",
      "note_off channel=0 note=62 velocity=127 time=0.017708333333333333\n",
      "note_off channel=0 note=60 velocity=127 time=0.0020833333333333333\n",
      "note_on channel=0 note=61 velocity=127 time=0.015625\n",
      "note_off channel=0 note=61 velocity=127 time=0.019791666666666666\n",
      "note_on channel=0 note=60 velocity=127 time=0.026041666666666668\n",
      "note_off channel=0 note=60 velocity=127 time=0.019791666666666666\n",
      "note_on channel=0 note=62 velocity=127 time=0.025\n",
      "note_off channel=0 note=62 velocity=127 time=0.019791666666666666\n",
      "note_on channel=0 note=60 velocity=127 time=0.017708333333333333\n",
      "note_off channel=0 note=60 velocity=127 time=0.019791666666666666\n",
      "note_on channel=0 note=61 velocity=127 time=0.0125\n",
      "note_off channel=0 note=61 velocity=127 time=0.019791666666666666\n",
      "note_on channel=0 note=60 velocity=127 time=0.029166666666666667\n",
      "note_on channel=0 note=62 velocity=127 time=0.009375\n",
      "note_off channel=0 note=60 velocity=127 time=0.010416666666666666\n",
      "note_off channel=0 note=62 velocity=127 time=0.009375\n",
      "note_on channel=0 note=60 velocity=127 time=0.053125\n",
      "note_off channel=0 note=60 velocity=127 time=0.019791666666666666\n",
      "note_on channel=0 note=61 velocity=127 time=0.009375\n",
      "note_off channel=0 note=61 velocity=127 time=0.019791666666666666\n",
      "\u001b[91m [DEBUG] > \u001b[0m\n",
      " |>  to_array: msg.time > max_t; t, n\n",
      " |>  3.002083333333337\n",
      " |>  150\n",
      "note_on channel=0 note=60 velocity=127 time=0.06875\n",
      "note_on channel=0 note=62 velocity=127 time=0.00625\n",
      "note_off channel=0 note=60 velocity=127 time=0.013541666666666667\n",
      "note_off channel=0 note=62 velocity=127 time=0.00625\n",
      "note_on channel=0 note=61 velocity=127 time=0.030208333333333334\n",
      "note_off channel=0 note=61 velocity=127 time=0.019791666666666666\n",
      "note_on channel=0 note=60 velocity=127 time=0.013541666666666667\n",
      "note_on channel=0 note=62 velocity=127 time=0.013541666666666667\n",
      "note_off channel=0 note=60 velocity=127 time=0.00625\n",
      "note_off channel=0 note=62 velocity=127 time=0.013541666666666667\n",
      "note_on channel=0 note=60 velocity=127 time=0.057291666666666664\n",
      "note_off channel=0 note=60 velocity=127 time=0.019791666666666666\n",
      "note_on channel=0 note=62 velocity=127 time=0\n",
      "note_off channel=0 note=62 velocity=127 time=0.019791666666666666\n",
      "note_on channel=0 note=61 velocity=127 time=0.011458333333333333\n",
      "note_off channel=0 note=61 velocity=127 time=0.019791666666666666\n",
      "note_on channel=0 note=60 velocity=127 time=0.01875\n",
      "note_off channel=0 note=60 velocity=127 time=0.019791666666666666\n",
      "note_on channel=0 note=62 velocity=127 time=0.007291666666666667\n",
      "note_off channel=0 note=62 velocity=127 time=0.019791666666666666\n",
      "note_on channel=0 note=60 velocity=127 time=0.04375\n",
      "note_off channel=0 note=60 velocity=127 time=0.019791666666666666\n",
      "note_on channel=0 note=62 velocity=127 time=0.014583333333333334\n",
      "note_on channel=0 note=61 velocity=127 time=0.013541666666666667\n",
      "note_off channel=0 note=62 velocity=127 time=0.00625\n",
      "note_off channel=0 note=61 velocity=127 time=0.013541666666666667\n",
      "note_on channel=0 note=60 velocity=127 time=0.022916666666666665\n",
      "note_off channel=0 note=60 velocity=127 time=0.019791666666666666\n",
      "note_on channel=0 note=62 velocity=127 time=0.020833333333333332\n",
      "note_off channel=0 note=62 velocity=127 time=0.019791666666666666\n",
      "note_on channel=0 note=60 velocity=127 time=0.029166666666666667\n",
      "note_off channel=0 note=60 velocity=127 time=0.019791666666666666\n",
      "note_on channel=0 note=61 velocity=127 time=0.022916666666666665\n",
      "note_on channel=0 note=62 velocity=127 time=0.004166666666666667\n",
      "note_off channel=0 note=61 velocity=127 time=0.015625\n",
      "note_off channel=0 note=62 velocity=127 time=0.004166666666666667\n",
      "note_on channel=0 note=60 velocity=127 time=0.022916666666666665\n",
      "note_off channel=0 note=60 velocity=127 time=0.019791666666666666\n",
      "note_on channel=0 note=62 velocity=127 time=0.034375\n",
      "note_off channel=0 note=62 velocity=127 time=0.019791666666666666\n",
      "note_on channel=0 note=60 velocity=127 time=0.015625\n",
      "note_off channel=0 note=60 velocity=127 time=0.019791666666666666\n",
      "note_on channel=0 note=61 velocity=127 time=0.01875\n",
      "note_off channel=0 note=61 velocity=127 time=0.019791666666666666\n",
      "note_on channel=0 note=62 velocity=127 time=0.003125\n",
      "note_off channel=0 note=62 velocity=127 time=0.019791666666666666\n",
      "note_on channel=0 note=60 velocity=127 time=0.009375\n",
      "note_off channel=0 note=60 velocity=127 time=0.019791666666666666\n",
      "note_on channel=0 note=62 velocity=127 time=0.04895833333333333\n",
      "note_off channel=0 note=62 velocity=127 time=0.019791666666666666\n",
      "note_on channel=0 note=60 velocity=127 time=0.0020833333333333333\n",
      "note_off channel=0 note=60 velocity=127 time=0.019791666666666666\n",
      "note_on channel=0 note=61 velocity=127 time=0.014583333333333334\n",
      "note_off channel=0 note=61 velocity=127 time=0.019791666666666666\n",
      "note_on channel=0 note=62 velocity=127 time=0.020833333333333332\n",
      "note_on channel=0 note=60 velocity=127 time=0.015625\n",
      "note_off channel=0 note=62 velocity=127 time=0.005208333333333333\n",
      "note_off channel=0 note=60 velocity=127 time=0.015625\n",
      "note_on channel=0 note=62 velocity=127 time=0.0625\n",
      "note_on channel=0 note=60 velocity=127 time=0.008333333333333333\n",
      "note_off channel=0 note=62 velocity=127 time=0.011458333333333333\n",
      "note_off channel=0 note=60 velocity=127 time=0.008333333333333333\n",
      "note_on channel=0 note=61 velocity=127 time=0.010416666666666666\n",
      "note_off channel=0 note=61 velocity=127 time=0.019791666666666666\n",
      "note_on channel=0 note=62 velocity=127 time=0.03958333333333333\n",
      "note_on channel=0 note=60 velocity=127 time=0.0010416666666666667\n",
      "note_off channel=0 note=62 velocity=127 time=0.01875\n",
      "note_off channel=0 note=60 velocity=127 time=0.0010416666666666667\n",
      "note_on channel=0 note=60 velocity=127 time=0.07083333333333333\n",
      "note_on channel=0 note=62 velocity=127 time=0.005208333333333333\n",
      "note_off channel=0 note=60 velocity=127 time=0.014583333333333334\n",
      "note_off channel=0 note=62 velocity=127 time=0.005208333333333333\n",
      "note_on channel=0 note=61 velocity=127 time=0\n",
      "note_off channel=0 note=61 velocity=127 time=0.019791666666666666\n",
      "note_on channel=0 note=60 velocity=127 time=0.04479166666666667\n",
      "note_on channel=0 note=62 velocity=127 time=0.0125\n",
      "note_off channel=0 note=60 velocity=127 time=0.007291666666666667\n",
      "note_off channel=0 note=62 velocity=127 time=0.0125\n",
      "note_on channel=0 note=60 velocity=127 time=0.058333333333333334\n",
      "note_on channel=0 note=62 velocity=127 time=0.019791666666666666\n",
      "note_off channel=0 note=60 velocity=127 time=0.0010416666666666667\n",
      "note_on channel=0 note=61 velocity=127 time=0.0010416666666666667\n",
      "note_off channel=0 note=62 velocity=127 time=0.017708333333333333\n",
      "note_off channel=0 note=61 velocity=127 time=0.0020833333333333333\n",
      "note_on channel=0 note=60 velocity=127 time=0.04895833333333333\n",
      "note_off channel=0 note=60 velocity=127 time=0.019791666666666666\n",
      "note_on channel=0 note=62 velocity=127 time=0.00625\n",
      "note_off channel=0 note=62 velocity=127 time=0.019791666666666666\n",
      "note_on channel=0 note=60 velocity=127 time=0.04479166666666667\n",
      "note_on channel=0 note=61 velocity=127 time=0.016666666666666666\n",
      "note_off channel=0 note=60 velocity=127 time=0.003125\n",
      "note_on channel=0 note=62 velocity=127 time=0.013541666666666667\n",
      "note_off channel=0 note=61 velocity=127 time=0.003125\n",
      "note_off channel=0 note=62 velocity=127 time=0.016666666666666666\n",
      "note_on channel=0 note=60 velocity=127 time=0.0375\n",
      "note_off channel=0 note=60 velocity=127 time=0.019791666666666666\n",
      "note_on channel=0 note=62 velocity=127 time=0.019791666666666666\n",
      "note_off channel=0 note=62 velocity=127 time=0.019791666666666666\n",
      "note_on channel=0 note=60 velocity=127 time=0.030208333333333334\n",
      "note_on channel=0 note=61 velocity=127 time=0.0125\n",
      "note_off channel=0 note=60 velocity=127 time=0.007291666666666667\n",
      "note_off channel=0 note=61 velocity=127 time=0.0125\n",
      "note_on channel=0 note=62 velocity=127 time=0.014583333333333334\n",
      "note_off channel=0 note=62 velocity=127 time=0.019791666666666666\n",
      "note_on channel=0 note=60 velocity=127 time=0.02395833333333333\n",
      "note_off channel=0 note=60 velocity=127 time=0.019791666666666666\n",
      "note_on channel=0 note=62 velocity=127 time=0.03333333333333333\n",
      "note_off channel=0 note=62 velocity=127 time=0.019791666666666666\n",
      "note_on channel=0 note=60 velocity=127 time=0.016666666666666666\n",
      "note_on channel=0 note=61 velocity=127 time=0.007291666666666667\n",
      "note_off channel=0 note=60 velocity=127 time=0.0125\n",
      "note_off channel=0 note=61 velocity=127 time=0.007291666666666667\n",
      "note_on channel=0 note=62 velocity=127 time=0.03333333333333333\n",
      "note_off channel=0 note=62 velocity=127 time=0.019791666666666666\n",
      "note_on channel=0 note=60 velocity=127 time=0.010416666666666666\n",
      "note_off channel=0 note=60 velocity=127 time=0.019791666666666666\n",
      "note_on channel=0 note=62 velocity=127 time=0.04791666666666666\n",
      "note_off channel=0 note=62 velocity=127 time=0.019791666666666666\n",
      "note_on channel=0 note=60 velocity=127 time=0.003125\n",
      "note_on channel=0 note=61 velocity=127 time=0.003125\n",
      "note_off channel=0 note=60 velocity=127 time=0.016666666666666666\n",
      "note_off channel=0 note=61 velocity=127 time=0.003125\n",
      "note_on channel=0 note=62 velocity=127 time=0.051041666666666666\n",
      "note_on channel=0 note=60 velocity=127 time=0.016666666666666666\n",
      "note_off channel=0 note=62 velocity=127 time=0.004166666666666667\n",
      "note_off channel=0 note=60 velocity=127 time=0.016666666666666666\n",
      "note_on channel=0 note=62 velocity=127 time=0.06145833333333333\n",
      "note_on channel=0 note=61 velocity=127 time=0.008333333333333333\n",
      "note_on channel=0 note=60 velocity=127 time=0.0010416666666666667\n",
      "note_off channel=0 note=62 velocity=127 time=0.010416666666666666\n",
      "note_off channel=0 note=61 velocity=127 time=0.008333333333333333\n",
      "note_off channel=0 note=60 velocity=127 time=0.0010416666666666667\n",
      "note_on channel=0 note=62 velocity=127 time=0.06770833333333333\n",
      "note_on channel=0 note=60 velocity=127 time=0.0020833333333333333\n",
      "note_off channel=0 note=62 velocity=127 time=0.017708333333333333\n",
      "note_off channel=0 note=60 velocity=127 time=0.0020833333333333333\n",
      "note_on channel=0 note=61 velocity=127 time=0.06458333333333333\n",
      "note_on channel=0 note=60 velocity=127 time=0.005208333333333333\n",
      "note_on channel=0 note=62 velocity=127 time=0.004166666666666667\n",
      "note_off channel=0 note=61 velocity=127 time=0.010416666666666666\n",
      "note_off channel=0 note=60 velocity=127 time=0.005208333333333333\n",
      "note_off channel=0 note=62 velocity=127 time=0.004166666666666667\n",
      "note_on channel=0 note=60 velocity=127 time=0.065625\n",
      "note_on channel=0 note=62 velocity=127 time=0.011458333333333333\n",
      "note_off channel=0 note=60 velocity=127 time=0.008333333333333333\n",
      "note_off channel=0 note=62 velocity=127 time=0.011458333333333333\n",
      "note_on channel=0 note=61 velocity=127 time=0.04895833333333333\n",
      "note_on channel=0 note=60 velocity=127 time=0.010416666666666666\n",
      "note_off channel=0 note=61 velocity=127 time=0.010416666666666666\n",
      "note_on channel=0 note=62 velocity=127 time=0.008333333333333333\n",
      "note_off channel=0 note=60 velocity=127 time=0.0020833333333333333\n",
      "note_off channel=0 note=62 velocity=127 time=0.017708333333333333\n",
      "note_on channel=0 note=60 velocity=127 time=0.052083333333333336\n",
      "note_off channel=0 note=60 velocity=127 time=0.019791666666666666\n",
      "note_on channel=0 note=62 velocity=127 time=0.005208333333333333\n",
      "note_off channel=0 note=62 velocity=127 time=0.019791666666666666\n",
      "note_on channel=0 note=61 velocity=127 time=0.03125\n",
      "note_on channel=0 note=60 velocity=127 time=0.014583333333333334\n",
      "note_off channel=0 note=61 velocity=127 time=0.005208333333333333\n",
      "note_off channel=0 note=60 velocity=127 time=0.014583333333333334\n",
      "note_on channel=0 note=62 velocity=127 time=0.011458333333333333\n",
      "\u001b[91m [DEBUG] > \u001b[0m\n",
      " |>  to_array: msg.time > max_t; t, n\n",
      " |>  2.990624999999999\n",
      " |>  150\n",
      "note_on channel=0 note=62 velocity=127 time=0.017708333333333333\n",
      "note_on channel=0 note=60 velocity=127 time=0.005208333333333333\n",
      "note_on channel=0 note=61 velocity=127 time=0.003125\n",
      "note_off channel=0 note=62 velocity=127 time=0.011458333333333333\n",
      "note_off channel=0 note=60 velocity=127 time=0.005208333333333333\n",
      "note_off channel=0 note=61 velocity=127 time=0.003125\n",
      "note_on channel=0 note=62 velocity=127 time=0.05625\n",
      "note_off channel=0 note=62 velocity=127 time=0.019791666666666666\n",
      "note_on channel=0 note=61 velocity=127 time=0.028125\n",
      "note_off channel=0 note=61 velocity=127 time=0.019791666666666666\n",
      "note_on channel=0 note=62 velocity=127 time=0.017708333333333333\n",
      "note_off channel=0 note=62 velocity=127 time=0.019791666666666666\n",
      "note_on channel=0 note=60 velocity=127 time=0.059375\n",
      "note_on channel=0 note=62 velocity=127 time=0.005208333333333333\n",
      "note_on channel=0 note=61 velocity=127 time=0.0020833333333333333\n",
      "note_off channel=0 note=60 velocity=127 time=0.0125\n",
      "note_off channel=0 note=62 velocity=127 time=0.005208333333333333\n",
      "note_off channel=0 note=61 velocity=127 time=0.0020833333333333333\n",
      "note_on channel=0 note=62 velocity=127 time=0.0625\n",
      "note_off channel=0 note=62 velocity=127 time=0.019791666666666666\n",
      "note_on channel=0 note=61 velocity=127 time=0.021875\n",
      "note_off channel=0 note=61 velocity=127 time=0.019791666666666666\n",
      "note_on channel=0 note=62 velocity=127 time=0.02395833333333333\n",
      "note_off channel=0 note=62 velocity=127 time=0.019791666666666666\n",
      "note_on channel=0 note=60 velocity=127 time=0.04895833333333333\n",
      "note_on channel=0 note=61 velocity=127 time=0.0125\n",
      "note_on channel=0 note=62 velocity=127 time=0.004166666666666667\n",
      "note_off channel=0 note=60 velocity=127 time=0.003125\n",
      "note_off channel=0 note=61 velocity=127 time=0.0125\n",
      "note_off channel=0 note=62 velocity=127 time=0.004166666666666667\n",
      "note_on channel=0 note=62 velocity=127 time=0.065625\n",
      "note_off channel=0 note=62 velocity=127 time=0.019791666666666666\n",
      "note_on channel=0 note=61 velocity=127 time=0.015625\n",
      "note_off channel=0 note=61 velocity=127 time=0.019791666666666666\n",
      "note_on channel=0 note=62 velocity=127 time=0.030208333333333334\n",
      "note_off channel=0 note=62 velocity=127 time=0.019791666666666666\n",
      "note_on channel=0 note=60 velocity=127 time=0.0375\n",
      "note_on channel=0 note=61 velocity=127 time=0.016666666666666666\n",
      "note_off channel=0 note=60 velocity=127 time=0.003125\n",
      "note_on channel=0 note=62 velocity=127 time=0.007291666666666667\n",
      "note_off channel=0 note=61 velocity=127 time=0.009375\n",
      "note_off channel=0 note=62 velocity=127 time=0.010416666666666666\n",
      "note_on channel=0 note=62 velocity=127 time=0.065625\n",
      "note_off channel=0 note=62 velocity=127 time=0.019791666666666666\n",
      "note_on channel=0 note=61 velocity=127 time=0.009375\n",
      "note_off channel=0 note=61 velocity=127 time=0.019791666666666666\n",
      "note_on channel=0 note=62 velocity=127 time=0.036458333333333336\n",
      "note_off channel=0 note=62 velocity=127 time=0.019791666666666666\n",
      "note_on channel=0 note=60 velocity=127 time=0.027083333333333334\n",
      "note_off channel=0 note=60 velocity=127 time=0.019791666666666666\n",
      "note_on channel=0 note=61 velocity=127 time=0.0010416666666666667\n",
      "note_on channel=0 note=62 velocity=127 time=0.016666666666666666\n",
      "note_off channel=0 note=61 velocity=127 time=0.003125\n",
      "note_off channel=0 note=62 velocity=127 time=0.016666666666666666\n",
      "note_on channel=0 note=62 velocity=127 time=0.065625\n",
      "note_off channel=0 note=62 velocity=127 time=0.019791666666666666\n",
      "note_on channel=0 note=61 velocity=127 time=0.003125\n",
      "note_off channel=0 note=61 velocity=127 time=0.019791666666666666\n",
      "note_on channel=0 note=62 velocity=127 time=0.042708333333333334\n",
      "note_off channel=0 note=62 velocity=127 time=0.019791666666666666\n",
      "note_on channel=0 note=60 velocity=127 time=0.016666666666666666\n",
      "note_off channel=0 note=60 velocity=127 time=0.019791666666666666\n",
      "note_on channel=0 note=61 velocity=127 time=0.00625\n",
      "note_off channel=0 note=61 velocity=127 time=0.019791666666666666\n",
      "note_on channel=0 note=62 velocity=127 time=0.003125\n",
      "note_off channel=0 note=62 velocity=127 time=0.019791666666666666\n",
      "note_on channel=0 note=62 velocity=127 time=0.065625\n",
      "note_on channel=0 note=61 velocity=127 time=0.016666666666666666\n",
      "note_off channel=0 note=62 velocity=127 time=0.003125\n",
      "note_off channel=0 note=61 velocity=127 time=0.016666666666666666\n",
      "note_on channel=0 note=62 velocity=127 time=0.04895833333333333\n",
      "note_off channel=0 note=62 velocity=127 time=0.019791666666666666\n",
      "note_on channel=0 note=60 velocity=127 time=0.005208333333333333\n",
      "note_off channel=0 note=60 velocity=127 time=0.019791666666666666\n",
      "note_on channel=0 note=61 velocity=127 time=0.010416666666666666\n",
      "note_off channel=0 note=61 velocity=127 time=0.019791666666666666\n",
      "note_on channel=0 note=62 velocity=127 time=0.009375\n",
      "note_off channel=0 note=62 velocity=127 time=0.019791666666666666\n",
      "note_on channel=0 note=62 velocity=127 time=0.065625\n",
      "note_on channel=0 note=61 velocity=127 time=0.010416666666666666\n",
      "note_off channel=0 note=62 velocity=127 time=0.009375\n",
      "note_off channel=0 note=61 velocity=127 time=0.010416666666666666\n",
      "note_on channel=0 note=62 velocity=127 time=0.05520833333333333\n",
      "note_on channel=0 note=60 velocity=127 time=0.014583333333333334\n"
     ]
    },
    {
     "name": "stdout",
     "output_type": "stream",
     "text": [
      "note_off channel=0 note=62 velocity=127 time=0.005208333333333333\n",
      "note_off channel=0 note=60 velocity=127 time=0.014583333333333334\n",
      "note_on channel=0 note=61 velocity=127 time=0.014583333333333334\n",
      "note_off channel=0 note=61 velocity=127 time=0.019791666666666666\n",
      "note_on channel=0 note=62 velocity=127 time=0.015625\n",
      "note_off channel=0 note=62 velocity=127 time=0.019791666666666666\n",
      "note_on channel=0 note=62 velocity=127 time=0.065625\n",
      "note_on channel=0 note=61 velocity=127 time=0.004166666666666667\n",
      "note_off channel=0 note=62 velocity=127 time=0.015625\n",
      "note_off channel=0 note=61 velocity=127 time=0.004166666666666667\n",
      "note_on channel=0 note=62 velocity=127 time=0.06145833333333333\n",
      "note_on channel=0 note=60 velocity=127 time=0.004166666666666667\n",
      "note_off channel=0 note=62 velocity=127 time=0.015625\n",
      "note_off channel=0 note=60 velocity=127 time=0.004166666666666667\n",
      "note_on channel=0 note=61 velocity=127 time=0.019791666666666666\n",
      "note_off channel=0 note=61 velocity=127 time=0.019791666666666666\n",
      "note_on channel=0 note=62 velocity=127 time=0.021875\n",
      "note_off channel=0 note=62 velocity=127 time=0.019791666666666666\n",
      "note_on channel=0 note=61 velocity=127 time=0.0625\n",
      "note_on channel=0 note=62 velocity=127 time=0.0020833333333333333\n",
      "note_off channel=0 note=61 velocity=127 time=0.017708333333333333\n",
      "note_off channel=0 note=62 velocity=127 time=0.0020833333333333333\n",
      "note_on channel=0 note=60 velocity=127 time=0.058333333333333334\n",
      "note_on channel=0 note=62 velocity=127 time=0.007291666666666667\n",
      "note_off channel=0 note=60 velocity=127 time=0.013541666666666667\n",
      "note_off channel=0 note=62 velocity=127 time=0.007291666666666667\n",
      "note_on channel=0 note=61 velocity=127 time=0.016666666666666666\n",
      "note_off channel=0 note=61 velocity=127 time=0.019791666666666666\n",
      "note_on channel=0 note=62 velocity=127 time=0.028125\n",
      "note_off channel=0 note=62 velocity=127 time=0.019791666666666666\n",
      "note_on channel=0 note=61 velocity=127 time=0.05625\n",
      "note_on channel=0 note=62 velocity=127 time=0.008333333333333333\n",
      "note_off channel=0 note=61 velocity=127 time=0.011458333333333333\n",
      "note_off channel=0 note=62 velocity=127 time=0.008333333333333333\n",
      "note_on channel=0 note=60 velocity=127 time=0.04791666666666666\n",
      "note_on channel=0 note=62 velocity=127 time=0.017708333333333333\n",
      "note_off channel=0 note=60 velocity=127 time=0.0020833333333333333\n",
      "note_off channel=0 note=62 velocity=127 time=0.017708333333333333\n",
      "note_on channel=0 note=61 velocity=127 time=0.010416666666666666\n",
      "note_off channel=0 note=61 velocity=127 time=0.019791666666666666\n",
      "note_on channel=0 note=62 velocity=127 time=0.034375\n",
      "note_off channel=0 note=62 velocity=127 time=0.019791666666666666\n",
      "note_on channel=0 note=61 velocity=127 time=0.05\n",
      "note_on channel=0 note=62 velocity=127 time=0.014583333333333334\n",
      "note_off channel=0 note=61 velocity=127 time=0.005208333333333333\n",
      "note_off channel=0 note=62 velocity=127 time=0.014583333333333334\n",
      "note_on channel=0 note=60 velocity=127 time=0.036458333333333336\n",
      "note_off channel=0 note=60 velocity=127 time=0.019791666666666666\n",
      "note_on channel=0 note=62 velocity=127 time=0.008333333333333333\n",
      "note_off channel=0 note=62 velocity=127 time=0.019791666666666666\n",
      "note_on channel=0 note=61 velocity=127 time=0.004166666666666667\n",
      "note_off channel=0 note=61 velocity=127 time=0.019791666666666666\n",
      "note_on channel=0 note=62 velocity=127 time=0.040625\n",
      "note_off channel=0 note=62 velocity=127 time=0.019791666666666666\n",
      "note_on channel=0 note=61 velocity=127 time=0.04375\n",
      "note_off channel=0 note=61 velocity=127 time=0.019791666666666666\n",
      "note_on channel=0 note=62 velocity=127 time=0.0010416666666666667\n",
      "note_off channel=0 note=62 velocity=127 time=0.019791666666666666\n",
      "note_on channel=0 note=60 velocity=127 time=0.026041666666666668\n",
      "note_off channel=0 note=60 velocity=127 time=0.019791666666666666\n",
      "note_on channel=0 note=62 velocity=127 time=0.019791666666666666\n",
      "\u001b[91m [DEBUG] > \u001b[0m\n",
      " |>  to_array: msg.time > max_t; t, n\n",
      " |>  2.9927083333333355\n",
      " |>  150\n",
      "note_on channel=0 note=61 velocity=127 time=0.05520833333333333\n",
      "note_on channel=0 note=60 velocity=127 time=0.015625\n",
      "note_on channel=0 note=62 velocity=127 time=0.0010416666666666667\n",
      "note_off channel=0 note=61 velocity=127 time=0.004166666666666667\n",
      "note_off channel=0 note=60 velocity=127 time=0.015625\n",
      "note_off channel=0 note=62 velocity=127 time=0.0010416666666666667\n",
      "note_on channel=0 note=61 velocity=127 time=0.052083333333333336\n",
      "note_on channel=0 note=62 velocity=127 time=0.007291666666666667\n",
      "note_on channel=0 note=60 velocity=127 time=0.008333333333333333\n",
      "note_off channel=0 note=61 velocity=127 time=0.004166666666666667\n",
      "note_off channel=0 note=62 velocity=127 time=0.007291666666666667\n",
      "note_off channel=0 note=60 velocity=127 time=0.008333333333333333\n",
      "note_on channel=0 note=62 velocity=127 time=0.051041666666666666\n",
      "note_on channel=0 note=61 velocity=127 time=0.0020833333333333333\n",
      "note_on channel=0 note=60 velocity=127 time=0.015625\n",
      "note_off channel=0 note=62 velocity=127 time=0.0020833333333333333\n",
      "note_off channel=0 note=61 velocity=127 time=0.0020833333333333333\n",
      "note_off channel=0 note=60 velocity=127 time=0.015625\n",
      "note_on channel=0 note=62 velocity=127 time=0.041666666666666664\n",
      "note_on channel=0 note=61 velocity=127 time=0.010416666666666666\n",
      "note_off channel=0 note=62 velocity=127 time=0.009375\n",
      "note_on channel=0 note=60 velocity=127 time=0.00625\n",
      "note_off channel=0 note=61 velocity=127 time=0.004166666666666667\n",
      "note_off channel=0 note=60 velocity=127 time=0.015625\n",
      "note_on channel=0 note=62 velocity=127 time=0.03229166666666666\n",
      "note_on channel=0 note=61 velocity=127 time=0.019791666666666666\n",
      "note_off channel=0 note=62 velocity=127 time=0\n",
      "note_on channel=0 note=60 velocity=127 time=0.015625\n",
      "note_off channel=0 note=61 velocity=127 time=0.004166666666666667\n",
      "note_off channel=0 note=60 velocity=127 time=0.015625\n",
      "note_on channel=0 note=62 velocity=127 time=0.022916666666666665\n",
      "note_off channel=0 note=62 velocity=127 time=0.019791666666666666\n",
      "note_on channel=0 note=61 velocity=127 time=0.008333333333333333\n",
      "note_on channel=0 note=60 velocity=127 time=0.016666666666666666\n",
      "note_off channel=0 note=61 velocity=127 time=0.003125\n",
      "note_off channel=0 note=60 velocity=127 time=0.016666666666666666\n",
      "note_on channel=0 note=62 velocity=127 time=0.014583333333333334\n",
      "note_off channel=0 note=62 velocity=127 time=0.019791666666666666\n",
      "note_on channel=0 note=61 velocity=127 time=0.017708333333333333\n",
      "note_on channel=0 note=60 velocity=127 time=0.016666666666666666\n",
      "note_off channel=0 note=61 velocity=127 time=0.003125\n",
      "note_off channel=0 note=60 velocity=127 time=0.016666666666666666\n",
      "note_on channel=0 note=62 velocity=127 time=0.005208333333333333\n",
      "note_off channel=0 note=62 velocity=127 time=0.019791666666666666\n",
      "note_on channel=0 note=61 velocity=127 time=0.026041666666666668\n",
      "note_on channel=0 note=60 velocity=127 time=0.016666666666666666\n",
      "note_off channel=0 note=61 velocity=127 time=0.003125\n",
      "note_on channel=0 note=62 velocity=127 time=0.0125\n",
      "note_off channel=0 note=60 velocity=127 time=0.004166666666666667\n",
      "note_off channel=0 note=62 velocity=127 time=0.015625\n",
      "note_on channel=0 note=61 velocity=127 time=0.035416666666666666\n",
      "note_on channel=0 note=60 velocity=127 time=0.016666666666666666\n",
      "note_off channel=0 note=61 velocity=127 time=0.003125\n",
      "note_on channel=0 note=62 velocity=127 time=0.004166666666666667\n",
      "note_off channel=0 note=60 velocity=127 time=0.013541666666666667\n",
      "note_off channel=0 note=62 velocity=127 time=0.00625\n",
      "note_on channel=0 note=61 velocity=127 time=0.04375\n",
      "note_on channel=0 note=62 velocity=127 time=0.014583333333333334\n",
      "note_on channel=0 note=60 velocity=127 time=0.0020833333333333333\n",
      "note_off channel=0 note=61 velocity=127 time=0.003125\n",
      "note_off channel=0 note=62 velocity=127 time=0.014583333333333334\n",
      "note_off channel=0 note=60 velocity=127 time=0.0020833333333333333\n",
      "note_on channel=0 note=61 velocity=127 time=0.051041666666666666\n",
      "note_on channel=0 note=62 velocity=127 time=0.00625\n",
      "note_on channel=0 note=60 velocity=127 time=0.011458333333333333\n",
      "note_off channel=0 note=61 velocity=127 time=0.0020833333333333333\n",
      "note_off channel=0 note=62 velocity=127 time=0.00625\n",
      "note_off channel=0 note=60 velocity=127 time=0.011458333333333333\n",
      "note_on channel=0 note=62 velocity=127 time=0.04791666666666666\n",
      "note_on channel=0 note=61 velocity=127 time=0.003125\n",
      "note_off channel=0 note=62 velocity=127 time=0.016666666666666666\n",
      "note_on channel=0 note=60 velocity=127 time=0.0010416666666666667\n",
      "note_off channel=0 note=61 velocity=127 time=0.0020833333333333333\n",
      "note_off channel=0 note=60 velocity=127 time=0.017708333333333333\n",
      "note_on channel=0 note=62 velocity=127 time=0.03854166666666667\n",
      "note_on channel=0 note=61 velocity=127 time=0.011458333333333333\n",
      "note_off channel=0 note=62 velocity=127 time=0.008333333333333333\n",
      "note_on channel=0 note=60 velocity=127 time=0.009375\n",
      "note_off channel=0 note=61 velocity=127 time=0.0020833333333333333\n",
      "note_off channel=0 note=60 velocity=127 time=0.017708333333333333\n",
      "note_on channel=0 note=62 velocity=127 time=0.029166666666666667\n",
      "note_off channel=0 note=62 velocity=127 time=0.019791666666666666\n",
      "note_on channel=0 note=61 velocity=127 time=0.0010416666666666667\n",
      "note_on channel=0 note=60 velocity=127 time=0.017708333333333333\n",
      "note_off channel=0 note=61 velocity=127 time=0.0020833333333333333\n",
      "note_off channel=0 note=60 velocity=127 time=0.017708333333333333\n",
      "note_on channel=0 note=62 velocity=127 time=0.019791666666666666\n",
      "note_off channel=0 note=62 velocity=127 time=0.019791666666666666\n",
      "note_on channel=0 note=61 velocity=127 time=0.009375\n",
      "note_on channel=0 note=60 velocity=127 time=0.01875\n",
      "note_off channel=0 note=61 velocity=127 time=0.0020833333333333333\n",
      "note_off channel=0 note=60 velocity=127 time=0.01875\n",
      "note_on channel=0 note=62 velocity=127 time=0.011458333333333333\n",
      "note_off channel=0 note=62 velocity=127 time=0.019791666666666666\n",
      "note_on channel=0 note=61 velocity=127 time=0.01875\n",
      "note_on channel=0 note=60 velocity=127 time=0.01875\n",
      "note_off channel=0 note=61 velocity=127 time=0.0010416666666666667\n",
      "note_off channel=0 note=60 velocity=127 time=0.01875\n",
      "note_on channel=0 note=62 velocity=127 time=0.0020833333333333333\n",
      "note_off channel=0 note=62 velocity=127 time=0.019791666666666666\n",
      "note_on channel=0 note=61 velocity=127 time=0.027083333333333334\n",
      "note_on channel=0 note=60 velocity=127 time=0.01875\n",
      "note_off channel=0 note=61 velocity=127 time=0.0010416666666666667\n",
      "note_on channel=0 note=62 velocity=127 time=0.011458333333333333\n",
      "note_off channel=0 note=60 velocity=127 time=0.007291666666666667\n",
      "note_off channel=0 note=62 velocity=127 time=0.0125\n",
      "note_on channel=0 note=61 velocity=127 time=0.036458333333333336\n",
      "note_on channel=0 note=60 velocity=127 time=0.01875\n",
      "note_off channel=0 note=61 velocity=127 time=0.0010416666666666667\n",
      "note_on channel=0 note=62 velocity=127 time=0.003125\n",
      "note_off channel=0 note=60 velocity=127 time=0.016666666666666666\n",
      "note_off channel=0 note=62 velocity=127 time=0.004166666666666667\n",
      "note_on channel=0 note=61 velocity=127 time=0.04479166666666667\n",
      "note_on channel=0 note=62 velocity=127 time=0.013541666666666667\n",
      "note_on channel=0 note=60 velocity=127 time=0.005208333333333333\n",
      "note_off channel=0 note=61 velocity=127 time=0.0010416666666666667\n",
      "note_off channel=0 note=62 velocity=127 time=0.013541666666666667\n",
      "note_off channel=0 note=60 velocity=127 time=0.005208333333333333\n",
      "note_on channel=0 note=61 velocity=127 time=0.04895833333333333\n",
      "note_on channel=0 note=62 velocity=127 time=0.005208333333333333\n",
      "note_on channel=0 note=60 velocity=127 time=0.014583333333333334\n",
      "note_off channel=0 note=61 velocity=127 time=0.0010416666666666667\n",
      "note_off channel=0 note=62 velocity=127 time=0.005208333333333333\n",
      "note_off channel=0 note=60 velocity=127 time=0.014583333333333334\n",
      "note_on channel=0 note=62 velocity=127 time=0.04479166666666667\n",
      "note_on channel=0 note=61 velocity=127 time=0.004166666666666667\n",
      "note_off channel=0 note=62 velocity=127 time=0.015625\n",
      "note_on channel=0 note=60 velocity=127 time=0.004166666666666667\n",
      "note_off channel=0 note=61 velocity=127 time=0\n",
      "note_off channel=0 note=60 velocity=127 time=0.019791666666666666\n",
      "note_on channel=0 note=62 velocity=127 time=0.035416666666666666\n",
      "note_on channel=0 note=61 velocity=127 time=0.0125\n",
      "note_off channel=0 note=62 velocity=127 time=0.007291666666666667\n",
      "note_on channel=0 note=60 velocity=127 time=0.0125\n",
      "note_off channel=0 note=61 velocity=127 time=0\n",
      "note_off channel=0 note=60 velocity=127 time=0.019791666666666666\n",
      "note_on channel=0 note=62 velocity=127 time=0.026041666666666668\n",
      "note_off channel=0 note=62 velocity=127 time=0.019791666666666666\n",
      "note_on channel=0 note=61 velocity=127 time=0.0020833333333333333\n",
      "note_off channel=0 note=61 velocity=127 time=0.019791666666666666\n",
      "note_on channel=0 note=60 velocity=127 time=0\n",
      "note_off channel=0 note=60 velocity=127 time=0.019791666666666666\n",
      "note_on channel=0 note=62 velocity=127 time=0.016666666666666666\n",
      "note_off channel=0 note=62 velocity=127 time=0.019791666666666666\n",
      "note_on channel=0 note=61 velocity=127 time=0.010416666666666666\n",
      "note_off channel=0 note=61 velocity=127 time=0.019791666666666666\n",
      "note_on channel=0 note=60 velocity=127 time=0\n",
      "note_off channel=0 note=60 velocity=127 time=0.019791666666666666\n",
      "note_on channel=0 note=62 velocity=127 time=0.008333333333333333\n",
      "note_off channel=0 note=62 velocity=127 time=0.019791666666666666\n",
      "note_on channel=0 note=61 velocity=127 time=0.019791666666666666\n",
      "note_off channel=0 note=61 velocity=127 time=0.019791666666666666\n",
      "note_on channel=0 note=60 velocity=127 time=0.0010416666666666667\n",
      "note_on channel=0 note=62 velocity=127 time=0.01875\n",
      "note_off channel=0 note=60 velocity=127 time=0.0010416666666666667\n",
      "note_off channel=0 note=62 velocity=127 time=0.01875\n",
      "note_on channel=0 note=61 velocity=127 time=0.028125\n",
      "note_off channel=0 note=61 velocity=127 time=0.019791666666666666\n",
      "note_on channel=0 note=60 velocity=127 time=0.0010416666666666667\n",
      "note_on channel=0 note=62 velocity=127 time=0.009375\n",
      "note_off channel=0 note=60 velocity=127 time=0.010416666666666666\n",
      "note_off channel=0 note=62 velocity=127 time=0.009375\n",
      "note_on channel=0 note=61 velocity=127 time=0.0375\n",
      "note_off channel=0 note=61 velocity=127 time=0.019791666666666666\n",
      "note_on channel=0 note=60 velocity=127 time=0.0010416666666666667\n",
      "note_on channel=0 note=62 velocity=127 time=0.0010416666666666667\n",
      "note_off channel=0 note=60 velocity=127 time=0.019791666666666666\n",
      "note_off channel=0 note=62 velocity=127 time=0.0010416666666666667\n",
      "note_on channel=0 note=61 velocity=127 time=0.04583333333333333\n",
      "note_on channel=0 note=62 velocity=127 time=0.0125\n",
      "note_off channel=0 note=61 velocity=127 time=0.007291666666666667\n",
      "note_on channel=0 note=60 velocity=127 time=0.0010416666666666667\n",
      "note_off channel=0 note=62 velocity=127 time=0.011458333333333333\n",
      "note_off channel=0 note=60 velocity=127 time=0.008333333333333333\n",
      "note_on channel=0 note=61 velocity=127 time=0.046875\n",
      "note_on channel=0 note=62 velocity=127 time=0.004166666666666667\n",
      "note_off channel=0 note=61 velocity=127 time=0.015625\n",
      "note_on channel=0 note=60 velocity=127 time=0.0010416666666666667\n",
      "note_off channel=0 note=62 velocity=127 time=0.0020833333333333333\n",
      "note_off channel=0 note=60 velocity=127 time=0.017708333333333333\n",
      "note_on channel=0 note=62 velocity=127 time=0.041666666666666664\n",
      "note_on channel=0 note=61 velocity=127 time=0.005208333333333333\n",
      "note_off channel=0 note=62 velocity=127 time=0.014583333333333334\n",
      "note_off channel=0 note=61 velocity=127 time=0.005208333333333333\n",
      "note_on channel=0 note=60 velocity=127 time=0.0020833333333333333\n",
      "note_off channel=0 note=60 velocity=127 time=0.019791666666666666\n",
      "note_on channel=0 note=62 velocity=127 time=0.03229166666666666\n",
      "note_on channel=0 note=61 velocity=127 time=0.013541666666666667\n",
      "note_off channel=0 note=62 velocity=127 time=0.00625\n",
      "note_off channel=0 note=61 velocity=127 time=0.013541666666666667\n",
      "note_on channel=0 note=60 velocity=127 time=0.0020833333333333333\n",
      "note_off channel=0 note=60 velocity=127 time=0.019791666666666666\n",
      "note_on channel=0 note=62 velocity=127 time=0.022916666666666665\n",
      "note_off channel=0 note=62 velocity=127 time=0.019791666666666666\n",
      "note_on channel=0 note=61 velocity=127 time=0.003125\n",
      "note_off channel=0 note=61 velocity=127 time=0.019791666666666666\n",
      "note_on channel=0 note=60 velocity=127 time=0.0020833333333333333\n",
      "note_off channel=0 note=60 velocity=127 time=0.019791666666666666\n",
      "note_on channel=0 note=62 velocity=127 time=0.014583333333333334\n",
      "note_off channel=0 note=62 velocity=127 time=0.019791666666666666\n",
      "note_on channel=0 note=61 velocity=127 time=0.011458333333333333\n",
      "note_off channel=0 note=61 velocity=127 time=0.019791666666666666\n",
      "note_on channel=0 note=60 velocity=127 time=0.0020833333333333333\n",
      "note_off channel=0 note=60 velocity=127 time=0.019791666666666666\n",
      "note_on channel=0 note=62 velocity=127 time=0.005208333333333333\n",
      "note_off channel=0 note=62 velocity=127 time=0.019791666666666666\n",
      "note_on channel=0 note=61 velocity=127 time=0.020833333333333332\n",
      "note_off channel=0 note=61 velocity=127 time=0.019791666666666666\n",
      "note_on channel=0 note=60 velocity=127 time=0.0020833333333333333\n",
      "note_on channel=0 note=62 velocity=127 time=0.015625\n",
      "note_off channel=0 note=60 velocity=127 time=0.004166666666666667\n",
      "\u001b[91m [DEBUG] > \u001b[0m\n",
      " |>  to_array: msg.time > max_t; t, n\n",
      " |>  2.9927083333333364\n",
      " |>  150\n",
      "note_on channel=0 note=61 velocity=127 time=0.004166666666666667\n",
      "note_on channel=0 note=60 velocity=127 time=0.015625\n",
      "note_on channel=0 note=62 velocity=127 time=0.004166666666666667\n",
      "note_off channel=0 note=61 velocity=127 time=0\n",
      "note_off channel=0 note=60 velocity=127 time=0.015625\n",
      "note_off channel=0 note=62 velocity=127 time=0.004166666666666667\n",
      "note_on channel=0 note=61 velocity=127 time=0.03229166666666666\n",
      "note_off channel=0 note=61 velocity=127 time=0.019791666666666666\n",
      "note_on channel=0 note=62 velocity=127 time=0.014583333333333334\n",
      "note_off channel=0 note=62 velocity=127 time=0.019791666666666666\n",
      "note_on channel=0 note=61 velocity=127 time=0.017708333333333333\n",
      "note_off channel=0 note=61 velocity=127 time=0.019791666666666666\n",
      "note_on channel=0 note=60 velocity=127 time=0\n",
      "note_off channel=0 note=60 velocity=127 time=0.019791666666666666\n",
      "note_on channel=0 note=62 velocity=127 time=0.008333333333333333\n",
      "note_off channel=0 note=62 velocity=127 time=0.019791666666666666\n",
      "note_on channel=0 note=61 velocity=127 time=0.003125\n",
      "note_off channel=0 note=61 velocity=127 time=0.019791666666666666\n",
      "note_on channel=0 note=62 velocity=127 time=0.04375\n",
      "note_on channel=0 note=61 velocity=127 time=0.008333333333333333\n",
      "note_off channel=0 note=62 velocity=127 time=0.011458333333333333\n",
      "note_off channel=0 note=61 velocity=127 time=0.008333333333333333\n",
      "note_on channel=0 note=60 velocity=127 time=0.005208333333333333\n",
      "note_off channel=0 note=60 velocity=127 time=0.019791666666666666\n",
      "note_on channel=0 note=61 velocity=127 time=0.027083333333333334\n",
      "note_on channel=0 note=62 velocity=127 time=0.00625\n",
      "note_off channel=0 note=61 velocity=127 time=0.014583333333333334\n",
      "note_off channel=0 note=62 velocity=127 time=0.00625\n",
      "note_on channel=0 note=61 velocity=127 time=0.04583333333333333\n",
      "note_off channel=0 note=61 velocity=127 time=0.019791666666666666\n",
      "note_on channel=0 note=62 velocity=127 time=0\n",
      "note_on channel=0 note=60 velocity=127 time=0.009375\n",
      "note_off channel=0 note=62 velocity=127 time=0.010416666666666666\n",
      "note_off channel=0 note=60 velocity=127 time=0.009375\n",
      "note_on channel=0 note=61 velocity=127 time=0.022916666666666665\n",
      "note_off channel=0 note=61 velocity=127 time=0.019791666666666666\n",
      "note_on channel=0 note=62 velocity=127 time=0.014583333333333334\n",
      "note_off channel=0 note=62 velocity=127 time=0.019791666666666666\n",
      "note_on channel=0 note=61 velocity=127 time=0.017708333333333333\n",
      "note_off channel=0 note=61 velocity=127 time=0.019791666666666666\n",
      "note_on channel=0 note=60 velocity=127 time=0.013541666666666667\n",
      "note_on channel=0 note=62 velocity=127 time=0.015625\n",
      "note_off channel=0 note=60 velocity=127 time=0.005208333333333333\n",
      "note_off channel=0 note=62 velocity=127 time=0.015625\n",
      "note_on channel=0 note=61 velocity=127 time=0.003125\n",
      "note_off channel=0 note=61 velocity=127 time=0.019791666666666666\n",
      "note_on channel=0 note=62 velocity=127 time=0.04375\n",
      "note_on channel=0 note=61 velocity=127 time=0.008333333333333333\n",
      "note_off channel=0 note=62 velocity=127 time=0.011458333333333333\n",
      "note_off channel=0 note=61 velocity=127 time=0.008333333333333333\n",
      "note_on channel=0 note=60 velocity=127 time=0.01875\n",
      "note_off channel=0 note=60 velocity=127 time=0.019791666666666666\n",
      "note_on channel=0 note=61 velocity=127 time=0.013541666666666667\n",
      "note_on channel=0 note=62 velocity=127 time=0.00625\n",
      "note_off channel=0 note=61 velocity=127 time=0.013541666666666667\n",
      "note_off channel=0 note=62 velocity=127 time=0.00625\n",
      "note_on channel=0 note=61 velocity=127 time=0.04583333333333333\n",
      "note_off channel=0 note=61 velocity=127 time=0.019791666666666666\n",
      "note_on channel=0 note=62 velocity=127 time=0.0010416666666666667\n",
      "note_off channel=0 note=62 velocity=127 time=0.019791666666666666\n",
      "note_on channel=0 note=60 velocity=127 time=0.0020833333333333333\n",
      "note_off channel=0 note=60 velocity=127 time=0.019791666666666666\n",
      "note_on channel=0 note=61 velocity=127 time=0.008333333333333333\n",
      "note_off channel=0 note=61 velocity=127 time=0.019791666666666666\n",
      "note_on channel=0 note=62 velocity=127 time=0.015625\n",
      "note_off channel=0 note=62 velocity=127 time=0.019791666666666666\n",
      "note_on channel=0 note=61 velocity=127 time=0.016666666666666666\n",
      "note_off channel=0 note=61 velocity=127 time=0.019791666666666666\n",
      "note_on channel=0 note=60 velocity=127 time=0.028125\n",
      "note_on channel=0 note=62 velocity=127 time=0.0020833333333333333\n",
      "note_off channel=0 note=60 velocity=127 time=0.01875\n",
      "note_off channel=0 note=62 velocity=127 time=0.0020833333333333333\n",
      "note_on channel=0 note=61 velocity=127 time=0.0020833333333333333\n",
      "note_off channel=0 note=61 velocity=127 time=0.019791666666666666\n",
      "note_on channel=0 note=62 velocity=127 time=0.04375\n",
      "note_on channel=0 note=61 velocity=127 time=0.007291666666666667\n",
      "note_off channel=0 note=62 velocity=127 time=0.0125\n",
      "note_off channel=0 note=61 velocity=127 time=0.007291666666666667\n",
      "note_on channel=0 note=60 velocity=127 time=0.03229166666666666\n",
      "note_on channel=0 note=61 velocity=127 time=0.01875\n",
      "note_off channel=0 note=60 velocity=127 time=0.0010416666666666667\n",
      "note_on channel=0 note=62 velocity=127 time=0.00625\n",
      "note_off channel=0 note=61 velocity=127 time=0.013541666666666667\n",
      "note_off channel=0 note=62 velocity=127 time=0.00625\n",
      "note_on channel=0 note=61 velocity=127 time=0.04479166666666667\n",
      "note_off channel=0 note=61 velocity=127 time=0.019791666666666666\n",
      "note_on channel=0 note=62 velocity=127 time=0.0010416666666666667\n",
      "note_off channel=0 note=62 velocity=127 time=0.019791666666666666\n",
      "note_on channel=0 note=60 velocity=127 time=0.015625\n",
      "note_on channel=0 note=61 velocity=127 time=0.014583333333333334\n",
      "note_off channel=0 note=60 velocity=127 time=0.005208333333333333\n",
      "note_off channel=0 note=61 velocity=127 time=0.014583333333333334\n",
      "note_on channel=0 note=62 velocity=127 time=0.015625\n",
      "note_off channel=0 note=62 velocity=127 time=0.019791666666666666\n",
      "note_on channel=0 note=61 velocity=127 time=0.016666666666666666\n",
      "note_off channel=0 note=61 velocity=127 time=0.019791666666666666\n",
      "note_on channel=0 note=62 velocity=127 time=0.030208333333333334\n",
      "note_on channel=0 note=60 velocity=127 time=0.011458333333333333\n",
      "note_off channel=0 note=62 velocity=127 time=0.008333333333333333\n",
      "note_on channel=0 note=61 velocity=127 time=0.0020833333333333333\n",
      "note_off channel=0 note=60 velocity=127 time=0.010416666666666666\n",
      "note_off channel=0 note=61 velocity=127 time=0.010416666666666666\n",
      "note_on channel=0 note=62 velocity=127 time=0.04479166666666667\n",
      "note_on channel=0 note=61 velocity=127 time=0.007291666666666667\n",
      "note_off channel=0 note=62 velocity=127 time=0.0125\n",
      "note_off channel=0 note=61 velocity=127 time=0.007291666666666667\n",
      "note_on channel=0 note=60 velocity=127 time=0.046875\n",
      "note_on channel=0 note=61 velocity=127 time=0.005208333333333333\n",
      "note_on channel=0 note=62 velocity=127 time=0.007291666666666667\n",
      "note_off channel=0 note=60 velocity=127 time=0.007291666666666667\n",
      "note_off channel=0 note=61 velocity=127 time=0.005208333333333333\n",
      "note_off channel=0 note=62 velocity=127 time=0.007291666666666667\n",
      "note_on channel=0 note=61 velocity=127 time=0.04479166666666667\n",
      "note_off channel=0 note=61 velocity=127 time=0.019791666666666666\n",
      "note_on channel=0 note=62 velocity=127 time=0.0020833333333333333\n",
      "note_off channel=0 note=62 velocity=127 time=0.019791666666666666\n",
      "note_on channel=0 note=60 velocity=127 time=0.029166666666666667\n",
      "note_on channel=0 note=61 velocity=127 time=0.0010416666666666667\n",
      "note_off channel=0 note=60 velocity=127 time=0.019791666666666666\n",
      "note_off channel=0 note=61 velocity=127 time=0.0010416666666666667\n",
      "note_on channel=0 note=62 velocity=127 time=0.016666666666666666\n",
      "note_off channel=0 note=62 velocity=127 time=0.019791666666666666\n",
      "note_on channel=0 note=61 velocity=127 time=0.015625\n",
      "note_off channel=0 note=61 velocity=127 time=0.019791666666666666\n",
      "note_on channel=0 note=62 velocity=127 time=0.030208333333333334\n",
      "note_off channel=0 note=62 velocity=127 time=0.019791666666666666\n",
      "note_on channel=0 note=61 velocity=127 time=0.0010416666666666667\n",
      "note_on channel=0 note=60 velocity=127 time=0.004166666666666667\n",
      "note_off channel=0 note=61 velocity=127 time=0.015625\n",
      "note_off channel=0 note=60 velocity=127 time=0.004166666666666667\n",
      "note_on channel=0 note=62 velocity=127 time=0.040625\n",
      "note_on channel=0 note=61 velocity=127 time=0.00625\n",
      "note_off channel=0 note=62 velocity=127 time=0.013541666666666667\n",
      "note_off channel=0 note=61 velocity=127 time=0.00625\n",
      "note_on channel=0 note=61 velocity=127 time=0.052083333333333336\n",
      "note_on channel=0 note=62 velocity=127 time=0.007291666666666667\n",
      "note_on channel=0 note=60 velocity=127 time=0.0010416666666666667\n",
      "note_off channel=0 note=61 velocity=127 time=0.011458333333333333\n",
      "note_off channel=0 note=62 velocity=127 time=0.007291666666666667\n",
      "note_off channel=0 note=60 velocity=127 time=0.0010416666666666667\n",
      "note_on channel=0 note=61 velocity=127 time=0.04375\n",
      "note_off channel=0 note=61 velocity=127 time=0.019791666666666666\n",
      "note_on channel=0 note=62 velocity=127 time=0.0020833333333333333\n",
      "note_off channel=0 note=62 velocity=127 time=0.019791666666666666\n",
      "note_on channel=0 note=61 velocity=127 time=0.030208333333333334\n",
      "note_on channel=0 note=60 velocity=127 time=0.013541666666666667\n",
      "note_off channel=0 note=61 velocity=127 time=0.00625\n",
      "note_off channel=0 note=60 velocity=127 time=0.013541666666666667\n",
      "note_on channel=0 note=62 velocity=127 time=0.003125\n",
      "note_off channel=0 note=62 velocity=127 time=0.019791666666666666\n",
      "note_on channel=0 note=61 velocity=127 time=0.015625\n",
      "note_off channel=0 note=61 velocity=127 time=0.019791666666666666\n",
      "note_on channel=0 note=62 velocity=127 time=0.03125\n",
      "note_off channel=0 note=62 velocity=127 time=0.019791666666666666\n",
      "note_on channel=0 note=61 velocity=127 time=0.0010416666666666667\n",
      "note_on channel=0 note=60 velocity=127 time=0.017708333333333333\n",
      "note_off channel=0 note=61 velocity=127 time=0.0020833333333333333\n",
      "note_off channel=0 note=60 velocity=127 time=0.017708333333333333\n",
      "note_on channel=0 note=62 velocity=127 time=0.028125\n",
      "note_on channel=0 note=61 velocity=127 time=0.00625\n",
      "note_off channel=0 note=62 velocity=127 time=0.013541666666666667\n",
      "note_off channel=0 note=61 velocity=127 time=0.00625\n",
      "note_on channel=0 note=61 velocity=127 time=0.052083333333333336\n",
      "note_on channel=0 note=62 velocity=127 time=0.008333333333333333\n",
      "note_off channel=0 note=61 velocity=127 time=0.011458333333333333\n",
      "note_on channel=0 note=60 velocity=127 time=0.003125\n",
      "note_off channel=0 note=62 velocity=127 time=0.005208333333333333\n",
      "note_off channel=0 note=60 velocity=127 time=0.014583333333333334\n",
      "note_on channel=0 note=61 velocity=127 time=0.029166666666666667\n",
      "note_off channel=0 note=61 velocity=127 time=0.019791666666666666\n",
      "note_on channel=0 note=62 velocity=127 time=0.003125\n",
      "note_off channel=0 note=62 velocity=127 time=0.019791666666666666\n",
      "note_on channel=0 note=61 velocity=127 time=0.029166666666666667\n",
      "note_off channel=0 note=61 velocity=127 time=0.019791666666666666\n",
      "note_on channel=0 note=60 velocity=127 time=0.007291666666666667\n",
      "note_on channel=0 note=62 velocity=127 time=0.009375\n",
      "note_off channel=0 note=60 velocity=127 time=0.010416666666666666\n",
      "note_off channel=0 note=62 velocity=127 time=0.009375\n",
      "note_on channel=0 note=61 velocity=127 time=0.014583333333333334\n",
      "note_off channel=0 note=61 velocity=127 time=0.019791666666666666\n",
      "note_on channel=0 note=62 velocity=127 time=0.03125\n",
      "note_off channel=0 note=62 velocity=127 time=0.019791666666666666\n",
      "note_on channel=0 note=61 velocity=127 time=0\n",
      "note_off channel=0 note=61 velocity=127 time=0.019791666666666666\n",
      "note_on channel=0 note=60 velocity=127 time=0.0125\n",
      "note_off channel=0 note=60 velocity=127 time=0.019791666666666666\n",
      "note_on channel=0 note=62 velocity=127 time=0.014583333333333334\n",
      "note_on channel=0 note=61 velocity=127 time=0.00625\n",
      "note_off channel=0 note=62 velocity=127 time=0.014583333333333334\n",
      "note_off channel=0 note=61 velocity=127 time=0.00625\n",
      "note_on channel=0 note=61 velocity=127 time=0.052083333333333336\n",
      "note_on channel=0 note=62 velocity=127 time=0.008333333333333333\n",
      "note_off channel=0 note=61 velocity=127 time=0.011458333333333333\n",
      "note_off channel=0 note=62 velocity=127 time=0.008333333333333333\n",
      "note_on channel=0 note=60 velocity=127 time=0.008333333333333333\n",
      "note_off channel=0 note=60 velocity=127 time=0.019791666666666666\n",
      "\u001b[91m [DEBUG] > \u001b[0m\n",
      " |>  to_array: msg.time > max_t; t, n\n",
      " |>  3.005208333333336\n",
      " |>  150\n",
      "note_on channel=0 note=61 velocity=127 time=0.04479166666666667\n",
      "note_off channel=0 note=61 velocity=127 time=0.019791666666666666\n",
      "note_on channel=0 note=62 velocity=127 time=0.08229166666666667\n",
      "note_off channel=0 note=62 velocity=127 time=0.019791666666666666\n",
      "note_on channel=0 note=60 velocity=127 time=0.04479166666666667\n",
      "note_off channel=0 note=60 velocity=127 time=0.019791666666666666\n",
      "note_on channel=0 note=61 velocity=127 time=0.029166666666666667\n",
      "note_off channel=0 note=61 velocity=127 time=0.019791666666666666\n",
      "note_on channel=0 note=62 velocity=127 time=0.140625\n",
      "note_on channel=0 note=60 velocity=127 time=0.011458333333333333\n",
      "note_off channel=0 note=62 velocity=127 time=0.008333333333333333\n",
      "note_off channel=0 note=60 velocity=127 time=0.011458333333333333\n",
      "note_on channel=0 note=61 velocity=127 time=0.02395833333333333\n",
      "note_off channel=0 note=61 velocity=127 time=0.019791666666666666\n",
      "note_on channel=0 note=60 velocity=127 time=0.15729166666666666\n",
      "note_off channel=0 note=60 velocity=127 time=0.019791666666666666\n",
      "note_on channel=0 note=61 velocity=127 time=0.01875\n",
      "note_on channel=0 note=62 velocity=127 time=0.0020833333333333333\n",
      "note_off channel=0 note=61 velocity=127 time=0.017708333333333333\n",
      "note_off channel=0 note=62 velocity=127 time=0.0020833333333333333\n",
      "note_on channel=0 note=60 velocity=127 time=0.16041666666666665\n",
      "note_off channel=0 note=60 velocity=127 time=0.019791666666666666\n",
      "note_on channel=0 note=61 velocity=127 time=0.013541666666666667\n",
      "note_off channel=0 note=61 velocity=127 time=0.019791666666666666\n",
      "note_on channel=0 note=62 velocity=127 time=0.040625\n",
      "note_off channel=0 note=62 velocity=127 time=0.019791666666666666\n",
      "note_on channel=0 note=60 velocity=127 time=0.10729166666666666\n",
      "note_off channel=0 note=60 velocity=127 time=0.019791666666666666\n",
      "note_on channel=0 note=61 velocity=127 time=0.008333333333333333\n",
      "note_off channel=0 note=61 velocity=127 time=0.019791666666666666\n",
      "note_on channel=0 note=62 velocity=127 time=0.09791666666666667\n",
      "note_off channel=0 note=62 velocity=127 time=0.019791666666666666\n",
      "note_on channel=0 note=60 velocity=127 time=0.05520833333333333\n",
      "note_off channel=0 note=60 velocity=127 time=0.019791666666666666\n",
      "note_on channel=0 note=61 velocity=127 time=0.003125\n",
      "note_off channel=0 note=61 velocity=127 time=0.019791666666666666\n",
      "note_on channel=0 note=62 velocity=127 time=0.15625\n",
      "note_off channel=0 note=62 velocity=127 time=0.019791666666666666\n",
      "note_on channel=0 note=60 velocity=127 time=0.0020833333333333333\n",
      "note_on channel=0 note=61 velocity=127 time=0.017708333333333333\n",
      "note_off channel=0 note=60 velocity=127 time=0.0020833333333333333\n",
      "note_off channel=0 note=61 velocity=127 time=0.017708333333333333\n",
      "note_on channel=0 note=60 velocity=127 time=0.184375\n",
      "note_on channel=0 note=61 velocity=127 time=0.0125\n",
      "note_off channel=0 note=60 velocity=127 time=0.007291666666666667\n",
      "note_on channel=0 note=62 velocity=127 time=0.010416666666666666\n",
      "note_off channel=0 note=61 velocity=127 time=0.0020833333333333333\n",
      "note_off channel=0 note=62 velocity=127 time=0.017708333333333333\n",
      "note_on channel=0 note=60 velocity=127 time=0.17083333333333334\n",
      "note_on channel=0 note=61 velocity=127 time=0.007291666666666667\n",
      "note_off channel=0 note=60 velocity=127 time=0.0125\n",
      "note_off channel=0 note=61 velocity=127 time=0.007291666666666667\n",
      "note_on channel=0 note=62 velocity=127 time=0.05625\n",
      "note_off channel=0 note=62 velocity=127 time=0.019791666666666666\n",
      "note_on channel=0 note=60 velocity=127 time=0.11875\n",
      "note_on channel=0 note=61 velocity=127 time=0.0020833333333333333\n",
      "note_off channel=0 note=60 velocity=127 time=0.017708333333333333\n",
      "note_off channel=0 note=61 velocity=127 time=0.0020833333333333333\n",
      "note_on channel=0 note=62 velocity=127 time=0.11354166666666667\n",
      "note_off channel=0 note=62 velocity=127 time=0.019791666666666666\n",
      "note_on channel=0 note=61 velocity=127 time=0.0625\n",
      "note_on channel=0 note=60 velocity=127 time=0.003125\n",
      "note_off channel=0 note=61 velocity=127 time=0.016666666666666666\n",
      "note_off channel=0 note=60 velocity=127 time=0.003125\n",
      "note_on channel=0 note=62 velocity=127 time=0.16875\n",
      "note_off channel=0 note=62 velocity=127 time=0.019791666666666666\n",
      "note_on channel=0 note=61 velocity=127 time=0.004166666666666667\n",
      "note_on channel=0 note=60 velocity=127 time=0.008333333333333333\n",
      "note_off channel=0 note=61 velocity=127 time=0.011458333333333333\n",
      "note_off channel=0 note=60 velocity=127 time=0.008333333333333333\n",
      "note_on channel=0 note=61 velocity=127 time=0.1875\n",
      "note_on channel=0 note=60 velocity=127 time=0.013541666666666667\n",
      "note_off channel=0 note=61 velocity=127 time=0.00625\n",
      "note_on channel=0 note=62 velocity=127 time=0.013541666666666667\n",
      "note_off channel=0 note=60 velocity=127 time=0\n",
      "note_off channel=0 note=62 velocity=127 time=0.019791666666666666\n",
      "note_on channel=0 note=61 velocity=127 time=0.1625\n",
      "\u001b[91m [DEBUG] > \u001b[0m\n",
      " |>  to_array: msg.time > max_t; t, n\n",
      " |>  3.065625000000001\n",
      " |>  150\n",
      "note_on channel=0 note=61 velocity=127 time=0.003125\n",
      "note_on channel=0 note=62 velocity=127 time=0.007291666666666667\n",
      "note_off channel=0 note=61 velocity=127 time=0.0125\n",
      "note_off channel=0 note=62 velocity=127 time=0.007291666666666667\n",
      "note_on channel=0 note=62 velocity=127 time=0.04791666666666666\n",
      "note_on channel=0 note=60 velocity=127 time=0.00625\n",
      "note_off channel=0 note=62 velocity=127 time=0.013541666666666667\n",
      "note_off channel=0 note=60 velocity=127 time=0.00625\n",
      "note_on channel=0 note=61 velocity=127 time=0.003125\n",
      "note_off channel=0 note=61 velocity=127 time=0.019791666666666666\n",
      "note_on channel=0 note=62 velocity=127 time=0.01875\n",
      "note_off channel=0 note=62 velocity=127 time=0.019791666666666666\n",
      "note_on channel=0 note=61 velocity=127 time=0.04583333333333333\n",
      "note_on channel=0 note=62 velocity=127 time=0.0020833333333333333\n",
      "note_off channel=0 note=61 velocity=127 time=0.017708333333333333\n",
      "note_off channel=0 note=62 velocity=127 time=0.0020833333333333333\n",
      "note_on channel=0 note=60 velocity=127 time=0.011458333333333333\n",
      "note_off channel=0 note=60 velocity=127 time=0.019791666666666666\n",
      "note_on channel=0 note=62 velocity=127 time=0.015625\n",
      "note_off channel=0 note=62 velocity=127 time=0.019791666666666666\n",
      "note_on channel=0 note=61 velocity=127 time=0.013541666666666667\n",
      "note_off channel=0 note=61 velocity=127 time=0.019791666666666666\n",
      "note_on channel=0 note=62 velocity=127 time=0.013541666666666667\n"
     ]
    },
    {
     "name": "stdout",
     "output_type": "stream",
     "text": [
      "note_off channel=0 note=62 velocity=127 time=0.019791666666666666\n",
      "note_on channel=0 note=60 velocity=127 time=0.0375\n",
      "note_on channel=0 note=62 velocity=127 time=0.010416666666666666\n",
      "note_on channel=0 note=61 velocity=127 time=0.0020833333333333333\n",
      "note_off channel=0 note=60 velocity=127 time=0.007291666666666667\n",
      "note_off channel=0 note=62 velocity=127 time=0.010416666666666666\n",
      "note_off channel=0 note=61 velocity=127 time=0.0020833333333333333\n",
      "note_on channel=0 note=62 velocity=127 time=0.04583333333333333\n",
      "note_off channel=0 note=62 velocity=127 time=0.019791666666666666\n",
      "note_on channel=0 note=61 velocity=127 time=0.01875\n",
      "note_off channel=0 note=61 velocity=127 time=0.019791666666666666\n",
      "note_on channel=0 note=62 velocity=127 time=0.009375\n",
      "note_on channel=0 note=60 velocity=127 time=0.015625\n",
      "note_off channel=0 note=62 velocity=127 time=0.005208333333333333\n",
      "note_off channel=0 note=60 velocity=127 time=0.015625\n",
      "note_on channel=0 note=62 velocity=127 time=0.03229166666666666\n",
      "note_on channel=0 note=61 velocity=127 time=0.007291666666666667\n",
      "note_off channel=0 note=62 velocity=127 time=0.013541666666666667\n",
      "note_off channel=0 note=61 velocity=127 time=0.007291666666666667\n",
      "note_on channel=0 note=62 velocity=127 time=0.040625\n",
      "note_off channel=0 note=62 velocity=127 time=0.019791666666666666\n",
      "note_on channel=0 note=60 velocity=127 time=0.020833333333333332\n",
      "note_on channel=0 note=61 velocity=127 time=0.0020833333333333333\n",
      "note_off channel=0 note=60 velocity=127 time=0.017708333333333333\n",
      "note_off channel=0 note=61 velocity=127 time=0.0020833333333333333\n",
      "note_on channel=0 note=62 velocity=127 time=0.004166666666666667\n",
      "note_off channel=0 note=62 velocity=127 time=0.019791666666666666\n",
      "note_on channel=0 note=62 velocity=127 time=0.04791666666666666\n",
      "note_on channel=0 note=61 velocity=127 time=0.011458333333333333\n",
      "note_off channel=0 note=62 velocity=127 time=0.008333333333333333\n",
      "note_off channel=0 note=61 velocity=127 time=0.011458333333333333\n",
      "note_on channel=0 note=60 velocity=127 time=0.034375\n",
      "note_on channel=0 note=62 velocity=127 time=0.0010416666666666667\n",
      "note_off channel=0 note=60 velocity=127 time=0.01875\n",
      "note_off channel=0 note=62 velocity=127 time=0.0010416666666666667\n",
      "note_on channel=0 note=61 velocity=127 time=0.028125\n",
      "note_on channel=0 note=62 velocity=127 time=0.019791666666666666\n",
      "note_off channel=0 note=61 velocity=127 time=0\n",
      "note_off channel=0 note=62 velocity=127 time=0.019791666666666666\n",
      "note_on channel=0 note=62 velocity=127 time=0.04791666666666666\n",
      "note_on channel=0 note=61 velocity=127 time=0.016666666666666666\n",
      "note_off channel=0 note=62 velocity=127 time=0.004166666666666667\n",
      "note_on channel=0 note=60 velocity=127 time=0.004166666666666667\n",
      "note_off channel=0 note=61 velocity=127 time=0.011458333333333333\n",
      "note_off channel=0 note=60 velocity=127 time=0.008333333333333333\n",
      "note_on channel=0 note=62 velocity=127 time=0.02395833333333333\n",
      "note_off channel=0 note=62 velocity=127 time=0.019791666666666666\n",
      "note_on channel=0 note=61 velocity=127 time=0.03229166666666666\n",
      "note_on channel=0 note=62 velocity=127 time=0.015625\n",
      "note_off channel=0 note=61 velocity=127 time=0.005208333333333333\n",
      "note_off channel=0 note=62 velocity=127 time=0.015625\n",
      "note_on channel=0 note=60 velocity=127 time=0.030208333333333334\n",
      "note_on channel=0 note=62 velocity=127 time=0.017708333333333333\n",
      "note_off channel=0 note=60 velocity=127 time=0.0020833333333333333\n",
      "note_off channel=0 note=62 velocity=127 time=0.017708333333333333\n",
      "note_on channel=0 note=61 velocity=127 time=0.0010416666666666667\n",
      "note_off channel=0 note=61 velocity=127 time=0.019791666666666666\n",
      "note_on channel=0 note=62 velocity=127 time=0.027083333333333334\n",
      "note_off channel=0 note=62 velocity=127 time=0.019791666666666666\n",
      "note_on channel=0 note=61 velocity=127 time=0.0375\n",
      "note_on channel=0 note=62 velocity=127 time=0.010416666666666666\n",
      "note_on channel=0 note=60 velocity=127 time=0.007291666666666667\n",
      "note_off channel=0 note=61 velocity=127 time=0.0020833333333333333\n",
      "note_off channel=0 note=62 velocity=127 time=0.010416666666666666\n",
      "note_off channel=0 note=60 velocity=127 time=0.007291666666666667\n",
      "note_on channel=0 note=62 velocity=127 time=0.03958333333333333\n",
      "note_off channel=0 note=62 velocity=127 time=0.019791666666666666\n",
      "note_on channel=0 note=61 velocity=127 time=0.005208333333333333\n",
      "note_off channel=0 note=61 velocity=127 time=0.019791666666666666\n",
      "note_on channel=0 note=62 velocity=127 time=0.021875\n",
      "note_off channel=0 note=62 velocity=127 time=0.019791666666666666\n",
      "note_on channel=0 note=60 velocity=127 time=0.013541666666666667\n",
      "note_off channel=0 note=60 velocity=127 time=0.019791666666666666\n",
      "note_on channel=0 note=61 velocity=127 time=0.008333333333333333\n",
      "note_on channel=0 note=62 velocity=127 time=0.00625\n",
      "note_off channel=0 note=61 velocity=127 time=0.013541666666666667\n",
      "note_off channel=0 note=62 velocity=127 time=0.00625\n",
      "note_on channel=0 note=62 velocity=127 time=0.04791666666666666\n",
      "note_off channel=0 note=62 velocity=127 time=0.019791666666666666\n",
      "note_on channel=0 note=61 velocity=127 time=0.010416666666666666\n",
      "note_off channel=0 note=61 velocity=127 time=0.019791666666666666\n",
      "note_on channel=0 note=60 velocity=127 time=0.008333333333333333\n",
      "note_on channel=0 note=62 velocity=127 time=0.008333333333333333\n",
      "note_off channel=0 note=60 velocity=127 time=0.011458333333333333\n",
      "note_off channel=0 note=62 velocity=127 time=0.008333333333333333\n",
      "note_on channel=0 note=61 velocity=127 time=0.046875\n",
      "note_on channel=0 note=62 velocity=127 time=0.0010416666666666667\n",
      "note_off channel=0 note=61 velocity=127 time=0.01875\n",
      "note_off channel=0 note=62 velocity=127 time=0.0010416666666666667\n",
      "note_on channel=0 note=62 velocity=127 time=0.04791666666666666\n",
      "note_on channel=0 note=60 velocity=127 time=0.016666666666666666\n",
      "note_off channel=0 note=62 velocity=127 time=0.003125\n",
      "note_on channel=0 note=61 velocity=127 time=0.014583333333333334\n",
      "note_off channel=0 note=60 velocity=127 time=0.0020833333333333333\n",
      "note_off channel=0 note=61 velocity=127 time=0.017708333333333333\n",
      "note_on channel=0 note=62 velocity=127 time=0.0125\n",
      "note_off channel=0 note=62 velocity=127 time=0.019791666666666666\n",
      "note_on channel=0 note=62 velocity=127 time=0.04791666666666666\n",
      "note_on channel=0 note=61 velocity=127 time=0.003125\n",
      "note_off channel=0 note=62 velocity=127 time=0.016666666666666666\n",
      "note_off channel=0 note=61 velocity=127 time=0.003125\n",
      "note_on channel=0 note=60 velocity=127 time=0.01875\n",
      "note_off channel=0 note=60 velocity=127 time=0.019791666666666666\n",
      "note_on channel=0 note=62 velocity=127 time=0.005208333333333333\n",
      "note_off channel=0 note=62 velocity=127 time=0.019791666666666666\n",
      "note_on channel=0 note=61 velocity=127 time=0.019791666666666666\n",
      "note_off channel=0 note=61 velocity=127 time=0.019791666666666666\n",
      "note_on channel=0 note=62 velocity=127 time=0.008333333333333333\n",
      "note_off channel=0 note=62 velocity=127 time=0.019791666666666666\n",
      "note_on channel=0 note=62 velocity=127 time=0.04791666666666666\n",
      "note_on channel=0 note=60 velocity=127 time=0\n",
      "note_on channel=0 note=61 velocity=127 time=0.007291666666666667\n",
      "note_off channel=0 note=62 velocity=127 time=0.011458333333333333\n",
      "note_off channel=0 note=60 velocity=127 time=0\n",
      "note_off channel=0 note=61 velocity=127 time=0.007291666666666667\n",
      "note_on channel=0 note=62 velocity=127 time=0.03958333333333333\n",
      "note_off channel=0 note=62 velocity=127 time=0.019791666666666666\n",
      "note_on channel=0 note=61 velocity=127 time=0.02395833333333333\n",
      "note_off channel=0 note=61 velocity=127 time=0.019791666666666666\n",
      "note_on channel=0 note=62 velocity=127 time=0.003125\n",
      "note_off channel=0 note=62 velocity=127 time=0.019791666666666666\n",
      "note_on channel=0 note=60 velocity=127 time=0.00625\n",
      "note_off channel=0 note=60 velocity=127 time=0.019791666666666666\n",
      "note_on channel=0 note=62 velocity=127 time=0.021875\n",
      "note_on channel=0 note=61 velocity=127 time=0.0125\n",
      "note_off channel=0 note=62 velocity=127 time=0.007291666666666667\n",
      "note_off channel=0 note=61 velocity=127 time=0.0125\n",
      "note_on channel=0 note=62 velocity=127 time=0.035416666666666666\n",
      "note_off channel=0 note=62 velocity=127 time=0.019791666666666666\n",
      "note_on channel=0 note=61 velocity=127 time=0.029166666666666667\n",
      "note_on channel=0 note=60 velocity=127 time=0.003125\n",
      "note_on channel=0 note=62 velocity=127 time=0.016666666666666666\n",
      "note_off channel=0 note=61 velocity=127 time=0.0010416666666666667\n",
      "note_off channel=0 note=60 velocity=127 time=0.003125\n",
      "note_off channel=0 note=62 velocity=127 time=0.016666666666666666\n",
      "note_on channel=0 note=62 velocity=127 time=0.04791666666666666\n",
      "note_on channel=0 note=61 velocity=127 time=0.017708333333333333\n",
      "note_off channel=0 note=62 velocity=127 time=0.0020833333333333333\n",
      "note_off channel=0 note=61 velocity=127 time=0.017708333333333333\n",
      "note_on channel=0 note=62 velocity=127 time=0.030208333333333334\n",
      "note_on channel=0 note=60 velocity=127 time=0.009375\n",
      "note_off channel=0 note=62 velocity=127 time=0.010416666666666666\n",
      "note_off channel=0 note=60 velocity=127 time=0.009375\n",
      "note_on channel=0 note=61 velocity=127 time=0.02395833333333333\n",
      "note_on channel=0 note=62 velocity=127 time=0.014583333333333334\n",
      "note_off channel=0 note=61 velocity=127 time=0.00625\n",
      "note_off channel=0 note=62 velocity=127 time=0.014583333333333334\n",
      "note_on channel=0 note=62 velocity=127 time=0.04791666666666666\n",
      "note_off channel=0 note=62 velocity=127 time=0.019791666666666666\n",
      "note_on channel=0 note=61 velocity=127 time=0.0020833333333333333\n",
      "note_on channel=0 note=60 velocity=127 time=0.0125\n",
      "note_off channel=0 note=61 velocity=127 time=0.007291666666666667\n",
      "note_off channel=0 note=60 velocity=127 time=0.0125\n",
      "note_on channel=0 note=62 velocity=127 time=0.0125\n",
      "note_off channel=0 note=62 velocity=127 time=0.019791666666666666\n",
      "note_on channel=0 note=61 velocity=127 time=0.03854166666666667\n",
      "note_on channel=0 note=62 velocity=127 time=0.009375\n",
      "note_off channel=0 note=61 velocity=127 time=0.010416666666666666\n",
      "note_off channel=0 note=62 velocity=127 time=0.009375\n",
      "note_on channel=0 note=60 velocity=127 time=0.040625\n",
      "note_on channel=0 note=62 velocity=127 time=0.007291666666666667\n",
      "note_off channel=0 note=60 velocity=127 time=0.0125\n",
      "\u001b[91m [DEBUG] > \u001b[0m\n",
      " |>  to_array: msg.time > max_t; t, n\n",
      " |>  2.995833333333336\n",
      " |>  150\n",
      "note_on channel=0 note=61 velocity=127 time=0.026041666666666668\n",
      "note_off channel=0 note=61 velocity=127 time=0.019791666666666666\n",
      "note_on channel=0 note=62 velocity=127 time=0.011458333333333333\n",
      "note_off channel=0 note=62 velocity=127 time=0.019791666666666666\n",
      "note_on channel=0 note=61 velocity=127 time=0.027083333333333334\n",
      "note_off channel=0 note=61 velocity=127 time=0.019791666666666666\n",
      "note_on channel=0 note=62 velocity=127 time=0.015625\n",
      "note_on channel=0 note=60 velocity=127 time=0.0010416666666666667\n",
      "note_off channel=0 note=62 velocity=127 time=0.01875\n",
      "note_off channel=0 note=60 velocity=127 time=0.0010416666666666667\n",
      "note_on channel=0 note=61 velocity=127 time=0.020833333333333332\n",
      "note_off channel=0 note=61 velocity=127 time=0.019791666666666666\n",
      "note_on channel=0 note=62 velocity=127 time=0.020833333333333332\n",
      "note_off channel=0 note=62 velocity=127 time=0.019791666666666666\n",
      "note_on channel=0 note=61 velocity=127 time=0.016666666666666666\n",
      "note_off channel=0 note=61 velocity=127 time=0.019791666666666666\n",
      "note_on channel=0 note=62 velocity=127 time=0.026041666666666668\n",
      "note_off channel=0 note=62 velocity=127 time=0.019791666666666666\n",
      "note_on channel=0 note=61 velocity=127 time=0.011458333333333333\n",
      "note_off channel=0 note=61 velocity=127 time=0.019791666666666666\n",
      "note_on channel=0 note=62 velocity=127 time=0.03125\n",
      "note_off channel=0 note=62 velocity=127 time=0.019791666666666666\n",
      "note_on channel=0 note=61 velocity=127 time=0.007291666666666667\n",
      "note_off channel=0 note=61 velocity=127 time=0.019791666666666666\n",
      "note_on channel=0 note=60 velocity=127 time=0.027083333333333334\n",
      "note_on channel=0 note=62 velocity=127 time=0.009375\n",
      "note_off channel=0 note=60 velocity=127 time=0.010416666666666666\n",
      "note_off channel=0 note=62 velocity=127 time=0.009375\n",
      "note_on channel=0 note=61 velocity=127 time=0.0020833333333333333\n",
      "note_off channel=0 note=61 velocity=127 time=0.019791666666666666\n",
      "note_on channel=0 note=62 velocity=127 time=0.041666666666666664\n",
      "note_on channel=0 note=61 velocity=127 time=0.016666666666666666\n",
      "note_off channel=0 note=62 velocity=127 time=0.003125\n",
      "note_off channel=0 note=61 velocity=127 time=0.016666666666666666\n",
      "note_on channel=0 note=62 velocity=127 time=0.04583333333333333\n",
      "note_on channel=0 note=61 velocity=127 time=0.011458333333333333\n",
      "note_off channel=0 note=62 velocity=127 time=0.008333333333333333\n",
      "note_off channel=0 note=61 velocity=127 time=0.011458333333333333\n",
      "note_on channel=0 note=62 velocity=127 time=0.051041666666666666\n",
      "note_on channel=0 note=61 velocity=127 time=0.00625\n",
      "note_off channel=0 note=62 velocity=127 time=0.013541666666666667\n",
      "note_off channel=0 note=61 velocity=127 time=0.00625\n",
      "note_on channel=0 note=60 velocity=127 time=0.036458333333333336\n",
      "note_off channel=0 note=60 velocity=127 time=0.019791666666666666\n",
      "note_on channel=0 note=62 velocity=127 time=0\n",
      "note_on channel=0 note=61 velocity=127 time=0.0020833333333333333\n",
      "note_off channel=0 note=62 velocity=127 time=0.01875\n",
      "note_off channel=0 note=61 velocity=127 time=0.0020833333333333333\n",
      "note_on channel=0 note=61 velocity=127 time=0.058333333333333334\n",
      "note_on channel=0 note=62 velocity=127 time=0.003125\n",
      "note_off channel=0 note=61 velocity=127 time=0.016666666666666666\n",
      "note_off channel=0 note=62 velocity=127 time=0.003125\n",
      "note_on channel=0 note=61 velocity=127 time=0.05520833333333333\n",
      "note_on channel=0 note=62 velocity=127 time=0.008333333333333333\n",
      "note_off channel=0 note=61 velocity=127 time=0.011458333333333333\n",
      "note_off channel=0 note=62 velocity=127 time=0.008333333333333333\n",
      "note_on channel=0 note=61 velocity=127 time=0.05\n",
      "note_on channel=0 note=62 velocity=127 time=0.013541666666666667\n",
      "note_off channel=0 note=61 velocity=127 time=0.00625\n",
      "note_off channel=0 note=62 velocity=127 time=0.013541666666666667\n",
      "note_on channel=0 note=60 velocity=127 time=0.03229166666666666\n",
      "note_on channel=0 note=61 velocity=127 time=0.0125\n",
      "note_off channel=0 note=60 velocity=127 time=0.007291666666666667\n",
      "note_on channel=0 note=62 velocity=127 time=0.011458333333333333\n",
      "note_off channel=0 note=61 velocity=127 time=0.0010416666666666667\n",
      "note_off channel=0 note=62 velocity=127 time=0.01875\n",
      "note_on channel=0 note=61 velocity=127 time=0.03958333333333333\n",
      "note_off channel=0 note=61 velocity=127 time=0.019791666666666666\n",
      "note_on channel=0 note=62 velocity=127 time=0.003125\n",
      "note_off channel=0 note=62 velocity=127 time=0.019791666666666666\n",
      "note_on channel=0 note=61 velocity=127 time=0.034375\n",
      "note_off channel=0 note=61 velocity=127 time=0.019791666666666666\n",
      "note_on channel=0 note=62 velocity=127 time=0.008333333333333333\n",
      "note_off channel=0 note=62 velocity=127 time=0.019791666666666666\n",
      "note_on channel=0 note=61 velocity=127 time=0.029166666666666667\n",
      "note_off channel=0 note=61 velocity=127 time=0.019791666666666666\n",
      "note_on channel=0 note=62 velocity=127 time=0.013541666666666667\n",
      "note_off channel=0 note=62 velocity=127 time=0.019791666666666666\n",
      "note_on channel=0 note=60 velocity=127 time=0.021875\n",
      "note_on channel=0 note=61 velocity=127 time=0.003125\n",
      "note_off channel=0 note=60 velocity=127 time=0.016666666666666666\n",
      "note_off channel=0 note=61 velocity=127 time=0.003125\n",
      "note_on channel=0 note=62 velocity=127 time=0.01875\n",
      "note_off channel=0 note=62 velocity=127 time=0.019791666666666666\n",
      "note_on channel=0 note=61 velocity=127 time=0.019791666666666666\n",
      "note_off channel=0 note=61 velocity=127 time=0.019791666666666666\n",
      "note_on channel=0 note=62 velocity=127 time=0.02395833333333333\n",
      "note_off channel=0 note=62 velocity=127 time=0.019791666666666666\n",
      "note_on channel=0 note=61 velocity=127 time=0.014583333333333334\n",
      "note_off channel=0 note=61 velocity=127 time=0.019791666666666666\n",
      "note_on channel=0 note=62 velocity=127 time=0.029166666666666667\n",
      "note_off channel=0 note=62 velocity=127 time=0.019791666666666666\n",
      "note_on channel=0 note=61 velocity=127 time=0.009375\n",
      "note_off channel=0 note=61 velocity=127 time=0.019791666666666666\n",
      "note_on channel=0 note=62 velocity=127 time=0.03333333333333333\n",
      "note_off channel=0 note=62 velocity=127 time=0.019791666666666666\n",
      "note_on channel=0 note=61 velocity=127 time=0.004166666666666667\n",
      "note_on channel=0 note=60 velocity=127 time=0.00625\n",
      "note_off channel=0 note=61 velocity=127 time=0.013541666666666667\n",
      "note_off channel=0 note=60 velocity=127 time=0.00625\n",
      "note_on channel=0 note=62 velocity=127 time=0.03229166666666666\n",
      "note_on channel=0 note=61 velocity=127 time=0.01875\n",
      "note_off channel=0 note=62 velocity=127 time=0.0010416666666666667\n",
      "note_off channel=0 note=61 velocity=127 time=0.01875\n",
      "note_on channel=0 note=62 velocity=127 time=0.04375\n",
      "note_on channel=0 note=61 velocity=127 time=0.014583333333333334\n",
      "note_off channel=0 note=62 velocity=127 time=0.00625\n",
      "note_off channel=0 note=61 velocity=127 time=0.014583333333333334\n",
      "note_on channel=0 note=62 velocity=127 time=0.04895833333333333\n",
      "note_on channel=0 note=61 velocity=127 time=0.009375\n",
      "note_off channel=0 note=62 velocity=127 time=0.010416666666666666\n",
      "note_off channel=0 note=61 velocity=127 time=0.009375\n",
      "note_on channel=0 note=62 velocity=127 time=0.05416666666666667\n",
      "note_on channel=0 note=61 velocity=127 time=0.004166666666666667\n",
      "note_on channel=0 note=60 velocity=127 time=0.015625\n",
      "note_off channel=0 note=62 velocity=127 time=0\n",
      "note_off channel=0 note=61 velocity=127 time=0.004166666666666667\n",
      "note_off channel=0 note=60 velocity=127 time=0.015625\n",
      "note_on channel=0 note=61 velocity=127 time=0.042708333333333334\n",
      "note_on channel=0 note=62 velocity=127 time=0.0010416666666666667\n",
      "note_off channel=0 note=61 velocity=127 time=0.01875\n",
      "note_off channel=0 note=62 velocity=127 time=0.0010416666666666667\n",
      "note_on channel=0 note=61 velocity=127 time=0.057291666666666664\n",
      "note_on channel=0 note=62 velocity=127 time=0.00625\n",
      "note_off channel=0 note=61 velocity=127 time=0.013541666666666667\n",
      "note_off channel=0 note=62 velocity=127 time=0.00625\n",
      "note_on channel=0 note=61 velocity=127 time=0.052083333333333336\n",
      "note_on channel=0 note=62 velocity=127 time=0.011458333333333333\n",
      "note_off channel=0 note=61 velocity=127 time=0.009375\n",
      "note_off channel=0 note=62 velocity=127 time=0.011458333333333333\n",
      "note_on channel=0 note=61 velocity=127 time=0.046875\n",
      "note_on channel=0 note=62 velocity=127 time=0.015625\n",
      "note_off channel=0 note=61 velocity=127 time=0.004166666666666667\n",
      "note_on channel=0 note=60 velocity=127 time=0.005208333333333333\n",
      "note_off channel=0 note=62 velocity=127 time=0.010416666666666666\n",
      "note_off channel=0 note=60 velocity=127 time=0.009375\n",
      "note_on channel=0 note=61 velocity=127 time=0.03229166666666666\n",
      "note_off channel=0 note=61 velocity=127 time=0.019791666666666666\n",
      "note_on channel=0 note=62 velocity=127 time=0.0010416666666666667\n",
      "note_off channel=0 note=62 velocity=127 time=0.019791666666666666\n",
      "note_on channel=0 note=61 velocity=127 time=0.036458333333333336\n",
      "note_off channel=0 note=61 velocity=127 time=0.019791666666666666\n",
      "note_on channel=0 note=62 velocity=127 time=0.00625\n",
      "note_off channel=0 note=62 velocity=127 time=0.019791666666666666\n",
      "note_on channel=0 note=61 velocity=127 time=0.03229166666666666\n",
      "note_off channel=0 note=61 velocity=127 time=0.019791666666666666\n",
      "note_on channel=0 note=62 velocity=127 time=0.011458333333333333\n",
      "note_off channel=0 note=62 velocity=127 time=0.019791666666666666\n",
      "note_on channel=0 note=61 velocity=127 time=0.027083333333333334\n",
      "note_off channel=0 note=61 velocity=127 time=0.019791666666666666\n",
      "note_on channel=0 note=60 velocity=127 time=0.014583333333333334\n",
      "note_on channel=0 note=62 velocity=127 time=0.0010416666666666667\n",
      "note_off channel=0 note=60 velocity=127 time=0.01875\n",
      "note_off channel=0 note=62 velocity=127 time=0.0010416666666666667\n",
      "note_on channel=0 note=61 velocity=127 time=0.021875\n",
      "note_off channel=0 note=61 velocity=127 time=0.019791666666666666\n",
      "note_on channel=0 note=62 velocity=127 time=0.020833333333333332\n",
      "note_off channel=0 note=62 velocity=127 time=0.019791666666666666\n",
      "note_on channel=0 note=61 velocity=127 time=0.016666666666666666\n",
      "note_off channel=0 note=61 velocity=127 time=0.019791666666666666\n",
      "note_on channel=0 note=62 velocity=127 time=0.026041666666666668\n",
      "note_off channel=0 note=62 velocity=127 time=0.019791666666666666\n",
      "note_on channel=0 note=61 velocity=127 time=0.011458333333333333\n",
      "note_off channel=0 note=61 velocity=127 time=0.019791666666666666\n",
      "note_on channel=0 note=62 velocity=127 time=0.03125\n",
      "note_off channel=0 note=62 velocity=127 time=0.019791666666666666\n",
      "note_on channel=0 note=61 velocity=127 time=0.00625\n",
      "note_off channel=0 note=61 velocity=127 time=0.019791666666666666\n",
      "\u001b[91m [DEBUG] > \u001b[0m\n",
      " |>  to_array: msg.time > max_t; t, n\n",
      " |>  3.002083333333335\n",
      " |>  150\n",
      "note_on channel=0 note=60 velocity=127 time=0.04479166666666667\n",
      "note_on channel=0 note=61 velocity=127 time=0.011458333333333333\n",
      "note_off channel=0 note=60 velocity=127 time=0.008333333333333333\n",
      "note_off channel=0 note=61 velocity=127 time=0.011458333333333333\n",
      "note_on channel=0 note=60 velocity=127 time=0.040625\n",
      "note_off channel=0 note=60 velocity=127 time=0.019791666666666666\n",
      "note_on channel=0 note=61 velocity=127 time=0.013541666666666667\n",
      "note_off channel=0 note=61 velocity=127 time=0.019791666666666666\n",
      "note_on channel=0 note=62 velocity=127 time=0.013541666666666667\n",
      "note_on channel=0 note=60 velocity=127 time=0.005208333333333333\n",
      "note_off channel=0 note=62 velocity=127 time=0.014583333333333334\n",
      "note_off channel=0 note=60 velocity=127 time=0.005208333333333333\n",
      "note_on channel=0 note=61 velocity=127 time=0.035416666666666666\n",
      "note_on channel=0 note=60 velocity=127 time=0.016666666666666666\n",
      "note_off channel=0 note=61 velocity=127 time=0.003125\n",
      "note_off channel=0 note=60 velocity=127 time=0.016666666666666666\n",
      "note_on channel=0 note=60 velocity=127 time=0.052083333333333336\n",
      "note_on channel=0 note=61 velocity=127 time=0.005208333333333333\n",
      "note_off channel=0 note=60 velocity=127 time=0.014583333333333334\n",
      "note_off channel=0 note=61 velocity=127 time=0.005208333333333333\n",
      "note_on channel=0 note=62 velocity=127 time=0.019791666666666666\n",
      "note_off channel=0 note=62 velocity=127 time=0.019791666666666666\n",
      "note_on channel=0 note=60 velocity=127 time=0.007291666666666667\n",
      "note_off channel=0 note=60 velocity=127 time=0.019791666666666666\n",
      "note_on channel=0 note=61 velocity=127 time=0.007291666666666667\n",
      "note_off channel=0 note=61 velocity=127 time=0.019791666666666666\n",
      "note_on channel=0 note=60 velocity=127 time=0.025\n",
      "note_off channel=0 note=60 velocity=127 time=0.019791666666666666\n",
      "note_on channel=0 note=61 velocity=127 time=0.029166666666666667\n",
      "note_off channel=0 note=61 velocity=127 time=0.019791666666666666\n",
      "note_on channel=0 note=60 velocity=127 time=0.003125\n",
      "note_off channel=0 note=60 velocity=127 time=0.019791666666666666\n",
      "note_on channel=0 note=62 velocity=127 time=0.003125\n",
      "note_off channel=0 note=62 velocity=127 time=0.019791666666666666\n",
      "note_on channel=0 note=61 velocity=127 time=0.028125\n",
      "note_on channel=0 note=60 velocity=127 time=0.0010416666666666667\n",
      "note_off channel=0 note=61 velocity=127 time=0.01875\n",
      "note_off channel=0 note=60 velocity=127 time=0.0010416666666666667\n",
      "note_on channel=0 note=60 velocity=127 time=0.052083333333333336\n",
      "note_off channel=0 note=60 velocity=127 time=0.019791666666666666\n",
      "note_on channel=0 note=61 velocity=127 time=0.0010416666666666667\n",
      "note_off channel=0 note=61 velocity=127 time=0.019791666666666666\n",
      "note_on channel=0 note=60 velocity=127 time=0.03125\n",
      "note_on channel=0 note=62 velocity=127 time=0.0010416666666666667\n",
      "note_off channel=0 note=60 velocity=127 time=0.01875\n",
      "note_off channel=0 note=62 velocity=127 time=0.0010416666666666667\n",
      "note_on channel=0 note=61 velocity=127 time=0.021875\n",
      "note_off channel=0 note=61 velocity=127 time=0.019791666666666666\n",
      "note_on channel=0 note=60 velocity=127 time=0.009375\n",
      "note_off channel=0 note=60 velocity=127 time=0.019791666666666666\n",
      "note_on channel=0 note=61 velocity=127 time=0.04479166666666667\n",
      "note_on channel=0 note=60 velocity=127 time=0.007291666666666667\n",
      "note_off channel=0 note=61 velocity=127 time=0.0125\n",
      "note_off channel=0 note=60 velocity=127 time=0.007291666666666667\n",
      "note_on channel=0 note=62 velocity=127 time=0.030208333333333334\n",
      "note_off channel=0 note=62 velocity=127 time=0.019791666666666666\n",
      "note_on channel=0 note=60 velocity=127 time=0.0010416666666666667\n",
      "note_on channel=0 note=61 velocity=127 time=0.014583333333333334\n",
      "note_off channel=0 note=60 velocity=127 time=0.005208333333333333\n",
      "note_off channel=0 note=61 velocity=127 time=0.014583333333333334\n",
      "note_on channel=0 note=60 velocity=127 time=0.0375\n",
      "note_off channel=0 note=60 velocity=127 time=0.019791666666666666\n",
      "note_on channel=0 note=61 velocity=127 time=0.016666666666666666\n",
      "note_off channel=0 note=61 velocity=127 time=0.019791666666666666\n",
      "note_on channel=0 note=60 velocity=127 time=0.015625\n",
      "note_off channel=0 note=60 velocity=127 time=0.019791666666666666\n",
      "note_on channel=0 note=62 velocity=127 time=0.008333333333333333\n",
      "note_off channel=0 note=62 velocity=127 time=0.019791666666666666\n",
      "note_on channel=0 note=61 velocity=127 time=0.009375\n",
      "note_on channel=0 note=60 velocity=127 time=0.013541666666666667\n",
      "note_off channel=0 note=61 velocity=127 time=0.00625\n",
      "note_off channel=0 note=60 velocity=127 time=0.013541666666666667\n",
      "note_on channel=0 note=60 velocity=127 time=0.052083333333333336\n",
      "note_on channel=0 note=61 velocity=127 time=0.008333333333333333\n",
      "note_off channel=0 note=60 velocity=127 time=0.011458333333333333\n",
      "note_off channel=0 note=61 velocity=127 time=0.008333333333333333\n",
      "note_on channel=0 note=60 velocity=127 time=0.04375\n",
      "note_on channel=0 note=62 velocity=127 time=0.007291666666666667\n",
      "note_off channel=0 note=60 velocity=127 time=0.013541666666666667\n",
      "note_off channel=0 note=62 velocity=127 time=0.007291666666666667\n",
      "note_on channel=0 note=61 velocity=127 time=0.003125\n",
      "note_off channel=0 note=61 velocity=127 time=0.019791666666666666\n",
      "note_on channel=0 note=60 velocity=127 time=0.021875\n",
      "note_off channel=0 note=60 velocity=127 time=0.019791666666666666\n",
      "note_on channel=0 note=61 velocity=127 time=0.03229166666666666\n",
      "note_on channel=0 note=60 velocity=127 time=0.019791666666666666\n",
      "note_off channel=0 note=61 velocity=127 time=0\n",
      "note_off channel=0 note=60 velocity=127 time=0.019791666666666666\n",
      "note_on channel=0 note=62 velocity=127 time=0.036458333333333336\n",
      "note_on channel=0 note=60 velocity=127 time=0.014583333333333334\n",
      "note_on channel=0 note=61 velocity=127 time=0.0020833333333333333\n",
      "note_off channel=0 note=62 velocity=127 time=0.003125\n",
      "note_off channel=0 note=60 velocity=127 time=0.014583333333333334\n",
      "note_off channel=0 note=61 velocity=127 time=0.0020833333333333333\n",
      "note_on channel=0 note=60 velocity=127 time=0.05\n",
      "note_off channel=0 note=60 velocity=127 time=0.019791666666666666\n",
      "note_on channel=0 note=61 velocity=127 time=0.004166666666666667\n",
      "note_off channel=0 note=61 velocity=127 time=0.019791666666666666\n",
      "note_on channel=0 note=60 velocity=127 time=0.028125\n",
      "note_off channel=0 note=60 velocity=127 time=0.019791666666666666\n",
      "note_on channel=0 note=62 velocity=127 time=0.014583333333333334\n",
      "note_on channel=0 note=61 velocity=127 time=0.011458333333333333\n",
      "note_off channel=0 note=62 velocity=127 time=0.009375\n",
      "note_off channel=0 note=61 velocity=127 time=0.011458333333333333\n",
      "note_on channel=0 note=60 velocity=127 time=0.00625\n",
      "note_off channel=0 note=60 velocity=127 time=0.019791666666666666\n",
      "note_on channel=0 note=61 velocity=127 time=0.04791666666666666\n",
      "note_on channel=0 note=60 velocity=127 time=0.004166666666666667\n",
      "note_off channel=0 note=61 velocity=127 time=0.015625\n",
      "note_off channel=0 note=60 velocity=127 time=0.004166666666666667\n",
      "note_on channel=0 note=60 velocity=127 time=0.052083333333333336\n",
      "note_on channel=0 note=62 velocity=127 time=0.013541666666666667\n",
      "note_on channel=0 note=61 velocity=127 time=0.005208333333333333\n",
      "note_off channel=0 note=60 velocity=127 time=0.0020833333333333333\n",
      "note_off channel=0 note=62 velocity=127 time=0.013541666666666667\n",
      "note_off channel=0 note=61 velocity=127 time=0.005208333333333333\n",
      "note_on channel=0 note=60 velocity=127 time=0.034375\n",
      "note_off channel=0 note=60 velocity=127 time=0.019791666666666666\n",
      "note_on channel=0 note=61 velocity=127 time=0.019791666666666666\n",
      "note_off channel=0 note=61 velocity=127 time=0.019791666666666666\n",
      "note_on channel=0 note=60 velocity=127 time=0.0125\n",
      "note_off channel=0 note=60 velocity=127 time=0.019791666666666666\n",
      "note_on channel=0 note=61 velocity=127 time=0.041666666666666664\n",
      "note_on channel=0 note=62 velocity=127 time=0.0010416666666666667\n",
      "note_on channel=0 note=60 velocity=127 time=0.009375\n",
      "note_off channel=0 note=61 velocity=127 time=0.009375\n",
      "note_off channel=0 note=62 velocity=127 time=0.0010416666666666667\n",
      "note_off channel=0 note=60 velocity=127 time=0.009375\n",
      "note_on channel=0 note=60 velocity=127 time=0.052083333333333336\n",
      "note_on channel=0 note=61 velocity=127 time=0.011458333333333333\n",
      "note_off channel=0 note=60 velocity=127 time=0.008333333333333333\n",
      "note_off channel=0 note=61 velocity=127 time=0.011458333333333333\n",
      "note_on channel=0 note=60 velocity=127 time=0.040625\n",
      "note_off channel=0 note=60 velocity=127 time=0.019791666666666666\n",
      "note_on channel=0 note=61 velocity=127 time=0.013541666666666667\n",
      "note_on channel=0 note=62 velocity=127 time=0.007291666666666667\n",
      "note_off channel=0 note=61 velocity=127 time=0.0125\n",
      "note_off channel=0 note=62 velocity=127 time=0.007291666666666667\n",
      "note_on channel=0 note=60 velocity=127 time=0.010416666666666666\n",
      "note_off channel=0 note=60 velocity=127 time=0.019791666666666666\n",
      "note_on channel=0 note=61 velocity=127 time=0.035416666666666666\n",
      "note_on channel=0 note=60 velocity=127 time=0.016666666666666666\n",
      "note_off channel=0 note=61 velocity=127 time=0.003125\n",
      "note_off channel=0 note=60 velocity=127 time=0.016666666666666666\n",
      "note_on channel=0 note=60 velocity=127 time=0.052083333333333336\n",
      "note_on channel=0 note=61 velocity=127 time=0.005208333333333333\n",
      "note_on channel=0 note=62 velocity=127 time=0.013541666666666667\n",
      "note_off channel=0 note=60 velocity=127 time=0.0010416666666666667\n",
      "note_off channel=0 note=61 velocity=127 time=0.005208333333333333\n",
      "note_off channel=0 note=62 velocity=127 time=0.013541666666666667\n",
      "note_on channel=0 note=60 velocity=127 time=0.03229166666666666\n",
      "note_off channel=0 note=60 velocity=127 time=0.019791666666666666\n",
      "note_on channel=0 note=61 velocity=127 time=0.007291666666666667\n",
      "note_off channel=0 note=61 velocity=127 time=0.019791666666666666\n",
      "note_on channel=0 note=60 velocity=127 time=0.025\n",
      "note_off channel=0 note=60 velocity=127 time=0.019791666666666666\n",
      "note_on channel=0 note=61 velocity=127 time=0.029166666666666667\n",
      "note_on channel=0 note=62 velocity=127 time=0.019791666666666666\n",
      "note_off channel=0 note=61 velocity=127 time=0\n",
      "note_on channel=0 note=60 velocity=127 time=0.003125\n",
      "note_off channel=0 note=62 velocity=127 time=0.017708333333333333\n",
      "note_off channel=0 note=60 velocity=127 time=0.003125\n",
      "note_on channel=0 note=61 velocity=127 time=0.051041666666666666\n",
      "note_on channel=0 note=60 velocity=127 time=0.0010416666666666667\n",
      "note_off channel=0 note=61 velocity=127 time=0.019791666666666666\n",
      "note_off channel=0 note=60 velocity=127 time=0.0010416666666666667\n",
      "note_on channel=0 note=60 velocity=127 time=0.052083333333333336\n",
      "note_off channel=0 note=60 velocity=127 time=0.019791666666666666\n",
      "note_on channel=0 note=61 velocity=127 time=0.0010416666666666667\n",
      "note_off channel=0 note=61 velocity=127 time=0.019791666666666666\n",
      "note_on channel=0 note=62 velocity=127 time=0.00625\n",
      "note_off channel=0 note=62 velocity=127 time=0.019791666666666666\n",
      "note_on channel=0 note=60 velocity=127 time=0.004166666666666667\n",
      "note_off channel=0 note=60 velocity=127 time=0.019791666666666666\n",
      "note_on channel=0 note=61 velocity=127 time=0.022916666666666665\n",
      "note_off channel=0 note=61 velocity=127 time=0.019791666666666666\n",
      "note_on channel=0 note=60 velocity=127 time=0.008333333333333333\n",
      "\u001b[91m [DEBUG] > \u001b[0m\n",
      " |>  to_array: msg.time > max_t; t, n\n",
      " |>  2.9906250000000028\n",
      " |>  150\n",
      "note_on channel=0 note=61 velocity=127 time=0.0020833333333333333\n",
      "note_on channel=0 note=60 velocity=127 time=0.017708333333333333\n",
      "note_off channel=0 note=61 velocity=127 time=0.003125\n",
      "note_off channel=0 note=60 velocity=127 time=0.017708333333333333\n",
      "note_on channel=0 note=62 velocity=127 time=0.009375\n",
      "note_off channel=0 note=62 velocity=127 time=0.019791666666666666\n",
      "note_on channel=0 note=61 velocity=127 time=0.016666666666666666\n",
      "note_off channel=0 note=61 velocity=127 time=0.019791666666666666\n",
      "note_on channel=0 note=62 velocity=127 time=0.021875\n",
      "note_off channel=0 note=62 velocity=127 time=0.019791666666666666\n",
      "note_on channel=0 note=61 velocity=127 time=0.020833333333333332\n",
      "note_off channel=0 note=61 velocity=127 time=0.019791666666666666\n",
      "note_on channel=0 note=62 velocity=127 time=0.016666666666666666\n",
      "note_off channel=0 note=62 velocity=127 time=0.019791666666666666\n"
     ]
    },
    {
     "name": "stdout",
     "output_type": "stream",
     "text": [
      "note_on channel=0 note=60 velocity=127 time=0.009375\n",
      "note_on channel=0 note=61 velocity=127 time=0.016666666666666666\n",
      "note_off channel=0 note=60 velocity=127 time=0.004166666666666667\n",
      "note_off channel=0 note=61 velocity=127 time=0.016666666666666666\n",
      "note_on channel=0 note=62 velocity=127 time=0.011458333333333333\n",
      "note_off channel=0 note=62 velocity=127 time=0.019791666666666666\n",
      "note_on channel=0 note=61 velocity=127 time=0.03125\n",
      "note_off channel=0 note=61 velocity=127 time=0.019791666666666666\n",
      "note_on channel=0 note=62 velocity=127 time=0.00625\n",
      "note_off channel=0 note=62 velocity=127 time=0.019791666666666666\n",
      "note_on channel=0 note=61 velocity=127 time=0.035416666666666666\n",
      "note_off channel=0 note=61 velocity=127 time=0.019791666666666666\n",
      "note_on channel=0 note=62 velocity=127 time=0.0020833333333333333\n",
      "note_on channel=0 note=60 velocity=127 time=0.010416666666666666\n",
      "note_off channel=0 note=62 velocity=127 time=0.009375\n",
      "note_off channel=0 note=60 velocity=127 time=0.010416666666666666\n",
      "note_on channel=0 note=61 velocity=127 time=0.030208333333333334\n",
      "note_on channel=0 note=62 velocity=127 time=0.016666666666666666\n",
      "note_off channel=0 note=61 velocity=127 time=0.003125\n",
      "note_off channel=0 note=62 velocity=127 time=0.016666666666666666\n",
      "note_on channel=0 note=61 velocity=127 time=0.04583333333333333\n",
      "note_on channel=0 note=62 velocity=127 time=0.0125\n",
      "note_off channel=0 note=61 velocity=127 time=0.008333333333333333\n",
      "note_off channel=0 note=62 velocity=127 time=0.0125\n",
      "note_on channel=0 note=60 velocity=127 time=0.05\n",
      "note_on channel=0 note=61 velocity=127 time=0.0010416666666666667\n",
      "note_on channel=0 note=62 velocity=127 time=0.007291666666666667\n",
      "note_off channel=0 note=60 velocity=127 time=0.011458333333333333\n",
      "note_off channel=0 note=61 velocity=127 time=0.0010416666666666667\n",
      "note_off channel=0 note=62 velocity=127 time=0.007291666666666667\n",
      "note_on channel=0 note=61 velocity=127 time=0.05520833333333333\n",
      "note_on channel=0 note=62 velocity=127 time=0.0020833333333333333\n",
      "note_off channel=0 note=61 velocity=127 time=0.017708333333333333\n",
      "note_off channel=0 note=62 velocity=127 time=0.0020833333333333333\n",
      "note_on channel=0 note=62 velocity=127 time=0.057291666666666664\n",
      "note_on channel=0 note=61 velocity=127 time=0.0020833333333333333\n",
      "note_off channel=0 note=62 velocity=127 time=0.017708333333333333\n",
      "note_off channel=0 note=61 velocity=127 time=0.0020833333333333333\n",
      "note_on channel=0 note=60 velocity=127 time=0.028125\n",
      "note_off channel=0 note=60 velocity=127 time=0.019791666666666666\n",
      "note_on channel=0 note=62 velocity=127 time=0.007291666666666667\n",
      "note_on channel=0 note=61 velocity=127 time=0.007291666666666667\n",
      "note_off channel=0 note=62 velocity=127 time=0.0125\n",
      "note_off channel=0 note=61 velocity=127 time=0.007291666666666667\n",
      "note_on channel=0 note=62 velocity=127 time=0.05\n",
      "note_on channel=0 note=61 velocity=127 time=0.0125\n",
      "note_off channel=0 note=62 velocity=127 time=0.007291666666666667\n",
      "note_off channel=0 note=61 velocity=127 time=0.0125\n",
      "note_on channel=0 note=62 velocity=127 time=0.04583333333333333\n",
      "note_on channel=0 note=61 velocity=127 time=0.016666666666666666\n",
      "note_off channel=0 note=62 velocity=127 time=0.003125\n",
      "note_on channel=0 note=60 velocity=127 time=0.011458333333333333\n",
      "note_off channel=0 note=61 velocity=127 time=0.005208333333333333\n",
      "note_off channel=0 note=60 velocity=127 time=0.014583333333333334\n",
      "note_on channel=0 note=62 velocity=127 time=0.026041666666666668\n",
      "note_off channel=0 note=62 velocity=127 time=0.019791666666666666\n",
      "note_on channel=0 note=61 velocity=127 time=0.0020833333333333333\n",
      "note_off channel=0 note=61 velocity=127 time=0.019791666666666666\n",
      "note_on channel=0 note=62 velocity=127 time=0.035416666666666666\n",
      "note_off channel=0 note=62 velocity=127 time=0.019791666666666666\n",
      "note_on channel=0 note=61 velocity=127 time=0.007291666666666667\n",
      "note_off channel=0 note=61 velocity=127 time=0.019791666666666666\n",
      "note_on channel=0 note=62 velocity=127 time=0.03125\n",
      "note_on channel=0 note=60 velocity=127 time=0.0125\n",
      "note_off channel=0 note=62 velocity=127 time=0.007291666666666667\n",
      "note_on channel=0 note=61 velocity=127 time=0.011458333333333333\n",
      "note_off channel=0 note=60 velocity=127 time=0.0010416666666666667\n",
      "note_off channel=0 note=61 velocity=127 time=0.01875\n",
      "note_on channel=0 note=62 velocity=127 time=0.026041666666666668\n",
      "note_off channel=0 note=62 velocity=127 time=0.019791666666666666\n",
      "note_on channel=0 note=61 velocity=127 time=0.016666666666666666\n",
      "note_off channel=0 note=61 velocity=127 time=0.019791666666666666\n",
      "note_on channel=0 note=62 velocity=127 time=0.020833333333333332\n",
      "note_off channel=0 note=62 velocity=127 time=0.019791666666666666\n",
      "note_on channel=0 note=61 velocity=127 time=0.021875\n",
      "note_off channel=0 note=61 velocity=127 time=0.019791666666666666\n",
      "note_on channel=0 note=60 velocity=127 time=0.009375\n",
      "note_on channel=0 note=62 velocity=127 time=0.00625\n",
      "note_off channel=0 note=60 velocity=127 time=0.013541666666666667\n",
      "note_off channel=0 note=62 velocity=127 time=0.00625\n",
      "note_on channel=0 note=61 velocity=127 time=0.026041666666666668\n",
      "note_off channel=0 note=61 velocity=127 time=0.019791666666666666\n",
      "note_on channel=0 note=62 velocity=127 time=0.011458333333333333\n",
      "note_off channel=0 note=62 velocity=127 time=0.019791666666666666\n",
      "note_on channel=0 note=61 velocity=127 time=0.03125\n",
      "note_off channel=0 note=61 velocity=127 time=0.019791666666666666\n",
      "note_on channel=0 note=62 velocity=127 time=0.00625\n",
      "note_off channel=0 note=62 velocity=127 time=0.019791666666666666\n",
      "note_on channel=0 note=60 velocity=127 time=0.03229166666666666\n",
      "note_on channel=0 note=61 velocity=127 time=0.004166666666666667\n",
      "note_off channel=0 note=60 velocity=127 time=0.016666666666666666\n",
      "note_off channel=0 note=61 velocity=127 time=0.004166666666666667\n",
      "note_on channel=0 note=62 velocity=127 time=0.0010416666666666667\n",
      "note_off channel=0 note=62 velocity=127 time=0.019791666666666666\n",
      "note_on channel=0 note=61 velocity=127 time=0.040625\n",
      "note_on channel=0 note=62 velocity=127 time=0.016666666666666666\n",
      "note_off channel=0 note=61 velocity=127 time=0.003125\n",
      "note_off channel=0 note=62 velocity=127 time=0.016666666666666666\n",
      "note_on channel=0 note=61 velocity=127 time=0.04583333333333333\n",
      "note_on channel=0 note=62 velocity=127 time=0.011458333333333333\n",
      "note_off channel=0 note=61 velocity=127 time=0.008333333333333333\n",
      "note_off channel=0 note=62 velocity=127 time=0.011458333333333333\n",
      "note_on channel=0 note=60 velocity=127 time=0.013541666666666667\n",
      "note_off channel=0 note=60 velocity=127 time=0.019791666666666666\n",
      "note_on channel=0 note=61 velocity=127 time=0.017708333333333333\n",
      "note_on channel=0 note=62 velocity=127 time=0.007291666666666667\n",
      "note_off channel=0 note=61 velocity=127 time=0.013541666666666667\n",
      "note_off channel=0 note=62 velocity=127 time=0.007291666666666667\n",
      "note_on channel=0 note=61 velocity=127 time=0.05625\n",
      "note_on channel=0 note=62 velocity=127 time=0.0020833333333333333\n",
      "note_off channel=0 note=61 velocity=127 time=0.017708333333333333\n",
      "note_off channel=0 note=62 velocity=127 time=0.0020833333333333333\n",
      "note_on channel=0 note=62 velocity=127 time=0.057291666666666664\n",
      "note_on channel=0 note=61 velocity=127 time=0.003125\n",
      "note_on channel=0 note=60 velocity=127 time=0.011458333333333333\n",
      "note_off channel=0 note=62 velocity=127 time=0.005208333333333333\n",
      "note_off channel=0 note=61 velocity=127 time=0.003125\n",
      "note_off channel=0 note=60 velocity=127 time=0.011458333333333333\n",
      "note_on channel=0 note=62 velocity=127 time=0.042708333333333334\n",
      "note_on channel=0 note=61 velocity=127 time=0.008333333333333333\n",
      "note_off channel=0 note=62 velocity=127 time=0.0125\n",
      "note_off channel=0 note=61 velocity=127 time=0.008333333333333333\n",
      "note_on channel=0 note=62 velocity=127 time=0.05\n",
      "note_on channel=0 note=61 velocity=127 time=0.0125\n",
      "note_off channel=0 note=62 velocity=127 time=0.007291666666666667\n",
      "note_off channel=0 note=61 velocity=127 time=0.0125\n",
      "note_on channel=0 note=60 velocity=127 time=0.040625\n",
      "note_on channel=0 note=62 velocity=127 time=0.004166666666666667\n",
      "note_off channel=0 note=60 velocity=127 time=0.015625\n",
      "note_on channel=0 note=61 velocity=127 time=0.0020833333333333333\n",
      "note_off channel=0 note=62 velocity=127 time=0.0020833333333333333\n",
      "note_off channel=0 note=61 velocity=127 time=0.017708333333333333\n",
      "note_on channel=0 note=62 velocity=127 time=0.03958333333333333\n",
      "note_off channel=0 note=62 velocity=127 time=0.019791666666666666\n",
      "note_on channel=0 note=61 velocity=127 time=0.0020833333333333333\n",
      "note_off channel=0 note=61 velocity=127 time=0.019791666666666666\n",
      "note_on channel=0 note=62 velocity=127 time=0.035416666666666666\n",
      "note_off channel=0 note=62 velocity=127 time=0.019791666666666666\n",
      "note_on channel=0 note=61 velocity=127 time=0.007291666666666667\n",
      "note_off channel=0 note=61 velocity=127 time=0.019791666666666666\n",
      "note_on channel=0 note=60 velocity=127 time=0.007291666666666667\n",
      "note_off channel=0 note=60 velocity=127 time=0.019791666666666666\n",
      "note_on channel=0 note=62 velocity=127 time=0.003125\n",
      "note_off channel=0 note=62 velocity=127 time=0.019791666666666666\n",
      "note_on channel=0 note=61 velocity=127 time=0.0125\n",
      "note_off channel=0 note=61 velocity=127 time=0.019791666666666666\n",
      "note_on channel=0 note=62 velocity=127 time=0.025\n",
      "note_off channel=0 note=62 velocity=127 time=0.019791666666666666\n",
      "note_on channel=0 note=61 velocity=127 time=0.016666666666666666\n",
      "note_off channel=0 note=61 velocity=127 time=0.019791666666666666\n",
      "note_on channel=0 note=62 velocity=127 time=0.020833333333333332\n",
      "note_off channel=0 note=62 velocity=127 time=0.019791666666666666\n",
      "note_on channel=0 note=60 velocity=127 time=0.015625\n",
      "note_on channel=0 note=61 velocity=127 time=0.00625\n",
      "note_off channel=0 note=60 velocity=127 time=0.013541666666666667\n",
      "note_off channel=0 note=61 velocity=127 time=0.00625\n",
      "note_on channel=0 note=62 velocity=127 time=0.015625\n",
      "note_off channel=0 note=62 velocity=127 time=0.019791666666666666\n",
      "note_on channel=0 note=61 velocity=127 time=0.027083333333333334\n",
      "note_off channel=0 note=61 velocity=127 time=0.019791666666666666\n",
      "note_on channel=0 note=62 velocity=127 time=0.010416666666666666\n",
      "note_off channel=0 note=62 velocity=127 time=0.019791666666666666\n",
      "note_on channel=0 note=61 velocity=127 time=0.03229166666666666\n",
      "note_off channel=0 note=61 velocity=127 time=0.019791666666666666\n",
      "note_on channel=0 note=62 velocity=127 time=0.00625\n",
      "\u001b[91m [DEBUG] > \u001b[0m\n",
      " |>  to_array: msg.time > max_t; t, n\n",
      " |>  2.9937500000000012\n",
      " |>  150\n",
      "note_on channel=0 note=60 velocity=127 time=0.035416666666666666\n",
      "note_off channel=0 note=60 velocity=127 time=0.019791666666666666\n",
      "note_on channel=0 note=61 velocity=127 time=0.013541666666666667\n",
      "note_off channel=0 note=61 velocity=127 time=0.019791666666666666\n",
      "note_on channel=0 note=60 velocity=127 time=0.020833333333333332\n",
      "note_off channel=0 note=60 velocity=127 time=0.019791666666666666\n",
      "note_on channel=0 note=62 velocity=127 time=0.013541666666666667\n",
      "note_off channel=0 note=62 velocity=127 time=0.019791666666666666\n",
      "note_on channel=0 note=60 velocity=127 time=0.021875\n",
      "note_off channel=0 note=60 velocity=127 time=0.019791666666666666\n",
      "note_on channel=0 note=61 velocity=127 time=0.004166666666666667\n",
      "note_off channel=0 note=61 velocity=127 time=0.019791666666666666\n",
      "note_on channel=0 note=60 velocity=127 time=0.030208333333333334\n",
      "note_off channel=0 note=60 velocity=127 time=0.019791666666666666\n",
      "note_on channel=0 note=60 velocity=127 time=0.05520833333333333\n",
      "note_on channel=0 note=62 velocity=127 time=0.003125\n",
      "note_on channel=0 note=61 velocity=127 time=0.0125\n",
      "note_off channel=0 note=60 velocity=127 time=0.005208333333333333\n",
      "note_off channel=0 note=62 velocity=127 time=0.003125\n",
      "note_off channel=0 note=61 velocity=127 time=0.0125\n",
      "note_on channel=0 note=60 velocity=127 time=0.03958333333333333\n",
      "note_off channel=0 note=60 velocity=127 time=0.019791666666666666\n",
      "note_on channel=0 note=60 velocity=127 time=0.05520833333333333\n",
      "note_on channel=0 note=61 velocity=127 time=0.005208333333333333\n",
      "note_off channel=0 note=60 velocity=127 time=0.014583333333333334\n",
      "note_off channel=0 note=61 velocity=127 time=0.005208333333333333\n",
      "note_on channel=0 note=62 velocity=127 time=0.020833333333333332\n",
      "note_off channel=0 note=62 velocity=127 time=0.019791666666666666\n",
      "note_on channel=0 note=60 velocity=127 time=0.008333333333333333\n",
      "note_off channel=0 note=60 velocity=127 time=0.019791666666666666\n",
      "note_on channel=0 note=61 velocity=127 time=0.051041666666666666\n",
      "note_on channel=0 note=60 velocity=127 time=0.004166666666666667\n",
      "note_off channel=0 note=61 velocity=127 time=0.016666666666666666\n",
      "note_off channel=0 note=60 velocity=127 time=0.004166666666666667\n",
      "note_on channel=0 note=60 velocity=127 time=0.05520833333333333\n",
      "note_on channel=0 note=62 velocity=127 time=0.015625\n",
      "note_off channel=0 note=60 velocity=127 time=0.004166666666666667\n",
      "note_off channel=0 note=62 velocity=127 time=0.015625\n",
      "note_on channel=0 note=61 velocity=127 time=0.026041666666666668\n",
      "note_on channel=0 note=60 velocity=127 time=0.013541666666666667\n",
      "note_off channel=0 note=61 velocity=127 time=0.007291666666666667\n",
      "note_off channel=0 note=60 velocity=127 time=0.013541666666666667\n",
      "note_on channel=0 note=60 velocity=127 time=0.05520833333333333\n",
      "note_off channel=0 note=60 velocity=127 time=0.019791666666666666\n",
      "note_on channel=0 note=61 velocity=127 time=0.03229166666666666\n",
      "note_on channel=0 note=62 velocity=127 time=0.007291666666666667\n",
      "note_off channel=0 note=61 velocity=127 time=0.0125\n",
      "note_on channel=0 note=60 velocity=127 time=0.0020833333333333333\n",
      "note_off channel=0 note=62 velocity=127 time=0.005208333333333333\n",
      "note_off channel=0 note=60 velocity=127 time=0.014583333333333334\n",
      "note_on channel=0 note=60 velocity=127 time=0.05520833333333333\n",
      "note_off channel=0 note=60 velocity=127 time=0.019791666666666666\n",
      "note_on channel=0 note=61 velocity=127 time=0.022916666666666665\n",
      "note_off channel=0 note=61 velocity=127 time=0.019791666666666666\n",
      "note_on channel=0 note=60 velocity=127 time=0.011458333333333333\n",
      "note_off channel=0 note=60 velocity=127 time=0.019791666666666666\n",
      "note_on channel=0 note=62 velocity=127 time=0.009375\n",
      "note_off channel=0 note=62 velocity=127 time=0.019791666666666666\n",
      "note_on channel=0 note=60 velocity=127 time=0.026041666666666668\n",
      "note_off channel=0 note=60 velocity=127 time=0.019791666666666666\n",
      "note_on channel=0 note=61 velocity=127 time=0.013541666666666667\n",
      "note_off channel=0 note=61 velocity=127 time=0.019791666666666666\n",
      "note_on channel=0 note=60 velocity=127 time=0.020833333333333332\n",
      "note_off channel=0 note=60 velocity=127 time=0.019791666666666666\n",
      "note_on channel=0 note=62 velocity=127 time=0.053125\n",
      "note_on channel=0 note=60 velocity=127 time=0.0020833333333333333\n",
      "note_off channel=0 note=62 velocity=127 time=0.01875\n",
      "note_off channel=0 note=60 velocity=127 time=0.0020833333333333333\n",
      "note_on channel=0 note=61 velocity=127 time=0.004166666666666667\n",
      "note_off channel=0 note=61 velocity=127 time=0.019791666666666666\n",
      "note_on channel=0 note=60 velocity=127 time=0.030208333333333334\n",
      "note_off channel=0 note=60 velocity=127 time=0.019791666666666666\n",
      "note_on channel=0 note=60 velocity=127 time=0.05520833333333333\n",
      "note_on channel=0 note=61 velocity=127 time=0.014583333333333334\n",
      "note_off channel=0 note=60 velocity=127 time=0.005208333333333333\n",
      "note_off channel=0 note=61 velocity=127 time=0.014583333333333334\n",
      "note_on channel=0 note=62 velocity=127 time=0.007291666666666667\n",
      "note_off channel=0 note=62 velocity=127 time=0.019791666666666666\n",
      "note_on channel=0 note=60 velocity=127 time=0.0125\n",
      "note_off channel=0 note=60 velocity=127 time=0.019791666666666666\n",
      "note_on channel=0 note=60 velocity=127 time=0.05520833333333333\n",
      "note_on channel=0 note=61 velocity=127 time=0.005208333333333333\n",
      "note_off channel=0 note=60 velocity=127 time=0.014583333333333334\n",
      "note_off channel=0 note=61 velocity=127 time=0.005208333333333333\n",
      "note_on channel=0 note=60 velocity=127 time=0.04895833333333333\n",
      "note_on channel=0 note=62 velocity=127 time=0.011458333333333333\n",
      "note_off channel=0 note=60 velocity=127 time=0.008333333333333333\n",
      "note_off channel=0 note=62 velocity=127 time=0.011458333333333333\n",
      "note_on channel=0 note=61 velocity=127 time=0.03958333333333333\n",
      "note_on channel=0 note=60 velocity=127 time=0.004166666666666667\n",
      "note_off channel=0 note=61 velocity=127 time=0.016666666666666666\n",
      "note_off channel=0 note=60 velocity=127 time=0.004166666666666667\n",
      "note_on channel=0 note=60 velocity=127 time=0.05520833333333333\n",
      "note_off channel=0 note=60 velocity=127 time=0.019791666666666666\n",
      "note_on channel=0 note=62 velocity=127 time=0.035416666666666666\n",
      "note_on channel=0 note=61 velocity=127 time=0.00625\n",
      "note_on channel=0 note=60 velocity=127 time=0.013541666666666667\n",
      "note_off channel=0 note=62 velocity=127 time=0.0010416666666666667\n",
      "note_off channel=0 note=61 velocity=127 time=0.00625\n",
      "note_off channel=0 note=60 velocity=127 time=0.013541666666666667\n",
      "note_on channel=0 note=60 velocity=127 time=0.05520833333333333\n",
      "note_off channel=0 note=60 velocity=127 time=0.019791666666666666\n",
      "note_on channel=0 note=61 velocity=127 time=0.03229166666666666\n",
      "note_off channel=0 note=61 velocity=127 time=0.019791666666666666\n",
      "note_on channel=0 note=60 velocity=127 time=0.0020833333333333333\n",
      "note_off channel=0 note=60 velocity=127 time=0.019791666666666666\n",
      "note_on channel=0 note=62 velocity=127 time=0.005208333333333333\n",
      "note_off channel=0 note=62 velocity=127 time=0.019791666666666666\n",
      "note_on channel=0 note=60 velocity=127 time=0.030208333333333334\n",
      "note_off channel=0 note=60 velocity=127 time=0.019791666666666666\n",
      "note_on channel=0 note=61 velocity=127 time=0.022916666666666665\n",
      "note_off channel=0 note=61 velocity=127 time=0.019791666666666666\n",
      "note_on channel=0 note=60 velocity=127 time=0.011458333333333333\n",
      "note_off channel=0 note=60 velocity=127 time=0.019791666666666666\n",
      "note_on channel=0 note=62 velocity=127 time=0.04895833333333333\n",
      "note_on channel=0 note=60 velocity=127 time=0.00625\n",
      "note_off channel=0 note=62 velocity=127 time=0.013541666666666667\n",
      "note_off channel=0 note=60 velocity=127 time=0.00625\n",
      "note_on channel=0 note=61 velocity=127 time=0.013541666666666667\n",
      "note_off channel=0 note=61 velocity=127 time=0.019791666666666666\n",
      "note_on channel=0 note=60 velocity=127 time=0.020833333333333332\n",
      "note_off channel=0 note=60 velocity=127 time=0.019791666666666666\n",
      "note_on channel=0 note=60 velocity=127 time=0.05520833333333333\n",
      "note_off channel=0 note=60 velocity=127 time=0.019791666666666666\n",
      "note_on channel=0 note=61 velocity=127 time=0.004166666666666667\n",
      "note_on channel=0 note=62 velocity=127 time=0.013541666666666667\n",
      "note_off channel=0 note=61 velocity=127 time=0.00625\n",
      "note_off channel=0 note=62 velocity=127 time=0.013541666666666667\n",
      "note_on channel=0 note=60 velocity=127 time=0.016666666666666666\n",
      "note_off channel=0 note=60 velocity=127 time=0.019791666666666666\n",
      "note_on channel=0 note=60 velocity=127 time=0.05520833333333333\n",
      "note_on channel=0 note=61 velocity=127 time=0.014583333333333334\n",
      "note_off channel=0 note=60 velocity=127 time=0.005208333333333333\n",
      "note_off channel=0 note=61 velocity=127 time=0.014583333333333334\n",
      "note_on channel=0 note=60 velocity=127 time=0.03958333333333333\n",
      "note_on channel=0 note=62 velocity=127 time=0.007291666666666667\n",
      "note_off channel=0 note=60 velocity=127 time=0.0125\n",
      "note_off channel=0 note=62 velocity=127 time=0.007291666666666667\n",
      "note_on channel=0 note=60 velocity=127 time=0.04791666666666666\n",
      "note_on channel=0 note=61 velocity=127 time=0.005208333333333333\n",
      "note_off channel=0 note=60 velocity=127 time=0.014583333333333334\n",
      "note_off channel=0 note=61 velocity=127 time=0.005208333333333333\n",
      "note_on channel=0 note=60 velocity=127 time=0.04895833333333333\n",
      "note_off channel=0 note=60 velocity=127 time=0.019791666666666666\n",
      "note_on channel=0 note=62 velocity=127 time=0.03125\n",
      "note_on channel=0 note=61 velocity=127 time=0.019791666666666666\n",
      "note_off channel=0 note=62 velocity=127 time=0\n",
      "note_on channel=0 note=60 velocity=127 time=0.003125\n",
      "note_off channel=0 note=61 velocity=127 time=0.016666666666666666\n",
      "note_off channel=0 note=60 velocity=127 time=0.004166666666666667\n",
      "note_on channel=0 note=60 velocity=127 time=0.05520833333333333\n",
      "note_off channel=0 note=60 velocity=127 time=0.019791666666666666\n",
      "note_on channel=0 note=61 velocity=127 time=0.041666666666666664\n",
      "\u001b[91m [DEBUG] > \u001b[0m\n",
      " |>  to_array: msg.time > max_t; t, n\n",
      " |>  3.0125000000000037\n",
      " |>  150\n",
      "note_on channel=0 note=61 velocity=127 time=0.00625\n",
      "note_off channel=0 note=61 velocity=127 time=0.019791666666666666\n",
      "note_on channel=0 note=62 velocity=127 time=0.008333333333333333\n",
      "note_off channel=0 note=62 velocity=127 time=0.019791666666666666\n",
      "note_on channel=0 note=61 velocity=127 time=0.021875\n",
      "note_on channel=0 note=60 velocity=127 time=0.007291666666666667\n",
      "note_off channel=0 note=61 velocity=127 time=0.0125\n",
      "note_off channel=0 note=60 velocity=127 time=0.007291666666666667\n",
      "note_on channel=0 note=62 velocity=127 time=0.011458333333333333\n",
      "note_off channel=0 note=62 velocity=127 time=0.019791666666666666\n",
      "note_on channel=0 note=61 velocity=127 time=0.011458333333333333\n",
      "note_off channel=0 note=61 velocity=127 time=0.019791666666666666\n",
      "note_on channel=0 note=60 velocity=127 time=0.022916666666666665\n",
      "note_on channel=0 note=62 velocity=127 time=0.00625\n",
      "note_off channel=0 note=60 velocity=127 time=0.013541666666666667\n",
      "note_off channel=0 note=62 velocity=127 time=0.00625\n",
      "note_on channel=0 note=61 velocity=127 time=0.0010416666666666667\n",
      "note_off channel=0 note=61 velocity=127 time=0.019791666666666666\n",
      "note_on channel=0 note=62 velocity=127 time=0.040625\n",
      "note_on channel=0 note=61 velocity=127 time=0.010416666666666666\n",
      "note_on channel=0 note=60 velocity=127 time=0.008333333333333333\n",
      "note_off channel=0 note=62 velocity=127 time=0.0020833333333333333\n",
      "note_off channel=0 note=61 velocity=127 time=0.010416666666666666\n",
      "note_off channel=0 note=60 velocity=127 time=0.008333333333333333\n",
      "note_on channel=0 note=61 velocity=127 time=0.042708333333333334\n",
      "note_on channel=0 note=62 velocity=127 time=0.0010416666666666667\n",
      "note_off channel=0 note=61 velocity=127 time=0.01875\n",
      "note_off channel=0 note=62 velocity=127 time=0.0010416666666666667\n",
      "note_on channel=0 note=60 velocity=127 time=0.022916666666666665\n",
      "note_off channel=0 note=60 velocity=127 time=0.019791666666666666\n",
      "note_on channel=0 note=61 velocity=127 time=0.00625\n",
      "note_on channel=0 note=62 velocity=127 time=0.011458333333333333\n",
      "note_off channel=0 note=61 velocity=127 time=0.008333333333333333\n",
      "note_off channel=0 note=62 velocity=127 time=0.011458333333333333\n",
      "note_on channel=0 note=61 velocity=127 time=0.03958333333333333\n",
      "note_on channel=0 note=60 velocity=127 time=0.009375\n",
      "note_off channel=0 note=61 velocity=127 time=0.010416666666666666\n",
      "note_on channel=0 note=62 velocity=127 time=0.0020833333333333333\n",
      "note_off channel=0 note=60 velocity=127 time=0.00625\n",
      "note_off channel=0 note=62 velocity=127 time=0.013541666666666667\n",
      "note_on channel=0 note=61 velocity=127 time=0.028125\n",
      "note_off channel=0 note=61 velocity=127 time=0.019791666666666666\n",
      "note_on channel=0 note=62 velocity=127 time=0.013541666666666667\n",
      "note_on channel=0 note=60 velocity=127 time=0.011458333333333333\n",
      "note_off channel=0 note=62 velocity=127 time=0.008333333333333333\n",
      "note_off channel=0 note=60 velocity=127 time=0.011458333333333333\n",
      "note_on channel=0 note=61 velocity=127 time=0.00625\n",
      "note_off channel=0 note=61 velocity=127 time=0.019791666666666666\n",
      "note_on channel=0 note=62 velocity=127 time=0.02395833333333333\n",
      "note_off channel=0 note=62 velocity=127 time=0.019791666666666666\n",
      "note_on channel=0 note=61 velocity=127 time=0.00625\n",
      "note_on channel=0 note=60 velocity=127 time=0.010416666666666666\n",
      "note_off channel=0 note=61 velocity=127 time=0.010416666666666666\n",
      "note_off channel=0 note=60 velocity=127 time=0.010416666666666666\n",
      "note_on channel=0 note=62 velocity=127 time=0.025\n",
      "note_on channel=0 note=61 velocity=127 time=0.015625\n",
      "note_off channel=0 note=62 velocity=127 time=0.004166666666666667\n",
      "note_off channel=0 note=61 velocity=127 time=0.015625\n",
      "note_on channel=0 note=60 velocity=127 time=0.026041666666666668\n",
      "note_on channel=0 note=62 velocity=127 time=0.019791666666666666\n",
      "note_off channel=0 note=60 velocity=127 time=0\n",
      "note_on channel=0 note=61 velocity=127 time=0.005208333333333333\n",
      "note_off channel=0 note=62 velocity=127 time=0.014583333333333334\n",
      "note_off channel=0 note=61 velocity=127 time=0.005208333333333333\n",
      "note_on channel=0 note=61 velocity=127 time=0.051041666666666666\n",
      "note_on channel=0 note=62 velocity=127 time=0.005208333333333333\n",
      "note_on channel=0 note=60 velocity=127 time=0.005208333333333333\n",
      "note_off channel=0 note=61 velocity=127 time=0.009375\n",
      "note_off channel=0 note=62 velocity=127 time=0.005208333333333333\n",
      "note_off channel=0 note=60 velocity=127 time=0.005208333333333333\n",
      "note_on channel=0 note=61 velocity=127 time=0.03958333333333333\n",
      "note_on channel=0 note=62 velocity=127 time=0.016666666666666666\n",
      "note_off channel=0 note=61 velocity=127 time=0.003125\n",
      "note_off channel=0 note=62 velocity=127 time=0.016666666666666666\n",
      "note_on channel=0 note=60 velocity=127 time=0.010416666666666666\n",
      "note_off channel=0 note=60 velocity=127 time=0.019791666666666666\n",
      "note_on channel=0 note=61 velocity=127 time=0.004166666666666667\n",
      "note_off channel=0 note=61 velocity=127 time=0.019791666666666666\n",
      "note_on channel=0 note=62 velocity=127 time=0.007291666666666667\n",
      "note_off channel=0 note=62 velocity=127 time=0.019791666666666666\n",
      "note_on channel=0 note=61 velocity=127 time=0.022916666666666665\n",
      "note_on channel=0 note=60 velocity=127 time=0.011458333333333333\n",
      "note_off channel=0 note=61 velocity=127 time=0.008333333333333333\n",
      "note_off channel=0 note=60 velocity=127 time=0.011458333333333333\n",
      "note_on channel=0 note=62 velocity=127 time=0.00625\n",
      "note_off channel=0 note=62 velocity=127 time=0.019791666666666666\n",
      "note_on channel=0 note=61 velocity=127 time=0.0125\n",
      "note_off channel=0 note=61 velocity=127 time=0.019791666666666666\n",
      "note_on channel=0 note=60 velocity=127 time=0.027083333333333334\n",
      "note_on channel=0 note=62 velocity=127 time=0.0020833333333333333\n",
      "note_off channel=0 note=60 velocity=127 time=0.01875\n",
      "note_off channel=0 note=62 velocity=127 time=0.0020833333333333333\n",
      "note_on channel=0 note=61 velocity=127 time=0.0020833333333333333\n",
      "note_off channel=0 note=61 velocity=127 time=0.019791666666666666\n",
      "note_on channel=0 note=62 velocity=127 time=0.03958333333333333\n",
      "note_on channel=0 note=61 velocity=127 time=0.011458333333333333\n",
      "note_off channel=0 note=62 velocity=127 time=0.009375\n",
      "note_on channel=0 note=60 velocity=127 time=0.003125\n",
      "note_off channel=0 note=61 velocity=127 time=0.007291666666666667\n",
      "note_off channel=0 note=60 velocity=127 time=0.0125\n",
      "note_on channel=0 note=62 velocity=127 time=0.03854166666666667\n",
      "note_on channel=0 note=61 velocity=127 time=0\n",
      "note_off channel=0 note=62 velocity=127 time=0.019791666666666666\n",
      "note_off channel=0 note=61 velocity=127 time=0\n",
      "note_on channel=0 note=60 velocity=127 time=0.028125\n",
      "note_off channel=0 note=60 velocity=127 time=0.019791666666666666\n",
      "note_on channel=0 note=61 velocity=127 time=0.0020833333333333333\n",
      "note_on channel=0 note=62 velocity=127 time=0.010416666666666666\n",
      "note_off channel=0 note=61 velocity=127 time=0.009375\n",
      "note_off channel=0 note=62 velocity=127 time=0.010416666666666666\n",
      "note_on channel=0 note=61 velocity=127 time=0.040625\n",
      "note_on channel=0 note=60 velocity=127 time=0.013541666666666667\n",
      "note_off channel=0 note=61 velocity=127 time=0.007291666666666667\n",
      "note_on channel=0 note=62 velocity=127 time=0.0010416666666666667\n",
      "note_off channel=0 note=60 velocity=127 time=0.011458333333333333\n",
      "note_off channel=0 note=62 velocity=127 time=0.008333333333333333\n",
      "note_on channel=0 note=61 velocity=127 time=0.029166666666666667\n",
      "note_off channel=0 note=61 velocity=127 time=0.019791666666666666\n",
      "note_on channel=0 note=62 velocity=127 time=0.0125\n",
      "note_on channel=0 note=60 velocity=127 time=0.016666666666666666\n",
      "note_off channel=0 note=62 velocity=127 time=0.003125\n",
      "note_off channel=0 note=60 velocity=127 time=0.016666666666666666\n",
      "note_on channel=0 note=61 velocity=127 time=0.0020833333333333333\n",
      "note_off channel=0 note=61 velocity=127 time=0.019791666666666666\n",
      "note_on channel=0 note=62 velocity=127 time=0.022916666666666665\n",
      "note_off channel=0 note=62 velocity=127 time=0.019791666666666666\n",
      "note_on channel=0 note=61 velocity=127 time=0.007291666666666667\n",
      "note_on channel=0 note=60 velocity=127 time=0.013541666666666667\n",
      "note_off channel=0 note=61 velocity=127 time=0.00625\n",
      "note_off channel=0 note=60 velocity=127 time=0.013541666666666667\n",
      "note_on channel=0 note=62 velocity=127 time=0.019791666666666666\n",
      "note_on channel=0 note=61 velocity=127 time=0.016666666666666666\n",
      "note_off channel=0 note=62 velocity=127 time=0.003125\n",
      "note_off channel=0 note=61 velocity=127 time=0.016666666666666666\n",
      "note_on channel=0 note=60 velocity=127 time=0.030208333333333334\n",
      "note_on channel=0 note=62 velocity=127 time=0.014583333333333334\n",
      "note_off channel=0 note=60 velocity=127 time=0.005208333333333333\n",
      "note_on channel=0 note=61 velocity=127 time=0.0010416666666666667\n",
      "note_off channel=0 note=62 velocity=127 time=0.013541666666666667\n",
      "note_off channel=0 note=61 velocity=127 time=0.00625\n",
      "note_on channel=0 note=61 velocity=127 time=0.051041666666666666\n",
      "note_on channel=0 note=62 velocity=127 time=0.004166666666666667\n",
      "note_on channel=0 note=60 velocity=127 time=0.010416666666666666\n",
      "note_off channel=0 note=61 velocity=127 time=0.005208333333333333\n",
      "note_off channel=0 note=62 velocity=127 time=0.004166666666666667\n",
      "note_off channel=0 note=60 velocity=127 time=0.010416666666666666\n",
      "note_on channel=0 note=61 velocity=127 time=0.035416666666666666\n",
      "note_on channel=0 note=62 velocity=127 time=0.015625\n",
      "note_off channel=0 note=61 velocity=127 time=0.004166666666666667\n",
      "note_off channel=0 note=62 velocity=127 time=0.015625\n",
      "note_on channel=0 note=60 velocity=127 time=0.014583333333333334\n",
      "note_off channel=0 note=60 velocity=127 time=0.019791666666666666\n",
      "note_on channel=0 note=61 velocity=127 time=0\n",
      "note_off channel=0 note=61 velocity=127 time=0.019791666666666666\n",
      "note_on channel=0 note=62 velocity=127 time=0.00625\n",
      "note_off channel=0 note=62 velocity=127 time=0.019791666666666666\n",
      "note_on channel=0 note=61 velocity=127 time=0.02395833333333333\n",
      "note_on channel=0 note=60 velocity=127 time=0.015625\n",
      "note_off channel=0 note=61 velocity=127 time=0.004166666666666667\n",
      "note_off channel=0 note=60 velocity=127 time=0.015625\n",
      "note_on channel=0 note=62 velocity=127 time=0.0010416666666666667\n",
      "note_off channel=0 note=62 velocity=127 time=0.019791666666666666\n",
      "note_on channel=0 note=61 velocity=127 time=0.013541666666666667\n",
      "note_off channel=0 note=61 velocity=127 time=0.019791666666666666\n",
      "note_on channel=0 note=62 velocity=127 time=0.028125\n",
      "note_on channel=0 note=60 velocity=127 time=0.003125\n",
      "note_off channel=0 note=62 velocity=127 time=0.016666666666666666\n",
      "note_on channel=0 note=61 velocity=127 time=0.003125\n",
      "note_off channel=0 note=60 velocity=127 time=0.0010416666666666667\n",
      "note_off channel=0 note=61 velocity=127 time=0.019791666666666666\n",
      "note_on channel=0 note=62 velocity=127 time=0.03854166666666667\n",
      "note_on channel=0 note=61 velocity=127 time=0.0125\n",
      "note_off channel=0 note=62 velocity=127 time=0.008333333333333333\n",
      "note_on channel=0 note=60 velocity=127 time=0.008333333333333333\n",
      "note_off channel=0 note=61 velocity=127 time=0.003125\n",
      "note_off channel=0 note=60 velocity=127 time=0.016666666666666666\n",
      "note_on channel=0 note=62 velocity=127 time=0.03333333333333333\n",
      "note_on channel=0 note=61 velocity=127 time=0.0010416666666666667\n",
      "note_off channel=0 note=62 velocity=127 time=0.01875\n",
      "note_off channel=0 note=61 velocity=127 time=0.0010416666666666667\n",
      "note_on channel=0 note=60 velocity=127 time=0.03229166666666666\n",
      "note_on channel=0 note=61 velocity=127 time=0.01875\n",
      "note_off channel=0 note=60 velocity=127 time=0.0010416666666666667\n",
      "note_on channel=0 note=62 velocity=127 time=0.008333333333333333\n",
      "note_off channel=0 note=61 velocity=127 time=0.010416666666666666\n",
      "note_off channel=0 note=62 velocity=127 time=0.009375\n",
      "note_on channel=0 note=61 velocity=127 time=0.040625\n",
      "note_on channel=0 note=60 velocity=127 time=0.017708333333333333\n",
      "note_off channel=0 note=61 velocity=127 time=0.003125\n",
      "note_on channel=0 note=62 velocity=127 time=0\n",
      "note_off channel=0 note=60 velocity=127 time=0.016666666666666666\n",
      "note_off channel=0 note=62 velocity=127 time=0.003125\n",
      "note_on channel=0 note=61 velocity=127 time=0.030208333333333334\n",
      "note_off channel=0 note=61 velocity=127 time=0.019791666666666666\n",
      "note_on channel=0 note=62 velocity=127 time=0.011458333333333333\n",
      "note_off channel=0 note=62 velocity=127 time=0.019791666666666666\n",
      "note_on channel=0 note=60 velocity=127 time=0.0020833333333333333\n",
      "note_on channel=0 note=61 velocity=127 time=0.017708333333333333\n",
      "note_off channel=0 note=60 velocity=127 time=0.0020833333333333333\n",
      "note_off channel=0 note=61 velocity=127 time=0.017708333333333333\n",
      "note_on channel=0 note=62 velocity=127 time=0.021875\n",
      "note_off channel=0 note=62 velocity=127 time=0.019791666666666666\n",
      "note_on channel=0 note=61 velocity=127 time=0.008333333333333333\n",
      "note_on channel=0 note=60 velocity=127 time=0.017708333333333333\n",
      "note_off channel=0 note=61 velocity=127 time=0.0020833333333333333\n",
      "note_off channel=0 note=60 velocity=127 time=0.017708333333333333\n",
      "note_on channel=0 note=62 velocity=127 time=0.014583333333333334\n",
      "note_on channel=0 note=61 velocity=127 time=0.017708333333333333\n",
      "note_off channel=0 note=62 velocity=127 time=0.0020833333333333333\n",
      "note_off channel=0 note=61 velocity=127 time=0.017708333333333333\n",
      "note_on channel=0 note=60 velocity=127 time=0.03333333333333333\n",
      "note_on channel=0 note=62 velocity=127 time=0.009375\n",
      "note_on channel=0 note=61 velocity=127 time=0.007291666666666667\n",
      "note_off channel=0 note=60 velocity=127 time=0.003125\n",
      "note_off channel=0 note=62 velocity=127 time=0.009375\n",
      "note_off channel=0 note=61 velocity=127 time=0.007291666666666667\n",
      "note_on channel=0 note=61 velocity=127 time=0.051041666666666666\n",
      "\u001b[91m [DEBUG] > \u001b[0m\n",
      " |>  to_array: msg.time > max_t; t, n\n",
      " |>  3.0354166666666655\n",
      " |>  150\n",
      "note_on channel=0 note=62 velocity=127 time=0.08020833333333333\n",
      "note_off channel=0 note=62 velocity=127 time=0.019791666666666666\n",
      "note_on channel=0 note=60 velocity=127 time=0.007291666666666667\n",
      "note_on channel=0 note=61 velocity=127 time=0.0020833333333333333\n",
      "note_off channel=0 note=60 velocity=127 time=0.017708333333333333\n",
      "note_off channel=0 note=61 velocity=127 time=0.0020833333333333333\n",
      "note_on channel=0 note=62 velocity=127 time=0.046875\n",
      "note_off channel=0 note=62 velocity=127 time=0.019791666666666666\n",
      "note_on channel=0 note=62 velocity=127 time=0.07604166666666666\n",
      "note_off channel=0 note=62 velocity=127 time=0.019791666666666666\n",
      "note_on channel=0 note=60 velocity=127 time=0\n",
      "note_off channel=0 note=60 velocity=127 time=0.019791666666666666\n",
      "note_on channel=0 note=61 velocity=127 time=0.007291666666666667\n",
      "note_off channel=0 note=61 velocity=127 time=0.019791666666666666\n",
      "note_on channel=0 note=62 velocity=127 time=0.028125\n",
      "note_off channel=0 note=62 velocity=127 time=0.019791666666666666\n",
      "note_on channel=0 note=62 velocity=127 time=0.07604166666666666\n",
      "note_on channel=0 note=60 velocity=127 time=0.013541666666666667\n",
      "note_off channel=0 note=62 velocity=127 time=0.00625\n",
      "note_off channel=0 note=60 velocity=127 time=0.013541666666666667\n",
      "note_on channel=0 note=61 velocity=127 time=0.03229166666666666\n",
      "note_off channel=0 note=61 velocity=127 time=0.019791666666666666\n",
      "note_on channel=0 note=62 velocity=127 time=0.010416666666666666\n",
      "note_off channel=0 note=62 velocity=127 time=0.019791666666666666\n",
      "note_on channel=0 note=62 velocity=127 time=0.07604166666666666\n",
      "note_on channel=0 note=60 velocity=127 time=0.00625\n",
      "note_off channel=0 note=62 velocity=127 time=0.013541666666666667\n",
      "note_off channel=0 note=60 velocity=127 time=0.00625\n",
      "note_on channel=0 note=61 velocity=127 time=0.058333333333333334\n",
      "note_on channel=0 note=62 velocity=127 time=0.011458333333333333\n",
      "note_off channel=0 note=61 velocity=127 time=0.008333333333333333\n",
      "note_off channel=0 note=62 velocity=127 time=0.011458333333333333\n",
      "note_on channel=0 note=60 velocity=127 time=0.07604166666666666\n",
      "note_on channel=0 note=62 velocity=127 time=0.0010416666666666667\n",
      "note_off channel=0 note=60 velocity=127 time=0.019791666666666666\n",
      "note_off channel=0 note=62 velocity=127 time=0.0010416666666666667\n",
      "note_on channel=0 note=62 velocity=127 time=0.07604166666666666\n",
      "note_on channel=0 note=61 velocity=127 time=0.00625\n",
      "note_off channel=0 note=62 velocity=127 time=0.013541666666666667\n",
      "note_off channel=0 note=61 velocity=127 time=0.00625\n",
      "note_on channel=0 note=60 velocity=127 time=0.0625\n",
      "note_on channel=0 note=62 velocity=127 time=0.007291666666666667\n",
      "note_off channel=0 note=60 velocity=127 time=0.0125\n",
      "note_off channel=0 note=62 velocity=127 time=0.007291666666666667\n",
      "note_on channel=0 note=62 velocity=127 time=0.07604166666666666\n",
      "note_off channel=0 note=62 velocity=127 time=0.019791666666666666\n",
      "note_on channel=0 note=61 velocity=127 time=0.005208333333333333\n",
      "note_off channel=0 note=61 velocity=127 time=0.019791666666666666\n",
      "note_on channel=0 note=60 velocity=127 time=0.036458333333333336\n",
      "note_on channel=0 note=62 velocity=127 time=0.014583333333333334\n",
      "note_off channel=0 note=60 velocity=127 time=0.005208333333333333\n",
      "note_off channel=0 note=62 velocity=127 time=0.014583333333333334\n",
      "note_on channel=0 note=62 velocity=127 time=0.07604166666666666\n",
      "note_off channel=0 note=62 velocity=127 time=0.019791666666666666\n",
      "note_on channel=0 note=61 velocity=127 time=0.02395833333333333\n",
      "note_off channel=0 note=61 velocity=127 time=0.019791666666666666\n",
      "note_on channel=0 note=60 velocity=127 time=0.011458333333333333\n",
      "note_off channel=0 note=60 velocity=127 time=0.019791666666666666\n",
      "note_on channel=0 note=62 velocity=127 time=0.0010416666666666667\n",
      "note_off channel=0 note=62 velocity=127 time=0.019791666666666666\n",
      "note_on channel=0 note=62 velocity=127 time=0.07604166666666666\n",
      "note_off channel=0 note=62 velocity=127 time=0.019791666666666666\n",
      "note_on channel=0 note=61 velocity=127 time=0.041666666666666664\n",
      "note_on channel=0 note=60 velocity=127 time=0.00625\n",
      "note_off channel=0 note=61 velocity=127 time=0.013541666666666667\n",
      "note_off channel=0 note=60 velocity=127 time=0.00625\n",
      "note_on channel=0 note=62 velocity=127 time=0.008333333333333333\n",
      "note_off channel=0 note=62 velocity=127 time=0.019791666666666666\n",
      "note_on channel=0 note=62 velocity=127 time=0.07604166666666666\n",
      "note_off channel=0 note=62 velocity=127 time=0.019791666666666666\n",
      "note_on channel=0 note=60 velocity=127 time=0.040625\n",
      "note_on channel=0 note=61 velocity=127 time=0.019791666666666666\n",
      "note_off channel=0 note=60 velocity=127 time=0.0010416666666666667\n",
      "note_on channel=0 note=62 velocity=127 time=0.015625\n",
      "note_off channel=0 note=61 velocity=127 time=0.004166666666666667\n",
      "note_off channel=0 note=62 velocity=127 time=0.015625\n",
      "note_on channel=0 note=62 velocity=127 time=0.07604166666666666\n",
      "note_off channel=0 note=62 velocity=127 time=0.019791666666666666\n",
      "note_on channel=0 note=60 velocity=127 time=0.034375\n",
      "note_off channel=0 note=60 velocity=127 time=0.019791666666666666\n",
      "note_on channel=0 note=62 velocity=127 time=0.021875\n",
      "note_on channel=0 note=61 velocity=127 time=0.0020833333333333333\n",
      "note_off channel=0 note=62 velocity=127 time=0.017708333333333333\n",
      "note_off channel=0 note=61 velocity=127 time=0.0020833333333333333\n",
      "note_on channel=0 note=62 velocity=127 time=0.07395833333333333\n",
      "note_off channel=0 note=62 velocity=127 time=0.019791666666666666\n",
      "note_on channel=0 note=60 velocity=127 time=0.027083333333333334\n",
      "note_off channel=0 note=60 velocity=127 time=0.019791666666666666\n",
      "note_on channel=0 note=62 velocity=127 time=0.029166666666666667\n",
      "note_off channel=0 note=62 velocity=127 time=0.019791666666666666\n",
      "note_on channel=0 note=61 velocity=127 time=0.0010416666666666667\n",
      "note_off channel=0 note=61 velocity=127 time=0.019791666666666666\n",
      "note_on channel=0 note=62 velocity=127 time=0.05520833333333333\n",
      "note_off channel=0 note=62 velocity=127 time=0.019791666666666666\n",
      "note_on channel=0 note=60 velocity=127 time=0.019791666666666666\n",
      "note_off channel=0 note=60 velocity=127 time=0.019791666666666666\n"
     ]
    },
    {
     "name": "stdout",
     "output_type": "stream",
     "text": [
      "note_on channel=0 note=62 velocity=127 time=0.036458333333333336\n",
      "note_off channel=0 note=62 velocity=127 time=0.019791666666666666\n",
      "note_on channel=0 note=61 velocity=127 time=0.01875\n",
      "note_off channel=0 note=61 velocity=127 time=0.019791666666666666\n",
      "note_on channel=0 note=62 velocity=127 time=0.0375\n",
      "note_off channel=0 note=62 velocity=127 time=0.019791666666666666\n",
      "note_on channel=0 note=60 velocity=127 time=0.013541666666666667\n",
      "note_off channel=0 note=60 velocity=127 time=0.019791666666666666\n",
      "note_on channel=0 note=62 velocity=127 time=0.04375\n",
      "note_off channel=0 note=62 velocity=127 time=0.019791666666666666\n",
      "note_on channel=0 note=61 velocity=127 time=0.0375\n",
      "note_off channel=0 note=61 velocity=127 time=0.019791666666666666\n",
      "note_on channel=0 note=62 velocity=127 time=0.01875\n",
      "note_off channel=0 note=62 velocity=127 time=0.019791666666666666\n",
      "note_on channel=0 note=60 velocity=127 time=0.00625\n",
      "note_off channel=0 note=60 velocity=127 time=0.019791666666666666\n",
      "note_on channel=0 note=62 velocity=127 time=0.05\n",
      "note_off channel=0 note=62 velocity=127 time=0.019791666666666666\n",
      "note_on channel=0 note=61 velocity=127 time=0.05625\n",
      "note_off channel=0 note=61 velocity=127 time=0.019791666666666666\n",
      "note_on channel=0 note=62 velocity=127 time=0\n",
      "note_on channel=0 note=60 velocity=127 time=0.01875\n",
      "note_off channel=0 note=62 velocity=127 time=0.0010416666666666667\n",
      "note_off channel=0 note=60 velocity=127 time=0.01875\n",
      "note_on channel=0 note=62 velocity=127 time=0.057291666666666664\n",
      "note_off channel=0 note=62 velocity=127 time=0.019791666666666666\n",
      "note_on channel=0 note=61 velocity=127 time=0.07395833333333333\n",
      "\u001b[91m [DEBUG] > \u001b[0m\n",
      " |>  to_array: msg.time > max_t; t, n\n",
      " |>  3.052083333333335\n",
      " |>  150\n",
      "note_on channel=0 note=62 velocity=127 time=0.00625\n",
      "note_on channel=0 note=61 velocity=127 time=0.017708333333333333\n",
      "note_off channel=0 note=62 velocity=127 time=0.0020833333333333333\n",
      "note_on channel=0 note=60 velocity=127 time=0.016666666666666666\n",
      "note_off channel=0 note=61 velocity=127 time=0.0010416666666666667\n",
      "note_off channel=0 note=60 velocity=127 time=0.01875\n",
      "note_on channel=0 note=62 velocity=127 time=0.03229166666666666\n",
      "note_off channel=0 note=62 velocity=127 time=0.019791666666666666\n",
      "note_on channel=0 note=60 velocity=127 time=0.058333333333333334\n",
      "note_on channel=0 note=62 velocity=127 time=0.010416666666666666\n",
      "note_off channel=0 note=60 velocity=127 time=0.010416666666666666\n",
      "note_off channel=0 note=62 velocity=127 time=0.010416666666666666\n",
      "note_on channel=0 note=61 velocity=127 time=0.010416666666666666\n",
      "note_off channel=0 note=61 velocity=127 time=0.019791666666666666\n",
      "note_on channel=0 note=62 velocity=127 time=0.03854166666666667\n",
      "note_off channel=0 note=62 velocity=127 time=0.019791666666666666\n",
      "note_on channel=0 note=60 velocity=127 time=0.0125\n",
      "note_off channel=0 note=60 velocity=127 time=0.019791666666666666\n",
      "note_on channel=0 note=62 velocity=127 time=0.036458333333333336\n",
      "note_off channel=0 note=62 velocity=127 time=0.019791666666666666\n",
      "note_on channel=0 note=61 velocity=127 time=0.021875\n",
      "note_off channel=0 note=61 velocity=127 time=0.019791666666666666\n",
      "note_on channel=0 note=60 velocity=127 time=0.0125\n",
      "note_on channel=0 note=62 velocity=127 time=0.014583333333333334\n",
      "note_off channel=0 note=60 velocity=127 time=0.005208333333333333\n",
      "note_off channel=0 note=62 velocity=127 time=0.014583333333333334\n",
      "note_on channel=0 note=62 velocity=127 time=0.06875\n",
      "note_off channel=0 note=62 velocity=127 time=0.019791666666666666\n",
      "note_on channel=0 note=60 velocity=127 time=0.007291666666666667\n",
      "note_off channel=0 note=60 velocity=127 time=0.019791666666666666\n",
      "note_on channel=0 note=61 velocity=127 time=0.00625\n",
      "note_off channel=0 note=61 velocity=127 time=0.019791666666666666\n",
      "note_on channel=0 note=62 velocity=127 time=0.014583333333333334\n",
      "note_off channel=0 note=62 velocity=127 time=0.019791666666666666\n",
      "note_on channel=0 note=60 velocity=127 time=0.05\n",
      "note_on channel=0 note=62 velocity=127 time=0.01875\n",
      "note_off channel=0 note=60 velocity=127 time=0.0010416666666666667\n",
      "note_off channel=0 note=62 velocity=127 time=0.01875\n",
      "note_on channel=0 note=61 velocity=127 time=0.04583333333333333\n",
      "note_off channel=0 note=61 velocity=127 time=0.019791666666666666\n",
      "note_on channel=0 note=62 velocity=127 time=0.003125\n",
      "note_off channel=0 note=62 velocity=127 time=0.019791666666666666\n",
      "note_on channel=0 note=60 velocity=127 time=0.003125\n",
      "note_off channel=0 note=60 velocity=127 time=0.019791666666666666\n",
      "note_on channel=0 note=62 velocity=127 time=0.04583333333333333\n",
      "note_off channel=0 note=62 velocity=127 time=0.019791666666666666\n",
      "note_on channel=0 note=60 velocity=127 time=0.04479166666666667\n",
      "note_on channel=0 note=61 velocity=127 time=0.0125\n",
      "note_off channel=0 note=60 velocity=127 time=0.007291666666666667\n",
      "note_on channel=0 note=62 velocity=127 time=0.004166666666666667\n",
      "note_off channel=0 note=61 velocity=127 time=0.009375\n",
      "note_off channel=0 note=62 velocity=127 time=0.011458333333333333\n",
      "note_on channel=0 note=62 velocity=127 time=0.06875\n",
      "note_on channel=0 note=60 velocity=127 time=0.01875\n",
      "note_off channel=0 note=62 velocity=127 time=0.0020833333333333333\n",
      "note_off channel=0 note=60 velocity=127 time=0.01875\n",
      "note_on channel=0 note=62 velocity=127 time=0.05\n",
      "note_on channel=0 note=61 velocity=127 time=0.0010416666666666667\n",
      "note_off channel=0 note=62 velocity=127 time=0.01875\n",
      "note_off channel=0 note=61 velocity=127 time=0.0010416666666666667\n",
      "note_on channel=0 note=60 velocity=127 time=0.03958333333333333\n",
      "note_off channel=0 note=60 velocity=127 time=0.019791666666666666\n",
      "note_on channel=0 note=62 velocity=127 time=0.008333333333333333\n",
      "note_off channel=0 note=62 velocity=127 time=0.019791666666666666\n",
      "note_on channel=0 note=62 velocity=127 time=0.06875\n",
      "note_on channel=0 note=61 velocity=127 time=0.0125\n",
      "note_on channel=0 note=60 velocity=127 time=0.0010416666666666667\n",
      "note_off channel=0 note=62 velocity=127 time=0.00625\n",
      "note_off channel=0 note=61 velocity=127 time=0.0125\n",
      "note_off channel=0 note=60 velocity=127 time=0.0010416666666666667\n",
      "note_on channel=0 note=62 velocity=127 time=0.05520833333333333\n",
      "note_off channel=0 note=62 velocity=127 time=0.019791666666666666\n",
      "note_on channel=0 note=60 velocity=127 time=0.035416666666666666\n",
      "note_off channel=0 note=60 velocity=127 time=0.019791666666666666\n",
      "note_on channel=0 note=62 velocity=127 time=0.0125\n",
      "note_off channel=0 note=62 velocity=127 time=0.019791666666666666\n",
      "note_on channel=0 note=61 velocity=127 time=0.005208333333333333\n",
      "note_off channel=0 note=61 velocity=127 time=0.019791666666666666\n",
      "note_on channel=0 note=62 velocity=127 time=0.04375\n",
      "note_on channel=0 note=60 velocity=127 time=0.009375\n",
      "note_off channel=0 note=62 velocity=127 time=0.010416666666666666\n",
      "note_off channel=0 note=60 velocity=127 time=0.009375\n",
      "note_on channel=0 note=62 velocity=127 time=0.059375\n",
      "note_off channel=0 note=62 velocity=127 time=0.019791666666666666\n",
      "note_on channel=0 note=61 velocity=127 time=0.016666666666666666\n",
      "note_on channel=0 note=60 velocity=127 time=0.014583333333333334\n",
      "note_off channel=0 note=61 velocity=127 time=0.005208333333333333\n",
      "note_off channel=0 note=60 velocity=127 time=0.014583333333333334\n",
      "note_on channel=0 note=62 velocity=127 time=0.017708333333333333\n",
      "note_off channel=0 note=62 velocity=127 time=0.019791666666666666\n",
      "note_on channel=0 note=62 velocity=127 time=0.06875\n",
      "note_on channel=0 note=60 velocity=127 time=0.004166666666666667\n",
      "note_off channel=0 note=62 velocity=127 time=0.015625\n",
      "note_off channel=0 note=60 velocity=127 time=0.004166666666666667\n",
      "note_on channel=0 note=61 velocity=127 time=0.02395833333333333\n",
      "note_off channel=0 note=61 velocity=127 time=0.019791666666666666\n",
      "note_on channel=0 note=62 velocity=127 time=0.019791666666666666\n",
      "note_off channel=0 note=62 velocity=127 time=0.019791666666666666\n",
      "note_on channel=0 note=60 velocity=127 time=0.027083333333333334\n",
      "note_off channel=0 note=60 velocity=127 time=0.019791666666666666\n",
      "note_on channel=0 note=62 velocity=127 time=0.021875\n",
      "note_off channel=0 note=62 velocity=127 time=0.019791666666666666\n",
      "note_on channel=0 note=61 velocity=127 time=0.040625\n",
      "note_off channel=0 note=61 velocity=127 time=0.019791666666666666\n",
      "note_on channel=0 note=60 velocity=127 time=0.008333333333333333\n",
      "note_on channel=0 note=62 velocity=127 time=0\n",
      "note_off channel=0 note=60 velocity=127 time=0.019791666666666666\n",
      "note_off channel=0 note=62 velocity=127 time=0\n",
      "note_on channel=0 note=62 velocity=127 time=0.06875\n",
      "note_off channel=0 note=62 velocity=127 time=0.019791666666666666\n",
      "note_on channel=0 note=60 velocity=127 time=0.021875\n",
      "note_off channel=0 note=60 velocity=127 time=0.019791666666666666\n",
      "note_on channel=0 note=61 velocity=127 time=0.010416666666666666\n",
      "note_on channel=0 note=62 velocity=127 time=0.016666666666666666\n",
      "note_off channel=0 note=61 velocity=127 time=0.004166666666666667\n",
      "note_off channel=0 note=62 velocity=127 time=0.016666666666666666\n",
      "note_on channel=0 note=60 velocity=127 time=0.06458333333333333\n",
      "note_on channel=0 note=62 velocity=127 time=0.004166666666666667\n",
      "note_off channel=0 note=60 velocity=127 time=0.015625\n",
      "note_off channel=0 note=62 velocity=127 time=0.004166666666666667\n",
      "note_on channel=0 note=61 velocity=127 time=0.06458333333333333\n",
      "note_on channel=0 note=62 velocity=127 time=0.004166666666666667\n",
      "note_off channel=0 note=61 velocity=127 time=0.015625\n",
      "note_off channel=0 note=62 velocity=127 time=0.004166666666666667\n",
      "note_on channel=0 note=60 velocity=127 time=0.017708333333333333\n",
      "note_off channel=0 note=60 velocity=127 time=0.019791666666666666\n",
      "note_on channel=0 note=62 velocity=127 time=0.03125\n",
      "note_off channel=0 note=62 velocity=127 time=0.019791666666666666\n",
      "note_on channel=0 note=60 velocity=127 time=0.059375\n",
      "note_on channel=0 note=62 velocity=127 time=0.009375\n",
      "note_on channel=0 note=61 velocity=127 time=0.007291666666666667\n",
      "note_off channel=0 note=60 velocity=127 time=0.003125\n",
      "note_off channel=0 note=62 velocity=127 time=0.009375\n",
      "note_off channel=0 note=61 velocity=127 time=0.007291666666666667\n",
      "note_on channel=0 note=62 velocity=127 time=0.06145833333333333\n",
      "note_off channel=0 note=62 velocity=127 time=0.019791666666666666\n",
      "note_on channel=0 note=60 velocity=127 time=0.0125\n",
      "note_off channel=0 note=60 velocity=127 time=0.019791666666666666\n",
      "note_on channel=0 note=62 velocity=127 time=0.035416666666666666\n",
      "note_on channel=0 note=61 velocity=127 time=0.019791666666666666\n",
      "note_off channel=0 note=62 velocity=127 time=0.0010416666666666667\n",
      "note_off channel=0 note=61 velocity=127 time=0.019791666666666666\n",
      "note_on channel=0 note=60 velocity=127 time=0.035416666666666666\n",
      "note_on channel=0 note=62 velocity=127 time=0.013541666666666667\n",
      "note_off channel=0 note=60 velocity=127 time=0.00625\n",
      "note_off channel=0 note=62 velocity=127 time=0.013541666666666667\n",
      "note_on channel=0 note=62 velocity=127 time=0.06875\n",
      "\u001b[91m [DEBUG] > \u001b[0m\n",
      " |>  to_array: msg.time > max_t; t, n\n",
      " |>  3.0177083333333368\n",
      " |>  150\n",
      "note_on channel=0 note=62 velocity=127 time=0.004166666666666667\n",
      "note_off channel=0 note=62 velocity=127 time=0.019791666666666666\n",
      "note_on channel=0 note=62 velocity=127 time=0.05416666666666667\n",
      "note_on channel=0 note=61 velocity=127 time=0.007291666666666667\n",
      "note_off channel=0 note=62 velocity=127 time=0.0125\n",
      "note_off channel=0 note=61 velocity=127 time=0.007291666666666667\n",
      "note_on channel=0 note=62 velocity=127 time=0.046875\n",
      "note_off channel=0 note=62 velocity=127 time=0.019791666666666666\n",
      "note_on channel=0 note=61 velocity=127 time=0.00625\n",
      "note_on channel=0 note=60 velocity=127 time=0.010416666666666666\n",
      "note_off channel=0 note=61 velocity=127 time=0.009375\n",
      "note_off channel=0 note=60 velocity=127 time=0.010416666666666666\n",
      "note_on channel=0 note=62 velocity=127 time=0.017708333333333333\n",
      "note_off channel=0 note=62 velocity=127 time=0.019791666666666666\n",
      "note_on channel=0 note=61 velocity=127 time=0.02395833333333333\n",
      "note_off channel=0 note=61 velocity=127 time=0.019791666666666666\n",
      "note_on channel=0 note=62 velocity=127 time=0.009375\n",
      "note_off channel=0 note=62 velocity=127 time=0.019791666666666666\n",
      "note_on channel=0 note=61 velocity=127 time=0.042708333333333334\n",
      "note_on channel=0 note=62 velocity=127 time=0.011458333333333333\n",
      "note_off channel=0 note=61 velocity=127 time=0.008333333333333333\n",
      "note_off channel=0 note=62 velocity=127 time=0.011458333333333333\n",
      "note_on channel=0 note=62 velocity=127 time=0.05416666666666667\n",
      "note_on channel=0 note=61 velocity=127 time=0.007291666666666667\n",
      "note_on channel=0 note=60 velocity=127 time=0.00625\n",
      "note_off channel=0 note=62 velocity=127 time=0.00625\n",
      "note_off channel=0 note=61 velocity=127 time=0.007291666666666667\n",
      "note_off channel=0 note=60 velocity=127 time=0.00625\n",
      "note_on channel=0 note=62 velocity=127 time=0.040625\n",
      "note_off channel=0 note=62 velocity=127 time=0.019791666666666666\n",
      "note_on channel=0 note=61 velocity=127 time=0.00625\n",
      "note_off channel=0 note=61 velocity=127 time=0.019791666666666666\n",
      "note_on channel=0 note=62 velocity=127 time=0.028125\n",
      "note_off channel=0 note=62 velocity=127 time=0.019791666666666666\n",
      "note_on channel=0 note=61 velocity=127 time=0.02395833333333333\n",
      "note_off channel=0 note=61 velocity=127 time=0.019791666666666666\n",
      "note_on channel=0 note=62 velocity=127 time=0.010416666666666666\n",
      "note_off channel=0 note=62 velocity=127 time=0.019791666666666666\n",
      "note_on channel=0 note=61 velocity=127 time=0.042708333333333334\n",
      "note_on channel=0 note=60 velocity=127 time=0.0020833333333333333\n",
      "note_on channel=0 note=62 velocity=127 time=0.009375\n",
      "note_off channel=0 note=61 velocity=127 time=0.008333333333333333\n",
      "note_off channel=0 note=60 velocity=127 time=0.0020833333333333333\n",
      "note_off channel=0 note=62 velocity=127 time=0.009375\n",
      "note_on channel=0 note=62 velocity=127 time=0.05416666666666667\n",
      "note_on channel=0 note=61 velocity=127 time=0.007291666666666667\n",
      "note_off channel=0 note=62 velocity=127 time=0.0125\n",
      "note_off channel=0 note=61 velocity=127 time=0.007291666666666667\n",
      "note_on channel=0 note=62 velocity=127 time=0.046875\n",
      "note_off channel=0 note=62 velocity=127 time=0.019791666666666666\n",
      "note_on channel=0 note=61 velocity=127 time=0.005208333333333333\n",
      "note_off channel=0 note=61 velocity=127 time=0.019791666666666666\n",
      "note_on channel=0 note=62 velocity=127 time=0.028125\n",
      "note_off channel=0 note=62 velocity=127 time=0.019791666666666666\n",
      "note_on channel=0 note=60 velocity=127 time=0.021875\n",
      "note_on channel=0 note=61 velocity=127 time=0.003125\n",
      "note_off channel=0 note=60 velocity=127 time=0.017708333333333333\n",
      "note_off channel=0 note=61 velocity=127 time=0.003125\n",
      "note_on channel=0 note=62 velocity=127 time=0.010416666666666666\n",
      "note_off channel=0 note=62 velocity=127 time=0.019791666666666666\n",
      "note_on channel=0 note=61 velocity=127 time=0.042708333333333334\n",
      "note_on channel=0 note=62 velocity=127 time=0.011458333333333333\n",
      "note_off channel=0 note=61 velocity=127 time=0.008333333333333333\n",
      "note_off channel=0 note=62 velocity=127 time=0.011458333333333333\n",
      "note_on channel=0 note=62 velocity=127 time=0.05416666666666667\n",
      "note_on channel=0 note=61 velocity=127 time=0.007291666666666667\n",
      "note_off channel=0 note=62 velocity=127 time=0.0125\n",
      "note_off channel=0 note=61 velocity=127 time=0.007291666666666667\n",
      "note_on channel=0 note=62 velocity=127 time=0.046875\n",
      "note_on channel=0 note=60 velocity=127 time=0.01875\n",
      "note_off channel=0 note=62 velocity=127 time=0.0020833333333333333\n",
      "note_on channel=0 note=61 velocity=127 time=0.005208333333333333\n",
      "note_off channel=0 note=60 velocity=127 time=0.0125\n",
      "note_off channel=0 note=61 velocity=127 time=0.007291666666666667\n",
      "note_on channel=0 note=62 velocity=127 time=0.028125\n",
      "note_off channel=0 note=62 velocity=127 time=0.019791666666666666\n",
      "note_on channel=0 note=61 velocity=127 time=0.02395833333333333\n",
      "note_off channel=0 note=61 velocity=127 time=0.019791666666666666\n",
      "note_on channel=0 note=62 velocity=127 time=0.010416666666666666\n",
      "note_off channel=0 note=62 velocity=127 time=0.019791666666666666\n",
      "note_on channel=0 note=61 velocity=127 time=0.042708333333333334\n",
      "note_on channel=0 note=62 velocity=127 time=0.011458333333333333\n",
      "note_off channel=0 note=61 velocity=127 time=0.008333333333333333\n",
      "note_off channel=0 note=62 velocity=127 time=0.011458333333333333\n",
      "note_on channel=0 note=60 velocity=127 time=0.04895833333333333\n",
      "note_on channel=0 note=62 velocity=127 time=0.005208333333333333\n",
      "note_on channel=0 note=61 velocity=127 time=0.007291666666666667\n",
      "note_off channel=0 note=60 velocity=127 time=0.008333333333333333\n",
      "note_off channel=0 note=62 velocity=127 time=0.005208333333333333\n",
      "note_off channel=0 note=61 velocity=127 time=0.007291666666666667\n",
      "note_on channel=0 note=62 velocity=127 time=0.046875\n",
      "note_off channel=0 note=62 velocity=127 time=0.019791666666666666\n",
      "note_on channel=0 note=61 velocity=127 time=0.005208333333333333\n",
      "note_off channel=0 note=61 velocity=127 time=0.019791666666666666\n",
      "note_on channel=0 note=62 velocity=127 time=0.028125\n",
      "note_off channel=0 note=62 velocity=127 time=0.019791666666666666\n",
      "note_on channel=0 note=61 velocity=127 time=0.02395833333333333\n",
      "note_off channel=0 note=61 velocity=127 time=0.019791666666666666\n",
      "note_on channel=0 note=62 velocity=127 time=0.010416666666666666\n",
      "note_off channel=0 note=62 velocity=127 time=0.019791666666666666\n",
      "note_on channel=0 note=60 velocity=127 time=0.026041666666666668\n",
      "note_on channel=0 note=61 velocity=127 time=0.016666666666666666\n",
      "note_off channel=0 note=60 velocity=127 time=0.003125\n",
      "note_on channel=0 note=62 velocity=127 time=0.008333333333333333\n",
      "note_off channel=0 note=61 velocity=127 time=0.008333333333333333\n",
      "note_off channel=0 note=62 velocity=127 time=0.011458333333333333\n",
      "note_on channel=0 note=62 velocity=127 time=0.05416666666666667\n",
      "note_on channel=0 note=61 velocity=127 time=0.007291666666666667\n",
      "note_off channel=0 note=62 velocity=127 time=0.013541666666666667\n",
      "note_off channel=0 note=61 velocity=127 time=0.007291666666666667\n",
      "note_on channel=0 note=62 velocity=127 time=0.046875\n",
      "note_off channel=0 note=62 velocity=127 time=0.019791666666666666\n",
      "note_on channel=0 note=61 velocity=127 time=0.005208333333333333\n",
      "note_off channel=0 note=61 velocity=127 time=0.019791666666666666\n",
      "note_on channel=0 note=62 velocity=127 time=0.029166666666666667\n",
      "note_off channel=0 note=62 velocity=127 time=0.019791666666666666\n",
      "note_on channel=0 note=60 velocity=127 time=0.003125\n",
      "note_off channel=0 note=60 velocity=127 time=0.019791666666666666\n",
      "note_on channel=0 note=61 velocity=127 time=0.0010416666666666667\n",
      "note_off channel=0 note=61 velocity=127 time=0.019791666666666666\n",
      "note_on channel=0 note=62 velocity=127 time=0.010416666666666666\n",
      "note_off channel=0 note=62 velocity=127 time=0.019791666666666666\n",
      "note_on channel=0 note=61 velocity=127 time=0.042708333333333334\n",
      "note_on channel=0 note=62 velocity=127 time=0.011458333333333333\n",
      "note_off channel=0 note=61 velocity=127 time=0.008333333333333333\n",
      "note_off channel=0 note=62 velocity=127 time=0.011458333333333333\n",
      "note_on channel=0 note=62 velocity=127 time=0.05416666666666667\n",
      "note_on channel=0 note=61 velocity=127 time=0.007291666666666667\n",
      "note_off channel=0 note=62 velocity=127 time=0.013541666666666667\n",
      "note_off channel=0 note=61 velocity=127 time=0.007291666666666667\n",
      "note_on channel=0 note=60 velocity=127 time=0.046875\n",
      "note_on channel=0 note=62 velocity=127 time=0\n",
      "note_off channel=0 note=60 velocity=127 time=0.019791666666666666\n",
      "note_off channel=0 note=62 velocity=127 time=0\n",
      "note_on channel=0 note=61 velocity=127 time=0.005208333333333333\n",
      "note_off channel=0 note=61 velocity=127 time=0.019791666666666666\n",
      "note_on channel=0 note=62 velocity=127 time=0.029166666666666667\n",
      "note_off channel=0 note=62 velocity=127 time=0.019791666666666666\n",
      "note_on channel=0 note=61 velocity=127 time=0.02395833333333333\n",
      "note_off channel=0 note=61 velocity=127 time=0.019791666666666666\n",
      "note_on channel=0 note=62 velocity=127 time=0.010416666666666666\n",
      "note_off channel=0 note=62 velocity=127 time=0.019791666666666666\n",
      "note_on channel=0 note=61 velocity=127 time=0.042708333333333334\n",
      "note_on channel=0 note=62 velocity=127 time=0.011458333333333333\n",
      "note_off channel=0 note=61 velocity=127 time=0.008333333333333333\n",
      "note_off channel=0 note=62 velocity=127 time=0.011458333333333333\n",
      "note_on channel=0 note=60 velocity=127 time=0.03125\n",
      "note_off channel=0 note=60 velocity=127 time=0.019791666666666666\n",
      "note_on channel=0 note=62 velocity=127 time=0.003125\n",
      "note_on channel=0 note=61 velocity=127 time=0.007291666666666667\n",
      "note_off channel=0 note=62 velocity=127 time=0.013541666666666667\n",
      "note_off channel=0 note=61 velocity=127 time=0.007291666666666667\n",
      "note_on channel=0 note=62 velocity=127 time=0.046875\n",
      "note_off channel=0 note=62 velocity=127 time=0.019791666666666666\n",
      "note_on channel=0 note=61 velocity=127 time=0.005208333333333333\n",
      "note_off channel=0 note=61 velocity=127 time=0.019791666666666666\n",
      "note_on channel=0 note=62 velocity=127 time=0.029166666666666667\n",
      "note_off channel=0 note=62 velocity=127 time=0.019791666666666666\n",
      "note_on channel=0 note=61 velocity=127 time=0.02395833333333333\n",
      "note_off channel=0 note=61 velocity=127 time=0.019791666666666666\n",
      "note_on channel=0 note=62 velocity=127 time=0.010416666666666666\n",
      "note_off channel=0 note=62 velocity=127 time=0.019791666666666666\n",
      "note_on channel=0 note=60 velocity=127 time=0.007291666666666667\n",
      "note_off channel=0 note=60 velocity=127 time=0.019791666666666666\n",
      "note_on channel=0 note=61 velocity=127 time=0.014583333333333334\n",
      "note_on channel=0 note=62 velocity=127 time=0.011458333333333333\n",
      "note_off channel=0 note=61 velocity=127 time=0.008333333333333333\n",
      "note_off channel=0 note=62 velocity=127 time=0.011458333333333333\n",
      "note_on channel=0 note=62 velocity=127 time=0.05416666666666667\n",
      "\u001b[91m [DEBUG] > \u001b[0m\n",
      " |>  to_array: msg.time > max_t; t, n\n",
      " |>  3.038541666666669\n",
      " |>  150\n",
      "note_on channel=0 note=61 velocity=127 time=0.008333333333333333\n",
      "note_off channel=0 note=61 velocity=127 time=0.019791666666666666\n",
      "note_on channel=0 note=61 velocity=127 time=0.06666666666666667\n",
      "note_on channel=0 note=60 velocity=127 time=0.005208333333333333\n",
      "note_on channel=0 note=62 velocity=127 time=0.013541666666666667\n",
      "note_off channel=0 note=61 velocity=127 time=0.0010416666666666667\n",
      "note_off channel=0 note=60 velocity=127 time=0.005208333333333333\n",
      "note_off channel=0 note=62 velocity=127 time=0.013541666666666667\n",
      "note_on channel=0 note=61 velocity=127 time=0.04791666666666666\n",
      "note_off channel=0 note=61 velocity=127 time=0.019791666666666666\n",
      "note_on channel=0 note=60 velocity=127 time=0.041666666666666664\n",
      "note_on channel=0 note=62 velocity=127 time=0.0125\n",
      "note_off channel=0 note=60 velocity=127 time=0.008333333333333333\n",
      "note_on channel=0 note=61 velocity=127 time=0.004166666666666667\n",
      "note_off channel=0 note=62 velocity=127 time=0.007291666666666667\n",
      "note_off channel=0 note=61 velocity=127 time=0.0125\n",
      "note_on channel=0 note=61 velocity=127 time=0.06666666666666667\n",
      "note_off channel=0 note=61 velocity=127 time=0.019791666666666666\n",
      "note_on channel=0 note=60 velocity=127 time=0.0125\n",
      "note_on channel=0 note=62 velocity=127 time=0.010416666666666666\n",
      "note_off channel=0 note=60 velocity=127 time=0.009375\n",
      "note_off channel=0 note=62 velocity=127 time=0.010416666666666666\n",
      "note_on channel=0 note=61 velocity=127 time=0.02395833333333333\n",
      "note_off channel=0 note=61 velocity=127 time=0.019791666666666666\n",
      "note_on channel=0 note=61 velocity=127 time=0.06666666666666667\n",
      "note_on channel=0 note=60 velocity=127 time=0.0020833333333333333\n",
      "note_on channel=0 note=62 velocity=127 time=0.009375\n",
      "note_off channel=0 note=61 velocity=127 time=0.009375\n",
      "note_off channel=0 note=60 velocity=127 time=0.0020833333333333333\n",
      "note_off channel=0 note=62 velocity=127 time=0.009375\n",
      "note_on channel=0 note=61 velocity=127 time=0.05625\n",
      "note_off channel=0 note=61 velocity=127 time=0.019791666666666666\n",
      "note_on channel=0 note=60 velocity=127 time=0.03854166666666667\n",
      "note_on channel=0 note=62 velocity=127 time=0.007291666666666667\n",
      "note_off channel=0 note=60 velocity=127 time=0.0125\n",
      "note_off channel=0 note=62 velocity=127 time=0.007291666666666667\n",
      "note_on channel=0 note=61 velocity=127 time=0.0010416666666666667\n",
      "note_off channel=0 note=61 velocity=127 time=0.019791666666666666\n",
      "note_on channel=0 note=61 velocity=127 time=0.06666666666666667\n",
      "note_off channel=0 note=61 velocity=127 time=0.019791666666666666\n",
      "note_on channel=0 note=60 velocity=127 time=0.009375\n",
      "note_on channel=0 note=62 velocity=127 time=0.00625\n",
      "note_off channel=0 note=60 velocity=127 time=0.014583333333333334\n",
      "note_off channel=0 note=62 velocity=127 time=0.00625\n",
      "note_on channel=0 note=61 velocity=127 time=0.03229166666666666\n",
      "note_off channel=0 note=61 velocity=127 time=0.019791666666666666\n",
      "note_on channel=0 note=60 velocity=127 time=0.065625\n",
      "note_on channel=0 note=61 velocity=127 time=0.0010416666666666667\n",
      "note_on channel=0 note=62 velocity=127 time=0.003125\n",
      "note_off channel=0 note=60 velocity=127 time=0.015625\n",
      "note_off channel=0 note=61 velocity=127 time=0.0010416666666666667\n",
      "note_off channel=0 note=62 velocity=127 time=0.003125\n",
      "note_on channel=0 note=61 velocity=127 time=0.06354166666666666\n",
      "note_off channel=0 note=61 velocity=127 time=0.019791666666666666\n",
      "note_on channel=0 note=60 velocity=127 time=0.035416666666666666\n",
      "note_on channel=0 note=62 velocity=127 time=0.003125\n",
      "note_off channel=0 note=60 velocity=127 time=0.017708333333333333\n",
      "note_off channel=0 note=62 velocity=127 time=0.003125\n",
      "note_on channel=0 note=61 velocity=127 time=0.008333333333333333\n",
      "note_off channel=0 note=61 velocity=127 time=0.019791666666666666\n",
      "note_on channel=0 note=61 velocity=127 time=0.06666666666666667\n",
      "note_off channel=0 note=61 velocity=127 time=0.019791666666666666\n",
      "note_on channel=0 note=60 velocity=127 time=0.005208333333333333\n",
      "note_on channel=0 note=62 velocity=127 time=0.0010416666666666667\n",
      "note_off channel=0 note=60 velocity=127 time=0.01875\n",
      "note_off channel=0 note=62 velocity=127 time=0.0010416666666666667\n",
      "note_on channel=0 note=61 velocity=127 time=0.040625\n",
      "note_off channel=0 note=61 velocity=127 time=0.019791666666666666\n",
      "note_on channel=0 note=62 velocity=127 time=0.06145833333333333\n",
      "note_on channel=0 note=60 velocity=127 time=0\n",
      "note_on channel=0 note=61 velocity=127 time=0.004166666666666667\n",
      "note_off channel=0 note=62 velocity=127 time=0.014583333333333334\n",
      "note_off channel=0 note=60 velocity=127 time=0\n",
      "note_off channel=0 note=61 velocity=127 time=0.004166666666666667\n",
      "note_on channel=0 note=61 velocity=127 time=0.06666666666666667\n",
      "note_off channel=0 note=61 velocity=127 time=0.019791666666666666\n",
      "note_on channel=0 note=62 velocity=127 time=0.030208333333333334\n",
      "note_on channel=0 note=60 velocity=127 time=0.0020833333333333333\n",
      "note_off channel=0 note=62 velocity=127 time=0.017708333333333333\n",
      "note_off channel=0 note=60 velocity=127 time=0.0020833333333333333\n",
      "note_on channel=0 note=61 velocity=127 time=0.014583333333333334\n",
      "note_off channel=0 note=61 velocity=127 time=0.019791666666666666\n",
      "note_on channel=0 note=61 velocity=127 time=0.06666666666666667\n",
      "note_on channel=0 note=62 velocity=127 time=0.01875\n",
      "note_off channel=0 note=61 velocity=127 time=0.0010416666666666667\n",
      "note_on channel=0 note=60 velocity=127 time=0.0020833333333333333\n",
      "note_off channel=0 note=62 velocity=127 time=0.016666666666666666\n",
      "note_off channel=0 note=60 velocity=127 time=0.003125\n",
      "note_on channel=0 note=61 velocity=127 time=0.04479166666666667\n",
      "note_off channel=0 note=61 velocity=127 time=0.019791666666666666\n",
      "note_on channel=0 note=62 velocity=127 time=0.05416666666666667\n",
      "note_on channel=0 note=60 velocity=127 time=0.005208333333333333\n",
      "note_on channel=0 note=61 velocity=127 time=0.007291666666666667\n",
      "note_off channel=0 note=62 velocity=127 time=0.007291666666666667\n",
      "note_off channel=0 note=60 velocity=127 time=0.005208333333333333\n",
      "note_off channel=0 note=61 velocity=127 time=0.007291666666666667\n",
      "note_on channel=0 note=61 velocity=127 time=0.06666666666666667\n",
      "note_off channel=0 note=61 velocity=127 time=0.019791666666666666\n",
      "note_on channel=0 note=62 velocity=127 time=0.021875\n",
      "note_on channel=0 note=60 velocity=127 time=0.00625\n",
      "note_off channel=0 note=62 velocity=127 time=0.013541666666666667\n",
      "note_off channel=0 note=60 velocity=127 time=0.00625\n",
      "note_on channel=0 note=61 velocity=127 time=0.017708333333333333\n",
      "note_off channel=0 note=61 velocity=127 time=0.019791666666666666\n",
      "note_on channel=0 note=61 velocity=127 time=0.06666666666666667\n",
      "note_on channel=0 note=62 velocity=127 time=0.010416666666666666\n",
      "note_on channel=0 note=60 velocity=127 time=0.008333333333333333\n",
      "note_off channel=0 note=61 velocity=127 time=0.0010416666666666667\n",
      "note_off channel=0 note=62 velocity=127 time=0.010416666666666666\n",
      "note_off channel=0 note=60 velocity=127 time=0.008333333333333333\n",
      "note_on channel=0 note=61 velocity=127 time=0.04791666666666666\n",
      "note_off channel=0 note=61 velocity=127 time=0.019791666666666666\n",
      "note_on channel=0 note=62 velocity=127 time=0.04583333333333333\n",
      "note_on channel=0 note=60 velocity=127 time=0.010416666666666666\n",
      "note_off channel=0 note=62 velocity=127 time=0.010416666666666666\n",
      "note_on channel=0 note=61 velocity=127 time=0.0010416666666666667\n",
      "note_off channel=0 note=60 velocity=127 time=0.009375\n",
      "note_off channel=0 note=61 velocity=127 time=0.011458333333333333\n",
      "note_on channel=0 note=61 velocity=127 time=0.06666666666666667\n",
      "note_off channel=0 note=61 velocity=127 time=0.019791666666666666\n",
      "note_on channel=0 note=62 velocity=127 time=0.014583333333333334\n",
      "note_on channel=0 note=60 velocity=127 time=0.011458333333333333\n",
      "note_off channel=0 note=62 velocity=127 time=0.008333333333333333\n",
      "note_off channel=0 note=60 velocity=127 time=0.011458333333333333\n",
      "note_on channel=0 note=61 velocity=127 time=0.020833333333333332\n",
      "note_off channel=0 note=61 velocity=127 time=0.019791666666666666\n",
      "note_on channel=0 note=61 velocity=127 time=0.06666666666666667\n",
      "note_on channel=0 note=62 velocity=127 time=0.003125\n",
      "note_on channel=0 note=60 velocity=127 time=0.013541666666666667\n",
      "note_off channel=0 note=61 velocity=127 time=0.004166666666666667\n",
      "note_off channel=0 note=62 velocity=127 time=0.003125\n",
      "note_off channel=0 note=60 velocity=127 time=0.013541666666666667\n",
      "note_on channel=0 note=61 velocity=127 time=0.051041666666666666\n",
      "note_off channel=0 note=61 velocity=127 time=0.019791666666666666\n",
      "note_on channel=0 note=62 velocity=127 time=0.0375\n"
     ]
    },
    {
     "name": "stdout",
     "output_type": "stream",
     "text": [
      "note_on channel=0 note=60 velocity=127 time=0.014583333333333334\n",
      "note_off channel=0 note=62 velocity=127 time=0.005208333333333333\n",
      "note_on channel=0 note=61 velocity=127 time=0.009375\n",
      "note_off channel=0 note=60 velocity=127 time=0.005208333333333333\n",
      "note_off channel=0 note=61 velocity=127 time=0.014583333333333334\n",
      "note_on channel=0 note=61 velocity=127 time=0.06666666666666667\n",
      "note_off channel=0 note=61 velocity=127 time=0.019791666666666666\n",
      "note_on channel=0 note=62 velocity=127 time=0.00625\n",
      "note_on channel=0 note=60 velocity=127 time=0.016666666666666666\n",
      "note_off channel=0 note=62 velocity=127 time=0.004166666666666667\n",
      "note_off channel=0 note=60 velocity=127 time=0.016666666666666666\n",
      "note_on channel=0 note=61 velocity=127 time=0.02395833333333333\n",
      "note_off channel=0 note=61 velocity=127 time=0.019791666666666666\n",
      "note_on channel=0 note=62 velocity=127 time=0.06145833333333333\n",
      "note_on channel=0 note=61 velocity=127 time=0.005208333333333333\n",
      "note_on channel=0 note=60 velocity=127 time=0.0125\n",
      "note_off channel=0 note=62 velocity=127 time=0.0020833333333333333\n",
      "note_off channel=0 note=61 velocity=127 time=0.005208333333333333\n",
      "note_off channel=0 note=60 velocity=127 time=0.0125\n",
      "note_on channel=0 note=61 velocity=127 time=0.05416666666666667\n",
      "\u001b[91m [DEBUG] > \u001b[0m\n",
      " |>  to_array: msg.time > max_t; t, n\n",
      " |>  3.0416666666666696\n",
      " |>  150\n",
      "note_on channel=0 note=62 velocity=127 time=0.04583333333333333\n",
      "note_off channel=0 note=62 velocity=127 time=0.019791666666666666\n",
      "note_on channel=0 note=60 velocity=127 time=0.04375\n",
      "note_on channel=0 note=62 velocity=127 time=0.003125\n",
      "note_on channel=0 note=61 velocity=127 time=0.0010416666666666667\n",
      "note_off channel=0 note=60 velocity=127 time=0.015625\n",
      "note_off channel=0 note=62 velocity=127 time=0.003125\n",
      "note_off channel=0 note=61 velocity=127 time=0.0010416666666666667\n",
      "note_on channel=0 note=62 velocity=127 time=0.04479166666666667\n",
      "note_off channel=0 note=62 velocity=127 time=0.019791666666666666\n",
      "note_on channel=0 note=60 velocity=127 time=0.020833333333333332\n",
      "note_off channel=0 note=60 velocity=127 time=0.019791666666666666\n",
      "note_on channel=0 note=62 velocity=127 time=0.00625\n",
      "note_on channel=0 note=61 velocity=127 time=0.004166666666666667\n",
      "note_off channel=0 note=62 velocity=127 time=0.016666666666666666\n",
      "note_off channel=0 note=61 velocity=127 time=0.004166666666666667\n",
      "note_on channel=0 note=62 velocity=127 time=0.042708333333333334\n",
      "note_on channel=0 note=60 velocity=127 time=0.016666666666666666\n",
      "note_off channel=0 note=62 velocity=127 time=0.003125\n",
      "note_off channel=0 note=60 velocity=127 time=0.016666666666666666\n",
      "note_on channel=0 note=62 velocity=127 time=0.030208333333333334\n",
      "note_on channel=0 note=61 velocity=127 time=0.00625\n",
      "note_off channel=0 note=62 velocity=127 time=0.013541666666666667\n",
      "note_off channel=0 note=61 velocity=127 time=0.00625\n",
      "note_on channel=0 note=60 velocity=127 time=0.034375\n",
      "note_on channel=0 note=62 velocity=127 time=0.00625\n",
      "note_off channel=0 note=60 velocity=127 time=0.013541666666666667\n",
      "note_off channel=0 note=62 velocity=127 time=0.00625\n",
      "note_on channel=0 note=62 velocity=127 time=0.046875\n",
      "note_on channel=0 note=61 velocity=127 time=0.008333333333333333\n",
      "note_off channel=0 note=62 velocity=127 time=0.011458333333333333\n",
      "note_off channel=0 note=61 velocity=127 time=0.008333333333333333\n",
      "note_on channel=0 note=60 velocity=127 time=0.008333333333333333\n",
      "note_off channel=0 note=60 velocity=127 time=0.019791666666666666\n",
      "note_on channel=0 note=62 velocity=127 time=0.009375\n",
      "note_off channel=0 note=62 velocity=127 time=0.019791666666666666\n",
      "note_on channel=0 note=62 velocity=127 time=0.046875\n",
      "note_on channel=0 note=61 velocity=127 time=0.011458333333333333\n",
      "note_on channel=0 note=60 velocity=127 time=0.0020833333333333333\n",
      "note_off channel=0 note=62 velocity=127 time=0.00625\n",
      "note_off channel=0 note=61 velocity=127 time=0.011458333333333333\n",
      "note_off channel=0 note=60 velocity=127 time=0.0020833333333333333\n",
      "note_on channel=0 note=62 velocity=127 time=0.03333333333333333\n",
      "note_off channel=0 note=62 velocity=127 time=0.019791666666666666\n",
      "note_on channel=0 note=60 velocity=127 time=0.036458333333333336\n",
      "note_on channel=0 note=62 velocity=127 time=0.010416666666666666\n",
      "note_off channel=0 note=60 velocity=127 time=0.010416666666666666\n",
      "note_on channel=0 note=61 velocity=127 time=0.003125\n",
      "note_off channel=0 note=62 velocity=127 time=0.00625\n",
      "note_off channel=0 note=61 velocity=127 time=0.013541666666666667\n",
      "note_on channel=0 note=62 velocity=127 time=0.03333333333333333\n",
      "note_off channel=0 note=62 velocity=127 time=0.019791666666666666\n",
      "note_on channel=0 note=60 velocity=127 time=0.013541666666666667\n",
      "note_off channel=0 note=60 velocity=127 time=0.019791666666666666\n",
      "note_on channel=0 note=62 velocity=127 time=0.013541666666666667\n",
      "note_on channel=0 note=61 velocity=127 time=0.015625\n",
      "note_off channel=0 note=62 velocity=127 time=0.004166666666666667\n",
      "note_off channel=0 note=61 velocity=127 time=0.015625\n",
      "note_on channel=0 note=62 velocity=127 time=0.03125\n",
      "note_on channel=0 note=60 velocity=127 time=0.009375\n",
      "note_off channel=0 note=62 velocity=127 time=0.010416666666666666\n",
      "note_off channel=0 note=60 velocity=127 time=0.009375\n",
      "note_on channel=0 note=62 velocity=127 time=0.036458333333333336\n",
      "note_on channel=0 note=61 velocity=127 time=0.01875\n",
      "note_off channel=0 note=62 velocity=127 time=0.0020833333333333333\n",
      "note_off channel=0 note=61 velocity=127 time=0.01875\n",
      "note_on channel=0 note=60 velocity=127 time=0.014583333333333334\n",
      "note_on channel=0 note=62 velocity=127 time=0.013541666666666667\n",
      "note_off channel=0 note=60 velocity=127 time=0.00625\n",
      "note_off channel=0 note=62 velocity=127 time=0.013541666666666667\n",
      "note_on channel=0 note=62 velocity=127 time=0.046875\n",
      "note_off channel=0 note=62 velocity=127 time=0.019791666666666666\n",
      "note_on channel=0 note=61 velocity=127 time=0.0010416666666666667\n",
      "note_on channel=0 note=60 velocity=127 time=0.009375\n",
      "note_off channel=0 note=61 velocity=127 time=0.011458333333333333\n",
      "note_off channel=0 note=60 velocity=127 time=0.009375\n",
      "note_on channel=0 note=62 velocity=127 time=0.016666666666666666\n",
      "note_off channel=0 note=62 velocity=127 time=0.019791666666666666\n",
      "note_on channel=0 note=62 velocity=127 time=0.046875\n",
      "note_on channel=0 note=60 velocity=127 time=0.00625\n",
      "note_off channel=0 note=62 velocity=127 time=0.013541666666666667\n",
      "note_on channel=0 note=61 velocity=127 time=0.003125\n",
      "note_off channel=0 note=60 velocity=127 time=0.003125\n",
      "note_off channel=0 note=61 velocity=127 time=0.016666666666666666\n",
      "note_on channel=0 note=62 velocity=127 time=0.02395833333333333\n",
      "note_off channel=0 note=62 velocity=127 time=0.019791666666666666\n",
      "note_on channel=0 note=60 velocity=127 time=0.029166666666666667\n",
      "note_on channel=0 note=62 velocity=127 time=0.017708333333333333\n",
      "note_off channel=0 note=60 velocity=127 time=0.003125\n",
      "note_off channel=0 note=62 velocity=127 time=0.017708333333333333\n",
      "note_on channel=0 note=61 velocity=127 time=0.005208333333333333\n",
      "note_off channel=0 note=61 velocity=127 time=0.019791666666666666\n",
      "note_on channel=0 note=62 velocity=127 time=0.020833333333333332\n",
      "note_off channel=0 note=62 velocity=127 time=0.019791666666666666\n",
      "note_on channel=0 note=60 velocity=127 time=0.00625\n",
      "note_off channel=0 note=60 velocity=127 time=0.019791666666666666\n",
      "note_on channel=0 note=62 velocity=127 time=0.020833333333333332\n",
      "note_off channel=0 note=62 velocity=127 time=0.019791666666666666\n",
      "note_on channel=0 note=61 velocity=127 time=0.008333333333333333\n",
      "note_off channel=0 note=61 velocity=127 time=0.019791666666666666\n",
      "note_on channel=0 note=62 velocity=127 time=0.01875\n",
      "note_on channel=0 note=60 velocity=127 time=0.0020833333333333333\n",
      "note_off channel=0 note=62 velocity=127 time=0.017708333333333333\n",
      "note_off channel=0 note=60 velocity=127 time=0.0020833333333333333\n",
      "note_on channel=0 note=62 velocity=127 time=0.04375\n",
      "note_off channel=0 note=62 velocity=127 time=0.019791666666666666\n",
      "note_on channel=0 note=61 velocity=127 time=0.010416666666666666\n",
      "note_on channel=0 note=60 velocity=127 time=0.015625\n",
      "note_off channel=0 note=61 velocity=127 time=0.004166666666666667\n",
      "note_off channel=0 note=60 velocity=127 time=0.015625\n",
      "note_on channel=0 note=62 velocity=127 time=0.0010416666666666667\n",
      "note_off channel=0 note=62 velocity=127 time=0.019791666666666666\n",
      "note_on channel=0 note=62 velocity=127 time=0.046875\n",
      "note_off channel=0 note=62 velocity=127 time=0.019791666666666666\n",
      "note_on channel=0 note=60 velocity=127 time=0.0020833333333333333\n",
      "note_on channel=0 note=61 velocity=127 time=0.010416666666666666\n",
      "note_off channel=0 note=60 velocity=127 time=0.009375\n",
      "note_off channel=0 note=61 velocity=127 time=0.010416666666666666\n",
      "note_on channel=0 note=62 velocity=127 time=0.013541666666666667\n",
      "note_off channel=0 note=62 velocity=127 time=0.019791666666666666\n",
      "note_on channel=0 note=60 velocity=127 time=0.04583333333333333\n",
      "note_on channel=0 note=62 velocity=127 time=0.0010416666666666667\n",
      "note_off channel=0 note=60 velocity=127 time=0.01875\n",
      "note_off channel=0 note=62 velocity=127 time=0.0010416666666666667\n",
      "note_on channel=0 note=61 velocity=127 time=0.014583333333333334\n",
      "note_off channel=0 note=61 velocity=127 time=0.019791666666666666\n",
      "note_on channel=0 note=62 velocity=127 time=0.011458333333333333\n",
      "note_off channel=0 note=62 velocity=127 time=0.019791666666666666\n",
      "note_on channel=0 note=60 velocity=127 time=0.021875\n",
      "note_off channel=0 note=60 velocity=127 time=0.019791666666666666\n",
      "note_on channel=0 note=62 velocity=127 time=0.004166666666666667\n",
      "note_off channel=0 note=62 velocity=127 time=0.019791666666666666\n",
      "note_on channel=0 note=61 velocity=127 time=0.017708333333333333\n",
      "note_off channel=0 note=61 velocity=127 time=0.019791666666666666\n",
      "note_on channel=0 note=62 velocity=127 time=0.009375\n",
      "note_on channel=0 note=60 velocity=127 time=0.01875\n",
      "note_off channel=0 note=62 velocity=127 time=0.0010416666666666667\n",
      "note_off channel=0 note=60 velocity=127 time=0.01875\n",
      "note_on channel=0 note=62 velocity=127 time=0.028125\n",
      "note_off channel=0 note=62 velocity=127 time=0.019791666666666666\n",
      "note_on channel=0 note=61 velocity=127 time=0.019791666666666666\n",
      "note_off channel=0 note=61 velocity=127 time=0.019791666666666666\n",
      "note_on channel=0 note=60 velocity=127 time=0.0020833333333333333\n",
      "note_on channel=0 note=62 velocity=127 time=0.004166666666666667\n",
      "note_off channel=0 note=60 velocity=127 time=0.015625\n",
      "note_off channel=0 note=62 velocity=127 time=0.004166666666666667\n",
      "note_on channel=0 note=62 velocity=127 time=0.046875\n",
      "note_off channel=0 note=62 velocity=127 time=0.019791666666666666\n",
      "note_on channel=0 note=60 velocity=127 time=0.01875\n",
      "note_on channel=0 note=61 velocity=127 time=0.004166666666666667\n",
      "note_off channel=0 note=60 velocity=127 time=0.016666666666666666\n",
      "note_off channel=0 note=61 velocity=127 time=0.004166666666666667\n",
      "note_on channel=0 note=62 velocity=127 time=0.004166666666666667\n",
      "note_off channel=0 note=62 velocity=127 time=0.019791666666666666\n",
      "note_on channel=0 note=62 velocity=127 time=0.046875\n",
      "note_on channel=0 note=60 velocity=127 time=0.015625\n",
      "note_off channel=0 note=62 velocity=127 time=0.005208333333333333\n",
      "note_off channel=0 note=60 velocity=127 time=0.015625\n",
      "note_on channel=0 note=61 velocity=127 time=0.009375\n",
      "note_off channel=0 note=61 velocity=127 time=0.019791666666666666\n",
      "note_on channel=0 note=62 velocity=127 time=0.0020833333333333333\n",
      "note_off channel=0 note=62 velocity=127 time=0.019791666666666666\n",
      "note_on channel=0 note=60 velocity=127 time=0.03854166666666667\n",
      "note_on channel=0 note=62 velocity=127 time=0.008333333333333333\n",
      "note_off channel=0 note=60 velocity=127 time=0.011458333333333333\n",
      "note_off channel=0 note=62 velocity=127 time=0.008333333333333333\n",
      "note_on channel=0 note=61 velocity=127 time=0.027083333333333334\n",
      "note_on channel=0 note=62 velocity=127 time=0.019791666666666666\n",
      "note_off channel=0 note=61 velocity=127 time=0\n",
      "note_off channel=0 note=62 velocity=127 time=0.019791666666666666\n",
      "note_on channel=0 note=60 velocity=127 time=0.014583333333333334\n",
      "note_off channel=0 note=60 velocity=127 time=0.019791666666666666\n",
      "note_on channel=0 note=62 velocity=127 time=0.011458333333333333\n",
      "note_off channel=0 note=62 velocity=127 time=0.019791666666666666\n",
      "note_on channel=0 note=61 velocity=127 time=0.029166666666666667\n",
      "note_on channel=0 note=62 velocity=127 time=0.016666666666666666\n",
      "note_off channel=0 note=61 velocity=127 time=0.003125\n",
      "note_on channel=0 note=60 velocity=127 time=0.008333333333333333\n",
      "note_off channel=0 note=62 velocity=127 time=0.008333333333333333\n",
      "note_off channel=0 note=60 velocity=127 time=0.011458333333333333\n",
      "note_on channel=0 note=62 velocity=127 time=0.035416666666666666\n",
      "note_off channel=0 note=62 velocity=127 time=0.019791666666666666\n",
      "note_on channel=0 note=61 velocity=127 time=0.03229166666666666\n",
      "note_on channel=0 note=60 velocity=127 time=0.003125\n",
      "note_on channel=0 note=62 velocity=127 time=0.011458333333333333\n",
      "note_off channel=0 note=61 velocity=127 time=0.005208333333333333\n",
      "note_off channel=0 note=60 velocity=127 time=0.003125\n",
      "note_off channel=0 note=62 velocity=127 time=0.011458333333333333\n",
      "\u001b[91m [DEBUG] > \u001b[0m\n",
      " |>  to_array: msg.time > max_t; t, n\n",
      " |>  2.993750000000002\n",
      " |>  150\n",
      "note_on channel=0 note=61 velocity=127 time=0.004166666666666667\n",
      "note_off channel=0 note=61 velocity=127 time=0.019791666666666666\n",
      "note_on channel=0 note=62 velocity=127 time=0.027083333333333334\n",
      "note_off channel=0 note=62 velocity=127 time=0.019791666666666666\n",
      "note_on channel=0 note=61 velocity=127 time=0.030208333333333334\n",
      "note_on channel=0 note=62 velocity=127 time=0.01875\n",
      "note_off channel=0 note=61 velocity=127 time=0.0020833333333333333\n",
      "note_off channel=0 note=62 velocity=127 time=0.01875\n",
      "note_on channel=0 note=60 velocity=127 time=0.028125\n",
      "note_off channel=0 note=60 velocity=127 time=0.019791666666666666\n",
      "note_on channel=0 note=62 velocity=127 time=0.0010416666666666667\n",
      "note_on channel=0 note=61 velocity=127 time=0.011458333333333333\n",
      "note_off channel=0 note=62 velocity=127 time=0.009375\n",
      "note_off channel=0 note=61 velocity=127 time=0.011458333333333333\n",
      "note_on channel=0 note=62 velocity=127 time=0.0375\n",
      "note_off channel=0 note=62 velocity=127 time=0.019791666666666666\n",
      "note_on channel=0 note=61 velocity=127 time=0.019791666666666666\n",
      "note_off channel=0 note=61 velocity=127 time=0.019791666666666666\n",
      "note_on channel=0 note=62 velocity=127 time=0.008333333333333333\n",
      "note_off channel=0 note=62 velocity=127 time=0.019791666666666666\n",
      "note_on channel=0 note=62 velocity=127 time=0.04895833333333333\n",
      "note_on channel=0 note=61 velocity=127 time=0.0010416666666666667\n",
      "note_on channel=0 note=60 velocity=127 time=0.014583333333333334\n",
      "note_off channel=0 note=62 velocity=127 time=0.005208333333333333\n",
      "note_off channel=0 note=61 velocity=127 time=0.0010416666666666667\n",
      "note_off channel=0 note=60 velocity=127 time=0.014583333333333334\n",
      "note_on channel=0 note=62 velocity=127 time=0.034375\n",
      "note_off channel=0 note=62 velocity=127 time=0.019791666666666666\n",
      "note_on channel=0 note=61 velocity=127 time=0.010416666666666666\n",
      "note_off channel=0 note=61 velocity=127 time=0.019791666666666666\n",
      "note_on channel=0 note=62 velocity=127 time=0.01875\n",
      "note_off channel=0 note=62 velocity=127 time=0.019791666666666666\n",
      "note_on channel=0 note=61 velocity=127 time=0.03958333333333333\n",
      "note_on channel=0 note=62 velocity=127 time=0.009375\n",
      "note_off channel=0 note=61 velocity=127 time=0.010416666666666666\n",
      "note_off channel=0 note=62 velocity=127 time=0.009375\n",
      "note_on channel=0 note=60 velocity=127 time=0.030208333333333334\n",
      "note_on channel=0 note=62 velocity=127 time=0.01875\n",
      "note_off channel=0 note=60 velocity=127 time=0.0010416666666666667\n",
      "note_on channel=0 note=61 velocity=127 time=0.017708333333333333\n",
      "note_off channel=0 note=62 velocity=127 time=0\n",
      "note_off channel=0 note=61 velocity=127 time=0.019791666666666666\n",
      "note_on channel=0 note=62 velocity=127 time=0.029166666666666667\n",
      "note_off channel=0 note=62 velocity=127 time=0.019791666666666666\n",
      "note_on channel=0 note=61 velocity=127 time=0.029166666666666667\n",
      "note_on channel=0 note=62 velocity=127 time=0.019791666666666666\n",
      "note_off channel=0 note=61 velocity=127 time=0\n",
      "note_off channel=0 note=62 velocity=127 time=0.019791666666666666\n",
      "note_on channel=0 note=62 velocity=127 time=0.04895833333333333\n",
      "note_on channel=0 note=61 velocity=127 time=0.009375\n",
      "note_on channel=0 note=60 velocity=127 time=0.007291666666666667\n",
      "note_off channel=0 note=62 velocity=127 time=0.003125\n",
      "note_off channel=0 note=61 velocity=127 time=0.009375\n",
      "note_off channel=0 note=60 velocity=127 time=0.007291666666666667\n",
      "note_on channel=0 note=62 velocity=127 time=0.03229166666666666\n",
      "note_off channel=0 note=62 velocity=127 time=0.019791666666666666\n",
      "note_on channel=0 note=61 velocity=127 time=0.01875\n",
      "note_off channel=0 note=61 velocity=127 time=0.019791666666666666\n",
      "note_on channel=0 note=62 velocity=127 time=0.010416666666666666\n",
      "note_off channel=0 note=62 velocity=127 time=0.019791666666666666\n",
      "note_on channel=0 note=61 velocity=127 time=0.04791666666666666\n",
      "note_on channel=0 note=62 velocity=127 time=0.0010416666666666667\n",
      "note_off channel=0 note=61 velocity=127 time=0.01875\n",
      "note_off channel=0 note=62 velocity=127 time=0.0010416666666666667\n",
      "note_on channel=0 note=60 velocity=127 time=0.03229166666666666\n",
      "note_on channel=0 note=62 velocity=127 time=0.016666666666666666\n",
      "note_off channel=0 note=60 velocity=127 time=0.003125\n",
      "note_off channel=0 note=62 velocity=127 time=0.016666666666666666\n",
      "note_on channel=0 note=61 velocity=127 time=0.008333333333333333\n",
      "note_off channel=0 note=61 velocity=127 time=0.019791666666666666\n",
      "note_on channel=0 note=62 velocity=127 time=0.020833333333333332\n",
      "note_off channel=0 note=62 velocity=127 time=0.019791666666666666\n",
      "note_on channel=0 note=61 velocity=127 time=0.0375\n",
      "note_on channel=0 note=62 velocity=127 time=0.011458333333333333\n",
      "note_off channel=0 note=61 velocity=127 time=0.008333333333333333\n",
      "note_off channel=0 note=62 velocity=127 time=0.011458333333333333\n",
      "note_on channel=0 note=62 velocity=127 time=0.04895833333333333\n",
      "note_on channel=0 note=61 velocity=127 time=0.017708333333333333\n",
      "note_on channel=0 note=60 velocity=127 time=0.0010416666666666667\n",
      "note_off channel=0 note=62 velocity=127 time=0.0010416666666666667\n",
      "note_off channel=0 note=61 velocity=127 time=0.017708333333333333\n",
      "note_off channel=0 note=60 velocity=127 time=0.0010416666666666667\n",
      "note_on channel=0 note=62 velocity=127 time=0.030208333333333334\n",
      "note_off channel=0 note=62 velocity=127 time=0.019791666666666666\n",
      "note_on channel=0 note=61 velocity=127 time=0.027083333333333334\n",
      "note_off channel=0 note=61 velocity=127 time=0.019791666666666666\n",
      "note_on channel=0 note=62 velocity=127 time=0.0020833333333333333\n",
      "note_off channel=0 note=62 velocity=127 time=0.019791666666666666\n",
      "note_on channel=0 note=62 velocity=127 time=0.04895833333333333\n",
      "note_on channel=0 note=61 velocity=127 time=0.007291666666666667\n",
      "note_off channel=0 note=62 velocity=127 time=0.0125\n",
      "note_off channel=0 note=61 velocity=127 time=0.007291666666666667\n",
      "note_on channel=0 note=60 velocity=127 time=0.027083333333333334\n",
      "note_on channel=0 note=62 velocity=127 time=0.014583333333333334\n",
      "note_off channel=0 note=60 velocity=127 time=0.005208333333333333\n",
      "note_off channel=0 note=62 velocity=127 time=0.014583333333333334\n",
      "note_on channel=0 note=61 velocity=127 time=0.016666666666666666\n",
      "note_off channel=0 note=61 velocity=127 time=0.019791666666666666\n",
      "note_on channel=0 note=62 velocity=127 time=0.0125\n",
      "note_off channel=0 note=62 velocity=127 time=0.019791666666666666\n",
      "note_on channel=0 note=61 velocity=127 time=0.04583333333333333\n",
      "note_on channel=0 note=62 velocity=127 time=0.003125\n",
      "note_off channel=0 note=61 velocity=127 time=0.017708333333333333\n",
      "note_off channel=0 note=62 velocity=127 time=0.003125\n",
      "note_on channel=0 note=62 velocity=127 time=0.04895833333333333\n",
      "note_off channel=0 note=62 velocity=127 time=0.019791666666666666\n",
      "note_on channel=0 note=60 velocity=127 time=0.0010416666666666667\n",
      "note_on channel=0 note=61 velocity=127 time=0.005208333333333333\n",
      "note_off channel=0 note=60 velocity=127 time=0.014583333333333334\n",
      "note_off channel=0 note=61 velocity=127 time=0.005208333333333333\n",
      "note_on channel=0 note=62 velocity=127 time=0.021875\n",
      "note_off channel=0 note=62 velocity=127 time=0.019791666666666666\n",
      "note_on channel=0 note=61 velocity=127 time=0.035416666666666666\n",
      "note_on channel=0 note=62 velocity=127 time=0.013541666666666667\n",
      "note_off channel=0 note=61 velocity=127 time=0.007291666666666667\n",
      "note_off channel=0 note=62 velocity=127 time=0.013541666666666667\n",
      "note_on channel=0 note=62 velocity=127 time=0.04895833333333333\n",
      "note_on channel=0 note=61 velocity=127 time=0.015625\n",
      "note_off channel=0 note=62 velocity=127 time=0.004166666666666667\n",
      "note_off channel=0 note=61 velocity=127 time=0.015625\n",
      "note_on channel=0 note=60 velocity=127 time=0.020833333333333332\n",
      "note_on channel=0 note=62 velocity=127 time=0.0125\n",
      "note_off channel=0 note=60 velocity=127 time=0.007291666666666667\n",
      "note_off channel=0 note=62 velocity=127 time=0.0125\n",
      "note_on channel=0 note=61 velocity=127 time=0.025\n",
      "note_off channel=0 note=61 velocity=127 time=0.019791666666666666\n",
      "note_on channel=0 note=62 velocity=127 time=0.003125\n",
      "note_off channel=0 note=62 velocity=127 time=0.019791666666666666\n",
      "note_on channel=0 note=62 velocity=127 time=0.04895833333333333\n",
      "note_on channel=0 note=61 velocity=127 time=0.00625\n",
      "note_off channel=0 note=62 velocity=127 time=0.014583333333333334\n",
      "note_off channel=0 note=61 velocity=127 time=0.00625\n",
      "note_on channel=0 note=62 velocity=127 time=0.042708333333333334\n",
      "note_off channel=0 note=62 velocity=127 time=0.019791666666666666\n",
      "note_on channel=0 note=60 velocity=127 time=0.003125\n",
      "note_on channel=0 note=61 velocity=127 time=0.0125\n",
      "note_off channel=0 note=60 velocity=127 time=0.008333333333333333\n",
      "note_off channel=0 note=61 velocity=127 time=0.0125\n",
      "note_on channel=0 note=62 velocity=127 time=0.013541666666666667\n",
      "note_off channel=0 note=62 velocity=127 time=0.019791666666666666\n",
      "note_on channel=0 note=61 velocity=127 time=0.04479166666666667\n",
      "note_on channel=0 note=62 velocity=127 time=0.004166666666666667\n",
      "note_off channel=0 note=61 velocity=127 time=0.015625\n",
      "note_off channel=0 note=62 velocity=127 time=0.004166666666666667\n",
      "note_on channel=0 note=62 velocity=127 time=0.04895833333333333\n",
      "note_off channel=0 note=62 velocity=127 time=0.019791666666666666\n",
      "note_on channel=0 note=61 velocity=127 time=0.005208333333333333\n",
      "note_off channel=0 note=61 velocity=127 time=0.019791666666666666\n",
      "note_on channel=0 note=60 velocity=127 time=0.013541666666666667\n",
      "note_on channel=0 note=62 velocity=127 time=0.010416666666666666\n",
      "note_off channel=0 note=60 velocity=127 time=0.009375\n",
      "note_off channel=0 note=62 velocity=127 time=0.010416666666666666\n",
      "note_on channel=0 note=61 velocity=127 time=0.034375\n",
      "note_on channel=0 note=62 velocity=127 time=0.014583333333333334\n",
      "note_off channel=0 note=61 velocity=127 time=0.005208333333333333\n",
      "note_off channel=0 note=62 velocity=127 time=0.014583333333333334\n",
      "note_on channel=0 note=62 velocity=127 time=0.04895833333333333\n",
      "note_on channel=0 note=61 velocity=127 time=0.014583333333333334\n",
      "note_off channel=0 note=62 velocity=127 time=0.005208333333333333\n",
      "note_off channel=0 note=61 velocity=127 time=0.014583333333333334\n",
      "note_on channel=0 note=62 velocity=127 time=0.034375\n",
      "note_off channel=0 note=62 velocity=127 time=0.019791666666666666\n",
      "note_on channel=0 note=60 velocity=127 time=0.005208333333333333\n",
      "note_on channel=0 note=61 velocity=127 time=0.01875\n",
      "note_off channel=0 note=60 velocity=127 time=0.0010416666666666667\n",
      "note_off channel=0 note=61 velocity=127 time=0.01875\n",
      "note_on channel=0 note=62 velocity=127 time=0.005208333333333333\n",
      "note_off channel=0 note=62 velocity=127 time=0.019791666666666666\n",
      "note_on channel=0 note=62 velocity=127 time=0.04895833333333333\n",
      "note_on channel=0 note=61 velocity=127 time=0.004166666666666667\n",
      "note_off channel=0 note=62 velocity=127 time=0.015625\n",
      "note_off channel=0 note=61 velocity=127 time=0.004166666666666667\n",
      "note_on channel=0 note=62 velocity=127 time=0.04479166666666667\n",
      "\u001b[91m [DEBUG] > \u001b[0m\n",
      " |>  to_array: msg.time > max_t; t, n\n",
      " |>  3.0114583333333367\n",
      " |>  150\n",
      "note_on channel=0 note=62 velocity=127 time=0.04791666666666666\n",
      "note_off channel=0 note=62 velocity=127 time=0.019791666666666666\n",
      "note_on channel=0 note=61 velocity=127 time=0.007291666666666667\n",
      "note_off channel=0 note=61 velocity=127 time=0.019791666666666666\n",
      "note_on channel=0 note=62 velocity=127 time=0.057291666666666664\n",
      "note_off channel=0 note=62 velocity=127 time=0.019791666666666666\n",
      "note_on channel=0 note=61 velocity=127 time=0.02395833333333333\n",
      "note_on channel=0 note=60 velocity=127 time=0.0125\n",
      "note_off channel=0 note=61 velocity=127 time=0.007291666666666667\n",
      "note_off channel=0 note=60 velocity=127 time=0.0125\n",
      "note_on channel=0 note=62 velocity=127 time=0.028125\n",
      "note_off channel=0 note=62 velocity=127 time=0.019791666666666666\n",
      "note_on channel=0 note=61 velocity=127 time=0.040625\n",
      "note_off channel=0 note=61 velocity=127 time=0.019791666666666666\n",
      "note_on channel=0 note=62 velocity=127 time=0.022916666666666665\n",
      "note_off channel=0 note=62 velocity=127 time=0.019791666666666666\n",
      "note_on channel=0 note=61 velocity=127 time=0.057291666666666664\n",
      "note_on channel=0 note=60 velocity=127 time=0.0010416666666666667\n",
      "note_off channel=0 note=61 velocity=127 time=0.019791666666666666\n",
      "note_off channel=0 note=60 velocity=127 time=0.0010416666666666667\n",
      "note_on channel=0 note=62 velocity=127 time=0.00625\n",
      "note_off channel=0 note=62 velocity=127 time=0.019791666666666666\n",
      "note_on channel=0 note=61 velocity=127 time=0.075\n",
      "note_on channel=0 note=62 velocity=127 time=0.009375\n",
      "note_off channel=0 note=61 velocity=127 time=0.010416666666666666\n",
      "note_off channel=0 note=62 velocity=127 time=0.009375\n",
      "note_on channel=0 note=60 velocity=127 time=0.08020833333333333\n",
      "note_on channel=0 note=62 velocity=127 time=0.003125\n",
      "note_on channel=0 note=61 velocity=127 time=0.007291666666666667\n",
      "note_off channel=0 note=60 velocity=127 time=0.009375\n",
      "note_off channel=0 note=62 velocity=127 time=0.003125\n",
      "note_off channel=0 note=61 velocity=127 time=0.007291666666666667\n",
      "note_on channel=0 note=62 velocity=127 time=0.07708333333333334\n",
      "note_off channel=0 note=62 velocity=127 time=0.019791666666666666\n",
      "note_on channel=0 note=61 velocity=127 time=0.004166666666666667\n",
      "note_off channel=0 note=61 velocity=127 time=0.019791666666666666\n",
      "note_on channel=0 note=62 velocity=127 time=0.059375\n",
      "note_on channel=0 note=60 velocity=127 time=0.01875\n",
      "note_off channel=0 note=62 velocity=127 time=0.0010416666666666667\n",
      "note_off channel=0 note=60 velocity=127 time=0.01875\n",
      "note_on channel=0 note=61 velocity=127 time=0.003125\n",
      "note_off channel=0 note=61 velocity=127 time=0.019791666666666666\n",
      "note_on channel=0 note=62 velocity=127 time=0.042708333333333334\n",
      "note_off channel=0 note=62 velocity=127 time=0.019791666666666666\n",
      "note_on channel=0 note=61 velocity=127 time=0.03854166666666667\n",
      "note_off channel=0 note=61 velocity=127 time=0.019791666666666666\n",
      "note_on channel=0 note=62 velocity=127 time=0.026041666666666668\n",
      "note_off channel=0 note=62 velocity=127 time=0.019791666666666666\n",
      "note_on channel=0 note=60 velocity=127 time=0.020833333333333332\n",
      "note_off channel=0 note=60 velocity=127 time=0.019791666666666666\n",
      "note_on channel=0 note=61 velocity=127 time=0.014583333333333334\n",
      "note_off channel=0 note=61 velocity=127 time=0.019791666666666666\n",
      "note_on channel=0 note=62 velocity=127 time=0.008333333333333333\n",
      "note_off channel=0 note=62 velocity=127 time=0.019791666666666666\n",
      "note_on channel=0 note=61 velocity=127 time=0.071875\n",
      "note_on channel=0 note=62 velocity=127 time=0.011458333333333333\n",
      "note_off channel=0 note=61 velocity=127 time=0.008333333333333333\n",
      "note_off channel=0 note=62 velocity=127 time=0.011458333333333333\n",
      "note_on channel=0 note=60 velocity=127 time=0.042708333333333334\n",
      "note_off channel=0 note=60 velocity=127 time=0.019791666666666666\n",
      "note_on channel=0 note=62 velocity=127 time=0.020833333333333332\n",
      "note_on channel=0 note=61 velocity=127 time=0.005208333333333333\n",
      "note_off channel=0 note=62 velocity=127 time=0.014583333333333334\n",
      "note_off channel=0 note=61 velocity=127 time=0.005208333333333333\n",
      "note_on channel=0 note=62 velocity=127 time=0.07916666666666666\n",
      "note_off channel=0 note=62 velocity=127 time=0.019791666666666666\n",
      "note_on channel=0 note=61 velocity=127 time=0.0020833333333333333\n",
      "note_off channel=0 note=61 velocity=127 time=0.019791666666666666\n",
      "note_on channel=0 note=60 velocity=127 time=0.04375\n",
      "note_on channel=0 note=62 velocity=127 time=0.01875\n",
      "note_off channel=0 note=60 velocity=127 time=0.0010416666666666667\n",
      "note_off channel=0 note=62 velocity=127 time=0.01875\n",
      "note_on channel=0 note=61 velocity=127 time=0.01875\n",
      "note_off channel=0 note=61 velocity=127 time=0.019791666666666666\n",
      "note_on channel=0 note=62 velocity=127 time=0.04479166666666667\n",
      "note_off channel=0 note=62 velocity=127 time=0.019791666666666666\n",
      "note_on channel=0 note=61 velocity=127 time=0.036458333333333336\n",
      "note_off channel=0 note=61 velocity=127 time=0.019791666666666666\n",
      "note_on channel=0 note=62 velocity=127 time=0.028125\n",
      "note_on channel=0 note=60 velocity=127 time=0.003125\n",
      "note_off channel=0 note=62 velocity=127 time=0.016666666666666666\n",
      "note_off channel=0 note=60 velocity=127 time=0.003125\n",
      "note_on channel=0 note=61 velocity=127 time=0.04895833333333333\n",
      "note_off channel=0 note=61 velocity=127 time=0.019791666666666666\n",
      "note_on channel=0 note=62 velocity=127 time=0.011458333333333333\n",
      "note_off channel=0 note=62 velocity=127 time=0.019791666666666666\n",
      "note_on channel=0 note=61 velocity=127 time=0.06979166666666667\n",
      "note_on channel=0 note=62 velocity=127 time=0.014583333333333334\n",
      "note_off channel=0 note=61 velocity=127 time=0.00625\n",
      "note_off channel=0 note=62 velocity=127 time=0.014583333333333334\n",
      "note_on channel=0 note=60 velocity=127 time=0.00625\n",
      "note_off channel=0 note=60 velocity=127 time=0.019791666666666666\n",
      "note_on channel=0 note=62 velocity=127 time=0.058333333333333334\n",
      "note_on channel=0 note=61 velocity=127 time=0.003125\n",
      "note_off channel=0 note=62 velocity=127 time=0.016666666666666666\n",
      "note_off channel=0 note=61 velocity=127 time=0.003125\n",
      "note_on channel=0 note=62 velocity=127 time=0.08125\n",
      "note_on channel=0 note=61 velocity=127 time=0.019791666666666666\n",
      "note_off channel=0 note=62 velocity=127 time=0\n",
      "note_off channel=0 note=61 velocity=127 time=0.019791666666666666\n",
      "note_on channel=0 note=60 velocity=127 time=0.008333333333333333\n",
      "note_off channel=0 note=60 velocity=127 time=0.019791666666666666\n",
      "note_on channel=0 note=62 velocity=127 time=0.036458333333333336\n",
      "note_off channel=0 note=62 velocity=127 time=0.019791666666666666\n",
      "note_on channel=0 note=61 velocity=127 time=0.016666666666666666\n",
      "note_off channel=0 note=61 velocity=127 time=0.019791666666666666\n",
      "note_on channel=0 note=62 velocity=127 time=0.046875\n",
      "note_off channel=0 note=62 velocity=127 time=0.019791666666666666\n",
      "note_on channel=0 note=61 velocity=127 time=0.03333333333333333\n",
      "note_on channel=0 note=60 velocity=127 time=0.016666666666666666\n",
      "note_off channel=0 note=61 velocity=127 time=0.003125\n",
      "note_off channel=0 note=60 velocity=127 time=0.016666666666666666\n",
      "note_on channel=0 note=62 velocity=127 time=0.013541666666666667\n",
      "note_off channel=0 note=62 velocity=127 time=0.019791666666666666\n",
      "note_on channel=0 note=61 velocity=127 time=0.051041666666666666\n",
      "note_off channel=0 note=61 velocity=127 time=0.019791666666666666\n",
      "note_on channel=0 note=62 velocity=127 time=0.013541666666666667\n",
      "note_off channel=0 note=62 velocity=127 time=0.019791666666666666\n",
      "note_on channel=0 note=61 velocity=127 time=0.06770833333333333\n",
      "note_on channel=0 note=60 velocity=127 time=0.005208333333333333\n",
      "note_on channel=0 note=62 velocity=127 time=0.011458333333333333\n",
      "note_off channel=0 note=61 velocity=127 time=0.003125\n",
      "note_off channel=0 note=60 velocity=127 time=0.005208333333333333\n",
      "note_off channel=0 note=62 velocity=127 time=0.011458333333333333\n",
      "note_on channel=0 note=62 velocity=127 time=0.084375\n",
      "note_on channel=0 note=61 velocity=127 time=0\n",
      "note_off channel=0 note=62 velocity=127 time=0.019791666666666666\n",
      "note_off channel=0 note=61 velocity=127 time=0\n",
      "note_on channel=0 note=62 velocity=127 time=0.08333333333333333\n",
      "note_on channel=0 note=60 velocity=127 time=0.010416666666666666\n",
      "note_on channel=0 note=61 velocity=127 time=0.00625\n",
      "note_off channel=0 note=62 velocity=127 time=0.0020833333333333333\n",
      "note_off channel=0 note=60 velocity=127 time=0.010416666666666666\n",
      "note_off channel=0 note=61 velocity=127 time=0.00625\n",
      "\u001b[91m [DEBUG] > \u001b[0m\n",
      " |>  to_array: msg.time > max_t; t, n\n",
      " |>  2.9906250000000014\n",
      " |>  150\n"
     ]
    },
    {
     "name": "stdout",
     "output_type": "stream",
     "text": [
      "note_on channel=0 note=60 velocity=127 time=0.007291666666666667\n",
      "note_off channel=0 note=60 velocity=127 time=0.019791666666666666\n",
      "note_on channel=0 note=60 velocity=127 time=0.07708333333333334\n",
      "note_on channel=0 note=61 velocity=127 time=0.008333333333333333\n",
      "note_off channel=0 note=60 velocity=127 time=0.011458333333333333\n",
      "note_off channel=0 note=61 velocity=127 time=0.008333333333333333\n",
      "note_on channel=0 note=62 velocity=127 time=0.009375\n",
      "note_off channel=0 note=62 velocity=127 time=0.019791666666666666\n",
      "note_on channel=0 note=60 velocity=127 time=0.03854166666666667\n",
      "note_off channel=0 note=60 velocity=127 time=0.019791666666666666\n",
      "note_on channel=0 note=61 velocity=127 time=0.0125\n",
      "note_off channel=0 note=61 velocity=127 time=0.019791666666666666\n",
      "note_on channel=0 note=60 velocity=127 time=0.04479166666666667\n",
      "note_off channel=0 note=60 velocity=127 time=0.019791666666666666\n",
      "note_on channel=0 note=61 velocity=127 time=0.036458333333333336\n",
      "note_off channel=0 note=61 velocity=127 time=0.019791666666666666\n",
      "note_on channel=0 note=60 velocity=127 time=0.020833333333333332\n",
      "note_on channel=0 note=62 velocity=127 time=0.017708333333333333\n",
      "note_off channel=0 note=60 velocity=127 time=0.0020833333333333333\n",
      "note_off channel=0 note=62 velocity=127 time=0.017708333333333333\n",
      "note_on channel=0 note=61 velocity=127 time=0.042708333333333334\n",
      "note_on channel=0 note=60 velocity=127 time=0.016666666666666666\n",
      "note_off channel=0 note=61 velocity=127 time=0.004166666666666667\n",
      "note_off channel=0 note=60 velocity=127 time=0.016666666666666666\n",
      "note_on channel=0 note=60 velocity=127 time=0.07708333333333334\n",
      "note_on channel=0 note=61 velocity=127 time=0.007291666666666667\n",
      "note_off channel=0 note=60 velocity=127 time=0.0125\n",
      "note_off channel=0 note=61 velocity=127 time=0.007291666666666667\n",
      "note_on channel=0 note=62 velocity=127 time=0.06666666666666667\n",
      "note_on channel=0 note=60 velocity=127 time=0.0020833333333333333\n",
      "note_off channel=0 note=62 velocity=127 time=0.017708333333333333\n",
      "note_off channel=0 note=60 velocity=127 time=0.0020833333333333333\n",
      "note_on channel=0 note=61 velocity=127 time=0.011458333333333333\n",
      "note_off channel=0 note=61 velocity=127 time=0.019791666666666666\n",
      "note_on channel=0 note=60 velocity=127 time=0.04479166666666667\n",
      "note_off channel=0 note=60 velocity=127 time=0.019791666666666666\n",
      "note_on channel=0 note=61 velocity=127 time=0.035416666666666666\n",
      "note_off channel=0 note=61 velocity=127 time=0.019791666666666666\n",
      "note_on channel=0 note=60 velocity=127 time=0.020833333333333332\n",
      "note_off channel=0 note=60 velocity=127 time=0.019791666666666666\n",
      "note_on channel=0 note=62 velocity=127 time=0.05520833333333333\n",
      "note_on channel=0 note=61 velocity=127 time=0.005208333333333333\n",
      "note_off channel=0 note=62 velocity=127 time=0.014583333333333334\n",
      "note_on channel=0 note=60 velocity=127 time=0.0020833333333333333\n",
      "note_off channel=0 note=61 velocity=127 time=0.003125\n",
      "note_off channel=0 note=60 velocity=127 time=0.016666666666666666\n",
      "note_on channel=0 note=60 velocity=127 time=0.07708333333333334\n",
      "note_on channel=0 note=61 velocity=127 time=0.007291666666666667\n",
      "note_off channel=0 note=60 velocity=127 time=0.013541666666666667\n",
      "note_off channel=0 note=61 velocity=127 time=0.007291666666666667\n",
      "note_on channel=0 note=60 velocity=127 time=0.06979166666666667\n",
      "note_off channel=0 note=60 velocity=127 time=0.019791666666666666\n",
      "note_on channel=0 note=61 velocity=127 time=0.011458333333333333\n",
      "note_off channel=0 note=61 velocity=127 time=0.019791666666666666\n",
      "note_on channel=0 note=62 velocity=127 time=0.003125\n",
      "note_off channel=0 note=62 velocity=127 time=0.019791666666666666\n",
      "note_on channel=0 note=60 velocity=127 time=0.021875\n",
      "note_off channel=0 note=60 velocity=127 time=0.019791666666666666\n",
      "note_on channel=0 note=61 velocity=127 time=0.035416666666666666\n",
      "note_off channel=0 note=61 velocity=127 time=0.019791666666666666\n",
      "note_on channel=0 note=60 velocity=127 time=0.021875\n",
      "note_off channel=0 note=60 velocity=127 time=0.019791666666666666\n",
      "note_on channel=0 note=61 velocity=127 time=0.059375\n",
      "note_on channel=0 note=60 velocity=127 time=0.017708333333333333\n",
      "note_off channel=0 note=61 velocity=127 time=0.0020833333333333333\n",
      "note_off channel=0 note=60 velocity=127 time=0.017708333333333333\n",
      "note_on channel=0 note=62 velocity=127 time=0.014583333333333334\n",
      "note_off channel=0 note=62 velocity=127 time=0.019791666666666666\n",
      "note_on channel=0 note=60 velocity=127 time=0.042708333333333334\n",
      "note_on channel=0 note=61 velocity=127 time=0.00625\n",
      "note_off channel=0 note=60 velocity=127 time=0.013541666666666667\n",
      "note_off channel=0 note=61 velocity=127 time=0.00625\n",
      "note_on channel=0 note=60 velocity=127 time=0.07083333333333333\n",
      "note_off channel=0 note=60 velocity=127 time=0.019791666666666666\n",
      "note_on channel=0 note=61 velocity=127 time=0.010416666666666666\n",
      "note_off channel=0 note=61 velocity=127 time=0.019791666666666666\n",
      "note_on channel=0 note=60 velocity=127 time=0.046875\n",
      "note_on channel=0 note=62 velocity=127 time=0.014583333333333334\n",
      "note_off channel=0 note=60 velocity=127 time=0.00625\n",
      "note_off channel=0 note=62 velocity=127 time=0.014583333333333334\n",
      "note_on channel=0 note=61 velocity=127 time=0.019791666666666666\n",
      "note_off channel=0 note=61 velocity=127 time=0.019791666666666666\n",
      "note_on channel=0 note=60 velocity=127 time=0.022916666666666665\n",
      "note_off channel=0 note=60 velocity=127 time=0.019791666666666666\n",
      "note_on channel=0 note=61 velocity=127 time=0.058333333333333334\n",
      "note_on channel=0 note=60 velocity=127 time=0.01875\n",
      "note_off channel=0 note=61 velocity=127 time=0.0010416666666666667\n",
      "note_off channel=0 note=60 velocity=127 time=0.01875\n",
      "note_on channel=0 note=62 velocity=127 time=0.07083333333333333\n",
      "note_on channel=0 note=60 velocity=127 time=0.00625\n",
      "note_on channel=0 note=61 velocity=127 time=0.005208333333333333\n",
      "note_off channel=0 note=62 velocity=127 time=0.008333333333333333\n",
      "note_off channel=0 note=60 velocity=127 time=0.00625\n",
      "note_off channel=0 note=61 velocity=127 time=0.005208333333333333\n",
      "note_on channel=0 note=60 velocity=127 time=0.071875\n",
      "note_off channel=0 note=60 velocity=127 time=0.019791666666666666\n",
      "note_on channel=0 note=61 velocity=127 time=0.009375\n",
      "note_off channel=0 note=61 velocity=127 time=0.019791666666666666\n",
      "note_on channel=0 note=60 velocity=127 time=0.04791666666666666\n",
      "note_off channel=0 note=60 velocity=127 time=0.019791666666666666\n",
      "note_on channel=0 note=61 velocity=127 time=0.03333333333333333\n",
      "note_on channel=0 note=62 velocity=127 time=0.017708333333333333\n",
      "note_off channel=0 note=61 velocity=127 time=0.003125\n",
      "note_off channel=0 note=62 velocity=127 time=0.017708333333333333\n",
      "note_on channel=0 note=60 velocity=127 time=0.00625\n",
      "note_off channel=0 note=60 velocity=127 time=0.019791666666666666\n",
      "note_on channel=0 note=61 velocity=127 time=0.057291666666666664\n",
      "note_on channel=0 note=60 velocity=127 time=0.019791666666666666\n",
      "note_off channel=0 note=61 velocity=127 time=0.0010416666666666667\n",
      "note_off channel=0 note=60 velocity=127 time=0.019791666666666666\n",
      "note_on channel=0 note=60 velocity=127 time=0.07708333333333334\n",
      "note_on channel=0 note=61 velocity=127 time=0.004166666666666667\n",
      "note_off channel=0 note=60 velocity=127 time=0.015625\n",
      "note_off channel=0 note=61 velocity=127 time=0.004166666666666667\n",
      "note_on channel=0 note=62 velocity=127 time=0.026041666666666668\n",
      "note_off channel=0 note=62 velocity=127 time=0.019791666666666666\n",
      "note_on channel=0 note=60 velocity=127 time=0.026041666666666668\n",
      "note_off channel=0 note=60 velocity=127 time=0.019791666666666666\n",
      "note_on channel=0 note=61 velocity=127 time=0.008333333333333333\n",
      "note_off channel=0 note=61 velocity=127 time=0.019791666666666666\n",
      "note_on channel=0 note=60 velocity=127 time=0.04791666666666666\n",
      "note_off channel=0 note=60 velocity=127 time=0.019791666666666666\n",
      "note_on channel=0 note=61 velocity=127 time=0.03229166666666666\n",
      "note_off channel=0 note=61 velocity=127 time=0.019791666666666666\n",
      "note_on channel=0 note=60 velocity=127 time=0.02395833333333333\n",
      "note_off channel=0 note=60 velocity=127 time=0.019791666666666666\n",
      "note_on channel=0 note=62 velocity=127 time=0.010416666666666666\n",
      "note_off channel=0 note=62 velocity=127 time=0.019791666666666666\n",
      "note_on channel=0 note=61 velocity=127 time=0.026041666666666668\n",
      "note_off channel=0 note=61 velocity=127 time=0.019791666666666666\n",
      "note_on channel=0 note=60 velocity=127 time=0\n",
      "note_off channel=0 note=60 velocity=127 time=0.019791666666666666\n",
      "note_on channel=0 note=60 velocity=127 time=0.07708333333333334\n",
      "\u001b[91m [DEBUG] > \u001b[0m\n",
      " |>  to_array: msg.time > max_t; t, n\n",
      " |>  3.006250000000003\n",
      " |>  150\n",
      "note_on channel=0 note=62 velocity=127 time=0.06145833333333333\n",
      "note_on channel=0 note=61 velocity=127 time=0.004166666666666667\n",
      "note_off channel=0 note=62 velocity=127 time=0.015625\n",
      "note_off channel=0 note=61 velocity=127 time=0.004166666666666667\n",
      "note_on channel=0 note=60 velocity=127 time=0.017708333333333333\n",
      "note_off channel=0 note=60 velocity=127 time=0.019791666666666666\n",
      "note_on channel=0 note=61 velocity=127 time=0.08125\n",
      "note_on channel=0 note=62 velocity=127 time=0.014583333333333334\n",
      "note_off channel=0 note=61 velocity=127 time=0.005208333333333333\n",
      "note_off channel=0 note=62 velocity=127 time=0.014583333333333334\n",
      "note_on channel=0 note=60 velocity=127 time=0.01875\n",
      "note_off channel=0 note=60 velocity=127 time=0.019791666666666666\n",
      "note_on channel=0 note=61 velocity=127 time=0.065625\n",
      "note_off channel=0 note=61 velocity=127 time=0.019791666666666666\n",
      "note_on channel=0 note=62 velocity=127 time=0.014583333333333334\n",
      "note_off channel=0 note=62 velocity=127 time=0.019791666666666666\n",
      "note_on channel=0 note=60 velocity=127 time=0.014583333333333334\n",
      "note_off channel=0 note=60 velocity=127 time=0.019791666666666666\n",
      "note_on channel=0 note=61 velocity=127 time=0.05\n",
      "note_off channel=0 note=61 velocity=127 time=0.019791666666666666\n",
      "note_on channel=0 note=62 velocity=127 time=0.034375\n",
      "note_off channel=0 note=62 velocity=127 time=0.019791666666666666\n",
      "note_on channel=0 note=60 velocity=127 time=0.011458333333333333\n",
      "note_off channel=0 note=60 velocity=127 time=0.019791666666666666\n",
      "note_on channel=0 note=61 velocity=127 time=0.03333333333333333\n",
      "note_off channel=0 note=61 velocity=127 time=0.019791666666666666\n",
      "note_on channel=0 note=62 velocity=127 time=0.053125\n",
      "note_off channel=0 note=62 velocity=127 time=0.019791666666666666\n",
      "note_on channel=0 note=60 velocity=127 time=0.007291666666666667\n",
      "note_off channel=0 note=60 velocity=127 time=0.019791666666666666\n",
      "note_on channel=0 note=61 velocity=127 time=0.017708333333333333\n",
      "note_off channel=0 note=61 velocity=127 time=0.019791666666666666\n",
      "note_on channel=0 note=62 velocity=127 time=0.07291666666666667\n",
      "note_off channel=0 note=62 velocity=127 time=0.019791666666666666\n",
      "note_on channel=0 note=60 velocity=127 time=0.004166666666666667\n",
      "note_off channel=0 note=60 velocity=127 time=0.019791666666666666\n",
      "note_on channel=0 note=61 velocity=127 time=0.0020833333333333333\n",
      "note_off channel=0 note=61 velocity=127 time=0.019791666666666666\n",
      "note_on channel=0 note=62 velocity=127 time=0.09270833333333334\n",
      "note_off channel=0 note=62 velocity=127 time=0.019791666666666666\n",
      "note_on channel=0 note=60 velocity=127 time=0\n",
      "note_on channel=0 note=61 velocity=127 time=0.00625\n",
      "note_off channel=0 note=60 velocity=127 time=0.013541666666666667\n",
      "note_off channel=0 note=61 velocity=127 time=0.00625\n",
      "note_on channel=0 note=62 velocity=127 time=0.11145833333333333\n",
      "note_on channel=0 note=61 velocity=127 time=0.007291666666666667\n",
      "note_on channel=0 note=60 velocity=127 time=0.009375\n",
      "note_off channel=0 note=62 velocity=127 time=0.003125\n",
      "note_off channel=0 note=61 velocity=127 time=0.007291666666666667\n",
      "note_off channel=0 note=60 velocity=127 time=0.009375\n",
      "note_on channel=0 note=61 velocity=127 time=0.109375\n",
      "note_on channel=0 note=62 velocity=127 time=0.0125\n",
      "note_off channel=0 note=61 velocity=127 time=0.008333333333333333\n",
      "note_on channel=0 note=60 velocity=127 time=0.005208333333333333\n",
      "note_off channel=0 note=62 velocity=127 time=0.007291666666666667\n",
      "note_off channel=0 note=60 velocity=127 time=0.0125\n",
      "note_on channel=0 note=61 velocity=127 time=0.09375\n",
      "note_off channel=0 note=61 velocity=127 time=0.019791666666666666\n",
      "note_on channel=0 note=62 velocity=127 time=0.011458333333333333\n",
      "note_on channel=0 note=60 velocity=127 time=0.009375\n",
      "note_off channel=0 note=62 velocity=127 time=0.010416666666666666\n",
      "note_off channel=0 note=60 velocity=127 time=0.009375\n",
      "note_on channel=0 note=61 velocity=127 time=0.078125\n",
      "note_off channel=0 note=61 velocity=127 time=0.019791666666666666\n",
      "note_on channel=0 note=62 velocity=127 time=0.03125\n",
      "note_on channel=0 note=60 velocity=127 time=0.005208333333333333\n",
      "note_off channel=0 note=62 velocity=127 time=0.014583333333333334\n",
      "note_off channel=0 note=60 velocity=127 time=0.005208333333333333\n",
      "note_on channel=0 note=61 velocity=127 time=0.0625\n",
      "note_off channel=0 note=61 velocity=127 time=0.019791666666666666\n",
      "note_on channel=0 note=62 velocity=127 time=0.05\n",
      "note_on channel=0 note=60 velocity=127 time=0.0020833333333333333\n",
      "note_off channel=0 note=62 velocity=127 time=0.017708333333333333\n",
      "note_off channel=0 note=60 velocity=127 time=0.0020833333333333333\n",
      "note_on channel=0 note=61 velocity=127 time=0.046875\n",
      "note_off channel=0 note=61 velocity=127 time=0.019791666666666666\n",
      "note_on channel=0 note=60 velocity=127 time=0.06770833333333333\n",
      "note_on channel=0 note=62 velocity=127 time=0.0020833333333333333\n",
      "note_off channel=0 note=60 velocity=127 time=0.017708333333333333\n",
      "note_off channel=0 note=62 velocity=127 time=0.0020833333333333333\n",
      "note_on channel=0 note=61 velocity=127 time=0.029166666666666667\n",
      "note_off channel=0 note=61 velocity=127 time=0.019791666666666666\n",
      "note_on channel=0 note=60 velocity=127 time=0.08333333333333333\n",
      "note_on channel=0 note=62 velocity=127 time=0.005208333333333333\n",
      "note_off channel=0 note=60 velocity=127 time=0.014583333333333334\n",
      "note_off channel=0 note=62 velocity=127 time=0.005208333333333333\n",
      "note_on channel=0 note=61 velocity=127 time=0.009375\n",
      "note_off channel=0 note=61 velocity=127 time=0.019791666666666666\n",
      "note_on channel=0 note=60 velocity=127 time=0.1\n",
      "note_on channel=0 note=62 velocity=127 time=0.009375\n",
      "note_on channel=0 note=61 velocity=127 time=0.010416666666666666\n",
      "note_off channel=0 note=60 velocity=127 time=0.0010416666666666667\n",
      "note_off channel=0 note=62 velocity=127 time=0.009375\n",
      "note_off channel=0 note=61 velocity=127 time=0.010416666666666666\n",
      "note_on channel=0 note=60 velocity=127 time=0.11562499999999999\n",
      "note_on channel=0 note=61 velocity=127 time=0.003125\n",
      "note_on channel=0 note=62 velocity=127 time=0.009375\n",
      "note_off channel=0 note=60 velocity=127 time=0.007291666666666667\n",
      "note_off channel=0 note=61 velocity=127 time=0.003125\n",
      "note_off channel=0 note=62 velocity=127 time=0.009375\n",
      "note_on channel=0 note=61 velocity=127 time=0.109375\n",
      "note_on channel=0 note=60 velocity=127 time=0.0125\n",
      "note_off channel=0 note=61 velocity=127 time=0.007291666666666667\n",
      "note_on channel=0 note=62 velocity=127 time=0.008333333333333333\n",
      "note_off channel=0 note=60 velocity=127 time=0.003125\n",
      "note_off channel=0 note=62 velocity=127 time=0.016666666666666666\n",
      "note_on channel=0 note=61 velocity=127 time=0.090625\n",
      "note_off channel=0 note=61 velocity=127 time=0.019791666666666666\n",
      "note_on channel=0 note=60 velocity=127 time=0.008333333333333333\n",
      "note_off channel=0 note=60 velocity=127 time=0.019791666666666666\n",
      "note_on channel=0 note=62 velocity=127 time=0\n",
      "note_off channel=0 note=62 velocity=127 time=0.019791666666666666\n",
      "note_on channel=0 note=61 velocity=127 time=0.07083333333333333\n",
      "note_off channel=0 note=61 velocity=127 time=0.019791666666666666\n",
      "note_on channel=0 note=60 velocity=127 time=0.02395833333333333\n",
      "note_off channel=0 note=60 velocity=127 time=0.019791666666666666\n",
      "note_on channel=0 note=62 velocity=127 time=0.004166666666666667\n",
      "note_off channel=0 note=62 velocity=127 time=0.019791666666666666\n",
      "note_on channel=0 note=61 velocity=127 time=0.051041666666666666\n",
      "note_off channel=0 note=61 velocity=127 time=0.019791666666666666\n",
      "\u001b[91m [DEBUG] > \u001b[0m\n",
      " |>  to_array: msg.time > max_t; t, n\n",
      " |>  2.9958333333333353\n",
      " |>  150\n",
      "note_on channel=0 note=61 velocity=127 time=0.051041666666666666\n",
      "note_on channel=0 note=62 velocity=127 time=0.015625\n",
      "note_off channel=0 note=61 velocity=127 time=0.004166666666666667\n",
      "note_on channel=0 note=60 velocity=127 time=0.009375\n",
      "note_off channel=0 note=62 velocity=127 time=0.00625\n",
      "note_off channel=0 note=60 velocity=127 time=0.013541666666666667\n",
      "note_on channel=0 note=62 velocity=127 time=0.03854166666666667\n",
      "note_off channel=0 note=62 velocity=127 time=0.019791666666666666\n",
      "note_on channel=0 note=60 velocity=127 time=0.014583333333333334\n",
      "note_off channel=0 note=60 velocity=127 time=0.019791666666666666\n",
      "note_on channel=0 note=61 velocity=127 time=0.008333333333333333\n",
      "note_on channel=0 note=62 velocity=127 time=0.008333333333333333\n",
      "note_off channel=0 note=61 velocity=127 time=0.011458333333333333\n",
      "note_off channel=0 note=62 velocity=127 time=0.008333333333333333\n",
      "note_on channel=0 note=60 velocity=127 time=0.036458333333333336\n",
      "note_on channel=0 note=62 velocity=127 time=0.015625\n",
      "note_off channel=0 note=60 velocity=127 time=0.004166666666666667\n",
      "note_off channel=0 note=62 velocity=127 time=0.015625\n",
      "note_on channel=0 note=61 velocity=127 time=0.05\n",
      "note_on channel=0 note=62 velocity=127 time=0.0020833333333333333\n",
      "note_on channel=0 note=60 velocity=127 time=0.00625\n",
      "note_off channel=0 note=61 velocity=127 time=0.0125\n",
      "note_off channel=0 note=62 velocity=127 time=0.0020833333333333333\n",
      "note_off channel=0 note=60 velocity=127 time=0.00625\n",
      "note_on channel=0 note=62 velocity=127 time=0.04583333333333333\n",
      "note_off channel=0 note=62 velocity=127 time=0.019791666666666666\n",
      "note_on channel=0 note=60 velocity=127 time=0.007291666666666667\n",
      "note_off channel=0 note=60 velocity=127 time=0.019791666666666666\n",
      "note_on channel=0 note=62 velocity=127 time=0.025\n",
      "note_on channel=0 note=61 velocity=127 time=0.005208333333333333\n",
      "note_off channel=0 note=62 velocity=127 time=0.014583333333333334\n",
      "note_off channel=0 note=61 velocity=127 time=0.005208333333333333\n",
      "note_on channel=0 note=60 velocity=127 time=0.022916666666666665\n",
      "note_off channel=0 note=60 velocity=127 time=0.019791666666666666\n",
      "note_on channel=0 note=62 velocity=127 time=0.003125\n",
      "note_off channel=0 note=62 velocity=127 time=0.019791666666666666\n",
      "note_on channel=0 note=60 velocity=127 time=0.05\n",
      "note_on channel=0 note=62 velocity=127 time=0.0020833333333333333\n",
      "note_on channel=0 note=61 velocity=127 time=0.0125\n",
      "note_off channel=0 note=60 velocity=127 time=0.00625\n",
      "note_off channel=0 note=62 velocity=127 time=0.0020833333333333333\n",
      "note_off channel=0 note=61 velocity=127 time=0.0125\n",
      "note_on channel=0 note=62 velocity=127 time=0.03958333333333333\n",
      "note_on channel=0 note=60 velocity=127 time=0.01875\n",
      "note_off channel=0 note=62 velocity=127 time=0.0010416666666666667\n",
      "note_off channel=0 note=60 velocity=127 time=0.01875\n",
      "note_on channel=0 note=62 velocity=127 time=0.03229166666666666\n",
      "note_on channel=0 note=61 velocity=127 time=0.01875\n",
      "note_off channel=0 note=62 velocity=127 time=0.0010416666666666667\n",
      "note_off channel=0 note=61 velocity=127 time=0.01875\n",
      "note_on channel=0 note=60 velocity=127 time=0.0020833333333333333\n",
      "note_off channel=0 note=60 velocity=127 time=0.019791666666666666\n",
      "note_on channel=0 note=62 velocity=127 time=0.011458333333333333\n",
      "note_off channel=0 note=62 velocity=127 time=0.019791666666666666\n",
      "note_on channel=0 note=60 velocity=127 time=0.041666666666666664\n",
      "note_on channel=0 note=62 velocity=127 time=0.009375\n",
      "note_off channel=0 note=60 velocity=127 time=0.010416666666666666\n",
      "note_off channel=0 note=62 velocity=127 time=0.009375\n",
      "note_on channel=0 note=61 velocity=127 time=0.00625\n",
      "note_off channel=0 note=61 velocity=127 time=0.019791666666666666\n",
      "note_on channel=0 note=62 velocity=127 time=0.026041666666666668\n",
      "note_on channel=0 note=60 velocity=127 time=0.011458333333333333\n",
      "note_off channel=0 note=62 velocity=127 time=0.008333333333333333\n",
      "note_off channel=0 note=60 velocity=127 time=0.011458333333333333\n",
      "note_on channel=0 note=62 velocity=127 time=0.040625\n",
      "note_off channel=0 note=62 velocity=127 time=0.019791666666666666\n",
      "note_on channel=0 note=60 velocity=127 time=0.0125\n",
      "note_on channel=0 note=61 velocity=127 time=0\n",
      "note_off channel=0 note=60 velocity=127 time=0.019791666666666666\n",
      "note_off channel=0 note=61 velocity=127 time=0\n",
      "note_on channel=0 note=62 velocity=127 time=0.01875\n",
      "note_off channel=0 note=62 velocity=127 time=0.019791666666666666\n",
      "note_on channel=0 note=60 velocity=127 time=0.034375\n",
      "note_on channel=0 note=62 velocity=127 time=0.017708333333333333\n",
      "note_off channel=0 note=60 velocity=127 time=0.0020833333333333333\n",
      "note_off channel=0 note=62 velocity=127 time=0.017708333333333333\n",
      "note_on channel=0 note=61 velocity=127 time=0.019791666666666666\n",
      "note_off channel=0 note=61 velocity=127 time=0.019791666666666666\n",
      "note_on channel=0 note=62 velocity=127 time=0.011458333333333333\n",
      "note_on channel=0 note=60 velocity=127 time=0.004166666666666667\n",
      "note_off channel=0 note=62 velocity=127 time=0.016666666666666666\n",
      "note_off channel=0 note=60 velocity=127 time=0.004166666666666667\n",
      "note_on channel=0 note=62 velocity=127 time=0.04791666666666666\n",
      "note_off channel=0 note=62 velocity=127 time=0.019791666666666666\n",
      "note_on channel=0 note=60 velocity=127 time=0.005208333333333333\n",
      "note_off channel=0 note=60 velocity=127 time=0.019791666666666666\n",
      "note_on channel=0 note=61 velocity=127 time=0.0020833333333333333\n",
      "note_off channel=0 note=61 velocity=127 time=0.019791666666666666\n",
      "note_on channel=0 note=62 velocity=127 time=0.005208333333333333\n",
      "note_off channel=0 note=62 velocity=127 time=0.019791666666666666\n",
      "note_on channel=0 note=60 velocity=127 time=0.026041666666666668\n",
      "note_off channel=0 note=60 velocity=127 time=0.019791666666666666\n",
      "note_on channel=0 note=62 velocity=127 time=0.005208333333333333\n",
      "note_off channel=0 note=62 velocity=127 time=0.019791666666666666\n",
      "note_on channel=0 note=61 velocity=127 time=0.03333333333333333\n",
      "note_on channel=0 note=60 velocity=127 time=0.013541666666666667\n",
      "note_on channel=0 note=62 velocity=127 time=0.004166666666666667\n",
      "note_off channel=0 note=61 velocity=127 time=0.0020833333333333333\n",
      "note_off channel=0 note=60 velocity=127 time=0.013541666666666667\n",
      "note_off channel=0 note=62 velocity=127 time=0.004166666666666667\n",
      "note_on channel=0 note=62 velocity=127 time=0.052083333333333336\n",
      "note_on channel=0 note=60 velocity=127 time=0.016666666666666666\n",
      "note_off channel=0 note=62 velocity=127 time=0.003125\n",
      "note_off channel=0 note=60 velocity=127 time=0.016666666666666666\n",
      "note_on channel=0 note=61 velocity=127 time=0.02395833333333333\n",
      "note_on channel=0 note=62 velocity=127 time=0.011458333333333333\n",
      "note_off channel=0 note=61 velocity=127 time=0.009375\n",
      "note_off channel=0 note=62 velocity=127 time=0.011458333333333333\n",
      "note_on channel=0 note=60 velocity=127 time=0.01875\n",
      "note_off channel=0 note=60 velocity=127 time=0.019791666666666666\n",
      "note_on channel=0 note=62 velocity=127 time=0.013541666666666667\n",
      "note_off channel=0 note=62 velocity=127 time=0.019791666666666666\n",
      "note_on channel=0 note=60 velocity=127 time=0.03958333333333333\n",
      "note_on channel=0 note=61 velocity=127 time=0.007291666666666667\n",
      "note_on channel=0 note=62 velocity=127 time=0.004166666666666667\n",
      "note_off channel=0 note=60 velocity=127 time=0.008333333333333333\n",
      "note_off channel=0 note=61 velocity=127 time=0.007291666666666667\n",
      "note_off channel=0 note=62 velocity=127 time=0.004166666666666667\n",
      "note_on channel=0 note=62 velocity=127 time=0.052083333333333336\n",
      "note_on channel=0 note=60 velocity=127 time=0.009375\n",
      "note_off channel=0 note=62 velocity=127 time=0.010416666666666666\n",
      "note_off channel=0 note=60 velocity=127 time=0.009375\n",
      "note_on channel=0 note=62 velocity=127 time=0.042708333333333334\n",
      "note_on channel=0 note=61 velocity=127 time=0.003125\n",
      "note_off channel=0 note=62 velocity=127 time=0.017708333333333333\n",
      "note_off channel=0 note=61 velocity=127 time=0.003125\n",
      "note_on channel=0 note=60 velocity=127 time=0.008333333333333333\n",
      "note_off channel=0 note=60 velocity=127 time=0.019791666666666666\n",
      "note_on channel=0 note=62 velocity=127 time=0.020833333333333332\n",
      "note_off channel=0 note=62 velocity=127 time=0.019791666666666666\n",
      "note_on channel=0 note=60 velocity=127 time=0.03229166666666666\n",
      "note_on channel=0 note=62 velocity=127 time=0.019791666666666666\n",
      "note_off channel=0 note=60 velocity=127 time=0\n",
      "note_on channel=0 note=61 velocity=127 time=0.009375\n",
      "note_off channel=0 note=62 velocity=127 time=0.010416666666666666\n",
      "note_off channel=0 note=61 velocity=127 time=0.009375\n",
      "note_on channel=0 note=62 velocity=127 time=0.041666666666666664\n",
      "note_on channel=0 note=60 velocity=127 time=0.0010416666666666667\n",
      "note_off channel=0 note=62 velocity=127 time=0.01875\n",
      "note_off channel=0 note=60 velocity=127 time=0.0010416666666666667\n",
      "note_on channel=0 note=62 velocity=127 time=0.05\n",
      "note_on channel=0 note=61 velocity=127 time=0.016666666666666666\n",
      "note_off channel=0 note=62 velocity=127 time=0.003125\n",
      "note_on channel=0 note=60 velocity=127 time=0.003125\n",
      "note_off channel=0 note=61 velocity=127 time=0.013541666666666667\n",
      "note_off channel=0 note=60 velocity=127 time=0.00625\n",
      "note_on channel=0 note=62 velocity=127 time=0.029166666666666667\n",
      "note_off channel=0 note=62 velocity=127 time=0.019791666666666666\n",
      "note_on channel=0 note=60 velocity=127 time=0.02395833333333333\n",
      "note_off channel=0 note=60 velocity=127 time=0.019791666666666666\n",
      "note_on channel=0 note=62 velocity=127 time=0.007291666666666667\n",
      "note_off channel=0 note=62 velocity=127 time=0.019791666666666666\n",
      "note_on channel=0 note=61 velocity=127 time=0.003125\n",
      "note_off channel=0 note=61 velocity=127 time=0.019791666666666666\n",
      "note_on channel=0 note=60 velocity=127 time=0.021875\n",
      "note_on channel=0 note=62 velocity=127 time=0.00625\n",
      "note_off channel=0 note=60 velocity=127 time=0.013541666666666667\n",
      "note_off channel=0 note=62 velocity=127 time=0.00625\n",
      "note_on channel=0 note=62 velocity=127 time=0.052083333333333336\n",
      "note_on channel=0 note=60 velocity=127 time=0.014583333333333334\n",
      "note_off channel=0 note=62 velocity=127 time=0.005208333333333333\n",
      "note_on channel=0 note=61 velocity=127 time=0.010416666666666666\n",
      "note_off channel=0 note=60 velocity=127 time=0.004166666666666667\n",
      "note_off channel=0 note=61 velocity=127 time=0.015625\n",
      "note_on channel=0 note=62 velocity=127 time=0.020833333333333332\n",
      "note_off channel=0 note=62 velocity=127 time=0.019791666666666666\n",
      "note_on channel=0 note=60 velocity=127 time=0.016666666666666666\n",
      "note_off channel=0 note=60 velocity=127 time=0.019791666666666666\n",
      "note_on channel=0 note=62 velocity=127 time=0.015625\n",
      "note_off channel=0 note=62 velocity=127 time=0.019791666666666666\n",
      "note_on channel=0 note=61 velocity=127 time=0.017708333333333333\n",
      "note_off channel=0 note=61 velocity=127 time=0.019791666666666666\n",
      "note_on channel=0 note=60 velocity=127 time=0\n",
      "note_on channel=0 note=62 velocity=127 time=0.014583333333333334\n",
      "note_off channel=0 note=60 velocity=127 time=0.00625\n",
      "note_off channel=0 note=62 velocity=127 time=0.014583333333333334\n",
      "note_on channel=0 note=62 velocity=127 time=0.052083333333333336\n",
      "note_on channel=0 note=60 velocity=127 time=0.007291666666666667\n",
      "note_off channel=0 note=62 velocity=127 time=0.0125\n",
      "note_off channel=0 note=60 velocity=127 time=0.007291666666666667\n",
      "note_on channel=0 note=61 velocity=127 time=0.017708333333333333\n",
      "note_off channel=0 note=61 velocity=127 time=0.019791666666666666\n",
      "note_on channel=0 note=62 velocity=127 time=0.007291666666666667\n",
      "note_off channel=0 note=62 velocity=127 time=0.019791666666666666\n",
      "note_on channel=0 note=60 velocity=127 time=0.008333333333333333\n",
      "note_off channel=0 note=60 velocity=127 time=0.019791666666666666\n",
      "note_on channel=0 note=62 velocity=127 time=0.022916666666666665\n",
      "\u001b[91m [DEBUG] > \u001b[0m\n",
      " |>  to_array: msg.time > max_t; t, n\n",
      " |>  3.004166666666668\n",
      " |>  150\n",
      "note_on channel=0 note=62 velocity=127 time=0.013541666666666667\n",
      "note_off channel=0 note=62 velocity=127 time=0.019791666666666666\n",
      "note_on channel=0 note=61 velocity=127 time=0.0125\n",
      "note_off channel=0 note=61 velocity=127 time=0.019791666666666666\n",
      "note_on channel=0 note=62 velocity=127 time=0.04375\n",
      "note_on channel=0 note=60 velocity=127 time=0.017708333333333333\n",
      "note_off channel=0 note=62 velocity=127 time=0.003125\n",
      "note_off channel=0 note=60 velocity=127 time=0.017708333333333333\n",
      "note_on channel=0 note=62 velocity=127 time=0.059375\n",
      "note_off channel=0 note=62 velocity=127 time=0.019791666666666666\n",
      "note_on channel=0 note=61 velocity=127 time=0.00625\n",
      "note_off channel=0 note=61 velocity=127 time=0.019791666666666666\n",
      "note_on channel=0 note=62 velocity=127 time=0.05\n",
      "note_off channel=0 note=62 velocity=127 time=0.019791666666666666\n",
      "note_on channel=0 note=62 velocity=127 time=0.07604166666666666\n",
      "note_on channel=0 note=60 velocity=127 time=0.008333333333333333\n",
      "note_on channel=0 note=61 velocity=127 time=0.0125\n",
      "note_off channel=0 note=62 velocity=127 time=0\n",
      "note_off channel=0 note=60 velocity=127 time=0.008333333333333333\n",
      "note_off channel=0 note=61 velocity=127 time=0.0125\n",
      "note_on channel=0 note=62 velocity=127 time=0.05625\n",
      "note_off channel=0 note=62 velocity=127 time=0.019791666666666666\n",
      "note_on channel=0 note=62 velocity=127 time=0.07604166666666666\n",
      "note_on channel=0 note=61 velocity=127 time=0.013541666666666667\n",
      "note_off channel=0 note=62 velocity=127 time=0.00625\n",
      "note_off channel=0 note=61 velocity=127 time=0.013541666666666667\n",
      "note_on channel=0 note=60 velocity=127 time=0.06145833333333333\n",
      "note_on channel=0 note=62 velocity=127 time=0.0020833333333333333\n",
      "note_off channel=0 note=60 velocity=127 time=0.01875\n",
      "note_off channel=0 note=62 velocity=127 time=0.0020833333333333333\n",
      "note_on channel=0 note=62 velocity=127 time=0.07604166666666666\n",
      "note_on channel=0 note=61 velocity=127 time=0.007291666666666667\n",
      "note_off channel=0 note=62 velocity=127 time=0.0125\n",
      "note_off channel=0 note=61 velocity=127 time=0.007291666666666667\n",
      "note_on channel=0 note=62 velocity=127 time=0.06875\n",
      "note_off channel=0 note=62 velocity=127 time=0.019791666666666666\n",
      "note_on channel=0 note=60 velocity=127 time=0.06458333333333333\n",
      "note_on channel=0 note=62 velocity=127 time=0.011458333333333333\n",
      "note_on channel=0 note=61 velocity=127 time=0.0010416666666666667\n",
      "note_off channel=0 note=60 velocity=127 time=0.007291666666666667\n",
      "note_off channel=0 note=62 velocity=127 time=0.011458333333333333\n",
      "note_off channel=0 note=61 velocity=127 time=0.0010416666666666667\n",
      "note_on channel=0 note=62 velocity=127 time=0.075\n",
      "note_off channel=0 note=62 velocity=127 time=0.019791666666666666\n",
      "note_on channel=0 note=61 velocity=127 time=0.07083333333333333\n",
      "note_on channel=0 note=62 velocity=127 time=0.005208333333333333\n",
      "note_off channel=0 note=61 velocity=127 time=0.014583333333333334\n",
      "note_off channel=0 note=62 velocity=127 time=0.005208333333333333\n",
      "note_on channel=0 note=60 velocity=127 time=0.05520833333333333\n",
      "note_off channel=0 note=60 velocity=127 time=0.019791666666666666\n",
      "note_on channel=0 note=62 velocity=127 time=0.0010416666666666667\n",
      "note_off channel=0 note=62 velocity=127 time=0.019791666666666666\n",
      "note_on channel=0 note=61 velocity=127 time=0.06458333333333333\n",
      "note_on channel=0 note=62 velocity=127 time=0.011458333333333333\n",
      "note_off channel=0 note=61 velocity=127 time=0.008333333333333333\n",
      "note_off channel=0 note=62 velocity=127 time=0.011458333333333333\n",
      "note_on channel=0 note=62 velocity=127 time=0.07604166666666666\n",
      "note_off channel=0 note=62 velocity=127 time=0.019791666666666666\n",
      "note_on channel=0 note=60 velocity=127 time=0.04583333333333333\n",
      "note_on channel=0 note=61 velocity=127 time=0.0125\n",
      "note_off channel=0 note=60 velocity=127 time=0.007291666666666667\n",
      "note_on channel=0 note=62 velocity=127 time=0.010416666666666666\n",
      "note_off channel=0 note=61 velocity=127 time=0.0020833333333333333\n",
      "note_off channel=0 note=62 velocity=127 time=0.017708333333333333\n",
      "note_on channel=0 note=62 velocity=127 time=0.07604166666666666\n",
      "note_off channel=0 note=62 velocity=127 time=0.019791666666666666\n",
      "note_on channel=0 note=61 velocity=127 time=0.052083333333333336\n",
      "note_off channel=0 note=61 velocity=127 time=0.019791666666666666\n",
      "note_on channel=0 note=62 velocity=127 time=0.004166666666666667\n",
      "note_off channel=0 note=62 velocity=127 time=0.019791666666666666\n",
      "note_on channel=0 note=60 velocity=127 time=0.036458333333333336\n",
      "note_off channel=0 note=60 velocity=127 time=0.019791666666666666\n",
      "note_on channel=0 note=62 velocity=127 time=0.019791666666666666\n",
      "note_off channel=0 note=62 velocity=127 time=0.019791666666666666\n",
      "note_on channel=0 note=61 velocity=127 time=0.04583333333333333\n",
      "note_off channel=0 note=61 velocity=127 time=0.019791666666666666\n",
      "note_on channel=0 note=62 velocity=127 time=0.010416666666666666\n",
      "note_off channel=0 note=62 velocity=127 time=0.019791666666666666\n",
      "note_on channel=0 note=62 velocity=127 time=0.07604166666666666\n",
      "note_off channel=0 note=62 velocity=127 time=0.019791666666666666\n",
      "note_on channel=0 note=60 velocity=127 time=0.027083333333333334\n",
      "note_on channel=0 note=61 velocity=127 time=0.013541666666666667\n",
      "note_off channel=0 note=60 velocity=127 time=0.007291666666666667\n",
      "note_off channel=0 note=61 velocity=127 time=0.013541666666666667\n",
      "note_on channel=0 note=62 velocity=127 time=0.016666666666666666\n",
      "note_off channel=0 note=62 velocity=127 time=0.019791666666666666\n",
      "note_on channel=0 note=62 velocity=127 time=0.07604166666666666\n",
      "note_off channel=0 note=62 velocity=127 time=0.019791666666666666\n",
      "note_on channel=0 note=61 velocity=127 time=0.03333333333333333\n",
      "note_off channel=0 note=61 velocity=127 time=0.019791666666666666\n",
      "note_on channel=0 note=62 velocity=127 time=0.022916666666666665\n",
      "note_off channel=0 note=62 velocity=127 time=0.019791666666666666\n",
      "note_on channel=0 note=60 velocity=127 time=0.017708333333333333\n",
      "note_off channel=0 note=60 velocity=127 time=0.019791666666666666\n",
      "note_on channel=0 note=62 velocity=127 time=0.03854166666666667\n",
      "note_off channel=0 note=62 velocity=127 time=0.019791666666666666\n",
      "note_on channel=0 note=61 velocity=127 time=0.027083333333333334\n",
      "note_off channel=0 note=61 velocity=127 time=0.019791666666666666\n",
      "note_on channel=0 note=62 velocity=127 time=0.029166666666666667\n",
      "note_off channel=0 note=62 velocity=127 time=0.019791666666666666\n",
      "note_on channel=0 note=62 velocity=127 time=0.07604166666666666\n",
      "note_off channel=0 note=62 velocity=127 time=0.019791666666666666\n",
      "note_on channel=0 note=60 velocity=127 time=0.007291666666666667\n",
      "note_on channel=0 note=61 velocity=127 time=0.013541666666666667\n",
      "note_off channel=0 note=60 velocity=127 time=0.00625\n",
      "note_off channel=0 note=61 velocity=127 time=0.013541666666666667\n",
      "note_on channel=0 note=62 velocity=127 time=0.035416666666666666\n",
      "note_off channel=0 note=62 velocity=127 time=0.019791666666666666\n",
      "note_on channel=0 note=62 velocity=127 time=0.07604166666666666\n",
      "note_off channel=0 note=62 velocity=127 time=0.019791666666666666\n",
      "note_on channel=0 note=61 velocity=127 time=0.014583333333333334\n",
      "note_off channel=0 note=61 velocity=127 time=0.019791666666666666\n",
      "note_on channel=0 note=62 velocity=127 time=0.041666666666666664\n",
      "note_on channel=0 note=60 velocity=127 time=0.01875\n",
      "note_off channel=0 note=62 velocity=127 time=0.0020833333333333333\n",
      "note_off channel=0 note=60 velocity=127 time=0.01875\n",
      "note_on channel=0 note=62 velocity=127 time=0.058333333333333334\n",
      "\u001b[91m [DEBUG] > \u001b[0m\n",
      " |>  to_array: msg.time > max_t; t, n\n",
      " |>  2.994791666666669\n",
      " |>  150\n",
      "note_on channel=0 note=61 velocity=127 time=0.011458333333333333\n",
      "note_off channel=0 note=61 velocity=127 time=0.019791666666666666\n",
      "note_on channel=0 note=60 velocity=127 time=0.004166666666666667\n",
      "note_off channel=0 note=60 velocity=127 time=0.019791666666666666\n",
      "note_on channel=0 note=62 velocity=127 time=0.019791666666666666\n",
      "note_on channel=0 note=61 velocity=127 time=0.005208333333333333\n",
      "note_off channel=0 note=62 velocity=127 time=0.014583333333333334\n",
      "note_off channel=0 note=61 velocity=127 time=0.005208333333333333\n",
      "note_on channel=0 note=60 velocity=127 time=0.016666666666666666\n",
      "note_off channel=0 note=60 velocity=127 time=0.019791666666666666\n",
      "note_on channel=0 note=61 velocity=127 time=0.0125\n",
      "note_on channel=0 note=62 velocity=127 time=0.009375\n",
      "note_off channel=0 note=61 velocity=127 time=0.010416666666666666\n",
      "note_off channel=0 note=62 velocity=127 time=0.009375\n",
      "note_on channel=0 note=60 velocity=127 time=0.020833333333333332\n",
      "note_on channel=0 note=61 velocity=127 time=0.019791666666666666\n",
      "note_off channel=0 note=60 velocity=127 time=0\n",
      "note_off channel=0 note=61 velocity=127 time=0.019791666666666666\n",
      "note_on channel=0 note=62 velocity=127 time=0.003125\n",
      "note_off channel=0 note=62 velocity=127 time=0.019791666666666666\n",
      "note_on channel=0 note=60 velocity=127 time=0.01875\n",
      "note_on channel=0 note=61 velocity=127 time=0.007291666666666667\n",
      "note_off channel=0 note=60 velocity=127 time=0.0125\n",
      "note_off channel=0 note=61 velocity=127 time=0.007291666666666667\n",
      "note_on channel=0 note=62 velocity=127 time=0.017708333333333333\n",
      "note_off channel=0 note=62 velocity=127 time=0.019791666666666666\n",
      "note_on channel=0 note=61 velocity=127 time=0.011458333333333333\n",
      "note_on channel=0 note=60 velocity=127 time=0.005208333333333333\n",
      "note_off channel=0 note=61 velocity=127 time=0.014583333333333334\n",
      "note_off channel=0 note=60 velocity=127 time=0.005208333333333333\n",
      "note_on channel=0 note=62 velocity=127 time=0.026041666666666668\n",
      "note_on channel=0 note=61 velocity=127 time=0.017708333333333333\n"
     ]
    },
    {
     "name": "stdout",
     "output_type": "stream",
     "text": [
      "note_off channel=0 note=62 velocity=127 time=0.0020833333333333333\n",
      "note_on channel=0 note=60 velocity=127 time=0.015625\n",
      "note_off channel=0 note=61 velocity=127 time=0.0020833333333333333\n",
      "note_off channel=0 note=60 velocity=127 time=0.017708333333333333\n",
      "note_on channel=0 note=62 velocity=127 time=0.028125\n",
      "note_on channel=0 note=61 velocity=127 time=0.003125\n",
      "note_off channel=0 note=62 velocity=127 time=0.016666666666666666\n",
      "note_off channel=0 note=61 velocity=127 time=0.003125\n",
      "note_on channel=0 note=60 velocity=127 time=0.010416666666666666\n",
      "note_off channel=0 note=60 velocity=127 time=0.019791666666666666\n",
      "note_on channel=0 note=61 velocity=127 time=0.01875\n",
      "note_on channel=0 note=62 velocity=127 time=0.010416666666666666\n",
      "note_off channel=0 note=61 velocity=127 time=0.009375\n",
      "note_off channel=0 note=62 velocity=127 time=0.010416666666666666\n",
      "note_on channel=0 note=60 velocity=127 time=0.0125\n",
      "note_off channel=0 note=60 velocity=127 time=0.019791666666666666\n",
      "note_on channel=0 note=61 velocity=127 time=0.00625\n",
      "note_off channel=0 note=61 velocity=127 time=0.019791666666666666\n",
      "note_on channel=0 note=62 velocity=127 time=0.005208333333333333\n",
      "note_off channel=0 note=62 velocity=127 time=0.019791666666666666\n",
      "note_on channel=0 note=60 velocity=127 time=0.010416666666666666\n",
      "note_on channel=0 note=61 velocity=127 time=0.013541666666666667\n",
      "note_off channel=0 note=60 velocity=127 time=0.007291666666666667\n",
      "note_off channel=0 note=61 velocity=127 time=0.013541666666666667\n",
      "note_on channel=0 note=62 velocity=127 time=0.019791666666666666\n",
      "note_off channel=0 note=62 velocity=127 time=0.019791666666666666\n",
      "note_on channel=0 note=60 velocity=127 time=0.009375\n",
      "note_on channel=0 note=61 velocity=127 time=0.0010416666666666667\n",
      "note_off channel=0 note=60 velocity=127 time=0.019791666666666666\n",
      "note_off channel=0 note=61 velocity=127 time=0.0010416666666666667\n",
      "note_on channel=0 note=62 velocity=127 time=0.03333333333333333\n",
      "note_on channel=0 note=61 velocity=127 time=0.015625\n",
      "note_off channel=0 note=62 velocity=127 time=0.004166666666666667\n",
      "note_on channel=0 note=60 velocity=127 time=0.007291666666666667\n",
      "note_off channel=0 note=61 velocity=127 time=0.008333333333333333\n",
      "note_off channel=0 note=60 velocity=127 time=0.0125\n",
      "note_on channel=0 note=62 velocity=127 time=0.035416666666666666\n",
      "note_on channel=0 note=61 velocity=127 time=0.0010416666666666667\n",
      "note_off channel=0 note=62 velocity=127 time=0.01875\n",
      "note_off channel=0 note=61 velocity=127 time=0.0010416666666666667\n",
      "note_on channel=0 note=60 velocity=127 time=0.004166666666666667\n",
      "note_off channel=0 note=60 velocity=127 time=0.019791666666666666\n",
      "note_on channel=0 note=61 velocity=127 time=0.025\n",
      "note_on channel=0 note=62 velocity=127 time=0.0125\n",
      "note_off channel=0 note=61 velocity=127 time=0.007291666666666667\n",
      "note_off channel=0 note=62 velocity=127 time=0.0125\n",
      "note_on channel=0 note=60 velocity=127 time=0.004166666666666667\n",
      "note_off channel=0 note=60 velocity=127 time=0.019791666666666666\n",
      "note_on channel=0 note=61 velocity=127 time=0.011458333333333333\n",
      "note_off channel=0 note=61 velocity=127 time=0.019791666666666666\n",
      "note_on channel=0 note=62 velocity=127 time=0.007291666666666667\n",
      "note_off channel=0 note=62 velocity=127 time=0.019791666666666666\n",
      "note_on channel=0 note=60 velocity=127 time=0.003125\n",
      "note_on channel=0 note=61 velocity=127 time=0.019791666666666666\n",
      "note_off channel=0 note=60 velocity=127 time=0.0010416666666666667\n",
      "note_off channel=0 note=61 velocity=127 time=0.019791666666666666\n",
      "note_on channel=0 note=62 velocity=127 time=0.020833333333333332\n",
      "note_off channel=0 note=62 velocity=127 time=0.019791666666666666\n",
      "note_on channel=0 note=60 velocity=127 time=0.0010416666666666667\n",
      "note_on channel=0 note=61 velocity=127 time=0.00625\n",
      "note_off channel=0 note=60 velocity=127 time=0.013541666666666667\n",
      "note_off channel=0 note=61 velocity=127 time=0.00625\n",
      "note_on channel=0 note=62 velocity=127 time=0.035416666666666666\n",
      "note_on channel=0 note=61 velocity=127 time=0.013541666666666667\n",
      "note_on channel=0 note=60 velocity=127 time=0.00625\n",
      "note_off channel=0 note=62 velocity=127 time=0\n",
      "note_off channel=0 note=61 velocity=127 time=0.013541666666666667\n",
      "note_off channel=0 note=60 velocity=127 time=0.00625\n",
      "note_on channel=0 note=61 velocity=127 time=0.04375\n",
      "note_on channel=0 note=62 velocity=127 time=0\n",
      "note_on channel=0 note=60 velocity=127 time=0.017708333333333333\n",
      "note_off channel=0 note=61 velocity=127 time=0.0010416666666666667\n",
      "note_off channel=0 note=62 velocity=127 time=0\n",
      "note_off channel=0 note=60 velocity=127 time=0.017708333333333333\n",
      "note_on channel=0 note=61 velocity=127 time=0.030208333333333334\n",
      "note_on channel=0 note=62 velocity=127 time=0.014583333333333334\n",
      "note_off channel=0 note=61 velocity=127 time=0.005208333333333333\n",
      "note_on channel=0 note=60 velocity=127 time=0.011458333333333333\n",
      "note_off channel=0 note=62 velocity=127 time=0.003125\n",
      "note_off channel=0 note=60 velocity=127 time=0.016666666666666666\n",
      "note_on channel=0 note=61 velocity=127 time=0.017708333333333333\n",
      "note_off channel=0 note=61 velocity=127 time=0.019791666666666666\n",
      "note_on channel=0 note=62 velocity=127 time=0.008333333333333333\n",
      "note_on channel=0 note=60 velocity=127 time=0.014583333333333334\n",
      "note_off channel=0 note=62 velocity=127 time=0.005208333333333333\n",
      "note_off channel=0 note=60 velocity=127 time=0.014583333333333334\n",
      "note_on channel=0 note=61 velocity=127 time=0.005208333333333333\n",
      "note_off channel=0 note=61 velocity=127 time=0.019791666666666666\n",
      "note_on channel=0 note=62 velocity=127 time=0.022916666666666665\n",
      "note_on channel=0 note=60 velocity=127 time=0.013541666666666667\n",
      "note_off channel=0 note=62 velocity=127 time=0.00625\n",
      "note_on channel=0 note=61 velocity=127 time=0.00625\n",
      "note_off channel=0 note=60 velocity=127 time=0.007291666666666667\n",
      "note_off channel=0 note=61 velocity=127 time=0.0125\n",
      "note_on channel=0 note=62 velocity=127 time=0.0375\n",
      "note_on channel=0 note=60 velocity=127 time=0.011458333333333333\n",
      "note_on channel=0 note=61 velocity=127 time=0\n",
      "note_off channel=0 note=62 velocity=127 time=0.008333333333333333\n",
      "note_off channel=0 note=60 velocity=127 time=0.011458333333333333\n",
      "note_off channel=0 note=61 velocity=127 time=0\n",
      "note_on channel=0 note=61 velocity=127 time=0.04895833333333333\n",
      "note_on channel=0 note=62 velocity=127 time=0.0020833333333333333\n",
      "note_on channel=0 note=60 velocity=127 time=0.010416666666666666\n",
      "note_off channel=0 note=61 velocity=127 time=0.007291666666666667\n",
      "note_off channel=0 note=62 velocity=127 time=0.0020833333333333333\n",
      "note_off channel=0 note=60 velocity=127 time=0.010416666666666666\n",
      "note_on channel=0 note=61 velocity=127 time=0.036458333333333336\n",
      "note_on channel=0 note=62 velocity=127 time=0.016666666666666666\n",
      "note_off channel=0 note=61 velocity=127 time=0.004166666666666667\n",
      "note_on channel=0 note=60 velocity=127 time=0.005208333333333333\n",
      "note_off channel=0 note=62 velocity=127 time=0.011458333333333333\n",
      "note_off channel=0 note=60 velocity=127 time=0.008333333333333333\n",
      "note_on channel=0 note=61 velocity=127 time=0.02395833333333333\n",
      "note_off channel=0 note=61 velocity=127 time=0.019791666666666666\n",
      "note_on channel=0 note=62 velocity=127 time=0.010416666666666666\n",
      "note_on channel=0 note=60 velocity=127 time=0.007291666666666667\n",
      "note_off channel=0 note=62 velocity=127 time=0.0125\n",
      "note_off channel=0 note=60 velocity=127 time=0.007291666666666667\n",
      "note_on channel=0 note=61 velocity=127 time=0.011458333333333333\n",
      "note_off channel=0 note=61 velocity=127 time=0.019791666666666666\n",
      "note_on channel=0 note=62 velocity=127 time=0.025\n",
      "note_on channel=0 note=60 velocity=127 time=0.005208333333333333\n",
      "note_off channel=0 note=62 velocity=127 time=0.014583333333333334\n",
      "note_on channel=0 note=61 velocity=127 time=0.004166666666666667\n",
      "note_off channel=0 note=60 velocity=127 time=0.0010416666666666667\n",
      "note_off channel=0 note=61 velocity=127 time=0.01875\n",
      "note_on channel=0 note=62 velocity=127 time=0.03854166666666667\n",
      "note_on channel=0 note=60 velocity=127 time=0.004166666666666667\n",
      "note_on channel=0 note=61 velocity=127 time=0.00625\n",
      "note_off channel=0 note=62 velocity=127 time=0.009375\n",
      "note_off channel=0 note=60 velocity=127 time=0.004166666666666667\n",
      "note_off channel=0 note=61 velocity=127 time=0.00625\n",
      "note_on channel=0 note=61 velocity=127 time=0.04895833333333333\n",
      "note_on channel=0 note=62 velocity=127 time=0.004166666666666667\n",
      "note_on channel=0 note=60 velocity=127 time=0.0020833333333333333\n",
      "note_off channel=0 note=61 velocity=127 time=0.013541666666666667\n",
      "note_off channel=0 note=62 velocity=127 time=0.004166666666666667\n",
      "note_off channel=0 note=60 velocity=127 time=0.0020833333333333333\n",
      "note_on channel=0 note=61 velocity=127 time=0.042708333333333334\n",
      "note_on channel=0 note=62 velocity=127 time=0.017708333333333333\n",
      "note_on channel=0 note=60 velocity=127 time=0.0010416666666666667\n",
      "note_off channel=0 note=61 velocity=127 time=0.0010416666666666667\n",
      "note_off channel=0 note=62 velocity=127 time=0.017708333333333333\n",
      "note_off channel=0 note=60 velocity=127 time=0.0010416666666666667\n",
      "note_on channel=0 note=61 velocity=127 time=0.030208333333333334\n",
      "note_off channel=0 note=61 velocity=127 time=0.019791666666666666\n",
      "note_on channel=0 note=60 velocity=127 time=0.011458333333333333\n",
      "note_on channel=0 note=62 velocity=127 time=0.0010416666666666667\n",
      "note_off channel=0 note=60 velocity=127 time=0.01875\n",
      "note_off channel=0 note=62 velocity=127 time=0.0010416666666666667\n",
      "note_on channel=0 note=61 velocity=127 time=0.016666666666666666\n",
      "note_off channel=0 note=61 velocity=127 time=0.019791666666666666\n",
      "note_on channel=0 note=60 velocity=127 time=0.02395833333333333\n",
      "note_on channel=0 note=62 velocity=127 time=0.0020833333333333333\n",
      "note_off channel=0 note=60 velocity=127 time=0.017708333333333333\n",
      "note_off channel=0 note=62 velocity=127 time=0.0020833333333333333\n",
      "note_on channel=0 note=61 velocity=127 time=0.003125\n",
      "note_off channel=0 note=61 velocity=127 time=0.019791666666666666\n",
      "note_on channel=0 note=60 velocity=127 time=0.036458333333333336\n",
      "note_on channel=0 note=62 velocity=127 time=0.004166666666666667\n",
      "note_on channel=0 note=61 velocity=127 time=0.008333333333333333\n",
      "note_off channel=0 note=60 velocity=127 time=0.007291666666666667\n",
      "note_off channel=0 note=62 velocity=127 time=0.004166666666666667\n",
      "note_off channel=0 note=61 velocity=127 time=0.008333333333333333\n",
      "note_on channel=0 note=61 velocity=127 time=0.04895833333333333\n",
      "note_on channel=0 note=60 velocity=127 time=0\n",
      "note_on channel=0 note=62 velocity=127 time=0.005208333333333333\n",
      "note_off channel=0 note=61 velocity=127 time=0.014583333333333334\n",
      "note_off channel=0 note=60 velocity=127 time=0\n",
      "note_off channel=0 note=62 velocity=127 time=0.005208333333333333\n",
      "note_on channel=0 note=61 velocity=127 time=0.04375\n",
      "note_on channel=0 note=60 velocity=127 time=0.0125\n",
      "note_on channel=0 note=62 velocity=127 time=0.007291666666666667\n",
      "note_off channel=0 note=61 velocity=127 time=0\n",
      "note_off channel=0 note=60 velocity=127 time=0.0125\n",
      "note_off channel=0 note=62 velocity=127 time=0.007291666666666667\n",
      "note_on channel=0 note=61 velocity=127 time=0.029166666666666667\n",
      "note_off channel=0 note=61 velocity=127 time=0.019791666666666666\n",
      "note_on channel=0 note=60 velocity=127 time=0.005208333333333333\n",
      "note_on channel=0 note=62 velocity=127 time=0.008333333333333333\n",
      "note_off channel=0 note=60 velocity=127 time=0.011458333333333333\n",
      "note_off channel=0 note=62 velocity=127 time=0.008333333333333333\n",
      "note_on channel=0 note=61 velocity=127 time=0.015625\n",
      "note_off channel=0 note=61 velocity=127 time=0.019791666666666666\n",
      "note_on channel=0 note=60 velocity=127 time=0.017708333333333333\n",
      "note_on channel=0 note=62 velocity=127 time=0.010416666666666666\n",
      "note_off channel=0 note=60 velocity=127 time=0.009375\n",
      "note_off channel=0 note=62 velocity=127 time=0.010416666666666666\n",
      "note_on channel=0 note=61 velocity=127 time=0.0010416666666666667\n",
      "note_off channel=0 note=61 velocity=127 time=0.019791666666666666\n",
      "note_on channel=0 note=60 velocity=127 time=0.030208333333333334\n",
      "note_on channel=0 note=62 velocity=127 time=0.011458333333333333\n",
      "note_on channel=0 note=61 velocity=127 time=0.007291666666666667\n",
      "note_off channel=0 note=60 velocity=127 time=0.0010416666666666667\n",
      "note_off channel=0 note=62 velocity=127 time=0.011458333333333333\n",
      "note_off channel=0 note=61 velocity=127 time=0.007291666666666667\n",
      "note_on channel=0 note=60 velocity=127 time=0.042708333333333334\n",
      "note_on channel=0 note=61 velocity=127 time=0.00625\n",
      "note_on channel=0 note=62 velocity=127 time=0.007291666666666667\n",
      "note_off channel=0 note=60 velocity=127 time=0.00625\n",
      "note_off channel=0 note=61 velocity=127 time=0.00625\n",
      "\u001b[91m [DEBUG] > \u001b[0m\n",
      " |>  to_array: msg.time > max_t; t, n\n",
      " |>  2.990625000000001\n",
      " |>  150\n",
      "note_on channel=0 note=61 velocity=127 time=0.01875\n",
      "note_on channel=0 note=60 velocity=127 time=0\n",
      "note_off channel=0 note=61 velocity=127 time=0.019791666666666666\n",
      "note_off channel=0 note=60 velocity=127 time=0\n",
      "note_on channel=0 note=62 velocity=127 time=0.007291666666666667\n",
      "note_off channel=0 note=62 velocity=127 time=0.019791666666666666\n",
      "note_on channel=0 note=61 velocity=127 time=0.03333333333333333\n",
      "note_off channel=0 note=61 velocity=127 time=0.019791666666666666\n",
      "note_on channel=0 note=62 velocity=127 time=0.0125\n",
      "note_on channel=0 note=60 velocity=127 time=0.010416666666666666\n",
      "note_off channel=0 note=62 velocity=127 time=0.010416666666666666\n",
      "note_off channel=0 note=60 velocity=127 time=0.010416666666666666\n",
      "note_on channel=0 note=61 velocity=127 time=0.017708333333333333\n",
      "note_off channel=0 note=61 velocity=127 time=0.019791666666666666\n",
      "note_on channel=0 note=62 velocity=127 time=0.01875\n",
      "note_off channel=0 note=62 velocity=127 time=0.019791666666666666\n",
      "note_on channel=0 note=61 velocity=127 time=0.021875\n",
      "note_on channel=0 note=60 velocity=127 time=0.005208333333333333\n",
      "note_off channel=0 note=61 velocity=127 time=0.015625\n",
      "note_off channel=0 note=60 velocity=127 time=0.005208333333333333\n",
      "note_on channel=0 note=62 velocity=127 time=0.01875\n",
      "note_off channel=0 note=62 velocity=127 time=0.019791666666666666\n",
      "note_on channel=0 note=61 velocity=127 time=0.016666666666666666\n",
      "note_off channel=0 note=61 velocity=127 time=0.019791666666666666\n",
      "note_on channel=0 note=60 velocity=127 time=0.027083333333333334\n",
      "note_on channel=0 note=62 velocity=127 time=0.0020833333333333333\n",
      "note_off channel=0 note=60 velocity=127 time=0.017708333333333333\n",
      "note_off channel=0 note=62 velocity=127 time=0.0020833333333333333\n",
      "note_on channel=0 note=61 velocity=127 time=0.010416666666666666\n",
      "note_off channel=0 note=61 velocity=127 time=0.019791666666666666\n",
      "note_on channel=0 note=62 velocity=127 time=0.035416666666666666\n",
      "note_off channel=0 note=62 velocity=127 time=0.019791666666666666\n",
      "note_on channel=0 note=61 velocity=127 time=0.005208333333333333\n",
      "note_on channel=0 note=60 velocity=127 time=0.009375\n",
      "note_off channel=0 note=61 velocity=127 time=0.010416666666666666\n",
      "note_off channel=0 note=60 velocity=127 time=0.009375\n",
      "note_on channel=0 note=62 velocity=127 time=0.03125\n",
      "note_on channel=0 note=61 velocity=127 time=0.019791666666666666\n",
      "note_off channel=0 note=62 velocity=127 time=0.0010416666666666667\n",
      "note_off channel=0 note=61 velocity=127 time=0.019791666666666666\n",
      "note_on channel=0 note=60 velocity=127 time=0.03229166666666666\n",
      "note_on channel=0 note=62 velocity=127 time=0.014583333333333334\n",
      "note_off channel=0 note=60 velocity=127 time=0.005208333333333333\n",
      "note_on channel=0 note=61 velocity=127 time=0.008333333333333333\n",
      "note_off channel=0 note=62 velocity=127 time=0.00625\n",
      "note_off channel=0 note=61 velocity=127 time=0.013541666666666667\n",
      "note_on channel=0 note=62 velocity=127 time=0.052083333333333336\n",
      "note_on channel=0 note=61 velocity=127 time=0.008333333333333333\n",
      "note_off channel=0 note=62 velocity=127 time=0.0125\n",
      "note_on channel=0 note=60 velocity=127 time=0.0020833333333333333\n",
      "note_off channel=0 note=61 velocity=127 time=0.00625\n",
      "note_off channel=0 note=60 velocity=127 time=0.013541666666666667\n",
      "note_on channel=0 note=62 velocity=127 time=0.04375\n",
      "note_on channel=0 note=61 velocity=127 time=0.0020833333333333333\n",
      "note_off channel=0 note=62 velocity=127 time=0.017708333333333333\n",
      "note_off channel=0 note=61 velocity=127 time=0.0020833333333333333\n",
      "note_on channel=0 note=60 velocity=127 time=0.036458333333333336\n",
      "note_off channel=0 note=60 velocity=127 time=0.019791666666666666\n",
      "note_on channel=0 note=61 velocity=127 time=0.004166666666666667\n",
      "note_on channel=0 note=62 velocity=127 time=0.003125\n",
      "note_off channel=0 note=61 velocity=127 time=0.016666666666666666\n",
      "note_off channel=0 note=62 velocity=127 time=0.003125\n",
      "note_on channel=0 note=61 velocity=127 time=0.057291666666666664\n",
      "note_on channel=0 note=62 velocity=127 time=0.009375\n",
      "note_on channel=0 note=60 velocity=127 time=0.009375\n",
      "note_off channel=0 note=61 velocity=127 time=0.0010416666666666667\n",
      "note_off channel=0 note=62 velocity=127 time=0.009375\n",
      "note_off channel=0 note=60 velocity=127 time=0.009375\n",
      "note_on channel=0 note=61 velocity=127 time=0.041666666666666664\n",
      "note_on channel=0 note=62 velocity=127 time=0.014583333333333334\n",
      "note_off channel=0 note=61 velocity=127 time=0.005208333333333333\n",
      "note_off channel=0 note=62 velocity=127 time=0.014583333333333334\n",
      "note_on channel=0 note=60 velocity=127 time=0.026041666666666668\n",
      "note_on channel=0 note=61 velocity=127 time=0.019791666666666666\n",
      "note_off channel=0 note=60 velocity=127 time=0.0010416666666666667\n",
      "note_off channel=0 note=61 velocity=127 time=0.019791666666666666\n",
      "note_on channel=0 note=62 velocity=127 time=0.0010416666666666667\n",
      "note_off channel=0 note=62 velocity=127 time=0.019791666666666666\n",
      "note_on channel=0 note=61 velocity=127 time=0.03958333333333333\n",
      "note_off channel=0 note=61 velocity=127 time=0.019791666666666666\n",
      "note_on channel=0 note=60 velocity=127 time=0.003125\n",
      "note_on channel=0 note=62 velocity=127 time=0.003125\n",
      "note_off channel=0 note=60 velocity=127 time=0.016666666666666666\n",
      "note_off channel=0 note=62 velocity=127 time=0.003125\n",
      "note_on channel=0 note=61 velocity=127 time=0.034375\n",
      "note_off channel=0 note=61 velocity=127 time=0.019791666666666666\n",
      "note_on channel=0 note=62 velocity=127 time=0.011458333333333333\n",
      "note_off channel=0 note=62 velocity=127 time=0.019791666666666666\n",
      "note_on channel=0 note=60 velocity=127 time=0.013541666666666667\n",
      "note_on channel=0 note=61 velocity=127 time=0.014583333333333334\n",
      "note_off channel=0 note=60 velocity=127 time=0.005208333333333333\n",
      "note_off channel=0 note=61 velocity=127 time=0.014583333333333334\n",
      "note_on channel=0 note=62 velocity=127 time=0.017708333333333333\n",
      "note_off channel=0 note=62 velocity=127 time=0.019791666666666666\n",
      "note_on channel=0 note=61 velocity=127 time=0.022916666666666665\n",
      "note_off channel=0 note=61 velocity=127 time=0.019791666666666666\n",
      "note_on channel=0 note=60 velocity=127 time=0.007291666666666667\n",
      "note_on channel=0 note=62 velocity=127 time=0.015625\n",
      "note_off channel=0 note=60 velocity=127 time=0.004166666666666667\n",
      "note_off channel=0 note=62 velocity=127 time=0.015625\n",
      "note_on channel=0 note=61 velocity=127 time=0.016666666666666666\n",
      "note_off channel=0 note=61 velocity=127 time=0.019791666666666666\n",
      "note_on channel=0 note=62 velocity=127 time=0.029166666666666667\n",
      "note_off channel=0 note=62 velocity=127 time=0.019791666666666666\n",
      "note_on channel=0 note=60 velocity=127 time=0.0010416666666666667\n",
      "note_on channel=0 note=61 velocity=127 time=0.010416666666666666\n",
      "note_off channel=0 note=60 velocity=127 time=0.009375\n",
      "note_off channel=0 note=61 velocity=127 time=0.010416666666666666\n",
      "note_on channel=0 note=62 velocity=127 time=0.034375\n",
      "note_off channel=0 note=62 velocity=127 time=0.019791666666666666\n",
      "note_on channel=0 note=61 velocity=127 time=0.005208333333333333\n",
      "note_off channel=0 note=61 velocity=127 time=0.019791666666666666\n",
      "note_on channel=0 note=60 velocity=127 time=0.0125\n",
      "note_off channel=0 note=60 velocity=127 time=0.019791666666666666\n",
      "note_on channel=0 note=62 velocity=127 time=0.008333333333333333\n",
      "note_off channel=0 note=62 velocity=127 time=0.019791666666666666\n",
      "note_on channel=0 note=61 velocity=127 time=0\n",
      "note_off channel=0 note=61 velocity=127 time=0.019791666666666666\n",
      "note_on channel=0 note=62 velocity=127 time=0.04583333333333333\n",
      "note_on channel=0 note=60 velocity=127 time=0.008333333333333333\n",
      "note_on channel=0 note=61 velocity=127 time=0.005208333333333333\n",
      "note_off channel=0 note=62 velocity=127 time=0.005208333333333333\n",
      "note_off channel=0 note=60 velocity=127 time=0.008333333333333333\n",
      "note_off channel=0 note=61 velocity=127 time=0.005208333333333333\n",
      "note_on channel=0 note=62 velocity=127 time=0.052083333333333336\n",
      "note_on channel=0 note=61 velocity=127 time=0.008333333333333333\n",
      "note_off channel=0 note=62 velocity=127 time=0.011458333333333333\n",
      "note_off channel=0 note=61 velocity=127 time=0.008333333333333333\n",
      "note_on channel=0 note=60 velocity=127 time=0.016666666666666666\n",
      "note_off channel=0 note=60 velocity=127 time=0.019791666666666666\n",
      "note_on channel=0 note=62 velocity=127 time=0.020833333333333332\n",
      "note_on channel=0 note=61 velocity=127 time=0.003125\n",
      "note_off channel=0 note=62 velocity=127 time=0.016666666666666666\n",
      "note_off channel=0 note=61 velocity=127 time=0.003125\n",
      "note_on channel=0 note=60 velocity=127 time=0.059375\n",
      "note_on channel=0 note=61 velocity=127 time=0.0010416666666666667\n",
      "note_on channel=0 note=62 velocity=127 time=0.003125\n",
      "note_off channel=0 note=60 velocity=127 time=0.016666666666666666\n",
      "note_off channel=0 note=61 velocity=127 time=0.0010416666666666667\n",
      "note_off channel=0 note=62 velocity=127 time=0.003125\n",
      "note_on channel=0 note=61 velocity=127 time=0.057291666666666664\n",
      "note_on channel=0 note=62 velocity=127 time=0.008333333333333333\n",
      "note_off channel=0 note=61 velocity=127 time=0.011458333333333333\n",
      "note_off channel=0 note=62 velocity=127 time=0.008333333333333333\n",
      "note_on channel=0 note=60 velocity=127 time=0.013541666666666667\n",
      "note_off channel=0 note=60 velocity=127 time=0.019791666666666666\n",
      "note_on channel=0 note=61 velocity=127 time=0.01875\n",
      "note_on channel=0 note=62 velocity=127 time=0.014583333333333334\n",
      "note_off channel=0 note=61 velocity=127 time=0.00625\n",
      "note_off channel=0 note=62 velocity=127 time=0.014583333333333334\n",
      "note_on channel=0 note=61 velocity=127 time=0.04583333333333333\n",
      "note_on channel=0 note=60 velocity=127 time=0.004166666666666667\n",
      "note_on channel=0 note=62 velocity=127 time=0.015625\n",
      "note_off channel=0 note=61 velocity=127 time=0\n",
      "note_off channel=0 note=60 velocity=127 time=0.004166666666666667\n",
      "note_off channel=0 note=62 velocity=127 time=0.015625\n",
      "note_on channel=0 note=61 velocity=127 time=0.040625\n",
      "note_off channel=0 note=61 velocity=127 time=0.019791666666666666\n",
      "note_on channel=0 note=62 velocity=127 time=0.005208333333333333\n",
      "note_off channel=0 note=62 velocity=127 time=0.019791666666666666\n",
      "note_on channel=0 note=60 velocity=127 time=0.0010416666666666667\n",
      "note_off channel=0 note=60 velocity=127 time=0.019791666666666666\n",
      "note_on channel=0 note=61 velocity=127 time=0.014583333333333334\n",
      "note_off channel=0 note=61 velocity=127 time=0.019791666666666666\n",
      "note_on channel=0 note=62 velocity=127 time=0.011458333333333333\n",
      "note_off channel=0 note=62 velocity=127 time=0.019791666666666666\n",
      "note_on channel=0 note=61 velocity=127 time=0.029166666666666667\n",
      "note_on channel=0 note=60 velocity=127 time=0.008333333333333333\n",
      "note_off channel=0 note=61 velocity=127 time=0.011458333333333333\n",
      "note_off channel=0 note=60 velocity=127 time=0.008333333333333333\n",
      "note_on channel=0 note=62 velocity=127 time=0.008333333333333333\n",
      "note_off channel=0 note=62 velocity=127 time=0.019791666666666666\n",
      "note_on channel=0 note=61 velocity=127 time=0.02395833333333333\n",
      "note_off channel=0 note=61 velocity=127 time=0.019791666666666666\n",
      "note_on channel=0 note=62 velocity=127 time=0.022916666666666665\n",
      "note_on channel=0 note=60 velocity=127 time=0.008333333333333333\n",
      "note_off channel=0 note=62 velocity=127 time=0.011458333333333333\n",
      "note_off channel=0 note=60 velocity=127 time=0.008333333333333333\n",
      "note_on channel=0 note=61 velocity=127 time=0.009375\n",
      "note_off channel=0 note=61 velocity=127 time=0.019791666666666666\n",
      "note_on channel=0 note=62 velocity=127 time=0.028125\n",
      "note_off channel=0 note=62 velocity=127 time=0.019791666666666666\n",
      "note_on channel=0 note=61 velocity=127 time=0.0125\n",
      "note_on channel=0 note=60 velocity=127 time=0.0125\n",
      "note_off channel=0 note=61 velocity=127 time=0.007291666666666667\n",
      "note_off channel=0 note=60 velocity=127 time=0.0125\n",
      "note_on channel=0 note=62 velocity=127 time=0.020833333333333332\n",
      "note_off channel=0 note=62 velocity=127 time=0.019791666666666666\n",
      "note_on channel=0 note=61 velocity=127 time=0.00625\n",
      "note_off channel=0 note=61 velocity=127 time=0.019791666666666666\n",
      "note_on channel=0 note=60 velocity=127 time=0.035416666666666666\n",
      "note_on channel=0 note=62 velocity=127 time=0.004166666666666667\n",
      "note_off channel=0 note=60 velocity=127 time=0.015625\n",
      "note_off channel=0 note=62 velocity=127 time=0.004166666666666667\n",
      "note_on channel=0 note=61 velocity=127 time=0.0010416666666666667\n",
      "note_off channel=0 note=61 velocity=127 time=0.019791666666666666\n",
      "\u001b[91m [DEBUG] > \u001b[0m\n",
      " |>  to_array: msg.time > max_t; t, n\n",
      " |>  3.0052083333333353\n",
      " |>  150\n",
      "note_on channel=0 note=61 velocity=127 time=0.04895833333333333\n",
      "note_off channel=0 note=61 velocity=127 time=0.019791666666666666\n",
      "note_on channel=0 note=62 velocity=127 time=0.026041666666666668\n",
      "note_off channel=0 note=62 velocity=127 time=0.019791666666666666\n",
      "note_on channel=0 note=61 velocity=127 time=0.025\n",
      "note_on channel=0 note=60 velocity=127 time=0.0010416666666666667\n",
      "note_off channel=0 note=61 velocity=127 time=0.01875\n",
      "note_off channel=0 note=60 velocity=127 time=0.0010416666666666667\n",
      "note_on channel=0 note=62 velocity=127 time=0.07083333333333333\n",
      "note_on channel=0 note=61 velocity=127 time=0\n",
      "note_off channel=0 note=62 velocity=127 time=0.019791666666666666\n",
      "note_off channel=0 note=61 velocity=127 time=0\n",
      "note_on channel=0 note=61 velocity=127 time=0.071875\n",
      "note_off channel=0 note=61 velocity=127 time=0.019791666666666666\n",
      "note_on channel=0 note=62 velocity=127 time=0.02395833333333333\n",
      "note_off channel=0 note=62 velocity=127 time=0.019791666666666666\n",
      "note_on channel=0 note=60 velocity=127 time=0.020833333333333332\n",
      "note_on channel=0 note=61 velocity=127 time=0.00625\n",
      "note_off channel=0 note=60 velocity=127 time=0.013541666666666667\n",
      "note_off channel=0 note=61 velocity=127 time=0.00625\n",
      "note_on channel=0 note=62 velocity=127 time=0.06979166666666667\n",
      "note_on channel=0 note=61 velocity=127 time=0.0020833333333333333\n",
      "note_off channel=0 note=62 velocity=127 time=0.017708333333333333\n",
      "note_off channel=0 note=61 velocity=127 time=0.0020833333333333333\n",
      "note_on channel=0 note=61 velocity=127 time=0.071875\n",
      "note_off channel=0 note=61 velocity=127 time=0.019791666666666666\n",
      "note_on channel=0 note=62 velocity=127 time=0.022916666666666665\n",
      "note_off channel=0 note=62 velocity=127 time=0.019791666666666666\n",
      "note_on channel=0 note=60 velocity=127 time=0.016666666666666666\n",
      "note_on channel=0 note=61 velocity=127 time=0.0125\n",
      "note_off channel=0 note=60 velocity=127 time=0.007291666666666667\n",
      "note_off channel=0 note=61 velocity=127 time=0.0125\n",
      "note_on channel=0 note=62 velocity=127 time=0.06770833333333333\n",
      "note_on channel=0 note=61 velocity=127 time=0.004166666666666667\n",
      "note_off channel=0 note=62 velocity=127 time=0.015625\n",
      "note_off channel=0 note=61 velocity=127 time=0.004166666666666667\n",
      "note_on channel=0 note=61 velocity=127 time=0.071875\n",
      "note_off channel=0 note=61 velocity=127 time=0.019791666666666666\n",
      "note_on channel=0 note=62 velocity=127 time=0.020833333333333332\n",
      "note_off channel=0 note=62 velocity=127 time=0.019791666666666666\n",
      "note_on channel=0 note=60 velocity=127 time=0.011458333333333333\n",
      "note_on channel=0 note=61 velocity=127 time=0.019791666666666666\n",
      "note_off channel=0 note=60 velocity=127 time=0\n",
      "note_off channel=0 note=61 velocity=127 time=0.019791666666666666\n",
      "note_on channel=0 note=62 velocity=127 time=0.065625\n",
      "note_on channel=0 note=61 velocity=127 time=0.00625\n",
      "note_off channel=0 note=62 velocity=127 time=0.013541666666666667\n",
      "note_off channel=0 note=61 velocity=127 time=0.00625\n",
      "note_on channel=0 note=61 velocity=127 time=0.071875\n",
      "note_off channel=0 note=61 velocity=127 time=0.019791666666666666\n",
      "note_on channel=0 note=62 velocity=127 time=0.01875\n",
      "note_off channel=0 note=62 velocity=127 time=0.019791666666666666\n",
      "note_on channel=0 note=60 velocity=127 time=0.00625\n",
      "note_off channel=0 note=60 velocity=127 time=0.019791666666666666\n",
      "note_on channel=0 note=61 velocity=127 time=0.00625\n",
      "note_off channel=0 note=61 velocity=127 time=0.019791666666666666\n",
      "note_on channel=0 note=62 velocity=127 time=0.06354166666666666\n",
      "note_on channel=0 note=61 velocity=127 time=0.008333333333333333\n",
      "note_off channel=0 note=62 velocity=127 time=0.011458333333333333\n",
      "note_off channel=0 note=61 velocity=127 time=0.008333333333333333\n",
      "note_on channel=0 note=61 velocity=127 time=0.071875\n",
      "note_off channel=0 note=61 velocity=127 time=0.019791666666666666\n",
      "note_on channel=0 note=62 velocity=127 time=0.016666666666666666\n",
      "note_off channel=0 note=62 velocity=127 time=0.019791666666666666\n",
      "note_on channel=0 note=60 velocity=127 time=0.0020833333333333333\n",
      "note_off channel=0 note=60 velocity=127 time=0.019791666666666666\n",
      "note_on channel=0 note=61 velocity=127 time=0.013541666666666667\n",
      "note_off channel=0 note=61 velocity=127 time=0.019791666666666666\n",
      "note_on channel=0 note=62 velocity=127 time=0.06145833333333333\n",
      "note_on channel=0 note=61 velocity=127 time=0.010416666666666666\n",
      "note_off channel=0 note=62 velocity=127 time=0.009375\n",
      "note_off channel=0 note=61 velocity=127 time=0.010416666666666666\n",
      "note_on channel=0 note=61 velocity=127 time=0.071875\n",
      "note_off channel=0 note=61 velocity=127 time=0.019791666666666666\n",
      "note_on channel=0 note=62 velocity=127 time=0.014583333333333334\n",
      "note_on channel=0 note=60 velocity=127 time=0.016666666666666666\n",
      "note_off channel=0 note=62 velocity=127 time=0.003125\n",
      "note_off channel=0 note=60 velocity=127 time=0.016666666666666666\n",
      "note_on channel=0 note=61 velocity=127 time=0.020833333333333332\n",
      "note_off channel=0 note=61 velocity=127 time=0.019791666666666666\n",
      "note_on channel=0 note=62 velocity=127 time=0.059375\n",
      "note_on channel=0 note=61 velocity=127 time=0.0125\n",
      "note_off channel=0 note=62 velocity=127 time=0.007291666666666667\n",
      "note_off channel=0 note=61 velocity=127 time=0.0125\n",
      "note_on channel=0 note=61 velocity=127 time=0.071875\n",
      "note_off channel=0 note=61 velocity=127 time=0.019791666666666666\n",
      "note_on channel=0 note=62 velocity=127 time=0.0125\n",
      "note_on channel=0 note=60 velocity=127 time=0.011458333333333333\n",
      "note_off channel=0 note=62 velocity=127 time=0.008333333333333333\n",
      "note_off channel=0 note=60 velocity=127 time=0.011458333333333333\n",
      "note_on channel=0 note=61 velocity=127 time=0.027083333333333334\n",
      "note_off channel=0 note=61 velocity=127 time=0.019791666666666666\n",
      "note_on channel=0 note=62 velocity=127 time=0.057291666666666664\n",
      "note_on channel=0 note=61 velocity=127 time=0.014583333333333334\n",
      "note_off channel=0 note=62 velocity=127 time=0.005208333333333333\n",
      "note_off channel=0 note=61 velocity=127 time=0.014583333333333334\n",
      "note_on channel=0 note=61 velocity=127 time=0.071875\n",
      "note_off channel=0 note=61 velocity=127 time=0.019791666666666666\n",
      "note_on channel=0 note=62 velocity=127 time=0.010416666666666666\n",
      "note_on channel=0 note=60 velocity=127 time=0.007291666666666667\n",
      "note_off channel=0 note=62 velocity=127 time=0.0125\n",
      "note_off channel=0 note=60 velocity=127 time=0.007291666666666667\n",
      "note_on channel=0 note=61 velocity=127 time=0.034375\n",
      "note_off channel=0 note=61 velocity=127 time=0.019791666666666666\n",
      "note_on channel=0 note=62 velocity=127 time=0.05520833333333333\n",
      "note_on channel=0 note=61 velocity=127 time=0.016666666666666666\n",
      "note_off channel=0 note=62 velocity=127 time=0.004166666666666667\n",
      "note_off channel=0 note=61 velocity=127 time=0.016666666666666666\n",
      "note_on channel=0 note=61 velocity=127 time=0.071875\n",
      "note_off channel=0 note=61 velocity=127 time=0.019791666666666666\n",
      "note_on channel=0 note=62 velocity=127 time=0.008333333333333333\n",
      "note_on channel=0 note=60 velocity=127 time=0.0020833333333333333\n",
      "note_off channel=0 note=62 velocity=127 time=0.017708333333333333\n",
      "note_off channel=0 note=60 velocity=127 time=0.0020833333333333333\n",
      "note_on channel=0 note=61 velocity=127 time=0.040625\n",
      "note_off channel=0 note=61 velocity=127 time=0.019791666666666666\n",
      "note_on channel=0 note=62 velocity=127 time=0.053125\n",
      "note_on channel=0 note=61 velocity=127 time=0.01875\n",
      "note_off channel=0 note=62 velocity=127 time=0.0020833333333333333\n",
      "note_off channel=0 note=61 velocity=127 time=0.01875\n",
      "note_on channel=0 note=61 velocity=127 time=0.071875\n",
      "note_off channel=0 note=61 velocity=127 time=0.019791666666666666\n",
      "note_on channel=0 note=60 velocity=127 time=0.004166666666666667\n",
      "note_on channel=0 note=62 velocity=127 time=0.003125\n",
      "note_off channel=0 note=60 velocity=127 time=0.017708333333333333\n",
      "note_off channel=0 note=62 velocity=127 time=0.003125\n",
      "note_on channel=0 note=61 velocity=127 time=0.04479166666666667\n",
      "note_off channel=0 note=61 velocity=127 time=0.019791666666666666\n",
      "note_on channel=0 note=62 velocity=127 time=0.052083333333333336\n",
      "note_off channel=0 note=62 velocity=127 time=0.019791666666666666\n",
      "note_on channel=0 note=61 velocity=127 time=0\n",
      "note_off channel=0 note=61 velocity=127 time=0.019791666666666666\n",
      "\u001b[91m [DEBUG] > \u001b[0m\n",
      " |>  to_array: msg.time > max_t; t, n\n",
      " |>  2.9999999999999996\n",
      " |>  150\n",
      "note_on channel=0 note=60 velocity=127 time=0.005208333333333333\n",
      "note_off channel=0 note=60 velocity=127 time=0.019791666666666666\n",
      "note_on channel=0 note=62 velocity=127 time=0.0125\n",
      "note_off channel=0 note=62 velocity=127 time=0.019791666666666666\n",
      "note_on channel=0 note=60 velocity=127 time=0.028125\n",
      "note_off channel=0 note=60 velocity=127 time=0.019791666666666666\n",
      "note_on channel=0 note=62 velocity=127 time=0.03229166666666666\n",
      "note_off channel=0 note=62 velocity=127 time=0.019791666666666666\n",
      "note_on channel=0 note=61 velocity=127 time=0.008333333333333333\n",
      "note_on channel=0 note=60 velocity=127 time=0.0010416666666666667\n",
      "note_off channel=0 note=61 velocity=127 time=0.019791666666666666\n",
      "note_off channel=0 note=60 velocity=127 time=0.0010416666666666667\n",
      "note_on channel=0 note=62 velocity=127 time=0.052083333333333336\n",
      "note_on channel=0 note=60 velocity=127 time=0.009375\n",
      "note_off channel=0 note=62 velocity=127 time=0.011458333333333333\n",
      "note_off channel=0 note=60 velocity=127 time=0.009375\n",
      "note_on channel=0 note=60 velocity=127 time=0.06145833333333333\n",
      "note_on channel=0 note=62 velocity=127 time=0.010416666666666666\n",
      "note_off channel=0 note=60 velocity=127 time=0.009375\n",
      "note_off channel=0 note=62 velocity=127 time=0.010416666666666666\n",
      "note_on channel=0 note=60 velocity=127 time=0.05\n",
      "note_off channel=0 note=60 velocity=127 time=0.019791666666666666\n",
      "note_on channel=0 note=62 velocity=127 time=0.010416666666666666\n",
      "note_on channel=0 note=61 velocity=127 time=0.010416666666666666\n",
      "note_off channel=0 note=62 velocity=127 time=0.009375\n",
      "note_off channel=0 note=61 velocity=127 time=0.010416666666666666\n",
      "note_on channel=0 note=60 velocity=127 time=0.019791666666666666\n",
      "note_off channel=0 note=60 velocity=127 time=0.019791666666666666\n",
      "note_on channel=0 note=62 velocity=127 time=0.030208333333333334\n",
      "note_off channel=0 note=62 velocity=127 time=0.019791666666666666\n",
      "note_on channel=0 note=60 velocity=127 time=0.011458333333333333\n",
      "note_off channel=0 note=60 velocity=127 time=0.019791666666666666\n",
      "note_on channel=0 note=62 velocity=127 time=0.05\n",
      "note_on channel=0 note=60 velocity=127 time=0.011458333333333333\n",
      "note_off channel=0 note=62 velocity=127 time=0.008333333333333333\n",
      "note_off channel=0 note=60 velocity=127 time=0.011458333333333333\n",
      "note_on channel=0 note=60 velocity=127 time=0.06145833333333333\n",
      "note_on channel=0 note=61 velocity=127 time=0.0020833333333333333\n",
      "note_on channel=0 note=62 velocity=127 time=0.00625\n",
      "note_off channel=0 note=60 velocity=127 time=0.011458333333333333\n",
      "note_off channel=0 note=61 velocity=127 time=0.0020833333333333333\n",
      "note_off channel=0 note=62 velocity=127 time=0.00625\n",
      "note_on channel=0 note=60 velocity=127 time=0.052083333333333336\n",
      "note_off channel=0 note=60 velocity=127 time=0.019791666666666666\n",
      "note_on channel=0 note=62 velocity=127 time=0.008333333333333333\n",
      "note_off channel=0 note=62 velocity=127 time=0.019791666666666666\n",
      "note_on channel=0 note=60 velocity=127 time=0.03333333333333333\n",
      "note_off channel=0 note=60 velocity=127 time=0.019791666666666666\n",
      "note_on channel=0 note=62 velocity=127 time=0.028125\n",
      "note_off channel=0 note=62 velocity=127 time=0.019791666666666666\n",
      "note_on channel=0 note=60 velocity=127 time=0.013541666666666667\n",
      "note_off channel=0 note=60 velocity=127 time=0.019791666666666666\n",
      "note_on channel=0 note=61 velocity=127 time=0.02395833333333333\n",
      "note_off channel=0 note=61 velocity=127 time=0.019791666666666666\n",
      "note_on channel=0 note=62 velocity=127 time=0.003125\n",
      "note_on channel=0 note=60 velocity=127 time=0.013541666666666667\n",
      "note_off channel=0 note=62 velocity=127 time=0.00625\n",
      "note_off channel=0 note=60 velocity=127 time=0.013541666666666667\n",
      "note_on channel=0 note=60 velocity=127 time=0.06145833333333333\n",
      "note_on channel=0 note=62 velocity=127 time=0.00625\n",
      "note_off channel=0 note=60 velocity=127 time=0.013541666666666667\n",
      "note_off channel=0 note=62 velocity=127 time=0.00625\n",
      "note_on channel=0 note=60 velocity=127 time=0.05520833333333333\n",
      "note_off channel=0 note=60 velocity=127 time=0.019791666666666666\n",
      "note_on channel=0 note=62 velocity=127 time=0.00625\n",
      "note_off channel=0 note=62 velocity=127 time=0.019791666666666666\n",
      "note_on channel=0 note=60 velocity=127 time=0.035416666666666666\n",
      "note_on channel=0 note=61 velocity=127 time=0.005208333333333333\n",
      "note_off channel=0 note=60 velocity=127 time=0.014583333333333334\n",
      "note_off channel=0 note=61 velocity=127 time=0.005208333333333333\n",
      "note_on channel=0 note=62 velocity=127 time=0.020833333333333332\n",
      "note_off channel=0 note=62 velocity=127 time=0.019791666666666666\n",
      "note_on channel=0 note=60 velocity=127 time=0.015625\n",
      "note_off channel=0 note=60 velocity=127 time=0.019791666666666666\n",
      "note_on channel=0 note=62 velocity=127 time=0.04583333333333333\n",
      "note_on channel=0 note=60 velocity=127 time=0.015625\n",
      "note_off channel=0 note=62 velocity=127 time=0.004166666666666667\n",
      "note_off channel=0 note=60 velocity=127 time=0.015625\n",
      "note_on channel=0 note=60 velocity=127 time=0.06145833333333333\n",
      "note_on channel=0 note=62 velocity=127 time=0.004166666666666667\n",
      "note_off channel=0 note=60 velocity=127 time=0.015625\n",
      "note_off channel=0 note=62 velocity=127 time=0.004166666666666667\n",
      "note_on channel=0 note=61 velocity=127 time=0.022916666666666665\n",
      "note_off channel=0 note=61 velocity=127 time=0.019791666666666666\n",
      "note_on channel=0 note=60 velocity=127 time=0.014583333333333334\n",
      "note_off channel=0 note=60 velocity=127 time=0.019791666666666666\n",
      "note_on channel=0 note=62 velocity=127 time=0.004166666666666667\n",
      "note_off channel=0 note=62 velocity=127 time=0.019791666666666666\n",
      "note_on channel=0 note=60 velocity=127 time=0.0375\n",
      "note_off channel=0 note=60 velocity=127 time=0.019791666666666666\n",
      "note_on channel=0 note=62 velocity=127 time=0.02395833333333333\n",
      "note_off channel=0 note=62 velocity=127 time=0.019791666666666666\n",
      "note_on channel=0 note=60 velocity=127 time=0.017708333333333333\n",
      "note_off channel=0 note=60 velocity=127 time=0.019791666666666666\n",
      "note_on channel=0 note=62 velocity=127 time=0.04375\n",
      "note_on channel=0 note=60 velocity=127 time=0.017708333333333333\n",
      "note_off channel=0 note=62 velocity=127 time=0.0020833333333333333\n",
      "note_on channel=0 note=61 velocity=127 time=0.005208333333333333\n",
      "note_off channel=0 note=60 velocity=127 time=0.0125\n",
      "note_off channel=0 note=61 velocity=127 time=0.008333333333333333\n",
      "note_on channel=0 note=60 velocity=127 time=0.053125\n",
      "note_on channel=0 note=62 velocity=127 time=0.0020833333333333333\n",
      "note_off channel=0 note=60 velocity=127 time=0.017708333333333333\n",
      "note_off channel=0 note=62 velocity=127 time=0.0020833333333333333\n",
      "note_on channel=0 note=60 velocity=127 time=0.059375\n",
      "note_off channel=0 note=60 velocity=127 time=0.019791666666666666\n",
      "note_on channel=0 note=62 velocity=127 time=0.0020833333333333333\n",
      "note_off channel=0 note=62 velocity=127 time=0.019791666666666666\n",
      "note_on channel=0 note=60 velocity=127 time=0.03958333333333333\n",
      "note_off channel=0 note=60 velocity=127 time=0.019791666666666666\n",
      "note_on channel=0 note=62 velocity=127 time=0.021875\n",
      "note_on channel=0 note=61 velocity=127 time=0.008333333333333333\n",
      "note_off channel=0 note=62 velocity=127 time=0.011458333333333333\n",
      "note_off channel=0 note=61 velocity=127 time=0.008333333333333333\n"
     ]
    },
    {
     "name": "stdout",
     "output_type": "stream",
     "text": [
      "note_on channel=0 note=60 velocity=127 time=0.011458333333333333\n",
      "note_off channel=0 note=60 velocity=127 time=0.019791666666666666\n",
      "note_on channel=0 note=62 velocity=127 time=0.041666666666666664\n",
      "note_on channel=0 note=60 velocity=127 time=0.019791666666666666\n",
      "note_off channel=0 note=62 velocity=127 time=0\n",
      "note_off channel=0 note=60 velocity=127 time=0.019791666666666666\n",
      "note_on channel=0 note=62 velocity=127 time=0.06145833333333333\n",
      "note_on channel=0 note=60 velocity=127 time=0\n",
      "note_off channel=0 note=62 velocity=127 time=0.019791666666666666\n",
      "note_off channel=0 note=60 velocity=127 time=0\n",
      "note_on channel=0 note=60 velocity=127 time=0.06145833333333333\n",
      "note_on channel=0 note=61 velocity=127 time=0.010416666666666666\n",
      "note_on channel=0 note=62 velocity=127 time=0.009375\n",
      "note_off channel=0 note=60 velocity=127 time=0\n",
      "note_off channel=0 note=61 velocity=127 time=0.010416666666666666\n",
      "note_off channel=0 note=62 velocity=127 time=0.009375\n",
      "note_on channel=0 note=60 velocity=127 time=0.041666666666666664\n",
      "note_off channel=0 note=60 velocity=127 time=0.019791666666666666\n",
      "note_on channel=0 note=62 velocity=127 time=0.019791666666666666\n",
      "note_off channel=0 note=62 velocity=127 time=0.019791666666666666\n",
      "note_on channel=0 note=60 velocity=127 time=0.021875\n",
      "note_off channel=0 note=60 velocity=127 time=0.019791666666666666\n",
      "note_on channel=0 note=62 velocity=127 time=0.03958333333333333\n",
      "note_off channel=0 note=62 velocity=127 time=0.019791666666666666\n",
      "note_on channel=0 note=60 velocity=127 time=0.0020833333333333333\n",
      "note_off channel=0 note=60 velocity=127 time=0.019791666666666666\n",
      "note_on channel=0 note=61 velocity=127 time=0.03229166666666666\n",
      "note_off channel=0 note=61 velocity=127 time=0.019791666666666666\n",
      "note_on channel=0 note=62 velocity=127 time=0.00625\n",
      "note_on channel=0 note=60 velocity=127 time=0.0020833333333333333\n",
      "note_off channel=0 note=62 velocity=127 time=0.017708333333333333\n",
      "note_off channel=0 note=60 velocity=127 time=0.0020833333333333333\n",
      "note_on channel=0 note=60 velocity=127 time=0.06145833333333333\n",
      "note_on channel=0 note=62 velocity=127 time=0.017708333333333333\n",
      "note_off channel=0 note=60 velocity=127 time=0.0020833333333333333\n",
      "note_off channel=0 note=62 velocity=127 time=0.017708333333333333\n",
      "note_on channel=0 note=60 velocity=127 time=0.04375\n",
      "note_off channel=0 note=60 velocity=127 time=0.019791666666666666\n",
      "note_on channel=0 note=62 velocity=127 time=0.017708333333333333\n",
      "note_off channel=0 note=62 velocity=127 time=0.019791666666666666\n",
      "note_on channel=0 note=60 velocity=127 time=0.02395833333333333\n",
      "\u001b[91m [DEBUG] > \u001b[0m\n",
      " |>  to_array: msg.time > max_t; t, n\n",
      " |>  3.0072916666666685\n",
      " |>  150\n",
      "note_on channel=0 note=62 velocity=127 time=0.008333333333333333\n",
      "note_on channel=0 note=60 velocity=127 time=0.0125\n",
      "note_off channel=0 note=62 velocity=127 time=0.007291666666666667\n",
      "note_off channel=0 note=60 velocity=127 time=0.0125\n",
      "note_on channel=0 note=62 velocity=127 time=0.035416666666666666\n",
      "note_off channel=0 note=62 velocity=127 time=0.019791666666666666\n",
      "note_on channel=0 note=61 velocity=127 time=0.046875\n",
      "note_on channel=0 note=62 velocity=127 time=0\n",
      "note_off channel=0 note=61 velocity=127 time=0.019791666666666666\n",
      "note_off channel=0 note=62 velocity=127 time=0\n",
      "note_on channel=0 note=60 velocity=127 time=0.0125\n",
      "note_off channel=0 note=60 velocity=127 time=0.019791666666666666\n",
      "note_on channel=0 note=62 velocity=127 time=0.015625\n",
      "note_off channel=0 note=62 velocity=127 time=0.019791666666666666\n",
      "note_on channel=0 note=62 velocity=127 time=0.046875\n",
      "note_on channel=0 note=61 velocity=127 time=0.019791666666666666\n",
      "note_off channel=0 note=62 velocity=127 time=0.0010416666666666667\n",
      "note_off channel=0 note=61 velocity=127 time=0.019791666666666666\n",
      "note_on channel=0 note=60 velocity=127 time=0.0125\n",
      "note_on channel=0 note=62 velocity=127 time=0.015625\n",
      "note_off channel=0 note=60 velocity=127 time=0.005208333333333333\n",
      "note_off channel=0 note=62 velocity=127 time=0.015625\n",
      "note_on channel=0 note=62 velocity=127 time=0.046875\n",
      "note_off channel=0 note=62 velocity=127 time=0.019791666666666666\n",
      "note_on channel=0 note=61 velocity=127 time=0.019791666666666666\n",
      "note_off channel=0 note=61 velocity=127 time=0.019791666666666666\n",
      "note_on channel=0 note=62 velocity=127 time=0.008333333333333333\n",
      "note_on channel=0 note=60 velocity=127 time=0.005208333333333333\n",
      "note_off channel=0 note=62 velocity=127 time=0.015625\n",
      "note_off channel=0 note=60 velocity=127 time=0.005208333333333333\n",
      "note_on channel=0 note=62 velocity=127 time=0.042708333333333334\n",
      "note_off channel=0 note=62 velocity=127 time=0.019791666666666666\n",
      "note_on channel=0 note=61 velocity=127 time=0.03958333333333333\n",
      "note_on channel=0 note=62 velocity=127 time=0.008333333333333333\n",
      "note_off channel=0 note=61 velocity=127 time=0.011458333333333333\n",
      "note_off channel=0 note=62 velocity=127 time=0.008333333333333333\n",
      "note_on channel=0 note=60 velocity=127 time=0.005208333333333333\n",
      "note_off channel=0 note=60 velocity=127 time=0.019791666666666666\n",
      "note_on channel=0 note=62 velocity=127 time=0.022916666666666665\n",
      "note_off channel=0 note=62 velocity=127 time=0.019791666666666666\n",
      "note_on channel=0 note=62 velocity=127 time=0.046875\n",
      "note_on channel=0 note=61 velocity=127 time=0.011458333333333333\n",
      "note_off channel=0 note=62 velocity=127 time=0.008333333333333333\n",
      "note_off channel=0 note=61 velocity=127 time=0.011458333333333333\n",
      "note_on channel=0 note=60 velocity=127 time=0.0125\n",
      "note_off channel=0 note=60 velocity=127 time=0.019791666666666666\n",
      "note_on channel=0 note=62 velocity=127 time=0.003125\n",
      "note_off channel=0 note=62 velocity=127 time=0.019791666666666666\n",
      "note_on channel=0 note=62 velocity=127 time=0.046875\n",
      "note_off channel=0 note=62 velocity=127 time=0.019791666666666666\n",
      "note_on channel=0 note=61 velocity=127 time=0.011458333333333333\n",
      "note_off channel=0 note=61 velocity=127 time=0.019791666666666666\n",
      "note_on channel=0 note=60 velocity=127 time=0.0125\n",
      "note_on channel=0 note=62 velocity=127 time=0.003125\n",
      "note_off channel=0 note=60 velocity=127 time=0.017708333333333333\n",
      "note_off channel=0 note=62 velocity=127 time=0.003125\n",
      "note_on channel=0 note=62 velocity=127 time=0.046875\n",
      "note_off channel=0 note=62 velocity=127 time=0.019791666666666666\n",
      "note_on channel=0 note=61 velocity=127 time=0.03125\n",
      "note_on channel=0 note=62 velocity=127 time=0.015625\n",
      "note_off channel=0 note=61 velocity=127 time=0.004166666666666667\n",
      "note_on channel=0 note=60 velocity=127 time=0.0125\n",
      "note_off channel=0 note=62 velocity=127 time=0.003125\n",
      "note_off channel=0 note=60 velocity=127 time=0.017708333333333333\n",
      "note_on channel=0 note=62 velocity=127 time=0.030208333333333334\n",
      "note_off channel=0 note=62 velocity=127 time=0.019791666666666666\n",
      "note_on channel=0 note=62 velocity=127 time=0.046875\n",
      "note_on channel=0 note=61 velocity=127 time=0.004166666666666667\n",
      "note_off channel=0 note=62 velocity=127 time=0.015625\n",
      "note_off channel=0 note=61 velocity=127 time=0.004166666666666667\n",
      "note_on channel=0 note=60 velocity=127 time=0.013541666666666667\n",
      "note_off channel=0 note=60 velocity=127 time=0.019791666666666666\n",
      "note_on channel=0 note=62 velocity=127 time=0.010416666666666666\n",
      "note_off channel=0 note=62 velocity=127 time=0.019791666666666666\n",
      "note_on channel=0 note=62 velocity=127 time=0.046875\n",
      "note_off channel=0 note=62 velocity=127 time=0.019791666666666666\n",
      "note_on channel=0 note=61 velocity=127 time=0.004166666666666667\n",
      "note_off channel=0 note=61 velocity=127 time=0.019791666666666666\n",
      "note_on channel=0 note=60 velocity=127 time=0.013541666666666667\n",
      "note_on channel=0 note=62 velocity=127 time=0.010416666666666666\n",
      "note_off channel=0 note=60 velocity=127 time=0.010416666666666666\n",
      "note_off channel=0 note=62 velocity=127 time=0.010416666666666666\n",
      "note_on channel=0 note=62 velocity=127 time=0.046875\n",
      "note_off channel=0 note=62 velocity=127 time=0.019791666666666666\n",
      "note_on channel=0 note=61 velocity=127 time=0.02395833333333333\n",
      "note_off channel=0 note=61 velocity=127 time=0.019791666666666666\n",
      "note_on channel=0 note=62 velocity=127 time=0.003125\n",
      "note_on channel=0 note=60 velocity=127 time=0.010416666666666666\n",
      "note_off channel=0 note=62 velocity=127 time=0.010416666666666666\n",
      "note_off channel=0 note=60 velocity=127 time=0.010416666666666666\n",
      "note_on channel=0 note=62 velocity=127 time=0.0375\n",
      "note_off channel=0 note=62 velocity=127 time=0.019791666666666666\n",
      "note_on channel=0 note=61 velocity=127 time=0.04375\n",
      "note_on channel=0 note=62 velocity=127 time=0.003125\n",
      "note_off channel=0 note=61 velocity=127 time=0.016666666666666666\n",
      "note_off channel=0 note=62 velocity=127 time=0.003125\n",
      "note_on channel=0 note=60 velocity=127 time=0.010416666666666666\n",
      "note_off channel=0 note=60 velocity=127 time=0.019791666666666666\n",
      "note_on channel=0 note=62 velocity=127 time=0.017708333333333333\n",
      "note_off channel=0 note=62 velocity=127 time=0.019791666666666666\n",
      "note_on channel=0 note=62 velocity=127 time=0.046875\n",
      "note_on channel=0 note=61 velocity=127 time=0.016666666666666666\n",
      "note_off channel=0 note=62 velocity=127 time=0.003125\n",
      "note_off channel=0 note=61 velocity=127 time=0.016666666666666666\n",
      "note_on channel=0 note=60 velocity=127 time=0.013541666666666667\n",
      "note_on channel=0 note=62 velocity=127 time=0.017708333333333333\n",
      "note_off channel=0 note=60 velocity=127 time=0.0020833333333333333\n",
      "note_off channel=0 note=62 velocity=127 time=0.017708333333333333\n",
      "note_on channel=0 note=62 velocity=127 time=0.046875\n",
      "note_off channel=0 note=62 velocity=127 time=0.019791666666666666\n",
      "note_on channel=0 note=61 velocity=127 time=0.016666666666666666\n",
      "note_off channel=0 note=61 velocity=127 time=0.019791666666666666\n",
      "note_on channel=0 note=62 velocity=127 time=0.010416666666666666\n",
      "note_on channel=0 note=60 velocity=127 time=0.0020833333333333333\n",
      "note_off channel=0 note=62 velocity=127 time=0.017708333333333333\n",
      "note_off channel=0 note=60 velocity=127 time=0.0020833333333333333\n",
      "note_on channel=0 note=62 velocity=127 time=0.04479166666666667\n",
      "note_off channel=0 note=62 velocity=127 time=0.019791666666666666\n",
      "note_on channel=0 note=61 velocity=127 time=0.036458333333333336\n",
      "note_on channel=0 note=62 velocity=127 time=0.011458333333333333\n",
      "note_off channel=0 note=61 velocity=127 time=0.009375\n",
      "note_off channel=0 note=62 velocity=127 time=0.011458333333333333\n",
      "note_on channel=0 note=60 velocity=127 time=0.0020833333333333333\n",
      "note_off channel=0 note=60 velocity=127 time=0.019791666666666666\n",
      "note_on channel=0 note=62 velocity=127 time=0.025\n",
      "note_off channel=0 note=62 velocity=127 time=0.019791666666666666\n",
      "note_on channel=0 note=62 velocity=127 time=0.046875\n",
      "note_on channel=0 note=61 velocity=127 time=0.009375\n",
      "note_off channel=0 note=62 velocity=127 time=0.011458333333333333\n",
      "note_off channel=0 note=61 velocity=127 time=0.009375\n",
      "note_on channel=0 note=60 velocity=127 time=0.013541666666666667\n",
      "note_off channel=0 note=60 velocity=127 time=0.019791666666666666\n",
      "note_on channel=0 note=62 velocity=127 time=0.005208333333333333\n",
      "note_off channel=0 note=62 velocity=127 time=0.019791666666666666\n",
      "note_on channel=0 note=62 velocity=127 time=0.046875\n",
      "note_off channel=0 note=62 velocity=127 time=0.019791666666666666\n",
      "note_on channel=0 note=61 velocity=127 time=0.009375\n",
      "note_off channel=0 note=61 velocity=127 time=0.019791666666666666\n",
      "note_on channel=0 note=60 velocity=127 time=0.013541666666666667\n",
      "note_on channel=0 note=62 velocity=127 time=0.005208333333333333\n",
      "note_off channel=0 note=60 velocity=127 time=0.014583333333333334\n",
      "note_off channel=0 note=62 velocity=127 time=0.005208333333333333\n",
      "note_on channel=0 note=62 velocity=127 time=0.046875\n",
      "note_off channel=0 note=62 velocity=127 time=0.019791666666666666\n",
      "note_on channel=0 note=61 velocity=127 time=0.029166666666666667\n",
      "note_on channel=0 note=62 velocity=127 time=0.01875\n",
      "note_off channel=0 note=61 velocity=127 time=0.0010416666666666667\n",
      "note_on channel=0 note=60 velocity=127 time=0.013541666666666667\n",
      "note_off channel=0 note=62 velocity=127 time=0.005208333333333333\n",
      "note_off channel=0 note=60 velocity=127 time=0.014583333333333334\n",
      "note_on channel=0 note=62 velocity=127 time=0.03229166666666666\n",
      "note_off channel=0 note=62 velocity=127 time=0.019791666666666666\n",
      "note_on channel=0 note=62 velocity=127 time=0.046875\n",
      "note_on channel=0 note=61 velocity=127 time=0.0010416666666666667\n",
      "note_off channel=0 note=62 velocity=127 time=0.01875\n",
      "note_off channel=0 note=61 velocity=127 time=0.0010416666666666667\n",
      "note_on channel=0 note=60 velocity=127 time=0.013541666666666667\n",
      "note_off channel=0 note=60 velocity=127 time=0.019791666666666666\n",
      "note_on channel=0 note=62 velocity=127 time=0.0125\n",
      "note_off channel=0 note=62 velocity=127 time=0.019791666666666666\n",
      "note_on channel=0 note=62 velocity=127 time=0.046875\n",
      "note_off channel=0 note=62 velocity=127 time=0.019791666666666666\n",
      "note_on channel=0 note=61 velocity=127 time=0.0010416666666666667\n",
      "note_off channel=0 note=61 velocity=127 time=0.019791666666666666\n",
      "note_on channel=0 note=60 velocity=127 time=0.013541666666666667\n",
      "note_on channel=0 note=62 velocity=127 time=0.0125\n",
      "note_off channel=0 note=60 velocity=127 time=0.007291666666666667\n",
      "note_off channel=0 note=62 velocity=127 time=0.0125\n",
      "note_on channel=0 note=62 velocity=127 time=0.046875\n",
      "\u001b[91m [DEBUG] > \u001b[0m\n",
      " |>  to_array: msg.time > max_t; t, n\n",
      " |>  3.034375000000003\n",
      " |>  150\n",
      "note_on channel=0 note=60 velocity=127 time=0.05\n",
      "note_off channel=0 note=60 velocity=127 time=0.019791666666666666\n",
      "note_on channel=0 note=60 velocity=127 time=0.046875\n",
      "note_on channel=0 note=62 velocity=127 time=0.019791666666666666\n",
      "note_off channel=0 note=60 velocity=127 time=0\n",
      "note_off channel=0 note=62 velocity=127 time=0.019791666666666666\n",
      "note_on channel=0 note=61 velocity=127 time=0.016666666666666666\n",
      "note_on channel=0 note=60 velocity=127 time=0.010416666666666666\n",
      "note_off channel=0 note=61 velocity=127 time=0.009375\n",
      "note_off channel=0 note=60 velocity=127 time=0.010416666666666666\n",
      "note_on channel=0 note=60 velocity=127 time=0.046875\n",
      "note_off channel=0 note=60 velocity=127 time=0.019791666666666666\n",
      "note_on channel=0 note=60 velocity=127 time=0.046875\n",
      "note_off channel=0 note=60 velocity=127 time=0.019791666666666666\n",
      "note_on channel=0 note=60 velocity=127 time=0.046875\n",
      "note_on channel=0 note=62 velocity=127 time=0.0010416666666666667\n",
      "note_on channel=0 note=61 velocity=127 time=0.005208333333333333\n",
      "note_off channel=0 note=60 velocity=127 time=0.014583333333333334\n",
      "note_off channel=0 note=62 velocity=127 time=0.0010416666666666667\n",
      "note_off channel=0 note=61 velocity=127 time=0.005208333333333333\n",
      "note_on channel=0 note=60 velocity=127 time=0.041666666666666664\n",
      "note_off channel=0 note=60 velocity=127 time=0.019791666666666666\n",
      "note_on channel=0 note=60 velocity=127 time=0.046875\n",
      "note_off channel=0 note=60 velocity=127 time=0.019791666666666666\n",
      "note_on channel=0 note=60 velocity=127 time=0.046875\n",
      "note_off channel=0 note=60 velocity=127 time=0.019791666666666666\n",
      "note_on channel=0 note=61 velocity=127 time=0.0020833333333333333\n",
      "note_off channel=0 note=61 velocity=127 time=0.019791666666666666\n",
      "note_on channel=0 note=62 velocity=127 time=0.007291666666666667\n",
      "note_on channel=0 note=60 velocity=127 time=0.017708333333333333\n",
      "note_off channel=0 note=62 velocity=127 time=0.0020833333333333333\n",
      "note_off channel=0 note=60 velocity=127 time=0.017708333333333333\n",
      "note_on channel=0 note=60 velocity=127 time=0.046875\n",
      "note_off channel=0 note=60 velocity=127 time=0.019791666666666666\n",
      "note_on channel=0 note=60 velocity=127 time=0.046875\n",
      "note_off channel=0 note=60 velocity=127 time=0.019791666666666666\n",
      "note_on channel=0 note=61 velocity=127 time=0.01875\n",
      "note_off channel=0 note=61 velocity=127 time=0.019791666666666666\n",
      "note_on channel=0 note=60 velocity=127 time=0.008333333333333333\n",
      "note_off channel=0 note=60 velocity=127 time=0.019791666666666666\n",
      "note_on channel=0 note=62 velocity=127 time=0.010416666666666666\n",
      "note_off channel=0 note=62 velocity=127 time=0.019791666666666666\n",
      "note_on channel=0 note=60 velocity=127 time=0.016666666666666666\n",
      "note_off channel=0 note=60 velocity=127 time=0.019791666666666666\n",
      "note_on channel=0 note=60 velocity=127 time=0.046875\n",
      "note_off channel=0 note=60 velocity=127 time=0.019791666666666666\n",
      "note_on channel=0 note=61 velocity=127 time=0.035416666666666666\n",
      "note_on channel=0 note=60 velocity=127 time=0.011458333333333333\n",
      "note_off channel=0 note=61 velocity=127 time=0.008333333333333333\n",
      "note_off channel=0 note=60 velocity=127 time=0.011458333333333333\n",
      "note_on channel=0 note=60 velocity=127 time=0.046875\n",
      "note_on channel=0 note=62 velocity=127 time=0.011458333333333333\n",
      "note_off channel=0 note=60 velocity=127 time=0.008333333333333333\n",
      "note_off channel=0 note=62 velocity=127 time=0.011458333333333333\n",
      "note_on channel=0 note=60 velocity=127 time=0.035416666666666666\n",
      "note_off channel=0 note=60 velocity=127 time=0.019791666666666666\n",
      "note_on channel=0 note=60 velocity=127 time=0.046875\n",
      "note_on channel=0 note=61 velocity=127 time=0.004166666666666667\n",
      "note_off channel=0 note=60 velocity=127 time=0.015625\n",
      "note_off channel=0 note=61 velocity=127 time=0.004166666666666667\n",
      "note_on channel=0 note=60 velocity=127 time=0.042708333333333334\n",
      "note_off channel=0 note=60 velocity=127 time=0.019791666666666666\n",
      "note_on channel=0 note=62 velocity=127 time=0.040625\n",
      "note_on channel=0 note=60 velocity=127 time=0.007291666666666667\n",
      "note_off channel=0 note=62 velocity=127 time=0.0125\n",
      "note_off channel=0 note=60 velocity=127 time=0.007291666666666667\n",
      "note_on channel=0 note=60 velocity=127 time=0.046875\n",
      "note_off channel=0 note=60 velocity=127 time=0.019791666666666666\n",
      "note_on channel=0 note=61 velocity=127 time=0.0010416666666666667\n",
      "note_off channel=0 note=61 velocity=127 time=0.019791666666666666\n",
      "note_on channel=0 note=60 velocity=127 time=0.026041666666666668\n",
      "note_off channel=0 note=60 velocity=127 time=0.019791666666666666\n",
      "note_on channel=0 note=60 velocity=127 time=0.046875\n",
      "note_off channel=0 note=60 velocity=127 time=0.019791666666666666\n",
      "note_on channel=0 note=62 velocity=127 time=0.021875\n",
      "note_off channel=0 note=62 velocity=127 time=0.019791666666666666\n",
      "note_on channel=0 note=60 velocity=127 time=0.00625\n",
      "note_off channel=0 note=60 velocity=127 time=0.019791666666666666\n",
      "note_on channel=0 note=61 velocity=127 time=0.017708333333333333\n",
      "note_off channel=0 note=61 velocity=127 time=0.019791666666666666\n",
      "note_on channel=0 note=60 velocity=127 time=0.009375\n",
      "note_off channel=0 note=60 velocity=127 time=0.019791666666666666\n",
      "note_on channel=0 note=60 velocity=127 time=0.046875\n",
      "note_off channel=0 note=60 velocity=127 time=0.019791666666666666\n",
      "note_on channel=0 note=60 velocity=127 time=0.046875\n",
      "note_off channel=0 note=60 velocity=127 time=0.019791666666666666\n",
      "note_on channel=0 note=62 velocity=127 time=0.003125\n",
      "note_off channel=0 note=62 velocity=127 time=0.019791666666666666\n",
      "note_on channel=0 note=61 velocity=127 time=0.011458333333333333\n",
      "note_on channel=0 note=60 velocity=127 time=0.013541666666666667\n",
      "note_off channel=0 note=61 velocity=127 time=0.007291666666666667\n",
      "note_off channel=0 note=60 velocity=127 time=0.013541666666666667\n",
      "note_on channel=0 note=60 velocity=127 time=0.046875\n",
      "note_off channel=0 note=60 velocity=127 time=0.019791666666666666\n",
      "note_on channel=0 note=60 velocity=127 time=0.046875\n",
      "note_off channel=0 note=60 velocity=127 time=0.019791666666666666\n",
      "note_on channel=0 note=60 velocity=127 time=0.046875\n",
      "note_on channel=0 note=61 velocity=127 time=0.003125\n",
      "note_on channel=0 note=62 velocity=127 time=0.0010416666666666667\n",
      "note_off channel=0 note=60 velocity=127 time=0.016666666666666666\n",
      "note_off channel=0 note=61 velocity=127 time=0.003125\n",
      "note_off channel=0 note=62 velocity=127 time=0.0010416666666666667\n",
      "note_on channel=0 note=60 velocity=127 time=0.04375\n",
      "note_off channel=0 note=60 velocity=127 time=0.019791666666666666\n",
      "note_on channel=0 note=60 velocity=127 time=0.046875\n",
      "note_off channel=0 note=60 velocity=127 time=0.019791666666666666\n",
      "note_on channel=0 note=60 velocity=127 time=0.046875\n",
      "note_on channel=0 note=61 velocity=127 time=0.019791666666666666\n",
      "note_off channel=0 note=60 velocity=127 time=0\n",
      "note_off channel=0 note=61 velocity=127 time=0.019791666666666666\n",
      "note_on channel=0 note=62 velocity=127 time=0.0125\n",
      "note_on channel=0 note=60 velocity=127 time=0.014583333333333334\n",
      "note_off channel=0 note=62 velocity=127 time=0.005208333333333333\n",
      "note_off channel=0 note=60 velocity=127 time=0.014583333333333334\n",
      "note_on channel=0 note=60 velocity=127 time=0.046875\n",
      "note_off channel=0 note=60 velocity=127 time=0.019791666666666666\n",
      "note_on channel=0 note=60 velocity=127 time=0.046875\n",
      "note_off channel=0 note=60 velocity=127 time=0.019791666666666666\n",
      "note_on channel=0 note=61 velocity=127 time=0.016666666666666666\n",
      "note_off channel=0 note=61 velocity=127 time=0.019791666666666666\n",
      "note_on channel=0 note=60 velocity=127 time=0.010416666666666666\n",
      "note_off channel=0 note=60 velocity=127 time=0.019791666666666666\n",
      "note_on channel=0 note=62 velocity=127 time=0.013541666666666667\n",
      "note_off channel=0 note=62 velocity=127 time=0.019791666666666666\n",
      "note_on channel=0 note=60 velocity=127 time=0.013541666666666667\n",
      "note_off channel=0 note=60 velocity=127 time=0.019791666666666666\n",
      "note_on channel=0 note=60 velocity=127 time=0.046875\n",
      "note_off channel=0 note=60 velocity=127 time=0.019791666666666666\n",
      "note_on channel=0 note=61 velocity=127 time=0.03229166666666666\n",
      "note_on channel=0 note=60 velocity=127 time=0.014583333333333334\n",
      "note_off channel=0 note=61 velocity=127 time=0.005208333333333333\n",
      "note_off channel=0 note=60 velocity=127 time=0.014583333333333334\n",
      "note_on channel=0 note=60 velocity=127 time=0.046875\n",
      "note_on channel=0 note=62 velocity=127 time=0.014583333333333334\n",
      "note_off channel=0 note=60 velocity=127 time=0.005208333333333333\n",
      "note_off channel=0 note=62 velocity=127 time=0.014583333333333334\n",
      "note_on channel=0 note=60 velocity=127 time=0.03229166666666666\n",
      "note_off channel=0 note=60 velocity=127 time=0.019791666666666666\n",
      "note_on channel=0 note=60 velocity=127 time=0.046875\n",
      "\u001b[91m [DEBUG] > \u001b[0m\n",
      " |>  to_array: msg.time > max_t; t, n\n",
      " |>  2.99166666666667\n",
      " |>  150\n",
      "note_on channel=0 note=62 velocity=127 time=0.065625\n",
      "note_on channel=0 note=60 velocity=127 time=0.009375\n",
      "note_off channel=0 note=62 velocity=127 time=0.010416666666666666\n",
      "note_off channel=0 note=60 velocity=127 time=0.009375\n",
      "note_on channel=0 note=61 velocity=127 time=0.08958333333333333\n",
      "note_off channel=0 note=61 velocity=127 time=0.019791666666666666\n",
      "note_on channel=0 note=62 velocity=127 time=0.0010416666666666667\n",
      "note_on channel=0 note=60 velocity=127 time=0.017708333333333333\n",
      "note_off channel=0 note=62 velocity=127 time=0.0020833333333333333\n",
      "note_off channel=0 note=60 velocity=127 time=0.017708333333333333\n",
      "note_on channel=0 note=62 velocity=127 time=0.10208333333333333\n",
      "note_off channel=0 note=62 velocity=127 time=0.019791666666666666\n",
      "note_on channel=0 note=60 velocity=127 time=0.00625\n",
      "note_off channel=0 note=60 velocity=127 time=0.019791666666666666\n",
      "note_on channel=0 note=61 velocity=127 time=0.08854166666666667\n",
      "note_on channel=0 note=62 velocity=127 time=0.005208333333333333\n",
      "note_off channel=0 note=61 velocity=127 time=0.014583333333333334\n",
      "note_off channel=0 note=62 velocity=127 time=0.005208333333333333\n",
      "note_on channel=0 note=60 velocity=127 time=0.015625\n",
      "note_off channel=0 note=60 velocity=127 time=0.019791666666666666\n",
      "note_on channel=0 note=62 velocity=127 time=0.08541666666666667\n",
      "note_off channel=0 note=62 velocity=127 time=0.019791666666666666\n",
      "note_on channel=0 note=60 velocity=127 time=0.02395833333333333\n",
      "note_off channel=0 note=60 velocity=127 time=0.019791666666666666\n",
      "note_on channel=0 note=62 velocity=127 time=0.07604166666666666\n",
      "note_on channel=0 note=61 velocity=127 time=0.011458333333333333\n",
      "note_off channel=0 note=62 velocity=127 time=0.008333333333333333\n",
      "note_off channel=0 note=61 velocity=127 time=0.011458333333333333\n",
      "note_on channel=0 note=60 velocity=127 time=0.020833333333333332\n",
      "note_off channel=0 note=60 velocity=127 time=0.019791666666666666\n",
      "note_on channel=0 note=62 velocity=127 time=0.06770833333333333\n",
      "note_off channel=0 note=62 velocity=127 time=0.019791666666666666\n",
      "note_on channel=0 note=60 velocity=127 time=0.041666666666666664\n",
      "note_off channel=0 note=60 velocity=127 time=0.019791666666666666\n",
      "note_on channel=0 note=62 velocity=127 time=0.059375\n",
      "note_off channel=0 note=62 velocity=127 time=0.019791666666666666\n",
      "note_on channel=0 note=61 velocity=127 time=0.007291666666666667\n",
      "note_off channel=0 note=61 velocity=127 time=0.019791666666666666\n",
      "note_on channel=0 note=60 velocity=127 time=0.021875\n",
      "note_off channel=0 note=60 velocity=127 time=0.019791666666666666\n",
      "note_on channel=0 note=62 velocity=127 time=0.05\n",
      "note_off channel=0 note=62 velocity=127 time=0.019791666666666666\n",
      "note_on channel=0 note=60 velocity=127 time=0.058333333333333334\n",
      "note_off channel=0 note=60 velocity=127 time=0.019791666666666666\n",
      "note_on channel=0 note=62 velocity=127 time=0.041666666666666664\n",
      "note_off channel=0 note=62 velocity=127 time=0.019791666666666666\n",
      "note_on channel=0 note=61 velocity=127 time=0.02395833333333333\n",
      "note_off channel=0 note=61 velocity=127 time=0.019791666666666666\n",
      "note_on channel=0 note=60 velocity=127 time=0.022916666666666665\n",
      "note_off channel=0 note=60 velocity=127 time=0.019791666666666666\n",
      "note_on channel=0 note=62 velocity=127 time=0.03333333333333333\n",
      "note_off channel=0 note=62 velocity=127 time=0.019791666666666666\n",
      "note_on channel=0 note=60 velocity=127 time=0.07604166666666666\n",
      "note_off channel=0 note=60 velocity=127 time=0.019791666666666666\n",
      "note_on channel=0 note=62 velocity=127 time=0.025\n",
      "note_off channel=0 note=62 velocity=127 time=0.019791666666666666\n",
      "note_on channel=0 note=61 velocity=127 time=0.03958333333333333\n",
      "note_off channel=0 note=61 velocity=127 time=0.019791666666666666\n",
      "note_on channel=0 note=60 velocity=127 time=0.02395833333333333\n",
      "note_off channel=0 note=60 velocity=127 time=0.019791666666666666\n",
      "note_on channel=0 note=62 velocity=127 time=0.015625\n",
      "note_off channel=0 note=62 velocity=127 time=0.019791666666666666\n",
      "note_on channel=0 note=60 velocity=127 time=0.09270833333333334\n",
      "note_off channel=0 note=60 velocity=127 time=0.019791666666666666\n",
      "note_on channel=0 note=62 velocity=127 time=0.007291666666666667\n",
      "note_off channel=0 note=62 velocity=127 time=0.019791666666666666\n",
      "note_on channel=0 note=61 velocity=127 time=0.05625\n",
      "note_off channel=0 note=61 velocity=127 time=0.019791666666666666\n",
      "note_on channel=0 note=60 velocity=127 time=0.025\n",
      "note_on channel=0 note=62 velocity=127 time=0.01875\n",
      "note_off channel=0 note=60 velocity=127 time=0.0010416666666666667\n",
      "note_off channel=0 note=62 velocity=127 time=0.01875\n",
      "note_on channel=0 note=60 velocity=127 time=0.11041666666666666\n",
      "note_on channel=0 note=62 velocity=127 time=0.010416666666666666\n",
      "note_off channel=0 note=60 velocity=127 time=0.010416666666666666\n",
      "note_off channel=0 note=62 velocity=127 time=0.010416666666666666\n",
      "note_on channel=0 note=61 velocity=127 time=0.07291666666666667\n",
      "note_off channel=0 note=61 velocity=127 time=0.019791666666666666\n",
      "note_on channel=0 note=60 velocity=127 time=0.026041666666666668\n",
      "note_on channel=0 note=62 velocity=127 time=0.0010416666666666667\n",
      "note_off channel=0 note=60 velocity=127 time=0.01875\n",
      "note_off channel=0 note=62 velocity=127 time=0.0010416666666666667\n",
      "note_on channel=0 note=62 velocity=127 time=0.11979166666666667\n",
      "note_on channel=0 note=60 velocity=127 time=0.007291666666666667\n",
      "note_off channel=0 note=62 velocity=127 time=0.0125\n",
      "note_off channel=0 note=60 velocity=127 time=0.007291666666666667\n",
      "note_on channel=0 note=61 velocity=127 time=0.08125\n",
      "note_off channel=0 note=61 velocity=127 time=0.019791666666666666\n",
      "note_on channel=0 note=62 velocity=127 time=0.011458333333333333\n",
      "note_on channel=0 note=60 velocity=127 time=0.015625\n",
      "note_off channel=0 note=62 velocity=127 time=0.004166666666666667\n",
      "note_off channel=0 note=60 velocity=127 time=0.015625\n",
      "note_on channel=0 note=62 velocity=127 time=0.10416666666666667\n",
      "note_off channel=0 note=62 velocity=127 time=0.019791666666666666\n",
      "note_on channel=0 note=60 velocity=127 time=0.004166666666666667\n",
      "note_off channel=0 note=60 velocity=127 time=0.019791666666666666\n",
      "note_on channel=0 note=61 velocity=127 time=0.08020833333333333\n",
      "note_on channel=0 note=62 velocity=127 time=0.015625\n",
      "note_off channel=0 note=61 velocity=127 time=0.005208333333333333\n",
      "note_off channel=0 note=62 velocity=127 time=0.015625\n",
      "note_on channel=0 note=60 velocity=127 time=0.013541666666666667\n",
      "note_off channel=0 note=60 velocity=127 time=0.019791666666666666\n",
      "note_on channel=0 note=62 velocity=127 time=0.0875\n",
      "\u001b[91m [DEBUG] > \u001b[0m\n",
      " |>  to_array: msg.time > max_t; t, n\n",
      " |>  3.0020833333333328\n",
      " |>  150\n",
      "note_on channel=0 note=62 velocity=127 time=0.008333333333333333\n",
      "note_on channel=0 note=60 velocity=127 time=0.013541666666666667\n",
      "note_off channel=0 note=62 velocity=127 time=0.00625\n",
      "note_off channel=0 note=60 velocity=127 time=0.013541666666666667\n",
      "note_on channel=0 note=61 velocity=127 time=0.003125\n",
      "note_off channel=0 note=61 velocity=127 time=0.019791666666666666\n",
      "note_on channel=0 note=60 velocity=127 time=0.025\n",
      "note_on channel=0 note=62 velocity=127 time=0.0010416666666666667\n",
      "note_off channel=0 note=60 velocity=127 time=0.01875\n",
      "note_off channel=0 note=62 velocity=127 time=0.0010416666666666667\n",
      "note_on channel=0 note=61 velocity=127 time=0.004166666666666667\n",
      "note_off channel=0 note=61 velocity=127 time=0.019791666666666666\n",
      "note_on channel=0 note=60 velocity=127 time=0.022916666666666665\n",
      "note_on channel=0 note=62 velocity=127 time=0.015625\n"
     ]
    },
    {
     "name": "stdout",
     "output_type": "stream",
     "text": [
      "note_off channel=0 note=60 velocity=127 time=0.004166666666666667\n",
      "note_on channel=0 note=61 velocity=127 time=0.007291666666666667\n",
      "note_off channel=0 note=62 velocity=127 time=0.008333333333333333\n",
      "note_off channel=0 note=61 velocity=127 time=0.011458333333333333\n",
      "note_on channel=0 note=60 velocity=127 time=0.020833333333333332\n",
      "note_off channel=0 note=60 velocity=127 time=0.019791666666666666\n",
      "note_on channel=0 note=61 velocity=127 time=0.009375\n",
      "note_on channel=0 note=62 velocity=127 time=0.0020833333333333333\n",
      "note_off channel=0 note=61 velocity=127 time=0.01875\n",
      "note_off channel=0 note=62 velocity=127 time=0.0020833333333333333\n",
      "note_on channel=0 note=60 velocity=127 time=0.016666666666666666\n",
      "note_off channel=0 note=60 velocity=127 time=0.019791666666666666\n",
      "note_on channel=0 note=61 velocity=127 time=0.011458333333333333\n",
      "note_on channel=0 note=62 velocity=127 time=0.014583333333333334\n",
      "note_off channel=0 note=61 velocity=127 time=0.005208333333333333\n",
      "note_off channel=0 note=62 velocity=127 time=0.014583333333333334\n",
      "note_on channel=0 note=60 velocity=127 time=0.0020833333333333333\n",
      "note_off channel=0 note=60 velocity=127 time=0.019791666666666666\n",
      "note_on channel=0 note=61 velocity=127 time=0.013541666666666667\n",
      "note_off channel=0 note=61 velocity=127 time=0.019791666666666666\n",
      "note_on channel=0 note=62 velocity=127 time=0.007291666666666667\n",
      "note_on channel=0 note=60 velocity=127 time=0.007291666666666667\n",
      "note_off channel=0 note=62 velocity=127 time=0.0125\n",
      "note_off channel=0 note=60 velocity=127 time=0.007291666666666667\n",
      "note_on channel=0 note=61 velocity=127 time=0.015625\n",
      "note_off channel=0 note=61 velocity=127 time=0.019791666666666666\n",
      "note_on channel=0 note=60 velocity=127 time=0.0125\n",
      "note_on channel=0 note=62 velocity=127 time=0.007291666666666667\n",
      "note_off channel=0 note=60 velocity=127 time=0.0125\n",
      "note_off channel=0 note=62 velocity=127 time=0.007291666666666667\n",
      "note_on channel=0 note=61 velocity=127 time=0.009375\n",
      "note_off channel=0 note=61 velocity=127 time=0.019791666666666666\n",
      "note_on channel=0 note=60 velocity=127 time=0.010416666666666666\n",
      "note_off channel=0 note=60 velocity=127 time=0.019791666666666666\n",
      "note_on channel=0 note=62 velocity=127 time=0.003125\n",
      "note_on channel=0 note=61 velocity=127 time=0.016666666666666666\n",
      "note_off channel=0 note=62 velocity=127 time=0.003125\n",
      "note_off channel=0 note=61 velocity=127 time=0.016666666666666666\n",
      "note_on channel=0 note=60 velocity=127 time=0.008333333333333333\n",
      "note_off channel=0 note=60 velocity=127 time=0.019791666666666666\n",
      "note_on channel=0 note=62 velocity=127 time=0.017708333333333333\n",
      "note_on channel=0 note=61 velocity=127 time=0.003125\n",
      "note_off channel=0 note=62 velocity=127 time=0.016666666666666666\n",
      "note_off channel=0 note=61 velocity=127 time=0.003125\n",
      "note_on channel=0 note=60 velocity=127 time=0.007291666666666667\n",
      "note_off channel=0 note=60 velocity=127 time=0.019791666666666666\n",
      "note_on channel=0 note=61 velocity=127 time=0.022916666666666665\n",
      "note_on channel=0 note=62 velocity=127 time=0.009375\n",
      "note_off channel=0 note=61 velocity=127 time=0.010416666666666666\n",
      "note_on channel=0 note=60 velocity=127 time=0.005208333333333333\n",
      "note_off channel=0 note=62 velocity=127 time=0.004166666666666667\n",
      "note_off channel=0 note=60 velocity=127 time=0.015625\n",
      "note_on channel=0 note=61 velocity=127 time=0.025\n",
      "note_off channel=0 note=61 velocity=127 time=0.019791666666666666\n",
      "note_on channel=0 note=62 velocity=127 time=0.0020833333333333333\n",
      "note_on channel=0 note=60 velocity=127 time=0.0010416666666666667\n",
      "note_off channel=0 note=62 velocity=127 time=0.019791666666666666\n",
      "note_off channel=0 note=60 velocity=127 time=0.0010416666666666667\n",
      "note_on channel=0 note=61 velocity=127 time=0.027083333333333334\n",
      "note_off channel=0 note=61 velocity=127 time=0.019791666666666666\n",
      "note_on channel=0 note=60 velocity=127 time=0.0010416666666666667\n",
      "note_on channel=0 note=62 velocity=127 time=0.014583333333333334\n",
      "note_off channel=0 note=60 velocity=127 time=0.005208333333333333\n",
      "note_off channel=0 note=62 velocity=127 time=0.014583333333333334\n",
      "note_on channel=0 note=61 velocity=127 time=0.014583333333333334\n",
      "note_on channel=0 note=60 velocity=127 time=0.01875\n",
      "note_off channel=0 note=61 velocity=127 time=0.0010416666666666667\n",
      "note_off channel=0 note=60 velocity=127 time=0.01875\n",
      "note_on channel=0 note=62 velocity=127 time=0.009375\n",
      "note_off channel=0 note=62 velocity=127 time=0.019791666666666666\n",
      "note_on channel=0 note=61 velocity=127 time=0.0020833333333333333\n",
      "note_on channel=0 note=60 velocity=127 time=0.016666666666666666\n",
      "note_off channel=0 note=61 velocity=127 time=0.003125\n",
      "note_off channel=0 note=60 velocity=127 time=0.016666666666666666\n",
      "note_on channel=0 note=62 velocity=127 time=0.02395833333333333\n",
      "note_on channel=0 note=61 velocity=127 time=0.008333333333333333\n",
      "note_off channel=0 note=62 velocity=127 time=0.011458333333333333\n",
      "note_on channel=0 note=60 velocity=127 time=0.004166666666666667\n",
      "note_off channel=0 note=61 velocity=127 time=0.005208333333333333\n",
      "note_off channel=0 note=60 velocity=127 time=0.014583333333333334\n",
      "note_on channel=0 note=61 velocity=127 time=0.034375\n",
      "note_on channel=0 note=62 velocity=127 time=0.004166666666666667\n",
      "note_on channel=0 note=60 velocity=127 time=0.009375\n",
      "note_off channel=0 note=61 velocity=127 time=0.007291666666666667\n",
      "note_off channel=0 note=62 velocity=127 time=0.004166666666666667\n",
      "note_off channel=0 note=60 velocity=127 time=0.009375\n",
      "note_on channel=0 note=61 velocity=127 time=0.036458333333333336\n",
      "note_on channel=0 note=60 velocity=127 time=0.011458333333333333\n",
      "note_on channel=0 note=62 velocity=127 time=0.00625\n",
      "note_off channel=0 note=61 velocity=127 time=0.003125\n",
      "note_off channel=0 note=60 velocity=127 time=0.011458333333333333\n",
      "note_off channel=0 note=62 velocity=127 time=0.00625\n",
      "note_on channel=0 note=61 velocity=127 time=0.03333333333333333\n",
      "note_on channel=0 note=60 velocity=127 time=0.009375\n",
      "note_off channel=0 note=61 velocity=127 time=0.010416666666666666\n",
      "note_off channel=0 note=60 velocity=127 time=0.009375\n",
      "note_on channel=0 note=62 velocity=127 time=0.0010416666666666667\n",
      "note_off channel=0 note=62 velocity=127 time=0.019791666666666666\n",
      "note_on channel=0 note=61 velocity=127 time=0.019791666666666666\n",
      "note_on channel=0 note=60 velocity=127 time=0.007291666666666667\n",
      "note_off channel=0 note=61 velocity=127 time=0.0125\n",
      "note_off channel=0 note=60 velocity=127 time=0.007291666666666667\n",
      "note_on channel=0 note=62 velocity=127 time=0.015625\n",
      "note_off channel=0 note=62 velocity=127 time=0.019791666666666666\n",
      "note_on channel=0 note=61 velocity=127 time=0.007291666666666667\n",
      "note_on channel=0 note=60 velocity=127 time=0.005208333333333333\n",
      "note_off channel=0 note=61 velocity=127 time=0.014583333333333334\n",
      "note_off channel=0 note=60 velocity=127 time=0.005208333333333333\n",
      "note_on channel=0 note=62 velocity=127 time=0.030208333333333334\n",
      "note_on channel=0 note=61 velocity=127 time=0.013541666666666667\n",
      "note_on channel=0 note=60 velocity=127 time=0.003125\n",
      "note_off channel=0 note=62 velocity=127 time=0.003125\n",
      "note_off channel=0 note=61 velocity=127 time=0.013541666666666667\n",
      "note_off channel=0 note=60 velocity=127 time=0.003125\n",
      "note_on channel=0 note=62 velocity=127 time=0.04583333333333333\n",
      "note_on channel=0 note=61 velocity=127 time=0.0010416666666666667\n",
      "note_on channel=0 note=60 velocity=127 time=0.0010416666666666667\n",
      "note_off channel=0 note=62 velocity=127 time=0.017708333333333333\n",
      "note_off channel=0 note=61 velocity=127 time=0.0010416666666666667\n",
      "note_off channel=0 note=60 velocity=127 time=0.0010416666666666667\n",
      "note_on channel=0 note=60 velocity=127 time=0.04791666666666666\n",
      "note_on channel=0 note=61 velocity=127 time=0.0010416666666666667\n",
      "note_on channel=0 note=62 velocity=127 time=0.011458333333333333\n",
      "note_off channel=0 note=60 velocity=127 time=0.007291666666666667\n",
      "note_off channel=0 note=61 velocity=127 time=0.0010416666666666667\n",
      "note_off channel=0 note=62 velocity=127 time=0.011458333333333333\n",
      "note_on channel=0 note=60 velocity=127 time=0.035416666666666666\n",
      "note_on channel=0 note=61 velocity=127 time=0.003125\n",
      "note_off channel=0 note=60 velocity=127 time=0.017708333333333333\n",
      "note_off channel=0 note=61 velocity=127 time=0.003125\n",
      "note_on channel=0 note=62 velocity=127 time=0.005208333333333333\n",
      "note_off channel=0 note=62 velocity=127 time=0.019791666666666666\n",
      "note_on channel=0 note=60 velocity=127 time=0.020833333333333332\n",
      "note_on channel=0 note=61 velocity=127 time=0.004166666666666667\n",
      "note_off channel=0 note=60 velocity=127 time=0.015625\n",
      "note_off channel=0 note=61 velocity=127 time=0.004166666666666667\n",
      "note_on channel=0 note=62 velocity=127 time=0.017708333333333333\n",
      "note_off channel=0 note=62 velocity=127 time=0.019791666666666666\n",
      "note_on channel=0 note=60 velocity=127 time=0.005208333333333333\n",
      "note_on channel=0 note=61 velocity=127 time=0.00625\n",
      "note_off channel=0 note=60 velocity=127 time=0.013541666666666667\n",
      "note_off channel=0 note=61 velocity=127 time=0.00625\n",
      "note_on channel=0 note=62 velocity=127 time=0.030208333333333334\n",
      "note_on channel=0 note=60 velocity=127 time=0.010416666666666666\n",
      "note_on channel=0 note=61 velocity=127 time=0.008333333333333333\n",
      "note_off channel=0 note=62 velocity=127 time=0.0010416666666666667\n",
      "note_off channel=0 note=60 velocity=127 time=0.010416666666666666\n",
      "note_off channel=0 note=61 velocity=127 time=0.008333333333333333\n",
      "note_on channel=0 note=60 velocity=127 time=0.03958333333333333\n",
      "note_on channel=0 note=62 velocity=127 time=0.004166666666666667\n",
      "note_on channel=0 note=61 velocity=127 time=0.00625\n",
      "note_off channel=0 note=60 velocity=127 time=0.009375\n",
      "note_off channel=0 note=62 velocity=127 time=0.004166666666666667\n",
      "note_off channel=0 note=61 velocity=127 time=0.00625\n",
      "note_on channel=0 note=60 velocity=127 time=0.0375\n",
      "note_on channel=0 note=61 velocity=127 time=0.0125\n",
      "note_on channel=0 note=62 velocity=127 time=0.00625\n",
      "note_off channel=0 note=60 velocity=127 time=0.0010416666666666667\n",
      "note_off channel=0 note=61 velocity=127 time=0.0125\n",
      "note_off channel=0 note=62 velocity=127 time=0.00625\n",
      "note_on channel=0 note=60 velocity=127 time=0.029166666666666667\n",
      "note_on channel=0 note=61 velocity=127 time=0.014583333333333334\n",
      "note_off channel=0 note=60 velocity=127 time=0.005208333333333333\n",
      "note_on channel=0 note=62 velocity=127 time=0.014583333333333334\n",
      "note_off channel=0 note=61 velocity=127 time=0\n",
      "note_off channel=0 note=62 velocity=127 time=0.019791666666666666\n",
      "note_on channel=0 note=60 velocity=127 time=0.013541666666666667\n",
      "note_on channel=0 note=61 velocity=127 time=0.016666666666666666\n",
      "note_off channel=0 note=60 velocity=127 time=0.003125\n",
      "note_off channel=0 note=61 velocity=127 time=0.016666666666666666\n",
      "note_on channel=0 note=62 velocity=127 time=0.0125\n",
      "note_on channel=0 note=60 velocity=127 time=0.01875\n",
      "note_off channel=0 note=62 velocity=127 time=0.0010416666666666667\n",
      "note_on channel=0 note=61 velocity=127 time=0.017708333333333333\n",
      "note_off channel=0 note=60 velocity=127 time=0.0020833333333333333\n",
      "note_off channel=0 note=61 velocity=127 time=0.01875\n",
      "note_on channel=0 note=62 velocity=127 time=0.025\n",
      "note_on channel=0 note=60 velocity=127 time=0.004166666666666667\n",
      "note_off channel=0 note=62 velocity=127 time=0.015625\n",
      "note_off channel=0 note=60 velocity=127 time=0.004166666666666667\n",
      "note_on channel=0 note=61 velocity=127 time=0\n",
      "note_off channel=0 note=61 velocity=127 time=0.019791666666666666\n",
      "note_on channel=0 note=60 velocity=127 time=0.027083333333333334\n",
      "note_on channel=0 note=62 velocity=127 time=0.010416666666666666\n",
      "note_off channel=0 note=60 velocity=127 time=0.009375\n",
      "note_on channel=0 note=61 velocity=127 time=0.0020833333333333333\n",
      "note_off channel=0 note=62 velocity=127 time=0.008333333333333333\n",
      "note_off channel=0 note=61 velocity=127 time=0.011458333333333333\n",
      "note_on channel=0 note=60 velocity=127 time=0.026041666666666668\n",
      "note_off channel=0 note=60 velocity=127 time=0.019791666666666666\n",
      "note_on channel=0 note=61 velocity=127 time=0.004166666666666667\n",
      "note_on channel=0 note=62 velocity=127 time=0.0010416666666666667\n",
      "note_off channel=0 note=61 velocity=127 time=0.01875\n",
      "note_off channel=0 note=62 velocity=127 time=0.0010416666666666667\n",
      "note_on channel=0 note=60 velocity=127 time=0.021875\n",
      "note_off channel=0 note=60 velocity=127 time=0.019791666666666666\n",
      "note_on channel=0 note=61 velocity=127 time=0.00625\n",
      "note_on channel=0 note=62 velocity=127 time=0.014583333333333334\n",
      "note_off channel=0 note=61 velocity=127 time=0.005208333333333333\n",
      "note_off channel=0 note=62 velocity=127 time=0.014583333333333334\n",
      "note_on channel=0 note=60 velocity=127 time=0.007291666666666667\n",
      "note_off channel=0 note=60 velocity=127 time=0.019791666666666666\n",
      "note_on channel=0 note=61 velocity=127 time=0.008333333333333333\n",
      "note_off channel=0 note=61 velocity=127 time=0.019791666666666666\n",
      "note_on channel=0 note=62 velocity=127 time=0.007291666666666667\n",
      "note_on channel=0 note=60 velocity=127 time=0.0125\n",
      "note_off channel=0 note=62 velocity=127 time=0.007291666666666667\n",
      "note_off channel=0 note=60 velocity=127 time=0.0125\n",
      "note_on channel=0 note=61 velocity=127 time=0.010416666666666666\n",
      "note_off channel=0 note=61 velocity=127 time=0.019791666666666666\n",
      "note_on channel=0 note=60 velocity=127 time=0.017708333333333333\n",
      "note_on channel=0 note=62 velocity=127 time=0.0020833333333333333\n",
      "note_off channel=0 note=60 velocity=127 time=0.017708333333333333\n",
      "note_off channel=0 note=62 velocity=127 time=0.0020833333333333333\n",
      "note_on channel=0 note=61 velocity=127 time=0.009375\n",
      "note_off channel=0 note=61 velocity=127 time=0.019791666666666666\n",
      "note_on channel=0 note=60 velocity=127 time=0.015625\n",
      "note_on channel=0 note=62 velocity=127 time=0.017708333333333333\n",
      "note_off channel=0 note=60 velocity=127 time=0.0020833333333333333\n",
      "note_on channel=0 note=61 velocity=127 time=0.014583333333333334\n",
      "note_off channel=0 note=62 velocity=127 time=0.003125\n",
      "note_off channel=0 note=61 velocity=127 time=0.016666666666666666\n",
      "note_on channel=0 note=60 velocity=127 time=0.013541666666666667\n",
      "note_off channel=0 note=60 velocity=127 time=0.019791666666666666\n",
      "note_on channel=0 note=62 velocity=127 time=0.0125\n",
      "note_on channel=0 note=61 velocity=127 time=0.004166666666666667\n",
      "note_off channel=0 note=62 velocity=127 time=0.016666666666666666\n",
      "note_off channel=0 note=61 velocity=127 time=0.004166666666666667\n",
      "note_on channel=0 note=60 velocity=127 time=0.011458333333333333\n",
      "note_off channel=0 note=60 velocity=127 time=0.019791666666666666\n",
      "note_on channel=0 note=61 velocity=127 time=0.017708333333333333\n",
      "note_on channel=0 note=62 velocity=127 time=0.009375\n",
      "note_off channel=0 note=61 velocity=127 time=0.010416666666666666\n",
      "\u001b[91m [DEBUG] > \u001b[0m\n",
      " |>  to_array: msg.time > max_t; t, n\n",
      " |>  2.992708333333335\n",
      " |>  150\n",
      "note_on channel=0 note=60 velocity=127 time=0.04479166666666667\n",
      "note_on channel=0 note=61 velocity=127 time=0.007291666666666667\n",
      "note_on channel=0 note=62 velocity=127 time=0.003125\n",
      "note_off channel=0 note=60 velocity=127 time=0.009375\n",
      "note_off channel=0 note=61 velocity=127 time=0.007291666666666667\n",
      "note_off channel=0 note=62 velocity=127 time=0.003125\n",
      "note_on channel=0 note=60 velocity=127 time=0.06354166666666666\n",
      "note_on channel=0 note=61 velocity=127 time=0.003125\n",
      "note_off channel=0 note=60 velocity=127 time=0.016666666666666666\n",
      "note_off channel=0 note=61 velocity=127 time=0.003125\n",
      "note_on channel=0 note=62 velocity=127 time=0.06458333333333333\n",
      "note_on channel=0 note=60 velocity=127 time=0.005208333333333333\n",
      "note_on channel=0 note=61 velocity=127 time=0\n",
      "note_off channel=0 note=62 velocity=127 time=0.014583333333333334\n",
      "note_off channel=0 note=60 velocity=127 time=0.005208333333333333\n",
      "note_off channel=0 note=61 velocity=127 time=0\n",
      "note_on channel=0 note=61 velocity=127 time=0.07083333333333333\n",
      "note_on channel=0 note=60 velocity=127 time=0.003125\n",
      "note_off channel=0 note=61 velocity=127 time=0.016666666666666666\n",
      "note_off channel=0 note=60 velocity=127 time=0.003125\n",
      "note_on channel=0 note=62 velocity=127 time=0.053125\n",
      "note_on channel=0 note=61 velocity=127 time=0.014583333333333334\n",
      "note_off channel=0 note=62 velocity=127 time=0.005208333333333333\n",
      "note_on channel=0 note=60 velocity=127 time=0.0010416666666666667\n",
      "note_off channel=0 note=61 velocity=127 time=0.013541666666666667\n",
      "note_off channel=0 note=60 velocity=127 time=0.007291666666666667\n",
      "note_on channel=0 note=61 velocity=127 time=0.06354166666666666\n",
      "note_on channel=0 note=60 velocity=127 time=0.010416666666666666\n",
      "note_off channel=0 note=61 velocity=127 time=0.009375\n",
      "note_off channel=0 note=60 velocity=127 time=0.010416666666666666\n",
      "note_on channel=0 note=62 velocity=127 time=0.036458333333333336\n",
      "note_off channel=0 note=62 velocity=127 time=0.019791666666666666\n",
      "note_on channel=0 note=61 velocity=127 time=0.003125\n",
      "note_on channel=0 note=60 velocity=127 time=0.013541666666666667\n",
      "note_off channel=0 note=61 velocity=127 time=0.00625\n",
      "note_off channel=0 note=60 velocity=127 time=0.013541666666666667\n",
      "note_on channel=0 note=61 velocity=127 time=0.057291666666666664\n",
      "note_on channel=0 note=60 velocity=127 time=0.016666666666666666\n",
      "note_off channel=0 note=61 velocity=127 time=0.003125\n",
      "note_off channel=0 note=60 velocity=127 time=0.016666666666666666\n",
      "note_on channel=0 note=62 velocity=127 time=0.020833333333333332\n",
      "note_off channel=0 note=62 velocity=127 time=0.019791666666666666\n",
      "note_on channel=0 note=61 velocity=127 time=0.0125\n",
      "note_off channel=0 note=61 velocity=127 time=0.019791666666666666\n",
      "note_on channel=0 note=60 velocity=127 time=0.0010416666666666667\n",
      "note_off channel=0 note=60 velocity=127 time=0.019791666666666666\n",
      "note_on channel=0 note=61 velocity=127 time=0.05\n",
      "note_off channel=0 note=61 velocity=127 time=0.019791666666666666\n",
      "note_on channel=0 note=60 velocity=127 time=0.004166666666666667\n",
      "note_off channel=0 note=60 velocity=127 time=0.019791666666666666\n",
      "note_on channel=0 note=62 velocity=127 time=0.005208333333333333\n",
      "note_off channel=0 note=62 velocity=127 time=0.019791666666666666\n",
      "note_on channel=0 note=61 velocity=127 time=0.021875\n",
      "note_off channel=0 note=61 velocity=127 time=0.019791666666666666\n",
      "note_on channel=0 note=60 velocity=127 time=0.007291666666666667\n",
      "note_off channel=0 note=60 velocity=127 time=0.019791666666666666\n",
      "note_on channel=0 note=61 velocity=127 time=0.042708333333333334\n",
      "note_off channel=0 note=61 velocity=127 time=0.019791666666666666\n",
      "note_on channel=0 note=60 velocity=127 time=0.011458333333333333\n",
      "note_on channel=0 note=62 velocity=127 time=0.009375\n",
      "note_off channel=0 note=60 velocity=127 time=0.010416666666666666\n",
      "note_off channel=0 note=62 velocity=127 time=0.009375\n",
      "note_on channel=0 note=61 velocity=127 time=0.030208333333333334\n",
      "note_off channel=0 note=61 velocity=127 time=0.019791666666666666\n",
      "note_on channel=0 note=60 velocity=127 time=0.014583333333333334\n",
      "note_off channel=0 note=60 velocity=127 time=0.019791666666666666\n",
      "note_on channel=0 note=61 velocity=127 time=0.036458333333333336\n",
      "note_off channel=0 note=61 velocity=127 time=0.019791666666666666\n",
      "note_on channel=0 note=62 velocity=127 time=0.011458333333333333\n",
      "note_on channel=0 note=60 velocity=127 time=0.00625\n",
      "note_off channel=0 note=62 velocity=127 time=0.013541666666666667\n",
      "note_off channel=0 note=60 velocity=127 time=0.00625\n",
      "note_on channel=0 note=61 velocity=127 time=0.03333333333333333\n",
      "note_off channel=0 note=61 velocity=127 time=0.019791666666666666\n",
      "note_on channel=0 note=60 velocity=127 time=0.020833333333333332\n",
      "note_off channel=0 note=60 velocity=127 time=0.019791666666666666\n",
      "note_on channel=0 note=61 velocity=127 time=0.029166666666666667\n",
      "note_off channel=0 note=61 velocity=127 time=0.019791666666666666\n",
      "note_on channel=0 note=62 velocity=127 time=0.0020833333333333333\n",
      "note_off channel=0 note=62 velocity=127 time=0.019791666666666666\n",
      "note_on channel=0 note=60 velocity=127 time=0.0020833333333333333\n",
      "note_off channel=0 note=60 velocity=127 time=0.019791666666666666\n",
      "note_on channel=0 note=61 velocity=127 time=0.026041666666666668\n",
      "note_off channel=0 note=61 velocity=127 time=0.019791666666666666\n",
      "note_on channel=0 note=60 velocity=127 time=0.028125\n",
      "note_off channel=0 note=60 velocity=127 time=0.019791666666666666\n",
      "note_on channel=0 note=61 velocity=127 time=0.022916666666666665\n",
      "note_on channel=0 note=62 velocity=127 time=0.013541666666666667\n",
      "note_off channel=0 note=61 velocity=127 time=0.00625\n",
      "note_off channel=0 note=62 velocity=127 time=0.013541666666666667\n",
      "note_on channel=0 note=60 velocity=127 time=0.017708333333333333\n",
      "note_off channel=0 note=60 velocity=127 time=0.019791666666666666\n",
      "note_on channel=0 note=61 velocity=127 time=0.01875\n",
      "note_off channel=0 note=61 velocity=127 time=0.019791666666666666\n",
      "note_on channel=0 note=60 velocity=127 time=0.035416666666666666\n",
      "note_off channel=0 note=60 velocity=127 time=0.019791666666666666\n",
      "note_on channel=0 note=61 velocity=127 time=0.015625\n",
      "note_on channel=0 note=62 velocity=127 time=0.004166666666666667\n",
      "note_off channel=0 note=61 velocity=127 time=0.015625\n",
      "note_off channel=0 note=62 velocity=127 time=0.004166666666666667\n",
      "note_on channel=0 note=60 velocity=127 time=0.034375\n",
      "note_off channel=0 note=60 velocity=127 time=0.019791666666666666\n",
      "note_on channel=0 note=61 velocity=127 time=0.0125\n",
      "note_off channel=0 note=61 velocity=127 time=0.019791666666666666\n",
      "note_on channel=0 note=60 velocity=127 time=0.041666666666666664\n",
      "note_off channel=0 note=60 velocity=127 time=0.019791666666666666\n",
      "note_on channel=0 note=62 velocity=127 time=0.004166666666666667\n",
      "note_on channel=0 note=61 velocity=127 time=0.004166666666666667\n",
      "note_off channel=0 note=62 velocity=127 time=0.015625\n",
      "note_off channel=0 note=61 velocity=127 time=0.004166666666666667\n",
      "note_on channel=0 note=60 velocity=127 time=0.04583333333333333\n",
      "note_off channel=0 note=60 velocity=127 time=0.019791666666666666\n",
      "note_on channel=0 note=61 velocity=127 time=0.005208333333333333\n",
      "note_off channel=0 note=61 velocity=127 time=0.019791666666666666\n",
      "note_on channel=0 note=60 velocity=127 time=0.04895833333333333\n",
      "note_on channel=0 note=62 velocity=127 time=0.008333333333333333\n",
      "note_off channel=0 note=60 velocity=127 time=0.011458333333333333\n",
      "note_on channel=0 note=61 velocity=127 time=0.0020833333333333333\n",
      "note_off channel=0 note=62 velocity=127 time=0.00625\n",
      "note_off channel=0 note=61 velocity=127 time=0.013541666666666667\n",
      "note_on channel=0 note=60 velocity=127 time=0.052083333333333336\n",
      "note_on channel=0 note=61 velocity=127 time=0.01875\n",
      "note_off channel=0 note=60 velocity=127 time=0.0020833333333333333\n",
      "note_off channel=0 note=61 velocity=127 time=0.01875\n",
      "note_on channel=0 note=62 velocity=127 time=0.04791666666666666\n",
      "note_on channel=0 note=60 velocity=127 time=0.007291666666666667\n",
      "note_off channel=0 note=62 velocity=127 time=0.0125\n",
      "note_on channel=0 note=61 velocity=127 time=0.0020833333333333333\n",
      "note_off channel=0 note=60 velocity=127 time=0.005208333333333333\n",
      "note_off channel=0 note=61 velocity=127 time=0.014583333333333334\n",
      "note_on channel=0 note=60 velocity=127 time=0.059375\n",
      "note_on channel=0 note=61 velocity=127 time=0.011458333333333333\n",
      "note_off channel=0 note=60 velocity=127 time=0.008333333333333333\n",
      "note_off channel=0 note=61 velocity=127 time=0.011458333333333333\n",
      "note_on channel=0 note=62 velocity=127 time=0.03958333333333333\n",
      "note_off channel=0 note=62 velocity=127 time=0.019791666666666666\n",
      "note_on channel=0 note=60 velocity=127 time=0.003125\n",
      "note_on channel=0 note=61 velocity=127 time=0.008333333333333333\n",
      "note_off channel=0 note=60 velocity=127 time=0.011458333333333333\n",
      "note_off channel=0 note=61 velocity=127 time=0.008333333333333333\n",
      "note_on channel=0 note=60 velocity=127 time=0.065625\n",
      "note_on channel=0 note=61 velocity=127 time=0.004166666666666667\n",
      "note_off channel=0 note=60 velocity=127 time=0.015625\n",
      "note_off channel=0 note=61 velocity=127 time=0.004166666666666667\n",
      "note_on channel=0 note=62 velocity=127 time=0.030208333333333334\n",
      "note_off channel=0 note=62 velocity=127 time=0.019791666666666666\n",
      "note_on channel=0 note=60 velocity=127 time=0.01875\n",
      "note_on channel=0 note=61 velocity=127 time=0.0010416666666666667\n",
      "note_off channel=0 note=60 velocity=127 time=0.01875\n",
      "note_off channel=0 note=61 velocity=127 time=0.0010416666666666667\n",
      "note_on channel=0 note=61 velocity=127 time=0.07083333333333333\n",
      "note_on channel=0 note=60 velocity=127 time=0.0020833333333333333\n",
      "note_off channel=0 note=61 velocity=127 time=0.017708333333333333\n",
      "note_off channel=0 note=60 velocity=127 time=0.0020833333333333333\n",
      "note_on channel=0 note=62 velocity=127 time=0.01875\n",
      "note_off channel=0 note=62 velocity=127 time=0.019791666666666666\n",
      "note_on channel=0 note=61 velocity=127 time=0.029166666666666667\n",
      "note_on channel=0 note=60 velocity=127 time=0.005208333333333333\n",
      "note_off channel=0 note=61 velocity=127 time=0.014583333333333334\n",
      "note_off channel=0 note=60 velocity=127 time=0.005208333333333333\n",
      "note_on channel=0 note=61 velocity=127 time=0.06458333333333333\n",
      "note_on channel=0 note=60 velocity=127 time=0.009375\n",
      "note_off channel=0 note=61 velocity=127 time=0.010416666666666666\n",
      "note_off channel=0 note=60 velocity=127 time=0.009375\n",
      "note_on channel=0 note=62 velocity=127 time=0.003125\n",
      "note_off channel=0 note=62 velocity=127 time=0.019791666666666666\n",
      "\u001b[91m [DEBUG] > \u001b[0m\n",
      " |>  to_array: msg.time > max_t; t, n\n",
      " |>  2.9906249999999996\n",
      " |>  150\n",
      "note_on channel=0 note=60 velocity=127 time=0.02395833333333333\n",
      "note_off channel=0 note=60 velocity=127 time=0.019791666666666666\n",
      "note_on channel=0 note=62 velocity=127 time=0.010416666666666666\n",
      "note_off channel=0 note=62 velocity=127 time=0.019791666666666666\n",
      "note_on channel=0 note=60 velocity=127 time=0.030208333333333334\n",
      "note_on channel=0 note=61 velocity=127 time=0.0020833333333333333\n",
      "note_off channel=0 note=60 velocity=127 time=0.017708333333333333\n",
      "note_off channel=0 note=61 velocity=127 time=0.0020833333333333333\n",
      "note_on channel=0 note=62 velocity=127 time=0.003125\n",
      "note_off channel=0 note=62 velocity=127 time=0.019791666666666666\n",
      "note_on channel=0 note=60 velocity=127 time=0.035416666666666666\n",
      "note_off channel=0 note=60 velocity=127 time=0.019791666666666666\n",
      "note_on channel=0 note=62 velocity=127 time=0.0010416666666666667\n",
      "note_off channel=0 note=62 velocity=127 time=0.019791666666666666\n",
      "note_on channel=0 note=61 velocity=127 time=0.017708333333333333\n",
      "note_off channel=0 note=61 velocity=127 time=0.019791666666666666\n",
      "note_on channel=0 note=60 velocity=127 time=0.0020833333333333333\n",
      "note_on channel=0 note=62 velocity=127 time=0.015625\n",
      "note_off channel=0 note=60 velocity=127 time=0.004166666666666667\n",
      "note_off channel=0 note=62 velocity=127 time=0.015625\n",
      "note_on channel=0 note=60 velocity=127 time=0.04479166666666667\n",
      "note_on channel=0 note=62 velocity=127 time=0.011458333333333333\n",
      "note_off channel=0 note=60 velocity=127 time=0.008333333333333333\n",
      "note_off channel=0 note=62 velocity=127 time=0.011458333333333333\n",
      "note_on channel=0 note=61 velocity=127 time=0.0020833333333333333\n",
      "note_off channel=0 note=61 velocity=127 time=0.019791666666666666\n",
      "note_on channel=0 note=60 velocity=127 time=0.027083333333333334\n",
      "note_on channel=0 note=62 velocity=127 time=0.00625\n",
      "note_off channel=0 note=60 velocity=127 time=0.013541666666666667\n",
      "note_off channel=0 note=62 velocity=127 time=0.00625\n",
      "note_on channel=0 note=60 velocity=127 time=0.05416666666666667\n",
      "note_on channel=0 note=62 velocity=127 time=0.0020833333333333333\n",
      "note_on channel=0 note=61 velocity=127 time=0.007291666666666667\n",
      "note_off channel=0 note=60 velocity=127 time=0.010416666666666666\n",
      "note_off channel=0 note=62 velocity=127 time=0.0020833333333333333\n",
      "note_off channel=0 note=61 velocity=127 time=0.007291666666666667\n",
      "note_on channel=0 note=62 velocity=127 time=0.04895833333333333\n",
      "note_on channel=0 note=60 velocity=127 time=0.003125\n",
      "note_off channel=0 note=62 velocity=127 time=0.017708333333333333\n",
      "note_off channel=0 note=60 velocity=127 time=0.003125\n",
      "note_on channel=0 note=61 velocity=127 time=0.04583333333333333\n",
      "note_on channel=0 note=62 velocity=127 time=0.008333333333333333\n",
      "note_on channel=0 note=60 velocity=127 time=0.007291666666666667\n",
      "note_off channel=0 note=61 velocity=127 time=0.004166666666666667\n",
      "note_off channel=0 note=62 velocity=127 time=0.008333333333333333\n",
      "note_off channel=0 note=60 velocity=127 time=0.007291666666666667\n",
      "note_on channel=0 note=62 velocity=127 time=0.04895833333333333\n",
      "note_on channel=0 note=60 velocity=127 time=0.0125\n",
      "note_off channel=0 note=62 velocity=127 time=0.008333333333333333\n",
      "note_off channel=0 note=60 velocity=127 time=0.0125\n",
      "note_on channel=0 note=61 velocity=127 time=0.020833333333333332\n",
      "note_off channel=0 note=61 velocity=127 time=0.019791666666666666\n",
      "note_on channel=0 note=62 velocity=127 time=0.003125\n",
      "note_on channel=0 note=60 velocity=127 time=0.016666666666666666\n",
      "note_off channel=0 note=62 velocity=127 time=0.003125\n",
      "note_off channel=0 note=60 velocity=127 time=0.016666666666666666\n",
      "note_on channel=0 note=62 velocity=127 time=0.03958333333333333\n",
      "note_off channel=0 note=62 velocity=127 time=0.019791666666666666\n",
      "note_on channel=0 note=60 velocity=127 time=0.0010416666666666667\n",
      "note_on channel=0 note=61 velocity=127 time=0.015625\n",
      "note_off channel=0 note=60 velocity=127 time=0.004166666666666667\n",
      "note_off channel=0 note=61 velocity=127 time=0.015625\n",
      "note_on channel=0 note=62 velocity=127 time=0.01875\n",
      "note_off channel=0 note=62 velocity=127 time=0.019791666666666666\n",
      "note_on channel=0 note=60 velocity=127 time=0.00625\n",
      "note_off channel=0 note=60 velocity=127 time=0.019791666666666666\n",
      "note_on channel=0 note=62 velocity=127 time=0.030208333333333334\n",
      "note_off channel=0 note=62 velocity=127 time=0.019791666666666666\n",
      "note_on channel=0 note=61 velocity=127 time=0.0020833333333333333\n",
      "note_on channel=0 note=60 velocity=127 time=0.008333333333333333\n",
      "note_off channel=0 note=61 velocity=127 time=0.011458333333333333\n",
      "note_off channel=0 note=60 velocity=127 time=0.008333333333333333\n",
      "note_on channel=0 note=62 velocity=127 time=0.025\n",
      "note_off channel=0 note=62 velocity=127 time=0.019791666666666666\n",
      "note_on channel=0 note=60 velocity=127 time=0.015625\n",
      "note_off channel=0 note=60 velocity=127 time=0.019791666666666666\n",
      "note_on channel=0 note=62 velocity=127 time=0.020833333333333332\n",
      "note_on channel=0 note=61 velocity=127 time=0.007291666666666667\n",
      "note_off channel=0 note=62 velocity=127 time=0.0125\n",
      "note_off channel=0 note=61 velocity=127 time=0.007291666666666667\n",
      "note_on channel=0 note=60 velocity=127 time=0.013541666666666667\n",
      "note_off channel=0 note=60 velocity=127 time=0.019791666666666666\n",
      "note_on channel=0 note=62 velocity=127 time=0.015625\n",
      "note_off channel=0 note=62 velocity=127 time=0.019791666666666666\n",
      "note_on channel=0 note=60 velocity=127 time=0.025\n",
      "note_off channel=0 note=60 velocity=127 time=0.019791666666666666\n",
      "note_on channel=0 note=61 velocity=127 time=0.003125\n",
      "note_on channel=0 note=62 velocity=127 time=0.008333333333333333\n",
      "note_off channel=0 note=61 velocity=127 time=0.011458333333333333\n",
      "note_off channel=0 note=62 velocity=127 time=0.008333333333333333\n",
      "note_on channel=0 note=60 velocity=127 time=0.030208333333333334\n",
      "note_off channel=0 note=60 velocity=127 time=0.019791666666666666\n",
      "note_on channel=0 note=62 velocity=127 time=0.00625\n",
      "note_off channel=0 note=62 velocity=127 time=0.019791666666666666\n",
      "note_on channel=0 note=61 velocity=127 time=0.03229166666666666\n",
      "note_on channel=0 note=60 velocity=127 time=0.0020833333333333333\n",
      "note_off channel=0 note=61 velocity=127 time=0.017708333333333333\n",
      "note_off channel=0 note=60 velocity=127 time=0.0020833333333333333\n",
      "note_on channel=0 note=62 velocity=127 time=0.0020833333333333333\n",
      "note_off channel=0 note=62 velocity=127 time=0.019791666666666666\n",
      "note_on channel=0 note=60 velocity=127 time=0.03958333333333333\n",
      "note_on channel=0 note=62 velocity=127 time=0.016666666666666666\n",
      "note_off channel=0 note=60 velocity=127 time=0.003125\n",
      "note_off channel=0 note=62 velocity=127 time=0.016666666666666666\n",
      "note_on channel=0 note=61 velocity=127 time=0.017708333333333333\n",
      "note_off channel=0 note=61 velocity=127 time=0.019791666666666666\n",
      "note_on channel=0 note=60 velocity=127 time=0.00625\n",
      "note_on channel=0 note=62 velocity=127 time=0.0125\n",
      "note_off channel=0 note=60 velocity=127 time=0.007291666666666667\n",
      "note_off channel=0 note=62 velocity=127 time=0.0125\n",
      "note_on channel=0 note=60 velocity=127 time=0.04895833333333333\n",
      "note_on channel=0 note=62 velocity=127 time=0.007291666666666667\n",
      "note_off channel=0 note=60 velocity=127 time=0.0125\n",
      "note_off channel=0 note=62 velocity=127 time=0.007291666666666667\n",
      "note_on channel=0 note=61 velocity=127 time=0.0020833333333333333\n",
      "note_off channel=0 note=61 velocity=127 time=0.019791666666666666\n",
      "note_on channel=0 note=60 velocity=127 time=0.03125\n",
      "note_on channel=0 note=62 velocity=127 time=0.003125\n",
      "note_off channel=0 note=60 velocity=127 time=0.016666666666666666\n",
      "note_off channel=0 note=62 velocity=127 time=0.003125\n",
      "note_on channel=0 note=62 velocity=127 time=0.05625\n",
      "note_on channel=0 note=60 velocity=127 time=0.0020833333333333333\n",
      "note_on channel=0 note=61 velocity=127 time=0.005208333333333333\n",
      "note_off channel=0 note=62 velocity=127 time=0.013541666666666667\n",
      "note_off channel=0 note=60 velocity=127 time=0.0020833333333333333\n",
      "note_off channel=0 note=61 velocity=127 time=0.005208333333333333\n",
      "note_on channel=0 note=62 velocity=127 time=0.04895833333333333\n",
      "note_on channel=0 note=60 velocity=127 time=0.00625\n",
      "note_off channel=0 note=62 velocity=127 time=0.013541666666666667\n",
      "note_off channel=0 note=60 velocity=127 time=0.00625\n",
      "note_on channel=0 note=61 velocity=127 time=0.040625\n",
      "note_on channel=0 note=62 velocity=127 time=0.008333333333333333\n",
      "note_on channel=0 note=60 velocity=127 time=0.011458333333333333\n",
      "note_off channel=0 note=61 velocity=127 time=0\n",
      "note_off channel=0 note=62 velocity=127 time=0.008333333333333333\n",
      "note_off channel=0 note=60 velocity=127 time=0.011458333333333333\n",
      "note_on channel=0 note=62 velocity=127 time=0.04479166666666667\n",
      "note_on channel=0 note=60 velocity=127 time=0.015625\n",
      "note_off channel=0 note=62 velocity=127 time=0.004166666666666667\n",
      "note_off channel=0 note=60 velocity=127 time=0.015625\n",
      "note_on channel=0 note=61 velocity=127 time=0.016666666666666666\n",
      "note_off channel=0 note=61 velocity=127 time=0.019791666666666666\n",
      "note_on channel=0 note=62 velocity=127 time=0.004166666666666667\n",
      "note_off channel=0 note=62 velocity=127 time=0.019791666666666666\n",
      "note_on channel=0 note=60 velocity=127 time=0.0010416666666666667\n",
      "note_off channel=0 note=60 velocity=127 time=0.019791666666666666\n",
      "note_on channel=0 note=62 velocity=127 time=0.035416666666666666\n",
      "note_off channel=0 note=62 velocity=127 time=0.019791666666666666\n",
      "note_on channel=0 note=60 velocity=127 time=0.005208333333333333\n",
      "note_on channel=0 note=61 velocity=127 time=0.011458333333333333\n",
      "note_off channel=0 note=60 velocity=127 time=0.008333333333333333\n",
      "note_off channel=0 note=61 velocity=127 time=0.011458333333333333\n",
      "note_on channel=0 note=62 velocity=127 time=0.01875\n",
      "note_off channel=0 note=62 velocity=127 time=0.019791666666666666\n",
      "note_on channel=0 note=60 velocity=127 time=0.010416666666666666\n",
      "note_off channel=0 note=60 velocity=127 time=0.019791666666666666\n",
      "note_on channel=0 note=62 velocity=127 time=0.026041666666666668\n",
      "note_off channel=0 note=62 velocity=127 time=0.019791666666666666\n",
      "note_on channel=0 note=61 velocity=127 time=0.0020833333333333333\n",
      "note_on channel=0 note=60 velocity=127 time=0.0125\n",
      "note_off channel=0 note=61 velocity=127 time=0.007291666666666667\n",
      "note_off channel=0 note=60 velocity=127 time=0.0125\n",
      "note_on channel=0 note=62 velocity=127 time=0.020833333333333332\n",
      "note_off channel=0 note=62 velocity=127 time=0.019791666666666666\n",
      "note_on channel=0 note=60 velocity=127 time=0.019791666666666666\n",
      "note_off channel=0 note=60 velocity=127 time=0.019791666666666666\n",
      "note_on channel=0 note=62 velocity=127 time=0.016666666666666666\n",
      "note_on channel=0 note=61 velocity=127 time=0.00625\n",
      "note_off channel=0 note=62 velocity=127 time=0.013541666666666667\n",
      "note_off channel=0 note=61 velocity=127 time=0.00625\n",
      "note_on channel=0 note=60 velocity=127 time=0.017708333333333333\n",
      "note_off channel=0 note=60 velocity=127 time=0.019791666666666666\n",
      "note_on channel=0 note=62 velocity=127 time=0.011458333333333333\n",
      "note_off channel=0 note=62 velocity=127 time=0.019791666666666666\n",
      "note_on channel=0 note=60 velocity=127 time=0.029166666666666667\n",
      "note_on channel=0 note=61 velocity=127 time=0.01875\n",
      "note_off channel=0 note=60 velocity=127 time=0.0010416666666666667\n",
      "note_on channel=0 note=62 velocity=127 time=0.007291666666666667\n",
      "note_off channel=0 note=61 velocity=127 time=0.011458333333333333\n",
      "note_off channel=0 note=62 velocity=127 time=0.008333333333333333\n",
      "note_on channel=0 note=60 velocity=127 time=0.03333333333333333\n",
      "note_off channel=0 note=60 velocity=127 time=0.019791666666666666\n",
      "note_on channel=0 note=62 velocity=127 time=0.0020833333333333333\n",
      "note_off channel=0 note=62 velocity=127 time=0.019791666666666666\n",
      "note_on channel=0 note=61 velocity=127 time=0.03229166666666666\n",
      "note_on channel=0 note=60 velocity=127 time=0.00625\n",
      "note_off channel=0 note=61 velocity=127 time=0.013541666666666667\n",
      "note_on channel=0 note=62 velocity=127 time=0.004166666666666667\n",
      "note_off channel=0 note=60 velocity=127 time=0.0020833333333333333\n",
      "note_off channel=0 note=62 velocity=127 time=0.017708333333333333\n",
      "note_on channel=0 note=60 velocity=127 time=0.042708333333333334\n",
      "note_on channel=0 note=62 velocity=127 time=0.013541666666666667\n",
      "note_off channel=0 note=60 velocity=127 time=0.007291666666666667\n",
      "note_off channel=0 note=62 velocity=127 time=0.013541666666666667\n",
      "note_on channel=0 note=61 velocity=127 time=0.016666666666666666\n",
      "note_off channel=0 note=61 velocity=127 time=0.019791666666666666\n",
      "\u001b[91m [DEBUG] > \u001b[0m\n",
      " |>  to_array: msg.time > max_t; t, n\n",
      " |>  2.9947916666666696\n",
      " |>  150\n",
      "note_on channel=0 note=60 velocity=127 time=0.020833333333333332\n",
      "note_off channel=0 note=60 velocity=127 time=0.019791666666666666\n",
      "note_on channel=0 note=61 velocity=127 time=0.03333333333333333\n",
      "note_on channel=0 note=62 velocity=127 time=0.004166666666666667\n",
      "note_off channel=0 note=61 velocity=127 time=0.015625\n",
      "note_off channel=0 note=62 velocity=127 time=0.004166666666666667\n",
      "note_on channel=0 note=60 velocity=127 time=0.084375\n",
      "note_on channel=0 note=62 velocity=127 time=0.00625\n",
      "note_off channel=0 note=60 velocity=127 time=0.013541666666666667\n",
      "note_on channel=0 note=61 velocity=127 time=0.0020833333333333333\n",
      "note_off channel=0 note=62 velocity=127 time=0.003125\n",
      "note_off channel=0 note=61 velocity=127 time=0.016666666666666666\n",
      "note_on channel=0 note=62 velocity=127 time=0.07395833333333333\n",
      "note_off channel=0 note=62 velocity=127 time=0.019791666666666666\n",
      "note_on channel=0 note=61 velocity=127 time=0.016666666666666666\n",
      "note_on channel=0 note=60 velocity=127 time=0.008333333333333333\n",
      "note_off channel=0 note=61 velocity=127 time=0.0125\n",
      "note_off channel=0 note=60 velocity=127 time=0.008333333333333333\n",
      "note_on channel=0 note=62 velocity=127 time=0.04479166666666667\n",
      "note_off channel=0 note=62 velocity=127 time=0.019791666666666666\n",
      "note_on channel=0 note=61 velocity=127 time=0.0375\n",
      "note_off channel=0 note=61 velocity=127 time=0.019791666666666666\n",
      "note_on channel=0 note=60 velocity=127 time=0.01875\n"
     ]
    },
    {
     "name": "stdout",
     "output_type": "stream",
     "text": [
      "note_on channel=0 note=62 velocity=127 time=0.014583333333333334\n",
      "note_off channel=0 note=60 velocity=127 time=0.00625\n",
      "note_off channel=0 note=62 velocity=127 time=0.014583333333333334\n",
      "note_on channel=0 note=61 velocity=127 time=0.058333333333333334\n",
      "note_off channel=0 note=61 velocity=127 time=0.019791666666666666\n",
      "note_on channel=0 note=62 velocity=127 time=0.0125\n",
      "note_off channel=0 note=62 velocity=127 time=0.019791666666666666\n",
      "note_on channel=0 note=60 velocity=127 time=0.016666666666666666\n",
      "note_off channel=0 note=60 velocity=127 time=0.019791666666666666\n",
      "note_on channel=0 note=61 velocity=127 time=0.041666666666666664\n",
      "note_on channel=0 note=62 velocity=127 time=0.011458333333333333\n",
      "note_off channel=0 note=61 velocity=127 time=0.008333333333333333\n",
      "note_off channel=0 note=62 velocity=127 time=0.011458333333333333\n",
      "note_on channel=0 note=60 velocity=127 time=0.06770833333333333\n",
      "note_off channel=0 note=60 velocity=127 time=0.019791666666666666\n",
      "note_on channel=0 note=62 velocity=127 time=0.0020833333333333333\n",
      "note_on channel=0 note=61 velocity=127 time=0.009375\n",
      "note_off channel=0 note=62 velocity=127 time=0.010416666666666666\n",
      "note_off channel=0 note=61 velocity=127 time=0.009375\n",
      "note_on channel=0 note=62 velocity=127 time=0.08125\n",
      "note_off channel=0 note=62 velocity=127 time=0.019791666666666666\n",
      "note_on channel=0 note=60 velocity=127 time=0.008333333333333333\n",
      "note_on channel=0 note=61 velocity=127 time=0.0010416666666666667\n",
      "note_off channel=0 note=60 velocity=127 time=0.01875\n",
      "note_off channel=0 note=61 velocity=127 time=0.0010416666666666667\n",
      "note_on channel=0 note=62 velocity=127 time=0.06041666666666667\n",
      "note_off channel=0 note=62 velocity=127 time=0.019791666666666666\n",
      "note_on channel=0 note=61 velocity=127 time=0.030208333333333334\n",
      "note_off channel=0 note=61 velocity=127 time=0.019791666666666666\n",
      "note_on channel=0 note=60 velocity=127 time=0.009375\n",
      "note_off channel=0 note=60 velocity=127 time=0.019791666666666666\n",
      "note_on channel=0 note=62 velocity=127 time=0.010416666666666666\n",
      "note_off channel=0 note=62 velocity=127 time=0.019791666666666666\n",
      "note_on channel=0 note=61 velocity=127 time=0.051041666666666666\n",
      "note_off channel=0 note=61 velocity=127 time=0.019791666666666666\n",
      "note_on channel=0 note=62 velocity=127 time=0.019791666666666666\n",
      "note_off channel=0 note=62 velocity=127 time=0.019791666666666666\n",
      "note_on channel=0 note=60 velocity=127 time=0\n",
      "note_off channel=0 note=60 velocity=127 time=0.019791666666666666\n",
      "note_on channel=0 note=61 velocity=127 time=0.051041666666666666\n",
      "note_on channel=0 note=62 velocity=127 time=0.01875\n",
      "note_off channel=0 note=61 velocity=127 time=0.0010416666666666667\n",
      "note_off channel=0 note=62 velocity=127 time=0.01875\n",
      "note_on channel=0 note=60 velocity=127 time=0.051041666666666666\n",
      "note_off channel=0 note=60 velocity=127 time=0.019791666666666666\n",
      "note_on channel=0 note=62 velocity=127 time=0.01875\n",
      "note_on channel=0 note=61 velocity=127 time=0.0020833333333333333\n",
      "note_off channel=0 note=62 velocity=127 time=0.01875\n",
      "note_off channel=0 note=61 velocity=127 time=0.0020833333333333333\n",
      "note_on channel=0 note=62 velocity=127 time=0.08854166666666667\n",
      "note_on channel=0 note=60 velocity=127 time=0.011458333333333333\n",
      "note_off channel=0 note=62 velocity=127 time=0.008333333333333333\n",
      "note_on channel=0 note=61 velocity=127 time=0.0020833333333333333\n",
      "note_off channel=0 note=60 velocity=127 time=0.009375\n",
      "note_off channel=0 note=61 velocity=127 time=0.010416666666666666\n",
      "note_on channel=0 note=62 velocity=127 time=0.06770833333333333\n",
      "note_off channel=0 note=62 velocity=127 time=0.019791666666666666\n",
      "note_on channel=0 note=61 velocity=127 time=0.022916666666666665\n",
      "note_off channel=0 note=61 velocity=127 time=0.019791666666666666\n",
      "note_on channel=0 note=60 velocity=127 time=0\n",
      "note_off channel=0 note=60 velocity=127 time=0.019791666666666666\n",
      "note_on channel=0 note=62 velocity=127 time=0.027083333333333334\n",
      "note_off channel=0 note=62 velocity=127 time=0.019791666666666666\n",
      "note_on channel=0 note=61 velocity=127 time=0.04375\n",
      "note_off channel=0 note=61 velocity=127 time=0.019791666666666666\n",
      "note_on channel=0 note=62 velocity=127 time=0.027083333333333334\n",
      "note_on channel=0 note=60 velocity=127 time=0.003125\n",
      "note_off channel=0 note=62 velocity=127 time=0.016666666666666666\n",
      "note_off channel=0 note=60 velocity=127 time=0.003125\n",
      "note_on channel=0 note=61 velocity=127 time=0.06041666666666667\n",
      "note_off channel=0 note=61 velocity=127 time=0.019791666666666666\n",
      "note_on channel=0 note=62 velocity=127 time=0.00625\n",
      "note_off channel=0 note=62 velocity=127 time=0.019791666666666666\n",
      "note_on channel=0 note=60 velocity=127 time=0.034375\n",
      "note_off channel=0 note=60 velocity=127 time=0.019791666666666666\n",
      "note_on channel=0 note=61 velocity=127 time=0.030208333333333334\n",
      "note_on channel=0 note=62 velocity=127 time=0.005208333333333333\n",
      "note_off channel=0 note=61 velocity=127 time=0.014583333333333334\n",
      "note_off channel=0 note=62 velocity=127 time=0.005208333333333333\n",
      "note_on channel=0 note=60 velocity=127 time=0.08541666666666667\n",
      "note_on channel=0 note=62 velocity=127 time=0.004166666666666667\n",
      "note_on channel=0 note=61 velocity=127 time=0.014583333333333334\n",
      "note_off channel=0 note=60 velocity=127 time=0\n",
      "note_off channel=0 note=62 velocity=127 time=0.004166666666666667\n",
      "note_off channel=0 note=61 velocity=127 time=0.014583333333333334\n",
      "note_on channel=0 note=62 velocity=127 time=0.075\n",
      "note_off channel=0 note=62 velocity=127 time=0.019791666666666666\n",
      "note_on channel=0 note=61 velocity=127 time=0.015625\n",
      "note_on channel=0 note=60 velocity=127 time=0.010416666666666666\n",
      "note_off channel=0 note=61 velocity=127 time=0.009375\n",
      "note_off channel=0 note=60 velocity=127 time=0.010416666666666666\n",
      "note_on channel=0 note=62 velocity=127 time=0.04375\n",
      "note_off channel=0 note=62 velocity=127 time=0.019791666666666666\n",
      "note_on channel=0 note=61 velocity=127 time=0.036458333333333336\n",
      "note_off channel=0 note=61 velocity=127 time=0.019791666666666666\n",
      "note_on channel=0 note=60 velocity=127 time=0.021875\n",
      "note_on channel=0 note=62 velocity=127 time=0.0125\n",
      "note_off channel=0 note=60 velocity=127 time=0.007291666666666667\n",
      "note_off channel=0 note=62 velocity=127 time=0.0125\n",
      "note_on channel=0 note=61 velocity=127 time=0.05625\n",
      "note_off channel=0 note=61 velocity=127 time=0.019791666666666666\n",
      "note_on channel=0 note=62 velocity=127 time=0.013541666666666667\n",
      "note_off channel=0 note=62 velocity=127 time=0.019791666666666666\n",
      "note_on channel=0 note=60 velocity=127 time=0.017708333333333333\n",
      "note_off channel=0 note=60 velocity=127 time=0.019791666666666666\n",
      "note_on channel=0 note=61 velocity=127 time=0.03958333333333333\n",
      "note_on channel=0 note=62 velocity=127 time=0.013541666666666667\n",
      "note_off channel=0 note=61 velocity=127 time=0.007291666666666667\n",
      "note_off channel=0 note=62 velocity=127 time=0.013541666666666667\n",
      "note_on channel=0 note=60 velocity=127 time=0.06875\n",
      "note_off channel=0 note=60 velocity=127 time=0.019791666666666666\n",
      "note_on channel=0 note=62 velocity=127 time=0.0010416666666666667\n",
      "note_on channel=0 note=61 velocity=127 time=0.007291666666666667\n",
      "note_off channel=0 note=62 velocity=127 time=0.0125\n",
      "note_off channel=0 note=61 velocity=127 time=0.007291666666666667\n",
      "note_on channel=0 note=62 velocity=127 time=0.08333333333333333\n",
      "\u001b[91m [DEBUG] > \u001b[0m\n",
      " |>  to_array: msg.time > max_t; t, n\n",
      " |>  3.044791666666671\n",
      " |>  150\n",
      "note_on channel=0 note=60 velocity=127 time=0.010416666666666666\n",
      "note_off channel=0 note=60 velocity=127 time=0.019791666666666666\n",
      "note_on channel=0 note=62 velocity=127 time=0.04791666666666666\n",
      "note_on channel=0 note=60 velocity=127 time=0.0010416666666666667\n",
      "note_off channel=0 note=62 velocity=127 time=0.01875\n",
      "note_off channel=0 note=60 velocity=127 time=0.0010416666666666667\n",
      "note_on channel=0 note=60 velocity=127 time=0.04895833333333333\n",
      "note_off channel=0 note=60 velocity=127 time=0.019791666666666666\n",
      "note_on channel=0 note=61 velocity=127 time=0.01875\n",
      "note_off channel=0 note=61 velocity=127 time=0.019791666666666666\n",
      "note_on channel=0 note=60 velocity=127 time=0.010416666666666666\n",
      "note_off channel=0 note=60 velocity=127 time=0.019791666666666666\n",
      "note_on channel=0 note=62 velocity=127 time=0.019791666666666666\n",
      "note_off channel=0 note=62 velocity=127 time=0.019791666666666666\n",
      "note_on channel=0 note=60 velocity=127 time=0.009375\n",
      "note_off channel=0 note=60 velocity=127 time=0.019791666666666666\n",
      "note_on channel=0 note=60 velocity=127 time=0.04895833333333333\n",
      "note_off channel=0 note=60 velocity=127 time=0.019791666666666666\n",
      "note_on channel=0 note=61 velocity=127 time=0.030208333333333334\n",
      "note_on channel=0 note=60 velocity=127 time=0.01875\n",
      "note_off channel=0 note=61 velocity=127 time=0.0010416666666666667\n",
      "note_on channel=0 note=62 velocity=127 time=0.010416666666666666\n",
      "note_off channel=0 note=60 velocity=127 time=0.008333333333333333\n",
      "note_off channel=0 note=62 velocity=127 time=0.011458333333333333\n",
      "note_on channel=0 note=60 velocity=127 time=0.0375\n",
      "note_off channel=0 note=60 velocity=127 time=0.019791666666666666\n",
      "note_on channel=0 note=60 velocity=127 time=0.04895833333333333\n",
      "note_off channel=0 note=60 velocity=127 time=0.019791666666666666\n",
      "note_on channel=0 note=62 velocity=127 time=0.03229166666666666\n",
      "note_on channel=0 note=61 velocity=127 time=0.009375\n",
      "note_on channel=0 note=60 velocity=127 time=0.007291666666666667\n",
      "note_off channel=0 note=62 velocity=127 time=0.003125\n",
      "note_off channel=0 note=61 velocity=127 time=0.009375\n",
      "note_off channel=0 note=60 velocity=127 time=0.007291666666666667\n",
      "note_on channel=0 note=60 velocity=127 time=0.04895833333333333\n",
      "note_off channel=0 note=60 velocity=127 time=0.019791666666666666\n",
      "note_on channel=0 note=60 velocity=127 time=0.04895833333333333\n",
      "note_off channel=0 note=60 velocity=127 time=0.019791666666666666\n",
      "note_on channel=0 note=62 velocity=127 time=0.004166666666666667\n",
      "note_off channel=0 note=62 velocity=127 time=0.019791666666666666\n",
      "note_on channel=0 note=60 velocity=127 time=0.025\n",
      "note_on channel=0 note=61 velocity=127 time=0.004166666666666667\n",
      "note_off channel=0 note=60 velocity=127 time=0.015625\n",
      "note_off channel=0 note=61 velocity=127 time=0.004166666666666667\n",
      "note_on channel=0 note=60 velocity=127 time=0.04479166666666667\n",
      "note_off channel=0 note=60 velocity=127 time=0.019791666666666666\n",
      "note_on channel=0 note=62 velocity=127 time=0.04583333333333333\n",
      "note_on channel=0 note=60 velocity=127 time=0.004166666666666667\n",
      "note_off channel=0 note=62 velocity=127 time=0.016666666666666666\n",
      "note_off channel=0 note=60 velocity=127 time=0.004166666666666667\n",
      "note_on channel=0 note=60 velocity=127 time=0.04895833333333333\n",
      "note_on channel=0 note=61 velocity=127 time=0.016666666666666666\n",
      "note_off channel=0 note=60 velocity=127 time=0.003125\n",
      "note_off channel=0 note=61 velocity=127 time=0.016666666666666666\n",
      "note_on channel=0 note=60 velocity=127 time=0.03333333333333333\n",
      "note_off channel=0 note=60 velocity=127 time=0.019791666666666666\n",
      "note_on channel=0 note=62 velocity=127 time=0.017708333333333333\n",
      "note_off channel=0 note=62 velocity=127 time=0.019791666666666666\n",
      "note_on channel=0 note=60 velocity=127 time=0.011458333333333333\n",
      "note_off channel=0 note=60 velocity=127 time=0.019791666666666666\n",
      "note_on channel=0 note=60 velocity=127 time=0.04895833333333333\n",
      "note_off channel=0 note=60 velocity=127 time=0.019791666666666666\n",
      "note_on channel=0 note=61 velocity=127 time=0.008333333333333333\n",
      "note_off channel=0 note=61 velocity=127 time=0.019791666666666666\n",
      "note_on channel=0 note=60 velocity=127 time=0.020833333333333332\n",
      "note_on channel=0 note=62 velocity=127 time=0.009375\n",
      "note_off channel=0 note=60 velocity=127 time=0.010416666666666666\n",
      "note_off channel=0 note=62 velocity=127 time=0.009375\n",
      "note_on channel=0 note=60 velocity=127 time=0.03958333333333333\n",
      "note_off channel=0 note=60 velocity=127 time=0.019791666666666666\n",
      "note_on channel=0 note=60 velocity=127 time=0.04895833333333333\n",
      "note_off channel=0 note=60 velocity=127 time=0.019791666666666666\n",
      "note_on channel=0 note=61 velocity=127 time=0.019791666666666666\n",
      "note_on channel=0 note=62 velocity=127 time=0.010416666666666666\n",
      "note_off channel=0 note=61 velocity=127 time=0.009375\n",
      "note_on channel=0 note=60 velocity=127 time=0.009375\n",
      "note_off channel=0 note=62 velocity=127 time=0.0010416666666666667\n",
      "note_off channel=0 note=60 velocity=127 time=0.01875\n",
      "note_on channel=0 note=60 velocity=127 time=0.04895833333333333\n",
      "note_off channel=0 note=60 velocity=127 time=0.019791666666666666\n",
      "note_on channel=0 note=60 velocity=127 time=0.04895833333333333\n",
      "note_off channel=0 note=60 velocity=127 time=0.019791666666666666\n",
      "note_on channel=0 note=62 velocity=127 time=0.0020833333333333333\n",
      "note_off channel=0 note=62 velocity=127 time=0.019791666666666666\n",
      "note_on channel=0 note=61 velocity=127 time=0.009375\n",
      "note_on channel=0 note=60 velocity=127 time=0.017708333333333333\n",
      "note_off channel=0 note=61 velocity=127 time=0.0020833333333333333\n",
      "note_off channel=0 note=60 velocity=127 time=0.017708333333333333\n",
      "note_on channel=0 note=60 velocity=127 time=0.04895833333333333\n",
      "note_off channel=0 note=60 velocity=127 time=0.019791666666666666\n",
      "note_on channel=0 note=62 velocity=127 time=0.04375\n",
      "note_on channel=0 note=60 velocity=127 time=0.00625\n",
      "note_off channel=0 note=62 velocity=127 time=0.013541666666666667\n",
      "note_off channel=0 note=60 velocity=127 time=0.00625\n",
      "note_on channel=0 note=61 velocity=127 time=0.042708333333333334\n",
      "note_on channel=0 note=60 velocity=127 time=0.00625\n",
      "note_off channel=0 note=61 velocity=127 time=0.013541666666666667\n",
      "note_off channel=0 note=60 velocity=127 time=0.00625\n",
      "note_on channel=0 note=60 velocity=127 time=0.04895833333333333\n",
      "note_off channel=0 note=60 velocity=127 time=0.019791666666666666\n",
      "note_on channel=0 note=62 velocity=127 time=0.015625\n",
      "note_off channel=0 note=62 velocity=127 time=0.019791666666666666\n",
      "note_on channel=0 note=60 velocity=127 time=0.014583333333333334\n",
      "note_off channel=0 note=60 velocity=127 time=0.019791666666666666\n",
      "note_on channel=0 note=60 velocity=127 time=0.04895833333333333\n",
      "note_on channel=0 note=61 velocity=127 time=0.005208333333333333\n",
      "note_off channel=0 note=60 velocity=127 time=0.014583333333333334\n",
      "note_off channel=0 note=61 velocity=127 time=0.005208333333333333\n",
      "note_on channel=0 note=60 velocity=127 time=0.04375\n",
      "note_on channel=0 note=62 velocity=127 time=0.007291666666666667\n",
      "note_off channel=0 note=60 velocity=127 time=0.0125\n",
      "note_off channel=0 note=62 velocity=127 time=0.007291666666666667\n",
      "note_on channel=0 note=60 velocity=127 time=0.042708333333333334\n",
      "note_off channel=0 note=60 velocity=127 time=0.019791666666666666\n",
      "note_on channel=0 note=60 velocity=127 time=0.04895833333333333\n",
      "note_on channel=0 note=61 velocity=127 time=0.016666666666666666\n",
      "note_off channel=0 note=60 velocity=127 time=0.003125\n",
      "note_off channel=0 note=61 velocity=127 time=0.016666666666666666\n",
      "note_on channel=0 note=62 velocity=127 time=0.011458333333333333\n",
      "note_off channel=0 note=62 velocity=127 time=0.019791666666666666\n",
      "note_on channel=0 note=60 velocity=127 time=0.0010416666666666667\n",
      "note_off channel=0 note=60 velocity=127 time=0.019791666666666666\n",
      "note_on channel=0 note=60 velocity=127 time=0.04895833333333333\n",
      "note_off channel=0 note=60 velocity=127 time=0.019791666666666666\n",
      "note_on channel=0 note=60 velocity=127 time=0.04895833333333333\n",
      "note_on channel=0 note=62 velocity=127 time=0.019791666666666666\n",
      "note_off channel=0 note=60 velocity=127 time=0\n",
      "note_on channel=0 note=61 velocity=127 time=0.009375\n",
      "note_off channel=0 note=62 velocity=127 time=0.011458333333333333\n",
      "note_off channel=0 note=61 velocity=127 time=0.009375\n",
      "note_on channel=0 note=60 velocity=127 time=0.020833333333333332\n",
      "note_off channel=0 note=60 velocity=127 time=0.019791666666666666\n",
      "note_on channel=0 note=60 velocity=127 time=0.04895833333333333\n",
      "note_off channel=0 note=60 velocity=127 time=0.019791666666666666\n",
      "note_on channel=0 note=62 velocity=127 time=0.040625\n",
      "note_on channel=0 note=60 velocity=127 time=0.008333333333333333\n",
      "note_off channel=0 note=62 velocity=127 time=0.011458333333333333\n",
      "note_off channel=0 note=60 velocity=127 time=0.008333333333333333\n",
      "note_on channel=0 note=61 velocity=127 time=0.020833333333333332\n",
      "note_off channel=0 note=61 velocity=127 time=0.019791666666666666\n",
      "note_on channel=0 note=60 velocity=127 time=0.008333333333333333\n",
      "note_off channel=0 note=60 velocity=127 time=0.019791666666666666\n",
      "note_on channel=0 note=60 velocity=127 time=0.04895833333333333\n",
      "note_off channel=0 note=60 velocity=127 time=0.019791666666666666\n",
      "note_on channel=0 note=62 velocity=127 time=0.0125\n",
      "note_off channel=0 note=62 velocity=127 time=0.019791666666666666\n",
      "note_on channel=0 note=60 velocity=127 time=0.016666666666666666\n",
      "note_off channel=0 note=60 velocity=127 time=0.019791666666666666\n",
      "\u001b[91m [DEBUG] > \u001b[0m\n",
      " |>  to_array: msg.time > max_t; t, n\n",
      " |>  2.9947916666666696\n",
      " |>  150\n",
      "note_on channel=0 note=62 velocity=127 time=0.0020833333333333333\n",
      "note_off channel=0 note=62 velocity=127 time=0.019791666666666666\n",
      "note_on channel=0 note=61 velocity=127 time=0.036458333333333336\n",
      "note_on channel=0 note=60 velocity=127 time=0.0125\n",
      "note_off channel=0 note=61 velocity=127 time=0.007291666666666667\n",
      "note_on channel=0 note=62 velocity=127 time=0.003125\n",
      "note_off channel=0 note=60 velocity=127 time=0.009375\n",
      "note_off channel=0 note=62 velocity=127 time=0.010416666666666666\n",
      "note_on channel=0 note=61 velocity=127 time=0.042708333333333334\n",
      "note_on channel=0 note=62 velocity=127 time=0.016666666666666666\n",
      "note_off channel=0 note=61 velocity=127 time=0.003125\n",
      "note_off channel=0 note=62 velocity=127 time=0.016666666666666666\n",
      "note_on channel=0 note=60 velocity=127 time=0.008333333333333333\n",
      "note_off channel=0 note=60 velocity=127 time=0.019791666666666666\n",
      "note_on channel=0 note=61 velocity=127 time=0.019791666666666666\n",
      "note_on channel=0 note=62 velocity=127 time=0.010416666666666666\n",
      "note_off channel=0 note=61 velocity=127 time=0.009375\n",
      "note_off channel=0 note=62 velocity=127 time=0.010416666666666666\n",
      "note_on channel=0 note=60 velocity=127 time=0.046875\n",
      "note_on channel=0 note=61 velocity=127 time=0.007291666666666667\n",
      "note_on channel=0 note=62 velocity=127 time=0.004166666666666667\n",
      "note_off channel=0 note=60 velocity=127 time=0.008333333333333333\n",
      "note_off channel=0 note=61 velocity=127 time=0.007291666666666667\n",
      "note_off channel=0 note=62 velocity=127 time=0.004166666666666667\n",
      "note_on channel=0 note=62 velocity=127 time=0.059375\n",
      "note_on channel=0 note=61 velocity=127 time=0.0020833333333333333\n",
      "note_off channel=0 note=62 velocity=127 time=0.017708333333333333\n",
      "note_off channel=0 note=61 velocity=127 time=0.0020833333333333333\n",
      "note_on channel=0 note=60 velocity=127 time=0.005208333333333333\n",
      "note_off channel=0 note=60 velocity=127 time=0.019791666666666666\n",
      "note_on channel=0 note=62 velocity=127 time=0.03229166666666666\n",
      "note_on channel=0 note=61 velocity=127 time=0.008333333333333333\n",
      "note_off channel=0 note=62 velocity=127 time=0.011458333333333333\n",
      "note_off channel=0 note=61 velocity=127 time=0.008333333333333333\n",
      "note_on channel=0 note=60 velocity=127 time=0.0375\n",
      "note_on channel=0 note=62 velocity=127 time=0.013541666666666667\n",
      "note_off channel=0 note=60 velocity=127 time=0.007291666666666667\n",
      "note_on channel=0 note=61 velocity=127 time=0.007291666666666667\n",
      "note_off channel=0 note=62 velocity=127 time=0.005208333333333333\n",
      "note_off channel=0 note=61 velocity=127 time=0.014583333333333334\n",
      "note_on channel=0 note=62 velocity=127 time=0.04479166666666667\n",
      "note_off channel=0 note=62 velocity=127 time=0.019791666666666666\n",
      "note_on channel=0 note=61 velocity=127 time=0.0010416666666666667\n",
      "note_on channel=0 note=60 velocity=127 time=0.005208333333333333\n",
      "note_off channel=0 note=61 velocity=127 time=0.014583333333333334\n",
      "note_off channel=0 note=60 velocity=127 time=0.005208333333333333\n",
      "note_on channel=0 note=62 velocity=127 time=0.03333333333333333\n",
      "note_off channel=0 note=62 velocity=127 time=0.019791666666666666\n",
      "note_on channel=0 note=61 velocity=127 time=0.007291666666666667\n",
      "note_off channel=0 note=61 velocity=127 time=0.019791666666666666\n",
      "note_on channel=0 note=60 velocity=127 time=0.017708333333333333\n",
      "note_on channel=0 note=62 velocity=127 time=0.014583333333333334\n",
      "note_off channel=0 note=60 velocity=127 time=0.005208333333333333\n",
      "note_off channel=0 note=62 velocity=127 time=0.014583333333333334\n",
      "note_on channel=0 note=61 velocity=127 time=0.0125\n",
      "note_off channel=0 note=61 velocity=127 time=0.019791666666666666\n",
      "note_on channel=0 note=62 velocity=127 time=0.026041666666666668\n",
      "note_off channel=0 note=62 velocity=127 time=0.019791666666666666\n",
      "note_on channel=0 note=60 velocity=127 time=0.004166666666666667\n",
      "note_on channel=0 note=61 velocity=127 time=0.014583333333333334\n",
      "note_off channel=0 note=60 velocity=127 time=0.005208333333333333\n",
      "note_off channel=0 note=61 velocity=127 time=0.014583333333333334\n",
      "note_on channel=0 note=62 velocity=127 time=0.019791666666666666\n",
      "note_off channel=0 note=62 velocity=127 time=0.019791666666666666\n",
      "note_on channel=0 note=61 velocity=127 time=0.025\n",
      "note_on channel=0 note=60 velocity=127 time=0.017708333333333333\n",
      "note_off channel=0 note=61 velocity=127 time=0.0020833333333333333\n",
      "note_on channel=0 note=62 velocity=127 time=0.013541666666666667\n",
      "note_off channel=0 note=60 velocity=127 time=0.004166666666666667\n",
      "note_off channel=0 note=62 velocity=127 time=0.015625\n",
      "note_on channel=0 note=61 velocity=127 time=0.03125\n",
      "note_off channel=0 note=61 velocity=127 time=0.019791666666666666\n",
      "note_on channel=0 note=62 velocity=127 time=0.007291666666666667\n",
      "note_off channel=0 note=62 velocity=127 time=0.019791666666666666\n",
      "note_on channel=0 note=60 velocity=127 time=0.003125\n",
      "note_off channel=0 note=60 velocity=127 time=0.019791666666666666\n",
      "note_on channel=0 note=61 velocity=127 time=0.014583333333333334\n",
      "note_off channel=0 note=61 velocity=127 time=0.019791666666666666\n",
      "note_on channel=0 note=62 velocity=127 time=0.0010416666666666667\n",
      "note_off channel=0 note=62 velocity=127 time=0.019791666666666666\n",
      "note_on channel=0 note=60 velocity=127 time=0.041666666666666664\n",
      "note_on channel=0 note=61 velocity=127 time=0.0020833333333333333\n",
      "note_on channel=0 note=62 velocity=127 time=0.014583333333333334\n",
      "note_off channel=0 note=60 velocity=127 time=0.003125\n",
      "note_off channel=0 note=61 velocity=127 time=0.0020833333333333333\n",
      "note_off channel=0 note=62 velocity=127 time=0.014583333333333334\n",
      "note_on channel=0 note=61 velocity=127 time=0.05\n",
      "note_on channel=0 note=62 velocity=127 time=0.008333333333333333\n",
      "note_off channel=0 note=61 velocity=127 time=0.011458333333333333\n",
      "note_off channel=0 note=62 velocity=127 time=0.008333333333333333\n",
      "note_on channel=0 note=60 velocity=127 time=0.0020833333333333333\n",
      "note_off channel=0 note=60 velocity=127 time=0.019791666666666666\n",
      "note_on channel=0 note=61 velocity=127 time=0.034375\n",
      "note_on channel=0 note=62 velocity=127 time=0.0020833333333333333\n",
      "note_off channel=0 note=61 velocity=127 time=0.017708333333333333\n",
      "note_off channel=0 note=62 velocity=127 time=0.0020833333333333333\n",
      "note_on channel=0 note=60 velocity=127 time=0.040625\n",
      "note_on channel=0 note=62 velocity=127 time=0.01875\n",
      "note_off channel=0 note=60 velocity=127 time=0.0020833333333333333\n",
      "note_on channel=0 note=61 velocity=127 time=0.0020833333333333333\n",
      "note_off channel=0 note=62 velocity=127 time=0.016666666666666666\n",
      "note_off channel=0 note=61 velocity=127 time=0.004166666666666667\n",
      "note_on channel=0 note=62 velocity=127 time=0.05520833333333333\n",
      "note_on channel=0 note=61 velocity=127 time=0.009375\n",
      "note_off channel=0 note=62 velocity=127 time=0.010416666666666666\n",
      "note_on channel=0 note=60 velocity=127 time=0\n",
      "note_off channel=0 note=61 velocity=127 time=0.009375\n",
      "note_off channel=0 note=60 velocity=127 time=0.010416666666666666\n",
      "note_on channel=0 note=62 velocity=127 time=0.03854166666666667\n",
      "note_on channel=0 note=61 velocity=127 time=0.015625\n",
      "note_off channel=0 note=62 velocity=127 time=0.004166666666666667\n",
      "note_off channel=0 note=61 velocity=127 time=0.015625\n",
      "note_on channel=0 note=60 velocity=127 time=0.022916666666666665\n",
      "note_on channel=0 note=62 velocity=127 time=0.019791666666666666\n",
      "note_off channel=0 note=60 velocity=127 time=0\n",
      "note_off channel=0 note=62 velocity=127 time=0.019791666666666666\n",
      "note_on channel=0 note=61 velocity=127 time=0.0020833333333333333\n",
      "note_off channel=0 note=61 velocity=127 time=0.019791666666666666\n",
      "note_on channel=0 note=62 velocity=127 time=0.036458333333333336\n",
      "note_on channel=0 note=60 velocity=127 time=0.01875\n",
      "note_off channel=0 note=62 velocity=127 time=0.0010416666666666667\n",
      "note_on channel=0 note=61 velocity=127 time=0.008333333333333333\n",
      "note_off channel=0 note=60 velocity=127 time=0.010416666666666666\n",
      "note_off channel=0 note=61 velocity=127 time=0.009375\n",
      "note_on channel=0 note=62 velocity=127 time=0.030208333333333334\n",
      "note_off channel=0 note=62 velocity=127 time=0.019791666666666666\n",
      "note_on channel=0 note=61 velocity=127 time=0.014583333333333334\n",
      "note_off channel=0 note=61 velocity=127 time=0.019791666666666666\n",
      "note_on channel=0 note=60 velocity=127 time=0.003125\n",
      "note_off channel=0 note=60 velocity=127 time=0.019791666666666666\n",
      "note_on channel=0 note=62 velocity=127 time=0.0010416666666666667\n",
      "note_off channel=0 note=62 velocity=127 time=0.019791666666666666\n",
      "note_on channel=0 note=61 velocity=127 time=0.020833333333333332\n",
      "note_off channel=0 note=61 velocity=127 time=0.019791666666666666\n",
      "note_on channel=0 note=62 velocity=127 time=0.017708333333333333\n",
      "note_on channel=0 note=60 velocity=127 time=0.017708333333333333\n",
      "note_off channel=0 note=62 velocity=127 time=0.0020833333333333333\n",
      "note_off channel=0 note=60 velocity=127 time=0.017708333333333333\n",
      "note_on channel=0 note=61 velocity=127 time=0.009375\n",
      "note_off channel=0 note=61 velocity=127 time=0.019791666666666666\n",
      "note_on channel=0 note=62 velocity=127 time=0.011458333333333333\n",
      "note_off channel=0 note=62 velocity=127 time=0.019791666666666666\n",
      "note_on channel=0 note=61 velocity=127 time=0.03333333333333333\n",
      "note_on channel=0 note=60 velocity=127 time=0.003125\n",
      "note_off channel=0 note=61 velocity=127 time=0.016666666666666666\n",
      "note_off channel=0 note=60 velocity=127 time=0.003125\n",
      "note_on channel=0 note=62 velocity=127 time=0.0020833333333333333\n",
      "note_off channel=0 note=62 velocity=127 time=0.019791666666666666\n",
      "note_on channel=0 note=61 velocity=127 time=0.03958333333333333\n",
      "note_on channel=0 note=62 velocity=127 time=0.019791666666666666\n",
      "note_off channel=0 note=61 velocity=127 time=0.0010416666666666667\n",
      "note_on channel=0 note=60 velocity=127 time=0.015625\n",
      "note_off channel=0 note=62 velocity=127 time=0.003125\n",
      "note_off channel=0 note=60 velocity=127 time=0.016666666666666666\n",
      "note_on channel=0 note=61 velocity=127 time=0.029166666666666667\n",
      "note_on channel=0 note=62 velocity=127 time=0.013541666666666667\n",
      "note_off channel=0 note=61 velocity=127 time=0.007291666666666667\n",
      "note_off channel=0 note=62 velocity=127 time=0.013541666666666667\n",
      "note_on channel=0 note=60 velocity=127 time=0.035416666666666666\n",
      "note_on channel=0 note=61 velocity=127 time=0.016666666666666666\n",
      "note_off channel=0 note=60 velocity=127 time=0.003125\n",
      "note_on channel=0 note=62 velocity=127 time=0.003125\n",
      "note_off channel=0 note=61 velocity=127 time=0.0125\n",
      "note_off channel=0 note=62 velocity=127 time=0.007291666666666667\n",
      "note_on channel=0 note=61 velocity=127 time=0.058333333333333334\n",
      "note_on channel=0 note=62 velocity=127 time=0.0010416666666666667\n",
      "note_on channel=0 note=60 velocity=127 time=0.015625\n",
      "note_off channel=0 note=61 velocity=127 time=0.004166666666666667\n",
      "note_off channel=0 note=62 velocity=127 time=0.0010416666666666667\n",
      "note_off channel=0 note=60 velocity=127 time=0.015625\n",
      "note_on channel=0 note=62 velocity=127 time=0.04375\n",
      "note_on channel=0 note=61 velocity=127 time=0.005208333333333333\n",
      "note_off channel=0 note=62 velocity=127 time=0.014583333333333334\n",
      "note_off channel=0 note=61 velocity=127 time=0.005208333333333333\n",
      "note_on channel=0 note=60 velocity=127 time=0.028125\n",
      "note_off channel=0 note=60 velocity=127 time=0.019791666666666666\n",
      "note_on channel=0 note=62 velocity=127 time=0.005208333333333333\n",
      "note_on channel=0 note=61 velocity=127 time=0.011458333333333333\n",
      "note_off channel=0 note=62 velocity=127 time=0.008333333333333333\n",
      "note_off channel=0 note=61 velocity=127 time=0.011458333333333333\n",
      "note_on channel=0 note=62 velocity=127 time=0.046875\n",
      "note_on channel=0 note=60 velocity=127 time=0.013541666666666667\n",
      "note_on channel=0 note=61 velocity=127 time=0.004166666666666667\n",
      "note_off channel=0 note=62 velocity=127 time=0.0020833333333333333\n",
      "note_off channel=0 note=60 velocity=127 time=0.013541666666666667\n",
      "note_off channel=0 note=61 velocity=127 time=0.004166666666666667\n",
      "note_on channel=0 note=62 velocity=127 time=0.040625\n",
      "note_off channel=0 note=62 velocity=127 time=0.019791666666666666\n",
      "note_on channel=0 note=61 velocity=127 time=0.004166666666666667\n",
      "note_off channel=0 note=61 velocity=127 time=0.019791666666666666\n",
      "note_on channel=0 note=60 velocity=127 time=0.008333333333333333\n",
      "note_off channel=0 note=60 velocity=127 time=0.019791666666666666\n",
      "note_on channel=0 note=62 velocity=127 time=0.00625\n",
      "note_off channel=0 note=62 velocity=127 time=0.019791666666666666\n",
      "note_on channel=0 note=61 velocity=127 time=0.010416666666666666\n",
      "note_off channel=0 note=61 velocity=127 time=0.019791666666666666\n",
      "note_on channel=0 note=62 velocity=127 time=0.029166666666666667\n",
      "note_on channel=0 note=60 velocity=127 time=0.0125\n",
      "\u001b[91m [DEBUG] > \u001b[0m\n",
      " |>  to_array: msg.time > max_t; t, n\n",
      " |>  3.0020833333333363\n",
      " |>  150\n",
      "note_on channel=0 note=61 velocity=127 time=0.016666666666666666\n",
      "note_off channel=0 note=61 velocity=127 time=0.019791666666666666\n",
      "note_on channel=0 note=62 velocity=127 time=0.021875\n",
      "note_off channel=0 note=62 velocity=127 time=0.019791666666666666\n",
      "note_on channel=0 note=60 velocity=127 time=0.0625\n",
      "note_on channel=0 note=62 velocity=127 time=0.011458333333333333\n",
      "note_off channel=0 note=60 velocity=127 time=0.008333333333333333\n",
      "note_off channel=0 note=62 velocity=127 time=0.011458333333333333\n",
      "note_on channel=0 note=61 velocity=127 time=0.05416666666666667\n",
      "note_on channel=0 note=62 velocity=127 time=0.019791666666666666\n",
      "note_off channel=0 note=61 velocity=127 time=0\n",
      "note_off channel=0 note=62 velocity=127 time=0.019791666666666666\n",
      "note_on channel=0 note=62 velocity=127 time=0.07395833333333333\n",
      "note_on channel=0 note=60 velocity=127 time=0.0125\n",
      "note_off channel=0 note=62 velocity=127 time=0.007291666666666667\n"
     ]
    },
    {
     "name": "stdout",
     "output_type": "stream",
     "text": [
      "note_off channel=0 note=60 velocity=127 time=0.0125\n",
      "note_on channel=0 note=62 velocity=127 time=0.06145833333333333\n",
      "note_on channel=0 note=61 velocity=127 time=0.0020833333333333333\n",
      "note_off channel=0 note=62 velocity=127 time=0.017708333333333333\n",
      "note_off channel=0 note=61 velocity=127 time=0.0020833333333333333\n",
      "note_on channel=0 note=62 velocity=127 time=0.071875\n",
      "note_off channel=0 note=62 velocity=127 time=0.019791666666666666\n",
      "note_on channel=0 note=60 velocity=127 time=0.015625\n",
      "note_off channel=0 note=60 velocity=127 time=0.019791666666666666\n",
      "note_on channel=0 note=62 velocity=127 time=0.0375\n",
      "note_off channel=0 note=62 velocity=127 time=0.019791666666666666\n",
      "note_on channel=0 note=61 velocity=127 time=0.004166666666666667\n",
      "note_off channel=0 note=61 velocity=127 time=0.019791666666666666\n",
      "note_on channel=0 note=62 velocity=127 time=0.05\n",
      "note_off channel=0 note=62 velocity=127 time=0.019791666666666666\n",
      "note_on channel=0 note=60 velocity=127 time=0.03958333333333333\n",
      "note_off channel=0 note=60 velocity=127 time=0.019791666666666666\n",
      "note_on channel=0 note=62 velocity=127 time=0.014583333333333334\n",
      "note_off channel=0 note=62 velocity=127 time=0.019791666666666666\n",
      "note_on channel=0 note=61 velocity=127 time=0.026041666666666668\n",
      "note_off channel=0 note=61 velocity=127 time=0.019791666666666666\n",
      "note_on channel=0 note=62 velocity=127 time=0.028125\n",
      "note_off channel=0 note=62 velocity=127 time=0.019791666666666666\n",
      "note_on channel=0 note=60 velocity=127 time=0.06354166666666666\n",
      "note_on channel=0 note=62 velocity=127 time=0.010416666666666666\n",
      "note_off channel=0 note=60 velocity=127 time=0.009375\n",
      "note_off channel=0 note=62 velocity=127 time=0.010416666666666666\n",
      "note_on channel=0 note=61 velocity=127 time=0.04791666666666666\n",
      "note_off channel=0 note=61 velocity=127 time=0.019791666666666666\n",
      "note_on channel=0 note=62 velocity=127 time=0.00625\n",
      "note_off channel=0 note=62 velocity=127 time=0.019791666666666666\n",
      "note_on channel=0 note=62 velocity=127 time=0.07395833333333333\n",
      "note_on channel=0 note=60 velocity=127 time=0.0125\n",
      "note_off channel=0 note=62 velocity=127 time=0.007291666666666667\n",
      "note_off channel=0 note=60 velocity=127 time=0.0125\n",
      "note_on channel=0 note=61 velocity=127 time=0.057291666666666664\n",
      "note_on channel=0 note=62 velocity=127 time=0.004166666666666667\n",
      "note_off channel=0 note=61 velocity=127 time=0.015625\n",
      "note_off channel=0 note=62 velocity=127 time=0.004166666666666667\n",
      "note_on channel=0 note=62 velocity=127 time=0.07395833333333333\n",
      "note_off channel=0 note=62 velocity=127 time=0.019791666666666666\n",
      "note_on channel=0 note=60 velocity=127 time=0.016666666666666666\n",
      "note_off channel=0 note=60 velocity=127 time=0.019791666666666666\n",
      "note_on channel=0 note=62 velocity=127 time=0.0375\n",
      "note_on channel=0 note=61 velocity=127 time=0.017708333333333333\n",
      "note_off channel=0 note=62 velocity=127 time=0.0020833333333333333\n",
      "note_off channel=0 note=61 velocity=127 time=0.017708333333333333\n",
      "note_on channel=0 note=62 velocity=127 time=0.05625\n",
      "note_off channel=0 note=62 velocity=127 time=0.019791666666666666\n",
      "note_on channel=0 note=60 velocity=127 time=0.040625\n",
      "note_off channel=0 note=60 velocity=127 time=0.019791666666666666\n",
      "note_on channel=0 note=62 velocity=127 time=0.013541666666666667\n",
      "note_off channel=0 note=62 velocity=127 time=0.019791666666666666\n",
      "note_on channel=0 note=61 velocity=127 time=0.019791666666666666\n",
      "note_off channel=0 note=61 velocity=127 time=0.019791666666666666\n",
      "note_on channel=0 note=62 velocity=127 time=0.034375\n",
      "note_off channel=0 note=62 velocity=127 time=0.019791666666666666\n",
      "note_on channel=0 note=60 velocity=127 time=0.06354166666666666\n",
      "note_on channel=0 note=62 velocity=127 time=0.010416666666666666\n",
      "note_off channel=0 note=60 velocity=127 time=0.009375\n",
      "note_off channel=0 note=62 velocity=127 time=0.010416666666666666\n",
      "note_on channel=0 note=61 velocity=127 time=0.041666666666666664\n",
      "note_off channel=0 note=61 velocity=127 time=0.019791666666666666\n",
      "note_on channel=0 note=62 velocity=127 time=0.0125\n",
      "note_off channel=0 note=62 velocity=127 time=0.019791666666666666\n",
      "note_on channel=0 note=62 velocity=127 time=0.07395833333333333\n",
      "note_on channel=0 note=60 velocity=127 time=0.013541666666666667\n",
      "note_off channel=0 note=62 velocity=127 time=0.00625\n",
      "note_off channel=0 note=60 velocity=127 time=0.013541666666666667\n",
      "note_on channel=0 note=61 velocity=127 time=0.05\n",
      "note_on channel=0 note=62 velocity=127 time=0.010416666666666666\n",
      "note_off channel=0 note=61 velocity=127 time=0.009375\n",
      "note_off channel=0 note=62 velocity=127 time=0.010416666666666666\n",
      "note_on channel=0 note=62 velocity=127 time=0.07395833333333333\n",
      "note_off channel=0 note=62 velocity=127 time=0.019791666666666666\n",
      "note_on channel=0 note=60 velocity=127 time=0.016666666666666666\n",
      "note_off channel=0 note=60 velocity=127 time=0.019791666666666666\n",
      "note_on channel=0 note=62 velocity=127 time=0.036458333333333336\n",
      "note_on channel=0 note=61 velocity=127 time=0.011458333333333333\n",
      "note_off channel=0 note=62 velocity=127 time=0.008333333333333333\n",
      "note_off channel=0 note=61 velocity=127 time=0.011458333333333333\n",
      "note_on channel=0 note=62 velocity=127 time=0.0625\n",
      "note_off channel=0 note=62 velocity=127 time=0.019791666666666666\n",
      "note_on channel=0 note=60 velocity=127 time=0.040625\n",
      "note_off channel=0 note=60 velocity=127 time=0.019791666666666666\n",
      "note_on channel=0 note=62 velocity=127 time=0.013541666666666667\n",
      "note_off channel=0 note=62 velocity=127 time=0.019791666666666666\n",
      "note_on channel=0 note=61 velocity=127 time=0.013541666666666667\n",
      "note_off channel=0 note=61 velocity=127 time=0.019791666666666666\n",
      "note_on channel=0 note=62 velocity=127 time=0.040625\n",
      "note_off channel=0 note=62 velocity=127 time=0.019791666666666666\n",
      "note_on channel=0 note=60 velocity=127 time=0.06458333333333333\n",
      "note_on channel=0 note=62 velocity=127 time=0.009375\n",
      "note_off channel=0 note=60 velocity=127 time=0.010416666666666666\n",
      "note_off channel=0 note=62 velocity=127 time=0.009375\n",
      "note_on channel=0 note=61 velocity=127 time=0.035416666666666666\n",
      "note_off channel=0 note=61 velocity=127 time=0.019791666666666666\n",
      "note_on channel=0 note=62 velocity=127 time=0.01875\n",
      "note_off channel=0 note=62 velocity=127 time=0.019791666666666666\n",
      "note_on channel=0 note=62 velocity=127 time=0.07395833333333333\n",
      "note_on channel=0 note=60 velocity=127 time=0.014583333333333334\n",
      "note_off channel=0 note=62 velocity=127 time=0.00625\n",
      "note_off channel=0 note=60 velocity=127 time=0.014583333333333334\n",
      "note_on channel=0 note=61 velocity=127 time=0.042708333333333334\n",
      "note_on channel=0 note=62 velocity=127 time=0.016666666666666666\n",
      "note_off channel=0 note=61 velocity=127 time=0.003125\n",
      "note_off channel=0 note=62 velocity=127 time=0.016666666666666666\n",
      "note_on channel=0 note=62 velocity=127 time=0.07395833333333333\n",
      "\u001b[91m [DEBUG] > \u001b[0m\n",
      " |>  to_array: msg.time > max_t; t, n\n",
      " |>  3.057291666666666\n",
      " |>  150\n",
      "note_on channel=0 note=60 velocity=127 time=0.03125\n",
      "note_off channel=0 note=60 velocity=127 time=0.019791666666666666\n",
      "note_on channel=0 note=62 velocity=127 time=0.014583333333333334\n",
      "note_off channel=0 note=62 velocity=127 time=0.019791666666666666\n",
      "note_on channel=0 note=60 velocity=127 time=0.013541666666666667\n",
      "note_on channel=0 note=61 velocity=127 time=0.019791666666666666\n",
      "note_off channel=0 note=60 velocity=127 time=0\n",
      "note_off channel=0 note=61 velocity=127 time=0.019791666666666666\n",
      "note_on channel=0 note=60 velocity=127 time=0.028125\n",
      "note_off channel=0 note=60 velocity=127 time=0.019791666666666666\n",
      "note_on channel=0 note=60 velocity=127 time=0.04791666666666666\n",
      "note_on channel=0 note=62 velocity=127 time=0.015625\n",
      "note_off channel=0 note=60 velocity=127 time=0.004166666666666667\n",
      "note_on channel=0 note=61 velocity=127 time=0.011458333333333333\n",
      "note_off channel=0 note=62 velocity=127 time=0.004166666666666667\n",
      "note_off channel=0 note=61 velocity=127 time=0.015625\n",
      "note_on channel=0 note=60 velocity=127 time=0.016666666666666666\n",
      "note_off channel=0 note=60 velocity=127 time=0.019791666666666666\n",
      "note_on channel=0 note=60 velocity=127 time=0.04791666666666666\n",
      "note_off channel=0 note=60 velocity=127 time=0.019791666666666666\n",
      "note_on channel=0 note=61 velocity=127 time=0.022916666666666665\n",
      "note_off channel=0 note=61 velocity=127 time=0.019791666666666666\n",
      "note_on channel=0 note=62 velocity=127 time=0.0020833333333333333\n",
      "note_on channel=0 note=60 velocity=127 time=0.003125\n",
      "note_off channel=0 note=62 velocity=127 time=0.016666666666666666\n",
      "note_off channel=0 note=60 velocity=127 time=0.003125\n",
      "note_on channel=0 note=60 velocity=127 time=0.04791666666666666\n",
      "note_off channel=0 note=60 velocity=127 time=0.019791666666666666\n",
      "note_on channel=0 note=61 velocity=127 time=0.034375\n",
      "note_on channel=0 note=60 velocity=127 time=0.013541666666666667\n",
      "note_off channel=0 note=61 velocity=127 time=0.00625\n",
      "note_off channel=0 note=60 velocity=127 time=0.013541666666666667\n",
      "note_on channel=0 note=62 velocity=127 time=0.026041666666666668\n",
      "note_off channel=0 note=62 velocity=127 time=0.019791666666666666\n",
      "note_on channel=0 note=60 velocity=127 time=0.0020833333333333333\n",
      "note_off channel=0 note=60 velocity=127 time=0.019791666666666666\n",
      "note_on channel=0 note=61 velocity=127 time=0.04583333333333333\n",
      "note_on channel=0 note=60 velocity=127 time=0.0020833333333333333\n",
      "note_off channel=0 note=61 velocity=127 time=0.017708333333333333\n",
      "note_off channel=0 note=60 velocity=127 time=0.0020833333333333333\n",
      "note_on channel=0 note=60 velocity=127 time=0.04791666666666666\n",
      "note_off channel=0 note=60 velocity=127 time=0.019791666666666666\n",
      "note_on channel=0 note=62 velocity=127 time=0.007291666666666667\n",
      "note_off channel=0 note=62 velocity=127 time=0.019791666666666666\n",
      "note_on channel=0 note=60 velocity=127 time=0.020833333333333332\n",
      "note_on channel=0 note=61 velocity=127 time=0.009375\n",
      "note_off channel=0 note=60 velocity=127 time=0.010416666666666666\n",
      "note_off channel=0 note=61 velocity=127 time=0.009375\n",
      "note_on channel=0 note=60 velocity=127 time=0.03854166666666667\n",
      "note_off channel=0 note=60 velocity=127 time=0.019791666666666666\n",
      "note_on channel=0 note=60 velocity=127 time=0.04791666666666666\n",
      "note_on channel=0 note=62 velocity=127 time=0.008333333333333333\n",
      "note_off channel=0 note=60 velocity=127 time=0.011458333333333333\n",
      "note_on channel=0 note=61 velocity=127 time=0.0010416666666666667\n",
      "note_off channel=0 note=62 velocity=127 time=0.007291666666666667\n",
      "note_off channel=0 note=61 velocity=127 time=0.0125\n",
      "note_on channel=0 note=60 velocity=127 time=0.027083333333333334\n",
      "note_off channel=0 note=60 velocity=127 time=0.019791666666666666\n",
      "note_on channel=0 note=60 velocity=127 time=0.04791666666666666\n",
      "note_off channel=0 note=60 velocity=127 time=0.019791666666666666\n",
      "note_on channel=0 note=61 velocity=127 time=0.0125\n",
      "note_off channel=0 note=61 velocity=127 time=0.019791666666666666\n",
      "note_on channel=0 note=62 velocity=127 time=0.005208333333333333\n",
      "note_on channel=0 note=60 velocity=127 time=0.010416666666666666\n",
      "note_off channel=0 note=62 velocity=127 time=0.009375\n",
      "note_off channel=0 note=60 velocity=127 time=0.010416666666666666\n",
      "note_on channel=0 note=60 velocity=127 time=0.04791666666666666\n",
      "note_off channel=0 note=60 velocity=127 time=0.019791666666666666\n",
      "note_on channel=0 note=61 velocity=127 time=0.02395833333333333\n",
      "note_off channel=0 note=61 velocity=127 time=0.019791666666666666\n",
      "note_on channel=0 note=60 velocity=127 time=0.004166666666666667\n",
      "note_off channel=0 note=60 velocity=127 time=0.019791666666666666\n",
      "note_on channel=0 note=62 velocity=127 time=0.019791666666666666\n",
      "note_off channel=0 note=62 velocity=127 time=0.019791666666666666\n",
      "note_on channel=0 note=60 velocity=127 time=0.009375\n",
      "note_off channel=0 note=60 velocity=127 time=0.019791666666666666\n",
      "note_on channel=0 note=61 velocity=127 time=0.035416666666666666\n",
      "note_on channel=0 note=60 velocity=127 time=0.0125\n",
      "note_off channel=0 note=61 velocity=127 time=0.007291666666666667\n",
      "note_off channel=0 note=60 velocity=127 time=0.0125\n",
      "note_on channel=0 note=60 velocity=127 time=0.04791666666666666\n",
      "note_off channel=0 note=60 velocity=127 time=0.019791666666666666\n",
      "note_on channel=0 note=62 velocity=127 time=0.0010416666666666667\n",
      "note_off channel=0 note=62 velocity=127 time=0.019791666666666666\n",
      "note_on channel=0 note=61 velocity=127 time=0.027083333333333334\n",
      "note_on channel=0 note=60 velocity=127 time=0.0010416666666666667\n",
      "note_off channel=0 note=61 velocity=127 time=0.01875\n",
      "note_off channel=0 note=60 velocity=127 time=0.0010416666666666667\n",
      "note_on channel=0 note=60 velocity=127 time=0.04791666666666666\n",
      "note_off channel=0 note=60 velocity=127 time=0.019791666666666666\n",
      "note_on channel=0 note=60 velocity=127 time=0.04791666666666666\n",
      "note_on channel=0 note=62 velocity=127 time=0.0020833333333333333\n",
      "note_on channel=0 note=61 velocity=127 time=0.008333333333333333\n",
      "note_off channel=0 note=60 velocity=127 time=0.009375\n",
      "note_off channel=0 note=62 velocity=127 time=0.0020833333333333333\n",
      "note_off channel=0 note=61 velocity=127 time=0.008333333333333333\n",
      "note_on channel=0 note=60 velocity=127 time=0.0375\n",
      "note_off channel=0 note=60 velocity=127 time=0.019791666666666666\n",
      "note_on channel=0 note=60 velocity=127 time=0.04791666666666666\n",
      "note_off channel=0 note=60 velocity=127 time=0.019791666666666666\n",
      "note_on channel=0 note=61 velocity=127 time=0.0020833333333333333\n",
      "note_off channel=0 note=61 velocity=127 time=0.019791666666666666\n",
      "note_on channel=0 note=62 velocity=127 time=0.009375\n",
      "note_on channel=0 note=60 velocity=127 time=0.016666666666666666\n",
      "note_off channel=0 note=62 velocity=127 time=0.003125\n",
      "note_off channel=0 note=60 velocity=127 time=0.016666666666666666\n",
      "note_on channel=0 note=60 velocity=127 time=0.04791666666666666\n",
      "note_off channel=0 note=60 velocity=127 time=0.019791666666666666\n",
      "note_on channel=0 note=61 velocity=127 time=0.013541666666666667\n",
      "note_off channel=0 note=61 velocity=127 time=0.019791666666666666\n",
      "note_on channel=0 note=60 velocity=127 time=0.014583333333333334\n",
      "note_off channel=0 note=60 velocity=127 time=0.019791666666666666\n",
      "note_on channel=0 note=62 velocity=127 time=0.0125\n",
      "note_off channel=0 note=62 velocity=127 time=0.019791666666666666\n",
      "note_on channel=0 note=60 velocity=127 time=0.015625\n",
      "note_off channel=0 note=60 velocity=127 time=0.019791666666666666\n",
      "note_on channel=0 note=61 velocity=127 time=0.025\n",
      "note_off channel=0 note=61 velocity=127 time=0.019791666666666666\n",
      "note_on channel=0 note=60 velocity=127 time=0.003125\n",
      "note_off channel=0 note=60 velocity=127 time=0.019791666666666666\n",
      "note_on channel=0 note=60 velocity=127 time=0.04791666666666666\n",
      "note_on channel=0 note=62 velocity=127 time=0.013541666666666667\n",
      "note_off channel=0 note=60 velocity=127 time=0.00625\n",
      "note_off channel=0 note=62 velocity=127 time=0.013541666666666667\n",
      "note_on channel=0 note=61 velocity=127 time=0.022916666666666665\n",
      "note_on channel=0 note=60 velocity=127 time=0.011458333333333333\n",
      "note_off channel=0 note=61 velocity=127 time=0.008333333333333333\n",
      "note_off channel=0 note=60 velocity=127 time=0.011458333333333333\n",
      "note_on channel=0 note=60 velocity=127 time=0.04791666666666666\n",
      "note_off channel=0 note=60 velocity=127 time=0.019791666666666666\n",
      "note_on channel=0 note=62 velocity=127 time=0.042708333333333334\n",
      "note_on channel=0 note=60 velocity=127 time=0.005208333333333333\n",
      "note_on channel=0 note=61 velocity=127 time=0\n",
      "note_off channel=0 note=62 velocity=127 time=0.014583333333333334\n",
      "note_off channel=0 note=60 velocity=127 time=0.005208333333333333\n",
      "note_off channel=0 note=61 velocity=127 time=0\n",
      "note_on channel=0 note=60 velocity=127 time=0.04791666666666666\n",
      "note_off channel=0 note=60 velocity=127 time=0.019791666666666666\n",
      "note_on channel=0 note=60 velocity=127 time=0.04791666666666666\n",
      "note_on channel=0 note=61 velocity=127 time=0.011458333333333333\n",
      "note_off channel=0 note=60 velocity=127 time=0.008333333333333333\n",
      "note_off channel=0 note=61 velocity=127 time=0.011458333333333333\n",
      "note_on channel=0 note=62 velocity=127 time=0.0125\n",
      "note_off channel=0 note=62 velocity=127 time=0.019791666666666666\n",
      "note_on channel=0 note=60 velocity=127 time=0.004166666666666667\n",
      "note_off channel=0 note=60 velocity=127 time=0.019791666666666666\n",
      "note_on channel=0 note=60 velocity=127 time=0.04791666666666666\n",
      "note_off channel=0 note=60 velocity=127 time=0.019791666666666666\n",
      "note_on channel=0 note=61 velocity=127 time=0.003125\n",
      "note_off channel=0 note=61 velocity=127 time=0.019791666666666666\n",
      "note_on channel=0 note=60 velocity=127 time=0.025\n",
      "note_off channel=0 note=60 velocity=127 time=0.019791666666666666\n",
      "note_on channel=0 note=62 velocity=127 time=0.005208333333333333\n",
      "note_off channel=0 note=62 velocity=127 time=0.019791666666666666\n",
      "note_on channel=0 note=60 velocity=127 time=0.022916666666666665\n",
      "note_off channel=0 note=60 velocity=127 time=0.019791666666666666\n",
      "note_on channel=0 note=61 velocity=127 time=0.014583333333333334\n",
      "note_off channel=0 note=61 velocity=127 time=0.019791666666666666\n",
      "note_on channel=0 note=60 velocity=127 time=0.013541666666666667\n",
      "note_off channel=0 note=60 velocity=127 time=0.019791666666666666\n",
      "note_on channel=0 note=60 velocity=127 time=0.04791666666666666\n",
      "\u001b[91m [DEBUG] > \u001b[0m\n",
      " |>  to_array: msg.time > max_t; t, n\n",
      " |>  3.0125000000000024\n",
      " |>  150\n",
      "note_on channel=0 note=60 velocity=127 time=0.0020833333333333333\n",
      "note_on channel=0 note=62 velocity=127 time=0.00625\n",
      "note_off channel=0 note=60 velocity=127 time=0.014583333333333334\n",
      "note_off channel=0 note=62 velocity=127 time=0.00625\n",
      "note_on channel=0 note=60 velocity=127 time=0.06041666666666667\n",
      "note_off channel=0 note=60 velocity=127 time=0.019791666666666666\n",
      "note_on channel=0 note=62 velocity=127 time=0.02395833333333333\n",
      "note_off channel=0 note=62 velocity=127 time=0.019791666666666666\n",
      "note_on channel=0 note=60 velocity=127 time=0.021875\n",
      "note_on channel=0 note=61 velocity=127 time=0.007291666666666667\n",
      "note_off channel=0 note=60 velocity=127 time=0.013541666666666667\n",
      "note_off channel=0 note=61 velocity=127 time=0.007291666666666667\n",
      "note_on channel=0 note=62 velocity=127 time=0.05520833333333333\n",
      "note_on channel=0 note=60 velocity=127 time=0.004166666666666667\n",
      "note_off channel=0 note=62 velocity=127 time=0.015625\n",
      "note_off channel=0 note=60 velocity=127 time=0.004166666666666667\n",
      "note_on channel=0 note=60 velocity=127 time=0.065625\n",
      "note_off channel=0 note=60 velocity=127 time=0.019791666666666666\n",
      "note_on channel=0 note=62 velocity=127 time=0.013541666666666667\n",
      "note_off channel=0 note=62 velocity=127 time=0.019791666666666666\n",
      "note_on channel=0 note=60 velocity=127 time=0.03229166666666666\n",
      "note_on channel=0 note=61 velocity=127 time=0.011458333333333333\n",
      "note_off channel=0 note=60 velocity=127 time=0.008333333333333333\n",
      "note_off channel=0 note=61 velocity=127 time=0.011458333333333333\n",
      "note_on channel=0 note=62 velocity=127 time=0.040625\n",
      "note_on channel=0 note=60 velocity=127 time=0.014583333333333334\n",
      "note_off channel=0 note=62 velocity=127 time=0.00625\n",
      "note_off channel=0 note=60 velocity=127 time=0.014583333333333334\n",
      "note_on channel=0 note=60 velocity=127 time=0.065625\n",
      "note_off channel=0 note=60 velocity=127 time=0.019791666666666666\n",
      "note_on channel=0 note=62 velocity=127 time=0.004166666666666667\n",
      "note_off channel=0 note=62 velocity=127 time=0.019791666666666666\n",
      "note_on channel=0 note=60 velocity=127 time=0.042708333333333334\n",
      "note_on channel=0 note=61 velocity=127 time=0.015625\n",
      "note_off channel=0 note=60 velocity=127 time=0.004166666666666667\n",
      "note_off channel=0 note=61 velocity=127 time=0.015625\n",
      "note_on channel=0 note=62 velocity=127 time=0.026041666666666668\n",
      "note_off channel=0 note=62 velocity=127 time=0.019791666666666666\n",
      "note_on channel=0 note=60 velocity=127 time=0.004166666666666667\n",
      "note_off channel=0 note=60 velocity=127 time=0.019791666666666666\n",
      "note_on channel=0 note=60 velocity=127 time=0.065625\n",
      "note_on channel=0 note=62 velocity=127 time=0.013541666666666667\n",
      "note_off channel=0 note=60 velocity=127 time=0.00625\n",
      "note_off channel=0 note=62 velocity=127 time=0.013541666666666667\n",
      "note_on channel=0 note=60 velocity=127 time=0.052083333333333336\n",
      "note_on channel=0 note=61 velocity=127 time=0.019791666666666666\n",
      "note_off channel=0 note=60 velocity=127 time=0\n",
      "note_off channel=0 note=61 velocity=127 time=0.019791666666666666\n",
      "note_on channel=0 note=62 velocity=127 time=0.011458333333333333\n",
      "note_off channel=0 note=62 velocity=127 time=0.019791666666666666\n",
      "note_on channel=0 note=60 velocity=127 time=0.014583333333333334\n",
      "note_off channel=0 note=60 velocity=127 time=0.019791666666666666\n",
      "note_on channel=0 note=60 velocity=127 time=0.065625\n",
      "note_on channel=0 note=62 velocity=127 time=0.003125\n",
      "note_off channel=0 note=60 velocity=127 time=0.016666666666666666\n",
      "note_off channel=0 note=62 velocity=127 time=0.003125\n",
      "note_on channel=0 note=60 velocity=127 time=0.0625\n",
      "note_off channel=0 note=60 velocity=127 time=0.019791666666666666\n",
      "note_on channel=0 note=61 velocity=127 time=0.004166666666666667\n",
      "note_on channel=0 note=62 velocity=127 time=0.017708333333333333\n",
      "note_off channel=0 note=61 velocity=127 time=0.003125\n",
      "note_off channel=0 note=62 velocity=127 time=0.017708333333333333\n",
      "note_on channel=0 note=60 velocity=127 time=0.02395833333333333\n",
      "note_off channel=0 note=60 velocity=127 time=0.019791666666666666\n",
      "note_on channel=0 note=62 velocity=127 time=0.059375\n",
      "note_on channel=0 note=60 velocity=127 time=0.00625\n",
      "note_off channel=0 note=62 velocity=127 time=0.013541666666666667\n",
      "note_off channel=0 note=60 velocity=127 time=0.00625\n",
      "note_on channel=0 note=60 velocity=127 time=0.065625\n",
      "note_off channel=0 note=60 velocity=127 time=0.019791666666666666\n",
      "note_on channel=0 note=61 velocity=127 time=0.008333333333333333\n",
      "note_on channel=0 note=62 velocity=127 time=0.003125\n",
      "note_off channel=0 note=61 velocity=127 time=0.016666666666666666\n",
      "note_off channel=0 note=62 velocity=127 time=0.003125\n",
      "note_on channel=0 note=60 velocity=127 time=0.034375\n",
      "note_off channel=0 note=60 velocity=127 time=0.019791666666666666\n",
      "note_on channel=0 note=62 velocity=127 time=0.05\n",
      "note_on channel=0 note=60 velocity=127 time=0.016666666666666666\n",
      "note_off channel=0 note=62 velocity=127 time=0.003125\n",
      "note_off channel=0 note=60 velocity=127 time=0.016666666666666666\n",
      "note_on channel=0 note=60 velocity=127 time=0.065625\n",
      "note_off channel=0 note=60 velocity=127 time=0.019791666666666666\n",
      "note_on channel=0 note=62 velocity=127 time=0.0010416666666666667\n",
      "note_on channel=0 note=61 velocity=127 time=0.011458333333333333\n",
      "note_off channel=0 note=62 velocity=127 time=0.008333333333333333\n",
      "note_off channel=0 note=61 velocity=127 time=0.011458333333333333\n",
      "note_on channel=0 note=60 velocity=127 time=0.03333333333333333\n",
      "note_off channel=0 note=60 velocity=127 time=0.019791666666666666\n",
      "note_on channel=0 note=62 velocity=127 time=0.03958333333333333\n",
      "note_off channel=0 note=62 velocity=127 time=0.019791666666666666\n",
      "note_on channel=0 note=60 velocity=127 time=0.00625\n",
      "note_off channel=0 note=60 velocity=127 time=0.019791666666666666\n",
      "note_on channel=0 note=60 velocity=127 time=0.065625\n",
      "note_on channel=0 note=62 velocity=127 time=0.011458333333333333\n",
      "note_off channel=0 note=60 velocity=127 time=0.008333333333333333\n",
      "note_off channel=0 note=62 velocity=127 time=0.011458333333333333\n",
      "note_on channel=0 note=61 velocity=127 time=0.00625\n",
      "note_off channel=0 note=61 velocity=127 time=0.019791666666666666\n",
      "note_on channel=0 note=60 velocity=127 time=0.028125\n",
      "note_off channel=0 note=60 velocity=127 time=0.019791666666666666\n",
      "note_on channel=0 note=62 velocity=127 time=0.029166666666666667\n",
      "note_off channel=0 note=62 velocity=127 time=0.019791666666666666\n",
      "note_on channel=0 note=60 velocity=127 time=0.016666666666666666\n",
      "note_off channel=0 note=60 velocity=127 time=0.019791666666666666\n",
      "note_on channel=0 note=60 velocity=127 time=0.065625\n",
      "note_on channel=0 note=62 velocity=127 time=0.0010416666666666667\n",
      "note_off channel=0 note=60 velocity=127 time=0.01875\n",
      "note_off channel=0 note=62 velocity=127 time=0.0010416666666666667\n",
      "note_on channel=0 note=61 velocity=127 time=0.020833333333333332\n",
      "note_off channel=0 note=61 velocity=127 time=0.019791666666666666\n",
      "note_on channel=0 note=60 velocity=127 time=0.02395833333333333\n",
      "note_off channel=0 note=60 velocity=127 time=0.019791666666666666\n",
      "note_on channel=0 note=62 velocity=127 time=0.019791666666666666\n",
      "note_off channel=0 note=62 velocity=127 time=0.019791666666666666\n",
      "note_on channel=0 note=60 velocity=127 time=0.027083333333333334\n",
      "note_off channel=0 note=60 velocity=127 time=0.019791666666666666\n",
      "note_on channel=0 note=62 velocity=127 time=0.057291666666666664\n",
      "note_on channel=0 note=60 velocity=127 time=0.008333333333333333\n",
      "note_off channel=0 note=62 velocity=127 time=0.011458333333333333\n",
      "note_off channel=0 note=60 velocity=127 time=0.008333333333333333\n",
      "note_on channel=0 note=61 velocity=127 time=0.026041666666666668\n",
      "note_off channel=0 note=61 velocity=127 time=0.019791666666666666\n",
      "note_on channel=0 note=60 velocity=127 time=0.019791666666666666\n",
      "note_off channel=0 note=60 velocity=127 time=0.019791666666666666\n",
      "note_on channel=0 note=62 velocity=127 time=0.009375\n",
      "note_off channel=0 note=62 velocity=127 time=0.019791666666666666\n",
      "note_on channel=0 note=60 velocity=127 time=0.036458333333333336\n",
      "note_off channel=0 note=60 velocity=127 time=0.019791666666666666\n",
      "note_on channel=0 note=62 velocity=127 time=0.046875\n",
      "note_on channel=0 note=60 velocity=127 time=0.01875\n",
      "note_off channel=0 note=62 velocity=127 time=0.0010416666666666667\n",
      "note_off channel=0 note=60 velocity=127 time=0.01875\n",
      "note_on channel=0 note=61 velocity=127 time=0.030208333333333334\n",
      "note_off channel=0 note=61 velocity=127 time=0.019791666666666666\n",
      "note_on channel=0 note=60 velocity=127 time=0.015625\n",
      "note_on channel=0 note=62 velocity=127 time=0.01875\n",
      "note_off channel=0 note=60 velocity=127 time=0.0010416666666666667\n",
      "note_off channel=0 note=62 velocity=127 time=0.01875\n",
      "note_on channel=0 note=60 velocity=127 time=0.046875\n",
      "note_off channel=0 note=60 velocity=127 time=0.019791666666666666\n",
      "note_on channel=0 note=62 velocity=127 time=0.0375\n",
      "note_off channel=0 note=62 velocity=127 time=0.019791666666666666\n",
      "\u001b[91m [DEBUG] > \u001b[0m\n",
      " |>  to_array: msg.time > max_t; t, n\n",
      " |>  2.9937500000000026\n",
      " |>  150\n",
      "note_on channel=0 note=60 velocity=127 time=0.0625\n",
      "note_on channel=0 note=62 velocity=127 time=0.015625\n",
      "note_off channel=0 note=60 velocity=127 time=0.004166666666666667\n",
      "note_off channel=0 note=62 velocity=127 time=0.015625\n",
      "note_on channel=0 note=61 velocity=127 time=0.0625\n",
      "note_off channel=0 note=61 velocity=127 time=0.019791666666666666\n",
      "note_on channel=0 note=60 velocity=127 time=0.017708333333333333\n",
      "note_on channel=0 note=62 velocity=127 time=0.007291666666666667\n",
      "note_off channel=0 note=60 velocity=127 time=0.0125\n",
      "note_off channel=0 note=62 velocity=127 time=0.007291666666666667\n",
      "note_on channel=0 note=62 velocity=127 time=0.10833333333333334\n",
      "note_on channel=0 note=60 velocity=127 time=0.0010416666666666667\n",
      "note_off channel=0 note=62 velocity=127 time=0.01875\n",
      "note_off channel=0 note=60 velocity=127 time=0.0010416666666666667\n",
      "note_on channel=0 note=61 velocity=127 time=0.07708333333333334\n",
      "note_off channel=0 note=61 velocity=127 time=0.019791666666666666\n",
      "note_on channel=0 note=62 velocity=127 time=0.009375\n",
      "note_on channel=0 note=60 velocity=127 time=0.009375\n",
      "note_off channel=0 note=62 velocity=127 time=0.011458333333333333\n",
      "note_off channel=0 note=60 velocity=127 time=0.009375\n",
      "note_on channel=0 note=62 velocity=127 time=0.09895833333333333\n",
      "note_on channel=0 note=60 velocity=127 time=0.017708333333333333\n",
      "note_off channel=0 note=62 velocity=127 time=0.003125\n",
      "note_off channel=0 note=60 velocity=127 time=0.017708333333333333\n",
      "note_on channel=0 note=61 velocity=127 time=0.07708333333333334\n",
      "note_on channel=0 note=62 velocity=127 time=0.013541666666666667\n",
      "note_off channel=0 note=61 velocity=127 time=0.00625\n",
      "note_off channel=0 note=62 velocity=127 time=0.013541666666666667\n",
      "note_on channel=0 note=60 velocity=127 time=0.005208333333333333\n",
      "note_off channel=0 note=60 velocity=127 time=0.019791666666666666\n",
      "note_on channel=0 note=62 velocity=127 time=0.08229166666666667\n",
      "note_off channel=0 note=62 velocity=127 time=0.019791666666666666\n",
      "note_on channel=0 note=60 velocity=127 time=0.013541666666666667\n",
      "note_off channel=0 note=60 velocity=127 time=0.019791666666666666\n",
      "note_on channel=0 note=62 velocity=127 time=0.07395833333333333\n",
      "note_on channel=0 note=61 velocity=127 time=0.0020833333333333333\n",
      "note_off channel=0 note=62 velocity=127 time=0.017708333333333333\n",
      "note_off channel=0 note=61 velocity=127 time=0.0020833333333333333\n",
      "note_on channel=0 note=60 velocity=127 time=0.019791666666666666\n",
      "note_off channel=0 note=60 velocity=127 time=0.019791666666666666\n",
      "note_on channel=0 note=62 velocity=127 time=0.065625\n",
      "note_off channel=0 note=62 velocity=127 time=0.019791666666666666\n",
      "note_on channel=0 note=60 velocity=127 time=0.030208333333333334\n",
      "note_off channel=0 note=60 velocity=127 time=0.019791666666666666\n",
      "note_on channel=0 note=62 velocity=127 time=0.057291666666666664\n",
      "note_on channel=0 note=61 velocity=127 time=0.017708333333333333\n",
      "note_off channel=0 note=62 velocity=127 time=0.0020833333333333333\n",
      "note_off channel=0 note=61 velocity=127 time=0.017708333333333333\n",
      "note_on channel=0 note=60 velocity=127 time=0.020833333333333332\n",
      "note_off channel=0 note=60 velocity=127 time=0.019791666666666666\n",
      "note_on channel=0 note=62 velocity=127 time=0.04895833333333333\n",
      "note_off channel=0 note=62 velocity=127 time=0.019791666666666666\n",
      "note_on channel=0 note=60 velocity=127 time=0.046875\n",
      "note_off channel=0 note=60 velocity=127 time=0.019791666666666666\n",
      "note_on channel=0 note=62 velocity=127 time=0.040625\n",
      "note_off channel=0 note=62 velocity=127 time=0.019791666666666666\n",
      "note_on channel=0 note=61 velocity=127 time=0.013541666666666667\n",
      "note_off channel=0 note=61 velocity=127 time=0.019791666666666666\n",
      "note_on channel=0 note=60 velocity=127 time=0.020833333333333332\n",
      "note_off channel=0 note=60 velocity=127 time=0.019791666666666666\n",
      "note_on channel=0 note=62 velocity=127 time=0.03229166666666666\n",
      "note_off channel=0 note=62 velocity=127 time=0.019791666666666666\n",
      "note_on channel=0 note=60 velocity=127 time=0.06354166666666666\n",
      "note_off channel=0 note=60 velocity=127 time=0.019791666666666666\n",
      "note_on channel=0 note=62 velocity=127 time=0.02395833333333333\n",
      "note_off channel=0 note=62 velocity=127 time=0.019791666666666666\n",
      "note_on channel=0 note=61 velocity=127 time=0.030208333333333334\n",
      "note_off channel=0 note=61 velocity=127 time=0.019791666666666666\n",
      "note_on channel=0 note=60 velocity=127 time=0.021875\n",
      "note_off channel=0 note=60 velocity=127 time=0.019791666666666666\n",
      "note_on channel=0 note=62 velocity=127 time=0.015625\n",
      "note_off channel=0 note=62 velocity=127 time=0.019791666666666666\n",
      "note_on channel=0 note=60 velocity=127 time=0.08020833333333333\n",
      "note_off channel=0 note=60 velocity=127 time=0.019791666666666666\n",
      "note_on channel=0 note=62 velocity=127 time=0.007291666666666667\n",
      "note_off channel=0 note=62 velocity=127 time=0.019791666666666666\n",
      "note_on channel=0 note=61 velocity=127 time=0.04583333333333333\n",
      "note_off channel=0 note=61 velocity=127 time=0.019791666666666666\n",
      "note_on channel=0 note=60 velocity=127 time=0.022916666666666665\n",
      "note_on channel=0 note=62 velocity=127 time=0.019791666666666666\n",
      "note_off channel=0 note=60 velocity=127 time=0\n",
      "note_off channel=0 note=62 velocity=127 time=0.019791666666666666\n",
      "note_on channel=0 note=60 velocity=127 time=0.096875\n",
      "note_on channel=0 note=62 velocity=127 time=0.011458333333333333\n",
      "note_off channel=0 note=60 velocity=127 time=0.008333333333333333\n",
      "note_off channel=0 note=62 velocity=127 time=0.011458333333333333\n",
      "note_on channel=0 note=61 velocity=127 time=0.06145833333333333\n",
      "note_off channel=0 note=61 velocity=127 time=0.019791666666666666\n",
      "note_on channel=0 note=60 velocity=127 time=0.022916666666666665\n",
      "note_on channel=0 note=62 velocity=127 time=0.003125\n",
      "note_off channel=0 note=60 velocity=127 time=0.016666666666666666\n",
      "note_off channel=0 note=62 velocity=127 time=0.003125\n",
      "note_on channel=0 note=62 velocity=127 time=0.10833333333333334\n",
      "note_on channel=0 note=60 velocity=127 time=0.005208333333333333\n",
      "note_off channel=0 note=62 velocity=127 time=0.014583333333333334\n",
      "note_off channel=0 note=60 velocity=127 time=0.005208333333333333\n",
      "note_on channel=0 note=61 velocity=127 time=0.071875\n",
      "note_off channel=0 note=61 velocity=127 time=0.019791666666666666\n",
      "note_on channel=0 note=62 velocity=127 time=0.010416666666666666\n",
      "note_on channel=0 note=60 velocity=127 time=0.013541666666666667\n",
      "note_off channel=0 note=62 velocity=127 time=0.00625\n",
      "note_off channel=0 note=60 velocity=127 time=0.013541666666666667\n",
      "note_on channel=0 note=62 velocity=127 time=0.09479166666666666\n",
      "note_off channel=0 note=62 velocity=127 time=0.019791666666666666\n",
      "note_on channel=0 note=60 velocity=127 time=0.0020833333333333333\n",
      "note_off channel=0 note=60 velocity=127 time=0.019791666666666666\n",
      "note_on channel=0 note=61 velocity=127 time=0.071875\n",
      "note_on channel=0 note=62 velocity=127 time=0.014583333333333334\n",
      "note_off channel=0 note=61 velocity=127 time=0.005208333333333333\n",
      "note_off channel=0 note=62 velocity=127 time=0.014583333333333334\n",
      "note_on channel=0 note=60 velocity=127 time=0.010416666666666666\n",
      "note_off channel=0 note=60 velocity=127 time=0.019791666666666666\n",
      "note_on channel=0 note=62 velocity=127 time=0.078125\n",
      "\u001b[91m [DEBUG] > \u001b[0m\n",
      " |>  to_array: msg.time > max_t; t, n\n",
      " |>  3.0114583333333345\n",
      " |>  150\n",
      "note_on channel=0 note=60 velocity=127 time=0.01875\n",
      "note_off channel=0 note=60 velocity=127 time=0.019791666666666666\n",
      "note_on channel=0 note=61 velocity=127 time=0.03125\n",
      "note_off channel=0 note=61 velocity=127 time=0.019791666666666666\n",
      "note_on channel=0 note=62 velocity=127 time=0.010416666666666666\n",
      "note_on channel=0 note=60 velocity=127 time=0.0125\n",
      "note_off channel=0 note=62 velocity=127 time=0.007291666666666667\n",
      "note_off channel=0 note=60 velocity=127 time=0.0125\n",
      "note_on channel=0 note=61 velocity=127 time=0.029166666666666667\n",
      "note_off channel=0 note=61 velocity=127 time=0.019791666666666666\n",
      "note_on channel=0 note=60 velocity=127 time=0.025\n",
      "note_off channel=0 note=60 velocity=127 time=0.019791666666666666\n",
      "note_on channel=0 note=61 velocity=127 time=0.026041666666666668\n",
      "note_off channel=0 note=61 velocity=127 time=0.019791666666666666\n",
      "note_on channel=0 note=62 velocity=127 time=0.01875\n",
      "note_on channel=0 note=60 velocity=127 time=0.008333333333333333\n",
      "note_off channel=0 note=62 velocity=127 time=0.011458333333333333\n",
      "note_off channel=0 note=60 velocity=127 time=0.008333333333333333\n",
      "note_on channel=0 note=61 velocity=127 time=0.02395833333333333\n",
      "note_off channel=0 note=61 velocity=127 time=0.019791666666666666\n",
      "note_on channel=0 note=60 velocity=127 time=0.030208333333333334\n",
      "note_off channel=0 note=60 velocity=127 time=0.019791666666666666\n",
      "note_on channel=0 note=61 velocity=127 time=0.021875\n",
      "note_off channel=0 note=61 velocity=127 time=0.019791666666666666\n",
      "note_on channel=0 note=62 velocity=127 time=0.027083333333333334\n",
      "note_on channel=0 note=60 velocity=127 time=0.005208333333333333\n",
      "note_off channel=0 note=62 velocity=127 time=0.014583333333333334\n",
      "note_off channel=0 note=60 velocity=127 time=0.005208333333333333\n",
      "note_on channel=0 note=61 velocity=127 time=0.019791666666666666\n",
      "note_off channel=0 note=61 velocity=127 time=0.019791666666666666\n",
      "note_on channel=0 note=60 velocity=127 time=0.034375\n",
      "note_off channel=0 note=60 velocity=127 time=0.019791666666666666\n",
      "note_on channel=0 note=61 velocity=127 time=0.016666666666666666\n",
      "note_off channel=0 note=61 velocity=127 time=0.019791666666666666\n",
      "note_on channel=0 note=62 velocity=127 time=0.035416666666666666\n",
      "note_on channel=0 note=60 velocity=127 time=0.0010416666666666667\n",
      "note_off channel=0 note=62 velocity=127 time=0.01875\n",
      "note_off channel=0 note=60 velocity=127 time=0.0010416666666666667\n",
      "note_on channel=0 note=61 velocity=127 time=0.014583333333333334\n",
      "note_off channel=0 note=61 velocity=127 time=0.019791666666666666\n",
      "note_on channel=0 note=60 velocity=127 time=0.03854166666666667\n",
      "note_off channel=0 note=60 velocity=127 time=0.019791666666666666\n",
      "note_on channel=0 note=61 velocity=127 time=0.0125\n",
      "note_off channel=0 note=61 velocity=127 time=0.019791666666666666\n",
      "note_on channel=0 note=60 velocity=127 time=0.041666666666666664\n",
      "note_on channel=0 note=62 velocity=127 time=0.0020833333333333333\n",
      "note_off channel=0 note=60 velocity=127 time=0.017708333333333333\n"
     ]
    },
    {
     "name": "stdout",
     "output_type": "stream",
     "text": [
      "note_off channel=0 note=62 velocity=127 time=0.0020833333333333333\n",
      "note_on channel=0 note=61 velocity=127 time=0.007291666666666667\n",
      "note_off channel=0 note=61 velocity=127 time=0.019791666666666666\n",
      "note_on channel=0 note=60 velocity=127 time=0.04375\n",
      "note_off channel=0 note=60 velocity=127 time=0.019791666666666666\n",
      "note_on channel=0 note=61 velocity=127 time=0.008333333333333333\n",
      "note_off channel=0 note=61 velocity=127 time=0.019791666666666666\n",
      "note_on channel=0 note=60 velocity=127 time=0.04583333333333333\n",
      "note_on channel=0 note=62 velocity=127 time=0.00625\n",
      "note_off channel=0 note=60 velocity=127 time=0.013541666666666667\n",
      "note_on channel=0 note=61 velocity=127 time=0.005208333333333333\n",
      "note_off channel=0 note=62 velocity=127 time=0.0010416666666666667\n",
      "note_off channel=0 note=61 velocity=127 time=0.019791666666666666\n",
      "note_on channel=0 note=60 velocity=127 time=0.04791666666666666\n",
      "note_off channel=0 note=60 velocity=127 time=0.019791666666666666\n",
      "note_on channel=0 note=61 velocity=127 time=0.003125\n",
      "note_off channel=0 note=61 velocity=127 time=0.019791666666666666\n",
      "note_on channel=0 note=60 velocity=127 time=0.051041666666666666\n",
      "note_on channel=0 note=62 velocity=127 time=0.010416666666666666\n",
      "note_off channel=0 note=60 velocity=127 time=0.010416666666666666\n",
      "note_on channel=0 note=61 velocity=127 time=0.0010416666666666667\n",
      "note_off channel=0 note=62 velocity=127 time=0.009375\n",
      "note_off channel=0 note=61 velocity=127 time=0.010416666666666666\n",
      "note_on channel=0 note=60 velocity=127 time=0.053125\n",
      "note_on channel=0 note=61 velocity=127 time=0.01875\n",
      "note_off channel=0 note=60 velocity=127 time=0.0010416666666666667\n",
      "note_off channel=0 note=61 velocity=127 time=0.01875\n",
      "note_on channel=0 note=60 velocity=127 time=0.05520833333333333\n",
      "note_on channel=0 note=62 velocity=127 time=0.013541666666666667\n",
      "note_on channel=0 note=61 velocity=127 time=0.0020833333333333333\n",
      "note_off channel=0 note=60 velocity=127 time=0.003125\n",
      "note_off channel=0 note=62 velocity=127 time=0.013541666666666667\n",
      "note_off channel=0 note=61 velocity=127 time=0.0020833333333333333\n",
      "note_on channel=0 note=60 velocity=127 time=0.057291666666666664\n",
      "note_on channel=0 note=61 velocity=127 time=0.014583333333333334\n",
      "note_off channel=0 note=60 velocity=127 time=0.00625\n",
      "note_off channel=0 note=61 velocity=127 time=0.014583333333333334\n",
      "note_on channel=0 note=60 velocity=127 time=0.059375\n",
      "note_on channel=0 note=61 velocity=127 time=0.011458333333333333\n",
      "note_on channel=0 note=62 velocity=127 time=0.00625\n",
      "note_off channel=0 note=60 velocity=127 time=0.0020833333333333333\n",
      "note_off channel=0 note=61 velocity=127 time=0.011458333333333333\n",
      "note_off channel=0 note=62 velocity=127 time=0.00625\n",
      "note_on channel=0 note=60 velocity=127 time=0.05625\n",
      "note_on channel=0 note=61 velocity=127 time=0.009375\n",
      "note_off channel=0 note=60 velocity=127 time=0.010416666666666666\n",
      "note_off channel=0 note=61 velocity=127 time=0.009375\n",
      "note_on channel=0 note=60 velocity=127 time=0.06458333333333333\n",
      "note_on channel=0 note=61 velocity=127 time=0.007291666666666667\n",
      "note_off channel=0 note=60 velocity=127 time=0.0125\n",
      "note_on channel=0 note=62 velocity=127 time=0.0010416666666666667\n",
      "note_off channel=0 note=61 velocity=127 time=0.00625\n",
      "note_off channel=0 note=62 velocity=127 time=0.014583333333333334\n",
      "note_on channel=0 note=60 velocity=127 time=0.052083333333333336\n",
      "note_on channel=0 note=61 velocity=127 time=0.005208333333333333\n",
      "note_off channel=0 note=60 velocity=127 time=0.015625\n",
      "note_off channel=0 note=61 velocity=127 time=0.005208333333333333\n",
      "note_on channel=0 note=60 velocity=127 time=0.06875\n",
      "note_on channel=0 note=61 velocity=127 time=0.0020833333333333333\n",
      "note_off channel=0 note=60 velocity=127 time=0.017708333333333333\n",
      "note_off channel=0 note=61 velocity=127 time=0.0020833333333333333\n",
      "note_on channel=0 note=62 velocity=127 time=0.0020833333333333333\n",
      "note_off channel=0 note=62 velocity=127 time=0.019791666666666666\n",
      "note_on channel=0 note=60 velocity=127 time=0.04895833333333333\n",
      "note_on channel=0 note=61 velocity=127 time=0\n",
      "note_off channel=0 note=60 velocity=127 time=0.019791666666666666\n",
      "note_off channel=0 note=61 velocity=127 time=0\n",
      "note_on channel=0 note=61 velocity=127 time=0.071875\n",
      "note_on channel=0 note=60 velocity=127 time=0.0020833333333333333\n",
      "note_off channel=0 note=61 velocity=127 time=0.017708333333333333\n",
      "note_off channel=0 note=60 velocity=127 time=0.0020833333333333333\n",
      "note_on channel=0 note=62 velocity=127 time=0.009375\n",
      "note_off channel=0 note=62 velocity=127 time=0.019791666666666666\n",
      "note_on channel=0 note=61 velocity=127 time=0.040625\n",
      "note_on channel=0 note=60 velocity=127 time=0.004166666666666667\n",
      "note_off channel=0 note=61 velocity=127 time=0.015625\n",
      "note_off channel=0 note=60 velocity=127 time=0.004166666666666667\n",
      "note_on channel=0 note=61 velocity=127 time=0.06666666666666667\n",
      "note_on channel=0 note=60 velocity=127 time=0.00625\n",
      "note_off channel=0 note=61 velocity=127 time=0.013541666666666667\n",
      "note_off channel=0 note=60 velocity=127 time=0.00625\n",
      "note_on channel=0 note=62 velocity=127 time=0.0125\n",
      "note_off channel=0 note=62 velocity=127 time=0.019791666666666666\n",
      "note_on channel=0 note=61 velocity=127 time=0.03229166666666666\n",
      "note_on channel=0 note=60 velocity=127 time=0.009375\n",
      "note_off channel=0 note=61 velocity=127 time=0.011458333333333333\n",
      "note_off channel=0 note=60 velocity=127 time=0.009375\n",
      "note_on channel=0 note=61 velocity=127 time=0.0625\n",
      "note_on channel=0 note=60 velocity=127 time=0.011458333333333333\n",
      "note_off channel=0 note=61 velocity=127 time=0.008333333333333333\n",
      "note_off channel=0 note=60 velocity=127 time=0.011458333333333333\n",
      "note_on channel=0 note=62 velocity=127 time=0.016666666666666666\n",
      "note_off channel=0 note=62 velocity=127 time=0.019791666666666666\n",
      "note_on channel=0 note=61 velocity=127 time=0.02395833333333333\n",
      "note_on channel=0 note=60 velocity=127 time=0.013541666666666667\n",
      "note_off channel=0 note=61 velocity=127 time=0.00625\n",
      "note_off channel=0 note=60 velocity=127 time=0.013541666666666667\n",
      "note_on channel=0 note=61 velocity=127 time=0.058333333333333334\n",
      "note_on channel=0 note=60 velocity=127 time=0.015625\n",
      "note_off channel=0 note=61 velocity=127 time=0.004166666666666667\n",
      "note_off channel=0 note=60 velocity=127 time=0.015625\n",
      "note_on channel=0 note=62 velocity=127 time=0.019791666666666666\n",
      "note_off channel=0 note=62 velocity=127 time=0.019791666666666666\n",
      "note_on channel=0 note=61 velocity=127 time=0.015625\n",
      "note_on channel=0 note=60 velocity=127 time=0.017708333333333333\n",
      "note_off channel=0 note=61 velocity=127 time=0.0020833333333333333\n",
      "note_off channel=0 note=60 velocity=127 time=0.017708333333333333\n",
      "note_on channel=0 note=61 velocity=127 time=0.053125\n",
      "note_off channel=0 note=61 velocity=127 time=0.019791666666666666\n",
      "note_on channel=0 note=60 velocity=127 time=0.0010416666666666667\n",
      "note_off channel=0 note=60 velocity=127 time=0.019791666666666666\n",
      "note_on channel=0 note=62 velocity=127 time=0.02395833333333333\n",
      "note_off channel=0 note=62 velocity=127 time=0.019791666666666666\n",
      "note_on channel=0 note=61 velocity=127 time=0.007291666666666667\n",
      "\u001b[91m [DEBUG] > \u001b[0m\n",
      " |>  to_array: msg.time > max_t; t, n\n",
      " |>  2.9906250000000014\n",
      " |>  150\n",
      "note_on channel=0 note=62 velocity=127 time=0.019791666666666666\n",
      "note_off channel=0 note=62 velocity=127 time=0.019791666666666666\n",
      "note_on channel=0 note=61 velocity=127 time=0.004166666666666667\n",
      "note_off channel=0 note=61 velocity=127 time=0.019791666666666666\n",
      "note_on channel=0 note=60 velocity=127 time=0.020833333333333332\n",
      "note_off channel=0 note=60 velocity=127 time=0.019791666666666666\n",
      "note_on channel=0 note=61 velocity=127 time=0.017708333333333333\n",
      "note_on channel=0 note=62 velocity=127 time=0.003125\n",
      "note_off channel=0 note=61 velocity=127 time=0.016666666666666666\n",
      "note_off channel=0 note=62 velocity=127 time=0.003125\n",
      "note_on channel=0 note=60 velocity=127 time=0.03125\n",
      "note_off channel=0 note=60 velocity=127 time=0.019791666666666666\n",
      "note_on channel=0 note=61 velocity=127 time=0.004166666666666667\n",
      "note_off channel=0 note=61 velocity=127 time=0.019791666666666666\n",
      "note_on channel=0 note=62 velocity=127 time=0.011458333333333333\n",
      "note_off channel=0 note=62 velocity=127 time=0.019791666666666666\n",
      "note_on channel=0 note=60 velocity=127 time=0.017708333333333333\n",
      "note_on channel=0 note=61 velocity=127 time=0.009375\n",
      "note_off channel=0 note=60 velocity=127 time=0.010416666666666666\n",
      "note_off channel=0 note=61 velocity=127 time=0.009375\n",
      "note_on channel=0 note=62 velocity=127 time=0.03854166666666667\n",
      "note_on channel=0 note=61 velocity=127 time=0.019791666666666666\n",
      "note_off channel=0 note=62 velocity=127 time=0\n",
      "note_on channel=0 note=60 velocity=127 time=0.004166666666666667\n",
      "note_off channel=0 note=61 velocity=127 time=0.015625\n",
      "note_off channel=0 note=60 velocity=127 time=0.004166666666666667\n",
      "note_on channel=0 note=61 velocity=127 time=0.05416666666666667\n",
      "note_on channel=0 note=62 velocity=127 time=0.008333333333333333\n",
      "note_on channel=0 note=60 velocity=127 time=0.010416666666666666\n",
      "note_off channel=0 note=61 velocity=127 time=0.0020833333333333333\n",
      "note_off channel=0 note=62 velocity=127 time=0.008333333333333333\n",
      "note_off channel=0 note=60 velocity=127 time=0.010416666666666666\n",
      "note_on channel=0 note=61 velocity=127 time=0.040625\n",
      "note_off channel=0 note=61 velocity=127 time=0.019791666666666666\n",
      "note_on channel=0 note=60 velocity=127 time=0.0125\n",
      "note_on channel=0 note=62 velocity=127 time=0.003125\n",
      "note_off channel=0 note=60 velocity=127 time=0.016666666666666666\n",
      "note_off channel=0 note=62 velocity=127 time=0.003125\n",
      "note_on channel=0 note=61 velocity=127 time=0.022916666666666665\n",
      "note_off channel=0 note=61 velocity=127 time=0.019791666666666666\n",
      "note_on channel=0 note=60 velocity=127 time=0.026041666666666668\n",
      "note_on channel=0 note=62 velocity=127 time=0.017708333333333333\n",
      "note_off channel=0 note=60 velocity=127 time=0.0020833333333333333\n",
      "note_on channel=0 note=61 velocity=127 time=0.0125\n",
      "note_off channel=0 note=62 velocity=127 time=0.005208333333333333\n",
      "note_off channel=0 note=61 velocity=127 time=0.014583333333333334\n",
      "note_on channel=0 note=60 velocity=127 time=0.040625\n",
      "note_on channel=0 note=61 velocity=127 time=0.01875\n",
      "note_off channel=0 note=60 velocity=127 time=0.0020833333333333333\n",
      "note_on channel=0 note=62 velocity=127 time=0.011458333333333333\n",
      "note_off channel=0 note=61 velocity=127 time=0.007291666666666667\n",
      "note_off channel=0 note=62 velocity=127 time=0.0125\n",
      "note_on channel=0 note=60 velocity=127 time=0.041666666666666664\n",
      "note_on channel=0 note=61 velocity=127 time=0.004166666666666667\n",
      "note_off channel=0 note=60 velocity=127 time=0.015625\n",
      "note_off channel=0 note=61 velocity=127 time=0.004166666666666667\n",
      "note_on channel=0 note=62 velocity=127 time=0.020833333333333332\n",
      "note_off channel=0 note=62 velocity=127 time=0.019791666666666666\n",
      "note_on channel=0 note=61 velocity=127 time=0.017708333333333333\n",
      "note_on channel=0 note=60 velocity=127 time=0.009375\n",
      "note_off channel=0 note=61 velocity=127 time=0.010416666666666666\n",
      "note_off channel=0 note=60 velocity=127 time=0.009375\n",
      "note_on channel=0 note=62 velocity=127 time=0.03854166666666667\n",
      "note_on channel=0 note=61 velocity=127 time=0.010416666666666666\n",
      "note_off channel=0 note=62 velocity=127 time=0.009375\n",
      "note_off channel=0 note=61 velocity=127 time=0.010416666666666666\n",
      "note_on channel=0 note=60 velocity=127 time=0.004166666666666667\n",
      "note_off channel=0 note=60 velocity=127 time=0.019791666666666666\n",
      "note_on channel=0 note=61 velocity=127 time=0.035416666666666666\n",
      "note_on channel=0 note=62 velocity=127 time=0.017708333333333333\n",
      "note_off channel=0 note=61 velocity=127 time=0.0020833333333333333\n",
      "note_off channel=0 note=62 velocity=127 time=0.017708333333333333\n",
      "note_on channel=0 note=60 velocity=127 time=0\n",
      "note_off channel=0 note=60 velocity=127 time=0.019791666666666666\n",
      "note_on channel=0 note=61 velocity=127 time=0.020833333333333332\n",
      "note_off channel=0 note=61 velocity=127 time=0.019791666666666666\n",
      "note_on channel=0 note=62 velocity=127 time=0.026041666666666668\n",
      "note_on channel=0 note=60 velocity=127 time=0.00625\n",
      "note_off channel=0 note=62 velocity=127 time=0.013541666666666667\n",
      "note_off channel=0 note=60 velocity=127 time=0.00625\n",
      "note_on channel=0 note=61 velocity=127 time=0.007291666666666667\n",
      "note_off channel=0 note=61 velocity=127 time=0.019791666666666666\n",
      "note_on channel=0 note=60 velocity=127 time=0.04583333333333333\n",
      "note_on channel=0 note=62 velocity=127 time=0.007291666666666667\n",
      "note_on channel=0 note=61 velocity=127 time=0.005208333333333333\n",
      "note_off channel=0 note=60 velocity=127 time=0.007291666666666667\n",
      "note_off channel=0 note=62 velocity=127 time=0.007291666666666667\n",
      "note_off channel=0 note=61 velocity=127 time=0.005208333333333333\n",
      "note_on channel=0 note=61 velocity=127 time=0.058333333333333334\n",
      "note_on channel=0 note=60 velocity=127 time=0.0010416666666666667\n",
      "note_off channel=0 note=61 velocity=127 time=0.01875\n",
      "note_off channel=0 note=60 velocity=127 time=0.0010416666666666667\n",
      "note_on channel=0 note=62 velocity=127 time=0.0010416666666666667\n",
      "note_off channel=0 note=62 velocity=127 time=0.019791666666666666\n",
      "note_on channel=0 note=61 velocity=127 time=0.036458333333333336\n",
      "note_on channel=0 note=60 velocity=127 time=0.015625\n",
      "note_off channel=0 note=61 velocity=127 time=0.005208333333333333\n",
      "note_off channel=0 note=60 velocity=127 time=0.015625\n",
      "note_on channel=0 note=62 velocity=127 time=0.015625\n",
      "note_off channel=0 note=62 velocity=127 time=0.019791666666666666\n",
      "note_on channel=0 note=61 velocity=127 time=0.008333333333333333\n",
      "note_off channel=0 note=61 velocity=127 time=0.019791666666666666\n",
      "note_on channel=0 note=60 velocity=127 time=0.009375\n",
      "note_off channel=0 note=60 velocity=127 time=0.019791666666666666\n",
      "note_on channel=0 note=62 velocity=127 time=0.029166666666666667\n",
      "note_on channel=0 note=61 velocity=127 time=0\n",
      "note_off channel=0 note=62 velocity=127 time=0.019791666666666666\n",
      "note_off channel=0 note=61 velocity=127 time=0\n",
      "note_on channel=0 note=60 velocity=127 time=0.022916666666666665\n",
      "note_off channel=0 note=60 velocity=127 time=0.019791666666666666\n",
      "note_on channel=0 note=61 velocity=127 time=0.015625\n",
      "note_off channel=0 note=61 velocity=127 time=0.019791666666666666\n",
      "note_on channel=0 note=62 velocity=127 time=0.007291666666666667\n",
      "note_off channel=0 note=62 velocity=127 time=0.019791666666666666\n",
      "note_on channel=0 note=60 velocity=127 time=0.009375\n",
      "note_off channel=0 note=60 velocity=127 time=0.019791666666666666\n",
      "note_on channel=0 note=61 velocity=127 time=0.0010416666666666667\n",
      "note_off channel=0 note=61 velocity=127 time=0.019791666666666666\n",
      "note_on channel=0 note=62 velocity=127 time=0.035416666666666666\n",
      "note_on channel=0 note=60 velocity=127 time=0.015625\n",
      "note_off channel=0 note=62 velocity=127 time=0.004166666666666667\n",
      "note_on channel=0 note=61 velocity=127 time=0.003125\n",
      "note_off channel=0 note=60 velocity=127 time=0.0125\n",
      "note_off channel=0 note=61 velocity=127 time=0.007291666666666667\n",
      "note_on channel=0 note=61 velocity=127 time=0.058333333333333334\n",
      "note_on channel=0 note=62 velocity=127 time=0.004166666666666667\n",
      "note_on channel=0 note=60 velocity=127 time=0.0020833333333333333\n",
      "note_off channel=0 note=61 velocity=127 time=0.013541666666666667\n",
      "note_off channel=0 note=62 velocity=127 time=0.004166666666666667\n",
      "note_off channel=0 note=60 velocity=127 time=0.0020833333333333333\n",
      "note_on channel=0 note=61 velocity=127 time=0.052083333333333336\n",
      "note_off channel=0 note=61 velocity=127 time=0.019791666666666666\n",
      "note_on channel=0 note=60 velocity=127 time=0.0010416666666666667\n",
      "note_on channel=0 note=62 velocity=127 time=0.011458333333333333\n",
      "note_off channel=0 note=60 velocity=127 time=0.008333333333333333\n",
      "note_off channel=0 note=62 velocity=127 time=0.011458333333333333\n",
      "note_on channel=0 note=61 velocity=127 time=0.026041666666666668\n",
      "note_off channel=0 note=61 velocity=127 time=0.019791666666666666\n",
      "note_on channel=0 note=60 velocity=127 time=0.014583333333333334\n",
      "note_off channel=0 note=60 velocity=127 time=0.019791666666666666\n",
      "note_on channel=0 note=62 velocity=127 time=0.005208333333333333\n",
      "note_on channel=0 note=61 velocity=127 time=0.01875\n",
      "note_off channel=0 note=62 velocity=127 time=0.0010416666666666667\n",
      "note_off channel=0 note=61 velocity=127 time=0.01875\n",
      "note_on channel=0 note=60 velocity=127 time=0.029166666666666667\n",
      "note_off channel=0 note=60 velocity=127 time=0.019791666666666666\n",
      "note_on channel=0 note=61 velocity=127 time=0.010416666666666666\n",
      "note_on channel=0 note=62 velocity=127 time=0.009375\n",
      "note_off channel=0 note=61 velocity=127 time=0.010416666666666666\n",
      "note_off channel=0 note=62 velocity=127 time=0.009375\n",
      "note_on channel=0 note=60 velocity=127 time=0.03333333333333333\n",
      "note_on channel=0 note=61 velocity=127 time=0.015625\n",
      "note_off channel=0 note=60 velocity=127 time=0.004166666666666667\n",
      "note_off channel=0 note=61 velocity=127 time=0.015625\n",
      "note_on channel=0 note=62 velocity=127 time=0.016666666666666666\n",
      "note_off channel=0 note=62 velocity=127 time=0.019791666666666666\n",
      "note_on channel=0 note=60 velocity=127 time=0.019791666666666666\n",
      "note_on channel=0 note=61 velocity=127 time=0.0020833333333333333\n",
      "note_off channel=0 note=60 velocity=127 time=0.017708333333333333\n",
      "note_off channel=0 note=61 velocity=127 time=0.0020833333333333333\n",
      "note_on channel=0 note=62 velocity=127 time=0.04479166666666667\n",
      "note_on channel=0 note=61 velocity=127 time=0.013541666666666667\n",
      "note_off channel=0 note=62 velocity=127 time=0.00625\n",
      "note_on channel=0 note=60 velocity=127 time=0.00625\n",
      "note_off channel=0 note=61 velocity=127 time=0.008333333333333333\n",
      "note_off channel=0 note=60 velocity=127 time=0.0125\n",
      "note_on channel=0 note=61 velocity=127 time=0.046875\n",
      "note_on channel=0 note=62 velocity=127 time=0.014583333333333334\n",
      "note_off channel=0 note=61 velocity=127 time=0.00625\n",
      "note_on channel=0 note=60 velocity=127 time=0.00625\n",
      "note_off channel=0 note=62 velocity=127 time=0.008333333333333333\n",
      "note_off channel=0 note=60 velocity=127 time=0.0125\n",
      "note_on channel=0 note=61 velocity=127 time=0.03229166666666666\n",
      "note_off channel=0 note=61 velocity=127 time=0.019791666666666666\n",
      "note_on channel=0 note=60 velocity=127 time=0.019791666666666666\n",
      "note_on channel=0 note=62 velocity=127 time=0.0020833333333333333\n",
      "note_off channel=0 note=60 velocity=127 time=0.017708333333333333\n",
      "note_off channel=0 note=62 velocity=127 time=0.0020833333333333333\n",
      "note_on channel=0 note=61 velocity=127 time=0.016666666666666666\n",
      "note_off channel=0 note=61 velocity=127 time=0.019791666666666666\n",
      "note_on channel=0 note=60 velocity=127 time=0.034375\n",
      "note_on channel=0 note=62 velocity=127 time=0.015625\n",
      "note_off channel=0 note=60 velocity=127 time=0.004166666666666667\n",
      "note_on channel=0 note=61 velocity=127 time=0.004166666666666667\n",
      "note_off channel=0 note=62 velocity=127 time=0.011458333333333333\n",
      "note_off channel=0 note=61 velocity=127 time=0.009375\n",
      "note_on channel=0 note=60 velocity=127 time=0.04791666666666666\n",
      "note_on channel=0 note=61 velocity=127 time=0.010416666666666666\n",
      "note_off channel=0 note=60 velocity=127 time=0.009375\n",
      "note_on channel=0 note=62 velocity=127 time=0.009375\n",
      "note_off channel=0 note=61 velocity=127 time=0.0010416666666666667\n",
      "note_off channel=0 note=62 velocity=127 time=0.01875\n",
      "note_on channel=0 note=61 velocity=127 time=0.03958333333333333\n",
      "note_on channel=0 note=60 velocity=127 time=0.003125\n",
      "note_off channel=0 note=61 velocity=127 time=0.016666666666666666\n",
      "note_off channel=0 note=60 velocity=127 time=0.003125\n",
      "note_on channel=0 note=62 velocity=127 time=0.022916666666666665\n",
      "\u001b[91m [DEBUG] > \u001b[0m\n",
      " |>  to_array: msg.time > max_t; t, n\n",
      " |>  2.9937499999999995\n",
      " |>  150\n",
      "note_on channel=0 note=61 velocity=127 time=0.029166666666666667\n",
      "note_off channel=0 note=61 velocity=127 time=0.019791666666666666\n",
      "note_on channel=0 note=60 velocity=127 time=0.08645833333333333\n",
      "note_on channel=0 note=62 velocity=127 time=0.017708333333333333\n",
      "note_off channel=0 note=60 velocity=127 time=0.0020833333333333333\n",
      "note_off channel=0 note=62 velocity=127 time=0.017708333333333333\n",
      "note_on channel=0 note=61 velocity=127 time=0.02395833333333333\n",
      "note_off channel=0 note=61 velocity=127 time=0.019791666666666666\n",
      "note_on channel=0 note=60 velocity=127 time=0.09166666666666666\n",
      "note_on channel=0 note=62 velocity=127 time=0.013541666666666667\n",
      "note_off channel=0 note=60 velocity=127 time=0.00625\n",
      "note_off channel=0 note=62 velocity=127 time=0.013541666666666667\n",
      "note_on channel=0 note=61 velocity=127 time=0.02395833333333333\n",
      "note_off channel=0 note=61 velocity=127 time=0.019791666666666666\n",
      "note_on channel=0 note=60 velocity=127 time=0.09583333333333333\n",
      "note_on channel=0 note=62 velocity=127 time=0.009375\n",
      "note_off channel=0 note=60 velocity=127 time=0.010416666666666666\n",
      "note_off channel=0 note=62 velocity=127 time=0.009375\n",
      "note_on channel=0 note=61 velocity=127 time=0.02395833333333333\n",
      "note_off channel=0 note=61 velocity=127 time=0.019791666666666666\n",
      "note_on channel=0 note=60 velocity=127 time=0.1\n",
      "note_on channel=0 note=62 velocity=127 time=0.005208333333333333\n",
      "note_off channel=0 note=60 velocity=127 time=0.014583333333333334\n",
      "note_off channel=0 note=62 velocity=127 time=0.005208333333333333\n",
      "note_on channel=0 note=61 velocity=127 time=0.022916666666666665\n",
      "note_off channel=0 note=61 velocity=127 time=0.019791666666666666\n",
      "note_on channel=0 note=60 velocity=127 time=0.10416666666666667\n",
      "note_on channel=0 note=62 velocity=127 time=0.0010416666666666667\n",
      "note_off channel=0 note=60 velocity=127 time=0.01875\n",
      "note_off channel=0 note=62 velocity=127 time=0.0010416666666666667\n",
      "note_on channel=0 note=61 velocity=127 time=0.022916666666666665\n",
      "note_off channel=0 note=61 velocity=127 time=0.019791666666666666\n",
      "note_on channel=0 note=62 velocity=127 time=0.10520833333333333\n",
      "note_on channel=0 note=60 velocity=127 time=0.0020833333333333333\n",
      "note_off channel=0 note=62 velocity=127 time=0.017708333333333333\n",
      "note_off channel=0 note=60 velocity=127 time=0.0020833333333333333\n",
      "note_on channel=0 note=61 velocity=127 time=0.020833333333333332\n",
      "note_off channel=0 note=61 velocity=127 time=0.019791666666666666\n",
      "note_on channel=0 note=62 velocity=127 time=0.10625\n",
      "note_on channel=0 note=60 velocity=127 time=0.00625\n",
      "note_off channel=0 note=62 velocity=127 time=0.013541666666666667\n",
      "note_off channel=0 note=60 velocity=127 time=0.00625\n",
      "note_on channel=0 note=61 velocity=127 time=0.016666666666666666\n",
      "note_off channel=0 note=61 velocity=127 time=0.019791666666666666\n",
      "note_on channel=0 note=62 velocity=127 time=0.10625\n",
      "note_on channel=0 note=60 velocity=127 time=0.010416666666666666\n",
      "note_off channel=0 note=62 velocity=127 time=0.009375\n",
      "note_off channel=0 note=60 velocity=127 time=0.010416666666666666\n",
      "note_on channel=0 note=61 velocity=127 time=0.011458333333333333\n",
      "note_off channel=0 note=61 velocity=127 time=0.019791666666666666\n",
      "note_on channel=0 note=62 velocity=127 time=0.10625\n",
      "note_on channel=0 note=60 velocity=127 time=0.014583333333333334\n",
      "note_off channel=0 note=62 velocity=127 time=0.005208333333333333\n",
      "note_off channel=0 note=60 velocity=127 time=0.014583333333333334\n",
      "note_on channel=0 note=61 velocity=127 time=0.007291666666666667\n",
      "note_off channel=0 note=61 velocity=127 time=0.019791666666666666\n",
      "note_on channel=0 note=62 velocity=127 time=0.10625\n",
      "note_on channel=0 note=60 velocity=127 time=0.01875\n",
      "note_off channel=0 note=62 velocity=127 time=0.0010416666666666667\n",
      "note_off channel=0 note=60 velocity=127 time=0.01875\n",
      "note_on channel=0 note=61 velocity=127 time=0.003125\n",
      "note_off channel=0 note=61 velocity=127 time=0.019791666666666666\n",
      "note_on channel=0 note=62 velocity=127 time=0.10625\n",
      "note_off channel=0 note=62 velocity=127 time=0.019791666666666666\n",
      "note_on channel=0 note=60 velocity=127 time=0.003125\n",
      "note_on channel=0 note=61 velocity=127 time=0.01875\n",
      "note_off channel=0 note=60 velocity=127 time=0.0010416666666666667\n",
      "note_off channel=0 note=61 velocity=127 time=0.01875\n",
      "note_on channel=0 note=62 velocity=127 time=0.10625\n",
      "note_off channel=0 note=62 velocity=127 time=0.019791666666666666\n",
      "note_on channel=0 note=60 velocity=127 time=0.007291666666666667\n",
      "note_on channel=0 note=61 velocity=127 time=0.014583333333333334\n",
      "note_off channel=0 note=60 velocity=127 time=0.005208333333333333\n",
      "note_off channel=0 note=61 velocity=127 time=0.014583333333333334\n",
      "note_on channel=0 note=62 velocity=127 time=0.10729166666666666\n",
      "note_off channel=0 note=62 velocity=127 time=0.019791666666666666\n",
      "note_on channel=0 note=60 velocity=127 time=0.011458333333333333\n",
      "note_on channel=0 note=61 velocity=127 time=0.010416666666666666\n",
      "note_off channel=0 note=60 velocity=127 time=0.009375\n",
      "note_off channel=0 note=61 velocity=127 time=0.010416666666666666\n",
      "note_on channel=0 note=62 velocity=127 time=0.10729166666666666\n",
      "note_off channel=0 note=62 velocity=127 time=0.019791666666666666\n",
      "note_on channel=0 note=60 velocity=127 time=0.015625\n",
      "note_on channel=0 note=61 velocity=127 time=0.00625\n",
      "note_off channel=0 note=60 velocity=127 time=0.013541666666666667\n",
      "note_off channel=0 note=61 velocity=127 time=0.00625\n",
      "note_on channel=0 note=62 velocity=127 time=0.10729166666666666\n",
      "note_off channel=0 note=62 velocity=127 time=0.019791666666666666\n",
      "note_on channel=0 note=60 velocity=127 time=0.019791666666666666\n",
      "note_on channel=0 note=61 velocity=127 time=0.0020833333333333333\n",
      "note_off channel=0 note=60 velocity=127 time=0.017708333333333333\n",
      "note_off channel=0 note=61 velocity=127 time=0.0020833333333333333\n",
      "note_on channel=0 note=62 velocity=127 time=0.10729166666666666\n",
      "note_off channel=0 note=62 velocity=127 time=0.019791666666666666\n",
      "note_on channel=0 note=61 velocity=127 time=0.020833333333333332\n",
      "note_on channel=0 note=60 velocity=127 time=0.0020833333333333333\n",
      "note_off channel=0 note=61 velocity=127 time=0.017708333333333333\n",
      "note_off channel=0 note=60 velocity=127 time=0.0020833333333333333\n",
      "note_on channel=0 note=62 velocity=127 time=0.10520833333333333\n",
      "note_off channel=0 note=62 velocity=127 time=0.019791666666666666\n",
      "note_on channel=0 note=61 velocity=127 time=0.020833333333333332\n",
      "note_on channel=0 note=60 velocity=127 time=0.00625\n",
      "note_off channel=0 note=61 velocity=127 time=0.013541666666666667\n",
      "note_off channel=0 note=60 velocity=127 time=0.00625\n",
      "note_on channel=0 note=62 velocity=127 time=0.10104166666666667\n",
      "\u001b[91m [DEBUG] > \u001b[0m\n",
      " |>  to_array: msg.time > max_t; t, n\n",
      " |>  3.0135416666666686\n",
      " |>  150\n",
      "note_on channel=0 note=60 velocity=127 time=0.004166666666666667\n",
      "note_on channel=0 note=61 velocity=127 time=0.019791666666666666\n",
      "note_off channel=0 note=60 velocity=127 time=0\n",
      "note_off channel=0 note=61 velocity=127 time=0.019791666666666666\n",
      "note_on channel=0 note=60 velocity=127 time=0.027083333333333334\n",
      "note_off channel=0 note=60 velocity=127 time=0.019791666666666666\n",
      "note_on channel=0 note=61 velocity=127 time=0.011458333333333333\n",
      "note_on channel=0 note=62 velocity=127 time=0.016666666666666666\n",
      "note_off channel=0 note=61 velocity=127 time=0.004166666666666667\n",
      "note_on channel=0 note=60 velocity=127 time=0.015625\n",
      "note_off channel=0 note=62 velocity=127 time=0.0010416666666666667\n",
      "note_off channel=0 note=60 velocity=127 time=0.01875\n",
      "note_on channel=0 note=61 velocity=127 time=0.022916666666666665\n",
      "note_off channel=0 note=61 velocity=127 time=0.019791666666666666\n",
      "note_on channel=0 note=60 velocity=127 time=0.003125\n",
      "note_off channel=0 note=60 velocity=127 time=0.019791666666666666\n",
      "note_on channel=0 note=61 velocity=127 time=0.035416666666666666\n",
      "note_on channel=0 note=62 velocity=127 time=0.00625\n",
      "note_on channel=0 note=60 velocity=127 time=0.005208333333333333\n",
      "note_off channel=0 note=61 velocity=127 time=0.008333333333333333\n",
      "note_off channel=0 note=62 velocity=127 time=0.00625\n",
      "note_off channel=0 note=60 velocity=127 time=0.005208333333333333\n",
      "note_on channel=0 note=61 velocity=127 time=0.046875\n",
      "note_on channel=0 note=60 velocity=127 time=0\n",
      "note_off channel=0 note=61 velocity=127 time=0.019791666666666666\n",
      "note_off channel=0 note=60 velocity=127 time=0\n",
      "note_on channel=0 note=60 velocity=127 time=0.046875\n",
      "note_on channel=0 note=62 velocity=127 time=0.008333333333333333\n",
      "note_on channel=0 note=61 velocity=127 time=0.003125\n",
      "note_off channel=0 note=60 velocity=127 time=0.008333333333333333\n",
      "note_off channel=0 note=62 velocity=127 time=0.008333333333333333\n",
      "note_off channel=0 note=61 velocity=127 time=0.003125\n",
      "note_on channel=0 note=60 velocity=127 time=0.035416666666666666\n",
      "note_off channel=0 note=60 velocity=127 time=0.019791666666666666\n",
      "note_on channel=0 note=61 velocity=127 time=0.003125\n",
      "note_off channel=0 note=61 velocity=127 time=0.019791666666666666\n",
      "note_on channel=0 note=60 velocity=127 time=0.02395833333333333\n",
      "note_off channel=0 note=60 velocity=127 time=0.019791666666666666\n",
      "note_on channel=0 note=62 velocity=127 time=0.0020833333333333333\n",
      "note_on channel=0 note=61 velocity=127 time=0.013541666666666667\n",
      "note_off channel=0 note=62 velocity=127 time=0.00625\n",
      "note_off channel=0 note=61 velocity=127 time=0.013541666666666667\n",
      "note_on channel=0 note=60 velocity=127 time=0.011458333333333333\n",
      "note_off channel=0 note=60 velocity=127 time=0.019791666666666666\n",
      "note_on channel=0 note=61 velocity=127 time=0.027083333333333334\n",
      "note_off channel=0 note=61 velocity=127 time=0.019791666666666666\n",
      "note_on channel=0 note=60 velocity=127 time=0\n",
      "note_off channel=0 note=60 velocity=127 time=0.019791666666666666\n",
      "note_on channel=0 note=62 velocity=127 time=0.015625\n",
      "note_off channel=0 note=62 velocity=127 time=0.019791666666666666\n",
      "note_on channel=0 note=61 velocity=127 time=0.003125\n",
      "note_on channel=0 note=60 velocity=127 time=0.008333333333333333\n",
      "note_off channel=0 note=61 velocity=127 time=0.011458333333333333\n",
      "note_off channel=0 note=60 velocity=127 time=0.008333333333333333\n",
      "note_on channel=0 note=60 velocity=127 time=0.046875\n",
      "note_on channel=0 note=61 velocity=127 time=0.003125\n",
      "note_off channel=0 note=60 velocity=127 time=0.016666666666666666\n",
      "note_off channel=0 note=61 velocity=127 time=0.003125\n",
      "note_on channel=0 note=62 velocity=127 time=0.025\n",
      "note_on channel=0 note=60 velocity=127 time=0.01875\n",
      "note_off channel=0 note=62 velocity=127 time=0.0020833333333333333\n",
      "note_on channel=0 note=61 velocity=127 time=0.013541666666666667\n",
      "note_off channel=0 note=60 velocity=127 time=0.005208333333333333\n",
      "note_off channel=0 note=61 velocity=127 time=0.014583333333333334\n",
      "note_on channel=0 note=60 velocity=127 time=0.03229166666666666\n",
      "note_off channel=0 note=60 velocity=127 time=0.019791666666666666\n",
      "note_on channel=0 note=61 velocity=127 time=0.00625\n",
      "note_off channel=0 note=61 velocity=127 time=0.019791666666666666\n",
      "note_on channel=0 note=62 velocity=127 time=0.015625\n",
      "note_on channel=0 note=60 velocity=127 time=0.005208333333333333\n",
      "note_off channel=0 note=62 velocity=127 time=0.015625\n",
      "note_off channel=0 note=60 velocity=127 time=0.005208333333333333\n",
      "note_on channel=0 note=61 velocity=127 time=0.01875\n",
      "note_off channel=0 note=61 velocity=127 time=0.019791666666666666\n",
      "note_on channel=0 note=60 velocity=127 time=0.008333333333333333\n",
      "note_off channel=0 note=60 velocity=127 time=0.019791666666666666\n",
      "note_on channel=0 note=61 velocity=127 time=0.030208333333333334\n",
      "note_on channel=0 note=60 velocity=127 time=0.016666666666666666\n",
      "note_off channel=0 note=61 velocity=127 time=0.003125\n",
      "note_on channel=0 note=62 velocity=127 time=0.005208333333333333\n",
      "note_off channel=0 note=60 velocity=127 time=0.011458333333333333\n",
      "note_off channel=0 note=62 velocity=127 time=0.008333333333333333\n",
      "note_on channel=0 note=61 velocity=127 time=0.03333333333333333\n",
      "note_on channel=0 note=60 velocity=127 time=0.005208333333333333\n",
      "note_off channel=0 note=61 velocity=127 time=0.014583333333333334\n",
      "note_off channel=0 note=60 velocity=127 time=0.005208333333333333\n",
      "note_on channel=0 note=60 velocity=127 time=0.046875\n",
      "note_on channel=0 note=61 velocity=127 time=0.00625\n",
      "note_off channel=0 note=60 velocity=127 time=0.013541666666666667\n",
      "note_on channel=0 note=62 velocity=127 time=0.0020833333333333333\n",
      "note_off channel=0 note=61 velocity=127 time=0.004166666666666667\n",
      "note_off channel=0 note=62 velocity=127 time=0.015625\n",
      "note_on channel=0 note=60 velocity=127 time=0.025\n",
      "note_on channel=0 note=61 velocity=127 time=0.01875\n",
      "note_off channel=0 note=60 velocity=127 time=0.0020833333333333333\n",
      "note_off channel=0 note=61 velocity=127 time=0.01875\n",
      "note_on channel=0 note=60 velocity=127 time=0.028125\n",
      "note_off channel=0 note=60 velocity=127 time=0.019791666666666666\n",
      "note_on channel=0 note=61 velocity=127 time=0.010416666666666666\n",
      "note_on channel=0 note=62 velocity=127 time=0.00625\n",
      "note_off channel=0 note=61 velocity=127 time=0.014583333333333334\n",
      "note_off channel=0 note=62 velocity=127 time=0.00625\n",
      "note_on channel=0 note=60 velocity=127 time=0.011458333333333333\n",
      "note_off channel=0 note=60 velocity=127 time=0.019791666666666666\n",
      "note_on channel=0 note=61 velocity=127 time=0.021875\n",
      "note_off channel=0 note=61 velocity=127 time=0.019791666666666666\n",
      "note_on channel=0 note=60 velocity=127 time=0.005208333333333333\n",
      "note_off channel=0 note=60 velocity=127 time=0.019791666666666666\n",
      "note_on channel=0 note=62 velocity=127 time=0.029166666666666667\n",
      "note_on channel=0 note=61 velocity=127 time=0.004166666666666667\n",
      "note_on channel=0 note=60 velocity=127 time=0.013541666666666667\n",
      "note_off channel=0 note=62 velocity=127 time=0.0020833333333333333\n",
      "note_off channel=0 note=61 velocity=127 time=0.004166666666666667\n",
      "note_off channel=0 note=60 velocity=127 time=0.013541666666666667\n",
      "note_on channel=0 note=61 velocity=127 time=0.04479166666666667\n",
      "note_on channel=0 note=60 velocity=127 time=0.0020833333333333333\n",
      "note_off channel=0 note=61 velocity=127 time=0.01875\n",
      "note_off channel=0 note=60 velocity=127 time=0.0020833333333333333\n",
      "note_on channel=0 note=62 velocity=127 time=0.042708333333333334\n",
      "note_on channel=0 note=60 velocity=127 time=0.004166666666666667\n",
      "note_on channel=0 note=61 velocity=127 time=0.010416666666666666\n",
      "note_off channel=0 note=62 velocity=127 time=0.00625\n",
      "note_off channel=0 note=60 velocity=127 time=0.004166666666666667\n",
      "note_off channel=0 note=61 velocity=127 time=0.010416666666666666\n",
      "note_on channel=0 note=60 velocity=127 time=0.036458333333333336\n",
      "note_off channel=0 note=60 velocity=127 time=0.019791666666666666\n",
      "note_on channel=0 note=61 velocity=127 time=0.0020833333333333333\n",
      "note_off channel=0 note=61 velocity=127 time=0.019791666666666666\n",
      "note_on channel=0 note=60 velocity=127 time=0.025\n",
      "note_on channel=0 note=62 velocity=127 time=0.009375\n",
      "note_off channel=0 note=60 velocity=127 time=0.010416666666666666\n",
      "note_off channel=0 note=62 velocity=127 time=0.009375\n",
      "note_on channel=0 note=61 velocity=127 time=0.004166666666666667\n",
      "note_off channel=0 note=61 velocity=127 time=0.019791666666666666\n",
      "note_on channel=0 note=60 velocity=127 time=0.013541666666666667\n",
      "note_off channel=0 note=60 velocity=127 time=0.019791666666666666\n",
      "note_on channel=0 note=61 velocity=127 time=0.025\n",
      "note_off channel=0 note=61 velocity=127 time=0.019791666666666666\n",
      "note_on channel=0 note=60 velocity=127 time=0.0020833333333333333\n",
      "note_off channel=0 note=60 velocity=127 time=0.019791666666666666\n",
      "note_on channel=0 note=62 velocity=127 time=0.003125\n",
      "note_off channel=0 note=62 velocity=127 time=0.019791666666666666\n",
      "note_on channel=0 note=61 velocity=127 time=0.013541666666666667\n",
      "note_on channel=0 note=60 velocity=127 time=0.010416666666666666\n",
      "note_off channel=0 note=61 velocity=127 time=0.010416666666666666\n",
      "note_off channel=0 note=60 velocity=127 time=0.010416666666666666\n",
      "note_on channel=0 note=60 velocity=127 time=0.046875\n",
      "note_on channel=0 note=61 velocity=127 time=0.0020833333333333333\n"
     ]
    },
    {
     "name": "stdout",
     "output_type": "stream",
     "text": [
      "note_off channel=0 note=60 velocity=127 time=0.01875\n",
      "note_off channel=0 note=61 velocity=127 time=0.0020833333333333333\n",
      "note_on channel=0 note=62 velocity=127 time=0.014583333333333334\n",
      "note_off channel=0 note=62 velocity=127 time=0.019791666666666666\n",
      "note_on channel=0 note=60 velocity=127 time=0.010416666666666666\n",
      "note_on channel=0 note=61 velocity=127 time=0.013541666666666667\n",
      "note_off channel=0 note=60 velocity=127 time=0.00625\n",
      "note_off channel=0 note=61 velocity=127 time=0.013541666666666667\n",
      "note_on channel=0 note=60 velocity=127 time=0.03333333333333333\n",
      "note_off channel=0 note=60 velocity=127 time=0.019791666666666666\n",
      "note_on channel=0 note=61 velocity=127 time=0.005208333333333333\n",
      "note_off channel=0 note=61 velocity=127 time=0.019791666666666666\n",
      "note_on channel=0 note=62 velocity=127 time=0.005208333333333333\n",
      "note_on channel=0 note=60 velocity=127 time=0.016666666666666666\n",
      "note_off channel=0 note=62 velocity=127 time=0.003125\n",
      "note_off channel=0 note=60 velocity=127 time=0.016666666666666666\n",
      "note_on channel=0 note=61 velocity=127 time=0.016666666666666666\n",
      "note_off channel=0 note=61 velocity=127 time=0.019791666666666666\n",
      "note_on channel=0 note=60 velocity=127 time=0.010416666666666666\n",
      "note_off channel=0 note=60 velocity=127 time=0.019791666666666666\n",
      "note_on channel=0 note=61 velocity=127 time=0.028125\n",
      "note_on channel=0 note=62 velocity=127 time=0.014583333333333334\n",
      "note_on channel=0 note=60 velocity=127 time=0.003125\n",
      "note_off channel=0 note=61 velocity=127 time=0.0020833333333333333\n",
      "note_off channel=0 note=62 velocity=127 time=0.014583333333333334\n",
      "note_off channel=0 note=60 velocity=127 time=0.003125\n",
      "note_on channel=0 note=61 velocity=127 time=0.040625\n",
      "note_on channel=0 note=60 velocity=127 time=0.00625\n",
      "note_off channel=0 note=61 velocity=127 time=0.013541666666666667\n",
      "note_off channel=0 note=60 velocity=127 time=0.00625\n",
      "note_on channel=0 note=60 velocity=127 time=0.046875\n",
      "note_on channel=0 note=61 velocity=127 time=0.005208333333333333\n",
      "note_on channel=0 note=62 velocity=127 time=0.005208333333333333\n",
      "note_off channel=0 note=60 velocity=127 time=0.009375\n",
      "note_off channel=0 note=61 velocity=127 time=0.005208333333333333\n",
      "note_off channel=0 note=62 velocity=127 time=0.005208333333333333\n",
      "note_on channel=0 note=60 velocity=127 time=0.036458333333333336\n",
      "note_on channel=0 note=61 velocity=127 time=0.016666666666666666\n",
      "note_off channel=0 note=60 velocity=127 time=0.003125\n",
      "note_off channel=0 note=61 velocity=127 time=0.016666666666666666\n",
      "note_on channel=0 note=60 velocity=127 time=0.030208333333333334\n",
      "note_off channel=0 note=60 velocity=127 time=0.019791666666666666\n",
      "note_on channel=0 note=62 velocity=127 time=0.004166666666666667\n",
      "note_on channel=0 note=61 velocity=127 time=0.005208333333333333\n",
      "note_off channel=0 note=62 velocity=127 time=0.015625\n",
      "note_off channel=0 note=61 velocity=127 time=0.005208333333333333\n",
      "note_on channel=0 note=60 velocity=127 time=0.01875\n",
      "note_off channel=0 note=60 velocity=127 time=0.019791666666666666\n",
      "note_on channel=0 note=61 velocity=127 time=0.019791666666666666\n",
      "note_off channel=0 note=61 velocity=127 time=0.019791666666666666\n",
      "note_on channel=0 note=60 velocity=127 time=0.00625\n",
      "note_off channel=0 note=60 velocity=127 time=0.019791666666666666\n",
      "note_on channel=0 note=62 velocity=127 time=0.017708333333333333\n",
      "note_on channel=0 note=61 velocity=127 time=0.014583333333333334\n",
      "note_off channel=0 note=62 velocity=127 time=0.005208333333333333\n",
      "note_on channel=0 note=60 velocity=127 time=0.009375\n",
      "note_off channel=0 note=61 velocity=127 time=0.005208333333333333\n",
      "note_off channel=0 note=60 velocity=127 time=0.014583333333333334\n",
      "note_on channel=0 note=61 velocity=127 time=0.04375\n",
      "\u001b[91m [DEBUG] > \u001b[0m\n",
      " |>  to_array: msg.time > max_t; t, n\n",
      " |>  3.010416666666669\n",
      " |>  150\n",
      "note_on channel=0 note=60 velocity=127 time=0.015625\n",
      "note_on channel=0 note=62 velocity=127 time=0.007291666666666667\n",
      "note_off channel=0 note=60 velocity=127 time=0.0125\n",
      "note_off channel=0 note=62 velocity=127 time=0.007291666666666667\n",
      "note_on channel=0 note=61 velocity=127 time=0.03125\n",
      "note_on channel=0 note=60 velocity=127 time=0.011458333333333333\n",
      "note_off channel=0 note=61 velocity=127 time=0.008333333333333333\n",
      "note_on channel=0 note=62 velocity=127 time=0.007291666666666667\n",
      "note_off channel=0 note=60 velocity=127 time=0.005208333333333333\n",
      "note_off channel=0 note=62 velocity=127 time=0.015625\n",
      "note_on channel=0 note=60 velocity=127 time=0.035416666666666666\n",
      "note_on channel=0 note=61 velocity=127 time=0.005208333333333333\n",
      "note_off channel=0 note=60 velocity=127 time=0.015625\n",
      "note_on channel=0 note=62 velocity=127 time=0.003125\n",
      "note_off channel=0 note=61 velocity=127 time=0.0010416666666666667\n",
      "note_off channel=0 note=62 velocity=127 time=0.01875\n",
      "note_on channel=0 note=60 velocity=127 time=0.027083333333333334\n",
      "note_off channel=0 note=60 velocity=127 time=0.019791666666666666\n",
      "note_on channel=0 note=61 velocity=127 time=0.0010416666666666667\n",
      "note_on channel=0 note=62 velocity=127 time=0.010416666666666666\n",
      "note_off channel=0 note=61 velocity=127 time=0.009375\n",
      "note_off channel=0 note=62 velocity=127 time=0.010416666666666666\n",
      "note_on channel=0 note=60 velocity=127 time=0.01875\n",
      "note_off channel=0 note=60 velocity=127 time=0.019791666666666666\n",
      "note_on channel=0 note=61 velocity=127 time=0.017708333333333333\n",
      "note_on channel=0 note=62 velocity=127 time=0.0020833333333333333\n",
      "note_off channel=0 note=61 velocity=127 time=0.017708333333333333\n",
      "note_off channel=0 note=62 velocity=127 time=0.0020833333333333333\n",
      "note_on channel=0 note=60 velocity=127 time=0.010416666666666666\n",
      "note_off channel=0 note=60 velocity=127 time=0.019791666666666666\n",
      "note_on channel=0 note=62 velocity=127 time=0.028125\n",
      "note_on channel=0 note=61 velocity=127 time=0.00625\n",
      "note_off channel=0 note=62 velocity=127 time=0.013541666666666667\n",
      "note_on channel=0 note=60 velocity=127 time=0.0020833333333333333\n",
      "note_off channel=0 note=61 velocity=127 time=0.004166666666666667\n",
      "note_off channel=0 note=60 velocity=127 time=0.015625\n",
      "note_on channel=0 note=62 velocity=127 time=0.036458333333333336\n",
      "note_on channel=0 note=60 velocity=127 time=0.014583333333333334\n",
      "note_on channel=0 note=61 velocity=127 time=0.0010416666666666667\n",
      "note_off channel=0 note=62 velocity=127 time=0.005208333333333333\n",
      "note_off channel=0 note=60 velocity=127 time=0.014583333333333334\n",
      "note_off channel=0 note=61 velocity=127 time=0.0010416666666666667\n",
      "note_on channel=0 note=62 velocity=127 time=0.04375\n",
      "note_on channel=0 note=60 velocity=127 time=0.00625\n",
      "note_off channel=0 note=62 velocity=127 time=0.013541666666666667\n",
      "note_on channel=0 note=61 velocity=127 time=0.003125\n",
      "note_off channel=0 note=60 velocity=127 time=0.003125\n",
      "note_off channel=0 note=61 velocity=127 time=0.017708333333333333\n",
      "note_on channel=0 note=60 velocity=127 time=0.03333333333333333\n",
      "note_on channel=0 note=62 velocity=127 time=0.0020833333333333333\n",
      "note_off channel=0 note=60 velocity=127 time=0.017708333333333333\n",
      "note_off channel=0 note=62 velocity=127 time=0.0020833333333333333\n",
      "note_on channel=0 note=61 velocity=127 time=0.011458333333333333\n",
      "note_off channel=0 note=61 velocity=127 time=0.019791666666666666\n",
      "note_on channel=0 note=60 velocity=127 time=0.016666666666666666\n",
      "note_on channel=0 note=62 velocity=127 time=0.010416666666666666\n",
      "note_off channel=0 note=60 velocity=127 time=0.009375\n",
      "note_off channel=0 note=62 velocity=127 time=0.010416666666666666\n",
      "note_on channel=0 note=61 velocity=127 time=0.019791666666666666\n",
      "note_on channel=0 note=60 velocity=127 time=0.019791666666666666\n",
      "note_off channel=0 note=61 velocity=127 time=0\n",
      "note_on channel=0 note=62 velocity=127 time=0.01875\n",
      "note_off channel=0 note=60 velocity=127 time=0.0010416666666666667\n",
      "note_off channel=0 note=62 velocity=127 time=0.01875\n",
      "note_on channel=0 note=61 velocity=127 time=0.028125\n",
      "note_on channel=0 note=60 velocity=127 time=0.003125\n",
      "note_off channel=0 note=61 velocity=127 time=0.016666666666666666\n",
      "note_off channel=0 note=60 velocity=127 time=0.003125\n",
      "note_on channel=0 note=62 velocity=127 time=0.007291666666666667\n",
      "note_off channel=0 note=62 velocity=127 time=0.019791666666666666\n",
      "note_on channel=0 note=60 velocity=127 time=0.02395833333333333\n",
      "note_on channel=0 note=61 velocity=127 time=0.013541666666666667\n",
      "note_off channel=0 note=60 velocity=127 time=0.007291666666666667\n",
      "note_off channel=0 note=61 velocity=127 time=0.013541666666666667\n",
      "note_on channel=0 note=62 velocity=127 time=0.0020833333333333333\n",
      "note_off channel=0 note=62 velocity=127 time=0.019791666666666666\n",
      "note_on channel=0 note=60 velocity=127 time=0.015625\n",
      "note_off channel=0 note=60 velocity=127 time=0.019791666666666666\n",
      "note_on channel=0 note=61 velocity=127 time=0.009375\n",
      "note_on channel=0 note=62 velocity=127 time=0.013541666666666667\n",
      "note_off channel=0 note=61 velocity=127 time=0.00625\n",
      "note_off channel=0 note=62 velocity=127 time=0.013541666666666667\n",
      "note_on channel=0 note=60 velocity=127 time=0.007291666666666667\n",
      "note_off channel=0 note=60 velocity=127 time=0.019791666666666666\n",
      "note_on channel=0 note=61 velocity=127 time=0.026041666666666668\n",
      "note_on channel=0 note=62 velocity=127 time=0.005208333333333333\n",
      "note_off channel=0 note=61 velocity=127 time=0.014583333333333334\n",
      "note_on channel=0 note=60 velocity=127 time=0.004166666666666667\n",
      "note_off channel=0 note=62 velocity=127 time=0.0010416666666666667\n",
      "note_off channel=0 note=60 velocity=127 time=0.01875\n",
      "note_on channel=0 note=62 velocity=127 time=0.03958333333333333\n",
      "note_on channel=0 note=61 velocity=127 time=0.003125\n",
      "note_on channel=0 note=60 velocity=127 time=0.007291666666666667\n",
      "note_off channel=0 note=62 velocity=127 time=0.009375\n",
      "note_off channel=0 note=61 velocity=127 time=0.003125\n",
      "note_off channel=0 note=60 velocity=127 time=0.007291666666666667\n",
      "note_on channel=0 note=62 velocity=127 time=0.04791666666666666\n",
      "note_on channel=0 note=60 velocity=127 time=0.0020833333333333333\n",
      "note_on channel=0 note=61 velocity=127 time=0.009375\n",
      "note_off channel=0 note=62 velocity=127 time=0.008333333333333333\n",
      "note_off channel=0 note=60 velocity=127 time=0.0020833333333333333\n",
      "note_off channel=0 note=61 velocity=127 time=0.009375\n",
      "note_on channel=0 note=60 velocity=127 time=0.041666666666666664\n",
      "note_on channel=0 note=62 velocity=127 time=0.005208333333333333\n",
      "note_off channel=0 note=60 velocity=127 time=0.014583333333333334\n",
      "note_off channel=0 note=62 velocity=127 time=0.005208333333333333\n",
      "note_on channel=0 note=61 velocity=127 time=0\n",
      "note_off channel=0 note=61 velocity=127 time=0.019791666666666666\n",
      "note_on channel=0 note=60 velocity=127 time=0.025\n",
      "note_on channel=0 note=62 velocity=127 time=0.013541666666666667\n",
      "note_off channel=0 note=60 velocity=127 time=0.00625\n",
      "note_off channel=0 note=62 velocity=127 time=0.013541666666666667\n",
      "note_on channel=0 note=61 velocity=127 time=0.008333333333333333\n",
      "note_off channel=0 note=61 velocity=127 time=0.019791666666666666\n",
      "note_on channel=0 note=60 velocity=127 time=0.008333333333333333\n",
      "note_off channel=0 note=60 velocity=127 time=0.019791666666666666\n",
      "note_on channel=0 note=62 velocity=127 time=0.0020833333333333333\n",
      "note_off channel=0 note=62 velocity=127 time=0.019791666666666666\n",
      "note_on channel=0 note=61 velocity=127 time=0.016666666666666666\n",
      "note_on channel=0 note=60 velocity=127 time=0.011458333333333333\n",
      "note_off channel=0 note=61 velocity=127 time=0.008333333333333333\n",
      "note_off channel=0 note=60 velocity=127 time=0.011458333333333333\n",
      "note_on channel=0 note=62 velocity=127 time=0.010416666666666666\n",
      "note_off channel=0 note=62 velocity=127 time=0.019791666666666666\n",
      "note_on channel=0 note=60 velocity=127 time=0.019791666666666666\n",
      "note_on channel=0 note=61 velocity=127 time=0.005208333333333333\n",
      "note_off channel=0 note=60 velocity=127 time=0.014583333333333334\n",
      "note_off channel=0 note=61 velocity=127 time=0.005208333333333333\n",
      "note_on channel=0 note=62 velocity=127 time=0.013541666666666667\n",
      "note_off channel=0 note=62 velocity=127 time=0.019791666666666666\n",
      "note_on channel=0 note=60 velocity=127 time=0.0125\n",
      "note_off channel=0 note=60 velocity=127 time=0.019791666666666666\n",
      "note_on channel=0 note=61 velocity=127 time=0.0020833333333333333\n",
      "note_off channel=0 note=61 velocity=127 time=0.019791666666666666\n",
      "note_on channel=0 note=62 velocity=127 time=0.005208333333333333\n",
      "note_off channel=0 note=62 velocity=127 time=0.019791666666666666\n",
      "note_on channel=0 note=60 velocity=127 time=0.004166666666666667\n",
      "note_off channel=0 note=60 velocity=127 time=0.019791666666666666\n",
      "note_on channel=0 note=61 velocity=127 time=0.01875\n",
      "note_on channel=0 note=62 velocity=127 time=0.016666666666666666\n",
      "note_off channel=0 note=61 velocity=127 time=0.003125\n",
      "note_on channel=0 note=60 velocity=127 time=0.0125\n",
      "note_off channel=0 note=62 velocity=127 time=0.004166666666666667\n",
      "note_off channel=0 note=60 velocity=127 time=0.015625\n",
      "note_on channel=0 note=61 velocity=127 time=0.034375\n",
      "note_on channel=0 note=62 velocity=127 time=0.008333333333333333\n",
      "note_on channel=0 note=60 velocity=127 time=0.007291666666666667\n",
      "note_off channel=0 note=61 velocity=127 time=0.004166666666666667\n",
      "note_off channel=0 note=62 velocity=127 time=0.008333333333333333\n",
      "note_off channel=0 note=60 velocity=127 time=0.007291666666666667\n",
      "note_on channel=0 note=60 velocity=127 time=0.05\n",
      "note_on channel=0 note=62 velocity=127 time=0.0010416666666666667\n",
      "note_on channel=0 note=61 velocity=127 time=0\n",
      "note_off channel=0 note=60 velocity=127 time=0.01875\n",
      "note_off channel=0 note=62 velocity=127 time=0.0010416666666666667\n",
      "note_off channel=0 note=61 velocity=127 time=0\n",
      "note_on channel=0 note=60 velocity=127 time=0.04895833333333333\n",
      "note_on channel=0 note=62 velocity=127 time=0.009375\n",
      "note_on channel=0 note=61 velocity=127 time=0.008333333333333333\n",
      "note_off channel=0 note=60 velocity=127 time=0.0020833333333333333\n",
      "note_off channel=0 note=62 velocity=127 time=0.009375\n",
      "note_off channel=0 note=61 velocity=127 time=0.008333333333333333\n",
      "note_on channel=0 note=60 velocity=127 time=0.03229166666666666\n",
      "note_on channel=0 note=62 velocity=127 time=0.016666666666666666\n",
      "note_off channel=0 note=60 velocity=127 time=0.003125\n",
      "note_on channel=0 note=61 velocity=127 time=0.014583333333333334\n",
      "note_off channel=0 note=62 velocity=127 time=0.003125\n",
      "note_off channel=0 note=61 velocity=127 time=0.016666666666666666\n",
      "note_on channel=0 note=60 velocity=127 time=0.016666666666666666\n",
      "note_off channel=0 note=60 velocity=127 time=0.019791666666666666\n",
      "note_on channel=0 note=62 velocity=127 time=0.005208333333333333\n",
      "note_off channel=0 note=62 velocity=127 time=0.019791666666666666\n",
      "note_on channel=0 note=61 velocity=127 time=0.005208333333333333\n",
      "note_on channel=0 note=60 velocity=127 time=0.019791666666666666\n",
      "note_off channel=0 note=61 velocity=127 time=0\n",
      "note_off channel=0 note=60 velocity=127 time=0.019791666666666666\n",
      "note_on channel=0 note=62 velocity=127 time=0.013541666666666667\n",
      "note_off channel=0 note=62 velocity=127 time=0.019791666666666666\n",
      "note_on channel=0 note=61 velocity=127 time=0.013541666666666667\n",
      "note_on channel=0 note=60 velocity=127 time=0.003125\n",
      "note_off channel=0 note=61 velocity=127 time=0.016666666666666666\n",
      "note_off channel=0 note=60 velocity=127 time=0.003125\n",
      "note_on channel=0 note=62 velocity=127 time=0.021875\n",
      "note_off channel=0 note=62 velocity=127 time=0.019791666666666666\n",
      "note_on channel=0 note=60 velocity=127 time=0.008333333333333333\n",
      "note_on channel=0 note=61 velocity=127 time=0.013541666666666667\n",
      "note_off channel=0 note=60 velocity=127 time=0.00625\n",
      "note_off channel=0 note=61 velocity=127 time=0.013541666666666667\n",
      "note_on channel=0 note=62 velocity=127 time=0.016666666666666666\n",
      "note_off channel=0 note=62 velocity=127 time=0.019791666666666666\n",
      "note_on channel=0 note=60 velocity=127 time=0\n",
      "note_off channel=0 note=60 velocity=127 time=0.019791666666666666\n",
      "note_on channel=0 note=61 velocity=127 time=0.010416666666666666\n",
      "note_off channel=0 note=61 velocity=127 time=0.019791666666666666\n",
      "note_on channel=0 note=62 velocity=127 time=0.008333333333333333\n",
      "note_on channel=0 note=60 velocity=127 time=0.0125\n",
      "note_off channel=0 note=62 velocity=127 time=0.007291666666666667\n",
      "note_off channel=0 note=60 velocity=127 time=0.0125\n",
      "note_on channel=0 note=61 velocity=127 time=0.027083333333333334\n",
      "note_on channel=0 note=62 velocity=127 time=0.019791666666666666\n",
      "note_off channel=0 note=61 velocity=127 time=0\n",
      "note_on channel=0 note=60 velocity=127 time=0.004166666666666667\n",
      "note_off channel=0 note=62 velocity=127 time=0.015625\n",
      "note_off channel=0 note=60 velocity=127 time=0.004166666666666667\n",
      "note_on channel=0 note=61 velocity=127 time=0.04375\n",
      "note_on channel=0 note=60 velocity=127 time=0.007291666666666667\n",
      "note_on channel=0 note=62 velocity=127 time=0.004166666666666667\n",
      "note_off channel=0 note=61 velocity=127 time=0.008333333333333333\n",
      "note_off channel=0 note=60 velocity=127 time=0.007291666666666667\n",
      "note_off channel=0 note=62 velocity=127 time=0.004166666666666667\n",
      "note_on channel=0 note=60 velocity=127 time=0.04583333333333333\n",
      "note_on channel=0 note=61 velocity=127 time=0.009375\n",
      "note_on channel=0 note=62 velocity=127 time=0.003125\n",
      "note_off channel=0 note=60 velocity=127 time=0.007291666666666667\n",
      "note_off channel=0 note=61 velocity=127 time=0.009375\n",
      "note_off channel=0 note=62 velocity=127 time=0.003125\n",
      "note_on channel=0 note=60 velocity=127 time=0.03854166666666667\n",
      "note_off channel=0 note=60 velocity=127 time=0.019791666666666666\n",
      "note_on channel=0 note=62 velocity=127 time=0\n",
      "note_on channel=0 note=61 velocity=127 time=0.005208333333333333\n",
      "note_off channel=0 note=62 velocity=127 time=0.014583333333333334\n",
      "note_off channel=0 note=61 velocity=127 time=0.005208333333333333\n",
      "note_on channel=0 note=60 velocity=127 time=0.02395833333333333\n",
      "note_off channel=0 note=60 velocity=127 time=0.019791666666666666\n",
      "note_on channel=0 note=62 velocity=127 time=0.008333333333333333\n",
      "note_on channel=0 note=61 velocity=127 time=0.013541666666666667\n",
      "note_off channel=0 note=62 velocity=127 time=0.00625\n",
      "note_off channel=0 note=61 velocity=127 time=0.013541666666666667\n",
      "note_on channel=0 note=60 velocity=127 time=0.007291666666666667\n",
      "note_off channel=0 note=60 velocity=127 time=0.019791666666666666\n",
      "note_on channel=0 note=62 velocity=127 time=0.016666666666666666\n",
      "\u001b[91m [DEBUG] > \u001b[0m\n",
      " |>  to_array: msg.time > max_t; t, n\n",
      " |>  3.0010416666666693\n",
      " |>  150\n",
      "note_on channel=0 note=61 velocity=127 time=0.06875\n",
      "note_on channel=0 note=62 velocity=127 time=0.014583333333333334\n",
      "note_off channel=0 note=61 velocity=127 time=0.00625\n",
      "note_off channel=0 note=62 velocity=127 time=0.014583333333333334\n",
      "note_on channel=0 note=62 velocity=127 time=0.0875\n",
      "note_on channel=0 note=60 velocity=127 time=0.004166666666666667\n",
      "note_on channel=0 note=61 velocity=127 time=0.009375\n",
      "note_off channel=0 note=62 velocity=127 time=0.00625\n",
      "note_off channel=0 note=60 velocity=127 time=0.004166666666666667\n",
      "note_off channel=0 note=61 velocity=127 time=0.009375\n",
      "note_on channel=0 note=62 velocity=127 time=0.07395833333333333\n",
      "note_off channel=0 note=62 velocity=127 time=0.019791666666666666\n",
      "note_on channel=0 note=61 velocity=127 time=0.020833333333333332\n",
      "note_off channel=0 note=61 velocity=127 time=0.019791666666666666\n",
      "note_on channel=0 note=62 velocity=127 time=0.046875\n",
      "note_off channel=0 note=62 velocity=127 time=0.019791666666666666\n",
      "note_on channel=0 note=61 velocity=127 time=0.04895833333333333\n",
      "note_off channel=0 note=61 velocity=127 time=0.019791666666666666\n",
      "note_on channel=0 note=60 velocity=127 time=0.003125\n",
      "note_on channel=0 note=62 velocity=127 time=0.015625\n",
      "note_off channel=0 note=60 velocity=127 time=0.004166666666666667\n",
      "note_off channel=0 note=62 velocity=127 time=0.015625\n",
      "note_on channel=0 note=61 velocity=127 time=0.07604166666666666\n",
      "note_on channel=0 note=62 velocity=127 time=0.011458333333333333\n",
      "note_off channel=0 note=61 velocity=127 time=0.008333333333333333\n",
      "note_off channel=0 note=62 velocity=127 time=0.011458333333333333\n",
      "note_on channel=0 note=62 velocity=127 time=0.0875\n",
      "note_on channel=0 note=61 velocity=127 time=0.015625\n",
      "note_off channel=0 note=62 velocity=127 time=0.004166666666666667\n",
      "note_off channel=0 note=61 velocity=127 time=0.015625\n",
      "note_on channel=0 note=60 velocity=127 time=0.035416666666666666\n",
      "note_off channel=0 note=60 velocity=127 time=0.019791666666666666\n",
      "note_on channel=0 note=62 velocity=127 time=0.015625\n",
      "note_off channel=0 note=62 velocity=127 time=0.019791666666666666\n",
      "note_on channel=0 note=61 velocity=127 time=0.02395833333333333\n",
      "note_off channel=0 note=61 velocity=127 time=0.019791666666666666\n",
      "note_on channel=0 note=62 velocity=127 time=0.04375\n",
      "note_off channel=0 note=62 velocity=127 time=0.019791666666666666\n",
      "note_on channel=0 note=61 velocity=127 time=0.051041666666666666\n",
      "note_off channel=0 note=61 velocity=127 time=0.019791666666666666\n",
      "note_on channel=0 note=62 velocity=127 time=0.016666666666666666\n",
      "note_off channel=0 note=62 velocity=127 time=0.019791666666666666\n",
      "note_on channel=0 note=60 velocity=127 time=0.03125\n",
      "note_off channel=0 note=60 velocity=127 time=0.019791666666666666\n",
      "note_on channel=0 note=61 velocity=127 time=0.027083333333333334\n",
      "note_on channel=0 note=62 velocity=127 time=0.009375\n",
      "note_off channel=0 note=61 velocity=127 time=0.011458333333333333\n",
      "note_off channel=0 note=62 velocity=127 time=0.009375\n",
      "note_on channel=0 note=62 velocity=127 time=0.0875\n",
      "note_on channel=0 note=61 velocity=127 time=0.01875\n",
      "note_off channel=0 note=62 velocity=127 time=0.0010416666666666667\n",
      "note_off channel=0 note=61 velocity=127 time=0.01875\n",
      "note_on channel=0 note=62 velocity=127 time=0.06875\n",
      "note_off channel=0 note=62 velocity=127 time=0.019791666666666666\n",
      "note_on channel=0 note=60 velocity=127 time=0.011458333333333333\n",
      "note_on channel=0 note=61 velocity=127 time=0.014583333333333334\n",
      "note_off channel=0 note=60 velocity=127 time=0.005208333333333333\n",
      "note_off channel=0 note=61 velocity=127 time=0.014583333333333334\n",
      "note_on channel=0 note=62 velocity=127 time=0.041666666666666664\n",
      "note_off channel=0 note=62 velocity=127 time=0.019791666666666666\n",
      "note_on channel=0 note=61 velocity=127 time=0.05416666666666667\n",
      "note_off channel=0 note=61 velocity=127 time=0.019791666666666666\n",
      "note_on channel=0 note=62 velocity=127 time=0.013541666666666667\n",
      "note_off channel=0 note=62 velocity=127 time=0.019791666666666666\n",
      "note_on channel=0 note=61 velocity=127 time=0.08125\n",
      "note_on channel=0 note=62 velocity=127 time=0.00625\n",
      "note_on channel=0 note=60 velocity=127 time=0.011458333333333333\n",
      "note_off channel=0 note=61 velocity=127 time=0.003125\n",
      "note_off channel=0 note=62 velocity=127 time=0.00625\n",
      "note_off channel=0 note=60 velocity=127 time=0.011458333333333333\n",
      "note_on channel=0 note=62 velocity=127 time=0.07604166666666666\n",
      "note_off channel=0 note=62 velocity=127 time=0.019791666666666666\n",
      "note_on channel=0 note=61 velocity=127 time=0.0010416666666666667\n",
      "note_off channel=0 note=61 velocity=127 time=0.019791666666666666\n",
      "note_on channel=0 note=62 velocity=127 time=0.06666666666666667\n",
      "note_off channel=0 note=62 velocity=127 time=0.019791666666666666\n",
      "note_on channel=0 note=61 velocity=127 time=0.029166666666666667\n",
      "note_off channel=0 note=61 velocity=127 time=0.019791666666666666\n",
      "note_on channel=0 note=60 velocity=127 time=0.029166666666666667\n",
      "note_on channel=0 note=62 velocity=127 time=0.009375\n",
      "note_off channel=0 note=60 velocity=127 time=0.010416666666666666\n",
      "note_off channel=0 note=62 velocity=127 time=0.009375\n",
      "note_on channel=0 note=61 velocity=127 time=0.05625\n",
      "note_off channel=0 note=61 velocity=127 time=0.019791666666666666\n",
      "note_on channel=0 note=62 velocity=127 time=0.011458333333333333\n",
      "note_off channel=0 note=62 velocity=127 time=0.019791666666666666\n",
      "note_on channel=0 note=61 velocity=127 time=0.08333333333333333\n",
      "note_on channel=0 note=62 velocity=127 time=0.004166666666666667\n",
      "note_off channel=0 note=61 velocity=127 time=0.016666666666666666\n",
      "note_off channel=0 note=62 velocity=127 time=0.004166666666666667\n",
      "note_on channel=0 note=60 velocity=127 time=0.058333333333333334\n",
      "note_off channel=0 note=60 velocity=127 time=0.019791666666666666\n",
      "note_on channel=0 note=62 velocity=127 time=0.009375\n",
      "note_off channel=0 note=62 velocity=127 time=0.019791666666666666\n",
      "note_on channel=0 note=61 velocity=127 time=0.004166666666666667\n",
      "note_off channel=0 note=61 velocity=127 time=0.019791666666666666\n",
      "note_on channel=0 note=62 velocity=127 time=0.06354166666666666\n",
      "note_off channel=0 note=62 velocity=127 time=0.019791666666666666\n",
      "note_on channel=0 note=61 velocity=127 time=0.03125\n",
      "note_off channel=0 note=61 velocity=127 time=0.019791666666666666\n",
      "note_on channel=0 note=62 velocity=127 time=0.036458333333333336\n",
      "note_off channel=0 note=62 velocity=127 time=0.019791666666666666\n",
      "note_on channel=0 note=60 velocity=127 time=0.03854166666666667\n",
      "note_off channel=0 note=60 velocity=127 time=0.019791666666666666\n",
      "note_on channel=0 note=61 velocity=127 time=0.0010416666666666667\n",
      "note_off channel=0 note=61 velocity=127 time=0.019791666666666666\n",
      "note_on channel=0 note=62 velocity=127 time=0.008333333333333333\n",
      "note_off channel=0 note=62 velocity=127 time=0.019791666666666666\n",
      "note_on channel=0 note=61 velocity=127 time=0.08645833333333333\n",
      "note_on channel=0 note=62 velocity=127 time=0.0010416666666666667\n",
      "note_off channel=0 note=61 velocity=127 time=0.01875\n",
      "note_off channel=0 note=62 velocity=127 time=0.0010416666666666667\n",
      "note_on channel=0 note=62 velocity=127 time=0.0875\n",
      "note_off channel=0 note=62 velocity=127 time=0.019791666666666666\n",
      "note_on channel=0 note=61 velocity=127 time=0.00625\n",
      "note_on channel=0 note=60 velocity=127 time=0.011458333333333333\n",
      "note_off channel=0 note=61 velocity=127 time=0.008333333333333333\n",
      "note_off channel=0 note=60 velocity=127 time=0.011458333333333333\n",
      "note_on channel=0 note=62 velocity=127 time=0.05\n",
      "note_off channel=0 note=62 velocity=127 time=0.019791666666666666\n",
      "\u001b[91m [DEBUG] > \u001b[0m\n",
      " |>  to_array: msg.time > max_t; t, n\n",
      " |>  3.003125000000001\n",
      " |>  150\n",
      "note_on channel=0 note=61 velocity=127 time=0.00625\n",
      "note_off channel=0 note=61 velocity=127 time=0.019791666666666666\n",
      "note_on channel=0 note=61 velocity=127 time=0.11979166666666667\n",
      "note_on channel=0 note=62 velocity=127 time=0.013541666666666667\n",
      "note_off channel=0 note=61 velocity=127 time=0.00625\n",
      "note_off channel=0 note=62 velocity=127 time=0.013541666666666667\n",
      "note_on channel=0 note=60 velocity=127 time=0.005208333333333333\n",
      "note_off channel=0 note=60 velocity=127 time=0.019791666666666666\n",
      "note_on channel=0 note=61 velocity=127 time=0.08020833333333333\n",
      "note_off channel=0 note=61 velocity=127 time=0.019791666666666666\n",
      "note_on channel=0 note=62 velocity=127 time=0.04791666666666666\n",
      "note_off channel=0 note=62 velocity=127 time=0.019791666666666666\n",
      "note_on channel=0 note=60 velocity=127 time=0.025\n",
      "note_off channel=0 note=60 velocity=127 time=0.019791666666666666\n",
      "note_on channel=0 note=61 velocity=127 time=0.007291666666666667\n",
      "note_off channel=0 note=61 velocity=127 time=0.019791666666666666\n",
      "note_on channel=0 note=62 velocity=127 time=0.10104166666666667\n",
      "note_on channel=0 note=61 velocity=127 time=0.01875\n",
      "note_off channel=0 note=62 velocity=127 time=0.0010416666666666667\n",
      "note_off channel=0 note=61 velocity=127 time=0.01875\n",
      "note_on channel=0 note=60 velocity=127 time=0.025\n",
      "note_off channel=0 note=60 velocity=127 time=0.019791666666666666\n",
      "note_on channel=0 note=61 velocity=127 time=0.07395833333333333\n",
      "note_off channel=0 note=61 velocity=127 time=0.019791666666666666\n",
      "note_on channel=0 note=62 velocity=127 time=0.014583333333333334\n",
      "note_off channel=0 note=62 velocity=127 time=0.019791666666666666\n",
      "note_on channel=0 note=60 velocity=127 time=0.06354166666666666\n",
      "note_off channel=0 note=60 velocity=127 time=0.019791666666666666\n",
      "note_on channel=0 note=61 velocity=127 time=0.0010416666666666667\n",
      "note_off channel=0 note=61 velocity=127 time=0.019791666666666666\n",
      "note_on channel=0 note=62 velocity=127 time=0.06875\n",
      "note_off channel=0 note=62 velocity=127 time=0.019791666666666666\n",
      "note_on channel=0 note=61 velocity=127 time=0.03125\n",
      "note_off channel=0 note=61 velocity=127 time=0.019791666666666666\n",
      "note_on channel=0 note=60 velocity=127 time=0.03125\n",
      "note_off channel=0 note=60 velocity=127 time=0.019791666666666666\n",
      "note_on channel=0 note=61 velocity=127 time=0.06770833333333333\n",
      "note_on channel=0 note=62 velocity=127 time=0.0020833333333333333\n",
      "note_off channel=0 note=61 velocity=127 time=0.017708333333333333\n",
      "note_off channel=0 note=62 velocity=127 time=0.0020833333333333333\n",
      "note_on channel=0 note=60 velocity=127 time=0.10208333333333333\n",
      "note_on channel=0 note=61 velocity=127 time=0.014583333333333334\n",
      "note_off channel=0 note=60 velocity=127 time=0.005208333333333333\n",
      "note_off channel=0 note=61 velocity=127 time=0.014583333333333334\n",
      "note_on channel=0 note=62 velocity=127 time=0.035416666666666666\n",
      "note_off channel=0 note=62 velocity=127 time=0.019791666666666666\n",
      "note_on channel=0 note=61 velocity=127 time=0.06354166666666666\n",
      "note_off channel=0 note=61 velocity=127 time=0.019791666666666666\n",
      "note_on channel=0 note=60 velocity=127 time=0.0375\n",
      "note_off channel=0 note=60 velocity=127 time=0.019791666666666666\n",
      "note_on channel=0 note=62 velocity=127 time=0.03125\n",
      "note_off channel=0 note=62 velocity=127 time=0.019791666666666666\n",
      "note_on channel=0 note=61 velocity=127 time=0.010416666666666666\n",
      "note_off channel=0 note=61 velocity=127 time=0.019791666666666666\n",
      "note_on channel=0 note=60 velocity=127 time=0.11041666666666666\n",
      "note_on channel=0 note=61 velocity=127 time=0.009375\n",
      "note_off channel=0 note=60 velocity=127 time=0.011458333333333333\n",
      "note_off channel=0 note=61 velocity=127 time=0.009375\n",
      "note_on channel=0 note=62 velocity=127 time=0.003125\n",
      "note_off channel=0 note=62 velocity=127 time=0.019791666666666666\n",
      "note_on channel=0 note=61 velocity=127 time=0.09583333333333333\n",
      "note_off channel=0 note=61 velocity=127 time=0.019791666666666666\n",
      "note_on channel=0 note=60 velocity=127 time=0.04375\n",
      "note_on channel=0 note=62 velocity=127 time=0.0125\n",
      "note_off channel=0 note=60 velocity=127 time=0.007291666666666667\n",
      "note_off channel=0 note=62 velocity=127 time=0.0125\n",
      "note_on channel=0 note=61 velocity=127 time=0.042708333333333334\n",
      "note_off channel=0 note=61 velocity=127 time=0.019791666666666666\n",
      "note_on channel=0 note=62 velocity=127 time=0.11041666666666666\n",
      "note_on channel=0 note=60 velocity=127 time=0.00625\n",
      "note_on channel=0 note=61 velocity=127 time=0.003125\n",
      "note_off channel=0 note=62 velocity=127 time=0.010416666666666666\n",
      "note_off channel=0 note=60 velocity=127 time=0.00625\n",
      "note_off channel=0 note=61 velocity=127 time=0.003125\n",
      "note_on channel=0 note=61 velocity=127 time=0.11979166666666667\n",
      "note_off channel=0 note=61 velocity=127 time=0.019791666666666666\n",
      "note_on channel=0 note=62 velocity=127 time=0.02395833333333333\n",
      "note_off channel=0 note=62 velocity=127 time=0.019791666666666666\n",
      "note_on channel=0 note=60 velocity=127 time=0.00625\n",
      "note_off channel=0 note=60 velocity=127 time=0.019791666666666666\n",
      "note_on channel=0 note=61 velocity=127 time=0.04895833333333333\n",
      "note_off channel=0 note=61 velocity=127 time=0.019791666666666666\n",
      "note_on channel=0 note=62 velocity=127 time=0.07708333333333334\n",
      "note_off channel=0 note=62 velocity=127 time=0.019791666666666666\n",
      "note_on channel=0 note=61 velocity=127 time=0.021875\n",
      "note_on channel=0 note=60 velocity=127 time=0.003125\n",
      "note_off channel=0 note=61 velocity=127 time=0.016666666666666666\n",
      "note_off channel=0 note=60 velocity=127 time=0.003125\n",
      "note_on channel=0 note=61 velocity=127 time=0.11562499999999999\n",
      "note_on channel=0 note=62 velocity=127 time=0.011458333333333333\n",
      "note_off channel=0 note=61 velocity=127 time=0.008333333333333333\n",
      "note_off channel=0 note=62 velocity=127 time=0.011458333333333333\n",
      "note_on channel=0 note=60 velocity=127 time=0.04479166666666667\n",
      "note_off channel=0 note=60 velocity=127 time=0.019791666666666666\n",
      "note_on channel=0 note=61 velocity=127 time=0.042708333333333334\n",
      "note_off channel=0 note=61 velocity=127 time=0.019791666666666666\n",
      "note_on channel=0 note=62 velocity=127 time=0.04479166666666667\n",
      "note_off channel=0 note=62 velocity=127 time=0.019791666666666666\n",
      "note_on channel=0 note=61 velocity=127 time=0.05416666666666667\n",
      "note_on channel=0 note=60 velocity=127 time=0.009375\n",
      "note_off channel=0 note=61 velocity=127 time=0.010416666666666666\n",
      "note_off channel=0 note=60 velocity=127 time=0.009375\n",
      "note_on channel=0 note=62 velocity=127 time=0.08854166666666667\n",
      "\u001b[91m [DEBUG] > \u001b[0m\n",
      " |>  to_array: msg.time > max_t; t, n\n",
      " |>  3.0416666666666665\n",
      " |>  150\n",
      "note_on channel=0 note=62 velocity=127 time=0.071875\n",
      "note_on channel=0 note=60 velocity=127 time=0.017708333333333333\n",
      "note_off channel=0 note=62 velocity=127 time=0.0020833333333333333\n",
      "note_on channel=0 note=61 velocity=127 time=0.014583333333333334\n",
      "note_off channel=0 note=60 velocity=127 time=0.003125\n",
      "note_off channel=0 note=61 velocity=127 time=0.016666666666666666\n",
      "note_on channel=0 note=62 velocity=127 time=0.06979166666666667\n",
      "note_off channel=0 note=62 velocity=127 time=0.019791666666666666\n",
      "note_on channel=0 note=61 velocity=127 time=0.06458333333333333\n",
      "note_off channel=0 note=61 velocity=127 time=0.019791666666666666\n",
      "note_on channel=0 note=62 velocity=127 time=0.019791666666666666\n",
      "note_off channel=0 note=62 velocity=127 time=0.019791666666666666\n",
      "note_on channel=0 note=60 velocity=127 time=0.08125\n",
      "note_off channel=0 note=60 velocity=127 time=0.019791666666666666\n",
      "note_on channel=0 note=62 velocity=127 time=0.003125\n",
      "note_on channel=0 note=61 velocity=127 time=0.009375\n",
      "note_off channel=0 note=62 velocity=127 time=0.010416666666666666\n",
      "note_off channel=0 note=61 velocity=127 time=0.009375\n",
      "note_on channel=0 note=62 velocity=127 time=0.09479166666666666\n",
      "note_off channel=0 note=62 velocity=127 time=0.019791666666666666\n",
      "note_on channel=0 note=61 velocity=127 time=0.03958333333333333\n",
      "note_off channel=0 note=61 velocity=127 time=0.019791666666666666\n",
      "note_on channel=0 note=62 velocity=127 time=0.04479166666666667\n",
      "note_off channel=0 note=62 velocity=127 time=0.019791666666666666\n",
      "note_on channel=0 note=60 velocity=127 time=0.03958333333333333\n",
      "note_off channel=0 note=60 velocity=127 time=0.019791666666666666\n",
      "note_on channel=0 note=61 velocity=127 time=0.029166666666666667\n",
      "note_on channel=0 note=62 velocity=127 time=0.015625\n",
      "note_off channel=0 note=61 velocity=127 time=0.004166666666666667\n",
      "note_off channel=0 note=62 velocity=127 time=0.015625\n",
      "note_on channel=0 note=62 velocity=127 time=0.10416666666666667\n",
      "note_off channel=0 note=62 velocity=127 time=0.019791666666666666\n",
      "note_on channel=0 note=61 velocity=127 time=0.014583333333333334\n",
      "note_off channel=0 note=61 velocity=127 time=0.019791666666666666\n",
      "note_on channel=0 note=62 velocity=127 time=0.06979166666666667\n",
      "note_on channel=0 note=60 velocity=127 time=0.01875\n",
      "note_off channel=0 note=62 velocity=127 time=0.0010416666666666667\n",
      "note_off channel=0 note=60 velocity=127 time=0.01875\n",
      "note_on channel=0 note=61 velocity=127 time=0.04583333333333333\n",
      "note_off channel=0 note=61 velocity=127 time=0.019791666666666666\n",
      "note_on channel=0 note=62 velocity=127 time=0.019791666666666666\n",
      "note_off channel=0 note=62 velocity=127 time=0.019791666666666666\n",
      "note_on channel=0 note=62 velocity=127 time=0.10416666666666667\n",
      "note_on channel=0 note=61 velocity=127 time=0.009375\n",
      "note_off channel=0 note=62 velocity=127 time=0.010416666666666666\n",
      "note_off channel=0 note=61 velocity=127 time=0.009375\n",
      "note_on channel=0 note=60 velocity=127 time=0.071875\n",
      "note_off channel=0 note=60 velocity=127 time=0.019791666666666666\n"
     ]
    },
    {
     "name": "stdout",
     "output_type": "stream",
     "text": [
      "note_on channel=0 note=62 velocity=127 time=0.003125\n",
      "note_off channel=0 note=62 velocity=127 time=0.019791666666666666\n",
      "note_on channel=0 note=61 velocity=127 time=0.03958333333333333\n",
      "note_off channel=0 note=61 velocity=127 time=0.019791666666666666\n",
      "note_on channel=0 note=62 velocity=127 time=0.04479166666666667\n",
      "note_off channel=0 note=62 velocity=127 time=0.019791666666666666\n",
      "note_on channel=0 note=61 velocity=127 time=0.08854166666666667\n",
      "note_on channel=0 note=62 velocity=127 time=0.015625\n",
      "note_off channel=0 note=61 velocity=127 time=0.004166666666666667\n",
      "note_off channel=0 note=62 velocity=127 time=0.015625\n",
      "note_on channel=0 note=60 velocity=127 time=0.040625\n",
      "note_off channel=0 note=60 velocity=127 time=0.019791666666666666\n",
      "note_on channel=0 note=62 velocity=127 time=0.04375\n",
      "note_off channel=0 note=62 velocity=127 time=0.019791666666666666\n",
      "note_on channel=0 note=61 velocity=127 time=0.014583333333333334\n",
      "note_off channel=0 note=61 velocity=127 time=0.019791666666666666\n",
      "note_on channel=0 note=62 velocity=127 time=0.06979166666666667\n",
      "note_off channel=0 note=62 velocity=127 time=0.019791666666666666\n",
      "note_on channel=0 note=61 velocity=127 time=0.06458333333333333\n",
      "note_off channel=0 note=61 velocity=127 time=0.019791666666666666\n",
      "note_on channel=0 note=62 velocity=127 time=0.020833333333333332\n",
      "note_on channel=0 note=60 velocity=127 time=0.019791666666666666\n",
      "note_off channel=0 note=62 velocity=127 time=0.0010416666666666667\n",
      "note_off channel=0 note=60 velocity=127 time=0.019791666666666666\n",
      "note_on channel=0 note=62 velocity=127 time=0.08541666666666667\n",
      "note_on channel=0 note=61 velocity=127 time=0.009375\n",
      "note_off channel=0 note=62 velocity=127 time=0.010416666666666666\n",
      "note_off channel=0 note=61 velocity=127 time=0.009375\n",
      "note_on channel=0 note=62 velocity=127 time=0.09479166666666666\n",
      "note_off channel=0 note=62 velocity=127 time=0.019791666666666666\n",
      "note_on channel=0 note=61 velocity=127 time=0.03958333333333333\n",
      "note_off channel=0 note=61 velocity=127 time=0.019791666666666666\n",
      "note_on channel=0 note=60 velocity=127 time=0.02395833333333333\n",
      "note_off channel=0 note=60 velocity=127 time=0.019791666666666666\n",
      "note_on channel=0 note=62 velocity=127 time=0.0020833333333333333\n",
      "note_off channel=0 note=62 velocity=127 time=0.019791666666666666\n",
      "note_on channel=0 note=61 velocity=127 time=0.08854166666666667\n",
      "note_on channel=0 note=62 velocity=127 time=0.015625\n",
      "note_off channel=0 note=61 velocity=127 time=0.004166666666666667\n",
      "note_off channel=0 note=62 velocity=127 time=0.015625\n",
      "note_on channel=0 note=62 velocity=127 time=0.10416666666666667\n",
      "note_off channel=0 note=62 velocity=127 time=0.019791666666666666\n",
      "note_on channel=0 note=61 velocity=127 time=0.014583333333333334\n",
      "note_off channel=0 note=61 velocity=127 time=0.019791666666666666\n",
      "note_on channel=0 note=60 velocity=127 time=0.007291666666666667\n",
      "note_off channel=0 note=60 velocity=127 time=0.019791666666666666\n",
      "note_on channel=0 note=62 velocity=127 time=0.042708333333333334\n",
      "note_off channel=0 note=62 velocity=127 time=0.019791666666666666\n",
      "note_on channel=0 note=61 velocity=127 time=0.06354166666666666\n",
      "note_off channel=0 note=61 velocity=127 time=0.019791666666666666\n",
      "note_on channel=0 note=62 velocity=127 time=0.020833333333333332\n",
      "note_off channel=0 note=62 velocity=127 time=0.019791666666666666\n",
      "note_on channel=0 note=62 velocity=127 time=0.10416666666666667\n",
      "\u001b[91m [DEBUG] > \u001b[0m\n",
      " |>  to_array: msg.time > max_t; t, n\n",
      " |>  3.051041666666668\n",
      " |>  150\n",
      "note_on channel=0 note=60 velocity=127 time=0.0010416666666666667\n",
      "note_off channel=0 note=60 velocity=127 time=0.019791666666666666\n",
      "note_on channel=0 note=60 velocity=127 time=0.065625\n",
      "note_off channel=0 note=60 velocity=127 time=0.019791666666666666\n",
      "note_on channel=0 note=61 velocity=127 time=0\n",
      "note_off channel=0 note=61 velocity=127 time=0.019791666666666666\n",
      "note_on channel=0 note=60 velocity=127 time=0.04479166666666667\n",
      "note_off channel=0 note=60 velocity=127 time=0.019791666666666666\n",
      "note_on channel=0 note=62 velocity=127 time=0.053125\n",
      "note_on channel=0 note=61 velocity=127 time=0.0010416666666666667\n",
      "note_on channel=0 note=60 velocity=127 time=0.011458333333333333\n",
      "note_off channel=0 note=62 velocity=127 time=0.007291666666666667\n",
      "note_off channel=0 note=61 velocity=127 time=0.0010416666666666667\n",
      "note_off channel=0 note=60 velocity=127 time=0.011458333333333333\n",
      "note_on channel=0 note=60 velocity=127 time=0.065625\n",
      "note_off channel=0 note=60 velocity=127 time=0.019791666666666666\n",
      "note_on channel=0 note=61 velocity=127 time=0.021875\n",
      "note_off channel=0 note=61 velocity=127 time=0.019791666666666666\n",
      "note_on channel=0 note=60 velocity=127 time=0.02395833333333333\n",
      "note_off channel=0 note=60 velocity=127 time=0.019791666666666666\n",
      "note_on channel=0 note=60 velocity=127 time=0.065625\n",
      "note_on channel=0 note=61 velocity=127 time=0.009375\n",
      "note_off channel=0 note=60 velocity=127 time=0.010416666666666666\n",
      "note_on channel=0 note=62 velocity=127 time=0.003125\n",
      "note_off channel=0 note=61 velocity=127 time=0.00625\n",
      "note_off channel=0 note=62 velocity=127 time=0.013541666666666667\n",
      "note_on channel=0 note=60 velocity=127 time=0.042708333333333334\n",
      "note_off channel=0 note=60 velocity=127 time=0.019791666666666666\n",
      "note_on channel=0 note=61 velocity=127 time=0.042708333333333334\n",
      "note_off channel=0 note=61 velocity=127 time=0.019791666666666666\n",
      "note_on channel=0 note=60 velocity=127 time=0.003125\n",
      "note_off channel=0 note=60 velocity=127 time=0.019791666666666666\n",
      "note_on channel=0 note=60 velocity=127 time=0.065625\n",
      "note_off channel=0 note=60 velocity=127 time=0.019791666666666666\n",
      "note_on channel=0 note=61 velocity=127 time=0.010416666666666666\n",
      "note_off channel=0 note=61 velocity=127 time=0.019791666666666666\n",
      "note_on channel=0 note=62 velocity=127 time=0.007291666666666667\n",
      "note_off channel=0 note=62 velocity=127 time=0.019791666666666666\n",
      "note_on channel=0 note=60 velocity=127 time=0.007291666666666667\n",
      "note_off channel=0 note=60 velocity=127 time=0.019791666666666666\n",
      "note_on channel=0 note=61 velocity=127 time=0.06458333333333333\n",
      "note_on channel=0 note=60 velocity=127 time=0.0010416666666666667\n",
      "note_off channel=0 note=61 velocity=127 time=0.01875\n",
      "note_off channel=0 note=60 velocity=127 time=0.0010416666666666667\n",
      "note_on channel=0 note=60 velocity=127 time=0.065625\n",
      "note_off channel=0 note=60 velocity=127 time=0.019791666666666666\n",
      "note_on channel=0 note=61 velocity=127 time=0.03229166666666666\n",
      "note_off channel=0 note=61 velocity=127 time=0.019791666666666666\n",
      "note_on channel=0 note=60 velocity=127 time=0.013541666666666667\n",
      "note_on channel=0 note=62 velocity=127 time=0.008333333333333333\n",
      "note_off channel=0 note=60 velocity=127 time=0.0125\n",
      "note_off channel=0 note=62 velocity=127 time=0.008333333333333333\n",
      "note_on channel=0 note=60 velocity=127 time=0.057291666666666664\n",
      "note_on channel=0 note=61 velocity=127 time=0.019791666666666666\n",
      "note_off channel=0 note=60 velocity=127 time=0\n",
      "note_off channel=0 note=61 velocity=127 time=0.019791666666666666\n",
      "note_on channel=0 note=60 velocity=127 time=0.04583333333333333\n",
      "note_off channel=0 note=60 velocity=127 time=0.019791666666666666\n",
      "note_on channel=0 note=61 velocity=127 time=0.053125\n",
      "note_on channel=0 note=60 velocity=127 time=0.0125\n",
      "note_off channel=0 note=61 velocity=127 time=0.007291666666666667\n",
      "note_off channel=0 note=60 velocity=127 time=0.0125\n",
      "note_on channel=0 note=62 velocity=127 time=0.022916666666666665\n",
      "note_off channel=0 note=62 velocity=127 time=0.019791666666666666\n",
      "note_on channel=0 note=60 velocity=127 time=0.021875\n",
      "note_off channel=0 note=60 velocity=127 time=0.019791666666666666\n",
      "note_on channel=0 note=61 velocity=127 time=0.020833333333333332\n",
      "note_off channel=0 note=61 velocity=127 time=0.019791666666666666\n",
      "note_on channel=0 note=60 velocity=127 time=0.02395833333333333\n",
      "note_off channel=0 note=60 velocity=127 time=0.019791666666666666\n",
      "note_on channel=0 note=60 velocity=127 time=0.065625\n",
      "note_on channel=0 note=61 velocity=127 time=0.009375\n",
      "note_off channel=0 note=60 velocity=127 time=0.010416666666666666\n",
      "note_off channel=0 note=61 velocity=127 time=0.009375\n",
      "note_on channel=0 note=62 velocity=127 time=0.05\n",
      "note_on channel=0 note=60 velocity=127 time=0.007291666666666667\n",
      "note_off channel=0 note=62 velocity=127 time=0.013541666666666667\n",
      "note_off channel=0 note=60 velocity=127 time=0.007291666666666667\n",
      "note_on channel=0 note=61 velocity=127 time=0.042708333333333334\n",
      "note_off channel=0 note=61 velocity=127 time=0.019791666666666666\n",
      "note_on channel=0 note=60 velocity=127 time=0.003125\n",
      "note_off channel=0 note=60 velocity=127 time=0.019791666666666666\n",
      "note_on channel=0 note=60 velocity=127 time=0.065625\n",
      "note_off channel=0 note=60 velocity=127 time=0.019791666666666666\n",
      "note_on channel=0 note=61 velocity=127 time=0.010416666666666666\n",
      "note_off channel=0 note=61 velocity=127 time=0.019791666666666666\n",
      "note_on channel=0 note=60 velocity=127 time=0.035416666666666666\n",
      "note_off channel=0 note=60 velocity=127 time=0.019791666666666666\n",
      "note_on channel=0 note=62 velocity=127 time=0.008333333333333333\n",
      "note_off channel=0 note=62 velocity=127 time=0.019791666666666666\n",
      "note_on channel=0 note=61 velocity=127 time=0.035416666666666666\n",
      "note_on channel=0 note=60 velocity=127 time=0.0020833333333333333\n",
      "note_off channel=0 note=61 velocity=127 time=0.01875\n",
      "note_off channel=0 note=60 velocity=127 time=0.0020833333333333333\n",
      "note_on channel=0 note=60 velocity=127 time=0.065625\n",
      "note_off channel=0 note=60 velocity=127 time=0.019791666666666666\n",
      "note_on channel=0 note=61 velocity=127 time=0.03125\n",
      "note_off channel=0 note=61 velocity=127 time=0.019791666666666666\n",
      "note_on channel=0 note=60 velocity=127 time=0.013541666666666667\n",
      "note_off channel=0 note=60 velocity=127 time=0.019791666666666666\n",
      "note_on channel=0 note=62 velocity=127 time=0.04375\n",
      "note_off channel=0 note=62 velocity=127 time=0.019791666666666666\n",
      "note_on channel=0 note=60 velocity=127 time=0.0020833333333333333\n",
      "note_on channel=0 note=61 velocity=127 time=0.019791666666666666\n",
      "note_off channel=0 note=60 velocity=127 time=0\n",
      "note_off channel=0 note=61 velocity=127 time=0.019791666666666666\n",
      "note_on channel=0 note=60 velocity=127 time=0.04583333333333333\n",
      "note_off channel=0 note=60 velocity=127 time=0.019791666666666666\n",
      "note_on channel=0 note=61 velocity=127 time=0.053125\n",
      "note_on channel=0 note=60 velocity=127 time=0.0125\n",
      "note_off channel=0 note=61 velocity=127 time=0.007291666666666667\n",
      "note_off channel=0 note=60 velocity=127 time=0.0125\n",
      "note_on channel=0 note=60 velocity=127 time=0.065625\n",
      "note_on channel=0 note=62 velocity=127 time=0.013541666666666667\n",
      "note_off channel=0 note=60 velocity=127 time=0.00625\n",
      "note_off channel=0 note=62 velocity=127 time=0.013541666666666667\n",
      "note_on channel=0 note=61 velocity=127 time=0.007291666666666667\n",
      "note_off channel=0 note=61 velocity=127 time=0.019791666666666666\n",
      "note_on channel=0 note=60 velocity=127 time=0.025\n",
      "note_off channel=0 note=60 velocity=127 time=0.019791666666666666\n",
      "note_on channel=0 note=60 velocity=127 time=0.065625\n",
      "note_on channel=0 note=61 velocity=127 time=0.008333333333333333\n",
      "note_off channel=0 note=60 velocity=127 time=0.011458333333333333\n",
      "note_off channel=0 note=61 velocity=127 time=0.008333333333333333\n",
      "note_on channel=0 note=60 velocity=127 time=0.057291666666666664\n",
      "note_off channel=0 note=60 velocity=127 time=0.019791666666666666\n",
      "note_on channel=0 note=62 velocity=127 time=0.029166666666666667\n",
      "note_on channel=0 note=61 velocity=127 time=0.0125\n",
      "note_off channel=0 note=62 velocity=127 time=0.007291666666666667\n",
      "note_off channel=0 note=61 velocity=127 time=0.0125\n",
      "note_on channel=0 note=60 velocity=127 time=0.003125\n",
      "note_off channel=0 note=60 velocity=127 time=0.019791666666666666\n",
      "note_on channel=0 note=60 velocity=127 time=0.065625\n",
      "note_off channel=0 note=60 velocity=127 time=0.019791666666666666\n",
      "\u001b[91m [DEBUG] > \u001b[0m\n",
      " |>  to_array: msg.time > max_t; t, n\n",
      " |>  3.008333333333336\n",
      " |>  150\n",
      "note_on channel=0 note=61 velocity=127 time=0\n",
      "note_on channel=0 note=62 velocity=127 time=0.013541666666666667\n",
      "note_off channel=0 note=61 velocity=127 time=0.007291666666666667\n",
      "note_off channel=0 note=62 velocity=127 time=0.013541666666666667\n",
      "note_on channel=0 note=62 velocity=127 time=0.05\n",
      "note_off channel=0 note=62 velocity=127 time=0.019791666666666666\n",
      "note_on channel=0 note=60 velocity=127 time=0.013541666666666667\n",
      "note_on channel=0 note=61 velocity=127 time=0.0125\n",
      "note_off channel=0 note=60 velocity=127 time=0.007291666666666667\n",
      "note_off channel=0 note=61 velocity=127 time=0.0125\n",
      "note_on channel=0 note=62 velocity=127 time=0.003125\n",
      "note_off channel=0 note=62 velocity=127 time=0.019791666666666666\n",
      "note_on channel=0 note=62 velocity=127 time=0.05\n",
      "note_off channel=0 note=62 velocity=127 time=0.019791666666666666\n",
      "note_on channel=0 note=61 velocity=127 time=0.017708333333333333\n",
      "note_on channel=0 note=60 velocity=127 time=0.0020833333333333333\n",
      "note_off channel=0 note=61 velocity=127 time=0.017708333333333333\n",
      "note_off channel=0 note=60 velocity=127 time=0.0020833333333333333\n",
      "note_on channel=0 note=62 velocity=127 time=0.009375\n",
      "note_off channel=0 note=62 velocity=127 time=0.019791666666666666\n",
      "note_on channel=0 note=62 velocity=127 time=0.05\n",
      "note_off channel=0 note=62 velocity=127 time=0.019791666666666666\n",
      "note_on channel=0 note=61 velocity=127 time=0.007291666666666667\n",
      "note_on channel=0 note=60 velocity=127 time=0.017708333333333333\n",
      "note_off channel=0 note=61 velocity=127 time=0.0020833333333333333\n",
      "note_off channel=0 note=60 velocity=127 time=0.017708333333333333\n",
      "note_on channel=0 note=62 velocity=127 time=0.004166666666666667\n",
      "note_off channel=0 note=62 velocity=127 time=0.019791666666666666\n",
      "note_on channel=0 note=62 velocity=127 time=0.05\n",
      "note_on channel=0 note=61 velocity=127 time=0.017708333333333333\n",
      "note_off channel=0 note=62 velocity=127 time=0.0020833333333333333\n",
      "note_off channel=0 note=61 velocity=127 time=0.017708333333333333\n",
      "note_on channel=0 note=60 velocity=127 time=0.013541666666666667\n",
      "note_on channel=0 note=62 velocity=127 time=0.01875\n",
      "note_off channel=0 note=60 velocity=127 time=0.0020833333333333333\n",
      "note_off channel=0 note=62 velocity=127 time=0.01875\n",
      "note_on channel=0 note=62 velocity=127 time=0.05\n",
      "note_on channel=0 note=61 velocity=127 time=0.008333333333333333\n",
      "note_off channel=0 note=62 velocity=127 time=0.011458333333333333\n",
      "note_off channel=0 note=61 velocity=127 time=0.008333333333333333\n",
      "note_on channel=0 note=60 velocity=127 time=0.028125\n",
      "note_on channel=0 note=62 velocity=127 time=0.0125\n",
      "note_off channel=0 note=60 velocity=127 time=0.007291666666666667\n",
      "note_off channel=0 note=62 velocity=127 time=0.0125\n",
      "note_on channel=0 note=61 velocity=127 time=0.04895833333333333\n",
      "note_on channel=0 note=62 velocity=127 time=0.0010416666666666667\n",
      "note_off channel=0 note=61 velocity=127 time=0.01875\n",
      "note_off channel=0 note=62 velocity=127 time=0.0010416666666666667\n",
      "note_on channel=0 note=60 velocity=127 time=0.042708333333333334\n",
      "note_on channel=0 note=62 velocity=127 time=0.007291666666666667\n",
      "note_off channel=0 note=60 velocity=127 time=0.0125\n",
      "note_off channel=0 note=62 velocity=127 time=0.007291666666666667\n",
      "note_on channel=0 note=61 velocity=127 time=0.03854166666666667\n",
      "note_on channel=0 note=62 velocity=127 time=0.010416666666666666\n",
      "note_off channel=0 note=61 velocity=127 time=0.009375\n",
      "note_off channel=0 note=62 velocity=127 time=0.010416666666666666\n",
      "note_on channel=0 note=60 velocity=127 time=0.04791666666666666\n",
      "note_on channel=0 note=62 velocity=127 time=0.0010416666666666667\n",
      "note_off channel=0 note=60 velocity=127 time=0.01875\n",
      "note_off channel=0 note=62 velocity=127 time=0.0010416666666666667\n",
      "note_on channel=0 note=61 velocity=127 time=0.029166666666666667\n",
      "note_off channel=0 note=61 velocity=127 time=0.019791666666666666\n",
      "note_on channel=0 note=62 velocity=127 time=0\n",
      "note_off channel=0 note=62 velocity=127 time=0.019791666666666666\n",
      "note_on channel=0 note=62 velocity=127 time=0.05\n",
      "note_on channel=0 note=60 velocity=127 time=0.004166666666666667\n",
      "note_off channel=0 note=62 velocity=127 time=0.015625\n",
      "note_off channel=0 note=60 velocity=127 time=0.004166666666666667\n",
      "note_on channel=0 note=61 velocity=127 time=0.015625\n",
      "note_off channel=0 note=61 velocity=127 time=0.019791666666666666\n",
      "note_on channel=0 note=62 velocity=127 time=0.009375\n",
      "note_off channel=0 note=62 velocity=127 time=0.019791666666666666\n",
      "note_on channel=0 note=62 velocity=127 time=0.05\n",
      "note_on channel=0 note=60 velocity=127 time=0.010416666666666666\n",
      "note_off channel=0 note=62 velocity=127 time=0.010416666666666666\n",
      "note_off channel=0 note=60 velocity=127 time=0.010416666666666666\n",
      "note_on channel=0 note=61 velocity=127 time=0\n",
      "note_off channel=0 note=61 velocity=127 time=0.019791666666666666\n",
      "note_on channel=0 note=62 velocity=127 time=0.019791666666666666\n",
      "note_off channel=0 note=62 velocity=127 time=0.019791666666666666\n",
      "note_on channel=0 note=62 velocity=127 time=0.05\n",
      "note_on channel=0 note=60 velocity=127 time=0.015625\n",
      "note_off channel=0 note=62 velocity=127 time=0.004166666666666667\n",
      "note_on channel=0 note=61 velocity=127 time=0.0010416666666666667\n",
      "note_off channel=0 note=60 velocity=127 time=0.014583333333333334\n",
      "note_off channel=0 note=61 velocity=127 time=0.005208333333333333\n",
      "note_on channel=0 note=62 velocity=127 time=0.029166666666666667\n",
      "note_off channel=0 note=62 velocity=127 time=0.019791666666666666\n",
      "note_on channel=0 note=62 velocity=127 time=0.05\n",
      "note_on channel=0 note=61 velocity=127 time=0.011458333333333333\n",
      "note_off channel=0 note=62 velocity=127 time=0.009375\n",
      "note_on channel=0 note=60 velocity=127 time=0.0010416666666666667\n",
      "note_off channel=0 note=61 velocity=127 time=0.009375\n",
      "note_off channel=0 note=60 velocity=127 time=0.010416666666666666\n",
      "note_on channel=0 note=62 velocity=127 time=0.028125\n",
      "note_off channel=0 note=62 velocity=127 time=0.019791666666666666\n",
      "note_on channel=0 note=62 velocity=127 time=0.05\n",
      "note_on channel=0 note=61 velocity=127 time=0.0010416666666666667\n",
      "note_off channel=0 note=62 velocity=127 time=0.01875\n",
      "note_off channel=0 note=61 velocity=127 time=0.0010416666666666667\n",
      "note_on channel=0 note=60 velocity=127 time=0.005208333333333333\n",
      "note_off channel=0 note=60 velocity=127 time=0.019791666666666666\n",
      "note_on channel=0 note=62 velocity=127 time=0.022916666666666665\n",
      "note_off channel=0 note=62 velocity=127 time=0.019791666666666666\n",
      "note_on channel=0 note=61 velocity=127 time=0.041666666666666664\n",
      "note_on channel=0 note=62 velocity=127 time=0.008333333333333333\n",
      "note_off channel=0 note=61 velocity=127 time=0.011458333333333333\n",
      "note_off channel=0 note=62 velocity=127 time=0.008333333333333333\n",
      "note_on channel=0 note=60 velocity=127 time=0.0125\n",
      "note_off channel=0 note=60 velocity=127 time=0.019791666666666666\n",
      "note_on channel=0 note=62 velocity=127 time=0.016666666666666666\n",
      "note_off channel=0 note=62 velocity=127 time=0.019791666666666666\n",
      "note_on channel=0 note=61 velocity=127 time=0.03229166666666666\n",
      "note_on channel=0 note=62 velocity=127 time=0.017708333333333333\n",
      "note_off channel=0 note=61 velocity=127 time=0.0020833333333333333\n",
      "note_off channel=0 note=62 velocity=127 time=0.017708333333333333\n",
      "note_on channel=0 note=60 velocity=127 time=0.01875\n",
      "note_off channel=0 note=60 velocity=127 time=0.019791666666666666\n",
      "note_on channel=0 note=62 velocity=127 time=0.011458333333333333\n",
      "note_off channel=0 note=62 velocity=127 time=0.019791666666666666\n",
      "note_on channel=0 note=61 velocity=127 time=0.021875\n",
      "note_off channel=0 note=61 velocity=127 time=0.019791666666666666\n",
      "note_on channel=0 note=62 velocity=127 time=0.007291666666666667\n",
      "note_off channel=0 note=62 velocity=127 time=0.019791666666666666\n",
      "note_on channel=0 note=60 velocity=127 time=0.02395833333333333\n",
      "note_off channel=0 note=60 velocity=127 time=0.019791666666666666\n",
      "note_on channel=0 note=62 velocity=127 time=0.005208333333333333\n",
      "note_off channel=0 note=62 velocity=127 time=0.019791666666666666\n",
      "note_on channel=0 note=61 velocity=127 time=0.0125\n",
      "note_off channel=0 note=61 velocity=127 time=0.019791666666666666\n",
      "note_on channel=0 note=62 velocity=127 time=0.016666666666666666\n",
      "note_off channel=0 note=62 velocity=127 time=0.019791666666666666\n",
      "note_on channel=0 note=60 velocity=127 time=0.030208333333333334\n",
      "note_on channel=0 note=62 velocity=127 time=0.019791666666666666\n",
      "note_off channel=0 note=60 velocity=127 time=0\n",
      "note_off channel=0 note=62 velocity=127 time=0.019791666666666666\n",
      "note_on channel=0 note=61 velocity=127 time=0.003125\n",
      "note_off channel=0 note=61 velocity=127 time=0.019791666666666666\n",
      "note_on channel=0 note=62 velocity=127 time=0.026041666666666668\n",
      "note_off channel=0 note=62 velocity=127 time=0.019791666666666666\n",
      "note_on channel=0 note=60 velocity=127 time=0.035416666666666666\n",
      "note_on channel=0 note=62 velocity=127 time=0.014583333333333334\n",
      "note_off channel=0 note=60 velocity=127 time=0.00625\n",
      "note_on channel=0 note=61 velocity=127 time=0.007291666666666667\n",
      "note_off channel=0 note=62 velocity=127 time=0.00625\n",
      "note_off channel=0 note=61 velocity=127 time=0.013541666666666667\n",
      "note_on channel=0 note=62 velocity=127 time=0.035416666666666666\n",
      "note_off channel=0 note=62 velocity=127 time=0.019791666666666666\n",
      "note_on channel=0 note=60 velocity=127 time=0.040625\n",
      "note_on channel=0 note=62 velocity=127 time=0.008333333333333333\n",
      "note_on channel=0 note=61 velocity=127 time=0.004166666666666667\n",
      "note_off channel=0 note=60 velocity=127 time=0.007291666666666667\n",
      "note_off channel=0 note=62 velocity=127 time=0.008333333333333333\n",
      "note_off channel=0 note=61 velocity=127 time=0.004166666666666667\n",
      "note_on channel=0 note=62 velocity=127 time=0.04583333333333333\n",
      "note_off channel=0 note=62 velocity=127 time=0.019791666666666666\n",
      "note_on channel=0 note=61 velocity=127 time=0.04375\n",
      "note_on channel=0 note=60 velocity=127 time=0.003125\n",
      "note_on channel=0 note=62 velocity=127 time=0.003125\n",
      "note_off channel=0 note=61 velocity=127 time=0.014583333333333334\n",
      "note_off channel=0 note=60 velocity=127 time=0.003125\n",
      "note_off channel=0 note=62 velocity=127 time=0.003125\n",
      "note_on channel=0 note=62 velocity=127 time=0.05\n",
      "note_off channel=0 note=62 velocity=127 time=0.019791666666666666\n",
      "note_on channel=0 note=61 velocity=127 time=0.034375\n",
      "note_on channel=0 note=62 velocity=127 time=0.014583333333333334\n",
      "note_on channel=0 note=60 velocity=127 time=0.003125\n",
      "note_off channel=0 note=61 velocity=127 time=0.0020833333333333333\n",
      "note_off channel=0 note=62 velocity=127 time=0.014583333333333334\n",
      "note_off channel=0 note=60 velocity=127 time=0.003125\n",
      "note_on channel=0 note=62 velocity=127 time=0.046875\n",
      "note_off channel=0 note=62 velocity=127 time=0.019791666666666666\n",
      "note_on channel=0 note=61 velocity=127 time=0.025\n",
      "note_off channel=0 note=61 velocity=127 time=0.019791666666666666\n",
      "\u001b[91m [DEBUG] > \u001b[0m\n",
      " |>  to_array: msg.time > max_t; t, n\n",
      " |>  2.9958333333333362\n",
      " |>  150\n",
      "note_on channel=0 note=61 velocity=127 time=0.015625\n",
      "note_off channel=0 note=61 velocity=127 time=0.019791666666666666\n",
      "note_on channel=0 note=62 velocity=127 time=0.026041666666666668\n",
      "note_off channel=0 note=62 velocity=127 time=0.019791666666666666\n",
      "note_on channel=0 note=61 velocity=127 time=0.017708333333333333\n",
      "note_off channel=0 note=61 velocity=127 time=0.019791666666666666\n",
      "note_on channel=0 note=62 velocity=127 time=0.027083333333333334\n",
      "note_on channel=0 note=60 velocity=127 time=0.003125\n",
      "note_off channel=0 note=62 velocity=127 time=0.016666666666666666\n",
      "note_off channel=0 note=60 velocity=127 time=0.003125\n",
      "note_on channel=0 note=61 velocity=127 time=0.013541666666666667\n",
      "note_off channel=0 note=61 velocity=127 time=0.019791666666666666\n",
      "note_on channel=0 note=62 velocity=127 time=0.027083333333333334\n",
      "note_off channel=0 note=62 velocity=127 time=0.019791666666666666\n",
      "note_on channel=0 note=61 velocity=127 time=0.016666666666666666\n",
      "note_off channel=0 note=61 velocity=127 time=0.019791666666666666\n",
      "note_on channel=0 note=62 velocity=127 time=0.028125\n",
      "note_off channel=0 note=62 velocity=127 time=0.019791666666666666\n",
      "note_on channel=0 note=61 velocity=127 time=0.016666666666666666\n",
      "note_on channel=0 note=60 velocity=127 time=0.0020833333333333333\n",
      "note_off channel=0 note=61 velocity=127 time=0.017708333333333333\n",
      "note_off channel=0 note=60 velocity=127 time=0.0020833333333333333\n",
      "note_on channel=0 note=62 velocity=127 time=0.026041666666666668\n",
      "note_off channel=0 note=62 velocity=127 time=0.019791666666666666\n",
      "note_on channel=0 note=61 velocity=127 time=0.015625\n",
      "note_off channel=0 note=61 velocity=127 time=0.019791666666666666\n",
      "note_on channel=0 note=62 velocity=127 time=0.029166666666666667\n",
      "note_off channel=0 note=62 velocity=127 time=0.019791666666666666\n",
      "note_on channel=0 note=61 velocity=127 time=0.015625\n",
      "note_off channel=0 note=61 velocity=127 time=0.019791666666666666\n",
      "note_on channel=0 note=60 velocity=127 time=0.01875\n",
      "note_on channel=0 note=62 velocity=127 time=0.011458333333333333\n",
      "note_off channel=0 note=60 velocity=127 time=0.009375\n",
      "note_off channel=0 note=62 velocity=127 time=0.011458333333333333\n",
      "note_on channel=0 note=61 velocity=127 time=0.014583333333333334\n",
      "note_off channel=0 note=61 velocity=127 time=0.019791666666666666\n",
      "note_on channel=0 note=62 velocity=127 time=0.030208333333333334\n",
      "note_off channel=0 note=62 velocity=127 time=0.019791666666666666\n",
      "note_on channel=0 note=61 velocity=127 time=0.014583333333333334\n",
      "note_off channel=0 note=61 velocity=127 time=0.019791666666666666\n",
      "note_on channel=0 note=62 velocity=127 time=0.03125\n",
      "note_off channel=0 note=62 velocity=127 time=0.019791666666666666\n",
      "note_on channel=0 note=60 velocity=127 time=0.004166666666666667\n",
      "note_on channel=0 note=61 velocity=127 time=0.009375\n",
      "note_off channel=0 note=60 velocity=127 time=0.010416666666666666\n",
      "note_off channel=0 note=61 velocity=127 time=0.009375\n",
      "note_on channel=0 note=62 velocity=127 time=0.03125\n",
      "note_off channel=0 note=62 velocity=127 time=0.019791666666666666\n",
      "note_on channel=0 note=61 velocity=127 time=0.013541666666666667\n",
      "note_off channel=0 note=61 velocity=127 time=0.019791666666666666\n",
      "note_on channel=0 note=62 velocity=127 time=0.03229166666666666\n",
      "note_off channel=0 note=62 velocity=127 time=0.019791666666666666\n",
      "note_on channel=0 note=61 velocity=127 time=0.0125\n",
      "note_off channel=0 note=61 velocity=127 time=0.019791666666666666\n",
      "note_on channel=0 note=60 velocity=127 time=0.007291666666666667\n",
      "note_off channel=0 note=60 velocity=127 time=0.019791666666666666\n",
      "note_on channel=0 note=62 velocity=127 time=0.005208333333333333\n",
      "note_off channel=0 note=62 velocity=127 time=0.019791666666666666\n",
      "note_on channel=0 note=61 velocity=127 time=0.0125\n",
      "note_off channel=0 note=61 velocity=127 time=0.019791666666666666\n",
      "note_on channel=0 note=62 velocity=127 time=0.03333333333333333\n",
      "note_off channel=0 note=62 velocity=127 time=0.019791666666666666\n",
      "note_on channel=0 note=61 velocity=127 time=0.011458333333333333\n",
      "note_off channel=0 note=61 velocity=127 time=0.019791666666666666\n",
      "note_on channel=0 note=62 velocity=127 time=0.03333333333333333\n",
      "note_on channel=0 note=60 velocity=127 time=0.009375\n",
      "note_off channel=0 note=62 velocity=127 time=0.010416666666666666\n",
      "note_off channel=0 note=60 velocity=127 time=0.009375\n",
      "note_on channel=0 note=61 velocity=127 time=0.0010416666666666667\n",
      "note_off channel=0 note=61 velocity=127 time=0.019791666666666666\n",
      "note_on channel=0 note=62 velocity=127 time=0.034375\n",
      "note_off channel=0 note=62 velocity=127 time=0.019791666666666666\n",
      "note_on channel=0 note=61 velocity=127 time=0.010416666666666666\n",
      "note_off channel=0 note=61 velocity=127 time=0.019791666666666666\n",
      "note_on channel=0 note=62 velocity=127 time=0.034375\n",
      "note_off channel=0 note=62 velocity=127 time=0.019791666666666666\n",
      "note_on channel=0 note=61 velocity=127 time=0.010416666666666666\n",
      "note_on channel=0 note=60 velocity=127 time=0.015625\n",
      "note_off channel=0 note=61 velocity=127 time=0.005208333333333333\n",
      "note_off channel=0 note=60 velocity=127 time=0.015625\n",
      "note_on channel=0 note=62 velocity=127 time=0.019791666666666666\n",
      "note_off channel=0 note=62 velocity=127 time=0.019791666666666666\n",
      "note_on channel=0 note=61 velocity=127 time=0.009375\n",
      "note_off channel=0 note=61 velocity=127 time=0.019791666666666666\n",
      "note_on channel=0 note=62 velocity=127 time=0.035416666666666666\n",
      "note_off channel=0 note=62 velocity=127 time=0.019791666666666666\n",
      "note_on channel=0 note=61 velocity=127 time=0.009375\n",
      "note_off channel=0 note=61 velocity=127 time=0.019791666666666666\n",
      "note_on channel=0 note=60 velocity=127 time=0.03125\n",
      "note_on channel=0 note=62 velocity=127 time=0.004166666666666667\n",
      "note_off channel=0 note=60 velocity=127 time=0.015625\n",
      "note_off channel=0 note=62 velocity=127 time=0.004166666666666667\n",
      "note_on channel=0 note=61 velocity=127 time=0.008333333333333333\n",
      "note_off channel=0 note=61 velocity=127 time=0.019791666666666666\n",
      "note_on channel=0 note=62 velocity=127 time=0.036458333333333336\n",
      "note_off channel=0 note=62 velocity=127 time=0.019791666666666666\n",
      "note_on channel=0 note=61 velocity=127 time=0.008333333333333333\n",
      "note_off channel=0 note=61 velocity=127 time=0.019791666666666666\n",
      "note_on channel=0 note=62 velocity=127 time=0.0375\n",
      "note_off channel=0 note=62 velocity=127 time=0.019791666666666666\n",
      "note_on channel=0 note=61 velocity=127 time=0.007291666666666667\n",
      "note_on channel=0 note=60 velocity=127 time=0.003125\n",
      "note_off channel=0 note=61 velocity=127 time=0.016666666666666666\n",
      "note_off channel=0 note=60 velocity=127 time=0.003125\n",
      "note_on channel=0 note=62 velocity=127 time=0.034375\n",
      "note_off channel=0 note=62 velocity=127 time=0.019791666666666666\n",
      "note_on channel=0 note=61 velocity=127 time=0.007291666666666667\n",
      "note_off channel=0 note=61 velocity=127 time=0.019791666666666666\n",
      "note_on channel=0 note=62 velocity=127 time=0.03854166666666667\n",
      "note_off channel=0 note=62 velocity=127 time=0.019791666666666666\n",
      "note_on channel=0 note=61 velocity=127 time=0.00625\n",
      "note_off channel=0 note=61 velocity=127 time=0.019791666666666666\n",
      "note_on channel=0 note=60 velocity=127 time=0.019791666666666666\n",
      "note_on channel=0 note=62 velocity=127 time=0.01875\n",
      "note_off channel=0 note=60 velocity=127 time=0.0010416666666666667\n",
      "note_off channel=0 note=62 velocity=127 time=0.01875\n",
      "note_on channel=0 note=61 velocity=127 time=0.00625\n",
      "note_off channel=0 note=61 velocity=127 time=0.019791666666666666\n",
      "note_on channel=0 note=62 velocity=127 time=0.03958333333333333\n",
      "note_off channel=0 note=62 velocity=127 time=0.019791666666666666\n",
      "note_on channel=0 note=61 velocity=127 time=0.005208333333333333\n",
      "note_off channel=0 note=61 velocity=127 time=0.019791666666666666\n",
      "note_on channel=0 note=62 velocity=127 time=0.03958333333333333\n",
      "note_on channel=0 note=60 velocity=127 time=0.016666666666666666\n",
      "note_off channel=0 note=62 velocity=127 time=0.004166666666666667\n",
      "note_on channel=0 note=61 velocity=127 time=0.005208333333333333\n",
      "note_off channel=0 note=60 velocity=127 time=0.011458333333333333\n",
      "note_off channel=0 note=61 velocity=127 time=0.008333333333333333\n",
      "note_on channel=0 note=62 velocity=127 time=0.040625\n",
      "note_off channel=0 note=62 velocity=127 time=0.019791666666666666\n",
      "note_on channel=0 note=61 velocity=127 time=0.004166666666666667\n",
      "note_off channel=0 note=61 velocity=127 time=0.019791666666666666\n",
      "note_on channel=0 note=62 velocity=127 time=0.040625\n",
      "note_off channel=0 note=62 velocity=127 time=0.019791666666666666\n",
      "note_on channel=0 note=61 velocity=127 time=0.003125\n",
      "note_off channel=0 note=61 velocity=127 time=0.019791666666666666\n",
      "note_on channel=0 note=60 velocity=127 time=0.008333333333333333\n",
      "note_off channel=0 note=60 velocity=127 time=0.019791666666666666\n",
      "note_on channel=0 note=62 velocity=127 time=0.013541666666666667\n",
      "note_off channel=0 note=62 velocity=127 time=0.019791666666666666\n",
      "note_on channel=0 note=61 velocity=127 time=0.003125\n",
      "note_off channel=0 note=61 velocity=127 time=0.019791666666666666\n",
      "note_on channel=0 note=62 velocity=127 time=0.041666666666666664\n",
      "note_off channel=0 note=62 velocity=127 time=0.019791666666666666\n",
      "note_on channel=0 note=61 velocity=127 time=0.0020833333333333333\n",
      "note_off channel=0 note=61 velocity=127 time=0.019791666666666666\n",
      "note_on channel=0 note=62 velocity=127 time=0.042708333333333334\n",
      "note_on channel=0 note=60 velocity=127 time=0.0020833333333333333\n",
      "note_off channel=0 note=62 velocity=127 time=0.01875\n",
      "note_off channel=0 note=60 velocity=127 time=0.0020833333333333333\n",
      "note_on channel=0 note=61 velocity=127 time=0\n",
      "note_off channel=0 note=61 velocity=127 time=0.019791666666666666\n",
      "note_on channel=0 note=62 velocity=127 time=0.042708333333333334\n",
      "note_off channel=0 note=62 velocity=127 time=0.019791666666666666\n",
      "note_on channel=0 note=61 velocity=127 time=0.0010416666666666667\n",
      "note_off channel=0 note=61 velocity=127 time=0.019791666666666666\n",
      "note_on channel=0 note=62 velocity=127 time=0.04375\n",
      "note_off channel=0 note=62 velocity=127 time=0.019791666666666666\n",
      "note_on channel=0 note=61 velocity=127 time=0.0010416666666666667\n",
      "note_on channel=0 note=60 velocity=127 time=0.015625\n",
      "note_off channel=0 note=61 velocity=127 time=0.004166666666666667\n",
      "note_off channel=0 note=60 velocity=127 time=0.015625\n",
      "note_on channel=0 note=62 velocity=127 time=0.028125\n",
      "note_off channel=0 note=62 velocity=127 time=0.019791666666666666\n",
      "note_on channel=0 note=61 velocity=127 time=0\n",
      "note_off channel=0 note=61 velocity=127 time=0.019791666666666666\n",
      "note_on channel=0 note=62 velocity=127 time=0.04479166666666667\n",
      "note_on channel=0 note=61 velocity=127 time=0.019791666666666666\n",
      "note_off channel=0 note=62 velocity=127 time=0\n",
      "note_off channel=0 note=61 velocity=127 time=0.019791666666666666\n",
      "note_on channel=0 note=60 velocity=127 time=0.03229166666666666\n",
      "\u001b[91m [DEBUG] > \u001b[0m\n",
      " |>  to_array: msg.time > max_t; t, n\n",
      " |>  3.0145833333333365\n",
      " |>  150\n"
     ]
    },
    {
     "name": "stdout",
     "output_type": "stream",
     "text": [
      "note_on channel=0 note=60 velocity=127 time=0.03958333333333333\n",
      "note_off channel=0 note=60 velocity=127 time=0.019791666666666666\n",
      "note_on channel=0 note=60 velocity=127 time=0.059375\n",
      "note_on channel=0 note=61 velocity=127 time=0.003125\n",
      "note_off channel=0 note=60 velocity=127 time=0.017708333333333333\n",
      "note_off channel=0 note=61 velocity=127 time=0.003125\n",
      "note_on channel=0 note=62 velocity=127 time=0.010416666666666666\n",
      "note_off channel=0 note=62 velocity=127 time=0.019791666666666666\n",
      "note_on channel=0 note=60 velocity=127 time=0.025\n",
      "note_off channel=0 note=60 velocity=127 time=0.019791666666666666\n",
      "note_on channel=0 note=60 velocity=127 time=0.059375\n",
      "note_on channel=0 note=61 velocity=127 time=0.005208333333333333\n",
      "note_off channel=0 note=60 velocity=127 time=0.014583333333333334\n",
      "note_off channel=0 note=61 velocity=127 time=0.005208333333333333\n",
      "note_on channel=0 note=62 velocity=127 time=0.005208333333333333\n",
      "note_off channel=0 note=62 velocity=127 time=0.019791666666666666\n",
      "note_on channel=0 note=60 velocity=127 time=0.028125\n",
      "note_off channel=0 note=60 velocity=127 time=0.019791666666666666\n",
      "note_on channel=0 note=60 velocity=127 time=0.059375\n",
      "note_on channel=0 note=61 velocity=127 time=0.007291666666666667\n",
      "note_off channel=0 note=60 velocity=127 time=0.0125\n",
      "note_on channel=0 note=62 velocity=127 time=0.007291666666666667\n",
      "note_off channel=0 note=61 velocity=127 time=0\n",
      "note_off channel=0 note=62 velocity=127 time=0.019791666666666666\n",
      "note_on channel=0 note=60 velocity=127 time=0.03125\n",
      "note_off channel=0 note=60 velocity=127 time=0.019791666666666666\n",
      "note_on channel=0 note=60 velocity=127 time=0.059375\n",
      "note_on channel=0 note=61 velocity=127 time=0.010416666666666666\n",
      "note_off channel=0 note=60 velocity=127 time=0.009375\n",
      "note_on channel=0 note=62 velocity=127 time=0.004166666666666667\n",
      "note_off channel=0 note=61 velocity=127 time=0.00625\n",
      "note_off channel=0 note=62 velocity=127 time=0.014583333333333334\n",
      "note_on channel=0 note=60 velocity=127 time=0.034375\n",
      "note_off channel=0 note=60 velocity=127 time=0.019791666666666666\n",
      "note_on channel=0 note=60 velocity=127 time=0.059375\n",
      "note_on channel=0 note=61 velocity=127 time=0.0125\n",
      "note_off channel=0 note=60 velocity=127 time=0.007291666666666667\n",
      "note_on channel=0 note=62 velocity=127 time=0.0010416666666666667\n",
      "note_off channel=0 note=61 velocity=127 time=0.011458333333333333\n",
      "note_off channel=0 note=62 velocity=127 time=0.008333333333333333\n",
      "note_on channel=0 note=60 velocity=127 time=0.0375\n",
      "note_off channel=0 note=60 velocity=127 time=0.019791666666666666\n",
      "note_on channel=0 note=60 velocity=127 time=0.059375\n",
      "note_on channel=0 note=61 velocity=127 time=0.014583333333333334\n",
      "note_on channel=0 note=62 velocity=127 time=0.003125\n",
      "note_off channel=0 note=60 velocity=127 time=0.0020833333333333333\n",
      "note_off channel=0 note=61 velocity=127 time=0.014583333333333334\n",
      "note_off channel=0 note=62 velocity=127 time=0.003125\n",
      "note_on channel=0 note=60 velocity=127 time=0.041666666666666664\n",
      "note_off channel=0 note=60 velocity=127 time=0.019791666666666666\n",
      "note_on channel=0 note=60 velocity=127 time=0.059375\n",
      "note_on channel=0 note=62 velocity=127 time=0.014583333333333334\n",
      "note_on channel=0 note=61 velocity=127 time=0.003125\n",
      "note_off channel=0 note=60 velocity=127 time=0.0020833333333333333\n",
      "note_off channel=0 note=62 velocity=127 time=0.014583333333333334\n",
      "note_off channel=0 note=61 velocity=127 time=0.003125\n",
      "note_on channel=0 note=60 velocity=127 time=0.041666666666666664\n",
      "note_off channel=0 note=60 velocity=127 time=0.019791666666666666\n",
      "note_on channel=0 note=60 velocity=127 time=0.059375\n",
      "note_on channel=0 note=62 velocity=127 time=0.011458333333333333\n",
      "note_on channel=0 note=61 velocity=127 time=0.008333333333333333\n",
      "note_off channel=0 note=60 velocity=127 time=0\n",
      "note_off channel=0 note=62 velocity=127 time=0.011458333333333333\n",
      "note_off channel=0 note=61 velocity=127 time=0.008333333333333333\n",
      "note_on channel=0 note=60 velocity=127 time=0.03958333333333333\n",
      "note_off channel=0 note=60 velocity=127 time=0.019791666666666666\n",
      "note_on channel=0 note=60 velocity=127 time=0.059375\n",
      "note_on channel=0 note=62 velocity=127 time=0.008333333333333333\n",
      "note_off channel=0 note=60 velocity=127 time=0.011458333333333333\n",
      "note_on channel=0 note=61 velocity=127 time=0.0020833333333333333\n",
      "note_off channel=0 note=62 velocity=127 time=0.00625\n",
      "note_off channel=0 note=61 velocity=127 time=0.013541666666666667\n",
      "note_on channel=0 note=60 velocity=127 time=0.036458333333333336\n",
      "note_off channel=0 note=60 velocity=127 time=0.019791666666666666\n",
      "note_on channel=0 note=60 velocity=127 time=0.059375\n",
      "note_on channel=0 note=62 velocity=127 time=0.005208333333333333\n",
      "note_off channel=0 note=60 velocity=127 time=0.014583333333333334\n",
      "note_on channel=0 note=61 velocity=127 time=0.005208333333333333\n",
      "note_off channel=0 note=62 velocity=127 time=0.0010416666666666667\n",
      "note_off channel=0 note=61 velocity=127 time=0.019791666666666666\n",
      "note_on channel=0 note=60 velocity=127 time=0.034375\n",
      "note_off channel=0 note=60 velocity=127 time=0.019791666666666666\n",
      "note_on channel=0 note=60 velocity=127 time=0.059375\n",
      "note_on channel=0 note=62 velocity=127 time=0.0020833333333333333\n",
      "note_off channel=0 note=60 velocity=127 time=0.017708333333333333\n",
      "note_off channel=0 note=62 velocity=127 time=0.0020833333333333333\n",
      "note_on channel=0 note=61 velocity=127 time=0.005208333333333333\n",
      "note_off channel=0 note=61 velocity=127 time=0.019791666666666666\n",
      "note_on channel=0 note=60 velocity=127 time=0.03229166666666666\n",
      "note_off channel=0 note=60 velocity=127 time=0.019791666666666666\n",
      "note_on channel=0 note=62 velocity=127 time=0.058333333333333334\n",
      "note_on channel=0 note=60 velocity=127 time=0.0010416666666666667\n",
      "note_off channel=0 note=62 velocity=127 time=0.01875\n",
      "note_off channel=0 note=60 velocity=127 time=0.0010416666666666667\n",
      "note_on channel=0 note=61 velocity=127 time=0.009375\n",
      "note_off channel=0 note=61 velocity=127 time=0.019791666666666666\n",
      "note_on channel=0 note=60 velocity=127 time=0.029166666666666667\n",
      "note_off channel=0 note=60 velocity=127 time=0.019791666666666666\n",
      "note_on channel=0 note=62 velocity=127 time=0.05520833333333333\n",
      "note_on channel=0 note=60 velocity=127 time=0.004166666666666667\n",
      "note_off channel=0 note=62 velocity=127 time=0.015625\n",
      "note_off channel=0 note=60 velocity=127 time=0.004166666666666667\n",
      "note_on channel=0 note=61 velocity=127 time=0.0125\n",
      "note_off channel=0 note=61 velocity=127 time=0.019791666666666666\n",
      "note_on channel=0 note=60 velocity=127 time=0.027083333333333334\n",
      "note_off channel=0 note=60 velocity=127 time=0.019791666666666666\n",
      "note_on channel=0 note=62 velocity=127 time=0.052083333333333336\n",
      "note_on channel=0 note=60 velocity=127 time=0.007291666666666667\n",
      "note_off channel=0 note=62 velocity=127 time=0.0125\n",
      "note_off channel=0 note=60 velocity=127 time=0.007291666666666667\n",
      "note_on channel=0 note=61 velocity=127 time=0.014583333333333334\n",
      "note_off channel=0 note=61 velocity=127 time=0.019791666666666666\n",
      "note_on channel=0 note=60 velocity=127 time=0.025\n",
      "note_off channel=0 note=60 velocity=127 time=0.019791666666666666\n",
      "note_on channel=0 note=62 velocity=127 time=0.04895833333333333\n",
      "note_on channel=0 note=60 velocity=127 time=0.010416666666666666\n",
      "note_off channel=0 note=62 velocity=127 time=0.009375\n",
      "note_off channel=0 note=60 velocity=127 time=0.010416666666666666\n",
      "note_on channel=0 note=61 velocity=127 time=0.016666666666666666\n",
      "note_off channel=0 note=61 velocity=127 time=0.019791666666666666\n",
      "note_on channel=0 note=60 velocity=127 time=0.021875\n",
      "note_off channel=0 note=60 velocity=127 time=0.019791666666666666\n",
      "note_on channel=0 note=62 velocity=127 time=0.04583333333333333\n",
      "note_on channel=0 note=60 velocity=127 time=0.013541666666666667\n",
      "note_off channel=0 note=62 velocity=127 time=0.00625\n",
      "note_off channel=0 note=60 velocity=127 time=0.013541666666666667\n",
      "note_on channel=0 note=61 velocity=127 time=0.019791666666666666\n",
      "note_off channel=0 note=61 velocity=127 time=0.019791666666666666\n",
      "note_on channel=0 note=60 velocity=127 time=0.019791666666666666\n",
      "note_off channel=0 note=60 velocity=127 time=0.019791666666666666\n",
      "note_on channel=0 note=62 velocity=127 time=0.042708333333333334\n",
      "note_on channel=0 note=60 velocity=127 time=0.016666666666666666\n",
      "note_off channel=0 note=62 velocity=127 time=0.003125\n",
      "note_off channel=0 note=60 velocity=127 time=0.016666666666666666\n",
      "note_on channel=0 note=61 velocity=127 time=0.021875\n",
      "note_off channel=0 note=61 velocity=127 time=0.019791666666666666\n",
      "note_on channel=0 note=60 velocity=127 time=0.017708333333333333\n",
      "note_off channel=0 note=60 velocity=127 time=0.019791666666666666\n",
      "note_on channel=0 note=62 velocity=127 time=0.03958333333333333\n",
      "note_on channel=0 note=60 velocity=127 time=0.019791666666666666\n",
      "note_off channel=0 note=62 velocity=127 time=0\n",
      "note_off channel=0 note=60 velocity=127 time=0.019791666666666666\n",
      "note_on channel=0 note=61 velocity=127 time=0.02395833333333333\n",
      "note_off channel=0 note=61 velocity=127 time=0.019791666666666666\n",
      "note_on channel=0 note=60 velocity=127 time=0.014583333333333334\n",
      "note_off channel=0 note=60 velocity=127 time=0.019791666666666666\n",
      "note_on channel=0 note=62 velocity=127 time=0.036458333333333336\n",
      "note_off channel=0 note=62 velocity=127 time=0.019791666666666666\n",
      "note_on channel=0 note=60 velocity=127 time=0.003125\n",
      "note_off channel=0 note=60 velocity=127 time=0.019791666666666666\n",
      "note_on channel=0 note=61 velocity=127 time=0.027083333333333334\n",
      "\u001b[91m [DEBUG] > \u001b[0m\n",
      " |>  to_array: msg.time > max_t; t, n\n",
      " |>  3.009375000000003\n",
      " |>  150\n",
      "note_on channel=0 note=62 velocity=127 time=0.003125\n",
      "note_off channel=0 note=62 velocity=127 time=0.019791666666666666\n",
      "note_on channel=0 note=61 velocity=127 time=0.040625\n",
      "note_on channel=0 note=60 velocity=127 time=0.0125\n",
      "note_off channel=0 note=61 velocity=127 time=0.007291666666666667\n",
      "note_on channel=0 note=62 velocity=127 time=0.011458333333333333\n",
      "note_off channel=0 note=60 velocity=127 time=0.0010416666666666667\n",
      "note_off channel=0 note=62 velocity=127 time=0.01875\n",
      "note_on channel=0 note=61 velocity=127 time=0.04791666666666666\n",
      "note_off channel=0 note=61 velocity=127 time=0.019791666666666666\n",
      "note_on channel=0 note=62 velocity=127 time=0.004166666666666667\n",
      "note_off channel=0 note=62 velocity=127 time=0.019791666666666666\n",
      "note_on channel=0 note=60 velocity=127 time=0.011458333333333333\n",
      "note_off channel=0 note=60 velocity=127 time=0.019791666666666666\n",
      "note_on channel=0 note=61 velocity=127 time=0.02395833333333333\n",
      "note_on channel=0 note=62 velocity=127 time=0.016666666666666666\n",
      "note_off channel=0 note=61 velocity=127 time=0.003125\n",
      "note_off channel=0 note=62 velocity=127 time=0.016666666666666666\n",
      "note_on channel=0 note=60 velocity=127 time=0.06145833333333333\n",
      "note_on channel=0 note=61 velocity=127 time=0.0020833333333333333\n",
      "note_on channel=0 note=62 velocity=127 time=0.009375\n",
      "note_off channel=0 note=60 velocity=127 time=0.008333333333333333\n",
      "note_off channel=0 note=61 velocity=127 time=0.0020833333333333333\n",
      "note_off channel=0 note=62 velocity=127 time=0.009375\n",
      "note_on channel=0 note=61 velocity=127 time=0.06979166666666667\n",
      "note_on channel=0 note=62 velocity=127 time=0.0020833333333333333\n",
      "note_off channel=0 note=61 velocity=127 time=0.017708333333333333\n",
      "note_off channel=0 note=62 velocity=127 time=0.0020833333333333333\n",
      "note_on channel=0 note=60 velocity=127 time=0.01875\n",
      "note_off channel=0 note=60 velocity=127 time=0.019791666666666666\n",
      "note_on channel=0 note=62 velocity=127 time=0.03333333333333333\n",
      "note_on channel=0 note=61 velocity=127 time=0.005208333333333333\n",
      "note_off channel=0 note=62 velocity=127 time=0.014583333333333334\n",
      "note_off channel=0 note=61 velocity=127 time=0.005208333333333333\n",
      "note_on channel=0 note=60 velocity=127 time=0.06354166666666666\n",
      "note_on channel=0 note=62 velocity=127 time=0.003125\n",
      "note_on channel=0 note=61 velocity=127 time=0.0125\n",
      "note_off channel=0 note=60 velocity=127 time=0.004166666666666667\n",
      "note_off channel=0 note=62 velocity=127 time=0.003125\n",
      "note_off channel=0 note=61 velocity=127 time=0.0125\n",
      "note_on channel=0 note=62 velocity=127 time=0.059375\n",
      "note_on channel=0 note=61 velocity=127 time=0.019791666666666666\n",
      "note_off channel=0 note=62 velocity=127 time=0\n",
      "note_off channel=0 note=61 velocity=127 time=0.019791666666666666\n",
      "note_on channel=0 note=60 velocity=127 time=0.007291666666666667\n",
      "note_off channel=0 note=60 velocity=127 time=0.019791666666666666\n",
      "note_on channel=0 note=62 velocity=127 time=0.026041666666666668\n",
      "note_off channel=0 note=62 velocity=127 time=0.019791666666666666\n",
      "note_on channel=0 note=61 velocity=127 time=0.007291666666666667\n",
      "note_off channel=0 note=61 velocity=127 time=0.019791666666666666\n",
      "note_on channel=0 note=62 velocity=127 time=0.04479166666666667\n",
      "note_on channel=0 note=60 velocity=127 time=0.004166666666666667\n",
      "note_off channel=0 note=62 velocity=127 time=0.015625\n",
      "note_off channel=0 note=60 velocity=127 time=0.004166666666666667\n",
      "note_on channel=0 note=61 velocity=127 time=0.010416666666666666\n",
      "note_off channel=0 note=61 velocity=127 time=0.019791666666666666\n",
      "note_on channel=0 note=62 velocity=127 time=0.0375\n",
      "note_off channel=0 note=62 velocity=127 time=0.019791666666666666\n",
      "note_on channel=0 note=61 velocity=127 time=0.021875\n",
      "note_on channel=0 note=60 velocity=127 time=0.0125\n",
      "note_off channel=0 note=61 velocity=127 time=0.007291666666666667\n",
      "note_off channel=0 note=60 velocity=127 time=0.0125\n",
      "note_on channel=0 note=62 velocity=127 time=0.017708333333333333\n",
      "note_off channel=0 note=62 velocity=127 time=0.019791666666666666\n",
      "note_on channel=0 note=61 velocity=127 time=0.029166666666666667\n",
      "note_off channel=0 note=61 velocity=127 time=0.019791666666666666\n",
      "note_on channel=0 note=62 velocity=127 time=0.022916666666666665\n",
      "note_on channel=0 note=60 velocity=127 time=0.0125\n",
      "note_off channel=0 note=62 velocity=127 time=0.007291666666666667\n",
      "note_off channel=0 note=60 velocity=127 time=0.0125\n",
      "note_on channel=0 note=61 velocity=127 time=0.025\n",
      "note_off channel=0 note=61 velocity=127 time=0.019791666666666666\n",
      "note_on channel=0 note=62 velocity=127 time=0.015625\n",
      "note_off channel=0 note=62 velocity=127 time=0.019791666666666666\n",
      "note_on channel=0 note=60 velocity=127 time=0.042708333333333334\n",
      "note_on channel=0 note=61 velocity=127 time=0.0020833333333333333\n",
      "note_off channel=0 note=60 velocity=127 time=0.017708333333333333\n",
      "note_off channel=0 note=61 velocity=127 time=0.0020833333333333333\n",
      "note_on channel=0 note=62 velocity=127 time=0.008333333333333333\n",
      "note_off channel=0 note=62 velocity=127 time=0.019791666666666666\n",
      "note_on channel=0 note=61 velocity=127 time=0.052083333333333336\n",
      "note_off channel=0 note=61 velocity=127 time=0.019791666666666666\n",
      "note_on channel=0 note=62 velocity=127 time=0.0010416666666666667\n",
      "note_off channel=0 note=62 velocity=127 time=0.019791666666666666\n",
      "note_on channel=0 note=60 velocity=127 time=0\n",
      "note_off channel=0 note=60 velocity=127 time=0.019791666666666666\n",
      "note_on channel=0 note=61 velocity=127 time=0.03854166666666667\n",
      "note_on channel=0 note=62 velocity=127 time=0.013541666666666667\n",
      "note_off channel=0 note=61 velocity=127 time=0.00625\n",
      "note_off channel=0 note=62 velocity=127 time=0.013541666666666667\n",
      "note_on channel=0 note=60 velocity=127 time=0.05\n",
      "note_on channel=0 note=61 velocity=127 time=0.016666666666666666\n",
      "note_off channel=0 note=60 velocity=127 time=0.004166666666666667\n",
      "note_on channel=0 note=62 velocity=127 time=0.0020833333333333333\n",
      "note_off channel=0 note=61 velocity=127 time=0.014583333333333334\n",
      "note_off channel=0 note=62 velocity=127 time=0.00625\n",
      "note_on channel=0 note=62 velocity=127 time=0.071875\n",
      "note_on channel=0 note=61 velocity=127 time=0.0010416666666666667\n",
      "note_off channel=0 note=62 velocity=127 time=0.01875\n",
      "note_off channel=0 note=61 velocity=127 time=0.0010416666666666667\n",
      "note_on channel=0 note=60 velocity=127 time=0.00625\n",
      "note_off channel=0 note=60 velocity=127 time=0.019791666666666666\n",
      "note_on channel=0 note=62 velocity=127 time=0.04479166666666667\n",
      "note_on channel=0 note=61 velocity=127 time=0.009375\n",
      "note_off channel=0 note=62 velocity=127 time=0.011458333333333333\n",
      "note_off channel=0 note=61 velocity=127 time=0.009375\n",
      "note_on channel=0 note=60 velocity=127 time=0.04895833333333333\n",
      "note_on channel=0 note=62 velocity=127 time=0.014583333333333334\n",
      "note_off channel=0 note=60 velocity=127 time=0.005208333333333333\n",
      "note_on channel=0 note=61 velocity=127 time=0.010416666666666666\n",
      "note_off channel=0 note=62 velocity=127 time=0.004166666666666667\n",
      "note_off channel=0 note=61 velocity=127 time=0.016666666666666666\n",
      "note_on channel=0 note=62 velocity=127 time=0.05625\n",
      "note_off channel=0 note=62 velocity=127 time=0.019791666666666666\n",
      "note_on channel=0 note=61 velocity=127 time=0.003125\n",
      "note_on channel=0 note=60 velocity=127 time=0.0125\n",
      "note_off channel=0 note=61 velocity=127 time=0.008333333333333333\n",
      "note_off channel=0 note=60 velocity=127 time=0.0125\n",
      "note_on channel=0 note=62 velocity=127 time=0.036458333333333336\n",
      "note_off channel=0 note=62 velocity=127 time=0.019791666666666666\n",
      "note_on channel=0 note=61 velocity=127 time=0.011458333333333333\n",
      "note_off channel=0 note=61 velocity=127 time=0.019791666666666666\n",
      "note_on channel=0 note=60 velocity=127 time=0.034375\n",
      "note_on channel=0 note=62 velocity=127 time=0.00625\n",
      "note_off channel=0 note=60 velocity=127 time=0.013541666666666667\n",
      "note_off channel=0 note=62 velocity=127 time=0.00625\n",
      "note_on channel=0 note=61 velocity=127 time=0.01875\n",
      "note_off channel=0 note=61 velocity=127 time=0.019791666666666666\n",
      "note_on channel=0 note=62 velocity=127 time=0.034375\n",
      "note_off channel=0 note=62 velocity=127 time=0.019791666666666666\n",
      "note_on channel=0 note=60 velocity=127 time=0.02395833333333333\n",
      "note_on channel=0 note=61 velocity=127 time=0.0020833333333333333\n",
      "note_off channel=0 note=60 velocity=127 time=0.017708333333333333\n",
      "note_off channel=0 note=61 velocity=127 time=0.0020833333333333333\n",
      "note_on channel=0 note=62 velocity=127 time=0.027083333333333334\n",
      "note_off channel=0 note=62 velocity=127 time=0.019791666666666666\n",
      "note_on channel=0 note=61 velocity=127 time=0.03333333333333333\n",
      "note_off channel=0 note=61 velocity=127 time=0.019791666666666666\n",
      "note_on channel=0 note=62 velocity=127 time=0.01875\n",
      "note_on channel=0 note=60 velocity=127 time=0.0010416666666666667\n",
      "note_off channel=0 note=62 velocity=127 time=0.01875\n",
      "note_off channel=0 note=60 velocity=127 time=0.0010416666666666667\n",
      "note_on channel=0 note=61 velocity=127 time=0.03958333333333333\n",
      "note_off channel=0 note=61 velocity=127 time=0.019791666666666666\n",
      "note_on channel=0 note=62 velocity=127 time=0.011458333333333333\n",
      "note_off channel=0 note=62 velocity=127 time=0.019791666666666666\n",
      "note_on channel=0 note=60 velocity=127 time=0.03125\n",
      "note_on channel=0 note=61 velocity=127 time=0.016666666666666666\n",
      "note_off channel=0 note=60 velocity=127 time=0.003125\n",
      "note_off channel=0 note=61 velocity=127 time=0.016666666666666666\n",
      "note_on channel=0 note=62 velocity=127 time=0.004166666666666667\n",
      "note_off channel=0 note=62 velocity=127 time=0.019791666666666666\n",
      "note_on channel=0 note=61 velocity=127 time=0.05520833333333333\n",
      "note_on channel=0 note=62 velocity=127 time=0.016666666666666666\n",
      "note_off channel=0 note=61 velocity=127 time=0.003125\n",
      "note_on channel=0 note=60 velocity=127 time=0.00625\n",
      "note_off channel=0 note=62 velocity=127 time=0.010416666666666666\n",
      "note_off channel=0 note=60 velocity=127 time=0.009375\n",
      "note_on channel=0 note=61 velocity=127 time=0.053125\n",
      "note_on channel=0 note=62 velocity=127 time=0.009375\n",
      "note_off channel=0 note=61 velocity=127 time=0.010416666666666666\n",
      "note_off channel=0 note=62 velocity=127 time=0.009375\n",
      "note_on channel=0 note=60 velocity=127 time=0.03958333333333333\n",
      "note_off channel=0 note=60 velocity=127 time=0.019791666666666666\n",
      "note_on channel=0 note=61 velocity=127 time=0.010416666666666666\n",
      "note_on channel=0 note=62 velocity=127 time=0.0020833333333333333\n",
      "note_off channel=0 note=61 velocity=127 time=0.017708333333333333\n",
      "note_off channel=0 note=62 velocity=127 time=0.0020833333333333333\n",
      "note_on channel=0 note=62 velocity=127 time=0.071875\n",
      "\u001b[91m [DEBUG] > \u001b[0m\n",
      " |>  to_array: msg.time > max_t; t, n\n",
      " |>  3.0416666666666656\n",
      " |>  150\n",
      "note_on channel=0 note=60 velocity=127 time=0.030208333333333334\n",
      "note_on channel=0 note=62 velocity=127 time=0.005208333333333333\n",
      "note_off channel=0 note=60 velocity=127 time=0.014583333333333334\n",
      "note_off channel=0 note=62 velocity=127 time=0.005208333333333333\n",
      "note_on channel=0 note=61 velocity=127 time=0.03854166666666667\n",
      "note_on channel=0 note=60 velocity=127 time=0.017708333333333333\n",
      "note_on channel=0 note=62 velocity=127 time=0.0020833333333333333\n",
      "note_off channel=0 note=61 velocity=127 time=0\n",
      "note_off channel=0 note=60 velocity=127 time=0.017708333333333333\n",
      "note_off channel=0 note=62 velocity=127 time=0.0020833333333333333\n",
      "note_on channel=0 note=62 velocity=127 time=0.058333333333333334\n",
      "note_on channel=0 note=60 velocity=127 time=0\n",
      "note_off channel=0 note=62 velocity=127 time=0.019791666666666666\n",
      "note_off channel=0 note=60 velocity=127 time=0\n",
      "note_on channel=0 note=61 velocity=127 time=0.03958333333333333\n",
      "note_on channel=0 note=62 velocity=127 time=0.01875\n",
      "note_off channel=0 note=61 velocity=127 time=0.0010416666666666667\n",
      "note_on channel=0 note=60 velocity=127 time=0.0010416666666666667\n",
      "note_off channel=0 note=62 velocity=127 time=0.016666666666666666\n",
      "note_off channel=0 note=60 velocity=127 time=0.003125\n",
      "note_on channel=0 note=62 velocity=127 time=0.05625\n",
      "note_on channel=0 note=60 velocity=127 time=0.005208333333333333\n",
      "note_off channel=0 note=62 velocity=127 time=0.014583333333333334\n",
      "note_off channel=0 note=60 velocity=127 time=0.005208333333333333\n",
      "note_on channel=0 note=61 velocity=127 time=0.035416666666666666\n",
      "note_on channel=0 note=62 velocity=127 time=0.017708333333333333\n",
      "note_off channel=0 note=61 velocity=127 time=0.0020833333333333333\n",
      "note_on channel=0 note=60 velocity=127 time=0.005208333333333333\n",
      "note_off channel=0 note=62 velocity=127 time=0.011458333333333333\n",
      "note_off channel=0 note=60 velocity=127 time=0.008333333333333333\n",
      "note_on channel=0 note=62 velocity=127 time=0.05\n",
      "note_on channel=0 note=60 velocity=127 time=0.011458333333333333\n",
      "note_off channel=0 note=62 velocity=127 time=0.009375\n",
      "note_off channel=0 note=60 velocity=127 time=0.011458333333333333\n",
      "note_on channel=0 note=61 velocity=127 time=0.03125\n",
      "note_on channel=0 note=62 velocity=127 time=0.016666666666666666\n",
      "note_off channel=0 note=61 velocity=127 time=0.004166666666666667\n",
      "note_on channel=0 note=60 velocity=127 time=0.009375\n",
      "note_off channel=0 note=62 velocity=127 time=0.00625\n",
      "note_off channel=0 note=60 velocity=127 time=0.013541666666666667\n",
      "note_on channel=0 note=62 velocity=127 time=0.04479166666666667\n",
      "note_on channel=0 note=60 velocity=127 time=0.016666666666666666\n",
      "note_off channel=0 note=62 velocity=127 time=0.004166666666666667\n",
      "note_off channel=0 note=60 velocity=127 time=0.016666666666666666\n",
      "note_on channel=0 note=61 velocity=127 time=0.027083333333333334\n",
      "note_on channel=0 note=62 velocity=127 time=0.014583333333333334\n",
      "note_off channel=0 note=61 velocity=127 time=0.005208333333333333\n",
      "note_on channel=0 note=60 velocity=127 time=0.013541666666666667\n",
      "note_off channel=0 note=62 velocity=127 time=0.0010416666666666667\n",
      "note_off channel=0 note=60 velocity=127 time=0.01875\n",
      "note_on channel=0 note=62 velocity=127 time=0.03958333333333333\n",
      "note_off channel=0 note=62 velocity=127 time=0.019791666666666666\n",
      "note_on channel=0 note=60 velocity=127 time=0.0020833333333333333\n",
      "note_off channel=0 note=60 velocity=127 time=0.019791666666666666\n",
      "note_on channel=0 note=61 velocity=127 time=0.022916666666666665\n",
      "note_on channel=0 note=62 velocity=127 time=0.013541666666666667\n",
      "note_off channel=0 note=61 velocity=127 time=0.00625\n",
      "note_off channel=0 note=62 velocity=127 time=0.013541666666666667\n",
      "note_on channel=0 note=60 velocity=127 time=0.004166666666666667\n",
      "note_off channel=0 note=60 velocity=127 time=0.019791666666666666\n",
      "note_on channel=0 note=62 velocity=127 time=0.034375\n",
      "note_off channel=0 note=62 velocity=127 time=0.019791666666666666\n",
      "note_on channel=0 note=60 velocity=127 time=0.007291666666666667\n",
      "note_off channel=0 note=60 velocity=127 time=0.019791666666666666\n",
      "note_on channel=0 note=61 velocity=127 time=0.01875\n",
      "note_on channel=0 note=62 velocity=127 time=0.0125\n",
      "note_off channel=0 note=61 velocity=127 time=0.007291666666666667\n",
      "note_off channel=0 note=62 velocity=127 time=0.0125\n",
      "note_on channel=0 note=60 velocity=127 time=0.009375\n",
      "note_off channel=0 note=60 velocity=127 time=0.019791666666666666\n",
      "note_on channel=0 note=62 velocity=127 time=0.029166666666666667\n",
      "note_off channel=0 note=62 velocity=127 time=0.019791666666666666\n",
      "note_on channel=0 note=60 velocity=127 time=0.0125\n",
      "note_off channel=0 note=60 velocity=127 time=0.019791666666666666\n",
      "note_on channel=0 note=61 velocity=127 time=0.014583333333333334\n",
      "note_on channel=0 note=62 velocity=127 time=0.011458333333333333\n",
      "note_off channel=0 note=61 velocity=127 time=0.009375\n",
      "note_off channel=0 note=62 velocity=127 time=0.011458333333333333\n",
      "note_on channel=0 note=60 velocity=127 time=0.015625\n",
      "note_off channel=0 note=60 velocity=127 time=0.019791666666666666\n",
      "note_on channel=0 note=62 velocity=127 time=0.02395833333333333\n",
      "note_off channel=0 note=62 velocity=127 time=0.019791666666666666\n",
      "note_on channel=0 note=60 velocity=127 time=0.017708333333333333\n",
      "note_off channel=0 note=60 velocity=127 time=0.019791666666666666\n",
      "note_on channel=0 note=61 velocity=127 time=0.010416666666666666\n",
      "note_on channel=0 note=62 velocity=127 time=0.009375\n",
      "note_off channel=0 note=61 velocity=127 time=0.010416666666666666\n",
      "note_off channel=0 note=62 velocity=127 time=0.009375\n",
      "note_on channel=0 note=60 velocity=127 time=0.020833333333333332\n",
      "note_off channel=0 note=60 velocity=127 time=0.019791666666666666\n",
      "note_on channel=0 note=62 velocity=127 time=0.017708333333333333\n",
      "note_off channel=0 note=62 velocity=127 time=0.019791666666666666\n",
      "note_on channel=0 note=60 velocity=127 time=0.022916666666666665\n",
      "note_off channel=0 note=60 velocity=127 time=0.019791666666666666\n",
      "note_on channel=0 note=61 velocity=127 time=0.00625\n",
      "note_on channel=0 note=62 velocity=127 time=0.008333333333333333\n",
      "note_off channel=0 note=61 velocity=127 time=0.011458333333333333\n",
      "note_off channel=0 note=62 velocity=127 time=0.008333333333333333\n",
      "note_on channel=0 note=60 velocity=127 time=0.026041666666666668\n",
      "note_off channel=0 note=60 velocity=127 time=0.019791666666666666\n",
      "note_on channel=0 note=62 velocity=127 time=0.0125\n",
      "note_off channel=0 note=62 velocity=127 time=0.019791666666666666\n",
      "note_on channel=0 note=60 velocity=127 time=0.029166666666666667\n",
      "note_off channel=0 note=60 velocity=127 time=0.019791666666666666\n",
      "note_on channel=0 note=61 velocity=127 time=0.003125\n",
      "note_on channel=0 note=62 velocity=127 time=0.007291666666666667\n",
      "note_off channel=0 note=61 velocity=127 time=0.0125\n",
      "note_off channel=0 note=62 velocity=127 time=0.007291666666666667\n",
      "note_on channel=0 note=60 velocity=127 time=0.03125\n",
      "note_off channel=0 note=60 velocity=127 time=0.019791666666666666\n",
      "note_on channel=0 note=62 velocity=127 time=0.007291666666666667\n",
      "note_off channel=0 note=62 velocity=127 time=0.019791666666666666\n",
      "note_on channel=0 note=60 velocity=127 time=0.034375\n",
      "note_on channel=0 note=61 velocity=127 time=0.01875\n",
      "note_off channel=0 note=60 velocity=127 time=0.0010416666666666667\n",
      "note_on channel=0 note=62 velocity=127 time=0.004166666666666667\n",
      "note_off channel=0 note=61 velocity=127 time=0.013541666666666667\n",
      "note_off channel=0 note=62 velocity=127 time=0.00625\n",
      "note_on channel=0 note=60 velocity=127 time=0.036458333333333336\n",
      "note_off channel=0 note=60 velocity=127 time=0.019791666666666666\n",
      "note_on channel=0 note=62 velocity=127 time=0.0020833333333333333\n",
      "note_off channel=0 note=62 velocity=127 time=0.019791666666666666\n",
      "note_on channel=0 note=60 velocity=127 time=0.03958333333333333\n",
      "note_on channel=0 note=61 velocity=127 time=0.014583333333333334\n",
      "note_on channel=0 note=62 velocity=127 time=0.005208333333333333\n",
      "note_off channel=0 note=60 velocity=127 time=0.0010416666666666667\n",
      "note_off channel=0 note=61 velocity=127 time=0.014583333333333334\n",
      "note_off channel=0 note=62 velocity=127 time=0.005208333333333333\n",
      "note_on channel=0 note=60 velocity=127 time=0.041666666666666664\n",
      "note_on channel=0 note=62 velocity=127 time=0.016666666666666666\n",
      "note_off channel=0 note=60 velocity=127 time=0.003125\n",
      "note_off channel=0 note=62 velocity=127 time=0.016666666666666666\n",
      "note_on channel=0 note=60 velocity=127 time=0.04479166666666667\n",
      "note_on channel=0 note=61 velocity=127 time=0.010416666666666666\n",
      "note_on channel=0 note=62 velocity=127 time=0.003125\n",
      "note_off channel=0 note=60 velocity=127 time=0.00625\n",
      "note_off channel=0 note=61 velocity=127 time=0.010416666666666666\n",
      "note_off channel=0 note=62 velocity=127 time=0.003125\n",
      "note_on channel=0 note=60 velocity=127 time=0.04791666666666666\n",
      "note_on channel=0 note=62 velocity=127 time=0.011458333333333333\n",
      "note_off channel=0 note=60 velocity=127 time=0.008333333333333333\n",
      "note_off channel=0 note=62 velocity=127 time=0.011458333333333333\n",
      "note_on channel=0 note=60 velocity=127 time=0.05\n",
      "note_on channel=0 note=61 velocity=127 time=0.00625\n",
      "note_on channel=0 note=62 velocity=127 time=0.0020833333333333333\n",
      "note_off channel=0 note=60 velocity=127 time=0.011458333333333333\n",
      "note_off channel=0 note=61 velocity=127 time=0.00625\n",
      "note_off channel=0 note=62 velocity=127 time=0.0020833333333333333\n",
      "note_on channel=0 note=60 velocity=127 time=0.053125\n",
      "note_on channel=0 note=62 velocity=127 time=0.00625\n",
      "note_off channel=0 note=60 velocity=127 time=0.014583333333333334\n",
      "note_off channel=0 note=62 velocity=127 time=0.00625\n",
      "note_on channel=0 note=60 velocity=127 time=0.05520833333333333\n",
      "note_on channel=0 note=61 velocity=127 time=0.0020833333333333333\n",
      "note_on channel=0 note=62 velocity=127 time=0.0010416666666666667\n",
      "note_off channel=0 note=60 velocity=127 time=0.016666666666666666\n",
      "note_off channel=0 note=61 velocity=127 time=0.0020833333333333333\n",
      "note_off channel=0 note=62 velocity=127 time=0.0010416666666666667\n",
      "note_on channel=0 note=60 velocity=127 time=0.058333333333333334\n",
      "note_on channel=0 note=62 velocity=127 time=0\n",
      "note_off channel=0 note=60 velocity=127 time=0.019791666666666666\n",
      "note_off channel=0 note=62 velocity=127 time=0\n",
      "note_on channel=0 note=62 velocity=127 time=0.058333333333333334\n",
      "note_on channel=0 note=61 velocity=127 time=0\n",
      "note_on channel=0 note=60 velocity=127 time=0.0020833333333333333\n",
      "note_off channel=0 note=62 velocity=127 time=0.017708333333333333\n",
      "note_off channel=0 note=61 velocity=127 time=0\n",
      "note_off channel=0 note=60 velocity=127 time=0.0020833333333333333\n",
      "note_on channel=0 note=62 velocity=127 time=0.05625\n",
      "note_on channel=0 note=60 velocity=127 time=0.005208333333333333\n",
      "note_off channel=0 note=62 velocity=127 time=0.014583333333333334\n",
      "note_off channel=0 note=60 velocity=127 time=0.005208333333333333\n",
      "note_on channel=0 note=62 velocity=127 time=0.05416666666666667\n",
      "note_on channel=0 note=61 velocity=127 time=0.0010416666666666667\n",
      "note_on channel=0 note=60 velocity=127 time=0.00625\n",
      "note_off channel=0 note=62 velocity=127 time=0.0125\n",
      "note_off channel=0 note=61 velocity=127 time=0.0010416666666666667\n",
      "note_off channel=0 note=60 velocity=127 time=0.00625\n",
      "note_on channel=0 note=62 velocity=127 time=0.051041666666666666\n",
      "note_on channel=0 note=60 velocity=127 time=0.010416666666666666\n",
      "note_off channel=0 note=62 velocity=127 time=0.009375\n",
      "note_off channel=0 note=60 velocity=127 time=0.010416666666666666\n",
      "note_on channel=0 note=62 velocity=127 time=0.04791666666666666\n",
      "note_on channel=0 note=61 velocity=127 time=0.003125\n",
      "note_on channel=0 note=60 velocity=127 time=0.010416666666666666\n",
      "note_off channel=0 note=62 velocity=127 time=0.007291666666666667\n",
      "note_off channel=0 note=61 velocity=127 time=0.003125\n",
      "note_off channel=0 note=60 velocity=127 time=0.010416666666666666\n",
      "note_on channel=0 note=62 velocity=127 time=0.04583333333333333\n",
      "\u001b[91m [DEBUG] > \u001b[0m\n",
      " |>  to_array: msg.time > max_t; t, n\n",
      " |>  3.015624999999997\n",
      " |>  150\n"
     ]
    }
   ],
   "source": [
    "n = 100\n",
    "min_f = 3\n",
    "max_f = 15\n",
    "# x_train = g.gen_data(context, n, max_f=max_f, min_f=min_f)\n",
    "# x_train = g.gen_data_complex(context, n, max_f=max_f, min_f=min_f, multiTrack=multiTrack)\n",
    "x_train = g.gen_data_complex(context, n, max_f=max_f, min_f=min_f, \n",
    "    n_polyrythms=1,\n",
    "    n_channels=midi.N_NOTES,\n",
    "    multiTrack=multiTrack)"
   ]
  },
  {
   "cell_type": "code",
   "execution_count": 8,
   "metadata": {},
   "outputs": [
    {
     "data": {
      "text/plain": [
       "(100, 150, 3)"
      ]
     },
     "execution_count": 8,
     "metadata": {},
     "output_type": "execute_result"
    }
   ],
   "source": [
    "# z = x_train\n",
    "# x_train = x_train.reshape(x_train.shape[0], x_train.shape[1], x_train.shape[2])\n",
    "# x_train.shape"
   ]
  },
  {
   "cell_type": "code",
   "execution_count": 39,
   "metadata": {},
   "outputs": [],
   "source": [
    "n = 3\n",
    "total = 1000 * 10\n",
    "x_test = x_train[n:]\n",
    "x_train = np.concatenate([x_train[:n] for _ in range(int(total/n))])"
   ]
  },
  {
   "cell_type": "code",
   "execution_count": 40,
   "metadata": {},
   "outputs": [
    {
     "data": {
      "text/plain": [
       "(9999, 150, 3)"
      ]
     },
     "execution_count": 40,
     "metadata": {},
     "output_type": "execute_result"
    }
   ],
   "source": [
    "x_train.shape"
   ]
  },
  {
   "cell_type": "code",
   "execution_count": null,
   "metadata": {},
   "outputs": [],
   "source": []
  },
  {
   "cell_type": "code",
   "execution_count": null,
   "metadata": {},
   "outputs": [],
   "source": []
  },
  {
   "cell_type": "code",
   "execution_count": 41,
   "metadata": {},
   "outputs": [
    {
     "data": {
      "text/plain": [
       "(150, 3)"
      ]
     },
     "execution_count": 41,
     "metadata": {},
     "output_type": "execute_result"
    }
   ],
   "source": [
    "img_dims = (28,28,1)\n",
    "img_dims = x_train[0].shape\n",
    "img_dims"
   ]
  },
  {
   "cell_type": "code",
   "execution_count": 42,
   "metadata": {},
   "outputs": [],
   "source": [
    "# input image dimensions\n",
    "img_rows, img_chns = img_dims\n",
    "# number of convolutional filters to use\n",
    "filters = 64\n",
    "# convolution kernel size\n",
    "num_conv = 3\n",
    "\n",
    "batch_size = 100\n",
    "if K.image_data_format() == 'channels_first':\n",
    "    original_img_size = (img_chns, img_rows)\n",
    "else:\n",
    "    original_img_size = (img_rows, img_chns)\n",
    "latent_dim = 2\n",
    "intermediate_dim = 128\n",
    "epsilon_std = 1.0\n",
    "epochs = 5"
   ]
  },
  {
   "cell_type": "code",
   "execution_count": 43,
   "metadata": {},
   "outputs": [],
   "source": [
    "x = Input(shape=original_img_size)\n",
    "\n",
    "timesteps = original_img_size[-2]\n",
    "notes = original_img_size[-1]\n",
    "    \n",
    "    # Convolve & Pool\n",
    "h = x\n",
    "h = Conv1D(32, kernel_size=2, strides=2, activation='relu', padding='same')(h)\n",
    "# h = Conv1D(32, kernel_size=2, strides=1, activation='relu', padding='same')(h)\n",
    "h = Conv1D(64, kernel_size=2, strides=1, activation='relu', padding='same')(h)\n",
    "\n",
    "    # Dense layers\n",
    "h = Flatten()(h)\n",
    "h = Dense(intermediate_dim, activation='relu')(h)\n",
    "#     h = Dense(intermediate_dim, activation='relu')(h)\n",
    "#     h = Dense(intermediate_dim, activation='relu')(h)    \n",
    "#     h = Dropout(0.1)(h) # uncomment when using larger batches\n",
    "#     h = Dense(intermediate_dim, activation='relu')(h)\n",
    "    # h = Dense(intermediate_dim, activation='relu', kernel_regularizer=k_reg, activity_regularizer=a_reg)(h)\n",
    "\n",
    "    # Z Mean, Variance\n",
    "z_mean = Dense(latent_dim, name='z_mean')(h) # , activation='relu'\n",
    "z_log_var = Dense(latent_dim, name='z_log_var')(h) # , activation='relu'\n",
    "    \n",
    "# encoder_output = [z_mean, z_log_var]"
   ]
  },
  {
   "cell_type": "code",
   "execution_count": 44,
   "metadata": {},
   "outputs": [],
   "source": [
    "# encoder_model = Model(x, [z_mean, z_log_var])\n",
    "# encoder_model.summary()"
   ]
  },
  {
   "cell_type": "code",
   "execution_count": 45,
   "metadata": {},
   "outputs": [],
   "source": [
    "def sampling(args):\n",
    "    z_mean, z_log_var = args\n",
    "    epsilon = K.random_normal(shape=(K.shape(z_mean)[0], latent_dim),\n",
    "                              mean=0., stddev=epsilon_std)\n",
    "    return z_mean + K.exp(z_log_var) * epsilon"
   ]
  },
  {
   "cell_type": "code",
   "execution_count": null,
   "metadata": {},
   "outputs": [],
   "source": [
    "# z = Lambda(sampling)(encoder_model)\n",
    "z = Lambda(sampling)([z_mean, z_log_var])"
   ]
  },
  {
   "cell_type": "code",
   "execution_count": 46,
   "metadata": {},
   "outputs": [],
   "source": [
    "# we instantiate these layers separately so as to reuse them later\n",
    "decoder_hid = Dense(intermediate_dim, activation='relu')\n",
    "decoder_upsample = Dense(filters * 14 * 14, activation='relu')\n",
    "\n",
    "if K.image_data_format() == 'channels_first':\n",
    "    output_shape = (batch_size, filters, 14, 14)\n",
    "else:\n",
    "    output_shape = (batch_size, 14, 14, filters)"
   ]
  },
  {
   "cell_type": "code",
   "execution_count": 47,
   "metadata": {},
   "outputs": [],
   "source": [
    "decoder_reshape = Reshape(output_shape[1:])\n",
    "decoder_deconv_1 = Conv2DTranspose(filters,\n",
    "                                   kernel_size=num_conv,\n",
    "                                   padding='same',\n",
    "                                   strides=1,\n",
    "                                   activation='relu')\n",
    "decoder_deconv_2 = Flatten()\n",
    "\n",
    "if K.image_data_format() == 'channels_first':\n",
    "    output_shape = (batch_size, filters, 29, 29)\n",
    "else:\n",
    "    output_shape = (batch_size, 29, 29, filters)\n",
    "decoder_deconv_3_upsamp = Dense(np.prod(x_train.shape[1:]))\n",
    "decoder_mean_squash = Reshape(x_train.shape[1:])\n",
    "\n",
    "hid_decoded = decoder_hid(z)\n",
    "up_decoded = decoder_upsample(hid_decoded)\n",
    "reshape_decoded = decoder_reshape(up_decoded)\n",
    "deconv_1_decoded = decoder_deconv_1(reshape_decoded)\n",
    "deconv_2_decoded = decoder_deconv_2(deconv_1_decoded)\n",
    "x_decoded_relu = decoder_deconv_3_upsamp(deconv_2_decoded)\n",
    "x_decoded_mean_squash = decoder_mean_squash(x_decoded_relu)"
   ]
  },
  {
   "cell_type": "code",
   "execution_count": 48,
   "metadata": {},
   "outputs": [
    {
     "name": "stdout",
     "output_type": "stream",
     "text": [
      "__________________________________________________________________________________________________\n",
      "Layer (type)                    Output Shape         Param #     Connected to                     \n",
      "==================================================================================================\n",
      "input_4 (InputLayer)            (None, 150, 3)       0                                            \n",
      "__________________________________________________________________________________________________\n",
      "conv1d_4 (Conv1D)               (None, 75, 32)       224         input_4[0][0]                    \n",
      "__________________________________________________________________________________________________\n",
      "conv1d_5 (Conv1D)               (None, 75, 64)       4160        conv1d_4[0][0]                   \n",
      "__________________________________________________________________________________________________\n",
      "flatten_5 (Flatten)             (None, 4800)         0           conv1d_5[0][0]                   \n",
      "__________________________________________________________________________________________________\n",
      "dense_9 (Dense)                 (None, 128)          614528      flatten_5[0][0]                  \n",
      "__________________________________________________________________________________________________\n",
      "z_mean (Dense)                  (None, 2)            258         dense_9[0][0]                    \n",
      "__________________________________________________________________________________________________\n",
      "z_log_var (Dense)               (None, 2)            258         dense_9[0][0]                    \n",
      "__________________________________________________________________________________________________\n",
      "lambda_3 (Lambda)               (None, 2)            0           z_mean[0][0]                     \n",
      "                                                                 z_log_var[0][0]                  \n",
      "__________________________________________________________________________________________________\n",
      "dense_10 (Dense)                (None, 128)          384         lambda_3[0][0]                   \n",
      "__________________________________________________________________________________________________\n",
      "dense_11 (Dense)                (None, 12544)        1618176     dense_10[0][0]                   \n",
      "__________________________________________________________________________________________________\n",
      "reshape_7 (Reshape)             (None, 14, 14, 64)   0           dense_11[0][0]                   \n",
      "__________________________________________________________________________________________________\n",
      "conv2d_transpose_4 (Conv2DTrans (None, 14, 14, 64)   36928       reshape_7[0][0]                  \n",
      "__________________________________________________________________________________________________\n",
      "flatten_6 (Flatten)             (None, 12544)        0           conv2d_transpose_4[0][0]         \n",
      "__________________________________________________________________________________________________\n",
      "dense_12 (Dense)                (None, 450)          5645250     flatten_6[0][0]                  \n",
      "__________________________________________________________________________________________________\n",
      "reshape_8 (Reshape)             (None, 150, 3)       0           dense_12[0][0]                   \n",
      "==================================================================================================\n",
      "Total params: 7,920,166\n",
      "Trainable params: 7,920,166\n",
      "Non-trainable params: 0\n",
      "__________________________________________________________________________________________________\n"
     ]
    }
   ],
   "source": [
    "# instantiate VAE model\n",
    "vae = Model(x, x_decoded_mean_squash)\n",
    "vae.summary()"
   ]
  },
  {
   "cell_type": "code",
   "execution_count": 49,
   "metadata": {},
   "outputs": [
    {
     "name": "stderr",
     "output_type": "stream",
     "text": [
      "/Library/Frameworks/Python.framework/Versions/3.6/lib/python3.6/site-packages/ipykernel_launcher.py:10: UserWarning: Output \"reshape_8\" missing from loss dictionary. We assume this was done on purpose, and we will not be expecting any data to be passed to \"reshape_8\" during training.\n",
      "  # Remove the CWD from sys.path while we load stuff.\n"
     ]
    }
   ],
   "source": [
    "# Compute VAE loss\n",
    "# no img_cols!\n",
    "xent_loss = img_rows * metrics.binary_crossentropy(\n",
    "    K.flatten(x),\n",
    "    K.flatten(x_decoded_mean_squash))\n",
    "kl_loss = - 0.5 * K.sum(1 + z_log_var - K.square(z_mean) - K.exp(z_log_var), axis=-1)\n",
    "vae_loss = K.mean(xent_loss + kl_loss)\n",
    "vae.add_loss(vae_loss)                \n",
    "\n",
    "vae.compile(optimizer='rmsprop')\n",
    "# vae.summary()"
   ]
  },
  {
   "cell_type": "code",
   "execution_count": 50,
   "metadata": {},
   "outputs": [],
   "source": [
    "# train the VAE on MNIST digits\n",
    "# (x_train, _), (x_test, y_test) = mnist.load_data()\n",
    "x_test = x_train[-100:]\n",
    "y_test = x_test"
   ]
  },
  {
   "cell_type": "code",
   "execution_count": 51,
   "metadata": {},
   "outputs": [
    {
     "data": {
      "text/plain": [
       "(9999, 150, 3)"
      ]
     },
     "execution_count": 51,
     "metadata": {},
     "output_type": "execute_result"
    }
   ],
   "source": [
    "x_train.shape"
   ]
  },
  {
   "cell_type": "code",
   "execution_count": 52,
   "metadata": {},
   "outputs": [],
   "source": [
    "x_train = x_train[:1000]"
   ]
  },
  {
   "cell_type": "code",
   "execution_count": 53,
   "metadata": {},
   "outputs": [
    {
     "data": {
      "text/plain": [
       "[<matplotlib.lines.Line2D at 0x118344828>]"
      ]
     },
     "execution_count": 53,
     "metadata": {},
     "output_type": "execute_result"
    },
    {
     "data": {
      "image/png": "iVBORw0KGgoAAAANSUhEUgAAAXcAAAD8CAYAAACMwORRAAAABHNCSVQICAgIfAhkiAAAAAlwSFlzAAALEgAACxIB0t1+/AAAADl0RVh0U29mdHdhcmUAbWF0cGxvdGxpYiB2ZXJzaW9uIDIuMS4yLCBodHRwOi8vbWF0cGxvdGxpYi5vcmcvNQv5yAAAIABJREFUeJzt3Xd4VHXaxvHvk4TeIfTQe28p2BBRV0QBlbIoVZq6Yi/r6q5rWde1rW1ZNfQmCgiKCou4otgICb1D6AEpofeQzO/94wz7jhHIJJmZ35Tnc11czpw5M+f2MLmZnJl5jhhjUEopFV6ibAdQSinle1ruSikVhrTclVIqDGm5K6VUGNJyV0qpMKTlrpRSYUjLXSmlwpCWu1JKhSEtd6WUCkMxtjYcGxtr6tata2vzSikVkpYtW5ZpjKmc13rWyr1u3bqkpaXZ2rxSSoUkEdnpzXp6WEYppcKQlrtSSoUhLXellApDWu5KKRWGtNyVUioM5VnuIjJeRA6IyNpL3C4i8o6IpIvIahFp7/uYSiml8sObV+4Tga6Xuf1moJH7z0jgvcLHUkopVRh5fs7dGLNYROpeZpWewGTjnK9viYiUF5HqxphffJRRqYA5efwIy+aNZ1W5G8iOLm47jgpT1zerSpta5f26DV98iakmsNvjeoZ72W/KXURG4ry6p3bt2j7YtFK+Y1wuNn8wkGtPfc+BnG95MvseQGzHUmGoStniIVHuXjPGJAPJAPHx8XpmbhVUUqa/SMdT33OgTAv6nFhMn9t6Q4fBtmMpVSC++LTMHqCWx/U49zKlQsaGlAXEb36LFaWuovLD30H962DeE7B3pe1oShWIL8p9LjDI/amZjsAxPd6uQknmvt3Ezr+HfVFVaTBiChJdBHqNg1KxMGMQnDliO6JS+ebNRyGnAz8DTUQkQ0SGici9InKve5V5wDYgHRgD/MFvaZXysezzWewf358y5iTn7phI2fKVnBtKVYI+k+D4XphzH7hcdoMqlU/efFrmzjxuN8D9PkukVAClTnicK7JWsbTt30hs1fHXN9ZKgJtegvlPwo9vwTWP2gmpVAHoN1RVxFr59XSu2DuJpRVvJfH2By6+UuJIaNkLvnkRti8ObEClCkHLXUWkPds2UP+Hx0iPbkDrEcmXXlEEur8DlRrCrKFwXN9OUqFBy11FnLNnTnFmWn8ASg6YRvESpS5/h2Kloe8UyDoNs+6GnPMBSKlU4Wi5q4izOnkkDXO2sv3qN6hRr5l3d6rSFHq8A7t+hq+f82s+pXxBy11FlKVz3iXxyBcsqTGINjdc9rMCv9WqNySMgJ//Bes/809ApXxEy11FjK1rltB65fOsK9qG+LvfKNiD3PQS1OwAn94Pmem+DaiUD2m5q4hw/Oghis0ewgkpTdWh04gpUrRgDxRTzPn8e3QR5wtOWad9G1QpH9FyV2HPuFxsTR5INdd+Mm9+n9hqtfK+0+WUrwW9xsCB9fDlo2B0TJIKPlruKuylfPg87U7/SFrjh2mWdLlTE+RDwxug81Owajosm+ibx1TKh7TcVVhb//N84re8w/JSnUi68y++ffBOT0KD651vsO5d4dvHVqqQtNxV2Mrct4sqC+7ll6hqNBo5CYny8dM9KgruGAOlqjjH308f9u3jK1UIWu4qLDkDwe6ilDlNdu+JlClX0T8bKlUJ+k52vrk6514dMKaChpa7Ckup4x+jRdYa1rV/jnotkvy7sbgO0PVl2LIAfvinf7ellJe03FXYWbnwQ674ZTJLK/YgvmeABpYmDIeWvWHRS7Dt28BsU6nL0HJXYWXPtnXU//HCQLD3A7dhEej+NlRqBLOGOXPglbJIy12FjbOnT3J2Wn8MQskBH+Y9EMzXipWG30+B82dg5hAdMKas0nJXYWN18gga5GxnR6d/UqNeUzshKjeBnu/C7hRY+KydDEqh5a7CROrst0k8Oo8lNYfQpks/u2Fa9oLEe2DJv2HdHLtZVMTSclchb+vqn2i16kXWFmtLQkEHgvna7/4GcQnw2SjI3GI7jYpAWu4qpB07kknxOUM4LmWoPnQa0TF5nhY4MGKKQp+JzqCxjwdC1inbiVSE0XJXIcu4XGwbM5AqrkwOd0umUtU425F+rVwc9BoLBzfCF4/ogDEVUFruKmSlTP0r7U7/xLImj9A08UbbcS6uQRe47mlY/TGkjbedRkUQLXcVktb9NI+Ere+yvPS1JPV7xnacy7vmcWh4I/znKdiz3HYaFSG03FXIydy7k6pf3cfeqOo0GjHR9wPBfC0qCu5IhtJVYcZgHTCmAiLIfyqU+rXs81kcmNifkuYM2X0m+28gmK+VrAh9J8HJfTB7pA4YU36n5a5CStq4h2metYb1HZ6nXvME23Hyp6Z7wFj6Qvg+SD6yqcKWlrsKGSu+mkrHfdNIqXQb8T3usx2nYOKHQau+zoCxrYtsp1FhTMtdhYSM9LU0/PFxtsQ0ou2I92zHKTgR6P4WVG4KnwyDY3tsJ1JhSstdBb0zp06Q9WF/XBJF6YHTKFa8pO1IhVO0lDNgLPsczBwM2Vm2E6kwpOWugppxuVg7ZgT1XTvYce1bVK/TxHYk34htBD3/BRmpsNDH53ZVCi/LXUS6isgmEUkXkacucnttEVkkIitEZLWIdPN9VBWJUue8TcLR+SyJG0qb6/rajuNbLW6HpPsg5X1Y+4ntNCrM5FnuIhINjAZuBpoDd4pI81yr/RmYYYxpB/QD/u3roCrypK/6gTarX2JtsXYkDHnNdhz/uPEFiEuEuQ/Cwc2206gw4s0r90Qg3RizzRiTBXwE9My1jgHKui+XA/Q0NKpQjh0+SMlPh3JUylJjWBANBPM1zwFjMwbCuZO2E6kw4U251wR2e1zPcC/z9BwwQEQygHnAAz5JpyKSKyeH7WMHUtmVyZFbkqlYJffTLcyUqwm9x0PmZvjiYR0wpnzCV2+o3glMNMbEAd2AKSLym8cWkZEikiYiaQcPHvTRplW4SZn6LG1P/8yypo/RNOEG23ECo35nZ8DYmpmQOtZ2GhUGvCn3PUAtj+tx7mWehgEzAIwxPwPFgdjcD2SMSTbGxBtj4itXrlywxCqsrf3xcxK3jWZZ6c4k/f5PtuME1tWPQaOb4D9/goxlttOoEOdNuacCjUSknogUxXnDdG6udXYB1wOISDOccteX5ipfDu7dQfWF95MRXZMmI0NgIJivRUXB7e9D2erO5991wJgqhDx/eowx2cAoYAGwAedTMetE5AUR6eFe7TFghIisAqYDQ4zRA4fKe+ezzpE54S5KmLPQZxKly1awHcmOkhWhzyQ4uR9mj9ABY6rAvPoIgjFmHs4bpZ7LnvW4vB64yrfRVCRZNu4hOp5fR1r8q8Q3i7cdx66a7eHmV5yzNy1+DTr/0XYiFYIi7PdeFYxWLJhEx/3TSYm9g/ju99iOExw63A2t+8G3L0P6f22nUSFIy11ZtXvLKhr99Ec2xzSm7fDRtuMEDxG49U2o0gw+GQ5Hd+d9H6U8aLkra86cOkH29EFkSzRlB4XBQDBfK1oS+k6BnPMwc4gOGFP5ouWurDAuF2uTh1EnZye7Or9NtdqNbUcKTrENnQFje9LgqyA/V6wKKlruyoqln7xJwrEFpNQeTuvOvW3HCW4tboOO98PSZFgzy3YaFSK03FXAbVn5Pe3W/p3VxTuQOPgftuOEhhufh1odnQFjBzbaTqNCgJa7Cqhjh/ZT6rOhHJby1ArngWC+Fl0E+kxwjsPPGKQDxlSetNxVwLhyctgxdiCxrkMcu3UMFSpXtx0ptJSt4QwYO7QFPn9QB4ypy9JyVwGzdMpfaHMmhRXNnqBJfBfbcUJTvU7Q5c/OyT2WjrGdRgUxLXcVEGu//4yE7f9mWZkuJPbVb1wWylWPQOOusOBp2J1qO40KUlruyu8O7NlOjf+OIiM6jqYjJ0TeQDBf+9+AsRrO599PHbKdSAUh/SlTfnU+6xyHJt5FcXMO+k6mVJnytiOFhxIVoO9kOHUQZg8HV47tRCrIaLkrv1o27kGanV/PhsSXqNO0ve044aVGW+j2Kmz9Br571XYaFWS03JXfLJ8/gY77PyKlcm863DLCdpzw1H4wtLkLvnsFtnxtO40KIlruyi92bV5JkyVPsSmmCe10IJj/iMAtb0DVFs7hmaO7bCdSQULLXfnc6ZPHcH00kCwpSrnBH1K0WHHbkcJb0ZLO8XdXDswYDNnnbCdSQUDLXfmUcblYnzyM2jm7yejyDtVqNbQdKTJUagA9R8Pe5c5HJFXE03JXPrV01hvEH19ISp2RtOp0u+04kaV5D7hiFKSOhdUzbadRlmm5K5/ZsmIx7db9g9XFE0ga/LLtOJHphueg9pXOeIIDG2ynURZpuSufOJq5j9KfDeWwVKD28KlERUfbjhSZ/jdgrDR8PBDOnbCdSFmi5a4KzZWTw86xA6hkDnO8x1jKx1azHSmylanmDBg7vBXmPqADxiKUlrsqtJTJT9PmbCorWvyRxu07246jAOpdA9c/C+vmQMoHttMoC7TcVaGsWfwZSTs+IK3sDST2fsJ2HOXpqoehSTfn9Hy7l9pOowJMy10V2P6MrcR9M4pd0XE0HzleB4IFGxG47T0oF+ceMJZpO5EKIP1pVAWSde4sRyb2p6jJIqrfVEqWLmc7krqYEuXdA8Yy4ZNhOmAsgmi5qwJZPu4BmmZvYFPSy9Ru3NZ2HHU51dvALa/Dtm/hWz1nbaTQclf5tuzLsXQ8MIMlVfrSvttQ23GUN9oPgrYDYPGrsPkr22lUAGi5q3zZuWklTZc+w8aYZrQf9q7tOCo/bnkdqraC2SPgyE7baZSfabkrr506cRTz8QCypCgVhkzTgWChpkgJ6DsJjAtm6oCxcKflrrxiXC42jBlG7ZwMMrr8i6pxDWxHUgVRqYHzCZq9K+A/T9lOo/xIy115ZenM14g//jUpde+hVaeetuOowmh2K1z1EKSNh1Uf206j/MSrcheRriKySUTSReSi/9yLSF8RWS8i60TkQ9/GVDZtXv4t7da/wqoSiSQN+rvtOMoXujwLda6Gzx+C/ettp1F+kGe5i0g0MBq4GWgO3CkizXOt0wj4E3CVMaYF8LAfsioLjmbuo+zc4RySitTVgWDhIzrGmT9TvCzMGAhnj9tOpHzMm1fuiUC6MWabMSYL+AjI/Xv5CGC0MeYIgDHmgG9jKhtcOTnsGjuAiuYIJ3uOp1ylqrYjKV8qUxV6T4DD22HuKB0wFma8KfeawG6P6xnuZZ4aA41F5EcRWSIiXS/2QCIyUkTSRCTt4MGDBUusAiZl0p9ofTaVlS2folG7TrbjKH+oexXc8FdY/xksec92GuVDvnpDNQZoBHQG7gTGiEj53CsZY5KNMfHGmPjKlSv7aNPKH9Z8N5ukncmklb2RhF6P2Y6j/OnKB6HprbDwL7Brie00yke8Kfc9QC2P63HuZZ4ygLnGmPPGmO3AZpyyVyFo3+504hY9yK7oWrTQgWDhT8Q5/2q5Ws6AsZP6W3U48OanNhVoJCL1RKQo0A+Ym2udT3FetSMisTiHabb5MKcKkKxzZzk26S6KmGyi+02hROmytiOpQChRHn4/Bc4c0QFjYSLPcjfGZAOjgAXABmCGMWadiLwgIj3cqy0ADonIemAR8IQx5pC/Qiv/WTH2fppkb2Jzx5eppQPBIku1VnDLG7D9O1ikH3kNdTHerGSMmQfMy7XsWY/LBnjU/UeFqLQvx5B0cBZLqvaj4813246jbGg3wDnu/v3rEJcATS762QgVAvRgqgJg54ZlNF/6DBuKNKfDsHdsx1E2dXvNeRU/ZyQc2WE7jSogLXfFqRNHYeZgzkhxKg35kCJFi9mOpGwqUgL6TgEDzBgE58/aTqQKQMs9whmXi43JdxOXk8EvN/yLKjXr2Y6kgkHFenD7+/DLKvjPH22nUQWg5R7hls54hQ4nviG13h9oeXWPvO+gIkfTbnD1I7BsIqycbjuNyict9wi2Me2/tNvwGitLdCRx4Iu246hgdN2foe418MUjsH+d7TQqH7TcI9SRg79Q/ouRZEZVot4IHQimLuF/A8bKwccD4ewx24mUl7TcI1BOdja7x/WnojnK6Z7jKVdRR0GoyyhdBfpMcD4589n9OmAsRGi5R6Clk56i9dllrGz1NA3bXmM7jgoFda6EG5+HDZ/Dz6Ntp1Fe0HKPMKsXzSJp11hSy91Ewh2P2I6jQskVo6BZd1j4LOz82XYalQct9wiyb9cWan/3EDuj69By5DgdCKby58KAsQp13APG9LQNwUx/uiPEubOnOT75LqJNDjF3TaVEqTK2I6lQVLyc8wWns8dg1lDIybadSF2ClnuEWDn2fhpnbyb9yleo1bCV7TgqlFVrCbf+E3Z8D4v+ZjuNugQt9wiQ9vkHJGXOZknVO2l302DbcVQ4aHsXtB8MP7wJG+flvb4KOC33MLdjQxrN0/7ChiIt6DDsbdtxVDi5+VWo3gbm3Ouch1UFFS33MHby+BGiZg7itJQg9m4dCKZ8rEhx6DsZBB0wFoS03MOUcbnYlDyEmjl72X/jv6lco67tSCocVagLd4yBfath/hO20ygPWu5hKuXjl+lw8ltS64+ixVW32I6jwlnjm+Cax2D5ZFgxzXYa5ablHoY2pn5Nh41vsLLkFSQNfN52HBUJrnsG6nWCLx+FfWtsp1FouYedwwf2UOHLkRyMiqXeiClIlA4EUwEQFQ29xkOJCs7xdx0wZp2WexjJyc5mz7j+lDfHOX3bBMpV0IFgKoBKV4Y+E+HoLvj0DzpgzDIt9zCSOvFJWp1bwarWf6Zhm6tsx1GRqHZHuPEF2PgF/PSu7TQRTcs9TKxaNJOOGeNYWr4bib0eth1HRbKOf4DmPeHr52DHj7bTRCwt9zCwd8cm6nz3MFuj69F65BjbcVSkE4Ee/3LOwzrrbjix33aiiKTlHuLOnT3Nqan9iTY5FLtzKsVLlrYdSSkoXtb5gtPZ407B64CxgNNyD3Erx9xHo+wtpF/1OnENW9qOo9T/q9oCur8FO3+Eb16wnSbiaLmHsLS575F06FOWVOtPu98NsB1Hqd9q0w863A0/vg0bv7SdJqJouYeo7etTabHsWdYXbUX8sLdsx1Hq0rr+A6q3hTn3weFtttNEDC33EHTi2GFiZg7ilJSkypBpxBQpajuSUpf2vwFjAh8PgvNnbCeKCFruIca4XGwZM5jqrn0c+N17xNaoYzuSUnmrUMcZMLZ/Dcx73HaaiKDlHmJSPnqJ9icXk9ZgFM2v7GY7jlLea/w76PQErJgKy6fYThP2vCp3EekqIptEJF1EnrrMer1ExIhIvO8iqgs2pnxFh01vsrLklSQN0IFgKgR1/hPU7+y8ev9lte00YS3PcheRaGA0cDPQHLhTRJpfZL0ywENAiq9DKji0P4OK8+9hf1Rl90Aw/aVLhaCoaOg1DkpUhBkD4cxR24nCljcNkQikG2O2GWOygI+AnhdZ70XgFUBPx+JjOdnZ/DK+P2XNCc7dPpFyFWJtR1Kq4ErFQt9JcCxDB4z5kTflXhPY7XE9w73sf0SkPVDLGKMfZPWDpRMep+W5laxu+ywNWl9hO45ShVcrEX73N9j0pfMZeOVzhf7dXkSigH8Cj3mx7kgRSRORtIMHDxZ20xFh1TcfccWeCSytcAuJtz9oO45SvpN0L7S4Hf77POz4wXaasONNue8Banlcj3Mvu6AM0BL4VkR2AB2BuRd7U9UYk2yMiTfGxFeurLPG87J3+0bqLn6UrdH1aT0i2XYcpXxLBHq8CxUbwMy74cQ+24nCijflngo0EpF6IlIU6AfMvXCjMeaYMSbWGFPXGFMXWAL0MMak+SVxhDh75hSnp96FYCje/0MdCKbCU7Ey8PspkHXSKfic87YThY08y90Ykw2MAhYAG4AZxph1IvKCiPTwd8BItWrMvTTM2cq2q96gZv1mtuMo5T9VmkH3t2HXT84hGuUTMd6sZIyZB8zLtezZS6zbufCxIlvqp6NJOjyXn6sP4oob77IdRyn/a90Xdi1xzt5UKwmadbedKOTph6WDzPZ1KbRc8RzrirYmYegbtuMoFThdX4Ya7Z2PRx7aajtNyNNyDyLHjx4iZtYQTkopqg7VgWAqwsQUcz7/HhUNMwZB1mnbiUKalnuQMC4X6e6BYAe7vk9stdq2IykVeOVrwx1jYf86Z0SBfsGpwLTcg0TK9Bdpf+p70ho9RPOOXW3HUcqeRjfAtU/CymmwfLLtNCFLyz0IbEhZQPzmt1he6hqS7rro+9RKRZZr/wgNusC8J2DvSttpQpKWu2WZ+3YTO/8e9kVVpeGISToQTClwjrvfMdaZQzNjEJw5YjtRyNEmsSj7fBb7x/entDlFVq9JlC1fyXYkpYJHqUrQZxIc3+ucos/lsp0opGi5W5Q64XFaZK1ibbu/Ur9lku04SgWfWglw00uweT78qOcKzg8td0tWfj2dK/ZOYmnF7iTcNsp2HKWCV+JIaNkLvnkRti+2nSZkaLlbsGfbBur/8Cjp0Q1oPeID23GUCm4i0P0dqNQQZg11DtOoPGm5B9jZM6c4M60/IJQc8CHFS5SyHUmp4FesNPSd4nyxSQeMeUXLPcBWJ490BoJd809q1GtqO45SoaNKU+jxDuxeAl8/ZztN0NNyD6Clc94l8cgX/FxjMG2v72c7jlKhp1Vv5xj8z/+C9Z/ZThPUtNwDZOuaJbRe+TzrirYh4e7XbcdRKnT97iWoGQ+f3g+Z6bbTBC0t9wA4fvQQxWYP4YSUptowHQimVKHEFIU+EyG6iA4Yuwwtdz8zLhdbkwdSzbWfQzd/QKWqtfK+k1Lq8srXgl5j4cB6+PJRHTB2EVrufpby4fO0O/0jaY0foWnSTbbjKBU+Gl4PnZ+CVdNh2UTbaYKOlrsfrf95PvFb3mF56U4k3fln23GUCj+dnoQG18P8J2HvCttpgoqWu59k7ttFlQX38ktUNRrpQDCl/CMqCu4YA6WqOMffTx+2nShoaOP4gTMQ7C5KmdNk955ImXIVbUdSKnyVqgR9J8PxX2DOvTpgzE3L3Q9Sxz9Gi6w1rG3/PPVa6EAwpfwuroNzDtYtC+CHf9pOExS03H1sxVdTueKXyaRU6klCzz/YjqNU5EgYDi17w6KXYNu3ttNYp+XuQ3u2raPBT0+wJbohbYa/ZzuOUpFFBLq/DZUawaxhET9gTMvdR86ePsnZaf0xCKUG6kAwpawoVhp+PwXOn4GZQyJ6wJiWu4+sTh5Bg5zt7Oj0T2rUbWI7jlKRq3IT6Pku7E6BhZF7TmItdx9Inf02iUfnsSTubtp00YFgSlnXshck3QtL/g3r5thOY4WWeyFtXf0TrVa9yNpi7UgYogPBlAoaN74IcYnw2SjI3GI7TcBpuRfCsSOZFJ8zhONShhpDpxIdE2M7klLqggsDxmKKwccDIeuU7UQBpeVeQMblYtuYgVRxZXL4ljFUrBpnO5JSKrdyNZ0BYwc3whePRNSAMS33AkqZ+lfanf6JZU0epWnCDbbjKKUupUEXuO5pWP0xpI23nSZgtNwLYN1P80jY+i7LSncmqd/TtuMopfJyzePQ8Eb4z1OwZ7ntNAHhVbmLSFcR2SQi6SLy1EVuf1RE1ovIahH5r4jU8X3U4JC5dydVv7qPPdE1aDJyog4EUyoUREXBHclQuirMGBwRA8bybCYRiQZGAzcDzYE7RaR5rtVWAPHGmNbALOBVXwcNBtnnszgwsT8lzRlcfSZTumwF25GUUt4qWRH6ToKT+2D2yLAfMObNy85EIN0Ys80YkwV8BPT0XMEYs8gYc+FcV0uAsHx3MW3cwzTPWsP6Di9Qt1m87ThKqfyq6R4wlr4Qvn/Ddhq/8qbcawK7Pa5nuJddyjBg/sVuEJGRIpImImkHDx70PmUQWL5gCh33TSOl0m3E97jXdhylVEHFD4NWfZ0BY1u/sZ3Gb3x6wFhEBgDxwGsXu90Yk2yMiTfGxFeuXNmXm/ar3elraPTTE2yOaUzbEToQTKmQJgLd34LKTeGT4XAsw3Yiv/Cm3PcAnmd1jnMv+xURuQF4BuhhjDnnm3j2nTl1gvMfDiBHoikzcCrFipe0HUkpVVhFSzkDxrLPOQPGsrNsJ/I5b8o9FWgkIvVEpCjQD5jruYKItAM+wCn2A76PaYdxuVg7ZgR1c3ay69q3qF5HB4IpFTZiG0HP0ZCRCgv/YjuNz+VZ7saYbGAUsADYAMwwxqwTkRdEpId7tdeA0sBMEVkpInMv8XAhJXXO2yQcnU9K7WG0vq6P7ThKKV9rcRt0/AOkvA9rP7GdxqfEWPo6bnx8vElLS7OybW+kr/qBWrNvY1OJ1rR4/CudG6NUuMo5DxNvgf3rYMQiqNzYdqLLEpFlxpg8P66n38C5iGOHD1Ly06EclbLUGjZNi12pcBZdxD1grDjMGAjnTtpO5BNa7rm4cnLYPnYgsa5Mjtw6hgqVq9uOpJTyt7I1oPc4yNwMXzwcFgPGtNxzSZn6LG1P/8zypo/TNP5623GUUoFSv7MzYGzNTEgdaztNoWm5e1j74+ckbhvNsjJdSPr9b0boKKXC3dWPQaOb4D9/goxlttMUipa728G9O6i+8H4yomvSdOQEHQimVCSKioLb34ey1WFmaA8Y0wYDzmedI3PCXZQwZ6HPZEqVKW87klLKlpIVoc8kOLkfZo8I2QFjWu7AsnEP0ez8OtYn/I06zTrYjqOUsq1me7j5FUj/GhZfdJpK0Iv4cl/+n4l03D+dlNg7iL91pO04Sqlg0eFuaN0Pvn3ZKfkQE9HlvnvLKhr//JQzEGz4aNtxlFLBRARufROqNIdPRsDR3XnfJ4hEbLmfOXWC7OmDOC8xlB30oQ4EU0r9VtGS0Hey8y3WEBswFpHlblwu1iYPo07OTjI6v0212o1sR1JKBavYhnDbv2FPGnz1jO00XovIcl/6yZskHFtASp0RtOrcy3YcpVSwa94DrhgFS5NhzSzbabwSceW+ZeX3tFv7d1YXjydp8D9sx1FKhYobnoPaV8DcB+HARttp8hRR5X7s0H5KfTaUw1KeWsOmEhUdbTuSUipURBeB3hOc4/AzBgX9gLGIKXdXTg47xg5nXnjRAAAJjUlEQVQk1nWI4z3G6UAwpVT+la0OvcfDoS3w+YNBPWAsYsp96ZS/0OZMCiuaP0nj9p1tx1FKhap6naDLn52TeywdYzvNJUVEua/9/jMStv+btDLXk9jnSdtxlFKh7qpHoHFXWPA07E61neaiwr7cD+zZTo3/jiIjOo5mI8frQDClVOH9b8BYDefz76cO2U70G2HddOezznF44l0UN+egrw4EU0r5UIkKzhecTh2E2cPBlWM70a+EdbkvG/sATc+vZ0Pi36nTtL3tOEqpcFOjLXR7FbZ+A9+9YjvNr4RtuS+bN4GOBz4mpXJvOtwy3HYcpVS4aj8Y2vaH716FLcEzYCwsy33X5pU0TXmKTTFNaacDwZRS/iQC3V6Hqi2cwzNHd9lOBIRhuZ8+eQzXRwPJkqKUH/IhRYsVtx1JKRXuLgwYc+XAjMGQfc52ovAqd+NysT55GLVzdpPR5R2qxjWwHUkpFSkqNXAGjO1d7nxE0rKwKvels94g/vhCUureQ6tOt9uOo5SKNM26w5UPQOpYWD3TapSwKfctKxbTbt0/WFU8gaRBf7cdRykVqa5/Dmpf6YwnOLDBWoywKPejmfso/dlQDksF6gzXgWBKKYuiY6DPBChaGj4eCOdOWIkR8uXuyslh59gBVDJHON5jHOVjq9mOpJSKdGWqOQPGDm+FuQ9YGTAW8uWeMvlp2pxNZUWLP9K4/bW24yillKPeNXD9s7BuDqR8EPDNh3S5r1n8GUk7PiCt7A0k9n7cdhyllPq1qx6GJt2c0/PtXhrQTXtV7iLSVUQ2iUi6iDx1kduLicjH7ttTRKSur4Pmtj9jK3HfjGJXdC2a60AwpVQwEoHb3oNyce4BY5kB23SejSgi0cBo4GagOXCniDTPtdow4IgxpiHwJuDXIQtZ585yZGJ/iposovpNoWTpcv7cnFJKFVyJ8u4BY5nwybCADRjz5uVuIpBujNlmjMkCPgJ65lqnJzDJfXkWcL2IiO9i/trysaNomr2BjUn/oHbjtv7ajFJK+Ub1NnDL67DtW/j25YBs0ptyrwns9rie4V520XWMMdnAMaCSLwLmtuzLsXQ8OJMlVX5Ph253+2MTSinle+0HQbsBsPg12PyV3zcX4/cteBCRkcBIgNq1axfoMYqVrcyKklfSYfi7voymlFL+1+11OHkAipf1+6a8Kfc9QC2P63HuZRdbJ0NEYoBywG9OTWKMSQaSAeLj4wv0wc+W1/SEa3IfFVJKqRBQpAT0D8xYAm8Oy6QCjUSknogUBfoBc3OtMxcY7L7cG/jGmCA+LbhSSoW5PF+5G2OyRWQUsACIBsYbY9aJyAtAmjFmLjAOmCIi6cBhnH8AlFJKWeLVMXdjzDxgXq5lz3pcPgv08W00pZRSBaXf/FFKqTCk5a6UUmFIy10ppcKQlrtSSoUhLXellApDYuvj6CJyENhZwLvHAoEbr+Y9zZU/miv/gjWb5sqfwuSqY4ypnNdK1sq9MEQkzRgTbztHbporfzRX/gVrNs2VP4HIpYdllFIqDGm5K6VUGArVck+2HeASNFf+aK78C9Zsmit//J4rJI+5K6WUurxQfeWulFLqMoKu3AtzMm4R+ZN7+SYRuSnAuR4VkfUislpE/isidTxuyxGRle4/uccl+zvXEBE56LH94R63DRaRLe4/g3Pf18+53vTItFlEjnrc5s/9NV5EDojI2kvcLiLyjjv3ahFp73GbX/aXF5n6u7OsEZGfRKSNx2073MtXikiarzLlI1tnETnm8ff1rMdtl30O+DnXEx6Z1rqfUxXdt/lln4lILRFZ5O6BdSLy0EXWCdzzyxgTNH9wRgpvBeoDRYFVQPNc6/wBeN99uR/wsftyc/f6xYB67seJDmCu64CS7sv3Xcjlvn7S4v4aAvzrIvetCGxz/7eC+3KFQOXKtf4DOKOk/bq/3I/dCWgPrL3E7d2A+YAAHYGUAOyvvDJdeWFbOCeqT/G4bQcQa3F/dQa+KOxzwNe5cq3bHeccE37dZ0B1oL37chlg80V+HgP2/Aq2V+6FORl3T+AjY8w5Y8x2IN39eAHJZYxZZIw57b66BOeMVf7mzf66lJuAhcaYw8aYI8BCoKulXHcC03207csyxizGOefApfQEJhvHEqC8iFTHj/srr0zGmJ/c24TAPbcubDuv/XUphXlu+jpXQJ5fxphfjDHL3ZdPABv47fmmA/b8CrZyL8zJuL25rz9zeRqG86/zBcVFJE1ElojIbT7KlJ9cvdy/As4SkQunTAyK/eU+fFUP+MZjsb/2lzculd2f+ys/cj+3DPCViCwT5xzFNlwhIqtEZL6ItHAvC4r9JSIlcUryE4/Fft9n4hwubgek5LopYM+vgJ4gOxKIyAAgHrjWY3EdY8weEakPfCMia4wxWwMU6XNgujHmnIjcg/NbT5cAbdsb/YBZxpgcj2U291fQEpHrcMr9ao/FV7v3VRVgoYhsdL+qDZTlOH9fJ0WkG/Ap0CiA289Ld+BHY4znq3y/7jMRKY3zj8nDxpjjvnrc/Aq2V+75ORk38uuTcXtzX3/mQkRuAJ4Behhjzl1YbozZ4/7vNuBbnH/RA5LLGHPII8tYoIO39/VnLg/9yPUrsx/3lzculd2f+ytPItIa5++vpzHmfyef99hXB4A5+O5QpFeMMceNMSfdl+cBRUQkFsv7y8Plnl8+32ciUgSn2KcZY2ZfZJXAPb98/aZCId+QiMF5I6Ee//8mTItc69zPr99QneG+3IJfv6G6Dd+9oepNrnY4byA1yrW8AlDMfTkW2IKP3ljyMld1j8u3A0vM/7+Bs92dr4L7csVA5XKv1xTnzS0JxP7y2EZdLv0G4S38+g2vpf7eX15kqo3zHtKVuZaXAsp4XP4J6OrLfeVFtmoX/v5wSnKXe9959RzwVy737eVwjsuXCsQ+c/9/Twbeusw6AXt++fRJ4KMd1A3nXeatwDPuZS/gvBoGKA7MdD/ZlwL1Pe77jPt+m4CbA5zra2A/sNL9Z657+ZXAGveTew0wLMC5XgbWube/CGjqcd+h7v2YDtwdyFzu688B/8h1P3/vr+nAL8B5nOOaw4B7gXvdtwsw2p17DRDv7/3lRaaxwBGP51aae3l9935a5f47fsaX+8rLbKM8nl9L8PgH6GLPgUDlcq8zBOdDFp7389s+wzlcZoDVHn9X3Ww9v/QbqkopFYaC7Zi7UkopH9ByV0qpMKTlrpRSYUjLXSmlwpCWu1JKhSEtd6WUCkNa7kopFYa03JVSKgz9H0RALWFbmCy5AAAAAElFTkSuQmCC\n",
      "text/plain": [
       "<matplotlib.figure.Figure at 0x118344c88>"
      ]
     },
     "metadata": {},
     "output_type": "display_data"
    }
   ],
   "source": [
    "plt.plot(x_train[0,14])\n",
    "plt.plot(x_train[0,18])"
   ]
  },
  {
   "cell_type": "code",
   "execution_count": 54,
   "metadata": {},
   "outputs": [
    {
     "name": "stdout",
     "output_type": "stream",
     "text": [
      "x_train.shape: (1000, 150, 3)\n"
     ]
    }
   ],
   "source": [
    "# x_train = x_train.astype('float32')# / 255.\n",
    "# x_train = x_train.reshape((x_train.shape[0],) + original_img_size)\n",
    "# x_test = x_test.astype('float32')# / 255.\n",
    "# x_test = x_test.reshape((x_test.shape[0],) + original_img_size)\n",
    "print('x_train.shape:', x_train.shape)"
   ]
  },
  {
   "cell_type": "code",
   "execution_count": 55,
   "metadata": {
    "scrolled": true
   },
   "outputs": [
    {
     "name": "stdout",
     "output_type": "stream",
     "text": [
      "Train on 1000 samples, validate on 100 samples\n",
      "Epoch 1/5\n",
      "1000/1000 [==============================] - 4s 4ms/step - loss: 262.5367 - val_loss: 147.9805\n",
      "Epoch 2/5\n",
      "1000/1000 [==============================] - 3s 3ms/step - loss: 146.8758 - val_loss: 148.9774\n",
      "Epoch 3/5\n",
      "1000/1000 [==============================] - 3s 3ms/step - loss: 141.3571 - val_loss: 121.4415\n",
      "Epoch 4/5\n",
      "1000/1000 [==============================] - 3s 3ms/step - loss: 116.0272 - val_loss: 97.2122\n",
      "Epoch 5/5\n",
      "1000/1000 [==============================] - 3s 3ms/step - loss: 96.3138 - val_loss: 89.1576\n"
     ]
    }
   ],
   "source": [
    "history = vae.fit(x_train,\n",
    "        shuffle=True,\n",
    "        epochs=epochs,\n",
    "        batch_size=batch_size,\n",
    "        validation_data=(x_test, None))"
   ]
  },
  {
   "cell_type": "code",
   "execution_count": 32,
   "metadata": {},
   "outputs": [
    {
     "data": {
      "text/plain": [
       "[<matplotlib.lines.Line2D at 0x1187795c0>]"
      ]
     },
     "execution_count": 32,
     "metadata": {},
     "output_type": "execute_result"
    },
    {
     "data": {
      "image/png": "iVBORw0KGgoAAAANSUhEUgAAAYAAAAD8CAYAAAB+UHOxAAAABHNCSVQICAgIfAhkiAAAAAlwSFlzAAALEgAACxIB0t1+/AAAADl0RVh0U29mdHdhcmUAbWF0cGxvdGxpYiB2ZXJzaW9uIDIuMS4yLCBodHRwOi8vbWF0cGxvdGxpYi5vcmcvNQv5yAAAIABJREFUeJzt3Xd8VfX9x/HXJzcTCAkjJGGGjZCAQBhqtSpVGSqIoyoyFESt1rbWWtFW6q5trdX6cwCigOKoRUWgKop1tYIJK0AChLACCQkrg5D9/f2RExsRJOve7x2f5+ORB/eec+49b47evDnjnq8YY1BKKRV4gmwHUEopZYcWgFJKBSgtAKWUClBaAEopFaC0AJRSKkBpASilVIDSAlBKqQClBaCUUgFKC0AppQJUsO0AP6R9+/YmISHBdgyllPIpqampB40xMadbzqsLICEhgZSUFNsxlFLKp4jI7vosp4eAlFIqQGkBKKVUgNICUEqpAKUFoJRSAUoLQCmlApQWgFJKBSgtAKWUClBaAAqAZRv3s/vQMdsxlFIepAWgWJVxgDsWr+OqF/7LzoNaAkoFCi2AAHesrJLfv7uZ7u1bUlVtmDT3a7KPlNiOpZTyAC2AAPfUym3sO3qcP101kEXTh1NcVsmkeas5UFhqO5pSys20AAJYWnYB87/ayfUjujIsoS0DOkax4KbhHCwqY9K81RwqLrMdUSnlRloAAaqyqppZ72ykXaswfju637fTB3dtw0vThpF9pITJL62hoKTCYkqllDtpAQSoV/6zi037Cpl9WX+iIkK+M29kj3a8ODmZzLxipr68huKySksplVLupAUQgLKPlPDkR9u4sF8HxiXFn3SZH/eJ4dnrB5O2r4Dpr3zD8fIqD6dUSrmbFkCAMcbwwHubAXho/ABE5JTLXjwgjr9eM4g1uw5zy6uplFVqCSjlT7QAAsyKtFxWZeTx64v70LlNi9MuP/7MTjwxcSCfb8vn54vXUVFV7YGUSilP0AIIIAXHK/jD+5tJ7NSaaWcn1Pt11wzrwoOXD+CjLQf49VsbqKo27guplPIYrx4SUjWvJz7I4FBxGS9PG0awq2HdP/XsBErKq3jigwwiQlw8PjGJoKBTHz5SSnk/LYAA8c2uwyxevYfpP+pOYqeoRr3Hbef35Hh5Jc+syiQi1MXsy/r/4DkEpZR30wIIAOWV1dy3JI1O0RHcdVGfJr3Xry7qQ0l5FfO+3ElEqIt7LumrJaCUj9ICCAAvfraD7XnFzJ+WTMuwpv0nFxHuH3cGxyuqeP7fO2gR4uLno3o3U1KllCdpAfi5rPxi/v5pJuOS4rmwX2yzvKeI8PD4RI5XVPHkym1EhLqYcW6PZnlvpZTnaAH4MWMM97+zibDgIGZf1r9Z3zsoSPjTlQMpq6jmkeXpRIS6mDSiW7OuQynlXloAfuzt1Gz+m3WIR69IpEPr8GZ//2BXEE/99EyOV1Txu3c3ERHiYuKQzs2+HqWUe5z2WkARmS8ieSKyqc60P4tIhohsFJF3RCS6zrxZIpIpIltF5JI600c70zJF5N7m/6uoug4Vl/HoinSSu7XhumFd3bae0OAgnps0hLN7tuPuf2xgRVqO29allGpe9bkY/BVg9AnTVgKJxpiBwDZgFoCI9AeuBQY4r3lORFwi4gL+DxgD9Aeuc5ZVbvLI8nSOlVXymAeu1w8PcTF3SjJDurbhztfXsSrjgFvXp5RqHqctAGPM58DhE6Z9ZIypvUXk10Dtfv944A1jTJkxZieQCQx3fjKNMVnGmHLgDWdZ5QZfbM/nnXX7uPXHPekTG+mRdbYIDWb+jcPo37E1t766lq8yD3pkvUqpxmuOW0HcBPzLedwJ2FtnXrYz7VTTVTM7Xl7F/e9sonv7ltx+QS+Prrt1eAgLbhxO93YtmbEghZRdh0//IqWUNU0qABG5H6gEXmueOCAiM0UkRURS8vPzm+ttA8Yzq7az53AJj16RSHiIy+Prb9MylFdnjCA+KpwbX/6GjdlHPZ5BKVU/jS4AEZkGXApMMsbU3h1sH9ClzmKdnWmnmv49xpg5xphkY0xyTExMY+MFpIzcQuZ+nsVVQztzds/21nLERIbx2s0jiGoRwpT5a8jILbSWRSl1ao0qABEZDdwDXG6MKakzaylwrYiEiUh3oDewBvgG6C0i3UUklJoTxUubFl3VVVVtuPefabSOCOH+sWfYjkN8VASLZ4wkPNjFDfNWsyO/2HYkpdQJ6nMZ6OvAf4G+IpItItOBZ4FIYKWIrBeRFwCMMZuBt4AtwAfA7caYKueE8R3Ah0A68JazrGomr63ezfq9R/n9pWfQpmWo7TgAdG3XgtduHgHApLmr2Xu45DSvUEp5kvzv6I33SU5ONikpKbZjeL3cglJ+8tfPGNw1moU3Dfe6m7Ol5xRy7ZyvaR0RzFu3nEV8VITtSEr5NRFJNcYkn245HRDGD/xh6WYqqqp5ZEKi1/3yBzgjvjULbxrOkWMVTJq3mvyiMtuRlFJoAfi8jzbn8sHmXH7xk950a9fSdpxTGtQlmpdvHEbO0VImv7SaoyXltiMpFfC0AHxYcVkls5dupl9cJDf7wN04hyW0Ze6UZLIOHmPq/DUUlVbYjqRUQNMC8GF/+XAruYWlPDYxiZAGDvFoy496t+f5SUPYvL+Qm175hpLyytO/SCnlFr7xW0N9z/q9R1nw311MHtmNIV3b2I7TIKPOiOXpaweTuvsIMxemUlpRZTuSUgFJC8AHVVRVM2tJGh0iw/jNJX1tx2mUcQPj+dNVg/gy8yB3LF5LRVW17UhKBRwtAB80/8udpOcU8uDlA4gMD7Edp9GuGtqZhyck8nF6Hr98cz1V1d57SbJS/kgHhPExew+X8NTH27iofyyXDIizHafJJo/sRml5FY+uSCc82MWfrxro9ttXK6VqaAH4EGMM97+7CZcID14+wCuv+W+Mm8/rQUl5FU99vI2I0CAeHu+d32dQyt9oAfiQpRv28/m2fGZf1p+O0f71bdo7R/WipKKSFz/LokVoMLPG9NMSUMrNtAB8xNGSch56fwuDOkcx5awE23GanYhw7+h+lJZXMefzLCJCXPzqoj62Yynl17QAfMTjKzI4eryCRdNH4PLTY+QiwuzLBlBSXsXTn2ynRaiLW37c03YspfyWFoAP+DrrEG+m7OWW83rQv2Nr23HcKihI+OOVAymtrObxf2UQEeryyz0epbyBFoCXK6us4r530ujSNoJf/KS37Tge4QoS/nrNIEorqnjgvc2Eh7i4JrnL6V+olGoQ/R6Al3vu0x1k5R/jkQlJtAgNnL4OcQXx7PWDObd3e+7950be37DfdiSl/I4WgBfLzCvi+X/v4PJBHflxn8AbHjMs2MWcyckkJ7TlV2+uZ+WWA7YjKeVXtAC8VHW14b4lm4gIdfH7S/vbjmNNRKiL+dOGMaBTFLe/tpbPt+XbjqSU39AC8FJvpexlza7D3De2HzGRYbbjWNUqLJiFNw6nZ4dWzFyUwuqsQ7YjKeUXtAC8UH5RGY+tSGd497Z68tMR1SKERdOH0yk6gpte+YZ1e47YjqSUz9MC8EIPLdtCaUU1j12RpN+GraN9qzAW3zyS9pFhTJ2/hs37C2xHUsqnaQF4mX9vzeP9Dfv52QU96dWhle04Xie2dTivzRhBq7BgJr+0hsy8ItuRlPJZWgBepKS8kt+9u4meMS257Xz9BuypdG7TgtduHokrSLh+7mp2HzpmO5JSPkkLwIv87ePtZB85zmNXJBEW7LIdx6t1b9+S12aMoKKqmuvnrmbf0eO2Iynlc7QAvMTm/QW89OVOrh3WhRE92tmO4xP6xEayaPoICksruGHeavKKSm1HUsqnaAF4gapqw6wlabRpEcKsMWfYjuNTEjtF8cqNwzlQWMoN81Zz+Fi57UhK+QwtAC+w4D+72JhdwAOXDSCqhe8O8WjL0G5tmDc1md2HSpgyfzUFxytsR1LKJ2gBWLb/6HGe/GgrP+4Tw2UD423H8Vln92zPC5OHsjW3iBtfXsOxskrbkZTyeqctABGZLyJ5IrKpzrS2IrJSRLY7f7ZxpouIPCMimSKyUUSG1HnNVGf57SIy1T1/Hd9ijOGB9zZRZQyPTNBhEJvqgr4d+Pt1g9mQXcCMBSmUVlTZjqSUV6vPHsArwOgTpt0LfGKM6Q184jwHGAP0dn5mAs9DTWEAs4ERwHBgdm1pBLIPNuXycXoed13Uhy5tW9iO4xdGJ8bz5NWD+HrnIW57NZXyymrbkZTyWqctAGPM58DhEyaPBxY4jxcAE+pMX2hqfA1Ei0g8cAmw0hhz2BhzBFjJ90sloBSWVjB76Wb6x7fmpnO6247jVyYM7sRjVyTx6dZ8fvHGOiqrtASUOpnGngOINcbkOI9zgVjncSdgb53lsp1pp5oesP78wVYOFpfx+MQkgl16Kqa5XTe8Kw9c2p9/bcrlN29vpLra2I6klNdp8ggjxhgjIs326RKRmdQcPqJr167N9bZeJXX3EV5dvZtpZycwqEu07Th+66Yfded4RRV//nAr4SEuHrtCz7MoVVdj/+l5wDm0g/NnnjN9H1D39pWdnWmnmv49xpg5xphkY0xyTIz/DYJSUVXNfUvSiGsdzq8v7ms7jt+7/YJe3H5BT15fs4eHl6VjjO4JKFWrsQWwFKi9kmcq8F6d6VOcq4FGAgXOoaIPgYtFpI1z8vdiZ1rAmfN5FlsPFPHQ+ERahQXOEI823X1xX248J4H5X+3kyY+22Y6jlNc47W8gEXkdOB9oLyLZ1FzN80fgLRGZDuwGrnEWXwGMBTKBEuBGAGPMYRF5GPjGWe4hY8yJJ5b93q6Dx3jmk+2MSYzjov6xp3+BahYiwgOX9qe0oopnP80kItTF7Rf0sh1LKetOWwDGmOtOMWvUSZY1wO2neJ/5wPwGpfMjxhjufzeNUFcQf7h8gO04AUdEeGRCEsfLa84JRIS4uOlHevWVCmx6DMJD3lm3j68yD/Hw+AHEtg63HScguYKEv1w9iNKKah5atoUWoS6uHe6fFxooVR96/aEHHD5WziPL0xnSNZpJI7rZjhPQgl1BPHPdYM7vG8Osd9J4d91Jr0VQKiBoAXjAo8vTKTxeweMTBxIUpJch2hYaHMQLNwxlZPd2/PofG/hgU67tSEpZoQXgZv/JPMg/12Yz87we9I2LtB1HOcJDXMybmsygzlH8/PW1fLo17/QvUsrPaAG4UWlFFfe9k0a3di24c1Rv23HUCVqGBfPyjcPpGxfJrYtS+c+Og7YjKeVRWgBu9OyqTHYdKuGxK5IID9EhHr1RVEQIC28aQbd2LZixIIXU3QF3dbIKYFoAbrLtQBEvfLaDiYM7cU6v9rbjqB/QtmUor84YQWzrcKbN/4ZN+wpsR1LKI7QA3KDaGeIxMjyY+8fpEI++oENkOK/NGEHriBAmv7SarblFtiMp5XZaAG6weM0eUncf4f5x/WnXKsx2HFVPHaMjWHzzCEKDg5g0bzU7Dx6zHUkpt9ICaGZ5haU88UEGZ/dsx5VDAvqO1z6pW7uWvDZjBMYYJs39muwjJbYjKeU2WgDN7MH3t1BWWc2jVyTprYd9VK8OkSyaPoLiskqun7uaA4WltiMp5RZaAM3ok/QDLE/L4c4Le9G9fUvbcVQT9O/YmgU3DedQcRmT5q3mUHGZ7UhKNTstgGZyrKySB97bTJ/YVsw8r6ftOKoZDO7ahvnThpF9pIQbXlpDQUmF7UhKNSstgGby15Xb2Hf0OI9PTCI0WDervxjRox1zJiezI6+YqS+vobis0nYkpZqN/qZqBmnZBbz81U4mjejK0G5tbcdRzey8PjE8e/1g0vYVcNMr33C8vMp2JKWahRZAE1VWVXPvko20axXGPaP72Y6j3OTiAXE89dMz+WbXYWYuSqGsUktA+T4tgCZ65T+72Ly/kAcvH0BURIjtOMqNLh/UkSeuHMgX2w9yx+J1VFRV246kVJNoATTB3sMlPPnRNkb168CYxDjbcZQHXJPchYfGD2DllgPMWpKmg8wrn6YjgjWSMYYH3tuECDw0IVGv+Q8gU85K4FBxOU9/sp1+cZHMOLeH7UhKNYruATTS8rQcPt2az68v7kun6AjbcZSH/WJUb8YkxvHYinQ+25ZvO45SjaIF0AgFJRX8YekWkjpFMe3sBNtxlAVBQcKT1wyib1xr7li8lqz8YtuRlGowLYBG+OMHGRw+VsbjE5Nw6RCPAatFaDBzpwwl1BXEjIUpFBzXL4op36IF0EDf7DrM62v2MP1H3UnsFGU7jrKsc5sWPH/DUPYcKuHO19dRVa0nhZXv0AJogLLKKmYtSaNTdAS/uqiP7TjKSwzv3paHJyTy2bZ8nvggw3YcpepNrwJqgBc/yyIzr5iXpw2jRahuOvU/1w3vSkZOIXM+z6JvbCRXDu1sO5JSp6V7APW0I7+YZ1dlMm5gPBf062A7jvJCv7u0P2f3bMesJWms3XPEdhylTksLoB6MMdz/ThphIUHMvqy/7TjKS4W4gvi/64cQFxXOLYtSyS3QcQSUd2tSAYjIr0Rks4hsEpHXRSRcRLqLyGoRyRSRN0Uk1Fk2zHme6cxPaI6/gCf8IzWbr7MOM2vMGXSIDLcdR3mxNi1DmTc1mZKySmYuSqG0Qu8ZpLxXowtARDoBdwLJxphEwAVcCzwBPGWM6QUcAaY7L5kOHHGmP+Us5/UOFpfx2Ip0kru14dphXWzHUT6gT2wkT19bc/fQ3/5zo94uQnmtph4CCgYiRCQYaAHkABcCbzvzFwATnMfjnec480eJD9w/4ZFlWzhWVsnjE5MI0mv+VT39pH8sd1/cl/fW7+eFz7Jsx1HqpBpdAMaYfcBfgD3U/OIvAFKBo8aY2lEzsoHakdE7AXud11Y6y7c78X1FZKaIpIhISn6+3a/Yf7E9n3fX7+e2H/ekd2yk1SzK9/zs/J5cNqgjf/owg0/SD9iOo9T3NOUQUBtq/lXfHegItARGNzWQMWaOMSbZGJMcExPT1LdrtOPlVdz/ziZ6tG/Jzy7oZS2H8l0iwp+uHEhixyh+8cZ6th8osh1Jqe9oyiGgnwA7jTH5xpgKYAlwDhDtHBIC6Azscx7vA7oAOPOjgENNWL9bPf3JdvYcLuHRK5IID3HZjqN8VESoizlThhIe4mLGwhSOlpTbjqTUt5pSAHuAkSLSwjmWPwrYAnwKXOUsMxV4z3m81HmOM3+V8dKzY+k5hcz9Iourh3bmrJ7fO0qlVIPER0Xw4uSh5Bwt5fbFa6nUgWSUl2jKOYDV1JzMXQukOe81B/gtcJeIZFJzjP8l5yUvAe2c6XcB9zYht9tUVRtmLUkjKiKE+8aeYTuO8hNDu7XhsYlJfJV5iEeWp9uOoxTQxFtBGGNmA7NPmJwFDD/JsqXA1U1Znye8+vVu1u89yt9+eiZtWobajqP8yFVDO5ORU8i8L3fSNy6S64Z3tR1JBTj9JnAduQWl/PnDrZzbuz3jz+xoO47yQ/eO6cd5fWJ44L1NrNl52HYcFeC0AOqYvXQTFVXVPKJDPCo3CXYF8ffrBtOlTQtuezWV7CMltiOpAKYF4Phwcy4fbj7AL3/Sh27tWtqOo/xYVEQIc6cmU15Vzc0LUykprzz9i5RyAy0AoKi0gtnvbXYG+O5uO44KAD1jWvHMdYPZmlvIr9/aQLUOJKMs0AIAnvxoGweKSnl8YhIhLt0kyjMu6NuBWWPO4F+bcvn7qkzbcVQACvhRTdbtOcKC/+5iyshuDO7axnYcFWBmnNud9NxCnvp4G33jWjE6Md52JBVAAvqfuxVV1cxakkZsZDh3X9LXdhwVgESEx65I4swu0fzqzQ1s2V9oO5IKIAFdAC99uZOM3CL+cPkAIsNDbMdRASo8xMWcyUNpHRHMzQtTOFRcZjuSChABWwB7DpXwt4+3cXH/WEYnxtmOowJch9bhzJmczMHiMm57bS3llXq7COV+AVkAxhjufzeN4KAgHhw/wHYcpQAY1CWaP101kDU7DzN76WYdSEa5XUAWwNIN+/li+0HuvrgP8VERtuMo9a3xZ3bitvN78vqaPbz69W7bcZSfC7gCOFpSzkPvb2FQl2gmn5VgO45S33P3xX0Z1a8Df3h/C//JPGg7jvJjAVcAj61I5+jxCv44MQmXDvGovJArSPjbtWfSvX1LfrZ4LXsO6e0ilHsEVAH8d8ch3krJZsa53TkjvrXtOEqdUmR4CPOmJGMMzFj4DcVlersI1fwCpgBKK6q4/500urSN4Jej+tiOo9RpJbRvyXOThrAj/xi/fGO93i5CNbuAKYDn/r2DrIPHeHRCEhGhOsSj8g3n9GrP78edwcfpB/jrym224yg/ExC3gsjMK+L5f2cy/syOnNfH3kDzSjXG1LMTyMgt4tlPM+kbF8llg3SsCtU8/H4PoNoZ4rFFaDC/v7S/7ThKNZiI8ND4RIYltOE3b28gLbvAdiTlJ/y+AN5M2cs3u45w/9gzaN8qzHYcpRolNDiI528YStsWocxclEJeUantSMoP+HUB5BWV8viKdEZ0b8vVyZ1tx1GqSdq3CmPu1GSOllRw66JUyiqrbEdSPs6vC+Ch97dQWlHNYxOTdIhH5RcGdIziL1cPYu2eo9z/zia9XYRqEr8tgE+35rFsYw63X9CLnjGtbMdRqtmMGxjPnaN683ZqNvO/2mU7jvJhflkAJeWV/O6dTfSMacmt5/ewHUepZvfLUb25ZEAsjy7fwufb8m3HUT7KLwug4HgFHaPDeXziQMKC9Zp/5X+CgoS/XnMmfWIjuWPxWrLyi21HUj7ILwsgPiqCt245i+Hd29qOopTbtAwLZu6UZIJdQcxYmEJhaYXtSMrH+GUBAHrSVwWELm1b8NykIew5VMKdr6+jSm8XoRqgSQUgItEi8raIZIhIuoicJSJtRWSliGx3/mzjLCsi8oyIZIrIRhEZ0jx/BaUC28ge7Xhw/AD+vTWfP32QYTuO8iFN3QN4GvjAGNMPGASkA/cCnxhjegOfOM8BxgC9nZ+ZwPNNXLdSyjFpRDcmj+zGi59nsWRttu04ykc0ugBEJAo4D3gJwBhTbow5CowHFjiLLQAmOI/HAwtNja+BaBGJb3RypdR3PHBZf0b2aMu9S9JYt+eI7TjKBzRlD6A7kA+8LCLrRGSeiLQEYo0xOc4yuUCs87gTsLfO67OdaUqpZhDiCuK5SUOJbR3GLYtSyS3Q20WoH9aUAggGhgDPG2MGA8f43+EeAEzN1xQbdFZKRGaKSIqIpOTn6/XNSjVE25ahzJsyjGNlldyyKIXSCr1dhDq1phRANpBtjFntPH+bmkI4UHtox/kzz5m/D+hS5/WdnWnfYYyZY4xJNsYkx8TorZuVaqi+cZE89dMz2ZBdwL3/3Ki3i1Cn1OgCMMbkAntFpK8zaRSwBVgKTHWmTQXecx4vBaY4VwONBArqHCpSSjWjiwfEcffFfXh3/X5e/DzLdhzlpZo6IMzPgddEJBTIAm6kplTeEpHpwG7gGmfZFcBYIBMocZZVSrnJ7Rf0IiO3iCc+yKBPbCsu7Bd7+hepgCLevHuYnJxsUlJSbMdQymcdL6/iqhf+w+5DJbx7+9n06hBpO5LyABFJNcYkn245v/0msFIKIkJdzJ2STHhIEDMWpHC0pNx2JOVFtACU8nMdoyN4cfJQ9h09zh2L11FZVW07kvISWgBKBYCh3dry6IQkvsw8yKMr0m3HUV6iqSeBlVI+4pphXcjILWL+VzvpFxfJT4d1tR1JWaZ7AEoFkPvG9uPc3u353bubSNl12HYcZZkWgFIBJNgVxLPXDaFTdAS3vprKvqPHbUdSFmkBKBVgolqEMG9qMmUV1dy8IIWS8krbkZQlWgBKBaBeHSJ55rrBpOcW8pt/6O0iApUWgFIB6oJ+Hbh3dD+Wp+Xw7KpM23GUBXoVkFIBbOZ5PcjILeLJldvoHRvJ6MQ425GUB+kegFIBTER4fGISg7pEc9db68nILbQdSXmQFoBSAS48xMWcyUNpFRbMjAUpHD6mt4sIFFoASiliW4czZ0oyeUVl3PZqKhV6u4iAoAWglALgzC7RPHFlEqt3HubB9zfbjqM8QE8CK6W+dcXgzmTkFvHiZ1n0jWvN5JHdbEdSbqR7AEqp77jnkn5c0DeGB5du5r87DtmOo9xIC0Ap9R2uIOHp6wbTrV0LfvZaKnsPl9iOpNxEC0Ap9T2tw0OYN3UYVdWGGQtSKC7T20X4Iy0ApdRJdW/fkv+bNITteUXc9eZ6qqv1dhH+RgtAKXVK5/aO4Xfj+vPRlgP87eNttuOoZqZXASmlftCN5ySQkVvIM6sy6RMXyaUDO9qOpJqJ7gEopX6QiPDwhESGdmvD3f/YwKZ9BbYjqWaiBaCUOq2wYBcv3DCUNi1CmbkwhfyiMtuRVDPQAlBK1UtMZBhzpyRzuKScW19NpayyynYk1URaAEqpekvsFMVfrh5E6u4j/P7dTTqQjI/Tk8BKqQa5dGBHtuYW8fdVmZwR35obz+luO5JqJN0DUEo12K9+0oeL+sfy8LItfLE933Yc1UhNLgARcYnIOhFZ5jzvLiKrRSRTRN4UkVBnepjzPNOZn9DUdSul7AgKEp766Zn07hDJHYvXsfPgMduRVCM0xx7AL4D0Os+fAJ4yxvQCjgDTnenTgSPO9Kec5ZRSPqpVWDDzpiYTJHDzwhQKSytsR1IN1KQCEJHOwDhgnvNcgAuBt51FFgATnMfjnec480c5yyulfFSXti14btJQdh08xi/fWE+V3i7CpzR1D+BvwD1A7fBB7YCjxpjaO0dlA52cx52AvQDO/AJneaWUDzurZztmXz6AVRl5/PnDrbbjqAZodAGIyKVAnjEmtRnzICIzRSRFRFLy8/XkklK+YPLIbkwa0ZUXPtvBu+v22Y6j6qkpewDnAJeLyC7gDWoO/TwNRItI7eWlnYHa/xv2AV0AnPlRwPdGmzDGzDHGJBtjkmNiYpoQTynlSbMvG8CI7m25558b2bD3qO04qh4aXQDGmFnGmM7GmATgWmCVMWYS8ClwlbPYVOA95/FS5znO/FVGv0WilN8IDQ7iuUlD6BAZxsxFKRwoLLUdSZ2GO74H8FvgLhHJpOY6XOJzAAAJKklEQVQY/0vO9JeAds70u4B73bBupZRF7VrV3C6iqLSSmYtSKa3Q20V4M/Hmf4QnJyeblJQU2zGUUg30waZcbn01lYmDO/HkNYPQC/48S0RSjTHJp1tOvwmslGp2oxPjuOuiPixZt4+5X2TZjqNOQQtAKeUWP7+wF+OS4nn8Xxl8mpFnO446CS0ApZRbiAh/vnogZ8S15s7X15GeU2g7kjqBFoBSym1ahAYzd2oyYSFBjHn6C6547ivmfZHFvqPHbUdT6ElgpZQH5BQcZ8nafSzfmMMWZ09gcNdoxiXFMzYpno7REZYT+pf6ngTWAlBKedTOg8dYkZbznTIY0jWacQM7MjYpjvgoLYOm0gJQSnm92jJYtjHn23MEQ7u1YWxSvJZBE2gBKKV8SlZ+cc2eQVrud8qg9jBRXFS45YS+QwtAKeWzastg2cYcMnKLAEj+ds9Ay+B0tACUUn5hR34xKzbmsDztu2UwbmA8YxK1DE5GC0Ap5Xcy82r2DFY4ZSDilEFSPGOS4oltrWUAWgBKKT9XWwbLN+aw9UBNGQzr1paxSXEBXwZaAEqpgJGZV8TyjbmsSPtuGdQcJoqjQ4CVgRaAUiog1ZbB8rT9bDtQXFMGCW1rDhMFSBloASilAt72A0Usdw4Tbc/7XxlcOjCe0YlxdIj0zzLQAlBKqTq2HShiuXM1UaZTBsMTag4T+VsZaAEopdQpnKoMLh0YzyV+UAZaAEopVQ/bDhSxbGMOyzfuZ0f+MYIEhndvy7iBHRk9II6YyDDbERtMC0AppRrAGMO2A8XOOYP/lcGI7u0YOzDep8pAC0AppRrJGMPWA0Ws2JjDsrQcsuqUQe05g/atvLcMtACUUqoZ1JbB8o01VxNlHawpg5E92jE2yTvLQAtAKaWamTGGjNyib7+BXLcMxjmHidp5QRloASillBvVlkHt1UQ7nTI4q6ezZ2CxDLQAlFLKQ4wxpOc4ewZOGbiChJE92jIuqSOXDIj1aBloASillAXGGLbkFH57mGjXoRJcQcJZzmGiSwbE0bZlqFszaAEopZRltWWwfGPNLaxry+Bs5zCRu8pAC0AppbyIMYbN+wu/PUy0u04ZjHPKoE0zlYHbC0BEugALgVjAAHOMMU+LSFvgTSAB2AVcY4w5IiICPA2MBUqAacaYtT+0Di0ApZQ/qi2D5c7gNs1dBp4ogHgg3hizVkQigVRgAjANOGyM+aOI3Au0Mcb8VkTGAj+npgBGAE8bY0b80Dq0AJRS/q5uGSzfmMOewzVlMCYxjmevH9Ko96xvAQQ36t0BY0wOkOM8LhKRdKATMB4431lsAfBv4LfO9IWmpnG+FpFoEYl33kcppQKSiJDYKYrETlHcc0lfNu2rKQNXkPvX3egCqEtEEoDBwGogts4v9VxqDhFBTTnsrfOybGeaFoBSSlFTBkmdo0jqHOWR9TW5Y0SkFfBP4JfGmMK685x/7TfoGJOIzBSRFBFJyc/Pb2o8pZRSp9CkAhCREGp++b9mjFniTD7gnB+oPU+Q50zfB3Sp8/LOzrTvMMbMMcYkG2OSY2JimhJPKaXUD2h0AThX9bwEpBtj/lpn1lJgqvN4KvBenelTpMZIoECP/yullD1NOQdwDjAZSBOR9c60+4A/Am+JyHRgN3CNM28FNVcAZVJzGeiNTVi3UkqpJmrKVUBfAnKK2aNOsrwBbm/s+pRSSjUvD1xopJRSyhtpASilVIDSAlBKqQDl1TeDE5F8ak4kN1Z74GAzxWlOmqthNFfDaK6G8cdc3Ywxp72O3qsLoKlEJKU+98PwNM3VMJqrYTRXwwRyLj0EpJRSAUoLQCmlApS/F8Ac2wFOQXM1jOZqGM3VMAGby6/PASillDo1f98DUEopdQo+XwAiMlpEtopIpjMC2Ynzw0TkTWf+amfsAm/INU1E8kVkvfMzw0O55otInohsOsV8EZFnnNwbRaRxQxI1f67zRaSgzvZ6wEO5uojIpyKyRUQ2i8gvTrKMx7dZPXN5fJuJSLiIrBGRDU6uB0+yjMc/k/XMZeUz6azbJSLrRGTZSea5b3sZY3z2B3ABO4AeQCiwAeh/wjI/A15wHl8LvOkluaYBz1rYZucBQ4BNp5g/FvgXNfd5Ggms9pJc5wPLLGyveGCI8zgS2HaS/5Ye32b1zOXxbeZsg1bO4xBqBokaecIyNj6T9cll5TPprPsuYPHJ/nu5c3v5+h7AcCDTGJNljCkH3qBm6Mm6xlMzNCXA28Ao51bWtnNZYYz5HDj8A4t8O3SnMeZrILp2fAfLuawwxuQYY9Y6j4uA2qFP6/L4NqtnLo9ztkGx8zTE+TnxRKPHP5P1zGWFiHQGxgHzTrGI27aXrxfAqYaZPOkyxphKoABo5wW5AK50Dhm8LSJdTjLfhvpmt+EsZxf+XyIywNMrl+8OfVqX1W32A7nAwjZzDmesp2YwqJXGmFNuLw9+JuuTC+x8Jv8G3ANUn2K+27aXrxeAL3sfSDDGDARW8r+GVye3lpqvtw8C/g6868mVyw8MfWrTaXJZ2WbGmCpjzJnUjPo3XEQSPbHe06lHLo9/JkXkUiDPGJPq7nWdjK8XQH2Gmfx2GREJBqKAQ7ZzGWMOGWPKnKfzgKFuzlRf9Rq609OMMYW1u/DGmBVAiIi098S65eRDn9ZlZZudLpfNbeas8yjwKTD6hFk2PpOnzWXpM3kOcLmI7KLmUPGFIvLqCcu4bXv5egF8A/QWke4iEkrNCZKlJyxTd4jKq4BVxjmbYjPXCceIL6fmGK438MqhO0Ukrva4p4gMp+b/Xbf/0nDWebKhT+vy+DarTy4b20xEYkQk2nkcAVwEZJywmMc/k/XJZeMzaYyZZYzpbIxJoOb3xCpjzA0nLOa27dWUISGtM8ZUisgdwIfUXHkz3xizWUQeAlKMMUup+ZAsEpFMak4yXuslue4UkcuBSifXNHfnAhCR16m5OqS9iGQDs6k5IYYx5gUsDd1Zj1xXAbeJSCVwHLjWA0UOpx76tGudbDa2WX1y2dhm8cACEXFRUzhvGWOW2f5M1jOXlc/kyXhqe+k3gZVSKkD5+iEgpZRSjaQFoJRSAUoLQCmlApQWgFJKBSgtAKWUClBaAEopFaC0AJRSKkBpASilVID6fyTb/o6s4MYIAAAAAElFTkSuQmCC\n",
      "text/plain": [
       "<matplotlib.figure.Figure at 0x117531240>"
      ]
     },
     "metadata": {},
     "output_type": "display_data"
    }
   ],
   "source": [
    "plt.plot(history.history['loss'])"
   ]
  },
  {
   "cell_type": "code",
   "execution_count": 193,
   "metadata": {},
   "outputs": [],
   "source": [
    "# build a model to project inputs on the latent space\n",
    "encoder = Model(x, z_mean)"
   ]
  },
  {
   "cell_type": "code",
   "execution_count": 194,
   "metadata": {},
   "outputs": [
    {
     "data": {
      "text/plain": [
       "(100, 150, 3, 1)"
      ]
     },
     "execution_count": 194,
     "metadata": {},
     "output_type": "execute_result"
    }
   ],
   "source": [
    "x_test.shape"
   ]
  },
  {
   "cell_type": "code",
   "execution_count": 195,
   "metadata": {},
   "outputs": [
    {
     "data": {
      "text/plain": [
       "(100, 2)"
      ]
     },
     "execution_count": 195,
     "metadata": {},
     "output_type": "execute_result"
    }
   ],
   "source": [
    "x_test_encoded = encoder.predict(x_test, batch_size=batch_size)\n",
    "x_test_encoded.shape"
   ]
  },
  {
   "cell_type": "code",
   "execution_count": 196,
   "metadata": {},
   "outputs": [
    {
     "data": {
      "text/plain": [
       "numpy.float32"
      ]
     },
     "execution_count": 196,
     "metadata": {},
     "output_type": "execute_result"
    }
   ],
   "source": [
    "type(x_test_encoded[0,0])"
   ]
  },
  {
   "cell_type": "code",
   "execution_count": 197,
   "metadata": {},
   "outputs": [
    {
     "data": {
      "text/plain": [
       "<matplotlib.collections.PathCollection at 0x125284a58>"
      ]
     },
     "execution_count": 197,
     "metadata": {},
     "output_type": "execute_result"
    },
    {
     "data": {
      "image/png": "iVBORw0KGgoAAAANSUhEUgAAAX0AAAFpCAYAAABwPvjcAAAABHNCSVQICAgIfAhkiAAAAAlwSFlzAAALEgAACxIB0t1+/AAAADl0RVh0U29mdHdhcmUAbWF0cGxvdGxpYiB2ZXJzaW9uIDIuMS4yLCBodHRwOi8vbWF0cGxvdGxpYi5vcmcvNQv5yAAAIABJREFUeJzs3Xl4FdX5wPHvmblbVhKSEHYI+75IBAHFBXFpVbBCVdyX2moXq22tta2t2tparXZR+6ttrUvrVlREQVFUUBDZZd93AoGE7MndZub8/kgIJLlAAjfrfT/P4/OQubO8g+Sdc8+c8x6ltUYIIURsMJo7ACGEEE1Hkr4QQsQQSfpCCBFDJOkLIUQMkaQvhBAxRJK+EELEEEn6QggRQyTpCyFEDJGkL4QQMUSSvhBCxBBXcwdQW3p6uu7Zs2dzhyGEEK3KihUr8rXWGSfbr8Ul/Z49e7J8+fLmDkMIIVoVpdTu+uwn3TtCCBFDJOkLIUQMkaQvhBAxRJK+EELEEEn6QggRQyTpCyFEDJGkL4QQMUSSvhBCxBBJ+kIIEUMk6QshRAyRpC+EEDFEkr4QQsQQSfpCCBFDJOkLIUQMkaQvhBAxRJK+EELEEEn6QggRQyTpCyFEDJGkL4QQMUSSvhBCxBBJ+kIIEUMk6QshRAypV9JXSl2ilNqslNqmlLo/wucTlFIrlVKWUmpqrc9uUkptrfrvpmgFLoQQouFOmvSVUibwDHApMAi4Vik1qNZue4CbgVdqHdse+BUwBhgN/EoplXr6YQshhDgV9Wnpjwa2aa13aK1DwGvA5GN30Frv0lqvAZxax14MfKS1LtBaFwIfAZdEIW4hhBCnoD5Jvwuw95if91Vtq4/TOVYIIUSUtYgXuUqpO5RSy5VSy/Py8po7HCGEaLPqk/RzgG7H/Ny1alt91OtYrfVzWutsrXV2RkZGPU8thBCioeqT9JcBfZVSWUopD3ANMKue558LXKSUSq16gXtR1TYhhBDN4KRJX2ttAd+jMllvBN7QWq9XSj2slLoCQCl1plJqHzAN+LtSan3VsQXAI1Q+OJYBD1dtE0II0QyU1rq5Y6ghOztbL1++vLnDEEKIVkUptUJrnX2y/VrEi1whhBBNQ5K+EELEEEn6QggRQyTpCyFEDJGkL2JKcYmfopKK5g5DiGbjau4AhGgK+w4U8shTs9m68xAayOqWzoP3fJ2e3dKaOzQhmpS09EWbFwxZ3PWzV9m47SBhy8GyHLbtOsR3H3iVCn+oucMToklJ0hdt3udLthEMhjl2TorWEArbfLJoczNGJkTTk6Qv2ryDecUEw1ad7YFgmAMHi5shIiGajyR90eb179MRj7vu66s4n5uBfTs2Q0RCNB9J+qLNGzW0O1nd0/G4zeptbrdJl44pjB3VqxkjE6Lpyegd0eYppfjzw9/k5RlL+GD+erTWTJowkJumjcU0pd0jYosUXBNCiDZACq4JIYSoQ5K+EELEEEn6QggRQyTpCyFEDJGkL4QQMUSSvhBCxBBJ+kIIEUMk6QshRAyRpC+EEDFEkr4QQsQQSfpCCBFDJOkLIUQMkaQvhBAxRJK+EELEEEn6QggRQyTpCyFEDJGkL4QQMUSSvhBCxBBJ+kIIEUMk6QshRAyRpC+EEDFEkr4QQsQQSfpCCBFDJOkLIUQMkaQvhBAxRJK+EELEEEn6QggRQyTpCyFEDJGkL4QQMUSSvhBCxBBJ+kIIEUMk6QshRAyRpC+EEDFEkr4QQsQQSfpCCBFDJOkLIUQMqVfSV0pdopTarJTappS6P8LnXqXU61WfL1FK9aza7lZKvaiUWquU2qiU+ll0wxdCCNEQJ036SikTeAa4FBgEXKuUGlRrt9uAQq11H+Ap4LGq7dMAr9Z6KDAK+PaRB4IQQoimV5+W/mhgm9Z6h9Y6BLwGTK61z2Tgxao/zwAmKqUUoIEEpZQLiANCQElUIhdCCNFg9Un6XYC9x/y8r2pbxH201hZQDKRR+QAoBw4Ae4AntNYFpxmzEEKIU9TYL3JHAzbQGcgCfqSU6lV7J6XUHUqp5Uqp5Xl5eY0ckhBCxK76JP0coNsxP3et2hZxn6qunHbAYWA68IHWOqy1PgQsArJrX0Br/ZzWOltrnZ2RkdHwuxBCCFEv9Un6y4C+SqkspZQHuAaYVWufWcBNVX+eCnyitdZUdulcAKCUSgDOAjZFI3AhhBANd9KkX9VH/z1gLrAReENrvV4p9bBS6oqq3f4FpCmltgH3AkeGdT4DJCql1lP58Pi31npNtG9CCCFE/ajKBnnLkZ2drZcvX97cYQghRKuilFqhta7TfV6bzMgVQogYIklfCCFiiCR9IYSIIZL0hRAihkjSF0KIGCJJXwghYogkfSGEiCGS9IUQIoZI0hdCiBgiSV8IIWKIJH0hhIghkvSFECKGSNIXQogYIklfCCFiiCR9IYSIIa7mDkAIIU6F1ppN63JYuWQ7CYk+zp00mNS0xOYOq8WTpC+EaHUcR/OHX73N4gWbCAbCuN0unn/mY37x+2mMHt+3ucNr0aR7RwjRZPxWkLf2fsZPv/o7j296ja2l+07pPIsXbGLxgk0E/GG0hlDIIhgI8+gDMwgFrShH3bZIS18I0STKrQB3Ln+S/GAxQSeMgeLTg6v4Uf9vMrHjqAada96cNQT84TrblVKsXbWbToM68H9LlvDlnr10Skri22NGM65H92jdSqsmSV8I0STe3vc5ecEiQk5lS9xBE3TC/GnLm5zTYTgeo/7pSCl13M/yghV864WXqAiHsBzNjoJCVubs58GJ5zNt2NDTvo/WTrp3hBBNYmHe2uqEX5NmR9n+Bp1r0teH44tzR/zs0/IcykOVCf8Iv2Xx6PwFhGy7QddpiyTpCyGaRKI7LuJ2WzskuHwNOtdZE/ox4cLBeH1uTNPA63Pj9bn5xWPTWLovB1vrOsfYjmZvUfEpxd6WSPeOEKJJfKPrOWws3k3ACVVvM1B0iUunW3wHyksDvPnyIr74eAPxiT6mTD+Lcy4aErErRynFjx6czOSrR7Piy+0kJvk454JBJKfEk7F9GXuL6yZ3y3FIjYv84IklkvSFEE1iXPoQpnY7lzf2fopLuXBwSPe04zfDbidQEeJ71/6NwwdLCIUqu4B2bD7AprX7uOPHlx73nH36d6JP/041tn179Jn88L3Z+MNHu5I8psmErJ60j5ekr3SEr0HNKTs7Wy9fvry5wxBCNJKiUBkbS3aT6kmkf1J3lFK8+9oS/vnUXIKBmiNy3B6TF2bfS1qH5AZd49/LV/LkwkWYShGybcb36M5Tl3+dRI8nmrfSoiilVmits0+2n7T0hRBNKsWTyNj0wTW2LV+0tU7CB3C7XWxau4/xEwc16Bq3ZJ/BtcOHsrOwiPT4eDISE04r5rZEkr4QotlldGyHYSocu2bPg6M1qemnVlrB53YzsENGNMJrU2T0jhCiSWitCQbDROpSvuzq0bjdNdughqFon57EwGHdmirEmCAtfSFEo9Ja87/ZK3lhxmLKyoOkJMfx7esm8PULhlTv07NPJj/93VSe/NVMbMvGth2698rgwaemn3Ailmg4SfpCiEb1v9kree6VzwlU1cQpKKrgqX/Ow+sxufDsgdX7jbtgEGMm9Gf39kPEJ/jo2DW1uUJu06R7RwjRaLTWvDBjcXXCPyIQtPjna4vq7G+6THr17yQJvxFJ0hdCNJqwZVNaFoz42cH80iaORoB07wghGsGhijJe2LicZYdyKM9WuDc6uMtq9s1363Ty1vz+shLm7N6M5ThM6t6H3u3SGivkmCFJXwgRVXtKi7j8vRfxW2FCjo3RCXQGpC0x8B2uTPxej4s7b5hQfYzjaMKWjddzNCW9sWUNv/xyHlprNJo/rVrEnUPHcPfI8U1+T22JJH0hRFT9fsV8SsNBnKqhmQ6AC8pGQdKnBt07t+fOG87lrJFZhC2bp1//nJmfriEUtumamcJ9N02kR1Z7fvnlRwSPqYoZxuFva5cwqUdfBrXv0Dw3dxyhYBiX28QwWn6PuSR9IURULTqwqzrhH8uOh5kv3kU779GKmo8+/xEfL91CsKrezp7cQn781Eym3DoSAwOoWQo55Ni8t3NTi0n6q5ds5+mH3mH/7nzcHheXTD2TW39yKR5Py02tLf+xJIQ4bVprdHgtOvg52ilq1Gslur0Rt1uOw8wtG6ofCEWlfuYt2Vyd8I8Ihi0Wrd4Z+eSaiJO7msOOTQf41XdeZN/OPBxHEwyEef9/S3nqgRnNHdoJSdIXoo3Tdg46/xJ0wQ3oorvRh87GKft7o13vloHZxJlHW7peV5js7ju5bMhqloee4MdLH6A0XMyB/BLcLrNuvBrsfWGcyo6hGjymyWVZAxot9oZ44x/zqyuCHhEKWiz6aD2FLXhkkiR9IdowrTW64A6wd4OuAF0GhKDsWXRwYaNc85aBo7giaxCmMlA4nNN7K52SizEMjWFowq5dPL7pF3TKSCBs1V3JyjAUw7t35qExF+I1XXgME5cy8Jku7hgymsFpmfWKQ2sbK7iIsP89HPtgtG+TPdsOoZ263zrcHpODOYVRv160tNyOJyHauJy8Yh7/7ycsXb8bl2ly6diB3H31BOJ9p1b+t7QiwIK1OwhZNmcPzqJDSiJY28DeB3VazX50+Yso79mnfR+1mYbBY+MvZX9BGdsDq/CYFse+3zQMKLNK2G1t4KqJw3n7kzUEjmkxe90ubr58DD07t+ecLlm8vH4l2w8Xkp3ehesGj6hXDLa1nYr8a9G6rHKDDuNJ/Ba+5Puidp/9hnZl9/aDdYrEWWGbLj3So3adaJOkH0MsJ8z2srVYOkSvhCHEuU6teqE4fWUVQW5+5BVKygI4WhO2HN5duJ4te/J4/hfXNLjezIK127n/X3MwDIWjNY+98Snfv2I8150DKBMidYM7DW+NlpX48VeESM9MPmmMfVLTyCsM4jJrPnBcyibdlceukje4fsotZLYfzyvvr6C4PMDgXh354fTz6Nm5PVpr/vn5ct78aj2gWW7k8PdPl/LctVeS3b3Lca+rtabi8M1o5yDH3nio/HlMzyjcvokNvu9Ipt1+LgveX0Og4uhKYN44Nxd/I5uklPioXKMxSNKPEbvLN/HSzt+iq1p8trb5eudbGZ12UTNHFpveW7SeQDBcY5RL2LLZnpPP+h25DOnd6QRH11RaEeD+f80hEK7Zv/z0u18wduCVZJmRFgP3gq/+/+9Liyt4/IEZrFy8DcNQJKfEc8/D32DUuL7HPebGISP5dN6nWLaB21X5766dWcGAuAMABEKfMf/AErJGnMesix9CqZq9zfO37uStr9YTtI7cV+V93PX6LBbdewdus+77AADH2oB28qjzpNMVhMtfanDS11qzpuAAe8oKGZSaSe/kylZ8l57p/PG/3+Efj81mw1d7SEqO48qbxnPlzdH/9hRNkvRjQNgJ8uLO3xB0Kmpsn7P/eXok9CfT16OZIotdG3cdrNGlcawdOYcblPQXrN2BYdRtdVu2zXtLd/L9i34JJQ8DQSoToQ/Mjqj46fW+xi+/+xLbNuRghSuTd/7BEh6++7/85bW76NE78vDJrJRUHhp9E68c+A2mE8Q0NP3jcjHV0WRs6wD7yhfQtXw+XRMvqN6ek1PIL16cQ8BX9+/IcmxW7t3PmJ6RSy5rpwyI/EDQTkl9bxmAoqCfG+e/ws7SAhQKWztM6NiLv4y/Erdh0mtAJ37379sbdM7mJi9yY8CW0lVE+n5vaYsVBZ80fUCCft0zasw+PVbPzu0bdK6w7RBpFKOjNSHLxoifimr/MvguB89YSLoXlfY2yqhf996ubQfZuTm3OuFXXzdsM/M/X5zw2HO79+GxkU8xIOkM2pmRa/DY2s/Okveqfw6FLH5wz38oKw9E3F8pheXUHdlzhOkZTt13GAA+XHFXnDDe2u5fOpstxXlUWGHKrRAB2+Kz3B08t/HLBp2nJZGWfgwIOX50hKSvcQjYFRGOEKdrb24hL89ayvqtB+jRpT03XjGGAb2Ojjq5/OwhPP/uUkJhu3rcudtl0qNjKkMb0MoHGD+oJ7+PkAS9bhcXjqjsflGe4SjP8FO6l7wDRZiuuu1Dx3bYv+fwSY9P8aTy3X4/4WDFMhYe+AmWLj/h/ou/3EYgECbukEMwxUCbNb/FOFqfsE9fKR++dr8jUHQfEAZsNAYWYYrK3yPdNYB439gax9hOiJWHn2dT8XvYOkjX+NEMb/8d5h/YRrjW323AtvjvtpV8d3DrLAchLf0Y0DtxOI6u26/rMXwMajemGSJq23bszefmn73M7AXr2bHvMPOXbuXOh15jyZpd1fskJ/h44ZfXcubAbhhK4XGZXDymP3+7b1qDX+J2SEnkB5PPxut2YRoKpcDncfG1Mwcyonfn076fXgM6EQ5F+PfjcTE0u2e9z5MeNyLivZkqjqzky6p/PpRXQjhsE5fn4C10ULauGryvcaF4fMqleF0nbq964qeQkPEuynsJfq0odizy7SD+0GL25V9PacUHNfafd+DnrCv6H0GnGEsH2F2+kPdzvoPXCEU8f8Cuu55vayEt/RiQ7G7PeR2msuDQW1g6hEbjMXz0TBhEv6Qzmju8Nuev/12APxCu/m6lNQRCFn/41zxm/Om26sTXLTOVZ34ytbqlfzorRF13wRmMGdCdOUs3ErRsLhzRlxG9O0dl1an26UlcfOUZfPTOqurFy03TIC7Ry+XXnFXv85jKzbiOv2fhgR8DGluHMZWHLgnn0iXhvOr9BvbvjMtlYFk27TdYhFIUgVQDDwb3f/M8Luzfu37Xc/en0D6E36mZoLX2c6jolyTGXYxSisLgTvZXrMLWRxO8xsHWQc7rfJj39tScF2AqxQWd+9T7vlsaSfox4vzMafRKHMqKgo8JOQGGpIxjUPJoDCVf9qJtzeb9EUdIHjpcSrk/RGJ8zTIF0VoOsE/ndH4w5ZyonAsgYBXwVf6jHCifT5dr4ZZLB/Hxn/tzeJ9J9rl96X1NN94qWEavUAfGZ/THZUR+eXqsjvFjuLznu+wp+4iwXUZm/GjSfINr7DN4cBcGDOjExo37CQYtvEWapAro2jWFy84f1rB7CK2OuN2yD6J1OUolUhDcjqFMag23x9ZBJnQy+WS/G8txCDk2PtNFotvLj4ed36A4WhJJ+jGkR8IAeiS0jCnsbVm7RB8VgbrdAoah8LXgQlzHcrTFgpybqLAOoKuGSuqU9Vz6cC7ZHV/hW0ueZ9aetQTsMD7TTZo3iWezr6As8C5+ax/t48aSmXAZphFX59xeM4W+7aYd99pKKX7/228y482lvP/BWmzbYeLEQUy/Ziym2bBGistIJ2zviXAND0pVxtbO0w2t674TMfDQM2kwH35tGq9sW8n2ksOMSu/KtF7DSfb46uzfWrSOf4FCtCLTL8/mmVc+q7FEoNft4mvnDsIVodZMS5Rb8TlBu6A64VdyCDvl/HvrUxwKVA5fBKiwQ3RhC2sOXolLgSZMvv8Tdhf/g+xOM3CbyTXObVs2ylAnLEPs8biYfu04pl877pTvobykgs9f7sfIKfvwxh9N6krFkZp4M0pV/r9I8/Yj1duLw4GtOBztCjKVi4Epk4l3JfOjYeedchwtTb0em0qpS5RSm5VS25RS90f43KuUer3q8yVKqZ7HfDZMKbVYKbVeKbVWKdV6H5FC1MNVk0bwjQtH4HGbJMR58LhNzh7Vmx/e2Hq6BMpCu7F13SGWtq4gL7ClOuFX0kzt9CWmCqOrkqaj/QSs/ewufq56r9XLdnDbFU/y9cH3M6XffTz5o1fwl0cexhkNj0z7I6//OsSHT3clWG4QKDMIBwzs0otJb3c0jSmluLTLH8lKOhcDFwqDdO8ALuv+DPGulltO4VSpk5UpVZWPwy3AJGAfsAy4Vmu94Zh97gKGaa2/o5S6BrhSa321UsoFrARu0FqvVkqlAUVaRxhKUiU7O1svX778tG9MiOZWWh5gb24RHdOSaJ+S0NzhNMiB8s9YevBn2LrmkF5TxTPzQH/Wl3as3pbmLuPurHl4jLq/1nGu7pzV5UOe+utc3pmzuvKttgIjYJGwv5iBw7vx+P9+EPX4D+3J45YBdxOqevHs8jqkdAxSdtjNqEnj+PWbP8FybMLaJs48WuvI0RaOtnEZkctDt2RKqRVa6+yT7Vef7p3RwDat9Y6qE78GTAY2HLPPZODXVX+eATytKt9OXQSs0VqvBtBan3xQrxBtRFKCj0G9O558x2YQDlm8+eyHfPDyQsJBi7MvP4Pr77ucpNTKh1PH+PHEuTpQHs6pbr0rTDxmO9LjzsEs3YZd9bo6pE1UxFfXYKg4Pvp0A7M/XAuGAhQoTdwlJaScWcgh92F+t/Ixbh54I53iGjY/4UTy9xfi8riqk74VNMjfXdmHvz/nEI+uf42PD67GwaFHfAd+MnAqg9v1wFAuDNW2e73r073TBdh7zM/7qrZF3EdrbQHFQBrQD9BKqblKqZVKqeiVuBNCnLKHb/obr/5xNrm78zmcW8TsFxbwg4seJeivfAGtlMm5Xf5Nt8SLMZUPQ3npknAh53d5mfsGXUW6L5n4qhayrduRH06jdjoxVBxdk67jjbeXY1WVIHbcmvg7DpB+Xj7uZBsjTrPF2sQjGx7hcPBom3B3QRFf7tpLQYX/lO6vx6CuWBHKXLg8JoX3JPDxwdWEtYWtHXaU53LPqufIqcg/pWu1No39SHMBZwNnAhXAx1VfQT4+diel1B3AHQDdu3dv5JCEiG3b1uxhzcLNBP1HX1paYZvCQyV89s5yJl1T+fLUa6aQnfkI2TxS43ifC96c8CMWHNzArvI8eiV2YEz721hz6BbCdgGg0dh0iL+YzknTKCv7R/WxReeEyepYgmkc881AQcAJ8kHuB1yROZW7Zsxi9f5c3KZB0LK5btRw7p84oUFDWxOS47n6p1P43xOzCFS9NzBMA3ffRAozgoR1zQeC5VjM2LuQu/tPqfc1Wqv6JP0c4NjKRl2rtkXaZ19VP3474DCV3wo+01rnAyil5gBnADWSvtb6OeA5qOzTb/htCCFO5quCPTy58QM2FOSgH0omYWYZ8V8crW8TKA+y7stt1Un/WEFrH0X+j1GYpMZfjMfMYFKnmmPmx3b5kKLAUoL2IZK9w4h39wTgrNG9mDVnNWHDxuwewtEKs1Z3kMZhe/l27n9vLqtyDhCybQJVefm1VWvok57GtBFDGnS/Nzw4jW79u/DGE+9QfKiEMyYNY8iPz+DPB2cTsmslfe2wszy3QedvreqT9JcBfZVSWVQm92uA2uX5ZgE3AYuBqcAnWmutlJoL3KeUigdCwLnAU9EKXghRP2sL9/HtJS9Ulg9QQAeT4puScBIViR9WdqF4fG669KpZMdPvD3E48Dy5pVW/tspgT9Ej9Ez9PemJV9bYVymD1Li6M3RvvGYcCxZuocD2Ewi5MVTddp2jIcOTyevbdxK2a46Z94ct/r10RYOTvlKK868Zz/nXHK2Rk+svJJz7Tp193crFoOTYqDZ70j79qj767wFzgY3AG1rr9Uqph5VSR0rW/QtIU0ptA+4F7q86thB4ksoHx1fASq317OjfhhDiRP66eV7dejFeg7IpieiqqQOmy+SiqnHxu3bmcdedL3D7t3/BnsOPowlW/qf9aB1kV8H9hO369YG3T03gxf+7lZuvGIsOeSksj8d2anbVGJiMS7nguDPEi/2RK242VMe4VCZkDMVruKu3KRQ+081V3VpnAbWGqlefvtZ6DjCn1rYHj/lzAIg4xU5r/R/gP6cRoxDiNG0pOVBnm6kckpIDuH7hITknjp9+81ZSMpIpLq7g7rtfpqwsyIVTtmEYdWerKmVQ6P+QDon1q8mfnBTHLdPH02NfJt/7/C26p++nQ3IJSmlClofv9rmDYWl9aOfzcqisZteLoRTjs6LXCn9g0NW8sjuTt/ctosIOkt2+H3f2+Tpp3uSTH9wGtO2xSUIIALrGt6cwdHTMvce06JBQhgLUCEXoDJsnQi/xVPA+Pp27hXC4csy9YWhUhO4YjYaq6TaWY7O5NAe34aJvYqcTvnC9oGsfZlx8E//auIzdhYfJ7tCZ24aOIyOucqjoI1+7kLvfmk3ItnG0xmMaxHs83H3uqc/Mrc1lmNyYNZEbs6KzbGJrc9LJWU1NJmcJEX1f5G3jnmWvEKiqONkxsQRPrbVrDRTnZJwB73Xg/TmVhco698jjOw/MwuOt2fpWeBnWeT4riop5aO1r2NpBo2nnjuexETfTJ+nUx9xvPJjH80tWsKugkDE9unHTmSPJSEwgp6SEdQcP0ikpiaGZmVErVNdW1HdyliR9IWLEh/vX8fiG9ykIltIpqZBIOTPBjOOGguk8++w8AlUTmy6Z9iXjLlyHy+VgGAbKcNO13X3gvpLpX/yRYK3Sxe3c8cyc8HM8RnQ6EhyteeCjj5i1cSNu08TRmh4pKbx41VWkxbfcBcibWjRn5AohWolAcDElpf/EdvKJj7uU7XkX8MrCrRwureCCIb2ZefbdhIwQty79BVaEaihe08MFEwfx8ssLCYdtbNvhg/+dxYYV/ZlwUR4XXTSC9gmXEefuzfPbP8KJUJ0y7Ngszt/EuR0aNtrmeP67ejXvbdpE0LYJ2pUxbz18mHvmzOGlqVOjco1YIklfiJPQWvN5zi7e274Zj2lyVb/BjOxw+itSRVtJ6fMUlvwGrSuHYFYEviJQ/hc+X38jFWEv6/bkMuPLtbz6w+mMbj+EpQXraiR+j+Hm0k5nExfn4dm/3cw//zGfRYu24HKbjBtzFtMnn43Xe3TUy+FQKeEIDw5bOxSFTrwkYkO8tGoVfqv2ZCqHZTk5FPn9pMTVLd8sjk+SfhtUHKrg7b3LWFe8j96JHbiq+2g6+No1d1itktaaez6dzYe7tlFhhTFQvLllHXcOH8MPRkXv5eLpcpwyCkseoXIgXSXTCJGW6HDRsNXMXDGaQNhif0EJb365lu+Pm86D655hT0UupjKwtM2o1EFM7ToJgPbtE7nvp5cd73IAjE7rx9wDq/DbNdcO0GhGpPaK2r2VhyMvTaiUosKySInalWKDJP025oC/iOu/eAa/FSLoWCzM28wruxbzjzEgCu1pAAAgAElEQVS3M6Bdy2udtnRLDuyrTvgADhq/ZfHMV1/yjX6D6ZrUMh6mwdBqwA3UHM/udVuc1XsrM1eMBiAQtvh47TZuOPcM/jjix2wv38dBfz5ZiV3oHNeh7olPYHz6QPokdmJL6f7qfn2f6WFS5nB6JGRE47YAmNirF2+sW4dVa4HytLg4OiUmRu06sULWymtj/rTpfUpCfoJO5dfhsGNTYQd5ZN3bzRxZ6/TR7q34rbotTUMpFuzd2QwRRWYaKUDdrhZHQ1FFzbLO7RMrX34qpeiT2I3xGSMbnPChcujjX7Lv4Lt9v8bgdt05I7UXPxs0lZ8OuuqU7uF47h47lvZxcfiqFkN3GQZxLhePXXyxjOA5BdLSb2MW523FiVDmdmvpAfx2qEbtcHFUIBhm3oKNrFq7h84dU7j84uF0SE8i3uWu6v6o2cpUKOJc7uOc7agt+/N5ecEK9uQVkd27K9MnjCQtKfojTtzuQZhmFyxrO3A01pDl4r2vzqj+2edxMf2cESc9X0F5BTNWrmd73mGGd+nIFSMGkeit+2/HY7i4qvs4rureeF1d6QkJzL3pJt5Yt44v9+6lR0oKN4wYQc/U1Ea7ZlsmQzbbmEkfP0pBhJdobmXy+UUP4o7SMLq2pLQswLfufYmCwgoCwTBut4lpGjzx66kkdI7n62++SKBWga44l4sl199Fsuf4i20s3LiLe//9LiGraqKRyyTe6+Y3ky8k0e1h8MDONV6Mni7L2svB/Ouw7BzAROswbyy5kDeXDccwFGHb4e6vjeeGc8844Xk2H8zn+n+9Tsi2CVo2cW4XiV4vM749ncxk6U5pqWScfoz625aPeHnnwuruHahM+OdnDuJ3I69pxsharmee/5S33ltF2DraPeIYkJmexIx/fJvXN6/lV4s+xmUoFApHa/7voslM6Jp13HNqrZn00D85VFxW6wOIK4P0AnAczU/uuZQLzh0YtXvRWhMOb8B2CvF6RqBUAhv2HaK4IsCwHh1J9J18Rahpz73C2pyDNbaZhuJrQ/rz+FWXRi1WEV0yTj9G3d7nfDaXHGDp4e24lImDQ6/ETB4YMhmAOfvW8eymz8gLlDI4pTM/GnIhg1Oit2JRazR/0ZbqhG+7oSLdxPFAKX6uf+JVnrjtMr687jt8vm8XHtNkQteexLtP3E12sLiM4ooIRcIUBHya8orK9wSPPTmH3r060KNbWlTuRSmFxzO4xrbB3TLrfbw/FGbDgUN1ttuO5tPNO047PtH8JOm3MW7DxZ+yb2Rn2SG2lubSLT6NAcmdUUrx0rYl/GnDx/irqi0uztvBDZ/9m1fOvZUB7Vrmsn5Nweut/DXQBpR1NCuHN1S9INyw7xA3/el15vzqNq7oU/8WeYLXg+PUnbgEoJyj364ty2HOB2u481stY9F0s+rbDBHeC3lcZtMHJKJORu+0UVmJHbio0zAGtuuCUoqQY/PXjZ9WJ/wjAnaYv2z4tJmibBmmXDoCn9dFKEFV1po/ZkSIozVl/iALNzRspE5SnJfxA3viNmv9ijkaX8HRh4FtOxQWR28i0+nyuFyc1y8LV624vS6TqSOjM8NWNC9J+jEiz1+KHWHKvAbWFe1v+oBakCu/NpKxZ/ZGec2qxbtrsmyH/QUlDT7vb6ZfzLAenfC5XSR43eBovEUO3qKj/x/ifG7Gje5zWvFH2yNXTCIrLZV4j5s4txuf28UZ3Tvz3fPqLpAiWh/p3okRqd54nOO8tO8a3zLnNGqtG30cdkloH7n+5dxyZzK9vhzD03OWE7Jrjnc3DIPB3evfL35EcpyPf3//m+w8VMDBwlIWz9/C3PfXEqgaT+/zuujdqwNnj+8XlXuJltSEOGbddQMr9uSwp6CY/pnpDO7c8PsXLZMk/RgR7/LwjR4jeHv3VwSOGdnjM93cNeDcZoysrs/W7ODJ1+ezN6+YlMQ4brn0TK678IyoPgC01izL+zNbSmZSWVTYwN3LYFDfC1m/1Vu9ZJ/X7WJw90yG9Tz1l91ZHdqT1aE9Y/p1Z9wZvZg1+ysq/CEuPH8QF00cUqcrpSVQSpHdoyvZPbo2dygiyiTpx5CfDbsEt2Hyxq6VONohye3jp0Mv5uzMmt0L/lCYj9dvI7+0gpE9OjOse8cmm/m4ZMNu7n9uNsFQ5YOpqMzP3975gmDI4ravj4nadfaWL2RLySxsfUzdGA2XXDyfwZk/Zu6qrbgMkylnDebWSWdG5f6VUow5szdjzux92ucS4lTJOP0YFHJsysNB2nniMGols80H8rj57//DchzClo3LMBjdpxt/ueGKJmmR3vS7V1m3M7fO9gSfh4+f/A7u0xxBorVmbu67bC56hhRXaZ3P3SqeiV3+SGbc8NO6jhBNrb7j9Fve90rR6DyGSao3vk7C11pz90vvUuIPUhEME7Yd/GGLJdv2MmPp2iaJbc+hoojbw7ZNSaRx7w007+D7zMmdhcaKvINSODpyVcfWxrZscnfnUVHqb+5QRAsi3Tui2q78QvJL6w4fDIQtZixdxzVjG7/1m9UxldXb6y7i7TZN2iWcWt10x9Es2rabVbtz2JL6NpYKkh9OItkMYNZa/1Vrhw6+oad0ndNh2w4fvLCA9/75CaFgmHOvGs3UH1xKfNKp3fPclz7juftfIRwM49iaCd8Yzd3P3Io3TmovxTpJ+qKa7WgirqEHEVdIagx3TRnPD/4yk2D4mJfNHhe3fX30KXUvBcMWt/5rBptz8/GHQ5x9ZQAF5IcTyXCVkuSqTPyOBrfhZXzmLzCNk5cqiLY/3P5/LJ69imBF5TuG/z05h4Uzl/P0wofwNLA+z4p5a3nmnherzwXw+dtLcRyH+1+4K6pxi9ZHundEtd4d2pMcVzfh+dwuJo8a1CQxZPfvxh/vuoLendMwDUVGSiL3TJvAjRedtKsyope+WMWGA3lUhMJorQhWHEmgio3+TmzxZ3IgmEyJ04PJPf5Lz6Smnxm7e2MOX7y3skaSDgXDHNyTz8KZyxp8vlcfe6fGuQBCgTALZy6jtLDlTAQ7ojwUYs62LczaspFCv3RFNTZp6YtqSimeuu4ybv/nmzhaEwhbxHvcDOicwbVN0LVzxNjBPRg7+MaonOudlRtqfGvYsbYL/bN3Y7o0oCiyEii3U7mz+w9JcjfPIjMbl27DUHXbX4HyIF/N38gFVzesbPGhPYcjbne5XRTllZCUmhDx8+awYPdO7przbvUXTMtxePjciXxzcNN3scUKSfqihuE9OvHR/bcxe/Vm8orLGJXVhfH9emJEmKl6PKWhIM+vW8HsnZuJd7u5adAZTOk9sFkWvKj9sjo/pz22bdJr8AFSUx06x3dhSudpDEgefJwznBqt/eCUgJGOUicecZTWKQVl1v27cXtddOje8EJsg8f1Iy+nAMeu1SWnILNHeoPP11hKggHunDOrzvq3v/rsE87s0pWsFKmX3xgk6Ys6UhLiuG7cyRfaiCRghZn8zn/YV1ZMsGpm66aCD1mem8Nvz54UzTDr5RvZg/nLR18QOKa1X5jbjsNWT16656aoP4i0DmIVP4TjfxtQoOIwk3+OK/4bxz3mjAuGEJ8UR6A8iD6mGJtpmlx844QGx3D9z69k8eyVBMuDOFXn88Z7uPlX0xr8fqAxfbRje8S/f8txmLl5I/eMaTlrELcl0qcvomrm9o3sLy+tTvgAfivM/7auZV9pcZPHM/2sEYzo3ok4jxuXoYj3uGkX5+NP0y9rlG8eVvEvcfwzgSAQAF2IXfxLnOBnxz3GdJn8ce4DZA3phsfnxhfvIa1zKo+8eS8ZXdo3OIYufTry9KKHOfvK0aR1TqXfqF7c/+87mfLdi079xhqB3wpHLA1iOw7+cCjCESIapKUvouqzfTsjrinrUgYrDu1v8oXEPS6Tf916FSt25fDVngN0SE5g0uC+xHmi3+LVTimO/10qE/6x/FilT+PxHr/V3imrA3/74hEO7T1M0B+ia9/TmwXdtW8nfv6f753y8U3h3O5Z/EbPr7Pd53JzYVbLKkLXlkjSF1HVOSEZV4Q1ZVGKjLjmeYGolCI7qyvZWY1cR8Y5DMqMVIoebe+r1yk6RGkxldagW7t2fGfUaJ5buYygXbmkZLzLzaV9+nJm5y7NHV6bJUlfRNX1A0fwn01fYVlHk76hFCleH2d16taMkTUBszOVBflrMzA8I5s6mlbhh2PGcW6PLN7atJ6QbXN53wGM79a9WV76xwpJ+iKqerZL5dmJk7l3/hxCjoXtaLLapfLcpCl1RtK0NUp5MBPvxS57AvSR8eYKlA8z8YfNGltLNrJjJ0Z2jO0lO5uSJH0RdRd068WK6+5iS2E+CW4P3ZNbXr1+R9sojKi3KF2Jt6DMTOyyZ9HOQQz3SMykH2G4+0b1OkKcKkn6bVBBsJyQbZMZl9RsX5NNw2BgWoeonMsKbyFQ/k9sazdu71h8CTdhGKc2hnt76TI+yv07heEDeI14xqRdxbj0b6IiTI46VWbc1zDjvha18wkRTZL025DcihJ+uPRN1hYewEDRIS6Jx8+czBlprbcvPRSYT2nht0CHABsrtJxA+YukZLyPYR5/Mfe1X+3h1RcXkru/iKEjunPtzWcTSt7LW/sexdKVo2uCTjlf5L9OyPFzfuYtTXRHQjQvqaffRjhac+HcpzlQUYx9zP/TeJeHuRfdRWZcUjNGd2q01hQePBPt1K6vb+KNv5bElN9HPO7TD9fx5O/eIxioHDpqmgqfz8PlzxzkoL2xzv4u5eWH/V/D3QyF1oSIFqmnH2O+zNtFYbCiRsIHsByb/+1a1UxRnR7H3o92ItXXtwkF5kU8xrYdnn1qbnXCr9ym8ftD5JbtiniMQlFuRa7jL0RbI0m/jThQUUykb20hx2ZPWUEzRHT6lJEARC7pbBjJEbcfzisl4K87m9NxNKV7jl+bPtHV8JmvQrRG0qffRgxr3xknwqygONPN6IyeTR9QFBhGCm7veIKBzzHU0do5mji8CbdHPCYxyVddb6a2ii+H0H7Akuo+fQC38nJW+lRcRvPXpFmzaAtvPD2XvJxCho7rx9XfvyhiGYaAHeDNfe+wKH8xjtaMbj+Kb3b/BomuxGaIWrQ20tJvI/omd2BCZh985tHnuFuZZPgSuaxbdCtINqW5e+5g0+EM/GEXpSEPQdvk3a2DKLEvj7h/fIKXs88fiMdTsz3j9bm5ctLlXN39YTr6+mDgItGVxvmZtzE+/drTjlNrTUlZgLBln3znCD56/UsevP5ZVny6kT1bcvngP4u464JHObi3ZplkrTWPbnyceQc/pdQqo9wu57P8Rfx63aNYznGWgBTiGNLSb0P+NOYqXt6+lNd2rCRgh7mky0DuGngOPrP5W7GnImhZ/PbT1ZSHptMrJZ/M+FK2FGZQHExmX2g5v5wUecGTe352GaGQxdIvtuJ2m9i25rqbz+G8Cysffrf0+ktU41y8aieP/2Me+UVlGEpxyYRB3HPLBXg99fv1ssI2f//l/wge0y1lWzYVZQFeeXIO9zx1Q/X2DSWbOODPxdJHE7ytbYrDxawoXMWYtDOjd2OiTZKk34a4DINb+p7FLX3Pau5QomL74QKOlDXYUZTOjqIjteAdFu7cfdzjfD43v/rdNAoLyijIL6Nzt/bENdLasBu35/LAH2cRDB1NwnM/30BZRZDf3BP520htuXvysa267y4c22H1ws01tu2p2EtY123RB5wgO8t310n6uXsLmPf2ckqKKhh93kDOOLsvhiFf8GOZJH3RYqXFxxO2I3eXZCadvP86tX0iqe0bt5/75ZlLCYVrJuFgyGbh8u0UFJXTPuXkReaSUxOwj9MtlNqhZlXSDG8GbuXG1jX39xpeOvpqTob7/IM1PPGT17Eth5Bh89bSlQx4swt/euI2XG751Y9V8sgXLVZmUiJnduuCu1bLNM7t4ltjTm3N3Gjbs7+ASFNd3C6T3PzSep0juX0i2RcMwl37PUSch2nfq7nwzIiUoSS44jGOKeymULgNF2elja7eFvCHePKnbxAKhMkb5WLbT1LYeaWXOSMOc96Mv7G/vKQBdynaEkn6okX7y5SvM7p7V7ymSaLHQ7zbzU/OO4dzevVs7tAAGNKvM2aEpSTDlk33zvUvFfHjp29m5IQBuL0u4hN9eOM83HDf1xl3ac0VzFyGiwcH3c+g5AGYysBUBn0Se/OrwQ/gM33V+21YsQvDUJT3dJE3MQ7tVjg+A+1R7LfKuPXTN079pkWrJt/xRIuW7PPxwjVXkVtaxuHycnqnpeFrQV0T108ezbxFm/EHQtUDZn1eF1ddMpLE+PrP8I1P9PHQf+6i4GAxBYdK6No7E1985PcQ7b3t+enAHxFyQjha4zPrXsflNtEaCs/yomu9x9cG7CkrYktRHv1SMuodo2gbWs5vjxAn0DEpkY716Mdval07pvCPR6fzzH8WsGZTDu2S4ph++ZlMmTTslM7XPrMd7TPrt7qYxzj+y+nBo3ri9phYCQZEKLrnMgwKg/4IR4q2TpK+EKcpq2saT9x//IXPm4PpMvn132/h9v97gQMdNdpdM/FbjsPQtOMXrBNtl/TpC9FGDRzZg3cev5d0bzzuY37V40w39488j3hX4wxjFS2btPRFm/PVqt3MfncV5eVBzr9gEOdPHITLZZ70OK01Kz/dwIK3lmK6TCZePZYhY1v34ifpyUl8PPVO/rtlJfNytpHhS+Dm/tmMyeze3KGJZlKv0spKqUuAPwMm8E+t9e9rfe4FXgJGAYeBq7XWu475vDuwAfi11vqJE11LSiuL0/Hyiwt57ZXF1VU2fT43/Qd04g9/nI7pOv4XW601T37v33w+cwWBiiBKKTxxbqZ8eyK3PHhVU4UvxCmLWmllpZQJPANcCgwCrlVKDaq1221Aoda6D/AU8Fitz58E3q9P4EKcqsOHy3j1P4tqlFUOBMJs3nSARbVmtta2cel2Ppu5nEBFZTE2rTXBihBv/20e+3ccbNS4hWhK9enTHw1s01rv0FqHgNeAybX2mQy8WPXnGcBEVbVOn1JqCrATWB+dkEVLo7VmT8kbzN97KR/uOoulud+mJLSlyeNYvWo3plm3GycQCLNo4YnjWTJ3dY3aN0doDcvmrYtajEI0t/r06XcB9h7z8z5gzPH20VpbSqliIE0pFQB+CkwCfnz64YqWaEvhX9lV8jK2rhwCmO9fxOL9qxjf5Q0S3T2bLI74BG+k0YkYhiI5+fi19AF8CT5cLhMrXLO8gWka+Bow3r4+Skv8vPqvz/j84/V4vW4um3Yml08bjWnKuArR+Br7X9mvgae01mUn2kkpdYdSarlSanleXl4jhySiyXLK2VnyYnXCP8LRQbYV/b1JYxmVnYUToYaNth0mXTz0hMeeP3U0RoSkq7Vm3GUjoxZjwB/i+zc8xzuvL+HQgWL27srn+b/O4/c/nxG1axyRFyxiUf5qNpXsirjAjohN9Wnp5wDHrqzdtWpbpH32KaVcQDsqX+iOAaYqpf4ApACOUiqgtX762IO11s8Bz0Hli9xTuRHRPCrCezFw4xCssV1jUxxY2+jXDzthDgbyaedOgjJwVm+D3l3hSL0epXDlHGTXki3069/puOfp2CODu/90I3/+4UuYVSN9tKP5+QvfIakeRdPqa/7ctRQeLq3xjSIYCPPlZ5vZszOP7lmnP0NWa83ftr/JBwcW4zZcOFqT7m3H74Z9l3RvymmfX7Ru9Un6y4C+SqksKpP7NcD0WvvMAm4CFgNTgU90ZdPinCM7KKV+DZTVTviidfO5MnF0hL5wwDTSGvXaHxz4lFf3zATA0jZZge54XBbh5RshOaEy8ZeUYzsOC99awkU3nnvC8028eixjLhnOyk83YLoMRp0/GF9CdLt21qzYRcAfrrPdMAw2r8+JStL/5NByPsxdQlhbhO3KCqD7/fn8dsPzPDXy3tM+v2jdTtq9o7W2gO8Bc4GNwBta6/VKqYeVUldU7fYvKvvwtwH3Avc3VsCiZfGYqXRMuAhFzYk+WsOW8r3sLlvWKNddXrCaV/a8TcAJEnCCWNpih2c35g9MFKBKylFFpSjHQSlFUlpSvc6b2C6eCVOyGX/ZGVFP+AAdu6bidtd92awUZHSIvO5vQ72Ts4CgU/NB7OCwvTyHvKAsAB/r6tWnr7Weo7Xup7XurbX+bdW2B7XWs6r+HNBaT9Na99Faj9Za74hwjpOO0W8LLNth445ctu7Oi5l+1KEZDxMmA0dXJvuwNjhktaPCgc8ORneVqiNm5nxQJ7HZysY11oVKrPk21xPn5rJvXdgocTTUpVNG1ZkvYJgGKakJDMvuGZVrVNiBiNtNDPzH+UzEDpmRG0VL1+3ml0/PJmzZaA3JiT4ev3cy/Xp0OPnBrZipPOwPGVg6AwONU9nWBqAkfADLCeE6QXGwU1EQKo643eNxk9KnHcHtQVBghSxu/c21DDyrZcyszchsx2//egN/ePAtCg+XoR1N30GdeeB306K2otW4tGG8nTMfq/ZCK6aHLnFt+9+iODlJ+lGSV1jGfU++Q+CYZfP8wTDfe3QGs/76LXye1rlObX35zGTKrGBVwj/KVB5MFf1/ZgOT+7Aofxmamt+mXKaLf37xJJu/3EZ5cQVDxvcnKbVlVeccMrIHL876IYdyi/F6XaREeXWvad0m8lneKorCpQSdMCYGLsPk3n7TMZUMC411kvSj5P2FG3Ccut05lm2zcOUOLjyrfzNEdXoc7bCjbA/rcg/wzhd72XmomL4d0vj+xHEM61qzQuPI9lezOO8fWProKB6X8jI0dTKqERLNtG6Xs6JwDUE7iFOV+D2Gh+t7XIXX7WbYOQOjfs1oUkqR2alxRtIkuRN4dtRP+TD3S1YVbSbTm8blXc6hW3xmo1xPtC6S9KMkv7CcUIQx4patKSptfXXL91Ts57cbnqE4VEYgbEOWxl/WgYXbyli+O4e/33Alo7O6Vu8/LPVKyq0C1hS+iVImjrbo1+5Cxmbc3ijxdfRl8Niwn/PmvjlsLNlKmjeVKV0uYUTK4Ea5XmsT7/Ixpet5TOl6XnOHIlqYehVca0qtteDawlU7+OXTs/EHaw7H83pcPP/QdHp3S2+myBrO1jbfWv4AxeGaa7w6tmLHou6Eyj0M7JTBW3ddX+fYkOOnJHSAgnARW0s34TG8nJF6NmleaWUK0ZjqW3BNWvpRMnZ4T/r16MDmXQer+/V9XhfnZfdtVQkfYE3RJkJO3bHkSmlSuhVzaFMGWw7mRzzWrXx8dOh91hQvIewEMTH55NBMrur6LbLbT2js0IUQJyFJP0pMw+CvP7uKWfPX8f7CDbhdJlMuGMZFYwc0d2gNVmZVRBxuqgxweysfaKnxkWvZbC5dzdqqhA9gY2Nrmzf3/YPB7UYRZ0ZvdqsQouEk6UeRx+1i6qQRTJ00orlDOS2Dkvtg67rvJ2xLUXookTi3i9vPOTPisauKFhFygnW2G8pkS+kahqeMjXq8rU1OfjEzF63lUFE5Ywf1YOLIvrjrsciLENEgSV/UkeZN5bLOFzDnwPzqCVCOrbDKvYQPp3DTuFHcODZyEbITDc9sjKGbrc2idTv5yXPvYTkOlu0wb+VWXvpoBf/68TeJa+PDekXLIL+FIqLruk9mYHIf5uZ+jt8OMDplBIN8Q+hyYSo+9/H/2ZyZei6rChcR1rULsDn0SxrW2GG3aJbt8IsXPiAQPmYuRyjMztwCZny2mhsuPOk7OCFOmyR9EZFSilGpQxiVOqRBx2UlDuCc9Ev5LH921bxcAw3c2ONePMaJa9loHSYQ+Bjb3oPbPZjDwaG8vGY1W/LzGd6xI9cNG05afPyp31Qz27Ivj7Bdt9ssGLb4YNlmSfqiSUjSFw0WCIVZuWUfhjI4o18XPLVa/l/rfC2j085nU+lXeAwvQ5LPJN514lmntr2f/LzJOE4xWodwMNlSkMIrq6+hNGzyxd49vPDVKmZeO53u7VpneWCfxxVxAl/lZ9K1I5qGJH3RIAu+2s4v/jEHw1CgK6tDPn7XFZw5sHuN/dK9HTnbe0m9z1tY8ENsOxeobAkbQFa7EDcM/Jxn15xH0LYJOw6PfvYZ/3f5FSc8V0uV1bE9HVIS2XuoqEbxiDiPi29OGN5scYnYIoU4RL0dKizl589VTkAr94coD4Qo84e49+l3KK049eqNjlNBKPQlRxL+EV7T5uIeG47upzUL9+w+5es0N6UUT905mfbJ8ST43MR5XHjcJpeOHshF2f2aOzwRI6SlL+pt7tLNkbsntObjFVuZcs6JlyQ8Pue4n5iq5vXiXK37n2xWx/bMefR2lmzcQ0FpBSN6d6F7h9bZXSVap9b9G9QGFFcEeGvpOtbsyaVfp3SmjRlKenLLnMBUWhEkHKm+kONQ7q+7elZ9GUYibvcwwuFVcEzHR9g2+HTv0Rawz+Xi2qGtfwSQaUDnHgdxBbZR7jmA5ZyD6yQvuYWIFkn6zWh/YQlX//kV/KEwgbDFgo07eHHBCl6865v073z6y+ZF27ghPXl13so69YUMZXDW4B6nde7U1D+Rlz8Z7QSBCiCBolAcL286j0SPh7DtcE6PHnxvzFmndZ3mFrTLeX33vZSEcglrP24jjs8OPsfVPf9Miuf4a/gKES2S9JvR4+8uoLgigFNV8iBk2YQsm1/PmMerP7i2maOra3ifzowfmsWitTurE3+c183XzhpI7y6nV1/I5e5DZuYS/P6ZWNZOPO5hdOp8KS+kFLOrqIj+aelkpaZG4zaOS2vNm7tW8+LWpZSGg1zQuS/fHXgOab7offNanPcSRaF92Lry7y/s+LEIMHf/H7i651NRu474//buPEqusszj+PeppZd0kiadhCYrSUg0Kwq07FuAEJAliplzgo5EwYmOOi4okhnGUdABUVRGR49yRAdxZhIIohkjBllEDns6IYRIIJ0Fs0D20Ca91fLMH3UD3Z1O0tV9u6s69/c5pzP1UFoAABHUSURBVE7fuve9Vb/crjz91t1eORQV/QJ66tXX3y74ra3evI2WdJqSItt/bWbcOu8ynnixjiXPvEI8Zlxx1hTOmjY2lNePxfpTUdH2zp0Thwxl4pDe+dZzy4qlPLBxJY2ZXEFesG45Szev4aGZn2JgSVko77Gm/vG3C/4BjvNm4xpaMg2UxPvudQjSNxRXVYmY0mSChpaD72YZixmxIh3hKBYzpp88geknF8fwg2HZ1vg37tuwgpbsO8csUp6lPtXEgvXLmTfxzJ4PYXbkNiLdVJyVJSKuOnUqpe1688l4jBnTxpOI981fze6GRhbUvsQvnqll3Y5dhY7Taav3vElJ7OA+UFMmzTPbN4b2PhMrLyBubS/EMmIMK59ESazjO5eKhEk9/QL69IzTWbN1O7XrtxCPGVmHE46t4qtXXVjoaF3yxNoNfG7R7zByZ/Tc+fjTzKmZxvwZ52FF3outLh9Axg8+dTSOMaoivFMqzxjyUTbtX8FbqTdJZZtIWhnJWBkXD78htPcQORwV/UBDagMb99zBW03Pk4wNYmTlP1Ddf3aPFqvSZIKffuIq1r65k9fe2MnoIccwdWR10RfIjjS0pPj8oiVtbiaWIsvC2lVMn3ACp48dBUBd/XZuXfUQtbtepyyeZPbxp/DJCefgblSWhbPfvCsmH1PNmP5VrK3fQbpV8U/GE1wz4dTQ3qc0XsFHxv6YjfuWsaN5HZXJ4xg/4GwSsZLQ3kPkcDRcItCU2szyrZeT8QYOXCgUs3JGDPwYYwZ9qVez9FWPrKnjK79Zyv6WtufrG/DB90zmtlkz2dZYz5WP/Yj96ea3z8aPYaQb42R2VzBqYCW3XziTmmEjej0/wK6m/Xzh2V+zfNdm4hajf7KU22ou57xh4wuSRyQfGi4xD5ve+gkZb6T1laFZb2RL/c8ZWTmPRGxA4cL1ER2dhQS5S60ywbL/3vAczdl0m/vOZHGsNE3a0qzfu4e5v32AP3x4LqMGVvZ86HYGl1Vw7/kfZVfTfvalmxlVMYhYH/zWJXI4ffNoYcjqm2tpf98XACNJY2pjr+fpqpZsE5sa1rC7+Y0eew/3DPWNj7C9/ifUNz6OByNsnTluNJnswfvEy5NJrpiaGzJy9d6tpLIHb2cAS+bWTWUz3LNyeQ+l75zBZRUc379KBV+OSurpA2XJMTSk6oC2vdWst1AaP64wofL0zM7FPLbtV8QsTsbTHFc2jquP/xcqEuH1mNOZXazd9kHSme1kvZmYlZKMD2N89a/pXzqIb826mBt/+zDuTiqToSyZ4P1T3sXZJ+Su1p00cBi1O/9KqoOhGD2d63+kslnq9uwOLbOItKWiD4yq/CR7G58k6+/cKTJmpQwqP4+SRPHdDqG9ur+t4LFtv8qNVhX83drauJYFf72N68Z9K7T32bz7JlrSm4Dcwdqsp2lOv87WPTczesidXDrl3Zw0ajhLXn6V/S0tnD9hHCeOeOeP5kdOOI37Xl/W5v49noVsc/ztol8aTxRsn75IFGj3DjCw9L1MHHonJfFqjBKMEob0u4x3D/luoaN1ytM7f3PQ8IRZMrzRuI49LdtCeQ93p77xYQ4U/Hek2Nu45O1nxw0cwHVn1vC5889sU/ABhpVX8suzr+WkqlEYRowYNJbSvCt3fnrMjIpkko9M1b3lRXqKevqBwf0uoqr8QlLZXcStgngfulBmX3pPh/PjFqchU88gqkN5Hz/ULZDzOANsYuVx/Oqc63B3Mu78bMUy7l31Ig2pFOcdP4avnHEOg8r7zrYX6WtU9FsxM0ri3btxWCFMGHAKu1q2kPG2vXDHObZ09CHWyo+ZMbBsOvVNj9P2oHecgeUXden1EmZ86pRT+dQp4Z0HLyKHp907R4Ezh3yA8viANpf3J62UGdUfJxnifdpHVN1KIj6EmOVuChazCpLxakZU3Rzae4hIz1JP/yhQkajkH8f/gGd3LmbtvloGJgdzxuBZjO3f1ZGsOlaSGMakYU+yt/H3NLW8RnnJRCr7XUrMCnclrYjkR1fkiogcBTp7Ra5274iIRIiKvohIhKjoi4hEiA7kRsjW13fyu3ufZvP67Uw7bRyXzDmdAZUank8kSlT0I2LV8+v46sfvJpPOkE5lWPnsOh68+8/88P++yODq3r+jpYgUhnbvRIC7870bFtLc2EI6lbuwqqUpRf3eBn75vaUFTicivUlFPwL27tzHrm31B83PpLM8/9hfCpBIRApFRT8CSsqSHOp6jPKK8K7YFZHip6IfARUDyjj5nHcRT8bbzC8tT3LFNWcVKJWIFIKKfkR86TtzGDdxGGXlJfTrX0qyNMHZl5zIlXPPLnQ0EelFOnsnIgYOquA/fvN51q3ewrYtexg/ZQTVI6sKHUtEepmKfoSYGeOnjmT81JGFjiIiBaLdOyIiEaKiLyISISr6IiIRoqIvIhIhnSr6ZnaJmb1qZnVmNr+D5aVmtjBY/pyZjQnmzzCzWjNbFfy8INz4IiKSjyMWfTOLAz8CLgUmA1eb2eR2za4D9rj7eOD7wO3B/J3AFe4+DZgL3BtWcBERyV9nevqnAnXuvt7dW4AFwKx2bWYB9wTTi4ALzczcfYW7bw3mrwbKzUzX/YuIFEhniv4IYFOr55uDeR22cfc08BYwuF2bDwHL3b25a1FFRKS7euXiLDObQm6Xz8WHWD4PmAcwevTo3ogkIhJJnenpbwFGtXo+MpjXYRszSwCVwK7g+UjgQeAad1/X0Ru4+13uXuPuNUOHDs3vXyAiIp3WmaL/AjDBzMaaWQkwB1jcrs1icgdqAWYDj7m7m9kxwBJgvrs/FVZoERHpmiMW/WAf/WeBpcArwH3uvtrMbjGzK4NmdwODzawOuB44cFrnZ4HxwL+Z2YvB49jQ/xUiItIpdqjBNQqlpqbGly1bVugYIiJ9ipnVunvNkdrpilwRkQjRrZUlb5lMlicff4WHH3qJeCzGzMvfw1nnvhszK3Q0ETkCFX3Ji7vzja8+QO1z62lqSgHw4vKNnHvBJG646cojrC0ihabdO5KXl1dualPwAZqaUjzx6F9Yt3ZbAZOJSGeo6Eteal9YT1Nz6qD5mYyz/IX1BUgkIvlQ0Ze8DBhQTkkyftD8RCJG/wFlBUgkIvlQ0Ze8TJ8xpeMDtgbnTp/U+4FEJC8q+pKXqsH9+dqtf0dFRSn9Kkro16+EAQPL+Pc75lDRXz19kWKns3ckb+87/QTuX3I9q1/ahMWMKdNGkkgcvMtHRIqPir50STIZ572njCl0DBHJk3bviIhEiIq+iEiEqOiLiESI9ukXsb07/8azD68im3VOnzGVqurKQkcSkT5ORb9IPbLoeX44fyGxmOEOP/3aA8z72lVcds3ZhY4mIn2Ydu8Uod3b3uKHNy6kpSlFU0MLzY0ttDSnuevmB9m6cUeh44lIH6aiX4SeemgldHDRayab4cnfrej9QCJy1FDRL0LpdAbPHjyimWeddCpbgEQicrRQ0S9Cp100lY5ub5NIJjhz5rTeDyQiRw0V/SI0fMxQrv7CJZSWJYnFDYsZpeVJZl17HmMnjyh0PBHpw3T2TpGa808Xc9pFU3li8XI8m+Wcy09i/LRRhY4lIn2cin4RGztpOGMnDS90DBE5imj3johIhKjoi4hEiIq+iEiEqOiLiESIir6ISISo6IuIRIiKvohIhKjoi4hEiIq+iEiEqOiLiESIir6ISISo6IuIRIiKvohIhKjoi4hEiIq+iEiEqOiLiESIir6ISISo6IuIRIiKvohIhKjoi4hEiIq+iEiEqOiLiESIir6ISISo6IuIRIiKvohIhKjoi4hEiIq+iEiEdKrom9klZvaqmdWZ2fwOlpea2cJg+XNmNqbVsn8O5r9qZjPDiy4iIvk6YtE3szjwI+BSYDJwtZlNbtfsOmCPu48Hvg/cHqw7GZgDTAEuAX4cvJ6IiBRAZ3r6pwJ17r7e3VuABcCsdm1mAfcE04uAC83MgvkL3L3Z3TcAdcHriYhIAXSm6I8ANrV6vjmY12Ebd08DbwGDO7muiIj0kqI4kGtm88xsmZkt27FjR6HjiIgctTpT9LcAo1o9HxnM67CNmSWASmBXJ9fF3e9y9xp3rxk6dGjn04uISF46U/RfACaY2VgzKyF3YHZxuzaLgbnB9GzgMXf3YP6c4OyescAE4PlwoouISL4SR2rg7mkz+yywFIgDP3f31WZ2C7DM3RcDdwP3mlkdsJvcHwaCdvcBfwHSwGfcPdND/xYRETkCy3XIi0dNTY0vW7as0DFERPoUM6t195ojtSuKA7kiItI7iq6nb2Y7gNc7WDQE2NnLcTqjWHNB8WZTrvwVazblyl9PZTve3Y94JkzRFf1DMbNlnfnq0tuKNRcUbzblyl+xZlOu/BU6m3bviIhEiIq+iEiE9KWif1ehAxxCseaC4s2mXPkr1mzKlb+CZusz+/RFRKT7+lJPX0REuqmoir6ZVZnZH81sbfBz0CHazQ3arDWzua3ml5jZXWb2mpmtMbMPFUOuVssXm9nLYWQKI5uZ9TOzJcG2Wm1m3wohT1EOuNPVXGY2w8xqzWxV8POCYsjVavloM9tnZl8OM1d3s5nZiWb2TPC5WmVmZYXOZWZJM7snyPOKmf1zWJk6metcM1tuZmkzm91u2WFrR6jcvWgewLeB+cH0fOD2DtpUAeuDn4OC6UHBspuBbwbTMWBIMeQKll8F/A/wcrFsM6AfMD1oUwI8CVzajSxxYB0wLni9lcDkdm0+DfwkmJ4DLAymJwftS4GxwevEQ9pG3cl1EjA8mJ4KbAnxd9flXK2WLwLuB74c8ueqO9ssAbwEvCd4PrhIfpcfJje+B8FnfyMwphdzjQFOBH4JzG41/7C1I+xHUfX0aTsYyz3ABzpoMxP4o7vvdvc9wB/JjcoFcC1wG4C7Z909rAsgupXLzPoD1wPfDClPKNncvcHdHwfw3AA5y8ndCbWrinXAnS7ncvcV7r41mL8aKDez0kLnAjCzDwAbglxh6062i4GX3H0lgLvv8vDuudWdXA5UWO5OwOVAC1DfW7ncfaO7vwRk2617uJoWumIr+tXu/kYw/SZQ3UGbDgdmMbNjguffCL5C3W9mHa3fq7kOZAK+CzSElCfMbAAE2+8K4NFuZCnWAXe6k6u1DwHL3b250LmCjsSN5L7d9oTubLN3AW5mS4P/i18pklyLgP3AG8BfgTvcfXcv5uqJdfN2xLtshs3MHgGO62DRTa2fuLubWT6nFiXI9VKfdvfrzex64A7go4XMZWbvBU5w9y+23x+bx2v01DY78PoJ4H+BH7j7+q5kPNqZ2RRyYz9fXOgsga8D33f3fUHHv5gkgLOB95Hr6DxquZuBdadDEYZTgQwwnNxulCfN7JGofeZ7vei7+0WHWmZm28xsmLu/YWbDgO0dNNsCnN/q+UjgT+QGbWkAfh3Mv5/cgO2FznUGUGNmG8lt72PN7E/ufj6d1IPZDrgLWOvud3Y20yHkM+DOZuvCgDsFyIWZjQQeBK5x93UhZepurtOA2Wb2beAYIGtmTe7+n0WQbTPw5wO7V83s98DJdO9bZBi5Pgz8wd1TwHYzewqoIbcPvTdyHW7d89ut+6cQMnWspw4WdOUBfIe2ByW/3UGbKnL7MQcFjw1AVbBsAXBBMP0x4P5iyNWqzRjCP5Db3W32TeABIBZClgS5/0Bjeedg1pR2bT5D24Ns9wXTU2h7IHc94R38606uY4L2V/XA573Ludq1+TrhH8jtzjYbRO74UL/gdR4BLiuCXDcCvwimK8iN83Fib+Vq1fa/OPhA7mFrR6i/25564S5uuMHkegNrgw/KgcJUA/ysVbtryR3oqwM+3mr+8cCfyZ058CgwuhhytVo+hvCLfpezketROPAK8GLw+EQ387wfeI3cmQw3BfNuAa4MpsvIfQurIzeK2rhW694UrPcq3TiLKMxcwL+S2w/8YqvHsYXO1e41vk7IRT+E3+XfkzvA/DIddEQK9LvsH8xfTa7g39DLud5H7lvQfnLfPFa3WvewtSPMh67IFRGJkGI7e0dERHqQir6ISISo6IuIRIiKvohIhKjoi4hEiIq+iEiEqOiLiESIir6ISIT8P/X/3+MM6AHRAAAAAElFTkSuQmCC\n",
      "text/plain": [
       "<matplotlib.figure.Figure at 0x12535f588>"
      ]
     },
     "metadata": {},
     "output_type": "display_data"
    }
   ],
   "source": [
    "y_test = range(x_test.shape[0])\n",
    "plt.figure(figsize=(6, 6))\n",
    "plt.scatter(x_test_encoded[:, 0], x_test_encoded[:, 1], c=y_test)"
   ]
  },
  {
   "cell_type": "code",
   "execution_count": 198,
   "metadata": {},
   "outputs": [
    {
     "data": {
      "image/png": "iVBORw0KGgoAAAANSUhEUgAAAWwAAAFpCAYAAAC4UhIKAAAABHNCSVQICAgIfAhkiAAAAAlwSFlzAAALEgAACxIB0t1+/AAAADl0RVh0U29mdHdhcmUAbWF0cGxvdGxpYiB2ZXJzaW9uIDIuMS4yLCBodHRwOi8vbWF0cGxvdGxpYi5vcmcvNQv5yAAAIABJREFUeJzs3XeYVNX5wPHvuVN3trPsAsvSe0eqWOgWbFiwd40tahJNLCk/NTEmmmjURE00sfcSCxoVVBCV3qS3BRZY2hZ2l23T7j2/P2aBLbO9Dvt+nmcemTv3nnkH2XfPvPcUpbVGCCFE22e0dgBCCCHqRhK2EEJECEnYQggRISRhCyFEhJCELYQQEUISthBCRAhJ2EIIESEkYQshRISQhC2EEBFCErYQQkQIe2sHUFnHjh11z549WzsMIUQEWLlyZY7WOrkxbZwxJVrnHjIbHsNa3xyt9ZmNiaGu2lzC7tmzJytWrGjtMIQQEUAptauxbeQcMlk6J63B1zu6bO/Y2BjqSkoiQggRIdpcD1sIIVqWxtRWawdRJ5KwhRDtmgYsImOZaUnYQoh2zyIyethSwxZCiAghPWwhRLum0ZgRsvOWJGwhRLsnNWwhhIgAGjAlYQshRGSIlB623HQUQogIIT1sIUS7pkFuOgohRKSIjFHYkrCFEO2cRstNRyGEiAgazMjI13LTUQghIoX0sIUQ7Vpo8afIIAlbCNHOKUxUawdRJ5KwhRDtmgYsqWELIYRoStLDFkK0e1ISEUKICBBa/EkSthBCRARLR0bCrlMNWyl1plJqi1IqXSl1f5jXJyqlVimlgkqpWZVeu1Ypta3scW1TBS6EEE3hSA+7oY+WVGvCVkrZgGeBGcBg4HKl1OBKp+0GrgPeqnRtB+BBYDwwDnhQKZXY+LCFEKL9qUtJZByQrrXeAaCUegeYCWw8coLWOqPstcrjz88AvtJaHyp7/SvgTODtRkcuhBBNQKMwI2TAXF0SdldgT7nnmYR6zHUR7tqudbxWCCFaRKTUsNvETUel1M3AzQDdu3dv5WiEEO1JJI0Sqcv3gL1At3LP08qO1UWdrtVav6C1HqO1HpOcnFzHpoUQoikoTG00+NGS6vJuy4F+SqleSikncBkwu47tzwFOV0ollt1sPL3smBBCiHqqNWFrrYPAHYQS7SbgPa31BqXUH5RS5wEopcYqpTKBi4HnlVIbyq49BDxMKOkvB/5w5AakEEK0BaHV+owGP1pSnWrYWuvPgc8rHXug3J+XEyp3hLv2JeClRsQohBDNKlJq2G3ipqMQQrQWrVWL16IbKjKiFEIIIT1sIYSwpCQihBBtX2gcdmQUGyRhixbnDwQpOFxKQpwHh8PW2uGIdi9yatiSsEWL0Vrz0juLeOeTFWitMQzFVReN5+qLxqNUZHwlFcefI8P6IoEkbNFi3v54Oe98shyvL3j02OsfLCHG4+LCs05oxciEiAyR8WtFHBfe/GhZhWQN4PUFef2/S1opIiFCTK0a/GhJ0sMWLcKyNIcLvWFfy8svaeFohDgmkpZXjYwoRcQzDEVal/B7V/Ts1rGFoxGiIksbDX60JEnYosXcecNkXM6KX+pcTjt33DC5NcIRAjg2rK+hj5YkCVu0mJPG9OEvv7uQ4YO6khAXxcghafztwVmMGd6jtUMTIiJIDVu0qFHDujNqmGxSIdoOTcvfPGwoSdhCiHZPxmELIUQE0JqImekYGVEKIYSQHrYQor1TslqfEEJEAk3klEQkYQsh2r1ImekoCVsI0a5pFFaEDOuLjF8rQgghpIcthBBSEhFCiAigocUXcWooSdhCiHZOYcqwPiGEaPsiqYcdGVEKIUQEU0rdpZTaoJRar5R6WynlVkr1UkotVUqlK6XeVUo5a2tHErYQot0zy8oiDXnURinVFfgZMEZrPRSwAZcBjwFPaq37AnnAjbW1JQlbCNGuaa1aYscZOxCllLIDHmA/MBX4oOz1V4Hz69KIEEK0a805NV1rvVcp9TiwGygF5gIrgXyt9ZFdqTOBrrW1JT1sIYRonI5KqRXlHjeXf1EplQjMBHoBqUA0cGZD3kh62EKIdk1DY1fry9Faj6nh9enATq11NoBS6kPgZCBBKWUv62WnAXtreyPpYQsh2jmFqY0GP+pgN3CiUsqjlFLANGAjMB+YVXbOtcAntTUkCVsI0a6FxmGrBj9qbV/rpYRuLq4C1hHKuy8A9wF3K6XSgSTgxdrakpKIEKLda+61RLTWDwIPVjq8AxhXn3akhy2EEBFCethCiHYtktbDloQthGj3rAgpNkjCFkK0a1qDKT1sIYSIDJFSEomM7wFCCCGkhy2EaN9CNx0jo+8qCVsI0e7JjjNCCBEBjsx0jASR8T1ACCGE9LCFEO2d1LCFECJiNHJ51RYjCVsI0a7JxBkhhIggkVISiYwohRBC1C1hK6XOVEptUUqlK6XuD/O6Syn1btnrS5VSPcuOO5RSryql1imlNimlft204QshROMcWa2vuTYwaEq1JmyllA14FpgBDAYuV0oNrnTajUCe1rov8CTwWNnxiwGX1noYMBq45UgyF0KItsJCNfjRkurSwx4HpGutd2it/cA7hHYALm8m8GrZnz8AppXtXaaBaKWUHYgC/MDhJolcCCGaQHNvEdaU6pKwuwJ7yj3PLDsW9pyyHYALCO1R9gFQDOwntBHl41rrQ42MWQgh2qXmHiUyDjCBVCAR+F4p9bXWekf5k5RSNwM3A3Tv3r2ZQxJCiIqOp1Eie4Fu5Z6nlR0Le05Z+SMeyAWuAL7UWge01lnAQmBM5TfQWr+gtR6jtR6TnJxc/08hhBAN1YhySFssiSwH+imleimlnMBlwOxK58wGri378yxgntZaEyqDTAVQSkUDJwKbmyJwIYRoCprIuelYa0lEax1USt0BzAFswEta6w1KqT8AK7TWs4EXgdeVUunAIUJJHUKjS15WSm0AFPCy1nptc3wQIYRoqEhZra9ONWyt9efA55WOPVDuz15CQ/gqX1cU7rgQQoj6k6npQoh2LZLWw5aELYRo9yRhCyFEBDgyNT0SSMIWQrR7kbIedmSMFhdCCCE9bCFEO6elhi2EEBFBRokIIUQEiZSELTVsIYSIENLDFkK0azKsTwghIoiWhC2EEJEhUsZhS8IWQrRrOoKG9clNRyGEiBDSwxZCtHtSwxZCtBk70w+y5Put2O02Jk4fTKcuCa0dUhsio0SEEG3Ef/7+FbPfW0YwaKIMg9een8+d953F6eee0NqhtRnSwxZCNJnCQAmf7VvM6rx0UqOSuCDtVHpEd6r1us3rM5n9/nJ8vmDogGkC8I9HP2fcKf1JSIxuzrAjgkxNF0I0mUP+Qm5d/gSFwVL8VoDVeYq5B5bz+6HXMzZpYI3XLvhqA35foMpxw2bwzlcrWGk7REZePiNTu3D7hPH0TExsro8hmoCMEhGijXsjYy4FgSL8VijxWmh8VoC/bn4HS1s1XqtU+J7j4U6Kv+9ezfwdO9mZl8fsjZuY+eobbMvJbfL42zwdGtrX0EdLkoQtRBu3OGcDwTCJuShYSpY3v8ZrJ58+FKfLUeGYBvYPs+Mv16apNSWBAH9d8H2TxBxpLFSDHy1JErYQbVy0PSrscUtbRNmcNV7bf3AqF115Ik6XHbvDwOm0Y4u1g8dW5VwNrNy3tylCjiia0E3Hhj5aktSwhWjjLkw7lWe3fYTXOlaLtimDYQm9yfgxi/df+ZCs/fkMH9uLS2+YSHLn+ArXX3vrVKaeOZwl32/F6bQxdmJ/Tnv7NYJlNyDL6xDlafbPIxpOErYQbdyMLuPZVriXLw8sxa7sWNoizZPMKbtH8sAjb+DzhhL53t25fPvFWp5993Y6pVYcZ92tZ0e69ex49Pn5Qwbz8cZN+ILBo8ei7HZuHje2ZT5UmyLjsIUQTUQpxc8HXMQVPaexrXAvKa4Eero7c9ldjx5N1gBm0KK02M9bL8znrocuqLHNB6ZNocTvZ862dJw2G0HL4saxY5g1bEhzf5w2qaVvHjaUJGwhIkSyK4FkV6jnvCcjm6BZ9UakaVr8uHRHrW257HaePPdscktKyCoqpntCPNHOmuvhxzOZOCOEaDbxCdGYwao1aIDEjrF1bifJ4yHJ077r1qHheZGRsGWUiBARwB8IYpbrUccleBhzcj8czoqjPVxuB5dcf0pLhydaiPSwhWjDtu44yF/+NZetO7Kw2QymnTKAu38yHU+Uk3semcWj973H6qU7cDhsmKbF1T+dyklTB7d22BFHbjoKIRrlYM5h7njgHUpKy2Y4Bk2+WbiF/VmHefbhy/BEu/jDM1eTm11IXk4haT074o5qv3XoxpCbjkKIRvnwix8JBCreWAwETDanH2D7rmz69EgGICk5lqTkutetRVVSwxZCNMqO3dkEwtxYtNsMMvfntUJExydNw2c5ykxHIdq5Qr+PN7esZmn3LPIMC0+6wpV/LDEETIve3ZOrXKe1ZtnBTJYfzCQ5Kpqzeg4g1ulqydBFM5OELUQbUuD3cvanr5BTWozXCkJnKEnRJKxVRGcauJx2xo7oQbfURCxLEwiauJx2ApbJDV/9l5VZe/EGg7jtdv64bB5vnnkpwzt2ae2P1eY1dwlbKZUA/AcYWvZ2NwBbgHeBnkAGcInWusavTpKwhWhDXtm4kuySInxWWSnEAG1A/nBN50I3F04fwVUXjOept77lo3lr8QdMuqbEM+zM7iw/mInXDE01LwmGblTeNu8Tfrj4lmqXWW0OpmlhBs0qqwS2WS0zDvtp4Eut9SyllBPwAL8BvtFaP6qUuh+4H7ivpkYkYQvRhszds+1Ysi4nOsrJnx67kBOSU3n431/y1dKt+Pyh5LznYD5rNuYSiKnaT8zzlZJekEu/hI5VXmtqfl+Afz/2OXM/XEEwYJLWK5k7HjyfYWN7Nft7N1ozdrGVUvHAROA6AK21H/ArpWYCk8tOexX4lloSttx0FKKBtA6i/cvRvkVo7WuSNju4wi+lWhIIkFlQQEFhKXOXbDmarI/FUn3Gaakha3+5513mfrgCvy+IZWl2b8/i/25+mV3pB1smgLarF5ANvKyUWq2U+o9SKhropLXeX3bOAaDWPd+khy1EA2j/anTerYAfUIBGx/0FI+q0RrV7w+AxrMjeS2lZSaNbYi6DOh3A7QgwO3sjO/PPwGG34Q9U7IW79ytKojVWpS5YgstNv4SkRsVUF9kHCli2YAuBSr9IAv4gH7z4Hb/888XNHkNjNLIk0lEptaLc8xe01i+Ue24HRgF3aq2XKqWeJlT+KPf+Wiulav3VKj1sIepJWyXovBtB54EuBl0U+m/BL9Hmvka1PSWtD3cMm4ACeiTmMLxrJlHOAEqBx+1jm/oMT7fsKtfFHLDRSUfjsTtQQJTNTozDyT+nnF9j/dqy8giUfk7QuwCtq+79WFcHMw/hdFXt/1mWZte2tt/DbuQWYTla6zHlHi9Uaj4TyNRaLy17/gGhBH5QKdUFoOy/WbXFKT1scdzLLSjmibfms2DVdpRSTBnTl19ePoWE2PDlh8oCpsnCDRlkFxQxvGcX+ndcSviip4ku/RgV89NGxXv78Ak8tWQRAzsfwG5UfB/DsBgwPYvCjCS85XqzbruDl2dcxh59mPc3rUOZiisHj2REcvUjRHxFL+I7/Cio0M1BhQNP0mvYnCPqHXNar2T8vmCV4za7Qf9hafVuryUd2XGm2drX+oBSao9SaoDWegswDdhY9rgWeLTsv5/U1pYk7AigtWZPyVYKAjl0jepDB1fn1g4pYvgDQa5/+G2y8goxrVDy+3rZVjbuOMC7j1yH3Vbzl8zdWfnc+OS7lPiCmJaJUopfzsjkguHBMLv5BcCqfUKLGTTJzS4kLt6D2xN+KnnHqChc9ooJ0KUCJNmLMJyHufWK83jrkz0UFHsZ3Kszv7hyEpYT7n1tDv5gkIBp8d2PGUzo1Z1/XHwudqPi5zT9a/AV/gXwQVn9XQMludcQ03kFStVvhEdCUgzTZ57AvE9/rLBGt9PlYNaNE+vVVovTQPOPErkTeLNshMgO4HpCFY73lFI3AruAS2prRBJ2G1cYyOPFHQ9SEMhBoTB1kGEJp3Bh2u0YSipatfl21XYKikqPJmuAoGmRU1DMonU7mTiyT43X3/OfT8ktLKlw4+79JdGcN1Rjr/zXrzwo1+Qa2/v8vWW89NQcAgETbWmmzzyB2359Dg5HxR/FW0acyBLvYlyOUNLu7MinhysXhQYUjh6P8JcHb2JQh5uPXjPjuVfILyk91vc3YdGO3byzci1XjR1ZoX1/ydtHE3V5mgCmbxF296QaP4fWmjWH9rGnKJ+hiZ3pFZfE7Q+eT+duSXzy+kKKC70MGd2Tm+49i85pHWpsqz3QWv8IjAnz0rT6tCMJu417d/ffyPXtw+LYmhLr8xfRLao/4zue0YqRRYYde3Mo8VWtzfr8QXbsza0xYR/IK2RXVl6VURZbD8by9eZhnDl4I1BadjQKHGPBOaHa9hbP28jzf/28Qg/0m09/RCnFnf83s8K51w47gV0rTiHL/I5ou4+erlyMo/ekNKb2sSHv33SNmUScsyfzlm0hIzsPXemXiDcY5P3V66okbG0dBqpugACgdVG1nwHgkK+Eq+e/xe6iPAwUQW0xJbUvT004n0tumsQlN9Wc7NuiSFn8SbpobVhxsIDdJVsrJGuAgPaxOPd/rRRVZOnZpQOeMBM4XE47vbrU3PMLBM1qb9g9//1pqISnwDUdnKei4v+ISvwnqoZvPW89P79CsgbweQN89ckqvKX+CseVUjw49hYu6349nZ3hE6ulg2QWzSc3t4g/P/5ZtUP7wu1M44iaASrMxgU6gM11UrWfAeCeJZ+SXpBDSTBAUdCP1wwyf186/9m8pMbr2jTdiEcLkh52G+a3fBgowu0r4re8LR5PW5axN5fXZi9jy46D9OmezDXnjaNvj2SmjOnHP97/Hl8geLQsYrcZJMZ6OHlE7xrbTOsYT2JMFPsPFVY47nTYmDFmEMo9AeWeUucYsw8UhD2ulKKwoDTs0qinpkynkzObNbnPYGl/mKvh8y/XoIosjIANs+J+BjgMg5nDq66PbXfPwOZ4CzOwGnTJ0bxTqhJR3kXEes4GQqWPbYe/YPWhVykJ5pLg6EVGUSJBXXGTX68Z5K301dw6uOZk3za1/CJODSU97DYswZGMxx5X5bgNO0PiTmyFiNqmTdsPcP1v32TOD5vYkZnL14u3cNODb/Hj5kxcDjsv/9/lnDyiNzZDYbcZTDyhNy/97vJabzgqpfjT9WfhcTlwOUKZMMrloEdyItdMG13vOAcM70a4DrvDaadDx5hqr+saPTnscUPZSYuZwr59+QQDJombAqigBjOUfpWp6RIVzdXjRla5Vik7nqTXccb+Fq+2UWJpcs0gBcFM9h/6ObmHnwFgfd67LMp6ksLAPkztI9e/mVl9lpLqqXpztdRs+LDAVic9bNFYSilmdbuT13b+CVMHsTBxKBceeyyTO81q7fDajCdfm4+3XJ1aa43XF+SJl7/h9ceuJSUxlid+NvNoyaA+62qM7J3K7IeuZ/aSjRzIK2RU365MHdkXh81W+8WVXHvndNYsTcfnDR6tmbrcDm686wxs9urbi3Z0YWTSz1mT+3e0tgCNUjaGJN5EnLMnI4YfZsF3m6EwQKflfkpSbJhOiClVPPfQOUQ5wo/4UMpOQWAz+ZYJ5b7HaV1C7uG/ER99NasOvUJQV/w2Z1cWE1O38U76uHLHDKal9qv334moH0nYbVzvmGH8rP+TLM39kkP+g/SKHsroDlNx2eo2hrg92LT9QNjj23fnYFoWtrIhbQ1dACkpLprrTx/b4Pj85mHW5DzKXtvXXPOWSeGeNL5/bijOqFT6XtONg72KWZu3m2EJ3aqNsV/CJXSJPpnMovmApmv0JGKd3QGYMnkQb761mKyswxAwid1r4nLZGTO6F/361DwEtMS7CKg6flphp9D3I5YO85qCTp5CnIYNv2XittmJc7i5e3jk3WwEWmrxpyYhCTsCdHB1Zkbqda0dRpsVE+0i/3BpleNutwOjBVepC0drzXf7fkKRfycWQVAQ2z2Tcx7L57kdp7JBZ+HfZuK02Zme4uHirqVYupjk6NPpGDUFpY71vGMcXRmYeFWV93C5HDz3zLW8+fYivl2wGZfTzjnnjOTC88ONIqvIYU/DH9wSJu4AHkdvVJjR5gCpUb24ccA4dhQeYmzHbszqPZxYp7sefzNtTISMEpGELSLepTNG8epHSyvM/HM57Vx02sgWXVY0nBzvSooDe0PJ+igLn1lMr+idrC7oAcAJsRsZG7uevUUWCk12yVckuMcyPOVfR0eemKaFUmAYVWvvsbFubr15KrfePLVe8aX/MIGkIfNxRpUfSeLE4z4Fl6MbQxIuYkP+fyuURezKxYkptzCrV8O/dbQ9kdHDrtNNR6XUmUqpLUqp9LJ1Wyu/7lJKvVv2+lKlVM9yrw1XSi1WSm1QSq1TSkXwr2HRFl193jjOmjQEp8NGdJQTp8PGtBMHcMslJ7d2aBT6MyDMOB+HYZLiDI0+ibb5mJGyDqdhlk2MAVOXkO9dTk7pPPbsyOL2S/7B2cN+zbl97+GPt7xEfm7NY6XrYsXcNTx+9ULeuq8PxXl2fMUGAZ8ic113UpP+CcCYjjczPPFyHEY0CoNoewqTOv+OtOjjKVlHjlp72Cr0nexZ4DRCi5gsV0rN1lpvLHfajUCe1rqvUuoy4DHgUqWUHXgDuFprvUYplQRE8K1k0RbZDIN7bpjOzZecTOaBfFJT4kmMCzPGuBXEOfsQrl/kt2wc9IU2zu3jycLUBo5K4+1NXcKGXe/z0F0rQjcpuyWChh8WbmXXrL/z/Df3h+1t19Xbf/4QX4mfFZ+ksOqzZDqkeSnJtxPwehidaeGM9xJlczGq4w2ckHQdpvZjU65W/9bSLI6jksg4IF1rvQNAKfUOMJPQwiVHzAQeKvvzB8AzKvR/9XRgrdZ6DYDWOreJ4haiiviYKOL7ts7N2KKCEt56/DMWfLwCu93G6VeezMV3nkGSeySxjl4c9m/DOtpXMQhqOxsLuwIQ0NWNEDFYtvwg2gjNxjTi/CSenUVMr2L8pdk8v/hFbppwPXajYZXNrN05R/9smYqcXVFowLg2jkvXPIafIPGOaG7tezZndhmN/Xj+chwhCbsuv567AnvKPc8sOxb2HK11ECgAkoD+gFZKzVFKrVJK3dv4kIVoWwL+IHed+SifvvgtufvzObgnl3ef+oIHLvsHAKd2fZ7usedhVx4MHHTxTGJgh39gMzy4DQfpxZ0IV0PVlp0fFw0AwOwYJPVnGcQNKMTmsjASLJbZl/Bs+rMAZBcVsyRjD5n54SfnhDP0lIEYlcaim1fE450VTan2Y2qLQ/5Cntj8X77LWtfAv50IcGTxp4Y+WlBz33S0A6cAY4ES4Bul1Eqt9TflT1JK3QzcDNC9e/dmDkmIprXws1Vk78ursHi/3xtg88odbF65k0FjejMq5XeMSvldhetmTxrCVwfWUuAvoWPsREpLH+TIbAxLB8jffRH7dnvQSmNckI/NZlWceGNYrD+8nnvnfMDnP+7DZbfhN00m9OzO0xecXe346yOufuBiFn2yHG+RF8vSaAPMS+PBXTGJ+6wAL+2Yy8SUYY38m2q7ImUtkbok7L1At3LP08qOhTsns6xuHQ/kEuqNf6e1zgFQSn1OaOHuCgm7bMHvFwDGjBkTIX91or0LWEH+vW0Br/E93sfjcK33E/tuIfacUC3aMi22rs5g0JjQFHitNUW+ZRT71+G0p5IQNZ1Z3Y/NWDWt6eR5F2JapSRGTWCb14vT9Q4F8QE6xpZiM6r+aPhNzdL9G/CbcfjN0M3NxRm7+ePcb3nk7Jp3v0nt05nnVjzGqw++y7rvNxPfO4EtURozzKJQB7y1Lxsrml9dEvZyoJ9SqhehxHwZcEWlc2YTWoB7MTALmFe25c0c4F6llIfQXkqTgCebKnghWtO9q95jYdY2fE4TMPCOcuEb6CTl1zkYRRqbw05K2dKiPn8J6TnX4DU3onUApZzYlIeBnf+L2x76VmkzXHT0HBuWN3iA5qRxfZmbuZUSrxMzFirPptfaorCo4o+xL2gye/0mfj9jWpV1sCvr2rcLv3nzFwBY2mLm97+nIFBS5bye0bVuNxjZIqSbWGsNu6wmfQcwB9gEvKe13qCU+oNS6ryy014EkpRS6cDdlO1XprXOA/5GKOn/CKzSWssycyLiZRTlhJK1VW58tU2hXVA8OQrDZhAdF8WQk/rzp0c+4cnnr6WgZDWWLkETwNLFBKxcduT8rNr3UErxwH3ncs+s6ewvSKwyG8+yoLTUTdHhqjdag5aFPxhu2bDqGcrg5j4zcBsVSykuw8Gtfc+qV1sR53iqYWutPwc+r3TsgXJ/9gJhd9nUWr9BaGifEMeN9MKD2A1bhYTtMILExPlxnKdJTUnh93fczkMPfcTGjXu560+bcDgrJ1CLEv8GgmYedlti2PcxDMUFU0aya00Rb6RDz5RMol0+QOH3JxGXPRrF/iodxJ4dEvE467drDMC5XU8k2h7FSzvmkOUtoFdMJ27tezYjE2ve6CHS1b79bdsgMx2FaIA0TwdMfazWG+3wkRhVigJUMhTMLObP+19ixzYbgYCJEab+HKLQmOwsOkhRsJT+sV1x2aom2l+MOIUTklN5fcsqDpcUc1b3QVw26gT25hdy8e638QaDBC0Lm1I47Tb+MKNeG5lUMLXTCKZ2qv++jhGrFVbdayhJ2EI0wMD4LgyI68zG/H0EdZDEqFKMct+OvZafff4sbCMSYLGTNUv7cNL09TgqbUZgt/XghqWvsa/0EDZlYKG5a8BMzu5adR2QSam9mZRacQ3vPh078L+br+HlpStZvXc//ZKTuGH8aBI9UcxNTyfR7WZ0166tvqaKaBqSsIVooGfHXcMj62bzXfaPYV8PEMTqXwiLk/hm9mgGDNtDQsci3FEBzKATp8PNi3tHk1GchVWui/fE5o/pHdOJQfHdwrZbWZe4WH5z2uSjz59ZsoTnli7FYbOhtSbO7eb1WbPolRi+7CJavhbdULKBgRB14PW9EeyzAAAgAElEQVQtJSv3ZvZnzSRj/+M8+tGn3PH8bFL2duGxoZfjsbnCXtcxNh6Xy47f6+TvD87ivy9OYdFXo+gUfT/u2PfYVOSokKwB/FaQD/YsalCc32dk8K9ly/CZJkV+P8WBAAcKC7n+ww+r3UJMIBsYCNEUskqKeGfzWrbnHWJ051Qu7DeUGGfVrbSa0+Gi18greIjQvXWNL7CKSf1i+GjptazbdYAPltjoc44Lr1VxF3KX4eSuyZewyZvLxx+vorTUT0LUmVw8YwqpnRJZnLMZI9wMRzQ5vsMNivX1H3+kNFhxDWsN5JaUsCEri6GdjvPheQ0VIb/LJGG3MZa2+C5rM3P2r8VtODgvbTQndOjZ2mG1ivU5B7n003cIWiY+02Turm08u3opn154NSme6rfUakqWVVKWrI+tt+1yBOkQXchZI1fxwbIJBL0mnm2DUf03liVtRdAKckm30xnZYQAjr4DLr6i61+GQ+O4EdNWhdy7DwckdBzYo3sM+X9jjhlIU+cPvCSkihyTsNkRrzb2r32ZJTjqlph8FzD2wjqt7ncKt/aa3dngt7lfffkFx4FiSKQ0G8Zsl/HXZ9/x18owWicEfWEe4HxOXw+TEPul8sGwCWsOPG/NYdPXDrC/YRlGwlKFxfYh3xtbYdpzDw3W9pvHaznl4rdDCUE7DToo7nnO6jqvx2uqc2a8f6w4exFupl21qzYjONe8+065JD1vU15Kc9KPJGkL/hrxmgFd3fM/MtDF0iUqouYHjSIHPy/b8qos7mtriq13pLRaHYSQQbgstgPySY0u4Rrud2JTBiIQB9Wr/2t5TGRDXlfd3L6QgUMzElKFc1G0CHnv4mnhtLh02jA82bCAjL4/SYBBDKZw2Gw9NmVLr2iLt1pHFnyKAJOw2ZEHWpqPJujybUizNSef8brVv+RSpSkr8fDlvPes376NntySmTR1U7blue/h/tqZl8cWqLcxevhGbYXDB+CGcNqJfo9ZvdjoGYLf1JBDcSvmNCLx+B7NXhf5/uB12Lj+l6s7kR2Kat2UH8zdvJ8ETxUWjhtAnOanCOSd2HMCJHeuX6KsT5XDw38sv55NNm/hq+3aSPR6uHDmSISkpTdL+8Uomzoh6i7a7sCmjwoQMAIXCY2/ZG20tKedQETff/TpFxV68viBOh423PlzGCZd0YVXefoLWsb8Pt83O5QOrTurQWvOLF2ezLH0PpWWr5q3akcnHC9dz66RxDB6Uir3yQhx11Knj6xzMuZKguQew4Q96eWfpRHZk98NpNzlteD+un1L1l2nANPnJ6x+xLvMAJYEANkPx1rI1/OG86Zw3ovpfSI3lstu5ZNgwLhl2/K6u1+QkYYv6OqfrKN7OWFQlYQOcmtywm1CR4IXXviMvvxjTCv3U+AImXssk6YdSep2UyL6iw2gNltZMSO3ObSPHV2ljeXomy9IzjyZrgFJ/kIVbd7F1wS6isfHIQxcydHBaveOz27uS2mk+gcAmTOsQLucIbphuctoJ+fTpnETnhPC16s/Xb2Ft5gFKA6H6tGlpTCvIg59+zfRBfRs0dVy0b5Kw25BeMcncN+Q8HtswG7thAw1Kwd9GXc28/Vv455bvyfYWMjQxlV8Omc7ghC6tHXKTWLhsO6alQzX7RAN/bKiEsSFQwN2JpzLwlC5kFhYwuGMKAzskh21j8ZZdlPqr7j6n0RTZTYKH/Nz72/f54M2f4vHUvz6slMLpHHz0efdk6J5c8z2Fz9dtOZqsy7MZBit37eXUfj3rHYdo3yRhtzEz00YztdNglufuwGHYGJfUh7d3rODvm+ZTaoZ++Bdl7WB17su8PelGBsRH/rhapzO0RZY3oSxZl83x1sCzXyzhDx1O58JRQ2psIzEmCqfdVnWFOg3KPPJHzfeLtnHG9KFN/RHCiqpmvLjW4HLIj15bEik1bJnp2AbFOqKY2nkIp6YMRCmDZzZ/ezRZH+E1A/xj0/xWirBpnXv6cJxOO/64Y8n6CG8gyPNfLqm1jRknDKh2vQxnYajEFAxaHC4sDXtOc7hk9FCiwiRml8PG6O6pLRaHqIMIWV5VEnYbd7D0MFaYKcUaWJ+3r+UDagZXXXwiQwenQjUJ92B+Ua1tJMfH8LfrzyXG7cTtsKMsjQpqYvcEUWW3BAxDMXpkzyaMvGYn9enBtRNG4bTb8DgdRLucxLldPH/l+dgasdu5aGKNmZYuU9NFeR1c0WETNkDX6NYZl621btRQufJMHeCAbzG33uVk5/OlZOyruhj/wLS6DUk7ZVBPFjx8K2sy9vHCS9+xa+NBfN7Q353b7WDKxIH07hW+Bt5cfjHtZC4dM5ylO/cQ63Zxat8eOKsZlihEbeRfThsXbXdyfo8RfLJ7Ld5yZRG3zcFPB05qsTgsS/Pyl8t4Y+5KDpf46Nm5A/dcNpkTB/docJsF/l18mflTTMuHhcmFF1psTe/C/+aMO7q7itth5+fnnVLnNh12G2P6dmPkw5czf8Em5ny1Hpvd4OwzhnPqyf0bHGtjdImP5fyRg2s/UbSeCKlhS8KOAL8dPgOnsvN+xkosNLEON/cPO4OTU0K7gJiWxQ9bMtiRdYjeKR04ZUDPJv/K/Y+PfuC9+T/iLRs2l3HgEL98djb/vPsihvdpWD123r778Zr5HP1pUTCg70F8RTksX92NAWkp/Oyckxnao/5Tqu02g9OmDuG0qTXfrBQCIuemoyTsCOAwbPxmxJn8athpFAd8xDujjt5gyysu5arn3iW7sAhfwMTpsJESG8MbP72UxOiq5YWGKPUFeHfej/gCFadoewNBnv90Cc/+4sJ6tWdpi0/3vkK+fzdGpZ8UrXxMPvEAj1/yp8aGLUTdRUjCljsfEcRp2Eh0eSqMhvjz7PlkHiqg2BcgaFmU+AJk5hXwp0+abgRJTkExhhG+Zr1jX9X1PmrzxYHZLMyZV+3PiKnb9qpyhw8VcXBXjqwvLVqc9LAj3Ffr0ytM3QYImhZfr2+6BZKSE2KqTU59u3asczsl/gBfrNvCN9anWAaY2sCmKo6btikXvWNPb1S8Ndm5fg9vPvox6Wt2061/F668fyYDx9Ztg9nDuYU8dsO/WPPtRgybQUxiNHf98yeMPX14s8UrWkiE/O6VHnaEqy6RVjeypCHcTjtXTh+F22mvcvyW8ybUqY2MnDxO++uLPPb5NwTxA4ptpZ0wtcIsC9XUinhnDwYlXNJksZe3ecV2fj71D/wweyX7d2axbM4a7j3rUVZ8va5O1//u/Mf5cf4GAv4gvlI/ufvyePjyp8nYmNks8YqWoXTjHi1JEnaEmziwF7ZKQ+xsSjFpUK8mfZ/bZp7EbTNPIinOg81QDOiWzN/vvIChvep2Q/DX788hv6SUolKTgD+U+A+bUawu6k6mrwMHfLEUWMM4u9t/sBvuJo39iBd+/Ta+Ej/aOvZT5iv189wvX6/12owNe8jYmEkwUPEbQcAX5ONn5zZ5rLUpDQSYs30bH2/ZRE5JSYu//3EnQibOSEkkwv3u/KmszzxIYamPEn8Aj9NBjNvFb2dObdL3UUpx1Wmjueq00fW+tsjrY8Peg4Q6/Yqda7vSb9RubHZNQNvZ50/EoZzc0ePnGKr5/kluW5UR9vi+nVn4fQGcruoXY8rOPITNbqty3DIt9m0/0FQh1smSvXv4yacfowhNtw9aFvedNJHrR45q0TiOKxFSEpGEHeFS4mL44p7rmbtuG+kHc+nbKYnTh/Wrda2KnNJinl+7nPl7dpAU5eGmoWOY3qNvs8RYeZJN1p4kzKCNHoP3ExXtp19CLy7oein9Yhu+IqHWAbBywUhEqfCLO8UlxZCzL6/KcbfHid1RNRmX12dEDwK+qgs5Od0ORk5uuTHWpYEAP/n04wo78QD8ZfH3jO+axuBkWff6eCYlkeOAy2Hn3FGDuGvGKZw7alCtyfqQt4QZH77KyxtWsi0/lyX793DH/M947selzRJftMvJyO5dKoxuyd2fwPpvh9Lv0PXcO/DBBidrrTXBohfwHxyFP2sq/oOjCB5+HB1midqL7zoLl6figkyuKCfn3jwdo5Zx6x06JzDjhim4yq30Z7Pb8MRFcc5N0xoUe0Ms2JURZtte8AdN3t+4vsXiON5IDVu0WS+tX0m+30ug3OiS0mCAp1cvotAffhPXxvrzxWeQFOMh2unAZig8Tgd9OyVx+7S63bSsjlnyLmbR06CLAS/oUszilzGLnqty7sxbT+P8207HFeUkKsaNw+Vg+hUnc90DF9XpvX76xNXc9vhV9BicRsfURM64diLPLXmEuKSa925sSqXBADrM93cLXaXXLepB1hIRbdV3ezPwm1V363YYBpsOZTOuc/0X+a9N18R4vrrnBr7ZuJ29eYcZlJrChD7dqx3fXVdm0bOgK6/AV4pZ/G9sMbdXKMcopbjh9xdz+T3ncnB3DsldOxAd76GulFLMuH4yM66f3KiYG+OU7j2qDOME8DgczOjbOlPvI14r9JQbShJ2O9QlOpa12QeqdA4ClkVyVHSzva/TbmfG8KbZu/AoKzv8cV0M+IGq9eyoGDc9G7DzTFuQ7Inmngmn8viSH/CbJpbWeBwOTu3Wg0k9mnZkkGh7JGG3Qz8ZOoYFe3ZSah6bam5XBoOSkukVn9iKkdWfcgxAB8KMoza6VHvzMdLdeMJoxndN4/1N6ykJBDirb38m9ehV7Xrgog6khy3aqrGd0/jjyafx4OJv0EDQMhmZ3IV/TpvZ2qHVmz32NwQOXQ94yx11Y4/7XWuF1CKGpnRiaErk7zbUZkjCFm3ZrP5DObfPQNLzc0l0RZEaE9fiMVjaRGE0am1twzUeR9IbBAufQAe2oOw9scf+AsNV9yVZhZAatmgQS2v2lxQQ63AT52yeGX9HuGx2hiQ1rJcWDGzBW/wiZnAXDtdJuKOvwTDqVk7ZV7qVOfuf4YB3O3blZETC6UztdCN2I/weiLUxnKNwJr3ZoGuFiCSSsNuQr/Zu5oHVn1Mc9GNpi4md+vLY2POIdTRv4q4vv3c+hXk3g/YDJkH/CrzFr5CQ/CWGreIvgLxDxbz/5iKWLkonIdHDWVf2ZXWHJwjoUAkjqH2syZ9DYTCHi7r9Xyt8GiEih4zDbiPW5e3jl8s/ItdXjNcM4LdMvjuYzh2LP2jt0CrQ2qIo/1dlQ+mODA30oa08SgqfrnDu4YISbrvmBT5+fzl7MnJYt3o3s9e9RMCsONY7qP3sKFpJgf9gy3wIISqLkHHYkrDbiP9sWYzPrLhBgN8yWZW7hz3FVadTtxbL3IvWBWFeCRLwflXhyEfvLqOwsLTCgklRXQrBqPqv3KYcHPIfH5sKiwgjq/WJ+tpTnBf2l7XTsHGwtLDF46mOMmIgzLTv0GvxFZ6vWLqdgL/iBJ3DGTFYwao3GYPaT5KrW9MFKkR9REgPW2rYbcT45J5sOXywwnRxCPWy+8W17E7fNTGMRByuCfi8CzHUsW8Emijc0TdWODc5JY6tm/ZRfmnuPV+l0uWUbAz7sURuVy76x04gzlH3zRAaKi/7MO8/M5eV8zeSmBLHRbedxthpx/Z91FozL2sB/9v/JUWBIvrG9uHy7hfTzROZE21EHUXIKBHpYbcR1/cbT7Tdha3c0j5RNgfX9xtPvLNp9mZsKnP33MqW3GRKA3YK/U58po3Z24aQb55T4byLLj+xypKlZkEUee9NpYdnBDZlJ8oWx/ikCzm36y/rHYfWmsNFpQSDVafZh5OfXchPpzzCpy8tYPfWA6z5YSuP3PRvPnph3tFz3t/zIW/tfo9sXw6llpd1BRv4/YY/s7+0ZZdQFSIc6WG3ESlRsXw87Sb+vnEBCw/uINHl4cb+J3Jet2GtHVoFvmCQP85bQ7H/CvokZJPiKWJrXjIFvjj2+Jbz4OnH1uEeMrwbP7v3LJ594kvQmmDQYsDgVP7v/lkkJDZuCvxXCzfz91e/5XBRKTabwfmnjeCnV07Ebqu+D/Lff31N0eGSCjV1X4mfV/88mxlXnox2a7488DUBXXEZ1YAVYPa+/3FLnxsrNymOAwoZhy0aINUTz6NjzmvtMGq089CxG6Db85PZnn+kXGOxMGN3lfNPmzGcydOHsDsjm7h4D8kpjZ+gs2xtBn/65xx8/lBJJhC0+HjuGgJBk1/eUP1Sp6u+3UTQX7U3brMbZGzZh3uADbthI2BWTNgWFtuLdh59XlhQwjcfryRzRw4DRnRj4lkjcLmr3/xARIAWSNhKKRuwAtirtT5HKdULeAdIAlYCV2td8w7UUhIR9dLBE0XADH/TsVNM+F6zw2GjT7/OTZKsAV76YMnRZH2E1x/ks3nrKfVW3WTgiKQuCWGPBwMmiR3jSHImErSCYc/pEhXaCm3XtoNcP/UxXnn8S2Z/tITHXp7NVZc+Tn5uUQM/jWh1LTdK5OfApnLPHwOe1Fr3BfKAWr/CScIW9ZISE8O47mk4Ki34H+Wwc9OJY1skhn0H88MeV0qRf7j6/Q1n3TYdV1TF2ZQ2h43+I3vQqXsSsY5YxnYYg1NV7C07DSfnpZ4FwN/ue5fiwlIyJ9hIvzuenee7WHmBZsaHL5Dnk70VRXhKqTTgbOA/Zc8VMBU4MtHiVeD82tqRhC3q7emZZzG+exoum40YpxOPw8E9k05hYu+eLfL+A3p1CrvrimEoOnaIqfa64Sf355aHZxEV7SrbwMDOkHF9+L+Xbj56zk96X8vE5JNxGg5sykZHZxJ39ruVPjG9KS32sX3jPg4PdnBoghvtUFhuA+1QHHB6ufOHT5rh04oW0fzD+p4C7gWOfD1NAvK11ke+0mUCXWtrRGrYot7i3G5evuwiDhQWkVtcTJ+kJNy1bEvWlG667GRWbtiN13esfOF22blx1gQcYTbKLW/GVacwbdZ4dm87QHxSDMmpFdc/cRgOru11FVf2uAy/5SfKFnV0cSplKFCEkrWz0q8Mu2J51h6yS4ubdU1x0UwaV8PuqJRaUe75C1rrF448UUqdA2RprVcqpSY35o0kYYsG6xwbQ+fY6nu0zaV/zxSe+/1lPPvGAjZvP0jHxBiuu2g8Z5xat81wnW4HfYfVPEnHbtixGxV/PNxRTkZO6MtWT/ghfnbD4HDAKwk7AjVylEiO1npMDa+fDJynlDoLcANxwNNAglLKXtbLTgP21vZGkrBFRBrYuxP/eOCSFn/fux+9hG+fepa9cRrsFXvZTsNOj5jI2gBClGnGUSJa618DvwYo62H/Smt9pVLqfWAWoZEi1wK11tSkhi1EPXRIieOD39xOvNONvaySbqBw2+z8cdwZ2GvZfV2Icu4D7lZKpROqab9Y2wXSwxbNxusNMPfLtSxauI0OHaKZecEYBgzsUu35pUVevnlvMesWbiW1dwpnXTuJ5LQOLRhx3XSOiWPeBbfyypYVLDyQQVp0PDcOGsfwpOo/m2jDWnBNEK31t8C3ZX/eAYyrz/V1SthKqTMJ1VxswH+01o9Wet0FvAaMBnKBS7XWGeVe7w5sBB7SWj9enwBFZCot9XPHra9wYH8+Pl8QpRQL5m/izl+cwZlnjahyfkFuIXdOeZiC3CJ8JX4cTjsfPfc1f/rwLgaP79sKn6BmHdwe7h4xkbtHTGztUEQTiJSZjrV+fyubnfMsMAMYDFyulKp8d+dGIK9sAPiThAaEl/c34IvGhysixWezVx9N1hBa98PnC/LM03Pxhpnc8sajszl0oABfSWiiV8AfxFvi4/HbXkLrCPlpEpErQlbrq0vBbRyQrrXeUTZt8h2g8m6tMwkN/IbQQPBpZQPDUUqdD+wENjRNyKKhfGYOa7J/x1e7TuKb3ZPZcuhpTMtX63UN8cN3m48m6/IMm2Lrlv1Vji/8bHWFNT6OyN53iEMHwq2/LUTTiZT1sOtSEukK7Cn3PBMYX905WuugUqoASFJKeQkV1k8DftX4cEVDBa0SFu69FJ+Zgy7bKWZnwWvk+9Yyvkut9zrqLTYu/AqDlqmJjnZVOe72hN/PUWtwuht+q2X5wm289Z8FZB0oYOCwNK65dQo9eqc0uD0hWlNz39J+iNBc+RoXWlBK3ayUWqGUWpGdnd3MIbVP+4r+R8A6fDRZA1j4yPetJd+3vsnf75xzRqIqlzK0xu0w6N2nasI8+4bJVaeN2w2GjO9LbGLDxnrPnb2ah+99l41r95CTdZiF8zbxs2v+Tcb2rAa1B2Bpi3X56SzKWUtBQNYPOW5ESEmkLl2XvUD5WQbhBngfOSdTKWUH4gndfBwPzFJK/QVIACyllFdr/Uz5i8tmBb0AMGbMGClYNoN831pMXRrmFU2hfzMJrqFN8j5FwWLy/QUc3LQT2/4cgp2TwCr7XxoMUrpkByWFpUTHeSpcd/4t09i8YgdLv1yDrWyJ1KQuidz7wk8aFIcZNHnhyTn4ytXLtdb4vAFeee4bHnri8nq3uafkIL9Z+yzFpheFImgFubzHGVzW/fQGxSjaiFZIvA1Vl4S9HOhXthTgXuAy4IpK58wmNPB7MaGB4PN06E7RqUdOUEo9BBRVTtaiZcQ4emMoF5auWLO2tIXbltro9gNWgBd2vMHinJXYlA1fPz+OCSWY72dBrAcCJhSV4IiLYtOSbYw5veJIEZvdxm9fvpU9W/ez7cddJHftwNCT+h2dFl5fh3KL8Pur1tC11mxeuyfMFTXTWvO7df8k119Q4Wf7nd1fMTC2JyMT+zcoTtH6VNkjEtRaEimbNnkHMIfQ0oDvaa03KKX+oJQ6snjzi4Rq1unA3cD9zRWwaJi02PMxcFTYrktr8FsWKw990+j2X975LktyVhHQQbyWD+3URF3nxjnZQOUVoopKUIC2NJ7Y6nfQ6da/C1MvOZFhJ/dvcLKGUA1dW+G7TUkNWOZ1a+FuCoMlVTpiPsvPZ/u+b0CEQtRfne7maK0/Bz6vdOyBcn/2AhfX0sZDDYivzbAszbbd2Wit6dcjGVuEzWhz2hLpHPtTtuc/hZPQ0LkSy0l2MA4juIhDvgw6uHo2qG2/6ee77KVVdmpRUYqoq9wEvg4dVwpiEqMZ2ALjqt1RTqaeNZx5X6zFX260isvt4IobJ9W7vZKyMkg4hcFwpSYRUY6jkki7tz59P/c/NZtirx8FuF0O/vSzcxk5oNbVENuUHH8WewMJKCxAoctNrT5QurHBCbvE9FLdv3gjycATF4XWmug4D3/+328wWuiX3e33nR3aVPeLddhsCsMwuO72aZw8dVC92xoY1xNTVx126DIcnJo8sinCFa0oUibOSMKuRXGJj58/9l+KS4/t3FPiDXD3Xz/ko6d+QnxM29ogtyYxjhQMHFhU6glj4LE3fAp4nCMGjz2KgkBhlddGpg5hyisnEZMYzZCTBrRYsgZwOu3c/cD53PrLGeQfKia5cxyOBi4DG2VzcWufi/jX9v8SsIJYaFyGk7SoFE7rVK/ZxaItkoR9fJi3fBtWmFqoaWm+XrKVi6ZXnWbdWoKWyarszXz84yaWrMvD43Ry5fiRXDp2OIahGBw/g1W572CVK10oFE6bh+7RDd8txlAG1/a8hH9tfx2/5T/arstwcnXfWXQb3vibmo3hiXbhCTP2u77O7DKBvjFp/G//D+T5izip4zAmp4zBaciPUcSThH18yCsowR+sOtrA7w+SV8N2VC1tTf4mHt/yH4p9PqwoiB2t2LOqC3+dc5i1ew/w5wvPIMaRzLnd/szcfY/gM4vQWCQ4u3FW14cwVM0L/9fm5I5jiXfE8fHeLzjozaFfTC8u6nY2Xcv2Qjxe9I3txs9j6z8kUIimIAm7FicMSsNht2NW2knb7XJwwsC0Voqqojx/AY9tfh6f5UfZQyt0YYfuY/eybX4vvli3hdunnEhaYjxdPSO4rs+7HPLvZk/xdjK9+1iVv5LRiR7iHI1by3lo/ACGxg9oks8kRItphSnmDSUJuxZD+3Zh7JDuLN+w6+iWVG6nnREDujJqUNtI2D/krMCqZoGk2E7FBLPdrMs8QFpiPAAWJh9kvs6ukm34LS925WDugQ+4vtev6B87vCVDF6JtkIR9fFBK8egvzuWL7zcy+9v1aDTnTBzC2ROHNmqccFM6HCiuMqQOQCmNzWESADrHxx49vuLQAjKKtxIom0QTLLv29V1P8dCQf2NrZHlEiEgjPezjiM0wOGfSUM6Z1DTTt5va8IQB/G//PHyWv+ILWuHN89A5PpaR3Y4trr8i77ujybo8S1vsKdlOz+jjY9aeZWkWb8zgm9XpeNwOzpswhP5pya0dlmiLJGGLljI0rj9D4/uzvmDr0aRtBRVFWbEMTuzNE5ecVeHbQPU9aH3c9K4tS3Pvvz9j8aZdlPoCGErx3+/X8bMLTuHyKSe0dnhCNIgk7OOAUor7Bt7C99kr+DZ7CQYGJ8SMZMKoE+gYU3Wlu/EdprG7OB1/pV62y4iia1Svlgq7WS3csJPFG3dR6g+Veyyt8QWCPP3h95w5ZgCJsZ5aWhDtiZRERIuyKRuTU8YzOaXyUuVVjUiYwObCH1mbvwRd1qtWGFzX61cYqurEFq01fv9iAoH1aJXK17u680X6ThLcbq4YNpyRXdreXoZfr9p2NFmXZ7cZLN28mzPHDmyFqESbdJyt1ici2MFDhWzadZDOSXEM6JaMUgpDGVze/XYmJZ/D9qKNRNtjGBI3FpfNXeV6yyohN+dSgsFNaB3EG1T0djhZt/9ysr3x/G/rFu495VSuHdm2ygxRLgeGUlVGzyilcDVwtqM4jknCFq3JsjR/ev1rPl+8EYfdhmVpundO5Jm7LjxaDkiN6kFqVI8a2ykqfIpAYD0QKp+47WA3/Px23Of8bMFllAaDPPr9d1wwcBBx7qoJv7WcN2EIsxdtwBuoOOlJo5kwuGfrBCVEI0XWknOizj5csJYvl27CHzQp9vop9QfYvjeH//t3/fZCLil5nyPJ+gi7oRnWcR8ee+i4w2Zj+b59TRV6kxjcoxO3nTsBp92Gx+Ug2uKGIX8AABWsSURBVO3E43Lw9G3n43ZKP0Ucozi+9nQUEejdeavxVlrAP2harNyaSUFRaT0Wraq6Qt0Rxv+3d+/xUZVnAsd/z1wzSSAQ7hCuBYUgWhXwQm0VpGJbUYu2ulZpV2ut2rW73d3itut+1rWfane31VZ7cdWqrddab11RV9BaFQVBUEGkCYqCgBC5JOQymcuzf8yJDsmEzCRzO5Pn+/mcT2bO5Z0nZ5Jn3nnP+57X+WtVVQYEUs/JWEgXzp/J6bOn8crb7xHy+znxiAmEAv5Ch2WKkTWJ9E9vvL+Dh1dtoLU9wmlHHsbJtZPwePI/wKa5rT3leo8Ire1RqtIspyy0kJbm3wOflBdXqN83jAORRBNIRSDAsaMLe4On7pSVtzFmyiYi8Taa4h5CfKrQIZki1GX+0SJlCTuLbnt2Fb9etpL2aIy4Ks9u2Mzxk8dy0+KFeU/aJx05icdeXE80Fj9o/aDKECMymNR24MB/Ihx+nnhsJ6rNRONBWqLCT9eeSaU/QMjv586zv1yUEzrUNb7IU9tvQFHiGmNlw73UVs1n7sjvFM0oVVMErJdI/7O78QC/fOYV2qOfNCG0tkdYWb+VFzdt4bPT8tu/+ZsLT+D5dZtpamkjHInh9Qh+n5drvvH5jJKVx1PF8OHLaWt9ivbI6/h8Exggp/HdOY0MCASZNWZM1pL1R23N3LLxBZ7dXscAf5DFU2azaMJRvUqu7bEWntp+A9GkvuZRjbFx/zKmDDyJcRXF1avFmHRYws6Sl+vex+fx0N6pzbelPcKy9fV5T9hDqyp48NrFPPKXN1m9aStjhw/iq3OPZvzIzO/IJxIgVL6QEIkpPCuA+Z8antV4G9vbWPjM/7A33EJEE98Krl37NBv27uTfjlmQcXnvNb+WuGVsp5pTRNvYuH+ZJWxzEBs408+EAn5SVQQ9IlQEC3NBbmBFGYtPn8Xi03s/OUG+3Lf5NRrb2z5O1gCtsQgPvruWb0+bw/DQgEMc3ZU1eJiMWMLuX06aOpFUaSLg83L2rOn5D+gQwtEoyzdt5oN9jcwYPZLjJtQUvE33ld1baIt3nSgi4PGxfu9O5maYsMdVHks8xRyMfiljWtWpvY7TlCarYfczZX4fv7r4LC6/41E6LjhHYjH+8Uuf5bBRQwsbXJL39+zj/N8+QGskQjgaI+D1cviIodx54TmUFXAE4NiKQXgRYp2qOjGNM7I8s2QNEPCEWDB6CU9t/7FTTgyv+KgdNJ+x5TZprunEEnbxUVV2Nt3HtsY7iMb3M6jsRCYM/h4h/7islH/MxDE8f823eLnufcKRKMdPGUdVefGM/gP43sNPsqel9eMh29F4nLd27uLWl1Zx5eeO5476l7iz/mUaI21MrRrJVVPncdTgsVTmuJ/1hVNm8ch7bx40s49PPEwYUM20qhG9KnPKwDmMLr+bvzb+hUi8jYmVsxhWZt36jHv1q4T9zt4fsbPpAeLaCkBDy5Psa3uBY0YvJejLztyDQb+Pk2snZaWsbNvT0srGD3d1ub9GOBrjkdffom1oEw9sWU2bkzQ37NvON1f8jmhDJUcOHsN/zz+d8VWDchLblIHDuPmERVy9+n85EAkT0zjHDKnhxuO/3KfmmgpfNUdXn5XFSE3JsSnCik8ktocdjfehBw2zjhOLt/JB42+ZVH11wWLLm0MMDogS4/53XyXcuR1ZQCrbWPvhDhY9dC8vLv4mZb7cjBb83KjJvPilq9javJdKX5AhZRU5eR1junBJwi6+0Q450hypwyNdv9YrEfa3vVqAiLpqizXzfstG9rXvzkp5sXgze5r/yK7G39DS/ibVFeVMGlrd5dJowOvls9PG4UvRn1oEPP7EQKC2aJSl9XVZia07HhHGV1ZbsjZ5Y/cSKUJl3jEoqYZrewj5C3vTflXluV33sqLhUbziI6ZRxlfUcu7Y71Pm7d2N9lvCr7N51/lAnLhGEPEyMDSP/zrr3/naXQ/RHovRGolSHvAzdnAV3zlxDk8+tyZFbBCPJBJ5SyTCtqb9fflVjTF90H8Str+GgcHZ7G9beVDi9kiQmqpLChgZvLn/L7zc8BhRbSeqidi2NG/g0W03cd74zJtqVOO823AxcW1KWgeNrcupqT6VZ6+6hKUbNrFtXyNHjhnJyVMm4vN4WDT+GB5+f+3HbdiJAyHSGASg3O+ndmh2B8wYUxTsXiLFp3b4zdQ1/ICGlv8DIOAdyuQh/0FlYFpB41rR8EiXSXFjGqHuwGpaYwcIedO/9wdAa+Qt4vEDXdartrLnwL1MHrGIrxwzo8v2JTMWMDhQzt2bX6YpEkajHsJ7g2jES8DjoWZgFaeML40pxIxJZhcdi5DXU8HU4TcSi7cS0xb8nuqCDxgBaI6mbmbw4KUt1pxxwibFgJGPNx1im1c8XD71ZC6fejJN4TA3rVrBY/vfRkNw5mFT+e5xJxblTZ6M6RO7+VNx83pCeEn3ftC5N6ny07yx788oB99ZL+Apo8qf+aCbUOAIRMpAmw9aLxJicMU5aZUxIBjkhyedwg9POiXj1zfGbSTe8z7FwKpLReCU4edT5i3H+/Hnp+CXIF8cfVniBkYZEvEyYeiv8Eg5QmLgjkfKqQgey5DKr2YxcmNMPvXLGnaxGRQYzrcn/5wVDY+ypXk9g/0jmDPsbGrKD+91mZVlJzBt9Ar2Nj9KNL6byrI5VAY/UxRNQMYUHWsSMZkY6B/CglEXZ7VMn3cIwwZmt0xjSpFddDTGGDdQrFufMca4hVtq2HbR0RhjXMJq2C6wf08zS+97mY1rtjDusJGcceGJjBhTXeiwjCkdLqlhW8Iuch9+sIe/W3gTbS1h2sNR1r5UxxO/X8H191zG4Udl5z7exvRnHTd/cgNrEilyt//4CZr2t9AeTtz2NBqJ0dbSzo1LHixwZMaUCNW+LXlkCbvIrXlhExrv+kextX4XLQfaChCRMaZQLGEXubJQ6qm5xCP4CjgHozGlxC33w7aEXeS+eMEJBMsOnuHF5/cy57QZBIKWsI3JCu3DkkeWsIvcVy6by+y50wgEfZRXlhEM+Zkyo4bvXLeo0KEZUzLcUsO2KlqR8/m9/MvNF7H9vQa2bNrJqLHVTJw2utBhGVM6FEhxnagYWcJ2idHjhzJ6fOa3WjXGlA5L2MYY444KtiVsY4yxgTPGGOMWORw4IyJjReQ5EXlLRDaIyFXO+moReUZE6pyfg3sqyxK2Mabfy3EvkSjwPVWtBY4HrhCRWmAJsFxVpwDLneeHlFbCFpEFIrJJROpFpEuhIhIUkQec7StFZIKzfr6IrBGRN52fc9P69YwxpkSo6g5Vfc153ARsBMYAZwJ3ObvdBZzVU1k9JmwR8QK3AKcDtcD5zqdDsouBvao6GfgZcIOzvgE4Q1VnAIuB3/X0esYYk1d9GTSTYdu3U5k9GlgJjFDVHc6mncCIno5Pp4Y9G6hX1XdUtR24n8QnQ7LkT4qHgHkiIqq6VlW3O+s3ACERCabxmsYYkxeJu/VprxdgqIisTlouTfk6IpXAH4Hvqmpj8jZVTSv9p9NLZAywNen5NuC47vZR1aiI7AeGkKhhd1gEvKaq4TRe0xhj8ifep6MbVHXmoXYQET+JZH2Pqj7srP5QREap6g4RGQXs6umF8nLRUUSmk2gm+VY32y/t+HTavXt3PkIyxpi8EBEBbgc2qupPkzY9TqKpGOfnYz2VlU7C/gAYm/S8xlmXch8R8QFVwEfO8xrgEeAiVd2c6gVU9VZVnamqM4cNG5ZGSMYYkz19bBLpyRzgQmCuiKxzli8A1wPzRaQOONV5fkjpNIm8CkwRkYkkEvN5wN902qfjk+Jl4BzgWVVVERkEPAEsUdWX0vnNjDEmr3J81z1VfZFEU3kq8zIpq8catqpGgSuBp0l0R3lQVTeIyLUistDZ7XZgiIjUA//AJ/0JrwQmA9ckfbIMzyRAY4zJLffMOJPW0HRVXQos7bTumqTHbcC5KY67DriujzEaY0xO2dB0Y4wxWWU3fypx27ft4eE/rOLdzbupPWIMZy6axdBhAwodljHFJc9NG71lCbuEvbV+G9+/6h4ikRixWJyN67fxp0fWcPNtF1MztrrQ4RlTHBSkb/2w88aaRErYjT9ZSltbhFgs8dcYicRoaQ7zm188U+DIjCkyLrnoaAm7RIXDEd57t+sgJFVYt2ZL/gMyxvSZNYmUKJ/Xi9frIR6PddkWKg8UICJjipg7mrCthl2qvD4Pcz9/BIGA96D1waCPhYsOedsDY/qdHI90zBqrYZewK/7+NBp2NfLmG1vx+7y0R6J85uSpnP+1OYUOzZjiYr1ETKGFQgGuv/ECtm3dw/Zte5gwaRjDR1QVOixjiovS17v15Y0l7H6gZmy1deMzpgRYwjbG9GtC/tuie8sStjHGWMI2xhiXsIRtOrS3RVi5bD17dzcxffYkPjW9ptAhGWM62EVH02HL29v553N/QbQ9SjQaw+MRZs87gu/fshiv17rBG2PSZxkjh1SVay++jaa9zbQ2h4mEo4RbI6xavoFlf1hZ6PCMMQ63DJyxhJ1D2zbvYs+uxi7rw63tPHnPigJEZIxJySU3f7ImkRyKRmJINzO5Rdqj+Q3GGNON/Cfe3rIadg6NP3wkocqyLuuDIT/zFs0qQETGGDezhJ1DHo+Hq3/5dcrKAwSCfgBCFUEmThvDly46qcDRGWMAZ9Z0axIxwIzjJ3P7i9fw7MOv8tGOfRw15zBmzZtuPUSMKSbWrc90qB4+kHMum1foMIwx3bCh6cYY4xYuSdj2vdwYY1zCatjGmP5Ngbg7atiWsI0x/Zx7+mFbwjbGGEvYxhjjEi5J2HbR0RhjXMJq2MaY/s0uOhpjjFsoqDuGOlrCNsYYa8M2xhiTTVbDNsb0b9aGbYwxLuKSJhFL2MYYYwnbGGPcwD1D0+2iozHGuITVsI0x/ZsCceuHbYwx7uCSJhFL2MYYYwnbGGPcQF3TD9suOhpjjEtYDdsY078pqN38yRhjXMIlTSKWsI0xxiUXHa0N2xhjXMJq2MaY/k3VBs4YY4xrlFKTiIgsEJFNIlIvIktSbA+KyAPO9pUiMiFp29XO+k0iclr2QjfGmOzQeLzXSz71mLBFxAvcApwO1ALni0htp90uBvaq6mTgZ8ANzrG1wHnAdGAB8EunPGOMKRLO3fp6u+RROjXs2UC9qr6jqu3A/cCZnfY5E7jLefwQME9ExFl/v6qGVfVdoN4pzxhjTIbSSdhjgK1Jz7c561Luo6pRYD8wJM1jjTGmcDqmCOvtkkdFcdFRRC4FLgUYN25cgaMxxvQ7LhnpmE4N+wNgbNLzGmddyn1ExAdUAR+leSyqequqzlTVmcOGDUs/emOM6SMFNK69XvIpnYT9KjBFRCaKSIDERcTHO+3zOLDYeXwO8KyqqrP+PKcXyURgCrAqO6EbY0wWqCZq2L1d0tBTT7t09dgkoqpREbkSeBrwAneo6gYRuRZYraqPA7cDvxORemAPiaSOs9+DwFtAFLhCVWO9DdYYY9wmqafdfBLX8V4VkcdV9a1My0qrDVtVlwJLO627JulxG3BuN8f+CPhRpoEZY0y+5Lhp4+OedgAi0tHTLjcJ2xhjSlpuLzqm6i13XG8KKrqEvWbNmgYReS+LRQ4FGrJYXjYVa2wWV+aKNbZSj2t8XwtoYu/Ty/ShoX0ookxEVic9v1VVb+1rXKkUXcJW1ax2ExGR1ao6M5tlZkuxxmZxZa5YY7O4eqaqC3L8Emn1lkuH3V7VGGNyK52edmkpuhq2McaUku562vWmrP6QsHPSlpQlxRqbxZW5Yo3N4ioCqXra9YaoS+4Da4wx/Z21YRtjjEu4NmGLSLWIPCMidc7Pwd3st9jZp05EFiet/7MzVHSdswx31nc7GUOu4xKRchF5QkTeFpENInJ90v5fF5HdSfFekmY8WZ98IlvDbHsbm4jMF5E1IvKm83Nu0jEp39c8xTVBRFqTXvvXSccc68RbLyI/d24/nK+4LkiKaZ2IxEXk0862Pp+vNGP7rIi8JiJRETmn07bu/kf7fM5Kjqq6cgF+AixxHi8BbkixTzXwjvNzsPN4sLPtz8DMFMdcDvzaeXwe8EC+4gLKgVOcfQLAC8DpzvOvAzdnGIsX2AxMcsp7HahN5/clMVnF60AQmOiU402nzDzEdjQw2nl8BPBB0jEp39c8xTUBWN9NuauA4wEBnux4X/MRV6d9ZgCbs3W+MohtAnAkcDdwTpr/o306Z6W4uLaGzcGTJtwFnJVin9OAZ1R1j6ruBZ4hMfNNuuUmT8aQ87hUtUVVnwPQxGQRr5Hos9lbuZh8Ip0ycxqbqq5V1e3O+g1ASESCvYghq3F1V6CIjAIGquormshEd5P67yIfcZ3vHJtNPcamqltU9Q2g85DClP8LWTpnJcfNCXuEqu5wHu8ERqTYp6cJFH7rfA3816Q/7O4mY8hnXIjIIOAMYHnS6kUi8oaIPCQiyR3xu5OLySeyNSlFX2JLtgh4TVXDSetSva/5imuiiKwVkedF5KSk/bf1UGau4+rwVeC+Tuv6cr7SjS3TY7NxzkpOUXfrE5FlwMgUm36Q/ERVVUQy7e5ygap+ICIDgD8CF5L4FC90XB33FL8P+Lk6N4wB/gTcp6phEfkWiZrU3O7K6A9EZDqJ+UM/n7S61+9rFuwAxqnqRyJyLPCoE2NREJHjgBZVXZ+0upDny2SoqGvYqnqqqh6RYnkM+ND52tTxlXNXiiK6HRKqqh0/m4B7+WSuye4mY8hLXI5bgTpVvTHpNT9KqkXeBhybotxMX+dQv293x2ZrmG1fYkNEaoBHgItUdXPHAYd4X3Mel9N89JHz+mtItOse5uyf3LTVm3PWp/PlOI9OtessnK90Y8v02Gycs9JT6Eb03i7Af3Lwxb2fpNinGniXxMWMwc7jahLfLIY6+/hJtPdd5jy/goMv3DyYr7icbdeRqOl4Oh0zKunx2cAracTiI3ERZyKfXAya3mmflL8viZnuky86vkPi4lKPZaZ5nvoS2yBn/y+nKDPl+5qnuIYBXufxJBIJpuN97XwB7Qv5ist57nHimZTN85VubEn73knXi47d/S/06ZyV4lLwAHodeKJtbjlQByxLepNnArcl7fe3JC6Y1QPfcNZVAGuAN0hctLop6R+tDPiDs/+q5D/wPMRVQ2LGoo3AOme5xNn2YyfW14HngKlpxvMF4K8kans/cNZdCyzs6fcl0cSzGdhE0hX6VGX28j3sVWzAD4HmpHO0Dhh+qPc1T3Etcl53HYkLxmcklTkTWO+UeTPOoLV8xOVsO5lOH/LZOl9pxjaLRDt0M4la/4ZD/S9k65yV2mIjHY0xxiWKug3bGGPMJyxhG2OMS1jCNsYYl7CEbYwxLmEJ2xhjXMIStjHGuIQlbGOMcQlL2MYY4xL/D1D4yiZllcGAAAAAAElFTkSuQmCC\n",
      "text/plain": [
       "<matplotlib.figure.Figure at 0x1251dd1d0>"
      ]
     },
     "metadata": {},
     "output_type": "display_data"
    }
   ],
   "source": [
    "# display a 2D plot of the digit classes in the latent space\n",
    "x_test_encoded = encoder.predict(x_test, batch_size=batch_size)\n",
    "plt.figure(figsize=(6, 6))\n",
    "plt.scatter(x_test_encoded[:, 0], x_test_encoded[:, 1], c=y_test)\n",
    "plt.colorbar()\n",
    "plt.show()"
   ]
  },
  {
   "cell_type": "code",
   "execution_count": 34,
   "metadata": {},
   "outputs": [],
   "source": [
    "# build a digit generator that can sample from the learned distribution\n",
    "decoder_input = Input(shape=(latent_dim,))\n",
    "_hid_decoded = decoder_hid(decoder_input)\n",
    "_up_decoded = decoder_upsample(_hid_decoded)\n",
    "_reshape_decoded = decoder_reshape(_up_decoded)\n",
    "_deconv_1_decoded = decoder_deconv_1(_reshape_decoded)\n",
    "_deconv_2_decoded = decoder_deconv_2(_deconv_1_decoded)\n",
    "_x_decoded_relu = decoder_deconv_3_upsamp(_deconv_2_decoded)\n",
    "_x_decoded_mean_squash = decoder_mean_squash(_x_decoded_relu)\n",
    "generator = Model(decoder_input, _x_decoded_mean_squash)"
   ]
  },
  {
   "cell_type": "code",
   "execution_count": 35,
   "metadata": {},
   "outputs": [
    {
     "data": {
      "image/png": "iVBORw0KGgoAAAANSUhEUgAAAksAAAJCCAYAAADQsoPKAAAABHNCSVQICAgIfAhkiAAAAAlwSFlzAAALEgAACxIB0t1+/AAAADl0RVh0U29mdHdhcmUAbWF0cGxvdGxpYiB2ZXJzaW9uIDIuMS4yLCBodHRwOi8vbWF0cGxvdGxpYi5vcmcvNQv5yAAAIABJREFUeJzsvVlzHVd2LvidPPM84UzAwQwQAOdRIqmSVArZ4XLZ5XI5otru/gH36b5f/4T+C+2Hjrhv3X6qcIWvXaWSVJbIkkokRQkkQBDzfCaceR6zH9JrcSckUSSRiaLc+UUoKJDAyYWde/j2Wt9ayyTLMgwYMGDAgAEDBgx8O6Q/tQEGDBgwYMCAAQOvMwyyZMCAAQMGDBgw8BwYZMmAAQMGDBgwYOA5MMiSAQMGDBgwYMDAc2CQJQMGDBgwYMCAgefAIEsGDBgwYMCAAQPPgW5kyWQy/cRkMj01mUzrJpPpH/V6jgEDBgwYMGDAgJ4w6VFnyWQymQGsAvhzAPsA7gH432VZXtb8YQYMGDBgwIABAzpCL8/SGwDWZVnelGW5A+D/AfBznZ5lwIABAwYMGDCgGyw6fe4IgD3h630Ab37XN5tMJqOMuAEDBgwYMGDgtHEky3Lk+75JL7L0vTCZTP8NwH/T6LMgyzJMJhP/nSQpTrPBYAAAeB3aupB9JpOJ7XodQHa9DmNkwIABAwYMnCJ2XuSb9CJLBwBGha+T//l3DFmW/wnAPwGGZ8mAAQMGDBgw8PpCL7J0D8CsyWSahEKS/gHA/6HVh5tMJkiSBIfDAQBwOBwIBAIIBoMIBAIAgKGhIXS7XXzxxRcAgFQqhV6vp5UJ32oT/WmxWGC32+F2uwEAbrcbw8PD8Hg8AIBms4m1tTXk83m0220A+nl1TCYTjxcAWK1WWCwWeL1eAEA4HMb4+DiOjo6wtrYGAKhUKuj1erraJP4/2Waz2eD1ejE9Pc3/vre3h0KhgFarBQDo9/u62PRttpnNZtjtdoTDYQDKPKvX66jVagCARqOBbrerqz0iJEnisXI4HLDZbPxv3W4XrVbrVO0h0Ds0m838d7IsYzAY6P6+nmfTd8HwoBowYOBloQtZkmW5ZzKZ/juA3wAwA/i/ZVle0urzTSYTHA4HRkcV59X8/DwmJiYQjUbhdDoBKOG3VCqFBw8eAFAOGgrX6QE6xJxOJxKJBKanpzE2NgYAGBsbQzQa5YNjcXER+XwejUaDCVy/39fUNjosLBYLfD4fIhElJDs+Po5EIoHx8XEAYGLy4MEDtmV9fR3ValXzg44OVbvdDgDweDwYGhpCNBoFAMzOzuLq1asYGRnB06dP2a579+5hb0+RwGltE703Irg+nw/BYBAAMDc3h/Pnz/N7LBQK2NjYwJdffgkAWF5e1oWcmEwmmM1mWK1WFeFOJpOYnZ0FAJ5PpVIJALC0tISVlRX+Wmt7JEmC1WoFoBA1u90Ov98PAIjH4xgaGuLvr9frWF9fRzqdRr1e180eQCG0NpvtG7bZbDaez91uF9VqlW3R+p3RWiMyS7aYzWZYLOotttvtot/vq9a9XiF5kcCazWa2k9YQEVrad2RZ1pVI0jujvZieCUBlh/j3ekJ8b+LZcNyW0wRdbsXxeV0kG5Ik6T5HXhbipUhvu3TTLMmy/L8A/C+9Pt9ms2F+fh4AcO3aNczOzkKSJGxsbAAAdnZ2sLi4iEwmA0DZpE7jJbtcLkxPT+PatWu4cOECAGBkZASdTgePHz8GoJCRXC6Hdrutm6aKJpHVakUgEMD58+cBAJcuXcLVq1dVh9u9e/eQSqVQLBYBKGOl5wZOhDYajeLSpUu4fv06AODq1auIxWI4Ojri72+1Wmi1Wrp4BcVD1263IxQK4cyZM3jjjTcAAG+99RYmJiZQqVQAKO9te3sbzWaTbdPaHgDsNQ0Gg5iZmQGgzPE33ngDk5OTAIBarYZUKoWvvvqKf0YvYmKxWOB2u9nDdv78eZw/fx5nzpwBAIyOjiKTySCVSgEAVldXkclksLu7q7k9RLaJqI2Pj+Ps2bOYmJgAoHhKJUlCKpVCPp8HAGxtbWFpaQnValVzeywWC3uM4/E45ubm+BIXCARgMpmQz+exv78PAMhms8hms8jlcgDAXkotYDKZmKhFIhFcvHiRx8Vut6Ner6NQKGBzcxMAkM/nUa/X0el0AEBzzyTNZ6fTiWQyyetqbGwMtVoNGxsb2NraAgBkMhm0Wi22RZZlzS+QZBPZ89ZbbwEAJiYmkE6n8fnnnwMADg4OUCqVmFTqrXu12Wx8mX3rrbcwPz+PdDoNAPj973+PVCqFRqPBtuh9jtGe6HK5cPbsWX5vJpMJn3zyCTY2NlT2nBYkSeKIyPz8PN577z00Gg3827/9GwBgc3NTV0/2n0zgfVKEQiFcvHgRAPDjH/8YgHLTJ7K0vLyMp0+f6h7mItAm5ff7cfnyZdy8eZO9N41GA0+fPsX9+/cBACsrKyiXyyqypDVoo7Lb7ZidncXCwgIAZayGhoaYfKysrOCLL77A4uIistks26tT/S1YLBY+dOfn53H79m1cu3YNABCLxdBqtbCysoKVlRUAwFdffYVMJqMreQOUg212dha3bt3Cu+++CwCYmppCt9vljWtjYwP379/ncKXWBE4kuKFQCAsLC7h16xYA4J133sHk5CQfZtlsFplMBktLisP20aNHuni5iLiNjo7ye3r77bdx4cIF3uCbzSYKhQIfdFtbW9jY2NDFg2OxWBCJRJhg37hxA7dv32byb7FYkE6n0Ww2US6XASik4OjoSBevpNvtxrlz5wAA7777Lm7evImRkRG2pVwu4/PPP2ci22w2kUqlmHBruc5obADgJz/5CX76059iamoKANDpdHB4eIh79+4x+af5K3q5tAR5kMfGxvDzn/8cf/3Xfw1AIXJbW1v4+OOPec6Uy2XVWHQ6HV32ILvdjvHxcfzN3/wNfvGLXwBQJBt3797lS1qlUvnGxUOv/cdqtSKRSOCv/uqvAAB///d/j9HRUXz88ccAlEt/uVzmi5noBdQDkiTB5/MBAG7evIm/+7u/w9tvvw1AkUTkcjnV/NUzWkOfT3YFAgFcvXoVgDK/f/aznyGfz3P0iIi3XjDanRgwYMCAAQMGDDwHP0jPktPpxK1bt/imEo1GsbOzg8PDQ2xvbwNQXHKVSuVU3ISSJHFY4Mc//jHef/99JJNJ9lo8ffoUd+/eZQZ8dHSEVqulKyMn8e/4+DjOnz+P27dvA1BCgr1ej70jf/jDH/D5559jb2/vG7cXrUG3FrrtXrt2Dbdv3+abTLfbxfr6Oj788EP8/ve/BwBdvUrkkgeU2+XCwgLeffdd9gyYTCak02m+5X300Ud48uSJrokCgHL7DQaDmJ6e5veWSCQAgL1/n3zyCT777DNOYNA6JEgwmUycoDA3NwcAuHLlCnw+H4/D4eEh7t69y57T+/fv881Ta5D3hLy2ly9fxsjICK+1UqmE1dVVfP3111hcXASgeE/1Gh+r1cqh0QsXLmBmZoZ1Zo1GA8ViEel0GgcHSjLw+vo6Dg8PdZtDlPSSTCYxMTHBXtxWq4VisYher8c6pl6vh0ajwV4UrdcZeQV8Ph/rNgHA6/UiHo8jHA7z+vN6vej3+7olcogeimAwiImJCfbCeTweTE1NsX0+nw/VapVDTXquLavViqGhIQ63j4yMwO/3c4g7Ho/D7XbzO+p0Orom35DGFVD0rOfPn+dxMZvNSCaTcLvdHNLudDqnksRhNpvhdrv5nd24cQOxWAyNRoPttdlsuoRuCT8oskRiyampKfzyl7/kTYoEpaurqxyPL5fLp5aJY7FYcOPGDQDAL3/5S8zNzbHAHFBCSQ8fPmSRcrvd1l1IGYvFAADvvfce/vIv/5IPFwpT3LlzB4BCAPb393Ulb7RRud1uLCws4ObNmwCU0FI4HOZQ6draGn71q1/h448/Zk2HnmTXbrfzOF28eBE3b97E8PAwh1QPDw/xwQcf4De/+Q0AJQynJ1EighsKhVhcThuV1WpFJpPBRx99BAD47W9/iydPnui6kZNNsVgM4+PjvKE7HA70+30mAB988AE++ugjrK6uAoBuRAlQ3lkikWDySGJ8OkwePXqETz/9FJ999hmvNz3HyOl08kUpEAjAYrHwHCkUCvjyyy+xtLTECQuZTEbXjEUKfVksFtV6HgwGODo6QiqV4rByPp9HqVTSnfyTMJj2Y0mS+GAjzVaz2USz2eS9QOt1L46F2WyG2WzmZxBBoPOl1+uh3++zvXodwPSZDoeDdW+U3EFZ3fQeRcG33pISmkPBYBAej4f3Q5fLBUB5N8/LNtULkiQhHo8DUEilzWZDp9NBoVA4lef/YMiSJEmsS/jFL36BK1eu8OSmWPzq6irrFE5L0G02mzEyMoKf/OQnAIBz587BZrNhb28Pn3zyCQAlo2t3d1cXncJxmEwmuFwuvPPOOwCAv/3bv8Xk5CTfJtPpND799FP23Gxuburu5aL3NDExgffffx9//ud/DgAYHh7GYDBgIfCvf/1rfPDBB7roS47DbDYjGAyyJui9997DpUuXYLfbWej+7//+7/jVr37F3ko9DzlJknjDvHTpEm7cuIGrV6/yzbtWq+Hjjz/Gv/zLvwBQvJV6kQDgGVlyuVyYmZnB3NwcZwVKkoRyucxz6Le//S1WV1d1JUn0XBJ3k8fE5XKh2+3yhnnv3j0mSnqOD/BsjGiu0vyg5+ZyOayvr+PJkyecaEIaHb1A3pBCoYBKpcLj1G63WeBNlzjyNOkF+ux0Oo29vT1eV36/H/1+H5Ik8VhRtqLe677T6WB3dxfb29sqewaDAZMEWZbR6XRUYnO90G63sb29zZf8q1evIhgMMpFzOBwwmUy6EzdCr9dj7VY6nUa1WuXn9ft9PkfIPr0jN/Rs8oLSOyES2W63+e/0Fr8bmiUDBgwYMGDAgIHn4AfhWaK6ShS++elPfwq/38+3yd///vd49OgRcrkc32YoLfx4vQqtmKd4837//ffx/vvv89dHR0e4e/cu7t27B0AJ33Q6Hf4ZcgHrwcolScLo6ChndE1OTsLpdHLI5He/+x3u3r3L3pxer6dr/QzSvACK1uWdd97hkOBgMMDW1hb+9V//FQBw586dU3Op2mw2TE5OclbVrVu34PF4kM/n2WPyu9/9Dru7u7qHKQB1JtP8/DzefvttJBIJ9tY8ePAAH374IWd76u2hoBukz+dDMpnEtWvXOGTZbrexuLiITz/9FICShaK3PcAzz1IgEOAQvN/vR6vVYn3S/fv3kU6nT6U4p6iDARTdjcvl4pDg6uoqlpeXkc/nT2UOAc/mRbPZVBXu7XQ6yGQy2NnZYb2J3l4c2k+azaZqDKxWKxwOB2q1Gnsxms3mqcgmZFnmshvk1TKbzXC5XPz8Wq2ma/mUb7OHSks0Gg2ODpBt3W6X57Pe0RJZlnlcUqmUKivQZrOxPfQuT6vmkizLaDQavB9SKLXb7X4ju1MvvNZkSdyM/H4/aybi8ThkWeb08rt372J7exv1ep0HzOFwwOVyIRQK8We1Wi1VBeZms/nKC0IULy4sLLC7ezAYYGVlBXfu3OHihZVKBRaLhTcur9eLTqeDdrvNE7PVamniYrVarTh//jwuX77MzyqXy/jDH/4AQNGXrK+v8zi5XC6O/dJG2+120el0NNksTCYTj82VK1cwOTnJ2pyDgwP8+te/5nBlPp+H1Wple4BnAkKtap2ItV/OnDnDZCkYDKLb7eLBgwesC9rb22OiTraI4kotNwqbzcZhrsuXL2N4eBg2mw3Ly8sAFG3ZxsYGj4PValXpQLQGhU5DoRBmZmYwMjLC47C5uYk7d+5weLLf78Nqtepej8ZsNsPpdCIejzNxczgc2N7e5rWWTqchyzIkSTqVau9iqnUgEIDNZsPOjtJqamVlhcn/8V6VekAsYEj7DelNKpUK9vb2VLWm9Nad0Dygw1UsANtqtVAoFFijRPacBhlot9uo1WoqDdVgMNBNL/V99nQ6Ha4J1mq1IEkSrz/687Q0QrIsMzE7PDxEoVBQlTRxuVyqAqenBRonCjOLxVZPC681WSLYbDaMjIxwhoDdbldpJlZXV1Gv1yHLMhetmpiYwOTkJBeIc7lcaLVaWF9f59o0e3t7r3yjoQN/dnYWFy9e5E0pn8/j008/xfLyMhMht9uNoaEhFqUODw/D7Xaj2Wyy8HN1dRW5XO5ENwiqRXHu3Dk+TABgd3cXd+/eBaAsAKvVyhlfoVAIiUQCLpeLWfvKygq2t7dZ/3USxm6323HlyhUAivfG6/XybeXu3btYWlri3zkcDsPlciESiai0Omtra6z5aDQaJ9rMaMOORqO4efMmzw+z2YynT5/izp07vHF5vV7+j1AsFvk2XK1WNclMoZsk1Q27ePEiXC4XcrkcC/FTqRQcDgcTT4vFgmazyYcftV7R4rAxmUw8v+fm5nD58mX4/X5+bw8ePEA6nWaNRyAQQL/fZ1uI+OuRXRWNRjEzM8MC2G63i7W1Ndaf2Gw2uN1uWK1WvhTplT0kyzJcLhe/E9K+EEFqNBqw2Wyw2Wyq6tB6HcZEEgFw9XeRsHS7Xb6RA9CdUB6vDE57JImYRXvFqtV6ggjlcZLmdDp5zp+WLWSPKHQnu8gb7/P5/iTEBFCSJkQdorj//CmqeItEDnjmaRYr0usJQ7NkwIABAwYMGDDwHLzWniVRFzQ1NaXyAhwdHXFqMCn2w+Ewl2a/du0axsfHmaHb7XY0m034fD5my5QN8rLhA/LgAEpoiTQ4gOK5IU8XpX3Pz8/j7NmzGB4eBqDcQKl2BrnwG40GKpWKKuvhZWG323H+/Hm88847nFnVaDS4jhKgeAFGRka4x1gikYDf71dpLQKBANrtNrs8XzU8aDabEYvFOONsbGwMJpOJbVlcXIQsy1y/Z3h4GPF4HD6fj2959XodQ0NDrI85SdVzUQvwxhtv4NatWzw/yuUy7t27h0ajwS0ivF4vwuEwp4a3Wi1ks1mul7W2tvaNysOvAovFgqmpKc5gjEQiGAwG2NzcZG/N8PAwRkZG2OPmcDhYgwIoobFisaiJVsdkMvG8PH/+PMbHx2E2m1UV3mneAIq3pNvtcsjw6OiI16RWni7gmYdZDOUWi0UMBgNeW7Iso1wuo1QqcUVfyrLS+uZpNpvhcDh4nTscDvR6PQ5Xjo+Po1QqwWq1sreJKlPrdQumz7XZbHA6nar09ImJCezu7rL3gnrU6W0LPYM8kZR5Rn0qAWX9nYbuTZZl9Ho91Go1lZ7Vbrdz/bdIJKJquaQ3xB6PFCEhL9zk5CT8fj+XezgNjw7tr9VqFdlsls8iyvwW59VpQpZlPrvJJtHrpnf49LUmS+SiDYfDGBkZ4Zoq7XYb+/v7LOyy2+2IRCJ4++238d577wEAH8AUCqPWBIlEgg8CKq51vKnj98Fms3G9h/n5ebjdbn7O0tISarUapqamcPbsWQDA7du3MT09rUq7JF0OHUA+n48J3auOk8/nw5UrV1j7AijkbXNzk8ldMpnEjRs3VCFNk8kEu93O5CibzeL+/fuqePmrLA673Y4bN25wDyaHw4FSqcSFFBuNBmZmZrhdxJkzZ+B2u2E2m3ljLRaLODw85K/NZvMrb/CSJHH48Uc/+hFisRhv0CsrKzg4OMDw8DBvmslkEoFAQBUX//LLL5nsbW5unshFTj/r9Xpx69YtbkljMpmwv7+PJ0+esOZudnYWfr+fQ4LUhoU+I51Oo1KpaHL4WSwW1gdeunQJVqsVxWKR05tpnonPSaVSPF+++OILNBoNzQiKqDOLRCJwOBw8V3O5HAKBAK+1aDSKfD6Pra0tDs0d1yZqtdFTryr6vSmNWexf1el04HA4ONwuFjvUGtQOBngm1CVS6fV6cfbsWRweHvK+2Wq10G63T0VYLV6+ut0u3G43zp49y8L8g4MDnjNkv55oNBosMxgMBtwHDVBq+Gxubp5KqRfRHkAp+dDv9/lSNDU1hWAwyHvQaei6CJ1OR1VewuVyqZrVnzaO/95iU/bTwGtNlmjhB4NBBINBHhjK7KCN4Pz587h06RLefPNNPujsdjvy+TxrXQKBABwOB3w+H9+IPR6PSkz8Ijc+sREjAK7UTQsvnU4jGo1iamqKe2lNTk6yzgpQFgb9PuQBcrlcsFgsqhj+iy4KGqdEIoGzZ8/C4/GoSEC73eZxuXr1KhYWFvj2S01q3W43LwK73Q6LxaJaoC8LqpR74cIFHitA0YmRNyQQCODixYtMlpxOJx9qZEu73dZExEdeJeotdO3aNdhsNlXhUEmSMDc3x/ZQjRMaX7PZjEgkciLvnwj63PHxcVy/fp29XNVqFV9++SVKpRJ7uebn5/m9EILBICc5DAYDTQ49k8kEj8eD6elpAAr5qNfrWFpa4gzKaDSKsbExnkODwQDZbJYPF9FGLSBm5gUCAa4XBCgVsX0+H5M7akJqtVpZgJ7JZDQ9YI4LXmldb2xsoFqt8v6STCZht9tht9vZm5PJZNBsNnXLPKWxqtfr2NjY4Aum1+tFLBbD+fPnmSyVy2XU63Xdm3nT/vjkyRMAyiU1EAhgaGiIL3ZPnz5FpVI5ldpGsiyjUqkwgT137hzC4TBfKEkzSToivT1eoseEshVpbXk8HkQikRNfXF8FdM6SbV6vF3a7HW63m8+p0yr8TBC1ZmTjaY3Ha02WRI+Jx+NRHdrhcJjDchaLBZcvX0YikWAWXC6XsbS0xAfz/Pw85ubmEAgE+FByOBwqweOLCJkpM09MXe52u7ywnE4np6QTSaDDhMICxWIR165dw9DQkGoRUHYNPedFJqLJZOKb7Pnz5zE2NobBYMAbeKFQQCQSwaVLlwAoJeypEzqg3Mz7/T4WFhZUFWypiq34nJeZlA6HAwsLC5ifn+f3Rhk5tBHMzs7izJkz/NxSqYRms8kLksau0WicOFOFXMg0DpRyTmRalmWeI+QCJ1c9EVqr1Yput8texJMIqsUsKvIG0u+Wz+dRq9UwMjLCpMVms6HX6/FYOZ1OuN1uHlutUp2tVitisRh74IjkZ7NZfiehUAgWi4XHicSx5G2lS4xWXiW6JIVCIfj9fpRKJa7w3u12VdlD5H0rFAocHiOPmJYeJeBZ+jIR7larxZ5aQDnoksmkqhmz2+3mtakljnvHM5kMvv76ayaRdKmbmJjgNPXd3V2k0+lvHEBao9/vI5fLMTkhoi1W0I/H40ilUhx21rvBeL1e53GoVCqqyzidERQaO40Cx/QO8vk8ms2mSoIiis/18kp+G6j9DIX2qRQFlRAA9Eue+C6QjEIka6dVlsMQeBswYMCAAQMGDDwHr7VnidgrCcqIQfb7ffj9fm5/YrPZ4PV6YTKZWKS8vb2tqicUDAbh9XrRbrfZs0E1hoilvgisVis3gaSve70es2+XywWXywW/38+fW61Wsb6+zmEBSieWJElVqE205UVDX2azmW/Q1HRRLNRlsVgQj8f5eywWC2q1GvfxKhQKGBoagtVqZU9So9F4ZbZO9ovNKulzy+Uy2u02F1+k/j5k69raGvr9vqo9S6/XQ7FYZG/Oq9w4yfs2Pz/Pbn+z2YxGo8EewUAggEQiAUmSWNy5tbWlanJpMpnQbDY5BHSSW5XNZmPP6MTEBHsoAUVj43a72fsFKDfOarXKniaPxwNJkjhEQP0GX9UeMdQ1PT2t8tq2222VTiGbzbJWCABmZmbg8Xg4/GS32zWr0WW1WtlzmkwmEY/H+XYJKN6cra0tfmcUUpmZmWHxsNVq1ayljxjqstlssNvt/DXVcSPvSDgcxrlz5zA9Pc3FRL1ery4p+2SXWPi22+2y57ReryMYDCIajbI2bnt7m5NRAP1CX/Qe6fNzuRzsdjtsNhuHmcfHx7GxscFrS8+2HhRap71KbCYMKHKGWCzGelK9Q19iqB+AquijzWZjnR5972lBjLoAz7S2oVDopc5MLe2hPYfKcXQ6nVOz5bUmS2KNELEHDKB0iScR92Aw4BABbUKDwQDxeJxDA2NjY7BYLKowSrFYRKfTeanaRiTqJLcoNVykw4Qy46hRJPAsvEeEJZlMwu/3o9Pp8MbabrdVDXZf9LCxWCwqDdZgMECn0+EQyejoKGRZZvv6/b5KMxEOhzE5OckiXkDJZiKxMI3Ly2QKAuD+XXTY0u8UjUaZaDqdTvT7fSZLRKTC4TCP3cHBAdLptKoz+stuXPTO4vE4azio7gxtQlR0sdlssnu+Wq1iYmKCv6der2N3d/fE/QdJP0VzheaoOE5UJJMINh0wdNBRHSF6ZycJFdBhBiihruHhYVWR1Xa7DZPJxGGJVCqFXq/HJHJhYUFV74QKmp70gJEkSdWoNhQKcT0wIrmZTAaZTIbX/9DQEAvzRZe9lkSJwjVUg4t+72aziWKxyPN5aGgI09PTSCQSfLELBAKaHngiObLb7aqeebIsM1na3t7mBsR0YaDxpDmkJSRJ4oOWiD8RAqrmnUwmeU8cHR1FKBTitadXaJDmOl02APWFEVD2gmg0qqq7pBdIekFzymQyoVarqbIag8GgqkaV3hCzT81mM78LyhoUie9pheCo9huRJSKwkiSdWnXz15osidlj4gYZiURYHAw8Y+b9fp8nHcXn6VZKgu/79+9zBsb+/v5Le1HMZrOqszilstPGPDMzo7KHbJmdneXF6Xa7OTWc0q3X1tZQrVZf+sVTqX76fyp6Rwc8bYy02Hq9HoLBIP+73W7nsgGPHz8GoHhUyuXyK01Ceo7X62VNGP281WpFIpFQVRnu9Xq8ABwOB4LBIJxOJ2tSHj9+jMPDwxOV1zebzfB4PHC73apmmbIss26IxOWtVos1SsFgkKvFA4r48vDwkMn2Sbw4JHIFwBl3dBmgDb1YLLIehjL5iDg0Gg08ffqUtWcnuYmLuqChoSHWBgEK8SFBNeludnd34fP5eG1ZrVZUKhX+95MKmEUC4HQ6eZxo3eRyOT5UDw4OsLu7yxorGodKpcLkTisRKL0XWm+hUAg+n48/u1QqIZPJ8DhQZWgRYsaXFvaIVbGpoCugrOtqtarSLtJ6pHftdDpVpVO0AukvxUw8j8fDepv9/X1kMhkeP0A/vMcDAAAgAElEQVTZ0ynzE9BXbE6ie5ofe3t7iEajrJ8iUkkEnNaYXjCbzfweSR9IFxGr1YqhoSFej6fRyofGymQyoVqtMvkfDAaq+XPaoGgA8OxCJnrh9IahWTJgwIABAwYMGHgOXmvPEt20Nzc3EQ6HOWwRiURUbJviz5QCDyi30E6nw16A/f193L17F//xH//BRQXJ3fkyt5h+v49sNsvu7Uwmg0AgwOEdsQQAMV632w2fz6fqA7ezs4OPPvoIn332GQDFayHqKl7UJlmWOURFtwCfz8c3NurlI9pPvemAZ/H6ra0t7h/36NEjFIvFE9U86ff73PtO7Ndnt9tVMebBYMC29no9NBoNZLNZ9nItLi4ik8mcKKWYQgJimwMqHkiesMFgwFmAdDsn3QelzC8uLmJjY4M9nK96I5ckCVarlcMS/X6f6/EAim6Isk7IvlgshlgsxnNoZ2cH6+vr3CD5JLdNCncB4AKl4jjb7XYMDw+r6s5MT09zSLBer+Pp06eceVqtVk/krRDrKvl8Pi446fP5uKQFhbVoDZMtExMTrBEkD49WhTqplQp5QOLxOLxeL78jt9sNt9vNXi7ST4mlDqhYpxYwm83svSGdJHn7yFtBtkUiEZw5cwY+n4+9tpTxqpU9okfQarWyB4Jqp9HctVqtnKovenZFL7SWEBuqS5LE64q8FJVKBbIs8/eEQiEMDQ3xetQL5IETtUHVahVHR0e8Z1osFsRiMT7r9NbniK1eLBYLF0sGlHVvsVi+kZl+GqBoDc33wWCgaptzGvhBkKV0Oo2HDx/ywi8UCjh37hwXVhQ1RKLOKZvNYm1tDQDw5MkTrKysYGlp6UT6l263i4ODA06Dpe7ZZEsymeS0ajGdt9VqcTHDjY0NrK6uqmrXvGpl6l6vx8Rtc3MToVAI/X6fD5hwOMzicbJfbEi4sbGBra0tPH36lOug5HK5VxYv088UCgXs7u5iZWWF31s4HIbb7VbVLSJSBShhjLW1NayurvL4Li8vo1KpnDhUUK/Xkcvl+AAdGhpigS7wbEPt9/t8uBYKBVUvwaWlJWxsbLxS4dDj6Pf7PA+p3x2NC72rQCDAYVRJklTC/K+++gpff/01C5tP4ooWwzkUZqKDwuFwwOFwcOV34JlGkN7J+vo6Hjx4wGvtpGE4MTU/GAyyUHtiYgLRaBTRaJTLclB4m77HbrdjY2MDGxsbHD7RKgRnsVjg9Xp5HEZGRlShUUAprEqEZXp6Gg6HA6urq2yLViEDemdic+5IJMLPDgQC3NgXeCY2p+4HAFiL9rJFeb8LYkjQZrOxbdSrTwzLTU1NMeEl0PdpCfr9RAJA+w6t81qtxkQOUNZfIpHg97y1taWpIF8kGmSbqHvLZrN8IfP5fEgkEhyWW11dRavV0rVatTgfGo2GKqGFbKJ3qVfNsG+zSZxDpFkS9ZZ647UmSzSB6JCgG9HXX3+N8fFxJijj4+OIRqNcBwdQdBXr6+t8uGxsbKBUKnHrA+DVNoder4ejoyN8/vnnABQit729zTqoyclJJBIJVeXnSqWCnZ0dtmVrawtra2soFAonrisikqW7d++iXq/j8PCQD5PR0VGEw2FVnLlcLnPNp5WVFSZLtIlSyf1XAY0/VQEXs93oPdEmarFYIMsyawfW19exvLyMzc1NJm5HR0cnFnt2u10Ui0Wsr6+zmNpkMmFsbIw9kVarlTUmYnbe48ePmQQsLi4in8+feKMaDAao1+s83vv7+4jH46qCnMe7jZdKJWxsbODrr78GoBTxW1lZ4flzkg2LkgKAZ55GInJutxsul4s1X/SsWq3GRH9paQnb29t8GThpET/xdxE3Q8oWFcXCVD+I5l06ncba2hpSqRQLl7U6WEjbJWrNwuEwF3x1Op0qj4rJZOK2THTgaClcFvUjoVAIsViMBdMXLlzg7FhA8Rg6HA5Uq1Veb1plCBJEQiLqp+LxOEZGRpgcTU5OYmZmBm63WyUetlgsmhdfJFJJc8jlcsHn8yEcDrM3lbSM9GyqgUb2O51OFZnSCmSXSCwBqOrKSZKESCTCl6ZkMolyuazJhe04aKyOX2ZJ99bv9yFJEl96yVY961CJHkHao4Fnmcji2OmdtfhakyWCLCudmelwyefzePTokSqFl8IWNLjtdhvNZlPVB0mLgRR7CwGK52N1dZUnmN1uh8PhgNPp5JfY6/V06xBP4ndA2fw+/PBDfPbZZ7yJulwuPvAAcKsIOkioiu9Jeq6JICJar9exubmJbDbLN2+v14tgMKgqCmq1WnnzzuVyyGQyqFQqvDlpcaOjBb+4uIjDw0MAwKeffopQKMQhFafTyQUF6WBLpVLY3t7mr2u1mmb2lEolfPnllwCU33txcZEzmYLBIDweD5eloO85ODjghACxvclJIRLEx48fo9PpMPEZGxvjPnBiqnUqlcL6+joAhUTu7OyoxOYntYees7e3p8qAAZQWEOLa6nQ6/F4fPHiABw8eqLw5WsxrWZbRbrdRqVT4c+v1OhMDQNmHKEkAUNbWZ599hs8//xyPHj0C8Czko4U9lNEJgDNySaowOTkJl8ul8tI1m02srKzg/v37AJQLpJZFDsVK4BaLhddWIpHA9PQ0EzlK/iBJA6B4xbXos3gc9HliZh7JOMgLJ2ZxAsrZIWbKUpRA63AlERM6L4BnkQq6rHQ6HZU0IJlMYn19XXOiS3aJZIk872LGNoXh6F1SqQy9KnmLoV2LxcJzjIpliutPb7JkCLwNGDBgwIABAwaegx+EZ+k4yNMk3gjI03PaoBCGGMb4U4GKdJ1G9+4XsaXX66FUKrHniHBcHHgaMW9qm0Iek729vW9oB8gWvWuI0NiI3r3l5WXVjZNqA4l96LSoXfRd9pCHIpfLoVQq4eHDhwCU2yWFR+jZ1BSV5pnWdonPyWazHPJeXl7G3bt3EQ6H2VNQq9VQLpfZs1SpVE5coPO7bOp2uygUCuzdq1QqODo6Yr0U1YMjz9KTJ0+wsbGh0txpKaju9/u876VSKVVI4ujoSFWwz+VyYX9/H3/84x+5QGar1dJUc0KfQ/sxlb2gIoak/fN6vazBobDy559/jr29PZWYWCubxJYYrVYL5XIZBwcHKlF1MBjkJIFqtYqlpSWWKogFK7Wyif6kvUCs3ebz+VjWQc3Vaa+oVCq6hb3IHtF7s7+/zx7k3d1dhEIhdLtdlU7otATWnU6H38nS0hIsFgvW1tZ0CUl+G0yn2dflO40wmf70RhgwYOAbEGuuiHvFae4bog3HBbvHN/jTsEvs32ixWFT2Ac/CUd1uV/dGoyLBFrPjqJq32BGAZAl6j9VxnRBlwJItdrsdTqcTzWaTyVGr1dK1arcYjqQLgEgkxSKUVDOMSJJe5ITGiUJMZJ/X6+Xeo5FIBLVajRNeqHec3u+ObLHZbCwPeOONN2Cz2bC9vc0Xhmq1eip1jijBgiQc4+PjuHDhAtLpNGe3l0qlVx2XB7IsX/9eGwyyZMCAAQMGDBh4HkRP/OvAG45X5j+BTS9ElgzNkgEDBgwYMGDAwHPwg9QsGTBgwIABAwZOD6+DN0mEnrWmvg2GZ8mAAQMGDBgwYOA5MMiSAQMGDBgwYMDAc2CQJQMGDBgwYMCAgefgB6tZet2U+QYMGDBgwICB/5r4QZElsaaIWCLearVyQUZR9EVF4gDtGlh+l11U4Iy6yYvdkAeDgarzda/XO7W6IlTfRKy3IsuyqpaG1WpFp9NRjZVedUXEGjnf9u/UhJhALR30qg3zvO7ZYql98U+aS4PB4NRFhqJtYk2U4/WG/pQwLjIGDBj4r4YfJFlyOBwYGxvD2bNnASj9fiRJ4n5wgFLkbGdnh5t96nWwUVExn88HQOmDlEwm4fP5+HAl26kA2/b2Ng4PD1UFvbTsOyRJEveG8/v9iMVi3F/L4/FwUThAqdBMPaOo4m6pVOIqyFrYc7zBJo2Vy+WC3+/n3j7BYBB+vx9Op5MrMm9tbWF3d5f7E2nZtV0s4ud0OmGz2eByuXhsPB4PAoEA95Bqt9s4OjrC9vY2AKBYLGpaPfbbCucRcbRarXA4HPxeiZTTnD46OuJG0VpCLJxH85mKMYqEXLwwmEwmtFot/k9re44XWxS/Fr+PQFWcxSraWtsk2vI8fFt1eL0uJuKfz3vOaRHabxsbg0wb+KHgB0OWxA3R7Xbj3LlzuH37NgClDHo+n0etVuO2DZ1OB/V6nVsy6OWRoK7oVOX04sWLTJZoU65Wq2g0GnxwVKtVtFotzckbbdZms5kJyMjICObn57klAzWypbYIrVYLDx8+1Lw9hGiPWLk3GAxienoaADA8PIxkMonh4WEAQDgcht/vx/r6Oo9NPp9nz6EW9hAkSYLNZlOR3LGxMUxMTHAz0lAohGAwyA2cDw8P8eTJE249QA12tbBLJLjUqHJ0dBQTExMAgNHRUfh8Pn5v1AB5Z2cHAPDo0aNvtJU5qT2AcjHx+XyIx+NcVTgej6u6tlPrFprf2WwWT5484dYEWtgDKCTS4/EgFArxuCQSCfh8PiaVg8EA1WoV6XSaW0iUSiXkcjn+Wit7LBYLfD4fNxWdnp5GKBTiaszUWiOdTiOXy/HfiZc62q+0sImqPwNK5efp6Wm+JFHT2sPDQ54n1LJGj1YsAFRzKBAIYHR0FICyrgaDAfb29nhtVavVb3iQ9SKRZrMZTqeTm9OGQiHYbDa+LBYKBdTrdbZFb28tXUaAZxc0si2fz+Po6Ijb2ujV8ui77LJYLDyHLl68CLPZjJWVFb7M6hWFeJ5NgNIy5+2338bw8DA7RO7cuYN6va5ftEaXTzVgwIABAwYMGPgvgh+MZwl4xiqdTicmJibYQ7G9vY1qtYp8Ps+MN5fLoVgssndHz146ZrOZbwLxeBwzMzPo9XocOqLwSDqdBqD0HqIbnV520a3f5/MhFoshmUwCAJLJJIeeAKXZ58HBAQqFAturVQjuOGw2G9xuN+LxOABgbGwM169fx9DQEADFY1itVlEqldhrs7u7q3qPJ4XoEbTb7XwTn5ycxMTEBN566y2MjIwAUMaOmsYCys17Z2eHm/GeNMQk2iJJEnsDE4kEzp07h7m5Obz55psAgGg0CqfTybqyra0tbG9vs5dgc3NTkxDccS9XJBLBpUuXsLCwgEuXLgFQxsrlcqkaka6srPC4HB4eIpvNahKiFMN7Xq8XZ86cwY9+9CNcu3YNgDKHqF8UoHiUd3d38cUXX/BesLi4iGazqUkIl3R1ADA0NIRr167hnXfeAQBcvXoVgUCA32uz2cTh4SG+/PJLPH78GACws7ODw8NDzfYl0csViURw48YNAMCtW7dw/fp19gpQU9SvvvoKjx49AgCsra0hn8/zutdyjZnNZvj9fgDA/Pw83nzzTdy8eROA4u2u1+tYXFzEH//4RwBKQ13Rg6K1x0LsAxeLxXD16lVcuHABADA1NYVer8fNa+/cuaNaT2I/PS1BUQmv18tet7m5OUxOTnIkYH9/Hx988AE3P242m7pqXUVpgt/vRyQSweXLlwEAf/EXfwGn04l//ud/xm9+8xsAylmmp2dJ3CPp/ACAGzdu4B/+4R/wxhtvsC1LS0toNBq62fNak6XjXeHpYLt58ybee+89BINBAMqB2m63Ua1WWRdEbl0ttUDfBkmS4PP5mLhdvXoViUQCe3t7Khd7vV5n27QkSmKDU1mWeQHSJjk5OYmRkREmJJFIBLIss/u7UCggnU6rwihadvwWDxe3241kMsm2xGIxxONxJnayLKNarWJra4ubIx4cHGimUxJ/LyJLFD71er2IRqOIx+NMWkwmE+r1OndLv3PnDh48eKCZDue4PbRJRSIRdsWTfUReiLg9fvwYDx8+xAcffAAAfOBpYZOYAOD1ejE8PIyxsTEOl/r9fkiSxAdIu93Gzs4OH8KffPIJhyq1hN1uRzwex9TUFMbGxgAAgUAANpuNx5I2+1arxWRpe3ubx00L0F7gcrkwOjrKh+7IyAisViuTDofDAZPJhHQ6jc3NTQAKCajX65rrpoic0Lhcv34dY2NjHJ5st9swm81oNptMAiqVCsrlsubJE8elCWfOnMHt27dx7tw5AMpFrtVqodvt8qWo0+lgeXlZl4QccW2Fw2FcunQJ77zzDm7dusV/1+12ed3TPk0h7kKhoGlY8HgYd2pqCj/60Y8AKCR3YWGBScH6+jqKxSKPy/7+PhqNhi4Nms1mM4dMAWBhYQFzc3P4sz/7MwAKQel0Onj69CkTSwor69lomGxzuVw8p6anp3Ht2jVEo1GeV4lEAqlUSrew6WtLlkSxJC2++fl5AMDPfvYzLCws8IFfq9VYF0SbIt0GxO7kWtsHKBvm7OwsewDOnTvHk0d8afV6XdMN+7tgNpvhdruxsLAAADh//jxmZmbg8XjY3lqtxgfJwcEByuWyLhoqApEl0gXRhj46OsodyQElPr+0tISnT5+yfkCvLEaz2YxgMMget6GhIfj9ftV7K5fLWF5eZhLw1VdfaS5YFu2hm3ggEIDVakW322XPEYmUqdv3o0eP8Mknn2hGkr7NHrLFYrGg2Wzi4OAAgHKwOZ1O3rAfP36MpaUl3LlzBwA0004B3ySU5F0jDRB5IohwdzodrKysYHd3l0mu1mMkbuCSJPHn5/N5DAYDPtjMZjN7u8nedDqtyxyiSwmttWaziWq1yvtUtVpFsVjkrvWAQrzr9boua4zeFaDMIafTyZdHs9mMSqWisoXWHc0pLfci8dB1uVyIx+MYHR1lQmI2m9FqtVjfejx7WU/9lNPpxNjYGF+2Z2ZmEAwGVc8bDAb8Xi0Wi66eHKvVyk6I0dFR3LhxgxOpPB4PKpUK+v0+k08xiUlPmM1mJpcAMDExgUgkAqvVqiKfxxM9tIShWTJgwIABAwYMGHgOXlvPEvDsBmez2ZBIJPDjH/8YAPDmm2/C7XZzCjdlvhyPLVO9I0C70Bd5vCgsMjw8jNu3b7NLNxgMcsYJuZhrtZpKpW+z2TSNg4seOIfDgYmJCVy8eBGAErJ0u918qyMdBcXA9/f30el0dM08IY/JmTNncOXKFczNzQEA3+zoZv7o0SN8/fXXODg44Fue1hBvmGNjY5zhNTMzg0QigcFgwM/e2NjA/fv38eTJEwDPvBhag95bKBQCoNzEQ6EQrFYreyQsFgsODg7w5ZdfAlC8OVp6cI7bI95k+/0+ms0mMpkMAKVMwcTEBNv2+PFjLC8vs6dXz5tvtVrF4eEhP0OSJHQ6HX6PR0dHWFtbw+rqqmbZiiLIwwco3ut0Os3evqOjI8iyzGGu0dFRpFIpHB4eYn9/H8CzEI+W9gCKB7ZSqbD3b3l5GeVymef70dERXC4XKpUKz5ujoyNdvN2DwQDdbpdDsYeHh1hfX+d/dzqd2N3dRblc5n2JvFzkldPaHlrTxWIRmUwGBwcHvN663S4ODg54PtM5QT+jdciL3lm/30etVkM2m+V5UavV4PV6eU/MZrPo9/v8Hnu9nm4RgMFggEajweuGpCPkeaQQrhhG1lN3K3r5O50OGo2Gag82mUwYDAYqe/Xce15bskQHCKAQkJs3b3JcNxAIoF6vY21tDQCQSqWQzWbRbreZODidTng8HlWqda1WU6XKvsqkowKPFNZaWFjAjRs3OJbaarWwvr6OjY0NfrG1Wg39fp/JAb3kWq2mqV5AkiS43W7Mzc2xGDcUCvFmACjkaH9/n78ulUpcs0cPMbzVauXU6vHxcSwsLLBmiRYmEbeHDx9iY2MDvV7ve+vVvCroc91uN6LRKB+y8/PzsFgs6PV6LFS+d+8eVlZW+D3qmSRgs9nY/R2LxTA7OwuXy8X2FgoFLC4u8sFcLBZ1TWmmS4bNZoPD4UA0GuW1BCgb0+rqKgBgZWWFQ1B6QpZltNtttFotJnMOhwM2m40P/a2tLSZKeug6RHQ6HQ5tAco+5XQ6WfvSaDSQSqWwtbXFxEGvMaKxoQM/lUrB5/OxzpPCupVKhYlbtVrV/eAlW3Z3d1kLEwwG0e120ev1mJDk83m0Wi3d1pior9vf38f29jZisRgAZf2RxpW+t1qt6lZ2RrSp0+kgm83ynrO/vw+Xy8WksdvtQpIkDlfqOaeJnIglQHK5nCpRo9/vo9frnYo9ZBP92ev1+Hk2m431eESWqtXq/z/JEgCVKC8ejzNBaTab2Nrawt27dwEoWhK6RdEAxmIxDA8Ps1ejXC4jn88jl8vxzYpY88sMsCgkpT+73S5vDEtLS/jwww+xsrLCjNxiscBut3OWlclkwv7+PgqFgkpj9SreJhJR0+eSSI+IGWk4PvnkEwBKlmCn0+GbjMvlQjQaRb/fVxV+7Ha7mpAnSZJ4k0wkEvD7/bwJ7ezsYGVlhYkbeS68Xi+PC9U70armiVjYdGhoCLOzswAUAt7pdLC3t4eVlRUAysbVbrfZi+hwOFQbupYHjeiBm5ycxNTUFCwWC2u39vf3cXh4yONC3h/a4PXS5BHZnZ6e5nFIp9PIZDKc3UmHrl4EV9ww6dJBB10oFEIul+P5TNldIuHWemzEukStVov3Ar/fj2g0qqqpVCwWUa1WT+VQ6XQ6qjXscDh4nAC1ZwDQrsbTd9lDn0+ZtvS1z+fjrCUaF1EzpJc9AJhQZjIZZLNZAMq+5PV6OaPZbDaj3W7r2vWBbCIPHO2B29vbmJyc5LUWj8dht9vZFr1tGgwGTITS6TTy+fw3kieIuND3nwYGgwF6vR4/1+/3w2w2o9/v82VFT90tYGiWDBgwYMCAAQMGnovX2rNEcVqq0Eu3plQqhY8//pj1G0dHR+h0OnC73ZzefOPGDfj9fmboFNvc2tri8F2/30e9Xn+hG5Z4O6UsGEC5qVBaMKCkTS8uLqJUKrEnbGRkBMlkUqUvCAaDKBaL7BKnCsNiRsbLgrIGxYycdDqNzz//nDUDg8EAgUCAx4li4JFIhN2Z2WwWpVKJw0+vWtfjeHhpdHRU5S15/PgxDg4O+LMDgQCn81PWQ7FYRKVSUdWAetVbuqjFCYfDOHPmDN+87XY7SqUSUqkUP4t0RDSH7HY7h3MB5SajRT0YSZLgdDq5cvjCwgLC4TD3DwQUD5vFYuE5FY1GIcuyyhaxpcdJIKZax+NxLCwsYHh4mH/PZrOJvb09labQ7Xazx4JueHpUqA+HwxgdHeXsIWoBQ2uaMp+oXQwATUuIAGqdkN1uZ+3L1NQUAoEAz13SVIpeLkmSdPEyiZ4c4Jkmj+a3z+fD3t4eZFnmMAt5A/UIXYj29Ho9VTg+FouxtvPevXsAlDmlp1dA9AaT15y870NDQ4jFYvz13bt3eW3rDfKY0DuRJAl+v19VMkSSJFWtN71BY0Xvj7IaXS4XOp0OWq2W6mw4DZBWmN7R2NgYyyZOI6wMvMZkSXTRkruN3NuZTEbVdqLb7cJisWB8fBzvvvsuAOCdd95RuRQp9upyuXjAbTYbOp3OS/Vnoxo0Yo+uVqvFhOnw8BD1eh12u53T969evYqzZ8+yuzCdTmNnZwftdpvDhmaz+YV6S30b6GeonUgoFOK/29/f5/AWoBA3EjMDz1KKd3Z2VGnHjUZDFd572Q2ViEkgEODWFLFYDL1ejw+Rcrms2hicTieazSbK5TIvgEwmg52dHSaRnU7nlTd42ogApaTC5cuXeS5UKhUUCgVYrVYmkpFIBPV6nTeGvb097O/vs76AUp1f9bARQ4ILCwtcaDEajUKSJHS7XQ7xRCIR9Pt9HqtisYi1tTV23+fzeRY4nvTws1gsfMieOXMG4+PjcDqd/A6cTie3Y6Hfw+v18joqFAocrtSyTY3dbkcgEMDU1BQTcNobyN54PI6JiQlVSIpIpB6hSgrnAgoBd7vdqtpG4XAYkUiE96pKpaILQTn+edSDkeY3hXICgQBrqvRMsxZt6na7qjp5pOvq9XpM/knHqTf6/T46nQ663S6/J+qVSaTX5XKdWluR4+HTbrcLm83G54vb7YbZbD7RJfpl7aFzl8Jex88osen6abU6IbkJzV2v1wtJktDr9fiSr0dygIjXliyJcLlckCSJX0wul0O1WuUJFQgEMDY2hvfff59F4GNjY5w5AyiTrFQqod/vM1OmA4Am4ovcJIgo0aEbCoXgcrl4skuSxIXz3nrrLQDKwRwIBFi702g04PV6kc1mv9EYVYwFv8hEPF70cXR0FJFIhEkiPYOI26VLl1R1l0qlElZXV/nGBSgk5ujoiD/3Vb1cVENEPFRTqRSTt0AggPHxcfao0Dju7u7y+FosFiZ09BmvSt5sNhsfqlNTU3A4HKxf293dRT6fRzAYVN3qms0maxui0SisViv3GCuXy69sD/BM9+bz+TA5OcmaCSJoYnXcZDKJZDLJxC2VSnHcnn5Gi8wmyvQkW/x+P9rttqowXq/XQygUwvnz5wEoN3O6dQLgC4hWB47owSKxK603q9XK+hxAqb/S7XbRarX4cnK8aJ5WVbPpvdNaq9VqqmKdRLzHx8c5U1Dr5ssiRHJK2UNibSPy2tK7TafTuhU4JHsAsGhYJK8ulwsOh4MJlNvt1lWDJ9rU7/fRbrfZE0p1g2gvJq+kXhq8b7OJ9n3ygopNq4/XGjstgkLz+HhTZr21Qd8GerbYhN1kMqmSGvT2cr3WZIkmDC0qWuQmk0klXAwGg7hy5QquX7/OB1273cbBwQFnWpVKJSY5NNlIdCiy9u+bBBQyoedTmwy64Y+NjWF8fBwXL17kFHmXy4VSqcSNRSnFOBgM8rNJfCkKmV/ksKHQG6Cw7WQyyUJyQNmwR0dHWcg8PT0Nh8PBG9f+/j5qtRo8Hg+3IalUKnA6nSyafRlCIDY9dTqdGBkZYfe7SDwAJSxHpIX+vVgswm63s3en0Wjg8PCQidurbmBEAsij5vf7Ua1WeaGtr6/D7XYjEonw7YVuVjTv3G43isUilxI4yWZ6vG2G1+vlzTubzWJ3d5dbWIpt7n8AACAASURBVND3mEwmJpF+vx9Op5MP4adPn2pGTCi0BShzYWVlRVXgMBgMwuPx8MblcDhY/A4own0tm/rSPkCb4+bmJv/eFouFxwJQSCWFLWi90SVJa1AGGl3IHjx4wO2FAOXQPXPmjGqeHRwcfCORQ6vDT0yRz2azePToEV8yEokELBYLZmZmOCRPBWm1ruAt2gMoxO3o6AhPnz4FoBx4IyMjkCSJ9yqqvqx1F4HjIGKSy+W4AWuhUIDX6+V5RuuR5pie7UWIvNF6KZVKqpAkeVNoPZ4GgRMzB0XRPdkqylBOi7zRM2hvpvVOUZDTgCHwNmDAgAEDBgwYeA5+EJ4l0uKQ1ygSiaDT6bBQ2Ol0Ym5uDm63m28m+Xwey8vLfLukvjKjo6OshyFvDrnFXyTmabFYEAqFMDU1BeBZ7zVyJ8diMUiShEQiwbeBcrmMjY0NTkmnm0wsFlP1RWs2m3ybIZH297F2s9nMN/y5uTlMTEwgFoupPDGyLLOuwul0olQqsS17e3vo9XoYHh7mG3GpVILP5+NwE92sXuQGKupwqJ8YjY3JZILH4+F2JyMjI+ytAYDV1VVUKhX4fD4O3UWjUQSDQVWLiX6//1I3GgrBBQIB9nJZrVbuJ0jf43A4YLVaOUyYTqchSRLbEovFEA6H+XZzEoiNcyORCCRJUgnsqYggzSFqJkzvKJlMYmJiAg8fPgTwrKXMq0IsFeBwOHhsS6USSqUSGo0Gi77L5bKq/+DExATm5ubYa0h6Aq30SmJLBdIHil5nn8/HtoyPj2NiYgKlUom9Fnt7e5rdgEVdIdXjoR5i5XIZoVCIvZcjIyNIJBKYnp5mD7fX69W8MCXZJQr+d3Z2IMsyz6lWq4VEIoGhoSGez6FQCIeHh6p6Qlp6CkTNUiqV4rpcPp8PHo9H1euLQrk0NhRS1PK90Z/9fh+VSoW9fUdHRxgeHlb1Q/R6vTzfxX1Yr3IUdPYcD6dT2RmKHlCY9zS8Ocfr3VHyhFiu5jRBfVgBcDTieKFKPfFakyXxhYiZPtR9nA4bWZZZCCdqdQqFAk/4sbExzM/Pq3r+UEE5IgUvAtK90Obs9/tVok6Hw8HiQXL9V6tVZLNZfqk2m42JBB0wRJbEwmjdbvd7w4JWq5XDZ9R3jTYg4FkdKLKPXOIkUibiNjQ0xMStWCwiHo8ziel0Oi+caSWGliYnJzE8PMxEzW63q55jt9vR6XQ4jLG1tYVerwe3280Ei4ohEmkQ39+Lgop1joyMcFgrEonAbrfzc5rNJmw2G46OjjikmkqlVAJ1Es2edKOgkCDNoXA4zHaIaDabfMge3xCIrNNYEqF91U30OPmgtUWCWLHgWyaTgSzLKuIWj8eZnFCo8KQgokRr2Gaz8SVCDA+k02neRH0+H5LJJC5evMi94b7++mvNXPVinzGTycQ1yQAlZEm1lQCFoIyMjDCBA5QQZiaT0U1fIYpzm80mXwwpA2xmZgYzMzMAlCrf6+vrHP7VSpD/XaBxyuVySKVSqvVI65z2j5PO5+eB+ozRflatVlGv13mehUIh1ToXZQha2kOfK4bkaX8Tw3BOp/MbYnw9w19iQoXL5eKzgy7Mes+T77LJbrfzZdfhcLAOWe+iwYTXmiyJKbpiGrXFYuFCioCyKdFhSnA4HBgZGeFNdHZ2Fl6vlw9FAN+oIvs8MiBqcTweDx9uJAakz6Smh6LQk7KwSMgcCAQwOzurSm/e29vjRUz4PnJCHhOaQNFoFKFQCGazWVWBWbyZ9/t9VYdtq9WKRCKBkZERvt0QORHTnV+UINDCikQiiMfjiMViqtT7TqfDC59aVdBmbTKZEAqFEI/HVURY3BheZaFSwcfR0VEeK5/PB5vNxmSD9GPlcpkPu36/D7/fz2J4EhcfL/X/svaQV4lIbjAYhM1m48OE/qxWq3zTbjQacLlcPC7UMkeLDBBKtQeUi4jP5+M502q10Gg0VN3q6/W6qoq9y+WC0+nkn9Fq0yKiRPPH5XJBlpV2IuRBJt0hHbrlcpnHiEgbzTcthN2SJPEatdvtcDgcPB8ajYbq4mWxWNBoNJBMJnneiV5SLWwS15LFYuHfnS5JZE+z2YTT6cSZM2dUniWxKrtW743GieaD1WrlYoYAuIp4IBDgfZQK1lK0QI/MRfqT9kexYXan0+GxoKxGLd/T8yCOFV2axUKQYrkJcR/U0x4A3Jj5+DnUbDZfKoNcCxzPPCUPl7gv6S06NzRLBgwYMGDAgAEDz8Fr7VkS48OtVotDbFScijw11GiQ+ugASr0VuiEASriCeqRR7Hx9fR25XE7lhv4+W8gbIXqAKIMIUG5R9Dl0+/X7/ZienmbmS1qUer3OIShqtkkamkaj8UJMWSxj4PF4OL2aPDyU/Sd64cQ+XzabDV6vF1arlUOClUoF5XKZx5t68rxIZh55AUKhEILBIKLRKHst6HZAX1OfIfIKUOuVUCjEz8rn86r05pfJ3BHfWSgUUuk1fD4fpwwDyvyglF2yJ5lMYmFhgb2TjUYDlUpFld78Kjcrq9UKr9fL3gZy+9N4U+uHVqvFniO3243JyUkOoZjNZlUR0xcdk2+DWDfM6/Wypwt4pqGgUgb0d2IKutvtVrXQOamrXvRoit4/h8OhaogKKHNVrFdGJQuazaaq1IFWmYKiF5nmMn12u91GpVJhG4PBIGe4iuElrewR9VNkl7gPUQkFQJkbiUQCsizz99C81utGLr7HwWDA+2wul4PVasXs7KyqH2I4HNbNcyJ+LoVySc9FJRRIvuB2u+HxeDTzSD7PJrKH5kyhUEChUGDPDXmWRE+O3t4c+vx+v49iscghbDG78TQKdoogj6A4VweDAVKplG6lOI7jtSZLNAibm5vweDysiYhEIpyuDDwLE3U6Hd7ISMBLh2ylUsHW1hbu3buHjz76CICiSXnZF0+9fEiIXSqVEAgE2Ba73a4KgQHgXm20eff7fZTLZTx58oSrkN+9exfZbFZVb+P7QOEp+h1pc+x0OqqaIaI7mWyhjYH0SIVCgUXf1IyUDr8X0U6RPaILl55N9pF4WCTBLpeLyR6VS+j1eiyy3tzcxMHBAafWvqgtIqxWKzweD/9HEEO3VCQvHo+rmrRSqBBQUq339/fZllfpZUWlHvx+P//eVCiQvqaq57VajecDlVkg+yuVCvb29ngevmoTUrKHDs5YLIZ4PM6HmNVqRb1eh8PhYNJiMpkwPT2NN998E4CyoedyORXZPokmh9aP2+1GMBhEMpkEAO4PKTbMpjlHZTpmZ2fR6XS4Ij6gDVmiC4jT6eTQUSQSUSVTUIiW3uPw8DA3shaTSLQiSuKlyGq1wuVysQ7O7XZDlmVVyJDCbrQPUShDy/Abfe7xvcBqtfJ6ob5rg8FAVXzRarXqIhw+XuyX/p8uprVaTZXAQuFuvYt2HrcRUC4i1WpV9ezjMoTTsoWSaegsIpuor99pgi7atLbEd6hnj0MRJyJLJpNpG0AVQB9AT5bl6yaTKQTg/wUwAWAbwP8my3LxZT9blmVmtNvb26pGnYVCAXNzc9wx3uv1cgYPTXgSWtIGvr+/j42NDdy/f58bgL5Muwr6HhLd0qFlNpuRz+dZcJtIJOByuViMCijkqNFo8G04l8vh4OAA6+vrnM2Uz+dV9Vde1CZq/go80yB0Oh2+9VMLkeN1isSswaOjI2xvb3P9leXlZZUH5UWzL8TxL5fLyGQySKVSvCHKsgyn06nK7BAXY7VaRaFQQDabZVt2dna4oe3L2CL+rkSkxWadRBLE+iVms1n12fV6HcVikeuxPH78GBsbG3wjfdWsFKqES2Q6EolgYmKCCTe918FgwGPldDq5ZQ8APHnyBA8fPmQv6Uk2MCpYSLbMzs6yB8vtdqPZbKo8Jn6/nzMZAeW9LS4u8jvL5/OatKSx2+2Ix+M4c+YMAIUwEvkgUWe324XP58O5c+cAKASl2Wxic3OTi1JqIaYmu8j7CShZgMPDw6rkicFgwBv69evXEQqFVF45yuTUApIkqQp2er1eJkukXaJ3FAqFMD8/D7vdzmNHnjL6jJOO03FCIlbIFjWcNJb094Di5RoaGuI1QNXotQYRJypMCSh7eq1W49/f6XQimUxyRe9SqaRrk18AqnNLvCSZzWa43W4el9PMQjv+LKpR9acgkSaTUgGeLvnkZSoWi6dG3LTwLL0ny/KR8PU/AvhQluX/02Qy/eN/fv0/XuWDacJQfzCxpxilTgPg7DQxVFQoFFSd0be2trjnmXjwvqiXQgyt7e3tMfHZ3t7G+Pg4ZwYNDw9z+I8WX6fTQalUYm9JNptlEkCHH91KX9Zr0mg0+JCqVquoVqvY29tjIdzQ0BACgQAfzERCyf5UKoV0Oo2trS1uQ5LL5VRVWl/GJtEbaLfbYbPZ+FmhUIhThoFnYnAxg3FnZ4eJJKCESo+Ojl7J7Su+M+oyTsSHMtvEmzndiMUWOaurq2zLkydPsLq6+kJh2+eBPA1i7yzgWTqsKMgntNttLocBAEtLS1hcXOQw7kluVyLpo0NXFJ+LN036kzJRAIXQrq2tMXE7aY8m+lkS5pMtZ8+exejoKGw2m8ommmeA8q53d3dxeHioeWVfOrgo/D81NYXZ2Vm+mFBiBBEUGrt0Os1kScuWDCLhDgQCXCAXULxwTqeTL3XUBsZut/NcoTC01gcwhXXJWxmPx5FIJPjrSCSCqakpVd9Fp9OJQCDA9lKpjJNCzDgDwKFKt9vN9lByAn2P0+lEJBLhkH06nda8vyDZRt5BsWK3eA5YLBYEg0H2Ztrtdl0raIuXFSLSx8XcIsk9rd5w1BeTxoEu5qflVQL0EXj/HMD//M///58A/laHZxgwYMCAAQMGDJwKTupZkgH81mQyyQD+L1mW/wlATJbl1H/+expA7Dt/+vs+/JgojzwzuVwODx8+VNVfoYKCxHjp9k5egu/SurzsbaHf76tcuKVSCcvLy6o6S5RSTPYByo2S3N+1Wo31VMdj0S9jjywrnb3phk8puST0BhQ3vNPpVGmqut0uhzgLhQLK5bKqj9Srtj+QZZnHJZPJoFKp/H/svVlsXGmWJvbFvu/BCAb3VaIkSrkoM6urylW9uOFGdxuw+2UAP7UNw/1iv3ve7BcD82rAgIEB2vDMg+0eoGHMNOAXV/W4nJVVWZmVi1IrKZIixSWCwdj3Pfxw8zv8b2gjGTdUKvc9QIJJKiLuiX89y3e+g93dXZ3nHQwGRRfimpgSrFQqOD4+Ri6X03niV203oAJv0+k0fvGLX0ik8dtvv9WV4nP9ABCsSy6Xw7Nnz4R3KZfL6SgsrqpTq9VCJpPBb3/7W/l7JpORCMrU1JR4/FwzR0dH2N/fl+jN7u6uDtx4VU+TKT9GOHd2dpBIJGTO6NmqaZRGo4FMJiN4u3v37uHRo0cSmVRLn6+ij1qKzwbB1IW4HLUFSq/Xk9fcv38fv/jFL/Dw4UMhi+x0OmNHBbjX1Mai8Xgc6+vrMm+kAuEZxI7ov/71r6XRdqlUMiRCwTOR0RC/349kMinYrZs3b+r43wgNqFarEiktFAqGpgUpjHgR9zY7O4vV1VWJdodCIYly8Ryq1Wqw2+2Ci1OxjuMIqUc4J4x4EVAOQGgCVLwoW7IAWiuharVqeBRFTUcyysW2K2oajjQ4gHauMso1yUgXcL5mOHaMQKs0IUYVK7xK1DSzmgkgSF/lf5u0jGss/QfD4fDYYrEkAPzfFovlifqPw+Fw+L0h9YJYLJa/AfA3l3mYitJXsS48KN+mqBxQaoroMgSXRulBXcgoTOAi5WW550mJmrqr1Wqo1+tyab1Mn9FNPwnd+v2+VEcxNTPKHaUeCGoz40mw5ZJBmJfWycmJjniTYfler6e7TEb5TYzSq9frybp9/PgxyuWy6JZMJhGJRITrDNCclfv374vhyWpFo3qMqWSuu7u7khYgPm9hYUEO636/j8PDQ3zxxRcAgC+//FIKN4gzMeKS4+FcLBbF8IlEIggGgy+kJ2jAPnz4EJ999hm++uorSUUXi0XDKomoE6CdO+VyWXBaxPzQaWIPrQcPHshYPX36FLlczrCUjnoOqQ4lAd1cY263G+VyGTabTdbU1tYWstmsjsHbKBn9LBrk3Fvdbhenp6eS4qGjrZ7xkxKV8BLQ1nypVJJ5DAaDGAwGktpV04WT1AfQ5rFcLgv8JZVKiYH9NnFL1KXX6wmMYmNjA+VyGScnJ28tFWgxsBLivwdQA/BfAfij4XCYtlgsKQD/z3A4vP6G975daL0ppozIpNoYXObZL6vYUS+gt6WLChxm6bKqGyMsb0MnlQSSEWS1YIGROjoIrDab1DyqYHji3tTKQdUASKfTgpGc1DyqEZNQKCS6ECzNyKnFYkE2m0U6ndYxjBOUbqQwYsILPhgM6ggwY7GYRFIYFX/27BnOzs7EWDI6YqGOk9frhd/vlyjW9PQ0FhYWBJjPIh5GcVl8M4lIDiNLKsXN+vo63n//fQDaGjs6OsJnn30GQCMvVqPbRotKUMso7ieffAIA+PDDD5HJZCRyCxhX3fkqUakxgsGgRE7fe+89dLtd/OpXv5J5GsOo/Wo4HH70phdd2Ty0WCw+i8US4P8D+I8APADw7wD89fcv+2sA//aqzzDFFFNMMcUUU0z5XcuVI0sWi2UFwP/5/a92AP/bcDj8HywWSwzAvwGwAOAAGnVA4Q2fZUaWTDHFFFP+fyoXSR29zajuqD5q4+fRZrVvW6/RXnFWq/VK1ClG6cOoHCODg8FAR3b6NkXl8mL7rHEwpN/LhSJLhqXhxhHTWDLFFFNMMcUUU34HMtk0nCmmmGKKKaaYYso/BTGNJVNMMcUUU0wxxZTXiGksmWKKKaaYYoopprxGTGPJFFNMMcUUU0wx5TViRG+4tyaj/aDI5gmck0OqyPjL9H4bRyer1SokeWQRJzEbAGGgHmUkn5SoPDmqbtRFfTb1miQ3jcojpFZXvO65kyaqVPXi/7+q+uVtknqaYoopppjy7snvjbGkdrEOh8NYWFjA3NwcAM14arfbqNfrQmpWr9eRzWaFrM5okjOVLEvtRM6GkVarVRjGyZ7Ldi2FQgGtVmsiOtlsNjidTuk+PjU1hWg0qitF7XQ6UopaKBRQKpWkBQvwokE1jj6j9PnBYFDI3xwOB5xOp471u9FooFarSZuPVqslLU/4mnFENSLdbreUw3q9XjEsR9m8yQTd7XbR7Xbld7VsdRwZLRe22+1wOBw6Nl3Kqww66mZUY0nVwCUp5evKv9lWQv1ddRiMkpcReF5UJl0K/jpiU9PgNsWU328x03CmmGKKKaaYYoopr5Hfi8gSIyak7p+fn8f7778vkaVKpYJSqSQ9mQB9jzLAOE9uNJXkdrsRj8fx3nvvAQCWlpakPxS96nK5jFqtJlGuUqlkWBpO9fhJ1BUKhXDt2jUAwOLiIkKhkEQtHA6HROEArSXDo0eP0Gw2JV3HBp1XGbPRiITT6ZR5m5ubw+LiojRpDYVCCAQCut5fhUIBT548kR5AlUpFWlqMI0xNqlGuVColayiVSiEajSIWi0k7i2aziVKpJA1is9ksCoUCstksAK3P11UjJ2oLEYfDAY/HIw1ZGTWNRqPSr8pqtaLVakl7iHQ6rYuknpycSJPNq4g6b+pei8fjmJmZwczMjEQEvV4vhsOh9NYqFos4OjqS/ddsNlEul8caH1UvrktGTMPhsERyg8EgPB6PtDqoVCrI5XLI5/OyZhhJZeR03LNAbQXj9/tlrNgkmu0iWq0WKpUKGo2GjNUoXMDIc0Bd32zrwd/tdjva7TaazaaMC/Uw+oxUdQLOoQAcF0aU2+22LkqrwhMm3UJDhSo4HA5pMA5o46I2Xn8bUcDR/ef3++Xfut2uzNlVm4qPoxfP51gsBq/Xi16vJz02W63W7yRKarfbMT8/j7W1NTkjP//8c2QymYlBXN5pY2n04uWhlEqlMDMzI5Oodidn9/RKpSLdmY3WSTWWPB6PNNQEtK7R/X4f1WpVx7qqHvoGMI6+VBd2+/Z4PNJryOVywe/3y2uoJw+pXq8Hm832QgPZqxpK6gHJ70zjw+fzwePxSIowkUhgZWVFdOr1etja2kI6ndZdOOP2QuLBqPY98vl8iMfjcukuLS1haWkJa2trom+v18Px8bE822KxIJPJSIrwqoaJqg+gGdxTU1O4efMmAGBzcxObm5uS0uV7Wq0WcrkcAOA3v/kNMpkMHj9+DEAzyK9qUKpryGazwefzYXFxEQDw8ccf4wc/+AFWV1flAPd4PNIoGQD29/fx5ZdfihH59OlTnJ6eyhq7ij78abfb5bkrKyv46KOPcPfuXSwvLwMA/H4/HA6HzEU+n8f9+/fx1VdfSQPn58+fo16vj32IjvY8m5+fx507d3D79m0AwOrqKiKRiBgobEj88OFD3Lt3DwBwfHyMUqlkSHPWlzltq6urosvc3Bzi8bj8e7lcxu7urqyZnZ0d5HI5XfrdCGE/P15isVgM09PToovP54PP50O9XsfR0REA4ODgAIVCQdaUkUbB6Dh5PB5dbzj29+N6zWazuj517XZ7IhewakSqTbTV/ef1epHP58VhKxQKE7nXgBeNSKfTCYfDIef1xx9/jMXFRdTrdfzsZz8DoO19o1L/r9JJ1Y13/vT0NP7iL/4Cf/mXfynzCAD/8A//8E/PWFIXuNVqhcfjwdraGgDgk08+we3bt7G1tQVAu/hbrZZggwAY3mxQ1UW1tsPhMFZXV+XwDofDqNfrsFgsgocZPfT5XiN0Ug0Ui8UCl8sl3jegHQRer1cWEL0DSrVahdvtNsSrU3VRWweojRlVnJDdbkc4HNZ5UVNTU7DZbBKFq9frY0VvqNco4J9ROOridDoxHA5hs9l02KFQKCTf5eTkBEdHR7LGriLq+KjjbLfbRZdgMAin06m7UG02G9xut1zU/X4f6XRaLuFSqTS2gas+i9G/+fl5XLt2DYFAQIx9u93+wsHlcrkkWrm7uysXzThCY5vfeW1tDbdv38ZHH32kWzMWi0Xm1ePxoNFoYHd3V6KTtVpt7ANdjdwwwra5uYkf/OAH+OEPfwhAi5SqxRSJRALRaBTD4VCa156dnRliCFAfXrKxWAx3797FnTt3AAB/8Ad/gEQiIWvKZrOhXq9jcXFR3tNut3VYxXFltKkvo9sbGxu4ffs25ufnAQCRSAQulwuVSkXO8C+++AK//e1vxcBVswTjyOjZm0wmsby8jLW1NczOzgLQ1vjU1JSs3+3tbfzmN7/Bb3/7WwBAJpMx1EDhGnG5XAgGg5iamsLCwgIALRBw/fp13Lp1S16zvb2Nn//85wCATz/9FLlcbiJYQJ5BNHITiQSSyaSsqT//8z/HzMwMTk9PxailUTkJA0UNMFA33l137tzBH/3RH+H999+Xvc21zXPTaIPSxCyZYooppphiiimmvEbe6cgSw9lMU3z0kda+5U/+5E/gdruxu7sLQEuHtNvtF6gDHA6HWLzMiV/V2lTz21arVbzd9fV13Lx5UzBL3W4Xz58/lzw4oKUKSqWShKFDoRBardbYTRFHw6bEmkSjUUkvzczM6MYhHA4jFApJdMTn8yEYDMJmsxmWFgTOrXo1Csc0nFpJqD5zMBig2+2i1+uJ52JEukLVhz/VdQFo6Rur1YpQKIRYLCb65XI5iQrs7e0Z5vGqkbxer6fDb5ycnKBWq8Hv92NmZgaAFnFzOp04OTkBoKVzvvnmG8EwjTt3o+PCfdRoNLC9va37fL/fr8N2nZyc4OzsDN999x0ALVUw7rpW9VJpOQaDAXK5nFSWEhvI/eh0OlEoFFCv12WsGDEwShj293g8cLvdspcajQaGw6FuzVI/jmez2TQ0bcG9z32cSqVENxWnRRxOp9ORaBPH08iKTkA7hwKBgOhy/fp1bGxsSEqZaVPiqgDtXPL5fK+tKLyqXqxYBrTz8NatW7hz5w5WVlYAQGAKnMdyuYx4PC5rSm2ya4Q+aporEong5s2buHHjBgDg9u3bWF5elujlYDBAu92Wu0M9P40UFavICODGxgZWVlbwox/9CIA2j06nE61WC5FIRPQxIor8Kp3Ue9fj8cjZvLCwgM3NTQQCAbkr/H4/nE6n4fud8s4aSypGaXp6Gh999JGEu1OplG5AWMKtAlNtNhs8Ho8YXGdnZ6jValcu1+cCdTqd8Pl8WFpaAgDcunULP/7xj5FMJgEAuVwOx8fHuhC5ygcFaId3tVoVA24cUdNGfr8fc3NzWFtbE/zLzMwMms2mjBd14cEwGAwQCARkURolTNN4PB5Eo1EA52BhFSjcarXk8mk2mygUCgKCBYw5NFnWrhpuTGnx2RaLBY1GA8fHx5I2tNlsOD09lZRgtVo1VB8KDwVebPl8HpVKBS6XC/l8HgBw7do1RCIRMQDy+TxyuZxh+qii4pEODw9RLpfR7XZ1Y3ft2jVZ86enpygWi4JZMspwAzSjjUZksVgUTBuNVl70TNGnUilUKhVUKhXBLxp10dEQ4t4plUrY3t6WOaJhRGNofn4eoVBIV1Bh1BqiPhybWq2GSqWC4+NjANqa4hkDaLCEZDIplBSAdm6Ok1Ie1YXfq9PpoFaryXeu1+soFoti4DYaDZTLZUQiERkrl8uFfr9vWEpQ1avb7cp66Xa7guvkJU+HiOmnfr8Pv98v42Q0JodrloUHamrX6XTqCgI8Hg+Gw6Hca2rK2Ujh2m61WvLsfr+PXq8nY1ev14VDUIWSTArgreJoh8MhrFarnMWDwUBoXviaWq02Ub7Ad9pYYnTkzp07+Pjjj7GxsQFAu/CLxSIymQwAyOEIQAyUUCiEZDIp3sHh4SGePn2KSqWi87YuuvC4cbxeL2KxmADwZmdnEYlEZEEdHBzg8PAQ+XxenuP3+wWACWiLbn9/X4w34EUMy2XGSc2BBwIBRCIRufDr9TrOzs7kQC+VSohEIjJehDHgOQAAIABJREFUvV4PbrcbNpttbK9ONQJUzJIKNqdXC2jz5nA4ZOOdnp4im83qAJVXrcpTdeBnqJ/ldDrl0AQgh6N6GJVKJRwdHQmo2ggPfFQPALrvCpx75qrDQIDu4eEhgHMchRH6qM9mdI/GUr1eF9wQX+NyueDxeOQyPD4+xvHxsWEX3ejY8HNzuRyCwSCazabs8263C4/HI2uo3W4jnU4jk8kYevGqkTcC6XO5HAKBgFwuBOHTIeG85vN5qR66Kuj9dfoA544Gz8Rms6mL0FosFoTDYQSDQblwisWiYZFbVZd+v49msykRWRrRXK+lUgndbhdra2tSAdpqtVCr1Qw3BBjB5VqoVqsoFAp49uyZjGGxWESz2cT169cBaLgm1cAyUid1bZMXrVqtyvnc7/d1eNdbt27B6/W+UDVotHCc1DVTLBYFMwVoQQu/3w+bzaYzPidZDadmBDqdji4az6wKz2U62pOSd9ZYstlsAlJOJpOYmZmRgTg8PMTPf/5z/PrXvwYAHB0dodVqwe12SxRjZWUFS0tLLxD9pdNp8TiLxeKViQW5eA8PD/HLX/4S5XIZAPDo0SMxhGgcLSwsYH19XQ5RgnW9Xq+uEkWNel1kAQ6HQ53urVYL+Xwee3t7Ou+AUTUAiEajWF5eFi+KaS/VaGF68LKA71Fmcn4nlShUPaCZfuLnl8tl1Ot1NJtN3Vip6crLbEz1PTSCOF69Xk93KHk8HjHmVH1KpZJcjvRkxiU3fFkkh3MAaGDd2dlZXeQrFothZ2dH0m6tVssQA/dlOqneZK/XQygUwuzsrK4abnZ2Fs+ePQMASXsZnR6gA8G9VqlUUK/XEQwGJRzv9XrhcrkkdXB6eopCoTCR1MDoxcv1wXmLRqOIRCLivMzNzaFSqaBYLIo+Rl4s6n5jpSTPP0YjeIbabDbMz8+j3W7LGuKZYLRwjGgApNNpdDodHY2B0+nE7OysjFWlUjE06jaqj2qonZyc6CgTHA4HbDabOOdOp1P0AYyPnKiGbqPRwNHRkThFTqcT0WhUUpherxeNRkPmjKneSQijcFyrx8fHsNvtcrcxosR7BjAOiP86nYBzI5LzyPvTYrGIUW6kw/YyMQHepphiiimmmGKKKa+RdzayNGo9E68AaKWdn376Kfb29gCc5yqdTqeUYP7whz9EIpEQi5yAcTXH2Ww2LxxBYUSi1WqhXC5LaPLs7Az37t2TSE42m0WtVtOln2KxGG7fvo10Og1A432Jx+NC3ge8SMp2kWgXIxJ8T71ex/Pnz1EoFCS8zZJhYpICgYAOc8WURiAQEKucrVjU51w00kVhJEflBioWizoaA5vNhn6/L7oxfUhuKI4DwfuqLpf1rkbTX/R0GaGIx+MSWWIKk+kdFaivRjpGe/6NI1arVaIA169fx+rqqi5l2e/3dXgTgmPV/oPjFgxQ1M+IRCLY2NjA5uamDjehrg9G6ThuRuuiRgO9Xi+WlpakoCIUCunwdicnJ4IdGqWOMELofQNayk+Nam1ubuoiSy6XC8ViUYcdIubDKOH3YjSQz04mk1hbWxMKCFKKPHjwQKICRuGVXqaTGp0EtHlisUIymUQgEMDc3Bx2dnYAaBHBSUYp1IKObrcLm80mUbhkMomFhQUp1z88PEQmk3krURNG37nGPR4PZmZmBFQ9OzuLnZ0dwaJNUqfRPcI9zbtkdnYWLpcLjUZD7t5JRnKoA38ShwxohVXMjhCasLOzM1HOp3fWWOr1emJI1Ot1ZDIZ2dzb29s4ODjQpZqcTidmZmbkEH3//fd1ADGLxYJms6kLPdtstgunMtRwt3o4jzLx0ujx+XwCsn7vvfcE4wRA8B+jALarGAAkvKQO7GXGw5nfjyHm9fV1bGxsyAYoFovw+XxwuVyShhs3zUThAucl6nK5dPqGw2HMzc3pevydnp7i+PhYjKVWq4Vutzt2imeUlyaRSGBubk4uE5/PB6/XC6/XqwMvzszMiLGXy+V0XE2jadDLikpsurCwIJiJ1dVVhMNhHddSu93G1NSUXMzVahXFYlFnKBthuNGpYBqAxQKJRELmsdfroV6vS0VMMpnE7OysjJPaT88oQxI4JxJVOXJoMKqA2EAgIFxV1GcSqQs6RNRlYWFBDGpAOxtobFOXSaQqVX24diORCJaWlgQ4TBgC8CJG7m2I3+8XR3ZmZkacNhWcO6l5AvSpL54nHJu1tTUsLy+Ls7K3t2cI+/xFhM4g94vdbsfy8rKciT6fD41GQzBvk8TkAPrULtNudKxZNZ3L5USfSTeqVzGVVqtVKioJsen3+2Jwl8vlieKn3lljSfXgh8Mhms2mDphNAkZAOzAXFxfxk5/8BB988AEALYLCNiOANpBnZ2fo9Xq69w0GA91zLjLYNLL4/2rrCrvdjng8jjt37uCP//iPAWiRArfbLYcViRpZwcdnc/KBi0dzVOIu0hWoLRicTidCoZB4TZ988olUxQDa5eL1ehGJRMTjZEm/2lD2souQBH4ul0suVbvdjsFgIIfS0tISlpeXZQP0+31EIhHE43Eh+Wy324Kr4ve9ajWjGiWKRCKwWCwSeex2uxK5UasLp6en5TUA8PDhQ11bhKtihtSyWI4RP4ukc8zJ8/MDgYBcOFw7X3/9tejPvP44BwaNJUZFAQ3nQeZjfu92uy2e3dLSElqtlgC+Hz16JB6z0UIAqloNq0YxfD4fUqkUFhYWpPpqtM2JUfguOifEtLXbbTidTpkz4ijj8bhEMbLZ7MSMArWRMveNWmjBikbuP5fLZXikSxXOf6vV0mFDSTConr101oymDqCoDiXB79znwWAQgUBAnkn83dsyJlWjjGcB999gMMDZ2ZlhhQGXEYvFAo/HozO4e70enj9/PvGIkqoDxWq1inObSCRgs9nQ6XQEOzluS6w3iYlZMsUUU0wxxRRTTHmNvNORJYrFYtGFu9kUklGjVCqFO3fu4MMPPxQMSr1ex97enq7lAYnP6H2xbYNakfYmj4YRLVrbS0tLOqIwh8OBeDyOu3fvCveLw+HA6emp4JyazSa8Xi+mpqZ0TWQbjYboxnTPRfRR+W/IZURPNhKJ6NKTyWQSw+FQ+HpOTk5gsVgQj8fFW7dYLKjX67qGmxeNuqm94RwOBwKBgHgDfr8f4XBYqgTZJoPjn81mUSqVJDoAQPBKHJdWq3Xp6Am9RDUaST4ThpNJY8AGn4AWjex0OhISZ8qH6eFxW+qoY9Vut2VOarUanE4nYrGYrDOHw4F+v68rKVbL1tXGsUYIK2IODw+Fd4a6+Hw+XZQumUzC6XTKHDFlblR/L35GrVZDPp/H9va2zAGjqBwXt9uNlZUV1Go1aZ3xsr554+jF9zYaDVQqFcFMEHfGyI3P50MikcDy8rK8Zn9/XwhpjdCFwnJ9VvpmMhlsb29Lup1l32yKDGg4vUKhoCPyNQrfNRyeN78uFotIp9M6IkOXywWfzydnQzKZ1NFRcO0YqQ+gnbOsUOQaYh9Rpkr9fr+OfmWUykT9vHGFvF2MXqu9OikqVofZh9H70Sh91Ghfo9HQ0ZdQv3a7rcMSjYrRGEH1c3m/R6NRWCwWtFotw/nUXiXvrLGkTgIxFGwSub6+ruM2CoVCWFxcRDgclgHLZrM4ODgQYNxwOMTU1BSCwaBcBAwrskT0IpeN0+lEPB4XPNLq6iqSyaTOYIlEIrqGmtVqFU+fPhVdarWalF/zACEQVCWvUw/Vly0Epkx4ic3Pz2N9fR0LCwtCGDg1NYV4PC4pE0C7WB88eABAM5ba7bbOQKFxx3FhCvQiDYBVHE40GsXCwoIczisrK1JeDUA6WNNI2NnZkYVPY49GMedG3cyX4cgiYSnHgeXCamqGPY5UQLrdbpcLZ3V1FYVCQYy9crksaYzLGm9qh3i73Y5GoyElsI1GQ0pieVBxrdNhuHXrFkKhkISg/X7/WOXyquEGQOb+7OwMjUYDTqdTdHG5XMLbA2j7cX19Xd7z4MED4Tka93JRqRra7TaKxSKePXsmKTYaSsS4LS8vY3Z2Fs1mU8bm4OBAR1Exrqj4RJX7qlqtIhAIyH5MpVJYWVnB6uoqnjx5AkA7q9QS+XENAvWcVMu+0+k0hsOhGATtdhvz8/M6VvhIJAK32/3CfjIilat+Rr1eR6lUkvPP5/MhGo3C6XTKfgyHwzq+rJfhqsbViZ/RbrfRbDZ1fFNqypKNyFXYBN87iTShmkZWcazUW03Zq5AP9TVG6KOmKoHzIhjOCXG2jUbjhbN30ilLjgGNJe73Wq0mPF6Txpi9s8aSGslgZIHYnHg8jo8//liiAgAEEKsy2rbbbfE4SSQZCoVk09IbUz/nVaJWISUSCQFMLy4u6jiUCJBzOp068G2lUpHJ9Pv9CAQCsNvt4o1Xq1WcnZ2Jbvv7+zoSrleJy+WSy3x5eRmrq6vY3NzUVcEA580byX9Cg6DRaMDlcmFqakq+Ew0sdgQ/OzvT8Q29yjig8QbowdtsK0Dgsrrxi8WiXDbkyYhEIqKLx+ORCkTgPMp1mRw+vSMSdgLapRUKhWR8eAicnp7KeqjVaggGg2J4RqNRzM/Py2eoUbHLCMeJnqvT6RQ8F3AeTWs0Gjovj9WcgFY04PV6ZZxUvMdV9FFb5qgFDASOq6y9/M5cY1NTU1hfX5cIXCqVwqNHjwCMf8Gp2JHhcIhqtapraUBjlYen1+vF+vo6Njc3xUDxer26wo5xDBN1rMh0Tl263S4KhYLstVqthqWlJUxPT4ujd+/ePWQyGd2FaIQRwJ+cGxpy/L1Wq8FiseDmzZtSbJJMJgW3xO8zrj7URV1HLyN7zWaz8Pv9EjHhXhytYDSqaEF1BtSiHgDCWk3DjZjUlz3XSCNJnTvurdFnE687GuWflE7AuXFILiPeoawErVQqLxjYk4rqqGPk8/nkriPmLZfLibE0abC5iVkyxRRTTDHFFFNMeY28s5El1RPpdrtotVq6MGkqlRIPrtVqSWqAlqjf78fs7KyurDcajWI4HOpaAAC4VFqH1SS0cFkGS+ubpe7AeTWI3W5HLBYT/cnvo+am0+m0ru8UOZleZ7ETg0NdVlZWsL6+jpmZGR1PkZrjpqfGf2f5czQalXEIhUJwOBy6BqGNRuOFqqKXCSM109PTUpJLrzqZTOo8c1ZwMeLmcDjgdruRTCYlJWiz2SQKBEAiXBeJovA1rAhcWFiQ0numZCmMEtRqNfnew+EQHo9HXhcMBnUcUHa7XbiiLiNWqxVut1vSWJFIRMc/xVC8SnXBVKlahclUInA+7lcRNSLo8Xh0PRVZfcbIG6ClBMnCTF2cTqeMk9PpFL2uqg9wXgo/yuZerVZ1lApkGQc0DCHniKlcVjkaEaEYbVwNQJc6VyONNpsNlUoF09PTsp6j0agucmdE5A04T8/ws5m+ZlquWq0iFArpaEOi0ahEdozSR/2ppnNarZaO887n8yGZTMqaYUpQTXkZGa3gZ7GNCaP9wHnbF7WiWWX4noQ+/Ez2EmTkqNVqvXC+qVXdk47kqN9zMBjo0n4Wi8avls1mJW04aZwQxWq1wuPxSCSd0bd8Pv/WIkvvrLEEQBcebjabMkEWi0U6DAPnfWLUvHMgEMDi4qK8hmXYpVJJQN/Hx8fIZDJy2F0EizNamk8OFRpLbAjJFB+gXUDJZFKXviF1AHEqtVoNxWJRfq9UKm8svWZpJzE0yWRSgJIqr4uaByc/jroZmZ9nDh/Q9x5jGvRNRoEKBkylUpiZmcHq6qpgJKiTOs4ul0vSXF6vF8FgEPF4XNfbTh3v0ZD+m8ZHfcbs7Kykiubm5uBwOGRcVE4cppe8Xi9WV1fFwOIGVY2Ey25Qi8UiWA0+h+BblZ+HhzovX4fDIdxQ1K3b7epaNlxFRvFTxP+wdFkF1nN9dLtd+P1+MRqDwSAsFouucGIcDAPfyybRKiifqWnVkFe5u1imDrzYG9AIw0Ttxcg0OnVhw1zOSSQSQblcFh44fiejLt7RMWbKBoA4N1w/5KEbDAZiIPE8MvoCHg6HAgQGtMv+9PRU5qVcLmMwGODWrVuCQQmHw8LDZqQuFNVwq1QqyGQykvoKBAJoNpsyRyQu5no2qlBhVGgsqe1DTk5OkM1m5Xk2mw2NRuMF4PskRIW9ANpeIp6L/97r9XR/e5vCJvYApCfc1tbWxNrSjMo7ayypEaBnz57B6/XKpUq2ZZXsEIAuF82uxCqZZD6fx8OHD/H5558DAJ48eSLYposKPW16SZVKBaFQSIwlu90u+BMaWPTC6T1w0eVyOSHU+uabb/D48WP5zmQlf52MYjr4vdlcFDj3ztWIhMp9RBJNtXFkLpfD3t6eYJYINr+IPmqEIhgM6hiNeThxXGhkUhcavRaLRTZAvV5Ho9EQ74EcKRfZGCrYPBaLYXp6WniKWMGl8lrxMFeb66pGeS6XQ7lclnFqNpuXBnerHhKxIzMzM9JdnJ/barXg9Xrl2YlEAisrK0Jc6XQ6pXrwqroA59FJRrkSiQRmZ2fluQCEQ0nts7i4uIi7d+8C0AxPHqIAxqqEI94F0AxCRj0B7XL3eDwv4NUcDofg4tbW1iQqygvGCF4j6qU2XyYHDfUld4/K3xMMBnWcU6MRi3H0Gf1JQ5zP6XQ6L/CTjXLCGVm5pAoNAepSr9d1l3A0GhUcHqCNpRqNnERUibqMYlXZo06dF5VVe1JCo1ntXVcsFl9oxlyr1XQGy6RFxZQC+khvr9fD6enpW4soUZhh4FlAY+nk5OStcVC908YSL8ydnR0d2LlQKGBtbU3nZbvdbgmvApoRk8vldGHoTCaDBw8eCPCzUqlcyAgAzj2TWq2G3d1dMY4GgwGKxaJcwrFYTAjWVO+3UqlIpRf1PDk5wdOnTwEAW1tbuhLni2xUVnZw0z9//hwulwtzc3OyuXjZc+F3Oh3xgDkGrDIiuHx7exv7+/u6KsGLHvB8XaPRQLVaRaPRkBQJW3aoRpPaloINONWy74ODAxwcHMjYkdzustVngGZg0OBmZEn9nFGCUTJR89lPnjzB0dGRANLVkuLL6OJwOOD1eiUiePPmTSwsLMhlUa1WdY2P+VNNmeRyOdy/f1/GqVQqXekSpj702BYXF3Hjxg3x+C0WjfleBZsHg0FJsQLauLJUHdDm7KL76mXC9eFyuRCPx3Ht2jUAmpPk8/nQ6XRkbXY6HXi9Xty+fRsAcPfuXTidTuzu7oq3bqSxxLkDzht8q4DuTqcjEbfNzU1Jv1Ff1YkyWhiJA7Q54UUMQAoVWAHM16ipL6PSGC8DIKskkPybWrAQj8eRSqXw+PFjAOetqCYhNCTpJI+2UKKjN4l2Oa8SNU2opnovQ9titNCxVh2nUqk0sYbHrxOr1YpIJCLnktVqRbPZxNHR0VthWgdMgLcppphiiimmmGLKa+WdjiwxynJ6eopisShpoYcPH2Jubk6wJOFwGG63W8f/UK1WUSqVJLKUy+Xkc5hGYVPFi1jJfE21WsWTJ08EgL2ysoLZ2VmJEiQSCfj9fl1kqdPpoFar6VJLpVIJmUwGmUxG/qb2CLqoTpVKBd9++y0ACCVAIpEQ4CTHht4vcTAcW4Ka8/m8jO/z5891US6m6i6iD7/j7u6u9Fpj2T/TSvRUmAZQy+Pz+TxOT08FV7a3t6eLcqltEy6iD79zPp9HvV7XAaYB6NKTo4B/Rv8Yvdna2sLDhw9lzrh2LuNlkfZAJcGLRCKYmpqSiAU/U03pDAYD1Ot14Re6f/8+vvvuO4mSXiRt+7oxYio7HA7r+tQRjwTo06fE5gFaMcLDhw8lpZxOpw3BNDidTl0/vBs3bkhEkJ9P75cRQ7fbjUwmg8PDQ0kLXnT9vkmYsiTIdG1tDdeuXZNIEnl4WIK+sbGBeDyOUqkkZ4GKrzJCHzXVr7bDicfjuhZLwWBQmiFzXMg9xjVmFB6GKUGVey4UCkmqNx6PY2pqSlew4PF4EIlEZOxUEL+RQr1UnKnasJq6+Hw+ieRy/UwimjKKgxvlbVObjvP1k4zqqGuK+1yVi9DZGK0PdVGLcnj3HR0dvbUo1ztrLAH6Xk6tVkvIC09PT/H111/rgJ9MfXGiCZyjYcT+YjzQKBedeDVMqlatnZ2d6UKV7FqvNqZlFQHfQ8PoZXnxixA/qro3Gg35jvl8Hk+fPkUgEJBD0ufzwel0yu/E6fAgqlQqqFQqqNfr8jmjod+LYmH6/b4OZ5bL5fD06VMxJO12u454jhgQXnydTgdnZ2fIZDKS+mJqQ60Uu+jmUFOne3t7wj0DaKBqGnPUjQSINMwKhQLS6bQYkUdHR4Ip4Pe97EZlscLJyQm2trYAaKnSwWAgQHg2rCQ+DtBIVh89eiSprr29PTx9+lRSTVft1cRULrFP+XwepVJJ9ojP55NLTU0N1Ot1MY5++ctf4tGjR7h37x6Aq6cEqQ/XJtN/fG40GkUqlUI4HH4BB8fnZbNZfPnll/juu+9krIxgNldTWrxcE4kEbt26Jcacy+WSVB11Izkmzy46b+OSG45e3qywpbG0urqqS90yDdfpdMRY6na7OmPJyH5fatFAIBBAPB4XYykWiyGRSMj4UJdYLCZFD2dnZ4aCmUcrLHlOA5B+firGisTCwDkMweh0D41KlXONhhzXGqv01LsEmCyvkXp3qHeqiq16W6LiTqempnS8eM+fP8fJyYlpLL1MVLS+ynp6WVExA1c51NWDqtPpGAIwu0yVlyrq69nBmobGReRVC+2qzLkqkLXZbAr55as+W/189UIyYgOoBm6xWEStVsP+/j6A80iSCmYcreLhOhvVaRzdaJxks1kxhJ4/f44vvvhC8vHED6nVkltbW8KmTd1GKSHG0Ye4t6+//lrX0mV1dRULCwtSfg9oLVB+9atf4Te/+Q0ADaOkVu6Ne8mpnej39/fF2Pb5fBgOh1hZWdG1f6jVamJ4fvrpp/j888+RyWRk7Ixg71ab5vJzy+UyCoWCYCcZIeB5cHp6iidPnuCLL74Q/Q4ODgyLdKnnEPcOxy4QCEiBBXWr1+vIZDJi5GazWRQKBUOr4IDz/c1L1+VyIRAIyEXHqFKn0xFjnwUENEgmxQhNY0R1cFllyfXLBsjch6MklkYK8UnqOaRib4ndUiv1JonRUb8nz3CeU36/HwcHB28NIzQqjCYB2pr6+uuvdWSzkxYTs2SKKaaYYoopppjyGvm9iiwZJW8z53pRMSonbrSXOM771UjR71JYxsxqO1VGS7BHvfVJCPVQeWeePn2qwyWo6WQAwqk0CZ2YGgQ0vFEul8Onn34K4LzlgYpdqFarL1RuTqLUmxGvX/ziFwCAr776CtFoFLOzs4ITslgsqFQqEi3J5/NCXWA0Zw9L4FkN+Y//+I/Y2dnRVeXabDZZYycnJzg6OkI6nRYPmOX8Ru11tUXO6ekpvvnmGwCQhtQqnqrZbOoa/x4fH+saMBt5dhCbB2jpbLvdLniTfr+PXC6H/f19iYRlMhk8efJEsIpGRd9eplu73db1UTw6OsJnn30m1cDZbBZbW1tCVzJJnA4pSxhJyuVy+OabbyRlySpuVf9Jikqhkslk8O233+Lv//7vAWiEr19++SX6/f7E04GqPoA2Dv/+3/97WS/hcBi//vWvpR3T2xDL76Ik8QUlLJbfvRKmmGKKKZcUNW0xCr5922eryrk2eplRt5fpOEn8i6rX6O+AHnOmsvlP0smiM6Lq4Ha7dZQVpJUBjKGeeJM+KqaKzdoBCHEuC4ouWpBkhDCtTIze9PS0FCe9bQZv6kOnjXOlksCOIV8Nh8OP3vQi01gyxRRTTDHFlHdQroplnaQuvyvepwnKhYwlE7NkiimmmGKKKaaY8hr5J4lZMsUUU0wxxZR3Xd6lKM67pMvvQszIkimmmGKKKaaYYsprxDSWTDHFFFNMMcUUU14jv1dpOLViQGUUJkO2Wlr9tkKGrKygLiQwU0uXjSQ1vIg+auk5G4CqzOCjJeiTHqfRdhmjZfq/qwqiV5FjmmKKKaaYYooqZmTJFFNMMcUUU0wx5TXyexNZUjkWgsEgEomEtIewWCxoNptCugZolPWVSkXHB2Fk5IBRElL5Uxf2Y+r1ekLuVa1WhZ8C0No4jPZfM0onl8slTSkBrQ+Tz+eTyBJ71JEErVgsol6vC+khYNxYsQ+T2p/K7/dLGwFGuchn0mq1UK1W0Ww2pQcRCQ+NiMqpETeHwwG32/0CbwcJLAHIHL5KF6NIIkejgWo/JgqfO9o7cDQqZ3SJ8Shvz2XkdwkIfZm+ZuTQFFNMuaq808aSmr5xuVxC1HX9+nXMz89Lh2r2r2k0GtKwslqtotFoyGcYdYmwqSEv2VgshsXFRSwuLgLQmEXJiMyLrVwuo1wuC/toq9UyrKM2DRJAazYYDocxNzcn+kSjUdjtdmEVZo8oNovd2dnB4eHhC33GrtrdWr3wqc/09DQAjQE2GAxK81qbzQa73S7GSLlcxvPnz7G9vS29ych4fJkGw68aI4/HIyzCyWQSKysriEajALS+Rx6PBw6HQ8Yqn8/j8PAQT58+BaCtqXa7LcZdu92+Up8kriH2zvJ6vQgGg1hZWQGg9c6KxWLweDzSE4p99tjUl/3Y+PxWq4VGo3Hlda6mkWlIAkAkEkEwGEQsFpO/eTweXfPdQqGAQqEgzgGNzKuOD+VlRiQboFIXm80Gl8slz+l0OuI4qX0KjWL0HiVXtNlswrzOFDznlc9m823+PgmW+FGjdpQIkjoOBgPdOKjr5W2QU1JGnYFRyMLbkFF9Rhusvw3YxKv04nwR4sEzclIs/m/SB9AcTJ6RdLbb7fbvhAPKYrHA5/MhkUjg2rVrAIDd3V08e/bMsLt1VN5pY4kbyul0wuv1yqWbSqUwNTUlUSM2t+SFwb+NHmzjHpLAeSNGXvhTU1NIJpNyCbtcLmllwQPcbrcjEAggFAoB0KI5RhCN0Qig4ebxeJBMJpFMJkU/j8cDm81aEe3yAAAgAElEQVQmz/J6vYjFYjJ2FosFxWJRd7kAVzdKeLmzEeX09LS0g/D7/QiFQhKFc7lciMVi8p5arYZwOIxKpSIXL8fxKmOlrh+Px4NAICAd4peXlzEzM4OlpSUAwPz8PILBINxut3z3QqGABw8eyMW8u7uLk5MTGaer6mS32+H1esXYn52dxc2bN7GxsQEA2NzcRCKRgMvlEkOYTUcfPXoEAPj8889xfHyMg4MDAJohd5VDggcz15DP50MqlcLm5iYAYGNjAzdv3kQikZBxoPF9enoKAHj06BG++eYbaVVxeHgondqvIqpx5PV6JUp67do1LC8vY2VlRdZUIBCA2+2WiPLBwQG2t7dx//59aetRKBTQaDTG3v8cJ7YQicVimJ6eRiKRAKDtLZ/PJ/u82+0il8vh4OAAe3t7ADQDvF6vG3KgE7sJnO837nuXyyWGL38fDocScQeASqWiWzdGXcJc42qjWrvdrnN++TufTSNXbaFjlKgGNx001Tiiwau2G+p2u3JGTsog4JpSMa90pBiN5zzyXqtUKoY0hn6VqOPC/+fZEA6HkUwmEYvFZK8/e/Zsovq8yqANBAJYXV3FT3/6U/zhH/4hAK390N/+7d+KIWe0TiZmyRRTTDHFFFNMMeU18s5GltQohc/nw9zcHG7fvg1A87wDgQC+++47ABBcCUP/gOb1qx7FuCF4eh2MUrDR4crKCpaXlzE1NQVAa2DJkCk9cWJjqEM+nxdv5Sr6qFEuj8cjzwkGg5iZmUEsFpP00mjKZ2pqCtFoVOf17e/vo1wuy9hdVSc1PeJyueByuRCJRMRL8nq9Om/YbrcjGo1KVM5qtWI4HGJvb0/STaxyvIo+jMo4HA44HA7YbDbRRR0TfudOp6PDMSWTSXQ6HUnD7e7uCr6L77ms2Gw2OJ1O+Q8A4vE4YrEYZmdnAWipU4fDoUvXMA29trYGAHj69CmOj49RLBYBaGm6caKB/M6hUAjXrl3DBx98AAC4e/cuUqmUbqwAbT8xigFAGsYCWr+mq3qbalqZUdBbt24BAD744AN88MEHWFxclGfTK2ckkrqWSiVphHrVyCQAXfTB4/EgFotJNHJjYwOrq6uS8g4EAvB6vbIHWq0WTk5O8PXXX8vn1et18XzHEUITGJ1MJBJYWlrCzMwMAG2fM5oKaGcoo5Pb29sAgAcPHmBnZ8eQKJeaOnK73QiFQnImplIpRCIRiciFw2E5P5nK3dnZwf3792Xft1otQ3GTxEkGg0FEIhGdDolEAolEQhfh3trawrfffgtAay5tVE829U5yuVwSYeYZGAwGsbS0pINRdDod0eWzzz5DOp02PNXE85KNswFtzfh8Ply/fh2Adu9ubm7C6/XiZz/7GQDg7/7u73B6ejqR1JcacSM0gHO0urqKP/3TP8Vf/dVfScYpk8kgEAjoevoZKe+0scRJm5ubw3vvvYf3338fgDZppVJJBnI4HApgmgctoB38PLhqtRra7faVFr2KQ/D5fIhGo7KY5+fncevWLQm9P336FO12G06nUw6qQCAgwGsAaDQaePjwIXK53JUxL8B5DpnPiUajsvGoDzETfHYgEMD09LTuQF9bW8PJyYl0Rr+K8LDkYrbb7bDZbBJeB7RD1Gq1Ip/PA9DGslqtykHhcDgkzMt5vGo4XjWW7HY7BoMB2u22GBcOhwNWq1UMxEwmA6/Xi5mZGTFafD4fHA6HGBJsrjmOgUtcS6/Xk01dLpdxdnaG3d1dAFqadjgcwmq16g50r9cr+vb7faTTaUmpXGVNAy9iNXq9HqxWqxgXhUIB7XZbZyQyFcU1RGwS03LVavXKF4s6b1arFQ6HQ9Yy13mhUJBLdTgcSpqH4nQ6dXPLn1fVBzg3rr1eL1KpFADNCJiZmZH1y47tqjFNXAUNBRWkP45O3Gv83MXFRSwtLWF9fV10U88c0ofE43F5fiaTwbNnz8Y2AmgAcO8HAgHMzs4KBm91dRWzs7OCOQ2Hw4Izy+VyALQ1dXZ2Jga3EToB50Yu99Hy8jKuXbuGubk5mUem4DkupVIJHo8HmUwGAHB2dibG+Lii3iVerxezs7O4ceOGnDmLi4tYX18XA0BNwQHA1tYWzs7ODDMERhv4BoNBrK6uAtACAbOzs5KSf++99+D3+9HtdiX9H41GxSkxUgihGcV1EsKxubmJP/uzP8Pi4qLYAYlEAoFAAGdnZ4brA7zDxpLdbhcswN27d/Hhhx/izp07ALTDsFQqiSfDhcPJBrTBnZqakoP25OQEjx8/Rjablcv7MocWnxUOh7G2tibe5fLyMubn52XCvF6vRJ+oC6Mn/D4WiwWFQgHFYnGsiBcxHerhHYvFEI/HJbLECjOOEQ9ZFaBOfMy4Muo1BYNBeDweucicTieGw6EuglUoFMQDdblc4jGPexi8DERrs9l0IPt6vS5rgN21W62WLjrW7XblNUZ0uCbAtt/viy6lUgnHx8cyLrxIHA6H4HVu3LiB1dVVnQFQKBTGvngJ8uUF32w2cXJyIpfs0dERLBYLarWazK3f78f6+rpczL1eD+12W4zgcXXiGHe7XdTrdTEIM5mMzBmNXkDD5dF5WVhYgMvlgsVikfcZgTfp9/vodDridAGQghJequVyGYPBQMYplUohlUohFArJHhgXO0Whg6gaz06nU86pTqeD09NTnZc9NTWFqakpOS+8Xi86nY5h2A513qxWq1xsLDihrsfHx6jX64hGo2JAsfjDSKwScG6cqnNy/fp13LlzR+akVqthb29PDKpwOIzV1VU5v402TNT1GI1GsbKygo8//hgAZL9zfbN6mFhLv99v+BgBeiOeUbh4PI7p6WkZl3a7Db/fD4fDIX9zOp0TwXONnkutVksHLB8MBoIz4/qlIzspwPk7ayw5HA45jG/evInbt2/L4q3X6zg8PBQLktVmapollUrhzp078hn7+/sIh8PY2toS4GexWLxwpIkbi5EPLmq3241utyse0cHBAXK5nBhkgHb50ZABtEmdnp7G/v6+TP5olcxFxGKxIBAIiEcHaIdko9EQb6RWq+l0sdvtusomt9sNh8OhA2CqpJEXlVHdu90uqtWqXFzAOZCSv7vdbkQiER3AtF6vXzmlNCoqBQBTMSp42OfzycaiBzMYDGRsAC1lyoOLG3cc4QHACi1Ai5SoBmyn05HIF9ddKBSCxWKRNZ/P53XzellR6Q9Ug3A4HOLo6EjGQ6XnUNNjPp9P5jGXy6FQKMjFPI7QCKButVpN9lYgEJB0serph8NhnZFeqVRQKpXGiiip+lCXTqeDer0u64FOCJ/D9CPPoEgkAq/XKw4LAMMiFNSHa4DA30KhAOB8TlhVymjUysoKjo+PAWiGmxFrmnuf88ZIpFqheHR0JNHAdDqNTqeDzc1NLC8vA9DOBkb+jZTBYIBerye6MVpRrVZFn729PVQqFbz33nsAgB//+Mew2Wy6CjQjRF1LgHY+sWiA+vF+4rz+6Ec/EvgJoI2lkcaAes7yjFQNlOPjY4n+LSws4Cc/+Qn8fr+uInhSxol6p/T7fbRaLdk/rH5XHeBcLjdRfUyAtymmmGKKKaaYYspr5J2OLDGVxFQaLdx79+7hV7/6FR48eABA8/CIy0kmkwC0/OWtW7ckxWOz2V4IkzP6cRlvhp4KgYn1eh33798X73d/fx/VahX9fl/yzoPBALdv3xbPvNlsot1u60DGbJEy6n28TFRru1qtioffaDRQLpexu7ur8w7a7bY8p1ar6cLfLCXudrs6YsbRyM5FIj39fl8iZTabTcglOVbEKqgpzXg8ruNYKZfLqNVq8jeCvi+jB19Hz5aef6/Xk+9YqVQQCAR0YHOSeap4r1wuJ/qTf+qy46K+jmk4zjdwnhKkhxQKhRCNRhGLxST8PjMzI6kV4HwvXCUKOKrXKAdRvV6XlBrxHuFwWKJMqVQKy8vLOrwX9aFO4+oDQAhLGU0jOFfF6oRCISSTSQGhDodDZLNZ5PN5w9Jd1AWATp94PC4pC0owGJQI+MrKChwOB3K5nIyPkTr1+32JQBQKBeTzeVkP/X5f0pCAFsWdnZ2F2+2W6NPZ2ZmhKTh+VrvdRrValX2TTqfR7/el3LxSqcDpdMLn80k0tVwu4/T01DB9RqPcagQum82iUCjg8ePHAIDT01NYrVbcvHkTAF4oEDA6kqOeS/l8Hqenp3Je7+zsoFgsyrgQesL9mM1mJ5b24noiV6HX69VF2tvtNn74wx+i1+vJfUe9JiWjqV2VWoIYWP5tb29PIqmTkHfWWALOB6rZbCKTyUj67KuvvsK9e/fk0GJozmq1ykXHnDMvw0gkgmQyiePjY10KSiWIfNVGHQ6Hspiz2awYOsCLjNjkK3I4HHKQBgIBTE1N6XAh5EVRwaAX3QTqoVQsFl8ItavpG/6duvR6PXg8Hvk9nU6LMaWCqkd1edMhxjFS38eFzI3fbreFxRvQDCqVpNLpdEpFo1rJdlXjTTUAyJ3CebJYLLImAK16aH5+HteuXRP9SEDJ9UUgsbpeLmsY0FBS39Nut9FoNGScVlZWsL6+jpmZGVnPHo8H+Xxed1iwwo+/X3RcVBl9PYHwBPv7fD5sbGxgY2NDMHcsWOCBqa55AAIQv8rFN/oedc4qlYoAh4kZTKVSCAaDAv7OZDKoVqtotVo67ppxL2Huz06nI0ZIs9lEPB6XcSFWkEbl9PQ0yuUySqWSbt0ZIfw+PD+YUuMa8vv9iMfjkqJPJpO4du2aDlRt9MWiGnHtdlv2id1uF3wloK2PZDKJ9957T1KW6XQapVLJcG4cdd6A87VKh5WSTCalAtTr9SKTyehwcUbrBJxj/TqdjjyrVquh2+0Kj9itW7fgcrkkZagawJPQSx1/jhnX1I0bNxCPx9HpdPDs2TPRZ5IkmaP9YHl3LywsYG5uDlarVVLc9+/fN6TS9FXyzhpLxAcA2kGQz+exv78PQLO+VeLCwWAAu92OSCQinvjU1BTsdruuwoGl1irYWcXQvG7SubGIzVDfozJM86fL5ZJqkLm5OXi9Xp1Rw008DiEcN73KhsvvxEOIRhAjbKxw4AYgFkXFLF2VuVY1lPgdVQAeweX0vFOpFFZWVuSiI5GdWr7P+THi4lVLUakHjRFGS+LxuIxdv9+XKgxAM1hUkLfKhnxZUcHwTqcTkUhEKmJWV1exsrKCcDisK9m32WwCrIzH4wgGg7IuxyGBVIUVaIyKrq2t4c6dO1hYWBAj0mq1ot/vi0FLo5POjGpgjnuQqoY/I22bm5tYWFgAoBlu6vofDodSUs+xM6oMfVTsdjtCoZDs88XFRamgBCBRHLWqZ5S5ehxRvxMdJa7d6elpeL1eWd9kYs/lcrq5eRtkgsTlMFPgdrtx/fp1TE9Py/q9bIR/HH0AbR7oMIZCIdy5c0fwU4PBQOhdgMkxeDNq3ul0ZF14PB7E43H89Kc/BaBV6jWbTYlyTZIAEoDuTuL5x3H55JNP4PP5UKlUxFGa5JwB+rvIZrPJXbG2tiZnIQssDg4OJsombmKWTDHFFFNMMcUUU14j72xkaTgc6qprut2uVHgxJKcSK8bjcXz44Yfi5QUCAR1e5unTp3j+/Dk6nY4uVK1S7F8EJ8QoEr1dRj74mcPhEF6vF9evXxdeqNXVVfEg+BmMSKlcUSq/zUWjKSoGS20zoLY7SSQSkvu+e/eurgKt2+0KfoDeL3tZqd7YVXh82FqA80SPn1GL9fV1XZSLz2QKAdDCvOSKAq5Wlk7ODuoDQKrP+Lvb7UYwGBR6AwopKACtvFmttmi322NhhkbJRTmPDM2PVqkB59VpKysr6Pf7uHfvHoDzSpBxdRmNUDB9OUr42u/35T1TU1NYXl6WFMH9+/d11AjjyGh6mikVtdJRreCxWq2Ix+OYmZkRjAxTL1fBvo3qoqbkGUHjvmaUlp/NqK9KgOhwOHQVTeOmCFVMFdO51C0ej8tzvV6vjBkjhG63W9cKyeiIBcelXq/rqASSySRWV1d1lUzkZTMqTfkqIWzC7XZL+nR6ehp3797V8al1u13DWmW9TkhJoZbrLy4u6mhy2CIHGK9v55tEjXbz2dFoVHqvcf5yuZxAYCYZ5aJO/Gm32yX6fuPGDTgcDgwGA2kBRX66SckbjSWLxfK/APiPAWSHw+Hm93+LAvg7AEsA9gH8s+FwWLRo3+x/BPAXABoA/vPhcPj1yz73TcK8N6AdBCqTKAeQoL3FxUXcuHEDN27ckA1gt9uRyWQErJbJZOB2u5FMJnVlpCy1B/DCgaoK/06mah44ZMPmpUtjQO315fF4UCwWhQm6UqkIuzW/C8uA1YPrTYaBmt4CIESYKnvu9PQ0lpaWJB8/NzeHwWAg43JycgKLxYJ4PK7L0bfbbd3le9kNSsOEoGlAAynPz88LncPq6ipcLpccBNlsFqVSSRjbAS2Hf3p6KnPEC+sqxhtwThFAUkWVMqDVaunA5UzZkpeGBu/Ozg6A8/UyDpiZwjJ5QOOh6Xa7uh5/1I+G582bN3UlvCSNvCoHi3rp9no9HbfR9vY28vm8pHRGU0qRSAR37tyRz8jlcmi1WrqChasKjQDqcnJyAr/fLxcxKRVUx2lhYQGVSkXXG260gew4qV2eO5lMBolEQtIAHo9Hx45PNu+FhQU55J8+faqjxhgXoK+ehaenp7LXSO+gprP9fj/8fr84K1NTUzg6OtIZtRyXceeNbOEABFDOy5ZGGlO+gHZuqg4bdVDnaZwxUvd0sVhEKBSS9RyNRnXOCqA5dpzHl6VOjRijwWAgxRR8FvsNct/TWVEdq1GKF6P0oSPA87harWJhYUHOP8JaVFoOOqKqqOM9roym4YgxTaVSsFqtaDabQpD5Kuds3D1GuUhk6X8F8D8B+NfK3/45gJ8Ph8N/YbFY/vn3v/+3AP4cwPr3//0AwP/8/c9LiwrKGw6HmJmZEeODeA4ODvEmyWRSDIdyuYxsNisHZq/XEwAmL6XBYIBKpSKb+XXYBg640+nE9PS05HGTySTC4bCOW4VEXvQW6vU6Tk5OJO9cr9eFvZU52HK5rItykTfldYuOl4SKY5mZmUEikZAFvrS0hJWVFTHu7HY7CoWCXPjZbBbdbhfhcFhaJZD0UyVAVDExr1t0HH8yi0ejUTF8lpaWsLy8LAyxHo8HjUZDeF/29/eRz+fR7/cFJzQ7Owur1aobOxLpvWnxj3olHo9HDiG/3w+v1ytGbrfbRSaTQaFQ0AFg1WqQubk5NBoNARTSk7+sUcADRgXhq6Dqk5MTlMtlZDIZGc9GoyFGLaAZmuFwWDy8Z8+eodFoXKmLvHrgsUqPEdmzszP0+31dWx1GQLmmFhYWsLy8LIba3t4e0un0C9i+qwojOeVyGblcDna7XeaIOnH/8XDf2NgQjOPu7q4O6zGuYaKSlDYaDdGF48R5nZqawtraGhYXF8WJC4fDKJfLY+tCfVQArIo3aTabspeAc+4unk/AeYcDldhyHBmNTvLzGKke5cjpdrs6Y0kdO9VxNTJaQCysx+ORvaLysKn6qx0ARi/iccZKNS5IsErDLRaL6Qo3qDPvBUZ/rlLwchG9RiOnamaAz83lci80q510RJBzwiAAz556vS4R5JdxmBmp1xsxS8Ph8P8FUBj5838C4F99////CsB/qvz9Xw81+RxA2GKxpIxS1hRTTDHFFFNMMeVty1UxS8nhcJj+/v8zAJLf//8sgEPldUff/y2NEbFYLH8D4G9e9YDhcCipl1KphGq1KhGUhYUFDIdD8X69Xi+i0Sh8Pp+Oo0UNX4bDYSwtLSEej0sKqlqtYm5uTtdn6k3CXDfDgWtra1hdXZWIBRmr1fy7mlKkvsFgEMlkUkcnQK4RQKv4y+fzbwxnssEqx2V+fh7Ly8tSWs1WJgwls0yVIXKmdtQqsGQyiWq1Kh5zLpdDPp/XpcJeJmrVD6NKs7OzUqG4uLiIlZUVHY9RNpuVCMDR0ZHoozbXdblc8rnZbBaVSgXNZvPC5fL8DJfLpYtEkCUbgLCel0olqVpkY11WXrE1AdOVpVJJyn8v6wWrlXmA5n0zssRy2Gw2q8OguFwuidLNzc0hkUhIhDMWiwlfy7heJtlygfPIo6or00isbrJarbhx44bosrCwgK+//towr07FiJ2dncFms+m4r1qtlqzdbreLhYUFrKysyLz5/X7BvlGuiutS541pFK4XcmXxOalUCnNzc4jFYpJ6/u6773B8fGwIk7canWRFK6Xf76NcLkvUPJPJSONqnhehUEjHe0a6ByMqGAF9CkXNFGSzWTlH1WglcB6ZZsWlEfqoaSFyLo2yQasQCEIiRtOTKh2GUdEulT4AgC66xeeonE9qexr1p1H6jFZYsv8of+/1etjf35c0/cui6pPADZFmhtkPRgaz2Sz29vYA6MdmErqMDfAeDodDi8VyaY2Gw+G/BPAvAeBV71d7MDUaDV1vqrW1NSlf7PV6cDqdusPZ7XYjHo/LZozFYkilUrDb7XIpEeR7kfJ9tZ1COBwWA2BlZQXxeFzCggSfqiFxq9WKaDQq3ycUCgmQmCHOarWKw8NDMQrS6fQbCb/YbJi6XL9+XVJdPBDZKHWU2oD6EiCuNmycmppCs9nUYVSYiuN7XiYWi0XXbmZ1dRWJREL0Y/k5D/V6va47tKxWq/BP0fhkSJrjRGD8RfA5auo0GAzqAK/ElqhpCxpLakNhp9MpcxIOh9FutwV7EQqFUKvVLnXx0ZB2uVySpvV4PNIPDoCk9tS+aL1eD16vV/QnCSvnMRKJ6C7Lywh1Ur+vStxaLpfR6/VkXAhcZih+eXlZDjMA0hPwqjLKraJeoKM98dgeh2NJAy4QCMg8eTyesbEvapEAhcYSDRIavGohR7FYxNzcnOyBaDT6AtXBuGlBQDt3SqWSODi82FWOsHA4jOvXr+t6oLlcLl163QisCQ1YXvBerxfdblecDO7ljY0NHcca9QbOud6MuOzU1FKxWMTBwcELffVu3Lghr+90OiiXyzpOM6MMN1X6/T4ajQYKhYLsF5/Pp+t7CmhOJHFxanGA0UaJerYCEA5Cnn82mw31eh27u7sv9F2cNNCbVA8qJhnQIAt0tifRM0+VqxpLpxaLJTUcDtPfp9nYdvgYwLzyurnv/3ZpUZH5w+FQ8tzAOUsuNxiZmbvdrky0zWZDNBqVC9/n88Fms6HVaulYkNWIyeuEi5fcJbwYCARUAaasBFKJ6Hw+n+CI+Hmqx9PpdHQLlRfm68RqtSIQCEiUa35+HouLi4hEIrpu4+qh2W63dbqQuM5ms8lr+v0+MpmMHCbEWLzpILVarTocy/z8PObn58XD93q9ugo0EtVxA7AJMY1JjkO5XNax/5KI8yIRJQDC7K6SPKpgUn5nHkQ0sL1eL+bm5iRKF4lEdMYSO25fJoLC7t6BQEDwauFwGMFgUGeg0HDj2nQ4HGKoUxf10iWb7WWFBoBasahiuxgVrVarsp6JNeE8srkm16sKnL+qYQKcG0t8Do0lADIujOao+4aRL7Uh8lV1GRUVKN7pdFAoFHRcV7VaTcaBRKJkGwYgFTxGRChUI6DRaCCbzYrxTwNOJRacmZlBr9fTVQOzspHfzQihEaCOUy6X01Xo0llUDWFWgFIXI6Ml/NxarYaTkxPU63XBv7CYhuPCO4JA/tcV/lxVH+Acl1sul2XvOhwOFAoFXRFFNpuV6KURRROv04uFJIB21tbrddl/FosFzWYTh4eHhvU4vIxuLpdL5ow4snv37snYTNpgu6qx9O8A/DWAf/H9z3+r/P2/sVgs/wc0YHdZSdddSgaDgXhJu7u7sFqtYqCEw2EhL+Rr6TmqrL0AdN56pVLB0dGRlFs/efIEp6enF2q4qaYC6vW6pAFqtRqCwaD8u+rdq96SOpGkDFBbJ+zs7ODZs2eSIrwIM6rNZoPD4dBdCmpTXY6DWnXi9Xphs9nEE2eqUqWNr1Qq0oKD33EUPPwqfWiksfx/dnZW5s3pdMoFyNd4PB7ZAGoLGD6rWq3CZrNJqpRjeREvQo1Ezs7OYm5uTp7l8Xh0hJmDwQChUEiMGUCLTszOzkqUjjQLHG+WrQOXS7/5fD5MT09LhVQsFtMBYpvNplS98NnRaBTz8/NS1Tg9Pa0r5+eFcFnvlylKdW+pKVmLxSJzr4I5o9EoNjc3AWgsw16vV5faHWVzv6io0RumTmmAs2ii0+nIaxh5YkQpmUzK2r4sC/2b9BotrebfVUdkFAjMCMZomskIUeea6SV6/Bx//jvJBFVQ9Wg03gh9KGoql7+rlahLS0s66pTBYHCp1Ppl9VINN84ln8WCHI4FW6Ko3RUmITzH1IrsYrEIh8Ohq4IlPGGSuqg6qc9QHSe2DNvb25so+ePLxGq1YmpqSpxF7rutrS1DGmZfRC5CHfC/A/gjAHGLxXIE4L+DZiT9G4vF8l8COADwz75/+f8FjTZgBxp1wH8xAZ1NMcUUU0wxxRRT3pq80VgaDof/2Sv+6T98yWuHAP7rcZUCzpuqAsDjx491kY1qtYqlpSVJhzgcDjgcDknRAFqKrVgs6vLSzWYT+/v72NraAnAOFr6IlczXlMtl7O/v60pca7WaAM/UdAq9vFKpJCB16kLPi+ml3d1dHB8f68DFbxJ+J4bc0+k03G63fD5wnp6ht0AcjFr+Tm+Xf0un09jb2xPdMpnMhWnt+RyG1NV2FYwCcHzsdrukH/nvw+FQR65XLBZxdHQkqdNisfhSIN/LRPXm2ZqCBGszMzM6ElBG2NSyXYJ5+ZpSqYTT01PBYhSLxUsDqvkMNX1648YNRCIR3Rqr1+vSbgDQvN/5+Xnh0bFYLDg5OdHxZV2FBJL0E4wsERzNFKHD4UCtVhNqC/5taWkJd+/eBaAB9zudjqyXdDqNWq125RQcx5/9FVXOsGAwiH6/L2ue64TzeufOHQSDQTQaDTkLVPCuETK6rlR8lho5TbutPUwAACAASURBVCaTCIVCEjWhGB1dAs7Tg1wDJHhV95rb7da9xul06viFjMJ8qDrxc0fbdBCQrupHfCVgPBHkaNRLTd263W74/X5dlMuIQonL6MZnEd+q4jrVFl1vU9xuN2KxmER2h8Mhnj17NvF+cKqo/HjRaFTOP6vVinK5jMePH08cq0R5Zxm8B4OBHITsjUPyqa2tLczMzAjuxu12w2KxoFqtipFRrVZ1FQ31eh31eh25XE6AqvV6/cIhPPXC/OabbwRUtrq6ipmZGUkDRKNROBwO9Ho9neFDICpwTm5Yq9UkDUd8Cl9zUQMul8vhyy+/BKDhFM7OzhCJRCQVwbQbx6FcLuuwAfx7u90W4+7s7EzXSJLNHd8kKj/P8+fPhWiORhhZelUsmmosMYffbDZ1PD/pdFrGmxwflzFwm82mkE2qDN4Oh0NXdcLUl8pN02g0xFB79uwZtre3pVt5oVDQAS4vIkwJqIDomZkZLC8vS3pPTXcxdeFyuQS7B2jG0aNHj4ToNJ1OXxlboQLzp6amsLi4KMYH17VqoLLXIA25er2Oo6MjbG9vA9CIF41oaMl0MSsAV1ZWsLi4KPsLOE/dkrCW+Lh0Oj0RY0mtQPP7/Zifn9fhF9UK3I2NDSwuLgI4X4vkrTEq/aWuFVU3t9ut67GosoirxtIo9nNSl6BqBAcCAVk7FLvdDp/PN3FdVGNMxTTa7XYd79LoaydpHKh8WYQhUHgevi1Rx4UM3lxTg8EAx8fHby3tRX0AbT3Pzs7KuhkOhzg8PMTh4eFbM9zeWWMJ0BsMBJYBwOnpqS6va7fbBTjMDTkcDnWdpYkvUT+TZb4XGWy+r9VqodVqiSGUTqelmgk433ijByKjQMA5mFvFvFDny7SsYHkwjZHj42N888030hUe0LAK6qU7ekg3Gg20Wi2docaLUcVpXeSyoT4A8PDhQ5ycnGB7e1tXYq5WWgHQHVLD4VBKsVX232azKcYa20tcRB8eepVKBU+fPoXFYpHcfzKZRCAQkIuOESVWFQFa5Eil9j86OsLh4aF8x6tgcwh+pREIaIZPKpUSA5fFCKrh1mw2cXx8jAcPHgDQIpFbW1tiLF21YzsZsmkoM6LFcUkkEqKPigdUI79bW1v48ssv8d133wGAVBtdRVQ82mhroXg8jlu3bmF6eloHgFVB4N1uF8fHx7h//750RifgexyCzNGS6v+PvTcJjjS7rsZOzvM8IpGJxIyqrqruJrs5NSmJEkVRdCjCtFb2xkt7Ye+88sre/DsPG0c4Qg47HF7YDmun0IKUKJJSd5M9d9dcKAwFFMYEkPM8AOnFx3PxvqwqVGYiUV0UvxvRUY0p8+b73nDfueeeC0CKExioURSXP+czJVkfgATKk0ZzeOCq3ESXy6UTOwyFQrrA0ePxIJVKiUAtVdevwl4UHHJde71epNNp4anyQneVByHHgYiWymtS5VYmLReg2qAaN4nMKhftVRt9cblcOuSRwr2vCskBzlHYUCiku1D2ej189NFHsm+9CjMa6RpmmGGGGWaYYYZdYK81sjRog+gOERXaMNC2yikAXtxP5kU2eMtoNpvPwKSjlpID5xH0MJpPqi8qP6nX60nKUoXnB3163msP3pzVSrFR0DciN51OB9VqVVqZqDboE5/rYP8u9d9BlG4YU9Nw+/v7KBQKuH//PoDzNJyqIaL6zb9Tb9tEAtWxGLX6jNo829vb8j6lUglbW1vShoKpXLvdLjftR48eYXV1VdKRFNIbLLUe9fZLPg15WLdv39ZVI964cQMzMzMi6wBoaOTOzg4+/vhjAMCHH36I9fV1XdprEsgSES8icPl8HoVCAVNTU4KcUjKE7729vY2PPvoIt2/fxt27dwFoKfnLlqJzbFXElXw88hXT6TS8Xq/umZycnGB/f1+E8/b39yda/q2uJbUyNhQKSZ8xAML3qFQq8mw4zmpp+CRNLYcnPwrQ9MnY2JdjxZQg1yOf66RssBWLWvXKyipVR06VFrlqLSFV6JQpZtJJ+Lyuup0IbbCFDiUdAG3d7+7uvvJKOOCcc8dnVCqVcPv27VeKvP1BBUsvs2FTV+rvXcWDH2VRDZbKXsaf5x2W46YcBgOCUf4WOCexD07m5y36q845U+Cu0+kIbMtNYZDDoPaIUg/ISRo1uFSV7Pfff1+n1UXtK6Zlq9Uq2u22br5Myi8KYAJaKjefz+P9998HAOkZGAwG5VCtVqvY3NyU9CQ5beP0pXueqenfUqkkBRmVSgWrq6vIZrM6Ajo5U/T/6dOnut6Gk+K/kBzNw+Pk5ASrq6vibzQahdvtlvctlUqoVCrI5XJCfj86OtI1a76MqalFQDvcGAhRc44XuUqlgocPH+LRo0cSpO/u7uL+/fu6XpmTMpWjRC6V2tS32Wzi8ePHIrZ4584dbG1tvVT4dhJ+ca3Tv1arhc3NTXnvw8PDZyRYrpLLBejn/NramqRG19fX0el0dGnmq9wv1cvK8fExPv/8cylEefLkiczjV2Ucl6OjI/zTP/2T8Ji3t7fx8ccfv9KUoOlVkaMudGIMBXDDDDPs1dhluD6T9mMw2L7Ip6s+4Aa1l1TeC9//ef5OUnBx0C8VqVYRdBW5UC9mqjbUpAOUQTRHrYqlSj8FaY+Pj1EsFiVwu0qyORETld917do1QQj7/T5++9vfymXgKn0BntUWi0ajeO+99wBowdHt27cFUX4VSIpagRYKhWRcAoEAHjx4gEKh8Mqr88xmM1wul65IgXqAE3g2n/f7/Xdf9ktGsGSYYYYZ9kdoV13lNcz7q8UeVxVEDmMq0mSz2XRVuq/aVKI+lfFHKfyZtC+DKcKrVBEfxh/+O0F0fahgySB4G2aYYYYZZphhhl1g/644S4YZZphhhg1nX3dWQeXHfN2mFpd8HeX6qlF/DhhOnPiqfRlswv512lXKOLzMDGTJMMMMM8wwwwwz7AIzgiXDDDPMMMMMM8ywC8wIlgwzzDDDDDPMMMMusD8oztJgya76/XFF+Sbh06Bej+oP8OrzrINVJmrVy2U0lCbhlzpWV6VjZJhhhhlmmGGTtD+YYElVXHW73fD7/dIN2Wq1ot1uo9VqiQhbu91GvV6/Mg0RBiMOhwNut1t6MPl8PjidTl2zWjbspRgcVaGvwieHw6HrCeX1euF2u3XdyNkPDtAEBhuNxjNijJPyh33yAG1sXC6X9PRjd2+WxbLhcKvV0ql6T8qnQXVam80m2i9qs0gSGSlC+CIhyEkGeYPB/8vEO1/03l93KbhqRhBsmGGG/Xux1zpY4uZrsVjgcrlEwGxpaQmxWEzk83nINhoNaa9RrVZ1B92kjAEAA7VEIoFsNotYLAZAaz7Y7/d1bTIKhQKq1aoIi1HdehI6JxaLRYIRj8eDeDyOTCYj/ni9Xp0StMlkQqPRkCaoGxsbODg4QL1en4j6tyqu5vV6EY/HMTU1BUBrysqASX0PqkeXy2VsbGxgZ2dHAsvBBsjj+sR2C2pj0XQ6LV8Hg0FRGKYw3tHRETY2NkRluNFoiDIyoA+sRjHOIWqpsEN8KBQCoD2zSCQiTZkBLcDO5/PI5XIAIArVqmKz2vpmFFORSPqmPkebzQaHwyHfs1qtOnX2druNdrstX9OPy14IXoTaDqpDq41p+UwGg1410L3smhsMbAftRaju83y5anuZr18Xsvu8BrLqv1+XP/z/rwt9H/SH8/1FmYFXadSistvtUqV3FZf+Yc1qtcLn82F2dhaAdn7s7+9fmSaVwVkyzDDDDDPMMMMMu8Bea2SJt0ePx4NQKIT5+XkAwPT0NEKhkC7l1mg0JKIENLVRt9stt121AeY4pqbdfD4fwuEwAGBhYQHxeBx+vx+AdhPodruS5qL/DodDfOn1euj1epfW8yDiRnQkHo9jfn4eoVBIkC+PxwOTySTojcPhQCKRkLHzeDyiVsvvjXt7sdls8Hg8ALTGndPT05iZmUEkEgGgpeFCoZCMVb/fFzQH0BC4aDQKk8kkPYgqlcrYz43Ijc/nQyQSwdTUFLLZLAAgk8lgenoa6XQagNbXy263S1NNQOs/9ODBA3zxxRcAgLW1NRwfH+uQpVGNqGQ4HBakNJPJIJvNyg2JY8b+cIDWnPbp06d4/PgxAK3h7dramiBNlUplrPlksVjgdDrlmYRCISQSCczMzACAjFEikRBE0GazoVwuyzPa2trC48ePpVns8fExarXaWHOIfcQADXHzer3SBy4ajSIUCkkjVkCbv16vV+b38fExcrkc9vf3pQlxpVJBp9O51E1TvVWzWa3T6YTNZtOhIxaLReYd51Kv19P1+FNR58uYirBZrVb5jzbYHHsQMTk9PUWr1RqpefewfqmK2BaL5bko+iACx/Yr9G2SpiKnz0tzq81s+TP60Ol0rgQ9UZHSQWRLbQ2jNrbudDpot9tX3juP/08fAK1npdvthsfjkTlTKBTQbDavHF0aHCe73Y5AIIDl5WX86Z/+KQCgWCzi7//+75HP5wFMfg69tsESe8EAWhCwsrIiwVI2m4XD4ZAGmxwUdfPw+/06KF5t9jnOpsDJ6/P5JCgBzg9d+prL5YRfxcXndrvhdrulr43JZMLp6anugBvFJ76uy+VCJBLB9PS0jMvU1BRCoZBs6PV6HRaLRV4/Go0iGAzKz6PRKJrNJprNpgQJ40x89ntil/NsNiuHLIM5jhHThr1eD8FgUA7qbDYLv9+PSqWCQqEAYPyO8RaL5ZlU6ezsrPiXyWSQTCYluKNP/ByAFghbrVY5dPf393FwcPBM8+NhjM/M4/EgFothdnYWS0tL8rmvXbsmDSsDgQDsdrvu9d1uN1wulzw3drPn/Bk1GOCm43A4JCUJaCnumZkZXLt2TXwLhUK6+cz347zz+/2o1+uSriTXa9x1xuAoEolgfn5eelPNzMwgmUxKipLj4nQ6dc1hHz16BKfTKenUywTc6iXJ4/EgGo1KkBuLxRAMBnVBJH8P0PalWq2G/f19CSTX1tZ0l7pxjMEI+YmAti8Fg0FJ5XJc+HOuhXa7jf39fQDaZWB3d3es+fw8n9RD1eVyyXuSx0lfGPBaLBZ57729PWxtbeHg4AAAJtXzS4I2Xsq4FzP1DWh7YCwWk69NJhN2dnakme3BwQHa7fbEeJOcUwy8XS6X+OdwOJBMJmXOh8Nh2Gw27OzsAAC++OILSTVNmjPJZsf0xel0wm63iy+Li4tYXFxEOBzG2toaAODnP/85tra2riT1NdiCxuFwyD49NTWFd999F3/913+Nb3zjGwC0tfXxxx/LxYn/Tspe22DJYrFIcHH9+nXcvHkTKysrALRNqlQqyQ2Og2q1WmWj4qTjJrm3t4ejoyMUCgV5sMNuoCaTSR5SIBDA4uIiMpkMAAhawYdK7pS6GHlzJ3IwNTWFWCyGzz77TKLgUQ4XHnROpxPRaFTQkkQiAb/fD4/Ho/On0+noIvJoNCoHktfrRblcxsnJifCYxjnozGYz3G63cKUSiYRsljy0Wq0WOp0Ojo6OAJwHoPw9r9eL2dlZpNNpRKNRAJDNc1SzWCyCPoTDYUQiEen5BGiBT7FYlHHiHCKyAmgbq8/nk2DOYrGM3fWb78O5EAqF5PCwWq2o1+syFzhHT09PZY57PB44nU7d5tHtdmVDGOd50R+PxyNIKQ9drqNOp4NcLqe7PdpsNkHhAC0IttvtcttsNBpjjREvGXzvWCyGWCwmKNfMzAyi0SisVqugoERH6Es8Hker1cLh4aF8xnERXPWG73a7Za1x7UciESSTSd38sNvtuo717XYbsVhM5t3W1talb+FmsxlOpxM+n0/WSTabRTgclstANBqV+Uv/O50OGo2GBEtWqxVHR0eXPlS4drjf+f1+xONx8WV6elp3aeI+pc7fp0+fwmKxyCVJReZHtcF+ZmoD1qmpKbk0MejlhYBzttVqCYILaOvxMv4M+sVgxOv1IpFIYHl5WXidyWQSCwsLEqBYrVaYTCbcvXsXgLaXHh8fT8Qf+gRAAspIJIKFhQUA2npLp9NYXl4GoF2k/H4/nE4n5ubmAGgByu7u7sT8Uf1Sx8rv98t+AAArKyv4m7/5G9y8eVPWX6PRwMzMDB4+fDhRX2ivbbBks9kkuLh58ya+9a1vyUDVajV0Oh1ZECQBq7ffaDSKa9euycZWqVTw1Vdf4Xe/+52kD4haDOsPoE3mTCYjN/FQKKSDSbm5qs0QiQARjTKZTAiFQjg8PJRNv16vj9yg0Gq1SiAAaBPKbDbrJm6j0UCv13tmrHjohsNhLC4uYn19Hffv3xf/xiGfq6iMx+ORIIDB6aBvvMlw0/J6vbDZbDL5gcncVJgG6Ha7ghJ1u13dzZYHYyKRkA2Ec4df12q1iXQgPz09RafTQalUAqAdqLu7u/I+TNGaTCY57JaWlrCwsKDrGK92/x7VJzV11G63UalUAGhQttPpRKPREF9arRYajYb8DYNaBjFcdwy2Lwt/8zM1m010u10deXtnZwe1Wk3Grt/vw+12y3qcmppCNBqF0+mUuTaJ9DtfhwcKAMzOziIUCkkglM/n0Wq1ZG0lEglMTU3B6XQKCs71N46plZwMULhWeOguLi4C0J6ROk4nJycIhUJYXl6WseI+OAnCu5p+9Hg8mJ6exvXr1wEAb731lqCQgLbv1ut1uFwu8SWdTmNrawufffbZxHwC9EEAoF28v/nNb+LGjRtyWel2u2g0GvKs4/E4gsHgxA9dBgBqZmBpaQnvvPMOvv3tbwPQ9nCTySR7Ji9wb7zxBgDgww8/nLhP6v/7fD45p7797W9jbm5O9iC73S70FvXMuYoUHGkzaipUTYdarVZB5DieLCq5qnY1BsHbMMMMM8wwwwwz7AJ7bZElp9MpcODNmzeRTqclyqxUKtje3hZya7FYlFstIXDCwLdu3QKgRarhcBh2ux0ffPABAGB9fR2NRmOoyFh93UAgIAhKt9tFLpcT+Jhl+J1OR3zy+Xw6Uqrf70c2m0UqlZI0E/WGRimRZ6qJN9tisSiNDwlvM31COPP09BRms1nHJ/B4PLDb7YKKmc3msWUEiAqoCI6q8dTr9eQ24/f74fP5xFfeJAYJsOPo96gNIOv1Ovb29gRh4mc0m80y3mazWVJuanq3Xq8L6qLKL4wyJurvcl6okgSUU+D4c4xULoPT6dShN8Vi8VLQt+pPrVYTlKHRaKDZbMpcVWUw1DWgclTK5TLK5bKuQGBc4/MHtDkUCAQEeTw7O5N0Jd/r7OwM4XBY0lE2m004eJPgUXAO9Xo91Ot1HXHdbDajWCzKc8zlcqhWq7r06tzcHKrVqq6447LGW7cqjeJwOBAKhWS+FAoFrK6uSsoN0FIXKjpJ7uSkTN1H1ZR8PB6H2WzGo0ePAACrq6uo1WqYn58XZIlI/KRRAcqOcFzIz3O73SIzc/v2beRyOUG/fvrTn8Ltdss+MIlnBpw/N3WcvF4vpqenBSHM5/O4c+eOnAszMzP4yU9+Iv6bTKaJ+UOfVN/UdKrdbsfBwQG+/PJLANre8J3vfAc3b96Uv59EodJFvqnrr1KpCMp1fHyMjY0NQS8BCNd1kuOj2msbLDkcDllsgUAA7XZbJtCnn36Kr776SnSLWAlntVplk49EImi1WjLhrVYrMpkMZmZmJD98cHAg8N7LTD1kW62WTu8mn8/LppTL5YRvwgmeSqUQj8flwVMwEzhP75FPM8xBzJ/1ej0J0gBIkMSKG+Cc+EtfpqamYDabJRB1Op3I5/MoFou6z2o2m0faSM/OztBsNmUDOj4+RqfT0Wn/UA+Hn7nRaAg5mJ+LqQN+b7BSpN/vD5UiPDs7kzE4PDwUPhAPfM4Vfu10OhEOhxEMBnVEfDUQZxAz6M+w4wNoz75YLKJarcp7B4NBeL1e2TBZcZJIJAQST6fTMJlMEoRWq1XR6qKv4/hDaJvBB4m1JAp7PB7YbDapKAS0DXxubk6CpXw+j1KpJK85rn5Yv9/XVWWenZ1he3tbngfT5ipB2ufzIZFISMrebrcjn8/rUuyX0TNTn5vJZMLx8bEEz4eHh6jX68LBK5VK6PV6stai0SgcDgcqlYpON2xcUw82po64/qk1x6B3e3sbq6urMl9CoRBWVlZkvQPnaeXLGv2hlctlXbqxUCjg6OhIUkgbGxuw2+26QpRWq4VarTax4E0lrVPoFjjfpx49eoR//ud/BgA8ePAAp6eneO+99wBA+HfkWk7KJwYknL+tVktS3CRM//KXv8TDhw/ld773ve/hpz/9qYwl59ikjHOK1IBisShn2RdffIG9vT2ZL4C23m7cuCH7887OzsSrzlTf+NrkJXKteTweFAoFqaIEgM3NTWxtbV2ZDtVrGyzZbDbZjMk1efDgAQBtcq+trckBz4DAZrPJ4huM4kkWIzkVgKApw1SkcYKWSiVYLBb5OpfL4fDwUKfOzQOd6BOJ5zzQuNFZrVZduerzEJ3nGX+n0WhgZ2cHu7u74qOK5PB3KTEAQG6fasVOpVKR8QO0oObs7GykA/js7AyNRkMmsyrVoFYUqeRXi8UiqBsA4crU63X5mxeVHQ/rD8eF40v0hiKLvKnEYjFkMhmsrKzoZCDUjZZ/P4hEjvLMWEquCoVynjIYyWQymJ2d1VWCeTwe1Go1+UzNZhMWi0XWyKhyD+omqW5K/X4fJycn8rrxeFxI9ywkiEQicLvdEkRSrFOdP+OIDNIP9W8qlYps3haLBbFYTAjCgHYRmZ2dFYJ6vV6XIgtVuHLc4I3PmhyyQqEgPCDyNVSujt1u11Xt2mw2lEolGatx+YCqqdWhDNyazaYcvoCGPKrEZPKDnE6n+H98fDyRg4V7BfdRrmFeQiuVCra2tqS6rFAoCPJPhHtnZweHh4cT8WdQBJSBJKDN93a7jfX1ddy7dw+AhmB6vV4hpIdCIZycnMi+OslgQJ1T7XYbnU5Hd8l88OABDg8P5dKfTqcRDAaxvb0NQAuCr6pMn8i+mh04ODiQOTY9PY0bN27A4/HI2Ozt7b0SkcxBOYpEIoF33nlHJw909+5dFAqFK/PH4CwZZphhhhlmmGGGXWCvLbJEfgtwjsQw+t7e3ka1WtXdzFmJxdt5IBCA1+vVwXilUgmdTkeXiqFIGXBxvy3e0Pb29tBqteS98/k8Go2G3KJ4c3A4HHLbZYWOyklhuokpB8LWo6AUTOmolW40Nf2oVpjNzs4ilUoJ0tRutwWhUMdhHKRC1fpR05Zq/zWXyyXjMjc3h+vXr8uNjr+non8snX3e53+ZP2olBVOAqi8+n09SvdlsFjdv3sTMzIzcduv1uq6q0eFwPINEDjtGahUbx0VFz9Sb7eLiIm7duiXl37R6vS4pHo/HA7fbLYjmqJWUql9nZ2fiC3v5cVxmZ2fx5ptvIpvNSjqM1Z+8cXo8HllvgJbeGeRmjOoTjRWTgLamZ2ZmkEqlRN4hHA7rpDKazaYIVXIODSK24yBwamWOKpqp6gl1Oh34fD5dRRq5Xaovl0WWBucSfVJ5ZDabDV6vV3yjHpzNZnum1+E4HLzn+aSiiSoCyxSP+hwXFhbw5ptvyveIBk4aNaFf6h7ZaDRQrVZlrLxeL1ZWVvAnf/InADQUjqllvsZVGNE4UieA8wpnyuT86Ec/gsvlEgoKealXZdzHAW2sKE8DaCnBW7duwWw2C9LFVOVV+kNT24wtLy9jZWUFNptNMkxPnjwZilIzrr22wZKaByf5mV+zd5XK9/F6vUin01LOnEqlYLfbdeRcimepvCaV33PRQuUGQ+Iov2Z+m4ux3+/D6XQiFovJprm4uIh4PC4Pvlwuo1gsim/AOZ9HDTaG4eWoEDFfQxX0tNlsIqMAAG+++Sbm5+dlo1C1c9RyW/XwHSUgUP0nP0ntXRcOhyWdc+PGDVy/fl0WAH1xuVzCmTk8PByZ+K76o/6rBkvUF2IKcGpqCqlUCm63W3d42Gw28SWVSknPQQDCMRvHJ9VY3jyoDK1KG7AHE8dqenoatVpN5i7TC+NupINET3Vtqb3igHPSPv8mFAohm83qigp4QI7qj3p48zVU4rjJZNKlke12u24dmM1m0T/iJs81Pm7ApP4NuwUA2p7i9XplDlGLie9L7bdAIKATZp1EH0auNXV+dDodWfcejweZTEYuSdevXxchSP4Og/9xLiMv8kk1dZ24XC5Z9w6HA2+88QaSyaQuVaqmWcbhBb7I1Nfi81MLiKxWK27duiUEb5buq7IikxqjQWPhANfb7OwsnE4n3n33XQBaGq7f78tZwXTwVfgz+JoOh0N3pv7oRz+C1+sVHTP687zXmdT4qJdul8slz+zdd9+VNDhBlEePHl2pkvhrGyy1Wi2JtjudDoLBoCgec+PjpjU7O4u5uTlMT08LasFb3cbGBgAtIj89PZXqA0CLiguFgkTHFxHn1KacNptNNr90Oo1erycRrdvtRiKREDI5ANF9IZ+HyJjP55PDjxufusG8bMLx5yoiw5suD3iSX6nTMTs7K6RTQEPKarWaDgmjDypyNwriBUACJbfbLWOVSqWQyWR0gZvX65X3YTWDzWaTCqiTkxPdc7lMhZMqcka1Y46TqlHFDSCfz+Ps7ExQlna7rTt0y+XyWP4MPmvyyvi+5XIZe3t76Ha78mzJu2BAtby8DKfTKfPyzp07kq8f1ReVJMmCB66JUqmE/f199Pt9eY4mk0kERgHtYL5165YExdVqFffu3dMFVOOiOa1WS0jKBwcHgmDxcOH4q5Wc0WgUCwsLwnU6OjqSRsPqZx6HB9fr9WRz9vv9Og2fQXFOPtdEIiFzyOPxoFwuvzBwG8UnVXyxVquhWq3K/AiFQgiHw7KmU6mU8PT4HAOBAFwu1zOXxUGUaBR/AC1IrFargswQBaWQoc/nw8LCgvjKv1E5jerceZ5fo/hkMpkk4OZFlWPCcVhZWZEgst/vo9ls6oQtB8fiMsgpx+ns7AzFYhGlUkn2/saxFgAAIABJREFUpVgshng8Lnuk0+lEt9vVFeAMtmUBxkeWVSOqxLMhGAwiFotJgBKJRGCxWFCr1WRN0o/BQpPLND4f9In/2mw2eWbsrtDr9YR7ViqVnnm/SQbdr22wpBJ0u90uUqmUpClisRjcbrc8kJmZGczPzyORSMhia7Va2N/fl+oQs9mMeDyOeDwui6JcLiMajUoQc5GpJGWiEIA2gdRDy+/3Y2pqCsFgUBCsbreLUqkk0Tg38VgsJjepw8NDOBwOuZ2zn9VFRmVxbtaxWAzRaBSBQEA257m5OSwuLuqExdiCATgPllwul4wvq67U3nvD9CNSFY+ZCuEtH9DQkKWlJSn35C2FlYWsvOj1ehJE8m/5jGq1mtz6hp389Mvlcskz8Xq9cLlcshGSZKlWnLEdDZ99LBZDNpvVSSEMph+HNXWDOT09ldQAx6FarerUnpvNJkwmkyAF09PT8Pl88oxOTk7QaDR0qYxx0ZNmsynPJBQKye2NhxtRLH6dSqWwuLgo6+rw8FDEIy/rC1uG8HXZ/oEHMcvNue6TySSmpqawtLQkLSLu3buHRqMhQcG4N18+L7UtkBpottttGTdASy2RoMu0IfcbNaAa15fBOaQWLLBdDtdjrVZDvV6XdQmct0Th2HEeTwIVYCUsfQ2HwzqZAxUV4++ove2Y6lV/5zJ+qXSMRqMhch2AFrw5HA7dWKoVl2rBgnppvqzxjCsWixLUUqmfa8tsNuuqHjnnVKR3kmm509NTCcyi0SjMZrOguPQpn88LwVutOOW/k/RHDXZsNpusI87zdrstwdIgYjuIlF3WDIK3YYYZZphhhhlm2AX22iJL1HwAtBJXNcW2vLyMXq8n5bjs5xUMBnUtI1QiNlNTfr9fbqoejwfpdFpKWocxtaEmoKW1qF3En5PjwVsSo13eSJkOVBvPTk9Po1gsys10dXX1pX3ITCaT8KP4GolEQjrFAxqx0+Vy6QiOTD8C59E4OV+ABr8mk0lBc46Pj3FycjKUxIKKLIVCIV0/n1QqhWw2qxP0PDg4EAQgl8uJnoaKWlB3CNBQOXa6Hrakl1ylQUhW1Rdit3qVS8YWOkTuOF/4+bvdLp4+fToWv0v9XULfx8fH8r78f5Uf43K5JD0ZCAQwNTUlfZv29/ef4XeNYxSFJHKzs7ODTqcDq9Uq/lYqFZyenkoKs9vtYmVlRfTLlpeX8dVXXyGXy11KE4a3VL5GtVrVzUm+t8r5WFpaQiwWw9TUlLSricVioskCjJ/OIfmd76XOH0BDqiuVijwz9kNT+YvJZBLr6+uCctGXcdElIgxEQ9SeeWobG+CcU8U1SmR1cF1cxh+aSqMgz29QK2hpaUkQAlUWg6/F9P8kUjlqirtSqejGjmKntHa7jePjYzkn6PfzUoOXMb6v2ue039e05lTuVqFQkAxJvV5/Bq2dFBoIaJ+RZyYLl9Tij7OzMzx8+FD27EGe5GXmz0XGXrHc/5xOJ/r9Po6OjqQtTbPZvDQv8SJ7bYMl4PygYEpK7Rx948YNPHnyBMB5xRdwzreh7guDmnA4jFgs9gzhmJD0y0ztFE3BQEA7zAnj8v3JiVA5EuzEDWjaNYMk9XK5jP39fXmdnZ0d0T96kbGKikHO8vIyUqkUUqmUTtFYJQpT9VcVY+ShpHbh7nQ6EiRQFZnB6Yt8UonlbDDMvDegHRQ2m03+vlqtolwuy0bFsVObkbL/lcoLIUfsZcESN29yp8LhsK6xqFrRRXheFcRkWoN/Ew6HYTabdWm4SqWCZrM5dFCgVkepncatVqtsUsViEb1eD9VqVQ6cfl/rgcZ5WCgUMDMzI5sH+1mVy+WRFHWZylE3RDWwbLfbKBQKOi4DqwRZHRcKhVCv1+UyQ46O2ox0FFMhfTXdwJTcIL+rUqlIetXpdEqKUOUJqamUce3s7AzdbldE+vb393X7EseKAUu1WsU3v/lNpNNpCSTVvofA5Q46lbe5sbEBi8UiQa7dbkez2ZRnxgrHN954Q1f8oYrPkodzWYI3BYT57CqVCjwej24/zGazOpoBeXIqZ/Oy/tDOzs5kHW1ubqLRaEhPT0C7eKgiq7VaTVLhAITvxgvWZU29JBWLRZ14aCAQ0O0NJpMJu7u7ojE42N1Afb1J+NVut3VpbzYgB87XltoAflIB7UU+AecXXl7QmMrd2NiQsbkqJXHaaxssDZLXSqWSDFQoFEIgEBDC99nZGaxWq1SE8G+8Xq/cokjgbbfbsqHwsB6mbQQPE4/HIy1C6KeqSs1cu3rr5GLjhs7gTm1xQUFG3pyHabjJMlPyp7LZrLRj4WJj0KHm3FXBTB6WahBjs9lQrVblNRqNxlDKqDabTQ5QShSoJGqWc6u3M1XWgGPp9XolQGGpNVHGfl8TTVQJjy8ybn5utxvxeBzRaFTey263Q20d0O12UavVdAGq3W7XEdTJT2PgZrFYsLu7i+PjYx3H4SJTie9q5ZLP55P3bTabqNVqurmpBtbAeXUcA1wS1nnjG9YGxTpZqs/XJa9CVaGm3AT9p8wH/Vf/fhwEZ/Br9Xu8WdOXSqUigS5w3vrIZDLpglyVSzEuf4qEc6Ky3W4XR0dHOhVqlTNmsViQy+Vw7do1eXZcj5clwJLzw8B+f38fpVJJxy9RD3e/349r166h3+/rCMJqQcNlxRcHgwA+k93dXTgcDt1ll0EBrVKpoFQq6YRkJ3EADyLIR0dHKJfLcDqdsh/Pzs4KhxHQOINra2u6YGmSwQBfiyh/p9OR94pEIlheXpZ91Gw2Y3V1VXcuXGVgonIEbTYber2eAANWqxUnJye4d++eDhl9FXZ6eioNmgFtHXU6HXz66acSuF21LwZnyTDDDDPMMMMMM+wCe22RpV6vJ4z7jY0NXTNEv98vjUWBc+RG5Y50u10dZ4kQealUwubmJgBNxGptbW0kIStK+TPSJ/eI76tyCFQ0Z7A6xG63w2w2y3uXSiXpoQRAl0MfNLVEl+gHAKmiUNtgDFbNsPWKigKwUkzlNam97YjAvIw/pVbjML8ci8UEmfH5fAL9A5CmtUR7Go2GaGbxhkw0kMYqlpdVOqhikn6/H5lMBrFYTG5sFOFUZRKIaqlopNp3LBKJwGq1CjJZKBTk918m7KeOP6sEmUILh8O6VGm9XpfWNXy2LpcLs7OzUsa7vLwMv98v88fn8wlaNoqZzWZditjr9SIYDMozcTgcqFarulQdUQL6n06nEY1GZc5x/o2bslBTgiqixvne6XRkTvD58b3JKVJbH3EeTyoNpyKjFDwFIHIQ9L9cLiOXy+na96hVV5f1SeVzkWum9pxUn1m325Umo2oLl0kiFSpyp7Zdarfb8kyA80omFSklV1BN1U3K1Mo7yj90u10dosbei4BGgdja2tJVLF6F0S+1J2ir1ZKKZkB7Rnfv3hXE7SrRE6Jw6udOJpOC5lgsFuzt7eHRo0dX1g/uRcZKOO45ZrMZtVoNX3zxxdCo/mXttQ2W1BLGe/fuoVqtykSp1+tIpVI6jSJ+n8TPXC6nK10+OTmBzWbD8fGxLlg6OTkZalPnBCoUCtjd3dVteL1eT8ep4aZKuP74+FgHS1Pvh2X8gKYh8/TpUyHyDRPAcYPkOB0dHcHhcMgGCZyXEKt9mlTy4unpKVwul04FuV6vY39/X/RkDg8Ph84HqzobVqsVkUhEFj4Pcz4v8roIkXNMGKyon5H+NptNXd+6YXyh0nIsFpPUbSwW0+mvsBkzfx/QgiUG5jR1kyX5UR3vl5nZbJZUHtOnMzMzut6B5Co1Gg35XjQa1QVL5Afx2VMFeNgAReUFORwOXY+8mZkZ+drlcgmxmkFip9PRCZ1+4xvf0AVuuVwOx8fHY3EIBjVb1EIJVfpBPTR6vZ6MRyQSkTJ1dQ1NilehHiZMXw6m99Rgj0RrVcR2MGAa1wY/D/cd/ky9MHDNqHsBU/KTLrEe9G3wYDWZTM9Nw40jwTGub2qQGI/HkUgkZByOjo5QqVSuVOBw0B+aw+HA8vKyjE0ul8P6+vpEm+cOax6PR8RM6eenn36qKxq4auMzsdvtSKVS4gugpUtv3779ygK31zZYUsm31AWixPrGxgZSqZQQOMkRqtfrcuCxAkPdeBmNMgggGXOYBcrJenR0hN/97ndSQbe3t4dkMimIhc/nE1SLBxmbXPI1SLpWm6my2zNz18MGcETf+BqHh4fw+Xw6NWg1Z18oFHSbd7/f13GnAIiuB8dJrYS7yM7OznQCguR2qYRpNVhqt9s6RWyiCOrm3Ww2n9GoKhaLQ/nD92k0GoKUETGhXo/6u/RNff/BLuFq9d7W1hYODw9HWqw8tFXuUyaTwcLCggQo5COpKEUgEIDb7da1cCmXyyK6ura2NlJQOzjnOV8oikc0LZlMytpisH92doZkMimKzKFQCFarVVBRjstlybkMlogMhcNhTE9Pw+12y2FCLSwSqN9++22EQiEhyAMXi82OYoNzY9A/tUkzoBU5eDweXdDmdDrh9/uFZzHpQ1AN3NRAk5cQoir0V137kxA2vMgnGvma6l6gNiB/0d9N0h/1khMIBHRtYPL5/JWThQdN9YXoCaCdNxSFfdW++P1+LC8vyyW60Wjg9u3brwzJUX0ZFA49OzvDBx98IIDEK/Hllb2TYYYZZphhhhlm2B+gvbbIkgqbn52doVaryS16b28PHo9HeC1Wq1WUaNVeMmpJd7/fl5sVURb+fJionbcOqiTzZvjkyROdGqzX65Vby2B6Ru1xxduN2mxSreq5CFlSq07UyrDHjx/D5/MhGAzK7ZapykGonbcF3hIG00tqeoy6KBcZy06JLnz66afY2trCgwcPBM0hP4Y2mE5jk1oVzSmVSroqmWq1KqX1L/OHN/pyuYwnT57I8wfO1aCJCJJDpn7uYrEo//Hrw8NDHTJ5fHw8VANQlUtH5I63InK1iCyRB6U2eWblE+fd5uYmNjY2sLq6CgC4e/euVIqNcgtl6kZNRwKQtTU3N4doNKpD/IioqOnvvb09fPzxxwCA9fV1QXVGtcF0mYo2WK1WRKNR3Lx5U+QyAA2d4Rzzer2wWCzCFwI01GKwUfSkTG2hwwor+pJMJmG1WtFoNOR3mA6mgv5l+vmppiKj6vfUxrp2u12nwxWNRpFKpXTVfVeV0hh8ruRFco0yZaiqo18VyqVqOAEQnif3hkaj8UqRHOB8P3a5XAgGg/L++Xx+qGrtSZnKc4tGo1LJDGgo11X3Xxv0hej/8vIybt26pZN3+Oijj17p2Ly2wdLzTCXAqgToQRIzv6eaKqev9tsaltw9yEtQgxxVTE31Z/B7KleHBw4fvsPh0L3WMIuVBx2DnFarhUqlIhvxRf4M/lw1iu+pzYOHWSCq/61WC/l8Hmtra8/8HhfjYAd2VZuK7zco78/y7VF4ZuVyGevr6zg4OMCdO3cAnLc4YFDgcDhEPoF6UpVKBcViURdIUP+F1ul0RkqlnJ6eolKpYGtrS+Zwu91GPp+X3lkzMzPw+/1wu90SNB4fH2N1dRX3798HoAXG+/v7Op2ocQ47jif5SFtbW3A6nbqy+2AwqGsNwwsHU67379/HJ598Im0Hdnd3X6oR9iJTy917vZ4uVc10ezKZlGDJ7XaLAC2gBdOFQgFra2viz8HBgY5EO46pQZvKSbLb7brgiJwpQEtPms1mVKtVXf9JVS9rUu0huMa5t1ksFuHq0RdqL9F8Ph9CoZDwwMYJtocxNshVSfi8uKhpQrX443nB3yRM3XtV0eButytnQafT0V0OrrwkXWkgzGIP+rKzs/PKydT0hUUj9OXBgwfI5XKvNJDkM+B+SF/u37+Pr7766pUFbsAfWLD0IhuWvEkOCDd9VtBd9r2H+d6L/FGRA7W56rjv/7z3HjwkXuYfeQ2qHsiwvqhd0F/0d4OI2+BtePB7g8HSsAtE9b9areoKAABtU6Av3DxVAi8/w6AmzvMUj4c1bszlclkCy4ODA/zmN7+RwI0inB6PR6cPk8/ndVpHgwfbOCRmkl15mLNhLwVfP/30U8zNzSEWiwmvqV6vI5fLCXKztrYmXDjgXJdm3I1MDZbMZrMElXt7e4LYkqPkcDgk2ATOCxi2t7cFMSFZfhIbq/rszWazLojifOL8yefzKBaL2N7elue4v7+Pra2tSzWEfp4/g5cvolwMen0+n/TL5IHz9OlTlEolHX9xUgehilCo2mL0pd/vo1qtyjgwYODfXNUhqOqKqarZJycnur3L5XK9VIR3Uv6wOhrQAvB8Pi9B7pMnT3SX3asOVAY1zba2tmS+/OpXv7qwSnvSpp4nDx8+xL/8y7+I5tM//MM/4ODg4NUGbq8abnyuEybTK3XiVU28UewqblGG/WHa6zA/B1Hai0QdX9UGzoNu8PAYfP/By8GklKBf5I+K5gB4JkhQpSU6nY4UfNC3SdlggELpBeBcCPKNN96QcXj69CkODg506OQkn6WKxKnj5Ha7ce3aNXz729+WQoJf//rX+PWvfy2H8VWRzVUEjgHJzMwMfvazn0lK/vPPP8cvfvELSb9fJXrBZ0Zf0uk0fvCDH2BlZQUA8P777+P9998X5PdVrDU+p2g0ij/7sz+TVNznn3+Ou3fvTnyevMwfQEtPTk9PC4q7vb2NYrE4KdTt836//+7LfskgeBtmmGGGGWaYYYZdYH+UyJJhhhlm2Kuy56WdX/W+SwSDhQzAOaH7sq1XxvHFarXqyuSPjo4miRQM7QdwXjhABKVarY4kwzFJX9gLk+NSLpeRz+dHEk6elLGlkdr7cJQG5pM2tWhKTdFNwIZCloxgyTDDDDPsj8hehzQv/bgonfqqfVHtdRib18GPPxIbKlj6d0HwNswwwwwzbDh7XQ7grztAUu118YP2uvljmMFZMswwwwwzzDDDDLvQjGDJMMMMM8wwwwwz7AL7g03DPU9g7uuCLi8SoAS+Hr8GS7+/bn9UexX9nwwzzDDDDDNsUvYHEyypwoQOh0PH0mcTxF6vpxPGU5vXXoUSLHCu4kudDLfbDafTqdMJabfb6Ha7OsXmq9AR4RjZ7XYRgHO5XOIbcC6KyHGi5gvbjPB3JuWPKgLqcDjgdDpF3JBBHKtOer2eqGSrSt5Xof0C6Ksr1Ca/6jio7/8inaGrsNfpMmCYYYYZ9sduRhrOMMMMM8wwwwwz7AJ7rZElVQHW6XQiGo0CALLZLFKplKAnRG2azSYODg4AaFoZJycnE1eEpSw/3zsSiWB6elraL3i9XphMJp3KaaFQQL1ex87ODgCtDcKgXsW4vlksFkFu3G43IpEIkskkksmk+ON0OgW9YYNhjsuTJ09wcHCAcrksWh6sUhnHJ7X/E/2hRH0ikYDX60UgEJDfASC+FItFbG5uYnd3V1oNDLb1GEdNl2Ok9oLzeDyIRCKi2huNRuFwOGAymaQNST6fx87OjrTNqNfruv5rnFOjjtNgryz2KyTiZrPZ4HK5BLUEzlE3ts1otVo6BI56OeMgcWoJ92CfRSJualNfFYUbfG/168u0PBn073n//zz/1e+pCOGrTEM/z5fB935dKAPA66MUD7we6Onr5NOgev7X7Q/ReHUev8r+bKqZTCY4HA7EYjEA2h5ZLpevRB0feI2DJVV23ePxIBwOY2FhAQAwOzuLeDwuqaRKpYJms6nr3M4UHSd+rVa7VMDEdA2bjEYiEQDA/Pw8ksmkCJo5HA50Oh1UKhU5yNg0kgf11tYWDg8PUa/XLxUwWa1WXfCRSCSQzWYRjUZ1PaGcTqcEAHa7HSaTSQ7deDyO9fV1PH78WBqjslnsKP5w4lKOPhqNIpPJYHp6Whe4qYJrDBoYyJ2cnGBmZgYPHz7Ew4cPAWgNZBuNhqRTh20LYzKZJPgIBoNIJBJIp9MS1M7NzSEej8tCi0ajEnRyse3s7GB9fV18WV1dxf7+vvRnG2WMOA8dDgcCgQAikYiMQzweRyqVknFKJpMIh8MSMAHa/N3f38f29jYAYH19HZubm9I0uVwuy3oYxdizS+1LFwgEZFz4tdfrlQuCx+NBtVqVfmzHx8c4Pj6WywAvB6P2OeQ48TMzwOVadjqdsNvtEqwB5z39+F5qSpn97p7XAHkcvxgwqu1N1FYmgwG92WzG6empjkIwbsPjF/n0vFYwfG/VF9XUlihqwD3pdjBqs+CLfk/1n3vBVaXfX9RU/EXpeQATe14v8ut5wbXq7+AcU5/ZVfgz+P/q87RarXKpBM6bao+z1sfxS133drsdwWAQb731FgBtf/jyyy8FMGk2mxOdQ691sMTNeWpqCtevX0c2mwUALCwswOPxyCFG5IDdrAFt4GZmZrC3twdA6yXDqHOczYGv6/f7MT09LR3iU6kUMpkMvF4vAA0dcTgc6Pf7ul5RbrdbNoLFxUXcv38fjx49kv5DoyxIThin04lIJCLjkslkkEwmEYvFZOzY5ZwHjsfjgc/nk68LhQLS6TRisRg++ugjAEAul0O73R5JGM1iscDr9WJmZgaAFkTOzMwgHo9LF3a73Y6zszMJYvj/DDQTiQTi8TjcbrcELp999plwvIb1BdCeF193eXkZs7OzmJ+fl7GamZmB0+mU93G5XHKwkOPlcrmkczygBZHFYlF6aY1inD/BYBBLS0uYnZ2VvljpdBrz8/OCcnm9Xtkg1Z5iyWRSUDqLxaJrIDvq4cK56fV6MTU1hUwmAwCCkqbTaQBALBZDMBiUwIV/W6vVcHh4CEAL3DY2NiQAr1arYyNcDodD1pLf70c0GpX5QyTQ5XIJ4ka/1Pc+OjrCwcEB1tfXAVxu0+Q42Ww2Qfw4P/x+v3RDB7T54nQ6ZZzYlJnBJADs7u5e+mBhYKGiykRy6YvT6YTL5dIhqRaLBaenp+LLyckJcrmcjN1lDmC1Lx394jrneuYz46XJ4XDI+HKM2Jx5UgcdA59B3iSfJ6CNTTAYlIuew+HAycmJnB2Hh4doNpsTQ0nVcbLb7bp9yGazwev1ShYlHo/D6/UKur22toadnZ2JNYZW/WJzYc5fnqe8jM/MzGB2dhaxWEwu1l988QVWV1dlT5ykT5zjwPk65ziFw2HcuHED3//+9/Gnf/qnALQL5d/93d/hV7/6FYDJ9zp8bYMls9ksh92tW7dw48YNaS4YiURQqVRk4DjpGPUCQCAQQDqdloe3u7uLe/fu4cGDBzLx2B39ZWYymXQPaWlpSQ6XZDKJTCYjD7XZbKLb7eoeLDctHnRutxsrKyv49a9/jY8//hiAtlkMe8BwsbndbiQSCfElkUggEAjoNqFGo4HT01NJsXHyc+Oam5vD/Pw84vG4pMNarRZOTk5GmvhWqxU+nw+pVAqAFkRGo1FYrVZpAnl2doZmsyloiMlkQjAYlL8JBAJIJpO6VNjGxgZKpdJIcv88dHnIplIpzMzMYGZmRhZ+rVZDPp8XFAmAPDf+DtEUvk4wGByrkk9FuaLRqARHS0tLALQ55Ha75RA9OjqSeUTj5q4eOB6PR1fAMIo/XCehUAhzc3OC2mYyGWSzWfnMNpsN3W4XpVJJNx/Uz5RKpVAoFATN7PV6Y21SVqsVfr9f5kM2m0UsFpN1EwwGEQqFJOgGtAOegSigPcNCoQCHwyEHL4ODUY3tHgAtMCJCyYOMhxr3KQYI9IcFJ9VqFY8fPwagoeBEJkc1zj0GbWyOC2j7UigUEnQyHA7D6/VKAG6329Hr9dBqtSTF/ejRI/z2t7+VYGlc4/47GAxxDmUyGV3Qm0gk5EJJNDSfz+Pu3bv48MMPAeBSPqlIHpFTBuBEvHmpBLQgwOPx6FppHBwc4JNPPgEA/Ou//uulxwg4D9zUi2s0GsXc3Jwg3slkEnNzczLH3G437Ha7BG4///nPUSqVZK+ehE+A9gx5+Z6fnwegPbd0Oo3FxUX5mkizuqZ2dnZkTk3K+AwZ/HNuT09PA9CyS++99x5u3bolz7FWq2FmZubK1M9fSvA2mUz/h8lkOjKZTPeU7/33JpNpz2QyffX7//4j5Wf/rclkWjeZTKsmk+knE/XWMMMMM8wwwwwz7BXbMMjS/wngfwHwfw18/3/u9/v/g/oNk8n0BoD/FMANACkAvzSZTMv9fn9kfNdms0mq69q1a3j33XflllQoFFCtViVyJA9AzdkHAgHcvHlTos5Wq4W5uTkEg0H87ne/A6DdOIeFxIkSMbplmsLr9aLb7QoKQLJ5rVaTGya5SYzYs9ksEokEjo6OBGWp1+uSvgCGT335fD6JvslFajQauvc+OzsT/3w+H2q1mowLbzH9fl++53Q6BbKnDYvAqemRdruNYrEot6B+vy+IES0SicgzmJ2dRSQSQTgc1n0m9V/+/6gpVJLcnz59CkDj+FSrVeG1EA3x+/2Sqpubm4PL5ZLbV7vd1qUEh/VHhd7pj9vtlmdUKBSwvb0tKbVSqYRGo4F+vy/jmUwmkc1m5euzszNUKhUZ21HRHJVP4nA4BBWKxWLweDwyLgcHBzg+PkatVpO56XQ6kUgkBMUIBALweDyCErTb7ZGRLo6LyjsMh8PIZrNys41Go+h2uzg+PsbR0READTlVSZ7koRUKBUEXxuEq8pkRBQgGg8hms8hkMoLkptNpTE9Pi//FYhHFYlHGKRwOIxaLwWKxyPe++uqrS/MmyQ0kKgFoVIXZ2Vlcu3YNgIaEnZ2dyY2/0+nAZrMhHA7r0IQ7d+5IOnVcn4h0MY01PT2N6elp2e+++c1vIplMylh2Oh1Ja3FPB7Qxv3PnDgAIKjiqDcqVEBkmcnPt2jW88847uHbtmvgLQMeLDAQCuHbtmsznzz///FJjpHJ+1PRkMBjEzZs38c477+Bb3/oWAG3OcO8EtHWuNhze3t7G+++/P7Yvg36pHCCbzYZUKoW3334bAPD9738f6XRaR+lgmpB7F8f1KkjnZ2dnur3WbrdLWjkUCiEQCMhZBUCI58wWTNqnlwZL/X7/30wm0+yQr/cfA/h/+/2uKc3uAAAgAElEQVR+G8ATk8m0DuDbAH43qmMul0s2gjfffBNTU1O6KqUnT55IoFGpVORwUR9+LpeToCYYDOJ73/seOp2OLMRarSbBxMuMEzwWiyEajcoi73a7ODo6koOOxG01jWKxWCQVBGicJYfDIVV9gLYIRs1D83Bhioqk8k6nIxOm2Wyi0+noCOoej0cCgmQyKTpRXBRM440CZ9Jv/pvP53FycoJGoyEHeqPRQKvVktd1uVxoNpvytc/nQzAY1B20/FcNml7mD/+eC63dbuPo6AiFQkGCgGq1imq1qsu1u1wuxONxgcA5rkyb1Go1dDodnU/DjI3qS6fTQaPRQC6Xk2fUbrdRKpUkPVwul9Hv92G1WiV14ff7dfpYpVIJxWJR5hjnvroGLvKNP+v1eqhWq8KdOzg4QK1Wk8+8t7eH4+NjtNttmUOBQABut1vGqd1uywWBYznK+Az6xc90enqqS4Wdnp5ib28P6+vrumDJ6/XK+NKnwa7k4/gymM4ht4V7yvz8PEwmkwTgjx8/xsHBgfzN9PS08AcZAPJn49jgwebz+SQNl06ndZfDer0uhRuAdlmMx+P4wQ9+IGnDeDyuS2GO6xOJv2oQkEqlcPPmTQDaOFksFiHe3r59G7lcDn6/H3/+538OQNuHUqmULhV2WZ8AbazUYHpubg7Xrl1DPB6XPfurr77C5uam+P/jH/8Y6XRaLgOXJVO/iODucrkQi8WwuLgoQUelUsHnn3+O1dVVAFqw91d/9VfiSzAYlMvIJEytaO33+/B4PDJWsVgMjUYDX3zxBQCtMGl6eho//vGPZU2yunrSxj2ce0m73Ua5XJbg/+nTp7BarZiamtKdxerlfNJ2mZXyX5tMpv8cwGcA/pt+v18EMA3gI+V3dn//vZHN5XJJIBGJRNBut6Xa5ssvv8SDBw+wu7sLQNswOYG4+IvFIlwul9xK3W633A45GVwuF1qt1lABinpTsVgscpjs7+9jZ2dHqpQODw9FhJKvSwIqeSHqIaBWpgCjdZs+PT2VgwrQDvNKpSLIGwAhtKsbbSQSkVseeVudTkcOqVGRAUA7INvttgSifCbValX8Y0WSSlDvdDrCJ+Bts16vC89pUDpgWJ9OT08luM7lcoK88HuDAS3L98lx4PdqtZr4wiDmRZvfi6zf78uttV6vY3d3F/1+X54BuS0MhDqdDux2O/x+v/B1UqkUXC7XMxcEdd4MO0ZqQEK5DSJWtVpN0FJ+zYCWt7pEIiH+ABpRuFqt6uQpRglO1MCt3W5L0JjP53UokslkwtraGp4+fSqbZr/f15GuuTbVoHYclJTzXw2YyZ3jodrv97G6uiqHyZMnT1AsFiXA9Xg8svb4nPj1OLwKdZwajYbuYPB4PPB4PDJWH3/8MW7fvo2trS0A2lq7ceMGvvOd7+jQ3263O/J8HvSJ/vAz5nI5XL9+XQLESqWCR48eCaJ/7949nJ2dYWlpCe++qzV7n5mZgcVikQvEOMGt6pMqg2I2mwXlInfr0aNH+MUvfgFAKyKp1WqCGL7zzjuYn5+XOaPyGsf1B3hWaqRWq8k5wbPtH//xH/Hxxx/L5WVmZgbvvfeerlJ3UsHJ4KWUl0qiaJ9++inu3LkjhRLlchlvv/02/vIv/1KedaFQuPT4XOSfug+ZTCZ5rrlcDrVaDT/84Q/l90ulEtbW1q6sMm9cUcr/FcACgLcBHAD4H0d9AZPJ9F+YTKbPTCbTZ2P6YJhhhhlmmGGGGXblNhay1O/3JaFsMpn+NwD/+Psv9wBklF9N//57z3uNvwPwd79/jWeuEE6nU8dbKRQKAk0+fvwY6+vrEn13Oh30ej2BXIHzUlSiArFYTG7rqvifxWIZqiUKb19nZ2colUpyg9va2sLa2pouLcAbhKoXA+jRo9PTU105Km9Aw5h6wywUCpJKarVaqFarujYv/Jev7fF44HQ65fbr8/nQ7/efqbAYJ33SarXkVnJ0dIRut6vTt+GNmuNC2JdpgampKSlLH+Q2Pe/zX2S9Xk/SQnt7e8jn8zCbzbrxJpIEaPB2JpPBG2+8IenfYDCIcrks43J2dgaLxaJDCUbxB9CQJaZqidTY7XbhAgAQIc/5+XmRFwgGgzg9PRUEs9Vq6UprR0UH6Hu9XsfJyYn4V6lUEIvFZI2wOjAQCEjqdnZ2Fj6fT8dR6na7uvmuSk8MO0asluR8Pjw8RCAQ0ElP8HNzb3C73chkMoJCu91uSUdzL7BarbrK12FRCyK3gHazPTk50elZFYtFbG1tyTN5+vQpOp2OvC99VjlLVqtV9JdGNTUlQYSTVUmdTgf1eh0PHjwAoKW6vvzyS0EhvF4vFhYWYLPZ5DkRVR8lxT1oRJZUUdLj42O0Wi1Zf0dHR/joo4/wwQcfANAQCofDgXQ6LWlEm82m06Yb15h+VWkBKjex2+0in8/js88+w29+8xvxz2w26yp5bTabTnfusj7R1M9HYeJGo4FHjx4B0CrvWPkGQCqvuc739vZ0VbKTMqI43W5X9oKNjQ3cv39fsgVms1loKER2NzY2rgzJUceNtBCOn91ux8zMDFKplIzN1tYWVldXr4Q/BYwZLJlMpql+v3/w+y//EwCslPsHAP+3yWT6n6ARvJcAfDKuc+qEL5fLchDv7OygUqkI/KcKvxFitlqtOD09lWCpVqvB5XLpNCycTufQAQoXTLlchs1mkwN0f38fpVJJNlA1UOJhGI1GkUwmJS8NaIfS0dGR+MdFPmyKANAW2/HxsUyWdruNXq/3DFfDarVKmiKZTGJ2dlYgZ7fbLekztXfd83hDFxkPOjXdRz9UvpQaFKRSKaysrGB5eRmARm60WCw60bXBdMUoaTjOD6qTq4rYDJxVeYE33ngDN2/elPQB06W0QRHCUf0BtLGt1WrC8wC0gMTtdguJM5vN4vr160in0+ILoMHM/BtyRHgwq0H6MMa11e120Ww2JTjiPOfcTSaTiMfjOg6H1+tFv9+Xywp7NZIw63Q6RWF81FSuysvi3/M1qOLvcDhkPIPBIBYWFmTsOJaBQED8YfA26hwaTFdSt4UBtlo4Qf8cDoekTiORiCjoq4GxekEb1R8AwktUx9fhcOhkAfgv50soFJKDjmvgeYH2qAETn4+aau73NY057ieFQgH5fF4n0hsIBLC4uCil4FarVXfJ48XqMqk44Hyeq3tksVgULTm+dzAYxHe/+10A2vrr9/vCaer1epfy5UW+Ma1ULpflst3tduFyuWRf+slPfoKpqSk5Jw4PD+W8m3RQoGq6ARAAgpyghYUF/O3f/i3cbrek5jY3N69UwVtdsyyMAYCVlRX87Gc/QyQSkXl1584dVCqVry9YMplM/w+AHwKImkymXQD/HYAfmkymtwH0AWwB+C8BoN/v3zeZTP8fgAcAegD+q/4YlXA0fmjyabiQ1BYMgL6ZrarLoIp5PX36FMlkEjabTccDKRaLukDnRX6oN2+v1ytfDzbSpXiW0+mUwyWdTmNhYUG4Us1mE0dHRzg6OtKhLgzw1M9+0bhw01Q3P95iuUmazWYEAgEJ1DKZjGgr0d9arYZisajLhY/KqyAZTw2QeIvm4eLz+eDxeGSDXFpawq1bt8Q3VqypOkBEXVRF4lEDFKIeDHaAc40THrKLi4u4fv06IpGIfO5msykqsYBGiD08PBTUi76OsjhPT0+l6bOK+qlBPG9Mfr9f/GXgRl9SqRTq9bqgMI1GYyR/1MNERVB4YKk6TAyUGORSMZsHUCQSwdzcnLxGuVwWVd9RAhTOIVWNm0UBAITQrOqExWIxhEIhHeE0FAphZmZGLgRPnjzRcRNHCU5UPSfuQWpQQG0aAKKETgL40tKSPEOip+FwGHa7XadUPfiew/g1SIBl4QC/DgQCmJ6elueYyWTw1ltvIRAIyJziOuPX43ADn+c79yWiOa1WCx6PR5Abs9mMbDaL7373uxLQsopYvWypn3VcnwZ9I3Jpt9sFKT07O8Pc3Bz+4i/+AoC2N5ycnAiyRJ8HeYGTOJSJgHOPnJ+fR7/fF67tD3/4Q9hsNrmYqBp16v48CV+4x3J+22w2ZLNZOVO/853vYGlpCSaTSfjCDMoHke1JBSxqpazf7xdtuvfeew+Li4swm80SSN69e/fSKOBFNkw13H/2nG//7xf8/n8A8B8u4xQAHYzbbrcRDoclJcFSZm6YiUQCiURCt2kSOSCkWSqV0Ov1kEwmpSptdnYW29vbQykyc3NrtVq6Q4skXD4wi8WCRCIhJfCAtkFSoJH+b25uotPp6ETv1PLVYRYAoW9VtdztdsPlcskmGQ6HkU6nZQNnaxbedKl4XCqVZINyuVxy+Krv9TJT4W/KCHg8Hl0LlHg8LkT369evIx6PyyJtNptCKOazjUajKBQKulLaYQImNcBV0TYufFY0MnBmaTNThwCkZYeKPrG1DnCOyowanPDv+BmBc9FJ+su5r972WCYPaFU9KkJBsuioqrUMTviZSqUSQqGQ7jOyiECdAyz/BjSkaWVlRZ4jg2+S89XPP8w48TNVq1UcHh7KJYNBRzAYlPlL5XUGVBTXy2azOmmDarX6zEVklOdGvzqdjhRPWK1WHVJjMpl0rZDi8bgE6EQIA4GALhXGFNY4RG/1/6vVqq710fLyMhYWFmS+RKNRLC8v6/pEsgKUv6OmsEZ9bvz8gPYMKpWK7IlOpxOZTEYuJtwjl5aWdMhoo9GQsXQ4HBJsX6YFCoMK7vGlUkmKfa5fvy7+sDUToAUNqiyH3W4XEU0VkR23JQvHiWKvxWJRvpfJZOByufDGG28A0C4i/X5fKi6LxSLMZrNu7+AavizCw5Qg53cwGEQsFpPL7Ntvvy2dKJjuZbp9sEBpUi101H3T4XDIBejmzZvyTDY2NgAADx8+fEY4V/33suMzLsHbMMMMM8wwwwwz7I/CXtt2J71eT24D3W4X2WxW1yRXbZ5JgmcoFNJxLw4PD0Xbg4JVVqtV1wcrHA4PJTim5r79fr+gXOFwGJ1OR/LbDocDU1NTCAQCunJmtbHn7u4uyuUynE6nTqpd5VWw8e9FZjKZ4HK5BDXi+7KMGNDQkPn5efGFjX55Ey+VStjZ2dGV8E9PT+uicKJMw9wSeGP2er2SIlF1XRYWFqRtDX3iDbRUKqFUKqFSqcjrRCIRZDIZeW+Wqo5CBCUZVm3JwNsi36fRaMhcoT+DDSKJRKmoC1NYoyAnTMPxGRSLRXi9XhkPQCubV7k5RDT5jEKhEGZnZ2VOFQqFZ57TKOlKFU07PDyU+eN0OtFut7G7uyvIF1ElogKJRALT09MCkR8eHuLJkycol8sjk1E5PnyfarUqqXT2NWSpOgApaOBnJb8qEAhI2iccDotWFD/vqDdepuFUxHtqagpzc3M6XSj+HqDNo0AgoOs75vV6dWnlcbk5RDnUnnjsUwloqX9VvgQ4T7kO3tbVlP1lbt98XSKnfI6BQADRaFTmGBEtFR1hypXotsPhkEa/l5E2oF8cJ+q8xeNxQeEsFgumpqZk/fX7WsGLmmJiix01zXNZ1OT09BS1Wk3kOgBtjnu9XkHhiARubm4C0Gggqv4XMNl+bGx1BZzz/zh3A4EALBYLCoWCENK5ptT5fFUcJpfLJehfKBQSzhclKQ4PD3XPZBx5jovstQ2W1Id2cHCAWCwmk/nGjRtoNBry83A4jHg8Lj2HAAjxmZOK/6oTnoO/trYG4OKqB5WUx/wpAOEFcPNW+0PxcOn3NX0fbrJMUVDcD9AWhdfr1TX/HCZYUnvOpVIppFIphMNhCSwTiQTcbvczUCQ3D6oO9/t9CWr4+bhAc7kcSqXSUP6owRJFJsnFmZ6eRjablYOYasystiBvSq2gCwQCMJlMOlItA6ZRUztqpRX5JdwQqXWiVgWS08GUq8PhQCqV0o0lOT7DVoQwGFADLB5iqqaIzWaTeQNoc1MVjFtZWZFUBqAdlicnJ6jVaiNVpwzyhNR1xfctlUqw2Wy69Fin05H5Qj6e2rh4a2sLu7u7YwnEqcEeBTuBc42zSqUim3OlUpGLCqBxz2KxGGKxmARLsVhM1hVfd5wNlJVVfD9eiFT1fqZVgHM18UgkomvOPFiVOW46Ry1iKJVKODk50Wld9Xo9GbtWq4VIJKJLsZGErxbSDJvmfplfahqOqT61ItTtduvS9uVyGfl8Xpdy42Xksimds7MzXXBNDT51v08mk7rU6MbGhlA41MKZF3HNxrHT01PR71LpF71eT3fRLpfLuH//PoDzs0MNStT04GWM7809kX1G+ZldLhf6/T42Nzdx+/ZtAOfdKQaLXiZNsrZYLDpKh6rx9tlnn+l8oU06aHttgyUViWFrE1UscGVlRRfAcJEz0iUqoFYPMRJVW3+Ew+Ghbi7q66gcBN6QGKTx/YFzohwDNDUKp6ovb1dExejb4eHhS8lqNptNx7tZWlpCKpWC2+3WlU2rmx95F3ztRqPxDNGTlTNE6Xq93jMT8UVjpCJa09PT0ngRgCgtq0TgXC4nh3OlUhGl6MGmnAxYeECoFXMvMpUcyBYR9M9qtaLT6QhqQZFHlehut9tFWgE4b1SsNnA+Pj5GtVod6RbDHL8q06/OdwZPlUpF16DS6/XqeEKUGAA0dJUCqRfJLgzjm8oTIX+h1+tJEECfyOWyWq3IZrPCs5iZmcHU1BQ8Ho8ukBnW1MKOWq0miB8rJV0ul8whqudzvttsNrz11lvCYQQgl5fLkpbr9TqePHkiz61QKMBut+sKAthGB9A4kd/4xjdgNptlLVksFgkCgPF4OPSL3QMArSVHsVh8Zn4zWLXZbLomo8B5BwMVKb1MoMTDqV6vY3V1VcaBl1i1yooFJrRyuYzd3V1ZA0TWLxu4MQDgPPzyyy+xt7cHl8ula28yPz8vc6jZbOLhw4fPlYOZJNm81Wphf38fjUZDnpvFYsHy8rJO8X1nZweffvopAAj37nm8tcsag0peXtvtNlqtFt555x0A2jh1u1388pe/FII3eWWTDo6eZ/1+X4IkxgIPHz6UhsdXJY5JMzhLhhlmmGGGGWaYYRfYa4ssqfpH7XYbJycngjY4nU5MTU3pRNrsdrtUBAHnaSaVnc+bFiNQNY3yMuNtkoiQWrmkau/w/wdRrkqlomvaSu0VIiahUAi9Xk+g34sidb6XzWZDNBqVPC5TgoMwv4oU0BeiA91uV3LTzJu73W40m015BkdHRzqhtBf5ZLfbJU2UyWSQSCSkySZ9oc4QoKUOyDnhuLANDFN3FBGlv81mE3t7ey8VsFNTgnw96t4A0DX1BCAtVlQ9GGrk8Fl4vV6kUin5ucViwePHj/H06dOhuTmUVKC8BKCNt9vtlvdpNBool8uCdgHnyKaqo9Pr9XQNcFmWPirKpVazUOpBbdjLsVG5XKo4Z7lc1qWAyHNQOVijmFpxNJjGq1arcLlckk7N5/O6KsF4PI7j42MdT8/v9+sE7caB58kPyuVy8t6rq6twOp269ieDrSjUxrr8HTX9dBkUp9PpCNpXr9fx9OlTneSG2WyWZxSNRlGv12G1Wp9JwatconH9UVNBHCeito8fP9ZVAHq9XkGdaWtra9jZ2dEhmZNAK4gs8XWJnKi97Nijk1/v7u7ik08+kfk+LF9zWFPlHtiaiuvN7/fj1q1bsqcDwCeffCJtayY1Ls+zwbT36ekpMpkM3nzzTQDauXtwcIAPPvhA1xz9Kk2lKni9XpFUoJbbv/3bv4kw61X78toGS51OR0oCA4EATk9PZUJls1mdXkg+n0elUtGVBxNeVgMhEka5cHK5HLa3t18aLKkEzFqtphPIpK7SoBhjt9vVlauqhw2Fx+x2u07zxGQySSDxskCA7833B843u8HDTyXNsjyfvjFwi0ajEqBQdJPpj2EOPXZoZ/AXjUYRi8XgcDjEP4/HA7fbLb7Z7XbhLvB9WR6uknNVeQSKDTKdcdEYqSnOTCaDWCwmwRLHmwdHvV6HzWZDKBTSNYwNBoMiNcFydP7N0dER3G437Ha7fO9FC1Z9ZhRNZIk5U7AMyCk+abFYdKlncvOA85Qg4Xvy34YVWVXLalV+HQMdprDcbreuhxVwHvBxLJkq5Xgz7XRZYi65VAwYycNRic0k+/NzsyehKsTq8/kuTTxVgxwGF5QvUZvR9vvnSvwOhwPb29t466235Odqg2r+/rim8o/IyeMcGtQ4A84bbXPscrmcTvpiUmXe/b6+1yRV11UOZzAYFEFcAFhfX0c+nx+qm8I4fqmBMi9l/J7D4RDuH6Cpnz9+/FjXpPoqjPu1GqSenZ1hZWVF1l+9Xn9lwQl9UfvqLS4uSkGO2WzGvXv3cP/+/SsVonyeWa1WpNNpKWAwm80oFAr48MMPrzz9Jj68kncZw7rdrnBZHj16hE6nI4ut2+0iEAjo2k5wMaqbaK/X0wk29vt9VCoVEfba3NzEwcHBUA+eEyifz+Pw8FC3KZlMJjnULBaLcBfo//HxsU5xnH/DwALQNrLNzU3x7aIATiUYqzeBcrmsUzHn2KikPRKqGTAyYq/VauJPv9/XdXgehgPD4IPPyGQywe/3I5lM6siK9AmAVBdx/J1Op4hADgogqguYt+aX+cP3o5hhIpEQITryqFSkplQqodVqyfgFg0EdL4gNiFUuGkVJXxYYqME0idoMCBOJBDwejxy6bKejKsO73W5MTU0J12NpaQnhcFgn1jnYqHgYY+CjcgFCoZCuGaz6mQENyXW73f8/e2/222aapY89pLjvpESKErXv5V0u19ZV1ejqXKWBmUxjgMxVEAQBfje/AAmQiwT5C3KVi9wECJCLBAgmmEbSM6maVHdPdS3Ttbnssqu8yZK1WLsokRT3VSRz8dVz9H60bJGypHb/5juAYUuWyMP3e5fzPuc5zxH/R0ZG0N/fL0FxuVw+UpupU+Mhx8/IKs7WwEc9iEncBw7nm9PpfOnAjf7wMkI7Sm1eRZ257ukvhXO5Zk/LVG4Vv6aQIr92Op2yPwHQtbk5C1MDAPVvm82GiYkJOBwOGYcnT550rBH2Mj6pz3FkZAThcFjG7uHDh9I0+6yNftCXcDiMd999V/aC1dVV3L1796XbwHRi9MXr9eKDDz4Q9Jp8pXZ0CU/LuPadTifGxsbkXGg2m3jw4AEeP358boGbwVkyzDDDDDPMMMMMe4G9sshSvV6XW/+jR4+wtrYmKqZLS0uIRqNy+y0UCnLr5E2pVWMEgFQ38HUWFxeRz+ePvUEQVgYONZKobRSPxxEOh3V9sXK5HDKZjOTs2WiU7+NyudBoNGCz2SRPvr29jdXVVUF8XuSTWk2xtLSkS9/09/fr9IRMJpOuLUYikZDqDv4/URb1e7u7uzrdoeNuNuRFMX8cj8elcoyfkbcEoiUs4+XXKk9G/ZlsNivPjP53cuurVqvPtBSJRCK6Cily2srlso73ARwiFDabDblcTtC/zc1NZDKZjm59TJESwQE0vZ6RkRFJy1FmQuXgeTweBINB+Rnq9XC+bG9vIx6Pn6jJporCsbGxiqYBwMzMjKAAlUoFXq9XIPHp6WmdpAJ7XbWztjox3sLJsQMO+SR8rmzLYjabZSxOW29F9afRaOg0ZtQqR+pkFYtFWQMOhwM+n68tbbeT+KP+W0VPVI4ckSWm/M/bXC6XqKuTc7W6unouSI5qRABjsRhsNpukup4+fXqmiNtRRiTptdde0+nK3b17F6lU6lzHhvN3bGwMly9flvm9s7ODP/3pT+c2Nuq+NDAwgOvXr8ueXKvV8M///M+y/52HvbLBkppnrtfr2N/fF22H5eVl+Hw+2cjZ4sBut+s2/VqtptNjSafTqFarUvbIr9sxtTdcNpuVzW5ubk6XNmJ3eEDfL8dms8l7eTweFAoFXVk4D2E1PfY8U0t019bWJKhxOBySOuKB7/F4dIEjy9L5/7VaTbR1OBFJVOU47e3tHXsIkwhMImIul8PS0hLC4bCOd6OmCFuJk9TxoBYNAJHfZ7C3traG3d3dY5+b2gIjlUphe3tbhOX4ve7ubglYGLgykAUOO7mrHJWNjQ0JltbW1qT09zgomJ+Tgn0q4b9er+t6jI2OjurSmepnUvWQUqkU5ubmAAAPHjzA6uqqLuXTjj+qtg59AQ43zGg0ipmZGfj9fl1gqco7OBwONBoNeUbLy8s6zZyT2vP6TTkcDkkNULaDYxeNRuHz+XQNeflsTyMVd5SpXC41De52u4U029p+aHV1FcDpk4dpDJbU/pm8FPH9yBHkz5xlCbhKAHe73TKfVIL6eZpKGejr69PxRff29s6dk8M0+Pj4OPx+v+w59+7de6Zo4CxNHZfJyUkEg0HZE7777rtzD2o5LuxLx7m6vb2Nb7755lyD2lc2WGo1taKLVRxEG1j1oValUSWXETurrFS+A3V92nn4rYuHX6tKr4D+dtl641Q3LhKzVfRCFURsZ7Hy1srPTGFCEuP53iqplD6oHcepHcVFwn9z82gHPeGhQD2TTCaD1dVV3TPh+/F91Fs43xeALqjh33wNVma16w+goVHlchnLy8u6Kju1l5bH44HH44Hdbpffq1QqyOVyOpVsKmUD2g2dyFg76CQAIf6vr69LMMfnyLG7cOGCBOAqv0sVRJybm8Pi4qIcuuvr69jd3e1ITZx+qYrumUwGe3t7Enzk83lpOqzqbqmNUqkCT3HX9fV1LCwsoFqtdryxtnKCVOMa8nq9guyGQiEdTykUCqFUKiGRSAiS3FoZe1rGda3OW7vdLoFcIBDQIVz8niqee5rojsp9URtZ07dSqSQoN6BxUlTRwUqlcibcmNZxIn9U5Vtyjzot8vuLfOGeqAoCNxoNQcUzmcyZBdZH+cM5DWg9z0wmk2gdLS0tnWtwovJvh4aGYLFYZI5++eWX50ampvF8GB4ehsPhkL33448/xubm5rmOzV9MsKRaa/UGUSg1ymwlC3KBqA1LO22bcZQPrf8GDtEbFf5XK7R6GnUAACAASURBVOrUDU29nZMY26kPx8kMHBwctLX4ubEykFM70bfrD5/BUePaWqbOf7eWVrd+HrXsWN3sjzO1VQjLrNWu3SoKwBJwk8kkr88gQi2tbjQaugCvHXHMVp+YLuYmtL29jZs3bwrBfmBgANFoVIdSknC/vr4OQIPEqXZO3zpREqdx7LkJUamYAUYymUQikUBfX59sopVKBZlMRvxPJBJYW1sTlCCfzwtqe5LNTEW9WM2p+quW3rMdBudoPp8X9X76x3TpaWys6vxlk1wGPpxDRJnZ5ogyD4AWWJZKJd0l4LT8Un3jmmGASwX2Uqkkz5b+qxen07LWwE1NxweDQWkMzT2GVahnjeiogRIrS71eL7LZrFw8iMidB6maZwClAvx+P0qlEu7cuQNA2xvOKyDg2KhSGMlkEgsLCwCAW7duvTRa3Klx3dy/fx8LCwvSZuXv//7vzzUFBxgEb8MMM8wwwwwzzLAX2l8kstRq7eqEkMR71jn6dl9XRcPINTkLEmq7r8mbFJu8voz+ylG/01re3K6pKN1JBQVVocOjrFMhR9pJxoZl/qogZiqVEo7Yw4cPn/Gn3fc5qT/q+BSLRUlJzM/P45NPPnkG4VHTZUeV1L+swCH/JpIEHCJau7u70isL0BNB2bZH1T4ql8vPiEOe1FTuDRHtVj0hpuWTySQqlQr29vbEn62tLdy/f78tbmKnfql/U7yQ6Fo8HscPP/yAgYEBzM/Piy9MzQGdr8t2/OG/VRrFxsYGbt68iXq9LtzPVg7iWXKn+DfR1AcPHiASiQhq8TLtgk7iDyVt6MvBwYG08FD7NJ6HLyqqfO/ePbjdbkG5NjY2zpXL1Ww2ZZ189tlnyGazwol9+PDhuZPwTeddgXCkEybTn98Jwwwz7C/emP5pDWjPa5NX35vpHofDoQv4yuXyuaQz1LSc3W5HLBbD7OysFIQwaHtZNfF2TNV8cjqdmJycxOTkpAQJt27dOreqLwbXJA+PjY3h0qVLMi737t1DKpU6P/0es1k4dxMTE4jFYuLL4uKi7hmdhzGw9/l86O3tlWfUaQPz0zRSJtQL/SmOyffNZvPGcT9kBEuGGWaYYWdgRwVuZ4Eet2Mkx1POAICImJ63sahEHZdTPvza9gM45FSpYrN/jnGhLyqK++eaL7SzJty/ItZWsGRwlgwzzDDDDDPMMMNeYP9BcJYMM8www141O0vdok6NaMl58zyOMpW/9Of2A9C4WufZTuRF9udEtY6yV2X+vgpmIEuGGWaYYYYZZphhLzADWToDO6v2Cie15ykhG2aYYYYZZphhx9tfVLCkisGp4pJWq1VXMgtoJdCqYOBZBQitLQ7U1goMUigWSOE8+nUWcCsJgvTHbrfD6XRKhQOF3zhOrM5R1XtPc6xahfKsVqtUoVAQT221Ua1WUalUdOXMZ/XsWoXz6CeNaRSVbMnvG2aYYYYZ9m/HjDScYYYZZphhhhlm2AvsLwJZIlLi8/kAaB3jx8bGEAqFAGg3/UKhgFqtJiJnuVwO8XhcRK1Oq2Fla5sMr9eL7u5uDA8PA9C6tDscDl2LkVwuh0KhIKKDu7u7yGQyuga3/BydmoqI2Gw2eL1ehEIh8aenpweBQEDXl6lUKkkPut3dXayurmJnZ0fE2DhWJ0G+VPTPZrPp+q8NDw8jEolImwG/3w+LxaJreBuPx7G+vi46I+l0GrVaTQihJymlVXsHsjWF3W5HKBQS36LRKLxeL5xOpyBs2WwW29vb0saDfeKIehEh7NSf1pJyatBwTrHhMBFU/k6j0ZBxqNVqODg4kK/ZpuSkpcatqdrWfn6tf7f+PPt9AYdooOrLWaJxL/KVpiKE540MHtVG5FVAJ19FusCr4gvw6ozPqzR/Wtc+96U/lz9dXV269kJsVA6cflbilQ6WeMA7HA74/X6MjY0BAKampjA5OSmDxK7ytVpN+lcVi0UEAgEJUJLJ5DMd2TsZSDUgcblccsiOjIxgaGhIGntGIhFYLBZd81k+wL6+PgBat/onT56Iwi9wWAXRiU8UVqOgWTAYxPDwMPr6+tDf3w8A6O/vRyQS0VWfHBwcSGC0u7uL/v5+PHnyBIuLiwAOGwzT2g2arFarPBOv14twOIzBwUHpexSLxTAwMCCBHAMXvlc6ncbOzg7W1takSfL8/DzW1tZEGK1SqbQ1TmrDXq/XC7/fj0gkIs9pYGAAg4ODGBoaAqA9N5fLBYvFIinKRCKBvb09Cdx2dnawvLyMR48eAdC6kxcKBVFLPs4fjpHb7YbH45Hmmd3d3ejr65PgPxqNore3F36/X54te9ulUil5752dHWxubgIAVldXpRGzqhdznDGoVfubuVwu8c3hcMDr9UrfM36vUqnIMymVSrBYLPIcU6kU9vf3dYFlO2PEcWpNjaqNatVeZgCeSZFS7d3pdMr/lcvlI3v8dWqtgRj9U3sdtl4yqGzOucjGxa2Nok9qrQdXaypZ9aP1dywWi64S7DRpAUcdqq2+HOW7+hxPmw5w1L9f9DOcd7yInFVj3+O+bu1HSFrHefijfk9tiMw12NXVpaNNnNeliOvO5XLJuRoOh5HP52VPTCQS/zaCJZPJJBt4T08PpqenMTU1BQC4ceMGhoeHZVDq9ToqlYosfuCwkzS7N9+7dw+Li4vS4JO/165xsrpcLvT09EjgNjY2hpmZGTl0AW3CWK1W3SbKRrkAcPXqVSwsLODmzZsi357P59tuPKoevF6vV5CakZERDA4OSgAHAB6PBy6XS7p71+t1WK1WmWADAwO4ePEiZmZmcPPmTQDAnTt3sLe3JwFVOzc+Ct6xGWx/fz9GRkYwMDCAkZERAFoQ4Pf7JaCtVqs4ODiQceru7kYwGMT09LQEKIFAAI1GAysrK/I77ZiqihuJRDA8PIyJiQlMTk4CACYnJ9Hd3S1Bgc1mk0OUG7bFYkFvb6/Mu729PTidTkEri8WiNGM+bny4uXg8HvT29qKvr0/GZWRkBBMTE4hGo/KZyTPj2DDA5a1pf38f8/PzEsCwbQWb9B5n9MfpdMLn88lzi8Vi8gfQVHw9Ho8uWLLb7SgWizKn9vf3UavVZK1tb29jcXFReINAe3OIBxQDC5vNBqfTKfMlHA4jGAzC5/PpUDiLxSLvU61WJYhjq4i9vT2kUildENkuisHxJ/pH1A/Q9gKuL46l0+mU/2c7o1wuJ/4lEglks1nZC06CpqgHKP1j01w+I5vNJuMHQHiUAGQOlUolJJNJGa+XkTpQD3QeqCpvUn2udrsdLpdLgl9AW0tqm51cLvdSMgdHHfAABF1WW+LwgsD9wul0olQqybjs7Owgm82eiuxCa+BjtVoFRQYgDYeZRQkGg/D7/TJfdnd3sb6+jnQ6faoyEGqjeXVtqRzTcDiM4eFhhMNhCY7W1tbw8OFD7O7uAsCp+kQ+MADxS1UXHxsbw+uvv45f/OIX8jOffPIJPvroIwA4dRV2g7NkmGGGGWaYYYYZ9gJ7ZZEls9ks0fVrr72G2dlZvP766wAgN3IVgrdYLHA6nXJ7CYfDGB0dFfRodnYWn3/+OW7fvo319XUA2s2q3ciTEa3H48Ho6CgmJiYAANPT07hw4YLcSpLJpKRCeLux2WwwmUzyOz6fD1evXoXdbpfIeWFhoWOhNovFApfLJchSOByWP7wNsPkob9kHBwdwOBzy/7FYDENDQxgbG5NbQTqdRj6fl9tMO2NEJJDPrKenR25FtGw2i3Q6La+XyWTQaDTkNuzxeBCNRnUpqUQigbW1NUERzWZzW4ig2vspFAohEokgFovJ3HG73ahWq3KT5U2Sn5njGwgE0NPTI+MbDAYl1aj2u2pnbADt2UejUUGTAODy5csIh8Myx2q1GnK5nC7/TgSOr9PV1YVIJILV1VXxle91nE+t/qgoVywWw8zMjCCPnNdqw1WmQlVEpdFoyM/WajVZYyq6+iJ/gEPEgXMmEAggEomgt7cXgHbLZnqSxjQSnxu5XKVSSbhmCwsLghK0a0SRODfdbjdsNhvcbjeCwSAAbV719/fLXCWyw3VE5LRer0tz3aWlJTx48ECXEmzX1D5vDodDKl0Bbe0EAgFJv3d3d+sQw2azKekbvufe3h5++OEHzM3NAdDQnJOgXF1dXbDb7TrETX2OsVgMPT096O7uBqAhvdz3OFYHBwfSYBcAHj16dOLUl4pItKKTfr8fsVgMvb29sm8ODQ3pKoabzSbK5bLQEr744gtpcPsyRr+49jiXBgYG5Llxb+Acc7lcgnQBWg+9jz/+WObTy5qKTDqdTgSDQYyOjgLQnlt/f7/sU9FoFIFAAIFAQPaCTz/9FKlUSpCl0zKOFffaUCiEoaEhQbyHhoZw+fJlvPbaa/K9RqOBra0t/Mu//It8fZr2SgdLnEAXLlzA66+/LqmlarWKfD4vD2hnZwe5XE7gVUDbUKxWK8LhMADtoOvq6oLJZBJy8/b2dtsDyklF7gsPUE5qdvfe3NxEKpXSNYVsNpu6jSsajcLj8eDKlSvY2toCAKyvryOfz3dUnk7YVD1kC4UCtre3ZTFlMhnk83k5LBho8GCr1+uIRqNwuVySBvL7/TpeSCemcg74jMizIbmcQWGhUECz2ZT38vl8mJ6eRjgcls3NZrPpNvh2N0+Vu8HfKRaLkira3d1FOp2WcSJ5W00Ler1ejI6O6giEKjxfqVTa2kDVAIYcFh68ACRFy7lAUnmhUJBNyWw2IxQKCecqGAwim81KSjCTybSdglMPE84h+jIwMICpqSn5zIVCAevr67LGAG39mUwmmc+RSAQej0fWFVOGDBTUZ/A8fwBtzbrdbjlUGdxeuHABgFYg4PV6US6XhYu4s7ODUqmkW5+9vb2wWCyS4t7d3ZU10q6RD8HP2NvbC5/Ph3A4LPvS+Pg4ZmZmJEgol8uIx+O6gywYDCIcDktK++bNm9jY2JAUZrsHsBrg+v1+hMNhCSb5PkNDQ7hy5QoALViyWq0SRGazWdRqNUmrAtqe5XQ6JeDmHtaJ8VLCQxTQUvDBYBCDg4MAtItqLBaTlDc721erVV3AraZNFhcXJUDoxBjkMoh0u926/Xp0dBSzs7O4cOGC7N0cJ641l8sFu92O6elpANqFjTzFk5iadiMHENACgIsXL2J2dhZvvPEGAO2cUgPuWq0Gt9st89fr9WJubg737t07sT+qX61p3NHRUfHl/fffRywWk2dEPqDX6xV/Zmdn8fHHH596YNK6XzidToRCIbnEjY6OIhqN6lLy9XodDodD1ta/mWDJbrcLL+jSpUsYHh6WA2d3dxdPnjzB8vIyAI0zoeoEAdrCt9vtuHFD648XDAZx7do1pNNpLCwsANBQoHZvL3wg3d3d6O7ulk3K4/Egl8thaWkJAPDkyRNkMhkUCgXZIOv1OiKRiCySoaEhybly43W73YL+HGcqwVQlJJfLZezv76NUKsnGl8lkdITtSqUCk8kkQWQoFEKj0dChQg6H47lE0eOMzyCTyaDZbKJYLMr40i9u4PSbh0A4HEYkEpHbKnCIFHRayaSSwA8ODpDP5xGPx3UIxN7enox5sVhEpVKRQxLQggAuTuCQD8OxZdXgcT61ajWRy6NWJObzeZmXm5ubEuTS3G43+vv7dcRrNVgqFAoyl9vxRzU1eCJPivNlYWEB8/PziMfjgtTw/Rlc8+bOIJhk6k6RAbPZrONrdHd3IxaLCc8sGAyiWCxieXkZjx8/BgBsbW3JJgkAg4ODgq5y/Lh2OzEGJzxQBwYG0NPTg1gsJofoyMgIXC6XjMv8/DwWFhZk3Xs8Hukiz7FKp9Po6ekR5K1dzpJaLcniib6+PkHdBgcHcfnyZXmfer2OeDyO+/fvA9BQJKvVisnJSQk+R0ZG8Nprr0nwlEgk2uZxqnsQteUY5IbDYQwMDOD69esAtIIcp9Mp4/T48WM8ffoUjUZDfLl48SJGRkYE1WCj3ZNUvnZ1den4SD6fT/bZS5cuYXZ2FpFIRObHwsICHj16JHN+dnYWFy9eFMQiEAi8FJeLY9XV1aVba36/HwMDA7h8+bIUvVSrVSwuLuLBgwfy9TvvvCNzjvv2aRYGAIeXOAbdgHZZaTabMocePXoEu92ODz74QJ6T3W4/dSI1TeWPEiDhfre4uChzWkVP1cv5aZvBWTLMMMMMM8wwwwx7gb2yyJLL5dKVeXd1dQkKcPfuXdy/f19g9lwuJ7dZRsx+vx+JRELgV7/fj2AwiMuXL+Prr78GoKFArYjUUabe6lq5OPl8HouLi/jhhx8AaBEvq5Z4U7FYLIjH43Jjfuutt+D3+6WkHdAi9E7RHN5aGNXXajXRBlJ1ilixxZ+x2+2C6pA31Gw25TO+jHYGX7dYLKLRaKBYLAqCwlJyIhC8zTAFRD0os9ms432oqbt2/VJLuKkrpaYlCoUCUqmUQLZ8Vmo1k8fjgc/nk+eyv7+v+zzUyWrHHzU9WalUUCqVdEhiOp2WNNzu7q6gE0wnMM1BFK5eryOXy+lSgrVarS00p9lsynw4ODjQlf7m83lkMhm5wS0sLGBtbQ2pVErGjhV0RHNY+clnVK1WnxmbF/mkIoBqytVsNuuqzWq1Gh48eIBvv/1WUkf7+/u6FDKRTKb0AA1ZOglSSn9oHo8HQ0NDOt7b5uYmPvvsMwDA3Nwc1tfX5Rn19/fD5XLh4sWLMlbkvXGOlUqlthEUPrNKpSJpTr7OwMAAuru7ZT7cuXMHd+/eFbSyWq0iFAqhVqsJSkHUhb4Rpe5k3ZMLVSgUBDkKBAJCVwA0pPHRo0f47rvvAAA//vgj0uk0vF6vjO+lS5dgt9uf0R7r1Di3W7mHREK43y4vL+OLL74AoKVGd3Z2ZJ4BGo+Qcyafz78UcqLuzypaQiTObDbL2v/000/xzTffCPJIGY+LFy8C0Obk5ubmSyM5R3UnKBQKUq0JaGfZt99+K8jSxsYGotEorl27Jmjv/v4+9vb2Th1Z4v6typGYzWaZY6xEHRkZkbGpVCp4/Pix7M+nba90sER4zeFwoFQqCeFuaWkJCwsLwj8plUqyyLnAyuUyTCaT5HZHRkaeIegyQGkHelbLXglxAxp0/fjxY3kfShOoB4XNZnvmkKW8ACHZdoi5rcZNlgcbD0ym3jg2qi+EgXmQuN1uCU7IESiXyzoRz05SXySuZrNZObj4PVVEkb64XC6BlgcHB9HX1wez2SwQObk7fI12feEmzs+zv7+PRqMhhwv5RtwQPR6PEMx58A4PD2NgYEDmRzwel+CTn6fdwI2vQTg5m81KIFSv11Gr1WQuBAIBIVMyDRQMBtHT0yMHWyqVQjab1RHA+Zw7Cd5IIudnyufzUqRAfxm0cHMPBoPPEK/VjY0SGO0KQapilpQ/4PfV51gsFrGysoLt7W0Rn63VarrSa6fTCYfDAavV+oyI5lE8theNjypDkE6nhbPB381kMrh9+zbu3LkDQEvDFYtFWVtmsxmDg4O6y5bdbtddjNpd8+o6ymaz6Orq0q0dBizch7744gvcvn1bLgNWqxXZbBbj4+M6CQi1aEANUNpN5ZJ/pOo1kYPHubm6uorPP/8cX331FQBIUUUwGJTP5PF4hBOoWqepOM4X9XJoMpnkdavVKnZ3d/HNN9/g448/BqCVvzebTTlvKCNA7lkymTyRL/RH1ZVS92KmznO5nDy3Dz/8EE+fPhX/SQXgM9vf3z9VMrX6eXg54Dr+4Ycf8NVXX4nmXb1ex/DwMMbGxmT+zs3NnVlwovrGc1qVsxkcHMT09LTM383NTdy6detU5QtUe2WDJVW92Gw2o1QqyQa5vr6OZDIpB6oaKHHTbDQayGazmJ+fBwDcv38fb775Jlwul+SvnU6niHwBL94gVJQinU7LJhqPx7G6uqpTv+amSl/sdju8Xq8cfNSDYlURP2+71srFUcnPfF1+Jh4SarBHvQxAI6nabDaUy2WdxkmnfBNycVT1VG6+aqCmVgD6fD6dUOTY2JiQQrnJk//ViSYW/eFGXCwW5QBVX0flx7CSaGhoSKqbgsGgVM0BzwZunYxRq0BppVKR16Goo6p1NDg4iOHhYfGP48gNfHt7W3cosN9fu8GbWoWkBrC8YfJ7Xq9X9E3oS19fH1wu1zPrU52HnIudzKFaraZDucg9UW+X1WpVVyXTaDTQ29srX3s8Hrjd7mf6Rao3+nbHqFKpyEGwv7+ParWKarUqwVw6nUYikZBncnBwoKt2otgn9xn+jLru27XW4D+XyyGTych649xg1ej6+rqOL8gLEsn4NBW15R7a6brnvFNFHC0Wi6zhtbU1PH36VPbMg4MD2O12RCIRXLt2DYAWoJTLZfkdoP1AsnWc1EszPw/Hn0Ucy8vLwm0hEkmE4pe//KWO+J5MJp+5zJ4ESWn9HSpO7+/vy3tls1khUQPAe++9h7ffflvee2lp6UyCE3XMOKey2Syq1aquqvhv//Zv0dfXJ2fv/Pz8mQUnDC5p6toaGxvDX/3VX2F8fFz+//Hjx1hdXT0T/hTwCgdLKurCm7faXFU99Phz6s2IkS+rZh49eoTp6WlRuQY05EBV0X6eqbcDChGq7+1yuSTyPzg4gNPp1N3YvF6voBT0jbd5FX3qtAKN48DJSikBtZEu/SHEHAwG0d/fr6swArQAiTcoVUiwE2s0GrrDm6JmrRWKDEZ6e3t1SM7U1BR8Ph/q9bpsZKp4XyempuHUAFKtvnG73TrS/czMDPr7+3Xievx9mvqcWtOgx/nD1yKKp76uy+WScaGUg1qVyN/h60QiEezs7EgAoyIp7Y4P/WkNROv1uk5awuFwIBQK6cqZGUzQmB4AIMFKu6kvNRWgNphm+kxNy/HAZzrF4XAgGAwK6jU8PIzu7m5dBREPglal7eN8UtM5rExUCzcYjNCXer2Orq4ueY4suw4EAhJYMlhW0YZ2D2GOAwPcYrGouxCof9tsNkH8AO0y8Nprr+Hq1au6dBMPRNWXk6A5reipKt2Qy+XQ1dUlc9XlciEYDOLGjRu4dOmS+MsqYprFYtGt45MGKGqboFwuh1wuh0ajIc/J4/EgHA7jgw8+AAC5sDEVRiSvq6tLt1ZOeiira69cLiOZTMoeHo1GRU4AAP7mb/4GgUBAntHi4qIE5SoK2C6ifJwRoQS0+TY4OCgpzKmpKfzyl78UWgmgUVl4MVY/22kFLGq1nsfjkfPqxo0beOutt2C322Ufunnz5okqOtv25cxe2TDDDDPMMMMMM+w/AHtlkSWVu0CtCZY0Li8vY2NjQ6JxoimtvWOYXgK0tMX6+jo8Ho9IEoyPj2N+fl44Py+KhhnZs7ycN1mn06nr4VUsFhEKhXQibSQ7EjJkGiadTovPwWBQuFnAi1uxqDfxRqMhKIDP50N3d7fuBsS0G2+/Ho8HPT09cntyuVwC33McqJ3CKL0dEjNvcGpakSJnRG+8Xi8CgYDcmmKxmK7liMvlQr1eR6FQkPcmX4bIHUvS2zH1pqvOFY6Vz+cT3s3Y2BjC4TDsdruOz6OiZSRbEmHJZDIdpb6AwzRMPp+XGxxREM4XaktR5oG/pyKawWAQsVhMbnjBYFDSp+2keFTUjcib+pnVfmzd3d3w+/06Qrfadoal4xxLrodUKtU2B4Y+qU2Tmcbj+NtsNmmZQ8SNRE+OXSAQkP2gFQFs5TC1w1uiL5S9KBQKska7uroEeePYmUwmXXuI6elp+Ro4RKZbkaWTpL7UlCWlOoiWXL16VVfY4XK5MDU1hYmJCUG81VJs4FB3R03JtDu31Z9jSpDr2ul0YmJiQugPtVoNHo8H77zzjqDKZrNZR62wWq2ClqoCnp0iFhxfpvdSqZSk/1X9oGAwiLfeeguAth4rlYrIwdRqNWkXoxaevIw/wKFgcDqd1qWXyMcBNNFji8UiBTtra2uSjlIRqnZbZb3IL/JfmVZ2Op2IRCKCCL7xxhsiNUOO1c7Oji4jwtdph9rSjqn7lN1ul7Pj+vXr8Hq9aDabMjbff/+9LiXYitq+rNzCKxss1et1XaVPb28vrl69CkCb8IlEQmDeSCQigpRqxYiq2ttsNuWwISlyYGAAfr9fDpwXGQfdYrHoqhMGBgaQyWREF6NSqSAUCkkqDtByvR6PR3wj94q6MoB2wPj9fjlA1Q31eca0BDehwcFBDAwMiKIyoB2ifX19shjZE0kV0tve3tZVNHR3dyMcDuty1+0EKKpwHgUU1ZQJdUVYTUSCKSc4U5OJRELGweFwIBaLyQJmJVm7wZtqR/UdY5ALHGpScZ60pmctFgtCoZBsZJlMRg6sTgixDJT57Pn/HON6vY5kMqk7ZCm8qBLze3p65NkPDw8jnU53zIdheo8p2FAoBLPZLPwpn88nwTfnM0nqXBPcUHlQd3d3IxAIYHd3V9couh2jmCmgzTuVxE71/NbxpEYW8Hztq5NWV/GZFAoF7O7uCoeOn/vixYu6ixSDfQByYVL3JabxXuYQUVOEDHay2Sy6u7tFbXl4eFgXTFUqFUSjUZ2GGquf2u232I5PfN10Oi3VcJFIRLeflMtlWCwWDA4OyhpoNBpYX1+Xz8N9Su2E8DJ+8XVLpRK6u7sxODioK47o6ekRf81mMzKZjBCba7UarFar7uLE1z6JP/y9Wq2GfD4vnErgsCKYF3qmUlnctLKyIpwwdQ2chjWbTRQKBeGuUhyYQW9fXx9sNhtKpRJu3boFAJLSVAOm0+QwqWPsdDplv+vp6ZF9ib48efLkyGDptFKCr2ywxM0J0ITnenp65CAeHx/HxsaGRJRsJ+J0OmVhccPlRmCxWFAqlaRyDtA2s97eXpmI7aA5zF23Ekr5moVCQb6nCqOpEfDGxoYI3qmk3p2dHV1QcNxDJimYN/rR0VFMTk7C4/HIjdjn88m40UgsBLTAc319HZVKRQ7nSCSCg4MDCTbZtf1F/pDQrt6qw+GwtDrgWA0NDenIueVyWUei5U2L5vF40NfXdIqn4gAAIABJREFUJwEMA5RONgjedLLZrK5diMPhkHmys7Mj0gtqRY5KAvd6vTpfstmsEH/bXZAknmcyGZmbDP65WScSCZkz6obudDp1SFhPT4+U8GazWVElb+dWp6KTpVJJ5iYPDs7LQCAgSCl9YUUgg+CpqSlcvHhRvmZbAhWtbMf4nFQ0mErUgBaE8aBn8JVMJrG9vS3fn5qawsDAgCg501SyeSf8DvVgSyaT2NnZkc9ZLpd1DWobjQb29/cl8AwGg5icnJTO7ID2bFubeZ8EoSD3jRfGVCoFp9Mpa8tkMqFer8taKhQKiMViur0gHo9jY2PjGSmMk8qGtBae8L0pxsjPnMvlpCWKWp4/Nzenq3Amz7AdFfjn+QJAF8Cy5ZLqT71eR39/v25fWltbE9Vu7jmUxODPnMTUwI/k7lQqJc+FKBbRa7vdjnK5LHI3ajGRyg89DbVq7k2cU6z8VgteTCYT1tbWpC0NGwyfBX8K0Iufulwu3V5sNpuRTqdFuiOVSj1TVHKavhicJcMMM8wwwwwzzLAX2CuLLKm3akJ9jPxjsRj6+vrk5lIqlaSJLm8qLNtlZMpb1u7uro7jw/Yaxxlvt2xgqTYuBQ7FA1ld4nK5JNpnFY0qFElhP0KcsVgMiURCIFCKRR5lfE+Hw4FwOCx5/9HRUUkxqv3iWvVTqtWq3E6IZplMJl2lGP+PvhyHdDEFp6Y4x8bGdAJ8FotFKksADfVLp9Nyk0kmk8ID4rNm7x/e6FZXV9tKC6rSDVarFQ6HQ/gs/P9SqSTjTb4EU1n0l9VXgHbT6u7ulhtpOp3G0tJSxxUYTA2o1U1qzzneppmG4u/4fD5depLIHaChBIODg1heXu6opxZ5OUQ0ifap0gIUQORYqTA9xykWi4kv/f39CAQCOqS3E3+IRs3Pz6NSqQhSw55vVqtVPuPu7i7i8bg8V6vVKi081LWvplBOglCUy2Vsbm7qxoE9FdWSebYbArRU2FtvvYWuri6ZM+zb2KnIaqtPjUYD+XxehHkrlQoGBwdlHJjCoi9utxtXrlyBw+GQcZibm8PCwoI8+05EVo/yiZ8pnU7jhx9+kP3O7/frJCAArd8n0QFAm78PHjwQcUbqWp3UH9WvarUqlZqFQgGBQEBXZRkMBnHx4kUZu2q1ij/96U8iO8O+eipK8TKVcHzfQqGAlZUVJBIJnQzHhQsXJN1ksViwsrIi6Akr51rRk5c1NV3JKsBkMomenh6hnITDYRwcHOD3v/+9jE07GZCX9YtWrVZ1LX9MJhPm5uZEXLSVnnHafr2ywZKqscBDjZufzWbDyMiIHBx7e3sC36vQqgrp53I5xONx9Pf363RQ2tGCUSF9h8MhRGS+ripsSQXqXC6n4x9lMhlJK5LQZ7fbhbTe39+PRCKBJ0+eHDs23GAI17J/md/vF+habcCq5m0pjskDKB6PI5/PS9dyQAtQnE6n/Mz6+vqxXa7Jp1E1k/r6+qQPGsdB3fzy+Tz29vZ0mkrVahUOh0O4ORT14+88efIEm5ubxy5SVbqBYpOqqCM5CGq6NpVKYX9/X0eKVQmm7IfGjW1vbw9ut7utgECFk9nTTw3mVGI5OR/qwcv8PFNADKY5TtSEOqlSNT9joVBAV1eXBGkmk0nUzhkk8Gf4mdjEl2vE7/fL2J9ET0hNTxaLRZH/oDK0y+WSYD+RSKBYLOq0YIrFok4+w2KxvHSwxDSumrLkXsA5xfQ2x4Gd7M1ms+xDiURCxys76YZOzhLHKpPJYHFxUVckoHITJycn5eLCtfzgwQNJwQMvR4Bt5SyVy2XZ76iXxfkeCoXw5ptvClkYAG7fvo1bt26JdECnGl3PM14GOJ/z+Tx2dnZ0+4Pdbsfly5fl65WVFXzyySeisK8K9J6G8bUoIqxeIFl0Ql5ns9nEp59+iocPH56JL6pRWFbtajA0NCSSCm63G9vb2/joo4/aKoo6TavX6/B6vSI14XK5UCqV8PHHH8t6PO3Gua32ygZLlUoFc3NzACA31HfeeQfAYZUJN+tHjx7pCN/AIbeIGxeJ2WplFcnNxw2yGril02mkUilBXfi6fE2fzycCj8y/s+Gpyg3gbYs5WLWR7XHGA5FIGhcaDyxVo4rkUm4WbDTIQKhQKAihlwhVMBiE2WyWg5lBw4uMnev5GUKhENxu9zM3Q7Xxby6XQzqd1imQE6FinjwWi6HRaMiN0+12w+l0olAovHChUv8K0IiJ1N/hc2IVGIMlctnUOeN2u+F2u3UNQoPBoE6pmCjjcaRG9ZmRW8LgtLu7Gz6fT96XlU0cL3V8iUSy6zw/oyr22Y4d1UgTONQ64iFcq9WQy+UkKAEgyuf8THa7HT09PeILtaheRhcHODxMVL6ay+XSce5YlUR/k8mk6PqogfHLHr7kU6mVg/l8/hkVfvUQTiQSwifhPCNiclqBgIpOqlpS3P8YRBKtNZlMspa+//575HK5UzvwVNSFFXvAs8K4Ho8HMzMzug7xn332GXZ2ds5E4LC1eILrnGM1PDyMiYkJGcs//vGPuH///qkQ35/nD//mM1QD7A8++EDW+d7eHj788EOZP2eN4qhz0+l04sqVK4IsAZoy/IMHD848MFF9ArR9cHJyUojvXV1d2NnZwSeffKKrEj5LMzhLhhlmmGGGGWaYYS+wVxpZIuy/tLQEi8UieVxqTPBr6mTs7e3Jra9cLsNutws60t/fj0uXLiEcDkuUvrCwgK2trbaidb7u/v4+EomEpD9CoZCOt+B0OqVxK9GcVColJe/03+v1YmBgQG4QrGZqh/+i6sWovgGH6sm8UfJWy7Hc2dnRlebXajW5ras9rdTeTvzei4w3ar6vxWKRlImKYqhoTuvnIIKoIig2m03XvoU3VJVzcNT4qNL4PT09CIfDGBwc1PFs2CcK0J6r3++XtCqgpZMogQBoiJtaYUV0o1VN93k+8fNQMZi+RCIReL1euXkznWaz2XQpwFgsJqXzw8PDOjmKYrGIfD4vrXZe5EurXypKxH+3Phur1SopHUpesMpxaGgI3d3dMt7ValWnlHxS481bbcfC91f1V9S5yZR562d6We6L6pP6OrVaTYegENEBtDnGOc21dBwielq+tXL6uAaazaZU/66urnbcOLdTf476dzgcxrVr12A2m7G8vAwA+PLLL595zmdtREJv3LgBn88n+/Wnn36qk505a2s2D1vFzM7O4q233pK5+/333+PevXunJg/Qjqnaf7/+9a9lT8/n8zqU6zxM3YtnZ2fljKrX6/jss8+wvLx8bqnAVzZYUstif/zxR2xubkoaYGZmRtcPKpvNotFo6PgDasdxAJiYmJCS+B9++AGA1i9OTXk8z1Sy+dLSkgRMgLb5hcNhOdwBDTrd3d2VAIV+cxOlNpLX65UNYnl5GVtbW23lgnlQ5PN5rK+v60Txent7dRs2AwKmDXd3d3VBkMlkgsfjgc/n06XHNjc3dbnr48aI+W5uMnt7e7rDHIBoKvF1KfLHgIA8Lq/XK+m8SqWCVColQU2hUECj0XhhWrDV12azKe0fWHpPjSdyxsrl8jPtFtjxnukyj8ejC7B2d3dFM6fdYIlBkNfrlWCjr68PQ0NDOj4S07bq2AQCAeEysAyc/rIMvNM0RmuwRG6JWgQRDAYRjUZ1vRj9fr8EbjMzM7oO8mx0+7Ld2mlqAECNGTUQYlACQKdv1pqqO+1NlcGc+mzVVBj3IFWGo1gsvpRuUDs+qf/m/kcRxnq9LuTc00zBtWMcl7GxMXR3d+Pg4ADffvstAC19et6+kHbA4GRlZQUAcPfu3XNLMwHQFde89957CAaDskd/9NFH5xq4AYfFTG+//ba0xQK0c/jrr78+18CNvkxPT+PKlStyrmUyGfz2t7/tqJjlZe2VDZbUPDMrUdgl+tatW4jFYrqDz+FwyOEGaIiP2oy3q6tLVLzv3r0LADpy43G+8NDixse8/+3bt9HX16fTEiLvg5tiV1cXAoGAPOje3l64XC4duZlNABksvWixclzS6TTu378vSrPsLxYOh+XwsFqtOt4HNyRu5CaTCYFAAAcHB7peSGtraxJgtYMQVKtVxONxCUT39/cxNzcnzwbAM/weNshtRZasVqsEyjs7O9je3hYSXyKReKav2lFGrg2g6XSFQiHYbDY58BkEMCgjCjYwMKDbtHk4A9pBt729LTfzra0tqRQ7bqNX1cSr1arwcQAtoKdgJ6BtDORUtCIFnM/0h88sHo8jmUyeiA+jVg6q/wa0Z9LX14dAIKBDc9xut1S/kVdG4nCr3lOnvhz1bxoDU5UDxkCY/rI5Nt+fAcNZ2FGBsnopIr9KbX7aDhJ5Wka0LxKJSBUh1/V5HnrA4dwdGhqCy+VCtVqVBrJnxQ96kS+vvfYaAGBkZATNZlO0g1Kp1LkGbiaTSSpu33nnHXR1dcm4/OlPfzqzRrVHmdlslj3xvffeEzVzAPjHf/xH3WXyPH15//330dfXJ8/lxx9/xP379881qH1lgyXVCC9zw2GFDBcflZgpBgloaTeHwyEbJW+liURCNgt2MW9nYagCYMDhrbVUKiEej+tu5lTuZZDAlhFEwjKZDJ4+fYpmsymHdzwel07h6vs8bzwALYhUqxdMJhOePn2qO0yohKsqV5OUzrHL5/NYW1vTpfX29vak3JbpnePGRxV0XF1dFYRLbXSsNtZlFRg3dJ/PB4/Hg62tLR0yVigUpCKKROPjFolKal9aWkIqlUIwGJRDlWgaU2GBQEAasNLYcofPJJlMIplMCrJEgbh2AhS1AiadTusCcFa6cX5fuHBByNvcKCuViqTaAG2+rKysyKbKtj3tbqwqyVRtxmw2m3VpTxVFItGdir1cW5Q9oC/r6+s6YdFOrTVIak0RquR9SkLwsCHCRbkO9fdOK0BpDehUdX+VWE4xSlV4lWlY9fJymgJ+KsqlIm6BQAD1eh2lUkkuEa3tIOjPaRsDcK4tXiz39/dlLz4v497o9Xpx48YNANpekM/npeLsvIMTm82GK1euANDOrVqths8//xwApBDnPIzPiej1jRs3YDKZ5EL29ddfn+vYAIep0itXrsBiscgl+je/+c2xFdqnbQbB2zDDDDPMMMMMM+wF9heBLNFaSy6JdtRqNRSLRSSTSbmFLi4u6m78jUZDblu8TbWTznmeDzT+vtrwtFqtwmKx6JrBJhKJZ/gEaprQZDIhl8u1lRakHYWutEb+vIkTzeENW4VTHz9+DOAwfcAGlkRm2oXI1dYEtNZbuPqZVRFR+tYq+kbCrqrh0g4RVBXJy2QyyOfz2Nra0pVWq0T4UCgkrTVU1LBV8kGdU2yf084cUvV6yEXizWhra0uHcg0PD6Ovrw9+v198adXH2traQjqdljlWKBSkkW4n6ADnEJ8x00rk5JG4XywWBY1kqT7fp1aroVQqyefZ2NiQNNxJBBdpRD7UdDaRW944Ke+gpg5TqRQcDocINpIndBrIkvo6RClUeRKn06njT7GggWgktY/o72nd1OlXq0SF2vCbWmJ8bzUdCJwuqtSKuLFtEaAJ1jJtT9TWYrGcKcFbRdwcDgempqZEs6fZbGJ1dVXQ6/NKwXFvoygm/YvH4/jmm28AtNcj9DT9cblcwkX0eDxIpVL4h3/4BwCa/tR5pieBw/N1ZWUFU1NT+Kd/+icAwO9+97uOzsrTsL+oYKnV1AOo3U1HXcSnme98nsbIccbNjVpOLzsZjwrmVN2cF5l6CKjaUicR8XuRP534Augr8ToZo9ZnctRmzPchJ+oon5/nF/3pxKjXo6orZ7NZbG9vY2FhAYAGd7dqJjFdcxzx/yTBCecIcBj4MI22vr6OH374QXewqsGL+jo0ahGdlBPTGjCrXCmm1+gfgzkGT+Ru2e12Cfju379/6mRzmrrW+Xx4GYjH45ibm4PVapVnu7Ozg1wuJ3PxLA8fVd9pc3MT6+vr2N7ellQGA+vW8T5tUwNKQJtTm5ubePTokS5dq4rPnpUxQHE6nXJhXF1dxbfffivB0nnyYACNV8bntLq6KsrqAM61QpAXTKaIb926hWQyiY8++gjA+RcENBoNKZL64osvsL6+jg8//BCAtl+fd+BmOu83PNIJk+nP74Rhhhl2InseEfu83lslpdtsNthsNh3yrLZvOSsfaCpnaWhoCLOzs6jVarh9+zYALYAql8tnRq5uVYpnheWNGzcwOTmJdDot7SE2NzfPheRNGQ+SdV9//XVcunQJm5ub+Nd//VcAGlJ6HnwYFpD09fXh7bffBqDxhDY2NvDll18COOwIcR5GqZTp6WkAwOXLlxGPx3Hnzh0AGkfzPIn4ZrNZeJ0jIyOoVCrCRWQl8nka57Pb7dYV6Jyykvn3zWbzxnE/ZHCWDDPMMMMMM8www15gBrJkmGGG/cVbawoZwInSyKfhh4pysTqPvLezbjz6PF/YaLzRaIgvZylI2WqqlpfNZhMOFVPR511lpYrWUv+N9IDzRk/oA/1SZXNehfP534C1hSwZwZJhhhlmmGGGGfZv1Yw0nGGGGWaYYYYZZtjL2rHBkslkGjSZTJ+ZTKZHJpPpoclk+q9/+n7IZDL9i8lkevLT38Gfvm8ymUz/s8lkWjSZTPdMJtP1s/4QhhlmmGGGGWaYYWdl7SBLBwD+22azeQHA2wD+vclkugDgvwfwx2azOQngjz99DQD/MYDJn/78OwD/y6l7bZhhhhlmmGGGGXZOdqzOUrPZ3Aaw/dO/cyaTaQ5ADMB/AuAXP/3Y/w7gcwD/3U/f/z+aGhnqW5PJFDCZTH0/vc6pGMmCKmGQgmwkClJX5zyIciqRkqJ57O3F91Z1fqrVKg4ODs6MSNjqj8Ph0LUYUcUf2RqCbTuA0yc4quXMKrHSbrfr2p/Qn2q1KmJ1Z9UElX61Cgy26gmpZMt6vX5mvhhmmGGGGfbqWkeilCaTaQTALICbAHqVAGgHQO9P/44BWFd+beOn7504WOJBxkOWvaqGh4cBaEqjBwcHqNVqiMfjAA6F/ig8ViqVTu2gU5Vy7XY7PB6PdK+fmJhAJBKBzWaT90qn0ygWi9IHaW1t7ZkeZy/jW2tHe7fbjcHBQQDA5OQkBgYGEAgEAGiBZblcFr2Kvb09rK2tYXl5WRSYy+UyarXaiaqJWquSbDabCAYODAxgcnJSeg/19PTA5XLJ7+Tzeezt7WF7exvLy8sAtKasVOAGcKIgU/VJrVQKBAKimj00NIRQKIRgMCg9z2q1GjKZjIgbUtCP45TNZiWY69Ralc357Oib0+kUtWcAElTyMsBmvBSQK5fLqFarEtC9rD2v/5n6dWsQrIpI0o/zrkhTfVLtPMQX2/HrKBXxP1fwfR594Tqxs1ITP6m9av4AR8+fP4cPrRfKP0cFId+fcQH7oHJPPO3K07aDJZPJ5AHwfwP4b5rNZrZlIjU7rWgzmUz/Dlqa7rmmllO6XC6Ry79y5QquXbsmQl4ulwu7u7u6dhDpdBqbm5vSIf7p06fIZrPPtEDpwF/xqaurS1oa9PT0YGZmBpcvXwYAXL9+Hf39/Tql6kwmg3Q6ja2tLQDA8vIyHj16hKdPn0oZ70kOutb2IXa7HeFwGBMTE7hw4QIAYHZ2FhMTEzKh2MCVJbtbW1tYWlrCwMAA5ufnAWjtKjKZjEy6dgM5jg1w2G4hHA5jamoKADA1NYXZ2VnMzMwAgARKfO1isSgNWamovbKygocPH8pzzGQybQcoajNhq9UKh8OBUCgEQAtqJycnpfP4hQsX4Pf7RVAQ0AKQcrksrSoYWM7NzQEA7t69i+3t7Y7a5hARtVqtEgixFQQD7qGhIYyPjyMajUqQy2a7RNxSqRSSyaS09FhZWcHS0hJ2dnZ0geVxxkBNbU1ht9ul6SkbDrtcLml34vF4pOUJoCFuHo9HxiCdTmNnZwepVEoXgHeist86XoA2p4iMqoeGiv41Gg1pr8HPwCbcnPOlUkmHOndirUFiayDJ91P/NplMMq+4DtmqgU2LXzaQaw1gjzLVHwDS5PoskNPW4LodU1Hds0Jx2/VLvRCr/py2HTc2rcG/xWIR1fizzEw87/utLX5sNptuXzrLoOmoC5vVahXh1WAwCL/fL6rf6+vrp6qA3lY1nMlkskILlP7PZrP5//z07bjJZOr76f/7AOz+9P1NAIPKrw/89D2dNZvN/7XZbN5op2TPMMMMM8wwwwwz7M9lxyJLJi2c+98AzDWbzf9J+a//F8B/DuB//Onvf1K+/1+ZTKb/C8BbADIn5SsRpXC5XOjv78cbb7wBAHj33Xfx+uuvyy2tXq9L00qiIRSCI5pz9+5dfPvtt9jd3ZWfOa7X1lHGdCAl4S9fvoxr167h5z//OQCgt7dXZNl5e3Q6nYhEItKg8PLly5iYmMBXX32Fhw8fAtCQAt582zX2OSJCEQwGMTU1hYsXL+Ktt94CAIyOjsLj8YgvfA/edIeHhzE4OIipqSn5TN999x2ePn3asUgb/eHrBwIBjI+PY3JyEgBw7do1TE1NSduDg4MDFItFHc/M5XLh8uXLgj51d3ejWCzKbYGoSTum3sYcDge6u7sFcbt69SquX78uz4Q+qb2+iP7w5jIxMYH+/n5BAzc2NpBMJtvqg6beEIlycbynp6dx+fJl8W16ehrBYBAOh0M+A1Narc2jnzx5Ip+xXq/rmjG/qKluK1LK50aUi2hgLBZDf38//H6/jJHL5XpGaNFut0vj5e3tbaysrGB5eVnX101Nyz3Pp1bkhsKOgIbi9vT0IBAICLJrsVhgNptlrjI96fP5dI1+E4kE1tbWZCxVpOBFe4CKLrSmS91uN1wul/jicDhgt9tlbal9GZmKbjabqFQqQhdIpVK659qOqeOkIoJqY2jyAblH0meOEX+nWCwil8sBOEwrnwTNaX1unOeqLyoaYbfbdU3NDw4O0NXVJXMolUqhWCy+NDWBfqkcTjYypn/0R0X/VBQ0mUwikUicSlNbdZy47tTGykR2+Ry9Xi+8Xq8O/dvc3MTu7m7H58VxftEfld+qZlG8Xi+i0Sh6e3vF30qlggcPHgjCfZo+qZkKjhN9c7vdiEajuHr1Km7c0PCWaDSKp0+f4ne/+x0ArQ/jaSJL7aTh3gXwnwG4bzKZfvjpe/8DtCDpH0wm038JYBXAf/rT//1/AH4FYBFAEcB/cRLHyHcBtE3y+vXreP/99wEAP/vZzxAIBOTgzGaz8pC4ufn9foyPj0tn6UuXLsHn8+Hbb7/FysqK/F67k1/dlJxOJ3p6egBowcb169eFI8ScqeoTO7mzA3h/fz9GRkbQaDQkcCsWi/LvTsZInVA8gHt7exGJRGQ8MpmMBBupVArlclk+Dw/DSCSi4zHt7Ox03Bm9NQ3Q1dUlBwqgbUqlUkkg23g8jp2dHd0CGxgYwMzMjIzv0NCQcJv4Hp36wo3A7XbLuPT396Onp0cOzL29PRQKBezt7cmGXSqVEAqFMD4+DgDCZ1IPJKC91EmrL3a7XdLKFy5cwOzsrKSVnU6nNIzlQZbL5VAqleQ9I5EIXC4XPB4PAG0j68QfNcVttVolZTU4OIirV69ibGwMgLZuQqGQjpdQLBZRLBZ1a87v96O/vx+ANg9LpRL29/flsnJcyoO+WCwWHa8sGAxKsN3X14eRkRGEw2E56HhBYrqvWCzCZDIhEAhIcJdIJLC4uCg/k8lkdOmno8aLz0nljJnNZrhcLknlhsNhDA4Oylz1eDyw2+26i0m1WoXZbJbxdTqd2NnZwd27dwFo/bYqlUpbgZs6Liwi4TN3Op0IBAIYGBgAoO2ZoVBIdzFh8YR6iSgWi5JWvn37NtLpdEeXSPXCxrFyOBxwOBzy3tFoFOFwWPiBvb29kn5XA7dGoyHz5U9/+hOePHlyIt6JmibixYT7h9frRW9vrxz6gDbn1SKYg4MDmEwmmd9zc3P4wx/+cOJeeuraZzAEaJcOrhvuBZzjvKBReZ2vkUgk8NVXX+HDDz/UXfpPYq3BttPpRDAYlLNsYGAA/f39shdEIhFJdXGstra28Jvf/EaaEJ+W8Rlyf+vp6cHo6KjsMbzgT05OCn3BarUiFovh+++/B3D6KcF2quG+BPC8ne4/OuLnmwD+/Uv6BZPJJAM1MzOD1157DdeuXQOgTfharSZckoWFBWxtbaGrq0sGKBqNygYCAGNjY3j33XdRKpWE15TP5ztCTYBnm0IGAgH09PTI/2cyGWxtbWFxcVEWW7lchtPpxJUrVwAc8kBmZmYEGeBm3imBT93YKpUKqtUqCoWCdBbf39/H9vY21tc1zj2DOE72TCaDUCgEt9stE9HtdsNsNp9osvF32L0+lUoJ/8jlcmF9fV0Ord3dXeRyOVn0JpMJiUQC0WhU0AQS5VV+TCdjQ5/YTZtoSDwel5YLgHYL2d3dlRstf6+/v18OAbvdriPH53K5ExG86ReDrmAwiO7ubhmHRCKBlZUVbG9vyxxnYM8D580338TQ0JA853Q6LejkccHtUYRtzodYLIaZmRm8+eabALT5XS6XsbKyIhtiIpFAPp+Xg8Pv98Plcun4VdVqFeVyWQKHF7XWUA9v9cbvcrkwNjYm6/6NN96Qog6S7peXl5FKpSSobDabgrBGo1EAkLFksEEk5zhESUUbXC4XHA4HBgYGBI28cOECrl27JvtUvV7H1taWjBODpHA4LEip2+3Go0ePBFl6+vRpW2ip2WwWX3w+HwKBALxer6CTwWAQw8PDmJ2dBaBdBlwul8ypVCqFfD4Ps9ksl7ZgMIhSqYQ//OEPALTCE/W5vsjUQ9bj8SAQCMjzj0Qi8Pl8sp9cuXIF4+Pj8v9msxmlUgmlUklex+12w+12y7gUCgVsbm52jHQR+VPRkHA4LAHu0NAQrl69ikuXLkmQ63A4BOXmazBIAbQimbm5Oezs7JwoWFI5d3a7XQKhUCiE6elpXL16VbIm0WgULpdLt4+q2QNeWj755JOO6XyCAAAgAElEQVSXInu3Im4sDJqYmMD165o04nvvvYfBwUHZi+kTg2FA2x8GBwdPlVum7k3cl0KhEPr7+wX8YCakp6dHfCEKpjbbPU0zFLwNM8wwwwwzzDDDXmAdSQecp3V1dUnKZGZmBu+8847cFJm3/eabbwAc3s5qtZogBaFQCIVCQbg70WgUly9fRjKZxIMHDwBoqZd2kQpGu3a7HV6vV2DTkZERBAIBudneuXMH8/PziMfjEuEWi0X4/X6JzLu7u9Hb24uRkRGBEN1ud9spJtUn9XcajQYqlQry+bxA64lEAtvb23IT39/fR7ValdsN0RKLxSK3L5/PJzeOTnxRrdFooFQqYW9vT2DncrmMRqMhcg5EcXhb83q9CAQCqNVqchszmUyo1+tySzjJzY7+FItFee+NjQ2k02lJue3u7mJnZ0fnj9vtht/vF6SGVVWqdMBJm5GqFVy1Wg3JZFJSEKxsW1tbk/dixRlvWqzuIkqaSqWwv7/fdkqHxjSuiuaEw2FBS6rVKpaWlnDr1i1BQZPJJGq1mtw4x8fH5dkCGuKWyWSQzWbltt7OOiP0zvni8/nQ19cnqMz4+DhcLhfi8bis4R9//FH4JICG2o6Pj8PpdMqNk1piRLkoi/Eif0gDYPomFAohHA5jdHRUkK7Z2Vn09PTI6y4tLeHu3bvY3NyUsSOniWNFDgrHW9Vie5GpFXWBQADDw8MIh8OyR8ZiMVy4cEGQN4vFgv39feGSLC0toVQqIRgMCuoyNjaGUCiEkZ+kPAKBgFSktTunrVarpCaZAoxEIujr6xMUYHp6Gj6fT57R9vY25ufnkclkBBm7ePEiYrGYPPuBgQEdz6pd4xxSUbhIJIJYLAZA403euHED0WhU1vXe3h4WFhaEqsCzgmM7ODiIQCDwjBxFO9bK5VLnN1NL169fl1R/s9nE3t6eVCYnk0lMTk7i4sWLADQUlxym0+BPqdbV1YWenh5MTEwA0OZHV1eXIKUPHz5EuVzGG2+8IVXEDocDhUJBzt3TsFYJEn6v2WxKtmZ+fh6NRgOXLl0SNNXj8aBQKODx48fy+6dpr2ywZLfbhWQ6MTGBWCwmg7ixsYFPPvkEt2/fBqClUAqFAgqFghyqDocDi4uLwhUIh8MIBoO4fv06vvrqKwBa6qvdnLhKgO3t7ZV8dywWQ7VaxQ8/aHSuP/7xj3j69Cni8bgcFM1mEz6fTx78xYsXEYlEEAgEJOhSybztmlrKCRx2rGbqDQA2Nzexvb2t4+GYzWYJ5Pr7+1GpVHR6FU6n86U1cggXV6tVeW9yXRi4Uc+JY0vSp8PhkIVMwvVJ0nAqTM3Pww07k8mIpAMAeV61Wk3mTHd3NyKRiMD1jUYD2WxWUnlMeZ1Uh4qbdT6fx9OnT2VcmMpJp9Myn1vnXSAQQKlUkmCKgV+nacFWOJ6pAgYAKysruH37Nubm5nRBgNvtfiaNyM/DsWXwxrE7zlpL2+12u46H43Q6kUgk8PXXX+PWrVsADtcw5y7Xg6rfRZHTk2h1qQeK3W5HNBqVICAcDqNQKMg+9N1332FhYUEuTlarFd3d3XJQA4fl+qoobLtpL3WedXV1wev1ythcunQJfX198gzm5+dx584dXQGJyWRCNBoVCsGlS5ck/cLP1wknkMYUlsq5jEQichEEDgNJ4FBy4+DgQIK7aDSKqakp2QvakUJ4nk/qOs/lctjf39fx3qxWKzY3N8Wfb7/9Fqurq7LHXLx4ERMTE7Im6vU6CoXCiQ9ftdAAgKzZarUqqV5eer777jt89dVXIpXSaDTwi1/8Qoo/AC2465TfepSpF4ZyuSxkf/q5u7uL7777Tub34uIibDYbHA6HSOXk83ksLS2d+BL7POOerUrcdHV1ybnG/bNarcrlpdls4tGjR/Izpy078coGSw6HQw6G4eFh2Gw2OXTv3bun2wgKhYKuqgrQNpNKpYI7d+4A0PgFJIfy8GN+s51FwEXs8/ng9Xrl1lOv17G6uorPP/8cAHDr1i3s7+/rbtomk0lHXkylUmg2m3A4HHKDVzVGjrNWwqCKAhWLRWxtbcnBS90dbgTNZhNWq1V8Uwni6ubQLqn7KL9UU4Mlk8mEbDarq9Yi8RrQNrK+vj44HA5ZfEQpGKCcND9PTRx+LvIl6IvdbpeDg/NuYGAAFy5ckKAgl8thfX1dFmMnnLdWazabsikVCgXh+dDfSCSCSCQi7x0KhdDX1ycHr8PhwPb2tgQwm5uboiN2kvFRb78HBwcyfzY3NwWNJMoSDofR19cnnJSpqSl4PB65me/u7mJrawuZTKYtBX1VY0gN3FgVRJSgVCrhyZMnmJubk8Nkf39fp7XS09ODcDis08vK5XJIpVIyh9oJcJvNpi6QsVgscLvdCAQCsmYrlQoePXqEL7/8EgDw/fffI5FIyFj6/X4EAgEdx8NqteLg4EDHq2iHUK3qWmWzWWSzWR0ngzygpaUlAMDnn3+Omzdvyp7TbDbhcrkkWAMg1UX8jJ2QqdUAoFAo6J4bL4YqH/Dzzz+XcXr69Cnq9bqOeO3z+WC322Vc1LXVLjdHvaBxnR8cHMBsNktwUa/XkUwm8fXXXwtXiwF3K+LGzxOPxyWYOQmnVBUeVveLQqGAZrOJXC6HH3/8EQDw29/+Fo8ePZKxc7lcOp5TrVbDgwcPZN86qbXqerFKU72Y3rp1C7///e8F5apUKujt7cXo6Kich9vb27h3796ZiGSqr0nCvYpg9fT0CGoJaPvDv/7rv8o6P217ZYMlu92uW0iEJwGtOuHJkyeCCrQKu9EKhQLu378PAPjqq68QCoXgdDqF7e90OtsOUI4qPQW0G/3CwoKkvTKZjKiF01hKqwY13KB4I3Y4HG1XobT+jLqAid6Q+MuUA9/bZDKJWCSgBQTqZAMON81OF0Dr5Obn5KZOGJo/x1sV0TWKRLrdbtnsEomEpLuO+uyd+MOUHv3q6uqSz07kkekWABKccOxYsqsiY+0GS62bkzoXSqUSHA6HBOAjIyPwer26KkC32w2PxyMo4u7uri5waw3Qj/OldWx4UJhMJh3Jt16vIxQK6ea83+9Hd3e3jFNPTw+KxaKkfLa2tpBMJp9ZB8eNDVFDbsTBYBBer1deY39/H+vr68jlcjIOrCiiL0y5sCIP0FIZnaJcLArg3G00GkJk5tgkEgnMz8+LJEEul0Oj0dCV65N4zTQcx4d7WbsBCg8zAILO5vN5CS5YVcd96PHjx4jH4xIk8DIWCAQE8XE6nSgWi+L//v5+x/O5Xq8LMs2AkF9zD3r8+DEePHgg6ZxyuSyVhtyLeUHh72xtbZ0otUO0REXuKFQKaIFmIpHA/fv3peiFBS+8RL/77rsIBoOy5ywsLHRUOd1q6u+paI7FYkG1WkUikZDU0ebmJg4ODmQvuHjxIn7961/LnNrZ2cHKygoajcZLEbyPMq5vlZqwv78v3w+FQvjVr34lpfqAFlARKTtL42fkuo9Go3j//ffx7rvv6gK3O3funOii344ZBG/DDDPMMMMMM8ywF9griyypYnRMUajiaeSXAPrbRCvXhbeHR48e4ec//zncbreQ6YaHhxGPx9tCLVpbLqjIiVoCy9JVNfLv6uqCw+EQwiAhRZWw63Q6dam4Tsi5fA3esmu1mhAn+doqosGSVUAjXzocDin1B07eU0flT5HI6HK5BB2x2+1oNpuSdvN6vfB4PELcv3DhAoaGhkTUE9BumoSrT+IP/1YF4OiL0+kUX/r7+zE6OippQODwmfBGTyIj593LpgRp9XodFotFp8M1OjqqS/cCh9wQQHv29XpdxrvT9gcqP0glxDItw9elCKQqDcCUiSooqIqqstCi05ROs9kUvhGgoX18T+AQsfD5fMJBYQpOHbuxsTG43W6drIKaEmzXJ2oTAdq6oY4SEY90Oo1CoSDPqLu7G/V6Xfat3t5eTE5OYmxsTD7T/v4+4vG4oJPt+qQWBFCDi+k4+lKv16WAgdw7FbmORqPSK5Jjl8/nBfHJ5/Mdz2nOOZLoAQ35KhQKIgNAAUW1xNvhcGBiYgJvv/02AEhxCTXwNjY2RO/oZeRUiGxz3RCpLhQKgqby2f7sZz8DAPz85z+H3W6X1Nv8/DwqlYpOmuZlWrHw9yjzsr6+Lvudz+eD1WoVlOuv//qvRecI0LIqGxsbur229TO/jFUqFV0/VZW2MjIygr/7u7+D1+uVrM7du3dlXQKQJu2nhXapEhUsPgE0OYpf/epX8Pv9si5u3ryJ7e3tM0kJAq9wsKRuDtyc1N5UVKwFIBycVvKvmqtmc9aenh6BfsfHx3Hv3j1ZSMf5Q7Pb7TpBs3K5jNXVVQDQ5crpt91uRygUkt/J5XKyWao6Ena7XSdk2Y6pgnd9fX2Ynp6G2WyWyVytViV4A7RFzioMQFsATDfQp2q1KsrIQHsbeis512q1wuPxIBaLSeDGnmM82Hw+n04oMhqNSvqEhwA3ETWN2G7aopUQa7PZdCKOHo9H3nt8fBwDAwNwuVwyr1QOBN9bFQKkAnGnqcGj+ALq2NlstiMJrur8pkK6Ss61WCzCgWnHD/7Nw4KvqwbtnOvU9eHPqCRaahJx3Pi9To1jw88UCoXQ3d2te/bhcBgul+sZDiHf2+PxyO/wcpVOp3VVgu2m3pmKAw65RWzYTevr65Ngie+hFoNcuHABkUhEPkMul0M8HhdeRSe8HFV7p1wuI5fLyetkMhmdhtKVK1ekBx6grcdQKIS33npLApNms4lkMikpQXWedxKgcK/mPsEqTb6Gw+HA1NSU8O3ID5qensY777wDQLvolUol4eBVKhVRk+Zn6GStqT/XbDZlP0wkEujq6tIR3Q8ODuDxePDLX/4SgLanm81mCSIp0KvO73YqKp9nHJd8Po9kMqlT7J6enka9Xpd96Wc/+xkcDofsg3fv3kW5XP7/2Xuz2DjPK23w+WrfNxarWMVVXEVtlCzJsmXLdjrO2lmcdNDpuWj09Az+/29ggLmYuZr/aoDB3A1mMECjG+l00Egn4046jtOJYyedxNFmWxatfeO+71XF2hfWPhefz+H7lSWxWKTKcv/fAQiSEqu+U+96luc8h88IAIwP26uRUCqVEI/Heax0Oh2CwSDrdvToUXR2dkKSJMbGTU5OQpIkxdiImNe96iQa4waDgXGSIyMjcLvd0Gg0bNxdvHiR8XPA9jomHfZaHfdUG0tiOwXa7IBMLOb3+3lCJEnixpi1lr944VOEQvRCrVYrD/bjRGy94nA4uNyWmJTJ0LDb7ZyLFsHD1IwUkAHe4XBY0baBGn+SkVAv6FysiDl+/DjOnj0Lg8GgOAAtFgsfOIVCQYE3EdtU0N8QqRtdAvUAYilCQRed1+tlhlUab2odQs+mKJ1o9FJVBumk0Whgs9kUXmk9YyN6XmJ7ETogbTYbnE6nwpCjaKUIXhVxTmSY0mvW19d31SBWFLE1TyKRgNFoVOhLkQGRqbpUKvHvWq1WYcDY7XZmZ9/LAVUoFBAOh3nt2u12PnToMiXyUxoXYm8Wo1O1EbTdXLri5Uh0GIA8R93d3Yo1Q0zc9DcUQaxUKnzoJxKJT0RL67l4yTgCZCOHvujislqtOHTokILWIp/PKwoa/H4/t2ICwKB8sUn1bilDaEzC4TCfXbFYDO3t7Vz23d3drahQI9qArq4uPoeKxSJmZ2cZs7QX0HC1uk0cG4vFsLm5yQZ4a2srWlpa+DynDgJHjx7lM12j0SAWi3FkKZVK7UuEgMaKximTycDr9aKrq4sd01KppGiFZDAYUCgUGO8aCoUYbynu9Ub1o7VAnR7EBt7kpFLkNBgMQpIkNtzEKJcYPdsPqVarSCaTTITr8XgURUgDAwPcOosKmlZWVlCpVD7RdHi/RPyMOp1OUYVOOF/C6Y2OjipwbrXG0l5FxSypoooqqqiiiiqqPEae2sjS1tYWewPr6+toa2tjD4wqXshzzGazbN1SBIjwS5QysVqt7BGLoWmn08lW++MsUDEtYTabOUJR2xTVarVyRQ9Z5FRNRJ5MOp1GIpHA1tYWe8hOp1MRSXhctEJM17S2tnJ1y8DAANrb2xVNLIvFImOFANlCdzgcHDXKZDJYXl6GzWZTlP56vV6utMrlcnVZ55RuBORycmoQS9GPUqnEeBcSEWdGlXzRaJT1J0p7wq7EYrG6uY1qm1OK3hiV8dI4R6NRrK6uKspTqQKKImNmsxmBQIC9m6WlJY4i7EbI26VoJKW0aH1ks1msra0pUoDULJpSGQMDA/D5fByW9ng8WF9f33WUolqVKQwI37O+vo58Ps/j7Xa7uUGvmPIpl8scIezv71f0TKvF3+1Gl1KpxGO6sbGBubk53q/UhofmEgCThFLqiyJPlUpFgXsTmx3vpupUTC2Fw2EsLi7yayn6KqYgKKoCyNFVwg3R2E1MTGBhYUER1dhtOofmTKx6jUaj0Gg0iqq7UqnElUr5fB49PT2KtOb6+jquXbvG9AJiVXEj2CXaS9QSiM5n0pkiV+l0mtsrUSS6XC7j7t27TDZK0UARi9dohKBSqXBKNpFI8PogfarVKrq6unifS5KEjY0NfPjhhwBk/BQ1qBZxso2KiFmKRCK8roHtfU4VwlarFcVikWkXbty4gXg8riBs3KlBdb1C5xBlJSqVCux2O88RpZNXV1dx8eJFAHJaU4xI0trZb9wQwR/oTnW73dDpdEilUnjrrbcAyOeFmBnY72rBp9ZYArZL2elwpvCx3+9XMNFms1kYDAZFA0XxogTkAYvFYohEIvw6SqnsdKiLRpfdbofFYlGUphaLRT4oKP1mNpsVzV/FpqilUgmxWIwNGUA2lujCA/DYdArpa7fb0dXVxRgsMijz+Tw/K5PJMDaIxoUwD4BcohsKhVCtVtngozQdjVM9fEJarZabFwMyVwml4ETcRyKRUPSIEonHiCSyWCyyQdLS0oKWlhbWbXV1tS4AuthLi1J/1C8QkNdDLpfj8RbniAwUjUYDt9vNa4kaFJP+lHKtFydEz6EvWps0DvRcYsgmFmwSMkYA2Shoa2tT4L9oD+wmDE7pQDLcNBqNAv9AabF8Ps/h+Xg8DoPBwEUCVBpPXDC7ZX8nISOAdLl58yay2SwXafj9fsYq0lgRf5LY3JbS4GIHezFtuJvDk/Z1PB7HzZs3EQ6H2UClM4iMJbqURVwZ4SvJqLl37x7W19cVBvluD3NKeYndCEKhENra2hT7XMRXETeW2Eng1q1buHr16idoDBrRRzSGNjc3cfXqVV6bdrud1xUgn8knT55EMBhUNGR95513+PNEo1HG6DVy2YlOkYgpjUajPEYkPp8Pzz33HBuaxWIR7777Lhso4XCYyV73KzUIyIVKU1NTWF1dVRALnzhxgtOper0ei4uLbBCQM1OLydoPIeOa9kkoFILb7WYS1s7OTpTLZfzmN7/hZrXZbPaJAaqB7bGieSQn3+PxQKPR4P79+3jnnXcAfDJ1u996PdXGEk1aOp1GOBxmT9Zms6Grq0tBFEbsxeJFRwRwgHwRh0IhpNNpBf6lXjyOWFViMpnY2CDwqOhtihxMALjiTvQErFYr0uk0XzA2m40v352E3p/agxAYkIg7a3mWRJJHamBJXnc8HueIDxkSra2tcDqd/LsIsnyUGAwGeDweNtx6e3vhdrsRj8cZQJ/L5RSXC3H6iO1PSqUSg6/p2U6nkyN5hIfZSfR6PR9+bW1t3BCSNhthcEQPP51OI5VK8Zqhajk6XF0uF/L5PL9HPXNFIlYJUjRSjHrS5wVkAzcSiSi8NhGLA8gGoIjlAnbHbk5C0RyaI4rq0fuWy2XE43FEIhE2LDOZDLeCAbYjcPQZ6GJsBHRK1aXAdksasVms3W5XMIwnEglUKhXGEBKuq1AoKDiIRGbz3ehEryGPOx6PMyEmzaF4nkiSxNVDhw8fhsPhgCRJjAu6deuWgseqUUOgXC4rMEnRaBRTU1MKLJe4B6iwRa/Xs9H7zjvvYGxsbM/d6wGl0ZdKpZDNZvk5xDNH+6atrQ39/f1cPQgAf/zjH/GHP/yBDbf9wr1QBInOr2QyyRkIOt/a29tx5swZ1m9ubg4//elPOeOw3608aE1RpiOZTCq4xQYHB7kCrlwu41e/+hVGR0cBPN6J3qte5DjRWJnNZvT19eEb3/gGABmvu7Kygn/5l3/hu+1JGkqilEolOJ1Objhss9mQy+Xwi1/8gudpv9ub1MpTayxls1n2MkwmE0deAPkyf+655xQbamVlRQHUpnYHIpFeW1sbE1MC8uVNbNo7CV2gm5ubSCQS/Cy6/AlkTUzd4XCYPeTalJrZbGYwtNhiRKxAe5zQZzKZTArjIZ1Osz4i42u5XOaDa21tjfvokb4ul4svXxo7sdqQgLoPGycxPenz+dibpLmSJImNDZPJ9ImUxcbGhoJc1GKxKN6HLj8xUrhT9IS6hpMR2dPTw8aSCN4WL1QxTUPrw+l0or29ndvu2O12hEIhnk8C5+4EIhSrRcxmM2w2G9xuN0fPPB4P9Ho9vweljYh9mOZErOQMBoOKak9isN9NhAvYPrxpPVCVFaVvCPS5trbG0Ur63HQ4Uf8z0jWbzXJlWCPGG80DvQ89NxQKcVsgmgMCflIUl4o6yuUyR5YajZjU6kURZLEKUFybZKDQOJBjVSgU2BNfXV1tuJ9grT7ixUtl9vRs0o3mmc6+SqXC6aXz5883TMvxKJ3ou7imyFii/3e5XHjppZeg0+mYyPT111/H2travrfNIH3E96W1S2vmmWeeQXd3N6+pn/3sZ7hx48a+Gkm1+ojfRZC/3+/Hd77zHTbA5+fn8frrr/MeeJLGibieAHk9nzt3js+/SqWCn//857h79+4TN0xEnQD53D9y5AhHs7VaLRYWFvDOO+/sS+uXekQFeKuiiiqqqKKKKqo8Rp7ayBKVxgIykDYQCGBkZAQAuBUEcXRYrVYsLCwo6P0JE0Lew/DwMF566SW0trYyl8fExIQChPgoEXuIETibPO/u7m4FIM9ms0Gv1yOfz3Nqg15LXl9raysGBwfhdrtZXwKGkgf0uGiF6MmKHj5RFIiEnsViUVFiTKlIMTrlcrnY6wTk1FwqlVJY7PVElqijOrBNkCn2oiIgokikt7m5yeBXiiAGg0H2rJaXl7ldBX2enaI51HqB0jeBQAC9vb3wer0c7iYeLErlRqNRRKNRZLNZfnYgEMCxY8c4QlUqlbC8vKwo167HExaxdFarFV6vF4FAgKNnhKUSS/HL5TKsViu/zuv1YmBgACdPnuT3icVivJapB2C9tAoP+xl4NPhZkiRF+jEYDHITVOrILmKEdtMKplbE54s9xoCHl9pTw11Axp/odDpFRGq3zYXr1Y2iJ2L/OEobA8DBgweh0+kQjUa5v1YjxI+N6CdGcQDgxRdfhMlkQjKZZIzHxsZGUyIEpAtF0U+dOoWOjg6Uy2W8/fbbAIBr1649sTYVDxONRsOp229961swGAyMa3rzzTefWH+xh4kkSXxPffOb38TAwADPyy9+8QtMTEw0LZIDbN9TXV1d+O53v8v7fn19HT/5yU/q4iXcL6GIfEdHBz7/+c9z1L9YLOLNN9/EyspK01KBT62xRARZgNygkrhoAJlwLRAI8MU8PDwMl8vFfBiAvACJSweQK3aoS/iVK1cAAHfv3q1rU4iVNVNTU8hmswqwYltbmwLcSuBu0pc6uRPmqqenB4ODg9BoNJyqW1hYYMzOTiL2plpcXFRggDo7O9lgA7arCkXOmUKhwBggn8+Hjo4OGAwGZtxdWFjA4uJiXQSZYmUHsQoDcrrSYrEoUmaEZRExSmI/KuKw0ul0rO/9+/exuLjIFTsicd6j9KJwMhkaZMh5vV6eE0oN0IWfzWYRDocRi8U4bdja2orW1lZ+TigUwvj4OKampgBsV+aRPo8aK7Hij3AkbrebU7cHDhxAMBhk3SiFWygUeB6pez0Z5YB8eM3OzgKQ06u74ckRGXfpkif9RDyS1+vlJr6UVjGZTOjq6sKzzz4LQHYQyuUyOzfU16vRA/5hBhywXXGl1+sV+trtdgZdW61WlMtlJBIJNoT3O51SCyIVfzcajZwqJSN7eXkZk5OTALAj9m8/RavV4uDBgwDAgOHJyUkGLjdTF7H32uc+9zmYTCaEQiH89re/BbBdzNMMoV6IxNjd39+PcrmMX//61wDkxrrNuoApdUokwX/2Z38GvV7POJw33nijaWkm0ofOv69//evo7u7m8/uNN97A5ORkU8eGzsSRkREmXAaAxcVF/OxnP9tzQ+HdyFNrLIl4h0wmg3v37vFl3t/fj2PHjrHxQfl4kXCNMEAkBoMBm5ubuHXrFoPl6q2sEis9yuUy0uk0eyEfffQR+vr6uHyfql+0Wi0fUFarVcFkTWX6q6urjGWYmZlhkDo981FCh1wkEsGdO3dYl6tXr6K9vZ2ZjwFwuw7ysqkLOh3kTqcTOp0OCwsLbARMTk5idXVVQZz3OMMEkI0N8p4B2WslZmVa8BaLBZVKhT2TWCyGarWqaOlBz6VI0tTUFKampjiSV0+X9mq1qmjj4PV6YbPZmOiRPreIodLr9cyITZd1Pp9XEAg+ePAA4+PjiorFekDDBKKm11B0TIwa+f1+xox1dnYq8FAkYvuNcDiM0dFRvoSJPqPekngSArvSHFBEjiISPT098Pl8ihJ5i8WClpYWRXXe5uYmj3e9DXQfJo+LegHbuCDS12azwe/3s+FJhILUaLYZIrY1cjqdiihzsVjExMSEgibiSUntvJrNZiY3dLlcKJVKGB0dZaO2mZeeTqfDsWPHAIC/37lzh3GpTwKr9Dh93G43Xn31VQDyXRGLxfCb3/wGQPMNN6PRyIZbR0cHKpUKfv/73wNA06NKOp2OMUrf/va3odfr2el46623mjo2Wq2WcZ1f+tKX4HA4+O771a9+haWlpaatYUDFLKmiiiqqqENl18EAACAASURBVKKKKqo8Vp7ayBKgzL9Xq1WOLEWjUdy7d4+93+HhYQwODsLn83Go1+fzQa/XczpnYWEBc3NzmJ6e5r42iUSi7jw5eT6EoRAJJqenpzli4XA4EAgE0NnZyboAcnSMPIT5+XksLy9jaWmJ0yizs7NIp9N1RZZESoVsNsvjotVqMT4+ziSMwHZZOo1VS0sLnE4newuxWAxTU1OK0nAiWyRd6uERyufzWF1d5felVIlYLaTX6xW916hFBuWhASUHCQAu1xajXDtFUIhDicq1k8kkZmZm4PV6+VmU8qN0k06ng9lsVvAdJRIJxGIxjmotLS1haWnpE5Up9UQm6T2TySR7RPRZdTodcrkcE066XC5u6UGeVC6XQyQS4fUyNjaG27dvczRntykVena5XGYKDXqfdDrN0ZJKpQKfzwefz8eRL5GGgj7TjRs3cP/+fQDYM95D7O0EbGMoiD6BcHaAvJ67urp4r1Gbk9nZWU737nfbA1EvkQDWbDYrSGKJ0mR6erou/N9+6CXutZaWFsblaLVaxONxPHjwoGnYIHGc3G43N811uVzY2trCpUuXmhb9IyEKg5GRERw+fBiAvGauXr3KkfFmRXIoBefz+TjKZTAYEI1G8Yc//AEAmp6CM5vNOHfuHAAZs1QqlXD+/HkAcmS9mVEuSZI4SkvRLjrT33777aaODfCUG0uiiOWfZLDQpRWNRnH37l1FKT71+qK/SaVSzENDh4XYXLOe5z/sZ+LxEC+OaDSKpaUlxgUZjUZYLBYFo3AqlVIYIdS1ezeLkZpX0qFEZJPioRmPx2EymdiIoaaQ9P/pdBqZTEbR46y29LcenarVKra2tjhdWdvMENgGwIpzZDAYPjEGIplebYPketlqRSA5dUCvvUzEBpYicac4l9lsln+nhsNi6q3eknRau5lMhgknyWi/du0aPB4Pp0Y9Hg9cLhcsFouCTygUCjFB4/r6OjKZDKc0KW1X7yUskk6K+KJaAHUymUQkEkFrayvPGxGv0hwlEgncu3ePDTkCMe+HUVA7Z3q9nvmvADBBLDkM09PTiEajuHbtmoILZrfNYR+lC7BtvJE+lPp3OBzw+Xy8plKpFPeBfFL4IHGfielUj8eDoaEhxsIUCgUsLi6yQ0SveVJpDLGbgtVqxcjICE6cOMH/v7i4iJmZmaal32jOqDH0yy+/zGsomUzi8uXLfFc0SzQaDRwOB55//nk23AqFAi5cuMDwjGamJ7VaLa8b+n1ubg4//vGPAYChEc0UkXx2Y2MD//iP/whAJqxt5tgAnyFjqVbES1PslFyP7CcNunjpANukj2Sc1KvLXvSpfZ0YtaC2CKKX/bjXin/TKGHeo15LxhgZjY8il6x9baNjJBphO3nTtfigRz1LBGs3Mj7ERLu1tcURKzLkRF0exrclGmYPm/NGhPaRyLOUTCY5YnX9+nXGnDzMAKb3qCV9bJTXqPZ14oVeLBaRy+WQSCT40tdqtbBYLLhx4wYA4IMPPuBIosiztB/sy7UGIDkqYgXu1NQUYylTqRRCoRDu37+vMGr300Ch96I5EaNwxWKRcYh2ux3vv/8+FhYWmoLzEI1cchZpPpaWlvDBBx801VgSHTbCcxKObGlpCWNjY00FC5NQyyqxtdcvf/lLvj+aicmhe4PGYXx8HD/5yU8Y49vMakVA3l/kgL377rsAgJ///OcA0FCbqb2KillSRRVVVFFFFVVUeYxIzbRcH6mEJH36Sqiiiip1Sz1RuGbpIeKGiCm60fYmjT6ffjabzVyZ19bWxvQeIvv5k9SFojlmsxkej4e56Xp6ejA7O4srV65wOuVJ409EXXp6erhVhd/vx9zcHC5dusSdBZoVYSIs15kzZzjdtLq6ikuXLjE9STMxXSaTCQcPHsQzzzwDQE7TX758mcelmfQOgDxXhw4dAiBTp9y/f58bqjc7sgRsryGv14tqtcoRuH3W5Xq1Wj210x+pxpIqqqjymRbRcCNjqdE04F71EMk7tVotpyibnW4izBAZkdRPb2trq+lYD+LyImyXRqP51HQR9aF5Itzep6EL6VOb1n5K7uWnQo8miGosqaKKKqqooooqqjxG6jKWVMySKqqooooqqqiiymNENZZUUUUVVVRRRRVVHiOqsaSKKqqooooqqqjyGPnM8izVcooQmy4JkRkSaO9JV36IwEpirabeXwQ6JV1EcsMnhRmr1UdkzRY5c6jvHfUsA54cwLC2comIIcVu9oBMREZcTERS2YxxIuAnVWDQONGziYiR5rGZeL96OalUUUUVVVTZf/lMGUsiyZnP5+Mmkd3d3dy0kppEJhIJrKyscAkmte/YryoZ8ZI1GAzcbqG/vx8HDx6Ex+Phyz+XyyGTybAuc3NzWF5eRiqVYgKwepmpd9KJqnGoaW9vby8OHz6MtrY2ADLLsF6vZ1bqUCiEhYUFTE5OMhFaMplUVKrshfFYrA5yOp04cOAAN9Jsb2+H1+uF3W4HIBuR8XgcCwsLTEa2srKC9fV1Jh3dLcv5w/QB5Hmz2WxMUDc8PIxgMIi2tjZugaLX67kpKyCT1y0uLjLlfiQS2VPT2Fq9aL0YjUbY7XYYjUZmgbfZbHC73TwXuVwOsViMxyWZTCKTyShK5vdDqFJHrNjRarWKMnWqvBJbqBALu8gM/qSk1pCs1RdQErV+WpVy9L22yqiZLSQepRNQf/ueZuj0aeshytNUFbafhMr7ocfTsHZquzKIBLv7ehbu2zupoooqqqiiiiqq/AeUz0RkibxYikD09PTg+eef58aMBw8ehCRJirYea2trWFhY4P5bt2/fxvr6OvL5vCI1t1tLuLatgNVqhd/vx5kzZwAAzz//PJ555hmYzWZFP7NUKoX5+XkAwMTEBO7fv4979+5xNCebzaJUKu3aEq6NlphMJni9Xhw/fhwAcObMGbz44oscaTIYDNBoNBxZ2tzcxL1799De3s763b9/H5FIhBuiir3Z6tGHdCHSNY/HAwA4dOgQnnvuOXzuc58DIDc7NhqN7BmUSiVks1msrKxgYWEBgNzr69atW9ykNRaL7Tq6RPNFUUBAbuY5PDyMZ599FgBw7tw5dHR0wGKxcISHUqdEKEhNhz/66CMAwPvvv4+lpSVks9ldcbTUriG9Xg+Hw4HOzk4AcpTr8OHD6Ovrg9/vByCTxen1ekUT5Wg0yhG4Bw8e4MaNG1hcXORWAPWmL2tbrVALEUCOBra2tsLn83F0sqWlBRaLRcFTI0kSj1MkEsHq6ioWFxc5mprJZJDP53e13x7Vi41SyfR/YtSoVCpBr9fD6XTyeUEtSWhcqOcfeaCN6ETPFiNYpGdtBEuj0SgaOBsMBv4b6j1IEeZGuX5qW9A8LG0rtkYBtj1x2n/Uiqe2/2GjUq8+9P+UBicplUq7Ont2q9NOf0fzqdFoPtGjcj+lHp3EqC41vn7ScICH6VV7dtH6oXY+zSLRFPWgvWW329HR0cF7aWpqivXaD3mqjSXxELJardx5+JVXXsFXvvIVBINBALLBks/n4Xa7OR3W3d2NkZER7iHV39+PCxcuYHp6mo2ARrsWi6klYoP9whe+AAA4evQoGyZi41+9Xs9d2w8cOICenh5YrVa+eMPhMFKp1K7DrOIhSZfu0NAQp7pOnz6NtrY2XtzlclmxoJ1OJ06dOoXu7m5cvXoVwHZKhwyqeg9wURdJkqDX62G1WvmS7ezsxODgIDeMNRgMCsOnUChAkiS0tbVxfy2bzYZwOMyGHPVTq1cfUS+dTsdz0NfXh5GREbz00ksAgIGBARgMBiaoA+SNL0kSGw5WqxV6vZ6b2drtdgX+azdjJGK3nE4nhoeHudHoK6+8goGBAVitVoXhJqZq3W43Ojo6eCwLhQLC4TAikQgfEPWw3JI+4mFst9vR1dUFADh8+DCOHTuGvr4+nkez2QytVqtY39VqlZ+7uLiIu3fvwmazKf6mkR59ouHmcrkQCAQQDAY5VWqxWDhdCoCdIYfDwXtIo9EgmUwyQ/PU1JTCwHrcJVibbhDnzWw2w263K5r6ms3mTxjbpA99HpPJxGO1tLSEtbU1hXGykyNQu8/ofQ0GA0wmE4DtJtXU/FhcpzQnNptN8V7xeByhUIgbIZM+9UitTrXYRDJy6XfCBooGpsFg4PWRy+UQjUaRzWYbMtweZtTSONCXqJ/BYODfaf5I30wmwynvvTJH1zq3oj7AJ+fRbDbDYrEo9I9GowiFQopG0XsVmjORyJT0onGwWCxoaWmBz+dj/TQaDRYWFrgHYSwW2zfjTZw3wgGTbhQUOHz4MDOOd3Z2olwu4/LlywBkCEcul9s3fT4TxpLBYIDH4+HozTe/+U309/fz34lssHRoAnLkgi7dzs5OHvzx8XEAaIi1lRY7TVpHRweOHj3KEQq6jHO5HB+IuVwOxWKRPd22tja0tLQgmUxy64FUKoVMJrOnHKskSbDZbPD7/RgeHuZnaTQaRXRExEp5PB60tLRgYGCAQdWEzdlNc+JaoQUqGigtLS1obW1lY21zcxPLy8scXdva2kJraysGBgYYS+T3++FyuXhz7kU0Gg1fvH6/Hz09PWzYFgoFxGIxLC8v86WaSqU4AgWADRPxgtoL/oUOIa/Xi6GhIbzwwgsAtg23ra0tjpRSs2had4FAAC6Xiw9vMgbFaOlusBZ0KFksFnR0dLDhdvbsWRw7dgx2u53fK5FIIJ1O87zpdDq0trby+g4Gg9jc3EQ4HObPSPI4Z6DWa5UkSWFsDw0NYWhoCP39/bw+dDodN6wFZENfq9WipaWF57ZSqWB9fZ2fvbGxgXg8vqORKx7W9LPJZILL5QIgY+4OHDjA0T+XywWLxcJORjKZRC6Xg0aj4dd4PB5IksRrTK/X89/tJLUXvhgptVqt8Hg8HJ1sbW1FS0sLPzefz/MXXcxWqxVOp5OfPTExgatXryqi7zsJrTuxiMRoNMJoNPK+9/v9/AVs7yMqLqFxoAsRkA3u8+fPY25ujv9mN2tZxLGYTCY+P2w2G1pbWxEIBHhddXR0wGw283ooFoswGAz8HolEAlevXsWFCxfYWWvEcKOoLRmwFosFdrsdfr8f7e3tAOR93dPTw86A0WhU3DcAMDMzg7feeoubR+/F6ReNEaPRyA4JIN+ZwWAQfX19AOQ15XQ64XA4+DOUSiVcuHAB3//+9wHI59R+GCdkSNIa8nq9OHDgALcS6uzsRG9vL/r6+njNm0wmZDIZDpDsNzbxqTaWxFTXoUOH2CA5cOAATCYTX+bLy8uYnZ1FLpfjC9/tdmN4eJg9Oo/HgxMnTmB9fR0rKysA5Muw0VQcLV6/34+hoSG+KAB5cy0sLGBjYwOAbBRIksSXbmdnJywWC4aGhvDgwQMA4O+7FeqETkKeK10U1WqVO58DYCOIPnNvby/OnDkDu93Om8ThcCgAu7vRpfZ3MRpiMBiQTqd53h48eIDl5WVF2qijowNOp5NTd3q9HhqN5hNRjN3qRV9iNCGfz/PGGh8fx/T0NObn59lAKRQKCAQCvA7tdjuKxSIf3oVCAcViseENSe9rMpngdDp5zra2trCwsICJiQn22MLhMPL5PI/LqVOnMDIywmOXTqfZCCYDqpED3WQyIRAIcN+sw4cPw2q1IhKJcEp7cnISoVCIx8HlcmFkZITXN4G78/k8R3EJeP44nWqjSjqdDlarlQ/r06dP49y5c3C5XHzBz83NYWpqivdaoVCA0+lEMBjkg5XSSzTe9cxbbVqIjAKK3ALyHLz44ovskFWrVayvr2NiYgIAEI1GUS6XYTabuRilv78f1WqV9yOlm3eaq9oCAPqi9dDR0YGhoSF2KDs7O2G1WnmcVldXsbS0hEKhwK8ZGhqC2+3mOdJoNJiZmeGx3EkfANzGxGaz8Vnr9XrhdDp5/I8dO4aDBw8qDNxsNotkMsmOk9VqhdfrZQNldnYWm5ub2NjYUDjAOwkZkGJqpqWlhZ/d3t6Oo0ePYmRkRJHiLpfLiogs7UlAXi96vR63b99mp3M3TrZokJhMJsWdNDAwgCNHjvC8tbe3w2azKSpwq9UqGydWqxVHjhzB1NQUbt++XbcOtfIwKIDNZsPg4CBDOF588UV0dXXxOEiShEqlAp1Ox/pQsdDrr7/esC4P0w2AwhkIBoMYHBzkHnoDAwOwWCxwu91sUOn1elQqFT7/GjUiHyUqwFsVVVRRRRVVVFHlMfLURpYIHAzIXtILL7yA559/HoAcvtza2sL09DQA4IMPPkAoFGKsDSDjQNbX13H27FkAQFdXFw4dOoS1tTW2yEOhUN05aDGUKoYHu7q60NfXx5GmaDSK27dv49atW5waSKVSMBqNHPVyOBwM6O3p6eHPtBvsC+nyMHCuzWZjLzQSieD69eu4d+8eAGB9fR3JZJJxFlqtFseOHYNWq2WPx263K1I4uwV3k9RyXSUSCdy7d4891/n5eayvr7MHYLFY2Ishj8dgMECSJJ6nvXBAVatVfp9sNou1tTWOzKyurmJ2dhahUIi9cZvNBq/XqwiB5/N59kAJ2L3XUK9Op0O1WuW01vLyMm7duoUHDx5wFDSbzcJms7GnRSkVioJtbm4iFospymV3ipzQ91oP0+PxcKqEMBJXrlzB9evXAchpgHQ6zXtgYGAA2WyWIwDJZBKRSATxeJw9caLteJwutb8Tfor2yLFjx+D3+1EqlTA3NwcAuHjxIiYnJ3kcLBYLent7US6X+TOVSiXE43E+GxKJhAIr96iUoJiG02q1MJvNaGtrw+HDhwHInvfAwADru7KywvMGyHtNq9Wiq6uL581sNiuirQQd2CkaKEazzWYzr80DBw4AAAYHB3H69GkcPHgQgBwhTKfTXABw69YtrK+vMyBefB+K5tjtdgaf17um9Xo9LBYLWltbGefW1taGtrY2jjQeOnQIbrebP+Pm5iampqawsrLCz+7v70d7eztHhLxeL1paWnj/1yuElaJ0e0tLC7q7uzlqfuTIEZw6dYpTcMB2JoCwiDqdDsPDw/waq9WK1tZWBfh8N/qIa0hMTwYCAQwODuL555/nyKNWq0UymeSI48LCApxOJ0ZGRnhciFZkr+dOLX5Kr9fD5/Nx5HRgYABGo5GhIrOzs4hEIhgYGGCcEK1rOhP3K+1FeD8Rd0iRI9IlnU6jvb1dMTblcpntAop875c8tcaSVqvlMOmpU6dw7tw5TlOUSiXMzs7inXfeAQCMjY0hHA4jHA7zxWswGHDnzh2ezLa2NrhcLjz77LP44IMPAMiVVrut0CHAKR1SlOqjxTI6Oop3331XkRooFouwWCyc76aDweFw8AFDm7uRxSYCvCmnTAt8bGwM169fZ4B0NBpFpVJho8Tr9fIlQqFVquTbj4VPnDyAfChtbm7yQRCJRJBMJvkQMplMfJjQAUOpM7qI99oZnA7nQqGAzc1NrK2tAZCrJ2OxGDKZDBvpPp8PHR0dXEgAQGEAZDKZfSHM1Gg0SKfTnL6JRCKYnZ1FNBrl9Wyz2dDd3c3rrr29Hfl8ntdYJBJBNBptmIdKNFDowqL3nZqawp07d3jeEokEdDod42H8fj98Ph9fhmtra1hfX8fa2pqiSKCRyjybzcaXFj1jZmaG9/D9+/exsbHB7200GmE2m9HS0qLAnIRCIR4rmredxqmWq0mr1aK1tZUvip6eHkiSxJfs+fPnce3aNSwvLwOQsYoWiwWBQID3lsFgUMAFYrEYcrncjpVNokFLIGCr1cpjc/z4cfT39/NnXl1dxbVr1zA6OgpAxiFmMhlYrVae30KhoNif+Xwe6XS6rjVda2yL68br9aKvr49xpSaTCRsbG7y+r169isXFRSQSCU4JlstlHDx4kPWXJIlJYBsBmdNapLQ0Pae3txcWiwXRaJT1uXLlCmZmZvjMbGtrg91u53muVCpsYO9FyuUytra2eO41Gg0cDgesVis7bWNjY7h8+TLrlkwmMTg4yKlojUbDjt5eweYiUXIul4PZbEY+n1ec1/fu3cOVK1cAyJi2crmML3zhCzw25XIZ4+Pje8K3Pkwvem+xEMJisbDzSFXKhw4dYgdBkiSsra3xmt/rXVErT62xpNfr0d3dDUDOrQcCAR7EaDSKixcv4tq1awDkCEUikVAQKWq1WqTTafaGT548iYMHD6KtrY0PGIvFUjeomg4qqk6gqrv29nZUq1X24H73u9/h2rVriEQifNFVq1Wk02mFB1oul2Gz2fjCEZ9Rr9R6vzqdDna7HblcDjdv3gQA3LlzBxMTE7wZ8/m8IhdMRoj4b5IkNVwCWgtm1Ol0/Ayq+KMIChlpItC5tbWVo16knwiA3YsxKR6mlUpFMfdkrLrdbo6q9PT04NixY+wJptNpLC4usoFFmLdGRNSFNj4d1oBsGNBzARlc2d3dzXvCZDIxXgeQsTvxeHzPBwRF8WiOAPnQ1Gq17KzY7Xb4fD5FVMPlcrGRMDk5icnJSaytrdUFzq0taRcZ1C0WC88NGbgTExNsoCSTSb50ALBB6fV6eW6Wl5cxPz/Pr9na2tp1tJQqlLxeL2NxJElCOBxmw+3q1asYHx/nz0yYIqfTyc4JYS1prFZWVh4bdRPHSIyE6fV6RfWvz+dDtVpl4PiFCxfw3nvvYWxsjD+zXq9HW1sbOydmsxkmk4nX3dLSEsLhcF3GknihbW1tIZVK8XlXKBSg0+l4La6uruLy5ctcpfTgwQPkcjno9XoG5549exYmk4mjZwTU3Y0zS2Mkvkaj0SAcDivOs2g0iqtXr+Ldd98FANy9exe5XI7XHSDvN9IlnU5zBLwRvKQYFRcjnvTMXC6HO3fuAAB+/etf4+bNm2wkGAwGRREBVZ/Nzc3tyUkjZ1gsuKB1SPpev34dv/3tb1m3TCYDh8MBt9vNZ3Q6ncalS5f4LN9PQHUttUQymeSAAxl3fr9fgRm8cOEC74H9plRQMUuqqKKKKqqooooqj5GnNrJELU2A7dJO8lwmJycxOjrK1TnxeJzTDyIRZDabZav44sWLCAaDsNlsnPraTTm6iOkgoj5ArgRKJBK4dOkSAODevXvcBoM8K6oiIP3T6TRXB4kcLY2mT0ReEIvFgnw+zy061tfXkclkFAR8VAINyPgpp9PJRGdAfZVL9ehF1UQ0dvl8XtGOgyIGNJYdHR0YHBxURJYSiQRSqVRDBIIP00eM3olVJjabDXa7HSaTifEMBw4cQDAY5NeEw2Gsrq5yBd1eWp3URpaq1Sp7thRds9vt7N16PB44HA5Fzn5qaoqxO2tra0in03XrI0Zzasv1c7kcRyLNZjOcTif6+/vR29sLQI78+Hw+RYR2ZWWFsYAPHjzA0tISkslkQ5EukfCO8HMAOPoWDod5zVMpvjhn/f390Ov1jBmkcSJcUz2pHUpRiHuLPjOtz0wmg/HxcaYiWVtbQ7FY5Dmz2+3o7OzE0NCQgnZiYWGBW+YQd089+tAeECvIqAq3Wq0iFovh1q1bAGSM0tTUFKd8AHkufT4f89VRaorSq3Nzc3WvIdK3WCxyaonGN5FIIJvNcnRyfHyco24AeG0ZjUaet0OHDsFqtfJnGx8fx9LS0q5TTbXn1tbWlqISMh6PY35+HqOjoxx1S6VS0Gg0PJZHjx5Fd3e3gmpicnKyoTScqEtt6x+9Xo+trS2srq7y3pmammK6CUDOXLz22ms8V4VCAaOjowiFQvvSyqP2HKB1BMjreXl5mefAbrfjpZdewmuvvcb7YnZ2Frdu3dpzSrAePcVUvtfrxcjICL797W9z+jcajeLy5cv7XgVH8lQbS1Tu2dLSouDkmJiYwPz8PGNHyFCqXTylUolxCuPj40in03C5XJxLDwaDded+xdC1w+HgxUsEcyJX0MPwGWSk0N9sbW0x9oA+rxgGrkfIUBJZqTs7O+FyuXjBUImxaESKrNpUqioCsRvF4YiXrk6ng8lkUvDdEAu1eMDrdDo+MIeHh9HZ2Qmj0ci6RKPRhi/dh5Hk0UVnNpthtVpZN5/PB5/PB5fLxf/mdDoVffTS6TR/kf6N6FRblk64ETJgg8EgDhw4AJvNxsYcsQhTGDqbzSpoAhqlMKg1lohsklKnND8jIyOKhsfimorH4wiHw3xZEkN2I3Mmrme73c7cRYC8b/L5PJxOJ1/4BJqlNEUwGITL5UKlUlGkuiilA9Q3b5SmoDmy2+3o7u5Ge3u7Ij0TiUT4/YiHhvT1er3o7+/HkSNHeM1nMhlMTU0xCLVeg1vEl9D+FDmsiAmcUsSEvROZ+1tbWzE0NIQjR44AkB2EbDbLRsPU1NSuDYJKpcIGE12y6XQaiUSC1ybRldQCyf1+P4NzycAlJ4+6CDSS9iK9AHlfiBgx6hcajUZ5bonH7ejRowCAr371qwwWBoAbN25gYmICpVJJcaY0SmFC75vNZhGLxVAsFnnszGYzWltbOa385S9/GefOnWNd5+fncfPmTeRyOQU4ez8wptWqTCxLzmAsFoPL5eIzs6urC3/1V38Fv9/PRu3ly5cRjUb3XRfgk/eJwWDgcRkYGMC3vvUtdtgAec3cvXtXYQD+N8GzJLK7Ui5aBEGKBo5Op3tkNQltfgJ4BgIBjmS0t7fXzVUhRpa8Xi9jRxwOB1KplIJx1W63KyI1kiQzftOBSZtXzKNTVcrjSPtqhXBBtJgPHjyIM2fOwOl0cvVbKpWCxWLhHHgmk4HL5WK8yYEDB6DRaFAqlRTM5rutzCN9RLC5y+XC0NAQX2SSJDGolKRarTKAuq+vD1arVRGFI9D1Xsk66YKny4MiNfQ74aXsdjtfdg/DkNUCgxvZkLVRLhFHBWyv99pqR+IHArYxNLWvbUREZlyaG7ElkNVqhc1m43VGbNC0pmodlVwu11DrHsJQ0Pj39PSgu7ubcTlEnEcgXUC+6ERHg6rG4vE4X7zLy8sM6t6NiPoTeSCdHYC8FpxOJ4Nd+/r6eK8DcsStq6sLwWCQxzcWQiSKRwAAIABJREFUi2FhYYEvRzJK69n3ogFA1ZDkMEajUdYHkM+C9vZ2hdFrt9tx4sQJJkDU6/VcCQZAsc/qPYdorZJRQu8jFieYTCb09/fzxba1tcWVha+++ioAsGNMF/Xq6qri/KTvuzF06edischrwWKxoFwus1ENyHPgcDi4fdbJkydhMBjYAZ6YmGCsJ62zvRgEopNBBiFFR4aGhlAul9mZ/eIXvwi328378ebNm1haWlI42sVicV+qcovFIqLRKIO1JUlCe3s7P2doaAgDAwPQarXsiNy8eZM7VADbzlYjXG+1It7z+XweBoOB19DRo0cRCASYswuQ8V4i0Fy0H4C9N6xWMUuqqKKKKqqooooqj5GnOrIkMnHWemwmk4lDk2RVi+h+eg/ReydvnSI81NurHhH7eBF3ByB7TZVKhT1Oai9CDV9JD5PJxJ55oVD4RPSmtolkPULRKrK2jx07hsOHDyv4KPL5PFpbWzkMnc1m4Xa7uRQ1GAyyJ0AWOP0s9pPbSSjKJTZgfeaZZ/DCCy8wXiOfz3P1Er1vtVplL4q8YjG9RM8W57Feb0XkaiIuGPKqKT0oUjbE43EUCgUeK2ImJqF2DLURod0IRZWoUpCeLZYURyIRjo7QmqfPTK9xOBwKPi0qc693fGpTlGJbj2w2y+k+qjItFovswVHFHEUOyuWyogHxw1Liuxkb8rKpXYcYiifGXpEnTJIk1oUiS2JqQ8Q0ip99JxFTJsRcXC6XOYKi0WjQ2dnJFV3ElyXSJbS1tcFms/F6npmZwezsLEeEdjNO4v6kCi3aOw6HQxHxDgQCiga9uVwOVqsVBw8e5H1WKpUwOTnJFZViT7jdCEUAaP2ur68rMG0tLS3weDyKyLVOp8PQ0BBHuI1GI1KpFLfwIFqXh33+enUCtsvPCY5B0WSi3qC/aWlpYR4/6itIeMDZ2dl9xcHQnFM3A2L2BrbPGIKK9Pb2QqvVIhwOA5BpDujn3VZP16NXPB5XjJXIOD48PMwtli5evAhAxuhST0/SaT/xSyIfWaVS4Qhkd3c3nwGU0r58+bKiF1xtZGmv8tQaS+LhnEwmFYcdhZTFS5cmSAzH63Q6BfcHEcLR+5bL5bpxQiJ2wW63Ky5RsUEocQJReS8AXnAU9iXQM7WFAD7ZwfxxE0x/YzKZ4PP52PAZHBxk/FFtk1ARb9Le3s7lz0ajEdlsFkajkXWhsdtN+JvSJ3R4Dw4O4ujRozhy5Ag/e3Nzk/upiUKpMOJWEVN11NdJbDtRj4jGtdlshtvtZq4tQD4IRLLJZDLJYXcRMyPS/ROJH+GI6KJuxDgBtoG6qVQKqVSKDRSj0YhEIqEgKyRQNXGKEGkfHRi14PV6pXa9ZbNZhMNhXt/hcBgej0dhJFBKQkxhBoNBxr6I77cbIYen1iigeaFUtV6v57/Z2tpCoVDgfe52u2Eymdjoo88kpgV3oxsZS8lkEqFQCIuLi3xxksErXnSZTIafS/37iGcIkMvUFxYW+D3IMdmNTlQeH4vFGCe2sbGBTCbDxj+9NxkolUoFQ0NDaG9v5720traG9957jy+bra2thvQho5LWcy6XQyaTUfRRK5VKnBLc2tqC2+3mdiskU1NTeP/99wGAMWaNpHNFofYXNA7UO7BYLCrOu97eXoYDEBHrv//7vwOQDQJqzbITH1Y9Qu9BPGm1d5DVakXPx0SsTqcT5XKZuYPee+89RCKRT9w5e00xUTpV7K2Wy+XYKQNkzJJOp0MoFOKxWV5e5vVOstfioEeJ2MbG6/XCYDAgk8ngF7/4BQAZz/Uwstn/8MYS4VsA8EKly81qtcJqtSoWGXn8YgNFERBGndJFY6lYLNYVzZEkSTFJTqdTUQ1C4Er6vVwuw2g0KvR1Op38HiIwU1zk4oX3uMVPF5zT6cSBAwfYs3W73SgWi8hkMpxTJuwAHehWqxV6vZ49262tLXi9XrhcLh47ugR2c/kSDw+x9g4MDKCnpwdarZYPqnA4jHQ6zRc8Rfbo0CIPRezkTp3TRSO4HqE+XgA4ohQIBHjjl0ol7k8FbB/opVKJ1wRFn8hYorGjed1NZEnEcpERT5/R4XDAYDDwIbq5ucn8UiK7OQAGoVqtVkU3cqCxnHwtLooMZZH9emNjA8vLy3yI5vN52O12nDp1CoCM1alUKjxHBDZv5JAitm1AjsLo9XqOWPh8Po7S0n4joC5FVHw+HzsA5IGnUqmGjCXingFkY2R0dBSRSIS9W5fLpehWT1g7chh6enrgcrkgSRJX7t64cQMbGxsKsPlux6lcLiOdTjO3FiB71+QQAlD0UwTkOerr64PT6eRL9tKlSzh//rxiXhvRh4wlOldXVlaQTCbZMSGd6H2tViteeukldHd389itr6/j9ddfZ2MpHA7vyTCpjSyRQbiyssJ7idZ9V1cX/vRP/1QRcbtw4QLeeustAGADeb9A1PS54vE494EUo+DPPfccs8TrdDqsrq5y77Xp6WmOnuy3QULRWJHY2e124/Tp0wDkaE65XMbbb7/NkaW94kl3EtFxymQyfHf6fD5oNBrcu3cPb775JgA5Ci7qst/j89QaS8A2CytVDYiNGjs6OpgIkryESqWiSJGYTCbeqA6Hg8vzibSKQJE7iWgs0SVHF3w8Hkc6neaLggwWEcBNBGxihIKAhuQ1107044QWjMfjQWtrK1eTUeomFouxMUTPI/1yuRyWl5c5ReFyubitgKivOC71RE9MJhOCwSBfWgcOHIDdbue2FwC4lJuMBPJkxIiF2+2G2+1mg4Wib+LBuZM+FOUiYHl/fz/8fj9sNpuiXD+TySguFOq2TmNFxggdrnTh0gVab9UgpShpnIxGIzcOBWSjTCyRz2QyzMhN+lGJPKWQayv1SPd6DwjRQBJfQxE5ETy6traGUCjE+6ZcLnPVIukizhEB0RvxMMkQAOSS9mQyyVQfra2tMBqN0Gg0vL6TySTTXwDgjuiJRIJZ64nGo5HDU6xcWlpaQigU4vVgNpsVxhKlEE+cOAEAHPnLZDL48MMPAciRpWw2u6cLhkDLRKsByMaGTqdTEHrqdDreA6dPn0YwGIRWq2XD4Wc/+xkmJiZ4De1FxGh2sVhEKpXiyjytVstGLiADhV988UW4XC7eS2+++SZ++ctfcgRuPyIl9D4UfQTk9UIOAe2l06dP48yZM3zmTE9P4+/+7u+YRXs3jXzr0Ys+G1V3UuoYkNf4c889xw5wqVTCT3/6U5w/fx6AvA6fRNSGjDhiTQfks+rYsWP48z//cwDyeTg3N4fvf//7HNF8koaS+P6lUgkulwsvv/wyAHmfZzIZvP7660zD8aR1UQHeqqiiiiqqqKKKKo+RpzaylM1mcf/+fQDg/DaFtzs6OnD27FkO+966dYv7YlFkiZrVklc6MjKClpYWFAoF7i8TCoXq8hrE9h/UG4wiM9SOgZoPihgBSvFQ2waKjPX396OlpQWVSoW9Lwo715PaESMfOp2OvRIiVzMajZx/12g0SCQSHN2JxWKoVqvsVblcLni9Xmi1WsXf1Ov90nhbLBa0t7dzlMvr9TIvCUWS/H4/8zwBspdHvbGA7eiU3W7neYnFYgzQrVe0Wi0TKQLbvfiAbS9RJNOj3ykNKPLkEA8VIM9RPB7nea0XyChGp1wuF1pbW+Hz+RR8TtXqNo9YOp3mxrQUvfF6vTh48KCChiGVSnGqSWygu5PU8iqJYHOLxQKXy8W/5/N5bG5uckshYLsVEa0xipKKPDuNRJXI66bXERkprY9wOAyLxaLgzQFkbJCYZqb+cTQ2jXJQkU70nfB0tMcpeiOmrwkUC8hRAq1Wi/n5eY4MUG/GvQpFAkTuJXFe6RwgkPXp06dhNpuRTqfx4x//GADw4Ycf7itwWUx9iRFbgkdQtHJ4eBjHjh0DIEfaAOAHP/gBNjY29j06IOpEQmcs7cnXXnsNra2tPBb/8A//gBs3buxrROlhOol8QLTfDh06hG9961t8pt+9exf/9E//pIALPCkRU4SAPD6vvfYa36HFYhE/+MEPMD4+/sSjOKJOgJxNOXPmDMM8NBoNxsbG8Jvf/GbfG+Y+Sp5aYymXyylYqNfW1pjPxGg04sSJE3wwuN1urKysIB6P80aw2+3o6OjA8ePHAci9h6xWK+bm5hiISoy79QhNSDKZVGBJqL8SAW+JPEtsnKvRaODxeFj/48ePsy7Eh0Q4hno2Q201Fi1wakJLzwfkA3tubo711ev1kCSJL+qenh44HA6k02k+uKamppBKpequgqNxsNlsnA6hn0WMD5Edigyxm5ub/ByLxcKGFaXs5ubmFD3G6tmkhFci47qrqwu9vb2KVCNhGchApHktl8tc2XjkyBEFwScxQYvGUr3zJVZ4URd0SsPZ7XZUKhVOqVCa0e/38zw988wzOHPmDI/P2toa5ubmeJzq6S9GUmss0aUPgKs26cIXjXd6diAQwDPPPMMpV0mSEAqF2AnZjeH2MBFTKKKxRESHIvDdZDKhs7OTsVxGoxEbGxuYnZ3ledqvg72Wr4UMFLFS0e/344UXXgAANvovXrzIqa9Gey7Wq5tYCWSxWHDy5EkA4EvmwYMH+Ld/+zcAsjH6JC9fce3odDq+dL/zne/AbrcjlUrhe9/7HgA59dWsC5gcoq9+9asAgFdeeQUajYb7af785z/fl9RkvaLRaPjM+Zu/+Rv4fD4+7773ve9hfn7+ic6TKGJK8PTp0/jGN77BzsDExAT+9V//9YkxZD9MF3IWDx06hK9//ev8ey6Xww9/+EOsra01bWyeWmNJBHpevXoVZrOZ87h9fX2w2WxsCPl8Pq4MocEk8joqWzebzUilUvjoo4+4uW4ymawrOlCtVvkim5mZYQA3AMYM0UXS09ODcrkMl8vFRgGVqxJbrdvtRiwWw+XLl7kdC+kiljc/ahGQzuvr67BYLHwoERZGZKquVqtwu90c1SoWi0wIB8jRnq2tLTx48IDLdhcWFj5huD1KH/o36lhOGCyqorBYLLz5iPWZPLZsNqsAn+v1epTLZaytrfHBdf36dW7uWa+QUUabnIxHsbydKg9Fdu7NzU1ks1mO3litVmSzWc6J37t3D2NjYxzR3M0mpTkiIzIYDPLlEQgEYDAYeO4pmmYwGNjgI2Z20ndsbAyTk5PsUDR60ZDHT3PgdrvR2trK1ZJEudDV1cUGeGdnJ86ePcvRyWw2yy1OgL1jPGqjq6IHTmuc5ra7uxvnzp3j6iFABuTOzs7uirG7XqmlJwG2MYROpxPPPvssR000Gg2Wl5dx5cqVpkQGAGUhQXd3N772ta8BkPdjNpvFG2+8wdizZhknGo0GVquV8SYjIyOoVqt4//338Yc//AFA/VHavQrhB3t6evCXf/mXAOQ9GY1G8fd///cAwLipZuljMpnwpS99CQDw0ksvAZDvPEAmWnxSBvbDRKvVsuH213/912hpaeF99Ld/+7dNNU4kSeJ768UXX0RXVxc/++7du/j1r3/dtHUDqJglVVRRRRVVVFFFlcfKUxtZEqnOifOC8D3nzp3D5z//eS5NDQaD6Onp+QQdvcjHEovF8OGHH+KPf/wj0/uLnAw76SIS8E1MTLAus7OzGB4e5n5LVquVq9TIW6eqKopGxWIx3LhxAx999BF747W6PM56J889EokoqPynpqZw69YtdHR0cGSASvMpnUMkeeQNx2IxTExMYHR0lKM5tc00Hxflon9PJpMYGxvjlFokEsHY2Bjsdjun5qhqitKTW1tbishTLBbD6OgokskkR9zm5uY+kWLaCddFVYZUDeV0OqHT6eDxeDgdJjappfck3iTCuszMzCAajfL7XLlyBZubm7v2yMvlMq+fVCrFUTsRNybyPlGJLr0WkKMAS0tL3Iz0/PnzuHnzJr9vI4R99LkNBgPvJY/Hg0AgwGkbv9/PJKcUWTIajdwTEZD5TcbGxjgSvNfmwiLBnbhvrFYrgsEgvF4vR9yOHDmCZ599lnVLp9MYGxtDJBJ5IpGTWpoFwikBMq3DK6+8wnutWCzi+vXruHv37hOPDtC4UXrV5XLhhRde4Gi2JEmYmJjAxYsXm4bxEOext7cXr732GgB578ViMfzkJz/hs6uZ0QqTyYRXXnmFMY3VahWXL1/GH//4RwDNi3IB8vkcDAbxF3/xFwDAuLIf/vCHAMDj0wyhqm+Kcp07dw4ajQYPHjwAAPz+979vagTQZDIxdOXLX/4yU4IAwD//8z9zFqNZ8lQbS2IeXmR3nZubw+3bt/kgGBkZYaZTseS8XC5zyPmDDz7Ahx9+iAcPHjBAUyx33UkXkVFaBHnG43HcuHGDmWgHBgbQ29uL4eFhBQdOqVTicsubN2/i6tWruHPnjoK4Tfz+OCGdqWEp4VZ0Oh3u3bsHm83G6ceOjg44HA5OLTmdThQKBV50a2trmJ6exoMHDxSA2NrP/7ixAeQc8uzsLI83EUlS2oSeTYYLIF+6Op2OPw8B5yORCHO/EI/HbjiNqOEsrZeVlRXcv3+fy8pJFxGMWygUUC6XkUqleJ5WV1e5hB+QD65GStArlQoDkpeXl5kTjAyhTCaDjo4ONipNJhODZOmwHB8fx927d7mceWJiAuFwuGEOGno2AdtpPWxtbSGXy/G42Gw2plyg9ZzP5xEKhZg76L333sMHH3zAqeq9XHzic6h4QZyz1tZWDA8PMxHrwMAAlxED22dDOBzeV2NJJBUV07s2m40dk6NHj7JegLx+3nvvPS6qeJJCepEzMDAwgC984QtskMfjcbz11ltYWVlpimEijpPD4cCLL76IgYEBAPIZ+v7772N0dLShZsuN6gPIc9bb24tvfOMbbGBvbm7izTff5FRps4TSk6+++irzKlWrVYyOjuLy5csAmmu4abVaBAIBfPe73wUg7/1kMokf/ehHANDwedOo6HQ6RdP7SqXCZ/q7777b1PQkUIexJElSJ4B/BuAHUAXwD9Vq9f+VJOl/B/CfAIQ//tP/Wq1W3/n4Nf8bgP8RQBnA/1ytVv99L0rS4U4HYjabxebmJq5duwZA9sR7enpgNBoVi2tzc5MjN2tra8yr0wizp/gasalvoVBAKpXiS21ychLt7e3o7OxkI4HYbQn7srCwwK01RB3qJRoTibpqqzwIe0ORr5mZGQXYmYwlGsuNjQ0mrnwUCVy9BpxIzkn6iG1cqEM8XcRGoxEGg0HRkmFra4vba9D7PurzP05KpRLPSSwWw/T0tAK8SKShFGEzGo3MIE6fIZfLsTEBoCFDSdQHkNdkJpPB/Pw8Lly4AECudPP5fByhIAbqYrHI+ImVlRVEo1FFy4i96CO2wxGdgXw+r+g83traCrPZDKPRyK8hY5YitHNzc7vGlT1Mdlr/Wq0WhUIB0WhUYeQC2w1Yx8bGcPnyZSSTyX052EUjCZAvOFozNpsNbrdb0WKkXC7zPr9w4QLGxsZ2Bb7frW6kl06ng9VqZbzJ8ePH4ff7eW/duXMHt27dYnLFJylU3UXG/8mTJ/HlL3+Zx219fR2///3vm2JEkj6079va2vD1r38dhw4d4jPm3XffxdWrV5saNQFkw62vrw+vvvqqonDjhz/8ITuuzYy4GY1GHDx4kAtPiJzz7bffBoCmAbtJHzqPATm7FIvFuCCgWUa/KPVElkoA/tdqtXpDkiQ7gOuSJP3+4//7f6rV6v8l/rEkSYcA/AWAwwCCAP4gSdJgtVptjguhiiqqqKKKKqqoso+yo7FUrVbXAKx9/HNKkqQxAO2Peck3AfykWq3mAcxJkjQN4FkAV/aqrBjdyWaznDpYX1/n6oFmSW2kidIs6XQaKysrGB0dfWRVz5PQQ/yZUoWkz/r6+iPTWPtdKVT7fmLPKNJHlCc5RhQJoRL0euVR7NZ7ETEamE6nFeNAEZqHPX+n99sPfUqlkqJ9yPz8/Cd0eJhOtXtgP0TkWSKaANJtc3MTd+7c4fQu6SWmNKkqs15ah51E/IySJCmiyltbW4jFYky5sbW1hdHRUd57MzMzmJ6ebko0h/CalPqKx+O4efMmU5OcP38ed+/efWLcQaJQZIn4ybxeLxKJBKdtL1y4gCtXrjwxNuqHCUW3g8EgBgYGkMlkGP/3xhtvND3FRDq1tbXB4/FwZPSnP/0pLl261NQoDgmlvwkacv/+ffzoRz/iLEWzqifpWfl8nvfW7373O0xPTzOurFm4O1GkXZY/9wC4BOAIgP8FwH8PIAngGuToU0ySpL8F8GG1Wv3xx6/5AYDfVKvVN2re6z8D+M8f/3pyT59CFVVU+W9SatNk9aay9/OZtT0VSejAbwYuh9LdZES63W7GLQIyfor6fjULP0Wppfb2dhw5coRTYQ8ePMD09PQT7ysmCj3b5/Ph5ZdfRldXFyYnJwHImDuR761Zotfr0d7ejldffZXn7fz585ienm6KUVsrOp0OXq+XecISiQSuXbv2CVxts6Q2fZpOp1mXfZ6r69Vq9dSO+uyCyM4G4CKA/7Narb4pSZIfQAQyjun/ABCoVqv/Q73GUs17N3cWVFFFFVX2WR4XfWuWiIS1tU2Wn1Q3+EeJaEyKRiRhLZs9NsC2UanVahUEtZ+GLsC2YSkSnn5auog6kXzaujRJ6jKW6qqGkyRJD+DnAP6/arX6JgBUq9UN4f+/D+DXH/+6AqBTeHnHx/+miiqqqPIfVp6Gi0WM1DQ7UlIrtanep0HERthPg4jFFU+LPA3r+GmUHUkpJdnM/AGAsWq1+n8L/x4Q/uxbAO59/POvAPyFJElGSZIOABgAMLp/KquiiiqqqKKKKqo0T+qJLL0A4C8B3JUk6dbH//ZfAfx3kiQdh5yGmwfwXwCgWq3elyTpXwE8gFxJ9z+plXCqqKKKKqqoospnVXYF8H5iSqiYJVVUUUUVVVRRpfmyf5ilp1VEojgqVxVFZOhuFnCOgJUiqJEYm8Vu5YVCoSk6EYCQwJ5ExiiOVaFQQD6fbwrgUWT2JYZmIqszGAzQ6XQolUpMC5HP53msnpQ+9J3AnzQ2er1e0RIln8+zPkBzSmlr22vUgi8bIVhVRRVVVFFld6I20lVFFVVUUUUVVVR5jHymIktiKarNZkNnp1x0d+TIEbS0tECn0zHZXyaTwcrKCrceiEQi2NraUkRz9qsdgkaj4Z5MPp8Px44dQ0dHB7cY0el0KBQKipYoMzMzSCQSHEEplUr7FqkQm496PB4cOnSI+zL19PTA6XTys+LxOCYmJjA+Ps6tNWKxGDKZDFdp7HWcKKpFDVsHBwcBAIcOHUJ/fz/zwVDrk4WFBUxNTQGQm7TOz89zf7ZcLrcv40QcHtRipLu7G8PDwwp9HA4HNBoNz9vCwgIWFhZw//59ADJ3TW0Lnb2I2HPMarXCbrdzTz+/34/W1laOwlHbDyKzW11dxebmJrLZLI/Pfq5vkfCQIoLUckSn00GSJF4vxWKRo3Bi25r9in49jjCTom+1UWYqna/9uRkiRgQfRi/waZWLP0qnZnBVPUqeBvqFp11ETrFPW2htf5oRbtEuMBqNrEOhUNjXSsPPjLEkElR5PB6cOnUKr7zyCgDghRdeYGOFymVjsRgmJyeZwfbGjRuYm5tDKpXal15f4gRZrVb09vYCAF566SX8yZ/8CTo6OpjBVqPRIJ/Pc7+fq1ev4vbt2xgbG8Py8jIA2bijZq6NCl1sRqORL9mzZ8/i5ZdfxvHjxwHIvb50Op2iievdu3fR3t7ODLu3b9/mXnoAGmZDJn3ogvd4PDhz5gxefvllAMCZM2cQCAQUqa5isYhwOIz5+XkAwN27d3H9+nXcvn0bgMziTEbvbnURvxsMBng8Hjz33HMAgJdffhlnzpxBW1sb66PRaJgtHpAbF8/MzHCTy0uXLmF+fh6pVKqheRN10ul03K1+eHgYJ06cwIkTJ9iwtNvtbJwAckowk8mwM3D9+nVcuXIFY2NjbFgWi8WG540MI2rK3NXVhZ6eHgCywd3W1sZ9yADZiBUbEC8sLGBmZobnMR6PNzRvpA+w7QSYTCbe7xaLhZs2k5jNZni9XjbSi8UikskkdymPRqNIpVLMDL6XtSQakRqNRsFtRMzm1DCVdCOeH2CbcVxMO+9ljMTvjzKC6N/J4KV1pdfruTcgMUjvxxlZ+7OojyharZb3nlarhSRJKBaL+25w19uUm+aSYB4ie/t+GwW70Yl4mUiXJ234P8w5EdeQXq/nOXqSkImH6aTRaBT9Pn0+H++1hYUFJBKJfdPnM2Es0aXrcrkAyMbR1772NTzzzDMAZAOAJpAsSZfLhUAggCNHjgAAent7cf78edy6dYtZQPdCt0+TZTQaEQwGcebMGQCysXTo0CFuhgrIi5k6OgPAK6+8gkAgALPZzIcS4Zga8RrEA1Kv18PpdPIle/jwYZw8eRItLS0A8ImNptfrMTg4CK/Xy9GoUCiEeDzOB3ij40OXCXX3bm9vR29vL06cOAFAjsJJksTGK204q9XKkbBKpYLFxUU2uPYiYsSBIpMHDx4EIBtuwWBQQVaXz+cV5H5OpxNdXV0cMdyLTrVNUMWI2+c+9zl86UtfQjAY5DmhaAhtfJ1OB7vdzkZDKBTC+Pg49Ho9X8SNtHihOaMmqH19fXj++efx7LPPsn4OhwMGg4HHhVra0PPC4TCuX78OjUajaPwrNpStZ33XRomsViva2towODiIrq4uAHLEzWKx8IFJe81gMLAxlM/nEYlEsLq6CgAYHx/H8vKyohn2Tgdq7fgAcsNjl8vFY+X1euF0OnnOaJ9VKhWeJwCKht/xeByzs7Mc1aWx3Gl8HsYirtfr+TlkBNHver1eMV+AbGhSlJ7GLhQKYXV1VXER1ztX4s/iJWYwGBTYRMJMkhFCOhmNRgW2MpPJIBQKcbagkYgXrSHR8KELXsQmGgwGBRN7pVJhfUulEorFIuLxOFKp1K7G5VH6kC4iSSbpotfreQ0ZjUZu8k2/Z7NZJBJrOLAGAAAgAElEQVQJdr4bdYpq9XoY1lan0/E4mM1m2O12uN1uPtNNJhM2NzfZKVpbW9vXDAnNG42RuKacTif6+vr4XAoEAnA4HNzGJpVKIZlM7osuwGfEWALkwenv7wcAfOUrX8EXv/hFxWVFC5ou+HK5DKvVyoeF2+1mg4SiFHvxdGnxWq1WDA8P49VXXwUgd/u22+38LEDuh7a1tcULzOPx4Nlnn0UqlWJvN5lM7gv9P128ZGycPn2aDSV6TjKZ5HEym82wWCxob2/nRTc9PY3Z2VmFl9yoiMZSV1cXBgYGWJ98Po+NjQ2EQiEAcqrU4XAgEAjw37S0tMDhcCiiT3sxcMWLt7u7m6Mldrsd6XQaGxsbvPFDoRCsViuvu66uLsWBTZ7mfhjcfr+fo3/PP/882traUKlU+IKnlBsdqoFAAD6fjw2CXC7H5H+7jXKJF51Go4HFYuFxOXv2LL7yla+gv7+fn51MJhGJRBCLxXgc3G43pzQp3SpefmJEo15dattm/P/svddz3Pd1PvxswfaGbVj0SoIASABiL6IkiiqWLcWy4vFvosSelMlFLvI3vDO5yIVzYSeTTCbROLHfxHKScZNlyRQpFokUSQGsANHLEmWBBRbbsb29F9/fOfx+1xSFLaTpvHtmPBJlAnv2U8/nOc95TkdHB/bv349nnnkGQ0NDAIQLf3t7m/tXBYNBKBQKmEwmTtMrFApsbm7y3vJ6vVhfX9/R+i5GasTBRVNTE/bs2cOBW2dnJxwOB1/um5ubiEQiKBQKMBqNAIRAU6fT8f6bm5tDJBJhVI4CiIetqeKCFjHartPpYLfb0d7eDkAIIhsbG7mDPCFYyWRScnaJg7tQKISJiQk+i4rn44vGR3zpA8L8azQaDiIbGhrQ0NAAl8sFQHjckhgjPRapVQuNEyD01rty5Qrvx52ua7r0xb+XvqPBYIDNZkNjYyOampoACPOoUqn4u6ZSKajVakkw5fP58PHHH/PdkUgkdrzviwNturc0Gg1MJhNsNhtaWloACA/K9vZ2HgelUolCocDon0qlwvb2Nq5fv473338fAMrua1f8YNNqtTCbzUxDaGlpQUtLC2dNnE4nDAYDDAYD36sKhQKLi4t49913AQhneDVSX7SeaO/b7XZ0dHTwXmttbUVnZyfa29vR3Cy0qtXr9ZDJZLh+/ToA4Pz581VFAGsE75rVrGY1q1nNalazR9jvBbIkl8thMplw6NAhAMCzzz4Lk8nEyE0oFGKCK70wCRGgV6Ber8fQ0BBWVlawuLjIP/dFr7id+AQIiER/fz+jAhaLBdlsFj6fj31ZXFxELpdjhKKxsRFmsxl79uxhsrCYj1Kqkf+EnLhcLn55UyROvty7dw/Ly8s8dq2trRgaGoLBYOA0ocViQV1dXUUoFyEJMpmMX1IulwudnZ3cMXp+fh5jY2OMniQSCTQ0NOD48eOMLJHUAb2AKvWJTKlUwmQy8Qtua2sLExMTGB8f57GKxWKw2+08VlarFZlMRkJ8rxbvrb6+npEQk8mEQCCA6elp3LhxAwDg8Xiwvb3NqeihoSEcO3aMU1/EeymncasY9ZHJZNBoNOjs7AQAHDhwAK2trchms9x4dGRkBEtLS5ySMBgMGBgYwMGDglRJPp9HMplEIpFgGJy4OKWOlRiZ7Ovrw6lTpzA4OMhIwfr6Oq5du8Z8u1gsBq1WK0n3Eq+J1s729jYjcfT9H2YP4/0oFApeM4ODg3jxxRexb98+Hge/34/bt28DEOYsGo1yahwQ0Cer1crjsra2hnQ6vSMeZTHKpVQq+dxwOBw4cOAAN0EdGBiAxWJh5Ob+/fuYmppCNpvl13pvby+6urokY7m5uSnpVfZl80VpLbEvhA7TeTc8PIx9+/YxyqVQKBCLxeD1ehmF0+v1aGpqYnSyUCjg1q1b8Hg8kvPhy6y4obDRaITVauXPbmlpwcDAAIaHhxmR0Gg0yGaz7Es6nYZGo2EOYV1dHfPc6O4ohVtGd4VCoYBWq+XvaLPZ0N3djf7+fuZOtre3w2Aw8LhT+pq+j9lsRqFQgEqlwpUrVwCAC1BKMTFSCoD96u3t5fV8/PhxdHd38zjI5XI+W+hMp9Q4+bJT7tVOfJPL5bym6J6icerq6uKsCN3xdE/Qnyuh2TzMnupgiRaZRqPB4OAg/uAP/gCAEGzI5XI+rO/cuYPx8XGsra0xH0mv12N2dhbPPvssAGDPnj3o7OzE8PAwX0Dr6+sl8TrIxAFAT08Pnn/+eUmqa2trC6Ojo5iamuLPoVQAALz44ovMqSLYXKPRlL3QxIeoSqVCe3s7L3i1Wg2fz4erV68CEAjTXq+X/U+lUuju7pZwwiwWC28ioHIyI0G2er0e8XgcY2NjAARS8tzcHG92tVoNrVYr2cRqtboqjSaL00Cke0UQ//T0NGZnZ7G4uMgXmVqths1m4w2rUCiQy+Ukqa9qBG908dHvcrvdWFlZwe3btzn/HolEoNVqJXyYTCbDqTC/349QKFQyL6jYZDIZ1Go1rwW73Y5EIoHFxUVcuHABgDBvW1tbPK8Ej4srO30+H4LBoOQCKodILZfLOdBobW1FT08PdDod76Xz58/j2rVrXChBndwbGxv582QyGYLBIEKhEAAhbbGTYKnYFxobumT7+/slfMBoNIrx8XFcu3YNgJBiy+fzaGpq4n1uNBo5qAKEAz0QCHBQ80Xru5h3Q+kcmqe9e/fi8OHDHCxZrVakUikONEZHRzE3N4dsNsvpsD179khSKltbW8jn85KA+8sCN+KRUHoLEC6yjo4OPoMOHjwIu93Ov8vv92NxcRHz8/P8cGpubkZHRwcHcjKZDFarFVqtVrL3v8yooIQCWqfTia6uLk659fX14cCBA8xPBITg2ePxwO12AxDWamdnJ6ej9Ho9stks6uvr+dwshZAtrgbWarXMeWxvb8fAwABOnjzJtIm6ujrEYjGeN7fbjVwuh4GBAQBCSlMmk0Gv11dM2RCfsxSYNDY28mcNDAxAq9Xyebe+vo7V1VWYzWbmApvNZi4MAFC16jMqjiDT6XQwGo08/ltbW/D7/TAYDOjt7QUAfuzTPFIKvFr21AZL9MIFBHTk2Wef5UFRKpVIJBK4efMmAODcuXOYn5/H8vIyH86EHFDeub29HWazGYcOHcKnn34KAJiZmUEymSyZTK1QKPhgoIolWnRerxcXLlzAtWvXMDMzA0BAsFQqFSMWra2taGtrg8Fg4HwwRcOVTK5CoYDFYkFXVxf/vmAwiCtXrmB0dBSAcIDHYjE+lIjzAUCS1weqU2WhUqn4JQUIY04VXIuLi1heXuYNZrfboVKpYDAYeDxp09BmrNQn8SsvmUzySzEajWJjYwORSITXjMvlQnt7O6MsCoUC4XCYA/Lt7e2qkCvlcjmy2SzLAAQCAXg8HklFok6nQ1tbG7/W29vbkcvl4PEIPao3Nzfh9/vLrqYSm7jCy+/3w+/34+bNm4zeBAIByOVyPvTb2trQ3t7O47C8vIzl5WVGw4DyqqoKhYIkiKdCjq2tLeYljI+PS5BSCnDb29t53dFlSCTqcDgsCSq/yIqRJXqM0HogRJYuk7GxMVy9epXR4kgkwuRmqk4ln4icu7W1hWg0Kqn4epQ/wINKMUIkASHwOXjwIAcJ8Xgck5OTOHPmDABgYmICGxsbUCqVjNRR8Ee/NxgMwu/3S2RDduILEaQpqHW5XBgYGMDg4CB/53g8zpfYpUuXMDc3B6/Xy2fOwMAA9u7dy+NUKBQQCoXg8/l47+9kviiQFFe9EicTEIIli8WCeDyOlZUVAEJV6+zsLK8PrVaLkydP8n1DHFSqxAXKO4fy+byEy6rT6eB0OmE2m3kNTU1N4fLly/xIWltbQ0NDA++Bvr4+FAoFydlQ7qNIXOhDUh/ZbJbnJB6P4969exz8T01NIRwOY3BwkPmtMpkMm5ubDAxUo3kz8ULFD9OVlRWYzWaeMyLcNzY2clVuc3MzwuEwVyvT2VMtq3GWalazmtWsZjWrWc0eYU8tsiR+UQ4MDODQoUOMhuTzeSwtLeGjjz4CIOgWra+v80sfeAC9U8rt6NGj2L9/PxwOB78ydDodp/K+zMQvKZVKxcjS0NAQ9Ho9R7GfffYZzp8/j7GxMU6RZDIZRsMA4eWdy+VgNps5l16uFWtetLS0oKmpiVMiY2NjGBkZ4dRXIBBgTgkgvNbT6bQkP6xUKktG3B7mF0Hi9HtjsRhXUpEvmUxGUoptMBh4ngFhrmOxWNmaOMU+iWHnTCbD40AVVKS/BAjphH379vHrPZlMYnl5mRGgaDRa8RjRP3O5HPtCSIRGo+G1arfb0dXVxaiGSqWC2+3mF+jCwgJCoVBFek/Ag7SBuKKL0ge05ilF0t3dDUDgvlitVka5JicnMT09jbW1tR2jAg/zh/gwhJbkcjlsb28jGo1ymoI4SuI5GxoaQnd3N3/m/Pw8ZmZmWOiUqk5L8Yl8MZvNXLlEvElCjK9evYrJyUlO9ykUClitVrS0tPC8UQqOULrFxUVsb2+XpN9D+8pgMDDS2NfXB6PRyGtocnIS77//Pqffw+EwZDIZ6uvrJRVGOp2OEYr5+Xm43W4kEokv9Uec6i0UClyFCwhpfEKJ6bPHxsZw9uxZAMD169cRiUQgl8t5TfX39zO3jH5mcnISbrebkZidjE0+n2dRVEBAF1KplKQ6LhKJ4M6dOzh37hwAgYMXjUZ53ZH2m7jiKxAIYGZmpmQ0R4zeAJDw+PL5PNRqNZLJJCYnJwEAH3zwAT7//HO+l2jd0Zqrq6tDKBTCwsJCRdIuxcK1hUKBpWsIVRwbG8OZM2cwMjICQDjv1Go1Dh48yGhOPp/HZ599xqhhNdNexVzKcDjM6XcaH3GKVS6XY3Z2FpcuXQJQmnTKTuypDZbq6up4EHp7e9Hb28sLPhAI4MMPP8Tnn38OQAg+ipWUZTIZkskkQ+Kffvopdu3aBYvFwqRnght3YuISS7EOEMGRxJn47LPPMDY2Br/fL9nk+XyeF3cwGEQ8HofFYuHDoRyCd7GGiFarRUdHB1paWvjAnpiYwNTUFAduqVRKUjJNQUJdXZ1E76gSHREygvwp9UCBD/lCm4EOJbvdjubmZkn6NB6PIxQKlXXpFvsllg7Q6XSS0lQKUAqFAue+d+3ahaamJi7PDgaD8Hg8PNeVcpbEGiLi8uaWlhYuvaff73A4JOnM+fl5TE1NcbC0srKC7e3tsv0RPwZIjBMQ1kJ9fT06Ozt5P8bjcTQ1NfE4KRQKzM3NcVp8bGwMi4uLCAaDFcHyRBqm8U+lUqy7Qxdxe3s7nE4nPzq6urr4rKAL6ObNmxgfH+eDdicpuOJxobXc3t7OqSIA2NjY4MvE4/FINJXq6+uxZ88eDA4OMv8ll8thZmaGyfIUUO5k3sRnm0ajQVNTE0s8NDc3I5vNcor70qVLuHfvHl/MJKXS1tbGfJO2tjYoFApez5OTk/B6vTu6ZMgXkqvI5/O/pR9EF5rb7ca5c+eYChAIBJDL5aDT6Xgs+/v7mY8DCIT0e/fulSQqSIGJ+BEUi8Ukj5pwOIy5uTlcuHBB4g8APgu6u7tx+PBhpiOkUimMjo5iYWGBx6aUYImMfBOnOOPxOJaXl/HZZ58BENLK4ge81WrF6dOnmfMGCON5+/Zt/o6VBCjiYIlSc8SnW11dxfz8PH8OBUp/9md/xmvc5/Ph8uXLvM4ep4I3pQoBMFfp7bff5r2fTCbx85//nP2vtj3VwRIFNX19fdBqtbxQ3W437ty5I6laEjfNBR5MGl3MRCZUKpX8yrNarRJxukeZWCzNYDDw4rVYLMhkMpifnwcAbmOSTqclh45YNXt7e5srHOiCJJG2UkyM3gACV4AIpzQ2oVAIsViMfclms6zdAYD1ccQCccUbuhR/xAcmVVVRlZfVakU+n+dLP51OQ6/XM3LjdDrR2toKnU4n4VEEAoGKiINiTRpCKerr62GxWPgSs1gsLNJHr93GxkaulAGEdRYIBJizVG4gUFyJQiJ0FDA7nU50dHRwQAc8aIVCnx0MBiV6OOUGbg8T7QMgWS9UjEBrldYcraH19XUsLS1JOFflaoaJx4W0X2h9J5NJRKNR6HQ6HDhwgH0hxAQQguBsNouFhQXmDBI/ptSAmxAT+r2NjY0cQAPC4e31ehn1tNlsMBgMPIYOhwNdXV0YGBhgnpDX68Xt27clvKadrCOxvpdMJoPZbEZXVxefkSqVCpFIhM+hUCgEtVrNCABVye7du5eriokrc+vWLQDg4KqUh1Iul+OASdzuJhqN8njPzMxgc3OT97TRaIRSqYTNZmNe0+HDh2E0Gnk9j4yMYGJiomSEmwImGlNaM3QP3L9/H0tLS1hbW5P4o1KpeCyff/55ia7Y6uoqPv/8c0blSzWx/4R8AcLcr6+vS7TmKKNCgdqxY8fw1ltv8bkVi8Xw0UcfYWFhgb8jfY9KAxV6zFLA7fP5JAUNTU1N+Pa3vy1BbW/evIlbt25V3RcyMbIEgNHLtrY2fOMb38Du3bt5vy0sLODq1av86K+21ThLNatZzWpWs5rVrGaPsKcWWaIqBkBILxHHBBB4FJubm18aQVIeFgCrVhcKBYZbSfFzJyaWMXC5XOjv7wcgvEoymQxXUlDu+2GVNGKFWEp10XcSl+rv1CitROO0b98+HD58GHa7nV9S9P9TCjCfz0sQFqvVyogBjVUlXBxxFYrNZsPw8DCjAATzir+zUqlkKL65uRkul0uCWgQCAYbty/WF0AqNRsNIUlNTE6xWK7/gNBoNazqJU6JiZeJCoYBEIlER/C32idYUVRPR70un00ilUhJVYQCSliJU9SMu2a0Gf6q4JQalbYkjAzyoxqJ0QTQaZe0i+nO5qVxxqlSj0UhamdD3NJlMPI8Gg0GCyqbTaQSDQayvrzO66vF4EI/HS06hiMfDbDajv78fe/bs4fQjobRiVWExWqzX65m/Q4jE7OwsZmdnOfVD87cTE/NM1Go1zGYzn2WZTIb5W4CQjhRrhFHT6MHBQQka5fF4JGgUVXfuFCEgJW76fEA4a6nyDhDWi7hNEClk2+12vPjiiwCE1LNCoZA0G6fzWrxndjJ3Yp4Q6SfR+UxnbnNzM6MU6XQaJpMJfX19AICvfvWrMJvNjJRNTk5ieXlZkmosV5+PfACEStPNzU1WxQaELAqlvgHg9ddfR0dHB6/DpaUlTE5O8tqj31eNKrR0Og2fz8fjIpfLOVULCGtq//79UKlUnOq6cOECYrGYBA2uZg892rOJRAJKpZL3fX9/P9rb2yWyBb/+9a85pUz+i32ouDtGRT/9GI165AAPeBT0ZROJxG/pyRRPSnGqgxqRilNdpSwwSgWYzWaWWiffqOSSTNyOgP4slrmnPjfUYBcAHzSlGOmbkG7K4OAgHA6HpD9YcSqjUChAq9Xyz1gsFr5saDzEpcylWLEY3KFDh/DSSy/xZ0WjUXi9XuZTZTIZ2Gw2SdpLr9dDqVTyeNJFXM5CFwcjlJIgUrK4HBd4wG0gcjvwQIBQnH4qnutSjYIksYifRqORELyprFychqMmsmJ+l06nq/ggEJdb0+cQHA+Am6qKy3jlcjnS6TT/HSLQii+ocmB52q+0VnU6HcxmM49BNptljRkKEmjt0pwkk0mkUilEo1EOSEhTSZzG2ukhLhaftdlsqK+vl+g31dfXc/BEjzqyfD7PPdooRTkzM4OlpSVJW6ZSxymfz3Oan+YgGAxKJAqsVqtkHrLZLBPCKQ2eSqUwPj7O6cqdpgQf5k8ymeSAhII42tf0Z7EOl1qtxq5duySCnqlUigU9p6enmV5BVsrFS3OUTCYRCAS45JxSmE1NTZK0rN1ux6uvvgrggY4fpcY+//xzrK6uVoUwLH7A+/1+bG1toVCQtjORy+VM3B8aGoJKpeJ5vnjxIubn56tOXqagNxAI8DzS2UfrhYRFC4UCF07duHFDQjQXnwPVMPGjLZPJ8Jnd1dUFk8kEmUzGacNz585JHvrVTgk+tcGS2AiNEB+IwIOBLCZ20z/pNQUIpD2TyYRCocBVO4S+7MTowrRarbBarYzMFAoFxGIxDgBisRiLuok1fcRVVjabDWazGfl8ni/GaDQqebk8aoLp71B3ddpYe/bsgUqlQiaTkfBHxNU2pIhMvpjNZr4gadGXwzch0im9iFpbWzE4OIiWlha+/DY3NxGNRnnjU5WguCkjNbGkw2Anmi9f5A/NmVarhcViQXd3N19sNpuNtZaAB0GBOGg0mUxobm7+rUCiEkSJAiWlUsmPgWKeUCgU4j5e9FnUr420XxwOh4QAXq4VI6B0aNKYp9NpxONxbG1tSQoWxM0+CUGh7yN+vJQ6VuLAjYJ+8SuVSLLi5qpi9I+qhwqFAq9nEsQsxycx2hePx+H3+yXr4WGCqWI0ymg0QiaTMcq1tLTEVaDin9kpYkI/E4vFsLW1haWlJQDgnm80J8XnCFVWNjQ0sP8rKyv49NNPuTKPguKd+iP2S0yq3t7eljQw1ev1yGQyvH7y+TysViv27t3LnCpA4JZRhbPb7Wbie6lrvHj9iXuGEvKfyWQkzcT7+vqYLK9SqRCPx1mj6rPPPkMgEJAIq5Z7AYt9SyaT8Hq9Er4tNbGmAiKr1YpCocDFCmfOnMHKygoSicRvraFKLZfLIRqN8v1oNBphNptZP2v37t1QqVQIBoP42c9+BkBAAMV6RlTMVG3OEiA8jAiBIz5pIpFgX6anpyXczf/fBEt0aQLg4IO+NB2OxeSv4tSGTqdjJGFwcBB6vR7JZJLLHHeK5tBrFhDIt/X19ZKIV9zdmC4ZcSdpahBJ5Z8dHR0wGAySYKmUMlD6jhQAENmcXmeRSIS/YygUQj6f54Ckrq4ODoeDgyVC2wqFAi96CtxKMaVSKQncOjo60NzcjFwux5Dt9PQ0NjY2JNUVGo2GA0+tVsuHI/2daDTK1Tal+kOBm8vlQmNjI1paWvizksmkhCBNqIVSqeRDSKVSSdYZBXrlXLriNC59bzqEHA4HtFotrx2/349EIiFZE3a7Hd3d3fwzVOIrFusstzyfgjfgQWBJLzhSgF9dXeUUCaWeqKVOY2MjZmdnec4I9S3nkBJD+PT9xBdUPB7H0tISf+9IJAKn08kpFLvdzigY+UsNs8uZN7rgNzY2cO/ePaTTaa6+sVqtEoVmWqdUIdvU1AS9Xo9QKMQv8bGxMS4AKdUXskwmg62tLdy8eZMlFOhSKw6WCLE4dOgQWlpaoNfreT/+8pe/xMWLF/lhVW4qt1AoIJVKSVKLy8vL/FDV6XTI5/M8Ti6XC/v370dbWxuvu5WVFbzzzju4ePEiAEGss5JUDq2ZdDqNSCTCoolut5u7JdAjrr+/n9vD0DhcvHgRP/rRjwAIYoz0cKlG5RmdL8FgELFYDEtLS5Lz4bnnnuNWPXV1ddjc3MQ///M/AxAI1YS0V7tMP51OIxAI8LlDVIrTp08DEM70XC6HDz74gIPaUqoVy/FJfBaI08xNTU2Qy+W4e/cu/uu//guAMJ4PK/KqltUI3jWrWc1qVrOa1axmj7CnFlkS8xDohUmvpfr6ejQ3N3OrCnHagNAclUqF5uZmJhcPDw9DqVRieXmZ8+JUJrsTX+iFRo37ihuYUgrCZDIhFotJOFUKhQIGg4F5TgcPHoTBYEAwGGS+QDQa3XGulz7LZrPB6XQyJ6iurg7hcBhbW1v8OqD2D+KXrEql4ldVU1MTpwQJjVpdXUUqldoxzwQQXkRi8b2uri5YLBYEAgF+uW5sbCCdTvPrQK1WSxA4SqEAD0rkCWUpVbTPaDSyZEFHRwecTieMRuNvlRTTuIj9oH8aDAZOawJCGjEYDJbcekWcHqHUjNlslqRCxUKc0WiUJR/o5xoaGtDc3MwwdCgUQjgclqQ0y0G6CFWiOTGbzWhsbGQipUwmw+rqKtbW1hipMZvNcDgc/HdUKhXy+bwEWSj35Ut8HBoHrVbLiFUikYDX68XS0hLzSVKpFJfnA+DmsYFAgBGUcvrSAdKXbTQaxczMDNbX1zl1ZLVaJQ2nU6kUrFarRFZErVZjbW2NNX1WV1crFnwlfpvX6+U5obYqhNRQoQIVovT09HCT708++QQA8LOf/QwrKysV818odUtnTiKRQCAQ+K10JSFNHR0dOHbsGDQaDSPy77zzDn75y18yNaJStILGl1BGMRJJ5wwhzz09PRgcHOQ9MTk5ie9+97ss5FtNfpB4TSWTSU79izmxb775JstTpNNp/Nu//Rs++OAD9v9xaBmRX9SSBRDuuj179uBb3/oWAOGMn5ubw9///d9zRuRxoUpk9PszmQycTideeeUVAEKKMBqN4oc//CHHAY/bl6c2WIrFYiy4t3v3bgwODkr4R0ePHuWLYmJiAvF4HLlcjhddQ0MDTpw4gTfffBOAAP2m02l89tlnuHPnDgCUdGjRAiJ9G9rkJpMJJpOJiYp0SIRCIf4Zo9GIPXv24MiRIwCAzs5ObuJKeiulVKCJO0VTRRkgBBhEjKegJR6Pw+v1cuVSNpuF1WrlQKKzsxN6vR4+nw/37t0DIFQP7VSrgoIlvV6PlpYWTjU2NjbyASoWW9Tr9XxYEEmV5sxoNDJpmRrcut3uHQe1ZKRVQinBnp4eOBwOSY+5TCbD6rmAcLnkcjmo1WoOPukyJD7a/fv3sbGxUbJej/iiaG9v50occX8+4sQAwoFIBzSl3Xp7e9Ha2spzvbW1hdXVVYka8E5NXPhApHExcbKrq4vTtolEAh6PB/fv32eCt9FoxO7du5nAG4lEJMFUKaKPxSa+TCgooLUYDoeRy+Xg9Xo5AFcqlejo6OA502q18Pl8ErXlSg7R4hRgKpXi30sNqcV8SaogAsDq2BcuXMDdu3cBVK8TOqWr6YyhqkVaH9Qbk1KGe/bsgUKhwMLCAv7jP/4DgKAeXs1AQDzOpL8EPOipRxzOMNAAACAASURBVPv8+eefR0tLC3K5HD788EMAwI9//GMEAoGqBwLioEnsp0Kh4LPq7bffljQ3/u53v4s7d+5UnURd7JP4u1KgdurUKZw6dYrP1ZGREfzgBz94IqKPlGakz7Zarfirv/orLhqIx+P43ve+h5mZmccemIh9AoRA7fTp05KedCMjIzhz5sxj01Uqtqc2WEokEvx69Hg8iMVi/KJzuVx46aWX+GBwOBxMwBN3KH/ttdeYEEsqwxcvXmSy5U7RE/q7wAMkiSaIFIYpx5zJZKDX6yXl7g0NDdi3bx8HS1qtFhsbG/jVr36F8fFx/v1igvejrFi8khYuIQRUgQMIQczMzAy/2HK5HNra2nDs2DEAAjoVj8dx584dVmCm3G+pyJJer2dOkNls5pc1oUVNTU2IxWI8ryT/QK8os9nMBHxq3lhOs2PiK9Em7+npQXNzs6QShXgWFCzRv6tUKg4kdTodkskkvzDv3LkDn89XcrWHUqnkcXG5XGhra0NbWxuvVVI7pmADAJeGE9HzxIkTMBqNfGjeunWLy6vp++zUqPiBPsdgMPBYuVwutLS08O+j6j+ZTMbzdODAAfT39/P+83q9LMYKVKeZJvBgXYsDAqoAI/+amppw8uRJSUuaq1evStpkVMOIuCqTyfj3Fgt5GgwGDAwM8IEul8vhdrtx8eJFRt2qfcmI51180ZHI4htvvAFAQLkSiQR++tOfMsr1pC4ZuVwOvV7P3Jevfe1rUCqVmJ2dxT/+4z8CEFDnxxkIkNFDweFw4C/+4i8ACEr9uVwO//3f/w0AOHv27BMbG+JJkqr6X//1X0On0/F6+bu/+zusra09kbEBhLki9Pqtt97iOwsQqgLfe++9Jzo29KB89tln8fWvf50D7mAwiH/913+VnJmP22qcpZrVrGY1q1nNalazR9hTiyyl02mGRS9fvoy2tjbOnZK2ycsvvwxAEPKSyWRIJBL8WjcYDKw5BAgvl5///Oe4du0apxNKKdmlF73b7ZY0gGxpaYHT6WTU69ChQ3A6nZIKrpaWFkkDS5/Ph48//hgfffQRf8dSSlLp5b6xsQG1Ws2vSZPJBIfDAZVKxf6oVCqYzWZJU9/u7m72Px6PY35+HmfPnuX0ZCKR2PFLRoxARCIR/j4mkwlmsxlarZb5MBaLBfF4nFNAMpkM8XicuTvEIzp37hw+/fRTAAL6VCpSIea9AA96jBFHChDSbmKdq3g8zm1oxK+Xzc1NfPzxxwCEdhDlpFHE5c8ajQYOhwOdnZ2MhhAKSD4TcmmxWHhsqFkzpXOuXr2KjY2NilquAML6EKdrXC4XOjs7JalTl8uFUCiEPXv2ABDWuM1m49TuyMgIxsfHeV9VYsWtVwiVAB4IUIrb4Zw4cQKHDx+WtKa4desWV4FW24pTJ2K5jD179uCtt97iP8fjcXz44YeYmpp6bCkdsuLWR83NzXjttde4tQkgVOL94he/kJR6P04Tt4gaGhpiJMdqtSIcDuNf/uVfuCT+SaV1CK14/fXXmaKhUCgwPj6Od955BwAksgeP2xQKBex2O/7yL/8SgMDnymQy+OEPfwhAkC2opm7Ro4zSpVRZ+ud//ufQaDTMT/rbv/1bpiQ8CVMoFMz/++Y3vwmr1cr76OzZs/jkk0+e2NgAT3GwJOaXrK6u4t///d/5wv/mN7+J1tZWDozMZjPq6uokmjFEeCWBrU8++QRnz57F1tZWyVoZhUKB0zX5fB7z8/N8UQQCAbzyyivo6uoCIKTY9uzZIxHAVCgUiMVirF9x7do1fPjhh1haWipLQ0gsapbNZtmXjY0NrKysYHh4mBcZBXZ0GRIMTb7MzMzg2rVrOH/+PKdRytGhiUaj3NUdEPglbrcbDQ0NzOEgQjCNP/GTiH8yNjYGt9uN69evs6pwOZdMNpuFz+djDRqTyYRsNisJWM1ms0QhmwIsn8/HfKm1tTVMTk7i+vXrAITxLudQJ/0SQFgvoVAI8XicU1/FgqmU6ikUCvxzXq8XN2/exOXLlwEAo6OjZXcdLy7JJXVzAJySo/VSV1eHgwcPolB4oHxPhQRXrlwBIBxcpBdTqYmDJZLcoMCf5CgsFgunNTs6OmA0GjkAuHjxIsbGxkpSxv4yf4p9o0DSZDKho6OD+5u98MILfNEAgm7QlStXKlLE36l/VERAgdoLL7yAt956i7lyfr8fP/7xj+F2u5/IBSNO9TqdTnz961/n9CR1qn///ferEmDv1B9AWFN9fX34zne+w2soEongnXfeeWJEYbFPer0er776Kl577TUAwl0xNTWFH//4xwBKk5Sp1ORyOZxOJ/7kT/4EwAOpgJ/+9KcAgLt37z6x4EQul8NsNuPEiRMAgP3790Mul7NUxo9+9CNJw+EnYU9tsEQcAUBYMGtrayw+tby8jOeee44r3SwWCzQajeQSCIfD8Pl83M35o48+wuzsbFlaIlTtATyQy6fDmYKC4eFhAMAzzzwDl8sFi8XCvsRiMSwuLjJyc/nyZUxOTpZdFUO/NxKJIJFIMJqzsLCA6elp3L59m7lapM1Dl18qlYLH4+EX3b179zAzM1N2IED+JxIJzM/PMx9Mp9Mx70bciNFqtfLBpVAoEA6HeQNQtVEoFOLgtByjyiziPS0vL6OpqQlGo5EvfLvdDrPZzEHC9vY2+0LB0v379xEMBvlAL/egyOVy/Fqdnp5mUTziJbS0tMDhcDCpWqFQYHt7G5ubm4wk3blzB3fu3GG+VyVEYRLqAwQ0j4oWgAeCghTIaTQaVlSnnyFOGZFzb926VdVLT4wsiduHdHV1YdeuXUy8B8AEfCqU+Oijj7C5uVn1C49QLnHbl8bGRvT19bHyc19fH9RqNQf/7733HqampipSfP8iK25Po1KpYDQamfvy1a9+FY2NjbyPLly4gCtXrlQtiPwy38RFDc8++yxeeeUVRr1WV1fxk5/8BD6f74nylABh37/55pvo7e3l/Xzp0iWcO3fuiXJxAAHx7urqwne+8x0usAiHw/jBD37AlclPMnBTq9U4fvw4vva1rwEQ1tbc3BxzucrpMlGuEaJM69lkMiGVSnEMIG7e+6TsqQ2WAGklQzKZZMl6r9eLy5cvs+Jqe3s7TCYT6urqJCrU8/PzLIVOlTSVXDDki7gKJZlMYnNzk8nRra2taG9vZ2VsAFw+TxvA5/OVXc4s9oVUzelAlMlkXJlEl6zNZpNcxLlcDuvr6wytUmBS6abM5XLY3t7mDUUtX+ilBAgXLxHQyV9KvQEP0k+VzBNZOp3mS4sq/cTSBBqNBiqVStKTj5R+6eKnOarGgUWX1NraGkKhEO7evcvjYLfbYbPZJC1pSC2agqNIJMIKy0Dlhyj9nu3tbSa7A8LeWllZYaVzeoRQmhUQBAQpsAUgUc2t1MTjTd3rCR2enJxEMBjkQBwQxmpxcZHRv5s3b1Zcmi+2YvFOIsQDQuGGXq9nf4PBIDweD6eQCa19HAEBoei0ZkwmE7q6uvhyaW5uRjwe54rijz76qGro3xf5Q0YFDVT08tprr8HpdHIK5yc/+QmuX79e0YOoFL9IFRsQAreXXnoJdXV1jF7/6Ec/wsbGxhMLTOjMsVqteP7559HZ2cn3yYULF/DrX//6iSJK5JPNZkN/fz+vqVAohB/+8If8EHkcQf8XGc0b3Sc+nw8LCwssQPkk04FkNYJ3zWpWs5rVrGY1q9kj7KlGlsRWrL8i1lqhV+WT9EXcp0nc0NLj8TxRf4pJ6rlcDul0mtOElOJ60r6I0QF6QRIn6kmZeL08KYj9i4zGJZ1OI51OS15GxJX4XfiTyWQQDod5blZWVrg1h/jvPqz57OPQxBG3ukmlUgiHw8w9+81vfsN/V9yHLpvN8vyK+2xVyyfx7xXzIIlwf+HCBQACHcDn8/G5FAwGH6tWj3hOiFdJ6Psvf/lLRCIRRrzHxsYem6Ahfb6Yo6nVaplrptPp4Ha7WVjxJz/5Cbxe7xNDcuRyuUTnTKvVYn19HT/4wQ8ACBzSJ4FyAVJOXn19Pev/Ecr17rvvwuPxPLGxEftlMBgkHNKbN2/ivffee+LcIEDYb/F4nM+iQqGACxcuMH3kSafgAED2pPQbHumETPa7d6JmNatZzXZgX6SFVty483GfreKCFhKnFTchFjevLae/Yjn+kC96vZ51ufr6+pDL5fji8/l8JSvOV+ITpZgAoZLz0KFDWF9fx/vvvw8AjzU9+TCjOXI4HDhy5AiGhoY4XXru3DmEQqEnpqtERoTq7u5uVn2/ffs2ZmZmfmcPTapiBoSUpd/vL0tXbgd2s1AoHPyyv1QLlmpWs5rV7H+JiQO539XZTkGcOHgSN0j+XfhV3FKJ+J6/K3/IF0KaqsVFrNSehvXzO7AdBUs1zlLNalazmtWsZjWr2SPs94azVLOa1axmNXu0PQ1owMN4lL9rE/MXH7dA6E6NUKSnYXzInob187RaDVmqWc1qVrOa1axmNXuE1YKlmtWsZjWrWc1qVrNHWC1YqlnNalazmtWsZjV7hP2v4CxR5QW1JCATt0whjZQn5Y9cLucKDKVSyZUPALh1RLXUoXfqDyCUFCuVStapoUqMdDrNufxyWsKU6g99NvkDCH2b6urqJIrS6XQaqVSq5H5+5fhE40Rjo1KpoFQqJfNG/gBPZk2Je3+JK4xIY0esa1XjG9SsZjWr2eOx38tgSSaTQalUstBYd3c3Ojs74XA4JI10t7a2WL9ibW0N8XicgxSguhcvBUZarZZ7RlF/NrvdDrlczkKEExMTmJiYQDgcZsEvavNRLaPgSKPRwGazccf4Z555Bq2trdxEMpVKYXp6GtPT0yz+t7GxgVgsxkFBtcaJemtRH6Tdu3fj4MGD6O7uBiA03FQqlfB4PNyU1+12Y2JiAltbWwAEIcBqjRO1sACEdhGtra3Yv38/N/xsaWmBRqPhBs6rq6tYWlpi+f+lpSUEAoGqBZfiUmvq9UVaNT09PWhtbeW2NYVCAYFAgPvLzc/PY3V1VSKEWM15K24Vo9VqeR7VajXkcjlroCQSCSQSCcTjcRb7q2YAXtzcVqFQ8H+jhtpUrg48eDRRqbhYYPJxWLF/xf8sLs8W+/IkA96H+Sb26Xdp4nH6XYzNw/wRW+1hItjTNC4EUIibo1ejdRbZ71WwJD4QXS4XTp48CQA4deoU+vr6JE1aqWfb1atXAQhd2icnJ7G1tVXVA5zQCAo+enp68Pzzz+PFF1/kYIl67VBvratXr8LhcGB6epqVW8PhMFKpVFUCAblczmJejY2NOH78OL7yla8AAI4cOQKtVsvBXSaTQX9/P27dusWNfm/duoWVlRVJZ/pKxknc7JOE2ADg1VdfxQsvvMC9turq6pDP5xGJRDA0NAQAuHHjBrRaLUZHR9mXavQio75aYrG606dP48UXX+Q+UhqNRqIoHYvF4PF4cOnSJQDAp59+iunpaQ6YKvWHghGr1Yr+/n6cPHkSL774IgAhkKQmwIBw4adSKQ7Ab9y4gUuXLmF0dJQVplOpVNnzJm72aTKZ0NTUhH379gEA9u3bh87OTu4fR7o15IvX68X8/DxmZ2dZcXdzcxPRaLSieaMgSKPR8H6z2+1oa2vjRtH19fXQ6XSQy+X8EAmFQvD7/Rxwb2xsIBgMssp9uQdqMRKpVCqhUql4v4vXPQW5arUaCoWC91YqlUI0GpU0Mi43kBMHGIRki/9Mv5f+m0qlkjQqVqvVKBQKSCQSPDaV7LWHBY3ify/+juKxJL/IH0A406t1Zpfy9+hRJZfL+SFCWYFqBwdf5hutObF6ezUDglJ9UygUPGdA9R/9X+aPeI3X1dXBZDLxIy4UClXlbCb7vQqWCAVwOBw4efIkXnvtNQDA0aNHYTAYoFareaLS6TQsFgtL7nd0dOD8+fO4fv06N5GNRqMVT6xMJoNWq2UE4MiRI3jjjTfQ1dXFBzqVqxISdujQIW5uS4dkKpWqilJqMXozNDSE06dP49ChQwCEy0QsECeXy+F0OnHkyBE+CNbX17G5uckHZiUm7vit1+vR3d2NY8eOAQCOHTvGgQkARv0UCgWcTicAoLe3FzMzMzz3xWXJ5fgDCGtJp9Ohq6uLfXn22WdhtVr57yYSCckrW6fTweFwsM/UaqPSg4peRLRe9u3bh9dffx0vv/wyBwEymQzZbJY3PnV1p4u5paUFarV6xxfBTvwBALPZjOHhYTz33HM4deoUAKCpqQkajYaDgVwuh2w2i9bWVgAC0tvQ0IBcLseBWzAYhEKhKAslELfRMJlM6Onpwf79+wEIY9Xc3Iz6+noA4ObI2WyWW7gEg0Gsrq5yU+2pqSnMzc3xfiul8a74cKaGseIzprGxkedRPB+0flOplASFi0QiWFlZ4Sbb9BjYyRiJ55oCDXok6fV6mEwmPnP0ej3PKe19WjsUhFNj69XVVW6STEH5Tsan2B/6PArKyDcKhMT0gGw2K1EgNxgMUCgUiEQivIZyuVzJgYE44BGPE/0PEC5ZlUol+Tv5fJ7nDBDmL5FIMMocj8fLPovEPlEgJlZeL/ZNoVCwb0qlEtlsFrlcjlHlat1jYn+AB6rwYpqETqfjuxYQzsTt7W0eF4/Hw+dmpSZeH+SL+GFiMpnQ2NiIjo4OAEJcYLPZ+H7//PPPEYlEqhYs1QjeNatZzWpWs5rVrGaPsN8bZEmc6jp69CjefvttTgsYjUbIZDLk83l+laXTadTV1fGL8/jx40ysvnbtGgDhdVAJ5A0IEW59fT2OHj0KAPjGN76B3t5eTuEAQvomHo9LEJaBgQHJqykQCCAajX4hRF2KX2q1mnlAJ06ckCA41GSXEC16SdTX16OnpweAwKmampoq6/OLjZAuALDZbBgaGmJkyWAwIBaLcfpma2sLcrkcOp2O502v13NaBagsJ15MdLdYLOjr6wMAHDhwAHq9HqFQCJubmwAETpJCoYDL5QIgICqEogBgUnylqS5KmzY0NLAvJ0+ehNFoZHTP5/NhaWmJP7uhoQHNzc382aFQCMlksmIYnMaIUqPd3d14/vnn8cYbbzDqlsvl4Pf74ff7AQjIjE6nk6CExamoSlI5tG9MJhN6e3tx+vRpvPrqqwCE9KQ4Bbi5uYl0Og2VSsWoSktLCwwGA58N6+vrkmIQQot2guRQ+hYQGud2d3djeHgYAHD48GF0dHTwHK2vryMQCCCTyfCLWKvVwmg0cmrX7XYjlUpxw2tK9zxqDh/Gf1Kr1aivr0d7ezsAAeXq6elBc3MzAAG5CQaDiEaj7J9SqYRWq+W9ls/nsbKygmw2y3NbnPJ51LiIOXfkDwC4XC60tLSgpaUFgEANoPQaNSCnRry07gwGA+LxOObm5pg7ub29vSPkVLzPixE3k8mE+vp6NDc3sz8ulwtKpZLXKKF/9DvIp9nZWXz22WcAhIbThA7u1Oh30vrRaDScNqJ5am1tRUtLC6N9CoUCmUyG/ScEbGtrixtLj4yMIJlMlrXHxIiVWq2GxWLhfd7S0oK2tjZGbmw2G3Q6HdRqNd/FWq0WkUiEm0m/++67vM8qMbqXaBzq6+vR0dHB65v8amlpYToAIV7EvV1bW8PY2FjFvpD93gRLSqWSibdvvfUWjhw5wlAgHd4+n485QHK5HM3NzbzQbTYb+vr6sLKygpmZGQDCwVqpmqtarcbQ0BC+9a1vAQAGBweh0WgQi8U4EJqamkIoFJJsTrvdjq6uLk7fabXaHR3YX2ZyuRz19fU4ceIEAODll19GfX09H86rq6u4e/cu8zecTif27NmDpqYmCe+D+AJA5aQ9mqfBwUEcOXKEN2MwGMTk5CQTpre2tlBfX49nnnmGL16C78VpuGpYXV0d2traOA2n1WqxvLyMW7duMbk8EAjAaDRi7969AB4cmuKeUtXiLajVaibh9/b2Qi6Xw+124/PPPwcAzMzMwOfzQavVAhDI8S+88AL/ORAIYHt7uyqVg+KHyd69e3H8+HEYjUa+QEdGRjAxMcHrW6FQoLW1lVO9DocDPp8P4XCY4Xk6zEv1SRwsWa1WHDx4EK+88grvpUgkgtHRUebbUaDrcrk4iKHDni7dQCCAWCwmmcdy0oIOhwNHjx7FG2+8AQBobm5GPB5nX27evMn+UCA8ODgIl8vFc7S+vo5UKsVBA6WiS0kLAsIl2tLSgmeffRaAwONsbW3l821xcRHr6+sIh8MciDmdTvT29vIFRNWeU1NTEm7OTgMlcdrNYrEwZ/Pw4cM4evQo2traAAjrJRQKYW5ujtcQndfki8lk4mIFOh+AnaUmKWUDgPltdLZ1dXVhYGAAhw4dYn80Go2E/xeLxaBUKpnPSPv+7t27nPra3NzccVAgTiWp1WoO4p1OJ7q6urB7925+QHZ1dUGv1/P3TCQSHPwDQoBO40fppvHxcV7bO7XiOdNqtTCbzdi9ezcGBgYACNSE3t5eDnqJs5XP5zn4N5vNyOfzPHa/+MUvSvLjy3yj823Xrl04dOgQj1N7ezu0Wi2neAFh3dXV1XFaXPywrYb9XgRLcrkcVqsVr7/+OgDg9OnT0Ov1PBA+nw8jIyO4c+cOv9DUajWsViuTiS0WCx+gRPqmsvByLhXaAFarFS+88AJzKLRaLRKJBO7fv4/Lly8DACYnJ5HP55mH8/zzz8Nms8HhcDDPgyqKKkGWqEqws7MTL730EgDwwUzj8sknn2B8fJz5Go2NjbDb7WhpaeFNYbVaJb5UYsTpIl8aGxv5RTY5OYmrV69iYWEBALhiKZvNSqr56urqJI0myw0CxD+nVCr5EASA+/fvY3JyElNTU1hdXQUgzHF7ezsfKMQbosAzkUhUjcwoJgHH43FMT0/j1q1b/DLyeDyQy+UcXGezWaRSKT4kNzc3EQwGKyJ1k8nlcj7Qm5uboVKp4Pf7mdj+ySefYHFxkf8+8bjIl3g8jrW1NQSDQT5ExVWopRpdfI2NjRgYGIDdbuc5GBkZwZkzZ5hIns/nYbFYJGR4uVwuQcK8Xi9isZgkINipEXILCKjb8ePH+YKXyWRYXFzkV/adO3eQTqdRX1/Pe0un08FkMnEQFQ6Hsb6+zsFSOp3+wvl72H4UV3Pu3buX9z0F3Pfv3wcAXL9+Hbdv30Y8HmdfbDYb7HY7P158Ph/i8Tj8fv+Oi2DEFxtd6GazGT09PRw8v/zyy+jq6uILdmtrC/Pz87hz5w4H04QckG9i9I2Ckp3wAwmRoDPHYrFIEIn+/n4cO3YM7e3t7G80GoXP5+NHdCQSgcPh4POa+FPFRRY75XGJ0WziPQJCYLR3716cPHkSu3btAiDcA/F4nDlj9+/fRywW40yBzWaDVqtFOp3m80LMrSrFxMFSXV0dDAYD2tra+JExNDQEg8HA87C5uYnl5WUoFAr09/ezP4VCQcL/q4bRA0a8vh0OB5/Z29vb8Hq9yOfzjPy3tbVBJpMxV3Fpaam6FeZV+001q1nNalazmtWsZv8L7alGligi1+v1OHHiBCNLJpMJhUKBo+8zZ87g+vXrmJycZJhUJpNx5A0IMF5DQwMGBgYYHr5161bJeWf63fRyOXLkCF599VX+rFQqhbm5OXz44YcYGRkB8AAVoFdTY2Mjent7odfrmSdEL/lKOTlGoxFDQ0MMMRcKBWxsbODKlSsABAmF5eVlSRVKKBRCoVDgF7PJZGIOWCVGSJcYsUqlUpxTvnfvHhYWFvjFbzAYeGzpxVMoFJDL5fjFUg2fAHCJNyEfiUQCy8vL8Hq9/HctFgtaWlrQ2dkJQHh9UTkqAK60qEYpM1W5AMJ6WV5ehtvtZn8UCgUcDge/QHft2gWZTMYVXh6PBz6fT5KGK9fkcjmvhXw+j/X1dfj9fka5lpeXkc1mGZHo7OzE7t27+dW9uroKt9uNpaWlisvzATAi4XA4mMdF4/L5559jZmaGkRmtVguXy4Xdu3czDyQej2NpaYnR1UAgUPY4iVOUHR0daG5u5t/j9Xrx6aef8jgFAgEoFApJurejowMymYz939jYgM/nk6zvnaSaSAKAXt6tra2SfS+Xy7GxsYGzZ8/yOC0tLUnORYfDAbvdzr8jFAo91J8v8oH+qVAoJCXkVqsVe/fuZR5nU1MT5HI5f+ezZ89idHQU8/Pz/F37+vqQz+claMn29jY8Ho8EnfyycaEqPDHK1djYyOfsM888g4aGBhQKBaysrAAQJEDu3r3Le0kul2Pv3r18TxAnJhQK8Z2zU45QMX+KuEGAcL60trbCbrfz3l9ZWcGVK1cwPj7Of9ZoNHjllVcAgPcZnVfAg8q8nVixphYZnWNi3lg2m8X09DRnYiYnJ7G2toaWlhZGc9rb25FMJhmVK+c+LTb6Ltlslvf1ysoKpqen+Tun02mmJbz55pvsSyaTYV7Z0tJSVSUVntpgSSaTManN6XTi0KFDnIKQyWQIBAJMcCMY3u/3cyqAdGuI83HkyBE0NTXBarUy34EIvaX6JT4wDx48yIRFQLgoPvzwQ5w/f57LgePxOORyOV+ypGGk1+sZkq3GpCoUCjQ2NmL//v0czG1vb2N0dJRJ7ePj44hGoxIF70QiISnLrKurK6mc+ouMUha0sSwWC5dKA8I4+P1+3mCUczYajRwsAcL4ERRfqU4PXQz0WQTTFgoFFhSlg7a5uRkDAwM8R/l8Hh6Ph3kWleoGkdFlQwdYLpeD0WhEY2Mjz6PJZEJbWxsHS1qtFl6vl9NPCwsLCIVCVSkhFvuSTCYRDAaRz+c5oO/s7IRer+cgkngNdJHcu3cPU1NT8Hg8FQW5tNfocpHL5dje3obP5+NDM5lMMmkaEFIbw8PDGBwc5LGYmJjA5OQkC9RGIpEdB2/F+kAqlYrTMxaLBfl8nrkjIyMjmJub4+KJuro6NDc3Y9++fThw4AAAYR59Ph/P2+zsLILBIKcxSrmAxQ+Rvr4+9PT08MXs8/lw9uxZTp3Oz88jn8+jvr5eInQqTp/OzMxgerr+4QAAIABJREFUfn4eoVBoxylKsfYVyZX09fWhv7+f9z0gnIvvv/8+AOG8Xl1dRS6XY24ijSsF3KlUCuPj45icnOSAeyeBJKVvxMR3Mdlcr9fzg+29994DAJw/fx4+n4+/q81mw8DAgEQCIhqN4saNGxwUlJLupt9LqXM6y1QqFcxmM9LpNO7evQsAeP/993H58mW+lwqFAlpbWyUpQZlMhrW1Nf6ZUnwR/71CocDzLJPJkEqluIMCAExPT+M3v/kNB0vBYBAymQwul4sfIgqFAh6Ph3l61bg3yDfxPCoUCgQCAX7wbG1tIZVKobe3l6ksdXV18Hg8+J//+R8AYJ21atlTGyyJkZjDhw/jpZde4o2UTqcxPj6OixcvAhC4AaFQCOl0mhemTCZDLpdjwveVK1dw8OBBWK1WyeCW45dareZL67nnnoNareYNcOPGDVy+fBnz8/McFedyOQkHKBwOsxaFWBCu3IuODkidTocDBw5g//79HGysrKwwTwkQXrviiyKbzTKhm8YunU5XTT/IYrHwWDU2NrKOC/Cggos+hw5cq9XK45JKpSRBcKXIG/1eh8MBq9XKhxBpiJhMJn5ZdXZ2oru7m9ddMpmEx+PhILhScUyxmJrZbOaLg3SKCoUCryGbzcbkTkBAd0h5HRCqqkjQsBJfKKCkII1emgaDgS9Dv98Pl8vFpGWZTIaZmRncuHEDgBCQu91uBIPBsgiWxb7QnCkUChZwpP/W29sLm83GKFdHRwdaW1uRTCZx8+ZNAML5cPv2beYJlcPrIl+MRiN/b7Vaja2tLb7Y1tbWoFKpOEhwOBxM3iX/otEoRkdH+aJbXFxELBYrWTuorq5Ogkz39PRAr9czSjs6Oopbt25xIEfz2N/fz1yiXbt2QaFQ8Hq+e/cuFhYWdrSuxcUftK8IgaFKJXqYrK2t4fz58xy4eTwepNNpaDQa5hIdPHgQXV1d/DPz8/O4ceMGVlZWdrz3qeBCrNZO1aHi4N/j8eDs2bOMtq+vryObzfLjvLm5GYcOHeLvI5PJsLCwgNHRUeZY7fSsFo8jEejF6EssFsPS0hLz3EZGRhAIBPi7Go1GHDp0iLm3KpUK4XAYH374IQcO5dwb4jZJ9DtkMhkymQw/BpeWlnDv3j3mAMlkMnR3d+NP//RP+dzMZDK4ePEi3y+VFkwVm7gKOplMcgAkl8vR29uLP/7jP+Y9kMvlcObMGS4IqLY4Zo2zVLOa1axmNatZzWr2CHtqkaW6ujpGgIaHhyWprmAwiEuXLjH0RzC2uASYXjwEia+srCCTyXCqCngAae7ExBUNBoOB23GQ1g1F41evXsXs7Cy2t7clPbrkcjm/dlKpFEP6hG6JdUp2asXlnw0NDfjKV74Cm83Gn3337l1MTU1xCpAQLfosg8HAPdnoZ1KpVNkll2JUQKvVor+/H4ODgwAE7sL9+/cZhQuFQojFYpK2EA0NDTCZTDwuiUQCfr+/YnVzQgYolUQIBL2QSC8EeFAq3NDQAJ1Ox6/dTCaDzc1NHstKylLF81asb+J0OtHU1ASVSiWBoeVyOSNNW1tbCAQCLAFBmmGVGnFPxBWAGo2G++QBD7gX9HJbXV3F3Nwcp8Y2NjbK7uEn3gekkSNuzbO9vQ25XM4yIgMDAxIOIcH1Y2Nj/Nql3oLloJPism+dTger1coIWzqd5tQjIHAm7HY7z0Nrayv3YaTPHhsbw8jICKfhKJVbik+EcLW2tvLe6unpQSaTgcfjASDwp1QqFadKATBnk5Alo9GIYDCI69evA3iA0JeCKtN31Wq1nJohHhShMBMTE7h//z7vF5PJxBy8gwcPAhD04MxmM6fcrl27hps3b0pS3TvxiboT0NpLJpOS9i2Li4uYm5uD2+3mM0Wr1UpKzo8fP46jR4/ymgoGgzh37hwmJiZKLtEX+02K//S54XAYy8vLzKkj/00mEyOnw8PD+KM/+iO+swqFAkZGRnDlypWqdFggy+fzyGQyiEajnI2htU2yCw6HA3/4h3+IY8eO8Z50u904d+4cn53AA05dNYzOgnw+j1QqxXPS3t6OV199FYcPH2baxMrKCj766KOq8KYeZk91sERwd0NDgyRNtba2JuEGUFrpYRMkbn9CJu6ps1OjQ1OtVqOhoYE5CEajUZLum52d5R5vxf6IgyFabBQ4lCNuSBcupYkOHDiAwcFBqNVqhk5XVlYkF1c+n5f0YLLb7TCZTFAqlbzISNivHH/EYp1OpxPHjh3jA1Gj0WB2dpbnLZlMIpfL8SVstVqZD0PjEwgE4PF4JNyiUo04HuK2NESsJAuFQtwvjEimNE50cBUKBYRCIQmHohwrDnIp/Ud/pgO+UChIWlTQYQuAW4eI2+VU6g99Z1rrwIM0hrjfIH02BW6bm5vw+/18OUYiEU51VdoOgvhcwINWIGLOIPHb6GcikQi8Xi/cbjeXzW9sbEiCyXLaZZA+jtPp5M8GhHGndeR0OvniBcCFCplMhs+HW7du4e7du5y6KzclaDabJc26GxoakMlk2N/GxkbmVAHCQ8Rut6O7u5v3gFwux+LiIgvQEvG9FH8o9SUmMhP5ltZqJpOBw+HgcSHdIIfDgdOnTwMQHp0KhYKD/8nJybLbeIjTcMlkEqFQiFP/4XAYyWQSDoeD13MqlYLJZOKU4Ne//nU0NDTwWK6srPC5Xo6JgyVxmb3X64XBYJAIqO7evRvpdJofTq+88gqGh4c5INja2sKVK1fg8/m+kKxdrsXjcWxsbEj2OZXjA0J69dSpU9DpdMxF/PjjjzmNSz8DoKy9VmzisUokErDb7fy47e/vx969e6HVanmNnDt3DuPj4/zZxYKqlT4mn9pgSUzaJK6G+CXr8Xh48T6KrEkbtKmpiZW+xeJjO51M+j2k2kt5UurzRFpB9IJ9WKBEv4N4MXK5nC874hqUYhQokXja0NAQVwqKxdPEmjL0c2IdEp1OB4VCwePp9XrLQnLEVSg6nQ6HDx/Giy++yJcJKZaTb7FYTFKdY7PZ4HK5eLMCwuumXO4LbVzimZEAJyBcbHV1dczpIJ0iUnkHBF2ojo4OibZKJBLhsSlXn6tYcE2v10Mmk0kUpmOxmKQnlEajQX19PfOaHA4HVCoVj0slfLdiLRiVSiVpopzJZCT6UnK5HMlkktduKBRCPp/ncSFkotzxoXmjxrSE7JH+lrj5Kx3k9NnRaBRerxeRSISDN+IylstTAoT1bLPZJL3fNBoN9Ho9H+A0J+ILgwI88WMqHA5LUOdyxkiv10vWA405XbrEQxQjk6TWTftrY2MDo6OjmJ2dBSAUg5Szz+jVT/va6/VyoQYgnOUdHR0SDR69Xo/du3czQqjX6xGPxxnlmpqakqiNl2LiRwUVlIi5itTPjzixgHAeUO/Dnp4ernwFBF2xqampkqrOvsiy2Sw/Sj0eDzQaDWw2m4S7qlAoJJxYnU7H3+f27du4ffu25AFcaUBC/yS+Evmi1+uhVqsZaR8aGmL0kIjuly5dknCsqm20T7a3t5FMJnl979q1CzabDQqFggPhX/3qV3wWAV/csLlce2qDJbFooNlsRqFQ4EVGMP+jDhw66Ogge+6552AwGJDNZpkAFo1GdzyQdLHZ7Xa4XC5Ji4BwOCwhLRcfzpS2oKBh9+7drHxKB1U4HN5x5EuLQK/Xw2q18sYaGBjgSjb6vQsLC7916IiraDo6Onic6bDz+XwlX76UCqEDsqmpCcPDw3A6nezvxsYG7t+/zyXENJ/iYKm+vh4KhYJRi7W1tbIqLMRkbiKO9/f3c1rCZrNJVNY9Hg/C4TCUSiVfJrlcTtJgMxaLSRSQy0EoSF1YpVLxmtJoNFCpVDz/pM5LARPwAF2l9Ww2m1kks1Rfiv0qbp4pDmA1Gg03NCW0koI4+mytVisJcCuRCRAHbuQL/S6tVsv/o8AylUpJRPkI5aDm1WJ/KkG56DwSrwdqMkp/TiaTyGQy/GDQarVcbUrrjAQfy1UPp+9IZFdKlSQSCWQyGR4LrVYraV5rtVphtVphMBj4UXTz5k3cunWL9yOhk+X4k0qlODgNhULQaDT8Z41GI1FTpuCpp6dH0kLn7t27OHfuHAAhXUbl+aUiAuJgiRoB03lCGQrxeUj+EEpHyAmRrs+cOcOk9EoQk2KEI5lMYnNzU5L2VKvVsNls3MqLzk9Cb/7zP/8TExMTiEQikvuv0oCAxiwSiXAql9pO0RwNDw9DrVYjFovh3XffBSBIUogDFFo/1QpQimk19HBta2uDXq9HMpnEz372MwDgILJ4vVTLlxrBu2Y1q1nNalazmtXsEfbUIktiYqdcLmfiHgDJy0xsxZyZ+vp6PPfccwAEnSWFQoHNzU0mfu60t484onW5XLDZbBIu1NbWFpclUwlmsZR8fX0985yOHDkClUqFWCzGfciIo7JTfwABXeju7mbBO9IQCQQCzEMIBoMoFB7IxpMvJFe/d+9e6PV65HI5Juiura2VLB2gUChgs9nQ8X/7cLW1tcHlckmanN68eROrq6uSV57JZOKf6e/vh06nQ6FQYO7C0tJSWbwOcW+nhoYGuFwutLW1MfIVCoWwtbXFiCChauImvs3NzdBqtbzW3G63hItRitFaMBqN0Gq1ksazDQ0NUKlUknYh0WgUqVSKUb+mpiY0NDSw/1tbWxKNqlJfc2JSvVhji/SdiC9oNpuxubmJpaUlLtt1Op0YGBiQNLksFAr8/5ebhiNUSYzcaDQaJt46nU5YLBZ4vV7W6komk+ju7mbtNOqxSM2rgd/mA5bil/jMCQaD8Pv9jBzp9XpOwwMP+ICECpAIq8fjYf6U1+tFPB6XILelauRQuuTmzZu8bo1GIzc5pbEU74FTp04xh4lQ51//+teS31FuWiefz2N7e5vRD7/fD71ez2uX5oR86+npQVtbGxwOB6MAY2Nj+Kd/+iduEUVIe7kIDn2XeDzOiAkA7iVGhH1AkKY5cOAA78dMJoMzZ87g+9//PgCBP1Vuo9pivwiFA4Q9HAwGoVarJW09enp6uH0WUQW+973vAQCTqavVk1JsdHfQ+axSqZBIJPDWW28BELIQuVwOH3zwAX7605/yd6h2ib7YaMwzmQySySQXV7S1tUEul+PGjRv493//9yfiy5cGSzKZTAPgUwDq//v3f1ooFP4fmUzWCeC/ANgA3ATw7UKhkJbJZGoA/y+AAwD8AP5PoVC4X45z9MUJVqdLivK8BB9vb2/zwhFfSkePHsW3v/1tAALhMZfL4eLFi5wX32l6h8jBgHCZEqkbAB/K4saNpFkkrjjbtWsXq7CS+vL8/DxGR0cBlFbNRJ9ltVo5EKD/Ho1GJU0eVSqVpDGjSqVCR0cH9//Zu3cvNBoN/H4/K44TNFyKUTUMBT7t7e0wmUzY2trii83j8bCuE42l3W5n+Lu7uxs6nQ6pVIqrhebn50s+qGQyGfc5AoSN5XQ6YbVaJdwW8TjRxdzQ0MC8pqamJigUCtYzmZiYgN/vL/lSEVdrOZ1OTjdSsEEaT2LfwuGwhIPS3NwsSWnOzs7C7XaXLdYpLligz6fvTJWC9B3dbjcH0PR9xFw5v9+PUCjEwVI5xQpf5KNer2eehMPhQCwWw8rKCqef6FFEc6ZUKpFIJLC+vs7+lJsWFF+6sVgM6+vryOfzkpSlQqHgOYjH43A6nXjmmWcAPODh3Lt3jx9o1By2EsvlcohEIlhYWOCUidFohF6v56CXKj8PHz4MQHjkqdVqrK2t8UV3+fJlyXou1ygAoO8ViUQk6UnSyqIA/MSJE+jq6oJCoeAg8vvf/z7Onz/PF3Wl60d8yRJvDHgQkKtUKj4fTp06JakavH79Ov7mb/6GH7LVbMYqDnLEve8okOzo6MDbb7/NeyuRSOAf/uEf8POf/xyAMLaPgx/0/7H3psFRXlca8NP7vqnV2hek1sIiMDtIYIPtgHfAHifYsTOJJ1NJTaXsqfqq5s/U5M/Ml8xMZZJUZpJxJhk7jr8kYBPHxsQLNgoYWyxmEaAFCe373qt6374fr8/hbRlj1GrJeOp9qiiQkLpP33vfe899znPOIbvE4niZTIaNGzfi0UcfBSCcHa2trfjhD3/Iz182MnBvBnEyVnl5OTetNhgMcLvd+NWvfsV64cV0lIBbY5YiAO5JpVKzMplMBeAjmUz2DoD/B8BPU6nUQZlM9ksA3wbw/Cd/u1OpVJVMJnsCwL8D2D9fwwKBAN9URkdH4XQ6eSNYtWoVtm3bxgPZ39/P3jrdZtatW4dnnnmGNy4qLPbmm2+yqHc+3jkdZHQoUEaUwWCA1WrlFF6Px4OOjg6Ew2F23GpqavDggw+ygFCv18PlcuHNN99kBmg+gmrarOlGQuPi9Xqh0WigUqnYaXG5XNyeAhBuLhs2bOAsFLvdjmg0ikuXLnGRNqrYfCugw5ucJbrhFxUV8Y2ONs2ioiIkEgm+iVNrCmLc8vLyIJfLMT09nVayfr5ZKHK5nFk3QHDCSC82t2gpOSzkYFVXV3NZCLPZjFAoxAfdlStX0jRLtwqFQsE3oqqqKpSUlCAnJ4fnkXQt4oqz5MCsWLECgKAXMJlMzIRduXIFg4ODvOHOVz9F7IjJZEJOTg5nSFVUVKC8vJxfb3Jykp0TYrXy8/NRUlLCcz85OYm+vj62f6GFMcVZguJO9EqlEiMjIxgYGOCLUlFRUVqGGqVhj42NZaWQqbj6cigUgtvtZiaGkiJImxOPx9MuLwqFAmNjYzh//jxrlrJRtI+cuHA4nNbA1OPxpOn0NBoNM8gOhwOxWAzHjh3jzgfZvImLHUu62IpZfrlczuPywAMPwGQywev14he/+AUAgTGZb3HOW7VL/JqkgVMoFFzocffu3VCpVOwcff/730dXV1dWnaS5Non/Bq5rYr/61a+irq6O193hw4fx0ksvsV5wMTF37Kurq/EP//APvHe5XC788Ic/RE9Pz6I7SXNhtVrx5JNP8l6QSqXw1ltv4ejRo1kvhPlZ+FzNUkoAFXRQffInBeAeAH/85Pu/BbDvk3/v/eRrfPL/98qyldsoQYIECRIkSJCwxLglzZJMJlNACLVVAfgFgB4AnlQqRa73MIDiT/5dDGAIAFKpVFwmk3khhOqm57zmdwB857Pek8rSA0IqtZgFqK2thclkYo+3vb0dkUgECoWCU/p37tyJ1atXM+syNTWF3/zmN2hqasroxkk3uEAgwPWBgOs9jXbs2EGfCw6HA4lEglmuhoYGNDQ0cFZBKBRCY2Mj/vznP7OeZz6eurgxo/gzUE0gs9nMtyaDwYC+vj6+rdvtdjQ0NDADRBqGV155hbME5+Opkx9MadQUNsrJyUFubi60Wi1ncBUUFKCiooLLJJhMJpSVlXHIR61Ww+Vy4ejRo2hsbAQg3H7ne4shJodusrW1tVw3hW6L8Xgcs7OzvBbi8Thyc3O5fyAgxPD7+vo4K+bq1au3rHMTQ9yc0m63o6KiApWVlRz6It0bsQ+UPVRVVYXt27cDEMYzFApxIdbLly/D7XZnXPhRrKfLy8vjMAQxX2RLJBJBNBpNe7a2bdsGvV7PVPzFixfn1ZbiZhCXnzAajcjNzeX5iEaj3O6EUF5ezrdNQMj+vHLlSlb65IkhZihoDQUCgbTwk9lsxpo1a1j74vf7cezYMbS0tPC6ySZzMpc1EZddIAaZ1o9SqURnZycOHTq0oDYZtwpxViOFvJ544gkAAmORTCbxzjvv4I033gCQLqVYTJB2at26dXj22WcBCGMVDAbxk5/8BIDwbC0WqzQXFGp+6KGHAABPP/00VCoVh5Z+9KMfsX5zqeyhffO5555DRUUFj8Uf//hHvPfee0vG5MhkMj7jH3vsMWzfvp3Z+IGBAfzyl79cEsaNcEvOUiqVSgBYK5PJrABeB7B8oW+cSqV+BeBXACCTyT71lJAwEhBqOaxduxarVq0CIGyiVVVVTL1v27aNq3HT4Or1eqjVal5of/rTn/Daa6+x4HmetnKIYWBgAAaDgUM8RUVFsFqtHP++//77sXbtWhiNxrSUeGrGCABNTU148cUXM6Z6aZOjmhhE4ZLjYTKZeMO22+1Ys2ZNWv0js9nMzt/AwABeeuklHDt2jEOLmWxa0WgUPp+PHSGHw4H8/HxYrda0PmOlpaX8PrRx0fsNDw/j/PnzOHToEIdgM62zIg5rqlQqTm+nMIVKpUpLf6ewgUKhSKuD8uc//5kdt0zWDtlD76NSqTjsJe6wXllZmVbEL5VKwW63s5MViUTQ1tbGqdUkOl0oqCAeObRlZWUoLi5mzYTdbsfU1BRisRhfCMrKyhAKhVjjdvbsWbhcrgVT85QYIdb/abVaHgOZTIZoNAqLxcLr+a/+6q9gt9t53R07dgydnZ1ZGZsbIZVKpQm8LRYLz+Py5ctx99138wWivb0d77//flbG5vNAgmWax23btuHrX/86h5/dbjcOHjyI5ubmJTnsxILu/Px8fPWrX8XDDz8MQFjvV69exa9//WuWRCy2o0RzQo7b9773Pa7xFI/HceDAAbz55psAkHHxyUxs0mg0WLFiBTtuFosFXq8XP/jBDwAI2sSlCnnJ5XKYzWbcd999AISzTC6Xs370pz/9KWvKFhvUOYAStL7xjW9Ap9Px3vyb3/wGbW1tSxoOnFc2XCqV8shksuMA6gFYZTKZ8hN2qQTAyCc/NgKgFMCwTCZTArBAEHrPC4lEgifm3Llz+MEPfoBvf/vbAK7XTBIXg1MqlWk1WQKBAAYHBzk+f+DAAYyOjmY0uKlUih8gn8+Hrq4uFtwlk0ns3r2bRcsOhyOtyBggHH6Dg4Oc6XHo0CGcO3cu402Lfo/qO9FGEAqFEA6HsWXLFr6NWywWGI3GtOq5Ho8Hzc3NAID33nsPR48ezbiwGP3O7Owsenp6+KAjtmTlypXsSJrNZq49Q79LReMAwYlsbGxcsCOQSCQwMzOD3t5eAAKDFQqFkJ+fz06kzWZL03uFQiGEQiFMTU3x73300Uc4fvz4gm/iiUSCb0DiLDZyAvR6PbRa7Q0rZ5NGqb29HUeOHOHm0SQAzwRifQkxI/TeFosFNpuNn63Kykp+Zsje2dlZNDc3c3dvYnYXCvo84oNNpVKx41ZcXIz169dDrVazg+JwOBAKhXD69GkAwPHjx7PqnMytJq7RaNgBKS0thdPp5Oy3srIy2Gw2ZtxeffVVdHR0LApLQY4lrV+DwYDKyko0NDQAEJzIqqoqHoeTJ0/iyJEjiyYQFoMq39Ma2rNnD/bv38/rZ3p6Gv/7v/+LlpaWJWNwiHFzOBzYv38/du7cyWv+8uXL+PWvf83as6VguMimgoICfPOb3+Qkl0Qigddffx3vvfcegPlpWRcCctzq6urwN3/zNwCE593v9+M///M/AQiXx6UaG6VSifLycjzwwAMAridoEbN+6NChJXNq2abP+wGZTOYAEPvEUdIB2AVBtH0cwOMQMuK+CeDwJ7/y5idfn/7k//+SymCExar8qakpXLx4kR/8rq4u3HnnnUwXUtVc8aHU2dmJc+fOsbPU19eX8WEnZgaSyWRaFlU8Hsf4+DjfuktKSqBWq9MqHF+7dg3Hjh3DyZMnAaQL0jMBfQ5qK0EPOWUtdXV1YevWrQCup1gSBgcHceLECXzwwQcArhetzPRwoakNhULo7+9PC7FZrVacP3+eWbiamhruCA8IB35raytnBF65cgUul2vBG2gymYTb7eYDdGhoCAUFBbBarXzQlZWVITc3lw/d6elpjI6Ooq2tjQXdVOZgoQdvMpnktUDd5mdmZtiJLCkpQUFBATMW5Ox1dXVx5ua5c+cwMjKSlXBO6pNqvYAQKhodHWWHcGBggMNfwPUClOFwmJ3I999/H0ePHuXPkk1hrrgIYSQSSSuYmZubyxlf9DNerxenT5/G7373OwDIujBXLFKmzFJitOvq6rB+/Xp2CijNm5zIxsbGRQkviRk4KjrpcDiwdu1aPPjggwCup3lTAsnBgwcxMDCwaKE3cdkWhUIBs9nMPej27dsHh8PBz8Drr7+Od999d9F6eM21SxwG37FjB5544gno9XqOXDz//PPo6upa9GwqAu3HJpMJDz74IPbu3cvOXHt7O1566SXe05cKcrkcVqsVDz74ICeVJBIJvP322+y4LSXjplKpUFFRwdEkuVwOl8uFF154AYCwNy+1yPxWmKVCAL/9RLckB/BqKpX6s0wmawdwUCaT/b8AmgG88MnPvwDg/5PJZN0AXACeWAS7JUiQIEGCBAkSlgSf6yylUqkrANbd4Pu9ADbf4PthAF/NhnHiEuoej4fDWB9//DFefPFFFqVSKwgAXBySCumRgDobbAUg3MpDoRDTo2fPnkVLSwuH5aqqqmCxWNI6xHd2dmJsbIxZr/kWfJwLcXE6ca8hr9eLiYkJXL58GYcPC0RfYWEh9Ho9MwkTExMYHh5m3ZC4hP9CQKwe6bIobHHlyhUW5pNeit4vGAzC6/XyOC2kGexcRKNRTi+fmprimjhivYm4ASuVNAgGgzy3C2nbMRd0KxsZGYHL5cKpU6d4zZpMJthsNr7ZUvdvr9fLt/FM+5t9FsS9s/r6+jgdvrm5GcuWLWO2JJVKYXZ2FsFgkEOC1N9soa1W5oLCgzRWLpcL7e3tzCz19fVxnyzxeH700Ufo6OgAgKz077oRxPV5xGPX29vL68zj8eDSpUt4++23ASCtNlW2QWuZNJpOpxPl5eW8nsfGxtDb28v70pkzZzJKTrhViMtRmM1mrFq1itlth8MBr9fLIeQDBw5gfHx80QXmgDBORqORizzu3bsXOTk58Hg8OHjwIACBAVwKlgu4LugGgI0bN2Lfvn0wGAysrX3xxRfR1ta2dOnwn7BcRqMRGzZsQENDA+/B165dw4EDB5ZMVyaGQqGASqXis2FoaAiHDx9m/ehiruXPgmwpB+AzjbiBwFuCBAlLA7HWj74mLPX+IA4kCfadAAAgAElEQVTnzK27RPZQnyjgethuseycq1lSqVR82KlUqk/1IQsGg+zILVaYQOy4URg5Ly8PxcXFrMlzu93o7+/nrMZQKLQk9gDgDgFUP62qqgqDg4Oc+UaFZhdzbdG8UTHMXbt2AQAef/xxlJSU4NSpU5z91t3dvWTaKbGW69FHH8UTTzwBh8OBI0eOAAB+9rOfYWRkZMlCTPRs5ebmYu/evfjqV7/KGc2//vWvcejQoSXNOAOuF/Gtq6vjrG6NRoPDhw8vKPHnJriQSqU2fq5dkrMkQYIECV8uzHUob4RMWs4sxB46eNVqNbRaLWfBKhSKtJIPS6ENEmvNLBYL63Bqamqg0+lw4sQJdHZ2AshOodBbBdkDCIWTV61aBaVSibfeegvA0jpuwHVmyWAwoKamBlVVVfy9xsbGjEq3ZAMKhQI6nY4dcI1Gg+np6cWaq1tylqRGuhIkSJAgQYIECTeBxCxJkCBBgoQFQ8xyzQ3tflHnjFwuT2O9yJaF6kYzxdysQbIn0ybG2cTcIse3g2+wRLglZmledZYkSJAgQYKEG+F2PGgphLRUZQE+D+LQ6BcR3roZbjd7bjdIYTgJEiRIkCBBgoSbQHKWJEiQIEGCBAkSbgLJWZIgQYIECRIkSLgJ/s9olqjWhzildm58eCnj6OKu21QQkb5OJBKIx+NprR2Wwh4gvV4MIKSyJpNJtgkA27YUNok7pVMvMOB6/DwWi6UVq1zs2izieVOpVFAqlfw1jdNiFK28mU2EuesbwKfW91Kv8c/C7aJZkSBBgoRs4EvrLIm7k9tsNhQXF2PFihXc0Faj0cDn83HH5N7eXvj9fkQikUXNPKDu3wUFBVw1tqKiAnl5efy+nZ2daG1txdjYGPdSC4fDi3L4yuVyaDQaHpc77rgDa9asQVVVFQDBQRkfH0d3dze6uroACP21PB4PV0nNpuMk7vVlMplQW1vLPaRWrVoFs9mMQCDAfZt6enpw+fJlrh7t8XiyOk5ih1av1yM/P5+L6a1duxZ2u53fy+12Y2JiguuztLW1YXx8POsF9sRF/qhA3LJly1BXV8cNkrVaLfx+P1dMHxgYQE9PDyYmJrj3XjabyYqdSJ1OB6vViuLiYgDgRs1UR4cqs8/OzrJ92azOTjbR39S3DRCqxJNTSc9bPB5PuwxQk+LFuBCIs53IDvHYzQU54Et1GbiZvfRv8SXui3J6xZdfsS1fpD1zi7V+0ReCL7J47FzcLrbI5fK0Zy2bhMSX0lmiDsn5+fkAhOaId955JzZu3MhNLuVyOXw+H06dOgUAOHXqFFpaWrg5KpC9Vh/A9TRQk8mEmpoafOUrX8GePXsAAAUFBdDpdFxQq6enBydPnsSlS5dw8eJFAEIj11AolLWCZLRgtFot8vLysHPnTgDAU089BafTyYXRUqkUvF4vBgYGcOLECf7djo6OtM702XgA6GCjA7+hoQGPP/44Nm4UsjZzc3ORSqUQDof5kL169SpMJhOampoACAdftjqni1OKLRYLVq9ejYceegh33303AKHLvVwuTztkvV4vPv74YwCC03DmzBmMj49npViauJCeyWRCdXU127Jz505UVlayU0D20Fru6OjAsWPHcPr0aQwMDADITusPGiOj0cjthbZv346NGzeipqYGgLDGkskkt9CZmppCd3c32tra0NraCkBw5rxe74KzksgeKnhYUFCAlStXsvNfWVkJg8GARCLBbRrGx8cxNjbG1azHx8fhcrm4WelC0sjFa0ij0cBoNPLFxGq1wmQywWAwcMPbeDyOcDjM700OJTma1EZmIfYAn2aQVSpV2v/R98RsLv0tbgLu9/sXnGZPjsZcp2zua1IDVUAYS71eD6VSmdb0ORgMZiWzbW6ZAzHILvF4qVQqaLVa/l4sFkM4HM56y5+b2UP/Rw4BrTuKBNDPLWY1+7ljQ+ufbEkmk4jFYkviMM1l2ckvoAtmKpWCz+fjy+NCbZI0SxIkSJAgQYIECTfBl4pZIg9SpVIhPz8fO3bsAAB84xvfQG1tLaxWa5qGw2g04t577wUAlJeXIy8vDydPnsTg4CAAoVFnNpgluVzON8fS0lLcd999eOyxx/gmTh45hZ/Kysqwa9cuKJVKDsMFg0H2gBcKcYjSYrFg+/bteOqppwAIoSXxLTORSECn06G0tBR1dXUABOart7c3K7aQPcD1JpJr164FIDS13LFjB/e3otCJXC6H0WgEAJSUlPBNHVh4E2KxTeJ5q6qqwn333YdHHnmE30+pVCIej7P9xGYQK0f6pWysIXGoRqvVorq6Go888ggeffRRAEBOTg5UKlVaHzJqKwEI647GMVv2AOC5WL9+Pfbt2wcAuOeee2Cz2dJuk4lEArm5uQAERq6oqAixWAxjY2MAhKaycrl8QeEdusVaLBZmI3fu3IlNmzahoKAAwPU5ombEgMDe9Pf3o6enB4DAVra1tXHzVLJ/vqCQMjWzXb58OdasWYPy8nIAQgNZlUoFhULB8+b1ehEOh/m593q9GBkZQXd3NwBhffv9/nlrLGn9EDNjNBpRXFyM0tJSAML6UavVaWGtZDKJeDzO85hIJJiR6+/v53EMBoPznjcx46ZSqaDT6Zj1NxgMMJlMaYUiiR0Rt9/QaDRIpVLcZDaVSiEWi2Vki3g9K5VKtgkQWCy1Ws32yOXyNKaY9i2FQsHSBJfLxeM1H1vIHvqb7BHrNsUNv1UqVVqxSPq3SqViJtfr9abJSzKBOFxMc0DjJGZOVSoV/wGE543YJEBo1E5SiYVCvCfOHSeVSgW9Xg+LxcIRJofDAYfDwXPU39+P5ubmrJ2rXypniQbKZrNhx44d+Pa3vw0AWL16NdRqNT9MgBA6ooZ8AFBXVwe1Wo1EIsE/EwgEFqx/oW7btFk/9NBD+PrXv47CwkJ2WGjDES+ggoICbNiwgUMmg4ODWenkTguMnI3Nmzfja1/7GtasWQNAOIhpQwau6zfUajUKCwsBCE056WHIBsRNLcvKynDXXXcBALZu3QqdTseCaTpIADCVqlQqWYQOLNwREG9UKpWKD/gNGzbgrrvugslkYhsoNEobl8Ph4FAcIHSdj0ajWQl1ibu2OxwObNq0Cffeey87bpFIBIODg7wRKBQK5Obm8u/Mzs5idnY2K/qpuY6b0+nE7t27+eKRk5ODcDjMYa1AIACFQsFzptPpoFAo0uxIJBI3FYR/nj2A8JlNJhM2btyIvXv3AhBC8EajkR2fkZERPkSo4a3BYIDT6eSQ5djYWJp27rPCQp8F8WFis9lYc7d7927U19fznuPxeDAxMQG/38+vbbfbYTabec339fUhlUqxU0kJBbe6zsVOgFarhd1uByDsiZs3b8Ydd9wBQHj2ZmZmMDExwWOVSqWgVqt5jcnlckxNTaGrq4sdFPHF6lZtocsa7UF2ux1Op5P7sy1btgwKhQKzs7PweDwArmvaaD3n5ORAqVRienqatZQzMzNpSQ43m6+5Dgm9rslkgs1mQ2lpKYdui4uLoVareU5mZ2fTklz0ej0MBgMCgQBfIi9duoTZ2dl5rem5CS0UMrJYLKz/KysrQ0lJCa9dmUyGSCSS5shR2Pvy5csAgJMnT7J28vPGZS7Emk2xPTQu5eXl7PxbrVZoNJq0Z91kMiGVSvE5dujQIZw6dWrBmjd6PukCaLVaUVZWxraUlpaitLQUeXl5fPbabDYYjUYOIR88eBCtra1ZCwl+aZwlmUzGN5Ndu3bhueeeQ3V1NQDBGw+FQqyVAIQu21arlRddYWEh8vPzsXr1av6Z/v7+eW2SN4JcLofD4cD+/fsBAN/61rfY6SCHpLe3F0NDQ7yJ5ubmori4GHa7nR8Ss9mM0dHRjO0QQ6vVYvPmzQAE1m3Lli3MQIRCIfT19eHq1asAhHEtLS1FWVkZj5XVauUHElhYrFd8wywoKMCOHTv40NXpdHC73bwZNjc3Q6FQoLKyEitXruTf12q1/FBnU9httVpZzL1lyxYYjUZMTEzg0qVLAICWlhbI5XIsW7aMf4bWGiA4mtliuogxAYCNGzeyI0ks6NmzZ9HW1sYOd0FBAbZu3cq3qrGxMfj9/qzp3shZzsvLw/bt23HnnXfygTMwMIAPP/wQbW1tAISDzmazMWO4fPlyuFwuTE1NZSWBQexsV1ZW4u6772aHW6fTYWBgAMePHwcgJE+Ew2GYzWasXr0aALBmzRqkUinWCU1NTcHj8SASiQDIPFNWr9dj5cqVuP/++wEA9957L9RqNR8cf/nLX9Dd3Y1wOMzsU11dHdasWcOHgFwuh9/vZ9vIaZivPTKZDEajEevWrQMAPPjgg2hoaOB5JPaqr6+PnQKr1YpVq1ahtrYWgDDnra2t6Orq4oOXxOefZ89cDZBKpWInbPPmzbj77rv5WdNoNHC5XLhy5Qo7ZZFIBEajEatWrQIA1NbWIplM4tKlS9xpfj62iJ1ItVrNZ8eyZcuwZs0a3Hnnnbw+dDodwuEwa9yGh4cRCoXY/tLSUthsNkxPT6OxsREAcO3aNQC3th/NtYX22dzcXFRUVKC2thZbtmwBIDw7RqORXzcQCPB+AwgOgU6nQyqV4nNmYmICbreb1/OtQrw36/V6WK1WVFdXsxZx8+bNqKur43FQKBSIxWKIx+O8F1gsFigUCnY8r1y5gjNnzszLjhvZRQ43zdvy5cuxceNG1NfXAxDmUavVprFcGo0GGo2Gf8doNPJazwYkzZIECRIkSJAgQcJN8KVhllQqFbMlzz33HFasWMFsQzAYxLVr13Dy5ElmTADBWyYa2mazwWKxoK6uDh9++CEAgYEJBAIZhXbotqDVarF9+3Y8/fTTAICioiIAAgVPNGljYyO8Xi80Gg0AgaFwOBywWq2sKdBoNJ+ZXjwfyOVy2O12zn4jVoluHV1dXXjrrbc4FV+j0WDr1q0oLi5m2lxMy9NnXQh7Qp+7pqYG9fX1HPqKRqPo7OzEu+++C0BgR4xGIwwGA992ifYVhyezweSoVCo4HA44nU4Awu1xenoazc3NOH/+PABBl2CxWJjxCYfDSCaTTPNSGDcbIHvIlpycHHR0dODChQsAgNbWVni9Xr41aTQa+P1+ZgyHhoYwPT3NNgILC+XSnDmdTjidTmg0Gr5Nv/fee2hubuZwJDGmFObyer3o6urCxMQEM0sL0XbRs2YwGLBq1SrccccdbN/AwABee+01zlD0eDzQ6/Worq5O03kMDw9jfHwcgDBWfr+fb52ZaIMA4Va9fv163pcMBgMGBwfxxhtvAADOnDkDj8cDk8nETJJWq4XZbOY15HK5MDIywuEo8fzNZ2xUKhUKCwuZodi2bRtsNhuz1SdOnEBTUxNcLheHUCwWC+x2O2enzs7OwufzYXJyku0JhULz0gYBAgNhMBg47LZ9+3YOcdNnvnr1Ks6ePctzotPpsHz5cpSUlAAQWBePx4NwOAyXywVA2Oc/j8mdW6qBWCV63fXr1zPLRQxPIBDA8PAwZyaPjo5Cq9WmaWHMZjNisRiHbm+VKZ1rC5WVAcChyYaGBtaL6vV6hMNhDsv29PRgamqK94YNGzZweQxilmhcM1nH9Hm0Wi1sNhsqKiqYAdy8eTMsFgufHRMTExgaGkI4HGYmicKlBAqBZwNinS9FYSjMHIvF4Ha701jbsrKytKzzwcFBDjlnA18KZ0mhUKCkpARPPvkkAIGSUyqVPDGXLl3CkSNHcO7cOd4cSARHG8/q1atRWVmJsrIyfogpVT5TmwBBOP7444/zwyiTyeD1enH27FkcOXIEgHDQxWIxPthIk2IwGFgELhanLwQajQYbN27kUJfRaEQ8HudY++HDh3H+/Hk+2KjUQSqV4gOIHr5s1KOSy+XsbNTW1qKiooIfgPHxcZw+fTotdErpzuIHkNKt6d8LgTikU1RUxJuQXC5Hf38/2tvbeXNOJpMwGAzIy8sDIGx2wWCQ6fqZmZmsaZbUajU7kaSP6OzsZAfF5/NBo9HwRlteXg6NRsNhuv7+foyMjMzrcLuZPbRW7XY7dDodPB4POyRtbW1sDyBsUjU1Nexkj46OoqurC729vewULCRcSYeN0WiEw+GAXq/nw/yjjz5Cc3MzO2UKhYJrrtGGHggE0N3dzeExqkWVqVNJtH9xcTGXKgCEg+LUqVPs4I6Pj0Mul8Nms3FoY+XKlZDJZGlaxeHhYd7LMg1VkrNBoVDScZ0+fRqA4Lj19vYilUrxPJWXl8PpdHJIZXp6GkNDQxgYGGAJwa06BGIolUrk5uayA0COCe05p06dwtGjR3HlyhU+2JxOJxwOB69vjUaDQCCAwcFBHqtQKPS5juRcJ4BqzNGev2bNGixfvhxarZbX5pkzZ3DixAmuyReLxbB8+XJ2gqmEgd/vZ+H79PT0LaXIi50lciLJOS0sLITT6URZWRnbOzU1hTNnznAoq6urC3K5PC3EnZ+fj1QqxfvQ4ODgLWsV55ZvEM+dWq2GTqdL2xMHBwdx7tw5AMCFCxcwMDAAi8XCshNa1+T0dnZ2ZqWMSiqVQjwe5xDkxMQEent708L6w8PDSCQSfEEoKSlBKpXiOTp16lTWSvEAt7mzRItMr9ejvr6es99IjEc1XF555RWcPn0aQ0NDaeJFpVLJ9Xk2bNgAp9MJg8HAjg3d9uYL8c17+/bt2Lx5My/2SCSCq1ev4o033sDJkycBgDd2+p2RkREkEgkYDAb2lG9FtPh5kMvlyM3NxT333JPmvE1OTuLtt98GIOgoRkdH+X2sVitCoVBadgg5Bdk4dDUaDbM3a9euhc1m45tKS0sLrl69yiwXiZaNRiNv4PF4HMFgkDfahQq8xdk2RUVFPE4KhYIdMponnU6HkpISZgsVCgWmp6dZ2ExZSwuFXC6HTqdjp8xms0GpVKbdbokBIOc6Ly8PPp+PC2R2d3djZmZmwTVOaHOntWAymaBUKnn86b3z8/PZNqfTCavVyuPS29uLq1evYmRkJO15zNQeck7MZjN0Oh1mZ2fZHrfbDbVajbKyMgCC47ZmzRpUV1fzfHZ0dKCtrY3Hiuo9ZWKTXC7nfSMvLw96vZ4dC5fLhe7ubrbNaDSitLQUmzdvxp133glA2HOGhoaYdW5vb8fU1FSafupWxoT+prVaUFCAZcuW8cXE7/ejs7OT68z19PQgFoshNzeXWdsNGzbAZrOx/a2trWhvb08TC9+Kc0J/aJ7sdjs2bNjAB7zJZILb7WYH4I033kBzczOi0ShfzPLy8rB8+XJmCWKxGNfpEuuabnV8xGvG6XSyvrWmpgYqlQqTk5P4y1/+AkC4QF67do2ZRovFwhnXgDCP4XAYFy9eZPbJ5/PdMqs8d52Ji/Lm5+cz8wkAb7/9Nt566y0uyktztnXrVgDC3qBWq+FyuThC0t3dfcuXNvHPUDYkcJ35JccQEC5gR48eZT3g+Pg4kskkVq5cicrKSgDCXhmNRnH27FkAAtO70KQpih7MzcybmZnhcRofH4fP50Nubu6n5un3v/89AGHNZ7Pe023rLMlkMt6UnE4nHnnkEfZ4U6kUJicn8dZbbwEQGKLR0dFP3TwSiQQzTR9//DF27doFg8HAg6tUKjMSUioUCg6ffe1rX0NOTg6/zuDgIF555RWcPHkSk5OTAMCeNi3M2dlZ3hxpYSoUioxDOuKQ4I4dO/DAAw9wSM3n86GxsZEdt/7+foTDYWbGdDodcnNz+XAEBLo7Gynx5LyRGHfdunVQqVTs+V+6dAnd3d28WVO4ori4mOd+enoa4+PjfMNYqCNAjEllZSVqa2t5HqkKtEql4rErKChAbW0t33bVajWmpqaYpROnVGdqD72u3W7n96mqqoLD4eDNlH7GYrGwbR6PB8PDw8zK0Thmo+ijWq3mQ8tsNsNut6eJ4QsKCmC329nRVygUaG9v58tLW1sbenp6spLdKc5kIgYnHo/zYVhbWwuDwcB7Q3l5OTtuxKq0traio6ODGcP5hrrEtojXB23OdNudmpqC1WplRsVms6G6uhqrV6/m56u3txenT59m2/r7+zE7Oztve0gAS/NUXV2N3NxcfpZGR0fx8ccfs6NhMBhQWFiINWvW8KWzpKQE8XgcLS0tAICLFy+is7MTs7Oz82KVyTkhR23lypVYvXo1XzK8Xi+uXLnCzsm1a9f4skiJHNu2bUNtbS3vh93d3Th9+jQ6OzvndVFKpVJpzpLVakVhYSE70zqdDpOTkzh58iSLtSkpgBzP8vJyNDQ0sENArHNTUxMf1vNxTujnKBOb9n7a84eHh9mWEydOYGBggM8MvV6PVatW4YEHHgAghCcTiQQuXbrEaygTKYnYJuD6GRWLxdhRozkg1iiZTCI/Px+PPfYYO58ymQw9PT04evQoAGStYDC9Np1TqVQKwWAwrdROSUkJHnzwQZacyOVytLS04J133gEwvxDyrUASeEuQIEGCBAkSJNwEty2zpFAo+LZYX1+PTZs2sZcZjUZx8eJFfPDBBwDAWo0bedcUBpiYmEAikeDWDQAyElRTiGLbtm0ArmsQSOx69OhRNDY2YnJykm8QdNsR26fT6dIKoWUaWxXHxPPz8/HEE08gNzeX36unpwcffPABhyCohgjd1rVaLUpLS9NKBczOzi5Yi0MszubNm7Fr1y4AAj3v9/uZym5vb8fExAR/dr1ej6KiIhQUFPAtLxQKYWJiIiMx7lx7lEolsyF1dXW444470koquN1uhEIhHs+cnByUlJTwjTkej2N0dJTDTQuJh4tvTTqdDoWFhXwTN5vNMBgMMBgMzBxQwT76/KOjoywOBhYeEvys9GadTscMBj2P1dXVaUzoyMgI+vr6WD81NjaWceKE2BYaI2Ib5HI5otEootEos3CFhYWor6/neUylUhgaGsK5c+c41NXd3Q2Xy8VrKBMBNdmi1WqZJYrH45iZmeH1UVBQgPz8fJ7XnJwc6HQ6BAIBZm/OnTuH8+fPM7tK9dfmWxuHhMsUli0qKkIqleL1EAgEYDQameVasWIFysvLUVdXx+tMJpOhq6uL99ELFy7A7XbPK5RL4RKj0cglNlavXo2amhp+PoaGhtDd3c3shcPhQF5eHoqLi5mtbGhogMVi4RIKJ06cwPnz5+F2u+fFchGTQ2uGilvSMz01NYWenh5cvXo1LUFBr9dzGLyhoQF33nknnxN+vx/Hjx9P03re6hoSM0upVAqRSCStlUxPTw+mp6e5DIfP54NOp+M15XQ6sW/fPi6poFQq0d/fj9dff52LrGaqEZrLes3OzmJmZoZtGRoaQiQS4YSAnJwcLrhMz4DX68Uf/vAHZpWzoVcS20fjHI1G4ff7+dlyOp3Yvn07Hn74YQ7l+nw+vPrqqyyOTyaTC05OEuO2dZbUajUXoFq+fDmL4gDB8WlsbOQN57N6l6VSKX7QxKI/WvDiYnGfB3rYSGRLoSWTyYRkMsm2nDx58jOFv7Tx6vV6DjORnmlmZiYjKl6sL6mvr8eqVau4Lx4ANDU1oaWlhen5WCz2KQerqKgorSIsPSSZgD6jUqlEUVERdu3axRu6UqnEwMAA1zEaGBhgvRQArvNhtVp5rmZmZtDf37+gh5A+r16vZ/1UdXU1zGYzj0tnZye6urrgdrt5c7BarbBarbxput1uTE5OpolfF2ITfUbqJ0YbQSAQYGeWPjetX3IKqP8ZhZYW0qj2RnVp6P0jkQivZfoebUB0EZmenobL5WKKnIp1ZlovSPxvcRG/ZDKJYDCYlixBdV7ofWZmZtDR0YHe3l4WBs/MzGRcrFM8LpR4QPMWj8cxOzubpv+zWCw8TlR4cWhoiC8IVDdoPgLqG9lEGjfaI/Pz86HRaFhrRGE3skWj0cBut7MGDRCc3KamJjQ3NwMQ9qJMLklUA4+cpdLS0rTCm7FYjCvQA0IIXKfTobi4mOtCFRUVQS6X85y1tbVl3EtQbD/NEb3u2NgYZmdnodfrWZwcCoWg1+s5JP/II4+goKCA98jh4WGu+L4Qe6jiN50/IyMj/IzQHlNZWYloNMqXuvr6euzevZsvL5FIBGfOnEF7e3tWxcupVAp+vx/j4+NpeziFLwEhoeGRRx6B3W7nveby5cu4ePEi71MkbclGjT5yLgFhT7RYLOzQVldXY8uWLbBYLPwe58+fR1NTU9qZL3YIFyoruW2dJfHira6uTmuo2NnZiStXrrBD8FkbjlgAWVtby1kg5NgEAoFbnkzaYKxWK1auXMk3NqqwShkD7e3tfKum16bDSBwTt1gskMlkHAOfmpqa98KihqKURbVp0yYYjUYkk0nWal2+fDmN5Zo7LmVlZbBarbyxAwIblYmzJG7caTAYsG3bNjQ0NPDB5vF4cPr0ab5lU1l8cvZKS0uxYsWKNP1UT08PJicnM25HQXZpNBoUFxdzKYn8/HwEg0G2paWlBX19fQgGg/wZqHAlObZTU1OYnJxcUGNGqkCsUCj4dc1mM1KpFN90e3p6IJfL0w5io9GIqqoqPhxzcnKgUCgyYktuZI84vVmj0aRpGQKBAKdt0+/QIQQIt0txy4OFiMzntjigVhTAdYaWWFmC2HGbmJjgavikc6P9IdP5AsCtZUwmUxozLdZ3WSwWaDQa3iui0Sg8Hg+6u7tZ9zExMZHm2GZiE1XHFicfWCwWaLVafq7z8vLSKryr1WquDk6H9eXLl3HlyhVmShei5aLGt/S1OIVcr9ejrKwsbV5zcnKQl5fHToFGo8Hk5CRnKF+9ejXjJr6pVIqfi5mZGQwNDfFrmM1maLXaNP2fTCZDYWEhtm/fDkA4bzQaDT+PH3zwAdra2jLSlpE9gPCM0poABO1WIBBIcyTtdjuUSiU7cnv27IHNZuPX6Ovrw/HjxzE6Orpgtl38u5RIQxlmgMC4abVadtQ2bdqE6upqyOVyDA0NARAqdvf29qbtQ9kq7wJcvyz6fD7YbDbe/0hLSlXeAeC3v/0tBgcH+XfI6RhS7cIAACAASURBVMtGEg4gaZYkSJAgQYIECRJuituWWdLpdJwJNLd9yLVr125Jx6JUKjnssm/fPmg0GgSDQS46OJ8CWuRd5+fno7Kykm9EVO+CYrYul+uGtyGVSsUZBDt27IBWq0U0GuWaLD6fb979oKhmB8Wz169fD6VSiWAwmEb7i7NbaFxobKl4HQBmuXp6euZ9o6MbP8WPS0tLUV9fD5vNxowEFVmkmLI4ZAAAFRUVKCkp4ZomgMAiZpLVIM580+l0sFqtWLduHddbMZlM6OrqwpUrVwAIGVMulytN35Cbm5tWXsLlcmF0dDSjDC9x5ptSqeQ+TGSLSqVidmRoaAhutxsej4dZitLSUlRUVPBnopRdsS4uk9ucQqFICwkSM0JzotFoEI/HMTQ0xEyNeJ4BcKhMzJYshMkRZ4iKm2fm5OQgNzcXNpuNn31qvEzjQGslHo/zmp/LPGcybyqVClqtllssAALbR6Et4PotWKyxSSQSCIVCzFJEIpG0vmOZQNx7jWyhTCsx4yZuIErMTywWYyappaUF/f39/KzRMz/feUsmkwiHw/w6pCEVM5Hiec3NzYXFYknTJrrdbrz11lvMLI2MjGTc+oXmHxDYPWJGAXAIl/SrgBAtWL16NZdU0Ov1CAQCXCz3yJEjGBgYWDAjSOuB1ge16BLLSIxGI4qKilgTW1hYyPWOAOD5559nqQett2wwOTRm4ubyGo0Gubm5rA/cunUrtFptWnr+sWPHMDU1xbZk2jrosyBmuBOJBK+XiooKmEwmRCIR/OlPfwIAfPjhhzcs6fB/XrOk1WqZJiXxMT38LpcrrV+OGHMr2j7++OMAwIdkT08Pp1x+ltbpRq9JttCBTu8Ti8UwODjI6eSkCQLSKfzCwkJO/6ytrYVMJsPExATrBTKplGuxWFBVVcWaII1Gg0gkgrGxMXbCvF4vUqlUWrdmu93O6cNbt26FRqNBLBbjWhlTU1PzDntR5XCyZdmyZcjLy0tLrT5x4kQaZUsiVdIt7NixA2azOU0Ddvny5Yz0JlQYDxA2nJKSEixbtoydn8HBQbS1tXHRR2rS6XA4eNOk4nW07sjRyyQkKN6YTSZTWsNKCqnRger3+3kTpYtCQUEBysrK+DD0+/3cwwqYP9UsbpRLPZUAwXErKChgbQD1p/N6vRy+KS0t5XUDCPMYiUT48pGpvoxSvsUd181mM9fComfP7XZzWCsajaK8vJwdfgrXU1NhGptM9UpzNVRarZaF7gUFBbBYLGlFSjUaDdtrMBgQi8UwMzPDP+P3+9PClJnYFY/H4fP5MDg4yA7I7OwscnJy2Jmempri8Bdwvd+jx+Ph+jznz5/H8PAwOxKZOgKJRAIzMzO85wwNDcFgMKRVLVcqlXw52Lx5MxcXpTX/+uuv43e/+x06OjoAXN8PM3VKyHl2uVwIBoMcNqJ6clqtlveH2tpa1NXVsb2BQAAHDhzA//zP/wAQzoxsNKgWO8+AEJKdnp7m0DcghE937tzJjc9VKhUmJibw7//+7wCEcfJ4PFlzSsTrMBQKcdN34Hr3BDorSktLEY/HceTIEbz00ksABKc2m9qpubaJnd5IJMKX/PLycsjlcpw9exbPP/88gOtJXIuF29ZZAq4fMGq1GqlUKm0TNhqNaS0CgOs1YgCBAXrqqafwzDPPABA2fZ/Ph1/+8pfcuPVWJ1nMUhgMBuTm5vIim52dxdjYWFqtI7HYjWzZs2cPvv71rwMQnJxoNMptIwDMq+EfjYvNZoPdbueDTS6Xw+v1oru7mzchuhGLxcT19fXctb2srAwymQy9vb2cFTMfloug1WpRUFDAB0VZWRk0Gg3Gx8c5K2l4eBipVCpNq+N0Orna+MqVK6FSqeDz+fhWN5+CawSq0UXx7fLycq4NRILo4eHhtEw8qtWzZs0azt4rLCxEMplkh+qjjz6C2+3OSIhPOqzCwkIUFxcjJyeHN0hAmFNyRnw+H8LhcNphR21i6Pb+0Ucfob29PeOij+LCeGazmRMoHA4HcnJy2CGguiuTk5P8bFVXV3P2FSAcLmNjY7zmMq3WPVfQTQVkqRZPVVUVotEoLl26xOykyWRCaWkpsztUJHJ6eprHJtMNVCxUjcViiMViaRXpTSYTpqenudZVIBCA0+lMK9jn8XgwMDDA9mYqEhYjkUjA5/Ohu7ubs8cqKyvTkmAAYX+gRt2kZWxra2P2pru7O00XtxB7AoEAOyiTk5Np+im1Wg2j0ciNa2tra5GTk4N4PM4FD1988cW0Br4LgfisSCQSCIfDafpFYk5JkH7//fcjNzeX9+ADBw7gRz/6EWcWZusAJmeJ1lQ8HmfNK32vtrYW+/fv58u5y+XCv/zLv+DgwYMA5qeznQ/I+RLvbVqtFrt37+b9UKlU4uzZs/j+97/Pzme29EC3guXLl+PRRx8FIOwNk5OT+K//+i9+/hbTUQIkzZIECRIkSJAgQcJNcdsyS8FgkDO6gsEgbDZbWmbb1q1bmZWZmppCPB6HUqnk28LevXvx5JNP8m2LYptvvfXWZ4bwbgZiIEKhUJpWRKlUIi8vj7PjIpEIMyh0A73//vvxzW9+k295iUQCLS0tOHDgANPz8/HQ6eZNt3DSLRDroFKpmJHw+XwYHx/nm4rT6cSjjz6K9evX889OT0/j4MGDnNE3n9udWIvjcDiYJs3Ly0vTLQBC2EIcTqXGn1SGwWq1IhaLoaWlBceOHQOAtBj6fGwS3xyrq6u5rQDdOI1GI/Lz85nxUSqVqKysxM6dOzkTRaVSYXx8HK+//joAoUZOpvopcRi3qqqKdQDA9bAKzWssFoPZbEZZWRkefvhhAMK8pVIp7l/V1NSEsbGxjChwcTZkTk4OnE4nZ57m5+fDarVySG18fBwejweRSIQzr+rr6+FwOLhCfW9vL3p7e5kZW2gtLBqrsrIyrF27ljMYE4kEenp60lLv6+rqUFBQwMwvhSc9Hk/WwwNKpRIWi4VDo1R9mcZBqVRyCxFAeI5aW1vR1tbGLHg2br8UnggGg2nlSMQaTJVKxXNL/z86OoojR45wBmg2WQpxNmQ8HkcsFuN9lrRe1KuPMqra29s5hNLZ2Tkvdn0+don/pvE3Go0si3A6nUgmk1xh/Mc//jGGh4cXjTURh76ITaX9+rnnnkNBQQGP3S9+8QscPHgwqw1qP88uWlM7d+7Es88+y8/W8PAw/umf/gmDg4NLxiiRLUVFRfjbv/1b3oPi8TheeuklNDY2ZrW2081w2zpL4XCYaVC3251WHHD79u0oKSlhuntoaIj1DVT6fO3atbBYLLxhNjU14ec//zkmJyczOuzodQKBQJouSaPRoKqqig+f/Px8DA8Pw2q1chhox44d7CgAgtD5Rz/6UVp9ivlATCmL20FQV+vKykpe4CUlJZienuaHkRoKk5MwMzODV155Ba+88gqHqDLZQEl/RGnUpHshjRR9z+12s6NZV1eHiooK1jLE43F0dnbixRdf5FpMmdDy5JyIa3IUFRWlFVKk0vn0tUajQU1NDYqKinguZ2Zm8P7773Mrgky0XGQPzYfVauVeVTRv0WgU09PTHKrx+/3Q6XTYsmULH3YKhQK9vb3cVqClpWVB/fvIMdNoNMjLy2NNn9PphEqlYg0ehVSMRiNrF8rKyhCLxTip4dKlS2ljuRCQowsIGony8nLeIAcHBzE9PY1AIMCh3NWrV8NqtXLI7eLFi5ySnc1wBRWkzM3N5fUaiUTg8Xj4YCsvL8eqVav48nLt2jWcOXMGExMTWS/WJ66FA4CLZdIc5OTkoKGhIe1wef/99/HBBx9wyZXFOvDI6aU9xmKxYP369di3bx8AIXzp8Xjw4osvcoh+MRyluTYB11sLPfLII9izZw8AYQx7e3vxH//xHwCwqI7SXJuUSiVKSkrw7LPPAgDuuOMOJJNJ3nNeeOGFJXGUyB6NRsMX6X/8x39ETk4OP1s/+9nPcO7cuUUPdxHEbcW+853vYPXq1TyPzc3NSzo2wG3sLAWDQX6Q/vznP6OwsJB1FJQRQ86Iz+eD1WqFSqXijVYul6d13f63f/s3XL16NeOiYjQpAwMDuHr1Ki8os9mM3NxcZrDKy8vh9/u5ei8gPKDhcJhjqz/5yU/w/vvvZ8RwAdc3ObfbzbV/AGFDNBqN0Ov1zFysXLkSkUiENR3kCFDm2+HDh/GrX/1qwbeFeDwOv9/P4xSPx/lwIaegsrIyLRuEtFTESLS0tODll1/Gu+++u+CHgLInAPDGbTAYeE7I0SRQ0cVUKsXZQu+99x7+8Ic/sOg00w1dXPcFENaD2WzmA1+tVqO4uDitdhetZTrwBwYGcPDgQdZyTU5OLmi+aGySySSUSiU/Wzk5OWlFU4uKipBMJmE2m/lyolQq0dPTg8OHDwMQNq75FHj9PNB6MRqNvJ4BcBPY5cuXM7tDtXGILTl+/DjGxsayftukS4lCoUgToOfn5/O81dfXo7i4mFmkd999F5cvX85KU+obQVwF3maz8R5Itmzbto3/v6WlBW+++WbGNcvmg7mNoWtra/HEE0/w+gmFQvjjH/+Id955hw/ixYRYy2q323HXXXfhmWee4T1xYmIC//qv/8qRisUSLM+FQqFAXl4eHnvsMXbc5HI52tra8M///M8AkNHlPlMolUpUVVWx41ZVVYVYLIY333wTAPD73/8+K5qyW4FcLofNZsOTTz4JQMhmVyqVvDf//Oc/T2sIvxS4bZ0lum0DgrMUCARYrO10OjnsAwibKFUOpUOpt7cXf/nLX/Dyyy8DECrCZvoQiLMrZmZmcPHiRd6U9u/fD6fTyU6Iw+HgwmL0ftPT02hsbMShQ4cACCzXQjYJel0KOdBDf/LkSRa8itPmE4kEe+Szs7Po7e1lweDhw4cxNjaW8cFLizUcDmNgYIBtUSqVSCaT0Ol07KBotVoWNAKCQzM6OsqlHF599VWcPn16waxAMpmE1+tldsRqtXLWFM2bTqeDSqXicQkGg3C73eju7ubu6K+99hp3a18IxM52X18fiouLYbfbOSyr0WhgMpnSWmtQmxdib5qamnD48GHeLBZy4IkFsB6PBx6Ph8XZVOiUQmHFxcVQKBSIx+NpWYFvvvkmN6x0uVxZy8xJJBL8DJMAlmyx2+2ora3lFiyAMFYXL17kVOaLFy8uyoZOmXEqlYqzqEpKSrBp0ya+mJhMJoRCIbz99tsAhH1ramoq6yyFWAgvZuGqqqo4k3Pt2rUwmUxcufqFF17AhQsXMq7Mf6s2AcJ6LioqwqZNmwAIMoQtW7bwz546dQovv/wyd7FfTBB7Q6HRHTt24Nvf/jaWLVvGl7SXXnppQZfX+UKcGbtr1y5861vf4nmcnJzET3/6U04qWUoWJy8vD/v27ePojEwmQ2dnJ37xi18AACcTLDYoQWfXrl3Yv38/ACGMHA6H8eqrrwIAGhsbl8ypJUgCbwkSJEiQIEGChJvgtmWWxELg/v5+vPPOO3wb3rlzJ1asWJHWdoCa2VLo7tixY/jwww9ZB7IQL1TMLCWTSbS3t/NNPBQKYfv27ZzebLFYkEwmEY/HuVbQG2+8gaNHj7IGa6FMBd02fD4fYrEY20Kajq1bt2L58uUAhDBhIBBgPdKHH36Id955h5slLqThqRjhcBhDQ0MsvO3o6EBbWxtaW1u5ZggxXiRqb29vR1NTEz7++GMAgpg4G+ET6nNEgvWJiQlcvHgRBQUFaaJvEpQDAhPZ2tqKpqYmLgC30Oa0YnuISbx69Sqi0SgGBgZYR7Zs2TKUl5dzqMDn86GzsxOXL1/GqVOnAAg9rTIRl38W6HN7vV709PTwzTsej6OmpobDylRDaWBggOtwvfvuu+ju7l6woPtGSCQSPFaTk5OYnJxkVs5kMnGolFjnCxcu4ODBg7yGFiusQ/3wVCoVhwULCwuh0+mYKZiZmUFTUxOz2Z2dnYty+yW2hPq9AUK4tL6+nkt3aDQaDA4O4sCBAwCEmzjVXFsMiLWTNpsNK1euxO7duwEAW7ZsgUwm41Dpyy+/jGvXri2qMJdYWmqcToV79+zZg7q6OkQiEWYAX3vttayxo58HcS/Puro6PPXUUygvL09juRobGxeNAbyRPYDAtK9btw579+7lc3V6ehr//d//zWfFUrFcMpkMZrMZ69at44ShaDTKSVGAwIgvZQgOuI2dJaLkAcEhGRgY4E3o0KFDyMnJ4YHMycnhA5JoZ4/H86nK1QuBWOMRjUbTwip/+tOf0kKCVCmcCueNj49npb4KgRYJNTklwebExATa29vx2muvsdBap9Nxx2bg0+OSrQVHtV/EVXw7Ojpw4sQJPlwoVEkbQTAYRCAQyKgi9uchFouxlosKTlKPOABpneMB4WEMh8MLakh7M4hDsj6fD62trRxK0uv1XFUYEMYnGAwiFAqlVejOJugzzs7O4tq1a6xhO3bsWJqIWSaTsTZO3Ch3McaIwoO0nltaWjg0CoATBjweD188rly5guHh4UUXCFMT38HBQdZBTkxMQK1Ws0apr68PH374IddxWyx9B2mVqH4RvZfYsZyamsLFixfZIVhIqP1W7FGpVByCr6iogNPpZF2Zy+XC4OAgjhw5AkC4sJFzsFj2kANrNptRV1eH+++/H4DQ5SAcDuPixYv44x//CEC4KC1FRhU186aL7KOPPopVq1YhGo1yjbsjR45k1FQ9E4i1XMuWLcPdd9+NsrIyvnAcPnwYjY2NS6IrE0Mul8NgMKQV6h0cHMTzzz/P+tGlDsEBgGypvbMbGiGTffFGSJAg4QvH3KrZ9D0gPeWasNj7F928SZMjLrtAFabFrR4+q6l3tm0ix5+0iRaLhbVlALiRsLiK+WLaQ0kLgJARXFtby87T7OwsWlpa2CFfrMKKBPEcFRQUoKGhgRMBCgsL0dHRgSNHjnAUYrEE+HNBXSUefPBBAMCTTz6J/Px8dHR04Mc//jEAoTzJUouoAeCee+7BX//1X6OiooLHhZKiltox0Wq1KC0txa5du5g5bW9vZ3YUyPpzfyGVSm38vB+SNEsSJEiQIEGCBAk3gcQsSZAgQcKXDHPZti8Sc9vUEMQFIbPR7HU+9lDWq9Vqhd1uZwbO6/XC5/PB6/UuWTFDgkqlQkFBAZedWbZsGYLBINrb27nx+VJl5AECs0RyjZqaGtTW1iIWi3Em3pUrVxY9vH0jUDsag8HA7x+LxbKmIb0BbolZkpwlCRIkSJCwYNxuDhxwPU2fbMpWA9pMbVIqlaxVBASt5BdpkzjMLJPJliSMfBvilpyl21bgLUGCBAkSvjy4nQ5ZsuWLEAJ/FkjfttSM1s2wlI1wv+yQNEsSJEiQIEGCBAk3geQsSZAgQYIECRIk3ASSsyRBggQJEiRIkHAT/J/SLIlrtNC/KSa7lNkYYnvob4VCwWJDEvQlk8k0+5bKJhIaAoIAkuwkW2Kx2JKJDsVzplQqucGtWCwajUbTioIuhU3A9Wa7c7N8xHV1lirmL+69JbaRsNQZRzeyYS5uJw2LBAkSJCwEX2pniTZrlUrFXdGrq6sBCIXRUqkUenp6AAiNdD0eD/x+P4v+FuugUygU0Gq13GBz48aNWLlyJVfb9Xg86O3tRVdXF7dE8fv9CIfDi3LAyOVydo5ycnJQV1eHzZs3AxCKtsnlckxPT3Pj2ebmZoyOjnIBsGyLJOe2IqAWJPX19aioqIDJZOKU0ampKbS3t3OhtJGREUQikayPEzltWq2WC6GtWrUKtbW1XIk4lUohEAhwlfjW1lZ0dXUhGAwuyloSz5vBYEBBQQGcTicAobieuAjhyMgI+vr6MDIywhV3s92eQDxvWq0WFosFgFAQ0Wq18v8nEom0FG1ASIlejHYJ5ESKGySr1epPOdyxWIzHKhwOIxaLLVr7BnJqqVij+EIwt7BmKpVCPB5f9MsA2XAjB/dGF0xx2v9SYq4tcrn8UyUIvgiI7RHb8kVeCMRjdbvYQvgibRFn+AHIGiEhheEkSJAgQYIECRJugi8tsyQuaV9YWIg777wTjz76KGpqagAIPYESiQQX2Dpx4gQuX76M1tZWbiqbzX5tBIVCAb1ejxUrVuDxxx8HIJSSLykpYY/X7/ejv78fx48fR1NTEwDg2rVrmJmZyXqpe+r/Q73rdu/ejccff5yb26pUKiQSCczOzqK9vR2A0LC0qamJ2Z3Z2dms3RTm9m3atGkT9u7dCwD4yle+AqPRCKVSye/t9Xrx8ccf89gFg0FMTk5mfd6owWVFRQXuueceAMADDzyAZcuWcduGeDyOaDSKoaEhAEKD5HA4jJ6enqwXb5PL5dBoNNz/cNOmTaivr8eGDRsACMxpMpnk3nG9vb344IMPcPbsWe6flM0ibmQPIPRou+OOO7Bu3ToAQkG7oqIitmV2dhZdXV3o6OhgW/r6+uByubLCUopv+DqdDg6HA7W1tQCA5cuXIy8vD2azmRk2r9eLgYEB7ic3PT2NmZkZbsYbi8UWtL7pBktriJoQU+Nms9nMRRGDwWBa30i3241QKMQ93VwuV1aYUxojmjO9Xg+NRsN/ADADR2MZjUY5tZ3Gzu12Z9UeQNgjlUolMyIEMUNIdioUCv6ZQCAAj8fDYfBszBm971xbUqlU2ryq1WoYDAa2DxDWOc1btvYjMVtEdtzoZ5RKJfd1UyqVSCQSfHbE4/FFYXbmjhF9T7ynK5XKNKZ0KRivuXNJz5pWq0U8Hs/aHH0pnSWq0JqXlwcAeOihh/D0009jxYoVaRRcIpHgbtO5ubkoLS2FTqfDhQsXAFxvLpmNyaQJ02g0WL16Nb75zW9iz549AISNihY0IExoVVUVAHATzqmpKbjd7qwXdlMoFLDb7XjggQcAAN/73vdQUlLCCyqZTCIej0OhUHCIp6ysDBcuXFi0B456SG3ZsgXf/e53sXGjUA/MbDazlovCT6lUCjabjQ/9aDSaVbtovZCDu3//fm66SSFKQiKRgEaj4fCTTCZblJAgHbqVlZXsSN53330oLy/ng06hULC2DBAOvu7ubm4QnG17DAYDr9mHH34Y9957L0pLS/m9xSHBeDyO8vJymEwmPnTHx8fTnoFMx4wOXao8vG7dOuzcuRMNDQ0AAIfDAY1Gk9azjZwTanDb0tKCy5cvs21+vz/jjVSs/3M4HNi4cSNXaK6trYXdbodGo+F5CgaD8Pl8GBsbAyA4I4ODg2xbPB6Hy+XKuDggrVe1Wo28vDx2Iqurq2Gz2dKKIlJTcJq3YDCISCQCt9uNvr4+AODwZSbzNtfZEDuRBQUFvJbpc4vrD1H4UqFQ8GE3ODiY1hR8Pnu32Akhe+gSpNfrYTAY0vacRCLBc0YXYLIJENZMKpXiC0Im54g4tEdOmFarhVqt5rG5kSMndggAIcQtlpdkunbIFlpDtFZoXMh5FetcSWdKP+P3+9MaAS/UoRWvIbEsQaFQQKfTQafTwWAwABCqtRcVFfHv+/1+tLe38/pZKL6UzpJCoYDD4cBjjz0GAPi7v/s7FBcXQ6FQ8EM99+ErLCzEXXfdhWQyyQ+bz+fLyuErZrlqamrwzDPPYN++faxRIoeEHqxIJAKNRoOSkhJmws6dO5d2MC8U5OlbLBbce++9ePbZZwEIJfblcjk/WJFIBOFwGGq1mg9ak8m0KPoAcgJWrFgBAPjud7+Lbdu28dglEgkEg0FEo1HeDFKpFEKhEHeizyajJJ638vJyPPXUU9i7dy87c/F4HH6/n1kjnU4HmUzGDx/dcrM1TjT/Go0GZWVl+NrXvsbspNVqRSKR4LUbi8WgVqt5kyWWKRwOZ3WMaGOurKzE/v37AQCPPPIIzGYzP1/0HNGc0S2cNn6y70banfmANnOz2cwO9pNPPolt27bxJurz+TAzM4N4PM7r2WAwoKysjMdlYmICKpXqU9WLMznslEolcnNzAQA7d+7EY489xhe0ZDKJmZkZzM7O8nvrdDosW7aMHc3h4WHIZDJMTk4CANs13zmkzyBm2++++25mSZ1OJyKRCEZHR+F2uwEIc6DRaFijBwCTk5Po7u7mdTY2NpaRPeLECK1Wi/LyctTX1wMA1q5di6KiIvj9fnYafT4fr2lAWO9qtRqzs7PM5NJB/HmJBTcaG/GzpdfrUVpairVr1wIQHEmz2cz7s9vtTos6aDQaWK1WyOVyTE1NARCYUo/HM+89ey7DRo5acXExAMHBJjYSEOaINHb0tVarhVarZWa0q6sLly5dYud/vvYA6ewZnVtFRUWorKxESUkJAMBmszEbSc86aQSJ1frggw9w9OhRti1TZpvWj16vByBcpIuKilBeXs62FRUVIScnh9n3vLw85OTk8FidP38eP/vZz5hRXigkzZIECRIkSJAgQcJN8KViluimUlJSgu985zt4+umnAQgeJXngdFOZmppCIBDgm0pVVRV0Oh3q6upw6dIlAAIdL862yBQajYap92effRb3338/tFotv67b7cbw8DBmZmYAgG/qSqWSaUObzbYgG8SQy+X8evfffz/+/u//nj1yhUIBv9/PNPvk5CSHfOhmLdZYZAN0e9FqtVixYgWeeOIJAMCGDRug0Wj4RtTV1YXBwUHo9XosX74cwPV4vJgxzFbYVKPR8Ljs3bsX9957L/R6PWdwtba2YnR0lNfQihUrYLFY+NYUCAQQiUSyogsibRkgsFx79uzBAw88wBTz1NQUmpubmYGQy+VYsWIFZ+pNTU1hYmICHo+HWcNsaDq0Wi1qamr+f/beO7jN88gf/7zovRAEQYK9N4mSKFnNkmU1F1mJW2zZ4zTbSXyXu1zKpNzdJFdm8s3MZeJc7pLcXZJzkp8dR+6WZTVbjZJlSaQqKVIUewU7QRAsIECU3x+vd/1CLhEB0HZy2BmPTZrA+7xP2Wf3s5/dxb333ovbbrsNgOhN9vT04PTp0wCA8fFxKBQKRkkJxejp6cHAwAAAca4SwQ0yGAxYtWoVvDfinQAAIABJREFUo8pr1qwBAM6WrKmpgcfjgUql4j1UVVUFhULBe76/vx8jIyNxhVAA8SxZrVbceuutAIAHH3wQFRUVPP91dXU4deoUpqamGOWqrKzE8uXL2WOemprC2NgYc5gIGYxlPAqFgqkJt912Gx544AFGsHw+HxoaGnDmzBlGRg0GA6qqqlBQUABAXFcK5xCy5Pf7FzweKSUBEPfz7bffzrQEh8PB4+nv7wcgorRarRZLly4FEL1mNDfEqVpIiIcQN0JgTSYTSkpKsGnTJmzfvh2ASNGYn59Hb28vAODy5cvw+XyM7lRWVqKoqAh+v5/vjv7+/qhQ3Y2OhRAcQEQ8MzIyUFpaiptuugkAcPPNN0chfbQ/aM0sFgvsdjv0ej3fdeFwmLm5NzoWGg/dqYSe5ebm8n6orq7G6tWrme9KEYn5+Xn+nMVigVKpjOJsXrx4kdHLWFq7SOeJwu1lZWVYvnw5o5P5+fnQarVQKpU8nxQdofenM54o5P/PxlgSBIE30eOPP44vf/nLHHOORCLweDxobm7GsWPHALw7UcTDsVqtSEtLQ1ZWFsOKJpMpbtKpXC6H0+nEo48+CgBsKIVCIb7Yjhw5gqamJt7wpaWlSE1NRUpKCpcXIF5TvJwlSn+nS+SJJ55AYWEhQ79erxdnz57FqVOnAIiGXGlpKex2O29M6YZLhFCIJD09HTt37sTtt98OQAz3+f1+XLlyBQBw8OBBjI6OoqioiI0Aq9WK+fl57sadyJCX1WrFhg0bAIhkbqvViunpaZw8eRIAcOrUKczMzDBEbrPZIJPJWHm73e6EcahkMhlzoVavXo1t27bBZDJheHgYAHDo0CE0NTWxUkpNTYVWq+W5bW5uxuDgICYnJxNiLJEytFqtWLt2LTZv3swGdEdHB15//XW0tLQAEJV1Wloaw/d6vR59fX3o7u7my3Bubi7u0K5CoYDD4cC6deu49EUoFMKFCxdw4MABAEB7ezs7IXTefD4fxsbGuExHZ2cnvF4vG0uxhN8AUTkXFRVh48aNAICKigoEAgG89dZbAMRz397eDrVazeUxKPRFBrnL5UJPTw/ripmZmZiMb0EQoNfrmXS/bds2FBQU8Lmpra3F4cOHo3htJSUlMBqNfO5nZ2fh8XgwODjIF3Gs4yFDEhAN2rvuugv5+fkAxPVoaWnBiRMneA+p1WqUlJTwxWy32zE9PY2ZmRl2TsbHx+Hz+W7YMKF/S8NGubm52LBhA+666y42JOfm5uByuXD27FkAQEtLC2QyGRvbmZmZsNvtUXeF2+3G7OzsDd0d0lCXUqlkQ5kSJVavXo1NmzbxewcCAdYxV65cQU9PDxsEa9euhdVqhV6v57VVKpULdtqu50oZDAakpqaipKSEk0g2bNgAu93O7zg2Noaenh643W7WiSaTCWq1Oor7CSSGqyQIAu/VjIwMFBcXIycnh9+ZwqX0N5mZmdDr9exYt7e387lKhPzZGEs6nY49k0cffRRmszmKg3D8+HEcPnwYDQ0NAMRDDoBRi6VLl8LpdLJnCojKjGrmLFToABiNRtxzzz341Kc+BQCMKLlcLuzZswcAcOzYMQwNDfFntFotfD4fVCoVG4BGozEhmQMymQy5ubl48MEHAYhoiFKp5Pmora3FSy+9xF52JBJBSkpKFKlaq9UiHA7HTcYF3kUDAGD9+vW488472fulOlh79+4FINbCikQizD+jz/t8Ph5/ojKX1Go1CgoK2KjMysrC/Pw8Ll68yMZSd3c3tFpt1AH1+/1swAwODiakNhahSmQgFhUVISUlBRMTEzyWxsZGjIyMMNKkUqkQCoU4Ht/W1obW1lZ4vd64OUtS7ktWVhYKCgqiPNnDhw+jra2NL3ybzcZeOAD09PSgpaUFzc3NjKbGg8DRmul0OhQXF6OkpIQvj9bWVhw5coTrqfn9fqSkpCA7O5u5DOPj42hsbGTvm2pRxbq/aTwmkwmlpaV8qQqCgObmZpw4cQKAeOn6/X6kpaUxOb6srAzhcJizBNvb29HR0cFzGavxLZfLkZqaymMpKCjg8QDA0aNHUV9fj0AgwDqnsLCQ9QMAJsFfu3aN1y3W8ajVanZUq6ur+XIFgKtXr2Lfvn2oq6tjrkteXh4yMjJ4ntRqNYaGhtDZ2ckG1cTExA2d/+s5TQqFgg3CiooKrFmzBunp6Yx6NDQ0YP/+/aitrQUg3h15eXn8GYfDwQg46c3Ozs4bMiSvJykrlUrWhzk5OcjPz8eKFSvYsCTE7ejRowBExNTv9zNRf+XKldBoNFAoFJwc1NXVhfHx8QVlCV5fnFitVsNkMsFisbBhbzAY4PF4+E49deoUmpubIZfL2UEoKyuDTCZjJ661tRWjo6NxO2x0/5BBODU1haGhIZw/fx6A6PTTuaE98/nPf56BEwA4ffp0QjO5/yyMJblcjoKCAnzxi18EIHrVkUiED/SBAwfw+uuv49y5c0wEptRPUojLli3DmjVrOEsEEA2bWCeSLvMVK1aw8UYyOjqKF154Ac8//zwAEbINBoOslGgzajQavvyA+MnLgiDAbDbjvvvuY2KnVqtFIBBg+Pjpp59GXV0de9UajQZ+v58zCwBRuSTi0gVEA4PCM+RdkhfS39+PF198kT1xr9cLs9kMtVrNCkWpVGJ2dpYvk3jHRM+2WCxYvnw5h0/VajX6+/tRW1vLxTnn5uZgMpk4i8dkMmFubi4q7TsRHcQp24wuusrKSqjVaoyMjEQRJc1mM5OJaQ8TWtLR0YHR0dGEwM4ymYznv6ioCHl5eRAEgc/b/Pw8rFYrX7oOhwNms5mRnPHxcTQ1NaG/v59/F0+oUlpqIjc3FzabjZWoy+VCIBBghJaK0zocDn52a2trlLEUDyIoDZfa7XZkZWXxufZ4PGhpaeEQhNlshsPhQFVVFZOJZTIZGhsbOWx45coVDA0N8fssdJ5oP+v1ehQWFrJhD4hOJBkAZExmZ2cz+rRx40aYzWZe10uXLuHy5cvo6+tj52ShaAUgnqW0tDQsWbIEgEigDoVCfK7279+PM2fOYHZ2lqMD+fn5qK6u5rNGiPPFixfZoZ2enr7h8UhJ1CkpKXzOV65ciZycHPh8PjQ1NQEAXnjhBZw5c4bfmVAWSkSxWCyYn59HQ0MDzp07B0BEWQKBwA2NR5o5ptPp2IjPyspicjntmdOnT2PPnj1soMzNzcFsNnN40uFwQKfTYWZmhvXmmTNnFlwmhPa+NIyo0+mQmprKjs/IyAhOnTqFgwcPAhCN/0AggKysLDZ+zWYzZDIZO1I1NTWYmJiIS0+Hw2HIZDJEIhE25pRKJdxuN++Fvr4+zrClMjg2mw2RSISjJjU1NXzPJUL+JMFbEASNIAh1giDUC4LQJAjCv77z+98LgtAlCMLld/5Z/s7vBUEQ/lMQhHZBEBoEQahO2GiTkpSkJCUpSUlKUj5iuRFkyQ9gSyQSmRYEQQnglCAIB9/5f9+JRCIvXff3dwIofuefNQD++51/L3xwkhYd9957L1vXcrkcs7OzqKmpASB6BvX19fB6vVGWsiAIbLFfu3YNgUAgimAXS0osfY48/EcffRQFBQXsyYyPj+OVV17BSy+9xJ4UWbcEVVLrBynBLhQKxU1eViqV2LZtGx577DH2+oPBIFpaWvD0008DABNOpc+x2+0wGo38DpOTk3HVniGRyWSw2+249957AYjkRY1GwzDpgQMHcOzYMfZKZDIZMjIyUFlZyUidz+eDy+VKCEIhjYFXVVVh06ZNjNCEQiH09PSgv7+fQwMGgwHZ2dlYtmwZANFzaWlp4XWNt+ijlPuSlZXFnmxBQQGnOJMXSn3qKFRnNBqjeDhNTU1xe3Q0JmkNs9zcXK7LRehNRUUFCgsL+RxpNBoMDg7yvFy7dg1tbW3wer1xw/HXF8NMTU2NQmOzsrKwbNky/p3NZoNWq0VXVxd757RmhDrfKCLwQeOhPWS326HVahldnJ+fh8lk4tIBZrMZubm5yM7OZsJ0XV0drl69ikuXLgEQUWifzxfTeKS6jIi/hHK53W4MDQ0xWuJ0OlFeXs5hKECcq7GxMQ4bvvXWW2hubo5ClWMJ6VgsFpSXl0fVvOnq6uKEgI6ODsjlcjgcDj5bW7du5VZVgBiqO3XqFBobG6PKhtzoeEivGo1GlJSU8HPKysoQDAZx6dIlvPHGGwCACxcuwOfzMa+pvLwcW7du5XWUy+VoaWlBTU0N18O60RZH0vFSeJt0c0ZGBiwWCzweDyNWR44cQX19fRQfqaCggMnoxPtqa2tjZInCXgs9Y1Kqxfz8PK8f6eNr165F8coCgQCMRiM2b96MzZs3AxAjFx6Ph6MoV65cSUiBXrq/aT9HIhFMTEwwqj86OgqTyYRbbrkFDz/8MIB39dBLL4kmydDQUELb9fxJYykirgBVdVK+88+HrcrdAJ5+53NnBUGwCIKQEYlEBhcyMGnxwtWrV+OBBx7gzUwGwHPPPQdAhI/f7+KSFg2bmppiUhttisnJyQVvMFLeFObavn075HI5b+6TJ0/iueeeQ1tbWxQpWVpfw2AwICUlBUqlkse8EIj5/cYEiArxiSee4L54gLhhdu/ezQqRCt5Ja6BI+9YBIsR8o0TKDxIyTLZs2cJcM7PZDJ/Ph7q6OgDAG2+8ga6uLj5clKlSWVnJREG3243+/v6YybhSIYIwIBpuZHwD4uGjkAg9Kzs7OypbSK1Wo7u7m3kL8ZK7aQ30ej1zcej34XCYK4oDoqGgVqvZSJ+cnERXVxdn8NAFl4gQnFar5eekpKTwRUgGlNFoZOMeENfo6tWrrMgGBgYwMzMT93jozEirUMtkMvj9fuaTFBYWorCwkJXq/Pw82tvbmXsDiBwqquMDxF7jiZS3tDDo7Owsh7GcTiduuukmrF27FgA4xNTf38/k4QsXLqCtrY3Dq8TlWmi2GdWhoXNLzgWNRa1WQ6PRcPhp1apVKCgogNVq5Quyu7sbZ8+e5S4C165di2ndyAggfV1SUoKCggI2KoeGhqKyNPPz85Gbm4vc3FweX1FREdRqNZ+tN954A+fOncPk5OSCuWWCILD+cDqdKCsrY/4UvXdTUxOH9i0WCywWCyf+3HLLLbj11lt5/dxuN958803U1dWx0RvL3pYWfKRxjo+Pc50kQAydqtVqnrvs7GzcddddnIii0WgwOjqKvXv3sjMQS+j9epqK3+/H1NQURkZG2Jnt7OyE2+3msaSlpWH9+vV47LHHWI8Gg0EcPnyYDU+v15uwqt2RSCSqi4TP5+M9lJeXhxUrVuDhhx9mvTQ/P4+DBw/izJkz/HMi5YY4S4IgyAFcAFAE4JeRSKRWEIS/BvD/BEH4JwBHAfx9JBLxA8gE0Cf5eP87v1uQsaRUKjn+vmbNGmRnZ7Mn7na78fLLL3Ml7hsh2hkMBl50KUH3Rg0UKQqQnp4eZQBEIhG+tF577TW0tra+L/GXLkfyKARBYKXZ09MTM8pF73XrrbeioqICMpmMDbWamhocO3aMnxMMBqNIh+np6SguLoZKpWIvtKWlJaYCZ0B0s9Xc3Fx85jOf4YMF4D2E7rm5Of4MZfM4HA6+/EZHR9Hc3ByXt0KXi8FgYL5GdXU11Go1t745e/Ysrl69irGxMfbWMzMzsXTpUvYEqYkuoZXxoDjSTJTrG9FOTk5CJpNhfHycFTql0RIRlNoKkBcYbzNfKQmVLlr63unpaej1+qgUXSrVAbzrlNBcTk5OxkXEvz6TSdpiYnJyEtPT04ywGQyGKITY6/Wiq6sL/f39PDcejyfKsI0lDV5qoNA5np+fh8fjYeNap9PBbDZHVYIeHR3F5cuXuZVQW1tbVNmCWC4WQk6kPENq7UAoDFXJJrRGo9FArVZjbm6OeR9vvfUWLl68GNUeJ5Z1k8lkXOgRENGboqIiNuCoYCkhp+QMZWVlMUdJpVLB7Xaz4dbQ0MBlDGKZH9q/qampXGQXAJfXkMlkfL9kZGRAq9UyUfiWW27hCxgQ9eGVK1fYkFyoSPcdtZYCRKeCogxkROXm5iItLY2dgerqatx777187sPhMJqamtDY2Bi3Aynde8FgECMjI3C5XLxuMpkM2dnZ/M6ZmZl46KGHorKr+/r6cPToUb5fgGhSezxG0/UEb7vdzk5cbm4utm7dCrvdzs9qb2/Hvn37+O6ic5KoptA3VJQyEomEIpHIcgBZAFYLgrAEwD8AKANwE4AUAN9byIMFQfiKIAjnBUE4v8AxJyUpSUlKUpKSlKR8ZLKgbLhIJOIRBOE4gDsikchP3vm1XxCE3wH49js/uwBkSz6W9c7vrv+uXwP4NQAIgvAe85MKpgFi1oZKpWJ0oampCTU1NQw5f1Cti+vT1snDIETK4/HcsOVL3qLVasWaNWu4FgUgZiz8qcwE6VjWrl3LfdCoxtDg4OCCrXAqB0+ZCdu3b4dWq2X+DfDeUBcJeaTLly+Hw+GAXC5nxOTixYsxQbvXF1zbtm0bqqqq2BMfGxvDq6++ynPl8XgQCoXYCywqKsLq1auj6jxRaCxW1A0Q50mtVqO4uJj5GhaLBW63m1PzT58+jYaGBszMzDA3Jy0tDU6nk8Mu4+Pj6O3tjavmk7THEYUtHA4HQqEQo5PDw8OYmprC6Ogov7fFYsGKFSs4JEgeE3lRsaJc1HuK5kqj0UCr1bLX6na70d3dHcWrITSTPkMIE+0xQifimR/6b2njVyqIJ0Ub5ufno1rQDAwMYGBgANPT0/wO8YQDpXtIqVRCr9dziAcQ9QKFa6i/GO13apjd0dHB9V6mp6ejxh/rHGm1WlgsFkbYHA4HtFot65i0tDTY7XY+W9ScemxsjHVOR0cHurq6eD/HypmUyWQwGo1c4DU7OxupqalRWWAmk4lrKFGYSVr4dnp6GufOnePUcEJdYu25Jm3sKq1bRI3DDQYDozXUjoWQpdTUVMhkMi7LcfjwYQ5RxtLzjP42FAphZmaGa48B4AKTNFdUD5D4UnfddVcUyuVyuXDw4EG0tbVFIbuxCr2P3+/H2NgYWlpa+HmEXJKe2rhxI5YtWwaFQsF37/PPP4/z589H6aFEhOHoO+gd3W439Ho9o5dVVVXIycmBSqViNPU3v/kNLl++/J5m9B9Z6QBBEOwA5t8xlLQAtgP4N+IhCeIq3wOg8Z2P7AXwt4IgPAeR2D25UL4SIPJXpIRXABySqK2t5XT8DxO1Ws3EuHvuuQdKpRLj4+NMDJ+dnb3hiSSFSBcuhWYikQhcLheTF0dGRt5zcVG6MVX6Xb9+Pdc+Ii6RlJx+o2IwGJCWlsYF+qqrq7nxJNXpOHv27HsIpAqFgut2PPLII1zjiZRoe3t7TL2pdDodH6yioiJs27aNC0/SWI4dO8Zh0EAg8B5uGlU2p7W+ePHigtZJOh5pb7DU1FSsW7cuiqd05swZ3gv19fWYmpqCSqViqLe0tJTXHXi3b1Ys3BdpWjUZJHR5WK1WCILAPbBmZmYwODgIt9vNhkJRURHWrVvHROb5+Xl4vV5WUgtVUNKLTKlUcqiLLjF6biAQQE9PDxO2ATHcVFBQwJcjhcoS0WmcjBL6b2nhTZPJxJ3fpf3NKCQJvMv9e7/mr7EaAoAYJqJ1o0vebrcjPT2ddUEoFILf7+fP+Hw+TE5OYm5ujhU4VX2WjiUWp4R4ZRTiJh4k7SnqJUh7lfgpc3NzfNFR4sT1lcxjrfMkJeO63W5+tkqlgkqlYr6PXC6HSqWCTqdjI7e5uRk1NTWsg6i8Qyyhk0gkwvthZmaGw8P0juQgkNGbl5eH3NxcdpIEQUB/fz8nxRw5cgQulyuqVlgsc0SdCMipoLAn6V/g3aQAqmOUkZEBmUzGiRz/9V//hQMHDmB4eDjuCvRSiUTExtPUVxEQDUu73c6lbtavX8+O1IsvvghANJaowTG9Y6KME+k6+nw+7mEKiGtGdwvVMzx48GBUvSnp9yRCbgRZygDw/73DW5IBeCESiewTBOHYO4aUAOAygL965+8PANgBoB3ALIBHYxmYxWJhxIQqYlNctKurCzMzM+87CXQJELnxm9/8JgDRWwiFQjh69ChnHiykcjdd6MXFxVi6dGmUV33hwgU0Njbyd0p5DoB4QVZVVXGVb2rP0tLSwkbWQupB0PeazWZUVlayAUA1lVpbW7nWBCkjGq9SqURmZiZnECxZsoQNLKqC7PF4Yqr3YrPZmCNRXl6O1NRUzM3N8UE/cOAA+vv7+buVSiXMZjNXr/30pz8Ng8GAUCjEPIra2tqYUS4yenJycriMP128TU1NOH36NK/b1NQUFAoFMjIyuIP98uXLoVKp2CA5fvw4BgYGYkJxyNNNSUlBRkYGUlNTmRug1+sRDAbZiOzt7eULjTypiooKlJaWRnG52traooylhc4PIO5ro9EYVX3bYrGwkej3+9HZ2YnJyUl+Vl5eHjIzM/lyGR0dxfT0NBtTsfKVqNIyXWJarRZms5kNgMzMTJjNZnR2dvL+CAQCKCwsZIeKEGhqRQPEfplIM7w0Gg2MRiNsNhvrJWoySu9NhWaJb0IFVaemptj4T0Qlc3on6cVE7SrIyB0ZGcHMzAyPhYj6g4ODjDoPDAxgcnKSL7pYOR3hcBgejwft7e38s8Fg4HXUaDQYGhpixGL16tXQ6XQQBIHR1Ndffx1vv/02I0DxcN6kzdI7OjowPDzMjhMVhZQ2r928eTOcTief0d7eXvz85z/Hvn37AIgE9XgylaXIkpSkPDMzw4avFF2/5ZZbGOWSyWTo6urCD3/4QwBiJX8p6T0ekb4PodR+v5+RRo1GA5vNxgWXnU4n/H4/Xn75ZfzsZz8D8G4NwUQZJNePjwwfagNEDhrVfjt9+jR++tOfAhD5U4lsIn693Eg2XAOAFe/z+y0f8PcRAH8T/9CSkpSkJCUpSUlKUj5++cRW8Ja2AlGr1QiHw1F1UjQaDWdvkTUp5QVVV1fjH//xH5n3JJPJ0NHRgSeffJK99hu1hqUVje12e1Rq/sTERFRoRqVSMdRLXl5VVRW++tWv4uabb+a/8Xg8ePrpp9mzWohFLO3blZ6ezinnlEF19uxZRikUCkUU78PhcGDXrl245557AIB76bz11ls4fvw4gNhSUZVKJRwOB2eYlJaWQq1WY3BwkENd3d3dzLOi8a9duxaPPfYYANGrEgQBw8PDDIFLkaiFiEajYc+RkAeHw8Gea0tLC3MSADGMkZWVhS1btnCTVmqwSaUO9u/fvyCem1Ro/jMzM1FUVITMzEz2dmdmZjA5ORlVIZvm85ZbbgEgchdSUlIYXd23bx+amppizoghhMpqtSI7O5tr4mg0Gs76At4NJXm9XuZ4VFVV8bkCxNId165d43BHrN4dpebTWXM6nXA6nYwQpqamwufzobe3l5Eau92O9evXM2rhdrvh8XgwMjISc1VsqUjnValUIj09nVGs3NxcTE1NRZ3h0tJSRtyCwSA8Hk9UBmUiGi8T92VkZITPEvXworEEg0GkpqZyiF6lUmFiYgINDQ1RNZ4SUfE9FArB6/UysjQ6Oor09HRGtagfGq1ramoqNBoNhoeH8corrwAQ27EMDw/H1aeTJBwOR/HoJicneb8T7yw1NZX5i0uWLIFKpeLsySeffBJ79uzhNUtUrZ5wOMycOwAcsg2Hw7yO69evx6ZNm3i8HR0d+Pa3v810DdrTiRJae0I7pW2vLBYLPvvZz3J7MEEQ8MYbb+D73/9+VBPfxRRpFvq6deu4Zp9Go4HL5cKTTz7J+24xUSXgE2wsBQKBqGJkAJivkZ+fj6VLlzLHgyBXnU7Hsd4vfelLWLp0KSv9kZER/OAHP0BDQ0NMkyoNqRFpEADXfKHS/hSHNxgMbMQ8/PDD2LBhA0OtMzMzeO655/DSSy/FlKJPY6GDTyFCn8+HiYkJbg8DvBuWoLFs3LgRmzdv5tBGKBRCa2sr/ud//oeJh7HMj0Kh4BATIBoFdNGS5OTkwGQysWJYuXIltm/fzmOlkva7d+/muh0fFG79U/OjUqmiwiXFxcXQaDQ8HoPBgLy8vKjaQaSoiAcSDodx9epV/O53vwMg9meLtYs2GUvZ2dmcWk3vRZc7KSmz2QyNRoPVq1dj69atAN5tLHr48GEAInE/VuI78G7Cgs1mQ0lJCYdPiT9BhtvAwAACgUDUxXvnnXciJSWFL+aLFy+ipaWFnZd4SgZIjdzKykoUFhbyGk1MTKCrqwsTExPMXVixYgVKS0v5TIyMjKCzsxMTExMJuXilZy09PR2lpaVcfsLn83EvLEBcI6fTySFMl8uFtra2hBVVJaFLDUAUn8vn8/G6AaKxSQ6nXC5HR0cHzpw5ww5DIvoa0nhCoVBUSFgul/N+oOQKKgyZkpKCubk5HD58mENdiTKUSKTcImnxxWAwCIVCgaKiItx///0AxLnzeDz41a9+BQDYs2cP3G73ooWWrufQCYLAVITHH38cWq0WAwMDAIB/+Zd/QU1NzXtIy4sxLhoL6aovfvGL2LVrF9+hly5dwg9+8IMFldyJV+jZVVVV+MpXvsL7eXp6Gk8++SROnTqV0H3zYfKJNJYEQcDMzAz3M/L5fDAajVw07P7770dlZSVXU/X5fEhJSUFaWhoXhMvIyIBCoWCE5V//9V+xb9++mC872kykYGgRLRYLtmzZwtwSl8vFHiYZAZmZmVCr1Vzs68UXX8RPfvITjI6OxkymBERDSKFQsBGmVquRkpKCDRs2sHfr8/mgVqtZURGiQcrj2rVrePLJJ3Hy5Mm4ahkR/4g2s91uh8VigU6nYyM3KyuL+0YBIuJDXApA9EhfffVVPPPMM3F7Lmq1mjlBOTk5yMvLg1qt5vXPzs5GSUkJG24OhwO5ubkwGo38N9euXcP//u//cvZeLERzErrUdDodnE4ncnNzWSlR7RV6Z7lcjoyMDBQUFERVMj979izXqOro6Iir6Jq0HlZKSgoX7SNjl8aatKNmAAAgAElEQVSiUCiQlZWFvLw83HTTTQBENGpychJHjhwBIBLlx8fHE2YIECKRk5ODZcuWMQLX3t6OcDgMq9XKxt26deu4WCggFoXt6OiIuU7YB4lGo4HT6URWVhbvX2pgSlJUVISsrCxW3rW1tTh37lwUaTZRQpcaGfZWqxXz8/N8qaakpKC0tJT399jYGA4cOIBr167FzHP7UyLtPJ+ens5Go1qtRnl5OSeVhMNhNDc348UXX2R0dzEvPGndJWp+/MADDzAKPjc3h3379uGFF14AIBrli2EoSccDiGfLbDZj8+bN+PrXvw4A3ED7F7/4BQDRKVpsQ4mEeKe7du0CIBpuKpWKOW7/9E//xGdwsYXWjHTOd7/7XWRmZvI+efnll/HCCy8kHGn7MPlEGkuRSARjY2NcoGzdunVYvnw5H/yCggLk5eVxiIIyCqTVuefn59Hb24sf/ehHAIBXXnkl5omNRCKMSPT19WFwcJBDEgaDgVEKem4oFOJqw4CoHLq7u7ni+K9//WsMDQ3FRWAERERtZmaGjRza7Ha7Pap1gHReIpEIvF4vz+1vfvMbnDx5Mu5NF4lEosiL1DQyNTWVjdzKykooFIqo1PBAIMCI1h/+8Ae89NJL6Ovri1t5BoNBVjJUyt9oNEalfUs7rlM7kcnJSW6w+dRTT+Ho0aNs5MaqJCKSSrQzMzPwer2cbg2AjVeq1k3ZaVJj/9y5c3jqqac4JEhee6wiJZnOzMyw4abX66HVahm5oUvPYDDwhTM0NITjx4/jj3/8IwAxpJkIhU6ETtqLlKlH4RtCnKSNPI1GI1wuFxuRVIA1UQpdGqYgJ4UuO4PBgNzcXD5r5JBQNeYjR45EZQolUihkSedar9dzSAd4t5Av7d2XX34ZR48ejalrwY2KtPxETk4OG5Umkwm333477zFCsuvr6xNeZfl6oXmiUO7q1auxYcMGrFu3jtfl5MmT+O///m9GcxbbGKB5MpvNuP322/FXf/VXTFyenJzE73//ez5bhEgutshkMphMJjz44IP49rfFKkAGgwEjIyP48Y9/DAB4++23PzIURy6XIycnB9/4xjcAiGdLEAQu7vqrX/2K9/ZHJTdUlDIpSUlKUpKSlKQk5f+qfCKRJUAMOxAR8Ze//CXuvvturplkNpuhUqmi6noQSkHewf79+/HSSy9xmYB4vTuy8JuamvDqq6/y91VXV0e1glCr1ZzSSxB9fX09fve73zGBWsrjiUXI85mcnERfXx+jDVqtlsNN0h5EUpSlo6MDhw4dwjPPPANAbLOSCG8hEAjA5XIxj6W9vZ2Lz0l7adHfAmJo4NSpU3jzzTcBiHUyEgGBRyIRzM7OcpjW4XDAYDCgtLQ0qvkrjQcQ53JoaAiHDh1iMmVtbW3Cwjk0/83NzbDZbDCbzVxHjPoEklDxwP7+fg51nTx5Ek1NTQlDKcijpxYH1ATXZDJBLpcziqTRaJhLRgjgoUOHcPz4cbS2tgJIXAgl8k7bFCKxDw0NYWJigsNyDoeDW1MQ+nT58mW8+uqrzOXq6+tLKKpE30WIl9/v57BgSUkJSkpKuGVHIBBAXV0dnn32WQDimsWLAH6QUOFFWien04mcnBze02lpaZiensahQ4cAgBHbxSDBXt/Dz+FwoLy8nEMoDocDqampzDF95plncOLEifc09E70mABR51gsFu6t9ulPfxrV1dVQKBSMAD711FNobW39SFATabLQpk2b8Oijj6K8vJz1w/79+/HMM8/wGVjMcCDw7jzpdDrcfvvt+PKXv8wo3MzMDJ555hnmlX1UIS8q+/LQQw9xUhSh7P/xH/8BQNSji03ovl4+scZSIBDg7JoTJ05gYmKCf66urkZaWhorhmAwiNnZWVy+fJkX9vTp0xgfH0/IhIbDYTaWqCknVeTt6+vDkiVLmKsjCAI3OSVFdfjwYQwNDSUMcqZ3Ghsbw/nz55lf0traivXr16O8vJy5LsFgMKpo5uuvv47W1taE8xaoHg8dqI6ODhQXF6OyspK5CgaDAbOzs1zb6OTJkzhx4gQrhkRC8n6/P6pDeEtLC/Ly8jgkmJGRAZ1Ox+vY0tKC8+fPo6mpiRMGEgnHk5EzMDCAEydOoLu7m0O3DoeDjRRAJLv29vaiqamJG4vG2/vteqHv8nq9UcT1jo6O92QyjY6OorW1lRt3Njc3Y3p6OuGKnIrQkZPR2NgIpVLJeyo9PR1yuRwej4crPZ85cwbnz59nB2QxxgSAq0C73W7eH0ajEXK5nAnetbW1ePPNN7nGGTUVTbSQoSRtpGu1WpGamhrVA62mpoYL9sXLcftTolAoeCxFRUWoqqri8GQkEkFXVxdee+01AKKxnSiO2wcJnSWDwYCKigqmbKxcuRJyuRxXrlzhxI26urqPxBAgHg5xWbdu3YrKykqEQiFutPzss8+iu7v7Iwt3kZNWWFiIT33qU8jLy2Nddfz4cezevfsjM9xI5HI5ysrKcMcdd7AzMD4+jt27d3Ox5Y+KxyUV4aOagA8dxPu0O7nu/0e10tBoNDCZTOzJaLVaTE9PY2pqiuOY8RQ1u5GxEHKjVquh1+uZxAyIBsr09DQbWIs5FmmrCioToNPpeK4CgQDm5uZYGcRaFfdGRDovVNBPpVLxOlHHeEp39/v9i+odSFtVECdJylGSFj0LBAIIBoOLzlegSsfSuSIelxTFoBTjxR4P7RmaF1ozumzC4TBXz5W2D1nM8ZCC1Ol0XAgSEM+aXC7HyMgIG1QTExOLwgmSjgcAZ53m5+ezkUtlFsjgvnr1Knp7exNOLr9eyEiy2WycmVdaWgqz2czP7u3txcWLF6MchsUS4t8R2fzmm2/GypUrmbM0ODiIxsZG7gbf2tq6qGtGjX0Bkd+2detW7Ny5k39uaWnB/v37cezYMQBieZLF3NPSQslOp5PH8vDDDyMnJwdXr17Fr3/9awBiCYXFysS7XhQKBa/RfffdhyeeeAJZWVnsFP34xz9GTU3NoqGj14uUC7hz50587Wtf46ztvXv34ve//z0Xo02w4X8hEoms+lN/lOQsJSUpSUlKUpKSlKR8iPxZIEtJSUpS/m8IeZckkUiEf/dx6Cp6tpQDeP144ukXFotQdqtCoYgq2jc/P89jIQT5o0jzJu6UNLvTYDAwIjE7Owuv18uhk48CLaWxFBQUoKSkhEtiuN1u1NfXo7Ozc1HC7e8ntHcsFgvWr1+PLVvE5hcVFRUYHBzEq6++yjzJ92vCvhhCvfGoLuGuXbuwbNkyjI2N4amnngIg8qdiqXMXq9A8ZWZm4rbbbsOyZcsYSTp+/Dg6OjoWC5G8IWQpaSwlJSlJSUpSYhYpFQB4t/Dix3W3UI9BQAzlSkt3+Hy+hDZ7vdHxAGJiUmlpaVSZgPr6ekxMTMRciT9WoW4XRMJfsWIFfD4f3nrrLa5Zthi8xA8TCv3bbDZkZGQgHA5zUsDs7Oxihm6TxlJSkpKUpCTl/55Im5l/nIabVIh3S/yoUCj0kVXCfj+RVusWBCGqFcvHKR8DknxDxtInNhsuKUlJSlKSkpRY5PqWIp8Ekfas+yRIJBL5RI2H5JO0ZlJJEryTkpSkJCUpSUlKUj5EksZSUpKSlKQkJSlJScqHSNJYSkpSkpKUpCQlKUn5EPmL5SxJszOAjz+GLZPJokiHRDwkst9HPS5pM1uqCEzjoxTkj5p8SGORyWRRTUuDwSDP00c5Jlon6bpJi0d+1HMkTauXjgl4bxr7RynXp/tL5ZPKP0hKUpKSlIVIEllKSlKSkpSkJCUpSfkQ+YtAlggZMZlMyM7OBgCUl5cjNTWV61d0d3eju7sbIyMjXPo/GAwumucrbSyZlpaGFStWoKioCIBYR2J6ehq9vb3cLJiahi5W2X1pY0mTycRjqa6uRn5+PjQaDc/L1atXcenSJbS3twNY3D480magdrsdy5cvR2lpKfcmk8lk6O/v56aXly5dWtRCaYIgcOsPo9EIp9PJPa4yMjJgNBoxPDwMQGzb0NTUBK/Xu2iIjrQoolqt5v5bBoMB6enp3K6AGgEPDAxwm53FbiVDLXWUSiWUSiX/TI1mA4EA92ybm5tb1LRkaWsbKtZIv5M23AbENjsfRZo06SWZTMbPvh7FpZRtaTr5Yo7nesSdfg+8265ImtK+2M1KPwiVlLZykqKmH1eq/fWtpagcwceZ+i+NDkjH8nGiudej7x/nWGg/0xji3ct/EcYS9bjZsWMHbrvtNgDA0qVLodPp2Fi6du0azp49i7q6Ou6WPjw8vCiGABVFo67yd999N3bu3Ml9btRqNaanp9HX14eamhoAYuPfc+fOYWJiAkBiNxkpaEA0SDZv3ox77rkHAFBVVYWUlBSEQqEow/LFF1/ki87lci2KUqAeTiUlJQCAbdu24bbbbkNRUVGUUhofH+eGoGNjY2hra1uUi44MJepFtnLlSmzYsIGr3KakpHBvMkDs4xQKhdDQ0MC99xZr3bRaLTIyMrB06VIAYhE5acf7rq4uXL16FRcuXOBGxR6PJ6Hrdr3hZrVaAYh7qqCggMditVoxOTmJ8fFx9Pf3AxAbUI+NjSV83WiOyDExm80wGAxITU2NKkxIvSMBsTAhjQ8QjadErRv1RATe7WGp0+l4LGTM0VkjB4UK7o2NjWFubi5h45H2H6TK2jQ+6f8DxMskFApBJpPxOo2NjcHv9ydkH0kNROo/SAb29WFlhULBPR3pDMzPz8PtdvPcxTsm6TPpGfSztHI8rZlareZ9plQqMTc3x71IE72H3q+SvfT/KZVK3lNarRYKhYKdpKmpqUUpvCkd0/Xjob2k0WigVCp5bXw+36L1Rv2gMdJaqtVqaDQavuPn5ubiMpj+rI0lOuR5eXl45JFH8Pjjj8NkMgEQy/+Hw2E+9DqdDtnZ2XA4HNxA8eTJkwnd5MC7ZeRXr16Nv//7vwcgGiQmkynKQ1IqlVCr1bx4PT09jJ4kWhQKBZxOJwDgi1/8Ih566CFkZmbyeAVBQDgcZkVgt9ujxpZokVa03bFjBz73uc8BAJYtWwaNRgO5XB7lmQSDQV7rxUIDqCN4VVUVN7rcsWMHbDYbt04gIQWfnp7OCmsxxqNUKpGVlQUAWL9+PTZt2oSKioqoZ9Nc5uTkwGAwYGRkhJunSj28RI0HABwOB5YsWcJNXAsKClBYWMjzpFQqMTk5ia6uLm6eOjMzA6/XmzCOnrSRdVpaGhvc1NoiLS2N0UmVSoWZmRm43W4AIiJ45coVvnSlyE48IpfLodVq+ayVlZUhMzMTVquVG7vSmlEjUJ/PB5fLhd7eXgBAY2MjRkZG4ka9yWijNcnNzUVRURGsVmtUIUKpkUDGksfjYfQ0HA5jZGQkbs6ntACixWJBbm4uMjIyGIUk/qb0OZFIJMpwGx0dRTgcxtjYWNTfxDIWmUzGzzaZTLDb7fwzoWu0J6SGG+mhSCSCsbExNnKDwWDMukm6DhqNBjqdjvcLnTnpOVYqldBqtfwZuVweZQjEYxRIDTVyimgM1MhaajRR2x2au1AoBJ/Px47J+yGZCx0P/Zva/ABgQ5tQbRpfamoqzGYzj62/v58rksetc+L6dFKSkpSkJCUpSUnKX7j82SJLCoWC+Ulf+9rX8PnPf577AAGihTs/P88QnFqthtPpxObNmzmMcvXqVXi93oSgFWQBazQarFu3Dj/5yU+Y60IePj1nbm4OCoUCGo2GOSc6nS6qMWai0C65XI6MjAx873vfAwA8+OCD0Ov1/P00R2Sx07NnZ2cXBTqVyWRs+e/atQvf+ta3uMklZb7Nzc2xR0KcDgoJJhrtovnW6XTYsGEDvvGNb2D58uUARHhb6mFK/x4Q0ZJAIPCh2WCxjkmr1aKiogKPPPIIAGD79u2wWCzvyagkUalUDIEnWsgLp/189913Y8uWLUhNTQXwbphC6vUZDAZEIhF0dnby76QZofHsLZlMxohJcXEx7rjjDqxaJXYrSElJQSQSgUKhYO9cr9cjFAoxshSJRNDT08NIB53PWMdE7202m1FVVcWNUouLi6FWq6POl9lshtls5v09OTmJK1eusJ7S6/WQy+Uxh1FofpVKJex2O9atWwcAuOWWW5Ceng6fz8eho3A4DIPBwDpIqVTC6/Wip6cHV69eBSCG4MfHx+PSkRRuJ329fv16rF27FgaDgUOho6OjCIVCjNpaLBao1Wr4/X5Gktrb2zE0NBTXeSMei8ViYZR22bJlKCkpYaTG4/HA7XbzO6tUKphMJiiVSg6bjo+Po6WlhccWixCipFKp+CxVVFSguLiYEWWZTIbZ2VluSkwRAIPBEIW49ff3w+v18vfGMhbiIdK5sNlsKC8v53VLS0tj5J/2plKphF6v52f29vaioaGBoyQ07ljnhsai0Whgt9uRl5cHQETW7XY7TCYTHA4Hj8/pdPIecrvd2L17N/eXi1f+LI0lpVKJ6upqfPe73wUA3H777VCpVIhEIlE8m+7ubt5QS5cuhdFohNlsxpIlSwCInYx7e3vjNpYEQYBerwcAbN26FT/84Q9RVFTECtLv92NkZIQXzev1ori4GEajkS83OoyJunjpe3NycvD1r38du3btAiASgwlqB8CHLDs7m9+BSgck2liSy+Ww2Wx44IEHAADf/OY34XQ6+TlTU1MYGhrC5OQk87v0ej28Xi/H4xMZ/5YabnfccQf+7u/+DuXl5XyRTU9Pw+PxsBLSarXQ6XQ8dwMDA5iYmEjYmOi5JpMJW7duxWOPPcaGGylqgrdnZmbYQKKf29ra4HK5mD+ViBAczdH27dvx4IMPAhD5UnK5nMcyNTUFv9/Pio0MhKtXr6KrqwuAeAElIqFCLpfDarUyN/HTn/40lixZwuGQ/v5+vtzT09MBiGHlSCSCjo4OAOB5oosvHn4H8SUB4M4778SOHTtQUFAAQOT7XLp0CePj43wR5+fno6SkhMMWbrcbw8PD7MBNT0/HPE/SUGl2djZ27tyJO++8E4AYOm1vb8eVK1fYQFGr1SguLubx6vV6zM/PIxAI8CU3Ozsbs36k/azValFaWoodO3YAELmJJpMJLS0tzB8dHx+HRqNBWVkZANFo0Gq1GB8f57EEAgEEAoGYQrnS0JLJZMKqVatw++23AwDWrl0LrVbLe7W7uxtut5vPVkFBAaqqqiAIAlwuFwDg8uXLCAaDHE5dyFmTcqHICCCjdvv27Vi6dCk/2+12o6mpicOixIXNyclhnXjp0iUMDw9HlTS50bmRJkZoNBpYrVZ2Xqurq7Fp0yYOcavVagSDwaimtlarFUajkfd3V1cX3G43GhoaFjwW6fyQoUQ8yOzsbCxZsgRr1qwBIIa4tVot1Go1G0dqtRpms5nHMjk5ifT0dN6/8eqePytjiYyP6upq/Nu//RtWr14NQLxIQqEQRkdHsW/fPgBAfX09RkZGWJEJgoCVK1fCZDKxdZqRkRGFqMQqGo0GW7duBQD86Ec/QkFBAeRyOV9a9fX1OHbsGB9Gi8UCuVyOyspKvmAoBk2bNx4ERS6XM2/i61//Oh5++GE2hEKhEFwuF44fPw4AuHLlCoxGI7Zu3YrCwkIA4qZKFKkTiDYC7r77bvzt3/4tAHH+BUFg7+ztt9/G5cuXoVarWXnk5+fD6/UyKkA8k3iFuGWbN28GAPz1X/81KioqIJPJMDo6CgA4f/48mpub+TOlpaXIy8tjfgkZmokiv9IFumbNGnzhC1/ATTfdxAd/YGAAFy9eZIM7EokgPT2dPdChoSFcu3YN/f39CelgLkXc1q5di0ceeYTRGwDo7OzEuXPnAIiGEBnCgOiRTkxMoLGxkS9Dr9cbt1FJCMWGDRsYcausrMT8/DwuXrwIQFwzn88XZdQSX6qlpQWAyFkaHBzkSzjWMdHFS3vokUceQW5uLjtsp0+fRmNjIyKRCPOnrFYr/H4/J3K0tLSgo6ODM089Hk/Mxpt0DW677Tbs2rWL9d/w8DDOnDmDK1eu8J7KyMiAWq1mBG5ubg4ulws9PT08nvHx8ZjGIyW6OxwObNu2Dffeey8AUQ+4XC4eDyDq9tzcXEZYbDYb/H4/vF4vJwl0dXVhYmIipvNG+1mr1aKoqAibN2/G9u3b+Xculwtnz54FAB4TGZGZmZlIT0/H7OwsG0djY2MYGhpa8B6SIsIKhQI2my3KcFu3bh2USiUbR+fOncOVK1f4ncvKyuB0OpGWlsbrGAwGo4zKGzVupcRsQqsKCgqwbNkyAOIeKisr479xu93o6upCb28v3ydr1qzhqAggGtxk1AKxOWxSfhIhyIWFhVixYgWqq6sBiHfu1NQUxsfHeT4zMzOj0PfZ2Vm0tbXxWOKVPxtjSSaTcbr7P//zP2PNmjW8QPPz8+jp6cHu3btx6NAhAKJyCAQCyM3NBSDCditXroyCPO12exTBMRZRKBSorq7GP/zDPwAQL3e5XI7Z2Vk+fL///e/R3NzMxlNFRQVGR0ehVCr5HYgAnogMD5vNhocffhgAcP/998NoNPL39vT04Le//W3URbdkyRJMTU1FEQZDoRBvsngtcvKS1q5di0cffZRhXTJMnn/+eQDAW2+9hbGxMZSWlnLWlyAImJub4wvI5/MlxDhRKBTIz8/HXXfdBQBRhhJl3p05cwYTExNskKSkpCAjIwNDQ0MAgL6+vijScrzjIQP31ltvRVVVFQCwYbZ//37U19fzHrJYLJienmblTdlwtO+B+NZNetGtW7cO5eXl/J5dXV04ePAgG0KAaFSR0WsymTA8PIwrV64wuXJ6ejrudaPQ+9q1a1kXBAIB1NfX4+TJkwBERJnCzHThTE5OYnBwkInv3d3djHQBsc+TRqNBcXEx1q9fDwDIysrC9PQ0Z7heunQJo6OjcDgcjGBqtVr09vby3FH5CUKWYk04IXSb9s3NN98Mh8PBTsYbb7yBS5cuwe12s07MyclBaWkpP6+lpQUXL17E+fPned/FmplHoS4AWLVqFTZs2MAoweDgIPbv34/a2loeX25uLnJychhZ0mg0GBgYwOXLl3H+/HkA4rrFMh6p4ZaWloZVq1ZxGBAQz/HevXt53cbHx5Gbm8vhnYKCAmi1WoyOjvIeamhowNDQ0ILPmpTMrdfrUVhYiJUrV/K6KZVKdHV14cCBAwBEnTgxMYH8/HwAwOrVq2G326FSqRhZImNbGqq7kXFIkUi1Wg2LxQKn08lrkJubi3A4zO987Ngx1kEUnVm2bBlHdQDx3u3s7GTUORbE7YOy7mQyGeuY0dFRXLp0CS6Xi/fZQw89BKfTyXqqtbUV9fX1iUsqievTSUlKUpKSlKQkJSl/4fJngywZjUZ84QtfACCSFZVKJXvVra2t+NWvfoXXXnuNLU+yaIk4STFnSu8F3k1Lj0XI+s3KysL3v/99RkIUCgVmZmZQU1ODf//3fwcgeiF+v58/o1armf9C4vf7E0Kq1ul0uPvuu/GVr3wFgIiGhMNhDgH+7Gc/w4EDB9gLEQQBOTk5SE1NZU9rYmKC66sA8SMUFN773Oc+F8UJGh8fx7PPPos//vGPAERom8ZDXp1er8fU1BQGBgYAxO7pktCzbTYbtm3bxiEUlUqFiYkJvP7664wsuVwuyGQy9ohtNhvUajXvsaGhoYTUxKFwDoUet2zZAq1Wi4mJCUZMzp07h/7+/qgaIgCYf9LV1YWBgQHMzs7GjeBICdRr1qzBxo0bo967rq4O3d3dHEpSqVSQyWT88+TkJFpbW9Hb28t8r3j4SrRmFosFq1evjkKVBwYG0NjYyIgbnStBEDic6vf70dnZicHBQQDinM3NzcU8T7QGNpsNN910E3vZgBieJE8cAJxOJ7KzszkcNj4+jvHxcQ7vdnR0YHR0NIo/FYsolUo4nU7muOXn5yMQCDDRtrm5GcFgEFlZWUxsXrFiBSKRCJO56+rqGFUiZCAW/Xh9QsCKFSvgcDh4L5w8eRJ1dXXweDxcq6u8vBw333wzowSTk5M4d+4cTp8+zSHBycnJBc8PoUoUTVizZg3Wrl0Lq9XKCPGePXvwxhtv8FnS6XTIysri0hg2m43nks5jR0cHpqamFrSHqI0TlbcpKirCTTfdhFWrVjHCc+3aNTz//POMcnm9Xuj1ep6X8vJyGI1GzM3NceTi5MmTGB0dXXD9KWlbKb1ej/T0dOTl5bG+npubw+XLl7F3714AQG1tLaanp5GSkoK1a9cCEKMzSqWSdcOBAweiEPCFnPnry0YIgsBzZTQaMTU1hbfffhuAmJzV2tqKubk53HLLLQDEMJxSqWSUds+ePRgYGEgYneQTbSxJjYvt27fj0UcfBSBCtKFQiDkIP/3pT3Ho0CGOr0uFFm14eJgLrpFIe44tVGgR/+Zv/gYbN25kktns7Cxqamrwk5/8hKtz04UqfTaR4uj5brc77lCFQqHA5s2b8b3vfY9JeoDIrfnlL38JANi7d29U3J+yBJ1OJ19Ak5OT6O3tjTvWK5PJkJaWhi996UsARGKnWq1mQ23Pnj344x//yJB/OByG1WrFkiVLmFemVCrR09PDF188IS/iKQHApk2bsGvXLuZ4hEIhXL58GceOHWOORCgU4vAtIBrcPp/vPXyOeMYDiGtQUVHBpOWsrCzmctFYIpEIrFYrK/2ioiKkp6ezEVxfX88KM24i4zshSkAMoWRmZkIQBFbGCoUC6enpbFxTTTMylvr6+tDa2oqpqam4Q11UwBAQw0YVFRVseADinrHZbKz0ac8ODw+zgd3X14fBwcEogyTWc0b1uACxvlteXh4bloFAAMFgkMeXmZkJk8kErVbLY2lubkZLSwtzzyiUGq/hZjAYkJeXx6FcuVyOiYkJNlBsNhuys7ORm5vLRkwwGERdXR1zdM6fP8+FemPZ11IuTkpKCp/htLQ0zM/PMzm6o6MDMpkMZWVlqKysBABs2LABDoeD99CJEydw9OhRNDc3s+G2EO7U9R0LSktLASCSN5gAACAASURBVIjnxul0wu124/Tp0wCAixcvYnZ2lg2SFStWMF8HEPdYfX09jhw5gqamJgALK/woJZfrdDrWzUuXLkVJSQn0ej0nHxw8eBBvv/02h9hUKhXKyspwxx13AAA7m21tbTh8+DAAMVQfq/Evdb7sdjtz6gDg7NmzOHHiBGprawGI3D+NRoNVq1bhvvvuAyCubTAYZOPu2LFjPDdAbOee6CjSsx+JRKLqkbW3t0MQBKxZs4aBAYfDgfn5eZ6XI0eOJLTbwyfaWCKlVFhYiG9961vs4UciEQwODuI///M/AYh8jg8i/tGikZKTGigul2vBnhN5KnSxff7zn4dKpWIlffnyZfz85z/HpUuX3mNdS9GovLw8LpYHiHH8eFGuzMxMfOc734HT6eTfjY2N4Q9/+ANef/11/jkcDkdVXN2wYQNsNht/pr+/Hx6PJ26CsE6nw3333cfETr1eD7/fz97BCy+8gM7OTp47tVqN0tJS3HnnnczxmJiYQGtra9xkXEBU4nRR3H///cjPz48qCvrmm2/i6tWr/Cyr1Yq1a9cy+dJms6G2tpY98XhRJVJUVqsV1dXVfHFEIhF4vV4MDQ3x+MxmM5xOJ/9Nbm4uBgcHWXmMj48jEAgkJNvMaDSysZSfn49wOIz5+XlGs0pLS5GWlsYKnZQ3GXaUaZaIKsJ0wQBAamoqjEYj/H4/e+IpKSlYvXo1o8wejwft7e3o7u5mJGl4eJjHA8RnuCkUCia36vV6hMNhvswtFgvy8vKQk5MDQDxbPp8PTU1NzN1qbm5Gf38/77FYM0+Jw0FrotfroxyRoaEhWK1W5sJUVVXBZrNBJpMxolJbW4sLFy6w00nGdizjkRYMtFgsXNgWEJ0vaWYyZeBVVlaycScIAgYHB3Hq1CkAorHU3NyMmZmZBbfOkHJxjEYjiouL+dybzWa43W6MjY0xkpSRkYH09HQmdK9evRolJSX8HW1tbdi7dy/OnTsXxcVZqOFGJQiIM5aZmQm1Wo3+/n42wkZGRqDX63mPFRQUYPv27YyA6/V6DA4O4pVXXmHUMB40WZpBR1xbMp7JqKd5yMjIwLJly/D444+zISmTydDQ0IBXXnkFgIj0xptdLm0lQ3coRTpo/tPT01FRUYHPfvazPBZBENDY2Ihnn30WgDiXiexgkOQsJSUpSUlKUpKSlKR8iHxikSWFQsFw5Y4dO7BkyRJGQ6ampvDiiy/iyJEjAD68BxZ571lZWQyX9/T0ABBbC9wo3Cwt9padnY0vf/nLAERPJRKJsLf2zDPP4OLFi/D5fO/xPMjzWrZsGdLT0yGTyTi+2tDQwN7xQkTqeX/qU5/ieSIo9ejRo3jllVc4M0iKtAHivKxcuRJqtZqt+Nra2phT4qVQfFVVFT73uc8xLyESiaClpQW7d+8GADQ1NUWVAtDr9di4cSPy8vLYmxkaGsLFixeZexYrKkBp1VQwcOnSpZDL5TwvlC3k9Xr5HcrKyrBz507O3guFQmhsbGQEJZ5UeCkq4HQ6kZGRwd/ldrsxMjKCpqYmDksYDAZUVFRwnRGdTgeXy8X8mHhDuNL9bTAYmNc3NTUFj8cTtT+ofx6dT8pSIVTD4/EkpPbU9YXpKDTp8XgYdVar1VAoFFGpygqFAj6fj+duZmYmytuNp0WGtFdZIBDA8PAwlyigInk0l8FgkPl2FHYbHh5+T3gyFlSJ5kaawerz+VgPZWVlITs7m3Ue/d3o6Cjq6+sBiKHba9euRXG7YkW5FAoFh2Wpnh3pmomJCVitVg7LlZaWQqPRwGAw8Lnu6OhAbW0tUxdaW1tjRielde+ysrJQWlrKSKlWq8XU1BQUCgUjEmVlZTAajczVIQSOdPPJkyeZFxdPg1hqU0L62u/3Y2BggDN+ARExSUlJ4ZDgypUrsW7dOo6qzM/Po66uDg0NDXHpxOvb19BepnYrgKjvsrKyuF6Z0+nEPffcw1nlgKirpJmxoVCIe+vFK4FAgLMl7XY7jEYj0yYyMzO53A3dq4ODg3jmmWc4pAm822RY+q6xyifWWDIYDNzA9DOf+QzUajUbE42NjXj11VcZZv8gg0cQBN5k9957L7RaLYLBIJcXGBsbu+EJpAXJyMjAjh07mEgJiLyoo0ePAhAvXa/X+57vlclkvND33HMPdDodQqEQ96nr6elZ8GVHlZIpHv/www9z4TC6RP/whz+go6MjyhCT1vTZsmULnE5nFDxfU1MTU4NhqQFgtVpx7733soIExM3829/+FidOnAAANsjoM0VFRbjtttug0+l4Lurq6tDT0xMTh0JacI3qBVFITaPRYHh4GC+99BIA0ahsb2/H7OwsG3elpaVc/AwQ94s0TBeLcUIVhFUqFXNbCgsLEQwGWeEMDg6iq6sLHR0d/Kzs7GyYzWZWXJFIBFNTU6xMYg150XikdVKMRiMbRu3t7Qx9U/mGcDiMlJQUDm1YLBYYjUY2WOIpakrjof/WarVsGPl8PgwPD6OrqysqtC3tV+X1ejEzMwO/388GSTwXnHQPUQ8s2g9U/V6aPi41yrxeL7q7u+FyuZg7FKtBIhXqs0aNegFwfRkyikwmE4xGY1TvQo/Hg+bmZg4jDw0NRfFLaFwLHRvpIWmqvdVqZeNJr9fD4XDw3tVoNFAoFJibm2PHo66uDk1NTRwSnJmZidnglslk/Gy67KVGo1wuh91u58K3Wq0Wer2e1zUQCGBoaIjJ3GfPnsXg4GDcYXcyuOlsjYyMwOfzQa/XRxURttlsXAiSei7SHmtqasKbb77JZRSA2IvPSvfr1NQUOjs74fV6eR3JsKOft2zZgptuugkqlYodhH379uHEiROsh4gKEK9hQmOjczM0NASlUskh7vXr17PRTVzEp59+GseOHWMnKdHdHj6xxpLNZsOtt94KALxxyAM6dOgQWltb/2RsVK/XM/lrzZo1kMvl6Ovrw6uvvgpgYQUOyejasGEDHnroIT6MoVAIHR0deO211wCIi3r95iX+DhHUKyoqIJfLMTo6ymOZmppa8AYzmUwoLi5msl1ZWRkEQcD4+Diee+45AGIW1fWHXKFQcDbDE088Aa1Wi3A4zIZbd3d3TBtNr9ezAbBhwwbs3LmTi4cBwCuvvIKDBw8yV4C8EPKi7rzzTpSVlUGhUPCGJ7JjLAqBlJ/FYkFBQQF27NjBNZO8Xi/27t3Lsfaenh74/X4oFAr+G8rOoYu4r68Ply9fjqmOkbQdjsFggMViQXl5OQCRJOn3+5mv0d7ejs7OTiZUAqJnlZmZyUrf6/XC5XLFVM9EKnTpkjdpNBphMBj4+3p7e9HT04OJiQlWkHq9HhUVFXwuqaElKa14EC76LvpvjUbDc0CIUVtbG3uPs7OzsNlsjAqQ4S29COJR3mREUrVgqfFGPCFyRKgVB3ndgUAAU1NTCAQCfEEGg8G4jSXiTUkRCJ1OB5vNxucvJSWFWwcB4v6bnZ3FxMQEr9Pk5GSUURkPSmo0GqOK/ep0Oh4bIW70nFAoBLlczsUUAdFB6Ozs5D3m8/nYAYiVz0VzFQqF+DmRSAQmkynqkjUYDNDpdFHoW01NDUcumpqa4PF4EAgE4jK8I5EIAoEAGwAajQYzMzPQ6XS851NTU1FWVsZzaTab4fP5mGT99NNP4/Tp03C73VF6KB4iNQDeK6Ojo7xOarUamZmZnOBClcWnpqY4OvD000+jq6srIdXw3298dLamp6cxNTXFeqqgoICzAilbb/fu3eju7o661xNhuJF8Yo2lzMxMhkmVSiUCgQCjJRcuXPhAljtdSnq9Hg899BC++tWvAhCV3dzcHH7xi19wv6qFKHVSQitXrmSCHiAqnP379zN8LP1OOrB6vR733XcfHnvsMQDiIQkGg9i3bx8XXFsIKY7e0W63Y/369Uz+UyqVmJubw8mTJ/HGG28AeLd0Ao1FpVKhvLwc3/nOdwCIngwVYySUZXp6OiaCp7Rs/9atW2E2mzE3N8cH/bXXXoPb7ebvpqyZu+++G4BYVEyj0WB+fp4/c/r06ZjDk7RmlZWVWLJkCcrKyljBnD59GocOHeLwCBlKmZmZ2LlzJwBxrRUKBRske/bsgcvlihlRAkRlWFhYiOzsbDbKVCoVBgYGeH+3trbC5/NBJpNxqGvjxo0oKytjhe5yuVBfXx8z8Z2+JyUlJQpqV6vV3HUdENG0vr6+KGO+pKQEK1asYIU+NzeH3t5eTh+OBxHQ6/Xs8VsslqiwhVarRSAQiCL8h8NhLF26FJmZmfw9dLktNJX6/2/vzeOrqu/8/+e5ezZysyckISQQ9h3UouKCSgVF24oWq63OWMc6U+0y35m2tv2100fnMY92akc7WqyI1eJCXWsVEZB9kUWWQIAEEpIQErLv281N7vn9cfJ5c24E1NybhJHzejx4kHtzc8/7fM5neS+v9/vdH8qDo2RJTExkxIgR4s1JTEwkIiJCvCFFRUVERUWJEqn61KmNHgZedNIMu90u46TGKjo6mlGjRslr1fJFKdcqg7ipqSmoWKc5822gcqlDV+1h6n8VClOGobqOqj7d3t4uY1dQUEBlZaUoEqEcumbSvSKWm+dQfHx80PmRmZmJw+EQRW3dunW8++674oELtfCsuo4KDas9uaysDJfLRUJCgnhv4uPjGT9+vCS4tLW18cEHH7B8+XLAqC5uJr2HAl3X5b58Pp9ki6t14/V6mTBhgiQzeb1eGhoa+NOf/sQLL7wAnE1MCpdC0l8+JUtXV5e0qQFDIQ8EAqxfv57//M//BIyyHeHo83o+WARvCxYsWLBgwYKFC+Ci9SzFx8cLx0dpu8oj1NTUhMvlEo+DCueoWDQY/B1zuYHe3l7WrVvHiy+++Ln5ODabTVJcZ86cyYgRI0QjP3nyJEeOHBFNX8nlcrnEOliyZAmPPPKIWL+aplFSUsIzzzwjltTn0cyVlyIjI4MZM2ZIHFfXdUpKSti0aZN8r8PhQNM0sTBnzpzJ9773PSEKq/DJc889J/21BqKd2+12MjIyJLVdNVtVrTHACFOYwywZGRksWrSI+++/HzhrLRQUFEhZiOrq6gFZLeYEgbFjx3LFFVcwYsQISbXft28fDQ0NEjJxuVzk5uZy2223sWTJEsCwpDo7O8XN+9Zbbw3I6wZnGxsnJSUxZswYpk2bJjWTysvLpSipksXpdDJ27FgWL14MGDy3mJgYqdfzl7/8ZcBJARDsWTKnVqvik8pLpHhlHo9HPKpf+cpXuP7662Ue7t69m02bNsnfDNQKV8kKyuM2duxYSc8HI6ylwoHqvnNycliwYIG0PykvL6esrIySkpIBFcbrDzVOqpxCUlKShOBVSMJcnHPWrFmSEKCaDZ88eVI+Ew7iuwpP6LouHpO0tDQSEhKEO1JbW8vIkSOlAKXykJaUlEhtrpaWlrBY4oFAgJaWFtmfFSdP7UFtbW1ER0cHtfTw+/0UFhZKraOCgoIBFZ08nzxmz1JdXZ2cA3FxcbS3t2Oz2cSbozh6iqO0atUqCgsLwzJ/zH/v9/tpbW0NSpRQnlO1Py9cuJCRI0fKZ/7+97/z29/+Vvatga7388llDivquo7T6ZS9asaMGTzyyCMyn9vb2/njH//IsmXLZD4PhkfJDHMfw6VLl3LttdfK+/n5+fzmN7+RkHy4OUr9cVEqS6omkuILqM1BuXVHjx6Nz+cLqlUSHR1NdnY2d9xxBwC33norMTExMrkOHjzIo48+KpvJ54VabCoOr67d2NhIdHS0cCZU9/Xx48dLZdHrrruOlJQUmVinT5/mF7/4BYcOHQqJuJySkiK96MDYlGpqanA6nXKwqeaUqn/VzTffTEZGRlARzbfeeovnnntONreBwG63k5qaKodWVFQUbW1tnD59Wp5jbm5ukBKzcOFC5s6dK2GN3t5eTp48yW9+8xvZRAdaGNNut4sykp2dTVpaGn6/XxZ5bGwsU6ZMCVqMixYtYtq0aXIAqQKjy5YtAxgw0RyCQ6c5OTlMnDgxqOHjqFGjRBZVePGmm26S6tCRkZHU19fz0ksvAUal3FBqYak5FBcXR3Z2tiQsaJpGTU2NKGVKeUlMTBR3/NSpU3G73VKcc/Xq1Rw7dmxASQH94fF4RFmaNm0aKSkpMgdURXWPxyMh1ltvvZUJEybIOj927Bh5eXk0NjaGZfNU4xQfH09OTg7jxo0TI6iqqorm5mbhxk2cOJFrr71W9oqSkhIOHz5MeXm51KQKx+GiCvaZCz/m5OTg8/kk09flcpGSkiIGp8/n4/Dhw+zbty8o+y0cUFwcM6FeUQLACKGYCeBOp5NTp06xceNG6U5/oYzmgcijnr1SOtTaUvyqnJwcqauk6zp5eXm89tprgFFfSBku4YSSqz9/1O12s3DhQgCmTJlCd3e3JCE98cQTlJWVDVp4ySyLKpysjO/vf//7TJgwQcbimWeeYfny5TQ2Ng66kgQEGfmLFi1i4cKFcm6Vlpby05/+NKj322DjolSWFNThnZSUhMfjET5MUlISRUVFskFGRUUxdepU4uPjZRN1u934fD6xFh555BHKy8sHzKUwt0gJBALy0CZMmMCdd94pB4fX6yU1NZVx48aJYuV0OgkEAhKf/6//+i/efffdkL0CcXFxUmhTIScnh8WLF4tFmZWVJZV7ASFzq7TYN998k6effpqKioqQLfARI0bIQaHGZ/z48aJ8VFRUMHbsWPGwJScn43K5ZDHm5eXx3HPPsXbt2pA3K/MzS0hIYMSIEVLOAAyeQk1NjVhNqampUglaKVTr1q3jL3/5i3AXQtmwzFlV0dHRxMTEyLjExcUxYcIEyTaLi4sjKSlJUpjBOJhXrVrFm2++CRhcgXAcLj09PbhcLtmURowYQUpKiij/dXV1eL1e0tPTZW3ZbDZKSkr485//DBgFBM+VAToQ+P1+sWzj4uLIyMiQ742OjsbtdhMbGysezMzMTPx+v3hF33jjDU6cOBEWxQ3OWqsul4v4+HjGjBkj8vn9fqqrq0Uhueqqq4iLixPuy/vvv8/27dtDrvTeH7qu43A4iI2NFcMjOTk5iA8YFxdHSkqKzJEjR46wYcMGSWRQ3xMueczrLSUlhczMTOF7VVdXk56eHpRV+sEHH7Bx40YxXsNZPNAMu90elEyRlpYmzZjVczx+/DivvPKKNBdXCtZgQV03ISGBiRMnsmDBAvGY2Gw2tm3bJgZacXHxoPJwFJQSOWfOHB5++GHAMNp6enpEiXzuuec+VwZ5KFDGwDe+8Q0AHnzwQSIiIsR7rQzqcHraPg0WZ8mCBQsWLFiwYOECuGg9SydOnBBNX/WhUm7chIQELr/88qDPu1yuoHThsrIy3nrrLWlmqzJABgql0VZUVJCRkSFWUlpaGklJSZKKb7fbpXid0nrr6up4//33efbZZwHDgxIOa6GtrS2oJ5Dq82bOSlNNTlXIp62tTRoPg2H9NjQ0hGzZ6bpOZ2dnkGtf1S9Rz+3yyy/H4/GILKrfj+rl88ILL3D48OGwWHa6rounprm5GV3XiYiIkBBKcnIykyZNkjRwTdPo6emhoKBAOFavvvoqJSUlYbFelGehurqaiooK2tvbRRblgVRQXrm2tjYKCgoAI9T19ttvS3+tUD0Vav5VV1dTXFwsoa8JEybg9XolNJqUlERERAR2u13G88CBA6xZs4b33nsPMPgx4fAMBAIBOjo6JARYUlJCQkKCjE98fDyRkZHEx8dLSL6+vp7t27ezevVqALZv3x42LxecHafa2lrOnDlDVVWVeHMiIiIYPXq08L1cLhfl5eXCcXvnnXcG1FLp06CyhDo7O4OoCGYezsSJE/H5fOLxfvXVV9mzZ09YmnWfDyrcrtp6KC+zytRT4b8tW7YM2tgomFuMxMXFScht1qxZjB07lhEjRsjYvPTSS2zevHlA/NHPC3MR4SlTpnDXXXcxb948Gbt9+/axfPly8vPzgYHTED4rzOM0adIkfvCDH8hZ1tvby9q1a+WsCJc3+7PA7XZz9dVX853vfAcw1n5nZycrVqwAjHNrsD2A/XFRKku6rlNaWiruv+7ubhYtWiTkbYfDgd1uD+pr4/f7KSsrk9oYL7/8Mvn5+WFxx+u6LmndmzdvJiEhQbg5kZGRopCoz/b09NDc3CzFF9977z1Wr14th02oi1EdlKdPn+b48eMSHklOTsbpdOJyuYJCcz6fTwp4vvLKK3zwwQfCFQjXYuzp6aG8vFw2IKW0KZczILVVVJji2LFjrFy5UuoLnT59OmyL0e/3Sz+u4uJisrOzyczMFCVXJQSocF9lZSW7d+9m9erVMjb19fVh2ziVwlVRUSHVis2hAXPPQpXMcPToUTZt2gQYaelK6QsH1Dg3NDRw/PhxeU5nzpwhNzdXSMzd3d34/X7Ky8tlPDdu3EhJSYnwcMIFlWavFESn00l9fb2UEImOjpZKw2o+l5aWsn79euHqhHMDNdd5qampkXmhQtxRUVG4XC4JJe3bt4+jR4+ybt06IDx9ss4nlyqcqIzAtLQ0nE6nKHLd3d1s3LhRSnBs3bo15H6P54OqKK6g6kApzmBsbCxNTU2yzjds2EBxcfGgKQLm4pyRkZGMGjVK9usZM2YI307VWFu/fj319fWDrgioUKVS3G644Qauv/563G63hJFXrFjBRx99NCicqf4w99AbPXo0d955J5dffrmM3bZt2/jf//1f2dOHIhwIxrrPzs5myZIlQtkIBAJs2LCBF198ESAo5DxUuCiVJTAIf/v27QMMq66kpEQqeicnJ0sNHzA2sr1797J69WrRyMPZbbi3t1c24zVr1lBVVSX1HsaNG0dCQoJwPlpbWzl8+DDr16+XIo/hIpsqqEmbl5eH2+2WJozjxo0jLi6O5ORksV7q6urYvXu3EAaPHj16zlYs4ZDpyJEjwlM4evSoNIpUYxMVFUVFRYXUpFKVcQcj7tzT0yNemA0bNlBaWkpqaqp4bRwOBw6HQz5z9OhRSktLaWpqGhTCoNqIm5qa2LNnD8XFxcKXUl4c9RnVILeuri7kopOfJk97ezvFxcVy6KakpAQ1Yu7t7RXlRCkFA22F82lQSoDijB04cIDa2lqpLK8ydhobGyU7SJGsB4vkaSYKl5SUEBUVFVQnDJBxOXbsGMXFxYPOw1Fy1dXViQGmWlUoz25ZWRkHDhwQvl04Fe1zQdM0uV/Fi1SKa319Pfv375cG2gUFBWHjlJ0PSgnwer3k5uaKwu1wOCgqKmL16tXCZw2liflngbkFVGJiotTFu+mmm3C73RQUFEiRx127dg36s1Kw2Wzi/bvllltYvHgxLpdLzpOVK1eGLXHjs8BcI3HBggVcffXV8ruCggJWrlwpe8FQKW5mWJwlCxYsWLBgwYKFC0AbalfWOYXQtHMKoTRNVb5eWXIOh0Mq0oJhcaoeTUPhSjX3r1J1KZTrUrUPGApZ+vfFMvOllHxKnlCr9H4WqGsr2RRXysxRMssyFM8KCBoj9Z66fv++WIMN8zzuL4uCSi8eCn6AkkfJop6Xuflkb28vvb29QyKP3W4Xr4DNZgtaW+pZqdAgDL6Fqa7tcrlwuVxERUUJz01dW/GGVE+6oag9ExERQXR0tITdEhISaGtrk3Gpra2lvr5ewjmDKVP/TFiVmWxuq1JcXCxctHB6/c8nj8pQzM7OZu7cuTJOqtbUvn37pHq/en6DBXP1/mnTpkl7qsmTJ1NdXc26deskClFZWTkknhzVZkqVlHnkkUeYMGECVVVVPPfcc4ARRamurh7S8BsYJWZ++MMfcsMNNwjP7amnnhJ+LYT97Nin6/qcT/vQRa0sWbBgwcJwwmywqTCgWfkfDpiNNXNDYbPCP5SyORyOIJ6kqgPVv8HwUMmkCOZg8KXMfMDGxkYhxw8VWVkp1yNHjmTOnDlBituePXuCGi0PVc0gxQu68847Abj22mspLy/njTfekMSqcNNHLgRN0+SZLVy4kJtvvpnu7m7hLe/fvz+stbj6wVKWLFiwYMHC4OJc3sjhhN1uF24iGJ5IJdNQKUhmKE+yqvemEiNaW1vp6OgYNpkyMjKkSa7T6SQ/P5/jx4+Ld3Ion6NZWZo2bRrJycmcPHmSY8eOAQx2pMZSlixYsGDBgoWLAcPtkewPs4cyEAgMi9J2LthsNvHiDhE+k7JkEbwtWLBgwYIFCxYugIu2dIAFCxYsWLDwRcHF4lFSuJi8SWZcjDKB5VmyYMGCBQsWLFi4ICxlyYIFCxYsWLBg4QKwlCULFixYsGDBgoUL4AvNWTL3K1IYzrixuWaLKtpo7m83HLIpWZQ8gBREHK7YsbmQZf/MiOGMZ/fvgQXDH1/vL8/Fwou42DJ/LFiwYCEUfKGUJZvNJgXAEhMTmTx5sjRQBKNH0eHDh6UJZ0NDw5Acdg6HgxEjRkh/otmzZ5OcnIzb7ZYeVx9//DEHDx4ckuqtqqEjGH32Jk+ezLhx46RRcW1tLceOHWPbtm0AYW+Y2h/m3klRUVF4vV5pMjt27Fja2to4ffo0AHv37h3S3kkOh0Mqy6qKyarjfXt7OyUlJbS2tg7JPDIrtKoJpuoBGBkZiaZpNDQ0SOXkoaggb/7fXNXe5XLhcDikP5jP5xvSAnf95VK9AIEhq7DfXx7zazVWyhgYqqr2F5JNpZKbq8cPt8HUv8r9cBtL5vV3McgDBBUDNf8/XDKZm7gP9xiZOyaoTgQDxRdGWbLZbMTGxkr59ltvvZUvfelLUi21q6uLuro6ioqK2LJlCwBvv/22NOYbDKhDNi0tjQULFnD77bcDMH36dJxOJ4FAQJSjHTt28Pjjj0tn88FSBmw2G5GRkdI5fcGCBdxyyy0kJydLIbfu7m4OHTokB922bdsG7aAzL664uDimTJnCjTfeyJe+9CUAUlNT8fl80hDUZrOxZcuWQVUq1YbodruJjIyUOTRp0iRmzJghylJzczPbtm1j165dolAO1nNT46QWvtvtbx+adAAAIABJREFUJioqilGjRgGG0ut0OikvL5cu4YNY8fYTB4dZGYmJiSEmJobIyEip4lxTUzMkFYHNLXaUfBEREXg8HmnybLPZ6OjokNYJg9nOwTxG6n+lTMLZdknmCtODVe26v2e0/2Gr5DIXdGxsbMTv9w+JPGaotjcul0sMYE3TpAI3hH+t9VeyzVCtd5QsERERYpyAYQyEc631f07me1VzW50vqvWN+kx9fT1dXV2DsvbP97zUPPd4PIwYMUKMuPb2dhoaGgZtDl1IRuWkUMUufT4fjY2NdHV1DUiWz8xZ0jTNrmnaAU3T3ut7na1p2m5N04o0Tfurpmmuvvfdfa+L+n4/+nNLZcGCBQsWLFiwcJHg83iWvgccA0b0vf4N8D+6rq/SNO0Z4AFgWd//jbquj9U0bWnf574eRpk/AbvdTkZGBj/84Q/5yle+AhiWtrmPU2RkJF6vl4yMDAlB7dmzh5qamrBr4Jqm4fF4+PKXvwzAv/zLvzB79myxvM2WZExMDADjx48nPj5eNPRwW+DqezMyMrj77ru57777AMObo6wSM89k9OjR0ozS3FspnNA0jejoaObMMYqn3nvvvcyYMYORI0eK1eRwOIKsgMzMTJxO56B5ljweDykpKQBcd9115OTkMG3aNADS09NJSkqSsaytraWxsZH8/Hxpxhlu60nNmREjRpCdnU16ejpgPMfs7GzGjx8vv+/s7GTjxo20trYCDFp4UDVyjYuLA4z+W8nJyYwePRowmpcmJibicDjEI7hz507y8/MHpbGrzWYTr5HH4yEiIoKoqCiSk5MByMrKIjU1VdZaZWUlJ06c4PDhw4DhPQnnOKn5oXqmud1u8dZERESQmJgoIe+YmBi6u7vFQ1FYWEhtba00Uw4V5lCk8taY15ZqDgxn9wKXyyXr68SJE9TU1Ij3LVwy9W+SrJo5q9fKW2L2DPT29lJUVCTRgHB5K8xjA4gH1zx2brebmJgYYmNjAfB6vfj9fk6cOAFAdXV1WORRY6Pms8vlEm+pgnpu0dHRgLH+oqOjxbvd3d0tLV5ClcccxnK73Tidzk9wSh0Oh5yp0dHRREdHB4WVHQ6HtFAJBf3D12r+qDljt9uJjIyUhs7x8fHoui57Tnl5eUjj8ZmUJU3TMoBbgP8EfqgZIzUf+EbfR14EfomhLN3e9zPAG8BTmqZp+iD44NTA5eTksGrVKiZPniwPNhAI4Pf7g5o52u12oqOjGTduHAATJkzg8OHD8plwITIykgceeIDHHnsMMDYhTdNkw1F8CbvdLpPO5XIRFxf3iQ7r4YDD4RAO0H//939z1VVXBY1TT08PgUAgaCLC2QaQTqczrGOkvj8pKYmHHnqIBx54ADDGSfElzH2mzAs2MjISt9tNW1tbWA9c1Zto4cKFPPzww4BxyJo3TfOGCtDR0UFycrK45MMJTdOIiIiQ3k1LliwJCgE6nU6io6PlGdlsNlpbW6murmbHjh0AYduklDzqWtnZ2Vx77bWMGTMGMAyT2NhYCVfGxsbidDrx+/1yuJw6dYqioiIJ7YbjUAFjA09JSZH5nZ6eTnx8PLGxsaK8paamEhsbK39z/PhxAOk639LSEraDRa1jgJSUFFJSUvB6vXKwJSUlkZSURGpqKmCs+6amJumB1dbWRnNz84BDBeeSB84eqF6vV5TGESNG4PV6RXFLSEjA6XTicDioqKgADPpCU1OT7EehyKT2NrfbTWxsrCi26r3o6GiZL0lJScTHxxMZGSny1tTU0NHRQV1dHUBI4UoVDgVjT4mLixNZFN9OhZKioqJISkoiLi5O1l90dDRVVVU0NzcDUFdXF9JaU2Pj8Xjwer0yd+Pi4rDZbLL/qjCp1+uVsXI4HAQCAZnPVVVVA96PzIqQy+UiNjaWkSNHAsZ5GRUVFcRFVMaA1+sFjH2ptbWVyspKwKAChCKLOYyt+KxgrOlRo0YRFRUlylF0dDTZ2dlkZmbKdxQUFLB161bAWO+hzJnP6ll6Avh3IKbvdQLQpOu6CvafBtL7fk4HygF0Xe/RNK257/N1A5LwPHA6ncyaNQuAP//5z+Tm5uJwOGRSNTQ0cPz4cSEGZ2ZmMnr0aOLi4mSSZWVlhU0RUBMiPj6e73//+zz66KOyQQYCATo7O2Uyl5eX4/V6GTlypDx8Fes1k+PCgYiICBYtWsSvfvUrwCBM22w2WdgNDQ1UVVXhdDrFkxQdHY3f7xdZwqkIOJ1OZs6cCcDPf/5zrrvuOtm0ent7aW9vp76+Xj4fFRWF2+0Wyzvc3hKlhOXk5PDwww+zdOlSeW66rtPd3S0Wm1K+1QKuqamhsrISn88XVsVNNbm85557+Na3vgUYCQu6rstz6+rqQtM0eR0IBKiqqqKoqIimpiYgfAq3w+EgPT1dOHff+MY3RDGCs+Nkht/vp7q6WvhT9fX1YePiKHkAbrzxRhYvXkxGRgZwVhH3+/2f8BSocamtraW9vT1o7EKyOPvmUHp6OldffTVXXXUVYHgf+vNylLKiDmafzxfEmert7Q1LZqzT6SQzM5PLL78cMPh2PT09dHR0iDwej4eMjAyysrIAQ3nq7e2lrq5O1psin4cij6ZpuN1uUQBmzZrFqFGjaGpqkrWuvClKAR8/fjwpKSnCUwJDkVTGnZJtoPJERkZKws3MmTPJyMigtrYWOKtEq2c0ZswYJk2aRGpqqlyzurqa2tpa4U8NVFFSCoE6k2bMmMHs2bOFi1hTU0Npaal4+jweD2PHjmXKlCnyN01NTRQVFVFWViayDGQOKVmUgp2cnMzcuXO57LLLAGOPbG5u5tSpU+KtSUhIYMKECbL+Ojs7OXjwoChLyjEwEFnMDZEjIiLIzMyUs2PmzJmkp6cHcSW9Xi+ZmZlB567b7WbTpk1A6LyyT1WWNE27FajRdX2fpmnXDfhKn/zefwL+aSB/63K5uOaaa3j22WcBGDVqFDabja6uLvLy8gD4+9//Tn5+vhwY2dnZ3HPPPXi9XrEYzOGeEO9FFI1f/vKX3HfffURGRsqDqaurY8uWLWzcuBEwJlRWVhZLliwRF7NycZqzP0KBWuh33nknv/zlL4MOk7a2NrFkP/zwQxoaGkhPT5ewodPpxOfzyQINl7LkdDq56qqr+PWvfw0Ym6bZSikrK2Pfvn1UVVWJtTtnzhxiYmIoLS0FjEM3XGUWzB63n/zkJ9xyyy24XC45+KurqyktLZWFHx0dLd4mgMOHD1NeXh42ZUkpp9nZ2Xz3u9/l7rvvFku2u7ubmpoayeSsr6/H4XDIhtnT08P+/fspLCwUazccxGW73U5mZiYPPPCAKG6xsbF0dXXJQafCkep6mqbR3d1NUVGRhOHUBhvqONntdtLT07n33nsB+OY3v4nX65XNu66ujpaWFpqamuRaSh51CBYWFnLs2DGRP5QN1G63i+W9ZMkSli5dKp6l2tpaqqurRTZA5rpSRmpqajhx4oSMU1lZmYRQBgI1NzMyMvjqV7/KbbfdBhhGR15enniMwDhc0tLS5HDx+Xw0NDRw4sQJCgsLASgtLR2wPGaibWZmpsiyYMECHA4HmzdvlrVmt9tJSUlh+vTpgGHIdnd309jYSElJCYAoBKEoS8pDmpuby+LFiwG4/vrr0XWdNWvWAGdDXyocP2PGDCZOnEhPT48oVKWlpZSVlcneMFCFUiXcTJkyBYDFixdzxRVXiPL1/vvvS1gdkDGaNGmS7M9NTU1UVFTIHtnc3DygOa28bcpTM2/ePG699VZRKru6ujh+/DhlZWVyTqWnpzN69GgSExMBY863tLTIuLS1tX1uRVIpbebs9rS0NK688krmz58PGGd+b28vJ0+elP0uEAgwevTooKzX+vp6GZdQvbWfxbN0FXCbpmmLAA8GZ+lJwKtpmqPPu5QBqFVYAWQCpzVNcwCxQH3/L9V1/VngWQBN06xiLBYsWLBgwYKFixKfqizpuv4T4CcAfZ6l/6fr+j2apr0OLAFWAfcB7/T9yd/7Xn/U9/uN4eIrKS/QwoULeeKJJyQ2abPZaG9vZ+PGjTzxxBOAwUvo7OwUolxLSwu33norcNaCT01NDUqTHQiUV+lf//VfAfjWt75FZGQkvb29otE+8cQT7NixQ6xJZcmp2Li6h3B5TDweD4sWLQLgpz/9KRkZGWLlNTc389JLL/HBBx8AhoUUGxvLZZddFkRAV6UWYOAuZgX1vZMnT+ZHP/qRuFIdDgcdHR2sX78eMLyBJ06cIDY2Viyt2bNno+u6yFJSUhJkqQ8UykPx7W9/GzDmlPIqffzxxyJPSUmJzKGsrCzi4+Nl/hQXF1NQUCCcl1Bgs9nEm3bHHXfwta99LSj1Pi8vj/fff1/qctlsNrxer1h9nZ2d7N+/n7y8PJlnoXhMlOWYkJDA4sWLueuuu8QL2tnZyaFDh8RTeubMGXp6eoLqUakaVCo0UF1dHbKny2azERcXx8KFC7nzzjsBI+zd0dEhJTd27dpFU1OThCkVWltbZexqamqor68PmT9lt9tJSEjg5ptvBmDp0qWkpqZK2Pbo0aMcPXr0E+HQ3t5eCS1VVFRw5swZampqgIF7BcBYT2oOLVy4kLvuuivI4j9z5gzl5eXCAXK5XFRUVFBcXAwYXq3y8nJKS0vFCxdKLTq17tPS0li4cCFf+9rXACPcV1xcTF1dnXgFEhISSEtLE3nb2trIy8sjPz+fI0eOAIZnaaDy9A893nTTTSxcuBAwvPCHDx8WykZdXR1paWkSNhwzZgwOh4Py8nIpO/PRRx9x/PhxWlpagIHNIVXvbsyYMeIxueaaa7DZbJJ8cOLECUpLSyXsnJmZydixY/F4PDJn9u/fz0cffcTJkycBY31+XnkUL9Tr9Qbtvbm5uRJq3LlzJzt27KC8vFzqFyYkJBAfHy9rv7GxkcLCQplTra2tn5sOoAj3ZhJ7eno6GRkZMj86Ojo4cOAAhw4dkj1y7ty5zJo1S/au9vZ29u/fL974kM+xEP72R8AqTdN+DRwAVvS9vwJYqWlaEdAALA1Jwj7YbDapvfPkk08GKQAtLS289NJL/O53vxM3s3pAasGOHDmSiIgIeQ3GgKuJMFBERUXx/e9/n3/+538GDLKg3+/n2LFj/OxnPwNgy5YtQaGamJgYEhMTgw7ezs5OccGHAofDwYIFC4SjpPgIyn38xBNPsHLlyiDXZVJSErfffruEEm02GydOnJDFF4pMNptNFtaPf/xjrrrqKrnnlpYWXnvtNZ566ing7KGblpbGtddeCxhcnY6ODsk6qaysDGnSqzmTmJjIvffeK4eu2+2mvb2dzZs38/TTTwOGwt3V1SXu+KysLKKioiQsUFBQQFVVVciLUNM0YmNjRcG9//77iY2NpaOjg/379wPw3HPPkZeXJ1l38fHxTJs2TRSj0tJSjh49SnV1dchzWpHdweAEffOb3yQhIUHCAfv37+f1118nPz8fMDbEyMhI+ZuYmBiqq6upqakRnlAoLnD1zGJjY5k/fz533323KAXNzc0cOHCAtWvXAsbh0t7eHpTBGQgEaGhokLFrb28Pib9gluf666+XOZSUlERTUxP79u0DjEKzFRUVQfOjra0Nn88n67G9vV3eg4HzzGw2G/Hx8dxwww0A3HbbbSQkJMh1tm/fTmlpKe3t7SJ/IBDg+PHjshcUFxdTU1NDc3OzyDNQBddutwuJXSkmip9ZXl7O1q1bqa2tDeLHxMfHB4VKDx06RF5enhhK7e3tA5bHHJ68+eabuemmmyTEnZ+fz4YNGyR0FBERQVZWlhh1drud8vJy1q1bx4YNG+Qe2traBiSPuf7X5MmTufHGG7nmmmsAQ+naunWrGJDFxcW43W7hCF5++eV4vV5aW1ulaPDq1as5efKkGJGfZw4pWRRpfM6cOVKrcOrUqdTW1so9b9q0iTNnzuDxeEThHjt2LFFRUbLOP/zwQzZu3Cjz7vOEcPtn/EVGRsr5NXbsWGJjYyU8fPjwYfLy8qiuriY3Nxcw6AvmelOFhYW8++67YUkIgM+pLOm6vhnY3PfzSeDyc3ymC7hzwBKdA5qmMWbMGDnEMjIysNlsYp0tW7aMZcuWcebMmU9sgGri+Hw+IiMjsdls8l5zc/OAF5+KpT744IM8+uijsvD8fj9Hjx7lscceY/PmzXJtc2q+pmmMHDlSuFNgeEyOHz8eEinXbrdz9dVX87vf/U4mmaZp1NfX8/jjjwPw4osvBqVKq0127ty5cg8dHR0cOXJEJnwoh0p6ejo///nPAVi0aBFut1ss+lWrVvHkk0+KRae8E5MmTeKmm24CjAOpoqJCPAetra0hTXhlqdxxxx088MADsoH7/X42b97MU089Jdfq7u7G4/FI6YCbb76ZpKQk2ciOHDkSlqw8j8fDNddcI1mBaWlp6LrOsWPHePXVVwHDs9TW1iZervHjxzN16lT5jvz8fEpLS+no6AiZAO92uyV54utf/zqjR4/GZrOJZ2bTpk2UlZXJgRoZGUliYqIowQ0NDZSVlQUdJqHIpO55ypQp3HLLLeTk5MjhV1NTw5EjR+TA13Udt9tNIBCQDbylpYXm5mZR+kP14Cp5Jk6cyPz584WUbLfbqaurC5rPLpeLQCAg8lVWVtLa2iqKpyLjhqq4eTweJk2aJOTy7OxsNE0T47GxsZGoqCjhMoIxdsXFxUEdDVSl9VDGR/FwlNdz1qxZjBw5Usb/+PHjtLe3k5KSIgZaeno69fX1wjk9cOAApaWltLS0hFzd3G63C7dv6tSpTJ8+nYSEBDE0Dhw4QENDgxhFubm5zJ07V5T/4uJiNmzYwIcffijPdqDKtiK7gxHZmDZtGnPmzJGz4OjRo2zbtk2eW1RUFFOnThXvZVZWFl1dXWzevJl3330XMDxuXV1dn/vsMBcEjo6OZsyYMeTm5ko5ko6ODrZv3y77XX19PU6nk6lTp0qyR05ODoFAgI8++giA9957j+rq6qC1NlBERkaKURQbG0t9fb0YqgcOHMDn85GdnS0eyzlz5khhXjAMzKKiIjFWQvb+h/TXFixYsGDBggULX3Bc1O1OlIswMTGRJ598UiwVTdNobW1l+fLlADz99NNUV1efU4tVltfo0aPJzMzE4XCIRbx///4BhZgcDge33HILAI899hiRkZFiQZ88eZJf//rXbN269ROFE5Uso0aN4vrrr8fj8YjWu2fPHurr60PKOsnJyeG3v/0to0aNCuIorVixgldeeQU4y0Ew19K45ZZbmDhxoljrdXV17N27N6TCj5qm4fV6eeSRRyS8pIrdrVu3DoDly5cHZbco3s59990noTtd19m/f79YFKHwXjwej3ADHnzwQZKSkmT8Dx8+zKuvvhrU5sXtdjNlyhQp4DlhwgTq6+s5ePAgQMjtO9R4Z2Vlceutt5KTkwOcLQOwbt06CgoKAMPLFRsbK3WXbrzxRhISEoQ3VFFREZYWB4qHo9KFx40bh67rNDY2ShmA9vZ24uPjJetL1ZpSFl1JSYlYuuGQR3kFcnNzGTNmTFChue7ubuLj42W+xMXFEQgEqKysDAp1mQsGhlomQHkcMjMzSUtLk3vs7u7G6XSKpyk+Pl44Scqz1NnZGbayBarNDBg8oOTk5KDWDr29vZLZNGPGDJxOJzU1NRLKaGxspKqqSjz0Zq/SQDk4gNTdUfND7deK15KRkSGlU9T6OXHiBAcPHmTv3r0AnD59mvb29qA59HlkMhdNjImJCfJQBAKBoLT/5ORkYmJihKuTmppKd3e3rHPV0kiVCYGBPTdVHkF5sCZMmEBycjJ+v18oD2VlZXi9XvHsTpw4kZkzZ0rGZXd3N9u2beNvf/ubZDQPdN2bs83i4+PJyMhgxIgRMh8qKyspLy8Xr5fq2blo0SLZhxwOB/n5+bzxxhuAsfZDyeYEZP6Zy240NDTQ0tIisqkivV/72tfEmxoREUFDQ4PoBdu2bQtr8eKLVlnSNE0m+NKlS7nmmmtkY+js7GT9+vU8//zzABeswq1i4tdee60UplPks7Vr137uw9flcjF27Fh++tOfAsYE0nVd0pCffvppNmzYIAeuGcrlefPNNzNu3DjsdrtUo/3ggw8G9GDtdruEkh566CEmTpyIzWaTRb1mzRr+8pe/fCKkpibhyJEjufPOO4mNjZWNa82aNRw/fjxkIuWiRYtYunSpLMje3l4OHjwok7m4uDho/NXfzJ07V/6murqaDz74QBbJQGWy2+3k5ubyD//wD4ChoGiaJgTkVatWsX//frq6umTTz8rK4pvf/KZsDC6Xiy1btrB7926AkFLhFUEbDGLi1KlTgyqDb9++ncLCQuHZxMXFcdlll3HXXXcBhmJ86tQp2TCbmppCismbC5Gmp6fLhq6+u6qqSuaqy+VizJgxkmAxffp06uvrZcNU/btCVZRUKrMKD7vdbjo6OkTxAGNjHTlypIRzAoEAPp+PnTt3ytiEI7QEZ0mwam6CsfcoPklMTAxRUVFkZ2cDRjhVKQyKc9fV1fWJpsIDNZD6V1fu7u6WMFFGRgYpKSlSxTw+Pl4UNFWUs6GhgdbWVtl3QlWU1P6m+rmpPaiyspKsrCwZl5iYGFE21Jw6ffo0RUVFVFdXA2cV3IEqk+ZK4CNGjJCzJBAIUFdXJ8oBGOn4NptNQvRtbW0cOXKEXbt2AQg3xqwEDERxc7vdxMfHi1GUmpqKpmk0NTXJHJ80aRJTp04VAyEtLQ2PxyP738GDB9myZQvHjx8PKrg80DpGKiQ4YsQIkcWcep+ZmSk1n9LT07nyyivJzs6W8a2urubdd98VEn44Ql5aXy+8jo4Omc+q+KUau6SkJObNm8f06dPluTU3N/POO+8Il6uzszOsNQIvWmUpKipKvDff/e53iYiIkMlx9OhRnnzySdHGz2fd22w2rrjiCgDuvvtu3G43XV1dPPPMM4BxKH3Wh6qsonHjxvGd73xHvFzqob755psAvP766+fMjtI0TbIrHnzwQSGCr1q1CoBjx459bi+F3W4nKSlJ+D1Lly6VwpyKGPz73/+ekpKSTyiFylq48847GTt2rJAYAVauXDkgLo6y4sAg5D300EN4vd4g6/Hxxx+XTUhlbajFmZuby7333ktsbKxce8OGDezYsWNAHkCzAhAXF8fXv/514R+BYcUtW7YMMJRVlbGl7mHevHnccMMN8rqxsZG1a9eGxOVSCoC5Ovfs2bODlPh169axd+9ejh49KgfO2LFjufrqq4Wn5HQ62b59uxx8odTCMRd/S0pKIi0tTbJ8VIG506dPy8al6zpZWVkiS25urlTshrN8jlDkAcNqjY6OloOksbGRPXv2BHkEGxsbcTqdkiWjvKp5eXlh6cJurt6uSKfqgGlqauL48eNBRfG6u7tl8/Z4PNIewiyLeVwGOkb9W15ERkbS3t4u/KPKyko8Hk9QKwhFLFcHb0dHhygkSpaBKkoej0f2FOV1VN/V2dlJIBCQPVTxRuvq6oQfqNqqKCMzFOXWrPgkJyeTk5MjHjZVgTohIUEUKHU4m+f8zp07RcGtqqoKSeE2t9xKT08XI8Pr9QYR3MEwXj0ejyjkuq5TWVkpWXj79+/nwIEDNDU1BSlLA4G5MXdvby/Nzc1BjZTj4uKYMGFCkHLn9Xrp6emRsXnnnXfYvHmzkKhD9Sqp++np6aG9vV1I92rslCzz589n1KhRMu8BXnvtNV5//XXZR8Pd3PiiVZbS0tIk/DFq1CgCgYAQTP/85z9z8ODBC3qFlHKiSgko62/79u1iAX+eLCaV2fGNb3yDu+++WxZ+V1cXu3bt4k9/+hNghLDONVkSEhL4wx/+ABjue0WYVX9nLjz2WZGYmMjChQv53ve+J9fQdZ3S0lJ+//vfA4Zi2f8+nU6nhMYeffRRIiIi8Pv9Mi6FhYUDCnd5vV5RTu+55x6mT5+OzWaTDfwPf/gDGzduDOoPpmmabGT3338/06ZNw+FwyOJ76623BpxObVbc5s+fz9e//nU5eKuqqnjqqad4/fXXgbMp23a7XSypr371qyQlJclmV1hYyNatW0PapBRpcfLkySxYsAAw5lZhYSEffvghAFu3bqW+vp7e3l4h5CYlJTFt2jQ5BNrb2zlw4IAobgMNB6rK8ergGD16NJGRkbJJ5efnU1RUJP3KAOnXZa74DggpNZQN0+12yzOKiYkhOjpalJPW1lY+/vhjKZ4IhvWblJQklarHjRsn7nvlMQkl1GUuhxARESHFY8HYjMvKysQbokJGymMxa9YsUVjUelKthcIRCoyJiREFJSIiQlregPHcysrKZP6kp6cTERGBz+eT+dvR0RHkjQzl0FVhNTD2AXO/MI/HQ29vr3jfXS4XmqYFhVWam5tpbW0Nygoc6EFn9trm5uaSnp4uykd0dDRxcXG43W65lnqequTDqVOnOHPmjOxbSq5QDAB13+b53NvbS2tra5BxqJRtZeg1Nzezd+9eIVAfOHCAuro6urq6wtqvz+fzyf2bK9+73W45+5QxcPjwYVauXAkgWY1qrYXi3e5vRPT29spZ0dLSQnJyssyx9PR06ezw2muvAfD8888LBQDOrvtwdVewCN4WLFiwYMGCBQsXwEXrWZo0aZLUT7DZbHR0dEghRbN3oj+URp6Zmcny5cuZNGmSvF9ZWckPf/hDsWY+D1Q65Ze//OUgQndRURHPP/+8hATNWqy5X9wvfvELqaWhWnz8+te/Fs7MQKyo7Oxsbr31VgnvgcGheP755yVua25BAYblPm/ePP7jP/4DONtzrLS0VDhg5+JbfRo0TSMrK0sKvV1zzTXY7XYaGhp4+eWXAYMLZa63Y7fbiY+PFw+iOVSqwpo7d+4ckJdLlWcAo87LV77yFWJjY+XZv/baa7z33nvieldhgrS0NO6//37A8AyodHCAF154gaqqqpC4XMnJyVx55ZXCUwIjZLJ9+3Zp+Ki6vDudTvFSLFmyRDgfYHhlsNm5AAAWgklEQVS5tmzZMqBnZZYnPj6eKVOmyPyOi4ujsbFRvLgFBQWfKDo5evRobrvtNilPoThCai4P1Mul6k2pRteqZIFyszc3N1NZWUlVVZVcw+l0kp6ezvXXXw8YXmjVkkH9XSgEauU1Uw06zXzAQCBAfX19kGfJ6/VKAcHs7Gy6urpobm6WORSO1jgej4eRI0cyZswYCZmo56O8yIWFhbhcLgn5JCcnk5CQQG9vb1CfRdW7KxQ4nU68Xq8Q2yMiIggEAsK7iYiIoKKiQu47KSkJu91Oa2urjEtlZSUtLS1hSTk3N2BVtfXUfFeenfb2dglBxcbG0t3dLXP++PHjUjQTzoYRBwp13z6fj8bGRvHaejweoqOjiYmJCeKrmuf8gQMHWLNmjdTuUnzAcIW6zO132tvbxXsKZ+e88tB3dnayfft2li1bxoEDBwBjDoWjrdK50NPTI2vN5/ORlZUl1IXIyEhaWlpYvnw5K1YYJR7PnDkTFm7i+XDRKktpaWnijgdjo1Q1OJqbm7Hb7UHuY5VpMG/ePAB+9atfMWPGDFkQra2t/OAHP+DYsWMDIsOpWOnIkSNloYOhAKisCTAUIV3XiYiIkAPoxz/+MQsWLBBXsN/v5+WXX+btt98OqaiZqrWjJrfP52PDhg1s375dDhP1O0XYXbx4Md/97ncl1KRqsfzbv/2bZJwNlLcwbtw4KRzq9Xrx+Xzs2LFD4u09PT14PB55JuPHj+eee+5hyZIlwNlNa+3atfzP//wPQBCZ9/PKo5TIyy67jMzMTPx+v7izd+3aRU9Pj8wxp9PJ9OnTue+++6RHXkREBM3NzcJreu+99wacXaGeWXJyMhMmTOCKK66Q+XDo0CEhuoIRfrLb7cyZM4d//Md/BIwEBZfLJRylxx9/nIKCgpCKGIIRUhszZoysm9jYWPbs2SMhNcX/cDqdslHdf//9zJs3Tw6grVu3snLlSjlcQqkZFBkZKWvtyiuvxOFwSEZgWVkZLS0tREZGSvhpxowZfPvb35aeYg0NDaxevZrdu3eHXKEbziaIZGRkMHPmTDwej4Q+6+vrqampkXBTbGwsV1xxBXfccQdgKAW7du1i3759olCFWsAUzoaZcnJygqqqd3d3y3pRvdauvvpqwFAiW1paKCoqkmKiTU1NYWm2rMIdaqwUF0etrZ6eHlpbW4Nq+rS2tlJaWiqcJVXkMRwck97eXjGCKisrcTgcEurv7u6mvr6eiIgICdX19vZy+vTpoL3BXGw21MNX3VNbWxsVFRUyL1XV8t7eXlEsleKkzrq3336bHTt2BBURDhdUY2U4yxGLiooSysr8+fOlrhPAjh07+OMf/8iuXbvCmmV2LiiKhjJWrrzySh566CE5x1pbW3n55ZdZsWKF7FXhHJtz4aJUlpSFqTZ0RaJWr1XMWR02UVFRcgApUnhGRgZ2u10K0/3oRz/izTffHNDmoGmaPKT+8fe6ujq8Xm9Qe4jMzExuuOEGSVNPTk7G6XTKInnvvff42c9+NiCekpJH3WNMTIzcU21tLRUVFcTHx4uiNmrUKMaOHStNIydNmiRF+8CIz//7v//7gDID+8uUnp4elJVUX19PRUWFjJ3D4WD06NFCjl+wYAFZWVmyiba3t7N161Z+/vOfi+IWysGrYu3p6enYbDbq6+vFs6TSZJUXYNy4ccyfP5+0tLSgrLSVK1eKx01Z5KEgPj6erKwsYmJihCMARnabGrvExERyc3O57rrr5B7AyB5USuTGjRsH7FUyIzIyktTUVPFA6LpOSkqKeGRVo9WcnByuu+46AOm+rqzLZ555hqKiorBYmB6PR8iu48aNkzZAYCh2qpir8j5dc801JCYmigW6fv161qxZIw2XQ4V5XU+ePJm4uDhRbKuqqqiurpYNffbs2cyYMUP2pbKyMt555x2OHDkSlhY9ZkRHR5OdnS3evY6ODhobG0WRS0xM5Etf+pIcfG1tbWzcuJFNmzaJ4hZqtwCF3t7eoAM/Ozs7qOBua2sro0aNEiXY4XBw7Ngxdu/eLYpwS0tL2A47XdeDvH8qIw6MORQVFUVycrIoc/X19WzYsEEqVVdVVYVtbMzo7e2lu7s7SNHwer2MHj1anpPdbufw4cOS+LNp06aQWuBcCLquy/f29vZis9nIzs4WL+24cePw+/3s2LEDMAy0Q4cODYmipFrBqCrqDz/8MCNHjgwicz/xxBPnLEQ9WLA4SxYsWLBgwYIFCxfARelZAsNyMpe5j42N5Z577gFg2rRpdHd3SyG6jIwMsrOzcbvd4qUIBAKcOHGCX/ziF4CR4hhKyELVS1HsemU53XbbbYwZM0as6iuuuEIaQqpwk9/v59SpU5JB8Oyzz0oTxIHKA4ZVYk5L9ng83HjjjeTk5IhldeWVV5KcnBxk6dXW1korlldeeYXNmzeHpb+ZOWwaCASkjYfinum6zrRp08Ql7na7g9JQV61axd/+9jdOnDgRtho9cLZJcUREhIQlpk+fjqZpwgPyer04nU66u7vFBf7CCy+wZs0ascRDrR0CZ7NFdF0Xj8QVV1zBzJkz5ftHjhwpoQzlPfr4449ZsWKFFKE0e6VCgUqJVmsjJiaGqVOnimcpEAiQnJyM1+uVcFNbWxtbt26VTM49e/aEzdo092vs7OwkMTFRvKS5ubn09PSQnJws2XuqEN3bb78NGIVOS0tLw8ajMHMmfD4fERERwiNLTk6mo6NDuHGpqak4nU6Zz8uXL2fNmjU0NTWF1fr1+/34fL6gMHJkZCQxMTHinRw1ahRxcXHivV67di0vv/yytMYIJwKBgHgmwPBqqb0JjHCfKr4IRpmAd955h61bt4rnP9zeATNnKTk5OcjT7vP5sNvtsq43b97M2rVrpfH5YHiV4GyrE+VZnz17NldffTUpKSmy/srKynjrrbeEcxruudMfapzi4+O57rrruOuuu6S8is/n49ChQ+JZz8/PD4s3+9OgaRoRERHMmzePxx57DDCaGft8PukBuWzZsgHzRweKi1JZ0jSNM2fOyIHgdruJiYlhzpw5gHHQORyOoMNQpQor8tyrr77KihUrpHZQqIRBFQP3+XySbg0wc+ZMJk+eLPF6j8cjCoxKPV2zZg0rVqwQrkC4NqvW1lb8fr9sSjExMUycOJGcnBzhKqkDTm0A+/btY+XKlaxevRowFKdwTTjVWwrOKk85OTkS6lL1Q9T1Ghsbeffdd3nrrbcAgytwrhpVA4Gu67IZ1tbWkpiYKMRYMNzOTqcziEdWXV0txG8wNgfl9g0V6p5Pnz5NYWEh6enpIkt8fHxQfSGn00lrayv19fX89a9/BYzDrrCwMGxzR8lTV1fHsWPHhL8xe/ZsYmJigtKH+4cwX3vtNdatWyf1TMJ1uOi6TnNzs3AA3W43l112mdRQcrvduN1u4ZiAcZi8+uqrEkKpqKgIm6Kk67ocDvn5+URERNDR0SHKvkqBV3OkoKCA06dPyzPbs2fPoBx2fr+fkpISKY4KZw0ntXaqq6spKiqSat1vvvkmJ0+eHJQQiq7rtLa2ipKoKmCbw+t+v1/25oMHD7Jp0ybq6uoG7bBTykdLS0tQcoKq73TmzBkOHz4MGOVkBmtszFDKklL0x44dS2JiIs3NzcJFfP/999m8ebOE/MPBKfs0ecBIprjyyiuZNGmSjENeXh7Lly+XeTYUihIYYdqMjAxuv/12Mdr8fj979+7ld7/7HWB0yhjMsTmnXEN6tc8IXdfJz8+Xwopz5swJqj3hcrmESA3GQ6yuruaPf/xjUPfxcG6aKlOisbERl8slsoBxuJmrnjY1NfHxxx9L89pDhw7R3NwcNpa++p7y8nIaGxvl2ur6ZitPeW7+9re/AfDXv/6VM2fOhN16CgQClJaWyiFms9nQdR2/3x/UPqS3t1di4Dt37mT9+vVCXgxnVkUgEJCDQilhkZGRsml2dnZKliXA3r17OXLkCHv27BFrPJwbuXpmNTU1HDhwgMbGRlEClBdJWd4dHR2SkaO8XOFokHsueVpbWzl06JCQs/fu3SvF59R1VWVole125MgR2tvbw551ous67e3t8tzOnDnDrl27hKiflJQk2ZTKECkvL6egoCCodlc4oZT/0tJSamtr+fjjj4V7k5ycjM/nE2OloqKCsrIy8VAM1uHb29tLTU0NmzZtkirlmZmZJCYmyhpyOBycPHlSZKmsrBy0rCUwvI2Kw9bc3ExmZuYnWq+oKs9q3xpMr4DZGCgvLw/aI1taWmhpaZHiuFVVVSFV4/80qPnhdDqD6oh1dXWxZ88eqqurJZt648aN1NbWhiUR4NNgbr0yZ84ccnJyqK+vFyXyww8/5KOPPhoUcvm5oJTr5ORkFi5cyFVXXSXXLCws5Nlnn5W9YSjGpz8szpIFCxYsWLBgwcIFcNF6lvbv388LL7wAGLUmcnNzxTpQLRBUY8/du3ezfv16ysvLB8V66u3tFY9VUlISWVlZQRW8zdbCkSNH2LJlC/n5+RK6C7fFotyPH374IYmJicJT6OzspLm5mZ6eHuEonTx5kt27d4c9A6Y/AoEAu3fv5qWXXgKMZ9TZ2UlbW5t4ajRNo7y8XFI9B7NGRyAQEC/X2rVr2bJlS1D2R3t7Oz09PeLubmlpobOzc9Bcu2ZPTl5eHkePHpXQrdvtDrp2W1sbnZ2d0ox2MOHz+aiqqpIsqoKCAqKiomSeqFosPp8vqIfYYEFVNQZjHBoaGmS+KK+pSpMHBvWZAUHea5XJpORT6dbKc9rZ2UlHR8egPzPlsW1tbRX5/H6/hHLAGLv29nahMgz2GAUCARmH2tpaXC6XZLSqdH3FT2pvbx90L4Xy5vj9frq6uoQj2tjYSENDA6dOnRJv6mB6lcxQfQ6Vx62pqYny8nJOnTolXrempqYh8ZqoMh2KT3r55Zfjdrv56KOP2LlzJ2CEkcNVzuGzQFFGpk2bxm233UZ0dLSE+lesWMFHH30knt6heF79oQ3HRT8hhKadUwg14VX7AnNTvAv1WxokGQGCwm/nwlDIoqCaV/afzP3Lxg+1PHDWZTtcsih5ABmj/tceanngbO+zc1071J5hocpzIVmGWh6zDGrtqddDucbMveFUSrOSTylL4ehB93llUoaj+t9utwcpRH6/f1AL9Jlhs9lwuVxBzWsdDkeQch3u9hyfJo8qpKhKYyjU1NRIa4+hOnjVuKSmppKRkSFk846ODgoKCmhoaBBFUvXLHGw4HA4mT57M3LlzAYMHfPr0aXbu3CkKimpjMlRzSI3L3Xffze23305lZaUUNN60aRM1NTWDpUju03V9zqd96KJWlixYsGBhOGE20C6GvRLOGo9DmQl0IdhstqB6WKH2mgsVDodDiMuBQAC/3z8siraC8pgoEr5KCFBZjcMhU2xsLLNmzRJF8sSJE5w+fTrIszWUBOqoqCjpVzpv3jxKS0vZsGGDRI8G2ctuKUsWLFiwYGFw0d/zN9xQ2dEwPMpRfyjvn0riGCoP24Xg8XhISkoSxaipqSksrW8GCpfLxcSJEwGEYqNkGgJ8JmXJInhbsGDBggULFixcAJZnyYIFCxYsWLBwqeIzeZYulmy4OqC97/9LGYlc2mNwqd8/WGMA1hhc6vcP1hiANQYwNGOQ9Vk+dFF4lgA0Tfv4s2h3X2Rc6mNwqd8/WGMA1hhc6vcP1hiANQZwcY2BxVmyYMGCBQsWLFi4ACxlyYIFCxYsWLBg4QK4mJSlZ4dbgIsAl/oYXOr3D9YYgDUGl/r9gzUGYI0BXERjcNFwlixYsGDBggULFi5GXEyeJQsWLFiwYMGChYsOw64saZp2s6ZphZqmFWma9uPhlmeooGlaqaZphzVNO6hp2sd978VrmrZe07QTff/HDbec4YSmac9rmlajaVq+6b1z3rNm4A998+KQpmmzhk/y8OE8Y/BLTdMq+ubCQU3TFpl+95O+MSjUNO3LwyN1+KBpWqamaZs0TTuqadoRTdO+1/f+JTMPLjAGl8Q80DTNo2naHk3T8vru/z/63s/WNG13333+VdM0V9/77r7XRX2/Hz2c8ocDFxiDFzRNKzHNgRl973/h1oGCpml2TdMOaJr2Xt/ri3MeqCaZw/EPsAPFQA7gAvKAScMp0xDeeymQ2O+93wI/7vv5x8BvhlvOMN/zNcAsIP/T7hlYBKwBNOBLwO7hln8Qx+CXwP87x2cn9a0JN5Ddt1bsw30PId5/GjCr7+cY4HjffV4y8+ACY3BJzIO+Zxnd97MT2N33bF8Dlva9/wzwcN/P/ww80/fzUuCvw30PgzgGLwBLzvH5L9w6MN3bD4FXgPf6Xl+U82C4PUuXA0W6rp/Udb0bWAXcPswyDSduB17s+/lF4CvDKEvYoev6VqCh39vnu+fbgb/oBnYBXk3T0oZG0sHDecbgfLgdWKXruk/X9RKgCGPN/J+FrutndF3f3/dzK3AMSOcSmgcXGIPz4Qs1D/qeZVvfS2ffPx2YD7zR937/OaDmxhvADZpm6nD8fxAXGIPz4Qu3DgA0TcsAbgGe63utcZHOg+FWltKBctPr01x40/giQQfWaZq2T9O0f+p7L0XX9TN9P1cBKcMj2pDifPd8qc2N7/a51583hV+/0GPQ50afiWFVX5LzoN8YwCUyD/pCLweBGmA9hresSdf1nr6PmO9R7r/v981AwtBKHH70HwNd19Uc+M++OfA/mqa5+977ws2BPjwB/DugOvgmcJHOg+FWli5lXK3r+ixgIfAvmqZdY/6lbvgaL6lUxUvxnvuwDBgDzADOAI8PrziDD03TooE3ge/rut5i/t2lMg/OMQaXzDzQdb1X1/UZQAaGl2zCMIs05Og/BpqmTQF+gjEWlwHxwI+GUcRBhaZptwI1uq7vG25ZPguGW1mqADJNrzP63vvCQ9f1ir7/a4C3MTaMauVa7fu/ZvgkHDKc754vmbmh63p138YZAJZzNsTyhRwDTdOcGErCy7quv9X39iU1D841BpfaPADQdb0J2ATMxQgtqX6l5nuU++/7fSxQP8SiDhpMY3BzX4hW13XdB/yZL/YcuAq4TdO0UgwKznzgSS7SeTDcytJeILeP/e7CIG39fZhlGnRomhalaVqM+hlYAORj3Pt9fR+7D3hneCQcUpzvnv8OfKsvC+RLQLMpTPOFQj/uwVcx5gIYY7C0LwskG8gF9gy1fOFEH8dgBXBM1/Xfm351ycyD843BpTIPNE1L0jTN2/dzBHATBm9rE7Ck72P954CaG0uAjX3ex/+zOM8YFJgMBg2Dq2OeA1+odaDr+k90Xc/QdX00xtm/Udf1e7hY58FQssnP9Q+D5X8cI2b90+GWZ4juOQcjuyUPOKLuGyP+ugE4AXwIxA+3rGG+71cxwgt+jFj0A+e7Z4ysj6f75sVhYM5wyz+IY7Cy7x4PYWwIaabP/7RvDAqBhcMtfxju/2qMENsh4GDfv0WX0jy4wBhcEvMAmAYc6LvPfOD/63s/B0MJLAJeB9x973v6Xhf1/T5nuO9hEMdgY98cyAde4mzG3BduHfQbj+s4mw13Uc4Dq4K3BQsWLFiwYMHCBTDcYTgLFixYsGDBgoWLGpayZMGCBQsWLFiwcAFYypIFCxYsWLBgwcIFYClLFixYsGDBggULF4ClLFmwYMGCBQsWLFwAlrJkwYIFCxYsWLBwAVjKkgULFixYsGDBwgVgKUsWLFiwYMGCBQsXwP8PaLqO3HxrC08AAAAASUVORK5CYII=\n",
      "text/plain": [
       "<matplotlib.figure.Figure at 0x11b261588>"
      ]
     },
     "metadata": {},
     "output_type": "display_data"
    }
   ],
   "source": [
    "# display a 2D manifold of the digits\n",
    "n = 15  # figure with 15x15 digits\n",
    "digit_size = 28\n",
    "figure = np.zeros((digit_size * n, digit_size * n))\n",
    "# linearly spaced coordinates on the unit square were transformed through the inverse CDF (ppf) of the Gaussian\n",
    "# to produce values of the latent variables z, since the prior of the latent space is Gaussian\n",
    "grid_x = norm.ppf(np.linspace(0.05, 0.95, n))\n",
    "grid_y = norm.ppf(np.linspace(0.05, 0.95, n))\n",
    "\n",
    "for i, yi in enumerate(grid_x):\n",
    "    for j, xi in enumerate(grid_y):\n",
    "        z_sample = np.array([[xi, yi]])\n",
    "        z_sample = np.tile(z_sample, batch_size).reshape(batch_size, 2)\n",
    "        x_decoded = generator.predict(z_sample, batch_size=batch_size)\n",
    "        digit = x_decoded[0].reshape(digit_size, digit_size)\n",
    "        figure[i * digit_size: (i + 1) * digit_size,\n",
    "               j * digit_size: (j + 1) * digit_size] = digit\n",
    "\n",
    "plt.figure(figsize=(10, 10))\n",
    "plt.imshow(figure, cmap='Greys_r')\n",
    "plt.show()"
   ]
  },
  {
   "cell_type": "code",
   "execution_count": null,
   "metadata": {},
   "outputs": [],
   "source": []
  },
  {
   "cell_type": "code",
   "execution_count": null,
   "metadata": {},
   "outputs": [],
   "source": []
  },
  {
   "cell_type": "code",
   "execution_count": null,
   "metadata": {},
   "outputs": [],
   "source": []
  },
  {
   "cell_type": "code",
   "execution_count": null,
   "metadata": {},
   "outputs": [],
   "source": []
  }
 ],
 "metadata": {
  "kernelspec": {
   "display_name": "Python 3",
   "language": "python",
   "name": "python3"
  },
  "language_info": {
   "codemirror_mode": {
    "name": "ipython",
    "version": 3
   },
   "file_extension": ".py",
   "mimetype": "text/x-python",
   "name": "python",
   "nbconvert_exporter": "python",
   "pygments_lexer": "ipython3",
   "version": "3.6.4"
  }
 },
 "nbformat": 4,
 "nbformat_minor": 2
}
