{
 "cells": [
  {
   "cell_type": "code",
   "execution_count": 1,
   "metadata": {},
   "outputs": [
    {
     "name": "stderr",
     "output_type": "stream",
     "text": [
      "/Library/Frameworks/Python.framework/Versions/3.6/lib/python3.6/site-packages/h5py/__init__.py:36: FutureWarning: Conversion of the second argument of issubdtype from `float` to `np.floating` is deprecated. In future, it will be treated as `np.float64 == np.dtype(float).type`.\n",
      "  from ._conv import register_converters as _register_converters\n",
      "Using TensorFlow backend.\n"
     ]
    }
   ],
   "source": [
    "'''This script demonstrates how to build a variational autoencoder\n",
    "with Keras and deconvolution layers.\n",
    "# Reference\n",
    "- Auto-Encoding Variational Bayes\n",
    "  https://arxiv.org/abs/1312.6114\n",
    "'''\n",
    "from __future__ import print_function\n",
    "\n",
    "import numpy as np\n",
    "import matplotlib.pyplot as plt\n",
    "from scipy.stats import norm\n",
    "import keras\n",
    "from keras.layers import Input, Dense, Lambda, Flatten, Reshape, Conv1D\n",
    "from keras.layers import Conv2D, Conv2DTranspose\n",
    "from keras.models import Model\n",
    "from keras import backend as K\n",
    "from keras import metrics\n",
    "from keras.datasets import mnist"
   ]
  },
  {
   "cell_type": "code",
   "execution_count": 2,
   "metadata": {},
   "outputs": [],
   "source": [
    "import config\n",
    "import os, numpy as np, pandas, sklearn, scipy.signal as signal\n",
    "import mido\n",
    "import matplotlib.pyplot as plt\n",
    "%matplotlib inline"
   ]
  },
  {
   "cell_type": "code",
   "execution_count": 3,
   "metadata": {},
   "outputs": [
    {
     "name": "stdout",
     "output_type": "stream",
     "text": [
      " Context :: namedtuple(\n",
      "[ max_t = float\n",
      ", dt = float\n",
      ", n_instances = int\n",
      ", note_length = int\n",
      ", bpm = float\n",
      ", tempo = float\n",
      ", ticks_per_beat = int\n",
      "]\n",
      "\n"
     ]
    }
   ],
   "source": [
    "# local libs\n",
    "import config, models, functions\n",
    "from data import data, midi, midi_generators as g\n",
    "from utils import io, models_io, utils, plot"
   ]
  },
  {
   "cell_type": "code",
   "execution_count": 4,
   "metadata": {},
   "outputs": [
    {
     "name": "stdout",
     "output_type": "stream",
     "text": [
      "Setting up params\n",
      "\n",
      "max min f 25.0 0.3333333333333333\n",
      " >> Context(max_t=3.0, dt=0.02, n_instances=150, note_length=0.03, bpm=120.0, tempo=500000, ticks_per_beat=480)\n",
      "Setting up params\n",
      "\n",
      "max min f 25.0 0.3333333333333333\n",
      " >> Context(max_t=3.0, dt=0.02, n_instances=150, note_length=0.03, bpm=120.0, tempo=500000, ticks_per_beat=480)\n",
      "Importing midi-data\n",
      "\n",
      "\u001b[92m [INFO] : \u001b[0m\n",
      " |  reading file: ../datasets/examples/01 16th Snare.mid\n",
      "\u001b[92m [INFO] : \u001b[0m\n",
      " |  reading file: ../datasets/examples/01 8th Cym.mid\n",
      "\n",
      "Encoding midi-data\n",
      " [<midi file '../datasets/examples/01 16th Snare.mid' type 0, 1 tracks, 182 messages>, <midi file '../datasets/examples/01 8th Cym.mid' type 0, 1 tracks, 68 messages>]\n",
      "> -> multi-track = True\n",
      "<meta message track_name name='01 16th Snare\\x00' time=0>\n",
      "<meta message time_signature numerator=4 denominator=4 clocks_per_click=36 notated_32nd_notes_per_beat=8 time=0>\n",
      "<meta message time_signature numerator=4 denominator=4 clocks_per_click=36 notated_32nd_notes_per_beat=8 time=0>\n",
      "note_on channel=0 note=36 velocity=104 time=0\n",
      "note_on channel=0 note=38 velocity=57 time=0\n",
      "note_off channel=0 note=38 velocity=64 time=0.08333333333333333\n",
      "note_off channel=0 note=36 velocity=64 time=0.020833333333333332\n",
      "note_on channel=0 note=38 velocity=73 time=0.010416666666666666\n",
      "note_off channel=0 note=38 velocity=64 time=0.08333333333333333\n",
      "note_on channel=0 note=38 velocity=107 time=0.041666666666666664\n",
      "note_off channel=0 note=38 velocity=64 time=0.109375\n",
      "note_on channel=0 note=38 velocity=104 time=0.020833333333333332\n",
      "note_off channel=0 note=38 velocity=64 time=0.09895833333333333\n",
      "note_on channel=0 note=38 velocity=64 time=0.020833333333333332\n",
      "note_on channel=0 note=36 velocity=103 time=0.005208333333333333\n",
      "note_on channel=0 note=44 velocity=105 time=0\n",
      "note_off channel=0 note=38 velocity=64 time=0.08854166666666666\n",
      "note_off channel=0 note=36 velocity=64 time=0.020833333333333332\n",
      "note_off channel=0 note=44 velocity=64 time=0.005208333333333333\n",
      "note_on channel=0 note=38 velocity=107 time=0.13020833333333331\n",
      "note_off channel=0 note=38 velocity=64 time=0.109375\n",
      "note_on channel=0 note=38 velocity=27 time=0.03125\n",
      "note_off channel=0 note=38 velocity=64 time=0.08333333333333333\n",
      "note_on channel=0 note=36 velocity=104 time=0.03645833333333333\n",
      "note_on channel=0 note=38 velocity=54 time=0\n",
      "note_off channel=0 note=36 velocity=64 time=0.078125\n",
      "note_off channel=0 note=38 velocity=64 time=0\n",
      "note_on channel=0 note=38 velocity=98 time=0.041666666666666664\n",
      "note_off channel=0 note=38 velocity=64 time=0.09375\n",
      "note_on channel=0 note=38 velocity=107 time=0.026041666666666664\n",
      "note_off channel=0 note=38 velocity=64 time=0.09895833333333333\n",
      "note_on channel=0 note=38 velocity=104 time=0.03125\n",
      "note_off channel=0 note=38 velocity=64 time=0.08333333333333333\n",
      "note_on channel=0 note=36 velocity=104 time=0.03645833333333333\n",
      "note_on channel=0 note=38 velocity=50 time=0\n",
      "note_on channel=0 note=44 velocity=107 time=0\n",
      "note_off channel=0 note=38 velocity=64 time=0.078125\n",
      "note_off channel=0 note=36 velocity=64 time=0.03125\n",
      "note_off channel=0 note=44 velocity=64 time=0\n",
      "note_on channel=0 note=38 velocity=74 time=0.005208333333333333\n",
      "note_off channel=0 note=38 velocity=64 time=0.08854166666666666\n",
      "note_on channel=0 note=38 velocity=107 time=0.03645833333333333\n",
      "note_on channel=0 note=36 velocity=99 time=0.010416666666666666\n",
      "note_off channel=0 note=38 velocity=64 time=0.08854166666666666\n",
      "note_off channel=0 note=36 velocity=64 time=0.026041666666666664\n",
      "note_on channel=0 note=38 velocity=34 time=0\n",
      "note_off channel=0 note=38 velocity=64 time=0.08854166666666666\n",
      "note_on channel=0 note=36 velocity=104 time=0.05208333333333333\n",
      "note_on channel=0 note=38 velocity=60 time=0\n",
      "note_off channel=0 note=36 velocity=64 time=0.09895833333333333\n",
      "note_off channel=0 note=38 velocity=64 time=0.005208333333333333\n",
      "note_on channel=0 note=38 velocity=74 time=0.026041666666666664\n",
      "note_off channel=0 note=38 velocity=64 time=0.10416666666666666\n",
      "note_on channel=0 note=38 velocity=107 time=0.015625\n",
      "note_off channel=0 note=38 velocity=64 time=0.08333333333333333\n",
      "note_on channel=0 note=38 velocity=104 time=0.046875\n",
      "note_off channel=0 note=38 velocity=64 time=0.09895833333333333\n",
      "note_on channel=0 note=36 velocity=104 time=0.020833333333333332\n",
      "note_on channel=0 note=44 velocity=107 time=0\n",
      "note_on channel=0 note=38 velocity=76 time=0.005208333333333333\n",
      "note_off channel=0 note=36 velocity=64 time=0.078125\n",
      "note_off channel=0 note=44 velocity=64 time=0\n",
      "note_off channel=0 note=38 velocity=64 time=0.020833333333333332\n",
      "note_on channel=0 note=38 velocity=107 time=0.14583333333333331\n",
      "note_off channel=0 note=38 velocity=64 time=0.08854166666666666\n",
      "note_on channel=0 note=38 velocity=34 time=0.03125\n",
      "note_off channel=0 note=38 velocity=64 time=0.08854166666666666\n",
      "note_on channel=0 note=36 velocity=103 time=0.041666666666666664\n",
      "\u001b[91m [DEBUG] > \u001b[0m\n",
      " |>  to_array: msg.time > max_t; t, n\n",
      " |>  2.994791666666667\n",
      " |>  150\n",
      "<meta message track_name name='01 8th Cym\\x00' time=0>\n",
      "<meta message time_signature numerator=4 denominator=4 clocks_per_click=36 notated_32nd_notes_per_beat=8 time=0>\n",
      "<meta message time_signature numerator=4 denominator=4 clocks_per_click=36 notated_32nd_notes_per_beat=8 time=0>\n",
      "note_on channel=0 note=36 velocity=123 time=0\n",
      "note_on channel=0 note=44 velocity=87 time=0\n",
      "note_on channel=0 note=57 velocity=118 time=0\n",
      "note_off channel=0 note=36 velocity=64 time=0.0625\n",
      "note_off channel=0 note=44 velocity=64 time=0\n",
      "note_off channel=0 note=57 velocity=64 time=0\n",
      "note_on channel=0 note=57 velocity=99 time=0.17708333333333331\n",
      "note_off channel=0 note=57 velocity=64 time=0.0625\n",
      "note_on channel=0 note=38 velocity=119 time=0.1875\n",
      "note_on channel=0 note=57 velocity=118 time=0.005208333333333333\n",
      "note_on channel=0 note=44 velocity=88 time=0.005208333333333333\n",
      "note_off channel=0 note=38 velocity=64 time=0.05208333333333333\n",
      "note_off channel=0 note=57 velocity=64 time=0.005208333333333333\n",
      "note_off channel=0 note=44 velocity=64 time=0.005208333333333333\n",
      "note_on channel=0 note=57 velocity=107 time=0.1875\n",
      "note_on channel=0 note=38 velocity=118 time=0.005208333333333333\n",
      "note_off channel=0 note=57 velocity=64 time=0.057291666666666664\n",
      "note_off channel=0 note=38 velocity=64 time=0.005208333333333333\n",
      "note_on channel=0 note=44 velocity=90 time=0.17708333333333331\n",
      "note_on channel=0 note=57 velocity=118 time=0.005208333333333333\n",
      "note_off channel=0 note=44 velocity=64 time=0.057291666666666664\n",
      "note_off channel=0 note=57 velocity=64 time=0.005208333333333333\n",
      "note_on channel=0 note=57 velocity=100 time=0.171875\n",
      "note_off channel=0 note=57 velocity=64 time=0.0625\n",
      "note_on channel=0 note=38 velocity=120 time=0.203125\n",
      "note_on channel=0 note=44 velocity=88 time=0\n",
      "note_on channel=0 note=57 velocity=119 time=0.010416666666666666\n",
      "note_off channel=0 note=38 velocity=64 time=0.05208333333333333\n",
      "note_off channel=0 note=44 velocity=64 time=0\n",
      "note_off channel=0 note=57 velocity=64 time=0.010416666666666666\n",
      "note_on channel=0 note=57 velocity=101 time=0.17708333333333331\n",
      "note_off channel=0 note=57 velocity=64 time=0.0625\n",
      "note_on channel=0 note=44 velocity=87 time=0.18229166666666666\n",
      "note_on channel=0 note=57 velocity=115 time=0.005208333333333333\n",
      "note_on channel=0 note=36 velocity=118 time=0\n",
      "note_off channel=0 note=44 velocity=64 time=0.057291666666666664\n",
      "note_off channel=0 note=57 velocity=64 time=0.005208333333333333\n",
      "note_off channel=0 note=36 velocity=64 time=0\n",
      "note_on channel=0 note=57 velocity=108 time=0.18229166666666666\n",
      "note_off channel=0 note=57 velocity=64 time=0.0625\n",
      "note_on channel=0 note=38 velocity=120 time=0.17708333333333331\n",
      "note_on channel=0 note=44 velocity=90 time=0.010416666666666666\n",
      "note_on channel=0 note=57 velocity=115 time=0.015625\n",
      "note_off channel=0 note=38 velocity=64 time=0.03645833333333333\n",
      "note_off channel=0 note=44 velocity=64 time=0.010416666666666666\n",
      "note_off channel=0 note=57 velocity=64 time=0.015625\n",
      "note_on channel=0 note=38 velocity=120 time=0.16145833333333331\n",
      "note_on channel=0 note=57 velocity=101 time=0.010416666666666666\n",
      "note_off channel=0 note=38 velocity=64 time=0.05208333333333333\n",
      "note_off channel=0 note=57 velocity=64 time=0.010416666666666666\n",
      "note_on channel=0 note=44 velocity=91 time=0.18229166666666666\n",
      "note_on channel=0 note=57 velocity=115 time=0.005208333333333333\n",
      "\u001b[91m [DEBUG] > \u001b[0m\n",
      " |>  to_array: msg.time > max_t; t, n\n",
      " |>  2.9947916666666665\n",
      " |>  150\n"
     ]
    }
   ],
   "source": [
    "context = data.init()\n",
    "n = 2\n",
    "multiTrack = True\n",
    "context, x_train, labels = data.import_data(data.init(), n, multiTrack=multiTrack)"
   ]
  },
  {
   "cell_type": "code",
   "execution_count": 5,
   "metadata": {},
   "outputs": [
    {
     "name": "stdout",
     "output_type": "stream",
     "text": [
      "note_on channel=0 note=60 velocity=127 time=0.025\n",
      "note_on channel=0 note=61 velocity=127 time=0.016666666666666666\n",
      "note_off channel=0 note=60 velocity=127 time=0.003125\n",
      "note_off channel=0 note=61 velocity=127 time=0.016666666666666666\n",
      "note_on channel=0 note=62 velocity=127 time=0.01875\n",
      "note_off channel=0 note=62 velocity=127 time=0.019791666666666666\n",
      "note_on channel=0 note=61 velocity=127 time=0.04895833333333333\n",
      "note_on channel=0 note=60 velocity=127 time=0.010416666666666666\n",
      "note_off channel=0 note=61 velocity=127 time=0.010416666666666666\n",
      "note_off channel=0 note=60 velocity=127 time=0.010416666666666666\n",
      "note_on channel=0 note=61 velocity=127 time=0.078125\n",
      "note_off channel=0 note=61 velocity=127 time=0.019791666666666666\n",
      "note_on channel=0 note=60 velocity=127 time=0.016666666666666666\n",
      "note_off channel=0 note=60 velocity=127 time=0.019791666666666666\n",
      "note_on channel=0 note=61 velocity=127 time=0.051041666666666666\n",
      "note_off channel=0 note=61 velocity=127 time=0.019791666666666666\n",
      "note_on channel=0 note=62 velocity=127 time=0.016666666666666666\n",
      "note_off channel=0 note=62 velocity=127 time=0.019791666666666666\n",
      "note_on channel=0 note=60 velocity=127 time=0.00625\n",
      "note_off channel=0 note=60 velocity=127 time=0.019791666666666666\n",
      "note_on channel=0 note=61 velocity=127 time=0.02395833333333333\n",
      "note_off channel=0 note=61 velocity=127 time=0.019791666666666666\n",
      "note_on channel=0 note=60 velocity=127 time=0.07083333333333333\n",
      "note_on channel=0 note=61 velocity=127 time=0.017708333333333333\n",
      "note_off channel=0 note=60 velocity=127 time=0.003125\n",
      "note_off channel=0 note=61 velocity=127 time=0.017708333333333333\n",
      "note_on channel=0 note=61 velocity=127 time=0.0875\n",
      "note_on channel=0 note=60 velocity=127 time=0.009375\n",
      "note_off channel=0 note=61 velocity=127 time=0.010416666666666666\n",
      "note_off channel=0 note=60 velocity=127 time=0.009375\n",
      "note_on channel=0 note=62 velocity=127 time=0.005208333333333333\n",
      "note_off channel=0 note=62 velocity=127 time=0.019791666666666666\n",
      "note_on channel=0 note=61 velocity=127 time=0.053125\n",
      "note_off channel=0 note=61 velocity=127 time=0.019791666666666666\n",
      "note_on channel=0 note=60 velocity=127 time=0.016666666666666666\n",
      "note_off channel=0 note=60 velocity=127 time=0.019791666666666666\n",
      "note_on channel=0 note=61 velocity=127 time=0.051041666666666666\n",
      "note_off channel=0 note=61 velocity=127 time=0.019791666666666666\n",
      "note_on channel=0 note=60 velocity=127 time=0.042708333333333334\n",
      "note_off channel=0 note=60 velocity=127 time=0.019791666666666666\n",
      "note_on channel=0 note=61 velocity=127 time=0.025\n",
      "note_off channel=0 note=61 velocity=127 time=0.019791666666666666\n",
      "note_on channel=0 note=62 velocity=127 time=0.0125\n",
      "note_off channel=0 note=62 velocity=127 time=0.019791666666666666\n",
      "note_on channel=0 note=60 velocity=127 time=0.0375\n",
      "note_on channel=0 note=61 velocity=127 time=0.017708333333333333\n",
      "note_off channel=0 note=60 velocity=127 time=0.0020833333333333333\n",
      "note_off channel=0 note=61 velocity=127 time=0.017708333333333333\n",
      "note_on channel=0 note=61 velocity=127 time=0.0875\n",
      "note_on channel=0 note=60 velocity=127 time=0.009375\n",
      "note_off channel=0 note=61 velocity=127 time=0.011458333333333333\n",
      "note_off channel=0 note=60 velocity=127 time=0.009375\n",
      "note_on channel=0 note=61 velocity=127 time=0.07916666666666666\n",
      "note_off channel=0 note=61 velocity=127 time=0.019791666666666666\n",
      "note_on channel=0 note=62 velocity=127 time=0.010416666666666666\n",
      "note_on channel=0 note=60 velocity=127 time=0.005208333333333333\n",
      "note_off channel=0 note=62 velocity=127 time=0.014583333333333334\n",
      "note_off channel=0 note=60 velocity=127 time=0.005208333333333333\n",
      "note_on channel=0 note=61 velocity=127 time=0.052083333333333336\n",
      "note_off channel=0 note=61 velocity=127 time=0.019791666666666666\n",
      "note_on channel=0 note=60 velocity=127 time=0.042708333333333334\n",
      "note_off channel=0 note=60 velocity=127 time=0.019791666666666666\n",
      "note_on channel=0 note=61 velocity=127 time=0.025\n",
      "note_off channel=0 note=61 velocity=127 time=0.019791666666666666\n",
      "note_on channel=0 note=60 velocity=127 time=0.06875\n",
      "note_on channel=0 note=61 velocity=127 time=0.01875\n",
      "note_off channel=0 note=60 velocity=127 time=0.0010416666666666667\n",
      "note_off channel=0 note=61 velocity=127 time=0.01875\n",
      "note_on channel=0 note=62 velocity=127 time=0.007291666666666667\n",
      "note_off channel=0 note=62 velocity=127 time=0.019791666666666666\n",
      "note_on channel=0 note=61 velocity=127 time=0.06041666666666667\n",
      "note_on channel=0 note=60 velocity=127 time=0.008333333333333333\n",
      "note_off channel=0 note=61 velocity=127 time=0.011458333333333333\n",
      "note_off channel=0 note=60 velocity=127 time=0.008333333333333333\n",
      "note_on channel=0 note=61 velocity=127 time=0.07916666666666666\n",
      "note_off channel=0 note=61 velocity=127 time=0.019791666666666666\n",
      "note_on channel=0 note=60 velocity=127 time=0.014583333333333334\n",
      "note_off channel=0 note=60 velocity=127 time=0.019791666666666666\n",
      "note_on channel=0 note=61 velocity=127 time=0.053125\n",
      "note_off channel=0 note=61 velocity=127 time=0.019791666666666666\n",
      "note_on channel=0 note=62 velocity=127 time=0.005208333333333333\n",
      "note_off channel=0 note=62 velocity=127 time=0.019791666666666666\n",
      "note_on channel=0 note=60 velocity=127 time=0.016666666666666666\n",
      "note_off channel=0 note=60 velocity=127 time=0.019791666666666666\n",
      "note_on channel=0 note=61 velocity=127 time=0.026041666666666668\n",
      "note_off channel=0 note=61 velocity=127 time=0.019791666666666666\n",
      "note_on channel=0 note=60 velocity=127 time=0.06875\n",
      "note_on channel=0 note=61 velocity=127 time=0.01875\n",
      "note_off channel=0 note=60 velocity=127 time=0.0010416666666666667\n",
      "note_off channel=0 note=61 velocity=127 time=0.01875\n",
      "note_on channel=0 note=61 velocity=127 time=0.0875\n",
      "note_on channel=0 note=60 velocity=127 time=0.007291666666666667\n",
      "note_off channel=0 note=61 velocity=127 time=0.0125\n",
      "note_on channel=0 note=62 velocity=127 time=0.003125\n",
      "note_off channel=0 note=60 velocity=127 time=0.004166666666666667\n",
      "note_off channel=0 note=62 velocity=127 time=0.015625\n",
      "note_on channel=0 note=61 velocity=127 time=0.06458333333333333\n",
      "note_off channel=0 note=61 velocity=127 time=0.019791666666666666\n",
      "note_on channel=0 note=60 velocity=127 time=0.014583333333333334\n",
      "note_off channel=0 note=60 velocity=127 time=0.019791666666666666\n",
      "note_on channel=0 note=61 velocity=127 time=0.053125\n",
      "note_off channel=0 note=61 velocity=127 time=0.019791666666666666\n",
      "note_on channel=0 note=60 velocity=127 time=0.041666666666666664\n",
      "note_off channel=0 note=60 velocity=127 time=0.019791666666666666\n",
      "note_on channel=0 note=61 velocity=127 time=0.026041666666666668\n",
      "note_off channel=0 note=61 velocity=127 time=0.019791666666666666\n",
      "note_on channel=0 note=62 velocity=127 time=0.0010416666666666667\n",
      "note_off channel=0 note=62 velocity=127 time=0.019791666666666666\n",
      "note_on channel=0 note=60 velocity=127 time=0.046875\n",
      "note_on channel=0 note=61 velocity=127 time=0.019791666666666666\n",
      "note_off channel=0 note=60 velocity=127 time=0\n",
      "note_off channel=0 note=61 velocity=127 time=0.019791666666666666\n",
      "note_on channel=0 note=61 velocity=127 time=0.0875\n",
      "note_on channel=0 note=60 velocity=127 time=0.007291666666666667\n",
      "note_off channel=0 note=61 velocity=127 time=0.0125\n",
      "note_off channel=0 note=60 velocity=127 time=0.007291666666666667\n",
      "note_on channel=0 note=61 velocity=127 time=0.08020833333333333\n",
      "note_on channel=0 note=62 velocity=127 time=0.01875\n",
      "note_off channel=0 note=61 velocity=127 time=0.0020833333333333333\n",
      "note_on channel=0 note=60 velocity=127 time=0.013541666666666667\n",
      "note_off channel=0 note=62 velocity=127 time=0.004166666666666667\n",
      "note_off channel=0 note=60 velocity=127 time=0.015625\n",
      "\u001b[91m [DEBUG] > \u001b[0m\n",
      " |>  to_array: msg.time > max_t; t, n\n",
      " |>  2.997916666666668\n",
      " |>  150\n",
      "note_on channel=0 note=60 velocity=127 time=0.00625\n",
      "note_off channel=0 note=60 velocity=127 time=0.019791666666666666\n",
      "note_on channel=0 note=62 velocity=127 time=0.017708333333333333\n",
      "note_off channel=0 note=62 velocity=127 time=0.019791666666666666\n",
      "note_on channel=0 note=60 velocity=127 time=0.010416666666666666\n",
      "note_off channel=0 note=60 velocity=127 time=0.019791666666666666\n",
      "note_on channel=0 note=62 velocity=127 time=0.03854166666666667\n",
      "note_on channel=0 note=60 velocity=127 time=0.010416666666666666\n",
      "note_off channel=0 note=62 velocity=127 time=0.009375\n",
      "note_off channel=0 note=60 velocity=127 time=0.010416666666666666\n",
      "note_on channel=0 note=61 velocity=127 time=0.0020833333333333333\n",
      "note_off channel=0 note=61 velocity=127 time=0.019791666666666666\n",
      "note_on channel=0 note=60 velocity=127 time=0.027083333333333334\n",
      "note_on channel=0 note=62 velocity=127 time=0.009375\n",
      "note_off channel=0 note=60 velocity=127 time=0.010416666666666666\n",
      "note_off channel=0 note=62 velocity=127 time=0.009375\n",
      "note_on channel=0 note=60 velocity=127 time=0.03854166666666667\n",
      "note_off channel=0 note=60 velocity=127 time=0.019791666666666666\n",
      "note_on channel=0 note=62 velocity=127 time=0.010416666666666666\n",
      "note_off channel=0 note=62 velocity=127 time=0.019791666666666666\n",
      "note_on channel=0 note=61 velocity=127 time=0.00625\n",
      "note_on channel=0 note=60 velocity=127 time=0.0125\n",
      "note_off channel=0 note=61 velocity=127 time=0.007291666666666667\n",
      "note_off channel=0 note=60 velocity=127 time=0.0125\n",
      "note_on channel=0 note=62 velocity=127 time=0.030208333333333334\n",
      "note_on channel=0 note=60 velocity=127 time=0.01875\n",
      "note_off channel=0 note=62 velocity=127 time=0.0020833333333333333\n",
      "note_off channel=0 note=60 velocity=127 time=0.01875\n",
      "note_on channel=0 note=60 velocity=127 time=0.04895833333333333\n",
      "note_on channel=0 note=62 velocity=127 time=0.0020833333333333333\n",
      "note_off channel=0 note=60 velocity=127 time=0.017708333333333333\n",
      "note_on channel=0 note=61 velocity=127 time=0.0020833333333333333\n",
      "note_off channel=0 note=62 velocity=127 time=0\n",
      "note_off channel=0 note=61 velocity=127 time=0.019791666666666666\n",
      "note_on channel=0 note=60 velocity=127 time=0.027083333333333334\n",
      "note_off channel=0 note=60 velocity=127 time=0.019791666666666666\n",
      "note_on channel=0 note=62 velocity=127 time=0.0020833333333333333\n",
      "note_off channel=0 note=62 velocity=127 time=0.019791666666666666\n",
      "note_on channel=0 note=60 velocity=127 time=0.026041666666666668\n",
      "note_off channel=0 note=60 velocity=127 time=0.019791666666666666\n",
      "note_on channel=0 note=62 velocity=127 time=0.022916666666666665\n",
      "note_on channel=0 note=61 velocity=127 time=0.013541666666666667\n",
      "note_off channel=0 note=62 velocity=127 time=0.00625\n",
      "note_on channel=0 note=60 velocity=127 time=0.00625\n",
      "note_off channel=0 note=61 velocity=127 time=0.007291666666666667\n",
      "note_off channel=0 note=60 velocity=127 time=0.0125\n",
      "note_on channel=0 note=62 velocity=127 time=0.042708333333333334\n",
      "note_on channel=0 note=60 velocity=127 time=0.00625\n",
      "note_off channel=0 note=62 velocity=127 time=0.014583333333333334\n",
      "note_off channel=0 note=60 velocity=127 time=0.00625\n",
      "note_on channel=0 note=60 velocity=127 time=0.04895833333333333\n",
      "note_on channel=0 note=62 velocity=127 time=0.014583333333333334\n",
      "note_off channel=0 note=60 velocity=127 time=0.005208333333333333\n",
      "note_on channel=0 note=61 velocity=127 time=0.0010416666666666667\n",
      "note_off channel=0 note=62 velocity=127 time=0.013541666666666667\n",
      "note_off channel=0 note=61 velocity=127 time=0.007291666666666667\n",
      "note_on channel=0 note=60 velocity=127 time=0.027083333333333334\n",
      "note_off channel=0 note=60 velocity=127 time=0.019791666666666666\n",
      "note_on channel=0 note=62 velocity=127 time=0.014583333333333334\n",
      "note_off channel=0 note=62 velocity=127 time=0.019791666666666666\n",
      "note_on channel=0 note=60 velocity=127 time=0.013541666666666667\n",
      "note_off channel=0 note=60 velocity=127 time=0.019791666666666666\n",
      "note_on channel=0 note=62 velocity=127 time=0.035416666666666666\n",
      "note_on channel=0 note=61 velocity=127 time=0.0010416666666666667\n",
      "note_on channel=0 note=60 velocity=127 time=0.013541666666666667\n",
      "note_off channel=0 note=62 velocity=127 time=0.00625\n",
      "note_off channel=0 note=61 velocity=127 time=0.0010416666666666667\n",
      "note_off channel=0 note=60 velocity=127 time=0.013541666666666667\n",
      "note_on channel=0 note=60 velocity=127 time=0.04895833333333333\n",
      "note_on channel=0 note=62 velocity=127 time=0.00625\n",
      "note_off channel=0 note=60 velocity=127 time=0.013541666666666667\n",
      "note_off channel=0 note=62 velocity=127 time=0.00625\n",
      "note_on channel=0 note=60 velocity=127 time=0.041666666666666664\n",
      "note_off channel=0 note=60 velocity=127 time=0.019791666666666666\n",
      "note_on channel=0 note=61 velocity=127 time=0.0010416666666666667\n",
      "note_on channel=0 note=62 velocity=127 time=0.00625\n",
      "note_off channel=0 note=61 velocity=127 time=0.014583333333333334\n",
      "note_off channel=0 note=62 velocity=127 time=0.00625\n",
      "note_on channel=0 note=60 velocity=127 time=0.021875\n",
      "note_off channel=0 note=60 velocity=127 time=0.019791666666666666\n",
      "note_on channel=0 note=62 velocity=127 time=0.027083333333333334\n",
      "note_off channel=0 note=62 velocity=127 time=0.019791666666666666\n",
      "note_on channel=0 note=60 velocity=127 time=0.0020833333333333333\n",
      "note_off channel=0 note=60 velocity=127 time=0.019791666666666666\n",
      "note_on channel=0 note=61 velocity=127 time=0.035416666666666666\n",
      "note_on channel=0 note=62 velocity=127 time=0.0125\n",
      "note_on channel=0 note=60 velocity=127 time=0.0010416666666666667\n",
      "note_off channel=0 note=61 velocity=127 time=0.00625\n",
      "note_off channel=0 note=62 velocity=127 time=0.0125\n",
      "note_off channel=0 note=60 velocity=127 time=0.0010416666666666667\n",
      "note_on channel=0 note=60 velocity=127 time=0.04895833333333333\n",
      "note_on channel=0 note=62 velocity=127 time=0.01875\n",
      "note_off channel=0 note=60 velocity=127 time=0.0010416666666666667\n",
      "note_off channel=0 note=62 velocity=127 time=0.01875\n",
      "note_on channel=0 note=60 velocity=127 time=0.029166666666666667\n",
      "note_off channel=0 note=60 velocity=127 time=0.019791666666666666\n",
      "note_on channel=0 note=61 velocity=127 time=0.0010416666666666667\n",
      "note_on channel=0 note=62 velocity=127 time=0.01875\n",
      "note_off channel=0 note=61 velocity=127 time=0.0010416666666666667\n",
      "note_off channel=0 note=62 velocity=127 time=0.01875\n",
      "note_on channel=0 note=60 velocity=127 time=0.009375\n",
      "note_off channel=0 note=60 velocity=127 time=0.019791666666666666\n",
      "note_on channel=0 note=62 velocity=127 time=0.03958333333333333\n",
      "note_on channel=0 note=60 velocity=127 time=0.009375\n",
      "note_off channel=0 note=62 velocity=127 time=0.010416666666666666\n",
      "note_off channel=0 note=60 velocity=127 time=0.009375\n",
      "note_on channel=0 note=61 velocity=127 time=0.035416666666666666\n",
      "note_on channel=0 note=60 velocity=127 time=0.013541666666666667\n",
      "note_off channel=0 note=61 velocity=127 time=0.00625\n",
      "note_on channel=0 note=62 velocity=127 time=0.005208333333333333\n",
      "note_off channel=0 note=60 velocity=127 time=0.008333333333333333\n",
      "note_off channel=0 note=62 velocity=127 time=0.011458333333333333\n",
      "note_on channel=0 note=60 velocity=127 time=0.0375\n",
      "note_off channel=0 note=60 velocity=127 time=0.019791666666666666\n",
      "note_on channel=0 note=62 velocity=127 time=0.011458333333333333\n",
      "note_off channel=0 note=62 velocity=127 time=0.019791666666666666\n",
      "note_on channel=0 note=60 velocity=127 time=0.017708333333333333\n",
      "note_off channel=0 note=60 velocity=127 time=0.019791666666666666\n",
      "note_on channel=0 note=61 velocity=127 time=0\n",
      "note_off channel=0 note=61 velocity=127 time=0.019791666666666666\n",
      "note_on channel=0 note=62 velocity=127 time=0.011458333333333333\n",
      "note_on channel=0 note=60 velocity=127 time=0.016666666666666666\n",
      "note_off channel=0 note=62 velocity=127 time=0.003125\n",
      "note_off channel=0 note=60 velocity=127 time=0.016666666666666666\n",
      "note_on channel=0 note=60 velocity=127 time=0.04895833333333333\n",
      "note_on channel=0 note=62 velocity=127 time=0.003125\n",
      "note_off channel=0 note=60 velocity=127 time=0.016666666666666666\n",
      "note_off channel=0 note=62 velocity=127 time=0.003125\n",
      "note_on channel=0 note=61 velocity=127 time=0.03125\n",
      "note_on channel=0 note=60 velocity=127 time=0.013541666666666667\n",
      "note_off channel=0 note=61 velocity=127 time=0.00625\n",
      "note_off channel=0 note=60 velocity=127 time=0.013541666666666667\n",
      "note_on channel=0 note=62 velocity=127 time=0.003125\n",
      "note_off channel=0 note=62 velocity=127 time=0.019791666666666666\n",
      "note_on channel=0 note=60 velocity=127 time=0.025\n",
      "note_off channel=0 note=60 velocity=127 time=0.019791666666666666\n",
      "note_on channel=0 note=62 velocity=127 time=0.02395833333333333\n",
      "note_off channel=0 note=62 velocity=127 time=0.019791666666666666\n",
      "note_on channel=0 note=60 velocity=127 time=0.005208333333333333\n",
      "note_off channel=0 note=60 velocity=127 time=0.019791666666666666\n",
      "note_on channel=0 note=61 velocity=127 time=0\n",
      "note_off channel=0 note=61 velocity=127 time=0.019791666666666666\n",
      "note_on channel=0 note=62 velocity=127 time=0.02395833333333333\n",
      "note_on channel=0 note=60 velocity=127 time=0.004166666666666667\n",
      "note_off channel=0 note=62 velocity=127 time=0.015625\n",
      "note_off channel=0 note=60 velocity=127 time=0.004166666666666667\n",
      "note_on channel=0 note=60 velocity=127 time=0.04895833333333333\n",
      "note_on channel=0 note=62 velocity=127 time=0.015625\n",
      "note_off channel=0 note=60 velocity=127 time=0.004166666666666667\n",
      "note_off channel=0 note=62 velocity=127 time=0.015625\n",
      "note_on channel=0 note=61 velocity=127 time=0.01875\n",
      "note_on channel=0 note=60 velocity=127 time=0.014583333333333334\n",
      "note_off channel=0 note=61 velocity=127 time=0.005208333333333333\n",
      "note_off channel=0 note=60 velocity=127 time=0.014583333333333334\n",
      "note_on channel=0 note=62 velocity=127 time=0.015625\n",
      "note_off channel=0 note=62 velocity=127 time=0.019791666666666666\n",
      "note_on channel=0 note=60 velocity=127 time=0.0125\n",
      "note_off channel=0 note=60 velocity=127 time=0.019791666666666666\n",
      "note_on channel=0 note=62 velocity=127 time=0.036458333333333336\n",
      "note_on channel=0 note=60 velocity=127 time=0.0125\n",
      "note_off channel=0 note=62 velocity=127 time=0.007291666666666667\n",
      "note_on channel=0 note=61 velocity=127 time=0.0125\n",
      "note_off channel=0 note=60 velocity=127 time=0\n",
      "note_off channel=0 note=61 velocity=127 time=0.019791666666666666\n",
      "note_on channel=0 note=60 velocity=127 time=0.029166666666666667\n",
      "note_on channel=0 note=62 velocity=127 time=0.008333333333333333\n",
      "note_off channel=0 note=60 velocity=127 time=0.0125\n",
      "note_off channel=0 note=62 velocity=127 time=0.008333333333333333\n",
      "note_on channel=0 note=60 velocity=127 time=0.040625\n",
      "note_off channel=0 note=60 velocity=127 time=0.019791666666666666\n",
      "note_on channel=0 note=62 velocity=127 time=0.008333333333333333\n",
      "note_off channel=0 note=62 velocity=127 time=0.019791666666666666\n",
      "note_on channel=0 note=61 velocity=127 time=0.00625\n",
      "note_on channel=0 note=60 velocity=127 time=0.014583333333333334\n",
      "note_off channel=0 note=61 velocity=127 time=0.005208333333333333\n",
      "note_off channel=0 note=60 velocity=127 time=0.014583333333333334\n",
      "note_on channel=0 note=62 velocity=127 time=0.028125\n",
      "note_off channel=0 note=62 velocity=127 time=0.019791666666666666\n",
      "note_on channel=0 note=60 velocity=127 time=0\n",
      "note_off channel=0 note=60 velocity=127 time=0.019791666666666666\n",
      "note_on channel=0 note=60 velocity=127 time=0.04895833333333333\n",
      "note_on channel=0 note=62 velocity=127 time=0\n",
      "note_on channel=0 note=61 velocity=127 time=0.019791666666666666\n",
      "note_off channel=0 note=60 velocity=127 time=0\n",
      "note_off channel=0 note=62 velocity=127 time=0\n",
      "note_off channel=0 note=61 velocity=127 time=0.019791666666666666\n",
      "note_on channel=0 note=60 velocity=127 time=0.029166666666666667\n",
      "note_off channel=0 note=60 velocity=127 time=0.019791666666666666\n",
      "note_on channel=0 note=62 velocity=127 time=0\n",
      "note_off channel=0 note=62 velocity=127 time=0.019791666666666666\n",
      "\u001b[91m [DEBUG] > \u001b[0m\n",
      " |>  to_array: msg.time > max_t; t, n\n",
      " |>  2.995833333333338\n",
      " |>  150\n",
      "note_on channel=0 note=61 velocity=127 time=0.046875\n",
      "note_on channel=0 note=62 velocity=127 time=0.01875\n",
      "note_off channel=0 note=61 velocity=127 time=0.0010416666666666667\n",
      "note_off channel=0 note=62 velocity=127 time=0.01875\n",
      "note_on channel=0 note=60 velocity=127 time=0.005208333333333333\n",
      "note_off channel=0 note=60 velocity=127 time=0.019791666666666666\n",
      "note_on channel=0 note=61 velocity=127 time=0.00625\n",
      "note_off channel=0 note=61 velocity=127 time=0.019791666666666666\n",
      "note_on channel=0 note=61 velocity=127 time=0.05\n",
      "note_off channel=0 note=61 velocity=127 time=0.019791666666666666\n",
      "note_on channel=0 note=62 velocity=127 time=0.015625\n",
      "note_off channel=0 note=62 velocity=127 time=0.019791666666666666\n",
      "note_on channel=0 note=61 velocity=127 time=0.014583333333333334\n",
      "note_off channel=0 note=61 velocity=127 time=0.019791666666666666\n",
      "note_on channel=0 note=60 velocity=127 time=0.015625\n",
      "note_off channel=0 note=60 velocity=127 time=0.019791666666666666\n",
      "note_on channel=0 note=61 velocity=127 time=0.015625\n",
      "note_off channel=0 note=61 velocity=127 time=0.019791666666666666\n",
      "note_on channel=0 note=62 velocity=127 time=0.03333333333333333\n",
      "note_on channel=0 note=61 velocity=127 time=0.017708333333333333\n",
      "note_off channel=0 note=62 velocity=127 time=0.0020833333333333333\n",
      "note_off channel=0 note=61 velocity=127 time=0.017708333333333333\n",
      "note_on channel=0 note=61 velocity=127 time=0.05\n",
      "note_off channel=0 note=61 velocity=127 time=0.019791666666666666\n",
      "note_on channel=0 note=60 velocity=127 time=0.00625\n",
      "note_off channel=0 note=60 velocity=127 time=0.019791666666666666\n",
      "note_on channel=0 note=62 velocity=127 time=0.02395833333333333\n",
      "note_on channel=0 note=61 velocity=127 time=0.0010416666666666667\n",
      "note_off channel=0 note=62 velocity=127 time=0.019791666666666666\n",
      "note_off channel=0 note=61 velocity=127 time=0.0010416666666666667\n",
      "note_on channel=0 note=61 velocity=127 time=0.05\n",
      "note_off channel=0 note=61 velocity=127 time=0.019791666666666666\n",
      "note_on channel=0 note=61 velocity=127 time=0.05\n",
      "note_on channel=0 note=62 velocity=127 time=0.016666666666666666\n",
      "note_on channel=0 note=60 velocity=127 time=0.0010416666666666667\n",
      "note_off channel=0 note=61 velocity=127 time=0.003125\n",
      "note_off channel=0 note=62 velocity=127 time=0.016666666666666666\n",
      "note_off channel=0 note=60 velocity=127 time=0.0010416666666666667\n",
      "note_on channel=0 note=61 velocity=127 time=0.03333333333333333\n",
      "note_off channel=0 note=61 velocity=127 time=0.019791666666666666\n",
      "note_on channel=0 note=61 velocity=127 time=0.05\n",
      "note_off channel=0 note=61 velocity=127 time=0.019791666666666666\n",
      "note_on channel=0 note=62 velocity=127 time=0.013541666666666667\n",
      "note_off channel=0 note=62 velocity=127 time=0.019791666666666666\n",
      "note_on channel=0 note=61 velocity=127 time=0.017708333333333333\n",
      "note_on channel=0 note=60 velocity=127 time=0.008333333333333333\n",
      "note_off channel=0 note=61 velocity=127 time=0.011458333333333333\n",
      "note_off channel=0 note=60 velocity=127 time=0.008333333333333333\n",
      "note_on channel=0 note=61 velocity=127 time=0.041666666666666664\n",
      "note_off channel=0 note=61 velocity=127 time=0.019791666666666666\n",
      "note_on channel=0 note=62 velocity=127 time=0.030208333333333334\n",
      "note_off channel=0 note=62 velocity=127 time=0.019791666666666666\n",
      "note_on channel=0 note=61 velocity=127 time=0\n",
      "note_off channel=0 note=61 velocity=127 time=0.019791666666666666\n",
      "note_on channel=0 note=60 velocity=127 time=0.05\n",
      "note_on channel=0 note=61 velocity=127 time=0\n",
      "note_off channel=0 note=60 velocity=127 time=0.019791666666666666\n",
      "note_off channel=0 note=61 velocity=127 time=0\n",
      "note_on channel=0 note=62 velocity=127 time=0.046875\n",
      "note_on channel=0 note=61 velocity=127 time=0.003125\n",
      "note_off channel=0 note=62 velocity=127 time=0.016666666666666666\n",
      "note_off channel=0 note=61 velocity=127 time=0.003125\n",
      "note_on channel=0 note=61 velocity=127 time=0.05\n",
      "note_off channel=0 note=61 velocity=127 time=0.019791666666666666\n",
      "note_on channel=0 note=60 velocity=127 time=0.040625\n",
      "note_on channel=0 note=61 velocity=127 time=0.009375\n",
      "note_off channel=0 note=60 velocity=127 time=0.010416666666666666\n",
      "note_on channel=0 note=62 velocity=127 time=0.003125\n",
      "note_off channel=0 note=61 velocity=127 time=0.00625\n",
      "note_off channel=0 note=62 velocity=127 time=0.013541666666666667\n",
      "note_on channel=0 note=61 velocity=127 time=0.0375\n",
      "note_off channel=0 note=61 velocity=127 time=0.019791666666666666\n",
      "note_on channel=0 note=61 velocity=127 time=0.05\n",
      "note_off channel=0 note=61 velocity=127 time=0.019791666666666666\n",
      "note_on channel=0 note=62 velocity=127 time=0.010416666666666666\n",
      "note_off channel=0 note=62 velocity=127 time=0.019791666666666666\n",
      "note_on channel=0 note=60 velocity=127 time=0.0020833333333333333\n",
      "note_on channel=0 note=61 velocity=127 time=0.01875\n",
      "note_off channel=0 note=60 velocity=127 time=0.0020833333333333333\n",
      "note_off channel=0 note=61 velocity=127 time=0.01875\n",
      "note_on channel=0 note=61 velocity=127 time=0.05\n",
      "note_off channel=0 note=61 velocity=127 time=0.019791666666666666\n",
      "note_on channel=0 note=62 velocity=127 time=0.027083333333333334\n",
      "note_off channel=0 note=62 velocity=127 time=0.019791666666666666\n",
      "note_on channel=0 note=61 velocity=127 time=0.003125\n",
      "note_off channel=0 note=61 velocity=127 time=0.019791666666666666\n",
      "note_on channel=0 note=60 velocity=127 time=0.022916666666666665\n",
      "note_off channel=0 note=60 velocity=127 time=0.019791666666666666\n",
      "note_on channel=0 note=61 velocity=127 time=0.007291666666666667\n",
      "note_off channel=0 note=61 velocity=127 time=0.019791666666666666\n",
      "note_on channel=0 note=62 velocity=127 time=0.04375\n",
      "note_on channel=0 note=61 velocity=127 time=0.00625\n",
      "note_off channel=0 note=62 velocity=127 time=0.013541666666666667\n",
      "note_off channel=0 note=61 velocity=127 time=0.00625\n",
      "note_on channel=0 note=61 velocity=127 time=0.05\n",
      "note_off channel=0 note=61 velocity=127 time=0.019791666666666666\n",
      "note_on channel=0 note=60 velocity=127 time=0.014583333333333334\n",
      "note_off channel=0 note=60 velocity=127 time=0.019791666666666666\n",
      "note_on channel=0 note=61 velocity=127 time=0.015625\n",
      "note_on channel=0 note=62 velocity=127 time=0.010416666666666666\n",
      "note_off channel=0 note=61 velocity=127 time=0.009375\n",
      "note_off channel=0 note=62 velocity=127 time=0.010416666666666666\n",
      "note_on channel=0 note=61 velocity=127 time=0.040625\n",
      "note_off channel=0 note=61 velocity=127 time=0.019791666666666666\n",
      "note_on channel=0 note=61 velocity=127 time=0.05\n",
      "note_off channel=0 note=61 velocity=127 time=0.019791666666666666\n",
      "note_on channel=0 note=60 velocity=127 time=0.005208333333333333\n",
      "note_on channel=0 note=62 velocity=127 time=0.0020833333333333333\n",
      "note_off channel=0 note=60 velocity=127 time=0.01875\n",
      "note_off channel=0 note=62 velocity=127 time=0.0020833333333333333\n",
      "note_on channel=0 note=61 velocity=127 time=0.022916666666666665\n",
      "note_off channel=0 note=61 velocity=127 time=0.019791666666666666\n",
      "note_on channel=0 note=61 velocity=127 time=0.05\n",
      "note_off channel=0 note=61 velocity=127 time=0.019791666666666666\n",
      "note_on channel=0 note=62 velocity=127 time=0.02395833333333333\n",
      "note_off channel=0 note=62 velocity=127 time=0.019791666666666666\n",
      "note_on channel=0 note=61 velocity=127 time=0.00625\n",
      "note_on channel=0 note=60 velocity=127 time=0.016666666666666666\n",
      "note_off channel=0 note=61 velocity=127 time=0.003125\n",
      "note_off channel=0 note=60 velocity=127 time=0.016666666666666666\n",
      "note_on channel=0 note=61 velocity=127 time=0.03333333333333333\n",
      "note_off channel=0 note=61 velocity=127 time=0.019791666666666666\n",
      "note_on channel=0 note=62 velocity=127 time=0.040625\n",
      "note_on channel=0 note=61 velocity=127 time=0.009375\n",
      "note_off channel=0 note=62 velocity=127 time=0.010416666666666666\n",
      "note_off channel=0 note=61 velocity=127 time=0.009375\n",
      "note_on channel=0 note=61 velocity=127 time=0.05\n",
      "note_on channel=0 note=60 velocity=127 time=0.007291666666666667\n",
      "note_off channel=0 note=61 velocity=127 time=0.0125\n",
      "note_off channel=0 note=60 velocity=127 time=0.007291666666666667\n",
      "note_on channel=0 note=61 velocity=127 time=0.042708333333333334\n",
      "note_on channel=0 note=62 velocity=127 time=0.007291666666666667\n",
      "note_off channel=0 note=61 velocity=127 time=0.0125\n",
      "note_off channel=0 note=62 velocity=127 time=0.007291666666666667\n",
      "note_on channel=0 note=61 velocity=127 time=0.042708333333333334\n",
      "note_off channel=0 note=61 velocity=127 time=0.019791666666666666\n",
      "note_on channel=0 note=60 velocity=127 time=0.04895833333333333\n",
      "note_on channel=0 note=61 velocity=127 time=0.0010416666666666667\n",
      "note_off channel=0 note=60 velocity=127 time=0.01875\n",
      "note_off channel=0 note=61 velocity=127 time=0.0010416666666666667\n",
      "note_on channel=0 note=62 velocity=127 time=0.004166666666666667\n",
      "note_off channel=0 note=62 velocity=127 time=0.019791666666666666\n",
      "note_on channel=0 note=61 velocity=127 time=0.026041666666666668\n",
      "note_off channel=0 note=61 velocity=127 time=0.019791666666666666\n",
      "note_on channel=0 note=61 velocity=127 time=0.05\n",
      "note_off channel=0 note=61 velocity=127 time=0.019791666666666666\n",
      "note_on channel=0 note=62 velocity=127 time=0.020833333333333332\n",
      "note_on channel=0 note=60 velocity=127 time=0.019791666666666666\n",
      "note_off channel=0 note=62 velocity=127 time=0.0010416666666666667\n",
      "note_on channel=0 note=61 velocity=127 time=0.009375\n",
      "note_off channel=0 note=60 velocity=127 time=0.010416666666666666\n",
      "note_off channel=0 note=61 velocity=127 time=0.010416666666666666\n",
      "note_on channel=0 note=61 velocity=127 time=0.05\n",
      "\u001b[91m [DEBUG] > \u001b[0m\n",
      " |>  to_array: msg.time > max_t; t, n\n",
      " |>  2.992708333333334\n",
      " |>  150\n",
      "note_on channel=0 note=62 velocity=127 time=0.03125\n",
      "note_off channel=0 note=62 velocity=127 time=0.019791666666666666\n",
      "note_on channel=0 note=60 velocity=127 time=0.011458333333333333\n",
      "note_off channel=0 note=60 velocity=127 time=0.019791666666666666\n",
      "note_on channel=0 note=62 velocity=127 time=0.03229166666666666\n",
      "note_off channel=0 note=62 velocity=127 time=0.019791666666666666\n",
      "note_on channel=0 note=61 velocity=127 time=0.008333333333333333\n",
      "note_on channel=0 note=60 velocity=127 time=0.016666666666666666\n",
      "note_off channel=0 note=61 velocity=127 time=0.003125\n",
      "note_off channel=0 note=60 velocity=127 time=0.016666666666666666\n",
      "note_on channel=0 note=62 velocity=127 time=0.019791666666666666\n",
      "note_off channel=0 note=62 velocity=127 time=0.019791666666666666\n",
      "note_on channel=0 note=60 velocity=127 time=0.0375\n",
      "note_off channel=0 note=60 velocity=127 time=0.019791666666666666\n",
      "note_on channel=0 note=62 velocity=127 time=0.00625\n",
      "note_on channel=0 note=61 velocity=127 time=0.0125\n",
      "note_off channel=0 note=62 velocity=127 time=0.007291666666666667\n",
      "note_off channel=0 note=61 velocity=127 time=0.0125\n",
      "note_on channel=0 note=60 velocity=127 time=0.0375\n",
      "note_on channel=0 note=62 velocity=127 time=0.013541666666666667\n",
      "note_off channel=0 note=60 velocity=127 time=0.00625\n",
      "note_off channel=0 note=62 velocity=127 time=0.013541666666666667\n",
      "note_on channel=0 note=61 velocity=127 time=0.0625\n",
      "note_on channel=0 note=60 velocity=127 time=0.0010416666666666667\n",
      "note_on channel=0 note=62 velocity=127 time=0.0010416666666666667\n",
      "note_off channel=0 note=61 velocity=127 time=0.017708333333333333\n",
      "note_off channel=0 note=60 velocity=127 time=0.0010416666666666667\n",
      "note_off channel=0 note=62 velocity=127 time=0.0010416666666666667\n",
      "note_on channel=0 note=62 velocity=127 time=0.06458333333333333\n",
      "note_on channel=0 note=60 velocity=127 time=0.0125\n",
      "note_off channel=0 note=62 velocity=127 time=0.008333333333333333\n",
      "note_off channel=0 note=60 velocity=127 time=0.0125\n",
      "note_on channel=0 note=61 velocity=127 time=0.035416666666666666\n",
      "note_on channel=0 note=62 velocity=127 time=0.017708333333333333\n",
      "note_off channel=0 note=61 velocity=127 time=0.0020833333333333333\n",
      "note_off channel=0 note=62 velocity=127 time=0.017708333333333333\n",
      "note_on channel=0 note=60 velocity=127 time=0.005208333333333333\n",
      "note_off channel=0 note=60 velocity=127 time=0.019791666666666666\n",
      "note_on channel=0 note=62 velocity=127 time=0.03958333333333333\n",
      "note_off channel=0 note=62 velocity=127 time=0.019791666666666666\n",
      "note_on channel=0 note=60 velocity=127 time=0.017708333333333333\n",
      "note_on channel=0 note=61 velocity=127 time=0.013541666666666667\n",
      "note_off channel=0 note=60 velocity=127 time=0.00625\n",
      "note_off channel=0 note=61 velocity=127 time=0.013541666666666667\n",
      "note_on channel=0 note=62 velocity=127 time=0.0125\n",
      "note_off channel=0 note=62 velocity=127 time=0.019791666666666666\n",
      "note_on channel=0 note=60 velocity=127 time=0.030208333333333334\n",
      "note_off channel=0 note=60 velocity=127 time=0.019791666666666666\n",
      "note_on channel=0 note=62 velocity=127 time=0.013541666666666667\n",
      "note_off channel=0 note=62 velocity=127 time=0.019791666666666666\n",
      "note_on channel=0 note=61 velocity=127 time=0.016666666666666666\n",
      "note_off channel=0 note=61 velocity=127 time=0.019791666666666666\n",
      "note_on channel=0 note=60 velocity=127 time=0.007291666666666667\n",
      "note_off channel=0 note=60 velocity=127 time=0.019791666666666666\n",
      "note_on channel=0 note=62 velocity=127 time=0.0010416666666666667\n",
      "note_off channel=0 note=62 velocity=127 time=0.019791666666666666\n",
      "note_on channel=0 note=60 velocity=127 time=0.05625\n",
      "note_on channel=0 note=62 velocity=127 time=0.008333333333333333\n",
      "note_off channel=0 note=60 velocity=127 time=0.0125\n",
      "note_off channel=0 note=62 velocity=127 time=0.008333333333333333\n",
      "note_on channel=0 note=61 velocity=127 time=0.0010416666666666667\n",
      "note_off channel=0 note=61 velocity=127 time=0.019791666666666666\n",
      "note_on channel=0 note=62 velocity=127 time=0.042708333333333334\n",
      "note_on channel=0 note=60 velocity=127 time=0.005208333333333333\n",
      "note_off channel=0 note=62 velocity=127 time=0.014583333333333334\n",
      "note_off channel=0 note=60 velocity=127 time=0.005208333333333333\n",
      "note_on channel=0 note=62 velocity=127 time=0.059375\n",
      "note_on channel=0 note=61 velocity=127 time=0.00625\n",
      "note_on channel=0 note=60 velocity=127 time=0.011458333333333333\n",
      "note_off channel=0 note=62 velocity=127 time=0.0020833333333333333\n",
      "note_off channel=0 note=61 velocity=127 time=0.00625\n",
      "note_off channel=0 note=60 velocity=127 time=0.011458333333333333\n",
      "note_on channel=0 note=62 velocity=127 time=0.046875\n",
      "note_off channel=0 note=62 velocity=127 time=0.019791666666666666\n",
      "note_on channel=0 note=60 velocity=127 time=0.010416666666666666\n",
      "note_off channel=0 note=60 velocity=127 time=0.019791666666666666\n",
      "note_on channel=0 note=61 velocity=127 time=0.02395833333333333\n",
      "note_on channel=0 note=62 velocity=127 time=0.009375\n",
      "note_off channel=0 note=61 velocity=127 time=0.010416666666666666\n",
      "note_off channel=0 note=62 velocity=127 time=0.009375\n",
      "note_on channel=0 note=60 velocity=127 time=0.02395833333333333\n",
      "note_off channel=0 note=60 velocity=127 time=0.019791666666666666\n",
      "note_on channel=0 note=62 velocity=127 time=0.020833333333333332\n",
      "note_off channel=0 note=62 velocity=127 time=0.019791666666666666\n",
      "note_on channel=0 note=60 velocity=127 time=0.036458333333333336\n",
      "note_on channel=0 note=61 velocity=127 time=0.003125\n",
      "note_off channel=0 note=60 velocity=127 time=0.016666666666666666\n",
      "note_off channel=0 note=61 velocity=127 time=0.003125\n",
      "note_on channel=0 note=62 velocity=127 time=0.004166666666666667\n",
      "note_off channel=0 note=62 velocity=127 time=0.019791666666666666\n",
      "note_on channel=0 note=60 velocity=127 time=0.04895833333333333\n",
      "note_on channel=0 note=62 velocity=127 time=0.014583333333333334\n",
      "note_off channel=0 note=60 velocity=127 time=0.005208333333333333\n",
      "note_off channel=0 note=62 velocity=127 time=0.014583333333333334\n",
      "note_on channel=0 note=61 velocity=127 time=0.025\n",
      "note_off channel=0 note=61 velocity=127 time=0.019791666666666666\n",
      "note_on channel=0 note=60 velocity=127 time=0.017708333333333333\n",
      "note_on channel=0 note=62 velocity=127 time=0.0020833333333333333\n",
      "note_off channel=0 note=60 velocity=127 time=0.017708333333333333\n",
      "note_off channel=0 note=62 velocity=127 time=0.0020833333333333333\n",
      "note_on channel=0 note=62 velocity=127 time=0.06458333333333333\n",
      "note_on channel=0 note=60 velocity=127 time=0.010416666666666666\n",
      "note_off channel=0 note=62 velocity=127 time=0.009375\n",
      "note_on channel=0 note=61 velocity=127 time=0.009375\n",
      "note_off channel=0 note=60 velocity=127 time=0.0010416666666666667\n",
      "note_off channel=0 note=61 velocity=127 time=0.01875\n",
      "note_on channel=0 note=62 velocity=127 time=0.035416666666666666\n",
      "note_off channel=0 note=62 velocity=127 time=0.019791666666666666\n",
      "note_on channel=0 note=60 velocity=127 time=0.004166666666666667\n",
      "note_off channel=0 note=60 velocity=127 time=0.019791666666666666\n",
      "note_on channel=0 note=62 velocity=127 time=0.040625\n",
      "note_on channel=0 note=61 velocity=127 time=0.014583333333333334\n",
      "note_off channel=0 note=62 velocity=127 time=0.00625\n",
      "note_off channel=0 note=61 velocity=127 time=0.014583333333333334\n",
      "note_on channel=0 note=60 velocity=127 time=0.0020833333333333333\n",
      "note_off channel=0 note=60 velocity=127 time=0.019791666666666666\n",
      "note_on channel=0 note=62 velocity=127 time=0.028125\n",
      "note_off channel=0 note=62 velocity=127 time=0.019791666666666666\n",
      "note_on channel=0 note=60 velocity=127 time=0.029166666666666667\n",
      "note_off channel=0 note=60 velocity=127 time=0.019791666666666666\n",
      "note_on channel=0 note=61 velocity=127 time=0.013541666666666667\n",
      "note_on channel=0 note=62 velocity=127 time=0.0010416666666666667\n",
      "note_off channel=0 note=61 velocity=127 time=0.01875\n",
      "note_off channel=0 note=62 velocity=127 time=0.0010416666666666667\n",
      "note_on channel=0 note=60 velocity=127 time=0.042708333333333334\n",
      "note_off channel=0 note=60 velocity=127 time=0.019791666666666666\n",
      "note_on channel=0 note=62 velocity=127 time=0.0020833333333333333\n",
      "note_off channel=0 note=62 velocity=127 time=0.019791666666666666\n",
      "note_on channel=0 note=61 velocity=127 time=0.04791666666666666\n",
      "note_on channel=0 note=60 velocity=127 time=0.007291666666666667\n",
      "note_on channel=0 note=62 velocity=127 time=0.009375\n",
      "note_off channel=0 note=61 velocity=127 time=0.004166666666666667\n",
      "note_off channel=0 note=60 velocity=127 time=0.007291666666666667\n",
      "note_off channel=0 note=62 velocity=127 time=0.009375\n",
      "note_on channel=0 note=62 velocity=127 time=0.06458333333333333\n",
      "note_on channel=0 note=60 velocity=127 time=0.004166666666666667\n",
      "note_off channel=0 note=62 velocity=127 time=0.016666666666666666\n",
      "note_off channel=0 note=60 velocity=127 time=0.004166666666666667\n",
      "note_on channel=0 note=61 velocity=127 time=0.029166666666666667\n",
      "note_off channel=0 note=61 velocity=127 time=0.019791666666666666\n",
      "note_on channel=0 note=62 velocity=127 time=0.011458333333333333\n",
      "note_on channel=0 note=60 velocity=127 time=0.016666666666666666\n",
      "note_off channel=0 note=62 velocity=127 time=0.003125\n",
      "note_off channel=0 note=60 velocity=127 time=0.016666666666666666\n",
      "note_on channel=0 note=62 velocity=127 time=0.04791666666666666\n",
      "note_off channel=0 note=62 velocity=127 time=0.019791666666666666\n",
      "note_on channel=0 note=60 velocity=127 time=0.009375\n",
      "note_on channel=0 note=61 velocity=127 time=0.008333333333333333\n",
      "note_off channel=0 note=60 velocity=127 time=0.011458333333333333\n",
      "note_off channel=0 note=61 velocity=127 time=0.008333333333333333\n",
      "note_on channel=0 note=62 velocity=127 time=0.027083333333333334\n",
      "note_off channel=0 note=62 velocity=127 time=0.019791666666666666\n",
      "note_on channel=0 note=60 velocity=127 time=0.022916666666666665\n",
      "note_off channel=0 note=60 velocity=127 time=0.019791666666666666\n",
      "note_on channel=0 note=62 velocity=127 time=0.021875\n",
      "note_off channel=0 note=62 velocity=127 time=0.019791666666666666\n",
      "note_on channel=0 note=61 velocity=127 time=0.0020833333333333333\n",
      "note_off channel=0 note=61 velocity=127 time=0.019791666666666666\n",
      "note_on channel=0 note=60 velocity=127 time=0.0125\n",
      "note_off channel=0 note=60 velocity=127 time=0.019791666666666666\n",
      "note_on channel=0 note=62 velocity=127 time=0.009375\n",
      "note_off channel=0 note=62 velocity=127 time=0.019791666666666666\n",
      "note_on channel=0 note=60 velocity=127 time=0.04791666666666666\n",
      "note_on channel=0 note=62 velocity=127 time=0.016666666666666666\n",
      "note_off channel=0 note=60 velocity=127 time=0.004166666666666667\n",
      "note_on channel=0 note=61 velocity=127 time=0.003125\n",
      "note_off channel=0 note=62 velocity=127 time=0.0125\n",
      "note_off channel=0 note=61 velocity=127 time=0.007291666666666667\n",
      "note_on channel=0 note=60 velocity=127 time=0.05416666666666667\n",
      "note_on channel=0 note=62 velocity=127 time=0.003125\n",
      "note_off channel=0 note=60 velocity=127 time=0.016666666666666666\n",
      "\u001b[91m [DEBUG] > \u001b[0m\n",
      " |>  to_array: msg.time > max_t; t, n\n",
      " |>  2.9958333333333345\n",
      " |>  150\n"
     ]
    },
    {
     "name": "stdout",
     "output_type": "stream",
     "text": [
      "note_on channel=0 note=62 velocity=127 time=0.020833333333333332\n",
      "note_on channel=0 note=61 velocity=127 time=0.005208333333333333\n",
      "note_off channel=0 note=62 velocity=127 time=0.014583333333333334\n",
      "note_off channel=0 note=61 velocity=127 time=0.005208333333333333\n",
      "note_on channel=0 note=60 velocity=127 time=0.014583333333333334\n",
      "note_off channel=0 note=60 velocity=127 time=0.019791666666666666\n",
      "note_on channel=0 note=61 velocity=127 time=0.017708333333333333\n",
      "note_off channel=0 note=61 velocity=127 time=0.019791666666666666\n",
      "note_on channel=0 note=60 velocity=127 time=0.014583333333333334\n",
      "note_off channel=0 note=60 velocity=127 time=0.019791666666666666\n",
      "note_on channel=0 note=61 velocity=127 time=0.017708333333333333\n",
      "note_off channel=0 note=61 velocity=127 time=0.019791666666666666\n",
      "note_on channel=0 note=62 velocity=127 time=0.007291666666666667\n",
      "note_on channel=0 note=60 velocity=127 time=0.00625\n",
      "note_off channel=0 note=62 velocity=127 time=0.013541666666666667\n",
      "note_off channel=0 note=60 velocity=127 time=0.00625\n",
      "note_on channel=0 note=61 velocity=127 time=0.01875\n",
      "note_off channel=0 note=61 velocity=127 time=0.019791666666666666\n",
      "note_on channel=0 note=60 velocity=127 time=0.0125\n",
      "note_off channel=0 note=60 velocity=127 time=0.019791666666666666\n",
      "note_on channel=0 note=61 velocity=127 time=0.019791666666666666\n",
      "note_off channel=0 note=61 velocity=127 time=0.019791666666666666\n",
      "note_on channel=0 note=60 velocity=127 time=0.0125\n",
      "note_off channel=0 note=60 velocity=127 time=0.019791666666666666\n",
      "note_on channel=0 note=62 velocity=127 time=0.007291666666666667\n",
      "note_on channel=0 note=61 velocity=127 time=0.0125\n",
      "note_off channel=0 note=62 velocity=127 time=0.007291666666666667\n",
      "note_off channel=0 note=61 velocity=127 time=0.0125\n",
      "note_on channel=0 note=60 velocity=127 time=0.011458333333333333\n",
      "note_off channel=0 note=60 velocity=127 time=0.019791666666666666\n",
      "note_on channel=0 note=61 velocity=127 time=0.020833333333333332\n",
      "note_off channel=0 note=61 velocity=127 time=0.019791666666666666\n",
      "note_on channel=0 note=60 velocity=127 time=0.010416666666666666\n",
      "note_off channel=0 note=60 velocity=127 time=0.019791666666666666\n",
      "note_on channel=0 note=61 velocity=127 time=0.021875\n",
      "note_off channel=0 note=61 velocity=127 time=0.019791666666666666\n",
      "note_on channel=0 note=62 velocity=127 time=0\n",
      "note_on channel=0 note=60 velocity=127 time=0.009375\n",
      "note_off channel=0 note=62 velocity=127 time=0.010416666666666666\n",
      "note_off channel=0 note=60 velocity=127 time=0.009375\n",
      "note_on channel=0 note=61 velocity=127 time=0.021875\n",
      "note_off channel=0 note=61 velocity=127 time=0.019791666666666666\n",
      "note_on channel=0 note=60 velocity=127 time=0.009375\n",
      "note_off channel=0 note=60 velocity=127 time=0.019791666666666666\n",
      "note_on channel=0 note=61 velocity=127 time=0.022916666666666665\n",
      "note_off channel=0 note=61 velocity=127 time=0.019791666666666666\n",
      "note_on channel=0 note=60 velocity=127 time=0.009375\n",
      "note_off channel=0 note=60 velocity=127 time=0.019791666666666666\n",
      "note_on channel=0 note=62 velocity=127 time=0.004166666666666667\n",
      "note_on channel=0 note=61 velocity=127 time=0.019791666666666666\n",
      "note_off channel=0 note=62 velocity=127 time=0.0010416666666666667\n",
      "note_off channel=0 note=61 velocity=127 time=0.019791666666666666\n",
      "note_on channel=0 note=60 velocity=127 time=0.008333333333333333\n",
      "note_off channel=0 note=60 velocity=127 time=0.019791666666666666\n",
      "note_on channel=0 note=61 velocity=127 time=0.02395833333333333\n",
      "note_off channel=0 note=61 velocity=127 time=0.019791666666666666\n",
      "note_on channel=0 note=60 velocity=127 time=0.007291666666666667\n",
      "note_off channel=0 note=60 velocity=127 time=0.019791666666666666\n",
      "note_on channel=0 note=61 velocity=127 time=0.025\n",
      "note_on channel=0 note=62 velocity=127 time=0.013541666666666667\n",
      "note_off channel=0 note=61 velocity=127 time=0.00625\n",
      "note_on channel=0 note=60 velocity=127 time=0.007291666666666667\n",
      "note_off channel=0 note=62 velocity=127 time=0.00625\n",
      "note_off channel=0 note=60 velocity=127 time=0.013541666666666667\n",
      "note_on channel=0 note=61 velocity=127 time=0.025\n",
      "note_off channel=0 note=61 velocity=127 time=0.019791666666666666\n",
      "note_on channel=0 note=60 velocity=127 time=0.00625\n",
      "note_off channel=0 note=60 velocity=127 time=0.019791666666666666\n",
      "note_on channel=0 note=61 velocity=127 time=0.026041666666666668\n",
      "note_off channel=0 note=61 velocity=127 time=0.019791666666666666\n",
      "note_on channel=0 note=60 velocity=127 time=0.005208333333333333\n",
      "note_off channel=0 note=60 velocity=127 time=0.019791666666666666\n",
      "note_on channel=0 note=62 velocity=127 time=0\n",
      "note_off channel=0 note=62 velocity=127 time=0.019791666666666666\n",
      "note_on channel=0 note=61 velocity=127 time=0.00625\n",
      "note_off channel=0 note=61 velocity=127 time=0.019791666666666666\n",
      "note_on channel=0 note=60 velocity=127 time=0.005208333333333333\n",
      "note_off channel=0 note=60 velocity=127 time=0.019791666666666666\n",
      "note_on channel=0 note=61 velocity=127 time=0.027083333333333334\n",
      "note_off channel=0 note=61 velocity=127 time=0.019791666666666666\n",
      "note_on channel=0 note=60 velocity=127 time=0.004166666666666667\n",
      "note_off channel=0 note=60 velocity=127 time=0.019791666666666666\n",
      "note_on channel=0 note=61 velocity=127 time=0.028125\n",
      "note_on channel=0 note=62 velocity=127 time=0.00625\n",
      "note_off channel=0 note=61 velocity=127 time=0.013541666666666667\n",
      "note_on channel=0 note=60 velocity=127 time=0.004166666666666667\n",
      "note_off channel=0 note=62 velocity=127 time=0.003125\n",
      "note_off channel=0 note=60 velocity=127 time=0.017708333333333333\n",
      "note_on channel=0 note=61 velocity=127 time=0.028125\n",
      "note_off channel=0 note=61 velocity=127 time=0.019791666666666666\n",
      "note_on channel=0 note=60 velocity=127 time=0.003125\n",
      "note_off channel=0 note=60 velocity=127 time=0.019791666666666666\n",
      "note_on channel=0 note=61 velocity=127 time=0.029166666666666667\n",
      "note_off channel=0 note=61 velocity=127 time=0.019791666666666666\n",
      "note_on channel=0 note=60 velocity=127 time=0.0020833333333333333\n",
      "note_on channel=0 note=62 velocity=127 time=0.016666666666666666\n",
      "note_off channel=0 note=60 velocity=127 time=0.003125\n",
      "note_off channel=0 note=62 velocity=127 time=0.016666666666666666\n",
      "note_on channel=0 note=61 velocity=127 time=0.013541666666666667\n",
      "note_off channel=0 note=61 velocity=127 time=0.019791666666666666\n",
      "note_on channel=0 note=60 velocity=127 time=0.0020833333333333333\n",
      "note_off channel=0 note=60 velocity=127 time=0.019791666666666666\n",
      "note_on channel=0 note=61 velocity=127 time=0.030208333333333334\n",
      "note_off channel=0 note=61 velocity=127 time=0.019791666666666666\n",
      "note_on channel=0 note=60 velocity=127 time=0.0010416666666666667\n",
      "note_off channel=0 note=60 velocity=127 time=0.019791666666666666\n",
      "note_on channel=0 note=62 velocity=127 time=0.03125\n",
      "note_on channel=0 note=61 velocity=127 time=0\n",
      "note_off channel=0 note=62 velocity=127 time=0.019791666666666666\n",
      "note_off channel=0 note=61 velocity=127 time=0\n",
      "note_on channel=0 note=60 velocity=127 time=0\n",
      "note_off channel=0 note=60 velocity=127 time=0.019791666666666666\n",
      "note_on channel=0 note=61 velocity=127 time=0.03229166666666666\n",
      "note_on channel=0 note=60 velocity=127 time=0.019791666666666666\n",
      "note_off channel=0 note=61 velocity=127 time=0\n",
      "note_off channel=0 note=60 velocity=127 time=0.019791666666666666\n",
      "note_on channel=0 note=61 velocity=127 time=0.03229166666666666\n",
      "note_on channel=0 note=60 velocity=127 time=0.01875\n",
      "note_off channel=0 note=61 velocity=127 time=0.0010416666666666667\n",
      "note_on channel=0 note=62 velocity=127 time=0.0125\n",
      "note_off channel=0 note=60 velocity=127 time=0.007291666666666667\n",
      "note_off channel=0 note=62 velocity=127 time=0.013541666666666667\n",
      "note_on channel=0 note=61 velocity=127 time=0.019791666666666666\n",
      "note_on channel=0 note=60 velocity=127 time=0.01875\n",
      "note_off channel=0 note=61 velocity=127 time=0.0010416666666666667\n",
      "note_off channel=0 note=60 velocity=127 time=0.01875\n",
      "note_on channel=0 note=61 velocity=127 time=0.03333333333333333\n",
      "note_on channel=0 note=60 velocity=127 time=0.017708333333333333\n",
      "note_off channel=0 note=61 velocity=127 time=0.0020833333333333333\n",
      "note_off channel=0 note=60 velocity=127 time=0.017708333333333333\n",
      "note_on channel=0 note=62 velocity=127 time=0.027083333333333334\n",
      "note_on channel=0 note=61 velocity=127 time=0.007291666666666667\n",
      "note_off channel=0 note=62 velocity=127 time=0.0125\n",
      "note_on channel=0 note=60 velocity=127 time=0.004166666666666667\n",
      "note_off channel=0 note=61 velocity=127 time=0.003125\n",
      "note_off channel=0 note=60 velocity=127 time=0.017708333333333333\n",
      "note_on channel=0 note=61 velocity=127 time=0.035416666666666666\n",
      "note_on channel=0 note=60 velocity=127 time=0.016666666666666666\n",
      "note_off channel=0 note=61 velocity=127 time=0.003125\n",
      "note_off channel=0 note=60 velocity=127 time=0.016666666666666666\n",
      "note_on channel=0 note=61 velocity=127 time=0.035416666666666666\n",
      "note_on channel=0 note=60 velocity=127 time=0.015625\n",
      "note_off channel=0 note=61 velocity=127 time=0.004166666666666667\n",
      "note_on channel=0 note=62 velocity=127 time=0.005208333333333333\n",
      "note_off channel=0 note=60 velocity=127 time=0.010416666666666666\n",
      "note_off channel=0 note=62 velocity=127 time=0.009375\n",
      "note_on channel=0 note=61 velocity=127 time=0.027083333333333334\n",
      "note_on channel=0 note=60 velocity=127 time=0.015625\n",
      "note_off channel=0 note=61 velocity=127 time=0.005208333333333333\n",
      "note_off channel=0 note=60 velocity=127 time=0.015625\n",
      "note_on channel=0 note=61 velocity=127 time=0.0375\n",
      "note_on channel=0 note=60 velocity=127 time=0.014583333333333334\n",
      "note_off channel=0 note=61 velocity=127 time=0.005208333333333333\n",
      "note_off channel=0 note=60 velocity=127 time=0.014583333333333334\n",
      "note_on channel=0 note=62 velocity=127 time=0.022916666666666665\n",
      "note_on channel=0 note=61 velocity=127 time=0.014583333333333334\n",
      "note_off channel=0 note=62 velocity=127 time=0.005208333333333333\n",
      "note_on channel=0 note=60 velocity=127 time=0.008333333333333333\n",
      "note_off channel=0 note=61 velocity=127 time=0.00625\n",
      "note_off channel=0 note=60 velocity=127 time=0.013541666666666667\n",
      "note_on channel=0 note=61 velocity=127 time=0.03854166666666667\n",
      "note_on channel=0 note=60 velocity=127 time=0.013541666666666667\n",
      "note_off channel=0 note=61 velocity=127 time=0.00625\n",
      "note_off channel=0 note=60 velocity=127 time=0.013541666666666667\n",
      "note_on channel=0 note=61 velocity=127 time=0.03854166666666667\n",
      "note_on channel=0 note=60 velocity=127 time=0.0125\n",
      "note_on channel=0 note=62 velocity=127 time=0.005208333333333333\n",
      "note_off channel=0 note=61 velocity=127 time=0.0020833333333333333\n",
      "note_off channel=0 note=60 velocity=127 time=0.0125\n",
      "note_off channel=0 note=62 velocity=127 time=0.005208333333333333\n",
      "note_on channel=0 note=61 velocity=127 time=0.034375\n",
      "note_on channel=0 note=60 velocity=127 time=0.0125\n",
      "note_off channel=0 note=61 velocity=127 time=0.008333333333333333\n",
      "note_off channel=0 note=60 velocity=127 time=0.0125\n",
      "note_on channel=0 note=61 velocity=127 time=0.040625\n",
      "note_on channel=0 note=60 velocity=127 time=0.011458333333333333\n",
      "note_off channel=0 note=61 velocity=127 time=0.008333333333333333\n",
      "note_off channel=0 note=60 velocity=127 time=0.011458333333333333\n",
      "note_on channel=0 note=62 velocity=127 time=0.019791666666666666\n",
      "note_off channel=0 note=62 velocity=127 time=0.019791666666666666\n",
      "note_on channel=0 note=61 velocity=127 time=0.0010416666666666667\n",
      "note_on channel=0 note=60 velocity=127 time=0.010416666666666666\n",
      "note_off channel=0 note=61 velocity=127 time=0.009375\n",
      "note_off channel=0 note=60 velocity=127 time=0.010416666666666666\n",
      "note_on channel=0 note=61 velocity=127 time=0.041666666666666664\n",
      "note_on channel=0 note=60 velocity=127 time=0.010416666666666666\n",
      "note_off channel=0 note=61 velocity=127 time=0.010416666666666666\n",
      "note_off channel=0 note=60 velocity=127 time=0.010416666666666666\n",
      "note_on channel=0 note=61 velocity=127 time=0.042708333333333334\n",
      "note_on channel=0 note=60 velocity=127 time=0.009375\n",
      "note_on channel=0 note=62 velocity=127 time=0.0020833333333333333\n",
      "note_off channel=0 note=61 velocity=127 time=0.008333333333333333\n",
      "note_off channel=0 note=60 velocity=127 time=0.009375\n",
      "note_off channel=0 note=62 velocity=127 time=0.0020833333333333333\n",
      "note_on channel=0 note=61 velocity=127 time=0.040625\n",
      "note_on channel=0 note=60 velocity=127 time=0.008333333333333333\n",
      "note_off channel=0 note=61 velocity=127 time=0.011458333333333333\n",
      "note_off channel=0 note=60 velocity=127 time=0.008333333333333333\n",
      "note_on channel=0 note=61 velocity=127 time=0.04375\n",
      "note_on channel=0 note=60 velocity=127 time=0.008333333333333333\n",
      "\u001b[91m [DEBUG] > \u001b[0m\n",
      " |>  to_array: msg.time > max_t; t, n\n",
      " |>  2.9906249999999996\n",
      " |>  150\n",
      "note_on channel=0 note=61 velocity=127 time=0.008333333333333333\n",
      "note_off channel=0 note=61 velocity=127 time=0.019791666666666666\n",
      "note_on channel=0 note=60 velocity=127 time=0.00625\n",
      "note_on channel=0 note=62 velocity=127 time=0.00625\n",
      "note_off channel=0 note=60 velocity=127 time=0.013541666666666667\n",
      "note_off channel=0 note=62 velocity=127 time=0.00625\n",
      "note_on channel=0 note=60 velocity=127 time=0.042708333333333334\n",
      "note_on channel=0 note=61 velocity=127 time=0.0020833333333333333\n",
      "note_off channel=0 note=60 velocity=127 time=0.017708333333333333\n",
      "note_off channel=0 note=61 velocity=127 time=0.0020833333333333333\n",
      "note_on channel=0 note=60 velocity=127 time=0.04583333333333333\n",
      "note_off channel=0 note=60 velocity=127 time=0.019791666666666666\n",
      "note_on channel=0 note=61 velocity=127 time=0.011458333333333333\n",
      "note_on channel=0 note=62 velocity=127 time=0.005208333333333333\n",
      "note_off channel=0 note=61 velocity=127 time=0.015625\n",
      "note_off channel=0 note=62 velocity=127 time=0.005208333333333333\n",
      "note_on channel=0 note=60 velocity=127 time=0.013541666666666667\n",
      "note_off channel=0 note=60 velocity=127 time=0.019791666666666666\n",
      "note_on channel=0 note=61 velocity=127 time=0.03958333333333333\n",
      "note_on channel=0 note=60 velocity=127 time=0.009375\n",
      "note_off channel=0 note=61 velocity=127 time=0.010416666666666666\n",
      "note_off channel=0 note=60 velocity=127 time=0.009375\n",
      "note_on channel=0 note=62 velocity=127 time=0.04479166666666667\n",
      "note_on channel=0 note=60 velocity=127 time=0.004166666666666667\n",
      "note_off channel=0 note=62 velocity=127 time=0.015625\n",
      "note_on channel=0 note=61 velocity=127 time=0.003125\n",
      "note_off channel=0 note=60 velocity=127 time=0.0010416666666666667\n",
      "note_off channel=0 note=61 velocity=127 time=0.01875\n",
      "note_on channel=0 note=60 velocity=127 time=0.030208333333333334\n",
      "note_off channel=0 note=60 velocity=127 time=0.019791666666666666\n",
      "note_on channel=0 note=61 velocity=127 time=0.027083333333333334\n",
      "note_off channel=0 note=61 velocity=127 time=0.019791666666666666\n",
      "note_on channel=0 note=60 velocity=127 time=0.0020833333333333333\n",
      "note_off channel=0 note=60 velocity=127 time=0.019791666666666666\n",
      "note_on channel=0 note=62 velocity=127 time=0.005208333333333333\n",
      "note_off channel=0 note=62 velocity=127 time=0.019791666666666666\n",
      "note_on channel=0 note=60 velocity=127 time=0.02395833333333333\n",
      "note_on channel=0 note=61 velocity=127 time=0.00625\n",
      "note_off channel=0 note=60 velocity=127 time=0.013541666666666667\n",
      "note_off channel=0 note=61 velocity=127 time=0.00625\n",
      "note_on channel=0 note=60 velocity=127 time=0.042708333333333334\n",
      "note_off channel=0 note=60 velocity=127 time=0.019791666666666666\n",
      "note_on channel=0 note=61 velocity=127 time=0.014583333333333334\n",
      "note_on channel=0 note=62 velocity=127 time=0.01875\n",
      "note_off channel=0 note=61 velocity=127 time=0.0010416666666666667\n",
      "note_on channel=0 note=60 velocity=127 time=0.013541666666666667\n",
      "note_off channel=0 note=62 velocity=127 time=0.005208333333333333\n",
      "note_off channel=0 note=60 velocity=127 time=0.014583333333333334\n",
      "note_on channel=0 note=61 velocity=127 time=0.04375\n",
      "note_on channel=0 note=60 velocity=127 time=0.005208333333333333\n",
      "note_off channel=0 note=61 velocity=127 time=0.014583333333333334\n",
      "note_off channel=0 note=60 velocity=127 time=0.005208333333333333\n",
      "note_on channel=0 note=60 velocity=127 time=0.04895833333333333\n",
      "note_on channel=0 note=62 velocity=127 time=0.014583333333333334\n",
      "note_off channel=0 note=60 velocity=127 time=0.005208333333333333\n",
      "note_on channel=0 note=61 velocity=127 time=0.003125\n",
      "note_off channel=0 note=62 velocity=127 time=0.011458333333333333\n",
      "note_off channel=0 note=61 velocity=127 time=0.008333333333333333\n",
      "note_on channel=0 note=60 velocity=127 time=0.026041666666666668\n",
      "note_off channel=0 note=60 velocity=127 time=0.019791666666666666\n",
      "note_on channel=0 note=61 velocity=127 time=0.03125\n",
      "note_on channel=0 note=60 velocity=127 time=0.017708333333333333\n",
      "note_off channel=0 note=61 velocity=127 time=0.0020833333333333333\n",
      "note_off channel=0 note=60 velocity=127 time=0.017708333333333333\n",
      "note_on channel=0 note=62 velocity=127 time=0.02395833333333333\n",
      "note_off channel=0 note=62 velocity=127 time=0.019791666666666666\n",
      "note_on channel=0 note=60 velocity=127 time=0.005208333333333333\n",
      "note_on channel=0 note=61 velocity=127 time=0.010416666666666666\n",
      "note_off channel=0 note=60 velocity=127 time=0.009375\n",
      "note_off channel=0 note=61 velocity=127 time=0.010416666666666666\n",
      "note_on channel=0 note=60 velocity=127 time=0.03854166666666667\n",
      "note_off channel=0 note=60 velocity=127 time=0.019791666666666666\n",
      "note_on channel=0 note=61 velocity=127 time=0.01875\n",
      "note_off channel=0 note=61 velocity=127 time=0.019791666666666666\n",
      "note_on channel=0 note=60 velocity=127 time=0.009375\n",
      "note_on channel=0 note=62 velocity=127 time=0.004166666666666667\n",
      "note_off channel=0 note=60 velocity=127 time=0.016666666666666666\n",
      "note_off channel=0 note=62 velocity=127 time=0.004166666666666667\n",
      "note_on channel=0 note=61 velocity=127 time=0.04375\n",
      "note_on channel=0 note=60 velocity=127 time=0.0010416666666666667\n",
      "note_off channel=0 note=61 velocity=127 time=0.01875\n",
      "note_off channel=0 note=60 velocity=127 time=0.0010416666666666667\n",
      "note_on channel=0 note=60 velocity=127 time=0.04895833333333333\n",
      "note_off channel=0 note=60 velocity=127 time=0.019791666666666666\n",
      "note_on channel=0 note=61 velocity=127 time=0.007291666666666667\n",
      "note_on channel=0 note=62 velocity=127 time=0.00625\n",
      "note_off channel=0 note=61 velocity=127 time=0.014583333333333334\n",
      "note_off channel=0 note=62 velocity=127 time=0.00625\n",
      "note_on channel=0 note=60 velocity=127 time=0.015625\n",
      "note_off channel=0 note=60 velocity=127 time=0.019791666666666666\n",
      "note_on channel=0 note=61 velocity=127 time=0.035416666666666666\n",
      "note_on channel=0 note=60 velocity=127 time=0.013541666666666667\n",
      "note_off channel=0 note=61 velocity=127 time=0.00625\n",
      "note_off channel=0 note=60 velocity=127 time=0.013541666666666667\n",
      "note_on channel=0 note=62 velocity=127 time=0.041666666666666664\n",
      "note_on channel=0 note=60 velocity=127 time=0.007291666666666667\n",
      "note_off channel=0 note=62 velocity=127 time=0.013541666666666667\n",
      "note_on channel=0 note=61 velocity=127 time=0.0020833333333333333\n",
      "note_off channel=0 note=60 velocity=127 time=0.005208333333333333\n",
      "note_off channel=0 note=61 velocity=127 time=0.014583333333333334\n",
      "note_on channel=0 note=60 velocity=127 time=0.034375\n",
      "note_off channel=0 note=60 velocity=127 time=0.019791666666666666\n",
      "note_on channel=0 note=61 velocity=127 time=0.022916666666666665\n",
      "note_off channel=0 note=61 velocity=127 time=0.019791666666666666\n",
      "note_on channel=0 note=60 velocity=127 time=0.005208333333333333\n",
      "note_off channel=0 note=60 velocity=127 time=0.019791666666666666\n",
      "note_on channel=0 note=62 velocity=127 time=0.0020833333333333333\n",
      "note_off channel=0 note=62 velocity=127 time=0.019791666666666666\n",
      "note_on channel=0 note=60 velocity=127 time=0.027083333333333334\n",
      "note_on channel=0 note=61 velocity=127 time=0.003125\n",
      "note_off channel=0 note=60 velocity=127 time=0.017708333333333333\n",
      "note_off channel=0 note=61 velocity=127 time=0.003125\n",
      "note_on channel=0 note=60 velocity=127 time=0.04583333333333333\n",
      "note_off channel=0 note=60 velocity=127 time=0.019791666666666666\n",
      "note_on channel=0 note=61 velocity=127 time=0.011458333333333333\n",
      "note_off channel=0 note=61 velocity=127 time=0.019791666666666666\n",
      "note_on channel=0 note=62 velocity=127 time=0\n",
      "note_on channel=0 note=60 velocity=127 time=0.017708333333333333\n",
      "note_off channel=0 note=62 velocity=127 time=0.0020833333333333333\n",
      "note_off channel=0 note=60 velocity=127 time=0.017708333333333333\n",
      "note_on channel=0 note=61 velocity=127 time=0.03958333333333333\n",
      "note_on channel=0 note=60 velocity=127 time=0.009375\n",
      "note_off channel=0 note=61 velocity=127 time=0.010416666666666666\n",
      "note_off channel=0 note=60 velocity=127 time=0.009375\n",
      "note_on channel=0 note=60 velocity=127 time=0.04895833333333333\n",
      "note_on channel=0 note=62 velocity=127 time=0.011458333333333333\n",
      "note_on channel=0 note=61 velocity=127 time=0.007291666666666667\n",
      "note_off channel=0 note=60 velocity=127 time=0.0010416666666666667\n",
      "note_off channel=0 note=62 velocity=127 time=0.011458333333333333\n",
      "note_off channel=0 note=61 velocity=127 time=0.007291666666666667\n",
      "note_on channel=0 note=60 velocity=127 time=0.030208333333333334\n",
      "note_off channel=0 note=60 velocity=127 time=0.019791666666666666\n",
      "note_on channel=0 note=61 velocity=127 time=0.027083333333333334\n",
      "note_off channel=0 note=61 velocity=127 time=0.019791666666666666\n",
      "note_on channel=0 note=60 velocity=127 time=0.0010416666666666667\n",
      "note_off channel=0 note=60 velocity=127 time=0.019791666666666666\n",
      "note_on channel=0 note=62 velocity=127 time=0.020833333333333332\n",
      "note_off channel=0 note=62 velocity=127 time=0.019791666666666666\n",
      "note_on channel=0 note=60 velocity=127 time=0.008333333333333333\n",
      "note_on channel=0 note=61 velocity=127 time=0.007291666666666667\n",
      "note_off channel=0 note=60 velocity=127 time=0.013541666666666667\n",
      "note_off channel=0 note=61 velocity=127 time=0.007291666666666667\n",
      "note_on channel=0 note=60 velocity=127 time=0.041666666666666664\n",
      "note_off channel=0 note=60 velocity=127 time=0.019791666666666666\n",
      "note_on channel=0 note=61 velocity=127 time=0.015625\n",
      "note_off channel=0 note=61 velocity=127 time=0.019791666666666666\n",
      "note_on channel=0 note=60 velocity=127 time=0.013541666666666667\n",
      "note_on channel=0 note=62 velocity=127 time=0.0010416666666666667\n",
      "note_off channel=0 note=60 velocity=127 time=0.01875\n",
      "note_off channel=0 note=62 velocity=127 time=0.0010416666666666667\n",
      "note_on channel=0 note=61 velocity=127 time=0.042708333333333334\n",
      "note_on channel=0 note=60 velocity=127 time=0.005208333333333333\n",
      "note_off channel=0 note=61 velocity=127 time=0.014583333333333334\n",
      "note_off channel=0 note=60 velocity=127 time=0.005208333333333333\n",
      "note_on channel=0 note=60 velocity=127 time=0.04895833333333333\n",
      "note_off channel=0 note=60 velocity=127 time=0.019791666666666666\n",
      "note_on channel=0 note=61 velocity=127 time=0.003125\n",
      "note_on channel=0 note=62 velocity=127 time=0.007291666666666667\n",
      "note_off channel=0 note=61 velocity=127 time=0.013541666666666667\n",
      "note_off channel=0 note=62 velocity=127 time=0.007291666666666667\n",
      "note_on channel=0 note=60 velocity=127 time=0.01875\n",
      "note_off channel=0 note=60 velocity=127 time=0.019791666666666666\n",
      "note_on channel=0 note=61 velocity=127 time=0.03125\n",
      "note_on channel=0 note=60 velocity=127 time=0.017708333333333333\n",
      "note_off channel=0 note=61 velocity=127 time=0.003125\n",
      "note_off channel=0 note=60 velocity=127 time=0.017708333333333333\n",
      "note_on channel=0 note=62 velocity=127 time=0.03854166666666667\n",
      "note_on channel=0 note=60 velocity=127 time=0.009375\n",
      "note_off channel=0 note=62 velocity=127 time=0.010416666666666666\n",
      "note_on channel=0 note=61 velocity=127 time=0.0010416666666666667\n",
      "note_off channel=0 note=60 velocity=127 time=0.009375\n",
      "note_off channel=0 note=61 velocity=127 time=0.011458333333333333\n",
      "note_on channel=0 note=60 velocity=127 time=0.0375\n",
      "note_off channel=0 note=60 velocity=127 time=0.019791666666666666\n",
      "note_on channel=0 note=61 velocity=127 time=0.019791666666666666\n",
      "note_off channel=0 note=61 velocity=127 time=0.019791666666666666\n",
      "note_on channel=0 note=60 velocity=127 time=0.009375\n",
      "note_on channel=0 note=62 velocity=127 time=0.01875\n",
      "note_off channel=0 note=60 velocity=127 time=0.0010416666666666667\n",
      "note_off channel=0 note=62 velocity=127 time=0.01875\n",
      "note_on channel=0 note=61 velocity=127 time=0.028125\n",
      "note_on channel=0 note=60 velocity=127 time=0.0010416666666666667\n",
      "note_off channel=0 note=61 velocity=127 time=0.01875\n",
      "note_off channel=0 note=60 velocity=127 time=0.0010416666666666667\n",
      "note_on channel=0 note=60 velocity=127 time=0.04895833333333333\n",
      "\u001b[91m [DEBUG] > \u001b[0m\n",
      " |>  to_array: msg.time > max_t; t, n\n",
      " |>  2.9937500000000004\n",
      " |>  150\n",
      "note_on channel=0 note=60 velocity=127 time=0.08229166666666667\n",
      "note_off channel=0 note=60 velocity=127 time=0.019791666666666666\n",
      "note_on channel=0 note=62 velocity=127 time=0.008333333333333333\n",
      "note_off channel=0 note=62 velocity=127 time=0.019791666666666666\n",
      "note_on channel=0 note=60 velocity=127 time=0.041666666666666664\n",
      "note_off channel=0 note=60 velocity=127 time=0.019791666666666666\n",
      "note_on channel=0 note=61 velocity=127 time=0.041666666666666664\n",
      "note_off channel=0 note=61 velocity=127 time=0.019791666666666666\n",
      "note_on channel=0 note=62 velocity=127 time=0.00625\n",
      "note_on channel=0 note=60 velocity=127 time=0.003125\n",
      "note_off channel=0 note=62 velocity=127 time=0.016666666666666666\n",
      "note_off channel=0 note=60 velocity=127 time=0.003125\n",
      "note_on channel=0 note=60 velocity=127 time=0.06979166666666667\n",
      "note_off channel=0 note=60 velocity=127 time=0.019791666666666666\n",
      "note_on channel=0 note=62 velocity=127 time=0.035416666666666666\n",
      "note_off channel=0 note=62 velocity=127 time=0.019791666666666666\n",
      "note_on channel=0 note=60 velocity=127 time=0.014583333333333334\n",
      "note_off channel=0 note=60 velocity=127 time=0.019791666666666666\n",
      "note_on channel=0 note=61 velocity=127 time=0.04583333333333333\n",
      "note_off channel=0 note=61 velocity=127 time=0.019791666666666666\n",
      "note_on channel=0 note=60 velocity=127 time=0.004166666666666667\n",
      "note_off channel=0 note=60 velocity=127 time=0.019791666666666666\n",
      "note_on channel=0 note=62 velocity=127 time=0.004166666666666667\n",
      "note_off channel=0 note=62 velocity=127 time=0.019791666666666666\n",
      "note_on channel=0 note=60 velocity=127 time=0.04583333333333333\n",
      "note_off channel=0 note=60 velocity=127 time=0.019791666666666666\n",
      "note_on channel=0 note=62 velocity=127 time=0.06354166666666666\n",
      "note_on channel=0 note=60 velocity=127 time=0.007291666666666667\n",
      "note_off channel=0 note=62 velocity=127 time=0.0125\n",
      "note_off channel=0 note=60 velocity=127 time=0.007291666666666667\n",
      "note_on channel=0 note=61 velocity=127 time=0.051041666666666666\n",
      "note_on channel=0 note=60 velocity=127 time=0.01875\n",
      "note_off channel=0 note=61 velocity=127 time=0.0010416666666666667\n",
      "note_off channel=0 note=60 velocity=127 time=0.01875\n",
      "note_on channel=0 note=62 velocity=127 time=0.03125\n",
      "note_off channel=0 note=62 velocity=127 time=0.019791666666666666\n",
      "note_on channel=0 note=60 velocity=127 time=0.01875\n",
      "note_off channel=0 note=60 velocity=127 time=0.019791666666666666\n",
      "note_on channel=0 note=60 velocity=127 time=0.06979166666666667\n",
      "note_off channel=0 note=60 velocity=127 time=0.019791666666666666\n",
      "note_on channel=0 note=62 velocity=127 time=0\n",
      "note_off channel=0 note=62 velocity=127 time=0.019791666666666666\n",
      "note_on channel=0 note=61 velocity=127 time=0.035416666666666666\n",
      "note_on channel=0 note=60 velocity=127 time=0.014583333333333334\n",
      "note_off channel=0 note=61 velocity=127 time=0.00625\n",
      "note_off channel=0 note=60 velocity=127 time=0.014583333333333334\n",
      "note_on channel=0 note=62 velocity=127 time=0.059375\n",
      "note_on channel=0 note=60 velocity=127 time=0.011458333333333333\n",
      "note_off channel=0 note=62 velocity=127 time=0.009375\n",
      "note_off channel=0 note=60 velocity=127 time=0.011458333333333333\n",
      "note_on channel=0 note=60 velocity=127 time=0.06979166666666667\n",
      "note_off channel=0 note=60 velocity=127 time=0.019791666666666666\n",
      "note_on channel=0 note=62 velocity=127 time=0.028125\n",
      "note_off channel=0 note=62 velocity=127 time=0.019791666666666666\n",
      "note_on channel=0 note=61 velocity=127 time=0.013541666666666667\n",
      "note_on channel=0 note=60 velocity=127 time=0.009375\n",
      "note_off channel=0 note=61 velocity=127 time=0.010416666666666666\n",
      "note_off channel=0 note=60 velocity=127 time=0.009375\n",
      "note_on channel=0 note=60 velocity=127 time=0.06979166666666667\n",
      "note_on channel=0 note=62 velocity=127 time=0.016666666666666666\n",
      "note_off channel=0 note=60 velocity=127 time=0.004166666666666667\n",
      "note_off channel=0 note=62 velocity=127 time=0.016666666666666666\n",
      "note_on channel=0 note=60 velocity=127 time=0.05416666666666667\n",
      "note_off channel=0 note=60 velocity=127 time=0.019791666666666666\n",
      "note_on channel=0 note=62 velocity=127 time=0.05520833333333333\n",
      "note_on channel=0 note=61 velocity=127 time=0.011458333333333333\n",
      "note_on channel=0 note=60 velocity=127 time=0.004166666666666667\n",
      "note_off channel=0 note=62 velocity=127 time=0.005208333333333333\n",
      "note_off channel=0 note=61 velocity=127 time=0.011458333333333333\n",
      "note_off channel=0 note=60 velocity=127 time=0.004166666666666667\n",
      "note_on channel=0 note=60 velocity=127 time=0.06979166666666667\n",
      "note_off channel=0 note=60 velocity=127 time=0.019791666666666666\n",
      "note_on channel=0 note=62 velocity=127 time=0.02395833333333333\n",
      "note_off channel=0 note=62 velocity=127 time=0.019791666666666666\n",
      "note_on channel=0 note=60 velocity=127 time=0.027083333333333334\n",
      "note_off channel=0 note=60 velocity=127 time=0.019791666666666666\n",
      "note_on channel=0 note=60 velocity=127 time=0.06979166666666667\n",
      "note_on channel=0 note=61 velocity=127 time=0.0010416666666666667\n",
      "note_on channel=0 note=62 velocity=127 time=0.011458333333333333\n",
      "note_off channel=0 note=60 velocity=127 time=0.008333333333333333\n",
      "note_off channel=0 note=61 velocity=127 time=0.0010416666666666667\n",
      "note_off channel=0 note=62 velocity=127 time=0.011458333333333333\n",
      "note_on channel=0 note=60 velocity=127 time=0.058333333333333334\n",
      "note_off channel=0 note=60 velocity=127 time=0.019791666666666666\n",
      "note_on channel=0 note=62 velocity=127 time=0.051041666666666666\n",
      "note_on channel=0 note=60 velocity=127 time=0.019791666666666666\n",
      "note_off channel=0 note=62 velocity=127 time=0.0010416666666666667\n",
      "note_off channel=0 note=60 velocity=127 time=0.019791666666666666\n",
      "note_on channel=0 note=60 velocity=127 time=0.06979166666666667\n",
      "note_on channel=0 note=61 velocity=127 time=0.005208333333333333\n",
      "note_off channel=0 note=60 velocity=127 time=0.014583333333333334\n",
      "note_off channel=0 note=61 velocity=127 time=0.005208333333333333\n",
      "note_on channel=0 note=62 velocity=127 time=0.013541666666666667\n",
      "note_off channel=0 note=62 velocity=127 time=0.019791666666666666\n",
      "note_on channel=0 note=60 velocity=127 time=0.030208333333333334\n",
      "note_off channel=0 note=60 velocity=127 time=0.019791666666666666\n",
      "note_on channel=0 note=60 velocity=127 time=0.06979166666666667\n",
      "note_on channel=0 note=62 velocity=127 time=0.008333333333333333\n",
      "note_off channel=0 note=60 velocity=127 time=0.011458333333333333\n",
      "note_off channel=0 note=62 velocity=127 time=0.008333333333333333\n",
      "note_on channel=0 note=60 velocity=127 time=0.0625\n",
      "note_on channel=0 note=61 velocity=127 time=0.010416666666666666\n",
      "note_off channel=0 note=60 velocity=127 time=0.009375\n",
      "note_off channel=0 note=61 velocity=127 time=0.010416666666666666\n",
      "note_on channel=0 note=62 velocity=127 time=0.036458333333333336\n",
      "note_off channel=0 note=62 velocity=127 time=0.019791666666666666\n",
      "note_on channel=0 note=60 velocity=127 time=0.003125\n",
      "note_off channel=0 note=60 velocity=127 time=0.019791666666666666\n",
      "note_on channel=0 note=60 velocity=127 time=0.06979166666666667\n",
      "note_off channel=0 note=60 velocity=127 time=0.019791666666666666\n",
      "note_on channel=0 note=62 velocity=127 time=0.015625\n",
      "note_off channel=0 note=62 velocity=127 time=0.019791666666666666\n",
      "note_on channel=0 note=60 velocity=127 time=0.034375\n",
      "note_on channel=0 note=61 velocity=127 time=0.015625\n",
      "note_off channel=0 note=60 velocity=127 time=0.004166666666666667\n",
      "note_off channel=0 note=61 velocity=127 time=0.015625\n",
      "note_on channel=0 note=60 velocity=127 time=0.05416666666666667\n",
      "note_on channel=0 note=62 velocity=127 time=0.004166666666666667\n",
      "note_off channel=0 note=60 velocity=127 time=0.015625\n",
      "note_off channel=0 note=62 velocity=127 time=0.004166666666666667\n",
      "note_on channel=0 note=60 velocity=127 time=0.06666666666666667\n",
      "note_off channel=0 note=60 velocity=127 time=0.019791666666666666\n",
      "note_on channel=0 note=62 velocity=127 time=0.042708333333333334\n",
      "note_off channel=0 note=62 velocity=127 time=0.019791666666666666\n",
      "note_on channel=0 note=60 velocity=127 time=0.007291666666666667\n",
      "note_off channel=0 note=60 velocity=127 time=0.019791666666666666\n",
      "note_on channel=0 note=61 velocity=127 time=0.0010416666666666667\n",
      "note_off channel=0 note=61 velocity=127 time=0.019791666666666666\n",
      "\u001b[91m [DEBUG] > \u001b[0m\n",
      " |>  to_array: msg.time > max_t; t, n\n",
      " |>  3.0062500000000023\n",
      " |>  150\n",
      "note_on channel=0 note=60 velocity=127 time=0.04895833333333333\n",
      "note_on channel=0 note=62 velocity=127 time=0.0125\n",
      "note_off channel=0 note=60 velocity=127 time=0.007291666666666667\n",
      "note_off channel=0 note=62 velocity=127 time=0.0125\n",
      "note_on channel=0 note=62 velocity=127 time=0.058333333333333334\n",
      "note_off channel=0 note=62 velocity=127 time=0.019791666666666666\n",
      "note_on channel=0 note=61 velocity=127 time=0.029166666666666667\n",
      "note_off channel=0 note=61 velocity=127 time=0.019791666666666666\n",
      "note_on channel=0 note=62 velocity=127 time=0.009375\n",
      "note_on channel=0 note=60 velocity=127 time=0.007291666666666667\n",
      "note_off channel=0 note=62 velocity=127 time=0.0125\n",
      "note_off channel=0 note=60 velocity=127 time=0.007291666666666667\n",
      "note_on channel=0 note=62 velocity=127 time=0.051041666666666666\n",
      "note_off channel=0 note=62 velocity=127 time=0.019791666666666666\n",
      "note_on channel=0 note=62 velocity=127 time=0.058333333333333334\n",
      "note_on channel=0 note=61 velocity=127 time=0.01875\n",
      "note_off channel=0 note=62 velocity=127 time=0.0020833333333333333\n",
      "note_on channel=0 note=60 velocity=127 time=0.007291666666666667\n",
      "note_off channel=0 note=61 velocity=127 time=0.010416666666666666\n",
      "note_off channel=0 note=60 velocity=127 time=0.009375\n",
      "note_on channel=0 note=62 velocity=127 time=0.030208333333333334\n",
      "note_off channel=0 note=62 velocity=127 time=0.019791666666666666\n",
      "note_on channel=0 note=62 velocity=127 time=0.058333333333333334\n",
      "note_off channel=0 note=62 velocity=127 time=0.019791666666666666\n",
      "note_on channel=0 note=60 velocity=127 time=0.027083333333333334\n",
      "note_on channel=0 note=61 velocity=127 time=0.01875\n",
      "note_off channel=0 note=60 velocity=127 time=0.0010416666666666667\n",
      "note_on channel=0 note=62 velocity=127 time=0.010416666666666666\n",
      "note_off channel=0 note=61 velocity=127 time=0.008333333333333333\n",
      "note_off channel=0 note=62 velocity=127 time=0.0125\n",
      "note_on channel=0 note=62 velocity=127 time=0.058333333333333334\n",
      "note_off channel=0 note=62 velocity=127 time=0.019791666666666666\n",
      "note_on channel=0 note=60 velocity=127 time=0.04791666666666666\n",
      "note_on channel=0 note=62 velocity=127 time=0.010416666666666666\n",
      "note_off channel=0 note=60 velocity=127 time=0.009375\n",
      "note_off channel=0 note=62 velocity=127 time=0.010416666666666666\n",
      "note_on channel=0 note=61 velocity=127 time=0.015625\n",
      "note_off channel=0 note=61 velocity=127 time=0.019791666666666666\n",
      "note_on channel=0 note=62 velocity=127 time=0.022916666666666665\n",
      "note_off channel=0 note=62 velocity=127 time=0.019791666666666666\n",
      "note_on channel=0 note=62 velocity=127 time=0.058333333333333334\n",
      "note_on channel=0 note=60 velocity=127 time=0.009375\n",
      "note_off channel=0 note=62 velocity=127 time=0.010416666666666666\n",
      "note_off channel=0 note=60 velocity=127 time=0.009375\n",
      "note_on channel=0 note=62 velocity=127 time=0.04791666666666666\n",
      "note_on channel=0 note=61 velocity=127 time=0.005208333333333333\n",
      "note_off channel=0 note=62 velocity=127 time=0.014583333333333334\n",
      "note_off channel=0 note=61 velocity=127 time=0.005208333333333333\n",
      "note_on channel=0 note=62 velocity=127 time=0.053125\n",
      "note_off channel=0 note=62 velocity=127 time=0.019791666666666666\n",
      "note_on channel=0 note=60 velocity=127 time=0.009375\n",
      "note_off channel=0 note=60 velocity=127 time=0.019791666666666666\n",
      "note_on channel=0 note=62 velocity=127 time=0.028125\n",
      "note_off channel=0 note=62 velocity=127 time=0.019791666666666666\n",
      "note_on channel=0 note=61 velocity=127 time=0.03229166666666666\n",
      "note_off channel=0 note=61 velocity=127 time=0.019791666666666666\n",
      "note_on channel=0 note=62 velocity=127 time=0.005208333333333333\n",
      "note_off channel=0 note=62 velocity=127 time=0.019791666666666666\n",
      "note_on channel=0 note=60 velocity=127 time=0.030208333333333334\n",
      "note_off channel=0 note=60 velocity=127 time=0.019791666666666666\n",
      "note_on channel=0 note=62 velocity=127 time=0.008333333333333333\n",
      "note_off channel=0 note=62 velocity=127 time=0.019791666666666666\n",
      "note_on channel=0 note=62 velocity=127 time=0.058333333333333334\n",
      "note_off channel=0 note=62 velocity=127 time=0.019791666666666666\n",
      "note_on channel=0 note=61 velocity=127 time=0.0020833333333333333\n",
      "note_off channel=0 note=61 velocity=127 time=0.019791666666666666\n",
      "note_on channel=0 note=60 velocity=127 time=0.028125\n",
      "note_on channel=0 note=62 velocity=127 time=0.008333333333333333\n",
      "note_off channel=0 note=60 velocity=127 time=0.011458333333333333\n",
      "note_off channel=0 note=62 velocity=127 time=0.008333333333333333\n",
      "note_on channel=0 note=62 velocity=127 time=0.058333333333333334\n",
      "note_off channel=0 note=62 velocity=127 time=0.019791666666666666\n",
      "note_on channel=0 note=61 velocity=127 time=0.05\n",
      "note_on channel=0 note=62 velocity=127 time=0.008333333333333333\n",
      "note_off channel=0 note=61 velocity=127 time=0.011458333333333333\n",
      "note_on channel=0 note=60 velocity=127 time=0\n"
     ]
    },
    {
     "name": "stdout",
     "output_type": "stream",
     "text": [
      "note_off channel=0 note=62 velocity=127 time=0.008333333333333333\n",
      "note_off channel=0 note=60 velocity=127 time=0.0125\n",
      "note_on channel=0 note=62 velocity=127 time=0.04583333333333333\n",
      "note_off channel=0 note=62 velocity=127 time=0.019791666666666666\n",
      "note_on channel=0 note=62 velocity=127 time=0.058333333333333334\n",
      "note_off channel=0 note=62 velocity=127 time=0.019791666666666666\n",
      "note_on channel=0 note=60 velocity=127 time=0.0125\n",
      "note_on channel=0 note=61 velocity=127 time=0.007291666666666667\n",
      "note_off channel=0 note=60 velocity=127 time=0.0125\n",
      "note_off channel=0 note=61 velocity=127 time=0.007291666666666667\n",
      "note_on channel=0 note=62 velocity=127 time=0.01875\n",
      "note_off channel=0 note=62 velocity=127 time=0.019791666666666666\n",
      "note_on channel=0 note=62 velocity=127 time=0.058333333333333334\n",
      "note_off channel=0 note=62 velocity=127 time=0.019791666666666666\n",
      "note_on channel=0 note=60 velocity=127 time=0.03229166666666666\n",
      "note_off channel=0 note=60 velocity=127 time=0.019791666666666666\n",
      "note_on channel=0 note=62 velocity=127 time=0.00625\n",
      "note_on channel=0 note=61 velocity=127 time=0.009375\n",
      "note_off channel=0 note=62 velocity=127 time=0.011458333333333333\n",
      "note_off channel=0 note=61 velocity=127 time=0.009375\n",
      "note_on channel=0 note=62 velocity=127 time=0.04895833333333333\n",
      "note_off channel=0 note=62 velocity=127 time=0.019791666666666666\n",
      "note_on channel=0 note=60 velocity=127 time=0.052083333333333336\n",
      "note_on channel=0 note=62 velocity=127 time=0.005208333333333333\n",
      "note_off channel=0 note=60 velocity=127 time=0.014583333333333334\n",
      "note_off channel=0 note=62 velocity=127 time=0.005208333333333333\n",
      "note_on channel=0 note=61 velocity=127 time=0.036458333333333336\n",
      "note_off channel=0 note=61 velocity=127 time=0.019791666666666666\n",
      "note_on channel=0 note=62 velocity=127 time=0.0010416666666666667\n",
      "note_off channel=0 note=62 velocity=127 time=0.019791666666666666\n",
      "note_on channel=0 note=62 velocity=127 time=0.058333333333333334\n",
      "note_on channel=0 note=60 velocity=127 time=0.014583333333333334\n",
      "note_off channel=0 note=62 velocity=127 time=0.005208333333333333\n",
      "note_off channel=0 note=60 velocity=127 time=0.014583333333333334\n",
      "note_on channel=0 note=62 velocity=127 time=0.04375\n",
      "note_off channel=0 note=62 velocity=127 time=0.019791666666666666\n",
      "note_on channel=0 note=61 velocity=127 time=0.00625\n",
      "note_off channel=0 note=61 velocity=127 time=0.019791666666666666\n",
      "note_on channel=0 note=62 velocity=127 time=0.03229166666666666\n",
      "note_off channel=0 note=62 velocity=127 time=0.019791666666666666\n",
      "note_on channel=0 note=60 velocity=127 time=0.014583333333333334\n",
      "note_off channel=0 note=60 velocity=127 time=0.019791666666666666\n",
      "note_on channel=0 note=62 velocity=127 time=0.02395833333333333\n",
      "note_off channel=0 note=62 velocity=127 time=0.019791666666666666\n",
      "note_on channel=0 note=61 velocity=127 time=0.05416666666666667\n",
      "note_on channel=0 note=62 velocity=127 time=0.004166666666666667\n",
      "note_off channel=0 note=61 velocity=127 time=0.015625\n",
      "note_off channel=0 note=62 velocity=127 time=0.004166666666666667\n",
      "note_on channel=0 note=60 velocity=127 time=0.034375\n",
      "note_off channel=0 note=60 velocity=127 time=0.019791666666666666\n",
      "note_on channel=0 note=62 velocity=127 time=0.003125\n",
      "note_off channel=0 note=62 velocity=127 time=0.019791666666666666\n",
      "note_on channel=0 note=62 velocity=127 time=0.058333333333333334\n",
      "note_off channel=0 note=62 velocity=127 time=0.019791666666666666\n",
      "note_on channel=0 note=61 velocity=127 time=0.022916666666666665\n",
      "note_off channel=0 note=61 velocity=127 time=0.019791666666666666\n",
      "note_on channel=0 note=60 velocity=127 time=0.011458333333333333\n",
      "note_on channel=0 note=62 velocity=127 time=0.003125\n",
      "note_off channel=0 note=60 velocity=127 time=0.016666666666666666\n",
      "note_off channel=0 note=62 velocity=127 time=0.003125\n",
      "note_on channel=0 note=62 velocity=127 time=0.058333333333333334\n",
      "note_off channel=0 note=62 velocity=127 time=0.019791666666666666\n",
      "note_on channel=0 note=62 velocity=127 time=0.058333333333333334\n",
      "\u001b[91m [DEBUG] > \u001b[0m\n",
      " |>  to_array: msg.time > max_t; t, n\n",
      " |>  3.023958333333335\n",
      " |>  150\n",
      "note_on channel=0 note=61 velocity=127 time=0.059375\n",
      "note_on channel=0 note=62 velocity=127 time=0.005208333333333333\n",
      "note_off channel=0 note=61 velocity=127 time=0.014583333333333334\n",
      "note_off channel=0 note=62 velocity=127 time=0.005208333333333333\n",
      "note_on channel=0 note=60 velocity=127 time=0.00625\n",
      "note_off channel=0 note=60 velocity=127 time=0.019791666666666666\n",
      "note_on channel=0 note=62 velocity=127 time=0.035416666666666666\n",
      "note_off channel=0 note=62 velocity=127 time=0.019791666666666666\n",
      "note_on channel=0 note=61 velocity=127 time=0.03333333333333333\n",
      "note_on channel=0 note=60 velocity=127 time=0.013541666666666667\n",
      "note_off channel=0 note=61 velocity=127 time=0.007291666666666667\n",
      "note_on channel=0 note=62 velocity=127 time=0.009375\n",
      "note_off channel=0 note=60 velocity=127 time=0.004166666666666667\n",
      "note_off channel=0 note=62 velocity=127 time=0.015625\n",
      "note_on channel=0 note=62 velocity=127 time=0.06145833333333333\n",
      "note_off channel=0 note=62 velocity=127 time=0.019791666666666666\n",
      "note_on channel=0 note=60 velocity=127 time=0.004166666666666667\n",
      "note_on channel=0 note=61 velocity=127 time=0.005208333333333333\n",
      "note_off channel=0 note=60 velocity=127 time=0.014583333333333334\n",
      "note_off channel=0 note=61 velocity=127 time=0.005208333333333333\n",
      "note_on channel=0 note=62 velocity=127 time=0.03229166666666666\n",
      "note_off channel=0 note=62 velocity=127 time=0.019791666666666666\n",
      "note_on channel=0 note=60 velocity=127 time=0.04479166666666667\n",
      "note_on channel=0 note=62 velocity=127 time=0.017708333333333333\n",
      "note_off channel=0 note=60 velocity=127 time=0.003125\n",
      "note_on channel=0 note=61 velocity=127 time=0.004166666666666667\n",
      "note_off channel=0 note=62 velocity=127 time=0.013541666666666667\n",
      "note_off channel=0 note=61 velocity=127 time=0.00625\n",
      "note_on channel=0 note=62 velocity=127 time=0.05520833333333333\n",
      "note_off channel=0 note=62 velocity=127 time=0.019791666666666666\n",
      "note_on channel=0 note=60 velocity=127 time=0.003125\n",
      "note_off channel=0 note=60 velocity=127 time=0.019791666666666666\n",
      "note_on channel=0 note=61 velocity=127 time=0.022916666666666665\n",
      "note_on channel=0 note=62 velocity=127 time=0.016666666666666666\n",
      "note_off channel=0 note=61 velocity=127 time=0.003125\n",
      "note_off channel=0 note=62 velocity=127 time=0.016666666666666666\n",
      "note_on channel=0 note=60 velocity=127 time=0.042708333333333334\n",
      "note_on channel=0 note=62 velocity=127 time=0.01875\n",
      "note_off channel=0 note=60 velocity=127 time=0.0010416666666666667\n",
      "note_off channel=0 note=62 velocity=127 time=0.01875\n",
      "note_on channel=0 note=61 velocity=127 time=0.022916666666666665\n",
      "note_off channel=0 note=61 velocity=127 time=0.019791666666666666\n",
      "note_on channel=0 note=62 velocity=127 time=0.019791666666666666\n",
      "note_off channel=0 note=62 velocity=127 time=0.019791666666666666\n",
      "note_on channel=0 note=60 velocity=127 time=0.0010416666666666667\n",
      "note_off channel=0 note=60 velocity=127 time=0.019791666666666666\n",
      "note_on channel=0 note=62 velocity=127 time=0.040625\n",
      "note_on channel=0 note=61 velocity=127 time=0.01875\n",
      "note_off channel=0 note=62 velocity=127 time=0.0010416666666666667\n",
      "note_off channel=0 note=61 velocity=127 time=0.01875\n",
      "note_on channel=0 note=60 velocity=127 time=0.021875\n",
      "note_off channel=0 note=60 velocity=127 time=0.019791666666666666\n",
      "note_on channel=0 note=62 velocity=127 time=0.0010416666666666667\n",
      "note_off channel=0 note=62 velocity=127 time=0.019791666666666666\n",
      "note_on channel=0 note=61 velocity=127 time=0.058333333333333334\n",
      "note_on channel=0 note=62 velocity=127 time=0.004166666666666667\n",
      "note_off channel=0 note=61 velocity=127 time=0.015625\n",
      "note_on channel=0 note=60 velocity=127 time=0.003125\n",
      "note_off channel=0 note=62 velocity=127 time=0\n",
      "note_off channel=0 note=60 velocity=127 time=0.019791666666666666\n",
      "note_on channel=0 note=62 velocity=127 time=0.042708333333333334\n",
      "note_off channel=0 note=62 velocity=127 time=0.019791666666666666\n",
      "note_on channel=0 note=61 velocity=127 time=0.034375\n",
      "note_on channel=0 note=60 velocity=127 time=0.005208333333333333\n",
      "note_off channel=0 note=61 velocity=127 time=0.014583333333333334\n",
      "note_off channel=0 note=60 velocity=127 time=0.005208333333333333\n",
      "note_on channel=0 note=62 velocity=127 time=0.0020833333333333333\n",
      "note_off channel=0 note=62 velocity=127 time=0.019791666666666666\n",
      "note_on channel=0 note=62 velocity=127 time=0.06145833333333333\n",
      "note_on channel=0 note=60 velocity=127 time=0.017708333333333333\n",
      "note_off channel=0 note=62 velocity=127 time=0.0020833333333333333\n",
      "note_on channel=0 note=61 velocity=127 time=0.011458333333333333\n",
      "note_off channel=0 note=60 velocity=127 time=0.00625\n",
      "note_off channel=0 note=61 velocity=127 time=0.013541666666666667\n",
      "note_on channel=0 note=62 velocity=127 time=0.030208333333333334\n",
      "note_off channel=0 note=62 velocity=127 time=0.019791666666666666\n",
      "note_on channel=0 note=60 velocity=127 time=0.03854166666666667\n",
      "note_off channel=0 note=60 velocity=127 time=0.019791666666666666\n",
      "note_on channel=0 note=62 velocity=127 time=0.004166666666666667\n",
      "note_on channel=0 note=61 velocity=127 time=0.008333333333333333\n",
      "note_off channel=0 note=62 velocity=127 time=0.011458333333333333\n",
      "note_off channel=0 note=61 velocity=127 time=0.008333333333333333\n",
      "note_on channel=0 note=62 velocity=127 time=0.053125\n",
      "note_on channel=0 note=60 velocity=127 time=0.016666666666666666\n",
      "note_off channel=0 note=62 velocity=127 time=0.003125\n",
      "note_off channel=0 note=60 velocity=127 time=0.016666666666666666\n",
      "note_on channel=0 note=61 velocity=127 time=0.03125\n",
      "note_on channel=0 note=62 velocity=127 time=0.014583333333333334\n",
      "note_off channel=0 note=61 velocity=127 time=0.005208333333333333\n",
      "note_off channel=0 note=62 velocity=127 time=0.014583333333333334\n",
      "note_on channel=0 note=60 velocity=127 time=0.036458333333333336\n",
      "note_off channel=0 note=60 velocity=127 time=0.019791666666666666\n",
      "note_on channel=0 note=62 velocity=127 time=0.005208333333333333\n",
      "note_off channel=0 note=62 velocity=127 time=0.019791666666666666\n",
      "note_on channel=0 note=61 velocity=127 time=0.02395833333333333\n",
      "note_off channel=0 note=61 velocity=127 time=0.019791666666666666\n",
      "note_on channel=0 note=62 velocity=127 time=0.017708333333333333\n",
      "note_on channel=0 note=60 velocity=127 time=0.014583333333333334\n",
      "note_off channel=0 note=62 velocity=127 time=0.005208333333333333\n",
      "note_off channel=0 note=60 velocity=127 time=0.014583333333333334\n",
      "note_on channel=0 note=62 velocity=127 time=0.046875\n",
      "note_off channel=0 note=62 velocity=127 time=0.019791666666666666\n",
      "note_on channel=0 note=61 velocity=127 time=0.0010416666666666667\n",
      "note_off channel=0 note=61 velocity=127 time=0.019791666666666666\n",
      "note_on channel=0 note=60 velocity=127 time=0.013541666666666667\n",
      "note_off channel=0 note=60 velocity=127 time=0.019791666666666666\n",
      "note_on channel=0 note=62 velocity=127 time=0.007291666666666667\n",
      "note_off channel=0 note=62 velocity=127 time=0.019791666666666666\n",
      "note_on channel=0 note=61 velocity=127 time=0.059375\n",
      "note_on channel=0 note=62 velocity=127 time=0.0020833333333333333\n",
      "note_on channel=0 note=60 velocity=127 time=0.013541666666666667\n",
      "note_off channel=0 note=61 velocity=127 time=0.005208333333333333\n",
      "note_off channel=0 note=62 velocity=127 time=0.0020833333333333333\n",
      "note_off channel=0 note=60 velocity=127 time=0.013541666666666667\n",
      "note_on channel=0 note=62 velocity=127 time=0.04895833333333333\n",
      "note_off channel=0 note=62 velocity=127 time=0.019791666666666666\n",
      "note_on channel=0 note=60 velocity=127 time=0.03333333333333333\n",
      "note_on channel=0 note=61 velocity=127 time=0.003125\n",
      "note_off channel=0 note=60 velocity=127 time=0.016666666666666666\n",
      "note_off channel=0 note=61 velocity=127 time=0.003125\n",
      "note_on channel=0 note=62 velocity=127 time=0.005208333333333333\n",
      "note_off channel=0 note=62 velocity=127 time=0.019791666666666666\n",
      "note_on channel=0 note=62 velocity=127 time=0.06145833333333333\n",
      "note_on channel=0 note=60 velocity=127 time=0.011458333333333333\n",
      "note_off channel=0 note=62 velocity=127 time=0.008333333333333333\n",
      "note_off channel=0 note=60 velocity=127 time=0.011458333333333333\n",
      "note_on channel=0 note=61 velocity=127 time=0.0020833333333333333\n",
      "note_off channel=0 note=61 velocity=127 time=0.019791666666666666\n",
      "note_on channel=0 note=62 velocity=127 time=0.028125\n",
      "note_off channel=0 note=62 velocity=127 time=0.019791666666666666\n",
      "note_on channel=0 note=60 velocity=127 time=0.03125\n",
      "note_off channel=0 note=60 velocity=127 time=0.019791666666666666\n",
      "note_on channel=0 note=62 velocity=127 time=0.010416666666666666\n",
      "note_on channel=0 note=61 velocity=127 time=0.010416666666666666\n",
      "note_off channel=0 note=62 velocity=127 time=0.009375\n",
      "note_off channel=0 note=61 velocity=127 time=0.010416666666666666\n",
      "note_on channel=0 note=62 velocity=127 time=0.052083333333333336\n",
      "note_on channel=0 note=60 velocity=127 time=0.009375\n",
      "note_off channel=0 note=62 velocity=127 time=0.010416666666666666\n",
      "note_off channel=0 note=60 velocity=127 time=0.009375\n",
      "note_on channel=0 note=61 velocity=127 time=0.03958333333333333\n",
      "note_on channel=0 note=62 velocity=127 time=0.0125\n",
      "note_off channel=0 note=61 velocity=127 time=0.007291666666666667\n",
      "note_off channel=0 note=62 velocity=127 time=0.0125\n",
      "note_on channel=0 note=60 velocity=127 time=0.030208333333333334\n",
      "note_off channel=0 note=60 velocity=127 time=0.019791666666666666\n",
      "note_on channel=0 note=62 velocity=127 time=0.011458333333333333\n",
      "note_off channel=0 note=62 velocity=127 time=0.019791666666666666\n",
      "note_on channel=0 note=61 velocity=127 time=0.026041666666666668\n",
      "note_off channel=0 note=61 velocity=127 time=0.019791666666666666\n",
      "note_on channel=0 note=62 velocity=127 time=0.015625\n",
      "note_on channel=0 note=60 velocity=127 time=0.008333333333333333\n",
      "note_off channel=0 note=62 velocity=127 time=0.011458333333333333\n",
      "note_off channel=0 note=60 velocity=127 time=0.008333333333333333\n",
      "note_on channel=0 note=62 velocity=127 time=0.05416666666666667\n",
      "note_off channel=0 note=62 velocity=127 time=0.019791666666666666\n",
      "note_on channel=0 note=61 velocity=127 time=0.003125\n",
      "note_off channel=0 note=61 velocity=127 time=0.019791666666666666\n",
      "note_on channel=0 note=60 velocity=127 time=0.005208333333333333\n",
      "note_off channel=0 note=60 velocity=127 time=0.019791666666666666\n",
      "note_on channel=0 note=62 velocity=127 time=0.013541666666666667\n",
      "note_off channel=0 note=62 velocity=127 time=0.019791666666666666\n",
      "note_on channel=0 note=61 velocity=127 time=0.06145833333333333\n",
      "\u001b[91m [DEBUG] > \u001b[0m\n",
      " |>  to_array: msg.time > max_t; t, n\n",
      " |>  3.0031250000000016\n",
      " |>  150\n",
      "note_on channel=0 note=61 velocity=127 time=0.03333333333333333\n",
      "note_off channel=0 note=61 velocity=127 time=0.019791666666666666\n",
      "note_on channel=0 note=62 velocity=127 time=0.017708333333333333\n",
      "note_off channel=0 note=62 velocity=127 time=0.019791666666666666\n",
      "note_on channel=0 note=61 velocity=127 time=0.009375\n",
      "note_off channel=0 note=61 velocity=127 time=0.019791666666666666\n",
      "note_on channel=0 note=61 velocity=127 time=0.046875\n",
      "note_off channel=0 note=61 velocity=127 time=0.019791666666666666\n",
      "note_on channel=0 note=62 velocity=127 time=0.0020833333333333333\n",
      "note_off channel=0 note=62 velocity=127 time=0.019791666666666666\n",
      "note_on channel=0 note=60 velocity=127 time=0\n",
      "note_off channel=0 note=60 velocity=127 time=0.019791666666666666\n",
      "note_on channel=0 note=61 velocity=127 time=0.004166666666666667\n",
      "note_off channel=0 note=61 velocity=127 time=0.019791666666666666\n",
      "note_on channel=0 note=61 velocity=127 time=0.046875\n",
      "note_on channel=0 note=62 velocity=127 time=0.007291666666666667\n",
      "note_off channel=0 note=61 velocity=127 time=0.0125\n",
      "note_off channel=0 note=62 velocity=127 time=0.007291666666666667\n",
      "note_on channel=0 note=61 velocity=127 time=0.03958333333333333\n",
      "note_off channel=0 note=61 velocity=127 time=0.019791666666666666\n",
      "note_on channel=0 note=62 velocity=127 time=0.03958333333333333\n",
      "note_on channel=0 note=61 velocity=127 time=0.008333333333333333\n",
      "note_off channel=0 note=62 velocity=127 time=0.011458333333333333\n",
      "note_off channel=0 note=61 velocity=127 time=0.008333333333333333\n",
      "note_on channel=0 note=60 velocity=127 time=0.005208333333333333\n",
      "note_off channel=0 note=60 velocity=127 time=0.019791666666666666\n",
      "note_on channel=0 note=61 velocity=127 time=0.021875\n",
      "note_off channel=0 note=61 velocity=127 time=0.019791666666666666\n",
      "note_on channel=0 note=62 velocity=127 time=0.02395833333333333\n",
      "note_off channel=0 note=62 velocity=127 time=0.019791666666666666\n",
      "note_on channel=0 note=61 velocity=127 time=0.003125\n",
      "note_off channel=0 note=61 velocity=127 time=0.019791666666666666\n",
      "note_on channel=0 note=61 velocity=127 time=0.046875\n",
      "note_off channel=0 note=61 velocity=127 time=0.019791666666666666\n",
      "note_on channel=0 note=62 velocity=127 time=0.008333333333333333\n",
      "note_off channel=0 note=62 velocity=127 time=0.019791666666666666\n",
      "note_on channel=0 note=61 velocity=127 time=0.01875\n",
      "note_on channel=0 note=60 velocity=127 time=0.008333333333333333\n",
      "note_off channel=0 note=61 velocity=127 time=0.0125\n",
      "note_off channel=0 note=60 velocity=127 time=0.008333333333333333\n",
      "note_on channel=0 note=61 velocity=127 time=0.03958333333333333\n",
      "note_on channel=0 note=62 velocity=127 time=0.013541666666666667\n",
      "note_off channel=0 note=61 velocity=127 time=0.00625\n",
      "note_off channel=0 note=62 velocity=127 time=0.013541666666666667\n",
      "note_on channel=0 note=61 velocity=127 time=0.03333333333333333\n",
      "note_off channel=0 note=61 velocity=127 time=0.019791666666666666\n",
      "note_on channel=0 note=62 velocity=127 time=0.04583333333333333\n",
      "note_on channel=0 note=61 velocity=127 time=0.0010416666666666667\n",
      "note_off channel=0 note=62 velocity=127 time=0.01875\n",
      "note_off channel=0 note=61 velocity=127 time=0.0010416666666666667\n",
      "note_on channel=0 note=60 velocity=127 time=0.0375\n",
      "note_on channel=0 note=61 velocity=127 time=0.009375\n",
      "note_off channel=0 note=60 velocity=127 time=0.010416666666666666\n",
      "note_off channel=0 note=61 velocity=127 time=0.009375\n",
      "note_on channel=0 note=62 velocity=127 time=0.030208333333333334\n",
      "note_on channel=0 note=61 velocity=127 time=0.016666666666666666\n",
      "note_off channel=0 note=62 velocity=127 time=0.003125\n",
      "note_off channel=0 note=61 velocity=127 time=0.016666666666666666\n",
      "note_on channel=0 note=61 velocity=127 time=0.046875\n",
      "note_off channel=0 note=61 velocity=127 time=0.019791666666666666\n",
      "note_on channel=0 note=62 velocity=127 time=0.015625\n",
      "note_off channel=0 note=62 velocity=127 time=0.019791666666666666\n",
      "note_on channel=0 note=61 velocity=127 time=0.011458333333333333\n",
      "note_off channel=0 note=61 velocity=127 time=0.019791666666666666\n",
      "note_on channel=0 note=60 velocity=127 time=0.020833333333333332\n",
      "note_off channel=0 note=60 velocity=127 time=0.019791666666666666\n",
      "note_on channel=0 note=61 velocity=127 time=0.007291666666666667\n",
      "note_off channel=0 note=61 velocity=127 time=0.019791666666666666\n",
      "note_on channel=0 note=62 velocity=127 time=0\n",
      "note_off channel=0 note=62 velocity=127 time=0.019791666666666666\n",
      "note_on channel=0 note=61 velocity=127 time=0.027083333333333334\n",
      "note_off channel=0 note=61 velocity=127 time=0.019791666666666666\n",
      "note_on channel=0 note=61 velocity=127 time=0.046875\n",
      "note_on channel=0 note=62 velocity=127 time=0.005208333333333333\n",
      "note_off channel=0 note=61 velocity=127 time=0.014583333333333334\n",
      "note_off channel=0 note=62 velocity=127 time=0.005208333333333333\n",
      "note_on channel=0 note=61 velocity=127 time=0.041666666666666664\n",
      "note_off channel=0 note=61 velocity=127 time=0.019791666666666666\n",
      "note_on channel=0 note=60 velocity=127 time=0.003125\n",
      "note_off channel=0 note=60 velocity=127 time=0.019791666666666666\n",
      "note_on channel=0 note=62 velocity=127 time=0.014583333333333334\n",
      "note_on channel=0 note=61 velocity=127 time=0.010416666666666666\n",
      "note_off channel=0 note=62 velocity=127 time=0.010416666666666666\n",
      "note_off channel=0 note=61 velocity=127 time=0.010416666666666666\n",
      "note_on channel=0 note=61 velocity=127 time=0.046875\n",
      "note_off channel=0 note=61 velocity=127 time=0.019791666666666666\n",
      "note_on channel=0 note=62 velocity=127 time=0.021875\n",
      "note_off channel=0 note=62 velocity=127 time=0.019791666666666666\n",
      "note_on channel=0 note=61 velocity=127 time=0.005208333333333333\n",
      "note_off channel=0 note=61 velocity=127 time=0.019791666666666666\n",
      "note_on channel=0 note=61 velocity=127 time=0.046875\n",
      "note_on channel=0 note=60 velocity=127 time=0.005208333333333333\n",
      "note_off channel=0 note=61 velocity=127 time=0.014583333333333334\n",
      "note_off channel=0 note=60 velocity=127 time=0.005208333333333333\n",
      "note_on channel=0 note=62 velocity=127 time=0.0010416666666666667\n",
      "note_off channel=0 note=62 velocity=127 time=0.019791666666666666\n",
      "note_on channel=0 note=61 velocity=127 time=0.019791666666666666\n",
      "note_off channel=0 note=61 velocity=127 time=0.019791666666666666\n",
      "note_on channel=0 note=61 velocity=127 time=0.046875\n",
      "note_on channel=0 note=62 velocity=127 time=0.011458333333333333\n",
      "note_off channel=0 note=61 velocity=127 time=0.008333333333333333\n",
      "note_off channel=0 note=62 velocity=127 time=0.011458333333333333\n",
      "note_on channel=0 note=61 velocity=127 time=0.035416666666666666\n",
      "note_off channel=0 note=61 velocity=127 time=0.019791666666666666\n",
      "note_on channel=0 note=60 velocity=127 time=0.035416666666666666\n",
      "note_on channel=0 note=62 velocity=127 time=0.008333333333333333\n",
      "note_on channel=0 note=61 velocity=127 time=0.003125\n",
      "note_off channel=0 note=60 velocity=127 time=0.008333333333333333\n",
      "note_off channel=0 note=62 velocity=127 time=0.008333333333333333\n",
      "note_off channel=0 note=61 velocity=127 time=0.003125\n",
      "note_on channel=0 note=61 velocity=127 time=0.046875\n",
      "note_off channel=0 note=61 velocity=127 time=0.019791666666666666\n",
      "note_on channel=0 note=62 velocity=127 time=0.028125\n",
      "note_on channel=0 note=61 velocity=127 time=0.01875\n",
      "note_off channel=0 note=62 velocity=127 time=0.0010416666666666667\n",
      "note_off channel=0 note=61 velocity=127 time=0.01875\n",
      "note_on channel=0 note=61 velocity=127 time=0.046875\n",
      "note_off channel=0 note=61 velocity=127 time=0.019791666666666666\n",
      "note_on channel=0 note=62 velocity=127 time=0.013541666666666667\n",
      "note_on channel=0 note=60 velocity=127 time=0.004166666666666667\n",
      "note_off channel=0 note=62 velocity=127 time=0.015625\n",
      "note_off channel=0 note=60 velocity=127 time=0.004166666666666667\n",
      "note_on channel=0 note=61 velocity=127 time=0.009375\n",
      "note_off channel=0 note=61 velocity=127 time=0.019791666666666666\n",
      "note_on channel=0 note=61 velocity=127 time=0.046875\n",
      "note_on channel=0 note=62 velocity=127 time=0.01875\n",
      "note_off channel=0 note=61 velocity=127 time=0.0020833333333333333\n",
      "note_off channel=0 note=62 velocity=127 time=0.01875\n",
      "note_on channel=0 note=61 velocity=127 time=0.029166666666666667\n",
      "note_off channel=0 note=61 velocity=127 time=0.019791666666666666\n",
      "note_on channel=0 note=61 velocity=127 time=0.046875\n",
      "note_on channel=0 note=62 velocity=127 time=0.003125\n",
      "note_off channel=0 note=61 velocity=127 time=0.016666666666666666\n",
      "note_on channel=0 note=60 velocity=127 time=0\n",
      "note_off channel=0 note=62 velocity=127 time=0.003125\n",
      "note_off channel=0 note=60 velocity=127 time=0.017708333333333333\n",
      "note_on channel=0 note=61 velocity=127 time=0.027083333333333334\n",
      "note_off channel=0 note=61 velocity=127 time=0.019791666666666666\n",
      "note_on channel=0 note=62 velocity=127 time=0.035416666666666666\n",
      "note_on channel=0 note=61 velocity=127 time=0.011458333333333333\n",
      "note_off channel=0 note=62 velocity=127 time=0.008333333333333333\n",
      "note_off channel=0 note=61 velocity=127 time=0.011458333333333333\n",
      "note_on channel=0 note=61 velocity=127 time=0.046875\n",
      "note_off channel=0 note=61 velocity=127 time=0.019791666666666666\n",
      "note_on channel=0 note=62 velocity=127 time=0.019791666666666666\n",
      "note_off channel=0 note=62 velocity=127 time=0.019791666666666666\n",
      "note_on channel=0 note=61 velocity=127 time=0.007291666666666667\n",
      "note_on channel=0 note=60 velocity=127 time=0.003125\n",
      "note_off channel=0 note=61 velocity=127 time=0.016666666666666666\n",
      "note_off channel=0 note=60 velocity=127 time=0.003125\n",
      "note_on channel=0 note=61 velocity=127 time=0.04375\n",
      "note_off channel=0 note=61 velocity=127 time=0.019791666666666666\n",
      "note_on channel=0 note=62 velocity=127 time=0.005208333333333333\n",
      "note_off channel=0 note=62 velocity=127 time=0.019791666666666666\n",
      "note_on channel=0 note=61 velocity=127 time=0.021875\n",
      "note_off channel=0 note=61 velocity=127 time=0.019791666666666666\n",
      "note_on channel=0 note=61 velocity=127 time=0.046875\n",
      "note_on channel=0 note=62 velocity=127 time=0.009375\n",
      "note_off channel=0 note=61 velocity=127 time=0.010416666666666666\n",
      "note_off channel=0 note=62 velocity=127 time=0.009375\n",
      "note_on channel=0 note=60 velocity=127 time=0.022916666666666665\n",
      "note_on channel=0 note=61 velocity=127 time=0.014583333333333334\n",
      "note_off channel=0 note=60 velocity=127 time=0.00625\n",
      "note_off channel=0 note=61 velocity=127 time=0.014583333333333334\n",
      "\u001b[91m [DEBUG] > \u001b[0m\n",
      " |>  to_array: msg.time > max_t; t, n\n",
      " |>  2.9947916666666674\n",
      " |>  150\n",
      "note_on channel=0 note=62 velocity=127 time=0.05625\n",
      "note_on channel=0 note=60 velocity=127 time=0.010416666666666666\n",
      "note_off channel=0 note=62 velocity=127 time=0.010416666666666666\n",
      "note_off channel=0 note=60 velocity=127 time=0.010416666666666666\n",
      "note_on channel=0 note=61 velocity=127 time=0.00625\n",
      "note_off channel=0 note=61 velocity=127 time=0.019791666666666666\n",
      "note_on channel=0 note=62 velocity=127 time=0.010416666666666666\n",
      "note_off channel=0 note=62 velocity=127 time=0.019791666666666666\n",
      "note_on channel=0 note=60 velocity=127 time=0.03854166666666667\n",
      "note_on channel=0 note=62 velocity=127 time=0.008333333333333333\n",
      "note_on channel=0 note=61 velocity=127 time=0.00625\n",
      "note_off channel=0 note=60 velocity=127 time=0.005208333333333333\n",
      "note_off channel=0 note=62 velocity=127 time=0.008333333333333333\n",
      "note_off channel=0 note=61 velocity=127 time=0.00625\n",
      "note_on channel=0 note=62 velocity=127 time=0.040625\n",
      "note_off channel=0 note=62 velocity=127 time=0.019791666666666666\n",
      "note_on channel=0 note=60 velocity=127 time=0.019791666666666666\n",
      "note_on channel=0 note=61 velocity=127 time=0.0020833333333333333\n",
      "note_off channel=0 note=60 velocity=127 time=0.017708333333333333\n",
      "note_off channel=0 note=61 velocity=127 time=0.0020833333333333333\n",
      "note_on channel=0 note=62 velocity=127 time=0.004166666666666667\n",
      "note_off channel=0 note=62 velocity=127 time=0.019791666666666666\n",
      "note_on channel=0 note=62 velocity=127 time=0.046875\n",
      "note_on channel=0 note=61 velocity=127 time=0.011458333333333333\n",
      "note_off channel=0 note=62 velocity=127 time=0.008333333333333333\n",
      "note_on channel=0 note=60 velocity=127 time=0.0010416666666666667\n",
      "note_off channel=0 note=61 velocity=127 time=0.010416666666666666\n",
      "note_off channel=0 note=60 velocity=127 time=0.010416666666666666\n",
      "note_on channel=0 note=62 velocity=127 time=0.025\n",
      "note_off channel=0 note=62 velocity=127 time=0.019791666666666666\n",
      "note_on channel=0 note=61 velocity=127 time=0.028125\n",
      "note_on channel=0 note=62 velocity=127 time=0.01875\n",
      "note_off channel=0 note=61 velocity=127 time=0.0010416666666666667\n",
      "note_on channel=0 note=60 velocity=127 time=0.0020833333333333333\n",
      "note_off channel=0 note=62 velocity=127 time=0.016666666666666666\n",
      "note_off channel=0 note=60 velocity=127 time=0.003125\n",
      "note_on channel=0 note=62 velocity=127 time=0.04375\n",
      "note_on channel=0 note=61 velocity=127 time=0.016666666666666666\n",
      "note_off channel=0 note=62 velocity=127 time=0.003125\n",
      "note_off channel=0 note=61 velocity=127 time=0.016666666666666666\n",
      "note_on channel=0 note=60 velocity=127 time=0.014583333333333334\n",
      "note_on channel=0 note=62 velocity=127 time=0.015625\n",
      "note_off channel=0 note=60 velocity=127 time=0.005208333333333333\n",
      "note_off channel=0 note=62 velocity=127 time=0.015625\n",
      "note_on channel=0 note=61 velocity=127 time=0.03333333333333333\n",
      "note_on channel=0 note=62 velocity=127 time=0.013541666666666667\n",
      "note_off channel=0 note=61 velocity=127 time=0.00625\n",
      "note_off channel=0 note=62 velocity=127 time=0.013541666666666667\n",
      "note_on channel=0 note=60 velocity=127 time=0.013541666666666667\n",
      "note_off channel=0 note=60 velocity=127 time=0.019791666666666666\n",
      "note_on channel=0 note=62 velocity=127 time=0.013541666666666667\n",
      "note_off channel=0 note=62 velocity=127 time=0.019791666666666666\n",
      "note_on channel=0 note=61 velocity=127 time=0.003125\n",
      "note_off channel=0 note=61 velocity=127 time=0.019791666666666666\n",
      "note_on channel=0 note=62 velocity=127 time=0.02395833333333333\n",
      "note_on channel=0 note=60 velocity=127 time=0.014583333333333334\n",
      "note_off channel=0 note=62 velocity=127 time=0.005208333333333333\n",
      "note_off channel=0 note=60 velocity=127 time=0.014583333333333334\n",
      "note_on channel=0 note=61 velocity=127 time=0.02395833333333333\n",
      "note_on channel=0 note=62 velocity=127 time=0.008333333333333333\n",
      "note_off channel=0 note=61 velocity=127 time=0.0125\n",
      "note_off channel=0 note=62 velocity=127 time=0.008333333333333333\n",
      "note_on channel=0 note=60 velocity=127 time=0.042708333333333334\n",
      "note_on channel=0 note=62 velocity=127 time=0.004166666666666667\n",
      "note_off channel=0 note=60 velocity=127 time=0.016666666666666666\n",
      "note_off channel=0 note=62 velocity=127 time=0.004166666666666667\n",
      "note_on channel=0 note=61 velocity=127 time=0.008333333333333333\n",
      "note_off channel=0 note=61 velocity=127 time=0.019791666666666666\n",
      "note_on channel=0 note=62 velocity=127 time=0.01875\n",
      "note_off channel=0 note=62 velocity=127 time=0.019791666666666666\n",
      "note_on channel=0 note=60 velocity=127 time=0.025\n",
      "note_on channel=0 note=61 velocity=127 time=0.019791666666666666\n",
      "note_off channel=0 note=60 velocity=127 time=0\n",
      "note_on channel=0 note=62 velocity=127 time=0.0020833333333333333\n",
      "note_off channel=0 note=61 velocity=127 time=0.017708333333333333\n",
      "note_off channel=0 note=62 velocity=127 time=0.0020833333333333333\n",
      "note_on channel=0 note=62 velocity=127 time=0.046875\n",
      "note_off channel=0 note=62 velocity=127 time=0.019791666666666666\n",
      "note_on channel=0 note=60 velocity=127 time=0.00625\n",
      "note_on channel=0 note=61 velocity=127 time=0.007291666666666667\n",
      "note_off channel=0 note=60 velocity=127 time=0.0125\n",
      "note_off channel=0 note=61 velocity=127 time=0.007291666666666667\n",
      "note_on channel=0 note=62 velocity=127 time=0.0125\n",
      "note_off channel=0 note=62 velocity=127 time=0.019791666666666666\n",
      "note_on channel=0 note=62 velocity=127 time=0.046875\n",
      "note_on channel=0 note=61 velocity=127 time=0.003125\n"
     ]
    },
    {
     "name": "stdout",
     "output_type": "stream",
     "text": [
      "note_on channel=0 note=60 velocity=127 time=0.004166666666666667\n",
      "note_off channel=0 note=62 velocity=127 time=0.0125\n",
      "note_off channel=0 note=61 velocity=127 time=0.003125\n",
      "note_off channel=0 note=60 velocity=127 time=0.004166666666666667\n",
      "note_on channel=0 note=62 velocity=127 time=0.03958333333333333\n",
      "note_off channel=0 note=62 velocity=127 time=0.019791666666666666\n",
      "note_on channel=0 note=61 velocity=127 time=0.019791666666666666\n",
      "note_on channel=0 note=60 velocity=127 time=0.016666666666666666\n",
      "note_off channel=0 note=61 velocity=127 time=0.003125\n",
      "note_on channel=0 note=62 velocity=127 time=0.007291666666666667\n",
      "note_off channel=0 note=60 velocity=127 time=0.009375\n",
      "note_off channel=0 note=62 velocity=127 time=0.010416666666666666\n",
      "note_on channel=0 note=62 velocity=127 time=0.046875\n",
      "note_on channel=0 note=61 velocity=127 time=0.008333333333333333\n",
      "note_off channel=0 note=62 velocity=127 time=0.011458333333333333\n",
      "note_off channel=0 note=61 velocity=127 time=0.008333333333333333\n",
      "note_on channel=0 note=60 velocity=127 time=0.008333333333333333\n",
      "note_off channel=0 note=60 velocity=127 time=0.019791666666666666\n",
      "note_on channel=0 note=62 velocity=127 time=0.009375\n",
      "note_off channel=0 note=62 velocity=127 time=0.019791666666666666\n",
      "note_on channel=0 note=61 velocity=127 time=0.025\n",
      "note_off channel=0 note=61 velocity=127 time=0.019791666666666666\n",
      "note_on channel=0 note=62 velocity=127 time=0.0020833333333333333\n",
      "note_on channel=0 note=60 velocity=127 time=0.01875\n",
      "note_off channel=0 note=62 velocity=127 time=0.0010416666666666667\n",
      "note_off channel=0 note=60 velocity=127 time=0.01875\n",
      "note_on channel=0 note=62 velocity=127 time=0.028125\n",
      "note_on channel=0 note=61 velocity=127 time=0.014583333333333334\n",
      "note_off channel=0 note=62 velocity=127 time=0.005208333333333333\n",
      "note_off channel=0 note=61 velocity=127 time=0.014583333333333334\n",
      "note_on channel=0 note=62 velocity=127 time=0.03229166666666666\n",
      "note_on channel=0 note=60 velocity=127 time=0.0010416666666666667\n",
      "note_off channel=0 note=62 velocity=127 time=0.019791666666666666\n",
      "note_off channel=0 note=60 velocity=127 time=0.0010416666666666667\n",
      "note_on channel=0 note=61 velocity=127 time=0.030208333333333334\n",
      "note_on channel=0 note=62 velocity=127 time=0.016666666666666666\n",
      "note_off channel=0 note=61 velocity=127 time=0.004166666666666667\n",
      "note_off channel=0 note=62 velocity=127 time=0.016666666666666666\n",
      "note_on channel=0 note=60 velocity=127 time=0.029166666666666667\n",
      "note_on channel=0 note=62 velocity=127 time=0.017708333333333333\n",
      "note_off channel=0 note=60 velocity=127 time=0.0020833333333333333\n",
      "note_on channel=0 note=61 velocity=127 time=0.017708333333333333\n",
      "note_off channel=0 note=62 velocity=127 time=0\n",
      "note_off channel=0 note=61 velocity=127 time=0.019791666666666666\n",
      "note_on channel=0 note=62 velocity=127 time=0.027083333333333334\n",
      "note_off channel=0 note=62 velocity=127 time=0.019791666666666666\n",
      "note_on channel=0 note=60 velocity=127 time=0.010416666666666666\n",
      "note_off channel=0 note=60 velocity=127 time=0.019791666666666666\n",
      "note_on channel=0 note=61 velocity=127 time=0.005208333333333333\n",
      "note_on channel=0 note=62 velocity=127 time=0.010416666666666666\n",
      "note_off channel=0 note=61 velocity=127 time=0.009375\n",
      "note_off channel=0 note=62 velocity=127 time=0.010416666666666666\n",
      "note_on channel=0 note=62 velocity=127 time=0.046875\n",
      "note_on channel=0 note=60 velocity=127 time=0.0125\n",
      "note_off channel=0 note=62 velocity=127 time=0.008333333333333333\n",
      "note_on channel=0 note=61 velocity=127 time=0.005208333333333333\n",
      "note_off channel=0 note=60 velocity=127 time=0.00625\n",
      "note_off channel=0 note=61 velocity=127 time=0.013541666666666667\n",
      "note_on channel=0 note=62 velocity=127 time=0.020833333333333332\n",
      "note_off channel=0 note=62 velocity=127 time=0.019791666666666666\n",
      "note_on channel=0 note=60 velocity=127 time=0.040625\n",
      "note_on channel=0 note=61 velocity=127 time=0.0010416666666666667\n",
      "note_on channel=0 note=62 velocity=127 time=0.005208333333333333\n",
      "note_off channel=0 note=60 velocity=127 time=0.013541666666666667\n",
      "note_off channel=0 note=61 velocity=127 time=0.0010416666666666667\n",
      "note_off channel=0 note=62 velocity=127 time=0.005208333333333333\n",
      "note_on channel=0 note=62 velocity=127 time=0.046875\n",
      "note_off channel=0 note=62 velocity=127 time=0.019791666666666666\n",
      "note_on channel=0 note=61 velocity=127 time=0.011458333333333333\n",
      "note_on channel=0 note=60 velocity=127 time=0.011458333333333333\n",
      "note_off channel=0 note=61 velocity=127 time=0.009375\n",
      "note_off channel=0 note=60 velocity=127 time=0.011458333333333333\n",
      "note_on channel=0 note=62 velocity=127 time=0.004166666666666667\n",
      "note_off channel=0 note=62 velocity=127 time=0.019791666666666666\n",
      "note_on channel=0 note=62 velocity=127 time=0.046875\n",
      "note_on channel=0 note=61 velocity=127 time=0\n",
      "note_off channel=0 note=62 velocity=127 time=0.019791666666666666\n",
      "note_off channel=0 note=61 velocity=127 time=0\n",
      "note_on channel=0 note=60 velocity=127 time=0.003125\n",
      "note_off channel=0 note=60 velocity=127 time=0.019791666666666666\n",
      "note_on channel=0 note=62 velocity=127 time=0.022916666666666665\n",
      "note_off channel=0 note=62 velocity=127 time=0.019791666666666666\n",
      "note_on channel=0 note=61 velocity=127 time=0.016666666666666666\n",
      "note_off channel=0 note=61 velocity=127 time=0.019791666666666666\n",
      "note_on channel=0 note=62 velocity=127 time=0.010416666666666666\n",
      "note_on channel=0 note=60 velocity=127 time=0.005208333333333333\n",
      "note_off channel=0 note=62 velocity=127 time=0.014583333333333334\n",
      "note_off channel=0 note=60 velocity=127 time=0.005208333333333333\n",
      "note_on channel=0 note=62 velocity=127 time=0.041666666666666664\n",
      "note_on channel=0 note=61 velocity=127 time=0.00625\n",
      "note_off channel=0 note=62 velocity=127 time=0.013541666666666667\n",
      "note_off channel=0 note=61 velocity=127 time=0.00625\n",
      "note_on channel=0 note=60 velocity=127 time=0.027083333333333334\n",
      "note_on channel=0 note=62 velocity=127 time=0.013541666666666667\n",
      "note_off channel=0 note=60 velocity=127 time=0.007291666666666667\n",
      "note_off channel=0 note=62 velocity=127 time=0.013541666666666667\n",
      "note_on channel=0 note=61 velocity=127 time=0.021875\n",
      "note_off channel=0 note=61 velocity=127 time=0.019791666666666666\n",
      "note_on channel=0 note=62 velocity=127 time=0.004166666666666667\n",
      "note_off channel=0 note=62 velocity=127 time=0.019791666666666666\n",
      "note_on channel=0 note=60 velocity=127 time=0.015625\n",
      "note_off channel=0 note=60 velocity=127 time=0.019791666666666666\n",
      "note_on channel=0 note=62 velocity=127 time=0.011458333333333333\n",
      "note_on channel=0 note=61 velocity=127 time=0.011458333333333333\n",
      "note_off channel=0 note=62 velocity=127 time=0.008333333333333333\n",
      "note_off channel=0 note=61 velocity=127 time=0.011458333333333333\n",
      "note_on channel=0 note=62 velocity=127 time=0.035416666666666666\n",
      "note_on channel=0 note=60 velocity=127 time=0.016666666666666666\n",
      "note_off channel=0 note=62 velocity=127 time=0.003125\n",
      "note_off channel=0 note=60 velocity=127 time=0.016666666666666666\n",
      "note_on channel=0 note=61 velocity=127 time=0.011458333333333333\n",
      "note_on channel=0 note=62 velocity=127 time=0.01875\n",
      "\u001b[91m [DEBUG] > \u001b[0m\n",
      " |>  to_array: msg.time > max_t; t, n\n",
      " |>  2.992708333333335\n",
      " |>  150\n",
      "note_on channel=0 note=62 velocity=127 time=0.009375\n",
      "note_on channel=0 note=61 velocity=127 time=0.005208333333333333\n",
      "note_on channel=0 note=60 velocity=127 time=0.013541666666666667\n",
      "note_off channel=0 note=62 velocity=127 time=0.0010416666666666667\n",
      "note_off channel=0 note=61 velocity=127 time=0.005208333333333333\n",
      "note_off channel=0 note=60 velocity=127 time=0.013541666666666667\n",
      "note_on channel=0 note=61 velocity=127 time=0.034375\n",
      "note_on channel=0 note=60 velocity=127 time=0.014583333333333334\n",
      "note_off channel=0 note=61 velocity=127 time=0.005208333333333333\n",
      "note_off channel=0 note=60 velocity=127 time=0.014583333333333334\n",
      "note_on channel=0 note=62 velocity=127 time=0.009375\n",
      "note_off channel=0 note=62 velocity=127 time=0.019791666666666666\n",
      "note_on channel=0 note=61 velocity=127 time=0.004166666666666667\n",
      "note_on channel=0 note=60 velocity=127 time=0.015625\n",
      "note_off channel=0 note=61 velocity=127 time=0.004166666666666667\n",
      "note_off channel=0 note=60 velocity=127 time=0.015625\n",
      "note_on channel=0 note=61 velocity=127 time=0.03229166666666666\n",
      "note_on channel=0 note=60 velocity=127 time=0.016666666666666666\n",
      "note_off channel=0 note=61 velocity=127 time=0.003125\n",
      "note_on channel=0 note=62 velocity=127 time=0.005208333333333333\n",
      "note_off channel=0 note=60 velocity=127 time=0.011458333333333333\n",
      "note_off channel=0 note=62 velocity=127 time=0.008333333333333333\n",
      "note_on channel=0 note=61 velocity=127 time=0.022916666666666665\n",
      "note_on channel=0 note=60 velocity=127 time=0.017708333333333333\n",
      "note_off channel=0 note=61 velocity=127 time=0.003125\n",
      "note_off channel=0 note=60 velocity=127 time=0.017708333333333333\n",
      "note_on channel=0 note=61 velocity=127 time=0.030208333333333334\n",
      "note_on channel=0 note=62 velocity=127 time=0.00625\n",
      "note_on channel=0 note=60 velocity=127 time=0.0125\n",
      "note_off channel=0 note=61 velocity=127 time=0.0020833333333333333\n",
      "note_off channel=0 note=62 velocity=127 time=0.00625\n",
      "note_off channel=0 note=60 velocity=127 time=0.0125\n",
      "note_on channel=0 note=61 velocity=127 time=0.030208333333333334\n",
      "note_on channel=0 note=60 velocity=127 time=0.01875\n",
      "note_off channel=0 note=61 velocity=127 time=0.0010416666666666667\n",
      "note_off channel=0 note=60 velocity=127 time=0.01875\n",
      "note_on channel=0 note=62 velocity=127 time=0.015625\n",
      "note_on channel=0 note=61 velocity=127 time=0.0125\n",
      "note_off channel=0 note=62 velocity=127 time=0.007291666666666667\n",
      "note_on channel=0 note=60 velocity=127 time=0.0125\n",
      "note_off channel=0 note=61 velocity=127 time=0\n",
      "note_off channel=0 note=60 velocity=127 time=0.019791666666666666\n",
      "note_on channel=0 note=61 velocity=127 time=0.028125\n",
      "note_off channel=0 note=61 velocity=127 time=0.019791666666666666\n",
      "note_on channel=0 note=60 velocity=127 time=0.0010416666666666667\n",
      "note_on channel=0 note=62 velocity=127 time=0.015625\n",
      "note_off channel=0 note=60 velocity=127 time=0.004166666666666667\n",
      "note_off channel=0 note=62 velocity=127 time=0.015625\n",
      "note_on channel=0 note=61 velocity=127 time=0.011458333333333333\n",
      "note_off channel=0 note=61 velocity=127 time=0.019791666666666666\n",
      "note_on channel=0 note=60 velocity=127 time=0.0020833333333333333\n",
      "note_off channel=0 note=60 velocity=127 time=0.019791666666666666\n",
      "note_on channel=0 note=61 velocity=127 time=0.026041666666666668\n",
      "note_on channel=0 note=62 velocity=127 time=0.017708333333333333\n",
      "note_off channel=0 note=61 velocity=127 time=0.0020833333333333333\n",
      "note_on channel=0 note=60 velocity=127 time=0.0020833333333333333\n",
      "note_off channel=0 note=62 velocity=127 time=0.014583333333333334\n",
      "note_off channel=0 note=60 velocity=127 time=0.005208333333333333\n",
      "note_on channel=0 note=61 velocity=127 time=0.025\n",
      "note_off channel=0 note=61 velocity=127 time=0.019791666666666666\n",
      "note_on channel=0 note=60 velocity=127 time=0.003125\n",
      "note_off channel=0 note=60 velocity=127 time=0.019791666666666666\n",
      "note_on channel=0 note=62 velocity=127 time=0.022916666666666665\n",
      "note_on channel=0 note=61 velocity=127 time=0.0010416666666666667\n",
      "note_off channel=0 note=62 velocity=127 time=0.01875\n",
      "note_off channel=0 note=61 velocity=127 time=0.0010416666666666667\n",
      "note_on channel=0 note=60 velocity=127 time=0.004166666666666667\n",
      "note_off channel=0 note=60 velocity=127 time=0.019791666666666666\n",
      "note_on channel=0 note=61 velocity=127 time=0.02395833333333333\n",
      "note_off channel=0 note=61 velocity=127 time=0.019791666666666666\n",
      "note_on channel=0 note=60 velocity=127 time=0.005208333333333333\n",
      "note_off channel=0 note=60 velocity=127 time=0.019791666666666666\n",
      "note_on channel=0 note=62 velocity=127 time=0.003125\n",
      "note_off channel=0 note=62 velocity=127 time=0.019791666666666666\n",
      "note_on channel=0 note=61 velocity=127 time=0\n",
      "note_off channel=0 note=61 velocity=127 time=0.019791666666666666\n",
      "note_on channel=0 note=60 velocity=127 time=0.00625\n",
      "note_off channel=0 note=60 velocity=127 time=0.019791666666666666\n",
      "note_on channel=0 note=61 velocity=127 time=0.021875\n",
      "note_off channel=0 note=61 velocity=127 time=0.019791666666666666\n",
      "note_on channel=0 note=60 velocity=127 time=0.007291666666666667\n",
      "note_on channel=0 note=62 velocity=127 time=0.0020833333333333333\n",
      "note_off channel=0 note=60 velocity=127 time=0.017708333333333333\n",
      "note_off channel=0 note=62 velocity=127 time=0.0020833333333333333\n",
      "note_on channel=0 note=61 velocity=127 time=0.01875\n",
      "note_off channel=0 note=61 velocity=127 time=0.019791666666666666\n",
      "note_on channel=0 note=60 velocity=127 time=0.007291666666666667\n",
      "note_off channel=0 note=60 velocity=127 time=0.019791666666666666\n",
      "note_on channel=0 note=61 velocity=127 time=0.019791666666666666\n",
      "note_on channel=0 note=62 velocity=127 time=0.010416666666666666\n",
      "note_off channel=0 note=61 velocity=127 time=0.009375\n",
      "note_on channel=0 note=60 velocity=127 time=0.008333333333333333\n",
      "note_off channel=0 note=62 velocity=127 time=0.0010416666666666667\n",
      "note_off channel=0 note=60 velocity=127 time=0.01875\n",
      "note_on channel=0 note=61 velocity=127 time=0.019791666666666666\n",
      "note_off channel=0 note=61 velocity=127 time=0.019791666666666666\n",
      "note_on channel=0 note=60 velocity=127 time=0.009375\n",
      "note_off channel=0 note=60 velocity=127 time=0.019791666666666666\n",
      "note_on channel=0 note=62 velocity=127 time=0.009375\n",
      "note_on channel=0 note=61 velocity=127 time=0.008333333333333333\n",
      "note_off channel=0 note=62 velocity=127 time=0.011458333333333333\n",
      "note_off channel=0 note=61 velocity=127 time=0.008333333333333333\n",
      "note_on channel=0 note=60 velocity=127 time=0.010416666666666666\n",
      "note_off channel=0 note=60 velocity=127 time=0.019791666666666666\n",
      "note_on channel=0 note=61 velocity=127 time=0.017708333333333333\n",
      "note_off channel=0 note=61 velocity=127 time=0.019791666666666666\n",
      "note_on channel=0 note=60 velocity=127 time=0.011458333333333333\n",
      "note_on channel=0 note=62 velocity=127 time=0.009375\n",
      "note_off channel=0 note=60 velocity=127 time=0.010416666666666666\n",
      "note_off channel=0 note=62 velocity=127 time=0.009375\n",
      "note_on channel=0 note=61 velocity=127 time=0.007291666666666667\n",
      "note_off channel=0 note=61 velocity=127 time=0.019791666666666666\n",
      "note_on channel=0 note=60 velocity=127 time=0.0125\n",
      "note_off channel=0 note=60 velocity=127 time=0.019791666666666666\n",
      "note_on channel=0 note=61 velocity=127 time=0.015625\n",
      "note_off channel=0 note=61 velocity=127 time=0.019791666666666666\n",
      "note_on channel=0 note=62 velocity=127 time=0.0020833333333333333\n",
      "note_on channel=0 note=60 velocity=127 time=0.011458333333333333\n",
      "note_off channel=0 note=62 velocity=127 time=0.008333333333333333\n",
      "note_off channel=0 note=60 velocity=127 time=0.011458333333333333\n",
      "note_on channel=0 note=61 velocity=127 time=0.014583333333333334\n",
      "note_off channel=0 note=61 velocity=127 time=0.019791666666666666\n",
      "note_on channel=0 note=60 velocity=127 time=0.013541666666666667\n",
      "note_off channel=0 note=60 velocity=127 time=0.019791666666666666\n",
      "note_on channel=0 note=61 velocity=127 time=0.014583333333333334\n",
      "note_on channel=0 note=62 velocity=127 time=0.003125\n",
      "note_off channel=0 note=61 velocity=127 time=0.016666666666666666\n",
      "note_off channel=0 note=62 velocity=127 time=0.003125\n",
      "note_on channel=0 note=60 velocity=127 time=0.011458333333333333\n",
      "note_off channel=0 note=60 velocity=127 time=0.019791666666666666\n",
      "note_on channel=0 note=61 velocity=127 time=0.013541666666666667\n",
      "note_off channel=0 note=61 velocity=127 time=0.019791666666666666\n",
      "note_on channel=0 note=60 velocity=127 time=0.015625\n",
      "note_on channel=0 note=62 velocity=127 time=0.016666666666666666\n",
      "note_off channel=0 note=60 velocity=127 time=0.003125\n",
      "note_on channel=0 note=61 velocity=127 time=0.0125\n",
      "note_off channel=0 note=62 velocity=127 time=0.004166666666666667\n",
      "note_off channel=0 note=61 velocity=127 time=0.015625\n",
      "note_on channel=0 note=60 velocity=127 time=0.016666666666666666\n",
      "note_off channel=0 note=60 velocity=127 time=0.019791666666666666\n",
      "note_on channel=0 note=61 velocity=127 time=0.011458333333333333\n",
      "note_off channel=0 note=61 velocity=127 time=0.019791666666666666\n",
      "note_on channel=0 note=62 velocity=127 time=0.013541666666666667\n",
      "note_on channel=0 note=60 velocity=127 time=0.004166666666666667\n",
      "note_off channel=0 note=62 velocity=127 time=0.015625\n",
      "note_off channel=0 note=60 velocity=127 time=0.004166666666666667\n",
      "note_on channel=0 note=61 velocity=127 time=0.010416666666666666\n",
      "note_off channel=0 note=61 velocity=127 time=0.019791666666666666\n",
      "note_on channel=0 note=60 velocity=127 time=0.01875\n",
      "note_off channel=0 note=60 velocity=127 time=0.019791666666666666\n",
      "note_on channel=0 note=61 velocity=127 time=0.009375\n",
      "note_on channel=0 note=62 velocity=127 time=0.014583333333333334\n",
      "note_off channel=0 note=61 velocity=127 time=0.005208333333333333\n",
      "note_off channel=0 note=62 velocity=127 time=0.014583333333333334\n",
      "note_on channel=0 note=60 velocity=127 time=0.005208333333333333\n",
      "note_off channel=0 note=60 velocity=127 time=0.019791666666666666\n",
      "note_on channel=0 note=61 velocity=127 time=0.008333333333333333\n",
      "note_off channel=0 note=61 velocity=127 time=0.019791666666666666\n",
      "note_on channel=0 note=60 velocity=127 time=0.019791666666666666\n",
      "note_off channel=0 note=60 velocity=127 time=0.019791666666666666\n",
      "note_on channel=0 note=62 velocity=127 time=0.003125\n",
      "note_on channel=0 note=61 velocity=127 time=0.004166666666666667\n",
      "note_off channel=0 note=62 velocity=127 time=0.015625\n",
      "note_off channel=0 note=61 velocity=127 time=0.004166666666666667\n",
      "note_on channel=0 note=60 velocity=127 time=0.020833333333333332\n",
      "note_off channel=0 note=60 velocity=127 time=0.019791666666666666\n",
      "note_on channel=0 note=61 velocity=127 time=0.007291666666666667\n",
      "note_off channel=0 note=61 velocity=127 time=0.019791666666666666\n",
      "note_on channel=0 note=60 velocity=127 time=0.021875\n",
      "note_on channel=0 note=62 velocity=127 time=0.003125\n",
      "note_off channel=0 note=60 velocity=127 time=0.016666666666666666\n",
      "note_off channel=0 note=62 velocity=127 time=0.003125\n",
      "note_on channel=0 note=61 velocity=127 time=0.003125\n",
      "note_off channel=0 note=61 velocity=127 time=0.019791666666666666\n",
      "note_on channel=0 note=60 velocity=127 time=0.022916666666666665\n",
      "note_off channel=0 note=60 velocity=127 time=0.019791666666666666\n",
      "note_on channel=0 note=61 velocity=127 time=0.005208333333333333\n",
      "note_off channel=0 note=61 velocity=127 time=0.019791666666666666\n",
      "note_on channel=0 note=62 velocity=127 time=0.00625\n",
      "note_on channel=0 note=60 velocity=127 time=0.017708333333333333\n",
      "note_off channel=0 note=62 velocity=127 time=0.0020833333333333333\n",
      "note_off channel=0 note=60 velocity=127 time=0.017708333333333333\n",
      "note_on channel=0 note=61 velocity=127 time=0.004166666666666667\n",
      "note_off channel=0 note=61 velocity=127 time=0.019791666666666666\n",
      "note_on channel=0 note=60 velocity=127 time=0.02395833333333333\n",
      "note_off channel=0 note=60 velocity=127 time=0.019791666666666666\n",
      "note_on channel=0 note=61 velocity=127 time=0.003125\n",
      "note_on channel=0 note=62 velocity=127 time=0.007291666666666667\n",
      "note_off channel=0 note=61 velocity=127 time=0.0125\n",
      "note_off channel=0 note=62 velocity=127 time=0.007291666666666667\n",
      "note_on channel=0 note=60 velocity=127 time=0.017708333333333333\n",
      "note_off channel=0 note=60 velocity=127 time=0.019791666666666666\n",
      "note_on channel=0 note=61 velocity=127 time=0.003125\n",
      "note_off channel=0 note=61 velocity=127 time=0.019791666666666666\n",
      "note_on channel=0 note=60 velocity=127 time=0.026041666666666668\n",
      "note_on channel=0 note=62 velocity=127 time=0.010416666666666666\n",
      "note_off channel=0 note=60 velocity=127 time=0.009375\n",
      "note_on channel=0 note=61 velocity=127 time=0.0020833333333333333\n",
      "note_off channel=0 note=62 velocity=127 time=0.008333333333333333\n",
      "note_off channel=0 note=61 velocity=127 time=0.011458333333333333\n",
      "note_on channel=0 note=60 velocity=127 time=0.027083333333333334\n",
      "note_off channel=0 note=60 velocity=127 time=0.019791666666666666\n",
      "note_on channel=0 note=61 velocity=127 time=0.0010416666666666667\n",
      "note_off channel=0 note=61 velocity=127 time=0.019791666666666666\n",
      "note_on channel=0 note=62 velocity=127 time=0.017708333333333333\n",
      "note_on channel=0 note=60 velocity=127 time=0.010416666666666666\n",
      "note_off channel=0 note=62 velocity=127 time=0.009375\n",
      "note_off channel=0 note=60 velocity=127 time=0.010416666666666666\n",
      "note_on channel=0 note=61 velocity=127 time=0\n",
      "note_off channel=0 note=61 velocity=127 time=0.019791666666666666\n",
      "note_on channel=0 note=60 velocity=127 time=0.029166666666666667\n",
      "note_on channel=0 note=61 velocity=127 time=0.01875\n",
      "note_off channel=0 note=60 velocity=127 time=0.0010416666666666667\n",
      "note_on channel=0 note=62 velocity=127 time=0.017708333333333333\n",
      "note_off channel=0 note=61 velocity=127 time=0.0010416666666666667\n",
      "note_off channel=0 note=62 velocity=127 time=0.01875\n",
      "note_on channel=0 note=60 velocity=127 time=0.011458333333333333\n",
      "note_on channel=0 note=61 velocity=127 time=0.01875\n",
      "note_off channel=0 note=60 velocity=127 time=0.0020833333333333333\n",
      "note_off channel=0 note=61 velocity=127 time=0.01875\n",
      "note_on channel=0 note=60 velocity=127 time=0.030208333333333334\n",
      "note_on channel=0 note=62 velocity=127 time=0.017708333333333333\n",
      "note_on channel=0 note=61 velocity=127 time=0\n",
      "note_off channel=0 note=60 velocity=127 time=0.0020833333333333333\n",
      "note_off channel=0 note=62 velocity=127 time=0.017708333333333333\n",
      "note_off channel=0 note=61 velocity=127 time=0\n",
      "note_on channel=0 note=60 velocity=127 time=0.03125\n",
      "note_on channel=0 note=61 velocity=127 time=0.016666666666666666\n",
      "\u001b[91m [DEBUG] > \u001b[0m\n",
      " |>  to_array: msg.time > max_t; t, n\n",
      " |>  2.9916666666666667\n",
      " |>  150\n",
      "note_on channel=0 note=62 velocity=127 time=0.003125\n",
      "note_off channel=0 note=62 velocity=127 time=0.019791666666666666\n",
      "note_on channel=0 note=60 velocity=127 time=0.06354166666666666\n",
      "note_off channel=0 note=60 velocity=127 time=0.019791666666666666\n",
      "note_on channel=0 note=60 velocity=127 time=0.11041666666666666\n",
      "note_on channel=0 note=62 velocity=127 time=0.00625\n",
      "note_off channel=0 note=60 velocity=127 time=0.014583333333333334\n",
      "note_off channel=0 note=62 velocity=127 time=0.00625\n",
      "note_on channel=0 note=61 velocity=127 time=0.021875\n",
      "note_off channel=0 note=61 velocity=127 time=0.019791666666666666\n",
      "note_on channel=0 note=60 velocity=127 time=0.06354166666666666\n",
      "note_off channel=0 note=60 velocity=127 time=0.019791666666666666\n",
      "note_on channel=0 note=62 velocity=127 time=0.075\n",
      "note_off channel=0 note=62 velocity=127 time=0.019791666666666666\n",
      "note_on channel=0 note=60 velocity=127 time=0.015625\n",
      "note_off channel=0 note=60 velocity=127 time=0.019791666666666666\n",
      "note_on channel=0 note=61 velocity=127 time=0.08854166666666667\n",
      "note_off channel=0 note=61 velocity=127 time=0.019791666666666666\n",
      "note_on channel=0 note=60 velocity=127 time=0.0020833333333333333\n",
      "note_off channel=0 note=60 velocity=127 time=0.019791666666666666\n",
      "note_on channel=0 note=62 velocity=127 time=0.034375\n",
      "note_off channel=0 note=62 velocity=127 time=0.019791666666666666\n",
      "note_on channel=0 note=60 velocity=127 time=0.057291666666666664\n",
      "note_off channel=0 note=60 velocity=127 time=0.019791666666666666\n",
      "note_on channel=0 note=60 velocity=127 time=0.11041666666666666\n",
      "note_on channel=0 note=62 velocity=127 time=0.0125\n",
      "note_off channel=0 note=60 velocity=127 time=0.007291666666666667\n",
      "note_off channel=0 note=62 velocity=127 time=0.0125\n",
      "note_on channel=0 note=61 velocity=127 time=0.00625\n",
      "note_off channel=0 note=61 velocity=127 time=0.019791666666666666\n",
      "note_on channel=0 note=60 velocity=127 time=0.071875\n",
      "note_off channel=0 note=60 velocity=127 time=0.019791666666666666\n",
      "note_on channel=0 note=62 velocity=127 time=0.08229166666666667\n",
      "note_off channel=0 note=62 velocity=127 time=0.019791666666666666\n",
      "note_on channel=0 note=60 velocity=127 time=0.008333333333333333\n",
      "note_off channel=0 note=60 velocity=127 time=0.019791666666666666\n",
      "note_on channel=0 note=61 velocity=127 time=0.08020833333333333\n",
      "note_off channel=0 note=61 velocity=127 time=0.019791666666666666\n",
      "note_on channel=0 note=60 velocity=127 time=0.010416666666666666\n",
      "note_off channel=0 note=60 velocity=127 time=0.019791666666666666\n",
      "note_on channel=0 note=62 velocity=127 time=0.040625\n",
      "note_off channel=0 note=62 velocity=127 time=0.019791666666666666\n",
      "note_on channel=0 note=60 velocity=127 time=0.05\n",
      "note_off channel=0 note=60 velocity=127 time=0.019791666666666666\n",
      "note_on channel=0 note=60 velocity=127 time=0.11041666666666666\n",
      "note_on channel=0 note=62 velocity=127 time=0.019791666666666666\n",
      "note_off channel=0 note=60 velocity=127 time=0.0010416666666666667\n",
      "note_on channel=0 note=61 velocity=127 time=0.011458333333333333\n",
      "note_off channel=0 note=62 velocity=127 time=0.008333333333333333\n",
      "note_off channel=0 note=61 velocity=127 time=0.0125\n",
      "note_on channel=0 note=60 velocity=127 time=0.07916666666666666\n",
      "note_off channel=0 note=60 velocity=127 time=0.019791666666666666\n",
      "note_on channel=0 note=62 velocity=127 time=0.08854166666666667\n",
      "note_off channel=0 note=62 velocity=127 time=0.019791666666666666\n",
      "note_on channel=0 note=60 velocity=127 time=0.0020833333333333333\n",
      "note_off channel=0 note=60 velocity=127 time=0.019791666666666666\n",
      "note_on channel=0 note=61 velocity=127 time=0.07291666666666667\n",
      "note_off channel=0 note=61 velocity=127 time=0.019791666666666666\n",
      "note_on channel=0 note=60 velocity=127 time=0.017708333333333333\n",
      "note_off channel=0 note=60 velocity=127 time=0.019791666666666666\n",
      "note_on channel=0 note=62 velocity=127 time=0.046875\n",
      "note_off channel=0 note=62 velocity=127 time=0.019791666666666666\n",
      "note_on channel=0 note=60 velocity=127 time=0.04375\n",
      "note_off channel=0 note=60 velocity=127 time=0.019791666666666666\n",
      "note_on channel=0 note=60 velocity=127 time=0.11041666666666666\n",
      "note_off channel=0 note=60 velocity=127 time=0.019791666666666666\n",
      "note_on channel=0 note=61 velocity=127 time=0.003125\n",
      "note_on channel=0 note=62 velocity=127 time=0.003125\n",
      "note_off channel=0 note=61 velocity=127 time=0.017708333333333333\n",
      "note_off channel=0 note=62 velocity=127 time=0.003125\n",
      "note_on channel=0 note=60 velocity=127 time=0.084375\n",
      "note_off channel=0 note=60 velocity=127 time=0.019791666666666666\n",
      "note_on channel=0 note=62 velocity=127 time=0.09583333333333333\n",
      "note_on channel=0 note=60 velocity=127 time=0.015625\n",
      "note_off channel=0 note=62 velocity=127 time=0.005208333333333333\n",
      "note_off channel=0 note=60 velocity=127 time=0.015625\n",
      "note_on channel=0 note=61 velocity=127 time=0.06458333333333333\n",
      "note_off channel=0 note=61 velocity=127 time=0.019791666666666666\n",
      "note_on channel=0 note=60 velocity=127 time=0.026041666666666668\n",
      "note_off channel=0 note=60 velocity=127 time=0.019791666666666666\n",
      "note_on channel=0 note=62 velocity=127 time=0.05416666666666667\n",
      "note_off channel=0 note=62 velocity=127 time=0.019791666666666666\n",
      "note_on channel=0 note=60 velocity=127 time=0.036458333333333336\n",
      "note_off channel=0 note=60 velocity=127 time=0.019791666666666666\n",
      "note_on channel=0 note=60 velocity=127 time=0.11041666666666666\n",
      "note_on channel=0 note=61 velocity=127 time=0.015625\n",
      "note_off channel=0 note=60 velocity=127 time=0.005208333333333333\n",
      "note_on channel=0 note=62 velocity=127 time=0.0125\n",
      "note_off channel=0 note=61 velocity=127 time=0.0020833333333333333\n",
      "note_off channel=0 note=62 velocity=127 time=0.017708333333333333\n",
      "note_on channel=0 note=60 velocity=127 time=0.078125\n",
      "note_off channel=0 note=60 velocity=127 time=0.019791666666666666\n",
      "note_on channel=0 note=62 velocity=127 time=0.10208333333333333\n",
      "\u001b[91m [DEBUG] > \u001b[0m\n",
      " |>  to_array: msg.time > max_t; t, n\n",
      " |>  3.0822916666666678\n",
      " |>  150\n",
      "note_on channel=0 note=61 velocity=127 time=0.003125\n",
      "note_on channel=0 note=60 velocity=127 time=0.019791666666666666\n",
      "note_off channel=0 note=61 velocity=127 time=0\n",
      "note_off channel=0 note=60 velocity=127 time=0.019791666666666666\n",
      "note_on channel=0 note=60 velocity=127 time=0.052083333333333336\n",
      "note_off channel=0 note=60 velocity=127 time=0.019791666666666666\n",
      "note_on channel=0 note=61 velocity=127 time=0.020833333333333332\n",
      "note_off channel=0 note=61 velocity=127 time=0.019791666666666666\n",
      "note_on channel=0 note=60 velocity=127 time=0.011458333333333333\n",
      "note_on channel=0 note=62 velocity=127 time=0.00625\n",
      "note_off channel=0 note=60 velocity=127 time=0.014583333333333334\n",
      "note_off channel=0 note=62 velocity=127 time=0.00625\n",
      "note_on channel=0 note=60 velocity=127 time=0.046875\n",
      "note_off channel=0 note=60 velocity=127 time=0.019791666666666666\n",
      "note_on channel=0 note=61 velocity=127 time=0.008333333333333333\n",
      "note_off channel=0 note=61 velocity=127 time=0.019791666666666666\n",
      "note_on channel=0 note=60 velocity=127 time=0.02395833333333333\n",
      "note_off channel=0 note=60 velocity=127 time=0.019791666666666666\n",
      "note_on channel=0 note=62 velocity=127 time=0.03854166666666667\n",
      "note_on channel=0 note=60 velocity=127 time=0.013541666666666667\n",
      "note_off channel=0 note=62 velocity=127 time=0.00625\n",
      "note_on channel=0 note=61 velocity=127 time=0.010416666666666666\n",
      "note_off channel=0 note=60 velocity=127 time=0.003125\n",
      "note_off channel=0 note=61 velocity=127 time=0.016666666666666666\n",
      "note_on channel=0 note=60 velocity=127 time=0.035416666666666666\n",
      "note_off channel=0 note=60 velocity=127 time=0.019791666666666666\n",
      "note_on channel=0 note=60 velocity=127 time=0.052083333333333336\n",
      "note_on channel=0 note=61 velocity=127 time=0.005208333333333333\n",
      "note_off channel=0 note=60 velocity=127 time=0.014583333333333334\n",
      "note_off channel=0 note=61 velocity=127 time=0.005208333333333333\n",
      "note_on channel=0 note=62 velocity=127 time=0.014583333333333334\n",
      "note_off channel=0 note=62 velocity=127 time=0.019791666666666666\n",
      "note_on channel=0 note=60 velocity=127 time=0.0125\n",
      "note_off channel=0 note=60 velocity=127 time=0.019791666666666666\n",
      "note_on channel=0 note=61 velocity=127 time=0.04583333333333333\n",
      "note_on channel=0 note=60 velocity=127 time=0.00625\n",
      "note_off channel=0 note=61 velocity=127 time=0.013541666666666667\n",
      "note_off channel=0 note=60 velocity=127 time=0.00625\n",
      "note_on channel=0 note=60 velocity=127 time=0.052083333333333336\n",
      "note_off channel=0 note=60 velocity=127 time=0.019791666666666666\n",
      "note_on channel=0 note=62 velocity=127 time=0\n",
      "note_off channel=0 note=62 velocity=127 time=0.019791666666666666\n",
      "note_on channel=0 note=61 velocity=127 time=0.013541666666666667\n",
      "note_on channel=0 note=60 velocity=127 time=0.01875\n",
      "note_off channel=0 note=61 velocity=127 time=0.0020833333333333333\n",
      "note_off channel=0 note=60 velocity=127 time=0.01875\n",
      "note_on channel=0 note=60 velocity=127 time=0.052083333333333336\n",
      "note_off channel=0 note=60 velocity=127 time=0.019791666666666666\n",
      "note_on channel=0 note=61 velocity=127 time=0.021875\n",
      "note_off channel=0 note=61 velocity=127 time=0.019791666666666666\n",
      "note_on channel=0 note=60 velocity=127 time=0.010416666666666666\n",
      "note_on channel=0 note=62 velocity=127 time=0.0010416666666666667\n",
      "note_off channel=0 note=60 velocity=127 time=0.019791666666666666\n",
      "note_off channel=0 note=62 velocity=127 time=0.0010416666666666667\n",
      "note_on channel=0 note=60 velocity=127 time=0.052083333333333336\n",
      "note_off channel=0 note=60 velocity=127 time=0.019791666666666666\n",
      "note_on channel=0 note=61 velocity=127 time=0.010416666666666666\n",
      "note_off channel=0 note=61 velocity=127 time=0.019791666666666666\n",
      "note_on channel=0 note=60 velocity=127 time=0.021875\n",
      "note_off channel=0 note=60 velocity=127 time=0.019791666666666666\n",
      "note_on channel=0 note=62 velocity=127 time=0.03333333333333333\n",
      "note_on channel=0 note=60 velocity=127 time=0.01875\n",
      "note_off channel=0 note=62 velocity=127 time=0.0010416666666666667\n",
      "note_on channel=0 note=61 velocity=127 time=0.017708333333333333\n",
      "note_off channel=0 note=60 velocity=127 time=0.0010416666666666667\n",
      "note_off channel=0 note=61 velocity=127 time=0.01875\n",
      "note_on channel=0 note=60 velocity=127 time=0.03333333333333333\n",
      "note_off channel=0 note=60 velocity=127 time=0.019791666666666666\n",
      "note_on channel=0 note=60 velocity=127 time=0.052083333333333336\n",
      "note_on channel=0 note=61 velocity=127 time=0.007291666666666667\n",
      "note_off channel=0 note=60 velocity=127 time=0.013541666666666667\n",
      "note_off channel=0 note=61 velocity=127 time=0.007291666666666667\n",
      "note_on channel=0 note=62 velocity=127 time=0.007291666666666667\n",
      "note_off channel=0 note=62 velocity=127 time=0.019791666666666666\n",
      "note_on channel=0 note=60 velocity=127 time=0.017708333333333333\n",
      "note_off channel=0 note=60 velocity=127 time=0.019791666666666666\n",
      "note_on channel=0 note=61 velocity=127 time=0.046875\n",
      "note_on channel=0 note=60 velocity=127 time=0.005208333333333333\n",
      "note_off channel=0 note=61 velocity=127 time=0.014583333333333334\n",
      "note_off channel=0 note=60 velocity=127 time=0.005208333333333333\n",
      "note_on channel=0 note=60 velocity=127 time=0.052083333333333336\n",
      "note_on channel=0 note=62 velocity=127 time=0.014583333333333334\n",
      "note_off channel=0 note=60 velocity=127 time=0.005208333333333333\n",
      "note_off channel=0 note=62 velocity=127 time=0.014583333333333334\n",
      "note_on channel=0 note=61 velocity=127 time=0.020833333333333332\n",
      "note_on channel=0 note=60 velocity=127 time=0.016666666666666666\n",
      "note_off channel=0 note=61 velocity=127 time=0.003125\n",
      "note_off channel=0 note=60 velocity=127 time=0.016666666666666666\n",
      "note_on channel=0 note=60 velocity=127 time=0.052083333333333336\n",
      "note_off channel=0 note=60 velocity=127 time=0.019791666666666666\n",
      "note_on channel=0 note=61 velocity=127 time=0.02395833333333333\n",
      "note_off channel=0 note=61 velocity=127 time=0.019791666666666666\n",
      "note_on channel=0 note=62 velocity=127 time=0.004166666666666667\n",
      "note_on channel=0 note=60 velocity=127 time=0.004166666666666667\n",
      "note_off channel=0 note=62 velocity=127 time=0.015625\n",
      "note_off channel=0 note=60 velocity=127 time=0.004166666666666667\n",
      "note_on channel=0 note=60 velocity=127 time=0.052083333333333336\n",
      "note_off channel=0 note=60 velocity=127 time=0.019791666666666666\n",
      "note_on channel=0 note=61 velocity=127 time=0.0125\n",
      "note_off channel=0 note=61 velocity=127 time=0.019791666666666666\n",
      "note_on channel=0 note=60 velocity=127 time=0.019791666666666666\n",
      "note_off channel=0 note=60 velocity=127 time=0.019791666666666666\n",
      "note_on channel=0 note=62 velocity=127 time=0.028125\n",
      "note_off channel=0 note=62 velocity=127 time=0.019791666666666666\n",
      "note_on channel=0 note=60 velocity=127 time=0.004166666666666667\n",
      "note_off channel=0 note=60 velocity=127 time=0.019791666666666666\n",
      "note_on channel=0 note=61 velocity=127 time=0\n",
      "note_off channel=0 note=61 velocity=127 time=0.019791666666666666\n",
      "note_on channel=0 note=60 velocity=127 time=0.03229166666666666\n",
      "note_off channel=0 note=60 velocity=127 time=0.019791666666666666\n",
      "note_on channel=0 note=60 velocity=127 time=0.052083333333333336\n",
      "note_on channel=0 note=61 velocity=127 time=0.008333333333333333\n",
      "note_off channel=0 note=60 velocity=127 time=0.011458333333333333\n",
      "note_off channel=0 note=61 velocity=127 time=0.008333333333333333\n",
      "note_on channel=0 note=62 velocity=127 time=0.0010416666666666667\n",
      "note_off channel=0 note=62 velocity=127 time=0.019791666666666666\n",
      "note_on channel=0 note=60 velocity=127 time=0.022916666666666665\n",
      "note_off channel=0 note=60 velocity=127 time=0.019791666666666666\n",
      "note_on channel=0 note=61 velocity=127 time=0.04895833333333333\n",
      "note_on channel=0 note=60 velocity=127 time=0.003125\n",
      "note_off channel=0 note=61 velocity=127 time=0.016666666666666666\n",
      "note_off channel=0 note=60 velocity=127 time=0.003125\n",
      "note_on channel=0 note=60 velocity=127 time=0.052083333333333336\n",
      "note_on channel=0 note=62 velocity=127 time=0.009375\n",
      "note_off channel=0 note=60 velocity=127 time=0.010416666666666666\n",
      "note_off channel=0 note=62 velocity=127 time=0.009375\n",
      "note_on channel=0 note=61 velocity=127 time=0.027083333333333334\n",
      "note_on channel=0 note=60 velocity=127 time=0.015625\n",
      "note_off channel=0 note=61 velocity=127 time=0.005208333333333333\n",
      "note_off channel=0 note=60 velocity=127 time=0.015625\n",
      "note_on channel=0 note=60 velocity=127 time=0.052083333333333336\n",
      "note_off channel=0 note=60 velocity=127 time=0.019791666666666666\n",
      "note_on channel=0 note=61 velocity=127 time=0.025\n",
      "note_on channel=0 note=62 velocity=127 time=0.017708333333333333\n",
      "note_off channel=0 note=61 velocity=127 time=0.003125\n",
      "note_on channel=0 note=60 velocity=127 time=0.007291666666666667\n",
      "note_off channel=0 note=62 velocity=127 time=0.010416666666666666\n",
      "note_off channel=0 note=60 velocity=127 time=0.009375\n",
      "note_on channel=0 note=60 velocity=127 time=0.052083333333333336\n",
      "note_off channel=0 note=60 velocity=127 time=0.019791666666666666\n",
      "note_on channel=0 note=61 velocity=127 time=0.013541666666666667\n",
      "note_off channel=0 note=61 velocity=127 time=0.019791666666666666\n",
      "note_on channel=0 note=60 velocity=127 time=0.01875\n",
      "note_off channel=0 note=60 velocity=127 time=0.019791666666666666\n",
      "note_on channel=0 note=62 velocity=127 time=0.022916666666666665\n",
      "note_off channel=0 note=62 velocity=127 time=0.019791666666666666\n",
      "note_on channel=0 note=60 velocity=127 time=0.009375\n",
      "note_off channel=0 note=60 velocity=127 time=0.019791666666666666\n",
      "note_on channel=0 note=61 velocity=127 time=0.0020833333333333333\n",
      "note_off channel=0 note=61 velocity=127 time=0.019791666666666666\n",
      "note_on channel=0 note=60 velocity=127 time=0.030208333333333334\n",
      "note_off channel=0 note=60 velocity=127 time=0.019791666666666666\n",
      "note_on channel=0 note=60 velocity=127 time=0.052083333333333336\n",
      "note_on channel=0 note=61 velocity=127 time=0.010416666666666666\n",
      "note_off channel=0 note=60 velocity=127 time=0.010416666666666666\n",
      "note_on channel=0 note=62 velocity=127 time=0.004166666666666667\n",
      "note_off channel=0 note=61 velocity=127 time=0.00625\n",
      "note_off channel=0 note=62 velocity=127 time=0.013541666666666667\n",
      "note_on channel=0 note=60 velocity=127 time=0.028125\n"
     ]
    },
    {
     "name": "stdout",
     "output_type": "stream",
     "text": [
      "note_off channel=0 note=60 velocity=127 time=0.019791666666666666\n",
      "\u001b[91m [DEBUG] > \u001b[0m\n",
      " |>  to_array: msg.time > max_t; t, n\n",
      " |>  2.9989583333333343\n",
      " |>  150\n",
      "note_on channel=0 note=61 velocity=127 time=0.013541666666666667\n",
      "note_on channel=0 note=60 velocity=127 time=0.0125\n",
      "note_off channel=0 note=61 velocity=127 time=0.007291666666666667\n",
      "note_off channel=0 note=60 velocity=127 time=0.0125\n",
      "note_on channel=0 note=62 velocity=127 time=0.021875\n",
      "note_off channel=0 note=62 velocity=127 time=0.019791666666666666\n",
      "note_on channel=0 note=61 velocity=127 time=0\n",
      "note_off channel=0 note=61 velocity=127 time=0.019791666666666666\n",
      "note_on channel=0 note=60 velocity=127 time=0.003125\n",
      "note_off channel=0 note=60 velocity=127 time=0.019791666666666666\n",
      "note_on channel=0 note=62 velocity=127 time=0.007291666666666667\n",
      "note_off channel=0 note=62 velocity=127 time=0.019791666666666666\n",
      "note_on channel=0 note=61 velocity=127 time=0.004166666666666667\n",
      "note_off channel=0 note=61 velocity=127 time=0.019791666666666666\n",
      "note_on channel=0 note=60 velocity=127 time=0.013541666666666667\n",
      "note_on channel=0 note=62 velocity=127 time=0.011458333333333333\n",
      "note_off channel=0 note=60 velocity=127 time=0.008333333333333333\n",
      "note_off channel=0 note=62 velocity=127 time=0.011458333333333333\n",
      "note_on channel=0 note=61 velocity=127 time=0.009375\n",
      "note_off channel=0 note=61 velocity=127 time=0.019791666666666666\n",
      "note_on channel=0 note=62 velocity=127 time=0.020833333333333332\n",
      "note_on channel=0 note=60 velocity=127 time=0.003125\n",
      "note_off channel=0 note=62 velocity=127 time=0.016666666666666666\n",
      "note_off channel=0 note=60 velocity=127 time=0.003125\n",
      "note_on channel=0 note=61 velocity=127 time=0.009375\n",
      "note_off channel=0 note=61 velocity=127 time=0.019791666666666666\n",
      "note_on channel=0 note=62 velocity=127 time=0.016666666666666666\n",
      "note_on channel=0 note=60 velocity=127 time=0.01875\n",
      "note_off channel=0 note=62 velocity=127 time=0.0010416666666666667\n",
      "note_on channel=0 note=61 velocity=127 time=0.017708333333333333\n",
      "note_off channel=0 note=60 velocity=127 time=0.0010416666666666667\n",
      "note_off channel=0 note=61 velocity=127 time=0.01875\n",
      "note_on channel=0 note=62 velocity=127 time=0.0125\n",
      "note_off channel=0 note=62 velocity=127 time=0.019791666666666666\n",
      "note_on channel=0 note=60 velocity=127 time=0.014583333333333334\n",
      "note_on channel=0 note=61 velocity=127 time=0.008333333333333333\n",
      "note_off channel=0 note=60 velocity=127 time=0.0125\n",
      "note_off channel=0 note=61 velocity=127 time=0.008333333333333333\n",
      "note_on channel=0 note=62 velocity=127 time=0.008333333333333333\n",
      "note_off channel=0 note=62 velocity=127 time=0.019791666666666666\n",
      "note_on channel=0 note=61 velocity=127 time=0.026041666666666668\n",
      "note_on channel=0 note=60 velocity=127 time=0.003125\n",
      "note_off channel=0 note=61 velocity=127 time=0.016666666666666666\n",
      "note_off channel=0 note=60 velocity=127 time=0.003125\n",
      "note_on channel=0 note=62 velocity=127 time=0.0010416666666666667\n",
      "note_off channel=0 note=62 velocity=127 time=0.019791666666666666\n",
      "note_on channel=0 note=61 velocity=127 time=0.03125\n",
      "note_on channel=0 note=60 velocity=127 time=0.013541666666666667\n",
      "note_on channel=0 note=62 velocity=127 time=0.005208333333333333\n",
      "note_off channel=0 note=61 velocity=127 time=0.0010416666666666667\n",
      "note_off channel=0 note=60 velocity=127 time=0.013541666666666667\n",
      "note_off channel=0 note=62 velocity=127 time=0.005208333333333333\n",
      "note_on channel=0 note=61 velocity=127 time=0.035416666666666666\n",
      "note_on channel=0 note=62 velocity=127 time=0.014583333333333334\n",
      "note_off channel=0 note=61 velocity=127 time=0.005208333333333333\n",
      "note_on channel=0 note=60 velocity=127 time=0.004166666666666667\n",
      "note_off channel=0 note=62 velocity=127 time=0.010416666666666666\n",
      "note_off channel=0 note=60 velocity=127 time=0.009375\n",
      "note_on channel=0 note=61 velocity=127 time=0.030208333333333334\n",
      "note_on channel=0 note=62 velocity=127 time=0.010416666666666666\n",
      "note_off channel=0 note=61 velocity=127 time=0.009375\n",
      "note_off channel=0 note=62 velocity=127 time=0.010416666666666666\n",
      "note_on channel=0 note=60 velocity=127 time=0.005208333333333333\n",
      "note_off channel=0 note=60 velocity=127 time=0.019791666666666666\n",
      "note_on channel=0 note=61 velocity=127 time=0.01875\n",
      "note_on channel=0 note=62 velocity=127 time=0.00625\n",
      "note_off channel=0 note=61 velocity=127 time=0.013541666666666667\n",
      "note_off channel=0 note=62 velocity=127 time=0.00625\n",
      "note_on channel=0 note=60 velocity=127 time=0.019791666666666666\n",
      "note_off channel=0 note=60 velocity=127 time=0.019791666666666666\n",
      "note_on channel=0 note=61 velocity=127 time=0.008333333333333333\n",
      "note_on channel=0 note=62 velocity=127 time=0.0020833333333333333\n",
      "note_off channel=0 note=61 velocity=127 time=0.01875\n",
      "note_off channel=0 note=62 velocity=127 time=0.0020833333333333333\n",
      "note_on channel=0 note=60 velocity=127 time=0.035416666666666666\n",
      "note_on channel=0 note=62 velocity=127 time=0.014583333333333334\n",
      "note_on channel=0 note=61 velocity=127 time=0.003125\n",
      "note_off channel=0 note=60 velocity=127 time=0.003125\n",
      "note_off channel=0 note=62 velocity=127 time=0.014583333333333334\n",
      "note_off channel=0 note=61 velocity=127 time=0.003125\n",
      "note_on channel=0 note=62 velocity=127 time=0.046875\n",
      "note_on channel=0 note=60 velocity=127 time=0.0010416666666666667\n",
      "note_on channel=0 note=61 velocity=127 time=0.00625\n",
      "note_off channel=0 note=62 velocity=127 time=0.0125\n",
      "note_off channel=0 note=60 velocity=127 time=0.0010416666666666667\n",
      "note_off channel=0 note=61 velocity=127 time=0.00625\n",
      "note_on channel=0 note=62 velocity=127 time=0.042708333333333334\n",
      "note_on channel=0 note=61 velocity=127 time=0.011458333333333333\n",
      "note_on channel=0 note=60 velocity=127 time=0.004166666666666667\n",
      "note_off channel=0 note=62 velocity=127 time=0.004166666666666667\n",
      "note_off channel=0 note=61 velocity=127 time=0.011458333333333333\n",
      "note_off channel=0 note=60 velocity=127 time=0.004166666666666667\n",
      "note_on channel=0 note=62 velocity=127 time=0.034375\n",
      "note_on channel=0 note=61 velocity=127 time=0.015625\n",
      "note_off channel=0 note=62 velocity=127 time=0.004166666666666667\n",
      "note_on channel=0 note=60 velocity=127 time=0.011458333333333333\n",
      "note_off channel=0 note=61 velocity=127 time=0.005208333333333333\n",
      "note_off channel=0 note=60 velocity=127 time=0.015625\n",
      "note_on channel=0 note=62 velocity=127 time=0.01875\n",
      "note_off channel=0 note=62 velocity=127 time=0.019791666666666666\n",
      "note_on channel=0 note=61 velocity=127 time=0\n",
      "note_off channel=0 note=61 velocity=127 time=0.019791666666666666\n",
      "note_on channel=0 note=60 velocity=127 time=0.00625\n",
      "note_off channel=0 note=60 velocity=127 time=0.019791666666666666\n",
      "note_on channel=0 note=62 velocity=127 time=0.003125\n",
      "note_off channel=0 note=62 velocity=127 time=0.019791666666666666\n",
      "note_on channel=0 note=61 velocity=127 time=0.005208333333333333\n",
      "note_off channel=0 note=61 velocity=127 time=0.019791666666666666\n",
      "note_on channel=0 note=60 velocity=127 time=0.016666666666666666\n",
      "note_on channel=0 note=62 velocity=127 time=0.008333333333333333\n",
      "note_off channel=0 note=60 velocity=127 time=0.011458333333333333\n",
      "note_off channel=0 note=62 velocity=127 time=0.008333333333333333\n",
      "note_on channel=0 note=61 velocity=127 time=0.009375\n",
      "note_off channel=0 note=61 velocity=127 time=0.019791666666666666\n",
      "note_on channel=0 note=62 velocity=127 time=0.020833333333333332\n",
      "note_on channel=0 note=60 velocity=127 time=0.007291666666666667\n",
      "note_off channel=0 note=62 velocity=127 time=0.013541666666666667\n",
      "note_off channel=0 note=60 velocity=127 time=0.007291666666666667\n",
      "note_on channel=0 note=61 velocity=127 time=0.00625\n",
      "note_off channel=0 note=61 velocity=127 time=0.019791666666666666\n",
      "note_on channel=0 note=62 velocity=127 time=0.016666666666666666\n",
      "note_off channel=0 note=62 velocity=127 time=0.019791666666666666\n",
      "note_on channel=0 note=60 velocity=127 time=0.0020833333333333333\n",
      "note_on channel=0 note=61 velocity=127 time=0.015625\n",
      "note_off channel=0 note=60 velocity=127 time=0.004166666666666667\n",
      "note_off channel=0 note=61 velocity=127 time=0.015625\n",
      "note_on channel=0 note=62 velocity=127 time=0.0125\n",
      "note_off channel=0 note=62 velocity=127 time=0.019791666666666666\n",
      "note_on channel=0 note=60 velocity=127 time=0.017708333333333333\n",
      "note_on channel=0 note=61 velocity=127 time=0.005208333333333333\n",
      "note_off channel=0 note=60 velocity=127 time=0.014583333333333334\n",
      "note_off channel=0 note=61 velocity=127 time=0.005208333333333333\n",
      "note_on channel=0 note=62 velocity=127 time=0.007291666666666667\n",
      "note_off channel=0 note=62 velocity=127 time=0.019791666666666666\n",
      "note_on channel=0 note=61 velocity=127 time=0.027083333333333334\n",
      "note_on channel=0 note=60 velocity=127 time=0.00625\n",
      "note_off channel=0 note=61 velocity=127 time=0.014583333333333334\n",
      "note_on channel=0 note=62 velocity=127 time=0.003125\n",
      "note_off channel=0 note=60 velocity=127 time=0.0020833333333333333\n",
      "note_off channel=0 note=62 velocity=127 time=0.017708333333333333\n",
      "note_on channel=0 note=61 velocity=127 time=0.03125\n",
      "note_on channel=0 note=60 velocity=127 time=0.016666666666666666\n",
      "note_on channel=0 note=62 velocity=127 time=0.0020833333333333333\n",
      "note_off channel=0 note=61 velocity=127 time=0.0010416666666666667\n",
      "note_off channel=0 note=60 velocity=127 time=0.016666666666666666\n",
      "note_off channel=0 note=62 velocity=127 time=0.0020833333333333333\n",
      "note_on channel=0 note=61 velocity=127 time=0.035416666666666666\n",
      "note_on channel=0 note=62 velocity=127 time=0.014583333333333334\n",
      "note_off channel=0 note=61 velocity=127 time=0.005208333333333333\n",
      "note_on channel=0 note=60 velocity=127 time=0.007291666666666667\n",
      "note_off channel=0 note=62 velocity=127 time=0.007291666666666667\n",
      "note_off channel=0 note=60 velocity=127 time=0.013541666666666667\n",
      "note_on channel=0 note=61 velocity=127 time=0.027083333333333334\n",
      "note_on channel=0 note=62 velocity=127 time=0.010416666666666666\n",
      "note_off channel=0 note=61 velocity=127 time=0.010416666666666666\n",
      "note_off channel=0 note=62 velocity=127 time=0.010416666666666666\n",
      "note_on channel=0 note=60 velocity=127 time=0.008333333333333333\n",
      "note_off channel=0 note=60 velocity=127 time=0.019791666666666666\n",
      "note_on channel=0 note=61 velocity=127 time=0.015625\n",
      "note_on channel=0 note=62 velocity=127 time=0.005208333333333333\n",
      "note_off channel=0 note=61 velocity=127 time=0.014583333333333334\n",
      "note_off channel=0 note=62 velocity=127 time=0.005208333333333333\n",
      "note_on channel=0 note=60 velocity=127 time=0.02395833333333333\n",
      "note_off channel=0 note=60 velocity=127 time=0.019791666666666666\n",
      "note_on channel=0 note=61 velocity=127 time=0.005208333333333333\n",
      "note_on channel=0 note=62 velocity=127 time=0.0010416666666666667\n",
      "note_off channel=0 note=61 velocity=127 time=0.01875\n",
      "note_off channel=0 note=62 velocity=127 time=0.0010416666666666667\n",
      "note_on channel=0 note=60 velocity=127 time=0.03854166666666667\n",
      "note_on channel=0 note=62 velocity=127 time=0.011458333333333333\n",
      "note_on channel=0 note=61 velocity=127 time=0.003125\n",
      "note_off channel=0 note=60 velocity=127 time=0.005208333333333333\n",
      "note_off channel=0 note=62 velocity=127 time=0.011458333333333333\n",
      "note_off channel=0 note=61 velocity=127 time=0.003125\n",
      "note_on channel=0 note=62 velocity=127 time=0.046875\n",
      "note_on channel=0 note=60 velocity=127 time=0.004166666666666667\n",
      "note_on channel=0 note=61 velocity=127 time=0.003125\n",
      "note_off channel=0 note=62 velocity=127 time=0.0125\n",
      "note_off channel=0 note=60 velocity=127 time=0.004166666666666667\n",
      "note_off channel=0 note=61 velocity=127 time=0.003125\n",
      "note_on channel=0 note=62 velocity=127 time=0.042708333333333334\n",
      "note_on channel=0 note=61 velocity=127 time=0.011458333333333333\n",
      "note_on channel=0 note=60 velocity=127 time=0.007291666666666667\n",
      "note_off channel=0 note=62 velocity=127 time=0.0010416666666666667\n",
      "note_off channel=0 note=61 velocity=127 time=0.011458333333333333\n",
      "note_off channel=0 note=60 velocity=127 time=0.007291666666666667\n",
      "note_on channel=0 note=62 velocity=127 time=0.03125\n",
      "note_on channel=0 note=61 velocity=127 time=0.016666666666666666\n",
      "note_off channel=0 note=62 velocity=127 time=0.004166666666666667\n",
      "note_on channel=0 note=60 velocity=127 time=0.014583333333333334\n",
      "note_off channel=0 note=61 velocity=127 time=0.0020833333333333333\n",
      "note_off channel=0 note=60 velocity=127 time=0.017708333333333333\n",
      "note_on channel=0 note=62 velocity=127 time=0.015625\n",
      "note_off channel=0 note=62 velocity=127 time=0.019791666666666666\n",
      "note_on channel=0 note=61 velocity=127 time=0.0010416666666666667\n",
      "note_off channel=0 note=61 velocity=127 time=0.019791666666666666\n",
      "note_on channel=0 note=60 velocity=127 time=0.009375\n",
      "note_off channel=0 note=60 velocity=127 time=0.019791666666666666\n",
      "note_on channel=0 note=62 velocity=127 time=0\n",
      "note_off channel=0 note=62 velocity=127 time=0.019791666666666666\n",
      "note_on channel=0 note=61 velocity=127 time=0.005208333333333333\n",
      "note_off channel=0 note=61 velocity=127 time=0.019791666666666666\n",
      "note_on channel=0 note=60 velocity=127 time=0.019791666666666666\n",
      "note_on channel=0 note=62 velocity=127 time=0.005208333333333333\n",
      "note_off channel=0 note=60 velocity=127 time=0.014583333333333334\n",
      "note_off channel=0 note=62 velocity=127 time=0.005208333333333333\n",
      "note_on channel=0 note=61 velocity=127 time=0.009375\n",
      "note_off channel=0 note=61 velocity=127 time=0.019791666666666666\n",
      "note_on channel=0 note=62 velocity=127 time=0.020833333333333332\n",
      "note_on channel=0 note=60 velocity=127 time=0.010416666666666666\n",
      "note_off channel=0 note=62 velocity=127 time=0.009375\n",
      "note_off channel=0 note=60 velocity=127 time=0.010416666666666666\n",
      "note_on channel=0 note=61 velocity=127 time=0.004166666666666667\n",
      "note_off channel=0 note=61 velocity=127 time=0.019791666666666666\n",
      "note_on channel=0 note=62 velocity=127 time=0.016666666666666666\n",
      "note_off channel=0 note=62 velocity=127 time=0.019791666666666666\n",
      "note_on channel=0 note=60 velocity=127 time=0.005208333333333333\n",
      "note_on channel=0 note=61 velocity=127 time=0.0125\n",
      "note_off channel=0 note=60 velocity=127 time=0.007291666666666667\n",
      "note_off channel=0 note=61 velocity=127 time=0.0125\n",
      "note_on channel=0 note=62 velocity=127 time=0.011458333333333333\n",
      "note_off channel=0 note=62 velocity=127 time=0.019791666666666666\n",
      "note_on channel=0 note=60 velocity=127 time=0.020833333333333332\n",
      "note_on channel=0 note=61 velocity=127 time=0.0020833333333333333\n",
      "note_off channel=0 note=60 velocity=127 time=0.017708333333333333\n",
      "note_off channel=0 note=61 velocity=127 time=0.0020833333333333333\n",
      "note_on channel=0 note=62 velocity=127 time=0.007291666666666667\n",
      "note_off channel=0 note=62 velocity=127 time=0.019791666666666666\n",
      "note_on channel=0 note=61 velocity=127 time=0.027083333333333334\n",
      "note_on channel=0 note=60 velocity=127 time=0.008333333333333333\n",
      "note_off channel=0 note=61 velocity=127 time=0.011458333333333333\n",
      "note_on channel=0 note=62 velocity=127 time=0.003125\n",
      "note_off channel=0 note=60 velocity=127 time=0.00625\n",
      "note_off channel=0 note=62 velocity=127 time=0.014583333333333334\n",
      "note_on channel=0 note=61 velocity=127 time=0.03125\n",
      "note_on channel=0 note=62 velocity=127 time=0.01875\n",
      "\u001b[91m [DEBUG] > \u001b[0m\n",
      " |>  to_array: msg.time > max_t; t, n\n",
      " |>  3.006250000000002\n",
      " |>  150\n",
      "note_on channel=0 note=61 velocity=127 time=0.030208333333333334\n",
      "note_off channel=0 note=61 velocity=127 time=0.019791666666666666\n",
      "note_on channel=0 note=60 velocity=127 time=0.036458333333333336\n",
      "note_on channel=0 note=62 velocity=127 time=0.0020833333333333333\n",
      "note_off channel=0 note=60 velocity=127 time=0.017708333333333333\n",
      "note_off channel=0 note=62 velocity=127 time=0.0020833333333333333\n",
      "note_on channel=0 note=61 velocity=127 time=0.03125\n",
      "note_off channel=0 note=61 velocity=127 time=0.019791666666666666\n",
      "note_on channel=0 note=60 velocity=127 time=0.026041666666666668\n",
      "note_on channel=0 note=62 velocity=127 time=0.008333333333333333\n",
      "note_off channel=0 note=60 velocity=127 time=0.011458333333333333\n",
      "note_off channel=0 note=62 velocity=127 time=0.008333333333333333\n",
      "note_on channel=0 note=61 velocity=127 time=0.034375\n",
      "note_off channel=0 note=61 velocity=127 time=0.019791666666666666\n",
      "note_on channel=0 note=60 velocity=127 time=0.015625\n",
      "note_on channel=0 note=62 velocity=127 time=0.014583333333333334\n",
      "note_off channel=0 note=60 velocity=127 time=0.005208333333333333\n",
      "note_off channel=0 note=62 velocity=127 time=0.014583333333333334\n",
      "note_on channel=0 note=61 velocity=127 time=0.03854166666666667\n",
      "note_off channel=0 note=61 velocity=127 time=0.019791666666666666\n",
      "note_on channel=0 note=60 velocity=127 time=0.00625\n",
      "note_off channel=0 note=60 velocity=127 time=0.019791666666666666\n",
      "note_on channel=0 note=62 velocity=127 time=0.0010416666666666667\n",
      "note_off channel=0 note=62 velocity=127 time=0.019791666666666666\n",
      "note_on channel=0 note=61 velocity=127 time=0.041666666666666664\n",
      "note_on channel=0 note=60 velocity=127 time=0.015625\n",
      "note_off channel=0 note=61 velocity=127 time=0.004166666666666667\n",
      "note_off channel=0 note=60 velocity=127 time=0.015625\n",
      "note_on channel=0 note=62 velocity=127 time=0.008333333333333333\n",
      "note_off channel=0 note=62 velocity=127 time=0.019791666666666666\n",
      "note_on channel=0 note=61 velocity=127 time=0.04583333333333333\n",
      "note_on channel=0 note=60 velocity=127 time=0.00625\n",
      "note_off channel=0 note=61 velocity=127 time=0.013541666666666667\n",
      "note_off channel=0 note=60 velocity=127 time=0.00625\n",
      "note_on channel=0 note=62 velocity=127 time=0.014583333333333334\n",
      "note_off channel=0 note=62 velocity=127 time=0.019791666666666666\n",
      "note_on channel=0 note=60 velocity=127 time=0.04479166666666667\n",
      "note_on channel=0 note=61 velocity=127 time=0.004166666666666667\n",
      "note_off channel=0 note=60 velocity=127 time=0.015625\n",
      "note_off channel=0 note=61 velocity=127 time=0.004166666666666667\n",
      "note_on channel=0 note=62 velocity=127 time=0.016666666666666666\n",
      "note_off channel=0 note=62 velocity=127 time=0.019791666666666666\n",
      "note_on channel=0 note=60 velocity=127 time=0.03854166666666667\n",
      "note_on channel=0 note=61 velocity=127 time=0.013541666666666667\n",
      "note_off channel=0 note=60 velocity=127 time=0.00625\n",
      "note_off channel=0 note=61 velocity=127 time=0.013541666666666667\n",
      "note_on channel=0 note=62 velocity=127 time=0.013541666666666667\n",
      "note_off channel=0 note=62 velocity=127 time=0.019791666666666666\n",
      "note_on channel=0 note=60 velocity=127 time=0.03229166666666666\n",
      "note_off channel=0 note=60 velocity=127 time=0.019791666666666666\n",
      "note_on channel=0 note=61 velocity=127 time=0.004166666666666667\n",
      "note_off channel=0 note=61 velocity=127 time=0.019791666666666666\n",
      "note_on channel=0 note=62 velocity=127 time=0.010416666666666666\n",
      "note_off channel=0 note=62 velocity=127 time=0.019791666666666666\n",
      "note_on channel=0 note=60 velocity=127 time=0.026041666666666668\n",
      "note_off channel=0 note=60 velocity=127 time=0.019791666666666666\n",
      "note_on channel=0 note=61 velocity=127 time=0.013541666666666667\n",
      "note_off channel=0 note=61 velocity=127 time=0.019791666666666666\n",
      "note_on channel=0 note=62 velocity=127 time=0.00625\n",
      "note_off channel=0 note=62 velocity=127 time=0.019791666666666666\n",
      "note_on channel=0 note=60 velocity=127 time=0.01875\n",
      "note_off channel=0 note=60 velocity=127 time=0.019791666666666666\n",
      "note_on channel=0 note=61 velocity=127 time=0.02395833333333333\n",
      "note_off channel=0 note=61 velocity=127 time=0.019791666666666666\n",
      "note_on channel=0 note=62 velocity=127 time=0.003125\n",
      "note_off channel=0 note=62 velocity=127 time=0.019791666666666666\n",
      "note_on channel=0 note=60 velocity=127 time=0.0125\n",
      "note_off channel=0 note=60 velocity=127 time=0.019791666666666666\n",
      "note_on channel=0 note=61 velocity=127 time=0.03333333333333333\n",
      "note_on channel=0 note=62 velocity=127 time=0.019791666666666666\n",
      "note_off channel=0 note=61 velocity=127 time=0.0010416666666666667\n",
      "note_off channel=0 note=62 velocity=127 time=0.019791666666666666\n",
      "note_on channel=0 note=60 velocity=127 time=0.00625\n",
      "note_off channel=0 note=60 velocity=127 time=0.019791666666666666\n",
      "note_on channel=0 note=61 velocity=127 time=0.04375\n",
      "note_on channel=0 note=62 velocity=127 time=0.015625\n",
      "note_off channel=0 note=61 velocity=127 time=0.004166666666666667\n",
      "note_on channel=0 note=60 velocity=127 time=0.015625\n",
      "note_off channel=0 note=62 velocity=127 time=0\n",
      "note_off channel=0 note=60 velocity=127 time=0.019791666666666666\n",
      "note_on channel=0 note=61 velocity=127 time=0.05416666666666667\n",
      "note_on channel=0 note=62 velocity=127 time=0.0125\n",
      "note_off channel=0 note=61 velocity=127 time=0.007291666666666667\n",
      "note_on channel=0 note=60 velocity=127 time=0.00625\n",
      "note_off channel=0 note=62 velocity=127 time=0.00625\n",
      "note_off channel=0 note=60 velocity=127 time=0.013541666666666667\n",
      "note_on channel=0 note=61 velocity=127 time=0.06354166666666666\n",
      "note_on channel=0 note=62 velocity=127 time=0.008333333333333333\n",
      "note_on channel=0 note=60 velocity=127 time=0.007291666666666667\n",
      "note_off channel=0 note=61 velocity=127 time=0.004166666666666667\n",
      "note_off channel=0 note=62 velocity=127 time=0.008333333333333333\n",
      "note_off channel=0 note=60 velocity=127 time=0.007291666666666667\n",
      "note_on channel=0 note=61 velocity=127 time=0.07395833333333333\n",
      "note_on channel=0 note=62 velocity=127 time=0.005208333333333333\n",
      "note_on channel=0 note=60 velocity=127 time=0.0010416666666666667\n",
      "note_off channel=0 note=61 velocity=127 time=0.014583333333333334\n",
      "note_off channel=0 note=62 velocity=127 time=0.005208333333333333\n",
      "note_off channel=0 note=60 velocity=127 time=0.0010416666666666667\n",
      "note_on channel=0 note=60 velocity=127 time=0.07916666666666666\n",
      "note_on channel=0 note=61 velocity=127 time=0.004166666666666667\n",
      "note_on channel=0 note=62 velocity=127 time=0.0020833333333333333\n",
      "note_off channel=0 note=60 velocity=127 time=0.014583333333333334\n",
      "note_off channel=0 note=61 velocity=127 time=0.004166666666666667\n",
      "note_off channel=0 note=62 velocity=127 time=0.0020833333333333333\n",
      "note_on channel=0 note=60 velocity=127 time=0.07395833333333333\n",
      "note_on channel=0 note=62 velocity=127 time=0.0125\n",
      "note_on channel=0 note=61 velocity=127 time=0.0020833333333333333\n",
      "note_off channel=0 note=60 velocity=127 time=0.00625\n",
      "note_off channel=0 note=62 velocity=127 time=0.0125\n",
      "note_off channel=0 note=61 velocity=127 time=0.0020833333333333333\n",
      "note_on channel=0 note=60 velocity=127 time=0.065625\n",
      "note_on channel=0 note=62 velocity=127 time=0.01875\n",
      "note_off channel=0 note=60 velocity=127 time=0.0010416666666666667\n",
      "note_on channel=0 note=61 velocity=127 time=0.004166666666666667\n",
      "note_off channel=0 note=62 velocity=127 time=0.014583333333333334\n",
      "note_off channel=0 note=61 velocity=127 time=0.005208333333333333\n",
      "note_on channel=0 note=60 velocity=127 time=0.05520833333333333\n",
      "note_off channel=0 note=60 velocity=127 time=0.019791666666666666\n",
      "note_on channel=0 note=62 velocity=127 time=0.005208333333333333\n",
      "note_on channel=0 note=61 velocity=127 time=0.008333333333333333\n",
      "note_off channel=0 note=62 velocity=127 time=0.011458333333333333\n",
      "note_off channel=0 note=61 velocity=127 time=0.008333333333333333\n",
      "note_on channel=0 note=60 velocity=127 time=0.04583333333333333\n",
      "note_off channel=0 note=60 velocity=127 time=0.019791666666666666\n",
      "note_on channel=0 note=62 velocity=127 time=0.011458333333333333\n",
      "note_on channel=0 note=61 velocity=127 time=0.0125\n",
      "note_off channel=0 note=62 velocity=127 time=0.007291666666666667\n",
      "note_off channel=0 note=61 velocity=127 time=0.0125\n",
      "note_on channel=0 note=60 velocity=127 time=0.035416666666666666\n",
      "note_off channel=0 note=60 velocity=127 time=0.019791666666666666\n",
      "note_on channel=0 note=62 velocity=127 time=0.017708333333333333\n",
      "note_on channel=0 note=61 velocity=127 time=0.015625\n",
      "note_off channel=0 note=62 velocity=127 time=0.004166666666666667\n",
      "note_off channel=0 note=61 velocity=127 time=0.015625\n",
      "note_on channel=0 note=60 velocity=127 time=0.025\n",
      "note_off channel=0 note=60 velocity=127 time=0.019791666666666666\n",
      "note_on channel=0 note=62 velocity=127 time=0.025\n",
      "note_on channel=0 note=61 velocity=127 time=0.019791666666666666\n",
      "note_off channel=0 note=62 velocity=127 time=0.0010416666666666667\n",
      "note_off channel=0 note=61 velocity=127 time=0.019791666666666666\n",
      "note_on channel=0 note=60 velocity=127 time=0.015625\n",
      "note_off channel=0 note=60 velocity=127 time=0.019791666666666666\n",
      "note_on channel=0 note=62 velocity=127 time=0.03125\n",
      "note_off channel=0 note=62 velocity=127 time=0.019791666666666666\n",
      "note_on channel=0 note=61 velocity=127 time=0.003125\n",
      "note_off channel=0 note=61 velocity=127 time=0.019791666666666666\n",
      "note_on channel=0 note=60 velocity=127 time=0.005208333333333333\n",
      "note_off channel=0 note=60 velocity=127 time=0.019791666666666666\n",
      "note_on channel=0 note=62 velocity=127 time=0.0375\n",
      "note_off channel=0 note=62 velocity=127 time=0.019791666666666666\n",
      "note_on channel=0 note=61 velocity=127 time=0.00625\n",
      "note_on channel=0 note=60 velocity=127 time=0.015625\n",
      "note_off channel=0 note=61 velocity=127 time=0.004166666666666667\n",
      "note_off channel=0 note=60 velocity=127 time=0.015625\n",
      "note_on channel=0 note=62 velocity=127 time=0.04375\n",
      "note_off channel=0 note=62 velocity=127 time=0.019791666666666666\n",
      "note_on channel=0 note=61 velocity=127 time=0.010416666666666666\n",
      "note_on channel=0 note=60 velocity=127 time=0.005208333333333333\n",
      "note_off channel=0 note=61 velocity=127 time=0.014583333333333334\n",
      "note_off channel=0 note=60 velocity=127 time=0.005208333333333333\n",
      "note_on channel=0 note=62 velocity=127 time=0.05\n",
      "note_off channel=0 note=62 velocity=127 time=0.019791666666666666\n",
      "note_on channel=0 note=60 velocity=127 time=0.009375\n",
      "note_on channel=0 note=61 velocity=127 time=0.004166666666666667\n",
      "note_off channel=0 note=60 velocity=127 time=0.015625\n",
      "note_off channel=0 note=61 velocity=127 time=0.004166666666666667\n",
      "note_on channel=0 note=62 velocity=127 time=0.052083333333333336\n",
      "note_off channel=0 note=62 velocity=127 time=0.019791666666666666\n",
      "note_on channel=0 note=60 velocity=127 time=0.0020833333333333333\n",
      "note_on channel=0 note=61 velocity=127 time=0.014583333333333334\n",
      "note_off channel=0 note=60 velocity=127 time=0.005208333333333333\n",
      "note_off channel=0 note=61 velocity=127 time=0.014583333333333334\n",
      "\u001b[91m [DEBUG] > \u001b[0m\n",
      " |>  to_array: msg.time > max_t; t, n\n",
      " |>  2.997916666666671\n",
      " |>  150\n",
      "note_on channel=0 note=62 velocity=127 time=0.04479166666666667\n",
      "note_off channel=0 note=62 velocity=127 time=0.019791666666666666\n",
      "note_on channel=0 note=61 velocity=127 time=0.013541666666666667\n",
      "note_off channel=0 note=61 velocity=127 time=0.019791666666666666\n",
      "note_on channel=0 note=62 velocity=127 time=0.01875\n",
      "note_on channel=0 note=60 velocity=127 time=0.010416666666666666\n",
      "note_off channel=0 note=62 velocity=127 time=0.009375\n",
      "note_off channel=0 note=60 velocity=127 time=0.010416666666666666\n",
      "note_on channel=0 note=62 velocity=127 time=0.041666666666666664\n",
      "note_off channel=0 note=62 velocity=127 time=0.019791666666666666\n",
      "note_on channel=0 note=62 velocity=127 time=0.052083333333333336\n",
      "note_off channel=0 note=62 velocity=127 time=0.019791666666666666\n",
      "note_on channel=0 note=60 velocity=127 time=0.019791666666666666\n",
      "note_on channel=0 note=61 velocity=127 time=0.005208333333333333\n",
      "note_off channel=0 note=60 velocity=127 time=0.015625\n",
      "note_off channel=0 note=61 velocity=127 time=0.005208333333333333\n",
      "note_on channel=0 note=62 velocity=127 time=0.008333333333333333\n",
      "note_off channel=0 note=62 velocity=127 time=0.019791666666666666\n",
      "note_on channel=0 note=62 velocity=127 time=0.052083333333333336\n",
      "note_off channel=0 note=62 velocity=127 time=0.019791666666666666\n",
      "note_on channel=0 note=60 velocity=127 time=0.04895833333333333\n",
      "note_on channel=0 note=62 velocity=127 time=0.003125\n",
      "note_off channel=0 note=60 velocity=127 time=0.016666666666666666\n",
      "note_off channel=0 note=62 velocity=127 time=0.003125\n",
      "note_on channel=0 note=61 velocity=127 time=0.035416666666666666\n",
      "note_on channel=0 note=62 velocity=127 time=0.017708333333333333\n",
      "note_off channel=0 note=61 velocity=127 time=0.003125\n",
      "note_off channel=0 note=62 velocity=127 time=0.017708333333333333\n",
      "note_on channel=0 note=62 velocity=127 time=0.052083333333333336\n",
      "note_off channel=0 note=62 velocity=127 time=0.019791666666666666\n",
      "note_on channel=0 note=60 velocity=127 time=0.00625\n",
      "note_off channel=0 note=60 velocity=127 time=0.019791666666666666\n",
      "note_on channel=0 note=62 velocity=127 time=0.026041666666666668\n",
      "note_off channel=0 note=62 velocity=127 time=0.019791666666666666\n",
      "note_on channel=0 note=61 velocity=127 time=0.04583333333333333\n",
      "note_on channel=0 note=62 velocity=127 time=0.007291666666666667\n",
      "note_off channel=0 note=61 velocity=127 time=0.013541666666666667\n",
      "note_off channel=0 note=62 velocity=127 time=0.007291666666666667\n",
      "note_on channel=0 note=60 velocity=127 time=0.035416666666666666\n",
      "note_on channel=0 note=62 velocity=127 time=0.016666666666666666\n",
      "note_off channel=0 note=60 velocity=127 time=0.003125\n",
      "note_off channel=0 note=62 velocity=127 time=0.016666666666666666\n",
      "note_on channel=0 note=62 velocity=127 time=0.052083333333333336\n",
      "note_off channel=0 note=62 velocity=127 time=0.019791666666666666\n",
      "note_on channel=0 note=62 velocity=127 time=0.052083333333333336\n",
      "note_on channel=0 note=61 velocity=127 time=0.004166666666666667\n",
      "note_on channel=0 note=60 velocity=127 time=0.009375\n",
      "note_off channel=0 note=62 velocity=127 time=0.007291666666666667\n",
      "note_off channel=0 note=61 velocity=127 time=0.004166666666666667\n",
      "note_off channel=0 note=60 velocity=127 time=0.009375\n",
      "note_on channel=0 note=62 velocity=127 time=0.03958333333333333\n",
      "note_off channel=0 note=62 velocity=127 time=0.019791666666666666\n",
      "note_on channel=0 note=62 velocity=127 time=0.052083333333333336\n",
      "note_off channel=0 note=62 velocity=127 time=0.019791666666666666\n",
      "note_on channel=0 note=60 velocity=127 time=0.021875\n",
      "note_off channel=0 note=60 velocity=127 time=0.019791666666666666\n",
      "note_on channel=0 note=62 velocity=127 time=0.010416666666666666\n",
      "note_on channel=0 note=61 velocity=127 time=0.014583333333333334\n",
      "note_off channel=0 note=62 velocity=127 time=0.00625\n",
      "note_off channel=0 note=61 velocity=127 time=0.014583333333333334\n",
      "note_on channel=0 note=62 velocity=127 time=0.03854166666666667\n",
      "note_off channel=0 note=62 velocity=127 time=0.019791666666666666\n",
      "note_on channel=0 note=60 velocity=127 time=0.051041666666666666\n",
      "note_on channel=0 note=62 velocity=127 time=0.0010416666666666667\n",
      "note_off channel=0 note=60 velocity=127 time=0.01875\n",
      "note_off channel=0 note=62 velocity=127 time=0.0010416666666666667\n",
      "note_on channel=0 note=62 velocity=127 time=0.052083333333333336\n",
      "note_off channel=0 note=62 velocity=127 time=0.019791666666666666\n",
      "note_on channel=0 note=61 velocity=127 time=0.004166666666666667\n",
      "note_off channel=0 note=61 velocity=127 time=0.019791666666666666\n",
      "note_on channel=0 note=62 velocity=127 time=0.028125\n",
      "note_off channel=0 note=62 velocity=127 time=0.019791666666666666\n",
      "note_on channel=0 note=60 velocity=127 time=0.008333333333333333\n",
      "note_off channel=0 note=60 velocity=127 time=0.019791666666666666\n",
      "note_on channel=0 note=62 velocity=127 time=0.02395833333333333\n",
      "note_off channel=0 note=62 velocity=127 time=0.019791666666666666\n",
      "note_on channel=0 note=62 velocity=127 time=0.052083333333333336\n",
      "note_off channel=0 note=62 velocity=127 time=0.019791666666666666\n",
      "note_on channel=0 note=61 velocity=127 time=0.015625\n",
      "note_off channel=0 note=61 velocity=127 time=0.019791666666666666\n",
      "note_on channel=0 note=60 velocity=127 time=0.0020833333333333333\n",
      "note_on channel=0 note=62 velocity=127 time=0.014583333333333334\n",
      "note_off channel=0 note=60 velocity=127 time=0.005208333333333333\n",
      "note_off channel=0 note=62 velocity=127 time=0.014583333333333334\n",
      "note_on channel=0 note=62 velocity=127 time=0.052083333333333336\n",
      "note_off channel=0 note=62 velocity=127 time=0.019791666666666666\n",
      "note_on channel=0 note=62 velocity=127 time=0.052083333333333336\n",
      "note_on channel=0 note=60 velocity=127 time=0.014583333333333334\n",
      "note_off channel=0 note=62 velocity=127 time=0.005208333333333333\n",
      "note_off channel=0 note=60 velocity=127 time=0.014583333333333334\n",
      "note_on channel=0 note=61 velocity=127 time=0.011458333333333333\n",
      "note_off channel=0 note=61 velocity=127 time=0.019791666666666666\n",
      "note_on channel=0 note=62 velocity=127 time=0.00625\n",
      "note_off channel=0 note=62 velocity=127 time=0.019791666666666666\n",
      "note_on channel=0 note=62 velocity=127 time=0.052083333333333336\n",
      "note_off channel=0 note=62 velocity=127 time=0.019791666666666666\n",
      "note_on channel=0 note=60 velocity=127 time=0.02395833333333333\n",
      "note_off channel=0 note=60 velocity=127 time=0.019791666666666666\n",
      "note_on channel=0 note=62 velocity=127 time=0.008333333333333333\n",
      "note_off channel=0 note=62 velocity=127 time=0.019791666666666666\n",
      "note_on channel=0 note=61 velocity=127 time=0.036458333333333336\n",
      "note_on channel=0 note=62 velocity=127 time=0.016666666666666666\n",
      "note_off channel=0 note=61 velocity=127 time=0.004166666666666667\n",
      "note_off channel=0 note=62 velocity=127 time=0.016666666666666666\n",
      "note_on channel=0 note=62 velocity=127 time=0.052083333333333336\n",
      "note_on channel=0 note=60 velocity=127 time=0.0010416666666666667\n",
      "note_off channel=0 note=62 velocity=127 time=0.01875\n",
      "note_off channel=0 note=60 velocity=127 time=0.0010416666666666667\n",
      "note_on channel=0 note=62 velocity=127 time=0.051041666666666666\n",
      "note_off channel=0 note=62 velocity=127 time=0.019791666666666666\n",
      "note_on channel=0 note=61 velocity=127 time=0.046875\n",
      "note_on channel=0 note=62 velocity=127 time=0.005208333333333333\n",
      "note_off channel=0 note=61 velocity=127 time=0.014583333333333334\n",
      "note_off channel=0 note=62 velocity=127 time=0.005208333333333333\n",
      "note_on channel=0 note=60 velocity=127 time=0.010416666666666666\n",
      "note_off channel=0 note=60 velocity=127 time=0.019791666666666666\n",
      "note_on channel=0 note=62 velocity=127 time=0.021875\n",
      "note_off channel=0 note=62 velocity=127 time=0.019791666666666666\n",
      "note_on channel=0 note=62 velocity=127 time=0.052083333333333336\n",
      "note_off channel=0 note=62 velocity=127 time=0.019791666666666666\n",
      "note_on channel=0 note=60 velocity=127 time=0.03958333333333333\n",
      "note_on channel=0 note=62 velocity=127 time=0.0125\n",
      "note_on channel=0 note=61 velocity=127 time=0.005208333333333333\n",
      "note_off channel=0 note=60 velocity=127 time=0.003125\n",
      "note_off channel=0 note=62 velocity=127 time=0.0125\n",
      "note_off channel=0 note=61 velocity=127 time=0.005208333333333333\n",
      "note_on channel=0 note=62 velocity=127 time=0.04791666666666666\n",
      "note_off channel=0 note=62 velocity=127 time=0.019791666666666666\n",
      "note_on channel=0 note=62 velocity=127 time=0.052083333333333336\n",
      "note_on channel=0 note=60 velocity=127 time=0.016666666666666666\n",
      "note_off channel=0 note=62 velocity=127 time=0.003125\n",
      "note_off channel=0 note=60 velocity=127 time=0.016666666666666666\n",
      "note_on channel=0 note=62 velocity=127 time=0.035416666666666666\n",
      "note_on channel=0 note=61 velocity=127 time=0.015625\n",
      "note_off channel=0 note=62 velocity=127 time=0.005208333333333333\n",
      "note_off channel=0 note=61 velocity=127 time=0.015625\n",
      "note_on channel=0 note=62 velocity=127 time=0.0375\n",
      "note_off channel=0 note=62 velocity=127 time=0.019791666666666666\n",
      "note_on channel=0 note=60 velocity=127 time=0.026041666666666668\n",
      "note_off channel=0 note=60 velocity=127 time=0.019791666666666666\n",
      "note_on channel=0 note=62 velocity=127 time=0.00625\n",
      "note_off channel=0 note=62 velocity=127 time=0.019791666666666666\n",
      "note_on channel=0 note=62 velocity=127 time=0.052083333333333336\n",
      "\u001b[91m [DEBUG] > \u001b[0m\n",
      " |>  to_array: msg.time > max_t; t, n\n",
      " |>  3.008333333333337\n",
      " |>  150\n",
      "note_on channel=0 note=60 velocity=127 time=0.028125\n",
      "note_off channel=0 note=60 velocity=127 time=0.019791666666666666\n",
      "note_on channel=0 note=61 velocity=127 time=0.051041666666666666\n",
      "note_on channel=0 note=60 velocity=127 time=0.010416666666666666\n",
      "note_off channel=0 note=61 velocity=127 time=0.009375\n",
      "note_off channel=0 note=60 velocity=127 time=0.010416666666666666\n",
      "note_on channel=0 note=60 velocity=127 time=0.06145833333333333\n",
      "note_off channel=0 note=60 velocity=127 time=0.019791666666666666\n",
      "note_on channel=0 note=62 velocity=127 time=0.04375\n",
      "note_on channel=0 note=61 velocity=127 time=0.004166666666666667\n",
      "note_on channel=0 note=60 velocity=127 time=0.013541666666666667\n",
      "note_off channel=0 note=62 velocity=127 time=0.0020833333333333333\n",
      "note_off channel=0 note=61 velocity=127 time=0.004166666666666667\n",
      "note_off channel=0 note=60 velocity=127 time=0.013541666666666667\n",
      "note_on channel=0 note=60 velocity=127 time=0.06145833333333333\n",
      "note_off channel=0 note=60 velocity=127 time=0.019791666666666666\n",
      "note_on channel=0 note=61 velocity=127 time=0.04479166666666667\n",
      "note_on channel=0 note=60 velocity=127 time=0.016666666666666666\n",
      "note_off channel=0 note=61 velocity=127 time=0.003125\n",
      "note_off channel=0 note=60 velocity=127 time=0.016666666666666666\n",
      "note_on channel=0 note=60 velocity=127 time=0.06145833333333333\n",
      "note_off channel=0 note=60 velocity=127 time=0.019791666666666666\n",
      "note_on channel=0 note=62 velocity=127 time=0.003125\n",
      "note_off channel=0 note=62 velocity=127 time=0.019791666666666666\n",
      "note_on channel=0 note=61 velocity=127 time=0.01875\n",
      "note_on channel=0 note=60 velocity=127 time=0.019791666666666666\n",
      "note_off channel=0 note=61 velocity=127 time=0.0010416666666666667\n",
      "note_off channel=0 note=60 velocity=127 time=0.019791666666666666\n",
      "note_on channel=0 note=60 velocity=127 time=0.06145833333333333\n",
      "note_off channel=0 note=60 velocity=127 time=0.019791666666666666\n",
      "note_on channel=0 note=61 velocity=127 time=0.03854166666666667\n",
      "note_off channel=0 note=61 velocity=127 time=0.019791666666666666\n",
      "note_on channel=0 note=60 velocity=127 time=0.0020833333333333333\n",
      "note_off channel=0 note=60 velocity=127 time=0.019791666666666666\n",
      "note_on channel=0 note=62 velocity=127 time=0.04479166666666667\n",
      "note_on channel=0 note=60 velocity=127 time=0.016666666666666666\n",
      "note_off channel=0 note=62 velocity=127 time=0.003125\n",
      "note_off channel=0 note=60 velocity=127 time=0.016666666666666666\n",
      "note_on channel=0 note=61 velocity=127 time=0.035416666666666666\n",
      "note_off channel=0 note=61 velocity=127 time=0.019791666666666666\n",
      "note_on channel=0 note=60 velocity=127 time=0.005208333333333333\n",
      "note_off channel=0 note=60 velocity=127 time=0.019791666666666666\n",
      "note_on channel=0 note=60 velocity=127 time=0.06145833333333333\n",
      "note_off channel=0 note=60 velocity=127 time=0.019791666666666666\n",
      "note_on channel=0 note=61 velocity=127 time=0.03333333333333333\n",
      "note_off channel=0 note=61 velocity=127 time=0.019791666666666666\n",
      "note_on channel=0 note=60 velocity=127 time=0.008333333333333333\n",
      "note_off channel=0 note=60 velocity=127 time=0.019791666666666666\n",
      "note_on channel=0 note=62 velocity=127 time=0.004166666666666667\n",
      "note_off channel=0 note=62 velocity=127 time=0.019791666666666666\n",
      "note_on channel=0 note=60 velocity=127 time=0.0375\n",
      "note_off channel=0 note=60 velocity=127 time=0.019791666666666666\n",
      "note_on channel=0 note=61 velocity=127 time=0.030208333333333334\n",
      "note_off channel=0 note=61 velocity=127 time=0.019791666666666666\n",
      "note_on channel=0 note=60 velocity=127 time=0.011458333333333333\n",
      "note_off channel=0 note=60 velocity=127 time=0.019791666666666666\n",
      "note_on channel=0 note=60 velocity=127 time=0.06145833333333333\n",
      "note_off channel=0 note=60 velocity=127 time=0.019791666666666666\n",
      "note_on channel=0 note=61 velocity=127 time=0.027083333333333334\n"
     ]
    },
    {
     "name": "stdout",
     "output_type": "stream",
     "text": [
      "note_on channel=0 note=62 velocity=127 time=0.01875\n",
      "note_off channel=0 note=61 velocity=127 time=0.0010416666666666667\n",
      "note_on channel=0 note=60 velocity=127 time=0.014583333333333334\n",
      "note_off channel=0 note=62 velocity=127 time=0.004166666666666667\n",
      "note_off channel=0 note=60 velocity=127 time=0.015625\n",
      "note_on channel=0 note=60 velocity=127 time=0.06145833333333333\n",
      "note_off channel=0 note=60 velocity=127 time=0.019791666666666666\n",
      "note_on channel=0 note=61 velocity=127 time=0.02395833333333333\n",
      "note_off channel=0 note=61 velocity=127 time=0.019791666666666666\n",
      "note_on channel=0 note=60 velocity=127 time=0.017708333333333333\n",
      "note_off channel=0 note=60 velocity=127 time=0.019791666666666666\n",
      "note_on channel=0 note=60 velocity=127 time=0.06145833333333333\n",
      "note_off channel=0 note=60 velocity=127 time=0.019791666666666666\n",
      "note_on channel=0 note=62 velocity=127 time=0.005208333333333333\n",
      "note_on channel=0 note=61 velocity=127 time=0.015625\n",
      "note_off channel=0 note=62 velocity=127 time=0.004166666666666667\n",
      "note_off channel=0 note=61 velocity=127 time=0.015625\n",
      "note_on channel=0 note=60 velocity=127 time=0.020833333333333332\n",
      "note_off channel=0 note=60 velocity=127 time=0.019791666666666666\n",
      "note_on channel=0 note=60 velocity=127 time=0.06145833333333333\n",
      "note_off channel=0 note=60 velocity=127 time=0.019791666666666666\n",
      "note_on channel=0 note=61 velocity=127 time=0.017708333333333333\n",
      "note_off channel=0 note=61 velocity=127 time=0.019791666666666666\n",
      "note_on channel=0 note=60 velocity=127 time=0.02395833333333333\n",
      "note_off channel=0 note=60 velocity=127 time=0.019791666666666666\n",
      "note_on channel=0 note=62 velocity=127 time=0.046875\n",
      "note_on channel=0 note=60 velocity=127 time=0.014583333333333334\n",
      "note_off channel=0 note=62 velocity=127 time=0.005208333333333333\n",
      "note_off channel=0 note=60 velocity=127 time=0.014583333333333334\n",
      "note_on channel=0 note=61 velocity=127 time=0.014583333333333334\n",
      "note_off channel=0 note=61 velocity=127 time=0.019791666666666666\n",
      "note_on channel=0 note=60 velocity=127 time=0.027083333333333334\n",
      "note_off channel=0 note=60 velocity=127 time=0.019791666666666666\n",
      "note_on channel=0 note=60 velocity=127 time=0.06145833333333333\n",
      "note_off channel=0 note=60 velocity=127 time=0.019791666666666666\n",
      "note_on channel=0 note=61 velocity=127 time=0.011458333333333333\n",
      "note_off channel=0 note=61 velocity=127 time=0.019791666666666666\n",
      "note_on channel=0 note=60 velocity=127 time=0.029166666666666667\n",
      "note_off channel=0 note=60 velocity=127 time=0.019791666666666666\n",
      "note_on channel=0 note=62 velocity=127 time=0.00625\n",
      "note_off channel=0 note=62 velocity=127 time=0.019791666666666666\n",
      "note_on channel=0 note=60 velocity=127 time=0.035416666666666666\n",
      "note_off channel=0 note=60 velocity=127 time=0.019791666666666666\n",
      "note_on channel=0 note=61 velocity=127 time=0.008333333333333333\n",
      "note_off channel=0 note=61 velocity=127 time=0.019791666666666666\n",
      "note_on channel=0 note=60 velocity=127 time=0.03229166666666666\n",
      "note_off channel=0 note=60 velocity=127 time=0.019791666666666666\n",
      "note_on channel=0 note=60 velocity=127 time=0.06145833333333333\n",
      "note_off channel=0 note=60 velocity=127 time=0.019791666666666666\n",
      "note_on channel=0 note=61 velocity=127 time=0.005208333333333333\n",
      "note_off channel=0 note=61 velocity=127 time=0.019791666666666666\n",
      "note_on channel=0 note=62 velocity=127 time=0.021875\n",
      "note_on channel=0 note=60 velocity=127 time=0.013541666666666667\n",
      "note_off channel=0 note=62 velocity=127 time=0.00625\n",
      "note_off channel=0 note=60 velocity=127 time=0.013541666666666667\n",
      "note_on channel=0 note=60 velocity=127 time=0.06145833333333333\n",
      "note_off channel=0 note=60 velocity=127 time=0.019791666666666666\n",
      "note_on channel=0 note=61 velocity=127 time=0.003125\n",
      "note_off channel=0 note=61 velocity=127 time=0.019791666666666666\n",
      "note_on channel=0 note=60 velocity=127 time=0.03854166666666667\n",
      "note_off channel=0 note=60 velocity=127 time=0.019791666666666666\n",
      "note_on channel=0 note=60 velocity=127 time=0.06145833333333333\n",
      "note_on channel=0 note=61 velocity=127 time=0.019791666666666666\n",
      "note_off channel=0 note=60 velocity=127 time=0\n",
      "note_on channel=0 note=62 velocity=127 time=0.007291666666666667\n",
      "note_off channel=0 note=61 velocity=127 time=0.0125\n",
      "note_off channel=0 note=62 velocity=127 time=0.007291666666666667\n",
      "note_on channel=0 note=60 velocity=127 time=0.034375\n",
      "note_off channel=0 note=60 velocity=127 time=0.019791666666666666\n",
      "note_on channel=0 note=60 velocity=127 time=0.06145833333333333\n",
      "note_on channel=0 note=61 velocity=127 time=0.016666666666666666\n",
      "note_off channel=0 note=60 velocity=127 time=0.003125\n",
      "note_off channel=0 note=61 velocity=127 time=0.016666666666666666\n",
      "note_on channel=0 note=60 velocity=127 time=0.04479166666666667\n",
      "\u001b[91m [DEBUG] > \u001b[0m\n",
      " |>  to_array: msg.time > max_t; t, n\n",
      " |>  3.0302083333333374\n",
      " |>  150\n",
      "note_on channel=0 note=60 velocity=127 time=0.0010416666666666667\n",
      "note_off channel=0 note=60 velocity=127 time=0.019791666666666666\n",
      "note_on channel=0 note=62 velocity=127 time=0.052083333333333336\n",
      "note_on channel=0 note=61 velocity=127 time=0.015625\n",
      "note_off channel=0 note=62 velocity=127 time=0.005208333333333333\n",
      "note_off channel=0 note=61 velocity=127 time=0.015625\n",
      "note_on channel=0 note=60 velocity=127 time=0.020833333333333332\n",
      "note_on channel=0 note=62 velocity=127 time=0.017708333333333333\n",
      "note_off channel=0 note=60 velocity=127 time=0.0020833333333333333\n",
      "note_off channel=0 note=62 velocity=127 time=0.017708333333333333\n",
      "note_on channel=0 note=61 velocity=127 time=0.03958333333333333\n",
      "note_on channel=0 note=62 velocity=127 time=0.014583333333333334\n",
      "note_off channel=0 note=61 velocity=127 time=0.005208333333333333\n",
      "note_off channel=0 note=62 velocity=127 time=0.014583333333333334\n",
      "note_on channel=0 note=60 velocity=127 time=0.015625\n",
      "note_off channel=0 note=60 velocity=127 time=0.019791666666666666\n",
      "note_on channel=0 note=62 velocity=127 time=0.01875\n",
      "note_off channel=0 note=62 velocity=127 time=0.019791666666666666\n",
      "note_on channel=0 note=61 velocity=127 time=0.010416666666666666\n",
      "note_off channel=0 note=61 velocity=127 time=0.019791666666666666\n",
      "note_on channel=0 note=62 velocity=127 time=0.02395833333333333\n",
      "note_on channel=0 note=60 velocity=127 time=0.015625\n",
      "note_off channel=0 note=62 velocity=127 time=0.004166666666666667\n",
      "note_off channel=0 note=60 velocity=127 time=0.015625\n",
      "note_on channel=0 note=62 velocity=127 time=0.03854166666666667\n",
      "note_on channel=0 note=61 velocity=127 time=0\n",
      "note_off channel=0 note=62 velocity=127 time=0.019791666666666666\n",
      "note_off channel=0 note=61 velocity=127 time=0\n",
      "note_on channel=0 note=60 velocity=127 time=0.05\n",
      "note_on channel=0 note=62 velocity=127 time=0.004166666666666667\n",
      "note_off channel=0 note=60 velocity=127 time=0.015625\n",
      "note_off channel=0 note=62 velocity=127 time=0.004166666666666667\n",
      "note_on channel=0 note=61 velocity=127 time=0.025\n",
      "note_off channel=0 note=61 velocity=127 time=0.019791666666666666\n",
      "note_on channel=0 note=62 velocity=127 time=0.009375\n",
      "note_off channel=0 note=62 velocity=127 time=0.019791666666666666\n",
      "note_on channel=0 note=60 velocity=127 time=0.030208333333333334\n",
      "note_off channel=0 note=60 velocity=127 time=0.019791666666666666\n",
      "note_on channel=0 note=62 velocity=127 time=0.004166666666666667\n",
      "note_on channel=0 note=61 velocity=127 time=0.014583333333333334\n",
      "note_off channel=0 note=62 velocity=127 time=0.005208333333333333\n",
      "note_off channel=0 note=61 velocity=127 time=0.014583333333333334\n",
      "note_on channel=0 note=62 velocity=127 time=0.03958333333333333\n",
      "note_off channel=0 note=62 velocity=127 time=0.019791666666666666\n",
      "note_on channel=0 note=60 velocity=127 time=0.010416666666666666\n",
      "note_off channel=0 note=60 velocity=127 time=0.019791666666666666\n",
      "note_on channel=0 note=61 velocity=127 time=0.009375\n",
      "note_on channel=0 note=62 velocity=127 time=0.014583333333333334\n",
      "note_off channel=0 note=61 velocity=127 time=0.005208333333333333\n",
      "note_off channel=0 note=62 velocity=127 time=0.014583333333333334\n",
      "note_on channel=0 note=62 velocity=127 time=0.05416666666666667\n",
      "note_on channel=0 note=60 velocity=127 time=0.010416666666666666\n",
      "note_off channel=0 note=62 velocity=127 time=0.010416666666666666\n",
      "note_on channel=0 note=61 velocity=127 time=0.009375\n",
      "note_off channel=0 note=60 velocity=127 time=0\n",
      "note_off channel=0 note=61 velocity=127 time=0.019791666666666666\n",
      "note_on channel=0 note=62 velocity=127 time=0.025\n",
      "note_off channel=0 note=62 velocity=127 time=0.019791666666666666\n",
      "note_on channel=0 note=60 velocity=127 time=0.04375\n",
      "note_on channel=0 note=62 velocity=127 time=0.010416666666666666\n",
      "note_on channel=0 note=61 velocity=127 time=0\n",
      "note_off channel=0 note=60 velocity=127 time=0.009375\n",
      "note_off channel=0 note=62 velocity=127 time=0.010416666666666666\n",
      "note_off channel=0 note=61 velocity=127 time=0\n",
      "note_on channel=0 note=62 velocity=127 time=0.05416666666666667\n",
      "note_off channel=0 note=62 velocity=127 time=0.019791666666666666\n",
      "note_on channel=0 note=60 velocity=127 time=0.02395833333333333\n",
      "note_on channel=0 note=61 velocity=127 time=0\n",
      "note_off channel=0 note=60 velocity=127 time=0.019791666666666666\n",
      "note_off channel=0 note=61 velocity=127 time=0\n",
      "note_on channel=0 note=62 velocity=127 time=0.009375\n",
      "note_off channel=0 note=62 velocity=127 time=0.019791666666666666\n",
      "note_on channel=0 note=62 velocity=127 time=0.05416666666666667\n",
      "note_on channel=0 note=61 velocity=127 time=0.014583333333333334\n",
      "note_off channel=0 note=62 velocity=127 time=0.005208333333333333\n",
      "note_on channel=0 note=60 velocity=127 time=0.004166666666666667\n",
      "note_off channel=0 note=61 velocity=127 time=0.010416666666666666\n",
      "note_off channel=0 note=60 velocity=127 time=0.009375\n",
      "note_on channel=0 note=62 velocity=127 time=0.030208333333333334\n",
      "note_off channel=0 note=62 velocity=127 time=0.019791666666666666\n",
      "note_on channel=0 note=61 velocity=127 time=0.03958333333333333\n",
      "note_on channel=0 note=62 velocity=127 time=0.014583333333333334\n",
      "note_on channel=0 note=60 velocity=127 time=0.004166666666666667\n",
      "note_off channel=0 note=61 velocity=127 time=0.0010416666666666667\n",
      "note_off channel=0 note=62 velocity=127 time=0.014583333333333334\n",
      "note_off channel=0 note=60 velocity=127 time=0.004166666666666667\n",
      "note_on channel=0 note=62 velocity=127 time=0.05\n",
      "note_off channel=0 note=62 velocity=127 time=0.019791666666666666\n",
      "note_on channel=0 note=61 velocity=127 time=0.009375\n",
      "note_off channel=0 note=61 velocity=127 time=0.019791666666666666\n",
      "note_on channel=0 note=60 velocity=127 time=0.008333333333333333\n",
      "note_on channel=0 note=62 velocity=127 time=0.016666666666666666\n",
      "note_off channel=0 note=60 velocity=127 time=0.004166666666666667\n",
      "note_off channel=0 note=62 velocity=127 time=0.016666666666666666\n",
      "note_on channel=0 note=61 velocity=127 time=0.05416666666666667\n",
      "note_on channel=0 note=62 velocity=127 time=0\n",
      "note_off channel=0 note=61 velocity=127 time=0.019791666666666666\n",
      "note_off channel=0 note=62 velocity=127 time=0\n",
      "note_on channel=0 note=60 velocity=127 time=0.017708333333333333\n",
      "note_off channel=0 note=60 velocity=127 time=0.019791666666666666\n",
      "note_on channel=0 note=62 velocity=127 time=0.016666666666666666\n",
      "note_off channel=0 note=62 velocity=127 time=0.019791666666666666\n",
      "note_on channel=0 note=61 velocity=127 time=0.02395833333333333\n",
      "note_off channel=0 note=61 velocity=127 time=0.019791666666666666\n",
      "note_on channel=0 note=62 velocity=127 time=0.010416666666666666\n",
      "note_on channel=0 note=60 velocity=127 time=0.017708333333333333\n",
      "note_off channel=0 note=62 velocity=127 time=0.0020833333333333333\n",
      "note_off channel=0 note=60 velocity=127 time=0.017708333333333333\n",
      "note_on channel=0 note=62 velocity=127 time=0.036458333333333336\n",
      "note_on channel=0 note=61 velocity=127 time=0.014583333333333334\n",
      "note_off channel=0 note=62 velocity=127 time=0.005208333333333333\n",
      "note_off channel=0 note=61 velocity=127 time=0.014583333333333334\n",
      "note_on channel=0 note=60 velocity=127 time=0.0375\n",
      "note_on channel=0 note=62 velocity=127 time=0.0020833333333333333\n",
      "note_off channel=0 note=60 velocity=127 time=0.017708333333333333\n",
      "note_off channel=0 note=62 velocity=127 time=0.0020833333333333333\n",
      "note_on channel=0 note=61 velocity=127 time=0.03958333333333333\n",
      "note_on channel=0 note=62 velocity=127 time=0.015625\n",
      "note_off channel=0 note=61 velocity=127 time=0.005208333333333333\n",
      "note_off channel=0 note=62 velocity=127 time=0.015625\n",
      "note_on channel=0 note=60 velocity=127 time=0.03229166666666666\n",
      "note_off channel=0 note=60 velocity=127 time=0.019791666666666666\n",
      "note_on channel=0 note=62 velocity=127 time=0.0020833333333333333\n",
      "note_off channel=0 note=62 velocity=127 time=0.019791666666666666\n",
      "note_on channel=0 note=61 velocity=127 time=0.009375\n",
      "note_off channel=0 note=61 velocity=127 time=0.019791666666666666\n",
      "note_on channel=0 note=62 velocity=127 time=0.025\n",
      "note_off channel=0 note=62 velocity=127 time=0.019791666666666666\n",
      "note_on channel=0 note=60 velocity=127 time=0.0125\n",
      "note_off channel=0 note=60 velocity=127 time=0.019791666666666666\n",
      "note_on channel=0 note=61 velocity=127 time=0.021875\n",
      "note_on channel=0 note=62 velocity=127 time=0\n",
      "note_off channel=0 note=61 velocity=127 time=0.019791666666666666\n",
      "note_off channel=0 note=62 velocity=127 time=0\n",
      "note_on channel=0 note=62 velocity=127 time=0.05416666666666667\n",
      "note_on channel=0 note=60 velocity=127 time=0.011458333333333333\n",
      "note_off channel=0 note=62 velocity=127 time=0.008333333333333333\n",
      "note_off channel=0 note=60 velocity=127 time=0.011458333333333333\n",
      "note_on channel=0 note=61 velocity=127 time=0.0125\n",
      "note_off channel=0 note=61 velocity=127 time=0.019791666666666666\n",
      "note_on channel=0 note=62 velocity=127 time=0.010416666666666666\n",
      "note_off channel=0 note=62 velocity=127 time=0.019791666666666666\n",
      "note_on channel=0 note=60 velocity=127 time=0.04583333333333333\n",
      "note_on channel=0 note=62 velocity=127 time=0.008333333333333333\n",
      "note_off channel=0 note=60 velocity=127 time=0.011458333333333333\n",
      "note_on channel=0 note=61 velocity=127 time=0.0020833333333333333\n",
      "note_off channel=0 note=62 velocity=127 time=0.005208333333333333\n",
      "note_off channel=0 note=61 velocity=127 time=0.014583333333333334\n",
      "note_on channel=0 note=62 velocity=127 time=0.03958333333333333\n",
      "note_off channel=0 note=62 velocity=127 time=0.019791666666666666\n",
      "note_on channel=0 note=60 velocity=127 time=0.026041666666666668\n",
      "note_on channel=0 note=61 velocity=127 time=0.0125\n",
      "note_off channel=0 note=60 velocity=127 time=0.007291666666666667\n",
      "note_on channel=0 note=62 velocity=127 time=0.008333333333333333\n",
      "note_off channel=0 note=61 velocity=127 time=0.004166666666666667\n",
      "note_off channel=0 note=62 velocity=127 time=0.015625\n",
      "note_on channel=0 note=62 velocity=127 time=0.05416666666666667\n",
      "note_off channel=0 note=62 velocity=127 time=0.019791666666666666\n",
      "note_on channel=0 note=60 velocity=127 time=0.00625\n",
      "note_on channel=0 note=61 velocity=127 time=0.003125\n",
      "note_off channel=0 note=60 velocity=127 time=0.016666666666666666\n",
      "note_off channel=0 note=61 velocity=127 time=0.003125\n",
      "note_on channel=0 note=62 velocity=127 time=0.025\n",
      "note_off channel=0 note=62 velocity=127 time=0.019791666666666666\n",
      "note_on channel=0 note=61 velocity=127 time=0.05416666666666667\n",
      "note_on channel=0 note=62 velocity=127 time=0.0010416666666666667\n",
      "note_on channel=0 note=60 velocity=127 time=0.00625\n",
      "note_off channel=0 note=61 velocity=127 time=0.013541666666666667\n",
      "note_off channel=0 note=62 velocity=127 time=0.0010416666666666667\n",
      "note_off channel=0 note=60 velocity=127 time=0.00625\n",
      "note_on channel=0 note=62 velocity=127 time=0.04791666666666666\n",
      "note_off channel=0 note=62 velocity=127 time=0.019791666666666666\n",
      "note_on channel=0 note=61 velocity=127 time=0.02395833333333333\n",
      "note_on channel=0 note=60 velocity=127 time=0.016666666666666666\n",
      "note_off channel=0 note=61 velocity=127 time=0.004166666666666667\n",
      "note_on channel=0 note=62 velocity=127 time=0.010416666666666666\n",
      "note_off channel=0 note=60 velocity=127 time=0.00625\n",
      "note_off channel=0 note=62 velocity=127 time=0.014583333333333334\n",
      "note_on channel=0 note=62 velocity=127 time=0.05416666666666667\n",
      "\u001b[91m [DEBUG] > \u001b[0m\n",
      " |>  to_array: msg.time > max_t; t, n\n",
      " |>  3.038541666666669\n",
      " |>  150\n",
      "note_on channel=0 note=62 velocity=127 time=0.0375\n",
      "note_on channel=0 note=61 velocity=127 time=0.014583333333333334\n",
      "note_off channel=0 note=62 velocity=127 time=0.005208333333333333\n",
      "note_off channel=0 note=61 velocity=127 time=0.014583333333333334\n",
      "note_on channel=0 note=60 velocity=127 time=0.025\n",
      "note_off channel=0 note=60 velocity=127 time=0.019791666666666666\n",
      "note_on channel=0 note=61 velocity=127 time=0.004166666666666667\n",
      "note_off channel=0 note=61 velocity=127 time=0.019791666666666666\n",
      "note_on channel=0 note=62 velocity=127 time=0.0010416666666666667\n",
      "note_off channel=0 note=62 velocity=127 time=0.019791666666666666\n",
      "note_on channel=0 note=61 velocity=127 time=0.028125\n",
      "note_off channel=0 note=61 velocity=127 time=0.019791666666666666\n",
      "note_on channel=0 note=60 velocity=127 time=0.034375\n",
      "note_on channel=0 note=62 velocity=127 time=0.003125\n",
      "note_on channel=0 note=61 velocity=127 time=0.011458333333333333\n",
      "note_off channel=0 note=60 velocity=127 time=0.00625\n",
      "note_off channel=0 note=62 velocity=127 time=0.003125\n",
      "note_off channel=0 note=61 velocity=127 time=0.011458333333333333\n",
      "note_on channel=0 note=61 velocity=127 time=0.04895833333333333\n",
      "note_off channel=0 note=61 velocity=127 time=0.019791666666666666\n",
      "note_on channel=0 note=62 velocity=127 time=0.005208333333333333\n",
      "note_off channel=0 note=62 velocity=127 time=0.019791666666666666\n",
      "note_on channel=0 note=60 velocity=127 time=0.019791666666666666\n",
      "note_on channel=0 note=61 velocity=127 time=0.004166666666666667\n",
      "note_off channel=0 note=60 velocity=127 time=0.016666666666666666\n",
      "note_off channel=0 note=61 velocity=127 time=0.004166666666666667\n",
      "note_on channel=0 note=62 velocity=127 time=0.041666666666666664\n",
      "note_on channel=0 note=61 velocity=127 time=0.007291666666666667\n",
      "note_off channel=0 note=62 velocity=127 time=0.0125\n",
      "note_off channel=0 note=61 velocity=127 time=0.007291666666666667\n",
      "note_on channel=0 note=61 velocity=127 time=0.04895833333333333\n",
      "note_on channel=0 note=60 velocity=127 time=0.00625\n",
      "note_off channel=0 note=61 velocity=127 time=0.013541666666666667\n",
      "note_off channel=0 note=60 velocity=127 time=0.00625\n",
      "note_on channel=0 note=62 velocity=127 time=0.0020833333333333333\n",
      "note_off channel=0 note=62 velocity=127 time=0.019791666666666666\n",
      "note_on channel=0 note=61 velocity=127 time=0.019791666666666666\n",
      "note_off channel=0 note=61 velocity=127 time=0.019791666666666666\n",
      "note_on channel=0 note=62 velocity=127 time=0.04479166666666667\n",
      "note_on channel=0 note=61 velocity=127 time=0.004166666666666667\n",
      "note_off channel=0 note=62 velocity=127 time=0.015625\n",
      "note_on channel=0 note=60 velocity=127 time=0.0010416666666666667\n",
      "note_off channel=0 note=61 velocity=127 time=0.003125\n",
      "note_off channel=0 note=60 velocity=127 time=0.016666666666666666\n",
      "note_on channel=0 note=61 velocity=127 time=0.03229166666666666\n",
      "note_off channel=0 note=61 velocity=127 time=0.019791666666666666\n",
      "note_on channel=0 note=62 velocity=127 time=0.0125\n",
      "note_off channel=0 note=62 velocity=127 time=0.019791666666666666\n",
      "note_on channel=0 note=61 velocity=127 time=0.016666666666666666\n",
      "note_off channel=0 note=61 velocity=127 time=0.019791666666666666\n",
      "note_on channel=0 note=60 velocity=127 time=0.007291666666666667\n",
      "note_off channel=0 note=60 velocity=127 time=0.019791666666666666\n",
      "note_on channel=0 note=62 velocity=127 time=0.021875\n",
      "note_on channel=0 note=61 velocity=127 time=0\n",
      "note_off channel=0 note=62 velocity=127 time=0.019791666666666666\n",
      "note_off channel=0 note=61 velocity=127 time=0\n",
      "note_on channel=0 note=61 velocity=127 time=0.04895833333333333\n",
      "note_off channel=0 note=61 velocity=127 time=0.019791666666666666\n",
      "note_on channel=0 note=62 velocity=127 time=0.015625\n",
      "note_on channel=0 note=60 velocity=127 time=0.0010416666666666667\n",
      "note_off channel=0 note=62 velocity=127 time=0.01875\n",
      "note_off channel=0 note=60 velocity=127 time=0.0010416666666666667\n",
      "note_on channel=0 note=61 velocity=127 time=0.011458333333333333\n",
      "note_off channel=0 note=61 velocity=127 time=0.019791666666666666\n",
      "note_on channel=0 note=61 velocity=127 time=0.04895833333333333\n",
      "note_on channel=0 note=62 velocity=127 time=0.003125\n",
      "note_off channel=0 note=61 velocity=127 time=0.016666666666666666\n",
      "note_off channel=0 note=62 velocity=127 time=0.003125\n",
      "note_on channel=0 note=60 velocity=127 time=0.02395833333333333\n",
      "note_off channel=0 note=60 velocity=127 time=0.019791666666666666\n",
      "note_on channel=0 note=61 velocity=127 time=0.0010416666666666667\n",
      "note_off channel=0 note=61 velocity=127 time=0.019791666666666666\n",
      "note_on channel=0 note=62 velocity=127 time=0.019791666666666666\n",
      "note_off channel=0 note=62 velocity=127 time=0.019791666666666666\n",
      "note_on channel=0 note=61 velocity=127 time=0.009375\n",
      "note_off channel=0 note=61 velocity=127 time=0.019791666666666666\n",
      "note_on channel=0 note=60 velocity=127 time=0.0375\n",
      "note_on channel=0 note=61 velocity=127 time=0.011458333333333333\n",
      "note_on channel=0 note=62 velocity=127 time=0.007291666666666667\n",
      "note_off channel=0 note=60 velocity=127 time=0.0020833333333333333\n",
      "note_off channel=0 note=61 velocity=127 time=0.011458333333333333\n",
      "note_off channel=0 note=62 velocity=127 time=0.007291666666666667\n",
      "note_on channel=0 note=61 velocity=127 time=0.041666666666666664\n",
      "note_off channel=0 note=61 velocity=127 time=0.019791666666666666\n",
      "note_on channel=0 note=62 velocity=127 time=0.022916666666666665\n",
      "note_off channel=0 note=62 velocity=127 time=0.019791666666666666\n",
      "note_on channel=0 note=60 velocity=127 time=0.005208333333333333\n",
      "note_on channel=0 note=61 velocity=127 time=0.0010416666666666667\n",
      "note_off channel=0 note=60 velocity=127 time=0.01875\n",
      "note_off channel=0 note=61 velocity=127 time=0.0010416666666666667\n",
      "note_on channel=0 note=61 velocity=127 time=0.04895833333333333\n",
      "note_on channel=0 note=62 velocity=127 time=0.010416666666666666\n",
      "note_off channel=0 note=61 velocity=127 time=0.009375\n",
      "note_off channel=0 note=62 velocity=127 time=0.010416666666666666\n",
      "note_on channel=0 note=61 velocity=127 time=0.03854166666666667\n",
      "note_on channel=0 note=60 velocity=127 time=0.009375\n",
      "note_off channel=0 note=61 velocity=127 time=0.010416666666666666\n",
      "note_off channel=0 note=60 velocity=127 time=0.009375\n",
      "note_on channel=0 note=62 velocity=127 time=0.017708333333333333\n",
      "note_off channel=0 note=62 velocity=127 time=0.019791666666666666\n",
      "note_on channel=0 note=61 velocity=127 time=0.0020833333333333333\n",
      "note_off channel=0 note=61 velocity=127 time=0.019791666666666666\n",
      "note_on channel=0 note=61 velocity=127 time=0.04895833333333333\n",
      "note_on channel=0 note=62 velocity=127 time=0.014583333333333334\n",
      "note_on channel=0 note=60 velocity=127 time=0.005208333333333333\n",
      "note_off channel=0 note=61 velocity=127 time=0\n",
      "note_off channel=0 note=62 velocity=127 time=0.014583333333333334\n",
      "note_off channel=0 note=60 velocity=127 time=0.005208333333333333\n",
      "note_on channel=0 note=61 velocity=127 time=0.029166666666666667\n",
      "note_off channel=0 note=61 velocity=127 time=0.019791666666666666\n",
      "note_on channel=0 note=62 velocity=127 time=0.030208333333333334\n",
      "note_on channel=0 note=61 velocity=127 time=0.017708333333333333\n",
      "note_off channel=0 note=62 velocity=127 time=0.0020833333333333333\n",
      "note_off channel=0 note=61 velocity=127 time=0.017708333333333333\n",
      "note_on channel=0 note=60 velocity=127 time=0.010416666666666666\n",
      "note_off channel=0 note=60 velocity=127 time=0.019791666666666666\n",
      "note_on channel=0 note=61 velocity=127 time=0.01875\n",
      "note_on channel=0 note=62 velocity=127 time=0.017708333333333333\n",
      "note_off channel=0 note=61 velocity=127 time=0.0020833333333333333\n",
      "note_off channel=0 note=62 velocity=127 time=0.017708333333333333\n",
      "note_on channel=0 note=61 velocity=127 time=0.03125\n",
      "note_off channel=0 note=61 velocity=127 time=0.019791666666666666\n",
      "note_on channel=0 note=60 velocity=127 time=0.019791666666666666\n",
      "note_on channel=0 note=62 velocity=127 time=0.014583333333333334\n",
      "note_off channel=0 note=60 velocity=127 time=0.00625\n",
      "note_on channel=0 note=61 velocity=127 time=0.008333333333333333\n",
      "note_off channel=0 note=62 velocity=127 time=0.005208333333333333\n",
      "note_off channel=0 note=61 velocity=127 time=0.014583333333333334\n",
      "note_on channel=0 note=61 velocity=127 time=0.04895833333333333\n",
      "note_off channel=0 note=61 velocity=127 time=0.019791666666666666\n",
      "note_on channel=0 note=62 velocity=127 time=0.0020833333333333333\n",
      "note_off channel=0 note=62 velocity=127 time=0.019791666666666666\n",
      "note_on channel=0 note=60 velocity=127 time=0.008333333333333333\n",
      "note_on channel=0 note=61 velocity=127 time=0.01875\n",
      "note_off channel=0 note=60 velocity=127 time=0.0020833333333333333\n",
      "note_off channel=0 note=61 velocity=127 time=0.01875\n",
      "note_on channel=0 note=62 velocity=127 time=0.03854166666666667\n",
      "note_on channel=0 note=61 velocity=127 time=0.010416666666666666\n",
      "note_off channel=0 note=62 velocity=127 time=0.009375\n",
      "note_off channel=0 note=61 velocity=127 time=0.010416666666666666\n",
      "note_on channel=0 note=60 velocity=127 time=0.040625\n",
      "note_on channel=0 note=61 velocity=127 time=0.008333333333333333\n",
      "note_off channel=0 note=60 velocity=127 time=0.011458333333333333\n",
      "note_off channel=0 note=61 velocity=127 time=0.008333333333333333\n",
      "note_on channel=0 note=62 velocity=127 time=0.005208333333333333\n",
      "note_off channel=0 note=62 velocity=127 time=0.019791666666666666\n",
      "note_on channel=0 note=61 velocity=127 time=0.02395833333333333\n",
      "note_off channel=0 note=61 velocity=127 time=0.019791666666666666\n",
      "note_on channel=0 note=62 velocity=127 time=0.041666666666666664\n",
      "note_on channel=0 note=61 velocity=127 time=0.007291666666666667\n",
      "note_on channel=0 note=60 velocity=127 time=0.0020833333333333333\n",
      "note_off channel=0 note=62 velocity=127 time=0.010416666666666666\n",
      "note_off channel=0 note=61 velocity=127 time=0.007291666666666667\n",
      "note_off channel=0 note=60 velocity=127 time=0.0020833333333333333\n",
      "note_on channel=0 note=61 velocity=127 time=0.046875\n",
      "note_off channel=0 note=61 velocity=127 time=0.019791666666666666\n",
      "note_on channel=0 note=62 velocity=127 time=0.009375\n",
      "note_off channel=0 note=62 velocity=127 time=0.019791666666666666\n",
      "note_on channel=0 note=61 velocity=127 time=0.019791666666666666\n",
      "note_on channel=0 note=60 velocity=127 time=0.0125\n",
      "note_off channel=0 note=61 velocity=127 time=0.007291666666666667\n",
      "note_off channel=0 note=60 velocity=127 time=0.0125\n",
      "note_on channel=0 note=62 velocity=127 time=0.03333333333333333\n",
      "note_on channel=0 note=61 velocity=127 time=0.003125\n",
      "note_off channel=0 note=62 velocity=127 time=0.016666666666666666\n",
      "note_off channel=0 note=61 velocity=127 time=0.003125\n",
      "note_on channel=0 note=61 velocity=127 time=0.04895833333333333\n",
      "note_off channel=0 note=61 velocity=127 time=0.019791666666666666\n",
      "note_on channel=0 note=60 velocity=127 time=0.003125\n",
      "note_on channel=0 note=62 velocity=127 time=0.010416666666666666\n",
      "note_off channel=0 note=60 velocity=127 time=0.009375\n",
      "note_off channel=0 note=62 velocity=127 time=0.010416666666666666\n",
      "note_on channel=0 note=61 velocity=127 time=0.015625\n",
      "note_off channel=0 note=61 velocity=127 time=0.019791666666666666\n",
      "note_on channel=0 note=61 velocity=127 time=0.04895833333333333\n",
      "note_on channel=0 note=62 velocity=127 time=0\n",
      "note_off channel=0 note=61 velocity=127 time=0.019791666666666666\n",
      "note_off channel=0 note=62 velocity=127 time=0\n",
      "note_on channel=0 note=60 velocity=127 time=0.0125\n",
      "note_off channel=0 note=60 velocity=127 time=0.019791666666666666\n",
      "note_on channel=0 note=61 velocity=127 time=0.015625\n",
      "note_off channel=0 note=61 velocity=127 time=0.019791666666666666\n",
      "note_on channel=0 note=62 velocity=127 time=0.016666666666666666\n",
      "note_off channel=0 note=62 velocity=127 time=0.019791666666666666\n",
      "\u001b[91m [DEBUG] > \u001b[0m\n",
      " |>  to_array: msg.time > max_t; t, n\n",
      " |>  2.994791666666668\n",
      " |>  150\n",
      "note_on channel=0 note=60 velocity=127 time=0.0020833333333333333\n",
      "note_on channel=0 note=61 velocity=127 time=0.007291666666666667\n",
      "note_off channel=0 note=60 velocity=127 time=0.0125\n",
      "note_off channel=0 note=61 velocity=127 time=0.007291666666666667\n",
      "note_on channel=0 note=62 velocity=127 time=0\n",
      "note_off channel=0 note=62 velocity=127 time=0.019791666666666666\n",
      "note_on channel=0 note=60 velocity=127 time=0.03333333333333333\n",
      "note_on channel=0 note=61 velocity=127 time=0.008333333333333333\n",
      "note_off channel=0 note=60 velocity=127 time=0.011458333333333333\n",
      "note_off channel=0 note=61 velocity=127 time=0.008333333333333333\n",
      "note_on channel=0 note=60 velocity=127 time=0.053125\n",
      "note_on channel=0 note=61 velocity=127 time=0.008333333333333333\n",
      "note_off channel=0 note=60 velocity=127 time=0.011458333333333333\n",
      "note_off channel=0 note=61 velocity=127 time=0.008333333333333333\n",
      "note_on channel=0 note=62 velocity=127 time=0.04895833333333333\n",
      "note_on channel=0 note=60 velocity=127 time=0.003125\n",
      "note_on channel=0 note=61 velocity=127 time=0.009375\n",
      "note_off channel=0 note=62 velocity=127 time=0.007291666666666667\n",
      "note_off channel=0 note=60 velocity=127 time=0.003125\n",
      "note_off channel=0 note=61 velocity=127 time=0.009375\n",
      "note_on channel=0 note=60 velocity=127 time=0.052083333333333336\n",
      "note_on channel=0 note=61 velocity=127 time=0.009375\n",
      "note_off channel=0 note=60 velocity=127 time=0.010416666666666666\n",
      "note_off channel=0 note=61 velocity=127 time=0.009375\n",
      "note_on channel=0 note=60 velocity=127 time=0.052083333333333336\n",
      "note_on channel=0 note=61 velocity=127 time=0.009375\n",
      "note_off channel=0 note=60 velocity=127 time=0.010416666666666666\n",
      "note_off channel=0 note=61 velocity=127 time=0.009375\n",
      "note_on channel=0 note=62 velocity=127 time=0.016666666666666666\n",
      "note_off channel=0 note=62 velocity=127 time=0.019791666666666666\n",
      "note_on channel=0 note=60 velocity=127 time=0.015625\n",
      "note_on channel=0 note=61 velocity=127 time=0.010416666666666666\n",
      "note_off channel=0 note=60 velocity=127 time=0.009375\n",
      "note_off channel=0 note=61 velocity=127 time=0.010416666666666666\n",
      "note_on channel=0 note=60 velocity=127 time=0.051041666666666666\n",
      "note_on channel=0 note=61 velocity=127 time=0.010416666666666666\n",
      "note_off channel=0 note=60 velocity=127 time=0.009375\n",
      "note_off channel=0 note=61 velocity=127 time=0.010416666666666666\n",
      "note_on channel=0 note=60 velocity=127 time=0.051041666666666666\n",
      "note_on channel=0 note=61 velocity=127 time=0.011458333333333333\n",
      "note_on channel=0 note=62 velocity=127 time=0.003125\n",
      "note_off channel=0 note=60 velocity=127 time=0.005208333333333333\n",
      "note_off channel=0 note=61 velocity=127 time=0.011458333333333333\n",
      "note_off channel=0 note=62 velocity=127 time=0.003125\n",
      "note_on channel=0 note=60 velocity=127 time=0.046875\n",
      "note_on channel=0 note=61 velocity=127 time=0.011458333333333333\n",
      "note_off channel=0 note=60 velocity=127 time=0.008333333333333333\n",
      "note_off channel=0 note=61 velocity=127 time=0.011458333333333333\n",
      "note_on channel=0 note=60 velocity=127 time=0.05\n",
      "note_on channel=0 note=61 velocity=127 time=0.011458333333333333\n",
      "note_off channel=0 note=60 velocity=127 time=0.008333333333333333\n",
      "note_off channel=0 note=61 velocity=127 time=0.011458333333333333\n",
      "note_on channel=0 note=62 velocity=127 time=0.03229166666666666\n",
      "note_on channel=0 note=60 velocity=127 time=0.017708333333333333\n",
      "note_off channel=0 note=62 velocity=127 time=0.003125\n",
      "note_on channel=0 note=61 velocity=127 time=0.009375\n",
      "note_off channel=0 note=60 velocity=127 time=0.007291666666666667\n",
      "note_off channel=0 note=61 velocity=127 time=0.0125\n",
      "note_on channel=0 note=60 velocity=127 time=0.04895833333333333\n",
      "note_on channel=0 note=61 velocity=127 time=0.0125\n",
      "note_off channel=0 note=60 velocity=127 time=0.007291666666666667\n",
      "note_off channel=0 note=61 velocity=127 time=0.0125\n",
      "note_on channel=0 note=60 velocity=127 time=0.04895833333333333\n",
      "note_on channel=0 note=61 velocity=127 time=0.013541666666666667\n",
      "note_off channel=0 note=60 velocity=127 time=0.00625\n",
      "note_on channel=0 note=62 velocity=127 time=0.0125\n",
      "note_off channel=0 note=61 velocity=127 time=0.0010416666666666667\n",
      "note_off channel=0 note=62 velocity=127 time=0.01875\n",
      "note_on channel=0 note=60 velocity=127 time=0.029166666666666667\n",
      "note_on channel=0 note=61 velocity=127 time=0.013541666666666667\n",
      "note_off channel=0 note=60 velocity=127 time=0.00625\n",
      "note_off channel=0 note=61 velocity=127 time=0.013541666666666667\n",
      "note_on channel=0 note=60 velocity=127 time=0.04791666666666666\n",
      "note_on channel=0 note=61 velocity=127 time=0.014583333333333334\n",
      "note_off channel=0 note=60 velocity=127 time=0.00625\n",
      "note_off channel=0 note=61 velocity=127 time=0.014583333333333334\n",
      "note_on channel=0 note=60 velocity=127 time=0.046875\n",
      "note_on channel=0 note=62 velocity=127 time=0.0010416666666666667\n",
      "note_on channel=0 note=61 velocity=127 time=0.013541666666666667\n",
      "note_off channel=0 note=60 velocity=127 time=0.005208333333333333\n",
      "note_off channel=0 note=62 velocity=127 time=0.0010416666666666667\n",
      "note_off channel=0 note=61 velocity=127 time=0.013541666666666667\n",
      "note_on channel=0 note=60 velocity=127 time=0.046875\n",
      "note_on channel=0 note=61 velocity=127 time=0.014583333333333334\n",
      "note_off channel=0 note=60 velocity=127 time=0.005208333333333333\n",
      "note_off channel=0 note=61 velocity=127 time=0.014583333333333334\n",
      "note_on channel=0 note=60 velocity=127 time=0.04583333333333333\n",
      "note_on channel=0 note=61 velocity=127 time=0.015625\n",
      "note_off channel=0 note=60 velocity=127 time=0.004166666666666667\n",
      "note_off channel=0 note=61 velocity=127 time=0.015625\n"
     ]
    },
    {
     "name": "stdout",
     "output_type": "stream",
     "text": [
      "note_on channel=0 note=62 velocity=127 time=0.014583333333333334\n",
      "note_off channel=0 note=62 velocity=127 time=0.019791666666666666\n",
      "note_on channel=0 note=60 velocity=127 time=0.011458333333333333\n",
      "note_on channel=0 note=61 velocity=127 time=0.015625\n",
      "note_off channel=0 note=60 velocity=127 time=0.004166666666666667\n",
      "note_off channel=0 note=61 velocity=127 time=0.015625\n",
      "note_on channel=0 note=60 velocity=127 time=0.04583333333333333\n",
      "note_on channel=0 note=61 velocity=127 time=0.016666666666666666\n",
      "note_off channel=0 note=60 velocity=127 time=0.004166666666666667\n",
      "note_off channel=0 note=61 velocity=127 time=0.016666666666666666\n",
      "note_on channel=0 note=60 velocity=127 time=0.04479166666666667\n",
      "note_on channel=0 note=61 velocity=127 time=0.016666666666666666\n",
      "note_on channel=0 note=62 velocity=127 time=0.0020833333333333333\n",
      "note_off channel=0 note=60 velocity=127 time=0.0010416666666666667\n",
      "note_off channel=0 note=61 velocity=127 time=0.016666666666666666\n",
      "note_off channel=0 note=62 velocity=127 time=0.0020833333333333333\n",
      "note_on channel=0 note=60 velocity=127 time=0.042708333333333334\n",
      "note_on channel=0 note=61 velocity=127 time=0.016666666666666666\n",
      "note_off channel=0 note=60 velocity=127 time=0.003125\n",
      "note_off channel=0 note=61 velocity=127 time=0.016666666666666666\n",
      "note_on channel=0 note=60 velocity=127 time=0.04375\n",
      "note_on channel=0 note=61 velocity=127 time=0.017708333333333333\n",
      "note_off channel=0 note=60 velocity=127 time=0.0020833333333333333\n",
      "note_off channel=0 note=61 velocity=127 time=0.017708333333333333\n",
      "note_on channel=0 note=62 velocity=127 time=0.030208333333333334\n",
      "note_on channel=0 note=60 velocity=127 time=0.013541666666666667\n",
      "note_off channel=0 note=62 velocity=127 time=0.007291666666666667\n",
      "note_on channel=0 note=61 velocity=127 time=0.011458333333333333\n",
      "note_off channel=0 note=60 velocity=127 time=0.0020833333333333333\n",
      "note_off channel=0 note=61 velocity=127 time=0.017708333333333333\n",
      "note_on channel=0 note=60 velocity=127 time=0.04375\n",
      "note_on channel=0 note=61 velocity=127 time=0.01875\n",
      "note_off channel=0 note=60 velocity=127 time=0.0010416666666666667\n",
      "note_off channel=0 note=61 velocity=127 time=0.01875\n",
      "note_on channel=0 note=60 velocity=127 time=0.042708333333333334\n",
      "note_on channel=0 note=61 velocity=127 time=0.01875\n",
      "note_off channel=0 note=60 velocity=127 time=0.0010416666666666667\n",
      "note_on channel=0 note=62 velocity=127 time=0.016666666666666666\n",
      "note_off channel=0 note=61 velocity=127 time=0.0020833333333333333\n",
      "note_off channel=0 note=62 velocity=127 time=0.017708333333333333\n",
      "note_on channel=0 note=60 velocity=127 time=0.025\n",
      "note_on channel=0 note=61 velocity=127 time=0.019791666666666666\n",
      "note_off channel=0 note=60 velocity=127 time=0.0010416666666666667\n",
      "note_off channel=0 note=61 velocity=127 time=0.019791666666666666\n",
      "note_on channel=0 note=60 velocity=127 time=0.041666666666666664\n",
      "note_on channel=0 note=61 velocity=127 time=0.019791666666666666\n",
      "note_off channel=0 note=60 velocity=127 time=0\n",
      "note_off channel=0 note=61 velocity=127 time=0.019791666666666666\n",
      "note_on channel=0 note=60 velocity=127 time=0.041666666666666664\n",
      "note_on channel=0 note=62 velocity=127 time=0.005208333333333333\n",
      "note_off channel=0 note=60 velocity=127 time=0.015625\n",
      "note_on channel=0 note=61 velocity=127 time=0\n",
      "note_off channel=0 note=62 velocity=127 time=0.004166666666666667\n",
      "note_off channel=0 note=61 velocity=127 time=0.015625\n",
      "note_on channel=0 note=60 velocity=127 time=0.040625\n",
      "note_off channel=0 note=60 velocity=127 time=0.019791666666666666\n",
      "note_on channel=0 note=61 velocity=127 time=0.0010416666666666667\n",
      "note_off channel=0 note=61 velocity=127 time=0.019791666666666666\n",
      "note_on channel=0 note=60 velocity=127 time=0.040625\n",
      "note_off channel=0 note=60 velocity=127 time=0.019791666666666666\n",
      "note_on channel=0 note=61 velocity=127 time=0.0010416666666666667\n",
      "note_off channel=0 note=61 velocity=127 time=0.019791666666666666\n",
      "note_on channel=0 note=62 velocity=127 time=0.013541666666666667\n",
      "note_off channel=0 note=62 velocity=127 time=0.019791666666666666\n",
      "note_on channel=0 note=60 velocity=127 time=0.007291666666666667\n",
      "note_off channel=0 note=60 velocity=127 time=0.019791666666666666\n",
      "note_on channel=0 note=61 velocity=127 time=0.0010416666666666667\n",
      "note_off channel=0 note=61 velocity=127 time=0.019791666666666666\n",
      "note_on channel=0 note=60 velocity=127 time=0.03958333333333333\n",
      "note_off channel=0 note=60 velocity=127 time=0.019791666666666666\n",
      "note_on channel=0 note=61 velocity=127 time=0.0020833333333333333\n",
      "note_off channel=0 note=61 velocity=127 time=0.019791666666666666\n",
      "note_on channel=0 note=60 velocity=127 time=0.03958333333333333\n",
      "note_off channel=0 note=60 velocity=127 time=0.019791666666666666\n",
      "note_on channel=0 note=61 velocity=127 time=0.0020833333333333333\n",
      "note_on channel=0 note=62 velocity=127 time=0\n",
      "note_off channel=0 note=61 velocity=127 time=0.019791666666666666\n",
      "note_off channel=0 note=62 velocity=127 time=0\n",
      "note_on channel=0 note=60 velocity=127 time=0.03854166666666667\n",
      "note_off channel=0 note=60 velocity=127 time=0.019791666666666666\n",
      "note_on channel=0 note=61 velocity=127 time=0.003125\n",
      "note_off channel=0 note=61 velocity=127 time=0.019791666666666666\n",
      "note_on channel=0 note=60 velocity=127 time=0.03854166666666667\n",
      "note_off channel=0 note=60 velocity=127 time=0.019791666666666666\n",
      "note_on channel=0 note=61 velocity=127 time=0.003125\n",
      "note_off channel=0 note=61 velocity=127 time=0.019791666666666666\n",
      "note_on channel=0 note=62 velocity=127 time=0.029166666666666667\n",
      "\u001b[91m [DEBUG] > \u001b[0m\n",
      " |>  to_array: msg.time > max_t; t, n\n",
      " |>  2.9968750000000024\n",
      " |>  150\n",
      "note_on channel=0 note=60 velocity=127 time=0.014583333333333334\n",
      "note_off channel=0 note=60 velocity=127 time=0.019791666666666666\n",
      "note_on channel=0 note=62 velocity=127 time=0.03333333333333333\n",
      "note_off channel=0 note=62 velocity=127 time=0.019791666666666666\n",
      "note_on channel=0 note=61 velocity=127 time=0.029166666666666667\n",
      "note_off channel=0 note=61 velocity=127 time=0.019791666666666666\n",
      "note_on channel=0 note=62 velocity=127 time=0.010416666666666666\n",
      "note_on channel=0 note=60 velocity=127 time=0.0010416666666666667\n",
      "note_off channel=0 note=62 velocity=127 time=0.01875\n",
      "note_off channel=0 note=60 velocity=127 time=0.0010416666666666667\n",
      "note_on channel=0 note=62 velocity=127 time=0.058333333333333334\n",
      "note_off channel=0 note=62 velocity=127 time=0.019791666666666666\n",
      "note_on channel=0 note=61 velocity=127 time=0.0010416666666666667\n",
      "note_off channel=0 note=61 velocity=127 time=0.019791666666666666\n",
      "note_on channel=0 note=60 velocity=127 time=0.014583333333333334\n",
      "note_off channel=0 note=60 velocity=127 time=0.019791666666666666\n",
      "note_on channel=0 note=62 velocity=127 time=0.003125\n",
      "note_off channel=0 note=62 velocity=127 time=0.019791666666666666\n",
      "note_on channel=0 note=61 velocity=127 time=0.052083333333333336\n",
      "note_on channel=0 note=62 velocity=127 time=0.007291666666666667\n",
      "note_off channel=0 note=61 velocity=127 time=0.013541666666666667\n",
      "note_off channel=0 note=62 velocity=127 time=0.007291666666666667\n",
      "note_on channel=0 note=60 velocity=127 time=0.010416666666666666\n",
      "note_off channel=0 note=60 velocity=127 time=0.019791666666666666\n",
      "note_on channel=0 note=62 velocity=127 time=0.028125\n",
      "note_off channel=0 note=62 velocity=127 time=0.019791666666666666\n",
      "note_on channel=0 note=61 velocity=127 time=0.02395833333333333\n",
      "note_off channel=0 note=61 velocity=127 time=0.019791666666666666\n",
      "note_on channel=0 note=62 velocity=127 time=0.014583333333333334\n",
      "note_on channel=0 note=60 velocity=127 time=0.00625\n",
      "note_off channel=0 note=62 velocity=127 time=0.013541666666666667\n",
      "note_off channel=0 note=60 velocity=127 time=0.00625\n",
      "note_on channel=0 note=62 velocity=127 time=0.053125\n",
      "note_on channel=0 note=61 velocity=127 time=0.015625\n",
      "note_off channel=0 note=62 velocity=127 time=0.004166666666666667\n",
      "note_off channel=0 note=61 velocity=127 time=0.015625\n",
      "note_on channel=0 note=60 velocity=127 time=0.02395833333333333\n",
      "note_on channel=0 note=62 velocity=127 time=0.01875\n",
      "note_off channel=0 note=60 velocity=127 time=0.0010416666666666667\n",
      "note_off channel=0 note=62 velocity=127 time=0.01875\n",
      "note_on channel=0 note=61 velocity=127 time=0.046875\n",
      "note_on channel=0 note=62 velocity=127 time=0.0125\n",
      "note_off channel=0 note=61 velocity=127 time=0.008333333333333333\n",
      "note_off channel=0 note=62 velocity=127 time=0.0125\n",
      "note_on channel=0 note=60 velocity=127 time=0.015625\n",
      "note_off channel=0 note=60 velocity=127 time=0.019791666666666666\n",
      "note_on channel=0 note=62 velocity=127 time=0.02395833333333333\n",
      "note_off channel=0 note=62 velocity=127 time=0.019791666666666666\n",
      "note_on channel=0 note=61 velocity=127 time=0.01875\n",
      "note_off channel=0 note=61 velocity=127 time=0.019791666666666666\n",
      "note_on channel=0 note=62 velocity=127 time=0.019791666666666666\n",
      "note_on channel=0 note=60 velocity=127 time=0.010416666666666666\n",
      "note_off channel=0 note=62 velocity=127 time=0.009375\n",
      "note_off channel=0 note=60 velocity=127 time=0.010416666666666666\n",
      "note_on channel=0 note=62 velocity=127 time=0.04895833333333333\n",
      "note_on channel=0 note=61 velocity=127 time=0.010416666666666666\n",
      "note_off channel=0 note=62 velocity=127 time=0.009375\n",
      "note_off channel=0 note=61 velocity=127 time=0.010416666666666666\n",
      "note_on channel=0 note=60 velocity=127 time=0.034375\n",
      "note_on channel=0 note=62 velocity=127 time=0.014583333333333334\n",
      "note_off channel=0 note=60 velocity=127 time=0.00625\n",
      "note_off channel=0 note=62 velocity=127 time=0.014583333333333334\n",
      "note_on channel=0 note=61 velocity=127 time=0.041666666666666664\n",
      "note_on channel=0 note=62 velocity=127 time=0.017708333333333333\n",
      "note_off channel=0 note=61 velocity=127 time=0.003125\n",
      "note_off channel=0 note=62 velocity=127 time=0.017708333333333333\n",
      "note_on channel=0 note=60 velocity=127 time=0.019791666666666666\n",
      "note_off channel=0 note=60 velocity=127 time=0.019791666666666666\n",
      "note_on channel=0 note=62 velocity=127 time=0.01875\n",
      "note_off channel=0 note=62 velocity=127 time=0.019791666666666666\n",
      "note_on channel=0 note=61 velocity=127 time=0.013541666666666667\n",
      "note_off channel=0 note=61 velocity=127 time=0.019791666666666666\n",
      "note_on channel=0 note=62 velocity=127 time=0.025\n",
      "note_on channel=0 note=60 velocity=127 time=0.015625\n",
      "note_off channel=0 note=62 velocity=127 time=0.004166666666666667\n",
      "note_off channel=0 note=60 velocity=127 time=0.015625\n",
      "note_on channel=0 note=62 velocity=127 time=0.04375\n",
      "note_on channel=0 note=61 velocity=127 time=0.00625\n",
      "note_off channel=0 note=62 velocity=127 time=0.014583333333333334\n",
      "note_off channel=0 note=61 velocity=127 time=0.00625\n",
      "note_on channel=0 note=60 velocity=127 time=0.04375\n",
      "note_on channel=0 note=62 velocity=127 time=0.009375\n",
      "note_off channel=0 note=60 velocity=127 time=0.010416666666666666\n",
      "note_off channel=0 note=62 velocity=127 time=0.009375\n",
      "note_on channel=0 note=61 velocity=127 time=0.036458333333333336\n",
      "note_off channel=0 note=61 velocity=127 time=0.019791666666666666\n",
      "note_on channel=0 note=62 velocity=127 time=0.0020833333333333333\n",
      "note_off channel=0 note=62 velocity=127 time=0.019791666666666666\n",
      "note_on channel=0 note=60 velocity=127 time=0.025\n",
      "note_off channel=0 note=60 velocity=127 time=0.019791666666666666\n",
      "note_on channel=0 note=62 velocity=127 time=0.014583333333333334\n",
      "note_off channel=0 note=62 velocity=127 time=0.019791666666666666\n",
      "note_on channel=0 note=61 velocity=127 time=0.008333333333333333\n",
      "note_off channel=0 note=61 velocity=127 time=0.019791666666666666\n",
      "note_on channel=0 note=62 velocity=127 time=0.030208333333333334\n",
      "note_off channel=0 note=62 velocity=127 time=0.019791666666666666\n",
      "note_on channel=0 note=60 velocity=127 time=0\n",
      "note_off channel=0 note=60 velocity=127 time=0.019791666666666666\n",
      "note_on channel=0 note=62 velocity=127 time=0.03958333333333333\n",
      "note_on channel=0 note=61 velocity=127 time=0.0010416666666666667\n",
      "note_off channel=0 note=62 velocity=127 time=0.019791666666666666\n",
      "note_off channel=0 note=61 velocity=127 time=0.0010416666666666667\n",
      "note_on channel=0 note=60 velocity=127 time=0.05416666666666667\n",
      "note_on channel=0 note=62 velocity=127 time=0.005208333333333333\n",
      "note_off channel=0 note=60 velocity=127 time=0.015625\n",
      "note_off channel=0 note=62 velocity=127 time=0.005208333333333333\n",
      "note_on channel=0 note=61 velocity=127 time=0.03125\n",
      "note_off channel=0 note=61 velocity=127 time=0.019791666666666666\n",
      "note_on channel=0 note=62 velocity=127 time=0.007291666666666667\n",
      "note_off channel=0 note=62 velocity=127 time=0.019791666666666666\n",
      "note_on channel=0 note=60 velocity=127 time=0.029166666666666667\n",
      "note_off channel=0 note=60 velocity=127 time=0.019791666666666666\n",
      "note_on channel=0 note=62 velocity=127 time=0.009375\n",
      "note_off channel=0 note=62 velocity=127 time=0.019791666666666666\n",
      "note_on channel=0 note=61 velocity=127 time=0.003125\n",
      "note_off channel=0 note=61 velocity=127 time=0.019791666666666666\n",
      "note_on channel=0 note=62 velocity=127 time=0.035416666666666666\n",
      "note_off channel=0 note=62 velocity=127 time=0.019791666666666666\n",
      "note_on channel=0 note=60 velocity=127 time=0.005208333333333333\n",
      "note_off channel=0 note=60 velocity=127 time=0.019791666666666666\n",
      "note_on channel=0 note=61 velocity=127 time=0.030208333333333334\n",
      "note_on channel=0 note=62 velocity=127 time=0.004166666666666667\n",
      "note_off channel=0 note=61 velocity=127 time=0.015625\n",
      "note_off channel=0 note=62 velocity=127 time=0.004166666666666667\n",
      "note_on channel=0 note=60 velocity=127 time=0.059375\n",
      "note_on channel=0 note=62 velocity=127 time=0\n",
      "note_off channel=0 note=60 velocity=127 time=0.019791666666666666\n",
      "note_off channel=0 note=62 velocity=127 time=0\n",
      "note_on channel=0 note=61 velocity=127 time=0.027083333333333334\n",
      "note_off channel=0 note=61 velocity=127 time=0.019791666666666666\n",
      "note_on channel=0 note=62 velocity=127 time=0.0125\n",
      "note_off channel=0 note=62 velocity=127 time=0.019791666666666666\n",
      "note_on channel=0 note=60 velocity=127 time=0.034375\n",
      "note_off channel=0 note=60 velocity=127 time=0.019791666666666666\n",
      "note_on channel=0 note=62 velocity=127 time=0.005208333333333333\n",
      "note_on channel=0 note=61 velocity=127 time=0.01875\n",
      "note_off channel=0 note=62 velocity=127 time=0.0010416666666666667\n",
      "note_off channel=0 note=61 velocity=127 time=0.01875\n",
      "note_on channel=0 note=62 velocity=127 time=0.040625\n",
      "note_off channel=0 note=62 velocity=127 time=0.019791666666666666\n",
      "note_on channel=0 note=60 velocity=127 time=0.009375\n",
      "note_off channel=0 note=60 velocity=127 time=0.019791666666666666\n",
      "note_on channel=0 note=61 velocity=127 time=0.019791666666666666\n",
      "note_on channel=0 note=62 velocity=127 time=0.009375\n",
      "note_off channel=0 note=61 velocity=127 time=0.010416666666666666\n",
      "note_off channel=0 note=62 velocity=127 time=0.009375\n",
      "note_on channel=0 note=62 velocity=127 time=0.059375\n",
      "note_on channel=0 note=60 velocity=127 time=0.004166666666666667\n",
      "note_off channel=0 note=62 velocity=127 time=0.015625\n",
      "note_off channel=0 note=60 velocity=127 time=0.004166666666666667\n",
      "note_on channel=0 note=61 velocity=127 time=0.016666666666666666\n",
      "note_off channel=0 note=61 velocity=127 time=0.019791666666666666\n",
      "note_on channel=0 note=62 velocity=127 time=0.017708333333333333\n",
      "note_off channel=0 note=62 velocity=127 time=0.019791666666666666\n",
      "note_on channel=0 note=60 velocity=127 time=0.03854166666666667\n",
      "note_off channel=0 note=60 velocity=127 time=0.019791666666666666\n",
      "note_on channel=0 note=62 velocity=127 time=0\n",
      "note_on channel=0 note=61 velocity=127 time=0.013541666666666667\n",
      "note_off channel=0 note=62 velocity=127 time=0.00625\n",
      "note_off channel=0 note=61 velocity=127 time=0.013541666666666667\n",
      "note_on channel=0 note=62 velocity=127 time=0.04583333333333333\n",
      "note_off channel=0 note=62 velocity=127 time=0.019791666666666666\n",
      "note_on channel=0 note=60 velocity=127 time=0.014583333333333334\n",
      "note_off channel=0 note=60 velocity=127 time=0.019791666666666666\n",
      "note_on channel=0 note=61 velocity=127 time=0.010416666666666666\n",
      "note_on channel=0 note=62 velocity=127 time=0.014583333333333334\n",
      "note_off channel=0 note=61 velocity=127 time=0.005208333333333333\n",
      "\u001b[91m [DEBUG] > \u001b[0m\n",
      " |>  to_array: msg.time > max_t; t, n\n",
      " |>  2.9947916666666705\n",
      " |>  150\n",
      "note_on channel=0 note=61 velocity=127 time=0\n",
      "note_off channel=0 note=61 velocity=127 time=0.019791666666666666\n",
      "note_on channel=0 note=62 velocity=127 time=0.027083333333333334\n",
      "note_off channel=0 note=62 velocity=127 time=0.019791666666666666\n",
      "note_on channel=0 note=61 velocity=127 time=0.004166666666666667\n",
      "note_on channel=0 note=60 velocity=127 time=0.00625\n",
      "note_off channel=0 note=61 velocity=127 time=0.013541666666666667\n",
      "note_off channel=0 note=60 velocity=127 time=0.00625\n",
      "note_on channel=0 note=61 velocity=127 time=0.04479166666666667\n",
      "note_off channel=0 note=61 velocity=127 time=0.019791666666666666\n",
      "note_on channel=0 note=60 velocity=127 time=0.021875\n",
      "note_off channel=0 note=60 velocity=127 time=0.019791666666666666\n",
      "note_on channel=0 note=61 velocity=127 time=0.010416666666666666\n",
      "note_off channel=0 note=61 velocity=127 time=0.019791666666666666\n",
      "note_on channel=0 note=61 velocity=127 time=0.052083333333333336\n",
      "note_on channel=0 note=62 velocity=127 time=0.0010416666666666667\n",
      "note_on channel=0 note=60 velocity=127 time=0.003125\n",
      "note_off channel=0 note=61 velocity=127 time=0.014583333333333334\n",
      "note_off channel=0 note=62 velocity=127 time=0.0010416666666666667\n",
      "note_off channel=0 note=60 velocity=127 time=0.003125\n",
      "note_on channel=0 note=61 velocity=127 time=0.046875\n",
      "note_off channel=0 note=61 velocity=127 time=0.019791666666666666\n",
      "note_on channel=0 note=60 velocity=127 time=0.019791666666666666\n",
      "note_off channel=0 note=60 velocity=127 time=0.019791666666666666\n",
      "note_on channel=0 note=61 velocity=127 time=0.011458333333333333\n",
      "note_off channel=0 note=61 velocity=127 time=0.019791666666666666\n",
      "note_on channel=0 note=61 velocity=127 time=0.052083333333333336\n",
      "note_on channel=0 note=60 velocity=127 time=0.003125\n",
      "note_off channel=0 note=61 velocity=127 time=0.016666666666666666\n",
      "note_off channel=0 note=60 velocity=127 time=0.003125\n",
      "note_on channel=0 note=62 velocity=127 time=0.004166666666666667\n",
      "note_off channel=0 note=62 velocity=127 time=0.019791666666666666\n",
      "note_on channel=0 note=61 velocity=127 time=0.02395833333333333\n",
      "note_off channel=0 note=61 velocity=127 time=0.019791666666666666\n",
      "note_on channel=0 note=60 velocity=127 time=0.01875\n",
      "note_off channel=0 note=60 velocity=127 time=0.019791666666666666\n",
      "note_on channel=0 note=61 velocity=127 time=0.013541666666666667\n",
      "note_off channel=0 note=61 velocity=127 time=0.019791666666666666\n",
      "note_on channel=0 note=61 velocity=127 time=0.052083333333333336\n",
      "note_on channel=0 note=60 velocity=127 time=0.0020833333333333333\n",
      "note_off channel=0 note=61 velocity=127 time=0.01875\n",
      "note_off channel=0 note=60 velocity=127 time=0.0020833333333333333\n",
      "note_on channel=0 note=62 velocity=127 time=0.03229166666666666\n",
      "note_on channel=0 note=61 velocity=127 time=0.017708333333333333\n",
      "note_off channel=0 note=62 velocity=127 time=0.0020833333333333333\n",
      "note_off channel=0 note=61 velocity=127 time=0.017708333333333333\n",
      "note_on channel=0 note=60 velocity=127 time=0.016666666666666666\n",
      "note_off channel=0 note=60 velocity=127 time=0.019791666666666666\n",
      "note_on channel=0 note=61 velocity=127 time=0.014583333333333334\n",
      "note_off channel=0 note=61 velocity=127 time=0.019791666666666666\n",
      "note_on channel=0 note=61 velocity=127 time=0.052083333333333336\n",
      "note_on channel=0 note=60 velocity=127 time=0\n",
      "note_off channel=0 note=61 velocity=127 time=0.019791666666666666\n",
      "note_off channel=0 note=60 velocity=127 time=0\n",
      "note_on channel=0 note=61 velocity=127 time=0.052083333333333336\n",
      "note_on channel=0 note=62 velocity=127 time=0.007291666666666667\n",
      "note_off channel=0 note=61 velocity=127 time=0.0125\n",
      "note_off channel=0 note=62 velocity=127 time=0.007291666666666667\n",
      "note_on channel=0 note=60 velocity=127 time=0.007291666666666667\n",
      "note_off channel=0 note=60 velocity=127 time=0.019791666666666666\n",
      "note_on channel=0 note=61 velocity=127 time=0.016666666666666666\n",
      "note_off channel=0 note=61 velocity=127 time=0.019791666666666666\n",
      "note_on channel=0 note=60 velocity=127 time=0.05\n",
      "note_on channel=0 note=61 velocity=127 time=0.0020833333333333333\n",
      "note_off channel=0 note=60 velocity=127 time=0.01875\n",
      "note_off channel=0 note=61 velocity=127 time=0.0020833333333333333\n",
      "note_on channel=0 note=61 velocity=127 time=0.052083333333333336\n",
      "note_off channel=0 note=61 velocity=127 time=0.019791666666666666\n",
      "note_on channel=0 note=60 velocity=127 time=0.013541666666666667\n",
      "note_on channel=0 note=62 velocity=127 time=0\n",
      "note_off channel=0 note=60 velocity=127 time=0.019791666666666666\n",
      "note_off channel=0 note=62 velocity=127 time=0\n",
      "note_on channel=0 note=61 velocity=127 time=0.017708333333333333\n",
      "note_off channel=0 note=61 velocity=127 time=0.019791666666666666\n",
      "note_on channel=0 note=60 velocity=127 time=0.04895833333333333\n",
      "note_on channel=0 note=61 velocity=127 time=0.003125\n",
      "note_off channel=0 note=60 velocity=127 time=0.016666666666666666\n",
      "note_off channel=0 note=61 velocity=127 time=0.003125\n",
      "note_on channel=0 note=61 velocity=127 time=0.052083333333333336\n",
      "note_off channel=0 note=61 velocity=127 time=0.019791666666666666\n",
      "note_on channel=0 note=60 velocity=127 time=0.011458333333333333\n",
      "note_off channel=0 note=60 velocity=127 time=0.019791666666666666\n",
      "note_on channel=0 note=62 velocity=127 time=0.008333333333333333\n",
      "note_on channel=0 note=61 velocity=127 time=0.011458333333333333\n",
      "note_off channel=0 note=62 velocity=127 time=0.008333333333333333\n",
      "note_off channel=0 note=61 velocity=127 time=0.011458333333333333\n",
      "note_on channel=0 note=60 velocity=127 time=0.046875\n",
      "note_on channel=0 note=61 velocity=127 time=0.005208333333333333\n",
      "note_off channel=0 note=60 velocity=127 time=0.015625\n",
      "note_off channel=0 note=61 velocity=127 time=0.005208333333333333\n",
      "note_on channel=0 note=61 velocity=127 time=0.052083333333333336\n",
      "note_off channel=0 note=61 velocity=127 time=0.019791666666666666\n",
      "note_on channel=0 note=60 velocity=127 time=0.010416666666666666\n",
      "note_off channel=0 note=60 velocity=127 time=0.019791666666666666\n",
      "note_on channel=0 note=61 velocity=127 time=0.021875\n",
      "note_on channel=0 note=62 velocity=127 time=0.014583333333333334\n",
      "note_off channel=0 note=61 velocity=127 time=0.00625\n",
      "note_off channel=0 note=62 velocity=127 time=0.014583333333333334\n",
      "note_on channel=0 note=60 velocity=127 time=0.03125\n",
      "note_on channel=0 note=61 velocity=127 time=0.00625\n",
      "note_off channel=0 note=60 velocity=127 time=0.013541666666666667\n",
      "note_off channel=0 note=61 velocity=127 time=0.00625\n",
      "note_on channel=0 note=61 velocity=127 time=0.052083333333333336\n",
      "note_off channel=0 note=61 velocity=127 time=0.019791666666666666\n",
      "note_on channel=0 note=60 velocity=127 time=0.008333333333333333\n",
      "note_off channel=0 note=60 velocity=127 time=0.019791666666666666\n",
      "note_on channel=0 note=61 velocity=127 time=0.022916666666666665\n",
      "note_off channel=0 note=61 velocity=127 time=0.019791666666666666\n",
      "note_on channel=0 note=62 velocity=127 time=0.019791666666666666\n",
      "note_off channel=0 note=62 velocity=127 time=0.019791666666666666\n",
      "note_on channel=0 note=60 velocity=127 time=0.003125\n",
      "note_on channel=0 note=61 velocity=127 time=0.008333333333333333\n",
      "note_off channel=0 note=60 velocity=127 time=0.011458333333333333\n",
      "note_off channel=0 note=61 velocity=127 time=0.008333333333333333\n",
      "note_on channel=0 note=61 velocity=127 time=0.052083333333333336\n",
      "note_off channel=0 note=61 velocity=127 time=0.019791666666666666\n",
      "note_on channel=0 note=60 velocity=127 time=0.007291666666666667\n",
      "note_off channel=0 note=60 velocity=127 time=0.019791666666666666\n",
      "note_on channel=0 note=61 velocity=127 time=0.025\n",
      "note_off channel=0 note=61 velocity=127 time=0.019791666666666666\n",
      "note_on channel=0 note=60 velocity=127 time=0.041666666666666664\n",
      "note_on channel=0 note=62 velocity=127 time=0.004166666666666667\n",
      "note_on channel=0 note=61 velocity=127 time=0.005208333333333333\n",
      "note_off channel=0 note=60 velocity=127 time=0.010416666666666666\n",
      "note_off channel=0 note=62 velocity=127 time=0.004166666666666667\n",
      "note_off channel=0 note=61 velocity=127 time=0.005208333333333333\n",
      "note_on channel=0 note=61 velocity=127 time=0.052083333333333336\n",
      "note_off channel=0 note=61 velocity=127 time=0.019791666666666666\n",
      "note_on channel=0 note=60 velocity=127 time=0.005208333333333333\n",
      "note_off channel=0 note=60 velocity=127 time=0.019791666666666666\n",
      "note_on channel=0 note=61 velocity=127 time=0.026041666666666668\n",
      "note_off channel=0 note=61 velocity=127 time=0.019791666666666666\n",
      "note_on channel=0 note=60 velocity=127 time=0.040625\n",
      "note_on channel=0 note=61 velocity=127 time=0.011458333333333333\n",
      "note_off channel=0 note=60 velocity=127 time=0.008333333333333333\n",
      "note_off channel=0 note=61 velocity=127 time=0.011458333333333333\n",
      "note_on channel=0 note=62 velocity=127 time=0\n",
      "note_off channel=0 note=62 velocity=127 time=0.019791666666666666\n",
      "note_on channel=0 note=61 velocity=127 time=0.03125\n",
      "note_off channel=0 note=61 velocity=127 time=0.019791666666666666\n",
      "note_on channel=0 note=60 velocity=127 time=0.004166666666666667\n",
      "note_off channel=0 note=60 velocity=127 time=0.019791666666666666\n",
      "note_on channel=0 note=61 velocity=127 time=0.028125\n",
      "note_off channel=0 note=61 velocity=127 time=0.019791666666666666\n",
      "note_on channel=0 note=60 velocity=127 time=0.03854166666666667\n",
      "note_on channel=0 note=61 velocity=127 time=0.0125\n",
      "note_off channel=0 note=60 velocity=127 time=0.007291666666666667\n",
      "note_off channel=0 note=61 velocity=127 time=0.0125\n",
      "note_on channel=0 note=62 velocity=127 time=0.026041666666666668\n",
      "note_off channel=0 note=62 velocity=127 time=0.019791666666666666\n",
      "note_on channel=0 note=61 velocity=127 time=0.005208333333333333\n",
      "note_off channel=0 note=61 velocity=127 time=0.019791666666666666\n",
      "note_on channel=0 note=60 velocity=127 time=0.0020833333333333333\n",
      "note_off channel=0 note=60 velocity=127 time=0.019791666666666666\n",
      "note_on channel=0 note=61 velocity=127 time=0.030208333333333334\n",
      "note_off channel=0 note=61 velocity=127 time=0.019791666666666666\n",
      "note_on channel=0 note=60 velocity=127 time=0.0375\n",
      "note_on channel=0 note=61 velocity=127 time=0.014583333333333334\n",
      "note_off channel=0 note=60 velocity=127 time=0.005208333333333333\n",
      "note_off channel=0 note=61 velocity=127 time=0.014583333333333334\n",
      "note_on channel=0 note=61 velocity=127 time=0.052083333333333336\n",
      "note_on channel=0 note=62 velocity=127 time=0.0010416666666666667\n",
      "note_off channel=0 note=61 velocity=127 time=0.019791666666666666\n",
      "note_on channel=0 note=60 velocity=127 time=0\n",
      "note_off channel=0 note=62 velocity=127 time=0\n",
      "note_off channel=0 note=60 velocity=127 time=0.019791666666666666\n",
      "note_on channel=0 note=61 velocity=127 time=0.03125\n",
      "\u001b[91m [DEBUG] > \u001b[0m\n",
      " |>  to_array: msg.time > max_t; t, n\n",
      " |>  3.005208333333338\n",
      " |>  150\n",
      "note_on channel=0 note=60 velocity=127 time=0.0020833333333333333\n",
      "note_off channel=0 note=60 velocity=127 time=0.019791666666666666\n",
      "note_on channel=0 note=61 velocity=127 time=0.029166666666666667\n",
      "note_off channel=0 note=61 velocity=127 time=0.019791666666666666\n",
      "note_on channel=0 note=60 velocity=127 time=0.05416666666666667\n",
      "note_on channel=0 note=61 velocity=127 time=0.003125\n",
      "note_off channel=0 note=60 velocity=127 time=0.016666666666666666\n",
      "note_off channel=0 note=61 velocity=127 time=0.003125\n",
      "note_on channel=0 note=62 velocity=127 time=0.0375\n",
      "note_off channel=0 note=62 velocity=127 time=0.019791666666666666\n",
      "note_on channel=0 note=61 velocity=127 time=0\n",
      "note_off channel=0 note=61 velocity=127 time=0.019791666666666666\n",
      "note_on channel=0 note=60 velocity=127 time=0.022916666666666665\n",
      "note_off channel=0 note=60 velocity=127 time=0.019791666666666666\n",
      "note_on channel=0 note=61 velocity=127 time=0.014583333333333334\n",
      "note_off channel=0 note=61 velocity=127 time=0.019791666666666666\n",
      "note_on channel=0 note=61 velocity=127 time=0.057291666666666664\n",
      "note_on channel=0 note=60 velocity=127 time=0.011458333333333333\n",
      "note_off channel=0 note=61 velocity=127 time=0.008333333333333333\n",
      "note_on channel=0 note=62 velocity=127 time=0.007291666666666667\n",
      "note_off channel=0 note=60 velocity=127 time=0.003125\n",
      "note_off channel=0 note=62 velocity=127 time=0.016666666666666666\n",
      "note_on channel=0 note=61 velocity=127 time=0.030208333333333334\n",
      "note_off channel=0 note=61 velocity=127 time=0.019791666666666666\n",
      "note_on channel=0 note=60 velocity=127 time=0.0375\n",
      "note_off channel=0 note=60 velocity=127 time=0.019791666666666666\n",
      "note_on channel=0 note=61 velocity=127 time=0\n",
      "note_off channel=0 note=61 velocity=127 time=0.019791666666666666\n",
      "note_on channel=0 note=62 velocity=127 time=0.05520833333333333\n",
      "note_on channel=0 note=61 velocity=127 time=0.0020833333333333333\n",
      "note_off channel=0 note=62 velocity=127 time=0.017708333333333333\n",
      "note_off channel=0 note=61 velocity=127 time=0.0020833333333333333\n",
      "note_on channel=0 note=60 velocity=127 time=0.005208333333333333\n",
      "note_off channel=0 note=60 velocity=127 time=0.019791666666666666\n",
      "note_on channel=0 note=61 velocity=127 time=0.03229166666666666\n",
      "note_off channel=0 note=61 velocity=127 time=0.019791666666666666\n",
      "note_on channel=0 note=60 velocity=127 time=0.052083333333333336\n",
      "note_on channel=0 note=61 velocity=127 time=0.00625\n",
      "note_off channel=0 note=60 velocity=127 time=0.014583333333333334\n",
      "note_off channel=0 note=61 velocity=127 time=0.00625\n",
      "note_on channel=0 note=62 velocity=127 time=0.025\n",
      "note_off channel=0 note=62 velocity=127 time=0.019791666666666666\n",
      "note_on channel=0 note=61 velocity=127 time=0.0125\n",
      "note_off channel=0 note=61 velocity=127 time=0.019791666666666666\n",
      "note_on channel=0 note=60 velocity=127 time=0.019791666666666666\n",
      "note_off channel=0 note=60 velocity=127 time=0.019791666666666666\n",
      "note_on channel=0 note=61 velocity=127 time=0.017708333333333333\n",
      "note_off channel=0 note=61 velocity=127 time=0.019791666666666666\n",
      "note_on channel=0 note=61 velocity=127 time=0.057291666666666664\n",
      "note_on channel=0 note=60 velocity=127 time=0.008333333333333333\n",
      "note_on channel=0 note=62 velocity=127 time=0.007291666666666667\n",
      "note_off channel=0 note=61 velocity=127 time=0.004166666666666667\n",
      "note_off channel=0 note=60 velocity=127 time=0.008333333333333333\n",
      "note_off channel=0 note=62 velocity=127 time=0.007291666666666667\n",
      "note_on channel=0 note=61 velocity=127 time=0.042708333333333334\n",
      "note_off channel=0 note=61 velocity=127 time=0.019791666666666666\n",
      "note_on channel=0 note=60 velocity=127 time=0.034375\n",
      "note_off channel=0 note=60 velocity=127 time=0.019791666666666666\n",
      "note_on channel=0 note=61 velocity=127 time=0.003125\n",
      "note_off channel=0 note=61 velocity=127 time=0.019791666666666666\n",
      "note_on channel=0 note=62 velocity=127 time=0.04375\n",
      "note_on channel=0 note=61 velocity=127 time=0.014583333333333334\n",
      "note_off channel=0 note=62 velocity=127 time=0.005208333333333333\n",
      "note_off channel=0 note=61 velocity=127 time=0.014583333333333334\n",
      "note_on channel=0 note=60 velocity=127 time=0.003125\n",
      "note_off channel=0 note=60 velocity=127 time=0.019791666666666666\n",
      "note_on channel=0 note=61 velocity=127 time=0.034375\n",
      "note_off channel=0 note=61 velocity=127 time=0.019791666666666666\n",
      "note_on channel=0 note=60 velocity=127 time=0.04895833333333333\n",
      "note_on channel=0 note=61 velocity=127 time=0.008333333333333333\n",
      "note_off channel=0 note=60 velocity=127 time=0.011458333333333333\n",
      "note_off channel=0 note=61 velocity=127 time=0.008333333333333333\n",
      "note_on channel=0 note=62 velocity=127 time=0.013541666666666667\n",
      "note_off channel=0 note=62 velocity=127 time=0.019791666666666666\n",
      "note_on channel=0 note=61 velocity=127 time=0.025\n",
      "note_off channel=0 note=61 velocity=127 time=0.019791666666666666\n",
      "note_on channel=0 note=60 velocity=127 time=0.017708333333333333\n",
      "note_off channel=0 note=60 velocity=127 time=0.019791666666666666\n",
      "note_on channel=0 note=61 velocity=127 time=0.019791666666666666\n",
      "note_off channel=0 note=61 velocity=127 time=0.019791666666666666\n",
      "note_on channel=0 note=61 velocity=127 time=0.057291666666666664\n",
      "note_on channel=0 note=62 velocity=127 time=0.003125\n",
      "note_on channel=0 note=60 velocity=127 time=0.0020833333333333333\n",
      "note_off channel=0 note=61 velocity=127 time=0.014583333333333334\n",
      "note_off channel=0 note=62 velocity=127 time=0.003125\n",
      "note_off channel=0 note=60 velocity=127 time=0.0020833333333333333\n",
      "note_on channel=0 note=61 velocity=127 time=0.052083333333333336\n",
      "note_off channel=0 note=61 velocity=127 time=0.019791666666666666\n",
      "note_on channel=0 note=60 velocity=127 time=0.03229166666666666\n",
      "note_off channel=0 note=60 velocity=127 time=0.019791666666666666\n",
      "note_on channel=0 note=61 velocity=127 time=0.00625\n",
      "note_off channel=0 note=61 velocity=127 time=0.019791666666666666\n",
      "note_on channel=0 note=62 velocity=127 time=0.03125\n",
      "note_off channel=0 note=62 velocity=127 time=0.019791666666666666\n",
      "note_on channel=0 note=61 velocity=127 time=0.00625\n",
      "note_off channel=0 note=61 velocity=127 time=0.019791666666666666\n",
      "note_on channel=0 note=60 velocity=127 time=0\n",
      "note_off channel=0 note=60 velocity=127 time=0.019791666666666666\n",
      "note_on channel=0 note=61 velocity=127 time=0.0375\n",
      "note_off channel=0 note=61 velocity=127 time=0.019791666666666666\n",
      "note_on channel=0 note=60 velocity=127 time=0.046875\n",
      "note_on channel=0 note=61 velocity=127 time=0.011458333333333333\n",
      "note_off channel=0 note=60 velocity=127 time=0.008333333333333333\n",
      "note_off channel=0 note=61 velocity=127 time=0.011458333333333333\n",
      "note_on channel=0 note=62 velocity=127 time=0.0010416666666666667\n",
      "note_off channel=0 note=62 velocity=127 time=0.019791666666666666\n",
      "note_on channel=0 note=61 velocity=127 time=0.036458333333333336\n",
      "note_off channel=0 note=61 velocity=127 time=0.019791666666666666\n",
      "note_on channel=0 note=60 velocity=127 time=0.014583333333333334\n",
      "note_off channel=0 note=60 velocity=127 time=0.019791666666666666\n",
      "note_on channel=0 note=61 velocity=127 time=0.022916666666666665\n",
      "note_off channel=0 note=61 velocity=127 time=0.019791666666666666\n"
     ]
    },
    {
     "name": "stdout",
     "output_type": "stream",
     "text": [
      "note_on channel=0 note=62 velocity=127 time=0.04895833333333333\n",
      "note_on channel=0 note=61 velocity=127 time=0.009375\n",
      "note_on channel=0 note=60 velocity=127 time=0.003125\n",
      "note_off channel=0 note=62 velocity=127 time=0.008333333333333333\n",
      "note_off channel=0 note=61 velocity=127 time=0.009375\n",
      "note_off channel=0 note=60 velocity=127 time=0.003125\n",
      "note_on channel=0 note=61 velocity=127 time=0.05416666666666667\n",
      "note_off channel=0 note=61 velocity=127 time=0.019791666666666666\n",
      "note_on channel=0 note=60 velocity=127 time=0.029166666666666667\n",
      "note_off channel=0 note=60 velocity=127 time=0.019791666666666666\n",
      "note_on channel=0 note=61 velocity=127 time=0.008333333333333333\n",
      "note_off channel=0 note=61 velocity=127 time=0.019791666666666666\n",
      "note_on channel=0 note=62 velocity=127 time=0.01875\n",
      "note_off channel=0 note=62 velocity=127 time=0.019791666666666666\n",
      "note_on channel=0 note=61 velocity=127 time=0.01875\n",
      "note_on channel=0 note=60 velocity=127 time=0.017708333333333333\n",
      "note_off channel=0 note=61 velocity=127 time=0.0020833333333333333\n",
      "note_off channel=0 note=60 velocity=127 time=0.017708333333333333\n",
      "note_on channel=0 note=61 velocity=127 time=0.040625\n",
      "note_off channel=0 note=61 velocity=127 time=0.019791666666666666\n",
      "note_on channel=0 note=60 velocity=127 time=0.04375\n",
      "note_on channel=0 note=61 velocity=127 time=0.014583333333333334\n",
      "note_off channel=0 note=60 velocity=127 time=0.00625\n",
      "note_on channel=0 note=62 velocity=127 time=0.003125\n",
      "note_off channel=0 note=61 velocity=127 time=0.011458333333333333\n",
      "note_off channel=0 note=62 velocity=127 time=0.009375\n",
      "note_on channel=0 note=61 velocity=127 time=0.04895833333333333\n",
      "note_off channel=0 note=61 velocity=127 time=0.019791666666666666\n",
      "note_on channel=0 note=60 velocity=127 time=0.0125\n",
      "note_off channel=0 note=60 velocity=127 time=0.019791666666666666\n",
      "note_on channel=0 note=61 velocity=127 time=0.026041666666666668\n",
      "note_off channel=0 note=61 velocity=127 time=0.019791666666666666\n",
      "note_on channel=0 note=62 velocity=127 time=0.036458333333333336\n",
      "note_off channel=0 note=62 velocity=127 time=0.019791666666666666\n",
      "note_on channel=0 note=61 velocity=127 time=0.0010416666666666667\n",
      "note_on channel=0 note=60 velocity=127 time=0\n",
      "note_off channel=0 note=61 velocity=127 time=0.019791666666666666\n",
      "note_off channel=0 note=60 velocity=127 time=0\n",
      "note_on channel=0 note=61 velocity=127 time=0.057291666666666664\n",
      "note_off channel=0 note=61 velocity=127 time=0.019791666666666666\n",
      "note_on channel=0 note=60 velocity=127 time=0.026041666666666668\n",
      "note_off channel=0 note=60 velocity=127 time=0.019791666666666666\n",
      "note_on channel=0 note=61 velocity=127 time=0.011458333333333333\n",
      "\u001b[91m [DEBUG] > \u001b[0m\n",
      " |>  to_array: msg.time > max_t; t, n\n",
      " |>  2.9947916666666683\n",
      " |>  150\n",
      "note_on channel=0 note=61 velocity=127 time=0.010416666666666666\n",
      "note_off channel=0 note=61 velocity=127 time=0.019791666666666666\n",
      "note_on channel=0 note=61 velocity=127 time=0.04895833333333333\n",
      "note_off channel=0 note=61 velocity=127 time=0.019791666666666666\n",
      "note_on channel=0 note=60 velocity=127 time=0.016666666666666666\n",
      "note_off channel=0 note=60 velocity=127 time=0.019791666666666666\n",
      "note_on channel=0 note=62 velocity=127 time=0.0010416666666666667\n",
      "note_on channel=0 note=61 velocity=127 time=0.010416666666666666\n",
      "note_off channel=0 note=62 velocity=127 time=0.009375\n",
      "note_off channel=0 note=61 velocity=127 time=0.010416666666666666\n",
      "note_on channel=0 note=61 velocity=127 time=0.04895833333333333\n",
      "note_off channel=0 note=61 velocity=127 time=0.019791666666666666\n",
      "note_on channel=0 note=61 velocity=127 time=0.04895833333333333\n",
      "note_off channel=0 note=61 velocity=127 time=0.019791666666666666\n",
      "note_on channel=0 note=61 velocity=127 time=0.04895833333333333\n",
      "note_on channel=0 note=60 velocity=127 time=0.009375\n",
      "note_off channel=0 note=61 velocity=127 time=0.010416666666666666\n",
      "note_off channel=0 note=60 velocity=127 time=0.009375\n",
      "note_on channel=0 note=61 velocity=127 time=0.03854166666666667\n",
      "note_off channel=0 note=61 velocity=127 time=0.019791666666666666\n",
      "note_on channel=0 note=62 velocity=127 time=0.004166666666666667\n",
      "note_off channel=0 note=62 velocity=127 time=0.019791666666666666\n",
      "note_on channel=0 note=61 velocity=127 time=0.02395833333333333\n",
      "note_off channel=0 note=61 velocity=127 time=0.019791666666666666\n",
      "note_on channel=0 note=61 velocity=127 time=0.04895833333333333\n",
      "note_off channel=0 note=61 velocity=127 time=0.019791666666666666\n",
      "note_on channel=0 note=60 velocity=127 time=0.03125\n",
      "note_on channel=0 note=61 velocity=127 time=0.016666666666666666\n",
      "note_off channel=0 note=60 velocity=127 time=0.003125\n",
      "note_off channel=0 note=61 velocity=127 time=0.016666666666666666\n",
      "note_on channel=0 note=61 velocity=127 time=0.04895833333333333\n",
      "note_off channel=0 note=61 velocity=127 time=0.019791666666666666\n",
      "note_on channel=0 note=62 velocity=127 time=0.03854166666666667\n",
      "note_on channel=0 note=61 velocity=127 time=0.009375\n",
      "note_off channel=0 note=62 velocity=127 time=0.010416666666666666\n",
      "note_off channel=0 note=61 velocity=127 time=0.009375\n",
      "note_on channel=0 note=61 velocity=127 time=0.04895833333333333\n",
      "note_off channel=0 note=61 velocity=127 time=0.019791666666666666\n",
      "note_on channel=0 note=60 velocity=127 time=0.004166666666666667\n",
      "note_off channel=0 note=60 velocity=127 time=0.019791666666666666\n",
      "note_on channel=0 note=61 velocity=127 time=0.02395833333333333\n",
      "note_off channel=0 note=61 velocity=127 time=0.019791666666666666\n",
      "note_on channel=0 note=61 velocity=127 time=0.04895833333333333\n",
      "note_off channel=0 note=61 velocity=127 time=0.019791666666666666\n",
      "note_on channel=0 note=61 velocity=127 time=0.04895833333333333\n",
      "note_off channel=0 note=61 velocity=127 time=0.019791666666666666\n",
      "note_on channel=0 note=62 velocity=127 time=0.004166666666666667\n",
      "note_off channel=0 note=62 velocity=127 time=0.019791666666666666\n",
      "note_on channel=0 note=60 velocity=127 time=0.021875\n",
      "note_on channel=0 note=61 velocity=127 time=0.0020833333333333333\n",
      "note_off channel=0 note=60 velocity=127 time=0.017708333333333333\n",
      "note_off channel=0 note=61 velocity=127 time=0.0020833333333333333\n",
      "note_on channel=0 note=61 velocity=127 time=0.04895833333333333\n",
      "note_off channel=0 note=61 velocity=127 time=0.019791666666666666\n",
      "note_on channel=0 note=61 velocity=127 time=0.04895833333333333\n",
      "note_off channel=0 note=61 velocity=127 time=0.019791666666666666\n",
      "note_on channel=0 note=61 velocity=127 time=0.04895833333333333\n",
      "note_off channel=0 note=61 velocity=127 time=0.019791666666666666\n",
      "note_on channel=0 note=60 velocity=127 time=0.01875\n",
      "note_off channel=0 note=60 velocity=127 time=0.019791666666666666\n",
      "note_on channel=0 note=62 velocity=127 time=0\n",
      "note_on channel=0 note=61 velocity=127 time=0.009375\n",
      "note_off channel=0 note=62 velocity=127 time=0.010416666666666666\n",
      "note_off channel=0 note=61 velocity=127 time=0.009375\n",
      "note_on channel=0 note=61 velocity=127 time=0.04895833333333333\n",
      "note_off channel=0 note=61 velocity=127 time=0.019791666666666666\n",
      "note_on channel=0 note=61 velocity=127 time=0.04895833333333333\n",
      "note_off channel=0 note=61 velocity=127 time=0.019791666666666666\n",
      "note_on channel=0 note=61 velocity=127 time=0.04895833333333333\n",
      "note_on channel=0 note=60 velocity=127 time=0.0125\n",
      "note_off channel=0 note=61 velocity=127 time=0.008333333333333333\n",
      "note_off channel=0 note=60 velocity=127 time=0.0125\n",
      "note_on channel=0 note=61 velocity=127 time=0.036458333333333336\n",
      "note_off channel=0 note=61 velocity=127 time=0.019791666666666666\n",
      "note_on channel=0 note=62 velocity=127 time=0.005208333333333333\n",
      "note_off channel=0 note=62 velocity=127 time=0.019791666666666666\n",
      "note_on channel=0 note=61 velocity=127 time=0.022916666666666665\n",
      "note_off channel=0 note=61 velocity=127 time=0.019791666666666666\n",
      "note_on channel=0 note=61 velocity=127 time=0.04895833333333333\n",
      "note_off channel=0 note=61 velocity=127 time=0.019791666666666666\n",
      "note_on channel=0 note=60 velocity=127 time=0.03333333333333333\n",
      "note_on channel=0 note=61 velocity=127 time=0.014583333333333334\n",
      "note_off channel=0 note=60 velocity=127 time=0.005208333333333333\n",
      "note_off channel=0 note=61 velocity=127 time=0.014583333333333334\n",
      "note_on channel=0 note=61 velocity=127 time=0.04895833333333333\n",
      "note_off channel=0 note=61 velocity=127 time=0.019791666666666666\n",
      "note_on channel=0 note=62 velocity=127 time=0.03958333333333333\n",
      "note_on channel=0 note=61 velocity=127 time=0.009375\n",
      "note_off channel=0 note=62 velocity=127 time=0.011458333333333333\n",
      "note_off channel=0 note=61 velocity=127 time=0.009375\n",
      "note_on channel=0 note=61 velocity=127 time=0.04895833333333333\n",
      "note_off channel=0 note=61 velocity=127 time=0.019791666666666666\n",
      "note_on channel=0 note=60 velocity=127 time=0.007291666666666667\n",
      "note_off channel=0 note=60 velocity=127 time=0.019791666666666666\n",
      "note_on channel=0 note=61 velocity=127 time=0.021875\n",
      "note_off channel=0 note=61 velocity=127 time=0.019791666666666666\n",
      "note_on channel=0 note=61 velocity=127 time=0.04895833333333333\n",
      "note_off channel=0 note=61 velocity=127 time=0.019791666666666666\n",
      "note_on channel=0 note=61 velocity=127 time=0.04895833333333333\n",
      "note_off channel=0 note=61 velocity=127 time=0.019791666666666666\n",
      "note_on channel=0 note=62 velocity=127 time=0.005208333333333333\n",
      "note_off channel=0 note=62 velocity=127 time=0.019791666666666666\n",
      "note_on channel=0 note=60 velocity=127 time=0.022916666666666665\n",
      "note_on channel=0 note=61 velocity=127 time=0\n",
      "note_off channel=0 note=60 velocity=127 time=0.019791666666666666\n",
      "note_off channel=0 note=61 velocity=127 time=0\n",
      "note_on channel=0 note=61 velocity=127 time=0.04895833333333333\n",
      "note_off channel=0 note=61 velocity=127 time=0.019791666666666666\n",
      "note_on channel=0 note=61 velocity=127 time=0.04895833333333333\n",
      "note_off channel=0 note=61 velocity=127 time=0.019791666666666666\n",
      "note_on channel=0 note=61 velocity=127 time=0.04895833333333333\n",
      "note_off channel=0 note=61 velocity=127 time=0.019791666666666666\n",
      "note_on channel=0 note=60 velocity=127 time=0.021875\n",
      "note_on channel=0 note=62 velocity=127 time=0.01875\n",
      "note_off channel=0 note=60 velocity=127 time=0.0010416666666666667\n",
      "note_on channel=0 note=61 velocity=127 time=0.007291666666666667\n",
      "note_off channel=0 note=62 velocity=127 time=0.011458333333333333\n",
      "note_off channel=0 note=61 velocity=127 time=0.008333333333333333\n",
      "note_on channel=0 note=61 velocity=127 time=0.04895833333333333\n",
      "note_off channel=0 note=61 velocity=127 time=0.019791666666666666\n",
      "note_on channel=0 note=61 velocity=127 time=0.04895833333333333\n",
      "note_off channel=0 note=61 velocity=127 time=0.019791666666666666\n",
      "note_on channel=0 note=61 velocity=127 time=0.04895833333333333\n",
      "note_on channel=0 note=60 velocity=127 time=0.014583333333333334\n",
      "note_off channel=0 note=61 velocity=127 time=0.005208333333333333\n",
      "note_off channel=0 note=60 velocity=127 time=0.014583333333333334\n",
      "note_on channel=0 note=61 velocity=127 time=0.034375\n",
      "note_off channel=0 note=61 velocity=127 time=0.019791666666666666\n",
      "note_on channel=0 note=62 velocity=127 time=0.00625\n",
      "note_off channel=0 note=62 velocity=127 time=0.019791666666666666\n",
      "note_on channel=0 note=61 velocity=127 time=0.022916666666666665\n",
      "note_off channel=0 note=61 velocity=127 time=0.019791666666666666\n",
      "note_on channel=0 note=61 velocity=127 time=0.04895833333333333\n",
      "\u001b[91m [DEBUG] > \u001b[0m\n",
      " |>  to_array: msg.time > max_t; t, n\n",
      " |>  3.026041666666669\n",
      " |>  150\n",
      "note_on channel=0 note=60 velocity=127 time=0.005208333333333333\n",
      "note_on channel=0 note=62 velocity=127 time=0.015625\n",
      "note_off channel=0 note=60 velocity=127 time=0.004166666666666667\n",
      "note_on channel=0 note=61 velocity=127 time=0.014583333333333334\n",
      "note_off channel=0 note=62 velocity=127 time=0.0010416666666666667\n",
      "note_off channel=0 note=61 velocity=127 time=0.01875\n",
      "note_on channel=0 note=60 velocity=127 time=0.013541666666666667\n",
      "note_off channel=0 note=60 velocity=127 time=0.019791666666666666\n",
      "note_on channel=0 note=61 velocity=127 time=0.0375\n",
      "note_on channel=0 note=60 velocity=127 time=0.010416666666666666\n",
      "note_off channel=0 note=61 velocity=127 time=0.010416666666666666\n",
      "note_off channel=0 note=60 velocity=127 time=0.010416666666666666\n",
      "note_on channel=0 note=62 velocity=127 time=0.0125\n",
      "note_off channel=0 note=62 velocity=127 time=0.019791666666666666\n",
      "note_on channel=0 note=60 velocity=127 time=0.015625\n",
      "note_on channel=0 note=61 velocity=127 time=0.013541666666666667\n",
      "note_off channel=0 note=60 velocity=127 time=0.00625\n",
      "note_off channel=0 note=61 velocity=127 time=0.013541666666666667\n",
      "note_on channel=0 note=60 velocity=127 time=0.034375\n",
      "note_off channel=0 note=60 velocity=127 time=0.019791666666666666\n",
      "note_on channel=0 note=61 velocity=127 time=0.016666666666666666\n",
      "note_on channel=0 note=62 velocity=127 time=0.0125\n",
      "note_off channel=0 note=61 velocity=127 time=0.007291666666666667\n",
      "note_on channel=0 note=60 velocity=127 time=0.010416666666666666\n",
      "note_off channel=0 note=62 velocity=127 time=0.0010416666666666667\n",
      "note_off channel=0 note=60 velocity=127 time=0.01875\n",
      "note_on channel=0 note=61 velocity=127 time=0.040625\n",
      "note_on channel=0 note=60 velocity=127 time=0.007291666666666667\n",
      "note_off channel=0 note=61 velocity=127 time=0.0125\n",
      "note_off channel=0 note=60 velocity=127 time=0.007291666666666667\n",
      "note_on channel=0 note=62 velocity=127 time=0.04583333333333333\n",
      "note_on channel=0 note=60 velocity=127 time=0.0020833333333333333\n",
      "note_on channel=0 note=61 velocity=127 time=0.015625\n",
      "note_off channel=0 note=62 velocity=127 time=0.0020833333333333333\n",
      "note_off channel=0 note=60 velocity=127 time=0.0020833333333333333\n",
      "note_off channel=0 note=61 velocity=127 time=0.015625\n",
      "note_on channel=0 note=60 velocity=127 time=0.03125\n",
      "note_off channel=0 note=60 velocity=127 time=0.019791666666666666\n",
      "note_on channel=0 note=61 velocity=127 time=0.019791666666666666\n",
      "note_off channel=0 note=61 velocity=127 time=0.019791666666666666\n",
      "note_on channel=0 note=60 velocity=127 time=0.008333333333333333\n",
      "note_on channel=0 note=62 velocity=127 time=0.015625\n",
      "note_off channel=0 note=60 velocity=127 time=0.005208333333333333\n",
      "note_off channel=0 note=62 velocity=127 time=0.015625\n",
      "note_on channel=0 note=61 velocity=127 time=0.027083333333333334\n",
      "note_on channel=0 note=60 velocity=127 time=0.005208333333333333\n",
      "note_off channel=0 note=61 velocity=127 time=0.015625\n",
      "note_off channel=0 note=60 velocity=127 time=0.005208333333333333\n",
      "note_on channel=0 note=60 velocity=127 time=0.04791666666666666\n",
      "note_on channel=0 note=61 velocity=127 time=0.01875\n",
      "note_off channel=0 note=60 velocity=127 time=0.0010416666666666667\n",
      "note_on channel=0 note=62 velocity=127 time=0.011458333333333333\n",
      "note_off channel=0 note=61 velocity=127 time=0.00625\n",
      "note_off channel=0 note=62 velocity=127 time=0.013541666666666667\n",
      "note_on channel=0 note=60 velocity=127 time=0.015625\n",
      "note_off channel=0 note=60 velocity=127 time=0.019791666666666666\n",
      "note_on channel=0 note=61 velocity=127 time=0.021875\n",
      "note_off channel=0 note=61 velocity=127 time=0.019791666666666666\n",
      "note_on channel=0 note=60 velocity=127 time=0.005208333333333333\n",
      "note_off channel=0 note=60 velocity=127 time=0.019791666666666666\n",
      "note_on channel=0 note=62 velocity=127 time=0.029166666666666667\n",
      "note_on channel=0 note=61 velocity=127 time=0.016666666666666666\n",
      "note_on channel=0 note=60 velocity=127 time=0.0020833333333333333\n",
      "note_off channel=0 note=62 velocity=127 time=0.0010416666666666667\n",
      "note_off channel=0 note=61 velocity=127 time=0.016666666666666666\n",
      "note_off channel=0 note=60 velocity=127 time=0.0020833333333333333\n",
      "note_on channel=0 note=60 velocity=127 time=0.04791666666666666\n",
      "note_off channel=0 note=60 velocity=127 time=0.019791666666666666\n",
      "note_on channel=0 note=61 velocity=127 time=0.0010416666666666667\n",
      "note_off channel=0 note=61 velocity=127 time=0.019791666666666666\n",
      "note_on channel=0 note=62 velocity=127 time=0.02395833333333333\n",
      "note_on channel=0 note=60 velocity=127 time=0.0020833333333333333\n",
      "note_off channel=0 note=62 velocity=127 time=0.017708333333333333\n",
      "note_off channel=0 note=60 velocity=127 time=0.0020833333333333333\n",
      "note_on channel=0 note=61 velocity=127 time=0.025\n",
      "note_off channel=0 note=61 velocity=127 time=0.019791666666666666\n",
      "note_on channel=0 note=60 velocity=127 time=0.003125\n",
      "note_off channel=0 note=60 velocity=127 time=0.019791666666666666\n",
      "note_on channel=0 note=60 velocity=127 time=0.04791666666666666\n",
      "note_on channel=0 note=61 velocity=127 time=0\n",
      "note_on channel=0 note=62 velocity=127 time=0.014583333333333334\n",
      "note_off channel=0 note=60 velocity=127 time=0.005208333333333333\n",
      "note_off channel=0 note=61 velocity=127 time=0\n",
      "note_off channel=0 note=62 velocity=127 time=0.014583333333333334\n",
      "note_on channel=0 note=60 velocity=127 time=0.03229166666666666\n",
      "note_off channel=0 note=60 velocity=127 time=0.019791666666666666\n",
      "note_on channel=0 note=61 velocity=127 time=0.004166666666666667\n",
      "note_off channel=0 note=61 velocity=127 time=0.019791666666666666\n",
      "note_on channel=0 note=60 velocity=127 time=0.02395833333333333\n",
      "note_off channel=0 note=60 velocity=127 time=0.019791666666666666\n",
      "note_on channel=0 note=62 velocity=127 time=0.011458333333333333\n",
      "note_on channel=0 note=61 velocity=127 time=0.015625\n",
      "note_off channel=0 note=62 velocity=127 time=0.004166666666666667\n",
      "note_off channel=0 note=61 velocity=127 time=0.015625\n",
      "note_on channel=0 note=60 velocity=127 time=0\n",
      "note_off channel=0 note=60 velocity=127 time=0.019791666666666666\n",
      "note_on channel=0 note=60 velocity=127 time=0.04791666666666666\n",
      "note_on channel=0 note=61 velocity=127 time=0.003125\n",
      "note_off channel=0 note=60 velocity=127 time=0.016666666666666666\n",
      "note_off channel=0 note=61 velocity=127 time=0.003125\n",
      "note_on channel=0 note=62 velocity=127 time=0.025\n",
      "note_on channel=0 note=60 velocity=127 time=0.01875\n",
      "note_off channel=0 note=62 velocity=127 time=0.0010416666666666667\n",
      "note_off channel=0 note=60 velocity=127 time=0.01875\n",
      "note_on channel=0 note=61 velocity=127 time=0.00625\n",
      "note_off channel=0 note=61 velocity=127 time=0.019791666666666666\n",
      "note_on channel=0 note=60 velocity=127 time=0.020833333333333332\n",
      "note_off channel=0 note=60 velocity=127 time=0.019791666666666666\n",
      "note_on channel=0 note=61 velocity=127 time=0.029166666666666667\n",
      "note_on channel=0 note=62 velocity=127 time=0.015625\n",
      "note_on channel=0 note=60 velocity=127 time=0.0020833333333333333\n",
      "note_off channel=0 note=61 velocity=127 time=0.0020833333333333333\n",
      "note_off channel=0 note=62 velocity=127 time=0.015625\n",
      "note_off channel=0 note=60 velocity=127 time=0.0020833333333333333\n",
      "note_on channel=0 note=60 velocity=127 time=0.04791666666666666\n",
      "note_on channel=0 note=61 velocity=127 time=0.005208333333333333\n",
      "note_off channel=0 note=60 velocity=127 time=0.014583333333333334\n",
      "note_off channel=0 note=61 velocity=127 time=0.005208333333333333\n",
      "note_on channel=0 note=60 velocity=127 time=0.041666666666666664\n",
      "note_on channel=0 note=62 velocity=127 time=0.014583333333333334\n",
      "note_off channel=0 note=60 velocity=127 time=0.005208333333333333\n",
      "note_on channel=0 note=61 velocity=127 time=0.009375\n",
      "note_off channel=0 note=62 velocity=127 time=0.005208333333333333\n",
      "note_off channel=0 note=61 velocity=127 time=0.014583333333333334\n",
      "note_on channel=0 note=60 velocity=127 time=0.01875\n",
      "note_off channel=0 note=60 velocity=127 time=0.019791666666666666\n",
      "note_on channel=0 note=61 velocity=127 time=0.03229166666666666\n",
      "note_on channel=0 note=60 velocity=127 time=0.015625\n",
      "note_off channel=0 note=61 velocity=127 time=0.005208333333333333\n",
      "note_off channel=0 note=60 velocity=127 time=0.015625\n",
      "note_on channel=0 note=62 velocity=127 time=0.011458333333333333\n",
      "note_off channel=0 note=62 velocity=127 time=0.019791666666666666\n",
      "note_on channel=0 note=60 velocity=127 time=0.016666666666666666\n",
      "note_on channel=0 note=61 velocity=127 time=0.008333333333333333\n",
      "note_off channel=0 note=60 velocity=127 time=0.011458333333333333\n",
      "note_off channel=0 note=61 velocity=127 time=0.008333333333333333\n",
      "note_on channel=0 note=60 velocity=127 time=0.03958333333333333\n",
      "note_off channel=0 note=60 velocity=127 time=0.019791666666666666\n",
      "note_on channel=0 note=61 velocity=127 time=0.011458333333333333\n",
      "note_on channel=0 note=62 velocity=127 time=0.016666666666666666\n",
      "note_off channel=0 note=61 velocity=127 time=0.003125\n",
      "note_on channel=0 note=60 velocity=127 time=0.015625\n",
      "note_off channel=0 note=62 velocity=127 time=0\n",
      "note_off channel=0 note=60 velocity=127 time=0.019791666666666666\n",
      "note_on channel=0 note=61 velocity=127 time=0.034375\n",
      "note_on channel=0 note=60 velocity=127 time=0.0125\n",
      "note_off channel=0 note=61 velocity=127 time=0.007291666666666667\n",
      "note_off channel=0 note=60 velocity=127 time=0.0125\n",
      "note_on channel=0 note=62 velocity=127 time=0.04479166666666667\n",
      "note_on channel=0 note=60 velocity=127 time=0.003125\n",
      "note_on channel=0 note=61 velocity=127 time=0.010416666666666666\n",
      "note_off channel=0 note=62 velocity=127 time=0.00625\n",
      "note_off channel=0 note=60 velocity=127 time=0.003125\n",
      "note_off channel=0 note=61 velocity=127 time=0.010416666666666666\n",
      "note_on channel=0 note=60 velocity=127 time=0.036458333333333336\n",
      "note_off channel=0 note=60 velocity=127 time=0.019791666666666666\n",
      "note_on channel=0 note=61 velocity=127 time=0.013541666666666667\n",
      "note_off channel=0 note=61 velocity=127 time=0.019791666666666666\n",
      "note_on channel=0 note=60 velocity=127 time=0.013541666666666667\n",
      "note_on channel=0 note=62 velocity=127 time=0.013541666666666667\n",
      "note_off channel=0 note=60 velocity=127 time=0.00625\n",
      "note_off channel=0 note=62 velocity=127 time=0.013541666666666667\n",
      "note_on channel=0 note=61 velocity=127 time=0.022916666666666665\n",
      "note_on channel=0 note=60 velocity=127 time=0.010416666666666666\n",
      "note_off channel=0 note=61 velocity=127 time=0.009375\n",
      "note_off channel=0 note=60 velocity=127 time=0.010416666666666666\n",
      "note_on channel=0 note=60 velocity=127 time=0.04791666666666666\n",
      "note_on channel=0 note=61 velocity=127 time=0.013541666666666667\n",
      "note_off channel=0 note=60 velocity=127 time=0.00625\n",
      "note_on channel=0 note=62 velocity=127 time=0.010416666666666666\n",
      "note_off channel=0 note=61 velocity=127 time=0.0020833333333333333\n",
      "note_off channel=0 note=62 velocity=127 time=0.017708333333333333\n",
      "note_on channel=0 note=60 velocity=127 time=0.016666666666666666\n",
      "note_off channel=0 note=60 velocity=127 time=0.019791666666666666\n",
      "note_on channel=0 note=61 velocity=127 time=0.016666666666666666\n",
      "note_off channel=0 note=61 velocity=127 time=0.019791666666666666\n",
      "note_on channel=0 note=60 velocity=127 time=0.010416666666666666\n",
      "note_off channel=0 note=60 velocity=127 time=0.019791666666666666\n",
      "note_on channel=0 note=62 velocity=127 time=0.028125\n",
      "note_on channel=0 note=61 velocity=127 time=0.0125\n",
      "note_on channel=0 note=60 velocity=127 time=0.007291666666666667\n",
      "note_off channel=0 note=62 velocity=127 time=0\n",
      "note_off channel=0 note=61 velocity=127 time=0.0125\n",
      "note_off channel=0 note=60 velocity=127 time=0.007291666666666667\n",
      "note_on channel=0 note=60 velocity=127 time=0.04791666666666666\n",
      "note_on channel=0 note=61 velocity=127 time=0.015625\n",
      "note_off channel=0 note=60 velocity=127 time=0.004166666666666667\n",
      "note_off channel=0 note=61 velocity=127 time=0.015625\n",
      "note_on channel=0 note=62 velocity=127 time=0.028125\n",
      "note_on channel=0 note=60 velocity=127 time=0.003125\n",
      "note_off channel=0 note=62 velocity=127 time=0.016666666666666666\n",
      "note_off channel=0 note=60 velocity=127 time=0.003125\n",
      "note_on channel=0 note=61 velocity=127 time=0.01875\n",
      "note_off channel=0 note=61 velocity=127 time=0.019791666666666666\n",
      "note_on channel=0 note=60 velocity=127 time=0.008333333333333333\n",
      "note_off channel=0 note=60 velocity=127 time=0.019791666666666666\n",
      "note_on channel=0 note=61 velocity=127 time=0.042708333333333334\n",
      "\u001b[91m [DEBUG] > \u001b[0m\n",
      " |>  to_array: msg.time > max_t; t, n\n",
      " |>  3.0302083333333343\n",
      " |>  150\n",
      "note_on channel=0 note=62 velocity=127 time=0.022916666666666665\n",
      "note_off channel=0 note=62 velocity=127 time=0.019791666666666666\n",
      "note_on channel=0 note=61 velocity=127 time=0.103125\n",
      "note_off channel=0 note=61 velocity=127 time=0.019791666666666666\n",
      "note_on channel=0 note=62 velocity=127 time=0.022916666666666665\n",
      "note_off channel=0 note=62 velocity=127 time=0.019791666666666666\n",
      "note_on channel=0 note=60 velocity=127 time=0.026041666666666668\n",
      "note_off channel=0 note=60 velocity=127 time=0.019791666666666666\n",
      "note_on channel=0 note=62 velocity=127 time=0.09895833333333333\n",
      "note_on channel=0 note=61 velocity=127 time=0.0125\n",
      "note_off channel=0 note=62 velocity=127 time=0.007291666666666667\n",
      "note_off channel=0 note=61 velocity=127 time=0.0125\n",
      "note_on channel=0 note=62 velocity=127 time=0.13333333333333333\n",
      "note_off channel=0 note=62 velocity=127 time=0.019791666666666666\n",
      "note_on channel=0 note=60 velocity=127 time=0.014583333333333334\n",
      "note_off channel=0 note=60 velocity=127 time=0.019791666666666666\n",
      "note_on channel=0 note=61 velocity=127 time=0.0125\n",
      "note_off channel=0 note=61 velocity=127 time=0.019791666666666666\n",
      "note_on channel=0 note=62 velocity=127 time=0.078125\n",
      "note_off channel=0 note=62 velocity=127 time=0.019791666666666666\n",
      "note_on channel=0 note=61 velocity=127 time=0.10104166666666667\n",
      "note_off channel=0 note=61 velocity=127 time=0.019791666666666666\n",
      "note_on channel=0 note=62 velocity=127 time=0.02395833333333333\n",
      "note_off channel=0 note=62 velocity=127 time=0.019791666666666666\n",
      "note_on channel=0 note=60 velocity=127 time=0.003125\n",
      "note_off channel=0 note=60 velocity=127 time=0.019791666666666666\n",
      "note_on channel=0 note=62 velocity=127 time=0.12291666666666666\n",
      "note_on channel=0 note=61 velocity=127 time=0.010416666666666666\n",
      "note_off channel=0 note=62 velocity=127 time=0.009375\n",
      "note_off channel=0 note=61 velocity=127 time=0.010416666666666666\n",
      "note_on channel=0 note=62 velocity=127 time=0.134375\n",
      "note_on channel=0 note=60 velocity=127 time=0.011458333333333333\n",
      "note_off channel=0 note=62 velocity=127 time=0.008333333333333333\n",
      "note_off channel=0 note=60 velocity=127 time=0.011458333333333333\n",
      "note_on channel=0 note=61 velocity=127 time=0.034375\n",
      "note_off channel=0 note=61 velocity=127 time=0.019791666666666666\n",
      "note_on channel=0 note=62 velocity=127 time=0.08020833333333333\n",
      "note_off channel=0 note=62 velocity=127 time=0.019791666666666666\n",
      "note_on channel=0 note=61 velocity=127 time=0.1\n",
      "note_off channel=0 note=61 velocity=127 time=0.019791666666666666\n",
      "note_on channel=0 note=60 velocity=127 time=0.025\n",
      "note_on channel=0 note=62 velocity=127 time=0.0010416666666666667\n",
      "note_off channel=0 note=60 velocity=127 time=0.019791666666666666\n",
      "note_off channel=0 note=62 velocity=127 time=0.0010416666666666667\n",
      "note_on channel=0 note=62 velocity=127 time=0.14479166666666665\n",
      "note_on channel=0 note=61 velocity=127 time=0.009375\n",
      "note_off channel=0 note=62 velocity=127 time=0.010416666666666666\n",
      "note_off channel=0 note=61 velocity=127 time=0.009375\n",
      "note_on channel=0 note=60 velocity=127 time=0.12395833333333334\n",
      "note_on channel=0 note=62 velocity=127 time=0.0125\n",
      "note_off channel=0 note=60 velocity=127 time=0.007291666666666667\n",
      "note_off channel=0 note=62 velocity=127 time=0.0125\n",
      "note_on channel=0 note=61 velocity=127 time=0.04375\n",
      "note_off channel=0 note=61 velocity=127 time=0.019791666666666666\n",
      "note_on channel=0 note=62 velocity=127 time=0.08125\n",
      "note_off channel=0 note=62 velocity=127 time=0.019791666666666666\n",
      "note_on channel=0 note=61 velocity=127 time=0.09895833333333333\n",
      "note_off channel=0 note=61 velocity=127 time=0.019791666666666666\n",
      "note_on channel=0 note=60 velocity=127 time=0.0020833333333333333\n",
      "note_off channel=0 note=60 velocity=127 time=0.019791666666666666\n",
      "note_on channel=0 note=62 velocity=127 time=0.004166666666666667\n",
      "note_off channel=0 note=62 velocity=127 time=0.019791666666666666\n",
      "note_on channel=0 note=62 velocity=127 time=0.14479166666666665\n",
      "note_on channel=0 note=61 velocity=127 time=0.008333333333333333\n",
      "note_off channel=0 note=62 velocity=127 time=0.011458333333333333\n",
      "note_off channel=0 note=61 velocity=127 time=0.008333333333333333\n",
      "note_on channel=0 note=60 velocity=127 time=0.10104166666666667\n",
      "note_off channel=0 note=60 velocity=127 time=0.019791666666666666\n",
      "note_on channel=0 note=62 velocity=127 time=0.015625\n",
      "note_off channel=0 note=62 velocity=127 time=0.019791666666666666\n",
      "note_on channel=0 note=61 velocity=127 time=0.042708333333333334\n",
      "note_off channel=0 note=61 velocity=127 time=0.019791666666666666\n",
      "note_on channel=0 note=62 velocity=127 time=0.08229166666666667\n",
      "note_off channel=0 note=62 velocity=127 time=0.019791666666666666\n",
      "note_on channel=0 note=61 velocity=127 time=0.09791666666666667\n",
      "note_on channel=0 note=60 velocity=127 time=0.0010416666666666667\n",
      "note_off channel=0 note=61 velocity=127 time=0.019791666666666666\n",
      "note_off channel=0 note=60 velocity=127 time=0.0010416666666666667\n",
      "note_on channel=0 note=62 velocity=127 time=0.027083333333333334\n",
      "note_off channel=0 note=62 velocity=127 time=0.019791666666666666\n",
      "note_on channel=0 note=62 velocity=127 time=0.14479166666666665\n",
      "\u001b[91m [DEBUG] > \u001b[0m\n",
      " |>  to_array: msg.time > max_t; t, n\n",
      " |>  2.994791666666668\n",
      " |>  150\n",
      "note_on channel=0 note=61 velocity=127 time=0.04479166666666667\n",
      "note_off channel=0 note=61 velocity=127 time=0.019791666666666666\n",
      "note_on channel=0 note=60 velocity=127 time=0.02395833333333333\n",
      "note_off channel=0 note=60 velocity=127 time=0.019791666666666666\n",
      "note_on channel=0 note=62 velocity=127 time=0.029166666666666667\n",
      "note_on channel=0 note=61 velocity=127 time=0.004166666666666667\n",
      "note_off channel=0 note=62 velocity=127 time=0.015625\n",
      "note_off channel=0 note=61 velocity=127 time=0.004166666666666667\n",
      "note_on channel=0 note=60 velocity=127 time=0.04583333333333333\n",
      "note_off channel=0 note=60 velocity=127 time=0.019791666666666666\n",
      "note_on channel=0 note=61 velocity=127 time=0.0125\n",
      "note_off channel=0 note=61 velocity=127 time=0.019791666666666666\n",
      "note_on channel=0 note=60 velocity=127 time=0.06770833333333333\n",
      "note_on channel=0 note=61 velocity=127 time=0.010416666666666666\n",
      "note_off channel=0 note=60 velocity=127 time=0.009375\n",
      "note_off channel=0 note=61 velocity=127 time=0.010416666666666666\n",
      "note_on channel=0 note=61 velocity=127 time=0.078125\n",
      "note_on channel=0 note=62 velocity=127 time=0.007291666666666667\n",
      "note_on channel=0 note=60 velocity=127 time=0.003125\n",
      "note_off channel=0 note=61 velocity=127 time=0.009375\n",
      "note_off channel=0 note=62 velocity=127 time=0.007291666666666667\n",
      "note_off channel=0 note=60 velocity=127 time=0.003125\n",
      "note_on channel=0 note=61 velocity=127 time=0.06770833333333333\n",
      "note_off channel=0 note=61 velocity=127 time=0.019791666666666666\n",
      "note_on channel=0 note=60 velocity=127 time=0.0125\n",
      "note_off channel=0 note=60 velocity=127 time=0.019791666666666666\n",
      "note_on channel=0 note=61 velocity=127 time=0.04583333333333333\n",
      "note_off channel=0 note=61 velocity=127 time=0.019791666666666666\n",
      "note_on channel=0 note=60 velocity=127 time=0.034375\n",
      "note_off channel=0 note=60 velocity=127 time=0.019791666666666666\n",
      "note_on channel=0 note=61 velocity=127 time=0.02395833333333333\n",
      "note_on channel=0 note=62 velocity=127 time=0.019791666666666666\n",
      "note_off channel=0 note=61 velocity=127 time=0\n",
      "note_off channel=0 note=62 velocity=127 time=0.019791666666666666\n",
      "note_on channel=0 note=60 velocity=127 time=0.036458333333333336\n",
      "note_off channel=0 note=60 velocity=127 time=0.019791666666666666\n",
      "note_on channel=0 note=61 velocity=127 time=0.0020833333333333333\n",
      "note_off channel=0 note=61 velocity=127 time=0.019791666666666666\n",
      "note_on channel=0 note=60 velocity=127 time=0.078125\n",
      "note_on channel=0 note=61 velocity=127 time=0.0010416666666666667\n",
      "note_off channel=0 note=60 velocity=127 time=0.019791666666666666\n",
      "note_off channel=0 note=61 velocity=127 time=0.0010416666666666667\n",
      "note_on channel=0 note=61 velocity=127 time=0.078125\n",
      "note_off channel=0 note=61 velocity=127 time=0.019791666666666666\n",
      "note_on channel=0 note=60 velocity=127 time=0.0010416666666666667\n",
      "note_on channel=0 note=62 velocity=127 time=0.011458333333333333\n",
      "note_off channel=0 note=60 velocity=127 time=0.009375\n",
      "note_off channel=0 note=62 velocity=127 time=0.011458333333333333\n",
      "note_on channel=0 note=61 velocity=127 time=0.04583333333333333\n",
      "note_off channel=0 note=61 velocity=127 time=0.019791666666666666\n",
      "note_on channel=0 note=60 velocity=127 time=0.022916666666666665\n",
      "note_off channel=0 note=60 velocity=127 time=0.019791666666666666\n",
      "note_on channel=0 note=61 velocity=127 time=0.035416666666666666\n",
      "note_off channel=0 note=61 velocity=127 time=0.019791666666666666\n",
      "note_on channel=0 note=60 velocity=127 time=0.04479166666666667\n",
      "note_off channel=0 note=60 velocity=127 time=0.019791666666666666\n"
     ]
    },
    {
     "name": "stdout",
     "output_type": "stream",
     "text": [
      "note_on channel=0 note=61 velocity=127 time=0.013541666666666667\n",
      "note_off channel=0 note=61 velocity=127 time=0.019791666666666666\n",
      "note_on channel=0 note=62 velocity=127 time=0.02395833333333333\n",
      "note_off channel=0 note=62 velocity=127 time=0.019791666666666666\n",
      "note_on channel=0 note=60 velocity=127 time=0.021875\n",
      "note_on channel=0 note=61 velocity=127 time=0.0125\n",
      "note_off channel=0 note=60 velocity=127 time=0.008333333333333333\n",
      "note_off channel=0 note=61 velocity=127 time=0.0125\n",
      "note_on channel=0 note=61 velocity=127 time=0.078125\n",
      "note_on channel=0 note=60 velocity=127 time=0.009375\n",
      "note_off channel=0 note=61 velocity=127 time=0.010416666666666666\n",
      "note_off channel=0 note=60 velocity=127 time=0.009375\n",
      "note_on channel=0 note=61 velocity=127 time=0.06875\n",
      "note_off channel=0 note=61 velocity=127 time=0.019791666666666666\n",
      "note_on channel=0 note=60 velocity=127 time=0.011458333333333333\n",
      "note_off channel=0 note=60 velocity=127 time=0.019791666666666666\n",
      "note_on channel=0 note=62 velocity=127 time=0.005208333333333333\n",
      "note_off channel=0 note=62 velocity=127 time=0.019791666666666666\n",
      "note_on channel=0 note=61 velocity=127 time=0.021875\n",
      "note_off channel=0 note=61 velocity=127 time=0.019791666666666666\n",
      "note_on channel=0 note=60 velocity=127 time=0.03333333333333333\n",
      "note_off channel=0 note=60 velocity=127 time=0.019791666666666666\n",
      "note_on channel=0 note=61 velocity=127 time=0.025\n",
      "note_off channel=0 note=61 velocity=127 time=0.019791666666666666\n",
      "note_on channel=0 note=60 velocity=127 time=0.05520833333333333\n",
      "note_off channel=0 note=60 velocity=127 time=0.019791666666666666\n",
      "note_on channel=0 note=61 velocity=127 time=0.004166666666666667\n",
      "note_off channel=0 note=61 velocity=127 time=0.019791666666666666\n",
      "note_on channel=0 note=62 velocity=127 time=0.04895833333333333\n",
      "note_off channel=0 note=62 velocity=127 time=0.019791666666666666\n",
      "note_on channel=0 note=60 velocity=127 time=0.007291666666666667\n",
      "note_on channel=0 note=61 velocity=127 time=0.0020833333333333333\n",
      "note_off channel=0 note=60 velocity=127 time=0.017708333333333333\n",
      "note_off channel=0 note=61 velocity=127 time=0.0020833333333333333\n",
      "note_on channel=0 note=61 velocity=127 time=0.078125\n",
      "note_on channel=0 note=60 velocity=127 time=0.019791666666666666\n",
      "note_off channel=0 note=61 velocity=127 time=0\n",
      "note_off channel=0 note=60 velocity=127 time=0.019791666666666666\n",
      "note_on channel=0 note=61 velocity=127 time=0.058333333333333334\n",
      "note_off channel=0 note=61 velocity=127 time=0.019791666666666666\n",
      "note_on channel=0 note=60 velocity=127 time=0.021875\n",
      "note_off channel=0 note=60 velocity=127 time=0.019791666666666666\n",
      "note_on channel=0 note=62 velocity=127 time=0.019791666666666666\n",
      "note_on channel=0 note=61 velocity=127 time=0.017708333333333333\n",
      "note_off channel=0 note=62 velocity=127 time=0.003125\n",
      "note_off channel=0 note=61 velocity=127 time=0.017708333333333333\n",
      "note_on channel=0 note=60 velocity=127 time=0.04375\n",
      "note_off channel=0 note=60 velocity=127 time=0.019791666666666666\n",
      "note_on channel=0 note=61 velocity=127 time=0.015625\n",
      "note_off channel=0 note=61 velocity=127 time=0.019791666666666666\n",
      "note_on channel=0 note=60 velocity=127 time=0.06458333333333333\n",
      "note_on channel=0 note=61 velocity=127 time=0.013541666666666667\n",
      "note_off channel=0 note=60 velocity=127 time=0.00625\n",
      "note_off channel=0 note=61 velocity=127 time=0.013541666666666667\n",
      "note_on channel=0 note=62 velocity=127 time=0.07291666666666667\n",
      "note_on channel=0 note=61 velocity=127 time=0.005208333333333333\n",
      "note_on channel=0 note=60 velocity=127 time=0.008333333333333333\n",
      "note_off channel=0 note=62 velocity=127 time=0.00625\n",
      "note_off channel=0 note=61 velocity=127 time=0.005208333333333333\n",
      "note_off channel=0 note=60 velocity=127 time=0.008333333333333333\n",
      "note_on channel=0 note=61 velocity=127 time=0.06979166666666667\n",
      "note_off channel=0 note=61 velocity=127 time=0.019791666666666666\n",
      "note_on channel=0 note=60 velocity=127 time=0.010416666666666666\n",
      "note_off channel=0 note=60 velocity=127 time=0.019791666666666666\n",
      "note_on channel=0 note=61 velocity=127 time=0.04895833333333333\n",
      "note_off channel=0 note=61 velocity=127 time=0.019791666666666666\n",
      "note_on channel=0 note=60 velocity=127 time=0.03125\n",
      "note_off channel=0 note=60 velocity=127 time=0.019791666666666666\n",
      "note_on channel=0 note=61 velocity=127 time=0.027083333333333334\n",
      "note_on channel=0 note=62 velocity=127 time=0.007291666666666667\n",
      "note_off channel=0 note=61 velocity=127 time=0.0125\n",
      "note_off channel=0 note=62 velocity=127 time=0.007291666666666667\n",
      "note_on channel=0 note=60 velocity=127 time=0.04583333333333333\n",
      "note_off channel=0 note=60 velocity=127 time=0.019791666666666666\n",
      "note_on channel=0 note=61 velocity=127 time=0.005208333333333333\n",
      "\u001b[91m [DEBUG] > \u001b[0m\n",
      " |>  to_array: msg.time > max_t; t, n\n",
      " |>  2.9906250000000014\n",
      " |>  150\n",
      "note_on channel=0 note=60 velocity=127 time=0.02395833333333333\n",
      "note_off channel=0 note=60 velocity=127 time=0.019791666666666666\n",
      "note_on channel=0 note=62 velocity=127 time=0.028125\n",
      "note_off channel=0 note=62 velocity=127 time=0.019791666666666666\n",
      "note_on channel=0 note=60 velocity=127 time=0.05520833333333333\n",
      "note_off channel=0 note=60 velocity=127 time=0.019791666666666666\n",
      "note_on channel=0 note=62 velocity=127 time=0.005208333333333333\n",
      "note_on channel=0 note=61 velocity=127 time=0.004166666666666667\n",
      "note_off channel=0 note=62 velocity=127 time=0.015625\n",
      "note_off channel=0 note=61 velocity=127 time=0.004166666666666667\n",
      "note_on channel=0 note=60 velocity=127 time=0.075\n",
      "note_on channel=0 note=62 velocity=127 time=0.0010416666666666667\n",
      "note_off channel=0 note=60 velocity=127 time=0.01875\n",
      "note_off channel=0 note=62 velocity=127 time=0.0010416666666666667\n",
      "note_on channel=0 note=62 velocity=127 time=0.08020833333333333\n",
      "note_off channel=0 note=62 velocity=127 time=0.019791666666666666\n",
      "note_on channel=0 note=60 velocity=127 time=0.0020833333333333333\n",
      "note_off channel=0 note=60 velocity=127 time=0.019791666666666666\n",
      "note_on channel=0 note=61 velocity=127 time=0.042708333333333334\n",
      "note_on channel=0 note=62 velocity=127 time=0.014583333333333334\n",
      "note_off channel=0 note=61 velocity=127 time=0.005208333333333333\n",
      "note_off channel=0 note=62 velocity=127 time=0.014583333333333334\n",
      "note_on channel=0 note=60 velocity=127 time=0.026041666666666668\n",
      "note_off channel=0 note=60 velocity=127 time=0.019791666666666666\n",
      "note_on channel=0 note=62 velocity=127 time=0.034375\n",
      "note_off channel=0 note=62 velocity=127 time=0.019791666666666666\n",
      "note_on channel=0 note=60 velocity=127 time=0.04895833333333333\n",
      "note_off channel=0 note=60 velocity=127 time=0.019791666666666666\n",
      "note_on channel=0 note=62 velocity=127 time=0.011458333333333333\n",
      "note_off channel=0 note=62 velocity=127 time=0.019791666666666666\n",
      "note_on channel=0 note=61 velocity=127 time=0.04583333333333333\n",
      "note_off channel=0 note=61 velocity=127 time=0.019791666666666666\n",
      "note_on channel=0 note=60 velocity=127 time=0.00625\n",
      "note_on channel=0 note=62 velocity=127 time=0.007291666666666667\n",
      "note_off channel=0 note=60 velocity=127 time=0.0125\n",
      "note_off channel=0 note=62 velocity=127 time=0.007291666666666667\n",
      "note_on channel=0 note=62 velocity=127 time=0.08020833333333333\n",
      "note_on channel=0 note=60 velocity=127 time=0.015625\n",
      "note_off channel=0 note=62 velocity=127 time=0.004166666666666667\n",
      "note_off channel=0 note=60 velocity=127 time=0.015625\n",
      "note_on channel=0 note=62 velocity=127 time=0.06458333333333333\n",
      "note_off channel=0 note=62 velocity=127 time=0.019791666666666666\n",
      "note_on channel=0 note=60 velocity=127 time=0.01875\n",
      "note_on channel=0 note=61 velocity=127 time=0.008333333333333333\n",
      "note_off channel=0 note=60 velocity=127 time=0.011458333333333333\n",
      "note_off channel=0 note=61 velocity=127 time=0.008333333333333333\n",
      "note_on channel=0 note=62 velocity=127 time=0.03333333333333333\n",
      "note_off channel=0 note=62 velocity=127 time=0.019791666666666666\n",
      "note_on channel=0 note=60 velocity=127 time=0.042708333333333334\n",
      "note_off channel=0 note=60 velocity=127 time=0.019791666666666666\n",
      "note_on channel=0 note=62 velocity=127 time=0.017708333333333333\n",
      "note_off channel=0 note=62 velocity=127 time=0.019791666666666666\n",
      "note_on channel=0 note=60 velocity=127 time=0.065625\n",
      "note_on channel=0 note=62 velocity=127 time=0.014583333333333334\n",
      "note_off channel=0 note=60 velocity=127 time=0.005208333333333333\n",
      "note_off channel=0 note=62 velocity=127 time=0.014583333333333334\n",
      "note_on channel=0 note=61 velocity=127 time=0.008333333333333333\n",
      "note_off channel=0 note=61 velocity=127 time=0.019791666666666666\n",
      "note_on channel=0 note=62 velocity=127 time=0.052083333333333336\n",
      "note_on channel=0 note=60 velocity=127 time=0.009375\n",
      "note_off channel=0 note=62 velocity=127 time=0.010416666666666666\n",
      "note_off channel=0 note=60 velocity=127 time=0.009375\n",
      "note_on channel=0 note=62 velocity=127 time=0.07083333333333333\n",
      "note_off channel=0 note=62 velocity=127 time=0.019791666666666666\n",
      "note_on channel=0 note=60 velocity=127 time=0.0125\n",
      "note_off channel=0 note=60 velocity=127 time=0.019791666666666666\n",
      "note_on channel=0 note=62 velocity=127 time=0.04791666666666666\n",
      "note_on channel=0 note=61 velocity=127 time=0.009375\n",
      "note_off channel=0 note=62 velocity=127 time=0.010416666666666666\n",
      "note_off channel=0 note=61 velocity=127 time=0.009375\n",
      "note_on channel=0 note=60 velocity=127 time=0.027083333333333334\n",
      "note_off channel=0 note=60 velocity=127 time=0.019791666666666666\n",
      "note_on channel=0 note=62 velocity=127 time=0.02395833333333333\n",
      "note_off channel=0 note=62 velocity=127 time=0.019791666666666666\n",
      "note_on channel=0 note=60 velocity=127 time=0.059375\n",
      "note_off channel=0 note=60 velocity=127 time=0.019791666666666666\n",
      "note_on channel=0 note=62 velocity=127 time=0.0010416666666666667\n",
      "note_off channel=0 note=62 velocity=127 time=0.019791666666666666\n",
      "note_on channel=0 note=61 velocity=127 time=0.07083333333333333\n",
      "note_on channel=0 note=62 velocity=127 time=0.009375\n",
      "note_on channel=0 note=60 velocity=127 time=0.003125\n",
      "note_off channel=0 note=61 velocity=127 time=0.007291666666666667\n",
      "note_off channel=0 note=62 velocity=127 time=0.009375\n",
      "note_off channel=0 note=60 velocity=127 time=0.003125\n",
      "note_on channel=0 note=62 velocity=127 time=0.07708333333333334\n",
      "note_off channel=0 note=62 velocity=127 time=0.019791666666666666\n",
      "note_on channel=0 note=60 velocity=127 time=0.00625\n",
      "note_off channel=0 note=60 velocity=127 time=0.019791666666666666\n",
      "note_on channel=0 note=62 velocity=127 time=0.05416666666666667\n",
      "note_off channel=0 note=62 velocity=127 time=0.019791666666666666\n",
      "note_on channel=0 note=60 velocity=127 time=0.029166666666666667\n",
      "note_off channel=0 note=60 velocity=127 time=0.019791666666666666\n",
      "note_on channel=0 note=61 velocity=127 time=0.0020833333333333333\n",
      "note_off channel=0 note=61 velocity=127 time=0.019791666666666666\n",
      "note_on channel=0 note=62 velocity=127 time=0.009375\n",
      "note_off channel=0 note=62 velocity=127 time=0.019791666666666666\n",
      "note_on channel=0 note=60 velocity=127 time=0.053125\n",
      "note_off channel=0 note=60 velocity=127 time=0.019791666666666666\n",
      "note_on channel=0 note=62 velocity=127 time=0.007291666666666667\n",
      "note_off channel=0 note=62 velocity=127 time=0.019791666666666666\n",
      "note_on channel=0 note=60 velocity=127 time=0.07604166666666666\n",
      "note_on channel=0 note=62 velocity=127 time=0.004166666666666667\n",
      "note_off channel=0 note=60 velocity=127 time=0.016666666666666666\n",
      "note_off channel=0 note=62 velocity=127 time=0.004166666666666667\n",
      "note_on channel=0 note=61 velocity=127 time=0.03229166666666666\n",
      "note_off channel=0 note=61 velocity=127 time=0.019791666666666666\n",
      "note_on channel=0 note=62 velocity=127 time=0.028125\n",
      "note_on channel=0 note=60 velocity=127 time=0.019791666666666666\n",
      "note_off channel=0 note=62 velocity=127 time=0\n",
      "note_off channel=0 note=60 velocity=127 time=0.019791666666666666\n",
      "note_on channel=0 note=62 velocity=127 time=0.06041666666666667\n",
      "note_off channel=0 note=62 velocity=127 time=0.019791666666666666\n",
      "note_on channel=0 note=60 velocity=127 time=0.022916666666666665\n",
      "note_off channel=0 note=60 velocity=127 time=0.019791666666666666\n",
      "note_on channel=0 note=62 velocity=127 time=0.0375\n",
      "note_off channel=0 note=62 velocity=127 time=0.019791666666666666\n",
      "note_on channel=0 note=61 velocity=127 time=0.013541666666666667\n",
      "note_off channel=0 note=61 velocity=127 time=0.019791666666666666\n",
      "note_on channel=0 note=60 velocity=127 time=0.013541666666666667\n",
      "note_off channel=0 note=60 velocity=127 time=0.019791666666666666\n",
      "note_on channel=0 note=62 velocity=127 time=0.013541666666666667\n",
      "note_off channel=0 note=62 velocity=127 time=0.019791666666666666\n",
      "note_on channel=0 note=60 velocity=127 time=0.06979166666666667\n",
      "note_on channel=0 note=62 velocity=127 time=0.010416666666666666\n",
      "note_off channel=0 note=60 velocity=127 time=0.009375\n",
      "note_off channel=0 note=62 velocity=127 time=0.010416666666666666\n",
      "note_on channel=0 note=62 velocity=127 time=0.08020833333333333\n",
      "note_on channel=0 note=60 velocity=127 time=0.013541666666666667\n",
      "note_on channel=0 note=61 velocity=127 time=0.0010416666666666667\n",
      "note_off channel=0 note=62 velocity=127 time=0.005208333333333333\n",
      "\u001b[91m [DEBUG] > \u001b[0m\n",
      " |>  to_array: msg.time > max_t; t, n\n",
      " |>  2.9906250000000036\n",
      " |>  150\n",
      "note_on channel=0 note=61 velocity=127 time=0.01875\n",
      "note_off channel=0 note=61 velocity=127 time=0.019791666666666666\n",
      "note_on channel=0 note=62 velocity=127 time=0.034375\n",
      "note_off channel=0 note=62 velocity=127 time=0.019791666666666666\n",
      "note_on channel=0 note=61 velocity=127 time=0.007291666666666667\n",
      "note_on channel=0 note=60 velocity=127 time=0.014583333333333334\n",
      "note_off channel=0 note=61 velocity=127 time=0.00625\n",
      "note_off channel=0 note=60 velocity=127 time=0.014583333333333334\n",
      "note_on channel=0 note=62 velocity=127 time=0.026041666666666668\n",
      "note_off channel=0 note=62 velocity=127 time=0.019791666666666666\n",
      "note_on channel=0 note=61 velocity=127 time=0.0010416666666666667\n",
      "note_off channel=0 note=61 velocity=127 time=0.019791666666666666\n",
      "note_on channel=0 note=62 velocity=127 time=0.04583333333333333\n",
      "note_on channel=0 note=61 velocity=127 time=0.015625\n",
      "note_off channel=0 note=62 velocity=127 time=0.004166666666666667\n",
      "note_off channel=0 note=61 velocity=127 time=0.015625\n",
      "note_on channel=0 note=62 velocity=127 time=0.052083333333333336\n",
      "note_on channel=0 note=60 velocity=127 time=0.004166666666666667\n",
      "note_on channel=0 note=61 velocity=127 time=0.00625\n",
      "note_off channel=0 note=62 velocity=127 time=0.010416666666666666\n",
      "note_off channel=0 note=60 velocity=127 time=0.004166666666666667\n",
      "note_off channel=0 note=61 velocity=127 time=0.00625\n",
      "note_on channel=0 note=62 velocity=127 time=0.058333333333333334\n",
      "note_on channel=0 note=61 velocity=127 time=0.004166666666666667\n",
      "note_off channel=0 note=62 velocity=127 time=0.016666666666666666\n",
      "note_off channel=0 note=61 velocity=127 time=0.004166666666666667\n",
      "note_on channel=0 note=61 velocity=127 time=0.06145833333333333\n",
      "note_on channel=0 note=62 velocity=127 time=0.0020833333333333333\n",
      "note_off channel=0 note=61 velocity=127 time=0.017708333333333333\n",
      "note_off channel=0 note=62 velocity=127 time=0.0020833333333333333\n",
      "note_on channel=0 note=60 velocity=127 time=0.03333333333333333\n",
      "note_off channel=0 note=60 velocity=127 time=0.019791666666666666\n",
      "note_on channel=0 note=61 velocity=127 time=0.00625\n",
      "note_on channel=0 note=62 velocity=127 time=0.008333333333333333\n",
      "note_off channel=0 note=61 velocity=127 time=0.011458333333333333\n",
      "note_off channel=0 note=62 velocity=127 time=0.008333333333333333\n",
      "note_on channel=0 note=61 velocity=127 time=0.05416666666666667\n",
      "note_on channel=0 note=62 velocity=127 time=0.013541666666666667\n",
      "note_off channel=0 note=61 velocity=127 time=0.00625\n",
      "note_off channel=0 note=62 velocity=127 time=0.013541666666666667\n",
      "note_on channel=0 note=61 velocity=127 time=0.04791666666666666\n",
      "note_on channel=0 note=62 velocity=127 time=0.019791666666666666\n",
      "note_off channel=0 note=61 velocity=127 time=0\n",
      "note_on channel=0 note=60 velocity=127 time=0.015625\n",
      "note_off channel=0 note=62 velocity=127 time=0.004166666666666667\n",
      "note_off channel=0 note=60 velocity=127 time=0.015625\n",
      "note_on channel=0 note=61 velocity=127 time=0.026041666666666668\n",
      "note_off channel=0 note=61 velocity=127 time=0.019791666666666666\n",
      "note_on channel=0 note=62 velocity=127 time=0.00625\n",
      "note_off channel=0 note=62 velocity=127 time=0.019791666666666666\n",
      "note_on channel=0 note=61 velocity=127 time=0.036458333333333336\n",
      "note_off channel=0 note=61 velocity=127 time=0.019791666666666666\n",
      "note_on channel=0 note=62 velocity=127 time=0.011458333333333333\n",
      "note_off channel=0 note=62 velocity=127 time=0.019791666666666666\n",
      "note_on channel=0 note=61 velocity=127 time=0.030208333333333334\n",
      "note_on channel=0 note=60 velocity=127 time=0.015625\n",
      "note_off channel=0 note=61 velocity=127 time=0.004166666666666667\n",
      "note_off channel=0 note=60 velocity=127 time=0.015625\n",
      "note_on channel=0 note=62 velocity=127 time=0.0020833333333333333\n",
      "note_off channel=0 note=62 velocity=127 time=0.019791666666666666\n",
      "note_on channel=0 note=61 velocity=127 time=0.02395833333333333\n",
      "note_off channel=0 note=61 velocity=127 time=0.019791666666666666\n",
      "note_on channel=0 note=62 velocity=127 time=0.02395833333333333\n",
      "note_off channel=0 note=62 velocity=127 time=0.019791666666666666\n",
      "note_on channel=0 note=61 velocity=127 time=0.01875\n",
      "note_off channel=0 note=61 velocity=127 time=0.019791666666666666\n",
      "note_on channel=0 note=62 velocity=127 time=0.029166666666666667\n",
      "note_off channel=0 note=62 velocity=127 time=0.019791666666666666\n",
      "note_on channel=0 note=60 velocity=127 time=0.008333333333333333\n",
      "note_on channel=0 note=61 velocity=127 time=0.004166666666666667\n",
      "note_off channel=0 note=60 velocity=127 time=0.015625\n",
      "note_off channel=0 note=61 velocity=127 time=0.004166666666666667\n",
      "note_on channel=0 note=62 velocity=127 time=0.035416666666666666\n",
      "note_off channel=0 note=62 velocity=127 time=0.019791666666666666\n",
      "note_on channel=0 note=61 velocity=127 time=0.00625\n",
      "note_off channel=0 note=61 velocity=127 time=0.019791666666666666\n",
      "note_on channel=0 note=62 velocity=127 time=0.041666666666666664\n",
      "note_off channel=0 note=62 velocity=127 time=0.019791666666666666\n",
      "note_on channel=0 note=61 velocity=127 time=0\n",
      "note_off channel=0 note=61 velocity=127 time=0.019791666666666666\n",
      "note_on channel=0 note=60 velocity=127 time=0.0375\n",
      "note_on channel=0 note=62 velocity=127 time=0.009375\n",
      "note_off channel=0 note=60 velocity=127 time=0.010416666666666666\n",
      "note_on channel=0 note=61 velocity=127 time=0.004166666666666667\n",
      "note_off channel=0 note=62 velocity=127 time=0.005208333333333333\n",
      "note_off channel=0 note=61 velocity=127 time=0.014583333333333334\n",
      "note_on channel=0 note=62 velocity=127 time=0.053125\n",
      "note_on channel=0 note=61 velocity=127 time=0.008333333333333333\n",
      "note_off channel=0 note=62 velocity=127 time=0.011458333333333333\n",
      "note_off channel=0 note=61 velocity=127 time=0.008333333333333333\n",
      "note_on channel=0 note=62 velocity=127 time=0.059375\n",
      "note_on channel=0 note=61 velocity=127 time=0.003125\n",
      "note_off channel=0 note=62 velocity=127 time=0.017708333333333333\n",
      "note_off channel=0 note=61 velocity=127 time=0.003125\n",
      "note_on channel=0 note=60 velocity=127 time=0.017708333333333333\n",
      "note_off channel=0 note=60 velocity=127 time=0.019791666666666666\n",
      "note_on channel=0 note=61 velocity=127 time=0.02395833333333333\n",
      "note_on channel=0 note=62 velocity=127 time=0.003125\n",
      "note_off channel=0 note=61 velocity=127 time=0.016666666666666666\n",
      "note_off channel=0 note=62 velocity=127 time=0.003125\n",
      "note_on channel=0 note=61 velocity=127 time=0.058333333333333334\n",
      "note_on channel=0 note=62 velocity=127 time=0.009375\n",
      "note_off channel=0 note=61 velocity=127 time=0.010416666666666666\n",
      "note_off channel=0 note=62 velocity=127 time=0.009375\n",
      "note_on channel=0 note=61 velocity=127 time=0.053125\n",
      "note_on channel=0 note=62 velocity=127 time=0.014583333333333334\n",
      "note_on channel=0 note=60 velocity=127 time=0.003125\n",
      "note_off channel=0 note=61 velocity=127 time=0.0020833333333333333\n",
      "note_off channel=0 note=62 velocity=127 time=0.014583333333333334\n",
      "note_off channel=0 note=60 velocity=127 time=0.003125\n",
      "note_on channel=0 note=61 velocity=127 time=0.04375\n",
      "note_off channel=0 note=61 velocity=127 time=0.019791666666666666\n",
      "note_on channel=0 note=62 velocity=127 time=0.0010416666666666667\n",
      "note_off channel=0 note=62 velocity=127 time=0.019791666666666666\n",
      "note_on channel=0 note=61 velocity=127 time=0.040625\n",
      "note_off channel=0 note=61 velocity=127 time=0.019791666666666666\n",
      "note_on channel=0 note=62 velocity=127 time=0.007291666666666667\n",
      "note_off channel=0 note=62 velocity=127 time=0.019791666666666666\n",
      "note_on channel=0 note=60 velocity=127 time=0.03333333333333333\n",
      "note_on channel=0 note=61 velocity=127 time=0.0020833333333333333\n",
      "note_off channel=0 note=60 velocity=127 time=0.017708333333333333\n",
      "note_off channel=0 note=61 velocity=127 time=0.0020833333333333333\n",
      "note_on channel=0 note=62 velocity=127 time=0.0125\n",
      "note_off channel=0 note=62 velocity=127 time=0.019791666666666666\n",
      "note_on channel=0 note=61 velocity=127 time=0.029166666666666667\n",
      "note_off channel=0 note=61 velocity=127 time=0.019791666666666666\n",
      "note_on channel=0 note=62 velocity=127 time=0.01875\n",
      "note_off channel=0 note=62 velocity=127 time=0.019791666666666666\n",
      "note_on channel=0 note=61 velocity=127 time=0.022916666666666665\n",
      "note_off channel=0 note=61 velocity=127 time=0.019791666666666666\n",
      "note_on channel=0 note=62 velocity=127 time=0.025\n",
      "note_on channel=0 note=60 velocity=127 time=0.014583333333333334\n",
      "note_off channel=0 note=62 velocity=127 time=0.005208333333333333\n",
      "note_off channel=0 note=60 velocity=127 time=0.014583333333333334\n",
      "note_on channel=0 note=61 velocity=127 time=0.0020833333333333333\n",
      "note_off channel=0 note=61 velocity=127 time=0.019791666666666666\n",
      "note_on channel=0 note=62 velocity=127 time=0.030208333333333334\n",
      "note_off channel=0 note=62 velocity=127 time=0.019791666666666666\n",
      "note_on channel=0 note=61 velocity=127 time=0.011458333333333333\n",
      "note_off channel=0 note=61 velocity=127 time=0.019791666666666666\n",
      "note_on channel=0 note=62 velocity=127 time=0.036458333333333336\n",
      "note_off channel=0 note=62 velocity=127 time=0.019791666666666666\n",
      "note_on channel=0 note=61 velocity=127 time=0.005208333333333333\n",
      "note_off channel=0 note=61 velocity=127 time=0.019791666666666666\n",
      "note_on channel=0 note=60 velocity=127 time=0.019791666666666666\n",
      "note_off channel=0 note=60 velocity=127 time=0.019791666666666666\n",
      "note_on channel=0 note=62 velocity=127 time=0.003125\n",
      "note_on channel=0 note=61 velocity=127 time=0.019791666666666666\n",
      "note_off channel=0 note=62 velocity=127 time=0.0010416666666666667\n",
      "note_off channel=0 note=61 velocity=127 time=0.019791666666666666\n",
      "note_on channel=0 note=62 velocity=127 time=0.04791666666666666\n",
      "note_on channel=0 note=61 velocity=127 time=0.013541666666666667\n",
      "note_off channel=0 note=62 velocity=127 time=0.00625\n",
      "note_off channel=0 note=61 velocity=127 time=0.013541666666666667\n",
      "note_on channel=0 note=62 velocity=127 time=0.05416666666666667\n",
      "note_on channel=0 note=61 velocity=127 time=0.007291666666666667\n",
      "note_off channel=0 note=62 velocity=127 time=0.0125\n",
      "note_on channel=0 note=60 velocity=127 time=0.007291666666666667\n",
      "note_off channel=0 note=61 velocity=127 time=0\n",
      "note_off channel=0 note=60 velocity=127 time=0.019791666666666666\n",
      "note_on channel=0 note=62 velocity=127 time=0.040625\n",
      "note_on channel=0 note=61 velocity=127 time=0.0020833333333333333\n",
      "note_off channel=0 note=62 velocity=127 time=0.01875\n",
      "note_off channel=0 note=61 velocity=127 time=0.0020833333333333333\n",
      "note_on channel=0 note=61 velocity=127 time=0.06145833333333333\n",
      "note_on channel=0 note=62 velocity=127 time=0.004166666666666667\n",
      "note_off channel=0 note=61 velocity=127 time=0.015625\n",
      "note_off channel=0 note=62 velocity=127 time=0.004166666666666667\n",
      "note_on channel=0 note=60 velocity=127 time=0.057291666666666664\n",
      "\u001b[91m [DEBUG] > \u001b[0m\n",
      " |>  to_array: msg.time > max_t; t, n\n",
      " |>  3.0416666666666705\n",
      " |>  150\n",
      "note_on channel=0 note=62 velocity=127 time=0.022916666666666665\n",
      "note_off channel=0 note=62 velocity=127 time=0.019791666666666666\n",
      "note_on channel=0 note=60 velocity=127 time=0.015625\n",
      "note_on channel=0 note=61 velocity=127 time=0.007291666666666667\n",
      "note_off channel=0 note=60 velocity=127 time=0.0125\n",
      "note_off channel=0 note=61 velocity=127 time=0.007291666666666667\n",
      "note_on channel=0 note=62 velocity=127 time=0.04895833333333333\n",
      "note_on channel=0 note=60 velocity=127 time=0.015625\n",
      "note_off channel=0 note=62 velocity=127 time=0.005208333333333333\n",
      "note_off channel=0 note=60 velocity=127 time=0.015625\n",
      "note_on channel=0 note=61 velocity=127 time=0.017708333333333333\n",
      "note_off channel=0 note=61 velocity=127 time=0.019791666666666666\n",
      "note_on channel=0 note=60 velocity=127 time=0.034375\n",
      "note_on channel=0 note=62 velocity=127 time=0.005208333333333333\n",
      "note_off channel=0 note=60 velocity=127 time=0.014583333333333334\n",
      "note_off channel=0 note=62 velocity=127 time=0.005208333333333333\n",
      "note_on channel=0 note=61 velocity=127 time=0.042708333333333334\n",
      "note_off channel=0 note=61 velocity=127 time=0.019791666666666666\n",
      "note_on channel=0 note=60 velocity=127 time=0.004166666666666667\n",
      "note_off channel=0 note=60 velocity=127 time=0.019791666666666666\n",
      "note_on channel=0 note=62 velocity=127 time=0.005208333333333333\n",
      "note_off channel=0 note=62 velocity=127 time=0.019791666666666666\n",
      "note_on channel=0 note=60 velocity=127 time=0.04583333333333333\n",
      "note_on channel=0 note=61 velocity=127 time=0.00625\n",
      "note_off channel=0 note=60 velocity=127 time=0.014583333333333334\n",
      "note_off channel=0 note=61 velocity=127 time=0.00625\n",
      "note_on channel=0 note=62 velocity=127 time=0.019791666666666666\n",
      "note_off channel=0 note=62 velocity=127 time=0.019791666666666666\n",
      "note_on channel=0 note=60 velocity=127 time=0.026041666666666668\n",
      "note_off channel=0 note=60 velocity=127 time=0.019791666666666666\n",
      "note_on channel=0 note=61 velocity=127 time=0.015625\n",
      "note_off channel=0 note=61 velocity=127 time=0.019791666666666666\n",
      "note_on channel=0 note=62 velocity=127 time=0.009375\n",
      "note_off channel=0 note=62 velocity=127 time=0.019791666666666666\n",
      "note_on channel=0 note=60 velocity=127 time=0.00625\n",
      "note_off channel=0 note=60 velocity=127 time=0.019791666666666666\n",
      "note_on channel=0 note=61 velocity=127 time=0.04583333333333333\n",
      "note_off channel=0 note=61 velocity=127 time=0.019791666666666666\n",
      "note_on channel=0 note=62 velocity=127 time=0\n",
      "note_on channel=0 note=60 velocity=127 time=0.00625\n",
      "note_off channel=0 note=62 velocity=127 time=0.014583333333333334\n",
      "note_off channel=0 note=60 velocity=127 time=0.00625\n",
      "note_on channel=0 note=60 velocity=127 time=0.071875\n",
      "note_on channel=0 note=61 velocity=127 time=0.004166666666666667\n",
      "note_on channel=0 note=62 velocity=127 time=0.010416666666666666\n",
      "note_off channel=0 note=60 velocity=127 time=0.005208333333333333\n",
      "note_off channel=0 note=61 velocity=127 time=0.004166666666666667\n",
      "note_off channel=0 note=62 velocity=127 time=0.010416666666666666\n",
      "note_on channel=0 note=60 velocity=127 time=0.057291666666666664\n",
      "note_off channel=0 note=60 velocity=127 time=0.019791666666666666\n",
      "note_on channel=0 note=61 velocity=127 time=0.013541666666666667\n",
      "note_on channel=0 note=62 velocity=127 time=0.0010416666666666667\n",
      "note_off channel=0 note=61 velocity=127 time=0.019791666666666666\n",
      "note_off channel=0 note=62 velocity=127 time=0.0010416666666666667\n",
      "note_on channel=0 note=60 velocity=127 time=0.036458333333333336\n",
      "note_off channel=0 note=60 velocity=127 time=0.019791666666666666\n",
      "note_on channel=0 note=62 velocity=127 time=0.034375\n",
      "note_on channel=0 note=61 velocity=127 time=0.009375\n",
      "note_off channel=0 note=62 velocity=127 time=0.011458333333333333\n",
      "note_off channel=0 note=61 velocity=127 time=0.009375\n",
      "note_on channel=0 note=60 velocity=127 time=0.007291666666666667\n",
      "note_off channel=0 note=60 velocity=127 time=0.019791666666666666\n",
      "note_on channel=0 note=62 velocity=127 time=0.05520833333333333\n",
      "note_on channel=0 note=60 velocity=127 time=0.016666666666666666\n",
      "note_on channel=0 note=61 velocity=127 time=0.0020833333333333333\n",
      "note_off channel=0 note=62 velocity=127 time=0.0010416666666666667\n",
      "note_off channel=0 note=60 velocity=127 time=0.016666666666666666\n",
      "note_off channel=0 note=61 velocity=127 time=0.0020833333333333333\n",
      "note_on channel=0 note=60 velocity=127 time=0.06979166666666667\n",
      "note_on channel=0 note=62 velocity=127 time=0.004166666666666667\n",
      "note_off channel=0 note=60 velocity=127 time=0.016666666666666666\n",
      "note_off channel=0 note=62 velocity=127 time=0.004166666666666667\n",
      "note_on channel=0 note=61 velocity=127 time=0.008333333333333333\n",
      "note_off channel=0 note=61 velocity=127 time=0.019791666666666666\n",
      "note_on channel=0 note=60 velocity=127 time=0.03958333333333333\n",
      "note_off channel=0 note=60 velocity=127 time=0.019791666666666666\n",
      "note_on channel=0 note=62 velocity=127 time=0.004166666666666667\n",
      "note_off channel=0 note=62 velocity=127 time=0.019791666666666666\n",
      "note_on channel=0 note=61 velocity=127 time=0.017708333333333333\n",
      "note_off channel=0 note=61 velocity=127 time=0.019791666666666666\n",
      "note_on channel=0 note=60 velocity=127 time=0.009375\n",
      "note_off channel=0 note=60 velocity=127 time=0.019791666666666666\n",
      "note_on channel=0 note=62 velocity=127 time=0.02395833333333333\n",
      "note_off channel=0 note=62 velocity=127 time=0.019791666666666666\n",
      "note_on channel=0 note=60 velocity=127 time=0.027083333333333334\n",
      "note_on channel=0 note=61 velocity=127 time=0\n",
      "note_off channel=0 note=60 velocity=127 time=0.019791666666666666\n",
      "note_off channel=0 note=61 velocity=127 time=0\n",
      "note_on channel=0 note=62 velocity=127 time=0.04375\n",
      "note_off channel=0 note=62 velocity=127 time=0.019791666666666666\n",
      "note_on channel=0 note=60 velocity=127 time=0.007291666666666667\n",
      "note_off channel=0 note=60 velocity=127 time=0.019791666666666666\n",
      "note_on channel=0 note=61 velocity=127 time=0.010416666666666666\n",
      "note_off channel=0 note=61 velocity=127 time=0.019791666666666666\n",
      "note_on channel=0 note=62 velocity=127 time=0.034375\n",
      "note_on channel=0 note=60 velocity=127 time=0.007291666666666667\n",
      "note_off channel=0 note=62 velocity=127 time=0.0125\n",
      "note_off channel=0 note=60 velocity=127 time=0.007291666666666667\n"
     ]
    },
    {
     "name": "stdout",
     "output_type": "stream",
     "text": [
      "note_on channel=0 note=61 velocity=127 time=0.03958333333333333\n",
      "note_off channel=0 note=61 velocity=127 time=0.019791666666666666\n",
      "note_on channel=0 note=60 velocity=127 time=0.011458333333333333\n",
      "note_on channel=0 note=62 velocity=127 time=0.013541666666666667\n",
      "note_off channel=0 note=60 velocity=127 time=0.007291666666666667\n",
      "note_off channel=0 note=62 velocity=127 time=0.013541666666666667\n",
      "note_on channel=0 note=61 velocity=127 time=0.057291666666666664\n",
      "note_on channel=0 note=60 velocity=127 time=0.0010416666666666667\n",
      "note_off channel=0 note=61 velocity=127 time=0.01875\n",
      "note_off channel=0 note=60 velocity=127 time=0.0010416666666666667\n",
      "note_on channel=0 note=62 velocity=127 time=0.013541666666666667\n",
      "note_off channel=0 note=62 velocity=127 time=0.019791666666666666\n",
      "note_on channel=0 note=60 velocity=127 time=0.03854166666666667\n",
      "note_off channel=0 note=60 velocity=127 time=0.019791666666666666\n",
      "note_on channel=0 note=61 velocity=127 time=0.008333333333333333\n",
      "note_off channel=0 note=61 velocity=127 time=0.019791666666666666\n",
      "note_on channel=0 note=62 velocity=127 time=0.005208333333333333\n",
      "note_off channel=0 note=62 velocity=127 time=0.019791666666666666\n",
      "note_on channel=0 note=60 velocity=127 time=0.017708333333333333\n",
      "note_off channel=0 note=60 velocity=127 time=0.019791666666666666\n",
      "note_on channel=0 note=61 velocity=127 time=0.03854166666666667\n",
      "note_on channel=0 note=62 velocity=127 time=0.015625\n",
      "note_off channel=0 note=61 velocity=127 time=0.004166666666666667\n",
      "note_on channel=0 note=60 velocity=127 time=0.013541666666666667\n",
      "note_off channel=0 note=62 velocity=127 time=0.0020833333333333333\n",
      "note_off channel=0 note=60 velocity=127 time=0.017708333333333333\n",
      "note_on channel=0 note=61 velocity=127 time=0.06770833333333333\n",
      "note_on channel=0 note=60 velocity=127 time=0.003125\n",
      "note_on channel=0 note=62 velocity=127 time=0.0020833333333333333\n",
      "note_off channel=0 note=61 velocity=127 time=0.014583333333333334\n",
      "note_off channel=0 note=60 velocity=127 time=0.003125\n",
      "note_off channel=0 note=62 velocity=127 time=0.0020833333333333333\n",
      "note_on channel=0 note=60 velocity=127 time=0.06875\n",
      "note_off channel=0 note=60 velocity=127 time=0.019791666666666666\n",
      "note_on channel=0 note=62 velocity=127 time=0.003125\n",
      "note_on channel=0 note=61 velocity=127 time=0.004166666666666667\n",
      "note_off channel=0 note=62 velocity=127 time=0.016666666666666666\n",
      "note_off channel=0 note=61 velocity=127 time=0.004166666666666667\n",
      "note_on channel=0 note=60 velocity=127 time=0.04479166666666667\n",
      "note_off channel=0 note=60 velocity=127 time=0.019791666666666666\n",
      "note_on channel=0 note=62 velocity=127 time=0.022916666666666665\n",
      "note_on channel=0 note=61 velocity=127 time=0.013541666666666667\n",
      "note_off channel=0 note=62 velocity=127 time=0.00625\n",
      "note_off channel=0 note=61 velocity=127 time=0.013541666666666667\n",
      "note_on channel=0 note=60 velocity=127 time=0.015625\n",
      "note_off channel=0 note=60 velocity=127 time=0.019791666666666666\n",
      "note_on channel=0 note=62 velocity=127 time=0.042708333333333334\n",
      "note_off channel=0 note=62 velocity=127 time=0.019791666666666666\n",
      "note_on channel=0 note=61 velocity=127 time=0.003125\n",
      "note_on channel=0 note=60 velocity=127 time=0.005208333333333333\n",
      "note_off channel=0 note=61 velocity=127 time=0.014583333333333334\n",
      "note_off channel=0 note=60 velocity=127 time=0.005208333333333333\n",
      "note_on channel=0 note=62 velocity=127 time=0.06354166666666666\n",
      "note_on channel=0 note=60 velocity=127 time=0.008333333333333333\n",
      "note_off channel=0 note=62 velocity=127 time=0.011458333333333333\n",
      "note_off channel=0 note=60 velocity=127 time=0.008333333333333333\n",
      "note_on channel=0 note=61 velocity=127 time=0.004166666666666667\n",
      "note_off channel=0 note=61 velocity=127 time=0.019791666666666666\n",
      "note_on channel=0 note=60 velocity=127 time=0.046875\n",
      "note_on channel=0 note=62 velocity=127 time=0.011458333333333333\n",
      "note_off channel=0 note=60 velocity=127 time=0.008333333333333333\n",
      "note_off channel=0 note=62 velocity=127 time=0.011458333333333333\n",
      "note_on channel=0 note=61 velocity=127 time=0.022916666666666665\n",
      "note_off channel=0 note=61 velocity=127 time=0.019791666666666666\n",
      "note_on channel=0 note=60 velocity=127 time=0.016666666666666666\n",
      "note_off channel=0 note=60 velocity=127 time=0.019791666666666666\n",
      "note_on channel=0 note=62 velocity=127 time=0.0125\n",
      "note_off channel=0 note=62 velocity=127 time=0.019791666666666666\n",
      "note_on channel=0 note=61 velocity=127 time=0.03229166666666666\n",
      "note_on channel=0 note=60 velocity=127 time=0.007291666666666667\n",
      "note_off channel=0 note=61 velocity=127 time=0.0125\n",
      "\u001b[91m [DEBUG] > \u001b[0m\n",
      " |>  to_array: msg.time > max_t; t, n\n",
      " |>  2.997916666666668\n",
      " |>  150\n",
      "note_on channel=0 note=61 velocity=127 time=0.035416666666666666\n",
      "note_off channel=0 note=61 velocity=127 time=0.019791666666666666\n",
      "note_on channel=0 note=62 velocity=127 time=0.0020833333333333333\n",
      "note_on channel=0 note=60 velocity=127 time=0.004166666666666667\n",
      "note_off channel=0 note=62 velocity=127 time=0.015625\n",
      "note_off channel=0 note=60 velocity=127 time=0.004166666666666667\n",
      "note_on channel=0 note=61 velocity=127 time=0.03333333333333333\n",
      "note_off channel=0 note=61 velocity=127 time=0.019791666666666666\n",
      "note_on channel=0 note=60 velocity=127 time=0.005208333333333333\n",
      "note_on channel=0 note=62 velocity=127 time=0.01875\n",
      "note_off channel=0 note=60 velocity=127 time=0.0010416666666666667\n",
      "note_off channel=0 note=62 velocity=127 time=0.01875\n",
      "note_on channel=0 note=61 velocity=127 time=0.016666666666666666\n",
      "note_off channel=0 note=61 velocity=127 time=0.019791666666666666\n",
      "note_on channel=0 note=60 velocity=127 time=0.004166666666666667\n",
      "note_off channel=0 note=60 velocity=127 time=0.019791666666666666\n",
      "note_on channel=0 note=62 velocity=127 time=0.020833333333333332\n",
      "note_on channel=0 note=61 velocity=127 time=0.015625\n",
      "note_off channel=0 note=62 velocity=127 time=0.004166666666666667\n",
      "note_off channel=0 note=61 velocity=127 time=0.015625\n",
      "note_on channel=0 note=60 velocity=127 time=0.0020833333333333333\n",
      "note_off channel=0 note=60 velocity=127 time=0.019791666666666666\n",
      "note_on channel=0 note=61 velocity=127 time=0.03854166666666667\n",
      "note_on channel=0 note=62 velocity=127 time=0.00625\n",
      "note_off channel=0 note=61 velocity=127 time=0.013541666666666667\n",
      "note_on channel=0 note=60 velocity=127 time=0.0010416666666666667\n",
      "note_off channel=0 note=62 velocity=127 time=0.005208333333333333\n",
      "note_off channel=0 note=60 velocity=127 time=0.014583333333333334\n",
      "note_on channel=0 note=61 velocity=127 time=0.03958333333333333\n",
      "note_on channel=0 note=60 velocity=127 time=0.019791666666666666\n",
      "note_off channel=0 note=61 velocity=127 time=0\n",
      "note_on channel=0 note=62 velocity=127 time=0.007291666666666667\n",
      "note_off channel=0 note=60 velocity=127 time=0.0125\n",
      "note_off channel=0 note=62 velocity=127 time=0.008333333333333333\n",
      "note_on channel=0 note=61 velocity=127 time=0.03333333333333333\n",
      "note_on channel=0 note=60 velocity=127 time=0.017708333333333333\n",
      "note_off channel=0 note=61 velocity=127 time=0.0020833333333333333\n",
      "note_off channel=0 note=60 velocity=127 time=0.017708333333333333\n",
      "note_on channel=0 note=62 velocity=127 time=0.010416666666666666\n",
      "note_off channel=0 note=62 velocity=127 time=0.019791666666666666\n",
      "note_on channel=0 note=61 velocity=127 time=0.011458333333333333\n",
      "note_on channel=0 note=60 velocity=127 time=0.016666666666666666\n",
      "note_off channel=0 note=61 velocity=127 time=0.003125\n",
      "note_off channel=0 note=60 velocity=127 time=0.016666666666666666\n",
      "note_on channel=0 note=62 velocity=127 time=0.03333333333333333\n",
      "note_on channel=0 note=61 velocity=127 time=0.010416666666666666\n",
      "note_off channel=0 note=62 velocity=127 time=0.010416666666666666\n",
      "note_on channel=0 note=60 velocity=127 time=0.005208333333333333\n",
      "note_off channel=0 note=61 velocity=127 time=0.004166666666666667\n",
      "note_off channel=0 note=60 velocity=127 time=0.015625\n",
      "note_on channel=0 note=61 velocity=127 time=0.04479166666666667\n",
      "note_on channel=0 note=62 velocity=127 time=0.011458333333333333\n",
      "note_on channel=0 note=60 velocity=127 time=0.0020833333333333333\n",
      "note_off channel=0 note=61 velocity=127 time=0.00625\n",
      "note_off channel=0 note=62 velocity=127 time=0.011458333333333333\n",
      "note_off channel=0 note=60 velocity=127 time=0.0020833333333333333\n",
      "note_on channel=0 note=61 velocity=127 time=0.046875\n",
      "note_on channel=0 note=60 velocity=127 time=0.0125\n",
      "note_off channel=0 note=61 velocity=127 time=0.007291666666666667\n",
      "note_off channel=0 note=60 velocity=127 time=0.0125\n",
      "note_on channel=0 note=62 velocity=127 time=0\n",
      "note_off channel=0 note=62 velocity=127 time=0.019791666666666666\n",
      "note_on channel=0 note=61 velocity=127 time=0.027083333333333334\n",
      "note_on channel=0 note=60 velocity=127 time=0.011458333333333333\n",
      "note_off channel=0 note=61 velocity=127 time=0.009375\n",
      "note_off channel=0 note=60 velocity=127 time=0.011458333333333333\n",
      "note_on channel=0 note=62 velocity=127 time=0.022916666666666665\n",
      "note_off channel=0 note=62 velocity=127 time=0.019791666666666666\n",
      "note_on channel=0 note=61 velocity=127 time=0.00625\n",
      "note_on channel=0 note=60 velocity=127 time=0.009375\n",
      "note_off channel=0 note=61 velocity=127 time=0.010416666666666666\n",
      "note_off channel=0 note=60 velocity=127 time=0.009375\n",
      "note_on channel=0 note=62 velocity=127 time=0.04583333333333333\n",
      "note_on channel=0 note=61 velocity=127 time=0.005208333333333333\n",
      "note_on channel=0 note=60 velocity=127 time=0.008333333333333333\n",
      "note_off channel=0 note=62 velocity=127 time=0.007291666666666667\n",
      "note_off channel=0 note=61 velocity=127 time=0.005208333333333333\n",
      "note_off channel=0 note=60 velocity=127 time=0.008333333333333333\n",
      "note_on channel=0 note=61 velocity=127 time=0.052083333333333336\n",
      "note_on channel=0 note=60 velocity=127 time=0.007291666666666667\n",
      "note_on channel=0 note=62 velocity=127 time=0.009375\n",
      "note_off channel=0 note=61 velocity=127 time=0.003125\n",
      "note_off channel=0 note=60 velocity=127 time=0.007291666666666667\n",
      "note_off channel=0 note=62 velocity=127 time=0.009375\n",
      "note_on channel=0 note=61 velocity=127 time=0.04375\n",
      "note_on channel=0 note=60 velocity=127 time=0.005208333333333333\n",
      "note_off channel=0 note=61 velocity=127 time=0.014583333333333334\n",
      "note_off channel=0 note=60 velocity=127 time=0.005208333333333333\n",
      "note_on channel=0 note=62 velocity=127 time=0.0125\n",
      "note_off channel=0 note=62 velocity=127 time=0.019791666666666666\n",
      "note_on channel=0 note=61 velocity=127 time=0.021875\n",
      "note_on channel=0 note=60 velocity=127 time=0.004166666666666667\n",
      "note_off channel=0 note=61 velocity=127 time=0.015625\n",
      "note_off channel=0 note=60 velocity=127 time=0.004166666666666667\n",
      "note_on channel=0 note=62 velocity=127 time=0.035416666666666666\n",
      "note_off channel=0 note=62 velocity=127 time=0.019791666666666666\n",
      "note_on channel=0 note=61 velocity=127 time=0.0010416666666666667\n",
      "note_on channel=0 note=60 velocity=127 time=0.003125\n",
      "note_off channel=0 note=61 velocity=127 time=0.017708333333333333\n",
      "note_off channel=0 note=60 velocity=127 time=0.003125\n",
      "note_on channel=0 note=61 velocity=127 time=0.058333333333333334\n",
      "note_on channel=0 note=62 velocity=127 time=0.0010416666666666667\n",
      "note_on channel=0 note=60 velocity=127 time=0.0010416666666666667\n",
      "note_off channel=0 note=61 velocity=127 time=0.01875\n",
      "note_off channel=0 note=62 velocity=127 time=0.0010416666666666667\n",
      "note_off channel=0 note=60 velocity=127 time=0.0010416666666666667\n",
      "note_on channel=0 note=60 velocity=127 time=0.059375\n",
      "note_on channel=0 note=61 velocity=127 time=0\n",
      "note_off channel=0 note=60 velocity=127 time=0.019791666666666666\n",
      "note_off channel=0 note=61 velocity=127 time=0\n",
      "note_on channel=0 note=62 velocity=127 time=0.0020833333333333333\n",
      "note_off channel=0 note=62 velocity=127 time=0.019791666666666666\n",
      "note_on channel=0 note=60 velocity=127 time=0.036458333333333336\n",
      "note_on channel=0 note=61 velocity=127 time=0.0020833333333333333\n",
      "note_off channel=0 note=60 velocity=127 time=0.01875\n",
      "note_off channel=0 note=61 velocity=127 time=0.0020833333333333333\n",
      "note_on channel=0 note=62 velocity=127 time=0.02395833333333333\n",
      "note_off channel=0 note=62 velocity=127 time=0.019791666666666666\n",
      "note_on channel=0 note=60 velocity=127 time=0.013541666666666667\n",
      "note_on channel=0 note=61 velocity=127 time=0.003125\n",
      "note_off channel=0 note=60 velocity=127 time=0.016666666666666666\n",
      "note_off channel=0 note=61 velocity=127 time=0.003125\n",
      "note_on channel=0 note=62 velocity=127 time=0.04479166666666667\n",
      "note_on channel=0 note=60 velocity=127 time=0.011458333333333333\n",
      "note_on channel=0 note=61 velocity=127 time=0.004166666666666667\n",
      "note_off channel=0 note=62 velocity=127 time=0.004166666666666667\n",
      "note_off channel=0 note=60 velocity=127 time=0.011458333333333333\n",
      "note_off channel=0 note=61 velocity=127 time=0.004166666666666667\n",
      "note_on channel=0 note=60 velocity=127 time=0.05416666666666667\n",
      "note_on channel=0 note=61 velocity=127 time=0.00625\n",
      "note_on channel=0 note=62 velocity=127 time=0.00625\n",
      "note_off channel=0 note=60 velocity=127 time=0.008333333333333333\n",
      "note_off channel=0 note=61 velocity=127 time=0.00625\n",
      "note_off channel=0 note=62 velocity=127 time=0.00625\n",
      "note_on channel=0 note=60 velocity=127 time=0.046875\n",
      "note_on channel=0 note=61 velocity=127 time=0.007291666666666667\n",
      "note_off channel=0 note=60 velocity=127 time=0.0125\n",
      "note_off channel=0 note=61 velocity=127 time=0.007291666666666667\n",
      "note_on channel=0 note=62 velocity=127 time=0.007291666666666667\n",
      "note_off channel=0 note=62 velocity=127 time=0.019791666666666666\n",
      "note_on channel=0 note=60 velocity=127 time=0.02395833333333333\n",
      "note_on channel=0 note=61 velocity=127 time=0.008333333333333333\n",
      "note_off channel=0 note=60 velocity=127 time=0.011458333333333333\n",
      "note_off channel=0 note=61 velocity=127 time=0.008333333333333333\n",
      "note_on channel=0 note=62 velocity=127 time=0.029166666666666667\n",
      "note_off channel=0 note=62 velocity=127 time=0.019791666666666666\n",
      "note_on channel=0 note=60 velocity=127 time=0.0020833333333333333\n",
      "note_on channel=0 note=61 velocity=127 time=0.010416666666666666\n",
      "note_off channel=0 note=60 velocity=127 time=0.010416666666666666\n",
      "note_off channel=0 note=61 velocity=127 time=0.010416666666666666\n",
      "note_on channel=0 note=60 velocity=127 time=0.04895833333333333\n",
      "note_on channel=0 note=62 velocity=127 time=0.0010416666666666667\n",
      "note_on channel=0 note=61 velocity=127 time=0.010416666666666666\n",
      "note_off channel=0 note=60 velocity=127 time=0.008333333333333333\n",
      "note_off channel=0 note=62 velocity=127 time=0.0010416666666666667\n",
      "note_off channel=0 note=61 velocity=127 time=0.010416666666666666\n",
      "note_on channel=0 note=60 velocity=127 time=0.04791666666666666\n",
      "note_on channel=0 note=61 velocity=127 time=0.0125\n",
      "note_off channel=0 note=60 velocity=127 time=0.007291666666666667\n",
      "note_on channel=0 note=62 velocity=127 time=0.004166666666666667\n",
      "note_off channel=0 note=61 velocity=127 time=0.008333333333333333\n",
      "note_off channel=0 note=62 velocity=127 time=0.011458333333333333\n",
      "note_on channel=0 note=60 velocity=127 time=0.035416666666666666\n",
      "note_on channel=0 note=61 velocity=127 time=0.014583333333333334\n",
      "note_off channel=0 note=60 velocity=127 time=0.005208333333333333\n",
      "note_off channel=0 note=61 velocity=127 time=0.014583333333333334\n",
      "note_on channel=0 note=62 velocity=127 time=0.0125\n",
      "note_off channel=0 note=62 velocity=127 time=0.019791666666666666\n",
      "note_on channel=0 note=60 velocity=127 time=0.0125\n",
      "note_on channel=0 note=61 velocity=127 time=0.015625\n",
      "note_off channel=0 note=60 velocity=127 time=0.004166666666666667\n",
      "note_off channel=0 note=61 velocity=127 time=0.015625\n",
      "note_on channel=0 note=62 velocity=127 time=0.034375\n",
      "note_on channel=0 note=60 velocity=127 time=0.009375\n",
      "note_off channel=0 note=62 velocity=127 time=0.010416666666666666\n",
      "note_on channel=0 note=61 velocity=127 time=0.00625\n",
      "note_off channel=0 note=60 velocity=127 time=0.003125\n",
      "note_off channel=0 note=61 velocity=127 time=0.016666666666666666\n",
      "note_on channel=0 note=60 velocity=127 time=0.041666666666666664\n",
      "note_on channel=0 note=62 velocity=127 time=0.013541666666666667\n",
      "note_on channel=0 note=61 velocity=127 time=0.005208333333333333\n",
      "note_off channel=0 note=60 velocity=127 time=0.0010416666666666667\n",
      "note_off channel=0 note=62 velocity=127 time=0.013541666666666667\n",
      "note_off channel=0 note=61 velocity=127 time=0.005208333333333333\n",
      "note_on channel=0 note=60 velocity=127 time=0.040625\n",
      "note_on channel=0 note=61 velocity=127 time=0.019791666666666666\n",
      "note_off channel=0 note=60 velocity=127 time=0\n",
      "note_on channel=0 note=62 velocity=127 time=0.016666666666666666\n",
      "note_off channel=0 note=61 velocity=127 time=0.003125\n",
      "note_off channel=0 note=62 velocity=127 time=0.016666666666666666\n",
      "note_on channel=0 note=60 velocity=127 time=0.022916666666666665\n",
      "note_off channel=0 note=60 velocity=127 time=0.019791666666666666\n",
      "note_on channel=0 note=61 velocity=127 time=0.0010416666666666667\n",
      "note_off channel=0 note=61 velocity=127 time=0.019791666666666666\n",
      "note_on channel=0 note=62 velocity=127 time=0.017708333333333333\n",
      "note_on channel=0 note=60 velocity=127 time=0.019791666666666666\n",
      "note_off channel=0 note=62 velocity=127 time=0\n",
      "note_off channel=0 note=60 velocity=127 time=0.019791666666666666\n",
      "note_on channel=0 note=61 velocity=127 time=0.003125\n",
      "note_off channel=0 note=61 velocity=127 time=0.019791666666666666\n",
      "note_on channel=0 note=60 velocity=127 time=0.036458333333333336\n",
      "note_on channel=0 note=62 velocity=127 time=0.003125\n",
      "note_off channel=0 note=60 velocity=127 time=0.016666666666666666\n",
      "note_off channel=0 note=62 velocity=127 time=0.003125\n",
      "note_on channel=0 note=61 velocity=127 time=0.0010416666666666667\n",
      "note_off channel=0 note=61 velocity=127 time=0.019791666666666666\n",
      "note_on channel=0 note=60 velocity=127 time=0.034375\n",
      "note_off channel=0 note=60 velocity=127 time=0.019791666666666666\n",
      "\u001b[91m [DEBUG] > \u001b[0m\n",
      " |>  to_array: msg.time > max_t; t, n\n",
      " |>  3.0041666666666673\n",
      " |>  150\n",
      "note_on channel=0 note=61 velocity=127 time=0.011458333333333333\n",
      "note_on channel=0 note=62 velocity=127 time=0.010416666666666666\n",
      "note_off channel=0 note=61 velocity=127 time=0.009375\n",
      "note_on channel=0 note=60 velocity=127 time=0.005208333333333333\n",
      "note_off channel=0 note=62 velocity=127 time=0.00625\n",
      "note_off channel=0 note=60 velocity=127 time=0.014583333333333334\n",
      "note_on channel=0 note=60 velocity=127 time=0.08125\n",
      "note_off channel=0 note=60 velocity=127 time=0.019791666666666666\n",
      "note_on channel=0 note=62 velocity=127 time=0.036458333333333336\n",
      "note_off channel=0 note=62 velocity=127 time=0.019791666666666666\n",
      "note_on channel=0 note=60 velocity=127 time=0.02395833333333333\n",
      "note_off channel=0 note=60 velocity=127 time=0.019791666666666666\n",
      "note_on channel=0 note=61 velocity=127 time=0.028125\n",
      "note_off channel=0 note=61 velocity=127 time=0.019791666666666666\n",
      "note_on channel=0 note=60 velocity=127 time=0.03333333333333333\n",
      "note_off channel=0 note=60 velocity=127 time=0.019791666666666666\n",
      "note_on channel=0 note=62 velocity=127 time=0.007291666666666667\n",
      "note_off channel=0 note=62 velocity=127 time=0.019791666666666666\n",
      "note_on channel=0 note=60 velocity=127 time=0.05416666666666667\n",
      "note_off channel=0 note=60 velocity=127 time=0.019791666666666666\n",
      "note_on channel=0 note=62 velocity=127 time=0.078125\n",
      "note_on channel=0 note=60 velocity=127 time=0.003125\n",
      "note_off channel=0 note=62 velocity=127 time=0.016666666666666666\n",
      "note_on channel=0 note=61 velocity=127 time=0.0020833333333333333\n",
      "note_off channel=0 note=60 velocity=127 time=0.0010416666666666667\n",
      "note_off channel=0 note=61 velocity=127 time=0.019791666666666666\n",
      "note_on channel=0 note=60 velocity=127 time=0.06145833333333333\n",
      "note_off channel=0 note=60 velocity=127 time=0.019791666666666666\n",
      "note_on channel=0 note=62 velocity=127 time=0.04791666666666666\n",
      "note_off channel=0 note=62 velocity=127 time=0.019791666666666666\n",
      "note_on channel=0 note=60 velocity=127 time=0.0125\n",
      "note_off channel=0 note=60 velocity=127 time=0.019791666666666666\n",
      "note_on channel=0 note=61 velocity=127 time=0.071875\n",
      "note_on channel=0 note=60 velocity=127 time=0.009375\n",
      "note_off channel=0 note=61 velocity=127 time=0.011458333333333333\n",
      "note_off channel=0 note=60 velocity=127 time=0.009375\n",
      "note_on channel=0 note=62 velocity=127 time=0.017708333333333333\n",
      "note_off channel=0 note=62 velocity=127 time=0.019791666666666666\n",
      "note_on channel=0 note=60 velocity=127 time=0.042708333333333334\n",
      "note_off channel=0 note=60 velocity=127 time=0.019791666666666666\n",
      "note_on channel=0 note=60 velocity=127 time=0.08125\n",
      "note_on channel=0 note=62 velocity=127 time=0.008333333333333333\n",
      "note_off channel=0 note=60 velocity=127 time=0.011458333333333333\n",
      "note_off channel=0 note=62 velocity=127 time=0.008333333333333333\n",
      "note_on channel=0 note=61 velocity=127 time=0.035416666666666666\n",
      "note_off channel=0 note=61 velocity=127 time=0.019791666666666666\n",
      "note_on channel=0 note=60 velocity=127 time=0.017708333333333333\n",
      "note_off channel=0 note=60 velocity=127 time=0.019791666666666666\n",
      "note_on channel=0 note=62 velocity=127 time=0.059375\n",
      "note_off channel=0 note=62 velocity=127 time=0.019791666666666666\n",
      "note_on channel=0 note=60 velocity=127 time=0.0020833333333333333\n",
      "note_off channel=0 note=60 velocity=127 time=0.019791666666666666\n",
      "note_on channel=0 note=60 velocity=127 time=0.08125\n",
      "note_off channel=0 note=60 velocity=127 time=0.019791666666666666\n",
      "note_on channel=0 note=61 velocity=127 time=0.015625\n",
      "note_on channel=0 note=62 velocity=127 time=0.013541666666666667\n",
      "note_off channel=0 note=61 velocity=127 time=0.00625\n",
      "note_off channel=0 note=62 velocity=127 time=0.013541666666666667\n",
      "note_on channel=0 note=60 velocity=127 time=0.03125\n",
      "note_off channel=0 note=60 velocity=127 time=0.019791666666666666\n",
      "note_on channel=0 note=60 velocity=127 time=0.08125\n",
      "note_on channel=0 note=62 velocity=127 time=0.019791666666666666\n",
      "note_off channel=0 note=60 velocity=127 time=0.0010416666666666667\n",
      "note_off channel=0 note=62 velocity=127 time=0.019791666666666666\n",
      "note_on channel=0 note=60 velocity=127 time=0.06145833333333333\n",
      "note_on channel=0 note=61 velocity=127 time=0.007291666666666667\n",
      "note_off channel=0 note=60 velocity=127 time=0.0125\n",
      "note_off channel=0 note=61 velocity=127 time=0.007291666666666667\n",
      "note_on channel=0 note=62 velocity=127 time=0.06354166666666666\n",
      "note_on channel=0 note=60 velocity=127 time=0.010416666666666666\n",
      "note_off channel=0 note=62 velocity=127 time=0.009375\n",
      "note_off channel=0 note=60 velocity=127 time=0.010416666666666666\n",
      "note_on channel=0 note=60 velocity=127 time=0.08125\n",
      "note_off channel=0 note=60 velocity=127 time=0.019791666666666666\n",
      "note_on channel=0 note=62 velocity=127 time=0.040625\n",
      "note_on channel=0 note=61 velocity=127 time=0.01875\n",
      "note_off channel=0 note=62 velocity=127 time=0.0010416666666666667\n",
      "note_off channel=0 note=61 velocity=127 time=0.01875\n",
      "note_on channel=0 note=60 velocity=127 time=0.0010416666666666667\n",
      "note_off channel=0 note=60 velocity=127 time=0.019791666666666666\n",
      "note_on channel=0 note=60 velocity=127 time=0.08125\n",
      "note_off channel=0 note=60 velocity=127 time=0.019791666666666666\n",
      "note_on channel=0 note=62 velocity=127 time=0.010416666666666666\n",
      "note_off channel=0 note=62 velocity=127 time=0.019791666666666666\n",
      "note_on channel=0 note=60 velocity=127 time=0.05\n",
      "note_off channel=0 note=60 velocity=127 time=0.019791666666666666\n",
      "note_on channel=0 note=61 velocity=127 time=0.03125\n",
      "note_off channel=0 note=61 velocity=127 time=0.019791666666666666\n",
      "note_on channel=0 note=60 velocity=127 time=0.029166666666666667\n",
      "note_on channel=0 note=62 velocity=127 time=0.0010416666666666667\n",
      "note_off channel=0 note=60 velocity=127 time=0.019791666666666666\n",
      "note_off channel=0 note=62 velocity=127 time=0.0010416666666666667\n",
      "note_on channel=0 note=60 velocity=127 time=0.08020833333333333\n",
      "note_off channel=0 note=60 velocity=127 time=0.019791666666666666\n",
      "note_on channel=0 note=62 velocity=127 time=0.052083333333333336\n",
      "note_off channel=0 note=62 velocity=127 time=0.019791666666666666\n",
      "note_on channel=0 note=60 velocity=127 time=0.009375\n",
      "note_off channel=0 note=60 velocity=127 time=0.019791666666666666\n",
      "note_on channel=0 note=61 velocity=127 time=0.003125\n",
      "note_off channel=0 note=61 velocity=127 time=0.019791666666666666\n",
      "note_on channel=0 note=60 velocity=127 time=0.057291666666666664\n",
      "note_off channel=0 note=60 velocity=127 time=0.019791666666666666\n",
      "note_on channel=0 note=62 velocity=127 time=0.021875\n",
      "note_off channel=0 note=62 velocity=127 time=0.019791666666666666\n",
      "note_on channel=0 note=60 velocity=127 time=0.03958333333333333\n",
      "note_off channel=0 note=60 velocity=127 time=0.019791666666666666\n",
      "note_on channel=0 note=61 velocity=127 time=0.07604166666666666\n",
      "note_on channel=0 note=60 velocity=127 time=0.005208333333333333\n",
      "note_on channel=0 note=62 velocity=127 time=0.011458333333333333\n",
      "note_off channel=0 note=61 velocity=127 time=0.003125\n",
      "note_off channel=0 note=60 velocity=127 time=0.005208333333333333\n",
      "note_off channel=0 note=62 velocity=127 time=0.011458333333333333\n",
      "note_on channel=0 note=60 velocity=127 time=0.06875\n",
      "note_off channel=0 note=60 velocity=127 time=0.019791666666666666\n",
      "note_on channel=0 note=62 velocity=127 time=0.0625\n",
      "note_on channel=0 note=60 velocity=127 time=0.017708333333333333\n",
      "note_off channel=0 note=62 velocity=127 time=0.0020833333333333333\n",
      "note_off channel=0 note=60 velocity=127 time=0.017708333333333333\n",
      "note_on channel=0 note=61 velocity=127 time=0.04791666666666666\n",
      "\u001b[91m [DEBUG] > \u001b[0m\n",
      " |>  to_array: msg.time > max_t; t, n\n",
      " |>  3.0281250000000015\n",
      " |>  150\n",
      "note_on channel=0 note=62 velocity=127 time=0.016666666666666666\n",
      "note_off channel=0 note=62 velocity=127 time=0.019791666666666666\n",
      "note_on channel=0 note=61 velocity=127 time=0.03125\n",
      "note_off channel=0 note=61 velocity=127 time=0.019791666666666666\n",
      "note_on channel=0 note=62 velocity=127 time=0.041666666666666664\n",
      "note_off channel=0 note=62 velocity=127 time=0.019791666666666666\n",
      "note_on channel=0 note=61 velocity=127 time=0.03229166666666666\n",
      "note_off channel=0 note=61 velocity=127 time=0.019791666666666666\n",
      "note_on channel=0 note=60 velocity=127 time=0.00625\n",
      "note_off channel=0 note=60 velocity=127 time=0.019791666666666666\n",
      "note_on channel=0 note=62 velocity=127 time=0.014583333333333334\n",
      "note_off channel=0 note=62 velocity=127 time=0.019791666666666666\n",
      "note_on channel=0 note=61 velocity=127 time=0.03229166666666666\n",
      "note_off channel=0 note=61 velocity=127 time=0.019791666666666666\n",
      "note_on channel=0 note=62 velocity=127 time=0.041666666666666664\n",
      "note_off channel=0 note=62 velocity=127 time=0.019791666666666666\n",
      "note_on channel=0 note=61 velocity=127 time=0.03229166666666666\n",
      "note_off channel=0 note=61 velocity=127 time=0.019791666666666666\n",
      "note_on channel=0 note=60 velocity=127 time=0.020833333333333332\n",
      "note_on channel=0 note=62 velocity=127 time=0.019791666666666666\n",
      "note_off channel=0 note=60 velocity=127 time=0\n",
      "note_off channel=0 note=62 velocity=127 time=0.019791666666666666\n",
      "note_on channel=0 note=61 velocity=127 time=0.03229166666666666\n",
      "note_off channel=0 note=61 velocity=127 time=0.019791666666666666\n",
      "note_on channel=0 note=62 velocity=127 time=0.040625\n",
      "note_off channel=0 note=62 velocity=127 time=0.019791666666666666\n",
      "note_on channel=0 note=61 velocity=127 time=0.03333333333333333\n",
      "note_off channel=0 note=61 velocity=127 time=0.019791666666666666\n",
      "note_on channel=0 note=60 velocity=127 time=0.035416666666666666\n",
      "note_on channel=0 note=62 velocity=127 time=0.004166666666666667\n",
      "note_off channel=0 note=60 velocity=127 time=0.015625\n",
      "note_off channel=0 note=62 velocity=127 time=0.004166666666666667\n",
      "note_on channel=0 note=61 velocity=127 time=0.03333333333333333\n",
      "note_off channel=0 note=61 velocity=127 time=0.019791666666666666\n",
      "note_on channel=0 note=62 velocity=127 time=0.03958333333333333\n",
      "note_off channel=0 note=62 velocity=127 time=0.019791666666666666\n",
      "note_on channel=0 note=61 velocity=127 time=0.03333333333333333\n",
      "note_off channel=0 note=61 velocity=127 time=0.019791666666666666\n",
      "note_on channel=0 note=62 velocity=127 time=0.03958333333333333\n",
      "note_on channel=0 note=60 velocity=127 time=0.010416666666666666\n",
      "note_off channel=0 note=62 velocity=127 time=0.009375\n",
      "note_off channel=0 note=60 velocity=127 time=0.010416666666666666\n",
      "note_on channel=0 note=61 velocity=127 time=0.022916666666666665\n",
      "note_off channel=0 note=61 velocity=127 time=0.019791666666666666\n",
      "note_on channel=0 note=62 velocity=127 time=0.03958333333333333\n",
      "note_off channel=0 note=62 velocity=127 time=0.019791666666666666\n",
      "note_on channel=0 note=61 velocity=127 time=0.034375\n",
      "note_off channel=0 note=61 velocity=127 time=0.019791666666666666\n",
      "note_on channel=0 note=62 velocity=127 time=0.03854166666666667\n",
      "note_off channel=0 note=62 velocity=127 time=0.019791666666666666\n",
      "note_on channel=0 note=60 velocity=127 time=0.00625\n",
      "note_off channel=0 note=60 velocity=127 time=0.019791666666666666\n",
      "note_on channel=0 note=61 velocity=127 time=0.008333333333333333\n",
      "note_off channel=0 note=61 velocity=127 time=0.019791666666666666\n",
      "note_on channel=0 note=62 velocity=127 time=0.03854166666666667\n",
      "note_off channel=0 note=62 velocity=127 time=0.019791666666666666\n",
      "note_on channel=0 note=61 velocity=127 time=0.035416666666666666\n",
      "note_off channel=0 note=61 velocity=127 time=0.019791666666666666\n",
      "note_on channel=0 note=62 velocity=127 time=0.03854166666666667\n",
      "note_off channel=0 note=62 velocity=127 time=0.019791666666666666\n",
      "note_on channel=0 note=60 velocity=127 time=0.020833333333333332\n",
      "note_on channel=0 note=61 velocity=127 time=0.013541666666666667\n",
      "note_off channel=0 note=60 velocity=127 time=0.00625\n",
      "note_off channel=0 note=61 velocity=127 time=0.013541666666666667\n",
      "note_on channel=0 note=62 velocity=127 time=0.03854166666666667\n",
      "note_off channel=0 note=62 velocity=127 time=0.019791666666666666\n",
      "note_on channel=0 note=61 velocity=127 time=0.035416666666666666\n",
      "note_off channel=0 note=61 velocity=127 time=0.019791666666666666\n",
      "note_on channel=0 note=62 velocity=127 time=0.0375\n",
      "note_off channel=0 note=62 velocity=127 time=0.019791666666666666\n",
      "note_on channel=0 note=61 velocity=127 time=0.035416666666666666\n",
      "note_on channel=0 note=60 velocity=127 time=0.0010416666666666667\n",
      "note_off channel=0 note=61 velocity=127 time=0.019791666666666666\n",
      "note_off channel=0 note=60 velocity=127 time=0.0010416666666666667\n",
      "note_on channel=0 note=62 velocity=127 time=0.036458333333333336\n",
      "note_off channel=0 note=62 velocity=127 time=0.019791666666666666\n",
      "note_on channel=0 note=61 velocity=127 time=0.036458333333333336\n",
      "note_off channel=0 note=61 velocity=127 time=0.019791666666666666\n",
      "note_on channel=0 note=62 velocity=127 time=0.0375\n",
      "note_off channel=0 note=62 velocity=127 time=0.019791666666666666\n",
      "note_on channel=0 note=61 velocity=127 time=0.036458333333333336\n",
      "note_on channel=0 note=60 velocity=127 time=0.015625\n",
      "note_off channel=0 note=61 velocity=127 time=0.005208333333333333\n",
      "note_off channel=0 note=60 velocity=127 time=0.015625\n",
      "note_on channel=0 note=62 velocity=127 time=0.021875\n",
      "note_off channel=0 note=62 velocity=127 time=0.019791666666666666\n",
      "note_on channel=0 note=61 velocity=127 time=0.036458333333333336\n",
      "note_off channel=0 note=61 velocity=127 time=0.019791666666666666\n",
      "note_on channel=0 note=62 velocity=127 time=0.036458333333333336\n",
      "note_off channel=0 note=62 velocity=127 time=0.019791666666666666\n",
      "note_on channel=0 note=61 velocity=127 time=0.0375\n",
      "note_off channel=0 note=61 velocity=127 time=0.019791666666666666\n",
      "note_on channel=0 note=60 velocity=127 time=0.009375\n",
      "note_off channel=0 note=60 velocity=127 time=0.019791666666666666\n",
      "note_on channel=0 note=62 velocity=127 time=0.00625\n",
      "note_off channel=0 note=62 velocity=127 time=0.019791666666666666\n",
      "note_on channel=0 note=61 velocity=127 time=0.0375\n",
      "note_off channel=0 note=61 velocity=127 time=0.019791666666666666\n",
      "note_on channel=0 note=62 velocity=127 time=0.036458333333333336\n",
      "note_off channel=0 note=62 velocity=127 time=0.019791666666666666\n",
      "note_on channel=0 note=61 velocity=127 time=0.0375\n",
      "note_off channel=0 note=61 velocity=127 time=0.019791666666666666\n",
      "note_on channel=0 note=60 velocity=127 time=0.025\n",
      "note_on channel=0 note=62 velocity=127 time=0.011458333333333333\n",
      "note_off channel=0 note=60 velocity=127 time=0.008333333333333333\n",
      "note_off channel=0 note=62 velocity=127 time=0.011458333333333333\n",
      "note_on channel=0 note=61 velocity=127 time=0.0375\n",
      "note_off channel=0 note=61 velocity=127 time=0.019791666666666666\n",
      "note_on channel=0 note=62 velocity=127 time=0.035416666666666666\n",
      "note_off channel=0 note=62 velocity=127 time=0.019791666666666666\n",
      "note_on channel=0 note=61 velocity=127 time=0.03854166666666667\n",
      "note_off channel=0 note=61 velocity=127 time=0.019791666666666666\n",
      "note_on channel=0 note=62 velocity=127 time=0.035416666666666666\n",
      "note_on channel=0 note=60 velocity=127 time=0.004166666666666667\n",
      "note_off channel=0 note=62 velocity=127 time=0.015625\n",
      "note_off channel=0 note=60 velocity=127 time=0.004166666666666667\n",
      "note_on channel=0 note=61 velocity=127 time=0.034375\n",
      "note_off channel=0 note=61 velocity=127 time=0.019791666666666666\n",
      "note_on channel=0 note=62 velocity=127 time=0.034375\n",
      "note_off channel=0 note=62 velocity=127 time=0.019791666666666666\n",
      "note_on channel=0 note=61 velocity=127 time=0.03854166666666667\n",
      "note_off channel=0 note=61 velocity=127 time=0.019791666666666666\n",
      "note_on channel=0 note=62 velocity=127 time=0.034375\n",
      "note_on channel=0 note=60 velocity=127 time=0.01875\n",
      "note_off channel=0 note=62 velocity=127 time=0.0010416666666666667\n",
      "note_off channel=0 note=60 velocity=127 time=0.01875\n",
      "note_on channel=0 note=61 velocity=127 time=0.019791666666666666\n",
      "note_off channel=0 note=61 velocity=127 time=0.019791666666666666\n",
      "note_on channel=0 note=62 velocity=127 time=0.034375\n",
      "note_off channel=0 note=62 velocity=127 time=0.019791666666666666\n",
      "note_on channel=0 note=61 velocity=127 time=0.03958333333333333\n",
      "\u001b[91m [DEBUG] > \u001b[0m\n",
      " |>  to_array: msg.time > max_t; t, n\n",
      " |>  3.010416666666669\n",
      " |>  150\n",
      "note_on channel=0 note=61 velocity=127 time=0.011458333333333333\n",
      "note_off channel=0 note=61 velocity=127 time=0.019791666666666666\n",
      "note_on channel=0 note=62 velocity=127 time=0.04583333333333333\n",
      "note_off channel=0 note=62 velocity=127 time=0.019791666666666666\n",
      "note_on channel=0 note=61 velocity=127 time=0.0020833333333333333\n",
      "note_off channel=0 note=61 velocity=127 time=0.019791666666666666\n"
     ]
    },
    {
     "name": "stdout",
     "output_type": "stream",
     "text": [
      "note_on channel=0 note=60 velocity=127 time=0.007291666666666667\n",
      "note_off channel=0 note=60 velocity=127 time=0.019791666666666666\n",
      "note_on channel=0 note=61 velocity=127 time=0.040625\n",
      "note_on channel=0 note=62 velocity=127 time=0.010416666666666666\n",
      "note_off channel=0 note=61 velocity=127 time=0.009375\n",
      "note_off channel=0 note=62 velocity=127 time=0.010416666666666666\n",
      "note_on channel=0 note=61 velocity=127 time=0.057291666666666664\n",
      "note_off channel=0 note=61 velocity=127 time=0.019791666666666666\n",
      "note_on channel=0 note=62 velocity=127 time=0.022916666666666665\n",
      "note_on channel=0 note=60 velocity=127 time=0.014583333333333334\n",
      "note_off channel=0 note=62 velocity=127 time=0.005208333333333333\n",
      "note_off channel=0 note=60 velocity=127 time=0.014583333333333334\n",
      "note_on channel=0 note=61 velocity=127 time=0.010416666666666666\n",
      "note_off channel=0 note=61 velocity=127 time=0.019791666666666666\n",
      "note_on channel=0 note=62 velocity=127 time=0.05625\n",
      "note_on channel=0 note=61 velocity=127 time=0.011458333333333333\n",
      "note_off channel=0 note=62 velocity=127 time=0.008333333333333333\n",
      "note_off channel=0 note=61 velocity=127 time=0.011458333333333333\n",
      "note_on channel=0 note=61 velocity=127 time=0.06770833333333333\n",
      "note_on channel=0 note=60 velocity=127 time=0\n",
      "note_off channel=0 note=61 velocity=127 time=0.019791666666666666\n",
      "note_off channel=0 note=60 velocity=127 time=0\n",
      "note_on channel=0 note=62 velocity=127 time=0\n",
      "note_off channel=0 note=62 velocity=127 time=0.019791666666666666\n",
      "note_on channel=0 note=61 velocity=127 time=0.046875\n",
      "note_off channel=0 note=61 velocity=127 time=0.019791666666666666\n",
      "note_on channel=0 note=62 velocity=127 time=0.03333333333333333\n",
      "note_off channel=0 note=62 velocity=127 time=0.019791666666666666\n",
      "note_on channel=0 note=61 velocity=127 time=0.014583333333333334\n",
      "note_off channel=0 note=61 velocity=127 time=0.019791666666666666\n",
      "note_on channel=0 note=60 velocity=127 time=0.010416666666666666\n",
      "note_off channel=0 note=60 velocity=127 time=0.019791666666666666\n",
      "note_on channel=0 note=62 velocity=127 time=0.035416666666666666\n",
      "note_on channel=0 note=61 velocity=127 time=0.0010416666666666667\n",
      "note_off channel=0 note=62 velocity=127 time=0.01875\n",
      "note_off channel=0 note=61 velocity=127 time=0.0010416666666666667\n",
      "note_on channel=0 note=61 velocity=127 time=0.06770833333333333\n",
      "note_off channel=0 note=61 velocity=127 time=0.019791666666666666\n",
      "note_on channel=0 note=62 velocity=127 time=0.011458333333333333\n",
      "note_off channel=0 note=62 velocity=127 time=0.019791666666666666\n",
      "note_on channel=0 note=60 velocity=127 time=0.009375\n",
      "note_off channel=0 note=60 velocity=127 time=0.019791666666666666\n",
      "note_on channel=0 note=61 velocity=127 time=0.007291666666666667\n",
      "note_off channel=0 note=61 velocity=127 time=0.019791666666666666\n",
      "note_on channel=0 note=62 velocity=127 time=0.04479166666666667\n",
      "note_off channel=0 note=62 velocity=127 time=0.019791666666666666\n",
      "note_on channel=0 note=61 velocity=127 time=0.004166666666666667\n",
      "note_off channel=0 note=61 velocity=127 time=0.019791666666666666\n",
      "note_on channel=0 note=61 velocity=127 time=0.06770833333333333\n",
      "note_on channel=0 note=60 velocity=127 time=0.003125\n",
      "note_on channel=0 note=62 velocity=127 time=0.005208333333333333\n",
      "note_off channel=0 note=61 velocity=127 time=0.010416666666666666\n",
      "note_off channel=0 note=60 velocity=127 time=0.003125\n",
      "note_off channel=0 note=62 velocity=127 time=0.005208333333333333\n",
      "note_on channel=0 note=61 velocity=127 time=0.059375\n",
      "note_off channel=0 note=61 velocity=127 time=0.019791666666666666\n",
      "note_on channel=0 note=62 velocity=127 time=0.021875\n",
      "note_off channel=0 note=62 velocity=127 time=0.019791666666666666\n",
      "note_on channel=0 note=61 velocity=127 time=0.026041666666666668\n",
      "note_off channel=0 note=61 velocity=127 time=0.019791666666666666\n",
      "note_on channel=0 note=60 velocity=127 time=0.013541666666666667\n",
      "note_off channel=0 note=60 velocity=127 time=0.019791666666666666\n",
      "note_on channel=0 note=62 velocity=127 time=0.020833333333333332\n",
      "note_on channel=0 note=61 velocity=127 time=0.013541666666666667\n",
      "note_off channel=0 note=62 velocity=127 time=0.007291666666666667\n",
      "note_off channel=0 note=61 velocity=127 time=0.013541666666666667\n",
      "note_on channel=0 note=61 velocity=127 time=0.06770833333333333\n",
      "note_on channel=0 note=62 velocity=127 time=0.019791666666666666\n",
      "note_off channel=0 note=61 velocity=127 time=0\n",
      "note_off channel=0 note=62 velocity=127 time=0.019791666666666666\n",
      "note_on channel=0 note=60 velocity=127 time=0.025\n",
      "note_off channel=0 note=60 velocity=127 time=0.019791666666666666\n",
      "note_on channel=0 note=61 velocity=127 time=0.004166666666666667\n",
      "note_off channel=0 note=61 velocity=127 time=0.019791666666666666\n",
      "note_on channel=0 note=62 velocity=127 time=0.03229166666666666\n",
      "note_off channel=0 note=62 velocity=127 time=0.019791666666666666\n",
      "note_on channel=0 note=61 velocity=127 time=0.015625\n",
      "note_off channel=0 note=61 velocity=127 time=0.019791666666666666\n",
      "note_on channel=0 note=62 velocity=127 time=0.065625\n",
      "note_on channel=0 note=61 velocity=127 time=0.0020833333333333333\n",
      "note_on channel=0 note=60 velocity=127 time=0.00625\n",
      "note_off channel=0 note=62 velocity=127 time=0.010416666666666666\n",
      "note_off channel=0 note=61 velocity=127 time=0.0020833333333333333\n",
      "note_off channel=0 note=60 velocity=127 time=0.00625\n",
      "note_on channel=0 note=61 velocity=127 time=0.06145833333333333\n",
      "note_off channel=0 note=61 velocity=127 time=0.019791666666666666\n",
      "note_on channel=0 note=62 velocity=127 time=0.010416666666666666\n",
      "note_off channel=0 note=62 velocity=127 time=0.019791666666666666\n",
      "note_on channel=0 note=61 velocity=127 time=0.0375\n",
      "note_off channel=0 note=61 velocity=127 time=0.019791666666666666\n",
      "note_on channel=0 note=60 velocity=127 time=0.017708333333333333\n",
      "note_off channel=0 note=60 velocity=127 time=0.019791666666666666\n",
      "note_on channel=0 note=62 velocity=127 time=0.00625\n",
      "note_off channel=0 note=62 velocity=127 time=0.019791666666666666\n",
      "note_on channel=0 note=61 velocity=127 time=0.005208333333333333\n",
      "note_off channel=0 note=61 velocity=127 time=0.019791666666666666\n",
      "note_on channel=0 note=61 velocity=127 time=0.06770833333333333\n",
      "note_on channel=0 note=62 velocity=127 time=0.008333333333333333\n",
      "note_off channel=0 note=61 velocity=127 time=0.011458333333333333\n",
      "note_off channel=0 note=62 velocity=127 time=0.008333333333333333\n",
      "note_on channel=0 note=60 velocity=127 time=0.03958333333333333\n",
      "note_off channel=0 note=60 velocity=127 time=0.019791666666666666\n",
      "note_on channel=0 note=61 velocity=127 time=0\n",
      "note_off channel=0 note=61 velocity=127 time=0.019791666666666666\n",
      "note_on channel=0 note=62 velocity=127 time=0.020833333333333332\n",
      "note_off channel=0 note=62 velocity=127 time=0.019791666666666666\n",
      "note_on channel=0 note=61 velocity=127 time=0.027083333333333334\n",
      "note_off channel=0 note=61 velocity=127 time=0.019791666666666666\n",
      "note_on channel=0 note=62 velocity=127 time=0.05416666666666667\n",
      "note_on channel=0 note=61 velocity=127 time=0.014583333333333334\n",
      "note_off channel=0 note=62 velocity=127 time=0.00625\n",
      "note_on channel=0 note=60 velocity=127 time=0.004166666666666667\n",
      "note_off channel=0 note=61 velocity=127 time=0.010416666666666666\n",
      "note_off channel=0 note=60 velocity=127 time=0.010416666666666666\n",
      "note_on channel=0 note=61 velocity=127 time=0.058333333333333334\n",
      "note_on channel=0 note=62 velocity=127 time=0.01875\n",
      "note_off channel=0 note=61 velocity=127 time=0.0010416666666666667\n",
      "note_off channel=0 note=62 velocity=127 time=0.01875\n",
      "note_on channel=0 note=61 velocity=127 time=0.04895833333333333\n",
      "note_off channel=0 note=61 velocity=127 time=0.019791666666666666\n",
      "note_on channel=0 note=60 velocity=127 time=0.020833333333333332\n",
      "note_on channel=0 note=62 velocity=127 time=0.011458333333333333\n",
      "note_off channel=0 note=60 velocity=127 time=0.009375\n",
      "note_off channel=0 note=62 velocity=127 time=0.011458333333333333\n",
      "note_on channel=0 note=61 velocity=127 time=0.016666666666666666\n",
      "note_off channel=0 note=61 velocity=127 time=0.019791666666666666\n",
      "note_on channel=0 note=62 velocity=127 time=0.06458333333333333\n",
      "note_on channel=0 note=61 velocity=127 time=0.004166666666666667\n",
      "note_off channel=0 note=62 velocity=127 time=0.016666666666666666\n",
      "note_off channel=0 note=61 velocity=127 time=0.004166666666666667\n",
      "note_on channel=0 note=60 velocity=127 time=0.051041666666666666\n",
      "note_on channel=0 note=61 velocity=127 time=0.017708333333333333\n",
      "note_off channel=0 note=60 velocity=127 time=0.003125\n",
      "note_off channel=0 note=61 velocity=127 time=0.017708333333333333\n",
      "note_on channel=0 note=62 velocity=127 time=0.009375\n",
      "note_off channel=0 note=62 velocity=127 time=0.019791666666666666\n",
      "note_on channel=0 note=61 velocity=127 time=0.03854166666666667\n",
      "note_off channel=0 note=61 velocity=127 time=0.019791666666666666\n",
      "note_on channel=0 note=62 velocity=127 time=0.041666666666666664\n",
      "note_off channel=0 note=62 velocity=127 time=0.019791666666666666\n",
      "note_on channel=0 note=61 velocity=127 time=0.00625\n",
      "\u001b[91m [DEBUG] > \u001b[0m\n",
      " |>  to_array: msg.time > max_t; t, n\n",
      " |>  2.9958333333333345\n",
      " |>  150\n",
      "note_on channel=0 note=60 velocity=127 time=0.0020833333333333333\n",
      "note_on channel=0 note=61 velocity=127 time=0.015625\n",
      "note_off channel=0 note=60 velocity=127 time=0.004166666666666667\n",
      "note_off channel=0 note=61 velocity=127 time=0.015625\n",
      "note_on channel=0 note=62 velocity=127 time=0.005208333333333333\n",
      "note_off channel=0 note=62 velocity=127 time=0.019791666666666666\n",
      "note_on channel=0 note=62 velocity=127 time=0.05625\n",
      "note_on channel=0 note=60 velocity=127 time=0.003125\n",
      "note_on channel=0 note=61 velocity=127 time=0.0010416666666666667\n",
      "note_off channel=0 note=62 velocity=127 time=0.015625\n",
      "note_off channel=0 note=60 velocity=127 time=0.003125\n",
      "note_off channel=0 note=61 velocity=127 time=0.0010416666666666667\n",
      "note_on channel=0 note=62 velocity=127 time=0.052083333333333336\n",
      "note_off channel=0 note=62 velocity=127 time=0.019791666666666666\n",
      "note_on channel=0 note=61 velocity=127 time=0.013541666666666667\n",
      "note_on channel=0 note=60 velocity=127 time=0.013541666666666667\n",
      "note_off channel=0 note=61 velocity=127 time=0.007291666666666667\n",
      "note_off channel=0 note=60 velocity=127 time=0.013541666666666667\n",
      "note_on channel=0 note=62 velocity=127 time=0.009375\n",
      "note_off channel=0 note=62 velocity=127 time=0.019791666666666666\n",
      "note_on channel=0 note=61 velocity=127 time=0.042708333333333334\n",
      "note_on channel=0 note=62 velocity=127 time=0.013541666666666667\n",
      "note_off channel=0 note=61 velocity=127 time=0.00625\n",
      "note_on channel=0 note=60 velocity=127 time=0.007291666666666667\n",
      "note_off channel=0 note=62 velocity=127 time=0.00625\n",
      "note_off channel=0 note=60 velocity=127 time=0.014583333333333334\n",
      "note_on channel=0 note=62 velocity=127 time=0.042708333333333334\n",
      "note_on channel=0 note=61 velocity=127 time=0.015625\n",
      "note_off channel=0 note=62 velocity=127 time=0.004166666666666667\n",
      "note_off channel=0 note=61 velocity=127 time=0.015625\n",
      "note_on channel=0 note=60 velocity=127 time=0.022916666666666665\n",
      "note_on channel=0 note=62 velocity=127 time=0.01875\n",
      "note_off channel=0 note=60 velocity=127 time=0.0010416666666666667\n",
      "note_off channel=0 note=62 velocity=127 time=0.01875\n",
      "note_on channel=0 note=61 velocity=127 time=0.025\n",
      "note_off channel=0 note=61 velocity=127 time=0.019791666666666666\n",
      "note_on channel=0 note=62 velocity=127 time=0.011458333333333333\n",
      "note_off channel=0 note=62 velocity=127 time=0.019791666666666666\n",
      "note_on channel=0 note=60 velocity=127 time=0.005208333333333333\n",
      "note_off channel=0 note=60 velocity=127 time=0.019791666666666666\n",
      "note_on channel=0 note=61 velocity=127 time=0.029166666666666667\n",
      "note_on channel=0 note=62 velocity=127 time=0.0020833333333333333\n",
      "note_off channel=0 note=61 velocity=127 time=0.017708333333333333\n",
      "note_off channel=0 note=62 velocity=127 time=0.0020833333333333333\n",
      "note_on channel=0 note=60 velocity=127 time=0.04895833333333333\n",
      "note_on channel=0 note=62 velocity=127 time=0.007291666666666667\n",
      "note_off channel=0 note=60 velocity=127 time=0.0125\n",
      "note_off channel=0 note=62 velocity=127 time=0.007291666666666667\n",
      "note_on channel=0 note=61 velocity=127 time=0.007291666666666667\n",
      "note_off channel=0 note=61 velocity=127 time=0.019791666666666666\n",
      "note_on channel=0 note=62 velocity=127 time=0.030208333333333334\n",
      "note_off channel=0 note=62 velocity=127 time=0.019791666666666666\n",
      "note_on channel=0 note=60 velocity=127 time=0.016666666666666666\n",
      "note_on channel=0 note=61 velocity=127 time=0.019791666666666666\n",
      "note_off channel=0 note=60 velocity=127 time=0\n",
      "note_off channel=0 note=61 velocity=127 time=0.019791666666666666\n",
      "note_on channel=0 note=62 velocity=127 time=0\n",
      "note_off channel=0 note=62 velocity=127 time=0.019791666666666666\n",
      "note_on channel=0 note=62 velocity=127 time=0.05625\n",
      "note_on channel=0 note=60 velocity=127 time=0.004166666666666667\n",
      "note_on channel=0 note=61 velocity=127 time=0.005208333333333333\n",
      "note_off channel=0 note=62 velocity=127 time=0.011458333333333333\n",
      "note_off channel=0 note=60 velocity=127 time=0.004166666666666667\n",
      "note_off channel=0 note=61 velocity=127 time=0.005208333333333333\n",
      "note_on channel=0 note=62 velocity=127 time=0.04791666666666666\n",
      "note_off channel=0 note=62 velocity=127 time=0.019791666666666666\n",
      "note_on channel=0 note=61 velocity=127 time=0.017708333333333333\n",
      "note_on channel=0 note=60 velocity=127 time=0.009375\n",
      "note_off channel=0 note=61 velocity=127 time=0.010416666666666666\n",
      "note_off channel=0 note=60 velocity=127 time=0.009375\n",
      "note_on channel=0 note=62 velocity=127 time=0.009375\n",
      "note_off channel=0 note=62 velocity=127 time=0.019791666666666666\n",
      "note_on channel=0 note=61 velocity=127 time=0.046875\n",
      "note_on channel=0 note=62 velocity=127 time=0.009375\n",
      "note_off channel=0 note=61 velocity=127 time=0.010416666666666666\n",
      "note_on channel=0 note=60 velocity=127 time=0.004166666666666667\n",
      "note_off channel=0 note=62 velocity=127 time=0.005208333333333333\n",
      "note_off channel=0 note=60 velocity=127 time=0.014583333333333334\n",
      "note_on channel=0 note=62 velocity=127 time=0.041666666666666664\n",
      "note_on channel=0 note=61 velocity=127 time=0.019791666666666666\n",
      "note_off channel=0 note=62 velocity=127 time=0\n",
      "note_off channel=0 note=61 velocity=127 time=0.019791666666666666\n",
      "note_on channel=0 note=60 velocity=127 time=0.01875\n",
      "note_on channel=0 note=62 velocity=127 time=0.017708333333333333\n",
      "note_off channel=0 note=60 velocity=127 time=0.0020833333333333333\n",
      "note_off channel=0 note=62 velocity=127 time=0.017708333333333333\n",
      "note_on channel=0 note=61 velocity=127 time=0.029166666666666667\n",
      "note_off channel=0 note=61 velocity=127 time=0.019791666666666666\n",
      "note_on channel=0 note=62 velocity=127 time=0.007291666666666667\n",
      "note_off channel=0 note=62 velocity=127 time=0.019791666666666666\n",
      "note_on channel=0 note=60 velocity=127 time=0.00625\n",
      "note_off channel=0 note=60 velocity=127 time=0.019791666666666666\n",
      "note_on channel=0 note=62 velocity=127 time=0.030208333333333334\n",
      "note_on channel=0 note=61 velocity=127 time=0.0020833333333333333\n",
      "note_off channel=0 note=62 velocity=127 time=0.017708333333333333\n",
      "note_off channel=0 note=61 velocity=127 time=0.0020833333333333333\n",
      "note_on channel=0 note=60 velocity=127 time=0.04791666666666666\n",
      "note_on channel=0 note=62 velocity=127 time=0.00625\n",
      "note_off channel=0 note=60 velocity=127 time=0.013541666666666667\n",
      "note_off channel=0 note=62 velocity=127 time=0.00625\n",
      "note_on channel=0 note=61 velocity=127 time=0.011458333333333333\n",
      "note_off channel=0 note=61 velocity=127 time=0.019791666666666666\n",
      "note_on channel=0 note=62 velocity=127 time=0.025\n",
      "note_off channel=0 note=62 velocity=127 time=0.019791666666666666\n",
      "note_on channel=0 note=60 velocity=127 time=0.017708333333333333\n",
      "note_off channel=0 note=60 velocity=127 time=0.019791666666666666\n",
      "note_on channel=0 note=61 velocity=127 time=0.003125\n",
      "note_on channel=0 note=62 velocity=127 time=0.016666666666666666\n",
      "note_off channel=0 note=61 velocity=127 time=0.004166666666666667\n",
      "note_off channel=0 note=62 velocity=127 time=0.016666666666666666\n",
      "note_on channel=0 note=62 velocity=127 time=0.05625\n",
      "note_on channel=0 note=60 velocity=127 time=0.004166666666666667\n",
      "note_on channel=0 note=61 velocity=127 time=0.008333333333333333\n",
      "note_off channel=0 note=62 velocity=127 time=0.007291666666666667\n",
      "note_off channel=0 note=60 velocity=127 time=0.004166666666666667\n",
      "note_off channel=0 note=61 velocity=127 time=0.008333333333333333\n",
      "note_on channel=0 note=62 velocity=127 time=0.04375\n",
      "note_off channel=0 note=62 velocity=127 time=0.019791666666666666\n",
      "note_on channel=0 note=61 velocity=127 time=0.021875\n",
      "note_on channel=0 note=60 velocity=127 time=0.00625\n",
      "note_off channel=0 note=61 velocity=127 time=0.013541666666666667\n",
      "note_off channel=0 note=60 velocity=127 time=0.00625\n",
      "note_on channel=0 note=62 velocity=127 time=0.008333333333333333\n",
      "note_off channel=0 note=62 velocity=127 time=0.019791666666666666\n",
      "note_on channel=0 note=61 velocity=127 time=0.052083333333333336\n",
      "note_on channel=0 note=62 velocity=127 time=0.005208333333333333\n",
      "note_off channel=0 note=61 velocity=127 time=0.014583333333333334\n",
      "note_on channel=0 note=60 velocity=127 time=0.0010416666666666667\n",
      "note_off channel=0 note=62 velocity=127 time=0.004166666666666667\n",
      "note_off channel=0 note=60 velocity=127 time=0.015625\n",
      "note_on channel=0 note=62 velocity=127 time=0.040625\n",
      "note_off channel=0 note=62 velocity=127 time=0.019791666666666666\n",
      "note_on channel=0 note=61 velocity=127 time=0.004166666666666667\n",
      "note_off channel=0 note=61 velocity=127 time=0.019791666666666666\n",
      "note_on channel=0 note=60 velocity=127 time=0.015625\n",
      "note_on channel=0 note=62 velocity=127 time=0.016666666666666666\n",
      "note_off channel=0 note=60 velocity=127 time=0.003125\n",
      "note_off channel=0 note=62 velocity=127 time=0.016666666666666666\n",
      "note_on channel=0 note=61 velocity=127 time=0.03333333333333333\n",
      "note_off channel=0 note=61 velocity=127 time=0.019791666666666666\n",
      "note_on channel=0 note=62 velocity=127 time=0.003125\n",
      "note_off channel=0 note=62 velocity=127 time=0.019791666666666666\n",
      "note_on channel=0 note=60 velocity=127 time=0.00625\n",
      "note_off channel=0 note=60 velocity=127 time=0.019791666666666666\n",
      "note_on channel=0 note=62 velocity=127 time=0.030208333333333334\n",
      "note_on channel=0 note=61 velocity=127 time=0.00625\n",
      "note_off channel=0 note=62 velocity=127 time=0.013541666666666667\n",
      "note_off channel=0 note=61 velocity=127 time=0.00625\n",
      "note_on channel=0 note=60 velocity=127 time=0.04479166666666667\n",
      "note_on channel=0 note=62 velocity=127 time=0.00625\n",
      "note_off channel=0 note=60 velocity=127 time=0.013541666666666667\n",
      "note_off channel=0 note=62 velocity=127 time=0.00625\n",
      "note_on channel=0 note=61 velocity=127 time=0.015625\n",
      "note_off channel=0 note=61 velocity=127 time=0.019791666666666666\n",
      "note_on channel=0 note=62 velocity=127 time=0.020833333333333332\n",
      "note_off channel=0 note=62 velocity=127 time=0.019791666666666666\n",
      "note_on channel=0 note=60 velocity=127 time=0.017708333333333333\n",
      "note_off channel=0 note=60 velocity=127 time=0.019791666666666666\n",
      "note_on channel=0 note=61 velocity=127 time=0.007291666666666667\n",
      "note_on channel=0 note=62 velocity=127 time=0.011458333333333333\n",
      "note_off channel=0 note=61 velocity=127 time=0.008333333333333333\n",
      "note_off channel=0 note=62 velocity=127 time=0.011458333333333333\n",
      "note_on channel=0 note=62 velocity=127 time=0.05625\n",
      "note_on channel=0 note=60 velocity=127 time=0.005208333333333333\n",
      "note_on channel=0 note=61 velocity=127 time=0.0125\n",
      "note_off channel=0 note=62 velocity=127 time=0.003125\n",
      "note_off channel=0 note=60 velocity=127 time=0.005208333333333333\n",
      "note_off channel=0 note=61 velocity=127 time=0.0125\n",
      "note_on channel=0 note=62 velocity=127 time=0.03958333333333333\n",
      "note_off channel=0 note=62 velocity=127 time=0.019791666666666666\n",
      "note_on channel=0 note=61 velocity=127 time=0.027083333333333334\n",
      "note_on channel=0 note=60 velocity=127 time=0.0020833333333333333\n",
      "note_off channel=0 note=61 velocity=127 time=0.017708333333333333\n",
      "note_off channel=0 note=60 velocity=127 time=0.0020833333333333333\n",
      "note_on channel=0 note=62 velocity=127 time=0.007291666666666667\n",
      "note_off channel=0 note=62 velocity=127 time=0.019791666666666666\n",
      "note_on channel=0 note=61 velocity=127 time=0.05625\n",
      "note_on channel=0 note=62 velocity=127 time=0.0010416666666666667\n",
      "note_on channel=0 note=60 velocity=127 time=0.016666666666666666\n",
      "note_off channel=0 note=61 velocity=127 time=0.003125\n",
      "note_off channel=0 note=62 velocity=127 time=0.0010416666666666667\n",
      "note_off channel=0 note=60 velocity=127 time=0.016666666666666666\n",
      "note_on channel=0 note=62 velocity=127 time=0.040625\n",
      "note_off channel=0 note=62 velocity=127 time=0.019791666666666666\n",
      "note_on channel=0 note=61 velocity=127 time=0.008333333333333333\n",
      "note_off channel=0 note=61 velocity=127 time=0.019791666666666666\n",
      "\u001b[91m [DEBUG] > \u001b[0m\n",
      " |>  to_array: msg.time > max_t; t, n\n",
      " |>  2.995833333333336\n",
      " |>  150\n",
      "note_on channel=0 note=62 velocity=127 time=0.00625\n",
      "note_off channel=0 note=62 velocity=127 time=0.019791666666666666\n",
      "note_on channel=0 note=60 velocity=127 time=0.003125\n",
      "note_off channel=0 note=60 velocity=127 time=0.019791666666666666\n",
      "note_on channel=0 note=61 velocity=127 time=0.008333333333333333\n",
      "note_off channel=0 note=61 velocity=127 time=0.019791666666666666\n",
      "note_on channel=0 note=62 velocity=127 time=0.008333333333333333\n",
      "note_off channel=0 note=62 velocity=127 time=0.019791666666666666\n",
      "note_on channel=0 note=60 velocity=127 time=0.011458333333333333\n",
      "note_off channel=0 note=60 velocity=127 time=0.019791666666666666\n",
      "note_on channel=0 note=62 velocity=127 time=0.029166666666666667\n",
      "note_on channel=0 note=61 velocity=127 time=0\n",
      "note_off channel=0 note=62 velocity=127 time=0.019791666666666666\n",
      "note_off channel=0 note=61 velocity=127 time=0\n",
      "note_on channel=0 note=60 velocity=127 time=0.019791666666666666\n",
      "note_off channel=0 note=60 velocity=127 time=0.019791666666666666\n",
      "note_on channel=0 note=62 velocity=127 time=0.019791666666666666\n",
      "note_off channel=0 note=62 velocity=127 time=0.019791666666666666\n",
      "note_on channel=0 note=61 velocity=127 time=0.009375\n",
      "note_on channel=0 note=60 velocity=127 time=0.019791666666666666\n",
      "note_off channel=0 note=61 velocity=127 time=0\n",
      "note_off channel=0 note=60 velocity=127 time=0.019791666666666666\n",
      "note_on channel=0 note=62 velocity=127 time=0.011458333333333333\n",
      "note_off channel=0 note=62 velocity=127 time=0.019791666666666666\n",
      "note_on channel=0 note=60 velocity=127 time=0.0375\n",
      "note_on channel=0 note=61 velocity=127 time=0\n",
      "note_off channel=0 note=60 velocity=127 time=0.019791666666666666\n",
      "note_off channel=0 note=61 velocity=127 time=0\n",
      "note_on channel=0 note=62 velocity=127 time=0.0020833333333333333\n",
      "note_off channel=0 note=62 velocity=127 time=0.019791666666666666\n",
      "note_on channel=0 note=60 velocity=127 time=0.046875\n",
      "note_on channel=0 note=62 velocity=127 time=0.013541666666666667\n",
      "note_off channel=0 note=60 velocity=127 time=0.00625\n",
      "note_on channel=0 note=61 velocity=127 time=0.0010416666666666667\n",
      "note_off channel=0 note=62 velocity=127 time=0.013541666666666667\n",
      "note_off channel=0 note=61 velocity=127 time=0.007291666666666667\n",
      "note_on channel=0 note=60 velocity=127 time=0.04895833333333333\n",
      "note_on channel=0 note=62 velocity=127 time=0.005208333333333333\n",
      "note_off channel=0 note=60 velocity=127 time=0.014583333333333334\n",
      "note_off channel=0 note=62 velocity=127 time=0.005208333333333333\n",
      "note_on channel=0 note=61 velocity=127 time=0.015625\n",
      "note_off channel=0 note=61 velocity=127 time=0.019791666666666666\n",
      "note_on channel=0 note=62 velocity=127 time=0.025\n",
      "note_on channel=0 note=60 velocity=127 time=0.003125\n",
      "note_off channel=0 note=62 velocity=127 time=0.016666666666666666\n",
      "note_off channel=0 note=60 velocity=127 time=0.003125\n",
      "note_on channel=0 note=61 velocity=127 time=0.041666666666666664\n",
      "note_on channel=0 note=62 velocity=127 time=0.015625\n",
      "note_off channel=0 note=61 velocity=127 time=0.004166666666666667\n",
      "note_on channel=0 note=60 velocity=127 time=0.008333333333333333\n",
      "note_off channel=0 note=62 velocity=127 time=0.007291666666666667\n",
      "note_off channel=0 note=60 velocity=127 time=0.0125\n",
      "note_on channel=0 note=62 velocity=127 time=0.04791666666666666\n",
      "note_on channel=0 note=61 velocity=127 time=0.013541666666666667\n",
      "note_off channel=0 note=62 velocity=127 time=0.00625\n",
      "note_on channel=0 note=60 velocity=127 time=0.0010416666666666667\n",
      "note_off channel=0 note=61 velocity=127 time=0.0125\n",
      "note_off channel=0 note=60 velocity=127 time=0.007291666666666667\n",
      "note_on channel=0 note=62 velocity=127 time=0.03958333333333333\n",
      "note_off channel=0 note=62 velocity=127 time=0.019791666666666666\n",
      "note_on channel=0 note=60 velocity=127 time=0.009375\n",
      "note_on channel=0 note=61 velocity=127 time=0.0125\n",
      "note_off channel=0 note=60 velocity=127 time=0.007291666666666667\n",
      "note_off channel=0 note=61 velocity=127 time=0.0125\n",
      "note_on channel=0 note=62 velocity=127 time=0.017708333333333333\n",
      "note_off channel=0 note=62 velocity=127 time=0.019791666666666666\n",
      "note_on channel=0 note=60 velocity=127 time=0.01875\n",
      "note_off channel=0 note=60 velocity=127 time=0.019791666666666666\n",
      "note_on channel=0 note=61 velocity=127 time=0.0125\n",
      "note_on channel=0 note=62 velocity=127 time=0.009375\n",
      "note_off channel=0 note=61 velocity=127 time=0.010416666666666666\n",
      "note_off channel=0 note=62 velocity=127 time=0.009375\n",
      "note_on channel=0 note=60 velocity=127 time=0.027083333333333334\n",
      "note_off channel=0 note=60 velocity=127 time=0.019791666666666666\n",
      "note_on channel=0 note=62 velocity=127 time=0.013541666666666667\n",
      "note_on channel=0 note=61 velocity=127 time=0.019791666666666666\n",
      "note_off channel=0 note=62 velocity=127 time=0\n",
      "note_off channel=0 note=61 velocity=127 time=0.019791666666666666\n",
      "note_on channel=0 note=60 velocity=127 time=0.015625\n",
      "note_off channel=0 note=60 velocity=127 time=0.019791666666666666\n",
      "note_on channel=0 note=62 velocity=127 time=0.004166666666666667\n",
      "note_off channel=0 note=62 velocity=127 time=0.019791666666666666\n",
      "note_on channel=0 note=61 velocity=127 time=0.029166666666666667\n",
      "note_on channel=0 note=60 velocity=127 time=0.015625\n",
      "note_off channel=0 note=61 velocity=127 time=0.004166666666666667\n",
      "note_on channel=0 note=62 velocity=127 time=0.011458333333333333\n",
      "note_off channel=0 note=60 velocity=127 time=0.004166666666666667\n",
      "note_off channel=0 note=62 velocity=127 time=0.015625\n",
      "note_on channel=0 note=60 velocity=127 time=0.053125\n",
      "note_on channel=0 note=61 velocity=127 time=0.004166666666666667\n",
      "note_on channel=0 note=62 velocity=127 time=0.003125\n",
      "note_off channel=0 note=60 velocity=127 time=0.0125\n",
      "note_off channel=0 note=61 velocity=127 time=0.004166666666666667\n",
      "note_off channel=0 note=62 velocity=127 time=0.003125\n",
      "note_on channel=0 note=62 velocity=127 time=0.06041666666666667\n",
      "note_on channel=0 note=60 velocity=127 time=0.0020833333333333333\n",
      "note_off channel=0 note=62 velocity=127 time=0.01875\n",
      "note_off channel=0 note=60 velocity=127 time=0.0020833333333333333\n",
      "note_on channel=0 note=61 velocity=127 time=0.005208333333333333\n",
      "note_off channel=0 note=61 velocity=127 time=0.019791666666666666\n",
      "note_on channel=0 note=62 velocity=127 time=0.034375\n",
      "note_on channel=0 note=60 velocity=127 time=0.010416666666666666\n",
      "note_off channel=0 note=62 velocity=127 time=0.009375\n",
      "note_off channel=0 note=60 velocity=127 time=0.010416666666666666\n",
      "note_on channel=0 note=61 velocity=127 time=0.025\n",
      "note_off channel=0 note=61 velocity=127 time=0.019791666666666666\n",
      "note_on channel=0 note=62 velocity=127 time=0.005208333333333333\n",
      "note_on channel=0 note=60 velocity=127 time=0.01875\n",
      "note_off channel=0 note=62 velocity=127 time=0.0010416666666666667\n",
      "note_off channel=0 note=60 velocity=127 time=0.01875\n",
      "note_on channel=0 note=62 velocity=127 time=0.041666666666666664\n",
      "note_on channel=0 note=61 velocity=127 time=0.004166666666666667\n",
      "note_off channel=0 note=62 velocity=127 time=0.015625\n",
      "note_off channel=0 note=61 velocity=127 time=0.004166666666666667\n",
      "note_on channel=0 note=60 velocity=127 time=0.004166666666666667\n",
      "note_off channel=0 note=60 velocity=127 time=0.019791666666666666\n",
      "note_on channel=0 note=62 velocity=127 time=0.03229166666666666\n",
      "note_off channel=0 note=62 velocity=127 time=0.019791666666666666\n",
      "note_on channel=0 note=61 velocity=127 time=0.0125\n",
      "note_on channel=0 note=60 velocity=127 time=0.004166666666666667\n",
      "note_off channel=0 note=61 velocity=127 time=0.016666666666666666\n",
      "note_off channel=0 note=60 velocity=127 time=0.004166666666666667\n",
      "note_on channel=0 note=62 velocity=127 time=0.02395833333333333\n",
      "note_off channel=0 note=62 velocity=127 time=0.019791666666666666\n",
      "note_on channel=0 note=60 velocity=127 time=0.025\n",
      "note_on channel=0 note=61 velocity=127 time=0.016666666666666666\n",
      "note_off channel=0 note=60 velocity=127 time=0.003125\n",
      "note_on channel=0 note=62 velocity=127 time=0.015625\n",
      "note_off channel=0 note=61 velocity=127 time=0.0010416666666666667\n",
      "note_off channel=0 note=62 velocity=127 time=0.01875\n",
      "note_on channel=0 note=60 velocity=127 time=0.034375\n",
      "note_off channel=0 note=60 velocity=127 time=0.019791666666666666\n",
      "note_on channel=0 note=62 velocity=127 time=0.00625\n",
      "note_on channel=0 note=61 velocity=127 time=0.010416666666666666\n",
      "note_off channel=0 note=62 velocity=127 time=0.009375\n",
      "note_off channel=0 note=61 velocity=127 time=0.010416666666666666\n",
      "note_on channel=0 note=60 velocity=127 time=0.03229166666666666\n",
      "note_on channel=0 note=62 velocity=127 time=0.017708333333333333\n",
      "note_off channel=0 note=60 velocity=127 time=0.0020833333333333333\n",
      "note_off channel=0 note=62 velocity=127 time=0.017708333333333333\n",
      "note_on channel=0 note=61 velocity=127 time=0.019791666666666666\n",
      "note_off channel=0 note=61 velocity=127 time=0.019791666666666666\n",
      "note_on channel=0 note=60 velocity=127 time=0.0125\n",
      "note_on channel=0 note=62 velocity=127 time=0.009375\n",
      "note_off channel=0 note=60 velocity=127 time=0.011458333333333333\n",
      "note_off channel=0 note=62 velocity=127 time=0.009375\n",
      "note_on channel=0 note=61 velocity=127 time=0.04895833333333333\n",
      "note_on channel=0 note=60 velocity=127 time=0.011458333333333333\n",
      "note_on channel=0 note=62 velocity=127 time=0\n",
      "note_off channel=0 note=61 velocity=127 time=0.008333333333333333\n",
      "note_off channel=0 note=60 velocity=127 time=0.011458333333333333\n",
      "note_off channel=0 note=62 velocity=127 time=0\n",
      "note_on channel=0 note=62 velocity=127 time=0.06041666666666667\n",
      "note_on channel=0 note=60 velocity=127 time=0.008333333333333333\n",
      "note_on channel=0 note=61 velocity=127 time=0.008333333333333333\n",
      "note_off channel=0 note=62 velocity=127 time=0.003125\n",
      "note_off channel=0 note=60 velocity=127 time=0.008333333333333333\n",
      "note_off channel=0 note=61 velocity=127 time=0.008333333333333333\n",
      "note_on channel=0 note=62 velocity=127 time=0.04375\n",
      "note_on channel=0 note=60 velocity=127 time=0.016666666666666666\n",
      "note_off channel=0 note=62 velocity=127 time=0.003125\n",
      "note_off channel=0 note=60 velocity=127 time=0.016666666666666666\n",
      "note_on channel=0 note=61 velocity=127 time=0.008333333333333333\n",
      "note_off channel=0 note=61 velocity=127 time=0.019791666666666666\n",
      "note_on channel=0 note=62 velocity=127 time=0.014583333333333334\n",
      "note_off channel=0 note=62 velocity=127 time=0.019791666666666666\n",
      "note_on channel=0 note=60 velocity=127 time=0.00625\n",
      "note_off channel=0 note=60 velocity=127 time=0.019791666666666666\n",
      "note_on channel=0 note=61 velocity=127 time=0.029166666666666667\n",
      "note_on channel=0 note=62 velocity=127 time=0.005208333333333333\n",
      "note_off channel=0 note=61 velocity=127 time=0.014583333333333334\n",
      "note_off channel=0 note=62 velocity=127 time=0.005208333333333333\n",
      "note_on channel=0 note=60 velocity=127 time=0.014583333333333334\n",
      "note_off channel=0 note=60 velocity=127 time=0.019791666666666666\n",
      "note_on channel=0 note=62 velocity=127 time=0.026041666666666668\n",
      "note_off channel=0 note=62 velocity=127 time=0.019791666666666666\n",
      "note_on channel=0 note=61 velocity=127 time=0.003125\n",
      "note_on channel=0 note=60 velocity=127 time=0.019791666666666666\n",
      "note_off channel=0 note=61 velocity=127 time=0\n",
      "note_off channel=0 note=60 velocity=127 time=0.019791666666666666\n",
      "note_on channel=0 note=62 velocity=127 time=0.017708333333333333\n",
      "note_off channel=0 note=62 velocity=127 time=0.019791666666666666\n",
      "note_on channel=0 note=60 velocity=127 time=0.03229166666666666\n",
      "note_on channel=0 note=61 velocity=127 time=0\n",
      "note_off channel=0 note=60 velocity=127 time=0.019791666666666666\n",
      "note_off channel=0 note=61 velocity=127 time=0\n",
      "note_on channel=0 note=62 velocity=127 time=0.008333333333333333\n",
      "note_off channel=0 note=62 velocity=127 time=0.019791666666666666\n",
      "note_on channel=0 note=60 velocity=127 time=0.040625\n",
      "note_on channel=0 note=62 velocity=127 time=0.019791666666666666\n",
      "note_off channel=0 note=60 velocity=127 time=0\n",
      "note_on channel=0 note=61 velocity=127 time=0.0010416666666666667\n",
      "note_off channel=0 note=62 velocity=127 time=0.01875\n",
      "note_off channel=0 note=61 velocity=127 time=0.0010416666666666667\n",
      "note_on channel=0 note=60 velocity=127 time=0.04895833333333333\n",
      "note_on channel=0 note=62 velocity=127 time=0.011458333333333333\n",
      "note_off channel=0 note=60 velocity=127 time=0.009375\n",
      "note_off channel=0 note=62 velocity=127 time=0.011458333333333333\n",
      "\u001b[91m [DEBUG] > \u001b[0m\n",
      " |>  to_array: msg.time > max_t; t, n\n",
      " |>  2.9968749999999993\n",
      " |>  150\n",
      "note_on channel=0 note=61 velocity=127 time=0.05625\n",
      "note_on channel=0 note=60 velocity=127 time=0.016666666666666666\n",
      "note_off channel=0 note=61 velocity=127 time=0.003125\n",
      "note_off channel=0 note=60 velocity=127 time=0.016666666666666666\n",
      "note_on channel=0 note=62 velocity=127 time=0.052083333333333336\n",
      "note_off channel=0 note=62 velocity=127 time=0.019791666666666666\n",
      "note_on channel=0 note=60 velocity=127 time=0.005208333333333333\n",
      "note_on channel=0 note=61 velocity=127 time=0.01875\n",
      "note_off channel=0 note=60 velocity=127 time=0.0010416666666666667\n",
      "note_off channel=0 note=61 velocity=127 time=0.01875\n",
      "note_on channel=0 note=60 velocity=127 time=0.059375\n",
      "note_off channel=0 note=60 velocity=127 time=0.019791666666666666\n",
      "note_on channel=0 note=61 velocity=127 time=0.034375\n",
      "note_off channel=0 note=61 velocity=127 time=0.019791666666666666\n",
      "note_on channel=0 note=60 velocity=127 time=0.02395833333333333\n",
      "note_on channel=0 note=62 velocity=127 time=0.017708333333333333\n",
      "note_off channel=0 note=60 velocity=127 time=0.0020833333333333333\n",
      "note_off channel=0 note=62 velocity=127 time=0.017708333333333333\n",
      "note_on channel=0 note=61 velocity=127 time=0.051041666666666666\n",
      "note_on channel=0 note=60 velocity=127 time=0.008333333333333333\n",
      "note_off channel=0 note=61 velocity=127 time=0.011458333333333333\n",
      "note_off channel=0 note=60 velocity=127 time=0.008333333333333333\n",
      "note_on channel=0 note=60 velocity=127 time=0.078125\n",
      "note_off channel=0 note=60 velocity=127 time=0.019791666666666666\n",
      "note_on channel=0 note=61 velocity=127 time=0.00625\n",
      "note_off channel=0 note=61 velocity=127 time=0.019791666666666666\n",
      "note_on channel=0 note=62 velocity=127 time=0.014583333333333334\n",
      "note_off channel=0 note=62 velocity=127 time=0.019791666666666666\n",
      "note_on channel=0 note=60 velocity=127 time=0.016666666666666666\n",
      "note_off channel=0 note=60 velocity=127 time=0.019791666666666666\n",
      "note_on channel=0 note=61 velocity=127 time=0.041666666666666664\n",
      "note_off channel=0 note=61 velocity=127 time=0.019791666666666666\n",
      "note_on channel=0 note=60 velocity=127 time=0.015625\n",
      "note_off channel=0 note=60 velocity=127 time=0.019791666666666666\n",
      "note_on channel=0 note=61 velocity=127 time=0.07708333333333334\n",
      "note_on channel=0 note=60 velocity=127 time=0.0010416666666666667\n",
      "note_on channel=0 note=62 velocity=127 time=0.007291666666666667\n",
      "note_off channel=0 note=61 velocity=127 time=0.0125\n",
      "note_off channel=0 note=60 velocity=127 time=0.0010416666666666667\n",
      "note_off channel=0 note=62 velocity=127 time=0.007291666666666667\n",
      "note_on channel=0 note=60 velocity=127 time=0.07083333333333333\n",
      "note_off channel=0 note=60 velocity=127 time=0.019791666666666666\n",
      "note_on channel=0 note=61 velocity=127 time=0.014583333333333334\n",
      "note_off channel=0 note=61 velocity=127 time=0.019791666666666666\n",
      "note_on channel=0 note=60 velocity=127 time=0.042708333333333334\n",
      "note_off channel=0 note=60 velocity=127 time=0.019791666666666666\n",
      "note_on channel=0 note=62 velocity=127 time=0.030208333333333334\n",
      "note_on channel=0 note=61 velocity=127 time=0.019791666666666666\n",
      "note_off channel=0 note=62 velocity=127 time=0\n",
      "note_off channel=0 note=61 velocity=127 time=0.019791666666666666\n",
      "note_on channel=0 note=60 velocity=127 time=0.008333333333333333\n",
      "note_off channel=0 note=60 velocity=127 time=0.019791666666666666\n",
      "note_on channel=0 note=60 velocity=127 time=0.078125\n",
      "note_on channel=0 note=61 velocity=127 time=0.007291666666666667\n",
      "note_off channel=0 note=60 velocity=127 time=0.0125\n",
      "note_off channel=0 note=61 velocity=127 time=0.007291666666666667\n",
      "note_on channel=0 note=62 velocity=127 time=0.06666666666666667\n",
      "note_on channel=0 note=60 velocity=127 time=0.004166666666666667\n",
      "note_off channel=0 note=62 velocity=127 time=0.015625\n",
      "note_off channel=0 note=60 velocity=127 time=0.004166666666666667\n",
      "note_on channel=0 note=61 velocity=127 time=0.022916666666666665\n",
      "note_off channel=0 note=61 velocity=127 time=0.019791666666666666\n",
      "note_on channel=0 note=60 velocity=127 time=0.035416666666666666\n",
      "note_off channel=0 note=60 velocity=127 time=0.019791666666666666\n",
      "note_on channel=0 note=61 velocity=127 time=0.058333333333333334\n",
      "note_on channel=0 note=60 velocity=127 time=0.019791666666666666\n",
      "note_off channel=0 note=61 velocity=127 time=0\n",
      "note_off channel=0 note=60 velocity=127 time=0.019791666666666666\n",
      "note_on channel=0 note=62 velocity=127 time=0.019791666666666666\n",
      "note_off channel=0 note=62 velocity=127 time=0.019791666666666666\n",
      "note_on channel=0 note=60 velocity=127 time=0.03854166666666667\n",
      "note_on channel=0 note=61 velocity=127 time=0.015625\n",
      "note_off channel=0 note=60 velocity=127 time=0.004166666666666667\n",
      "note_off channel=0 note=61 velocity=127 time=0.015625\n",
      "note_on channel=0 note=60 velocity=127 time=0.0625\n",
      "note_off channel=0 note=60 velocity=127 time=0.019791666666666666\n",
      "note_on channel=0 note=61 velocity=127 time=0.03125\n",
      "note_off channel=0 note=61 velocity=127 time=0.019791666666666666\n",
      "note_on channel=0 note=62 velocity=127 time=0.0125\n",
      "note_on channel=0 note=60 velocity=127 time=0.014583333333333334\n",
      "note_off channel=0 note=62 velocity=127 time=0.005208333333333333\n",
      "note_off channel=0 note=60 velocity=127 time=0.014583333333333334\n",
      "note_on channel=0 note=61 velocity=127 time=0.06666666666666667\n",
      "note_on channel=0 note=60 velocity=127 time=0.011458333333333333\n",
      "note_off channel=0 note=61 velocity=127 time=0.008333333333333333\n",
      "note_off channel=0 note=60 velocity=127 time=0.011458333333333333\n",
      "note_on channel=0 note=60 velocity=127 time=0.078125\n",
      "note_off channel=0 note=60 velocity=127 time=0.019791666666666666\n",
      "note_on channel=0 note=61 velocity=127 time=0.004166666666666667\n"
     ]
    },
    {
     "name": "stdout",
     "output_type": "stream",
     "text": [
      "note_on channel=0 note=62 velocity=127 time=0.005208333333333333\n",
      "note_off channel=0 note=61 velocity=127 time=0.014583333333333334\n",
      "note_off channel=0 note=62 velocity=127 time=0.005208333333333333\n",
      "note_on channel=0 note=60 velocity=127 time=0.04895833333333333\n",
      "note_off channel=0 note=60 velocity=127 time=0.019791666666666666\n",
      "note_on channel=0 note=61 velocity=127 time=0.03958333333333333\n",
      "note_off channel=0 note=61 velocity=127 time=0.019791666666666666\n",
      "note_on channel=0 note=60 velocity=127 time=0.01875\n",
      "note_off channel=0 note=60 velocity=127 time=0.019791666666666666\n",
      "note_on channel=0 note=62 velocity=127 time=0.052083333333333336\n",
      "note_off channel=0 note=62 velocity=127 time=0.019791666666666666\n",
      "note_on channel=0 note=61 velocity=127 time=0.0020833333333333333\n",
      "note_on channel=0 note=60 velocity=127 time=0.003125\n",
      "note_off channel=0 note=61 velocity=127 time=0.016666666666666666\n",
      "note_off channel=0 note=60 velocity=127 time=0.003125\n",
      "note_on channel=0 note=60 velocity=127 time=0.078125\n",
      "note_off channel=0 note=60 velocity=127 time=0.019791666666666666\n",
      "note_on channel=0 note=61 velocity=127 time=0.011458333333333333\n",
      "note_off channel=0 note=61 velocity=127 time=0.019791666666666666\n",
      "note_on channel=0 note=60 velocity=127 time=0.04583333333333333\n",
      "note_on channel=0 note=62 velocity=127 time=0.017708333333333333\n",
      "note_off channel=0 note=60 velocity=127 time=0.0020833333333333333\n",
      "note_off channel=0 note=62 velocity=127 time=0.017708333333333333\n",
      "note_on channel=0 note=61 velocity=127 time=0.029166666666666667\n",
      "note_off channel=0 note=61 velocity=127 time=0.019791666666666666\n",
      "note_on channel=0 note=60 velocity=127 time=0.010416666666666666\n",
      "note_off channel=0 note=60 velocity=127 time=0.019791666666666666\n",
      "note_on channel=0 note=60 velocity=127 time=0.078125\n",
      "note_on channel=0 note=61 velocity=127 time=0.004166666666666667\n",
      "note_off channel=0 note=60 velocity=127 time=0.015625\n",
      "note_off channel=0 note=61 velocity=127 time=0.004166666666666667\n",
      "note_on channel=0 note=62 velocity=127 time=0.036458333333333336\n",
      "note_off channel=0 note=62 velocity=127 time=0.019791666666666666\n",
      "note_on channel=0 note=60 velocity=127 time=0.016666666666666666\n",
      "note_off channel=0 note=60 velocity=127 time=0.019791666666666666\n",
      "note_on channel=0 note=61 velocity=127 time=0.019791666666666666\n",
      "note_off channel=0 note=61 velocity=127 time=0.019791666666666666\n",
      "note_on channel=0 note=60 velocity=127 time=0.0375\n",
      "note_off channel=0 note=60 velocity=127 time=0.019791666666666666\n",
      "note_on channel=0 note=61 velocity=127 time=0.05520833333333333\n",
      "note_off channel=0 note=61 velocity=127 time=0.019791666666666666\n",
      "\u001b[91m [DEBUG] > \u001b[0m\n",
      " |>  to_array: msg.time > max_t; t, n\n",
      " |>  2.9979166666666694\n",
      " |>  150\n",
      "note_on channel=0 note=62 velocity=127 time=0.011458333333333333\n",
      "note_off channel=0 note=62 velocity=127 time=0.019791666666666666\n",
      "note_on channel=0 note=61 velocity=127 time=0.007291666666666667\n",
      "note_off channel=0 note=61 velocity=127 time=0.019791666666666666\n",
      "note_on channel=0 note=62 velocity=127 time=0.02395833333333333\n",
      "note_off channel=0 note=62 velocity=127 time=0.019791666666666666\n",
      "note_on channel=0 note=61 velocity=127 time=0.003125\n",
      "note_on channel=0 note=60 velocity=127 time=0.0010416666666666667\n",
      "note_off channel=0 note=61 velocity=127 time=0.01875\n",
      "note_off channel=0 note=60 velocity=127 time=0.0010416666666666667\n",
      "note_on channel=0 note=62 velocity=127 time=0.026041666666666668\n",
      "note_off channel=0 note=62 velocity=127 time=0.019791666666666666\n",
      "note_on channel=0 note=61 velocity=127 time=0\n",
      "note_off channel=0 note=61 velocity=127 time=0.019791666666666666\n",
      "note_on channel=0 note=60 velocity=127 time=0.025\n",
      "note_on channel=0 note=62 velocity=127 time=0.00625\n",
      "note_off channel=0 note=60 velocity=127 time=0.013541666666666667\n",
      "note_on channel=0 note=61 velocity=127 time=0.003125\n",
      "note_off channel=0 note=62 velocity=127 time=0.003125\n",
      "note_off channel=0 note=61 velocity=127 time=0.016666666666666666\n",
      "note_on channel=0 note=62 velocity=127 time=0.034375\n",
      "note_on channel=0 note=61 velocity=127 time=0.0125\n",
      "note_off channel=0 note=62 velocity=127 time=0.007291666666666667\n",
      "note_off channel=0 note=61 velocity=127 time=0.0125\n",
      "note_on channel=0 note=60 velocity=127 time=0.0010416666666666667\n",
      "note_off channel=0 note=60 velocity=127 time=0.019791666666666666\n",
      "note_on channel=0 note=62 velocity=127 time=0.017708333333333333\n",
      "note_on channel=0 note=61 velocity=127 time=0.009375\n",
      "note_off channel=0 note=62 velocity=127 time=0.010416666666666666\n",
      "note_off channel=0 note=61 velocity=127 time=0.009375\n",
      "note_on channel=0 note=62 velocity=127 time=0.041666666666666664\n",
      "note_on channel=0 note=60 velocity=127 time=0.0020833333333333333\n",
      "note_on channel=0 note=61 velocity=127 time=0.003125\n",
      "note_off channel=0 note=62 velocity=127 time=0.014583333333333334\n",
      "note_off channel=0 note=60 velocity=127 time=0.0020833333333333333\n",
      "note_off channel=0 note=61 velocity=127 time=0.003125\n",
      "note_on channel=0 note=62 velocity=127 time=0.04479166666666667\n",
      "note_on channel=0 note=61 velocity=127 time=0.0020833333333333333\n",
      "note_off channel=0 note=62 velocity=127 time=0.017708333333333333\n",
      "note_off channel=0 note=61 velocity=127 time=0.0020833333333333333\n",
      "note_on channel=0 note=60 velocity=127 time=0.019791666666666666\n",
      "note_off channel=0 note=60 velocity=127 time=0.019791666666666666\n",
      "note_on channel=0 note=61 velocity=127 time=0.007291666666666667\n",
      "note_on channel=0 note=62 velocity=127 time=0.0010416666666666667\n",
      "note_off channel=0 note=61 velocity=127 time=0.01875\n",
      "note_off channel=0 note=62 velocity=127 time=0.0010416666666666667\n",
      "note_on channel=0 note=61 velocity=127 time=0.04583333333333333\n",
      "note_on channel=0 note=62 velocity=127 time=0.005208333333333333\n",
      "note_on channel=0 note=60 velocity=127 time=0.011458333333333333\n",
      "note_off channel=0 note=61 velocity=127 time=0.004166666666666667\n",
      "note_off channel=0 note=62 velocity=127 time=0.005208333333333333\n",
      "note_off channel=0 note=60 velocity=127 time=0.011458333333333333\n",
      "note_on channel=0 note=61 velocity=127 time=0.03125\n",
      "note_on channel=0 note=62 velocity=127 time=0.008333333333333333\n",
      "note_off channel=0 note=61 velocity=127 time=0.011458333333333333\n",
      "note_off channel=0 note=62 velocity=127 time=0.008333333333333333\n",
      "note_on channel=0 note=60 velocity=127 time=0.03125\n",
      "note_on channel=0 note=61 velocity=127 time=0.008333333333333333\n",
      "note_off channel=0 note=60 velocity=127 time=0.011458333333333333\n",
      "note_on channel=0 note=62 velocity=127 time=0\n",
      "note_off channel=0 note=61 velocity=127 time=0.008333333333333333\n",
      "note_off channel=0 note=62 velocity=127 time=0.011458333333333333\n",
      "note_on channel=0 note=61 velocity=127 time=0.035416666666666666\n",
      "note_on channel=0 note=62 velocity=127 time=0.015625\n",
      "note_off channel=0 note=61 velocity=127 time=0.004166666666666667\n",
      "note_on channel=0 note=60 velocity=127 time=0.015625\n",
      "note_off channel=0 note=62 velocity=127 time=0\n",
      "note_off channel=0 note=60 velocity=127 time=0.019791666666666666\n",
      "note_on channel=0 note=61 velocity=127 time=0.0125\n",
      "note_on channel=0 note=62 velocity=127 time=0.01875\n",
      "note_off channel=0 note=61 velocity=127 time=0.0010416666666666667\n",
      "note_off channel=0 note=62 velocity=127 time=0.01875\n",
      "note_on channel=0 note=61 velocity=127 time=0.028125\n",
      "note_on channel=0 note=60 velocity=127 time=0.011458333333333333\n",
      "note_off channel=0 note=61 velocity=127 time=0.008333333333333333\n",
      "note_on channel=0 note=62 velocity=127 time=0.003125\n",
      "note_off channel=0 note=60 velocity=127 time=0.008333333333333333\n",
      "note_off channel=0 note=62 velocity=127 time=0.011458333333333333\n",
      "note_on channel=0 note=61 velocity=127 time=0.025\n",
      "note_off channel=0 note=61 velocity=127 time=0.019791666666666666\n",
      "note_on channel=0 note=62 velocity=127 time=0.00625\n",
      "note_off channel=0 note=62 velocity=127 time=0.019791666666666666\n",
      "note_on channel=0 note=60 velocity=127 time=0.008333333333333333\n",
      "note_on channel=0 note=61 velocity=127 time=0.0125\n",
      "note_off channel=0 note=60 velocity=127 time=0.007291666666666667\n",
      "note_off channel=0 note=61 velocity=127 time=0.0125\n",
      "note_on channel=0 note=62 velocity=127 time=0.009375\n",
      "note_off channel=0 note=62 velocity=127 time=0.019791666666666666\n",
      "note_on channel=0 note=61 velocity=127 time=0.017708333333333333\n",
      "note_off channel=0 note=61 velocity=127 time=0.019791666666666666\n",
      "note_on channel=0 note=60 velocity=127 time=0.010416666666666666\n",
      "note_on channel=0 note=62 velocity=127 time=0.003125\n",
      "note_off channel=0 note=60 velocity=127 time=0.017708333333333333\n",
      "note_off channel=0 note=62 velocity=127 time=0.003125\n",
      "note_on channel=0 note=61 velocity=127 time=0.014583333333333334\n",
      "note_off channel=0 note=61 velocity=127 time=0.019791666666666666\n",
      "note_on channel=0 note=62 velocity=127 time=0.016666666666666666\n",
      "note_off channel=0 note=62 velocity=127 time=0.019791666666666666\n",
      "note_on channel=0 note=61 velocity=127 time=0.010416666666666666\n",
      "note_on channel=0 note=60 velocity=127 time=0.00625\n",
      "note_off channel=0 note=61 velocity=127 time=0.013541666666666667\n",
      "note_off channel=0 note=60 velocity=127 time=0.00625\n",
      "note_on channel=0 note=62 velocity=127 time=0.013541666666666667\n",
      "note_off channel=0 note=62 velocity=127 time=0.019791666666666666\n",
      "note_on channel=0 note=61 velocity=127 time=0.007291666666666667\n",
      "note_off channel=0 note=61 velocity=127 time=0.019791666666666666\n",
      "note_on channel=0 note=62 velocity=127 time=0.02395833333333333\n",
      "note_on channel=0 note=60 velocity=127 time=0.00625\n",
      "note_off channel=0 note=62 velocity=127 time=0.014583333333333334\n",
      "note_on channel=0 note=61 velocity=127 time=0.003125\n",
      "note_off channel=0 note=60 velocity=127 time=0.0020833333333333333\n",
      "note_off channel=0 note=61 velocity=127 time=0.017708333333333333\n",
      "note_on channel=0 note=62 velocity=127 time=0.027083333333333334\n",
      "note_on channel=0 note=61 velocity=127 time=0.019791666666666666\n",
      "note_off channel=0 note=62 velocity=127 time=0\n",
      "note_off channel=0 note=61 velocity=127 time=0.019791666666666666\n",
      "note_on channel=0 note=60 velocity=127 time=0.00625\n",
      "note_off channel=0 note=60 velocity=127 time=0.019791666666666666\n",
      "note_on channel=0 note=62 velocity=127 time=0.005208333333333333\n",
      "note_on channel=0 note=61 velocity=127 time=0.016666666666666666\n",
      "note_off channel=0 note=62 velocity=127 time=0.003125\n",
      "note_off channel=0 note=61 velocity=127 time=0.016666666666666666\n",
      "note_on channel=0 note=62 velocity=127 time=0.034375\n",
      "note_on channel=0 note=61 velocity=127 time=0.0125\n",
      "note_on channel=0 note=60 velocity=127 time=0.0020833333333333333\n",
      "note_off channel=0 note=62 velocity=127 time=0.005208333333333333\n",
      "note_off channel=0 note=61 velocity=127 time=0.0125\n",
      "note_off channel=0 note=60 velocity=127 time=0.0020833333333333333\n",
      "note_on channel=0 note=62 velocity=127 time=0.036458333333333336\n",
      "note_on channel=0 note=61 velocity=127 time=0.009375\n",
      "note_off channel=0 note=62 velocity=127 time=0.010416666666666666\n",
      "note_off channel=0 note=61 velocity=127 time=0.009375\n",
      "note_on channel=0 note=60 velocity=127 time=0.025\n",
      "note_on channel=0 note=62 velocity=127 time=0.016666666666666666\n",
      "note_off channel=0 note=60 velocity=127 time=0.003125\n",
      "note_on channel=0 note=61 velocity=127 time=0.0020833333333333333\n",
      "note_off channel=0 note=62 velocity=127 time=0.014583333333333334\n",
      "note_off channel=0 note=61 velocity=127 time=0.00625\n",
      "note_on channel=0 note=62 velocity=127 time=0.04479166666666667\n",
      "note_on channel=0 note=61 velocity=127 time=0.0020833333333333333\n",
      "note_off channel=0 note=62 velocity=127 time=0.017708333333333333\n",
      "note_off channel=0 note=61 velocity=127 time=0.0020833333333333333\n",
      "note_on channel=0 note=60 velocity=127 time=0.0010416666666666667\n",
      "note_off channel=0 note=60 velocity=127 time=0.019791666666666666\n",
      "note_on channel=0 note=61 velocity=127 time=0.026041666666666668\n",
      "note_on channel=0 note=62 velocity=127 time=0.0010416666666666667\n",
      "note_off channel=0 note=61 velocity=127 time=0.01875\n",
      "note_off channel=0 note=62 velocity=127 time=0.0010416666666666667\n",
      "note_on channel=0 note=60 velocity=127 time=0.042708333333333334\n",
      "note_on channel=0 note=61 velocity=127 time=0.003125\n",
      "note_on channel=0 note=62 velocity=127 time=0.005208333333333333\n",
      "note_off channel=0 note=60 velocity=127 time=0.0125\n",
      "note_off channel=0 note=61 velocity=127 time=0.003125\n",
      "note_off channel=0 note=62 velocity=127 time=0.005208333333333333\n",
      "note_on channel=0 note=61 velocity=127 time=0.042708333333333334\n",
      "note_on channel=0 note=62 velocity=127 time=0.008333333333333333\n",
      "note_off channel=0 note=61 velocity=127 time=0.011458333333333333\n",
      "note_off channel=0 note=62 velocity=127 time=0.008333333333333333\n",
      "note_on channel=0 note=60 velocity=127 time=0.011458333333333333\n",
      "note_off channel=0 note=60 velocity=127 time=0.019791666666666666\n",
      "note_on channel=0 note=61 velocity=127 time=0.007291666666666667\n",
      "note_on channel=0 note=62 velocity=127 time=0.0125\n",
      "note_off channel=0 note=61 velocity=127 time=0.008333333333333333\n",
      "note_off channel=0 note=62 velocity=127 time=0.0125\n",
      "note_on channel=0 note=61 velocity=127 time=0.035416666666666666\n",
      "note_on channel=0 note=62 velocity=127 time=0.015625\n",
      "note_on channel=0 note=60 velocity=127 time=0.0010416666666666667\n",
      "note_off channel=0 note=61 velocity=127 time=0.004166666666666667\n",
      "note_off channel=0 note=62 velocity=127 time=0.015625\n",
      "note_off channel=0 note=60 velocity=127 time=0.0010416666666666667\n",
      "note_on channel=0 note=61 velocity=127 time=0.03125\n",
      "note_on channel=0 note=62 velocity=127 time=0.01875\n",
      "note_off channel=0 note=61 velocity=127 time=0.0010416666666666667\n",
      "note_off channel=0 note=62 velocity=127 time=0.01875\n",
      "note_on channel=0 note=60 velocity=127 time=0.020833333333333332\n",
      "note_on channel=0 note=61 velocity=127 time=0.008333333333333333\n",
      "note_off channel=0 note=60 velocity=127 time=0.0125\n",
      "note_off channel=0 note=61 velocity=127 time=0.008333333333333333\n",
      "note_on channel=0 note=62 velocity=127 time=0.003125\n",
      "note_off channel=0 note=62 velocity=127 time=0.019791666666666666\n",
      "note_on channel=0 note=61 velocity=127 time=0.025\n",
      "note_off channel=0 note=61 velocity=127 time=0.019791666666666666\n",
      "note_on channel=0 note=62 velocity=127 time=0.00625\n",
      "note_on channel=0 note=60 velocity=127 time=0.009375\n",
      "note_off channel=0 note=62 velocity=127 time=0.010416666666666666\n",
      "note_off channel=0 note=60 velocity=127 time=0.009375\n",
      "note_on channel=0 note=61 velocity=127 time=0.011458333333333333\n",
      "note_off channel=0 note=61 velocity=127 time=0.019791666666666666\n",
      "note_on channel=0 note=62 velocity=127 time=0.009375\n",
      "note_off channel=0 note=62 velocity=127 time=0.019791666666666666\n",
      "note_on channel=0 note=61 velocity=127 time=0.017708333333333333\n",
      "note_on channel=0 note=60 velocity=127 time=0.011458333333333333\n",
      "note_off channel=0 note=61 velocity=127 time=0.008333333333333333\n",
      "note_off channel=0 note=60 velocity=127 time=0.011458333333333333\n",
      "note_on channel=0 note=62 velocity=127 time=0.0020833333333333333\n",
      "note_off channel=0 note=62 velocity=127 time=0.019791666666666666\n",
      "note_on channel=0 note=61 velocity=127 time=0.014583333333333334\n",
      "note_off channel=0 note=61 velocity=127 time=0.019791666666666666\n",
      "note_on channel=0 note=62 velocity=127 time=0.016666666666666666\n",
      "note_on channel=0 note=60 velocity=127 time=0.017708333333333333\n",
      "note_off channel=0 note=62 velocity=127 time=0.0020833333333333333\n",
      "note_on channel=0 note=61 velocity=127 time=0.010416666666666666\n",
      "note_off channel=0 note=60 velocity=127 time=0.007291666666666667\n",
      "note_off channel=0 note=61 velocity=127 time=0.0125\n",
      "note_on channel=0 note=62 velocity=127 time=0.020833333333333332\n",
      "note_off channel=0 note=62 velocity=127 time=0.019791666666666666\n",
      "note_on channel=0 note=61 velocity=127 time=0.007291666666666667\n",
      "note_off channel=0 note=61 velocity=127 time=0.019791666666666666\n",
      "note_on channel=0 note=60 velocity=127 time=0.010416666666666666\n",
      "note_on channel=0 note=62 velocity=127 time=0.013541666666666667\n",
      "note_off channel=0 note=60 velocity=127 time=0.007291666666666667\n",
      "note_off channel=0 note=62 velocity=127 time=0.013541666666666667\n",
      "note_on channel=0 note=61 velocity=127 time=0.003125\n",
      "note_off channel=0 note=61 velocity=127 time=0.019791666666666666\n",
      "note_on channel=0 note=62 velocity=127 time=0.027083333333333334\n",
      "note_on channel=0 note=61 velocity=127 time=0.019791666666666666\n",
      "note_off channel=0 note=62 velocity=127 time=0\n",
      "note_on channel=0 note=60 velocity=127 time=0.00625\n",
      "note_off channel=0 note=61 velocity=127 time=0.013541666666666667\n",
      "note_off channel=0 note=60 velocity=127 time=0.00625\n",
      "note_on channel=0 note=62 velocity=127 time=0.02395833333333333\n",
      "note_on channel=0 note=61 velocity=127 time=0.016666666666666666\n",
      "note_off channel=0 note=62 velocity=127 time=0.003125\n",
      "note_off channel=0 note=61 velocity=127 time=0.016666666666666666\n",
      "note_on channel=0 note=60 velocity=127 time=0.030208333333333334\n",
      "note_on channel=0 note=62 velocity=127 time=0.004166666666666667\n",
      "note_on channel=0 note=61 velocity=127 time=0.0125\n",
      "\u001b[91m [DEBUG] > \u001b[0m\n",
      " |>  to_array: msg.time > max_t; t, n\n",
      " |>  2.997916666666668\n",
      " |>  150\n",
      "note_on channel=0 note=62 velocity=127 time=0.028125\n",
      "note_off channel=0 note=62 velocity=127 time=0.019791666666666666\n",
      "note_on channel=0 note=61 velocity=127 time=0.0020833333333333333\n",
      "note_off channel=0 note=61 velocity=127 time=0.019791666666666666\n",
      "note_on channel=0 note=60 velocity=127 time=0.011458333333333333\n",
      "note_off channel=0 note=60 velocity=127 time=0.019791666666666666\n",
      "note_on channel=0 note=62 velocity=127 time=0.0375\n",
      "note_on channel=0 note=61 velocity=127 time=0.013541666666666667\n",
      "note_off channel=0 note=62 velocity=127 time=0.00625\n",
      "note_on channel=0 note=60 velocity=127 time=0.00625\n",
      "note_off channel=0 note=61 velocity=127 time=0.007291666666666667\n",
      "note_off channel=0 note=60 velocity=127 time=0.0125\n",
      "note_on channel=0 note=60 velocity=127 time=0.0625\n",
      "note_on channel=0 note=62 velocity=127 time=0.0020833333333333333\n",
      "note_on channel=0 note=61 velocity=127 time=0.005208333333333333\n",
      "note_off channel=0 note=60 velocity=127 time=0.0125\n",
      "note_off channel=0 note=62 velocity=127 time=0.0020833333333333333\n",
      "note_off channel=0 note=61 velocity=127 time=0.005208333333333333\n",
      "note_on channel=0 note=60 velocity=127 time=0.05625\n",
      "note_off channel=0 note=60 velocity=127 time=0.019791666666666666\n",
      "note_on channel=0 note=61 velocity=127 time=0.00625\n",
      "note_on channel=0 note=62 velocity=127 time=0.003125\n",
      "note_off channel=0 note=61 velocity=127 time=0.016666666666666666\n",
      "note_off channel=0 note=62 velocity=127 time=0.003125\n",
      "note_on channel=0 note=60 velocity=127 time=0.03333333333333333\n",
      "note_off channel=0 note=60 velocity=127 time=0.019791666666666666\n",
      "note_on channel=0 note=61 velocity=127 time=0.026041666666666668\n",
      "note_on channel=0 note=62 velocity=127 time=0.011458333333333333\n",
      "note_off channel=0 note=61 velocity=127 time=0.008333333333333333\n",
      "note_off channel=0 note=62 velocity=127 time=0.011458333333333333\n",
      "note_on channel=0 note=60 velocity=127 time=0.005208333333333333\n",
      "note_off channel=0 note=60 velocity=127 time=0.019791666666666666\n",
      "note_on channel=0 note=61 velocity=127 time=0.04583333333333333\n",
      "note_on channel=0 note=60 velocity=127 time=0.017708333333333333\n",
      "note_off channel=0 note=61 velocity=127 time=0.0020833333333333333\n",
      "note_on channel=0 note=62 velocity=127 time=0\n",
      "note_off channel=0 note=60 velocity=127 time=0.017708333333333333\n",
      "note_off channel=0 note=62 velocity=127 time=0.003125\n",
      "note_on channel=0 note=60 velocity=127 time=0.06041666666666667\n",
      "note_on channel=0 note=61 velocity=127 time=0.0020833333333333333\n",
      "note_off channel=0 note=60 velocity=127 time=0.017708333333333333\n",
      "note_off channel=0 note=61 velocity=127 time=0.0020833333333333333\n",
      "note_on channel=0 note=62 velocity=127 time=0.008333333333333333\n",
      "note_off channel=0 note=62 velocity=127 time=0.019791666666666666\n",
      "note_on channel=0 note=60 velocity=127 time=0.03229166666666666\n",
      "note_off channel=0 note=60 velocity=127 time=0.019791666666666666\n",
      "note_on channel=0 note=61 velocity=127 time=0.0010416666666666667\n",
      "note_off channel=0 note=61 velocity=127 time=0.019791666666666666\n",
      "note_on channel=0 note=62 velocity=127 time=0.016666666666666666\n",
      "note_off channel=0 note=62 velocity=127 time=0.019791666666666666\n",
      "note_on channel=0 note=60 velocity=127 time=0.004166666666666667\n",
      "note_off channel=0 note=60 velocity=127 time=0.019791666666666666\n",
      "note_on channel=0 note=61 velocity=127 time=0.020833333333333332\n",
      "note_off channel=0 note=61 velocity=127 time=0.019791666666666666\n",
      "note_on channel=0 note=60 velocity=127 time=0.021875\n",
      "note_on channel=0 note=62 velocity=127 time=0.003125\n",
      "note_off channel=0 note=60 velocity=127 time=0.016666666666666666\n",
      "note_off channel=0 note=62 velocity=127 time=0.003125\n",
      "note_on channel=0 note=61 velocity=127 time=0.036458333333333336\n",
      "note_off channel=0 note=61 velocity=127 time=0.019791666666666666\n",
      "note_on channel=0 note=60 velocity=127 time=0.003125\n",
      "note_off channel=0 note=60 velocity=127 time=0.019791666666666666\n",
      "note_on channel=0 note=62 velocity=127 time=0.011458333333333333\n",
      "note_off channel=0 note=62 velocity=127 time=0.019791666666666666\n",
      "note_on channel=0 note=61 velocity=127 time=0.028125\n",
      "note_on channel=0 note=60 velocity=127 time=0.003125\n",
      "note_off channel=0 note=61 velocity=127 time=0.016666666666666666\n",
      "note_off channel=0 note=60 velocity=127 time=0.003125\n",
      "note_on channel=0 note=62 velocity=127 time=0.03854166666666667\n",
      "note_off channel=0 note=62 velocity=127 time=0.019791666666666666\n",
      "note_on channel=0 note=60 velocity=127 time=0.004166666666666667\n",
      "note_on channel=0 note=61 velocity=127 time=0.016666666666666666\n",
      "note_off channel=0 note=60 velocity=127 time=0.004166666666666667\n",
      "note_off channel=0 note=61 velocity=127 time=0.016666666666666666\n",
      "note_on channel=0 note=60 velocity=127 time=0.046875\n",
      "note_on channel=0 note=62 velocity=127 time=0.004166666666666667\n",
      "note_off channel=0 note=60 velocity=127 time=0.015625\n",
      "note_off channel=0 note=62 velocity=127 time=0.004166666666666667\n",
      "note_on channel=0 note=61 velocity=127 time=0.011458333333333333\n",
      "note_off channel=0 note=61 velocity=127 time=0.019791666666666666\n",
      "note_on channel=0 note=60 velocity=127 time=0.027083333333333334\n",
      "note_off channel=0 note=60 velocity=127 time=0.019791666666666666\n",
      "note_on channel=0 note=62 velocity=127 time=0.011458333333333333\n",
      "note_off channel=0 note=62 velocity=127 time=0.019791666666666666\n",
      "note_on channel=0 note=61 velocity=127 time=0.003125\n",
      "note_off channel=0 note=61 velocity=127 time=0.019791666666666666\n",
      "note_on channel=0 note=60 velocity=127 time=0.007291666666666667\n",
      "note_off channel=0 note=60 velocity=127 time=0.019791666666666666\n",
      "note_on channel=0 note=62 velocity=127 time=0.03958333333333333\n",
      "note_on channel=0 note=61 velocity=127 time=0.014583333333333334\n",
      "note_off channel=0 note=62 velocity=127 time=0.005208333333333333\n",
      "note_on channel=0 note=60 velocity=127 time=0.003125\n",
      "note_off channel=0 note=61 velocity=127 time=0.011458333333333333\n",
      "note_off channel=0 note=60 velocity=127 time=0.008333333333333333\n",
      "note_on channel=0 note=60 velocity=127 time=0.0625\n",
      "note_on channel=0 note=62 velocity=127 time=0.004166666666666667\n",
      "note_on channel=0 note=61 velocity=127 time=0.00625\n",
      "note_off channel=0 note=60 velocity=127 time=0.009375\n",
      "note_off channel=0 note=62 velocity=127 time=0.004166666666666667\n",
      "note_off channel=0 note=61 velocity=127 time=0.00625\n",
      "note_on channel=0 note=60 velocity=127 time=0.052083333333333336\n",
      "note_off channel=0 note=60 velocity=127 time=0.019791666666666666\n",
      "note_on channel=0 note=61 velocity=127 time=0.010416666666666666\n",
      "note_on channel=0 note=62 velocity=127 time=0.0020833333333333333\n",
      "note_off channel=0 note=61 velocity=127 time=0.017708333333333333\n",
      "note_off channel=0 note=62 velocity=127 time=0.0020833333333333333\n",
      "note_on channel=0 note=60 velocity=127 time=0.030208333333333334\n",
      "note_off channel=0 note=60 velocity=127 time=0.019791666666666666\n",
      "note_on channel=0 note=61 velocity=127 time=0.030208333333333334\n",
      "note_on channel=0 note=62 velocity=127 time=0.010416666666666666\n",
      "note_off channel=0 note=61 velocity=127 time=0.009375\n",
      "note_off channel=0 note=62 velocity=127 time=0.010416666666666666\n",
      "note_on channel=0 note=60 velocity=127 time=0.003125\n",
      "note_off channel=0 note=60 velocity=127 time=0.019791666666666666\n",
      "note_on channel=0 note=61 velocity=127 time=0.04895833333333333\n",
      "note_on channel=0 note=60 velocity=127 time=0.013541666666666667\n",
      "note_on channel=0 note=62 velocity=127 time=0.005208333333333333\n",
      "note_off channel=0 note=61 velocity=127 time=0.0010416666666666667\n",
      "note_off channel=0 note=60 velocity=127 time=0.013541666666666667\n",
      "note_off channel=0 note=62 velocity=127 time=0.005208333333333333\n",
      "note_on channel=0 note=60 velocity=127 time=0.057291666666666664\n",
      "note_on channel=0 note=61 velocity=127 time=0.00625\n",
      "note_off channel=0 note=60 velocity=127 time=0.013541666666666667\n",
      "note_off channel=0 note=61 velocity=127 time=0.00625\n",
      "note_on channel=0 note=62 velocity=127 time=0.007291666666666667\n",
      "note_off channel=0 note=62 velocity=127 time=0.019791666666666666\n",
      "note_on channel=0 note=60 velocity=127 time=0.030208333333333334\n",
      "note_off channel=0 note=60 velocity=127 time=0.019791666666666666\n",
      "note_on channel=0 note=61 velocity=127 time=0.005208333333333333\n",
      "note_off channel=0 note=61 velocity=127 time=0.019791666666666666\n",
      "note_on channel=0 note=62 velocity=127 time=0.015625\n",
      "note_off channel=0 note=62 velocity=127 time=0.019791666666666666\n",
      "note_on channel=0 note=60 velocity=127 time=0.0020833333333333333\n",
      "note_off channel=0 note=60 velocity=127 time=0.019791666666666666\n",
      "note_on channel=0 note=61 velocity=127 time=0.025\n",
      "note_off channel=0 note=61 velocity=127 time=0.019791666666666666\n",
      "note_on channel=0 note=60 velocity=127 time=0.017708333333333333\n",
      "note_on channel=0 note=62 velocity=127 time=0.00625\n",
      "note_off channel=0 note=60 velocity=127 time=0.014583333333333334\n",
      "note_off channel=0 note=62 velocity=127 time=0.00625\n",
      "note_on channel=0 note=61 velocity=127 time=0.03854166666666667\n",
      "note_on channel=0 note=60 velocity=127 time=0.01875\n",
      "note_off channel=0 note=61 velocity=127 time=0.0010416666666666667\n",
      "note_off channel=0 note=60 velocity=127 time=0.01875\n",
      "note_on channel=0 note=62 velocity=127 time=0.013541666666666667\n",
      "note_off channel=0 note=62 velocity=127 time=0.019791666666666666\n",
      "note_on channel=0 note=60 velocity=127 time=0.029166666666666667\n",
      "note_on channel=0 note=61 velocity=127 time=0.0010416666666666667\n",
      "note_off channel=0 note=60 velocity=127 time=0.01875\n",
      "note_off channel=0 note=61 velocity=127 time=0.0010416666666666667\n",
      "note_on channel=0 note=62 velocity=127 time=0.040625\n",
      "note_off channel=0 note=62 velocity=127 time=0.019791666666666666\n",
      "note_on channel=0 note=60 velocity=127 time=0.0010416666666666667\n",
      "note_off channel=0 note=60 velocity=127 time=0.019791666666666666\n",
      "note_on channel=0 note=61 velocity=127 time=0\n",
      "note_off channel=0 note=61 velocity=127 time=0.019791666666666666\n",
      "note_on channel=0 note=60 velocity=127 time=0.042708333333333334\n",
      "note_on channel=0 note=62 velocity=127 time=0.00625\n",
      "note_off channel=0 note=60 velocity=127 time=0.013541666666666667\n",
      "note_off channel=0 note=62 velocity=127 time=0.00625\n",
      "note_on channel=0 note=61 velocity=127 time=0.013541666666666667\n",
      "note_off channel=0 note=61 velocity=127 time=0.019791666666666666\n",
      "note_on channel=0 note=60 velocity=127 time=0.022916666666666665\n",
      "note_off channel=0 note=60 velocity=127 time=0.019791666666666666\n",
      "note_on channel=0 note=62 velocity=127 time=0.014583333333333334\n",
      "note_off channel=0 note=62 velocity=127 time=0.019791666666666666\n",
      "note_on channel=0 note=61 velocity=127 time=0.005208333333333333\n",
      "note_off channel=0 note=61 velocity=127 time=0.019791666666666666\n",
      "note_on channel=0 note=60 velocity=127 time=0.003125\n",
      "note_off channel=0 note=60 velocity=127 time=0.019791666666666666\n",
      "note_on channel=0 note=62 velocity=127 time=0.041666666666666664\n",
      "note_on channel=0 note=61 velocity=127 time=0.016666666666666666\n",
      "note_off channel=0 note=62 velocity=127 time=0.003125\n",
      "note_on channel=0 note=60 velocity=127 time=0.0010416666666666667\n",
      "note_off channel=0 note=61 velocity=127 time=0.015625\n",
      "note_off channel=0 note=60 velocity=127 time=0.004166666666666667\n",
      "note_on channel=0 note=60 velocity=127 time=0.0625\n",
      "note_on channel=0 note=62 velocity=127 time=0.007291666666666667\n",
      "note_on channel=0 note=61 velocity=127 time=0.008333333333333333\n",
      "note_off channel=0 note=60 velocity=127 time=0.005208333333333333\n",
      "note_off channel=0 note=62 velocity=127 time=0.007291666666666667\n",
      "note_off channel=0 note=61 velocity=127 time=0.008333333333333333\n",
      "note_on channel=0 note=60 velocity=127 time=0.04791666666666666\n",
      "note_off channel=0 note=60 velocity=127 time=0.019791666666666666\n",
      "\u001b[91m [DEBUG] > \u001b[0m\n",
      " |>  to_array: msg.time > max_t; t, n\n",
      " |>  2.99166666666667\n",
      " |>  150\n",
      "note_on channel=0 note=60 velocity=127 time=0.0375\n",
      "note_off channel=0 note=60 velocity=127 time=0.019791666666666666\n",
      "note_on channel=0 note=61 velocity=127 time=0.0020833333333333333\n",
      "note_off channel=0 note=61 velocity=127 time=0.019791666666666666\n",
      "note_on channel=0 note=62 velocity=127 time=0.042708333333333334\n",
      "note_off channel=0 note=62 velocity=127 time=0.019791666666666666\n",
      "note_on channel=0 note=60 velocity=127 time=0.025\n",
      "note_off channel=0 note=60 velocity=127 time=0.019791666666666666\n",
      "note_on channel=0 note=61 velocity=127 time=0.030208333333333334\n",
      "note_off channel=0 note=61 velocity=127 time=0.019791666666666666\n",
      "note_on channel=0 note=62 velocity=127 time=0.0125\n",
      "note_off channel=0 note=62 velocity=127 time=0.019791666666666666\n",
      "note_on channel=0 note=60 velocity=127 time=0.028125\n",
      "note_off channel=0 note=60 velocity=127 time=0.019791666666666666\n",
      "note_on channel=0 note=61 velocity=127 time=0.058333333333333334\n",
      "note_on channel=0 note=62 velocity=127 time=0.0020833333333333333\n",
      "note_off channel=0 note=61 velocity=127 time=0.017708333333333333\n",
      "note_off channel=0 note=62 velocity=127 time=0.0020833333333333333\n",
      "note_on channel=0 note=60 velocity=127 time=0.030208333333333334\n",
      "note_off channel=0 note=60 velocity=127 time=0.019791666666666666\n",
      "note_on channel=0 note=62 velocity=127 time=0.058333333333333334\n",
      "note_off channel=0 note=62 velocity=127 time=0.019791666666666666\n",
      "note_on channel=0 note=61 velocity=127 time=0.008333333333333333\n",
      "note_off channel=0 note=61 velocity=127 time=0.019791666666666666\n",
      "note_on channel=0 note=60 velocity=127 time=0.005208333333333333\n",
      "note_off channel=0 note=60 velocity=127 time=0.019791666666666666\n",
      "note_on channel=0 note=62 velocity=127 time=0.05520833333333333\n",
      "note_off channel=0 note=62 velocity=127 time=0.019791666666666666\n",
      "note_on channel=0 note=60 velocity=127 time=0.035416666666666666\n",
      "note_on channel=0 note=61 velocity=127 time=0.0020833333333333333\n",
      "note_off channel=0 note=60 velocity=127 time=0.017708333333333333\n",
      "note_off channel=0 note=61 velocity=127 time=0.0020833333333333333\n",
      "note_on channel=0 note=62 velocity=127 time=0.05\n",
      "note_off channel=0 note=62 velocity=127 time=0.019791666666666666\n",
      "note_on channel=0 note=60 velocity=127 time=0.03854166666666667\n",
      "note_off channel=0 note=60 velocity=127 time=0.019791666666666666\n",
      "note_on channel=0 note=61 velocity=127 time=0.010416666666666666\n",
      "note_off channel=0 note=61 velocity=127 time=0.019791666666666666\n",
      "note_on channel=0 note=62 velocity=127 time=0.019791666666666666\n",
      "note_off channel=0 note=62 velocity=127 time=0.019791666666666666\n",
      "note_on channel=0 note=60 velocity=127 time=0.040625\n",
      "note_off channel=0 note=60 velocity=127 time=0.019791666666666666\n",
      "note_on channel=0 note=61 velocity=127 time=0.0375\n",
      "note_on channel=0 note=62 velocity=127 time=0.009375\n",
      "note_off channel=0 note=61 velocity=127 time=0.010416666666666666\n",
      "note_off channel=0 note=62 velocity=127 time=0.009375\n",
      "note_on channel=0 note=60 velocity=127 time=0.04375\n",
      "note_off channel=0 note=60 velocity=127 time=0.019791666666666666\n",
      "note_on channel=0 note=62 velocity=127 time=0.04479166666666667\n",
      "note_off channel=0 note=62 velocity=127 time=0.019791666666666666\n",
      "note_on channel=0 note=61 velocity=127 time=0.0010416666666666667\n",
      "note_off channel=0 note=61 velocity=127 time=0.019791666666666666\n",
      "note_on channel=0 note=60 velocity=127 time=0.025\n",
      "note_off channel=0 note=60 velocity=127 time=0.019791666666666666\n",
      "note_on channel=0 note=62 velocity=127 time=0.042708333333333334\n",
      "note_off channel=0 note=62 velocity=127 time=0.019791666666666666\n",
      "note_on channel=0 note=61 velocity=127 time=0.03125\n",
      "note_on channel=0 note=60 velocity=127 time=0.017708333333333333\n",
      "note_off channel=0 note=61 velocity=127 time=0.0020833333333333333\n",
      "note_off channel=0 note=60 velocity=127 time=0.017708333333333333\n",
      "note_on channel=0 note=62 velocity=127 time=0.03958333333333333\n",
      "note_off channel=0 note=62 velocity=127 time=0.019791666666666666\n",
      "note_on channel=0 note=60 velocity=127 time=0.051041666666666666\n",
      "note_on channel=0 note=61 velocity=127 time=0.010416666666666666\n",
      "note_off channel=0 note=60 velocity=127 time=0.009375\n",
      "note_off channel=0 note=61 velocity=127 time=0.010416666666666666\n",
      "note_on channel=0 note=62 velocity=127 time=0.027083333333333334\n",
      "note_off channel=0 note=62 velocity=127 time=0.019791666666666666\n",
      "note_on channel=0 note=60 velocity=127 time=0.05416666666666667\n",
      "note_off channel=0 note=60 velocity=127 time=0.019791666666666666\n",
      "note_on channel=0 note=61 velocity=127 time=0.017708333333333333\n",
      "note_on channel=0 note=62 velocity=127 time=0.016666666666666666\n",
      "note_off channel=0 note=61 velocity=127 time=0.003125\n",
      "note_off channel=0 note=62 velocity=127 time=0.016666666666666666\n",
      "note_on channel=0 note=60 velocity=127 time=0.05625\n",
      "note_off channel=0 note=60 velocity=127 time=0.019791666666666666\n",
      "note_on channel=0 note=62 velocity=127 time=0.03229166666666666\n",
      "note_on channel=0 note=61 velocity=127 time=0.013541666666666667\n",
      "note_off channel=0 note=62 velocity=127 time=0.00625\n",
      "note_off channel=0 note=61 velocity=127 time=0.013541666666666667\n",
      "note_on channel=0 note=60 velocity=127 time=0.04479166666666667\n",
      "note_off channel=0 note=60 velocity=127 time=0.019791666666666666\n",
      "note_on channel=0 note=62 velocity=127 time=0.029166666666666667\n",
      "note_off channel=0 note=62 velocity=127 time=0.019791666666666666\n",
      "note_on channel=0 note=61 velocity=127 time=0.02395833333333333\n",
      "note_off channel=0 note=61 velocity=127 time=0.019791666666666666\n",
      "note_on channel=0 note=60 velocity=127 time=0.017708333333333333\n",
      "note_off channel=0 note=60 velocity=127 time=0.019791666666666666\n",
      "note_on channel=0 note=62 velocity=127 time=0.027083333333333334\n",
      "note_off channel=0 note=62 velocity=127 time=0.019791666666666666\n",
      "note_on channel=0 note=61 velocity=127 time=0.05416666666666667\n",
      "note_on channel=0 note=60 velocity=127 time=0.009375\n",
      "note_off channel=0 note=61 velocity=127 time=0.010416666666666666\n",
      "note_off channel=0 note=60 velocity=127 time=0.009375\n",
      "note_on channel=0 note=62 velocity=127 time=0.02395833333333333\n",
      "note_off channel=0 note=62 velocity=127 time=0.019791666666666666\n",
      "note_on channel=0 note=60 velocity=127 time=0.06666666666666667\n",
      "note_on channel=0 note=61 velocity=127 time=0.017708333333333333\n",
      "note_off channel=0 note=60 velocity=127 time=0.0020833333333333333\n",
      "note_off channel=0 note=61 velocity=127 time=0.017708333333333333\n",
      "note_on channel=0 note=62 velocity=127 time=0.003125\n",
      "note_off channel=0 note=62 velocity=127 time=0.019791666666666666\n",
      "note_on channel=0 note=60 velocity=127 time=0.06979166666666667\n",
      "note_off channel=0 note=60 velocity=127 time=0.019791666666666666\n",
      "note_on channel=0 note=62 velocity=127 time=0.01875\n",
      "note_on channel=0 note=61 velocity=127 time=0.00625\n",
      "note_off channel=0 note=62 velocity=127 time=0.013541666666666667\n",
      "note_off channel=0 note=61 velocity=127 time=0.00625\n",
      "note_on channel=0 note=60 velocity=127 time=0.065625\n",
      "note_off channel=0 note=60 velocity=127 time=0.019791666666666666\n",
      "note_on channel=0 note=62 velocity=127 time=0.016666666666666666\n",
      "note_off channel=0 note=62 velocity=127 time=0.019791666666666666\n",
      "note_on channel=0 note=61 velocity=127 time=0.016666666666666666\n",
      "note_off channel=0 note=61 velocity=127 time=0.019791666666666666\n",
      "note_on channel=0 note=60 velocity=127 time=0.0375\n",
      "note_off channel=0 note=60 velocity=127 time=0.019791666666666666\n",
      "note_on channel=0 note=62 velocity=127 time=0.013541666666666667\n",
      "note_off channel=0 note=62 velocity=127 time=0.019791666666666666\n",
      "note_on channel=0 note=61 velocity=127 time=0.046875\n",
      "note_off channel=0 note=61 velocity=127 time=0.019791666666666666\n",
      "note_on channel=0 note=60 velocity=127 time=0.009375\n",
      "note_off channel=0 note=60 velocity=127 time=0.019791666666666666\n",
      "note_on channel=0 note=62 velocity=127 time=0.011458333333333333\n",
      "note_off channel=0 note=62 velocity=127 time=0.019791666666666666\n",
      "note_on channel=0 note=61 velocity=127 time=0.078125\n",
      "note_on channel=0 note=60 velocity=127 time=0.0020833333333333333\n",
      "note_off channel=0 note=61 velocity=127 time=0.017708333333333333\n",
      "note_off channel=0 note=60 velocity=127 time=0.0020833333333333333\n",
      "note_on channel=0 note=62 velocity=127 time=0.008333333333333333\n",
      "note_off channel=0 note=62 velocity=127 time=0.019791666666666666\n",
      "note_on channel=0 note=60 velocity=127 time=0.08229166666666667\n",
      "\u001b[91m [DEBUG] > \u001b[0m\n",
      " |>  to_array: msg.time > max_t; t, n\n",
      " |>  3.0343750000000007\n",
      " |>  150\n"
     ]
    },
    {
     "name": "stdout",
     "output_type": "stream",
     "text": [
      "note_on channel=0 note=62 velocity=127 time=0.034375\n",
      "note_on channel=0 note=61 velocity=127 time=0.014583333333333334\n",
      "note_off channel=0 note=62 velocity=127 time=0.00625\n",
      "note_off channel=0 note=61 velocity=127 time=0.014583333333333334\n",
      "note_on channel=0 note=60 velocity=127 time=0.028125\n",
      "note_on channel=0 note=62 velocity=127 time=0.011458333333333333\n",
      "note_off channel=0 note=60 velocity=127 time=0.008333333333333333\n",
      "note_off channel=0 note=62 velocity=127 time=0.011458333333333333\n",
      "note_on channel=0 note=61 velocity=127 time=0.010416666666666666\n",
      "note_off channel=0 note=61 velocity=127 time=0.019791666666666666\n",
      "note_on channel=0 note=62 velocity=127 time=0.022916666666666665\n",
      "note_off channel=0 note=62 velocity=127 time=0.019791666666666666\n",
      "note_on channel=0 note=60 velocity=127 time=0.016666666666666666\n",
      "note_on channel=0 note=61 velocity=127 time=0.011458333333333333\n",
      "note_off channel=0 note=60 velocity=127 time=0.009375\n",
      "note_off channel=0 note=61 velocity=127 time=0.011458333333333333\n",
      "note_on channel=0 note=62 velocity=127 time=0.00625\n",
      "note_off channel=0 note=62 velocity=127 time=0.019791666666666666\n",
      "note_on channel=0 note=61 velocity=127 time=0.04375\n",
      "note_on channel=0 note=62 velocity=127 time=0.009375\n",
      "note_off channel=0 note=61 velocity=127 time=0.010416666666666666\n",
      "note_on channel=0 note=60 velocity=127 time=0\n",
      "note_off channel=0 note=62 velocity=127 time=0.009375\n",
      "note_off channel=0 note=60 velocity=127 time=0.010416666666666666\n",
      "note_on channel=0 note=62 velocity=127 time=0.04375\n",
      "note_on channel=0 note=61 velocity=127 time=0.007291666666666667\n",
      "note_off channel=0 note=62 velocity=127 time=0.0125\n",
      "note_off channel=0 note=61 velocity=127 time=0.007291666666666667\n",
      "note_on channel=0 note=60 velocity=127 time=0.03125\n",
      "note_on channel=0 note=62 velocity=127 time=0.015625\n",
      "note_off channel=0 note=60 velocity=127 time=0.004166666666666667\n",
      "note_off channel=0 note=62 velocity=127 time=0.015625\n",
      "note_on channel=0 note=61 velocity=127 time=0.004166666666666667\n",
      "note_off channel=0 note=61 velocity=127 time=0.019791666666666666\n",
      "note_on channel=0 note=62 velocity=127 time=0.030208333333333334\n",
      "note_off channel=0 note=62 velocity=127 time=0.019791666666666666\n",
      "note_on channel=0 note=60 velocity=127 time=0.0125\n",
      "note_on channel=0 note=61 velocity=127 time=0.008333333333333333\n",
      "note_off channel=0 note=60 velocity=127 time=0.011458333333333333\n",
      "note_off channel=0 note=61 velocity=127 time=0.008333333333333333\n",
      "note_on channel=0 note=62 velocity=127 time=0.013541666666666667\n",
      "note_off channel=0 note=62 velocity=127 time=0.019791666666666666\n",
      "note_on channel=0 note=61 velocity=127 time=0.0375\n",
      "note_on channel=0 note=62 velocity=127 time=0.016666666666666666\n",
      "note_off channel=0 note=61 velocity=127 time=0.003125\n",
      "note_on channel=0 note=60 velocity=127 time=0.003125\n",
      "note_off channel=0 note=62 velocity=127 time=0.013541666666666667\n",
      "note_off channel=0 note=60 velocity=127 time=0.00625\n",
      "note_on channel=0 note=62 velocity=127 time=0.046875\n",
      "note_on channel=0 note=61 velocity=127 time=0\n",
      "note_off channel=0 note=62 velocity=127 time=0.019791666666666666\n",
      "note_off channel=0 note=61 velocity=127 time=0\n",
      "note_on channel=0 note=60 velocity=127 time=0.034375\n",
      "note_on channel=0 note=62 velocity=127 time=0.019791666666666666\n",
      "note_off channel=0 note=60 velocity=127 time=0.0010416666666666667\n",
      "note_on channel=0 note=61 velocity=127 time=0.016666666666666666\n",
      "note_off channel=0 note=62 velocity=127 time=0.003125\n",
      "note_off channel=0 note=61 velocity=127 time=0.016666666666666666\n",
      "note_on channel=0 note=62 velocity=127 time=0.036458333333333336\n",
      "note_off channel=0 note=62 velocity=127 time=0.019791666666666666\n",
      "note_on channel=0 note=60 velocity=127 time=0.008333333333333333\n",
      "note_on channel=0 note=61 velocity=127 time=0.005208333333333333\n",
      "note_off channel=0 note=60 velocity=127 time=0.014583333333333334\n",
      "note_off channel=0 note=61 velocity=127 time=0.005208333333333333\n",
      "note_on channel=0 note=62 velocity=127 time=0.019791666666666666\n",
      "note_off channel=0 note=62 velocity=127 time=0.019791666666666666\n",
      "note_on channel=0 note=61 velocity=127 time=0.030208333333333334\n",
      "note_off channel=0 note=61 velocity=127 time=0.019791666666666666\n",
      "note_on channel=0 note=62 velocity=127 time=0.003125\n",
      "note_on channel=0 note=60 velocity=127 time=0.0020833333333333333\n",
      "note_off channel=0 note=62 velocity=127 time=0.017708333333333333\n",
      "note_off channel=0 note=60 velocity=127 time=0.0020833333333333333\n",
      "note_on channel=0 note=61 velocity=127 time=0.04479166666666667\n",
      "note_on channel=0 note=62 velocity=127 time=0.007291666666666667\n",
      "note_off channel=0 note=61 velocity=127 time=0.013541666666666667\n",
      "note_off channel=0 note=62 velocity=127 time=0.007291666666666667\n",
      "note_on channel=0 note=60 velocity=127 time=0.030208333333333334\n",
      "note_off channel=0 note=60 velocity=127 time=0.019791666666666666\n",
      "note_on channel=0 note=62 velocity=127 time=0.003125\n",
      "note_on channel=0 note=61 velocity=127 time=0.009375\n",
      "note_off channel=0 note=62 velocity=127 time=0.010416666666666666\n",
      "note_off channel=0 note=61 velocity=127 time=0.009375\n",
      "note_on channel=0 note=62 velocity=127 time=0.04375\n",
      "note_off channel=0 note=62 velocity=127 time=0.019791666666666666\n",
      "note_on channel=0 note=60 velocity=127 time=0.004166666666666667\n",
      "note_on channel=0 note=61 velocity=127 time=0.0020833333333333333\n",
      "note_off channel=0 note=60 velocity=127 time=0.017708333333333333\n",
      "note_off channel=0 note=61 velocity=127 time=0.0020833333333333333\n",
      "note_on channel=0 note=62 velocity=127 time=0.027083333333333334\n",
      "note_off channel=0 note=62 velocity=127 time=0.019791666666666666\n",
      "note_on channel=0 note=61 velocity=127 time=0.022916666666666665\n",
      "note_off channel=0 note=61 velocity=127 time=0.019791666666666666\n",
      "note_on channel=0 note=60 velocity=127 time=0.009375\n",
      "note_on channel=0 note=62 velocity=127 time=0.0010416666666666667\n",
      "note_off channel=0 note=60 velocity=127 time=0.01875\n",
      "note_off channel=0 note=62 velocity=127 time=0.0010416666666666667\n",
      "note_on channel=0 note=61 velocity=127 time=0.03958333333333333\n",
      "note_on channel=0 note=62 velocity=127 time=0.013541666666666667\n",
      "note_off channel=0 note=61 velocity=127 time=0.00625\n",
      "note_off channel=0 note=62 velocity=127 time=0.013541666666666667\n",
      "note_on channel=0 note=60 velocity=127 time=0.026041666666666668\n",
      "note_off channel=0 note=60 velocity=127 time=0.019791666666666666\n",
      "note_on channel=0 note=62 velocity=127 time=0.007291666666666667\n",
      "note_on channel=0 note=61 velocity=127 time=0.003125\n",
      "note_off channel=0 note=62 velocity=127 time=0.016666666666666666\n",
      "note_off channel=0 note=61 velocity=127 time=0.003125\n",
      "note_on channel=0 note=62 velocity=127 time=0.051041666666666666\n",
      "note_on channel=0 note=61 velocity=127 time=0.019791666666666666\n",
      "note_off channel=0 note=62 velocity=127 time=0\n",
      "note_on channel=0 note=60 velocity=127 time=0.0010416666666666667\n",
      "note_off channel=0 note=61 velocity=127 time=0.01875\n",
      "note_off channel=0 note=60 velocity=127 time=0.0010416666666666667\n",
      "note_on channel=0 note=62 velocity=127 time=0.03333333333333333\n",
      "note_off channel=0 note=62 velocity=127 time=0.019791666666666666\n",
      "note_on channel=0 note=61 velocity=127 time=0.016666666666666666\n",
      "note_off channel=0 note=61 velocity=127 time=0.019791666666666666\n",
      "note_on channel=0 note=60 velocity=127 time=0.0125\n",
      "note_on channel=0 note=62 velocity=127 time=0.005208333333333333\n",
      "note_off channel=0 note=60 velocity=127 time=0.014583333333333334\n",
      "note_off channel=0 note=62 velocity=127 time=0.005208333333333333\n",
      "note_on channel=0 note=61 velocity=127 time=0.03333333333333333\n",
      "note_off channel=0 note=61 velocity=127 time=0.019791666666666666\n",
      "note_on channel=0 note=62 velocity=127 time=0.0010416666666666667\n",
      "note_off channel=0 note=62 velocity=127 time=0.019791666666666666\n",
      "note_on channel=0 note=60 velocity=127 time=0.022916666666666665\n",
      "note_off channel=0 note=60 velocity=127 time=0.019791666666666666\n",
      "note_on channel=0 note=61 velocity=127 time=0.007291666666666667\n",
      "note_on channel=0 note=62 velocity=127 time=0.004166666666666667\n",
      "note_off channel=0 note=61 velocity=127 time=0.015625\n",
      "note_off channel=0 note=62 velocity=127 time=0.004166666666666667\n",
      "note_on channel=0 note=62 velocity=127 time=0.05416666666666667\n",
      "note_on channel=0 note=61 velocity=127 time=0.0125\n",
      "note_on channel=0 note=60 velocity=127 time=0.004166666666666667\n",
      "note_off channel=0 note=62 velocity=127 time=0.003125\n",
      "note_off channel=0 note=61 velocity=127 time=0.0125\n",
      "note_off channel=0 note=60 velocity=127 time=0.004166666666666667\n",
      "note_on channel=0 note=62 velocity=127 time=0.0375\n",
      "note_off channel=0 note=62 velocity=127 time=0.019791666666666666\n",
      "note_on channel=0 note=61 velocity=127 time=0.009375\n",
      "note_off channel=0 note=61 velocity=127 time=0.019791666666666666\n",
      "note_on channel=0 note=60 velocity=127 time=0.015625\n",
      "note_on channel=0 note=62 velocity=127 time=0.009375\n",
      "note_off channel=0 note=60 velocity=127 time=0.010416666666666666\n",
      "note_off channel=0 note=62 velocity=127 time=0.009375\n",
      "note_on channel=0 note=61 velocity=127 time=0.026041666666666668\n",
      "note_off channel=0 note=61 velocity=127 time=0.019791666666666666\n",
      "note_on channel=0 note=62 velocity=127 time=0.007291666666666667\n",
      "note_off channel=0 note=62 velocity=127 time=0.019791666666666666\n",
      "note_on channel=0 note=60 velocity=127 time=0.01875\n",
      "note_off channel=0 note=60 velocity=127 time=0.019791666666666666\n",
      "note_on channel=0 note=61 velocity=127 time=0.004166666666666667\n",
      "note_on channel=0 note=62 velocity=127 time=0.011458333333333333\n",
      "note_off channel=0 note=61 velocity=127 time=0.009375\n",
      "note_off channel=0 note=62 velocity=127 time=0.011458333333333333\n",
      "note_on channel=0 note=62 velocity=127 time=0.05416666666666667\n",
      "note_on channel=0 note=61 velocity=127 time=0.005208333333333333\n",
      "note_on channel=0 note=60 velocity=127 time=0.007291666666666667\n",
      "note_off channel=0 note=62 velocity=127 time=0.007291666666666667\n",
      "note_off channel=0 note=61 velocity=127 time=0.005208333333333333\n",
      "note_off channel=0 note=60 velocity=127 time=0.007291666666666667\n",
      "note_on channel=0 note=62 velocity=127 time=0.041666666666666664\n",
      "note_off channel=0 note=62 velocity=127 time=0.019791666666666666\n",
      "note_on channel=0 note=61 velocity=127 time=0.0020833333333333333\n",
      "note_off channel=0 note=61 velocity=127 time=0.019791666666666666\n",
      "note_on channel=0 note=60 velocity=127 time=0.017708333333333333\n",
      "note_on channel=0 note=62 velocity=127 time=0.013541666666666667\n",
      "note_off channel=0 note=60 velocity=127 time=0.00625\n",
      "note_off channel=0 note=62 velocity=127 time=0.013541666666666667\n",
      "note_on channel=0 note=61 velocity=127 time=0.01875\n",
      "note_off channel=0 note=61 velocity=127 time=0.019791666666666666\n",
      "note_on channel=0 note=62 velocity=127 time=0.014583333333333334\n",
      "note_off channel=0 note=62 velocity=127 time=0.019791666666666666\n",
      "note_on channel=0 note=60 velocity=127 time=0.014583333333333334\n",
      "note_off channel=0 note=60 velocity=127 time=0.019791666666666666\n",
      "note_on channel=0 note=61 velocity=127 time=0.0010416666666666667\n",
      "note_on channel=0 note=62 velocity=127 time=0.017708333333333333\n",
      "note_off channel=0 note=61 velocity=127 time=0.0020833333333333333\n",
      "note_off channel=0 note=62 velocity=127 time=0.017708333333333333\n",
      "note_on channel=0 note=61 velocity=127 time=0.052083333333333336\n",
      "note_on channel=0 note=62 velocity=127 time=0.0010416666666666667\n",
      "note_on channel=0 note=60 velocity=127 time=0.008333333333333333\n",
      "note_off channel=0 note=61 velocity=127 time=0.010416666666666666\n",
      "note_off channel=0 note=62 velocity=127 time=0.0010416666666666667\n",
      "note_off channel=0 note=60 velocity=127 time=0.008333333333333333\n",
      "note_on channel=0 note=62 velocity=127 time=0.04479166666666667\n",
      "note_on channel=0 note=61 velocity=127 time=0.015625\n",
      "note_off channel=0 note=62 velocity=127 time=0.005208333333333333\n",
      "note_off channel=0 note=61 velocity=127 time=0.015625\n",
      "note_on channel=0 note=60 velocity=127 time=0.020833333333333332\n",
      "note_on channel=0 note=62 velocity=127 time=0.017708333333333333\n",
      "note_off channel=0 note=60 velocity=127 time=0.003125\n",
      "note_off channel=0 note=62 velocity=127 time=0.017708333333333333\n",
      "note_on channel=0 note=61 velocity=127 time=0.011458333333333333\n",
      "note_off channel=0 note=61 velocity=127 time=0.019791666666666666\n",
      "note_on channel=0 note=62 velocity=127 time=0.021875\n",
      "note_off channel=0 note=62 velocity=127 time=0.019791666666666666\n",
      "\u001b[91m [DEBUG] > \u001b[0m\n",
      " |>  to_array: msg.time > max_t; t, n\n",
      " |>  3.0000000000000018\n",
      " |>  150\n",
      "note_on channel=0 note=61 velocity=127 time=0.016666666666666666\n",
      "note_on channel=0 note=60 velocity=127 time=0.011458333333333333\n",
      "note_off channel=0 note=61 velocity=127 time=0.009375\n",
      "note_off channel=0 note=60 velocity=127 time=0.011458333333333333\n",
      "note_on channel=0 note=62 velocity=127 time=0.021875\n",
      "note_off channel=0 note=62 velocity=127 time=0.019791666666666666\n",
      "note_on channel=0 note=61 velocity=127 time=0.004166666666666667\n",
      "note_on channel=0 note=60 velocity=127 time=0.004166666666666667\n",
      "note_off channel=0 note=61 velocity=127 time=0.016666666666666666\n",
      "note_off channel=0 note=60 velocity=127 time=0.004166666666666667\n",
      "note_on channel=0 note=62 velocity=127 time=0.0375\n",
      "note_on channel=0 note=60 velocity=127 time=0.0125\n",
      "note_on channel=0 note=61 velocity=127 time=0.003125\n",
      "note_off channel=0 note=62 velocity=127 time=0.004166666666666667\n",
      "note_off channel=0 note=60 velocity=127 time=0.0125\n",
      "note_off channel=0 note=61 velocity=127 time=0.003125\n",
      "note_on channel=0 note=60 velocity=127 time=0.046875\n",
      "note_on channel=0 note=62 velocity=127 time=0.003125\n",
      "note_on channel=0 note=61 velocity=127 time=0.008333333333333333\n",
      "note_off channel=0 note=60 velocity=127 time=0.009375\n",
      "note_off channel=0 note=62 velocity=127 time=0.003125\n",
      "note_off channel=0 note=61 velocity=127 time=0.008333333333333333\n",
      "note_on channel=0 note=60 velocity=127 time=0.03958333333333333\n",
      "note_on channel=0 note=61 velocity=127 time=0.017708333333333333\n",
      "note_on channel=0 note=62 velocity=127 time=0\n",
      "note_off channel=0 note=60 velocity=127 time=0.0020833333333333333\n",
      "note_off channel=0 note=61 velocity=127 time=0.017708333333333333\n",
      "note_off channel=0 note=62 velocity=127 time=0\n",
      "note_on channel=0 note=60 velocity=127 time=0.03229166666666666\n",
      "note_off channel=0 note=60 velocity=127 time=0.019791666666666666\n",
      "note_on channel=0 note=61 velocity=127 time=0.005208333333333333\n",
      "note_on channel=0 note=62 velocity=127 time=0.008333333333333333\n",
      "note_off channel=0 note=61 velocity=127 time=0.011458333333333333\n",
      "note_off channel=0 note=62 velocity=127 time=0.008333333333333333\n",
      "note_on channel=0 note=60 velocity=127 time=0.016666666666666666\n",
      "note_off channel=0 note=60 velocity=127 time=0.019791666666666666\n",
      "note_on channel=0 note=61 velocity=127 time=0.0125\n",
      "note_on channel=0 note=62 velocity=127 time=0.016666666666666666\n",
      "note_off channel=0 note=61 velocity=127 time=0.003125\n",
      "note_off channel=0 note=62 velocity=127 time=0.016666666666666666\n",
      "note_on channel=0 note=60 velocity=127 time=0.0010416666666666667\n",
      "note_off channel=0 note=60 velocity=127 time=0.019791666666666666\n",
      "note_on channel=0 note=61 velocity=127 time=0.019791666666666666\n",
      "note_off channel=0 note=61 velocity=127 time=0.019791666666666666\n",
      "note_on channel=0 note=62 velocity=127 time=0.005208333333333333\n",
      "note_on channel=0 note=60 velocity=127 time=0.00625\n",
      "note_off channel=0 note=62 velocity=127 time=0.014583333333333334\n",
      "note_off channel=0 note=60 velocity=127 time=0.00625\n",
      "note_on channel=0 note=61 velocity=127 time=0.027083333333333334\n",
      "note_off channel=0 note=61 velocity=127 time=0.019791666666666666\n",
      "note_on channel=0 note=60 velocity=127 time=0.003125\n",
      "note_on channel=0 note=62 velocity=127 time=0.009375\n",
      "note_off channel=0 note=60 velocity=127 time=0.010416666666666666\n",
      "note_off channel=0 note=62 velocity=127 time=0.009375\n",
      "note_on channel=0 note=61 velocity=127 time=0.025\n",
      "note_on channel=0 note=60 velocity=127 time=0.016666666666666666\n",
      "note_off channel=0 note=61 velocity=127 time=0.004166666666666667\n",
      "note_off channel=0 note=60 velocity=127 time=0.016666666666666666\n",
      "note_on channel=0 note=62 velocity=127 time=0.005208333333333333\n",
      "note_off channel=0 note=62 velocity=127 time=0.019791666666666666\n",
      "note_on channel=0 note=61 velocity=127 time=0.016666666666666666\n",
      "note_on channel=0 note=60 velocity=127 time=0.009375\n",
      "note_off channel=0 note=61 velocity=127 time=0.011458333333333333\n",
      "note_off channel=0 note=60 velocity=127 time=0.009375\n",
      "note_on channel=0 note=62 velocity=127 time=0.020833333333333332\n",
      "note_off channel=0 note=62 velocity=127 time=0.019791666666666666\n",
      "note_on channel=0 note=61 velocity=127 time=0.008333333333333333\n",
      "note_on channel=0 note=60 velocity=127 time=0.0020833333333333333\n",
      "note_off channel=0 note=61 velocity=127 time=0.01875\n",
      "note_off channel=0 note=60 velocity=127 time=0.0020833333333333333\n",
      "note_on channel=0 note=62 velocity=127 time=0.036458333333333336\n",
      "note_on channel=0 note=60 velocity=127 time=0.014583333333333334\n",
      "note_off channel=0 note=62 velocity=127 time=0.005208333333333333\n",
      "note_on channel=0 note=61 velocity=127 time=0\n",
      "note_off channel=0 note=60 velocity=127 time=0.014583333333333334\n",
      "note_off channel=0 note=61 velocity=127 time=0.005208333333333333\n",
      "note_on channel=0 note=60 velocity=127 time=0.04479166666666667\n",
      "note_on channel=0 note=62 velocity=127 time=0.0010416666666666667\n",
      "note_on channel=0 note=61 velocity=127 time=0.011458333333333333\n",
      "note_off channel=0 note=60 velocity=127 time=0.007291666666666667\n",
      "note_off channel=0 note=62 velocity=127 time=0.0010416666666666667\n",
      "note_off channel=0 note=61 velocity=127 time=0.011458333333333333\n",
      "note_on channel=0 note=60 velocity=127 time=0.0375\n",
      "note_on channel=0 note=62 velocity=127 time=0.016666666666666666\n",
      "note_off channel=0 note=60 velocity=127 time=0.003125\n",
      "note_on channel=0 note=61 velocity=127 time=0\n",
      "note_off channel=0 note=62 velocity=127 time=0.016666666666666666\n",
      "note_off channel=0 note=61 velocity=127 time=0.003125\n",
      "note_on channel=0 note=60 velocity=127 time=0.030208333333333334\n",
      "note_off channel=0 note=60 velocity=127 time=0.019791666666666666\n",
      "note_on channel=0 note=61 velocity=127 time=0.007291666666666667\n",
      "note_on channel=0 note=62 velocity=127 time=0.004166666666666667\n",
      "note_off channel=0 note=61 velocity=127 time=0.015625\n",
      "note_off channel=0 note=62 velocity=127 time=0.004166666666666667\n",
      "note_on channel=0 note=60 velocity=127 time=0.01875\n",
      "note_off channel=0 note=60 velocity=127 time=0.019791666666666666\n",
      "note_on channel=0 note=61 velocity=127 time=0.014583333333333334\n",
      "note_on channel=0 note=62 velocity=127 time=0.0125\n",
      "note_off channel=0 note=61 velocity=127 time=0.007291666666666667\n",
      "note_off channel=0 note=62 velocity=127 time=0.0125\n",
      "note_on channel=0 note=60 velocity=127 time=0.003125\n",
      "note_off channel=0 note=60 velocity=127 time=0.019791666666666666\n",
      "note_on channel=0 note=61 velocity=127 time=0.021875\n",
      "note_off channel=0 note=61 velocity=127 time=0.019791666666666666\n",
      "note_on channel=0 note=62 velocity=127 time=0.0010416666666666667\n",
      "note_on channel=0 note=60 velocity=127 time=0.007291666666666667\n",
      "note_off channel=0 note=62 velocity=127 time=0.0125\n",
      "note_off channel=0 note=60 velocity=127 time=0.007291666666666667\n",
      "note_on channel=0 note=61 velocity=127 time=0.029166666666666667\n",
      "note_off channel=0 note=61 velocity=127 time=0.019791666666666666\n",
      "note_on channel=0 note=60 velocity=127 time=0.0010416666666666667\n",
      "note_on channel=0 note=62 velocity=127 time=0.008333333333333333\n",
      "note_off channel=0 note=60 velocity=127 time=0.011458333333333333\n",
      "note_off channel=0 note=62 velocity=127 time=0.008333333333333333\n",
      "note_on channel=0 note=61 velocity=127 time=0.028125\n",
      "note_on channel=0 note=60 velocity=127 time=0.013541666666666667\n",
      "note_off channel=0 note=61 velocity=127 time=0.00625\n",
      "note_off channel=0 note=60 velocity=127 time=0.013541666666666667\n",
      "note_on channel=0 note=62 velocity=127 time=0.003125\n",
      "note_off channel=0 note=62 velocity=127 time=0.019791666666666666\n",
      "note_on channel=0 note=61 velocity=127 time=0.020833333333333332\n",
      "note_on channel=0 note=60 velocity=127 time=0.00625\n",
      "note_off channel=0 note=61 velocity=127 time=0.013541666666666667\n",
      "note_off channel=0 note=60 velocity=127 time=0.00625\n",
      "note_on channel=0 note=62 velocity=127 time=0.01875\n",
      "note_off channel=0 note=62 velocity=127 time=0.019791666666666666\n",
      "note_on channel=0 note=60 velocity=127 time=0.011458333333333333\n",
      "note_on channel=0 note=61 velocity=127 time=0.0010416666666666667\n",
      "note_off channel=0 note=60 velocity=127 time=0.019791666666666666\n",
      "note_off channel=0 note=61 velocity=127 time=0.0010416666666666667\n",
      "note_on channel=0 note=62 velocity=127 time=0.034375\n",
      "note_on channel=0 note=60 velocity=127 time=0.015625\n",
      "note_off channel=0 note=62 velocity=127 time=0.004166666666666667\n",
      "note_on channel=0 note=61 velocity=127 time=0.004166666666666667\n",
      "note_off channel=0 note=60 velocity=127 time=0.0125\n",
      "note_off channel=0 note=61 velocity=127 time=0.008333333333333333\n",
      "note_on channel=0 note=62 velocity=127 time=0.042708333333333334\n",
      "note_on channel=0 note=60 velocity=127 time=0.0010416666666666667\n",
      "note_on channel=0 note=61 velocity=127 time=0.015625\n",
      "note_off channel=0 note=62 velocity=127 time=0.004166666666666667\n",
      "note_off channel=0 note=60 velocity=127 time=0.0010416666666666667\n",
      "note_off channel=0 note=61 velocity=127 time=0.015625\n",
      "note_on channel=0 note=60 velocity=127 time=0.035416666666666666\n",
      "note_on channel=0 note=62 velocity=127 time=0.014583333333333334\n",
      "note_off channel=0 note=60 velocity=127 time=0.005208333333333333\n",
      "note_on channel=0 note=61 velocity=127 time=0.0020833333333333333\n",
      "note_off channel=0 note=62 velocity=127 time=0.0125\n",
      "note_off channel=0 note=61 velocity=127 time=0.007291666666666667\n",
      "note_on channel=0 note=60 velocity=127 time=0.028125\n",
      "note_off channel=0 note=60 velocity=127 time=0.019791666666666666\n",
      "note_on channel=0 note=61 velocity=127 time=0.009375\n",
      "note_on channel=0 note=62 velocity=127 time=0.0010416666666666667\n",
      "note_off channel=0 note=61 velocity=127 time=0.01875\n",
      "note_off channel=0 note=62 velocity=127 time=0.0010416666666666667\n",
      "note_on channel=0 note=60 velocity=127 time=0.019791666666666666\n",
      "note_off channel=0 note=60 velocity=127 time=0.019791666666666666\n",
      "note_on channel=0 note=61 velocity=127 time=0.016666666666666666\n",
      "note_on channel=0 note=62 velocity=127 time=0.009375\n",
      "note_off channel=0 note=61 velocity=127 time=0.010416666666666666\n",
      "note_off channel=0 note=62 velocity=127 time=0.009375\n",
      "note_on channel=0 note=60 velocity=127 time=0.004166666666666667\n",
      "note_off channel=0 note=60 velocity=127 time=0.019791666666666666\n",
      "note_on channel=0 note=61 velocity=127 time=0.02395833333333333\n",
      "note_on channel=0 note=62 velocity=127 time=0.017708333333333333\n",
      "note_off channel=0 note=61 velocity=127 time=0.003125\n",
      "note_on channel=0 note=60 velocity=127 time=0.00625\n",
      "note_off channel=0 note=62 velocity=127 time=0.010416666666666666\n",
      "note_off channel=0 note=60 velocity=127 time=0.009375\n",
      "note_on channel=0 note=61 velocity=127 time=0.03125\n",
      "note_on channel=0 note=60 velocity=127 time=0.01875\n",
      "note_off channel=0 note=61 velocity=127 time=0.0010416666666666667\n",
      "note_on channel=0 note=62 velocity=127 time=0.005208333333333333\n",
      "note_off channel=0 note=60 velocity=127 time=0.013541666666666667\n",
      "note_off channel=0 note=62 velocity=127 time=0.00625\n",
      "note_on channel=0 note=61 velocity=127 time=0.03229166666666666\n",
      "note_on channel=0 note=60 velocity=127 time=0.011458333333333333\n",
      "note_off channel=0 note=61 velocity=127 time=0.008333333333333333\n",
      "note_off channel=0 note=60 velocity=127 time=0.011458333333333333\n",
      "note_on channel=0 note=62 velocity=127 time=0.0020833333333333333\n",
      "note_off channel=0 note=62 velocity=127 time=0.019791666666666666\n",
      "note_on channel=0 note=61 velocity=127 time=0.02395833333333333\n",
      "note_on channel=0 note=60 velocity=127 time=0.004166666666666667\n",
      "note_off channel=0 note=61 velocity=127 time=0.015625\n",
      "note_off channel=0 note=60 velocity=127 time=0.004166666666666667\n",
      "note_on channel=0 note=62 velocity=127 time=0.017708333333333333\n",
      "note_off channel=0 note=62 velocity=127 time=0.019791666666666666\n",
      "note_on channel=0 note=60 velocity=127 time=0.013541666666666667\n",
      "note_on channel=0 note=61 velocity=127 time=0.003125\n",
      "note_off channel=0 note=60 velocity=127 time=0.017708333333333333\n",
      "note_off channel=0 note=61 velocity=127 time=0.003125\n",
      "note_on channel=0 note=62 velocity=127 time=0.030208333333333334\n",
      "note_on channel=0 note=60 velocity=127 time=0.017708333333333333\n",
      "note_off channel=0 note=62 velocity=127 time=0.0020833333333333333\n",
      "note_on channel=0 note=61 velocity=127 time=0.007291666666666667\n",
      "note_off channel=0 note=60 velocity=127 time=0.010416666666666666\n",
      "note_off channel=0 note=61 velocity=127 time=0.010416666666666666\n",
      "note_on channel=0 note=62 velocity=127 time=0.03854166666666667\n",
      "note_on channel=0 note=60 velocity=127 time=0.0020833333333333333\n",
      "note_on channel=0 note=61 velocity=127 time=0.017708333333333333\n",
      "note_off channel=0 note=62 velocity=127 time=0.0010416666666666667\n",
      "note_off channel=0 note=60 velocity=127 time=0.0020833333333333333\n",
      "note_off channel=0 note=61 velocity=127 time=0.017708333333333333\n",
      "note_on channel=0 note=60 velocity=127 time=0.03333333333333333\n",
      "note_on channel=0 note=62 velocity=127 time=0.013541666666666667\n",
      "note_off channel=0 note=60 velocity=127 time=0.00625\n",
      "note_on channel=0 note=61 velocity=127 time=0.004166666666666667\n",
      "note_off channel=0 note=62 velocity=127 time=0.008333333333333333\n",
      "note_off channel=0 note=61 velocity=127 time=0.011458333333333333\n",
      "note_on channel=0 note=60 velocity=127 time=0.026041666666666668\n",
      "note_off channel=0 note=60 velocity=127 time=0.019791666666666666\n",
      "note_on channel=0 note=62 velocity=127 time=0.009375\n",
      "note_on channel=0 note=61 velocity=127 time=0.003125\n",
      "note_off channel=0 note=62 velocity=127 time=0.016666666666666666\n",
      "note_off channel=0 note=61 velocity=127 time=0.003125\n",
      "note_on channel=0 note=60 velocity=127 time=0.01875\n",
      "note_off channel=0 note=60 velocity=127 time=0.019791666666666666\n",
      "note_on channel=0 note=61 velocity=127 time=0.01875\n",
      "note_on channel=0 note=62 velocity=127 time=0.005208333333333333\n",
      "note_off channel=0 note=61 velocity=127 time=0.014583333333333334\n",
      "note_off channel=0 note=62 velocity=127 time=0.005208333333333333\n",
      "note_on channel=0 note=60 velocity=127 time=0.00625\n",
      "note_off channel=0 note=60 velocity=127 time=0.019791666666666666\n",
      "note_on channel=0 note=61 velocity=127 time=0.026041666666666668\n",
      "note_on channel=0 note=62 velocity=127 time=0.013541666666666667\n",
      "note_off channel=0 note=61 velocity=127 time=0.00625\n",
      "note_on channel=0 note=60 velocity=127 time=0.004166666666666667\n",
      "note_off channel=0 note=62 velocity=127 time=0.009375\n",
      "note_off channel=0 note=60 velocity=127 time=0.010416666666666666\n",
      "note_on channel=0 note=61 velocity=127 time=0.03333333333333333\n",
      "note_on channel=0 note=60 velocity=127 time=0.016666666666666666\n",
      "note_off channel=0 note=61 velocity=127 time=0.003125\n",
      "\u001b[91m [DEBUG] > \u001b[0m\n",
      " |>  to_array: msg.time > max_t; t, n\n",
      " |>  2.991666666666665\n",
      " |>  150\n",
      "note_on channel=0 note=62 velocity=127 time=0.0010416666666666667\n",
      "note_off channel=0 note=62 velocity=127 time=0.019791666666666666\n",
      "note_on channel=0 note=62 velocity=127 time=0.071875\n",
      "note_on channel=0 note=60 velocity=127 time=0.015625\n",
      "note_off channel=0 note=62 velocity=127 time=0.004166666666666667\n",
      "note_off channel=0 note=60 velocity=127 time=0.015625\n",
      "note_on channel=0 note=61 velocity=127 time=0.019791666666666666\n",
      "note_off channel=0 note=61 velocity=127 time=0.019791666666666666\n",
      "note_on channel=0 note=62 velocity=127 time=0.015625\n",
      "note_off channel=0 note=62 velocity=127 time=0.019791666666666666\n",
      "note_on channel=0 note=62 velocity=127 time=0.071875\n",
      "note_off channel=0 note=62 velocity=127 time=0.019791666666666666\n",
      "note_on channel=0 note=60 velocity=127 time=0.020833333333333332\n",
      "note_off channel=0 note=60 velocity=127 time=0.019791666666666666\n",
      "note_on channel=0 note=62 velocity=127 time=0.030208333333333334\n",
      "note_off channel=0 note=62 velocity=127 time=0.019791666666666666\n",
      "note_on channel=0 note=62 velocity=127 time=0.071875\n",
      "note_on channel=0 note=61 velocity=127 time=0.008333333333333333\n",
      "note_off channel=0 note=62 velocity=127 time=0.011458333333333333\n",
      "note_off channel=0 note=61 velocity=127 time=0.008333333333333333\n",
      "note_on channel=0 note=60 velocity=127 time=0.0375\n",
      "note_off channel=0 note=60 velocity=127 time=0.019791666666666666\n",
      "note_on channel=0 note=62 velocity=127 time=0.005208333333333333\n",
      "note_off channel=0 note=62 velocity=127 time=0.019791666666666666\n",
      "note_on channel=0 note=62 velocity=127 time=0.071875\n",
      "note_off channel=0 note=62 velocity=127 time=0.019791666666666666\n",
      "note_on channel=0 note=62 velocity=127 time=0.071875\n",
      "note_on channel=0 note=60 velocity=127 time=0\n",
      "note_off channel=0 note=62 velocity=127 time=0.019791666666666666\n",
      "note_off channel=0 note=60 velocity=127 time=0\n",
      "note_on channel=0 note=61 velocity=127 time=0.03229166666666666\n",
      "note_off channel=0 note=61 velocity=127 time=0.019791666666666666\n",
      "note_on channel=0 note=62 velocity=127 time=0.017708333333333333\n",
      "note_off channel=0 note=62 velocity=127 time=0.019791666666666666\n",
      "note_on channel=0 note=62 velocity=127 time=0.071875\n",
      "note_off channel=0 note=62 velocity=127 time=0.019791666666666666\n",
      "note_on channel=0 note=60 velocity=127 time=0.00625\n",
      "note_off channel=0 note=60 velocity=127 time=0.019791666666666666\n",
      "note_on channel=0 note=62 velocity=127 time=0.04583333333333333\n",
      "note_off channel=0 note=62 velocity=127 time=0.019791666666666666\n",
      "note_on channel=0 note=62 velocity=127 time=0.071875\n",
      "note_on channel=0 note=61 velocity=127 time=0.00625\n",
      "note_off channel=0 note=62 velocity=127 time=0.013541666666666667\n",
      "note_off channel=0 note=61 velocity=127 time=0.00625\n",
      "note_on channel=0 note=60 velocity=127 time=0.025\n",
      "note_off channel=0 note=60 velocity=127 time=0.019791666666666666\n",
      "note_on channel=0 note=62 velocity=127 time=0.019791666666666666\n",
      "note_off channel=0 note=62 velocity=127 time=0.019791666666666666\n",
      "note_on channel=0 note=62 velocity=127 time=0.071875\n",
      "note_off channel=0 note=62 velocity=127 time=0.019791666666666666\n",
      "note_on channel=0 note=60 velocity=127 time=0.057291666666666664\n",
      "note_on channel=0 note=62 velocity=127 time=0.014583333333333334\n",
      "note_off channel=0 note=60 velocity=127 time=0.005208333333333333\n",
      "note_off channel=0 note=62 velocity=127 time=0.014583333333333334\n",
      "note_on channel=0 note=61 velocity=127 time=0.03125\n",
      "note_off channel=0 note=61 velocity=127 time=0.019791666666666666\n",
      "note_on channel=0 note=62 velocity=127 time=0.020833333333333332\n",
      "note_off channel=0 note=62 velocity=127 time=0.019791666666666666\n",
      "note_on channel=0 note=62 velocity=127 time=0.071875\n",
      "note_on channel=0 note=60 velocity=127 time=0.011458333333333333\n",
      "note_off channel=0 note=62 velocity=127 time=0.009375\n",
      "note_off channel=0 note=60 velocity=127 time=0.011458333333333333\n",
      "note_on channel=0 note=62 velocity=127 time=0.06041666666666667\n",
      "note_off channel=0 note=62 velocity=127 time=0.019791666666666666\n",
      "note_on channel=0 note=62 velocity=127 time=0.071875\n",
      "note_on channel=0 note=61 velocity=127 time=0.004166666666666667\n",
      "note_off channel=0 note=62 velocity=127 time=0.015625\n",
      "note_off channel=0 note=61 velocity=127 time=0.004166666666666667\n",
      "note_on channel=0 note=60 velocity=127 time=0.0125\n",
      "note_off channel=0 note=60 velocity=127 time=0.019791666666666666\n",
      "note_on channel=0 note=62 velocity=127 time=0.035416666666666666\n",
      "note_off channel=0 note=62 velocity=127 time=0.019791666666666666\n",
      "note_on channel=0 note=62 velocity=127 time=0.071875\n",
      "note_off channel=0 note=62 velocity=127 time=0.019791666666666666\n",
      "note_on channel=0 note=60 velocity=127 time=0.041666666666666664\n",
      "note_off channel=0 note=60 velocity=127 time=0.019791666666666666\n",
      "note_on channel=0 note=62 velocity=127 time=0.009375\n",
      "note_off channel=0 note=62 velocity=127 time=0.019791666666666666\n",
      "note_on channel=0 note=61 velocity=127 time=0.028125\n",
      "note_off channel=0 note=61 velocity=127 time=0.019791666666666666\n",
      "note_on channel=0 note=62 velocity=127 time=0.022916666666666665\n",
      "note_off channel=0 note=62 velocity=127 time=0.019791666666666666\n",
      "note_on channel=0 note=60 velocity=127 time=0.06770833333333333\n",
      "note_on channel=0 note=62 velocity=127 time=0.004166666666666667\n",
      "note_off channel=0 note=60 velocity=127 time=0.015625\n",
      "note_off channel=0 note=62 velocity=127 time=0.004166666666666667\n",
      "note_on channel=0 note=62 velocity=127 time=0.071875\n",
      "note_off channel=0 note=62 velocity=127 time=0.019791666666666666\n",
      "note_on channel=0 note=62 velocity=127 time=0.071875\n",
      "note_on channel=0 note=61 velocity=127 time=0.0010416666666666667\n",
      "note_off channel=0 note=62 velocity=127 time=0.01875\n",
      "note_off channel=0 note=61 velocity=127 time=0.0010416666666666667\n",
      "note_on channel=0 note=60 velocity=127 time=0\n",
      "note_off channel=0 note=60 velocity=127 time=0.019791666666666666\n",
      "note_on channel=0 note=62 velocity=127 time=0.05\n",
      "note_off channel=0 note=62 velocity=127 time=0.019791666666666666\n",
      "note_on channel=0 note=62 velocity=127 time=0.071875\n",
      "note_off channel=0 note=62 velocity=127 time=0.019791666666666666\n",
      "note_on channel=0 note=60 velocity=127 time=0.027083333333333334\n",
      "note_off channel=0 note=60 velocity=127 time=0.019791666666666666\n",
      "note_on channel=0 note=62 velocity=127 time=0.025\n",
      "note_off channel=0 note=62 velocity=127 time=0.019791666666666666\n",
      "note_on channel=0 note=61 velocity=127 time=0.026041666666666668\n",
      "note_off channel=0 note=61 velocity=127 time=0.019791666666666666\n",
      "note_on channel=0 note=62 velocity=127 time=0.026041666666666668\n",
      "note_off channel=0 note=62 velocity=127 time=0.019791666666666666\n",
      "note_on channel=0 note=60 velocity=127 time=0.052083333333333336\n",
      "note_on channel=0 note=62 velocity=127 time=0.01875\n",
      "note_off channel=0 note=60 velocity=127 time=0.0010416666666666667\n",
      "note_off channel=0 note=62 velocity=127 time=0.01875\n",
      "note_on channel=0 note=62 velocity=127 time=0.071875\n",
      "note_off channel=0 note=62 velocity=127 time=0.019791666666666666\n",
      "note_on channel=0 note=61 velocity=127 time=0.07083333333333333\n",
      "\u001b[91m [DEBUG] > \u001b[0m\n",
      " |>  to_array: msg.time > max_t; t, n\n",
      " |>  3.0156250000000004\n",
      " |>  150\n",
      "note_on channel=0 note=61 velocity=127 time=0.00625\n",
      "note_off channel=0 note=61 velocity=127 time=0.019791666666666666\n",
      "note_on channel=0 note=60 velocity=127 time=0.06041666666666667\n",
      "note_off channel=0 note=60 velocity=127 time=0.019791666666666666\n",
      "note_on channel=0 note=62 velocity=127 time=0.03854166666666667\n",
      "note_off channel=0 note=62 velocity=127 time=0.019791666666666666\n",
      "note_on channel=0 note=60 velocity=127 time=0.019791666666666666\n",
      "note_off channel=0 note=60 velocity=127 time=0.019791666666666666\n",
      "note_on channel=0 note=61 velocity=127 time=0.052083333333333336\n",
      "note_off channel=0 note=61 velocity=127 time=0.019791666666666666\n",
      "note_on channel=0 note=60 velocity=127 time=0.00625\n",
      "note_off channel=0 note=60 velocity=127 time=0.019791666666666666\n",
      "note_on channel=0 note=60 velocity=127 time=0.078125\n",
      "note_on channel=0 note=62 velocity=127 time=0.015625\n",
      "note_off channel=0 note=60 velocity=127 time=0.004166666666666667\n",
      "note_off channel=0 note=62 velocity=127 time=0.015625\n",
      "note_on channel=0 note=60 velocity=127 time=0.0625\n",
      "note_off channel=0 note=60 velocity=127 time=0.019791666666666666\n",
      "note_on channel=0 note=61 velocity=127 time=0.007291666666666667\n",
      "note_off channel=0 note=61 velocity=127 time=0.019791666666666666\n",
      "note_on channel=0 note=60 velocity=127 time=0.052083333333333336\n",
      "note_off channel=0 note=60 velocity=127 time=0.019791666666666666\n",
      "note_on channel=0 note=62 velocity=127 time=0.051041666666666666\n",
      "note_off channel=0 note=62 velocity=127 time=0.019791666666666666\n",
      "note_on channel=0 note=60 velocity=127 time=0.007291666666666667\n",
      "note_off channel=0 note=60 velocity=127 time=0.019791666666666666\n",
      "note_on channel=0 note=61 velocity=127 time=0.06041666666666667\n",
      "note_on channel=0 note=60 velocity=127 time=0.017708333333333333\n",
      "note_off channel=0 note=61 velocity=127 time=0.0020833333333333333\n",
      "note_off channel=0 note=60 velocity=127 time=0.017708333333333333\n",
      "note_on channel=0 note=60 velocity=127 time=0.078125\n",
      "note_off channel=0 note=60 velocity=127 time=0.019791666666666666\n",
      "note_on channel=0 note=62 velocity=127 time=0.008333333333333333\n",
      "note_off channel=0 note=62 velocity=127 time=0.019791666666666666\n",
      "note_on channel=0 note=60 velocity=127 time=0.05\n",
      "note_off channel=0 note=60 velocity=127 time=0.019791666666666666\n",
      "note_on channel=0 note=61 velocity=127 time=0.015625\n",
      "note_off channel=0 note=61 velocity=127 time=0.019791666666666666\n"
     ]
    },
    {
     "name": "stdout",
     "output_type": "stream",
     "text": [
      "note_on channel=0 note=60 velocity=127 time=0.042708333333333334\n",
      "note_off channel=0 note=60 velocity=127 time=0.019791666666666666\n",
      "note_on channel=0 note=62 velocity=127 time=0.06458333333333333\n",
      "note_on channel=0 note=60 velocity=127 time=0.014583333333333334\n",
      "note_off channel=0 note=62 velocity=127 time=0.00625\n",
      "note_off channel=0 note=60 velocity=127 time=0.014583333333333334\n",
      "note_on channel=0 note=61 velocity=127 time=0.06875\n",
      "note_on channel=0 note=60 velocity=127 time=0.009375\n",
      "note_off channel=0 note=61 velocity=127 time=0.010416666666666666\n",
      "note_off channel=0 note=60 velocity=127 time=0.009375\n",
      "note_on channel=0 note=60 velocity=127 time=0.078125\n",
      "note_off channel=0 note=60 velocity=127 time=0.019791666666666666\n",
      "note_on channel=0 note=62 velocity=127 time=0.021875\n",
      "note_off channel=0 note=62 velocity=127 time=0.019791666666666666\n",
      "note_on channel=0 note=60 velocity=127 time=0.036458333333333336\n",
      "note_off channel=0 note=60 velocity=127 time=0.019791666666666666\n",
      "note_on channel=0 note=61 velocity=127 time=0.02395833333333333\n",
      "note_off channel=0 note=61 velocity=127 time=0.019791666666666666\n",
      "note_on channel=0 note=60 velocity=127 time=0.034375\n",
      "note_off channel=0 note=60 velocity=127 time=0.019791666666666666\n",
      "note_on channel=0 note=62 velocity=127 time=0.07708333333333334\n",
      "note_on channel=0 note=60 velocity=127 time=0.0010416666666666667\n",
      "note_off channel=0 note=62 velocity=127 time=0.01875\n",
      "note_off channel=0 note=60 velocity=127 time=0.0010416666666666667\n",
      "note_on channel=0 note=61 velocity=127 time=0.07708333333333334\n",
      "note_on channel=0 note=60 velocity=127 time=0.0010416666666666667\n",
      "note_off channel=0 note=61 velocity=127 time=0.01875\n",
      "note_off channel=0 note=60 velocity=127 time=0.0010416666666666667\n",
      "note_on channel=0 note=60 velocity=127 time=0.078125\n",
      "note_off channel=0 note=60 velocity=127 time=0.019791666666666666\n",
      "note_on channel=0 note=62 velocity=127 time=0.034375\n",
      "note_off channel=0 note=62 velocity=127 time=0.019791666666666666\n",
      "note_on channel=0 note=60 velocity=127 time=0.02395833333333333\n",
      "note_off channel=0 note=60 velocity=127 time=0.019791666666666666\n",
      "note_on channel=0 note=61 velocity=127 time=0.03229166666666666\n",
      "note_off channel=0 note=61 velocity=127 time=0.019791666666666666\n",
      "note_on channel=0 note=60 velocity=127 time=0.026041666666666668\n",
      "note_off channel=0 note=60 velocity=127 time=0.019791666666666666\n",
      "note_on channel=0 note=60 velocity=127 time=0.078125\n",
      "note_on channel=0 note=62 velocity=127 time=0.0125\n",
      "note_off channel=0 note=60 velocity=127 time=0.008333333333333333\n",
      "note_off channel=0 note=62 velocity=127 time=0.0125\n",
      "note_on channel=0 note=60 velocity=127 time=0.06666666666666667\n",
      "note_on channel=0 note=61 velocity=127 time=0.007291666666666667\n",
      "note_off channel=0 note=60 velocity=127 time=0.0125\n",
      "note_off channel=0 note=61 velocity=127 time=0.007291666666666667\n",
      "note_on channel=0 note=60 velocity=127 time=0.07083333333333333\n",
      "note_off channel=0 note=60 velocity=127 time=0.019791666666666666\n",
      "note_on channel=0 note=62 velocity=127 time=0.04791666666666666\n",
      "note_off channel=0 note=62 velocity=127 time=0.019791666666666666\n",
      "note_on channel=0 note=60 velocity=127 time=0.010416666666666666\n",
      "note_off channel=0 note=60 velocity=127 time=0.019791666666666666\n",
      "note_on channel=0 note=61 velocity=127 time=0.040625\n",
      "note_off channel=0 note=61 velocity=127 time=0.019791666666666666\n",
      "note_on channel=0 note=60 velocity=127 time=0.017708333333333333\n",
      "note_off channel=0 note=60 velocity=127 time=0.019791666666666666\n",
      "note_on channel=0 note=60 velocity=127 time=0.078125\n",
      "note_off channel=0 note=60 velocity=127 time=0.019791666666666666\n",
      "note_on channel=0 note=62 velocity=127 time=0.005208333333333333\n",
      "note_off channel=0 note=62 velocity=127 time=0.019791666666666666\n",
      "note_on channel=0 note=60 velocity=127 time=0.053125\n",
      "note_on channel=0 note=61 velocity=127 time=0.015625\n",
      "note_off channel=0 note=60 velocity=127 time=0.004166666666666667\n",
      "note_off channel=0 note=61 velocity=127 time=0.015625\n",
      "note_on channel=0 note=60 velocity=127 time=0.0625\n",
      "note_off channel=0 note=60 velocity=127 time=0.019791666666666666\n",
      "note_on channel=0 note=62 velocity=127 time=0.06041666666666667\n",
      "note_on channel=0 note=60 velocity=127 time=0.017708333333333333\n",
      "note_off channel=0 note=62 velocity=127 time=0.0020833333333333333\n",
      "note_off channel=0 note=60 velocity=127 time=0.017708333333333333\n",
      "note_on channel=0 note=61 velocity=127 time=0.05\n",
      "\u001b[91m [DEBUG] > \u001b[0m\n",
      " |>  to_array: msg.time > max_t; t, n\n",
      " |>  3.001041666666669\n",
      " |>  150\n",
      "note_on channel=0 note=61 velocity=127 time=0.0125\n",
      "note_off channel=0 note=61 velocity=127 time=0.019791666666666666\n",
      "note_on channel=0 note=60 velocity=127 time=0.030208333333333334\n",
      "note_on channel=0 note=61 velocity=127 time=0.016666666666666666\n",
      "note_off channel=0 note=60 velocity=127 time=0.003125\n",
      "note_off channel=0 note=61 velocity=127 time=0.016666666666666666\n",
      "note_on channel=0 note=61 velocity=127 time=0.046875\n",
      "note_on channel=0 note=60 velocity=127 time=0.0010416666666666667\n",
      "note_off channel=0 note=61 velocity=127 time=0.01875\n",
      "note_off channel=0 note=60 velocity=127 time=0.0010416666666666667\n",
      "note_on channel=0 note=61 velocity=127 time=0.04583333333333333\n",
      "note_on channel=0 note=62 velocity=127 time=0.007291666666666667\n",
      "note_on channel=0 note=60 velocity=127 time=0.010416666666666666\n",
      "note_off channel=0 note=61 velocity=127 time=0.0020833333333333333\n",
      "note_off channel=0 note=62 velocity=127 time=0.007291666666666667\n",
      "note_off channel=0 note=60 velocity=127 time=0.010416666666666666\n",
      "note_on channel=0 note=61 velocity=127 time=0.029166666666666667\n",
      "note_off channel=0 note=61 velocity=127 time=0.019791666666666666\n",
      "note_on channel=0 note=60 velocity=127 time=0.015625\n",
      "note_off channel=0 note=60 velocity=127 time=0.019791666666666666\n",
      "note_on channel=0 note=61 velocity=127 time=0.011458333333333333\n",
      "note_off channel=0 note=61 velocity=127 time=0.019791666666666666\n",
      "note_on channel=0 note=60 velocity=127 time=0.03333333333333333\n",
      "note_on channel=0 note=61 velocity=127 time=0.014583333333333334\n",
      "note_off channel=0 note=60 velocity=127 time=0.00625\n",
      "note_off channel=0 note=61 velocity=127 time=0.014583333333333334\n",
      "note_on channel=0 note=61 velocity=127 time=0.046875\n",
      "note_on channel=0 note=60 velocity=127 time=0.003125\n",
      "note_on channel=0 note=62 velocity=127 time=0.007291666666666667\n",
      "note_off channel=0 note=61 velocity=127 time=0.009375\n",
      "note_off channel=0 note=60 velocity=127 time=0.003125\n",
      "note_off channel=0 note=62 velocity=127 time=0.007291666666666667\n",
      "note_on channel=0 note=61 velocity=127 time=0.036458333333333336\n",
      "note_off channel=0 note=61 velocity=127 time=0.019791666666666666\n",
      "note_on channel=0 note=60 velocity=127 time=0.0010416666666666667\n",
      "note_off channel=0 note=60 velocity=127 time=0.019791666666666666\n",
      "note_on channel=0 note=61 velocity=127 time=0.026041666666666668\n",
      "note_off channel=0 note=61 velocity=127 time=0.019791666666666666\n",
      "note_on channel=0 note=60 velocity=127 time=0.017708333333333333\n",
      "note_off channel=0 note=60 velocity=127 time=0.019791666666666666\n",
      "note_on channel=0 note=61 velocity=127 time=0.009375\n",
      "note_off channel=0 note=61 velocity=127 time=0.019791666666666666\n",
      "note_on channel=0 note=60 velocity=127 time=0.035416666666666666\n",
      "note_on channel=0 note=61 velocity=127 time=0.011458333333333333\n",
      "note_off channel=0 note=60 velocity=127 time=0.008333333333333333\n",
      "note_on channel=0 note=62 velocity=127 time=0.005208333333333333\n",
      "note_off channel=0 note=61 velocity=127 time=0.00625\n",
      "note_off channel=0 note=62 velocity=127 time=0.013541666666666667\n",
      "note_on channel=0 note=61 velocity=127 time=0.03333333333333333\n",
      "note_on channel=0 note=60 velocity=127 time=0.005208333333333333\n",
      "note_off channel=0 note=61 velocity=127 time=0.014583333333333334\n",
      "note_off channel=0 note=60 velocity=127 time=0.005208333333333333\n",
      "note_on channel=0 note=61 velocity=127 time=0.041666666666666664\n",
      "note_off channel=0 note=61 velocity=127 time=0.019791666666666666\n",
      "note_on channel=0 note=60 velocity=127 time=0.003125\n",
      "note_off channel=0 note=60 velocity=127 time=0.019791666666666666\n",
      "note_on channel=0 note=61 velocity=127 time=0.02395833333333333\n",
      "note_off channel=0 note=61 velocity=127 time=0.019791666666666666\n",
      "note_on channel=0 note=60 velocity=127 time=0.020833333333333332\n",
      "note_off channel=0 note=60 velocity=127 time=0.019791666666666666\n",
      "note_on channel=0 note=61 velocity=127 time=0.00625\n",
      "note_on channel=0 note=62 velocity=127 time=0.016666666666666666\n",
      "note_off channel=0 note=61 velocity=127 time=0.003125\n",
      "note_off channel=0 note=62 velocity=127 time=0.016666666666666666\n",
      "note_on channel=0 note=60 velocity=127 time=0.020833333333333332\n",
      "note_on channel=0 note=61 velocity=127 time=0.009375\n",
      "note_off channel=0 note=60 velocity=127 time=0.010416666666666666\n",
      "note_off channel=0 note=61 velocity=127 time=0.009375\n",
      "note_on channel=0 note=61 velocity=127 time=0.046875\n",
      "note_on channel=0 note=60 velocity=127 time=0.008333333333333333\n",
      "note_off channel=0 note=61 velocity=127 time=0.011458333333333333\n",
      "note_off channel=0 note=60 velocity=127 time=0.008333333333333333\n",
      "note_on channel=0 note=61 velocity=127 time=0.03958333333333333\n",
      "note_off channel=0 note=61 velocity=127 time=0.019791666666666666\n",
      "note_on channel=0 note=60 velocity=127 time=0.005208333333333333\n",
      "note_off channel=0 note=60 velocity=127 time=0.019791666666666666\n",
      "note_on channel=0 note=61 velocity=127 time=0.021875\n",
      "note_on channel=0 note=62 velocity=127 time=0.019791666666666666\n",
      "note_off channel=0 note=61 velocity=127 time=0\n",
      "note_off channel=0 note=62 velocity=127 time=0.019791666666666666\n",
      "note_on channel=0 note=60 velocity=127 time=0.003125\n",
      "note_off channel=0 note=60 velocity=127 time=0.019791666666666666\n",
      "note_on channel=0 note=61 velocity=127 time=0.004166666666666667\n",
      "note_off channel=0 note=61 velocity=127 time=0.019791666666666666\n",
      "note_on channel=0 note=60 velocity=127 time=0.040625\n",
      "note_on channel=0 note=61 velocity=127 time=0.007291666666666667\n",
      "note_off channel=0 note=60 velocity=127 time=0.013541666666666667\n",
      "note_off channel=0 note=61 velocity=127 time=0.007291666666666667\n",
      "note_on channel=0 note=61 velocity=127 time=0.046875\n",
      "note_on channel=0 note=60 velocity=127 time=0.010416666666666666\n",
      "note_off channel=0 note=61 velocity=127 time=0.009375\n",
      "note_off channel=0 note=60 velocity=127 time=0.010416666666666666\n",
      "note_on channel=0 note=61 velocity=127 time=0.036458333333333336\n",
      "note_off channel=0 note=61 velocity=127 time=0.019791666666666666\n",
      "note_on channel=0 note=62 velocity=127 time=0.003125\n",
      "note_on channel=0 note=60 velocity=127 time=0.005208333333333333\n",
      "note_off channel=0 note=62 velocity=127 time=0.014583333333333334\n",
      "note_off channel=0 note=60 velocity=127 time=0.005208333333333333\n",
      "note_on channel=0 note=61 velocity=127 time=0.019791666666666666\n",
      "note_off channel=0 note=61 velocity=127 time=0.019791666666666666\n",
      "note_on channel=0 note=60 velocity=127 time=0.025\n",
      "note_off channel=0 note=60 velocity=127 time=0.019791666666666666\n",
      "note_on channel=0 note=61 velocity=127 time=0.0020833333333333333\n",
      "note_off channel=0 note=61 velocity=127 time=0.019791666666666666\n",
      "note_on channel=0 note=60 velocity=127 time=0.042708333333333334\n",
      "note_on channel=0 note=61 velocity=127 time=0.004166666666666667\n",
      "note_off channel=0 note=60 velocity=127 time=0.015625\n",
      "note_off channel=0 note=61 velocity=127 time=0.004166666666666667\n",
      "note_on channel=0 note=61 velocity=127 time=0.046875\n",
      "note_on channel=0 note=60 velocity=127 time=0.0125\n",
      "note_off channel=0 note=61 velocity=127 time=0.007291666666666667\n",
      "note_on channel=0 note=62 velocity=127 time=0.00625\n",
      "note_off channel=0 note=60 velocity=127 time=0.007291666666666667\n",
      "note_off channel=0 note=62 velocity=127 time=0.0125\n",
      "note_on channel=0 note=61 velocity=127 time=0.020833333333333332\n",
      "note_off channel=0 note=61 velocity=127 time=0.019791666666666666\n",
      "note_on channel=0 note=60 velocity=127 time=0.010416666666666666\n",
      "note_off channel=0 note=60 velocity=127 time=0.019791666666666666\n",
      "note_on channel=0 note=61 velocity=127 time=0.016666666666666666\n",
      "note_off channel=0 note=61 velocity=127 time=0.019791666666666666\n",
      "note_on channel=0 note=60 velocity=127 time=0.028125\n",
      "note_on channel=0 note=61 velocity=127 time=0.019791666666666666\n",
      "note_off channel=0 note=60 velocity=127 time=0\n",
      "note_off channel=0 note=61 velocity=127 time=0.019791666666666666\n",
      "note_on channel=0 note=60 velocity=127 time=0.04479166666666667\n",
      "note_on channel=0 note=61 velocity=127 time=0.0020833333333333333\n",
      "note_off channel=0 note=60 velocity=127 time=0.017708333333333333\n",
      "note_off channel=0 note=61 velocity=127 time=0.0020833333333333333\n",
      "note_on channel=0 note=62 velocity=127 time=0.008333333333333333\n",
      "note_off channel=0 note=62 velocity=127 time=0.019791666666666666\n",
      "note_on channel=0 note=61 velocity=127 time=0.01875\n",
      "note_on channel=0 note=60 velocity=127 time=0.015625\n",
      "note_off channel=0 note=61 velocity=127 time=0.005208333333333333\n",
      "note_off channel=0 note=60 velocity=127 time=0.015625\n",
      "note_on channel=0 note=61 velocity=127 time=0.03229166666666666\n",
      "note_off channel=0 note=61 velocity=127 time=0.019791666666666666\n",
      "note_on channel=0 note=60 velocity=127 time=0.0125\n",
      "note_off channel=0 note=60 velocity=127 time=0.019791666666666666\n",
      "note_on channel=0 note=61 velocity=127 time=0.014583333333333334\n",
      "note_off channel=0 note=61 velocity=127 time=0.019791666666666666\n",
      "note_on channel=0 note=60 velocity=127 time=0.030208333333333334\n",
      "note_on channel=0 note=61 velocity=127 time=0.016666666666666666\n",
      "note_off channel=0 note=60 velocity=127 time=0.003125\n",
      "note_off channel=0 note=61 velocity=127 time=0.016666666666666666\n",
      "note_on channel=0 note=62 velocity=127 time=0.011458333333333333\n",
      "note_off channel=0 note=62 velocity=127 time=0.019791666666666666\n",
      "note_on channel=0 note=61 velocity=127 time=0.015625\n",
      "note_on channel=0 note=60 velocity=127 time=0\n",
      "note_off channel=0 note=61 velocity=127 time=0.019791666666666666\n",
      "note_off channel=0 note=60 velocity=127 time=0\n",
      "note_on channel=0 note=61 velocity=127 time=0.046875\n",
      "note_on channel=0 note=60 velocity=127 time=0.017708333333333333\n",
      "note_off channel=0 note=61 velocity=127 time=0.0020833333333333333\n",
      "note_off channel=0 note=60 velocity=127 time=0.017708333333333333\n",
      "note_on channel=0 note=61 velocity=127 time=0.029166666666666667\n",
      "note_off channel=0 note=61 velocity=127 time=0.019791666666666666\n",
      "note_on channel=0 note=60 velocity=127 time=0.014583333333333334\n",
      "note_off channel=0 note=60 velocity=127 time=0.019791666666666666\n",
      "note_on channel=0 note=61 velocity=127 time=0.0125\n",
      "note_off channel=0 note=61 velocity=127 time=0.019791666666666666\n",
      "note_on channel=0 note=62 velocity=127 time=0.014583333333333334\n",
      "note_on channel=0 note=60 velocity=127 time=0.017708333333333333\n",
      "note_off channel=0 note=62 velocity=127 time=0.0020833333333333333\n",
      "note_on channel=0 note=61 velocity=127 time=0.0125\n",
      "note_off channel=0 note=60 velocity=127 time=0.005208333333333333\n",
      "note_off channel=0 note=61 velocity=127 time=0.014583333333333334\n",
      "note_on channel=0 note=61 velocity=127 time=0.046875\n",
      "note_on channel=0 note=60 velocity=127 time=0.003125\n",
      "note_off channel=0 note=61 velocity=127 time=0.017708333333333333\n",
      "note_off channel=0 note=60 velocity=127 time=0.003125\n",
      "note_on channel=0 note=61 velocity=127 time=0.04479166666666667\n",
      "note_off channel=0 note=61 velocity=127 time=0.019791666666666666\n",
      "note_on channel=0 note=60 velocity=127 time=0\n",
      "note_off channel=0 note=60 velocity=127 time=0.019791666666666666\n",
      "note_on channel=0 note=61 velocity=127 time=0.027083333333333334\n",
      "note_off channel=0 note=61 velocity=127 time=0.019791666666666666\n",
      "note_on channel=0 note=60 velocity=127 time=0.017708333333333333\n",
      "note_on channel=0 note=62 velocity=127 time=0\n",
      "note_off channel=0 note=60 velocity=127 time=0.019791666666666666\n",
      "note_off channel=0 note=62 velocity=127 time=0\n",
      "note_on channel=0 note=61 velocity=127 time=0.009375\n",
      "note_off channel=0 note=61 velocity=127 time=0.019791666666666666\n",
      "note_on channel=0 note=60 velocity=127 time=0.034375\n",
      "\u001b[91m [DEBUG] > \u001b[0m\n",
      " |>  to_array: msg.time > max_t; t, n\n",
      " |>  3.0114583333333345\n",
      " |>  150\n",
      "note_on channel=0 note=62 velocity=127 time=0.022916666666666665\n",
      "note_on channel=0 note=60 velocity=127 time=0.011458333333333333\n",
      "note_off channel=0 note=62 velocity=127 time=0.009375\n",
      "note_off channel=0 note=60 velocity=127 time=0.011458333333333333\n",
      "note_on channel=0 note=61 velocity=127 time=0.02395833333333333\n",
      "note_on channel=0 note=62 velocity=127 time=0.011458333333333333\n",
      "note_off channel=0 note=61 velocity=127 time=0.008333333333333333\n",
      "note_off channel=0 note=62 velocity=127 time=0.011458333333333333\n",
      "note_on channel=0 note=60 velocity=127 time=0.021875\n",
      "note_off channel=0 note=60 velocity=127 time=0.019791666666666666\n",
      "note_on channel=0 note=62 velocity=127 time=0.005208333333333333\n",
      "note_on channel=0 note=61 velocity=127 time=0.013541666666666667\n",
      "note_off channel=0 note=62 velocity=127 time=0.00625\n",
      "note_off channel=0 note=61 velocity=127 time=0.013541666666666667\n",
      "note_on channel=0 note=62 velocity=127 time=0.03333333333333333\n",
      "note_on channel=0 note=60 velocity=127 time=0.005208333333333333\n",
      "note_off channel=0 note=62 velocity=127 time=0.014583333333333334\n",
      "note_off channel=0 note=60 velocity=127 time=0.005208333333333333\n",
      "note_on channel=0 note=61 velocity=127 time=0.013541666666666667\n",
      "note_off channel=0 note=61 velocity=127 time=0.019791666666666666\n",
      "note_on channel=0 note=62 velocity=127 time=0.008333333333333333\n",
      "note_off channel=0 note=62 velocity=127 time=0.019791666666666666\n",
      "note_on channel=0 note=60 velocity=127 time=0.015625\n",
      "note_off channel=0 note=60 velocity=127 time=0.019791666666666666\n",
      "note_on channel=0 note=61 velocity=127 time=0.008333333333333333\n",
      "note_on channel=0 note=62 velocity=127 time=0.003125\n",
      "note_off channel=0 note=61 velocity=127 time=0.017708333333333333\n",
      "note_off channel=0 note=62 velocity=127 time=0.003125\n",
      "note_on channel=0 note=60 velocity=127 time=0.04583333333333333\n",
      "note_on channel=0 note=62 velocity=127 time=0.0010416666666666667\n",
      "note_off channel=0 note=60 velocity=127 time=0.01875\n",
      "note_off channel=0 note=62 velocity=127 time=0.0010416666666666667\n",
      "note_on channel=0 note=61 velocity=127 time=0.0020833333333333333\n",
      "note_off channel=0 note=61 velocity=127 time=0.019791666666666666\n",
      "note_on channel=0 note=62 velocity=127 time=0.02395833333333333\n",
      "note_off channel=0 note=62 velocity=127 time=0.019791666666666666\n",
      "note_on channel=0 note=60 velocity=127 time=0.009375\n",
      "note_on channel=0 note=61 velocity=127 time=0.01875\n",
      "note_off channel=0 note=60 velocity=127 time=0.0010416666666666667\n",
      "note_on channel=0 note=62 velocity=127 time=0.017708333333333333\n",
      "note_off channel=0 note=61 velocity=127 time=0.0010416666666666667\n",
      "note_off channel=0 note=62 velocity=127 time=0.01875\n",
      "note_on channel=0 note=60 velocity=127 time=0.03958333333333333\n",
      "note_on channel=0 note=62 velocity=127 time=0.007291666666666667\n",
      "note_on channel=0 note=61 velocity=127 time=0.00625\n",
      "note_off channel=0 note=60 velocity=127 time=0.00625\n",
      "note_off channel=0 note=62 velocity=127 time=0.007291666666666667\n",
      "note_off channel=0 note=61 velocity=127 time=0.00625\n",
      "note_on channel=0 note=62 velocity=127 time=0.040625\n",
      "note_off channel=0 note=62 velocity=127 time=0.019791666666666666\n",
      "note_on channel=0 note=60 velocity=127 time=0.003125\n",
      "note_on channel=0 note=61 velocity=127 time=0.008333333333333333\n",
      "note_off channel=0 note=60 velocity=127 time=0.011458333333333333\n",
      "note_off channel=0 note=61 velocity=127 time=0.008333333333333333\n",
      "note_on channel=0 note=62 velocity=127 time=0.015625\n",
      "note_off channel=0 note=62 velocity=127 time=0.019791666666666666\n",
      "note_on channel=0 note=60 velocity=127 time=0.034375\n",
      "note_on channel=0 note=61 velocity=127 time=0.003125\n",
      "note_on channel=0 note=62 velocity=127 time=0.010416666666666666\n",
      "note_off channel=0 note=60 velocity=127 time=0.007291666666666667\n",
      "note_off channel=0 note=61 velocity=127 time=0.003125\n",
      "note_off channel=0 note=62 velocity=127 time=0.010416666666666666\n",
      "note_on channel=0 note=62 velocity=127 time=0.046875\n",
      "note_on channel=0 note=61 velocity=127 time=0.015625\n",
      "note_on channel=0 note=60 velocity=127 time=0.0020833333333333333\n",
      "note_off channel=0 note=62 velocity=127 time=0.003125\n",
      "note_off channel=0 note=61 velocity=127 time=0.015625\n",
      "note_off channel=0 note=60 velocity=127 time=0.0020833333333333333\n",
      "note_on channel=0 note=62 velocity=127 time=0.029166666666666667\n",
      "note_off channel=0 note=62 velocity=127 time=0.019791666666666666\n",
      "note_on channel=0 note=61 velocity=127 time=0.020833333333333332\n",
      "note_on channel=0 note=60 velocity=127 time=0.007291666666666667\n",
      "note_off channel=0 note=61 velocity=127 time=0.0125\n",
      "note_on channel=0 note=62 velocity=127 time=0.00625\n",
      "note_off channel=0 note=60 velocity=127 time=0.0010416666666666667\n",
      "note_off channel=0 note=62 velocity=127 time=0.01875\n",
      "note_on channel=0 note=61 velocity=127 time=0.04583333333333333\n",
      "note_on channel=0 note=62 velocity=127 time=0.0010416666666666667\n",
      "note_on channel=0 note=60 velocity=127 time=0.011458333333333333\n",
      "note_off channel=0 note=61 velocity=127 time=0.008333333333333333\n",
      "note_off channel=0 note=62 velocity=127 time=0.0010416666666666667\n",
      "note_off channel=0 note=60 velocity=127 time=0.011458333333333333\n",
      "note_on channel=0 note=62 velocity=127 time=0.035416666666666666\n",
      "note_off channel=0 note=62 velocity=127 time=0.019791666666666666\n",
      "note_on channel=0 note=61 velocity=127 time=0.004166666666666667\n",
      "note_on channel=0 note=60 velocity=127 time=0.017708333333333333\n",
      "note_off channel=0 note=61 velocity=127 time=0.003125\n",
      "note_off channel=0 note=60 velocity=127 time=0.017708333333333333\n",
      "note_on channel=0 note=62 velocity=127 time=0.005208333333333333\n",
      "note_off channel=0 note=62 velocity=127 time=0.019791666666666666\n",
      "note_on channel=0 note=61 velocity=127 time=0.030208333333333334\n",
      "note_on channel=0 note=62 velocity=127 time=0.016666666666666666\n",
      "note_off channel=0 note=61 velocity=127 time=0.003125\n",
      "note_on channel=0 note=60 velocity=127 time=0.0020833333333333333\n",
      "note_off channel=0 note=62 velocity=127 time=0.014583333333333334\n",
      "note_off channel=0 note=60 velocity=127 time=0.005208333333333333\n",
      "note_on channel=0 note=62 velocity=127 time=0.041666666666666664\n",
      "note_on channel=0 note=61 velocity=127 time=0.008333333333333333\n",
      "note_off channel=0 note=62 velocity=127 time=0.011458333333333333\n",
      "note_off channel=0 note=61 velocity=127 time=0.008333333333333333\n",
      "note_on channel=0 note=60 velocity=127 time=0.007291666666666667\n",
      "note_off channel=0 note=60 velocity=127 time=0.019791666666666666\n",
      "note_on channel=0 note=62 velocity=127 time=0.011458333333333333\n",
      "note_off channel=0 note=62 velocity=127 time=0.019791666666666666\n",
      "note_on channel=0 note=61 velocity=127 time=0.013541666666666667\n",
      "note_off channel=0 note=61 velocity=127 time=0.019791666666666666\n",
      "note_on channel=0 note=60 velocity=127 time=0.0125\n",
      "note_on channel=0 note=62 velocity=127 time=0.0010416666666666667\n",
      "note_off channel=0 note=60 velocity=127 time=0.019791666666666666\n",
      "note_off channel=0 note=62 velocity=127 time=0.0010416666666666667\n",
      "note_on channel=0 note=61 velocity=127 time=0.03958333333333333\n",
      "note_on channel=0 note=62 velocity=127 time=0.008333333333333333\n",
      "note_off channel=0 note=61 velocity=127 time=0.0125\n",
      "note_off channel=0 note=62 velocity=127 time=0.008333333333333333\n",
      "note_on channel=0 note=60 velocity=127 time=0.009375\n",
      "note_off channel=0 note=60 velocity=127 time=0.019791666666666666\n",
      "note_on channel=0 note=62 velocity=127 time=0.017708333333333333\n",
      "note_on channel=0 note=61 velocity=127 time=0.017708333333333333\n",
      "note_off channel=0 note=62 velocity=127 time=0.0020833333333333333\n",
      "note_off channel=0 note=61 velocity=127 time=0.017708333333333333\n",
      "note_on channel=0 note=60 velocity=127 time=0.022916666666666665\n",
      "note_on channel=0 note=62 velocity=127 time=0.00625\n",
      "note_off channel=0 note=60 velocity=127 time=0.013541666666666667\n",
      "note_off channel=0 note=62 velocity=127 time=0.00625\n",
      "note_on channel=0 note=61 velocity=127 time=0.022916666666666665\n",
      "note_off channel=0 note=61 velocity=127 time=0.019791666666666666\n",
      "note_on channel=0 note=62 velocity=127 time=0.004166666666666667\n",
      "note_off channel=0 note=62 velocity=127 time=0.019791666666666666\n",
      "note_on channel=0 note=60 velocity=127 time=0.004166666666666667\n",
      "note_off channel=0 note=60 velocity=127 time=0.019791666666666666\n",
      "note_on channel=0 note=62 velocity=127 time=0.022916666666666665\n",
      "note_on channel=0 note=61 velocity=127 time=0.0010416666666666667\n",
      "note_off channel=0 note=62 velocity=127 time=0.01875\n",
      "note_off channel=0 note=61 velocity=127 time=0.0010416666666666667\n",
      "note_on channel=0 note=60 velocity=127 time=0.03333333333333333\n",
      "note_on channel=0 note=62 velocity=127 time=0.0125\n",
      "note_off channel=0 note=60 velocity=127 time=0.007291666666666667\n",
      "note_off channel=0 note=62 velocity=127 time=0.0125\n",
      "note_on channel=0 note=61 velocity=127 time=0.00625\n",
      "note_off channel=0 note=61 velocity=127 time=0.019791666666666666\n",
      "note_on channel=0 note=62 velocity=127 time=0.020833333333333332\n",
      "note_on channel=0 note=60 velocity=127 time=0.017708333333333333\n",
      "note_off channel=0 note=62 velocity=127 time=0.0020833333333333333\n",
      "note_off channel=0 note=60 velocity=127 time=0.017708333333333333\n",
      "note_on channel=0 note=61 velocity=127 time=0.014583333333333334\n",
      "note_on channel=0 note=62 velocity=127 time=0.014583333333333334\n",
      "note_off channel=0 note=61 velocity=127 time=0.005208333333333333\n",
      "note_off channel=0 note=62 velocity=127 time=0.014583333333333334\n",
      "note_on channel=0 note=60 velocity=127 time=0.028125\n",
      "note_on channel=0 note=62 velocity=127 time=0.01875\n",
      "note_off channel=0 note=60 velocity=127 time=0.0010416666666666667\n",
      "note_on channel=0 note=61 velocity=127 time=0.009375\n",
      "note_off channel=0 note=62 velocity=127 time=0.009375\n",
      "note_off channel=0 note=61 velocity=127 time=0.010416666666666666\n",
      "note_on channel=0 note=62 velocity=127 time=0.036458333333333336\n",
      "note_on channel=0 note=60 velocity=127 time=0.011458333333333333\n",
      "note_off channel=0 note=62 velocity=127 time=0.008333333333333333\n",
      "note_off channel=0 note=60 velocity=127 time=0.011458333333333333\n",
      "note_on channel=0 note=61 velocity=127 time=0.004166666666666667\n",
      "note_off channel=0 note=61 velocity=127 time=0.019791666666666666\n",
      "note_on channel=0 note=62 velocity=127 time=0.011458333333333333\n",
      "note_off channel=0 note=62 velocity=127 time=0.019791666666666666\n",
      "note_on channel=0 note=60 velocity=127 time=0.021875\n",
      "note_on channel=0 note=61 velocity=127 time=0.01875\n",
      "note_off channel=0 note=60 velocity=127 time=0.0010416666666666667\n",
      "note_on channel=0 note=62 velocity=127 time=0.005208333333333333\n",
      "note_off channel=0 note=61 velocity=127 time=0.014583333333333334\n",
      "note_off channel=0 note=62 velocity=127 time=0.00625\n",
      "note_on channel=0 note=62 velocity=127 time=0.046875\n",
      "note_on channel=0 note=60 velocity=127 time=0.00625\n",
      "note_on channel=0 note=61 velocity=127 time=0.013541666666666667\n",
      "note_off channel=0 note=62 velocity=127 time=0\n",
      "note_off channel=0 note=60 velocity=127 time=0.00625\n",
      "note_off channel=0 note=61 velocity=127 time=0.013541666666666667\n",
      "note_on channel=0 note=62 velocity=127 time=0.027083333333333334\n",
      "note_off channel=0 note=62 velocity=127 time=0.019791666666666666\n",
      "note_on channel=0 note=60 velocity=127 time=0.016666666666666666\n",
      "note_on channel=0 note=61 velocity=127 time=0.008333333333333333\n",
      "note_off channel=0 note=60 velocity=127 time=0.011458333333333333\n",
      "note_off channel=0 note=61 velocity=127 time=0.008333333333333333\n",
      "note_on channel=0 note=62 velocity=127 time=0.0020833333333333333\n",
      "note_off channel=0 note=62 velocity=127 time=0.019791666666666666\n",
      "note_on channel=0 note=60 velocity=127 time=0.046875\n",
      "note_on channel=0 note=62 velocity=127 time=0\n",
      "note_on channel=0 note=61 velocity=127 time=0.003125\n",
      "note_off channel=0 note=60 velocity=127 time=0.016666666666666666\n",
      "note_off channel=0 note=62 velocity=127 time=0\n",
      "note_off channel=0 note=61 velocity=127 time=0.003125\n",
      "note_on channel=0 note=62 velocity=127 time=0.04375\n",
      "note_off channel=0 note=62 velocity=127 time=0.019791666666666666\n",
      "note_on channel=0 note=61 velocity=127 time=0.008333333333333333\n",
      "note_on channel=0 note=60 velocity=127 time=0.0010416666666666667\n",
      "note_off channel=0 note=61 velocity=127 time=0.01875\n",
      "note_off channel=0 note=60 velocity=127 time=0.0010416666666666667\n",
      "note_on channel=0 note=62 velocity=127 time=0.016666666666666666\n",
      "note_off channel=0 note=62 velocity=127 time=0.019791666666666666\n",
      "note_on channel=0 note=61 velocity=127 time=0.034375\n",
      "note_on channel=0 note=60 velocity=127 time=0.00625\n",
      "note_on channel=0 note=62 velocity=127 time=0.00625\n",
      "note_off channel=0 note=61 velocity=127 time=0.007291666666666667\n",
      "note_off channel=0 note=60 velocity=127 time=0.00625\n",
      "note_off channel=0 note=62 velocity=127 time=0.00625\n",
      "note_on channel=0 note=62 velocity=127 time=0.046875\n",
      "note_on channel=0 note=61 velocity=127 time=0.0125\n",
      "note_off channel=0 note=62 velocity=127 time=0.007291666666666667\n",
      "note_on channel=0 note=60 velocity=127 time=0.004166666666666667\n",
      "note_off channel=0 note=61 velocity=127 time=0.008333333333333333\n",
      "note_off channel=0 note=60 velocity=127 time=0.011458333333333333\n",
      "note_on channel=0 note=62 velocity=127 time=0.022916666666666665\n",
      "note_off channel=0 note=62 velocity=127 time=0.019791666666666666\n",
      "note_on channel=0 note=61 velocity=127 time=0.017708333333333333\n",
      "note_on channel=0 note=60 velocity=127 time=0.016666666666666666\n",
      "note_off channel=0 note=61 velocity=127 time=0.003125\n",
      "note_on channel=0 note=62 velocity=127 time=0.009375\n",
      "note_off channel=0 note=60 velocity=127 time=0.007291666666666667\n",
      "note_off channel=0 note=62 velocity=127 time=0.0125\n",
      "note_on channel=0 note=61 velocity=127 time=0.04375\n",
      "\u001b[91m [DEBUG] > \u001b[0m\n",
      " |>  to_array: msg.time > max_t; t, n\n",
      " |>  3.029166666666668\n",
      " |>  150\n",
      "note_on channel=0 note=61 velocity=127 time=0.008333333333333333\n",
      "note_on channel=0 note=62 velocity=127 time=0.014583333333333334\n",
      "note_off channel=0 note=61 velocity=127 time=0.005208333333333333\n",
      "note_off channel=0 note=62 velocity=127 time=0.014583333333333334\n",
      "note_on channel=0 note=60 velocity=127 time=0.029166666666666667\n",
      "note_off channel=0 note=60 velocity=127 time=0.019791666666666666\n",
      "note_on channel=0 note=60 velocity=127 time=0.15208333333333332\n",
      "note_on channel=0 note=61 velocity=127 time=0.01875\n",
      "note_off channel=0 note=60 velocity=127 time=0.0010416666666666667\n",
      "note_on channel=0 note=62 velocity=127 time=0.007291666666666667\n",
      "note_off channel=0 note=61 velocity=127 time=0.011458333333333333\n",
      "note_off channel=0 note=62 velocity=127 time=0.008333333333333333\n",
      "note_on channel=0 note=60 velocity=127 time=0.12395833333333334\n",
      "note_off channel=0 note=60 velocity=127 time=0.019791666666666666\n",
      "note_on channel=0 note=61 velocity=127 time=0.08333333333333333\n",
      "note_on channel=0 note=62 velocity=127 time=0.0020833333333333333\n",
      "note_off channel=0 note=61 velocity=127 time=0.017708333333333333\n",
      "note_off channel=0 note=62 velocity=127 time=0.0020833333333333333\n",
      "note_on channel=0 note=60 velocity=127 time=0.046875\n",
      "note_off channel=0 note=60 velocity=127 time=0.019791666666666666\n",
      "note_on channel=0 note=60 velocity=127 time=0.15208333333333332\n",
      "note_on channel=0 note=62 velocity=127 time=0.010416666666666666\n",
      "note_on channel=0 note=61 velocity=127 time=0.005208333333333333\n",
      "note_off channel=0 note=60 velocity=127 time=0.005208333333333333\n",
      "note_off channel=0 note=62 velocity=127 time=0.010416666666666666\n",
      "note_off channel=0 note=61 velocity=127 time=0.005208333333333333\n",
      "note_on channel=0 note=60 velocity=127 time=0.13645833333333332\n",
      "note_off channel=0 note=60 velocity=127 time=0.019791666666666666\n",
      "note_on channel=0 note=62 velocity=127 time=0.06770833333333333\n",
      "note_on channel=0 note=61 velocity=127 time=0.011458333333333333\n",
      "note_off channel=0 note=62 velocity=127 time=0.008333333333333333\n"
     ]
    },
    {
     "name": "stdout",
     "output_type": "stream",
     "text": [
      "note_off channel=0 note=61 velocity=127 time=0.011458333333333333\n",
      "note_on channel=0 note=60 velocity=127 time=0.053125\n",
      "note_off channel=0 note=60 velocity=127 time=0.019791666666666666\n",
      "note_on channel=0 note=62 velocity=127 time=0.14479166666666665\n",
      "note_on channel=0 note=60 velocity=127 time=0.007291666666666667\n",
      "note_on channel=0 note=61 velocity=127 time=0.011458333333333333\n",
      "note_off channel=0 note=62 velocity=127 time=0.0020833333333333333\n",
      "note_off channel=0 note=60 velocity=127 time=0.007291666666666667\n",
      "note_off channel=0 note=61 velocity=127 time=0.011458333333333333\n",
      "note_on channel=0 note=60 velocity=127 time=0.140625\n",
      "note_off channel=0 note=60 velocity=127 time=0.019791666666666666\n",
      "note_on channel=0 note=62 velocity=127 time=0.05\n",
      "note_off channel=0 note=62 velocity=127 time=0.019791666666666666\n",
      "note_on channel=0 note=61 velocity=127 time=0.004166666666666667\n",
      "note_off channel=0 note=61 velocity=127 time=0.019791666666666666\n",
      "note_on channel=0 note=60 velocity=127 time=0.057291666666666664\n",
      "note_off channel=0 note=60 velocity=127 time=0.019791666666666666\n",
      "note_on channel=0 note=62 velocity=127 time=0.12708333333333333\n",
      "note_off channel=0 note=62 velocity=127 time=0.019791666666666666\n",
      "note_on channel=0 note=60 velocity=127 time=0.004166666666666667\n",
      "note_on channel=0 note=61 velocity=127 time=0.007291666666666667\n",
      "note_off channel=0 note=60 velocity=127 time=0.013541666666666667\n",
      "note_off channel=0 note=61 velocity=127 time=0.007291666666666667\n",
      "note_on channel=0 note=60 velocity=127 time=0.14479166666666665\n",
      "note_off channel=0 note=60 velocity=127 time=0.019791666666666666\n",
      "note_on channel=0 note=62 velocity=127 time=0.03333333333333333\n",
      "note_off channel=0 note=62 velocity=127 time=0.019791666666666666\n",
      "note_on channel=0 note=61 velocity=127 time=0.017708333333333333\n",
      "note_off channel=0 note=61 velocity=127 time=0.019791666666666666\n",
      "note_on channel=0 note=60 velocity=127 time=0.06041666666666667\n",
      "note_off channel=0 note=60 velocity=127 time=0.019791666666666666\n",
      "note_on channel=0 note=62 velocity=127 time=0.11041666666666666\n",
      "note_off channel=0 note=62 velocity=127 time=0.019791666666666666\n",
      "note_on channel=0 note=60 velocity=127 time=0.021875\n",
      "note_on channel=0 note=61 velocity=127 time=0.003125\n",
      "note_off channel=0 note=60 velocity=127 time=0.016666666666666666\n",
      "note_off channel=0 note=61 velocity=127 time=0.003125\n",
      "note_on channel=0 note=60 velocity=127 time=0.14895833333333333\n",
      "note_off channel=0 note=60 velocity=127 time=0.019791666666666666\n",
      "note_on channel=0 note=62 velocity=127 time=0.015625\n",
      "note_off channel=0 note=62 velocity=127 time=0.019791666666666666\n",
      "note_on channel=0 note=61 velocity=127 time=0.03125\n",
      "note_off channel=0 note=61 velocity=127 time=0.019791666666666666\n",
      "note_on channel=0 note=60 velocity=127 time=0.06458333333333333\n",
      "note_off channel=0 note=60 velocity=127 time=0.019791666666666666\n",
      "note_on channel=0 note=62 velocity=127 time=0.09270833333333334\n",
      "note_off channel=0 note=62 velocity=127 time=0.019791666666666666\n",
      "note_on channel=0 note=61 velocity=127 time=0.0375\n",
      "note_on channel=0 note=60 velocity=127 time=0.0010416666666666667\n",
      "note_off channel=0 note=61 velocity=127 time=0.01875\n",
      "note_off channel=0 note=60 velocity=127 time=0.0010416666666666667\n",
      "note_on channel=0 note=60 velocity=127 time=0.15208333333333332\n",
      "\u001b[91m [DEBUG] > \u001b[0m\n",
      " |>  to_array: msg.time > max_t; t, n\n",
      " |>  2.9906250000000014\n",
      " |>  150\n",
      "note_on channel=0 note=60 velocity=127 time=0.016666666666666666\n",
      "note_off channel=0 note=60 velocity=127 time=0.019791666666666666\n",
      "note_on channel=0 note=62 velocity=127 time=0.051041666666666666\n",
      "note_on channel=0 note=60 velocity=127 time=0.005208333333333333\n",
      "note_on channel=0 note=61 velocity=127 time=0.00625\n",
      "note_off channel=0 note=62 velocity=127 time=0.008333333333333333\n",
      "note_off channel=0 note=60 velocity=127 time=0.005208333333333333\n",
      "note_off channel=0 note=61 velocity=127 time=0.00625\n",
      "note_on channel=0 note=60 velocity=127 time=0.05\n",
      "note_on channel=0 note=62 velocity=127 time=0.015625\n",
      "note_off channel=0 note=60 velocity=127 time=0.004166666666666667\n",
      "note_off channel=0 note=62 velocity=127 time=0.015625\n",
      "note_on channel=0 note=61 velocity=127 time=0.003125\n",
      "note_off channel=0 note=61 velocity=127 time=0.019791666666666666\n",
      "note_on channel=0 note=60 velocity=127 time=0.017708333333333333\n",
      "note_off channel=0 note=60 velocity=127 time=0.019791666666666666\n",
      "note_on channel=0 note=62 velocity=127 time=0.016666666666666666\n",
      "note_off channel=0 note=62 velocity=127 time=0.019791666666666666\n",
      "note_on channel=0 note=61 velocity=127 time=0.014583333333333334\n",
      "note_on channel=0 note=60 velocity=127 time=0.005208333333333333\n",
      "note_off channel=0 note=61 velocity=127 time=0.014583333333333334\n",
      "note_off channel=0 note=60 velocity=127 time=0.005208333333333333\n",
      "note_on channel=0 note=62 velocity=127 time=0.0375\n",
      "note_on channel=0 note=60 velocity=127 time=0.01875\n",
      "note_off channel=0 note=62 velocity=127 time=0.0010416666666666667\n",
      "note_off channel=0 note=60 velocity=127 time=0.01875\n",
      "note_on channel=0 note=61 velocity=127 time=0.007291666666666667\n",
      "note_off channel=0 note=61 velocity=127 time=0.019791666666666666\n",
      "note_on channel=0 note=60 velocity=127 time=0.028125\n",
      "note_on channel=0 note=62 velocity=127 time=0.0020833333333333333\n",
      "note_off channel=0 note=60 velocity=127 time=0.017708333333333333\n",
      "note_off channel=0 note=62 velocity=127 time=0.0020833333333333333\n",
      "note_on channel=0 note=61 velocity=127 time=0.03854166666666667\n",
      "note_on channel=0 note=60 velocity=127 time=0.016666666666666666\n",
      "note_off channel=0 note=61 velocity=127 time=0.004166666666666667\n",
      "note_off channel=0 note=60 velocity=127 time=0.016666666666666666\n",
      "note_on channel=0 note=62 velocity=127 time=0.003125\n",
      "note_off channel=0 note=62 velocity=127 time=0.019791666666666666\n",
      "note_on channel=0 note=60 velocity=127 time=0.03333333333333333\n",
      "note_on channel=0 note=61 velocity=127 time=0.016666666666666666\n",
      "note_off channel=0 note=60 velocity=127 time=0.004166666666666667\n",
      "note_off channel=0 note=61 velocity=127 time=0.016666666666666666\n",
      "note_on channel=0 note=62 velocity=127 time=0.007291666666666667\n",
      "note_off channel=0 note=62 velocity=127 time=0.019791666666666666\n",
      "note_on channel=0 note=60 velocity=127 time=0.0125\n",
      "note_off channel=0 note=60 velocity=127 time=0.019791666666666666\n",
      "note_on channel=0 note=61 velocity=127 time=0.029166666666666667\n",
      "note_on channel=0 note=62 velocity=127 time=0.015625\n",
      "note_off channel=0 note=61 velocity=127 time=0.004166666666666667\n",
      "note_on channel=0 note=60 velocity=127 time=0.007291666666666667\n",
      "note_off channel=0 note=62 velocity=127 time=0.008333333333333333\n",
      "note_off channel=0 note=60 velocity=127 time=0.011458333333333333\n",
      "note_on channel=0 note=60 velocity=127 time=0.05625\n",
      "note_on channel=0 note=61 velocity=127 time=0.005208333333333333\n",
      "note_on channel=0 note=62 velocity=127 time=0.004166666666666667\n",
      "note_off channel=0 note=60 velocity=127 time=0.011458333333333333\n",
      "note_off channel=0 note=61 velocity=127 time=0.005208333333333333\n",
      "note_off channel=0 note=62 velocity=127 time=0.004166666666666667\n",
      "note_on channel=0 note=60 velocity=127 time=0.046875\n",
      "note_off channel=0 note=60 velocity=127 time=0.019791666666666666\n",
      "note_on channel=0 note=62 velocity=127 time=0.009375\n",
      "note_on channel=0 note=61 velocity=127 time=0.007291666666666667\n",
      "note_off channel=0 note=62 velocity=127 time=0.0125\n",
      "note_off channel=0 note=61 velocity=127 time=0.007291666666666667\n",
      "note_on channel=0 note=60 velocity=127 time=0.01875\n",
      "note_off channel=0 note=60 velocity=127 time=0.019791666666666666\n",
      "note_on channel=0 note=62 velocity=127 time=0.030208333333333334\n",
      "note_on channel=0 note=61 velocity=127 time=0.01875\n",
      "note_off channel=0 note=62 velocity=127 time=0.0010416666666666667\n",
      "note_on channel=0 note=60 velocity=127 time=0.005208333333333333\n",
      "note_off channel=0 note=61 velocity=127 time=0.013541666666666667\n",
      "note_off channel=0 note=60 velocity=127 time=0.00625\n",
      "note_on channel=0 note=62 velocity=127 time=0.051041666666666666\n",
      "note_on channel=0 note=60 velocity=127 time=0.004166666666666667\n",
      "note_off channel=0 note=62 velocity=127 time=0.015625\n",
      "note_off channel=0 note=60 velocity=127 time=0.004166666666666667\n",
      "note_on channel=0 note=61 velocity=127 time=0.00625\n",
      "note_off channel=0 note=61 velocity=127 time=0.019791666666666666\n",
      "note_on channel=0 note=60 velocity=127 time=0.030208333333333334\n",
      "note_on channel=0 note=62 velocity=127 time=0.016666666666666666\n",
      "note_off channel=0 note=60 velocity=127 time=0.004166666666666667\n",
      "note_off channel=0 note=62 velocity=127 time=0.016666666666666666\n",
      "note_on channel=0 note=61 velocity=127 time=0.022916666666666665\n",
      "note_on channel=0 note=60 velocity=127 time=0.017708333333333333\n",
      "note_off channel=0 note=61 velocity=127 time=0.003125\n",
      "note_off channel=0 note=60 velocity=127 time=0.017708333333333333\n",
      "note_on channel=0 note=62 velocity=127 time=0.016666666666666666\n",
      "note_off channel=0 note=62 velocity=127 time=0.019791666666666666\n",
      "note_on channel=0 note=60 velocity=127 time=0.01875\n",
      "note_on channel=0 note=61 velocity=127 time=0.014583333333333334\n",
      "note_off channel=0 note=60 velocity=127 time=0.005208333333333333\n",
      "note_off channel=0 note=61 velocity=127 time=0.014583333333333334\n",
      "note_on channel=0 note=62 velocity=127 time=0.022916666666666665\n",
      "note_on channel=0 note=60 velocity=127 time=0.017708333333333333\n",
      "note_off channel=0 note=62 velocity=127 time=0.0020833333333333333\n",
      "note_off channel=0 note=60 velocity=127 time=0.017708333333333333\n",
      "note_on channel=0 note=61 velocity=127 time=0.027083333333333334\n",
      "note_off channel=0 note=61 velocity=127 time=0.019791666666666666\n",
      "note_on channel=0 note=60 velocity=127 time=0.008333333333333333\n",
      "note_on channel=0 note=62 velocity=127 time=0.003125\n",
      "note_off channel=0 note=60 velocity=127 time=0.017708333333333333\n",
      "note_off channel=0 note=62 velocity=127 time=0.003125\n",
      "note_on channel=0 note=60 velocity=127 time=0.053125\n",
      "note_on channel=0 note=61 velocity=127 time=0.004166666666666667\n",
      "note_off channel=0 note=60 velocity=127 time=0.016666666666666666\n",
      "note_on channel=0 note=62 velocity=127 time=0.003125\n",
      "note_off channel=0 note=61 velocity=127 time=0\n",
      "note_off channel=0 note=62 velocity=127 time=0.019791666666666666\n",
      "note_on channel=0 note=60 velocity=127 time=0.03229166666666666\n",
      "note_off channel=0 note=60 velocity=127 time=0.019791666666666666\n",
      "note_on channel=0 note=61 velocity=127 time=0.016666666666666666\n",
      "note_on channel=0 note=62 velocity=127 time=0.008333333333333333\n",
      "note_off channel=0 note=61 velocity=127 time=0.011458333333333333\n",
      "note_off channel=0 note=62 velocity=127 time=0.008333333333333333\n",
      "note_on channel=0 note=60 velocity=127 time=0.011458333333333333\n",
      "note_off channel=0 note=60 velocity=127 time=0.019791666666666666\n",
      "note_on channel=0 note=62 velocity=127 time=0.04479166666666667\n",
      "note_on channel=0 note=61 velocity=127 time=0.003125\n",
      "note_on channel=0 note=60 velocity=127 time=0.007291666666666667\n",
      "note_off channel=0 note=62 velocity=127 time=0.009375\n",
      "note_off channel=0 note=61 velocity=127 time=0.003125\n",
      "note_off channel=0 note=60 velocity=127 time=0.007291666666666667\n",
      "note_on channel=0 note=60 velocity=127 time=0.05625\n",
      "note_on channel=0 note=62 velocity=127 time=0.009375\n",
      "note_off channel=0 note=60 velocity=127 time=0.010416666666666666\n",
      "note_on channel=0 note=61 velocity=127 time=0.005208333333333333\n",
      "note_off channel=0 note=62 velocity=127 time=0.005208333333333333\n",
      "note_off channel=0 note=61 velocity=127 time=0.015625\n",
      "note_on channel=0 note=60 velocity=127 time=0.03125\n",
      "note_off channel=0 note=60 velocity=127 time=0.019791666666666666\n",
      "note_on channel=0 note=62 velocity=127 time=0.010416666666666666\n",
      "note_off channel=0 note=62 velocity=127 time=0.019791666666666666\n",
      "note_on channel=0 note=61 velocity=127 time=0.007291666666666667\n",
      "note_on channel=0 note=60 velocity=127 time=0.01875\n",
      "note_off channel=0 note=61 velocity=127 time=0.0010416666666666667\n",
      "note_off channel=0 note=60 velocity=127 time=0.01875\n",
      "note_on channel=0 note=62 velocity=127 time=0.03125\n",
      "note_off channel=0 note=62 velocity=127 time=0.019791666666666666\n",
      "note_on channel=0 note=60 velocity=127 time=0.004166666666666667\n",
      "note_on channel=0 note=61 velocity=127 time=0.013541666666666667\n",
      "note_off channel=0 note=60 velocity=127 time=0.00625\n",
      "note_off channel=0 note=61 velocity=127 time=0.013541666666666667\n",
      "note_on channel=0 note=62 velocity=127 time=0.03854166666666667\n",
      "note_on channel=0 note=60 velocity=127 time=0.004166666666666667\n",
      "note_off channel=0 note=62 velocity=127 time=0.016666666666666666\n",
      "note_off channel=0 note=60 velocity=127 time=0.004166666666666667\n",
      "note_on channel=0 note=61 velocity=127 time=0.026041666666666668\n",
      "note_off channel=0 note=61 velocity=127 time=0.019791666666666666\n",
      "note_on channel=0 note=60 velocity=127 time=0.009375\n",
      "note_on channel=0 note=62 velocity=127 time=0.016666666666666666\n",
      "note_off channel=0 note=60 velocity=127 time=0.003125\n",
      "note_off channel=0 note=62 velocity=127 time=0.016666666666666666\n",
      "note_on channel=0 note=60 velocity=127 time=0.03854166666666667\n",
      "note_on channel=0 note=61 velocity=127 time=0.003125\n",
      "note_off channel=0 note=60 velocity=127 time=0.017708333333333333\n",
      "note_off channel=0 note=61 velocity=127 time=0.003125\n",
      "note_on channel=0 note=62 velocity=127 time=0.015625\n",
      "note_off channel=0 note=62 velocity=127 time=0.019791666666666666\n",
      "note_on channel=0 note=60 velocity=127 time=0.017708333333333333\n",
      "note_off channel=0 note=60 velocity=127 time=0.019791666666666666\n",
      "note_on channel=0 note=61 velocity=127 time=0.014583333333333334\n",
      "note_off channel=0 note=61 velocity=127 time=0.019791666666666666\n",
      "note_on channel=0 note=62 velocity=127 time=0.004166666666666667\n",
      "note_on channel=0 note=60 velocity=127 time=0.017708333333333333\n",
      "note_off channel=0 note=62 velocity=127 time=0.003125\n",
      "note_off channel=0 note=60 velocity=127 time=0.017708333333333333\n",
      "note_on channel=0 note=61 velocity=127 time=0.04791666666666666\n",
      "note_on channel=0 note=60 velocity=127 time=0.008333333333333333\n",
      "note_on channel=0 note=62 velocity=127 time=0.003125\n",
      "note_off channel=0 note=61 velocity=127 time=0.008333333333333333\n",
      "note_off channel=0 note=60 velocity=127 time=0.008333333333333333\n",
      "note_off channel=0 note=62 velocity=127 time=0.003125\n",
      "note_on channel=0 note=60 velocity=127 time=0.053125\n",
      "note_off channel=0 note=60 velocity=127 time=0.019791666666666666\n",
      "note_on channel=0 note=61 velocity=127 time=0.004166666666666667\n",
      "note_on channel=0 note=62 velocity=127 time=0\n",
      "note_off channel=0 note=61 velocity=127 time=0.019791666666666666\n",
      "note_off channel=0 note=62 velocity=127 time=0\n",
      "note_on channel=0 note=60 velocity=127 time=0.03229166666666666\n",
      "note_off channel=0 note=60 velocity=127 time=0.019791666666666666\n",
      "note_on channel=0 note=62 velocity=127 time=0.025\n",
      "note_on channel=0 note=61 velocity=127 time=0.011458333333333333\n",
      "note_off channel=0 note=62 velocity=127 time=0.008333333333333333\n",
      "note_on channel=0 note=60 velocity=127 time=0.011458333333333333\n",
      "note_off channel=0 note=61 velocity=127 time=0\n",
      "note_off channel=0 note=60 velocity=127 time=0.019791666666666666\n",
      "note_on channel=0 note=62 velocity=127 time=0.04583333333333333\n",
      "note_on channel=0 note=60 velocity=127 time=0.010416666666666666\n",
      "note_off channel=0 note=62 velocity=127 time=0.009375\n",
      "note_on channel=0 note=61 velocity=127 time=0.003125\n",
      "note_off channel=0 note=60 velocity=127 time=0.007291666666666667\n",
      "note_off channel=0 note=61 velocity=127 time=0.0125\n",
      "note_on channel=0 note=60 velocity=127 time=0.04375\n",
      "note_on channel=0 note=62 velocity=127 time=0.010416666666666666\n",
      "\u001b[91m [DEBUG] > \u001b[0m\n",
      " |>  to_array: msg.time > max_t; t, n\n",
      " |>  2.993750000000001\n",
      " |>  150\n",
      "note_on channel=0 note=60 velocity=127 time=0.009375\n",
      "note_off channel=0 note=60 velocity=127 time=0.019791666666666666\n",
      "note_on channel=0 note=61 velocity=127 time=0.020833333333333332\n",
      "note_on channel=0 note=62 velocity=127 time=0\n",
      "note_off channel=0 note=61 velocity=127 time=0.019791666666666666\n",
      "note_off channel=0 note=62 velocity=127 time=0\n",
      "note_on channel=0 note=60 velocity=127 time=0.011458333333333333\n",
      "note_off channel=0 note=60 velocity=127 time=0.019791666666666666\n",
      "note_on channel=0 note=62 velocity=127 time=0.019791666666666666\n",
      "note_on channel=0 note=61 velocity=127 time=0.015625\n",
      "note_off channel=0 note=62 velocity=127 time=0.004166666666666667\n",
      "note_on channel=0 note=60 velocity=127 time=0.013541666666666667\n",
      "note_off channel=0 note=61 velocity=127 time=0.0020833333333333333\n",
      "note_off channel=0 note=60 velocity=127 time=0.017708333333333333\n",
      "note_on channel=0 note=62 velocity=127 time=0.017708333333333333\n",
      "note_off channel=0 note=62 velocity=127 time=0.019791666666666666\n",
      "note_on channel=0 note=61 velocity=127 time=0.011458333333333333\n",
      "note_on channel=0 note=60 velocity=127 time=0.004166666666666667\n",
      "note_off channel=0 note=61 velocity=127 time=0.016666666666666666\n",
      "note_off channel=0 note=60 velocity=127 time=0.004166666666666667\n",
      "note_on channel=0 note=62 velocity=127 time=0.015625\n",
      "note_off channel=0 note=62 velocity=127 time=0.019791666666666666\n",
      "note_on channel=0 note=60 velocity=127 time=0.016666666666666666\n",
      "note_on channel=0 note=61 velocity=127 time=0.010416666666666666\n",
      "note_off channel=0 note=60 velocity=127 time=0.009375\n",
      "note_off channel=0 note=61 velocity=127 time=0.010416666666666666\n",
      "note_on channel=0 note=62 velocity=127 time=0.003125\n",
      "note_off channel=0 note=62 velocity=127 time=0.019791666666666666\n",
      "note_on channel=0 note=60 velocity=127 time=0.01875\n",
      "note_off channel=0 note=60 velocity=127 time=0.019791666666666666\n",
      "note_on channel=0 note=61 velocity=127 time=0.004166666666666667\n",
      "note_on channel=0 note=62 velocity=127 time=0.007291666666666667\n",
      "note_off channel=0 note=61 velocity=127 time=0.0125\n",
      "note_off channel=0 note=62 velocity=127 time=0.007291666666666667\n",
      "note_on channel=0 note=60 velocity=127 time=0.020833333333333332\n",
      "note_off channel=0 note=60 velocity=127 time=0.019791666666666666\n",
      "note_on channel=0 note=62 velocity=127 time=0.009375\n",
      "note_on channel=0 note=61 velocity=127 time=0.008333333333333333\n",
      "note_off channel=0 note=62 velocity=127 time=0.011458333333333333\n",
      "note_off channel=0 note=61 velocity=127 time=0.008333333333333333\n",
      "note_on channel=0 note=60 velocity=127 time=0.014583333333333334\n",
      "note_off channel=0 note=60 velocity=127 time=0.019791666666666666\n",
      "note_on channel=0 note=62 velocity=127 time=0.008333333333333333\n",
      "note_off channel=0 note=62 velocity=127 time=0.019791666666666666\n",
      "note_on channel=0 note=61 velocity=127 time=0.004166666666666667\n",
      "note_off channel=0 note=61 velocity=127 time=0.019791666666666666\n",
      "note_on channel=0 note=60 velocity=127 time=0.0010416666666666667\n",
      "note_off channel=0 note=60 velocity=127 time=0.019791666666666666\n",
      "note_on channel=0 note=62 velocity=127 time=0.00625\n",
      "note_off channel=0 note=62 velocity=127 time=0.019791666666666666\n",
      "note_on channel=0 note=61 velocity=127 time=0.019791666666666666\n",
      "note_on channel=0 note=60 velocity=127 time=0.007291666666666667\n",
      "note_off channel=0 note=61 velocity=127 time=0.013541666666666667\n",
      "note_off channel=0 note=60 velocity=127 time=0.007291666666666667\n",
      "note_on channel=0 note=62 velocity=127 time=0.004166666666666667\n",
      "note_off channel=0 note=62 velocity=127 time=0.019791666666666666\n",
      "note_on channel=0 note=60 velocity=127 time=0.028125\n",
      "note_on channel=0 note=61 velocity=127 time=0.007291666666666667\n",
      "note_off channel=0 note=60 velocity=127 time=0.0125\n",
      "note_on channel=0 note=62 velocity=127 time=0.0020833333333333333\n",
      "note_off channel=0 note=61 velocity=127 time=0.005208333333333333\n",
      "note_off channel=0 note=62 velocity=127 time=0.015625\n",
      "note_on channel=0 note=60 velocity=127 time=0.030208333333333334\n",
      "note_off channel=0 note=60 velocity=127 time=0.019791666666666666\n",
      "note_on channel=0 note=62 velocity=127 time=0\n",
      "note_on channel=0 note=61 velocity=127 time=0\n",
      "note_off channel=0 note=62 velocity=127 time=0.019791666666666666\n",
      "note_off channel=0 note=61 velocity=127 time=0\n",
      "note_on channel=0 note=60 velocity=127 time=0.03125\n",
      "note_on channel=0 note=62 velocity=127 time=0.01875\n",
      "note_off channel=0 note=60 velocity=127 time=0.0010416666666666667\n",
      "note_on channel=0 note=61 velocity=127 time=0.014583333333333334\n",
      "note_off channel=0 note=62 velocity=127 time=0.004166666666666667\n",
      "note_off channel=0 note=61 velocity=127 time=0.016666666666666666\n",
      "note_on channel=0 note=60 velocity=127 time=0.017708333333333333\n",
      "note_on channel=0 note=62 velocity=127 time=0.016666666666666666\n",
      "note_off channel=0 note=60 velocity=127 time=0.003125\n",
      "note_off channel=0 note=62 velocity=127 time=0.016666666666666666\n",
      "note_on channel=0 note=61 velocity=127 time=0.0125\n",
      "note_off channel=0 note=61 velocity=127 time=0.019791666666666666\n",
      "note_on channel=0 note=60 velocity=127 time=0.004166666666666667\n",
      "note_on channel=0 note=62 velocity=127 time=0.014583333333333334\n",
      "note_off channel=0 note=60 velocity=127 time=0.005208333333333333\n",
      "note_off channel=0 note=62 velocity=127 time=0.014583333333333334\n",
      "note_on channel=0 note=61 velocity=127 time=0.028125\n",
      "note_on channel=0 note=60 velocity=127 time=0.010416666666666666\n",
      "note_off channel=0 note=61 velocity=127 time=0.010416666666666666\n",
      "note_on channel=0 note=62 velocity=127 time=0.003125\n",
      "note_off channel=0 note=60 velocity=127 time=0.007291666666666667\n",
      "note_off channel=0 note=62 velocity=127 time=0.0125\n",
      "note_on channel=0 note=60 velocity=127 time=0.03958333333333333\n",
      "note_on channel=0 note=61 velocity=127 time=0.004166666666666667\n",
      "note_on channel=0 note=62 velocity=127 time=0.007291666666666667\n",
      "note_off channel=0 note=60 velocity=127 time=0.009375\n",
      "note_off channel=0 note=61 velocity=127 time=0.004166666666666667\n",
      "note_off channel=0 note=62 velocity=127 time=0.007291666666666667\n",
      "note_on channel=0 note=60 velocity=127 time=0.041666666666666664\n",
      "note_on channel=0 note=62 velocity=127 time=0.009375\n",
      "note_on channel=0 note=61 velocity=127 time=0.008333333333333333\n",
      "note_off channel=0 note=60 velocity=127 time=0.0020833333333333333\n",
      "note_off channel=0 note=62 velocity=127 time=0.009375\n",
      "note_off channel=0 note=61 velocity=127 time=0.008333333333333333\n",
      "note_on channel=0 note=60 velocity=127 time=0.035416666666666666\n",
      "note_on channel=0 note=62 velocity=127 time=0.007291666666666667\n",
      "note_off channel=0 note=60 velocity=127 time=0.0125\n",
      "note_off channel=0 note=62 velocity=127 time=0.007291666666666667\n",
      "note_on channel=0 note=61 velocity=127 time=0.004166666666666667\n",
      "note_off channel=0 note=61 velocity=127 time=0.019791666666666666\n",
      "note_on channel=0 note=60 velocity=127 time=0.020833333333333332\n",
      "note_on channel=0 note=62 velocity=127 time=0.005208333333333333\n",
      "note_off channel=0 note=60 velocity=127 time=0.014583333333333334\n",
      "note_off channel=0 note=62 velocity=127 time=0.005208333333333333\n",
      "note_on channel=0 note=61 velocity=127 time=0.019791666666666666\n",
      "note_off channel=0 note=61 velocity=127 time=0.019791666666666666\n",
      "note_on channel=0 note=60 velocity=127 time=0.007291666666666667\n",
      "note_on channel=0 note=62 velocity=127 time=0.003125\n",
      "note_off channel=0 note=60 velocity=127 time=0.016666666666666666\n",
      "note_off channel=0 note=62 velocity=127 time=0.003125\n",
      "note_on channel=0 note=61 velocity=127 time=0.036458333333333336\n",
      "note_on channel=0 note=60 velocity=127 time=0.013541666666666667\n",
      "note_on channel=0 note=62 velocity=127 time=0.0010416666666666667\n",
      "note_off channel=0 note=61 velocity=127 time=0.005208333333333333\n",
      "note_off channel=0 note=60 velocity=127 time=0.013541666666666667\n",
      "note_off channel=0 note=62 velocity=127 time=0.0010416666666666667\n",
      "note_on channel=0 note=62 velocity=127 time=0.051041666666666666\n",
      "note_on channel=0 note=60 velocity=127 time=0.0010416666666666667\n",
      "note_on channel=0 note=61 velocity=127 time=0.0010416666666666667\n",
      "note_off channel=0 note=62 velocity=127 time=0.01875\n",
      "note_off channel=0 note=60 velocity=127 time=0.0010416666666666667\n",
      "note_off channel=0 note=61 velocity=127 time=0.0010416666666666667\n",
      "note_on channel=0 note=62 velocity=127 time=0.05\n",
      "note_on channel=0 note=60 velocity=127 time=0.0020833333333333333\n",
      "note_on channel=0 note=61 velocity=127 time=0.014583333333333334\n",
      "note_off channel=0 note=62 velocity=127 time=0.003125\n",
      "note_off channel=0 note=60 velocity=127 time=0.0020833333333333333\n",
      "note_off channel=0 note=61 velocity=127 time=0.014583333333333334\n",
      "note_on channel=0 note=62 velocity=127 time=0.03333333333333333\n",
      "note_on channel=0 note=60 velocity=127 time=0.004166666666666667\n",
      "note_off channel=0 note=62 velocity=127 time=0.015625\n",
      "note_off channel=0 note=60 velocity=127 time=0.004166666666666667\n",
      "note_on channel=0 note=61 velocity=127 time=0.008333333333333333\n",
      "note_off channel=0 note=61 velocity=127 time=0.019791666666666666\n",
      "note_on channel=0 note=62 velocity=127 time=0.017708333333333333\n",
      "note_on channel=0 note=60 velocity=127 time=0.00625\n",
      "note_off channel=0 note=62 velocity=127 time=0.013541666666666667\n",
      "note_off channel=0 note=60 velocity=127 time=0.00625\n",
      "note_on channel=0 note=61 velocity=127 time=0.021875\n",
      "note_off channel=0 note=61 velocity=127 time=0.019791666666666666\n",
      "note_on channel=0 note=62 velocity=127 time=0.0020833333333333333\n",
      "note_on channel=0 note=60 velocity=127 time=0.008333333333333333\n",
      "note_off channel=0 note=62 velocity=127 time=0.011458333333333333\n",
      "note_off channel=0 note=60 velocity=127 time=0.008333333333333333\n",
      "note_on channel=0 note=61 velocity=127 time=0.036458333333333336\n",
      "note_on channel=0 note=62 velocity=127 time=0.00625\n",
      "note_on channel=0 note=60 velocity=127 time=0.010416666666666666\n",
      "note_off channel=0 note=61 velocity=127 time=0.003125\n",
      "note_off channel=0 note=62 velocity=127 time=0.00625\n",
      "note_off channel=0 note=60 velocity=127 time=0.010416666666666666\n",
      "note_on channel=0 note=62 velocity=127 time=0.040625\n",
      "note_on channel=0 note=61 velocity=127 time=0.009375\n",
      "note_on channel=0 note=60 velocity=127 time=0.0020833333333333333\n",
      "note_off channel=0 note=62 velocity=127 time=0.008333333333333333\n",
      "note_off channel=0 note=61 velocity=127 time=0.009375\n",
      "note_off channel=0 note=60 velocity=127 time=0.0020833333333333333\n",
      "note_on channel=0 note=62 velocity=127 time=0.03854166666666667\n",
      "note_on channel=0 note=60 velocity=127 time=0.013541666666666667\n",
      "note_off channel=0 note=62 velocity=127 time=0.00625\n",
      "note_on channel=0 note=61 velocity=127 time=0.005208333333333333\n",
      "note_off channel=0 note=60 velocity=127 time=0.008333333333333333\n",
      "note_off channel=0 note=61 velocity=127 time=0.011458333333333333\n",
      "note_on channel=0 note=62 velocity=127 time=0.026041666666666668\n",
      "note_on channel=0 note=60 velocity=127 time=0.015625\n",
      "note_off channel=0 note=62 velocity=127 time=0.004166666666666667\n",
      "note_off channel=0 note=60 velocity=127 time=0.015625\n",
      "note_on channel=0 note=61 velocity=127 time=0.005208333333333333\n",
      "note_off channel=0 note=61 velocity=127 time=0.019791666666666666\n",
      "note_on channel=0 note=62 velocity=127 time=0.009375\n",
      "note_on channel=0 note=60 velocity=127 time=0.017708333333333333\n",
      "note_off channel=0 note=62 velocity=127 time=0.0020833333333333333\n",
      "note_off channel=0 note=60 velocity=127 time=0.017708333333333333\n",
      "note_on channel=0 note=61 velocity=127 time=0.01875\n",
      "note_on channel=0 note=62 velocity=127 time=0.013541666666666667\n",
      "note_off channel=0 note=61 velocity=127 time=0.00625\n",
      "note_on channel=0 note=60 velocity=127 time=0.013541666666666667\n",
      "note_off channel=0 note=62 velocity=127 time=0\n",
      "note_off channel=0 note=60 velocity=127 time=0.019791666666666666\n",
      "note_on channel=0 note=62 velocity=127 time=0.03125\n",
      "note_on channel=0 note=61 velocity=127 time=0.0020833333333333333\n",
      "note_off channel=0 note=62 velocity=127 time=0.017708333333333333\n",
      "note_on channel=0 note=60 velocity=127 time=0.0010416666666666667\n",
      "note_off channel=0 note=61 velocity=127 time=0\n",
      "note_off channel=0 note=60 velocity=127 time=0.019791666666666666\n",
      "note_on channel=0 note=62 velocity=127 time=0.029166666666666667\n",
      "note_on channel=0 note=61 velocity=127 time=0.017708333333333333\n",
      "note_off channel=0 note=62 velocity=127 time=0.0020833333333333333\n",
      "note_on channel=0 note=60 velocity=127 time=0.003125\n",
      "note_off channel=0 note=61 velocity=127 time=0.014583333333333334\n",
      "note_off channel=0 note=60 velocity=127 time=0.00625\n",
      "note_on channel=0 note=62 velocity=127 time=0.027083333333333334\n",
      "note_off channel=0 note=62 velocity=127 time=0.019791666666666666\n",
      "note_on channel=0 note=60 velocity=127 time=0.005208333333333333\n",
      "note_on channel=0 note=61 velocity=127 time=0.008333333333333333\n",
      "note_off channel=0 note=60 velocity=127 time=0.011458333333333333\n",
      "note_off channel=0 note=61 velocity=127 time=0.008333333333333333\n",
      "note_on channel=0 note=62 velocity=127 time=0.017708333333333333\n",
      "note_off channel=0 note=62 velocity=127 time=0.019791666666666666\n",
      "note_on channel=0 note=60 velocity=127 time=0.007291666666666667\n",
      "note_off channel=0 note=60 velocity=127 time=0.019791666666666666\n",
      "note_on channel=0 note=61 velocity=127 time=0.0020833333333333333\n",
      "note_off channel=0 note=61 velocity=127 time=0.019791666666666666\n",
      "note_on channel=0 note=62 velocity=127 time=0.0020833333333333333\n",
      "note_off channel=0 note=62 velocity=127 time=0.019791666666666666\n",
      "note_on channel=0 note=60 velocity=127 time=0.009375\n",
      "note_off channel=0 note=60 velocity=127 time=0.019791666666666666\n",
      "note_on channel=0 note=61 velocity=127 time=0.015625\n",
      "note_on channel=0 note=62 velocity=127 time=0.00625\n",
      "note_off channel=0 note=61 velocity=127 time=0.014583333333333334\n",
      "note_off channel=0 note=62 velocity=127 time=0.00625\n",
      "note_on channel=0 note=60 velocity=127 time=0.011458333333333333\n",
      "note_off channel=0 note=60 velocity=127 time=0.019791666666666666\n",
      "note_on channel=0 note=62 velocity=127 time=0.019791666666666666\n",
      "note_on channel=0 note=61 velocity=127 time=0.010416666666666666\n",
      "note_off channel=0 note=62 velocity=127 time=0.010416666666666666\n",
      "note_off channel=0 note=61 velocity=127 time=0.010416666666666666\n",
      "note_on channel=0 note=60 velocity=127 time=0.003125\n",
      "note_off channel=0 note=60 velocity=127 time=0.019791666666666666\n",
      "note_on channel=0 note=62 velocity=127 time=0.017708333333333333\n",
      "note_off channel=0 note=62 velocity=127 time=0.019791666666666666\n",
      "note_on channel=0 note=61 velocity=127 time=0.00625\n",
      "note_on channel=0 note=60 velocity=127 time=0.009375\n",
      "note_off channel=0 note=61 velocity=127 time=0.011458333333333333\n",
      "note_off channel=0 note=60 velocity=127 time=0.009375\n",
      "note_on channel=0 note=62 velocity=127 time=0.015625\n",
      "note_off channel=0 note=62 velocity=127 time=0.019791666666666666\n",
      "note_on channel=0 note=60 velocity=127 time=0.016666666666666666\n",
      "note_on channel=0 note=61 velocity=127 time=0.005208333333333333\n",
      "\u001b[91m [DEBUG] > \u001b[0m\n",
      " |>  to_array: msg.time > max_t; t, n\n",
      " |>  2.9906250000000005\n",
      " |>  150\n"
     ]
    },
    {
     "name": "stdout",
     "output_type": "stream",
     "text": [
      "note_on channel=0 note=60 velocity=127 time=0.040625\n",
      "note_on channel=0 note=61 velocity=127 time=0.015625\n",
      "note_off channel=0 note=60 velocity=127 time=0.004166666666666667\n",
      "note_off channel=0 note=61 velocity=127 time=0.015625\n",
      "note_on channel=0 note=62 velocity=127 time=0.005208333333333333\n",
      "note_off channel=0 note=62 velocity=127 time=0.019791666666666666\n",
      "note_on channel=0 note=60 velocity=127 time=0.025\n",
      "note_on channel=0 note=61 velocity=127 time=0.0020833333333333333\n",
      "note_off channel=0 note=60 velocity=127 time=0.017708333333333333\n",
      "note_off channel=0 note=61 velocity=127 time=0.0020833333333333333\n",
      "note_on channel=0 note=62 velocity=127 time=0.027083333333333334\n",
      "note_off channel=0 note=62 velocity=127 time=0.019791666666666666\n",
      "note_on channel=0 note=61 velocity=127 time=0.00625\n",
      "note_on channel=0 note=60 velocity=127 time=0.011458333333333333\n",
      "note_off channel=0 note=61 velocity=127 time=0.009375\n",
      "note_off channel=0 note=60 velocity=127 time=0.011458333333333333\n",
      "note_on channel=0 note=62 velocity=127 time=0.036458333333333336\n",
      "note_on channel=0 note=61 velocity=127 time=0.005208333333333333\n",
      "note_off channel=0 note=62 velocity=127 time=0.015625\n",
      "note_off channel=0 note=61 velocity=127 time=0.005208333333333333\n",
      "note_on channel=0 note=60 velocity=127 time=0.004166666666666667\n",
      "note_off channel=0 note=60 velocity=127 time=0.019791666666666666\n",
      "note_on channel=0 note=61 velocity=127 time=0.028125\n",
      "note_on channel=0 note=62 velocity=127 time=0.016666666666666666\n",
      "note_off channel=0 note=61 velocity=127 time=0.003125\n",
      "note_off channel=0 note=62 velocity=127 time=0.016666666666666666\n",
      "note_on channel=0 note=60 velocity=127 time=0.0020833333333333333\n",
      "note_off channel=0 note=60 velocity=127 time=0.019791666666666666\n",
      "note_on channel=0 note=61 velocity=127 time=0.014583333333333334\n",
      "note_off channel=0 note=61 velocity=127 time=0.019791666666666666\n",
      "note_on channel=0 note=62 velocity=127 time=0.017708333333333333\n",
      "note_on channel=0 note=60 velocity=127 time=0.013541666666666667\n",
      "note_off channel=0 note=62 velocity=127 time=0.00625\n",
      "note_off channel=0 note=60 velocity=127 time=0.013541666666666667\n",
      "note_on channel=0 note=61 velocity=127 time=0.0010416666666666667\n",
      "note_off channel=0 note=61 velocity=127 time=0.019791666666666666\n",
      "note_on channel=0 note=62 velocity=127 time=0.03854166666666667\n",
      "note_on channel=0 note=60 velocity=127 time=0.00625\n",
      "note_on channel=0 note=61 velocity=127 time=0.007291666666666667\n",
      "note_off channel=0 note=62 velocity=127 time=0.00625\n",
      "note_off channel=0 note=60 velocity=127 time=0.00625\n",
      "note_off channel=0 note=61 velocity=127 time=0.007291666666666667\n",
      "note_on channel=0 note=61 velocity=127 time=0.053125\n",
      "note_on channel=0 note=60 velocity=127 time=0.00625\n",
      "note_on channel=0 note=62 velocity=127 time=0.0010416666666666667\n",
      "note_off channel=0 note=61 velocity=127 time=0.0125\n",
      "note_off channel=0 note=60 velocity=127 time=0.00625\n",
      "note_off channel=0 note=62 velocity=127 time=0.0010416666666666667\n",
      "note_on channel=0 note=61 velocity=127 time=0.04583333333333333\n",
      "note_on channel=0 note=60 velocity=127 time=0.01875\n",
      "note_off channel=0 note=61 velocity=127 time=0.0010416666666666667\n",
      "note_on channel=0 note=62 velocity=127 time=0.008333333333333333\n",
      "note_off channel=0 note=60 velocity=127 time=0.010416666666666666\n",
      "note_off channel=0 note=62 velocity=127 time=0.009375\n",
      "note_on channel=0 note=61 velocity=127 time=0.02395833333333333\n",
      "note_off channel=0 note=61 velocity=127 time=0.019791666666666666\n",
      "note_on channel=0 note=60 velocity=127 time=0.0125\n",
      "note_on channel=0 note=62 velocity=127 time=0.016666666666666666\n",
      "note_off channel=0 note=60 velocity=127 time=0.003125\n",
      "note_off channel=0 note=62 velocity=127 time=0.016666666666666666\n",
      "note_on channel=0 note=61 velocity=127 time=0.003125\n",
      "note_off channel=0 note=61 velocity=127 time=0.019791666666666666\n",
      "note_on channel=0 note=60 velocity=127 time=0.026041666666666668\n",
      "note_off channel=0 note=60 velocity=127 time=0.019791666666666666\n",
      "note_on channel=0 note=62 velocity=127 time=0.005208333333333333\n",
      "note_on channel=0 note=61 velocity=127 time=0.0020833333333333333\n",
      "note_off channel=0 note=62 velocity=127 time=0.017708333333333333\n",
      "note_off channel=0 note=61 velocity=127 time=0.0020833333333333333\n",
      "note_on channel=0 note=60 velocity=127 time=0.03958333333333333\n",
      "note_on channel=0 note=61 velocity=127 time=0.013541666666666667\n",
      "note_off channel=0 note=60 velocity=127 time=0.007291666666666667\n",
      "note_on channel=0 note=62 velocity=127 time=0.0125\n",
      "note_off channel=0 note=61 velocity=127 time=0.0010416666666666667\n",
      "note_off channel=0 note=62 velocity=127 time=0.019791666666666666\n",
      "note_on channel=0 note=61 velocity=127 time=0.03333333333333333\n",
      "note_on channel=0 note=60 velocity=127 time=0\n",
      "note_off channel=0 note=61 velocity=127 time=0.019791666666666666\n",
      "note_off channel=0 note=60 velocity=127 time=0\n",
      "note_on channel=0 note=62 velocity=127 time=0.019791666666666666\n",
      "note_off channel=0 note=62 velocity=127 time=0.019791666666666666\n",
      "note_on channel=0 note=61 velocity=127 time=0.0125\n",
      "note_on channel=0 note=60 velocity=127 time=0.013541666666666667\n",
      "note_off channel=0 note=61 velocity=127 time=0.00625\n",
      "note_off channel=0 note=60 velocity=127 time=0.013541666666666667\n",
      "note_on channel=0 note=62 velocity=127 time=0.028125\n",
      "note_on channel=0 note=61 velocity=127 time=0.011458333333333333\n",
      "note_off channel=0 note=62 velocity=127 time=0.009375\n",
      "note_off channel=0 note=61 velocity=127 time=0.011458333333333333\n",
      "note_on channel=0 note=60 velocity=127 time=0.007291666666666667\n",
      "note_off channel=0 note=60 velocity=127 time=0.019791666666666666\n",
      "note_on channel=0 note=61 velocity=127 time=0.026041666666666668\n",
      "note_on channel=0 note=62 velocity=127 time=0.010416666666666666\n",
      "note_off channel=0 note=61 velocity=127 time=0.009375\n",
      "note_off channel=0 note=62 velocity=127 time=0.010416666666666666\n",
      "note_on channel=0 note=60 velocity=127 time=0.010416666666666666\n",
      "note_off channel=0 note=60 velocity=127 time=0.019791666666666666\n",
      "note_on channel=0 note=61 velocity=127 time=0.0125\n",
      "note_off channel=0 note=61 velocity=127 time=0.019791666666666666\n",
      "note_on channel=0 note=62 velocity=127 time=0.011458333333333333\n",
      "note_off channel=0 note=62 velocity=127 time=0.019791666666666666\n",
      "note_on channel=0 note=60 velocity=127 time=0.003125\n",
      "note_on channel=0 note=61 velocity=127 time=0.01875\n",
      "note_off channel=0 note=60 velocity=127 time=0.0010416666666666667\n",
      "note_off channel=0 note=61 velocity=127 time=0.01875\n",
      "note_on channel=0 note=62 velocity=127 time=0.03229166666666666\n",
      "note_on channel=0 note=60 velocity=127 time=0.015625\n",
      "note_off channel=0 note=62 velocity=127 time=0.005208333333333333\n",
      "note_on channel=0 note=61 velocity=127 time=0\n",
      "note_off channel=0 note=60 velocity=127 time=0.014583333333333334\n",
      "note_off channel=0 note=61 velocity=127 time=0.005208333333333333\n",
      "note_on channel=0 note=61 velocity=127 time=0.053125\n",
      "note_on channel=0 note=62 velocity=127 time=0.0010416666666666667\n",
      "note_on channel=0 note=60 velocity=127 time=0.007291666666666667\n",
      "note_off channel=0 note=61 velocity=127 time=0.011458333333333333\n",
      "note_off channel=0 note=62 velocity=127 time=0.0010416666666666667\n",
      "note_off channel=0 note=60 velocity=127 time=0.007291666666666667\n",
      "note_on channel=0 note=61 velocity=127 time=0.04479166666666667\n",
      "note_off channel=0 note=61 velocity=127 time=0.019791666666666666\n",
      "note_on channel=0 note=60 velocity=127 time=0.0020833333333333333\n",
      "note_on channel=0 note=62 velocity=127 time=0\n",
      "note_off channel=0 note=60 velocity=127 time=0.019791666666666666\n",
      "note_off channel=0 note=62 velocity=127 time=0\n",
      "note_on channel=0 note=61 velocity=127 time=0.030208333333333334\n",
      "note_off channel=0 note=61 velocity=127 time=0.019791666666666666\n",
      "note_on channel=0 note=60 velocity=127 time=0.015625\n",
      "note_on channel=0 note=62 velocity=127 time=0.008333333333333333\n",
      "note_off channel=0 note=60 velocity=127 time=0.0125\n",
      "note_off channel=0 note=62 velocity=127 time=0.008333333333333333\n",
      "note_on channel=0 note=61 velocity=127 time=0.009375\n",
      "note_off channel=0 note=61 velocity=127 time=0.019791666666666666\n",
      "note_on channel=0 note=60 velocity=127 time=0.029166666666666667\n",
      "note_on channel=0 note=62 velocity=127 time=0.015625\n",
      "note_off channel=0 note=60 velocity=127 time=0.004166666666666667\n",
      "note_on channel=0 note=61 velocity=127 time=0.004166666666666667\n",
      "note_off channel=0 note=62 velocity=127 time=0.011458333333333333\n",
      "note_off channel=0 note=61 velocity=127 time=0.008333333333333333\n",
      "note_on channel=0 note=60 velocity=127 time=0.042708333333333334\n",
      "note_on channel=0 note=61 velocity=127 time=0.010416666666666666\n",
      "note_off channel=0 note=60 velocity=127 time=0.009375\n",
      "note_on channel=0 note=62 velocity=127 time=0.003125\n",
      "note_off channel=0 note=61 velocity=127 time=0.007291666666666667\n",
      "note_off channel=0 note=62 velocity=127 time=0.013541666666666667\n",
      "note_on channel=0 note=61 velocity=127 time=0.03958333333333333\n",
      "note_on channel=0 note=60 velocity=127 time=0.003125\n",
      "note_off channel=0 note=61 velocity=127 time=0.016666666666666666\n",
      "note_off channel=0 note=60 velocity=127 time=0.003125\n",
      "note_on channel=0 note=62 velocity=127 time=0.011458333333333333\n",
      "note_off channel=0 note=62 velocity=127 time=0.019791666666666666\n",
      "note_on channel=0 note=61 velocity=127 time=0.01875\n",
      "note_on channel=0 note=60 velocity=127 time=0.016666666666666666\n",
      "note_off channel=0 note=61 velocity=127 time=0.003125\n",
      "note_off channel=0 note=60 velocity=127 time=0.016666666666666666\n",
      "note_on channel=0 note=62 velocity=127 time=0.01875\n",
      "note_on channel=0 note=61 velocity=127 time=0.017708333333333333\n",
      "note_off channel=0 note=62 velocity=127 time=0.003125\n",
      "note_off channel=0 note=61 velocity=127 time=0.017708333333333333\n",
      "note_on channel=0 note=60 velocity=127 time=0.010416666666666666\n",
      "note_off channel=0 note=60 velocity=127 time=0.019791666666666666\n",
      "note_on channel=0 note=61 velocity=127 time=0.022916666666666665\n",
      "note_on channel=0 note=62 velocity=127 time=0.004166666666666667\n",
      "note_off channel=0 note=61 velocity=127 time=0.015625\n",
      "note_off channel=0 note=62 velocity=127 time=0.004166666666666667\n",
      "note_on channel=0 note=60 velocity=127 time=0.019791666666666666\n",
      "note_off channel=0 note=60 velocity=127 time=0.019791666666666666\n",
      "note_on channel=0 note=61 velocity=127 time=0.009375\n",
      "note_off channel=0 note=61 velocity=127 time=0.019791666666666666\n",
      "note_on channel=0 note=62 velocity=127 time=0.005208333333333333\n",
      "note_off channel=0 note=62 velocity=127 time=0.019791666666666666\n",
      "note_on channel=0 note=60 velocity=127 time=0.011458333333333333\n",
      "note_on channel=0 note=61 velocity=127 time=0.015625\n",
      "note_off channel=0 note=60 velocity=127 time=0.004166666666666667\n",
      "note_off channel=0 note=61 velocity=127 time=0.015625\n",
      "note_on channel=0 note=62 velocity=127 time=0.026041666666666668\n",
      "note_off channel=0 note=62 velocity=127 time=0.019791666666666666\n",
      "note_on channel=0 note=60 velocity=127 time=0.004166666666666667\n",
      "note_on channel=0 note=61 velocity=127 time=0.0020833333333333333\n",
      "note_off channel=0 note=60 velocity=127 time=0.017708333333333333\n",
      "note_off channel=0 note=61 velocity=127 time=0.0020833333333333333\n",
      "note_on channel=0 note=62 velocity=127 time=0.04791666666666666\n",
      "note_on channel=0 note=61 velocity=127 time=0.005208333333333333\n",
      "note_on channel=0 note=60 velocity=127 time=0.011458333333333333\n",
      "note_off channel=0 note=62 velocity=127 time=0.003125\n",
      "note_off channel=0 note=61 velocity=127 time=0.005208333333333333\n",
      "note_off channel=0 note=60 velocity=127 time=0.011458333333333333\n",
      "note_on channel=0 note=61 velocity=127 time=0.041666666666666664\n",
      "note_on channel=0 note=62 velocity=127 time=0.015625\n",
      "note_off channel=0 note=61 velocity=127 time=0.004166666666666667\n",
      "note_on channel=0 note=60 velocity=127 time=0.004166666666666667\n",
      "note_off channel=0 note=62 velocity=127 time=0.011458333333333333\n",
      "note_off channel=0 note=60 velocity=127 time=0.008333333333333333\n",
      "note_on channel=0 note=61 velocity=127 time=0.028125\n",
      "note_off channel=0 note=61 velocity=127 time=0.019791666666666666\n",
      "note_on channel=0 note=62 velocity=127 time=0.017708333333333333\n",
      "note_on channel=0 note=60 velocity=127 time=0.0010416666666666667\n",
      "note_off channel=0 note=62 velocity=127 time=0.01875\n",
      "note_off channel=0 note=60 velocity=127 time=0.0010416666666666667\n",
      "note_on channel=0 note=61 velocity=127 time=0.014583333333333334\n",
      "note_off channel=0 note=61 velocity=127 time=0.019791666666666666\n",
      "note_on channel=0 note=60 velocity=127 time=0.03125\n",
      "note_on channel=0 note=62 velocity=127 time=0.007291666666666667\n",
      "note_off channel=0 note=60 velocity=127 time=0.013541666666666667\n",
      "note_on channel=0 note=61 velocity=127 time=0.0010416666666666667\n",
      "note_off channel=0 note=62 velocity=127 time=0.005208333333333333\n",
      "note_off channel=0 note=61 velocity=127 time=0.014583333333333334\n",
      "note_on channel=0 note=60 velocity=127 time=0.04479166666666667\n",
      "note_on channel=0 note=61 velocity=127 time=0.007291666666666667\n",
      "note_on channel=0 note=62 velocity=127 time=0.007291666666666667\n",
      "note_off channel=0 note=60 velocity=127 time=0.005208333333333333\n",
      "note_off channel=0 note=61 velocity=127 time=0.007291666666666667\n",
      "note_off channel=0 note=62 velocity=127 time=0.007291666666666667\n",
      "note_on channel=0 note=61 velocity=127 time=0.04583333333333333\n",
      "note_on channel=0 note=60 velocity=127 time=0.00625\n",
      "note_off channel=0 note=61 velocity=127 time=0.014583333333333334\n",
      "note_off channel=0 note=60 velocity=127 time=0.00625\n",
      "\u001b[91m [DEBUG] > \u001b[0m\n",
      " |>  to_array: msg.time > max_t; t, n\n",
      " |>  2.99375\n",
      " |>  150\n",
      "note_on channel=0 note=61 velocity=127 time=0.029166666666666667\n",
      "note_on channel=0 note=62 velocity=127 time=0.009375\n",
      "note_off channel=0 note=61 velocity=127 time=0.011458333333333333\n",
      "note_off channel=0 note=62 velocity=127 time=0.009375\n",
      "note_on channel=0 note=60 velocity=127 time=0.016666666666666666\n",
      "note_off channel=0 note=60 velocity=127 time=0.019791666666666666\n",
      "note_on channel=0 note=61 velocity=127 time=0.05520833333333333\n",
      "note_on channel=0 note=60 velocity=127 time=0.015625\n",
      "note_off channel=0 note=61 velocity=127 time=0.004166666666666667\n",
      "note_on channel=0 note=62 velocity=127 time=0.0020833333333333333\n",
      "note_off channel=0 note=60 velocity=127 time=0.013541666666666667\n",
      "note_off channel=0 note=62 velocity=127 time=0.00625\n",
      "note_on channel=0 note=60 velocity=127 time=0.06458333333333333\n",
      "note_on channel=0 note=61 velocity=127 time=0.014583333333333334\n",
      "note_off channel=0 note=60 velocity=127 time=0.005208333333333333\n",
      "note_off channel=0 note=61 velocity=127 time=0.014583333333333334\n",
      "note_on channel=0 note=62 velocity=127 time=0.014583333333333334\n",
      "note_off channel=0 note=62 velocity=127 time=0.019791666666666666\n",
      "note_on channel=0 note=60 velocity=127 time=0.021875\n",
      "note_off channel=0 note=60 velocity=127 time=0.019791666666666666\n",
      "note_on channel=0 note=61 velocity=127 time=0.025\n",
      "note_off channel=0 note=61 velocity=127 time=0.019791666666666666\n",
      "note_on channel=0 note=60 velocity=127 time=0.026041666666666668\n",
      "note_on channel=0 note=62 velocity=127 time=0\n",
      "note_off channel=0 note=60 velocity=127 time=0.019791666666666666\n",
      "note_off channel=0 note=62 velocity=127 time=0\n",
      "note_on channel=0 note=61 velocity=127 time=0.05416666666666667\n",
      "note_on channel=0 note=60 velocity=127 time=0.015625\n",
      "note_off channel=0 note=61 velocity=127 time=0.004166666666666667\n",
      "note_off channel=0 note=60 velocity=127 time=0.015625\n",
      "note_on channel=0 note=62 velocity=127 time=0.022916666666666665\n",
      "note_off channel=0 note=62 velocity=127 time=0.019791666666666666\n",
      "note_on channel=0 note=60 velocity=127 time=0.028125\n",
      "note_on channel=0 note=61 velocity=127 time=0.013541666666666667\n",
      "note_off channel=0 note=60 velocity=127 time=0.00625\n",
      "note_off channel=0 note=61 velocity=127 time=0.013541666666666667\n",
      "note_on channel=0 note=62 velocity=127 time=0.052083333333333336\n",
      "note_on channel=0 note=60 velocity=127 time=0.005208333333333333\n",
      "note_off channel=0 note=62 velocity=127 time=0.014583333333333334\n",
      "note_off channel=0 note=60 velocity=127 time=0.005208333333333333\n",
      "note_on channel=0 note=61 velocity=127 time=0.02395833333333333\n",
      "note_off channel=0 note=61 velocity=127 time=0.019791666666666666\n",
      "note_on channel=0 note=60 velocity=127 time=0.027083333333333334\n",
      "note_off channel=0 note=60 velocity=127 time=0.019791666666666666\n",
      "note_on channel=0 note=62 velocity=127 time=0.017708333333333333\n",
      "note_off channel=0 note=62 velocity=127 time=0.019791666666666666\n",
      "note_on channel=0 note=61 velocity=127 time=0.016666666666666666\n",
      "note_on channel=0 note=60 velocity=127 time=0.016666666666666666\n",
      "note_off channel=0 note=61 velocity=127 time=0.003125\n",
      "note_off channel=0 note=60 velocity=127 time=0.016666666666666666\n",
      "note_on channel=0 note=62 velocity=127 time=0.06041666666666667\n",
      "note_on channel=0 note=60 velocity=127 time=0.010416666666666666\n",
      "note_off channel=0 note=62 velocity=127 time=0.009375\n",
      "note_on channel=0 note=61 velocity=127 time=0.004166666666666667\n",
      "note_off channel=0 note=60 velocity=127 time=0.00625\n",
      "note_off channel=0 note=61 velocity=127 time=0.013541666666666667\n",
      "note_on channel=0 note=60 velocity=127 time=0.057291666666666664\n",
      "note_off channel=0 note=60 velocity=127 time=0.019791666666666666\n",
      "note_on channel=0 note=62 velocity=127 time=0.011458333333333333\n",
      "note_on channel=0 note=61 velocity=127 time=0.011458333333333333\n",
      "note_off channel=0 note=62 velocity=127 time=0.008333333333333333\n",
      "note_off channel=0 note=61 velocity=127 time=0.011458333333333333\n",
      "note_on channel=0 note=60 velocity=127 time=0.027083333333333334\n",
      "note_off channel=0 note=60 velocity=127 time=0.019791666666666666\n",
      "note_on channel=0 note=61 velocity=127 time=0.053125\n",
      "note_on channel=0 note=62 velocity=127 time=0.0010416666666666667\n",
      "note_on channel=0 note=60 velocity=127 time=0.016666666666666666\n",
      "note_off channel=0 note=61 velocity=127 time=0.003125\n",
      "note_off channel=0 note=62 velocity=127 time=0.0010416666666666667\n",
      "note_off channel=0 note=60 velocity=127 time=0.016666666666666666\n",
      "note_on channel=0 note=60 velocity=127 time=0.07083333333333333\n",
      "note_on channel=0 note=61 velocity=127 time=0.0125\n",
      "note_off channel=0 note=60 velocity=127 time=0.007291666666666667\n",
      "note_on channel=0 note=62 velocity=127 time=0.00625\n",
      "note_off channel=0 note=61 velocity=127 time=0.00625\n",
      "note_off channel=0 note=62 velocity=127 time=0.013541666666666667\n",
      "note_on channel=0 note=60 velocity=127 time=0.04479166666666667\n",
      "note_off channel=0 note=60 velocity=127 time=0.019791666666666666\n",
      "note_on channel=0 note=61 velocity=127 time=0.022916666666666665\n",
      "note_off channel=0 note=61 velocity=127 time=0.019791666666666666\n",
      "note_on channel=0 note=62 velocity=127 time=0.00625\n",
      "note_off channel=0 note=62 velocity=127 time=0.019791666666666666\n",
      "note_on channel=0 note=60 velocity=127 time=0.0020833333333333333\n",
      "note_off channel=0 note=60 velocity=127 time=0.019791666666666666\n",
      "note_on channel=0 note=61 velocity=127 time=0.053125\n",
      "note_on channel=0 note=60 velocity=127 time=0.017708333333333333\n",
      "note_off channel=0 note=61 velocity=127 time=0.0020833333333333333\n",
      "note_off channel=0 note=60 velocity=127 time=0.017708333333333333\n",
      "note_on channel=0 note=62 velocity=127 time=0\n",
      "note_off channel=0 note=62 velocity=127 time=0.019791666666666666\n",
      "note_on channel=0 note=60 velocity=127 time=0.05\n",
      "note_on channel=0 note=61 velocity=127 time=0.0125\n",
      "note_off channel=0 note=60 velocity=127 time=0.008333333333333333\n",
      "note_off channel=0 note=61 velocity=127 time=0.0125\n",
      "note_on channel=0 note=62 velocity=127 time=0.03125\n",
      "note_off channel=0 note=62 velocity=127 time=0.019791666666666666\n",
      "note_on channel=0 note=60 velocity=127 time=0.008333333333333333\n",
      "note_off channel=0 note=60 velocity=127 time=0.019791666666666666\n",
      "note_on channel=0 note=61 velocity=127 time=0.021875\n",
      "note_off channel=0 note=61 velocity=127 time=0.019791666666666666\n",
      "note_on channel=0 note=60 velocity=127 time=0.028125\n",
      "note_on channel=0 note=62 velocity=127 time=0.014583333333333334\n",
      "note_off channel=0 note=60 velocity=127 time=0.005208333333333333\n",
      "note_off channel=0 note=62 velocity=127 time=0.014583333333333334\n",
      "note_on channel=0 note=61 velocity=127 time=0.0375\n",
      "note_on channel=0 note=60 velocity=127 time=0.01875\n",
      "note_off channel=0 note=61 velocity=127 time=0.0010416666666666667\n",
      "note_off channel=0 note=60 velocity=127 time=0.01875\n",
      "note_on channel=0 note=62 velocity=127 time=0.0375\n",
      "note_off channel=0 note=62 velocity=127 time=0.019791666666666666\n",
      "note_on channel=0 note=60 velocity=127 time=0.013541666666666667\n",
      "note_on channel=0 note=61 velocity=127 time=0.011458333333333333\n",
      "note_off channel=0 note=60 velocity=127 time=0.008333333333333333\n",
      "note_off channel=0 note=61 velocity=127 time=0.011458333333333333\n",
      "note_on channel=0 note=60 velocity=127 time=0.059375\n",
      "note_on channel=0 note=62 velocity=127 time=0.009375\n",
      "note_off channel=0 note=60 velocity=127 time=0.010416666666666666\n",
      "note_off channel=0 note=62 velocity=127 time=0.009375\n",
      "note_on channel=0 note=61 velocity=127 time=0.0125\n",
      "note_off channel=0 note=61 velocity=127 time=0.019791666666666666\n",
      "note_on channel=0 note=60 velocity=127 time=0.029166666666666667\n",
      "note_off channel=0 note=60 velocity=127 time=0.019791666666666666\n",
      "note_on channel=0 note=62 velocity=127 time=0.03125\n",
      "note_on channel=0 note=61 velocity=127 time=0.019791666666666666\n",
      "note_off channel=0 note=62 velocity=127 time=0\n",
      "note_on channel=0 note=60 velocity=127 time=0.01875\n",
      "note_off channel=0 note=61 velocity=127 time=0.0010416666666666667\n",
      "note_off channel=0 note=60 velocity=127 time=0.01875\n",
      "note_on channel=0 note=60 velocity=127 time=0.07083333333333333\n",
      "note_on channel=0 note=62 velocity=127 time=0.003125\n",
      "note_on channel=0 note=61 velocity=127 time=0.007291666666666667\n",
      "note_off channel=0 note=60 velocity=127 time=0.009375\n",
      "note_off channel=0 note=62 velocity=127 time=0.003125\n",
      "note_off channel=0 note=61 velocity=127 time=0.007291666666666667\n",
      "note_on channel=0 note=60 velocity=127 time=0.06041666666666667\n",
      "note_off channel=0 note=60 velocity=127 time=0.019791666666666666\n",
      "note_on channel=0 note=61 velocity=127 time=0.020833333333333332\n",
      "note_on channel=0 note=62 velocity=127 time=0.005208333333333333\n",
      "note_off channel=0 note=61 velocity=127 time=0.014583333333333334\n",
      "note_off channel=0 note=62 velocity=127 time=0.005208333333333333\n",
      "note_on channel=0 note=60 velocity=127 time=0.025\n",
      "note_off channel=0 note=60 velocity=127 time=0.019791666666666666\n",
      "note_on channel=0 note=61 velocity=127 time=0.051041666666666666\n",
      "note_on channel=0 note=62 velocity=127 time=0.017708333333333333\n",
      "note_on channel=0 note=60 velocity=127 time=0.0020833333333333333\n",
      "note_off channel=0 note=61 velocity=127 time=0\n",
      "note_off channel=0 note=62 velocity=127 time=0.017708333333333333\n",
      "note_off channel=0 note=60 velocity=127 time=0.0020833333333333333\n",
      "note_on channel=0 note=60 velocity=127 time=0.07083333333333333\n",
      "note_on channel=0 note=61 velocity=127 time=0.010416666666666666\n",
      "note_off channel=0 note=60 velocity=127 time=0.009375\n",
      "note_off channel=0 note=61 velocity=127 time=0.010416666666666666\n",
      "note_on channel=0 note=62 velocity=127 time=0.010416666666666666\n",
      "note_off channel=0 note=62 velocity=127 time=0.019791666666666666\n",
      "note_on channel=0 note=60 velocity=127 time=0.030208333333333334\n",
      "note_off channel=0 note=60 velocity=127 time=0.019791666666666666\n",
      "note_on channel=0 note=61 velocity=127 time=0.020833333333333332\n",
      "note_off channel=0 note=61 velocity=127 time=0.019791666666666666\n",
      "note_on channel=0 note=62 velocity=127 time=0.022916666666666665\n",
      "note_on channel=0 note=60 velocity=127 time=0.008333333333333333\n",
      "note_off channel=0 note=62 velocity=127 time=0.0125\n",
      "note_off channel=0 note=60 velocity=127 time=0.008333333333333333\n",
      "\u001b[91m [DEBUG] > \u001b[0m\n",
      " |>  to_array: msg.time > max_t; t, n\n",
      " |>  2.995833333333335\n",
      " |>  150\n",
      "note_on channel=0 note=62 velocity=127 time=0.015625\n",
      "note_off channel=0 note=62 velocity=127 time=0.019791666666666666\n",
      "note_on channel=0 note=61 velocity=127 time=0.014583333333333334\n",
      "note_off channel=0 note=61 velocity=127 time=0.019791666666666666\n",
      "note_on channel=0 note=62 velocity=127 time=0.025\n",
      "note_off channel=0 note=62 velocity=127 time=0.019791666666666666\n",
      "note_on channel=0 note=61 velocity=127 time=0.03229166666666666\n",
      "note_off channel=0 note=61 velocity=127 time=0.019791666666666666\n",
      "note_on channel=0 note=62 velocity=127 time=0.008333333333333333\n",
      "note_off channel=0 note=62 velocity=127 time=0.019791666666666666\n",
      "note_on channel=0 note=60 velocity=127 time=0.022916666666666665\n",
      "note_off channel=0 note=60 velocity=127 time=0.019791666666666666\n",
      "note_on channel=0 note=61 velocity=127 time=0.00625\n",
      "note_on channel=0 note=62 velocity=127 time=0.010416666666666666\n",
      "note_off channel=0 note=61 velocity=127 time=0.009375\n",
      "note_off channel=0 note=62 velocity=127 time=0.010416666666666666\n",
      "note_on channel=0 note=62 velocity=127 time=0.06041666666666667\n",
      "note_on channel=0 note=61 velocity=127 time=0.00625\n",
      "note_off channel=0 note=62 velocity=127 time=0.013541666666666667\n",
      "note_off channel=0 note=61 velocity=127 time=0.00625\n",
      "note_on channel=0 note=62 velocity=127 time=0.053125\n",
      "note_off channel=0 note=62 velocity=127 time=0.019791666666666666\n",
      "note_on channel=0 note=61 velocity=127 time=0.004166666666666667\n",
      "note_off channel=0 note=61 velocity=127 time=0.019791666666666666\n",
      "note_on channel=0 note=60 velocity=127 time=0.008333333333333333\n",
      "note_off channel=0 note=60 velocity=127 time=0.019791666666666666\n",
      "note_on channel=0 note=62 velocity=127 time=0.008333333333333333\n",
      "note_off channel=0 note=62 velocity=127 time=0.019791666666666666\n",
      "note_on channel=0 note=61 velocity=127 time=0.020833333333333332\n",
      "note_off channel=0 note=61 velocity=127 time=0.019791666666666666\n",
      "note_on channel=0 note=62 velocity=127 time=0.01875\n",
      "note_off channel=0 note=62 velocity=127 time=0.019791666666666666\n",
      "note_on channel=0 note=61 velocity=127 time=0.03854166666666667\n",
      "note_off channel=0 note=61 velocity=127 time=0.019791666666666666\n",
      "note_on channel=0 note=62 velocity=127 time=0.0010416666666666667\n",
      "note_off channel=0 note=62 velocity=127 time=0.019791666666666666\n",
      "note_on channel=0 note=60 velocity=127 time=0.040625\n",
      "note_on channel=0 note=61 velocity=127 time=0.015625\n",
      "note_on channel=0 note=62 velocity=127 time=0.004166666666666667\n",
      "note_off channel=0 note=60 velocity=127 time=0\n",
      "note_off channel=0 note=61 velocity=127 time=0.015625\n",
      "note_off channel=0 note=62 velocity=127 time=0.004166666666666667\n",
      "note_on channel=0 note=62 velocity=127 time=0.06041666666666667\n",
      "note_on channel=0 note=61 velocity=127 time=0.0125\n",
      "note_off channel=0 note=62 velocity=127 time=0.007291666666666667\n",
      "note_off channel=0 note=61 velocity=127 time=0.0125\n",
      "note_on channel=0 note=62 velocity=127 time=0.046875\n",
      "note_off channel=0 note=62 velocity=127 time=0.019791666666666666\n",
      "note_on channel=0 note=61 velocity=127 time=0.010416666666666666\n",
      "note_off channel=0 note=61 velocity=127 time=0.019791666666666666\n",
      "note_on channel=0 note=60 velocity=127 time=0.01875\n",
      "note_on channel=0 note=62 velocity=127 time=0.011458333333333333\n",
      "note_off channel=0 note=60 velocity=127 time=0.009375\n",
      "note_off channel=0 note=62 velocity=127 time=0.011458333333333333\n",
      "note_on channel=0 note=61 velocity=127 time=0.027083333333333334\n",
      "note_off channel=0 note=61 velocity=127 time=0.019791666666666666\n",
      "note_on channel=0 note=62 velocity=127 time=0.0125\n",
      "note_off channel=0 note=62 velocity=127 time=0.019791666666666666\n",
      "note_on channel=0 note=61 velocity=127 time=0.04479166666666667\n",
      "note_on channel=0 note=62 velocity=127 time=0.015625\n",
      "note_off channel=0 note=61 velocity=127 time=0.005208333333333333\n",
      "note_off channel=0 note=62 velocity=127 time=0.015625\n",
      "note_on channel=0 note=60 velocity=127 time=0.057291666666666664\n",
      "note_on channel=0 note=62 velocity=127 time=0.0020833333333333333\n",
      "note_on channel=0 note=61 velocity=127 time=0.0020833333333333333\n",
      "note_off channel=0 note=60 velocity=127 time=0.015625\n",
      "note_off channel=0 note=62 velocity=127 time=0.0020833333333333333\n",
      "note_off channel=0 note=61 velocity=127 time=0.0020833333333333333\n",
      "note_on channel=0 note=62 velocity=127 time=0.058333333333333334\n",
      "note_on channel=0 note=61 velocity=127 time=0.019791666666666666\n",
      "note_off channel=0 note=62 velocity=127 time=0.0010416666666666667\n",
      "note_off channel=0 note=61 velocity=127 time=0.019791666666666666\n",
      "note_on channel=0 note=62 velocity=127 time=0.040625\n",
      "note_off channel=0 note=62 velocity=127 time=0.019791666666666666\n",
      "note_on channel=0 note=61 velocity=127 time=0.016666666666666666\n",
      "note_off channel=0 note=61 velocity=127 time=0.019791666666666666\n",
      "note_on channel=0 note=62 velocity=127 time=0.022916666666666665\n",
      "note_on channel=0 note=60 velocity=127 time=0.00625\n",
      "note_off channel=0 note=62 velocity=127 time=0.013541666666666667\n",
      "note_off channel=0 note=60 velocity=127 time=0.00625\n",
      "note_on channel=0 note=61 velocity=127 time=0.028125\n",
      "note_off channel=0 note=61 velocity=127 time=0.019791666666666666\n",
      "note_on channel=0 note=62 velocity=127 time=0.00625\n",
      "note_off channel=0 note=62 velocity=127 time=0.019791666666666666\n",
      "note_on channel=0 note=61 velocity=127 time=0.051041666666666666\n",
      "note_on channel=0 note=62 velocity=127 time=0.009375\n",
      "note_off channel=0 note=61 velocity=127 time=0.011458333333333333\n",
      "note_off channel=0 note=62 velocity=127 time=0.009375\n",
      "note_on channel=0 note=62 velocity=127 time=0.06041666666666667\n",
      "note_on channel=0 note=61 velocity=127 time=0.008333333333333333\n",
      "note_on channel=0 note=60 velocity=127 time=0.00625\n",
      "note_off channel=0 note=62 velocity=127 time=0.005208333333333333\n",
      "note_off channel=0 note=61 velocity=127 time=0.008333333333333333\n",
      "note_off channel=0 note=60 velocity=127 time=0.00625\n",
      "note_on channel=0 note=62 velocity=127 time=0.04479166666666667\n",
      "note_off channel=0 note=62 velocity=127 time=0.019791666666666666\n",
      "note_on channel=0 note=61 velocity=127 time=0.005208333333333333\n",
      "note_off channel=0 note=61 velocity=127 time=0.019791666666666666\n",
      "note_on channel=0 note=62 velocity=127 time=0.034375\n",
      "note_off channel=0 note=62 velocity=127 time=0.019791666666666666\n",
      "note_on channel=0 note=61 velocity=127 time=0.022916666666666665\n",
      "note_off channel=0 note=61 velocity=127 time=0.019791666666666666\n",
      "note_on channel=0 note=62 velocity=127 time=0.016666666666666666\n",
      "note_off channel=0 note=62 velocity=127 time=0.019791666666666666\n",
      "note_on channel=0 note=60 velocity=127 time=0.003125\n",
      "note_off channel=0 note=60 velocity=127 time=0.019791666666666666\n",
      "note_on channel=0 note=61 velocity=127 time=0.016666666666666666\n",
      "note_on channel=0 note=62 velocity=127 time=0.019791666666666666\n",
      "note_off channel=0 note=61 velocity=127 time=0\n",
      "note_off channel=0 note=62 velocity=127 time=0.019791666666666666\n",
      "note_on channel=0 note=61 velocity=127 time=0.057291666666666664\n",
      "note_on channel=0 note=62 velocity=127 time=0.0020833333333333333\n",
      "note_off channel=0 note=61 velocity=127 time=0.017708333333333333\n",
      "note_off channel=0 note=62 velocity=127 time=0.0020833333333333333\n",
      "note_on channel=0 note=62 velocity=127 time=0.06041666666666667\n",
      "note_on channel=0 note=61 velocity=127 time=0.014583333333333334\n",
      "note_off channel=0 note=62 velocity=127 time=0.005208333333333333\n",
      "note_on channel=0 note=60 velocity=127 time=0.011458333333333333\n",
      "note_off channel=0 note=61 velocity=127 time=0.003125\n",
      "note_off channel=0 note=60 velocity=127 time=0.016666666666666666\n",
      "note_on channel=0 note=62 velocity=127 time=0.028125\n",
      "note_off channel=0 note=62 velocity=127 time=0.019791666666666666\n",
      "note_on channel=0 note=61 velocity=127 time=0.011458333333333333\n",
      "note_off channel=0 note=61 velocity=127 time=0.019791666666666666\n",
      "note_on channel=0 note=62 velocity=127 time=0.028125\n",
      "note_off channel=0 note=62 velocity=127 time=0.019791666666666666\n",
      "note_on channel=0 note=61 velocity=127 time=0.029166666666666667\n",
      "note_off channel=0 note=61 velocity=127 time=0.019791666666666666\n",
      "note_on channel=0 note=62 velocity=127 time=0.010416666666666666\n",
      "note_off channel=0 note=62 velocity=127 time=0.019791666666666666\n",
      "note_on channel=0 note=60 velocity=127 time=0.020833333333333332\n",
      "note_off channel=0 note=60 velocity=127 time=0.019791666666666666\n",
      "note_on channel=0 note=61 velocity=127 time=0.00625\n",
      "note_on channel=0 note=62 velocity=127 time=0.013541666666666667\n",
      "note_off channel=0 note=61 velocity=127 time=0.00625\n",
      "note_off channel=0 note=62 velocity=127 time=0.013541666666666667\n",
      "note_on channel=0 note=62 velocity=127 time=0.06041666666666667\n",
      "note_on channel=0 note=61 velocity=127 time=0.004166666666666667\n",
      "note_off channel=0 note=62 velocity=127 time=0.016666666666666666\n",
      "note_off channel=0 note=61 velocity=127 time=0.004166666666666667\n",
      "note_on channel=0 note=62 velocity=127 time=0.05625\n",
      "note_off channel=0 note=62 velocity=127 time=0.019791666666666666\n",
      "note_on channel=0 note=61 velocity=127 time=0.0010416666666666667\n",
      "note_off channel=0 note=61 velocity=127 time=0.019791666666666666\n",
      "note_on channel=0 note=60 velocity=127 time=0.008333333333333333\n",
      "note_off channel=0 note=60 velocity=127 time=0.019791666666666666\n",
      "note_on channel=0 note=62 velocity=127 time=0.011458333333333333\n",
      "note_off channel=0 note=62 velocity=127 time=0.019791666666666666\n",
      "note_on channel=0 note=61 velocity=127 time=0.017708333333333333\n",
      "note_off channel=0 note=61 velocity=127 time=0.019791666666666666\n",
      "note_on channel=0 note=62 velocity=127 time=0.021875\n",
      "note_off channel=0 note=62 velocity=127 time=0.019791666666666666\n",
      "note_on channel=0 note=61 velocity=127 time=0.035416666666666666\n",
      "note_off channel=0 note=61 velocity=127 time=0.019791666666666666\n",
      "note_on channel=0 note=62 velocity=127 time=0.004166666666666667\n",
      "note_off channel=0 note=62 velocity=127 time=0.019791666666666666\n",
      "note_on channel=0 note=60 velocity=127 time=0.0375\n",
      "note_on channel=0 note=61 velocity=127 time=0.015625\n",
      "note_off channel=0 note=60 velocity=127 time=0.005208333333333333\n",
      "note_on channel=0 note=62 velocity=127 time=0.0020833333333333333\n",
      "note_off channel=0 note=61 velocity=127 time=0.0125\n",
      "note_off channel=0 note=62 velocity=127 time=0.007291666666666667\n",
      "note_on channel=0 note=62 velocity=127 time=0.06041666666666667\n",
      "\u001b[91m [DEBUG] > \u001b[0m\n",
      " |>  to_array: msg.time > max_t; t, n\n",
      " |>  3.048958333333337\n",
      " |>  150\n"
     ]
    },
    {
     "name": "stdout",
     "output_type": "stream",
     "text": [
      "note_on channel=0 note=61 velocity=127 time=0.029166666666666667\n",
      "note_off channel=0 note=61 velocity=127 time=0.019791666666666666\n",
      "note_on channel=0 note=60 velocity=127 time=0.017708333333333333\n",
      "note_on channel=0 note=62 velocity=127 time=0.01875\n",
      "note_off channel=0 note=60 velocity=127 time=0.0010416666666666667\n",
      "note_off channel=0 note=62 velocity=127 time=0.01875\n",
      "note_on channel=0 note=61 velocity=127 time=0.003125\n",
      "note_off channel=0 note=61 velocity=127 time=0.019791666666666666\n",
      "note_on channel=0 note=60 velocity=127 time=0.04895833333333333\n",
      "note_on channel=0 note=61 velocity=127 time=0.010416666666666666\n",
      "note_on channel=0 note=62 velocity=127 time=0.00625\n",
      "note_off channel=0 note=60 velocity=127 time=0.003125\n",
      "note_off channel=0 note=61 velocity=127 time=0.010416666666666666\n",
      "note_off channel=0 note=62 velocity=127 time=0.00625\n",
      "note_on channel=0 note=61 velocity=127 time=0.053125\n",
      "note_off channel=0 note=61 velocity=127 time=0.019791666666666666\n",
      "note_on channel=0 note=60 velocity=127 time=0.0010416666666666667\n",
      "note_on channel=0 note=62 velocity=127 time=0.013541666666666667\n",
      "note_off channel=0 note=60 velocity=127 time=0.00625\n",
      "note_off channel=0 note=62 velocity=127 time=0.013541666666666667\n",
      "note_on channel=0 note=61 velocity=127 time=0.025\n",
      "note_off channel=0 note=61 velocity=127 time=0.019791666666666666\n",
      "note_on channel=0 note=60 velocity=127 time=0.03229166666666666\n",
      "note_on channel=0 note=62 velocity=127 time=0.011458333333333333\n",
      "note_off channel=0 note=60 velocity=127 time=0.008333333333333333\n",
      "note_on channel=0 note=61 velocity=127 time=0.007291666666666667\n",
      "note_off channel=0 note=62 velocity=127 time=0.004166666666666667\n",
      "note_off channel=0 note=61 velocity=127 time=0.015625\n",
      "note_on channel=0 note=61 velocity=127 time=0.059375\n",
      "note_on channel=0 note=60 velocity=127 time=0.004166666666666667\n",
      "note_on channel=0 note=62 velocity=127 time=0.008333333333333333\n",
      "note_off channel=0 note=61 velocity=127 time=0.007291666666666667\n",
      "note_off channel=0 note=60 velocity=127 time=0.004166666666666667\n",
      "note_off channel=0 note=62 velocity=127 time=0.008333333333333333\n",
      "note_on channel=0 note=61 velocity=127 time=0.046875\n",
      "note_off channel=0 note=61 velocity=127 time=0.019791666666666666\n",
      "note_on channel=0 note=60 velocity=127 time=0.015625\n",
      "note_on channel=0 note=62 velocity=127 time=0.00625\n",
      "note_off channel=0 note=60 velocity=127 time=0.013541666666666667\n",
      "note_off channel=0 note=62 velocity=127 time=0.00625\n",
      "note_on channel=0 note=61 velocity=127 time=0.017708333333333333\n",
      "note_off channel=0 note=61 velocity=127 time=0.019791666666666666\n",
      "note_on channel=0 note=60 velocity=127 time=0.046875\n",
      "note_on channel=0 note=62 velocity=127 time=0.004166666666666667\n",
      "note_on channel=0 note=61 velocity=127 time=0.009375\n",
      "note_off channel=0 note=60 velocity=127 time=0.007291666666666667\n",
      "note_off channel=0 note=62 velocity=127 time=0.004166666666666667\n",
      "note_off channel=0 note=61 velocity=127 time=0.009375\n",
      "note_on channel=0 note=61 velocity=127 time=0.059375\n",
      "note_on channel=0 note=60 velocity=127 time=0.01875\n",
      "note_on channel=0 note=62 velocity=127 time=0.0010416666666666667\n",
      "note_off channel=0 note=61 velocity=127 time=0\n",
      "note_off channel=0 note=60 velocity=127 time=0.01875\n",
      "note_off channel=0 note=62 velocity=127 time=0.0010416666666666667\n",
      "note_on channel=0 note=61 velocity=127 time=0.03958333333333333\n",
      "note_off channel=0 note=61 velocity=127 time=0.019791666666666666\n",
      "note_on channel=0 note=62 velocity=127 time=0.028125\n",
      "note_on channel=0 note=60 velocity=127 time=0.0010416666666666667\n",
      "note_off channel=0 note=62 velocity=127 time=0.01875\n",
      "note_off channel=0 note=60 velocity=127 time=0.0010416666666666667\n",
      "note_on channel=0 note=61 velocity=127 time=0.009375\n",
      "note_off channel=0 note=61 velocity=127 time=0.019791666666666666\n",
      "note_on channel=0 note=62 velocity=127 time=0.057291666666666664\n",
      "note_on channel=0 note=61 velocity=127 time=0.0020833333333333333\n",
      "note_on channel=0 note=60 velocity=127 time=0.0020833333333333333\n",
      "note_off channel=0 note=62 velocity=127 time=0.015625\n",
      "note_off channel=0 note=61 velocity=127 time=0.0020833333333333333\n",
      "note_off channel=0 note=60 velocity=127 time=0.0020833333333333333\n",
      "note_on channel=0 note=61 velocity=127 time=0.058333333333333334\n",
      "note_off channel=0 note=61 velocity=127 time=0.019791666666666666\n",
      "note_on channel=0 note=62 velocity=127 time=0.00625\n",
      "note_on channel=0 note=60 velocity=127 time=0.00625\n",
      "note_off channel=0 note=62 velocity=127 time=0.013541666666666667\n",
      "note_off channel=0 note=60 velocity=127 time=0.00625\n",
      "note_on channel=0 note=61 velocity=127 time=0.027083333333333334\n",
      "note_off channel=0 note=61 velocity=127 time=0.019791666666666666\n",
      "note_on channel=0 note=62 velocity=127 time=0.035416666666666666\n",
      "note_on channel=0 note=60 velocity=127 time=0.009375\n",
      "note_off channel=0 note=62 velocity=127 time=0.010416666666666666\n",
      "note_on channel=0 note=61 velocity=127 time=0.004166666666666667\n",
      "note_off channel=0 note=60 velocity=127 time=0.005208333333333333\n",
      "note_off channel=0 note=61 velocity=127 time=0.015625\n",
      "note_on channel=0 note=61 velocity=127 time=0.059375\n",
      "note_on channel=0 note=62 velocity=127 time=0.004166666666666667\n",
      "note_on channel=0 note=60 velocity=127 time=0.011458333333333333\n",
      "note_off channel=0 note=61 velocity=127 time=0.004166666666666667\n",
      "note_off channel=0 note=62 velocity=127 time=0.004166666666666667\n",
      "note_off channel=0 note=60 velocity=127 time=0.011458333333333333\n",
      "note_on channel=0 note=61 velocity=127 time=0.04375\n",
      "note_off channel=0 note=61 velocity=127 time=0.019791666666666666\n",
      "note_on channel=0 note=62 velocity=127 time=0.013541666666666667\n",
      "note_on channel=0 note=60 velocity=127 time=0.014583333333333334\n",
      "note_off channel=0 note=62 velocity=127 time=0.005208333333333333\n",
      "note_off channel=0 note=60 velocity=127 time=0.014583333333333334\n",
      "note_on channel=0 note=61 velocity=127 time=0.0125\n",
      "note_off channel=0 note=61 velocity=127 time=0.019791666666666666\n",
      "note_on channel=0 note=62 velocity=127 time=0.041666666666666664\n",
      "note_on channel=0 note=60 velocity=127 time=0.016666666666666666\n",
      "note_on channel=0 note=61 velocity=127 time=0.0010416666666666667\n",
      "note_off channel=0 note=62 velocity=127 time=0.0020833333333333333\n",
      "note_off channel=0 note=60 velocity=127 time=0.016666666666666666\n",
      "note_off channel=0 note=61 velocity=127 time=0.0010416666666666667\n",
      "note_on channel=0 note=61 velocity=127 time=0.059375\n",
      "note_on channel=0 note=62 velocity=127 time=0.011458333333333333\n",
      "note_off channel=0 note=61 velocity=127 time=0.009375\n",
      "note_on channel=0 note=60 velocity=127 time=0.010416666666666666\n",
      "note_off channel=0 note=62 velocity=127 time=0\n",
      "note_off channel=0 note=60 velocity=127 time=0.019791666666666666\n",
      "note_on channel=0 note=61 velocity=127 time=0.029166666666666667\n",
      "note_off channel=0 note=61 velocity=127 time=0.019791666666666666\n",
      "note_on channel=0 note=62 velocity=127 time=0.019791666666666666\n",
      "note_off channel=0 note=62 velocity=127 time=0.019791666666666666\n",
      "note_on channel=0 note=60 velocity=127 time=0.0020833333333333333\n",
      "note_on channel=0 note=61 velocity=127 time=0.017708333333333333\n",
      "note_off channel=0 note=60 velocity=127 time=0.0020833333333333333\n",
      "note_off channel=0 note=61 velocity=127 time=0.017708333333333333\n",
      "note_on channel=0 note=62 velocity=127 time=0.04895833333333333\n",
      "note_on channel=0 note=61 velocity=127 time=0.011458333333333333\n",
      "note_off channel=0 note=62 velocity=127 time=0.009375\n",
      "note_on channel=0 note=60 velocity=127 time=0.004166666666666667\n",
      "note_off channel=0 note=61 velocity=127 time=0.00625\n",
      "note_off channel=0 note=60 velocity=127 time=0.013541666666666667\n",
      "note_on channel=0 note=61 velocity=127 time=0.04583333333333333\n",
      "note_on channel=0 note=62 velocity=127 time=0.017708333333333333\n",
      "note_off channel=0 note=61 velocity=127 time=0.0020833333333333333\n",
      "note_off channel=0 note=62 velocity=127 time=0.017708333333333333\n",
      "note_on channel=0 note=60 velocity=127 time=0.007291666666666667\n",
      "note_off channel=0 note=60 velocity=127 time=0.019791666666666666\n",
      "note_on channel=0 note=61 velocity=127 time=0.014583333333333334\n",
      "note_off channel=0 note=61 velocity=127 time=0.019791666666666666\n",
      "note_on channel=0 note=62 velocity=127 time=0.027083333333333334\n",
      "note_off channel=0 note=62 velocity=127 time=0.019791666666666666\n",
      "note_on channel=0 note=60 velocity=127 time=0.009375\n",
      "note_on channel=0 note=61 velocity=127 time=0.003125\n",
      "note_off channel=0 note=60 velocity=127 time=0.016666666666666666\n",
      "note_off channel=0 note=61 velocity=127 time=0.003125\n",
      "note_on channel=0 note=62 velocity=127 time=0.05520833333333333\n",
      "note_on channel=0 note=61 velocity=127 time=0.004166666666666667\n",
      "note_off channel=0 note=62 velocity=127 time=0.015625\n",
      "note_off channel=0 note=61 velocity=127 time=0.004166666666666667\n",
      "note_on channel=0 note=60 velocity=127 time=0.008333333333333333\n",
      "note_off channel=0 note=60 velocity=127 time=0.019791666666666666\n",
      "note_on channel=0 note=61 velocity=127 time=0.03125\n",
      "note_off channel=0 note=61 velocity=127 time=0.019791666666666666\n",
      "note_on channel=0 note=62 velocity=127 time=0.004166666666666667\n",
      "note_off channel=0 note=62 velocity=127 time=0.019791666666666666\n",
      "note_on channel=0 note=60 velocity=127 time=0.014583333333333334\n",
      "note_off channel=0 note=60 velocity=127 time=0.019791666666666666\n",
      "note_on channel=0 note=61 velocity=127 time=0\n",
      "note_off channel=0 note=61 velocity=127 time=0.019791666666666666\n",
      "note_on channel=0 note=62 velocity=127 time=0.03333333333333333\n",
      "note_off channel=0 note=62 velocity=127 time=0.019791666666666666\n",
      "note_on channel=0 note=61 velocity=127 time=0.00625\n",
      "note_on channel=0 note=60 velocity=127 time=0.011458333333333333\n",
      "note_off channel=0 note=61 velocity=127 time=0.008333333333333333\n",
      "note_off channel=0 note=60 velocity=127 time=0.011458333333333333\n",
      "note_on channel=0 note=61 velocity=127 time=0.04791666666666666\n",
      "note_on channel=0 note=62 velocity=127 time=0.0020833333333333333\n",
      "note_off channel=0 note=61 velocity=127 time=0.017708333333333333\n",
      "note_off channel=0 note=62 velocity=127 time=0.0020833333333333333\n",
      "note_on channel=0 note=60 velocity=127 time=0.019791666666666666\n",
      "note_off channel=0 note=60 velocity=127 time=0.019791666666666666\n",
      "note_on channel=0 note=61 velocity=127 time=0.016666666666666666\n",
      "note_off channel=0 note=61 velocity=127 time=0.019791666666666666\n",
      "note_on channel=0 note=62 velocity=127 time=0.011458333333333333\n",
      "note_off channel=0 note=62 velocity=127 time=0.019791666666666666\n",
      "note_on channel=0 note=60 velocity=127 time=0.022916666666666665\n",
      "note_on channel=0 note=61 velocity=127 time=0.005208333333333333\n",
      "note_off channel=0 note=60 velocity=127 time=0.014583333333333334\n",
      "note_off channel=0 note=61 velocity=127 time=0.005208333333333333\n",
      "note_on channel=0 note=62 velocity=127 time=0.03958333333333333\n",
      "note_on channel=0 note=61 velocity=127 time=0.019791666666666666\n",
      "note_off channel=0 note=62 velocity=127 time=0\n",
      "note_off channel=0 note=61 velocity=127 time=0.019791666666666666\n",
      "note_on channel=0 note=60 velocity=127 time=0.00625\n",
      "note_off channel=0 note=60 velocity=127 time=0.019791666666666666\n",
      "note_on channel=0 note=61 velocity=127 time=0.03333333333333333\n",
      "note_on channel=0 note=62 velocity=127 time=0.009375\n",
      "note_off channel=0 note=61 velocity=127 time=0.010416666666666666\n",
      "note_off channel=0 note=62 velocity=127 time=0.009375\n",
      "note_on channel=0 note=60 velocity=127 time=0.028125\n",
      "note_off channel=0 note=60 velocity=127 time=0.019791666666666666\n",
      "note_on channel=0 note=61 velocity=127 time=0.0020833333333333333\n",
      "note_off channel=0 note=61 velocity=127 time=0.019791666666666666\n",
      "note_on channel=0 note=62 velocity=127 time=0.017708333333333333\n",
      "\u001b[91m [DEBUG] > \u001b[0m\n",
      " |>  to_array: msg.time > max_t; t, n\n",
      " |>  3.0000000000000027\n",
      " |>  150\n",
      "note_on channel=0 note=62 velocity=127 time=0.04375\n",
      "note_off channel=0 note=62 velocity=127 time=0.019791666666666666\n",
      "note_on channel=0 note=61 velocity=127 time=0.011458333333333333\n",
      "note_off channel=0 note=61 velocity=127 time=0.019791666666666666\n",
      "note_on channel=0 note=62 velocity=127 time=0.03125\n",
      "note_off channel=0 note=62 velocity=127 time=0.019791666666666666\n",
      "note_on channel=0 note=60 velocity=127 time=0.051041666666666666\n",
      "note_on channel=0 note=62 velocity=127 time=0.011458333333333333\n",
      "note_off channel=0 note=60 velocity=127 time=0.008333333333333333\n",
      "note_off channel=0 note=62 velocity=127 time=0.011458333333333333\n",
      "note_on channel=0 note=61 velocity=127 time=0.028125\n",
      "note_off channel=0 note=61 velocity=127 time=0.019791666666666666\n",
      "note_on channel=0 note=62 velocity=127 time=0.013541666666666667\n",
      "note_off channel=0 note=62 velocity=127 time=0.019791666666666666\n",
      "note_on channel=0 note=62 velocity=127 time=0.06145833333333333\n",
      "note_off channel=0 note=62 velocity=127 time=0.019791666666666666\n",
      "note_on channel=0 note=60 velocity=127 time=0.003125\n",
      "note_off channel=0 note=60 velocity=127 time=0.019791666666666666\n",
      "note_on channel=0 note=61 velocity=127 time=0.022916666666666665\n",
      "note_on channel=0 note=62 velocity=127 time=0.015625\n",
      "note_off channel=0 note=61 velocity=127 time=0.004166666666666667\n",
      "note_off channel=0 note=62 velocity=127 time=0.015625\n",
      "note_on channel=0 note=62 velocity=127 time=0.06145833333333333\n",
      "note_off channel=0 note=62 velocity=127 time=0.019791666666666666\n",
      "note_on channel=0 note=60 velocity=127 time=0.0375\n",
      "note_off channel=0 note=60 velocity=127 time=0.019791666666666666\n",
      "note_on channel=0 note=62 velocity=127 time=0.004166666666666667\n",
      "note_on channel=0 note=61 velocity=127 time=0.0020833333333333333\n",
      "note_off channel=0 note=62 velocity=127 time=0.017708333333333333\n",
      "note_off channel=0 note=61 velocity=127 time=0.0020833333333333333\n",
      "note_on channel=0 note=62 velocity=127 time=0.06041666666666667\n",
      "note_off channel=0 note=62 velocity=127 time=0.019791666666666666\n",
      "note_on channel=0 note=62 velocity=127 time=0.06145833333333333\n",
      "note_on channel=0 note=60 velocity=127 time=0.009375\n",
      "note_on channel=0 note=61 velocity=127 time=0.009375\n",
      "note_off channel=0 note=62 velocity=127 time=0.0010416666666666667\n",
      "note_off channel=0 note=60 velocity=127 time=0.009375\n",
      "note_off channel=0 note=61 velocity=127 time=0.009375\n",
      "note_on channel=0 note=62 velocity=127 time=0.042708333333333334\n",
      "note_off channel=0 note=62 velocity=127 time=0.019791666666666666\n",
      "note_on channel=0 note=62 velocity=127 time=0.06145833333333333\n",
      "note_off channel=0 note=62 velocity=127 time=0.019791666666666666\n",
      "note_on channel=0 note=61 velocity=127 time=0.016666666666666666\n",
      "note_on channel=0 note=60 velocity=127 time=0.007291666666666667\n",
      "note_off channel=0 note=61 velocity=127 time=0.0125\n",
      "note_off channel=0 note=60 velocity=127 time=0.007291666666666667\n",
      "note_on channel=0 note=62 velocity=127 time=0.017708333333333333\n",
      "note_off channel=0 note=62 velocity=127 time=0.019791666666666666\n",
      "note_on channel=0 note=62 velocity=127 time=0.06145833333333333\n",
      "note_off channel=0 note=62 velocity=127 time=0.019791666666666666\n",
      "note_on channel=0 note=61 velocity=127 time=0.034375\n",
      "note_off channel=0 note=61 velocity=127 time=0.019791666666666666\n",
      "note_on channel=0 note=60 velocity=127 time=0.004166666666666667\n",
      "note_on channel=0 note=62 velocity=127 time=0.003125\n",
      "note_off channel=0 note=60 velocity=127 time=0.016666666666666666\n",
      "note_off channel=0 note=62 velocity=127 time=0.003125\n",
      "note_on channel=0 note=62 velocity=127 time=0.06145833333333333\n",
      "note_off channel=0 note=62 velocity=127 time=0.019791666666666666\n",
      "note_on channel=0 note=61 velocity=127 time=0.052083333333333336\n",
      "note_on channel=0 note=62 velocity=127 time=0.009375\n",
      "note_off channel=0 note=61 velocity=127 time=0.010416666666666666\n",
      "note_off channel=0 note=62 velocity=127 time=0.009375\n",
      "note_on channel=0 note=60 velocity=127 time=0.011458333333333333\n",
      "note_off channel=0 note=60 velocity=127 time=0.019791666666666666\n",
      "note_on channel=0 note=62 velocity=127 time=0.03125\n",
      "note_off channel=0 note=62 velocity=127 time=0.019791666666666666\n",
      "note_on channel=0 note=62 velocity=127 time=0.06145833333333333\n",
      "note_on channel=0 note=61 velocity=127 time=0.008333333333333333\n",
      "note_off channel=0 note=62 velocity=127 time=0.0125\n",
      "note_off channel=0 note=61 velocity=127 time=0.008333333333333333\n",
      "note_on channel=0 note=60 velocity=127 time=0.0375\n",
      "note_on channel=0 note=62 velocity=127 time=0.016666666666666666\n",
      "note_off channel=0 note=60 velocity=127 time=0.003125\n",
      "note_off channel=0 note=62 velocity=127 time=0.016666666666666666\n",
      "note_on channel=0 note=62 velocity=127 time=0.06145833333333333\n",
      "note_off channel=0 note=62 velocity=127 time=0.019791666666666666\n",
      "note_on channel=0 note=61 velocity=127 time=0.005208333333333333\n",
      "note_off channel=0 note=61 velocity=127 time=0.019791666666666666\n",
      "note_on channel=0 note=62 velocity=127 time=0.036458333333333336\n",
      "note_on channel=0 note=60 velocity=127 time=0.017708333333333333\n",
      "note_off channel=0 note=62 velocity=127 time=0.0020833333333333333\n",
      "note_off channel=0 note=60 velocity=127 time=0.017708333333333333\n",
      "note_on channel=0 note=62 velocity=127 time=0.04479166666666667\n",
      "note_off channel=0 note=62 velocity=127 time=0.019791666666666666\n",
      "note_on channel=0 note=61 velocity=127 time=0.022916666666666665\n",
      "note_off channel=0 note=61 velocity=127 time=0.019791666666666666\n",
      "note_on channel=0 note=62 velocity=127 time=0.01875\n",
      "note_off channel=0 note=62 velocity=127 time=0.019791666666666666\n",
      "note_on channel=0 note=60 velocity=127 time=0.03229166666666666\n",
      "note_off channel=0 note=60 velocity=127 time=0.019791666666666666\n",
      "note_on channel=0 note=62 velocity=127 time=0.010416666666666666\n",
      "note_off channel=0 note=62 velocity=127 time=0.019791666666666666\n",
      "note_on channel=0 note=61 velocity=127 time=0.040625\n",
      "note_off channel=0 note=61 velocity=127 time=0.019791666666666666\n",
      "note_on channel=0 note=62 velocity=127 time=0.0010416666666666667\n",
      "note_off channel=0 note=62 velocity=127 time=0.019791666666666666\n",
      "note_on channel=0 note=62 velocity=127 time=0.06145833333333333\n",
      "note_on channel=0 note=60 velocity=127 time=0.004166666666666667\n",
      "note_off channel=0 note=62 velocity=127 time=0.015625\n",
      "note_off channel=0 note=60 velocity=127 time=0.004166666666666667\n",
      "note_on channel=0 note=61 velocity=127 time=0.05416666666666667\n",
      "note_on channel=0 note=62 velocity=127 time=0.004166666666666667\n",
      "note_off channel=0 note=61 velocity=127 time=0.016666666666666666\n",
      "note_off channel=0 note=62 velocity=127 time=0.004166666666666667\n",
      "note_on channel=0 note=62 velocity=127 time=0.06145833333333333\n",
      "note_off channel=0 note=62 velocity=127 time=0.019791666666666666\n",
      "note_on channel=0 note=60 velocity=127 time=0.01875\n",
      "note_off channel=0 note=60 velocity=127 time=0.019791666666666666\n",
      "note_on channel=0 note=62 velocity=127 time=0.022916666666666665\n",
      "note_on channel=0 note=61 velocity=127 time=0.013541666666666667\n",
      "note_off channel=0 note=62 velocity=127 time=0.00625\n",
      "note_off channel=0 note=61 velocity=127 time=0.013541666666666667\n",
      "note_on channel=0 note=62 velocity=127 time=0.04791666666666666\n",
      "note_off channel=0 note=62 velocity=127 time=0.019791666666666666\n",
      "note_on channel=0 note=60 velocity=127 time=0.053125\n",
      "note_on channel=0 note=62 velocity=127 time=0.009375\n",
      "note_off channel=0 note=60 velocity=127 time=0.011458333333333333\n",
      "note_off channel=0 note=62 velocity=127 time=0.009375\n",
      "note_on channel=0 note=61 velocity=127 time=0.011458333333333333\n",
      "note_off channel=0 note=61 velocity=127 time=0.019791666666666666\n",
      "note_on channel=0 note=62 velocity=127 time=0.030208333333333334\n",
      "note_off channel=0 note=62 velocity=127 time=0.019791666666666666\n",
      "note_on channel=0 note=62 velocity=127 time=0.06145833333333333\n",
      "note_off channel=0 note=62 velocity=127 time=0.019791666666666666\n",
      "note_on channel=0 note=60 velocity=127 time=0.005208333333333333\n",
      "note_off channel=0 note=60 velocity=127 time=0.019791666666666666\n",
      "note_on channel=0 note=61 velocity=127 time=0.004166666666666667\n",
      "note_off channel=0 note=61 velocity=127 time=0.019791666666666666\n",
      "note_on channel=0 note=62 velocity=127 time=0.0125\n",
      "note_off channel=0 note=62 velocity=127 time=0.019791666666666666\n",
      "note_on channel=0 note=62 velocity=127 time=0.06145833333333333\n",
      "note_off channel=0 note=62 velocity=127 time=0.019791666666666666\n",
      "note_on channel=0 note=60 velocity=127 time=0.03958333333333333\n",
      "note_on channel=0 note=61 velocity=127 time=0.007291666666666667\n",
      "note_off channel=0 note=60 velocity=127 time=0.013541666666666667\n",
      "note_on channel=0 note=62 velocity=127 time=0.0020833333333333333\n",
      "note_off channel=0 note=61 velocity=127 time=0.005208333333333333\n",
      "note_off channel=0 note=62 velocity=127 time=0.015625\n",
      "\u001b[91m [DEBUG] > \u001b[0m\n",
      " |>  to_array: msg.time > max_t; t, n\n",
      " |>  3.003125000000004\n",
      " |>  150\n",
      "note_on channel=0 note=62 velocity=127 time=0.035416666666666666\n",
      "note_on channel=0 note=60 velocity=127 time=0.013541666666666667\n",
      "note_off channel=0 note=62 velocity=127 time=0.00625\n",
      "note_on channel=0 note=61 velocity=127 time=0.003125\n",
      "note_off channel=0 note=60 velocity=127 time=0.010416666666666666\n",
      "note_off channel=0 note=61 velocity=127 time=0.009375\n",
      "note_on channel=0 note=62 velocity=127 time=0.03229166666666666\n",
      "note_off channel=0 note=62 velocity=127 time=0.019791666666666666\n",
      "note_on channel=0 note=60 velocity=127 time=0.019791666666666666\n",
      "note_on channel=0 note=61 velocity=127 time=0.0020833333333333333\n",
      "note_off channel=0 note=60 velocity=127 time=0.01875\n",
      "note_off channel=0 note=61 velocity=127 time=0.0020833333333333333\n",
      "note_on channel=0 note=62 velocity=127 time=0.013541666666666667\n",
      "note_off channel=0 note=62 velocity=127 time=0.019791666666666666\n",
      "note_on channel=0 note=61 velocity=127 time=0.040625\n",
      "note_on channel=0 note=60 velocity=127 time=0.00625\n",
      "note_on channel=0 note=62 velocity=127 time=0.008333333333333333\n",
      "note_off channel=0 note=61 velocity=127 time=0.005208333333333333\n",
      "note_off channel=0 note=60 velocity=127 time=0.00625\n",
      "note_off channel=0 note=62 velocity=127 time=0.008333333333333333\n",
      "note_on channel=0 note=62 velocity=127 time=0.05520833333333333\n",
      "note_on channel=0 note=61 velocity=127 time=0.004166666666666667\n",
      "note_on channel=0 note=60 velocity=127 time=0.013541666666666667\n",
      "note_off channel=0 note=62 velocity=127 time=0.0020833333333333333\n",
      "note_off channel=0 note=61 velocity=127 time=0.004166666666666667\n",
      "note_off channel=0 note=60 velocity=127 time=0.013541666666666667\n",
      "note_on channel=0 note=62 velocity=127 time=0.0375\n",
      "note_off channel=0 note=62 velocity=127 time=0.019791666666666666\n",
      "note_on channel=0 note=61 velocity=127 time=0.003125\n",
      "note_off channel=0 note=61 velocity=127 time=0.019791666666666666\n",
      "note_on channel=0 note=60 velocity=127 time=0.0020833333333333333\n",
      "note_off channel=0 note=60 velocity=127 time=0.019791666666666666\n",
      "note_on channel=0 note=62 velocity=127 time=0.010416666666666666\n",
      "note_off channel=0 note=62 velocity=127 time=0.019791666666666666\n",
      "note_on channel=0 note=61 velocity=127 time=0.021875\n",
      "note_off channel=0 note=61 velocity=127 time=0.019791666666666666\n",
      "note_on channel=0 note=60 velocity=127 time=0.009375\n",
      "note_on channel=0 note=62 velocity=127 time=0.004166666666666667\n",
      "note_off channel=0 note=60 velocity=127 time=0.015625\n",
      "note_off channel=0 note=62 velocity=127 time=0.004166666666666667\n",
      "note_on channel=0 note=61 velocity=127 time=0.041666666666666664\n",
      "note_on channel=0 note=62 velocity=127 time=0.014583333333333334\n",
      "note_off channel=0 note=61 velocity=127 time=0.005208333333333333\n",
      "note_off channel=0 note=62 velocity=127 time=0.014583333333333334\n",
      "note_on channel=0 note=60 velocity=127 time=0.003125\n",
      "note_off channel=0 note=60 velocity=127 time=0.019791666666666666\n",
      "note_on channel=0 note=62 velocity=127 time=0.03229166666666666\n",
      "note_on channel=0 note=61 velocity=127 time=0.005208333333333333\n",
      "note_off channel=0 note=62 velocity=127 time=0.015625\n",
      "note_off channel=0 note=61 velocity=127 time=0.005208333333333333\n",
      "note_on channel=0 note=60 velocity=127 time=0.025\n",
      "note_off channel=0 note=60 velocity=127 time=0.019791666666666666\n",
      "note_on channel=0 note=62 velocity=127 time=0.00625\n",
      "note_off channel=0 note=62 velocity=127 time=0.019791666666666666\n",
      "note_on channel=0 note=61 velocity=127 time=0.004166666666666667\n",
      "note_off channel=0 note=61 velocity=127 time=0.019791666666666666\n",
      "note_on channel=0 note=62 velocity=127 time=0.03125\n",
      "note_on channel=0 note=60 velocity=127 time=0.0010416666666666667\n",
      "note_off channel=0 note=62 velocity=127 time=0.01875\n",
      "note_off channel=0 note=60 velocity=127 time=0.0010416666666666667\n",
      "note_on channel=0 note=61 velocity=127 time=0.021875\n",
      "note_off channel=0 note=61 velocity=127 time=0.019791666666666666\n",
      "note_on channel=0 note=62 velocity=127 time=0.0125\n",
      "note_off channel=0 note=62 velocity=127 time=0.019791666666666666\n",
      "note_on channel=0 note=60 velocity=127 time=0.007291666666666667\n",
      "note_off channel=0 note=60 velocity=127 time=0.019791666666666666\n",
      "note_on channel=0 note=61 velocity=127 time=0.014583333333333334\n",
      "note_on channel=0 note=62 velocity=127 time=0.013541666666666667\n",
      "note_off channel=0 note=61 velocity=127 time=0.00625\n",
      "note_off channel=0 note=62 velocity=127 time=0.013541666666666667\n",
      "note_on channel=0 note=60 velocity=127 time=0.034375\n",
      "note_off channel=0 note=60 velocity=127 time=0.019791666666666666\n",
      "note_on channel=0 note=62 velocity=127 time=0.0010416666666666667\n",
      "note_on channel=0 note=61 velocity=127 time=0.005208333333333333\n",
      "note_off channel=0 note=62 velocity=127 time=0.014583333333333334\n",
      "note_off channel=0 note=61 velocity=127 time=0.005208333333333333\n",
      "note_on channel=0 note=62 velocity=127 time=0.05\n",
      "note_on channel=0 note=60 velocity=127 time=0.005208333333333333\n",
      "note_off channel=0 note=62 velocity=127 time=0.014583333333333334\n",
      "note_on channel=0 note=61 velocity=127 time=0.004166666666666667\n",
      "note_off channel=0 note=60 velocity=127 time=0.0010416666666666667\n",
      "note_off channel=0 note=61 velocity=127 time=0.01875\n",
      "note_on channel=0 note=62 velocity=127 time=0.03125\n",
      "note_off channel=0 note=62 velocity=127 time=0.019791666666666666\n",
      "note_on channel=0 note=60 velocity=127 time=0.0125\n",
      "note_on channel=0 note=61 velocity=127 time=0.010416666666666666\n",
      "note_off channel=0 note=60 velocity=127 time=0.009375\n",
      "note_off channel=0 note=61 velocity=127 time=0.010416666666666666\n",
      "note_on channel=0 note=62 velocity=127 time=0.0125\n",
      "note_off channel=0 note=62 velocity=127 time=0.019791666666666666\n",
      "note_on channel=0 note=60 velocity=127 time=0.03958333333333333\n",
      "note_on channel=0 note=61 velocity=127 time=0.003125\n",
      "note_on channel=0 note=62 velocity=127 time=0.013541666666666667\n",
      "note_off channel=0 note=60 velocity=127 time=0.003125\n",
      "note_off channel=0 note=61 velocity=127 time=0.003125\n",
      "note_off channel=0 note=62 velocity=127 time=0.013541666666666667\n",
      "note_on channel=0 note=62 velocity=127 time=0.05520833333333333\n",
      "note_on channel=0 note=61 velocity=127 time=0.00625\n",
      "note_on channel=0 note=60 velocity=127 time=0.004166666666666667\n",
      "note_off channel=0 note=62 velocity=127 time=0.009375\n",
      "note_off channel=0 note=61 velocity=127 time=0.00625\n",
      "note_off channel=0 note=60 velocity=127 time=0.004166666666666667\n",
      "note_on channel=0 note=62 velocity=127 time=0.04479166666666667\n",
      "note_off channel=0 note=62 velocity=127 time=0.019791666666666666\n",
      "note_on channel=0 note=61 velocity=127 time=0.005208333333333333\n",
      "note_on channel=0 note=60 velocity=127 time=0.0125\n",
      "note_off channel=0 note=61 velocity=127 time=0.007291666666666667\n",
      "note_off channel=0 note=60 velocity=127 time=0.0125\n",
      "note_on channel=0 note=62 velocity=127 time=0.01875\n",
      "note_off channel=0 note=62 velocity=127 time=0.019791666666666666\n",
      "note_on channel=0 note=61 velocity=127 time=0.02395833333333333\n",
      "note_off channel=0 note=61 velocity=127 time=0.019791666666666666\n",
      "note_on channel=0 note=60 velocity=127 time=0\n",
      "note_on channel=0 note=62 velocity=127 time=0.011458333333333333\n",
      "note_off channel=0 note=60 velocity=127 time=0.008333333333333333\n",
      "note_off channel=0 note=62 velocity=127 time=0.011458333333333333\n",
      "note_on channel=0 note=61 velocity=127 time=0.042708333333333334\n",
      "note_on channel=0 note=62 velocity=127 time=0.0125\n",
      "note_off channel=0 note=61 velocity=127 time=0.007291666666666667\n",
      "note_on channel=0 note=60 velocity=127 time=0.008333333333333333\n",
      "note_off channel=0 note=62 velocity=127 time=0.005208333333333333\n",
      "note_off channel=0 note=60 velocity=127 time=0.015625\n",
      "note_on channel=0 note=62 velocity=127 time=0.040625\n",
      "note_on channel=0 note=61 velocity=127 time=0.00625\n",
      "note_off channel=0 note=62 velocity=127 time=0.013541666666666667\n",
      "note_off channel=0 note=61 velocity=127 time=0.00625\n",
      "note_on channel=0 note=60 velocity=127 time=0.015625\n",
      "note_off channel=0 note=60 velocity=127 time=0.019791666666666666\n",
      "note_on channel=0 note=62 velocity=127 time=0.013541666666666667\n",
      "note_off channel=0 note=62 velocity=127 time=0.019791666666666666\n",
      "note_on channel=0 note=61 velocity=127 time=0.005208333333333333\n",
      "note_off channel=0 note=61 velocity=127 time=0.019791666666666666\n",
      "note_on channel=0 note=60 velocity=127 time=0.022916666666666665\n",
      "note_on channel=0 note=62 velocity=127 time=0.007291666666666667\n",
      "note_off channel=0 note=60 velocity=127 time=0.013541666666666667\n",
      "note_off channel=0 note=62 velocity=127 time=0.007291666666666667\n",
      "note_on channel=0 note=61 velocity=127 time=0.02395833333333333\n",
      "note_off channel=0 note=61 velocity=127 time=0.019791666666666666\n",
      "note_on channel=0 note=62 velocity=127 time=0.011458333333333333\n",
      "note_on channel=0 note=60 velocity=127 time=0.019791666666666666\n",
      "note_off channel=0 note=62 velocity=127 time=0\n",
      "note_off channel=0 note=60 velocity=127 time=0.019791666666666666\n",
      "note_on channel=0 note=61 velocity=127 time=0.022916666666666665\n",
      "note_on channel=0 note=62 velocity=127 time=0.0125\n",
      "note_off channel=0 note=61 velocity=127 time=0.007291666666666667\n",
      "note_off channel=0 note=62 velocity=127 time=0.0125\n",
      "note_on channel=0 note=60 velocity=127 time=0.027083333333333334\n",
      "note_off channel=0 note=60 velocity=127 time=0.019791666666666666\n",
      "note_on channel=0 note=62 velocity=127 time=0.008333333333333333\n",
      "note_on channel=0 note=61 velocity=127 time=0.007291666666666667\n",
      "note_off channel=0 note=62 velocity=127 time=0.013541666666666667\n",
      "note_off channel=0 note=61 velocity=127 time=0.007291666666666667\n",
      "note_on channel=0 note=60 velocity=127 time=0.046875\n",
      "note_on channel=0 note=62 velocity=127 time=0.0020833333333333333\n",
      "note_off channel=0 note=60 velocity=127 time=0.017708333333333333\n",
      "note_off channel=0 note=62 velocity=127 time=0.0020833333333333333\n",
      "note_on channel=0 note=61 velocity=127 time=0.00625\n",
      "note_off channel=0 note=61 velocity=127 time=0.019791666666666666\n",
      "note_on channel=0 note=62 velocity=127 time=0.030208333333333334\n",
      "note_off channel=0 note=62 velocity=127 time=0.019791666666666666\n",
      "note_on channel=0 note=60 velocity=127 time=0.005208333333333333\n",
      "note_off channel=0 note=60 velocity=127 time=0.019791666666666666\n",
      "note_on channel=0 note=61 velocity=127 time=0\n",
      "note_off channel=0 note=61 velocity=127 time=0.019791666666666666\n",
      "note_on channel=0 note=62 velocity=127 time=0.010416666666666666\n",
      "note_off channel=0 note=62 velocity=127 time=0.019791666666666666\n",
      "note_on channel=0 note=60 velocity=127 time=0.03125\n",
      "note_on channel=0 note=61 velocity=127 time=0.0125\n",
      "note_off channel=0 note=60 velocity=127 time=0.007291666666666667\n",
      "note_on channel=0 note=62 velocity=127 time=0.004166666666666667\n",
      "note_off channel=0 note=61 velocity=127 time=0.008333333333333333\n",
      "note_off channel=0 note=62 velocity=127 time=0.011458333333333333\n",
      "note_on channel=0 note=62 velocity=127 time=0.05520833333333333\n",
      "note_on channel=0 note=60 velocity=127 time=0.003125\n",
      "note_on channel=0 note=61 velocity=127 time=0.004166666666666667\n",
      "note_off channel=0 note=62 velocity=127 time=0.0125\n",
      "note_off channel=0 note=60 velocity=127 time=0.003125\n",
      "note_off channel=0 note=61 velocity=127 time=0.004166666666666667\n",
      "note_on channel=0 note=62 velocity=127 time=0.04791666666666666\n",
      "note_off channel=0 note=62 velocity=127 time=0.019791666666666666\n",
      "note_on channel=0 note=61 velocity=127 time=0.00625\n",
      "note_on channel=0 note=60 velocity=127 time=0.003125\n",
      "note_off channel=0 note=61 velocity=127 time=0.016666666666666666\n",
      "note_off channel=0 note=60 velocity=127 time=0.003125\n",
      "note_on channel=0 note=62 velocity=127 time=0.026041666666666668\n",
      "note_off channel=0 note=62 velocity=127 time=0.019791666666666666\n",
      "note_on channel=0 note=61 velocity=127 time=0.025\n",
      "note_on channel=0 note=60 velocity=127 time=0.011458333333333333\n",
      "note_off channel=0 note=61 velocity=127 time=0.009375\n",
      "note_on channel=0 note=62 velocity=127 time=0.010416666666666666\n",
      "note_off channel=0 note=60 velocity=127 time=0.0010416666666666667\n",
      "note_off channel=0 note=62 velocity=127 time=0.01875\n",
      "note_on channel=0 note=61 velocity=127 time=0.04479166666666667\n",
      "note_on channel=0 note=62 velocity=127 time=0.011458333333333333\n",
      "note_on channel=0 note=60 velocity=127 time=0.007291666666666667\n",
      "note_off channel=0 note=61 velocity=127 time=0.0010416666666666667\n",
      "note_off channel=0 note=62 velocity=127 time=0.011458333333333333\n",
      "note_off channel=0 note=60 velocity=127 time=0.007291666666666667\n",
      "note_on channel=0 note=62 velocity=127 time=0.04791666666666666\n",
      "note_on channel=0 note=61 velocity=127 time=0.008333333333333333\n",
      "note_off channel=0 note=62 velocity=127 time=0.0125\n",
      "\u001b[91m [DEBUG] > \u001b[0m\n",
      " |>  to_array: msg.time > max_t; t, n\n",
      " |>  2.995833333333333\n",
      " |>  150\n",
      "note_on channel=0 note=62 velocity=127 time=0.010416666666666666\n",
      "note_on channel=0 note=60 velocity=127 time=0\n",
      "note_off channel=0 note=62 velocity=127 time=0.019791666666666666\n",
      "note_off channel=0 note=60 velocity=127 time=0\n",
      "note_on channel=0 note=60 velocity=127 time=0.04791666666666666\n",
      "note_on channel=0 note=62 velocity=127 time=0.01875\n",
      "note_off channel=0 note=60 velocity=127 time=0.0010416666666666667\n",
      "note_off channel=0 note=62 velocity=127 time=0.01875\n",
      "note_on channel=0 note=60 velocity=127 time=0.028125\n",
      "note_off channel=0 note=60 velocity=127 time=0.019791666666666666\n",
      "note_on channel=0 note=62 velocity=127 time=0.01875\n",
      "note_off channel=0 note=62 velocity=127 time=0.019791666666666666\n",
      "note_on channel=0 note=61 velocity=127 time=0.008333333333333333\n",
      "note_on channel=0 note=60 velocity=127 time=0.0010416666666666667\n"
     ]
    },
    {
     "name": "stdout",
     "output_type": "stream",
     "text": [
      "note_off channel=0 note=61 velocity=127 time=0.019791666666666666\n",
      "note_off channel=0 note=60 velocity=127 time=0.0010416666666666667\n",
      "note_on channel=0 note=62 velocity=127 time=0.0375\n",
      "note_on channel=0 note=60 velocity=127 time=0.009375\n",
      "note_off channel=0 note=62 velocity=127 time=0.010416666666666666\n",
      "note_off channel=0 note=60 velocity=127 time=0.009375\n",
      "note_on channel=0 note=60 velocity=127 time=0.04791666666666666\n",
      "note_on channel=0 note=62 velocity=127 time=0.009375\n",
      "note_off channel=0 note=60 velocity=127 time=0.010416666666666666\n",
      "note_off channel=0 note=62 velocity=127 time=0.009375\n",
      "note_on channel=0 note=60 velocity=127 time=0.0375\n",
      "note_off channel=0 note=60 velocity=127 time=0.019791666666666666\n",
      "note_on channel=0 note=62 velocity=127 time=0.009375\n",
      "note_off channel=0 note=62 velocity=127 time=0.019791666666666666\n",
      "note_on channel=0 note=61 velocity=127 time=0.003125\n",
      "note_on channel=0 note=60 velocity=127 time=0.014583333333333334\n",
      "note_off channel=0 note=61 velocity=127 time=0.005208333333333333\n",
      "note_off channel=0 note=60 velocity=127 time=0.014583333333333334\n",
      "note_on channel=0 note=62 velocity=127 time=0.028125\n",
      "note_on channel=0 note=60 velocity=127 time=0.01875\n",
      "note_off channel=0 note=62 velocity=127 time=0.0010416666666666667\n",
      "note_off channel=0 note=60 velocity=127 time=0.01875\n",
      "note_on channel=0 note=60 velocity=127 time=0.04791666666666666\n",
      "note_on channel=0 note=62 velocity=127 time=0\n",
      "note_off channel=0 note=60 velocity=127 time=0.019791666666666666\n",
      "note_off channel=0 note=62 velocity=127 time=0\n",
      "note_on channel=0 note=60 velocity=127 time=0.046875\n",
      "note_on channel=0 note=62 velocity=127 time=0.019791666666666666\n",
      "note_off channel=0 note=60 velocity=127 time=0\n",
      "note_on channel=0 note=61 velocity=127 time=0.01875\n",
      "note_off channel=0 note=62 velocity=127 time=0.0010416666666666667\n",
      "note_off channel=0 note=61 velocity=127 time=0.01875\n",
      "note_on channel=0 note=60 velocity=127 time=0.009375\n",
      "note_off channel=0 note=60 velocity=127 time=0.019791666666666666\n",
      "note_on channel=0 note=62 velocity=127 time=0.01875\n",
      "note_off channel=0 note=62 velocity=127 time=0.019791666666666666\n",
      "note_on channel=0 note=60 velocity=127 time=0.008333333333333333\n",
      "note_off channel=0 note=60 velocity=127 time=0.019791666666666666\n",
      "note_on channel=0 note=62 velocity=127 time=0.03854166666666667\n",
      "note_on channel=0 note=60 velocity=127 time=0.009375\n",
      "note_off channel=0 note=62 velocity=127 time=0.010416666666666666\n",
      "note_off channel=0 note=60 velocity=127 time=0.009375\n",
      "note_on channel=0 note=60 velocity=127 time=0.04791666666666666\n",
      "note_on channel=0 note=62 velocity=127 time=0.010416666666666666\n",
      "note_off channel=0 note=60 velocity=127 time=0.009375\n",
      "note_on channel=0 note=61 velocity=127 time=0.004166666666666667\n",
      "note_off channel=0 note=62 velocity=127 time=0.00625\n",
      "note_off channel=0 note=61 velocity=127 time=0.013541666666666667\n",
      "note_on channel=0 note=60 velocity=127 time=0.022916666666666665\n",
      "note_off channel=0 note=60 velocity=127 time=0.019791666666666666\n",
      "note_on channel=0 note=62 velocity=127 time=0.009375\n",
      "note_off channel=0 note=62 velocity=127 time=0.019791666666666666\n",
      "note_on channel=0 note=60 velocity=127 time=0.017708333333333333\n",
      "note_off channel=0 note=60 velocity=127 time=0.019791666666666666\n",
      "note_on channel=0 note=62 velocity=127 time=0.029166666666666667\n",
      "note_on channel=0 note=60 velocity=127 time=0.01875\n",
      "note_off channel=0 note=62 velocity=127 time=0.0010416666666666667\n",
      "note_off channel=0 note=60 velocity=127 time=0.01875\n",
      "note_on channel=0 note=60 velocity=127 time=0.04791666666666666\n",
      "note_on channel=0 note=62 velocity=127 time=0.0010416666666666667\n",
      "note_on channel=0 note=61 velocity=127 time=0.009375\n",
      "note_off channel=0 note=60 velocity=127 time=0.010416666666666666\n",
      "note_off channel=0 note=62 velocity=127 time=0.0010416666666666667\n",
      "note_off channel=0 note=61 velocity=127 time=0.009375\n",
      "note_on channel=0 note=60 velocity=127 time=0.0375\n",
      "note_off channel=0 note=60 velocity=127 time=0.019791666666666666\n",
      "note_on channel=0 note=62 velocity=127 time=0\n",
      "note_off channel=0 note=62 velocity=127 time=0.019791666666666666\n",
      "note_on channel=0 note=60 velocity=127 time=0.027083333333333334\n",
      "note_off channel=0 note=60 velocity=127 time=0.019791666666666666\n",
      "note_on channel=0 note=62 velocity=127 time=0.019791666666666666\n",
      "note_off channel=0 note=62 velocity=127 time=0.019791666666666666\n",
      "note_on channel=0 note=60 velocity=127 time=0.008333333333333333\n",
      "note_off channel=0 note=60 velocity=127 time=0.019791666666666666\n",
      "note_on channel=0 note=62 velocity=127 time=0.03854166666666667\n",
      "note_on channel=0 note=61 velocity=127 time=0.004166666666666667\n",
      "note_on channel=0 note=60 velocity=127 time=0.004166666666666667\n",
      "note_off channel=0 note=62 velocity=127 time=0.011458333333333333\n",
      "note_off channel=0 note=61 velocity=127 time=0.004166666666666667\n",
      "note_off channel=0 note=60 velocity=127 time=0.004166666666666667\n",
      "note_on channel=0 note=60 velocity=127 time=0.04791666666666666\n",
      "note_on channel=0 note=62 velocity=127 time=0.010416666666666666\n",
      "note_off channel=0 note=60 velocity=127 time=0.009375\n",
      "note_off channel=0 note=62 velocity=127 time=0.010416666666666666\n",
      "note_on channel=0 note=60 velocity=127 time=0.0375\n",
      "note_off channel=0 note=60 velocity=127 time=0.019791666666666666\n",
      "note_on channel=0 note=62 velocity=127 time=0.010416666666666666\n",
      "note_off channel=0 note=62 velocity=127 time=0.019791666666666666\n",
      "note_on channel=0 note=60 velocity=127 time=0.017708333333333333\n",
      "note_off channel=0 note=60 velocity=127 time=0.019791666666666666\n",
      "note_on channel=0 note=61 velocity=127 time=0.029166666666666667\n",
      "note_on channel=0 note=62 velocity=127 time=0\n",
      "note_on channel=0 note=60 velocity=127 time=0.01875\n",
      "note_off channel=0 note=61 velocity=127 time=0.0010416666666666667\n",
      "note_off channel=0 note=62 velocity=127 time=0\n",
      "note_off channel=0 note=60 velocity=127 time=0.01875\n",
      "note_on channel=0 note=60 velocity=127 time=0.04791666666666666\n",
      "note_on channel=0 note=62 velocity=127 time=0.0010416666666666667\n",
      "note_off channel=0 note=60 velocity=127 time=0.01875\n",
      "note_off channel=0 note=62 velocity=127 time=0.0010416666666666667\n",
      "note_on channel=0 note=60 velocity=127 time=0.046875\n",
      "note_off channel=0 note=60 velocity=127 time=0.019791666666666666\n",
      "note_on channel=0 note=62 velocity=127 time=0\n",
      "note_off channel=0 note=62 velocity=127 time=0.019791666666666666\n",
      "note_on channel=0 note=60 velocity=127 time=0.027083333333333334\n",
      "note_off channel=0 note=60 velocity=127 time=0.019791666666666666\n",
      "note_on channel=0 note=61 velocity=127 time=0.014583333333333334\n",
      "note_on channel=0 note=62 velocity=127 time=0.005208333333333333\n",
      "note_off channel=0 note=61 velocity=127 time=0.014583333333333334\n",
      "note_off channel=0 note=62 velocity=127 time=0.005208333333333333\n",
      "note_on channel=0 note=60 velocity=127 time=0.007291666666666667\n",
      "note_off channel=0 note=60 velocity=127 time=0.019791666666666666\n",
      "note_on channel=0 note=62 velocity=127 time=0.03958333333333333\n",
      "note_on channel=0 note=60 velocity=127 time=0.008333333333333333\n",
      "note_off channel=0 note=62 velocity=127 time=0.011458333333333333\n",
      "note_off channel=0 note=60 velocity=127 time=0.008333333333333333\n",
      "note_on channel=0 note=60 velocity=127 time=0.04791666666666666\n",
      "note_on channel=0 note=62 velocity=127 time=0.011458333333333333\n",
      "note_off channel=0 note=60 velocity=127 time=0.009375\n",
      "note_off channel=0 note=62 velocity=127 time=0.011458333333333333\n",
      "note_on channel=0 note=60 velocity=127 time=0.036458333333333336\n",
      "note_off channel=0 note=60 velocity=127 time=0.019791666666666666\n",
      "note_on channel=0 note=61 velocity=127 time=0\n",
      "note_on channel=0 note=62 velocity=127 time=0.010416666666666666\n",
      "note_off channel=0 note=61 velocity=127 time=0.010416666666666666\n",
      "note_off channel=0 note=62 velocity=127 time=0.010416666666666666\n",
      "note_on channel=0 note=60 velocity=127 time=0.017708333333333333\n",
      "note_off channel=0 note=60 velocity=127 time=0.019791666666666666\n",
      "note_on channel=0 note=62 velocity=127 time=0.030208333333333334\n",
      "note_on channel=0 note=60 velocity=127 time=0.017708333333333333\n",
      "note_off channel=0 note=62 velocity=127 time=0.0020833333333333333\n",
      "note_off channel=0 note=60 velocity=127 time=0.017708333333333333\n",
      "note_on channel=0 note=60 velocity=127 time=0.04791666666666666\n",
      "note_on channel=0 note=62 velocity=127 time=0.0010416666666666667\n",
      "note_off channel=0 note=60 velocity=127 time=0.01875\n",
      "note_off channel=0 note=62 velocity=127 time=0.0010416666666666667\n",
      "note_on channel=0 note=60 velocity=127 time=0.04583333333333333\n",
      "note_on channel=0 note=61 velocity=127 time=0.00625\n",
      "note_off channel=0 note=60 velocity=127 time=0.013541666666666667\n",
      "note_on channel=0 note=62 velocity=127 time=0.0010416666666666667\n",
      "note_off channel=0 note=61 velocity=127 time=0.005208333333333333\n",
      "note_off channel=0 note=62 velocity=127 time=0.014583333333333334\n",
      "note_on channel=0 note=60 velocity=127 time=0.027083333333333334\n",
      "note_off channel=0 note=60 velocity=127 time=0.019791666666666666\n",
      "note_on channel=0 note=62 velocity=127 time=0.019791666666666666\n",
      "note_off channel=0 note=62 velocity=127 time=0.019791666666666666\n",
      "note_on channel=0 note=60 velocity=127 time=0.007291666666666667\n",
      "note_off channel=0 note=60 velocity=127 time=0.019791666666666666\n",
      "note_on channel=0 note=62 velocity=127 time=0.03958333333333333\n",
      "note_on channel=0 note=60 velocity=127 time=0.008333333333333333\n",
      "note_off channel=0 note=62 velocity=127 time=0.0125\n",
      "note_off channel=0 note=60 velocity=127 time=0.008333333333333333\n",
      "note_on channel=0 note=61 velocity=127 time=0.03958333333333333\n",
      "note_on channel=0 note=60 velocity=127 time=0.008333333333333333\n",
      "note_on channel=0 note=62 velocity=127 time=0.011458333333333333\n",
      "note_off channel=0 note=61 velocity=127 time=0\n",
      "note_off channel=0 note=60 velocity=127 time=0.008333333333333333\n",
      "note_off channel=0 note=62 velocity=127 time=0.011458333333333333\n",
      "note_on channel=0 note=60 velocity=127 time=0.036458333333333336\n",
      "note_off channel=0 note=60 velocity=127 time=0.019791666666666666\n",
      "note_on channel=0 note=62 velocity=127 time=0.010416666666666666\n",
      "note_off channel=0 note=62 velocity=127 time=0.019791666666666666\n",
      "note_on channel=0 note=60 velocity=127 time=0.016666666666666666\n",
      "note_off channel=0 note=60 velocity=127 time=0.019791666666666666\n",
      "note_on channel=0 note=62 velocity=127 time=0.030208333333333334\n",
      "note_on channel=0 note=60 velocity=127 time=0.017708333333333333\n",
      "note_off channel=0 note=62 velocity=127 time=0.003125\n",
      "note_off channel=0 note=60 velocity=127 time=0.017708333333333333\n",
      "\u001b[91m [DEBUG] > \u001b[0m\n",
      " |>  to_array: msg.time > max_t; t, n\n",
      " |>  2.998958333333333\n",
      " |>  150\n",
      "note_on channel=0 note=60 velocity=127 time=0.0020833333333333333\n",
      "note_off channel=0 note=60 velocity=127 time=0.019791666666666666\n",
      "note_on channel=0 note=62 velocity=127 time=0.04791666666666666\n",
      "note_on channel=0 note=61 velocity=127 time=0.009375\n",
      "note_off channel=0 note=62 velocity=127 time=0.010416666666666666\n",
      "note_off channel=0 note=61 velocity=127 time=0.009375\n",
      "note_on channel=0 note=60 velocity=127 time=0.016666666666666666\n",
      "note_off channel=0 note=60 velocity=127 time=0.019791666666666666\n",
      "note_on channel=0 note=62 velocity=127 time=0.016666666666666666\n",
      "note_off channel=0 note=62 velocity=127 time=0.019791666666666666\n",
      "note_on channel=0 note=60 velocity=127 time=0.058333333333333334\n",
      "note_on channel=0 note=61 velocity=127 time=0.0010416666666666667\n",
      "note_on channel=0 note=62 velocity=127 time=0.004166666666666667\n",
      "note_off channel=0 note=60 velocity=127 time=0.014583333333333334\n",
      "note_off channel=0 note=61 velocity=127 time=0.0010416666666666667\n",
      "note_off channel=0 note=62 velocity=127 time=0.004166666666666667\n",
      "note_on channel=0 note=62 velocity=127 time=0.06354166666666666\n",
      "note_off channel=0 note=62 velocity=127 time=0.019791666666666666\n",
      "note_on channel=0 note=60 velocity=127 time=0.00625\n",
      "note_off channel=0 note=60 velocity=127 time=0.019791666666666666\n",
      "note_on channel=0 note=61 velocity=127 time=0.01875\n",
      "note_on channel=0 note=62 velocity=127 time=0.01875\n",
      "note_off channel=0 note=61 velocity=127 time=0.0010416666666666667\n",
      "note_off channel=0 note=62 velocity=127 time=0.01875\n",
      "note_on channel=0 note=60 velocity=127 time=0.0375\n",
      "note_off channel=0 note=60 velocity=127 time=0.019791666666666666\n",
      "note_on channel=0 note=62 velocity=127 time=0.00625\n",
      "note_off channel=0 note=62 velocity=127 time=0.019791666666666666\n",
      "note_on channel=0 note=61 velocity=127 time=0.03125\n",
      "note_off channel=0 note=61 velocity=127 time=0.019791666666666666\n",
      "note_on channel=0 note=62 velocity=127 time=0.0125\n",
      "note_on channel=0 note=60 velocity=127 time=0.005208333333333333\n",
      "note_off channel=0 note=62 velocity=127 time=0.015625\n",
      "note_off channel=0 note=60 velocity=127 time=0.005208333333333333\n",
      "note_on channel=0 note=62 velocity=127 time=0.058333333333333334\n",
      "note_off channel=0 note=62 velocity=127 time=0.019791666666666666\n",
      "note_on channel=0 note=60 velocity=127 time=0.016666666666666666\n",
      "note_on channel=0 note=61 velocity=127 time=0\n",
      "note_off channel=0 note=60 velocity=127 time=0.019791666666666666\n",
      "note_off channel=0 note=61 velocity=127 time=0\n",
      "note_on channel=0 note=62 velocity=127 time=0.027083333333333334\n",
      "note_off channel=0 note=62 velocity=127 time=0.019791666666666666\n",
      "note_on channel=0 note=60 velocity=127 time=0.04791666666666666\n",
      "note_on channel=0 note=62 velocity=127 time=0.015625\n",
      "note_off channel=0 note=60 velocity=127 time=0.004166666666666667\n",
      "note_off channel=0 note=62 velocity=127 time=0.015625\n",
      "note_on channel=0 note=61 velocity=127 time=0.0020833333333333333\n",
      "note_off channel=0 note=61 velocity=127 time=0.019791666666666666\n",
      "note_on channel=0 note=62 velocity=127 time=0.040625\n",
      "note_on channel=0 note=60 velocity=127 time=0.015625\n",
      "note_off channel=0 note=62 velocity=127 time=0.005208333333333333\n",
      "note_off channel=0 note=60 velocity=127 time=0.015625\n",
      "note_on channel=0 note=62 velocity=127 time=0.04791666666666666\n",
      "note_on channel=0 note=61 velocity=127 time=0.008333333333333333\n",
      "note_off channel=0 note=62 velocity=127 time=0.011458333333333333\n",
      "note_off channel=0 note=61 velocity=127 time=0.008333333333333333\n",
      "note_on channel=0 note=60 velocity=127 time=0.017708333333333333\n",
      "note_off channel=0 note=60 velocity=127 time=0.019791666666666666\n",
      "note_on channel=0 note=62 velocity=127 time=0.016666666666666666\n",
      "note_off channel=0 note=62 velocity=127 time=0.019791666666666666\n",
      "note_on channel=0 note=60 velocity=127 time=0.057291666666666664\n",
      "note_on channel=0 note=61 velocity=127 time=0\n",
      "note_on channel=0 note=62 velocity=127 time=0.005208333333333333\n",
      "note_off channel=0 note=60 velocity=127 time=0.014583333333333334\n",
      "note_off channel=0 note=61 velocity=127 time=0\n",
      "note_off channel=0 note=62 velocity=127 time=0.005208333333333333\n",
      "note_on channel=0 note=62 velocity=127 time=0.06354166666666666\n",
      "note_off channel=0 note=62 velocity=127 time=0.019791666666666666\n",
      "note_on channel=0 note=60 velocity=127 time=0.005208333333333333\n",
      "note_off channel=0 note=60 velocity=127 time=0.019791666666666666\n",
      "note_on channel=0 note=61 velocity=127 time=0.017708333333333333\n",
      "note_on channel=0 note=62 velocity=127 time=0.019791666666666666\n",
      "note_off channel=0 note=61 velocity=127 time=0\n",
      "note_off channel=0 note=62 velocity=127 time=0.019791666666666666\n",
      "note_on channel=0 note=60 velocity=127 time=0.036458333333333336\n",
      "note_off channel=0 note=60 velocity=127 time=0.019791666666666666\n",
      "note_on channel=0 note=62 velocity=127 time=0.00625\n",
      "note_off channel=0 note=62 velocity=127 time=0.019791666666666666\n",
      "note_on channel=0 note=61 velocity=127 time=0.029166666666666667\n",
      "note_off channel=0 note=61 velocity=127 time=0.019791666666666666\n",
      "note_on channel=0 note=62 velocity=127 time=0.013541666666666667\n",
      "note_on channel=0 note=60 velocity=127 time=0.004166666666666667\n",
      "note_off channel=0 note=62 velocity=127 time=0.015625\n",
      "note_off channel=0 note=60 velocity=127 time=0.004166666666666667\n",
      "note_on channel=0 note=62 velocity=127 time=0.058333333333333334\n",
      "note_off channel=0 note=62 velocity=127 time=0.019791666666666666\n",
      "note_on channel=0 note=61 velocity=127 time=0.015625\n",
      "note_on channel=0 note=60 velocity=127 time=0\n",
      "note_off channel=0 note=61 velocity=127 time=0.019791666666666666\n",
      "note_off channel=0 note=60 velocity=127 time=0\n",
      "note_on channel=0 note=62 velocity=127 time=0.027083333333333334\n",
      "note_off channel=0 note=62 velocity=127 time=0.019791666666666666\n",
      "note_on channel=0 note=60 velocity=127 time=0.046875\n",
      "note_on channel=0 note=62 velocity=127 time=0.016666666666666666\n",
      "note_off channel=0 note=60 velocity=127 time=0.004166666666666667\n",
      "note_off channel=0 note=62 velocity=127 time=0.016666666666666666\n",
      "note_on channel=0 note=61 velocity=127 time=0.0010416666666666667\n",
      "note_off channel=0 note=61 velocity=127 time=0.019791666666666666\n",
      "note_on channel=0 note=62 velocity=127 time=0.041666666666666664\n",
      "note_on channel=0 note=60 velocity=127 time=0.014583333333333334\n",
      "note_off channel=0 note=62 velocity=127 time=0.005208333333333333\n",
      "note_off channel=0 note=60 velocity=127 time=0.014583333333333334\n",
      "note_on channel=0 note=62 velocity=127 time=0.04895833333333333\n",
      "note_on channel=0 note=61 velocity=127 time=0.007291666666666667\n",
      "note_off channel=0 note=62 velocity=127 time=0.0125\n",
      "note_off channel=0 note=61 velocity=127 time=0.007291666666666667\n",
      "note_on channel=0 note=60 velocity=127 time=0.01875\n",
      "note_off channel=0 note=60 velocity=127 time=0.019791666666666666\n",
      "note_on channel=0 note=62 velocity=127 time=0.017708333333333333\n",
      "note_off channel=0 note=62 velocity=127 time=0.019791666666666666\n",
      "note_on channel=0 note=61 velocity=127 time=0.05625\n",
      "note_on channel=0 note=60 velocity=127 time=0.0010416666666666667\n",
      "note_on channel=0 note=62 velocity=127 time=0.00625\n",
      "note_off channel=0 note=61 velocity=127 time=0.013541666666666667\n",
      "note_off channel=0 note=60 velocity=127 time=0.0010416666666666667\n",
      "note_off channel=0 note=62 velocity=127 time=0.00625\n",
      "note_on channel=0 note=62 velocity=127 time=0.06354166666666666\n",
      "note_off channel=0 note=62 velocity=127 time=0.019791666666666666\n",
      "note_on channel=0 note=60 velocity=127 time=0.005208333333333333\n",
      "note_off channel=0 note=60 velocity=127 time=0.019791666666666666\n",
      "note_on channel=0 note=61 velocity=127 time=0.017708333333333333\n",
      "note_off channel=0 note=61 velocity=127 time=0.019791666666666666\n",
      "note_on channel=0 note=62 velocity=127 time=0.0010416666666666667\n",
      "note_off channel=0 note=62 velocity=127 time=0.019791666666666666\n",
      "note_on channel=0 note=60 velocity=127 time=0.036458333333333336\n",
      "note_off channel=0 note=60 velocity=127 time=0.019791666666666666\n",
      "note_on channel=0 note=62 velocity=127 time=0.007291666666666667\n",
      "note_off channel=0 note=62 velocity=127 time=0.019791666666666666\n",
      "note_on channel=0 note=61 velocity=127 time=0.028125\n",
      "note_off channel=0 note=61 velocity=127 time=0.019791666666666666\n",
      "note_on channel=0 note=62 velocity=127 time=0.014583333333333334\n",
      "note_on channel=0 note=60 velocity=127 time=0.004166666666666667\n",
      "note_off channel=0 note=62 velocity=127 time=0.015625\n",
      "note_off channel=0 note=60 velocity=127 time=0.004166666666666667\n",
      "note_on channel=0 note=62 velocity=127 time=0.059375\n",
      "note_off channel=0 note=62 velocity=127 time=0.019791666666666666\n",
      "note_on channel=0 note=61 velocity=127 time=0.014583333333333334\n",
      "note_on channel=0 note=60 velocity=127 time=0.0010416666666666667\n",
      "note_off channel=0 note=61 velocity=127 time=0.01875\n",
      "note_off channel=0 note=60 velocity=127 time=0.0010416666666666667\n",
      "note_on channel=0 note=62 velocity=127 time=0.028125\n",
      "note_off channel=0 note=62 velocity=127 time=0.019791666666666666\n",
      "note_on channel=0 note=60 velocity=127 time=0.046875\n",
      "note_on channel=0 note=62 velocity=127 time=0.016666666666666666\n",
      "note_off channel=0 note=60 velocity=127 time=0.003125\n",
      "note_off channel=0 note=62 velocity=127 time=0.016666666666666666\n",
      "note_on channel=0 note=61 velocity=127 time=0\n",
      "note_off channel=0 note=61 velocity=127 time=0.019791666666666666\n",
      "note_on channel=0 note=62 velocity=127 time=0.042708333333333334\n",
      "note_on channel=0 note=60 velocity=127 time=0.014583333333333334\n",
      "note_off channel=0 note=62 velocity=127 time=0.005208333333333333\n",
      "note_off channel=0 note=60 velocity=127 time=0.014583333333333334\n",
      "note_on channel=0 note=62 velocity=127 time=0.04895833333333333\n",
      "note_on channel=0 note=61 velocity=127 time=0.00625\n",
      "note_off channel=0 note=62 velocity=127 time=0.013541666666666667\n",
      "note_off channel=0 note=61 velocity=127 time=0.00625\n",
      "note_on channel=0 note=60 velocity=127 time=0.019791666666666666\n",
      "note_off channel=0 note=60 velocity=127 time=0.019791666666666666\n",
      "note_on channel=0 note=62 velocity=127 time=0.017708333333333333\n",
      "note_off channel=0 note=62 velocity=127 time=0.019791666666666666\n",
      "note_on channel=0 note=61 velocity=127 time=0.05520833333333333\n",
      "note_on channel=0 note=60 velocity=127 time=0.0020833333333333333\n",
      "note_on channel=0 note=62 velocity=127 time=0.00625\n",
      "note_off channel=0 note=61 velocity=127 time=0.0125\n",
      "\u001b[91m [DEBUG] > \u001b[0m\n",
      " |>  to_array: msg.time > max_t; t, n\n",
      " |>  2.990625000000003\n",
      " |>  150\n",
      "note_on channel=0 note=60 velocity=127 time=0.03333333333333333\n",
      "note_on channel=0 note=61 velocity=127 time=0.010416666666666666\n",
      "note_on channel=0 note=62 velocity=127 time=0.004166666666666667\n",
      "note_off channel=0 note=60 velocity=127 time=0.005208333333333333\n",
      "note_off channel=0 note=61 velocity=127 time=0.010416666666666666\n",
      "note_off channel=0 note=62 velocity=127 time=0.004166666666666667\n",
      "note_on channel=0 note=60 velocity=127 time=0.05520833333333333\n",
      "note_off channel=0 note=60 velocity=127 time=0.019791666666666666\n",
      "note_on channel=0 note=62 velocity=127 time=0.040625\n",
      "note_on channel=0 note=61 velocity=127 time=0.009375\n",
      "note_off channel=0 note=62 velocity=127 time=0.010416666666666666\n",
      "note_off channel=0 note=61 velocity=127 time=0.009375\n",
      "note_on channel=0 note=60 velocity=127 time=0\n",
      "note_off channel=0 note=60 velocity=127 time=0.019791666666666666\n",
      "note_on channel=0 note=60 velocity=127 time=0.07083333333333333\n",
      "note_on channel=0 note=62 velocity=127 time=0.015625\n",
      "note_off channel=0 note=60 velocity=127 time=0.004166666666666667\n",
      "note_off channel=0 note=62 velocity=127 time=0.015625\n",
      "note_on channel=0 note=61 velocity=127 time=0.004166666666666667\n",
      "note_off channel=0 note=61 velocity=127 time=0.019791666666666666\n",
      "note_on channel=0 note=60 velocity=127 time=0.03125\n",
      "note_off channel=0 note=60 velocity=127 time=0.019791666666666666\n",
      "note_on channel=0 note=62 velocity=127 time=0.040625\n",
      "note_off channel=0 note=62 velocity=127 time=0.019791666666666666\n",
      "note_on channel=0 note=60 velocity=127 time=0.009375\n",
      "note_on channel=0 note=61 velocity=127 time=0.008333333333333333\n",
      "note_off channel=0 note=60 velocity=127 time=0.011458333333333333\n",
      "note_off channel=0 note=61 velocity=127 time=0.008333333333333333\n",
      "note_on channel=0 note=60 velocity=127 time=0.0625\n",
      "note_on channel=0 note=62 velocity=127 time=0.015625\n",
      "note_off channel=0 note=60 velocity=127 time=0.004166666666666667\n",
      "note_off channel=0 note=62 velocity=127 time=0.015625\n",
      "note_on channel=0 note=61 velocity=127 time=0.03229166666666666\n",
      "note_off channel=0 note=61 velocity=127 time=0.019791666666666666\n",
      "note_on channel=0 note=60 velocity=127 time=0.0020833333333333333\n",
      "note_off channel=0 note=60 velocity=127 time=0.019791666666666666\n",
      "note_on channel=0 note=62 velocity=127 time=0.041666666666666664\n",
      "note_off channel=0 note=62 velocity=127 time=0.019791666666666666\n",
      "note_on channel=0 note=60 velocity=127 time=0.009375\n",
      "note_off channel=0 note=60 velocity=127 time=0.019791666666666666\n",
      "note_on channel=0 note=61 velocity=127 time=0.016666666666666666\n",
      "note_off channel=0 note=61 velocity=127 time=0.019791666666666666\n",
      "note_on channel=0 note=60 velocity=127 time=0.03333333333333333\n",
      "note_on channel=0 note=62 velocity=127 time=0.016666666666666666\n",
      "note_off channel=0 note=60 velocity=127 time=0.003125\n",
      "note_off channel=0 note=62 velocity=127 time=0.016666666666666666\n",
      "note_on channel=0 note=60 velocity=127 time=0.05416666666666667\n",
      "note_on channel=0 note=61 velocity=127 time=0.00625\n",
      "note_off channel=0 note=60 velocity=127 time=0.013541666666666667\n",
      "note_off channel=0 note=61 velocity=127 time=0.00625\n",
      "note_on channel=0 note=62 velocity=127 time=0.035416666666666666\n",
      "note_off channel=0 note=62 velocity=127 time=0.019791666666666666\n",
      "note_on channel=0 note=60 velocity=127 time=0.008333333333333333\n",
      "note_off channel=0 note=60 velocity=127 time=0.019791666666666666\n",
      "note_on channel=0 note=61 velocity=127 time=0.04583333333333333\n",
      "note_off channel=0 note=61 velocity=127 time=0.019791666666666666\n",
      "note_on channel=0 note=60 velocity=127 time=0.004166666666666667\n",
      "note_on channel=0 note=62 velocity=127 time=0.016666666666666666\n",
      "note_off channel=0 note=60 velocity=127 time=0.003125\n",
      "note_off channel=0 note=62 velocity=127 time=0.016666666666666666\n",
      "note_on channel=0 note=60 velocity=127 time=0.053125\n",
      "note_off channel=0 note=60 velocity=127 time=0.019791666666666666\n",
      "note_on channel=0 note=61 velocity=127 time=0.014583333333333334\n",
      "note_off channel=0 note=61 velocity=127 time=0.019791666666666666\n",
      "note_on channel=0 note=62 velocity=127 time=0.007291666666666667\n",
      "note_off channel=0 note=62 velocity=127 time=0.019791666666666666\n",
      "note_on channel=0 note=60 velocity=127 time=0.008333333333333333\n",
      "note_off channel=0 note=60 velocity=127 time=0.019791666666666666\n",
      "note_on channel=0 note=60 velocity=127 time=0.07083333333333333\n",
      "note_on channel=0 note=61 velocity=127 time=0.004166666666666667\n",
      "note_on channel=0 note=62 velocity=127 time=0.013541666666666667\n",
      "note_off channel=0 note=60 velocity=127 time=0.0020833333333333333\n",
      "note_off channel=0 note=61 velocity=127 time=0.004166666666666667\n",
      "note_off channel=0 note=62 velocity=127 time=0.013541666666666667\n",
      "note_on channel=0 note=60 velocity=127 time=0.053125\n",
      "note_off channel=0 note=60 velocity=127 time=0.019791666666666666\n",
      "note_on channel=0 note=62 velocity=127 time=0.042708333333333334\n",
      "note_on channel=0 note=61 velocity=127 time=0.0010416666666666667\n",
      "note_off channel=0 note=62 velocity=127 time=0.01875\n",
      "note_off channel=0 note=61 velocity=127 time=0.0010416666666666667\n",
      "note_on channel=0 note=60 velocity=127 time=0.00625\n",
      "note_off channel=0 note=60 velocity=127 time=0.019791666666666666\n",
      "note_on channel=0 note=60 velocity=127 time=0.07083333333333333\n",
      "note_on channel=0 note=62 velocity=127 time=0.017708333333333333\n",
      "note_off channel=0 note=60 velocity=127 time=0.0020833333333333333\n",
      "note_on channel=0 note=61 velocity=127 time=0.0125\n",
      "note_off channel=0 note=62 velocity=127 time=0.005208333333333333\n",
      "note_off channel=0 note=61 velocity=127 time=0.014583333333333334\n",
      "note_on channel=0 note=60 velocity=127 time=0.0375\n",
      "note_off channel=0 note=60 velocity=127 time=0.019791666666666666\n",
      "note_on channel=0 note=62 velocity=127 time=0.04375\n",
      "note_off channel=0 note=62 velocity=127 time=0.019791666666666666\n",
      "note_on channel=0 note=60 velocity=127 time=0.007291666666666667\n",
      "note_on channel=0 note=61 velocity=127 time=0.0020833333333333333\n",
      "note_off channel=0 note=60 velocity=127 time=0.017708333333333333\n",
      "note_off channel=0 note=61 velocity=127 time=0.0020833333333333333\n",
      "note_on channel=0 note=60 velocity=127 time=0.06770833333333333\n",
      "note_on channel=0 note=62 velocity=127 time=0.01875\n",
      "note_off channel=0 note=60 velocity=127 time=0.0010416666666666667\n",
      "note_off channel=0 note=62 velocity=127 time=0.01875\n",
      "note_on channel=0 note=61 velocity=127 time=0.022916666666666665\n",
      "note_off channel=0 note=61 velocity=127 time=0.019791666666666666\n",
      "note_on channel=0 note=60 velocity=127 time=0.008333333333333333\n",
      "note_off channel=0 note=60 velocity=127 time=0.019791666666666666\n",
      "note_on channel=0 note=62 velocity=127 time=0.04375\n",
      "note_off channel=0 note=62 velocity=127 time=0.019791666666666666\n",
      "note_on channel=0 note=60 velocity=127 time=0.00625\n",
      "note_off channel=0 note=60 velocity=127 time=0.019791666666666666\n",
      "note_on channel=0 note=61 velocity=127 time=0.011458333333333333\n",
      "note_off channel=0 note=61 velocity=127 time=0.019791666666666666\n",
      "note_on channel=0 note=60 velocity=127 time=0.03958333333333333\n",
      "note_on channel=0 note=62 velocity=127 time=0.01875\n",
      "note_off channel=0 note=60 velocity=127 time=0.0010416666666666667\n",
      "note_off channel=0 note=62 velocity=127 time=0.01875\n",
      "note_on channel=0 note=60 velocity=127 time=0.051041666666666666\n",
      "note_on channel=0 note=61 velocity=127 time=0\n",
      "note_off channel=0 note=60 velocity=127 time=0.019791666666666666\n",
      "note_off channel=0 note=61 velocity=127 time=0\n",
      "note_on channel=0 note=62 velocity=127 time=0.04479166666666667\n",
      "note_off channel=0 note=62 velocity=127 time=0.019791666666666666\n",
      "note_on channel=0 note=60 velocity=127 time=0.005208333333333333\n",
      "note_off channel=0 note=60 velocity=127 time=0.019791666666666666\n",
      "note_on channel=0 note=61 velocity=127 time=0.03958333333333333\n",
      "note_off channel=0 note=61 velocity=127 time=0.019791666666666666\n",
      "note_on channel=0 note=60 velocity=127 time=0.010416666666666666\n",
      "note_on channel=0 note=62 velocity=127 time=0.019791666666666666\n",
      "note_off channel=0 note=60 velocity=127 time=0\n",
      "note_off channel=0 note=62 velocity=127 time=0.019791666666666666\n",
      "note_on channel=0 note=60 velocity=127 time=0.051041666666666666\n",
      "note_off channel=0 note=60 velocity=127 time=0.019791666666666666\n",
      "note_on channel=0 note=61 velocity=127 time=0.009375\n",
      "note_off channel=0 note=61 velocity=127 time=0.019791666666666666\n",
      "note_on channel=0 note=62 velocity=127 time=0.016666666666666666\n",
      "note_off channel=0 note=62 velocity=127 time=0.019791666666666666\n",
      "note_on channel=0 note=60 velocity=127 time=0.005208333333333333\n",
      "note_off channel=0 note=60 velocity=127 time=0.019791666666666666\n",
      "note_on channel=0 note=61 velocity=127 time=0.06875\n",
      "note_on channel=0 note=60 velocity=127 time=0.0020833333333333333\n",
      "note_off channel=0 note=61 velocity=127 time=0.017708333333333333\n",
      "note_off channel=0 note=60 velocity=127 time=0.0020833333333333333\n",
      "note_on channel=0 note=62 velocity=127 time=0\n",
      "note_off channel=0 note=62 velocity=127 time=0.019791666666666666\n",
      "note_on channel=0 note=60 velocity=127 time=0.05\n",
      "note_off channel=0 note=60 velocity=127 time=0.019791666666666666\n",
      "note_on channel=0 note=61 velocity=127 time=0.0375\n",
      "note_on channel=0 note=62 velocity=127 time=0.008333333333333333\n",
      "note_off channel=0 note=61 velocity=127 time=0.011458333333333333\n",
      "note_off channel=0 note=62 velocity=127 time=0.008333333333333333\n",
      "note_on channel=0 note=60 velocity=127 time=0.004166666666666667\n",
      "note_off channel=0 note=60 velocity=127 time=0.019791666666666666\n",
      "note_on channel=0 note=60 velocity=127 time=0.07083333333333333\n",
      "\u001b[91m [DEBUG] > \u001b[0m\n",
      " |>  to_array: msg.time > max_t; t, n\n",
      " |>  3.0041666666666704\n",
      " |>  150\n",
      "note_on channel=0 note=62 velocity=127 time=0.021875\n",
      "note_off channel=0 note=62 velocity=127 time=0.019791666666666666\n",
      "note_on channel=0 note=61 velocity=127 time=0.02395833333333333\n",
      "note_off channel=0 note=61 velocity=127 time=0.019791666666666666\n",
      "note_on channel=0 note=60 velocity=127 time=0.036458333333333336\n",
      "note_off channel=0 note=60 velocity=127 time=0.019791666666666666\n",
      "note_on channel=0 note=61 velocity=127 time=0.0010416666666666667\n",
      "note_off channel=0 note=61 velocity=127 time=0.019791666666666666\n",
      "note_on channel=0 note=62 velocity=127 time=0.00625\n",
      "note_off channel=0 note=62 velocity=127 time=0.019791666666666666\n",
      "note_on channel=0 note=61 velocity=127 time=0.030208333333333334\n"
     ]
    },
    {
     "name": "stdout",
     "output_type": "stream",
     "text": [
      "note_off channel=0 note=61 velocity=127 time=0.019791666666666666\n",
      "note_on channel=0 note=61 velocity=127 time=0.057291666666666664\n",
      "note_on channel=0 note=60 velocity=127 time=0.008333333333333333\n",
      "note_off channel=0 note=61 velocity=127 time=0.011458333333333333\n",
      "note_on channel=0 note=62 velocity=127 time=0\n",
      "note_off channel=0 note=60 velocity=127 time=0.008333333333333333\n",
      "note_off channel=0 note=62 velocity=127 time=0.011458333333333333\n",
      "note_on channel=0 note=61 velocity=127 time=0.036458333333333336\n",
      "note_off channel=0 note=61 velocity=127 time=0.019791666666666666\n",
      "note_on channel=0 note=61 velocity=127 time=0.057291666666666664\n",
      "note_on channel=0 note=62 velocity=127 time=0.013541666666666667\n",
      "note_off channel=0 note=61 velocity=127 time=0.00625\n",
      "note_off channel=0 note=62 velocity=127 time=0.013541666666666667\n",
      "note_on channel=0 note=60 velocity=127 time=0.004166666666666667\n",
      "note_off channel=0 note=60 velocity=127 time=0.019791666666666666\n",
      "note_on channel=0 note=61 velocity=127 time=0.01875\n",
      "note_off channel=0 note=61 velocity=127 time=0.019791666666666666\n",
      "note_on channel=0 note=61 velocity=127 time=0.057291666666666664\n",
      "note_on channel=0 note=62 velocity=127 time=0.007291666666666667\n",
      "note_off channel=0 note=61 velocity=127 time=0.0125\n",
      "note_off channel=0 note=62 velocity=127 time=0.007291666666666667\n",
      "note_on channel=0 note=60 velocity=127 time=0.040625\n",
      "note_on channel=0 note=61 velocity=127 time=0.009375\n",
      "note_off channel=0 note=60 velocity=127 time=0.011458333333333333\n",
      "note_off channel=0 note=61 velocity=127 time=0.009375\n",
      "note_on channel=0 note=61 velocity=127 time=0.057291666666666664\n",
      "note_on channel=0 note=62 velocity=127 time=0.0010416666666666667\n",
      "note_off channel=0 note=61 velocity=127 time=0.01875\n",
      "note_off channel=0 note=62 velocity=127 time=0.0010416666666666667\n",
      "note_on channel=0 note=61 velocity=127 time=0.05625\n",
      "note_off channel=0 note=61 velocity=127 time=0.019791666666666666\n",
      "note_on channel=0 note=60 velocity=127 time=0.0010416666666666667\n",
      "note_off channel=0 note=60 velocity=127 time=0.019791666666666666\n",
      "note_on channel=0 note=62 velocity=127 time=0.03125\n",
      "note_on channel=0 note=61 velocity=127 time=0.005208333333333333\n",
      "note_off channel=0 note=62 velocity=127 time=0.014583333333333334\n",
      "note_off channel=0 note=61 velocity=127 time=0.005208333333333333\n",
      "note_on channel=0 note=61 velocity=127 time=0.057291666666666664\n",
      "note_off channel=0 note=61 velocity=127 time=0.019791666666666666\n",
      "note_on channel=0 note=60 velocity=127 time=0.030208333333333334\n",
      "note_on channel=0 note=62 velocity=127 time=0.015625\n",
      "note_off channel=0 note=60 velocity=127 time=0.004166666666666667\n",
      "note_on channel=0 note=61 velocity=127 time=0.007291666666666667\n",
      "note_off channel=0 note=62 velocity=127 time=0.008333333333333333\n",
      "note_off channel=0 note=61 velocity=127 time=0.011458333333333333\n",
      "note_on channel=0 note=61 velocity=127 time=0.057291666666666664\n",
      "note_off channel=0 note=61 velocity=127 time=0.019791666666666666\n",
      "note_on channel=0 note=62 velocity=127 time=0.03958333333333333\n",
      "note_on channel=0 note=61 velocity=127 time=0.017708333333333333\n",
      "note_off channel=0 note=62 velocity=127 time=0.0020833333333333333\n",
      "note_on channel=0 note=60 velocity=127 time=0\n",
      "note_off channel=0 note=61 velocity=127 time=0.017708333333333333\n",
      "note_off channel=0 note=60 velocity=127 time=0.003125\n",
      "note_on channel=0 note=61 velocity=127 time=0.05416666666666667\n",
      "note_off channel=0 note=61 velocity=127 time=0.019791666666666666\n",
      "note_on channel=0 note=62 velocity=127 time=0.03333333333333333\n",
      "note_off channel=0 note=62 velocity=127 time=0.019791666666666666\n",
      "note_on channel=0 note=61 velocity=127 time=0.004166666666666667\n",
      "note_off channel=0 note=61 velocity=127 time=0.019791666666666666\n",
      "note_on channel=0 note=60 velocity=127 time=0.0125\n",
      "note_off channel=0 note=60 velocity=127 time=0.019791666666666666\n",
      "note_on channel=0 note=61 velocity=127 time=0.025\n",
      "note_off channel=0 note=61 velocity=127 time=0.019791666666666666\n",
      "note_on channel=0 note=62 velocity=127 time=0.027083333333333334\n",
      "note_off channel=0 note=62 velocity=127 time=0.019791666666666666\n",
      "note_on channel=0 note=61 velocity=127 time=0.010416666666666666\n",
      "note_off channel=0 note=61 velocity=127 time=0.019791666666666666\n",
      "note_on channel=0 note=60 velocity=127 time=0.041666666666666664\n",
      "note_on channel=0 note=61 velocity=127 time=0.015625\n",
      "note_off channel=0 note=60 velocity=127 time=0.005208333333333333\n",
      "note_off channel=0 note=61 velocity=127 time=0.015625\n",
      "note_on channel=0 note=62 velocity=127 time=0.020833333333333332\n",
      "note_off channel=0 note=62 velocity=127 time=0.019791666666666666\n",
      "note_on channel=0 note=61 velocity=127 time=0.016666666666666666\n",
      "note_off channel=0 note=61 velocity=127 time=0.019791666666666666\n",
      "note_on channel=0 note=61 velocity=127 time=0.057291666666666664\n",
      "note_on channel=0 note=60 velocity=127 time=0.014583333333333334\n",
      "note_off channel=0 note=61 velocity=127 time=0.005208333333333333\n",
      "note_on channel=0 note=62 velocity=127 time=0.013541666666666667\n",
      "note_off channel=0 note=60 velocity=127 time=0\n",
      "note_off channel=0 note=62 velocity=127 time=0.019791666666666666\n",
      "note_on channel=0 note=61 velocity=127 time=0.022916666666666665\n",
      "note_off channel=0 note=61 velocity=127 time=0.019791666666666666\n",
      "note_on channel=0 note=61 velocity=127 time=0.057291666666666664\n",
      "note_off channel=0 note=61 velocity=127 time=0.019791666666666666\n",
      "note_on channel=0 note=62 velocity=127 time=0.007291666666666667\n",
      "note_on channel=0 note=60 velocity=127 time=0.016666666666666666\n",
      "note_off channel=0 note=62 velocity=127 time=0.003125\n",
      "note_off channel=0 note=60 velocity=127 time=0.016666666666666666\n",
      "note_on channel=0 note=61 velocity=127 time=0.0125\n",
      "note_off channel=0 note=61 velocity=127 time=0.019791666666666666\n",
      "note_on channel=0 note=61 velocity=127 time=0.057291666666666664\n",
      "note_off channel=0 note=61 velocity=127 time=0.019791666666666666\n",
      "note_on channel=0 note=62 velocity=127 time=0.0010416666666666667\n",
      "note_off channel=0 note=62 velocity=127 time=0.019791666666666666\n",
      "note_on channel=0 note=60 velocity=127 time=0.03229166666666666\n",
      "note_on channel=0 note=61 velocity=127 time=0.003125\n",
      "note_off channel=0 note=60 velocity=127 time=0.016666666666666666\n",
      "note_off channel=0 note=61 velocity=127 time=0.003125\n",
      "note_on channel=0 note=61 velocity=127 time=0.057291666666666664\n",
      "note_on channel=0 note=62 velocity=127 time=0.014583333333333334\n",
      "note_off channel=0 note=61 velocity=127 time=0.005208333333333333\n",
      "note_off channel=0 note=62 velocity=127 time=0.014583333333333334\n",
      "note_on channel=0 note=61 velocity=127 time=0.041666666666666664\n",
      "note_off channel=0 note=61 velocity=127 time=0.019791666666666666\n",
      "note_on channel=0 note=60 velocity=127 time=0.00625\n",
      "note_off channel=0 note=60 velocity=127 time=0.019791666666666666\n",
      "note_on channel=0 note=61 velocity=127 time=0.03125\n",
      "note_on channel=0 note=62 velocity=127 time=0.008333333333333333\n",
      "note_off channel=0 note=61 velocity=127 time=0.011458333333333333\n",
      "note_off channel=0 note=62 velocity=127 time=0.008333333333333333\n",
      "note_on channel=0 note=61 velocity=127 time=0.04791666666666666\n",
      "note_off channel=0 note=61 velocity=127 time=0.019791666666666666\n",
      "note_on channel=0 note=60 velocity=127 time=0.035416666666666666\n",
      "note_off channel=0 note=60 velocity=127 time=0.019791666666666666\n",
      "note_on channel=0 note=61 velocity=127 time=0.0010416666666666667\n",
      "note_on channel=0 note=62 velocity=127 time=0.0020833333333333333\n",
      "note_off channel=0 note=61 velocity=127 time=0.017708333333333333\n",
      "note_off channel=0 note=62 velocity=127 time=0.0020833333333333333\n",
      "note_on channel=0 note=61 velocity=127 time=0.05520833333333333\n",
      "note_off channel=0 note=61 velocity=127 time=0.019791666666666666\n",
      "note_on channel=0 note=62 velocity=127 time=0.053125\n",
      "note_on channel=0 note=61 velocity=127 time=0.004166666666666667\n",
      "note_on channel=0 note=60 velocity=127 time=0.008333333333333333\n",
      "note_off channel=0 note=62 velocity=127 time=0.007291666666666667\n",
      "note_off channel=0 note=61 velocity=127 time=0.004166666666666667\n",
      "note_off channel=0 note=60 velocity=127 time=0.008333333333333333\n",
      "note_on channel=0 note=61 velocity=127 time=0.04895833333333333\n",
      "note_off channel=0 note=61 velocity=127 time=0.019791666666666666\n",
      "note_on channel=0 note=62 velocity=127 time=0.046875\n",
      "note_on channel=0 note=61 velocity=127 time=0.010416666666666666\n",
      "note_off channel=0 note=62 velocity=127 time=0.009375\n",
      "note_off channel=0 note=61 velocity=127 time=0.010416666666666666\n",
      "note_on channel=0 note=60 velocity=127 time=0.017708333333333333\n",
      "note_off channel=0 note=60 velocity=127 time=0.019791666666666666\n",
      "note_on channel=0 note=61 velocity=127 time=0.01875\n",
      "note_off channel=0 note=61 velocity=127 time=0.019791666666666666\n",
      "note_on channel=0 note=62 velocity=127 time=0.040625\n",
      "note_on channel=0 note=61 velocity=127 time=0.016666666666666666\n",
      "note_off channel=0 note=62 velocity=127 time=0.003125\n",
      "note_off channel=0 note=61 velocity=127 time=0.016666666666666666\n",
      "\u001b[91m [DEBUG] > \u001b[0m\n",
      " |>  to_array: msg.time > max_t; t, n\n",
      " |>  3.006250000000001\n",
      " |>  150\n",
      "note_on channel=0 note=61 velocity=127 time=0.015625\n",
      "note_off channel=0 note=61 velocity=127 time=0.019791666666666666\n",
      "note_on channel=0 note=60 velocity=127 time=0.03229166666666666\n",
      "note_on channel=0 note=62 velocity=127 time=0.009375\n",
      "note_off channel=0 note=60 velocity=127 time=0.011458333333333333\n",
      "note_on channel=0 note=61 velocity=127 time=0.007291666666666667\n",
      "note_off channel=0 note=62 velocity=127 time=0.0020833333333333333\n",
      "note_off channel=0 note=61 velocity=127 time=0.017708333333333333\n",
      "note_on channel=0 note=60 velocity=127 time=0.03125\n",
      "note_off channel=0 note=60 velocity=127 time=0.019791666666666666\n",
      "note_on channel=0 note=61 velocity=127 time=0.007291666666666667\n",
      "note_off channel=0 note=61 velocity=127 time=0.019791666666666666\n",
      "note_on channel=0 note=62 velocity=127 time=0.013541666666666667\n",
      "note_on channel=0 note=60 velocity=127 time=0.017708333333333333\n",
      "note_off channel=0 note=62 velocity=127 time=0.0020833333333333333\n",
      "note_off channel=0 note=60 velocity=127 time=0.017708333333333333\n",
      "note_on channel=0 note=61 velocity=127 time=0.007291666666666667\n",
      "note_off channel=0 note=61 velocity=127 time=0.019791666666666666\n",
      "note_on channel=0 note=60 velocity=127 time=0.03125\n",
      "note_off channel=0 note=60 velocity=127 time=0.019791666666666666\n",
      "note_on channel=0 note=61 velocity=127 time=0.007291666666666667\n",
      "note_on channel=0 note=62 velocity=127 time=0.00625\n",
      "note_off channel=0 note=61 velocity=127 time=0.013541666666666667\n",
      "note_off channel=0 note=62 velocity=127 time=0.00625\n",
      "note_on channel=0 note=60 velocity=127 time=0.02395833333333333\n",
      "note_off channel=0 note=60 velocity=127 time=0.019791666666666666\n",
      "note_on channel=0 note=61 velocity=127 time=0.008333333333333333\n",
      "note_off channel=0 note=61 velocity=127 time=0.019791666666666666\n",
      "note_on channel=0 note=60 velocity=127 time=0.03125\n",
      "note_on channel=0 note=62 velocity=127 time=0.007291666666666667\n",
      "note_off channel=0 note=60 velocity=127 time=0.0125\n",
      "note_off channel=0 note=62 velocity=127 time=0.007291666666666667\n",
      "note_on channel=0 note=61 velocity=127 time=0.0010416666666666667\n",
      "note_off channel=0 note=61 velocity=127 time=0.019791666666666666\n",
      "note_on channel=0 note=60 velocity=127 time=0.030208333333333334\n",
      "note_off channel=0 note=60 velocity=127 time=0.019791666666666666\n",
      "note_on channel=0 note=61 velocity=127 time=0.008333333333333333\n",
      "note_off channel=0 note=61 velocity=127 time=0.019791666666666666\n",
      "note_on channel=0 note=62 velocity=127 time=0.011458333333333333\n",
      "note_on channel=0 note=60 velocity=127 time=0.01875\n",
      "note_off channel=0 note=62 velocity=127 time=0.0010416666666666667\n",
      "note_off channel=0 note=60 velocity=127 time=0.01875\n",
      "note_on channel=0 note=61 velocity=127 time=0.008333333333333333\n",
      "note_off channel=0 note=61 velocity=127 time=0.019791666666666666\n",
      "note_on channel=0 note=60 velocity=127 time=0.030208333333333334\n",
      "note_off channel=0 note=60 velocity=127 time=0.019791666666666666\n",
      "note_on channel=0 note=61 velocity=127 time=0.008333333333333333\n",
      "note_on channel=0 note=62 velocity=127 time=0.004166666666666667\n",
      "note_off channel=0 note=61 velocity=127 time=0.015625\n",
      "note_off channel=0 note=62 velocity=127 time=0.004166666666666667\n",
      "note_on channel=0 note=60 velocity=127 time=0.026041666666666668\n",
      "note_off channel=0 note=60 velocity=127 time=0.019791666666666666\n",
      "note_on channel=0 note=61 velocity=127 time=0.009375\n",
      "note_off channel=0 note=61 velocity=127 time=0.019791666666666666\n",
      "note_on channel=0 note=60 velocity=127 time=0.030208333333333334\n",
      "note_on channel=0 note=62 velocity=127 time=0.00625\n",
      "note_off channel=0 note=60 velocity=127 time=0.013541666666666667\n",
      "note_off channel=0 note=62 velocity=127 time=0.00625\n",
      "note_on channel=0 note=61 velocity=127 time=0.003125\n",
      "note_off channel=0 note=61 velocity=127 time=0.019791666666666666\n",
      "note_on channel=0 note=60 velocity=127 time=0.029166666666666667\n",
      "note_off channel=0 note=60 velocity=127 time=0.019791666666666666\n",
      "note_on channel=0 note=61 velocity=127 time=0.009375\n",
      "note_off channel=0 note=61 velocity=127 time=0.019791666666666666\n",
      "note_on channel=0 note=62 velocity=127 time=0.008333333333333333\n",
      "note_off channel=0 note=62 velocity=127 time=0.019791666666666666\n",
      "note_on channel=0 note=60 velocity=127 time=0.0010416666666666667\n",
      "note_off channel=0 note=60 velocity=127 time=0.019791666666666666\n",
      "note_on channel=0 note=61 velocity=127 time=0.009375\n",
      "note_off channel=0 note=61 velocity=127 time=0.019791666666666666\n",
      "note_on channel=0 note=60 velocity=127 time=0.029166666666666667\n",
      "note_off channel=0 note=60 velocity=127 time=0.019791666666666666\n",
      "note_on channel=0 note=61 velocity=127 time=0.009375\n",
      "note_on channel=0 note=62 velocity=127 time=0.0010416666666666667\n",
      "note_off channel=0 note=61 velocity=127 time=0.01875\n",
      "note_off channel=0 note=62 velocity=127 time=0.0010416666666666667\n",
      "note_on channel=0 note=60 velocity=127 time=0.027083333333333334\n",
      "note_off channel=0 note=60 velocity=127 time=0.019791666666666666\n",
      "note_on channel=0 note=61 velocity=127 time=0.010416666666666666\n",
      "note_off channel=0 note=61 velocity=127 time=0.019791666666666666\n",
      "note_on channel=0 note=60 velocity=127 time=0.029166666666666667\n",
      "note_on channel=0 note=62 velocity=127 time=0.004166666666666667\n",
      "note_off channel=0 note=60 velocity=127 time=0.015625\n",
      "note_off channel=0 note=62 velocity=127 time=0.004166666666666667\n",
      "note_on channel=0 note=61 velocity=127 time=0.00625\n",
      "note_off channel=0 note=61 velocity=127 time=0.019791666666666666\n",
      "note_on channel=0 note=60 velocity=127 time=0.028125\n",
      "note_off channel=0 note=60 velocity=127 time=0.019791666666666666\n",
      "note_on channel=0 note=61 velocity=127 time=0.010416666666666666\n",
      "note_off channel=0 note=61 velocity=127 time=0.019791666666666666\n",
      "note_on channel=0 note=62 velocity=127 time=0.00625\n",
      "note_off channel=0 note=62 velocity=127 time=0.019791666666666666\n",
      "note_on channel=0 note=60 velocity=127 time=0.0020833333333333333\n",
      "note_off channel=0 note=60 velocity=127 time=0.019791666666666666\n",
      "note_on channel=0 note=61 velocity=127 time=0.010416666666666666\n",
      "note_off channel=0 note=61 velocity=127 time=0.019791666666666666\n",
      "note_on channel=0 note=60 velocity=127 time=0.028125\n",
      "note_off channel=0 note=60 velocity=127 time=0.019791666666666666\n",
      "note_on channel=0 note=62 velocity=127 time=0.009375\n",
      "note_on channel=0 note=61 velocity=127 time=0.0010416666666666667\n",
      "note_off channel=0 note=62 velocity=127 time=0.01875\n",
      "note_off channel=0 note=61 velocity=127 time=0.0010416666666666667\n",
      "note_on channel=0 note=60 velocity=127 time=0.028125\n",
      "note_off channel=0 note=60 velocity=127 time=0.019791666666666666\n",
      "note_on channel=0 note=61 velocity=127 time=0.011458333333333333\n",
      "note_off channel=0 note=61 velocity=127 time=0.019791666666666666\n",
      "note_on channel=0 note=60 velocity=127 time=0.028125\n",
      "note_on channel=0 note=62 velocity=127 time=0.003125\n",
      "note_off channel=0 note=60 velocity=127 time=0.016666666666666666\n",
      "note_off channel=0 note=62 velocity=127 time=0.003125\n",
      "note_on channel=0 note=61 velocity=127 time=0.008333333333333333\n",
      "note_off channel=0 note=61 velocity=127 time=0.019791666666666666\n",
      "note_on channel=0 note=60 velocity=127 time=0.027083333333333334\n",
      "note_off channel=0 note=60 velocity=127 time=0.019791666666666666\n",
      "note_on channel=0 note=61 velocity=127 time=0.011458333333333333\n",
      "note_off channel=0 note=61 velocity=127 time=0.019791666666666666\n",
      "note_on channel=0 note=62 velocity=127 time=0.003125\n",
      "note_off channel=0 note=62 velocity=127 time=0.019791666666666666\n",
      "note_on channel=0 note=60 velocity=127 time=0.004166666666666667\n",
      "note_off channel=0 note=60 velocity=127 time=0.019791666666666666\n",
      "note_on channel=0 note=61 velocity=127 time=0.011458333333333333\n",
      "note_off channel=0 note=61 velocity=127 time=0.019791666666666666\n",
      "note_on channel=0 note=60 velocity=127 time=0.027083333333333334\n",
      "note_off channel=0 note=60 velocity=127 time=0.019791666666666666\n",
      "note_on channel=0 note=62 velocity=127 time=0.008333333333333333\n",
      "note_on channel=0 note=61 velocity=127 time=0.004166666666666667\n",
      "note_off channel=0 note=62 velocity=127 time=0.016666666666666666\n",
      "note_off channel=0 note=61 velocity=127 time=0.004166666666666667\n",
      "note_on channel=0 note=60 velocity=127 time=0.027083333333333334\n",
      "note_off channel=0 note=60 velocity=127 time=0.019791666666666666\n",
      "note_on channel=0 note=61 velocity=127 time=0.0125\n",
      "note_off channel=0 note=61 velocity=127 time=0.019791666666666666\n",
      "note_on channel=0 note=60 velocity=127 time=0.026041666666666668\n",
      "note_on channel=0 note=62 velocity=127 time=0.0010416666666666667\n",
      "note_off channel=0 note=60 velocity=127 time=0.01875\n",
      "note_off channel=0 note=62 velocity=127 time=0.0010416666666666667\n",
      "note_on channel=0 note=61 velocity=127 time=0.010416666666666666\n",
      "note_off channel=0 note=61 velocity=127 time=0.019791666666666666\n",
      "note_on channel=0 note=60 velocity=127 time=0.026041666666666668\n",
      "note_off channel=0 note=60 velocity=127 time=0.019791666666666666\n",
      "note_on channel=0 note=61 velocity=127 time=0.0125\n",
      "note_off channel=0 note=61 velocity=127 time=0.019791666666666666\n",
      "note_on channel=0 note=62 velocity=127 time=0.0010416666666666667\n",
      "note_off channel=0 note=62 velocity=127 time=0.019791666666666666\n",
      "note_on channel=0 note=60 velocity=127 time=0.005208333333333333\n",
      "note_off channel=0 note=60 velocity=127 time=0.019791666666666666\n",
      "note_on channel=0 note=61 velocity=127 time=0.0125\n",
      "note_off channel=0 note=61 velocity=127 time=0.019791666666666666\n",
      "note_on channel=0 note=60 velocity=127 time=0.026041666666666668\n",
      "note_off channel=0 note=60 velocity=127 time=0.019791666666666666\n",
      "note_on channel=0 note=62 velocity=127 time=0.00625\n",
      "note_on channel=0 note=61 velocity=127 time=0.00625\n",
      "note_off channel=0 note=62 velocity=127 time=0.013541666666666667\n",
      "note_off channel=0 note=61 velocity=127 time=0.00625\n",
      "note_on channel=0 note=60 velocity=127 time=0.026041666666666668\n",
      "note_off channel=0 note=60 velocity=127 time=0.019791666666666666\n",
      "note_on channel=0 note=61 velocity=127 time=0.013541666666666667\n",
      "note_off channel=0 note=61 velocity=127 time=0.019791666666666666\n",
      "note_on channel=0 note=62 velocity=127 time=0.025\n",
      "note_on channel=0 note=60 velocity=127 time=0\n",
      "note_off channel=0 note=62 velocity=127 time=0.019791666666666666\n",
      "note_off channel=0 note=60 velocity=127 time=0\n",
      "note_on channel=0 note=61 velocity=127 time=0.013541666666666667\n",
      "note_off channel=0 note=61 velocity=127 time=0.019791666666666666\n",
      "note_on channel=0 note=60 velocity=127 time=0.025\n",
      "note_off channel=0 note=60 velocity=127 time=0.019791666666666666\n",
      "note_on channel=0 note=61 velocity=127 time=0.013541666666666667\n",
      "note_on channel=0 note=62 velocity=127 time=0.01875\n",
      "note_off channel=0 note=61 velocity=127 time=0.0020833333333333333\n",
      "note_off channel=0 note=62 velocity=127 time=0.01875\n",
      "note_on channel=0 note=60 velocity=127 time=0.007291666666666667\n",
      "note_off channel=0 note=60 velocity=127 time=0.019791666666666666\n",
      "note_on channel=0 note=61 velocity=127 time=0.013541666666666667\n",
      "note_off channel=0 note=61 velocity=127 time=0.019791666666666666\n",
      "note_on channel=0 note=60 velocity=127 time=0.025\n",
      "note_off channel=0 note=60 velocity=127 time=0.019791666666666666\n",
      "note_on channel=0 note=62 velocity=127 time=0.005208333333333333\n",
      "note_on channel=0 note=61 velocity=127 time=0.008333333333333333\n",
      "note_off channel=0 note=62 velocity=127 time=0.011458333333333333\n",
      "note_off channel=0 note=61 velocity=127 time=0.008333333333333333\n",
      "note_on channel=0 note=60 velocity=127 time=0.025\n",
      "note_off channel=0 note=60 velocity=127 time=0.019791666666666666\n",
      "note_on channel=0 note=61 velocity=127 time=0.014583333333333334\n",
      "note_off channel=0 note=61 velocity=127 time=0.019791666666666666\n",
      "note_on channel=0 note=62 velocity=127 time=0.022916666666666665\n",
      "note_on channel=0 note=60 velocity=127 time=0.0020833333333333333\n",
      "note_off channel=0 note=62 velocity=127 time=0.01875\n",
      "note_off channel=0 note=60 velocity=127 time=0.0020833333333333333\n",
      "note_on channel=0 note=61 velocity=127 time=0.014583333333333334\n",
      "note_off channel=0 note=61 velocity=127 time=0.019791666666666666\n",
      "note_on channel=0 note=60 velocity=127 time=0.02395833333333333\n",
      "note_off channel=0 note=60 velocity=127 time=0.019791666666666666\n",
      "note_on channel=0 note=61 velocity=127 time=0.014583333333333334\n",
      "note_on channel=0 note=62 velocity=127 time=0.015625\n",
      "note_off channel=0 note=61 velocity=127 time=0.004166666666666667\n",
      "note_off channel=0 note=62 velocity=127 time=0.015625\n",
      "note_on channel=0 note=60 velocity=127 time=0.008333333333333333\n",
      "note_off channel=0 note=60 velocity=127 time=0.019791666666666666\n",
      "note_on channel=0 note=61 velocity=127 time=0.014583333333333334\n",
      "\u001b[91m [DEBUG] > \u001b[0m\n",
      " |>  to_array: msg.time > max_t; t, n\n",
      " |>  3.0010416666666693\n",
      " |>  150\n",
      "note_on channel=0 note=61 velocity=127 time=0.021875\n",
      "note_off channel=0 note=61 velocity=127 time=0.019791666666666666\n",
      "note_on channel=0 note=62 velocity=127 time=0.003125\n",
      "note_on channel=0 note=60 velocity=127 time=0.019791666666666666\n",
      "note_off channel=0 note=62 velocity=127 time=0\n",
      "note_off channel=0 note=60 velocity=127 time=0.019791666666666666\n",
      "note_on channel=0 note=61 velocity=127 time=0.028125\n",
      "note_on channel=0 note=62 velocity=127 time=0.014583333333333334\n",
      "note_off channel=0 note=61 velocity=127 time=0.005208333333333333\n",
      "note_off channel=0 note=62 velocity=127 time=0.014583333333333334\n",
      "note_on channel=0 note=60 velocity=127 time=0.01875\n",
      "note_off channel=0 note=60 velocity=127 time=0.019791666666666666\n",
      "note_on channel=0 note=61 velocity=127 time=0.017708333333333333\n",
      "note_on channel=0 note=62 velocity=127 time=0.00625\n",
      "note_off channel=0 note=61 velocity=127 time=0.013541666666666667\n",
      "note_off channel=0 note=62 velocity=127 time=0.00625\n",
      "note_on channel=0 note=60 velocity=127 time=0.0375\n",
      "note_off channel=0 note=60 velocity=127 time=0.019791666666666666\n",
      "note_on channel=0 note=62 velocity=127 time=0.004166666666666667\n",
      "note_on channel=0 note=61 velocity=127 time=0.0020833333333333333\n",
      "note_off channel=0 note=62 velocity=127 time=0.017708333333333333\n",
      "note_off channel=0 note=61 velocity=127 time=0.0020833333333333333\n",
      "note_on channel=0 note=60 velocity=127 time=0.05416666666666667\n",
      "note_on channel=0 note=62 velocity=127 time=0.005208333333333333\n",
      "note_on channel=0 note=61 velocity=127 time=0.010416666666666666\n",
      "note_off channel=0 note=60 velocity=127 time=0.004166666666666667\n",
      "note_off channel=0 note=62 velocity=127 time=0.005208333333333333\n",
      "note_off channel=0 note=61 velocity=127 time=0.010416666666666666\n",
      "note_on channel=0 note=62 velocity=127 time=0.051041666666666666\n",
      "note_on channel=0 note=60 velocity=127 time=0.013541666666666667\n",
      "note_on channel=0 note=61 velocity=127 time=0.005208333333333333\n",
      "note_off channel=0 note=62 velocity=127 time=0.0010416666666666667\n",
      "note_off channel=0 note=60 velocity=127 time=0.013541666666666667\n",
      "note_off channel=0 note=61 velocity=127 time=0.005208333333333333\n",
      "note_on channel=0 note=62 velocity=127 time=0.042708333333333334\n",
      "note_off channel=0 note=62 velocity=127 time=0.019791666666666666\n",
      "note_on channel=0 note=61 velocity=127 time=0.007291666666666667\n",
      "note_on channel=0 note=60 velocity=127 time=0.005208333333333333\n",
      "note_off channel=0 note=61 velocity=127 time=0.015625\n",
      "note_off channel=0 note=60 velocity=127 time=0.005208333333333333\n",
      "note_on channel=0 note=62 velocity=127 time=0.029166666666666667\n",
      "note_off channel=0 note=62 velocity=127 time=0.019791666666666666\n",
      "note_on channel=0 note=61 velocity=127 time=0.015625\n",
      "note_on channel=0 note=60 velocity=127 time=0.015625\n",
      "note_off channel=0 note=61 velocity=127 time=0.004166666666666667\n",
      "note_off channel=0 note=60 velocity=127 time=0.015625\n",
      "note_on channel=0 note=62 velocity=127 time=0.010416666666666666\n",
      "note_off channel=0 note=62 velocity=127 time=0.019791666666666666\n",
      "note_on channel=0 note=61 velocity=127 time=0.02395833333333333\n",
      "note_off channel=0 note=61 velocity=127 time=0.019791666666666666\n",
      "note_on channel=0 note=60 velocity=127 time=0.00625\n",
      "note_on channel=0 note=62 velocity=127 time=0.011458333333333333\n",
      "note_off channel=0 note=60 velocity=127 time=0.008333333333333333\n",
      "note_off channel=0 note=62 velocity=127 time=0.011458333333333333\n",
      "note_on channel=0 note=61 velocity=127 time=0.03229166666666666\n",
      "note_off channel=0 note=61 velocity=127 time=0.019791666666666666\n",
      "note_on channel=0 note=62 velocity=127 time=0.009375\n",
      "note_on channel=0 note=60 velocity=127 time=0.007291666666666667\n",
      "note_off channel=0 note=62 velocity=127 time=0.0125\n",
      "note_off channel=0 note=60 velocity=127 time=0.007291666666666667\n",
      "note_on channel=0 note=61 velocity=127 time=0.034375\n",
      "note_off channel=0 note=61 velocity=127 time=0.019791666666666666\n",
      "note_on channel=0 note=62 velocity=127 time=0.0010416666666666667\n",
      "note_off channel=0 note=62 velocity=127 time=0.019791666666666666\n",
      "note_on channel=0 note=60 velocity=127 time=0.00625\n",
      "note_off channel=0 note=60 velocity=127 time=0.019791666666666666\n",
      "note_on channel=0 note=61 velocity=127 time=0.02395833333333333\n",
      "note_on channel=0 note=62 velocity=127 time=0.0125\n",
      "note_off channel=0 note=61 velocity=127 time=0.007291666666666667\n",
      "note_off channel=0 note=62 velocity=127 time=0.0125\n",
      "note_on channel=0 note=60 velocity=127 time=0.025\n",
      "note_off channel=0 note=60 velocity=127 time=0.019791666666666666\n",
      "note_on channel=0 note=61 velocity=127 time=0.0125\n",
      "note_on channel=0 note=62 velocity=127 time=0.004166666666666667\n",
      "note_off channel=0 note=61 velocity=127 time=0.016666666666666666\n",
      "note_off channel=0 note=62 velocity=127 time=0.004166666666666667\n",
      "note_on channel=0 note=60 velocity=127 time=0.04375\n",
      "note_on channel=0 note=62 velocity=127 time=0.017708333333333333\n",
      "note_off channel=0 note=60 velocity=127 time=0.0020833333333333333\n",
      "note_on channel=0 note=61 velocity=127 time=0.0020833333333333333\n",
      "note_off channel=0 note=62 velocity=127 time=0.015625\n",
      "note_off channel=0 note=61 velocity=127 time=0.004166666666666667\n",
      "note_on channel=0 note=62 velocity=127 time=0.057291666666666664\n",
      "note_on channel=0 note=60 velocity=127 time=0.0010416666666666667\n",
      "note_on channel=0 note=61 velocity=127 time=0.011458333333333333\n",
      "note_off channel=0 note=62 velocity=127 time=0.007291666666666667\n",
      "note_off channel=0 note=60 velocity=127 time=0.0010416666666666667\n",
      "note_off channel=0 note=61 velocity=127 time=0.011458333333333333\n",
      "note_on channel=0 note=62 velocity=127 time=0.04895833333333333\n",
      "note_off channel=0 note=62 velocity=127 time=0.019791666666666666\n",
      "note_on channel=0 note=60 velocity=127 time=0\n",
      "note_on channel=0 note=61 velocity=127 time=0.0010416666666666667\n",
      "note_off channel=0 note=60 velocity=127 time=0.01875\n",
      "note_off channel=0 note=61 velocity=127 time=0.0010416666666666667\n",
      "note_on channel=0 note=62 velocity=127 time=0.040625\n",
      "note_off channel=0 note=62 velocity=127 time=0.019791666666666666\n",
      "note_on channel=0 note=61 velocity=127 time=0.010416666666666666\n",
      "note_on channel=0 note=60 velocity=127 time=0.009375\n",
      "note_off channel=0 note=61 velocity=127 time=0.011458333333333333\n",
      "note_off channel=0 note=60 velocity=127 time=0.009375\n",
      "note_on channel=0 note=62 velocity=127 time=0.022916666666666665\n",
      "note_off channel=0 note=62 velocity=127 time=0.019791666666666666\n",
      "note_on channel=0 note=61 velocity=127 time=0.01875\n",
      "note_on channel=0 note=60 velocity=127 time=0.019791666666666666\n",
      "note_off channel=0 note=61 velocity=127 time=0\n",
      "note_off channel=0 note=60 velocity=127 time=0.019791666666666666\n",
      "note_on channel=0 note=62 velocity=127 time=0.004166666666666667\n",
      "note_off channel=0 note=62 velocity=127 time=0.019791666666666666\n",
      "note_on channel=0 note=61 velocity=127 time=0.027083333333333334\n",
      "note_off channel=0 note=61 velocity=127 time=0.019791666666666666\n",
      "note_on channel=0 note=60 velocity=127 time=0.010416666666666666\n",
      "note_on channel=0 note=62 velocity=127 time=0.005208333333333333\n",
      "note_off channel=0 note=60 velocity=127 time=0.014583333333333334\n",
      "note_off channel=0 note=62 velocity=127 time=0.005208333333333333\n",
      "note_on channel=0 note=61 velocity=127 time=0.035416666666666666\n",
      "note_off channel=0 note=61 velocity=127 time=0.019791666666666666\n",
      "note_on channel=0 note=62 velocity=127 time=0.00625\n",
      "note_on channel=0 note=60 velocity=127 time=0.013541666666666667\n",
      "note_off channel=0 note=62 velocity=127 time=0.00625\n",
      "note_off channel=0 note=60 velocity=127 time=0.013541666666666667\n",
      "note_on channel=0 note=61 velocity=127 time=0.030208333333333334\n",
      "note_on channel=0 note=62 velocity=127 time=0.01875\n",
      "note_off channel=0 note=61 velocity=127 time=0.0020833333333333333\n",
      "note_off channel=0 note=62 velocity=127 time=0.01875\n",
      "note_on channel=0 note=60 velocity=127 time=0.0125\n",
      "note_off channel=0 note=60 velocity=127 time=0.019791666666666666\n",
      "note_on channel=0 note=61 velocity=127 time=0.019791666666666666\n",
      "note_on channel=0 note=62 velocity=127 time=0.009375\n",
      "note_off channel=0 note=61 velocity=127 time=0.010416666666666666\n",
      "note_off channel=0 note=62 velocity=127 time=0.009375\n",
      "note_on channel=0 note=60 velocity=127 time=0.03125\n",
      "note_off channel=0 note=60 velocity=127 time=0.019791666666666666\n",
      "note_on channel=0 note=61 velocity=127 time=0.008333333333333333\n",
      "note_on channel=0 note=62 velocity=127 time=0.0010416666666666667\n",
      "note_off channel=0 note=61 velocity=127 time=0.01875\n",
      "note_off channel=0 note=62 velocity=127 time=0.0010416666666666667\n",
      "note_on channel=0 note=60 velocity=127 time=0.051041666666666666\n",
      "note_on channel=0 note=62 velocity=127 time=0.011458333333333333\n",
      "note_on channel=0 note=61 velocity=127 time=0.007291666666666667\n",
      "note_off channel=0 note=60 velocity=127 time=0.0020833333333333333\n",
      "note_off channel=0 note=62 velocity=127 time=0.011458333333333333\n",
      "note_off channel=0 note=61 velocity=127 time=0.007291666666666667\n",
      "note_on channel=0 note=62 velocity=127 time=0.05520833333333333\n",
      "note_on channel=0 note=60 velocity=127 time=0.007291666666666667\n",
      "note_on channel=0 note=61 velocity=127 time=0.007291666666666667\n",
      "note_off channel=0 note=62 velocity=127 time=0.004166666666666667\n",
      "note_off channel=0 note=60 velocity=127 time=0.007291666666666667\n",
      "note_off channel=0 note=61 velocity=127 time=0.007291666666666667\n",
      "note_on channel=0 note=62 velocity=127 time=0.046875\n",
      "note_off channel=0 note=62 velocity=127 time=0.019791666666666666\n",
      "note_on channel=0 note=61 velocity=127 time=0.004166666666666667\n",
      "note_on channel=0 note=60 velocity=127 time=0.003125\n",
      "note_off channel=0 note=61 velocity=127 time=0.017708333333333333\n",
      "note_off channel=0 note=60 velocity=127 time=0.003125\n",
      "note_on channel=0 note=62 velocity=127 time=0.035416666666666666\n",
      "note_off channel=0 note=62 velocity=127 time=0.019791666666666666\n",
      "note_on channel=0 note=61 velocity=127 time=0.0125\n",
      "note_on channel=0 note=60 velocity=127 time=0.013541666666666667\n",
      "note_off channel=0 note=61 velocity=127 time=0.00625\n",
      "note_off channel=0 note=60 velocity=127 time=0.013541666666666667\n",
      "note_on channel=0 note=62 velocity=127 time=0.016666666666666666\n",
      "note_off channel=0 note=62 velocity=127 time=0.019791666666666666\n",
      "note_on channel=0 note=61 velocity=127 time=0.020833333333333332\n",
      "note_off channel=0 note=61 velocity=127 time=0.019791666666666666\n",
      "note_on channel=0 note=60 velocity=127 time=0.004166666666666667\n",
      "note_on channel=0 note=62 velocity=127 time=0.017708333333333333\n",
      "note_off channel=0 note=60 velocity=127 time=0.0020833333333333333\n",
      "note_off channel=0 note=62 velocity=127 time=0.017708333333333333\n",
      "note_on channel=0 note=61 velocity=127 time=0.029166666666666667\n",
      "note_off channel=0 note=61 velocity=127 time=0.019791666666666666\n",
      "note_on channel=0 note=62 velocity=127 time=0.0125\n",
      "note_on channel=0 note=60 velocity=127 time=0.0010416666666666667\n",
      "note_off channel=0 note=62 velocity=127 time=0.01875\n",
      "note_off channel=0 note=60 velocity=127 time=0.0010416666666666667\n",
      "note_on channel=0 note=61 velocity=127 time=0.036458333333333336\n",
      "note_off channel=0 note=61 velocity=127 time=0.019791666666666666\n",
      "note_on channel=0 note=62 velocity=127 time=0.004166666666666667\n",
      "note_off channel=0 note=62 velocity=127 time=0.019791666666666666\n",
      "note_on channel=0 note=60 velocity=127 time=0\n",
      "note_off channel=0 note=60 velocity=127 time=0.019791666666666666\n",
      "note_on channel=0 note=61 velocity=127 time=0.026041666666666668\n",
      "note_on channel=0 note=62 velocity=127 time=0.015625\n",
      "note_off channel=0 note=61 velocity=127 time=0.004166666666666667\n",
      "note_off channel=0 note=62 velocity=127 time=0.015625\n",
      "note_on channel=0 note=60 velocity=127 time=0.019791666666666666\n",
      "note_off channel=0 note=60 velocity=127 time=0.019791666666666666\n",
      "note_on channel=0 note=61 velocity=127 time=0.014583333333333334\n",
      "note_on channel=0 note=62 velocity=127 time=0.007291666666666667\n",
      "note_off channel=0 note=61 velocity=127 time=0.0125\n",
      "note_off channel=0 note=62 velocity=127 time=0.007291666666666667\n",
      "note_on channel=0 note=60 velocity=127 time=0.03854166666666667\n",
      "note_off channel=0 note=60 velocity=127 time=0.019791666666666666\n",
      "note_on channel=0 note=62 velocity=127 time=0.003125\n",
      "note_on channel=0 note=61 velocity=127 time=0.0010416666666666667\n",
      "note_off channel=0 note=62 velocity=127 time=0.01875\n",
      "note_off channel=0 note=61 velocity=127 time=0.0010416666666666667\n",
      "note_on channel=0 note=60 velocity=127 time=0.05625\n",
      "note_on channel=0 note=62 velocity=127 time=0.004166666666666667\n",
      "note_on channel=0 note=61 velocity=127 time=0.009375\n",
      "\u001b[91m [DEBUG] > \u001b[0m\n",
      " |>  to_array: msg.time > max_t; t, n\n",
      " |>  2.9968750000000024\n",
      " |>  150\n",
      "note_on channel=0 note=61 velocity=127 time=0.06354166666666666\n",
      "note_on channel=0 note=62 velocity=127 time=0.003125\n",
      "note_off channel=0 note=61 velocity=127 time=0.016666666666666666\n",
      "note_off channel=0 note=62 velocity=127 time=0.003125\n",
      "note_on channel=0 note=60 velocity=127 time=0.0375\n",
      "note_on channel=0 note=62 velocity=127 time=0.015625\n",
      "note_off channel=0 note=60 velocity=127 time=0.004166666666666667\n",
      "note_off channel=0 note=62 velocity=127 time=0.015625\n",
      "note_on channel=0 note=62 velocity=127 time=0.053125\n",
      "note_on channel=0 note=61 velocity=127 time=0.00625\n",
      "note_off channel=0 note=62 velocity=127 time=0.013541666666666667\n",
      "note_off channel=0 note=61 velocity=127 time=0.00625\n",
      "note_on channel=0 note=60 velocity=127 time=0.030208333333333334\n",
      "note_on channel=0 note=62 velocity=127 time=0.016666666666666666\n",
      "note_off channel=0 note=60 velocity=127 time=0.003125\n",
      "note_off channel=0 note=62 velocity=127 time=0.016666666666666666\n",
      "note_on channel=0 note=62 velocity=127 time=0.053125\n",
      "note_on channel=0 note=61 velocity=127 time=0.015625\n",
      "note_off channel=0 note=62 velocity=127 time=0.005208333333333333\n",
      "note_off channel=0 note=61 velocity=127 time=0.015625\n",
      "note_on channel=0 note=60 velocity=127 time=0.020833333333333332\n",
      "note_on channel=0 note=62 velocity=127 time=0.017708333333333333\n",
      "note_off channel=0 note=60 velocity=127 time=0.003125\n",
      "note_off channel=0 note=62 velocity=127 time=0.017708333333333333\n",
      "note_on channel=0 note=62 velocity=127 time=0.053125\n",
      "note_off channel=0 note=62 velocity=127 time=0.019791666666666666\n",
      "note_on channel=0 note=61 velocity=127 time=0.004166666666666667\n",
      "note_off channel=0 note=61 velocity=127 time=0.019791666666666666\n",
      "note_on channel=0 note=60 velocity=127 time=0.010416666666666666\n",
      "note_on channel=0 note=62 velocity=127 time=0.017708333333333333\n",
      "note_off channel=0 note=60 velocity=127 time=0.0020833333333333333\n",
      "note_off channel=0 note=62 velocity=127 time=0.017708333333333333\n",
      "note_on channel=0 note=62 velocity=127 time=0.053125\n",
      "note_off channel=0 note=62 velocity=127 time=0.019791666666666666\n",
      "note_on channel=0 note=61 velocity=127 time=0.013541666666666667\n",
      "note_off channel=0 note=61 velocity=127 time=0.019791666666666666\n",
      "note_on channel=0 note=60 velocity=127 time=0\n",
      "note_on channel=0 note=62 velocity=127 time=0.01875\n",
      "note_off channel=0 note=60 velocity=127 time=0.0010416666666666667\n",
      "note_off channel=0 note=62 velocity=127 time=0.01875\n",
      "note_on channel=0 note=62 velocity=127 time=0.053125\n",
      "note_off channel=0 note=62 velocity=127 time=0.019791666666666666\n",
      "note_on channel=0 note=61 velocity=127 time=0.022916666666666665\n",
      "note_on channel=0 note=60 velocity=127 time=0.010416666666666666\n",
      "note_off channel=0 note=61 velocity=127 time=0.010416666666666666\n",
      "note_on channel=0 note=62 velocity=127 time=0.009375\n",
      "note_off channel=0 note=60 velocity=127 time=0\n",
      "note_off channel=0 note=62 velocity=127 time=0.019791666666666666\n",
      "note_on channel=0 note=62 velocity=127 time=0.053125\n",
      "note_off channel=0 note=62 velocity=127 time=0.019791666666666666\n",
      "note_on channel=0 note=60 velocity=127 time=0.03229166666666666\n",
      "note_on channel=0 note=61 velocity=127 time=0\n",
      "note_off channel=0 note=60 velocity=127 time=0.019791666666666666\n",
      "note_off channel=0 note=61 velocity=127 time=0\n",
      "note_on channel=0 note=62 velocity=127 time=0\n",
      "note_off channel=0 note=62 velocity=127 time=0.019791666666666666\n",
      "note_on channel=0 note=62 velocity=127 time=0.053125\n",
      "note_off channel=0 note=62 velocity=127 time=0.019791666666666666\n",
      "note_on channel=0 note=60 velocity=127 time=0.03125\n",
      "note_on channel=0 note=61 velocity=127 time=0.010416666666666666\n"
     ]
    },
    {
     "name": "stdout",
     "output_type": "stream",
     "text": [
      "note_off channel=0 note=60 velocity=127 time=0.009375\n",
      "note_on channel=0 note=62 velocity=127 time=0.0010416666666666667\n",
      "note_off channel=0 note=61 velocity=127 time=0.009375\n",
      "note_off channel=0 note=62 velocity=127 time=0.011458333333333333\n",
      "note_on channel=0 note=62 velocity=127 time=0.053125\n",
      "note_off channel=0 note=62 velocity=127 time=0.019791666666666666\n",
      "note_on channel=0 note=60 velocity=127 time=0.03125\n",
      "note_off channel=0 note=60 velocity=127 time=0.019791666666666666\n",
      "note_on channel=0 note=61 velocity=127 time=0.0010416666666666667\n",
      "note_on channel=0 note=62 velocity=127 time=0.0020833333333333333\n",
      "note_off channel=0 note=61 velocity=127 time=0.01875\n",
      "note_off channel=0 note=62 velocity=127 time=0.0020833333333333333\n",
      "note_on channel=0 note=62 velocity=127 time=0.053125\n",
      "note_off channel=0 note=62 velocity=127 time=0.019791666666666666\n",
      "note_on channel=0 note=60 velocity=127 time=0.030208333333333334\n",
      "note_off channel=0 note=60 velocity=127 time=0.019791666666666666\n",
      "note_on channel=0 note=62 velocity=127 time=0.003125\n",
      "note_on channel=0 note=61 velocity=127 time=0.007291666666666667\n",
      "note_off channel=0 note=62 velocity=127 time=0.0125\n",
      "note_off channel=0 note=61 velocity=127 time=0.007291666666666667\n",
      "note_on channel=0 note=62 velocity=127 time=0.04583333333333333\n",
      "note_off channel=0 note=62 velocity=127 time=0.019791666666666666\n",
      "note_on channel=0 note=60 velocity=127 time=0.029166666666666667\n",
      "note_off channel=0 note=60 velocity=127 time=0.019791666666666666\n",
      "note_on channel=0 note=62 velocity=127 time=0.004166666666666667\n",
      "note_on channel=0 note=61 velocity=127 time=0.016666666666666666\n",
      "note_off channel=0 note=62 velocity=127 time=0.003125\n",
      "note_off channel=0 note=61 velocity=127 time=0.016666666666666666\n",
      "note_on channel=0 note=62 velocity=127 time=0.036458333333333336\n",
      "note_off channel=0 note=62 velocity=127 time=0.019791666666666666\n",
      "note_on channel=0 note=60 velocity=127 time=0.028125\n",
      "note_off channel=0 note=60 velocity=127 time=0.019791666666666666\n",
      "note_on channel=0 note=62 velocity=127 time=0.004166666666666667\n",
      "note_off channel=0 note=62 velocity=127 time=0.019791666666666666\n",
      "note_on channel=0 note=61 velocity=127 time=0.00625\n",
      "note_off channel=0 note=61 velocity=127 time=0.019791666666666666\n",
      "note_on channel=0 note=62 velocity=127 time=0.027083333333333334\n",
      "note_off channel=0 note=62 velocity=127 time=0.019791666666666666\n",
      "note_on channel=0 note=60 velocity=127 time=0.028125\n",
      "note_off channel=0 note=60 velocity=127 time=0.019791666666666666\n",
      "note_on channel=0 note=62 velocity=127 time=0.005208333333333333\n",
      "note_off channel=0 note=62 velocity=127 time=0.019791666666666666\n",
      "note_on channel=0 note=61 velocity=127 time=0.015625\n",
      "note_off channel=0 note=61 velocity=127 time=0.019791666666666666\n",
      "note_on channel=0 note=62 velocity=127 time=0.017708333333333333\n",
      "note_off channel=0 note=62 velocity=127 time=0.019791666666666666\n",
      "note_on channel=0 note=60 velocity=127 time=0.027083333333333334\n",
      "note_off channel=0 note=60 velocity=127 time=0.019791666666666666\n",
      "note_on channel=0 note=62 velocity=127 time=0.00625\n",
      "note_off channel=0 note=62 velocity=127 time=0.019791666666666666\n",
      "note_on channel=0 note=61 velocity=127 time=0.025\n",
      "note_off channel=0 note=61 velocity=127 time=0.019791666666666666\n",
      "note_on channel=0 note=62 velocity=127 time=0.008333333333333333\n",
      "note_off channel=0 note=62 velocity=127 time=0.019791666666666666\n",
      "note_on channel=0 note=60 velocity=127 time=0.026041666666666668\n",
      "note_off channel=0 note=60 velocity=127 time=0.019791666666666666\n",
      "note_on channel=0 note=62 velocity=127 time=0.007291666666666667\n",
      "note_off channel=0 note=62 velocity=127 time=0.019791666666666666\n",
      "note_on channel=0 note=61 velocity=127 time=0.034375\n",
      "note_on channel=0 note=62 velocity=127 time=0.01875\n",
      "note_off channel=0 note=61 velocity=127 time=0.0010416666666666667\n",
      "note_off channel=0 note=62 velocity=127 time=0.01875\n",
      "note_on channel=0 note=60 velocity=127 time=0.025\n",
      "note_off channel=0 note=60 velocity=127 time=0.019791666666666666\n",
      "note_on channel=0 note=62 velocity=127 time=0.008333333333333333\n",
      "note_off channel=0 note=62 velocity=127 time=0.019791666666666666\n",
      "note_on channel=0 note=61 velocity=127 time=0.04375\n",
      "note_on channel=0 note=62 velocity=127 time=0.009375\n",
      "note_off channel=0 note=61 velocity=127 time=0.010416666666666666\n",
      "note_off channel=0 note=62 velocity=127 time=0.009375\n",
      "note_on channel=0 note=60 velocity=127 time=0.02395833333333333\n",
      "note_off channel=0 note=60 velocity=127 time=0.019791666666666666\n",
      "note_on channel=0 note=62 velocity=127 time=0.008333333333333333\n",
      "note_off channel=0 note=62 velocity=127 time=0.019791666666666666\n",
      "note_on channel=0 note=62 velocity=127 time=0.053125\n",
      "note_on channel=0 note=61 velocity=127 time=0\n",
      "note_off channel=0 note=62 velocity=127 time=0.019791666666666666\n",
      "note_off channel=0 note=61 velocity=127 time=0\n",
      "note_on channel=0 note=60 velocity=127 time=0.02395833333333333\n",
      "note_off channel=0 note=60 velocity=127 time=0.019791666666666666\n",
      "note_on channel=0 note=62 velocity=127 time=0.009375\n",
      "note_off channel=0 note=62 velocity=127 time=0.019791666666666666\n",
      "note_on channel=0 note=62 velocity=127 time=0.053125\n",
      "note_on channel=0 note=61 velocity=127 time=0.009375\n",
      "note_off channel=0 note=62 velocity=127 time=0.010416666666666666\n",
      "note_off channel=0 note=61 velocity=127 time=0.009375\n",
      "note_on channel=0 note=60 velocity=127 time=0.013541666666666667\n",
      "note_off channel=0 note=60 velocity=127 time=0.019791666666666666\n",
      "note_on channel=0 note=62 velocity=127 time=0.010416666666666666\n",
      "note_off channel=0 note=62 velocity=127 time=0.019791666666666666\n",
      "note_on channel=0 note=62 velocity=127 time=0.053125\n",
      "note_on channel=0 note=61 velocity=127 time=0.01875\n",
      "note_off channel=0 note=62 velocity=127 time=0.0010416666666666667\n",
      "note_off channel=0 note=61 velocity=127 time=0.01875\n",
      "note_on channel=0 note=60 velocity=127 time=0.003125\n",
      "note_off channel=0 note=60 velocity=127 time=0.019791666666666666\n",
      "note_on channel=0 note=62 velocity=127 time=0.011458333333333333\n",
      "note_off channel=0 note=62 velocity=127 time=0.019791666666666666\n",
      "note_on channel=0 note=62 velocity=127 time=0.053125\n",
      "note_off channel=0 note=62 velocity=127 time=0.019791666666666666\n",
      "\u001b[91m [DEBUG] > \u001b[0m\n",
      " |>  to_array: msg.time > max_t; t, n\n",
      " |>  3.0031250000000016\n",
      " |>  150\n",
      "note_on channel=0 note=61 velocity=127 time=0.014583333333333334\n",
      "note_off channel=0 note=61 velocity=127 time=0.019791666666666666\n",
      "note_on channel=0 note=60 velocity=127 time=0.0010416666666666667\n",
      "note_off channel=0 note=60 velocity=127 time=0.019791666666666666\n",
      "note_on channel=0 note=62 velocity=127 time=0.026041666666666668\n",
      "note_off channel=0 note=62 velocity=127 time=0.019791666666666666\n",
      "note_on channel=0 note=60 velocity=127 time=0.015625\n",
      "note_on channel=0 note=61 velocity=127 time=0.01875\n",
      "note_off channel=0 note=60 velocity=127 time=0.0020833333333333333\n",
      "note_off channel=0 note=61 velocity=127 time=0.01875\n",
      "note_on channel=0 note=60 velocity=127 time=0.04375\n",
      "note_off channel=0 note=60 velocity=127 time=0.019791666666666666\n",
      "note_on channel=0 note=62 velocity=127 time=0.016666666666666666\n",
      "note_off channel=0 note=62 velocity=127 time=0.019791666666666666\n",
      "note_on channel=0 note=61 velocity=127 time=0.0010416666666666667\n",
      "note_off channel=0 note=61 velocity=127 time=0.019791666666666666\n",
      "note_on channel=0 note=60 velocity=127 time=0.005208333333333333\n",
      "note_off channel=0 note=60 velocity=127 time=0.019791666666666666\n",
      "note_on channel=0 note=60 velocity=127 time=0.06145833333333333\n",
      "note_on channel=0 note=61 velocity=127 time=0.014583333333333334\n",
      "note_off channel=0 note=60 velocity=127 time=0.00625\n",
      "note_on channel=0 note=62 velocity=127 time=0.007291666666666667\n",
      "note_off channel=0 note=61 velocity=127 time=0.007291666666666667\n",
      "note_off channel=0 note=62 velocity=127 time=0.0125\n",
      "note_on channel=0 note=60 velocity=127 time=0.034375\n",
      "note_off channel=0 note=60 velocity=127 time=0.019791666666666666\n",
      "note_on channel=0 note=61 velocity=127 time=0.03333333333333333\n",
      "note_off channel=0 note=61 velocity=127 time=0.019791666666666666\n",
      "note_on channel=0 note=60 velocity=127 time=0.008333333333333333\n",
      "note_on channel=0 note=62 velocity=127 time=0.017708333333333333\n",
      "note_off channel=0 note=60 velocity=127 time=0.0020833333333333333\n",
      "note_off channel=0 note=62 velocity=127 time=0.017708333333333333\n",
      "note_on channel=0 note=60 velocity=127 time=0.04375\n",
      "note_on channel=0 note=61 velocity=127 time=0.010416666666666666\n",
      "note_off channel=0 note=60 velocity=127 time=0.009375\n",
      "note_off channel=0 note=61 velocity=127 time=0.010416666666666666\n",
      "note_on channel=0 note=60 velocity=127 time=0.052083333333333336\n",
      "note_on channel=0 note=62 velocity=127 time=0.008333333333333333\n",
      "note_off channel=0 note=60 velocity=127 time=0.011458333333333333\n",
      "note_off channel=0 note=62 velocity=127 time=0.008333333333333333\n",
      "note_on channel=0 note=61 velocity=127 time=0.020833333333333332\n",
      "note_off channel=0 note=61 velocity=127 time=0.019791666666666666\n",
      "note_on channel=0 note=60 velocity=127 time=0.0125\n",
      "note_off channel=0 note=60 velocity=127 time=0.019791666666666666\n",
      "note_on channel=0 note=62 velocity=127 time=0.06041666666666667\n",
      "note_on channel=0 note=60 velocity=127 time=0.0010416666666666667\n",
      "note_on channel=0 note=61 velocity=127 time=0.00625\n",
      "note_off channel=0 note=62 velocity=127 time=0.0125\n",
      "note_off channel=0 note=60 velocity=127 time=0.0010416666666666667\n",
      "note_off channel=0 note=61 velocity=127 time=0.00625\n",
      "note_on channel=0 note=60 velocity=127 time=0.05625\n",
      "note_off channel=0 note=60 velocity=127 time=0.019791666666666666\n",
      "note_on channel=0 note=61 velocity=127 time=0.025\n",
      "note_off channel=0 note=61 velocity=127 time=0.019791666666666666\n",
      "note_on channel=0 note=62 velocity=127 time=0.00625\n",
      "note_on channel=0 note=60 velocity=127 time=0.010416666666666666\n",
      "note_off channel=0 note=62 velocity=127 time=0.009375\n",
      "note_off channel=0 note=60 velocity=127 time=0.010416666666666666\n",
      "note_on channel=0 note=60 velocity=127 time=0.06145833333333333\n",
      "note_on channel=0 note=61 velocity=127 time=0.0020833333333333333\n",
      "note_off channel=0 note=60 velocity=127 time=0.017708333333333333\n",
      "note_off channel=0 note=61 velocity=127 time=0.0020833333333333333\n",
      "note_on channel=0 note=62 velocity=127 time=0.03958333333333333\n",
      "note_on channel=0 note=60 velocity=127 time=0.019791666666666666\n",
      "note_off channel=0 note=62 velocity=127 time=0\n",
      "note_off channel=0 note=60 velocity=127 time=0.019791666666666666\n",
      "note_on channel=0 note=61 velocity=127 time=0.020833333333333332\n",
      "note_off channel=0 note=61 velocity=127 time=0.019791666666666666\n",
      "note_on channel=0 note=60 velocity=127 time=0.020833333333333332\n",
      "note_off channel=0 note=60 velocity=127 time=0.019791666666666666\n",
      "note_on channel=0 note=62 velocity=127 time=0.03229166666666666\n",
      "note_off channel=0 note=62 velocity=127 time=0.019791666666666666\n",
      "note_on channel=0 note=61 velocity=127 time=0.007291666666666667\n",
      "note_on channel=0 note=60 velocity=127 time=0.0020833333333333333\n",
      "note_off channel=0 note=61 velocity=127 time=0.017708333333333333\n",
      "note_off channel=0 note=60 velocity=127 time=0.0020833333333333333\n",
      "note_on channel=0 note=60 velocity=127 time=0.06145833333333333\n",
      "note_off channel=0 note=60 velocity=127 time=0.019791666666666666\n",
      "note_on channel=0 note=61 velocity=127 time=0.016666666666666666\n",
      "note_on channel=0 note=62 velocity=127 time=0.00625\n",
      "note_off channel=0 note=61 velocity=127 time=0.013541666666666667\n",
      "note_off channel=0 note=62 velocity=127 time=0.00625\n",
      "note_on channel=0 note=60 velocity=127 time=0.01875\n",
      "note_off channel=0 note=60 velocity=127 time=0.019791666666666666\n",
      "note_on channel=0 note=61 velocity=127 time=0.05625\n",
      "note_on channel=0 note=60 velocity=127 time=0.00625\n",
      "note_off channel=0 note=61 velocity=127 time=0.013541666666666667\n",
      "note_off channel=0 note=60 velocity=127 time=0.00625\n",
      "note_on channel=0 note=62 velocity=127 time=0.013541666666666667\n",
      "note_off channel=0 note=62 velocity=127 time=0.019791666666666666\n",
      "note_on channel=0 note=60 velocity=127 time=0.028125\n",
      "note_off channel=0 note=60 velocity=127 time=0.019791666666666666\n",
      "note_on channel=0 note=61 velocity=127 time=0.0125\n",
      "note_off channel=0 note=61 velocity=127 time=0.019791666666666666\n",
      "note_on channel=0 note=60 velocity=127 time=0.029166666666666667\n",
      "note_off channel=0 note=60 velocity=127 time=0.019791666666666666\n",
      "note_on channel=0 note=62 velocity=127 time=0.004166666666666667\n",
      "note_off channel=0 note=62 velocity=127 time=0.019791666666666666\n",
      "note_on channel=0 note=61 velocity=127 time=0.027083333333333334\n",
      "note_on channel=0 note=60 velocity=127 time=0.010416666666666666\n",
      "note_off channel=0 note=61 velocity=127 time=0.009375\n",
      "note_off channel=0 note=60 velocity=127 time=0.010416666666666666\n",
      "note_on channel=0 note=60 velocity=127 time=0.06145833333333333\n",
      "note_on channel=0 note=62 velocity=127 time=0.015625\n",
      "note_off channel=0 note=60 velocity=127 time=0.005208333333333333\n",
      "note_on channel=0 note=61 velocity=127 time=0.008333333333333333\n",
      "note_off channel=0 note=62 velocity=127 time=0.00625\n",
      "note_off channel=0 note=61 velocity=127 time=0.013541666666666667\n",
      "note_on channel=0 note=60 velocity=127 time=0.03333333333333333\n",
      "note_off channel=0 note=60 velocity=127 time=0.019791666666666666\n",
      "note_on channel=0 note=61 velocity=127 time=0.04791666666666666\n",
      "note_on channel=0 note=60 velocity=127 time=0.014583333333333334\n",
      "note_off channel=0 note=61 velocity=127 time=0.00625\n",
      "note_on channel=0 note=62 velocity=127 time=0\n",
      "note_off channel=0 note=60 velocity=127 time=0.014583333333333334\n",
      "note_off channel=0 note=62 velocity=127 time=0.00625\n",
      "note_on channel=0 note=60 velocity=127 time=0.05625\n",
      "note_off channel=0 note=60 velocity=127 time=0.019791666666666666\n",
      "note_on channel=0 note=61 velocity=127 time=0.005208333333333333\n",
      "note_off channel=0 note=61 velocity=127 time=0.019791666666666666\n",
      "note_on channel=0 note=62 velocity=127 time=0.03333333333333333\n",
      "note_on channel=0 note=60 velocity=127 time=0.003125\n",
      "note_off channel=0 note=62 velocity=127 time=0.016666666666666666\n",
      "note_off channel=0 note=60 velocity=127 time=0.003125\n",
      "note_on channel=0 note=61 velocity=127 time=0.04375\n",
      "note_on channel=0 note=60 velocity=127 time=0.01875\n",
      "note_off channel=0 note=61 velocity=127 time=0.0020833333333333333\n",
      "note_off channel=0 note=60 velocity=127 time=0.01875\n",
      "note_on channel=0 note=62 velocity=127 time=0.04895833333333333\n",
      "note_on channel=0 note=60 velocity=127 time=0.0125\n",
      "note_off channel=0 note=62 velocity=127 time=0.007291666666666667\n",
      "note_off channel=0 note=60 velocity=127 time=0.0125\n",
      "note_on channel=0 note=61 velocity=127 time=0.0010416666666666667\n",
      "note_off channel=0 note=61 velocity=127 time=0.019791666666666666\n",
      "note_on channel=0 note=60 velocity=127 time=0.041666666666666664\n",
      "note_off channel=0 note=60 velocity=127 time=0.019791666666666666\n",
      "note_on channel=0 note=62 velocity=127 time=0.03958333333333333\n",
      "note_on channel=0 note=61 velocity=127 time=0\n",
      "note_off channel=0 note=62 velocity=127 time=0.019791666666666666\n",
      "note_off channel=0 note=61 velocity=127 time=0\n",
      "note_on channel=0 note=60 velocity=127 time=0.0020833333333333333\n",
      "note_off channel=0 note=60 velocity=127 time=0.019791666666666666\n",
      "note_on channel=0 note=60 velocity=127 time=0.06145833333333333\n",
      "note_on channel=0 note=61 velocity=127 time=0.016666666666666666\n",
      "note_off channel=0 note=60 velocity=127 time=0.003125\n",
      "note_off channel=0 note=61 velocity=127 time=0.016666666666666666\n",
      "note_on channel=0 note=62 velocity=127 time=0.013541666666666667\n",
      "note_off channel=0 note=62 velocity=127 time=0.019791666666666666\n",
      "note_on channel=0 note=60 velocity=127 time=0.011458333333333333\n",
      "note_off channel=0 note=60 velocity=127 time=0.019791666666666666\n",
      "note_on channel=0 note=61 velocity=127 time=0.035416666666666666\n",
      "note_off channel=0 note=61 velocity=127 time=0.019791666666666666\n",
      "note_on channel=0 note=60 velocity=127 time=0.00625\n",
      "note_off channel=0 note=60 velocity=127 time=0.019791666666666666\n",
      "note_on channel=0 note=62 velocity=127 time=0.020833333333333332\n",
      "note_off channel=0 note=62 velocity=127 time=0.019791666666666666\n",
      "note_on channel=0 note=60 velocity=127 time=0.020833333333333332\n",
      "note_on channel=0 note=61 velocity=127 time=0.0125\n",
      "note_off channel=0 note=60 velocity=127 time=0.007291666666666667\n",
      "note_off channel=0 note=61 velocity=127 time=0.0125\n",
      "note_on channel=0 note=60 velocity=127 time=0.04895833333333333\n",
      "note_off channel=0 note=60 velocity=127 time=0.019791666666666666\n",
      "\u001b[91m [DEBUG] > \u001b[0m\n",
      " |>  to_array: msg.time > max_t; t, n\n",
      " |>  2.994791666666669\n",
      " |>  150\n",
      "note_on channel=0 note=60 velocity=127 time=0.052083333333333336\n",
      "note_off channel=0 note=60 velocity=127 time=0.019791666666666666\n",
      "note_on channel=0 note=62 velocity=127 time=0.0010416666666666667\n",
      "note_on channel=0 note=61 velocity=127 time=0.0010416666666666667\n",
      "note_off channel=0 note=62 velocity=127 time=0.01875\n",
      "note_off channel=0 note=61 velocity=127 time=0.0010416666666666667\n",
      "note_on channel=0 note=61 velocity=127 time=0.07395833333333333\n",
      "note_on channel=0 note=62 velocity=127 time=0.013541666666666667\n",
      "note_off channel=0 note=61 velocity=127 time=0.007291666666666667\n",
      "note_off channel=0 note=62 velocity=127 time=0.013541666666666667\n",
      "note_on channel=0 note=60 velocity=127 time=0.01875\n",
      "note_off channel=0 note=60 velocity=127 time=0.019791666666666666\n",
      "note_on channel=0 note=61 velocity=127 time=0.021875\n",
      "note_off channel=0 note=61 velocity=127 time=0.019791666666666666\n",
      "note_on channel=0 note=62 velocity=127 time=0.007291666666666667\n",
      "note_off channel=0 note=62 velocity=127 time=0.019791666666666666\n",
      "note_on channel=0 note=61 velocity=127 time=0.046875\n",
      "note_off channel=0 note=61 velocity=127 time=0.019791666666666666\n",
      "note_on channel=0 note=60 velocity=127 time=0.0125\n",
      "note_on channel=0 note=62 velocity=127 time=0.008333333333333333\n",
      "note_off channel=0 note=60 velocity=127 time=0.011458333333333333\n",
      "note_off channel=0 note=62 velocity=127 time=0.008333333333333333\n",
      "note_on channel=0 note=61 velocity=127 time=0.03229166666666666\n",
      "note_off channel=0 note=61 velocity=127 time=0.019791666666666666\n",
      "note_on channel=0 note=62 velocity=127 time=0.035416666666666666\n",
      "note_off channel=0 note=62 velocity=127 time=0.019791666666666666\n",
      "note_on channel=0 note=61 velocity=127 time=0.01875\n",
      "note_on channel=0 note=60 velocity=127 time=0.013541666666666667\n",
      "note_off channel=0 note=61 velocity=127 time=0.00625\n",
      "note_off channel=0 note=60 velocity=127 time=0.013541666666666667\n",
      "note_on channel=0 note=62 velocity=127 time=0.036458333333333336\n",
      "note_off channel=0 note=62 velocity=127 time=0.019791666666666666\n",
      "note_on channel=0 note=61 velocity=127 time=0.004166666666666667\n",
      "note_off channel=0 note=61 velocity=127 time=0.019791666666666666\n",
      "note_on channel=0 note=62 velocity=127 time=0.06354166666666666\n",
      "note_on channel=0 note=60 velocity=127 time=0.004166666666666667\n",
      "note_on channel=0 note=61 velocity=127 time=0.005208333333333333\n",
      "note_off channel=0 note=62 velocity=127 time=0.009375\n",
      "note_off channel=0 note=60 velocity=127 time=0.004166666666666667\n",
      "note_off channel=0 note=61 velocity=127 time=0.005208333333333333\n",
      "note_on channel=0 note=61 velocity=127 time=0.07395833333333333\n",
      "note_on channel=0 note=62 velocity=127 time=0.004166666666666667\n",
      "note_off channel=0 note=61 velocity=127 time=0.015625\n",
      "note_off channel=0 note=62 velocity=127 time=0.004166666666666667\n",
      "note_on channel=0 note=60 velocity=127 time=0.04479166666666667\n",
      "note_off channel=0 note=60 velocity=127 time=0.019791666666666666\n",
      "note_on channel=0 note=61 velocity=127 time=0.005208333333333333\n",
      "note_on channel=0 note=62 velocity=127 time=0.017708333333333333\n",
      "note_off channel=0 note=61 velocity=127 time=0.0020833333333333333\n",
      "note_off channel=0 note=62 velocity=127 time=0.017708333333333333\n",
      "note_on channel=0 note=61 velocity=127 time=0.05625\n",
      "note_off channel=0 note=61 velocity=127 time=0.019791666666666666\n",
      "note_on channel=0 note=62 velocity=127 time=0.0125\n",
      "note_on channel=0 note=60 velocity=127 time=0.017708333333333333\n",
      "note_off channel=0 note=62 velocity=127 time=0.0020833333333333333\n",
      "note_off channel=0 note=60 velocity=127 time=0.017708333333333333\n",
      "note_on channel=0 note=61 velocity=127 time=0.02395833333333333\n",
      "note_off channel=0 note=61 velocity=127 time=0.019791666666666666\n",
      "note_on channel=0 note=62 velocity=127 time=0.026041666666666668\n",
      "note_off channel=0 note=62 velocity=127 time=0.019791666666666666\n",
      "note_on channel=0 note=61 velocity=127 time=0.028125\n",
      "note_off channel=0 note=61 velocity=127 time=0.019791666666666666\n",
      "note_on channel=0 note=60 velocity=127 time=0.010416666666666666\n",
      "note_off channel=0 note=60 velocity=127 time=0.019791666666666666\n",
      "note_on channel=0 note=62 velocity=127 time=0.010416666666666666\n",
      "note_off channel=0 note=62 velocity=127 time=0.019791666666666666\n",
      "note_on channel=0 note=61 velocity=127 time=0.013541666666666667\n",
      "note_off channel=0 note=61 velocity=127 time=0.019791666666666666\n",
      "note_on channel=0 note=62 velocity=127 time=0.05416666666666667\n",
      "note_on channel=0 note=61 velocity=127 time=0.019791666666666666\n",
      "note_off channel=0 note=62 velocity=127 time=0.0010416666666666667\n",
      "note_on channel=0 note=60 velocity=127 time=0.010416666666666666\n",
      "note_off channel=0 note=61 velocity=127 time=0.009375\n",
      "note_off channel=0 note=60 velocity=127 time=0.010416666666666666\n",
      "note_on channel=0 note=62 velocity=127 time=0.057291666666666664\n",
      "note_on channel=0 note=61 velocity=127 time=0.005208333333333333\n",
      "note_off channel=0 note=62 velocity=127 time=0.014583333333333334\n",
      "note_off channel=0 note=61 velocity=127 time=0.005208333333333333\n",
      "note_on channel=0 note=60 velocity=127 time=0.065625\n",
      "note_on channel=0 note=61 velocity=127 time=0.008333333333333333\n",
      "note_on channel=0 note=62 velocity=127 time=0.008333333333333333\n",
      "note_off channel=0 note=60 velocity=127 time=0.003125\n",
      "note_off channel=0 note=61 velocity=127 time=0.008333333333333333\n",
      "note_off channel=0 note=62 velocity=127 time=0.008333333333333333\n",
      "note_on channel=0 note=61 velocity=127 time=0.06458333333333333\n",
      "note_off channel=0 note=61 velocity=127 time=0.019791666666666666\n",
      "note_on channel=0 note=62 velocity=127 time=0.003125\n",
      "note_off channel=0 note=62 velocity=127 time=0.019791666666666666\n",
      "note_on channel=0 note=60 velocity=127 time=0.022916666666666665\n",
      "note_off channel=0 note=60 velocity=127 time=0.019791666666666666\n",
      "note_on channel=0 note=61 velocity=127 time=0.007291666666666667\n",
      "note_off channel=0 note=61 velocity=127 time=0.019791666666666666\n",
      "note_on channel=0 note=62 velocity=127 time=0.016666666666666666\n",
      "note_off channel=0 note=62 velocity=127 time=0.019791666666666666\n",
      "note_on channel=0 note=61 velocity=127 time=0.036458333333333336\n",
      "note_off channel=0 note=61 velocity=127 time=0.019791666666666666\n",
      "note_on channel=0 note=60 velocity=127 time=0.027083333333333334\n",
      "note_on channel=0 note=62 velocity=127 time=0.004166666666666667\n",
      "note_off channel=0 note=60 velocity=127 time=0.015625\n",
      "note_off channel=0 note=62 velocity=127 time=0.004166666666666667\n",
      "note_on channel=0 note=61 velocity=127 time=0.022916666666666665\n",
      "note_off channel=0 note=61 velocity=127 time=0.019791666666666666\n",
      "note_on channel=0 note=62 velocity=127 time=0.04479166666666667\n",
      "note_off channel=0 note=62 velocity=127 time=0.019791666666666666\n",
      "note_on channel=0 note=61 velocity=127 time=0.008333333333333333\n",
      "note_off channel=0 note=61 velocity=127 time=0.019791666666666666\n",
      "note_on channel=0 note=60 velocity=127 time=0.007291666666666667\n",
      "note_off channel=0 note=60 velocity=127 time=0.019791666666666666\n",
      "note_on channel=0 note=62 velocity=127 time=0.03229166666666666\n",
      "note_on channel=0 note=61 velocity=127 time=0.014583333333333334\n",
      "note_off channel=0 note=62 velocity=127 time=0.005208333333333333\n",
      "note_off channel=0 note=61 velocity=127 time=0.014583333333333334\n",
      "note_on channel=0 note=62 velocity=127 time=0.07395833333333333\n",
      "note_on channel=0 note=61 velocity=127 time=0\n",
      "note_on channel=0 note=60 velocity=127 time=0.008333333333333333\n",
      "note_off channel=0 note=62 velocity=127 time=0.011458333333333333\n",
      "note_off channel=0 note=61 velocity=127 time=0\n",
      "note_off channel=0 note=60 velocity=127 time=0.008333333333333333\n",
      "note_on channel=0 note=61 velocity=127 time=0.065625\n",
      "note_on channel=0 note=62 velocity=127 time=0.013541666666666667\n",
      "note_off channel=0 note=61 velocity=127 time=0.00625\n",
      "note_off channel=0 note=62 velocity=127 time=0.013541666666666667\n",
      "note_on channel=0 note=60 velocity=127 time=0.04895833333333333\n",
      "note_on channel=0 note=61 velocity=127 time=0.011458333333333333\n",
      "note_off channel=0 note=60 velocity=127 time=0.009375\n",
      "note_off channel=0 note=61 velocity=127 time=0.011458333333333333\n",
      "note_on channel=0 note=62 velocity=127 time=0.007291666666666667\n",
      "note_off channel=0 note=62 velocity=127 time=0.019791666666666666\n",
      "note_on channel=0 note=61 velocity=127 time=0.04583333333333333\n",
      "note_off channel=0 note=61 velocity=127 time=0.019791666666666666\n",
      "note_on channel=0 note=62 velocity=127 time=0.021875\n",
      "note_off channel=0 note=62 velocity=127 time=0.019791666666666666\n",
      "note_on channel=0 note=60 velocity=127 time=0.0010416666666666667\n",
      "note_off channel=0 note=60 velocity=127 time=0.019791666666666666\n",
      "note_on channel=0 note=61 velocity=127 time=0.010416666666666666\n",
      "note_off channel=0 note=61 velocity=127 time=0.019791666666666666\n",
      "note_on channel=0 note=62 velocity=127 time=0.036458333333333336\n",
      "note_off channel=0 note=62 velocity=127 time=0.019791666666666666\n",
      "note_on channel=0 note=61 velocity=127 time=0.017708333333333333\n",
      "note_off channel=0 note=61 velocity=127 time=0.019791666666666666\n",
      "note_on channel=0 note=60 velocity=127 time=0.02395833333333333\n",
      "note_off channel=0 note=60 velocity=127 time=0.019791666666666666\n",
      "note_on channel=0 note=62 velocity=127 time=0.00625\n",
      "note_off channel=0 note=62 velocity=127 time=0.019791666666666666\n",
      "note_on channel=0 note=61 velocity=127 time=0.004166666666666667\n",
      "note_off channel=0 note=61 velocity=127 time=0.019791666666666666\n",
      "note_on channel=0 note=62 velocity=127 time=0.06458333333333333\n",
      "note_on channel=0 note=61 velocity=127 time=0.009375\n",
      "note_off channel=0 note=62 velocity=127 time=0.010416666666666666\n",
      "note_off channel=0 note=61 velocity=127 time=0.009375\n",
      "note_on channel=0 note=60 velocity=127 time=0.005208333333333333\n",
      "note_off channel=0 note=60 velocity=127 time=0.019791666666666666\n",
      "note_on channel=0 note=61 velocity=127 time=0.04895833333333333\n",
      "note_on channel=0 note=62 velocity=127 time=0.004166666666666667\n",
      "note_off channel=0 note=61 velocity=127 time=0.015625\n",
      "\u001b[91m [DEBUG] > \u001b[0m\n",
      " |>  to_array: msg.time > max_t; t, n\n",
      " |>  2.9927083333333355\n",
      " |>  150\n",
      "note_on channel=0 note=62 velocity=127 time=0.0125\n",
      "note_off channel=0 note=62 velocity=127 time=0.019791666666666666\n",
      "note_on channel=0 note=60 velocity=127 time=0.06458333333333333\n",
      "note_on channel=0 note=61 velocity=127 time=0.007291666666666667\n",
      "note_on channel=0 note=62 velocity=127 time=0.003125\n",
      "note_off channel=0 note=60 velocity=127 time=0.009375\n",
      "note_off channel=0 note=61 velocity=127 time=0.007291666666666667\n",
      "note_off channel=0 note=62 velocity=127 time=0.003125\n",
      "note_on channel=0 note=62 velocity=127 time=0.075\n",
      "note_off channel=0 note=62 velocity=127 time=0.019791666666666666\n",
      "note_on channel=0 note=60 velocity=127 time=0.05416666666666667\n",
      "note_on channel=0 note=61 velocity=127 time=0.010416666666666666\n",
      "note_off channel=0 note=60 velocity=127 time=0.009375\n",
      "note_on channel=0 note=62 velocity=127 time=0.0010416666666666667\n",
      "note_off channel=0 note=61 velocity=127 time=0.009375\n",
      "note_off channel=0 note=62 velocity=127 time=0.011458333333333333\n",
      "note_on channel=0 note=62 velocity=127 time=0.075\n",
      "note_off channel=0 note=62 velocity=127 time=0.019791666666666666\n",
      "note_on channel=0 note=60 velocity=127 time=0.04375\n",
      "note_on channel=0 note=61 velocity=127 time=0.0125\n",
      "note_off channel=0 note=60 velocity=127 time=0.007291666666666667\n",
      "note_on channel=0 note=62 velocity=127 time=0.011458333333333333\n",
      "note_off channel=0 note=61 velocity=127 time=0.0010416666666666667\n",
      "note_off channel=0 note=62 velocity=127 time=0.019791666666666666\n",
      "note_on channel=0 note=62 velocity=127 time=0.075\n",
      "note_off channel=0 note=62 velocity=127 time=0.019791666666666666\n",
      "note_on channel=0 note=60 velocity=127 time=0.03333333333333333\n",
      "note_on channel=0 note=61 velocity=127 time=0.014583333333333334\n",
      "note_off channel=0 note=60 velocity=127 time=0.005208333333333333\n",
      "note_off channel=0 note=61 velocity=127 time=0.014583333333333334\n",
      "note_on channel=0 note=62 velocity=127 time=0.007291666666666667\n",
      "note_off channel=0 note=62 velocity=127 time=0.019791666666666666\n",
      "note_on channel=0 note=62 velocity=127 time=0.075\n",
      "note_off channel=0 note=62 velocity=127 time=0.019791666666666666\n",
      "note_on channel=0 note=60 velocity=127 time=0.021875\n",
      "note_on channel=0 note=61 velocity=127 time=0.017708333333333333\n",
      "note_off channel=0 note=60 velocity=127 time=0.003125\n",
      "note_off channel=0 note=61 velocity=127 time=0.017708333333333333\n",
      "note_on channel=0 note=62 velocity=127 time=0.015625\n",
      "note_off channel=0 note=62 velocity=127 time=0.019791666666666666\n",
      "note_on channel=0 note=62 velocity=127 time=0.075\n",
      "note_off channel=0 note=62 velocity=127 time=0.019791666666666666\n",
      "note_on channel=0 note=60 velocity=127 time=0.011458333333333333\n",
      "note_on channel=0 note=61 velocity=127 time=0.019791666666666666\n",
      "note_off channel=0 note=60 velocity=127 time=0\n",
      "note_off channel=0 note=61 velocity=127 time=0.019791666666666666\n",
      "note_on channel=0 note=62 velocity=127 time=0.02395833333333333\n",
      "note_off channel=0 note=62 velocity=127 time=0.019791666666666666\n",
      "note_on channel=0 note=62 velocity=127 time=0.075\n",
      "note_off channel=0 note=62 velocity=127 time=0.019791666666666666\n",
      "note_on channel=0 note=60 velocity=127 time=0.0010416666666666667\n",
      "note_off channel=0 note=60 velocity=127 time=0.019791666666666666\n",
      "note_on channel=0 note=61 velocity=127 time=0.0020833333333333333\n",
      "note_off channel=0 note=61 velocity=127 time=0.019791666666666666\n",
      "note_on channel=0 note=62 velocity=127 time=0.03229166666666666\n",
      "note_off channel=0 note=62 velocity=127 time=0.019791666666666666\n",
      "note_on channel=0 note=62 velocity=127 time=0.075\n",
      "note_on channel=0 note=60 velocity=127 time=0.010416666666666666\n",
      "note_off channel=0 note=62 velocity=127 time=0.009375\n",
      "note_off channel=0 note=60 velocity=127 time=0.010416666666666666\n",
      "note_on channel=0 note=61 velocity=127 time=0.004166666666666667\n",
      "note_off channel=0 note=61 velocity=127 time=0.019791666666666666\n",
      "note_on channel=0 note=62 velocity=127 time=0.040625\n",
      "note_off channel=0 note=62 velocity=127 time=0.019791666666666666\n",
      "note_on channel=0 note=60 velocity=127 time=0.075\n",
      "note_on channel=0 note=62 velocity=127 time=0\n",
      "note_off channel=0 note=60 velocity=127 time=0.019791666666666666\n",
      "note_off channel=0 note=62 velocity=127 time=0\n",
      "note_on channel=0 note=61 velocity=127 time=0.00625\n",
      "note_off channel=0 note=61 velocity=127 time=0.019791666666666666\n",
      "note_on channel=0 note=62 velocity=127 time=0.04895833333333333\n",
      "note_off channel=0 note=62 velocity=127 time=0.019791666666666666\n",
      "note_on channel=0 note=60 velocity=127 time=0.06458333333333333\n",
      "note_on channel=0 note=62 velocity=127 time=0.010416666666666666\n",
      "note_off channel=0 note=60 velocity=127 time=0.009375\n",
      "note_on channel=0 note=61 velocity=127 time=0.009375\n",
      "note_off channel=0 note=62 velocity=127 time=0.0010416666666666667\n",
      "note_off channel=0 note=61 velocity=127 time=0.01875\n",
      "note_on channel=0 note=62 velocity=127 time=0.057291666666666664\n",
      "note_off channel=0 note=62 velocity=127 time=0.019791666666666666\n",
      "note_on channel=0 note=60 velocity=127 time=0.05416666666666667\n",
      "note_off channel=0 note=60 velocity=127 time=0.019791666666666666\n",
      "note_on channel=0 note=62 velocity=127 time=0.0010416666666666667\n",
      "note_on channel=0 note=61 velocity=127 time=0.010416666666666666\n",
      "note_off channel=0 note=62 velocity=127 time=0.009375\n",
      "note_off channel=0 note=61 velocity=127 time=0.010416666666666666\n",
      "note_on channel=0 note=62 velocity=127 time=0.065625\n",
      "note_off channel=0 note=62 velocity=127 time=0.019791666666666666\n",
      "note_on channel=0 note=60 velocity=127 time=0.04375\n",
      "note_off channel=0 note=60 velocity=127 time=0.019791666666666666\n",
      "note_on channel=0 note=62 velocity=127 time=0.0125\n",
      "note_on channel=0 note=61 velocity=127 time=0.0020833333333333333\n",
      "note_off channel=0 note=62 velocity=127 time=0.017708333333333333\n",
      "note_off channel=0 note=61 velocity=127 time=0.0020833333333333333\n",
      "note_on channel=0 note=62 velocity=127 time=0.07395833333333333\n",
      "note_off channel=0 note=62 velocity=127 time=0.019791666666666666\n",
      "note_on channel=0 note=60 velocity=127 time=0.03229166666666666\n",
      "note_off channel=0 note=60 velocity=127 time=0.019791666666666666\n",
      "note_on channel=0 note=61 velocity=127 time=0.016666666666666666\n",
      "note_on channel=0 note=62 velocity=127 time=0.00625\n",
      "note_off channel=0 note=61 velocity=127 time=0.013541666666666667\n",
      "note_off channel=0 note=62 velocity=127 time=0.00625\n",
      "note_on channel=0 note=62 velocity=127 time=0.075\n",
      "note_off channel=0 note=62 velocity=127 time=0.019791666666666666\n",
      "note_on channel=0 note=60 velocity=127 time=0.021875\n",
      "note_off channel=0 note=60 velocity=127 time=0.019791666666666666\n",
      "note_on channel=0 note=61 velocity=127 time=0.01875\n",
      "note_on channel=0 note=62 velocity=127 time=0.014583333333333334\n",
      "note_off channel=0 note=61 velocity=127 time=0.005208333333333333\n",
      "note_off channel=0 note=62 velocity=127 time=0.014583333333333334\n",
      "note_on channel=0 note=62 velocity=127 time=0.075\n",
      "note_off channel=0 note=62 velocity=127 time=0.019791666666666666\n",
      "note_on channel=0 note=60 velocity=127 time=0.011458333333333333\n",
      "note_off channel=0 note=60 velocity=127 time=0.019791666666666666\n",
      "note_on channel=0 note=61 velocity=127 time=0.021875\n",
      "note_off channel=0 note=61 velocity=127 time=0.019791666666666666\n",
      "note_on channel=0 note=62 velocity=127 time=0.003125\n",
      "note_off channel=0 note=62 velocity=127 time=0.019791666666666666\n",
      "note_on channel=0 note=62 velocity=127 time=0.075\n",
      "note_off channel=0 note=62 velocity=127 time=0.019791666666666666\n",
      "note_on channel=0 note=60 velocity=127 time=0.0010416666666666667\n",
      "note_off channel=0 note=60 velocity=127 time=0.019791666666666666\n",
      "note_on channel=0 note=61 velocity=127 time=0.02395833333333333\n",
      "note_off channel=0 note=61 velocity=127 time=0.019791666666666666\n",
      "note_on channel=0 note=62 velocity=127 time=0.011458333333333333\n",
      "note_off channel=0 note=62 velocity=127 time=0.019791666666666666\n",
      "note_on channel=0 note=62 velocity=127 time=0.075\n",
      "note_on channel=0 note=60 velocity=127 time=0.010416666666666666\n",
      "note_off channel=0 note=62 velocity=127 time=0.010416666666666666\n",
      "note_off channel=0 note=60 velocity=127 time=0.010416666666666666\n",
      "\u001b[91m [DEBUG] > \u001b[0m\n",
      " |>  to_array: msg.time > max_t; t, n\n",
      " |>  2.991666666666669\n",
      " |>  150\n",
      "note_on channel=0 note=61 velocity=127 time=0.03333333333333333\n",
      "note_off channel=0 note=61 velocity=127 time=0.019791666666666666\n",
      "note_on channel=0 note=62 velocity=127 time=0.013541666666666667\n",
      "note_on channel=0 note=60 velocity=127 time=0.019791666666666666\n",
      "note_off channel=0 note=62 velocity=127 time=0\n",
      "note_off channel=0 note=60 velocity=127 time=0.019791666666666666\n",
      "note_on channel=0 note=62 velocity=127 time=0.046875\n",
      "note_on channel=0 note=61 velocity=127 time=0.015625\n",
      "note_off channel=0 note=62 velocity=127 time=0.005208333333333333\n",
      "note_off channel=0 note=61 velocity=127 time=0.015625\n",
      "note_on channel=0 note=60 velocity=127 time=0.03229166666666666\n",
      "note_on channel=0 note=62 velocity=127 time=0.019791666666666666\n",
      "note_off channel=0 note=60 velocity=127 time=0\n",
      "note_off channel=0 note=62 velocity=127 time=0.019791666666666666\n",
      "note_on channel=0 note=61 velocity=127 time=0.04375\n",
      "note_off channel=0 note=61 velocity=127 time=0.019791666666666666\n",
      "note_on channel=0 note=62 velocity=127 time=0.003125\n",
      "note_off channel=0 note=62 velocity=127 time=0.019791666666666666\n",
      "note_on channel=0 note=60 velocity=127 time=0.007291666666666667\n",
      "note_off channel=0 note=60 velocity=127 time=0.019791666666666666\n",
      "note_on channel=0 note=62 velocity=127 time=0.03958333333333333\n",
      "note_off channel=0 note=62 velocity=127 time=0.019791666666666666\n",
      "note_on channel=0 note=61 velocity=127 time=0.005208333333333333\n",
      "note_off channel=0 note=61 velocity=127 time=0.019791666666666666\n",
      "note_on channel=0 note=60 velocity=127 time=0.029166666666666667\n",
      "note_on channel=0 note=62 velocity=127 time=0.0125\n",
      "note_off channel=0 note=60 velocity=127 time=0.007291666666666667\n",
      "note_off channel=0 note=62 velocity=127 time=0.0125\n",
      "note_on channel=0 note=61 velocity=127 time=0.053125\n",
      "note_on channel=0 note=62 velocity=127 time=0.013541666666666667\n",
      "note_off channel=0 note=61 velocity=127 time=0.00625\n",
      "note_off channel=0 note=62 velocity=127 time=0.013541666666666667\n",
      "note_on channel=0 note=60 velocity=127 time=0.014583333333333334\n"
     ]
    },
    {
     "name": "stdout",
     "output_type": "stream",
     "text": [
      "note_off channel=0 note=60 velocity=127 time=0.019791666666666666\n",
      "note_on channel=0 note=62 velocity=127 time=0.03229166666666666\n",
      "note_off channel=0 note=62 velocity=127 time=0.019791666666666666\n",
      "note_on channel=0 note=61 velocity=127 time=0.014583333333333334\n",
      "note_off channel=0 note=61 velocity=127 time=0.019791666666666666\n",
      "note_on channel=0 note=60 velocity=127 time=0.027083333333333334\n",
      "note_on channel=0 note=62 velocity=127 time=0.005208333333333333\n",
      "note_off channel=0 note=60 velocity=127 time=0.014583333333333334\n",
      "note_off channel=0 note=62 velocity=127 time=0.005208333333333333\n",
      "note_on channel=0 note=61 velocity=127 time=0.0625\n",
      "note_on channel=0 note=62 velocity=127 time=0.004166666666666667\n",
      "note_off channel=0 note=61 velocity=127 time=0.015625\n",
      "note_off channel=0 note=62 velocity=127 time=0.004166666666666667\n",
      "note_on channel=0 note=60 velocity=127 time=0.021875\n",
      "note_off channel=0 note=60 velocity=127 time=0.019791666666666666\n",
      "note_on channel=0 note=62 velocity=127 time=0.025\n",
      "note_off channel=0 note=62 velocity=127 time=0.019791666666666666\n",
      "note_on channel=0 note=61 velocity=127 time=0.02395833333333333\n",
      "note_off channel=0 note=61 velocity=127 time=0.019791666666666666\n",
      "note_on channel=0 note=62 velocity=127 time=0.022916666666666665\n",
      "note_on channel=0 note=60 velocity=127 time=0.0020833333333333333\n",
      "note_off channel=0 note=62 velocity=127 time=0.017708333333333333\n",
      "note_off channel=0 note=60 velocity=127 time=0.0020833333333333333\n",
      "note_on channel=0 note=62 velocity=127 time=0.06458333333333333\n",
      "note_on channel=0 note=61 velocity=127 time=0.005208333333333333\n",
      "note_off channel=0 note=62 velocity=127 time=0.014583333333333334\n",
      "note_off channel=0 note=61 velocity=127 time=0.005208333333333333\n",
      "note_on channel=0 note=60 velocity=127 time=0.02395833333333333\n",
      "note_off channel=0 note=60 velocity=127 time=0.019791666666666666\n",
      "note_on channel=0 note=62 velocity=127 time=0.017708333333333333\n",
      "note_off channel=0 note=62 velocity=127 time=0.019791666666666666\n",
      "note_on channel=0 note=61 velocity=127 time=0.034375\n",
      "note_off channel=0 note=61 velocity=127 time=0.019791666666666666\n",
      "note_on channel=0 note=62 velocity=127 time=0.0125\n",
      "note_on channel=0 note=60 velocity=127 time=0.009375\n",
      "note_off channel=0 note=62 velocity=127 time=0.010416666666666666\n",
      "note_off channel=0 note=60 velocity=127 time=0.009375\n",
      "note_on channel=0 note=62 velocity=127 time=0.057291666666666664\n",
      "note_on channel=0 note=61 velocity=127 time=0.015625\n",
      "note_off channel=0 note=62 velocity=127 time=0.004166666666666667\n",
      "note_off channel=0 note=61 velocity=127 time=0.015625\n",
      "note_on channel=0 note=60 velocity=127 time=0.021875\n",
      "note_off channel=0 note=60 velocity=127 time=0.019791666666666666\n",
      "note_on channel=0 note=62 velocity=127 time=0.009375\n",
      "note_off channel=0 note=62 velocity=127 time=0.019791666666666666\n",
      "note_on channel=0 note=61 velocity=127 time=0.04375\n",
      "note_off channel=0 note=61 velocity=127 time=0.019791666666666666\n",
      "note_on channel=0 note=62 velocity=127 time=0.003125\n",
      "note_on channel=0 note=60 velocity=127 time=0.017708333333333333\n",
      "note_off channel=0 note=62 velocity=127 time=0.003125\n",
      "note_off channel=0 note=60 velocity=127 time=0.017708333333333333\n",
      "note_on channel=0 note=62 velocity=127 time=0.05\n",
      "note_off channel=0 note=62 velocity=127 time=0.019791666666666666\n",
      "note_on channel=0 note=61 velocity=127 time=0.005208333333333333\n",
      "note_off channel=0 note=61 velocity=127 time=0.019791666666666666\n",
      "note_on channel=0 note=60 velocity=127 time=0.019791666666666666\n",
      "note_off channel=0 note=60 velocity=127 time=0.019791666666666666\n",
      "note_on channel=0 note=62 velocity=127 time=0.0020833333333333333\n",
      "note_off channel=0 note=62 velocity=127 time=0.019791666666666666\n",
      "note_on channel=0 note=61 velocity=127 time=0.053125\n",
      "note_on channel=0 note=62 velocity=127 time=0.013541666666666667\n",
      "note_off channel=0 note=61 velocity=127 time=0.00625\n",
      "note_off channel=0 note=62 velocity=127 time=0.013541666666666667\n",
      "note_on channel=0 note=60 velocity=127 time=0.004166666666666667\n",
      "note_off channel=0 note=60 velocity=127 time=0.019791666666666666\n",
      "note_on channel=0 note=62 velocity=127 time=0.042708333333333334\n",
      "note_off channel=0 note=62 velocity=127 time=0.019791666666666666\n",
      "note_on channel=0 note=61 velocity=127 time=0.014583333333333334\n",
      "note_off channel=0 note=61 velocity=127 time=0.019791666666666666\n",
      "note_on channel=0 note=60 velocity=127 time=0.016666666666666666\n",
      "note_on channel=0 note=62 velocity=127 time=0.014583333333333334\n",
      "note_off channel=0 note=60 velocity=127 time=0.005208333333333333\n",
      "note_off channel=0 note=62 velocity=127 time=0.014583333333333334\n",
      "note_on channel=0 note=61 velocity=127 time=0.06354166666666666\n",
      "note_on channel=0 note=62 velocity=127 time=0.004166666666666667\n",
      "note_off channel=0 note=61 velocity=127 time=0.015625\n",
      "note_off channel=0 note=62 velocity=127 time=0.004166666666666667\n",
      "note_on channel=0 note=60 velocity=127 time=0.0125\n",
      "note_off channel=0 note=60 velocity=127 time=0.019791666666666666\n",
      "note_on channel=0 note=62 velocity=127 time=0.034375\n",
      "note_off channel=0 note=62 velocity=127 time=0.019791666666666666\n",
      "note_on channel=0 note=61 velocity=127 time=0.02395833333333333\n",
      "note_off channel=0 note=61 velocity=127 time=0.019791666666666666\n",
      "note_on channel=0 note=60 velocity=127 time=0.014583333333333334\n",
      "note_on channel=0 note=62 velocity=127 time=0.007291666666666667\n",
      "note_off channel=0 note=60 velocity=127 time=0.0125\n",
      "note_off channel=0 note=62 velocity=127 time=0.007291666666666667\n",
      "note_on channel=0 note=62 velocity=127 time=0.06666666666666667\n",
      "note_on channel=0 note=61 velocity=127 time=0.00625\n",
      "note_off channel=0 note=62 velocity=127 time=0.014583333333333334\n",
      "note_off channel=0 note=61 velocity=127 time=0.00625\n",
      "note_on channel=0 note=60 velocity=127 time=0.013541666666666667\n",
      "note_off channel=0 note=60 velocity=127 time=0.019791666666666666\n",
      "note_on channel=0 note=62 velocity=127 time=0.027083333333333334\n",
      "note_off channel=0 note=62 velocity=127 time=0.019791666666666666\n",
      "note_on channel=0 note=61 velocity=127 time=0.034375\n",
      "note_off channel=0 note=61 velocity=127 time=0.019791666666666666\n",
      "note_on channel=0 note=60 velocity=127 time=0.0125\n",
      "note_on channel=0 note=62 velocity=127 time=0\n",
      "note_off channel=0 note=60 velocity=127 time=0.019791666666666666\n",
      "note_off channel=0 note=62 velocity=127 time=0\n",
      "note_on channel=0 note=62 velocity=127 time=0.06666666666666667\n",
      "note_on channel=0 note=61 velocity=127 time=0.015625\n",
      "note_off channel=0 note=62 velocity=127 time=0.004166666666666667\n",
      "note_off channel=0 note=61 velocity=127 time=0.015625\n",
      "note_on channel=0 note=60 velocity=127 time=0.011458333333333333\n",
      "note_off channel=0 note=60 velocity=127 time=0.019791666666666666\n",
      "note_on channel=0 note=62 velocity=127 time=0.019791666666666666\n",
      "note_off channel=0 note=62 velocity=127 time=0.019791666666666666\n",
      "note_on channel=0 note=61 velocity=127 time=0.04375\n",
      "note_off channel=0 note=61 velocity=127 time=0.019791666666666666\n",
      "note_on channel=0 note=62 velocity=127 time=0.003125\n",
      "note_on channel=0 note=60 velocity=127 time=0.007291666666666667\n",
      "note_off channel=0 note=62 velocity=127 time=0.0125\n",
      "note_off channel=0 note=60 velocity=127 time=0.007291666666666667\n",
      "note_on channel=0 note=62 velocity=127 time=0.059375\n",
      "note_off channel=0 note=62 velocity=127 time=0.019791666666666666\n",
      "note_on channel=0 note=61 velocity=127 time=0.005208333333333333\n",
      "note_off channel=0 note=61 velocity=127 time=0.019791666666666666\n",
      "note_on channel=0 note=60 velocity=127 time=0.009375\n",
      "note_off channel=0 note=60 velocity=127 time=0.019791666666666666\n",
      "note_on channel=0 note=62 velocity=127 time=0.0125\n",
      "note_off channel=0 note=62 velocity=127 time=0.019791666666666666\n",
      "note_on channel=0 note=61 velocity=127 time=0.053125\n",
      "\u001b[91m [DEBUG] > \u001b[0m\n",
      " |>  to_array: msg.time > max_t; t, n\n",
      " |>  2.9968750000000055\n",
      " |>  150\n",
      "note_on channel=0 note=62 velocity=127 time=0.01875\n",
      "note_off channel=0 note=62 velocity=127 time=0.019791666666666666\n",
      "note_on channel=0 note=61 velocity=127 time=0.03125\n",
      "note_off channel=0 note=61 velocity=127 time=0.019791666666666666\n",
      "note_on channel=0 note=62 velocity=127 time=0\n",
      "note_off channel=0 note=62 velocity=127 time=0.019791666666666666\n",
      "note_on channel=0 note=61 velocity=127 time=0.042708333333333334\n",
      "note_on channel=0 note=60 velocity=127 time=0.007291666666666667\n",
      "note_on channel=0 note=62 velocity=127 time=0.0010416666666666667\n",
      "note_off channel=0 note=61 velocity=127 time=0.011458333333333333\n",
      "note_off channel=0 note=60 velocity=127 time=0.007291666666666667\n",
      "note_off channel=0 note=62 velocity=127 time=0.0010416666666666667\n",
      "note_on channel=0 note=62 velocity=127 time=0.051041666666666666\n",
      "note_on channel=0 note=61 velocity=127 time=0.0020833333333333333\n",
      "note_off channel=0 note=62 velocity=127 time=0.017708333333333333\n",
      "note_off channel=0 note=61 velocity=127 time=0.0020833333333333333\n",
      "note_on channel=0 note=62 velocity=127 time=0.04895833333333333\n",
      "note_on channel=0 note=61 velocity=127 time=0.013541666666666667\n",
      "note_off channel=0 note=62 velocity=127 time=0.00625\n",
      "note_off channel=0 note=61 velocity=127 time=0.013541666666666667\n",
      "note_on channel=0 note=62 velocity=127 time=0.0375\n",
      "note_off channel=0 note=62 velocity=127 time=0.019791666666666666\n",
      "note_on channel=0 note=61 velocity=127 time=0.005208333333333333\n",
      "note_off channel=0 note=61 velocity=127 time=0.019791666666666666\n",
      "note_on channel=0 note=62 velocity=127 time=0.026041666666666668\n",
      "note_on channel=0 note=60 velocity=127 time=0.017708333333333333\n",
      "note_off channel=0 note=62 velocity=127 time=0.0020833333333333333\n",
      "note_on channel=0 note=61 velocity=127 time=0.016666666666666666\n",
      "note_off channel=0 note=60 velocity=127 time=0.0010416666666666667\n",
      "note_off channel=0 note=61 velocity=127 time=0.01875\n",
      "note_on channel=0 note=62 velocity=127 time=0.014583333333333334\n",
      "note_off channel=0 note=62 velocity=127 time=0.019791666666666666\n",
      "note_on channel=0 note=61 velocity=127 time=0.028125\n",
      "note_off channel=0 note=61 velocity=127 time=0.019791666666666666\n",
      "note_on channel=0 note=62 velocity=127 time=0.003125\n",
      "note_off channel=0 note=62 velocity=127 time=0.019791666666666666\n",
      "note_on channel=0 note=61 velocity=127 time=0.03958333333333333\n",
      "note_on channel=0 note=62 velocity=127 time=0.011458333333333333\n",
      "note_off channel=0 note=61 velocity=127 time=0.008333333333333333\n",
      "note_off channel=0 note=62 velocity=127 time=0.011458333333333333\n",
      "note_on channel=0 note=61 velocity=127 time=0.051041666666666666\n",
      "note_on channel=0 note=62 velocity=127 time=0\n",
      "note_off channel=0 note=61 velocity=127 time=0.019791666666666666\n",
      "note_off channel=0 note=62 velocity=127 time=0\n",
      "note_on channel=0 note=60 velocity=127 time=0.016666666666666666\n",
      "note_off channel=0 note=60 velocity=127 time=0.019791666666666666\n",
      "note_on channel=0 note=62 velocity=127 time=0.014583333333333334\n",
      "note_on channel=0 note=61 velocity=127 time=0.010416666666666666\n",
      "note_off channel=0 note=62 velocity=127 time=0.009375\n",
      "note_off channel=0 note=61 velocity=127 time=0.010416666666666666\n",
      "note_on channel=0 note=62 velocity=127 time=0.040625\n",
      "note_off channel=0 note=62 velocity=127 time=0.019791666666666666\n",
      "note_on channel=0 note=61 velocity=127 time=0.0020833333333333333\n",
      "note_off channel=0 note=61 velocity=127 time=0.019791666666666666\n",
      "note_on channel=0 note=62 velocity=127 time=0.029166666666666667\n",
      "note_off channel=0 note=62 velocity=127 time=0.019791666666666666\n",
      "note_on channel=0 note=61 velocity=127 time=0.013541666666666667\n",
      "note_off channel=0 note=61 velocity=127 time=0.019791666666666666\n",
      "note_on channel=0 note=62 velocity=127 time=0.017708333333333333\n",
      "note_off channel=0 note=62 velocity=127 time=0.019791666666666666\n",
      "note_on channel=0 note=61 velocity=127 time=0.025\n",
      "note_on channel=0 note=60 velocity=127 time=0.011458333333333333\n",
      "note_off channel=0 note=61 velocity=127 time=0.009375\n",
      "note_on channel=0 note=62 velocity=127 time=0.00625\n",
      "note_off channel=0 note=60 velocity=127 time=0.005208333333333333\n",
      "note_off channel=0 note=62 velocity=127 time=0.014583333333333334\n",
      "note_on channel=0 note=61 velocity=127 time=0.036458333333333336\n",
      "note_on channel=0 note=62 velocity=127 time=0.014583333333333334\n",
      "note_off channel=0 note=61 velocity=127 time=0.005208333333333333\n",
      "note_off channel=0 note=62 velocity=127 time=0.014583333333333334\n",
      "note_on channel=0 note=61 velocity=127 time=0.04791666666666666\n",
      "note_on channel=0 note=62 velocity=127 time=0.003125\n",
      "note_off channel=0 note=61 velocity=127 time=0.016666666666666666\n",
      "note_off channel=0 note=62 velocity=127 time=0.003125\n",
      "note_on channel=0 note=62 velocity=127 time=0.051041666666666666\n",
      "note_on channel=0 note=61 velocity=127 time=0.008333333333333333\n",
      "note_off channel=0 note=62 velocity=127 time=0.0125\n",
      "note_off channel=0 note=61 velocity=127 time=0.008333333333333333\n",
      "note_on channel=0 note=62 velocity=127 time=0.04375\n",
      "note_on channel=0 note=60 velocity=127 time=0.004166666666666667\n",
      "note_on channel=0 note=61 velocity=127 time=0.015625\n",
      "note_off channel=0 note=62 velocity=127 time=0.0010416666666666667\n",
      "note_off channel=0 note=60 velocity=127 time=0.004166666666666667\n",
      "note_off channel=0 note=61 velocity=127 time=0.015625\n",
      "note_on channel=0 note=62 velocity=127 time=0.03229166666666666\n",
      "note_off channel=0 note=62 velocity=127 time=0.019791666666666666\n",
      "note_on channel=0 note=61 velocity=127 time=0.010416666666666666\n",
      "note_off channel=0 note=61 velocity=127 time=0.019791666666666666\n",
      "note_on channel=0 note=62 velocity=127 time=0.020833333333333332\n",
      "note_off channel=0 note=62 velocity=127 time=0.019791666666666666\n",
      "note_on channel=0 note=61 velocity=127 time=0.021875\n",
      "note_off channel=0 note=61 velocity=127 time=0.019791666666666666\n",
      "note_on channel=0 note=62 velocity=127 time=0.009375\n",
      "note_off channel=0 note=62 velocity=127 time=0.019791666666666666\n",
      "note_on channel=0 note=61 velocity=127 time=0.03333333333333333\n",
      "note_on channel=0 note=62 velocity=127 time=0.017708333333333333\n",
      "note_off channel=0 note=61 velocity=127 time=0.0020833333333333333\n",
      "note_off channel=0 note=62 velocity=127 time=0.017708333333333333\n",
      "note_on channel=0 note=60 velocity=127 time=0.003125\n",
      "note_off channel=0 note=60 velocity=127 time=0.019791666666666666\n",
      "note_on channel=0 note=61 velocity=127 time=0.021875\n",
      "note_on channel=0 note=62 velocity=127 time=0.00625\n",
      "note_off channel=0 note=61 velocity=127 time=0.013541666666666667\n",
      "note_off channel=0 note=62 velocity=127 time=0.00625\n",
      "note_on channel=0 note=62 velocity=127 time=0.051041666666666666\n",
      "note_on channel=0 note=61 velocity=127 time=0.005208333333333333\n",
      "note_off channel=0 note=62 velocity=127 time=0.014583333333333334\n",
      "note_off channel=0 note=61 velocity=127 time=0.005208333333333333\n",
      "note_on channel=0 note=62 velocity=127 time=0.04583333333333333\n",
      "note_on channel=0 note=61 velocity=127 time=0.016666666666666666\n",
      "note_off channel=0 note=62 velocity=127 time=0.003125\n",
      "note_off channel=0 note=61 velocity=127 time=0.016666666666666666\n",
      "note_on channel=0 note=62 velocity=127 time=0.034375\n",
      "note_off channel=0 note=62 velocity=127 time=0.019791666666666666\n",
      "note_on channel=0 note=61 velocity=127 time=0.007291666666666667\n",
      "note_on channel=0 note=60 velocity=127 time=0.014583333333333334\n",
      "note_off channel=0 note=61 velocity=127 time=0.005208333333333333\n",
      "note_off channel=0 note=60 velocity=127 time=0.014583333333333334\n",
      "note_on channel=0 note=62 velocity=127 time=0.008333333333333333\n",
      "note_off channel=0 note=62 velocity=127 time=0.019791666666666666\n",
      "note_on channel=0 note=61 velocity=127 time=0.01875\n",
      "note_off channel=0 note=61 velocity=127 time=0.019791666666666666\n",
      "note_on channel=0 note=62 velocity=127 time=0.0125\n",
      "note_off channel=0 note=62 velocity=127 time=0.019791666666666666\n",
      "note_on channel=0 note=61 velocity=127 time=0.030208333333333334\n",
      "note_off channel=0 note=61 velocity=127 time=0.019791666666666666\n",
      "note_on channel=0 note=62 velocity=127 time=0.0010416666666666667\n",
      "note_off channel=0 note=62 velocity=127 time=0.019791666666666666\n",
      "note_on channel=0 note=61 velocity=127 time=0.041666666666666664\n",
      "note_on channel=0 note=62 velocity=127 time=0.009375\n",
      "note_off channel=0 note=61 velocity=127 time=0.010416666666666666\n",
      "note_off channel=0 note=62 velocity=127 time=0.009375\n",
      "note_on channel=0 note=60 velocity=127 time=0.041666666666666664\n",
      "note_on channel=0 note=62 velocity=127 time=0.009375\n",
      "note_on channel=0 note=61 velocity=127 time=0.0020833333333333333\n",
      "note_off channel=0 note=60 velocity=127 time=0.008333333333333333\n",
      "note_off channel=0 note=62 velocity=127 time=0.009375\n",
      "note_off channel=0 note=61 velocity=127 time=0.0020833333333333333\n",
      "note_on channel=0 note=62 velocity=127 time=0.04895833333333333\n",
      "note_on channel=0 note=61 velocity=127 time=0.013541666666666667\n",
      "note_off channel=0 note=62 velocity=127 time=0.00625\n",
      "note_off channel=0 note=61 velocity=127 time=0.013541666666666667\n",
      "note_on channel=0 note=62 velocity=127 time=0.0375\n",
      "note_off channel=0 note=62 velocity=127 time=0.019791666666666666\n",
      "note_on channel=0 note=61 velocity=127 time=0.005208333333333333\n",
      "note_off channel=0 note=61 velocity=127 time=0.019791666666666666\n",
      "note_on channel=0 note=62 velocity=127 time=0.026041666666666668\n",
      "note_off channel=0 note=62 velocity=127 time=0.019791666666666666\n",
      "note_on channel=0 note=61 velocity=127 time=0.016666666666666666\n",
      "note_off channel=0 note=61 velocity=127 time=0.019791666666666666\n",
      "note_on channel=0 note=62 velocity=127 time=0.014583333333333334\n",
      "note_on channel=0 note=60 velocity=127 time=0.009375\n",
      "note_off channel=0 note=62 velocity=127 time=0.010416666666666666\n",
      "note_off channel=0 note=60 velocity=127 time=0.009375\n",
      "note_on channel=0 note=61 velocity=127 time=0.017708333333333333\n",
      "note_off channel=0 note=61 velocity=127 time=0.019791666666666666\n",
      "note_on channel=0 note=62 velocity=127 time=0.003125\n",
      "note_off channel=0 note=62 velocity=127 time=0.019791666666666666\n",
      "note_on channel=0 note=61 velocity=127 time=0.03854166666666667\n",
      "note_on channel=0 note=62 velocity=127 time=0.0125\n",
      "note_off channel=0 note=61 velocity=127 time=0.007291666666666667\n",
      "note_off channel=0 note=62 velocity=127 time=0.0125\n",
      "note_on channel=0 note=61 velocity=127 time=0.05\n",
      "note_on channel=0 note=62 velocity=127 time=0.0010416666666666667\n",
      "note_off channel=0 note=61 velocity=127 time=0.01875\n",
      "note_off channel=0 note=62 velocity=127 time=0.0010416666666666667\n",
      "note_on channel=0 note=62 velocity=127 time=0.051041666666666666\n",
      "note_on channel=0 note=61 velocity=127 time=0.010416666666666666\n",
      "note_off channel=0 note=62 velocity=127 time=0.009375\n",
      "note_on channel=0 note=60 velocity=127 time=0.009375\n",
      "note_off channel=0 note=61 velocity=127 time=0.0020833333333333333\n",
      "note_off channel=0 note=60 velocity=127 time=0.01875\n",
      "note_on channel=0 note=62 velocity=127 time=0.021875\n",
      "note_off channel=0 note=62 velocity=127 time=0.019791666666666666\n",
      "note_on channel=0 note=61 velocity=127 time=0.0020833333333333333\n",
      "note_off channel=0 note=61 velocity=127 time=0.019791666666666666\n",
      "note_on channel=0 note=62 velocity=127 time=0.029166666666666667\n",
      "\u001b[91m [DEBUG] > \u001b[0m\n",
      " |>  to_array: msg.time > max_t; t, n\n",
      " |>  2.9979166666666672\n",
      " |>  150\n",
      "note_on channel=0 note=60 velocity=127 time=0.03958333333333333\n",
      "note_on channel=0 note=61 velocity=127 time=0.01875\n",
      "note_off channel=0 note=60 velocity=127 time=0.0010416666666666667\n",
      "note_off channel=0 note=61 velocity=127 time=0.01875\n",
      "note_on channel=0 note=61 velocity=127 time=0.06979166666666667\n",
      "note_off channel=0 note=61 velocity=127 time=0.019791666666666666\n",
      "note_on channel=0 note=62 velocity=127 time=0.027083333333333334\n",
      "note_off channel=0 note=62 velocity=127 time=0.019791666666666666\n",
      "note_on channel=0 note=61 velocity=127 time=0.02395833333333333\n",
      "note_off channel=0 note=61 velocity=127 time=0.019791666666666666\n",
      "note_on channel=0 note=60 velocity=127 time=0.0625\n",
      "note_on channel=0 note=61 velocity=127 time=0.007291666666666667\n",
      "note_off channel=0 note=60 velocity=127 time=0.0125\n",
      "note_off channel=0 note=61 velocity=127 time=0.007291666666666667\n",
      "note_on channel=0 note=61 velocity=127 time=0.06979166666666667\n",
      "note_off channel=0 note=61 velocity=127 time=0.019791666666666666\n",
      "note_on channel=0 note=62 velocity=127 time=0.04791666666666666\n",
      "note_off channel=0 note=62 velocity=127 time=0.019791666666666666\n",
      "note_on channel=0 note=61 velocity=127 time=0.0020833333333333333\n",
      "note_off channel=0 note=61 velocity=127 time=0.019791666666666666\n",
      "note_on channel=0 note=61 velocity=127 time=0.06979166666666667\n",
      "note_on channel=0 note=60 velocity=127 time=0.004166666666666667\n",
      "note_off channel=0 note=61 velocity=127 time=0.015625\n",
      "note_off channel=0 note=60 velocity=127 time=0.004166666666666667\n",
      "note_on channel=0 note=61 velocity=127 time=0.06666666666666667\n",
      "note_off channel=0 note=61 velocity=127 time=0.019791666666666666\n",
      "note_on channel=0 note=62 velocity=127 time=0.06875\n",
      "note_on channel=0 note=61 velocity=127 time=0.0010416666666666667\n",
      "note_off channel=0 note=62 velocity=127 time=0.01875\n",
      "note_off channel=0 note=61 velocity=127 time=0.0010416666666666667\n",
      "note_on channel=0 note=61 velocity=127 time=0.06979166666666667\n",
      "note_on channel=0 note=60 velocity=127 time=0.015625\n",
      "note_off channel=0 note=61 velocity=127 time=0.004166666666666667\n",
      "note_off channel=0 note=60 velocity=127 time=0.015625\n",
      "note_on channel=0 note=61 velocity=127 time=0.05520833333333333\n",
      "note_off channel=0 note=61 velocity=127 time=0.019791666666666666\n",
      "note_on channel=0 note=61 velocity=127 time=0.06979166666666667\n",
      "note_on channel=0 note=62 velocity=127 time=0.019791666666666666\n",
      "note_off channel=0 note=61 velocity=127 time=0\n",
      "note_off channel=0 note=62 velocity=127 time=0.019791666666666666\n",
      "note_on channel=0 note=61 velocity=127 time=0.05\n",
      "note_off channel=0 note=61 velocity=127 time=0.019791666666666666\n",
      "note_on channel=0 note=60 velocity=127 time=0.007291666666666667\n",
      "note_off channel=0 note=60 velocity=127 time=0.019791666666666666\n",
      "note_on channel=0 note=61 velocity=127 time=0.04375\n",
      "note_off channel=0 note=61 velocity=127 time=0.019791666666666666\n",
      "note_on channel=0 note=61 velocity=127 time=0.06979166666666667\n",
      "note_off channel=0 note=61 velocity=127 time=0.019791666666666666\n",
      "note_on channel=0 note=62 velocity=127 time=0.020833333333333332\n",
      "note_off channel=0 note=62 velocity=127 time=0.019791666666666666\n",
      "note_on channel=0 note=61 velocity=127 time=0.029166666666666667\n",
      "note_off channel=0 note=61 velocity=127 time=0.019791666666666666\n",
      "note_on channel=0 note=60 velocity=127 time=0.01875\n",
      "note_off channel=0 note=60 velocity=127 time=0.019791666666666666\n",
      "note_on channel=0 note=61 velocity=127 time=0.03229166666666666\n",
      "note_off channel=0 note=61 velocity=127 time=0.019791666666666666\n",
      "note_on channel=0 note=61 velocity=127 time=0.06979166666666667\n",
      "note_off channel=0 note=61 velocity=127 time=0.019791666666666666\n",
      "note_on channel=0 note=62 velocity=127 time=0.042708333333333334\n",
      "note_off channel=0 note=62 velocity=127 time=0.019791666666666666\n",
      "note_on channel=0 note=61 velocity=127 time=0.008333333333333333\n",
      "note_off channel=0 note=61 velocity=127 time=0.019791666666666666\n",
      "note_on channel=0 note=60 velocity=127 time=0.030208333333333334\n",
      "note_off channel=0 note=60 velocity=127 time=0.019791666666666666\n",
      "note_on channel=0 note=61 velocity=127 time=0.020833333333333332\n",
      "note_off channel=0 note=61 velocity=127 time=0.019791666666666666\n",
      "note_on channel=0 note=61 velocity=127 time=0.06979166666666667\n",
      "note_off channel=0 note=61 velocity=127 time=0.019791666666666666\n",
      "note_on channel=0 note=62 velocity=127 time=0.06354166666666666\n",
      "note_on channel=0 note=61 velocity=127 time=0.007291666666666667\n",
      "note_off channel=0 note=62 velocity=127 time=0.013541666666666667\n",
      "note_off channel=0 note=61 velocity=127 time=0.007291666666666667\n",
      "note_on channel=0 note=60 velocity=127 time=0.041666666666666664\n",
      "note_off channel=0 note=60 velocity=127 time=0.019791666666666666\n",
      "note_on channel=0 note=61 velocity=127 time=0.009375\n",
      "note_off channel=0 note=61 velocity=127 time=0.019791666666666666\n",
      "note_on channel=0 note=61 velocity=127 time=0.06979166666666667\n",
      "note_off channel=0 note=61 velocity=127 time=0.019791666666666666\n",
      "note_on channel=0 note=61 velocity=127 time=0.06979166666666667\n",
      "note_on channel=0 note=62 velocity=127 time=0.014583333333333334\n",
      "note_off channel=0 note=61 velocity=127 time=0.005208333333333333\n",
      "note_off channel=0 note=62 velocity=127 time=0.014583333333333334\n",
      "note_on channel=0 note=60 velocity=127 time=0.03854166666666667\n",
      "note_on channel=0 note=61 velocity=127 time=0.017708333333333333\n",
      "note_off channel=0 note=60 velocity=127 time=0.0020833333333333333\n",
      "note_off channel=0 note=61 velocity=127 time=0.017708333333333333\n",
      "note_on channel=0 note=61 velocity=127 time=0.06979166666666667\n",
      "note_off channel=0 note=61 velocity=127 time=0.019791666666666666\n",
      "note_on channel=0 note=61 velocity=127 time=0.06979166666666667\n",
      "note_off channel=0 note=61 velocity=127 time=0.019791666666666666\n",
      "note_on channel=0 note=62 velocity=127 time=0.015625\n",
      "note_off channel=0 note=62 velocity=127 time=0.019791666666666666\n",
      "note_on channel=0 note=60 velocity=127 time=0.029166666666666667\n",
      "note_on channel=0 note=61 velocity=127 time=0.00625\n",
      "note_off channel=0 note=60 velocity=127 time=0.013541666666666667\n",
      "note_off channel=0 note=61 velocity=127 time=0.00625\n",
      "note_on channel=0 note=61 velocity=127 time=0.06979166666666667\n",
      "note_off channel=0 note=61 velocity=127 time=0.019791666666666666\n",
      "note_on channel=0 note=61 velocity=127 time=0.06979166666666667\n",
      "note_off channel=0 note=61 velocity=127 time=0.019791666666666666\n",
      "note_on channel=0 note=62 velocity=127 time=0.036458333333333336\n",
      "note_off channel=0 note=62 velocity=127 time=0.019791666666666666\n",
      "note_on channel=0 note=61 velocity=127 time=0.013541666666666667\n",
      "note_on channel=0 note=60 velocity=127 time=0.005208333333333333\n",
      "note_off channel=0 note=61 velocity=127 time=0.014583333333333334\n",
      "note_off channel=0 note=60 velocity=127 time=0.005208333333333333\n",
      "note_on channel=0 note=61 velocity=127 time=0.06458333333333333\n",
      "note_off channel=0 note=61 velocity=127 time=0.019791666666666666\n",
      "note_on channel=0 note=61 velocity=127 time=0.06979166666666667\n",
      "\u001b[91m [DEBUG] > \u001b[0m\n",
      " |>  to_array: msg.time > max_t; t, n\n",
      " |>  3.027083333333336\n",
      " |>  150\n",
      "note_on channel=0 note=61 velocity=127 time=0.021875\n",
      "note_off channel=0 note=61 velocity=127 time=0.019791666666666666\n",
      "note_on channel=0 note=62 velocity=127 time=0.04375\n",
      "note_off channel=0 note=62 velocity=127 time=0.019791666666666666\n",
      "note_on channel=0 note=61 velocity=127 time=0.011458333333333333\n",
      "note_on channel=0 note=60 velocity=127 time=0.00625\n",
      "note_off channel=0 note=61 velocity=127 time=0.013541666666666667\n",
      "note_off channel=0 note=60 velocity=127 time=0.00625\n",
      "note_on channel=0 note=62 velocity=127 time=0.030208333333333334\n",
      "note_off channel=0 note=62 velocity=127 time=0.019791666666666666\n",
      "note_on channel=0 note=61 velocity=127 time=0.01875\n",
      "note_off channel=0 note=61 velocity=127 time=0.019791666666666666\n",
      "note_on channel=0 note=62 velocity=127 time=0.030208333333333334\n",
      "note_on channel=0 note=60 velocity=127 time=0.013541666666666667\n",
      "note_off channel=0 note=62 velocity=127 time=0.007291666666666667\n",
      "note_off channel=0 note=60 velocity=127 time=0.013541666666666667\n",
      "note_on channel=0 note=61 velocity=127 time=0.0125\n",
      "note_off channel=0 note=61 velocity=127 time=0.019791666666666666\n",
      "note_on channel=0 note=62 velocity=127 time=0.02395833333333333\n",
      "note_off channel=0 note=62 velocity=127 time=0.019791666666666666\n",
      "note_on channel=0 note=61 velocity=127 time=0.03229166666666666\n",
      "note_off channel=0 note=61 velocity=127 time=0.019791666666666666\n",
      "note_on channel=0 note=60 velocity=127 time=0.005208333333333333\n",
      "note_on channel=0 note=62 velocity=127 time=0.0125\n",
      "note_off channel=0 note=60 velocity=127 time=0.007291666666666667\n",
      "note_off channel=0 note=62 velocity=127 time=0.0125\n",
      "note_on channel=0 note=61 velocity=127 time=0.03854166666666667\n",
      "note_off channel=0 note=61 velocity=127 time=0.019791666666666666\n",
      "note_on channel=0 note=62 velocity=127 time=0.010416666666666666\n",
      "note_off channel=0 note=62 velocity=127 time=0.019791666666666666\n",
      "note_on channel=0 note=60 velocity=127 time=0.03125\n",
      "note_on channel=0 note=61 velocity=127 time=0.013541666666666667\n",
      "note_off channel=0 note=60 velocity=127 time=0.00625\n",
      "note_off channel=0 note=61 velocity=127 time=0.013541666666666667\n",
      "note_on channel=0 note=62 velocity=127 time=0.004166666666666667\n",
      "note_off channel=0 note=62 velocity=127 time=0.019791666666666666\n",
      "note_on channel=0 note=61 velocity=127 time=0.052083333333333336\n",
      "note_on channel=0 note=62 velocity=127 time=0.016666666666666666\n",
      "note_off channel=0 note=61 velocity=127 time=0.003125\n",
      "note_off channel=0 note=62 velocity=127 time=0.016666666666666666\n",
      "note_on channel=0 note=60 velocity=127 time=0.00625\n",
      "note_off channel=0 note=60 velocity=127 time=0.019791666666666666\n",
      "note_on channel=0 note=61 velocity=127 time=0.03333333333333333\n",
      "note_on channel=0 note=62 velocity=127 time=0.010416666666666666\n",
      "note_off channel=0 note=61 velocity=127 time=0.009375\n",
      "note_off channel=0 note=62 velocity=127 time=0.010416666666666666\n",
      "note_on channel=0 note=61 velocity=127 time=0.065625\n",
      "note_on channel=0 note=62 velocity=127 time=0.004166666666666667\n",
      "note_on channel=0 note=60 velocity=127 time=0\n",
      "note_off channel=0 note=61 velocity=127 time=0.015625\n",
      "note_off channel=0 note=62 velocity=127 time=0.004166666666666667\n",
      "note_off channel=0 note=60 velocity=127 time=0\n",
      "note_on channel=0 note=62 velocity=127 time=0.06875\n",
      "note_on channel=0 note=61 velocity=127 time=0.003125\n",
      "note_off channel=0 note=62 velocity=127 time=0.016666666666666666\n",
      "note_off channel=0 note=61 velocity=127 time=0.003125\n",
      "note_on channel=0 note=60 velocity=127 time=0.040625\n",
      "note_off channel=0 note=60 velocity=127 time=0.019791666666666666\n",
      "note_on channel=0 note=62 velocity=127 time=0.005208333333333333\n",
      "note_on channel=0 note=61 velocity=127 time=0.009375\n",
      "note_off channel=0 note=62 velocity=127 time=0.010416666666666666\n",
      "note_off channel=0 note=61 velocity=127 time=0.009375\n",
      "note_on channel=0 note=62 velocity=127 time=0.059375\n",
      "note_on channel=0 note=61 velocity=127 time=0.016666666666666666\n",
      "note_off channel=0 note=62 velocity=127 time=0.003125\n",
      "note_off channel=0 note=61 velocity=127 time=0.016666666666666666\n",
      "note_on channel=0 note=60 velocity=127 time=0.0020833333333333333\n",
      "note_off channel=0 note=60 velocity=127 time=0.019791666666666666\n",
      "note_on channel=0 note=62 velocity=127 time=0.030208333333333334\n",
      "note_off channel=0 note=62 velocity=127 time=0.019791666666666666\n",
      "note_on channel=0 note=61 velocity=127 time=0.003125\n",
      "note_off channel=0 note=61 velocity=127 time=0.019791666666666666\n",
      "note_on channel=0 note=62 velocity=127 time=0.04583333333333333\n",
      "note_on channel=0 note=60 velocity=127 time=0.013541666666666667\n",
      "note_off channel=0 note=62 velocity=127 time=0.007291666666666667\n",
      "note_on channel=0 note=61 velocity=127 time=0.009375\n",
      "note_off channel=0 note=60 velocity=127 time=0.003125\n",
      "note_off channel=0 note=61 velocity=127 time=0.016666666666666666\n",
      "note_on channel=0 note=62 velocity=127 time=0.03958333333333333\n",
      "note_off channel=0 note=62 velocity=127 time=0.019791666666666666\n",
      "note_on channel=0 note=61 velocity=127 time=0.016666666666666666\n",
      "note_off channel=0 note=61 velocity=127 time=0.019791666666666666\n",
      "note_on channel=0 note=60 velocity=127 time=0.020833333333333332\n",
      "note_on channel=0 note=62 velocity=127 time=0.0125\n",
      "note_off channel=0 note=60 velocity=127 time=0.007291666666666667\n",
      "note_off channel=0 note=62 velocity=127 time=0.0125\n",
      "note_on channel=0 note=61 velocity=127 time=0.022916666666666665\n",
      "note_off channel=0 note=61 velocity=127 time=0.019791666666666666\n",
      "note_on channel=0 note=62 velocity=127 time=0.026041666666666668\n",
      "note_off channel=0 note=62 velocity=127 time=0.019791666666666666\n",
      "note_on channel=0 note=61 velocity=127 time=0.030208333333333334\n",
      "note_on channel=0 note=60 velocity=127 time=0.0010416666666666667\n",
      "note_off channel=0 note=61 velocity=127 time=0.01875\n",
      "note_off channel=0 note=60 velocity=127 time=0.0010416666666666667\n",
      "note_on channel=0 note=62 velocity=127 time=0.017708333333333333\n",
      "note_off channel=0 note=62 velocity=127 time=0.019791666666666666\n",
      "note_on channel=0 note=61 velocity=127 time=0.036458333333333336\n",
      "note_off channel=0 note=61 velocity=127 time=0.019791666666666666\n",
      "note_on channel=0 note=62 velocity=127 time=0.0125\n",
      "note_off channel=0 note=62 velocity=127 time=0.019791666666666666\n",
      "note_on channel=0 note=60 velocity=127 time=0.00625\n",
      "note_off channel=0 note=60 velocity=127 time=0.019791666666666666\n",
      "note_on channel=0 note=61 velocity=127 time=0.017708333333333333\n",
      "note_off channel=0 note=61 velocity=127 time=0.019791666666666666\n",
      "note_on channel=0 note=62 velocity=127 time=0.00625\n",
      "note_off channel=0 note=62 velocity=127 time=0.019791666666666666\n",
      "note_on channel=0 note=61 velocity=127 time=0.05\n",
      "note_on channel=0 note=62 velocity=127 time=0.019791666666666666\n",
      "note_on channel=0 note=60 velocity=127 time=0\n",
      "note_off channel=0 note=61 velocity=127 time=0\n",
      "note_off channel=0 note=62 velocity=127 time=0.019791666666666666\n",
      "note_off channel=0 note=60 velocity=127 time=0\n",
      "note_on channel=0 note=61 velocity=127 time=0.05625\n",
      "note_on channel=0 note=62 velocity=127 time=0.0125\n",
      "note_off channel=0 note=61 velocity=127 time=0.007291666666666667\n",
      "note_off channel=0 note=62 velocity=127 time=0.0125\n",
      "note_on channel=0 note=60 velocity=127 time=0.04375\n",
      "note_on channel=0 note=61 velocity=127 time=0.019791666666666666\n",
      "note_off channel=0 note=60 velocity=127 time=0.0010416666666666667\n",
      "note_on channel=0 note=62 velocity=127 time=0.005208333333333333\n",
      "note_off channel=0 note=61 velocity=127 time=0.014583333333333334\n",
      "note_off channel=0 note=62 velocity=127 time=0.00625\n",
      "note_on channel=0 note=62 velocity=127 time=0.06875\n",
      "note_on channel=0 note=61 velocity=127 time=0.0010416666666666667\n",
      "note_off channel=0 note=62 velocity=127 time=0.01875\n",
      "note_off channel=0 note=61 velocity=127 time=0.0010416666666666667\n",
      "note_on channel=0 note=60 velocity=127 time=0.017708333333333333\n",
      "note_off channel=0 note=60 velocity=127 time=0.019791666666666666\n",
      "note_on channel=0 note=62 velocity=127 time=0.030208333333333334\n",
      "note_on channel=0 note=61 velocity=127 time=0.007291666666666667\n",
      "note_off channel=0 note=62 velocity=127 time=0.0125\n",
      "note_off channel=0 note=61 velocity=127 time=0.007291666666666667\n",
      "note_on channel=0 note=62 velocity=127 time=0.06145833333333333\n",
      "note_on channel=0 note=60 velocity=127 time=0.0125\n",
      "note_on channel=0 note=61 velocity=127 time=0.0010416666666666667\n",
      "note_off channel=0 note=62 velocity=127 time=0.00625\n",
      "note_off channel=0 note=60 velocity=127 time=0.0125\n",
      "note_off channel=0 note=61 velocity=127 time=0.0010416666666666667\n",
      "note_on channel=0 note=62 velocity=127 time=0.05520833333333333\n",
      "note_off channel=0 note=62 velocity=127 time=0.019791666666666666\n",
      "note_on channel=0 note=61 velocity=127 time=0.0010416666666666667\n",
      "note_off channel=0 note=61 velocity=127 time=0.019791666666666666\n",
      "note_on channel=0 note=60 velocity=127 time=0.035416666666666666\n",
      "note_on channel=0 note=62 velocity=127 time=0.0125\n",
      "note_off channel=0 note=60 velocity=127 time=0.007291666666666667\n",
      "note_off channel=0 note=62 velocity=127 time=0.0125\n",
      "note_on channel=0 note=61 velocity=127 time=0.007291666666666667\n",
      "note_off channel=0 note=61 velocity=127 time=0.019791666666666666\n",
      "note_on channel=0 note=62 velocity=127 time=0.041666666666666664\n",
      "note_off channel=0 note=62 velocity=127 time=0.019791666666666666\n",
      "note_on channel=0 note=61 velocity=127 time=0.014583333333333334\n",
      "note_on channel=0 note=60 velocity=127 time=0.016666666666666666\n",
      "note_off channel=0 note=61 velocity=127 time=0.003125\n",
      "note_off channel=0 note=60 velocity=127 time=0.016666666666666666\n",
      "note_on channel=0 note=62 velocity=127 time=0.017708333333333333\n",
      "note_off channel=0 note=62 velocity=127 time=0.019791666666666666\n",
      "note_on channel=0 note=61 velocity=127 time=0.020833333333333332\n",
      "note_off channel=0 note=61 velocity=127 time=0.019791666666666666\n",
      "note_on channel=0 note=62 velocity=127 time=0.028125\n",
      "note_off channel=0 note=62 velocity=127 time=0.019791666666666666\n",
      "note_on channel=0 note=60 velocity=127 time=0.005208333333333333\n",
      "note_off channel=0 note=60 velocity=127 time=0.019791666666666666\n",
      "note_on channel=0 note=61 velocity=127 time=0.0020833333333333333\n",
      "note_off channel=0 note=61 velocity=127 time=0.019791666666666666\n",
      "note_on channel=0 note=62 velocity=127 time=0.021875\n",
      "note_off channel=0 note=62 velocity=127 time=0.019791666666666666\n",
      "note_on channel=0 note=61 velocity=127 time=0.034375\n",
      "note_off channel=0 note=61 velocity=127 time=0.019791666666666666\n",
      "\u001b[91m [DEBUG] > \u001b[0m\n",
      " |>  to_array: msg.time > max_t; t, n\n",
      " |>  3.003125000000004\n",
      " |>  150\n"
     ]
    },
    {
     "name": "stdout",
     "output_type": "stream",
     "text": [
      "note_on channel=0 note=60 velocity=127 time=0.01875\n",
      "note_off channel=0 note=60 velocity=127 time=0.019791666666666666\n",
      "note_on channel=0 note=61 velocity=127 time=0.021875\n",
      "note_on channel=0 note=62 velocity=127 time=0.005208333333333333\n",
      "note_off channel=0 note=61 velocity=127 time=0.014583333333333334\n",
      "note_off channel=0 note=62 velocity=127 time=0.005208333333333333\n",
      "note_on channel=0 note=60 velocity=127 time=0.0010416666666666667\n",
      "note_off channel=0 note=60 velocity=127 time=0.019791666666666666\n",
      "note_on channel=0 note=61 velocity=127 time=0.0375\n",
      "note_on channel=0 note=62 velocity=127 time=0.0010416666666666667\n",
      "note_on channel=0 note=60 velocity=127 time=0.010416666666666666\n",
      "note_off channel=0 note=61 velocity=127 time=0.009375\n",
      "note_off channel=0 note=62 velocity=127 time=0.0010416666666666667\n",
      "note_off channel=0 note=60 velocity=127 time=0.010416666666666666\n",
      "note_on channel=0 note=60 velocity=127 time=0.04791666666666666\n",
      "note_on channel=0 note=62 velocity=127 time=0.0010416666666666667\n",
      "note_on channel=0 note=61 velocity=127 time=0.004166666666666667\n",
      "note_off channel=0 note=60 velocity=127 time=0.015625\n",
      "note_off channel=0 note=62 velocity=127 time=0.0010416666666666667\n",
      "note_off channel=0 note=61 velocity=127 time=0.004166666666666667\n",
      "note_on channel=0 note=60 velocity=127 time=0.04375\n",
      "note_on channel=0 note=62 velocity=127 time=0.011458333333333333\n",
      "note_on channel=0 note=61 velocity=127 time=0.008333333333333333\n",
      "note_off channel=0 note=60 velocity=127 time=0\n",
      "note_off channel=0 note=62 velocity=127 time=0.011458333333333333\n",
      "note_off channel=0 note=61 velocity=127 time=0.008333333333333333\n",
      "note_on channel=0 note=60 velocity=127 time=0.028125\n",
      "note_off channel=0 note=60 velocity=127 time=0.019791666666666666\n",
      "note_on channel=0 note=62 velocity=127 time=0.0020833333333333333\n",
      "note_on channel=0 note=61 velocity=127 time=0.013541666666666667\n",
      "note_off channel=0 note=62 velocity=127 time=0.007291666666666667\n",
      "note_off channel=0 note=61 velocity=127 time=0.013541666666666667\n",
      "note_on channel=0 note=60 velocity=127 time=0.0125\n",
      "note_off channel=0 note=60 velocity=127 time=0.019791666666666666\n",
      "note_on channel=0 note=62 velocity=127 time=0.0125\n",
      "note_on channel=0 note=61 velocity=127 time=0.017708333333333333\n",
      "note_off channel=0 note=62 velocity=127 time=0.0020833333333333333\n",
      "note_on channel=0 note=60 velocity=127 time=0.015625\n",
      "note_off channel=0 note=61 velocity=127 time=0.0020833333333333333\n",
      "note_off channel=0 note=60 velocity=127 time=0.017708333333333333\n",
      "note_on channel=0 note=62 velocity=127 time=0.022916666666666665\n",
      "note_off channel=0 note=62 velocity=127 time=0.019791666666666666\n",
      "note_on channel=0 note=61 velocity=127 time=0.0020833333333333333\n",
      "note_on channel=0 note=60 velocity=127 time=0.0020833333333333333\n",
      "note_off channel=0 note=61 velocity=127 time=0.017708333333333333\n",
      "note_off channel=0 note=60 velocity=127 time=0.0020833333333333333\n",
      "note_on channel=0 note=62 velocity=127 time=0.034375\n",
      "note_on channel=0 note=60 velocity=127 time=0.013541666666666667\n",
      "note_off channel=0 note=62 velocity=127 time=0.00625\n",
      "note_on channel=0 note=61 velocity=127 time=0.007291666666666667\n",
      "note_off channel=0 note=60 velocity=127 time=0.007291666666666667\n",
      "note_off channel=0 note=61 velocity=127 time=0.013541666666666667\n",
      "note_on channel=0 note=62 velocity=127 time=0.03125\n",
      "note_on channel=0 note=60 velocity=127 time=0.003125\n",
      "note_off channel=0 note=62 velocity=127 time=0.016666666666666666\n",
      "note_off channel=0 note=60 velocity=127 time=0.003125\n",
      "note_on channel=0 note=61 velocity=127 time=0.008333333333333333\n",
      "note_off channel=0 note=61 velocity=127 time=0.019791666666666666\n",
      "note_on channel=0 note=60 velocity=127 time=0.019791666666666666\n",
      "note_on channel=0 note=62 velocity=127 time=0.007291666666666667\n",
      "note_off channel=0 note=60 velocity=127 time=0.0125\n",
      "note_off channel=0 note=62 velocity=127 time=0.007291666666666667\n",
      "note_on channel=0 note=61 velocity=127 time=0.016666666666666666\n",
      "note_off channel=0 note=61 velocity=127 time=0.019791666666666666\n",
      "note_on channel=0 note=60 velocity=127 time=0.004166666666666667\n",
      "note_on channel=0 note=62 velocity=127 time=0.017708333333333333\n",
      "note_off channel=0 note=60 velocity=127 time=0.0020833333333333333\n",
      "note_off channel=0 note=62 velocity=127 time=0.017708333333333333\n",
      "note_on channel=0 note=61 velocity=127 time=0.020833333333333332\n",
      "note_on channel=0 note=60 velocity=127 time=0.009375\n",
      "note_off channel=0 note=61 velocity=127 time=0.011458333333333333\n",
      "note_off channel=0 note=60 velocity=127 time=0.009375\n",
      "note_on channel=0 note=62 velocity=127 time=0.008333333333333333\n",
      "note_off channel=0 note=62 velocity=127 time=0.019791666666666666\n",
      "note_on channel=0 note=60 velocity=127 time=0.01875\n",
      "note_on channel=0 note=61 velocity=127 time=0.00625\n",
      "note_off channel=0 note=60 velocity=127 time=0.013541666666666667\n",
      "note_off channel=0 note=61 velocity=127 time=0.00625\n",
      "note_on channel=0 note=62 velocity=127 time=0.0125\n",
      "note_off channel=0 note=62 velocity=127 time=0.019791666666666666\n",
      "note_on channel=0 note=60 velocity=127 time=0.008333333333333333\n",
      "note_off channel=0 note=60 velocity=127 time=0.019791666666666666\n",
      "note_on channel=0 note=61 velocity=127 time=0.0020833333333333333\n",
      "note_off channel=0 note=61 velocity=127 time=0.019791666666666666\n",
      "note_on channel=0 note=62 velocity=127 time=0.008333333333333333\n",
      "note_on channel=0 note=60 velocity=127 time=0.017708333333333333\n",
      "note_off channel=0 note=62 velocity=127 time=0.0020833333333333333\n",
      "note_off channel=0 note=60 velocity=127 time=0.017708333333333333\n",
      "note_on channel=0 note=61 velocity=127 time=0.016666666666666666\n",
      "note_off channel=0 note=61 velocity=127 time=0.019791666666666666\n",
      "note_on channel=0 note=62 velocity=127 time=0.004166666666666667\n",
      "note_on channel=0 note=60 velocity=127 time=0.007291666666666667\n",
      "note_off channel=0 note=62 velocity=127 time=0.0125\n",
      "note_off channel=0 note=60 velocity=127 time=0.007291666666666667\n",
      "note_on channel=0 note=61 velocity=127 time=0.03229166666666666\n",
      "note_on channel=0 note=60 velocity=127 time=0.015625\n",
      "note_on channel=0 note=62 velocity=127 time=0.003125\n",
      "note_off channel=0 note=61 velocity=127 time=0.0010416666666666667\n",
      "note_off channel=0 note=60 velocity=127 time=0.015625\n",
      "note_off channel=0 note=62 velocity=127 time=0.003125\n",
      "note_on channel=0 note=61 velocity=127 time=0.04375\n",
      "note_on channel=0 note=60 velocity=127 time=0\n",
      "note_on channel=0 note=62 velocity=127 time=0.014583333333333334\n",
      "note_off channel=0 note=61 velocity=127 time=0.005208333333333333\n",
      "note_off channel=0 note=60 velocity=127 time=0\n",
      "note_off channel=0 note=62 velocity=127 time=0.014583333333333334\n",
      "note_on channel=0 note=60 velocity=127 time=0.034375\n",
      "note_on channel=0 note=61 velocity=127 time=0.014583333333333334\n",
      "note_off channel=0 note=60 velocity=127 time=0.005208333333333333\n",
      "note_on channel=0 note=62 velocity=127 time=0.005208333333333333\n",
      "note_off channel=0 note=61 velocity=127 time=0.010416666666666666\n",
      "note_off channel=0 note=62 velocity=127 time=0.009375\n",
      "note_on channel=0 note=60 velocity=127 time=0.022916666666666665\n",
      "note_off channel=0 note=60 velocity=127 time=0.019791666666666666\n",
      "note_on channel=0 note=61 velocity=127 time=0.010416666666666666\n",
      "note_on channel=0 note=62 velocity=127 time=0.005208333333333333\n",
      "note_off channel=0 note=61 velocity=127 time=0.014583333333333334\n",
      "note_off channel=0 note=62 velocity=127 time=0.005208333333333333\n",
      "note_on channel=0 note=60 velocity=127 time=0.0125\n",
      "note_off channel=0 note=60 velocity=127 time=0.019791666666666666\n",
      "note_on channel=0 note=61 velocity=127 time=0.025\n",
      "note_on channel=0 note=62 velocity=127 time=0.0010416666666666667\n",
      "note_off channel=0 note=61 velocity=127 time=0.019791666666666666\n",
      "note_off channel=0 note=62 velocity=127 time=0.0010416666666666667\n",
      "note_on channel=0 note=60 velocity=127 time=0.0020833333333333333\n",
      "note_off channel=0 note=60 velocity=127 time=0.019791666666666666\n",
      "note_on channel=0 note=62 velocity=127 time=0.036458333333333336\n",
      "note_on channel=0 note=61 velocity=127 time=0.004166666666666667\n",
      "note_on channel=0 note=60 velocity=127 time=0.007291666666666667\n",
      "note_off channel=0 note=62 velocity=127 time=0.008333333333333333\n",
      "note_off channel=0 note=61 velocity=127 time=0.004166666666666667\n",
      "note_off channel=0 note=60 velocity=127 time=0.007291666666666667\n",
      "note_on channel=0 note=62 velocity=127 time=0.04791666666666666\n",
      "note_on channel=0 note=60 velocity=127 time=0.0010416666666666667\n",
      "note_on channel=0 note=61 velocity=127 time=0.008333333333333333\n",
      "note_off channel=0 note=62 velocity=127 time=0.011458333333333333\n",
      "note_off channel=0 note=60 velocity=127 time=0.0010416666666666667\n",
      "note_off channel=0 note=61 velocity=127 time=0.008333333333333333\n",
      "note_on channel=0 note=60 velocity=127 time=0.03958333333333333\n",
      "note_on channel=0 note=62 velocity=127 time=0.010416666666666666\n",
      "note_off channel=0 note=60 velocity=127 time=0.010416666666666666\n",
      "note_on channel=0 note=61 velocity=127 time=0.003125\n",
      "note_off channel=0 note=62 velocity=127 time=0.00625\n",
      "note_off channel=0 note=61 velocity=127 time=0.013541666666666667\n",
      "note_on channel=0 note=60 velocity=127 time=0.025\n",
      "note_off channel=0 note=60 velocity=127 time=0.019791666666666666\n",
      "note_on channel=0 note=62 velocity=127 time=0.0010416666666666667\n",
      "note_on channel=0 note=61 velocity=127 time=0.017708333333333333\n",
      "note_off channel=0 note=62 velocity=127 time=0.0020833333333333333\n",
      "note_off channel=0 note=61 velocity=127 time=0.017708333333333333\n",
      "note_on channel=0 note=60 velocity=127 time=0.009375\n",
      "note_off channel=0 note=60 velocity=127 time=0.019791666666666666\n",
      "note_on channel=0 note=62 velocity=127 time=0.011458333333333333\n",
      "note_off channel=0 note=62 velocity=127 time=0.019791666666666666\n",
      "note_on channel=0 note=61 velocity=127 time=0.0020833333333333333\n",
      "note_on channel=0 note=60 velocity=127 time=0.013541666666666667\n",
      "note_off channel=0 note=61 velocity=127 time=0.00625\n",
      "note_off channel=0 note=60 velocity=127 time=0.013541666666666667\n",
      "note_on channel=0 note=62 velocity=127 time=0.021875\n",
      "note_off channel=0 note=62 velocity=127 time=0.019791666666666666\n",
      "note_on channel=0 note=60 velocity=127 time=0.00625\n",
      "note_on channel=0 note=61 velocity=127 time=0.0010416666666666667\n",
      "note_off channel=0 note=60 velocity=127 time=0.01875\n",
      "note_off channel=0 note=61 velocity=127 time=0.0010416666666666667\n",
      "note_on channel=0 note=62 velocity=127 time=0.03125\n",
      "note_on channel=0 note=60 velocity=127 time=0.015625\n",
      "note_off channel=0 note=62 velocity=127 time=0.005208333333333333\n",
      "note_on channel=0 note=61 velocity=127 time=0.011458333333333333\n",
      "note_off channel=0 note=60 velocity=127 time=0.003125\n",
      "note_off channel=0 note=61 velocity=127 time=0.016666666666666666\n",
      "note_on channel=0 note=62 velocity=127 time=0.027083333333333334\n",
      "note_on channel=0 note=60 velocity=127 time=0.004166666666666667\n",
      "note_off channel=0 note=62 velocity=127 time=0.015625\n",
      "note_off channel=0 note=60 velocity=127 time=0.004166666666666667\n",
      "note_on channel=0 note=61 velocity=127 time=0.011458333333333333\n",
      "note_off channel=0 note=61 velocity=127 time=0.019791666666666666\n",
      "note_on channel=0 note=60 velocity=127 time=0.015625\n",
      "note_on channel=0 note=62 velocity=127 time=0.00625\n",
      "note_off channel=0 note=60 velocity=127 time=0.013541666666666667\n",
      "note_off channel=0 note=62 velocity=127 time=0.00625\n",
      "note_on channel=0 note=61 velocity=127 time=0.020833333333333332\n",
      "note_off channel=0 note=61 velocity=127 time=0.019791666666666666\n",
      "note_on channel=0 note=60 velocity=127 time=0.0010416666666666667\n",
      "note_on channel=0 note=62 velocity=127 time=0.016666666666666666\n",
      "note_off channel=0 note=60 velocity=127 time=0.003125\n",
      "note_off channel=0 note=62 velocity=127 time=0.016666666666666666\n",
      "note_on channel=0 note=61 velocity=127 time=0.026041666666666668\n",
      "note_on channel=0 note=60 velocity=127 time=0.005208333333333333\n",
      "note_off channel=0 note=61 velocity=127 time=0.014583333333333334\n",
      "note_off channel=0 note=60 velocity=127 time=0.005208333333333333\n",
      "note_on channel=0 note=62 velocity=127 time=0.007291666666666667\n",
      "note_off channel=0 note=62 velocity=127 time=0.019791666666666666\n",
      "note_on channel=0 note=60 velocity=127 time=0.020833333333333332\n",
      "note_on channel=0 note=61 velocity=127 time=0.009375\n",
      "note_off channel=0 note=60 velocity=127 time=0.010416666666666666\n",
      "note_off channel=0 note=61 velocity=127 time=0.009375\n",
      "note_on channel=0 note=62 velocity=127 time=0.008333333333333333\n",
      "note_off channel=0 note=62 velocity=127 time=0.019791666666666666\n",
      "note_on channel=0 note=60 velocity=127 time=0.010416666666666666\n",
      "note_off channel=0 note=60 velocity=127 time=0.019791666666666666\n",
      "note_on channel=0 note=61 velocity=127 time=0.005208333333333333\n",
      "note_off channel=0 note=61 velocity=127 time=0.019791666666666666\n",
      "note_on channel=0 note=62 velocity=127 time=0.004166666666666667\n",
      "note_on channel=0 note=60 velocity=127 time=0.01875\n",
      "note_off channel=0 note=62 velocity=127 time=0.0010416666666666667\n",
      "note_off channel=0 note=60 velocity=127 time=0.01875\n",
      "note_on channel=0 note=61 velocity=127 time=0.020833333333333332\n",
      "note_on channel=0 note=62 velocity=127 time=0.01875\n",
      "note_off channel=0 note=61 velocity=127 time=0.0010416666666666667\n",
      "note_on channel=0 note=60 velocity=127 time=0.007291666666666667\n",
      "note_off channel=0 note=62 velocity=127 time=0.011458333333333333\n",
      "note_off channel=0 note=60 velocity=127 time=0.008333333333333333\n",
      "note_on channel=0 note=61 velocity=127 time=0.035416666666666666\n",
      "note_on channel=0 note=60 velocity=127 time=0.0125\n",
      "note_on channel=0 note=62 velocity=127 time=0.0020833333333333333\n",
      "note_off channel=0 note=61 velocity=127 time=0.005208333333333333\n",
      "note_off channel=0 note=60 velocity=127 time=0.0125\n",
      "note_off channel=0 note=62 velocity=127 time=0.0020833333333333333\n",
      "note_on channel=0 note=60 velocity=127 time=0.04583333333333333\n",
      "note_on channel=0 note=61 velocity=127 time=0.003125\n",
      "note_on channel=0 note=62 velocity=127 time=0.009375\n",
      "note_off channel=0 note=60 velocity=127 time=0.007291666666666667\n",
      "note_off channel=0 note=61 velocity=127 time=0.003125\n",
      "note_off channel=0 note=62 velocity=127 time=0.009375\n",
      "note_on channel=0 note=60 velocity=127 time=0.035416666666666666\n",
      "note_on channel=0 note=61 velocity=127 time=0.01875\n",
      "note_off channel=0 note=60 velocity=127 time=0.0020833333333333333\n",
      "note_on channel=0 note=62 velocity=127 time=0.003125\n",
      "note_off channel=0 note=61 velocity=127 time=0.014583333333333334\n",
      "note_off channel=0 note=62 velocity=127 time=0.005208333333333333\n",
      "note_on channel=0 note=60 velocity=127 time=0.025\n",
      "note_off channel=0 note=60 velocity=127 time=0.019791666666666666\n",
      "note_on channel=0 note=61 velocity=127 time=0.013541666666666667\n",
      "note_on channel=0 note=62 velocity=127 time=0\n",
      "note_off channel=0 note=61 velocity=127 time=0.019791666666666666\n",
      "\u001b[91m [DEBUG] > \u001b[0m\n",
      " |>  to_array: msg.time > max_t; t, n\n",
      " |>  2.9906250000000014\n",
      " |>  150\n",
      "note_on channel=0 note=61 velocity=127 time=0.034375\n",
      "note_off channel=0 note=61 velocity=127 time=0.019791666666666666\n",
      "note_on channel=0 note=60 velocity=127 time=0.025\n",
      "note_off channel=0 note=60 velocity=127 time=0.019791666666666666\n",
      "note_on channel=0 note=61 velocity=127 time=0.007291666666666667\n",
      "note_off channel=0 note=61 velocity=127 time=0.019791666666666666\n",
      "note_on channel=0 note=62 velocity=127 time=0.03125\n",
      "note_off channel=0 note=62 velocity=127 time=0.019791666666666666\n",
      "note_on channel=0 note=61 velocity=127 time=0.0010416666666666667\n",
      "note_off channel=0 note=61 velocity=127 time=0.019791666666666666\n",
      "note_on channel=0 note=60 velocity=127 time=0.019791666666666666\n",
      "note_off channel=0 note=60 velocity=127 time=0.019791666666666666\n",
      "note_on channel=0 note=61 velocity=127 time=0.0125\n",
      "note_off channel=0 note=61 velocity=127 time=0.019791666666666666\n",
      "note_on channel=0 note=61 velocity=127 time=0.052083333333333336\n",
      "note_off channel=0 note=61 velocity=127 time=0.019791666666666666\n",
      "note_on channel=0 note=60 velocity=127 time=0.014583333333333334\n",
      "note_off channel=0 note=60 velocity=127 time=0.019791666666666666\n",
      "note_on channel=0 note=61 velocity=127 time=0.017708333333333333\n",
      "note_off channel=0 note=61 velocity=127 time=0.019791666666666666\n",
      "note_on channel=0 note=62 velocity=127 time=0.010416666666666666\n",
      "note_off channel=0 note=62 velocity=127 time=0.019791666666666666\n",
      "note_on channel=0 note=61 velocity=127 time=0.021875\n",
      "note_off channel=0 note=61 velocity=127 time=0.019791666666666666\n",
      "note_on channel=0 note=60 velocity=127 time=0.009375\n",
      "note_off channel=0 note=60 velocity=127 time=0.019791666666666666\n",
      "note_on channel=0 note=61 velocity=127 time=0.022916666666666665\n",
      "note_off channel=0 note=61 velocity=127 time=0.019791666666666666\n",
      "note_on channel=0 note=61 velocity=127 time=0.052083333333333336\n",
      "note_off channel=0 note=61 velocity=127 time=0.019791666666666666\n",
      "note_on channel=0 note=60 velocity=127 time=0.004166666666666667\n",
      "note_off channel=0 note=60 velocity=127 time=0.019791666666666666\n",
      "note_on channel=0 note=61 velocity=127 time=0.028125\n",
      "note_on channel=0 note=62 velocity=127 time=0.009375\n",
      "note_off channel=0 note=61 velocity=127 time=0.010416666666666666\n",
      "note_off channel=0 note=62 velocity=127 time=0.009375\n",
      "note_on channel=0 note=61 velocity=127 time=0.042708333333333334\n",
      "note_on channel=0 note=60 velocity=127 time=0.01875\n",
      "note_off channel=0 note=61 velocity=127 time=0.0010416666666666667\n",
      "note_off channel=0 note=60 velocity=127 time=0.01875\n",
      "note_on channel=0 note=61 velocity=127 time=0.03333333333333333\n",
      "note_off channel=0 note=61 velocity=127 time=0.019791666666666666\n",
      "note_on channel=0 note=61 velocity=127 time=0.052083333333333336\n",
      "note_on channel=0 note=60 velocity=127 time=0.013541666666666667\n",
      "note_off channel=0 note=61 velocity=127 time=0.00625\n",
      "note_off channel=0 note=60 velocity=127 time=0.013541666666666667\n",
      "note_on channel=0 note=62 velocity=127 time=0.027083333333333334\n",
      "note_on channel=0 note=61 velocity=127 time=0.0125\n",
      "note_off channel=0 note=62 velocity=127 time=0.008333333333333333\n",
      "note_off channel=0 note=61 velocity=127 time=0.0125\n",
      "note_on channel=0 note=61 velocity=127 time=0.052083333333333336\n",
      "note_on channel=0 note=60 velocity=127 time=0.008333333333333333\n",
      "note_off channel=0 note=61 velocity=127 time=0.011458333333333333\n",
      "note_off channel=0 note=60 velocity=127 time=0.008333333333333333\n",
      "note_on channel=0 note=61 velocity=127 time=0.04375\n",
      "note_off channel=0 note=61 velocity=127 time=0.019791666666666666\n",
      "note_on channel=0 note=61 velocity=127 time=0.052083333333333336\n",
      "note_on channel=0 note=60 velocity=127 time=0.003125\n",
      "note_off channel=0 note=61 velocity=127 time=0.016666666666666666\n",
      "note_off channel=0 note=60 velocity=127 time=0.003125\n",
      "note_on channel=0 note=62 velocity=127 time=0.015625\n",
      "note_off channel=0 note=62 velocity=127 time=0.019791666666666666\n",
      "note_on channel=0 note=61 velocity=127 time=0.013541666666666667\n",
      "note_off channel=0 note=61 velocity=127 time=0.019791666666666666\n",
      "note_on channel=0 note=60 velocity=127 time=0.05\n",
      "note_on channel=0 note=61 velocity=127 time=0.0020833333333333333\n",
      "note_off channel=0 note=60 velocity=127 time=0.017708333333333333\n",
      "note_off channel=0 note=61 velocity=127 time=0.0020833333333333333\n",
      "note_on channel=0 note=61 velocity=127 time=0.052083333333333336\n",
      "note_off channel=0 note=61 velocity=127 time=0.019791666666666666\n",
      "note_on channel=0 note=60 velocity=127 time=0.04479166666666667\n",
      "note_on channel=0 note=61 velocity=127 time=0.007291666666666667\n",
      "note_off channel=0 note=60 velocity=127 time=0.0125\n",
      "note_on channel=0 note=62 velocity=127 time=0.005208333333333333\n",
      "note_off channel=0 note=61 velocity=127 time=0.0020833333333333333\n",
      "note_off channel=0 note=62 velocity=127 time=0.017708333333333333\n",
      "note_on channel=0 note=61 velocity=127 time=0.034375\n",
      "note_off channel=0 note=61 velocity=127 time=0.019791666666666666\n",
      "note_on channel=0 note=60 velocity=127 time=0.03958333333333333\n",
      "note_on channel=0 note=61 velocity=127 time=0.0125\n",
      "note_off channel=0 note=60 velocity=127 time=0.007291666666666667\n",
      "note_off channel=0 note=61 velocity=127 time=0.0125\n",
      "note_on channel=0 note=61 velocity=127 time=0.052083333333333336\n",
      "note_off channel=0 note=61 velocity=127 time=0.019791666666666666\n",
      "note_on channel=0 note=60 velocity=127 time=0.034375\n",
      "note_on channel=0 note=62 velocity=127 time=0.014583333333333334\n",
      "note_on channel=0 note=61 velocity=127 time=0.003125\n",
      "note_off channel=0 note=60 velocity=127 time=0.0020833333333333333\n",
      "note_off channel=0 note=62 velocity=127 time=0.014583333333333334\n",
      "note_off channel=0 note=61 velocity=127 time=0.003125\n",
      "note_on channel=0 note=61 velocity=127 time=0.052083333333333336\n",
      "note_off channel=0 note=61 velocity=127 time=0.019791666666666666\n",
      "note_on channel=0 note=60 velocity=127 time=0.029166666666666667\n",
      "note_off channel=0 note=60 velocity=127 time=0.019791666666666666\n",
      "note_on channel=0 note=61 velocity=127 time=0.003125\n",
      "note_off channel=0 note=61 velocity=127 time=0.019791666666666666\n",
      "note_on channel=0 note=61 velocity=127 time=0.052083333333333336\n",
      "note_off channel=0 note=61 velocity=127 time=0.019791666666666666\n",
      "note_on channel=0 note=60 velocity=127 time=0.02395833333333333\n",
      "note_on channel=0 note=62 velocity=127 time=0.004166666666666667\n",
      "note_off channel=0 note=60 velocity=127 time=0.016666666666666666\n",
      "note_off channel=0 note=62 velocity=127 time=0.004166666666666667\n",
      "note_on channel=0 note=61 velocity=127 time=0.004166666666666667\n",
      "note_off channel=0 note=61 velocity=127 time=0.019791666666666666\n",
      "note_on channel=0 note=61 velocity=127 time=0.052083333333333336\n",
      "note_off channel=0 note=61 velocity=127 time=0.019791666666666666\n",
      "note_on channel=0 note=60 velocity=127 time=0.01875\n",
      "note_off channel=0 note=60 velocity=127 time=0.019791666666666666\n",
      "note_on channel=0 note=61 velocity=127 time=0.013541666666666667\n",
      "note_off channel=0 note=61 velocity=127 time=0.019791666666666666\n",
      "note_on channel=0 note=61 velocity=127 time=0.052083333333333336\n",
      "note_off channel=0 note=61 velocity=127 time=0.019791666666666666\n",
      "note_on channel=0 note=62 velocity=127 time=0.00625\n",
      "note_on channel=0 note=60 velocity=127 time=0.007291666666666667\n",
      "note_off channel=0 note=62 velocity=127 time=0.0125\n",
      "note_off channel=0 note=60 velocity=127 time=0.007291666666666667\n",
      "note_on channel=0 note=61 velocity=127 time=0.01875\n",
      "note_off channel=0 note=61 velocity=127 time=0.019791666666666666\n",
      "note_on channel=0 note=61 velocity=127 time=0.052083333333333336\n",
      "note_off channel=0 note=61 velocity=127 time=0.019791666666666666\n",
      "note_on channel=0 note=60 velocity=127 time=0.008333333333333333\n",
      "note_off channel=0 note=60 velocity=127 time=0.019791666666666666\n",
      "note_on channel=0 note=61 velocity=127 time=0.02395833333333333\n",
      "note_off channel=0 note=61 velocity=127 time=0.019791666666666666\n",
      "note_on channel=0 note=61 velocity=127 time=0.052083333333333336\n",
      "note_on channel=0 note=62 velocity=127 time=0.005208333333333333\n",
      "note_off channel=0 note=61 velocity=127 time=0.014583333333333334\n",
      "note_on channel=0 note=60 velocity=127 time=0.003125\n",
      "note_off channel=0 note=62 velocity=127 time=0.0020833333333333333\n",
      "note_off channel=0 note=60 velocity=127 time=0.017708333333333333\n",
      "note_on channel=0 note=61 velocity=127 time=0.029166666666666667\n",
      "note_off channel=0 note=61 velocity=127 time=0.019791666666666666\n",
      "note_on channel=0 note=61 velocity=127 time=0.052083333333333336\n",
      "note_on channel=0 note=60 velocity=127 time=0.017708333333333333\n",
      "note_off channel=0 note=61 velocity=127 time=0.0020833333333333333\n",
      "note_off channel=0 note=60 velocity=127 time=0.017708333333333333\n",
      "note_on channel=0 note=61 velocity=127 time=0.034375\n",
      "note_off channel=0 note=61 velocity=127 time=0.019791666666666666\n",
      "note_on channel=0 note=62 velocity=127 time=0.036458333333333336\n",
      "note_on channel=0 note=61 velocity=127 time=0.015625\n",
      "note_off channel=0 note=62 velocity=127 time=0.004166666666666667\n",
      "note_on channel=0 note=60 velocity=127 time=0.008333333333333333\n",
      "note_off channel=0 note=61 velocity=127 time=0.007291666666666667\n",
      "note_off channel=0 note=60 velocity=127 time=0.0125\n",
      "note_on channel=0 note=61 velocity=127 time=0.03958333333333333\n",
      "note_off channel=0 note=61 velocity=127 time=0.019791666666666666\n",
      "note_on channel=0 note=61 velocity=127 time=0.052083333333333336\n",
      "note_on channel=0 note=60 velocity=127 time=0.007291666666666667\n",
      "\u001b[91m [DEBUG] > \u001b[0m\n",
      " |>  to_array: msg.time > max_t; t, n\n",
      " |>  2.9916666666666702\n",
      " |>  150\n",
      "note_on channel=0 note=62 velocity=127 time=0.007291666666666667\n",
      "note_on channel=0 note=60 velocity=127 time=0.005208333333333333\n",
      "note_off channel=0 note=62 velocity=127 time=0.015625\n",
      "note_off channel=0 note=60 velocity=127 time=0.005208333333333333\n",
      "note_on channel=0 note=61 velocity=127 time=0.058333333333333334\n",
      "note_on channel=0 note=62 velocity=127 time=0.014583333333333334\n",
      "note_off channel=0 note=61 velocity=127 time=0.00625\n",
      "note_off channel=0 note=62 velocity=127 time=0.014583333333333334\n",
      "note_on channel=0 note=61 velocity=127 time=0.07395833333333333\n",
      "note_on channel=0 note=62 velocity=127 time=0.003125\n",
      "note_off channel=0 note=61 velocity=127 time=0.016666666666666666\n",
      "note_off channel=0 note=62 velocity=127 time=0.003125\n",
      "note_on channel=0 note=62 velocity=127 time=0.07708333333333334\n",
      "note_on channel=0 note=60 velocity=127 time=0.003125\n",
      "note_on channel=0 note=61 velocity=127 time=0.004166666666666667\n",
      "note_off channel=0 note=62 velocity=127 time=0.0125\n",
      "note_off channel=0 note=60 velocity=127 time=0.003125\n",
      "note_off channel=0 note=61 velocity=127 time=0.004166666666666667\n",
      "note_on channel=0 note=62 velocity=127 time=0.06979166666666667\n",
      "note_on channel=0 note=61 velocity=127 time=0.017708333333333333\n",
      "note_off channel=0 note=62 velocity=127 time=0.0020833333333333333\n",
      "note_off channel=0 note=61 velocity=127 time=0.017708333333333333\n",
      "note_on channel=0 note=62 velocity=127 time=0.059375\n",
      "note_off channel=0 note=62 velocity=127 time=0.019791666666666666\n",
      "note_on channel=0 note=61 velocity=127 time=0.008333333333333333\n",
      "note_off channel=0 note=61 velocity=127 time=0.019791666666666666\n",
      "note_on channel=0 note=62 velocity=127 time=0.04791666666666666\n",
      "note_on channel=0 note=60 velocity=127 time=0.0010416666666666667\n",
      "note_off channel=0 note=62 velocity=127 time=0.019791666666666666\n",
      "note_off channel=0 note=60 velocity=127 time=0.0010416666666666667\n",
      "note_on channel=0 note=61 velocity=127 time=0.01875\n",
      "note_off channel=0 note=61 velocity=127 time=0.019791666666666666\n",
      "note_on channel=0 note=62 velocity=127 time=0.0375\n",
      "note_off channel=0 note=62 velocity=127 time=0.019791666666666666\n",
      "note_on channel=0 note=61 velocity=127 time=0.030208333333333334\n",
      "note_off channel=0 note=61 velocity=127 time=0.019791666666666666\n",
      "note_on channel=0 note=62 velocity=127 time=0.027083333333333334\n",
      "note_off channel=0 note=62 velocity=127 time=0.019791666666666666\n",
      "note_on channel=0 note=61 velocity=127 time=0.040625\n",
      "note_off channel=0 note=61 velocity=127 time=0.019791666666666666\n",
      "note_on channel=0 note=60 velocity=127 time=0.014583333333333334\n",
      "note_on channel=0 note=62 velocity=127 time=0.0010416666666666667\n",
      "note_off channel=0 note=60 velocity=127 time=0.01875\n",
      "note_off channel=0 note=62 velocity=127 time=0.0010416666666666667\n",
      "note_on channel=0 note=61 velocity=127 time=0.052083333333333336\n",
      "note_off channel=0 note=61 velocity=127 time=0.019791666666666666\n",
      "note_on channel=0 note=62 velocity=127 time=0.005208333333333333\n",
      "note_off channel=0 note=62 velocity=127 time=0.019791666666666666\n",
      "note_on channel=0 note=61 velocity=127 time=0.0625\n",
      "note_on channel=0 note=62 velocity=127 time=0.014583333333333334\n",
      "note_off channel=0 note=61 velocity=127 time=0.005208333333333333\n",
      "note_off channel=0 note=62 velocity=127 time=0.014583333333333334\n",
      "note_on channel=0 note=61 velocity=127 time=0.07291666666666667\n",
      "note_on channel=0 note=60 velocity=127 time=0\n",
      "note_on channel=0 note=62 velocity=127 time=0.004166666666666667\n",
      "note_off channel=0 note=61 velocity=127 time=0.015625\n",
      "note_off channel=0 note=60 velocity=127 time=0\n",
      "note_off channel=0 note=62 velocity=127 time=0.004166666666666667\n",
      "note_on channel=0 note=62 velocity=127 time=0.07708333333333334\n",
      "note_on channel=0 note=61 velocity=127 time=0.007291666666666667\n",
      "note_off channel=0 note=62 velocity=127 time=0.013541666666666667\n",
      "note_off channel=0 note=61 velocity=127 time=0.007291666666666667\n",
      "note_on channel=0 note=62 velocity=127 time=0.07083333333333333\n",
      "note_on channel=0 note=61 velocity=127 time=0.017708333333333333\n",
      "note_off channel=0 note=62 velocity=127 time=0.0020833333333333333\n",
      "note_off channel=0 note=61 velocity=127 time=0.017708333333333333\n",
      "note_on channel=0 note=60 velocity=127 time=0.05416666666666667\n",
      "note_on channel=0 note=62 velocity=127 time=0.00625\n",
      "note_off channel=0 note=60 velocity=127 time=0.014583333333333334\n",
      "note_off channel=0 note=62 velocity=127 time=0.00625\n",
      "note_on channel=0 note=61 velocity=127 time=0.008333333333333333\n",
      "note_off channel=0 note=61 velocity=127 time=0.019791666666666666\n",
      "note_on channel=0 note=62 velocity=127 time=0.04895833333333333\n",
      "note_off channel=0 note=62 velocity=127 time=0.019791666666666666\n",
      "note_on channel=0 note=61 velocity=127 time=0.01875\n",
      "note_off channel=0 note=61 velocity=127 time=0.019791666666666666\n",
      "note_on channel=0 note=62 velocity=127 time=0.03854166666666667\n",
      "note_off channel=0 note=62 velocity=127 time=0.019791666666666666\n",
      "note_on channel=0 note=61 velocity=127 time=0.029166666666666667\n",
      "note_off channel=0 note=61 velocity=127 time=0.019791666666666666\n",
      "note_on channel=0 note=60 velocity=127 time=0.019791666666666666\n",
      "note_on channel=0 note=62 velocity=127 time=0.008333333333333333\n",
      "note_off channel=0 note=60 velocity=127 time=0.0125\n",
      "note_off channel=0 note=62 velocity=127 time=0.008333333333333333\n",
      "note_on channel=0 note=61 velocity=127 time=0.040625\n",
      "note_off channel=0 note=61 velocity=127 time=0.019791666666666666\n",
      "note_on channel=0 note=62 velocity=127 time=0.016666666666666666\n",
      "note_off channel=0 note=62 velocity=127 time=0.019791666666666666\n",
      "note_on channel=0 note=61 velocity=127 time=0.051041666666666666\n",
      "note_off channel=0 note=61 velocity=127 time=0.019791666666666666\n",
      "note_on channel=0 note=62 velocity=127 time=0.00625\n",
      "note_off channel=0 note=62 velocity=127 time=0.019791666666666666\n",
      "note_on channel=0 note=61 velocity=127 time=0.06145833333333333\n",
      "note_on channel=0 note=60 velocity=127 time=0.005208333333333333\n",
      "note_on channel=0 note=62 velocity=127 time=0.010416666666666666\n",
      "note_off channel=0 note=61 velocity=127 time=0.005208333333333333\n",
      "note_off channel=0 note=60 velocity=127 time=0.005208333333333333\n",
      "note_off channel=0 note=62 velocity=127 time=0.010416666666666666\n",
      "note_on channel=0 note=61 velocity=127 time=0.07291666666666667\n",
      "note_on channel=0 note=62 velocity=127 time=0.004166666666666667\n",
      "note_off channel=0 note=61 velocity=127 time=0.015625\n",
      "note_off channel=0 note=62 velocity=127 time=0.004166666666666667\n",
      "note_on channel=0 note=62 velocity=127 time=0.07708333333333334\n",
      "note_on channel=0 note=61 velocity=127 time=0.00625\n",
      "note_off channel=0 note=62 velocity=127 time=0.013541666666666667\n",
      "note_off channel=0 note=61 velocity=127 time=0.00625\n",
      "note_on channel=0 note=60 velocity=127 time=0.058333333333333334\n",
      "note_on channel=0 note=62 velocity=127 time=0.0125\n",
      "note_off channel=0 note=60 velocity=127 time=0.008333333333333333\n",
      "note_on channel=0 note=61 velocity=127 time=0.009375\n",
      "note_off channel=0 note=62 velocity=127 time=0.003125\n",
      "note_off channel=0 note=61 velocity=127 time=0.016666666666666666\n",
      "note_on channel=0 note=62 velocity=127 time=0.06041666666666667\n",
      "note_off channel=0 note=62 velocity=127 time=0.019791666666666666\n",
      "note_on channel=0 note=61 velocity=127 time=0.007291666666666667\n",
      "note_off channel=0 note=61 velocity=127 time=0.019791666666666666\n",
      "note_on channel=0 note=62 velocity=127 time=0.04895833333333333\n",
      "note_off channel=0 note=62 velocity=127 time=0.019791666666666666\n",
      "note_on channel=0 note=61 velocity=127 time=0.01875\n",
      "note_off channel=0 note=61 velocity=127 time=0.019791666666666666\n",
      "note_on channel=0 note=60 velocity=127 time=0.02395833333333333\n",
      "note_on channel=0 note=62 velocity=127 time=0.014583333333333334\n",
      "note_off channel=0 note=60 velocity=127 time=0.005208333333333333\n",
      "note_off channel=0 note=62 velocity=127 time=0.014583333333333334\n",
      "note_on channel=0 note=61 velocity=127 time=0.029166666666666667\n",
      "note_off channel=0 note=61 velocity=127 time=0.019791666666666666\n",
      "note_on channel=0 note=62 velocity=127 time=0.028125\n",
      "note_off channel=0 note=62 velocity=127 time=0.019791666666666666\n",
      "note_on channel=0 note=61 velocity=127 time=0.03958333333333333\n",
      "note_off channel=0 note=61 velocity=127 time=0.019791666666666666\n",
      "note_on channel=0 note=62 velocity=127 time=0.017708333333333333\n",
      "note_off channel=0 note=62 velocity=127 time=0.019791666666666666\n",
      "note_on channel=0 note=61 velocity=127 time=0.051041666666666666\n",
      "note_on channel=0 note=60 velocity=127 time=0.010416666666666666\n",
      "note_off channel=0 note=61 velocity=127 time=0.009375\n",
      "note_on channel=0 note=62 velocity=127 time=0.00625\n",
      "note_off channel=0 note=60 velocity=127 time=0.003125\n",
      "note_off channel=0 note=62 velocity=127 time=0.016666666666666666\n",
      "note_on channel=0 note=61 velocity=127 time=0.06145833333333333\n",
      "\u001b[91m [DEBUG] > \u001b[0m\n",
      " |>  to_array: msg.time > max_t; t, n\n",
      " |>  3.0031250000000025\n",
      " |>  150\n",
      "note_on channel=0 note=61 velocity=127 time=0.03854166666666667\n",
      "note_on channel=0 note=60 velocity=127 time=0.013541666666666667\n",
      "note_off channel=0 note=61 velocity=127 time=0.00625\n",
      "note_off channel=0 note=60 velocity=127 time=0.013541666666666667\n",
      "note_on channel=0 note=61 velocity=127 time=0.04895833333333333\n",
      "note_off channel=0 note=61 velocity=127 time=0.019791666666666666\n",
      "note_on channel=0 note=61 velocity=127 time=0.06354166666666666\n",
      "note_on channel=0 note=62 velocity=127 time=0.0010416666666666667\n",
      "note_off channel=0 note=61 velocity=127 time=0.01875\n",
      "note_off channel=0 note=62 velocity=127 time=0.0010416666666666667\n",
      "note_on channel=0 note=61 velocity=127 time=0.0625\n",
      "note_off channel=0 note=61 velocity=127 time=0.019791666666666666\n",
      "note_on channel=0 note=60 velocity=127 time=0.026041666666666668\n",
      "note_off channel=0 note=60 velocity=127 time=0.019791666666666666\n",
      "note_on channel=0 note=61 velocity=127 time=0.017708333333333333\n",
      "note_off channel=0 note=61 velocity=127 time=0.019791666666666666\n",
      "note_on channel=0 note=62 velocity=127 time=0.04479166666666667\n",
      "note_on channel=0 note=61 velocity=127 time=0.01875\n",
      "note_off channel=0 note=62 velocity=127 time=0.0010416666666666667\n",
      "note_off channel=0 note=61 velocity=127 time=0.01875\n",
      "note_on channel=0 note=61 velocity=127 time=0.06354166666666666\n",
      "note_off channel=0 note=61 velocity=127 time=0.019791666666666666\n",
      "note_on channel=0 note=60 velocity=127 time=0.057291666666666664\n",
      "note_on channel=0 note=61 velocity=127 time=0.00625\n",
      "note_off channel=0 note=60 velocity=127 time=0.013541666666666667\n",
      "note_off channel=0 note=61 velocity=127 time=0.00625\n",
      "note_on channel=0 note=62 velocity=127 time=0.025\n",
      "note_off channel=0 note=62 velocity=127 time=0.019791666666666666\n",
      "note_on channel=0 note=61 velocity=127 time=0.01875\n",
      "note_off channel=0 note=61 velocity=127 time=0.019791666666666666\n",
      "note_on channel=0 note=61 velocity=127 time=0.06354166666666666\n",
      "note_off channel=0 note=61 velocity=127 time=0.019791666666666666\n",
      "note_on channel=0 note=61 velocity=127 time=0.06354166666666666\n",
      "note_off channel=0 note=61 velocity=127 time=0.019791666666666666\n"
     ]
    },
    {
     "name": "stdout",
     "output_type": "stream",
     "text": [
      "note_on channel=0 note=62 velocity=127 time=0.005208333333333333\n",
      "note_on channel=0 note=60 velocity=127 time=0.0010416666666666667\n",
      "note_off channel=0 note=62 velocity=127 time=0.01875\n",
      "note_off channel=0 note=60 velocity=127 time=0.0010416666666666667\n",
      "note_on channel=0 note=61 velocity=127 time=0.0375\n",
      "note_off channel=0 note=61 velocity=127 time=0.019791666666666666\n",
      "note_on channel=0 note=61 velocity=127 time=0.06354166666666666\n",
      "note_off channel=0 note=61 velocity=127 time=0.019791666666666666\n",
      "note_on channel=0 note=61 velocity=127 time=0.06354166666666666\n",
      "note_on channel=0 note=62 velocity=127 time=0.005208333333333333\n",
      "note_off channel=0 note=61 velocity=127 time=0.014583333333333334\n",
      "note_off channel=0 note=62 velocity=127 time=0.005208333333333333\n",
      "note_on channel=0 note=60 velocity=127 time=0.03229166666666666\n",
      "note_off channel=0 note=60 velocity=127 time=0.019791666666666666\n",
      "note_on channel=0 note=61 velocity=127 time=0.00625\n",
      "note_off channel=0 note=61 velocity=127 time=0.019791666666666666\n",
      "note_on channel=0 note=61 velocity=127 time=0.06354166666666666\n",
      "note_off channel=0 note=61 velocity=127 time=0.019791666666666666\n",
      "note_on channel=0 note=62 velocity=127 time=0.04791666666666666\n",
      "note_on channel=0 note=61 velocity=127 time=0.014583333333333334\n",
      "note_off channel=0 note=62 velocity=127 time=0.005208333333333333\n",
      "note_off channel=0 note=61 velocity=127 time=0.014583333333333334\n",
      "note_on channel=0 note=61 velocity=127 time=0.06354166666666666\n",
      "note_on channel=0 note=60 velocity=127 time=0.005208333333333333\n",
      "note_off channel=0 note=61 velocity=127 time=0.014583333333333334\n",
      "note_off channel=0 note=60 velocity=127 time=0.005208333333333333\n",
      "note_on channel=0 note=61 velocity=127 time=0.057291666666666664\n",
      "note_off channel=0 note=61 velocity=127 time=0.019791666666666666\n",
      "note_on channel=0 note=62 velocity=127 time=0.028125\n",
      "note_off channel=0 note=62 velocity=127 time=0.019791666666666666\n",
      "note_on channel=0 note=61 velocity=127 time=0.014583333333333334\n",
      "note_off channel=0 note=61 velocity=127 time=0.019791666666666666\n",
      "note_on channel=0 note=61 velocity=127 time=0.06354166666666666\n",
      "note_off channel=0 note=61 velocity=127 time=0.019791666666666666\n",
      "note_on channel=0 note=60 velocity=127 time=0.017708333333333333\n",
      "note_off channel=0 note=60 velocity=127 time=0.019791666666666666\n",
      "note_on channel=0 note=61 velocity=127 time=0.026041666666666668\n",
      "note_off channel=0 note=61 velocity=127 time=0.019791666666666666\n",
      "note_on channel=0 note=62 velocity=127 time=0.008333333333333333\n",
      "note_off channel=0 note=62 velocity=127 time=0.019791666666666666\n",
      "note_on channel=0 note=61 velocity=127 time=0.034375\n",
      "note_off channel=0 note=61 velocity=127 time=0.019791666666666666\n",
      "note_on channel=0 note=61 velocity=127 time=0.06354166666666666\n",
      "note_off channel=0 note=61 velocity=127 time=0.019791666666666666\n",
      "note_on channel=0 note=60 velocity=127 time=0.04895833333333333\n",
      "note_on channel=0 note=61 velocity=127 time=0.014583333333333334\n",
      "note_off channel=0 note=60 velocity=127 time=0.005208333333333333\n",
      "note_on channel=0 note=62 velocity=127 time=0.003125\n",
      "note_off channel=0 note=61 velocity=127 time=0.011458333333333333\n",
      "note_off channel=0 note=62 velocity=127 time=0.008333333333333333\n",
      "note_on channel=0 note=61 velocity=127 time=0.05520833333333333\n",
      "note_off channel=0 note=61 velocity=127 time=0.019791666666666666\n",
      "note_on channel=0 note=61 velocity=127 time=0.06354166666666666\n",
      "note_off channel=0 note=61 velocity=127 time=0.019791666666666666\n",
      "note_on channel=0 note=62 velocity=127 time=0.052083333333333336\n",
      "note_on channel=0 note=61 velocity=127 time=0.011458333333333333\n",
      "note_off channel=0 note=62 velocity=127 time=0.008333333333333333\n",
      "note_on channel=0 note=60 velocity=127 time=0.008333333333333333\n",
      "note_off channel=0 note=61 velocity=127 time=0.003125\n",
      "note_off channel=0 note=60 velocity=127 time=0.017708333333333333\n",
      "note_on channel=0 note=61 velocity=127 time=0.04583333333333333\n",
      "note_off channel=0 note=61 velocity=127 time=0.019791666666666666\n",
      "note_on channel=0 note=61 velocity=127 time=0.06354166666666666\n",
      "note_off channel=0 note=61 velocity=127 time=0.019791666666666666\n",
      "note_on channel=0 note=62 velocity=127 time=0.03229166666666666\n",
      "note_off channel=0 note=62 velocity=127 time=0.019791666666666666\n",
      "note_on channel=0 note=61 velocity=127 time=0.011458333333333333\n",
      "note_off channel=0 note=61 velocity=127 time=0.019791666666666666\n",
      "note_on channel=0 note=60 velocity=127 time=0.029166666666666667\n",
      "note_off channel=0 note=60 velocity=127 time=0.019791666666666666\n",
      "note_on channel=0 note=61 velocity=127 time=0.014583333333333334\n",
      "note_off channel=0 note=61 velocity=127 time=0.019791666666666666\n",
      "note_on channel=0 note=61 velocity=127 time=0.06354166666666666\n",
      "note_off channel=0 note=61 velocity=127 time=0.019791666666666666\n",
      "note_on channel=0 note=62 velocity=127 time=0.0125\n",
      "note_off channel=0 note=62 velocity=127 time=0.019791666666666666\n",
      "note_on channel=0 note=61 velocity=127 time=0.03125\n",
      "note_off channel=0 note=61 velocity=127 time=0.019791666666666666\n",
      "note_on channel=0 note=60 velocity=127 time=0.06041666666666667\n",
      "note_on channel=0 note=61 velocity=127 time=0.003125\n",
      "note_off channel=0 note=60 velocity=127 time=0.017708333333333333\n",
      "note_off channel=0 note=61 velocity=127 time=0.003125\n",
      "note_on channel=0 note=61 velocity=127 time=0.06354166666666666\n",
      "note_on channel=0 note=62 velocity=127 time=0.0125\n",
      "note_off channel=0 note=61 velocity=127 time=0.007291666666666667\n",
      "note_off channel=0 note=62 velocity=127 time=0.0125\n",
      "note_on channel=0 note=61 velocity=127 time=0.051041666666666666\n",
      "\u001b[91m [DEBUG] > \u001b[0m\n",
      " |>  to_array: msg.time > max_t; t, n\n",
      " |>  3.034375000000001\n",
      " |>  150\n",
      "note_on channel=0 note=60 velocity=127 time=0.0020833333333333333\n",
      "note_off channel=0 note=60 velocity=127 time=0.019791666666666666\n",
      "note_on channel=0 note=61 velocity=127 time=0.04479166666666667\n",
      "note_on channel=0 note=62 velocity=127 time=0.017708333333333333\n",
      "note_off channel=0 note=61 velocity=127 time=0.0020833333333333333\n",
      "note_off channel=0 note=62 velocity=127 time=0.017708333333333333\n",
      "note_on channel=0 note=61 velocity=127 time=0.057291666666666664\n",
      "note_off channel=0 note=61 velocity=127 time=0.019791666666666666\n",
      "note_on channel=0 note=60 velocity=127 time=0.05\n",
      "note_on channel=0 note=62 velocity=127 time=0.009375\n",
      "note_off channel=0 note=60 velocity=127 time=0.010416666666666666\n",
      "note_on channel=0 note=61 velocity=127 time=0.005208333333333333\n",
      "note_off channel=0 note=62 velocity=127 time=0.003125\n",
      "note_off channel=0 note=61 velocity=127 time=0.016666666666666666\n",
      "note_on channel=0 note=61 velocity=127 time=0.075\n",
      "note_off channel=0 note=61 velocity=127 time=0.019791666666666666\n",
      "note_on channel=0 note=62 velocity=127 time=0.02395833333333333\n",
      "note_off channel=0 note=62 velocity=127 time=0.019791666666666666\n",
      "note_on channel=0 note=61 velocity=127 time=0.03125\n",
      "note_on channel=0 note=60 velocity=127 time=0.013541666666666667\n",
      "note_off channel=0 note=61 velocity=127 time=0.00625\n",
      "note_off channel=0 note=60 velocity=127 time=0.013541666666666667\n",
      "note_on channel=0 note=61 velocity=127 time=0.06145833333333333\n",
      "note_on channel=0 note=62 velocity=127 time=0.009375\n",
      "note_off channel=0 note=61 velocity=127 time=0.010416666666666666\n",
      "note_off channel=0 note=62 velocity=127 time=0.009375\n",
      "note_on channel=0 note=61 velocity=127 time=0.065625\n",
      "note_off channel=0 note=61 velocity=127 time=0.019791666666666666\n",
      "note_on channel=0 note=60 velocity=127 time=0.03229166666666666\n",
      "note_on channel=0 note=62 velocity=127 time=0.017708333333333333\n",
      "note_off channel=0 note=60 velocity=127 time=0.0020833333333333333\n",
      "note_off channel=0 note=62 velocity=127 time=0.017708333333333333\n",
      "note_on channel=0 note=61 velocity=127 time=0.005208333333333333\n",
      "note_off channel=0 note=61 velocity=127 time=0.019791666666666666\n",
      "note_on channel=0 note=61 velocity=127 time=0.075\n",
      "note_off channel=0 note=61 velocity=127 time=0.019791666666666666\n",
      "note_on channel=0 note=62 velocity=127 time=0.015625\n",
      "note_off channel=0 note=62 velocity=127 time=0.019791666666666666\n",
      "note_on channel=0 note=60 velocity=127 time=0.035416666666666666\n",
      "note_on channel=0 note=61 velocity=127 time=0.004166666666666667\n",
      "note_off channel=0 note=60 velocity=127 time=0.015625\n",
      "note_off channel=0 note=61 velocity=127 time=0.004166666666666667\n",
      "note_on channel=0 note=61 velocity=127 time=0.075\n",
      "note_on channel=0 note=62 velocity=127 time=0.0010416666666666667\n",
      "note_off channel=0 note=61 velocity=127 time=0.01875\n",
      "note_off channel=0 note=62 velocity=127 time=0.0010416666666666667\n",
      "note_on channel=0 note=61 velocity=127 time=0.07395833333333333\n",
      "note_off channel=0 note=61 velocity=127 time=0.019791666666666666\n",
      "note_on channel=0 note=60 velocity=127 time=0.014583333333333334\n",
      "note_off channel=0 note=60 velocity=127 time=0.019791666666666666\n",
      "note_on channel=0 note=62 velocity=127 time=0.007291666666666667\n",
      "note_off channel=0 note=62 velocity=127 time=0.019791666666666666\n",
      "note_on channel=0 note=61 velocity=127 time=0.013541666666666667\n",
      "note_off channel=0 note=61 velocity=127 time=0.019791666666666666\n",
      "note_on channel=0 note=61 velocity=127 time=0.075\n",
      "note_off channel=0 note=61 velocity=127 time=0.019791666666666666\n",
      "note_on channel=0 note=62 velocity=127 time=0.007291666666666667\n",
      "note_off channel=0 note=62 velocity=127 time=0.019791666666666666\n",
      "note_on channel=0 note=60 velocity=127 time=0.026041666666666668\n",
      "note_off channel=0 note=60 velocity=127 time=0.019791666666666666\n",
      "note_on channel=0 note=61 velocity=127 time=0.0010416666666666667\n",
      "note_off channel=0 note=61 velocity=127 time=0.019791666666666666\n",
      "note_on channel=0 note=62 velocity=127 time=0.06875\n",
      "note_on channel=0 note=61 velocity=127 time=0.007291666666666667\n",
      "note_off channel=0 note=62 velocity=127 time=0.013541666666666667\n",
      "note_off channel=0 note=61 velocity=127 time=0.007291666666666667\n",
      "note_on channel=0 note=61 velocity=127 time=0.075\n",
      "note_on channel=0 note=60 velocity=127 time=0.017708333333333333\n",
      "note_off channel=0 note=61 velocity=127 time=0.0020833333333333333\n",
      "note_off channel=0 note=60 velocity=127 time=0.017708333333333333\n",
      "note_on channel=0 note=62 velocity=127 time=0.016666666666666666\n",
      "note_off channel=0 note=62 velocity=127 time=0.019791666666666666\n",
      "note_on channel=0 note=61 velocity=127 time=0.020833333333333332\n",
      "note_off channel=0 note=61 velocity=127 time=0.019791666666666666\n",
      "note_on channel=0 note=61 velocity=127 time=0.075\n",
      "note_on channel=0 note=62 velocity=127 time=0.019791666666666666\n",
      "note_off channel=0 note=61 velocity=127 time=0.0010416666666666667\n",
      "note_off channel=0 note=62 velocity=127 time=0.019791666666666666\n",
      "note_on channel=0 note=60 velocity=127 time=0.016666666666666666\n",
      "note_off channel=0 note=60 velocity=127 time=0.019791666666666666\n",
      "note_on channel=0 note=61 velocity=127 time=0.01875\n",
      "note_off channel=0 note=61 velocity=127 time=0.019791666666666666\n",
      "note_on channel=0 note=62 velocity=127 time=0.06041666666666667\n",
      "note_on channel=0 note=61 velocity=127 time=0.015625\n",
      "note_off channel=0 note=62 velocity=127 time=0.005208333333333333\n",
      "note_off channel=0 note=61 velocity=127 time=0.015625\n",
      "note_on channel=0 note=61 velocity=127 time=0.075\n",
      "note_on channel=0 note=60 velocity=127 time=0\n",
      "note_off channel=0 note=61 velocity=127 time=0.019791666666666666\n",
      "note_off channel=0 note=60 velocity=127 time=0\n",
      "note_on channel=0 note=62 velocity=127 time=0.025\n",
      "note_off channel=0 note=62 velocity=127 time=0.019791666666666666\n",
      "note_on channel=0 note=61 velocity=127 time=0.029166666666666667\n",
      "note_off channel=0 note=61 velocity=127 time=0.019791666666666666\n",
      "note_on channel=0 note=61 velocity=127 time=0.075\n",
      "note_on channel=0 note=62 velocity=127 time=0.011458333333333333\n",
      "note_off channel=0 note=61 velocity=127 time=0.009375\n",
      "note_off channel=0 note=62 velocity=127 time=0.011458333333333333\n",
      "note_on channel=0 note=60 velocity=127 time=0.008333333333333333\n",
      "note_off channel=0 note=60 velocity=127 time=0.019791666666666666\n",
      "note_on channel=0 note=61 velocity=127 time=0.036458333333333336\n",
      "note_off channel=0 note=61 velocity=127 time=0.019791666666666666\n",
      "note_on channel=0 note=62 velocity=127 time=0.052083333333333336\n",
      "note_off channel=0 note=62 velocity=127 time=0.019791666666666666\n",
      "note_on channel=0 note=61 velocity=127 time=0.003125\n",
      "note_off channel=0 note=61 velocity=127 time=0.019791666666666666\n",
      "note_on channel=0 note=60 velocity=127 time=0.058333333333333334\n",
      "note_on channel=0 note=61 velocity=127 time=0.016666666666666666\n",
      "note_off channel=0 note=60 velocity=127 time=0.003125\n",
      "note_off channel=0 note=61 velocity=127 time=0.016666666666666666\n",
      "note_on channel=0 note=62 velocity=127 time=0.017708333333333333\n",
      "note_off channel=0 note=62 velocity=127 time=0.019791666666666666\n",
      "note_on channel=0 note=61 velocity=127 time=0.0375\n",
      "note_off channel=0 note=61 velocity=127 time=0.019791666666666666\n",
      "note_on channel=0 note=61 velocity=127 time=0.075\n",
      "note_on channel=0 note=62 velocity=127 time=0.003125\n",
      "note_off channel=0 note=61 velocity=127 time=0.017708333333333333\n",
      "note_on channel=0 note=60 velocity=127 time=0.0020833333333333333\n",
      "note_off channel=0 note=62 velocity=127 time=0.0010416666666666667\n",
      "note_off channel=0 note=60 velocity=127 time=0.01875\n",
      "note_on channel=0 note=61 velocity=127 time=0.053125\n",
      "note_off channel=0 note=61 velocity=127 time=0.019791666666666666\n",
      "note_on channel=0 note=62 velocity=127 time=0.04375\n",
      "note_off channel=0 note=62 velocity=127 time=0.019791666666666666\n",
      "note_on channel=0 note=61 velocity=127 time=0.011458333333333333\n",
      "note_off channel=0 note=61 velocity=127 time=0.019791666666666666\n",
      "note_on channel=0 note=60 velocity=127 time=0.040625\n",
      "note_off channel=0 note=60 velocity=127 time=0.019791666666666666\n",
      "\u001b[91m [DEBUG] > \u001b[0m\n",
      " |>  to_array: msg.time > max_t; t, n\n",
      " |>  2.996875000000001\n",
      " |>  150\n",
      "note_on channel=0 note=62 velocity=127 time=0.058333333333333334\n",
      "note_off channel=0 note=62 velocity=127 time=0.019791666666666666\n",
      "note_on channel=0 note=62 velocity=127 time=0.05520833333333333\n",
      "note_off channel=0 note=62 velocity=127 time=0.019791666666666666\n",
      "note_on channel=0 note=60 velocity=127 time=0.03854166666666667\n",
      "note_on channel=0 note=62 velocity=127 time=0.015625\n",
      "note_off channel=0 note=60 velocity=127 time=0.004166666666666667\n",
      "note_off channel=0 note=62 velocity=127 time=0.015625\n",
      "note_on channel=0 note=61 velocity=127 time=0.014583333333333334\n",
      "note_off channel=0 note=61 velocity=127 time=0.019791666666666666\n",
      "note_on channel=0 note=62 velocity=127 time=0.020833333333333332\n",
      "note_off channel=0 note=62 velocity=127 time=0.019791666666666666\n",
      "note_on channel=0 note=62 velocity=127 time=0.05520833333333333\n",
      "note_off channel=0 note=62 velocity=127 time=0.019791666666666666\n",
      "note_on channel=0 note=60 velocity=127 time=0.020833333333333332\n",
      "note_off channel=0 note=60 velocity=127 time=0.019791666666666666\n",
      "note_on channel=0 note=62 velocity=127 time=0.014583333333333334\n",
      "note_off channel=0 note=62 velocity=127 time=0.019791666666666666\n",
      "note_on channel=0 note=61 velocity=127 time=0.03958333333333333\n",
      "note_on channel=0 note=62 velocity=127 time=0.015625\n",
      "note_off channel=0 note=61 velocity=127 time=0.004166666666666667\n",
      "note_off channel=0 note=62 velocity=127 time=0.015625\n",
      "note_on channel=0 note=62 velocity=127 time=0.05520833333333333\n",
      "note_off channel=0 note=62 velocity=127 time=0.019791666666666666\n",
      "note_on channel=0 note=60 velocity=127 time=0.003125\n",
      "note_off channel=0 note=60 velocity=127 time=0.019791666666666666\n",
      "note_on channel=0 note=62 velocity=127 time=0.03229166666666666\n",
      "note_off channel=0 note=62 velocity=127 time=0.019791666666666666\n",
      "note_on channel=0 note=62 velocity=127 time=0.05520833333333333\n",
      "note_on channel=0 note=61 velocity=127 time=0.009375\n",
      "note_off channel=0 note=62 velocity=127 time=0.010416666666666666\n",
      "note_off channel=0 note=61 velocity=127 time=0.009375\n",
      "note_on channel=0 note=62 velocity=127 time=0.04583333333333333\n",
      "note_on channel=0 note=60 velocity=127 time=0.004166666666666667\n",
      "note_off channel=0 note=62 velocity=127 time=0.015625\n",
      "note_off channel=0 note=60 velocity=127 time=0.004166666666666667\n",
      "note_on channel=0 note=62 velocity=127 time=0.051041666666666666\n",
      "note_off channel=0 note=62 velocity=127 time=0.019791666666666666\n",
      "note_on channel=0 note=62 velocity=127 time=0.05520833333333333\n",
      "note_off channel=0 note=62 velocity=127 time=0.019791666666666666\n",
      "note_on channel=0 note=61 velocity=127 time=0.014583333333333334\n",
      "note_off channel=0 note=61 velocity=127 time=0.019791666666666666\n",
      "note_on channel=0 note=60 velocity=127 time=0.00625\n",
      "note_on channel=0 note=62 velocity=127 time=0.013541666666666667\n",
      "note_off channel=0 note=60 velocity=127 time=0.00625\n",
      "note_off channel=0 note=62 velocity=127 time=0.013541666666666667\n",
      "note_on channel=0 note=62 velocity=127 time=0.05520833333333333\n",
      "note_off channel=0 note=62 velocity=127 time=0.019791666666666666\n",
      "note_on channel=0 note=62 velocity=127 time=0.05520833333333333\n",
      "note_off channel=0 note=62 velocity=127 time=0.019791666666666666\n",
      "note_on channel=0 note=60 velocity=127 time=0.022916666666666665\n",
      "note_on channel=0 note=61 velocity=127 time=0.016666666666666666\n",
      "note_off channel=0 note=60 velocity=127 time=0.003125\n",
      "note_on channel=0 note=62 velocity=127 time=0.011458333333333333\n",
      "note_off channel=0 note=61 velocity=127 time=0.005208333333333333\n",
      "note_off channel=0 note=62 velocity=127 time=0.014583333333333334\n",
      "note_on channel=0 note=62 velocity=127 time=0.05520833333333333\n",
      "note_off channel=0 note=62 velocity=127 time=0.019791666666666666\n",
      "note_on channel=0 note=62 velocity=127 time=0.05520833333333333\n",
      "note_off channel=0 note=62 velocity=127 time=0.019791666666666666\n",
      "note_on channel=0 note=60 velocity=127 time=0.005208333333333333\n",
      "note_off channel=0 note=60 velocity=127 time=0.019791666666666666\n",
      "note_on channel=0 note=62 velocity=127 time=0.030208333333333334\n",
      "note_on channel=0 note=61 velocity=127 time=0.010416666666666666\n",
      "note_off channel=0 note=62 velocity=127 time=0.009375\n",
      "note_off channel=0 note=61 velocity=127 time=0.010416666666666666\n",
      "note_on channel=0 note=62 velocity=127 time=0.04479166666666667\n",
      "note_off channel=0 note=62 velocity=127 time=0.019791666666666666\n",
      "note_on channel=0 note=62 velocity=127 time=0.05520833333333333\n",
      "note_on channel=0 note=60 velocity=127 time=0.007291666666666667\n",
      "note_off channel=0 note=62 velocity=127 time=0.013541666666666667\n",
      "note_off channel=0 note=60 velocity=127 time=0.007291666666666667\n",
      "note_on channel=0 note=62 velocity=127 time=0.04791666666666666\n",
      "note_off channel=0 note=62 velocity=127 time=0.019791666666666666\n",
      "note_on channel=0 note=61 velocity=127 time=0.015625\n",
      "note_off channel=0 note=61 velocity=127 time=0.019791666666666666\n",
      "note_on channel=0 note=62 velocity=127 time=0.019791666666666666\n",
      "note_off channel=0 note=62 velocity=127 time=0.019791666666666666\n",
      "note_on channel=0 note=60 velocity=127 time=0.04375\n",
      "note_on channel=0 note=62 velocity=127 time=0.011458333333333333\n",
      "note_off channel=0 note=60 velocity=127 time=0.008333333333333333\n",
      "note_off channel=0 note=62 velocity=127 time=0.011458333333333333\n",
      "note_on channel=0 note=62 velocity=127 time=0.05520833333333333\n",
      "note_off channel=0 note=62 velocity=127 time=0.019791666666666666\n",
      "note_on channel=0 note=61 velocity=127 time=0.040625\n",
      "note_on channel=0 note=62 velocity=127 time=0.014583333333333334\n",
      "note_off channel=0 note=61 velocity=127 time=0.005208333333333333\n",
      "note_off channel=0 note=62 velocity=127 time=0.014583333333333334\n",
      "note_on channel=0 note=60 velocity=127 time=0.026041666666666668\n",
      "note_off channel=0 note=60 velocity=127 time=0.019791666666666666\n",
      "note_on channel=0 note=62 velocity=127 time=0.009375\n",
      "note_off channel=0 note=62 velocity=127 time=0.019791666666666666\n",
      "note_on channel=0 note=62 velocity=127 time=0.05520833333333333\n",
      "note_off channel=0 note=62 velocity=127 time=0.019791666666666666\n",
      "note_on channel=0 note=62 velocity=127 time=0.05520833333333333\n",
      "note_on channel=0 note=61 velocity=127 time=0.010416666666666666\n",
      "note_off channel=0 note=62 velocity=127 time=0.009375\n",
      "note_on channel=0 note=60 velocity=127 time=0.007291666666666667\n",
      "note_off channel=0 note=61 velocity=127 time=0.003125\n",
      "note_off channel=0 note=60 velocity=127 time=0.016666666666666666\n",
      "note_on channel=0 note=62 velocity=127 time=0.028125\n",
      "note_off channel=0 note=62 velocity=127 time=0.019791666666666666\n",
      "note_on channel=0 note=62 velocity=127 time=0.05520833333333333\n",
      "note_off channel=0 note=62 velocity=127 time=0.019791666666666666\n",
      "note_on channel=0 note=62 velocity=127 time=0.05520833333333333\n",
      "note_on channel=0 note=60 velocity=127 time=0.009375\n",
      "note_off channel=0 note=62 velocity=127 time=0.010416666666666666\n",
      "note_off channel=0 note=60 velocity=127 time=0.009375\n",
      "note_on channel=0 note=61 velocity=127 time=0.007291666666666667\n",
      "note_off channel=0 note=61 velocity=127 time=0.019791666666666666\n",
      "note_on channel=0 note=62 velocity=127 time=0.01875\n",
      "note_off channel=0 note=62 velocity=127 time=0.019791666666666666\n",
      "note_on channel=0 note=62 velocity=127 time=0.05520833333333333\n",
      "note_off channel=0 note=62 velocity=127 time=0.019791666666666666\n",
      "note_on channel=0 note=60 velocity=127 time=0.04583333333333333\n",
      "note_on channel=0 note=62 velocity=127 time=0.009375\n",
      "note_off channel=0 note=60 velocity=127 time=0.011458333333333333\n",
      "note_off channel=0 note=62 velocity=127 time=0.009375\n",
      "note_on channel=0 note=61 velocity=127 time=0.041666666666666664\n",
      "note_on channel=0 note=62 velocity=127 time=0.013541666666666667\n",
      "note_off channel=0 note=61 velocity=127 time=0.00625\n",
      "note_off channel=0 note=62 velocity=127 time=0.013541666666666667\n",
      "note_on channel=0 note=62 velocity=127 time=0.05520833333333333\n",
      "note_off channel=0 note=62 velocity=127 time=0.019791666666666666\n",
      "note_on channel=0 note=60 velocity=127 time=0.028125\n",
      "note_off channel=0 note=60 velocity=127 time=0.019791666666666666\n",
      "note_on channel=0 note=62 velocity=127 time=0.007291666666666667\n",
      "note_off channel=0 note=62 velocity=127 time=0.019791666666666666\n",
      "note_on channel=0 note=62 velocity=127 time=0.05520833333333333\n",
      "note_on channel=0 note=61 velocity=127 time=0.011458333333333333\n",
      "\u001b[91m [DEBUG] > \u001b[0m\n",
      " |>  to_array: msg.time > max_t; t, n\n",
      " |>  2.9937500000000004\n",
      " |>  150\n",
      "note_on channel=0 note=61 velocity=127 time=0.008333333333333333\n",
      "note_off channel=0 note=61 velocity=127 time=0.019791666666666666\n",
      "note_on channel=0 note=62 velocity=127 time=0.05\n",
      "note_off channel=0 note=62 velocity=127 time=0.019791666666666666\n",
      "note_on channel=0 note=61 velocity=127 time=0.028125\n",
      "note_off channel=0 note=61 velocity=127 time=0.019791666666666666\n",
      "note_on channel=0 note=60 velocity=127 time=0.014583333333333334\n",
      "note_off channel=0 note=60 velocity=127 time=0.019791666666666666\n",
      "note_on channel=0 note=61 velocity=127 time=0.06458333333333333\n",
      "note_on channel=0 note=62 velocity=127 time=0.016666666666666666\n",
      "note_off channel=0 note=61 velocity=127 time=0.003125\n",
      "note_off channel=0 note=62 velocity=127 time=0.016666666666666666\n",
      "note_on channel=0 note=60 velocity=127 time=0.065625\n",
      "note_on channel=0 note=61 velocity=127 time=0.016666666666666666\n",
      "note_off channel=0 note=60 velocity=127 time=0.004166666666666667\n",
      "note_off channel=0 note=61 velocity=127 time=0.016666666666666666\n",
      "note_on channel=0 note=62 velocity=127 time=0.0625\n",
      "note_off channel=0 note=62 velocity=127 time=0.019791666666666666\n",
      "note_on channel=0 note=61 velocity=127 time=0.016666666666666666\n",
      "note_off channel=0 note=61 velocity=127 time=0.019791666666666666\n",
      "note_on channel=0 note=60 velocity=127 time=0.03229166666666666\n",
      "note_off channel=0 note=60 velocity=127 time=0.019791666666666666\n",
      "note_on channel=0 note=61 velocity=127 time=0.046875\n",
      "note_off channel=0 note=61 velocity=127 time=0.019791666666666666\n",
      "note_on channel=0 note=62 velocity=127 time=0.009375\n",
      "note_off channel=0 note=62 velocity=127 time=0.019791666666666666\n",
      "note_on channel=0 note=61 velocity=127 time=0.06979166666666667\n",
      "note_on channel=0 note=60 velocity=127 time=0.0020833333333333333\n",
      "note_off channel=0 note=61 velocity=127 time=0.017708333333333333\n",
      "note_off channel=0 note=60 velocity=127 time=0.0020833333333333333\n",
      "note_on channel=0 note=62 velocity=127 time=0.07291666666666667\n",
      "note_off channel=0 note=62 velocity=127 time=0.019791666666666666\n",
      "note_on channel=0 note=61 velocity=127 time=0.004166666666666667\n",
      "note_off channel=0 note=61 velocity=127 time=0.019791666666666666\n",
      "note_on channel=0 note=60 velocity=127 time=0.051041666666666666\n",
      "note_off channel=0 note=60 velocity=127 time=0.019791666666666666\n",
      "note_on channel=0 note=61 velocity=127 time=0.028125\n",
      "note_off channel=0 note=61 velocity=127 time=0.019791666666666666\n",
      "note_on channel=0 note=62 velocity=127 time=0.020833333333333332\n",
      "note_off channel=0 note=62 velocity=127 time=0.019791666666666666\n",
      "note_on channel=0 note=61 velocity=127 time=0.058333333333333334\n",
      "note_off channel=0 note=61 velocity=127 time=0.019791666666666666\n",
      "note_on channel=0 note=60 velocity=127 time=0\n",
      "note_off channel=0 note=60 velocity=127 time=0.019791666666666666\n",
      "note_on channel=0 note=62 velocity=127 time=0.06666666666666667\n",
      "note_on channel=0 note=61 velocity=127 time=0.0125\n",
      "note_off channel=0 note=62 velocity=127 time=0.007291666666666667\n",
      "note_off channel=0 note=61 velocity=127 time=0.0125\n",
      "note_on channel=0 note=60 velocity=127 time=0.06875\n",
      "note_off channel=0 note=60 velocity=127 time=0.019791666666666666\n",
      "note_on channel=0 note=61 velocity=127 time=0.010416666666666666\n",
      "note_off channel=0 note=61 velocity=127 time=0.019791666666666666\n",
      "note_on channel=0 note=62 velocity=127 time=0.03333333333333333\n",
      "note_off channel=0 note=62 velocity=127 time=0.019791666666666666\n",
      "note_on channel=0 note=61 velocity=127 time=0.04583333333333333\n",
      "note_off channel=0 note=61 velocity=127 time=0.019791666666666666\n",
      "note_on channel=0 note=60 velocity=127 time=0.01875\n",
      "note_off channel=0 note=60 velocity=127 time=0.019791666666666666\n",
      "note_on channel=0 note=62 velocity=127 time=0.06041666666666667\n",
      "note_on channel=0 note=61 velocity=127 time=0.0010416666666666667\n",
      "note_off channel=0 note=62 velocity=127 time=0.019791666666666666\n",
      "note_off channel=0 note=61 velocity=127 time=0.0010416666666666667\n",
      "note_on channel=0 note=60 velocity=127 time=0.08645833333333333\n",
      "note_on channel=0 note=61 velocity=127 time=0.0125\n",
      "note_off channel=0 note=60 velocity=127 time=0.008333333333333333\n",
      "note_off channel=0 note=61 velocity=127 time=0.0125\n",
      "note_on channel=0 note=62 velocity=127 time=0.04479166666666667\n",
      "note_off channel=0 note=62 velocity=127 time=0.019791666666666666\n",
      "note_on channel=0 note=61 velocity=127 time=0.034375\n",
      "note_off channel=0 note=61 velocity=127 time=0.019791666666666666\n",
      "note_on channel=0 note=60 velocity=127 time=0.036458333333333336\n",
      "note_off channel=0 note=60 velocity=127 time=0.019791666666666666\n",
      "note_on channel=0 note=61 velocity=127 time=0.042708333333333334\n",
      "note_on channel=0 note=62 velocity=127 time=0.011458333333333333\n",
      "note_off channel=0 note=61 velocity=127 time=0.008333333333333333\n",
      "note_off channel=0 note=62 velocity=127 time=0.011458333333333333\n",
      "note_on channel=0 note=61 velocity=127 time=0.0875\n",
      "note_on channel=0 note=60 velocity=127 time=0.00625\n",
      "note_off channel=0 note=61 velocity=127 time=0.013541666666666667\n",
      "note_off channel=0 note=60 velocity=127 time=0.00625\n",
      "note_on channel=0 note=62 velocity=127 time=0.051041666666666666\n",
      "note_off channel=0 note=62 velocity=127 time=0.019791666666666666\n",
      "note_on channel=0 note=61 velocity=127 time=0.021875\n",
      "note_off channel=0 note=61 velocity=127 time=0.019791666666666666\n",
      "note_on channel=0 note=60 velocity=127 time=0.05416666666666667\n",
      "note_off channel=0 note=60 velocity=127 time=0.019791666666666666\n",
      "note_on channel=0 note=61 velocity=127 time=0.02395833333333333\n",
      "note_off channel=0 note=61 velocity=127 time=0.019791666666666666\n",
      "note_on channel=0 note=62 velocity=127 time=0.003125\n",
      "note_off channel=0 note=62 velocity=127 time=0.019791666666666666\n",
      "note_on channel=0 note=61 velocity=127 time=0.07604166666666666\n",
      "note_off channel=0 note=61 velocity=127 time=0.019791666666666666\n",
      "note_on channel=0 note=60 velocity=127 time=0.004166666666666667\n",
      "note_off channel=0 note=60 velocity=127 time=0.019791666666666666\n",
      "note_on channel=0 note=62 velocity=127 time=0.04479166666666667\n",
      "note_off channel=0 note=62 velocity=127 time=0.019791666666666666\n",
      "note_on channel=0 note=61 velocity=127 time=0.010416666666666666\n",
      "note_off channel=0 note=61 velocity=127 time=0.019791666666666666\n",
      "note_on channel=0 note=60 velocity=127 time=0.07291666666666667\n",
      "note_off channel=0 note=60 velocity=127 time=0.019791666666666666\n",
      "note_on channel=0 note=61 velocity=127 time=0.00625\n",
      "note_off channel=0 note=61 velocity=127 time=0.019791666666666666\n",
      "note_on channel=0 note=62 velocity=127 time=0.015625\n",
      "note_off channel=0 note=62 velocity=127 time=0.019791666666666666\n",
      "note_on channel=0 note=61 velocity=127 time=0.06354166666666666\n",
      "note_off channel=0 note=61 velocity=127 time=0.019791666666666666\n",
      "note_on channel=0 note=60 velocity=127 time=0.022916666666666665\n",
      "note_off channel=0 note=60 velocity=127 time=0.019791666666666666\n",
      "note_on channel=0 note=62 velocity=127 time=0.03854166666666667\n",
      "note_on channel=0 note=61 velocity=127 time=0.01875\n",
      "note_off channel=0 note=62 velocity=127 time=0.0020833333333333333\n",
      "note_off channel=0 note=61 velocity=127 time=0.01875\n",
      "note_on channel=0 note=60 velocity=127 time=0.090625\n",
      "note_on channel=0 note=61 velocity=127 time=0.008333333333333333\n",
      "note_off channel=0 note=60 velocity=127 time=0.0125\n",
      "\u001b[91m [DEBUG] > \u001b[0m\n",
      " |>  to_array: msg.time > max_t; t, n\n",
      " |>  2.993750000000003\n",
      " |>  150\n",
      "note_on channel=0 note=60 velocity=127 time=0.01875\n",
      "note_on channel=0 note=61 velocity=127 time=0.011458333333333333\n",
      "note_off channel=0 note=60 velocity=127 time=0.009375\n",
      "note_off channel=0 note=61 velocity=127 time=0.011458333333333333\n"
     ]
    },
    {
     "name": "stdout",
     "output_type": "stream",
     "text": [
      "note_on channel=0 note=62 velocity=127 time=0.004166666666666667\n",
      "note_off channel=0 note=62 velocity=127 time=0.019791666666666666\n",
      "note_on channel=0 note=61 velocity=127 time=0.027083333333333334\n",
      "note_off channel=0 note=61 velocity=127 time=0.019791666666666666\n",
      "note_on channel=0 note=61 velocity=127 time=0.051041666666666666\n",
      "note_off channel=0 note=61 velocity=127 time=0.019791666666666666\n",
      "note_on channel=0 note=62 velocity=127 time=0.019791666666666666\n",
      "note_off channel=0 note=62 velocity=127 time=0.019791666666666666\n",
      "note_on channel=0 note=61 velocity=127 time=0.011458333333333333\n",
      "note_off channel=0 note=61 velocity=127 time=0.019791666666666666\n",
      "note_on channel=0 note=60 velocity=127 time=0.010416666666666666\n",
      "note_off channel=0 note=60 velocity=127 time=0.019791666666666666\n",
      "note_on channel=0 note=61 velocity=127 time=0.020833333333333332\n",
      "note_off channel=0 note=61 velocity=127 time=0.019791666666666666\n",
      "note_on channel=0 note=62 velocity=127 time=0.035416666666666666\n",
      "note_on channel=0 note=61 velocity=127 time=0.015625\n",
      "note_off channel=0 note=62 velocity=127 time=0.004166666666666667\n",
      "note_off channel=0 note=61 velocity=127 time=0.015625\n",
      "note_on channel=0 note=61 velocity=127 time=0.051041666666666666\n",
      "note_off channel=0 note=61 velocity=127 time=0.019791666666666666\n",
      "note_on channel=0 note=60 velocity=127 time=0.051041666666666666\n",
      "note_on channel=0 note=61 velocity=127 time=0\n",
      "note_on channel=0 note=62 velocity=127 time=0\n",
      "note_off channel=0 note=60 velocity=127 time=0.019791666666666666\n",
      "note_off channel=0 note=61 velocity=127 time=0\n",
      "note_off channel=0 note=62 velocity=127 time=0\n",
      "note_on channel=0 note=61 velocity=127 time=0.051041666666666666\n",
      "note_off channel=0 note=61 velocity=127 time=0.019791666666666666\n",
      "note_on channel=0 note=61 velocity=127 time=0.051041666666666666\n",
      "note_on channel=0 note=62 velocity=127 time=0.015625\n",
      "note_off channel=0 note=61 velocity=127 time=0.004166666666666667\n",
      "note_off channel=0 note=62 velocity=127 time=0.015625\n",
      "note_on channel=0 note=61 velocity=127 time=0.035416666666666666\n",
      "note_off channel=0 note=61 velocity=127 time=0.019791666666666666\n",
      "note_on channel=0 note=60 velocity=127 time=0.020833333333333332\n",
      "note_off channel=0 note=60 velocity=127 time=0.019791666666666666\n",
      "note_on channel=0 note=61 velocity=127 time=0.010416666666666666\n",
      "note_off channel=0 note=61 velocity=127 time=0.019791666666666666\n",
      "note_on channel=0 note=62 velocity=127 time=0.011458333333333333\n",
      "note_off channel=0 note=62 velocity=127 time=0.019791666666666666\n",
      "note_on channel=0 note=61 velocity=127 time=0.019791666666666666\n",
      "note_off channel=0 note=61 velocity=127 time=0.019791666666666666\n",
      "note_on channel=0 note=61 velocity=127 time=0.051041666666666666\n",
      "note_off channel=0 note=61 velocity=127 time=0.019791666666666666\n",
      "note_on channel=0 note=62 velocity=127 time=0.027083333333333334\n",
      "note_off channel=0 note=62 velocity=127 time=0.019791666666666666\n",
      "note_on channel=0 note=61 velocity=127 time=0.003125\n",
      "note_on channel=0 note=60 velocity=127 time=0.010416666666666666\n",
      "note_off channel=0 note=61 velocity=127 time=0.009375\n",
      "note_off channel=0 note=60 velocity=127 time=0.010416666666666666\n",
      "note_on channel=0 note=61 velocity=127 time=0.040625\n",
      "note_off channel=0 note=61 velocity=127 time=0.019791666666666666\n",
      "note_on channel=0 note=62 velocity=127 time=0.04375\n",
      "note_on channel=0 note=61 velocity=127 time=0.007291666666666667\n",
      "note_off channel=0 note=62 velocity=127 time=0.0125\n",
      "note_off channel=0 note=61 velocity=127 time=0.007291666666666667\n",
      "note_on channel=0 note=61 velocity=127 time=0.051041666666666666\n",
      "note_off channel=0 note=61 velocity=127 time=0.019791666666666666\n",
      "note_on channel=0 note=60 velocity=127 time=0.03125\n",
      "note_on channel=0 note=61 velocity=127 time=0.019791666666666666\n",
      "note_off channel=0 note=60 velocity=127 time=0\n",
      "note_on channel=0 note=62 velocity=127 time=0.007291666666666667\n",
      "note_off channel=0 note=61 velocity=127 time=0.011458333333333333\n",
      "note_off channel=0 note=62 velocity=127 time=0.008333333333333333\n",
      "note_on channel=0 note=61 velocity=127 time=0.042708333333333334\n",
      "note_off channel=0 note=61 velocity=127 time=0.019791666666666666\n",
      "note_on channel=0 note=61 velocity=127 time=0.051041666666666666\n",
      "note_off channel=0 note=61 velocity=127 time=0.019791666666666666\n",
      "note_on channel=0 note=62 velocity=127 time=0.004166666666666667\n",
      "note_off channel=0 note=62 velocity=127 time=0.019791666666666666\n",
      "note_on channel=0 note=61 velocity=127 time=0.027083333333333334\n",
      "note_off channel=0 note=61 velocity=127 time=0.019791666666666666\n",
      "note_on channel=0 note=60 velocity=127 time=0.0010416666666666667\n",
      "note_off channel=0 note=60 velocity=127 time=0.019791666666666666\n",
      "note_on channel=0 note=61 velocity=127 time=0.030208333333333334\n",
      "note_off channel=0 note=61 velocity=127 time=0.019791666666666666\n",
      "note_on channel=0 note=62 velocity=127 time=0.019791666666666666\n",
      "note_off channel=0 note=62 velocity=127 time=0.019791666666666666\n",
      "note_on channel=0 note=61 velocity=127 time=0.011458333333333333\n",
      "note_off channel=0 note=61 velocity=127 time=0.019791666666666666\n",
      "note_on channel=0 note=61 velocity=127 time=0.051041666666666666\n",
      "note_off channel=0 note=61 velocity=127 time=0.019791666666666666\n",
      "note_on channel=0 note=62 velocity=127 time=0.035416666666666666\n",
      "note_on channel=0 note=60 velocity=127 time=0.00625\n",
      "note_on channel=0 note=61 velocity=127 time=0.009375\n",
      "note_off channel=0 note=62 velocity=127 time=0.004166666666666667\n",
      "note_off channel=0 note=60 velocity=127 time=0.00625\n",
      "note_off channel=0 note=61 velocity=127 time=0.009375\n",
      "note_on channel=0 note=61 velocity=127 time=0.051041666666666666\n",
      "note_off channel=0 note=61 velocity=127 time=0.019791666666666666\n",
      "note_on channel=0 note=61 velocity=127 time=0.051041666666666666\n",
      "note_on channel=0 note=62 velocity=127 time=0\n",
      "note_off channel=0 note=61 velocity=127 time=0.019791666666666666\n",
      "note_off channel=0 note=62 velocity=127 time=0\n",
      "note_on channel=0 note=61 velocity=127 time=0.051041666666666666\n",
      "note_off channel=0 note=61 velocity=127 time=0.019791666666666666\n",
      "note_on channel=0 note=60 velocity=127 time=0.011458333333333333\n",
      "note_off channel=0 note=60 velocity=127 time=0.019791666666666666\n",
      "note_on channel=0 note=61 velocity=127 time=0.01875\n",
      "note_on channel=0 note=62 velocity=127 time=0.015625\n",
      "note_off channel=0 note=61 velocity=127 time=0.004166666666666667\n",
      "note_off channel=0 note=62 velocity=127 time=0.015625\n",
      "note_on channel=0 note=61 velocity=127 time=0.035416666666666666\n",
      "note_off channel=0 note=61 velocity=127 time=0.019791666666666666\n",
      "note_on channel=0 note=61 velocity=127 time=0.051041666666666666\n",
      "note_off channel=0 note=61 velocity=127 time=0.019791666666666666\n",
      "note_on channel=0 note=62 velocity=127 time=0.011458333333333333\n",
      "note_off channel=0 note=62 velocity=127 time=0.019791666666666666\n",
      "note_on channel=0 note=61 velocity=127 time=0.019791666666666666\n",
      "note_on channel=0 note=60 velocity=127 time=0.0020833333333333333\n",
      "note_off channel=0 note=61 velocity=127 time=0.017708333333333333\n",
      "note_off channel=0 note=60 velocity=127 time=0.0020833333333333333\n",
      "note_on channel=0 note=61 velocity=127 time=0.04895833333333333\n",
      "note_off channel=0 note=61 velocity=127 time=0.019791666666666666\n",
      "note_on channel=0 note=62 velocity=127 time=0.027083333333333334\n",
      "note_off channel=0 note=62 velocity=127 time=0.019791666666666666\n",
      "note_on channel=0 note=61 velocity=127 time=0.003125\n",
      "note_off channel=0 note=61 velocity=127 time=0.019791666666666666\n",
      "note_on channel=0 note=61 velocity=127 time=0.051041666666666666\n",
      "note_off channel=0 note=61 velocity=127 time=0.019791666666666666\n",
      "note_on channel=0 note=60 velocity=127 time=0.022916666666666665\n",
      "note_off channel=0 note=60 velocity=127 time=0.019791666666666666\n",
      "note_on channel=0 note=62 velocity=127 time=0.0010416666666666667\n",
      "note_on channel=0 note=61 velocity=127 time=0.007291666666666667\n",
      "note_off channel=0 note=62 velocity=127 time=0.0125\n",
      "note_off channel=0 note=61 velocity=127 time=0.007291666666666667\n",
      "note_on channel=0 note=61 velocity=127 time=0.051041666666666666\n",
      "note_off channel=0 note=61 velocity=127 time=0.019791666666666666\n",
      "note_on channel=0 note=61 velocity=127 time=0.051041666666666666\n",
      "note_on channel=0 note=62 velocity=127 time=0.008333333333333333\n",
      "note_off channel=0 note=61 velocity=127 time=0.0125\n",
      "note_off channel=0 note=62 velocity=127 time=0.008333333333333333\n",
      "note_on channel=0 note=61 velocity=127 time=0.042708333333333334\n",
      "note_on channel=0 note=60 velocity=127 time=0.0125\n",
      "note_off channel=0 note=61 velocity=127 time=0.007291666666666667\n",
      "note_off channel=0 note=60 velocity=127 time=0.0125\n",
      "note_on channel=0 note=61 velocity=127 time=0.03854166666666667\n",
      "note_off channel=0 note=61 velocity=127 time=0.019791666666666666\n",
      "note_on channel=0 note=62 velocity=127 time=0.004166666666666667\n",
      "note_off channel=0 note=62 velocity=127 time=0.019791666666666666\n",
      "note_on channel=0 note=61 velocity=127 time=0.027083333333333334\n",
      "note_off channel=0 note=61 velocity=127 time=0.019791666666666666\n",
      "note_on channel=0 note=61 velocity=127 time=0.051041666666666666\n",
      "\u001b[91m [DEBUG] > \u001b[0m\n",
      " |>  to_array: msg.time > max_t; t, n\n",
      " |>  3.0031250000000034\n",
      " |>  150\n",
      "note_on channel=0 note=62 velocity=127 time=0.04479166666666667\n",
      "note_off channel=0 note=62 velocity=127 time=0.019791666666666666\n",
      "note_on channel=0 note=60 velocity=127 time=0.0010416666666666667\n",
      "note_off channel=0 note=60 velocity=127 time=0.019791666666666666\n",
      "note_on channel=0 note=62 velocity=127 time=0.026041666666666668\n",
      "note_off channel=0 note=62 velocity=127 time=0.019791666666666666\n",
      "note_on channel=0 note=61 velocity=127 time=0.029166666666666667\n",
      "note_on channel=0 note=62 velocity=127 time=0.01875\n",
      "note_off channel=0 note=61 velocity=127 time=0.0010416666666666667\n",
      "note_off channel=0 note=62 velocity=127 time=0.01875\n",
      "note_on channel=0 note=60 velocity=127 time=0.041666666666666664\n",
      "note_on channel=0 note=62 velocity=127 time=0.00625\n",
      "note_off channel=0 note=60 velocity=127 time=0.014583333333333334\n",
      "note_off channel=0 note=62 velocity=127 time=0.00625\n",
      "note_on channel=0 note=62 velocity=127 time=0.04791666666666666\n",
      "note_off channel=0 note=62 velocity=127 time=0.019791666666666666\n",
      "note_on channel=0 note=62 velocity=127 time=0.04791666666666666\n",
      "note_off channel=0 note=62 velocity=127 time=0.019791666666666666\n",
      "note_on channel=0 note=60 velocity=127 time=0.014583333333333334\n",
      "note_off channel=0 note=60 velocity=127 time=0.019791666666666666\n",
      "note_on channel=0 note=61 velocity=127 time=0.005208333333333333\n",
      "note_on channel=0 note=62 velocity=127 time=0.008333333333333333\n",
      "note_off channel=0 note=61 velocity=127 time=0.0125\n",
      "note_off channel=0 note=62 velocity=127 time=0.008333333333333333\n",
      "note_on channel=0 note=62 velocity=127 time=0.04791666666666666\n",
      "note_off channel=0 note=62 velocity=127 time=0.019791666666666666\n",
      "note_on channel=0 note=62 velocity=127 time=0.04791666666666666\n",
      "note_on channel=0 note=60 velocity=127 time=0.007291666666666667\n",
      "note_off channel=0 note=62 velocity=127 time=0.0125\n",
      "note_off channel=0 note=60 velocity=127 time=0.007291666666666667\n",
      "note_on channel=0 note=62 velocity=127 time=0.03958333333333333\n",
      "note_off channel=0 note=62 velocity=127 time=0.019791666666666666\n",
      "note_on channel=0 note=62 velocity=127 time=0.04791666666666666\n",
      "note_on channel=0 note=61 velocity=127 time=0.003125\n",
      "note_off channel=0 note=62 velocity=127 time=0.017708333333333333\n",
      "note_off channel=0 note=61 velocity=127 time=0.003125\n",
      "note_on channel=0 note=60 velocity=127 time=0.025\n",
      "note_on channel=0 note=62 velocity=127 time=0.019791666666666666\n",
      "note_off channel=0 note=60 velocity=127 time=0\n",
      "note_off channel=0 note=62 velocity=127 time=0.019791666666666666\n",
      "note_on channel=0 note=62 velocity=127 time=0.04791666666666666\n",
      "note_off channel=0 note=62 velocity=127 time=0.019791666666666666\n",
      "note_on channel=0 note=62 velocity=127 time=0.04791666666666666\n",
      "note_off channel=0 note=62 velocity=127 time=0.019791666666666666\n",
      "note_on channel=0 note=60 velocity=127 time=0\n",
      "note_off channel=0 note=60 velocity=127 time=0.019791666666666666\n",
      "note_on channel=0 note=62 velocity=127 time=0.027083333333333334\n",
      "note_on channel=0 note=61 velocity=127 time=0.013541666666666667\n",
      "note_off channel=0 note=62 velocity=127 time=0.007291666666666667\n",
      "note_off channel=0 note=61 velocity=127 time=0.013541666666666667\n",
      "note_on channel=0 note=62 velocity=127 time=0.034375\n",
      "note_off channel=0 note=62 velocity=127 time=0.019791666666666666\n",
      "note_on channel=0 note=60 velocity=127 time=0.040625\n",
      "note_on channel=0 note=62 velocity=127 time=0.00625\n",
      "note_off channel=0 note=60 velocity=127 time=0.013541666666666667\n",
      "note_off channel=0 note=62 velocity=127 time=0.00625\n",
      "note_on channel=0 note=62 velocity=127 time=0.04791666666666666\n",
      "note_off channel=0 note=62 velocity=127 time=0.019791666666666666\n",
      "note_on channel=0 note=62 velocity=127 time=0.04791666666666666\n",
      "note_off channel=0 note=62 velocity=127 time=0.019791666666666666\n",
      "note_on channel=0 note=61 velocity=127 time=0.004166666666666667\n",
      "note_on channel=0 note=60 velocity=127 time=0.009375\n",
      "note_off channel=0 note=61 velocity=127 time=0.010416666666666666\n",
      "note_off channel=0 note=60 velocity=127 time=0.009375\n",
      "note_on channel=0 note=62 velocity=127 time=0.013541666666666667\n",
      "note_off channel=0 note=62 velocity=127 time=0.019791666666666666\n",
      "note_on channel=0 note=62 velocity=127 time=0.04791666666666666\n",
      "note_off channel=0 note=62 velocity=127 time=0.019791666666666666\n",
      "note_on channel=0 note=62 velocity=127 time=0.04791666666666666\n",
      "note_on channel=0 note=60 velocity=127 time=0.00625\n",
      "note_off channel=0 note=62 velocity=127 time=0.013541666666666667\n",
      "note_off channel=0 note=60 velocity=127 time=0.00625\n",
      "note_on channel=0 note=62 velocity=127 time=0.040625\n",
      "note_off channel=0 note=62 velocity=127 time=0.019791666666666666\n",
      "note_on channel=0 note=61 velocity=127 time=0.014583333333333334\n",
      "note_off channel=0 note=61 velocity=127 time=0.019791666666666666\n",
      "note_on channel=0 note=62 velocity=127 time=0.013541666666666667\n",
      "note_off channel=0 note=62 velocity=127 time=0.019791666666666666\n",
      "note_on channel=0 note=60 velocity=127 time=0.027083333333333334\n",
      "note_off channel=0 note=60 velocity=127 time=0.019791666666666666\n",
      "note_on channel=0 note=62 velocity=127 time=0.0010416666666666667\n",
      "note_off channel=0 note=62 velocity=127 time=0.019791666666666666\n",
      "note_on channel=0 note=62 velocity=127 time=0.04791666666666666\n",
      "note_off channel=0 note=62 velocity=127 time=0.019791666666666666\n",
      "note_on channel=0 note=62 velocity=127 time=0.04791666666666666\n",
      "note_on channel=0 note=60 velocity=127 time=0.019791666666666666\n",
      "note_off channel=0 note=62 velocity=127 time=0\n",
      "note_off channel=0 note=60 velocity=127 time=0.019791666666666666\n",
      "note_on channel=0 note=61 velocity=127 time=0.005208333333333333\n",
      "note_off channel=0 note=61 velocity=127 time=0.019791666666666666\n",
      "note_on channel=0 note=62 velocity=127 time=0.003125\n",
      "note_off channel=0 note=62 velocity=127 time=0.019791666666666666\n",
      "note_on channel=0 note=62 velocity=127 time=0.04791666666666666\n",
      "note_off channel=0 note=62 velocity=127 time=0.019791666666666666\n",
      "note_on channel=0 note=60 velocity=127 time=0.03958333333333333\n",
      "note_on channel=0 note=62 velocity=127 time=0.007291666666666667\n",
      "note_off channel=0 note=60 velocity=127 time=0.0125\n",
      "note_off channel=0 note=62 velocity=127 time=0.007291666666666667\n",
      "note_on channel=0 note=62 velocity=127 time=0.04791666666666666\n",
      "note_off channel=0 note=62 velocity=127 time=0.019791666666666666\n",
      "note_on channel=0 note=61 velocity=127 time=0.035416666666666666\n",
      "note_on channel=0 note=62 velocity=127 time=0.0125\n",
      "note_off channel=0 note=61 velocity=127 time=0.008333333333333333\n",
      "note_off channel=0 note=62 velocity=127 time=0.0125\n",
      "note_on channel=0 note=60 velocity=127 time=0.0125\n",
      "note_off channel=0 note=60 velocity=127 time=0.019791666666666666\n",
      "note_on channel=0 note=62 velocity=127 time=0.014583333333333334\n",
      "note_off channel=0 note=62 velocity=127 time=0.019791666666666666\n",
      "note_on channel=0 note=62 velocity=127 time=0.04791666666666666\n",
      "note_off channel=0 note=62 velocity=127 time=0.019791666666666666\n",
      "note_on channel=0 note=62 velocity=127 time=0.04791666666666666\n",
      "note_on channel=0 note=60 velocity=127 time=0.005208333333333333\n",
      "note_off channel=0 note=62 velocity=127 time=0.014583333333333334\n",
      "note_off channel=0 note=60 velocity=127 time=0.005208333333333333\n",
      "note_on channel=0 note=61 velocity=127 time=0.040625\n",
      "note_on channel=0 note=62 velocity=127 time=0.0010416666666666667\n",
      "note_off channel=0 note=61 velocity=127 time=0.01875\n",
      "note_off channel=0 note=62 velocity=127 time=0.0010416666666666667\n",
      "note_on channel=0 note=62 velocity=127 time=0.04791666666666666\n",
      "note_off channel=0 note=62 velocity=127 time=0.019791666666666666\n",
      "note_on channel=0 note=60 velocity=127 time=0.026041666666666668\n",
      "note_off channel=0 note=60 velocity=127 time=0.019791666666666666\n",
      "note_on channel=0 note=62 velocity=127 time=0.0020833333333333333\n",
      "note_off channel=0 note=62 velocity=127 time=0.019791666666666666\n",
      "note_on channel=0 note=62 velocity=127 time=0.04791666666666666\n",
      "note_off channel=0 note=62 velocity=127 time=0.019791666666666666\n",
      "note_on channel=0 note=62 velocity=127 time=0.04791666666666666\n",
      "note_on channel=0 note=61 velocity=127 time=0.009375\n",
      "note_on channel=0 note=60 velocity=127 time=0.009375\n",
      "note_off channel=0 note=62 velocity=127 time=0.0010416666666666667\n",
      "note_off channel=0 note=61 velocity=127 time=0.009375\n",
      "note_off channel=0 note=60 velocity=127 time=0.009375\n",
      "note_on channel=0 note=62 velocity=127 time=0.029166666666666667\n",
      "note_off channel=0 note=62 velocity=127 time=0.019791666666666666\n",
      "note_on channel=0 note=62 velocity=127 time=0.04791666666666666\n",
      "note_off channel=0 note=62 velocity=127 time=0.019791666666666666\n",
      "note_on channel=0 note=60 velocity=127 time=0.03854166666666667\n",
      "note_on channel=0 note=62 velocity=127 time=0.008333333333333333\n",
      "note_off channel=0 note=60 velocity=127 time=0.011458333333333333\n",
      "note_off channel=0 note=62 velocity=127 time=0.008333333333333333\n",
      "note_on channel=0 note=62 velocity=127 time=0.04791666666666666\n",
      "note_on channel=0 note=61 velocity=127 time=0.019791666666666666\n",
      "note_off channel=0 note=62 velocity=127 time=0\n",
      "note_off channel=0 note=61 velocity=127 time=0.019791666666666666\n",
      "\u001b[91m [DEBUG] > \u001b[0m\n",
      " |>  to_array: msg.time > max_t; t, n\n",
      " |>  2.9906250000000005\n",
      " |>  150\n",
      "note_on channel=0 note=60 velocity=127 time=0.0020833333333333333\n",
      "note_off channel=0 note=60 velocity=127 time=0.019791666666666666\n",
      "note_on channel=0 note=62 velocity=127 time=0.0010416666666666667\n",
      "note_off channel=0 note=62 velocity=127 time=0.019791666666666666\n",
      "note_on channel=0 note=60 velocity=127 time=0.042708333333333334\n",
      "note_on channel=0 note=62 velocity=127 time=0.0125\n",
      "note_off channel=0 note=60 velocity=127 time=0.008333333333333333\n",
      "note_on channel=0 note=61 velocity=127 time=0.009375\n",
      "note_off channel=0 note=62 velocity=127 time=0.003125\n",
      "note_off channel=0 note=61 velocity=127 time=0.016666666666666666\n",
      "note_on channel=0 note=60 velocity=127 time=0.034375\n",
      "note_on channel=0 note=62 velocity=127 time=0.004166666666666667\n",
      "note_off channel=0 note=60 velocity=127 time=0.016666666666666666\n",
      "note_off channel=0 note=62 velocity=127 time=0.004166666666666667\n",
      "note_on channel=0 note=62 velocity=127 time=0.05520833333333333\n",
      "note_on channel=0 note=60 velocity=127 time=0.005208333333333333\n",
      "note_off channel=0 note=62 velocity=127 time=0.015625\n",
      "note_off channel=0 note=60 velocity=127 time=0.005208333333333333\n",
      "note_on channel=0 note=61 velocity=127 time=0.04791666666666666\n",
      "note_on channel=0 note=62 velocity=127 time=0.0020833333333333333\n",
      "note_on channel=0 note=60 velocity=127 time=0.013541666666666667\n",
      "note_off channel=0 note=61 velocity=127 time=0.004166666666666667\n",
      "note_off channel=0 note=62 velocity=127 time=0.0020833333333333333\n",
      "note_off channel=0 note=60 velocity=127 time=0.013541666666666667\n",
      "note_on channel=0 note=62 velocity=127 time=0.041666666666666664\n",
      "note_off channel=0 note=62 velocity=127 time=0.019791666666666666\n",
      "note_on channel=0 note=60 velocity=127 time=0.0020833333333333333\n",
      "note_off channel=0 note=60 velocity=127 time=0.019791666666666666\n",
      "note_on channel=0 note=62 velocity=127 time=0.03333333333333333\n",
      "note_off channel=0 note=62 velocity=127 time=0.019791666666666666\n",
      "note_on channel=0 note=60 velocity=127 time=0.010416666666666666\n",
      "note_off channel=0 note=60 velocity=127 time=0.019791666666666666\n",
      "note_on channel=0 note=61 velocity=127 time=0.003125\n",
      "note_off channel=0 note=61 velocity=127 time=0.019791666666666666\n",
      "note_on channel=0 note=62 velocity=127 time=0.0010416666666666667\n",
      "note_off channel=0 note=62 velocity=127 time=0.019791666666666666\n",
      "note_on channel=0 note=60 velocity=127 time=0.01875\n",
      "note_off channel=0 note=60 velocity=127 time=0.019791666666666666\n",
      "note_on channel=0 note=62 velocity=127 time=0.016666666666666666\n",
      "note_off channel=0 note=62 velocity=127 time=0.019791666666666666\n",
      "note_on channel=0 note=60 velocity=127 time=0.027083333333333334\n",
      "note_off channel=0 note=60 velocity=127 time=0.019791666666666666\n",
      "note_on channel=0 note=62 velocity=127 time=0.008333333333333333\n",
      "note_off channel=0 note=62 velocity=127 time=0.019791666666666666\n",
      "note_on channel=0 note=61 velocity=127 time=0.014583333333333334\n",
      "note_off channel=0 note=61 velocity=127 time=0.019791666666666666\n",
      "note_on channel=0 note=60 velocity=127 time=0.0010416666666666667\n",
      "note_on channel=0 note=62 velocity=127 time=0.019791666666666666\n",
      "note_off channel=0 note=60 velocity=127 time=0\n",
      "note_off channel=0 note=62 velocity=127 time=0.019791666666666666\n",
      "note_on channel=0 note=60 velocity=127 time=0.04375\n",
      "note_on channel=0 note=62 velocity=127 time=0.011458333333333333\n",
      "note_off channel=0 note=60 velocity=127 time=0.008333333333333333\n",
      "note_off channel=0 note=62 velocity=127 time=0.011458333333333333\n",
      "note_on channel=0 note=60 velocity=127 time=0.052083333333333336\n",
      "note_on channel=0 note=62 velocity=127 time=0.003125\n",
      "note_on channel=0 note=61 velocity=127 time=0.014583333333333334\n",
      "note_off channel=0 note=60 velocity=127 time=0.0020833333333333333\n",
      "note_off channel=0 note=62 velocity=127 time=0.003125\n",
      "note_off channel=0 note=61 velocity=127 time=0.014583333333333334\n",
      "note_on channel=0 note=62 velocity=127 time=0.03958333333333333\n",
      "note_on channel=0 note=60 velocity=127 time=0.005208333333333333\n",
      "note_off channel=0 note=62 velocity=127 time=0.014583333333333334\n",
      "note_off channel=0 note=60 velocity=127 time=0.005208333333333333\n",
      "note_on channel=0 note=62 velocity=127 time=0.04895833333333333\n",
      "note_on channel=0 note=60 velocity=127 time=0.014583333333333334\n",
      "note_off channel=0 note=62 velocity=127 time=0.00625\n",
      "note_off channel=0 note=60 velocity=127 time=0.014583333333333334\n",
      "note_on channel=0 note=61 velocity=127 time=0.036458333333333336\n",
      "note_on channel=0 note=62 velocity=127 time=0.004166666666666667\n",
      "note_off channel=0 note=61 velocity=127 time=0.015625\n",
      "note_off channel=0 note=62 velocity=127 time=0.004166666666666667\n",
      "note_on channel=0 note=60 velocity=127 time=0.0020833333333333333\n",
      "note_off channel=0 note=60 velocity=127 time=0.019791666666666666\n",
      "note_on channel=0 note=62 velocity=127 time=0.03229166666666666\n",
      "note_off channel=0 note=62 velocity=127 time=0.019791666666666666\n",
      "note_on channel=0 note=60 velocity=127 time=0.011458333333333333\n",
      "note_off channel=0 note=60 velocity=127 time=0.019791666666666666\n",
      "note_on channel=0 note=62 velocity=127 time=0.02395833333333333\n",
      "note_off channel=0 note=62 velocity=127 time=0.019791666666666666\n",
      "note_on channel=0 note=60 velocity=127 time=0.019791666666666666\n",
      "note_on channel=0 note=61 velocity=127 time=0.0125\n",
      "note_off channel=0 note=60 velocity=127 time=0.007291666666666667\n",
      "note_off channel=0 note=61 velocity=127 time=0.0125\n",
      "note_on channel=0 note=62 velocity=127 time=0.003125\n",
      "note_off channel=0 note=62 velocity=127 time=0.019791666666666666\n",
      "note_on channel=0 note=60 velocity=127 time=0.028125\n",
      "note_off channel=0 note=60 velocity=127 time=0.019791666666666666\n",
      "note_on channel=0 note=62 velocity=127 time=0.007291666666666667\n",
      "note_off channel=0 note=62 velocity=127 time=0.019791666666666666\n",
      "note_on channel=0 note=60 velocity=127 time=0.036458333333333336\n",
      "note_on channel=0 note=62 velocity=127 time=0.01875\n",
      "note_off channel=0 note=60 velocity=127 time=0.0010416666666666667\n",
      "note_off channel=0 note=62 velocity=127 time=0.01875\n",
      "note_on channel=0 note=61 velocity=127 time=0.0125\n",
      "note_off channel=0 note=61 velocity=127 time=0.019791666666666666\n",
      "note_on channel=0 note=60 velocity=127 time=0.0125\n",
      "note_on channel=0 note=62 velocity=127 time=0.010416666666666666\n",
      "note_off channel=0 note=60 velocity=127 time=0.009375\n",
      "note_off channel=0 note=62 velocity=127 time=0.010416666666666666\n",
      "note_on channel=0 note=60 velocity=127 time=0.053125\n",
      "note_on channel=0 note=62 velocity=127 time=0.0020833333333333333\n",
      "note_off channel=0 note=60 velocity=127 time=0.01875\n",
      "note_off channel=0 note=62 velocity=127 time=0.0020833333333333333\n",
      "note_on channel=0 note=62 velocity=127 time=0.05520833333333333\n",
      "note_on channel=0 note=60 velocity=127 time=0.00625\n",
      "note_on channel=0 note=61 velocity=127 time=0.00625\n",
      "note_off channel=0 note=62 velocity=127 time=0.00625\n",
      "note_off channel=0 note=60 velocity=127 time=0.00625\n",
      "note_off channel=0 note=61 velocity=127 time=0.00625\n",
      "note_on channel=0 note=62 velocity=127 time=0.041666666666666664\n",
      "note_on channel=0 note=60 velocity=127 time=0.015625\n",
      "note_off channel=0 note=62 velocity=127 time=0.005208333333333333\n",
      "note_off channel=0 note=60 velocity=127 time=0.015625\n",
      "note_on channel=0 note=62 velocity=127 time=0.03958333333333333\n",
      "note_off channel=0 note=62 velocity=127 time=0.019791666666666666\n",
      "note_on channel=0 note=60 velocity=127 time=0.003125\n",
      "note_off channel=0 note=60 velocity=127 time=0.019791666666666666\n",
      "note_on channel=0 note=61 velocity=127 time=0.025\n",
      "note_on channel=0 note=62 velocity=127 time=0.00625\n",
      "note_off channel=0 note=61 velocity=127 time=0.014583333333333334\n",
      "note_off channel=0 note=62 velocity=127 time=0.00625\n",
      "note_on channel=0 note=60 velocity=127 time=0.0125\n",
      "note_off channel=0 note=60 velocity=127 time=0.019791666666666666\n",
      "note_on channel=0 note=62 velocity=127 time=0.022916666666666665\n",
      "note_off channel=0 note=62 velocity=127 time=0.019791666666666666\n",
      "note_on channel=0 note=60 velocity=127 time=0.020833333333333332\n",
      "note_off channel=0 note=60 velocity=127 time=0.019791666666666666\n",
      "note_on channel=0 note=62 velocity=127 time=0.014583333333333334\n",
      "note_off channel=0 note=62 velocity=127 time=0.019791666666666666\n",
      "note_on channel=0 note=60 velocity=127 time=0.029166666666666667\n",
      "note_on channel=0 note=61 velocity=127 time=0.0010416666666666667\n",
      "note_off channel=0 note=60 velocity=127 time=0.01875\n",
      "note_off channel=0 note=61 velocity=127 time=0.0010416666666666667\n",
      "note_on channel=0 note=62 velocity=127 time=0.005208333333333333\n",
      "note_off channel=0 note=62 velocity=127 time=0.019791666666666666\n",
      "note_on channel=0 note=60 velocity=127 time=0.0375\n",
      "note_on channel=0 note=62 velocity=127 time=0.017708333333333333\n",
      "note_off channel=0 note=60 velocity=127 time=0.0020833333333333333\n",
      "note_off channel=0 note=62 velocity=127 time=0.017708333333333333\n",
      "note_on channel=0 note=60 velocity=127 time=0.04583333333333333\n",
      "note_on channel=0 note=62 velocity=127 time=0.009375\n",
      "note_off channel=0 note=60 velocity=127 time=0.010416666666666666\n",
      "note_off channel=0 note=62 velocity=127 time=0.009375\n",
      "note_on channel=0 note=61 velocity=127 time=0.010416666666666666\n",
      "note_off channel=0 note=61 velocity=127 time=0.019791666666666666\n",
      "note_on channel=0 note=60 velocity=127 time=0.02395833333333333\n",
      "note_on channel=0 note=62 velocity=127 time=0.0010416666666666667\n",
      "note_off channel=0 note=60 velocity=127 time=0.019791666666666666\n",
      "note_off channel=0 note=62 velocity=127 time=0.0010416666666666667\n",
      "note_on channel=0 note=62 velocity=127 time=0.05520833333333333\n",
      "note_on channel=0 note=60 velocity=127 time=0.007291666666666667\n",
      "note_off channel=0 note=62 velocity=127 time=0.0125\n",
      "note_off channel=0 note=60 velocity=127 time=0.007291666666666667\n",
      "note_on channel=0 note=62 velocity=127 time=0.046875\n",
      "note_on channel=0 note=61 velocity=127 time=0.011458333333333333\n",
      "note_on channel=0 note=60 velocity=127 time=0.004166666666666667\n",
      "note_off channel=0 note=62 velocity=127 time=0.004166666666666667\n",
      "note_off channel=0 note=61 velocity=127 time=0.011458333333333333\n",
      "note_off channel=0 note=60 velocity=127 time=0.004166666666666667\n",
      "note_on channel=0 note=62 velocity=127 time=0.03854166666666667\n",
      "note_off channel=0 note=62 velocity=127 time=0.019791666666666666\n",
      "note_on channel=0 note=60 velocity=127 time=0.004166666666666667\n",
      "note_off channel=0 note=60 velocity=127 time=0.019791666666666666\n",
      "note_on channel=0 note=62 velocity=127 time=0.030208333333333334\n",
      "note_off channel=0 note=62 velocity=127 time=0.019791666666666666\n",
      "note_on channel=0 note=60 velocity=127 time=0.013541666666666667\n",
      "note_off channel=0 note=60 velocity=127 time=0.019791666666666666\n",
      "note_on channel=0 note=61 velocity=127 time=0.014583333333333334\n",
      "note_on channel=0 note=62 velocity=127 time=0.007291666666666667\n",
      "note_off channel=0 note=61 velocity=127 time=0.0125\n",
      "note_off channel=0 note=62 velocity=127 time=0.007291666666666667\n",
      "note_on channel=0 note=60 velocity=127 time=0.021875\n",
      "note_off channel=0 note=60 velocity=127 time=0.019791666666666666\n",
      "note_on channel=0 note=62 velocity=127 time=0.013541666666666667\n",
      "note_off channel=0 note=62 velocity=127 time=0.019791666666666666\n",
      "note_on channel=0 note=60 velocity=127 time=0.030208333333333334\n",
      "note_off channel=0 note=60 velocity=127 time=0.019791666666666666\n",
      "note_on channel=0 note=62 velocity=127 time=0.005208333333333333\n",
      "note_off channel=0 note=62 velocity=127 time=0.019791666666666666\n",
      "note_on channel=0 note=61 velocity=127 time=0.028125\n",
      "\u001b[91m [DEBUG] > \u001b[0m\n",
      " |>  to_array: msg.time > max_t; t, n\n",
      " |>  2.993750000000005\n",
      " |>  150\n",
      "note_on channel=0 note=61 velocity=127 time=0.03125\n",
      "note_off channel=0 note=61 velocity=127 time=0.019791666666666666\n",
      "note_on channel=0 note=62 velocity=127 time=0.0375\n",
      "note_off channel=0 note=62 velocity=127 time=0.019791666666666666\n",
      "note_on channel=0 note=61 velocity=127 time=0.057291666666666664\n",
      "note_on channel=0 note=60 velocity=127 time=0.005208333333333333\n",
      "note_off channel=0 note=61 velocity=127 time=0.014583333333333334\n",
      "note_on channel=0 note=62 velocity=127 time=0.0010416666666666667\n",
      "note_off channel=0 note=60 velocity=127 time=0.004166666666666667\n",
      "note_off channel=0 note=62 velocity=127 time=0.015625\n",
      "note_on channel=0 note=62 velocity=127 time=0.07916666666666666\n",
      "note_on channel=0 note=61 velocity=127 time=0.014583333333333334\n",
      "note_off channel=0 note=62 velocity=127 time=0.00625\n",
      "note_off channel=0 note=61 velocity=127 time=0.014583333333333334\n",
      "note_on channel=0 note=60 velocity=127 time=0.05625\n",
      "note_on channel=0 note=62 velocity=127 time=0.008333333333333333\n",
      "note_off channel=0 note=60 velocity=127 time=0.011458333333333333\n",
      "note_off channel=0 note=62 velocity=127 time=0.008333333333333333\n",
      "note_on channel=0 note=61 velocity=127 time=0.030208333333333334\n",
      "note_off channel=0 note=61 velocity=127 time=0.019791666666666666\n",
      "note_on channel=0 note=62 velocity=127 time=0.029166666666666667\n",
      "note_off channel=0 note=62 velocity=127 time=0.019791666666666666\n",
      "note_on channel=0 note=61 velocity=127 time=0.065625\n",
      "note_on channel=0 note=60 velocity=127 time=0.013541666666666667\n",
      "note_on channel=0 note=62 velocity=127 time=0\n",
      "note_off channel=0 note=61 velocity=127 time=0.00625\n",
      "note_off channel=0 note=60 velocity=127 time=0.013541666666666667\n",
      "note_off channel=0 note=62 velocity=127 time=0\n",
      "note_on channel=0 note=62 velocity=127 time=0.07916666666666666\n",
      "note_off channel=0 note=62 velocity=127 time=0.019791666666666666\n",
      "note_on channel=0 note=61 velocity=127 time=0.0020833333333333333\n",
      "note_off channel=0 note=61 velocity=127 time=0.019791666666666666\n",
      "note_on channel=0 note=62 velocity=127 time=0.057291666666666664\n",
      "note_on channel=0 note=60 velocity=127 time=0.007291666666666667\n",
      "note_off channel=0 note=62 velocity=127 time=0.0125\n",
      "note_off channel=0 note=60 velocity=127 time=0.007291666666666667\n",
      "note_on channel=0 note=61 velocity=127 time=0.030208333333333334\n",
      "note_off channel=0 note=61 velocity=127 time=0.019791666666666666\n",
      "note_on channel=0 note=62 velocity=127 time=0.021875\n",
      "note_off channel=0 note=62 velocity=127 time=0.019791666666666666\n",
      "note_on channel=0 note=61 velocity=127 time=0.07291666666666667\n",
      "note_on channel=0 note=62 velocity=127 time=0.00625\n",
      "note_off channel=0 note=61 velocity=127 time=0.013541666666666667\n",
      "note_on channel=0 note=60 velocity=127 time=0.0010416666666666667\n",
      "note_off channel=0 note=62 velocity=127 time=0.004166666666666667\n",
      "note_off channel=0 note=60 velocity=127 time=0.015625\n",
      "note_on channel=0 note=62 velocity=127 time=0.06354166666666666\n",
      "note_off channel=0 note=62 velocity=127 time=0.019791666666666666\n",
      "note_on channel=0 note=61 velocity=127 time=0.009375\n",
      "note_off channel=0 note=61 velocity=127 time=0.019791666666666666\n",
      "note_on channel=0 note=62 velocity=127 time=0.05\n",
      "note_off channel=0 note=62 velocity=127 time=0.019791666666666666\n",
      "note_on channel=0 note=60 velocity=127 time=0.003125\n",
      "note_off channel=0 note=60 velocity=127 time=0.019791666666666666\n",
      "note_on channel=0 note=61 velocity=127 time=0.021875\n",
      "note_off channel=0 note=61 velocity=127 time=0.019791666666666666\n",
      "note_on channel=0 note=62 velocity=127 time=0.013541666666666667\n",
      "note_off channel=0 note=62 velocity=127 time=0.019791666666666666\n",
      "note_on channel=0 note=62 velocity=127 time=0.07916666666666666\n",
      "note_on channel=0 note=61 velocity=127 time=0.0010416666666666667\n",
      "note_off channel=0 note=62 velocity=127 time=0.01875\n",
      "note_off channel=0 note=61 velocity=127 time=0.0010416666666666667\n",
      "note_on channel=0 note=60 velocity=127 time=0.009375\n",
      "note_off channel=0 note=60 velocity=127 time=0.019791666666666666\n",
      "note_on channel=0 note=62 velocity=127 time=0.04791666666666666\n",
      "note_off channel=0 note=62 velocity=127 time=0.019791666666666666\n",
      "note_on channel=0 note=61 velocity=127 time=0.016666666666666666\n",
      "note_off channel=0 note=61 velocity=127 time=0.019791666666666666\n",
      "note_on channel=0 note=62 velocity=127 time=0.041666666666666664\n",
      "note_off channel=0 note=62 velocity=127 time=0.019791666666666666\n",
      "note_on channel=0 note=60 velocity=127 time=0.01875\n",
      "note_off channel=0 note=60 velocity=127 time=0.019791666666666666\n",
      "note_on channel=0 note=61 velocity=127 time=0.013541666666666667\n",
      "note_off channel=0 note=61 velocity=127 time=0.019791666666666666\n",
      "note_on channel=0 note=62 velocity=127 time=0.00625\n",
      "note_off channel=0 note=62 velocity=127 time=0.019791666666666666\n",
      "note_on channel=0 note=62 velocity=127 time=0.07916666666666666\n",
      "note_on channel=0 note=61 velocity=127 time=0.009375\n",
      "note_off channel=0 note=62 velocity=127 time=0.010416666666666666\n",
      "note_off channel=0 note=61 velocity=127 time=0.009375\n",
      "note_on channel=0 note=60 velocity=127 time=0.017708333333333333\n",
      "note_off channel=0 note=60 velocity=127 time=0.019791666666666666\n",
      "note_on channel=0 note=62 velocity=127 time=0.03229166666666666\n",
      "note_off channel=0 note=62 velocity=127 time=0.019791666666666666\n",
      "note_on channel=0 note=61 velocity=127 time=0.025\n",
      "note_off channel=0 note=61 velocity=127 time=0.019791666666666666\n",
      "note_on channel=0 note=62 velocity=127 time=0.034375\n",
      "note_off channel=0 note=62 velocity=127 time=0.019791666666666666\n",
      "note_on channel=0 note=60 velocity=127 time=0.034375\n",
      "note_off channel=0 note=60 velocity=127 time=0.019791666666666666\n",
      "note_on channel=0 note=61 velocity=127 time=0.005208333333333333\n",
      "note_on channel=0 note=62 velocity=127 time=0.01875\n",
      "note_off channel=0 note=61 velocity=127 time=0.0010416666666666667\n",
      "note_off channel=0 note=62 velocity=127 time=0.01875\n",
      "note_on channel=0 note=62 velocity=127 time=0.07916666666666666\n",
      "note_on channel=0 note=61 velocity=127 time=0.016666666666666666\n",
      "note_off channel=0 note=62 velocity=127 time=0.003125\n",
      "note_off channel=0 note=61 velocity=127 time=0.016666666666666666\n",
      "note_on channel=0 note=60 velocity=127 time=0.026041666666666668\n",
      "note_off channel=0 note=60 velocity=127 time=0.019791666666666666\n",
      "note_on channel=0 note=62 velocity=127 time=0.016666666666666666\n",
      "note_off channel=0 note=62 velocity=127 time=0.019791666666666666\n",
      "note_on channel=0 note=61 velocity=127 time=0.03229166666666666\n",
      "note_off channel=0 note=61 velocity=127 time=0.019791666666666666\n",
      "note_on channel=0 note=62 velocity=127 time=0.027083333333333334\n",
      "note_off channel=0 note=62 velocity=127 time=0.019791666666666666\n",
      "note_on channel=0 note=60 velocity=127 time=0.05\n",
      "note_on channel=0 note=61 velocity=127 time=0.017708333333333333\n",
      "note_off channel=0 note=60 velocity=127 time=0.0020833333333333333\n",
      "note_on channel=0 note=62 velocity=127 time=0.008333333333333333\n",
      "note_off channel=0 note=61 velocity=127 time=0.009375\n",
      "note_off channel=0 note=62 velocity=127 time=0.011458333333333333\n",
      "note_on channel=0 note=62 velocity=127 time=0.07916666666666666\n",
      "note_off channel=0 note=62 velocity=127 time=0.019791666666666666\n",
      "note_on channel=0 note=61 velocity=127 time=0.004166666666666667\n",
      "note_off channel=0 note=61 velocity=127 time=0.019791666666666666\n",
      "note_on channel=0 note=60 velocity=127 time=0.03333333333333333\n",
      "note_off channel=0 note=60 velocity=127 time=0.019791666666666666\n",
      "note_on channel=0 note=62 velocity=127 time=0.0010416666666666667\n",
      "note_off channel=0 note=62 velocity=127 time=0.019791666666666666\n",
      "note_on channel=0 note=61 velocity=127 time=0.040625\n",
      "note_off channel=0 note=61 velocity=127 time=0.019791666666666666\n",
      "note_on channel=0 note=62 velocity=127 time=0.01875\n",
      "note_off channel=0 note=62 velocity=127 time=0.019791666666666666\n",
      "note_on channel=0 note=60 velocity=127 time=0.06666666666666667\n",
      "note_on channel=0 note=61 velocity=127 time=0.009375\n",
      "note_on channel=0 note=62 velocity=127 time=0.003125\n",
      "note_off channel=0 note=60 velocity=127 time=0.007291666666666667\n",
      "note_off channel=0 note=61 velocity=127 time=0.009375\n",
      "note_off channel=0 note=62 velocity=127 time=0.003125\n",
      "note_on channel=0 note=62 velocity=127 time=0.07916666666666666\n",
      "note_off channel=0 note=62 velocity=127 time=0.019791666666666666\n",
      "note_on channel=0 note=61 velocity=127 time=0.0125\n",
      "note_off channel=0 note=61 velocity=127 time=0.019791666666666666\n",
      "\u001b[91m [DEBUG] > \u001b[0m\n",
      " |>  to_array: msg.time > max_t; t, n\n",
      " |>  3.0031249999999994\n",
      " |>  150\n",
      "note_on channel=0 note=62 velocity=127 time=0.025\n",
      "note_on channel=0 note=60 velocity=127 time=0.005208333333333333\n",
      "note_off channel=0 note=62 velocity=127 time=0.014583333333333334\n"
     ]
    },
    {
     "name": "stdout",
     "output_type": "stream",
     "text": [
      "note_off channel=0 note=60 velocity=127 time=0.005208333333333333\n",
      "note_on channel=0 note=61 velocity=127 time=0.007291666666666667\n",
      "note_off channel=0 note=61 velocity=127 time=0.019791666666666666\n",
      "note_on channel=0 note=60 velocity=127 time=0.021875\n",
      "note_off channel=0 note=60 velocity=127 time=0.019791666666666666\n",
      "note_on channel=0 note=60 velocity=127 time=0.04895833333333333\n",
      "note_off channel=0 note=60 velocity=127 time=0.019791666666666666\n",
      "note_on channel=0 note=61 velocity=127 time=0.003125\n",
      "note_on channel=0 note=62 velocity=127 time=0.007291666666666667\n",
      "note_off channel=0 note=61 velocity=127 time=0.0125\n",
      "note_off channel=0 note=62 velocity=127 time=0.007291666666666667\n",
      "note_on channel=0 note=60 velocity=127 time=0.017708333333333333\n",
      "note_off channel=0 note=60 velocity=127 time=0.019791666666666666\n",
      "note_on channel=0 note=60 velocity=127 time=0.04895833333333333\n",
      "note_on channel=0 note=61 velocity=127 time=0.01875\n",
      "note_off channel=0 note=60 velocity=127 time=0.0010416666666666667\n",
      "note_off channel=0 note=61 velocity=127 time=0.01875\n",
      "note_on channel=0 note=62 velocity=127 time=0.028125\n",
      "note_on channel=0 note=60 velocity=127 time=0.0020833333333333333\n",
      "note_off channel=0 note=62 velocity=127 time=0.017708333333333333\n",
      "note_off channel=0 note=60 velocity=127 time=0.0020833333333333333\n",
      "note_on channel=0 note=60 velocity=127 time=0.04895833333333333\n",
      "note_on channel=0 note=61 velocity=127 time=0.014583333333333334\n",
      "note_off channel=0 note=60 velocity=127 time=0.005208333333333333\n",
      "note_off channel=0 note=61 velocity=127 time=0.014583333333333334\n",
      "note_on channel=0 note=60 velocity=127 time=0.034375\n",
      "note_off channel=0 note=60 velocity=127 time=0.019791666666666666\n",
      "note_on channel=0 note=62 velocity=127 time=0.014583333333333334\n",
      "note_off channel=0 note=62 velocity=127 time=0.019791666666666666\n",
      "note_on channel=0 note=60 velocity=127 time=0.014583333333333334\n",
      "note_on channel=0 note=61 velocity=127 time=0.010416666666666666\n",
      "note_off channel=0 note=60 velocity=127 time=0.009375\n",
      "note_off channel=0 note=61 velocity=127 time=0.010416666666666666\n",
      "note_on channel=0 note=60 velocity=127 time=0.03854166666666667\n",
      "note_off channel=0 note=60 velocity=127 time=0.019791666666666666\n",
      "note_on channel=0 note=60 velocity=127 time=0.04895833333333333\n",
      "note_on channel=0 note=62 velocity=127 time=0.0010416666666666667\n",
      "note_on channel=0 note=61 velocity=127 time=0.005208333333333333\n",
      "note_off channel=0 note=60 velocity=127 time=0.013541666666666667\n",
      "note_off channel=0 note=62 velocity=127 time=0.0010416666666666667\n",
      "note_off channel=0 note=61 velocity=127 time=0.005208333333333333\n",
      "note_on channel=0 note=60 velocity=127 time=0.042708333333333334\n",
      "note_off channel=0 note=60 velocity=127 time=0.019791666666666666\n",
      "note_on channel=0 note=60 velocity=127 time=0.04895833333333333\n",
      "note_on channel=0 note=61 velocity=127 time=0.003125\n",
      "note_off channel=0 note=60 velocity=127 time=0.017708333333333333\n",
      "note_off channel=0 note=61 velocity=127 time=0.003125\n",
      "note_on channel=0 note=62 velocity=127 time=0.014583333333333334\n",
      "note_off channel=0 note=62 velocity=127 time=0.019791666666666666\n",
      "note_on channel=0 note=60 velocity=127 time=0.011458333333333333\n",
      "note_off channel=0 note=60 velocity=127 time=0.019791666666666666\n",
      "note_on channel=0 note=61 velocity=127 time=0.04791666666666666\n",
      "note_on channel=0 note=60 velocity=127 time=0.0010416666666666667\n",
      "note_off channel=0 note=61 velocity=127 time=0.01875\n",
      "note_off channel=0 note=60 velocity=127 time=0.0010416666666666667\n",
      "note_on channel=0 note=60 velocity=127 time=0.04895833333333333\n",
      "note_on channel=0 note=62 velocity=127 time=0.005208333333333333\n",
      "note_off channel=0 note=60 velocity=127 time=0.015625\n",
      "note_off channel=0 note=62 velocity=127 time=0.005208333333333333\n",
      "note_on channel=0 note=61 velocity=127 time=0.03854166666666667\n",
      "note_on channel=0 note=60 velocity=127 time=0.005208333333333333\n",
      "note_off channel=0 note=61 velocity=127 time=0.014583333333333334\n",
      "note_off channel=0 note=60 velocity=127 time=0.005208333333333333\n",
      "note_on channel=0 note=60 velocity=127 time=0.04895833333333333\n",
      "note_off channel=0 note=60 velocity=127 time=0.019791666666666666\n",
      "note_on channel=0 note=62 velocity=127 time=0.020833333333333332\n",
      "note_on channel=0 note=61 velocity=127 time=0.01875\n",
      "note_off channel=0 note=62 velocity=127 time=0.0010416666666666667\n",
      "note_on channel=0 note=60 velocity=127 time=0.008333333333333333\n",
      "note_off channel=0 note=61 velocity=127 time=0.010416666666666666\n",
      "note_off channel=0 note=60 velocity=127 time=0.009375\n",
      "note_on channel=0 note=60 velocity=127 time=0.04895833333333333\n",
      "note_off channel=0 note=60 velocity=127 time=0.019791666666666666\n",
      "note_on channel=0 note=61 velocity=127 time=0.035416666666666666\n",
      "note_on channel=0 note=60 velocity=127 time=0.013541666666666667\n",
      "note_off channel=0 note=61 velocity=127 time=0.00625\n",
      "note_on channel=0 note=62 velocity=127 time=0.0020833333333333333\n",
      "note_off channel=0 note=60 velocity=127 time=0.011458333333333333\n",
      "note_off channel=0 note=62 velocity=127 time=0.008333333333333333\n",
      "note_on channel=0 note=60 velocity=127 time=0.040625\n",
      "note_off channel=0 note=60 velocity=127 time=0.019791666666666666\n",
      "note_on channel=0 note=61 velocity=127 time=0.03125\n",
      "note_on channel=0 note=60 velocity=127 time=0.017708333333333333\n",
      "note_off channel=0 note=61 velocity=127 time=0.0020833333333333333\n",
      "note_off channel=0 note=60 velocity=127 time=0.017708333333333333\n",
      "note_on channel=0 note=62 velocity=127 time=0.02395833333333333\n",
      "note_off channel=0 note=62 velocity=127 time=0.019791666666666666\n",
      "note_on channel=0 note=60 velocity=127 time=0.005208333333333333\n",
      "note_off channel=0 note=60 velocity=127 time=0.019791666666666666\n",
      "note_on channel=0 note=61 velocity=127 time=0.027083333333333334\n",
      "note_off channel=0 note=61 velocity=127 time=0.019791666666666666\n",
      "note_on channel=0 note=60 velocity=127 time=0.0020833333333333333\n",
      "note_off channel=0 note=60 velocity=127 time=0.019791666666666666\n",
      "note_on channel=0 note=60 velocity=127 time=0.04895833333333333\n",
      "note_on channel=0 note=62 velocity=127 time=0.011458333333333333\n",
      "note_off channel=0 note=60 velocity=127 time=0.008333333333333333\n",
      "note_off channel=0 note=62 velocity=127 time=0.011458333333333333\n",
      "note_on channel=0 note=61 velocity=127 time=0.011458333333333333\n",
      "note_off channel=0 note=61 velocity=127 time=0.019791666666666666\n",
      "note_on channel=0 note=60 velocity=127 time=0.00625\n",
      "note_off channel=0 note=60 velocity=127 time=0.019791666666666666\n",
      "note_on channel=0 note=60 velocity=127 time=0.04895833333333333\n",
      "note_off channel=0 note=60 velocity=127 time=0.019791666666666666\n",
      "note_on channel=0 note=61 velocity=127 time=0.01875\n",
      "note_on channel=0 note=62 velocity=127 time=0.008333333333333333\n",
      "note_off channel=0 note=61 velocity=127 time=0.011458333333333333\n",
      "note_off channel=0 note=62 velocity=127 time=0.008333333333333333\n",
      "note_on channel=0 note=60 velocity=127 time=0.0010416666666666667\n",
      "note_off channel=0 note=60 velocity=127 time=0.019791666666666666\n",
      "note_on channel=0 note=60 velocity=127 time=0.04895833333333333\n",
      "note_off channel=0 note=60 velocity=127 time=0.019791666666666666\n",
      "note_on channel=0 note=61 velocity=127 time=0.014583333333333334\n",
      "note_off channel=0 note=61 velocity=127 time=0.019791666666666666\n",
      "note_on channel=0 note=60 velocity=127 time=0.014583333333333334\n",
      "note_on channel=0 note=62 velocity=127 time=0.014583333333333334\n",
      "note_off channel=0 note=60 velocity=127 time=0.005208333333333333\n",
      "note_off channel=0 note=62 velocity=127 time=0.014583333333333334\n",
      "note_on channel=0 note=60 velocity=127 time=0.034375\n",
      "note_off channel=0 note=60 velocity=127 time=0.019791666666666666\n",
      "note_on channel=0 note=61 velocity=127 time=0.010416666666666666\n",
      "note_off channel=0 note=61 velocity=127 time=0.019791666666666666\n",
      "note_on channel=0 note=60 velocity=127 time=0.01875\n",
      "note_off channel=0 note=60 velocity=127 time=0.019791666666666666\n",
      "note_on channel=0 note=62 velocity=127 time=0.03125\n",
      "note_on channel=0 note=60 velocity=127 time=0.017708333333333333\n",
      "note_off channel=0 note=62 velocity=127 time=0.0020833333333333333\n",
      "note_off channel=0 note=60 velocity=127 time=0.017708333333333333\n",
      "note_on channel=0 note=61 velocity=127 time=0.00625\n",
      "note_off channel=0 note=61 velocity=127 time=0.019791666666666666\n",
      "note_on channel=0 note=60 velocity=127 time=0.021875\n",
      "note_off channel=0 note=60 velocity=127 time=0.019791666666666666\n",
      "note_on channel=0 note=60 velocity=127 time=0.04895833333333333\n",
      "note_on channel=0 note=62 velocity=127 time=0.017708333333333333\n",
      "note_off channel=0 note=60 velocity=127 time=0.0020833333333333333\n",
      "note_on channel=0 note=61 velocity=127 time=0.003125\n",
      "note_off channel=0 note=62 velocity=127 time=0.015625\n",
      "note_off channel=0 note=61 velocity=127 time=0.004166666666666667\n",
      "note_on channel=0 note=60 velocity=127 time=0.026041666666666668\n",
      "note_off channel=0 note=60 velocity=127 time=0.019791666666666666\n",
      "note_on channel=0 note=60 velocity=127 time=0.04895833333333333\n",
      "note_on channel=0 note=61 velocity=127 time=0.01875\n",
      "note_off channel=0 note=60 velocity=127 time=0.0010416666666666667\n",
      "note_off channel=0 note=61 velocity=127 time=0.01875\n",
      "note_on channel=0 note=62 velocity=127 time=0.015625\n",
      "note_on channel=0 note=60 velocity=127 time=0.014583333333333334\n",
      "note_off channel=0 note=62 velocity=127 time=0.005208333333333333\n",
      "note_off channel=0 note=60 velocity=127 time=0.014583333333333334\n",
      "note_on channel=0 note=60 velocity=127 time=0.04895833333333333\n",
      "note_on channel=0 note=61 velocity=127 time=0.014583333333333334\n",
      "note_off channel=0 note=60 velocity=127 time=0.005208333333333333\n",
      "note_off channel=0 note=61 velocity=127 time=0.014583333333333334\n",
      "note_on channel=0 note=60 velocity=127 time=0.034375\n",
      "note_off channel=0 note=60 velocity=127 time=0.019791666666666666\n",
      "note_on channel=0 note=62 velocity=127 time=0.0010416666666666667\n",
      "note_off channel=0 note=62 velocity=127 time=0.019791666666666666\n",
      "note_on channel=0 note=60 velocity=127 time=0.028125\n",
      "note_on channel=0 note=61 velocity=127 time=0.010416666666666666\n",
      "note_off channel=0 note=60 velocity=127 time=0.009375\n",
      "note_off channel=0 note=61 velocity=127 time=0.010416666666666666\n",
      "note_on channel=0 note=60 velocity=127 time=0.03854166666666667\n",
      "note_off channel=0 note=60 velocity=127 time=0.019791666666666666\n",
      "note_on channel=0 note=62 velocity=127 time=0.0375\n",
      "note_on channel=0 note=60 velocity=127 time=0.011458333333333333\n",
      "note_on channel=0 note=61 velocity=127 time=0.00625\n",
      "\u001b[91m [DEBUG] > \u001b[0m\n",
      " |>  to_array: msg.time > max_t; t, n\n",
      " |>  2.991666666666668\n",
      " |>  150\n",
      "note_on channel=0 note=61 velocity=127 time=0.0010416666666666667\n",
      "note_off channel=0 note=61 velocity=127 time=0.019791666666666666\n",
      "note_on channel=0 note=62 velocity=127 time=0.041666666666666664\n",
      "note_off channel=0 note=62 velocity=127 time=0.019791666666666666\n",
      "note_on channel=0 note=61 velocity=127 time=0.015625\n",
      "note_off channel=0 note=61 velocity=127 time=0.019791666666666666\n",
      "note_on channel=0 note=62 velocity=127 time=0.019791666666666666\n",
      "note_on channel=0 note=60 velocity=127 time=0.011458333333333333\n",
      "note_off channel=0 note=62 velocity=127 time=0.009375\n",
      "note_off channel=0 note=60 velocity=127 time=0.011458333333333333\n",
      "note_on channel=0 note=61 velocity=127 time=0.027083333333333334\n",
      "note_on channel=0 note=62 velocity=127 time=0.017708333333333333\n",
      "note_off channel=0 note=61 velocity=127 time=0.0020833333333333333\n",
      "note_off channel=0 note=62 velocity=127 time=0.017708333333333333\n",
      "note_on channel=0 note=62 velocity=127 time=0.05520833333333333\n",
      "note_on channel=0 note=61 velocity=127 time=0.004166666666666667\n",
      "note_off channel=0 note=62 velocity=127 time=0.015625\n",
      "note_off channel=0 note=61 velocity=127 time=0.004166666666666667\n",
      "note_on channel=0 note=62 velocity=127 time=0.051041666666666666\n",
      "note_on channel=0 note=60 velocity=127 time=0.0125\n",
      "note_off channel=0 note=62 velocity=127 time=0.007291666666666667\n",
      "note_on channel=0 note=61 velocity=127 time=0.00625\n",
      "note_off channel=0 note=60 velocity=127 time=0.00625\n",
      "note_off channel=0 note=61 velocity=127 time=0.013541666666666667\n",
      "note_on channel=0 note=62 velocity=127 time=0.029166666666666667\n",
      "note_off channel=0 note=62 velocity=127 time=0.019791666666666666\n",
      "note_on channel=0 note=61 velocity=127 time=0.028125\n",
      "note_off channel=0 note=61 velocity=127 time=0.019791666666666666\n",
      "note_on channel=0 note=62 velocity=127 time=0.007291666666666667\n",
      "note_off channel=0 note=62 velocity=127 time=0.019791666666666666\n",
      "note_on channel=0 note=61 velocity=127 time=0.05\n",
      "note_on channel=0 note=62 velocity=127 time=0.005208333333333333\n",
      "note_on channel=0 note=60 velocity=127 time=0.013541666666666667\n",
      "note_off channel=0 note=61 velocity=127 time=0.0010416666666666667\n",
      "note_off channel=0 note=62 velocity=127 time=0.005208333333333333\n",
      "note_off channel=0 note=60 velocity=127 time=0.013541666666666667\n",
      "note_on channel=0 note=62 velocity=127 time=0.041666666666666664\n",
      "note_on channel=0 note=61 velocity=127 time=0.016666666666666666\n",
      "note_off channel=0 note=62 velocity=127 time=0.003125\n",
      "note_off channel=0 note=61 velocity=127 time=0.016666666666666666\n",
      "note_on channel=0 note=62 velocity=127 time=0.03854166666666667\n",
      "note_off channel=0 note=62 velocity=127 time=0.019791666666666666\n",
      "note_on channel=0 note=61 velocity=127 time=0.01875\n",
      "note_off channel=0 note=61 velocity=127 time=0.019791666666666666\n",
      "note_on channel=0 note=62 velocity=127 time=0.016666666666666666\n",
      "note_on channel=0 note=60 velocity=127 time=0.015625\n",
      "note_off channel=0 note=62 velocity=127 time=0.004166666666666667\n",
      "note_off channel=0 note=60 velocity=127 time=0.015625\n",
      "note_on channel=0 note=61 velocity=127 time=0.025\n",
      "note_on channel=0 note=62 velocity=127 time=0.014583333333333334\n",
      "note_off channel=0 note=61 velocity=127 time=0.005208333333333333\n",
      "note_off channel=0 note=62 velocity=127 time=0.014583333333333334\n",
      "note_on channel=0 note=62 velocity=127 time=0.05520833333333333\n",
      "note_on channel=0 note=61 velocity=127 time=0.007291666666666667\n",
      "note_off channel=0 note=62 velocity=127 time=0.0125\n",
      "note_off channel=0 note=61 velocity=127 time=0.007291666666666667\n",
      "note_on channel=0 note=62 velocity=127 time=0.04791666666666666\n",
      "note_on channel=0 note=60 velocity=127 time=0.016666666666666666\n",
      "note_off channel=0 note=62 velocity=127 time=0.003125\n",
      "note_on channel=0 note=61 velocity=127 time=0.009375\n",
      "note_off channel=0 note=60 velocity=127 time=0.007291666666666667\n",
      "note_off channel=0 note=61 velocity=127 time=0.0125\n",
      "note_on channel=0 note=62 velocity=127 time=0.026041666666666668\n",
      "note_off channel=0 note=62 velocity=127 time=0.019791666666666666\n",
      "note_on channel=0 note=61 velocity=127 time=0.03125\n",
      "note_off channel=0 note=61 velocity=127 time=0.019791666666666666\n",
      "note_on channel=0 note=62 velocity=127 time=0.004166666666666667\n",
      "note_off channel=0 note=62 velocity=127 time=0.019791666666666666\n",
      "note_on channel=0 note=61 velocity=127 time=0.053125\n",
      "note_on channel=0 note=62 velocity=127 time=0.0020833333333333333\n",
      "note_off channel=0 note=61 velocity=127 time=0.017708333333333333\n",
      "note_on channel=0 note=60 velocity=127 time=0\n",
      "note_off channel=0 note=62 velocity=127 time=0.0020833333333333333\n",
      "note_off channel=0 note=60 velocity=127 time=0.01875\n",
      "note_on channel=0 note=62 velocity=127 time=0.0375\n",
      "note_off channel=0 note=62 velocity=127 time=0.019791666666666666\n",
      "note_on channel=0 note=61 velocity=127 time=0\n",
      "note_off channel=0 note=61 velocity=127 time=0.019791666666666666\n",
      "note_on channel=0 note=62 velocity=127 time=0.035416666666666666\n",
      "note_off channel=0 note=62 velocity=127 time=0.019791666666666666\n",
      "note_on channel=0 note=61 velocity=127 time=0.021875\n",
      "note_off channel=0 note=61 velocity=127 time=0.019791666666666666\n",
      "note_on channel=0 note=62 velocity=127 time=0.013541666666666667\n",
      "note_on channel=0 note=60 velocity=127 time=0.019791666666666666\n",
      "note_off channel=0 note=62 velocity=127 time=0\n",
      "note_off channel=0 note=60 velocity=127 time=0.019791666666666666\n",
      "note_on channel=0 note=61 velocity=127 time=0.02395833333333333\n",
      "note_on channel=0 note=62 velocity=127 time=0.011458333333333333\n",
      "note_off channel=0 note=61 velocity=127 time=0.008333333333333333\n",
      "note_off channel=0 note=62 velocity=127 time=0.011458333333333333\n",
      "note_on channel=0 note=62 velocity=127 time=0.05520833333333333\n",
      "note_on channel=0 note=61 velocity=127 time=0.010416666666666666\n",
      "note_off channel=0 note=62 velocity=127 time=0.009375\n",
      "note_off channel=0 note=61 velocity=127 time=0.010416666666666666\n",
      "note_on channel=0 note=62 velocity=127 time=0.04479166666666667\n",
      "note_off channel=0 note=62 velocity=127 time=0.019791666666666666\n",
      "note_on channel=0 note=60 velocity=127 time=0.0010416666666666667\n",
      "note_on channel=0 note=61 velocity=127 time=0.011458333333333333\n",
      "note_off channel=0 note=60 velocity=127 time=0.008333333333333333\n",
      "note_off channel=0 note=61 velocity=127 time=0.011458333333333333\n",
      "note_on channel=0 note=62 velocity=127 time=0.022916666666666665\n",
      "note_off channel=0 note=62 velocity=127 time=0.019791666666666666\n",
      "note_on channel=0 note=61 velocity=127 time=0.034375\n",
      "note_off channel=0 note=61 velocity=127 time=0.019791666666666666\n",
      "note_on channel=0 note=62 velocity=127 time=0.0010416666666666667\n",
      "note_off channel=0 note=62 velocity=127 time=0.019791666666666666\n",
      "note_on channel=0 note=62 velocity=127 time=0.05520833333333333\n",
      "note_on channel=0 note=61 velocity=127 time=0.0010416666666666667\n",
      "note_off channel=0 note=62 velocity=127 time=0.01875\n",
      "note_off channel=0 note=61 velocity=127 time=0.0010416666666666667\n",
      "note_on channel=0 note=60 velocity=127 time=0.0020833333333333333\n",
      "note_off channel=0 note=60 velocity=127 time=0.019791666666666666\n",
      "note_on channel=0 note=62 velocity=127 time=0.03229166666666666\n",
      "note_off channel=0 note=62 velocity=127 time=0.019791666666666666\n",
      "note_on channel=0 note=61 velocity=127 time=0.003125\n",
      "note_off channel=0 note=61 velocity=127 time=0.019791666666666666\n",
      "note_on channel=0 note=62 velocity=127 time=0.03229166666666666\n",
      "note_off channel=0 note=62 velocity=127 time=0.019791666666666666\n",
      "note_on channel=0 note=61 velocity=127 time=0.025\n",
      "note_off channel=0 note=61 velocity=127 time=0.019791666666666666\n",
      "note_on channel=0 note=62 velocity=127 time=0.010416666666666666\n",
      "note_off channel=0 note=62 velocity=127 time=0.019791666666666666\n",
      "note_on channel=0 note=60 velocity=127 time=0.004166666666666667\n",
      "note_off channel=0 note=60 velocity=127 time=0.019791666666666666\n",
      "note_on channel=0 note=61 velocity=127 time=0.022916666666666665\n",
      "note_on channel=0 note=62 velocity=127 time=0.008333333333333333\n",
      "note_off channel=0 note=61 velocity=127 time=0.011458333333333333\n",
      "note_off channel=0 note=62 velocity=127 time=0.008333333333333333\n",
      "note_on channel=0 note=62 velocity=127 time=0.05520833333333333\n",
      "note_on channel=0 note=61 velocity=127 time=0.013541666666666667\n",
      "note_off channel=0 note=62 velocity=127 time=0.00625\n",
      "note_off channel=0 note=61 velocity=127 time=0.013541666666666667\n",
      "note_on channel=0 note=62 velocity=127 time=0.041666666666666664\n",
      "note_off channel=0 note=62 velocity=127 time=0.019791666666666666\n",
      "note_on channel=0 note=60 velocity=127 time=0.00625\n",
      "note_on channel=0 note=61 velocity=127 time=0.010416666666666666\n",
      "note_off channel=0 note=60 velocity=127 time=0.009375\n",
      "note_off channel=0 note=61 velocity=127 time=0.010416666666666666\n",
      "note_on channel=0 note=62 velocity=127 time=0.019791666666666666\n",
      "note_off channel=0 note=62 velocity=127 time=0.019791666666666666\n",
      "note_on channel=0 note=61 velocity=127 time=0.0375\n",
      "note_on channel=0 note=62 velocity=127 time=0.017708333333333333\n",
      "note_off channel=0 note=61 velocity=127 time=0.0020833333333333333\n",
      "note_off channel=0 note=62 velocity=127 time=0.017708333333333333\n",
      "note_on channel=0 note=62 velocity=127 time=0.05520833333333333\n",
      "note_on channel=0 note=61 velocity=127 time=0.004166666666666667\n",
      "note_off channel=0 note=62 velocity=127 time=0.015625\n",
      "note_off channel=0 note=61 velocity=127 time=0.004166666666666667\n",
      "note_on channel=0 note=60 velocity=127 time=0.003125\n",
      "note_off channel=0 note=60 velocity=127 time=0.019791666666666666\n",
      "note_on channel=0 note=62 velocity=127 time=0.028125\n",
      "note_off channel=0 note=62 velocity=127 time=0.019791666666666666\n",
      "note_on channel=0 note=61 velocity=127 time=0.00625\n",
      "note_off channel=0 note=61 velocity=127 time=0.019791666666666666\n",
      "note_on channel=0 note=62 velocity=127 time=0.029166666666666667\n",
      "note_off channel=0 note=62 velocity=127 time=0.019791666666666666\n",
      "note_on channel=0 note=61 velocity=127 time=0.028125\n",
      "note_off channel=0 note=61 velocity=127 time=0.019791666666666666\n",
      "note_on channel=0 note=62 velocity=127 time=0.007291666666666667\n",
      "note_off channel=0 note=62 velocity=127 time=0.019791666666666666\n",
      "note_on channel=0 note=60 velocity=127 time=0.008333333333333333\n",
      "note_off channel=0 note=60 velocity=127 time=0.019791666666666666\n",
      "note_on channel=0 note=61 velocity=127 time=0.021875\n",
      "note_on channel=0 note=62 velocity=127 time=0.005208333333333333\n",
      "note_off channel=0 note=61 velocity=127 time=0.015625\n",
      "note_off channel=0 note=62 velocity=127 time=0.005208333333333333\n",
      "note_on channel=0 note=62 velocity=127 time=0.05520833333333333\n",
      "\u001b[91m [DEBUG] > \u001b[0m\n",
      " |>  to_array: msg.time > max_t; t, n\n",
      " |>  2.9927083333333373\n",
      " |>  150\n",
      "note_on channel=0 note=62 velocity=127 time=0.010416666666666666\n",
      "note_off channel=0 note=62 velocity=127 time=0.019791666666666666\n",
      "note_on channel=0 note=61 velocity=127 time=0.008333333333333333\n",
      "note_off channel=0 note=61 velocity=127 time=0.019791666666666666\n",
      "note_on channel=0 note=60 velocity=127 time=0.04583333333333333\n",
      "note_on channel=0 note=61 velocity=127 time=0.011458333333333333\n",
      "note_off channel=0 note=60 velocity=127 time=0.009375\n",
      "note_on channel=0 note=62 velocity=127 time=0.0020833333333333333\n",
      "note_off channel=0 note=61 velocity=127 time=0.009375\n",
      "note_off channel=0 note=62 velocity=127 time=0.011458333333333333\n",
      "note_on channel=0 note=61 velocity=127 time=0.04583333333333333\n",
      "note_off channel=0 note=61 velocity=127 time=0.019791666666666666\n",
      "note_on channel=0 note=60 velocity=127 time=0.015625\n",
      "note_on channel=0 note=62 velocity=127 time=0.014583333333333334\n",
      "note_off channel=0 note=60 velocity=127 time=0.005208333333333333\n",
      "note_off channel=0 note=62 velocity=127 time=0.014583333333333334\n",
      "note_on channel=0 note=61 velocity=127 time=0.00625\n",
      "note_off channel=0 note=61 velocity=127 time=0.019791666666666666\n",
      "note_on channel=0 note=61 velocity=127 time=0.05625\n",
      "note_on channel=0 note=60 velocity=127 time=0.00625\n",
      "note_on channel=0 note=62 velocity=127 time=0.007291666666666667\n",
      "note_off channel=0 note=61 velocity=127 time=0.007291666666666667\n",
      "note_off channel=0 note=60 velocity=127 time=0.00625\n",
      "note_off channel=0 note=62 velocity=127 time=0.007291666666666667\n",
      "note_on channel=0 note=61 velocity=127 time=0.04375\n",
      "note_off channel=0 note=61 velocity=127 time=0.019791666666666666\n",
      "note_on channel=0 note=62 velocity=127 time=0.03229166666666666\n",
      "note_on channel=0 note=60 velocity=127 time=0\n",
      "note_off channel=0 note=62 velocity=127 time=0.019791666666666666\n",
      "note_off channel=0 note=60 velocity=127 time=0\n",
      "note_on channel=0 note=61 velocity=127 time=0.004166666666666667\n",
      "note_off channel=0 note=61 velocity=127 time=0.019791666666666666\n",
      "note_on channel=0 note=61 velocity=127 time=0.05625\n",
      "note_on channel=0 note=62 velocity=127 time=0.014583333333333334\n",
      "note_off channel=0 note=61 velocity=127 time=0.005208333333333333\n",
      "note_on channel=0 note=60 velocity=127 time=0.0020833333333333333\n",
      "note_off channel=0 note=62 velocity=127 time=0.0125\n",
      "note_off channel=0 note=60 velocity=127 time=0.007291666666666667\n",
      "note_on channel=0 note=61 velocity=127 time=0.034375\n",
      "note_off channel=0 note=61 velocity=127 time=0.019791666666666666\n",
      "note_on channel=0 note=62 velocity=127 time=0.034375\n",
      "note_on channel=0 note=60 velocity=127 time=0.014583333333333334\n",
      "note_off channel=0 note=62 velocity=127 time=0.005208333333333333\n",
      "note_on channel=0 note=61 velocity=127 time=0.0020833333333333333\n",
      "note_off channel=0 note=60 velocity=127 time=0.0125\n",
      "note_off channel=0 note=61 velocity=127 time=0.007291666666666667\n",
      "note_on channel=0 note=61 velocity=127 time=0.05625\n",
      "note_on channel=0 note=62 velocity=127 time=0.016666666666666666\n",
      "note_off channel=0 note=61 velocity=127 time=0.003125\n",
      "note_off channel=0 note=62 velocity=127 time=0.016666666666666666\n",
      "note_on channel=0 note=60 velocity=127 time=0.0020833333333333333\n",
      "note_off channel=0 note=60 velocity=127 time=0.019791666666666666\n",
      "note_on channel=0 note=61 velocity=127 time=0.016666666666666666\n",
      "note_off channel=0 note=61 velocity=127 time=0.019791666666666666\n",
      "note_on channel=0 note=62 velocity=127 time=0.036458333333333336\n",
      "note_off channel=0 note=62 velocity=127 time=0.019791666666666666\n",
      "note_on channel=0 note=61 velocity=127 time=0\n",
      "note_on channel=0 note=60 velocity=127 time=0.009375\n",
      "note_off channel=0 note=61 velocity=127 time=0.010416666666666666\n",
      "note_off channel=0 note=60 velocity=127 time=0.009375\n",
      "note_on channel=0 note=61 velocity=127 time=0.046875\n",
      "note_on channel=0 note=62 velocity=127 time=0.01875\n",
      "note_off channel=0 note=61 velocity=127 time=0.0010416666666666667\n",
      "note_off channel=0 note=62 velocity=127 time=0.01875\n",
      "note_on channel=0 note=60 velocity=127 time=0.017708333333333333\n",
      "note_off channel=0 note=60 velocity=127 time=0.019791666666666666\n",
      "note_on channel=0 note=61 velocity=127 time=0\n",
      "note_off channel=0 note=61 velocity=127 time=0.019791666666666666\n",
      "note_on channel=0 note=62 velocity=127 time=0.03854166666666667\n",
      "note_on channel=0 note=61 velocity=127 time=0.01875\n",
      "note_off channel=0 note=62 velocity=127 time=0.0020833333333333333\n",
      "note_off channel=0 note=61 velocity=127 time=0.01875\n",
      "note_on channel=0 note=60 velocity=127 time=0.00625\n",
      "note_off channel=0 note=60 velocity=127 time=0.019791666666666666\n",
      "note_on channel=0 note=61 velocity=127 time=0.030208333333333334\n",
      "note_off channel=0 note=61 velocity=127 time=0.019791666666666666\n",
      "note_on channel=0 note=62 velocity=127 time=0.0010416666666666667\n",
      "note_off channel=0 note=62 velocity=127 time=0.019791666666666666\n",
      "note_on channel=0 note=60 velocity=127 time=0.03229166666666666\n",
      "note_on channel=0 note=61 velocity=127 time=0.003125\n",
      "note_off channel=0 note=60 velocity=127 time=0.016666666666666666\n",
      "note_off channel=0 note=61 velocity=127 time=0.003125\n",
      "note_on channel=0 note=62 velocity=127 time=0.03958333333333333\n",
      "note_on channel=0 note=61 velocity=127 time=0.016666666666666666\n",
      "note_off channel=0 note=62 velocity=127 time=0.003125\n",
      "note_off channel=0 note=61 velocity=127 time=0.016666666666666666\n",
      "note_on channel=0 note=60 velocity=127 time=0.022916666666666665\n",
      "note_off channel=0 note=60 velocity=127 time=0.019791666666666666\n",
      "note_on channel=0 note=61 velocity=127 time=0.013541666666666667\n",
      "note_off channel=0 note=61 velocity=127 time=0.019791666666666666\n",
      "note_on channel=0 note=62 velocity=127 time=0.003125\n",
      "note_off channel=0 note=62 velocity=127 time=0.019791666666666666\n",
      "note_on channel=0 note=61 velocity=127 time=0.03333333333333333\n",
      "note_on channel=0 note=60 velocity=127 time=0.013541666666666667\n",
      "note_off channel=0 note=61 velocity=127 time=0.00625\n",
      "note_off channel=0 note=60 velocity=127 time=0.013541666666666667\n",
      "note_on channel=0 note=62 velocity=127 time=0.029166666666666667\n",
      "note_on channel=0 note=61 velocity=127 time=0.014583333333333334\n",
      "note_off channel=0 note=62 velocity=127 time=0.005208333333333333\n",
      "note_off channel=0 note=61 velocity=127 time=0.014583333333333334\n",
      "note_on channel=0 note=60 velocity=127 time=0.03958333333333333\n",
      "note_on channel=0 note=61 velocity=127 time=0.016666666666666666\n",
      "note_off channel=0 note=60 velocity=127 time=0.003125\n",
      "note_off channel=0 note=61 velocity=127 time=0.016666666666666666\n",
      "note_on channel=0 note=62 velocity=127 time=0.004166666666666667\n",
      "note_off channel=0 note=62 velocity=127 time=0.019791666666666666\n",
      "note_on channel=0 note=61 velocity=127 time=0.03125\n",
      "note_off channel=0 note=61 velocity=127 time=0.019791666666666666\n",
      "note_on channel=0 note=60 velocity=127 time=0.010416666666666666\n",
      "note_off channel=0 note=60 velocity=127 time=0.019791666666666666\n",
      "note_on channel=0 note=62 velocity=127 time=0.013541666666666667\n",
      "note_on channel=0 note=61 velocity=127 time=0.0125\n",
      "note_off channel=0 note=62 velocity=127 time=0.007291666666666667\n",
      "note_off channel=0 note=61 velocity=127 time=0.0125\n",
      "note_on channel=0 note=61 velocity=127 time=0.05625\n",
      "note_on channel=0 note=60 velocity=127 time=0\n",
      "note_off channel=0 note=61 velocity=127 time=0.019791666666666666\n",
      "note_off channel=0 note=60 velocity=127 time=0\n",
      "note_on channel=0 note=62 velocity=127 time=0.00625\n",
      "note_off channel=0 note=62 velocity=127 time=0.019791666666666666\n",
      "note_on channel=0 note=61 velocity=127 time=0.030208333333333334\n",
      "note_off channel=0 note=61 velocity=127 time=0.019791666666666666\n",
      "note_on channel=0 note=60 velocity=127 time=0.027083333333333334\n",
      "note_on channel=0 note=62 velocity=127 time=0.01875\n",
      "note_off channel=0 note=60 velocity=127 time=0.0010416666666666667\n",
      "note_on channel=0 note=61 velocity=127 time=0.009375\n",
      "note_off channel=0 note=62 velocity=127 time=0.009375\n",
      "note_off channel=0 note=61 velocity=127 time=0.010416666666666666\n",
      "note_on channel=0 note=61 velocity=127 time=0.05625\n",
      "note_on channel=0 note=60 velocity=127 time=0.016666666666666666\n",
      "note_off channel=0 note=61 velocity=127 time=0.003125\n",
      "note_on channel=0 note=62 velocity=127 time=0.008333333333333333\n",
      "note_off channel=0 note=60 velocity=127 time=0.008333333333333333\n",
      "note_off channel=0 note=62 velocity=127 time=0.011458333333333333\n",
      "note_on channel=0 note=61 velocity=127 time=0.028125\n",
      "note_off channel=0 note=61 velocity=127 time=0.019791666666666666\n",
      "note_on channel=0 note=60 velocity=127 time=0.04375\n",
      "note_on channel=0 note=62 velocity=127 time=0.004166666666666667\n",
      "note_on channel=0 note=61 velocity=127 time=0.008333333333333333\n",
      "note_off channel=0 note=60 velocity=127 time=0.007291666666666667\n",
      "note_off channel=0 note=62 velocity=127 time=0.004166666666666667\n",
      "note_off channel=0 note=61 velocity=127 time=0.008333333333333333\n",
      "note_on channel=0 note=61 velocity=127 time=0.05625\n",
      "note_off channel=0 note=61 velocity=127 time=0.019791666666666666\n",
      "note_on channel=0 note=62 velocity=127 time=0.010416666666666666\n",
      "note_on channel=0 note=60 velocity=127 time=0.003125\n",
      "note_off channel=0 note=62 velocity=127 time=0.016666666666666666\n",
      "note_off channel=0 note=60 velocity=127 time=0.003125\n",
      "note_on channel=0 note=61 velocity=127 time=0.022916666666666665\n",
      "note_off channel=0 note=61 velocity=127 time=0.019791666666666666\n",
      "note_on channel=0 note=62 velocity=127 time=0.05\n",
      "note_on channel=0 note=61 velocity=127 time=0.00625\n",
      "note_on channel=0 note=60 velocity=127 time=0.004166666666666667\n",
      "note_off channel=0 note=62 velocity=127 time=0.009375\n",
      "note_off channel=0 note=61 velocity=127 time=0.00625\n",
      "note_off channel=0 note=60 velocity=127 time=0.004166666666666667\n",
      "note_on channel=0 note=61 velocity=127 time=0.052083333333333336\n",
      "note_off channel=0 note=61 velocity=127 time=0.019791666666666666\n",
      "note_on channel=0 note=62 velocity=127 time=0.0125\n",
      "note_on channel=0 note=60 velocity=127 time=0.017708333333333333\n",
      "note_off channel=0 note=62 velocity=127 time=0.0020833333333333333\n",
      "note_off channel=0 note=60 velocity=127 time=0.017708333333333333\n",
      "note_on channel=0 note=61 velocity=127 time=0.00625\n",
      "note_off channel=0 note=61 velocity=127 time=0.019791666666666666\n",
      "note_on channel=0 note=62 velocity=127 time=0.052083333333333336\n",
      "note_on channel=0 note=61 velocity=127 time=0.005208333333333333\n",
      "note_off channel=0 note=62 velocity=127 time=0.015625\n",
      "note_off channel=0 note=61 velocity=127 time=0.005208333333333333\n",
      "note_on channel=0 note=60 velocity=127 time=0.0010416666666666667\n",
      "note_off channel=0 note=60 velocity=127 time=0.019791666666666666\n",
      "note_on channel=0 note=61 velocity=127 time=0.035416666666666666\n",
      "note_off channel=0 note=61 velocity=127 time=0.019791666666666666\n",
      "note_on channel=0 note=62 velocity=127 time=0.014583333333333334\n",
      "note_off channel=0 note=62 velocity=127 time=0.019791666666666666\n",
      "note_on channel=0 note=60 velocity=127 time=0.0125\n",
      "note_on channel=0 note=61 velocity=127 time=0.009375\n",
      "note_off channel=0 note=60 velocity=127 time=0.011458333333333333\n",
      "note_off channel=0 note=61 velocity=127 time=0.009375\n",
      "note_on channel=0 note=62 velocity=127 time=0.053125\n",
      "\u001b[91m [DEBUG] > \u001b[0m\n",
      " |>  to_array: msg.time > max_t; t, n\n",
      " |>  3.010416666666668\n",
      " |>  150\n",
      "note_on channel=0 note=60 velocity=127 time=0.06666666666666667\n",
      "note_on channel=0 note=62 velocity=127 time=0.009375\n",
      "note_off channel=0 note=60 velocity=127 time=0.010416666666666666\n",
      "note_off channel=0 note=62 velocity=127 time=0.009375\n",
      "note_on channel=0 note=61 velocity=127 time=0.090625\n",
      "note_on channel=0 note=62 velocity=127 time=0.0125\n",
      "note_off channel=0 note=61 velocity=127 time=0.007291666666666667\n",
      "note_off channel=0 note=62 velocity=127 time=0.0125\n",
      "note_on channel=0 note=60 velocity=127 time=0.004166666666666667\n",
      "note_off channel=0 note=60 velocity=127 time=0.019791666666666666\n",
      "note_on channel=0 note=62 velocity=127 time=0.07916666666666666\n",
      "note_off channel=0 note=62 velocity=127 time=0.019791666666666666\n",
      "note_on channel=0 note=60 velocity=127 time=0.0375\n",
      "note_on channel=0 note=61 velocity=127 time=0.0125\n",
      "note_off channel=0 note=60 velocity=127 time=0.008333333333333333\n",
      "note_off channel=0 note=61 velocity=127 time=0.0125\n",
      "note_on channel=0 note=62 velocity=127 time=0.03333333333333333\n",
      "note_off channel=0 note=62 velocity=127 time=0.019791666666666666\n",
      "note_on channel=0 note=60 velocity=127 time=0.07083333333333333\n",
      "note_off channel=0 note=60 velocity=127 time=0.019791666666666666\n",
      "note_on channel=0 note=62 velocity=127 time=0.0125\n",
      "note_off channel=0 note=62 velocity=127 time=0.019791666666666666\n",
      "note_on channel=0 note=61 velocity=127 time=0.008333333333333333\n",
      "note_off channel=0 note=61 velocity=127 time=0.019791666666666666\n",
      "note_on channel=0 note=62 velocity=127 time=0.07395833333333333\n",
      "note_on channel=0 note=60 velocity=127 time=0.0010416666666666667\n",
      "note_off channel=0 note=62 velocity=127 time=0.01875\n",
      "note_off channel=0 note=60 velocity=127 time=0.0010416666666666667\n",
      "note_on channel=0 note=61 velocity=127 time=0.08958333333333333\n",
      "note_on channel=0 note=62 velocity=127 time=0.0125\n",
      "note_off channel=0 note=61 velocity=127 time=0.008333333333333333\n",
      "note_off channel=0 note=62 velocity=127 time=0.0125\n",
      "note_on channel=0 note=60 velocity=127 time=0.014583333333333334\n",
      "note_off channel=0 note=60 velocity=127 time=0.019791666666666666\n",
      "note_on channel=0 note=62 velocity=127 time=0.06770833333333333\n",
      "note_off channel=0 note=62 velocity=127 time=0.019791666666666666\n",
      "note_on channel=0 note=60 velocity=127 time=0.04791666666666666\n",
      "note_on channel=0 note=61 velocity=127 time=0.0020833333333333333\n",
      "note_off channel=0 note=60 velocity=127 time=0.01875\n",
      "note_off channel=0 note=61 velocity=127 time=0.0020833333333333333\n",
      "note_on channel=0 note=62 velocity=127 time=0.03333333333333333\n",
      "note_off channel=0 note=62 velocity=127 time=0.019791666666666666\n",
      "note_on channel=0 note=60 velocity=127 time=0.08229166666666667\n",
      "note_off channel=0 note=60 velocity=127 time=0.019791666666666666\n",
      "note_on channel=0 note=62 velocity=127 time=0.0010416666666666667\n",
      "note_off channel=0 note=62 velocity=127 time=0.019791666666666666\n",
      "note_on channel=0 note=61 velocity=127 time=0.009375\n",
      "note_off channel=0 note=61 velocity=127 time=0.019791666666666666\n",
      "note_on channel=0 note=62 velocity=127 time=0.07395833333333333\n",
      "note_on channel=0 note=60 velocity=127 time=0.0125\n",
      "note_off channel=0 note=62 velocity=127 time=0.007291666666666667\n",
      "note_off channel=0 note=60 velocity=127 time=0.0125\n",
      "note_on channel=0 note=61 velocity=127 time=0.07916666666666666\n",
      "note_on channel=0 note=62 velocity=127 time=0.011458333333333333\n",
      "note_off channel=0 note=61 velocity=127 time=0.008333333333333333\n",
      "note_off channel=0 note=62 velocity=127 time=0.011458333333333333\n",
      "note_on channel=0 note=60 velocity=127 time=0.026041666666666668\n",
      "note_off channel=0 note=60 velocity=127 time=0.019791666666666666\n",
      "note_on channel=0 note=62 velocity=127 time=0.057291666666666664\n",
      "note_off channel=0 note=62 velocity=127 time=0.019791666666666666\n",
      "note_on channel=0 note=61 velocity=127 time=0.05\n",
      "note_on channel=0 note=60 velocity=127 time=0.008333333333333333\n",
      "note_off channel=0 note=61 velocity=127 time=0.011458333333333333\n",
      "note_off channel=0 note=60 velocity=127 time=0.008333333333333333\n",
      "note_on channel=0 note=62 velocity=127 time=0.02395833333333333\n",
      "note_off channel=0 note=62 velocity=127 time=0.019791666666666666\n",
      "note_on channel=0 note=60 velocity=127 time=0.09270833333333334\n",
      "note_on channel=0 note=62 velocity=127 time=0.010416666666666666\n",
      "note_off channel=0 note=60 velocity=127 time=0.009375\n",
      "note_off channel=0 note=62 velocity=127 time=0.010416666666666666\n"
     ]
    },
    {
     "name": "stdout",
     "output_type": "stream",
     "text": [
      "note_on channel=0 note=61 velocity=127 time=0.009375\n",
      "note_off channel=0 note=61 velocity=127 time=0.019791666666666666\n",
      "note_on channel=0 note=62 velocity=127 time=0.07291666666666667\n",
      "note_off channel=0 note=62 velocity=127 time=0.019791666666666666\n",
      "note_on channel=0 note=60 velocity=127 time=0.003125\n",
      "note_off channel=0 note=60 velocity=127 time=0.019791666666666666\n",
      "note_on channel=0 note=61 velocity=127 time=0.06875\n",
      "note_on channel=0 note=62 velocity=127 time=0.011458333333333333\n",
      "note_off channel=0 note=61 velocity=127 time=0.009375\n",
      "note_off channel=0 note=62 velocity=127 time=0.011458333333333333\n",
      "note_on channel=0 note=60 velocity=127 time=0.036458333333333336\n",
      "note_off channel=0 note=60 velocity=127 time=0.019791666666666666\n",
      "note_on channel=0 note=62 velocity=127 time=0.04583333333333333\n",
      "note_off channel=0 note=62 velocity=127 time=0.019791666666666666\n",
      "note_on channel=0 note=61 velocity=127 time=0.051041666666666666\n",
      "note_on channel=0 note=60 velocity=127 time=0.01875\n",
      "note_off channel=0 note=61 velocity=127 time=0.0010416666666666667\n",
      "note_off channel=0 note=60 velocity=127 time=0.01875\n",
      "note_on channel=0 note=62 velocity=127 time=0.0125\n",
      "note_off channel=0 note=62 velocity=127 time=0.019791666666666666\n",
      "note_on channel=0 note=62 velocity=127 time=0.103125\n",
      "note_on channel=0 note=60 velocity=127 time=0.0010416666666666667\n",
      "note_off channel=0 note=62 velocity=127 time=0.01875\n",
      "note_off channel=0 note=60 velocity=127 time=0.0010416666666666667\n",
      "note_on channel=0 note=61 velocity=127 time=0.009375\n",
      "note_off channel=0 note=61 velocity=127 time=0.019791666666666666\n",
      "note_on channel=0 note=62 velocity=127 time=0.07291666666666667\n",
      "note_off channel=0 note=62 velocity=127 time=0.019791666666666666\n",
      "note_on channel=0 note=60 velocity=127 time=0.014583333333333334\n",
      "note_off channel=0 note=60 velocity=127 time=0.019791666666666666\n",
      "note_on channel=0 note=61 velocity=127 time=0.058333333333333334\n",
      "note_on channel=0 note=62 velocity=127 time=0.010416666666666666\n",
      "note_off channel=0 note=61 velocity=127 time=0.009375\n",
      "note_off channel=0 note=62 velocity=127 time=0.010416666666666666\n",
      "note_on channel=0 note=60 velocity=127 time=0.04791666666666666\n",
      "note_off channel=0 note=60 velocity=127 time=0.019791666666666666\n",
      "note_on channel=0 note=62 velocity=127 time=0.035416666666666666\n",
      "note_off channel=0 note=62 velocity=127 time=0.019791666666666666\n",
      "note_on channel=0 note=61 velocity=127 time=0.052083333333333336\n",
      "note_off channel=0 note=61 velocity=127 time=0.019791666666666666\n",
      "note_on channel=0 note=60 velocity=127 time=0.009375\n",
      "note_off channel=0 note=60 velocity=127 time=0.019791666666666666\n",
      "note_on channel=0 note=62 velocity=127 time=0.0020833333333333333\n",
      "note_off channel=0 note=62 velocity=127 time=0.019791666666666666\n",
      "note_on channel=0 note=62 velocity=127 time=0.103125\n",
      "\u001b[91m [DEBUG] > \u001b[0m\n",
      " |>  to_array: msg.time > max_t; t, n\n",
      " |>  3.023958333333334\n",
      " |>  150\n",
      "note_on channel=0 note=62 velocity=127 time=0.04791666666666666\n",
      "note_on channel=0 note=60 velocity=127 time=0.0125\n",
      "note_off channel=0 note=62 velocity=127 time=0.007291666666666667\n",
      "note_on channel=0 note=61 velocity=127 time=0.010416666666666666\n",
      "note_off channel=0 note=60 velocity=127 time=0.0020833333333333333\n",
      "note_off channel=0 note=61 velocity=127 time=0.017708333333333333\n",
      "note_on channel=0 note=62 velocity=127 time=0.04791666666666666\n",
      "note_on channel=0 note=60 velocity=127 time=0.017708333333333333\n",
      "note_off channel=0 note=62 velocity=127 time=0.003125\n",
      "note_off channel=0 note=60 velocity=127 time=0.017708333333333333\n",
      "note_on channel=0 note=61 velocity=127 time=0.0010416666666666667\n",
      "note_off channel=0 note=61 velocity=127 time=0.019791666666666666\n",
      "note_on channel=0 note=62 velocity=127 time=0.040625\n",
      "note_off channel=0 note=62 velocity=127 time=0.019791666666666666\n",
      "note_on channel=0 note=60 velocity=127 time=0.0020833333333333333\n",
      "note_off channel=0 note=60 velocity=127 time=0.019791666666666666\n",
      "note_on channel=0 note=61 velocity=127 time=0.004166666666666667\n",
      "note_off channel=0 note=61 velocity=127 time=0.019791666666666666\n",
      "note_on channel=0 note=62 velocity=127 time=0.03229166666666666\n",
      "note_off channel=0 note=62 velocity=127 time=0.019791666666666666\n",
      "note_on channel=0 note=60 velocity=127 time=0.00625\n",
      "note_off channel=0 note=60 velocity=127 time=0.019791666666666666\n",
      "note_on channel=0 note=61 velocity=127 time=0.007291666666666667\n",
      "note_off channel=0 note=61 velocity=127 time=0.019791666666666666\n",
      "note_on channel=0 note=62 velocity=127 time=0.025\n",
      "note_off channel=0 note=62 velocity=127 time=0.019791666666666666\n",
      "note_on channel=0 note=60 velocity=127 time=0.011458333333333333\n",
      "note_off channel=0 note=60 velocity=127 time=0.019791666666666666\n",
      "note_on channel=0 note=61 velocity=127 time=0.010416666666666666\n",
      "note_off channel=0 note=61 velocity=127 time=0.019791666666666666\n",
      "note_on channel=0 note=62 velocity=127 time=0.016666666666666666\n",
      "note_off channel=0 note=62 velocity=127 time=0.019791666666666666\n",
      "note_on channel=0 note=60 velocity=127 time=0.015625\n",
      "note_off channel=0 note=60 velocity=127 time=0.019791666666666666\n",
      "note_on channel=0 note=61 velocity=127 time=0.013541666666666667\n",
      "note_off channel=0 note=61 velocity=127 time=0.019791666666666666\n",
      "note_on channel=0 note=62 velocity=127 time=0.009375\n",
      "note_off channel=0 note=62 velocity=127 time=0.019791666666666666\n",
      "note_on channel=0 note=60 velocity=127 time=0.020833333333333332\n",
      "note_off channel=0 note=60 velocity=127 time=0.019791666666666666\n",
      "note_on channel=0 note=61 velocity=127 time=0.016666666666666666\n",
      "note_off channel=0 note=61 velocity=127 time=0.019791666666666666\n",
      "note_on channel=0 note=62 velocity=127 time=0.0010416666666666667\n",
      "note_off channel=0 note=62 velocity=127 time=0.019791666666666666\n",
      "note_on channel=0 note=60 velocity=127 time=0.025\n",
      "note_off channel=0 note=60 velocity=127 time=0.019791666666666666\n",
      "note_on channel=0 note=61 velocity=127 time=0.019791666666666666\n",
      "note_on channel=0 note=62 velocity=127 time=0.013541666666666667\n",
      "note_off channel=0 note=61 velocity=127 time=0.00625\n",
      "note_off channel=0 note=62 velocity=127 time=0.013541666666666667\n",
      "note_on channel=0 note=60 velocity=127 time=0.030208333333333334\n",
      "note_off channel=0 note=60 velocity=127 time=0.019791666666666666\n",
      "note_on channel=0 note=61 velocity=127 time=0.022916666666666665\n",
      "note_on channel=0 note=62 velocity=127 time=0.00625\n",
      "note_off channel=0 note=61 velocity=127 time=0.014583333333333334\n",
      "note_off channel=0 note=62 velocity=127 time=0.00625\n",
      "note_on channel=0 note=60 velocity=127 time=0.034375\n",
      "note_off channel=0 note=60 velocity=127 time=0.019791666666666666\n",
      "note_on channel=0 note=62 velocity=127 time=0.02395833333333333\n",
      "note_on channel=0 note=61 velocity=127 time=0.0020833333333333333\n",
      "note_off channel=0 note=62 velocity=127 time=0.017708333333333333\n",
      "note_off channel=0 note=61 velocity=127 time=0.0020833333333333333\n",
      "note_on channel=0 note=60 velocity=127 time=0.0375\n",
      "note_off channel=0 note=60 velocity=127 time=0.019791666666666666\n",
      "note_on channel=0 note=62 velocity=127 time=0.01875\n",
      "note_on channel=0 note=61 velocity=127 time=0.009375\n",
      "note_off channel=0 note=62 velocity=127 time=0.010416666666666666\n",
      "note_off channel=0 note=61 velocity=127 time=0.009375\n",
      "note_on channel=0 note=60 velocity=127 time=0.034375\n",
      "note_off channel=0 note=60 velocity=127 time=0.019791666666666666\n",
      "note_on channel=0 note=62 velocity=127 time=0.014583333333333334\n",
      "note_on channel=0 note=61 velocity=127 time=0.017708333333333333\n",
      "note_off channel=0 note=62 velocity=127 time=0.0020833333333333333\n",
      "note_off channel=0 note=61 velocity=127 time=0.017708333333333333\n",
      "note_on channel=0 note=60 velocity=127 time=0.03125\n",
      "note_off channel=0 note=60 velocity=127 time=0.019791666666666666\n",
      "note_on channel=0 note=62 velocity=127 time=0.010416666666666666\n",
      "note_off channel=0 note=62 velocity=127 time=0.019791666666666666\n",
      "note_on channel=0 note=61 velocity=127 time=0.005208333333333333\n",
      "note_off channel=0 note=61 velocity=127 time=0.019791666666666666\n",
      "note_on channel=0 note=60 velocity=127 time=0.028125\n",
      "note_off channel=0 note=60 velocity=127 time=0.019791666666666666\n",
      "note_on channel=0 note=62 velocity=127 time=0.005208333333333333\n",
      "note_off channel=0 note=62 velocity=127 time=0.019791666666666666\n",
      "note_on channel=0 note=61 velocity=127 time=0.013541666666666667\n",
      "note_off channel=0 note=61 velocity=127 time=0.019791666666666666\n",
      "note_on channel=0 note=60 velocity=127 time=0.025\n",
      "note_off channel=0 note=60 velocity=127 time=0.019791666666666666\n",
      "note_on channel=0 note=62 velocity=127 time=0.0010416666666666667\n",
      "note_off channel=0 note=62 velocity=127 time=0.019791666666666666\n",
      "note_on channel=0 note=61 velocity=127 time=0.020833333333333332\n",
      "note_off channel=0 note=61 velocity=127 time=0.019791666666666666\n",
      "note_on channel=0 note=60 velocity=127 time=0.021875\n",
      "note_on channel=0 note=62 velocity=127 time=0.015625\n",
      "note_off channel=0 note=60 velocity=127 time=0.004166666666666667\n",
      "note_off channel=0 note=62 velocity=127 time=0.015625\n",
      "note_on channel=0 note=61 velocity=127 time=0.029166666666666667\n",
      "note_off channel=0 note=61 velocity=127 time=0.019791666666666666\n",
      "note_on channel=0 note=60 velocity=127 time=0.017708333333333333\n",
      "note_on channel=0 note=62 velocity=127 time=0.011458333333333333\n",
      "note_off channel=0 note=60 velocity=127 time=0.008333333333333333\n",
      "note_off channel=0 note=62 velocity=127 time=0.011458333333333333\n",
      "note_on channel=0 note=61 velocity=127 time=0.036458333333333336\n",
      "note_off channel=0 note=61 velocity=127 time=0.019791666666666666\n",
      "note_on channel=0 note=60 velocity=127 time=0.014583333333333334\n",
      "note_on channel=0 note=62 velocity=127 time=0.007291666666666667\n",
      "note_off channel=0 note=60 velocity=127 time=0.013541666666666667\n",
      "note_off channel=0 note=62 velocity=127 time=0.007291666666666667\n",
      "note_on channel=0 note=61 velocity=127 time=0.04375\n",
      "note_off channel=0 note=61 velocity=127 time=0.019791666666666666\n",
      "note_on channel=0 note=60 velocity=127 time=0.011458333333333333\n",
      "note_on channel=0 note=62 velocity=127 time=0.0020833333333333333\n",
      "note_off channel=0 note=60 velocity=127 time=0.017708333333333333\n",
      "note_off channel=0 note=62 velocity=127 time=0.0020833333333333333\n",
      "note_on channel=0 note=61 velocity=127 time=0.052083333333333336\n",
      "note_off channel=0 note=61 velocity=127 time=0.019791666666666666\n",
      "note_on channel=0 note=62 velocity=127 time=0.00625\n",
      "note_on channel=0 note=60 velocity=127 time=0.0020833333333333333\n",
      "note_off channel=0 note=62 velocity=127 time=0.017708333333333333\n",
      "note_off channel=0 note=60 velocity=127 time=0.0020833333333333333\n",
      "note_on channel=0 note=61 velocity=127 time=0.057291666666666664\n",
      "note_on channel=0 note=62 velocity=127 time=0.01875\n",
      "note_off channel=0 note=61 velocity=127 time=0.0010416666666666667\n",
      "note_on channel=0 note=60 velocity=127 time=0.005208333333333333\n",
      "note_off channel=0 note=62 velocity=127 time=0.0125\n",
      "note_off channel=0 note=60 velocity=127 time=0.007291666666666667\n",
      "note_on channel=0 note=61 velocity=127 time=0.06041666666666667\n",
      "note_on channel=0 note=62 velocity=127 time=0.010416666666666666\n",
      "note_off channel=0 note=61 velocity=127 time=0.009375\n",
      "note_on channel=0 note=60 velocity=127 time=0.0020833333333333333\n",
      "note_off channel=0 note=62 velocity=127 time=0.008333333333333333\n",
      "note_off channel=0 note=60 velocity=127 time=0.011458333333333333\n",
      "note_on channel=0 note=61 velocity=127 time=0.06354166666666666\n",
      "note_on channel=0 note=62 velocity=127 time=0.003125\n",
      "note_on channel=0 note=60 velocity=127 time=0.016666666666666666\n",
      "note_off channel=0 note=61 velocity=127 time=0.0010416666666666667\n",
      "note_off channel=0 note=62 velocity=127 time=0.003125\n",
      "note_off channel=0 note=60 velocity=127 time=0.016666666666666666\n",
      "note_on channel=0 note=62 velocity=127 time=0.06145833333333333\n",
      "note_on channel=0 note=61 velocity=127 time=0.005208333333333333\n",
      "note_off channel=0 note=62 velocity=127 time=0.015625\n",
      "note_on channel=0 note=60 velocity=127 time=0.0010416666666666667\n",
      "note_off channel=0 note=61 velocity=127 time=0.004166666666666667\n",
      "note_off channel=0 note=60 velocity=127 time=0.016666666666666666\n",
      "note_on channel=0 note=62 velocity=127 time=0.057291666666666664\n",
      "note_on channel=0 note=61 velocity=127 time=0.0125\n",
      "note_off channel=0 note=62 velocity=127 time=0.007291666666666667\n",
      "note_on channel=0 note=60 velocity=127 time=0.005208333333333333\n",
      "note_off channel=0 note=61 velocity=127 time=0.007291666666666667\n",
      "note_off channel=0 note=60 velocity=127 time=0.013541666666666667\n",
      "note_on channel=0 note=62 velocity=127 time=0.053125\n",
      "note_off channel=0 note=62 velocity=127 time=0.019791666666666666\n",
      "note_on channel=0 note=61 velocity=127 time=0\n",
      "note_on channel=0 note=60 velocity=127 time=0.010416666666666666\n",
      "note_off channel=0 note=61 velocity=127 time=0.010416666666666666\n",
      "note_off channel=0 note=60 velocity=127 time=0.010416666666666666\n",
      "note_on channel=0 note=62 velocity=127 time=0.04791666666666666\n",
      "note_off channel=0 note=62 velocity=127 time=0.019791666666666666\n",
      "note_on channel=0 note=61 velocity=127 time=0.008333333333333333\n",
      "note_on channel=0 note=60 velocity=127 time=0.00625\n",
      "note_off channel=0 note=61 velocity=127 time=0.013541666666666667\n",
      "note_off channel=0 note=60 velocity=127 time=0.00625\n",
      "note_on channel=0 note=62 velocity=127 time=0.04375\n",
      "note_off channel=0 note=62 velocity=127 time=0.019791666666666666\n",
      "note_on channel=0 note=61 velocity=127 time=0.015625\n",
      "note_on channel=0 note=60 velocity=127 time=0.003125\n",
      "note_off channel=0 note=61 velocity=127 time=0.016666666666666666\n",
      "note_off channel=0 note=60 velocity=127 time=0.003125\n",
      "note_on channel=0 note=62 velocity=127 time=0.03854166666666667\n",
      "note_off channel=0 note=62 velocity=127 time=0.019791666666666666\n",
      "note_on channel=0 note=61 velocity=127 time=0.02395833333333333\n",
      "note_on channel=0 note=60 velocity=127 time=0\n",
      "note_off channel=0 note=61 velocity=127 time=0.019791666666666666\n",
      "note_off channel=0 note=60 velocity=127 time=0\n",
      "note_on channel=0 note=62 velocity=127 time=0.034375\n",
      "\u001b[91m [DEBUG] > \u001b[0m\n",
      " |>  to_array: msg.time > max_t; t, n\n",
      " |>  2.9947916666666665\n",
      " |>  150\n",
      "note_on channel=0 note=60 velocity=127 time=0.009375\n",
      "note_on channel=0 note=62 velocity=127 time=0.019791666666666666\n",
      "note_off channel=0 note=60 velocity=127 time=0\n",
      "note_on channel=0 note=61 velocity=127 time=0.004166666666666667\n",
      "note_off channel=0 note=62 velocity=127 time=0.015625\n",
      "note_off channel=0 note=61 velocity=127 time=0.004166666666666667\n",
      "note_on channel=0 note=62 velocity=127 time=0.04583333333333333\n",
      "note_on channel=0 note=61 velocity=127 time=0.005208333333333333\n",
      "note_off channel=0 note=62 velocity=127 time=0.015625\n",
      "note_off channel=0 note=61 velocity=127 time=0.005208333333333333\n",
      "note_on channel=0 note=60 velocity=127 time=0.0010416666666666667\n",
      "note_off channel=0 note=60 velocity=127 time=0.019791666666666666\n",
      "note_on channel=0 note=62 velocity=127 time=0.02395833333333333\n",
      "note_on channel=0 note=61 velocity=127 time=0.005208333333333333\n",
      "note_off channel=0 note=62 velocity=127 time=0.014583333333333334\n",
      "note_off channel=0 note=61 velocity=127 time=0.005208333333333333\n",
      "note_on channel=0 note=62 velocity=127 time=0.04479166666666667\n",
      "note_on channel=0 note=60 velocity=127 time=0.0010416666666666667\n",
      "note_on channel=0 note=61 velocity=127 time=0.005208333333333333\n",
      "note_off channel=0 note=62 velocity=127 time=0.013541666666666667\n",
      "note_off channel=0 note=60 velocity=127 time=0.0010416666666666667\n",
      "note_off channel=0 note=61 velocity=127 time=0.005208333333333333\n",
      "note_on channel=0 note=62 velocity=127 time=0.04375\n",
      "note_on channel=0 note=61 velocity=127 time=0.007291666666666667\n",
      "note_off channel=0 note=62 velocity=127 time=0.0125\n",
      "note_off channel=0 note=61 velocity=127 time=0.007291666666666667\n",
      "note_on channel=0 note=60 velocity=127 time=0.019791666666666666\n",
      "note_off channel=0 note=60 velocity=127 time=0.019791666666666666\n",
      "note_on channel=0 note=62 velocity=127 time=0.003125\n",
      "note_on channel=0 note=61 velocity=127 time=0.007291666666666667\n",
      "note_off channel=0 note=62 velocity=127 time=0.0125\n",
      "note_off channel=0 note=61 velocity=127 time=0.007291666666666667\n",
      "note_on channel=0 note=62 velocity=127 time=0.042708333333333334\n",
      "note_on channel=0 note=61 velocity=127 time=0.008333333333333333\n",
      "note_off channel=0 note=62 velocity=127 time=0.011458333333333333\n",
      "note_on channel=0 note=60 velocity=127 time=0.0020833333333333333\n",
      "note_off channel=0 note=61 velocity=127 time=0.00625\n",
      "note_off channel=0 note=60 velocity=127 time=0.013541666666666667\n",
      "note_on channel=0 note=62 velocity=127 time=0.028125\n",
      "note_on channel=0 note=61 velocity=127 time=0.009375\n",
      "note_off channel=0 note=62 velocity=127 time=0.010416666666666666\n",
      "note_off channel=0 note=61 velocity=127 time=0.009375\n",
      "note_on channel=0 note=60 velocity=127 time=0.03854166666666667\n",
      "note_on channel=0 note=62 velocity=127 time=0.0020833333333333333\n",
      "note_on channel=0 note=61 velocity=127 time=0.009375\n",
      "note_off channel=0 note=60 velocity=127 time=0.007291666666666667\n",
      "note_off channel=0 note=62 velocity=127 time=0.0020833333333333333\n",
      "note_off channel=0 note=61 velocity=127 time=0.009375\n",
      "note_on channel=0 note=62 velocity=127 time=0.040625\n",
      "note_on channel=0 note=61 velocity=127 time=0.010416666666666666\n",
      "note_off channel=0 note=62 velocity=127 time=0.009375\n",
      "note_off channel=0 note=61 velocity=127 time=0.010416666666666666\n",
      "note_on channel=0 note=60 velocity=127 time=0.0125\n",
      "note_off channel=0 note=60 velocity=127 time=0.019791666666666666\n",
      "note_on channel=0 note=62 velocity=127 time=0.007291666666666667\n",
      "note_on channel=0 note=61 velocity=127 time=0.011458333333333333\n",
      "note_off channel=0 note=62 velocity=127 time=0.008333333333333333\n",
      "note_off channel=0 note=61 velocity=127 time=0.011458333333333333\n",
      "note_on channel=0 note=62 velocity=127 time=0.03854166666666667\n",
      "note_on channel=0 note=61 velocity=127 time=0.0125\n",
      "note_on channel=0 note=60 velocity=127 time=0.00625\n",
      "note_off channel=0 note=62 velocity=127 time=0.0020833333333333333\n",
      "note_off channel=0 note=61 velocity=127 time=0.0125\n",
      "note_off channel=0 note=60 velocity=127 time=0.00625\n",
      "note_on channel=0 note=62 velocity=127 time=0.03125\n",
      "note_on channel=0 note=61 velocity=127 time=0.0125\n",
      "note_off channel=0 note=62 velocity=127 time=0.007291666666666667\n",
      "note_off channel=0 note=61 velocity=127 time=0.0125\n",
      "note_on channel=0 note=60 velocity=127 time=0.03125\n",
      "note_on channel=0 note=62 velocity=127 time=0.00625\n",
      "note_on channel=0 note=61 velocity=127 time=0.013541666666666667\n",
      "note_off channel=0 note=60 velocity=127 time=0\n",
      "note_off channel=0 note=62 velocity=127 time=0.00625\n",
      "note_off channel=0 note=61 velocity=127 time=0.013541666666666667\n",
      "note_on channel=0 note=62 velocity=127 time=0.036458333333333336\n",
      "note_on channel=0 note=61 velocity=127 time=0.014583333333333334\n",
      "note_off channel=0 note=62 velocity=127 time=0.00625\n",
      "note_off channel=0 note=61 velocity=127 time=0.014583333333333334\n",
      "note_on channel=0 note=60 velocity=127 time=0.005208333333333333\n",
      "note_off channel=0 note=60 velocity=127 time=0.019791666666666666\n",
      "note_on channel=0 note=62 velocity=127 time=0.010416666666666666\n",
      "note_on channel=0 note=61 velocity=127 time=0.014583333333333334\n",
      "note_off channel=0 note=62 velocity=127 time=0.005208333333333333\n",
      "note_off channel=0 note=61 velocity=127 time=0.014583333333333334\n",
      "note_on channel=0 note=62 velocity=127 time=0.035416666666666666\n",
      "note_on channel=0 note=60 velocity=127 time=0.014583333333333334\n",
      "note_on channel=0 note=61 velocity=127 time=0.0010416666666666667\n",
      "note_off channel=0 note=62 velocity=127 time=0.004166666666666667\n",
      "note_off channel=0 note=60 velocity=127 time=0.014583333333333334\n",
      "note_off channel=0 note=61 velocity=127 time=0.0010416666666666667\n",
      "note_on channel=0 note=62 velocity=127 time=0.034375\n",
      "note_on channel=0 note=61 velocity=127 time=0.016666666666666666\n",
      "note_off channel=0 note=62 velocity=127 time=0.004166666666666667\n",
      "note_off channel=0 note=61 velocity=127 time=0.016666666666666666\n",
      "note_on channel=0 note=60 velocity=127 time=0.02395833333333333\n",
      "note_on channel=0 note=62 velocity=127 time=0.009375\n",
      "note_off channel=0 note=60 velocity=127 time=0.010416666666666666\n",
      "note_on channel=0 note=61 velocity=127 time=0.007291666666666667\n",
      "note_off channel=0 note=62 velocity=127 time=0.003125\n",
      "note_off channel=0 note=61 velocity=127 time=0.016666666666666666\n",
      "note_on channel=0 note=62 velocity=127 time=0.03333333333333333\n",
      "note_on channel=0 note=61 velocity=127 time=0.017708333333333333\n",
      "note_off channel=0 note=62 velocity=127 time=0.0020833333333333333\n",
      "note_on channel=0 note=60 velocity=127 time=0.015625\n",
      "note_off channel=0 note=61 velocity=127 time=0.0020833333333333333\n",
      "note_off channel=0 note=60 velocity=127 time=0.017708333333333333\n",
      "note_on channel=0 note=62 velocity=127 time=0.014583333333333334\n",
      "note_on channel=0 note=61 velocity=127 time=0.01875\n",
      "note_off channel=0 note=62 velocity=127 time=0.0010416666666666667\n",
      "note_off channel=0 note=61 velocity=127 time=0.01875\n",
      "note_on channel=0 note=62 velocity=127 time=0.03125\n",
      "note_on channel=0 note=60 velocity=127 time=0.011458333333333333\n",
      "note_on channel=0 note=61 velocity=127 time=0.008333333333333333\n",
      "note_off channel=0 note=62 velocity=127 time=0.0010416666666666667\n",
      "note_off channel=0 note=60 velocity=127 time=0.011458333333333333\n",
      "note_off channel=0 note=61 velocity=127 time=0.008333333333333333\n",
      "note_on channel=0 note=62 velocity=127 time=0.03125\n",
      "note_on channel=0 note=61 velocity=127 time=0.019791666666666666\n",
      "note_off channel=0 note=62 velocity=127 time=0\n",
      "note_off channel=0 note=61 velocity=127 time=0.019791666666666666\n",
      "note_on channel=0 note=60 velocity=127 time=0.016666666666666666\n",
      "note_on channel=0 note=62 velocity=127 time=0.013541666666666667\n",
      "note_off channel=0 note=60 velocity=127 time=0.00625\n",
      "note_off channel=0 note=62 velocity=127 time=0.013541666666666667\n",
      "note_on channel=0 note=61 velocity=127 time=0.0010416666666666667\n",
      "note_off channel=0 note=61 velocity=127 time=0.019791666666666666\n",
      "note_on channel=0 note=62 velocity=127 time=0.029166666666666667\n",
      "note_off channel=0 note=62 velocity=127 time=0.019791666666666666\n",
      "note_on channel=0 note=61 velocity=127 time=0.0010416666666666667\n",
      "note_on channel=0 note=60 velocity=127 time=0.010416666666666666\n",
      "note_off channel=0 note=61 velocity=127 time=0.009375\n",
      "note_off channel=0 note=60 velocity=127 time=0.010416666666666666\n",
      "note_on channel=0 note=62 velocity=127 time=0.017708333333333333\n",
      "note_off channel=0 note=62 velocity=127 time=0.019791666666666666\n",
      "note_on channel=0 note=61 velocity=127 time=0.0020833333333333333\n",
      "note_off channel=0 note=61 velocity=127 time=0.019791666666666666\n",
      "note_on channel=0 note=62 velocity=127 time=0.028125\n",
      "note_on channel=0 note=60 velocity=127 time=0.007291666666666667\n",
      "note_off channel=0 note=62 velocity=127 time=0.0125\n",
      "note_on channel=0 note=61 velocity=127 time=0.003125\n",
      "note_off channel=0 note=60 velocity=127 time=0.004166666666666667\n",
      "note_off channel=0 note=61 velocity=127 time=0.015625\n",
      "note_on channel=0 note=62 velocity=127 time=0.027083333333333334\n",
      "note_off channel=0 note=62 velocity=127 time=0.019791666666666666\n",
      "note_on channel=0 note=61 velocity=127 time=0.003125\n",
      "note_off channel=0 note=61 velocity=127 time=0.019791666666666666\n",
      "note_on channel=0 note=60 velocity=127 time=0.009375\n",
      "note_on channel=0 note=62 velocity=127 time=0.017708333333333333\n",
      "note_off channel=0 note=60 velocity=127 time=0.003125\n",
      "note_off channel=0 note=62 velocity=127 time=0.017708333333333333\n",
      "note_on channel=0 note=61 velocity=127 time=0.004166666666666667\n",
      "note_off channel=0 note=61 velocity=127 time=0.019791666666666666\n",
      "note_on channel=0 note=62 velocity=127 time=0.026041666666666668\n",
      "note_off channel=0 note=62 velocity=127 time=0.019791666666666666\n",
      "note_on channel=0 note=61 velocity=127 time=0.005208333333333333\n",
      "note_on channel=0 note=60 velocity=127 time=0.003125\n",
      "note_off channel=0 note=61 velocity=127 time=0.016666666666666666\n",
      "note_off channel=0 note=60 velocity=127 time=0.003125\n",
      "note_on channel=0 note=62 velocity=127 time=0.021875\n",
      "note_off channel=0 note=62 velocity=127 time=0.019791666666666666\n",
      "note_on channel=0 note=61 velocity=127 time=0.005208333333333333\n",
      "note_off channel=0 note=61 velocity=127 time=0.019791666666666666\n",
      "note_on channel=0 note=62 velocity=127 time=0.025\n",
      "note_on channel=0 note=60 velocity=127 time=0.004166666666666667\n",
      "note_off channel=0 note=62 velocity=127 time=0.016666666666666666\n",
      "note_off channel=0 note=60 velocity=127 time=0.004166666666666667\n",
      "note_on channel=0 note=61 velocity=127 time=0.0020833333333333333\n",
      "note_off channel=0 note=61 velocity=127 time=0.019791666666666666\n",
      "note_on channel=0 note=62 velocity=127 time=0.02395833333333333\n",
      "note_off channel=0 note=62 velocity=127 time=0.019791666666666666\n",
      "note_on channel=0 note=61 velocity=127 time=0.007291666666666667\n",
      "note_off channel=0 note=61 velocity=127 time=0.019791666666666666\n",
      "note_on channel=0 note=60 velocity=127 time=0.0020833333333333333\n",
      "note_off channel=0 note=60 velocity=127 time=0.019791666666666666\n",
      "note_on channel=0 note=62 velocity=127 time=0.0010416666666666667\n",
      "note_off channel=0 note=62 velocity=127 time=0.019791666666666666\n",
      "note_on channel=0 note=61 velocity=127 time=0.007291666666666667\n",
      "note_off channel=0 note=61 velocity=127 time=0.019791666666666666\n",
      "note_on channel=0 note=62 velocity=127 time=0.022916666666666665\n",
      "note_off channel=0 note=62 velocity=127 time=0.019791666666666666\n",
      "note_on channel=0 note=60 velocity=127 time=0.005208333333333333\n",
      "note_on channel=0 note=61 velocity=127 time=0.004166666666666667\n",
      "note_off channel=0 note=60 velocity=127 time=0.016666666666666666\n",
      "note_off channel=0 note=61 velocity=127 time=0.004166666666666667\n",
      "note_on channel=0 note=62 velocity=127 time=0.021875\n",
      "note_off channel=0 note=62 velocity=127 time=0.019791666666666666\n",
      "note_on channel=0 note=61 velocity=127 time=0.009375\n",
      "note_off channel=0 note=61 velocity=127 time=0.019791666666666666\n",
      "note_on channel=0 note=62 velocity=127 time=0.020833333333333332\n",
      "note_on channel=0 note=60 velocity=127 time=0\n",
      "note_off channel=0 note=62 velocity=127 time=0.019791666666666666\n",
      "note_off channel=0 note=60 velocity=127 time=0\n",
      "note_on channel=0 note=61 velocity=127 time=0.009375\n",
      "note_off channel=0 note=61 velocity=127 time=0.019791666666666666\n",
      "note_on channel=0 note=62 velocity=127 time=0.019791666666666666\n",
      "note_off channel=0 note=62 velocity=127 time=0.019791666666666666\n",
      "note_on channel=0 note=61 velocity=127 time=0.010416666666666666\n",
      "note_on channel=0 note=60 velocity=127 time=0.014583333333333334\n",
      "note_off channel=0 note=61 velocity=127 time=0.005208333333333333\n",
      "note_off channel=0 note=60 velocity=127 time=0.014583333333333334\n",
      "note_on channel=0 note=62 velocity=127 time=0.004166666666666667\n",
      "note_off channel=0 note=62 velocity=127 time=0.019791666666666666\n",
      "note_on channel=0 note=61 velocity=127 time=0.011458333333333333\n",
      "note_off channel=0 note=61 velocity=127 time=0.019791666666666666\n",
      "note_on channel=0 note=62 velocity=127 time=0.01875\n",
      "note_off channel=0 note=62 velocity=127 time=0.019791666666666666\n",
      "note_on channel=0 note=60 velocity=127 time=0.0010416666666666667\n",
      "note_on channel=0 note=61 velocity=127 time=0.011458333333333333\n",
      "note_off channel=0 note=60 velocity=127 time=0.009375\n",
      "note_off channel=0 note=61 velocity=127 time=0.011458333333333333\n",
      "note_on channel=0 note=62 velocity=127 time=0.017708333333333333\n",
      "note_off channel=0 note=62 velocity=127 time=0.019791666666666666\n",
      "note_on channel=0 note=61 velocity=127 time=0.0125\n",
      "note_off channel=0 note=61 velocity=127 time=0.019791666666666666\n",
      "note_on channel=0 note=60 velocity=127 time=0.013541666666666667\n",
      "note_on channel=0 note=62 velocity=127 time=0.003125\n",
      "note_off channel=0 note=60 velocity=127 time=0.016666666666666666\n",
      "note_off channel=0 note=62 velocity=127 time=0.003125\n",
      "note_on channel=0 note=61 velocity=127 time=0.013541666666666667\n",
      "note_off channel=0 note=61 velocity=127 time=0.019791666666666666\n",
      "note_on channel=0 note=62 velocity=127 time=0.016666666666666666\n",
      "note_off channel=0 note=62 velocity=127 time=0.019791666666666666\n",
      "note_on channel=0 note=61 velocity=127 time=0.014583333333333334\n",
      "\u001b[91m [DEBUG] > \u001b[0m\n",
      " |>  to_array: msg.time > max_t; t, n\n",
      " |>  3.0020833333333385\n",
      " |>  150\n",
      "note_on channel=0 note=61 velocity=127 time=0.05625\n",
      "note_off channel=0 note=61 velocity=127 time=0.019791666666666666\n",
      "note_on channel=0 note=62 velocity=127 time=0.04479166666666667\n",
      "note_on channel=0 note=60 velocity=127 time=0.003125\n",
      "note_off channel=0 note=62 velocity=127 time=0.016666666666666666\n",
      "note_off channel=0 note=60 velocity=127 time=0.003125\n",
      "note_on channel=0 note=61 velocity=127 time=0.011458333333333333\n",
      "note_off channel=0 note=61 velocity=127 time=0.019791666666666666\n",
      "note_on channel=0 note=61 velocity=127 time=0.07916666666666666\n",
      "note_on channel=0 note=62 velocity=127 time=0.008333333333333333\n",
      "note_off channel=0 note=61 velocity=127 time=0.011458333333333333\n",
      "note_on channel=0 note=60 velocity=127 time=0.004166666666666667\n",
      "note_off channel=0 note=62 velocity=127 time=0.004166666666666667\n",
      "note_off channel=0 note=60 velocity=127 time=0.015625\n",
      "note_on channel=0 note=61 velocity=127 time=0.05416666666666667\n",
      "note_off channel=0 note=61 velocity=127 time=0.019791666666666666\n",
      "note_on channel=0 note=62 velocity=127 time=0.03125\n",
      "note_off channel=0 note=62 velocity=127 time=0.019791666666666666\n",
      "note_on channel=0 note=60 velocity=127 time=0.008333333333333333\n",
      "note_on channel=0 note=61 velocity=127 time=0.01875\n",
      "note_off channel=0 note=60 velocity=127 time=0.0020833333333333333\n",
      "note_off channel=0 note=61 velocity=127 time=0.01875\n",
      "note_on channel=0 note=62 velocity=127 time=0.075\n",
      "note_on channel=0 note=61 velocity=127 time=0.004166666666666667\n",
      "note_off channel=0 note=62 velocity=127 time=0.015625\n",
      "note_off channel=0 note=61 velocity=127 time=0.004166666666666667\n",
      "note_on channel=0 note=60 velocity=127 time=0.017708333333333333\n",
      "note_off channel=0 note=60 velocity=127 time=0.019791666666666666\n",
      "note_on channel=0 note=61 velocity=127 time=0.041666666666666664\n",
      "note_off channel=0 note=61 velocity=127 time=0.019791666666666666\n",
      "note_on channel=0 note=62 velocity=127 time=0.01875\n",
      "note_off channel=0 note=62 velocity=127 time=0.019791666666666666\n",
      "note_on channel=0 note=60 velocity=127 time=0.034375\n",
      "note_on channel=0 note=61 velocity=127 time=0.005208333333333333\n",
      "note_off channel=0 note=60 velocity=127 time=0.014583333333333334\n",
      "note_off channel=0 note=61 velocity=127 time=0.005208333333333333\n",
      "note_on channel=0 note=62 velocity=127 time=0.06145833333333333\n",
      "note_on channel=0 note=61 velocity=127 time=0.016666666666666666\n",
      "note_off channel=0 note=62 velocity=127 time=0.003125\n",
      "note_off channel=0 note=61 velocity=127 time=0.016666666666666666\n",
      "note_on channel=0 note=60 velocity=127 time=0.030208333333333334\n",
      "note_off channel=0 note=60 velocity=127 time=0.019791666666666666\n",
      "note_on channel=0 note=61 velocity=127 time=0.029166666666666667\n",
      "note_off channel=0 note=61 velocity=127 time=0.019791666666666666\n",
      "note_on channel=0 note=62 velocity=127 time=0.00625\n",
      "note_off channel=0 note=62 velocity=127 time=0.019791666666666666\n",
      "note_on channel=0 note=61 velocity=127 time=0.053125\n",
      "note_on channel=0 note=60 velocity=127 time=0.007291666666666667\n",
      "note_off channel=0 note=61 velocity=127 time=0.0125\n",
      "note_off channel=0 note=60 velocity=127 time=0.007291666666666667\n",
      "note_on channel=0 note=62 velocity=127 time=0.041666666666666664\n",
      "note_off channel=0 note=62 velocity=127 time=0.019791666666666666\n",
      "note_on channel=0 note=61 velocity=127 time=0.010416666666666666\n",
      "note_off channel=0 note=61 velocity=127 time=0.019791666666666666\n",
      "note_on channel=0 note=60 velocity=127 time=0.042708333333333334\n",
      "note_off channel=0 note=60 velocity=127 time=0.019791666666666666\n",
      "note_on channel=0 note=61 velocity=127 time=0.015625\n",
      "note_on channel=0 note=62 velocity=127 time=0.0125\n",
      "note_off channel=0 note=61 velocity=127 time=0.007291666666666667\n",
      "note_off channel=0 note=62 velocity=127 time=0.0125\n",
      "note_on channel=0 note=61 velocity=127 time=0.065625\n",
      "note_on channel=0 note=60 velocity=127 time=0.019791666666666666\n",
      "note_off channel=0 note=61 velocity=127 time=0\n",
      "note_off channel=0 note=60 velocity=127 time=0.019791666666666666\n",
      "note_on channel=0 note=62 velocity=127 time=0.015625\n",
      "note_off channel=0 note=62 velocity=127 time=0.019791666666666666\n",
      "note_on channel=0 note=61 velocity=127 time=0.022916666666666665\n",
      "note_off channel=0 note=61 velocity=127 time=0.019791666666666666\n",
      "note_on channel=0 note=60 velocity=127 time=0.05520833333333333\n",
      "note_off channel=0 note=60 velocity=127 time=0.019791666666666666\n",
      "note_on channel=0 note=61 velocity=127 time=0.003125\n",
      "note_on channel=0 note=62 velocity=127 time=0\n",
      "note_off channel=0 note=61 velocity=127 time=0.019791666666666666\n",
      "note_off channel=0 note=62 velocity=127 time=0\n",
      "note_on channel=0 note=61 velocity=127 time=0.07916666666666666\n",
      "note_off channel=0 note=61 velocity=127 time=0.019791666666666666\n",
      "note_on channel=0 note=60 velocity=127 time=0.0125\n",
      "note_on channel=0 note=62 velocity=127 time=0.010416666666666666\n",
      "note_off channel=0 note=60 velocity=127 time=0.009375\n",
      "note_off channel=0 note=62 velocity=127 time=0.010416666666666666\n",
      "note_on channel=0 note=61 velocity=127 time=0.035416666666666666\n",
      "note_off channel=0 note=61 velocity=127 time=0.019791666666666666\n",
      "note_on channel=0 note=62 velocity=127 time=0.065625\n",
      "note_on channel=0 note=60 velocity=127 time=0.0020833333333333333\n",
      "note_on channel=0 note=61 velocity=127 time=0.010416666666666666\n",
      "note_off channel=0 note=62 velocity=127 time=0.007291666666666667\n",
      "note_off channel=0 note=60 velocity=127 time=0.0020833333333333333\n",
      "note_off channel=0 note=61 velocity=127 time=0.010416666666666666\n",
      "note_on channel=0 note=61 velocity=127 time=0.07916666666666666\n",
      "note_off channel=0 note=61 velocity=127 time=0.019791666666666666\n",
      "note_on channel=0 note=62 velocity=127 time=0.010416666666666666\n",
      "note_on channel=0 note=60 velocity=127 time=0.015625\n",
      "note_off channel=0 note=62 velocity=127 time=0.005208333333333333\n",
      "note_off channel=0 note=60 velocity=127 time=0.015625\n",
      "note_on channel=0 note=61 velocity=127 time=0.03333333333333333\n",
      "note_off channel=0 note=61 velocity=127 time=0.019791666666666666\n",
      "note_on channel=0 note=62 velocity=127 time=0.053125\n",
      "note_off channel=0 note=62 velocity=127 time=0.019791666666666666\n",
      "note_on channel=0 note=61 velocity=127 time=0.00625\n",
      "note_on channel=0 note=60 velocity=127 time=0.0020833333333333333\n",
      "note_off channel=0 note=61 velocity=127 time=0.017708333333333333\n",
      "note_off channel=0 note=60 velocity=127 time=0.0020833333333333333\n",
      "note_on channel=0 note=61 velocity=127 time=0.07708333333333334\n",
      "note_on channel=0 note=62 velocity=127 time=0.017708333333333333\n",
      "note_off channel=0 note=61 velocity=127 time=0.003125\n",
      "note_off channel=0 note=62 velocity=127 time=0.017708333333333333\n",
      "note_on channel=0 note=60 velocity=127 time=0.020833333333333332\n",
      "note_off channel=0 note=60 velocity=127 time=0.019791666666666666\n",
      "note_on channel=0 note=61 velocity=127 time=0.020833333333333332\n",
      "note_off channel=0 note=61 velocity=127 time=0.019791666666666666\n",
      "note_on channel=0 note=62 velocity=127 time=0.040625\n",
      "note_off channel=0 note=62 velocity=127 time=0.019791666666666666\n",
      "note_on channel=0 note=61 velocity=127 time=0.01875\n",
      "note_on channel=0 note=60 velocity=127 time=0.014583333333333334\n",
      "note_off channel=0 note=61 velocity=127 time=0.005208333333333333\n",
      "note_off channel=0 note=60 velocity=127 time=0.014583333333333334\n",
      "note_on channel=0 note=61 velocity=127 time=0.06354166666666666\n",
      "note_on channel=0 note=62 velocity=127 time=0.004166666666666667\n",
      "note_off channel=0 note=61 velocity=127 time=0.015625\n",
      "note_off channel=0 note=62 velocity=127 time=0.004166666666666667\n",
      "note_on channel=0 note=60 velocity=127 time=0.046875\n",
      "note_off channel=0 note=60 velocity=127 time=0.019791666666666666\n",
      "note_on channel=0 note=61 velocity=127 time=0.008333333333333333\n",
      "note_off channel=0 note=61 velocity=127 time=0.019791666666666666\n",
      "note_on channel=0 note=62 velocity=127 time=0.027083333333333334\n",
      "note_off channel=0 note=62 velocity=127 time=0.019791666666666666\n",
      "note_on channel=0 note=61 velocity=127 time=0.03125\n",
      "note_off channel=0 note=61 velocity=127 time=0.019791666666666666\n",
      "note_on channel=0 note=60 velocity=127 time=0.007291666666666667\n",
      "note_off channel=0 note=60 velocity=127 time=0.019791666666666666\n",
      "note_on channel=0 note=62 velocity=127 time=0.042708333333333334\n",
      "note_on channel=0 note=61 velocity=127 time=0.008333333333333333\n",
      "note_off channel=0 note=62 velocity=127 time=0.011458333333333333\n",
      "note_off channel=0 note=61 velocity=127 time=0.008333333333333333\n",
      "note_on channel=0 note=60 velocity=127 time=0.06354166666666666\n",
      "note_on channel=0 note=61 velocity=127 time=0.015625\n",
      "note_off channel=0 note=60 velocity=127 time=0.004166666666666667\n",
      "note_off channel=0 note=61 velocity=127 time=0.015625\n",
      "note_on channel=0 note=62 velocity=127 time=0.014583333333333334\n",
      "note_off channel=0 note=62 velocity=127 time=0.019791666666666666\n",
      "note_on channel=0 note=61 velocity=127 time=0.04479166666666667\n",
      "\u001b[91m [DEBUG] > \u001b[0m\n",
      " |>  to_array: msg.time > max_t; t, n\n",
      " |>  3.0145833333333356\n",
      " |>  150\n",
      "note_on channel=0 note=62 velocity=127 time=0.021875\n",
      "note_on channel=0 note=61 velocity=127 time=0.0010416666666666667\n",
      "note_off channel=0 note=62 velocity=127 time=0.019791666666666666\n",
      "note_off channel=0 note=61 velocity=127 time=0.0010416666666666667\n",
      "note_on channel=0 note=60 velocity=127 time=0.03854166666666667\n",
      "note_off channel=0 note=60 velocity=127 time=0.019791666666666666\n",
      "note_on channel=0 note=61 velocity=127 time=0.008333333333333333\n",
      "note_off channel=0 note=61 velocity=127 time=0.019791666666666666\n",
      "note_on channel=0 note=62 velocity=127 time=0.013541666666666667\n",
      "note_off channel=0 note=62 velocity=127 time=0.019791666666666666\n",
      "note_on channel=0 note=60 velocity=127 time=0.0020833333333333333\n",
      "note_off channel=0 note=60 velocity=127 time=0.019791666666666666\n",
      "note_on channel=0 note=61 velocity=127 time=0.011458333333333333\n",
      "note_off channel=0 note=61 velocity=127 time=0.019791666666666666\n",
      "note_on channel=0 note=60 velocity=127 time=0.03229166666666666\n",
      "note_on channel=0 note=62 velocity=127 time=0.015625\n",
      "note_off channel=0 note=60 velocity=127 time=0.004166666666666667\n",
      "note_on channel=0 note=61 velocity=127 time=0.014583333333333334\n",
      "note_off channel=0 note=62 velocity=127 time=0.0010416666666666667\n",
      "note_off channel=0 note=61 velocity=127 time=0.01875\n",
      "note_on channel=0 note=60 velocity=127 time=0.029166666666666667\n",
      "note_off channel=0 note=60 velocity=127 time=0.019791666666666666\n",
      "note_on channel=0 note=61 velocity=127 time=0.017708333333333333\n",
      "note_on channel=0 note=62 velocity=127 time=0.015625\n",
      "note_off channel=0 note=61 velocity=127 time=0.004166666666666667\n",
      "note_off channel=0 note=62 velocity=127 time=0.015625\n",
      "note_on channel=0 note=60 velocity=127 time=0.010416666666666666\n",
      "note_off channel=0 note=60 velocity=127 time=0.019791666666666666\n",
      "note_on channel=0 note=61 velocity=127 time=0.020833333333333332\n",
      "note_off channel=0 note=61 velocity=127 time=0.019791666666666666\n",
      "note_on channel=0 note=60 velocity=127 time=0.022916666666666665\n",
      "note_on channel=0 note=62 velocity=127 time=0.007291666666666667\n",
      "note_off channel=0 note=60 velocity=127 time=0.0125\n",
      "note_off channel=0 note=62 velocity=127 time=0.007291666666666667\n",
      "note_on channel=0 note=61 velocity=127 time=0.016666666666666666\n",
      "note_off channel=0 note=61 velocity=127 time=0.019791666666666666\n",
      "note_on channel=0 note=60 velocity=127 time=0.019791666666666666\n",
      "note_off channel=0 note=60 velocity=127 time=0.019791666666666666\n",
      "note_on channel=0 note=62 velocity=127 time=0.025\n",
      "note_on channel=0 note=61 velocity=127 time=0.0020833333333333333\n",
      "note_off channel=0 note=62 velocity=127 time=0.017708333333333333\n",
      "note_off channel=0 note=61 velocity=127 time=0.0020833333333333333\n",
      "note_on channel=0 note=60 velocity=127 time=0.016666666666666666\n",
      "note_off channel=0 note=60 velocity=127 time=0.019791666666666666\n",
      "note_on channel=0 note=61 velocity=127 time=0.030208333333333334\n",
      "note_off channel=0 note=61 velocity=127 time=0.019791666666666666\n",
      "note_on channel=0 note=62 velocity=127 time=0.0125\n",
      "note_on channel=0 note=60 velocity=127 time=0.0010416666666666667\n",
      "note_off channel=0 note=62 velocity=127 time=0.01875\n",
      "note_off channel=0 note=60 velocity=127 time=0.0010416666666666667\n",
      "note_on channel=0 note=61 velocity=127 time=0.03333333333333333\n",
      "note_off channel=0 note=61 velocity=127 time=0.019791666666666666\n"
     ]
    },
    {
     "name": "stdout",
     "output_type": "stream",
     "text": [
      "note_on channel=0 note=60 velocity=127 time=0.010416666666666666\n",
      "note_off channel=0 note=60 velocity=127 time=0.019791666666666666\n",
      "note_on channel=0 note=62 velocity=127 time=0.015625\n",
      "note_off channel=0 note=62 velocity=127 time=0.019791666666666666\n",
      "note_on channel=0 note=61 velocity=127 time=0\n",
      "note_off channel=0 note=61 velocity=127 time=0.019791666666666666\n",
      "note_on channel=0 note=60 velocity=127 time=0.007291666666666667\n",
      "note_off channel=0 note=60 velocity=127 time=0.019791666666666666\n",
      "note_on channel=0 note=61 velocity=127 time=0.03958333333333333\n",
      "note_on channel=0 note=62 velocity=127 time=0.013541666666666667\n",
      "note_off channel=0 note=61 velocity=127 time=0.00625\n",
      "note_on channel=0 note=60 velocity=127 time=0.004166666666666667\n",
      "note_off channel=0 note=62 velocity=127 time=0.009375\n",
      "note_off channel=0 note=60 velocity=127 time=0.010416666666666666\n",
      "note_on channel=0 note=61 velocity=127 time=0.042708333333333334\n",
      "note_off channel=0 note=61 velocity=127 time=0.019791666666666666\n",
      "note_on channel=0 note=60 velocity=127 time=0.0010416666666666667\n",
      "note_off channel=0 note=60 velocity=127 time=0.019791666666666666\n",
      "note_on channel=0 note=62 velocity=127 time=0.007291666666666667\n",
      "note_off channel=0 note=62 velocity=127 time=0.019791666666666666\n",
      "note_on channel=0 note=61 velocity=127 time=0.01875\n",
      "note_on channel=0 note=60 velocity=127 time=0.017708333333333333\n",
      "note_off channel=0 note=61 velocity=127 time=0.0020833333333333333\n",
      "note_off channel=0 note=60 velocity=127 time=0.017708333333333333\n",
      "note_on channel=0 note=62 velocity=127 time=0.04479166666666667\n",
      "note_on channel=0 note=61 velocity=127 time=0.004166666666666667\n",
      "note_on channel=0 note=60 velocity=127 time=0.014583333333333334\n",
      "note_off channel=0 note=62 velocity=127 time=0.0010416666666666667\n",
      "note_off channel=0 note=61 velocity=127 time=0.004166666666666667\n",
      "note_off channel=0 note=60 velocity=127 time=0.014583333333333334\n",
      "note_on channel=0 note=61 velocity=127 time=0.052083333333333336\n",
      "note_on channel=0 note=60 velocity=127 time=0.011458333333333333\n",
      "note_off channel=0 note=61 velocity=127 time=0.008333333333333333\n",
      "note_on channel=0 note=62 velocity=127 time=0.010416666666666666\n",
      "note_off channel=0 note=60 velocity=127 time=0.0010416666666666667\n",
      "note_off channel=0 note=62 velocity=127 time=0.01875\n",
      "note_on channel=0 note=61 velocity=127 time=0.036458333333333336\n",
      "note_on channel=0 note=60 velocity=127 time=0.008333333333333333\n",
      "note_off channel=0 note=61 velocity=127 time=0.011458333333333333\n",
      "note_off channel=0 note=60 velocity=127 time=0.008333333333333333\n",
      "note_on channel=0 note=62 velocity=127 time=0.036458333333333336\n",
      "note_off channel=0 note=62 velocity=127 time=0.019791666666666666\n",
      "note_on channel=0 note=61 velocity=127 time=0.0020833333333333333\n",
      "note_on channel=0 note=60 velocity=127 time=0.005208333333333333\n",
      "note_off channel=0 note=61 velocity=127 time=0.014583333333333334\n",
      "note_off channel=0 note=60 velocity=127 time=0.005208333333333333\n",
      "note_on channel=0 note=61 velocity=127 time=0.06145833333333333\n",
      "note_on channel=0 note=60 velocity=127 time=0.0020833333333333333\n",
      "note_on channel=0 note=62 velocity=127 time=0.010416666666666666\n",
      "note_off channel=0 note=61 velocity=127 time=0.007291666666666667\n",
      "note_off channel=0 note=60 velocity=127 time=0.0020833333333333333\n",
      "note_off channel=0 note=62 velocity=127 time=0.010416666666666666\n",
      "note_on channel=0 note=60 velocity=127 time=0.053125\n",
      "note_on channel=0 note=61 velocity=127 time=0.0010416666666666667\n",
      "note_off channel=0 note=60 velocity=127 time=0.01875\n",
      "note_off channel=0 note=61 velocity=127 time=0.0010416666666666667\n",
      "note_on channel=0 note=62 velocity=127 time=0.027083333333333334\n",
      "note_off channel=0 note=62 velocity=127 time=0.019791666666666666\n",
      "note_on channel=0 note=60 velocity=127 time=0.015625\n",
      "note_on channel=0 note=61 velocity=127 time=0.004166666666666667\n",
      "note_off channel=0 note=60 velocity=127 time=0.015625\n",
      "note_off channel=0 note=61 velocity=127 time=0.004166666666666667\n",
      "note_on channel=0 note=60 velocity=127 time=0.059375\n",
      "note_on channel=0 note=62 velocity=127 time=0.0010416666666666667\n",
      "note_on channel=0 note=61 velocity=127 time=0.005208333333333333\n",
      "note_off channel=0 note=60 velocity=127 time=0.0125\n",
      "note_off channel=0 note=62 velocity=127 time=0.0010416666666666667\n",
      "note_off channel=0 note=61 velocity=127 time=0.005208333333333333\n",
      "note_on channel=0 note=60 velocity=127 time=0.05625\n",
      "note_on channel=0 note=61 velocity=127 time=0.010416666666666666\n",
      "note_off channel=0 note=60 velocity=127 time=0.009375\n",
      "note_off channel=0 note=61 velocity=127 time=0.010416666666666666\n",
      "note_on channel=0 note=62 velocity=127 time=0.008333333333333333\n",
      "note_off channel=0 note=62 velocity=127 time=0.019791666666666666\n",
      "note_on channel=0 note=60 velocity=127 time=0.025\n",
      "note_on channel=0 note=61 velocity=127 time=0.013541666666666667\n",
      "note_off channel=0 note=60 velocity=127 time=0.00625\n",
      "note_off channel=0 note=61 velocity=127 time=0.013541666666666667\n",
      "note_on channel=0 note=62 velocity=127 time=0.042708333333333334\n",
      "note_on channel=0 note=60 velocity=127 time=0.007291666666666667\n",
      "note_off channel=0 note=62 velocity=127 time=0.0125\n",
      "note_on channel=0 note=61 velocity=127 time=0.004166666666666667\n",
      "note_off channel=0 note=60 velocity=127 time=0.003125\n",
      "note_off channel=0 note=61 velocity=127 time=0.016666666666666666\n",
      "note_on channel=0 note=60 velocity=127 time=0.046875\n",
      "note_on channel=0 note=61 velocity=127 time=0.019791666666666666\n",
      "note_off channel=0 note=60 velocity=127 time=0\n",
      "note_on channel=0 note=62 velocity=127 time=0.010416666666666666\n",
      "note_off channel=0 note=61 velocity=127 time=0.009375\n",
      "note_off channel=0 note=62 velocity=127 time=0.010416666666666666\n",
      "note_on channel=0 note=60 velocity=127 time=0.03333333333333333\n",
      "note_off channel=0 note=60 velocity=127 time=0.019791666666666666\n",
      "note_on channel=0 note=61 velocity=127 time=0.003125\n",
      "note_off channel=0 note=61 velocity=127 time=0.019791666666666666\n",
      "note_on channel=0 note=62 velocity=127 time=0.025\n",
      "note_on channel=0 note=60 velocity=127 time=0.015625\n",
      "note_off channel=0 note=62 velocity=127 time=0.004166666666666667\n",
      "note_off channel=0 note=60 velocity=127 time=0.015625\n",
      "note_on channel=0 note=61 velocity=127 time=0.00625\n",
      "note_off channel=0 note=61 velocity=127 time=0.019791666666666666\n",
      "note_on channel=0 note=60 velocity=127 time=0.0375\n",
      "note_off channel=0 note=60 velocity=127 time=0.019791666666666666\n",
      "note_on channel=0 note=62 velocity=127 time=0.0020833333333333333\n",
      "note_on channel=0 note=61 velocity=127 time=0.007291666666666667\n",
      "note_off channel=0 note=62 velocity=127 time=0.0125\n",
      "note_off channel=0 note=61 velocity=127 time=0.007291666666666667\n",
      "note_on channel=0 note=60 velocity=127 time=0.034375\n",
      "note_off channel=0 note=60 velocity=127 time=0.019791666666666666\n",
      "note_on channel=0 note=61 velocity=127 time=0.0125\n",
      "note_off channel=0 note=61 velocity=127 time=0.019791666666666666\n",
      "note_on channel=0 note=62 velocity=127 time=0.007291666666666667\n",
      "note_off channel=0 note=62 velocity=127 time=0.019791666666666666\n",
      "note_on channel=0 note=60 velocity=127 time=0.004166666666666667\n",
      "note_off channel=0 note=60 velocity=127 time=0.019791666666666666\n",
      "note_on channel=0 note=61 velocity=127 time=0.015625\n",
      "note_off channel=0 note=61 velocity=127 time=0.019791666666666666\n",
      "note_on channel=0 note=60 velocity=127 time=0.028125\n",
      "note_on channel=0 note=62 velocity=127 time=0.013541666666666667\n",
      "note_off channel=0 note=60 velocity=127 time=0.007291666666666667\n",
      "note_off channel=0 note=62 velocity=127 time=0.013541666666666667\n",
      "note_on channel=0 note=61 velocity=127 time=0.005208333333333333\n",
      "note_off channel=0 note=61 velocity=127 time=0.019791666666666666\n",
      "note_on channel=0 note=60 velocity=127 time=0.025\n",
      "note_off channel=0 note=60 velocity=127 time=0.019791666666666666\n",
      "note_on channel=0 note=61 velocity=127 time=0.021875\n",
      "note_on channel=0 note=62 velocity=127 time=0.009375\n",
      "note_off channel=0 note=61 velocity=127 time=0.011458333333333333\n",
      "note_off channel=0 note=62 velocity=127 time=0.009375\n",
      "note_on channel=0 note=60 velocity=127 time=0.013541666666666667\n",
      "note_off channel=0 note=60 velocity=127 time=0.019791666666666666\n",
      "note_on channel=0 note=61 velocity=127 time=0.025\n",
      "note_off channel=0 note=61 velocity=127 time=0.019791666666666666\n",
      "note_on channel=0 note=60 velocity=127 time=0.01875\n",
      "note_on channel=0 note=62 velocity=127 time=0.004166666666666667\n",
      "note_off channel=0 note=60 velocity=127 time=0.015625\n",
      "note_off channel=0 note=62 velocity=127 time=0.004166666666666667\n",
      "note_on channel=0 note=61 velocity=127 time=0.022916666666666665\n",
      "note_off channel=0 note=61 velocity=127 time=0.019791666666666666\n",
      "note_on channel=0 note=60 velocity=127 time=0.015625\n",
      "\u001b[91m [DEBUG] > \u001b[0m\n",
      " |>  to_array: msg.time > max_t; t, n\n",
      " |>  2.9979166666666703\n",
      " |>  150\n",
      "note_on channel=0 note=62 velocity=127 time=0.004166666666666667\n",
      "note_off channel=0 note=62 velocity=127 time=0.019791666666666666\n",
      "note_on channel=0 note=60 velocity=127 time=0.0625\n",
      "note_on channel=0 note=62 velocity=127 time=0.015625\n",
      "note_off channel=0 note=60 velocity=127 time=0.004166666666666667\n",
      "note_off channel=0 note=62 velocity=127 time=0.015625\n",
      "note_on channel=0 note=61 velocity=127 time=0.02395833333333333\n",
      "note_off channel=0 note=61 velocity=127 time=0.019791666666666666\n",
      "note_on channel=0 note=62 velocity=127 time=0.034375\n",
      "note_on channel=0 note=60 velocity=127 time=0.00625\n",
      "note_off channel=0 note=62 velocity=127 time=0.013541666666666667\n",
      "note_off channel=0 note=60 velocity=127 time=0.00625\n",
      "note_on channel=0 note=62 velocity=127 time=0.071875\n",
      "note_off channel=0 note=62 velocity=127 time=0.019791666666666666\n",
      "note_on channel=0 note=61 velocity=127 time=0.008333333333333333\n",
      "note_on channel=0 note=60 velocity=127 time=0.0010416666666666667\n",
      "note_off channel=0 note=61 velocity=127 time=0.019791666666666666\n",
      "note_off channel=0 note=60 velocity=127 time=0.0010416666666666667\n",
      "note_on channel=0 note=62 velocity=127 time=0.05\n",
      "note_off channel=0 note=62 velocity=127 time=0.019791666666666666\n",
      "note_on channel=0 note=60 velocity=127 time=0.03125\n",
      "note_off channel=0 note=60 velocity=127 time=0.019791666666666666\n",
      "note_on channel=0 note=62 velocity=127 time=0.027083333333333334\n",
      "note_on channel=0 note=61 velocity=127 time=0.0125\n",
      "note_off channel=0 note=62 velocity=127 time=0.007291666666666667\n",
      "note_off channel=0 note=61 velocity=127 time=0.0125\n",
      "note_on channel=0 note=60 velocity=127 time=0.040625\n",
      "note_off channel=0 note=60 velocity=127 time=0.019791666666666666\n",
      "note_on channel=0 note=62 velocity=127 time=0.005208333333333333\n",
      "note_off channel=0 note=62 velocity=127 time=0.019791666666666666\n",
      "note_on channel=0 note=61 velocity=127 time=0.07604166666666666\n",
      "note_on channel=0 note=60 velocity=127 time=0\n",
      "note_on channel=0 note=62 velocity=127 time=0.003125\n",
      "note_off channel=0 note=61 velocity=127 time=0.017708333333333333\n",
      "note_off channel=0 note=60 velocity=127 time=0\n",
      "note_off channel=0 note=62 velocity=127 time=0.003125\n",
      "note_on channel=0 note=62 velocity=127 time=0.078125\n",
      "note_on channel=0 note=60 velocity=127 time=0.019791666666666666\n",
      "note_off channel=0 note=62 velocity=127 time=0\n",
      "note_off channel=0 note=60 velocity=127 time=0.019791666666666666\n",
      "note_on channel=0 note=61 velocity=127 time=0.040625\n",
      "note_on channel=0 note=62 velocity=127 time=0.01875\n",
      "note_off channel=0 note=61 velocity=127 time=0.0020833333333333333\n",
      "note_off channel=0 note=62 velocity=127 time=0.01875\n",
      "note_on channel=0 note=60 velocity=127 time=0.021875\n",
      "note_off channel=0 note=60 velocity=127 time=0.019791666666666666\n",
      "note_on channel=0 note=62 velocity=127 time=0.036458333333333336\n",
      "note_off channel=0 note=62 velocity=127 time=0.019791666666666666\n",
      "note_on channel=0 note=60 velocity=127 time=0.04479166666666667\n",
      "note_on channel=0 note=61 velocity=127 time=0.0010416666666666667\n",
      "note_off channel=0 note=60 velocity=127 time=0.019791666666666666\n",
      "note_off channel=0 note=61 velocity=127 time=0.0010416666666666667\n",
      "note_on channel=0 note=62 velocity=127 time=0.013541666666666667\n",
      "note_off channel=0 note=62 velocity=127 time=0.019791666666666666\n",
      "note_on channel=0 note=60 velocity=127 time=0.06666666666666667\n",
      "note_on channel=0 note=62 velocity=127 time=0.0125\n",
      "note_off channel=0 note=60 velocity=127 time=0.008333333333333333\n",
      "note_off channel=0 note=62 velocity=127 time=0.0125\n",
      "note_on channel=0 note=61 velocity=127 time=0.029166666666666667\n",
      "note_off channel=0 note=61 velocity=127 time=0.019791666666666666\n",
      "note_on channel=0 note=62 velocity=127 time=0.029166666666666667\n",
      "note_on channel=0 note=60 velocity=127 time=0.010416666666666666\n",
      "note_off channel=0 note=62 velocity=127 time=0.009375\n",
      "note_off channel=0 note=60 velocity=127 time=0.010416666666666666\n",
      "note_on channel=0 note=62 velocity=127 time=0.06875\n",
      "note_off channel=0 note=62 velocity=127 time=0.019791666666666666\n",
      "note_on channel=0 note=60 velocity=127 time=0.0125\n",
      "note_on channel=0 note=61 velocity=127 time=0.0010416666666666667\n",
      "note_off channel=0 note=60 velocity=127 time=0.01875\n",
      "note_off channel=0 note=61 velocity=127 time=0.0010416666666666667\n",
      "note_on channel=0 note=62 velocity=127 time=0.04479166666666667\n",
      "note_off channel=0 note=62 velocity=127 time=0.019791666666666666\n",
      "note_on channel=0 note=60 velocity=127 time=0.035416666666666666\n",
      "note_off channel=0 note=60 velocity=127 time=0.019791666666666666\n",
      "note_on channel=0 note=62 velocity=127 time=0.02395833333333333\n",
      "note_on channel=0 note=61 velocity=127 time=0.017708333333333333\n",
      "note_off channel=0 note=62 velocity=127 time=0.0020833333333333333\n",
      "note_off channel=0 note=61 velocity=127 time=0.017708333333333333\n",
      "note_on channel=0 note=60 velocity=127 time=0.03958333333333333\n",
      "note_off channel=0 note=60 velocity=127 time=0.019791666666666666\n",
      "note_on channel=0 note=62 velocity=127 time=0.0010416666666666667\n",
      "note_off channel=0 note=62 velocity=127 time=0.019791666666666666\n",
      "note_on channel=0 note=62 velocity=127 time=0.078125\n",
      "note_on channel=0 note=60 velocity=127 time=0.0010416666666666667\n",
      "note_on channel=0 note=61 velocity=127 time=0.0020833333333333333\n",
      "note_off channel=0 note=62 velocity=127 time=0.017708333333333333\n",
      "note_off channel=0 note=60 velocity=127 time=0.0010416666666666667\n",
      "note_off channel=0 note=61 velocity=127 time=0.0020833333333333333\n",
      "note_on channel=0 note=62 velocity=127 time=0.07604166666666666\n",
      "note_off channel=0 note=62 velocity=127 time=0.019791666666666666\n",
      "note_on channel=0 note=60 velocity=127 time=0.003125\n",
      "note_off channel=0 note=60 velocity=127 time=0.019791666666666666\n",
      "note_on channel=0 note=61 velocity=127 time=0.042708333333333334\n",
      "note_on channel=0 note=62 velocity=127 time=0.0125\n",
      "note_off channel=0 note=61 velocity=127 time=0.007291666666666667\n",
      "note_off channel=0 note=62 velocity=127 time=0.0125\n",
      "note_on channel=0 note=60 velocity=127 time=0.026041666666666668\n",
      "note_off channel=0 note=60 velocity=127 time=0.019791666666666666\n",
      "note_on channel=0 note=62 velocity=127 time=0.03333333333333333\n",
      "note_off channel=0 note=62 velocity=127 time=0.019791666666666666\n",
      "note_on channel=0 note=60 velocity=127 time=0.04791666666666666\n",
      "note_on channel=0 note=61 velocity=127 time=0.0020833333333333333\n",
      "note_off channel=0 note=60 velocity=127 time=0.017708333333333333\n",
      "note_off channel=0 note=61 velocity=127 time=0.0020833333333333333\n",
      "note_on channel=0 note=62 velocity=127 time=0.008333333333333333\n",
      "note_off channel=0 note=62 velocity=127 time=0.019791666666666666\n",
      "note_on channel=0 note=60 velocity=127 time=0.07083333333333333\n",
      "note_on channel=0 note=62 velocity=127 time=0.008333333333333333\n",
      "note_off channel=0 note=60 velocity=127 time=0.011458333333333333\n",
      "note_off channel=0 note=62 velocity=127 time=0.008333333333333333\n",
      "note_on channel=0 note=61 velocity=127 time=0.034375\n",
      "note_off channel=0 note=61 velocity=127 time=0.019791666666666666\n",
      "note_on channel=0 note=62 velocity=127 time=0.02395833333333333\n",
      "note_on channel=0 note=60 velocity=127 time=0.014583333333333334\n",
      "note_off channel=0 note=62 velocity=127 time=0.00625\n",
      "note_off channel=0 note=60 velocity=127 time=0.014583333333333334\n",
      "note_on channel=0 note=62 velocity=127 time=0.06458333333333333\n",
      "note_off channel=0 note=62 velocity=127 time=0.019791666666666666\n",
      "note_on channel=0 note=60 velocity=127 time=0.016666666666666666\n",
      "note_on channel=0 note=61 velocity=127 time=0.003125\n",
      "note_off channel=0 note=60 velocity=127 time=0.017708333333333333\n",
      "note_off channel=0 note=61 velocity=127 time=0.003125\n",
      "note_on channel=0 note=62 velocity=127 time=0.03958333333333333\n",
      "note_off channel=0 note=62 velocity=127 time=0.019791666666666666\n",
      "note_on channel=0 note=60 velocity=127 time=0.03854166666666667\n",
      "note_off channel=0 note=60 velocity=127 time=0.019791666666666666\n",
      "note_on channel=0 note=62 velocity=127 time=0.019791666666666666\n",
      "note_off channel=0 note=62 velocity=127 time=0.019791666666666666\n",
      "note_on channel=0 note=61 velocity=127 time=0.003125\n",
      "note_off channel=0 note=61 velocity=127 time=0.019791666666666666\n",
      "note_on channel=0 note=60 velocity=127 time=0.0375\n",
      "note_on channel=0 note=62 velocity=127 time=0.017708333333333333\n",
      "note_off channel=0 note=60 velocity=127 time=0.0020833333333333333\n",
      "note_off channel=0 note=62 velocity=127 time=0.017708333333333333\n",
      "note_on channel=0 note=62 velocity=127 time=0.078125\n",
      "note_on channel=0 note=60 velocity=127 time=0.005208333333333333\n",
      "note_on channel=0 note=61 velocity=127 time=0.003125\n",
      "note_off channel=0 note=62 velocity=127 time=0.011458333333333333\n",
      "note_off channel=0 note=60 velocity=127 time=0.005208333333333333\n",
      "note_off channel=0 note=61 velocity=127 time=0.003125\n",
      "note_on channel=0 note=62 velocity=127 time=0.07083333333333333\n",
      "note_off channel=0 note=62 velocity=127 time=0.019791666666666666\n",
      "note_on channel=0 note=60 velocity=127 time=0.007291666666666667\n",
      "\u001b[91m [DEBUG] > \u001b[0m\n",
      " |>  to_array: msg.time > max_t; t, n\n",
      " |>  2.9906249999999996\n",
      " |>  150\n",
      "note_on channel=0 note=62 velocity=127 time=0.020833333333333332\n",
      "note_off channel=0 note=62 velocity=127 time=0.019791666666666666\n",
      "note_on channel=0 note=60 velocity=127 time=0.013541666666666667\n",
      "note_off channel=0 note=60 velocity=127 time=0.019791666666666666\n",
      "note_on channel=0 note=61 velocity=127 time=0.030208333333333334\n",
      "note_off channel=0 note=61 velocity=127 time=0.019791666666666666\n",
      "note_on channel=0 note=62 velocity=127 time=0\n",
      "note_on channel=0 note=60 velocity=127 time=0.005208333333333333\n",
      "note_off channel=0 note=62 velocity=127 time=0.014583333333333334\n",
      "note_off channel=0 note=60 velocity=127 time=0.005208333333333333\n",
      "note_on channel=0 note=60 velocity=127 time=0.05625\n",
      "note_on channel=0 note=61 velocity=127 time=0.003125\n",
      "note_off channel=0 note=60 velocity=127 time=0.016666666666666666\n",
      "note_on channel=0 note=62 velocity=127 time=0.0020833333333333333\n",
      "note_off channel=0 note=61 velocity=127 time=0.0010416666666666667\n",
      "note_off channel=0 note=62 velocity=127 time=0.01875\n",
      "note_on channel=0 note=60 velocity=127 time=0.034375\n",
      "note_off channel=0 note=60 velocity=127 time=0.019791666666666666\n",
      "note_on channel=0 note=61 velocity=127 time=0.011458333333333333\n",
      "note_on channel=0 note=62 velocity=127 time=0.017708333333333333\n",
      "note_off channel=0 note=61 velocity=127 time=0.0020833333333333333\n",
      "note_off channel=0 note=62 velocity=127 time=0.017708333333333333\n",
      "note_on channel=0 note=60 velocity=127 time=0.00625\n",
      "note_off channel=0 note=60 velocity=127 time=0.019791666666666666\n",
      "note_on channel=0 note=61 velocity=127 time=0.040625\n",
      "note_on channel=0 note=60 velocity=127 time=0.015625\n",
      "note_on channel=0 note=62 velocity=127 time=0.0010416666666666667\n",
      "note_off channel=0 note=61 velocity=127 time=0.003125\n",
      "note_off channel=0 note=60 velocity=127 time=0.015625\n",
      "note_off channel=0 note=62 velocity=127 time=0.0010416666666666667\n",
      "note_on channel=0 note=60 velocity=127 time=0.05520833333333333\n",
      "note_on channel=0 note=61 velocity=127 time=0.0125\n",
      "note_off channel=0 note=60 velocity=127 time=0.007291666666666667\n",
      "note_on channel=0 note=62 velocity=127 time=0.008333333333333333\n",
      "note_off channel=0 note=61 velocity=127 time=0.004166666666666667\n",
      "note_off channel=0 note=62 velocity=127 time=0.015625\n",
      "note_on channel=0 note=60 velocity=127 time=0.028125\n",
      "note_off channel=0 note=60 velocity=127 time=0.019791666666666666\n",
      "note_on channel=0 note=61 velocity=127 time=0.021875\n",
      "note_on channel=0 note=62 velocity=127 time=0.014583333333333334\n",
      "note_off channel=0 note=61 velocity=127 time=0.005208333333333333\n",
      "note_off channel=0 note=62 velocity=127 time=0.014583333333333334\n",
      "note_on channel=0 note=60 velocity=127 time=0\n",
      "note_off channel=0 note=60 velocity=127 time=0.019791666666666666\n",
      "note_on channel=0 note=61 velocity=127 time=0.05\n",
      "note_on channel=0 note=60 velocity=127 time=0.00625\n",
      "note_on channel=0 note=62 velocity=127 time=0.007291666666666667\n",
      "note_off channel=0 note=61 velocity=127 time=0.00625\n",
      "note_off channel=0 note=60 velocity=127 time=0.00625\n",
      "note_off channel=0 note=62 velocity=127 time=0.007291666666666667\n",
      "note_on channel=0 note=60 velocity=127 time=0.04895833333333333\n",
      "note_off channel=0 note=60 velocity=127 time=0.019791666666666666\n",
      "note_on channel=0 note=61 velocity=127 time=0.003125\n",
      "note_on channel=0 note=62 velocity=127 time=0.0125\n",
      "note_off channel=0 note=61 velocity=127 time=0.008333333333333333\n",
      "note_off channel=0 note=62 velocity=127 time=0.0125\n",
      "note_on channel=0 note=60 velocity=127 time=0.021875\n",
      "note_off channel=0 note=60 velocity=127 time=0.019791666666666666\n",
      "note_on channel=0 note=61 velocity=127 time=0.03125\n",
      "note_on channel=0 note=62 velocity=127 time=0.011458333333333333\n",
      "note_off channel=0 note=61 velocity=127 time=0.009375\n",
      "note_on channel=0 note=60 velocity=127 time=0.005208333333333333\n",
      "note_off channel=0 note=62 velocity=127 time=0.00625\n",
      "note_off channel=0 note=60 velocity=127 time=0.013541666666666667\n",
      "note_on channel=0 note=60 velocity=127 time=0.05625\n",
      "note_on channel=0 note=61 velocity=127 time=0.004166666666666667\n",
      "note_on channel=0 note=62 velocity=127 time=0.009375\n",
      "note_off channel=0 note=60 velocity=127 time=0.00625\n",
      "note_off channel=0 note=61 velocity=127 time=0.004166666666666667\n",
      "note_off channel=0 note=62 velocity=127 time=0.009375\n",
      "note_on channel=0 note=60 velocity=127 time=0.042708333333333334\n",
      "note_off channel=0 note=60 velocity=127 time=0.019791666666666666\n",
      "note_on channel=0 note=61 velocity=127 time=0.0125\n",
      "note_on channel=0 note=62 velocity=127 time=0.008333333333333333\n",
      "note_off channel=0 note=61 velocity=127 time=0.011458333333333333\n",
      "note_off channel=0 note=62 velocity=127 time=0.008333333333333333\n",
      "note_on channel=0 note=60 velocity=127 time=0.014583333333333334\n",
      "note_off channel=0 note=60 velocity=127 time=0.019791666666666666\n",
      "note_on channel=0 note=61 velocity=127 time=0.041666666666666664\n",
      "note_on channel=0 note=62 velocity=127 time=0.007291666666666667\n",
      "note_on channel=0 note=60 velocity=127 time=0.007291666666666667\n",
      "note_off channel=0 note=61 velocity=127 time=0.005208333333333333\n",
      "note_off channel=0 note=62 velocity=127 time=0.007291666666666667\n",
      "note_off channel=0 note=60 velocity=127 time=0.007291666666666667\n",
      "note_on channel=0 note=60 velocity=127 time=0.05625\n",
      "note_on channel=0 note=61 velocity=127 time=0.013541666666666667\n",
      "note_off channel=0 note=60 velocity=127 time=0.00625\n",
      "note_on channel=0 note=62 velocity=127 time=0\n",
      "note_off channel=0 note=61 velocity=127 time=0.013541666666666667\n",
      "note_off channel=0 note=62 velocity=127 time=0.00625\n",
      "note_on channel=0 note=60 velocity=127 time=0.036458333333333336\n",
      "note_off channel=0 note=60 velocity=127 time=0.019791666666666666\n",
      "note_on channel=0 note=61 velocity=127 time=0.022916666666666665\n",
      "note_on channel=0 note=62 velocity=127 time=0.005208333333333333\n",
      "note_off channel=0 note=61 velocity=127 time=0.014583333333333334\n",
      "note_off channel=0 note=62 velocity=127 time=0.005208333333333333\n",
      "note_on channel=0 note=60 velocity=127 time=0.008333333333333333\n",
      "note_off channel=0 note=60 velocity=127 time=0.019791666666666666\n",
      "note_on channel=0 note=61 velocity=127 time=0.051041666666666666\n",
      "note_on channel=0 note=62 velocity=127 time=0.004166666666666667\n",
      "note_on channel=0 note=60 velocity=127 time=0.0010416666666666667\n",
      "note_off channel=0 note=61 velocity=127 time=0.014583333333333334\n",
      "note_off channel=0 note=62 velocity=127 time=0.004166666666666667\n",
      "note_off channel=0 note=60 velocity=127 time=0.0010416666666666667\n",
      "note_on channel=0 note=60 velocity=127 time=0.05625\n",
      "note_off channel=0 note=60 velocity=127 time=0.019791666666666666\n",
      "note_on channel=0 note=61 velocity=127 time=0.004166666666666667\n",
      "note_on channel=0 note=62 velocity=127 time=0.003125\n",
      "note_off channel=0 note=61 velocity=127 time=0.016666666666666666\n",
      "note_off channel=0 note=62 velocity=127 time=0.003125\n",
      "note_on channel=0 note=60 velocity=127 time=0.029166666666666667\n",
      "note_off channel=0 note=60 velocity=127 time=0.019791666666666666\n",
      "note_on channel=0 note=61 velocity=127 time=0.03229166666666666\n",
      "note_on channel=0 note=62 velocity=127 time=0.0020833333333333333\n",
      "note_off channel=0 note=61 velocity=127 time=0.01875\n",
      "note_off channel=0 note=62 velocity=127 time=0.0020833333333333333\n",
      "note_on channel=0 note=60 velocity=127 time=0.0020833333333333333\n",
      "note_off channel=0 note=60 velocity=127 time=0.019791666666666666\n",
      "note_on channel=0 note=60 velocity=127 time=0.05625\n",
      "note_on channel=0 note=61 velocity=127 time=0.005208333333333333\n",
      "note_on channel=0 note=62 velocity=127 time=0.0010416666666666667\n",
      "note_off channel=0 note=60 velocity=127 time=0.014583333333333334\n",
      "note_off channel=0 note=61 velocity=127 time=0.005208333333333333\n",
      "note_off channel=0 note=62 velocity=127 time=0.0010416666666666667\n",
      "note_on channel=0 note=60 velocity=127 time=0.051041666666666666\n",
      "note_off channel=0 note=60 velocity=127 time=0.019791666666666666\n",
      "note_on channel=0 note=62 velocity=127 time=0.013541666666666667\n",
      "note_on channel=0 note=61 velocity=127 time=0.0010416666666666667\n",
      "note_off channel=0 note=62 velocity=127 time=0.019791666666666666\n",
      "note_off channel=0 note=61 velocity=127 time=0.0010416666666666667\n",
      "note_on channel=0 note=60 velocity=127 time=0.022916666666666665\n",
      "note_off channel=0 note=60 velocity=127 time=0.019791666666666666\n",
      "note_on channel=0 note=62 velocity=127 time=0.040625\n",
      "note_on channel=0 note=61 velocity=127 time=0.0020833333333333333\n",
      "note_on channel=0 note=60 velocity=127 time=0.013541666666666667\n",
      "note_off channel=0 note=62 velocity=127 time=0.004166666666666667\n",
      "note_off channel=0 note=61 velocity=127 time=0.0020833333333333333\n",
      "note_off channel=0 note=60 velocity=127 time=0.013541666666666667\n",
      "note_on channel=0 note=60 velocity=127 time=0.05625\n",
      "note_on channel=0 note=62 velocity=127 time=0.011458333333333333\n",
      "note_on channel=0 note=61 velocity=127 time=0.003125\n",
      "note_off channel=0 note=60 velocity=127 time=0.005208333333333333\n",
      "note_off channel=0 note=62 velocity=127 time=0.011458333333333333\n",
      "note_off channel=0 note=61 velocity=127 time=0.003125\n",
      "note_on channel=0 note=60 velocity=127 time=0.041666666666666664\n",
      "note_off channel=0 note=60 velocity=127 time=0.019791666666666666\n",
      "note_on channel=0 note=62 velocity=127 time=0.019791666666666666\n",
      "note_on channel=0 note=61 velocity=127 time=0.004166666666666667\n",
      "note_off channel=0 note=62 velocity=127 time=0.015625\n",
      "note_off channel=0 note=61 velocity=127 time=0.004166666666666667\n",
      "note_on channel=0 note=60 velocity=127 time=0.0125\n",
      "note_off channel=0 note=60 velocity=127 time=0.019791666666666666\n",
      "note_on channel=0 note=62 velocity=127 time=0.046875\n",
      "note_on channel=0 note=61 velocity=127 time=0.005208333333333333\n",
      "note_on channel=0 note=60 velocity=127 time=0.004166666666666667\n",
      "note_off channel=0 note=62 velocity=127 time=0.010416666666666666\n",
      "note_off channel=0 note=61 velocity=127 time=0.005208333333333333\n",
      "note_off channel=0 note=60 velocity=127 time=0.004166666666666667\n",
      "note_on channel=0 note=60 velocity=127 time=0.05625\n",
      "note_on channel=0 note=62 velocity=127 time=0.01875\n",
      "note_off channel=0 note=60 velocity=127 time=0.0020833333333333333\n",
      "note_on channel=0 note=61 velocity=127 time=0.005208333333333333\n",
      "note_off channel=0 note=62 velocity=127 time=0.013541666666666667\n",
      "note_off channel=0 note=61 velocity=127 time=0.00625\n",
      "note_on channel=0 note=60 velocity=127 time=0.03125\n",
      "note_off channel=0 note=60 velocity=127 time=0.019791666666666666\n",
      "note_on channel=0 note=62 velocity=127 time=0.026041666666666668\n",
      "note_on channel=0 note=61 velocity=127 time=0.007291666666666667\n",
      "note_off channel=0 note=62 velocity=127 time=0.0125\n",
      "note_off channel=0 note=61 velocity=127 time=0.007291666666666667\n",
      "note_on channel=0 note=60 velocity=127 time=0.003125\n",
      "note_off channel=0 note=60 velocity=127 time=0.019791666666666666\n",
      "note_on channel=0 note=62 velocity=127 time=0.053125\n",
      "note_on channel=0 note=60 velocity=127 time=0.003125\n",
      "note_on channel=0 note=61 velocity=127 time=0.00625\n",
      "note_off channel=0 note=62 velocity=127 time=0.011458333333333333\n",
      "note_off channel=0 note=60 velocity=127 time=0.003125\n",
      "note_off channel=0 note=61 velocity=127 time=0.00625\n",
      "note_on channel=0 note=60 velocity=127 time=0.05\n",
      "note_off channel=0 note=60 velocity=127 time=0.019791666666666666\n",
      "note_on channel=0 note=62 velocity=127 time=0.005208333333333333\n",
      "note_on channel=0 note=61 velocity=127 time=0.009375\n",
      "note_off channel=0 note=62 velocity=127 time=0.010416666666666666\n",
      "note_off channel=0 note=61 velocity=127 time=0.009375\n",
      "note_on channel=0 note=60 velocity=127 time=0.021875\n",
      "note_off channel=0 note=60 velocity=127 time=0.019791666666666666\n",
      "note_on channel=0 note=62 velocity=127 time=0.03229166666666666\n",
      "note_on channel=0 note=61 velocity=127 time=0.011458333333333333\n",
      "note_off channel=0 note=62 velocity=127 time=0.009375\n",
      "note_on channel=0 note=60 velocity=127 time=0.004166666666666667\n",
      "note_off channel=0 note=61 velocity=127 time=0.007291666666666667\n",
      "note_off channel=0 note=60 velocity=127 time=0.0125\n",
      "note_on channel=0 note=60 velocity=127 time=0.05625\n",
      "\u001b[91m [DEBUG] > \u001b[0m\n",
      " |>  to_array: msg.time > max_t; t, n\n",
      " |>  3.028125\n",
      " |>  150\n",
      "note_on channel=0 note=62 velocity=127 time=0.019791666666666666\n",
      "note_off channel=0 note=62 velocity=127 time=0.019791666666666666\n",
      "note_on channel=0 note=61 velocity=127 time=0.01875\n",
      "note_on channel=0 note=60 velocity=127 time=0.005208333333333333\n",
      "note_off channel=0 note=61 velocity=127 time=0.014583333333333334\n",
      "note_off channel=0 note=60 velocity=127 time=0.005208333333333333\n",
      "note_on channel=0 note=62 velocity=127 time=0.003125\n",
      "note_off channel=0 note=62 velocity=127 time=0.019791666666666666\n",
      "note_on channel=0 note=62 velocity=127 time=0.046875\n",
      "note_on channel=0 note=61 velocity=127 time=0.013541666666666667\n",
      "note_off channel=0 note=62 velocity=127 time=0.00625\n",
      "note_on channel=0 note=60 velocity=127 time=0.0010416666666666667\n",
      "note_off channel=0 note=61 velocity=127 time=0.0125\n",
      "note_off channel=0 note=60 velocity=127 time=0.007291666666666667\n",
      "note_on channel=0 note=62 velocity=127 time=0.026041666666666668\n",
      "note_off channel=0 note=62 velocity=127 time=0.019791666666666666\n",
      "note_on channel=0 note=61 velocity=127 time=0.035416666666666666\n",
      "note_on channel=0 note=60 velocity=127 time=0.009375\n",
      "note_on channel=0 note=62 velocity=127 time=0.0020833333333333333\n",
      "note_off channel=0 note=61 velocity=127 time=0.008333333333333333\n",
      "note_off channel=0 note=60 velocity=127 time=0.009375\n",
      "note_off channel=0 note=62 velocity=127 time=0.0020833333333333333\n",
      "note_on channel=0 note=62 velocity=127 time=0.046875\n",
      "note_off channel=0 note=62 velocity=127 time=0.019791666666666666\n",
      "note_on channel=0 note=61 velocity=127 time=0.010416666666666666\n",
      "note_on channel=0 note=60 velocity=127 time=0.011458333333333333\n",
      "note_off channel=0 note=61 velocity=127 time=0.008333333333333333\n",
      "note_off channel=0 note=60 velocity=127 time=0.011458333333333333\n",
      "note_on channel=0 note=62 velocity=127 time=0.005208333333333333\n",
      "note_off channel=0 note=62 velocity=127 time=0.019791666666666666\n",
      "note_on channel=0 note=62 velocity=127 time=0.046875\n",
      "note_on channel=0 note=61 velocity=127 time=0.005208333333333333\n",
      "note_on channel=0 note=60 velocity=127 time=0.013541666666666667\n",
      "note_off channel=0 note=62 velocity=127 time=0.0020833333333333333\n",
      "note_off channel=0 note=61 velocity=127 time=0.005208333333333333\n",
      "note_off channel=0 note=60 velocity=127 time=0.013541666666666667\n",
      "note_on channel=0 note=62 velocity=127 time=0.029166666666666667\n",
      "note_off channel=0 note=62 velocity=127 time=0.019791666666666666\n",
      "note_on channel=0 note=61 velocity=127 time=0.027083333333333334\n",
      "note_on channel=0 note=60 velocity=127 time=0.015625\n",
      "note_off channel=0 note=61 velocity=127 time=0.004166666666666667\n",
      "note_on channel=0 note=62 velocity=127 time=0\n",
      "note_off channel=0 note=60 velocity=127 time=0.014583333333333334\n",
      "note_off channel=0 note=62 velocity=127 time=0.005208333333333333\n",
      "note_on channel=0 note=62 velocity=127 time=0.046875\n",
      "note_off channel=0 note=62 velocity=127 time=0.019791666666666666\n",
      "note_on channel=0 note=61 velocity=127 time=0.0010416666666666667\n",
      "note_on channel=0 note=60 velocity=127 time=0.017708333333333333\n",
      "note_off channel=0 note=61 velocity=127 time=0.0020833333333333333\n",
      "note_off channel=0 note=60 velocity=127 time=0.017708333333333333\n",
      "note_on channel=0 note=62 velocity=127 time=0.008333333333333333\n",
      "note_off channel=0 note=62 velocity=127 time=0.019791666666666666\n",
      "note_on channel=0 note=61 velocity=127 time=0.04375\n",
      "note_on channel=0 note=62 velocity=127 time=0.004166666666666667\n",
      "note_on channel=0 note=60 velocity=127 time=0.015625\n",
      "note_off channel=0 note=61 velocity=127 time=0\n",
      "note_off channel=0 note=62 velocity=127 time=0.004166666666666667\n",
      "note_off channel=0 note=60 velocity=127 time=0.015625\n",
      "note_on channel=0 note=62 velocity=127 time=0.03125\n",
      "note_off channel=0 note=62 velocity=127 time=0.019791666666666666\n",
      "note_on channel=0 note=61 velocity=127 time=0.01875\n",
      "note_off channel=0 note=61 velocity=127 time=0.019791666666666666\n",
      "note_on channel=0 note=60 velocity=127 time=0.0020833333333333333\n",
      "note_on channel=0 note=62 velocity=127 time=0.007291666666666667\n",
      "note_off channel=0 note=60 velocity=127 time=0.0125\n",
      "note_off channel=0 note=62 velocity=127 time=0.007291666666666667\n",
      "note_on channel=0 note=62 velocity=127 time=0.046875\n",
      "note_on channel=0 note=61 velocity=127 time=0.0125\n",
      "note_off channel=0 note=62 velocity=127 time=0.007291666666666667\n",
      "note_off channel=0 note=61 velocity=127 time=0.0125\n",
      "note_on channel=0 note=60 velocity=127 time=0.003125\n",
      "note_off channel=0 note=60 velocity=127 time=0.019791666666666666\n",
      "note_on channel=0 note=62 velocity=127 time=0.010416666666666666\n",
      "note_off channel=0 note=62 velocity=127 time=0.019791666666666666\n",
      "note_on channel=0 note=61 velocity=127 time=0.035416666666666666\n",
      "note_on channel=0 note=62 velocity=127 time=0.0125\n"
     ]
    },
    {
     "name": "stdout",
     "output_type": "stream",
     "text": [
      "note_off channel=0 note=61 velocity=127 time=0.007291666666666667\n",
      "note_on channel=0 note=60 velocity=127 time=0.005208333333333333\n",
      "note_off channel=0 note=62 velocity=127 time=0.007291666666666667\n",
      "note_off channel=0 note=60 velocity=127 time=0.013541666666666667\n",
      "note_on channel=0 note=62 velocity=127 time=0.034375\n",
      "note_off channel=0 note=62 velocity=127 time=0.019791666666666666\n",
      "note_on channel=0 note=61 velocity=127 time=0.009375\n",
      "note_off channel=0 note=61 velocity=127 time=0.019791666666666666\n",
      "note_on channel=0 note=60 velocity=127 time=0.007291666666666667\n",
      "note_on channel=0 note=62 velocity=127 time=0.010416666666666666\n",
      "note_off channel=0 note=60 velocity=127 time=0.009375\n",
      "note_off channel=0 note=62 velocity=127 time=0.010416666666666666\n",
      "note_on channel=0 note=62 velocity=127 time=0.046875\n",
      "note_on channel=0 note=61 velocity=127 time=0.004166666666666667\n",
      "note_off channel=0 note=62 velocity=127 time=0.015625\n",
      "note_off channel=0 note=61 velocity=127 time=0.004166666666666667\n",
      "note_on channel=0 note=60 velocity=127 time=0.009375\n",
      "note_off channel=0 note=60 velocity=127 time=0.019791666666666666\n",
      "note_on channel=0 note=62 velocity=127 time=0.013541666666666667\n",
      "note_off channel=0 note=62 velocity=127 time=0.019791666666666666\n",
      "note_on channel=0 note=61 velocity=127 time=0.026041666666666668\n",
      "note_off channel=0 note=61 velocity=127 time=0.019791666666666666\n",
      "note_on channel=0 note=62 velocity=127 time=0.0010416666666666667\n",
      "note_on channel=0 note=60 velocity=127 time=0.010416666666666666\n",
      "note_off channel=0 note=62 velocity=127 time=0.009375\n",
      "note_off channel=0 note=60 velocity=127 time=0.010416666666666666\n",
      "note_on channel=0 note=62 velocity=127 time=0.036458333333333336\n",
      "note_off channel=0 note=62 velocity=127 time=0.019791666666666666\n",
      "note_on channel=0 note=61 velocity=127 time=0.0010416666666666667\n",
      "note_off channel=0 note=61 velocity=127 time=0.019791666666666666\n",
      "note_on channel=0 note=60 velocity=127 time=0.013541666666666667\n",
      "note_on channel=0 note=62 velocity=127 time=0.0125\n",
      "note_off channel=0 note=60 velocity=127 time=0.007291666666666667\n",
      "note_off channel=0 note=62 velocity=127 time=0.0125\n",
      "note_on channel=0 note=61 velocity=127 time=0.042708333333333334\n",
      "note_on channel=0 note=62 velocity=127 time=0.004166666666666667\n",
      "note_off channel=0 note=61 velocity=127 time=0.015625\n",
      "note_off channel=0 note=62 velocity=127 time=0.004166666666666667\n",
      "note_on channel=0 note=60 velocity=127 time=0.011458333333333333\n",
      "note_off channel=0 note=60 velocity=127 time=0.019791666666666666\n",
      "note_on channel=0 note=62 velocity=127 time=0.015625\n",
      "note_off channel=0 note=62 velocity=127 time=0.019791666666666666\n",
      "note_on channel=0 note=61 velocity=127 time=0.017708333333333333\n",
      "note_off channel=0 note=61 velocity=127 time=0.019791666666666666\n",
      "note_on channel=0 note=62 velocity=127 time=0.009375\n",
      "note_on channel=0 note=60 velocity=127 time=0.008333333333333333\n",
      "note_off channel=0 note=62 velocity=127 time=0.011458333333333333\n",
      "note_off channel=0 note=60 velocity=127 time=0.008333333333333333\n",
      "note_on channel=0 note=62 velocity=127 time=0.03958333333333333\n",
      "note_on channel=0 note=61 velocity=127 time=0.0125\n",
      "note_off channel=0 note=62 velocity=127 time=0.007291666666666667\n",
      "note_off channel=0 note=61 velocity=127 time=0.0125\n",
      "note_on channel=0 note=60 velocity=127 time=0.019791666666666666\n",
      "note_on channel=0 note=62 velocity=127 time=0.015625\n",
      "note_off channel=0 note=60 velocity=127 time=0.005208333333333333\n",
      "note_off channel=0 note=62 velocity=127 time=0.015625\n",
      "note_on channel=0 note=61 velocity=127 time=0.034375\n",
      "note_on channel=0 note=62 velocity=127 time=0.0125\n",
      "note_off channel=0 note=61 velocity=127 time=0.007291666666666667\n",
      "note_off channel=0 note=62 velocity=127 time=0.0125\n",
      "note_on channel=0 note=60 velocity=127 time=0.008333333333333333\n",
      "note_off channel=0 note=60 velocity=127 time=0.019791666666666666\n",
      "note_on channel=0 note=62 velocity=127 time=0.01875\n",
      "note_off channel=0 note=62 velocity=127 time=0.019791666666666666\n",
      "note_on channel=0 note=61 velocity=127 time=0.009375\n",
      "note_off channel=0 note=61 velocity=127 time=0.019791666666666666\n",
      "note_on channel=0 note=62 velocity=127 time=0.01875\n",
      "note_on channel=0 note=60 velocity=127 time=0.005208333333333333\n",
      "note_off channel=0 note=62 velocity=127 time=0.014583333333333334\n",
      "note_off channel=0 note=60 velocity=127 time=0.005208333333333333\n",
      "note_on channel=0 note=62 velocity=127 time=0.041666666666666664\n",
      "note_on channel=0 note=61 velocity=127 time=0.004166666666666667\n",
      "note_off channel=0 note=62 velocity=127 time=0.016666666666666666\n",
      "note_off channel=0 note=61 velocity=127 time=0.004166666666666667\n",
      "note_on channel=0 note=60 velocity=127 time=0.026041666666666668\n",
      "note_on channel=0 note=62 velocity=127 time=0.017708333333333333\n",
      "note_off channel=0 note=60 velocity=127 time=0.0020833333333333333\n",
      "note_off channel=0 note=62 velocity=127 time=0.017708333333333333\n",
      "note_on channel=0 note=61 velocity=127 time=0.026041666666666668\n",
      "note_off channel=0 note=61 velocity=127 time=0.019791666666666666\n",
      "note_on channel=0 note=62 velocity=127 time=0.0020833333333333333\n",
      "note_off channel=0 note=62 velocity=127 time=0.019791666666666666\n",
      "note_on channel=0 note=60 velocity=127 time=0.00625\n",
      "note_off channel=0 note=60 velocity=127 time=0.019791666666666666\n",
      "note_on channel=0 note=62 velocity=127 time=0.020833333333333332\n",
      "note_off channel=0 note=62 velocity=127 time=0.019791666666666666\n",
      "note_on channel=0 note=61 velocity=127 time=0\n",
      "note_off channel=0 note=61 velocity=127 time=0.019791666666666666\n",
      "note_on channel=0 note=62 velocity=127 time=0.027083333333333334\n",
      "note_on channel=0 note=60 velocity=127 time=0.003125\n",
      "note_off channel=0 note=62 velocity=127 time=0.016666666666666666\n",
      "note_off channel=0 note=60 velocity=127 time=0.003125\n",
      "note_on channel=0 note=61 velocity=127 time=0.03958333333333333\n",
      "note_on channel=0 note=62 velocity=127 time=0.005208333333333333\n",
      "note_off channel=0 note=61 velocity=127 time=0.015625\n",
      "note_off channel=0 note=62 velocity=127 time=0.005208333333333333\n",
      "note_on channel=0 note=60 velocity=127 time=0.027083333333333334\n",
      "note_off channel=0 note=60 velocity=127 time=0.019791666666666666\n",
      "note_on channel=0 note=62 velocity=127 time=0\n",
      "note_off channel=0 note=62 velocity=127 time=0.019791666666666666\n",
      "note_on channel=0 note=61 velocity=127 time=0.016666666666666666\n",
      "note_off channel=0 note=61 velocity=127 time=0.019791666666666666\n",
      "note_on channel=0 note=62 velocity=127 time=0.010416666666666666\n",
      "note_off channel=0 note=62 velocity=127 time=0.019791666666666666\n",
      "note_on channel=0 note=60 velocity=127 time=0.003125\n",
      "note_off channel=0 note=60 velocity=127 time=0.019791666666666666\n",
      "note_on channel=0 note=62 velocity=127 time=0.02395833333333333\n",
      "note_on channel=0 note=61 velocity=127 time=0.011458333333333333\n",
      "note_off channel=0 note=62 velocity=127 time=0.008333333333333333\n",
      "note_off channel=0 note=61 velocity=127 time=0.011458333333333333\n",
      "note_on channel=0 note=62 velocity=127 time=0.035416666666666666\n",
      "note_on channel=0 note=60 velocity=127 time=0\n",
      "note_off channel=0 note=62 velocity=127 time=0.019791666666666666\n",
      "note_off channel=0 note=60 velocity=127 time=0\n",
      "note_on channel=0 note=61 velocity=127 time=0.03333333333333333\n",
      "note_on channel=0 note=62 velocity=127 time=0.013541666666666667\n",
      "note_off channel=0 note=61 velocity=127 time=0.00625\n",
      "note_off channel=0 note=62 velocity=127 time=0.013541666666666667\n",
      "note_on channel=0 note=60 velocity=127 time=0.02395833333333333\n",
      "note_off channel=0 note=60 velocity=127 time=0.019791666666666666\n",
      "note_on channel=0 note=62 velocity=127 time=0.003125\n",
      "note_off channel=0 note=62 velocity=127 time=0.019791666666666666\n",
      "note_on channel=0 note=61 velocity=127 time=0.008333333333333333\n",
      "\u001b[91m [DEBUG] > \u001b[0m\n",
      " |>  to_array: msg.time > max_t; t, n\n",
      " |>  2.9958333333333345\n",
      " |>  150\n",
      "note_on channel=0 note=60 velocity=127 time=0.071875\n",
      "note_off channel=0 note=60 velocity=127 time=0.019791666666666666\n",
      "note_on channel=0 note=61 velocity=127 time=0.03229166666666666\n",
      "note_on channel=0 note=62 velocity=127 time=0.017708333333333333\n",
      "note_off channel=0 note=61 velocity=127 time=0.0020833333333333333\n",
      "note_on channel=0 note=60 velocity=127 time=0.009375\n",
      "note_off channel=0 note=62 velocity=127 time=0.009375\n",
      "note_off channel=0 note=60 velocity=127 time=0.010416666666666666\n",
      "note_on channel=0 note=60 velocity=127 time=0.06041666666666667\n",
      "note_off channel=0 note=60 velocity=127 time=0.019791666666666666\n",
      "note_on channel=0 note=60 velocity=127 time=0.06041666666666667\n",
      "note_on channel=0 note=62 velocity=127 time=0.011458333333333333\n",
      "note_off channel=0 note=60 velocity=127 time=0.008333333333333333\n",
      "note_off channel=0 note=62 velocity=127 time=0.011458333333333333\n",
      "note_on channel=0 note=60 velocity=127 time=0.04895833333333333\n",
      "note_off channel=0 note=60 velocity=127 time=0.019791666666666666\n",
      "note_on channel=0 note=61 velocity=127 time=0.041666666666666664\n",
      "note_on channel=0 note=60 velocity=127 time=0.019791666666666666\n",
      "note_off channel=0 note=61 velocity=127 time=0.0010416666666666667\n",
      "note_off channel=0 note=60 velocity=127 time=0.019791666666666666\n",
      "note_on channel=0 note=62 velocity=127 time=0.014583333333333334\n",
      "note_off channel=0 note=62 velocity=127 time=0.019791666666666666\n",
      "note_on channel=0 note=60 velocity=127 time=0.026041666666666668\n",
      "note_off channel=0 note=60 velocity=127 time=0.019791666666666666\n",
      "note_on channel=0 note=60 velocity=127 time=0.06041666666666667\n",
      "note_off channel=0 note=60 velocity=127 time=0.019791666666666666\n",
      "note_on channel=0 note=62 velocity=127 time=0.036458333333333336\n",
      "note_off channel=0 note=62 velocity=127 time=0.019791666666666666\n",
      "note_on channel=0 note=60 velocity=127 time=0.004166666666666667\n",
      "note_off channel=0 note=60 velocity=127 time=0.019791666666666666\n",
      "note_on channel=0 note=61 velocity=127 time=0.051041666666666666\n",
      "note_on channel=0 note=60 velocity=127 time=0.009375\n",
      "note_off channel=0 note=61 velocity=127 time=0.010416666666666666\n",
      "note_off channel=0 note=60 velocity=127 time=0.009375\n",
      "note_on channel=0 note=62 velocity=127 time=0.059375\n",
      "note_on channel=0 note=60 velocity=127 time=0.0010416666666666667\n",
      "note_off channel=0 note=62 velocity=127 time=0.01875\n",
      "note_off channel=0 note=60 velocity=127 time=0.0010416666666666667\n",
      "note_on channel=0 note=60 velocity=127 time=0.06041666666666667\n",
      "note_off channel=0 note=60 velocity=127 time=0.019791666666666666\n",
      "note_on channel=0 note=60 velocity=127 time=0.06041666666666667\n",
      "note_off channel=0 note=60 velocity=127 time=0.019791666666666666\n",
      "note_on channel=0 note=62 velocity=127 time=0.0010416666666666667\n",
      "note_off channel=0 note=62 velocity=127 time=0.019791666666666666\n",
      "note_on channel=0 note=61 velocity=127 time=0.03958333333333333\n",
      "note_on channel=0 note=60 velocity=127 time=0\n",
      "note_off channel=0 note=61 velocity=127 time=0.019791666666666666\n",
      "note_off channel=0 note=60 velocity=127 time=0\n",
      "note_on channel=0 note=60 velocity=127 time=0.06041666666666667\n",
      "note_off channel=0 note=60 velocity=127 time=0.019791666666666666\n",
      "note_on channel=0 note=62 velocity=127 time=0.02395833333333333\n",
      "note_off channel=0 note=62 velocity=127 time=0.019791666666666666\n",
      "note_on channel=0 note=60 velocity=127 time=0.016666666666666666\n",
      "note_off channel=0 note=60 velocity=127 time=0.019791666666666666\n",
      "note_on channel=0 note=60 velocity=127 time=0.06041666666666667\n",
      "note_off channel=0 note=60 velocity=127 time=0.019791666666666666\n",
      "note_on channel=0 note=62 velocity=127 time=0.04583333333333333\n",
      "note_on channel=0 note=60 velocity=127 time=0.014583333333333334\n",
      "note_off channel=0 note=62 velocity=127 time=0.005208333333333333\n",
      "note_on channel=0 note=61 velocity=127 time=0.004166666666666667\n",
      "note_off channel=0 note=60 velocity=127 time=0.010416666666666666\n",
      "note_off channel=0 note=61 velocity=127 time=0.009375\n",
      "note_on channel=0 note=60 velocity=127 time=0.051041666666666666\n",
      "note_off channel=0 note=60 velocity=127 time=0.019791666666666666\n",
      "note_on channel=0 note=60 velocity=127 time=0.06041666666666667\n",
      "note_on channel=0 note=62 velocity=127 time=0.008333333333333333\n",
      "note_off channel=0 note=60 velocity=127 time=0.0125\n",
      "note_off channel=0 note=62 velocity=127 time=0.008333333333333333\n",
      "note_on channel=0 note=60 velocity=127 time=0.053125\n",
      "note_off channel=0 note=60 velocity=127 time=0.019791666666666666\n",
      "note_on channel=0 note=60 velocity=127 time=0.06041666666666667\n",
      "note_on channel=0 note=61 velocity=127 time=0.01875\n",
      "note_off channel=0 note=60 velocity=127 time=0.0010416666666666667\n",
      "note_on channel=0 note=62 velocity=127 time=0.010416666666666666\n",
      "note_off channel=0 note=61 velocity=127 time=0.008333333333333333\n",
      "note_off channel=0 note=62 velocity=127 time=0.011458333333333333\n",
      "note_on channel=0 note=60 velocity=127 time=0.030208333333333334\n",
      "note_off channel=0 note=60 velocity=127 time=0.019791666666666666\n",
      "note_on channel=0 note=60 velocity=127 time=0.06041666666666667\n",
      "note_off channel=0 note=60 velocity=127 time=0.019791666666666666\n",
      "note_on channel=0 note=62 velocity=127 time=0.03333333333333333\n",
      "note_off channel=0 note=62 velocity=127 time=0.019791666666666666\n",
      "note_on channel=0 note=60 velocity=127 time=0.007291666666666667\n",
      "note_off channel=0 note=60 velocity=127 time=0.019791666666666666\n",
      "note_on channel=0 note=60 velocity=127 time=0.06041666666666667\n",
      "note_off channel=0 note=60 velocity=127 time=0.019791666666666666\n",
      "note_on channel=0 note=61 velocity=127 time=0.008333333333333333\n",
      "note_off channel=0 note=61 velocity=127 time=0.019791666666666666\n",
      "note_on channel=0 note=62 velocity=127 time=0.027083333333333334\n",
      "note_on channel=0 note=60 velocity=127 time=0.005208333333333333\n",
      "note_off channel=0 note=62 velocity=127 time=0.014583333333333334\n",
      "note_off channel=0 note=60 velocity=127 time=0.005208333333333333\n",
      "note_on channel=0 note=60 velocity=127 time=0.06041666666666667\n",
      "note_off channel=0 note=60 velocity=127 time=0.019791666666666666\n",
      "note_on channel=0 note=60 velocity=127 time=0.06041666666666667\n",
      "note_on channel=0 note=62 velocity=127 time=0.017708333333333333\n",
      "note_off channel=0 note=60 velocity=127 time=0.003125\n",
      "note_off channel=0 note=62 velocity=127 time=0.017708333333333333\n",
      "note_on channel=0 note=60 velocity=127 time=0.04375\n",
      "note_off channel=0 note=60 velocity=127 time=0.019791666666666666\n",
      "note_on channel=0 note=61 velocity=127 time=0.017708333333333333\n",
      "note_off channel=0 note=61 velocity=127 time=0.019791666666666666\n",
      "note_on channel=0 note=60 velocity=127 time=0.022916666666666665\n",
      "note_off channel=0 note=60 velocity=127 time=0.019791666666666666\n",
      "note_on channel=0 note=62 velocity=127 time=0.019791666666666666\n",
      "note_off channel=0 note=62 velocity=127 time=0.019791666666666666\n",
      "note_on channel=0 note=60 velocity=127 time=0.020833333333333332\n",
      "note_off channel=0 note=60 velocity=127 time=0.019791666666666666\n",
      "note_on channel=0 note=60 velocity=127 time=0.06041666666666667\n",
      "note_off channel=0 note=60 velocity=127 time=0.019791666666666666\n",
      "note_on channel=0 note=62 velocity=127 time=0.042708333333333334\n",
      "note_on channel=0 note=60 velocity=127 time=0.01875\n",
      "note_off channel=0 note=62 velocity=127 time=0.0020833333333333333\n",
      "note_off channel=0 note=60 velocity=127 time=0.01875\n",
      "note_on channel=0 note=61 velocity=127 time=0.028125\n",
      "note_off channel=0 note=61 velocity=127 time=0.019791666666666666\n",
      "note_on channel=0 note=60 velocity=127 time=0.013541666666666667\n",
      "note_off channel=0 note=60 velocity=127 time=0.019791666666666666\n",
      "note_on channel=0 note=60 velocity=127 time=0.06041666666666667\n",
      "note_on channel=0 note=62 velocity=127 time=0.004166666666666667\n",
      "note_off channel=0 note=60 velocity=127 time=0.015625\n",
      "note_off channel=0 note=62 velocity=127 time=0.004166666666666667\n",
      "note_on channel=0 note=60 velocity=127 time=0.05625\n",
      "note_off channel=0 note=60 velocity=127 time=0.019791666666666666\n",
      "note_on channel=0 note=60 velocity=127 time=0.06041666666666667\n",
      "\u001b[91m [DEBUG] > \u001b[0m\n",
      " |>  to_array: msg.time > max_t; t, n\n",
      " |>  3.0500000000000025\n",
      " |>  150\n",
      "note_on channel=0 note=62 velocity=127 time=0.040625\n",
      "note_off channel=0 note=62 velocity=127 time=0.019791666666666666\n",
      "note_on channel=0 note=61 velocity=127 time=0.057291666666666664\n",
      "note_off channel=0 note=61 velocity=127 time=0.019791666666666666\n",
      "note_on channel=0 note=62 velocity=127 time=0.027083333333333334\n",
      "note_off channel=0 note=62 velocity=127 time=0.019791666666666666\n",
      "note_on channel=0 note=60 velocity=127 time=0.04479166666666667\n",
      "note_off channel=0 note=60 velocity=127 time=0.019791666666666666\n",
      "note_on channel=0 note=61 velocity=127 time=0.029166666666666667\n",
      "note_on channel=0 note=62 velocity=127 time=0.010416666666666666\n",
      "note_off channel=0 note=61 velocity=127 time=0.009375\n",
      "note_off channel=0 note=62 velocity=127 time=0.010416666666666666\n",
      "note_on channel=0 note=62 velocity=127 time=0.10520833333333333\n",
      "note_off channel=0 note=62 velocity=127 time=0.019791666666666666\n",
      "note_on channel=0 note=61 velocity=127 time=0.00625\n",
      "note_off channel=0 note=61 velocity=127 time=0.019791666666666666\n",
      "note_on channel=0 note=62 velocity=127 time=0.078125\n",
      "note_on channel=0 note=60 velocity=127 time=0.014583333333333334\n",
      "note_off channel=0 note=62 velocity=127 time=0.00625\n",
      "note_off channel=0 note=60 velocity=127 time=0.014583333333333334\n",
      "note_on channel=0 note=61 velocity=127 time=0.029166666666666667\n",
      "note_off channel=0 note=61 velocity=127 time=0.019791666666666666\n",
      "note_on channel=0 note=62 velocity=127 time=0.041666666666666664\n",
      "note_off channel=0 note=62 velocity=127 time=0.019791666666666666\n",
      "note_on channel=0 note=61 velocity=127 time=0.08020833333333333\n",
      "note_off channel=0 note=61 velocity=127 time=0.019791666666666666\n",
      "note_on channel=0 note=62 velocity=127 time=0.004166666666666667\n",
      "note_off channel=0 note=62 velocity=127 time=0.019791666666666666\n",
      "note_on channel=0 note=60 velocity=127 time=0.06770833333333333\n",
      "note_off channel=0 note=60 velocity=127 time=0.019791666666666666\n",
      "note_on channel=0 note=62 velocity=127 time=0.016666666666666666\n",
      "note_on channel=0 note=61 velocity=127 time=0.0125\n",
      "note_off channel=0 note=62 velocity=127 time=0.007291666666666667\n",
      "note_off channel=0 note=61 velocity=127 time=0.0125\n",
      "note_on channel=0 note=62 velocity=127 time=0.09166666666666666\n",
      "note_off channel=0 note=62 velocity=127 time=0.019791666666666666\n",
      "note_on channel=0 note=61 velocity=127 time=0.030208333333333334\n",
      "note_off channel=0 note=61 velocity=127 time=0.019791666666666666\n",
      "note_on channel=0 note=62 velocity=127 time=0.05520833333333333\n",
      "note_off channel=0 note=62 velocity=127 time=0.019791666666666666\n",
      "note_on channel=0 note=60 velocity=127 time=0.016666666666666666\n",
      "note_off channel=0 note=60 velocity=127 time=0.019791666666666666\n",
      "note_on channel=0 note=61 velocity=127 time=0.030208333333333334\n",
      "note_off channel=0 note=61 velocity=127 time=0.019791666666666666\n",
      "note_on channel=0 note=62 velocity=127 time=0.017708333333333333\n",
      "note_off channel=0 note=62 velocity=127 time=0.019791666666666666\n",
      "note_on channel=0 note=61 velocity=127 time=0.10416666666666667\n",
      "note_on channel=0 note=62 velocity=127 time=0.0010416666666666667\n",
      "note_off channel=0 note=61 velocity=127 time=0.01875\n",
      "note_off channel=0 note=62 velocity=127 time=0.0010416666666666667\n",
      "note_on channel=0 note=60 velocity=127 time=0.090625\n",
      "note_on channel=0 note=62 velocity=127 time=0.014583333333333334\n",
      "note_off channel=0 note=60 velocity=127 time=0.005208333333333333\n",
      "note_off channel=0 note=62 velocity=127 time=0.014583333333333334\n",
      "note_on channel=0 note=61 velocity=127 time=0.015625\n",
      "note_off channel=0 note=61 velocity=127 time=0.019791666666666666\n",
      "note_on channel=0 note=62 velocity=127 time=0.06875\n",
      "note_off channel=0 note=62 velocity=127 time=0.019791666666666666\n",
      "note_on channel=0 note=61 velocity=127 time=0.053125\n",
      "note_off channel=0 note=61 velocity=127 time=0.019791666666666666\n",
      "note_on channel=0 note=62 velocity=127 time=0.03229166666666666\n",
      "note_off channel=0 note=62 velocity=127 time=0.019791666666666666\n",
      "note_on channel=0 note=60 velocity=127 time=0.03958333333333333\n",
      "note_off channel=0 note=60 velocity=127 time=0.019791666666666666\n",
      "note_on channel=0 note=61 velocity=127 time=0.03125\n",
      "note_on channel=0 note=62 velocity=127 time=0.014583333333333334\n",
      "note_off channel=0 note=61 velocity=127 time=0.005208333333333333\n",
      "note_off channel=0 note=62 velocity=127 time=0.014583333333333334\n",
      "note_on channel=0 note=62 velocity=127 time=0.10520833333333333\n",
      "note_off channel=0 note=62 velocity=127 time=0.019791666666666666\n",
      "note_on channel=0 note=61 velocity=127 time=0.0020833333333333333\n",
      "note_off channel=0 note=61 velocity=127 time=0.019791666666666666\n",
      "note_on channel=0 note=62 velocity=127 time=0.08229166666666667\n",
      "note_on channel=0 note=60 velocity=127 time=0.008333333333333333\n",
      "note_off channel=0 note=62 velocity=127 time=0.011458333333333333\n",
      "note_off channel=0 note=60 velocity=127 time=0.008333333333333333\n",
      "note_on channel=0 note=61 velocity=127 time=0.03125\n",
      "note_off channel=0 note=61 velocity=127 time=0.019791666666666666\n",
      "note_on channel=0 note=62 velocity=127 time=0.04583333333333333\n",
      "note_off channel=0 note=62 velocity=127 time=0.019791666666666666\n",
      "note_on channel=0 note=61 velocity=127 time=0.07604166666666666\n",
      "note_off channel=0 note=61 velocity=127 time=0.019791666666666666\n",
      "note_on channel=0 note=62 velocity=127 time=0.008333333333333333\n",
      "note_off channel=0 note=62 velocity=127 time=0.019791666666666666\n",
      "note_on channel=0 note=60 velocity=127 time=0.06145833333333333\n",
      "note_off channel=0 note=60 velocity=127 time=0.019791666666666666\n",
      "note_on channel=0 note=62 velocity=127 time=0.022916666666666665\n",
      "note_on channel=0 note=61 velocity=127 time=0.008333333333333333\n",
      "note_off channel=0 note=62 velocity=127 time=0.011458333333333333\n",
      "note_off channel=0 note=61 velocity=127 time=0.008333333333333333\n",
      "note_on channel=0 note=62 velocity=127 time=0.09583333333333333\n",
      "note_off channel=0 note=62 velocity=127 time=0.019791666666666666\n",
      "note_on channel=0 note=61 velocity=127 time=0.025\n",
      "note_off channel=0 note=61 velocity=127 time=0.019791666666666666\n",
      "note_on channel=0 note=62 velocity=127 time=0.059375\n",
      "note_off channel=0 note=62 velocity=127 time=0.019791666666666666\n",
      "note_on channel=0 note=60 velocity=127 time=0.010416666666666666\n",
      "note_off channel=0 note=60 velocity=127 time=0.019791666666666666\n",
      "note_on channel=0 note=61 velocity=127 time=0.03229166666666666\n",
      "note_off channel=0 note=61 velocity=127 time=0.019791666666666666\n",
      "note_on channel=0 note=62 velocity=127 time=0.021875\n",
      "note_off channel=0 note=62 velocity=127 time=0.019791666666666666\n",
      "note_on channel=0 note=61 velocity=127 time=0.1\n",
      "\u001b[91m [DEBUG] > \u001b[0m\n",
      " |>  to_array: msg.time > max_t; t, n\n",
      " |>  3.0218750000000023\n",
      " |>  150\n",
      "note_on channel=0 note=60 velocity=127 time=0.00625\n",
      "note_on channel=0 note=61 velocity=127 time=0.0010416666666666667\n",
      "note_off channel=0 note=60 velocity=127 time=0.01875\n",
      "note_off channel=0 note=61 velocity=127 time=0.0010416666666666667\n",
      "note_on channel=0 note=62 velocity=127 time=0.035416666666666666\n",
      "note_off channel=0 note=62 velocity=127 time=0.019791666666666666\n",
      "note_on channel=0 note=60 velocity=127 time=0.003125\n",
      "note_on channel=0 note=61 velocity=127 time=0.010416666666666666\n",
      "note_off channel=0 note=60 velocity=127 time=0.009375\n",
      "note_off channel=0 note=61 velocity=127 time=0.010416666666666666\n",
      "note_on channel=0 note=60 velocity=127 time=0.04895833333333333\n",
      "note_on channel=0 note=61 velocity=127 time=0.019791666666666666\n",
      "note_off channel=0 note=60 velocity=127 time=0\n",
      "note_on channel=0 note=62 velocity=127 time=0.01875\n",
      "note_off channel=0 note=61 velocity=127 time=0.0010416666666666667\n",
      "note_off channel=0 note=62 velocity=127 time=0.019791666666666666\n",
      "note_on channel=0 note=60 velocity=127 time=0.019791666666666666\n",
      "note_off channel=0 note=60 velocity=127 time=0.019791666666666666\n",
      "note_on channel=0 note=61 velocity=127 time=0.009375\n",
      "note_off channel=0 note=61 velocity=127 time=0.019791666666666666\n",
      "note_on channel=0 note=60 velocity=127 time=0.030208333333333334\n",
      "note_off channel=0 note=60 velocity=127 time=0.019791666666666666\n",
      "note_on channel=0 note=62 velocity=127 time=0.0020833333333333333\n",
      "note_on channel=0 note=61 velocity=127 time=0.016666666666666666\n",
      "note_off channel=0 note=62 velocity=127 time=0.003125\n",
      "note_off channel=0 note=61 velocity=127 time=0.016666666666666666\n",
      "note_on channel=0 note=60 velocity=127 time=0.020833333333333332\n",
      "note_off channel=0 note=60 velocity=127 time=0.019791666666666666\n",
      "note_on channel=0 note=61 velocity=127 time=0.027083333333333334\n",
      "note_off channel=0 note=61 velocity=127 time=0.019791666666666666\n",
      "note_on channel=0 note=60 velocity=127 time=0.011458333333333333\n",
      "note_on channel=0 note=62 velocity=127 time=0.004166666666666667\n",
      "note_off channel=0 note=60 velocity=127 time=0.015625\n",
      "note_off channel=0 note=62 velocity=127 time=0.004166666666666667\n",
      "note_on channel=0 note=61 velocity=127 time=0.03229166666666666\n",
      "note_off channel=0 note=61 velocity=127 time=0.019791666666666666\n",
      "note_on channel=0 note=60 velocity=127 time=0.0020833333333333333\n",
      "note_off channel=0 note=60 velocity=127 time=0.019791666666666666\n",
      "note_on channel=0 note=61 velocity=127 time=0.04583333333333333\n",
      "note_on channel=0 note=62 velocity=127 time=0\n",
      "note_on channel=0 note=60 velocity=127 time=0.0125\n",
      "note_off channel=0 note=61 velocity=127 time=0.007291666666666667\n",
      "note_off channel=0 note=62 velocity=127 time=0\n",
      "note_off channel=0 note=60 velocity=127 time=0.0125\n",
      "note_on channel=0 note=61 velocity=127 time=0.05520833333333333\n",
      "note_on channel=0 note=60 velocity=127 time=0.004166666666666667\n",
      "note_off channel=0 note=61 velocity=127 time=0.015625\n",
      "note_off channel=0 note=60 velocity=127 time=0.004166666666666667\n",
      "note_on channel=0 note=62 velocity=127 time=0.029166666666666667\n",
      "note_off channel=0 note=62 velocity=127 time=0.019791666666666666\n",
      "note_on channel=0 note=60 velocity=127 time=0.010416666666666666\n",
      "note_on channel=0 note=61 velocity=127 time=0.005208333333333333\n",
      "note_off channel=0 note=60 velocity=127 time=0.014583333333333334\n",
      "note_off channel=0 note=61 velocity=127 time=0.005208333333333333\n",
      "note_on channel=0 note=60 velocity=127 time=0.05416666666666667\n",
      "note_on channel=0 note=61 velocity=127 time=0.014583333333333334\n",
      "note_off channel=0 note=60 velocity=127 time=0.005208333333333333\n",
      "note_on channel=0 note=62 velocity=127 time=0.011458333333333333\n",
      "note_off channel=0 note=61 velocity=127 time=0.003125\n",
      "note_off channel=0 note=62 velocity=127 time=0.017708333333333333\n",
      "note_on channel=0 note=60 velocity=127 time=0.027083333333333334\n",
      "note_off channel=0 note=60 velocity=127 time=0.019791666666666666\n",
      "note_on channel=0 note=61 velocity=127 time=0.004166666666666667\n",
      "note_off channel=0 note=61 velocity=127 time=0.019791666666666666\n",
      "note_on channel=0 note=60 velocity=127 time=0.035416666666666666\n",
      "note_on channel=0 note=62 velocity=127 time=0.014583333333333334\n",
      "note_off channel=0 note=60 velocity=127 time=0.005208333333333333\n",
      "note_on channel=0 note=61 velocity=127 time=0.013541666666666667\n",
      "note_off channel=0 note=62 velocity=127 time=0.0010416666666666667\n",
      "note_off channel=0 note=61 velocity=127 time=0.01875\n",
      "note_on channel=0 note=60 velocity=127 time=0.026041666666666668\n",
      "note_off channel=0 note=60 velocity=127 time=0.019791666666666666\n",
      "note_on channel=0 note=61 velocity=127 time=0.022916666666666665\n",
      "note_off channel=0 note=61 velocity=127 time=0.019791666666666666\n",
      "note_on channel=0 note=62 velocity=127 time=0.014583333333333334\n",
      "note_on channel=0 note=60 velocity=127 time=0.003125\n",
      "note_off channel=0 note=62 velocity=127 time=0.017708333333333333\n",
      "note_off channel=0 note=60 velocity=127 time=0.003125\n",
      "note_on channel=0 note=61 velocity=127 time=0.03125\n",
      "note_off channel=0 note=61 velocity=127 time=0.019791666666666666\n",
      "note_on channel=0 note=60 velocity=127 time=0.007291666666666667\n",
      "note_off channel=0 note=60 velocity=127 time=0.019791666666666666\n",
      "note_on channel=0 note=62 velocity=127 time=0.03958333333333333\n",
      "note_on channel=0 note=61 velocity=127 time=0.0020833333333333333\n",
      "note_on channel=0 note=60 velocity=127 time=0.01875\n",
      "note_off channel=0 note=62 velocity=127 time=0\n",
      "note_off channel=0 note=61 velocity=127 time=0.0020833333333333333\n",
      "note_off channel=0 note=60 velocity=127 time=0.01875\n",
      "note_on channel=0 note=61 velocity=127 time=0.05\n",
      "note_on channel=0 note=60 velocity=127 time=0.009375\n",
      "note_off channel=0 note=61 velocity=127 time=0.011458333333333333\n",
      "note_off channel=0 note=60 velocity=127 time=0.009375\n",
      "note_on channel=0 note=62 velocity=127 time=0.021875\n",
      "note_off channel=0 note=62 velocity=127 time=0.019791666666666666\n",
      "note_on channel=0 note=60 velocity=127 time=0.017708333333333333\n",
      "note_on channel=0 note=61 velocity=127 time=0\n",
      "note_off channel=0 note=60 velocity=127 time=0.019791666666666666\n",
      "note_off channel=0 note=61 velocity=127 time=0\n",
      "note_on channel=0 note=60 velocity=127 time=0.059375\n",
      "note_on channel=0 note=61 velocity=127 time=0.009375\n",
      "note_off channel=0 note=60 velocity=127 time=0.010416666666666666\n",
      "note_on channel=0 note=62 velocity=127 time=0.005208333333333333\n",
      "note_off channel=0 note=61 velocity=127 time=0.005208333333333333\n",
      "note_off channel=0 note=62 velocity=127 time=0.015625\n",
      "note_on channel=0 note=60 velocity=127 time=0.034375\n",
      "note_on channel=0 note=61 velocity=127 time=0.01875\n",
      "note_off channel=0 note=60 velocity=127 time=0.0010416666666666667\n",
      "note_off channel=0 note=61 velocity=127 time=0.01875\n",
      "note_on channel=0 note=60 velocity=127 time=0.040625\n",
      "note_on channel=0 note=62 velocity=127 time=0.007291666666666667\n",
      "note_off channel=0 note=60 velocity=127 time=0.0125\n",
      "note_off channel=0 note=62 velocity=127 time=0.007291666666666667\n",
      "note_on channel=0 note=61 velocity=127 time=0.0010416666666666667\n",
      "note_off channel=0 note=61 velocity=127 time=0.019791666666666666\n",
      "note_on channel=0 note=60 velocity=127 time=0.03125\n",
      "note_off channel=0 note=60 velocity=127 time=0.019791666666666666\n",
      "note_on channel=0 note=61 velocity=127 time=0.017708333333333333\n",
      "note_off channel=0 note=61 velocity=127 time=0.019791666666666666\n",
      "note_on channel=0 note=62 velocity=127 time=0.0125\n",
      "note_on channel=0 note=60 velocity=127 time=0.009375\n",
      "note_off channel=0 note=62 velocity=127 time=0.010416666666666666\n",
      "note_off channel=0 note=60 velocity=127 time=0.009375\n",
      "note_on channel=0 note=61 velocity=127 time=0.027083333333333334\n",
      "note_off channel=0 note=61 velocity=127 time=0.019791666666666666\n",
      "note_on channel=0 note=60 velocity=127 time=0.0125\n",
      "note_off channel=0 note=60 velocity=127 time=0.019791666666666666\n",
      "note_on channel=0 note=62 velocity=127 time=0.03229166666666666\n",
      "note_on channel=0 note=61 velocity=127 time=0.004166666666666667\n",
      "note_off channel=0 note=62 velocity=127 time=0.016666666666666666\n",
      "note_off channel=0 note=61 velocity=127 time=0.004166666666666667\n",
      "note_on channel=0 note=60 velocity=127 time=0.003125\n",
      "note_off channel=0 note=60 velocity=127 time=0.019791666666666666\n",
      "note_on channel=0 note=61 velocity=127 time=0.04479166666666667\n",
      "note_on channel=0 note=60 velocity=127 time=0.014583333333333334\n",
      "note_off channel=0 note=61 velocity=127 time=0.00625\n",
      "note_off channel=0 note=60 velocity=127 time=0.014583333333333334\n",
      "note_on channel=0 note=62 velocity=127 time=0.014583333333333334\n",
      "note_off channel=0 note=62 velocity=127 time=0.019791666666666666\n",
      "note_on channel=0 note=61 velocity=127 time=0.019791666666666666\n",
      "note_on channel=0 note=60 velocity=127 time=0.005208333333333333\n",
      "note_off channel=0 note=61 velocity=127 time=0.015625\n",
      "note_off channel=0 note=60 velocity=127 time=0.005208333333333333\n",
      "note_on channel=0 note=60 velocity=127 time=0.059375\n",
      "note_on channel=0 note=61 velocity=127 time=0.004166666666666667\n",
      "note_on channel=0 note=62 velocity=127 time=0.013541666666666667\n",
      "note_off channel=0 note=60 velocity=127 time=0.0020833333333333333\n",
      "note_off channel=0 note=61 velocity=127 time=0.004166666666666667\n",
      "note_off channel=0 note=62 velocity=127 time=0.013541666666666667\n",
      "note_on channel=0 note=60 velocity=127 time=0.041666666666666664\n",
      "note_on channel=0 note=61 velocity=127 time=0.013541666666666667\n",
      "note_off channel=0 note=60 velocity=127 time=0.00625\n",
      "note_off channel=0 note=61 velocity=127 time=0.013541666666666667\n",
      "note_on channel=0 note=60 velocity=127 time=0.04583333333333333\n",
      "note_on channel=0 note=62 velocity=127 time=0\n",
      "note_off channel=0 note=60 velocity=127 time=0.019791666666666666\n",
      "note_off channel=0 note=62 velocity=127 time=0\n",
      "note_on channel=0 note=61 velocity=127 time=0.003125\n",
      "note_off channel=0 note=61 velocity=127 time=0.019791666666666666\n",
      "note_on channel=0 note=60 velocity=127 time=0.036458333333333336\n",
      "note_off channel=0 note=60 velocity=127 time=0.019791666666666666\n",
      "note_on channel=0 note=61 velocity=127 time=0.0125\n",
      "note_off channel=0 note=61 velocity=127 time=0.019791666666666666\n",
      "note_on channel=0 note=62 velocity=127 time=0.010416666666666666\n",
      "note_on channel=0 note=60 velocity=127 time=0.016666666666666666\n",
      "note_off channel=0 note=62 velocity=127 time=0.003125\n",
      "note_off channel=0 note=60 velocity=127 time=0.016666666666666666\n",
      "note_on channel=0 note=61 velocity=127 time=0.021875\n",
      "note_off channel=0 note=61 velocity=127 time=0.019791666666666666\n",
      "note_on channel=0 note=60 velocity=127 time=0.017708333333333333\n",
      "note_off channel=0 note=60 velocity=127 time=0.019791666666666666\n",
      "note_on channel=0 note=62 velocity=127 time=0.025\n",
      "note_on channel=0 note=61 velocity=127 time=0.00625\n",
      "note_off channel=0 note=62 velocity=127 time=0.014583333333333334\n",
      "note_off channel=0 note=61 velocity=127 time=0.00625\n",
      "note_on channel=0 note=60 velocity=127 time=0.008333333333333333\n",
      "note_off channel=0 note=60 velocity=127 time=0.019791666666666666\n",
      "note_on channel=0 note=61 velocity=127 time=0.040625\n",
      "note_on channel=0 note=60 velocity=127 time=0.01875\n",
      "note_off channel=0 note=61 velocity=127 time=0.0010416666666666667\n",
      "note_off channel=0 note=60 velocity=127 time=0.01875\n",
      "note_on channel=0 note=62 velocity=127 time=0.007291666666666667\n",
      "note_off channel=0 note=62 velocity=127 time=0.019791666666666666\n",
      "note_on channel=0 note=61 velocity=127 time=0.021875\n",
      "note_on channel=0 note=60 velocity=127 time=0.009375\n",
      "note_off channel=0 note=61 velocity=127 time=0.010416666666666666\n",
      "note_off channel=0 note=60 velocity=127 time=0.009375\n",
      "note_on channel=0 note=61 velocity=127 time=0.058333333333333334\n",
      "\u001b[91m [DEBUG] > \u001b[0m\n",
      " |>  to_array: msg.time > max_t; t, n\n",
      " |>  3.018750000000003\n",
      " |>  150\n",
      "note_on channel=0 note=60 velocity=127 time=0.0010416666666666667\n",
      "note_off channel=0 note=60 velocity=127 time=0.019791666666666666\n",
      "note_on channel=0 note=61 velocity=127 time=0.011458333333333333\n",
      "note_off channel=0 note=61 velocity=127 time=0.019791666666666666\n",
      "note_on channel=0 note=62 velocity=127 time=0.010416666666666666\n",
      "note_off channel=0 note=62 velocity=127 time=0.019791666666666666\n",
      "note_on channel=0 note=60 velocity=127 time=0.027083333333333334\n",
      "note_on channel=0 note=61 velocity=127 time=0.017708333333333333\n",
      "note_off channel=0 note=60 velocity=127 time=0.0020833333333333333\n",
      "note_on channel=0 note=62 velocity=127 time=0.0010416666666666667\n",
      "note_off channel=0 note=61 velocity=127 time=0.016666666666666666\n",
      "note_off channel=0 note=62 velocity=127 time=0.003125\n",
      "note_on channel=0 note=62 velocity=127 time=0.04791666666666666\n",
      "note_on channel=0 note=60 velocity=127 time=0.019791666666666666\n",
      "note_off channel=0 note=62 velocity=127 time=0.0010416666666666667\n",
      "note_on channel=0 note=61 velocity=127 time=0.004166666666666667\n",
      "note_off channel=0 note=60 velocity=127 time=0.015625\n",
      "note_off channel=0 note=61 velocity=127 time=0.004166666666666667\n",
      "note_on channel=0 note=62 velocity=127 time=0.02395833333333333\n",
      "note_off channel=0 note=62 velocity=127 time=0.019791666666666666\n",
      "note_on channel=0 note=61 velocity=127 time=0.03125\n",
      "note_on channel=0 note=60 velocity=127 time=0.008333333333333333\n",
      "note_on channel=0 note=62 velocity=127 time=0.008333333333333333\n",
      "note_off channel=0 note=61 velocity=127 time=0.003125\n",
      "note_off channel=0 note=60 velocity=127 time=0.008333333333333333\n",
      "note_off channel=0 note=62 velocity=127 time=0.008333333333333333\n",
      "note_on channel=0 note=62 velocity=127 time=0.04791666666666666\n",
      "note_on channel=0 note=61 velocity=127 time=0.009375\n",
      "note_off channel=0 note=62 velocity=127 time=0.010416666666666666\n",
      "note_off channel=0 note=61 velocity=127 time=0.009375\n",
      "note_on channel=0 note=60 velocity=127 time=0.0020833333333333333\n",
      "note_off channel=0 note=60 velocity=127 time=0.019791666666666666\n",
      "note_on channel=0 note=62 velocity=127 time=0.016666666666666666\n",
      "note_off channel=0 note=62 velocity=127 time=0.019791666666666666\n",
      "note_on channel=0 note=61 velocity=127 time=0.016666666666666666\n"
     ]
    },
    {
     "name": "stdout",
     "output_type": "stream",
     "text": [
      "note_off channel=0 note=61 velocity=127 time=0.019791666666666666\n",
      "note_on channel=0 note=62 velocity=127 time=0.011458333333333333\n",
      "note_on channel=0 note=60 velocity=127 time=0.004166666666666667\n",
      "note_off channel=0 note=62 velocity=127 time=0.016666666666666666\n",
      "note_off channel=0 note=60 velocity=127 time=0.004166666666666667\n",
      "note_on channel=0 note=61 velocity=127 time=0.03958333333333333\n",
      "note_on channel=0 note=62 velocity=127 time=0.005208333333333333\n",
      "note_off channel=0 note=61 velocity=127 time=0.015625\n",
      "note_off channel=0 note=62 velocity=127 time=0.005208333333333333\n",
      "note_on channel=0 note=60 velocity=127 time=0.02395833333333333\n",
      "note_off channel=0 note=60 velocity=127 time=0.019791666666666666\n",
      "note_on channel=0 note=62 velocity=127 time=0.004166666666666667\n",
      "note_off channel=0 note=62 velocity=127 time=0.019791666666666666\n",
      "note_on channel=0 note=61 velocity=127 time=0.0020833333333333333\n",
      "note_off channel=0 note=61 velocity=127 time=0.019791666666666666\n",
      "note_on channel=0 note=62 velocity=127 time=0.026041666666666668\n",
      "note_on channel=0 note=60 velocity=127 time=0.015625\n",
      "note_off channel=0 note=62 velocity=127 time=0.004166666666666667\n",
      "note_off channel=0 note=60 velocity=127 time=0.015625\n",
      "note_on channel=0 note=61 velocity=127 time=0.0125\n",
      "note_on channel=0 note=62 velocity=127 time=0.01875\n",
      "note_off channel=0 note=61 velocity=127 time=0.0010416666666666667\n",
      "note_off channel=0 note=62 velocity=127 time=0.01875\n",
      "note_on channel=0 note=60 velocity=127 time=0.036458333333333336\n",
      "note_on channel=0 note=62 velocity=127 time=0.011458333333333333\n",
      "note_on channel=0 note=61 velocity=127 time=0.007291666666666667\n",
      "note_off channel=0 note=60 velocity=127 time=0\n",
      "note_off channel=0 note=62 velocity=127 time=0.011458333333333333\n",
      "note_off channel=0 note=61 velocity=127 time=0.007291666666666667\n",
      "note_on channel=0 note=62 velocity=127 time=0.040625\n",
      "note_off channel=0 note=62 velocity=127 time=0.019791666666666666\n",
      "note_on channel=0 note=60 velocity=127 time=0.008333333333333333\n",
      "note_on channel=0 note=61 velocity=127 time=0.00625\n",
      "note_off channel=0 note=60 velocity=127 time=0.013541666666666667\n",
      "note_off channel=0 note=61 velocity=127 time=0.00625\n",
      "note_on channel=0 note=62 velocity=127 time=0.013541666666666667\n",
      "note_off channel=0 note=62 velocity=127 time=0.019791666666666666\n",
      "note_on channel=0 note=61 velocity=127 time=0.041666666666666664\n",
      "note_on channel=0 note=62 velocity=127 time=0.00625\n",
      "note_on channel=0 note=60 velocity=127 time=0\n",
      "note_off channel=0 note=61 velocity=127 time=0.0125\n",
      "note_off channel=0 note=62 velocity=127 time=0.00625\n",
      "note_off channel=0 note=60 velocity=127 time=0\n",
      "note_on channel=0 note=62 velocity=127 time=0.04791666666666666\n",
      "note_off channel=0 note=62 velocity=127 time=0.019791666666666666\n",
      "note_on channel=0 note=61 velocity=127 time=0\n",
      "note_off channel=0 note=61 velocity=127 time=0.019791666666666666\n",
      "note_on channel=0 note=60 velocity=127 time=0\n",
      "note_off channel=0 note=60 velocity=127 time=0.019791666666666666\n",
      "note_on channel=0 note=62 velocity=127 time=0.007291666666666667\n",
      "note_off channel=0 note=62 velocity=127 time=0.019791666666666666\n",
      "note_on channel=0 note=61 velocity=127 time=0.027083333333333334\n",
      "note_off channel=0 note=61 velocity=127 time=0.019791666666666666\n",
      "note_on channel=0 note=62 velocity=127 time=0.0010416666666666667\n",
      "note_on channel=0 note=60 velocity=127 time=0.0125\n",
      "note_off channel=0 note=62 velocity=127 time=0.007291666666666667\n",
      "note_off channel=0 note=60 velocity=127 time=0.0125\n",
      "note_on channel=0 note=62 velocity=127 time=0.035416666666666666\n",
      "note_on channel=0 note=61 velocity=127 time=0.00625\n",
      "note_off channel=0 note=62 velocity=127 time=0.013541666666666667\n",
      "note_off channel=0 note=61 velocity=127 time=0.00625\n",
      "note_on channel=0 note=60 velocity=127 time=0.027083333333333334\n",
      "note_on channel=0 note=62 velocity=127 time=0.015625\n",
      "note_off channel=0 note=60 velocity=127 time=0.005208333333333333\n",
      "note_off channel=0 note=62 velocity=127 time=0.015625\n",
      "note_on channel=0 note=61 velocity=127 time=0.0125\n",
      "note_off channel=0 note=61 velocity=127 time=0.019791666666666666\n",
      "note_on channel=0 note=62 velocity=127 time=0.015625\n",
      "note_off channel=0 note=62 velocity=127 time=0.019791666666666666\n",
      "note_on channel=0 note=60 velocity=127 time=0.005208333333333333\n",
      "note_off channel=0 note=60 velocity=127 time=0.019791666666666666\n",
      "note_on channel=0 note=61 velocity=127 time=0.014583333333333334\n",
      "note_on channel=0 note=62 velocity=127 time=0.008333333333333333\n",
      "note_off channel=0 note=61 velocity=127 time=0.011458333333333333\n",
      "note_off channel=0 note=62 velocity=127 time=0.008333333333333333\n",
      "note_on channel=0 note=60 velocity=127 time=0.04479166666666667\n",
      "note_on channel=0 note=62 velocity=127 time=0.003125\n",
      "note_off channel=0 note=60 velocity=127 time=0.016666666666666666\n",
      "note_on channel=0 note=61 velocity=127 time=0.0010416666666666667\n",
      "note_off channel=0 note=62 velocity=127 time=0.0010416666666666667\n",
      "note_off channel=0 note=61 velocity=127 time=0.01875\n",
      "note_on channel=0 note=62 velocity=127 time=0.029166666666666667\n",
      "note_off channel=0 note=62 velocity=127 time=0.019791666666666666\n",
      "note_on channel=0 note=60 velocity=127 time=0.017708333333333333\n",
      "note_on channel=0 note=61 velocity=127 time=0.008333333333333333\n",
      "note_off channel=0 note=60 velocity=127 time=0.011458333333333333\n",
      "note_off channel=0 note=61 velocity=127 time=0.008333333333333333\n",
      "note_on channel=0 note=62 velocity=127 time=0.003125\n",
      "note_off channel=0 note=62 velocity=127 time=0.019791666666666666\n",
      "note_on channel=0 note=62 velocity=127 time=0.04791666666666666\n",
      "note_on channel=0 note=61 velocity=127 time=0.004166666666666667\n",
      "note_on channel=0 note=60 velocity=127 time=0.005208333333333333\n",
      "note_off channel=0 note=62 velocity=127 time=0.010416666666666666\n",
      "note_off channel=0 note=61 velocity=127 time=0.004166666666666667\n",
      "note_off channel=0 note=60 velocity=127 time=0.005208333333333333\n",
      "note_on channel=0 note=62 velocity=127 time=0.03854166666666667\n",
      "note_off channel=0 note=62 velocity=127 time=0.019791666666666666\n",
      "note_on channel=0 note=61 velocity=127 time=0.011458333333333333\n",
      "note_on channel=0 note=60 velocity=127 time=0.01875\n",
      "note_off channel=0 note=61 velocity=127 time=0.0010416666666666667\n",
      "note_on channel=0 note=62 velocity=127 time=0.016666666666666666\n",
      "note_off channel=0 note=60 velocity=127 time=0.0010416666666666667\n",
      "note_off channel=0 note=62 velocity=127 time=0.01875\n",
      "note_on channel=0 note=61 velocity=127 time=0.03854166666666667\n",
      "note_on channel=0 note=62 velocity=127 time=0.010416666666666666\n",
      "note_off channel=0 note=61 velocity=127 time=0.009375\n",
      "note_off channel=0 note=62 velocity=127 time=0.010416666666666666\n",
      "note_on channel=0 note=60 velocity=127 time=0.0020833333333333333\n",
      "note_off channel=0 note=60 velocity=127 time=0.019791666666666666\n",
      "note_on channel=0 note=62 velocity=127 time=0.027083333333333334\n",
      "note_on channel=0 note=61 velocity=127 time=0.016666666666666666\n",
      "note_off channel=0 note=62 velocity=127 time=0.003125\n",
      "note_off channel=0 note=61 velocity=127 time=0.016666666666666666\n",
      "note_on channel=0 note=60 velocity=127 time=0.025\n",
      "note_on channel=0 note=62 velocity=127 time=0.00625\n",
      "note_off channel=0 note=60 velocity=127 time=0.013541666666666667\n",
      "note_off channel=0 note=62 velocity=127 time=0.00625\n",
      "note_on channel=0 note=61 velocity=127 time=0.02395833333333333\n",
      "note_off channel=0 note=61 velocity=127 time=0.019791666666666666\n",
      "note_on channel=0 note=62 velocity=127 time=0.004166666666666667\n",
      "note_off channel=0 note=62 velocity=127 time=0.019791666666666666\n",
      "note_on channel=0 note=60 velocity=127 time=0.013541666666666667\n",
      "note_off channel=0 note=60 velocity=127 time=0.019791666666666666\n",
      "note_on channel=0 note=62 velocity=127 time=0.014583333333333334\n",
      "note_on channel=0 note=61 velocity=127 time=0.0020833333333333333\n",
      "note_off channel=0 note=62 velocity=127 time=0.017708333333333333\n",
      "note_off channel=0 note=61 velocity=127 time=0.0020833333333333333\n",
      "note_on channel=0 note=62 velocity=127 time=0.04583333333333333\n",
      "note_on channel=0 note=60 velocity=127 time=0.00625\n",
      "note_off channel=0 note=62 velocity=127 time=0.013541666666666667\n",
      "note_off channel=0 note=60 velocity=127 time=0.00625\n",
      "note_on channel=0 note=61 velocity=127 time=0.003125\n",
      "note_off channel=0 note=61 velocity=127 time=0.019791666666666666\n",
      "note_on channel=0 note=62 velocity=127 time=0.01875\n",
      "note_off channel=0 note=62 velocity=127 time=0.019791666666666666\n",
      "note_on channel=0 note=60 velocity=127 time=0.026041666666666668\n",
      "note_on channel=0 note=61 velocity=127 time=0.010416666666666666\n",
      "note_off channel=0 note=60 velocity=127 time=0.010416666666666666\n",
      "note_on channel=0 note=62 velocity=127 time=0.0020833333333333333\n",
      "note_off channel=0 note=61 velocity=127 time=0.008333333333333333\n",
      "note_off channel=0 note=62 velocity=127 time=0.011458333333333333\n",
      "note_on channel=0 note=62 velocity=127 time=0.04791666666666666\n",
      "note_on channel=0 note=61 velocity=127 time=0.014583333333333334\n",
      "note_on channel=0 note=60 velocity=127 time=0.003125\n",
      "note_off channel=0 note=62 velocity=127 time=0.0020833333333333333\n",
      "note_off channel=0 note=61 velocity=127 time=0.014583333333333334\n",
      "note_off channel=0 note=60 velocity=127 time=0.003125\n",
      "note_on channel=0 note=62 velocity=127 time=0.030208333333333334\n",
      "note_off channel=0 note=62 velocity=127 time=0.019791666666666666\n",
      "note_on channel=0 note=61 velocity=127 time=0.021875\n",
      "note_on channel=0 note=60 velocity=127 time=0.016666666666666666\n",
      "note_off channel=0 note=61 velocity=127 time=0.003125\n",
      "note_on channel=0 note=62 velocity=127 time=0.00625\n",
      "note_off channel=0 note=60 velocity=127 time=0.010416666666666666\n",
      "note_off channel=0 note=62 velocity=127 time=0.009375\n",
      "note_on channel=0 note=62 velocity=127 time=0.04791666666666666\n",
      "note_on channel=0 note=61 velocity=127 time=0.0010416666666666667\n",
      "note_off channel=0 note=62 velocity=127 time=0.019791666666666666\n",
      "note_off channel=0 note=61 velocity=127 time=0.0010416666666666667\n",
      "note_on channel=0 note=60 velocity=127 time=0.010416666666666666\n",
      "note_off channel=0 note=60 velocity=127 time=0.019791666666666666\n",
      "note_on channel=0 note=62 velocity=127 time=0.017708333333333333\n",
      "note_off channel=0 note=62 velocity=127 time=0.019791666666666666\n",
      "note_on channel=0 note=61 velocity=127 time=0.007291666666666667\n",
      "note_off channel=0 note=61 velocity=127 time=0.019791666666666666\n",
      "note_on channel=0 note=62 velocity=127 time=0.020833333333333332\n",
      "note_on channel=0 note=60 velocity=127 time=0.0020833333333333333\n",
      "note_off channel=0 note=62 velocity=127 time=0.017708333333333333\n",
      "note_off channel=0 note=60 velocity=127 time=0.0020833333333333333\n",
      "note_on channel=0 note=61 velocity=127 time=0.03229166666666666\n",
      "note_on channel=0 note=62 velocity=127 time=0.013541666666666667\n",
      "note_off channel=0 note=61 velocity=127 time=0.00625\n",
      "note_off channel=0 note=62 velocity=127 time=0.013541666666666667\n",
      "\u001b[91m [DEBUG] > \u001b[0m\n",
      " |>  to_array: msg.time > max_t; t, n\n",
      " |>  3.0010416666666657\n",
      " |>  150\n",
      "note_on channel=0 note=61 velocity=127 time=0.014583333333333334\n",
      "note_off channel=0 note=61 velocity=127 time=0.019791666666666666\n",
      "note_on channel=0 note=60 velocity=127 time=0.003125\n",
      "note_off channel=0 note=60 velocity=127 time=0.019791666666666666\n",
      "note_on channel=0 note=61 velocity=127 time=0.07604166666666666\n",
      "note_on channel=0 note=60 velocity=127 time=0.0125\n",
      "note_on channel=0 note=62 velocity=127 time=0.0010416666666666667\n",
      "note_off channel=0 note=61 velocity=127 time=0.00625\n",
      "note_off channel=0 note=60 velocity=127 time=0.0125\n",
      "note_off channel=0 note=62 velocity=127 time=0.0010416666666666667\n",
      "note_on channel=0 note=61 velocity=127 time=0.084375\n",
      "note_on channel=0 note=60 velocity=127 time=0.003125\n",
      "note_off channel=0 note=61 velocity=127 time=0.016666666666666666\n",
      "note_off channel=0 note=60 velocity=127 time=0.003125\n",
      "note_on channel=0 note=62 velocity=127 time=0.06041666666666667\n",
      "note_off channel=0 note=62 velocity=127 time=0.019791666666666666\n",
      "note_on channel=0 note=60 velocity=127 time=0.008333333333333333\n",
      "note_on channel=0 note=61 velocity=127 time=0.007291666666666667\n",
      "note_off channel=0 note=60 velocity=127 time=0.0125\n",
      "note_off channel=0 note=61 velocity=127 time=0.007291666666666667\n",
      "note_on channel=0 note=60 velocity=127 time=0.08125\n",
      "note_on channel=0 note=61 velocity=127 time=0.016666666666666666\n",
      "note_off channel=0 note=60 velocity=127 time=0.003125\n",
      "note_off channel=0 note=61 velocity=127 time=0.016666666666666666\n",
      "note_on channel=0 note=62 velocity=127 time=0.014583333333333334\n",
      "note_off channel=0 note=62 velocity=127 time=0.019791666666666666\n",
      "note_on channel=0 note=60 velocity=127 time=0.0375\n",
      "note_off channel=0 note=60 velocity=127 time=0.019791666666666666\n",
      "note_on channel=0 note=61 velocity=127 time=0.007291666666666667\n",
      "note_off channel=0 note=61 velocity=127 time=0.019791666666666666\n",
      "note_on channel=0 note=60 velocity=127 time=0.06145833333333333\n",
      "note_off channel=0 note=60 velocity=127 time=0.019791666666666666\n",
      "note_on channel=0 note=62 velocity=127 time=0.0020833333333333333\n",
      "note_on channel=0 note=61 velocity=127 time=0.014583333333333334\n",
      "note_off channel=0 note=62 velocity=127 time=0.005208333333333333\n",
      "note_off channel=0 note=61 velocity=127 time=0.014583333333333334\n",
      "note_on channel=0 note=60 velocity=127 time=0.051041666666666666\n",
      "note_off channel=0 note=60 velocity=127 time=0.019791666666666666\n",
      "note_on channel=0 note=61 velocity=127 time=0.027083333333333334\n",
      "note_off channel=0 note=61 velocity=127 time=0.019791666666666666\n",
      "note_on channel=0 note=62 velocity=127 time=0.034375\n",
      "note_on channel=0 note=60 velocity=127 time=0.00625\n",
      "note_off channel=0 note=62 velocity=127 time=0.013541666666666667\n",
      "note_off channel=0 note=60 velocity=127 time=0.00625\n",
      "note_on channel=0 note=61 velocity=127 time=0.0375\n",
      "note_off channel=0 note=61 velocity=127 time=0.019791666666666666\n",
      "note_on channel=0 note=60 velocity=127 time=0.03125\n",
      "note_off channel=0 note=60 velocity=127 time=0.019791666666666666\n",
      "note_on channel=0 note=61 velocity=127 time=0.046875\n",
      "note_on channel=0 note=62 velocity=127 time=0.005208333333333333\n",
      "note_off channel=0 note=61 velocity=127 time=0.014583333333333334\n",
      "note_off channel=0 note=62 velocity=127 time=0.005208333333333333\n",
      "note_on channel=0 note=60 velocity=127 time=0.015625\n",
      "note_off channel=0 note=60 velocity=127 time=0.019791666666666666\n",
      "note_on channel=0 note=61 velocity=127 time=0.057291666666666664\n",
      "note_off channel=0 note=61 velocity=127 time=0.019791666666666666\n",
      "note_on channel=0 note=60 velocity=127 time=0.011458333333333333\n",
      "note_off channel=0 note=60 velocity=127 time=0.019791666666666666\n",
      "note_on channel=0 note=62 velocity=127 time=0.02395833333333333\n",
      "note_off channel=0 note=62 velocity=127 time=0.019791666666666666\n",
      "note_on channel=0 note=61 velocity=127 time=0.022916666666666665\n",
      "note_off channel=0 note=61 velocity=127 time=0.019791666666666666\n",
      "note_on channel=0 note=60 velocity=127 time=0.0010416666666666667\n",
      "note_off channel=0 note=60 velocity=127 time=0.019791666666666666\n",
      "note_on channel=0 note=61 velocity=127 time=0.07708333333333334\n",
      "note_on channel=0 note=60 velocity=127 time=0.011458333333333333\n",
      "note_off channel=0 note=61 velocity=127 time=0.008333333333333333\n",
      "note_on channel=0 note=62 velocity=127 time=0.00625\n",
      "note_off channel=0 note=60 velocity=127 time=0.005208333333333333\n",
      "note_off channel=0 note=62 velocity=127 time=0.014583333333333334\n",
      "note_on channel=0 note=61 velocity=127 time=0.07291666666666667\n",
      "note_on channel=0 note=60 velocity=127 time=0.0010416666666666667\n",
      "note_off channel=0 note=61 velocity=127 time=0.01875\n",
      "note_off channel=0 note=60 velocity=127 time=0.0010416666666666667\n",
      "note_on channel=0 note=62 velocity=127 time=0.07395833333333333\n",
      "note_on channel=0 note=60 velocity=127 time=0.014583333333333334\n",
      "note_off channel=0 note=62 velocity=127 time=0.005208333333333333\n",
      "note_on channel=0 note=61 velocity=127 time=0.003125\n",
      "note_off channel=0 note=60 velocity=127 time=0.011458333333333333\n",
      "note_off channel=0 note=61 velocity=127 time=0.008333333333333333\n",
      "note_on channel=0 note=60 velocity=127 time=0.08020833333333333\n",
      "note_on channel=0 note=61 velocity=127 time=0.01875\n",
      "note_off channel=0 note=60 velocity=127 time=0.0010416666666666667\n",
      "note_off channel=0 note=61 velocity=127 time=0.01875\n",
      "note_on channel=0 note=62 velocity=127 time=0.026041666666666668\n",
      "note_off channel=0 note=62 velocity=127 time=0.019791666666666666\n",
      "note_on channel=0 note=60 velocity=127 time=0.02395833333333333\n",
      "note_off channel=0 note=60 velocity=127 time=0.019791666666666666\n",
      "note_on channel=0 note=61 velocity=127 time=0.008333333333333333\n",
      "note_off channel=0 note=61 velocity=127 time=0.019791666666666666\n",
      "note_on channel=0 note=60 velocity=127 time=0.06041666666666667\n",
      "note_off channel=0 note=60 velocity=127 time=0.019791666666666666\n",
      "note_on channel=0 note=62 velocity=127 time=0.015625\n",
      "note_on channel=0 note=61 velocity=127 time=0.003125\n",
      "note_off channel=0 note=62 velocity=127 time=0.017708333333333333\n",
      "note_off channel=0 note=61 velocity=127 time=0.003125\n",
      "note_on channel=0 note=60 velocity=127 time=0.05\n",
      "note_off channel=0 note=60 velocity=127 time=0.019791666666666666\n",
      "note_on channel=0 note=61 velocity=127 time=0.028125\n",
      "note_off channel=0 note=61 velocity=127 time=0.019791666666666666\n",
      "note_on channel=0 note=60 velocity=127 time=0.03958333333333333\n",
      "note_on channel=0 note=62 velocity=127 time=0.00625\n",
      "note_off channel=0 note=60 velocity=127 time=0.013541666666666667\n",
      "note_off channel=0 note=62 velocity=127 time=0.00625\n",
      "note_on channel=0 note=61 velocity=127 time=0.03125\n",
      "note_off channel=0 note=61 velocity=127 time=0.019791666666666666\n",
      "note_on channel=0 note=60 velocity=127 time=0.030208333333333334\n",
      "note_off channel=0 note=60 velocity=127 time=0.019791666666666666\n",
      "note_on channel=0 note=61 velocity=127 time=0.04895833333333333\n",
      "note_on channel=0 note=62 velocity=127 time=0.017708333333333333\n",
      "note_off channel=0 note=61 velocity=127 time=0.0020833333333333333\n",
      "note_off channel=0 note=62 velocity=127 time=0.017708333333333333\n",
      "note_on channel=0 note=60 velocity=127 time=0.0020833333333333333\n",
      "note_off channel=0 note=60 velocity=127 time=0.019791666666666666\n",
      "note_on channel=0 note=61 velocity=127 time=0.058333333333333334\n",
      "note_off channel=0 note=61 velocity=127 time=0.019791666666666666\n",
      "note_on channel=0 note=60 velocity=127 time=0.010416666666666666\n",
      "note_off channel=0 note=60 velocity=127 time=0.019791666666666666\n",
      "note_on channel=0 note=62 velocity=127 time=0.0375\n",
      "note_off channel=0 note=62 velocity=127 time=0.019791666666666666\n",
      "note_on channel=0 note=61 velocity=127 time=0.011458333333333333\n",
      "note_off channel=0 note=61 velocity=127 time=0.019791666666666666\n",
      "note_on channel=0 note=60 velocity=127 time=0\n",
      "note_off channel=0 note=60 velocity=127 time=0.019791666666666666\n",
      "note_on channel=0 note=61 velocity=127 time=0.078125\n",
      "note_on channel=0 note=60 velocity=127 time=0.010416666666666666\n",
      "note_off channel=0 note=61 velocity=127 time=0.010416666666666666\n",
      "note_off channel=0 note=60 velocity=127 time=0.010416666666666666\n",
      "note_on channel=0 note=62 velocity=127 time=0.008333333333333333\n",
      "note_off channel=0 note=62 velocity=127 time=0.019791666666666666\n",
      "note_on channel=0 note=61 velocity=127 time=0.06041666666666667\n",
      "note_on channel=0 note=60 velocity=127 time=0\n",
      "note_off channel=0 note=61 velocity=127 time=0.019791666666666666\n",
      "note_off channel=0 note=60 velocity=127 time=0\n",
      "note_on channel=0 note=62 velocity=127 time=0.0875\n",
      "note_on channel=0 note=60 velocity=127 time=0.0010416666666666667\n",
      "note_on channel=0 note=61 velocity=127 time=0.010416666666666666\n",
      "note_off channel=0 note=62 velocity=127 time=0.009375\n",
      "note_off channel=0 note=60 velocity=127 time=0.0010416666666666667\n",
      "note_off channel=0 note=61 velocity=127 time=0.010416666666666666\n",
      "note_on channel=0 note=60 velocity=127 time=0.078125\n",
      "\u001b[91m [DEBUG] > \u001b[0m\n",
      " |>  to_array: msg.time > max_t; t, n\n",
      " |>  3.0677083333333335\n",
      " |>  150\n",
      "note_on channel=0 note=60 velocity=127 time=0.008333333333333333\n",
      "note_off channel=0 note=60 velocity=127 time=0.019791666666666666\n",
      "note_on channel=0 note=60 velocity=127 time=0.053125\n",
      "note_off channel=0 note=60 velocity=127 time=0.019791666666666666\n",
      "note_on channel=0 note=62 velocity=127 time=0.034375\n",
      "note_on channel=0 note=60 velocity=127 time=0.01875\n",
      "note_off channel=0 note=62 velocity=127 time=0.0010416666666666667\n",
      "note_off channel=0 note=60 velocity=127 time=0.01875\n",
      "note_on channel=0 note=61 velocity=127 time=0.026041666666666668\n",
      "note_off channel=0 note=61 velocity=127 time=0.019791666666666666\n",
      "note_on channel=0 note=60 velocity=127 time=0.007291666666666667\n",
      "note_off channel=0 note=60 velocity=127 time=0.019791666666666666\n",
      "note_on channel=0 note=60 velocity=127 time=0.053125\n",
      "note_on channel=0 note=62 velocity=127 time=0.005208333333333333\n",
      "note_off channel=0 note=60 velocity=127 time=0.014583333333333334\n",
      "note_off channel=0 note=62 velocity=127 time=0.005208333333333333\n",
      "note_on channel=0 note=60 velocity=127 time=0.04791666666666666\n",
      "note_off channel=0 note=60 velocity=127 time=0.019791666666666666\n",
      "note_on channel=0 note=60 velocity=127 time=0.053125\n",
      "note_off channel=0 note=60 velocity=127 time=0.019791666666666666\n",
      "note_on channel=0 note=62 velocity=127 time=0.010416666666666666\n",
      "note_on channel=0 note=61 velocity=127 time=0.005208333333333333\n",
      "note_off channel=0 note=62 velocity=127 time=0.015625\n",
      "note_off channel=0 note=61 velocity=127 time=0.005208333333333333\n",
      "note_on channel=0 note=60 velocity=127 time=0.017708333333333333\n",
      "note_off channel=0 note=60 velocity=127 time=0.019791666666666666\n",
      "note_on channel=0 note=60 velocity=127 time=0.053125\n",
      "note_off channel=0 note=60 velocity=127 time=0.019791666666666666\n",
      "note_on channel=0 note=62 velocity=127 time=0.035416666666666666\n",
      "note_on channel=0 note=60 velocity=127 time=0.01875\n",
      "note_off channel=0 note=62 velocity=127 time=0.0020833333333333333\n",
      "note_off channel=0 note=60 velocity=127 time=0.01875\n",
      "note_on channel=0 note=60 velocity=127 time=0.053125\n",
      "note_off channel=0 note=60 velocity=127 time=0.019791666666666666\n",
      "note_on channel=0 note=61 velocity=127 time=0.004166666666666667\n",
      "note_off channel=0 note=61 velocity=127 time=0.019791666666666666\n",
      "note_on channel=0 note=60 velocity=127 time=0.029166666666666667\n",
      "note_on channel=0 note=62 velocity=127 time=0.00625\n",
      "note_off channel=0 note=60 velocity=127 time=0.013541666666666667\n",
      "note_off channel=0 note=62 velocity=127 time=0.00625\n",
      "note_on channel=0 note=60 velocity=127 time=0.046875\n",
      "note_off channel=0 note=60 velocity=127 time=0.019791666666666666\n",
      "note_on channel=0 note=60 velocity=127 time=0.053125\n",
      "note_off channel=0 note=60 velocity=127 time=0.019791666666666666\n",
      "note_on channel=0 note=62 velocity=127 time=0.011458333333333333\n",
      "note_off channel=0 note=62 velocity=127 time=0.019791666666666666\n",
      "note_on channel=0 note=60 velocity=127 time=0.021875\n",
      "note_on channel=0 note=61 velocity=127 time=0.013541666666666667\n",
      "note_off channel=0 note=60 velocity=127 time=0.00625\n",
      "note_off channel=0 note=61 velocity=127 time=0.013541666666666667\n",
      "note_on channel=0 note=60 velocity=127 time=0.03958333333333333\n",
      "note_off channel=0 note=60 velocity=127 time=0.019791666666666666\n",
      "note_on channel=0 note=62 velocity=127 time=0.036458333333333336\n",
      "note_on channel=0 note=60 velocity=127 time=0.017708333333333333\n",
      "note_off channel=0 note=62 velocity=127 time=0.003125\n",
      "note_off channel=0 note=60 velocity=127 time=0.017708333333333333\n",
      "note_on channel=0 note=60 velocity=127 time=0.053125\n",
      "note_off channel=0 note=60 velocity=127 time=0.019791666666666666\n",
      "note_on channel=0 note=60 velocity=127 time=0.053125\n",
      "note_on channel=0 note=61 velocity=127 time=0.003125\n",
      "note_on channel=0 note=62 velocity=127 time=0.004166666666666667\n",
      "note_off channel=0 note=60 velocity=127 time=0.0125\n",
      "note_off channel=0 note=61 velocity=127 time=0.003125\n",
      "note_off channel=0 note=62 velocity=127 time=0.004166666666666667\n",
      "note_on channel=0 note=60 velocity=127 time=0.04583333333333333\n",
      "note_off channel=0 note=60 velocity=127 time=0.019791666666666666\n",
      "note_on channel=0 note=60 velocity=127 time=0.053125\n",
      "note_off channel=0 note=60 velocity=127 time=0.019791666666666666\n",
      "note_on channel=0 note=62 velocity=127 time=0.0125\n",
      "note_off channel=0 note=62 velocity=127 time=0.019791666666666666\n",
      "note_on channel=0 note=60 velocity=127 time=0.020833333333333332\n",
      "note_off channel=0 note=60 velocity=127 time=0.019791666666666666\n",
      "note_on channel=0 note=61 velocity=127 time=0.04583333333333333\n",
      "note_on channel=0 note=60 velocity=127 time=0.007291666666666667\n",
      "note_off channel=0 note=61 velocity=127 time=0.0125\n",
      "note_off channel=0 note=60 velocity=127 time=0.007291666666666667\n",
      "note_on channel=0 note=62 velocity=127 time=0.036458333333333336\n",
      "note_on channel=0 note=60 velocity=127 time=0.016666666666666666\n",
      "note_off channel=0 note=62 velocity=127 time=0.003125\n",
      "note_off channel=0 note=60 velocity=127 time=0.016666666666666666\n",
      "note_on channel=0 note=60 velocity=127 time=0.053125\n",
      "note_off channel=0 note=60 velocity=127 time=0.019791666666666666\n",
      "note_on channel=0 note=60 velocity=127 time=0.053125\n",
      "note_on channel=0 note=62 velocity=127 time=0.008333333333333333\n",
      "note_off channel=0 note=60 velocity=127 time=0.011458333333333333\n",
      "note_off channel=0 note=62 velocity=127 time=0.008333333333333333\n",
      "note_on channel=0 note=61 velocity=127 time=0.027083333333333334\n",
      "note_on channel=0 note=60 velocity=127 time=0.017708333333333333\n",
      "note_off channel=0 note=61 velocity=127 time=0.0020833333333333333\n",
      "note_off channel=0 note=60 velocity=127 time=0.017708333333333333\n",
      "note_on channel=0 note=60 velocity=127 time=0.053125\n",
      "note_off channel=0 note=60 velocity=127 time=0.019791666666666666\n",
      "note_on channel=0 note=62 velocity=127 time=0.0125\n",
      "note_off channel=0 note=62 velocity=127 time=0.019791666666666666\n",
      "note_on channel=0 note=60 velocity=127 time=0.020833333333333332\n",
      "note_off channel=0 note=60 velocity=127 time=0.019791666666666666\n",
      "note_on channel=0 note=60 velocity=127 time=0.053125\n",
      "note_off channel=0 note=60 velocity=127 time=0.019791666666666666\n",
      "note_on channel=0 note=61 velocity=127 time=0.025\n",
      "note_on channel=0 note=62 velocity=127 time=0.013541666666666667\n",
      "note_off channel=0 note=61 velocity=127 time=0.007291666666666667\n",
      "note_on channel=0 note=60 velocity=127 time=0.008333333333333333\n",
      "note_off channel=0 note=62 velocity=127 time=0.004166666666666667\n",
      "note_off channel=0 note=60 velocity=127 time=0.015625\n",
      "note_on channel=0 note=60 velocity=127 time=0.053125\n",
      "note_off channel=0 note=60 velocity=127 time=0.019791666666666666\n",
      "note_on channel=0 note=60 velocity=127 time=0.053125\n",
      "note_on channel=0 note=62 velocity=127 time=0.009375\n",
      "note_off channel=0 note=60 velocity=127 time=0.011458333333333333\n",
      "note_off channel=0 note=62 velocity=127 time=0.009375\n",
      "note_on channel=0 note=60 velocity=127 time=0.04479166666666667\n",
      "note_off channel=0 note=60 velocity=127 time=0.019791666666666666\n",
      "note_on channel=0 note=61 velocity=127 time=0.013541666666666667\n",
      "note_off channel=0 note=61 velocity=127 time=0.019791666666666666\n",
      "note_on channel=0 note=60 velocity=127 time=0.019791666666666666\n",
      "note_off channel=0 note=60 velocity=127 time=0.019791666666666666\n",
      "note_on channel=0 note=62 velocity=127 time=0.013541666666666667\n",
      "note_off channel=0 note=62 velocity=127 time=0.019791666666666666\n",
      "note_on channel=0 note=60 velocity=127 time=0.019791666666666666\n",
      "note_off channel=0 note=60 velocity=127 time=0.019791666666666666\n",
      "note_on channel=0 note=60 velocity=127 time=0.053125\n",
      "note_off channel=0 note=60 velocity=127 time=0.019791666666666666\n",
      "note_on channel=0 note=62 velocity=127 time=0.03854166666666667\n",
      "note_on channel=0 note=60 velocity=127 time=0.014583333333333334\n",
      "note_off channel=0 note=62 velocity=127 time=0.005208333333333333\n",
      "note_off channel=0 note=60 velocity=127 time=0.014583333333333334\n",
      "note_on channel=0 note=61 velocity=127 time=0.003125\n",
      "note_off channel=0 note=61 velocity=127 time=0.019791666666666666\n",
      "note_on channel=0 note=60 velocity=127 time=0.030208333333333334\n",
      "note_off channel=0 note=60 velocity=127 time=0.019791666666666666\n",
      "note_on channel=0 note=60 velocity=127 time=0.053125\n",
      "note_on channel=0 note=62 velocity=127 time=0.009375\n",
      "note_off channel=0 note=60 velocity=127 time=0.010416666666666666\n",
      "note_off channel=0 note=62 velocity=127 time=0.009375\n",
      "note_on channel=0 note=60 velocity=127 time=0.04375\n",
      "note_off channel=0 note=60 velocity=127 time=0.019791666666666666\n",
      "note_on channel=0 note=60 velocity=127 time=0.053125\n",
      "\u001b[91m [DEBUG] > \u001b[0m\n",
      " |>  to_array: msg.time > max_t; t, n\n",
      " |>  3.006250000000005\n",
      " |>  150\n",
      "note_on channel=0 note=61 velocity=127 time=0.029166666666666667\n",
      "note_off channel=0 note=61 velocity=127 time=0.019791666666666666\n",
      "note_on channel=0 note=61 velocity=127 time=0.059375\n",
      "note_on channel=0 note=62 velocity=127 time=0.003125\n",
      "note_off channel=0 note=61 velocity=127 time=0.016666666666666666\n",
      "note_off channel=0 note=62 velocity=127 time=0.003125\n",
      "note_on channel=0 note=61 velocity=127 time=0.05625\n",
      "note_off channel=0 note=61 velocity=127 time=0.019791666666666666\n",
      "note_on channel=0 note=60 velocity=127 time=0.02395833333333333\n",
      "note_on channel=0 note=62 velocity=127 time=0.019791666666666666\n",
      "note_off channel=0 note=60 velocity=127 time=0\n",
      "note_on channel=0 note=61 velocity=127 time=0.014583333333333334\n",
      "note_off channel=0 note=62 velocity=127 time=0.005208333333333333\n",
      "note_off channel=0 note=61 velocity=127 time=0.014583333333333334\n",
      "note_on channel=0 note=61 velocity=127 time=0.059375\n",
      "note_off channel=0 note=61 velocity=127 time=0.019791666666666666\n",
      "note_on channel=0 note=62 velocity=127 time=0.026041666666666668\n",
      "note_off channel=0 note=62 velocity=127 time=0.019791666666666666\n",
      "note_on channel=0 note=61 velocity=127 time=0.013541666666666667\n",
      "note_off channel=0 note=61 velocity=127 time=0.019791666666666666\n",
      "note_on channel=0 note=60 velocity=127 time=0.046875\n",
      "note_on channel=0 note=61 velocity=127 time=0.011458333333333333\n",
      "note_off channel=0 note=60 velocity=127 time=0.008333333333333333\n",
      "note_off channel=0 note=61 velocity=127 time=0.011458333333333333\n",
      "note_on channel=0 note=62 velocity=127 time=0.008333333333333333\n",
      "note_off channel=0 note=62 velocity=127 time=0.019791666666666666\n",
      "note_on channel=0 note=61 velocity=127 time=0.03125\n",
      "note_off channel=0 note=61 velocity=127 time=0.019791666666666666\n",
      "note_on channel=0 note=61 velocity=127 time=0.059375\n",
      "note_on channel=0 note=62 velocity=127 time=0.010416666666666666\n",
      "note_off channel=0 note=61 velocity=127 time=0.010416666666666666\n",
      "note_off channel=0 note=62 velocity=127 time=0.010416666666666666\n",
      "note_on channel=0 note=61 velocity=127 time=0.04895833333333333\n",
      "note_on channel=0 note=60 velocity=127 time=0.011458333333333333\n",
      "note_off channel=0 note=61 velocity=127 time=0.008333333333333333\n",
      "note_off channel=0 note=60 velocity=127 time=0.011458333333333333\n",
      "note_on channel=0 note=62 velocity=127 time=0.03958333333333333\n",
      "note_on channel=0 note=61 velocity=127 time=0.008333333333333333\n",
      "note_off channel=0 note=62 velocity=127 time=0.0125\n",
      "note_off channel=0 note=61 velocity=127 time=0.008333333333333333\n",
      "note_on channel=0 note=61 velocity=127 time=0.059375\n",
      "note_off channel=0 note=61 velocity=127 time=0.019791666666666666\n",
      "note_on channel=0 note=62 velocity=127 time=0.03333333333333333\n",
      "note_off channel=0 note=62 velocity=127 time=0.019791666666666666\n",
      "note_on channel=0 note=61 velocity=127 time=0.00625\n",
      "note_off channel=0 note=61 velocity=127 time=0.019791666666666666\n",
      "note_on channel=0 note=60 velocity=127 time=0.014583333333333334\n",
      "note_off channel=0 note=60 velocity=127 time=0.019791666666666666\n",
      "note_on channel=0 note=61 velocity=127 time=0.025\n",
      "note_off channel=0 note=61 velocity=127 time=0.019791666666666666\n",
      "note_on channel=0 note=62 velocity=127 time=0.015625\n",
      "note_off channel=0 note=62 velocity=127 time=0.019791666666666666\n",
      "note_on channel=0 note=61 velocity=127 time=0.02395833333333333\n",
      "note_off channel=0 note=61 velocity=127 time=0.019791666666666666\n",
      "note_on channel=0 note=61 velocity=127 time=0.059375\n",
      "note_on channel=0 note=62 velocity=127 time=0.016666666666666666\n",
      "note_off channel=0 note=61 velocity=127 time=0.003125\n",
      "note_off channel=0 note=62 velocity=127 time=0.016666666666666666\n",
      "note_on channel=0 note=60 velocity=127 time=0.020833333333333332\n",
      "note_off channel=0 note=60 velocity=127 time=0.019791666666666666\n",
      "note_on channel=0 note=61 velocity=127 time=0.0010416666666666667\n",
      "note_off channel=0 note=61 velocity=127 time=0.019791666666666666\n",
      "note_on channel=0 note=62 velocity=127 time=0.058333333333333334\n",
      "note_on channel=0 note=61 velocity=127 time=0.0010416666666666667\n",
      "note_off channel=0 note=62 velocity=127 time=0.01875\n",
      "note_off channel=0 note=61 velocity=127 time=0.0010416666666666667\n",
      "note_on channel=0 note=61 velocity=127 time=0.059375\n",
      "note_off channel=0 note=61 velocity=127 time=0.019791666666666666\n",
      "note_on channel=0 note=62 velocity=127 time=0.040625\n",
      "note_on channel=0 note=61 velocity=127 time=0.01875\n",
      "note_off channel=0 note=62 velocity=127 time=0.0010416666666666667\n",
      "note_on channel=0 note=60 velocity=127 time=0.0010416666666666667\n",
      "note_off channel=0 note=61 velocity=127 time=0.017708333333333333\n",
      "note_off channel=0 note=60 velocity=127 time=0.0020833333333333333\n",
      "note_on channel=0 note=61 velocity=127 time=0.057291666666666664\n",
      "note_off channel=0 note=61 velocity=127 time=0.019791666666666666\n",
      "note_on channel=0 note=62 velocity=127 time=0.021875\n",
      "note_off channel=0 note=62 velocity=127 time=0.019791666666666666\n",
      "note_on channel=0 note=61 velocity=127 time=0.016666666666666666\n",
      "note_off channel=0 note=61 velocity=127 time=0.019791666666666666\n",
      "note_on channel=0 note=61 velocity=127 time=0.059375\n",
      "note_off channel=0 note=61 velocity=127 time=0.019791666666666666\n",
      "note_on channel=0 note=62 velocity=127 time=0.004166666666666667\n",
      "note_on channel=0 note=60 velocity=127 time=0.0010416666666666667\n",
      "note_off channel=0 note=62 velocity=127 time=0.019791666666666666\n",
      "note_off channel=0 note=60 velocity=127 time=0.0010416666666666667\n",
      "note_on channel=0 note=61 velocity=127 time=0.034375\n",
      "note_off channel=0 note=61 velocity=127 time=0.019791666666666666\n",
      "note_on channel=0 note=61 velocity=127 time=0.059375\n",
      "note_on channel=0 note=62 velocity=127 time=0.00625\n",
      "note_off channel=0 note=61 velocity=127 time=0.013541666666666667\n",
      "note_off channel=0 note=62 velocity=127 time=0.00625\n",
      "note_on channel=0 note=61 velocity=127 time=0.053125\n",
      "note_off channel=0 note=61 velocity=127 time=0.019791666666666666\n",
      "note_on channel=0 note=60 velocity=127 time=0.028125\n",
      "note_on channel=0 note=62 velocity=127 time=0.01875\n",
      "note_off channel=0 note=60 velocity=127 time=0.0010416666666666667\n",
      "note_on channel=0 note=61 velocity=127 time=0.010416666666666666\n",
      "note_off channel=0 note=62 velocity=127 time=0.008333333333333333\n",
      "note_off channel=0 note=61 velocity=127 time=0.011458333333333333\n",
      "note_on channel=0 note=61 velocity=127 time=0.059375\n",
      "note_off channel=0 note=61 velocity=127 time=0.019791666666666666\n",
      "note_on channel=0 note=62 velocity=127 time=0.029166666666666667\n",
      "note_off channel=0 note=62 velocity=127 time=0.019791666666666666\n",
      "note_on channel=0 note=61 velocity=127 time=0.009375\n",
      "note_off channel=0 note=61 velocity=127 time=0.019791666666666666\n",
      "note_on channel=0 note=60 velocity=127 time=0.051041666666666666\n",
      "note_on channel=0 note=61 velocity=127 time=0.007291666666666667\n",
      "note_off channel=0 note=60 velocity=127 time=0.0125\n",
      "note_off channel=0 note=61 velocity=127 time=0.007291666666666667\n",
      "note_on channel=0 note=62 velocity=127 time=0.011458333333333333\n",
      "note_off channel=0 note=62 velocity=127 time=0.019791666666666666\n",
      "note_on channel=0 note=61 velocity=127 time=0.028125\n",
      "note_off channel=0 note=61 velocity=127 time=0.019791666666666666\n",
      "note_on channel=0 note=61 velocity=127 time=0.059375\n",
      "note_on channel=0 note=62 velocity=127 time=0.013541666666666667\n",
      "note_off channel=0 note=61 velocity=127 time=0.00625\n",
      "note_off channel=0 note=62 velocity=127 time=0.013541666666666667\n",
      "note_on channel=0 note=61 velocity=127 time=0.04583333333333333\n",
      "note_on channel=0 note=60 velocity=127 time=0.015625\n",
      "note_off channel=0 note=61 velocity=127 time=0.004166666666666667\n",
      "note_off channel=0 note=60 velocity=127 time=0.015625\n",
      "note_on channel=0 note=62 velocity=127 time=0.03958333333333333\n",
      "note_on channel=0 note=61 velocity=127 time=0.004166666666666667\n",
      "note_off channel=0 note=62 velocity=127 time=0.015625\n",
      "note_off channel=0 note=61 velocity=127 time=0.004166666666666667\n",
      "note_on channel=0 note=61 velocity=127 time=0.059375\n",
      "note_off channel=0 note=61 velocity=127 time=0.019791666666666666\n",
      "note_on channel=0 note=62 velocity=127 time=0.036458333333333336\n",
      "note_off channel=0 note=62 velocity=127 time=0.019791666666666666\n",
      "note_on channel=0 note=61 velocity=127 time=0.0020833333333333333\n",
      "note_off channel=0 note=61 velocity=127 time=0.019791666666666666\n",
      "note_on channel=0 note=60 velocity=127 time=0.01875\n",
      "note_off channel=0 note=60 velocity=127 time=0.019791666666666666\n",
      "note_on channel=0 note=61 velocity=127 time=0.020833333333333332\n",
      "note_off channel=0 note=61 velocity=127 time=0.019791666666666666\n",
      "note_on channel=0 note=62 velocity=127 time=0.01875\n",
      "note_off channel=0 note=62 velocity=127 time=0.019791666666666666\n",
      "note_on channel=0 note=61 velocity=127 time=0.020833333333333332\n",
      "note_off channel=0 note=61 velocity=127 time=0.019791666666666666\n",
      "note_on channel=0 note=61 velocity=127 time=0.059375\n",
      "\u001b[91m [DEBUG] > \u001b[0m\n",
      " |>  to_array: msg.time > max_t; t, n\n",
      " |>  3.0322916666666697\n",
      " |>  150\n"
     ]
    },
    {
     "name": "stdout",
     "output_type": "stream",
     "text": [
      "note_on channel=0 note=61 velocity=127 time=0.008333333333333333\n",
      "note_off channel=0 note=61 velocity=127 time=0.019791666666666666\n",
      "note_on channel=0 note=60 velocity=127 time=0.0375\n",
      "note_on channel=0 note=61 velocity=127 time=0.015625\n",
      "note_off channel=0 note=60 velocity=127 time=0.004166666666666667\n",
      "note_off channel=0 note=61 velocity=127 time=0.015625\n",
      "note_on channel=0 note=62 velocity=127 time=0.00625\n",
      "note_off channel=0 note=62 velocity=127 time=0.019791666666666666\n",
      "note_on channel=0 note=60 velocity=127 time=0.013541666666666667\n",
      "note_on channel=0 note=61 velocity=127 time=0.0125\n",
      "note_off channel=0 note=60 velocity=127 time=0.007291666666666667\n",
      "note_off channel=0 note=61 velocity=127 time=0.0125\n",
      "note_on channel=0 note=60 velocity=127 time=0.042708333333333334\n",
      "note_on channel=0 note=61 velocity=127 time=0.009375\n",
      "note_off channel=0 note=60 velocity=127 time=0.010416666666666666\n",
      "note_on channel=0 note=62 velocity=127 time=0.00625\n",
      "note_off channel=0 note=61 velocity=127 time=0.004166666666666667\n",
      "note_off channel=0 note=62 velocity=127 time=0.016666666666666666\n",
      "note_on channel=0 note=60 velocity=127 time=0.029166666666666667\n",
      "note_on channel=0 note=61 velocity=127 time=0.007291666666666667\n",
      "note_off channel=0 note=60 velocity=127 time=0.013541666666666667\n",
      "note_off channel=0 note=61 velocity=127 time=0.007291666666666667\n",
      "note_on channel=0 note=60 velocity=127 time=0.04895833333333333\n",
      "note_on channel=0 note=61 velocity=127 time=0.004166666666666667\n",
      "note_on channel=0 note=62 velocity=127 time=0.00625\n",
      "note_off channel=0 note=60 velocity=127 time=0.009375\n",
      "note_off channel=0 note=61 velocity=127 time=0.004166666666666667\n",
      "note_off channel=0 note=62 velocity=127 time=0.00625\n",
      "note_on channel=0 note=60 velocity=127 time=0.04583333333333333\n",
      "note_on channel=0 note=61 velocity=127 time=0.0010416666666666667\n",
      "note_off channel=0 note=60 velocity=127 time=0.01875\n",
      "note_off channel=0 note=61 velocity=127 time=0.0010416666666666667\n",
      "note_on channel=0 note=62 velocity=127 time=0.04895833333333333\n",
      "note_on channel=0 note=61 velocity=127 time=0.004166666666666667\n",
      "note_on channel=0 note=60 velocity=127 time=0.0020833333333333333\n",
      "note_off channel=0 note=62 velocity=127 time=0.014583333333333334\n",
      "note_off channel=0 note=61 velocity=127 time=0.004166666666666667\n",
      "note_off channel=0 note=60 velocity=127 time=0.0020833333333333333\n",
      "note_on channel=0 note=61 velocity=127 time=0.051041666666666666\n",
      "note_on channel=0 note=60 velocity=127 time=0.004166666666666667\n",
      "note_off channel=0 note=61 velocity=127 time=0.015625\n",
      "note_off channel=0 note=60 velocity=127 time=0.004166666666666667\n",
      "note_on channel=0 note=62 velocity=127 time=0.034375\n",
      "note_on channel=0 note=61 velocity=127 time=0.013541666666666667\n",
      "note_off channel=0 note=62 velocity=127 time=0.00625\n",
      "note_on channel=0 note=60 velocity=127 time=0.0010416666666666667\n",
      "note_off channel=0 note=61 velocity=127 time=0.0125\n",
      "note_off channel=0 note=60 velocity=127 time=0.007291666666666667\n",
      "note_on channel=0 note=61 velocity=127 time=0.04583333333333333\n",
      "note_on channel=0 note=60 velocity=127 time=0.010416666666666666\n",
      "note_off channel=0 note=61 velocity=127 time=0.009375\n",
      "note_off channel=0 note=60 velocity=127 time=0.010416666666666666\n",
      "note_on channel=0 note=62 velocity=127 time=0.01875\n",
      "note_off channel=0 note=62 velocity=127 time=0.019791666666666666\n",
      "note_on channel=0 note=61 velocity=127 time=0.004166666666666667\n",
      "note_on channel=0 note=60 velocity=127 time=0.013541666666666667\n",
      "note_off channel=0 note=61 velocity=127 time=0.007291666666666667\n",
      "note_off channel=0 note=60 velocity=127 time=0.013541666666666667\n",
      "note_on channel=0 note=61 velocity=127 time=0.03958333333333333\n",
      "note_on channel=0 note=60 velocity=127 time=0.015625\n",
      "note_off channel=0 note=61 velocity=127 time=0.004166666666666667\n",
      "note_off channel=0 note=60 velocity=127 time=0.015625\n",
      "note_on channel=0 note=62 velocity=127 time=0.003125\n",
      "note_off channel=0 note=62 velocity=127 time=0.019791666666666666\n",
      "note_on channel=0 note=61 velocity=127 time=0.013541666666666667\n",
      "note_on channel=0 note=60 velocity=127 time=0.01875\n",
      "note_off channel=0 note=61 velocity=127 time=0.0010416666666666667\n",
      "note_off channel=0 note=60 velocity=127 time=0.01875\n",
      "note_on channel=0 note=61 velocity=127 time=0.034375\n",
      "note_off channel=0 note=61 velocity=127 time=0.019791666666666666\n",
      "note_on channel=0 note=60 velocity=127 time=0.0020833333333333333\n",
      "note_on channel=0 note=62 velocity=127 time=0.007291666666666667\n",
      "note_off channel=0 note=60 velocity=127 time=0.0125\n",
      "note_off channel=0 note=62 velocity=127 time=0.007291666666666667\n",
      "note_on channel=0 note=61 velocity=127 time=0.02395833333333333\n",
      "note_off channel=0 note=61 velocity=127 time=0.019791666666666666\n",
      "note_on channel=0 note=60 velocity=127 time=0.004166666666666667\n",
      "note_off channel=0 note=60 velocity=127 time=0.019791666666666666\n",
      "note_on channel=0 note=61 velocity=127 time=0.028125\n",
      "note_on channel=0 note=62 velocity=127 time=0.01875\n",
      "note_off channel=0 note=61 velocity=127 time=0.0010416666666666667\n",
      "note_on channel=0 note=60 velocity=127 time=0.007291666666666667\n",
      "note_off channel=0 note=62 velocity=127 time=0.011458333333333333\n",
      "note_off channel=0 note=60 velocity=127 time=0.008333333333333333\n",
      "note_on channel=0 note=61 velocity=127 time=0.025\n",
      "note_off channel=0 note=61 velocity=127 time=0.019791666666666666\n",
      "note_on channel=0 note=60 velocity=127 time=0.010416666666666666\n",
      "note_off channel=0 note=60 velocity=127 time=0.019791666666666666\n",
      "note_on channel=0 note=61 velocity=127 time=0.022916666666666665\n",
      "note_on channel=0 note=62 velocity=127 time=0.009375\n",
      "note_off channel=0 note=61 velocity=127 time=0.011458333333333333\n",
      "note_off channel=0 note=62 velocity=127 time=0.009375\n",
      "note_on channel=0 note=60 velocity=127 time=0.004166666666666667\n",
      "note_off channel=0 note=60 velocity=127 time=0.019791666666666666\n",
      "note_on channel=0 note=61 velocity=127 time=0.019791666666666666\n",
      "note_off channel=0 note=61 velocity=127 time=0.019791666666666666\n",
      "note_on channel=0 note=60 velocity=127 time=0.015625\n",
      "note_off channel=0 note=60 velocity=127 time=0.019791666666666666\n",
      "note_on channel=0 note=62 velocity=127 time=0.015625\n",
      "note_on channel=0 note=61 velocity=127 time=0.0010416666666666667\n",
      "note_off channel=0 note=62 velocity=127 time=0.01875\n",
      "note_off channel=0 note=61 velocity=127 time=0.0010416666666666667\n",
      "note_on channel=0 note=60 velocity=127 time=0.01875\n",
      "note_off channel=0 note=60 velocity=127 time=0.019791666666666666\n",
      "note_on channel=0 note=61 velocity=127 time=0.013541666666666667\n",
      "note_off channel=0 note=61 velocity=127 time=0.019791666666666666\n",
      "note_on channel=0 note=60 velocity=127 time=0.021875\n",
      "note_off channel=0 note=60 velocity=127 time=0.019791666666666666\n",
      "note_on channel=0 note=62 velocity=127 time=0\n",
      "note_on channel=0 note=61 velocity=127 time=0.011458333333333333\n",
      "note_off channel=0 note=62 velocity=127 time=0.009375\n",
      "note_off channel=0 note=61 velocity=127 time=0.011458333333333333\n",
      "note_on channel=0 note=60 velocity=127 time=0.025\n",
      "note_off channel=0 note=60 velocity=127 time=0.019791666666666666\n",
      "note_on channel=0 note=61 velocity=127 time=0.008333333333333333\n",
      "note_off channel=0 note=61 velocity=127 time=0.019791666666666666\n",
      "note_on channel=0 note=60 velocity=127 time=0.027083333333333334\n",
      "note_on channel=0 note=62 velocity=127 time=0.004166666666666667\n",
      "note_off channel=0 note=60 velocity=127 time=0.015625\n",
      "note_off channel=0 note=62 velocity=127 time=0.004166666666666667\n",
      "note_on channel=0 note=61 velocity=127 time=0.0010416666666666667\n",
      "note_off channel=0 note=61 velocity=127 time=0.019791666666666666\n",
      "note_on channel=0 note=60 velocity=127 time=0.030208333333333334\n",
      "note_off channel=0 note=60 velocity=127 time=0.019791666666666666\n",
      "note_on channel=0 note=61 velocity=127 time=0.0020833333333333333\n",
      "note_off channel=0 note=61 velocity=127 time=0.019791666666666666\n",
      "note_on channel=0 note=62 velocity=127 time=0.021875\n",
      "note_on channel=0 note=60 velocity=127 time=0.011458333333333333\n",
      "note_off channel=0 note=62 velocity=127 time=0.008333333333333333\n",
      "note_on channel=0 note=61 velocity=127 time=0.011458333333333333\n",
      "note_off channel=0 note=60 velocity=127 time=0\n",
      "note_off channel=0 note=61 velocity=127 time=0.019791666666666666\n",
      "note_on channel=0 note=60 velocity=127 time=0.036458333333333336\n",
      "note_on channel=0 note=61 velocity=127 time=0.016666666666666666\n",
      "note_off channel=0 note=60 velocity=127 time=0.003125\n",
      "note_off channel=0 note=61 velocity=127 time=0.016666666666666666\n",
      "note_on channel=0 note=62 velocity=127 time=0.011458333333333333\n",
      "note_off channel=0 note=62 velocity=127 time=0.019791666666666666\n",
      "note_on channel=0 note=60 velocity=127 time=0.007291666666666667\n",
      "note_on channel=0 note=61 velocity=127 time=0.013541666666666667\n",
      "note_off channel=0 note=60 velocity=127 time=0.00625\n",
      "note_off channel=0 note=61 velocity=127 time=0.013541666666666667\n",
      "note_on channel=0 note=60 velocity=127 time=0.041666666666666664\n",
      "note_on channel=0 note=61 velocity=127 time=0.011458333333333333\n",
      "note_off channel=0 note=60 velocity=127 time=0.009375\n",
      "note_off channel=0 note=61 velocity=127 time=0.011458333333333333\n",
      "note_on channel=0 note=62 velocity=127 time=0.0020833333333333333\n",
      "note_off channel=0 note=62 velocity=127 time=0.019791666666666666\n",
      "note_on channel=0 note=60 velocity=127 time=0.022916666666666665\n",
      "note_on channel=0 note=61 velocity=127 time=0.008333333333333333\n",
      "note_off channel=0 note=60 velocity=127 time=0.011458333333333333\n",
      "note_off channel=0 note=61 velocity=127 time=0.008333333333333333\n",
      "note_on channel=0 note=60 velocity=127 time=0.04791666666666666\n",
      "note_on channel=0 note=61 velocity=127 time=0.005208333333333333\n",
      "note_on channel=0 note=62 velocity=127 time=0.011458333333333333\n",
      "note_off channel=0 note=60 velocity=127 time=0.003125\n",
      "note_off channel=0 note=61 velocity=127 time=0.005208333333333333\n",
      "note_off channel=0 note=62 velocity=127 time=0.011458333333333333\n",
      "note_on channel=0 note=60 velocity=127 time=0.03854166666666667\n",
      "note_on channel=0 note=61 velocity=127 time=0.0020833333333333333\n",
      "note_off channel=0 note=60 velocity=127 time=0.017708333333333333\n",
      "note_off channel=0 note=61 velocity=127 time=0.0020833333333333333\n",
      "note_on channel=0 note=61 velocity=127 time=0.053125\n",
      "note_on channel=0 note=60 velocity=127 time=0\n",
      "note_on channel=0 note=62 velocity=127 time=0.0010416666666666667\n",
      "note_off channel=0 note=61 velocity=127 time=0.017708333333333333\n",
      "note_off channel=0 note=60 velocity=127 time=0\n",
      "note_off channel=0 note=62 velocity=127 time=0.0010416666666666667\n",
      "note_on channel=0 note=61 velocity=127 time=0.051041666666666666\n",
      "note_on channel=0 note=60 velocity=127 time=0.003125\n",
      "note_off channel=0 note=61 velocity=127 time=0.016666666666666666\n",
      "note_off channel=0 note=60 velocity=127 time=0.003125\n",
      "note_on channel=0 note=62 velocity=127 time=0.041666666666666664\n",
      "note_on channel=0 note=61 velocity=127 time=0.008333333333333333\n",
      "note_on channel=0 note=60 velocity=127 time=0.00625\n",
      "note_off channel=0 note=62 velocity=127 time=0.00625\n",
      "note_off channel=0 note=61 velocity=127 time=0.008333333333333333\n",
      "note_off channel=0 note=60 velocity=127 time=0.00625\n",
      "note_on channel=0 note=61 velocity=127 time=0.046875\n",
      "note_on channel=0 note=60 velocity=127 time=0.009375\n",
      "note_off channel=0 note=61 velocity=127 time=0.011458333333333333\n",
      "note_off channel=0 note=60 velocity=127 time=0.009375\n",
      "note_on channel=0 note=62 velocity=127 time=0.026041666666666668\n",
      "note_on channel=0 note=61 velocity=127 time=0.017708333333333333\n",
      "note_off channel=0 note=62 velocity=127 time=0.0020833333333333333\n",
      "note_on channel=0 note=60 velocity=127 time=0.010416666666666666\n",
      "note_off channel=0 note=61 velocity=127 time=0.008333333333333333\n",
      "note_off channel=0 note=60 velocity=127 time=0.011458333333333333\n",
      "note_on channel=0 note=61 velocity=127 time=0.040625\n",
      "note_on channel=0 note=60 velocity=127 time=0.014583333333333334\n",
      "note_off channel=0 note=61 velocity=127 time=0.005208333333333333\n",
      "note_off channel=0 note=60 velocity=127 time=0.014583333333333334\n",
      "note_on channel=0 note=62 velocity=127 time=0.010416666666666666\n",
      "note_off channel=0 note=62 velocity=127 time=0.019791666666666666\n",
      "note_on channel=0 note=61 velocity=127 time=0.008333333333333333\n",
      "note_on channel=0 note=60 velocity=127 time=0.017708333333333333\n",
      "note_off channel=0 note=61 velocity=127 time=0.0020833333333333333\n",
      "note_off channel=0 note=60 velocity=127 time=0.017708333333333333\n",
      "note_on channel=0 note=61 velocity=127 time=0.035416666666666666\n",
      "note_off channel=0 note=61 velocity=127 time=0.019791666666666666\n",
      "note_on channel=0 note=60 velocity=127 time=0\n",
      "note_on channel=0 note=62 velocity=127 time=0.014583333333333334\n",
      "note_off channel=0 note=60 velocity=127 time=0.00625\n",
      "note_off channel=0 note=62 velocity=127 time=0.014583333333333334\n",
      "note_on channel=0 note=61 velocity=127 time=0.01875\n",
      "\u001b[91m [DEBUG] > \u001b[0m\n",
      " |>  to_array: msg.time > max_t; t, n\n",
      " |>  2.9937499999999972\n",
      " |>  150\n"
     ]
    }
   ],
   "source": [
    "n = 100\n",
    "min_f = 3\n",
    "max_f = 15\n",
    "# x_train = g.gen_data(context, n, max_f=max_f, min_f=min_f)\n",
    "# x_train = g.gen_data_complex(context, n, max_f=max_f, min_f=min_f, multiTrack=multiTrack)\n",
    "x_train = g.gen_data_complex(context, n, max_f=max_f, min_f=min_f, \n",
    "    n_polyrythms=1,\n",
    "    n_channels=midi.N_NOTES,\n",
    "    multiTrack=multiTrack)"
   ]
  },
  {
   "cell_type": "code",
   "execution_count": 6,
   "metadata": {},
   "outputs": [],
   "source": [
    "n = 10\n",
    "total = 1000 * 1\n",
    "x_test = x_train[n:]\n",
    "x_train = np.concatenate([x_train[:n] for _ in range(int(total/n))])"
   ]
  },
  {
   "cell_type": "code",
   "execution_count": 7,
   "metadata": {},
   "outputs": [
    {
     "name": "stdout",
     "output_type": "stream",
     "text": [
      "m (30, 3)\n"
     ]
    },
    {
     "data": {
      "image/png": "iVBORw0KGgoAAAANSUhEUgAAAXcAAABECAYAAAB6WXVJAAAABHNCSVQICAgIfAhkiAAAAAlwSFlzAAALEgAACxIB0t1+/AAAADl0RVh0U29mdHdhcmUAbWF0cGxvdGxpYiB2ZXJzaW9uIDIuMS4yLCBodHRwOi8vbWF0cGxvdGxpYi5vcmcvNQv5yAAABtlJREFUeJzt3W+IXFcZx/Hvz9TmxZpKNaGWNLpVF6H1RSshQWwkUJS2CLGhluSFRBBWigULfdHSF7UIhVb8CxVlSwMx9I+l9c9SKrWgaPsiJbulmv4hZikpTUiTbCPVgFJiHl/MDY7j7My5u/fm3nv6+8Cyd+6cvXuec2aenTlz77OKCMzMLC/va7oDZmZWPSd3M7MMObmbmWXIyd3MLENO7mZmGXJyNzPLkJO7mVmGnNzNzDLk5G5mlqELmvrFa9eujcnJyaS28/PzZY6b3HbNmjXJbQFWr16d3HZiYqLUsetQ17hBubHLedygvsdcG8bNY7F8dT3/FhcXFyNi3bh2jSX3yclJ5ubmktpKSj7u9u3bk9tu2bIluS3A1NRUctvNmzeXOnYd6ho3KDd2OY8b1PeYa8O4eSyWr67n38zMzBsp7ZKWZSRdJ+mgpAVJdw65f7WkXxT3vyBpMrmnZmZWubHJXdIq4CfA9cAVwE5JVww0+zrwt4j4JPBD4P6qO2pmZulSXrlvAhYi4vWIeBd4DNg20GYbsKfYfgK4VmXfz5mZWWVSkvt64M2+20eKfUPbRMQZ4B3gw1V00MzMyjuvp0JKmpY0J2nu5MmT5/NXm5m9p6Qk96PAhr7blxX7hraRdAHwQeDtwQNFxExEbIyIjevWjT2Tx8zMliklue8HpiRdLulCYAcwO9BmFthVbN8E/D78L57MzBoz9jz3iDgj6VbgGWAVsDsiXpH0HWAuImaBh4C9khaAU/T+AJiZWUOSLmKKiKeBpwf23d23/S/gK9V2zczMlquxK1TLKLPC08UzMMtcUVcmvunp6eS2Xbxat66x2Lt3b6l+1DUWbZjrffv2JbeF7s11XVfJQvN5y4XDzMwy5ORuZpYhJ3czsww5uZuZZcjJ3cwsQ07uZmYZcnI3M8uQk7uZWYac3M3MMuTkbmaWISd3M7MMdaK2TBl1Vhquq77FoUOHktuWqfXRlv8CX5fcq0rXFV9dj2Mo91guU6vFc/1fqfPnV+5mZhlycjczy5CTu5lZhpzczcwy5ORuZpYhJ3czswyNTe6SNkj6g6RXJb0i6VtD2myV9I6kl4qvu4cdy8zMzo+U89zPALdHxIuS1gDzkp6NiFcH2j0XEV+qvotmZlbW2FfuEXEsIl4stv8BvAasr7tjZma2fKXW3CVNAlcDLwy5+7OS/izpt5KurKBvZma2TEq97FXSB4A/AvdGxC8H7rsIOBsRpyXdAPw4Iv7v2mJJ08C565k/BRwc8qvWAovpIXROzvHlHBs4vq7LJb6PRcS6cY2Skruk9wNPAc9ExA8S2h8GNkZE6YGUNBcRG8v+XFfkHF/OsYHj67rc4xuUcraMgIeA15ZK7JI+UrRD0qbiuG9X2VEzM0uXcrbM54CvAgckvVTsuwv4KEBE/Ay4CbhF0hngn8COyL2Mm5lZi41N7hHxPDCyxmREPAA8UFGfZio6TlvlHF/OsYHj67rc4/sfyR+omplZd7j8gJlZhlqT3CVdJ+mgpAVJdzbdn6pJOizpQFGeYa7p/qyUpN2STkh6uW/fhyQ9K+lQ8f3iJvu4EkvEd4+ko31lNm5oso/LtVRJkVzmb0R8WcxfqlYsy0haBfwV+AJwBNgP7BxS4qCzVnJ6aBtJ+jxwGvh5RHy62Pdd4FRE3Ff8gb44Iu5osp/LtUR89wCnI+J7TfZtpSRdClzaX1IE+DLwNTKYvxHx3UwG85eqLa/cNwELEfF6RLwLPAZsa7hPNkJE/Ak4NbB7G7Cn2N5D7wnVSUvEl4URJUWymD+XTOlpS3JfD7zZd/sI+U1GAL+TNF9cqZujSyLiWLH9FnBJk52pya2S/lIs23Ry2aLfQEmR7OZvSMmUrOZvlLYk9/eCayLiM8D1wDeLt/3ZKq5zaH7Nr1o/BT4BXAUcA77fbHdWpigp8iRwW0T8vf++HOZvSHxZzd84bUnuR4ENfbcvK/ZlIyKOFt9PAL+itxSVm+PFeue5dc8TDfenUhFxPCL+HRFngQfp8BwWJUWeBB7uqxWVzfwNiy+n+UvRluS+H5iSdLmkC4EdwGzDfaqMpInigx0kTQBfBF4e/VOdNAvsKrZ3Ab9psC+VO5f4CjfS0TkcUVIki/lbKr5c5i9VK86WAShOS/oRsArYHRH3Ntylykj6OL1X69C7KviRrscn6VFgK71Ke8eBbwO/Bh6nV5riDeDmiOjkh5JLxLeV3lv6AA4D3+hbo+4MSdcAzwEHgLPF7rvorUt3fv5GxLeTDOYvVWuSu5mZVactyzJmZlYhJ3czsww5uZuZZcjJ3cwsQ07uZmYZcnI3M8uQk7uZWYac3M3MMvQfQ2d2pLB0IZcAAAAASUVORK5CYII=\n",
      "text/plain": [
       "<matplotlib.figure.Figure at 0x1171ae2e8>"
      ]
     },
     "metadata": {},
     "output_type": "display_data"
    }
   ],
   "source": [
    "plot.multi(x_train[0, :30])"
   ]
  },
  {
   "cell_type": "code",
   "execution_count": 8,
   "metadata": {},
   "outputs": [
    {
     "name": "stdout",
     "output_type": "stream",
     "text": [
      "m (30, 3)\n"
     ]
    },
    {
     "data": {
      "image/png": "iVBORw0KGgoAAAANSUhEUgAAAXcAAABECAYAAAB6WXVJAAAABHNCSVQICAgIfAhkiAAAAAlwSFlzAAALEgAACxIB0t1+/AAAADl0RVh0U29mdHdhcmUAbWF0cGxvdGxpYiB2ZXJzaW9uIDIuMS4yLCBodHRwOi8vbWF0cGxvdGxpYi5vcmcvNQv5yAAABtdJREFUeJzt3V+IXOUZx/Hvz1hzYWPRRjTE1H9dCrYX1oQkoimBoqgI0WAlgYQUCluKQgUvKl7YUAjUoraC0rLFQAy2Kv5pF1GsULH2IpJV1PgnaRcTMSEmrCnaQEtI83gxJzAdZ2ffs3sm55zX3weWPXPm3ZnnmWf22dl3znlHEYGZmeXltLoDMDOz6rm5m5llyM3dzCxDbu5mZhlyczczy5Cbu5lZhtzczcwy5OZuZpYhN3czswydXtcdS0o+NXbhwoXJt7tgwYLksfPnz08eC7B79+7kscOKee/evbXHAOUeu5wft6bEMaznfZnaQfvq18Z+MTU1NRUR5840rrbmXsbatWuTx65atSp57MjISKk4Vq5cmTx2WDFv3Lix9hig3GOX8+PWlDiG9bwvUztoX/3a2C/GxsY+TBmXNC0j6TpJeyRNSrqrz/XzJT1RXP+apIuSIzUzs8rN2NwlzQMeBq4HLgPWS7qsZ9iPgH9FxDeBXwP3Vh2omZmlS3nlvhyYjIgPIuIY8DiwpmfMGmBbsf0U8H1Jqi5MMzMrI6W5LwY+6rq8v9jXd0xEHAc+Bb5eRYBmZlbeKX1DVdIoMHoq79PM7Mso5ZX7AWBJ1+ULin19x0g6Hfga8EnvDUXEWEQsi4hlswvXzMxSpDT3ncCIpIslnQGsA8Z7xowDm4rtW4C/hj/iycysNjNOy0TEcUm3Ay8C84CtEfGupF8AExExDjwCbJc0CRyh8wfAzMxqkjTnHhHPA8/37Luna/u/wA+qDc3MzGartjNUly5dysTERF13PytNmGnasGFD8timHI26Y8eO5LErVqwYSgxlHrdhKnOmZRM04TkPft53GxsbSxrnhcPMzDLk5m5mliE3dzOzDLm5m5llyM3dzCxDbu5mZhlyczczy5Cbu5lZhtzczcwy5OZuZpYhN3czswzVtrbMsJRZV2J0tNznhgzrk9LLrCsxrPzK5Abl8ivzKfDDinlY8UK5mLdv3548tm3PIWhGTZrwHILh1SSVX7mbmWXIzd3MLENu7mZmGXJzNzPLkJu7mVmG3NzNzDI0Y3OXtETSy5Lek/SupJ/2GbNa0qeS3iy+7ul3W2ZmdmqkHOd+HLgzIt6QtAB4XdJLEfFez7hXI+LG6kM0M7OyZnzlHhEHI+KNYvvfwPvA4mEHZmZms1dqzl3SRcB3gdf6XH2lpLckvSDp2xXEZmZms6SISBsofRV4BdgSEc/0XHcWcCIijkq6AXgwIr5wrq6kUeDkucHfAvb0uauFwFR6Cq2Tc3455wbOr+1yye/CiDh3pkFJzV3SV4DngBcj4oGE8fuAZRFR+oGUNBERy8r+XFvknF/OuYHza7vc8+uVcrSMgEeA96dr7JLOL8YhaXlxu59UGaiZmaVLOVrmKmAjsEvSm8W+u4FvAETE74BbgJ9IOg78B1gXqfM9ZmZWuRmbe0T8HRi4HmVEPAQ8VFFMYxXdTlPlnF/OuYHza7vc8/s/yW+omplZe3j5ATOzDDWmuUu6TtIeSZOS7qo7nqpJ2idpV7E8w0Td8cyVpK2SDkt6p2vfOZJekvTP4vvZdcY4F9Pkt1nSga5lNm6oM8bZmm5JkVzqNyC/LOqXqhHTMpLmAf8ArgH2AzuB9X2WOGituRwe2kSSvgccBR6NiO8U+34FHImIXxZ/oM+OiJ/VGedsTZPfZuBoRNxXZ2xzJWkRsKh7SRHgJuCHZFC/AfndSgb1S9WUV+7LgcmI+CAijgGPA2tqjskGiIi/AUd6dq8BthXb2+j8QrXSNPllYcCSIlnUz0umdDSluS8GPuq6vJ/8ihHAXyS9Xpypm6PzIuJgsf0xcF6dwQzJ7ZLeLqZtWjlt0a1nSZHs6tdnyZSs6jdIU5r7l8HVEXEFcD1wW/Fvf7aK8xzqn/Or1m+BS4HLgYPA/fWGMzfFkiJPA3dExGfd1+VQvz75ZVW/mTSluR8AlnRdvqDYl42IOFB8Pww8S2cqKjeHivnOk/Oeh2uOp1IRcSgi/hcRJ4Df0+IaFkuKPA081rVWVDb165dfTvVL0ZTmvhMYkXSxpDOAdcB4zTFVRtKZxRs7SDoTuBZ4Z/BPtdI4sKnY3gT8ucZYKney8RVupqU1HLCkSBb1my6/XOqXqhFHywAUhyX9BpgHbI2ILTWHVBlJl9B5tQ6ds4L/0Pb8JP0RWE1npb1DwM+BPwFP0lma4kPg1oho5ZuS0+S3ms6/9AHsA37cNUfdGpKuBl4FdgEnit1305mXbn39BuS3ngzql6oxzd3MzKrTlGkZMzOrkJu7mVmG3NzNzDLk5m5mliE3dzOzDLm5m5llyM3dzCxDbu5mZhn6HHIkfP1rmdDYAAAAAElFTkSuQmCC\n",
      "text/plain": [
       "<matplotlib.figure.Figure at 0x1182db160>"
      ]
     },
     "metadata": {},
     "output_type": "display_data"
    }
   ],
   "source": [
    "plot.multi(x_train[1, :30])"
   ]
  },
  {
   "cell_type": "code",
   "execution_count": 9,
   "metadata": {},
   "outputs": [
    {
     "data": {
      "text/plain": [
       "(150, 3)"
      ]
     },
     "execution_count": 9,
     "metadata": {},
     "output_type": "execute_result"
    }
   ],
   "source": [
    "img_dims = (28,28,1)\n",
    "img_dims = x_train[0].shape\n",
    "img_dims"
   ]
  },
  {
   "cell_type": "code",
   "execution_count": 10,
   "metadata": {},
   "outputs": [],
   "source": [
    "# input image dimensions\n",
    "# no cols\n",
    "img_rows, img_chns = img_dims\n",
    "# number of convolutional filters to use\n",
    "filters = 64\n",
    "# convolution kernel size\n",
    "num_conv = 3\n",
    "\n",
    "batch_size = 100\n",
    "\n",
    "original_img_size = (img_rows, img_chns)\n",
    "original_input_size = original_img_size\n",
    "\n",
    "latent_dim = 2\n",
    "intermediate_dim = 128\n",
    "epsilon_std = 1.0\n",
    "epochs = 5"
   ]
  },
  {
   "cell_type": "code",
   "execution_count": 11,
   "metadata": {},
   "outputs": [],
   "source": [
    "encoder_input = Input(shape=original_img_size)\n",
    "\n",
    "timesteps = original_img_size[-2]\n",
    "notes = original_img_size[-1]\n",
    "    \n",
    "    # Convolve & Pool\n",
    "h = encoder_input\n",
    "h = Conv1D(32, kernel_size=2, strides=2, activation='relu', padding='same')(h)\n",
    "# h = Conv1D(32, kernel_size=2, strides=1, activation='relu', padding='same')(h)\n",
    "h = Conv1D(64, kernel_size=2, strides=1, activation='relu', padding='same')(h)\n",
    "\n",
    "    # Dense layers\n",
    "h = Flatten()(h)\n",
    "h = Dense(intermediate_dim, activation='relu')(h)\n",
    "#     h = Dense(intermediate_dim, activation='relu')(h)\n",
    "#     h = Dense(intermediate_dim, activation='relu')(h)    \n",
    "#     h = Dropout(0.1)(h) # uncomment when using larger batches\n",
    "#     h = Dense(intermediate_dim, activation='relu')(h)\n",
    "    # h = Dense(intermediate_dim, activation='relu', kernel_regularizer=k_reg, activity_regularizer=a_reg)(h)\n",
    "\n",
    "    # Z Mean, Variance\n",
    "z_mean = Dense(latent_dim, name='z_mean')(h) # , activation='relu'\n",
    "z_log_var = Dense(latent_dim, name='z_log_var')(h) # , activation='relu'\n",
    "    \n",
    "encoder_output = [z_mean, z_log_var]"
   ]
  },
  {
   "cell_type": "code",
   "execution_count": 12,
   "metadata": {},
   "outputs": [
    {
     "name": "stdout",
     "output_type": "stream",
     "text": [
      "__________________________________________________________________________________________________\n",
      "Layer (type)                    Output Shape         Param #     Connected to                     \n",
      "==================================================================================================\n",
      "input_1 (InputLayer)            (None, 150, 3)       0                                            \n",
      "__________________________________________________________________________________________________\n",
      "conv1d_1 (Conv1D)               (None, 75, 32)       224         input_1[0][0]                    \n",
      "__________________________________________________________________________________________________\n",
      "conv1d_2 (Conv1D)               (None, 75, 64)       4160        conv1d_1[0][0]                   \n",
      "__________________________________________________________________________________________________\n",
      "flatten_1 (Flatten)             (None, 4800)         0           conv1d_2[0][0]                   \n",
      "__________________________________________________________________________________________________\n",
      "dense_1 (Dense)                 (None, 128)          614528      flatten_1[0][0]                  \n",
      "__________________________________________________________________________________________________\n",
      "z_mean (Dense)                  (None, 2)            258         dense_1[0][0]                    \n",
      "__________________________________________________________________________________________________\n",
      "z_log_var (Dense)               (None, 2)            258         dense_1[0][0]                    \n",
      "==================================================================================================\n",
      "Total params: 619,428\n",
      "Trainable params: 619,428\n",
      "Non-trainable params: 0\n",
      "__________________________________________________________________________________________________\n"
     ]
    }
   ],
   "source": [
    "encoder_model = Model(encoder_input, encoder_output, name='encoder_model-')\n",
    "encoder_model.summary()"
   ]
  },
  {
   "cell_type": "code",
   "execution_count": 13,
   "metadata": {},
   "outputs": [],
   "source": [
    "sample_ = lambda args: models.sample(args, z_mean, z_log_var, latent_dim, epsilon_std)"
   ]
  },
  {
   "cell_type": "code",
   "execution_count": 14,
   "metadata": {},
   "outputs": [],
   "source": [
    "# z = Lambda(sampling)([z_mean, z_log_var])\n",
    "z_input = encoder_model(encoder_input)\n",
    "z_output = Lambda(sample_)(z_input)"
   ]
  },
  {
   "cell_type": "code",
   "execution_count": 15,
   "metadata": {},
   "outputs": [],
   "source": [
    "def list_decoders(output_size, p='valid'):\n",
    "    # decoder_input = z_output\n",
    "    # h = decoder_input\n",
    "    # :output_shape = (timesteps, channels, channels) || (batches, filters, timesteps, channels)\n",
    "    # keras offers just Conv2DTranspose and not Conv1DTranspose\n",
    "    # - use 2D images during upsampling :: (timesteps, notes, channels) => (timesteps, notes, filters)\n",
    "    # - use 1D images to optimize reconstruction :: (timesteps, filters) => (timesteps, notes)\n",
    "    \n",
    "    # image_data_format = 'channels_last'\n",
    "    # goal shape: (timesteps, notes, channels)\n",
    "    # start with the 'reverse': lots of small imgs => few large img\n",
    "    \n",
    "    timesteps = output_size[-2] # cols\n",
    "    notes = output_size[-1] # rows\n",
    "    channels = 1 # rgb\n",
    "    m = 4 # multiplier for dims\n",
    "    \n",
    "    # at the start of upsampling, the image-structure does not yet have to correspond to the goal structure \n",
    "    # ?TODO use y*y*y starting dims, may conv, and only then correct the structure (?)\n",
    "    output_shape = (channels, notes * m, timesteps)\n",
    "    \n",
    "    # we instantiate these layers separately so as to reuse them later\n",
    "    decoders = []\n",
    "    decoders += [ Dense(intermediate_dim, activation='relu') ]\n",
    "    decoders += [ Dense(np.prod(output_shape[-3:]), activation='relu') ]\n",
    "    decoders += [ Reshape(output_shape[-3:]) ]\n",
    "    \n",
    "    # Convolve & Pool\n",
    "    \n",
    "    # Note that the kernel windows do not yet correspond to 'temporal' features, but rather to just spatial features\n",
    "    k = (3,2) # (2,1) :: (timesteps, notes)\n",
    "    s = (1,3)\n",
    "    timesteps_ = int(timesteps / 2)\n",
    "    \n",
    "    decoders += [ Conv2DTranspose(timesteps_, kernel_size=k, strides=3, activation='relu', padding=p) ]\n",
    "    decoders += [ Conv2DTranspose(32, kernel_size=k, strides=3, activation='relu', padding=p) ]\n",
    "    # decoder += [Conv2DTranspose(32, kernel_size=k, strides=3, activation='relu', padding=p)]\n",
    "    decoders += [ Conv2DTranspose(16, kernel_size=k, strides=(3,1), activation='relu', padding=p)]\n",
    "    decoders += [ Conv2DTranspose(16, kernel_size=k, strides=3, activation='relu', padding=p)]\n",
    "    \n",
    "    # 'end' of upsampling\n",
    "    decoders += [ Conv2D(1, kernel_size=(1,2), strides=1, activation='relu', padding=p) ]\n",
    "    # shape = ()\n",
    "    # decoder_reshape2 = Reshape(dims[0:2])\n",
    "    # #     h = Conv1D(16, kernel_size=2, strides=1, activation='relu', padding=p)(h)\n",
    "    # decoder_conv2 = Conv1D(notes * m, kernel_size=2, strides=2, activation='relu', padding=p)\n",
    "    \n",
    "    \n",
    "    # Mean (output)\n",
    "    #     h = Conv2D(1, kernel_size=1, strides=s, activation='sigmoid', padding='same')(h)\n",
    "    output_shape = (timesteps, notes)\n",
    "    \n",
    "    decoders += [ Flatten()]\n",
    "    decoders += [ Dense(np.prod(output_shape), activation='sigmoid')]\n",
    "    decoders += [ Reshape(output_shape)]\n",
    "    return decoders"
   ]
  },
  {
   "cell_type": "code",
   "execution_count": 16,
   "metadata": {},
   "outputs": [],
   "source": [
    "decoders = list_decoders(original_input_size)"
   ]
  },
  {
   "cell_type": "code",
   "execution_count": 17,
   "metadata": {},
   "outputs": [],
   "source": [
    "decoded = utils.composition(decoders, z_output, verbose=False)"
   ]
  },
  {
   "cell_type": "code",
   "execution_count": 18,
   "metadata": {},
   "outputs": [
    {
     "name": "stdout",
     "output_type": "stream",
     "text": [
      "__________________________________________________________________________________________________\n",
      "Layer (type)                    Output Shape         Param #     Connected to                     \n",
      "==================================================================================================\n",
      "input_1 (InputLayer)            (None, 150, 3)       0                                            \n",
      "__________________________________________________________________________________________________\n",
      "encoder_model- (Model)          [(None, 2), (None, 2 619428      input_1[0][0]                    \n",
      "__________________________________________________________________________________________________\n",
      "lambda_1 (Lambda)               (None, 2)            0           encoder_model-[1][0]             \n",
      "                                                                 encoder_model-[1][1]             \n",
      "__________________________________________________________________________________________________\n",
      "dense_3 (Dense)                 (None, 1800)         5400        lambda_1[0][0]                   \n",
      "__________________________________________________________________________________________________\n",
      "reshape_1 (Reshape)             (None, 1, 12, 150)   0           dense_3[0][0]                    \n",
      "__________________________________________________________________________________________________\n",
      "conv2d_transpose_1 (Conv2DTrans (None, 3, 36, 75)    67575       reshape_1[0][0]                  \n",
      "__________________________________________________________________________________________________\n",
      "conv2d_transpose_2 (Conv2DTrans (None, 9, 108, 32)   14432       conv2d_transpose_1[0][0]         \n",
      "__________________________________________________________________________________________________\n",
      "conv2d_transpose_3 (Conv2DTrans (None, 27, 109, 16)  3088        conv2d_transpose_2[0][0]         \n",
      "__________________________________________________________________________________________________\n",
      "conv2d_transpose_4 (Conv2DTrans (None, 81, 327, 16)  1552        conv2d_transpose_3[0][0]         \n",
      "__________________________________________________________________________________________________\n",
      "conv2d_1 (Conv2D)               (None, 81, 326, 1)   33          conv2d_transpose_4[0][0]         \n",
      "__________________________________________________________________________________________________\n",
      "flatten_2 (Flatten)             (None, 26406)        0           conv2d_1[0][0]                   \n",
      "__________________________________________________________________________________________________\n",
      "dense_4 (Dense)                 (None, 450)          11883150    flatten_2[0][0]                  \n",
      "__________________________________________________________________________________________________\n",
      "reshape_2 (Reshape)             (None, 150, 3)       0           dense_4[0][0]                    \n",
      "==================================================================================================\n",
      "Total params: 12,594,658\n",
      "Trainable params: 12,594,658\n",
      "Non-trainable params: 0\n",
      "__________________________________________________________________________________________________\n"
     ]
    }
   ],
   "source": [
    "# instantiate VAE model\n",
    "vae_input = encoder_input\n",
    "vae_output = decoded\n",
    "vae = Model(vae_input, vae_output)\n",
    "vae.summary()"
   ]
  },
  {
   "cell_type": "code",
   "execution_count": 19,
   "metadata": {
    "scrolled": true
   },
   "outputs": [
    {
     "name": "stderr",
     "output_type": "stream",
     "text": [
      "/Library/Frameworks/Python.framework/Versions/3.6/lib/python3.6/site-packages/ipykernel_launcher.py:12: UserWarning: Output \"reshape_2\" missing from loss dictionary. We assume this was done on purpose, and we will not be expecting any data to be passed to \"reshape_2\" during training.\n",
      "  if sys.path[0] == '':\n"
     ]
    }
   ],
   "source": [
    "# Compute VAE loss\n",
    "# no img_cols! no notes!\n",
    "def vae_loss(beta=1.):\n",
    "    # y_true, y_pred, z_mean, z_log_var, timesteps=150, notes=3, beta=1.\n",
    "    xent_loss = timesteps * keras.metrics.binary_crossentropy(K.flatten(vae_input), K.flatten(vae_output))\n",
    "    kl_loss = - 0.5 * K.sum(1 + z_log_var - K.square(z_mean) - K.exp(z_log_var), axis=-1)\n",
    "    vae_loss = K.mean(xent_loss + kl_loss)\n",
    "    return vae_loss\n",
    "\n",
    "vae_loss = vae_loss()\n",
    "vae.add_loss(vae_loss)\n",
    "vae.compile(optimizer='rmsprop')\n",
    "# vae.compile(optimizer=optimizer, loss=loss, metrics=metrics)"
   ]
  },
  {
   "cell_type": "code",
   "execution_count": 20,
   "metadata": {},
   "outputs": [],
   "source": [
    "# train the VAE on MNIST digits\n",
    "# (x_train, _), (x_test, y_test) = mnist.load_data()\n",
    "x_test = x_train[-100:]\n",
    "y_test = x_test"
   ]
  },
  {
   "cell_type": "code",
   "execution_count": 21,
   "metadata": {},
   "outputs": [
    {
     "data": {
      "text/plain": [
       "(1000, 150, 3)"
      ]
     },
     "execution_count": 21,
     "metadata": {},
     "output_type": "execute_result"
    }
   ],
   "source": [
    "x_train.shape"
   ]
  },
  {
   "cell_type": "code",
   "execution_count": 22,
   "metadata": {},
   "outputs": [
    {
     "name": "stdout",
     "output_type": "stream",
     "text": [
      "x_train.shape: (1000, 150, 3)\n"
     ]
    }
   ],
   "source": [
    "print('x_train.shape:', x_train.shape)"
   ]
  },
  {
   "cell_type": "code",
   "execution_count": 23,
   "metadata": {
    "scrolled": true
   },
   "outputs": [
    {
     "name": "stdout",
     "output_type": "stream",
     "text": [
      "Train on 1000 samples, validate on 100 samples\n",
      "Epoch 1/5\n",
      "1000/1000 [==============================] - 15s 15ms/step - loss: 100.6293 - val_loss: 96.0469\n",
      "Epoch 2/5\n",
      "1000/1000 [==============================] - 13s 13ms/step - loss: 96.0345 - val_loss: 96.7047\n",
      "Epoch 3/5\n",
      "1000/1000 [==============================] - 12s 12ms/step - loss: 96.1271 - val_loss: 95.6425\n",
      "Epoch 4/5\n",
      "1000/1000 [==============================] - 12s 12ms/step - loss: 96.0822 - val_loss: 95.3846\n",
      "Epoch 5/5\n",
      "1000/1000 [==============================] - 12s 12ms/step - loss: 95.3957 - val_loss: 93.6956\n"
     ]
    }
   ],
   "source": [
    "history = vae.fit(x_train,\n",
    "        shuffle=True,\n",
    "        epochs=epochs,\n",
    "        batch_size=batch_size,\n",
    "        validation_data=(x_test, None))"
   ]
  },
  {
   "cell_type": "code",
   "execution_count": 24,
   "metadata": {},
   "outputs": [
    {
     "data": {
      "text/plain": [
       "[<matplotlib.lines.Line2D at 0x117f55e80>]"
      ]
     },
     "execution_count": 24,
     "metadata": {},
     "output_type": "execute_result"
    },
    {
     "data": {
      "image/png": "iVBORw0KGgoAAAANSUhEUgAAAXoAAAD8CAYAAAB5Pm/hAAAABHNCSVQICAgIfAhkiAAAAAlwSFlzAAALEgAACxIB0t1+/AAAADl0RVh0U29mdHdhcmUAbWF0cGxvdGxpYiB2ZXJzaW9uIDIuMS4yLCBodHRwOi8vbWF0cGxvdGxpYi5vcmcvNQv5yAAAIABJREFUeJzt3Xl8VPW9xvHPNzv7koUdAmGHCkKkLOK+UERptb1qXVsrrdJWa2uvra3V7rba3t7W2lK1aqvW3toFUHFBXEE0ICg7hH1Pwh6yzvzuH+cAAZMQMsmcmcnzfr3yyixn5jwMzHMOv7OZcw4REUlcSUEHEBGR5qWiFxFJcCp6EZEEp6IXEUlwKnoRkQSnohcRSXAqehGRBKeiFxFJcCp6EZEElxJ0AICsrCyXm5sbdAwRkbiyaNGiYudc9smmi4miz83NpaCgIOgYIiJxxcw2NWQ6Dd2IiCQ4Fb2ISIJT0YuIJDgVvYhIglPRi4gkOBW9iEiCU9GLiCS4uC76VTsPcP+cVehyiCIidYvron+3sISHXy/klRW7go4iIhKz4rrorxnbhwE5bfnx8ysprwoFHUdEJCbFddGnJifxg0uHsXnPYR59e0PQcUREYlJcFz3AmQOyuGhoFx6at45dB8qDjiMiEnPivugB7r5kCNUhx/0vrgo6iohIzEmIou+T2YYvTezLPz/YxuLNe4OOIyISUxKi6AGmn9ufnHbp3DdzOeGwdrcUETkiYYq+TXoKd31qMEu37ue5xVuDjiMiEjMSpugBPj2yB6f37sj9c1ZzsLwq6DgiIjEhoYo+Kcm499JhFB+q4HevrQs6johITEioogcY0asjnxvdk8fe2cCG4tKg44iIBC7hih7gzkmDSE9J5sezVwQdRUQkcAlZ9DntMvjaef2Zu2o3r6/eHXQcEZFAJWTRA3xhQl/6ZrXhh7NXUFkdDjqOiEhgErbo01KS+N4lQ1hfVMqTCzYGHUdEJDAnLXoze8zMdpvZshqPdTazV8xsrf+7k/+4mdn/mtk6M/vQzEY1Z/iTOW9wDmcPzOY3r66l+FBFkFFERALTkDX6x4FJJzx2FzDXOTcAmOvfB/gUMMD/mQY83DQxG8fM+P6UoZRVhXjgpdVBRhERCcxJi9459yaw54SHpwJP+LefAD5d4/EnneddoKOZdWuqsI3RP6ctN4zP5dmCLSzbtj/IKCIigWjsGH0X59wO//ZOoIt/uwewpcZ0W/3HPsbMpplZgZkVFBUVNTJGw3z9/AF0bp3GvTOX67KDItLiRLwx1nnNecrt6Zyb4ZzLd87lZ2dnRxqjXh1apXLnxYMo2LSXmUu3N+u8RERiTWOLfteRIRn/95Gd1bcBvWpM19N/LHCfy+/FsO7t+fmLqzhcWR10HBGRqGls0c8EbvBv3wD8p8bj1/t734wF9tcY4glUcpJx72XD2LG/nD+8Xhh0HBGRqGnI7pXPAAuAQWa21cxuAn4OXGhma4EL/PsALwDrgXXAn4BbmyV1I52R25nLRnTnj2+uZ8uew0HHERGJCouFjZP5+fmuoKAgKvPasb+M8x54g3MGZfPwtaOjMk8RkeZgZoucc/knmy5hj4ytS7cOrbjlnDxeXLaT+YXFQccREWl2La7oAaad1Y+enVrxw1krqA7pPDgikthaZNFnpCZz9+QhrNp5kGfe2xx0HBGRZtUiix5g0vCujO3XmQdfWcO+w5VBxxERaTYttujNjB9cOowDZVX8+pU1QccREWk2LbboAYZ0a881n+zDXxduZvXOg0HHERFpFi266AHuuHAgbdNTuG+WzoMjIompxRd9pzZp3HHhQOYXlvDS8l1BxxERaXItvugBrvlkbwZ1acdPXlhBeVUo6DgiIk1KRQ+kJCdxz6VD2bKnjEfeWh90HBGRJqWi903on8XFw7rw0LxCdu4vDzqOiEiTUdHX8L1LhhJyjp+/uDLoKCIiTUZFX0Ovzq2ZNrEf/16ynUWbTrx6oohIfFLRn+CWc/Lo0j6de2euIBzW7pYiEv9U9Cdok57Cdz41hI+27ecfi7YGHUdEJGIq+lpMHdmd0X068YuXVnGgvCroOCIiEVHR18I7D85QSkor+e3ctUHHERGJiIq+Dqf17MjnRvfkz+9spLDoUNBxREQaTUVfjzsvHkxGajI/nr0i6CgiIo0WUdGb2W1mtszMlpvZ7f5jI8xsgZl9ZGazzKx900SNvux26Xz9/P7MW13EvFW7g44jItIojS56MxsO3AyMAUYAU8ysP/AIcJdz7hPAv4A7myJoUG4c35d+WW340ewVVFbrsoMiEn8iWaMfAix0zh12zlUDbwCXAwOBN/1pXgGuiCxisNJSkvj+lKGsLy7lifkbg44jInLKIin6ZcBEM8s0s9bAZKAXsByY6k/zOf+xuHbu4BzOHZTN/85dS9HBiqDjiIickkYXvXNuJXA/8DIwB1gChIAvArea2SKgHVDrBVnNbJqZFZhZQVFRUWNjRM33pgylrCrEAy+tDjqKiMgpiWhjrHPuUefcaOfcWcBeYI1zbpVz7iLn3GjgGaCwjtfOcM7lO+fys7OzI4kRFXnZbfnChFz+vmgLH23dH3QcEZEGi3Svmxz/d2+88fmnazyWBHwP+EOkIWPF184fQGabNO7VZQdFJI5Euh/9c2a2ApgFTHfO7QOuNrM1wCpgO/DnCOcRM9pnpHLnxYNYtGkv/1myPeg4IiINYrGwZpqfn+8KCgqCjtEg4bBj6kPvsPtgOa998xzapKcEHUlEWigzW+Scyz/ZdDoy9hQlJRn3XjaUXQcqePj1Wjc/iIjEFBV9I4zu05mpI7sz4631bC45HHQcEZF6qegb6a5PDSbZjJ++oMsOikhsU9E3UrcOrZh+bh5zlu9k/rrioOOIiNRJRR+BL03sR89Orbhv1gqqQzoPjojEJhV9BDJSk/neJUNYvesgTy3cHHQcEZFaqegjdPGwrozPy+RXr6xhb2mtZ3sQEQmUij5C3mUHh3GwvIpfvbIm6DgiIh+jom8Cg7q249qxfXhq4SZW7jgQdBwRkeOo6JvIHRcOpH2rVH44a4XOgyMiMUVF30Q6tk7jmxcOZMH6EuYs2xl0HBGRo1T0TejqMb0Z3LUdP35+JeVVoaDjiIgAKvomlZKcxD2XDmXbvjL+9Ob6oOOIiAAq+iY3Pi+LTw3vyu9fL2TH/rKg44iIqOibw3cnDyHkHD97YVXQUUREVPTNoVfn1nz5rH7MXLqd9zfuCTqOiLRwKvpmcss5eXTrkMG9M5cTCmt3SxEJjoq+mbROS+GuTw1m+fYD/F/BlqDjiEgLpqJvRpeN6E5+n0788qXV7C+rCjqOiLRQKvpmZGbce9kw9hyu5Ldz1wYdR0RaqIiK3sxuM7NlZrbczG73HxtpZu+a2RIzKzCzMU0TNT4N79GBK/N78fj8jazbfSjoOCLSAjW66M1sOHAzMAYYAUwxs/7AL4D7nHMjgXv8+y3aty4eRKvUZH40W+fBEZHoi2SNfgiw0Dl32DlXDbwBXA44oL0/TQdge2QR419W23Ruu2AAb6wpYt7q3UHHEZEWJpKiXwZMNLNMM2sNTAZ6AbcDvzSzLcADwHdqe7GZTfOHdgqKiooiiBEfrh+XS7/sNvxo9koqq3XZQRGJnkYXvXNuJXA/8DIwB1gChIBbgG8453oB3wAereP1M5xz+c65/Ozs7MbGiBtpKUl8f8pQNhSX8ud3NgQdR0RakIg2xjrnHnXOjXbOnQXsBdYANwD/9Cf5P7wxfAHOHZTDeYNz+O1r69h9sDzoOCLSQkS6102O/7s33vj803hj8mf7k5wHaL/CGr4/ZSgV1SF+OWd10FFEpIVIifD1z5lZJlAFTHfO7TOzm4HfmFkKUA5MizRkIumb1YYvTujLH99cz7Vj+zCiV8egI4lIgrNY2N0vPz/fFRQUBB0jag6WV3HuA2/Qq3MrnvvKeJKSLOhIIhKHzGyRcy7/ZNPpyNgAtMtI5duTBvHB5n38Z+m2oOOISIJT0Qfks6N6clrPDvz8xVWUVlQHHUdEEpiKPiBJScYPLh3GrgMVPDRvXdBxRCSBqegDNLpPJz5zeg8eeWsDm0pKg44jIglKRR+w/540mJRk4yfPrww6iogkKBV9wLp2yGD6uf15ecUu3l5bHHQcEUlAKvoYcNOZfenduTX3zVpOVUjnwRGRpqWijwEZqcncfckQ1u4+xFPvbgo6jogkGBV9jLhoaBcm9M/kV6+sYU9pZdBxRCSBqOhjhJm3u2VpZYgHX9Z5cESk6ajoY8jALu24bmwfnnlvMyu2Hwg6jogkCBV9jPnGBQPp0CqV+2Yt12UHRaRJqOhjTIfWqdxx0SAWbtjDCx/tDDqOiCQAFX0M+vyY3gzu2o6fvrCSsspQ0HFEJM6p6GNQsn8enG37ypjx5vqg44hInFPRx6hxeZlM/kRXHn5jHdv2lQUdR0TimIo+hn138hCcg5+9oPPgiEjjqehjWM9Orfny2XnM/nAH723YE3QcEYlTKvoY95Wz+9GtQwb3zlxOKKzdLUXk1EVU9GZ2m5ktM7PlZna7/9izZrbE/9loZkuaJmrL1Dothe9MHsKKHQd49v0tQccRkTjU6KI3s+HAzcAYYAQwxcz6O+eudM6NdM6NBJ4D/tk0UVuuS0/rxpjczjzw8mr2l1UFHUdE4kwka/RDgIXOucPOuWrgDeDyI0+amQH/BTwTWUQxM+65dCh7D1fym1fXBh1HROJMJEW/DJhoZplm1hqYDPSq8fxEYJdzTs3UBIb36MBVZ/TiyQUbWbf7YNBxRCSONLronXMrgfuBl4E5wBKg5mGcV1PP2ryZTTOzAjMrKCoqamyMFuVbFw2iVVoy981aofPgiEiDRbQx1jn3qHNutHPuLGAvsAbAzFLwhnGeree1M5xz+c65/Ozs7EhitBiZbdO5/YKBvLW2mLkrdwcdR0TiRKR73eT4v3vjFfvT/lMXAKucc1sjiycnun5cH/Ky2/Cj51dQUa3z4IjIyUW6H/1zZrYCmAVMd87t8x+/Cm2EbRapyUncc+kwNpUc5rG3NwYdR0TiQEokL3bOTazj8RsjeV+p39kDs7lgSA6/e20tV4zqQU77jKAjiUgM05GxceruS4ZSGQpz/xxddlBE6qeij1N9s9rwxTP78tzirXyweW/QcUQkhqno49jXzhtAdrt07p21gnB958EJh2HnR/DuH2DOd2HTAtDumSItRkRj9BKstukp/PekwXzr/5byrw+2ccXont4T4ZBX7JvegY3vwOb5UOav9SelwLsPQdYgGH0jjLgKWncO7M8gIs3PYuHAm/z8fFdQUBB0jLgUDjuu+P1btN+7nBlnlZO+dQFsfhcq9nsTdMqFPmdC7pmQOwFaZ8Kyf8Kix2FbASSnw9CpXun3GQ9mAf5pRORUmNki51z+SadT0cehUBVs/wA2vgUb3yG06V2Sq0u95zL7Q58JXrH3mQAdetT9PjuXweInYOmz3oIhc4C/ln81tMmMyh9FRBpPRZ9Iqitg2yJvGGbT27DlPag67D2XPRj6TODJHT3548auPPWNqeRmtTm19688DCv+7a3lb1kIyWkw5FKv9HMnai1fJEap6ONZVRlsfd8v9ne829Xl3nM5w7whmNwzofd4aOudPmLXgXLOfeB1xudl8cgNJ/17r9uuFf5a/jNQvh8658HoG2DE54/OS0Rig4o+nlSWemvpRzaebiuAUCVg0PUTx4Zh+oyvd8Pp719fxy/mrObJL47hrIERlnJVGaz4Dyx6wtuYm5QKQ6b4a/lnQZJ22BIJmoo+llUchM0LvWGYje/A9sUQrgZLgm4jvTX2PmdC77HQqmPD37Y6xEW/fpPU5CRevG0iqclNVMZFq73CX/q0t/dOp1wYdQOMvAbadWmaeYjIKVPRx5Ly/d6eMP7GU3YsBRfydnXsfvqxjae9PgkZ7SOa1cvLdzLtL4u4Z8pQvnhm3yb6A/iqymHlLG8sf9PbXv5Bk721/H7nai1fJMpU9EE6vAc2Lzi28XTnR+DC3vBHz3y/2Cd4xZ52ihtOT8I5x/WPvceSLft4/VvnkNk2vUnf/6jitV7hL30GDpdAxz4w6no4/Vpo17V55ikix1HRR1Np8bHx9U3vwK7lgPP2Ue95xrF92HueAamtmj3O2l0HmfSbt/iv/F787PJPNO/Mqitg1Wyv9De8CZYMgz7lreXnnQdJyc07f5EWrKFFryNjG+PQbtj4tl/ub0PRKu/xlFbQawyc+11vrb3HaEiN/pklB3Rpx3Vj+/DEgo1cO7Y3w7p3aL6ZpaTD8Cu8n5JCb4+dD57yyr9Dr2Nr+e27N18GEamX1ugb4sD2Y8MwG9+BEv8yuGltveGXIxtPu58OKWnBZvXtP1zFOQ/MY0BOO5798lgsmvvCV1fC6ue9Dbjr53kbmQdO8tby+1+gtXyRJqI1+kjs2+KvrfsbT/du8B5Pb+/tCXP6td6BRN1GQHJsfoQdWqfyrYsHcfe/ljH7wx1cOiKKa9QpaTDsM97PnvWw+C/wwV9h9QvQvieMus77DDv0jF4mkRZMa/TOwd6NNcbY34Z9m73nMjp6+64f2Xja9bS4WhsNhR1Tfvs2+w9XMveb59AqLcDsoSpY/aI3ll/4mne07YCL/LX8C2N2gSkSy7Qxti7OeWPJR4ZhNr0DB7Z5z7XO9Ivd33iaMyzudxlcuL6EK2e8y23nD+AbFw4MOo5n78Zja/mHdkK7bnD6dd6afsfeQacTiRsq+iOcg+I1NTaevuOVC0Cb7ONPAJY9OO6LvTbTn17Mqyt2MfebZ9OzU+ug4xwTqoI1L3kbcNe+4j3W/wJvLX/gxZCcGvVIVaEw5VUhKqq935XVYZKTjOQkIyUpiZRkI8W/n5qc5D9u0d0GIuJruUUfDkPRymPDMJvmQ2mR91y7bseGYfqcCVkDWsQJu7btK+O8B17ngiFdeOiaUUHHqd2+zd4a/uK/wMHt0LYr4ZHXUv6Jz1PWpiflfvHWLOGKKv+x6hDlR25Xhamocb/iuOf829X+a6trvEdViPLqMKH6LuBSj2MLA/+nxkLAWzgcfz85KYnUI6/xn0+p835SjYWL99pj71vH/ToWSHW9V23vXevCLSmJpKTE/87Ei6hsjDWz24CbAQP+5Jz7H//xrwHTgRDwvHPu25HMp17hEOxadmwYZtN8KNvjPde+p7cv95G19s79WkSxn6hHx1Z85ew8fjN3LdetL2Fsv1M/BXE47I4WbHk95ekV6/HFW17jsYrqugo6RHnVWKqrRnOGK+DyA69y9lsPkvHWg7wf/gTPhM7j1fAoqhv4TzYtOYn01CQyUpPJSE0iIyX56O02aSlktkkiPTXZf/zj06X7t9NSkgg7R3XYUR1yhMLho7erw7Xfrwo5QuEjrwkfux0O++9x/P2KqjCHwiHvvY6+j/d8KOSoOnI/5M/Lv9/YhVKkzDiu+JOTjyzgvM/8Ez06MD4vi3F5meRmttb/dmJAo9fozWw48DdgDFAJzAG+AvQC7gYucc5VmFmOc253fe/V6DX6gsfg1Xu9UwyAd3TmkWGY3Aneff0jA6CsMsT5D75ORmoy5w7OOaGgj60ll9dSwhVVYSpD4UbPOzXZSPcLNf24Yj2hXFP88vWfzwoVc1rRLIbs/Ddty3dSnp7J9tzL2TXgSujUr873SUvx1mATXTjsCLnjFypHFgJVNRcwIX+hEXY1FkL+8/UsoI4tcE64f9x8ji3sQmHHwYpqFm3cy84D3tlWu3XIYFxeJuPzshifl0n3js1/wGBL0uxDN2b2OWCSc+4m//73gQogH5jhnHu1oe/V6KJfN9c7j/qRjafaXa9ec1fu4vZnlxAOu6MFeVy51lLC6SnH1m4zUutY+z2hoDNSk8lISTr6XEqkJ1cLh7y/60WPw5o53nmC+p3jjeUPuiRmjl0Qj3OODcWlzC8sYcH6EhYUlrCntBKA3MzWjMvLZFxeFuP6ZZLdrplO0dFCRKPohwD/AcYBZcBcoACY6D8+CSgHvuWce7+W108DpgH07t179KZNmxqVQ1qYA9u9I28XPwn7N0PrLDj9Gu9smpl5QaeTWoTDjjW7DzJ/XQnzC0tYuL6EgxXVAAzs0vboMM/Yvpl0aB39DfDxLCobY83sJuBWoBRYjrdGfwEwD/g6cAbwLNDP1TOjmD8yVmJPOASF82DRn739813IO4ht9I3e1bFStKYYq6pDYZZvP8CC9V7xv79hD2VVIcxgWPf2R4t/TG5n2qTr+Ir6RH2vGzP7KbAVuAy43zk3z3+8EBjrnCuq67UqeonIwZ2w5CnvlAv7NkGrzjDy817pZw0IOp2cRGV1mKVb9/lr/MV8sHkflaEwKUnGiF4dGZ+Xybh+mYzq04mM1Pg5YDEaorVGn+Oc221mvYGXgbHAVUB359w9ZjYQb0int9bopdmFw7DhdW8sf9Xz3sVc+px5bC0/gBPMyakrqwyxePNe5hcWM7+whA+37icUdqSlJDG6dyfG52Uyvn8mp/Xs2HQX14lT0Sr6t4BMoAq4wzk318zSgMeAkXh743zLOfdafe+jopcmd2j3sbX8vRugVScYcbU3lp8zOOh0cgoOllfx/sY9zF/nbdxdseMAzkHrtGTG9O3MuH7eXj1Du7dvEXtb1dRyD5gSqSkc9k5Ot+hx7+pY4SroPc5byx86NSrXB5Cmtbe0koUbvPH9+YUlrNt9CID2GSmM7ZfpDfXkZTGwS9uE34dfRS9yotJiWPK0V/p7CiGjw7G1/C5Dg04njbT7QPnR3TjnF5awec9hALLapvnF7+3D3ycBD95S0YvUxTnv3EeLHoeVMyFU6V1XYPSNMPTTkBZD5wOSU7Zlz+EaxV/MrgMVAHTvkME4v/THJcjBWyp6kYYoLYEP/+aVfvEaSO8AI6701vK7Dg86nUTIOcd6/+Ctd/0DuI4/eMsr/rFxevCWil7kVDjnXdB90eOw/N8QqoAe+d7BWFmDvAuet+0C6W2DTioRCIcdq3cd9I7aLSxm4fo9cX3wlopepLEO74EPn/VK/8j1gI9IbQPtukDbrv5v/6ddV2ib4z/e1duXPwFPeZ1ojhy8Nd8f5nl/4x7Kq8KYwfDuHY4O85wRowdvqehFIuUcFK/1LkxzaJd3YNah3d71DA7u8n4f2g0VBz7+2qQUaJNTz0Khxn2dqydmVFSHWLpl/9F9+JfUdvBWXiajesfGwVsqepFoqSz1FgSHdvsLgzoWCqXFQC3ft1ad/QXASRYK6e10NtYoK6sMsWhTzYO39hF2kJaSRH6fTkeLP6iDt1T0IrEmVO1dBOdo+e+qsVA4cttfKIQqP/761NY1FgAnLhRq3G6dpWGjZnKgvIr3N+zxx/i9g7fg2MFb4/1TMg/pFp2Dt1T0IvHKOSjfd6z061soVOz/+Ost2d9e0ICFgk7+FpE9pZUsXF9ydIy/sKgUgA6tUhnbzz9qt38WA3Ka5+AtFb1IS1B5+Niw0XHbDnYdv6AoLaLWYaOMjscPDx1dKNTcuNwF0ttr2KgBdh0oZ4G/tj9/fTFb9pQBkNU23b8Ai3eCtqY6eEtFLyLHhKrhcHEdG5RPWCiEKj7++pRWXvGfbKHQJguSgt9IGSu27Dl89MCt+YUl7D748YO3Jg7MIqdd4064p6IXkVPnnHdpzo8NE9Wykbm8lmGj5HQYewuc/d86wvgENQ/eWlBYzILCEvYeruKHU4dx/bjcRr2nil5EmldV2cf3NtryHnz0d+iUC1N+DXnnBZ0yZoXDjlU7D5LTPp2sto3bVqKiF5FgbHgTZt3unTjutKvg4p94QzrS5Bpa9NoHS0SaVt+z4Jb5cNadsOwf8LszYMkz3rCQBEJFLyJNLzUDzvsefPktyOwP//4KPDkVSgqDTtYiqehFpPl0GQpffAkueRC2fwAPj4e3fgWhqqCTtSgqehFpXklJcMaXYPp7MOBCmHsf/PFs2KrtctGioheR6GjfDa78K1z1NJTthUcugBe+DRUHg06W8CIqejO7zcyWmdlyM7vdf+xeM9tmZkv8n8lNE1VEEsLgS2D6QhhzM7w3Ax76JKx6IehUCa3RRW9mw4GbgTHACGCKmfX3n/61c26k/6O/QRE5XkZ7mPxLuOkV79q9f7sanr0ODuwIOllCimSNfgiw0Dl32DlXDbwBXN40sUSkReh1Bnz5TTj/HljzEjw0Bt5/FMLhoJMllEiKfhkw0cwyzaw1MBno5T/3VTP70MweM7NOEacUkcSVnAoTvwm3LoDuI+H5O+DPk2D3yqCTJYxGF71zbiVwP/AyMAdYAoSAh4E8YCSwA3iwtteb2TQzKzCzgqKiosbGEJFEkZkH18+ETz/sXaj9DxPhtZ9AVXnQyeJek50Cwcx+Cmx1zv2+xmO5wGzn3PD6XqtTIIjIcUqL4aXvetfuzewPl/4Gcs8MOlXMicopEMwsx//dG298/mkz61Zjks/gDfGIiDRcmyy4fAZc+0/v4KrHL4H/fNW7cLucskgva/6cmWUCVcB059w+M/utmY3Eu8rBRuDLEc5DRFqq/ufDre/CGz+H+b+DNXNg0s9h+BW6EMop0NkrRSQ+7PgQZt0G2xdD/wu90yp06hN0qkDp7JUikli6nQZfetVbo980H34/1lvLD1UHnSzmqehFJH4kJXtXsJq+0Dsd8st3wyPnwfYlQSeLaSp6EYk/HXvB1X+Dzz3uHU37p3PhpbuhsjToZDFJRS8i8ckMhn0GvvoejLoeFvwOHhoLa18JOlnMUdGLSHxr1cnbz/4LL3oXPHnqs/CPm7xr2QqgoheRRNFnPHzlbTjnO7BypncJw8V/0SUMUdGLSCJJSYdz7vIKP2cozPwqPHEpFK8LOlmgVPQikniyB8GNz3tDOjs+9C5h+MYvoboy6GSBUNGLSGJKSoLRN8JX34fBk2Hej+GPE2HzwqCTRZ2KXkQSW7su3m6YVz8LFYfgsYtg9h1Qvj/oZFGjoheRlmHQJO9Aq7G3wqI/w+/GwIqZLWJjrYpeRFqO9LYw6WfeqRTaZMPfr4O/XQP7twWdrFmp6EWk5ekxGqbNgwt/CIWveZcwXDgDwqGgkzULFb2ItEzJqTDhNpj+LvQaAy/TsgrxAAAHiUlEQVTeCY9eBDsT7xIaKnoRadk65XoXOLn8T7B3I8w4G169D6rKgk7WZFT0IiJmcNp/ebtinnYlvP0r+P04WP960MmahIpeROSI1p3h07/3LlJuBk9OhX/dAqUlQSeLiIpeRORE/c6GW+bDxG/CR3+Hh86Apc/G7a6YKnoRkdqktoLz74Evvwmd+8G/psFfPgN7NgSd7JSp6EVE6tNlGHzxJZj8AGwt8Mbu3/4fCFUFnazBIip6M7vNzJaZ2XIzu/2E575pZs7MsiKLKCISsKRkGHOzd2Rt//Ph1R/AjHNh26KgkzVIo4vezIYDNwNjgBHAFDPr7z/XC7gI2NwUIUVEYkKHHnDVU3DlX+FwMfzpfHjxLqg4GHSyekWyRj8EWOicO+ycqwbeAC73n/s18G0gPrdciIjUZ8il3tr9GTfBwj94lzBc/WLQqeoUSdEvAyaaWaaZtQYmA73MbCqwzTm3tL4Xm9k0Mysws4KioqIIYoiIBCCjA1zyINz0MqS3g2eugr/fAAd3Bp3sY8xFsLuQmd0E3AqUAsuBZLxhnIucc/vNbCOQ75wrru998vPzXUFBQaNziIgEqroS5v/Gu7hJSgZceB+MusE7J34zMrNFzrn8k00XUQrn3KPOudHOubOAvXhl3xdY6pd8T2CxmXWNZD4iIjEtJQ3OutPb977baTD7dnh8MhStDjoZEPleNzn+79544/NPOOdynHO5zrlcYCswyjkXe/+XERFpaln94YZZMPUh2L0SHp4A834G1RWBxor0/xXPmdkKYBYw3Tm3rwkyiYjELzM4/Vr4agEM+zS88XOv8De+E1ikSIduJjrnhjrnRjjn5tbyfO7JxudFRBJS22y44hG45jkIVXhDOTO/DmV7ox5FR8aKiDSnARfAre/C+K/BB3/1LmG47J9RPW+Oil5EpLmltYGLfuxd1ap9d/jHF+DpK2FfdI4pVdGLiERLtxHwpblw8U9h41vegVbLnmv22aroRUSiKTkFxk33jqztdzZk9m/2WaY0+xxEROTjOvaGq5+Jyqy0Ri8ikuBU9CIiCU5FLyKS4FT0IiIJTkUvIpLgVPQiIglORS8ikuBU9CIiCS6iK0w1WQizImBTI1+eBcTiGTKV69Qo16mL1WzKdWoiydXHOZd9soliougjYWYFDbmUVrQp16lRrlMXq9mU69REI5eGbkREEpyKXkQkwSVC0c8IOkAdlOvUKNepi9VsynVqmj1X3I/Ri4hI/RJhjV5EROoRN0VvZpPMbLWZrTOzu2p5Pt3MnvWfX2hmuTGS60YzKzKzJf7Pl6KU6zEz221my+p43szsf/3cH5rZqBjJdY6Z7a/xed0ThUy9zGyema0ws+Vmdlst00T982pgriA+rwwze8/Mlvq57qtlmqh/HxuYK5Dvoz/vZDP7wMxm1/Jc835ezrmY/wGSgUKgH5AGLAWGnjDNrcAf/NtXAc/GSK4bgd8F8JmdBYwCltXx/GTgRcCAscDCGMl1DjA7yp9VN2CUf7sdsKaWv8eof14NzBXE52VAW/92KrAQGHvCNEF8HxuSK5Dvoz/vO4Cna/v7au7PK17W6McA65xz651zlcDfgKknTDMVeMK//Q/gfDOzGMgVCOfcm8CeeiaZCjzpPO8CHc2sWwzkijrn3A7n3GL/9kFgJdDjhMmi/nk1MFfU+Z/BIf9uqv9z4sa+qH8fG5grEGbWE7gEeKSOSZr184qXou8BbKlxfysf/wd/dBrnXDWwH8iMgVwAV/j/3f+HmfVq5kwN1dDsQRjn//f7RTMbFs0Z+/9lPh1vbbCmQD+venJBAJ+XPwyxBNgNvOKcq/PziuL3sSG5IJjv4/8A3wbCdTzfrJ9XvBR9PJsF5DrnTgNe4dhSW2q3GO+w7hHAb4F/R2vGZtYWeA643Tl3IFrzPZmT5Ark83LOhZxzI4GewBgzGx6N+Z5MA3JF/ftoZlOA3c65Rc09r7rES9FvA2oueXv6j9U6jZmlAB2AkqBzOedKnHMV/t1HgNHNnKmhGvKZRp1z7sCR/347514AUs0sq7nna2apeGX6lHPun7VMEsjndbJcQX1eNea/D5gHTDrhqSC+jyfNFdD3cQJwmZltxBvePc/M/nrCNM36ecVL0b8PDDCzvmaWhrexYuYJ08wEbvBvfxZ4zflbNoLMdcI47mV446yxYCZwvb83yVhgv3NuR9ChzKzrkbFJMxuD92+0WQvCn9+jwErn3K/qmCzqn1dDcgX0eWWbWUf/divgQmDVCZNF/fvYkFxBfB+dc99xzvV0zuXidcRrzrlrT5isWT+vlKZ6o+bknKs2s68CL+Ht6fKYc265mf0QKHDOzcT7QvzFzNbhbey7KkZyfd3MLgOq/Vw3NncuADN7Bm+PjCwz2wr8AG/jFM65PwAv4O1Jsg44DHwhRnJ9FrjFzKqBMuCqKCywJwDXAR/547sA3wV618gVxOfVkFxBfF7dgCfMLBlvwfJ359zsoL+PDcwVyPexNtH8vHRkrIhIgouXoRsREWkkFb2ISIJT0YuIJDgVvYhIglPRi4gkOBW9iEiCU9GLiCQ4Fb2ISIL7f9XxJmZz7h3yAAAAAElFTkSuQmCC\n",
      "text/plain": [
       "<matplotlib.figure.Figure at 0x1188f0ac8>"
      ]
     },
     "metadata": {},
     "output_type": "display_data"
    }
   ],
   "source": [
    "plt.plot(history.history['loss'])\n",
    "plt.plot(history.history['val_loss'])"
   ]
  },
  {
   "cell_type": "code",
   "execution_count": 25,
   "metadata": {},
   "outputs": [
    {
     "name": "stdout",
     "output_type": "stream",
     "text": [
      "m (30, 3)\n"
     ]
    },
    {
     "data": {
      "image/png": "iVBORw0KGgoAAAANSUhEUgAAAXcAAABECAYAAAB6WXVJAAAABHNCSVQICAgIfAhkiAAAAAlwSFlzAAALEgAACxIB0t1+/AAAADl0RVh0U29mdHdhcmUAbWF0cGxvdGxpYiB2ZXJzaW9uIDIuMS4yLCBodHRwOi8vbWF0cGxvdGxpYi5vcmcvNQv5yAAACFVJREFUeJzt3WuIXOUdx/Hvz83FYC7kIjbGbC6NFGOQtsZArSZKab1QSIpW9EWwULCUGlroi4ovjBSEtjS9QGqLRdGWNqbUtF2K1QgpuShGo5hoDKZLyJU0ElOSRlNDkn9f7LFsl9nd/0kmmZnH3wdCzpz57dnn2WfmP7PPnvOMIgIzMyvLRa1ugJmZNZ+Lu5lZgVzczcwK5OJuZlYgF3czswK5uJuZFcjF3cysQC7uZmYFcnE3MyvQiFZ948mTJ0d3d3cqe+LEifRx33///XS27tW5dY49atSodHbs2LG12pH14YcfprN1fsYAI0bkHzonT55MZ8eNG5fO1mlznfaePn06nQW4+OKL01lJ6ezx48fT2TqPoTNnzqSzdR7zUO8xN2bMmHR29OjR5yVb53l67NixdBbggw8+qJXPOnr06OGIuHS4XMuKe3d3N+vWrUtlt2/fnj7uyy+/nM7WLe4vvfRSOjtr1qx09vrrr09n6xSHnTt3prM7duxIZwEmT56czu7duzedvfnmm9PZbdu2pbOTJk1KZ+s+iefOnZvOjhw5Mp1dv359Ortw4cJ0ts6L4iuvvJLOAvT29qaz11xzTTpb5/k0e/bsdHbmzJnp7HPPPZfOAmzdurVWPqunp2dPJpealpF0q6R3JPVKeqDB/aMlra7u3yxpZr3mmplZMw1b3CV1Ab8AbgPmAvdIGvhW5evAvyJiDvBT4IfNbqiZmeVl3rkvAHojYldEnASeBhYPyCwGnqq2/wh8QXXmD8zMrKkyxX0asK/f7f3VvoaZiDgFHAXyk7JmZtZUF/RUSEn3Sdoiacvhw4cv5Lc2M/tYyRT3A8D0frevqPY1zEgaAUwA3ht4oIh4LCLmR8T8KVOmnF2LzcxsWJni/ipwpaRZkkYBdwM9AzI9wL3V9p3AuvBHPJmZtcyw57lHxClJ9wPPA13AExGxXdL3gS0R0QM8DvxWUi9whL4XADMza5HURUwR8Szw7IB9D/Xb/g/w1eY2zczMzlbLrlCtY8aMGensxo0b09k6V70BLF++PJ3dtWtXOlvnas/Nmzens3Uu+69zKTjA1KlT09klS5aks6tXr05n61yeX+cKzkOHDqWzABMmTEhnu7q60tk6V77WeQxt2LAhnb3jjjvSWah3BXWdZR727ds3fKiyYsWKdPbGG29MZ+fMmZPOAixbtiydrbPMQ0/PwFnxxrxwmJlZgVzczcwK5OJuZlYgF3czswK5uJuZFcjF3cysQC7uZmYFcnE3MyuQi7uZWYFc3M3MCuTibmZWoJatLdPV1cXEiRNT2Ysuyr8GXX311enspk2b0lmAtWvXprOLFi1KZ1988cV0du/evelsnXVBrrvuunQW4MiRI+nso48+ms7ecsst6ez+/fvT2REj8g/1PXtSHy7/P+PHj09n6/ycr7rqqnR21apV6ezKlSvT2d27d6ezANdee206W+czHbq7u9PZJ598Mp29/PLL09mlS5emswBr1qxJZ+fNm1fr2Bl+525mViAXdzOzArm4m5kVyMXdzKxALu5mZgVycTczK9CwxV3SdEl/l/S2pO2Svt0gc5Oko5LeqP491OhYZmZ2YWRO/j0FfDciXpc0DnhN0gsR8faA3MaI+HLzm2hmZnUN+849Ig5GxOvV9r+BHcC0890wMzM7e7Xm3CXNBD4DbG5w9+ckbZX0N0n5y0TNzKzpFBG5oDQWWA88EhFrBtw3HjgTEccl3Q78PCKubHCM+4D7qpufAt5p8K2mAIfzXeg4Jfev5L6B+9fpSunfjIi4dLhQqrhLGgn8FXg+In6SyO8G5kdE7R+kpC0RMb/u13WKkvtXct/A/et0pfdvoMzZMgIeB3YMVtglfaLKIWlBddz3mtlQMzPLy5wt83lgKfCmpDeqfQ8C3QAR8SvgTuCbkk4BJ4C7IzvfY2ZmTTdscY+ITYCGyawE8uuIDu2xJh2nXZXcv5L7Bu5fpyu9f/8n/QdVMzPrHF5+wMysQG1T3CXdKukdSb2SHmh1e5pN0m5Jb1bLM2xpdXvOlaQnJL0r6a1++yZJekHSP6r/cx+11YYG6d/Dkg70W2bj9la28WwNtqRIKeM3RP+KGL+stpiWkdQF7AS+COwHXgXuabDEQcc6l9ND25GkhcBx4DcRMa/a9yPgSET8oHqBnhgR32tlO8/WIP17GDgeET9uZdvOlaSpwNT+S4oAS4CvUcD4DdG/uyhg/LLa5Z37AqA3InZFxEngaWBxi9tkQ4iIDcDAD1JdDDxVbT9F3xOqIw3SvyIMsaRIEePnJVP6tEtxnwbs63d7P+UNRgBrJb1WXalbossi4mC1/U/gslY25jy5X9K2atqmI6ct+huwpEhx49dgyZSixm8o7VLcPw5uiIjPArcB36p+7S9WdZ1D6+f8muuXwCeBTwMHgRWtbc65qZYUeQb4TkQc639fCePXoH9Fjd9w2qW4HwCm97t9RbWvGBFxoPr/XeBP9E1FleZQNd/50bznuy1uT1NFxKGIOB0RZ4Bf08FjWC0p8gzwu35rRRUzfo36V9L4ZbRLcX8VuFLSLEmjgLuBnha3qWkkXVL9YQdJlwBfAt4a+qs6Ug9wb7V9L/CXFral6T4qfJWv0KFjOMSSIkWM32D9K2X8stribBmA6rSknwFdwBMR8UiLm9Q0kmbT924d+q4K/n2n90/SKuAm+lbaOwQsB/4M/IG+pSn2AHdFREf+UXKQ/t1E36/0AewGvtFvjrpjSLoB2Ai8CZypdj9I37x0x4/fEP27hwLGL6ttiruZmTVPu0zLmJlZE7m4m5kVyMXdzKxALu5mZgVycTczK5CLu5lZgVzczcwK5OJuZlag/wJrANO/dEIslgAAAABJRU5ErkJggg==\n",
      "text/plain": [
       "<matplotlib.figure.Figure at 0x11880d828>"
      ]
     },
     "metadata": {},
     "output_type": "display_data"
    }
   ],
   "source": [
    "x = vae.predict(x_train[:10])\n",
    "plot.multi(x[0, :30])"
   ]
  },
  {
   "cell_type": "code",
   "execution_count": 26,
   "metadata": {},
   "outputs": [],
   "source": [
    "# build a model to project inputs on the latent space\n",
    "encoder = Model(encoder_input, z_mean)"
   ]
  },
  {
   "cell_type": "code",
   "execution_count": 27,
   "metadata": {},
   "outputs": [
    {
     "data": {
      "text/plain": [
       "(100, 150, 3)"
      ]
     },
     "execution_count": 27,
     "metadata": {},
     "output_type": "execute_result"
    }
   ],
   "source": [
    "x_test.shape"
   ]
  },
  {
   "cell_type": "code",
   "execution_count": 28,
   "metadata": {},
   "outputs": [
    {
     "data": {
      "text/plain": [
       "(100, 2)"
      ]
     },
     "execution_count": 28,
     "metadata": {},
     "output_type": "execute_result"
    }
   ],
   "source": [
    "m = 100\n",
    "x_train_encoded = encoder.predict(x_train[:m], batch_size=batch_size)\n",
    "x_train_encoded.shape"
   ]
  },
  {
   "cell_type": "code",
   "execution_count": 29,
   "metadata": {},
   "outputs": [
    {
     "data": {
      "text/plain": [
       "<matplotlib.collections.PathCollection at 0x118894da0>"
      ]
     },
     "execution_count": 29,
     "metadata": {},
     "output_type": "execute_result"
    },
    {
     "data": {
      "image/png": "iVBORw0KGgoAAAANSUhEUgAAAYwAAAFpCAYAAACPsB97AAAABHNCSVQICAgIfAhkiAAAAAlwSFlzAAALEgAACxIB0t1+/AAAADl0RVh0U29mdHdhcmUAbWF0cGxvdGxpYiB2ZXJzaW9uIDIuMS4yLCBodHRwOi8vbWF0cGxvdGxpYi5vcmcvNQv5yAAAHw5JREFUeJzt3X+UX3V95/HneybJJN/wK8nklyRDsASRHxbXr6CrKMtvLRJbOYqlGE6hkW5Zt/Wfsstx2aW7Z6XdLR5b220EbXT9AdJWU7WyEESpFcwEERIpJKBAQn5NEkLIl/x+7x9zo9/EGeYm32/m+83M83HOPXM/n/u5d965B+Y1937u905kJpIkDaWj1QVIko4OBoYkqRQDQ5JUioEhSSrFwJAklWJgSJJKMTAkSaUYGJKkUgwMSVIpBoYkqZQxrS6gmbq7u3POnDmtLkOSjirLli3ry8ypQ40bUYExZ84cent7W12GJB1VIuK5MuO8JSVJKsXAkCSVYmBIkkoxMCRJpRgYkqRSDAxJUilNCYyIuCwinoqIVRFx0wDbuyLirmL7IxExp+i/OiIeq1v2RcTZxbYHi2Pu3zatGbVKkg5Pw4EREZ3AZ4D3AKcDH46I0w8adh2wJTNPAW4HbgPIzC9l5tmZeTZwDfCzzHysbr+r92/PzA2N1ipJOnzNuMI4B1iVmc9m5i7gq8C8g8bMAxYV6/cAF0ZEHDTmw8W+kqQ21IzAOBF4oa69uugbcExm7gG2AlMOGvMh4CsH9X2+uB31iQECRpI0jNpi0jsizgVqmbm8rvvqzDwLOK9Yrhlk3wUR0RsRvRs3bhyGaiVpdGpGYKwBZte1ZxV9A46JiDHA8cCmuu1XcdDVRWauKb5uA75M/62vX5GZCzOzmpnVqVOHfHeWJOkwNSMwlgJzI+LkiBhH/w//xQeNWQzML9avBB7IzASIiA7gg9TNX0TEmIjoLtbHApcDy5EktUzDb6vNzD0RcSNwL9AJfC4zV0TErUBvZi4G7gS+GBGrgM30h8p+7wJeyMxn6/q6gHuLsOgE7gc+22itkqTDF8Uv+iNCtVpNX28uSYcmIpZlZnWocW0x6S1Jan8GhiSpFANDklSKgSFJKsXAkCSVYmBIkkoxMCRJpTT8wT1JGu1qtRqPb1/Kz15+iokdx1Kd/g5eV+lpdVlNZ2BIUgNqtRpfWf03rNu1mq6YwJ7czVM/W85vzb6GXzvutFaX11TekpKkBjxde4J1u9YwY8IsJo2fwtQJMyCTh9b/v1aX1nQGhiQ14MVXVtPBgX+uZ2LHMWzctb5FFR05BoYkNWD6MTPYx74D+l7NGpPGTmpRRUeOgSFJDXhj5c1MGjuNDbUXeWXnVja/upFduZPzpl7a6tKazklvSWpApVLhQ7Ov45EN32P1zmeZ1vU6zpn6rhE34Q0GhiQ1bEqlm/fO+UCryzjivCUlSSrFwJAklWJgSJJKcQ5DKiz/4ZN87c//kbWr1jNx0kTet+ASLrjqna0uS2obBoYEvPj8Rv76j/6WiKC7Zwo7t+/iS//jHsZ2jeG833xbq8uT2oK3pCTgoa/9M7t27mHa7G7Gd43j+MnHcMwJE7j/y99vdWlS2zAwJOCVzTU6Og58vUPXhPHUNm9vUUVS+zEwJODMd57G3j172bFz1y/6tqx7idPedmoLq5Lai3MYEnDue97C0vt+wk/uWw6RJDDjpKnM+6OR93oH6XAZGFLhxj//XZb/8EmeW/EC3SdO4ax3v5FKpdLqsqS2YWBIdc58+xs58+1vbHUZUltyDkOSVIqBIUkqxcCQJJViYEiSSmlKYETEZRHxVESsioibBtjeFRF3FdsfiYg5Rf+ciHg1Ih4rlv9Tt89bIuKJYp9PR0QcfFxJ0vBpODAiohP4DPAe4HTgwxFx+kHDrgO2ZOYpwO3AbXXbnsnMs4vlhrr+vwZ+D5hbLJc1Wqsk6fA14wrjHGBVZj6bmbuArwLzDhozD1hUrN8DXPhaVwwRMRM4LjMfzswEvgC8vwm1SpIOUzMC40Tghbr26qJvwDGZuQfYCkwptp0cET+OiO9FxHl141cPcUxJ0jBq9Qf31gI9mbkpIt4CfD0izjiUA0TEAmABQE9PzxEoUZIEzbnCWAPMrmvPKvoGHBMRY4DjgU2ZuTMzNwFk5jLgGeDUYvysIY5Jsd/CzKxmZnXq1KlN+OdIkgbSjMBYCsyNiJMjYhxwFbD4oDGLgfnF+pXAA5mZETG1mDQnIl5P/+T2s5m5Fng5It5WzHV8BPhGE2qVJB2mhm9JZeaeiLgRuBfoBD6XmSsi4lagNzMXA3cCX4yIVcBm+kMF4F3ArRGxG9gH3JCZm4tt/x74W2AC8E/FIklqkeh/CGlkqFar2dvb2+oyJOmoEhHLMrM61Dg/6S1JKsXAkCSVYmBIkkoxMCRJpRgYkqRSDAxJUimtfjWIWuRHfSv5u5//C+t3vsL0rmP4wJx/yzndc1tdlqQ25hXGKPSvfc/z6Z9+m/U7tnFCxwTW79jGp3/6bf617/lWlyapjRkYo9C3XnyMBGZMmMT4cV3MmDCJLPolaTAGxii0adfLdHWMPaCvq2Msm3a93KKKJB0NDIxR6E3Hzqa2d+cBfbW9O3nTsbMH2UOSnPQela6Y/VZ+su0Fnn1lPZ10sJd9nFTp5orZb211aZLamIExClUqFT5x+m/x8EvP0LfjZbrHH8fbTvg1KpVKq0uT1MYMjFGqUqlwQeWsVpch6SjiHIYkqRQDQ5JUioEhSSrFwJAklWJgSJJKMTAkSaUYGJKkUgwMSVIpBoYkqRQDQ5JUioEhSSrFwJAklWJgSJJKMTAkSaUYGJKkUgwMSVIpTQmMiLgsIp6KiFURcdMA27si4q5i+yMRMafovzgilkXEE8XXC+r2ebA45mPFMq0ZtUqSDk/Df3EvIjqBzwAXA6uBpRGxODN/WjfsOmBLZp4SEVcBtwEfAvqA92XmixFxJnAvcGLdfldnZm+jNUqSGteMK4xzgFWZ+Wxm7gK+Csw7aMw8YFGxfg9wYUREZv44M18s+lcAEyKiqwk1SZKarBmBcSLwQl17NQdeJRwwJjP3AFuBKQeN+QDwaGburOv7fHE76hMREU2oVZJ0mNpi0jsizqD/NtVH67qvzsyzgPOK5ZpB9l0QEb0R0btx48YjX6wkjVLNCIw1wOy69qyib8AxETEGOB7YVLRnAf8AfCQzn9m/Q2auKb5uA75M/62vX5GZCzOzmpnVqVOnNuGfI0kaSDMCYykwNyJOjohxwFXA4oPGLAbmF+tXAg9kZkbECcC3gJsy8wf7B0fEmIjoLtbHApcDy5tQqyTpMDUcGMWcxI30P+H0JHB3Zq6IiFsj4opi2J3AlIhYBXwc2P/o7Y3AKcB/Oejx2S7g3oh4HHiM/iuUzzZaqyTp8EVmtrqGpqlWq9nb61O4knQoImJZZlaHGtcWk96SpPZnYEiSSjEwJEmlGBiSpFIMDElSKQaGJKkUA0OSVIqBIUkqxcCQJJViYEiSSjEwJEmlGBiSpFIMDElSKQaGJKkUA0OSVIqBIUkqxcCQJJViYEiSSjEwJEmlGBiSpFIMDElSKQaGJKkUA0OSVIqBIUkqxcCQJJViYEiSSjEwJEmlGBiSpFIMDElSKQaGJKmUpgVGRFwWEU9FxKqIuGmA7V0RcVex/ZGImFO37T8V/U9FxKVljylJGj5NCYyI6AQ+A7wHOB34cEScftCw64AtmXkKcDtwW7Hv6cBVwBnAZcBfRURnyWNKkoZJs64wzgFWZeazmbkL+Cow76Ax84BFxfo9wIUREUX/VzNzZ2b+DFhVHK/MMSVJw6RZgXEi8EJde3XRN+CYzNwDbAWmvMa+ZY4pSRomR/2kd0QsiIjeiOjduHFjq8uRpBGrWYGxBphd155V9A04JiLGAMcDm15j3zLHJDMXZmY1M6tTp05t8J8hSRpMswJjKTA3Ik6OiHH0T2IvPmjMYmB+sX4l8EBmZtF/VfEU1cnAXOBHJY8pSRomY5pxkMzcExE3AvcCncDnMnNFRNwK9GbmYuBO4IsRsQrYTH8AUIy7G/gpsAf4g8zcCzDQMZtRryTp0EX/L/kjQ7Vazd7e3laXIUlHlYhYlpnVocYd9ZPekqThYWBIkkoxMCRJpRgYkqRSDAxJUikGhiSpFANDklSKgSFJKsXAkCSVYmBIkkoxMCRJpRgYkqRSDAxJUikGhiSpFANDklSKgSFJKsXAkCSVYmBIkkoxMCRJpRgYkqRSDAxJUikGhiSpFANDklSKgSFJKsXAkCSVYmBIkkoxMCRJpYxpdQHSaPbEiufZuXsvp586nUql0upypNdkYEgtsHpdH5/6iyX0bXoFSLrGj+Xa334Hbz/nlFaXJg3KW1JSC9y56AdseXk7s3smM7tnCmPHdPK3X/4BtVqt1aVJg2ooMCJickTcFxEri6+TBhk3vxizMiLmF32ViPhWRPxrRKyIiE/Wjb82IjZGxGPFcn0jdUrtpK+vxs9/3sfUSb+8BTVp8kR279pL749faGFl0mtr9ArjJmBJZs4FlhTtA0TEZOAW4FzgHOCWumD5X5l5GvBm4B0R8Z66Xe/KzLOL5Y4G65TaxqBTFQljx3YOay3SoWg0MOYBi4r1RcD7BxhzKXBfZm7OzC3AfcBlmVnLzO8CZOYu4FFgVoP1SG2vUqnwxtNmsG7DNnbv2AlA34aXOfbYcfz6ma9rcXXS4BoNjOmZubZYXwdMH2DMiUD9dfbqou8XIuIE4H30X6Xs94GIeDwi7omI2Q3WKbWV373633HqqTNZ17ed1Ws2M3HieH7/+gt8UkptbcinpCLifmDGAJturm9kZkZEHmoBETEG+Arw6cx8tuj+R+ArmbkzIj5K/9XLBYPsvwBYANDT03Oo315qie7uCv/545fT11dje63GST3drS5JGtKQgZGZFw22LSLWR8TMzFwbETOBDQMMWwOcX9eeBTxY114IrMzMT9V9z0112+8A/vQ16ltYHINqtXrIgSW1Und3hW68qtDRodFbUouB+cX6fOAbA4y5F7gkIiYVk92XFH1ExH8Hjgf+sH6HInz2uwJ4ssE6JUkNajQwPglcHBErgYuKNhFRjYg7ADJzM/AnwNJiuTUzN0fELPpva50OPHrQ47MfKx61/QnwMeDaBuuUJDUoMkfOXZxqtZq9vb2tLkOSjioRsSwzq0ON85PekqRSDAxJUikGhiSpFANDklSKgSFJKsXAkCSVYmBIkkoxMCRJpRgYkqRSDAxJUikGhiSpFANDklSKgSFJKsXAkCSVYmBIkkoxMCRJpQz5N70lSa1Vq/XxzNb/y7Y9j9MZXcw49jJOOn7esNfhFYYktbkVm/8nfTsehL0d7N6znWe3fJ4n135u2OswMCSpjW2sPcL2Pc9w7PjXM67rOMZ3ddPFdPp23UetVhvWWgwMSWpjO/dsIokD+sZ1TWRP7gAMDElS4ZgxpwKwa+cvw2HHzj7Gd06mUuke1lqc9JakNnZC5RSmdV3Ahp33s2vnWMh9dHR08oYpfzDstRgYktTmzpj5H5hWO4d1W5cyhgozj38XJ1ROGfY6DAxJOgpMrZzL1Mq5La3BOQxJUikGhiSpFANDklSKgSFJKsXAkCSVYmBIkkppODAiYnJE3BcRK4uvkwYZN78YszIi5tf1PxgRT0XEY8Uyrejvioi7ImJVRDwSEXMarVWSdPiacYVxE7AkM+cCS4r2ASJiMnALcC5wDnDLQcFydWaeXSwbir7rgC2ZeQpwO3BbE2qVJB2mZgTGPGBRsb4IeP8AYy4F7svMzZm5BbgPuOwQjnsPcGFExGuMlyQdQc0IjOmZubZYXwdMH2DMicALde3VRd9+ny9uR32iLhR+sU9m7gG2AlOaUK8k6TCUejVIRNwPzBhg0831jczMiMhDrOHqzFwTEccCfwdcA3yh7M4RsQBYANDT03OI31qSVFapwMjMiwbbFhHrI2JmZq6NiJnAhgGGrQHOr2vPAh4sjr2m+LotIr5M/xzHF4p9ZgOrI2IMcDywaYDaFgILAarV6qGGlSSppGbckloM7H/qaT7wjQHG3AtcEhGTisnuS4B7I2JMRHQDRMRY4HJg+QDHvRJ4IDMNBElqkWa8rfaTwN0RcR3wHPBBgIioAjdk5vWZuTki/gRYWuxza9E3kf7gGAt0AvcDny3G3Al8MSJWAZuBq5pQqyTpMMVI+qW9Wq1mb29vq8uQpKNKRCzLzOpQ4/yktySpFANDklSKgSFJKsXAkCSVYmBIkkoxMCRJpTTjcxiSmuzZ1X30vbyd10+bSnd3pdXlSICBIbWVWq3Gn939PZY/v54Ogs7O4Dfe+gauvuTcVpcmeUtKaidfWvIojz+3jpmTjuGk6ZOYNHECX3/4SR5b9XyrS5MMDKmdLH16DZOOncj4ceMAmDihiw6CpU8aGGo9A0NqI52dAfv2HdC3b5Cx0nAzMKQ28s7TT2LTyzV27NwFwObtO4gILnzzaS2uTHLSW2orV19yLpu27+Dhnz7HnpdeYWLXWG74jbfz+lndrS5NMjA0uH21Gmy/G/Y+AnTCcZfRUbm81WWNeB/7zXfz2+fVeHlHjRmTK1QqPlar9mBgaHDbboNcChzX3375L9j3yjN0TPuPLS1rNOjurtCNQaH24hyGBrSvthJyGTAbxnb3L8yGfd9lX62v1eVJagEDQ4PYBASMHfvLrrHjgb3AlhbVJKmVDAwN4nVAwO4dv+zavQ2YAJzYopoktZKBoQF1VHqg433AWti9Gna/AGyB4z5Ch5Ow0qjkpLcG1THt99hXOwu2fQ9iDBxzPh2Vt7S6LEktYmDoNXVU3gaVt7W6DEltwFtSkqRSDAxJUikGhiSpFANDklSKgSFJKsXAkCSV4mO1r+H5vj627djDyZOP842hkkY9A2MAtVqN27/3Q3703Br2ZVLp7OSat/8bLj/r9FaXJkkt4y2pAXyp9zF+8LPnmXlshTlTJjFh/Dg++1AvK1ava3VpktQyDQVGREyOiPsiYmXxddIg4+YXY1ZGxPyi79iIeKxu6YuITxXbro2IjXXbrm+kzkP1g5+vZtKECYwdOw6AY8ePh0i+v3LVcJYhSW2l0SuMm4AlmTkXWFK0DxARk4FbgHOBc4BbImJSZm7LzLP3L8BzwN/X7XpX3fY7GqzzkHWGF1+SVK/Rn4rzgEXF+iLg/QOMuRS4LzM3Z+YW4D7gsvoBEXEqMA14qMF6muIdc2axubad3bt3AVDbuROAd809pZVlSVJLNRoY0zNzbbG+Dpg+wJgTgRfq2qv51T+ocBX9VxRZ1/eBiHg8Iu6JiNkN1nlIrq6eTbVnFmu31nhu8xa2vrqDq84+gzNmzRjOMiSprQz5lFRE3A8M9JPy5vpGZmZE5ADjyrgKuKau/Y/AVzJzZ0R8lP6rlwsGqW8BsACgp6fnML/9gSqVCv/18ot5vq+PjbUaJ3V30+1jtZJGuSEDIzMvGmxbRKyPiJmZuTYiZgIbBhi2Bji/rj0LeLDuGL8OjMnMZXXfc1Pd+DuAP32N+hYCCwGq1erhBtaAerq7aU4ESdLRr9FbUouB+cX6fOAbA4y5F7gkIiYVT1FdUvTt92HgK/U7FOGz3xXAkw3WKUlqUKMf3PskcHdEXEf/U04fBIiIKnBDZl6fmZsj4k+ApcU+t2bm5rpjfBB470HH/VhEXAHsATYD1zZYpySpQXHgPPPRrVqtZm9vb6vLkKSjSkQsy8zqUOP8sIEkqRQDQ5JUioEhSSrFwJAklWJgSJJKMTAkSaUYGJKkUvyLe1ILLO97kb97ejlrt2/jzBOmctUZVd9XprZnYEjDbHnfi9z00HfYS1IZM45vPv80Szeu5X+f/z5DQ23NW1LSMPvCikcBmHP8ZKZNPIaTJ01h7avbeHC1f9FR7c3AkIbZC69s5YSuCQf0jevo4OlNG1tUkVSOgSENs1NOmMJLO189oG/n3r2cOmVqiyqSynEOQxpmH3rDm3iibz3Pv7SFrs4xbNuzk1nHHM97Z/kngNXeDAxpmJ3Z/Tpue8dv8PVnlrPh1Zd5w3FT+K3T3kzFCW+1OQNDaoE3dHfzx93nt7oM6ZA4hyFJKsXAkCSVYmBIkkoxMCRJpRgYkqRSDAxJUikGhiSpFANDklSKgSFJKsXAkCSVYmBIkkoxMCRJpRgYkqRSDAxJUikGhiSplIYDIyImR8R9EbGy+DppkHHfiYiXIuKbB/WfHBGPRMSqiLgrIsYV/V1Fe1WxfU6jtUqSDl8zrjBuApZk5lxgSdEeyJ8B1wzQfxtwe2aeAmwBriv6rwO2FP23F+MkSS3SjMCYBywq1hcB7x9oUGYuAbbV90VEABcA9wywf/1x7wEuLMZLklqgGYExPTPXFuvrgOmHsO8U4KXM3FO0VwMnFusnAi8AFNu3FuMlSS1Q6m96R8T9wIwBNt1c38jMjIhsRmFlRcQCYAFAT0/PcH5rSRpVSgVGZl402LaIWB8RMzNzbUTMBDYcwvffBJwQEWOKq4hZwJpi2xpgNrA6IsYAxxfjD65tIbAQoFqtDmtYSdJo0oxbUouB+cX6fOAbZXfMzAS+C1w5wP71x70SeKAYL0lqgWYExieBiyNiJXBR0SYiqhFxx/5BEfEQ8DX6J69XR8SlxaY/Bj4eEavon6O4s+i/E5hS9H+cwZ++kiQNgxhJv7RXq9Xs7e1tdRmSdFSJiGWZWR1qnJ/0liSVYmBIkkoxMCRJpRgYkqRSSn0OQ1LrPL3ieTa+uJXXv2EmM3u6W12ORjEDQ2pTtVqNv/xvi3l2xYvQCR3RwTsvO4PfvuHiVpemUcpbUlKb+voXfsDKFS8y+9emMXvONKZMO47vf/MJfvzwylaXplHKwJDa1BM/+jkndE/8RXv8hHF0juvgsR8+08KqNJoZGFKbGjuuk3279x3Ql3uha0JniyrSaGdgSG3qvEvfxNYtNV6tvQrA5k2vQAe886I3tbgyjVZOektt6uLfrLJl08v8870r6NuwjWOPrXDtH15CzymH8idnpObxXVJSm6vVamztq/lIrY6Ysu+S8gpDanOVSoVKT6XVZUjOYUiSyjEwJEmlGBiSpFIMDElSKQaGJKkUA0OSVIqBIUkqxcCQJJViYEiSSjEwJEmlGBiSpFIMDElSKQaGJKkUA0OSVIqBIUkqxcCQJJViYEiSSmkoMCJickTcFxEri6+TBhn3nYh4KSK+eVD/lyLiqYhYHhGfi4ixRf/5EbE1Ih4rlv/SSJ2SpMY1eoVxE7AkM+cCS4r2QP4MuGaA/i8BpwFnAROA6+u2PZSZZxfLrQ3WKUlqUKOBMQ9YVKwvAt4/0KDMXAJsG6D/21kAfgTMarAeSdIR0mhgTM/MtcX6OmD64RykuBV1DfCduu63R8RPIuKfIuKMBuuUJDVozFADIuJ+YMYAm26ub2RmRkQeZh1/BXw/Mx8q2o8CJ2XmKxHxXuDrwNxB6lsALADo6ek5zG8vSRrKkIGRmRcNti0i1kfEzMxcGxEzgQ2HWkBE3AJMBT5a9z1frlv/dkT8VUR0Z2bfAPUtBBYCVKvVww0sSdIQhgyMISwG5gOfLL5+41B2jojrgUuBCzNzX13/DGB9cdVyDv23zjYNdbxly5b1RcRzRbMb+JWA0S94fobmOXptnp+hHS3n6KQyg6J/vvnwRMQU4G6gB3gO+GBmbo6IKnBDZl5fjHuI/qehjqH/B/91mXlvROwp9ts/If73mXlrRNwI/D6wB3gV+Hhm/ssh1tabmdXD/seNcJ6foXmOXpvnZ2gj7Rw1dIWRmZuACwfo76XuEdnMPG+Q/Qf8/pn5l8BfNlKbJKm5/KS3JKmUkRwYC1tdQJvz/AzNc/TaPD9DG1HnqKE5DEnS6DGSrzAkSU00IgKjzEsQI+LsiPhhRKyIiMcj4kOtqLVVGn1R5EgVEZcVL8BcFRG/8i60iOiKiLuK7Y9ExJzhr7K1Spyjd0XEoxGxJyKubEWNrVTi/Hw8In5a/NxZEhGlHmFtRyMiMCj3EsQa8JHMPAO4DPhURJwwjDW2WqMvihxxIqIT+AzwHuB04MMRcfpBw64DtmTmKcDtwG3DW2VrlTxHzwPXAl8e3upar+T5+TFQzcw3AfcAfzq8VTbPSAmMIV+CmJlPZ+bKYv1F+j+VPnXYKmy9hl4UOUKdA6zKzGczcxfwVfrPU73683YPcGFExDDW2GpDnqPM/HlmPg7sG+gAI1yZ8/PdzKwVzYc5il+yOlIC45Beglh8enwc8MyRLqyNNOVFkSPMicALde3VRd+AYzJzD7AVmDIs1bWHMudoNDvU83Md8E9HtKIjqNFXgwybZr0EsXjn1ReB+fWvIxkJhulFkZIOQ0T8DlAF3t3qWg7XURMYzXgJYkQcB3wLuDkzHz5CpbbMkX5R5Ai0Bphd155V9A00ZnVEjAGOp8R7zUaQMudoNCt1fiLiIvp/cXt3Zu4cptqabqTcktr/EkQY5CWIETEO+AfgC5l5zzDW1i6GPEej0FJgbkScXPz3cRX956le/Xm7EnggR9eHl8qco9FsyPMTEW8G/ga4IjOP7l/UMvOoX+i/p7wEWAncD0wu+qvAHcX67wC7gcfqlrNbXXs7naOi/RCwkf6XPq4GLm117Uf4vLwXeJr++aybi75b6f+fG2A88DVgFf1/FfL1ra65Dc/RW4v/VrbTf/W1otU1t9n5uR9YX/dzZ3Graz7cxU96S5JKGSm3pCRJR5iBIUkqxcCQJJViYEiSSjEwJEmlGBiSpFIMDElSKQaGJKmU/w+EWOQKkqlXLwAAAABJRU5ErkJggg==\n",
      "text/plain": [
       "<matplotlib.figure.Figure at 0x118e4ee80>"
      ]
     },
     "metadata": {},
     "output_type": "display_data"
    }
   ],
   "source": [
    "# y_test = range(x_train_encoded.shape[0])\n",
    "y_test = np.concatenate([list(range(n)) for _ in range(int(m/n)+1)])[:m] / n\n",
    "plt.figure(figsize=(6, 6))\n",
    "plt.scatter(x_train_encoded[:, 0], x_train_encoded[:, 1], c=y_test, alpha=0.1, s=30)"
   ]
  },
  {
   "cell_type": "code",
   "execution_count": 30,
   "metadata": {},
   "outputs": [
    {
     "data": {
      "image/png": "iVBORw0KGgoAAAANSUhEUgAAAX4AAAFpCAYAAACbCUPfAAAABHNCSVQICAgIfAhkiAAAAAlwSFlzAAALEgAACxIB0t1+/AAAADl0RVh0U29mdHdhcmUAbWF0cGxvdGxpYiB2ZXJzaW9uIDIuMS4yLCBodHRwOi8vbWF0cGxvdGxpYi5vcmcvNQv5yAAAIABJREFUeJzt3XucXVV99/HPNwmgUe4TAxJCsITSoD7wOMXWPiKVW6BKVG6JgEGDKW2prda2UApoqI+AVbQVtSnERh4hQCh1WqIpBKiogBkuAoFCAiokcsmNSx25JPN7/jhr4s5wZs7J2efMPnvO9/167dfsvfbaa36Hy++sWXvvtRQRmJlZ5xhTdABmZjaynPjNzDqME7+ZWYdx4jcz6zBO/GZmHcaJ38yswzjxm5m1MUnTJT0iaZWks6uc30fSMkn3S7pN0qSabfo5fjOz9iRpLPAocCSwGlgOzIqIhzJ1rgP+IyIWSnov8NGIOG24dt3jNzNrX4cAqyLi8Yh4BVgEzBhUZxpwS9q/tcr513DiNzNrX3sBT2aOV6eyrJ8AH0r7HwR2lLT7cI2Oa1p4baCrqyumTJlSdBhmVgJ33333uoiYkKeNo3//DbF+w+bGY7j/5RXAS5mi+RExfxub+TTwVUmnA98H1gDDBjWqEv+UKVPo7e0tOgwzKwFJP8/bxroNm7lrac17qUPabs/HXoqI7mGqrAH2zhxPSmVbRMQvSD1+SW8Ejo+I54b7vR7qMTNrX8uBqZL2lbQ9MBPoyVaQ1CVpIJefAyyo1agTv5lZw4LN0d/wVrP1iE3AWcBS4GHg2ohYIWmepONStcOARyQ9CkwEPler3VE11GNmNpIC6Ke1j8RHxBJgyaCy8zP7i4HF29KmE7+ZWQ791O65txsP9ZiZdRj3+M3MGhQEm0s4+4ETv5lZDq0e428FJ34zswYFsLmEib8pY/x1zB63g6Rr0vm7JE1J5adIui+z9Us6KJ27LbU5cO5NzYjVzKyZ+omGt6LkTvxp9rjLgGOoTBY0S9K0QdXmABsjYj/gUuBigIj4dkQcFBEHAacBP42I+zLXnTJwPiKezRurmZk1p8dfz+xxM4CFaX8xcLgkDaozK11rZlYKAWyOaHgrSjMSfz2zx22pk95Eex4YPHvcycDVg8q+mYZ5zqvyRQGApLmSeiX1rl27ttHPYGbWkP4cW1Ha4jl+Se8E+iLiwUzxKRHxNuDdaau6sEBEzI+I7ojonjAh10R7ZmbbJAg259iK0ozEX3P2uGwdSeOAnYH1mfMzGdTbj4g16eeLwFVUhpTMzNpHwOYcW1Gakfhrzh6Xjmen/ROAWyKt+ZhmlTuJzPi+pHGSutL+dsD7gAcxM7Pccj/HHxGbJA3MHjcWWDAwexzQGxE9wBXAlZJWARuofDkMOBR4MiIez5TtACxNSX8scDPwz3ljNTNrpsokbeXTlBe46pg97iXgxCGuvQ34nUFlvwTe0YzYzMxaR2ym6nMnbc1v7pqZNSiA/vK9uNseT/WYmdnIcY/fzCwHD/WYmXWQyiRtTvxmZh2lP5z4zcw6hnv8ZmaDnPOTM+jr/+WW467t9uC8t15aYEQGfqrHzFrkk/eetlXSB1j36tOc98AfFxRR8wViM2Ma3oriHr+ZNV1fXx/9bKp67oVNG0c4mtbyGL+ZGXDviz8qOoQR4TF+M7Nk3x33LzqEESI2R/lGzMsXsZm1vTePn1x0CDYMJ34za4m/+M3PVS3//G9eMcKRtE5lds4xDW9FceI3s5aYPP4tfOXgq5n+phPo2m4PZk06k68cfDXjx48vOrSm2pxm6Gxkq4ek6ZIekbRK0tlVzk+WdKukeyXdL+nYWm16jN/MWuqYvY7nmL2OLzqMloho7Ri/pLHAZcCRVNYzXy6pJyIeylT7W+DaiPi6pGlUpsifMly77vGbmbWvQ4BVEfF4RLxCZaXCGYPqBLBT2t8Z+EWtRp34rW3NO+nvOX7CR/nmBYtqVzYrSD9qeKvDXsCTmePVqSzrM8CpklZT6e3/aa1Gnfit7dx+w50cOeZEbl98Fy+s/x+uuvB6jhxzIn19fUWHZraVynP8ud7c7ZLUm9nmNhDGLOBfImIScCyVZW6Hze0e47e2M+/4L1Ytn/HG2dzUf90IR2M2nNxj/OsionuY82uAvTPHk1JZ1hxgOkBE3CHpdUAX8OxQjbrHb23lnlvuLzoEs7qNwOOcy4GpkvaVtD0wE+gZVOcJ4HAASb8FvA5YO1yjTvzWVu7+Tyd+swERsQk4C1gKPEzl6Z0VkuZJOi5V+wvg45J+AlwNnB4Rw64E7KEeayunnP8hrr3kO0WHYVa3zS2epC0illC5aZstOz+z/xDwe9vSphO/tZXx48ez3Q7b8erLr77m3D5v3bvKFWbFGZiWuWzKF7GNekt+dRW7v3nXrcre9n8O4PL7v1RQRGZD648xDW9FcY/f2tKi1fOLDsGspoHHOcumfBGbmVku7vGbmTUoUMtv7raCE7+ZWQ5FTq/cKCd+M7MGRdC5K3DVMV/0DpKuSefvkjQllU+R9CtJ96XtG5lr3iHpgXTNP0gq399TZmZtKHfiz8wXfQwwDZiV5oTOmgNsjIj9gEuBizPnHouIg9J2Zqb868DHgalpm543VjOz5mp8Zs46Z+dsiWb0+OuZL3oGsDDtLwYOH64HL2lPYKeIuDO9evwt4ANNiNXMrGmCylBPo1tRmvGb65kvekudNPfE88Du6dy+acmw/5L07kz91TXaNDMrXM5pmQtR9M3dp4DJEbFe0juAf5N04LY0kOavngswefLkFoRoZlZdIPpL+DhnM75y6pkveksdSeOoLA+2PiJejoj1ABFxN/AYsH+qP6lGm6Tr5kdEd0R0T5gwoQkfx8xsdGtG4q9nvugeYHbaPwG4JSJC0oR0cxhJb6FyE/fxiHgKeEHS76R7AR8BPGWjmbWdjhzqiYhNkgbmix4LLBiYLxrojYge4Aoqy4GtAjZQ+XIAOBSYJ+lVoB84MyI2pHN/DPwL8Hrgu2kzM2sbAYVOttaopozx1zFf9EvAiVWuux64fog2e4G3NiM+M7PWEJsLfCyzUUXf3DUzK62y9vjLF7GZmeXiHr+ZWQ4e6jEz6yARKuVQjxO/mVkOZZyd04m/xH76/DOceuc/8mr085bxE1h06CeLDsnMSqB8X1UGwEd/eBkn3/EVXo1+AB7vW8sh3/sb1vW9UHBkZp0joGNn57QCrHix6gwWHPv9i0Y4ErNOplLOzumhnhL6+B3fqF3JzFqu8hy/n+qxEfD8q78qOgQzS4qcc6dR5YvY+Fr3nKJDMLMSc4+/hLrG78TrxmzHS/2vvubcOQcMXvzMzFqlk+fjtwJ8/6jP8q7d9ttyLOCr3R/lg1PeWVxQZh2onzENb/WQNF3SI5JWSTq7yvlLJd2XtkclPVerTff4S+zLh3ys6BDMOloEbG5hjz+tV3IZcCSVJWiXS+qJiId+HUN8MlP/T4GDa7XrHr+ZWQ79oYa3OhwCrIqIxyPiFWARMNx47izg6lqNOvGbmRWnS1JvZps76PxewJOZ49Wp7DUk7QPsC9xS65d6qMfMrEGVm7u5+s/rIqK7SeHMBBZHxOZaFZ34zcxyaPG0zGuAvTPHk1JZNTOBP6mnUSd+M7MGjcCbu8uBqZL2pZLwZwIfHlxJ0gHArsAd9TTqMX4zszYVEZuAs4ClwMPAtRGxQtI8Scdlqs4EFkVE1NOue/xmZg1r/UIsEbEEWDKo7PxBx5/Zljad+M3McihyeuVGOfGbmTWo1S9wtYoTv5lZDmVcc7d8EZuZWS7u8ZuZNaiss3M68ZuZ5eCbu2ZmHaSsSy96jN/MrMO4x29mlkPHPtVTxwoxO0i6Jp2/S9KUVH6kpLslPZB+vjdzzW2pzYGVZd7UjFjNzJomx1z8RQ4R5e7x17NCDDAH2BgR+0maCVwMnAysA94fEb+Q9FYq81Fk55o+JSJ688ZoZtYKQTlv7jajx1/PCjEzgIVpfzFwuCRFxL0R8YtUvgJ4vaQdmhCTmdmIKGOPvxmJv54VYrbUSbPNPQ/sPqjO8cA9EfFypuybaZjnPEnl+1o1M2tDbXFzV9KBVIZ/jsoUnxIRayTtCFwPnAZ8q8q1c4G5AJMnTx6BaM3MKjr5cc56VojZUkfSOGBnYH06ngTcAHwkIh4buCAi1qSfLwJXURlSeo2ImB8R3RHRPWHChCZ8HDOz+nXqUM+WFWIkbU9lQYCeQXV6gNlp/wTglogISbsANwJnR8QPBypLGiepK+1vB7wPeLAJsZqZNc3AlA1lS/y5h3oiYpOkgRVixgILBlaIAXojoge4ArhS0ipgA5UvB6isLLMfcL6kgYUFjgJ+CSxNSX8scDPwz3ljNTNrtjI+1dOUMf5aK8RExEvAiVWu+zvg74Zo9h3NiM3MzLbWFjd3zcxKKcp5c9eJ38ysQWV9qseJ38wshzIm/vLNLmRmZrm4x29m1iCvwGVm1oHCid/MrLN07HP8ZmadKEr6OKdv7pqZdRgnfjOzHCLU8FaPWiscpjonSXpI0gpJV9Vq00M9ZmYNa+1TPfWscChpKnAO8HsRsbGeZWqd+M3McmjxUz1bVjgEkDSwwmF2aduPA5dFxMZKPPFsrUad+M3MGtSEKRu6JGXXFZ8fEfMzx9VWOHznoDb2B5D0QyqzGX8mIr433C914jczK866iOjO2cY4YCpwGJWFsL4v6W0R8dxQF/jmrplZo6LySGejWx3qWeFwNdATEa9GxE+BR6l8EQzJid/MLId+1PBWh3pWOPw3Kr190sqF+wOPD9eoh3rMzBoUtPbmbp0rHC4FjpL0ELAZ+MuIWD9cu078ZmZtrI4VDgP4VNrq4sRvZtYwz85pZtZx6rxJ21ac+M3McvC0zGZmHaTyWGb5Er8f5zQz6zDu8ZuZ5eCbu2ZmHcY3d83MOkwZx/id+M3MGhTUv6BKO/HNXTOzDuMev5lZDiUc4nfiNzNrWKc/x19rQWBJO0i6Jp2/S9KUzLlzUvkjko6ut00zs8JFjq0gTUn8mQWBjwGmAbMkTRtUbQ6wMSL2Ay4FLk7XTqMyx/SBwHTga5LG1tmmmZlto2b1+LcsCBwRrwADCwJnzQAWpv3FwOGSlMoXRcTLafWYVam9eto0MytUhBreitKsxF9tQeC9hqoTEZuA54Hdh7m2njaRNFdSr6TetWvX5vwYZmbbpsVLL7ZE6R/njIj5EdEdEd0TJkwoOhwz6yADK3CVrcffrKd66lkQeKDOaknjgJ2B9TWurdWmmVlxAujgp3rqWRC4B5id9k8AbklLhvUAM9NTP/tSWR3+x3W2aWZm26gpPf46FwS+ArhS0ipgA5VETqp3LfAQsAn4k4jYDFCtzWbEa2bWLB09SVsdCwK/BJw4xLWfAz5XT5tmZm2lkxO/mVnnKeckbU78ZmZ5lLDHX/rHOc3MbNu4x29m1qiSTtLmxG9mlkcJh3qc+M3Mcilfj99j/GZmbayOKe9Pl7RW0n1pO6NWm+7xm5nl0cKhnsz09EdSmahyuaSeiHhoUNVrIuKsett1j9/MLI/WLsTSkunpnfjNzBo1MElbo1ttdU1PDxwv6X5JiyXtXeX8Vpz4zcxyyDkff9fAeiJpm9tACP8OTImItwM38esFr4bkMX4zs+Ksi4juYc7XnPI+ItZnDi8HLqn1S93jNzPLo7Vj/DWnp5e0Z+bwOODhWo26x29mlkcL39ytc8r7T0g6jsq09huA02u168RvZpaDWvzmbh1T3p8DnLMtbTrxm5k1qv4hm7biMX4zsw7jHr+ZWcPqfh6/rTjxm5nlUcKhHid+M7M8Spj4PcZvZtZh3OM3M8ujhD1+J34zs0YNTNJWMk78ZmY5tPoFrlZw4jczy6OEid83d83MOox7/NZRzvu/N/D9H6wEQIJ/vGQmbztwcsFRmY0s9/itY/zBCV/ekvShshDGWX+5iH/t6S0wKis7ReNbUZz4rSP09fXxP32vVD33lW/cMsLR2KjS2qUXWyJX4pe0m6SbJK1MP3cdot7sVGelpNmpbLykGyX9t6QVki7K1D9d0lpJ96XtjDxxmv352dcVHYKNRnkWYSlxj/9sYFlETAWWpeOtSNoNuAB4J5UV4y/IfEH8fUQcABwM/J6kYzKXXhMRB6Xt8pxxWofbeefXFR2CWdvIm/hn8OuFfRcCH6hS52jgpojYEBEbqSwGPD0i+iLiVoCIeAW4h8p6kmZN94ULTy46BButOrDHPzEinkr7TwMTq9TZC3gyc7w6lW0haRfg/VT+ahhwvKT7JS2WlF1s2Kwh035zz6rl317wsRGOxEaTUXlzV9LNkh6sss3I1ouIhr7DJI0Drgb+ISIeT8X/DkyJiLdT+Qth4TDXz5XUK6l37dq12/rrrYN8/dLT+NY3Psa4cZX/7N+8x07815K/YtIeXQVHZqVWwh5/zef4I+KIoc5JekbSnhHxVFrp/dkq1dYAh2WOJwG3ZY7nAysj4suZ37k+c/5y4JJh4puf2qC7u7uE79DZSNpnchfLej5ddBhmhco71NMDzE77s4HvVKmzFDhK0q7ppu5RqQxJfwfsDPx59oL0JTLgOODhnHGambXGaOzx13ARcK2kOcDPgZMAJHUDZ0bEGRGxQdKFwPJ0zbxUNgk4F/hv4B5JAF9NT/B8QtJxwCZgA3B6zjjNzJqu6LH6RuVK/GlI5vAq5b3AGZnjBcCCQXVWA1XfYIiIc4Bz8sRmZjYiPC2zmVmHKWGP31M2mJl1GPf4zcxy6LgxfjOzjlfCxO+hHjOzRuV4a7fevxQkTZf0iKRVkl4zH1qm3vGSIj1VOSwnfjOzNiVpLHAZcAwwDZglaVqVejsCfwbcVU+7TvxmZnm09gWuQ4BVEfF4msxyEZXJMQe7ELgYeKmeRp34zczyaG3ir2eSy/8N7B0RN9Ybsm/umpnlkPOpni5J2bU/56f5x+r73dIY4Ets4+wGTvxmZsVZFxHD3YxdA2SnpZ+UygbsCLwVuC1Ne7MH0CPpuDSDQlUe6jEza1/LgamS9pW0PTCTyuSYAETE8xHRFRFTImIKcCcwbNIHJ34zs3xaOMYfEZuAs6jMaPwwcG1ErJA0L01k2RAP9ZiZNWoEZueMiCXAkkFl5w9R97B62nTiNzPLo4Rv7jrxm5nl4cRvZtY6tz05g75NjyF24HcnXsMu4/crOqRS8s1dM2t7fX1PsOSnb6Vv02MABC/zo2c+wA9Xn1poXKL1c/W0gnv8Ztb2bnvm2Krlz7963whHUkUJh3rc4zezUrtzzZzifvkIzM7ZCk78ZlZqr/RvLDqE0vFQj5mVWvfudU9t0xoe6jEza74DdvmbquVjGM/48V0jHM0grZ2dsyWc+M2s7b1l1w/z2xOvoPIcTcXuO7yb6fv+uLigkjKO8Xuox8xKYcL4d3Lsvg8UHcZreajHzMzanXv8ZmaNKnisvlFO/GZmORQ5Vt8oJ34zszyc+M3MOksZe/y+uWtm1mFyJ35Ju0m6SdLK9HPXIerNTnVWSpqdKb9N0iOS7kvbm1L5DpKukbRK0l2SpuSN1cys6Tr0Ba6zgWURMRVYlo63Imk34ALgncAhwAWDviBOiYiD0vZsKpsDbIyI/YBLgYubEKuZWfPkSfolT/wzgIVpfyHwgSp1jgZuiogNEbERuAmYvg3tLgYOl6Rh6puZjSjl3IrSjMQ/MSKeSvtPAxOr1NkLeDJzvDqVDfhmGuY5L5Pct1yTVpp/Hth9cMOS5krqldS7du3anB/FzGz0q+upHkk3A3tUOXVu9iAiQtrme9ynRMQaSTsC1wOnAd+q9+KImA/MB+ju7i7h/XUzK7USZp26En9EHDHUOUnPSNozIp6StCfwbJVqa4DDMseTgNtS22vSzxclXUXlHsC30jV7A6sljQN2BtbXE6+Z2Ujp1Mc5e4CBp3RmA9+pUmcpcJSkXdNN3aOApZLGSeoCkLQd8D7gwSrtngDcEhEl/EdsZqNaCW/uNuMFrouAayXNAX4OnAQgqRs4MyLOiIgNki4Elqdr5qWyN1D5AtgOGAvcDPxzqnMFcKWkVcAGYGYTYjUza64SdkdzJ/6IWA8cXqW8Fzgjc7wAWDCozi+BdwzR7kvAiXnjMzOzrXnKBjOzRhW8oEqjnPjNzPIoYeL3XD1mZjm0eulFSdPTtDarJFWbGeFMSQ+kd6F+IGlarTad+M3M8mjhUz2SxgKXAccA04BZVRL7VRHxtog4CLgE+FKtdp34zcza1yHAqoh4PCJeARZRmc5mi4h4IXP4Bur4SnHiNwOeWLeOnh+14ULe1vZyDvV0DUw5k7a5g5qvNd1NJQbpTyQ9RqXH/4laMfvmrnW0+1Y9wce+eP2W489ceTOv224sP/qHmv/vmDXjRax1EdGdO4yIy4DLJH0Y+Ft+/fJrVe7xW0fLJv0BL726maPP/qcCorFSau2buwNT1wyYlMqGsojqMyRvxYnfOtZnr1w65Lm1z/eNYCRmQ1oOTJW0r6Ttqcxg0JOtIGlq5vAPgJW1GvVQj3WsHzzw06JDsJITrX2BKyI2STqLynxnY4EFEbFC0jygNyJ6gLMkHQG8CmykxjAPOPFbBzvx0LfzjRvvKjoMK7sWv8AVEUuAJYPKzs/s/9m2tumhHutYc9/3riHP7T/pNWv+mFWliIa3ojjxj1L9fSvpf/oA+p/ev7I9c2jRIbWl/7zwD19T9ubddmTRuR8pIBornZKuueuhnlGov28FvPDBrQvjafqf3p8xezxaTFBtqqtrPPd8/ZNFh2E2otzjH41e+NCQp/pf8GOKZs3U6rl6WsGJf1Qa5r+ovq+MXBhmncBDPdb+tis6ALNRxfPxW5vYEXix+qmdFo9oJGajXgkTv4d6RqExe9xd/YTexJjxU6ufM7OO4cQ/So3Z41HY4YNU/hVvDzvdwJiJPyg6LLPRJceN3SKHiDzUM4qN2fVi4OKiwzAb3Uo41OPEb2bWoFbP1dMqHuoxM+sw7vGbmeVR4Jw7jXLiNzPLoYxDPU78ZmaNKvgN3EZ5jD/jvx59jBMu/39c03tf0aGYWUmov/GtKO7xA319fRz8xV9PXvbAU7dy/ndv5aY/Oo3JXV0FRmZm1nzu8cNWST/ryK9fOcKRmFnplHCSNif+Gtb1edFtMxtaGd/czZX4Je0m6SZJK9PPXYeoNzvVWSlpdirbUdJ9mW2dpC+nc6dLWps5d0aeOPO487GfFfWrzazdBZXHORvdCpJ3jP9sYFlEXCTp7HT819kKknYDLgC6qfxjultST0RsBA7K1Lsb+NfMpddExFk548vtvb8xpegQzKyNlfFxzrxDPTOAhWl/IfCBKnWOBm6KiA0p2d8ETM9WkLQ/8Cbg9pzxNGSX1+9QtXwMMH78+JENxsysxfIm/okR8VTafxqYWKXOXsCTmePVqSxrJpUefva783hJ90taLGnvoQKQNFdSr6TetWvXNvAR4K5P/zET3/iGrcresP32PHye12I1sxpKeHO35lCPpJuBPaqcOjd7EBEhNfxHz0zgtMzxvwNXR8TLkv6Qyl8T7612YUTMB+YDdHd3N/yP8vufnNvopWbWoco6SVvNxB8RRwx1TtIzkvaMiKck7Qk8W6XaGuCwzPEk4LZMG/8LGBcRW1YPiYj1mfqXA5fUitPMbMQVfJO2UXmHenqA2Wl/NvCdKnWWAkdJ2jU99XNUKhswC7g6e0H6EhlwHPBwzjjNzCzJ+1TPRcC1kuYAPwdOApDUDZwZEWdExAZJFwLL0zXzImJDpo2TgGMHtfsJSccBm4ANwOk54zQza4lROdQznDQkc3iV8l7gjMzxAmDBEG28pUrZOcA5eWIzMxsRLU78kqYDXwHGApdHxEWDzn+KSr7dBKwFPhYRPx+uTb+5a2aWQyvf3JU0FrgMOAaYBsySNG1QtXuB7oh4O7CYOu6JOvGbmTUqgP5ofKvtEGBVRDweEa8Ai6i8P/XrECJujYiBuWXupPIAzbCc+M3MitM18B5S2gY/V17Pe1BZc4Dv1vqlnpbZzCyPfGP86yKiuxlhSDqVytQ476lV14nfzCyHFj/VswbIzlwwKZVtHYN0BJWXat8TES/XatSJ38wsj9a+wLUcmCppXyoJfybw4WwFSQcD/wRMj4hqL9G+hhO/dYyTb7yKu55dveV4DPD4R/+quIBsVGhljz8iNkk6i8pLr2OBBRGxQtI8oDcieoAvAG8ErpME8EREHDdcu0781hHm/Od1WyV9gH5gyjcv4WdO/tbGImIJsGRQ2fmZ/SGn1RmKn+qxjrBszU+HPHfVw/eOYCQ2quSZmbOsK3CZjQZfvPcHRYdgJVWZnTMa3orioR7reO+YMNxj0WY19BcdwLZzj986wk7bbT/kuflHfmgEIzErnhO/dYT7T/3zquWfPaTq+j5mdfNQj1kb+9lH/4onnlvHJ2//Hu/aczJ/0X1o0SFZ2RV8k7ZRTvzWUSbv0sX17z+16DBs1CjnClxO/GZmOZRxIRaP8ZuZdRj3+M3M8vBQj5lZBwlQCZ/jd+I3M8ujhD1+j/GbmXUY9/jNzPIoX4ffid/MLI8i38BtlBO/mVkeTvxmZh0k8OycZmbW/tzjNzNrkCh2ls1GOfGbmeXhxG9m1mFKmPhzj/FL2k3STZJWpp+7DlHve5Kek/Qfg8r3lXSXpFWSrpG0fSrfIR2vSuen5I3VzKypBm7uNroVpBk3d88GlkXEVGBZOq7mC8BpVcovBi6NiP2AjcCcVD4H2JjKL031zMwsp2Yk/hnAwrS/EPhAtUoRsQx4MVsmScB7gcVVrs+2uxg4PNU3M2sbnbr04sSIeCrtPw1M3IZrdweei4hN6Xg1sFfa3wt4EiAiNkl6PtVflz9kM7MmKeEYf12JX9LNwB5VTp2bPYiIkEZ2PRpJc4G5AJMnTx7JX21mHW8UL70YEUcMdU7SM5L2jIinJO0JPLsNv389sIukcanXPwlYk86tAfYGVksaB+yc6g+ObT4wH6C7u7t8/wbMzEZYM8b4e4DZaX828J16L4yIAG4FTqhyfbbdE4BbUn0zs/YQVHr8jW51kDRd0iPpCcfXPDwj6VBJ90jaJOmEam0M1ozEfxFwpKSVwBHpGElJwGVmAAAHhElEQVTdki7PBHc7cB2Vm7SrJR2dTv018ClJq6iM4V+Ryq8Adk/ln2Lop4XMzIrTwsc5JY0FLgOOAaYBsyRNG1TtCeB04Kp6Q859czci1gOHVynvBc7IHL97iOsfBw6pUv4ScGLe+MzMWqnFT+ccAqxKeRJJi6g88fjQQIWI+Fk6V/ebAZ6kzcwsj9YO9Wx5ujHJPvnYME/ZYGZWnC5JvZnj+emBlZZy4jcza1QA/bmGetZFRPcw5weebhyQffKxYR7qMTNrWI5hnvqGepYDU9OcZtsDM6k88ZiLe/xmyT9+9gaWLPrxluMddxnPtXecV2BEVgotvLmbZi04C1gKjAUWRMQKSfOA3ojokfTbwA3ArsD7JX02Ig4crl0nfjPg7//mWpbdcO9WZS8+18cxv3UO33348wVFZaXQ4teLImIJsGRQ2fmZ/eVUhoDq5qEeM3hN0s96dMUTIxiJWes58ZvVcMmnry06BGtXAzd3G90K4qEesxp+47dyPzZto1ZAFLiiSoOc+M2AMWPH0L+5+v/A53xp1ghHY6VSwinEPNRjBtz44Oeqln/w9HeNcCRmrecev1ny3Yc/zzXzb+Wa+bfx5n1246vX/1nRIVm7y/8CVyGc+M0yTp77+5w89/eLDsPKpIRDPU78ZmZ5OPGbmXWSci696Ju7ZmYdxj1+M7NGBdDv5/jNzDpLCYd6nPjNzPJw4jcz6yTFzrnTKN/cNTPrMO7xm5k1KiA8SZuZWYcp4VCPE7+ZWR4lvLnrMX4zsw7jHr+ZWaMi/AKXmVnHKeFQjxO/mVkO4R6/mVkn8eycZmZWArkSv6TdJN0kaWX6uesQ9b4n6TlJ/zGo/NuSHpH0oKQFkrZL5YdJel7SfWk7P0+cZmYtMbD0YqNbQfL2+M8GlkXEVGBZOq7mC8BpVcq/DRwAvA14PXBG5tztEXFQ2ubljNPMrDWiv/GtIHkT/wxgYdpfCHygWqWIWAa8WKV8SSTAj4FJOeMxMxsxAUR/NLwVJW/inxgRT6X9p4GJjTSShnhOA76XKf5dST+R9F1JBw5z7VxJvZJ6165d28ivNzNrTETLe/ySpqch8VWSXjOqImkHSdek83dJmlKrzZpP9Ui6GdijyqlzswcREZIa/Qr7GvD9iLg9Hd8D7BMR/yPpWODfgKnVLoyI+cB8gO7u7vLdXjczG4KkscBlwJHAamC5pJ6IeChTbQ6wMSL2kzQTuBg4ebh2ayb+iDhimKCekbRnRDwlaU/g2To+y+A2LgAmAH+Y+Z0vZPaXSPqapK6IWLet7ZuZtVKLh2wOAVZFxOMAkhZRGWLPJv4ZwGfS/mLgq5KUhtCryjvU0wPMTvuzge9sy8WSzgCOBmZFZm5TSXtIUto/JMW5PmesZmbN19qhnr2AJzPHq1NZ1ToRsQl4Hth9uEbzvsB1EXCtpDnAz4GTACR1A2dGxBnp+HYqT++8UdJqYE5ELAW+ka67I+X5f01P8JwA/JGkTcCvgJnDfXsNuPvuu9dJ+nk67AJG+18InfAZwZ9ztGmXz7lP3gZeZOPSm2NxV44mXiepN3M8Pw1ft5TqyKelJKk3IrqLjqOVOuEzgj/naNMpn7MZJP0u8JmIODodnwMQEZ/P1Fma6twhaRyVB20mtHKox8zMWmc5MFXSvpK2B2ZSGWLPyg65nwDcUmuExHP1mJm1qYjYJOksYCkwFlgQESskzQN6I6IHuAK4UtIqYAOVL4dhjebE3/JxsjbQCZ8R/DlHm075nE0REUuAJYPKzs/svwScuC1tjtoxfjMzq85j/GZmHWbUJP56ZgqVdJCkOyStkHS/pGHfbms3eWdDbXeteDW9HdXxOQ+VdI+kTZJOKCLGvOr4jJ+S9FD6/3CZpNyPVlr9Rk3ip76ZQvuAj0TEgcB04MuSdhnBGPPKOxtq28q8mn4MMA2YJWnaoGpbXk0HLqXyanqp1Pk5nwBOB64a2eiao87PeC/QHRFvp/K26SUjG2VnG02Jv+ZMoRHxaESsTPu/oDLFxIQRizC/XLOhtrktr6ZHxCvAwKvpWdnPvxg4fOAN7xKp+Tkj4mcRcT9QvjX9Kur5jLdGRF86vBPPzDuiRlPi36aZQtNUENsDj7U6sCZqymyobaolr6a3oXo+Z9lt62ecA3y3pRHZVkr1OGezZgpNE8pdCczOzhHUDkZoNlSztiDpVKAbeE/RsXSSUiX+ZswUKmkn4Ebg3Ii4s0WhNqzVs6G2sTXA3pnjSamsWp3V6dX0nSnf5H31fM6yq+szSjqCSofmPRHx8gjFZoyuoZ6aM4WmV55vAL4VEYtHMLZmyTUbaptryavpbaiez1l2NT+jpIOBfwKOi4jR1IEph4gYFRuVsd5lwErgZmC3VN4NXJ72TwVeBe7LbAcVHXszP2M6vh1YS2Vm09XA0UXHXufnOxZ4lMp9l3NT2TwqyQHgdcB1wCoqS3W+peiYW/Q5fzv9e/sllb9oVhQdcws+483AM5n/D3uKjrmTNr+5a2bWYUbTUI+ZmdXBid/MrMM48ZuZdRgnfjOzDuPEb2bWYZz4zcw6jBO/mVmHceI3M+sw/x/4KP5wkD3q7gAAAABJRU5ErkJggg==\n",
      "text/plain": [
       "<matplotlib.figure.Figure at 0x118e92cc0>"
      ]
     },
     "metadata": {},
     "output_type": "display_data"
    }
   ],
   "source": [
    "# display a 2D plot of the digit classes in the latent space\n",
    "x_test_encoded = encoder.predict(x_test, batch_size=batch_size)\n",
    "plt.figure(figsize=(6, 6))\n",
    "plt.scatter(x_test_encoded[:, 0], x_test_encoded[:, 1], c=y_test)\n",
    "plt.colorbar()\n",
    "plt.show()"
   ]
  },
  {
   "cell_type": "code",
   "execution_count": 31,
   "metadata": {},
   "outputs": [
    {
     "ename": "NameError",
     "evalue": "name 'decoder_hid' is not defined",
     "output_type": "error",
     "traceback": [
      "\u001b[0;31m---------------------------------------------------------------------------\u001b[0m",
      "\u001b[0;31mNameError\u001b[0m                                 Traceback (most recent call last)",
      "\u001b[0;32m<ipython-input-31-86100014a0be>\u001b[0m in \u001b[0;36m<module>\u001b[0;34m()\u001b[0m\n\u001b[1;32m      1\u001b[0m \u001b[0;31m# build a digit generator that can sample from the learned distribution\u001b[0m\u001b[0;34m\u001b[0m\u001b[0;34m\u001b[0m\u001b[0m\n\u001b[1;32m      2\u001b[0m \u001b[0mdecoder_input\u001b[0m \u001b[0;34m=\u001b[0m \u001b[0mInput\u001b[0m\u001b[0;34m(\u001b[0m\u001b[0mshape\u001b[0m\u001b[0;34m=\u001b[0m\u001b[0;34m(\u001b[0m\u001b[0mlatent_dim\u001b[0m\u001b[0;34m,\u001b[0m\u001b[0;34m)\u001b[0m\u001b[0;34m)\u001b[0m\u001b[0;34m\u001b[0m\u001b[0m\n\u001b[0;32m----> 3\u001b[0;31m \u001b[0m_hid_decoded\u001b[0m \u001b[0;34m=\u001b[0m \u001b[0mdecoder_hid\u001b[0m\u001b[0;34m(\u001b[0m\u001b[0mdecoder_input\u001b[0m\u001b[0;34m)\u001b[0m\u001b[0;34m\u001b[0m\u001b[0m\n\u001b[0m\u001b[1;32m      4\u001b[0m \u001b[0m_up_decoded\u001b[0m \u001b[0;34m=\u001b[0m \u001b[0mdecoder_upsample\u001b[0m\u001b[0;34m(\u001b[0m\u001b[0m_hid_decoded\u001b[0m\u001b[0;34m)\u001b[0m\u001b[0;34m\u001b[0m\u001b[0m\n\u001b[1;32m      5\u001b[0m \u001b[0m_reshape_decoded\u001b[0m \u001b[0;34m=\u001b[0m \u001b[0mdecoder_reshape\u001b[0m\u001b[0;34m(\u001b[0m\u001b[0m_up_decoded\u001b[0m\u001b[0;34m)\u001b[0m\u001b[0;34m\u001b[0m\u001b[0m\n",
      "\u001b[0;31mNameError\u001b[0m: name 'decoder_hid' is not defined"
     ]
    }
   ],
   "source": [
    "# build a digit generator that can sample from the learned distribution\n",
    "decoder_input = Input(shape=(latent_dim,))\n",
    "_hid_decoded = decoder_hid(decoder_input)\n",
    "_up_decoded = decoder_upsample(_hid_decoded)\n",
    "_reshape_decoded = decoder_reshape(_up_decoded)\n",
    "_deconv_1_decoded = decoder_deconv_1(_reshape_decoded)\n",
    "_deconv_2_decoded = decoder_deconv_2(_deconv_1_decoded)\n",
    "_x_decoded_relu = decoder_deconv_3_upsamp(_deconv_2_decoded)\n",
    "_x_decoded_mean_squash = decoder_mean_squash(_x_decoded_relu)\n",
    "generator = Model(decoder_input, _x_decoded_mean_squash)"
   ]
  },
  {
   "cell_type": "code",
   "execution_count": null,
   "metadata": {},
   "outputs": [],
   "source": [
    "# display a 2D manifold of the digits\n",
    "n = 15  # figure with 15x15 digits\n",
    "digit_size = 28\n",
    "figure = np.zeros((digit_size * n, digit_size * n))\n",
    "# linearly spaced coordinates on the unit square were transformed through the inverse CDF (ppf) of the Gaussian\n",
    "# to produce values of the latent variables z, since the prior of the latent space is Gaussian\n",
    "grid_x = norm.ppf(np.linspace(0.05, 0.95, n))\n",
    "grid_y = norm.ppf(np.linspace(0.05, 0.95, n))\n",
    "\n",
    "for i, yi in enumerate(grid_x):\n",
    "    for j, xi in enumerate(grid_y):\n",
    "        z_sample = np.array([[xi, yi]])\n",
    "        z_sample = np.tile(z_sample, batch_size).reshape(batch_size, 2)\n",
    "        x_decoded = generator.predict(z_sample, batch_size=batch_size)\n",
    "        digit = x_decoded[0].reshape(digit_size, digit_size)\n",
    "        figure[i * digit_size: (i + 1) * digit_size,\n",
    "               j * digit_size: (j + 1) * digit_size] = digit\n",
    "\n",
    "plt.figure(figsize=(10, 10))\n",
    "plt.imshow(figure, cmap='Greys_r')\n",
    "plt.show()"
   ]
  },
  {
   "cell_type": "code",
   "execution_count": null,
   "metadata": {},
   "outputs": [],
   "source": []
  },
  {
   "cell_type": "code",
   "execution_count": null,
   "metadata": {},
   "outputs": [],
   "source": []
  },
  {
   "cell_type": "code",
   "execution_count": null,
   "metadata": {},
   "outputs": [],
   "source": []
  },
  {
   "cell_type": "code",
   "execution_count": null,
   "metadata": {},
   "outputs": [],
   "source": []
  }
 ],
 "metadata": {
  "kernelspec": {
   "display_name": "Python 3",
   "language": "python",
   "name": "python3"
  },
  "language_info": {
   "codemirror_mode": {
    "name": "ipython",
    "version": 3
   },
   "file_extension": ".py",
   "mimetype": "text/x-python",
   "name": "python",
   "nbconvert_exporter": "python",
   "pygments_lexer": "ipython3",
   "version": "3.6.4"
  }
 },
 "nbformat": 4,
 "nbformat_minor": 2
}
