{
 "cells": [
  {
   "cell_type": "code",
   "execution_count": 1,
   "metadata": {},
   "outputs": [
    {
     "name": "stderr",
     "output_type": "stream",
     "text": [
      "/Library/Frameworks/Python.framework/Versions/3.6/lib/python3.6/site-packages/h5py/__init__.py:36: FutureWarning: Conversion of the second argument of issubdtype from `float` to `np.floating` is deprecated. In future, it will be treated as `np.float64 == np.dtype(float).type`.\n",
      "  from ._conv import register_converters as _register_converters\n",
      "Using TensorFlow backend.\n"
     ]
    }
   ],
   "source": [
    "from __future__ import division\n",
    "\n",
    "import collections\n",
    "import numpy as np\n",
    "import matplotlib.pyplot as plt\n",
    "from scipy.stats import norm\n",
    "\n",
    "## NN libs\n",
    "import keras\n",
    "from keras import backend as K\n",
    "from keras import regularizers\n",
    "from keras.utils import to_categorical\n",
    "from keras.optimizers import SGD, Adam\n",
    "from keras.layers import Input, Dense, Activation, Reshape, Dropout, Flatten, Lambda\n",
    "from keras.layers import Conv2DTranspose, Conv1D, Conv2D, MaxPooling1D, MaxPooling2D, UpSampling2D, UpSampling1D \n",
    "from keras.layers import LocallyConnected1D, LocallyConnected2D, LSTM, RepeatVector\n",
    "from keras.preprocessing.image import ImageDataGenerator\n",
    "from keras.models import Model\n",
    "from keras.callbacks import TensorBoard"
   ]
  },
  {
   "cell_type": "code",
   "execution_count": 2,
   "metadata": {},
   "outputs": [],
   "source": [
    "import config\n",
    "import os, numpy as np, pandas, sklearn, scipy.signal as signal\n",
    "import mido\n",
    "import matplotlib.pyplot as plt\n",
    "%matplotlib inline"
   ]
  },
  {
   "cell_type": "code",
   "execution_count": 3,
   "metadata": {},
   "outputs": [],
   "source": [
    "# local libs\n",
    "import config, models, setup\n",
    "import midi\n",
    "from midi import generators as g\n",
    "from utils import io, models_io, utils, plot"
   ]
  },
  {
   "cell_type": "code",
   "execution_count": 4,
   "metadata": {},
   "outputs": [
    {
     "name": "stdout",
     "output_type": "stream",
     "text": [
      " Context :: namedtuple(\n",
      "[ max_t = float\n",
      ", dt = float\n",
      ", n_timestesp = int\n",
      ", note_length = int\n",
      ", bpm = float\n",
      ", tempo = float\n",
      ", ticks_per_beat = int\n",
      "]\n",
      "\n",
      "Setting up params\n",
      "\n",
      "max min f 10.0 0.5\n",
      " >> Context(max_t=2.0, dt=0.05, n_timesteps=40, note_length=0.03, bpm=120.0, tempo=500000, ticks_per_beat=480)\n",
      " sample length:  40.000000\n",
      " max_f: 10.000000, min_f: 0.500000\n"
     ]
    }
   ],
   "source": [
    "context = setup.init()"
   ]
  },
  {
   "cell_type": "code",
   "execution_count": 5,
   "metadata": {
    "scrolled": true
   },
   "outputs": [
    {
     "name": "stdout",
     "output_type": "stream",
     "text": [
      "\n",
      "Importing midi-data\n",
      "\n",
      "Encoding midi-data\n",
      " 100\n",
      "> -> multi-track = True MidiFile\n",
      "\u001b[92m [INFO] : \u001b[0m\n",
      " |  True\n",
      "<meta message track_name name='01 8th Hat\\x00' time=0>\n",
      "<meta message time_signature numerator=4 denominator=4 clocks_per_click=36 notated_32nd_notes_per_beat=8 time=0>\n",
      "<meta message time_signature numerator=4 denominator=4 clocks_per_click=36 notated_32nd_notes_per_beat=8 time=0>\n",
      "control_change channel=0 control=4 value=127 time=0\n",
      "note_on channel=0 note=36 velocity=68 time=0\n",
      "note_on channel=0 note=75 velocity=9 time=0\n",
      "note_on channel=0 note=42 velocity=103 time=0.005208333333333333\n",
      "note_off channel=0 note=36 velocity=64 time=0.03125\n",
      "note_off channel=0 note=42 velocity=64 time=0.005208333333333333\n",
      "note_on channel=0 note=42 velocity=85 time=0.203125\n",
      "note_off channel=0 note=42 velocity=64 time=0.041666666666666664\n",
      "control_change channel=0 control=4 value=127 time=0.078125\n",
      "control_change channel=0 control=4 value=11 time=0\n",
      "control_change channel=0 control=4 value=9 time=0.005208333333333333\n",
      "control_change channel=0 control=4 value=3 time=0.015625\n",
      "control_change channel=0 control=4 value=1 time=0.020833333333333332\n",
      "control_change channel=0 control=4 value=21 time=0.03645833333333333\n",
      "control_change channel=0 control=4 value=74 time=0.005208333333333333\n",
      "control_change channel=0 control=4 value=121 time=0.005208333333333333\n",
      "note_on channel=0 note=44 velocity=87 time=0.026041666666666664\n",
      "note_on channel=0 note=38 velocity=123 time=0.015625\n",
      "note_on channel=0 note=42 velocity=107 time=0.005208333333333333\n",
      "note_off channel=0 note=38 velocity=64 time=0.03125\n",
      "note_off channel=0 note=42 velocity=64 time=0.005208333333333333\n",
      "note_off channel=0 note=44 velocity=64 time=0.09375\n",
      "note_on channel=0 note=42 velocity=85 time=0.109375\n",
      "note_off channel=0 note=42 velocity=64 time=0.03645833333333333\n",
      "note_on channel=0 note=36 velocity=68 time=0.16666666666666666\n",
      "note_off channel=0 note=36 velocity=64 time=0.03645833333333333\n",
      "note_on channel=0 note=42 velocity=105 time=0.015625\n",
      "note_off channel=0 note=42 velocity=64 time=0.03645833333333333\n",
      "note_on channel=0 note=42 velocity=81 time=0.20833333333333331\n",
      "note_off channel=0 note=42 velocity=64 time=0.03645833333333333\n",
      "control_change channel=0 control=4 value=121 time=0.09375\n",
      "control_change channel=0 control=4 value=12 time=0\n",
      "control_change channel=0 control=4 value=9 time=0.005208333333333333\n",
      "control_change channel=0 control=4 value=2 time=0.020833333333333332\n",
      "control_change channel=0 control=4 value=0 time=0.015625\n",
      "control_change channel=0 control=4 value=31 time=0.041666666666666664\n",
      "control_change channel=0 control=4 value=66 time=0.005208333333333333\n",
      "note_on channel=0 note=44 velocity=87 time=0\n",
      "control_change channel=0 control=4 value=126 time=0.005208333333333333\n",
      "note_on channel=0 note=38 velocity=122 time=0.005208333333333333\n",
      "note_on channel=0 note=42 velocity=107 time=0.005208333333333333\n",
      "note_off channel=0 note=38 velocity=64 time=0.03125\n",
      "note_off channel=0 note=42 velocity=64 time=0.005208333333333333\n",
      "note_off channel=0 note=44 velocity=64 time=0.11458333333333333\n",
      "note_on channel=0 note=42 velocity=83 time=0.10416666666666666\n",
      "note_off channel=0 note=42 velocity=64 time=0.03645833333333333\n",
      "note_on channel=0 note=36 velocity=68 time=0.20833333333333331\n",
      "note_on channel=0 note=42 velocity=104 time=0.010416666666666666\n",
      "<meta message track_name name='02 8th Ride\\x00' time=0>\n",
      "<meta message time_signature numerator=4 denominator=4 clocks_per_click=36 notated_32nd_notes_per_beat=8 time=0>\n",
      "<meta message time_signature numerator=4 denominator=4 clocks_per_click=36 notated_32nd_notes_per_beat=8 time=0>\n",
      "control_change channel=0 control=4 value=127 time=0\n",
      "note_on channel=0 note=36 velocity=70 time=0\n",
      "note_off channel=0 note=36 velocity=64 time=0\n",
      "note_on channel=0 note=75 velocity=9 time=0\n",
      "note_on channel=0 note=51 velocity=111 time=0.010416666666666666\n",
      "note_off channel=0 note=51 velocity=64 time=0\n",
      "note_on channel=0 note=51 velocity=97 time=0.2552083333333333\n",
      "note_off channel=0 note=51 velocity=64 time=0\n",
      "control_change channel=0 control=4 value=127 time=0.13020833333333331\n",
      "control_change channel=0 control=4 value=7 time=0\n",
      "control_change channel=0 control=4 value=6 time=0.005208333333333333\n",
      "control_change channel=0 control=4 value=0 time=0.020833333333333332\n",
      "control_change channel=0 control=4 value=0 time=0.06770833333333333\n",
      "control_change channel=0 control=4 value=83 time=0\n",
      "control_change channel=0 control=4 value=127 time=0.005208333333333333\n",
      "note_on channel=0 note=44 velocity=121 time=0\n",
      "note_on channel=0 note=38 velocity=127 time=0.010416666666666666\n",
      "note_off channel=0 note=38 velocity=64 time=0\n",
      "note_on channel=0 note=51 velocity=112 time=0.020833333333333332\n",
      "note_off channel=0 note=51 velocity=64 time=0\n",
      "note_off channel=0 note=44 velocity=64 time=0.08854166666666666\n",
      "note_on channel=0 note=51 velocity=92 time=0.16145833333333331\n",
      "note_off channel=0 note=51 velocity=64 time=0\n",
      "note_on channel=0 note=36 velocity=66 time=0.19791666666666666\n",
      "note_off channel=0 note=36 velocity=64 time=0\n",
      "note_on channel=0 note=51 velocity=110 time=0.05208333333333333\n",
      "note_off channel=0 note=51 velocity=64 time=0\n",
      "note_on channel=0 note=51 velocity=93 time=0.26041666666666663\n",
      "note_off channel=0 note=51 velocity=64 time=0\n",
      "control_change channel=0 control=4 value=127 time=0.140625\n",
      "control_change channel=0 control=4 value=127 time=0\n",
      "control_change channel=0 control=4 value=2 time=0.020833333333333332\n",
      "control_change channel=0 control=4 value=0 time=0.015625\n",
      "note_on channel=0 note=38 velocity=124 time=0.03645833333333333\n",
      "note_off channel=0 note=38 velocity=64 time=0\n",
      "note_on channel=0 note=44 velocity=121 time=0.005208333333333333\n",
      "note_on channel=0 note=51 velocity=112 time=0.005208333333333333\n",
      "note_off channel=0 note=51 velocity=64 time=0\n",
      "control_change channel=0 control=4 value=78 time=0.005208333333333333\n",
      "control_change channel=0 control=4 value=127 time=0.005208333333333333\n",
      "note_off channel=0 note=44 velocity=64 time=0.10416666666666666\n",
      "note_on channel=0 note=51 velocity=92 time=0.14583333333333331\n",
      "note_off channel=0 note=51 velocity=64 time=0\n",
      "note_on channel=0 note=36 velocity=66 time=0.20833333333333331\n",
      "<meta message track_name name='03 16th Snare\\x00' time=0>\n",
      "<meta message time_signature numerator=4 denominator=4 clocks_per_click=36 notated_32nd_notes_per_beat=8 time=0>\n",
      "<meta message time_signature numerator=4 denominator=4 clocks_per_click=36 notated_32nd_notes_per_beat=8 time=0>\n",
      "control_change channel=0 control=4 value=127 time=0\n",
      "note_on channel=0 note=36 velocity=81 time=0\n",
      "note_on channel=0 note=75 velocity=9 time=0\n",
      "note_on channel=0 note=74 velocity=108 time=0.015625\n",
      "note_off channel=0 note=36 velocity=64 time=0.09375\n",
      "note_off channel=0 note=74 velocity=64 time=0\n",
      "note_on channel=0 note=74 velocity=69 time=0.15625\n",
      "note_off channel=0 note=74 velocity=64 time=0.09375\n",
      "control_change channel=0 control=4 value=127 time=0.015625\n",
      "control_change channel=0 control=4 value=13 time=0\n",
      "note_on channel=0 note=74 velocity=67 time=0\n",
      "control_change channel=0 control=4 value=4 time=0.020833333333333332\n",
      "control_change channel=0 control=4 value=1 time=0.020833333333333332\n",
      "control_change channel=0 control=4 value=29 time=0.046875\n",
      "note_off channel=0 note=74 velocity=64 time=0\n",
      "control_change channel=0 control=4 value=110 time=0.005208333333333333\n",
      "note_on channel=0 note=44 velocity=116 time=0\n",
      "control_change channel=0 control=4 value=127 time=0.005208333333333333\n",
      "note_on channel=0 note=74 velocity=108 time=0.015625\n",
      "note_on channel=0 note=32 velocity=107 time=0.03125\n",
      "note_off channel=0 note=74 velocity=64 time=0.06770833333333333\n",
      "note_off channel=0 note=44 velocity=64 time=0.005208333333333333\n",
      "note_off channel=0 note=32 velocity=64 time=0.05208333333333333\n",
      "note_on channel=0 note=74 velocity=104 time=0.078125\n",
      "note_on channel=0 note=43 velocity=2 time=0.015625\n",
      "note_on channel=0 note=32 velocity=100 time=0.005208333333333333\n",
      "note_on channel=0 note=30 velocity=100 time=0.026041666666666664\n",
      "note_off channel=0 note=74 velocity=64 time=0.05208333333333333\n",
      "note_off channel=0 note=32 velocity=64 time=0.046875\n",
      "note_off channel=0 note=43 velocity=64 time=0\n",
      "note_off channel=0 note=30 velocity=64 time=0.026041666666666664\n",
      "control_change channel=0 control=4 value=127 time=0.041666666666666664\n",
      "control_change channel=0 control=4 value=106 time=0\n",
      "control_change channel=0 control=4 value=124 time=0.020833333333333332\n",
      "control_change channel=0 control=4 value=127 time=0.005208333333333333\n",
      "note_on channel=0 note=74 velocity=105 time=0.03125\n",
      "note_on channel=0 note=36 velocity=66 time=0.005208333333333333\n",
      "note_off channel=0 note=74 velocity=64 time=0.10416666666666666\n",
      "note_off channel=0 note=36 velocity=64 time=0.005208333333333333\n",
      "note_on channel=0 note=74 velocity=72 time=0.11458333333333333\n",
      "note_off channel=0 note=74 velocity=64 time=0.09375\n",
      "control_change channel=0 control=4 value=127 time=0.057291666666666664\n",
      "control_change channel=0 control=4 value=19 time=0\n",
      "control_change channel=0 control=4 value=17 time=0.005208333333333333\n",
      "control_change channel=0 control=4 value=6 time=0.015625\n",
      "control_change channel=0 control=4 value=2 time=0.020833333333333332\n",
      "control_change channel=0 control=4 value=93 time=0.05208333333333333\n",
      "control_change channel=0 control=4 value=127 time=0.005208333333333333\n",
      "note_on channel=0 note=44 velocity=114 time=0.005208333333333333\n",
      "note_on channel=0 note=39 velocity=120 time=0.015625\n",
      "note_on channel=0 note=47 velocity=77 time=0.010416666666666666\n",
      "note_on channel=0 note=30 velocity=100 time=0.015625\n",
      "note_off channel=0 note=39 velocity=64 time=0.07291666666666666\n",
      "note_off channel=0 note=44 velocity=64 time=0.010416666666666666\n",
      "note_off channel=0 note=47 velocity=64 time=0\n",
      "note_off channel=0 note=30 velocity=64 time=0.041666666666666664\n",
      "note_on channel=0 note=40 velocity=71 time=0.08854166666666666\n",
      "note_on channel=0 note=47 velocity=94 time=0.015625\n",
      "note_off channel=0 note=40 velocity=64 time=0.08333333333333333\n",
      "note_off channel=0 note=47 velocity=64 time=0.010416666666666666\n",
      "control_change channel=0 control=4 value=101 time=0.13020833333333331\n",
      "control_change channel=0 control=4 value=127 time=0\n",
      "control_change channel=0 control=4 value=127 time=0.026041666666666664\n",
      "<meta message track_name name='04 8th Ride\\x00' time=0>\n",
      "<meta message time_signature numerator=4 denominator=4 clocks_per_click=36 notated_32nd_notes_per_beat=8 time=0>\n",
      "<meta message time_signature numerator=4 denominator=4 clocks_per_click=36 notated_32nd_notes_per_beat=8 time=0>\n",
      "control_change channel=0 control=4 value=127 time=0\n",
      "note_on channel=0 note=36 velocity=75 time=0\n",
      "note_off channel=0 note=36 velocity=64 time=0\n",
      "note_on channel=0 note=75 velocity=9 time=0\n",
      "note_on channel=0 note=51 velocity=105 time=0.026041666666666664\n",
      "note_off channel=0 note=51 velocity=64 time=0\n",
      "note_on channel=0 note=51 velocity=73 time=0.1875\n",
      "note_off channel=0 note=51 velocity=64 time=0\n",
      "control_change channel=0 control=4 value=127 time=0.14583333333333331\n",
      "control_change channel=0 control=4 value=14 time=0\n",
      "control_change channel=0 control=4 value=12 time=0.005208333333333333\n",
      "control_change channel=0 control=4 value=4 time=0.020833333333333332\n",
      "control_change channel=0 control=4 value=2 time=0.020833333333333332\n",
      "control_change channel=0 control=4 value=20 time=0.03125\n",
      "control_change channel=0 control=4 value=49 time=0.005208333333333333\n",
      "control_change channel=0 control=4 value=102 time=0.005208333333333333\n",
      "note_on channel=0 note=44 velocity=107 time=0.041666666666666664\n",
      "note_on channel=0 note=38 velocity=123 time=0.005208333333333333\n",
      "note_off channel=0 note=38 velocity=64 time=0.005208333333333333\n",
      "note_on channel=0 note=51 velocity=106 time=0.005208333333333333\n",
      "note_off channel=0 note=51 velocity=64 time=0\n",
      "note_off channel=0 note=44 velocity=64 time=0.11979166666666666\n",
      "note_on channel=0 note=51 velocity=76 time=0.09375\n",
      "note_off channel=0 note=51 velocity=64 time=0\n",
      "note_on channel=0 note=36 velocity=73 time=0.25\n",
      "note_off channel=0 note=36 velocity=64 time=0\n",
      "note_on channel=0 note=51 velocity=109 time=0.03125\n",
      "note_off channel=0 note=51 velocity=64 time=0\n",
      "note_on channel=0 note=51 velocity=70 time=0.234375\n",
      "note_off channel=0 note=51 velocity=64 time=0\n",
      "control_change channel=0 control=4 value=102 time=0.109375\n",
      "control_change channel=0 control=4 value=10 time=0\n",
      "control_change channel=0 control=4 value=3 time=0.020833333333333332\n",
      "control_change channel=0 control=4 value=1 time=0.020833333333333332\n",
      "control_change channel=0 control=4 value=25 time=0.03645833333333333\n",
      "control_change channel=0 control=4 value=25 time=0.010416666666666666\n",
      "note_on channel=0 note=44 velocity=108 time=0.015625\n",
      "note_on channel=0 note=38 velocity=125 time=0.03645833333333333\n",
      "note_off channel=0 note=38 velocity=64 time=0\n",
      "note_on channel=0 note=51 velocity=120 time=0.005208333333333333\n",
      "note_off channel=0 note=51 velocity=64 time=0\n",
      "note_off channel=0 note=44 velocity=64 time=0.08333333333333333\n",
      "note_on channel=0 note=38 velocity=122 time=0.140625\n",
      "note_off channel=0 note=38 velocity=64 time=0\n",
      "note_on channel=0 note=51 velocity=91 time=0.010416666666666666\n",
      "note_off channel=0 note=51 velocity=64 time=0\n",
      "note_on channel=0 note=36 velocity=79 time=0.25\n",
      "note_off channel=0 note=36 velocity=64 time=0\n",
      "note_on channel=0 note=51 velocity=109 time=0.020833333333333332\n",
      "<meta message track_name name='05 16th Ride\\x00' time=0>\n",
      "<meta message time_signature numerator=4 denominator=4 clocks_per_click=36 notated_32nd_notes_per_beat=8 time=0>\n",
      "<meta message time_signature numerator=4 denominator=4 clocks_per_click=36 notated_32nd_notes_per_beat=8 time=0>\n",
      "control_change channel=0 control=4 value=127 time=0\n",
      "note_on channel=0 note=36 velocity=68 time=0\n",
      "note_off channel=0 note=36 velocity=64 time=0\n",
      "note_on channel=0 note=51 velocity=120 time=0\n",
      "note_off channel=0 note=51 velocity=64 time=0\n",
      "note_on channel=0 note=75 velocity=9 time=0\n",
      "note_on channel=0 note=51 velocity=92 time=0.22395833333333331\n",
      "note_off channel=0 note=51 velocity=64 time=0\n",
      "control_change channel=0 control=4 value=127 time=0.11979166666666666\n",
      "control_change channel=0 control=4 value=9 time=0\n",
      "control_change channel=0 control=4 value=2 time=0.020833333333333332\n",
      "note_on channel=0 note=51 velocity=96 time=0.010416666666666666\n",
      "note_off channel=0 note=51 velocity=64 time=0\n",
      "control_change channel=0 control=4 value=0 time=0.005208333333333333\n",
      "control_change channel=0 control=4 value=79 time=0.0625\n",
      "control_change channel=0 control=4 value=127 time=0.005208333333333333\n",
      "note_on channel=0 note=44 velocity=117 time=0\n",
      "note_on channel=0 note=51 velocity=92 time=0.05208333333333333\n",
      "note_off channel=0 note=51 velocity=64 time=0\n",
      "note_off channel=0 note=44 velocity=64 time=0.06770833333333333\n",
      "note_on channel=0 note=40 velocity=124 time=0.15104166666666666\n",
      "note_off channel=0 note=40 velocity=64 time=0\n",
      "note_on channel=0 note=51 velocity=108 time=0.010416666666666666\n",
      "note_off channel=0 note=51 velocity=64 time=0\n",
      "note_on channel=0 note=51 velocity=103 time=0.265625\n",
      "note_off channel=0 note=51 velocity=64 time=0\n",
      "note_on channel=0 note=51 velocity=94 time=0.2552083333333333\n",
      "note_off channel=0 note=51 velocity=64 time=0\n",
      "control_change channel=0 control=4 value=127 time=0.13541666666666666\n",
      "control_change channel=0 control=4 value=14 time=0\n",
      "control_change channel=0 control=4 value=12 time=0.005208333333333333\n",
      "control_change channel=0 control=4 value=3 time=0.015625\n",
      "control_change channel=0 control=4 value=0 time=0.020833333333333332\n",
      "control_change channel=0 control=4 value=0 time=0.06770833333333333\n",
      "control_change channel=0 control=4 value=122 time=0\n",
      "note_on channel=0 note=44 velocity=117 time=0\n",
      "note_on channel=0 note=51 velocity=107 time=0\n",
      "note_off channel=0 note=51 velocity=64 time=0\n",
      "control_change channel=0 control=4 value=127 time=0.005208333333333333\n",
      "note_on channel=0 note=47 velocity=99 time=0\n",
      "note_off channel=0 note=47 velocity=64 time=0\n",
      "note_off channel=0 note=44 velocity=64 time=0.11979166666666666\n",
      "note_on channel=0 note=47 velocity=99 time=0.125\n",
      "note_off channel=0 note=47 velocity=64 time=0\n",
      "note_on channel=0 note=51 velocity=93 time=0.005208333333333333\n",
      "note_off channel=0 note=51 velocity=64 time=0\n",
      "note_on channel=0 note=36 velocity=68 time=0.23958333333333331\n",
      "<meta message track_name name='06 16th Ride\\x00' time=0>\n",
      "<meta message time_signature numerator=4 denominator=4 clocks_per_click=36 notated_32nd_notes_per_beat=8 time=0>\n",
      "<meta message time_signature numerator=4 denominator=4 clocks_per_click=36 notated_32nd_notes_per_beat=8 time=0>\n",
      "control_change channel=0 control=4 value=127 time=0\n",
      "note_on channel=0 note=75 velocity=9 time=0\n",
      "note_on channel=0 note=51 velocity=110 time=0.005208333333333333\n",
      "note_off channel=0 note=51 velocity=64 time=0\n",
      "note_on channel=0 note=36 velocity=68 time=0.026041666666666664\n",
      "note_off channel=0 note=36 velocity=64 time=0\n",
      "note_on channel=0 note=51 velocity=83 time=0.22916666666666666\n",
      "note_off channel=0 note=51 velocity=64 time=0\n",
      "note_on channel=0 note=51 velocity=96 time=0.140625\n",
      "note_off channel=0 note=51 velocity=64 time=0\n",
      "control_change channel=0 control=4 value=127 time=0.015625\n",
      "control_change channel=0 control=4 value=14 time=0\n",
      "control_change channel=0 control=4 value=5 time=0.020833333333333332\n",
      "control_change channel=0 control=4 value=2 time=0.015625\n",
      "control_change channel=0 control=4 value=33 time=0.041666666666666664\n",
      "control_change channel=0 control=4 value=52 time=0.005208333333333333\n",
      "note_on channel=0 note=44 velocity=103 time=0\n",
      "control_change channel=0 control=4 value=127 time=0.005208333333333333\n",
      "note_on channel=0 note=39 velocity=119 time=0\n",
      "note_off channel=0 note=39 velocity=64 time=0\n",
      "note_on channel=0 note=51 velocity=88 time=0.015625\n",
      "note_off channel=0 note=51 velocity=64 time=0\n",
      "note_off channel=0 note=44 velocity=64 time=0.109375\n",
      "note_on channel=0 note=38 velocity=117 time=0.125\n",
      "note_off channel=0 note=38 velocity=64 time=0\n",
      "note_on channel=0 note=51 velocity=110 time=0.015625\n",
      "note_off channel=0 note=51 velocity=64 time=0\n",
      "control_change channel=0 control=4 value=127 time=0.22916666666666666\n",
      "control_change channel=0 control=4 value=116 time=0\n",
      "note_on channel=0 note=36 velocity=68 time=0.005208333333333333\n",
      "note_off channel=0 note=36 velocity=64 time=0\n",
      "note_on channel=0 note=51 velocity=110 time=0.005208333333333333\n",
      "note_off channel=0 note=51 velocity=64 time=0\n",
      "control_change channel=0 control=4 value=127 time=0.005208333333333333\n",
      "note_on channel=0 note=51 velocity=100 time=0.2552083333333333\n",
      "note_off channel=0 note=51 velocity=64 time=0\n",
      "control_change channel=0 control=4 value=127 time=0.13020833333333331\n",
      "control_change channel=0 control=4 value=14 time=0\n",
      "control_change channel=0 control=4 value=12 time=0.005208333333333333\n",
      "control_change channel=0 control=4 value=3 time=0.015625\n",
      "control_change channel=0 control=4 value=1 time=0.026041666666666664\n",
      "control_change channel=0 control=4 value=25 time=0.041666666666666664\n",
      "control_change channel=0 control=4 value=127 time=0.005208333333333333\n",
      "note_on channel=0 note=44 velocity=105 time=0\n",
      "note_on channel=0 note=39 velocity=118 time=0.005208333333333333\n",
      "note_off channel=0 note=39 velocity=64 time=0\n",
      "note_on channel=0 note=51 velocity=112 time=0.005208333333333333\n",
      "note_off channel=0 note=51 velocity=64 time=0\n",
      "note_off channel=0 note=44 velocity=64 time=0.11979166666666666\n",
      "note_on channel=0 note=51 velocity=97 time=0.13020833333333331\n",
      "note_off channel=0 note=51 velocity=64 time=0\n",
      "control_change channel=0 control=4 value=127 time=0.20833333333333331\n",
      "control_change channel=0 control=4 value=112 time=0\n",
      "note_on channel=0 note=36 velocity=68 time=0.015625\n",
      "<meta message track_name name='07 16th Ride\\x00' time=0>\n",
      "<meta message time_signature numerator=4 denominator=4 clocks_per_click=36 notated_32nd_notes_per_beat=8 time=0>\n",
      "<meta message time_signature numerator=4 denominator=4 clocks_per_click=36 notated_32nd_notes_per_beat=8 time=0>\n",
      "control_change channel=0 control=4 value=127 time=0\n",
      "note_on channel=0 note=36 velocity=70 time=0\n",
      "note_on channel=0 note=75 velocity=9 time=0\n",
      "note_on channel=0 note=51 velocity=113 time=0.015625\n",
      "note_off channel=0 note=51 velocity=64 time=0\n",
      "note_off channel=0 note=36 velocity=64 time=0.140625\n",
      "note_on channel=0 note=51 velocity=74 time=0.13541666666666666\n",
      "note_off channel=0 note=51 velocity=64 time=0\n",
      "control_change channel=0 control=4 value=127 time=0.140625\n",
      "control_change channel=0 control=4 value=15 time=0\n",
      "note_on channel=0 note=51 velocity=87 time=0\n",
      "note_off channel=0 note=51 velocity=64 time=0\n",
      "control_change channel=0 control=4 value=5 time=0.020833333333333332\n",
      "control_change channel=0 control=4 value=2 time=0.020833333333333332\n",
      "control_change channel=0 control=4 value=68 time=0.041666666666666664\n",
      "control_change channel=0 control=4 value=127 time=0.005208333333333333\n",
      "note_on channel=0 note=44 velocity=124 time=0\n",
      "note_on channel=0 note=40 velocity=124 time=0.005208333333333333\n",
      "note_off channel=0 note=40 velocity=64 time=0\n",
      "note_on channel=0 note=51 velocity=73 time=0.03125\n",
      "note_off channel=0 note=51 velocity=64 time=0\n",
      "note_off channel=0 note=44 velocity=64 time=0.09895833333333333\n",
      "note_on channel=0 note=38 velocity=118 time=0.109375\n",
      "note_off channel=0 note=38 velocity=64 time=0\n",
      "note_on channel=0 note=51 velocity=114 time=0.026041666666666664\n",
      "note_off channel=0 note=51 velocity=64 time=0\n",
      "note_on channel=0 note=36 velocity=67 time=0.19791666666666666\n",
      "note_on channel=0 note=51 velocity=104 time=0.03125\n",
      "note_off channel=0 note=51 velocity=64 time=0\n",
      "note_off channel=0 note=36 velocity=64 time=0.11979166666666666\n",
      "note_on channel=0 note=51 velocity=72 time=0.140625\n",
      "note_off channel=0 note=51 velocity=64 time=0\n",
      "control_change channel=0 control=4 value=16 time=0.125\n",
      "control_change channel=0 control=4 value=127 time=0\n",
      "control_change channel=0 control=4 value=14 time=0.005208333333333333\n",
      "control_change channel=0 control=4 value=5 time=0.015625\n",
      "control_change channel=0 control=4 value=2 time=0.020833333333333332\n",
      "control_change channel=0 control=4 value=2 time=0.046875\n",
      "note_on channel=0 note=44 velocity=124 time=0\n",
      "control_change channel=0 control=4 value=127 time=0.005208333333333333\n",
      "note_on channel=0 note=40 velocity=124 time=0.005208333333333333\n",
      "note_off channel=0 note=40 velocity=64 time=0\n",
      "note_on channel=0 note=51 velocity=117 time=0.015625\n",
      "note_off channel=0 note=51 velocity=64 time=0\n",
      "note_off channel=0 note=44 velocity=64 time=0.10416666666666666\n",
      "note_on channel=0 note=51 velocity=76 time=0.14583333333333331\n",
      "note_off channel=0 note=51 velocity=64 time=0\n",
      "note_on channel=0 note=36 velocity=69 time=0.20833333333333331\n",
      "<meta message track_name name='08 Fill 1\\x00' time=0>\n",
      "<meta message time_signature numerator=4 denominator=4 clocks_per_click=36 notated_32nd_notes_per_beat=8 time=0>\n",
      "<meta message time_signature numerator=4 denominator=4 clocks_per_click=36 notated_32nd_notes_per_beat=8 time=0>\n",
      "control_change channel=0 control=4 value=127 time=0\n",
      "note_on channel=0 note=36 velocity=100 time=0\n",
      "note_off channel=0 note=36 velocity=64 time=0\n",
      "note_on channel=0 note=75 velocity=9 time=0\n",
      "note_off channel=0 note=75 velocity=64 time=0\n",
      "note_on channel=0 note=51 velocity=116 time=0.005208333333333333\n",
      "note_off channel=0 note=51 velocity=64 time=0\n",
      "note_on channel=0 note=38 velocity=57 time=0.25\n",
      "note_off channel=0 note=38 velocity=64 time=0\n",
      "note_on channel=0 note=38 velocity=79 time=0.10416666666666666\n",
      "note_off channel=0 note=38 velocity=64 time=0\n",
      "note_on channel=0 note=39 velocity=112 time=0.11979166666666666\n",
      "note_off channel=0 note=39 velocity=64 time=0\n",
      "note_on channel=0 note=43 velocity=6 time=0.015625\n",
      "note_off channel=0 note=43 velocity=64 time=0.11458333333333333\n",
      "note_on channel=0 note=39 velocity=114 time=0.10416666666666666\n",
      "note_off channel=0 note=39 velocity=64 time=0\n",
      "note_on channel=0 note=43 velocity=2 time=0.015625\n",
      "note_off channel=0 note=43 velocity=64 time=0.13020833333333331\n",
      "note_on channel=0 note=36 velocity=104 time=0.125\n",
      "note_off channel=0 note=36 velocity=64 time=0\n",
      "note_on channel=0 note=47 velocity=108 time=0.010416666666666666\n",
      "note_off channel=0 note=47 velocity=64 time=0\n",
      "note_on channel=0 note=45 velocity=94 time=0.11979166666666666\n",
      "note_off channel=0 note=45 velocity=64 time=0\n",
      "note_on channel=0 note=47 velocity=74 time=0.125\n",
      "note_off channel=0 note=47 velocity=64 time=0\n",
      "note_on channel=0 note=45 velocity=94 time=0.109375\n",
      "note_off channel=0 note=45 velocity=64 time=0\n",
      "note_on channel=0 note=47 velocity=99 time=0.125\n",
      "note_off channel=0 note=47 velocity=64 time=0\n",
      "note_on channel=0 note=40 velocity=105 time=0.234375\n",
      "note_off channel=0 note=40 velocity=64 time=0\n",
      "note_on channel=0 note=43 velocity=2 time=0.015625\n",
      "note_off channel=0 note=43 velocity=64 time=0.11458333333333333\n",
      "control_change channel=0 control=4 value=127 time=0.16145833333333331\n",
      "<meta message track_name name='09 Fill 2\\x00' time=0>\n",
      "<meta message time_signature numerator=4 denominator=4 clocks_per_click=36 notated_32nd_notes_per_beat=8 time=0>\n",
      "<meta message time_signature numerator=4 denominator=4 clocks_per_click=36 notated_32nd_notes_per_beat=8 time=0>\n",
      "control_change channel=0 control=4 value=127 time=0\n",
      "note_on channel=0 note=75 velocity=9 time=0\n",
      "note_on channel=0 note=51 velocity=110 time=0.005208333333333333\n",
      "note_off channel=0 note=51 velocity=64 time=0\n",
      "note_on channel=0 note=36 velocity=68 time=0.026041666666666664\n",
      "note_off channel=0 note=36 velocity=64 time=0\n",
      "note_on channel=0 note=51 velocity=83 time=0.22916666666666666\n",
      "note_off channel=0 note=51 velocity=64 time=0\n",
      "note_on channel=0 note=51 velocity=96 time=0.140625\n",
      "note_off channel=0 note=51 velocity=64 time=0\n",
      "control_change channel=0 control=4 value=127 time=0.015625\n",
      "control_change channel=0 control=4 value=14 time=0\n",
      "control_change channel=0 control=4 value=5 time=0.020833333333333332\n",
      "control_change channel=0 control=4 value=2 time=0.015625\n",
      "control_change channel=0 control=4 value=33 time=0.041666666666666664\n",
      "control_change channel=0 control=4 value=52 time=0.005208333333333333\n",
      "note_on channel=0 note=44 velocity=103 time=0\n",
      "control_change channel=0 control=4 value=52 time=0.005208333333333333\n",
      "note_on channel=0 note=39 velocity=119 time=0\n",
      "note_off channel=0 note=39 velocity=64 time=0\n",
      "note_on channel=0 note=51 velocity=88 time=0.015625\n",
      "note_off channel=0 note=51 velocity=64 time=0\n",
      "note_off channel=0 note=44 velocity=64 time=0.109375\n",
      "note_on channel=0 note=38 velocity=117 time=0.125\n",
      "note_off channel=0 note=38 velocity=64 time=0\n",
      "note_on channel=0 note=51 velocity=110 time=0.015625\n",
      "note_off channel=0 note=51 velocity=64 time=0\n",
      "control_change channel=0 control=4 value=116 time=0.22916666666666666\n",
      "control_change channel=0 control=4 value=52 time=0\n",
      "note_on channel=0 note=36 velocity=68 time=0.005208333333333333\n",
      "note_off channel=0 note=36 velocity=64 time=0\n",
      "note_on channel=0 note=51 velocity=110 time=0.005208333333333333\n",
      "note_off channel=0 note=51 velocity=64 time=0\n",
      "control_change channel=0 control=4 value=127 time=0.005208333333333333\n",
      "note_on channel=0 note=51 velocity=100 time=0.2552083333333333\n",
      "note_off channel=0 note=51 velocity=64 time=0\n",
      "control_change channel=0 control=4 value=127 time=0.13020833333333331\n",
      "control_change channel=0 control=4 value=14 time=0\n",
      "control_change channel=0 control=4 value=12 time=0.005208333333333333\n",
      "control_change channel=0 control=4 value=3 time=0.015625\n",
      "control_change channel=0 control=4 value=1 time=0.026041666666666664\n",
      "control_change channel=0 control=4 value=25 time=0.041666666666666664\n",
      "control_change channel=0 control=4 value=127 time=0.005208333333333333\n",
      "note_on channel=0 note=44 velocity=105 time=0\n",
      "note_on channel=0 note=39 velocity=118 time=0.005208333333333333\n",
      "note_off channel=0 note=39 velocity=64 time=0\n",
      "note_on channel=0 note=51 velocity=112 time=0.005208333333333333\n",
      "note_off channel=0 note=51 velocity=64 time=0\n",
      "note_off channel=0 note=44 velocity=64 time=0.11979166666666666\n",
      "note_on channel=0 note=51 velocity=97 time=0.13020833333333331\n",
      "note_off channel=0 note=51 velocity=64 time=0\n",
      "control_change channel=0 control=4 value=112 time=0.20833333333333331\n",
      "control_change channel=0 control=4 value=127 time=0\n",
      "note_on channel=0 note=36 velocity=68 time=0.015625\n",
      "<meta message track_name name='10 Fill 3\\x00' time=0>\n",
      "<meta message time_signature numerator=4 denominator=4 clocks_per_click=36 notated_32nd_notes_per_beat=8 time=0>\n",
      "<meta message time_signature numerator=4 denominator=4 clocks_per_click=36 notated_32nd_notes_per_beat=8 time=0>\n",
      "control_change channel=0 control=4 value=127 time=0\n",
      "note_on channel=0 note=75 velocity=9 time=0\n",
      "note_off channel=0 note=75 velocity=64 time=0\n",
      "note_on channel=0 note=36 velocity=127 time=0.005208333333333333\n",
      "note_on channel=0 note=51 velocity=123 time=0.010416666666666666\n",
      "note_off channel=0 note=36 velocity=64 time=0.020833333333333332\n",
      "note_off channel=0 note=51 velocity=64 time=0.010416666666666666\n",
      "note_on channel=0 note=47 velocity=88 time=0.22395833333333331\n",
      "note_off channel=0 note=47 velocity=64 time=0.03125\n",
      "note_on channel=0 note=45 velocity=108 time=0.07291666666666666\n",
      "note_off channel=0 note=45 velocity=64 time=0.03125\n",
      "note_on channel=0 note=47 velocity=111 time=0.08854166666666666\n",
      "note_off channel=0 note=47 velocity=64 time=0.026041666666666664\n",
      "note_on channel=0 note=43 velocity=99 time=0.22395833333333331\n",
      "note_off channel=0 note=43 velocity=64 time=0.03125\n",
      "note_on channel=0 note=40 velocity=127 time=0.21875\n",
      "note_off channel=0 note=40 velocity=64 time=0.03125\n",
      "note_on channel=0 note=36 velocity=101 time=0.21875\n",
      "note_off channel=0 note=36 velocity=64 time=0.03125\n",
      "note_on channel=0 note=37 velocity=67 time=0.21354166666666666\n",
      "note_on channel=0 note=40 velocity=127 time=0\n",
      "note_off channel=0 note=37 velocity=64 time=0.03125\n",
      "note_off channel=0 note=40 velocity=64 time=0\n",
      "note_on channel=0 note=36 velocity=101 time=0.21875\n",
      "note_off channel=0 note=36 velocity=64 time=0.03125\n",
      "note_on channel=0 note=40 velocity=127 time=0.21875\n",
      "<meta message track_name name='01 8th Hat\\x00' time=0>\n",
      "<meta message time_signature numerator=4 denominator=4 clocks_per_click=36 notated_32nd_notes_per_beat=8 time=0>\n",
      "<meta message time_signature numerator=4 denominator=4 clocks_per_click=36 notated_32nd_notes_per_beat=8 time=0>\n",
      "control_change channel=0 control=4 value=127 time=0\n",
      "note_on channel=0 note=36 velocity=63 time=0\n",
      "note_off channel=0 note=36 velocity=64 time=0\n",
      "note_on channel=0 note=66 velocity=112 time=0\n",
      "note_off channel=0 note=66 velocity=64 time=0.03645833333333333\n",
      "control_change channel=0 control=4 value=127 time=0.296875\n",
      "control_change channel=0 control=4 value=14 time=0\n",
      "control_change channel=0 control=4 value=12 time=0.005208333333333333\n",
      "control_change channel=0 control=4 value=4 time=0.020833333333333332\n",
      "control_change channel=0 control=4 value=3 time=0.020833333333333332\n",
      "control_change channel=0 control=4 value=3 time=0.057291666666666664\n",
      "control_change channel=0 control=4 value=21 time=0.010416666666666666\n",
      "note_on channel=0 note=44 velocity=96 time=0\n",
      "control_change channel=0 control=4 value=127 time=0.005208333333333333\n",
      "note_on channel=0 note=66 velocity=113 time=0.015625\n",
      "note_on channel=0 note=36 velocity=63 time=0.005208333333333333\n",
      "note_off channel=0 note=36 velocity=64 time=0\n",
      "note_on channel=0 note=39 velocity=95 time=0.010416666666666666\n",
      "note_off channel=0 note=39 velocity=64 time=0\n",
      "note_off channel=0 note=66 velocity=64 time=0.026041666666666664\n",
      "note_off channel=0 note=44 velocity=64 time=0.078125\n",
      "note_on channel=0 note=66 velocity=71 time=0.2552083333333333\n",
      "note_off channel=0 note=66 velocity=64 time=0.03645833333333333\n",
      "control_change channel=0 control=4 value=127 time=0.07291666666666666\n",
      "control_change channel=0 control=4 value=118 time=0\n",
      "note_on channel=0 note=36 velocity=63 time=0.010416666666666666\n",
      "note_off channel=0 note=36 velocity=64 time=0\n",
      "control_change channel=0 control=4 value=127 time=0.005208333333333333\n",
      "note_on channel=0 note=66 velocity=106 time=0.020833333333333332\n",
      "note_off channel=0 note=66 velocity=64 time=0.03645833333333333\n",
      "control_change channel=0 control=4 value=127 time=0.3125\n",
      "control_change channel=0 control=4 value=13 time=0\n",
      "control_change channel=0 control=4 value=4 time=0.026041666666666664\n",
      "control_change channel=0 control=4 value=2 time=0.026041666666666664\n",
      "control_change channel=0 control=4 value=16 time=0.05208333333333333\n",
      "note_on channel=0 note=44 velocity=80 time=0.005208333333333333\n",
      "control_change channel=0 control=4 value=16 time=0.005208333333333333\n",
      "control_change channel=0 control=4 value=124 time=0.005208333333333333\n",
      "control_change channel=0 control=4 value=127 time=0.005208333333333333\n",
      "note_on channel=0 note=36 velocity=63 time=0.005208333333333333\n",
      "note_off channel=0 note=36 velocity=64 time=0\n",
      "note_on channel=0 note=39 velocity=90 time=0.015625\n",
      "note_off channel=0 note=39 velocity=64 time=0\n",
      "note_on channel=0 note=66 velocity=114 time=0.010416666666666666\n",
      "note_off channel=0 note=66 velocity=64 time=0.03645833333333333\n",
      "note_off channel=0 note=44 velocity=64 time=0.06770833333333333\n",
      "note_on channel=0 note=66 velocity=69 time=0.26041666666666663\n",
      "note_off channel=0 note=66 velocity=64 time=0.03645833333333333\n",
      "control_change channel=0 control=4 value=127 time=0.041666666666666664\n",
      "control_change channel=0 control=4 value=103 time=0\n",
      "control_change channel=0 control=4 value=126 time=0.026041666666666664\n",
      "control_change channel=0 control=4 value=127 time=0.005208333333333333\n",
      "note_on channel=0 note=36 velocity=63 time=0.010416666666666666\n",
      "<meta message track_name name='02 8th Snare\\x00' time=0>\n",
      "<meta message time_signature numerator=4 denominator=4 clocks_per_click=36 notated_32nd_notes_per_beat=8 time=0>\n",
      "<meta message time_signature numerator=4 denominator=4 clocks_per_click=36 notated_32nd_notes_per_beat=8 time=0>\n",
      "control_change channel=0 control=4 value=127 time=0\n",
      "note_on channel=0 note=36 velocity=67 time=0.005208333333333333\n",
      "note_off channel=0 note=36 velocity=64 time=0\n",
      "note_on channel=0 note=40 velocity=58 time=0\n",
      "note_off channel=0 note=40 velocity=64 time=0\n",
      "control_change channel=0 control=4 value=127 time=0.3020833333333333\n",
      "control_change channel=0 control=4 value=15 time=0\n",
      "control_change channel=0 control=4 value=13 time=0.005208333333333333\n",
      "control_change channel=0 control=4 value=7 time=0.020833333333333332\n",
      "control_change channel=0 control=4 value=7 time=0.057291666666666664\n",
      "control_change channel=0 control=4 value=72 time=0.005208333333333333\n",
      "control_change channel=0 control=4 value=109 time=0.005208333333333333\n",
      "control_change channel=0 control=4 value=109 time=0.005208333333333333\n",
      "note_on channel=0 note=36 velocity=67 time=0.0625\n",
      "note_off channel=0 note=36 velocity=64 time=0\n",
      "note_on channel=0 note=44 velocity=109 time=0\n",
      "note_on channel=0 note=39 velocity=94 time=0.03125\n",
      "note_off channel=0 note=39 velocity=64 time=0\n",
      "note_on channel=0 note=40 velocity=69 time=0\n",
      "note_off channel=0 note=40 velocity=64 time=0\n",
      "note_off channel=0 note=44 velocity=64 time=0.11979166666666666\n",
      "note_on channel=0 note=40 velocity=40 time=0.1875\n",
      "note_off channel=0 note=40 velocity=64 time=0\n",
      "note_on channel=0 note=36 velocity=67 time=0.16145833333333331\n",
      "note_off channel=0 note=36 velocity=64 time=0\n",
      "note_on channel=0 note=40 velocity=70 time=0.005208333333333333\n",
      "note_off channel=0 note=40 velocity=64 time=0\n",
      "control_change channel=0 control=4 value=109 time=0.3333333333333333\n",
      "control_change channel=0 control=4 value=127 time=0\n",
      "control_change channel=0 control=4 value=13 time=0.005208333333333333\n",
      "control_change channel=0 control=4 value=6 time=0.020833333333333332\n",
      "control_change channel=0 control=4 value=21 time=0.057291666666666664\n",
      "control_change channel=0 control=4 value=63 time=0.010416666666666666\n",
      "control_change channel=0 control=4 value=127 time=0.005208333333333333\n",
      "note_on channel=0 note=36 velocity=67 time=0.05208333333333333\n",
      "note_off channel=0 note=36 velocity=64 time=0\n",
      "note_on channel=0 note=44 velocity=109 time=0\n",
      "note_on channel=0 note=39 velocity=92 time=0.03125\n",
      "note_off channel=0 note=39 velocity=64 time=0\n",
      "note_on channel=0 note=40 velocity=69 time=0\n",
      "note_off channel=0 note=40 velocity=64 time=0\n",
      "note_off channel=0 note=44 velocity=64 time=0.10416666666666666\n",
      "note_on channel=0 note=40 velocity=45 time=0.21875\n",
      "note_off channel=0 note=40 velocity=64 time=0\n",
      "note_on channel=0 note=36 velocity=67 time=0.15104166666666666\n",
      "note_off channel=0 note=36 velocity=64 time=0\n",
      "note_on channel=0 note=40 velocity=57 time=0.015625\n",
      "<meta message track_name name='03 4th Snare \\x00' time=0>\n",
      "<meta message time_signature numerator=4 denominator=4 clocks_per_click=36 notated_32nd_notes_per_beat=8 time=0>\n",
      "<meta message time_signature numerator=4 denominator=4 clocks_per_click=36 notated_32nd_notes_per_beat=8 time=0>\n",
      "control_change channel=0 control=4 value=127 time=0\n",
      "note_on channel=0 note=36 velocity=57 time=0\n",
      "note_off channel=0 note=36 velocity=64 time=0\n",
      "note_on channel=0 note=44 velocity=3 time=0\n",
      "note_on channel=0 note=40 velocity=58 time=0.015625\n",
      "note_off channel=0 note=40 velocity=64 time=0\n",
      "note_off channel=0 note=44 velocity=64 time=0.13541666666666666\n",
      "control_change channel=0 control=4 value=127 time=0.15104166666666666\n",
      "control_change channel=0 control=4 value=13 time=0\n",
      "control_change channel=0 control=4 value=4 time=0.020833333333333332\n",
      "control_change channel=0 control=4 value=1 time=0.026041666666666664\n",
      "control_change channel=0 control=4 value=0 time=0.005208333333333333\n",
      "control_change channel=0 control=4 value=20 time=0.0625\n",
      "control_change channel=0 control=4 value=117 time=0.005208333333333333\n",
      "control_change channel=0 control=4 value=127 time=0.005208333333333333\n",
      "note_on channel=0 note=44 velocity=119 time=0.046875\n",
      "note_on channel=0 note=36 velocity=63 time=0.010416666666666666\n",
      "note_off channel=0 note=36 velocity=64 time=0\n",
      "note_on channel=0 note=40 velocity=116 time=0.020833333333333332\n",
      "note_off channel=0 note=40 velocity=64 time=0\n",
      "note_off channel=0 note=44 velocity=64 time=0.109375\n",
      "control_change channel=0 control=4 value=127 time=0.27604166666666663\n",
      "control_change channel=0 control=4 value=79 time=0\n",
      "control_change channel=0 control=4 value=78 time=0.020833333333333332\n",
      "control_change channel=0 control=4 value=89 time=0.020833333333333332\n",
      "control_change channel=0 control=4 value=117 time=0.020833333333333332\n",
      "control_change channel=0 control=4 value=127 time=0.015625\n",
      "note_on channel=0 note=44 velocity=2 time=0.010416666666666666\n",
      "note_on channel=0 note=36 velocity=63 time=0.005208333333333333\n",
      "note_off channel=0 note=36 velocity=64 time=0\n",
      "note_on channel=0 note=40 velocity=51 time=0.010416666666666666\n",
      "note_off channel=0 note=40 velocity=64 time=0\n",
      "note_off channel=0 note=44 velocity=64 time=0.13020833333333331\n",
      "control_change channel=0 control=4 value=127 time=0.19791666666666666\n",
      "control_change channel=0 control=4 value=12 time=0\n",
      "control_change channel=0 control=4 value=3 time=0.026041666666666664\n",
      "control_change channel=0 control=4 value=0 time=0.020833333333333332\n",
      "control_change channel=0 control=4 value=0 time=0.078125\n",
      "control_change channel=0 control=4 value=18 time=0\n",
      "control_change channel=0 control=4 value=126 time=0.005208333333333333\n",
      "note_on channel=0 note=44 velocity=123 time=0\n",
      "control_change channel=0 control=4 value=127 time=0.005208333333333333\n",
      "note_on channel=0 note=36 velocity=63 time=0.010416666666666666\n",
      "note_off channel=0 note=36 velocity=64 time=0\n",
      "note_on channel=0 note=40 velocity=117 time=0.015625\n",
      "note_off channel=0 note=40 velocity=64 time=0\n",
      "note_off channel=0 note=44 velocity=64 time=0.13020833333333331\n",
      "control_change channel=0 control=4 value=127 time=0.29166666666666663\n",
      "control_change channel=0 control=4 value=62 time=0\n",
      "control_change channel=0 control=4 value=81 time=0.041666666666666664\n",
      "control_change channel=0 control=4 value=98 time=0.020833333333333332\n",
      "control_change channel=0 control=4 value=117 time=0.010416666666666666\n",
      "<meta message track_name name='04 8th Ride\\x00' time=0>\n",
      "<meta message time_signature numerator=4 denominator=4 clocks_per_click=36 notated_32nd_notes_per_beat=8 time=0>\n",
      "<meta message time_signature numerator=4 denominator=4 clocks_per_click=36 notated_32nd_notes_per_beat=8 time=0>\n",
      "control_change channel=0 control=4 value=127 time=0\n",
      "note_on channel=0 note=36 velocity=64 time=0\n",
      "note_off channel=0 note=36 velocity=64 time=0.2864583333333333\n",
      "control_change channel=0 control=4 value=127 time=0.0625\n",
      "control_change channel=0 control=4 value=91 time=0\n",
      "control_change channel=0 control=4 value=80 time=0.005208333333333333\n",
      "control_change channel=0 control=4 value=54 time=0.010416666666666666\n",
      "control_change channel=0 control=4 value=40 time=0.005208333333333333\n",
      "control_change channel=0 control=4 value=25 time=0.010416666666666666\n",
      "control_change channel=0 control=4 value=11 time=0.015625\n",
      "control_change channel=0 control=4 value=5 time=0.020833333333333332\n",
      "control_change channel=0 control=4 value=3 time=0.020833333333333332\n",
      "control_change channel=0 control=4 value=18 time=0.046875\n",
      "note_on channel=0 note=36 velocity=64 time=0\n",
      "control_change channel=0 control=4 value=52 time=0.010416666666666666\n",
      "control_change channel=0 control=4 value=126 time=0.005208333333333333\n",
      "note_on channel=0 note=44 velocity=106 time=0\n",
      "control_change channel=0 control=4 value=127 time=0.005208333333333333\n",
      "note_on channel=0 note=51 velocity=87 time=0.020833333333333332\n",
      "note_off channel=0 note=51 velocity=64 time=0\n",
      "note_on channel=0 note=39 velocity=99 time=0.005208333333333333\n",
      "note_off channel=0 note=44 velocity=64 time=0.10416666666666666\n",
      "note_off channel=0 note=39 velocity=64 time=0.09895833333333333\n",
      "note_off channel=0 note=36 velocity=64 time=0.03645833333333333\n",
      "note_on channel=0 note=51 velocity=51 time=0.07291666666666666\n",
      "note_off channel=0 note=51 velocity=64 time=0\n",
      "note_on channel=0 note=36 velocity=64 time=0.140625\n",
      "note_on channel=0 note=51 velocity=75 time=0.010416666666666666\n",
      "note_off channel=0 note=51 velocity=64 time=0\n",
      "note_off channel=0 note=36 velocity=64 time=0.2708333333333333\n",
      "control_change channel=0 control=4 value=127 time=0.11979166666666666\n"
     ]
    },
    {
     "name": "stdout",
     "output_type": "stream",
     "text": [
      "control_change channel=0 control=4 value=15 time=0\n",
      "control_change channel=0 control=4 value=13 time=0.020833333333333332\n",
      "control_change channel=0 control=4 value=5 time=0.026041666666666664\n",
      "control_change channel=0 control=4 value=18 time=0.03125\n",
      "note_on channel=0 note=36 velocity=64 time=0\n",
      "note_on channel=0 note=44 velocity=63 time=0.005208333333333333\n",
      "control_change channel=0 control=4 value=68 time=0.010416666666666666\n",
      "control_change channel=0 control=4 value=112 time=0.005208333333333333\n",
      "note_on channel=0 note=39 velocity=99 time=0.015625\n",
      "note_on channel=0 note=51 velocity=75 time=0\n",
      "note_off channel=0 note=51 velocity=64 time=0\n",
      "note_off channel=0 note=44 velocity=64 time=0.11458333333333333\n",
      "note_off channel=0 note=39 velocity=64 time=0.08854166666666666\n",
      "note_off channel=0 note=36 velocity=64 time=0.041666666666666664\n",
      "note_on channel=0 note=51 velocity=57 time=0.09895833333333333\n",
      "note_off channel=0 note=51 velocity=64 time=0\n",
      "note_on channel=0 note=36 velocity=64 time=0.11979166666666666\n",
      "note_on channel=0 note=51 velocity=60 time=0.03125\n",
      "<meta message track_name name='05 8th Snare\\x00' time=0>\n",
      "<meta message time_signature numerator=4 denominator=4 clocks_per_click=36 notated_32nd_notes_per_beat=8 time=0>\n",
      "<meta message time_signature numerator=4 denominator=4 clocks_per_click=36 notated_32nd_notes_per_beat=8 time=0>\n",
      "control_change channel=0 control=4 value=127 time=0\n",
      "note_on channel=0 note=36 velocity=67 time=0\n",
      "note_off channel=0 note=36 velocity=64 time=0\n",
      "note_on channel=0 note=48 velocity=67 time=0\n",
      "note_off channel=0 note=48 velocity=64 time=0\n",
      "control_change channel=0 control=4 value=127 time=0.3333333333333333\n",
      "control_change channel=0 control=4 value=14 time=0\n",
      "control_change channel=0 control=4 value=12 time=0.005208333333333333\n",
      "control_change channel=0 control=4 value=4 time=0.020833333333333332\n",
      "control_change channel=0 control=4 value=3 time=0.020833333333333332\n",
      "control_change channel=0 control=4 value=3 time=0.057291666666666664\n",
      "control_change channel=0 control=4 value=21 time=0.010416666666666666\n",
      "note_on channel=0 note=44 velocity=106 time=0\n",
      "control_change channel=0 control=4 value=127 time=0.005208333333333333\n",
      "note_on channel=0 note=36 velocity=67 time=0.03125\n",
      "note_off channel=0 note=36 velocity=64 time=0\n",
      "note_on channel=0 note=39 velocity=100 time=0.020833333333333332\n",
      "note_off channel=0 note=39 velocity=64 time=0\n",
      "note_on channel=0 note=48 velocity=83 time=0\n",
      "note_off channel=0 note=48 velocity=64 time=0\n",
      "note_off channel=0 note=44 velocity=64 time=0.08333333333333333\n",
      "note_on channel=0 note=48 velocity=46 time=0.2552083333333333\n",
      "note_off channel=0 note=48 velocity=64 time=0\n",
      "control_change channel=0 control=4 value=127 time=0.109375\n",
      "control_change channel=0 control=4 value=118 time=0\n",
      "note_on channel=0 note=36 velocity=67 time=0.010416666666666666\n",
      "note_off channel=0 note=36 velocity=64 time=0\n",
      "control_change channel=0 control=4 value=127 time=0.005208333333333333\n",
      "note_on channel=0 note=48 velocity=69 time=0.026041666666666664\n",
      "note_off channel=0 note=48 velocity=64 time=0\n",
      "control_change channel=0 control=4 value=127 time=0.34375\n",
      "control_change channel=0 control=4 value=13 time=0\n",
      "control_change channel=0 control=4 value=4 time=0.026041666666666664\n",
      "control_change channel=0 control=4 value=2 time=0.026041666666666664\n",
      "control_change channel=0 control=4 value=16 time=0.05208333333333333\n",
      "note_on channel=0 note=44 velocity=106 time=0.005208333333333333\n",
      "control_change channel=0 control=4 value=16 time=0.005208333333333333\n",
      "control_change channel=0 control=4 value=124 time=0.005208333333333333\n",
      "control_change channel=0 control=4 value=127 time=0.005208333333333333\n",
      "note_on channel=0 note=36 velocity=67 time=0.005208333333333333\n",
      "note_off channel=0 note=36 velocity=64 time=0\n",
      "note_on channel=0 note=39 velocity=100 time=0.03125\n",
      "note_off channel=0 note=39 velocity=64 time=0\n",
      "note_on channel=0 note=48 velocity=71 time=0.010416666666666666\n",
      "note_off channel=0 note=48 velocity=64 time=0\n",
      "note_off channel=0 note=44 velocity=64 time=0.08854166666666666\n",
      "note_on channel=0 note=48 velocity=45 time=0.26041666666666663\n",
      "note_off channel=0 note=48 velocity=64 time=0\n",
      "control_change channel=0 control=4 value=127 time=0.078125\n",
      "control_change channel=0 control=4 value=103 time=0\n",
      "control_change channel=0 control=4 value=126 time=0.026041666666666664\n",
      "control_change channel=0 control=4 value=127 time=0.005208333333333333\n",
      "note_on channel=0 note=36 velocity=67 time=0.015625\n",
      "<meta message track_name name='06 8th Toms\\x00' time=0>\n",
      "<meta message time_signature numerator=4 denominator=4 clocks_per_click=36 notated_32nd_notes_per_beat=8 time=0>\n",
      "<meta message time_signature numerator=4 denominator=4 clocks_per_click=36 notated_32nd_notes_per_beat=8 time=0>\n",
      "control_change channel=0 control=4 value=127 time=0\n",
      "note_on channel=0 note=41 velocity=99 time=0\n",
      "note_on channel=0 note=45 velocity=94 time=0.005208333333333333\n",
      "note_off channel=0 note=41 velocity=64 time=0.03125\n",
      "note_off channel=0 note=45 velocity=64 time=0.015625\n",
      "control_change channel=0 control=4 value=127 time=0.2864583333333333\n",
      "control_change channel=0 control=4 value=10 time=0\n",
      "control_change channel=0 control=4 value=2 time=0.020833333333333332\n",
      "control_change channel=0 control=4 value=0 time=0.020833333333333332\n",
      "control_change channel=0 control=4 value=0 time=0.078125\n",
      "control_change channel=0 control=4 value=30 time=0\n",
      "control_change channel=0 control=4 value=71 time=0.005208333333333333\n",
      "note_on channel=0 note=33 velocity=123 time=0\n",
      "note_on channel=0 note=44 velocity=121 time=0\n",
      "control_change channel=0 control=4 value=127 time=0.005208333333333333\n",
      "note_off channel=0 note=33 velocity=64 time=0.125\n",
      "note_off channel=0 note=44 velocity=64 time=0\n",
      "note_on channel=0 note=33 velocity=122 time=0.19270833333333331\n",
      "note_off channel=0 note=33 velocity=64 time=0.125\n",
      "control_change channel=0 control=4 value=127 time=0.005208333333333333\n",
      "control_change channel=0 control=4 value=87 time=0\n",
      "control_change channel=0 control=4 value=103 time=0.03125\n",
      "control_change channel=0 control=4 value=127 time=0.015625\n",
      "note_on channel=0 note=41 velocity=100 time=0.36979166666666663\n",
      "note_on channel=0 note=45 velocity=100 time=0\n",
      "control_change channel=0 control=4 value=10 time=0.015625\n",
      "control_change channel=0 control=4 value=127 time=0\n",
      "note_off channel=0 note=41 velocity=64 time=0.015625\n",
      "note_off channel=0 note=45 velocity=64 time=0\n",
      "control_change channel=0 control=4 value=2 time=0.010416666666666666\n",
      "control_change channel=0 control=4 value=0 time=0.015625\n",
      "control_change channel=0 control=4 value=0 time=0.08333333333333333\n",
      "control_change channel=0 control=4 value=0 time=0\n",
      "note_on channel=0 note=41 velocity=85 time=0\n",
      "control_change channel=0 control=4 value=127 time=0.005208333333333333\n",
      "note_on channel=0 note=33 velocity=123 time=0\n",
      "note_on channel=0 note=44 velocity=121 time=0\n",
      "note_off channel=0 note=41 velocity=64 time=0.03125\n",
      "note_off channel=0 note=33 velocity=64 time=0.10416666666666666\n",
      "note_off channel=0 note=44 velocity=64 time=0\n",
      "control_change channel=0 control=4 value=127 time=0.3125\n",
      "control_change channel=0 control=4 value=82 time=0\n",
      "control_change channel=0 control=4 value=95 time=0.046875\n",
      "control_change channel=0 control=4 value=120 time=0.020833333333333332\n",
      "<meta message track_name name='07 8th Toms\\x00' time=0>\n",
      "<meta message time_signature numerator=4 denominator=4 clocks_per_click=36 notated_32nd_notes_per_beat=8 time=0>\n",
      "<meta message time_signature numerator=4 denominator=4 clocks_per_click=36 notated_32nd_notes_per_beat=8 time=0>\n",
      "control_change channel=0 control=4 value=127 time=0\n",
      "note_on channel=0 note=41 velocity=99 time=0\n",
      "note_on channel=0 note=45 velocity=94 time=0.005208333333333333\n",
      "note_off channel=0 note=41 velocity=64 time=0.03125\n",
      "note_off channel=0 note=45 velocity=64 time=0.015625\n",
      "control_change channel=0 control=4 value=127 time=0.2864583333333333\n",
      "control_change channel=0 control=4 value=10 time=0\n",
      "control_change channel=0 control=4 value=2 time=0.020833333333333332\n",
      "control_change channel=0 control=4 value=0 time=0.020833333333333332\n",
      "control_change channel=0 control=4 value=0 time=0.078125\n",
      "control_change channel=0 control=4 value=30 time=0\n",
      "control_change channel=0 control=4 value=71 time=0.005208333333333333\n",
      "note_on channel=0 note=33 velocity=123 time=0\n",
      "note_on channel=0 note=44 velocity=121 time=0\n",
      "control_change channel=0 control=4 value=127 time=0.005208333333333333\n",
      "note_on channel=0 note=39 velocity=98 time=0.015625\n",
      "note_off channel=0 note=39 velocity=64 time=0.041666666666666664\n",
      "note_off channel=0 note=33 velocity=64 time=0.06770833333333333\n",
      "note_off channel=0 note=44 velocity=64 time=0\n",
      "control_change channel=0 control=4 value=127 time=0.32291666666666663\n",
      "control_change channel=0 control=4 value=87 time=0\n",
      "control_change channel=0 control=4 value=103 time=0.03125\n",
      "control_change channel=0 control=4 value=127 time=0.015625\n",
      "note_on channel=0 note=41 velocity=100 time=0.36979166666666663\n",
      "note_on channel=0 note=45 velocity=100 time=0\n",
      "control_change channel=0 control=4 value=10 time=0.015625\n",
      "control_change channel=0 control=4 value=127 time=0\n",
      "note_off channel=0 note=41 velocity=64 time=0.015625\n",
      "note_off channel=0 note=45 velocity=64 time=0\n",
      "control_change channel=0 control=4 value=2 time=0.010416666666666666\n",
      "control_change channel=0 control=4 value=0 time=0.015625\n",
      "control_change channel=0 control=4 value=0 time=0.08333333333333333\n",
      "control_change channel=0 control=4 value=0 time=0\n",
      "note_on channel=0 note=41 velocity=85 time=0\n",
      "control_change channel=0 control=4 value=127 time=0.005208333333333333\n",
      "note_on channel=0 note=33 velocity=123 time=0\n",
      "note_on channel=0 note=44 velocity=121 time=0\n",
      "note_on channel=0 note=39 velocity=106 time=0.005208333333333333\n",
      "note_off channel=0 note=41 velocity=64 time=0.026041666666666664\n",
      "note_off channel=0 note=39 velocity=64 time=0.015625\n",
      "note_off channel=0 note=33 velocity=64 time=0.08854166666666666\n",
      "note_off channel=0 note=44 velocity=64 time=0\n",
      "control_change channel=0 control=4 value=127 time=0.3125\n",
      "control_change channel=0 control=4 value=82 time=0\n",
      "control_change channel=0 control=4 value=95 time=0.046875\n",
      "control_change channel=0 control=4 value=120 time=0.020833333333333332\n",
      "<meta message track_name name='08 Fill 1\\x00' time=0>\n",
      "<meta message time_signature numerator=4 denominator=4 clocks_per_click=36 notated_32nd_notes_per_beat=8 time=0>\n",
      "<meta message time_signature numerator=4 denominator=4 clocks_per_click=36 notated_32nd_notes_per_beat=8 time=0>\n",
      "control_change channel=0 control=4 value=127 time=0\n",
      "note_on channel=0 note=36 velocity=67 time=0.010416666666666666\n",
      "note_off channel=0 note=36 velocity=64 time=0\n",
      "note_on channel=0 note=40 velocity=127 time=0.3177083333333333\n",
      "note_off channel=0 note=40 velocity=64 time=0\n",
      "control_change channel=0 control=4 value=127 time=0.010416666666666666\n",
      "control_change channel=0 control=4 value=80 time=0\n",
      "control_change channel=0 control=4 value=54 time=0.010416666666666666\n",
      "control_change channel=0 control=4 value=35 time=0.010416666666666666\n",
      "control_change channel=0 control=4 value=35 time=0.010416666666666666\n",
      "control_change channel=0 control=4 value=22 time=0.020833333333333332\n",
      "control_change channel=0 control=4 value=3 time=0.020833333333333332\n",
      "control_change channel=0 control=4 value=2 time=0.026041666666666664\n",
      "control_change channel=0 control=4 value=21 time=0.03645833333333333\n",
      "control_change channel=0 control=4 value=51 time=0.005208333333333333\n",
      "control_change channel=0 control=4 value=104 time=0.005208333333333333\n",
      "note_on channel=0 note=44 velocity=101 time=0\n",
      "note_on channel=0 note=36 velocity=67 time=0.03645833333333333\n",
      "note_off channel=0 note=36 velocity=64 time=0\n",
      "note_on channel=0 note=40 velocity=48 time=0\n",
      "note_off channel=0 note=40 velocity=64 time=0\n",
      "note_off channel=0 note=44 velocity=64 time=0.09895833333333333\n",
      "note_on channel=0 note=40 velocity=40 time=0.10416666666666666\n",
      "note_off channel=0 note=40 velocity=64 time=0\n",
      "note_on channel=0 note=40 velocity=58 time=0.14583333333333331\n",
      "note_off channel=0 note=40 velocity=64 time=0\n",
      "control_change channel=0 control=4 value=94 time=0.09895833333333333\n",
      "control_change channel=0 control=4 value=104 time=0\n",
      "control_change channel=0 control=4 value=114 time=0.026041666666666664\n",
      "control_change channel=0 control=4 value=127 time=0.015625\n",
      "note_on channel=0 note=36 velocity=67 time=0.005208333333333333\n",
      "note_off channel=0 note=36 velocity=64 time=0\n",
      "note_on channel=0 note=40 velocity=127 time=0.010416666666666666\n",
      "note_off channel=0 note=40 velocity=64 time=0\n",
      "control_change channel=0 control=4 value=127 time=0.36979166666666663\n",
      "control_change channel=0 control=4 value=16 time=0\n",
      "control_change channel=0 control=4 value=13 time=0.005208333333333333\n",
      "control_change channel=0 control=4 value=4 time=0.020833333333333332\n",
      "control_change channel=0 control=4 value=1 time=0.026041666666666664\n",
      "control_change channel=0 control=4 value=46 time=0.0625\n",
      "note_on channel=0 note=44 velocity=117 time=0.005208333333333333\n",
      "control_change channel=0 control=4 value=46 time=0.005208333333333333\n",
      "note_on channel=0 note=36 velocity=65 time=0.010416666666666666\n",
      "note_off channel=0 note=36 velocity=64 time=0\n",
      "note_off channel=0 note=44 velocity=64 time=0.13541666666666666\n",
      "control_change channel=0 control=4 value=46 time=0.3177083333333333\n",
      "<meta message track_name name='09 Fill 2\\x00' time=0>\n",
      "<meta message time_signature numerator=4 denominator=4 clocks_per_click=36 notated_32nd_notes_per_beat=8 time=0>\n",
      "<meta message time_signature numerator=4 denominator=4 clocks_per_click=36 notated_32nd_notes_per_beat=8 time=0>\n",
      "control_change channel=0 control=4 value=127 time=0\n",
      "note_on channel=0 note=36 velocity=80 time=0\n",
      "note_off channel=0 note=36 velocity=64 time=0.010416666666666666\n",
      "note_on channel=0 note=38 velocity=112 time=0.30729166666666663\n",
      "note_off channel=0 note=38 velocity=64 time=0\n",
      "control_change channel=0 control=4 value=127 time=0.03125\n",
      "control_change channel=0 control=4 value=15 time=0\n",
      "control_change channel=0 control=4 value=12 time=0.005208333333333333\n",
      "control_change channel=0 control=4 value=4 time=0.020833333333333332\n",
      "control_change channel=0 control=4 value=1 time=0.020833333333333332\n",
      "control_change channel=0 control=4 value=21 time=0.0625\n",
      "control_change channel=0 control=4 value=52 time=0.005208333333333333\n",
      "control_change channel=0 control=4 value=127 time=0.005208333333333333\n",
      "note_on channel=0 note=44 velocity=107 time=0\n",
      "note_on channel=0 note=36 velocity=62 time=0.020833333333333332\n",
      "note_off channel=0 note=36 velocity=64 time=0\n",
      "note_on channel=0 note=38 velocity=15 time=0.07291666666666666\n",
      "note_off channel=0 note=38 velocity=64 time=0\n",
      "note_off channel=0 note=44 velocity=64 time=0.05208333333333333\n",
      "note_on channel=0 note=38 velocity=42 time=0.24479166666666666\n",
      "note_off channel=0 note=38 velocity=64 time=0\n",
      "control_change channel=0 control=4 value=127 time=0.078125\n",
      "control_change channel=0 control=4 value=84 time=0\n",
      "control_change channel=0 control=4 value=94 time=0.026041666666666664\n",
      "control_change channel=0 control=4 value=114 time=0.015625\n",
      "note_on channel=0 note=36 velocity=10 time=0.005208333333333333\n",
      "note_off channel=0 note=36 velocity=64 time=0\n",
      "note_on channel=0 note=36 velocity=52 time=0.005208333333333333\n",
      "note_off channel=0 note=36 velocity=64 time=0\n",
      "control_change channel=0 control=4 value=127 time=0.005208333333333333\n",
      "note_on channel=0 note=38 velocity=112 time=0.015625\n",
      "note_off channel=0 note=38 velocity=64 time=0\n",
      "control_change channel=0 control=4 value=127 time=0.35416666666666663\n",
      "control_change channel=0 control=4 value=11 time=0\n",
      "note_on channel=0 note=38 velocity=28 time=0\n",
      "note_off channel=0 note=38 velocity=64 time=0\n",
      "control_change channel=0 control=4 value=2 time=0.026041666666666664\n",
      "control_change channel=0 control=4 value=0 time=0.020833333333333332\n",
      "control_change channel=0 control=4 value=0 time=0.06770833333333333\n",
      "control_change channel=0 control=4 value=18 time=0\n",
      "note_on channel=0 note=44 velocity=102 time=0.005208333333333333\n",
      "control_change channel=0 control=4 value=127 time=0.005208333333333333\n",
      "note_on channel=0 note=36 velocity=66 time=0\n",
      "note_off channel=0 note=36 velocity=64 time=0\n",
      "note_on channel=0 note=36 velocity=49 time=0.005208333333333333\n",
      "note_off channel=0 note=36 velocity=64 time=0\n",
      "note_on channel=0 note=38 velocity=112 time=0.03125\n",
      "note_off channel=0 note=38 velocity=64 time=0\n",
      "note_off channel=0 note=44 velocity=64 time=0.10416666666666666\n",
      "note_on channel=0 note=38 velocity=30 time=0.15104166666666666\n",
      "note_off channel=0 note=38 velocity=64 time=0\n",
      "control_change channel=0 control=4 value=127 time=0.171875\n",
      "control_change channel=0 control=4 value=84 time=0\n",
      "control_change channel=0 control=4 value=98 time=0.026041666666666664\n",
      "<meta message track_name name='10 Fill 3\\x00' time=0>\n",
      "<meta message time_signature numerator=4 denominator=4 clocks_per_click=36 notated_32nd_notes_per_beat=8 time=0>\n",
      "<meta message time_signature numerator=4 denominator=4 clocks_per_click=36 notated_32nd_notes_per_beat=8 time=0>\n",
      "control_change channel=0 control=4 value=91 time=0\n",
      "note_on channel=0 note=38 velocity=118 time=0.005208333333333333\n",
      "note_off channel=0 note=38 velocity=64 time=0\n",
      "control_change channel=0 control=4 value=115 time=0.010416666666666666\n",
      "note_on channel=0 note=36 velocity=64 time=0\n",
      "note_off channel=0 note=36 velocity=64 time=0\n",
      "control_change channel=0 control=4 value=127 time=0.010416666666666666\n",
      "note_on channel=0 note=38 velocity=46 time=0.20833333333333331\n",
      "note_off channel=0 note=38 velocity=64 time=0\n",
      "note_on channel=0 note=38 velocity=102 time=0.13020833333333331\n",
      "note_off channel=0 note=38 velocity=64 time=0\n",
      "control_change channel=0 control=4 value=127 time=0.026041666666666664\n",
      "control_change channel=0 control=4 value=13 time=0\n",
      "control_change channel=0 control=4 value=4 time=0.020833333333333332\n",
      "control_change channel=0 control=4 value=1 time=0.026041666666666664\n",
      "note_on channel=0 note=44 velocity=108 time=0.0625\n",
      "control_change channel=0 control=4 value=1 time=0.005208333333333333\n",
      "control_change channel=0 control=4 value=33 time=0\n",
      "note_on channel=0 note=36 velocity=64 time=0\n",
      "note_off channel=0 note=36 velocity=64 time=0\n",
      "control_change channel=0 control=4 value=52 time=0.005208333333333333\n",
      "control_change channel=0 control=4 value=127 time=0.005208333333333333\n",
      "note_on channel=0 note=38 velocity=33 time=0.05208333333333333\n",
      "note_off channel=0 note=38 velocity=64 time=0\n",
      "note_off channel=0 note=44 velocity=64 time=0.0625\n",
      "note_on channel=0 note=38 velocity=40 time=0.09895833333333333\n",
      "note_off channel=0 note=38 velocity=64 time=0\n",
      "note_on channel=0 note=38 velocity=64 time=0.14583333333333331\n",
      "note_off channel=0 note=38 velocity=64 time=0\n",
      "control_change channel=0 control=4 value=127 time=0.08333333333333333\n",
      "control_change channel=0 control=4 value=82 time=0\n",
      "control_change channel=0 control=4 value=92 time=0.020833333333333332\n",
      "note_on channel=0 note=36 velocity=13 time=0.020833333333333332\n",
      "note_off channel=0 note=36 velocity=64 time=0\n",
      "control_change channel=0 control=4 value=115 time=0.005208333333333333\n",
      "note_on channel=0 note=36 velocity=53 time=0\n",
      "note_off channel=0 note=36 velocity=64 time=0\n",
      "note_on channel=0 note=38 velocity=118 time=0.005208333333333333\n",
      "note_off channel=0 note=38 velocity=64 time=0\n",
      "control_change channel=0 control=4 value=127 time=0.010416666666666666\n",
      "note_on channel=0 note=38 velocity=32 time=0.21354166666666666\n",
      "note_off channel=0 note=38 velocity=64 time=0\n",
      "note_on channel=0 note=38 velocity=112 time=0.109375\n",
      "note_off channel=0 note=38 velocity=64 time=0\n",
      "control_change channel=0 control=4 value=127 time=0.0625\n",
      "control_change channel=0 control=4 value=16 time=0\n",
      "control_change channel=0 control=4 value=13 time=0.005208333333333333\n",
      "control_change channel=0 control=4 value=4 time=0.020833333333333332\n",
      "control_change channel=0 control=4 value=1 time=0.020833333333333332\n",
      "note_on channel=0 note=44 velocity=105 time=0.041666666666666664\n",
      "note_on channel=0 note=36 velocity=49 time=0.005208333333333333\n",
      "note_off channel=0 note=36 velocity=64 time=0\n",
      "note_on channel=0 note=38 velocity=38 time=0.005208333333333333\n",
      "note_off channel=0 note=38 velocity=64 time=0\n",
      "control_change channel=0 control=4 value=1 time=0.015625\n",
      "control_change channel=0 control=4 value=18 time=0\n",
      "control_change channel=0 control=4 value=74 time=0.010416666666666666\n",
      "control_change channel=0 control=4 value=127 time=0.005208333333333333\n",
      "note_off channel=0 note=44 velocity=64 time=0.08854166666666666\n",
      "note_on channel=0 note=38 velocity=55 time=0.08333333333333333\n",
      "note_off channel=0 note=38 velocity=64 time=0\n",
      "note_on channel=0 note=38 velocity=65 time=0.140625\n",
      "note_off channel=0 note=38 velocity=64 time=0\n",
      "control_change channel=0 control=4 value=127 time=0.11979166666666666\n",
      "control_change channel=0 control=4 value=78 time=0\n",
      "control_change channel=0 control=4 value=76 time=0.005208333333333333\n",
      "note_on channel=0 note=38 velocity=118 time=0.020833333333333332\n",
      "<meta message track_name name='01 8th Perc\\x00' time=0>\n",
      "<meta message time_signature numerator=4 denominator=4 clocks_per_click=36 notated_32nd_notes_per_beat=8 time=0>\n",
      "<meta message time_signature numerator=4 denominator=4 clocks_per_click=36 notated_32nd_notes_per_beat=8 time=0>\n",
      "control_change channel=0 control=4 value=127 time=0\n",
      "note_on channel=0 note=30 velocity=93 time=0.010416666666666666\n",
      "note_off channel=0 note=30 velocity=64 time=0\n",
      "note_on channel=0 note=64 velocity=78 time=0.015625\n",
      "note_off channel=0 note=64 velocity=64 time=0\n",
      "note_on channel=0 note=36 velocity=63 time=0.015625\n",
      "note_off channel=0 note=36 velocity=64 time=0\n",
      "note_on channel=0 note=32 velocity=61 time=0.005208333333333333\n",
      "note_off channel=0 note=32 velocity=64 time=0.10416666666666666\n",
      "note_on channel=0 note=30 velocity=68 time=0.11458333333333333\n",
      "note_off channel=0 note=30 velocity=64 time=0\n",
      "control_change channel=0 control=4 value=127 time=0.15104166666666666\n",
      "control_change channel=0 control=4 value=16 time=0\n",
      "control_change channel=0 control=4 value=14 time=0.005208333333333333\n",
      "control_change channel=0 control=4 value=5 time=0.015625\n",
      "control_change channel=0 control=4 value=3 time=0.015625\n",
      "control_change channel=0 control=4 value=20 time=0.041666666666666664\n",
      "control_change channel=0 control=4 value=78 time=0.005208333333333333\n",
      "note_on channel=0 note=44 velocity=97 time=0\n",
      "control_change channel=0 control=4 value=118 time=0.005208333333333333\n",
      "note_on channel=0 note=30 velocity=76 time=0.010416666666666666\n",
      "note_off channel=0 note=30 velocity=64 time=0\n",
      "note_off channel=0 note=44 velocity=64 time=0.08854166666666666\n",
      "note_on channel=0 note=29 velocity=79 time=0.16145833333333331\n",
      "note_off channel=0 note=29 velocity=64 time=0\n",
      "note_on channel=0 note=64 velocity=76 time=0\n",
      "note_off channel=0 note=64 velocity=64 time=0\n",
      "note_on channel=0 note=30 velocity=79 time=0.23958333333333331\n",
      "note_off channel=0 note=30 velocity=64 time=0\n",
      "note_on channel=0 note=30 velocity=71 time=0.2552083333333333\n",
      "note_off channel=0 note=30 velocity=64 time=0\n",
      "control_change channel=0 control=4 value=118 time=0.15625\n",
      "control_change channel=0 control=4 value=14 time=0\n",
      "control_change channel=0 control=4 value=12 time=0.005208333333333333\n",
      "control_change channel=0 control=4 value=5 time=0.015625\n",
      "control_change channel=0 control=4 value=2 time=0.015625\n",
      "control_change channel=0 control=4 value=28 time=0.03125\n",
      "control_change channel=0 control=4 value=85 time=0.005208333333333333\n",
      "note_on channel=0 note=44 velocity=86 time=0\n",
      "control_change channel=0 control=4 value=127 time=0.005208333333333333\n",
      "note_on channel=0 note=36 velocity=61 time=0.005208333333333333\n",
      "note_off channel=0 note=36 velocity=64 time=0\n",
      "note_on channel=0 note=30 velocity=90 time=0.005208333333333333\n",
      "note_off channel=0 note=30 velocity=64 time=0\n",
      "note_on channel=0 note=32 velocity=30 time=0\n",
      "note_on channel=0 note=64 velocity=64 time=0\n",
      "note_off channel=0 note=64 velocity=64 time=0\n",
      "note_off channel=0 note=44 velocity=64 time=0.078125\n",
      "note_off channel=0 note=32 velocity=64 time=0.020833333333333332\n",
      "note_on channel=0 note=30 velocity=65 time=0.140625\n",
      "note_off channel=0 note=30 velocity=64 time=0\n",
      "note_on channel=0 note=30 velocity=93 time=0.265625\n",
      "<meta message track_name name='02 8th Ride\\x00' time=0>\n",
      "<meta message time_signature numerator=4 denominator=4 clocks_per_click=36 notated_32nd_notes_per_beat=8 time=0>\n",
      "<meta message time_signature numerator=4 denominator=4 clocks_per_click=36 notated_32nd_notes_per_beat=8 time=0>\n",
      "control_change channel=0 control=4 value=127 time=0\n",
      "note_on channel=0 note=36 velocity=63 time=0\n",
      "note_on channel=0 note=45 velocity=7 time=0.005208333333333333\n",
      "note_on channel=0 note=53 velocity=89 time=0\n",
      "note_off channel=0 note=53 velocity=64 time=0.05208333333333333\n",
      "note_off channel=0 note=36 velocity=64 time=0.005208333333333333\n",
      "note_off channel=0 note=45 velocity=64 time=0.046875\n",
      "note_on channel=0 note=53 velocity=62 time=0.20833333333333331\n",
      "note_off channel=0 note=53 velocity=64 time=0.046875\n",
      "control_change channel=0 control=4 value=127 time=0.020833333333333332\n",
      "control_change channel=0 control=4 value=7 time=0\n",
      "control_change channel=0 control=4 value=6 time=0.005208333333333333\n",
      "control_change channel=0 control=4 value=0 time=0.015625\n",
      "note_on channel=0 note=54 velocity=60 time=0\n",
      "note_off channel=0 note=54 velocity=64 time=0.05208333333333333\n",
      "control_change channel=0 control=4 value=0 time=0.015625\n",
      "control_change channel=0 control=4 value=127 time=0\n",
      "note_on channel=0 note=44 velocity=109 time=0\n",
      "note_on channel=0 note=53 velocity=89 time=0.03125\n",
      "note_off channel=0 note=53 velocity=64 time=0.05208333333333333\n",
      "note_off channel=0 note=44 velocity=64 time=0.026041666666666664\n",
      "note_on channel=0 note=36 velocity=65 time=0.17708333333333331\n",
      "note_on channel=0 note=53 velocity=91 time=0.005208333333333333\n",
      "note_on channel=0 note=45 velocity=7 time=0.005208333333333333\n",
      "note_off channel=0 note=53 velocity=64 time=0.041666666666666664\n",
      "note_off channel=0 note=36 velocity=64 time=0.010416666666666666\n",
      "note_off channel=0 note=45 velocity=64 time=0.0625\n",
      "control_change channel=0 control=4 value=127 time=0.046875\n",
      "control_change channel=0 control=4 value=103 time=0\n",
      "control_change channel=0 control=4 value=126 time=0.015625\n",
      "control_change channel=0 control=4 value=127 time=0.005208333333333333\n",
      "note_on channel=0 note=53 velocity=91 time=0.30729166666666663\n",
      "note_off channel=0 note=53 velocity=64 time=0.046875\n",
      "control_change channel=0 control=4 value=127 time=0.09895833333333333\n"
     ]
    },
    {
     "name": "stdout",
     "output_type": "stream",
     "text": [
      "control_change channel=0 control=4 value=13 time=0\n",
      "control_change channel=0 control=4 value=11 time=0.005208333333333333\n",
      "control_change channel=0 control=4 value=1 time=0.015625\n",
      "control_change channel=0 control=4 value=0 time=0.010416666666666666\n",
      "note_on channel=0 note=44 velocity=109 time=0.046875\n",
      "note_on channel=0 note=47 velocity=91 time=0.005208333333333333\n",
      "note_off channel=0 note=47 velocity=64 time=0\n",
      "control_change channel=0 control=4 value=127 time=0.010416666666666666\n",
      "note_on channel=0 note=53 velocity=98 time=0\n",
      "note_off channel=0 note=53 velocity=64 time=0.05208333333333333\n",
      "note_off channel=0 note=44 velocity=64 time=0.026041666666666664\n",
      "note_on channel=0 note=47 velocity=96 time=0.171875\n",
      "note_off channel=0 note=47 velocity=64 time=0\n",
      "control_change channel=0 control=4 value=127 time=0.22395833333333331\n",
      "control_change channel=0 control=4 value=83 time=0\n",
      "note_on channel=0 note=36 velocity=70 time=0.010416666666666666\n",
      "<meta message track_name name='03 8th Ride \\x00' time=0>\n",
      "<meta message time_signature numerator=4 denominator=4 clocks_per_click=36 notated_32nd_notes_per_beat=8 time=0>\n",
      "<meta message time_signature numerator=4 denominator=4 clocks_per_click=36 notated_32nd_notes_per_beat=8 time=0>\n",
      "control_change channel=0 control=4 value=127 time=0\n",
      "note_on channel=0 note=38 velocity=67 time=0\n",
      "note_on channel=0 note=51 velocity=99 time=0\n",
      "note_off channel=0 note=38 velocity=64 time=0.0625\n",
      "note_off channel=0 note=51 velocity=64 time=0\n",
      "note_on channel=0 note=51 velocity=62 time=0.17708333333333331\n",
      "note_off channel=0 note=51 velocity=64 time=0.0625\n",
      "note_on channel=0 note=51 velocity=68 time=0.19791666666666666\n",
      "note_off channel=0 note=51 velocity=64 time=0.0625\n",
      "note_on channel=0 note=38 velocity=89 time=0.18229166666666666\n",
      "note_on channel=0 note=51 velocity=89 time=0.015625\n",
      "note_off channel=0 note=38 velocity=64 time=0.046875\n",
      "note_off channel=0 note=51 velocity=64 time=0.015625\n",
      "note_on channel=0 note=51 velocity=73 time=0.1875\n",
      "note_off channel=0 note=51 velocity=64 time=0.0625\n",
      "note_on channel=0 note=51 velocity=72 time=0.17708333333333331\n",
      "note_off channel=0 note=51 velocity=64 time=0.0625\n",
      "note_on channel=0 note=38 velocity=81 time=0.17708333333333331\n",
      "note_on channel=0 note=51 velocity=92 time=0.015625\n",
      "note_off channel=0 note=38 velocity=64 time=0.046875\n",
      "note_off channel=0 note=51 velocity=64 time=0.015625\n",
      "note_on channel=0 note=51 velocity=58 time=0.1875\n",
      "note_off channel=0 note=51 velocity=64 time=0.0625\n",
      "note_on channel=0 note=38 velocity=89 time=0.171875\n",
      "<meta message track_name name='04 8th Snare\\x00' time=0>\n",
      "<meta message time_signature numerator=4 denominator=4 clocks_per_click=36 notated_32nd_notes_per_beat=8 time=0>\n",
      "<meta message time_signature numerator=4 denominator=4 clocks_per_click=36 notated_32nd_notes_per_beat=8 time=0>\n",
      "control_change channel=0 control=4 value=127 time=0\n",
      "note_on channel=0 note=36 velocity=67 time=0\n",
      "note_on channel=0 note=38 velocity=92 time=0\n",
      "note_on channel=0 note=45 velocity=4 time=0\n",
      "note_on channel=0 note=51 velocity=107 time=0.005208333333333333\n",
      "note_off channel=0 note=36 velocity=64 time=0.03125\n",
      "note_off channel=0 note=38 velocity=64 time=0.010416666666666666\n",
      "note_off channel=0 note=51 velocity=64 time=0.010416666666666666\n",
      "note_off channel=0 note=45 velocity=64 time=0.041666666666666664\n",
      "note_on channel=0 note=51 velocity=72 time=0.14583333333333331\n",
      "note_off channel=0 note=51 velocity=64 time=0.05208333333333333\n",
      "control_change channel=0 control=4 value=127 time=0.08333333333333333\n",
      "control_change channel=0 control=4 value=18 time=0\n",
      "control_change channel=0 control=4 value=15 time=0.005208333333333333\n",
      "note_on channel=0 note=51 velocity=71 time=0.005208333333333333\n",
      "control_change channel=0 control=4 value=6 time=0.010416666666666666\n",
      "control_change channel=0 control=4 value=6 time=0.015625\n",
      "note_off channel=0 note=51 velocity=64 time=0.03125\n",
      "control_change channel=0 control=4 value=3 time=0.010416666666666666\n",
      "control_change channel=0 control=4 value=127 time=0.005208333333333333\n",
      "note_on channel=0 note=44 velocity=80 time=0\n",
      "note_on channel=0 note=51 velocity=71 time=0.05208333333333333\n",
      "note_off channel=0 note=44 velocity=64 time=0.05208333333333333\n",
      "note_off channel=0 note=51 velocity=64 time=0.005208333333333333\n",
      "note_on channel=0 note=38 velocity=78 time=0.15625\n",
      "note_on channel=0 note=51 velocity=102 time=0.020833333333333332\n",
      "note_on channel=0 note=45 velocity=4 time=0.005208333333333333\n",
      "note_off channel=0 note=38 velocity=64 time=0.015625\n",
      "note_off channel=0 note=51 velocity=64 time=0.03645833333333333\n",
      "note_off channel=0 note=45 velocity=64 time=0.046875\n",
      "note_on channel=0 note=51 velocity=72 time=0.16666666666666666\n",
      "note_off channel=0 note=51 velocity=64 time=0.05208333333333333\n",
      "note_on channel=0 note=51 velocity=53 time=0.17708333333333331\n",
      "note_off channel=0 note=51 velocity=64 time=0.05208333333333333\n",
      "control_change channel=0 control=4 value=13 time=0.09375\n",
      "control_change channel=0 control=4 value=127 time=0\n",
      "control_change channel=0 control=4 value=3 time=0.015625\n",
      "control_change channel=0 control=4 value=1 time=0.020833333333333332\n",
      "control_change channel=0 control=4 value=33 time=0.041666666666666664\n",
      "control_change channel=0 control=4 value=53 time=0.005208333333333333\n",
      "note_on channel=0 note=44 velocity=127 time=0\n",
      "note_on channel=0 note=36 velocity=57 time=0.005208333333333333\n",
      "note_on channel=0 note=47 velocity=67 time=0.010416666666666666\n",
      "note_off channel=0 note=47 velocity=64 time=0\n",
      "note_on channel=0 note=51 velocity=98 time=0\n",
      "note_off channel=0 note=36 velocity=64 time=0.026041666666666664\n",
      "note_off channel=0 note=51 velocity=64 time=0.03125\n",
      "note_off channel=0 note=44 velocity=64 time=0.03125\n",
      "note_on channel=0 note=51 velocity=60 time=0.17708333333333331\n",
      "note_off channel=0 note=51 velocity=64 time=0.05208333333333333\n",
      "note_on channel=0 note=36 velocity=53 time=0.1875\n",
      "<meta message track_name name='05 8th Snare\\x00' time=0>\n",
      "<meta message time_signature numerator=4 denominator=4 clocks_per_click=36 notated_32nd_notes_per_beat=8 time=0>\n",
      "<meta message time_signature numerator=4 denominator=4 clocks_per_click=36 notated_32nd_notes_per_beat=8 time=0>\n",
      "control_change channel=0 control=4 value=127 time=0\n",
      "note_on channel=0 note=36 velocity=71 time=0\n",
      "note_on channel=0 note=38 velocity=109 time=0\n",
      "note_on channel=0 note=51 velocity=102 time=0.015625\n",
      "note_off channel=0 note=38 velocity=64 time=0.03645833333333333\n",
      "note_off channel=0 note=51 velocity=64 time=0.015625\n",
      "note_off channel=0 note=36 velocity=64 time=0.015625\n",
      "note_on channel=0 note=51 velocity=51 time=0.171875\n",
      "note_off channel=0 note=51 velocity=64 time=0.057291666666666664\n",
      "control_change channel=0 control=4 value=127 time=0.078125\n",
      "control_change channel=0 control=4 value=15 time=0\n",
      "control_change channel=0 control=4 value=5 time=0.015625\n",
      "control_change channel=0 control=4 value=2 time=0.015625\n",
      "control_change channel=0 control=4 value=38 time=0.05208333333333333\n",
      "control_change channel=0 control=4 value=122 time=0.005208333333333333\n",
      "control_change channel=0 control=4 value=127 time=0.005208333333333333\n",
      "note_on channel=0 note=44 velocity=127 time=0\n",
      "note_on channel=0 note=51 velocity=81 time=0.020833333333333332\n",
      "note_off channel=0 note=51 velocity=64 time=0.05208333333333333\n",
      "note_off channel=0 note=44 velocity=64 time=0.026041666666666664\n",
      "note_on channel=0 note=38 velocity=103 time=0.14583333333333331\n",
      "note_on channel=0 note=36 velocity=39 time=0.020833333333333332\n",
      "note_on channel=0 note=51 velocity=82 time=0.005208333333333333\n",
      "note_off channel=0 note=38 velocity=64 time=0.020833333333333332\n",
      "note_off channel=0 note=51 velocity=64 time=0.03125\n",
      "note_off channel=0 note=36 velocity=64 time=0.026041666666666664\n",
      "note_on channel=0 note=36 velocity=51 time=0.15625\n",
      "note_on channel=0 note=51 velocity=68 time=0.020833333333333332\n",
      "note_off channel=0 note=51 velocity=64 time=0.05208333333333333\n",
      "note_off channel=0 note=36 velocity=64 time=0.010416666666666666\n",
      "note_on channel=0 note=51 velocity=57 time=0.19270833333333331\n",
      "note_off channel=0 note=51 velocity=64 time=0.057291666666666664\n",
      "control_change channel=0 control=4 value=113 time=0.046875\n",
      "control_change channel=0 control=4 value=127 time=0\n",
      "control_change channel=0 control=4 value=92 time=0.005208333333333333\n",
      "control_change channel=0 control=4 value=73 time=0.005208333333333333\n",
      "control_change channel=0 control=4 value=55 time=0.005208333333333333\n",
      "control_change channel=0 control=4 value=35 time=0.005208333333333333\n",
      "control_change channel=0 control=4 value=19 time=0.010416666666666666\n",
      "control_change channel=0 control=4 value=6 time=0.015625\n",
      "control_change channel=0 control=4 value=1 time=0.015625\n",
      "control_change channel=0 control=4 value=0 time=0.010416666666666666\n",
      "control_change channel=0 control=4 value=21 time=0.046875\n",
      "control_change channel=0 control=4 value=121 time=0.005208333333333333\n",
      "note_on channel=0 note=44 velocity=127 time=0\n",
      "control_change channel=0 control=4 value=127 time=0.005208333333333333\n",
      "note_on channel=0 note=47 velocity=100 time=0.010416666666666666\n",
      "note_off channel=0 note=47 velocity=64 time=0\n",
      "note_on channel=0 note=51 velocity=109 time=0.005208333333333333\n",
      "note_off channel=0 note=51 velocity=64 time=0.057291666666666664\n",
      "note_off channel=0 note=44 velocity=64 time=0.020833333333333332\n",
      "note_on channel=0 note=51 velocity=63 time=0.18229166666666666\n",
      "note_off channel=0 note=51 velocity=64 time=0.057291666666666664\n",
      "control_change channel=0 control=4 value=127 time=0.13541666666666666\n",
      "control_change channel=0 control=4 value=90 time=0\n",
      "control_change channel=0 control=4 value=127 time=0.020833333333333332\n",
      "<meta message track_name name='06 8th Hat\\x00' time=0>\n",
      "<meta message time_signature numerator=4 denominator=4 clocks_per_click=36 notated_32nd_notes_per_beat=8 time=0>\n",
      "<meta message time_signature numerator=4 denominator=4 clocks_per_click=36 notated_32nd_notes_per_beat=8 time=0>\n",
      "control_change channel=0 control=4 value=127 time=0\n",
      "note_on channel=0 note=36 velocity=81 time=0\n",
      "note_on channel=0 note=47 velocity=75 time=0\n",
      "note_on channel=0 note=66 velocity=95 time=0.010416666666666666\n",
      "note_off channel=0 note=66 velocity=64 time=0.109375\n",
      "note_off channel=0 note=47 velocity=64 time=0.03645833333333333\n",
      "note_off channel=0 note=36 velocity=64 time=0.010416666666666666\n",
      "note_on channel=0 note=66 velocity=67 time=0.08854166666666666\n",
      "note_off channel=0 note=66 velocity=64 time=0.09895833333333333\n",
      "control_change channel=0 control=4 value=127 time=0.010416666666666666\n",
      "control_change channel=0 control=4 value=14 time=0\n",
      "control_change channel=0 control=4 value=11 time=0.005208333333333333\n",
      "control_change channel=0 control=4 value=2 time=0.015625\n",
      "note_on channel=0 note=66 velocity=72 time=0.010416666666666666\n",
      "control_change channel=0 control=4 value=0 time=0.005208333333333333\n",
      "control_change channel=0 control=4 value=35 time=0.057291666666666664\n",
      "control_change channel=0 control=4 value=127 time=0.005208333333333333\n",
      "note_on channel=0 note=27 velocity=46 time=0\n",
      "note_on channel=0 note=44 velocity=103 time=0\n",
      "note_off channel=0 note=66 velocity=64 time=0.03125\n",
      "note_on channel=0 note=66 velocity=57 time=0.020833333333333332\n",
      "note_off channel=0 note=27 velocity=64 time=0.046875\n",
      "note_off channel=0 note=44 velocity=64 time=0\n",
      "note_off channel=0 note=66 velocity=64 time=0.05208333333333333\n",
      "note_on channel=0 note=47 velocity=69 time=0.11979166666666666\n",
      "note_on channel=0 note=36 velocity=42 time=0.015625\n",
      "note_on channel=0 note=66 velocity=89 time=0\n",
      "note_off channel=0 note=66 velocity=64 time=0.09895833333333333\n",
      "note_off channel=0 note=47 velocity=64 time=0.046875\n",
      "note_off channel=0 note=36 velocity=64 time=0.020833333333333332\n",
      "control_change channel=0 control=4 value=97 time=0.05208333333333333\n",
      "control_change channel=0 control=4 value=127 time=0\n",
      "control_change channel=0 control=4 value=100 time=0.005208333333333333\n",
      "control_change channel=0 control=4 value=126 time=0.010416666666666666\n",
      "control_change channel=0 control=4 value=127 time=0.005208333333333333\n",
      "note_on channel=0 note=36 velocity=63 time=0\n",
      "note_on channel=0 note=66 velocity=74 time=0.020833333333333332\n",
      "note_off channel=0 note=66 velocity=64 time=0.09375\n",
      "note_off channel=0 note=36 velocity=64 time=0.05208333333333333\n",
      "note_on channel=0 note=66 velocity=73 time=0.08333333333333333\n",
      "note_off channel=0 note=66 velocity=64 time=0.09895833333333333\n",
      "control_change channel=0 control=4 value=127 time=0.05208333333333333\n",
      "control_change channel=0 control=4 value=127 time=0\n",
      "control_change channel=0 control=4 value=11 time=0.015625\n",
      "control_change channel=0 control=4 value=0 time=0.015625\n",
      "control_change channel=0 control=4 value=45 time=0.05208333333333333\n",
      "control_change channel=0 control=4 value=45 time=0.005208333333333333\n",
      "note_on channel=0 note=28 velocity=46 time=0\n",
      "note_on channel=0 note=32 velocity=80 time=0\n",
      "note_on channel=0 note=44 velocity=103 time=0\n",
      "note_on channel=0 note=41 velocity=81 time=0.010416666666666666\n",
      "note_on channel=0 note=66 velocity=94 time=0.005208333333333333\n",
      "note_off channel=0 note=28 velocity=64 time=0.078125\n",
      "note_off channel=0 note=32 velocity=64 time=0\n",
      "note_off channel=0 note=44 velocity=64 time=0\n",
      "note_off channel=0 note=66 velocity=64 time=0.026041666666666664\n",
      "note_off channel=0 note=41 velocity=64 time=0.03125\n",
      "note_on channel=0 note=66 velocity=79 time=0.10416666666666666\n",
      "note_on channel=0 note=41 velocity=90 time=0.005208333333333333\n",
      "note_off channel=0 note=66 velocity=64 time=0.09375\n",
      "note_off channel=0 note=41 velocity=64 time=0.041666666666666664\n",
      "control_change channel=0 control=4 value=45 time=0.08854166666666666\n",
      "control_change channel=0 control=4 value=96 time=0\n",
      "control_change channel=0 control=4 value=119 time=0.010416666666666666\n",
      "control_change channel=0 control=4 value=127 time=0.010416666666666666\n",
      "<meta message track_name name='07 8th Snare\\x00' time=0>\n",
      "<meta message time_signature numerator=4 denominator=4 clocks_per_click=36 notated_32nd_notes_per_beat=8 time=0>\n",
      "<meta message time_signature numerator=4 denominator=4 clocks_per_click=36 notated_32nd_notes_per_beat=8 time=0>\n",
      "control_change channel=0 control=4 value=127 time=0\n",
      "note_on channel=0 note=36 velocity=53 time=0\n",
      "note_on channel=0 note=31 velocity=73 time=0.005208333333333333\n",
      "note_on channel=0 note=40 velocity=66 time=0\n",
      "note_on channel=0 note=45 velocity=4 time=0\n",
      "note_off channel=0 note=40 velocity=64 time=0.03125\n",
      "control_change channel=0 control=4 value=89 time=0.010416666666666666\n",
      "note_off channel=0 note=36 velocity=64 time=0.010416666666666666\n",
      "control_change channel=0 control=4 value=127 time=0.005208333333333333\n",
      "note_off channel=0 note=45 velocity=64 time=0.041666666666666664\n",
      "note_off channel=0 note=31 velocity=64 time=0.010416666666666666\n",
      "control_change channel=0 control=4 value=127 time=0.2708333333333333\n",
      "control_change channel=0 control=4 value=13 time=0\n",
      "control_change channel=0 control=4 value=11 time=0.005208333333333333\n",
      "control_change channel=0 control=4 value=3 time=0.015625\n",
      "control_change channel=0 control=4 value=0 time=0.015625\n",
      "control_change channel=0 control=4 value=25 time=0.046875\n",
      "control_change channel=0 control=4 value=25 time=0.005208333333333333\n",
      "note_on channel=0 note=44 velocity=127 time=0\n",
      "note_off channel=0 note=44 velocity=64 time=0.10416666666666666\n",
      "note_on channel=0 note=40 velocity=78 time=0.15625\n",
      "note_on channel=0 note=31 velocity=83 time=0.010416666666666666\n",
      "note_on channel=0 note=36 velocity=62 time=0.005208333333333333\n",
      "note_off channel=0 note=40 velocity=64 time=0.015625\n",
      "note_off channel=0 note=36 velocity=64 time=0.046875\n",
      "note_off channel=0 note=31 velocity=64 time=0.026041666666666664\n",
      "control_change channel=0 control=4 value=80 time=0.08333333333333333\n",
      "control_change channel=0 control=4 value=25 time=0\n",
      "control_change channel=0 control=4 value=96 time=0.020833333333333332\n",
      "control_change channel=0 control=4 value=119 time=0.010416666666666666\n",
      "control_change channel=0 control=4 value=127 time=0.005208333333333333\n",
      "control_change channel=0 control=1 value=127 time=0.010416666666666666\n",
      "control_change channel=0 control=1 value=0 time=0\n",
      "control_change channel=0 control=1 value=0 time=0.015625\n",
      "control_change channel=0 control=1 value=127 time=0\n",
      "note_on channel=0 note=31 velocity=55 time=0.296875\n",
      "control_change channel=0 control=4 value=127 time=0.07291666666666666\n",
      "control_change channel=0 control=4 value=93 time=0\n",
      "control_change channel=0 control=4 value=81 time=0.005208333333333333\n",
      "control_change channel=0 control=4 value=57 time=0.005208333333333333\n",
      "control_change channel=0 control=4 value=44 time=0.005208333333333333\n",
      "control_change channel=0 control=4 value=24 time=0.010416666666666666\n",
      "note_off channel=0 note=31 velocity=64 time=0\n",
      "control_change channel=0 control=4 value=24 time=0.010416666666666666\n",
      "control_change channel=0 control=4 value=11 time=0.015625\n",
      "control_change channel=0 control=4 value=0 time=0.015625\n",
      "control_change channel=0 control=4 value=41 time=0.05208333333333333\n",
      "control_change channel=0 control=4 value=127 time=0.005208333333333333\n",
      "note_on channel=0 note=44 velocity=127 time=0\n",
      "note_on channel=0 note=47 velocity=71 time=0.020833333333333332\n",
      "note_off channel=0 note=47 velocity=64 time=0\n",
      "note_on channel=0 note=31 velocity=75 time=0.005208333333333333\n",
      "note_off channel=0 note=44 velocity=64 time=0.08333333333333333\n",
      "note_off channel=0 note=31 velocity=64 time=0.026041666666666664\n",
      "note_on channel=0 note=47 velocity=60 time=0.14583333333333331\n",
      "note_off channel=0 note=47 velocity=64 time=0\n",
      "control_change channel=0 control=4 value=127 time=0.21354166666666666\n",
      "control_change channel=0 control=4 value=127 time=0\n",
      "control_change channel=0 control=4 value=81 time=0.005208333333333333\n",
      "<meta message track_name name='08 Fill 1\\x00' time=0>\n",
      "<meta message time_signature numerator=4 denominator=4 clocks_per_click=36 notated_32nd_notes_per_beat=8 time=0>\n",
      "<meta message time_signature numerator=4 denominator=4 clocks_per_click=36 notated_32nd_notes_per_beat=8 time=0>\n",
      "control_change channel=0 control=4 value=127 time=0\n",
      "note_on channel=0 note=36 velocity=63 time=0.005208333333333333\n",
      "note_off channel=0 note=36 velocity=64 time=0\n",
      "note_on channel=0 note=45 velocity=7 time=0.010416666666666666\n",
      "note_off channel=0 note=45 velocity=64 time=0.10416666666666666\n",
      "note_on channel=0 note=40 velocity=69 time=0.13020833333333331\n",
      "note_off channel=0 note=40 velocity=64 time=0\n",
      "note_on channel=0 note=51 velocity=88 time=0.015625\n",
      "note_off channel=0 note=51 velocity=64 time=0\n",
      "control_change channel=0 control=4 value=127 time=0.125\n",
      "control_change channel=0 control=4 value=14 time=0\n",
      "control_change channel=0 control=4 value=12 time=0.005208333333333333\n",
      "control_change channel=0 control=4 value=4 time=0.015625\n",
      "control_change channel=0 control=4 value=2 time=0.015625\n",
      "control_change channel=0 control=4 value=26 time=0.03125\n",
      "control_change channel=0 control=4 value=74 time=0.005208333333333333\n",
      "note_on channel=0 note=44 velocity=108 time=0\n",
      "control_change channel=0 control=4 value=127 time=0.005208333333333333\n",
      "note_on channel=0 note=40 velocity=79 time=0.026041666666666664\n",
      "note_off channel=0 note=40 velocity=64 time=0\n",
      "note_on channel=0 note=51 velocity=84 time=0.005208333333333333\n",
      "note_off channel=0 note=51 velocity=64 time=0\n",
      "note_off channel=0 note=44 velocity=64 time=0.057291666666666664\n",
      "note_on channel=0 note=36 velocity=67 time=0.20833333333333331\n",
      "note_off channel=0 note=36 velocity=64 time=0\n",
      "note_on channel=0 note=45 velocity=8 time=0.010416666666666666\n",
      "note_off channel=0 note=45 velocity=64 time=0.10416666666666666\n",
      "note_on channel=0 note=40 velocity=78 time=0.125\n",
      "note_off channel=0 note=40 velocity=64 time=0\n",
      "note_on channel=0 note=51 velocity=71 time=0.005208333333333333\n",
      "note_off channel=0 note=51 velocity=64 time=0\n",
      "note_on channel=0 note=40 velocity=77 time=0.25\n",
      "note_off channel=0 note=40 velocity=64 time=0\n",
      "note_on channel=0 note=51 velocity=90 time=0\n",
      "note_off channel=0 note=51 velocity=64 time=0\n",
      "control_change channel=0 control=4 value=12 time=0.13541666666666666\n",
      "control_change channel=0 control=4 value=127 time=0\n",
      "control_change channel=0 control=4 value=10 time=0.005208333333333333\n",
      "control_change channel=0 control=4 value=4 time=0.015625\n",
      "control_change channel=0 control=4 value=2 time=0.015625\n",
      "control_change channel=0 control=4 value=27 time=0.03645833333333333\n",
      "note_on channel=0 note=44 velocity=101 time=0\n",
      "control_change channel=0 control=4 value=127 time=0.005208333333333333\n",
      "note_on channel=0 note=40 velocity=88 time=0.020833333333333332\n",
      "note_off channel=0 note=40 velocity=64 time=0\n",
      "note_on channel=0 note=51 velocity=80 time=0.015625\n",
      "note_off channel=0 note=51 velocity=64 time=0\n",
      "note_off channel=0 note=44 velocity=64 time=0.057291666666666664\n",
      "note_on channel=0 note=40 velocity=90 time=0.16666666666666666\n",
      "note_off channel=0 note=40 velocity=64 time=0\n",
      "note_on channel=0 note=51 velocity=82 time=0.010416666666666666\n",
      "note_off channel=0 note=51 velocity=64 time=0\n",
      "control_change channel=0 control=4 value=127 time=0.2552083333333333\n",
      "<meta message track_name name='09 Fill 2\\x00' time=0>\n",
      "<meta message time_signature numerator=4 denominator=4 clocks_per_click=36 notated_32nd_notes_per_beat=8 time=0>\n",
      "<meta message time_signature numerator=4 denominator=4 clocks_per_click=36 notated_32nd_notes_per_beat=8 time=0>\n",
      "control_change channel=0 control=4 value=127 time=0\n",
      "note_on channel=0 note=40 velocity=64 time=0\n",
      "note_on channel=0 note=36 velocity=62 time=0.005208333333333333\n",
      "note_on channel=0 note=45 velocity=9 time=0.005208333333333333\n",
      "note_off channel=0 note=40 velocity=64 time=0.010416666666666666\n",
      "note_off channel=0 note=36 velocity=64 time=0.0625\n",
      "note_off channel=0 note=45 velocity=64 time=0.03645833333333333\n",
      "note_on channel=0 note=40 velocity=33 time=0.16666666666666666\n",
      "note_off channel=0 note=40 velocity=64 time=0.020833333333333332\n",
      "note_on channel=0 note=40 velocity=66 time=0.08333333333333333\n",
      "control_change channel=0 control=4 value=127 time=0.005208333333333333\n",
      "control_change channel=0 control=4 value=12 time=0\n",
      "control_change channel=0 control=4 value=5 time=0.015625\n",
      "note_off channel=0 note=40 velocity=64 time=0\n",
      "control_change channel=0 control=4 value=4 time=0.020833333333333332\n",
      "control_change channel=0 control=4 value=38 time=0.020833333333333332\n",
      "control_change channel=0 control=4 value=122 time=0.005208333333333333\n",
      "control_change channel=0 control=4 value=127 time=0.005208333333333333\n",
      "note_on channel=0 note=40 velocity=103 time=0.03645833333333333\n",
      "note_on channel=0 note=44 velocity=127 time=0\n",
      "note_off channel=0 note=40 velocity=64 time=0.020833333333333332\n",
      "note_off channel=0 note=44 velocity=64 time=0.078125\n",
      "note_on channel=0 note=40 velocity=116 time=0.15104166666666666\n",
      "note_off channel=0 note=40 velocity=64 time=0.020833333333333332\n",
      "note_on channel=0 note=47 velocity=101 time=0.22916666666666666\n",
      "note_on channel=0 note=36 velocity=64 time=0.005208333333333333\n",
      "note_on channel=0 note=45 velocity=8 time=0.010416666666666666\n",
      "note_off channel=0 note=47 velocity=64 time=0.015625\n",
      "note_off channel=0 note=36 velocity=64 time=0.05208333333333333\n",
      "note_off channel=0 note=45 velocity=64 time=0.03125\n",
      "note_on channel=0 note=47 velocity=65 time=0.171875\n",
      "note_off channel=0 note=47 velocity=64 time=0.03125\n",
      "note_on channel=0 note=47 velocity=80 time=0.06770833333333333\n",
      "control_change channel=0 control=4 value=15 time=0.010416666666666666\n",
      "control_change channel=0 control=4 value=127 time=0\n",
      "control_change channel=0 control=4 value=6 time=0.020833333333333332\n",
      "note_off channel=0 note=47 velocity=64 time=0\n",
      "control_change channel=0 control=4 value=3 time=0.015625\n",
      "control_change channel=0 control=4 value=37 time=0.026041666666666664\n",
      "control_change channel=0 control=4 value=121 time=0.005208333333333333\n",
      "control_change channel=0 control=4 value=127 time=0.005208333333333333\n",
      "note_on channel=0 note=44 velocity=127 time=0.026041666666666664\n",
      "note_on channel=0 note=47 velocity=100 time=0\n",
      "note_off channel=0 note=47 velocity=64 time=0.026041666666666664\n",
      "note_off channel=0 note=44 velocity=64 time=0.078125\n",
      "note_on channel=0 note=47 velocity=112 time=0.15104166666666666\n",
      "note_off channel=0 note=47 velocity=64 time=0.026041666666666664\n",
      "control_change channel=0 control=4 value=127 time=0.22395833333333331\n",
      "<meta message track_name name='10 Fill 3\\x00' time=0>\n",
      "<meta message time_signature numerator=4 denominator=4 clocks_per_click=36 notated_32nd_notes_per_beat=8 time=0>\n",
      "<meta message time_signature numerator=4 denominator=4 clocks_per_click=36 notated_32nd_notes_per_beat=8 time=0>\n",
      "control_change channel=0 control=4 value=127 time=0\n",
      "note_on channel=0 note=36 velocity=80 time=0\n",
      "note_off channel=0 note=36 velocity=64 time=0\n",
      "note_on channel=0 note=45 velocity=7 time=0.005208333333333333\n",
      "note_on channel=0 note=51 velocity=79 time=0.010416666666666666\n",
      "note_off channel=0 note=51 velocity=64 time=0\n",
      "note_off channel=0 note=45 velocity=64 time=0.09375\n",
      "note_on channel=0 note=40 velocity=58 time=0.020833333333333332\n",
      "note_off channel=0 note=40 velocity=64 time=0\n",
      "note_on channel=0 note=40 velocity=57 time=0.109375\n",
      "note_off channel=0 note=40 velocity=64 time=0\n",
      "note_on channel=0 note=40 velocity=93 time=0.125\n",
      "note_off channel=0 note=40 velocity=64 time=0\n",
      "control_change channel=0 control=4 value=127 time=0.010416666666666666\n",
      "control_change channel=0 control=4 value=12 time=0\n",
      "control_change channel=0 control=4 value=5 time=0.020833333333333332\n",
      "control_change channel=0 control=4 value=40 time=0.03645833333333333\n",
      "control_change channel=0 control=4 value=120 time=0.005208333333333333\n",
      "note_on channel=0 note=44 velocity=113 time=0\n",
      "control_change channel=0 control=4 value=127 time=0.005208333333333333\n",
      "note_on channel=0 note=40 velocity=109 time=0.046875\n",
      "note_off channel=0 note=40 velocity=64 time=0\n",
      "note_off channel=0 note=44 velocity=64 time=0.057291666666666664\n",
      "note_on channel=0 note=36 velocity=66 time=0.20833333333333331\n",
      "note_off channel=0 note=36 velocity=64 time=0\n",
      "note_on channel=0 note=45 velocity=8 time=0.010416666666666666\n",
      "note_on channel=0 note=51 velocity=94 time=0\n",
      "note_off channel=0 note=51 velocity=64 time=0\n",
      "note_off channel=0 note=45 velocity=64 time=0.10416666666666666\n",
      "note_on channel=0 note=40 velocity=52 time=0.005208333333333333\n",
      "note_off channel=0 note=40 velocity=64 time=0.005208333333333333\n",
      "note_on channel=0 note=40 velocity=70 time=0.109375\n",
      "note_off channel=0 note=40 velocity=64 time=0\n",
      "note_on channel=0 note=40 velocity=82 time=0.11458333333333333\n",
      "note_off channel=0 note=40 velocity=64 time=0\n",
      "note_on channel=0 note=40 velocity=116 time=0.11979166666666666\n",
      "note_off channel=0 note=40 velocity=64 time=0\n",
      "control_change channel=0 control=4 value=127 time=0.19270833333333331\n",
      "control_change channel=0 control=4 value=12 time=0\n",
      "control_change channel=0 control=4 value=2 time=0.020833333333333332\n",
      "control_change channel=0 control=4 value=0 time=0.015625\n",
      "control_change channel=0 control=4 value=26 time=0.03125\n",
      "control_change channel=0 control=4 value=107 time=0.005208333333333333\n",
      "note_on channel=0 note=44 velocity=121 time=0\n",
      "control_change channel=0 control=4 value=127 time=0.005208333333333333\n",
      "note_on channel=0 note=47 velocity=89 time=0\n",
      "note_off channel=0 note=47 velocity=64 time=0\n",
      "note_off channel=0 note=44 velocity=64 time=0.08854166666666666\n",
      "note_on channel=0 note=47 velocity=84 time=0.020833333333333332\n",
      "note_off channel=0 note=47 velocity=64 time=0\n",
      "note_on channel=0 note=47 velocity=78 time=0.125\n",
      "note_off channel=0 note=47 velocity=64 time=0\n",
      "note_on channel=0 note=47 velocity=88 time=0.11979166666666666\n",
      "note_off channel=0 note=47 velocity=64 time=0\n",
      "control_change channel=0 control=4 value=127 time=0.15104166666666666\n",
      "<meta message track_name name='01 8th Snare\\x00' time=0>\n",
      "<meta message time_signature numerator=4 denominator=4 clocks_per_click=36 notated_32nd_notes_per_beat=8 time=0>\n",
      "<meta message time_signature numerator=4 denominator=4 clocks_per_click=36 notated_32nd_notes_per_beat=8 time=0>\n",
      "control_change channel=0 control=4 value=127 time=0\n",
      "note_on channel=0 note=36 velocity=79 time=0\n",
      "note_on channel=0 note=40 velocity=55 time=0\n",
      "note_off channel=0 note=40 velocity=64 time=0.13020833333333331\n",
      "note_off channel=0 note=36 velocity=64 time=0.09375\n",
      "control_change channel=0 control=4 value=127 time=0.026041666666666664\n",
      "control_change channel=0 control=4 value=25 time=0\n",
      "control_change channel=0 control=4 value=21 time=0.005208333333333333\n",
      "control_change channel=0 control=4 value=3 time=0.020833333333333332\n",
      "control_change channel=0 control=4 value=0 time=0.020833333333333332\n",
      "control_change channel=0 control=4 value=0 time=0.140625\n",
      "control_change channel=0 control=4 value=91 time=0\n",
      "control_change channel=0 control=4 value=127 time=0.005208333333333333\n",
      "note_on channel=0 note=44 velocity=108 time=0.010416666666666666\n",
      "note_on channel=0 note=39 velocity=112 time=0.015625\n",
      "note_on channel=0 note=40 velocity=60 time=0.005208333333333333\n",
      "note_off channel=0 note=39 velocity=64 time=0.11979166666666666\n",
      "note_off channel=0 note=40 velocity=64 time=0.015625\n",
      "note_off channel=0 note=44 velocity=64 time=0.005208333333333333\n",
      "control_change channel=0 control=4 value=127 time=0.1875\n",
      "control_change channel=0 control=4 value=103 time=0\n",
      "control_change channel=0 control=4 value=94 time=0.026041666666666664\n",
      "control_change channel=0 control=4 value=83 time=0.026041666666666664\n",
      "control_change channel=0 control=4 value=70 time=0.020833333333333332\n",
      "control_change channel=0 control=4 value=67 time=0.026041666666666664\n",
      "control_change channel=0 control=4 value=110 time=0.026041666666666664\n",
      "control_change channel=0 control=4 value=126 time=0.005208333333333333\n",
      "control_change channel=0 control=4 value=127 time=0.005208333333333333\n",
      "note_on channel=0 note=44 velocity=18 time=0.005208333333333333\n",
      "note_on channel=0 note=40 velocity=56 time=0.03645833333333333\n",
      "note_on channel=0 note=36 velocity=77 time=0.005208333333333333\n",
      "note_off channel=0 note=44 velocity=64 time=0.11979166666666666\n",
      "note_off channel=0 note=40 velocity=64 time=0.010416666666666666\n",
      "note_off channel=0 note=36 velocity=64 time=0.09375\n",
      "control_change channel=0 control=4 value=127 time=0.026041666666666664\n",
      "control_change channel=0 control=4 value=26 time=0\n",
      "control_change channel=0 control=4 value=7 time=0.020833333333333332\n",
      "control_change channel=0 control=4 value=0 time=0.026041666666666664\n",
      "control_change channel=0 control=4 value=0 time=0.140625\n",
      "control_change channel=0 control=4 value=42 time=0\n",
      "control_change channel=0 control=4 value=127 time=0.005208333333333333\n",
      "note_on channel=0 note=44 velocity=108 time=0.020833333333333332\n",
      "note_on channel=0 note=39 velocity=108 time=0.026041666666666664\n",
      "note_on channel=0 note=40 velocity=59 time=0.010416666666666666\n",
      "note_off channel=0 note=39 velocity=64 time=0.109375\n",
      "note_off channel=0 note=44 velocity=64 time=0.005208333333333333\n",
      "note_off channel=0 note=40 velocity=64 time=0.020833333333333332\n",
      "control_change channel=0 control=4 value=127 time=0.22395833333333331\n",
      "control_change channel=0 control=4 value=97 time=0\n",
      "control_change channel=0 control=4 value=85 time=0.026041666666666664\n",
      "control_change channel=0 control=4 value=81 time=0.020833333333333332\n",
      "control_change channel=0 control=4 value=114 time=0.020833333333333332\n",
      "control_change channel=0 control=4 value=125 time=0.005208333333333333\n",
      "control_change channel=0 control=4 value=127 time=0.010416666666666666\n",
      "note_on channel=0 note=36 velocity=77 time=0.05208333333333333\n"
     ]
    },
    {
     "name": "stdout",
     "output_type": "stream",
     "text": [
      "<meta message track_name name='02 8th Cym\\x00' time=0>\n",
      "<meta message time_signature numerator=4 denominator=4 clocks_per_click=36 notated_32nd_notes_per_beat=8 time=0>\n",
      "<meta message time_signature numerator=4 denominator=4 clocks_per_click=36 notated_32nd_notes_per_beat=8 time=0>\n",
      "control_change channel=0 control=4 value=127 time=0\n",
      "note_on channel=0 note=36 velocity=61 time=0\n",
      "note_off channel=0 note=36 velocity=64 time=0\n",
      "note_on channel=0 note=48 velocity=90 time=0\n",
      "note_off channel=0 note=48 velocity=64 time=0\n",
      "note_on channel=0 note=45 velocity=7 time=0.005208333333333333\n",
      "note_off channel=0 note=45 velocity=64 time=0.16666666666666666\n",
      "control_change channel=0 control=4 value=127 time=0.03645833333333333\n",
      "control_change channel=0 control=4 value=96 time=0\n",
      "control_change channel=0 control=4 value=76 time=0.010416666666666666\n",
      "control_change channel=0 control=4 value=58 time=0.010416666666666666\n",
      "control_change channel=0 control=4 value=40 time=0.010416666666666666\n",
      "control_change channel=0 control=4 value=23 time=0.015625\n",
      "control_change channel=0 control=4 value=8 time=0.015625\n",
      "control_change channel=0 control=4 value=0 time=0.026041666666666664\n",
      "note_on channel=0 note=39 velocity=115 time=0.14583333333333331\n",
      "note_off channel=0 note=39 velocity=64 time=0\n",
      "control_change channel=0 control=4 value=0 time=0.010416666666666666\n",
      "control_change channel=0 control=4 value=43 time=0\n",
      "note_on channel=0 note=44 velocity=127 time=0\n",
      "control_change channel=0 control=4 value=43 time=0.005208333333333333\n",
      "note_on channel=0 note=48 velocity=114 time=0.020833333333333332\n",
      "note_off channel=0 note=48 velocity=64 time=0\n",
      "note_off channel=0 note=44 velocity=64 time=0.15104166666666666\n",
      "note_on channel=0 note=48 velocity=68 time=0.19270833333333331\n",
      "note_off channel=0 note=48 velocity=64 time=0\n",
      "control_change channel=0 control=4 value=89 time=0.08854166666666666\n",
      "control_change channel=0 control=4 value=43 time=0\n",
      "control_change channel=0 control=4 value=120 time=0.020833333333333332\n",
      "control_change channel=0 control=4 value=127 time=0.010416666666666666\n",
      "note_on channel=0 note=36 velocity=53 time=0.026041666666666664\n",
      "note_off channel=0 note=36 velocity=64 time=0\n",
      "note_on channel=0 note=45 velocity=8 time=0.015625\n",
      "note_on channel=0 note=48 velocity=108 time=0.005208333333333333\n",
      "note_off channel=0 note=48 velocity=64 time=0\n",
      "note_off channel=0 note=45 velocity=64 time=0.16145833333333331\n",
      "control_change channel=0 control=4 value=127 time=0.10416666666666666\n",
      "control_change channel=0 control=4 value=26 time=0\n",
      "control_change channel=0 control=4 value=26 time=0.005208333333333333\n",
      "control_change channel=0 control=4 value=22 time=0.026041666666666664\n",
      "control_change channel=0 control=4 value=0 time=0.020833333333333332\n",
      "control_change channel=0 control=4 value=0 time=0.140625\n",
      "control_change channel=0 control=4 value=71 time=0\n",
      "control_change channel=0 control=4 value=127 time=0.005208333333333333\n",
      "note_on channel=0 note=44 velocity=127 time=0\n",
      "note_on channel=0 note=39 velocity=114 time=0.005208333333333333\n",
      "note_off channel=0 note=39 velocity=64 time=0\n",
      "note_on channel=0 note=48 velocity=116 time=0.010416666666666666\n",
      "note_off channel=0 note=48 velocity=64 time=0\n",
      "note_off channel=0 note=44 velocity=64 time=0.140625\n",
      "note_on channel=0 note=48 velocity=85 time=0.2708333333333333\n",
      "note_off channel=0 note=48 velocity=64 time=0\n",
      "control_change channel=0 control=4 value=82 time=0.010416666666666666\n",
      "control_change channel=0 control=4 value=127 time=0\n",
      "control_change channel=0 control=4 value=79 time=0.005208333333333333\n",
      "control_change channel=0 control=4 value=73 time=0.020833333333333332\n",
      "note_on channel=0 note=44 velocity=6 time=0.026041666666666664\n",
      "control_change channel=0 control=4 value=97 time=0.010416666666666666\n",
      "control_change channel=0 control=4 value=115 time=0.010416666666666666\n",
      "note_on channel=0 note=36 velocity=37 time=0\n",
      "note_off channel=0 note=36 velocity=64 time=0\n",
      "note_on channel=0 note=45 velocity=6 time=0.010416666666666666\n",
      "control_change channel=0 control=4 value=127 time=0.005208333333333333\n",
      "<meta message track_name name='03 8th Ride\\x00' time=0>\n",
      "<meta message time_signature numerator=4 denominator=4 clocks_per_click=36 notated_32nd_notes_per_beat=8 time=0>\n",
      "<meta message time_signature numerator=4 denominator=4 clocks_per_click=36 notated_32nd_notes_per_beat=8 time=0>\n",
      "control_change channel=0 control=4 value=127 time=0\n",
      "note_on channel=0 note=36 velocity=63 time=0\n",
      "note_off channel=0 note=36 velocity=64 time=0\n",
      "note_on channel=0 note=45 velocity=7 time=0\n",
      "note_on channel=0 note=51 velocity=98 time=0\n",
      "note_off channel=0 note=51 velocity=64 time=0\n",
      "note_off channel=0 note=45 velocity=64 time=0.16145833333333331\n",
      "control_change channel=0 control=4 value=127 time=0.10416666666666666\n",
      "control_change channel=0 control=4 value=20 time=0\n",
      "control_change channel=0 control=4 value=17 time=0.005208333333333333\n",
      "control_change channel=0 control=4 value=2 time=0.026041666666666664\n",
      "control_change channel=0 control=4 value=0 time=0.010416666666666666\n",
      "control_change channel=0 control=4 value=0 time=0.14583333333333331\n",
      "control_change channel=0 control=4 value=63 time=0\n",
      "note_on channel=0 note=44 velocity=127 time=0\n",
      "control_change channel=0 control=4 value=63 time=0.005208333333333333\n",
      "note_on channel=0 note=39 velocity=112 time=0.020833333333333332\n",
      "note_off channel=0 note=39 velocity=64 time=0\n",
      "note_on channel=0 note=51 velocity=103 time=0.020833333333333332\n",
      "note_off channel=0 note=51 velocity=64 time=0\n",
      "note_off channel=0 note=44 velocity=64 time=0.11979166666666666\n",
      "control_change channel=0 control=4 value=63 time=0.18229166666666666\n",
      "control_change channel=0 control=4 value=100 time=0\n",
      "control_change channel=0 control=4 value=90 time=0.026041666666666664\n",
      "control_change channel=0 control=4 value=77 time=0.026041666666666664\n",
      "control_change channel=0 control=4 value=65 time=0.020833333333333332\n",
      "control_change channel=0 control=4 value=57 time=0.026041666666666664\n",
      "control_change channel=0 control=4 value=62 time=0.026041666666666664\n",
      "note_on channel=0 note=44 velocity=13 time=0.015625\n",
      "control_change channel=0 control=4 value=99 time=0.005208333333333333\n",
      "control_change channel=0 control=4 value=127 time=0.010416666666666666\n",
      "note_on channel=0 note=36 velocity=64 time=0.020833333333333332\n",
      "note_off channel=0 note=36 velocity=64 time=0\n",
      "note_on channel=0 note=45 velocity=7 time=0.010416666666666666\n",
      "note_on channel=0 note=51 velocity=93 time=0.010416666666666666\n",
      "note_off channel=0 note=51 velocity=64 time=0\n",
      "note_off channel=0 note=44 velocity=64 time=0.109375\n",
      "note_off channel=0 note=45 velocity=64 time=0.03645833333333333\n",
      "control_change channel=0 control=4 value=127 time=0.125\n",
      "control_change channel=0 control=4 value=22 time=0\n",
      "control_change channel=0 control=4 value=18 time=0.005208333333333333\n",
      "control_change channel=0 control=4 value=3 time=0.026041666666666664\n",
      "control_change channel=0 control=4 value=0 time=0.015625\n",
      "note_on channel=0 note=44 velocity=127 time=0.13541666666666666\n",
      "control_change channel=0 control=4 value=0 time=0.005208333333333333\n",
      "control_change channel=0 control=4 value=0 time=0\n",
      "note_on channel=0 note=39 velocity=107 time=0.015625\n",
      "note_off channel=0 note=39 velocity=64 time=0\n",
      "note_on channel=0 note=51 velocity=105 time=0.015625\n",
      "note_off channel=0 note=51 velocity=64 time=0\n",
      "note_off channel=0 note=44 velocity=64 time=0.109375\n",
      "control_change channel=0 control=4 value=0 time=0.203125\n",
      "control_change channel=0 control=4 value=104 time=0\n",
      "control_change channel=0 control=4 value=95 time=0.026041666666666664\n",
      "control_change channel=0 control=4 value=84 time=0.026041666666666664\n",
      "control_change channel=0 control=4 value=71 time=0.020833333333333332\n",
      "control_change channel=0 control=4 value=62 time=0.026041666666666664\n",
      "control_change channel=0 control=4 value=61 time=0.026041666666666664\n",
      "note_on channel=0 note=44 velocity=11 time=0.015625\n",
      "control_change channel=0 control=4 value=92 time=0.005208333333333333\n",
      "control_change channel=0 control=4 value=120 time=0.005208333333333333\n",
      "control_change channel=0 control=4 value=127 time=0.005208333333333333\n",
      "note_on channel=0 note=36 velocity=55 time=0.026041666666666664\n",
      "<meta message track_name name='04 16th Snare\\x00' time=0>\n",
      "<meta message time_signature numerator=4 denominator=4 clocks_per_click=36 notated_32nd_notes_per_beat=8 time=0>\n",
      "<meta message time_signature numerator=4 denominator=4 clocks_per_click=36 notated_32nd_notes_per_beat=8 time=0>\n",
      "control_change channel=0 control=4 value=127 time=0\n",
      "note_on channel=0 note=36 velocity=65 time=0.005208333333333333\n",
      "note_on channel=0 note=45 velocity=8 time=0\n",
      "note_on channel=0 note=40 velocity=60 time=0.005208333333333333\n",
      "note_off channel=0 note=40 velocity=64 time=0\n",
      "note_off channel=0 note=36 velocity=64 time=0.08854166666666666\n",
      "note_off channel=0 note=45 velocity=64 time=0.0625\n",
      "note_on channel=0 note=40 velocity=47 time=0.09895833333333333\n",
      "note_off channel=0 note=40 velocity=64 time=0\n",
      "control_change channel=0 control=4 value=127 time=0.046875\n",
      "control_change channel=0 control=4 value=12 time=0\n",
      "control_change channel=0 control=4 value=9 time=0.005208333333333333\n",
      "control_change channel=0 control=4 value=1 time=0.026041666666666664\n",
      "control_change channel=0 control=4 value=0 time=0.005208333333333333\n",
      "control_change channel=0 control=4 value=0 time=0.10416666666666666\n",
      "control_change channel=0 control=4 value=35 time=0\n",
      "control_change channel=0 control=4 value=35 time=0.005208333333333333\n",
      "note_on channel=0 note=44 velocity=127 time=0\n",
      "note_on channel=0 note=39 velocity=121 time=0.010416666666666666\n",
      "note_off channel=0 note=39 velocity=64 time=0\n",
      "note_off channel=0 note=44 velocity=64 time=0.15104166666666666\n",
      "note_on channel=0 note=40 velocity=58 time=0.16145833333333331\n",
      "note_off channel=0 note=40 velocity=64 time=0\n",
      "note_on channel=0 note=36 velocity=56 time=0.21875\n",
      "note_off channel=0 note=36 velocity=64 time=0\n",
      "note_on channel=0 note=40 velocity=59 time=0.005208333333333333\n",
      "note_off channel=0 note=40 velocity=64 time=0\n",
      "note_on channel=0 note=45 velocity=6 time=0.010416666666666666\n",
      "note_off channel=0 note=45 velocity=64 time=0.16145833333333331\n",
      "note_on channel=0 note=40 velocity=48 time=0.14583333333333331\n",
      "note_off channel=0 note=40 velocity=64 time=0\n",
      "control_change channel=0 control=4 value=35 time=0.020833333333333332\n",
      "control_change channel=0 control=4 value=16 time=0\n",
      "control_change channel=0 control=4 value=13 time=0.005208333333333333\n",
      "control_change channel=0 control=4 value=2 time=0.026041666666666664\n",
      "control_change channel=0 control=4 value=0 time=0.015625\n",
      "control_change channel=0 control=4 value=117 time=0.10416666666666666\n",
      "control_change channel=0 control=4 value=0 time=0\n",
      "note_on channel=0 note=44 velocity=127 time=0\n",
      "control_change channel=0 control=4 value=127 time=0.005208333333333333\n",
      "note_on channel=0 note=39 velocity=121 time=0.005208333333333333\n",
      "note_off channel=0 note=39 velocity=64 time=0\n",
      "note_off channel=0 note=44 velocity=64 time=0.16145833333333331\n",
      "note_on channel=0 note=40 velocity=54 time=0.13541666666666666\n",
      "note_off channel=0 note=40 velocity=64 time=0\n",
      "note_on channel=0 note=36 velocity=61 time=0.20833333333333331\n",
      "<meta message track_name name='05 16th Hat\\x00' time=0>\n",
      "<meta message time_signature numerator=4 denominator=4 clocks_per_click=36 notated_32nd_notes_per_beat=8 time=0>\n",
      "<meta message time_signature numerator=4 denominator=4 clocks_per_click=36 notated_32nd_notes_per_beat=8 time=0>\n",
      "control_change channel=0 control=4 value=127 time=0\n",
      "note_on channel=0 note=36 velocity=48 time=0\n",
      "note_off channel=0 note=36 velocity=64 time=0\n",
      "note_on channel=0 note=42 velocity=110 time=0\n",
      "note_off channel=0 note=42 velocity=64 time=0\n",
      "note_on channel=0 note=45 velocity=5 time=0.005208333333333333\n",
      "note_off channel=0 note=45 velocity=64 time=0.15625\n",
      "control_change channel=0 control=4 value=127 time=0.08333333333333333\n",
      "control_change channel=0 control=4 value=23 time=0\n",
      "control_change channel=0 control=4 value=19 time=0.005208333333333333\n",
      "control_change channel=0 control=4 value=3 time=0.020833333333333332\n",
      "control_change channel=0 control=4 value=0 time=0.020833333333333332\n",
      "control_change channel=0 control=4 value=0 time=0.13541666666666666\n",
      "control_change channel=0 control=4 value=53 time=0\n",
      "control_change channel=0 control=4 value=127 time=0.005208333333333333\n",
      "note_on channel=0 note=39 velocity=110 time=0\n",
      "note_off channel=0 note=39 velocity=64 time=0\n",
      "note_on channel=0 note=44 velocity=110 time=0\n",
      "note_on channel=0 note=42 velocity=103 time=0.026041666666666664\n",
      "note_off channel=0 note=42 velocity=64 time=0\n",
      "note_off channel=0 note=44 velocity=64 time=0.11979166666666666\n",
      "note_on channel=0 note=42 velocity=95 time=0.19270833333333331\n",
      "note_off channel=0 note=42 velocity=64 time=0\n",
      "control_change channel=0 control=4 value=127 time=0.11979166666666666\n",
      "control_change channel=0 control=4 value=80 time=0\n",
      "control_change channel=0 control=4 value=82 time=0.026041666666666664\n",
      "note_on channel=0 note=44 velocity=3 time=0.005208333333333333\n",
      "control_change channel=0 control=4 value=107 time=0.015625\n",
      "note_on channel=0 note=42 velocity=89 time=0\n",
      "note_off channel=0 note=42 velocity=64 time=0.005208333333333333\n",
      "control_change channel=0 control=4 value=127 time=0.010416666666666666\n",
      "note_on channel=0 note=36 velocity=56 time=0\n",
      "note_off channel=0 note=36 velocity=64 time=0\n",
      "note_on channel=0 note=45 velocity=8 time=0.010416666666666666\n",
      "note_off channel=0 note=44 velocity=64 time=0.10416666666666666\n",
      "note_off channel=0 note=45 velocity=64 time=0.06770833333333333\n",
      "control_change channel=0 control=4 value=127 time=0.13020833333333331\n",
      "control_change channel=0 control=4 value=21 time=0\n",
      "control_change channel=0 control=4 value=4 time=0.026041666666666664\n",
      "control_change channel=0 control=4 value=0 time=0.020833333333333332\n",
      "control_change channel=0 control=4 value=0 time=0.13020833333333331\n",
      "control_change channel=0 control=4 value=49 time=0\n",
      "note_on channel=0 note=39 velocity=110 time=0\n",
      "note_off channel=0 note=39 velocity=64 time=0\n",
      "control_change channel=0 control=4 value=127 time=0.005208333333333333\n",
      "note_on channel=0 note=44 velocity=127 time=0\n",
      "note_on channel=0 note=42 velocity=127 time=0.010416666666666666\n",
      "note_off channel=0 note=42 velocity=64 time=0\n",
      "note_off channel=0 note=44 velocity=64 time=0.13541666666666666\n",
      "note_on channel=0 note=42 velocity=79 time=0.19791666666666666\n",
      "note_off channel=0 note=42 velocity=64 time=0\n",
      "control_change channel=0 control=4 value=127 time=0.11458333333333333\n",
      "control_change channel=0 control=4 value=94 time=0\n",
      "control_change channel=0 control=4 value=124 time=0.020833333333333332\n",
      "control_change channel=0 control=4 value=127 time=0.010416666666666666\n",
      "note_on channel=0 note=42 velocity=94 time=0.020833333333333332\n",
      "note_off channel=0 note=42 velocity=64 time=0\n",
      "note_on channel=0 note=36 velocity=61 time=0.03125\n",
      "<meta message track_name name='06 16th Toms\\x00' time=0>\n",
      "<meta message time_signature numerator=4 denominator=4 clocks_per_click=36 notated_32nd_notes_per_beat=8 time=0>\n",
      "<meta message time_signature numerator=4 denominator=4 clocks_per_click=36 notated_32nd_notes_per_beat=8 time=0>\n",
      "control_change channel=0 control=4 value=127 time=0\n",
      "note_on channel=0 note=44 velocity=1 time=0\n",
      "note_on channel=0 note=36 velocity=68 time=0.020833333333333332\n",
      "note_off channel=0 note=36 velocity=64 time=0\n",
      "note_on channel=0 note=43 velocity=9 time=0.015625\n",
      "note_off channel=0 note=44 velocity=64 time=0.08854166666666666\n",
      "note_off channel=0 note=43 velocity=64 time=0.07291666666666666\n",
      "control_change channel=0 control=4 value=127 time=0.13541666666666666\n",
      "control_change channel=0 control=4 value=26 time=0\n",
      "control_change channel=0 control=4 value=23 time=0.005208333333333333\n",
      "control_change channel=0 control=4 value=7 time=0.020833333333333332\n",
      "control_change channel=0 control=4 value=2 time=0.026041666666666664\n",
      "control_change channel=0 control=4 value=0 time=0.020833333333333332\n",
      "control_change channel=0 control=4 value=28 time=0.07291666666666666\n",
      "control_change channel=0 control=4 value=0 time=0\n",
      "control_change channel=0 control=4 value=45 time=0.005208333333333333\n",
      "control_change channel=0 control=4 value=127 time=0.005208333333333333\n",
      "note_on channel=0 note=44 velocity=118 time=0\n",
      "note_on channel=0 note=47 velocity=109 time=0.020833333333333332\n",
      "note_off channel=0 note=47 velocity=64 time=0\n",
      "note_on channel=0 note=43 velocity=98 time=0.010416666666666666\n",
      "note_off channel=0 note=44 velocity=64 time=0.13020833333333331\n",
      "note_off channel=0 note=43 velocity=64 time=0.03645833333333333\n",
      "control_change channel=0 control=4 value=127 time=0.16666666666666666\n",
      "control_change channel=0 control=4 value=80 time=0\n",
      "control_change channel=0 control=4 value=72 time=0.026041666666666664\n",
      "control_change channel=0 control=4 value=74 time=0.026041666666666664\n",
      "note_on channel=0 note=44 velocity=5 time=0.015625\n",
      "control_change channel=0 control=4 value=94 time=0.005208333333333333\n",
      "control_change channel=0 control=4 value=115 time=0.015625\n",
      "control_change channel=0 control=4 value=127 time=0.010416666666666666\n",
      "note_on channel=0 note=36 velocity=69 time=0.0625\n",
      "note_off channel=0 note=36 velocity=64 time=0\n",
      "note_on channel=0 note=43 velocity=9 time=0.010416666666666666\n",
      "note_off channel=0 note=44 velocity=64 time=0.046875\n",
      "note_off channel=0 note=43 velocity=64 time=0.10416666666666666\n",
      "note_on channel=0 note=47 velocity=99 time=0.13020833333333331\n",
      "note_off channel=0 note=47 velocity=64 time=0\n",
      "control_change channel=0 control=4 value=127 time=0.015625\n",
      "control_change channel=0 control=4 value=20 time=0\n",
      "note_on channel=0 note=43 velocity=86 time=0\n",
      "control_change channel=0 control=4 value=16 time=0.005208333333333333\n",
      "control_change channel=0 control=4 value=0 time=0.015625\n",
      "control_change channel=0 control=4 value=0 time=0.140625\n",
      "control_change channel=0 control=4 value=104 time=0\n",
      "note_on channel=0 note=44 velocity=118 time=0\n",
      "control_change channel=0 control=4 value=127 time=0.005208333333333333\n",
      "note_off channel=0 note=43 velocity=64 time=0\n",
      "note_off channel=0 note=44 velocity=64 time=0.140625\n",
      "control_change channel=0 control=4 value=70 time=0.203125\n",
      "control_change channel=0 control=4 value=127 time=0\n",
      "control_change channel=0 control=4 value=67 time=0.010416666666666666\n",
      "control_change channel=0 control=4 value=58 time=0.026041666666666664\n",
      "control_change channel=0 control=4 value=73 time=0.046875\n",
      "note_on channel=0 note=44 velocity=7 time=0.010416666666666666\n",
      "control_change channel=0 control=4 value=97 time=0.005208333333333333\n",
      "control_change channel=0 control=4 value=124 time=0.010416666666666666\n",
      "control_change channel=0 control=4 value=127 time=0.010416666666666666\n",
      "note_on channel=0 note=47 velocity=109 time=0.057291666666666664\n",
      "<meta message track_name name='07 16th Ride\\x00' time=0>\n",
      "<meta message time_signature numerator=4 denominator=4 clocks_per_click=36 notated_32nd_notes_per_beat=8 time=0>\n",
      "<meta message time_signature numerator=4 denominator=4 clocks_per_click=36 notated_32nd_notes_per_beat=8 time=0>\n",
      "control_change channel=0 control=4 value=127 time=0\n",
      "note_on channel=0 note=36 velocity=64 time=0\n",
      "note_off channel=0 note=36 velocity=64 time=0\n",
      "note_on channel=0 note=53 velocity=89 time=0\n",
      "note_off channel=0 note=53 velocity=64 time=0\n",
      "note_on channel=0 note=45 velocity=9 time=0.026041666666666664\n",
      "note_off channel=0 note=45 velocity=64 time=0.15104166666666666\n",
      "control_change channel=0 control=4 value=127 time=0.09375\n",
      "control_change channel=0 control=4 value=20 time=0\n",
      "control_change channel=0 control=4 value=17 time=0.005208333333333333\n",
      "control_change channel=0 control=4 value=4 time=0.026041666666666664\n",
      "control_change channel=0 control=4 value=0 time=0.020833333333333332\n",
      "control_change channel=0 control=4 value=0 time=0.10416666666666666\n",
      "control_change channel=0 control=4 value=58 time=0\n",
      "note_on channel=0 note=44 velocity=127 time=0\n",
      "control_change channel=0 control=4 value=58 time=0.005208333333333333\n",
      "note_on channel=0 note=53 velocity=106 time=0.005208333333333333\n",
      "note_off channel=0 note=53 velocity=64 time=0\n",
      "note_on channel=0 note=38 velocity=108 time=0.010416666666666666\n",
      "note_off channel=0 note=38 velocity=64 time=0\n",
      "note_off channel=0 note=44 velocity=64 time=0.14583333333333331\n",
      "note_on channel=0 note=36 velocity=70 time=0.3489583333333333\n",
      "note_off channel=0 note=36 velocity=64 time=0\n",
      "note_on channel=0 note=53 velocity=100 time=0.005208333333333333\n",
      "note_off channel=0 note=53 velocity=64 time=0\n",
      "note_on channel=0 note=45 velocity=7 time=0.005208333333333333\n",
      "note_off channel=0 note=45 velocity=64 time=0.16666666666666666\n",
      "control_change channel=0 control=4 value=58 time=0.15625\n",
      "control_change channel=0 control=4 value=28 time=0\n",
      "control_change channel=0 control=4 value=24 time=0.005208333333333333\n",
      "note_on channel=0 note=53 velocity=57 time=0.020833333333333332\n",
      "note_off channel=0 note=53 velocity=64 time=0\n",
      "control_change channel=0 control=4 value=6 time=0.005208333333333333\n",
      "control_change channel=0 control=4 value=0 time=0.020833333333333332\n",
      "control_change channel=0 control=4 value=0 time=0.109375\n",
      "control_change channel=0 control=4 value=127 time=0\n",
      "note_on channel=0 note=44 velocity=126 time=0\n",
      "note_on channel=0 note=38 velocity=110 time=0.046875\n",
      "note_off channel=0 note=38 velocity=64 time=0\n",
      "note_on channel=0 note=53 velocity=76 time=0.020833333333333332\n",
      "note_off channel=0 note=53 velocity=64 time=0\n",
      "note_off channel=0 note=44 velocity=64 time=0.10416666666666666\n",
      "note_on channel=0 note=38 velocity=86 time=0.17708333333333331\n",
      "note_off channel=0 note=38 velocity=64 time=0\n",
      "note_on channel=0 note=36 velocity=68 time=0.17708333333333331\n",
      "note_off channel=0 note=36 velocity=64 time=0\n",
      "note_on channel=0 note=53 velocity=85 time=0.005208333333333333\n",
      "note_off channel=0 note=53 velocity=64 time=0\n",
      "note_on channel=0 note=45 velocity=8 time=0.010416666666666666\n",
      "<meta message track_name name='08 Fill 1\\x00' time=0>\n",
      "<meta message time_signature numerator=4 denominator=4 clocks_per_click=36 notated_32nd_notes_per_beat=8 time=0>\n",
      "<meta message time_signature numerator=4 denominator=4 clocks_per_click=36 notated_32nd_notes_per_beat=8 time=0>\n",
      "control_change channel=0 control=4 value=127 time=0\n",
      "note_on channel=0 note=36 velocity=69 time=0\n",
      "note_off channel=0 note=36 velocity=64 time=0\n",
      "note_on channel=0 note=44 velocity=1 time=0.005208333333333333\n",
      "note_off channel=0 note=44 velocity=64 time=0.0625\n",
      "control_change channel=0 control=4 value=127 time=0.234375\n",
      "control_change channel=0 control=4 value=18 time=0\n",
      "note_on channel=0 note=40 velocity=75 time=0.015625\n",
      "control_change channel=0 control=4 value=6 time=0.010416666666666666\n",
      "note_off channel=0 note=40 velocity=64 time=0.010416666666666666\n",
      "control_change channel=0 control=4 value=1 time=0.015625\n",
      "control_change channel=0 control=4 value=0 time=0.010416666666666666\n",
      "control_change channel=0 control=4 value=0 time=0.109375\n",
      "control_change channel=0 control=4 value=32 time=0\n",
      "control_change channel=0 control=4 value=100 time=0.005208333333333333\n",
      "control_change channel=0 control=4 value=127 time=0.005208333333333333\n",
      "note_on channel=0 note=44 velocity=127 time=0.005208333333333333\n",
      "note_on channel=0 note=39 velocity=127 time=0.005208333333333333\n",
      "note_off channel=0 note=39 velocity=64 time=0.020833333333333332\n",
      "note_off channel=0 note=44 velocity=64 time=0.11979166666666666\n",
      "note_on channel=0 note=40 velocity=86 time=0.16145833333333331\n",
      "note_off channel=0 note=40 velocity=64 time=0.020833333333333332\n",
      "control_change channel=0 control=4 value=127 time=0.06770833333333333\n",
      "control_change channel=0 control=4 value=90 time=0\n",
      "control_change channel=0 control=4 value=103 time=0.03645833333333333\n",
      "control_change channel=0 control=4 value=127 time=0.015625\n",
      "note_on channel=0 note=40 velocity=106 time=0.046875\n",
      "note_on channel=0 note=36 velocity=72 time=0.015625\n",
      "note_off channel=0 note=40 velocity=64 time=0.010416666666666666\n",
      "note_off channel=0 note=36 velocity=64 time=0.010416666666666666\n",
      "note_on channel=0 note=36 velocity=57 time=0.03645833333333333\n",
      "note_off channel=0 note=36 velocity=64 time=0.020833333333333332\n",
      "control_change channel=0 control=4 value=127 time=0.19791666666666666\n",
      "control_change channel=0 control=4 value=21 time=0\n",
      "note_on channel=0 note=40 velocity=83 time=0\n",
      "control_change channel=0 control=4 value=18 time=0.005208333333333333\n",
      "note_off channel=0 note=40 velocity=64 time=0.020833333333333332\n",
      "control_change channel=0 control=4 value=6 time=0.005208333333333333\n",
      "control_change channel=0 control=4 value=1 time=0.020833333333333332\n",
      "control_change channel=0 control=4 value=0 time=0.015625\n",
      "control_change channel=0 control=4 value=0 time=0.11458333333333333\n",
      "control_change channel=0 control=4 value=32 time=0\n",
      "control_change channel=0 control=4 value=59 time=0.005208333333333333\n",
      "control_change channel=0 control=4 value=115 time=0.005208333333333333\n",
      "note_on channel=0 note=44 velocity=81 time=0.005208333333333333\n",
      "note_on channel=0 note=39 velocity=127 time=0.010416666666666666\n",
      "note_off channel=0 note=39 velocity=64 time=0.020833333333333332\n",
      "note_off channel=0 note=44 velocity=64 time=0.140625\n",
      "note_on channel=0 note=39 velocity=127 time=0.13020833333333331\n",
      "note_off channel=0 note=39 velocity=64 time=0.020833333333333332\n",
      "control_change channel=0 control=4 value=115 time=0.03645833333333333\n",
      "control_change channel=0 control=4 value=86 time=0\n",
      "control_change channel=0 control=4 value=87 time=0.026041666666666664\n",
      "control_change channel=0 control=4 value=97 time=0.026041666666666664\n",
      "control_change channel=0 control=4 value=118 time=0.020833333333333332\n",
      "control_change channel=0 control=4 value=127 time=0.020833333333333332\n",
      "control_change channel=0 control=4 value=127 time=0.07291666666666666\n",
      "<meta message track_name name='09 Fill 2\\x00' time=0>\n",
      "<meta message time_signature numerator=4 denominator=4 clocks_per_click=36 notated_32nd_notes_per_beat=8 time=0>\n",
      "<meta message time_signature numerator=4 denominator=4 clocks_per_click=36 notated_32nd_notes_per_beat=8 time=0>\n",
      "control_change channel=0 control=4 value=97 time=0\n",
      "note_on channel=0 note=36 velocity=78 time=0\n",
      "note_off channel=0 note=36 velocity=64 time=0\n",
      "note_on channel=0 note=44 velocity=1 time=0\n",
      "note_on channel=0 note=40 velocity=91 time=0.005208333333333333\n",
      "note_off channel=0 note=40 velocity=64 time=0\n",
      "control_change channel=0 control=4 value=120 time=0.005208333333333333\n",
      "control_change channel=0 control=4 value=127 time=0.015625\n",
      "note_on channel=0 note=43 velocity=11 time=0.09375\n",
      "note_off channel=0 note=44 velocity=64 time=0.005208333333333333\n",
      "note_on channel=0 note=40 velocity=67 time=0.09375\n",
      "note_off channel=0 note=40 velocity=64 time=0\n",
      "note_off channel=0 note=43 velocity=64 time=0.046875\n",
      "note_on channel=0 note=40 velocity=78 time=0.09895833333333333\n",
      "note_off channel=0 note=40 velocity=64 time=0\n",
      "control_change channel=0 control=4 value=127 time=0.03645833333333333\n",
      "control_change channel=0 control=4 value=25 time=0\n",
      "control_change channel=0 control=4 value=21 time=0.005208333333333333\n",
      "control_change channel=0 control=4 value=8 time=0.026041666666666664\n",
      "control_change channel=0 control=4 value=3 time=0.020833333333333332\n",
      "control_change channel=0 control=4 value=1 time=0.03125\n",
      "note_on channel=0 note=44 velocity=116 time=0.015625\n",
      "note_on channel=0 note=38 velocity=115 time=0.005208333333333333\n",
      "note_off channel=0 note=38 velocity=64 time=0\n",
      "control_change channel=0 control=4 value=14 time=0.020833333333333332\n",
      "control_change channel=0 control=4 value=66 time=0.015625\n",
      "control_change channel=0 control=4 value=116 time=0.005208333333333333\n",
      "control_change channel=0 control=4 value=127 time=0.005208333333333333\n",
      "note_off channel=0 note=44 velocity=64 time=0.11979166666666666\n",
      "note_on channel=0 note=40 velocity=78 time=0.03125\n",
      "note_off channel=0 note=40 velocity=64 time=0\n",
      "note_on channel=0 note=40 velocity=87 time=0.13541666666666666\n",
      "note_off channel=0 note=40 velocity=64 time=0\n",
      "control_change channel=0 control=4 value=127 time=0.0625\n",
      "control_change channel=0 control=4 value=92 time=0\n",
      "control_change channel=0 control=4 value=84 time=0.026041666666666664\n",
      "control_change channel=0 control=4 value=107 time=0.05208333333333333\n",
      "control_change channel=0 control=4 value=127 time=0.010416666666666666\n",
      "note_on channel=0 note=36 velocity=87 time=0.005208333333333333\n",
      "note_on channel=0 note=38 velocity=112 time=0.010416666666666666\n",
      "note_off channel=0 note=38 velocity=64 time=0\n",
      "note_off channel=0 note=36 velocity=64 time=0.015625\n",
      "note_on channel=0 note=43 velocity=10 time=0.05208333333333333\n",
      "note_on channel=0 note=40 velocity=108 time=0.078125\n",
      "note_off channel=0 note=40 velocity=64 time=0\n",
      "note_off channel=0 note=43 velocity=64 time=0.09375\n",
      "note_on channel=0 note=40 velocity=114 time=0.09895833333333333\n",
      "note_off channel=0 note=40 velocity=64 time=0\n",
      "control_change channel=0 control=4 value=22 time=0.005208333333333333\n",
      "control_change channel=0 control=4 value=127 time=0\n",
      "control_change channel=0 control=4 value=19 time=0.005208333333333333\n",
      "control_change channel=0 control=4 value=8 time=0.026041666666666664\n",
      "control_change channel=0 control=4 value=2 time=0.026041666666666664\n",
      "control_change channel=0 control=4 value=0 time=0.03125\n",
      "note_on channel=0 note=39 velocity=117 time=0.046875\n",
      "control_change channel=0 control=4 value=14 time=0.005208333333333333\n",
      "note_off channel=0 note=39 velocity=64 time=0\n",
      "control_change channel=0 control=4 value=44 time=0.005208333333333333\n",
      "control_change channel=0 control=4 value=44 time=0.005208333333333333\n",
      "note_on channel=0 note=36 velocity=79 time=0\n",
      "note_on channel=0 note=44 velocity=100 time=0\n",
      "control_change channel=0 control=4 value=127 time=0.005208333333333333\n",
      "note_off channel=0 note=36 velocity=64 time=0.020833333333333332\n",
      "note_off channel=0 note=44 velocity=64 time=0.13541666666666666\n",
      "note_on channel=0 note=38 velocity=108 time=0.005208333333333333\n",
      "note_off channel=0 note=38 velocity=64 time=0\n",
      "note_on channel=0 note=38 velocity=113 time=0.13541666666666666\n",
      "note_off channel=0 note=38 velocity=64 time=0\n",
      "control_change channel=0 control=4 value=127 time=0.078125\n",
      "control_change channel=0 control=4 value=78 time=0\n",
      "control_change channel=0 control=4 value=73 time=0.010416666666666666\n",
      "control_change channel=0 control=4 value=73 time=0.026041666666666664\n",
      "control_change channel=0 control=4 value=94 time=0.03125\n",
      "control_change channel=0 control=4 value=116 time=0.010416666666666666\n",
      "control_change channel=0 control=4 value=127 time=0.010416666666666666\n",
      "control_change channel=0 control=4 value=127 time=0.03125\n",
      "<meta message track_name name='10 Fill 3 \\x00' time=0>\n",
      "<meta message time_signature numerator=4 denominator=4 clocks_per_click=36 notated_32nd_notes_per_beat=8 time=0>\n",
      "<meta message time_signature numerator=4 denominator=4 clocks_per_click=36 notated_32nd_notes_per_beat=8 time=0>\n",
      "control_change channel=0 control=4 value=127 time=0\n",
      "note_on channel=0 note=44 velocity=1 time=0\n",
      "note_on channel=0 note=36 velocity=69 time=0.005208333333333333\n",
      "note_off channel=0 note=36 velocity=64 time=0\n",
      "note_off channel=0 note=44 velocity=64 time=0.07291666666666666\n",
      "note_on channel=0 note=40 velocity=61 time=0.09375\n",
      "note_off channel=0 note=40 velocity=64 time=0\n",
      "control_change channel=0 control=4 value=127 time=0.10416666666666666\n",
      "control_change channel=0 control=4 value=17 time=0\n",
      "control_change channel=0 control=4 value=14 time=0.005208333333333333\n",
      "note_on channel=0 note=40 velocity=81 time=0.015625\n",
      "note_off channel=0 note=40 velocity=64 time=0\n",
      "control_change channel=0 control=4 value=4 time=0.010416666666666666\n",
      "control_change channel=0 control=4 value=0 time=0.020833333333333332\n",
      "control_change channel=0 control=4 value=0 time=0.125\n",
      "control_change channel=0 control=4 value=78 time=0\n",
      "control_change channel=0 control=4 value=123 time=0.005208333333333333\n",
      "note_on channel=0 note=44 velocity=127 time=0\n",
      "control_change channel=0 control=4 value=127 time=0.005208333333333333\n",
      "note_on channel=0 note=39 velocity=127 time=0.010416666666666666\n",
      "note_off channel=0 note=39 velocity=64 time=0.005208333333333333\n",
      "note_off channel=0 note=44 velocity=64 time=0.125\n",
      "note_on channel=0 note=40 velocity=65 time=0.078125\n",
      "note_off channel=0 note=40 velocity=64 time=0\n",
      "control_change channel=0 control=4 value=127 time=0.109375\n",
      "control_change channel=0 control=4 value=72 time=0\n",
      "control_change channel=0 control=4 value=69 time=0.005208333333333333\n",
      "control_change channel=0 control=4 value=55 time=0.020833333333333332\n",
      "control_change channel=0 control=4 value=48 time=0.026041666666666664\n",
      "note_on channel=0 note=40 velocity=68 time=0.005208333333333333\n",
      "note_off channel=0 note=40 velocity=64 time=0\n",
      "control_change channel=0 control=4 value=70 time=0.041666666666666664\n",
      "note_on channel=0 note=44 velocity=5 time=0.010416666666666666\n",
      "control_change channel=0 control=4 value=92 time=0.005208333333333333\n",
      "control_change channel=0 control=4 value=113 time=0.010416666666666666\n",
      "control_change channel=0 control=4 value=127 time=0.010416666666666666\n",
      "note_on channel=0 note=36 velocity=75 time=0.0625\n",
      "note_off channel=0 note=36 velocity=64 time=0\n",
      "note_on channel=0 note=43 velocity=11 time=0.005208333333333333\n",
      "note_on channel=0 note=40 velocity=56 time=0.020833333333333332\n",
      "note_off channel=0 note=40 velocity=64 time=0\n",
      "note_off channel=0 note=44 velocity=64 time=0.041666666666666664\n",
      "note_on channel=0 note=40 velocity=71 time=0.10416666666666666\n",
      "note_off channel=0 note=40 velocity=64 time=0\n",
      "note_off channel=0 note=43 velocity=64 time=0\n",
      "control_change channel=0 control=4 value=127 time=0.11979166666666666\n",
      "control_change channel=0 control=4 value=16 time=0\n",
      "control_change channel=0 control=4 value=14 time=0.005208333333333333\n",
      "control_change channel=0 control=4 value=14 time=0.020833333333333332\n",
      "note_on channel=0 note=40 velocity=69 time=0.020833333333333332\n",
      "note_off channel=0 note=40 velocity=64 time=0\n",
      "control_change channel=0 control=4 value=0 time=0.005208333333333333\n",
      "control_change channel=0 control=4 value=34 time=0.13541666666666666\n",
      "control_change channel=0 control=4 value=0 time=0\n",
      "control_change channel=0 control=4 value=56 time=0.005208333333333333\n",
      "control_change channel=0 control=4 value=125 time=0.005208333333333333\n",
      "note_on channel=0 note=44 velocity=127 time=0\n",
      "note_on channel=0 note=39 velocity=127 time=0.015625\n",
      "note_off channel=0 note=39 velocity=64 time=0\n",
      "note_off channel=0 note=44 velocity=64 time=0.11979166666666666\n",
      "note_on channel=0 note=40 velocity=66 time=0.05208333333333333\n"
     ]
    },
    {
     "name": "stdout",
     "output_type": "stream",
     "text": [
      "note_off channel=0 note=40 velocity=64 time=0\n",
      "control_change channel=0 control=4 value=125 time=0.15625\n",
      "control_change channel=0 control=4 value=68 time=0\n",
      "note_on channel=0 note=40 velocity=86 time=0\n",
      "note_off channel=0 note=40 velocity=64 time=0\n",
      "control_change channel=0 control=4 value=60 time=0.026041666666666664\n",
      "control_change channel=0 control=4 value=73 time=0.046875\n",
      "note_on channel=0 note=44 velocity=3 time=0.015625\n",
      "control_change channel=0 control=4 value=95 time=0.005208333333333333\n",
      "control_change channel=0 control=4 value=118 time=0.020833333333333332\n",
      "control_change channel=0 control=4 value=127 time=0.015625\n",
      "note_on channel=0 note=40 velocity=55 time=0.046875\n",
      "<meta message track_name name='01 8th Hat\\x00' time=0>\n",
      "<meta message time_signature numerator=4 denominator=4 clocks_per_click=36 notated_32nd_notes_per_beat=8 time=0>\n",
      "<meta message time_signature numerator=4 denominator=4 clocks_per_click=36 notated_32nd_notes_per_beat=8 time=0>\n",
      "control_change channel=0 control=4 value=127 time=0\n",
      "note_on channel=0 note=36 velocity=58 time=0\n",
      "note_on channel=0 note=66 velocity=96 time=0\n",
      "control_change channel=0 control=4 value=101 time=0.05208333333333333\n",
      "control_change channel=0 control=4 value=96 time=0.010416666666666666\n",
      "control_change channel=0 control=4 value=91 time=0.010416666666666666\n",
      "note_off channel=0 note=66 velocity=64 time=0.005208333333333333\n",
      "note_off channel=0 note=36 velocity=64 time=0.005208333333333333\n",
      "control_change channel=0 control=4 value=97 time=0.015625\n",
      "control_change channel=0 control=4 value=97 time=0.078125\n",
      "control_change channel=0 control=4 value=102 time=0\n",
      "control_change channel=0 control=4 value=107 time=0.010416666666666666\n",
      "control_change channel=0 control=4 value=115 time=0.010416666666666666\n",
      "control_change channel=0 control=4 value=127 time=0.015625\n",
      "control_change channel=0 control=4 value=35 time=0.19270833333333331\n",
      "control_change channel=0 control=4 value=127 time=0\n",
      "control_change channel=0 control=4 value=28 time=0.015625\n",
      "control_change channel=0 control=4 value=25 time=0.010416666666666666\n",
      "control_change channel=0 control=4 value=39 time=0.041666666666666664\n",
      "control_change channel=0 control=4 value=76 time=0.005208333333333333\n",
      "control_change channel=0 control=4 value=127 time=0.010416666666666666\n",
      "note_on channel=0 note=36 velocity=57 time=0.005208333333333333\n",
      "note_on channel=0 note=38 velocity=69 time=0\n",
      "note_on channel=0 note=39 velocity=105 time=0\n",
      "note_on channel=0 note=44 velocity=115 time=0\n",
      "note_on channel=0 note=66 velocity=95 time=0.005208333333333333\n",
      "note_off channel=0 note=38 velocity=64 time=0.07291666666666666\n",
      "note_off channel=0 note=39 velocity=64 time=0\n",
      "note_off channel=0 note=44 velocity=64 time=0\n",
      "note_off channel=0 note=66 velocity=64 time=0.015625\n",
      "note_off channel=0 note=36 velocity=64 time=0.057291666666666664\n",
      "note_on channel=0 note=66 velocity=81 time=0.203125\n",
      "note_off channel=0 note=66 velocity=64 time=0.07291666666666666\n",
      "control_change channel=0 control=4 value=127 time=0.046875\n",
      "control_change channel=0 control=4 value=127 time=0\n",
      "control_change channel=0 control=4 value=121 time=0.026041666666666664\n",
      "note_on channel=0 note=36 velocity=58 time=0\n",
      "note_on channel=0 note=44 velocity=38 time=0\n",
      "note_on channel=0 note=66 velocity=93 time=0\n",
      "control_change channel=0 control=4 value=127 time=0.010416666666666666\n",
      "control_change channel=0 control=4 value=100 time=0.041666666666666664\n",
      "control_change channel=0 control=4 value=99 time=0.010416666666666666\n",
      "control_change channel=0 control=4 value=91 time=0.015625\n",
      "note_off channel=0 note=66 velocity=64 time=0\n",
      "note_off channel=0 note=36 velocity=64 time=0.005208333333333333\n",
      "note_off channel=0 note=44 velocity=64 time=0\n",
      "control_change channel=0 control=4 value=99 time=0.015625\n",
      "control_change channel=0 control=4 value=101 time=0.015625\n",
      "control_change channel=0 control=4 value=96 time=0.020833333333333332\n",
      "control_change channel=0 control=4 value=95 time=0.015625\n",
      "control_change channel=0 control=4 value=101 time=0.041666666666666664\n",
      "control_change channel=0 control=4 value=105 time=0.015625\n",
      "control_change channel=0 control=4 value=118 time=0.010416666666666666\n",
      "control_change channel=0 control=4 value=127 time=0.015625\n",
      "note_on channel=0 note=38 velocity=57 time=0.11979166666666666\n",
      "control_change channel=0 control=4 value=37 time=0.057291666666666664\n",
      "control_change channel=0 control=4 value=127 time=0\n",
      "control_change channel=0 control=4 value=29 time=0.010416666666666666\n",
      "control_change channel=0 control=4 value=26 time=0.015625\n",
      "note_off channel=0 note=38 velocity=64 time=0\n",
      "control_change channel=0 control=4 value=48 time=0.03645833333333333\n",
      "control_change channel=0 control=4 value=120 time=0.005208333333333333\n",
      "control_change channel=0 control=4 value=127 time=0.005208333333333333\n",
      "note_on channel=0 note=44 velocity=112 time=0.005208333333333333\n",
      "note_on channel=0 note=36 velocity=57 time=0.005208333333333333\n",
      "note_on channel=0 note=66 velocity=92 time=0.010416666666666666\n",
      "note_on channel=0 note=38 velocity=74 time=0.005208333333333333\n",
      "note_on channel=0 note=39 velocity=105 time=0.010416666666666666\n",
      "note_off channel=0 note=36 velocity=64 time=0.05208333333333333\n",
      "note_off channel=0 note=44 velocity=64 time=0\n",
      "note_off channel=0 note=38 velocity=64 time=0.020833333333333332\n",
      "note_off channel=0 note=66 velocity=64 time=0\n",
      "note_off channel=0 note=39 velocity=64 time=0.005208333333333333\n",
      "note_on channel=0 note=66 velocity=81 time=0.2552083333333333\n",
      "note_off channel=0 note=66 velocity=64 time=0.078125\n",
      "control_change channel=0 control=4 value=127 time=0.03645833333333333\n",
      "control_change channel=0 control=4 value=79 time=0\n",
      "control_change channel=0 control=4 value=78 time=0.015625\n",
      "<meta message track_name name='02 8th Ride\\x00' time=0>\n",
      "<meta message time_signature numerator=4 denominator=4 clocks_per_click=36 notated_32nd_notes_per_beat=8 time=0>\n",
      "<meta message time_signature numerator=4 denominator=4 clocks_per_click=36 notated_32nd_notes_per_beat=8 time=0>\n",
      "control_change channel=0 control=4 value=127 time=0\n",
      "note_on channel=0 note=36 velocity=56 time=0\n",
      "note_on channel=0 note=51 velocity=82 time=0\n",
      "note_on channel=0 note=44 velocity=15 time=0.015625\n",
      "control_change channel=0 control=4 value=110 time=0.026041666666666664\n",
      "control_change channel=0 control=4 value=120 time=0.015625\n",
      "control_change channel=0 control=4 value=121 time=0.015625\n",
      "note_off channel=0 note=36 velocity=64 time=0\n",
      "note_off channel=0 note=51 velocity=64 time=0\n",
      "note_off channel=0 note=44 velocity=64 time=0.010416666666666666\n",
      "control_change channel=0 control=4 value=127 time=0.041666666666666664\n",
      "control_change channel=0 control=4 value=127 time=0.2552083333333333\n",
      "control_change channel=0 control=4 value=38 time=0\n",
      "control_change channel=0 control=4 value=31 time=0.015625\n",
      "control_change channel=0 control=4 value=29 time=0.010416666666666666\n",
      "control_change channel=0 control=4 value=50 time=0.020833333333333332\n",
      "control_change channel=0 control=4 value=90 time=0.010416666666666666\n",
      "control_change channel=0 control=4 value=121 time=0.005208333333333333\n",
      "control_change channel=0 control=4 value=127 time=0.010416666666666666\n",
      "note_on channel=0 note=36 velocity=53 time=0.041666666666666664\n",
      "note_on channel=0 note=38 velocity=92 time=0\n",
      "note_on channel=0 note=39 velocity=87 time=0\n",
      "note_on channel=0 note=44 velocity=87 time=0.005208333333333333\n",
      "note_on channel=0 note=51 velocity=81 time=0\n",
      "note_off channel=0 note=39 velocity=64 time=0.06770833333333333\n",
      "note_off channel=0 note=44 velocity=64 time=0.005208333333333333\n",
      "note_off channel=0 note=36 velocity=64 time=0.005208333333333333\n",
      "note_off channel=0 note=38 velocity=64 time=0.010416666666666666\n",
      "note_off channel=0 note=51 velocity=64 time=0\n",
      "note_on channel=0 note=51 velocity=62 time=0.24479166666666666\n",
      "note_off channel=0 note=51 velocity=64 time=0.08333333333333333\n",
      "control_change channel=0 control=4 value=127 time=0.005208333333333333\n",
      "control_change channel=0 control=4 value=78 time=0\n",
      "control_change channel=0 control=4 value=106 time=0.020833333333333332\n",
      "control_change channel=0 control=4 value=127 time=0.005208333333333333\n",
      "note_on channel=0 note=36 velocity=55 time=0.03645833333333333\n",
      "note_on channel=0 note=51 velocity=81 time=0\n",
      "note_on channel=0 note=44 velocity=25 time=0.015625\n",
      "control_change channel=0 control=4 value=127 time=0.057291666666666664\n",
      "control_change channel=0 control=4 value=125 time=0\n",
      "note_off channel=0 note=51 velocity=64 time=0\n",
      "control_change channel=0 control=4 value=127 time=0.010416666666666666\n",
      "note_off channel=0 note=36 velocity=64 time=0.005208333333333333\n",
      "note_off channel=0 note=44 velocity=64 time=0\n",
      "note_on channel=0 note=38 velocity=74 time=0.2708333333333333\n",
      "control_change channel=0 control=4 value=127 time=0.03125\n",
      "control_change channel=0 control=4 value=38 time=0\n",
      "control_change channel=0 control=4 value=30 time=0.010416666666666666\n",
      "control_change channel=0 control=4 value=27 time=0.015625\n",
      "note_off channel=0 note=38 velocity=64 time=0.015625\n",
      "control_change channel=0 control=4 value=42 time=0.005208333333333333\n",
      "control_change channel=0 control=4 value=89 time=0.005208333333333333\n",
      "control_change channel=0 control=4 value=127 time=0.005208333333333333\n",
      "note_on channel=0 note=36 velocity=50 time=0.046875\n",
      "note_on channel=0 note=44 velocity=93 time=0.005208333333333333\n",
      "note_on channel=0 note=38 velocity=90 time=0.005208333333333333\n",
      "note_on channel=0 note=39 velocity=85 time=0\n",
      "note_on channel=0 note=51 velocity=81 time=0\n",
      "note_off channel=0 note=36 velocity=64 time=0.06770833333333333\n",
      "note_off channel=0 note=44 velocity=64 time=0.010416666666666666\n",
      "note_off channel=0 note=38 velocity=64 time=0.010416666666666666\n",
      "note_off channel=0 note=39 velocity=64 time=0\n",
      "note_off channel=0 note=51 velocity=64 time=0\n",
      "note_on channel=0 note=51 velocity=64 time=0.2552083333333333\n",
      "note_off channel=0 note=51 velocity=64 time=0.08333333333333333\n",
      "control_change channel=0 control=4 value=127 time=0.005208333333333333\n",
      "control_change channel=0 control=4 value=79 time=0\n",
      "control_change channel=0 control=4 value=90 time=0.010416666666666666\n",
      "control_change channel=0 control=4 value=112 time=0.010416666666666666\n",
      "control_change channel=0 control=4 value=127 time=0.005208333333333333\n",
      "note_on channel=0 note=36 velocity=50 time=0.041666666666666664\n",
      "<meta message track_name name='03 8th Ride\\x00' time=0>\n",
      "<meta message time_signature numerator=4 denominator=4 clocks_per_click=36 notated_32nd_notes_per_beat=8 time=0>\n",
      "<meta message time_signature numerator=4 denominator=4 clocks_per_click=36 notated_32nd_notes_per_beat=8 time=0>\n",
      "control_change channel=0 control=4 value=127 time=0\n",
      "note_on channel=0 note=36 velocity=61 time=0\n",
      "note_on channel=0 note=51 velocity=108 time=0\n",
      "control_change channel=0 control=4 value=101 time=0.05208333333333333\n",
      "control_change channel=0 control=4 value=96 time=0.010416666666666666\n",
      "control_change channel=0 control=4 value=91 time=0.010416666666666666\n",
      "note_off channel=0 note=51 velocity=64 time=0.005208333333333333\n",
      "note_off channel=0 note=36 velocity=64 time=0.005208333333333333\n",
      "control_change channel=0 control=4 value=97 time=0.015625\n",
      "control_change channel=0 control=4 value=97 time=0.078125\n",
      "control_change channel=0 control=4 value=102 time=0\n",
      "control_change channel=0 control=4 value=107 time=0.010416666666666666\n",
      "control_change channel=0 control=4 value=115 time=0.010416666666666666\n",
      "control_change channel=0 control=4 value=127 time=0.015625\n",
      "control_change channel=0 control=4 value=35 time=0.19270833333333331\n",
      "control_change channel=0 control=4 value=127 time=0\n",
      "control_change channel=0 control=4 value=28 time=0.015625\n",
      "control_change channel=0 control=4 value=25 time=0.010416666666666666\n",
      "control_change channel=0 control=4 value=39 time=0.041666666666666664\n",
      "control_change channel=0 control=4 value=76 time=0.005208333333333333\n",
      "control_change channel=0 control=4 value=127 time=0.010416666666666666\n",
      "note_on channel=0 note=36 velocity=61 time=0.005208333333333333\n",
      "note_on channel=0 note=38 velocity=69 time=0\n",
      "note_on channel=0 note=39 velocity=105 time=0\n",
      "note_on channel=0 note=44 velocity=115 time=0\n",
      "note_on channel=0 note=51 velocity=107 time=0.005208333333333333\n",
      "note_off channel=0 note=38 velocity=64 time=0.07291666666666666\n",
      "note_off channel=0 note=39 velocity=64 time=0\n",
      "note_off channel=0 note=44 velocity=64 time=0\n",
      "note_off channel=0 note=51 velocity=64 time=0.015625\n",
      "note_off channel=0 note=36 velocity=64 time=0.057291666666666664\n",
      "note_on channel=0 note=51 velocity=92 time=0.203125\n",
      "note_off channel=0 note=51 velocity=64 time=0.07291666666666666\n",
      "control_change channel=0 control=4 value=127 time=0.046875\n",
      "control_change channel=0 control=4 value=127 time=0\n",
      "control_change channel=0 control=4 value=121 time=0.026041666666666664\n",
      "note_on channel=0 note=36 velocity=61 time=0\n",
      "note_on channel=0 note=44 velocity=38 time=0\n",
      "note_on channel=0 note=51 velocity=105 time=0\n",
      "control_change channel=0 control=4 value=127 time=0.010416666666666666\n",
      "control_change channel=0 control=4 value=100 time=0.041666666666666664\n",
      "control_change channel=0 control=4 value=99 time=0.010416666666666666\n",
      "control_change channel=0 control=4 value=91 time=0.015625\n",
      "note_off channel=0 note=51 velocity=64 time=0\n",
      "note_off channel=0 note=36 velocity=64 time=0.005208333333333333\n",
      "note_off channel=0 note=44 velocity=64 time=0\n",
      "control_change channel=0 control=4 value=99 time=0.015625\n",
      "control_change channel=0 control=4 value=101 time=0.015625\n",
      "control_change channel=0 control=4 value=96 time=0.020833333333333332\n",
      "control_change channel=0 control=4 value=95 time=0.015625\n",
      "control_change channel=0 control=4 value=101 time=0.041666666666666664\n",
      "control_change channel=0 control=4 value=105 time=0.015625\n",
      "control_change channel=0 control=4 value=118 time=0.010416666666666666\n",
      "control_change channel=0 control=4 value=127 time=0.015625\n",
      "note_on channel=0 note=38 velocity=57 time=0.11979166666666666\n",
      "control_change channel=0 control=4 value=37 time=0.057291666666666664\n",
      "control_change channel=0 control=4 value=127 time=0\n",
      "control_change channel=0 control=4 value=29 time=0.010416666666666666\n",
      "control_change channel=0 control=4 value=26 time=0.015625\n",
      "note_off channel=0 note=38 velocity=64 time=0\n",
      "control_change channel=0 control=4 value=48 time=0.03645833333333333\n",
      "control_change channel=0 control=4 value=120 time=0.005208333333333333\n",
      "control_change channel=0 control=4 value=127 time=0.005208333333333333\n",
      "note_on channel=0 note=44 velocity=112 time=0.005208333333333333\n",
      "note_on channel=0 note=36 velocity=61 time=0.005208333333333333\n",
      "note_on channel=0 note=51 velocity=104 time=0.010416666666666666\n",
      "note_on channel=0 note=38 velocity=74 time=0.005208333333333333\n",
      "note_on channel=0 note=39 velocity=105 time=0\n",
      "note_off channel=0 note=36 velocity=64 time=0.0625\n",
      "note_off channel=0 note=44 velocity=64 time=0\n",
      "note_off channel=0 note=38 velocity=64 time=0.020833333333333332\n",
      "note_off channel=0 note=39 velocity=64 time=0\n",
      "note_off channel=0 note=51 velocity=64 time=0\n",
      "note_on channel=0 note=51 velocity=91 time=0.26041666666666663\n",
      "note_off channel=0 note=51 velocity=64 time=0.078125\n",
      "control_change channel=0 control=4 value=127 time=0.03645833333333333\n",
      "control_change channel=0 control=4 value=79 time=0\n",
      "control_change channel=0 control=4 value=78 time=0.015625\n",
      "<meta message track_name name='04 8th Perc\\x00' time=0>\n",
      "<meta message time_signature numerator=4 denominator=4 clocks_per_click=36 notated_32nd_notes_per_beat=8 time=0>\n",
      "<meta message time_signature numerator=4 denominator=4 clocks_per_click=36 notated_32nd_notes_per_beat=8 time=0>\n",
      "control_change channel=0 control=4 value=127 time=0\n",
      "note_on channel=0 note=36 velocity=59 time=0\n",
      "note_on channel=0 note=64 velocity=82 time=0\n",
      "note_on channel=0 note=32 velocity=6 time=0.015625\n",
      "note_on channel=0 note=44 velocity=15 time=0\n",
      "control_change channel=0 control=4 value=110 time=0.026041666666666664\n",
      "control_change channel=0 control=4 value=120 time=0.015625\n",
      "control_change channel=0 control=4 value=121 time=0.015625\n",
      "note_off channel=0 note=36 velocity=64 time=0\n",
      "note_off channel=0 note=64 velocity=64 time=0\n",
      "note_off channel=0 note=32 velocity=64 time=0.010416666666666666\n",
      "note_off channel=0 note=44 velocity=64 time=0\n",
      "control_change channel=0 control=4 value=127 time=0.041666666666666664\n",
      "control_change channel=0 control=4 value=127 time=0.2552083333333333\n",
      "control_change channel=0 control=4 value=38 time=0\n",
      "control_change channel=0 control=4 value=31 time=0.015625\n",
      "control_change channel=0 control=4 value=29 time=0.010416666666666666\n",
      "control_change channel=0 control=4 value=50 time=0.020833333333333332\n",
      "control_change channel=0 control=4 value=90 time=0.010416666666666666\n",
      "control_change channel=0 control=4 value=121 time=0.005208333333333333\n",
      "control_change channel=0 control=4 value=127 time=0.010416666666666666\n",
      "note_on channel=0 note=36 velocity=57 time=0.041666666666666664\n",
      "note_on channel=0 note=38 velocity=92 time=0\n",
      "note_on channel=0 note=39 velocity=87 time=0\n",
      "note_on channel=0 note=31 velocity=100 time=0.005208333333333333\n",
      "note_on channel=0 note=44 velocity=87 time=0\n",
      "note_on channel=0 note=64 velocity=81 time=0\n",
      "note_off channel=0 note=39 velocity=64 time=0.06770833333333333\n",
      "note_off channel=0 note=31 velocity=64 time=0.005208333333333333\n",
      "note_off channel=0 note=44 velocity=64 time=0\n",
      "note_off channel=0 note=36 velocity=64 time=0.005208333333333333\n",
      "note_off channel=0 note=38 velocity=64 time=0.010416666666666666\n",
      "note_off channel=0 note=64 velocity=64 time=0\n",
      "note_on channel=0 note=64 velocity=62 time=0.24479166666666666\n",
      "note_off channel=0 note=64 velocity=64 time=0.08333333333333333\n",
      "control_change channel=0 control=4 value=127 time=0.005208333333333333\n",
      "control_change channel=0 control=4 value=78 time=0\n",
      "control_change channel=0 control=4 value=106 time=0.020833333333333332\n",
      "control_change channel=0 control=4 value=127 time=0.005208333333333333\n",
      "note_on channel=0 note=36 velocity=58 time=0.03645833333333333\n",
      "note_on channel=0 note=64 velocity=81 time=0\n",
      "note_on channel=0 note=32 velocity=6 time=0.015625\n",
      "note_on channel=0 note=44 velocity=25 time=0\n",
      "control_change channel=0 control=4 value=127 time=0.057291666666666664\n",
      "control_change channel=0 control=4 value=125 time=0\n",
      "note_off channel=0 note=64 velocity=64 time=0\n",
      "control_change channel=0 control=4 value=127 time=0.010416666666666666\n",
      "note_off channel=0 note=32 velocity=64 time=0.005208333333333333\n",
      "note_off channel=0 note=36 velocity=64 time=0\n",
      "note_off channel=0 note=44 velocity=64 time=0\n",
      "note_on channel=0 note=38 velocity=74 time=0.2708333333333333\n",
      "control_change channel=0 control=4 value=127 time=0.03125\n",
      "control_change channel=0 control=4 value=38 time=0\n",
      "control_change channel=0 control=4 value=30 time=0.010416666666666666\n",
      "control_change channel=0 control=4 value=27 time=0.015625\n",
      "note_off channel=0 note=38 velocity=64 time=0.015625\n",
      "control_change channel=0 control=4 value=42 time=0.005208333333333333\n",
      "control_change channel=0 control=4 value=89 time=0.005208333333333333\n",
      "control_change channel=0 control=4 value=127 time=0.005208333333333333\n",
      "note_on channel=0 note=36 velocity=53 time=0.046875\n",
      "note_on channel=0 note=31 velocity=107 time=0.005208333333333333\n",
      "note_on channel=0 note=44 velocity=93 time=0\n",
      "note_on channel=0 note=38 velocity=90 time=0.005208333333333333\n",
      "note_on channel=0 note=39 velocity=85 time=0\n",
      "note_on channel=0 note=64 velocity=81 time=0\n",
      "note_off channel=0 note=36 velocity=64 time=0.06770833333333333\n",
      "note_off channel=0 note=31 velocity=64 time=0.010416666666666666\n",
      "note_off channel=0 note=44 velocity=64 time=0\n",
      "note_off channel=0 note=38 velocity=64 time=0.010416666666666666\n",
      "note_off channel=0 note=39 velocity=64 time=0\n",
      "note_off channel=0 note=64 velocity=64 time=0\n",
      "note_on channel=0 note=64 velocity=64 time=0.2552083333333333\n",
      "note_off channel=0 note=64 velocity=64 time=0.08333333333333333\n",
      "control_change channel=0 control=4 value=127 time=0.005208333333333333\n",
      "control_change channel=0 control=4 value=79 time=0\n",
      "control_change channel=0 control=4 value=90 time=0.010416666666666666\n",
      "control_change channel=0 control=4 value=112 time=0.010416666666666666\n",
      "control_change channel=0 control=4 value=127 time=0.005208333333333333\n",
      "note_on channel=0 note=36 velocity=52 time=0.041666666666666664\n",
      "<meta message track_name name='05 8th Ride\\x00' time=0>\n",
      "<meta message time_signature numerator=4 denominator=4 clocks_per_click=36 notated_32nd_notes_per_beat=8 time=0>\n",
      "<meta message time_signature numerator=4 denominator=4 clocks_per_click=36 notated_32nd_notes_per_beat=8 time=0>\n",
      "control_change channel=0 control=4 value=127 time=0\n",
      "note_on channel=0 note=36 velocity=59 time=0\n",
      "note_on channel=0 note=57 velocity=74 time=0\n",
      "control_change channel=0 control=4 value=101 time=0.05208333333333333\n",
      "control_change channel=0 control=4 value=96 time=0.010416666666666666\n",
      "control_change channel=0 control=4 value=91 time=0.010416666666666666\n",
      "note_off channel=0 note=57 velocity=64 time=0.005208333333333333\n",
      "note_off channel=0 note=36 velocity=64 time=0.005208333333333333\n",
      "control_change channel=0 control=4 value=97 time=0.015625\n",
      "control_change channel=0 control=4 value=97 time=0.078125\n",
      "control_change channel=0 control=4 value=102 time=0\n",
      "control_change channel=0 control=4 value=107 time=0.010416666666666666\n",
      "control_change channel=0 control=4 value=115 time=0.010416666666666666\n",
      "control_change channel=0 control=4 value=127 time=0.015625\n",
      "control_change channel=0 control=4 value=35 time=0.19270833333333331\n",
      "control_change channel=0 control=4 value=127 time=0\n",
      "control_change channel=0 control=4 value=28 time=0.015625\n",
      "control_change channel=0 control=4 value=25 time=0.010416666666666666\n",
      "control_change channel=0 control=4 value=39 time=0.041666666666666664\n",
      "control_change channel=0 control=4 value=76 time=0.005208333333333333\n",
      "control_change channel=0 control=4 value=127 time=0.010416666666666666\n",
      "note_on channel=0 note=36 velocity=58 time=0.005208333333333333\n",
      "note_on channel=0 note=38 velocity=69 time=0\n",
      "note_on channel=0 note=39 velocity=105 time=0\n",
      "note_on channel=0 note=44 velocity=115 time=0\n",
      "note_on channel=0 note=57 velocity=74 time=0.005208333333333333\n",
      "note_off channel=0 note=38 velocity=64 time=0.07291666666666666\n",
      "note_off channel=0 note=39 velocity=64 time=0\n",
      "note_off channel=0 note=44 velocity=64 time=0\n",
      "note_off channel=0 note=57 velocity=64 time=0.015625\n",
      "note_off channel=0 note=36 velocity=64 time=0.057291666666666664\n",
      "note_on channel=0 note=57 velocity=63 time=0.203125\n",
      "note_off channel=0 note=57 velocity=64 time=0.07291666666666666\n",
      "control_change channel=0 control=4 value=127 time=0.046875\n",
      "control_change channel=0 control=4 value=127 time=0\n",
      "control_change channel=0 control=4 value=121 time=0.026041666666666664\n",
      "note_on channel=0 note=36 velocity=59 time=0\n",
      "note_on channel=0 note=44 velocity=38 time=0\n",
      "note_on channel=0 note=57 velocity=73 time=0\n",
      "control_change channel=0 control=4 value=127 time=0.010416666666666666\n",
      "control_change channel=0 control=4 value=100 time=0.041666666666666664\n",
      "control_change channel=0 control=4 value=99 time=0.010416666666666666\n",
      "control_change channel=0 control=4 value=91 time=0.015625\n",
      "note_off channel=0 note=57 velocity=64 time=0\n",
      "note_off channel=0 note=36 velocity=64 time=0.005208333333333333\n",
      "note_off channel=0 note=44 velocity=64 time=0\n",
      "control_change channel=0 control=4 value=99 time=0.015625\n",
      "control_change channel=0 control=4 value=101 time=0.015625\n",
      "control_change channel=0 control=4 value=96 time=0.020833333333333332\n",
      "control_change channel=0 control=4 value=95 time=0.015625\n",
      "control_change channel=0 control=4 value=101 time=0.041666666666666664\n",
      "control_change channel=0 control=4 value=105 time=0.015625\n",
      "control_change channel=0 control=4 value=118 time=0.010416666666666666\n",
      "control_change channel=0 control=4 value=127 time=0.015625\n",
      "note_on channel=0 note=38 velocity=57 time=0.11979166666666666\n",
      "control_change channel=0 control=4 value=37 time=0.057291666666666664\n",
      "control_change channel=0 control=4 value=127 time=0\n",
      "control_change channel=0 control=4 value=29 time=0.010416666666666666\n",
      "control_change channel=0 control=4 value=26 time=0.015625\n",
      "note_off channel=0 note=38 velocity=64 time=0\n",
      "control_change channel=0 control=4 value=48 time=0.03645833333333333\n",
      "control_change channel=0 control=4 value=120 time=0.005208333333333333\n",
      "control_change channel=0 control=4 value=127 time=0.005208333333333333\n",
      "note_on channel=0 note=44 velocity=112 time=0.005208333333333333\n",
      "note_on channel=0 note=36 velocity=58 time=0.005208333333333333\n",
      "note_on channel=0 note=57 velocity=71 time=0.010416666666666666\n",
      "note_on channel=0 note=38 velocity=74 time=0.005208333333333333\n",
      "note_on channel=0 note=39 velocity=105 time=0\n",
      "note_off channel=0 note=36 velocity=64 time=0.0625\n",
      "note_off channel=0 note=44 velocity=64 time=0\n",
      "note_off channel=0 note=38 velocity=64 time=0.020833333333333332\n",
      "note_off channel=0 note=39 velocity=64 time=0\n",
      "note_off channel=0 note=57 velocity=64 time=0\n",
      "note_on channel=0 note=57 velocity=63 time=0.26041666666666663\n",
      "note_off channel=0 note=57 velocity=64 time=0.078125\n",
      "control_change channel=0 control=4 value=127 time=0.03645833333333333\n",
      "control_change channel=0 control=4 value=79 time=0\n",
      "control_change channel=0 control=4 value=78 time=0.015625\n"
     ]
    },
    {
     "name": "stdout",
     "output_type": "stream",
     "text": [
      "<meta message track_name name='06 8th hat\\x00' time=0>\n",
      "<meta message time_signature numerator=4 denominator=4 clocks_per_click=36 notated_32nd_notes_per_beat=8 time=0>\n",
      "<meta message time_signature numerator=4 denominator=4 clocks_per_click=36 notated_32nd_notes_per_beat=8 time=0>\n",
      "control_change channel=0 control=4 value=127 time=0\n",
      "note_on channel=0 note=36 velocity=60 time=0\n",
      "note_on channel=0 note=46 velocity=79 time=0\n",
      "control_change channel=0 control=4 value=101 time=0.05208333333333333\n",
      "control_change channel=0 control=4 value=96 time=0.010416666666666666\n",
      "control_change channel=0 control=4 value=91 time=0.010416666666666666\n",
      "note_off channel=0 note=46 velocity=64 time=0.005208333333333333\n",
      "note_off channel=0 note=36 velocity=64 time=0.005208333333333333\n",
      "control_change channel=0 control=4 value=97 time=0.015625\n",
      "control_change channel=0 control=4 value=97 time=0.078125\n",
      "control_change channel=0 control=4 value=102 time=0\n",
      "control_change channel=0 control=4 value=107 time=0.010416666666666666\n",
      "control_change channel=0 control=4 value=115 time=0.010416666666666666\n",
      "control_change channel=0 control=4 value=127 time=0.015625\n",
      "control_change channel=0 control=4 value=35 time=0.19270833333333331\n",
      "control_change channel=0 control=4 value=127 time=0\n",
      "control_change channel=0 control=4 value=28 time=0.015625\n",
      "control_change channel=0 control=4 value=25 time=0.010416666666666666\n",
      "control_change channel=0 control=4 value=39 time=0.041666666666666664\n",
      "control_change channel=0 control=4 value=76 time=0.005208333333333333\n",
      "control_change channel=0 control=4 value=127 time=0.010416666666666666\n",
      "note_on channel=0 note=36 velocity=59 time=0.005208333333333333\n",
      "note_on channel=0 note=38 velocity=69 time=0\n",
      "note_on channel=0 note=39 velocity=105 time=0\n",
      "note_on channel=0 note=44 velocity=115 time=0\n",
      "note_on channel=0 note=46 velocity=78 time=0.005208333333333333\n",
      "note_off channel=0 note=38 velocity=64 time=0.07291666666666666\n",
      "note_off channel=0 note=39 velocity=64 time=0\n",
      "note_off channel=0 note=44 velocity=64 time=0\n",
      "note_off channel=0 note=46 velocity=64 time=0.015625\n",
      "note_off channel=0 note=36 velocity=64 time=0.057291666666666664\n",
      "note_on channel=0 note=46 velocity=67 time=0.203125\n",
      "note_off channel=0 note=46 velocity=64 time=0.07291666666666666\n",
      "control_change channel=0 control=4 value=127 time=0.046875\n",
      "control_change channel=0 control=4 value=127 time=0\n",
      "control_change channel=0 control=4 value=121 time=0.026041666666666664\n",
      "note_on channel=0 note=36 velocity=60 time=0\n",
      "note_on channel=0 note=46 velocity=77 time=0\n",
      "control_change channel=0 control=4 value=127 time=0.010416666666666666\n",
      "control_change channel=0 control=4 value=100 time=0.041666666666666664\n",
      "control_change channel=0 control=4 value=99 time=0.010416666666666666\n",
      "control_change channel=0 control=4 value=91 time=0.015625\n",
      "note_off channel=0 note=46 velocity=64 time=0\n",
      "note_off channel=0 note=36 velocity=64 time=0.005208333333333333\n",
      "control_change channel=0 control=4 value=99 time=0.015625\n",
      "control_change channel=0 control=4 value=101 time=0.015625\n",
      "control_change channel=0 control=4 value=96 time=0.020833333333333332\n",
      "control_change channel=0 control=4 value=95 time=0.015625\n",
      "control_change channel=0 control=4 value=101 time=0.041666666666666664\n",
      "control_change channel=0 control=4 value=105 time=0.015625\n",
      "control_change channel=0 control=4 value=118 time=0.010416666666666666\n",
      "control_change channel=0 control=4 value=127 time=0.015625\n",
      "note_on channel=0 note=38 velocity=57 time=0.11979166666666666\n",
      "control_change channel=0 control=4 value=37 time=0.057291666666666664\n",
      "control_change channel=0 control=4 value=127 time=0\n",
      "control_change channel=0 control=4 value=29 time=0.010416666666666666\n",
      "control_change channel=0 control=4 value=26 time=0.015625\n",
      "note_off channel=0 note=38 velocity=64 time=0\n",
      "control_change channel=0 control=4 value=48 time=0.03645833333333333\n",
      "control_change channel=0 control=4 value=120 time=0.005208333333333333\n",
      "control_change channel=0 control=4 value=127 time=0.005208333333333333\n",
      "note_on channel=0 note=44 velocity=112 time=0.005208333333333333\n",
      "note_on channel=0 note=36 velocity=59 time=0.005208333333333333\n",
      "note_on channel=0 note=46 velocity=76 time=0.010416666666666666\n",
      "note_on channel=0 note=38 velocity=74 time=0.005208333333333333\n",
      "note_on channel=0 note=39 velocity=105 time=0\n",
      "note_off channel=0 note=36 velocity=64 time=0.0625\n",
      "note_off channel=0 note=44 velocity=64 time=0\n",
      "note_off channel=0 note=38 velocity=64 time=0.020833333333333332\n",
      "note_off channel=0 note=39 velocity=64 time=0\n",
      "note_off channel=0 note=46 velocity=64 time=0\n",
      "note_on channel=0 note=46 velocity=67 time=0.26041666666666663\n",
      "note_off channel=0 note=46 velocity=64 time=0.078125\n",
      "control_change channel=0 control=4 value=127 time=0.03645833333333333\n",
      "control_change channel=0 control=4 value=79 time=0\n",
      "control_change channel=0 control=4 value=78 time=0.015625\n",
      "<meta message track_name name='07 8th Toms\\x00' time=0>\n",
      "<meta message time_signature numerator=4 denominator=4 clocks_per_click=36 notated_32nd_notes_per_beat=8 time=0>\n",
      "<meta message time_signature numerator=4 denominator=4 clocks_per_click=36 notated_32nd_notes_per_beat=8 time=0>\n",
      "control_change channel=0 control=4 value=127 time=0\n",
      "note_on channel=0 note=43 velocity=82 time=0\n",
      "note_on channel=0 note=44 velocity=15 time=0.015625\n",
      "control_change channel=0 control=4 value=110 time=0.026041666666666664\n",
      "control_change channel=0 control=4 value=120 time=0.015625\n",
      "control_change channel=0 control=4 value=121 time=0.015625\n",
      "note_off channel=0 note=43 velocity=64 time=0\n",
      "note_off channel=0 note=44 velocity=64 time=0.010416666666666666\n",
      "control_change channel=0 control=4 value=127 time=0.041666666666666664\n",
      "control_change channel=0 control=4 value=127 time=0.2552083333333333\n",
      "control_change channel=0 control=4 value=38 time=0\n",
      "control_change channel=0 control=4 value=31 time=0.015625\n",
      "control_change channel=0 control=4 value=29 time=0.010416666666666666\n",
      "control_change channel=0 control=4 value=50 time=0.020833333333333332\n",
      "control_change channel=0 control=4 value=90 time=0.010416666666666666\n",
      "control_change channel=0 control=4 value=121 time=0.005208333333333333\n",
      "control_change channel=0 control=4 value=127 time=0.010416666666666666\n",
      "note_on channel=0 note=64 velocity=105 time=0.041666666666666664\n",
      "note_on channel=0 note=31 velocity=100 time=0.005208333333333333\n",
      "note_on channel=0 note=43 velocity=81 time=0\n",
      "note_on channel=0 note=44 velocity=87 time=0\n",
      "note_off channel=0 note=64 velocity=64 time=0.06770833333333333\n",
      "note_off channel=0 note=31 velocity=64 time=0.005208333333333333\n",
      "note_off channel=0 note=44 velocity=64 time=0\n",
      "note_off channel=0 note=43 velocity=64 time=0.015625\n",
      "note_on channel=0 note=43 velocity=62 time=0.24479166666666666\n",
      "note_off channel=0 note=43 velocity=64 time=0.08333333333333333\n",
      "control_change channel=0 control=4 value=127 time=0.005208333333333333\n",
      "control_change channel=0 control=4 value=78 time=0\n",
      "control_change channel=0 control=4 value=106 time=0.020833333333333332\n",
      "control_change channel=0 control=4 value=127 time=0.005208333333333333\n",
      "note_on channel=0 note=43 velocity=81 time=0.03645833333333333\n",
      "note_on channel=0 note=44 velocity=25 time=0.015625\n",
      "control_change channel=0 control=4 value=127 time=0.057291666666666664\n",
      "control_change channel=0 control=4 value=125 time=0\n",
      "note_off channel=0 note=43 velocity=64 time=0\n",
      "control_change channel=0 control=4 value=127 time=0.010416666666666666\n",
      "note_off channel=0 note=44 velocity=64 time=0.005208333333333333\n",
      "control_change channel=0 control=4 value=127 time=0.3020833333333333\n",
      "control_change channel=0 control=4 value=38 time=0\n",
      "control_change channel=0 control=4 value=30 time=0.010416666666666666\n",
      "control_change channel=0 control=4 value=27 time=0.015625\n",
      "control_change channel=0 control=4 value=42 time=0.020833333333333332\n",
      "control_change channel=0 control=4 value=89 time=0.005208333333333333\n",
      "control_change channel=0 control=4 value=127 time=0.005208333333333333\n",
      "note_on channel=0 note=31 velocity=107 time=0.05208333333333333\n",
      "note_on channel=0 note=44 velocity=93 time=0\n",
      "note_on channel=0 note=43 velocity=81 time=0.005208333333333333\n",
      "note_on channel=0 note=64 velocity=103 time=0\n",
      "note_off channel=0 note=31 velocity=64 time=0.078125\n",
      "note_off channel=0 note=44 velocity=64 time=0\n",
      "note_off channel=0 note=43 velocity=64 time=0.010416666666666666\n",
      "note_off channel=0 note=64 velocity=64 time=0\n",
      "note_on channel=0 note=43 velocity=64 time=0.2552083333333333\n",
      "note_off channel=0 note=43 velocity=64 time=0.08333333333333333\n",
      "control_change channel=0 control=4 value=127 time=0.005208333333333333\n",
      "control_change channel=0 control=4 value=79 time=0\n",
      "control_change channel=0 control=4 value=90 time=0.010416666666666666\n",
      "control_change channel=0 control=4 value=112 time=0.010416666666666666\n",
      "control_change channel=0 control=4 value=127 time=0.005208333333333333\n",
      "note_on channel=0 note=43 velocity=80 time=0.041666666666666664\n",
      "<meta message track_name name='08 Fill 1\\x00' time=0>\n",
      "<meta message time_signature numerator=4 denominator=4 clocks_per_click=36 notated_32nd_notes_per_beat=8 time=0>\n",
      "<meta message time_signature numerator=4 denominator=4 clocks_per_click=36 notated_32nd_notes_per_beat=8 time=0>\n",
      "control_change channel=0 control=4 value=127 time=0\n",
      "note_on channel=0 note=36 velocity=61 time=0\n",
      "note_on channel=0 note=51 velocity=108 time=0\n",
      "control_change channel=0 control=4 value=101 time=0.05208333333333333\n",
      "control_change channel=0 control=4 value=96 time=0.010416666666666666\n",
      "control_change channel=0 control=4 value=91 time=0.010416666666666666\n",
      "note_off channel=0 note=51 velocity=64 time=0.005208333333333333\n",
      "note_off channel=0 note=36 velocity=64 time=0.005208333333333333\n",
      "control_change channel=0 control=4 value=97 time=0.015625\n",
      "control_change channel=0 control=4 value=97 time=0.078125\n",
      "control_change channel=0 control=4 value=102 time=0\n",
      "control_change channel=0 control=4 value=107 time=0.010416666666666666\n",
      "control_change channel=0 control=4 value=115 time=0.010416666666666666\n",
      "control_change channel=0 control=4 value=127 time=0.015625\n",
      "control_change channel=0 control=4 value=127 time=0.19270833333333331\n",
      "control_change channel=0 control=4 value=35 time=0\n",
      "control_change channel=0 control=4 value=28 time=0.015625\n",
      "control_change channel=0 control=4 value=28 time=0.010416666666666666\n",
      "control_change channel=0 control=4 value=39 time=0.041666666666666664\n",
      "control_change channel=0 control=4 value=76 time=0.005208333333333333\n",
      "control_change channel=0 control=4 value=127 time=0.010416666666666666\n",
      "note_on channel=0 note=36 velocity=61 time=0.005208333333333333\n",
      "note_on channel=0 note=38 velocity=69 time=0\n",
      "note_on channel=0 note=39 velocity=105 time=0\n",
      "note_on channel=0 note=44 velocity=115 time=0\n",
      "note_on channel=0 note=51 velocity=107 time=0.005208333333333333\n",
      "note_off channel=0 note=38 velocity=64 time=0.07291666666666666\n",
      "note_off channel=0 note=39 velocity=64 time=0\n",
      "note_off channel=0 note=44 velocity=64 time=0\n",
      "note_off channel=0 note=51 velocity=64 time=0.015625\n",
      "note_off channel=0 note=36 velocity=64 time=0.057291666666666664\n",
      "note_on channel=0 note=51 velocity=92 time=0.203125\n",
      "note_off channel=0 note=51 velocity=64 time=0.07291666666666666\n",
      "control_change channel=0 control=4 value=127 time=0.046875\n",
      "control_change channel=0 control=4 value=86 time=0\n",
      "control_change channel=0 control=4 value=121 time=0.026041666666666664\n",
      "note_on channel=0 note=36 velocity=61 time=0\n",
      "note_on channel=0 note=44 velocity=38 time=0\n",
      "note_on channel=0 note=51 velocity=105 time=0\n",
      "control_change channel=0 control=4 value=127 time=0.010416666666666666\n",
      "control_change channel=0 control=4 value=100 time=0.041666666666666664\n",
      "control_change channel=0 control=4 value=99 time=0.010416666666666666\n",
      "control_change channel=0 control=4 value=91 time=0.015625\n",
      "note_off channel=0 note=51 velocity=64 time=0\n",
      "note_off channel=0 note=36 velocity=64 time=0.005208333333333333\n",
      "note_off channel=0 note=44 velocity=64 time=0\n",
      "control_change channel=0 control=4 value=99 time=0.015625\n",
      "control_change channel=0 control=4 value=101 time=0.015625\n",
      "control_change channel=0 control=4 value=96 time=0.020833333333333332\n",
      "control_change channel=0 control=4 value=95 time=0.015625\n",
      "control_change channel=0 control=4 value=101 time=0.041666666666666664\n",
      "control_change channel=0 control=4 value=105 time=0.015625\n",
      "control_change channel=0 control=4 value=118 time=0.010416666666666666\n",
      "control_change channel=0 control=4 value=127 time=0.015625\n",
      "control_change channel=0 control=4 value=0 time=0.05208333333333333\n",
      "note_on channel=0 note=38 velocity=64 time=0.057291666666666664\n",
      "note_off channel=0 note=38 velocity=64 time=0.03125\n",
      "note_on channel=0 note=36 velocity=63 time=0.13020833333333331\n",
      "note_on channel=0 note=38 velocity=80 time=0\n",
      "note_on channel=0 note=39 velocity=106 time=0.005208333333333333\n",
      "note_off channel=0 note=36 velocity=64 time=0.03125\n",
      "note_off channel=0 note=38 velocity=64 time=0.005208333333333333\n",
      "note_off channel=0 note=39 velocity=64 time=0.005208333333333333\n",
      "note_on channel=0 note=38 velocity=48 time=0.125\n",
      "note_off channel=0 note=38 velocity=64 time=0.026041666666666664\n",
      "note_on channel=0 note=38 velocity=77 time=0.14583333333333331\n",
      "note_off channel=0 note=38 velocity=64 time=0.026041666666666664\n",
      "<meta message end_of_track time=0>\n",
      "<meta message track_name name='09 Fill 2\\x00' time=0>\n",
      "<meta message time_signature numerator=4 denominator=4 clocks_per_click=36 notated_32nd_notes_per_beat=8 time=0>\n",
      "<meta message time_signature numerator=4 denominator=4 clocks_per_click=36 notated_32nd_notes_per_beat=8 time=0>\n",
      "note_on channel=0 note=36 velocity=63 time=0\n",
      "note_on channel=0 note=38 velocity=100 time=0.005208333333333333\n",
      "note_on channel=0 note=41 velocity=100 time=0\n",
      "note_off channel=0 note=38 velocity=64 time=0.015625\n",
      "note_off channel=0 note=41 velocity=64 time=0\n",
      "note_off channel=0 note=36 velocity=64 time=0.015625\n",
      "note_on channel=0 note=38 velocity=59 time=0.13541666666666666\n",
      "note_on channel=0 note=41 velocity=59 time=0\n",
      "note_off channel=0 note=41 velocity=64 time=0.026041666666666664\n",
      "note_off channel=0 note=38 velocity=64 time=0.03645833333333333\n",
      "note_on channel=0 note=38 velocity=75 time=0.09895833333333333\n",
      "note_on channel=0 note=41 velocity=75 time=0\n",
      "note_off channel=0 note=38 velocity=64 time=0.03125\n",
      "note_off channel=0 note=41 velocity=64 time=0\n",
      "note_on channel=0 note=36 velocity=64 time=0.13541666666666666\n",
      "note_on channel=0 note=38 velocity=88 time=0.010416666666666666\n",
      "note_on channel=0 note=39 velocity=99 time=0\n",
      "note_on channel=0 note=41 velocity=88 time=0\n",
      "note_off channel=0 note=36 velocity=64 time=0.020833333333333332\n",
      "note_off channel=0 note=38 velocity=64 time=0\n",
      "note_off channel=0 note=39 velocity=64 time=0\n",
      "note_off channel=0 note=41 velocity=64 time=0\n",
      "note_on channel=0 note=38 velocity=50 time=0.140625\n",
      "note_on channel=0 note=41 velocity=50 time=0\n",
      "note_off channel=0 note=41 velocity=64 time=0.03125\n",
      "note_off channel=0 note=38 velocity=64 time=0.026041666666666664\n",
      "note_on channel=0 note=38 velocity=63 time=0.109375\n",
      "note_on channel=0 note=41 velocity=63 time=0\n",
      "note_off channel=0 note=38 velocity=64 time=0.020833333333333332\n",
      "note_off channel=0 note=41 velocity=64 time=0\n",
      "note_on channel=0 note=36 velocity=63 time=0.140625\n",
      "note_on channel=0 note=38 velocity=88 time=0.005208333333333333\n",
      "note_on channel=0 note=39 velocity=100 time=0.005208333333333333\n",
      "note_on channel=0 note=41 velocity=88 time=0\n",
      "note_off channel=0 note=36 velocity=64 time=0.020833333333333332\n",
      "note_off channel=0 note=38 velocity=64 time=0.005208333333333333\n",
      "note_off channel=0 note=39 velocity=64 time=0.005208333333333333\n",
      "note_off channel=0 note=41 velocity=64 time=0\n",
      "note_on channel=0 note=38 velocity=59 time=0.13020833333333331\n",
      "note_on channel=0 note=41 velocity=59 time=0\n",
      "note_off channel=0 note=41 velocity=64 time=0.03125\n",
      "note_off channel=0 note=38 velocity=64 time=0.026041666666666664\n",
      "note_on channel=0 note=38 velocity=64 time=0.109375\n",
      "note_on channel=0 note=41 velocity=64 time=0\n",
      "note_off channel=0 note=38 velocity=64 time=0.03125\n",
      "note_off channel=0 note=41 velocity=64 time=0\n",
      "note_on channel=0 note=36 velocity=63 time=0.13020833333333331\n",
      "note_on channel=0 note=38 velocity=80 time=0\n",
      "note_on channel=0 note=41 velocity=80 time=0\n",
      "note_on channel=0 note=39 velocity=106 time=0.005208333333333333\n",
      "note_off channel=0 note=36 velocity=64 time=0.03125\n",
      "note_off channel=0 note=38 velocity=64 time=0.005208333333333333\n",
      "note_off channel=0 note=41 velocity=64 time=0\n",
      "note_off channel=0 note=39 velocity=64 time=0.005208333333333333\n",
      "note_on channel=0 note=38 velocity=48 time=0.125\n",
      "note_on channel=0 note=41 velocity=48 time=0\n",
      "note_off channel=0 note=38 velocity=64 time=0.026041666666666664\n",
      "note_off channel=0 note=41 velocity=64 time=0\n",
      "note_on channel=0 note=38 velocity=77 time=0.14583333333333331\n",
      "note_on channel=0 note=41 velocity=77 time=0\n",
      "note_off channel=0 note=38 velocity=64 time=0.026041666666666664\n",
      "note_off channel=0 note=41 velocity=64 time=0\n",
      "<meta message end_of_track time=0>\n",
      "<meta message track_name name='10 Fill 3\\x00' time=0>\n",
      "<meta message time_signature numerator=4 denominator=4 clocks_per_click=36 notated_32nd_notes_per_beat=8 time=0>\n",
      "<meta message time_signature numerator=4 denominator=4 clocks_per_click=36 notated_32nd_notes_per_beat=8 time=0>\n",
      "note_on channel=0 note=36 velocity=63 time=0\n",
      "note_on channel=0 note=38 velocity=100 time=0.005208333333333333\n",
      "note_on channel=0 note=46 velocity=100 time=0\n",
      "note_off channel=0 note=38 velocity=64 time=0.015625\n",
      "note_off channel=0 note=46 velocity=64 time=0\n",
      "note_off channel=0 note=36 velocity=64 time=0.015625\n",
      "note_on channel=0 note=38 velocity=59 time=0.13541666666666666\n",
      "note_on channel=0 note=45 velocity=59 time=0\n",
      "note_off channel=0 note=45 velocity=64 time=0.026041666666666664\n",
      "note_off channel=0 note=38 velocity=64 time=0.03645833333333333\n",
      "note_on channel=0 note=38 velocity=75 time=0.09895833333333333\n",
      "note_on channel=0 note=45 velocity=75 time=0\n",
      "note_off channel=0 note=38 velocity=64 time=0.03125\n",
      "note_off channel=0 note=45 velocity=64 time=0\n",
      "note_on channel=0 note=36 velocity=64 time=0.13541666666666666\n",
      "note_on channel=0 note=38 velocity=88 time=0.010416666666666666\n",
      "note_on channel=0 note=39 velocity=99 time=0\n",
      "note_on channel=0 note=46 velocity=88 time=0\n",
      "note_off channel=0 note=36 velocity=64 time=0.020833333333333332\n",
      "note_off channel=0 note=38 velocity=64 time=0\n",
      "note_off channel=0 note=39 velocity=64 time=0\n",
      "note_off channel=0 note=46 velocity=64 time=0\n",
      "note_on channel=0 note=38 velocity=50 time=0.140625\n",
      "note_on channel=0 note=45 velocity=77 time=0\n",
      "note_off channel=0 note=45 velocity=64 time=0.03125\n",
      "note_off channel=0 note=38 velocity=64 time=0.026041666666666664\n",
      "note_on channel=0 note=38 velocity=63 time=0.109375\n",
      "note_on channel=0 note=45 velocity=96 time=0\n",
      "note_off channel=0 note=38 velocity=64 time=0.020833333333333332\n",
      "note_off channel=0 note=45 velocity=64 time=0\n",
      "note_on channel=0 note=36 velocity=63 time=0.140625\n",
      "note_on channel=0 note=38 velocity=88 time=0.005208333333333333\n",
      "note_on channel=0 note=39 velocity=100 time=0.005208333333333333\n",
      "note_on channel=0 note=77 velocity=88 time=0\n",
      "note_off channel=0 note=36 velocity=64 time=0.020833333333333332\n",
      "note_off channel=0 note=38 velocity=64 time=0.005208333333333333\n",
      "note_off channel=0 note=39 velocity=64 time=0.005208333333333333\n",
      "note_off channel=0 note=77 velocity=64 time=0\n",
      "note_on channel=0 note=38 velocity=59 time=0.13020833333333331\n",
      "note_on channel=0 note=45 velocity=91 time=0\n",
      "note_off channel=0 note=45 velocity=64 time=0.03125\n",
      "note_off channel=0 note=38 velocity=64 time=0.026041666666666664\n",
      "note_on channel=0 note=38 velocity=64 time=0.109375\n",
      "note_on channel=0 note=45 velocity=97 time=0\n",
      "note_off channel=0 note=38 velocity=64 time=0.03125\n",
      "note_off channel=0 note=45 velocity=64 time=0\n",
      "note_on channel=0 note=36 velocity=63 time=0.13020833333333331\n",
      "note_on channel=0 note=38 velocity=80 time=0\n",
      "note_on channel=0 note=77 velocity=101 time=0\n",
      "note_on channel=0 note=39 velocity=106 time=0.005208333333333333\n",
      "note_off channel=0 note=36 velocity=64 time=0.03125\n",
      "note_off channel=0 note=38 velocity=64 time=0.005208333333333333\n",
      "note_off channel=0 note=77 velocity=64 time=0\n",
      "note_off channel=0 note=39 velocity=64 time=0.005208333333333333\n",
      "note_on channel=0 note=38 velocity=79 time=0.125\n",
      "note_on channel=0 note=77 velocity=61 time=0\n",
      "note_off channel=0 note=38 velocity=64 time=0.026041666666666664\n",
      "note_off channel=0 note=77 velocity=64 time=0\n",
      "note_on channel=0 note=39 velocity=104 time=0.14583333333333331\n",
      "note_on channel=0 note=77 velocity=98 time=0\n",
      "note_off channel=0 note=39 velocity=64 time=0.026041666666666664\n",
      "note_off channel=0 note=77 velocity=64 time=0\n",
      "<meta message end_of_track time=0>\n",
      "<meta message track_name name='01 8th Hat\\x00' time=0>\n",
      "<meta message time_signature numerator=4 denominator=4 clocks_per_click=36 notated_32nd_notes_per_beat=8 time=0>\n",
      "<meta message time_signature numerator=4 denominator=4 clocks_per_click=36 notated_32nd_notes_per_beat=8 time=0>\n",
      "note_on channel=0 note=36 velocity=103 time=0\n",
      "note_on channel=0 note=76 velocity=100 time=0\n",
      "note_off channel=0 note=76 velocity=64 time=0.08854166666666666\n",
      "note_off channel=0 note=36 velocity=64 time=0.005208333333333333\n",
      "note_on channel=0 note=76 velocity=94 time=0.15104166666666666\n",
      "note_off channel=0 note=76 velocity=64 time=0.08333333333333333\n",
      "note_on channel=0 note=76 velocity=99 time=0.16666666666666666\n",
      "note_on channel=0 note=39 velocity=107 time=0.005208333333333333\n",
      "note_off channel=0 note=76 velocity=64 time=0.07291666666666666\n",
      "note_off channel=0 note=39 velocity=64 time=0.015625\n",
      "note_on channel=0 note=76 velocity=90 time=0.14583333333333331\n",
      "note_on channel=0 note=36 velocity=103 time=0.005208333333333333\n",
      "note_off channel=0 note=76 velocity=64 time=0.09375\n",
      "note_off channel=0 note=36 velocity=64 time=0.010416666666666666\n",
      "note_on channel=0 note=76 velocity=100 time=0.14583333333333331\n",
      "note_off channel=0 note=76 velocity=64 time=0.08854166666666666\n",
      "note_on channel=0 note=76 velocity=94 time=0.16145833333333331\n",
      "note_off channel=0 note=76 velocity=64 time=0.08333333333333333\n",
      "note_on channel=0 note=45 velocity=105 time=0.16145833333333331\n",
      "note_on channel=0 note=76 velocity=99 time=0.005208333333333333\n",
      "note_off channel=0 note=76 velocity=64 time=0.078125\n",
      "note_off channel=0 note=45 velocity=64 time=0.020833333333333332\n",
      "note_on channel=0 note=45 velocity=100 time=0.15104166666666666\n",
      "note_on channel=0 note=76 velocity=90 time=0.005208333333333333\n",
      "note_off channel=0 note=45 velocity=64 time=0.06770833333333333\n",
      "note_off channel=0 note=76 velocity=64 time=0.026041666666666664\n",
      "note_on channel=0 note=36 velocity=103 time=0.16145833333333331\n",
      "<meta message track_name name='02 8th Hat\\x00' time=0>\n",
      "<meta message time_signature numerator=4 denominator=4 clocks_per_click=36 notated_32nd_notes_per_beat=8 time=0>\n",
      "<meta message time_signature numerator=4 denominator=4 clocks_per_click=36 notated_32nd_notes_per_beat=8 time=0>\n",
      "note_on channel=0 note=36 velocity=104 time=0\n",
      "note_on channel=0 note=42 velocity=107 time=0\n",
      "note_off channel=0 note=42 velocity=64 time=0.08854166666666666\n",
      "note_off channel=0 note=36 velocity=64 time=0.005208333333333333\n",
      "note_on channel=0 note=42 velocity=101 time=0.15104166666666666\n",
      "note_off channel=0 note=42 velocity=64 time=0.08333333333333333\n",
      "note_on channel=0 note=42 velocity=105 time=0.16666666666666666\n",
      "note_on channel=0 note=39 velocity=108 time=0.005208333333333333\n",
      "note_off channel=0 note=42 velocity=64 time=0.07291666666666666\n",
      "note_off channel=0 note=39 velocity=64 time=0.015625\n",
      "note_on channel=0 note=42 velocity=96 time=0.14583333333333331\n",
      "note_on channel=0 note=36 velocity=104 time=0.005208333333333333\n",
      "note_off channel=0 note=42 velocity=64 time=0.09375\n",
      "note_off channel=0 note=36 velocity=64 time=0.010416666666666666\n",
      "note_on channel=0 note=42 velocity=107 time=0.14583333333333331\n",
      "note_off channel=0 note=42 velocity=64 time=0.08854166666666666\n",
      "note_on channel=0 note=42 velocity=101 time=0.16145833333333331\n",
      "note_off channel=0 note=42 velocity=64 time=0.08333333333333333\n",
      "note_on channel=0 note=45 velocity=107 time=0.16145833333333331\n",
      "note_on channel=0 note=42 velocity=105 time=0.005208333333333333\n",
      "note_off channel=0 note=42 velocity=64 time=0.078125\n",
      "note_off channel=0 note=45 velocity=64 time=0.020833333333333332\n",
      "note_on channel=0 note=45 velocity=101 time=0.15104166666666666\n",
      "note_on channel=0 note=42 velocity=96 time=0.005208333333333333\n",
      "note_off channel=0 note=45 velocity=64 time=0.06770833333333333\n",
      "note_off channel=0 note=42 velocity=64 time=0.026041666666666664\n",
      "note_on channel=0 note=36 velocity=104 time=0.16145833333333331\n",
      "<meta message track_name name='03 8th Ride\\x00' time=0>\n",
      "<meta message time_signature numerator=4 denominator=4 clocks_per_click=36 notated_32nd_notes_per_beat=8 time=0>\n",
      "<meta message time_signature numerator=4 denominator=4 clocks_per_click=36 notated_32nd_notes_per_beat=8 time=0>\n",
      "note_on channel=0 note=36 velocity=105 time=0\n",
      "note_on channel=0 note=50 velocity=100 time=0\n",
      "note_off channel=0 note=50 velocity=64 time=0.08854166666666666\n",
      "note_off channel=0 note=36 velocity=64 time=0.005208333333333333\n",
      "note_on channel=0 note=50 velocity=94 time=0.15104166666666666\n",
      "note_off channel=0 note=50 velocity=64 time=0.08333333333333333\n",
      "note_on channel=0 note=50 velocity=98 time=0.16666666666666666\n",
      "note_on channel=0 note=39 velocity=109 time=0.005208333333333333\n",
      "note_off channel=0 note=50 velocity=64 time=0.07291666666666666\n",
      "note_off channel=0 note=39 velocity=64 time=0.015625\n",
      "note_on channel=0 note=50 velocity=89 time=0.14583333333333331\n",
      "note_on channel=0 note=36 velocity=105 time=0.005208333333333333\n",
      "note_off channel=0 note=50 velocity=64 time=0.09375\n",
      "note_off channel=0 note=36 velocity=64 time=0.010416666666666666\n",
      "note_on channel=0 note=50 velocity=100 time=0.14583333333333331\n",
      "note_off channel=0 note=50 velocity=64 time=0.08854166666666666\n",
      "note_on channel=0 note=50 velocity=94 time=0.16145833333333331\n",
      "note_off channel=0 note=50 velocity=64 time=0.08333333333333333\n",
      "note_on channel=0 note=45 velocity=108 time=0.16145833333333331\n",
      "note_on channel=0 note=50 velocity=98 time=0.005208333333333333\n",
      "note_off channel=0 note=50 velocity=64 time=0.078125\n",
      "note_off channel=0 note=45 velocity=64 time=0.020833333333333332\n",
      "note_on channel=0 note=45 velocity=102 time=0.15104166666666666\n",
      "note_on channel=0 note=50 velocity=89 time=0.005208333333333333\n",
      "note_off channel=0 note=45 velocity=64 time=0.06770833333333333\n",
      "note_off channel=0 note=50 velocity=64 time=0.026041666666666664\n",
      "note_on channel=0 note=36 velocity=105 time=0.16145833333333331\n",
      "<meta message track_name name='04 8th Perc\\x00' time=0>\n",
      "<meta message time_signature numerator=4 denominator=4 clocks_per_click=36 notated_32nd_notes_per_beat=8 time=0>\n",
      "<meta message time_signature numerator=4 denominator=4 clocks_per_click=36 notated_32nd_notes_per_beat=8 time=0>\n",
      "note_on channel=0 note=36 velocity=94 time=0\n",
      "note_on channel=0 note=71 velocity=89 time=0\n",
      "note_off channel=0 note=71 velocity=64 time=0.08854166666666666\n",
      "note_off channel=0 note=36 velocity=64 time=0.005208333333333333\n",
      "note_on channel=0 note=71 velocity=84 time=0.15104166666666666\n",
      "note_off channel=0 note=71 velocity=64 time=0.08333333333333333\n",
      "note_on channel=0 note=44 velocity=89 time=0.16666666666666666\n",
      "note_on channel=0 note=71 velocity=88 time=0\n",
      "note_on channel=0 note=39 velocity=98 time=0.005208333333333333\n",
      "note_off channel=0 note=71 velocity=64 time=0.07291666666666666\n",
      "note_off channel=0 note=39 velocity=64 time=0.015625\n",
      "note_off channel=0 note=44 velocity=64 time=0.005208333333333333\n",
      "note_on channel=0 note=71 velocity=80 time=0.140625\n",
      "note_on channel=0 note=36 velocity=94 time=0.005208333333333333\n",
      "note_off channel=0 note=71 velocity=64 time=0.09375\n",
      "note_off channel=0 note=36 velocity=64 time=0.010416666666666666\n",
      "note_on channel=0 note=71 velocity=89 time=0.14583333333333331\n",
      "note_off channel=0 note=71 velocity=64 time=0.08854166666666666\n",
      "note_on channel=0 note=71 velocity=84 time=0.16145833333333331\n",
      "note_off channel=0 note=71 velocity=64 time=0.08333333333333333\n",
      "note_on channel=0 note=45 velocity=96 time=0.16145833333333331\n",
      "note_on channel=0 note=44 velocity=89 time=0.005208333333333333\n",
      "note_on channel=0 note=71 velocity=88 time=0\n",
      "note_off channel=0 note=71 velocity=64 time=0.078125\n",
      "note_off channel=0 note=45 velocity=64 time=0.020833333333333332\n",
      "note_off channel=0 note=44 velocity=64 time=0.015625\n",
      "note_on channel=0 note=45 velocity=92 time=0.13541666666666666\n",
      "note_on channel=0 note=71 velocity=80 time=0.005208333333333333\n",
      "note_off channel=0 note=45 velocity=64 time=0.06770833333333333\n",
      "note_off channel=0 note=71 velocity=64 time=0.026041666666666664\n",
      "note_on channel=0 note=36 velocity=94 time=0.16145833333333331\n",
      "<meta message track_name name='05 8th Hat\\x00' time=0>\n",
      "<meta message time_signature numerator=4 denominator=4 clocks_per_click=36 notated_32nd_notes_per_beat=8 time=0>\n",
      "<meta message time_signature numerator=4 denominator=4 clocks_per_click=36 notated_32nd_notes_per_beat=8 time=0>\n",
      "note_on channel=0 note=36 velocity=104 time=0\n",
      "note_on channel=0 note=77 velocity=99 time=0\n",
      "note_off channel=0 note=77 velocity=64 time=0.08854166666666666\n",
      "note_off channel=0 note=36 velocity=64 time=0.005208333333333333\n",
      "note_on channel=0 note=77 velocity=93 time=0.15104166666666666\n",
      "note_off channel=0 note=77 velocity=64 time=0.08333333333333333\n",
      "note_on channel=0 note=77 velocity=97 time=0.16666666666666666\n",
      "note_on channel=0 note=39 velocity=108 time=0.005208333333333333\n",
      "note_off channel=0 note=77 velocity=64 time=0.07291666666666666\n",
      "note_off channel=0 note=39 velocity=64 time=0.015625\n",
      "note_on channel=0 note=77 velocity=89 time=0.14583333333333331\n",
      "note_on channel=0 note=36 velocity=104 time=0.005208333333333333\n",
      "note_off channel=0 note=77 velocity=64 time=0.09375\n",
      "note_off channel=0 note=36 velocity=64 time=0.010416666666666666\n",
      "note_on channel=0 note=77 velocity=99 time=0.14583333333333331\n",
      "note_off channel=0 note=77 velocity=64 time=0.08854166666666666\n",
      "note_on channel=0 note=77 velocity=93 time=0.16145833333333331\n",
      "note_off channel=0 note=77 velocity=64 time=0.08333333333333333\n",
      "note_on channel=0 note=45 velocity=107 time=0.16145833333333331\n",
      "note_on channel=0 note=77 velocity=97 time=0.005208333333333333\n",
      "note_off channel=0 note=77 velocity=64 time=0.078125\n",
      "note_off channel=0 note=45 velocity=64 time=0.020833333333333332\n",
      "note_on channel=0 note=45 velocity=101 time=0.15104166666666666\n",
      "note_on channel=0 note=77 velocity=89 time=0.005208333333333333\n",
      "note_off channel=0 note=45 velocity=64 time=0.06770833333333333\n",
      "note_off channel=0 note=77 velocity=64 time=0.026041666666666664\n",
      "note_on channel=0 note=36 velocity=104 time=0.16145833333333331\n",
      "<meta message track_name name='06 8th Perc\\x00' time=0>\n",
      "<meta message time_signature numerator=4 denominator=4 clocks_per_click=36 notated_32nd_notes_per_beat=8 time=0>\n",
      "<meta message time_signature numerator=4 denominator=4 clocks_per_click=36 notated_32nd_notes_per_beat=8 time=0>\n",
      "note_on channel=0 note=36 velocity=100 time=0\n",
      "note_on channel=0 note=73 velocity=104 time=0\n",
      "note_off channel=0 note=73 velocity=64 time=0.08854166666666666\n",
      "note_off channel=0 note=36 velocity=64 time=0.005208333333333333\n",
      "note_on channel=0 note=73 velocity=98 time=0.15104166666666666\n",
      "note_off channel=0 note=73 velocity=64 time=0.08333333333333333\n",
      "note_on channel=0 note=44 velocity=95 time=0.16666666666666666\n",
      "note_on channel=0 note=73 velocity=102 time=0\n",
      "note_on channel=0 note=34 velocity=95 time=0.005208333333333333\n",
      "note_on channel=0 note=64 velocity=104 time=0\n",
      "note_off channel=0 note=73 velocity=64 time=0.07291666666666666\n",
      "note_off channel=0 note=64 velocity=64 time=0.015625\n",
      "note_off channel=0 note=34 velocity=64 time=0.005208333333333333\n",
      "note_off channel=0 note=44 velocity=64 time=0\n",
      "note_on channel=0 note=73 velocity=94 time=0.140625\n",
      "note_on channel=0 note=36 velocity=100 time=0.005208333333333333\n",
      "note_off channel=0 note=73 velocity=64 time=0.09375\n",
      "note_off channel=0 note=36 velocity=64 time=0.010416666666666666\n",
      "note_on channel=0 note=73 velocity=104 time=0.14583333333333331\n",
      "note_off channel=0 note=73 velocity=64 time=0.08854166666666666\n",
      "note_on channel=0 note=73 velocity=98 time=0.16145833333333331\n",
      "note_off channel=0 note=73 velocity=64 time=0.08333333333333333\n",
      "note_on channel=0 note=34 velocity=95 time=0.16145833333333331\n",
      "note_on channel=0 note=45 velocity=102 time=0\n",
      "note_on channel=0 note=44 velocity=94 time=0.005208333333333333\n",
      "note_on channel=0 note=73 velocity=102 time=0\n",
      "note_off channel=0 note=73 velocity=64 time=0.078125\n",
      "note_off channel=0 note=45 velocity=64 time=0.020833333333333332\n",
      "note_off channel=0 note=34 velocity=64 time=0.005208333333333333\n",
      "note_off channel=0 note=44 velocity=64 time=0.010416666666666666\n",
      "note_on channel=0 note=34 velocity=92 time=0.13541666666666666\n",
      "note_on channel=0 note=45 velocity=97 time=0\n",
      "note_on channel=0 note=73 velocity=94 time=0.005208333333333333\n",
      "note_off channel=0 note=34 velocity=64 time=0.06770833333333333\n",
      "note_off channel=0 note=45 velocity=64 time=0\n",
      "note_off channel=0 note=73 velocity=64 time=0.026041666666666664\n",
      "note_on channel=0 note=36 velocity=100 time=0.16145833333333331\n",
      "<meta message track_name name='07 8th Perc\\x00' time=0>\n",
      "<meta message time_signature numerator=4 denominator=4 clocks_per_click=36 notated_32nd_notes_per_beat=8 time=0>\n",
      "<meta message time_signature numerator=4 denominator=4 clocks_per_click=36 notated_32nd_notes_per_beat=8 time=0>\n",
      "note_on channel=0 note=31 velocity=100 time=0\n",
      "note_on channel=0 note=36 velocity=96 time=0\n",
      "note_off channel=0 note=31 velocity=64 time=0.08854166666666666\n",
      "note_off channel=0 note=36 velocity=64 time=0.005208333333333333\n",
      "note_on channel=0 note=31 velocity=95 time=0.15104166666666666\n",
      "note_off channel=0 note=31 velocity=64 time=0.08333333333333333\n",
      "note_on channel=0 note=31 velocity=99 time=0.16666666666666666\n",
      "note_on channel=0 note=44 velocity=91 time=0\n",
      "note_on channel=0 note=34 velocity=91 time=0.005208333333333333\n",
      "note_on channel=0 note=64 velocity=100 time=0\n",
      "note_off channel=0 note=31 velocity=64 time=0.07291666666666666\n",
      "note_off channel=0 note=64 velocity=64 time=0.015625\n",
      "note_off channel=0 note=34 velocity=64 time=0.005208333333333333\n",
      "note_off channel=0 note=44 velocity=64 time=0\n",
      "note_on channel=0 note=31 velocity=91 time=0.140625\n",
      "note_on channel=0 note=36 velocity=96 time=0.005208333333333333\n",
      "note_off channel=0 note=31 velocity=64 time=0.09375\n",
      "note_off channel=0 note=36 velocity=64 time=0.010416666666666666\n",
      "note_on channel=0 note=31 velocity=100 time=0.14583333333333331\n",
      "note_off channel=0 note=31 velocity=64 time=0.08854166666666666\n",
      "note_on channel=0 note=31 velocity=95 time=0.16145833333333331\n",
      "note_off channel=0 note=31 velocity=64 time=0.08333333333333333\n",
      "note_on channel=0 note=34 velocity=91 time=0.16145833333333331\n",
      "note_on channel=0 note=45 velocity=99 time=0\n",
      "note_on channel=0 note=31 velocity=99 time=0.005208333333333333\n",
      "note_on channel=0 note=44 velocity=91 time=0\n",
      "note_off channel=0 note=31 velocity=64 time=0.078125\n",
      "note_off channel=0 note=45 velocity=64 time=0.020833333333333332\n",
      "note_off channel=0 note=34 velocity=64 time=0.005208333333333333\n",
      "note_off channel=0 note=44 velocity=64 time=0.010416666666666666\n",
      "note_on channel=0 note=34 velocity=89 time=0.13541666666666666\n",
      "note_on channel=0 note=45 velocity=94 time=0\n",
      "note_on channel=0 note=31 velocity=91 time=0.005208333333333333\n",
      "note_off channel=0 note=34 velocity=64 time=0.06770833333333333\n",
      "note_off channel=0 note=45 velocity=64 time=0\n",
      "note_off channel=0 note=31 velocity=64 time=0.026041666666666664\n",
      "note_on channel=0 note=31 velocity=100 time=0.16145833333333331\n",
      "<meta message track_name name='08 Fill 1\\x00' time=0>\n",
      "<meta message time_signature numerator=4 denominator=4 clocks_per_click=36 notated_32nd_notes_per_beat=8 time=0>\n",
      "<meta message time_signature numerator=4 denominator=4 clocks_per_click=36 notated_32nd_notes_per_beat=8 time=0>\n",
      "note_on channel=0 note=29 velocity=95 time=0\n",
      "note_on channel=0 note=36 velocity=98 time=0\n",
      "note_on channel=0 note=51 velocity=95 time=0\n",
      "note_off channel=0 note=29 velocity=64 time=0.08333333333333333\n",
      "note_off channel=0 note=51 velocity=64 time=0.005208333333333333\n",
      "note_off channel=0 note=36 velocity=64 time=0.005208333333333333\n",
      "note_on channel=0 note=51 velocity=90 time=0.15104166666666666\n",
      "note_off channel=0 note=51 velocity=64 time=0.08333333333333333\n",
      "note_on channel=0 note=44 velocity=94 time=0.16666666666666666\n",
      "note_on channel=0 note=51 velocity=94 time=0\n",
      "note_on channel=0 note=29 velocity=98 time=0.005208333333333333\n",
      "note_on channel=0 note=34 velocity=94 time=0\n",
      "note_on channel=0 note=39 velocity=103 time=0\n",
      "note_off channel=0 note=29 velocity=64 time=0.07291666666666666\n",
      "note_off channel=0 note=51 velocity=64 time=0\n",
      "note_off channel=0 note=39 velocity=64 time=0.015625\n",
      "note_off channel=0 note=34 velocity=64 time=0.005208333333333333\n",
      "note_off channel=0 note=44 velocity=64 time=0\n",
      "note_on channel=0 note=53 velocity=88 time=0.140625\n",
      "note_on channel=0 note=36 velocity=98 time=0.005208333333333333\n",
      "note_off channel=0 note=53 velocity=64 time=0.09375\n",
      "note_off channel=0 note=36 velocity=64 time=0.010416666666666666\n",
      "note_on channel=0 note=29 velocity=94 time=0.140625\n",
      "note_on channel=0 note=51 velocity=95 time=0.005208333333333333\n",
      "note_off channel=0 note=29 velocity=64 time=0.08854166666666666\n",
      "note_off channel=0 note=51 velocity=64 time=0\n",
      "note_on channel=0 note=29 velocity=92 time=0.16145833333333331\n",
      "note_on channel=0 note=51 velocity=90 time=0\n",
      "note_off channel=0 note=29 velocity=64 time=0.08333333333333333\n",
      "note_off channel=0 note=51 velocity=64 time=0\n",
      "note_on channel=0 note=34 velocity=94 time=0.16145833333333331\n",
      "note_on channel=0 note=45 velocity=101 time=0\n",
      "note_on channel=0 note=44 velocity=93 time=0.005208333333333333\n",
      "note_on channel=0 note=51 velocity=94 time=0\n",
      "note_off channel=0 note=51 velocity=64 time=0.078125\n",
      "note_off channel=0 note=45 velocity=64 time=0.020833333333333332\n",
      "note_off channel=0 note=34 velocity=64 time=0.005208333333333333\n",
      "note_off channel=0 note=44 velocity=64 time=0.010416666666666666\n",
      "note_on channel=0 note=29 velocity=95 time=0.13541666666666666\n",
      "note_on channel=0 note=34 velocity=91 time=0\n",
      "note_on channel=0 note=45 velocity=96 time=0\n",
      "note_on channel=0 note=51 velocity=85 time=0.005208333333333333\n",
      "note_off channel=0 note=34 velocity=64 time=0.06770833333333333\n",
      "note_off channel=0 note=45 velocity=64 time=0\n",
      "note_off channel=0 note=29 velocity=64 time=0.020833333333333332\n",
      "note_off channel=0 note=51 velocity=64 time=0.005208333333333333\n",
      "note_on channel=0 note=36 velocity=98 time=0.16145833333333331\n",
      "<meta message track_name name='09 Fill 2\\x00' time=0>\n",
      "<meta message time_signature numerator=4 denominator=4 clocks_per_click=36 notated_32nd_notes_per_beat=8 time=0>\n",
      "<meta message time_signature numerator=4 denominator=4 clocks_per_click=36 notated_32nd_notes_per_beat=8 time=0>\n",
      "note_on channel=0 note=29 velocity=102 time=0\n",
      "note_on channel=0 note=36 velocity=105 time=0\n",
      "note_on channel=0 note=77 velocity=96 time=0\n",
      "note_off channel=0 note=29 velocity=64 time=0.08333333333333333\n",
      "note_off channel=0 note=77 velocity=64 time=0.005208333333333333\n",
      "note_off channel=0 note=36 velocity=64 time=0.005208333333333333\n",
      "note_on channel=0 note=77 velocity=89 time=0.15104166666666666\n",
      "note_off channel=0 note=77 velocity=64 time=0.08333333333333333\n",
      "note_on channel=0 note=77 velocity=94 time=0.16666666666666666\n",
      "note_on channel=0 note=29 velocity=104 time=0.005208333333333333\n",
      "note_on channel=0 note=34 velocity=100 time=0\n",
      "note_on channel=0 note=39 velocity=109 time=0\n",
      "note_off channel=0 note=29 velocity=64 time=0.07291666666666666\n",
      "note_off channel=0 note=77 velocity=64 time=0\n",
      "note_off channel=0 note=39 velocity=64 time=0.015625\n",
      "note_off channel=0 note=34 velocity=64 time=0.005208333333333333\n",
      "note_on channel=0 note=79 velocity=88 time=0.140625\n",
      "note_on channel=0 note=36 velocity=105 time=0.005208333333333333\n",
      "note_off channel=0 note=79 velocity=64 time=0.09375\n",
      "note_off channel=0 note=36 velocity=64 time=0.010416666666666666\n",
      "note_on channel=0 note=29 velocity=101 time=0.140625\n",
      "note_on channel=0 note=77 velocity=96 time=0.005208333333333333\n",
      "note_off channel=0 note=29 velocity=64 time=0.08854166666666666\n",
      "note_off channel=0 note=77 velocity=64 time=0\n",
      "note_on channel=0 note=29 velocity=98 time=0.16145833333333331\n",
      "note_on channel=0 note=77 velocity=89 time=0\n",
      "note_off channel=0 note=29 velocity=64 time=0.08333333333333333\n",
      "note_off channel=0 note=77 velocity=64 time=0\n",
      "note_on channel=0 note=34 velocity=100 time=0.16145833333333331\n",
      "note_on channel=0 note=45 velocity=108 time=0\n",
      "note_on channel=0 note=77 velocity=94 time=0.005208333333333333\n",
      "note_off channel=0 note=77 velocity=64 time=0.078125\n",
      "note_off channel=0 note=45 velocity=64 time=0.020833333333333332\n",
      "note_off channel=0 note=34 velocity=64 time=0.005208333333333333\n",
      "note_on channel=0 note=29 velocity=102 time=0.14583333333333331\n",
      "note_on channel=0 note=34 velocity=97 time=0\n",
      "note_on channel=0 note=45 velocity=102 time=0\n",
      "note_on channel=0 note=77 velocity=85 time=0.005208333333333333\n",
      "note_off channel=0 note=34 velocity=64 time=0.06770833333333333\n",
      "note_off channel=0 note=45 velocity=64 time=0\n",
      "note_off channel=0 note=29 velocity=64 time=0.020833333333333332\n",
      "note_off channel=0 note=77 velocity=64 time=0.005208333333333333\n",
      "note_on channel=0 note=36 velocity=105 time=0.16145833333333331\n",
      "<meta message track_name name='10 Fill 3\\x00' time=0>\n",
      "<meta message time_signature numerator=4 denominator=4 clocks_per_click=36 notated_32nd_notes_per_beat=8 time=0>\n",
      "<meta message time_signature numerator=4 denominator=4 clocks_per_click=36 notated_32nd_notes_per_beat=8 time=0>\n",
      "note_on channel=0 note=29 velocity=101 time=0\n",
      "note_on channel=0 note=36 velocity=104 time=0\n",
      "note_on channel=0 note=77 velocity=95 time=0\n",
      "note_off channel=0 note=29 velocity=64 time=0.08333333333333333\n",
      "note_off channel=0 note=77 velocity=64 time=0.005208333333333333\n",
      "note_off channel=0 note=36 velocity=64 time=0.005208333333333333\n",
      "note_on channel=0 note=77 velocity=89 time=0.15104166666666666\n",
      "note_off channel=0 note=77 velocity=64 time=0.08333333333333333\n",
      "note_on channel=0 note=77 velocity=93 time=0.16666666666666666\n",
      "note_on channel=0 note=29 velocity=103 time=0.005208333333333333\n",
      "note_on channel=0 note=34 velocity=99 time=0\n",
      "note_on channel=0 note=39 velocity=108 time=0\n",
      "note_off channel=0 note=29 velocity=64 time=0.07291666666666666\n",
      "note_off channel=0 note=77 velocity=64 time=0\n",
      "note_off channel=0 note=39 velocity=64 time=0.015625\n",
      "note_off channel=0 note=34 velocity=64 time=0.005208333333333333\n",
      "note_on channel=0 note=79 velocity=87 time=0.140625\n",
      "note_on channel=0 note=36 velocity=104 time=0.005208333333333333\n",
      "note_off channel=0 note=79 velocity=64 time=0.09375\n",
      "note_off channel=0 note=36 velocity=64 time=0.010416666666666666\n",
      "note_on channel=0 note=29 velocity=100 time=0.140625\n",
      "note_on channel=0 note=77 velocity=95 time=0.005208333333333333\n",
      "note_off channel=0 note=29 velocity=64 time=0.08854166666666666\n",
      "note_off channel=0 note=77 velocity=64 time=0\n",
      "note_on channel=0 note=29 velocity=97 time=0.16145833333333331\n",
      "note_on channel=0 note=41 velocity=100 time=0\n",
      "note_off channel=0 note=29 velocity=64 time=0.08333333333333333\n",
      "note_off channel=0 note=41 velocity=64 time=0\n",
      "note_on channel=0 note=41 velocity=104 time=0.041666666666666664\n",
      "note_off channel=0 note=41 velocity=64 time=0.078125\n",
      "note_on channel=0 note=34 velocity=99 time=0.041666666666666664\n",
      "note_on channel=0 note=45 velocity=107 time=0\n",
      "note_off channel=0 note=45 velocity=64 time=0.10416666666666666\n",
      "note_off channel=0 note=34 velocity=64 time=0.005208333333333333\n",
      "note_on channel=0 note=29 velocity=101 time=0.14583333333333331\n",
      "note_on channel=0 note=34 velocity=96 time=0\n",
      "note_on channel=0 note=36 velocity=101 time=0\n",
      "note_on channel=0 note=77 velocity=84 time=0.005208333333333333\n",
      "note_off channel=0 note=34 velocity=64 time=0.06770833333333333\n",
      "note_off channel=0 note=36 velocity=64 time=0\n",
      "note_off channel=0 note=29 velocity=64 time=0.020833333333333332\n",
      "note_off channel=0 note=77 velocity=64 time=0.005208333333333333\n",
      "note_on channel=0 note=36 velocity=104 time=0.16145833333333331\n",
      "<meta message track_name name='01 8th Ride\\x00' time=0>\n",
      "<meta message time_signature numerator=4 denominator=4 clocks_per_click=36 notated_32nd_notes_per_beat=8 time=0>\n",
      "<meta message time_signature numerator=4 denominator=4 clocks_per_click=36 notated_32nd_notes_per_beat=8 time=0>\n",
      "note_on channel=0 note=36 velocity=111 time=0\n",
      "note_on channel=0 note=50 velocity=79 time=0\n",
      "note_off channel=0 note=50 velocity=64 time=0.11979166666666666\n",
      "note_off channel=0 note=36 velocity=64 time=0.005208333333333333\n",
      "note_on channel=0 note=50 velocity=70 time=0.13020833333333331\n",
      "note_off channel=0 note=50 velocity=64 time=0.11458333333333333\n",
      "note_on channel=0 note=36 velocity=111 time=0.125\n",
      "note_on channel=0 note=38 velocity=112 time=0.005208333333333333\n",
      "note_on channel=0 note=50 velocity=75 time=0\n",
      "note_on channel=0 note=44 velocity=114 time=0.005208333333333333\n",
      "note_off channel=0 note=50 velocity=64 time=0.09375\n",
      "note_off channel=0 note=36 velocity=64 time=0.005208333333333333\n",
      "note_off channel=0 note=44 velocity=64 time=0\n",
      "note_off channel=0 note=38 velocity=64 time=0.05208333333333333\n",
      "note_on channel=0 note=38 velocity=110 time=0.109375\n",
      "note_on channel=0 note=50 velocity=83 time=0\n",
      "note_off channel=0 note=50 velocity=64 time=0.11979166666666666\n",
      "note_off channel=0 note=38 velocity=64 time=0.05208333333333333\n",
      "note_on channel=0 note=36 velocity=111 time=0.0625\n",
      "note_on channel=0 note=50 velocity=76 time=0.005208333333333333\n",
      "note_off channel=0 note=36 velocity=64 time=0.11458333333333333\n",
      "note_off channel=0 note=50 velocity=64 time=0.010416666666666666\n",
      "note_on channel=0 note=50 velocity=90 time=0.11458333333333333\n",
      "note_off channel=0 note=50 velocity=64 time=0.11458333333333333\n",
      "note_on channel=0 note=36 velocity=107 time=0.140625\n",
      "note_on channel=0 note=44 velocity=113 time=0\n",
      "note_on channel=0 note=50 velocity=86 time=0\n",
      "note_on channel=0 note=38 velocity=113 time=0.005208333333333333\n",
      "note_off channel=0 note=36 velocity=64 time=0.09375\n",
      "note_off channel=0 note=44 velocity=64 time=0.015625\n",
      "note_off channel=0 note=50 velocity=64 time=0.015625\n",
      "note_off channel=0 note=38 velocity=64 time=0.020833333333333332\n",
      "note_on channel=0 note=50 velocity=82 time=0.10416666666666666\n",
      "note_off channel=0 note=50 velocity=64 time=0.13541666666666666\n",
      "note_on channel=0 note=36 velocity=111 time=0.109375\n",
      "<meta message track_name name='02 8th Hat\\x00' time=0>\n",
      "<meta message time_signature numerator=4 denominator=4 clocks_per_click=36 notated_32nd_notes_per_beat=8 time=0>\n",
      "<meta message time_signature numerator=4 denominator=4 clocks_per_click=36 notated_32nd_notes_per_beat=8 time=0>\n",
      "note_on channel=0 note=36 velocity=113 time=0\n",
      "note_on channel=0 note=42 velocity=90 time=0\n",
      "note_off channel=0 note=42 velocity=64 time=0.11979166666666666\n",
      "note_off channel=0 note=36 velocity=64 time=0.005208333333333333\n",
      "note_on channel=0 note=42 velocity=81 time=0.13020833333333331\n",
      "note_off channel=0 note=42 velocity=64 time=0.11458333333333333\n",
      "note_on channel=0 note=36 velocity=113 time=0.13020833333333331\n",
      "note_on channel=0 note=38 velocity=115 time=0\n",
      "note_on channel=0 note=42 velocity=86 time=0\n",
      "note_off channel=0 note=42 velocity=64 time=0.09895833333333333\n",
      "note_off channel=0 note=36 velocity=64 time=0.005208333333333333\n",
      "note_off channel=0 note=38 velocity=64 time=0.05208333333333333\n",
      "note_on channel=0 note=38 velocity=112 time=0.109375\n",
      "note_on channel=0 note=42 velocity=94 time=0\n",
      "note_off channel=0 note=42 velocity=64 time=0.11979166666666666\n",
      "note_off channel=0 note=38 velocity=64 time=0.05208333333333333\n"
     ]
    },
    {
     "name": "stdout",
     "output_type": "stream",
     "text": [
      "note_on channel=0 note=36 velocity=113 time=0.0625\n",
      "note_on channel=0 note=42 velocity=86 time=0.005208333333333333\n",
      "note_off channel=0 note=36 velocity=64 time=0.11458333333333333\n",
      "note_off channel=0 note=42 velocity=64 time=0.010416666666666666\n",
      "note_on channel=0 note=42 velocity=101 time=0.11458333333333333\n",
      "note_off channel=0 note=42 velocity=64 time=0.11458333333333333\n",
      "note_on channel=0 note=36 velocity=109 time=0.140625\n",
      "note_on channel=0 note=38 velocity=116 time=0\n",
      "note_on channel=0 note=42 velocity=97 time=0\n",
      "note_off channel=0 note=36 velocity=64 time=0.09895833333333333\n",
      "note_off channel=0 note=42 velocity=64 time=0.03125\n",
      "note_off channel=0 note=38 velocity=64 time=0.015625\n",
      "note_on channel=0 note=42 velocity=93 time=0.109375\n",
      "note_off channel=0 note=42 velocity=64 time=0.13541666666666666\n",
      "note_on channel=0 note=36 velocity=113 time=0.109375\n",
      "<meta message track_name name='03 8th Hat\\x00' time=0>\n",
      "<meta message time_signature numerator=4 denominator=4 clocks_per_click=36 notated_32nd_notes_per_beat=8 time=0>\n",
      "<meta message time_signature numerator=4 denominator=4 clocks_per_click=36 notated_32nd_notes_per_beat=8 time=0>\n",
      "note_on channel=0 note=36 velocity=112 time=0\n",
      "note_on channel=0 note=78 velocity=89 time=0\n",
      "note_off channel=0 note=78 velocity=64 time=0.11979166666666666\n",
      "note_off channel=0 note=36 velocity=64 time=0.005208333333333333\n",
      "note_on channel=0 note=78 velocity=80 time=0.13020833333333331\n",
      "note_off channel=0 note=78 velocity=64 time=0.11458333333333333\n",
      "note_on channel=0 note=36 velocity=112 time=0.125\n",
      "note_on channel=0 note=38 velocity=113 time=0.005208333333333333\n",
      "note_on channel=0 note=78 velocity=85 time=0\n",
      "note_off channel=0 note=78 velocity=64 time=0.09895833333333333\n",
      "note_off channel=0 note=36 velocity=64 time=0.005208333333333333\n",
      "note_off channel=0 note=38 velocity=64 time=0.05208333333333333\n",
      "note_on channel=0 note=78 velocity=93 time=0.10416666666666666\n",
      "note_on channel=0 note=38 velocity=111 time=0.005208333333333333\n",
      "note_off channel=0 note=78 velocity=64 time=0.11979166666666666\n",
      "note_off channel=0 note=38 velocity=64 time=0.05208333333333333\n",
      "note_on channel=0 note=36 velocity=112 time=0.0625\n",
      "note_on channel=0 note=78 velocity=86 time=0.005208333333333333\n",
      "note_off channel=0 note=36 velocity=64 time=0.11458333333333333\n",
      "note_off channel=0 note=78 velocity=64 time=0.010416666666666666\n",
      "note_on channel=0 note=78 velocity=100 time=0.11458333333333333\n",
      "note_off channel=0 note=78 velocity=64 time=0.11458333333333333\n",
      "note_on channel=0 note=36 velocity=108 time=0.140625\n",
      "note_on channel=0 note=78 velocity=96 time=0\n",
      "note_on channel=0 note=38 velocity=114 time=0.005208333333333333\n",
      "note_off channel=0 note=36 velocity=64 time=0.09375\n",
      "note_off channel=0 note=78 velocity=64 time=0.03125\n",
      "note_off channel=0 note=38 velocity=64 time=0.020833333333333332\n",
      "note_on channel=0 note=78 velocity=92 time=0.10416666666666666\n",
      "note_off channel=0 note=78 velocity=64 time=0.13541666666666666\n",
      "note_on channel=0 note=36 velocity=112 time=0.109375\n",
      "<meta message track_name name='04 8th Ride\\x00' time=0>\n",
      "<meta message time_signature numerator=4 denominator=4 clocks_per_click=36 notated_32nd_notes_per_beat=8 time=0>\n",
      "<meta message time_signature numerator=4 denominator=4 clocks_per_click=36 notated_32nd_notes_per_beat=8 time=0>\n",
      "note_on channel=0 note=36 velocity=113 time=0\n",
      "note_on channel=0 note=53 velocity=102 time=0\n",
      "note_off channel=0 note=53 velocity=64 time=0.11979166666666666\n",
      "note_off channel=0 note=36 velocity=64 time=0.005208333333333333\n",
      "note_on channel=0 note=36 velocity=113 time=0.375\n",
      "note_on channel=0 note=38 velocity=115 time=0\n",
      "note_on channel=0 note=53 velocity=98 time=0\n",
      "note_on channel=0 note=44 velocity=117 time=0.005208333333333333\n",
      "note_off channel=0 note=53 velocity=64 time=0.09375\n",
      "note_off channel=0 note=44 velocity=64 time=0.005208333333333333\n",
      "note_off channel=0 note=36 velocity=64 time=0.005208333333333333\n",
      "note_off channel=0 note=38 velocity=64 time=0.046875\n",
      "note_on channel=0 note=38 velocity=112 time=0.109375\n",
      "note_off channel=0 note=38 velocity=64 time=0.171875\n",
      "note_on channel=0 note=36 velocity=113 time=0.0625\n",
      "note_on channel=0 note=53 velocity=99 time=0\n",
      "note_off channel=0 note=36 velocity=64 time=0.11979166666666666\n",
      "note_off channel=0 note=53 velocity=64 time=0.010416666666666666\n",
      "note_on channel=0 note=53 velocity=110 time=0.11458333333333333\n",
      "note_off channel=0 note=53 velocity=64 time=0.11458333333333333\n",
      "note_on channel=0 note=36 velocity=109 time=0.140625\n",
      "note_on channel=0 note=44 velocity=116 time=0\n",
      "note_on channel=0 note=53 velocity=109 time=0\n",
      "note_on channel=0 note=38 velocity=116 time=0.005208333333333333\n",
      "note_off channel=0 note=36 velocity=64 time=0.09375\n",
      "note_off channel=0 note=44 velocity=64 time=0.015625\n",
      "note_off channel=0 note=53 velocity=64 time=0.015625\n",
      "note_off channel=0 note=38 velocity=64 time=0.015625\n",
      "note_on channel=0 note=36 velocity=113 time=0.35416666666666663\n",
      "<meta message track_name name='05 8th Cym\\x00' time=0>\n",
      "<meta message time_signature numerator=4 denominator=4 clocks_per_click=36 notated_32nd_notes_per_beat=8 time=0>\n",
      "<meta message time_signature numerator=4 denominator=4 clocks_per_click=36 notated_32nd_notes_per_beat=8 time=0>\n",
      "note_on channel=0 note=36 velocity=111 time=0\n",
      "note_on channel=0 note=49 velocity=100 time=0\n",
      "note_off channel=0 note=49 velocity=64 time=0.11979166666666666\n",
      "note_off channel=0 note=36 velocity=64 time=0.005208333333333333\n",
      "note_on channel=0 note=36 velocity=111 time=0.375\n",
      "note_on channel=0 note=38 velocity=112 time=0\n",
      "note_on channel=0 note=49 velocity=96 time=0\n",
      "note_on channel=0 note=44 velocity=114 time=0.005208333333333333\n",
      "note_off channel=0 note=49 velocity=64 time=0.09375\n",
      "note_off channel=0 note=44 velocity=64 time=0.005208333333333333\n",
      "note_off channel=0 note=36 velocity=64 time=0.005208333333333333\n",
      "note_off channel=0 note=38 velocity=64 time=0.046875\n",
      "note_on channel=0 note=38 velocity=110 time=0.109375\n",
      "note_off channel=0 note=38 velocity=64 time=0.171875\n",
      "note_on channel=0 note=36 velocity=111 time=0.0625\n",
      "note_on channel=0 note=49 velocity=97 time=0\n",
      "note_off channel=0 note=36 velocity=64 time=0.11979166666666666\n",
      "note_off channel=0 note=49 velocity=64 time=0.010416666666666666\n",
      "note_on channel=0 note=49 velocity=101 time=0.11458333333333333\n",
      "note_off channel=0 note=49 velocity=64 time=0.11458333333333333\n",
      "note_on channel=0 note=36 velocity=107 time=0.140625\n",
      "note_on channel=0 note=44 velocity=113 time=0\n",
      "note_on channel=0 note=49 velocity=100 time=0\n",
      "note_on channel=0 note=38 velocity=113 time=0.005208333333333333\n",
      "note_off channel=0 note=36 velocity=64 time=0.09375\n",
      "note_off channel=0 note=44 velocity=64 time=0.015625\n",
      "note_off channel=0 note=49 velocity=64 time=0.015625\n",
      "note_off channel=0 note=38 velocity=64 time=0.015625\n",
      "note_on channel=0 note=36 velocity=111 time=0.35416666666666663\n",
      "<meta message track_name name='06 8th Cym\\x00' time=0>\n",
      "<meta message time_signature numerator=4 denominator=4 clocks_per_click=36 notated_32nd_notes_per_beat=8 time=0>\n",
      "<meta message time_signature numerator=4 denominator=4 clocks_per_click=36 notated_32nd_notes_per_beat=8 time=0>\n",
      "note_on channel=0 note=36 velocity=107 time=0\n",
      "note_on channel=0 note=49 velocity=97 time=0\n",
      "note_off channel=0 note=49 velocity=64 time=0.11979166666666666\n",
      "note_off channel=0 note=36 velocity=64 time=0.005208333333333333\n",
      "note_on channel=0 note=44 velocity=111 time=0.359375\n",
      "note_on channel=0 note=36 velocity=107 time=0.015625\n",
      "note_on channel=0 note=38 velocity=109 time=0\n",
      "note_on channel=0 note=49 velocity=93 time=0\n",
      "note_off channel=0 note=44 velocity=64 time=0.08333333333333333\n",
      "note_off channel=0 note=49 velocity=64 time=0.015625\n",
      "note_off channel=0 note=36 velocity=64 time=0.010416666666666666\n",
      "note_off channel=0 note=38 velocity=64 time=0.046875\n",
      "note_on channel=0 note=47 velocity=106 time=0.109375\n",
      "note_off channel=0 note=47 velocity=64 time=0.171875\n",
      "note_on channel=0 note=36 velocity=107 time=0.0625\n",
      "note_on channel=0 note=49 velocity=94 time=0\n",
      "note_off channel=0 note=36 velocity=64 time=0.11979166666666666\n",
      "note_off channel=0 note=49 velocity=64 time=0.010416666666666666\n",
      "note_on channel=0 note=49 velocity=98 time=0.11458333333333333\n",
      "note_off channel=0 note=49 velocity=64 time=0.11458333333333333\n",
      "note_on channel=0 note=44 velocity=110 time=0.11979166666666666\n",
      "note_on channel=0 note=36 velocity=104 time=0.020833333333333332\n",
      "note_on channel=0 note=49 velocity=97 time=0\n",
      "note_on channel=0 note=38 velocity=110 time=0.005208333333333333\n",
      "note_off channel=0 note=44 velocity=64 time=0.08854166666666666\n",
      "note_off channel=0 note=36 velocity=64 time=0.005208333333333333\n",
      "note_off channel=0 note=49 velocity=64 time=0.03125\n",
      "note_off channel=0 note=38 velocity=64 time=0.015625\n",
      "note_on channel=0 note=36 velocity=107 time=0.35416666666666663\n",
      "<meta message track_name name='07 8th Cym\\x00' time=0>\n",
      "<meta message time_signature numerator=4 denominator=4 clocks_per_click=36 notated_32nd_notes_per_beat=8 time=0>\n",
      "<meta message time_signature numerator=4 denominator=4 clocks_per_click=36 notated_32nd_notes_per_beat=8 time=0>\n",
      "note_on channel=0 note=36 velocity=103 time=0\n",
      "note_on channel=0 note=49 velocity=93 time=0\n",
      "note_off channel=0 note=49 velocity=64 time=0.11979166666666666\n",
      "note_off channel=0 note=36 velocity=64 time=0.005208333333333333\n",
      "note_on channel=0 note=36 velocity=103 time=0.375\n",
      "note_on channel=0 note=38 velocity=105 time=0\n",
      "note_on channel=0 note=49 velocity=89 time=0\n",
      "note_on channel=0 note=44 velocity=106 time=0.005208333333333333\n",
      "note_off channel=0 note=49 velocity=64 time=0.09375\n",
      "note_off channel=0 note=44 velocity=64 time=0.005208333333333333\n",
      "note_off channel=0 note=36 velocity=64 time=0.005208333333333333\n",
      "note_off channel=0 note=38 velocity=64 time=0.046875\n",
      "note_on channel=0 note=47 velocity=102 time=0.109375\n",
      "note_off channel=0 note=47 velocity=64 time=0.171875\n",
      "note_on channel=0 note=36 velocity=103 time=0.0625\n",
      "note_on channel=0 note=49 velocity=90 time=0\n",
      "note_off channel=0 note=36 velocity=64 time=0.11979166666666666\n",
      "note_off channel=0 note=49 velocity=64 time=0.010416666666666666\n",
      "note_on channel=0 note=49 velocity=94 time=0.11458333333333333\n",
      "note_off channel=0 note=49 velocity=64 time=0.11458333333333333\n",
      "note_on channel=0 note=36 velocity=99 time=0.140625\n",
      "note_on channel=0 note=44 velocity=105 time=0\n",
      "note_on channel=0 note=49 velocity=93 time=0\n",
      "note_on channel=0 note=38 velocity=105 time=0.005208333333333333\n",
      "note_off channel=0 note=36 velocity=64 time=0.09375\n",
      "note_off channel=0 note=44 velocity=64 time=0.015625\n",
      "note_off channel=0 note=49 velocity=64 time=0.015625\n",
      "note_off channel=0 note=38 velocity=64 time=0.015625\n",
      "note_on channel=0 note=36 velocity=103 time=0.35416666666666663\n",
      "<meta message track_name name='08 Fill 1\\x00' time=0>\n",
      "<meta message time_signature numerator=4 denominator=4 clocks_per_click=36 notated_32nd_notes_per_beat=8 time=0>\n",
      "<meta message time_signature numerator=4 denominator=4 clocks_per_click=36 notated_32nd_notes_per_beat=8 time=0>\n",
      "note_on channel=0 note=36 velocity=110 time=0\n",
      "note_on channel=0 note=39 velocity=114 time=0\n",
      "note_on channel=0 note=49 velocity=99 time=0\n",
      "note_off channel=0 note=49 velocity=64 time=0.10416666666666666\n",
      "note_off channel=0 note=39 velocity=0 time=0.005208333333333333\n",
      "note_on channel=0 note=25 velocity=102 time=0.015625\n",
      "note_off channel=0 note=36 velocity=64 time=0.005208333333333333\n",
      "note_off channel=0 note=25 velocity=64 time=0.09375\n",
      "note_on channel=0 note=36 velocity=109 time=0.28125\n",
      "note_on channel=0 note=44 velocity=112 time=0\n",
      "note_off channel=0 note=44 velocity=64 time=0.09895833333333333\n",
      "note_off channel=0 note=36 velocity=64 time=0.005208333333333333\n",
      "note_on channel=0 note=36 velocity=109 time=0.3958333333333333\n",
      "note_off channel=0 note=36 velocity=64 time=0.11979166666666666\n",
      "note_on channel=0 note=39 velocity=96 time=0.13020833333333331\n",
      "note_on channel=0 note=49 velocity=96 time=0.015625\n",
      "note_off channel=0 note=49 velocity=64 time=0.15625\n",
      "note_off channel=0 note=39 velocity=64 time=0.015625\n",
      "note_on channel=0 note=44 velocity=111 time=0.057291666666666664\n",
      "note_on channel=0 note=49 velocity=94 time=0\n",
      "note_on channel=0 note=36 velocity=105 time=0.005208333333333333\n",
      "note_on channel=0 note=39 velocity=111 time=0\n",
      "note_off channel=0 note=36 velocity=64 time=0.09895833333333333\n",
      "note_off channel=0 note=49 velocity=64 time=0.005208333333333333\n",
      "note_off channel=0 note=44 velocity=64 time=0.005208333333333333\n",
      "note_off channel=0 note=39 velocity=64 time=0.078125\n",
      "note_on channel=0 note=49 velocity=95 time=0.057291666666666664\n",
      "note_on channel=0 note=39 velocity=104 time=0.005208333333333333\n",
      "note_off channel=0 note=49 velocity=64 time=0.140625\n",
      "note_off channel=0 note=39 velocity=64 time=0.046875\n",
      "note_on channel=0 note=36 velocity=110 time=0.057291666666666664\n",
      "<meta message track_name name='09 Fill 2\\x00' time=0>\n",
      "<meta message time_signature numerator=4 denominator=4 clocks_per_click=36 notated_32nd_notes_per_beat=8 time=0>\n",
      "<meta message time_signature numerator=4 denominator=4 clocks_per_click=36 notated_32nd_notes_per_beat=8 time=0>\n",
      "note_on channel=0 note=36 velocity=106 time=0\n",
      "note_on channel=0 note=39 velocity=109 time=0\n",
      "note_on channel=0 note=49 velocity=95 time=0\n",
      "note_off channel=0 note=49 velocity=64 time=0.10416666666666666\n",
      "note_off channel=0 note=39 velocity=0 time=0.005208333333333333\n",
      "note_on channel=0 note=25 velocity=98 time=0.015625\n",
      "note_off channel=0 note=36 velocity=64 time=0.005208333333333333\n",
      "note_off channel=0 note=25 velocity=64 time=0.09375\n",
      "note_on channel=0 note=36 velocity=104 time=0.28125\n",
      "note_on channel=0 note=44 velocity=108 time=0\n",
      "note_off channel=0 note=44 velocity=64 time=0.09895833333333333\n",
      "note_off channel=0 note=36 velocity=64 time=0.005208333333333333\n",
      "note_on channel=0 note=36 velocity=104 time=0.3958333333333333\n",
      "note_off channel=0 note=36 velocity=64 time=0.11979166666666666\n",
      "note_on channel=0 note=39 velocity=92 time=0.13020833333333331\n",
      "note_on channel=0 note=49 velocity=92 time=0.015625\n",
      "note_off channel=0 note=49 velocity=64 time=0.15625\n",
      "note_off channel=0 note=39 velocity=64 time=0.015625\n",
      "note_on channel=0 note=44 velocity=107 time=0.057291666666666664\n",
      "note_on channel=0 note=49 velocity=90 time=0\n",
      "note_on channel=0 note=36 velocity=101 time=0.005208333333333333\n",
      "note_on channel=0 note=39 velocity=107 time=0\n",
      "note_off channel=0 note=36 velocity=64 time=0.09895833333333333\n",
      "note_off channel=0 note=49 velocity=64 time=0.005208333333333333\n",
      "note_off channel=0 note=44 velocity=64 time=0.005208333333333333\n",
      "note_off channel=0 note=39 velocity=64 time=0.078125\n",
      "note_on channel=0 note=49 velocity=91 time=0.057291666666666664\n",
      "note_on channel=0 note=39 velocity=100 time=0.005208333333333333\n",
      "note_off channel=0 note=49 velocity=64 time=0.140625\n",
      "note_off channel=0 note=39 velocity=64 time=0.046875\n",
      "note_on channel=0 note=36 velocity=106 time=0.057291666666666664\n",
      "<meta message track_name name='10 Fill 3\\x00' time=0>\n",
      "<meta message time_signature numerator=4 denominator=4 clocks_per_click=36 notated_32nd_notes_per_beat=8 time=0>\n",
      "<meta message time_signature numerator=4 denominator=4 clocks_per_click=36 notated_32nd_notes_per_beat=8 time=0>\n",
      "note_on channel=0 note=36 velocity=109 time=0\n",
      "note_on channel=0 note=39 velocity=113 time=0\n",
      "note_on channel=0 note=49 velocity=98 time=0\n",
      "note_off channel=0 note=49 velocity=64 time=0.10416666666666666\n",
      "note_off channel=0 note=39 velocity=0 time=0.005208333333333333\n",
      "note_on channel=0 note=25 velocity=101 time=0.015625\n",
      "note_off channel=0 note=36 velocity=64 time=0.005208333333333333\n",
      "note_off channel=0 note=25 velocity=64 time=0.09375\n",
      "note_on channel=0 note=36 velocity=107 time=0.28125\n",
      "note_on channel=0 note=44 velocity=111 time=0\n",
      "note_off channel=0 note=44 velocity=64 time=0.09895833333333333\n",
      "note_off channel=0 note=36 velocity=64 time=0.005208333333333333\n",
      "note_on channel=0 note=36 velocity=107 time=0.3958333333333333\n",
      "note_off channel=0 note=36 velocity=64 time=0.11979166666666666\n",
      "note_on channel=0 note=39 velocity=95 time=0.13020833333333331\n",
      "note_on channel=0 note=49 velocity=95 time=0.015625\n",
      "note_off channel=0 note=49 velocity=64 time=0.15625\n",
      "note_off channel=0 note=39 velocity=64 time=0.015625\n",
      "note_on channel=0 note=44 velocity=110 time=0.057291666666666664\n",
      "note_on channel=0 note=49 velocity=93 time=0\n",
      "note_on channel=0 note=36 velocity=104 time=0.005208333333333333\n",
      "note_on channel=0 note=39 velocity=110 time=0\n",
      "note_off channel=0 note=36 velocity=64 time=0.09895833333333333\n",
      "note_off channel=0 note=49 velocity=64 time=0.005208333333333333\n",
      "note_off channel=0 note=44 velocity=64 time=0.005208333333333333\n",
      "note_off channel=0 note=39 velocity=64 time=0.078125\n",
      "note_on channel=0 note=49 velocity=94 time=0.057291666666666664\n",
      "note_on channel=0 note=39 velocity=103 time=0.005208333333333333\n",
      "note_off channel=0 note=49 velocity=64 time=0.140625\n",
      "note_off channel=0 note=39 velocity=64 time=0.046875\n",
      "note_on channel=0 note=36 velocity=109 time=0.057291666666666664\n",
      "<meta message track_name name='01 16th Snare\\x00' time=0>\n",
      "<meta message time_signature numerator=4 denominator=4 clocks_per_click=36 notated_32nd_notes_per_beat=8 time=0>\n",
      "<meta message time_signature numerator=4 denominator=4 clocks_per_click=36 notated_32nd_notes_per_beat=8 time=0>\n",
      "note_on channel=0 note=36 velocity=104 time=0\n",
      "note_on channel=0 note=38 velocity=57 time=0\n",
      "note_off channel=0 note=38 velocity=64 time=0.08333333333333333\n",
      "note_off channel=0 note=36 velocity=64 time=0.020833333333333332\n",
      "note_on channel=0 note=38 velocity=73 time=0.010416666666666666\n",
      "note_off channel=0 note=38 velocity=64 time=0.08333333333333333\n",
      "note_on channel=0 note=38 velocity=107 time=0.041666666666666664\n",
      "note_off channel=0 note=38 velocity=64 time=0.109375\n",
      "note_on channel=0 note=38 velocity=104 time=0.020833333333333332\n",
      "note_off channel=0 note=38 velocity=64 time=0.09895833333333333\n",
      "note_on channel=0 note=38 velocity=64 time=0.020833333333333332\n",
      "note_on channel=0 note=36 velocity=103 time=0.005208333333333333\n",
      "note_on channel=0 note=44 velocity=105 time=0\n",
      "note_off channel=0 note=38 velocity=64 time=0.08854166666666666\n",
      "note_off channel=0 note=36 velocity=64 time=0.020833333333333332\n",
      "note_off channel=0 note=44 velocity=64 time=0.005208333333333333\n",
      "note_on channel=0 note=38 velocity=107 time=0.13020833333333331\n",
      "note_off channel=0 note=38 velocity=64 time=0.109375\n",
      "note_on channel=0 note=38 velocity=27 time=0.03125\n",
      "note_off channel=0 note=38 velocity=64 time=0.08333333333333333\n",
      "note_on channel=0 note=36 velocity=104 time=0.03645833333333333\n",
      "note_on channel=0 note=38 velocity=54 time=0\n",
      "note_off channel=0 note=36 velocity=64 time=0.078125\n",
      "note_off channel=0 note=38 velocity=64 time=0\n",
      "note_on channel=0 note=38 velocity=98 time=0.041666666666666664\n",
      "note_off channel=0 note=38 velocity=64 time=0.09375\n",
      "note_on channel=0 note=38 velocity=107 time=0.026041666666666664\n",
      "note_off channel=0 note=38 velocity=64 time=0.09895833333333333\n",
      "note_on channel=0 note=38 velocity=104 time=0.03125\n",
      "note_off channel=0 note=38 velocity=64 time=0.08333333333333333\n",
      "note_on channel=0 note=36 velocity=104 time=0.03645833333333333\n",
      "note_on channel=0 note=38 velocity=50 time=0\n",
      "note_on channel=0 note=44 velocity=107 time=0\n",
      "note_off channel=0 note=38 velocity=64 time=0.078125\n",
      "note_off channel=0 note=36 velocity=64 time=0.03125\n",
      "note_off channel=0 note=44 velocity=64 time=0\n",
      "note_on channel=0 note=38 velocity=74 time=0.005208333333333333\n",
      "note_off channel=0 note=38 velocity=64 time=0.08854166666666666\n",
      "note_on channel=0 note=38 velocity=107 time=0.03645833333333333\n",
      "note_on channel=0 note=36 velocity=99 time=0.010416666666666666\n",
      "note_off channel=0 note=38 velocity=64 time=0.08854166666666666\n",
      "note_off channel=0 note=36 velocity=64 time=0.026041666666666664\n",
      "note_on channel=0 note=38 velocity=34 time=0\n",
      "note_off channel=0 note=38 velocity=64 time=0.08854166666666666\n",
      "note_on channel=0 note=36 velocity=104 time=0.05208333333333333\n",
      "<meta message track_name name='02 16th Snare\\x00' time=0>\n",
      "<meta message time_signature numerator=4 denominator=4 clocks_per_click=36 notated_32nd_notes_per_beat=8 time=0>\n",
      "<meta message time_signature numerator=4 denominator=4 clocks_per_click=36 notated_32nd_notes_per_beat=8 time=0>\n",
      "note_on channel=0 note=36 velocity=104 time=0\n",
      "note_on channel=0 note=41 velocity=100 time=0\n",
      "note_off channel=0 note=41 velocity=64 time=0.08333333333333333\n",
      "note_off channel=0 note=36 velocity=64 time=0.020833333333333332\n",
      "note_on channel=0 note=38 velocity=73 time=0.010416666666666666\n",
      "note_off channel=0 note=38 velocity=64 time=0.08333333333333333\n",
      "note_on channel=0 note=38 velocity=107 time=0.041666666666666664\n",
      "note_off channel=0 note=38 velocity=64 time=0.109375\n",
      "note_on channel=0 note=38 velocity=104 time=0.020833333333333332\n",
      "note_off channel=0 note=38 velocity=64 time=0.09895833333333333\n",
      "note_on channel=0 note=41 velocity=107 time=0.020833333333333332\n",
      "note_on channel=0 note=36 velocity=103 time=0.005208333333333333\n",
      "note_on channel=0 note=44 velocity=105 time=0\n",
      "note_off channel=0 note=41 velocity=64 time=0.08854166666666666\n",
      "note_off channel=0 note=36 velocity=64 time=0.020833333333333332\n",
      "note_off channel=0 note=44 velocity=64 time=0.005208333333333333\n",
      "note_on channel=0 note=38 velocity=107 time=0.13020833333333331\n",
      "note_off channel=0 note=38 velocity=64 time=0.109375\n",
      "note_on channel=0 note=38 velocity=27 time=0.03125\n",
      "note_off channel=0 note=38 velocity=64 time=0.08333333333333333\n",
      "note_on channel=0 note=36 velocity=104 time=0.03645833333333333\n",
      "note_on channel=0 note=41 velocity=97 time=0\n",
      "note_off channel=0 note=36 velocity=64 time=0.078125\n",
      "note_off channel=0 note=41 velocity=64 time=0\n",
      "note_on channel=0 note=38 velocity=98 time=0.041666666666666664\n",
      "note_off channel=0 note=38 velocity=64 time=0.09375\n",
      "note_on channel=0 note=38 velocity=107 time=0.026041666666666664\n",
      "note_off channel=0 note=38 velocity=64 time=0.09895833333333333\n",
      "note_on channel=0 note=38 velocity=104 time=0.03125\n",
      "note_off channel=0 note=38 velocity=64 time=0.08333333333333333\n",
      "note_on channel=0 note=36 velocity=104 time=0.03645833333333333\n",
      "note_on channel=0 note=41 velocity=94 time=0\n",
      "note_on channel=0 note=44 velocity=107 time=0\n",
      "note_off channel=0 note=41 velocity=64 time=0.078125\n",
      "note_off channel=0 note=36 velocity=64 time=0.03125\n",
      "note_off channel=0 note=44 velocity=64 time=0\n",
      "note_on channel=0 note=38 velocity=74 time=0.005208333333333333\n",
      "note_off channel=0 note=38 velocity=64 time=0.08854166666666666\n",
      "note_on channel=0 note=38 velocity=107 time=0.03645833333333333\n",
      "note_on channel=0 note=36 velocity=99 time=0.010416666666666666\n",
      "note_off channel=0 note=38 velocity=64 time=0.08854166666666666\n",
      "note_off channel=0 note=36 velocity=64 time=0.026041666666666664\n",
      "note_on channel=0 note=38 velocity=34 time=0\n",
      "note_off channel=0 note=38 velocity=64 time=0.08854166666666666\n",
      "note_on channel=0 note=36 velocity=104 time=0.05208333333333333\n",
      "<meta message track_name name='03 16th Snare\\x00' time=0>\n",
      "<meta message time_signature numerator=4 denominator=4 clocks_per_click=36 notated_32nd_notes_per_beat=8 time=0>\n",
      "<meta message time_signature numerator=4 denominator=4 clocks_per_click=36 notated_32nd_notes_per_beat=8 time=0>\n",
      "note_on channel=0 note=36 velocity=103 time=0\n",
      "note_on channel=0 note=41 velocity=95 time=0\n",
      "note_off channel=0 note=41 velocity=64 time=0.08333333333333333\n",
      "note_off channel=0 note=36 velocity=64 time=0.020833333333333332\n",
      "note_on channel=0 note=38 velocity=72 time=0.010416666666666666\n",
      "note_off channel=0 note=38 velocity=64 time=0.08333333333333333\n",
      "note_on channel=0 note=38 velocity=106 time=0.041666666666666664\n",
      "note_off channel=0 note=38 velocity=64 time=0.109375\n",
      "note_on channel=0 note=38 velocity=103 time=0.020833333333333332\n",
      "note_off channel=0 note=38 velocity=64 time=0.09895833333333333\n",
      "note_on channel=0 note=47 velocity=102 time=0.020833333333333332\n",
      "note_on channel=0 note=36 velocity=102 time=0.005208333333333333\n",
      "note_on channel=0 note=44 velocity=104 time=0\n",
      "note_off channel=0 note=47 velocity=64 time=0.08854166666666666\n",
      "note_off channel=0 note=36 velocity=64 time=0.020833333333333332\n",
      "note_off channel=0 note=44 velocity=64 time=0.005208333333333333\n",
      "note_on channel=0 note=38 velocity=106 time=0.13020833333333331\n",
      "note_off channel=0 note=38 velocity=64 time=0.109375\n",
      "note_on channel=0 note=38 velocity=26 time=0.03125\n",
      "note_off channel=0 note=38 velocity=64 time=0.08333333333333333\n",
      "note_on channel=0 note=36 velocity=103 time=0.03645833333333333\n",
      "note_on channel=0 note=41 velocity=98 time=0\n",
      "note_off channel=0 note=36 velocity=64 time=0.078125\n",
      "note_off channel=0 note=41 velocity=64 time=0\n",
      "note_on channel=0 note=38 velocity=97 time=0.041666666666666664\n",
      "note_off channel=0 note=38 velocity=64 time=0.09375\n",
      "note_on channel=0 note=38 velocity=106 time=0.026041666666666664\n",
      "note_off channel=0 note=38 velocity=64 time=0.09895833333333333\n",
      "note_on channel=0 note=38 velocity=103 time=0.03125\n",
      "note_off channel=0 note=38 velocity=64 time=0.08333333333333333\n",
      "note_on channel=0 note=36 velocity=103 time=0.03645833333333333\n",
      "note_on channel=0 note=44 velocity=106 time=0\n",
      "note_on channel=0 note=47 velocity=94 time=0\n",
      "note_off channel=0 note=47 velocity=64 time=0.078125\n",
      "note_off channel=0 note=36 velocity=64 time=0.03125\n",
      "note_off channel=0 note=44 velocity=64 time=0\n",
      "note_on channel=0 note=38 velocity=73 time=0.005208333333333333\n",
      "note_off channel=0 note=38 velocity=64 time=0.08854166666666666\n",
      "note_on channel=0 note=38 velocity=106 time=0.03645833333333333\n",
      "note_on channel=0 note=36 velocity=98 time=0.010416666666666666\n",
      "note_off channel=0 note=38 velocity=64 time=0.08854166666666666\n",
      "note_off channel=0 note=36 velocity=64 time=0.026041666666666664\n",
      "note_on channel=0 note=38 velocity=34 time=0\n",
      "note_off channel=0 note=38 velocity=64 time=0.08854166666666666\n",
      "note_on channel=0 note=36 velocity=103 time=0.05208333333333333\n",
      "<meta message track_name name='04 16th Snare\\x00' time=0>\n",
      "<meta message time_signature numerator=4 denominator=4 clocks_per_click=36 notated_32nd_notes_per_beat=8 time=0>\n",
      "<meta message time_signature numerator=4 denominator=4 clocks_per_click=36 notated_32nd_notes_per_beat=8 time=0>\n",
      "note_on channel=0 note=36 velocity=101 time=0\n",
      "note_on channel=0 note=41 velocity=94 time=0\n",
      "note_off channel=0 note=41 velocity=64 time=0.08333333333333333\n",
      "note_off channel=0 note=36 velocity=64 time=0.020833333333333332\n",
      "note_on channel=0 note=38 velocity=72 time=0.010416666666666666\n",
      "note_off channel=0 note=38 velocity=64 time=0.08333333333333333\n",
      "note_on channel=0 note=31 velocity=95 time=0.041666666666666664\n",
      "note_on channel=0 note=38 velocity=105 time=0\n",
      "note_off channel=0 note=38 velocity=64 time=0.109375\n",
      "note_off channel=0 note=31 velocity=64 time=0.005208333333333333\n",
      "note_on channel=0 note=38 velocity=101 time=0.015625\n",
      "note_off channel=0 note=38 velocity=64 time=0.09895833333333333\n",
      "note_on channel=0 note=47 velocity=101 time=0.020833333333333332\n",
      "note_on channel=0 note=36 velocity=101 time=0.005208333333333333\n",
      "note_on channel=0 note=44 velocity=103 time=0\n",
      "note_off channel=0 note=47 velocity=64 time=0.08854166666666666\n",
      "note_off channel=0 note=36 velocity=64 time=0.020833333333333332\n",
      "note_off channel=0 note=44 velocity=64 time=0.005208333333333333\n",
      "note_on channel=0 note=31 velocity=95 time=0.13020833333333331\n",
      "note_on channel=0 note=38 velocity=105 time=0\n",
      "note_off channel=0 note=31 velocity=64 time=0.109375\n",
      "note_off channel=0 note=38 velocity=64 time=0\n",
      "note_on channel=0 note=38 velocity=26 time=0.03125\n",
      "note_off channel=0 note=38 velocity=64 time=0.08333333333333333\n",
      "note_on channel=0 note=36 velocity=101 time=0.03645833333333333\n",
      "note_on channel=0 note=41 velocity=96 time=0\n",
      "note_off channel=0 note=36 velocity=64 time=0.078125\n",
      "note_off channel=0 note=41 velocity=64 time=0\n",
      "note_on channel=0 note=38 velocity=96 time=0.041666666666666664\n",
      "note_off channel=0 note=38 velocity=64 time=0.09375\n",
      "note_on channel=0 note=31 velocity=92 time=0.026041666666666664\n",
      "note_on channel=0 note=38 velocity=105 time=0\n",
      "note_off channel=0 note=38 velocity=64 time=0.09895833333333333\n",
      "note_off channel=0 note=31 velocity=64 time=0.010416666666666666\n",
      "note_on channel=0 note=38 velocity=101 time=0.020833333333333332\n",
      "note_off channel=0 note=38 velocity=64 time=0.08333333333333333\n",
      "note_on channel=0 note=36 velocity=101 time=0.03645833333333333\n",
      "note_on channel=0 note=44 velocity=105 time=0\n",
      "note_on channel=0 note=47 velocity=93 time=0\n",
      "note_off channel=0 note=47 velocity=64 time=0.078125\n",
      "note_off channel=0 note=36 velocity=64 time=0.03125\n",
      "note_off channel=0 note=44 velocity=64 time=0\n",
      "note_on channel=0 note=38 velocity=72 time=0.005208333333333333\n",
      "note_off channel=0 note=38 velocity=64 time=0.08854166666666666\n",
      "note_on channel=0 note=38 velocity=105 time=0.03645833333333333\n",
      "note_on channel=0 note=31 velocity=99 time=0.005208333333333333\n",
      "note_on channel=0 note=36 velocity=96 time=0.005208333333333333\n",
      "note_off channel=0 note=38 velocity=64 time=0.08854166666666666\n",
      "note_off channel=0 note=31 velocity=64 time=0.020833333333333332\n",
      "note_off channel=0 note=36 velocity=64 time=0.005208333333333333\n",
      "note_on channel=0 note=38 velocity=33 time=0\n",
      "note_off channel=0 note=38 velocity=64 time=0.08854166666666666\n",
      "note_on channel=0 note=36 velocity=101 time=0.05208333333333333\n",
      "<meta message track_name name='05 16th Snare\\x00' time=0>\n",
      "<meta message time_signature numerator=4 denominator=4 clocks_per_click=36 notated_32nd_notes_per_beat=8 time=0>\n",
      "<meta message time_signature numerator=4 denominator=4 clocks_per_click=36 notated_32nd_notes_per_beat=8 time=0>\n",
      "note_on channel=0 note=36 velocity=107 time=0\n",
      "note_on channel=0 note=41 velocity=99 time=0\n",
      "note_off channel=0 note=41 velocity=64 time=0.08333333333333333\n",
      "note_off channel=0 note=36 velocity=64 time=0.020833333333333332\n",
      "note_on channel=0 note=38 velocity=76 time=0.010416666666666666\n",
      "note_off channel=0 note=38 velocity=64 time=0.08333333333333333\n",
      "note_on channel=0 note=31 velocity=100 time=0.041666666666666664\n",
      "note_on channel=0 note=38 velocity=111 time=0\n",
      "note_off channel=0 note=38 velocity=64 time=0.109375\n",
      "note_off channel=0 note=31 velocity=64 time=0.005208333333333333\n",
      "note_on channel=0 note=47 velocity=93 time=0.015625\n",
      "note_off channel=0 note=47 velocity=64 time=0.09895833333333333\n",
      "note_on channel=0 note=47 velocity=106 time=0.020833333333333332\n",
      "note_on channel=0 note=36 velocity=106 time=0.005208333333333333\n",
      "note_on channel=0 note=44 velocity=109 time=0\n",
      "note_off channel=0 note=47 velocity=64 time=0.08854166666666666\n",
      "note_off channel=0 note=36 velocity=64 time=0.020833333333333332\n",
      "note_off channel=0 note=44 velocity=64 time=0.005208333333333333\n",
      "note_on channel=0 note=31 velocity=100 time=0.13020833333333331\n",
      "note_on channel=0 note=38 velocity=111 time=0\n",
      "note_off channel=0 note=31 velocity=64 time=0.109375\n",
      "note_off channel=0 note=38 velocity=64 time=0\n",
      "note_on channel=0 note=38 velocity=27 time=0.03125\n",
      "note_off channel=0 note=38 velocity=64 time=0.08333333333333333\n",
      "note_on channel=0 note=36 velocity=107 time=0.03645833333333333\n",
      "note_on channel=0 note=41 velocity=102 time=0\n",
      "note_off channel=0 note=36 velocity=64 time=0.078125\n",
      "note_off channel=0 note=41 velocity=64 time=0\n",
      "note_on channel=0 note=41 velocity=101 time=0.041666666666666664\n",
      "note_off channel=0 note=41 velocity=64 time=0.09375\n",
      "note_on channel=0 note=31 velocity=97 time=0.026041666666666664\n",
      "note_on channel=0 note=38 velocity=111 time=0\n",
      "note_off channel=0 note=38 velocity=64 time=0.09895833333333333\n",
      "note_off channel=0 note=31 velocity=64 time=0.010416666666666666\n",
      "note_on channel=0 note=47 velocity=107 time=0.020833333333333332\n",
      "note_off channel=0 note=47 velocity=64 time=0.08333333333333333\n",
      "note_on channel=0 note=36 velocity=107 time=0.03645833333333333\n",
      "note_on channel=0 note=44 velocity=111 time=0\n",
      "note_on channel=0 note=47 velocity=98 time=0\n",
      "note_off channel=0 note=47 velocity=64 time=0.078125\n",
      "note_off channel=0 note=36 velocity=64 time=0.03125\n",
      "note_off channel=0 note=44 velocity=64 time=0\n",
      "note_on channel=0 note=38 velocity=76 time=0.005208333333333333\n",
      "note_off channel=0 note=38 velocity=64 time=0.08854166666666666\n",
      "note_on channel=0 note=38 velocity=111 time=0.03645833333333333\n",
      "note_on channel=0 note=31 velocity=104 time=0.005208333333333333\n",
      "note_on channel=0 note=36 velocity=102 time=0.005208333333333333\n",
      "note_off channel=0 note=38 velocity=64 time=0.08854166666666666\n",
      "note_off channel=0 note=31 velocity=64 time=0.020833333333333332\n",
      "note_off channel=0 note=36 velocity=64 time=0.005208333333333333\n",
      "note_on channel=0 note=38 velocity=102 time=0\n",
      "note_off channel=0 note=38 velocity=64 time=0.08854166666666666\n",
      "note_on channel=0 note=36 velocity=107 time=0.05208333333333333\n",
      "<meta message track_name name='06 16th Perc\\x00' time=0>\n",
      "<meta message time_signature numerator=4 denominator=4 clocks_per_click=36 notated_32nd_notes_per_beat=8 time=0>\n",
      "<meta message time_signature numerator=4 denominator=4 clocks_per_click=36 notated_32nd_notes_per_beat=8 time=0>\n",
      "note_on channel=0 note=36 velocity=103 time=0\n",
      "note_on channel=0 note=41 velocity=99 time=0\n",
      "note_off channel=0 note=41 velocity=64 time=0.08333333333333333\n",
      "note_off channel=0 note=36 velocity=64 time=0.020833333333333332\n",
      "note_on channel=0 note=61 velocity=72 time=0.010416666666666666\n",
      "note_off channel=0 note=61 velocity=64 time=0.08333333333333333\n",
      "note_on channel=0 note=31 velocity=96 time=0.041666666666666664\n",
      "note_on channel=0 note=61 velocity=106 time=0\n",
      "note_off channel=0 note=61 velocity=64 time=0.109375\n",
      "note_off channel=0 note=31 velocity=64 time=0.005208333333333333\n"
     ]
    },
    {
     "name": "stdout",
     "output_type": "stream",
     "text": [
      "note_on channel=0 note=61 velocity=103 time=0.015625\n",
      "note_off channel=0 note=61 velocity=64 time=0.09895833333333333\n",
      "note_on channel=0 note=47 velocity=98 time=0.020833333333333332\n",
      "note_on channel=0 note=36 velocity=102 time=0.005208333333333333\n",
      "note_on channel=0 note=44 velocity=104 time=0\n",
      "note_off channel=0 note=47 velocity=64 time=0.08854166666666666\n",
      "note_off channel=0 note=36 velocity=64 time=0.020833333333333332\n",
      "note_off channel=0 note=44 velocity=64 time=0.005208333333333333\n",
      "note_on channel=0 note=31 velocity=96 time=0.13020833333333331\n",
      "note_on channel=0 note=61 velocity=106 time=0\n",
      "note_off channel=0 note=31 velocity=64 time=0.109375\n",
      "note_off channel=0 note=61 velocity=64 time=0\n",
      "note_on channel=0 note=61 velocity=26 time=0.03125\n",
      "note_off channel=0 note=61 velocity=64 time=0.08333333333333333\n",
      "note_on channel=0 note=36 velocity=103 time=0.03645833333333333\n",
      "note_on channel=0 note=41 velocity=102 time=0\n",
      "note_off channel=0 note=36 velocity=64 time=0.078125\n",
      "note_off channel=0 note=41 velocity=64 time=0\n",
      "note_on channel=0 note=61 velocity=97 time=0.041666666666666664\n",
      "note_off channel=0 note=61 velocity=64 time=0.09375\n",
      "note_on channel=0 note=31 velocity=93 time=0.026041666666666664\n",
      "note_on channel=0 note=61 velocity=106 time=0\n",
      "note_off channel=0 note=61 velocity=64 time=0.09895833333333333\n",
      "note_off channel=0 note=31 velocity=64 time=0.010416666666666666\n",
      "note_on channel=0 note=61 velocity=103 time=0.020833333333333332\n",
      "note_off channel=0 note=61 velocity=64 time=0.08333333333333333\n",
      "note_on channel=0 note=36 velocity=103 time=0.03645833333333333\n",
      "note_on channel=0 note=44 velocity=106 time=0\n",
      "note_on channel=0 note=47 velocity=91 time=0\n",
      "note_off channel=0 note=47 velocity=64 time=0.078125\n",
      "note_off channel=0 note=36 velocity=64 time=0.03125\n",
      "note_off channel=0 note=44 velocity=64 time=0\n",
      "note_on channel=0 note=61 velocity=73 time=0.005208333333333333\n",
      "note_off channel=0 note=61 velocity=64 time=0.08854166666666666\n",
      "note_on channel=0 note=61 velocity=106 time=0.03645833333333333\n",
      "note_on channel=0 note=31 velocity=100 time=0.005208333333333333\n",
      "note_on channel=0 note=36 velocity=98 time=0.005208333333333333\n",
      "note_off channel=0 note=61 velocity=64 time=0.08854166666666666\n",
      "note_off channel=0 note=31 velocity=64 time=0.020833333333333332\n",
      "note_off channel=0 note=36 velocity=64 time=0.005208333333333333\n",
      "note_on channel=0 note=61 velocity=34 time=0\n",
      "note_off channel=0 note=61 velocity=64 time=0.08854166666666666\n",
      "note_on channel=0 note=36 velocity=103 time=0.05208333333333333\n",
      "<meta message track_name name='07 16th Perc\\x00' time=0>\n",
      "<meta message time_signature numerator=4 denominator=4 clocks_per_click=36 notated_32nd_notes_per_beat=8 time=0>\n",
      "<meta message time_signature numerator=4 denominator=4 clocks_per_click=36 notated_32nd_notes_per_beat=8 time=0>\n",
      "note_on channel=0 note=36 velocity=105 time=0\n",
      "note_on channel=0 note=53 velocity=101 time=0\n",
      "note_off channel=0 note=53 velocity=64 time=0.08333333333333333\n",
      "note_off channel=0 note=36 velocity=64 time=0.020833333333333332\n",
      "note_on channel=0 note=61 velocity=74 time=0.010416666666666666\n",
      "note_off channel=0 note=61 velocity=64 time=0.08333333333333333\n",
      "note_on channel=0 note=31 velocity=98 time=0.041666666666666664\n",
      "note_on channel=0 note=61 velocity=108 time=0\n",
      "note_off channel=0 note=61 velocity=64 time=0.109375\n",
      "note_off channel=0 note=31 velocity=64 time=0.005208333333333333\n",
      "note_on channel=0 note=61 velocity=105 time=0.015625\n",
      "note_off channel=0 note=61 velocity=64 time=0.09895833333333333\n",
      "note_on channel=0 note=47 velocity=101 time=0.020833333333333332\n",
      "note_on channel=0 note=36 velocity=104 time=0.005208333333333333\n",
      "note_on channel=0 note=44 velocity=107 time=0\n",
      "note_off channel=0 note=47 velocity=64 time=0.08854166666666666\n",
      "note_off channel=0 note=36 velocity=64 time=0.020833333333333332\n",
      "note_off channel=0 note=44 velocity=64 time=0.005208333333333333\n",
      "note_on channel=0 note=31 velocity=98 time=0.13020833333333331\n",
      "note_on channel=0 note=61 velocity=108 time=0\n",
      "note_off channel=0 note=31 velocity=64 time=0.109375\n",
      "note_off channel=0 note=61 velocity=64 time=0\n",
      "note_on channel=0 note=61 velocity=59 time=0.03125\n",
      "note_off channel=0 note=61 velocity=64 time=0.08333333333333333\n",
      "note_on channel=0 note=36 velocity=105 time=0.03645833333333333\n",
      "note_on channel=0 note=53 velocity=101 time=0\n",
      "note_off channel=0 note=36 velocity=64 time=0.078125\n",
      "note_off channel=0 note=53 velocity=64 time=0\n",
      "note_on channel=0 note=61 velocity=99 time=0.041666666666666664\n",
      "note_off channel=0 note=61 velocity=64 time=0.09375\n",
      "note_on channel=0 note=31 velocity=95 time=0.026041666666666664\n",
      "note_on channel=0 note=61 velocity=108 time=0\n",
      "note_off channel=0 note=61 velocity=64 time=0.09895833333333333\n",
      "note_off channel=0 note=31 velocity=64 time=0.010416666666666666\n",
      "note_on channel=0 note=61 velocity=105 time=0.020833333333333332\n",
      "note_off channel=0 note=61 velocity=64 time=0.08333333333333333\n",
      "note_on channel=0 note=36 velocity=105 time=0.03645833333333333\n",
      "note_on channel=0 note=44 velocity=108 time=0\n",
      "note_on channel=0 note=53 velocity=89 time=0\n",
      "note_off channel=0 note=53 velocity=64 time=0.078125\n",
      "note_off channel=0 note=36 velocity=64 time=0.03125\n",
      "note_off channel=0 note=44 velocity=64 time=0\n",
      "note_on channel=0 note=61 velocity=75 time=0.005208333333333333\n",
      "note_off channel=0 note=61 velocity=64 time=0.08854166666666666\n",
      "note_on channel=0 note=53 velocity=100 time=0.03645833333333333\n",
      "note_on channel=0 note=31 velocity=102 time=0.005208333333333333\n",
      "note_on channel=0 note=36 velocity=100 time=0.005208333333333333\n",
      "note_off channel=0 note=53 velocity=64 time=0.08854166666666666\n",
      "note_off channel=0 note=31 velocity=64 time=0.020833333333333332\n",
      "note_off channel=0 note=36 velocity=64 time=0.005208333333333333\n",
      "note_on channel=0 note=61 velocity=58 time=0\n",
      "note_off channel=0 note=61 velocity=64 time=0.08854166666666666\n",
      "note_on channel=0 note=36 velocity=105 time=0.05208333333333333\n",
      "<meta message track_name name='08 Fill 1\\x00' time=0>\n",
      "<meta message time_signature numerator=4 denominator=4 clocks_per_click=36 notated_32nd_notes_per_beat=8 time=0>\n",
      "<meta message time_signature numerator=4 denominator=4 clocks_per_click=36 notated_32nd_notes_per_beat=8 time=0>\n",
      "note_on channel=0 note=36 velocity=101 time=0\n",
      "note_on channel=0 note=41 velocity=94 time=0\n",
      "note_off channel=0 note=41 velocity=64 time=0.08333333333333333\n",
      "note_off channel=0 note=36 velocity=64 time=0.020833333333333332\n",
      "note_on channel=0 note=38 velocity=72 time=0.010416666666666666\n",
      "note_off channel=0 note=38 velocity=64 time=0.08333333333333333\n",
      "note_on channel=0 note=31 velocity=95 time=0.041666666666666664\n",
      "note_on channel=0 note=38 velocity=105 time=0\n",
      "note_off channel=0 note=38 velocity=64 time=0.109375\n",
      "note_off channel=0 note=31 velocity=64 time=0.005208333333333333\n",
      "note_on channel=0 note=38 velocity=101 time=0.015625\n",
      "note_off channel=0 note=38 velocity=64 time=0.09895833333333333\n",
      "note_on channel=0 note=47 velocity=101 time=0.020833333333333332\n",
      "note_on channel=0 note=36 velocity=101 time=0.005208333333333333\n",
      "note_on channel=0 note=44 velocity=103 time=0\n",
      "note_off channel=0 note=47 velocity=64 time=0.08854166666666666\n",
      "note_off channel=0 note=36 velocity=64 time=0.020833333333333332\n",
      "note_off channel=0 note=44 velocity=64 time=0.005208333333333333\n",
      "note_on channel=0 note=31 velocity=95 time=0.13020833333333331\n",
      "note_on channel=0 note=38 velocity=105 time=0\n",
      "note_off channel=0 note=31 velocity=64 time=0.109375\n",
      "note_off channel=0 note=38 velocity=64 time=0\n",
      "note_on channel=0 note=38 velocity=26 time=0.03125\n",
      "note_off channel=0 note=38 velocity=64 time=0.08333333333333333\n",
      "note_on channel=0 note=36 velocity=101 time=0.03645833333333333\n",
      "note_on channel=0 note=41 velocity=96 time=0\n",
      "note_off channel=0 note=36 velocity=64 time=0.078125\n",
      "note_off channel=0 note=41 velocity=64 time=0\n",
      "note_on channel=0 note=38 velocity=96 time=0.041666666666666664\n",
      "note_off channel=0 note=38 velocity=64 time=0.09375\n",
      "note_on channel=0 note=31 velocity=92 time=0.026041666666666664\n",
      "note_on channel=0 note=38 velocity=105 time=0\n",
      "note_off channel=0 note=38 velocity=64 time=0.09895833333333333\n",
      "note_off channel=0 note=31 velocity=64 time=0.010416666666666666\n",
      "note_on channel=0 note=38 velocity=101 time=0.020833333333333332\n",
      "note_off channel=0 note=38 velocity=64 time=0.08333333333333333\n",
      "note_on channel=0 note=36 velocity=101 time=0.03645833333333333\n",
      "note_on channel=0 note=44 velocity=105 time=0\n",
      "note_on channel=0 note=47 velocity=93 time=0\n",
      "note_off channel=0 note=47 velocity=64 time=0.078125\n",
      "note_off channel=0 note=36 velocity=64 time=0.03125\n",
      "note_off channel=0 note=44 velocity=64 time=0\n",
      "note_on channel=0 note=38 velocity=72 time=0.005208333333333333\n",
      "note_off channel=0 note=38 velocity=64 time=0.08854166666666666\n",
      "note_on channel=0 note=38 velocity=105 time=0.03645833333333333\n",
      "note_on channel=0 note=31 velocity=99 time=0.005208333333333333\n",
      "note_on channel=0 note=36 velocity=96 time=0.005208333333333333\n",
      "note_off channel=0 note=38 velocity=64 time=0.08854166666666666\n",
      "note_off channel=0 note=31 velocity=64 time=0.020833333333333332\n",
      "note_off channel=0 note=36 velocity=64 time=0.005208333333333333\n",
      "note_on channel=0 note=38 velocity=33 time=0\n",
      "note_off channel=0 note=38 velocity=64 time=0.08854166666666666\n",
      "note_on channel=0 note=36 velocity=101 time=0.05208333333333333\n",
      "<meta message track_name name='09 Fill 2\\x00' time=0>\n",
      "<meta message time_signature numerator=4 denominator=4 clocks_per_click=36 notated_32nd_notes_per_beat=8 time=0>\n",
      "<meta message time_signature numerator=4 denominator=4 clocks_per_click=36 notated_32nd_notes_per_beat=8 time=0>\n",
      "note_on channel=0 note=36 velocity=101 time=0\n",
      "note_on channel=0 note=41 velocity=94 time=0\n",
      "note_off channel=0 note=41 velocity=64 time=0.08333333333333333\n",
      "note_off channel=0 note=36 velocity=64 time=0.020833333333333332\n",
      "note_on channel=0 note=38 velocity=72 time=0.010416666666666666\n",
      "note_off channel=0 note=38 velocity=64 time=0.08333333333333333\n",
      "note_on channel=0 note=31 velocity=95 time=0.041666666666666664\n",
      "note_on channel=0 note=38 velocity=105 time=0\n",
      "note_off channel=0 note=38 velocity=64 time=0.109375\n",
      "note_off channel=0 note=31 velocity=64 time=0.005208333333333333\n",
      "note_on channel=0 note=38 velocity=101 time=0.015625\n",
      "note_off channel=0 note=38 velocity=64 time=0.09895833333333333\n",
      "note_on channel=0 note=47 velocity=101 time=0.020833333333333332\n",
      "note_on channel=0 note=36 velocity=101 time=0.005208333333333333\n",
      "note_on channel=0 note=44 velocity=103 time=0\n",
      "note_off channel=0 note=47 velocity=64 time=0.08854166666666666\n",
      "note_off channel=0 note=36 velocity=64 time=0.020833333333333332\n",
      "note_off channel=0 note=44 velocity=64 time=0.005208333333333333\n",
      "note_on channel=0 note=31 velocity=95 time=0.13020833333333331\n",
      "note_on channel=0 note=38 velocity=105 time=0\n",
      "note_off channel=0 note=31 velocity=64 time=0.109375\n",
      "note_off channel=0 note=38 velocity=64 time=0\n",
      "note_on channel=0 note=38 velocity=26 time=0.03125\n",
      "note_off channel=0 note=38 velocity=64 time=0.08333333333333333\n",
      "note_on channel=0 note=36 velocity=101 time=0.03645833333333333\n",
      "note_on channel=0 note=41 velocity=96 time=0\n",
      "note_off channel=0 note=36 velocity=64 time=0.078125\n",
      "note_off channel=0 note=41 velocity=64 time=0\n",
      "note_on channel=0 note=38 velocity=96 time=0.041666666666666664\n",
      "note_off channel=0 note=38 velocity=64 time=0.09375\n",
      "note_on channel=0 note=31 velocity=92 time=0.026041666666666664\n",
      "note_on channel=0 note=38 velocity=105 time=0\n",
      "note_off channel=0 note=38 velocity=64 time=0.09895833333333333\n",
      "note_off channel=0 note=31 velocity=64 time=0.010416666666666666\n",
      "note_on channel=0 note=38 velocity=101 time=0.020833333333333332\n",
      "note_off channel=0 note=38 velocity=64 time=0.08333333333333333\n",
      "note_on channel=0 note=44 velocity=105 time=0.03645833333333333\n",
      "note_on channel=0 note=47 velocity=93 time=0\n",
      "note_on channel=0 note=36 velocity=101 time=0.010416666666666666\n",
      "note_off channel=0 note=47 velocity=64 time=0.06770833333333333\n",
      "note_off channel=0 note=44 velocity=64 time=0.03125\n",
      "note_on channel=0 note=38 velocity=72 time=0.005208333333333333\n",
      "note_off channel=0 note=36 velocity=64 time=0.005208333333333333\n",
      "note_off channel=0 note=38 velocity=64 time=0.08333333333333333\n",
      "note_on channel=0 note=38 velocity=105 time=0.03645833333333333\n",
      "note_on channel=0 note=31 velocity=99 time=0.005208333333333333\n",
      "note_on channel=0 note=36 velocity=96 time=0.005208333333333333\n",
      "note_off channel=0 note=38 velocity=64 time=0.08854166666666666\n",
      "note_off channel=0 note=31 velocity=64 time=0.020833333333333332\n",
      "note_off channel=0 note=36 velocity=64 time=0.005208333333333333\n",
      "note_on channel=0 note=38 velocity=33 time=0\n",
      "note_off channel=0 note=38 velocity=64 time=0.08854166666666666\n",
      "note_on channel=0 note=36 velocity=101 time=0.05208333333333333\n",
      "<meta message track_name name='10 Fill 3\\x00' time=0>\n",
      "<meta message time_signature numerator=4 denominator=4 clocks_per_click=36 notated_32nd_notes_per_beat=8 time=0>\n",
      "<meta message time_signature numerator=4 denominator=4 clocks_per_click=36 notated_32nd_notes_per_beat=8 time=0>\n",
      "note_on channel=0 note=36 velocity=106 time=0\n",
      "note_on channel=0 note=41 velocity=98 time=0\n",
      "note_off channel=0 note=41 velocity=64 time=0.08333333333333333\n",
      "note_off channel=0 note=36 velocity=64 time=0.020833333333333332\n",
      "note_on channel=0 note=38 velocity=75 time=0.010416666666666666\n",
      "note_off channel=0 note=38 velocity=64 time=0.08333333333333333\n",
      "note_on channel=0 note=31 velocity=99 time=0.041666666666666664\n",
      "note_on channel=0 note=38 velocity=109 time=0\n",
      "note_off channel=0 note=38 velocity=64 time=0.109375\n",
      "note_off channel=0 note=31 velocity=64 time=0.005208333333333333\n",
      "note_on channel=0 note=38 velocity=106 time=0.015625\n",
      "note_off channel=0 note=38 velocity=64 time=0.09895833333333333\n",
      "note_on channel=0 note=47 velocity=105 time=0.020833333333333332\n",
      "note_on channel=0 note=36 velocity=105 time=0.005208333333333333\n",
      "note_on channel=0 note=44 velocity=108 time=0\n",
      "note_off channel=0 note=47 velocity=64 time=0.08854166666666666\n",
      "note_off channel=0 note=36 velocity=64 time=0.020833333333333332\n",
      "note_off channel=0 note=44 velocity=64 time=0.005208333333333333\n",
      "note_on channel=0 note=31 velocity=99 time=0.13020833333333331\n",
      "note_on channel=0 note=38 velocity=109 time=0\n",
      "note_off channel=0 note=31 velocity=64 time=0.109375\n",
      "note_off channel=0 note=38 velocity=64 time=0\n",
      "note_on channel=0 note=38 velocity=27 time=0.03125\n",
      "note_off channel=0 note=38 velocity=64 time=0.08333333333333333\n",
      "note_on channel=0 note=36 velocity=106 time=0.03645833333333333\n",
      "note_on channel=0 note=41 velocity=101 time=0\n",
      "note_off channel=0 note=36 velocity=64 time=0.078125\n",
      "note_off channel=0 note=41 velocity=64 time=0\n",
      "note_on channel=0 note=38 velocity=100 time=0.041666666666666664\n",
      "note_off channel=0 note=38 velocity=64 time=0.09375\n",
      "note_on channel=0 note=31 velocity=96 time=0.026041666666666664\n",
      "note_on channel=0 note=38 velocity=109 time=0\n",
      "note_off channel=0 note=38 velocity=64 time=0.09895833333333333\n",
      "note_off channel=0 note=31 velocity=64 time=0.010416666666666666\n",
      "note_on channel=0 note=38 velocity=106 time=0.020833333333333332\n",
      "note_off channel=0 note=38 velocity=64 time=0.08333333333333333\n",
      "note_on channel=0 note=36 velocity=106 time=0.03645833333333333\n",
      "note_on channel=0 note=44 velocity=109 time=0\n",
      "note_on channel=0 note=47 velocity=97 time=0\n",
      "note_off channel=0 note=47 velocity=64 time=0.078125\n",
      "note_off channel=0 note=36 velocity=64 time=0.03125\n",
      "note_off channel=0 note=44 velocity=64 time=0\n",
      "note_on channel=0 note=38 velocity=76 time=0.005208333333333333\n",
      "note_off channel=0 note=38 velocity=64 time=0.08854166666666666\n",
      "note_on channel=0 note=38 velocity=109 time=0.03645833333333333\n",
      "note_on channel=0 note=31 velocity=103 time=0.005208333333333333\n",
      "note_on channel=0 note=36 velocity=101 time=0.005208333333333333\n",
      "note_off channel=0 note=38 velocity=64 time=0.08854166666666666\n",
      "note_off channel=0 note=31 velocity=64 time=0.020833333333333332\n",
      "note_off channel=0 note=36 velocity=64 time=0.005208333333333333\n",
      "note_on channel=0 note=38 velocity=35 time=0\n",
      "note_off channel=0 note=38 velocity=64 time=0.08854166666666666\n",
      "note_on channel=0 note=36 velocity=106 time=0.05208333333333333\n",
      "<meta message track_name name='01 4th Ride\\x00' time=0>\n",
      "<meta message time_signature numerator=4 denominator=4 clocks_per_click=36 notated_32nd_notes_per_beat=8 time=0>\n",
      "<meta message time_signature numerator=4 denominator=4 clocks_per_click=36 notated_32nd_notes_per_beat=8 time=0>\n",
      "note_on channel=0 note=36 velocity=101 time=0\n",
      "note_on channel=0 note=50 velocity=95 time=0\n",
      "note_off channel=0 note=36 velocity=64 time=0.11979166666666666\n",
      "note_off channel=0 note=50 velocity=64 time=0.010416666666666666\n",
      "note_on channel=0 note=51 velocity=102 time=0.36979166666666663\n",
      "note_on channel=0 note=39 velocity=103 time=0.005208333333333333\n",
      "note_on channel=0 note=44 velocity=102 time=0\n",
      "note_off channel=0 note=44 velocity=64 time=0.09895833333333333\n",
      "note_off channel=0 note=51 velocity=64 time=0.03125\n",
      "note_off channel=0 note=39 velocity=64 time=0.015625\n",
      "note_on channel=0 note=39 velocity=96 time=0.125\n",
      "note_off channel=0 note=39 velocity=64 time=0.140625\n",
      "note_on channel=0 note=36 velocity=94 time=0.078125\n",
      "note_on channel=0 note=51 velocity=102 time=0.005208333333333333\n",
      "note_off channel=0 note=36 velocity=64 time=0.10416666666666666\n",
      "note_off channel=0 note=51 velocity=64 time=0.041666666666666664\n",
      "note_on channel=0 note=50 velocity=95 time=0.125\n",
      "note_on channel=0 note=36 velocity=88 time=0.005208333333333333\n",
      "note_off channel=0 note=36 velocity=64 time=0.125\n",
      "note_off channel=0 note=50 velocity=64 time=0.005208333333333333\n",
      "note_on channel=0 note=44 velocity=101 time=0.09375\n",
      "note_on channel=0 note=51 velocity=102 time=0\n",
      "note_on channel=0 note=39 velocity=96 time=0.010416666666666666\n",
      "note_off channel=0 note=44 velocity=64 time=0.10416666666666666\n",
      "note_off channel=0 note=51 velocity=64 time=0.005208333333333333\n",
      "note_off channel=0 note=39 velocity=64 time=0.026041666666666664\n",
      "note_on channel=0 note=50 velocity=95 time=0.11458333333333333\n",
      "note_on channel=0 note=36 velocity=99 time=0.015625\n",
      "note_on channel=0 note=41 velocity=96 time=0\n",
      "note_off channel=0 note=50 velocity=64 time=0.11979166666666666\n",
      "note_off channel=0 note=36 velocity=64 time=0.005208333333333333\n",
      "note_off channel=0 note=41 velocity=64 time=0.010416666666666666\n",
      "note_on channel=0 note=50 velocity=95 time=0.35416666666666663\n",
      "<meta message track_name name='02 4th Ride\\x00' time=0>\n",
      "<meta message time_signature numerator=4 denominator=4 clocks_per_click=36 notated_32nd_notes_per_beat=8 time=0>\n",
      "<meta message time_signature numerator=4 denominator=4 clocks_per_click=36 notated_32nd_notes_per_beat=8 time=0>\n",
      "note_on channel=0 note=36 velocity=102 time=0\n",
      "note_on channel=0 note=50 velocity=96 time=0\n",
      "note_off channel=0 note=36 velocity=64 time=0.11979166666666666\n",
      "note_off channel=0 note=50 velocity=64 time=0.010416666666666666\n",
      "note_on channel=0 note=51 velocity=103 time=0.36979166666666663\n",
      "note_on channel=0 note=39 velocity=104 time=0.005208333333333333\n",
      "note_on channel=0 note=44 velocity=103 time=0\n",
      "note_on channel=0 note=34 velocity=100 time=0.005208333333333333\n",
      "note_off channel=0 note=34 velocity=64 time=0.09375\n",
      "note_off channel=0 note=44 velocity=64 time=0\n",
      "note_off channel=0 note=51 velocity=64 time=0.03125\n",
      "note_off channel=0 note=39 velocity=64 time=0.015625\n",
      "note_on channel=0 note=39 velocity=97 time=0.125\n",
      "note_off channel=0 note=39 velocity=64 time=0.140625\n",
      "note_on channel=0 note=36 velocity=95 time=0.078125\n",
      "note_on channel=0 note=51 velocity=103 time=0.005208333333333333\n",
      "note_off channel=0 note=36 velocity=64 time=0.10416666666666666\n",
      "note_off channel=0 note=51 velocity=64 time=0.041666666666666664\n",
      "note_on channel=0 note=50 velocity=96 time=0.125\n",
      "note_on channel=0 note=36 velocity=89 time=0.005208333333333333\n",
      "note_off channel=0 note=36 velocity=64 time=0.125\n",
      "note_off channel=0 note=50 velocity=64 time=0.005208333333333333\n",
      "note_on channel=0 note=34 velocity=98 time=0.09375\n",
      "note_on channel=0 note=44 velocity=102 time=0\n",
      "note_on channel=0 note=51 velocity=103 time=0\n",
      "note_on channel=0 note=39 velocity=97 time=0.010416666666666666\n",
      "note_off channel=0 note=34 velocity=64 time=0.10416666666666666\n",
      "note_off channel=0 note=44 velocity=64 time=0\n",
      "note_off channel=0 note=51 velocity=64 time=0.005208333333333333\n",
      "note_off channel=0 note=39 velocity=64 time=0.026041666666666664\n",
      "note_on channel=0 note=50 velocity=96 time=0.11458333333333333\n",
      "note_on channel=0 note=36 velocity=100 time=0.015625\n",
      "note_on channel=0 note=41 velocity=97 time=0\n",
      "note_off channel=0 note=50 velocity=64 time=0.11979166666666666\n",
      "note_off channel=0 note=36 velocity=64 time=0.005208333333333333\n",
      "note_off channel=0 note=41 velocity=64 time=0.010416666666666666\n",
      "note_on channel=0 note=50 velocity=96 time=0.35416666666666663\n",
      "<meta message track_name name='03 4th Ride\\x00' time=0>\n",
      "<meta message time_signature numerator=4 denominator=4 clocks_per_click=36 notated_32nd_notes_per_beat=8 time=0>\n",
      "<meta message time_signature numerator=4 denominator=4 clocks_per_click=36 notated_32nd_notes_per_beat=8 time=0>\n",
      "note_on channel=0 note=36 velocity=99 time=0\n",
      "note_on channel=0 note=50 velocity=93 time=0\n",
      "note_on channel=0 note=31 velocity=92 time=0.005208333333333333\n",
      "note_off channel=0 note=31 velocity=64 time=0.10416666666666666\n",
      "note_off channel=0 note=36 velocity=64 time=0.010416666666666666\n",
      "note_off channel=0 note=50 velocity=64 time=0.010416666666666666\n",
      "note_on channel=0 note=31 velocity=80 time=0.11979166666666666\n",
      "note_off channel=0 note=31 velocity=64 time=0.10416666666666666\n",
      "note_on channel=0 note=51 velocity=100 time=0.14583333333333331\n",
      "note_on channel=0 note=31 velocity=92 time=0.005208333333333333\n",
      "note_on channel=0 note=39 velocity=100 time=0\n",
      "note_on channel=0 note=44 velocity=100 time=0\n",
      "note_on channel=0 note=34 velocity=96 time=0.005208333333333333\n",
      "note_off channel=0 note=34 velocity=64 time=0.09375\n",
      "note_off channel=0 note=44 velocity=64 time=0\n",
      "note_off channel=0 note=31 velocity=64 time=0.005208333333333333\n",
      "note_off channel=0 note=51 velocity=64 time=0.026041666666666664\n",
      "note_off channel=0 note=39 velocity=64 time=0.015625\n",
      "note_on channel=0 note=31 velocity=81 time=0.10416666666666666\n",
      "note_on channel=0 note=39 velocity=94 time=0.020833333333333332\n",
      "note_off channel=0 note=31 velocity=64 time=0.078125\n",
      "note_off channel=0 note=39 velocity=64 time=0.0625\n",
      "note_on channel=0 note=31 velocity=91 time=0.078125\n",
      "note_on channel=0 note=36 velocity=92 time=0\n",
      "note_on channel=0 note=51 velocity=100 time=0.005208333333333333\n",
      "note_off channel=0 note=36 velocity=64 time=0.10416666666666666\n",
      "note_off channel=0 note=31 velocity=64 time=0.005208333333333333\n",
      "note_off channel=0 note=51 velocity=64 time=0.03645833333333333\n",
      "note_on channel=0 note=31 velocity=80 time=0.10416666666666666\n",
      "note_on channel=0 note=50 velocity=93 time=0.020833333333333332\n",
      "note_on channel=0 note=36 velocity=86 time=0.005208333333333333\n",
      "note_off channel=0 note=31 velocity=64 time=0.08854166666666666\n",
      "note_off channel=0 note=36 velocity=64 time=0.03645833333333333\n",
      "note_off channel=0 note=50 velocity=64 time=0.005208333333333333\n",
      "note_on channel=0 note=31 velocity=94 time=0.09375\n",
      "note_on channel=0 note=34 velocity=95 time=0\n",
      "note_on channel=0 note=44 velocity=99 time=0\n",
      "note_on channel=0 note=51 velocity=100 time=0\n",
      "note_on channel=0 note=39 velocity=94 time=0.010416666666666666\n",
      "note_off channel=0 note=31 velocity=64 time=0.09895833333333333\n",
      "note_off channel=0 note=34 velocity=64 time=0.005208333333333333\n",
      "note_off channel=0 note=44 velocity=64 time=0\n",
      "note_off channel=0 note=51 velocity=64 time=0.005208333333333333\n",
      "note_off channel=0 note=39 velocity=64 time=0.026041666666666664\n",
      "note_on channel=0 note=31 velocity=84 time=0.10416666666666666\n",
      "note_on channel=0 note=50 velocity=93 time=0.010416666666666666\n",
      "note_on channel=0 note=36 velocity=97 time=0.015625\n",
      "note_on channel=0 note=41 velocity=94 time=0\n",
      "note_off channel=0 note=31 velocity=64 time=0.08854166666666666\n",
      "note_off channel=0 note=50 velocity=64 time=0.03125\n",
      "note_off channel=0 note=36 velocity=64 time=0.005208333333333333\n",
      "note_off channel=0 note=41 velocity=64 time=0.010416666666666666\n",
      "note_on channel=0 note=31 velocity=91 time=0.09895833333333333\n",
      "<meta message track_name name='04 4th Hat\\x00' time=0>\n",
      "<meta message time_signature numerator=4 denominator=4 clocks_per_click=36 notated_32nd_notes_per_beat=8 time=0>\n",
      "<meta message time_signature numerator=4 denominator=4 clocks_per_click=36 notated_32nd_notes_per_beat=8 time=0>\n",
      "note_on channel=0 note=36 velocity=108 time=0\n",
      "note_on channel=0 note=76 velocity=102 time=0\n",
      "note_on channel=0 note=31 velocity=100 time=0.005208333333333333\n",
      "note_off channel=0 note=31 velocity=64 time=0.10416666666666666\n",
      "note_off channel=0 note=36 velocity=64 time=0.010416666666666666\n",
      "note_off channel=0 note=76 velocity=64 time=0.010416666666666666\n",
      "note_on channel=0 note=31 velocity=87 time=0.11979166666666666\n",
      "note_off channel=0 note=31 velocity=64 time=0.10416666666666666\n",
      "note_on channel=0 note=68 velocity=109 time=0.14583333333333331\n",
      "note_on channel=0 note=31 velocity=100 time=0.005208333333333333\n",
      "note_on channel=0 note=39 velocity=110 time=0\n",
      "note_on channel=0 note=44 velocity=109 time=0\n",
      "note_on channel=0 note=34 velocity=105 time=0.005208333333333333\n",
      "note_off channel=0 note=34 velocity=64 time=0.09375\n",
      "note_off channel=0 note=44 velocity=64 time=0\n",
      "note_off channel=0 note=31 velocity=64 time=0.005208333333333333\n",
      "note_off channel=0 note=68 velocity=64 time=0.026041666666666664\n",
      "note_off channel=0 note=39 velocity=64 time=0.015625\n",
      "note_on channel=0 note=31 velocity=89 time=0.10416666666666666\n",
      "note_on channel=0 note=39 velocity=103 time=0.020833333333333332\n",
      "note_off channel=0 note=31 velocity=64 time=0.078125\n",
      "note_off channel=0 note=39 velocity=64 time=0.0625\n",
      "note_on channel=0 note=31 velocity=99 time=0.078125\n",
      "note_on channel=0 note=36 velocity=100 time=0\n",
      "note_on channel=0 note=68 velocity=109 time=0.005208333333333333\n",
      "note_off channel=0 note=36 velocity=64 time=0.10416666666666666\n",
      "note_off channel=0 note=31 velocity=64 time=0.005208333333333333\n",
      "note_off channel=0 note=68 velocity=64 time=0.03645833333333333\n",
      "note_on channel=0 note=31 velocity=87 time=0.10416666666666666\n",
      "note_on channel=0 note=76 velocity=102 time=0.020833333333333332\n",
      "note_on channel=0 note=36 velocity=94 time=0.005208333333333333\n",
      "note_off channel=0 note=31 velocity=64 time=0.08854166666666666\n",
      "note_off channel=0 note=36 velocity=64 time=0.03645833333333333\n",
      "note_off channel=0 note=76 velocity=64 time=0.005208333333333333\n",
      "note_on channel=0 note=31 velocity=103 time=0.09375\n",
      "note_on channel=0 note=34 velocity=103 time=0\n",
      "note_on channel=0 note=44 velocity=108 time=0\n",
      "note_on channel=0 note=68 velocity=109 time=0\n",
      "note_on channel=0 note=39 velocity=103 time=0.010416666666666666\n",
      "note_off channel=0 note=31 velocity=64 time=0.09895833333333333\n",
      "note_off channel=0 note=34 velocity=64 time=0.005208333333333333\n",
      "note_off channel=0 note=44 velocity=64 time=0\n",
      "note_off channel=0 note=68 velocity=64 time=0.005208333333333333\n",
      "note_off channel=0 note=39 velocity=64 time=0.026041666666666664\n",
      "note_on channel=0 note=31 velocity=92 time=0.10416666666666666\n",
      "note_on channel=0 note=76 velocity=102 time=0.010416666666666666\n",
      "note_on channel=0 note=36 velocity=106 time=0.015625\n",
      "note_on channel=0 note=41 velocity=103 time=0\n",
      "note_off channel=0 note=31 velocity=64 time=0.08854166666666666\n",
      "note_off channel=0 note=76 velocity=64 time=0.03125\n",
      "note_off channel=0 note=36 velocity=64 time=0.005208333333333333\n",
      "note_off channel=0 note=41 velocity=64 time=0.010416666666666666\n",
      "note_on channel=0 note=31 velocity=99 time=0.09895833333333333\n",
      "<meta message track_name name='05 8th Multi\\x00' time=0>\n",
      "<meta message time_signature numerator=4 denominator=4 clocks_per_click=36 notated_32nd_notes_per_beat=8 time=0>\n",
      "<meta message time_signature numerator=4 denominator=4 clocks_per_click=36 notated_32nd_notes_per_beat=8 time=0>\n",
      "note_on channel=0 note=36 velocity=106 time=0\n",
      "note_on channel=0 note=47 velocity=100 time=0\n",
      "note_on channel=0 note=31 velocity=98 time=0.005208333333333333\n",
      "note_off channel=0 note=31 velocity=64 time=0.10416666666666666\n",
      "note_off channel=0 note=36 velocity=64 time=0.010416666666666666\n",
      "note_off channel=0 note=47 velocity=64 time=0.010416666666666666\n",
      "note_on channel=0 note=31 velocity=85 time=0.11979166666666666\n",
      "note_off channel=0 note=31 velocity=64 time=0.10416666666666666\n",
      "note_on channel=0 note=45 velocity=106 time=0.14583333333333331\n",
      "note_on channel=0 note=31 velocity=98 time=0.005208333333333333\n",
      "note_on channel=0 note=39 velocity=107 time=0\n",
      "note_on channel=0 note=44 velocity=106 time=0\n",
      "note_on channel=0 note=34 velocity=103 time=0.005208333333333333\n",
      "note_off channel=0 note=34 velocity=64 time=0.09375\n",
      "note_off channel=0 note=44 velocity=64 time=0\n",
      "note_off channel=0 note=31 velocity=64 time=0.005208333333333333\n",
      "note_off channel=0 note=45 velocity=64 time=0.026041666666666664\n",
      "note_off channel=0 note=39 velocity=64 time=0.015625\n",
      "note_on channel=0 note=31 velocity=87 time=0.10416666666666666\n",
      "note_on channel=0 note=39 velocity=100 time=0.020833333333333332\n",
      "note_off channel=0 note=31 velocity=64 time=0.078125\n",
      "note_off channel=0 note=39 velocity=64 time=0.0625\n",
      "note_on channel=0 note=31 velocity=97 time=0.078125\n",
      "note_on channel=0 note=36 velocity=98 time=0\n",
      "note_on channel=0 note=45 velocity=106 time=0.005208333333333333\n",
      "note_off channel=0 note=36 velocity=64 time=0.10416666666666666\n",
      "note_off channel=0 note=31 velocity=64 time=0.005208333333333333\n",
      "note_off channel=0 note=45 velocity=64 time=0.03645833333333333\n",
      "note_on channel=0 note=31 velocity=85 time=0.10416666666666666\n",
      "note_on channel=0 note=47 velocity=100 time=0.020833333333333332\n",
      "note_on channel=0 note=36 velocity=92 time=0.005208333333333333\n",
      "note_off channel=0 note=31 velocity=64 time=0.08854166666666666\n",
      "note_off channel=0 note=36 velocity=64 time=0.03645833333333333\n",
      "note_off channel=0 note=47 velocity=64 time=0.005208333333333333\n",
      "note_on channel=0 note=31 velocity=100 time=0.09375\n",
      "note_on channel=0 note=34 velocity=101 time=0\n",
      "note_on channel=0 note=44 velocity=106 time=0\n",
      "note_on channel=0 note=45 velocity=106 time=0\n",
      "note_on channel=0 note=39 velocity=100 time=0.010416666666666666\n",
      "note_off channel=0 note=31 velocity=64 time=0.09895833333333333\n",
      "note_off channel=0 note=34 velocity=64 time=0.005208333333333333\n",
      "note_off channel=0 note=44 velocity=64 time=0\n",
      "note_off channel=0 note=45 velocity=64 time=0.005208333333333333\n",
      "note_off channel=0 note=39 velocity=64 time=0.026041666666666664\n",
      "note_on channel=0 note=31 velocity=90 time=0.10416666666666666\n",
      "note_on channel=0 note=47 velocity=100 time=0.010416666666666666\n",
      "note_on channel=0 note=36 velocity=104 time=0.015625\n",
      "note_on channel=0 note=41 velocity=100 time=0\n",
      "note_off channel=0 note=31 velocity=64 time=0.08854166666666666\n",
      "note_off channel=0 note=47 velocity=64 time=0.03125\n",
      "note_off channel=0 note=36 velocity=64 time=0.005208333333333333\n",
      "note_off channel=0 note=41 velocity=64 time=0.010416666666666666\n",
      "note_on channel=0 note=31 velocity=97 time=0.09895833333333333\n",
      "<meta message track_name name='06 8th Multi\\x00' time=0>\n",
      "<meta message time_signature numerator=4 denominator=4 clocks_per_click=36 notated_32nd_notes_per_beat=8 time=0>\n",
      "<meta message time_signature numerator=4 denominator=4 clocks_per_click=36 notated_32nd_notes_per_beat=8 time=0>\n",
      "note_on channel=0 note=36 velocity=109 time=0\n",
      "note_on channel=0 note=47 velocity=103 time=0\n",
      "note_on channel=0 note=30 velocity=99 time=0.005208333333333333\n",
      "note_on channel=0 note=31 velocity=101 time=0\n",
      "note_off channel=0 note=30 velocity=64 time=0.09895833333333333\n",
      "note_off channel=0 note=31 velocity=64 time=0.005208333333333333\n",
      "note_off channel=0 note=36 velocity=64 time=0.010416666666666666\n",
      "note_off channel=0 note=47 velocity=64 time=0.010416666666666666\n",
      "note_on channel=0 note=31 velocity=88 time=0.11979166666666666\n",
      "note_off channel=0 note=31 velocity=64 time=0.10416666666666666\n",
      "note_on channel=0 note=45 velocity=110 time=0.14583333333333331\n",
      "note_on channel=0 note=30 velocity=99 time=0.005208333333333333\n",
      "note_on channel=0 note=31 velocity=101 time=0\n",
      "note_on channel=0 note=39 velocity=111 time=0\n",
      "note_on channel=0 note=44 velocity=110 time=0\n",
      "note_on channel=0 note=34 velocity=106 time=0.005208333333333333\n",
      "note_off channel=0 note=34 velocity=64 time=0.09375\n",
      "note_off channel=0 note=44 velocity=64 time=0\n",
      "note_off channel=0 note=30 velocity=64 time=0.005208333333333333\n",
      "note_off channel=0 note=31 velocity=64 time=0\n",
      "note_off channel=0 note=45 velocity=64 time=0.026041666666666664\n",
      "note_off channel=0 note=39 velocity=64 time=0.015625\n",
      "note_on channel=0 note=31 velocity=89 time=0.10416666666666666\n",
      "note_on channel=0 note=39 velocity=104 time=0.020833333333333332\n",
      "note_off channel=0 note=31 velocity=64 time=0.078125\n",
      "note_off channel=0 note=39 velocity=64 time=0.0625\n",
      "note_on channel=0 note=30 velocity=99 time=0.078125\n",
      "note_on channel=0 note=31 velocity=100 time=0\n",
      "note_on channel=0 note=36 velocity=101 time=0\n",
      "note_on channel=0 note=45 velocity=110 time=0.005208333333333333\n",
      "note_off channel=0 note=36 velocity=64 time=0.10416666666666666\n",
      "note_off channel=0 note=31 velocity=64 time=0.005208333333333333\n",
      "note_off channel=0 note=30 velocity=64 time=0.005208333333333333\n",
      "note_off channel=0 note=45 velocity=64 time=0.03125\n",
      "note_on channel=0 note=31 velocity=88 time=0.10416666666666666\n",
      "note_on channel=0 note=47 velocity=103 time=0.020833333333333332\n",
      "note_on channel=0 note=36 velocity=95 time=0.005208333333333333\n",
      "note_off channel=0 note=31 velocity=64 time=0.08854166666666666\n",
      "note_off channel=0 note=36 velocity=64 time=0.03645833333333333\n",
      "note_off channel=0 note=47 velocity=64 time=0.005208333333333333\n",
      "note_on channel=0 note=30 velocity=102 time=0.09375\n",
      "note_on channel=0 note=31 velocity=104 time=0\n",
      "note_on channel=0 note=34 velocity=104 time=0\n",
      "note_on channel=0 note=44 velocity=109 time=0\n",
      "note_on channel=0 note=45 velocity=110 time=0\n",
      "note_on channel=0 note=39 velocity=104 time=0.010416666666666666\n",
      "note_off channel=0 note=31 velocity=64 time=0.09895833333333333\n",
      "note_off channel=0 note=30 velocity=64 time=0.005208333333333333\n",
      "note_off channel=0 note=34 velocity=64 time=0\n",
      "note_off channel=0 note=44 velocity=64 time=0\n",
      "note_off channel=0 note=45 velocity=64 time=0.005208333333333333\n",
      "note_off channel=0 note=39 velocity=64 time=0.026041666666666664\n",
      "note_on channel=0 note=31 velocity=93 time=0.10416666666666666\n",
      "note_on channel=0 note=47 velocity=103 time=0.010416666666666666\n",
      "note_on channel=0 note=36 velocity=107 time=0.015625\n",
      "note_on channel=0 note=41 velocity=104 time=0\n",
      "note_off channel=0 note=31 velocity=64 time=0.08854166666666666\n",
      "note_off channel=0 note=47 velocity=64 time=0.03125\n",
      "note_off channel=0 note=36 velocity=64 time=0.005208333333333333\n",
      "note_off channel=0 note=41 velocity=64 time=0.010416666666666666\n",
      "note_on channel=0 note=30 velocity=98 time=0.09895833333333333\n"
     ]
    },
    {
     "name": "stdout",
     "output_type": "stream",
     "text": [
      "<meta message track_name name='07 8th Multi\\x00' time=0>\n",
      "<meta message time_signature numerator=4 denominator=4 clocks_per_click=36 notated_32nd_notes_per_beat=8 time=0>\n",
      "<meta message time_signature numerator=4 denominator=4 clocks_per_click=36 notated_32nd_notes_per_beat=8 time=0>\n",
      "note_on channel=0 note=36 velocity=107 time=0\n",
      "note_on channel=0 note=43 velocity=101 time=0\n",
      "note_on channel=0 note=30 velocity=97 time=0.005208333333333333\n",
      "note_on channel=0 note=31 velocity=99 time=0\n",
      "note_off channel=0 note=30 velocity=64 time=0.09895833333333333\n",
      "note_off channel=0 note=31 velocity=64 time=0.005208333333333333\n",
      "note_off channel=0 note=36 velocity=64 time=0.010416666666666666\n",
      "note_off channel=0 note=43 velocity=64 time=0.010416666666666666\n",
      "note_on channel=0 note=31 velocity=86 time=0.11979166666666666\n",
      "note_off channel=0 note=31 velocity=64 time=0.10416666666666666\n",
      "note_on channel=0 note=41 velocity=107 time=0.14583333333333331\n",
      "note_on channel=0 note=30 velocity=97 time=0.005208333333333333\n",
      "note_on channel=0 note=31 velocity=99 time=0\n",
      "note_on channel=0 note=44 velocity=107 time=0\n",
      "note_on channel=0 note=64 velocity=108 time=0\n",
      "note_on channel=0 note=34 velocity=104 time=0.005208333333333333\n",
      "note_off channel=0 note=34 velocity=64 time=0.09375\n",
      "note_off channel=0 note=44 velocity=64 time=0\n",
      "note_off channel=0 note=30 velocity=64 time=0.005208333333333333\n",
      "note_off channel=0 note=31 velocity=64 time=0\n",
      "note_off channel=0 note=41 velocity=64 time=0.026041666666666664\n",
      "note_off channel=0 note=64 velocity=64 time=0.015625\n",
      "note_on channel=0 note=31 velocity=88 time=0.10416666666666666\n",
      "note_on channel=0 note=64 velocity=101 time=0.020833333333333332\n",
      "note_off channel=0 note=31 velocity=64 time=0.078125\n",
      "note_off channel=0 note=64 velocity=64 time=0.0625\n",
      "note_on channel=0 note=30 velocity=97 time=0.078125\n",
      "note_on channel=0 note=31 velocity=98 time=0\n",
      "note_on channel=0 note=36 velocity=99 time=0\n",
      "note_on channel=0 note=41 velocity=107 time=0.005208333333333333\n",
      "note_off channel=0 note=36 velocity=64 time=0.10416666666666666\n",
      "note_off channel=0 note=31 velocity=64 time=0.005208333333333333\n",
      "note_off channel=0 note=30 velocity=64 time=0.005208333333333333\n",
      "note_off channel=0 note=41 velocity=64 time=0.03125\n",
      "note_on channel=0 note=31 velocity=86 time=0.10416666666666666\n",
      "note_on channel=0 note=43 velocity=101 time=0.020833333333333332\n",
      "note_on channel=0 note=36 velocity=93 time=0.005208333333333333\n",
      "note_off channel=0 note=31 velocity=64 time=0.08854166666666666\n",
      "note_off channel=0 note=36 velocity=64 time=0.03645833333333333\n",
      "note_off channel=0 note=43 velocity=64 time=0.005208333333333333\n",
      "note_on channel=0 note=30 velocity=100 time=0.09375\n",
      "note_on channel=0 note=31 velocity=101 time=0\n",
      "note_on channel=0 note=34 velocity=102 time=0\n",
      "note_on channel=0 note=41 velocity=107 time=0\n",
      "note_on channel=0 note=44 velocity=107 time=0\n",
      "note_on channel=0 note=64 velocity=101 time=0.010416666666666666\n",
      "note_off channel=0 note=31 velocity=64 time=0.09895833333333333\n",
      "note_off channel=0 note=30 velocity=64 time=0.005208333333333333\n",
      "note_off channel=0 note=34 velocity=64 time=0\n",
      "note_off channel=0 note=44 velocity=64 time=0\n",
      "note_off channel=0 note=41 velocity=64 time=0.005208333333333333\n",
      "note_off channel=0 note=64 velocity=64 time=0.026041666666666664\n",
      "note_on channel=0 note=31 velocity=91 time=0.10416666666666666\n",
      "note_on channel=0 note=43 velocity=101 time=0.010416666666666666\n",
      "note_on channel=0 note=36 velocity=105 time=0.015625\n",
      "note_on channel=0 note=41 velocity=101 time=0\n",
      "note_off channel=0 note=31 velocity=64 time=0.08854166666666666\n",
      "note_off channel=0 note=43 velocity=64 time=0.03125\n",
      "note_off channel=0 note=36 velocity=64 time=0.005208333333333333\n",
      "note_off channel=0 note=41 velocity=64 time=0.010416666666666666\n",
      "note_on channel=0 note=30 velocity=96 time=0.09895833333333333\n",
      "<meta message track_name name='08 Fill 1\\x00' time=0>\n",
      "<meta message time_signature numerator=4 denominator=4 clocks_per_click=36 notated_32nd_notes_per_beat=8 time=0>\n",
      "<meta message time_signature numerator=4 denominator=4 clocks_per_click=36 notated_32nd_notes_per_beat=8 time=0>\n",
      "note_on channel=0 note=36 velocity=108 time=0\n",
      "note_on channel=0 note=43 velocity=102 time=0\n",
      "note_on channel=0 note=30 velocity=98 time=0.005208333333333333\n",
      "note_on channel=0 note=31 velocity=100 time=0\n",
      "note_off channel=0 note=30 velocity=64 time=0.09895833333333333\n",
      "note_off channel=0 note=31 velocity=64 time=0.005208333333333333\n",
      "note_off channel=0 note=36 velocity=64 time=0.010416666666666666\n",
      "note_off channel=0 note=43 velocity=64 time=0.010416666666666666\n",
      "note_on channel=0 note=31 velocity=87 time=0.11979166666666666\n",
      "note_off channel=0 note=31 velocity=64 time=0.10416666666666666\n",
      "note_on channel=0 note=41 velocity=109 time=0.14583333333333331\n",
      "note_on channel=0 note=30 velocity=98 time=0.005208333333333333\n",
      "note_on channel=0 note=31 velocity=100 time=0\n",
      "note_on channel=0 note=44 velocity=109 time=0\n",
      "note_on channel=0 note=64 velocity=109 time=0\n",
      "note_on channel=0 note=34 velocity=105 time=0.005208333333333333\n",
      "note_off channel=0 note=34 velocity=64 time=0.09375\n",
      "note_off channel=0 note=44 velocity=64 time=0\n",
      "note_off channel=0 note=30 velocity=64 time=0.005208333333333333\n",
      "note_off channel=0 note=31 velocity=64 time=0\n",
      "note_off channel=0 note=41 velocity=64 time=0.026041666666666664\n",
      "note_off channel=0 note=64 velocity=64 time=0.015625\n",
      "note_on channel=0 note=31 velocity=89 time=0.10416666666666666\n",
      "note_on channel=0 note=64 velocity=103 time=0.020833333333333332\n",
      "note_off channel=0 note=31 velocity=64 time=0.078125\n",
      "note_off channel=0 note=64 velocity=64 time=0.0625\n",
      "note_on channel=0 note=30 velocity=98 time=0.078125\n",
      "note_on channel=0 note=31 velocity=99 time=0\n",
      "note_on channel=0 note=36 velocity=100 time=0\n",
      "note_on channel=0 note=41 velocity=109 time=0.005208333333333333\n",
      "note_off channel=0 note=36 velocity=64 time=0.10416666666666666\n",
      "note_off channel=0 note=31 velocity=64 time=0.005208333333333333\n",
      "note_off channel=0 note=30 velocity=64 time=0.005208333333333333\n",
      "note_off channel=0 note=41 velocity=64 time=0.03125\n",
      "note_on channel=0 note=31 velocity=87 time=0.10416666666666666\n",
      "note_on channel=0 note=43 velocity=102 time=0.020833333333333332\n",
      "note_on channel=0 note=36 velocity=94 time=0.005208333333333333\n",
      "note_off channel=0 note=31 velocity=64 time=0.08854166666666666\n",
      "note_off channel=0 note=36 velocity=64 time=0.03645833333333333\n",
      "note_off channel=0 note=43 velocity=64 time=0.005208333333333333\n",
      "note_on channel=0 note=30 velocity=101 time=0.09375\n",
      "note_on channel=0 note=31 velocity=103 time=0\n",
      "note_on channel=0 note=34 velocity=103 time=0\n",
      "note_on channel=0 note=41 velocity=109 time=0\n",
      "note_on channel=0 note=44 velocity=108 time=0\n",
      "note_on channel=0 note=64 velocity=103 time=0.010416666666666666\n",
      "note_off channel=0 note=31 velocity=64 time=0.09895833333333333\n",
      "note_off channel=0 note=30 velocity=64 time=0.005208333333333333\n",
      "note_off channel=0 note=34 velocity=64 time=0\n",
      "note_off channel=0 note=44 velocity=64 time=0\n",
      "note_off channel=0 note=41 velocity=64 time=0.005208333333333333\n",
      "note_off channel=0 note=64 velocity=64 time=0.026041666666666664\n",
      "note_on channel=0 note=31 velocity=92 time=0.10416666666666666\n",
      "note_on channel=0 note=43 velocity=102 time=0.010416666666666666\n",
      "note_on channel=0 note=36 velocity=106 time=0.015625\n",
      "note_on channel=0 note=41 velocity=103 time=0\n",
      "note_off channel=0 note=31 velocity=64 time=0.08854166666666666\n",
      "note_off channel=0 note=43 velocity=64 time=0.03125\n",
      "note_off channel=0 note=36 velocity=64 time=0.005208333333333333\n",
      "note_off channel=0 note=41 velocity=64 time=0.010416666666666666\n",
      "note_on channel=0 note=30 velocity=97 time=0.09895833333333333\n",
      "<meta message track_name name='09 Fill 2\\x00' time=0>\n",
      "<meta message time_signature numerator=4 denominator=4 clocks_per_click=36 notated_32nd_notes_per_beat=8 time=0>\n",
      "<meta message time_signature numerator=4 denominator=4 clocks_per_click=36 notated_32nd_notes_per_beat=8 time=0>\n",
      "note_on channel=0 note=36 velocity=109 time=0\n",
      "note_on channel=0 note=43 velocity=103 time=0\n",
      "note_on channel=0 note=30 velocity=99 time=0.005208333333333333\n",
      "note_on channel=0 note=31 velocity=101 time=0\n",
      "note_off channel=0 note=30 velocity=64 time=0.09895833333333333\n",
      "note_off channel=0 note=31 velocity=64 time=0.005208333333333333\n",
      "note_off channel=0 note=36 velocity=64 time=0.010416666666666666\n",
      "note_off channel=0 note=43 velocity=64 time=0.010416666666666666\n",
      "note_on channel=0 note=31 velocity=88 time=0.11979166666666666\n",
      "note_off channel=0 note=31 velocity=64 time=0.10416666666666666\n",
      "note_on channel=0 note=41 velocity=110 time=0.14583333333333331\n",
      "note_on channel=0 note=30 velocity=99 time=0.005208333333333333\n",
      "note_on channel=0 note=31 velocity=101 time=0\n",
      "note_on channel=0 note=44 velocity=110 time=0\n",
      "note_on channel=0 note=64 velocity=111 time=0\n",
      "note_on channel=0 note=34 velocity=106 time=0.005208333333333333\n",
      "note_off channel=0 note=34 velocity=64 time=0.09375\n",
      "note_off channel=0 note=44 velocity=64 time=0\n",
      "note_off channel=0 note=30 velocity=64 time=0.005208333333333333\n",
      "note_off channel=0 note=31 velocity=64 time=0\n",
      "note_off channel=0 note=41 velocity=64 time=0.026041666666666664\n",
      "note_off channel=0 note=64 velocity=64 time=0.015625\n",
      "note_on channel=0 note=31 velocity=89 time=0.10416666666666666\n",
      "note_on channel=0 note=64 velocity=104 time=0.020833333333333332\n",
      "note_off channel=0 note=31 velocity=64 time=0.078125\n",
      "note_off channel=0 note=64 velocity=64 time=0.0625\n",
      "note_on channel=0 note=30 velocity=99 time=0.078125\n",
      "note_on channel=0 note=31 velocity=100 time=0\n",
      "note_on channel=0 note=36 velocity=101 time=0\n",
      "note_on channel=0 note=41 velocity=110 time=0.005208333333333333\n",
      "note_off channel=0 note=36 velocity=64 time=0.10416666666666666\n",
      "note_off channel=0 note=31 velocity=64 time=0.005208333333333333\n",
      "note_off channel=0 note=30 velocity=64 time=0.005208333333333333\n",
      "note_off channel=0 note=41 velocity=64 time=0.03125\n",
      "note_on channel=0 note=31 velocity=88 time=0.10416666666666666\n",
      "note_on channel=0 note=43 velocity=103 time=0.020833333333333332\n",
      "note_on channel=0 note=36 velocity=95 time=0.005208333333333333\n",
      "note_off channel=0 note=31 velocity=64 time=0.08854166666666666\n",
      "note_off channel=0 note=36 velocity=64 time=0.03645833333333333\n",
      "note_off channel=0 note=43 velocity=64 time=0.005208333333333333\n",
      "note_on channel=0 note=30 velocity=102 time=0.09375\n",
      "note_on channel=0 note=31 velocity=104 time=0\n",
      "note_on channel=0 note=34 velocity=104 time=0\n",
      "note_on channel=0 note=41 velocity=110 time=0\n",
      "note_on channel=0 note=44 velocity=109 time=0\n",
      "note_on channel=0 note=64 velocity=104 time=0.010416666666666666\n",
      "note_off channel=0 note=31 velocity=64 time=0.09895833333333333\n",
      "note_off channel=0 note=30 velocity=64 time=0.005208333333333333\n",
      "note_off channel=0 note=34 velocity=64 time=0\n",
      "note_off channel=0 note=44 velocity=64 time=0\n",
      "note_off channel=0 note=41 velocity=64 time=0.005208333333333333\n",
      "note_off channel=0 note=64 velocity=64 time=0.026041666666666664\n",
      "note_on channel=0 note=31 velocity=93 time=0.10416666666666666\n",
      "note_on channel=0 note=43 velocity=103 time=0.010416666666666666\n",
      "note_on channel=0 note=36 velocity=107 time=0.015625\n",
      "note_on channel=0 note=41 velocity=104 time=0\n",
      "note_off channel=0 note=31 velocity=64 time=0.08854166666666666\n",
      "note_off channel=0 note=43 velocity=64 time=0.03125\n",
      "note_off channel=0 note=36 velocity=64 time=0.005208333333333333\n",
      "note_off channel=0 note=41 velocity=64 time=0.010416666666666666\n",
      "note_on channel=0 note=30 velocity=98 time=0.09895833333333333\n",
      "<meta message track_name name='10 Fill 3\\x00' time=0>\n",
      "<meta message time_signature numerator=4 denominator=4 clocks_per_click=36 notated_32nd_notes_per_beat=8 time=0>\n",
      "<meta message time_signature numerator=4 denominator=4 clocks_per_click=36 notated_32nd_notes_per_beat=8 time=0>\n",
      "note_on channel=0 note=36 velocity=110 time=0\n",
      "note_on channel=0 note=43 velocity=104 time=0\n",
      "note_on channel=0 note=30 velocity=100 time=0.005208333333333333\n",
      "note_on channel=0 note=31 velocity=102 time=0\n",
      "note_off channel=0 note=30 velocity=64 time=0.09895833333333333\n",
      "note_off channel=0 note=31 velocity=64 time=0.005208333333333333\n",
      "note_off channel=0 note=36 velocity=64 time=0.010416666666666666\n",
      "note_off channel=0 note=43 velocity=64 time=0.010416666666666666\n",
      "note_on channel=0 note=31 velocity=89 time=0.11979166666666666\n",
      "note_off channel=0 note=31 velocity=64 time=0.10416666666666666\n",
      "note_on channel=0 note=41 velocity=111 time=0.14583333333333331\n",
      "note_on channel=0 note=30 velocity=100 time=0.005208333333333333\n",
      "note_on channel=0 note=31 velocity=102 time=0\n",
      "note_on channel=0 note=44 velocity=111 time=0\n",
      "note_on channel=0 note=64 velocity=112 time=0\n",
      "note_on channel=0 note=34 velocity=107 time=0.005208333333333333\n",
      "note_off channel=0 note=34 velocity=64 time=0.09375\n",
      "note_off channel=0 note=44 velocity=64 time=0\n",
      "note_off channel=0 note=30 velocity=64 time=0.005208333333333333\n",
      "note_off channel=0 note=31 velocity=64 time=0\n",
      "note_off channel=0 note=41 velocity=64 time=0.026041666666666664\n",
      "note_off channel=0 note=64 velocity=64 time=0.015625\n",
      "note_on channel=0 note=31 velocity=90 time=0.10416666666666666\n",
      "note_on channel=0 note=64 velocity=105 time=0.020833333333333332\n",
      "note_off channel=0 note=31 velocity=64 time=0.078125\n",
      "note_off channel=0 note=64 velocity=64 time=0.0625\n",
      "note_on channel=0 note=30 velocity=100 time=0.078125\n",
      "note_on channel=0 note=31 velocity=101 time=0\n",
      "note_on channel=0 note=36 velocity=102 time=0\n",
      "note_on channel=0 note=41 velocity=111 time=0.005208333333333333\n",
      "note_off channel=0 note=36 velocity=64 time=0.10416666666666666\n",
      "note_off channel=0 note=31 velocity=64 time=0.005208333333333333\n",
      "note_off channel=0 note=30 velocity=64 time=0.005208333333333333\n",
      "note_off channel=0 note=41 velocity=64 time=0.03125\n",
      "note_on channel=0 note=31 velocity=89 time=0.10416666666666666\n",
      "note_on channel=0 note=43 velocity=104 time=0.020833333333333332\n",
      "note_on channel=0 note=36 velocity=96 time=0.005208333333333333\n",
      "note_off channel=0 note=31 velocity=64 time=0.08854166666666666\n",
      "note_off channel=0 note=36 velocity=64 time=0.03645833333333333\n",
      "note_off channel=0 note=43 velocity=64 time=0.005208333333333333\n",
      "note_on channel=0 note=30 velocity=103 time=0.09375\n",
      "note_on channel=0 note=31 velocity=105 time=0\n",
      "note_on channel=0 note=34 velocity=106 time=0\n",
      "note_on channel=0 note=41 velocity=111 time=0\n",
      "note_on channel=0 note=44 velocity=110 time=0\n",
      "note_on channel=0 note=64 velocity=105 time=0.010416666666666666\n",
      "note_off channel=0 note=31 velocity=64 time=0.09895833333333333\n",
      "note_off channel=0 note=30 velocity=64 time=0.005208333333333333\n",
      "note_off channel=0 note=34 velocity=64 time=0\n",
      "note_off channel=0 note=44 velocity=64 time=0\n",
      "note_off channel=0 note=41 velocity=64 time=0.005208333333333333\n",
      "note_off channel=0 note=64 velocity=64 time=0.026041666666666664\n",
      "note_on channel=0 note=31 velocity=94 time=0.10416666666666666\n",
      "note_on channel=0 note=43 velocity=104 time=0.010416666666666666\n",
      "note_on channel=0 note=36 velocity=108 time=0.015625\n",
      "note_on channel=0 note=41 velocity=105 time=0\n",
      "note_off channel=0 note=31 velocity=64 time=0.08854166666666666\n",
      "note_off channel=0 note=43 velocity=64 time=0.03125\n",
      "note_off channel=0 note=36 velocity=64 time=0.005208333333333333\n",
      "note_off channel=0 note=41 velocity=64 time=0.010416666666666666\n",
      "note_on channel=0 note=30 velocity=99 time=0.09895833333333333\n",
      "<meta message track_name name='01 8th Hat\\x00' time=0>\n",
      "<meta message time_signature numerator=4 denominator=4 clocks_per_click=36 notated_32nd_notes_per_beat=8 time=0>\n",
      "<meta message time_signature numerator=4 denominator=4 clocks_per_click=36 notated_32nd_notes_per_beat=8 time=0>\n",
      "note_on channel=0 note=36 velocity=107 time=0\n",
      "note_on channel=0 note=41 velocity=107 time=0\n",
      "note_on channel=0 note=46 velocity=98 time=0\n",
      "note_off channel=0 note=36 velocity=64 time=0.11979166666666666\n",
      "note_off channel=0 note=46 velocity=64 time=0.015625\n",
      "note_off channel=0 note=41 velocity=64 time=0.005208333333333333\n",
      "note_on channel=0 note=46 velocity=93 time=0.109375\n",
      "note_off channel=0 note=46 velocity=64 time=0.109375\n",
      "note_on channel=0 note=40 velocity=105 time=0.13541666666666666\n",
      "note_on channel=0 note=46 velocity=98 time=0.010416666666666666\n",
      "note_off channel=0 note=40 velocity=64 time=0.109375\n",
      "note_off channel=0 note=46 velocity=64 time=0.026041666666666664\n",
      "note_on channel=0 note=36 velocity=103 time=0.11458333333333333\n",
      "note_on channel=0 note=46 velocity=87 time=0.020833333333333332\n",
      "note_off channel=0 note=36 velocity=64 time=0.07291666666666666\n",
      "note_off channel=0 note=46 velocity=64 time=0.026041666666666664\n",
      "note_on channel=0 note=36 velocity=107 time=0.125\n",
      "note_on channel=0 note=46 velocity=102 time=0\n",
      "note_off channel=0 note=46 velocity=64 time=0.10416666666666666\n",
      "note_off channel=0 note=36 velocity=64 time=0.020833333333333332\n",
      "note_on channel=0 note=46 velocity=87 time=0.11979166666666666\n",
      "note_off channel=0 note=46 velocity=64 time=0.140625\n",
      "note_on channel=0 note=40 velocity=103 time=0.10416666666666666\n",
      "note_on channel=0 note=46 velocity=102 time=0.005208333333333333\n",
      "note_off channel=0 note=40 velocity=64 time=0.109375\n",
      "note_off channel=0 note=46 velocity=64 time=0.020833333333333332\n",
      "note_on channel=0 note=36 velocity=78 time=0.10416666666666666\n",
      "note_on channel=0 note=46 velocity=81 time=0.026041666666666664\n",
      "note_off channel=0 note=46 velocity=64 time=0.09375\n",
      "note_off channel=0 note=36 velocity=64 time=0.020833333333333332\n",
      "note_on channel=0 note=36 velocity=107 time=0.125\n",
      "<meta message track_name name='02 8th Ride\\x00' time=0>\n",
      "<meta message time_signature numerator=4 denominator=4 clocks_per_click=36 notated_32nd_notes_per_beat=8 time=0>\n",
      "<meta message time_signature numerator=4 denominator=4 clocks_per_click=36 notated_32nd_notes_per_beat=8 time=0>\n",
      "note_on channel=0 note=36 velocity=104 time=0\n",
      "note_on channel=0 note=41 velocity=104 time=0\n",
      "note_on channel=0 note=53 velocity=95 time=0\n",
      "note_off channel=0 note=36 velocity=64 time=0.11979166666666666\n",
      "note_off channel=0 note=53 velocity=64 time=0.015625\n",
      "note_off channel=0 note=41 velocity=64 time=0.005208333333333333\n",
      "note_on channel=0 note=53 velocity=90 time=0.109375\n",
      "note_off channel=0 note=53 velocity=64 time=0.109375\n",
      "note_on channel=0 note=40 velocity=102 time=0.13541666666666666\n",
      "note_on channel=0 note=53 velocity=95 time=0.010416666666666666\n",
      "note_off channel=0 note=40 velocity=64 time=0.109375\n",
      "note_off channel=0 note=53 velocity=64 time=0.026041666666666664\n",
      "note_on channel=0 note=36 velocity=100 time=0.11458333333333333\n",
      "note_on channel=0 note=53 velocity=84 time=0.020833333333333332\n",
      "note_off channel=0 note=36 velocity=64 time=0.07291666666666666\n",
      "note_off channel=0 note=53 velocity=64 time=0.026041666666666664\n",
      "note_on channel=0 note=36 velocity=104 time=0.125\n",
      "note_on channel=0 note=53 velocity=99 time=0\n",
      "note_off channel=0 note=53 velocity=64 time=0.10416666666666666\n",
      "note_off channel=0 note=36 velocity=64 time=0.020833333333333332\n",
      "note_on channel=0 note=53 velocity=84 time=0.11979166666666666\n",
      "note_off channel=0 note=53 velocity=64 time=0.140625\n",
      "note_on channel=0 note=40 velocity=100 time=0.10416666666666666\n",
      "note_on channel=0 note=53 velocity=99 time=0.005208333333333333\n",
      "note_off channel=0 note=40 velocity=64 time=0.109375\n",
      "note_off channel=0 note=53 velocity=64 time=0.020833333333333332\n",
      "note_on channel=0 note=36 velocity=76 time=0.10416666666666666\n",
      "note_on channel=0 note=53 velocity=78 time=0.026041666666666664\n",
      "note_off channel=0 note=53 velocity=64 time=0.09375\n",
      "note_off channel=0 note=36 velocity=64 time=0.020833333333333332\n",
      "note_on channel=0 note=36 velocity=104 time=0.125\n",
      "<meta message track_name name='03 8th Cym\\x00' time=0>\n",
      "<meta message time_signature numerator=4 denominator=4 clocks_per_click=36 notated_32nd_notes_per_beat=8 time=0>\n",
      "<meta message time_signature numerator=4 denominator=4 clocks_per_click=36 notated_32nd_notes_per_beat=8 time=0>\n",
      "note_on channel=0 note=36 velocity=99 time=0\n",
      "note_on channel=0 note=41 velocity=99 time=0\n",
      "note_on channel=0 note=55 velocity=86 time=0\n",
      "note_off channel=0 note=36 velocity=64 time=0.11979166666666666\n",
      "note_off channel=0 note=55 velocity=64 time=0.015625\n",
      "note_off channel=0 note=41 velocity=64 time=0.005208333333333333\n",
      "note_on channel=0 note=55 velocity=81 time=0.109375\n",
      "note_off channel=0 note=55 velocity=64 time=0.109375\n",
      "note_on channel=0 note=40 velocity=98 time=0.13541666666666666\n",
      "note_on channel=0 note=55 velocity=86 time=0.010416666666666666\n",
      "note_off channel=0 note=40 velocity=64 time=0.109375\n",
      "note_off channel=0 note=55 velocity=64 time=0.026041666666666664\n",
      "note_on channel=0 note=36 velocity=95 time=0.11458333333333333\n",
      "note_on channel=0 note=55 velocity=76 time=0.020833333333333332\n",
      "note_off channel=0 note=36 velocity=64 time=0.07291666666666666\n",
      "note_off channel=0 note=55 velocity=64 time=0.026041666666666664\n",
      "note_on channel=0 note=36 velocity=99 time=0.125\n",
      "note_on channel=0 note=55 velocity=90 time=0\n",
      "note_off channel=0 note=55 velocity=64 time=0.10416666666666666\n",
      "note_off channel=0 note=36 velocity=64 time=0.020833333333333332\n",
      "note_on channel=0 note=55 velocity=76 time=0.11979166666666666\n",
      "note_off channel=0 note=55 velocity=64 time=0.140625\n",
      "note_on channel=0 note=40 velocity=95 time=0.10416666666666666\n",
      "note_on channel=0 note=55 velocity=90 time=0.005208333333333333\n",
      "note_off channel=0 note=40 velocity=64 time=0.109375\n",
      "note_off channel=0 note=55 velocity=64 time=0.020833333333333332\n",
      "note_on channel=0 note=36 velocity=72 time=0.10416666666666666\n",
      "note_on channel=0 note=55 velocity=70 time=0.026041666666666664\n",
      "note_off channel=0 note=55 velocity=64 time=0.09375\n",
      "note_off channel=0 note=36 velocity=64 time=0.020833333333333332\n",
      "note_on channel=0 note=36 velocity=99 time=0.125\n",
      "<meta message track_name name='04 8th Toms\\x00' time=0>\n",
      "<meta message time_signature numerator=4 denominator=4 clocks_per_click=36 notated_32nd_notes_per_beat=8 time=0>\n",
      "<meta message time_signature numerator=4 denominator=4 clocks_per_click=36 notated_32nd_notes_per_beat=8 time=0>\n",
      "note_on channel=0 note=36 velocity=105 time=0\n",
      "note_on channel=0 note=41 velocity=105 time=0\n",
      "note_off channel=0 note=36 velocity=64 time=0.11979166666666666\n",
      "note_off channel=0 note=41 velocity=64 time=0.020833333333333332\n",
      "note_on channel=0 note=43 velocity=86 time=0.109375\n",
      "note_off channel=0 note=43 velocity=64 time=0.109375\n",
      "note_on channel=0 note=40 velocity=103 time=0.13541666666666666\n",
      "note_on channel=0 note=43 velocity=91 time=0.010416666666666666\n",
      "note_off channel=0 note=40 velocity=64 time=0.109375\n",
      "note_off channel=0 note=43 velocity=64 time=0.026041666666666664\n",
      "note_on channel=0 note=36 velocity=101 time=0.11458333333333333\n",
      "note_on channel=0 note=43 velocity=80 time=0.020833333333333332\n",
      "note_off channel=0 note=36 velocity=64 time=0.07291666666666666\n",
      "note_off channel=0 note=43 velocity=64 time=0.026041666666666664\n",
      "note_on channel=0 note=36 velocity=105 time=0.125\n",
      "note_on channel=0 note=43 velocity=98 time=0\n",
      "note_off channel=0 note=43 velocity=64 time=0.10416666666666666\n",
      "note_off channel=0 note=36 velocity=64 time=0.020833333333333332\n",
      "note_on channel=0 note=43 velocity=80 time=0.11979166666666666\n",
      "note_off channel=0 note=43 velocity=64 time=0.140625\n",
      "note_on channel=0 note=40 velocity=101 time=0.10416666666666666\n",
      "note_on channel=0 note=43 velocity=95 time=0.005208333333333333\n",
      "note_off channel=0 note=40 velocity=64 time=0.109375\n",
      "note_off channel=0 note=43 velocity=64 time=0.020833333333333332\n",
      "note_on channel=0 note=36 velocity=77 time=0.10416666666666666\n",
      "note_on channel=0 note=43 velocity=74 time=0.026041666666666664\n",
      "note_off channel=0 note=43 velocity=64 time=0.09375\n",
      "note_off channel=0 note=36 velocity=64 time=0.020833333333333332\n",
      "note_on channel=0 note=36 velocity=105 time=0.125\n",
      "<meta message track_name name='05 8th Toms\\x00' time=0>\n",
      "<meta message time_signature numerator=4 denominator=4 clocks_per_click=36 notated_32nd_notes_per_beat=8 time=0>\n",
      "<meta message time_signature numerator=4 denominator=4 clocks_per_click=36 notated_32nd_notes_per_beat=8 time=0>\n",
      "note_on channel=0 note=36 velocity=107 time=0\n",
      "note_on channel=0 note=55 velocity=107 time=0\n",
      "note_off channel=0 note=36 velocity=64 time=0.11979166666666666\n",
      "note_off channel=0 note=55 velocity=64 time=0.020833333333333332\n",
      "note_on channel=0 note=43 velocity=88 time=0.109375\n",
      "note_off channel=0 note=43 velocity=64 time=0.109375\n",
      "note_on channel=0 note=40 velocity=105 time=0.13541666666666666\n",
      "note_on channel=0 note=43 velocity=93 time=0.010416666666666666\n",
      "note_off channel=0 note=40 velocity=64 time=0.109375\n",
      "note_off channel=0 note=43 velocity=64 time=0.026041666666666664\n",
      "note_on channel=0 note=36 velocity=103 time=0.11458333333333333\n",
      "note_on channel=0 note=43 velocity=82 time=0.020833333333333332\n",
      "note_off channel=0 note=36 velocity=64 time=0.07291666666666666\n",
      "note_off channel=0 note=43 velocity=64 time=0.026041666666666664\n",
      "note_on channel=0 note=36 velocity=107 time=0.125\n",
      "note_on channel=0 note=43 velocity=99 time=0\n",
      "note_off channel=0 note=43 velocity=64 time=0.10416666666666666\n",
      "note_off channel=0 note=36 velocity=64 time=0.020833333333333332\n",
      "note_on channel=0 note=43 velocity=82 time=0.11979166666666666\n",
      "note_off channel=0 note=43 velocity=64 time=0.140625\n",
      "note_on channel=0 note=40 velocity=103 time=0.10416666666666666\n",
      "note_on channel=0 note=43 velocity=97 time=0.005208333333333333\n",
      "note_off channel=0 note=40 velocity=64 time=0.109375\n",
      "note_off channel=0 note=43 velocity=64 time=0.020833333333333332\n",
      "note_on channel=0 note=36 velocity=78 time=0.10416666666666666\n",
      "note_on channel=0 note=43 velocity=76 time=0.026041666666666664\n",
      "note_off channel=0 note=43 velocity=64 time=0.09375\n",
      "note_off channel=0 note=36 velocity=64 time=0.020833333333333332\n",
      "note_on channel=0 note=36 velocity=107 time=0.125\n",
      "<meta message track_name name='06 8th Multi\\x00' time=0>\n",
      "<meta message time_signature numerator=4 denominator=4 clocks_per_click=36 notated_32nd_notes_per_beat=8 time=0>\n",
      "<meta message time_signature numerator=4 denominator=4 clocks_per_click=36 notated_32nd_notes_per_beat=8 time=0>\n",
      "note_on channel=0 note=36 velocity=99 time=0\n",
      "note_on channel=0 note=55 velocity=99 time=0\n",
      "note_off channel=0 note=36 velocity=64 time=0.11979166666666666\n",
      "note_off channel=0 note=55 velocity=64 time=0.020833333333333332\n",
      "note_on channel=0 note=43 velocity=81 time=0.109375\n",
      "note_off channel=0 note=43 velocity=64 time=0.109375\n",
      "note_on channel=0 note=40 velocity=98 time=0.13541666666666666\n",
      "note_on channel=0 note=34 velocity=87 time=0.005208333333333333\n",
      "note_on channel=0 note=43 velocity=86 time=0.005208333333333333\n",
      "note_off channel=0 note=40 velocity=64 time=0.109375\n",
      "note_off channel=0 note=34 velocity=64 time=0.020833333333333332\n",
      "note_off channel=0 note=43 velocity=64 time=0.005208333333333333\n",
      "note_on channel=0 note=34 velocity=76 time=0.11458333333333333\n",
      "note_on channel=0 note=36 velocity=95 time=0\n",
      "note_on channel=0 note=43 velocity=76 time=0.020833333333333332\n",
      "note_off channel=0 note=36 velocity=64 time=0.07291666666666666\n",
      "note_off channel=0 note=34 velocity=64 time=0.005208333333333333\n",
      "note_off channel=0 note=43 velocity=64 time=0.020833333333333332\n",
      "note_on channel=0 note=36 velocity=99 time=0.125\n",
      "note_on channel=0 note=43 velocity=92 time=0\n",
      "note_off channel=0 note=43 velocity=64 time=0.10416666666666666\n",
      "note_off channel=0 note=36 velocity=64 time=0.020833333333333332\n",
      "note_on channel=0 note=43 velocity=76 time=0.11979166666666666\n",
      "note_off channel=0 note=43 velocity=64 time=0.140625\n",
      "note_on channel=0 note=40 velocity=95 time=0.10416666666666666\n",
      "note_on channel=0 note=34 velocity=90 time=0.005208333333333333\n",
      "note_on channel=0 note=43 velocity=90 time=0\n",
      "note_off channel=0 note=40 velocity=64 time=0.109375\n",
      "note_off channel=0 note=43 velocity=64 time=0.020833333333333332\n",
      "note_off channel=0 note=34 velocity=64 time=0.005208333333333333\n",
      "note_on channel=0 note=36 velocity=72 time=0.09895833333333333\n",
      "note_on channel=0 note=43 velocity=70 time=0.026041666666666664\n",
      "note_off channel=0 note=43 velocity=64 time=0.09375\n",
      "note_off channel=0 note=36 velocity=64 time=0.020833333333333332\n",
      "note_on channel=0 note=36 velocity=99 time=0.125\n",
      "<meta message track_name name='07 8th Multi\\x00' time=0>\n",
      "<meta message time_signature numerator=4 denominator=4 clocks_per_click=36 notated_32nd_notes_per_beat=8 time=0>\n",
      "<meta message time_signature numerator=4 denominator=4 clocks_per_click=36 notated_32nd_notes_per_beat=8 time=0>\n",
      "note_on channel=0 note=36 velocity=108 time=0\n",
      "note_on channel=0 note=55 velocity=108 time=0\n",
      "note_off channel=0 note=36 velocity=64 time=0.11979166666666666\n",
      "note_off channel=0 note=55 velocity=64 time=0.020833333333333332\n",
      "note_on channel=0 note=43 velocity=89 time=0.109375\n",
      "note_off channel=0 note=43 velocity=64 time=0.109375\n",
      "note_on channel=0 note=40 velocity=107 time=0.13541666666666666\n",
      "note_on channel=0 note=34 velocity=95 time=0.005208333333333333\n",
      "note_on channel=0 note=43 velocity=94 time=0.005208333333333333\n",
      "note_off channel=0 note=40 velocity=64 time=0.109375\n",
      "note_off channel=0 note=34 velocity=64 time=0.020833333333333332\n",
      "note_off channel=0 note=43 velocity=64 time=0.005208333333333333\n",
      "note_on channel=0 note=34 velocity=83 time=0.11458333333333333\n",
      "note_on channel=0 note=36 velocity=104 time=0\n",
      "note_on channel=0 note=43 velocity=83 time=0.020833333333333332\n",
      "note_off channel=0 note=36 velocity=64 time=0.07291666666666666\n",
      "note_off channel=0 note=34 velocity=64 time=0.005208333333333333\n",
      "note_off channel=0 note=43 velocity=64 time=0.020833333333333332\n",
      "note_on channel=0 note=36 velocity=108 time=0.125\n",
      "note_on channel=0 note=47 velocity=101 time=0\n",
      "note_off channel=0 note=47 velocity=64 time=0.10416666666666666\n",
      "note_off channel=0 note=36 velocity=64 time=0.020833333333333332\n",
      "note_on channel=0 note=47 velocity=85 time=0.11979166666666666\n",
      "note_off channel=0 note=47 velocity=64 time=0.140625\n",
      "note_on channel=0 note=40 velocity=104 time=0.10416666666666666\n",
      "note_on channel=0 note=34 velocity=98 time=0.005208333333333333\n",
      "note_on channel=0 note=47 velocity=98 time=0\n",
      "note_off channel=0 note=40 velocity=64 time=0.109375\n",
      "note_off channel=0 note=47 velocity=64 time=0.020833333333333332\n",
      "note_off channel=0 note=34 velocity=64 time=0.005208333333333333\n",
      "note_on channel=0 note=36 velocity=79 time=0.09895833333333333\n",
      "note_on channel=0 note=47 velocity=91 time=0.026041666666666664\n",
      "note_off channel=0 note=47 velocity=64 time=0.09375\n",
      "note_off channel=0 note=36 velocity=64 time=0.020833333333333332\n",
      "note_on channel=0 note=36 velocity=108 time=0.125\n"
     ]
    },
    {
     "name": "stdout",
     "output_type": "stream",
     "text": [
      "<meta message track_name name='08 Fill 1\\x00' time=0>\n",
      "<meta message time_signature numerator=4 denominator=4 clocks_per_click=36 notated_32nd_notes_per_beat=8 time=0>\n",
      "<meta message time_signature numerator=4 denominator=4 clocks_per_click=36 notated_32nd_notes_per_beat=8 time=0>\n",
      "note_on channel=0 note=36 velocity=98 time=0\n",
      "note_on channel=0 note=55 velocity=98 time=0\n",
      "note_off channel=0 note=36 velocity=64 time=0.11979166666666666\n",
      "note_off channel=0 note=55 velocity=64 time=0.020833333333333332\n",
      "note_on channel=0 note=43 velocity=80 time=0.109375\n",
      "note_off channel=0 note=43 velocity=64 time=0.109375\n",
      "note_on channel=0 note=40 velocity=96 time=0.13541666666666666\n",
      "note_on channel=0 note=34 velocity=86 time=0.005208333333333333\n",
      "note_on channel=0 note=43 velocity=85 time=0.005208333333333333\n",
      "note_off channel=0 note=40 velocity=64 time=0.109375\n",
      "note_off channel=0 note=34 velocity=64 time=0.020833333333333332\n",
      "note_off channel=0 note=43 velocity=64 time=0.005208333333333333\n",
      "note_on channel=0 note=34 velocity=75 time=0.11458333333333333\n",
      "note_on channel=0 note=36 velocity=94 time=0\n",
      "note_on channel=0 note=43 velocity=75 time=0.020833333333333332\n",
      "note_off channel=0 note=36 velocity=64 time=0.07291666666666666\n",
      "note_off channel=0 note=34 velocity=64 time=0.005208333333333333\n",
      "note_off channel=0 note=43 velocity=64 time=0.020833333333333332\n",
      "note_on channel=0 note=36 velocity=98 time=0.125\n",
      "note_on channel=0 note=47 velocity=91 time=0\n",
      "note_off channel=0 note=47 velocity=64 time=0.10416666666666666\n",
      "note_off channel=0 note=36 velocity=64 time=0.020833333333333332\n",
      "note_on channel=0 note=47 velocity=77 time=0.11979166666666666\n",
      "note_off channel=0 note=47 velocity=64 time=0.140625\n",
      "note_on channel=0 note=40 velocity=94 time=0.10416666666666666\n",
      "note_on channel=0 note=34 velocity=89 time=0.005208333333333333\n",
      "note_on channel=0 note=47 velocity=89 time=0\n",
      "note_off channel=0 note=40 velocity=64 time=0.109375\n",
      "note_off channel=0 note=47 velocity=64 time=0.020833333333333332\n",
      "note_off channel=0 note=34 velocity=64 time=0.005208333333333333\n",
      "note_on channel=0 note=36 velocity=72 time=0.09895833333333333\n",
      "note_on channel=0 note=47 velocity=82 time=0.026041666666666664\n",
      "note_off channel=0 note=47 velocity=64 time=0.09375\n",
      "note_off channel=0 note=36 velocity=64 time=0.020833333333333332\n",
      "note_on channel=0 note=36 velocity=98 time=0.125\n",
      "<meta message track_name name='09 Fill 2\\x00' time=0>\n",
      "<meta message time_signature numerator=4 denominator=4 clocks_per_click=36 notated_32nd_notes_per_beat=8 time=0>\n",
      "<meta message time_signature numerator=4 denominator=4 clocks_per_click=36 notated_32nd_notes_per_beat=8 time=0>\n",
      "note_on channel=0 note=36 velocity=101 time=0\n",
      "note_on channel=0 note=55 velocity=101 time=0\n",
      "note_off channel=0 note=36 velocity=64 time=0.11979166666666666\n",
      "note_off channel=0 note=55 velocity=64 time=0.020833333333333332\n",
      "note_on channel=0 note=43 velocity=83 time=0.109375\n",
      "note_off channel=0 note=43 velocity=64 time=0.109375\n",
      "note_on channel=0 note=40 velocity=100 time=0.13541666666666666\n",
      "note_on channel=0 note=34 velocity=89 time=0.005208333333333333\n",
      "note_on channel=0 note=43 velocity=88 time=0.005208333333333333\n",
      "note_off channel=0 note=40 velocity=64 time=0.109375\n",
      "note_off channel=0 note=34 velocity=64 time=0.020833333333333332\n",
      "note_off channel=0 note=43 velocity=64 time=0.005208333333333333\n",
      "note_on channel=0 note=34 velocity=77 time=0.11458333333333333\n",
      "note_on channel=0 note=36 velocity=97 time=0\n",
      "note_on channel=0 note=43 velocity=77 time=0.020833333333333332\n",
      "note_off channel=0 note=36 velocity=64 time=0.07291666666666666\n",
      "note_off channel=0 note=34 velocity=64 time=0.005208333333333333\n",
      "note_off channel=0 note=43 velocity=64 time=0.020833333333333332\n",
      "note_on channel=0 note=36 velocity=101 time=0.125\n",
      "note_on channel=0 note=47 velocity=94 time=0\n",
      "note_off channel=0 note=47 velocity=64 time=0.10416666666666666\n",
      "note_off channel=0 note=36 velocity=64 time=0.020833333333333332\n",
      "note_on channel=0 note=47 velocity=80 time=0.11979166666666666\n",
      "note_off channel=0 note=47 velocity=64 time=0.140625\n",
      "note_on channel=0 note=40 velocity=97 time=0.10416666666666666\n",
      "note_on channel=0 note=34 velocity=92 time=0.005208333333333333\n",
      "note_on channel=0 note=47 velocity=92 time=0\n",
      "note_off channel=0 note=40 velocity=64 time=0.109375\n",
      "note_off channel=0 note=47 velocity=64 time=0.020833333333333332\n",
      "note_off channel=0 note=34 velocity=64 time=0.005208333333333333\n",
      "note_on channel=0 note=36 velocity=74 time=0.09895833333333333\n",
      "note_on channel=0 note=47 velocity=85 time=0.026041666666666664\n",
      "note_off channel=0 note=47 velocity=64 time=0.09375\n",
      "note_off channel=0 note=36 velocity=64 time=0.020833333333333332\n",
      "note_on channel=0 note=36 velocity=101 time=0.125\n",
      "<meta message track_name name='10 Fill 3\\x00' time=0>\n",
      "<meta message time_signature numerator=4 denominator=4 clocks_per_click=36 notated_32nd_notes_per_beat=8 time=0>\n",
      "<meta message time_signature numerator=4 denominator=4 clocks_per_click=36 notated_32nd_notes_per_beat=8 time=0>\n",
      "note_on channel=0 note=36 velocity=100 time=0\n",
      "note_on channel=0 note=55 velocity=100 time=0\n",
      "note_off channel=0 note=36 velocity=64 time=0.11979166666666666\n",
      "note_off channel=0 note=55 velocity=64 time=0.020833333333333332\n",
      "note_on channel=0 note=43 velocity=82 time=0.109375\n",
      "note_off channel=0 note=43 velocity=64 time=0.109375\n",
      "note_on channel=0 note=40 velocity=99 time=0.13541666666666666\n",
      "note_on channel=0 note=34 velocity=88 time=0.005208333333333333\n",
      "note_on channel=0 note=43 velocity=87 time=0.005208333333333333\n",
      "note_off channel=0 note=40 velocity=64 time=0.109375\n",
      "note_off channel=0 note=34 velocity=64 time=0.020833333333333332\n",
      "note_off channel=0 note=43 velocity=64 time=0.005208333333333333\n",
      "note_on channel=0 note=34 velocity=76 time=0.11458333333333333\n",
      "note_on channel=0 note=36 velocity=96 time=0\n",
      "note_on channel=0 note=43 velocity=76 time=0.020833333333333332\n",
      "note_off channel=0 note=36 velocity=64 time=0.07291666666666666\n",
      "note_off channel=0 note=34 velocity=64 time=0.005208333333333333\n",
      "note_off channel=0 note=43 velocity=64 time=0.020833333333333332\n",
      "note_on channel=0 note=36 velocity=100 time=0.125\n",
      "note_on channel=0 note=47 velocity=93 time=0\n",
      "note_off channel=0 note=47 velocity=64 time=0.10416666666666666\n",
      "note_off channel=0 note=36 velocity=64 time=0.020833333333333332\n",
      "note_on channel=0 note=47 velocity=79 time=0.11979166666666666\n",
      "note_off channel=0 note=47 velocity=64 time=0.140625\n",
      "note_on channel=0 note=40 velocity=96 time=0.10416666666666666\n",
      "note_on channel=0 note=34 velocity=91 time=0.005208333333333333\n",
      "note_on channel=0 note=47 velocity=91 time=0\n",
      "note_off channel=0 note=40 velocity=64 time=0.109375\n",
      "note_off channel=0 note=47 velocity=64 time=0.020833333333333332\n",
      "note_off channel=0 note=34 velocity=64 time=0.005208333333333333\n",
      "note_on channel=0 note=36 velocity=73 time=0.09895833333333333\n",
      "note_on channel=0 note=47 velocity=84 time=0.026041666666666664\n",
      "note_off channel=0 note=47 velocity=64 time=0.09375\n",
      "note_off channel=0 note=36 velocity=64 time=0.020833333333333332\n",
      "note_on channel=0 note=36 velocity=100 time=0.125\n"
     ]
    }
   ],
   "source": [
    "n = 100 * 1\n",
    "dim4 = True\n",
    "multiTrack = True\n",
    "reduce_dims = midi.ReduceDimsOptions.MIDIFILE # GLOBAL\n",
    "dn = 'drum_midi/'\n",
    "x_train, labels = setup.import_data(context, n, dim4=dim4, reduce_dims=reduce_dims, dirname=dn, multiTrack=multiTrack, r=True)"
   ]
  },
  {
   "cell_type": "code",
   "execution_count": 6,
   "metadata": {},
   "outputs": [],
   "source": [
    "# n = 1000\n",
    "# min_f = 0\n",
    "# max_f = 3\n",
    "# x_train, params = g.gen_data_complex(context, n, max_f=max_f, min_f=min_f,\n",
    "#     n_polyrythms=1,\n",
    "#     n_channels=3,\n",
    "#     d_phase=True,\n",
    "#     return_params=True,\n",
    "#     dim4=dim4,\n",
    "#     multiTrack=multiTrack)"
   ]
  },
  {
   "cell_type": "code",
   "execution_count": 7,
   "metadata": {},
   "outputs": [
    {
     "data": {
      "text/plain": [
       "(100, 40, 10, 1)"
      ]
     },
     "execution_count": 7,
     "metadata": {},
     "output_type": "execute_result"
    }
   ],
   "source": [
    "x_train.shape"
   ]
  },
  {
   "cell_type": "code",
   "execution_count": 8,
   "metadata": {},
   "outputs": [
    {
     "data": {
      "text/plain": [
       "[(100, 40, 10, 1), 90]"
      ]
     },
     "execution_count": 8,
     "metadata": {},
     "output_type": "execute_result"
    }
   ],
   "source": [
    "m = int(x_train.shape[0] * 0.9)\n",
    "[x_train.shape, m]"
   ]
  },
  {
   "cell_type": "code",
   "execution_count": 9,
   "metadata": {},
   "outputs": [],
   "source": [
    "x_test = x_train[m:]\n",
    "x_train = x_train[:m]"
   ]
  },
  {
   "cell_type": "code",
   "execution_count": 10,
   "metadata": {},
   "outputs": [
    {
     "name": "stdout",
     "output_type": "stream",
     "text": [
      "m (40, 10)\n"
     ]
    },
    {
     "data": {
      "image/png": "iVBORw0KGgoAAAANSUhEUgAAAXcAAAB2CAYAAAAz69PvAAAABHNCSVQICAgIfAhkiAAAAAlwSFlzAAALEgAACxIB0t1+/AAAADl0RVh0U29mdHdhcmUAbWF0cGxvdGxpYiB2ZXJzaW9uIDIuMS4yLCBodHRwOi8vbWF0cGxvdGxpYi5vcmcvNQv5yAAACnhJREFUeJzt3X/sXfVdx/Hny9IOA41so2EEWrYpkaAR1tY6ImnQZQssi3VJ1ZKoxJh0IywZiUvE/YFzyRJn4qYOM0CHY2Ybzm1g/6g6kpGIf4j7fmsZv5x2CIFaKTBHh06Xurd/3FO9u9zv955vue059/B8JDffc8/5fM995ZN739/z/ZxzzydVhSRpWL6v6wCSpPmzuEvSAFncJWmALO6SNEAWd0kaIIu7JA2QxV2SBsjiLkkDZHGXpAE6o6sXTrLqV2O3bNkycx8bN25cdfuZZ565tlB6RVheXl51u+89dWnW+xN4rqo2zWqUNrcfSHI18PvAOuCPq+q3J7a/CvgUsA14HviFqnpixj5XfeHbbrttZq6dO3euuv2SSy6ZuQ+98iRZdbvvPXVp1vsTWK6q7bMazRyWSbIO+EPgGuBS4Nokl040+1Xg36vqh4CPAh+etV9J0qnTZsx9B3Coqh6vqu8AdwG7JtrsAu5slj8PvCUt/vxIkk6NNsX9AuCpsedPN+umtqmq48ALwGsnd5Rkb5KlJEsnF1eS1MZpPaFaVbcDt8PsMXdJ0slrc+R+GNg89vzCZt3UNknOAH6A0YlVSVIH2hT3rwAXJ3lDkg3AHmDfRJt9wHXN8m7gy+UsIJLUmZnDMlV1PMl7gL9mdCnkHVX1SJIPAktVtQ/4BPCnSQ4B32D0B2BV27ZtY2nJofd5ebmX9826tA+Gc3mfxx3z5aWl8zXr/dn2WpVWY+5VtR/YP7Hu5rHl/wJ+rtUrSpJOOW8/IEkDZHGXpAGyuEvSAFncJWmALO6SNEAWd0kaIIu7JA1QZ5N1LC8vr3oxfl+++OAXNOZrEb5s1eZLIq+UnL43/9+ifdY9cpekAbK4S9IAWdwlaYAs7pI0QG3mUN2c5L4kjyZ5JMl7p7S5KskLSQ42j5un7UuSdHq0uVrmOPBrVXUgyUZgOcm9VfXoRLv7q+od848oSVqrmUfuVXWkqg40y98CHuOlc6hKknpkTde5J3k98CbggSmbr0jyIPCvwPuq6pEpv78X2AuwZcsWnnzyybXmPe2c2GG+FqE/FyEjLE7ORTG0/mx9QjXJ2cAXgBur6tjE5gPARVV1GfAx4J5p+6iq26tqe1Vt37Rp08lmliTN0Kq4J1nPqLB/uqq+OLm9qo5V1YvN8n5gfZJz55pUktRam6tlwmiO1Meq6iMrtHld044kO5r9Pj/PoJKk9tqMuf8k8EvAQ0kONuveD2wBqKpbgd3A9UmOA98G9tTQBrAkaYHMLO5V9bfAqnfUqapbgFvmFUqS9PL4DVVJGiCLuyQNkMVdkgYoXZ33TLLqCy/ajfEl6XRIslxV22e188hdkgbI4i5JA2Rxl6QBsrhL0gBZ3CVpgCzukjRAFndJGqA1TdYxT9u2bWNpaamrl5ekQWt7P/cnkjzUTH79koqckT9IcijJV5NsnX9USVJbazly/6mqem6FbdcAFzePnwA+3vyUJHVgXmPuu4BP1cjfAeckOX9O+5YkrVHb4l7Al5IsN5NcT7oAeGrs+dPNuu+RZG+SpSRLzz777NrTSpJaaVvcr6yqrYyGX25Isvodu1bgBNmSdHq0Ku5Vdbj5eRS4G9gx0eQwsHns+YXNOklSB9pMkH1Wko0nloG3AQ9PNNsH/HJz1cybgReq6sjc00qSWmlztcx5wN1JTrT/TFX9VZJ3w/9NkL0feDtwCPhP4FdOTVxJUhttJsh+HLhsyvpbx5YLuGG+0SRJJ8vbD0jSAFncJWmALO6SNEAWd0kaIIu7JA2QxV2SBsjiLkkDZHGXpAGyuEvSAFncJWmALO6SNEAWd0kaoDa3/P3hZmLsE49jSW6caHNVkhfG2tx86iJLkmZpc1fIrwGXAyRZx2gSjrunNL2/qt4x33iSpJOx1mGZtwBfr6onT0UYSdJ8rLW47wE+u8K2K5I8mOQvk/zItAZOkC1Jp0fr4p5kA/AzwJ9P2XwAuKiqLgM+BtwzbR9OkC1Jp8dajtyvAQ5U1TOTG6rqWFW92CzvB9YnOXdOGSVJa7SW4n4tKwzJJHldmklWk+xo9vv8y48nSToZbSbIJslZwFuBd42tG58gezdwfZLjwLeBPc28qpKkDrQq7lX1H8BrJ9aNT5B9C3DLfKNJkk6W31CVpAGyuEvSAFncJWmALO6SNEAWd0kaIIu7JA2QxV2SBsjiLkkDZHGXpAGyuEvSAFncJWmA0tX9vZI8C4zP6HQu8FwnYdbGnPNlzvlahJyLkBH6m/Oiqpo5IUZnxX1SkqWq2t51jlnMOV/mnK9FyLkIGWFxcq7EYRlJGiCLuyQNUJ+K++1dB2jJnPNlzvlahJyLkBEWJ+dUvRlzlyTNT5+O3CVJc9KL4p7k6iRfS3IoyU1d51lJkieSPJTkYJKlrvOckOSOJEeTPDy27jVJ7k3yz83PV3eZsck0LecHkhxu+vRgkrd3nHFzkvuSPJrkkSTvbdb3qj9Xydm3/jwzyd8nebDJ+VvN+jckeaD5zP9Zkg09zfnJJP8y1p+Xd5lzTaqq0wewDvg68EZgA/AgcGnXuVbI+gRwbtc5puTaCWwFHh5b9zvATc3yTcCHe5rzA8D7us42lud8YGuzvBH4J+DSvvXnKjn71p8Bzm6W1wMPAG8GPgfsadbfClzf05yfBHZ33Y8n8+jDkfsO4FBVPV5V3wHuAnZ1nGmhVNXfAN+YWL0LuLNZvhP42dMaaooVcvZKVR2pqgPN8reAx4AL6Fl/rpKzV2rkxebp+uZRwE8Dn2/W96E/V8q5sPpQ3C8Anhp7/jQ9fJM2CvhSkuUke7sOM8N5VXWkWf434Lwuw8zwniRfbYZtOh8+OiHJ64E3MTqK621/TuSEnvVnknVJDgJHgXsZ/af+zao63jTpxWd+MmdVnejPDzX9+dEkr+ow4pr0obgvkiuraitwDXBDkp1dB2qjRv9r9vUo5OPADwKXA0eA3+02zkiSs4EvADdW1bHxbX3qzyk5e9efVfU/VXU5cCGj/9Qv6TjSVJM5k/wo8BuM8v448Brg1zuMuCZ9KO6Hgc1jzy9s1vVOVR1ufh4F7mb0Ru2rZ5KcD9D8PNpxnqmq6pnmQ/Vd4I/oQZ8mWc+oYH66qr7YrO5df07L2cf+PKGqvgncB1wBnJPkjGZTrz7zYzmvboa/qqr+G/gTetSfs/ShuH8FuLg5e74B2APs6zjTSyQ5K8nGE8vA24CHV/+tTu0DrmuWrwP+osMsKzpRMBvvpOM+TRLgE8BjVfWRsU296s+VcvawPzclOadZ/n7grYzOD9wH7G6a9aE/p+X8x7E/6GF0XqDPn/nv0YsvMTWXa/0eoytn7qiqD3Uc6SWSvJHR0TrAGcBn+pIzyWeBqxjdxe4Z4DeBexhdkbCF0d03f76qOj2ZuULOqxgNIRSjq5HeNTa2fdoluRK4H3gI+G6z+v2MxrN705+r5LyWfvXnjzE6YbqO0cHk56rqg83n6S5GQx3/APxic3Tct5xfBjYxuprmIPDusROvvdaL4i5Jmq8+DMtIkubM4i5JA2Rxl6QBsrhL0gBZ3CVpgCzukjRAFndJGiCLuyQN0P8ChYZXKMXIBl0AAAAASUVORK5CYII=\n",
      "text/plain": [
       "<matplotlib.figure.Figure at 0x116ea9a90>"
      ]
     },
     "metadata": {},
     "output_type": "display_data"
    },
    {
     "name": "stdout",
     "output_type": "stream",
     "text": [
      "m (40, 10)\n"
     ]
    },
    {
     "data": {
      "image/png": "iVBORw0KGgoAAAANSUhEUgAAAXcAAAB2CAYAAAAz69PvAAAABHNCSVQICAgIfAhkiAAAAAlwSFlzAAALEgAACxIB0t1+/AAAADl0RVh0U29mdHdhcmUAbWF0cGxvdGxpYiB2ZXJzaW9uIDIuMS4yLCBodHRwOi8vbWF0cGxvdGxpYi5vcmcvNQv5yAAACmlJREFUeJzt3X/sXXddx/Hny65lZmucsGYsWztAF5ZpZLSzsrg0UwLZFmIlqdAl6mJMCstIWCKJkz8mkpCIieCPGbYpk2GAgcBG/6jKEpYw/3Dy/daO/RItc2ardd2GrExRUnn7xz01l7v7/d7z/fbue8739PlIbu6553x6vq9+eu+75/s5555PqgpJ0rD8UNcBJEnzZ3GXpAGyuEvSAFncJWmALO6SNEAWd0kaIIu7JA2QxV2SBsjiLkkDdEZXPzjJsl+N3bZt28x9bN68edntZ5555spC6bSwuLi47Hbfe+qzxcXF56pqy6x2aXP7gSRXA38IbAD+rKp+d2L7K4BPAjuA54F3VtWTM/a57A++/fbbZ+batWvXstsvueSSmfvQ6SfJstt976nPkixW1eWz2s0clkmyAfgT4BrgUuC6JJdONPt14D+q6seBjwIfXnlkSdK8tBlz3wkcrqonqup7wN3A7ok2u4G7muXPA2/OrMMjSdLLpk1xvwB4auz10826qW2q6gTwAvCqyR0l2ZdkIcnC6uJKktpY0xOqVXUHcAfMHnOXJK1emyP3I8DWsdcXNuumtklyBvAjjE6sSpI60Ka4fw24OMlrk2wC9gL7J9rsB65vlvcAXylnAZGkzswclqmqE0neA/wNo0sh76yqR5N8EFioqv3Ax4G/SHIY+Baj/wCWtWPHDhYWHHqfl1O9vG/WpX0wnMv7PO5YW22urTjV9+dQ3pvz1GrMvaoOAAcm1t0ytvzfwC/NN5okabW8/YAkDZDFXZIGyOIuSQNkcZekAbK4S9IAWdwlaYAs7pI0QBZ3SRogi7skDZDFXZIGyOIuSQNkcZekAWozh+rWJPcneSzJo0neO6XNVUleSHKoedwybV+SpLXR5q6QJ4DfqKqDSTYDi0nuq6rHJto9UFVvm39ESdJKzTxyr6qjVXWwWf4O8DgvnUNVktQjK5pDNclrgDcCD07ZfEWSh4B/A95XVY9O+fP7gH1jr5f8WbNu3g9rcwP/U50EA9Ym56wJKObx95jldOrv0yXn6TSJy3r5N22rdXFPcjbwBeCmqjo+sfkgcFFVvZjkWuBe4OLJfThBtiStjVZXyyTZyKiwf6qqvji5vaqOV9WLzfIBYGOSc+eaVJLUWpurZcJojtTHq+ojS7R5ddOOJDub/T4/z6CSpPbaDMv8LPArwMNJDjXr3g9sA6iq24A9wA1JTgDfBfaWsxBLUmdmFveq+ltg2TMNVXUrcOu8QkmSTo3fUJWkAbK4S9IAWdwlaYBW9CWm09FQzguvl7+HOeerDzn7kKGN9ZKzLY/cJWmALO6SNEAWd0kaIIu7JA2QxV2SBsjiLkkDZHGXpAHq7Dr3HTt2sLCw0NWPl6RBa3s/9yeTPNxMfv2SipyRP0pyOMnXk2yff1RJUlsrOXL/uap6bolt1zCaeeli4GeAjzXPkqQOzGvMfTfwyRr5O+CcJOfPad+SpBVqW9wL+HKSxWaS60kXAE+NvX66WfcDkuxLspBk4dlnn115WklSK22L+5VVtZ3R8MuNSWZPiT5FVd1RVZdX1eVbtmxZzS4kSS20Ku5VdaR5PgbcA+ycaHIE2Dr2+sJmnSSpA20myD4ryeaTy8BbgUcmmu0HfrW5auZNwAtVdXTuaSVJrbS5WuY84J4kJ9t/uqr+Osm74f8nyD4AXAscBv4L+LWXJ64kqY02E2Q/AbxhyvrbxpYLuHG+0SRJq+XtByRpgCzukjRAFndJGiCLuyQNkMVdkgbI4i5JA2Rxl6QBsrhL0gBZ3CVpgCzukjRAFndJGiCLuyQNUJtb/r6+mRj75ON4kpsm2lyV5IWxNre8fJElSbO0uSvkN4DLAJJsYDQJxz1Tmj5QVW+bbzxJ0mqsdFjmzcA3q+pfX44wkqT5WGlx3wt8ZoltVyR5KMlfJfmJaQ2cIFuS1kbr4p5kE/ALwF9O2XwQuKiq3gD8MXDvtH04QbYkrY2VHLlfAxysqmcmN1TV8ap6sVk+AGxMcu6cMkqSVmglxf06lhiSSfLqNJOsJtnZ7Pf5U48nSVqNNhNkk+Qs4C3Au8bWjU+QvQe4IckJ4LvA3mZeVUlSB1oV96r6T+BVE+vGJ8i+Fbh1vtEkSavlN1QlaYAs7pI0QBZ3SRogi7skDZDFXZIGyOIuSQNkcZekAbK4S9IAWdwlaYAs7pI0QBZ3SRqgdHV/ryTPAuMzOp0LPNdJmJUx53yZc77WQ871kBH6m/Oiqpo5IUZnxX1SkoWqurzrHLOYc77MOV/rIed6yAjrJ+dSHJaRpAGyuEvSAPWpuN/RdYCWzDlf5pyv9ZBzPWSE9ZNzqt6MuUuS5qdPR+6SpDnpRXFPcnWSbyQ5nOTmrvMsJcmTSR5OcijJQtd5TkpyZ5JjSR4ZW/fKJPcl+efm+Ue7zNhkmpbzA0mONH16KMm1HWfcmuT+JI8leTTJe5v1verPZXL2rT/PTPL3SR5qcv5Os/61SR5sPvOfTbKppzk/keRfxvrzsi5zrkhVdfoANgDfBF4HbAIeAi7tOtcSWZ8Ezu06x5Rcu4DtwCNj634PuLlZvhn4cE9zfgB4X9fZxvKcD2xvljcD/wRc2rf+XCZn3/ozwNnN8kbgQeBNwOeAvc3624AbeprzE8CervtxNY8+HLnvBA5X1RNV9T3gbmB3x5nWlar6KvCtidW7gbua5buAX1zTUFMskbNXqupoVR1slr8DPA5cQM/6c5mcvVIjLzYvNzaPAn4e+Hyzvg/9uVTOdasPxf0C4Kmx10/Twzdpo4AvJ1lMsq/rMDOcV1VHm+V/B87rMswM70ny9WbYpvPho5OSvAZ4I6OjuN7250RO6Fl/JtmQ5BBwDLiP0W/q366qE02TXnzmJ3NW1cn+/FDTnx9N8ooOI65IH4r7enJlVW0HrgFuTLKr60Bt1Oh3zb4ehXwM+DHgMuAo8PvdxhlJcjbwBeCmqjo+vq1P/TklZ+/6s6r+t6ouAy5k9Jv6JR1HmmoyZ5KfBH6LUd6fBl4J/GaHEVekD8X9CLB17PWFzbreqaojzfMx4B5Gb9S+eibJ+QDN87GO80xVVc80H6rvA39KD/o0yUZGBfNTVfXFZnXv+nNazj7250lV9W3gfuAK4JwkZzSbevWZH8t5dTP8VVX1P8Cf06P+nKUPxf1rwMXN2fNNwF5gf8eZXiLJWUk2n1wG3go8svyf6tR+4Ppm+XrgSx1mWdLJgtl4Ox33aZIAHwcer6qPjG3qVX8ulbOH/bklyTnN8g8Db2F0fuB+YE/TrA/9OS3nP479hx5G5wX6/Jn/Ab34ElNzudYfMLpy5s6q+lDHkV4iyesYHa0DnAF8ui85k3wGuIrRXeyeAX4buJfRFQnbGN198x1V1enJzCVyXsVoCKEYXY30rrGx7TWX5ErgAeBh4PvN6vczGs/uTX8uk/M6+tWfP8XohOkGRgeTn6uqDzafp7sZDXX8A/DLzdFx33J+BdjC6GqaQ8C7x0689lovirskab76MCwjSZozi7skDZDFXZIGyOIuSQNkcZekAbK4S9IAWdwlaYAs7pI0QP8HPlVKplyc5CYAAAAASUVORK5CYII=\n",
      "text/plain": [
       "<matplotlib.figure.Figure at 0x117fdadd8>"
      ]
     },
     "metadata": {},
     "output_type": "display_data"
    },
    {
     "name": "stdout",
     "output_type": "stream",
     "text": [
      "m (40, 10)\n"
     ]
    },
    {
     "data": {
      "image/png": "iVBORw0KGgoAAAANSUhEUgAAAXcAAAB2CAYAAAAz69PvAAAABHNCSVQICAgIfAhkiAAAAAlwSFlzAAALEgAACxIB0t1+/AAAADl0RVh0U29mdHdhcmUAbWF0cGxvdGxpYiB2ZXJzaW9uIDIuMS4yLCBodHRwOi8vbWF0cGxvdGxpYi5vcmcvNQv5yAAACtpJREFUeJzt3X2MXFUdxvHvY1+ogUaENkDaLgtKLI2RUrFCJE2VQCghVpOqJVGJMdlCIIFEEhESRBISMRFUanhREDC8ChT7R6OQ0ET8Q2S3trSlogXbQKltAWlBUVL5+cc9a4bp7M6d3dm9dw7PJ5nMnXtPZ56e2fnt3XvPnaOIwMzM8vKBqgOYmVn3ubibmWXIxd3MLEMu7mZmGXJxNzPLkIu7mVmGXNzNzDLk4m5mliEXdzOzDE2t6oVnzZoV/f39Vb28VWRoaGjU7X19faNunzlzZtvXmDFjRkeZbGK1e89h/O/7++k9HxoaejUiZrdrV6q4SzoX+DEwBfh5RHy/afthwD3AJ4HXgK9ExI7RnrO/v5/BwcEyL28ZkTTq9quvvnrU7UuWLGn7GvPnz+8ok02sdu85jP99fz+955J2lmnX9rCMpCnAT4FlwALgAkkLmpp9E/hHRHwUuAm4obO4ZmbWTWWOuS8GtkfEixHxDvAAsLypzXLg7rT8MHCWyvy6NjOzCVGmuM8BXmp4/HJa17JNRBwE9gNHNz+RpAFJg5IG9+3bN7bEZmbW1qSOlomI2yPitIg4bfbstucDzMxsjMoU913AvIbHc9O6lm0kTQU+RHFi1czMKlCmuD8DnCTpBEnTgZXA2qY2a4EL0/IK4MnwLCBmZpVpOxQyIg5KuhT4LcVQyDsjYquk64DBiFgL3AH8UtJ24HWKXwA2idqdv77ttttG3e4hhjZRvJ9XjVLj3CNiHbCuad01Dcv/Br7U3WhmZjZW/voBM7MMubibmWXIxd3MLEMu7mZmGXJxNzPLkIu7mVmGXNzNzDKkqi4wkDTqC7e76Ab8Hc82Mcp8oakvCrOqSBqKiNPatfOeu5lZhlzczcwy5OJuZpYhF3czswyVmUN1nqT1kp6TtFXSZS3aLJW0X9LGdLum1XOZmdnkKPOtkAeBb0XEBkkzgSFJT0TEc03tnoqI87sf0czMOtV2zz0idkfEhrT8JrCNQ+dQNTOzGin1fe7DJPUDpwJPt9h8hqRNwCvAFRGxtcW/HwAGAPr6+ti5c2enec0mnCeX6K7JuG7A1wwcqvQJVUlHAI8Al0fEgabNG4DjI+IU4GbgsVbP4QmyzcwmR6niLmkaRWG/NyIebd4eEQci4q20vA6YJmlWV5OamVlpZUbLiGKO1G0RceMIbY5N7ZC0OD3va90MamZm5ZU55v4Z4GvAZkkb07qrgD6AiLgVWAFcLOkg8DawMnzg0sysMm2Le0T8Hhj1jEhErAZWdyuUmZmNj69QNTPLkIu7mVmGXNzNzDLU0UVMZmad6pWxFe0utuq1CYS8525mliEXdzOzDLm4m5llyMXdzCxDLu5mZhlycTczy5CLu5lZhjzO3SbVeMcStxtHDJ64wcamV8bjl1X2+9x3SNqcJr8ebLFdkn4iabukZyUt6n5UMzMrq5M9989GxKsjbFsGnJRunwZuSfdmZlaBbh1zXw7cE4U/AEdKOq5Lz21mZh0qW9wDeFzSUJrkutkc4KWGxy+nde8haUDSoKTBffv2dZ7WzMxKKVvcz4yIRRSHXy6R1P6sVgueINvMbHKUKu4RsSvd7wXWAIubmuwC5jU8npvWmZlZBcpMkH24pJnDy8A5wJamZmuBr6dRM6cD+yNid9fTmplZKWVGyxwDrEnjk6cC90XEbyRdBP+fIHsdcB6wHfgX8I2Jifv+1G5sOIx/fPhkjQ3PbSyxtZfTz28vKTNB9ovAKS3W39qwHMAl3Y1mZmZj5a8fMDPLkIu7mVmGXNzNzDLk4m5mliEXdzOzDLm4m5llyMXdzCxDnqyjB/jCH7OJN96JZKBeF1t5z93MLEMu7mZmGXJxNzPLkIu7mVmGynzl78fSxNjDtwOSLm9qs1TS/oY210xcZDMza6fMt0I+DywEkDSFYhKONS2aPhUR53c3npmZjUWnh2XOAl6IiJ0TEcbMzLqj03HuK4H7R9h2hqRNwCvAFRGxtblBmlx7oOHxiC9UlzGlkzH29eSTTx73a6xatWpcz9EuI7Tvz1wmZZiM/weMvz/r8hlpp1eu0+iVnGWV3nOXNB34PPCrFps3AMdHxCnAzcBjrZ6jcYLssYQ1M7NyOjksswzYEBF7mjdExIGIeCstrwOmSZrVpYxmZtahTor7BYxwSEbSsUp/Q0panJ73tfHHMzOzsSh1zF3S4cDZwKqGdY0TZK8ALpZ0EHgbWBm5HcAyM+shpYp7RPwTOLppXeME2auB1d2NZmZmY+UrVM3MMuTibmaWIRd3M7MMebKONibjvHA3XmNgYKB9owmWyzn0uvw/6pLDepP33M3MMuTibmaWIRd3M7MMubibmWXIxd3MLEMu7mZmGXJxNzPLkKoaSytpH9A4o9Ms4NVKwnTGObvLOburF3L2Qkaob87jI2J2u0aVFfdmkgZ7YRIP5+wu5+yuXsjZCxmhd3KOxIdlzMwy5OJuZpahOhX326sOUJJzdpdzdlcv5OyFjNA7OVuqzTF3MzPrnjrtuZuZWZfUorhLOlfS85K2S7qy6jwjkbRD0mZJGyUNVp1nmKQ7Je2VtKVh3VGSnpD013T/4Sozpkytcl4raVfq042Szqs44zxJ6yU9J2mrpMvS+lr15yg569afMyT9UdKmlPN7af0Jkp5On/kHJU2vac67JP2toT8XVpmzIxFR6Q2YArwAnAhMBzYBC6rONULWHcCsqnO0yLUEWARsaVj3A+DKtHwlcENNc14LXFF1toY8xwGL0vJM4C/Agrr15yg569afAo5Iy9OAp4HTgYeAlWn9rcDFNc15F7Ci6n4cy60Oe+6Lge0R8WJEvAM8ACyvOFNPiYjfAa83rV4O3J2W7wa+MKmhWhghZ61ExO6I2JCW3wS2AXOoWX+OkrNWovBWejgt3QL4HPBwWl+H/hwpZ8+qQ3GfA7zU8PhlavhDmgTwuKQhSdVPfTS6YyJid1r+O3BMlWHauFTSs+mwTeWHj4ZJ6gdOpdiLq21/NuWEmvWnpCmSNgJ7gSco/lJ/IyIOpia1+Mw354yI4f68PvXnTZIOqzBiR+pQ3HvJmRGxCFgGXCJpSdWByojib8267oXcAnwEWAjsBn5YbZyCpCOAR4DLI+JA47Y69WeLnLXrz4j4b0QsBOZS/KU+v+JILTXnlPRx4DsUeT8FHAV8u8KIHalDcd8FzGt4PDetq52I2JXu9wJrKH5Q62qPpOMA0v3eivO0FBF70ofqXeBn1KBPJU2jKJj3RsSjaXXt+rNVzjr257CIeANYD5wBHClpeA7nWn3mG3Kemw5/RUT8B/gFNerPdupQ3J8BTkpnz6cDK4G1FWc6hKTDJc0cXgbOAbaM/q8qtRa4MC1fCPy6wiwjGi6YyRepuE8lCbgD2BYRNzZsqlV/jpSzhv05W9KRafmDwNkU5wfWAytSszr0Z6ucf274hS6K8wJ1/sy/Ry0uYkrDtX5EMXLmzoi4vuJIh5B0IsXeOsBU4L665JR0P7CU4lvs9gDfBR6jGJHQR/Htm1+OiEpPZo6QcynFIYSgGI20quHY9qSTdCbwFLAZeDetvorieHZt+nOUnBdQr/78BMUJ0ykUO5MPRcR16fP0AMWhjj8BX017x3XL+SQwm2I0zUbgooYTr7VWi+JuZmbdVYfDMmZm1mUu7mZmGXJxNzPLkIu7mVmGXNzNzDLk4m5mliEXdzOzDLm4m5ll6H/A3ny077MliwAAAABJRU5ErkJggg==\n",
      "text/plain": [
       "<matplotlib.figure.Figure at 0x117a1f4a8>"
      ]
     },
     "metadata": {},
     "output_type": "display_data"
    },
    {
     "data": {
      "text/plain": [
       "[\"../datasets/drum_midi//50s Drummer MIDI Files/01 Rock'n'Roll/01 Dancin Rick 166BPM/01 8th Hat.mid\",\n",
       " \"../datasets/drum_midi//50s Drummer MIDI Files/01 Rock'n'Roll/01 Dancin Rick 166BPM/02 8th Ride.mid\",\n",
       " \"../datasets/drum_midi//50s Drummer MIDI Files/01 Rock'n'Roll/01 Dancin Rick 166BPM/03 16th Snare.mid\",\n",
       " \"../datasets/drum_midi//50s Drummer MIDI Files/01 Rock'n'Roll/01 Dancin Rick 166BPM/04 8th Ride.mid\"]"
      ]
     },
     "execution_count": 10,
     "metadata": {},
     "output_type": "execute_result"
    }
   ],
   "source": [
    "plot.single(x_train[0, :50,:,0])\n",
    "plot.single(x_train[1, :50,:,0])\n",
    "plot.single(x_train[2, :50,:,0])\n",
    "labels[0:4]"
   ]
  },
  {
   "cell_type": "code",
   "execution_count": 11,
   "metadata": {},
   "outputs": [
    {
     "data": {
      "text/plain": [
       "(40, 3, 1)"
      ]
     },
     "execution_count": 11,
     "metadata": {},
     "output_type": "execute_result"
    }
   ],
   "source": [
    "input_shape = x_train[0].shape\n",
    "timesteps = input_shape[0]\n",
    "notes = input_shape[1]\n",
    "input_shape"
   ]
  },
  {
   "cell_type": "code",
   "execution_count": 12,
   "metadata": {},
   "outputs": [],
   "source": [
    "latent_dim = 2\n",
    "intermediate_dim = 128\n",
    "epsilon_std = 1.0"
   ]
  },
  {
   "cell_type": "code",
   "execution_count": 13,
   "metadata": {},
   "outputs": [],
   "source": [
    "def encoder(input_size, dropout=0.05):\n",
    "    encoder_input = Input(shape=input_size)\n",
    "    \n",
    "    # Convolve & Pool\n",
    "    h = encoder_input\n",
    "    h = Reshape(input_shape[:-1])(h)\n",
    "    h = Conv1D(32, kernel_size=2, strides=2, activation='relu', padding='valid')(h)\n",
    "    h = Conv1D(64, kernel_size=2, strides=1, activation='relu', padding='valid')(h)\n",
    "    h = Conv1D(64, kernel_size=2, strides=2, activation='relu', padding='valid')(h)\n",
    "    shape = K.int_shape(h)[1:]\n",
    "    h = Reshape(list(shape) + [1])(h)\n",
    "    h = Conv2D(128, kernel_size=(2,2), strides=1, activation='relu', padding='valid')(h)\n",
    "    h = MaxPooling2D((2, 1))(h)\n",
    "\n",
    "    h = Conv2D(64, kernel_size=(2,2), strides=2, activation='relu', padding='valid')(h)\n",
    "#     print(shape, list(shape))\n",
    "\n",
    "    # Dense layers\n",
    "#     h = Dropout(dropout)(h) # uncomment when using larger batches\n",
    "    h = Flatten()(h)\n",
    "    h = Dropout(dropout)(h) # uncomment when using larger batches\n",
    "\n",
    "    h = Dense(intermediate_dim, activation='relu')(h)\n",
    "   \n",
    "    # Z Mean, Variance\n",
    "    z_mean = Dense(latent_dim, name='z_mean')(h) # , activation='relu'\n",
    "    z_log_var = Dense(latent_dim, name='z_log_var')(h) # , activation='relu'\n",
    "        \n",
    "    encoder_output = [z_mean, z_log_var]\n",
    "    encoder_model = Model(encoder_input, encoder_output, name='encoder_model-')\n",
    "    return encoder_model, encoder_input, z_mean, z_log_var"
   ]
  },
  {
   "cell_type": "code",
   "execution_count": 14,
   "metadata": {},
   "outputs": [
    {
     "name": "stdout",
     "output_type": "stream",
     "text": [
      "__________________________________________________________________________________________________\n",
      "Layer (type)                    Output Shape         Param #     Connected to                     \n",
      "==================================================================================================\n",
      "input_1 (InputLayer)            (None, 40, 3, 1)     0                                            \n",
      "__________________________________________________________________________________________________\n",
      "reshape_1 (Reshape)             (None, 40, 3)        0           input_1[0][0]                    \n",
      "__________________________________________________________________________________________________\n",
      "conv1d_1 (Conv1D)               (None, 20, 32)       224         reshape_1[0][0]                  \n",
      "__________________________________________________________________________________________________\n",
      "conv1d_2 (Conv1D)               (None, 19, 64)       4160        conv1d_1[0][0]                   \n",
      "__________________________________________________________________________________________________\n",
      "conv1d_3 (Conv1D)               (None, 9, 64)        8256        conv1d_2[0][0]                   \n",
      "__________________________________________________________________________________________________\n",
      "reshape_2 (Reshape)             (None, 9, 64, 1)     0           conv1d_3[0][0]                   \n",
      "__________________________________________________________________________________________________\n",
      "conv2d_1 (Conv2D)               (None, 8, 63, 128)   640         reshape_2[0][0]                  \n",
      "__________________________________________________________________________________________________\n",
      "max_pooling2d_1 (MaxPooling2D)  (None, 4, 63, 128)   0           conv2d_1[0][0]                   \n",
      "__________________________________________________________________________________________________\n",
      "conv2d_2 (Conv2D)               (None, 2, 31, 64)    32832       max_pooling2d_1[0][0]            \n",
      "__________________________________________________________________________________________________\n",
      "flatten_1 (Flatten)             (None, 3968)         0           conv2d_2[0][0]                   \n",
      "__________________________________________________________________________________________________\n",
      "dropout_1 (Dropout)             (None, 3968)         0           flatten_1[0][0]                  \n",
      "__________________________________________________________________________________________________\n",
      "dense_1 (Dense)                 (None, 128)          508032      dropout_1[0][0]                  \n",
      "__________________________________________________________________________________________________\n",
      "z_mean (Dense)                  (None, 2)            258         dense_1[0][0]                    \n",
      "__________________________________________________________________________________________________\n",
      "z_log_var (Dense)               (None, 2)            258         dense_1[0][0]                    \n",
      "==================================================================================================\n",
      "Total params: 554,660\n",
      "Trainable params: 554,660\n",
      "Non-trainable params: 0\n",
      "__________________________________________________________________________________________________\n"
     ]
    }
   ],
   "source": [
    "encoder_model, encoder_input, z_mean, z_log_var = encoder(input_shape)\n",
    "encoder_model.summary()"
   ]
  },
  {
   "cell_type": "code",
   "execution_count": 15,
   "metadata": {},
   "outputs": [],
   "source": [
    "sample_ = lambda args: models.sample(args, z_mean, z_log_var, latent_dim, epsilon_std)"
   ]
  },
  {
   "cell_type": "code",
   "execution_count": 16,
   "metadata": {},
   "outputs": [],
   "source": [
    "# z = Lambda(sampling)([z_mean, z_log_var])\n",
    "z_input = encoder_model(encoder_input)\n",
    "z_output = Lambda(sample_)(z_input)\n",
    "# z_output = Lambda(sampl_, output_shape=(latent_dim,))(encoder_input)"
   ]
  },
  {
   "cell_type": "code",
   "execution_count": 17,
   "metadata": {},
   "outputs": [],
   "source": [
    "def list_decoders(output_size, p='valid'):\n",
    "    # decoder_input = z_output\n",
    "    # h = decoder_input\n",
    "    # :output_shape = (timesteps, channels, channels) || (batches, filters, timesteps, channels)\n",
    "    # keras offers just Conv2DTranspose and not Conv1DTranspose\n",
    "    # - use 2D images during upsampling :: (timesteps, notes, channels) => (timesteps, notes, filters)\n",
    "    # - use 1D images to optimize reconstruction :: (timesteps, filters) => (timesteps, notes)\n",
    "    \n",
    "    # image_data_format = 'channels_last'\n",
    "    # goal shape: (timesteps, notes, channels)\n",
    "    # start with the 'reverse': lots of small imgs => few large img\n",
    "    \n",
    "    timesteps, notes, channels = output_size\n",
    "    m = 4 # multiplier for dims\n",
    "    \n",
    "    # at the start of upsampling, the image-structure does not yet have to correspond to the goal structure \n",
    "    # ?TODO use y*y*y starting dims, may conv, and only then correct the structure (?)\n",
    "    output_shape = (timesteps, notes, channels)\n",
    "    \n",
    "    # we instantiate these layers separately so as to reuse them later\n",
    "    decoders = []\n",
    "#     decoders += [ Dense(intermediate_dim, activation='relu') ]\n",
    "    decoders += [ Dense(intermediate_dim, activation='relu') ]\n",
    "    decoders += [ Dense(intermediate_dim * 2, activation='relu') ]\n",
    "    decoders += [ Dense(intermediate_dim * 1, activation='relu') ]\n",
    "    \n",
    "    decoders += [ Dense(np.prod(output_shape), activation='relu') ]\n",
    "#     decoders += [ Reshape(output_shape[-3:]) ]\n",
    "    \n",
    "    # Convolve & Pool\n",
    "    \n",
    "    # Note that the kernel windows do not yet correspond to 'temporal' features, but rather to just spatial features\n",
    "    k = (3,2) # (2,1) :: (timesteps, notes)\n",
    "    s = (1,3)\n",
    "    timesteps_ = int(timesteps / 2)\n",
    "    \n",
    "#     decoders += [ Conv2DTranspose(timesteps_, kernel_size=k, strides=3, activation='relu', padding=p) ]\n",
    "#     decoders += [ Conv2DTranspose(32, kernel_size=k, strides=3, activation='relu', padding=p) ]\n",
    "#     # decoder += [Conv2DTranspose(32, kernel_size=k, strides=3, activation='relu', padding=p)]\n",
    "#     decoders += [ Conv2DTranspose(16, kernel_size=k, strides=(3,1), activation='relu', padding=p)]\n",
    "#     decoders += [ Conv2DTranspose(16, kernel_size=k, strides=3, activation='relu', padding=p)]\n",
    "    \n",
    "    # 'end' of upsampling\n",
    "#     decoders += [ Conv2D(1, kernel_size=(1,2), strides=1, activation='relu', padding=p) ]\n",
    "    # shape = ()\n",
    "    # decoder_reshape2 = Reshape(dims[0:2])\n",
    "    # #     h = Conv1D(16, kernel_size=2, strides=1, activation='relu', padding=p)(h)\n",
    "    # decoder_conv2 = Conv1D(notes * m, kernel_size=2, strides=2, activation='relu', padding=p)\n",
    "    \n",
    "    \n",
    "    # Mean (output)\n",
    "    #     h = Conv2D(1, kernel_size=1, strides=s, activation='sigmoid', padding='same')(h)\n",
    "    output_shape = (timesteps, notes, channels)\n",
    "    \n",
    "#     decoders += [ Flatten()] # note that [].append != [] = []\n",
    "    decoders += [ Dense(np.prod(output_shape), activation='sigmoid')]\n",
    "    decoders += [ Reshape(output_shape)]\n",
    "    return decoders"
   ]
  },
  {
   "cell_type": "code",
   "execution_count": 18,
   "metadata": {},
   "outputs": [],
   "source": [
    "decoders = list_decoders(input_shape)"
   ]
  },
  {
   "cell_type": "code",
   "execution_count": 19,
   "metadata": {},
   "outputs": [],
   "source": [
    "decoded = utils.composition(decoders, z_output, verbose=False)"
   ]
  },
  {
   "cell_type": "code",
   "execution_count": 20,
   "metadata": {},
   "outputs": [
    {
     "name": "stdout",
     "output_type": "stream",
     "text": [
      "__________________________________________________________________________________________________\n",
      "Layer (type)                    Output Shape         Param #     Connected to                     \n",
      "==================================================================================================\n",
      "input_1 (InputLayer)            (None, 40, 3, 1)     0                                            \n",
      "__________________________________________________________________________________________________\n",
      "encoder_model- (Model)          [(None, 2), (None, 2 554660      input_1[0][0]                    \n",
      "__________________________________________________________________________________________________\n",
      "lambda_1 (Lambda)               (None, 2)            0           encoder_model-[1][0]             \n",
      "                                                                 encoder_model-[1][1]             \n",
      "__________________________________________________________________________________________________\n",
      "dense_2 (Dense)                 (None, 128)          384         lambda_1[0][0]                   \n",
      "__________________________________________________________________________________________________\n",
      "dense_3 (Dense)                 (None, 256)          33024       dense_2[0][0]                    \n",
      "__________________________________________________________________________________________________\n",
      "dense_4 (Dense)                 (None, 128)          32896       dense_3[0][0]                    \n",
      "__________________________________________________________________________________________________\n",
      "dense_5 (Dense)                 (None, 120)          15480       dense_4[0][0]                    \n",
      "__________________________________________________________________________________________________\n",
      "dense_6 (Dense)                 (None, 120)          14520       dense_5[0][0]                    \n",
      "__________________________________________________________________________________________________\n",
      "reshape_3 (Reshape)             (None, 40, 3, 1)     0           dense_6[0][0]                    \n",
      "==================================================================================================\n",
      "Total params: 650,964\n",
      "Trainable params: 650,964\n",
      "Non-trainable params: 0\n",
      "__________________________________________________________________________________________________\n"
     ]
    }
   ],
   "source": [
    "# instantiate VAE model\n",
    "vae_input = encoder_input\n",
    "vae_output = decoded\n",
    "vae = Model(vae_input, vae_output)\n",
    "vae.summary()"
   ]
  },
  {
   "cell_type": "code",
   "execution_count": 21,
   "metadata": {
    "scrolled": true
   },
   "outputs": [
    {
     "name": "stderr",
     "output_type": "stream",
     "text": [
      "/Library/Frameworks/Python.framework/Versions/3.6/lib/python3.6/site-packages/ipykernel_launcher.py:11: UserWarning: Output \"reshape_3\" missing from loss dictionary. We assume this was done on purpose, and we will not be expecting any data to be passed to \"reshape_3\" during training.\n",
      "  # This is added back by InteractiveShellApp.init_path()\n"
     ]
    }
   ],
   "source": [
    "# Compute VAE loss\n",
    "def vae_loss(beta=1.):\n",
    "    # y_true, y_pred, z_mean, z_log_var, timesteps=150, notes=3, beta=1.\n",
    "    xent_loss = timesteps * notes * keras.metrics.binary_crossentropy(K.flatten(vae_input), K.flatten(vae_output))\n",
    "    kl_loss = - 0.5 * K.sum(1 + z_log_var - K.square(z_mean) - K.exp(z_log_var), axis=-1)\n",
    "    vae_loss = K.mean(xent_loss + beta * kl_loss)\n",
    "    return vae_loss\n",
    "\n",
    "vae_loss = vae_loss(beta=1)\n",
    "vae.add_loss(vae_loss)\n",
    "vae.compile(optimizer='rmsprop')\n",
    "# vae.compile(optimizer=optimizer, loss=loss, metrics=metrics)"
   ]
  },
  {
   "cell_type": "code",
   "execution_count": 22,
   "metadata": {},
   "outputs": [],
   "source": [
    "batch_size = 10\n",
    "epochs = 50\n",
    "params = {'batch_size': batch_size, 'return_y': False}"
   ]
  },
  {
   "cell_type": "code",
   "execution_count": 23,
   "metadata": {},
   "outputs": [],
   "source": [
    "phase_mod = 0.01\n",
    "whitening = False\n",
    "\n",
    "# datagen = ImageDataGenerator(\n",
    "#         featurewise_center=False,  # set input mean to 0 over the dataset\n",
    "#         samplewise_center=False,  # set each sample mean to 0\n",
    "#         featurewise_std_normalization=False,  # divide inputs by dataset std\n",
    "#         samplewise_std_normalization=False,  # divide each input by its std\n",
    "# #         zca_epsilon=10,\n",
    "#         zca_whitening=whitening,\n",
    "#         rotation_range=0,  # randomly rotate images in 0 to 180 degrees\n",
    "#         width_shift_range=0.,  # note-channel mod, but not shuffled\n",
    "#         height_shift_range=phase_mod,  # start_t, phase\n",
    "#         horizontal_flip=False,  # reverse\n",
    "#         vertical_flip=False)\n",
    "\n",
    "# # datagen.fit(x_train)"
   ]
  },
  {
   "cell_type": "code",
   "execution_count": 24,
   "metadata": {},
   "outputs": [
    {
     "data": {
      "text/plain": [
       "(90, 40, 3, 1)"
      ]
     },
     "execution_count": 24,
     "metadata": {},
     "output_type": "execute_result"
    }
   ],
   "source": [
    "x_train.shape"
   ]
  },
  {
   "cell_type": "code",
   "execution_count": 25,
   "metadata": {
    "scrolled": true
   },
   "outputs": [
    {
     "name": "stdout",
     "output_type": "stream",
     "text": [
      "batch_size = 10\n",
      "\n",
      "[Epoch 0/50] >>>>>>>>>>>>\n",
      " Batch 0/9\n",
      "loss [83.0]\n",
      " Batch 1/9\n",
      "loss [82.0]\n",
      " Batch 2/9\n",
      "loss [80.0]\n",
      " Batch 3/9\n",
      "loss [68.0]\n",
      " Batch 4/9\n",
      "loss [234.0]\n",
      " Batch 5/9\n",
      "loss [64.0]\n",
      " Batch 6/9\n",
      "loss [64.0]\n",
      " Batch 7/9\n",
      "loss [63.0]\n",
      " Batch 8/9\n",
      "loss [54.0]\n",
      " Batch 9/9\n",
      "loss [53.0]\n",
      "\n",
      "[Epoch 1/50] >>>>>>>>>>>>\n",
      " Batch 0/9\n",
      "loss [55.0]\n",
      " Batch 1/9\n",
      "loss [49.0]\n",
      " Batch 2/9\n",
      "loss [49.0]\n",
      " Batch 3/9\n",
      "loss [51.0]\n",
      " Batch 4/9\n",
      "loss [53.0]\n",
      " Batch 5/9\n",
      "loss [47.0]\n",
      " Batch 6/9\n",
      "loss [44.0]\n",
      " Batch 7/9\n",
      "loss [45.0]\n",
      " Batch 8/9\n",
      "loss [43.0]\n",
      " Batch 9/9\n",
      "loss [43.0]\n",
      "\n",
      "[Epoch 2/50] >>>>>>>>>>>>\n",
      " Batch 0/9\n",
      "loss [40.0]\n",
      " Batch 1/9\n",
      "loss [44.0]\n",
      " Batch 2/9\n",
      "loss [55.0]\n",
      " Batch 3/9\n",
      "loss [46.0]\n",
      " Batch 4/9\n",
      "loss [42.0]\n",
      " Batch 5/9\n",
      "loss [38.0]\n",
      " Batch 6/9\n",
      "loss [39.0]\n",
      " Batch 7/9\n",
      "loss [51.0]\n",
      " Batch 8/9\n",
      "loss [44.0]\n",
      " Batch 9/9\n",
      "loss [39.0]\n",
      "\n",
      "[Epoch 3/50] >>>>>>>>>>>>\n",
      " Batch 0/9\n",
      "loss [40.0]\n",
      " Batch 1/9\n",
      "loss [45.0]\n",
      " Batch 2/9\n",
      "loss [43.0]\n",
      " Batch 3/9\n",
      "loss [36.0]\n",
      " Batch 4/9\n",
      "loss [41.0]\n",
      " Batch 5/9\n",
      "loss [41.0]\n",
      " Batch 6/9\n",
      "loss [41.0]\n",
      " Batch 7/9\n",
      "loss [38.0]\n",
      " Batch 8/9\n",
      "loss [35.0]\n",
      " Batch 9/9\n",
      "loss [38.0]\n",
      "\n",
      "[Epoch 4/50] >>>>>>>>>>>>\n",
      " Batch 0/9\n",
      "loss [40.0]\n",
      " Batch 1/9\n",
      "loss [34.0]\n",
      " Batch 2/9\n",
      "loss [46.0]\n",
      " Batch 3/9\n",
      "loss [35.0]\n",
      " Batch 4/9\n",
      "loss [43.0]\n",
      " Batch 5/9\n",
      "loss [38.0]\n",
      " Batch 6/9\n",
      "loss [39.0]\n",
      " Batch 7/9\n",
      "loss [49.0]\n",
      " Batch 8/9\n",
      "loss [39.0]\n",
      " Batch 9/9\n",
      "loss [46.0]\n",
      "\n",
      "[Epoch 5/50] >>>>>>>>>>>>\n",
      " Batch 0/9\n",
      "loss [45.0]\n",
      " Batch 1/9\n",
      "loss [38.0]\n",
      " Batch 2/9\n",
      "loss [38.0]\n",
      " Batch 3/9\n",
      "loss [34.0]\n",
      " Batch 4/9\n",
      "loss [41.0]\n",
      " Batch 5/9\n",
      "loss [34.0]\n",
      " Batch 6/9\n",
      "loss [30.0]\n",
      " Batch 7/9\n",
      "loss [40.0]\n",
      " Batch 8/9\n",
      "loss [39.0]\n",
      " Batch 9/9\n",
      "loss [32.0]\n",
      "\n",
      "[Epoch 6/50] >>>>>>>>>>>>\n",
      " Batch 0/9\n",
      "loss [40.0]\n",
      " Batch 1/9\n",
      "loss [36.0]\n",
      " Batch 2/9\n",
      "loss [38.0]\n",
      " Batch 3/9\n",
      "loss [35.0]\n",
      " Batch 4/9\n",
      "loss [38.0]\n",
      " Batch 5/9\n",
      "loss [35.0]\n",
      " Batch 6/9\n",
      "loss [40.0]\n",
      " Batch 7/9\n",
      "loss [36.0]\n",
      " Batch 8/9\n",
      "loss [42.0]\n",
      " Batch 9/9\n",
      "loss [36.0]\n",
      "\n",
      "[Epoch 7/50] >>>>>>>>>>>>\n",
      " Batch 0/9\n",
      "loss [38.0]\n",
      " Batch 1/9\n",
      "loss [49.0]\n",
      " Batch 2/9\n",
      "loss [34.0]\n",
      " Batch 3/9\n",
      "loss [37.0]\n",
      " Batch 4/9\n",
      "loss [33.0]\n",
      " Batch 5/9\n",
      "loss [35.0]\n",
      " Batch 6/9\n",
      "loss [38.0]\n",
      " Batch 7/9\n",
      "loss [39.0]\n",
      " Batch 8/9\n",
      "loss [38.0]\n",
      " Batch 9/9\n",
      "loss [30.0]\n",
      "\n",
      "[Epoch 8/50] >>>>>>>>>>>>\n",
      " Batch 0/9\n",
      "loss [39.0]\n",
      " Batch 1/9\n",
      "loss [32.0]\n",
      " Batch 2/9\n",
      "loss [31.0]\n",
      " Batch 3/9\n",
      "loss [37.0]\n",
      " Batch 4/9\n",
      "loss [41.0]\n",
      " Batch 5/9\n",
      "loss [42.0]\n",
      " Batch 6/9\n",
      "loss [39.0]\n",
      " Batch 7/9\n",
      "loss [32.0]\n",
      " Batch 8/9\n",
      "loss [42.0]\n",
      " Batch 9/9\n",
      "loss [36.0]\n",
      "\n",
      "[Epoch 9/50] >>>>>>>>>>>>\n",
      " Batch 0/9\n",
      "loss [37.0]\n",
      " Batch 1/9\n",
      "loss [34.0]\n",
      " Batch 2/9\n",
      "loss [31.0]\n",
      " Batch 3/9\n",
      "loss [42.0]\n",
      " Batch 4/9\n",
      "loss [36.0]\n",
      " Batch 5/9\n",
      "loss [41.0]\n",
      " Batch 6/9\n",
      "loss [34.0]\n",
      " Batch 7/9\n",
      "loss [45.0]\n",
      " Batch 8/9\n",
      "loss [35.0]\n",
      " Batch 9/9\n",
      "loss [39.0]\n",
      "\n",
      "[Epoch 10/50] >>>>>>>>>>>>\n",
      " Batch 0/9\n",
      "loss [38.0]\n",
      " Batch 1/9\n",
      "loss [37.0]\n",
      " Batch 2/9\n",
      "loss [38.0]\n",
      " Batch 3/9\n",
      "loss [33.0]\n",
      " Batch 4/9\n",
      "loss [37.0]\n",
      " Batch 5/9\n",
      "loss [43.0]\n",
      " Batch 6/9\n",
      "loss [36.0]\n",
      " Batch 7/9\n",
      "loss [35.0]\n",
      " Batch 8/9\n",
      "loss [30.0]\n",
      " Batch 9/9\n",
      "loss [41.0]\n",
      "\n",
      "[Epoch 11/50] >>>>>>>>>>>>\n",
      " Batch 0/9\n",
      "loss [33.0]\n",
      " Batch 1/9\n",
      "loss [39.0]\n",
      " Batch 2/9\n",
      "loss [37.0]\n",
      " Batch 3/9\n",
      "loss [37.0]\n",
      " Batch 4/9\n",
      "loss [33.0]\n",
      " Batch 5/9\n",
      "loss [37.0]\n",
      " Batch 6/9\n",
      "loss [41.0]\n",
      " Batch 7/9\n",
      "loss [43.0]\n",
      " Batch 8/9\n",
      "loss [35.0]\n",
      " Batch 9/9\n",
      "loss [42.0]\n",
      "\n",
      "[Epoch 12/50] >>>>>>>>>>>>\n",
      " Batch 0/9\n",
      "loss [36.0]\n",
      " Batch 1/9\n",
      "loss [31.0]\n",
      " Batch 2/9\n",
      "loss [33.0]\n",
      " Batch 3/9\n",
      "loss [38.0]\n",
      " Batch 4/9\n",
      "loss [37.0]\n",
      " Batch 5/9\n",
      "loss [33.0]\n",
      " Batch 6/9\n",
      "loss [41.0]\n",
      " Batch 7/9\n",
      "loss [39.0]\n",
      " Batch 8/9\n",
      "loss [40.0]\n",
      " Batch 9/9\n",
      "loss [44.0]\n",
      "\n",
      "[Epoch 13/50] >>>>>>>>>>>>\n",
      " Batch 0/9\n",
      "loss [36.0]\n",
      " Batch 1/9\n",
      "loss [41.0]\n",
      " Batch 2/9\n",
      "loss [38.0]\n",
      " Batch 3/9\n",
      "loss [36.0]\n",
      " Batch 4/9\n",
      "loss [38.0]\n",
      " Batch 5/9\n",
      "loss [28.0]\n",
      " Batch 6/9\n",
      "loss [38.0]\n",
      " Batch 7/9\n",
      "loss [42.0]\n",
      " Batch 8/9\n",
      "loss [36.0]\n",
      " Batch 9/9\n",
      "loss [30.0]\n",
      "\n",
      "[Epoch 14/50] >>>>>>>>>>>>\n",
      " Batch 0/9\n",
      "loss [32.0]\n",
      " Batch 1/9\n",
      "loss [39.0]\n",
      " Batch 2/9\n",
      "loss [29.0]\n",
      " Batch 3/9\n",
      "loss [39.0]\n",
      " Batch 4/9\n",
      "loss [39.0]\n",
      " Batch 5/9\n",
      "loss [39.0]\n",
      " Batch 6/9\n",
      "loss [30.0]\n",
      " Batch 7/9\n",
      "loss [34.0]\n",
      " Batch 8/9\n",
      "loss [49.0]\n",
      " Batch 9/9\n",
      "loss [36.0]\n",
      "\n",
      "[Epoch 15/50] >>>>>>>>>>>>\n",
      " Batch 0/9\n",
      "loss [32.0]\n",
      " Batch 1/9\n",
      "loss [35.0]\n",
      " Batch 2/9\n",
      "loss [39.0]\n",
      " Batch 3/9\n",
      "loss [36.0]\n",
      " Batch 4/9\n",
      "loss [33.0]\n",
      " Batch 5/9\n",
      "loss [34.0]\n",
      " Batch 6/9\n",
      "loss [32.0]\n",
      " Batch 7/9\n",
      "loss [46.0]\n",
      " Batch 8/9\n",
      "loss [38.0]\n",
      " Batch 9/9\n",
      "loss [34.0]\n",
      "\n",
      "[Epoch 16/50] >>>>>>>>>>>>\n",
      " Batch 0/9\n",
      "loss [34.0]\n",
      " Batch 1/9\n",
      "loss [38.0]\n",
      " Batch 2/9\n",
      "loss [34.0]\n",
      " Batch 3/9\n",
      "loss [43.0]\n",
      " Batch 4/9\n",
      "loss [36.0]\n",
      " Batch 5/9\n",
      "loss [34.0]\n",
      " Batch 6/9\n",
      "loss [35.0]\n",
      " Batch 7/9\n",
      "loss [34.0]\n",
      " Batch 8/9\n",
      "loss [36.0]\n",
      " Batch 9/9\n",
      "loss [35.0]\n",
      "\n",
      "[Epoch 17/50] >>>>>>>>>>>>\n",
      " Batch 0/9\n",
      "loss [36.0]\n",
      " Batch 1/9\n",
      "loss [32.0]\n",
      " Batch 2/9\n",
      "loss [34.0]\n",
      " Batch 3/9\n",
      "loss [35.0]\n",
      " Batch 4/9\n",
      "loss [37.0]\n",
      " Batch 5/9\n",
      "loss [34.0]\n",
      " Batch 6/9\n",
      "loss [41.0]\n",
      " Batch 7/9\n",
      "loss [40.0]\n",
      " Batch 8/9\n",
      "loss [33.0]\n",
      " Batch 9/9\n",
      "loss [39.0]\n",
      "\n",
      "[Epoch 18/50] >>>>>>>>>>>>\n",
      " Batch 0/9\n",
      "loss [31.0]\n",
      " Batch 1/9\n",
      "loss [32.0]\n",
      " Batch 2/9\n",
      "loss [39.0]\n",
      " Batch 3/9\n",
      "loss [34.0]\n",
      " Batch 4/9\n",
      "loss [40.0]\n",
      " Batch 5/9\n",
      "loss [34.0]\n",
      " Batch 6/9\n",
      "loss [42.0]\n",
      " Batch 7/9\n",
      "loss [37.0]\n",
      " Batch 8/9\n",
      "loss [36.0]\n",
      " Batch 9/9\n",
      "loss [36.0]\n",
      "\n",
      "[Epoch 19/50] >>>>>>>>>>>>\n",
      " Batch 0/9\n",
      "loss [36.0]\n",
      " Batch 1/9\n",
      "loss [37.0]\n",
      " Batch 2/9\n",
      "loss [37.0]\n",
      " Batch 3/9\n",
      "loss [35.0]\n",
      " Batch 4/9\n",
      "loss [30.0]\n",
      " Batch 5/9\n",
      "loss [44.0]\n",
      " Batch 6/9\n",
      "loss [39.0]\n",
      " Batch 7/9\n",
      "loss [32.0]\n",
      " Batch 8/9\n",
      "loss [34.0]\n",
      " Batch 9/9\n",
      "loss [33.0]\n",
      "\n",
      "[Epoch 20/50] >>>>>>>>>>>>\n",
      " Batch 0/9\n",
      "loss [37.0]\n",
      " Batch 1/9\n",
      "loss [40.0]\n",
      " Batch 2/9\n",
      "loss [36.0]\n",
      " Batch 3/9\n",
      "loss [29.0]\n",
      " Batch 4/9\n",
      "loss [37.0]\n",
      " Batch 5/9\n",
      "loss [34.0]\n",
      " Batch 6/9\n",
      "loss [38.0]\n",
      " Batch 7/9\n",
      "loss [34.0]\n",
      " Batch 8/9\n",
      "loss [35.0]\n",
      " Batch 9/9\n",
      "loss [32.0]\n",
      "\n",
      "[Epoch 21/50] >>>>>>>>>>>>\n",
      " Batch 0/9\n",
      "loss [35.0]\n",
      " Batch 1/9\n",
      "loss [32.0]\n",
      " Batch 2/9\n",
      "loss [36.0]\n",
      " Batch 3/9\n",
      "loss [37.0]\n",
      " Batch 4/9\n",
      "loss [46.0]\n",
      " Batch 5/9\n",
      "loss [39.0]\n",
      " Batch 6/9\n",
      "loss [31.0]\n",
      " Batch 7/9\n",
      "loss [33.0]\n",
      " Batch 8/9\n",
      "loss [32.0]\n",
      " Batch 9/9\n",
      "loss [31.0]\n",
      "\n",
      "[Epoch 22/50] >>>>>>>>>>>>\n",
      " Batch 0/9\n",
      "loss [32.0]\n",
      " Batch 1/9\n",
      "loss [34.0]\n",
      " Batch 2/9\n",
      "loss [32.0]\n",
      " Batch 3/9\n",
      "loss [33.0]\n",
      " Batch 4/9\n",
      "loss [36.0]\n",
      " Batch 5/9\n",
      "loss [35.0]\n",
      " Batch 6/9\n",
      "loss [37.0]\n",
      " Batch 7/9\n",
      "loss [35.0]\n",
      " Batch 8/9\n",
      "loss [42.0]\n",
      " Batch 9/9\n",
      "loss [40.0]\n",
      "\n",
      "[Epoch 23/50] >>>>>>>>>>>>\n",
      " Batch 0/9\n",
      "loss [41.0]\n",
      " Batch 1/9\n",
      "loss [32.0]\n",
      " Batch 2/9\n",
      "loss [35.0]\n",
      " Batch 3/9\n",
      "loss [38.0]\n",
      " Batch 4/9\n",
      "loss [33.0]\n",
      " Batch 5/9\n",
      "loss [40.0]\n",
      " Batch 6/9\n",
      "loss [32.0]\n",
      " Batch 7/9\n",
      "loss [33.0]\n",
      " Batch 8/9\n",
      "loss [33.0]\n",
      " Batch 9/9\n",
      "loss [33.0]\n",
      "\n",
      "[Epoch 24/50] >>>>>>>>>>>>\n",
      " Batch 0/9\n",
      "loss [34.0]\n",
      " Batch 1/9\n",
      "loss [36.0]\n",
      " Batch 2/9\n",
      "loss [39.0]\n",
      " Batch 3/9\n",
      "loss [34.0]\n",
      " Batch 4/9\n",
      "loss [42.0]\n",
      " Batch 5/9\n",
      "loss [32.0]\n",
      " Batch 6/9\n",
      "loss [30.0]\n",
      " Batch 7/9\n",
      "loss [34.0]\n",
      " Batch 8/9\n",
      "loss [33.0]\n",
      " Batch 9/9\n",
      "loss [39.0]\n",
      "\n",
      "[Epoch 25/50] >>>>>>>>>>>>\n",
      " Batch 0/9\n",
      "loss [38.0]\n",
      " Batch 1/9\n",
      "loss [35.0]\n",
      " Batch 2/9\n",
      "loss [35.0]\n",
      " Batch 3/9\n",
      "loss [43.0]\n",
      " Batch 4/9\n",
      "loss [35.0]\n",
      " Batch 5/9\n",
      "loss [29.0]\n",
      " Batch 6/9\n",
      "loss [30.0]\n",
      " Batch 7/9\n",
      "loss [36.0]\n",
      " Batch 8/9\n",
      "loss [39.0]\n",
      " Batch 9/9\n",
      "loss [44.0]\n",
      "\n",
      "[Epoch 26/50] >>>>>>>>>>>>\n",
      " Batch 0/9\n",
      "loss [32.0]\n",
      " Batch 1/9\n",
      "loss [35.0]\n",
      " Batch 2/9\n",
      "loss [32.0]\n",
      " Batch 3/9\n",
      "loss [32.0]\n",
      " Batch 4/9\n",
      "loss [42.0]\n",
      " Batch 5/9\n",
      "loss [42.0]\n",
      " Batch 6/9\n",
      "loss [33.0]\n",
      " Batch 7/9\n",
      "loss [29.0]\n",
      " Batch 8/9\n",
      "loss [34.0]\n",
      " Batch 9/9\n",
      "loss [30.0]\n",
      "\n",
      "[Epoch 27/50] >>>>>>>>>>>>\n",
      " Batch 0/9\n",
      "loss [30.0]\n",
      " Batch 1/9\n",
      "loss [29.0]\n",
      " Batch 2/9\n",
      "loss [37.0]\n",
      " Batch 3/9\n",
      "loss [33.0]\n",
      " Batch 4/9\n",
      "loss [33.0]\n",
      " Batch 5/9\n",
      "loss [33.0]\n",
      " Batch 6/9\n",
      "loss [34.0]\n",
      " Batch 7/9\n",
      "loss [35.0]\n",
      " Batch 8/9\n",
      "loss [43.0]\n",
      " Batch 9/9\n",
      "loss [34.0]\n",
      "\n",
      "[Epoch 28/50] >>>>>>>>>>>>\n",
      " Batch 0/9\n",
      "loss [34.0]\n",
      " Batch 1/9\n",
      "loss [37.0]\n",
      " Batch 2/9\n",
      "loss [33.0]\n",
      " Batch 3/9\n",
      "loss [39.0]\n",
      " Batch 4/9\n",
      "loss [35.0]\n",
      " Batch 5/9\n",
      "loss [32.0]\n",
      " Batch 6/9\n",
      "loss [35.0]\n",
      " Batch 7/9\n",
      "loss [29.0]\n",
      " Batch 8/9\n",
      "loss [34.0]\n",
      " Batch 9/9\n",
      "loss [28.0]\n",
      "\n",
      "[Epoch 29/50] >>>>>>>>>>>>\n",
      " Batch 0/9\n",
      "loss [35.0]\n",
      " Batch 1/9\n",
      "loss [33.0]\n",
      " Batch 2/9\n",
      "loss [35.0]\n",
      " Batch 3/9\n",
      "loss [38.0]\n",
      " Batch 4/9\n",
      "loss [32.0]\n",
      " Batch 5/9\n",
      "loss [34.0]\n",
      " Batch 6/9\n",
      "loss [32.0]\n",
      " Batch 7/9\n",
      "loss [31.0]\n",
      " Batch 8/9\n",
      "loss [32.0]\n",
      " Batch 9/9\n",
      "loss [32.0]\n",
      "\n",
      "[Epoch 30/50] >>>>>>>>>>>>\n",
      " Batch 0/9\n",
      "loss [34.0]\n",
      " Batch 1/9\n",
      "loss [34.0]\n",
      " Batch 2/9\n",
      "loss [30.0]\n",
      " Batch 3/9\n",
      "loss [27.0]\n",
      " Batch 4/9\n",
      "loss [35.0]\n",
      " Batch 5/9\n",
      "loss [38.0]\n",
      " Batch 6/9\n",
      "loss [32.0]\n",
      " Batch 7/9\n",
      "loss [40.0]\n",
      " Batch 8/9\n",
      "loss [35.0]\n",
      " Batch 9/9\n",
      "loss [31.0]\n",
      "\n",
      "[Epoch 31/50] >>>>>>>>>>>>\n",
      " Batch 0/9\n",
      "loss [32.0]\n",
      " Batch 1/9\n",
      "loss [32.0]\n",
      " Batch 2/9\n",
      "loss [28.0]\n",
      " Batch 3/9\n",
      "loss [39.0]\n",
      " Batch 4/9\n",
      "loss [33.0]\n",
      " Batch 5/9\n",
      "loss [41.0]\n",
      " Batch 6/9\n",
      "loss [28.0]\n",
      " Batch 7/9\n",
      "loss [35.0]\n",
      " Batch 8/9\n",
      "loss [30.0]\n",
      " Batch 9/9\n",
      "loss [37.0]\n",
      "\n",
      "[Epoch 32/50] >>>>>>>>>>>>\n",
      " Batch 0/9\n",
      "loss [34.0]\n",
      " Batch 1/9\n",
      "loss [31.0]\n",
      " Batch 2/9\n"
     ]
    },
    {
     "name": "stdout",
     "output_type": "stream",
     "text": [
      "loss [31.0]\n",
      " Batch 3/9\n",
      "loss [32.0]\n",
      " Batch 4/9\n",
      "loss [35.0]\n",
      " Batch 5/9\n",
      "loss [29.0]\n",
      " Batch 6/9\n",
      "loss [43.0]\n",
      " Batch 7/9\n",
      "loss [35.0]\n",
      " Batch 8/9\n",
      "loss [36.0]\n",
      " Batch 9/9\n",
      "loss [34.0]\n",
      "\n",
      "[Epoch 33/50] >>>>>>>>>>>>\n",
      " Batch 0/9\n",
      "loss [44.0]\n",
      " Batch 1/9\n",
      "loss [31.0]\n",
      " Batch 2/9\n",
      "loss [31.0]\n",
      " Batch 3/9\n",
      "loss [33.0]\n",
      " Batch 4/9\n",
      "loss [34.0]\n",
      " Batch 5/9\n",
      "loss [29.0]\n",
      " Batch 6/9\n",
      "loss [31.0]\n",
      " Batch 7/9\n",
      "loss [38.0]\n",
      " Batch 8/9\n",
      "loss [30.0]\n",
      " Batch 9/9\n",
      "loss [29.0]\n",
      "\n",
      "[Epoch 34/50] >>>>>>>>>>>>\n",
      " Batch 0/9\n",
      "loss [32.0]\n",
      " Batch 1/9\n",
      "loss [32.0]\n",
      " Batch 2/9\n",
      "loss [36.0]\n",
      " Batch 3/9\n",
      "loss [27.0]\n",
      " Batch 4/9\n",
      "loss [35.0]\n",
      " Batch 5/9\n",
      "loss [30.0]\n",
      " Batch 6/9\n",
      "loss [40.0]\n",
      " Batch 7/9\n",
      "loss [30.0]\n",
      " Batch 8/9\n",
      "loss [38.0]\n",
      " Batch 9/9\n",
      "loss [31.0]\n",
      "\n",
      "[Epoch 35/50] >>>>>>>>>>>>\n",
      " Batch 0/9\n",
      "loss [35.0]\n",
      " Batch 1/9\n",
      "loss [31.0]\n",
      " Batch 2/9\n",
      "loss [37.0]\n",
      " Batch 3/9\n",
      "loss [34.0]\n",
      " Batch 4/9\n",
      "loss [39.0]\n",
      " Batch 5/9\n",
      "loss [33.0]\n",
      " Batch 6/9\n",
      "loss [32.0]\n",
      " Batch 7/9\n",
      "loss [30.0]\n",
      " Batch 8/9\n",
      "loss [26.0]\n",
      " Batch 9/9\n",
      "loss [32.0]\n",
      "\n",
      "[Epoch 36/50] >>>>>>>>>>>>\n",
      " Batch 0/9\n",
      "loss [32.0]\n",
      " Batch 1/9\n",
      "loss [34.0]\n",
      " Batch 2/9\n",
      "loss [33.0]\n",
      " Batch 3/9\n",
      "loss [26.0]\n",
      " Batch 4/9\n",
      "loss [44.0]\n",
      " Batch 5/9\n",
      "loss [32.0]\n",
      " Batch 6/9\n",
      "loss [30.0]\n",
      " Batch 7/9\n",
      "loss [34.0]\n",
      " Batch 8/9\n",
      "loss [32.0]\n",
      " Batch 9/9\n",
      "loss [35.0]\n",
      "\n",
      "[Epoch 37/50] >>>>>>>>>>>>\n",
      " Batch 0/9\n",
      "loss [31.0]\n",
      " Batch 1/9\n",
      "loss [42.0]\n",
      " Batch 2/9\n",
      "loss [32.0]\n",
      " Batch 3/9\n",
      "loss [31.0]\n",
      " Batch 4/9\n",
      "loss [34.0]\n",
      " Batch 5/9\n",
      "loss [30.0]\n",
      " Batch 6/9\n",
      "loss [37.0]\n",
      " Batch 7/9\n",
      "loss [31.0]\n",
      " Batch 8/9\n",
      "loss [30.0]\n",
      " Batch 9/9\n",
      "loss [28.0]\n",
      "\n",
      "[Epoch 38/50] >>>>>>>>>>>>\n",
      " Batch 0/9\n",
      "loss [32.0]\n",
      " Batch 1/9\n",
      "loss [32.0]\n",
      " Batch 2/9\n",
      "loss [30.0]\n",
      " Batch 3/9\n",
      "loss [34.0]\n",
      " Batch 4/9\n",
      "loss [34.0]\n",
      " Batch 5/9\n",
      "loss [32.0]\n",
      " Batch 6/9\n",
      "loss [35.0]\n",
      " Batch 7/9\n",
      "loss [40.0]\n",
      " Batch 8/9\n",
      "loss [33.0]\n",
      " Batch 9/9\n",
      "loss [35.0]\n",
      "\n",
      "[Epoch 39/50] >>>>>>>>>>>>\n",
      " Batch 0/9\n",
      "loss [41.0]\n",
      " Batch 1/9\n",
      "loss [36.0]\n",
      " Batch 2/9\n",
      "loss [29.0]\n",
      " Batch 3/9\n",
      "loss [31.0]\n",
      " Batch 4/9\n",
      "loss [34.0]\n",
      " Batch 5/9\n",
      "loss [30.0]\n",
      " Batch 6/9\n",
      "loss [33.0]\n",
      " Batch 7/9\n",
      "loss [35.0]\n",
      " Batch 8/9\n",
      "loss [27.0]\n",
      " Batch 9/9\n",
      "loss [36.0]\n",
      "\n",
      "[Epoch 40/50] >>>>>>>>>>>>\n",
      " Batch 0/9\n",
      "loss [37.0]\n",
      " Batch 1/9\n",
      "loss [32.0]\n",
      " Batch 2/9\n",
      "loss [33.0]\n",
      " Batch 3/9\n",
      "loss [31.0]\n",
      " Batch 4/9\n",
      "loss [38.0]\n",
      " Batch 5/9\n",
      "loss [31.0]\n",
      " Batch 6/9\n",
      "loss [29.0]\n",
      " Batch 7/9\n",
      "loss [29.0]\n",
      " Batch 8/9\n",
      "loss [30.0]\n",
      " Batch 9/9\n",
      "loss [32.0]\n",
      "\n",
      "[Epoch 41/50] >>>>>>>>>>>>\n",
      " Batch 0/9\n",
      "loss [40.0]\n",
      " Batch 1/9\n",
      "loss [33.0]\n",
      " Batch 2/9\n",
      "loss [35.0]\n",
      " Batch 3/9\n",
      "loss [28.0]\n",
      " Batch 4/9\n",
      "loss [34.0]\n",
      " Batch 5/9\n",
      "loss [39.0]\n",
      " Batch 6/9\n",
      "loss [28.0]\n",
      " Batch 7/9\n",
      "loss [37.0]\n",
      " Batch 8/9\n",
      "loss [29.0]\n",
      " Batch 9/9\n",
      "loss [28.0]\n",
      "\n",
      "[Epoch 42/50] >>>>>>>>>>>>\n",
      " Batch 0/9\n",
      "loss [33.0]\n",
      " Batch 1/9\n",
      "loss [34.0]\n",
      " Batch 2/9\n",
      "loss [31.0]\n",
      " Batch 3/9\n",
      "loss [30.0]\n",
      " Batch 4/9\n",
      "loss [33.0]\n",
      " Batch 5/9\n",
      "loss [33.0]\n",
      " Batch 6/9\n",
      "loss [34.0]\n",
      " Batch 7/9\n",
      "loss [32.0]\n",
      " Batch 8/9\n",
      "loss [38.0]\n",
      " Batch 9/9\n",
      "loss [34.0]\n",
      "\n",
      "[Epoch 43/50] >>>>>>>>>>>>\n",
      " Batch 0/9\n",
      "loss [31.0]\n",
      " Batch 1/9\n",
      "loss [28.0]\n",
      " Batch 2/9\n",
      "loss [35.0]\n",
      " Batch 3/9\n",
      "loss [31.0]\n",
      " Batch 4/9\n",
      "loss [35.0]\n",
      " Batch 5/9\n",
      "loss [31.0]\n",
      " Batch 6/9\n",
      "loss [43.0]\n",
      " Batch 7/9\n",
      "loss [31.0]\n",
      " Batch 8/9\n",
      "loss [34.0]\n",
      " Batch 9/9\n",
      "loss [35.0]\n",
      "\n",
      "[Epoch 44/50] >>>>>>>>>>>>\n",
      " Batch 0/9\n",
      "loss [31.0]\n",
      " Batch 1/9\n",
      "loss [28.0]\n",
      " Batch 2/9\n",
      "loss [37.0]\n",
      " Batch 3/9\n",
      "loss [40.0]\n",
      " Batch 4/9\n",
      "loss [33.0]\n",
      " Batch 5/9\n",
      "loss [34.0]\n",
      " Batch 6/9\n",
      "loss [29.0]\n",
      " Batch 7/9\n",
      "loss [35.0]\n",
      " Batch 8/9\n",
      "loss [28.0]\n",
      " Batch 9/9\n",
      "loss [40.0]\n",
      "\n",
      "[Epoch 45/50] >>>>>>>>>>>>\n",
      " Batch 0/9\n",
      "loss [32.0]\n",
      " Batch 1/9\n",
      "loss [31.0]\n",
      " Batch 2/9\n",
      "loss [41.0]\n",
      " Batch 3/9\n",
      "loss [31.0]\n",
      " Batch 4/9\n",
      "loss [37.0]\n",
      " Batch 5/9\n",
      "loss [33.0]\n",
      " Batch 6/9\n",
      "loss [33.0]\n",
      " Batch 7/9\n",
      "loss [32.0]\n",
      " Batch 8/9\n",
      "loss [33.0]\n",
      " Batch 9/9\n",
      "loss [29.0]\n",
      "\n",
      "[Epoch 46/50] >>>>>>>>>>>>\n",
      " Batch 0/9\n",
      "loss [37.0]\n",
      " Batch 1/9\n",
      "loss [28.0]\n",
      " Batch 2/9\n",
      "loss [33.0]\n",
      " Batch 3/9\n",
      "loss [33.0]\n",
      " Batch 4/9\n",
      "loss [36.0]\n",
      " Batch 5/9\n",
      "loss [33.0]\n",
      " Batch 6/9\n",
      "loss [30.0]\n",
      " Batch 7/9\n",
      "loss [31.0]\n",
      " Batch 8/9\n",
      "loss [29.0]\n",
      " Batch 9/9\n",
      "loss [28.0]\n",
      "\n",
      "[Epoch 47/50] >>>>>>>>>>>>\n",
      " Batch 0/9\n",
      "loss [35.0]\n",
      " Batch 1/9\n",
      "loss [30.0]\n",
      " Batch 2/9\n",
      "loss [36.0]\n",
      " Batch 3/9\n",
      "loss [30.0]\n",
      " Batch 4/9\n",
      "loss [30.0]\n",
      " Batch 5/9\n",
      "loss [33.0]\n",
      " Batch 6/9\n",
      "loss [33.0]\n",
      " Batch 7/9\n",
      "loss [31.0]\n",
      " Batch 8/9\n",
      "loss [35.0]\n",
      " Batch 9/9\n",
      "loss [32.0]\n",
      "\n",
      "[Epoch 48/50] >>>>>>>>>>>>\n",
      " Batch 0/9\n",
      "loss [30.0]\n",
      " Batch 1/9\n",
      "loss [37.0]\n",
      " Batch 2/9\n",
      "loss [33.0]\n",
      " Batch 3/9\n",
      "loss [32.0]\n",
      " Batch 4/9\n",
      "loss [31.0]\n",
      " Batch 5/9\n",
      "loss [29.0]\n",
      " Batch 6/9\n",
      "loss [28.0]\n",
      " Batch 7/9\n",
      "loss [37.0]\n",
      " Batch 8/9\n",
      "loss [38.0]\n",
      " Batch 9/9\n",
      "loss [29.0]\n",
      "\n",
      "[Epoch 49/50] >>>>>>>>>>>>\n",
      " Batch 0/9\n",
      "loss [36.0]\n",
      " Batch 1/9\n",
      "loss [34.0]\n",
      " Batch 2/9\n",
      "loss [29.0]\n",
      " Batch 3/9\n",
      "loss [27.0]\n",
      " Batch 4/9\n",
      "loss [30.0]\n",
      " Batch 5/9\n",
      "loss [36.0]\n",
      " Batch 6/9\n",
      "loss [42.0]\n",
      " Batch 7/9\n",
      "loss [32.0]\n",
      " Batch 8/9\n",
      "loss [32.0]\n",
      " Batch 9/9\n",
      "loss [30.0]\n"
     ]
    }
   ],
   "source": [
    "m = 1000\n",
    "useDataGenerator = False\n",
    "useDataGenerator = True\n",
    "\n",
    "print('batch_size =', batch_size)\n",
    "if useDataGenerator:\n",
    "    datagen = models.ImageDataGenerator(x_train, batch_size, phase_mod, whitening)\n",
    "    history = collections.defaultdict(list)\n",
    "    n_batches = datagen.__len__()\n",
    "    for e in range(epochs):\n",
    "        print('\\n[Epoch %i/%i] >>>>>>>>>>>>' % (e, epochs))\n",
    "        for batch_i, (x_batch, y_batch) in enumerate(datagen.flow(x_train[:m], x_train[:m], batch_size)):\n",
    "            print(' Batch %i/%i' % (batch_i,n_batches))\n",
    "            x = x_batch\n",
    "#             x = datagen.shuffle_3rd_dim(x_batch)\n",
    "            h = vae.fit(x, verbose=0)\n",
    "            for k,v in h.history.items(): \n",
    "                print(k,[round(v_,) for v_ in v])\n",
    "                history[k].append(v)\n",
    "            if batch_i >= n_batches:\n",
    "                break\n",
    "else:\n",
    "    h = vae.fit(x_train[:m], epochs=epochs, validation_data=(x_test, None))\n",
    "    history = h.history"
   ]
  },
  {
   "cell_type": "code",
   "execution_count": 26,
   "metadata": {},
   "outputs": [
    {
     "data": {
      "text/plain": [
       "[<matplotlib.lines.Line2D at 0x11766c208>]"
      ]
     },
     "execution_count": 26,
     "metadata": {},
     "output_type": "execute_result"
    },
    {
     "data": {
      "image/png": "iVBORw0KGgoAAAANSUhEUgAAAXoAAAD8CAYAAAB5Pm/hAAAABHNCSVQICAgIfAhkiAAAAAlwSFlzAAALEgAACxIB0t1+/AAAADl0RVh0U29mdHdhcmUAbWF0cGxvdGxpYiB2ZXJzaW9uIDIuMS4yLCBodHRwOi8vbWF0cGxvdGxpYi5vcmcvNQv5yAAAIABJREFUeJzt3Xl8FPX9P/DXO/dJDhJCIEA4AihyiAE5VUSUw4r9VutZj6qotbWtthbU/upZrfVobT3qXauiFKFVwYNThMoRznATIEBCTkLuO/v5/bEzszO7OySQhITh9Xw88sju7OzmM5vd13zm/fnMriilQEREzhXQ0Q0gIqL2xaAnInI4Bj0RkcMx6ImIHI5BT0TkcAx6IiKHY9ATETkcg56IyOEY9EREDhfU0Q0AgISEBJWamtrRzSAiOqNs3LixWCmV2Nx6nSLoU1NTkZGR0dHNICI6o4jIoZasx9INEZHDMeiJiByOQU9E5HAMeiIih2PQExE5HIOeiMjhGPRERA7nmKBfk1WMg8VVHd0MIqJOp1OcMNUWbnprHQAg+9kZHdwSIqLOxTE9eiIi8o9BT0TkcAx6IiKHY9ATETkcg56IyOEY9EREDsegJyJyOAY9EZHDMeiJiByOQU9E5HAMeiIih2PQExE5HIOeiMjhGPRERA7HoCcicjgGPRGRwzHoiYgcjkFPRORwDHoiIodj0BMRORyDnojI4Rj0REQOx6AnInI4Bj0RkcMx6ImIHI5BT0TkcAx6IiKHc0TQK6U6uglERJ1Ws0EvIr1EZIWI7BSRHSLyS215vIgsEZF92u84bbmIyMsikiUi20RkZHtvBHOeiMheS3r0jQAeVEqdC2AMgPtE5FwAswEsU0qlAVimXQeAaQDStJ9ZAF5r81Z7Yc4TEdlrNuiVUnlKqU3a5QoAuwD0BDATwD+11f4J4Grt8kwA7yu3tQBiRSS5zVtubWN7PjwR0RntpGr0IpIK4HwA6wAkKaXytJvyASRpl3sCOGK6W462zPuxZolIhohkFBUVnWSzrRjzRET2Whz0IhIF4FMAv1JKlZtvU+4u9UnlrVLqDaVUulIqPTEx8WTu6uexWnV3IiJHa1HQi0gw3CH/oVJqgba4QC/JaL8LteW5AHqZ7p6iLWs3in16IiJbLZl1IwDeBrBLKfWi6abPANyqXb4VwH9Ny2/RZt+MAVBmKvG0C/boiYjsBbVgnfEAfgIgU0S2aMseBvAsgHkicgeAQwB+rN22GMB0AFkAqgHc3qYtJiKik9Js0CulVgMQm5sn+1lfAbivle06KezRExHZc8aZsazRExHZckbQM+eJiGw5I+g7ugFERJ2YM4KeXXoiIlvOCPqObgARUSfmjKBn0hMR2XJE0LNLT0RkzxFBz+mVRET2nBH0zHkiIlvOCPqObgARUSfmjKBnl56IyJYzgr6jG0BE1Ik5I+iZ9EREtpwR9OzTExHZckTQM+eJiOw5IuiZ80RE9pwR9Ex6IiJbzgh69umJiGw5I+iZ80REtpwR9B3dACKiTswZQc8uPRGRLYcEfUe3gIio83JE0BMRkT1HBD179ERE9pwR9ByOJSKy5YygZ84TEdlyRtB3dAOIiDoxZwQ9u/RERLacEfQd3QAiok7MGUHPpCcisuWIoGefnojIniOCnj16IiJ7zgj6jm4AEVEn5oygZ9ITEdlyRtCzT09EZMsZQc+cJyKyxaAnInI4ZwQ9SzdERLaaDXoReUdECkVku2nZYyKSKyJbtJ/pptvmiEiWiOwRkSvaq+Fm7NETEdlrSY/+PQBT/Sx/SSk1QvtZDAAici6A6wEM0e7zqogEtlVjiYjo5DUb9EqpVQBKWvh4MwF8rJSqU0odBJAFYHQr2tci7NETEdlrTY3+5yKyTSvtxGnLegI4YlonR1vWrlijJyKyd6pB/xqA/gBGAMgD8MLJPoCIzBKRDBHJKCoqOsVmuLFHT0Rk75SCXilVoJRqUkq5ALwJT3kmF0Av06op2jJ/j/GGUipdKZWemJh4Ks3wPFar7k1E5GynFPQikmy6+kMA+oyczwBcLyKhItIXQBqA9a1rYvP4xSNERPaCmltBROYCuARAgojkAPgDgEtEZATcnelsAHcDgFJqh4jMA7ATQCOA+5RSTe3TdA/GPBGRvWaDXil1g5/Fb59g/acBPN2aRp0sduiJiOw54sxY9umJiOw5IujZoycisueMoO/oBhARdWLOCHomPRGRLYcEPZOeiMiOM4K+oxtARNSJOSPomfRERLacEfTs0xMR2XJE0DPniYjsOSLomfNERPacEfRMeiIiW84IevbpiYhsOSPomfNERLacEfQd3QAiok7MGUHPLj0RkS1nBH1HN4CIqBNzRNAz6YmI7Dki6DnrhojInjOCnjlPRGTLcUHPgVkiIitnBL35MnOeiMjCGUFvSnfmPBGRlTOC3nyZXXoiIgtnBL25Rt9xzSAi6pQcEfTmeGeHnojIyhFBb+3RM+mJiMycEfTmy8x5IiILZwQ9w52IyJYzgp41eiIiW84IeoY7EZEtZwS95TJTn4jIzBlBr1i6ISKy44igN2POExFZOSLo+emVRET2nBH04IeaERHZcUbQK/+XiYjIgUHPLj0RkZUzgt5ymUlPRGTmjKDn9EoiIlvNBr2IvCMihSKy3bQsXkSWiMg+7XectlxE5GURyRKRbSIysj0br2PlhojIXkt69O8BmOq1bDaAZUqpNADLtOsAMA1AmvYzC8BrbdPMZnB6JRGRrWaDXim1CkCJ1+KZAP6pXf4ngKtNy99XbmsBxIpIcls11raNnF5JRGTrVGv0SUqpPO1yPoAk7XJPAEdM6+Voy3yIyCwRyRCRjKKiolNshhunVxIR2Wv1YKxy10pOOl6VUm8opdKVUumJiYmta4PlMpOeiMjsVIO+QC/JaL8LteW5AHqZ1kvRlrUrzqMnIrJ3qkH/GYBbtcu3Avivafkt2uybMQDKTCWedsMaPRGRvaDmVhCRuQAuAZAgIjkA/gDgWQDzROQOAIcA/FhbfTGA6QCyAFQDuL0d2uyDNXoiInvNBr1S6gabmyb7WVcBuK+1jTpZrNETEdlzxJmx4JmxRES2HBH0HIslIrLnjKDnmbFERLYcEvQs3RAR2XFG0Hd0A4iIOjFnBD2nVxIR2XJG0FsuM+mJiMycEfSs0RMR2XJE0Jsx54mIrM7ooN+TX4EH5m1BXaPLWMbplUREVs1+BEJnVlxZhwWbcpEcE2YsY8wTEVmd0T368QMScGHfeOSV1RrL2KEnIrI6o4MeAP5vpN8vsCIiIs0ZH/QT0ry/nYpdeiIiszM+6GPDgy3XWbohIrI644M+IiTQcp05T0RkdcYHvYhYrrNHT0RkdcYHvTd+BAIRkZXzgp45T0RkwaAnInI45wU9SzdERBbOC3rmPBGRheOCnoiIrBwX9OzRExFZOSLoQ4I8m8EaPRGRlSOCfvH9EzAxLQEAe/RERN4cEfQDukXj9vGpAPgRCERE3hwR9AAgcH8Uws6j5R3cEiKizsUxQR8V5v6yrIcXZuJgcVUHt4aIqPNwTNCn94nDazeNBAB8vSO/g1tDRNR5OCboRQRTz+uOkMAAHK+u7+jmEBF1Go4JesAd9rERwSirbujophARdRqOCnoAiI0IRimDnojI4LygDw9BaQ1LN0REOscFfQx79EREFo4L+jgGPRGRheOCPjYiBPnltfj78n2oqW/yu87eggqUVLG8Q0RnBwcGfTAA4Plv9uK/W3L9rnP5S6sw/a/fnc5mERF1mFYFvYhki0imiGwRkQxtWbyILBGRfdrvuLZpastMOSfJuFxd34RnFu/Cm6sOGMuU9qln+eW1p7NZREQdpi169JOUUiOUUuna9dkAliml0gAs066fNmlJ0Xh4+mAAwM68cry9+iC+3J5n3F7T4L+cQ0TkVO1RupkJ4J/a5X8CuLod/sYJzbqoP/olRmL+xhw0uhQKyuuM2ypqGy3rvrvmIFbsLjzdTSQiOm1aG/QKwDcislFEZmnLkpRSehc6H0CS/7u2r56x4cblwopao2RTUWudkfP45ztx+3sbTmvbiIhOp9YG/QSl1EgA0wDcJyIXmW9U7nT1+xHxIjJLRDJEJKOoqKiVzfB1Xs8YAEBidCgamhSOa1Muy009enUK31Lyj2/3Y/an2076fg1NLqTOXoTXv91/0vftDD5cdwgFHNcgOiO1KuiVUrna70IACwGMBlAgIskAoP32WxdRSr2hlEpXSqUnJia2phl+/fbyQVj6wMV4dMY5AGCElLl0U17T6Pe+J/LMl7vx8YYjJ30//e++uiLrpO/b0QrKa/HIwu2Y9X5GRzeFiE7BKQe9iESKSLR+GcDlALYD+AzArdpqtwL4b2sbeSoCAgQDukUhJc5dwtFn2ZTXeEo3OaXVxuVT6d2fjEot6AMDpF3/Tnuob3QBAAor6ppZs+Nszy3D/qLKjm4GUafUmh59EoDVIrIVwHoAi5RSXwF4FsAUEdkH4DLteofpnxgFAJi34QhKq+stPfqsQk8w7C2oxHtrDvoN/G/3FuGr7dbPuL/jvQ0n9QUn5drYQGDAmXfqgj5TyeX13Pxncy7u/WBjRzTJx5V/W43JL3zb0c0g6pROOXWUUgeUUsO1nyFKqae15ceUUpOVUmlKqcuUUiVt19yTFxsRgpCgAHy5PR/3f7zFMhibmVNmXL73w4147POd2Gpaprv1nfW4xyvQlu0uxJ+/3t3idug7mKBT7NHnl9UidfYi/C+r+JTu7231vmLMa2EJqrpeD3rr8l99sgVfbs9v96OhzuZYZR1eXLIXTd5PSCf1zY58HG/DM8HrGpvw74wjZ93//Ux25nUvT0F6H/c5W6v2FmHBplyIAKFBAdhmCvUjJe4yztoDx2wf59Axaw8+v6zlg5MVRo/+1IJ+46HjAID3vz9kLFNKIfsUvzbx5rfX4aEWDipX1zUaf88ffYC7qKLO9mMnTtY3O/KROntRp/mois+2HjX+37/7NBMvL9uHDdkt68P8O+OI7Vna7aWwohZLdhbgWGUdZv1rI+77aFObPfbLy/bht/O34esdBW32mO2prKYBCzbldHQzOtRZEfR/u+F8zJnmPolqT0EFUrtGom9CJLbllhrrNDS5Q0wPVH8u/vNKy/XiypaHUEUra/T63czlk4Wbc3HJ8yvxv/2+vfwml8Lt767Hh+sOobiydbV1ux69Tg/jUU8vxfVvfH/Sj790ZwF25Vm/1P2DdYcBAJsP2/8/dA1NLuOy3c5IKYUDLajh19Q3+ZTkauqbcP/czbj57XUAgLyyGgCeo7NdeeXGMn9+O38bfvnxlmb/dlu67Z0NuOv9DOM1euhYdTP3aLlj2mPq3+SmlMLTi3Zid375ie7WYR6avxUPzNuKPfkVHd0Uw6JteVi1t+1nG9o5K4K+a1Qo7r64P+6fnAYASIkLR//EKNQ2uHzWXbKzAA/N34qymuY/AbOoog5KKUvQ+DPyySV48N9bAZy4dDMv4wh+/Pr3ePbL3fiJFiovL9uHKS9+a3wPrjlsN2S7QzCrsBIfrTuMb00vnNVZxVixpwiPLNyO9KeWGstLq+vx3T7PeluPeHZ2D87bisc/3+HTrmqtRm8XoiVVdcZt/kpfusLyWjT6ea7ufD8D07w+e6hbdCgAWE52s2MeYK+2OaJYubcIl77wLWb+fTUOnyD07vlgIyY9vxIu0xNdogWavgOo1I5wquub8P3+Y5j21+/w0/dO/4yksuoG3PTWWuSW+u5k9CNU/Si0LYeG9M5Ko/YcHauqx5vfHcRt77TsfJSa+iZsz7V/nbQ1/fmpbeas+KOlNdhx9PS064Vv9uDN7w40v2IbOSuCXjcoKRqAu7fbLzHSdr15GTkY/+xyFFfWnbAOWdPQhDdWHUDaI19iy5FSrNhdiE835uDj9e7eqFIKr6zIspQfAmyCvqy6AQ/N34b12SV4/dv9+G6fu5f+4pK92FdYif9sOQrA2qPXw0gAPLwwE7e+s964ze4L0h/5z3b85G3PejNfWYOj2hvh0005eHdNts999NKNd49e32kVV9Yb4WfH5VIY/cdluOT5lZbn1O6NFR8ZAgDI1WZGuVzKEr5m5p3yMZujLH0bt+aU4YUlewC4w9D7za/vLCtM26PXt/WavH50VlXXiJzj7vZ5H5G0h6KKOstz8J8tuViTdczvlN2wkEAAnp1TUDNJX9vQhLe+O+B3R+xN/783aetW17mfw7rG5st2ZTUNmL1gG6782+oWjxs0uRQWbMpp9ZhIo8uzbVmFFcbjHa+qx8o9hRj37HLMeHl1q/5GSyilkFdWazmnp72dVUE/sk8sAOAnY/r4DfrRfeONy5V1jViTVYxLm5nJ8bfl7jfZT95ah9vf24AH/70VsxdkAnC/yf789R7L+nrv/3/7izH1L6vw1fY8/Omr3diR5xt4/nogy3cXGm9evUd13PT5+3qP3LtMoYerv+/T3Xm0HMdM5Z3MnDKMfnop3l59ED99bwMOa71Dl1LYeqQUn21173RCg9wvn5Kq+ma/A0A/zM85XoPv9x9DXWMTXlmRZfvG0qd06tt69atrMP1l/584agn6Kv9HAOZzJmLCg9HY5MLE51bg/rmbjeXmnn55TQM2HjqO+z7a5HOimD7eUlHX2OyRnzn8lFKoa2xqtmfpT0VtAyY+txwLNucaj1VV796m0KBAn/XDgt3/G/35a65k+MqKLDy1aBf+q3UoTkSfOaa//vQZZc3l8JKdBRj++DfG39BfV835aP1hPDBvK+ZqHahTLUVWajuknUfLcdmLq4we9T0fbMRt756+s+PLaxtR09CEihZUDdrKWRX0yTHhyH52BqYNTUa/hChj+V+uG4FfTk7DFUO6AwAuPzcJUaFBePO7A7ZTKK8e0QOA5zC+wqtHe6SkGou25fncTy8t3PvBJuzOr8A9H2zCayv3Y+dRd4/Q/H4stClbTHp+JXKOV6NEC7XCCk8QvbsmG6XV9T7t3ltQifs+3IR6bUcTHRZk3PbrT7Zgqql08tzXu1FYUYcnv9iJ5bsL8epK99m8SgGvrszC7+ZvQ2OTC2HB7oApqaq3vGn9HQUVmd6cN761DqOeWuqzEzQHYJX2fOaX1cLlUtiWU4bd+RVQSqGgvNYyCG0OW7vB2yLtHIDAAEFFbaNxhvKSXZ4BxV994gn9spoGvLnqABZty8NrKz1nMze5lDGeU1XXaCkb+SvhmXeAtQ0uTP/rdxj55BKf9bbllPp9vejyympR2+AySh7v/S8bz33lfv5CgnzfxmFB3j36Ewe9viN+7uvdxlHK/I05SJ29yAhyXXCg+7H015J+hOM9/dbbsl3WwdtDJwj6Q8eqjP9rsfa/KyivxYbsEqQ/tRRfbbd/rrx3vnqz9HNZNmrjPru1o7D9Rdb3SlvPptpfVGkpVemD+uzRnwZpSVHolxCJ2dMG4+rze+LXUwYiKtT95ogICUR6ahy25/oejo/t1xXZz87AY1cNsYSlt4nPrcALS/b6LC+qqENmTpnPi3HtgWOIiwjG0JRYY9m6g/YzgCb8aQVW7HGXGbwH2q74yyqf2vbHGw5jUWYe1h8swfBesZh71xjjtoq6RiMIAfueVn2jC9nF1ahpaMKeggrjjb32wDHc9NY6Yz1/Zxyv3mcdMPb3Ij9aWoMVewpxwxtrsVc7x+FYVT0OmmY7ZRVW4kKtBKSz9uh9g37T4eN4Z81B9OkagUFJ0fhqez6e/8b9vwkOdL8FKmobLOMLZTUNiAx1/38zTAP05pOyKmutPXo99PPLavGudk6GOei35ZRif1EVquubfHaGV/19je3MmOW7C3D5S6sAAAe04P7UNIskJCgA98/djJ996JkCHK6VbrKP+fboJ7+wEte89j/L3xC4by8or8PPPtyEooo6/EYbV7Ib09BnWOlHOEq5d/KpsxdZdo66ukbrjvCQV2ektqEJS3e6dwYX/3klfqS10SgVuRS+3+9+T9zzwSa/A/Vbj5Ti/Ce+8VtK0zsPO7TQjdLev6FeO0pzx2nF7kKs3HNyH3pYWF5rdFoOHavC5Be+xS2msqpx8mYte/TtLiIkCMt/cwnuubi/sUzE/YKKCQ/GhX27+tynX0Ik/nXHaADu+fmPTD/nlP72D/7uLld0Me0oNmQfR//EKCRGhRjLfjvf//TH60f1slw/4NUj8TeAaR50TYwKMWrg/tgGfZML+wrdMxc2Hy5FlfZG/84rxAsqanHDG2sx4U/L8cmGw/h6Rz6eWrTL9u/pZi/IxO3vbsD3B44Z7S2uqMO2HE/bp2iBB7jLIi6XsoSKd41+Q3YJ/u9Vd2DkldYiLjLY8lHVIVrQb8gusfTkymoa/H62j3n6bWV9I0pNQa9f/u38rXj8853YV1hp9JQB4Lo31hqXc457BlDNf9dfnds8bqIfyUSFel47TS4XPtt6FIszPeMyerDrrwVzJ3V/UZWx8yqsqPXZzpKqelz7umdH4D2NWA9s42i21jP9Vj+y/dNXvueYeE+9zfbagdz7wUbc+X6GMW6jn9DYoDW+rKbBcsT2w1etOyvA/dHkLgXL1Fd9n6q3TX9cvXMTGmyNwbHPLDfKQ7e/twG3vbsBTS7lM7ttcWYeRjzxjeVIVCn3WNRPtQ9KzNR2KiVV9bjznxtQ3+hCvjZDq77RdUplvFNh3yU9C101vAd2Hi3Hry5L83kRAkB6ahyCAj0vioHdo/0+TrfoUJ+PC7hiSBKaXApLd3l6BxPTErEo030IWlbTgB6x4S06oerxmUPwxbY8VNY1IiIk0DLrYmTvWGw67A7GnrHhxm36MsDdA4yLcAf98JQYn5ky5s6m+TEAT2BsyC4x6uje7vlgo7Hz+d2nmbhoYPOfZXTlsGQszsxDj5gwVNQ1egY865uQmeN/oHPQo18Zl28fn4q56w8b5Szdta97pnvWN7kQG27dwellj7UHrHPiy2oa/E6Z/HZPEaJDg6AA/OPbAzgnuYtxm95718tzucdr/B5hAO5ZUVcN74HGJoUP1nnOjSgsr0Ov+AjLuuagzTlejfpGlyXoX1nh2dGVVNWjscmF/YXWMZrqev/nQox+eplP28w7IQA+z4O+M6qqa8SuvHJjRpkCUHKCKcfmnrL5ulIKaw+UGEeo5tcq4J4pBgAfalNuT0QvO23PLcMt76xHYXktdmvTKrccKcUX244aO+SCcveJb94dJcA9TjVpcDfj+isrsvDikr346M4LMW5AAjJzyvCzD91HYEdLa9AvMQrf7z9mlLP+px15mI/olu4qxOqsIuSXWT82XS+BtqeztkfvT1hwIB67aghiI0Iwolcs3r19FKYPddft75jQF0/MPM+y/sAk/0H/+FVDjMuPzjgH2c/OwD9+km55A0eHBqF/tyjL/ZJjwoxSwk/G9EG09ma+eUxvY53Xbx6J0KBAYyDu3dtGWR5jUHdP8Pz5mmHwt9+oqG1EeEgg1s6ZjPn3jsNzPxrm/wkBkJoQ4bMsNiLYGFAblhLjc7v3G6cl84WfnHketj9+Bb773aW4cliy5bZ31hxEvwT7WVKA+5vFukaGGsH6zuqDGPW0Z1rpzWN649N7xxpfNamrqG3AkZJqrN5XjMgQzxvu2z1F2F9UhXH93Ud2+vO4+Ugp+iREGL3ZXXnlxv/pg7WHsPHQcWMnuunwcTyz2P+RzJwFmRjyh68x/IlvLGMVeh17f1Elxj+7HA8vzLR0GlzKfcTlbwBWb8/oPy5DeW2jpbRYVdeIzYePG+cnAC3/fKej2o6mtqEJcxZsww5tPKmkqh7Pm9ruUsrvYG5BeS2W7izA3gLrzie/rBZD//A1bnxzHW5403O0412SOX6Cgf5v9xbhyS92AgDWZBUbO73tueVYtbfICHkA+HzrUfz8o83GxIMtR0rx8rJ9fh/X+8RJ/TWsb7t+VA54PgPqhjfXWma+KaV8SrRLdhYgv9yz4zxd5RsG/QlMGtQNT848D3dM6IvfTR3ss+eNCg3Cx7PGYLhX2IUGB2Dz76dg95NTcefEfsby31w+CLePTwUAjB+QgIQoa+8yOSYMwUHuRBnQLcroLQ5KikZ0WBD6JkRi6nnuELziXPcOaHivWJ/H0I0bkIADz8xAr3j3B7ulaTsWvZbcXduxdAn3BIJ3Sad3vDtgzdt41fAexuVrL0jBnGmDjQ+P0z8tNChAjJ1QSGAA/nXHaLxy40jY6RIejIiQIAQGCPr6CfWgQM8eq19CJFK7WndAfRIiER8ZggWbcrE9twxPfLHTODT/9z1j8dTVQ3FBn3ifoG9oUpj43ArszCvHQ1MH4y/XjQAAfKVNTx3bryt2PzkVC382HoA73FJirX+7t9aWhZtzjboy4J6RdayqHq/fPBK3ju3jd6fr7bHPd2JXXjk+3ZiD3NIaLM7M8wmLbTmltoPO6w96jkyuHNYD6x+ZjMvPTUJZTQN+9ckW/P4/243bvUtu3iYNSkTXyBBjaurqfcWYu/6IcUb50l2FWGb60p7aBhdeWuoZl6qub8S+ggo8MG8L7nw/wzIF97JzumFfYSUq6hrxvVeoLtjkOYu4scll9Oj9ufWd9Xh79UF8tO6wZZxob4H9yVEn2nHo/rHqAH746hrj+hatlLjlSKnPukt3FuC32lGNWc7xGp//3f6iKuSZjtDySk/PR3+zdNOMrlGh+P2V59rePqZfVwzVyh/hwYGoaWhCt+gwxPmpgUeGBmH2tMEIDw7EnRP7YbXX59Z0jwnH4RL3m6qhyYU+XSOwPrsELgVs/v0Uy7ovXTcCs8trLTufGUOTMeuifugVH46oUE+g6YOjd13UD/M35hhnCeuiwzzrJseEWUJED/C+CZHYmlOGhKhQ/PqygVicmY/iyjocLavF76YOxt2msY47JvRFfZMLVdp0th8M74GJae7yzW/nBxqljcvOScLz1w5DbIT/nYvZreNS8chCd0g9efV5GNe/K/rOWexpd5cw4yjnyr9Zp2yO7O352uLkmHAEBgiWPnAxnl60E0t3FeKSQYm4clgP/GhkT4gInvhiJ0qq6hEeHIgbLuyNsOBAdDXtlPXnRDcoKdro6QGeGSyhQQEYPyABVwzpjqnnJePHo3rhF3M3Izo0yKfSKKHVAAAN6klEQVRctvBn44ya8y/mbjbqyP6mrT4wzzdUdG+Yvh85KEDQLToMQ3rE4JudBT6D9uYBQn8u7NcVEaFBWLG7EEdKqvGoaSfREi9+sxdvrT5oWXbFkCQUV9ZjcPculjKmneLKess4h52HF2Zarjc2M3Pml5PTMF/bmdrZbCohNboUJgxI8Bv03tuoe+7rPYjw6hzmHq9BdFgQYiOCUVrdgJvfXocDf5xue35NW2GPvg0kRbt70TeP6Y0vfjHB+NITf0KDAvHQ1MGIjwwxBgJ1KXHhuOxcd11wVGq8Ma8/LDgAQYEBlvGB8JBApHr1fB+98hyEBQfih+enYMq5ni/2Or+3u9d/xZDumHf3WJzf2/p97V1MQe99KKmPGcRGhGDdw5Ox7MGLERcZgs9/MR59EyLxo5EpPtsoIggNCkR8ZAjeuiUdj8zwDFpvfHQKJqYlAADG9Iv3CXkA6KP1kBOiQvHAlIHY/PspuOnCPsbtXaNCICKYd/dYXDksGRcNTERAgBg9T7PbxqVaZpxcc0EKFt8/EX0TIjFzRE8AwGM/GIJrLkgxBuP1o6KHpw9GQlSo0RZdSlw4lj5wsbHtv9DOuNYVlNdixrBk7HlqGt65bZTxuEN6xGD5g5fg/TsuxMjeniOxXvHhGNErFjOGJiMuItgIeXP9/6KBiXhwykDL3zH/jwH3UaB5oFmfDaPvpE72A/XqGlyYNbEfymsbce+HG43ZIi2ljz8B7jGY60f1wus3X4BP7x3nczSr8y7RbcspRXZxNW68sLflOfNn9rTB+H7OpVh0/4Rm29YzNhwj+8T5vW1YSoxPOTMhKhSTBndDbmkNZr6yxu/9zG4bl4ovth1FxiHr2E9+eS1yj9dgwoAEY9mB4vb/eG326NvAkJ7uN2TXqNAThry3HrHuQLlzQl+M6dcVQ3p0gYgg6+lpCAoMwLCUGHSNCsHFA7ud8HEmpiXgu33Flp652V+vOx85pdWICfd/u7mWGxcRgiMlnsDUB67iIkKQ1MVTFkqOCceK31zS7DZe5hVG4SGB+OXkNJyb3AW3jUv1e5/e2lhGSly48bEVZl0j3aE7um+85SS3t24ZhYxDJfjRyBSIWL9OUhcWHIhB2iD6D4b3wBVDuvvMQ79v0gD87MNNuKBPvOV+utSESAzoFoU/XzMMT8wcYkzD1OUcr8GkQfb/s5jwYAzv5Rk0V8q9c3zlppEorqzDHxftws8mDcCxyjpjps4vLh2AUanx6JsYidX7ivHxhiM+ZYHnrx2Oz7YchYLCu2uyjduvG9ULPWLDEBoUaClvAO6jr7e9eqR3TeyLxZn5+L+RPZESF44B3aKwPbccIsCrN47EvR96poE+MXMIfpzeC00uhUueX2mUy0RgKVH8dEJfy5FVV9OO0+yVm0YiODAAq/YW4Zkvd+HnczejvtGFH6f3spSdzK65IAXzN+ZgwoAEJMeEo3uXMMSEB6OspgFhwQH4eNZYVNQ2ICo0yDhqio0IRrBpxzcoKRpXDktGWlIURvftivjIEPx9RZYxAy0mPMjoMG3106v/4w+HYtLgRFz19zUoqqjD/ZPT8MmGI9hfVIXo0CBjxk+Tyz0z6ZzkLnhgykBc+sK32JB9HAO6+R/vaysM+jZw6eAkvHf7KIw37aVbYlhKLD69dyyGp8Raeuv6ZRHBpYOb/8rd126+AHvyyy0zMcxiIoIRE2G/A+pi2gG8dvMFyCqsNAaVbhuXih1Hyy0Dwq2VnhqP9NR429sjQ4Pw7u2jMKRHF8vygUlR2FtQibgI/zusCWkJmJB2cv8DfycbTR+ajMzHLrfdcY7VB2gDxAj5Hwzvgc+3HjXe1DXNTJu7sG9XY9qkeUw0ISoUL2rjBObxhK5aKfDKYT3QvUsYPt5wxFJi+37OpUiOcR8ZbDxUgnfXZBvli+DAAFw6OMn4eIPrR/UyviVtVGqcEfRv35qOwcld0DM2HI/M8JQrJw/uhqzCSsRHhCBJO9oJChCsfXgy4iNCjLLD97MvxSMLt2PJrgIM6BaF9QdLcPdF/TD5nCRLyOvbCQD3TeqPgUnRxoe+xUYEIznGvXNZvrsQq7OKMTwlBiN6xdp+ptRzPxqGOyb0NY6ARATn9eyCNVnH8J/7xmOwaYKCvgOICQ+2jPsEBIjPkVlqQqQp6IMxtGcMfpyegnkZ7nMYbh7TG9OHJuOLbXmYdl53xEWGYPmDF6OgvA7xkSG48cLeeHv1QTT5GfQelBSNvgmR6BkbbpwQ1p4Y9G3kkhP04E7E3Gs8VVGhQa16HL1HHxkSiJ6x4egZG471D09Gk1JI6hKG9386utVtPFn+esQf3TUGewsqLDvF9uIv5O++uB9CAwP8znh5/tpheHDKQHSPCcOcBZm48cIT7xinntcdn8wag+veWGt7Rqm5XJQQ7bncp6u7vGE+kkiO8Ry9jOgVh7sv6oebx3jKXYC7A7Hj8SsQERKI+yYNwP6iSuNI5YI+cZh8jv9ORZo2u6y+0YUE7Wiq0aUs7dMf/0/XDMOfAHypnZzXLzHSctSlG9MvHv+9bzyGpcRARDxBb5r++sTMIZi9IBO/vsxdsqq3CfqAALGUuQDgvB4xWJN1zGdywZXDkvHhusOIDgvGvZcMwPLdRSiurPNbFnr+2mF4ZvFuLNyci+tH9UZwYACeu2Y4BiZF46lFuzB9aDLG9U/AuP6ezkV0WLDx2rlrYj+8vfogesVFIDI0EPdc3B+z/uU+qW1wcjREBKsemnRavnWOQU8IDgzAozPOMQZMAaCbqUzTWSREhfqEy+k0Z5r9CXKhQZ4xk5e0Hnlz0lPjcdXwHvjphL6269wwuhfmrj9iTOEE3F94/9yPhmFCWgKq6xt9prMGBgjm2JzMp+8cesVHoFd8BDZqNWS7o0HAXfsH3CccJUTbn2hnNm1oMj77+XgM6eH/SFJEfGaMAZ7P6AGAfolRmHf3WOP6C9cOx1+X7cOo1His3FOI300dbExH9nbjhb0RHRaERK/Xy2NXDcGUc5Nwrna0mPHoZdidX+53ple36DC8dN0I/PGHQ40zjQHg5jF9EBEShNEnOCoF3LPa5t41Bilx4T7nRuhlxdP11aLSGb4lJj09XWVk8Iuniby5XAoNLpftvPnWanIpvLhkD24Zm2oZgzGrqG3A0Me+QVRoELY/fgVSZy8CAGQ/O6PN2rFsVwHWHjhmKRk50Y6jZcgvq7U9ejpZIrJRKZXe7HoMeiJqzpurDmBs/644r2cMFmfmIa1blFHSoY7T0qBn6YaImnXXRZ4T/6YPTT7BmtQZcR49EZHDMeiJiByOQU9E5HAMeiIih2PQExE5HIOeiMjhGPRERA7HoCcicrhOcWasiBQBONTsiv4lADjxV+U4D7f57MBtPju0Zpv7KKWa/VLmThH0rSEiGS05BdhJuM1nB27z2eF0bDNLN0REDsegJyJyOCcE/Rsd3YAOwG0+O3Cbzw7tvs1nfI2eiIhOzAk9eiIiOoEzOuhFZKqI7BGRLBGZ3dHtaSsi8o6IFIrIdtOyeBFZIiL7tN9x2nIRkZe152CbiIzsuJafOhHpJSIrRGSniOwQkV9qyx273SISJiLrRWSrts2Pa8v7isg6bds+EZEQbXmodj1Luz21I9t/qkQkUEQ2i8gX2nVHby8AiEi2iGSKyBYRydCWnbbX9hkb9CISCOAVANMAnAvgBhFxyveQvQdgqtey2QCWKaXSACzTrgPu7U/TfmYBeO00tbGtNQJ4UCl1LoAxAO7T/p9O3u46AJcqpYYDGAFgqoiMAfAnAC8ppQYAOA7gDm39OwAc15a/pK13JvolgF2m607fXt0kpdQI01TK0/faVkqdkT8AxgL42nR9DoA5Hd2uNty+VADbTdf3AEjWLicD2KNd/geAG/ytdyb/APgvgClny3YDiACwCcCFcJ88E6QtN17nAL4GMFa7HKStJx3d9pPczhQt1C4F8AUAcfL2mrY7G0CC17LT9to+Y3v0AHoCOGK6nqMtc6okpVSedjkfgP7two57HrRD9PMBrIPDt1srY2wBUAhgCYD9AEqVUo3aKubtMrZZu70MQNfT2+JW+wuAhwC4tOtd4ezt1SkA34jIRhGZpS07ba9tfmfsGUgppUTEkdOlRCQKwKcAfqWUKhcR4zYnbrdSqgnACBGJBbAQwOAOblK7EZErARQqpTaKyCUd3Z7TbIJSKldEugFYIiK7zTe292v7TO7R5wLoZbqeoi1zqgIRSQYA7Xehttwxz4OIBMMd8h8qpRZoix2/3QCglCoFsALu0kWsiOidMPN2Gdus3R4D4NhpbmprjAdwlYhkA/gY7vLNX+Hc7TUopXK134Vw79BH4zS+ts/koN8AIE0bsQ8BcD2Azzq4Te3pMwC3apdvhbuGrS+/RRupHwOgzHQ4eMYQd9f9bQC7lFIvmm5y7HaLSKLWk4eIhMM9JrEL7sC/RlvNe5v15+IaAMuVVsQ9Eyil5iilUpRSqXC/X5crpW6CQ7dXJyKRIhKtXwZwOYDtOJ2v7Y4epGjlAMd0AHvhrms+0tHtacPtmgsgD0AD3PW5O+CuTS4DsA/AUgDx2roC9+yj/QAyAaR3dPtPcZsnwF3H3AZgi/Yz3cnbDWAYgM3aNm8H8P+05f0ArAeQBeDfAEK15WHa9Szt9n4dvQ2t2PZLAHxxNmyvtn1btZ8deladztc2z4wlInK4M7l0Q0RELcCgJyJyOAY9EZHDMeiJiByOQU9E5HAMeiIih2PQExE5HIOeiMjh/j8HonZhNXLVAwAAAABJRU5ErkJggg==\n",
      "text/plain": [
       "<matplotlib.figure.Figure at 0x11766cdd8>"
      ]
     },
     "metadata": {},
     "output_type": "display_data"
    }
   ],
   "source": [
    "plt.plot(history['loss'])\n",
    "plt.plot(history['val_loss'])"
   ]
  },
  {
   "cell_type": "code",
   "execution_count": 27,
   "metadata": {},
   "outputs": [
    {
     "name": "stdout",
     "output_type": "stream",
     "text": [
      "m (40, 3)\n"
     ]
    },
    {
     "data": {
      "image/png": "iVBORw0KGgoAAAANSUhEUgAAAXcAAAA8CAYAAACdKPrlAAAABHNCSVQICAgIfAhkiAAAAAlwSFlzAAALEgAACxIB0t1+/AAAADl0RVh0U29mdHdhcmUAbWF0cGxvdGxpYiB2ZXJzaW9uIDIuMS4yLCBodHRwOi8vbWF0cGxvdGxpYi5vcmcvNQv5yAAAB0ZJREFUeJzt3W2IHVcdx/Hvz23SSLtY24ZamqS2EghVSkxisFiWoFRiEWIh2hSUvKt9AgUFY1/UWiio4BMUbKrGRlFjaH1YSqUGGrC+qdmNqUn6ZKyRJsSEtrQaUMvavy/mLExv7r0zmx12zp3+PnDZuTOzs797due/c8+dOaOIwMzMuuVtbQcwM7PmubibmXWQi7uZWQe5uJuZdZCLu5lZB7m4m5l1kIu7mVkHubibmXWQi7uZWQe5uJuZddA5dVaStBH4LjAG/CAivtaz/Fzgx8Ba4GXgxog4WrHNoeMerFixojLX+Pj40OVLliyp3EaV6enpocu7krMqI3QnZ1WGOnJozzqvY74562QclX2kSi6vo8bv9aWIWFq1kqrGlpE0BjwPXAccA/YBN0XE06V1bgOujohbJG0BboiIGyu2O/QHb9++vSo7ExMTQ5evWrWqchtVJA1d3pWcVRmhOzmrMtSRQ3vWeR3zzVkn46jsI1VyeR01fq/TEbGuaqU63TLrgSMR8UJEvA7sAjb1rLMJ2JmmHwI+oib2IDMzOyt1ivtlwIul58fSvL7rRMQM8BpwURMBzcxs7mr1uTdF0s3AzQv5M83M3orqHLkfB5aXni9L8/quI+kc4B0UH6y+SUQ8EBHr6vQXmZnZ2atT3PcBKyVdIWkxsAWY7FlnEtiapjcDj4fvAmJm1prKbpmImJF0B/AYxamQOyLisKR7gKmImAR+CPxE0hHgFYp/AGZm1pJafe4R8SjwaM+8u0rT/wE+2Wy0PIzKGxDnHK0MTcjldeSSY75yeR01Tk+vtR1foWpm1kEu7mZmHeTibmbWQS7uZmYd5OJuZtZBLu5mZh3k4m5m1kELOrZM2dq1a5mammrrx5uZdZqP3M3MOsjF3cysg1zczcw6yMXdzKyDKou7pOWS9kp6WtJhSZ/rs84GSa9JOpAed/XblpmZLYw6Z8vMAF+IiP2SxoFpSXvKN8hOnoiIjzcf0czM5qryyD0iTkTE/jT9L+AZzryHqpmZZWROfe6S3g28H3iyz+JrJD0l6beS3ttANjMzO0u1L2KSdD7wMPD5iPhnz+L9wOURcVrS9cCvgZV9tlG+QfZpSc+VFl8MvDSX8C1xzmY5Z7NGIecoZIR8c15eZyXVufuIpEXAI8BjEfGtGusfBdZFRO2GkTQ1CjfOds5mOWezRiHnKGSE0ck5SJ2zZURxj9RnBhV2Se9K6yFpfdruy00GNTOz+up0y3wI+AxwUNKBNO9OYAVARNwPbAZulTQD/BvYErnckNDM7C2osrhHxB+AoXdkjYj7gPvmmeWBeX7/QnHOZjlns0Yh5yhkhNHJ2VetPnczMxstHn7AzKyDsijukjZKek7SEUnb2s4ziKSjkg6mIRayGYxe0g5JpyQdKs27UNIeSX9JX9/ZZsaUqV/OuyUdLw1dcX3LGfsOt5Fbew7JmVt7LpH0x3QNzGFJX03zr5D0ZNrnfyFpcaY5H5T0t1J7rm4z55xERKsPYAz4K3AlsBh4Criq7VwDsh4FLm47R59cE8Aa4FBp3jeAbWl6G/D1THPeDXyx7WylPJcCa9L0OPA8cFVu7TkkZ27tKeD8NL2I4gLIDwK7KU68ALgfuDXTnA8Cm9tux7N55HDkvh44EhEvRMTrwC5gU8uZRkpE/B54pWf2JmBnmt4JfGJBQ/UxIGdWYvBwG1m155CcWYnC6fR0UXoE8GHgoTQ/h/YclHNk5VDcLwNeLD0/RoZ/pEkAv5M0na62zdklEXEiTf8DuKTNMBXukPTn1G3TevfRrJ7hNrJtzz7DgmTVnpLG0mnUp4A9FO/UX42ImbRKFvt8b86ImG3Pe1N7flvSuS1GnJMcivsouTYi1gAfA26XNNF2oDqieK+Z61HI94D3AKuBE8A3241TGDbcRk7t2Sdndu0ZEf+LiNXAMop36qtajtRXb05J7wO+TJH3A8CFwJdajDgnORT348Dy0vNlaV52IuJ4+noK+BXFH2quTkq6FCB9PdVynr4i4mTaqd4Avk8GbZqG23gY+GlE/DLNzq49++XMsT1nRcSrwF7gGuACSbPX2WS1z5dybkzdXxER/wV+REbtWSWH4r4PWJk+PV8MbAEmW850BknnpfHskXQe8FHg0PDvatUksDVNbwV+02KWgWYLZnIDLbfpkOE2smrPQTkzbM+lki5I028HrqP4fGAvxZXtkEd79sv5bOkfuig+F8h5n3+TLC5iSqdrfYfizJkdEXFvy5HOIOlKiqN1KK7s/VkuOSX9HNhAMYrdSeArFCNz7qYYJuLvwKciotUPMwfk3EDRhRAUZyN9ttS3veAkXQs8ARwE3kiz76Toz86mPYfkvIm82vNqig9MxygOJndHxD1pf9pF0dXxJ+DT6eg4t5yPA0spzqY5ANxS+uA1a1kUdzMza1YO3TJmZtYwF3czsw5ycTcz6yAXdzOzDnJxNzPrIBd3M7MOcnE3M+sgF3czsw76PzyYku1XiwRQAAAAAElFTkSuQmCC\n",
      "text/plain": [
       "<matplotlib.figure.Figure at 0x118f7b4e0>"
      ]
     },
     "metadata": {},
     "output_type": "display_data"
    },
    {
     "name": "stdout",
     "output_type": "stream",
     "text": [
      "m (40, 3)\n"
     ]
    },
    {
     "data": {
      "image/png": "iVBORw0KGgoAAAANSUhEUgAAAXcAAAA8CAYAAACdKPrlAAAABHNCSVQICAgIfAhkiAAAAAlwSFlzAAALEgAACxIB0t1+/AAAADl0RVh0U29mdHdhcmUAbWF0cGxvdGxpYiB2ZXJzaW9uIDIuMS4yLCBodHRwOi8vbWF0cGxvdGxpYi5vcmcvNQv5yAAACEFJREFUeJzt3WuMFWcdx/Hvz4VF0lLu14KFKompxCBiY2PTEE1JbU3QlAgSCS8M1cYmmmAQ+kJqkyZigmJSY1O1thoFSeuFmJhKUhLLm8pFEGitYt0GlltapEoxkpW/L2Y2Od2enWeAAzNn/H2Sk52dZ5j58eyZ/5kzZ+Y5igjMzKxZ3lF1ADMz6zwXdzOzBnJxNzNrIBd3M7MGcnE3M2sgF3czswZycTczayAXdzOzBnJxNzNrIBd3M7MGGlFmIUl3Ad8BeoAfRMQ3hrSPAn4MfBB4HVgWEX2JdRaOezB16tRkrhEjiuNPmDChsF1SchtnzpwpbO/t7U2uY2BgoLD9hhtuKGw/d+5cchv9/f2F7dOmTStsHzduXHIbqf/rxYsXk+s4efJkYXvqbzpq1KjkNs6fP39F2zh16lRyG6n+LGPs2LGF7amhQY4fP57cxujRowvbL1y4UNie2ocg/fzu6+tLrmPixImF7am/e6ovIb2/p/7uPT09yW2k9oHx48cn15Hazw4cOPBaRExOrSdZ3CX1AN8F7gSOAbslbY+IF1sW+xzwj4h4j6TlwEZgWWrdRVatWpVcJvXEW7asOELqiQ+wZcuWwvbp06cn13H27NnC9sWLFxe279q1K7mN9evXF7avWbOmsP3ee+9NbmPGjBmF7amiCrBx48bC9tSL+uzZs5Pb2L9/f2H7lClTCts3bdqU3MbatWsL28u80N1zzz2F7amiuWHDhuQ25s2bV9h+9OjRwvYVK1Ykt5EqiqtXr06uY+XKlYXtc+bMKWxP9SWki+bmzZsL28eMGZPcxptvvlnYnqpJALNmzSpsnzRp0qvJlVDutMytwJGIeCUiLgBbgSVDllkCPJVPPw18TGUOi83M7KooU9xvBFpf3o/l89ouExEDwBtA8fssMzO7akqdc+8USfcB913LbZqZ/T8qc+TeD7SeBJqZz2u7jKQRwFiyD1bfIiIej4iFEbHw8uKamVkZZYr7bmCupDmSeoHlwPYhy2wHBj8BXQo8F/4WEDOzyiRPy0TEgKQHgGfJLoV8IiIOS3oY2BMR24EfAj+RdAQ4Q/YCYGZmFVFVB9gLFy6MPXv2VLLtJkr9HX3xklWlTI3x87M8SXvLnNr2HapmZg3k4m5m1kAu7mZmDeTibmbWQC7uZmYN5OJuZtZALu5mZg10TceWsavH1wlbXfm5WQ0fuZuZNZCLu5lZA7m4m5k1kIu7mVkDJYu7pFmSdkp6UdJhSV9qs8wiSW9I2p8/vnZ14pqZWRllrpYZANZExD5JY4C9knYM+YJsgOcj4hOdj2hmZpcqeeQeESciYl8+/S/gJd7+HapmZlYjl3TOXdJs4APAC22ab5N0QNJvJb2vA9nMzOwylb6JSdL1wDPAlyPin0Oa9wE3RcQ5SXcDvwLmtllH6xdkn5P0ckvzJOC1SwlfEefsLOfsrG7I2Q0Zob45byqzUKlvYpI0EvgN8GxEfKvE8n3Awogo3TGS9nTDF2c7Z2c5Z2d1Q85uyAjdk3M4Za6WEdl3pL40XGGXNC1fDkm35ut9vZNBzcysvDKnZT4CrAQOStqfz3sQeBdARDwGLAXulzQA/BtYHlV9OauZmaWLe0TsAgpH/omIR4FHrzDL41f4768V5+ws5+ysbsjZDRmhe3K2Veqcu5mZdRcPP2Bm1kC1KO6S7pL0sqQjktZVnWc4kvokHcyHWNhTdZ5Bkp6QdFrSoZZ5EyTtkPTX/Of4KjPmmdrlfEhSf8vQFXdXnLHtcBt168+CnHXrz3dK+kN+D8xhSV/P58+R9EK+z/9cUm9Ncz4p6e8t/Tm/ypyXJCIqfQA9wN+Am4Fe4ABwS9W5hsnaB0yqOkebXHcAC4BDLfO+CazLp9cBG2ua8yHgK1Vna8kzHViQT48B/gLcUrf+LMhZt/4UcH0+PZLsBsgPA9vILrwAeAy4v6Y5nwSWVt2Pl/Oow5H7rcCRiHglIi4AW4ElFWfqKhHxe+DMkNlLgKfy6aeAT17TUG0Mk7NWYvjhNmrVnwU5ayUy5/JfR+aPAD4KPJ3Pr0N/Dpeza9WhuN8IHG35/Rg1fJLmAvidpL353bZ1NjUiTuTTJ4GpVYZJeEDSn/LTNpWfPho0ZLiN2vZnm2FBatWfknryy6hPAzvI3qmfjYiBfJFa7PNDc0bEYH8+kvfntyWNqjDiJalDce8mt0fEAuDjwBcl3VF1oDIie69Z16OQ7wHvBuYDJ4BN1cbJFA23Uaf+bJOzdv0ZEf+NiPnATLJ36u+tOFJbQ3NKmgesJ8v7IWAC8NUKI16SOhT3fmBWy+8z83m1ExH9+c/TwC/Jnqh1dUrSdID85+mK87QVEafyneoi8H1q0Kf5cBvPAD+NiF/ks2vXn+1y1rE/B0XEWWAncBswTtLgfTa12udbct6Vn/6KiPgP8CNq1J8pdSjuu4G5+afnvcByYHvFmd5G0nX5ePZIug5YDBwq/leV2g6syqdXAb+uMMuwBgtm7lNU3KcFw23Uqj+Hy1nD/pwsaVw+PRq4k+zzgZ1kd7ZDPfqzXc4/t7ygi+xzgTrv829Ri5uY8su1NpNdOfNERDxScaS3kXQz2dE6ZHf2/qwuOSVtARaRjWJ3CthANjLnNrJhIl4FPh0RlX6YOUzORWSnEILsaqTPt5zbvuYk3Q48DxwELuazHyQ7n12b/izI+Rnq1Z/vJ/vAtIfsYHJbRDyc709byU51/BH4bH50XLeczwGTya6m2Q98oeWD11qrRXE3M7POqsNpGTMz6zAXdzOzBnJxNzNrIBd3M7MGcnE3M2sgF3czswZycTczayAXdzOzBvofItOmOMcM3NIAAAAASUVORK5CYII=\n",
      "text/plain": [
       "<matplotlib.figure.Figure at 0x11890eeb8>"
      ]
     },
     "metadata": {},
     "output_type": "display_data"
    },
    {
     "name": "stdout",
     "output_type": "stream",
     "text": [
      "m (40, 3)\n"
     ]
    },
    {
     "data": {
      "image/png": "iVBORw0KGgoAAAANSUhEUgAAAXcAAAA8CAYAAACdKPrlAAAABHNCSVQICAgIfAhkiAAAAAlwSFlzAAALEgAACxIB0t1+/AAAADl0RVh0U29mdHdhcmUAbWF0cGxvdGxpYiB2ZXJzaW9uIDIuMS4yLCBodHRwOi8vbWF0cGxvdGxpYi5vcmcvNQv5yAAABxBJREFUeJzt3X+IHOUdx/H3p2diih611mDFJP4iEGyRNJ6hUjlCiyUVIRVCjdCS/6y2QgstNPqHVUFoC/0FQo1tU9PSGoP2x1EQGzCg/cfmNo1NotWmNsWEmKCibaBUrn77xzwH42V3Zy5ZM89MPi9Ybnb2ub0P32S/N/fs7DOKCMzMrFve13QAMzMbPTd3M7MOcnM3M+sgN3czsw5yczcz6yA3dzOzDnJzNzPrIDd3M7MOcnM3M+sgN3czsw46q84gSWuBHwJjwE8i4ltzHj8b+DlwNfA6cHNEHKx4zqHrHixbtqwy1/j4+NDHFy1aVPkcbdDr9SrHVNXrTKlVHXXqWeVU6w3dqXkO9exKLevo9XqvRcTiqnGqWltG0hjwEnA9cAjYBdwSEc+XxnwJuCoibpO0AbgpIm6ueN6hP3jz5s1V2ZmcnBz6+IoVKyqfow0kVY6pqteZUqs66tSzyqnWG7pT8xzq2ZVa1iGpFxETVePqTMusBg5ExMsR8TawDVg3Z8w6YGvafgz4lEbxL25mZielTnO/GHildP9Q2td3TETMAG8BHxpFQDMzm79ac+6jIulW4NbT+TPNzM5EdY7cDwNLS/eXpH19x0g6C/gAxRur7xIRD0XERJ35IjMzO3l1mvsuYLmkyyQtBDYAU3PGTAEb0/Z64KnwVUDMzBpTOS0TETOS7gCepDgVcktE7Jd0HzAdEVPAT4FfSDoAvEHxC8DMzBpSeSrke2ViYiKmp6cb+dlmZm01ylMhzcysZdzczcw6yM3dzKyD3NzNzDrIzd3MrIPc3M3MOsjN3cysg9zczcw6yM3dzKyD3NzNzDrIzd3MrIPc3M3MOqiyuUtaKmmnpOcl7Zf0lT5j1kh6S9KedLv7vYlrZmZ11LkS0wzwtYjYLWkc6EnaUb5AdvJMRNw4+ohmZjZflUfuEXEkInan7X8DL3DiNVTNzCwj85pzl3Qp8DHg2T4PXyvpOUlPSPrICLKZmdlJqn2BbEnnAo8DX42If815eDdwSUQcl3QD8FtgeZ/nKF8g+7ikF0sPXwC8Np/wDXHO0XLO0WpDzjZkhHxzXlJnUK0rMUlaAPweeDIivldj/EFgIiJqF0bSdBsunO2co+Wco9WGnG3ICO3JOUids2VEcY3UFwY1dkkfTuOQtDo97+ujDGpmZvXVmZb5BPAFYK+kPWnfXcAygIh4EFgP3C5pBvgPsCGaujirmZlVN/eI+COgijEPAA+cYpaHTvH7TxfnHC3nHK025GxDRmhPzr5qzbmbmVm7ePkBM7MOyqK5S1or6UVJByRtajrPIJIOStqblliYbjrPLElbJB2TtK+073xJOyT9LX39YJMZU6Z+Oe+RdLi0dMUNDWfsu9xGbvUckjO3ei6S9Kf0GZj9ku5N+y+T9Gx6zT8qaWGmOR+W9I9SPVc2mXNeIqLRGzAG/B24HFgIPAdc2XSuAVkPAhc0naNPrklgFbCvtO87wKa0vQn4dqY57wG+3nS2Up6LgFVpexx4Cbgyt3oOyZlbPQWcm7YXUHwA8uPAdooTLwAeBG7PNOfDwPqm63gytxyO3FcDByLi5Yh4G9gGrGs4U6tExNPAG3N2rwO2pu2twGdPa6g+BuTMSgxebiOreg7JmZUoHE93F6RbAJ8EHkv7c6jnoJytlUNzvxh4pXT/EBn+J00C+IOkXvq0bc4ujIgjaftV4MImw1S4Q9Jf0rRN49NHs+Yst5FtPfssC5JVPSWNpdOojwE7KP5SfzMiZtKQLF7zc3NGxGw970/1/L6ksxuMOC85NPc2uS4iVgGfAb4sabLpQHVE8bdmrkchPwKuAFYCR4DvNhunMGy5jZzq2SdndvWMiP9FxEpgCcVf6isajtTX3JySPgrcSZH3GuB84BsNRpyXHJr7YWBp6f6StC87EXE4fT0G/IbiP2qujkq6CCB9PdZwnr4i4mh6Ub0D/JgMapqW23gc+GVE/Drtzq6e/XLmWM9ZEfEmsBO4FjhP0uznbLJ6zZdyrk3TXxER/wV+Rkb1rJJDc98FLE/vni8ENgBTDWc6gaRz0nr2SDoH+DSwb/h3NWoK2Ji2NwK/azDLQLMNM7mJhms6ZLmNrOo5KGeG9Vws6by0/X7geor3B3ZSfLId8qhnv5x/Lf1CF8X7Ajm/5t8liw8xpdO1fkBx5syWiLi/4UgnkHQ5xdE6FJ/s/VUuOSU9AqyhWMXuKPBNipU5t1MsE/FP4HMR0eibmQNyrqGYQgiKs5G+WJrbPu0kXQc8A+wF3km776KYz86mnkNy3kJe9byK4g3TMYqDye0RcV96PW2jmOr4M/D5dHScW86ngMUUZ9PsAW4rvfGatSyau5mZjVYO0zJmZjZibu5mZh3k5m5m1kFu7mZmHeTmbmbWQW7uZmYd5OZuZtZBbu5mZh30f738Xs/ud1jZAAAAAElFTkSuQmCC\n",
      "text/plain": [
       "<matplotlib.figure.Figure at 0x1189349b0>"
      ]
     },
     "metadata": {},
     "output_type": "display_data"
    },
    {
     "name": "stdout",
     "output_type": "stream",
     "text": [
      "m (40, 3)\n"
     ]
    },
    {
     "data": {
      "image/png": "iVBORw0KGgoAAAANSUhEUgAAAXcAAAA8CAYAAACdKPrlAAAABHNCSVQICAgIfAhkiAAAAAlwSFlzAAALEgAACxIB0t1+/AAAADl0RVh0U29mdHdhcmUAbWF0cGxvdGxpYiB2ZXJzaW9uIDIuMS4yLCBodHRwOi8vbWF0cGxvdGxpYi5vcmcvNQv5yAAACLVJREFUeJzt3W+MFVcdxvHv0+Xflr8iDRBaK2CDqcQgQmMjaQimBhsTNCGCIOGFSbWxiSaaiH2hlaSJNVExqbWtWIsGraStSkxMhbaJ9U0tIBVarGClaWlhodgKCX+68PPFDPF2uTtnttzuzB2fT7LZuXOGmYezc387O/fccxURmJlZs1xWdQAzM+s8F3czswZycTczayAXdzOzBnJxNzNrIBd3M7MGcnE3M2sgF3czswZycTczayAXdzOzBhpRZiNJS4EfAj3Axoj4zoD20cDPgQ8DrwErIuJgYp+F8x5MnTo1maunp6ewffz48YXtkpLHOHHiRGH7mDFjkvs4e/ZsYXtvb29h+5kzZ5LH6OvrK2yfPHlyYXuqrwBGjx5d2P7mm28m93Hs2LHC9pEjRxa2jxiRPmX7+/svaR9Hjx5NHiPVn2XOrcsvv7yw/bLLiq+9Uj9zuPSf2YQJE5LHSPX3K6+8ktxHqj9T/49UX5Zx/PjxwvbUuQlw/vz5wvYyz7NUXdu3b9+xiLgitZ/kM0VSD/Aj4EbgZeBpSVsj4rmWzT4P/Dsi3idpJXAnsCK17yJr1qxJbjNx4sTC9iVLlhS2l/lhbd++vbB9zpw5yX2kTu65c+cWtu/fvz95jLvvvruwfdWqVYXtixcvTh5j5syZhe2HDx9O7mPjxo2F7TNmzChsTxUBSBfnKVOmFLbfe++9yWOsXr26sL1McV+4cGFhe6pgbdiwIXmMWbNmFbanfmZLly5NHiP1S2b9+vXJfaxYUVwuZs+eXdg+f/785DFS82ht3ry5sH369OnJY6Qu5BYtWpTcx6RJkwrbFyxY8GJyJ5S7LXMdcCAiXoiIs8CDwLIB2ywDNuXLDwEfU5mz28zM3hFlivsM4KWWxy/n69puExH9wBvAuzsR0MzMhq7UPfdOkXQzcPNwHtPM7P9RmSv3Q8BVLY+vzNe13UbSCGAi2QurbxER90XEgohY8PbimplZGWWK+9PANZJmShoFrAS2DthmK7A2X14OPB7+FBAzs8okb8tERL+kW4FHyYZC3h8Rz0paD+yIiK3AT4FfSDoAHCf7BWBmZhVRVRfY8+bNi8cee2zQ9tS4VkiPMS8zJroblPkZHTlypLB97Nixhe2psfbQmf48d+5cYfupU6cuOUNqiGtq/Pjp06eTx0gNBitz/jZlQFnq/Cwzzj11fo4bN66wPTU2HIanv1Pj3MtkSG0jaWeZW9t+h6qZWQO5uJuZNZCLu5lZA7m4m5k1kIu7mVkDubibmTWQi7uZWQNVNhC8p6encGxrmel4U+OVm6LM2Nhp06YNQ5JLlxqPnBrPPBzKjPm3/0mdn6lpnJukTjWpPknMzKxjXNzNzBrIxd3MrIFc3M3MGihZ3CVdJekJSc9JelbSl9tss1jSG5J251/ffGfimplZGWVGy/QDX42IXZLGAzslbRvwAdkAT0bEJzsf0czMhip55R4Rr0bErnz5BLCPiz9D1czMamRI99wlvRf4EPBUm+brJT0j6Q+SPtCBbGZm9jaVfhOTpHHAw8BXIuI/A5p3AVdHxElJNwG/Ba5ps4/WD8g+2dvb+3xL8xTg2FDCV8Q5O8s5O6sbcnZDRqhvzqvLbFTqk5gkjQR+DzwaEd8vsf1BYEFElO4YSTu64YOznbOznLOzuiFnN2SE7sk5mDKjZUT2Gan7Bivskqbl2yHpuny/r3UyqJmZlVfmtsxHgTXAHkm783W3Ae8BiIh7gOXALZL6gVPAyqjqw1nNzCxd3CPiz0DhzEARcRdw1yVmue8S//1wcc7Ocs7O6oac3ZARuidnW6XuuZuZWXfx9ANmZg1Ui+Iuaamk5yUdkLSu6jyDkXRQ0p58ioUdVee5QNL9kvok7W1ZN1nSNkn78+/vqjJjnqldztslHWqZuuKmijO2nW6jbv1ZkLNu/TlG0l/y98A8K+nb+fqZkp7Kn/O/ljSqpjkfkPSvlv6cV2XOIYmISr+AHuCfwCxgFPAMcG3VuQbJehCYUnWONrluAOYDe1vWfRdYly+vA+6sac7bga9Vna0lz3Rgfr48HvgHcG3d+rMgZ936U8C4fHkk2RsgPwJsIRt4AXAPcEtNcz4ALK+6H9/OVx2u3K8DDkTECxFxFngQWFZxpq4SEX8Cjg9YvQzYlC9vAj41rKHaGCRnrcTg023Uqj8LctZKZE7mD0fmXwEsAR7K19ehPwfL2bXqUNxnAC+1PH6ZGp6kuQD+KGln/m7bOpsaEa/my4eBqVWGSbhV0t/y2zaV3z66YMB0G7XtzzbTgtSqPyX15MOo+4BtZH+pvx4R/fkmtXjOD8wZERf68468P38gaXSFEYekDsW9myyKiPnAJ4AvSbqh6kBlRPa3Zl2vQn4MzAbmAa8C36s2TqZouo069WebnLXrz4g4FxHzgCvJ/lJ/f8WR2hqYU9Jc4BtkeRcCk4GvVxhxSOpQ3A8BV7U8vjJfVzsRcSj/3gf8huxErasjkqYD5N/7Ks7TVkQcyZ9U54GfUIM+zafbeBjYHBGP5Ktr15/tctaxPy+IiNeBJ4DrgUmSLrzPplbP+ZacS/PbXxERZ4CfUaP+TKlDcX8auCZ/9XwUsBLYWnGmi0gam89nj6SxwMeBvcX/qlJbgbX58lrgdxVmGdSFgpn7NBX3acF0G7Xqz8Fy1rA/r5A0KV/uBW4ke33gCbJ3tkM9+rNdzr+3/EIX2esCdX7Ov0Ut3sSUD9faQDZy5v6IuKPiSBeRNIvsah2yd/b+si45Jf0KWEw2i90R4FtkM3NuIZsm4kXgMxFR6YuZg+RcTHYLIchGI32h5d72sJO0CHgS2AOcz1ffRnY/uzb9WZDzs9SrPz9I9oJpD9nF5JaIWJ8/nx4ku9XxV+Bz+dVx3XI+DlxBNppmN/DFlhdea60Wxd3MzDqrDrdlzMysw1zczcwayMXdzKyBXNzNzBrIxd3MrIFc3M3MGsjF3cysgVzczcwa6L+Jp7N8u4WEvAAAAABJRU5ErkJggg==\n",
      "text/plain": [
       "<matplotlib.figure.Figure at 0x118a5d518>"
      ]
     },
     "metadata": {},
     "output_type": "display_data"
    },
    {
     "name": "stdout",
     "output_type": "stream",
     "text": [
      "m (40, 3)\n"
     ]
    },
    {
     "data": {
      "image/png": "iVBORw0KGgoAAAANSUhEUgAAAXcAAAA8CAYAAACdKPrlAAAABHNCSVQICAgIfAhkiAAAAAlwSFlzAAALEgAACxIB0t1+/AAAADl0RVh0U29mdHdhcmUAbWF0cGxvdGxpYiB2ZXJzaW9uIDIuMS4yLCBodHRwOi8vbWF0cGxvdGxpYi5vcmcvNQv5yAAAB0xJREFUeJzt3W+IHHcdx/H3x2vSSHtYa0MtTVLbEghVSkxisFiOoFRiEWIhtikoeVZbW1BQMPZBrYWCCv6Dgk3V2ChqDK1/jlKpgQbaPqm5i6lJ+s9YI02ICW1pNaCWs18fzO9wutndmU3Xnd9OPi9YbnZmbu5z39v93uzszG8VEZiZWbu8rekAZmY2fG7uZmYt5OZuZtZCbu5mZi3k5m5m1kJu7mZmLeTmbmbWQm7uZmYt5OZuZtZCbu5mZi10Vp2VJK0HvgtMAD+IiK91LD8b+DGwGngZuCEiDldss++4B8uWLavMNTk52Xf5okWLKrdRZXZ2tu/ytuSsyghnTs6qjDA+OauM4vcYRT1H8disY0T1fCkiFldtR1Vjy0iaAJ4HrgGOAHuAGyPi6dI6nwWujIibJW0CrouIGyq22/cHb926tSo7U1NTfZevWLGichtVJPVd3pacVRnhzMlZlRHGJ2eVUfweo6jnKB6bdYyonrMRsaZqO3UOy6wFDkXECxHxOrAD2NCxzgZge5p+APiIhlEpMzM7LXWa+8XAi6X7R9K8rutExBzwGvCuYQQ0M7PB1TrmPiySbgJuGuXPNDM7E9XZcz8KLC3dX5LmdV1H0lnAOyjeWH2TiLgvItbUOV5kZmanr05z3wMsl3SppIXAJmC6Y51pYHOa3gg8Gv4UEDOzxlQelomIOUm3AY9QnAq5LSIOSroLmImIaeCHwE8kHQJeofgHYGZmDal1zD0iHgYe7ph3R2n6X8AnB/nBq1evZmZmZpBvaYRfgAxXjVNv+y6vc+pplapTzcblbz4uOcdF2+rpK1TNzFrIzd3MrIXc3M3MWsjN3cyshdzczcxayM3dzKyF3NzNzFpopGPL2P9PW87RbcvvYf/jv2kzvOduZtZCbu5mZi3k5m5m1kJu7mZmLVTZ3CUtlbRb0tOSDkr6XJd11kl6TdK+dLuj27bMzGw06pwtMwd8ISL2SpoEZiXtKn9AdvJ4RHx8+BHNzGxQlXvuEXEsIvam6X8Az3DqZ6iamVlGBjrmLuk9wPuBJ7ssvkrSU5J+K+m9Q8hmZmanqfZFTJLOBR4EPh8Rf+9YvBe4JCJOSroW+DWwvMs2yh+QfVLSc6XFFwAvDRK+Ic45XM45XOOQcxwyQr45L6mzkupcPSZpAfAQ8EhEfKvG+oeBNRFRuzCSZsbhg7Odc7icc7jGIec4ZITxydlLnbNlRPEZqc/0auyS3p3WQ9LatN2XhxnUzMzqq3NY5kPAp4H9kvalebcDywAi4l5gI3CLpDngn8Cm8IASZmaNqWzuEfEE0PdTiyPiHuCet5jlvrf4/aPinMPlnMM1DjnHISOMT86uah1zNzOz8eLhB8zMWiiL5i5pvaTnJB2StKXpPL1IOixpfxpiYabpPPMkbZN0QtKB0rzzJe2S9Kf09Z1NZkyZuuW8U9LR0tAV1zacsetwG7nVs0/O3Oq5SNLv0zUwByV9Nc2/VNKT6Tn/C0kLM815v6S/lOq5ssmcA4mIRm/ABPBn4DJgIfAUcEXTuXpkPQxc0HSOLrmmgFXAgdK8bwBb0vQW4OuZ5rwT+GLT2Up5LgJWpelJ4Hngitzq2SdnbvUUcG6aXkBxAeQHgZ0UJ14A3AvckmnO+4GNTdfxdG457LmvBQ5FxAsR8TqwA9jQcKaxEhGPAa90zN4AbE/T24FPjDRUFz1yZiV6D7eRVT375MxKFE6muwvSLYAPAw+k+TnUs1fOsZVDc78YeLF0/wgZPkiTAH4naTZdbZuzCyPiWJr+G3Bhk2Eq3Cbpj+mwTeOHj+Z1DLeRbT27DAuSVT0lTaTTqE8Auyheqb8aEXNplSye8505I2K+nnenen5b0tkNRhxIDs19nFwdEauAjwG3SppqOlAdUbzWzHUv5HvA5cBK4BjwzWbjFPoNt5FTPbvkzK6eEfGfiFgJLKF4pb6i4UhddeaU9D7gyxR5PwCcD3ypwYgDyaG5HwWWlu4vSfOyExFH09cTwK8oHqi5Oi7pIoD09UTDebqKiOPpSfUG8H0yqGkabuNB4KcR8cs0O7t6dsuZYz3nRcSrwG7gKuA8SfPX2WT1nC/lXJ8Of0VE/Bv4ERnVs0oOzX0PsDy9e74Q2ARMN5zpFJLOSePZI+kc4KPAgf7f1ahpYHOa3gz8psEsPc03zOQ6Gq5pn+E2sqpnr5wZ1nOxpPPS9NuBayjeH9hNcWU75FHPbjmfLf1DF8X7Ajk/598ki4uY0ula36E4c2ZbRNzdcKRTSLqMYm8diit7f5ZLTkk/B9ZRjGJ3HPgKxcicOymGifgrcH1ENPpmZo+c6ygOIQTF2UifKR3bHjlJVwOPA/uBN9Ls2ymOZ2dTzz45bySvel5J8YbpBMXO5M6IuCs9n3ZQHOr4A/CptHecW85HgcUUZ9PsA24uvfGatSyau5mZDVcOh2XMzGzI3NzNzFrIzd3MrIXc3M3MWsjN3cyshdzczcxayM3dzKyF3NzNzFrov2jilTDopsaUAAAAAElFTkSuQmCC\n",
      "text/plain": [
       "<matplotlib.figure.Figure at 0x118af05c0>"
      ]
     },
     "metadata": {},
     "output_type": "display_data"
    },
    {
     "name": "stdout",
     "output_type": "stream",
     "text": [
      "m (40, 3)\n"
     ]
    },
    {
     "data": {
      "image/png": "iVBORw0KGgoAAAANSUhEUgAAAXcAAAA8CAYAAACdKPrlAAAABHNCSVQICAgIfAhkiAAAAAlwSFlzAAALEgAACxIB0t1+/AAAADl0RVh0U29mdHdhcmUAbWF0cGxvdGxpYiB2ZXJzaW9uIDIuMS4yLCBodHRwOi8vbWF0cGxvdGxpYi5vcmcvNQv5yAAACVxJREFUeJzt3XuMFWcZx/Hvw8Jyx7Lcw1IFuQiIXORisWmIpASLCZigBYLhDxKU2EQTTcSG1EpCYk28NKmxqboWDYpN62VjSipJidZ/yqVSCq1VLEvKBtlQLMidhcc/ZjaeLmffd7Z7YGYnv0+y2TnzzM777HvOPDs75533mLsjIiLl0ifvBEREpPZU3EVESkjFXUSkhFTcRURKSMVdRKSEVNxFREpIxV1EpIRU3EVESkjFXUSkhFTcRURKqG+WjcxsOfA4UAf81N2/0yneH/gF8HHgHeBBd2+J7DM478HYsWOjeQ0dOjQYHzx4cDBuZtE2Ll++HIz369cvuo9YO336hP/GXrx4MdrGiRMngvGRI0cG48OHD4+2UV9fH4zfuHEjuo9Tp04F47HnbODAgdE2YnlevXo1GG9tbY220dDQEIwPGjQouo8BAwYE47GpQc6fPx9to2/f8CHe3t4ejGf5PWL9efz48eg+Ro0aFYwPGzYsGM/yuoi9Ps+cOROMx54vgP79+/coDvHn/fDhw2fcPdxhZCjuZlYH/Ai4HzgJ7DezZnd/vWKzjcB/3H2yma0BHgMejO07ZMOGDdFtli5dGowvWLAgGI8VAYCjR48G46NHj47uI3aAxQravn37om1s3rw5GN+4cWMwvmrVqmgbEydODMbPnTsX3ce2bduC8YULFwbjs2fPjrYxfvz4YLylpSUY37p1a7SNtWvXBuOzZs2K7mP69OnBeKwY7d69O9rGmDFjgvG2trZgfO7cudE2YicW69ati+5j06ZNwfiyZcuC8VhfAly4cCEYb2pqCsanTp0abWPSpEnB+OTJk6P7uHLlSjDe2NgY7vBUlssyC4Fj7v6Wu18DdgErO22zEtiRLj8LLLUsp8UiInJbZCnu44G3Kx6fTNdV3cbd24FzwIhaJCgiIt2X6Zp7rZjZJiD8/5eIiPRYljP3VmBCxePGdF3VbcysL/ABkjdW38Pdn3L3+e4+//2lKyIiWWQp7vuBKWY20czqgTVAc6dtmoGOd0BXAy+6PgVERCQ30csy7t5uZg8BL5AMhWxy96Nmtg044O7NwM+AX5rZMeAsyR8AERHJSaZr7u7+PPB8p3WPVCxfAT7XnYYbGhpYsWJFl/FFixZF9zFt2rRgPDbE8Pr169E2bt68GYxnGRQ0ZMiQHrWRZQjW4sWLg/Fx48YF41nG39bV1QXjsbHIAOvXrw/GY2OJY32VZZvYkM7GxsZoG7HfNXZfAcSH4sbGoE+ZMiXaRuz+hdhQx9hrF+KvrdgwRoCZM2f2qI0s4/Fj/R3Lc8SI+BiR2D0pWV6/sXsostIdqiIiJaTiLiJSQiruIiIlpOIuIlJCKu4iIiWk4i4iUkIq7iIiJWR53Ug6Y8YM37lzZ5fxLGONY3M4x8a+xuZRh/hY4yz7iIk9B1naiO0jNh7/Tk3iefbs2WA89pzVYv78WDzLMRHbR5bxzLHnNdbGpUuXom3E+ivWRuzehiz7yNIXPd1HlmMk1sa1a9eC8Sx9EXvt1KI/zexglilcdOYuIlJCKu4iIiWk4i4iUkIq7iIiJRQt7mY2wcz2mtnrZnbUzL5SZZslZnbOzA6lX49U25eIiNwZWWaFbAe+5u6vmNlQ4KCZ7en0AdkAL7n7Z2qfooiIdFf0zN3dT7n7K+nyf4E3uPUzVEVEpEC6dc3dzD4EzAVerhK+x8xeNbPdZhaenFlERG6rzDcxmdkQ4M/Adnf/bafYMOCmu18wsweAx939lk8S6PQB2dOANyvCI4Ez3f8V7jjlWVvKs7Z6Q569IUcobp4fdPdRsY0yFXcz6wf8EXjB3b+fYfsWYL67Z+4YMzvQGz44W3nWlvKsrd6QZ2/IEXpPnl3JMlrGSD4j9Y2uCruZjU23w8wWpvt9p5aJiohIdllGy3wS+ALwmpkdStc9DNwN4O5PAquBzWbWDlwG1nhek9aIiEi8uLv7X4HgTDbu/gTwRA9zeaqHP3+nKM/aUp611Rvy7A05Qu/Js6rcZoUUEZHbR9MPiIiUUCGKu5ktN7M3zeyYmW3JO5+umFmLmb2WTrFwIO98OphZk5m1mdmRinUNZrbHzP6Zfh+eZ45pTtXyfNTMWiumrngg5xyrTrdRtP4M5Fm0/hxgZvvSe2COmtm30/UTzezl9Jj/jZnVFzTPp83seEV/zskzz25x91y/gDrgX8AkoB54FZiRd15d5NoCjMw7jyp53QfMA45UrPsusCVd3gI8VtA8HwW+nnduFfmMA+aly0OBfwAzitafgTyL1p8GDEmX+5HcAPkJ4BmSgRcATwKbC5rn08DqvPvx/XwV4cx9IXDM3d9y92vALmBlzjn1Ku7+F6DzRxytBHakyzuAVXc0qSq6yLNQvOvpNgrVn4E8C8UTF9KH/dIvBz4FPJuuL0J/dpVnr1WE4j4eeLvi8UkK+CJNOfAnMzuY3m1bZGPc/VS6/G9gTJ7JRDxkZofTyza5Xz7q0Gm6jcL2Z5VpQQrVn2ZWlw6jbgP2kPyn/q67d3yGZSGO+c55untHf25P+/MHZtY/xxS7pQjFvTe5193nAZ8Gvmxm9+WdUBae/K9Z1LOQHwMfBuYAp4Dv5ZtOIp1u4zngq+5+vjJWpP6skmfh+tPdb7j7HKCR5D/1j+ScUlWd8zSzjwLfJMl3AdAAfCPHFLulCMW9FZhQ8bgxXVc47t6afm8DfkfyQi2q02Y2DiD93pZzPlW5++n0oLoJ/IQC9Gk63cZzwE7//zxKhevPankWsT87uPu7wF7gHuAuM+u4z6ZQx3xFnsvTy1/u7leBn1Og/owpQnHfD0xJ3z2vB9YAzTnndAszG5zOZ4+ZDQaWAUfCP5WrZmBDurwB+EOOuXSpo2CmPkvOfRqYbqNQ/dlVngXsz1Fmdle6PBC4n+T9gb0kd7ZDMfqzWp5/r/iDbiTvCxT5mH+PQtzElA7X+iHJyJkmd9+ec0q3MLNJJGfrkNzZ+6ui5GlmvwaWkMxidxr4FvB7khEJdwMngM+7e65vZnaR5xKSSwhOMhrpixXXtu84M7sXeAl4DbiZrn6Y5Hp2YfozkOdaitWfHyN5w7SO5GTyGXfflh5Pu0gudfwNWJ+eHRctzxeBUSSjaQ4BX6p447XQClHcRUSktopwWUZERGpMxV1EpIRU3EVESkjFXUSkhFTcRURKSMVdRKSEVNxFREpIxV1EpIT+B/b/9Vi+6Qv5AAAAAElFTkSuQmCC\n",
      "text/plain": [
       "<matplotlib.figure.Figure at 0x11721d160>"
      ]
     },
     "metadata": {},
     "output_type": "display_data"
    }
   ],
   "source": [
    "i = 0\n",
    "j = 30\n",
    "k = -1\n",
    "x = vae.predict(x_train[:100])\n",
    "plot.single(x_train[i, :50, :, 0])\n",
    "plot.single(x[i, :50, :, 0])\n",
    "plot.single(x_train[j, :50, :, 0])\n",
    "plot.single(x[j, :50, :, 0])\n",
    "plot.single(x_train[k, :50, :, 0])\n",
    "plot.single(x[k, :50, :, 0])"
   ]
  },
  {
   "cell_type": "code",
   "execution_count": 28,
   "metadata": {},
   "outputs": [
    {
     "data": {
      "text/plain": [
       "(90, 40, 3, 1)"
      ]
     },
     "execution_count": 28,
     "metadata": {},
     "output_type": "execute_result"
    }
   ],
   "source": [
    "x.shape"
   ]
  },
  {
   "cell_type": "code",
   "execution_count": 29,
   "metadata": {},
   "outputs": [
    {
     "name": "stdout",
     "output_type": "stream",
     "text": [
      "m (30, 3)\n"
     ]
    },
    {
     "data": {
      "image/png": "iVBORw0KGgoAAAANSUhEUgAAAXcAAABECAYAAAB6WXVJAAAABHNCSVQICAgIfAhkiAAAAAlwSFlzAAALEgAACxIB0t1+/AAAADl0RVh0U29mdHdhcmUAbWF0cGxvdGxpYiB2ZXJzaW9uIDIuMS4yLCBodHRwOi8vbWF0cGxvdGxpYi5vcmcvNQv5yAAABxFJREFUeJzt3V+IXGcZx/HvL5tsEhojTSrrJru2jQaS1osoS4hYJBCUtghRqEtyISsIEUnBQi4SelGLIKjEPxcVpdJAFLWK9c8ilVpQsL1I2U2optsSXZY03ZAmtCs1CZpm08eLOYFxnN19z+5Jzszb3wfCnjnz7JnnyTvzzJl3Zt5VRGBmZnlZVncCZmZWPTd3M7MMubmbmWXIzd3MLENu7mZmGXJzNzPLkJu7mVmG3NzNzDLk5m5mlqHldd2wpOSvxvb19SUfd926dcmxq1atSo4FkJQce/Xq1eTYZcvSn2PLxJbJ9/Lly8mxAGfOnEmOHRgYSI5du3ZtqTxuhOnp6VLxq1evTo5ds2ZNcuyKFSuSY69cuZIcW6a+/v7+5Fgol3Nvb2+pY6cqc19evjy9Bc7OzpbKY+XKlcmx165dS46dmJh4IyLet1Bcbc29jJGRkeTY4eHh5NitW7eWyqPMnbHMA6jMA77MHabMA21sbCw5FmD//v3JsYcPH06O3bVrV3JsT09PcmwZBw4cKBW/bdu25NgdO3Ykx27YsCE5dmpqKjn24MGDybGHDh1KjgUYHBxMji3zpF/GsWPHkmPXr1+fHDszM1Mqj02bNiXHXrx4MTl2y5Ytr6bEJZ0GSrpX0ilJk5L+b7QlrZT0i+L6FyTdkZypmZlVbsHmLqkH+D5wH3AXsFfSXS1hXwT+GREfAr4LfLPqRM3MLF3Kmft2YDIipiLibeBJYHdLzG7gaLH9K2CXykz4mplZpVKa+0bgtabL08W+tjERMQu8BaRPZpmZWaVu6huqkvYB+27mbZqZvRulnLmfBZrfAh8o9rWNkbQceC/wZuuBIuLxiBiKiKHFpWtmZilSmvsYsFnSnZJ6gT3AaEvMKHD984oPAH8K/4knM7PaLDgtExGzkh4EngF6gCMRMSHpa8B4RIwCTwA/kTQJzNB4AjAzs5okzblHxNPA0y37Hmna/g/wuWpTMzOzxVJdsydDQ0MxPj5ey22bmXUrScdT3rf0wmFmZhlyczczy5Cbu5lZhtzczcwy5OZuZpYhN3czswy5uZuZZcjN3cwsQ27uZmYZcnM3M8uQm7uZWYbc3M3MMuTmbmaWITd3M7MMubmbmWXIzd3MLENu7mZmGXJzNzPL0ILNXdKgpD9LelnShKSvtInZKektSS8W/x5pdywzM7s5Uv5A9ixwICJOSHoPcFzSsxHxckvccxHx6epTNDOzshY8c4+IcxFxoti+CLwCbLzRiZmZ2eKVmnOXdAfwEeCFNld/TNJfJf1B0t0V5GZmZouUMi0DgKQ1wFPAQxHxr5arTwC3R8QlSfcDvwU2tznGPmBfcfGSpFNtbuo24I3UvLpQzvXlXBu4vm6XS323pwQpIhYOklYAvweeiYjvJMSfBoYiovR/pKTxiBgq+3vdIuf6cq4NXF+3y72+VimflhHwBPDKXI1d0vuLOCRtL477ZpWJmplZupRpmY8DnwdOSnqx2Pcw8AGAiPgh8ADwZUmzwL+BPZHyksDMzG6IBZt7RDwPaIGYx4DHKsrp8YqO06lyri/n2sD1dbvc6/sfSXPuZmbWXbz8gJlZhjqmuUu6V9IpSZOSDtWdT9UknZZ0slieYbzufJZK0hFJFyS91LRvnaRnJf2j+HlrnTkuxRz1PSrpbNMyG/fXmeNizbWkSC7jN099WYxfqo6YlpHUA/wd+CQwDYwBe9sscdC1lvLx0E4k6RPAJeDHEfHhYt+3gJmI+EbxBH1rRBysM8/FmqO+R4FLEXG4ztyWSlI/0N+8pAjwGeALZDB+89Q3TAbjl6pTzty3A5MRMRURbwNPArtrzsnmERF/AWZadu8GjhbbR2k8oLrSHPVlYZ4lRbIYPy+Z0tApzX0j8FrT5WnyG4wA/ijpePFN3Rz1RcS5Yvt1oK/OZG6QByX9rZi26cppi2YtS4pkN35tlkzJavzm0ynN/d3gnoj4KHAfsL942Z+t4nsO9c/5VesHwAeBbcA54Nv1prM08y0pksP4takvq/FbSKc097PAYNPlgWJfNiLibPHzAvAbGlNRuTlfzHden/e8UHM+lYqI8xFxLSLeAX5EF49hsaTIU8BPI+LXxe5sxq9dfTmNX4pOae5jwGZJd0rqBfYAozXnVBlJtxRv7CDpFuBTwEvz/1ZXGgVGiu0R4Hc15lK5642v8Fm6dAznWVIki/Gbq75cxi9VR3xaBqD4WNL3gB7gSER8veaUKiNpE42zdWh8K/hn3V6fpJ8DO2mstHce+CqN1UB/SWNpileB4Yjoyjcl56hvJ42X9AGcBr7UNEfdNSTdAzwHnATeKXY/TGNeuuvHb5769pLB+KXqmOZuZmbV6ZRpGTMzq5Cbu5lZhtzczcwy5OZuZpYhN3czswy5uZuZZcjN3cwsQ27uZmYZ+i+GbF9e3KzoIAAAAABJRU5ErkJggg==\n",
      "text/plain": [
       "<matplotlib.figure.Figure at 0x106251748>"
      ]
     },
     "metadata": {},
     "output_type": "display_data"
    }
   ],
   "source": [
    "# min: these pixels are 'always' active\n",
    "m = x.min(axis=0)\n",
    "plot.multi(m[:30,:,0])"
   ]
  },
  {
   "cell_type": "code",
   "execution_count": 30,
   "metadata": {},
   "outputs": [
    {
     "name": "stdout",
     "output_type": "stream",
     "text": [
      "m (30, 3)\n"
     ]
    },
    {
     "data": {
      "image/png": "iVBORw0KGgoAAAANSUhEUgAAAXcAAABECAYAAAB6WXVJAAAABHNCSVQICAgIfAhkiAAAAAlwSFlzAAALEgAACxIB0t1+/AAAADl0RVh0U29mdHdhcmUAbWF0cGxvdGxpYiB2ZXJzaW9uIDIuMS4yLCBodHRwOi8vbWF0cGxvdGxpYi5vcmcvNQv5yAAACABJREFUeJzt3W2IlWkdx/HvT2ccx4d8yodFzVlNFIuxQgaiJQaicJfQgm3RF2IQGNJKgS9a9sW6CEJFj7BRbChYVFu0ZaIb20JR6xtRly33wScW16dxxDW2GSnXcf69mHvhNJyZue7xjOecy98HZM65z897rmuuOf9z5j7n/h9FBGZmlpdJ9R6AmZnVnou7mVmGXNzNzDLk4m5mliEXdzOzDLm4m5llyMXdzCxDLu5mZhlycTczy1BLvb6xpORTYxcuXJi832nTpiVnZ8yYkZwFmDQp/bGwv78/Odva2pqcLXNGcVtbW3L25s2byVmAixcvJmcXLFiQnJ09e3ZydsqUKcnZO3fuJGevXLmSnAVob29Pzk6dOjU5Ozg4WGocqXp6epKz8+fPL7Xvlpb0kjJ9+vTkbJnf++vXrydny9xHbt++nZwFmDlzZnJ2YGAgOXv27NnrETHmwtStuJexZcuW5OzatWuTs93d3aXGUeZOfOTIkeTsokWLkrO3bt1Kzq5YsSI5e/To0eQswM6dO5OzO3bsSM5u2LAhObtkyZLkbF9fX3J29+7dyVmANWvWJGdXrVqVnC2z1mUevPbs2ZOc3b59e3IWYO7cucnZrq6u5GyZ4r53797k7PLly5OzV69eTc5CufrS29ubnF2/fv3bKbmkp6KS1ks6LemcpCeq3N4m6TfF7UcldSSP1MzMam7M4i5pMvBj4GFgDbBZ0vCnKl8B/hURHwZ+AHy71gM1M7N0Kc/cu4BzEfFWRLwHPAdsHJbZCOwvLv8O+Iwk1W6YZmZWRkpxXwxUvnp2qdhWNRMRA8C7wLxaDNDMzMq7py+oStoGbLuX39PM7H6U8sz9MrC04vqSYlvVjKQWYBbwzvAdRcSzEbEuItaNb7hmZpYipbgfA1ZKelDSFGATcHBY5iCwtbj8KPCX8Ec8mZnVzZiHZSJiQNLjwIvAZGBfRLwuaTdwPCIOAnuBX0g6B9xg6AHAzMzqJOmYe0S8ALwwbNtTFZf/C3yptkMzM7PxUr2OnnR0dMSuXbuSsp2dncn7XbZsWXJ2zpw5yVkod8bgmTNnkrPz5qW/sWjWrFnJ2TJnLZY9tfrw4cPJ2dWrVydny5xVW+ZsyDKnd1+4cCE5C+XaIJRR5vezzDuPDxw4kJwtc0YtlDvjc6LW79SpU8nZMu0uytaLMu0Vytz/2tvbT6S8bunGYWZmGXJxNzPLkIu7mVmGXNzNzDLk4m5mliEXdzOzDLm4m5llyMXdzCxDLu5mZhlycTczy5CLu5lZhurWW6azszMOHTqUlC3T06G1tTU529bWlpyFcv07yvTCmDQp/TF2otarzBjKjqPMz60RPp2xr6+vVL7M71FLy8R8Pk6Zn9tErd1E7rtMtkwPqIlaDyh3nyr5s3BvGTOz+5WLu5lZhlzczcwy5OJuZpYhF3czswy5uJuZZWjM4i5pqaS/SnpD0uuSvl4l0y3pXUmvFv+eqrYvMzO7N1Le5DkA7IyIVyTNBE5Ieiki3hiWezkiPl/7IZqZWVljPnOPiJ6IeKW43Ae8CSye6IGZmdn4lTrmLqkD+DhwtMrNn5T0D0l/kvSRGozNzMzGKbn9gKQZwN+APRHx+2G3fQAYjIh+SY8AP4qIlVX2sQ3YVlxdBZyu8q0+CFxPn0LTyXl+Oc8NPL9ml8v8lkXE/LFCScVdUitwCHgxIr6fkD8PrIuI0j9IScdT+iY0q5znl/PcwPNrdrnPb7iUd8sI2Au8OVJhl7SoyCGpq9jvO7UcqJmZpUt5t8yngC3ASUmvFtueBD4EEBE/BR4FtksaAP4DbIp6tZs0M7Oxi3tEHAFG7UcZEc8Az9RoTM/WaD+NKuf55Tw38PyaXe7z+z916+duZmYTx+0HzMwy1DDFXdJ6SaclnZP0RL3HU2uSzks6WbRnOF7v8dwtSfskXZP0WsW2uZJeknS2+Jr+EVoNZoT5PS3pckWbjUfqOcbxGqmlSC7rN8r8sli/VA1xWEbSZOAM8FngEnAM2FylxUHTupu3hzYiSZ8G+oGfR8RHi23fAW5ExLeKB+g5EfHNeo5zvEaY39NAf0R8t55ju1uSHgAeqGwpAnwB+DIZrN8o83uMDNYvVaM8c+8CzkXEWxHxHvAcsLHOY7JRRMTfgRvDNm8E9heX9zN0h2pKI8wvC6O0FMli/dwyZUijFPfFwMWK65fIbzEC+LOkE8WZujlaGBE9xeWrwMJ6DmaCPC7pn8Vhm6Y8bFFpWEuR7NavSsuUrNZvNI1S3O8HD0XEJ4CHga8Vf/ZnqzjPof7H/GrrJ8AK4GNAD/C9+g7n7hQtRZ4HvhER/668LYf1qzK/rNZvLI1S3C8DSyuuLym2ZSMiLhdfrwF/YOhQVG56i+Od7x/3vFbn8dRURPRGxJ2IGAR+RhOvYdFS5HnglxW9orJZv2rzy2n9UjRKcT8GrJT0oKQpwCbgYJ3HVDOSphcv7CBpOvA54LXR/1dTOghsLS5vBf5Yx7HU3PuFr/BFmnQNR2kpksX6jTS/XNYvVUO8WwageFvSD4HJwL6I2FPnIdWMpOUMPVuHobOCf9Xs85P0a6CboU57vcAu4ADwW4ZaU7wNPBYRTfmi5Ajz62boT/oAzgNfrThG3TQkPQS8DJwEBovNTzJ0XLrp12+U+W0mg/VL1TDF3czMaqdRDsuYmVkNubibmWXIxd3MLEMu7mZmGXJxNzPLkIu7mVmGXNzNzDLk4m5mlqH/Adr1vXvzsWdZAAAAAElFTkSuQmCC\n",
      "text/plain": [
       "<matplotlib.figure.Figure at 0x118c084e0>"
      ]
     },
     "metadata": {},
     "output_type": "display_data"
    }
   ],
   "source": [
    "# mean\n",
    "m = x.mean(axis=0)\n",
    "plot.single(m[:30,:,0])"
   ]
  },
  {
   "cell_type": "markdown",
   "metadata": {},
   "source": [
    "## Encoder + Generator\n",
    "A model to project inputs on the latent space"
   ]
  },
  {
   "cell_type": "code",
   "execution_count": 31,
   "metadata": {},
   "outputs": [],
   "source": [
    "# build a model to project inputs on the latent space\n",
    "encoder = Model(encoder_input, z_mean)"
   ]
  },
  {
   "cell_type": "code",
   "execution_count": 32,
   "metadata": {},
   "outputs": [
    {
     "data": {
      "text/plain": [
       "(10, 40, 3, 1)"
      ]
     },
     "execution_count": 32,
     "metadata": {},
     "output_type": "execute_result"
    }
   ],
   "source": [
    "x_test.shape"
   ]
  },
  {
   "cell_type": "code",
   "execution_count": 33,
   "metadata": {},
   "outputs": [
    {
     "data": {
      "text/plain": [
       "(90, 2)"
      ]
     },
     "execution_count": 33,
     "metadata": {},
     "output_type": "execute_result"
    }
   ],
   "source": [
    "m = 100\n",
    "x_train_encoded = encoder.predict(x_train[:m], batch_size=batch_size)\n",
    "x_train_encoded.shape"
   ]
  },
  {
   "cell_type": "code",
   "execution_count": 34,
   "metadata": {},
   "outputs": [
    {
     "data": {
      "text/plain": [
       "<matplotlib.collections.PathCollection at 0x118eef9b0>"
      ]
     },
     "execution_count": 34,
     "metadata": {},
     "output_type": "execute_result"
    },
    {
     "data": {
      "image/png": "iVBORw0KGgoAAAANSUhEUgAAAX8AAAFpCAYAAAB0yyjhAAAABHNCSVQICAgIfAhkiAAAAAlwSFlzAAALEgAACxIB0t1+/AAAADl0RVh0U29mdHdhcmUAbWF0cGxvdGxpYiB2ZXJzaW9uIDIuMS4yLCBodHRwOi8vbWF0cGxvdGxpYi5vcmcvNQv5yAAAHddJREFUeJzt3X9s3PWd5/HXe2yPY4Id54cBBxyMCC2QJWKJgaKyLRWgA4T4ofO2wHUXBF0kENJKVVflh9RVe1qg5e5273RdVI5y0K6i0kZKmy1mu9ss6G57EOJkC5H5mRZIQpLGJHEcYscz43nfHx47YzOOx56Z73dmPs+HROP5zpf5fvqVec0n78/n+/mYuwsAEJZE3A0AAESP8AeAABH+ABAgwh8AAkT4A0CACH8ACBDhDwABIvwBIECEPwAEiPAHgAA1xt2A2axYscK7u7vjbgYA1JRt27Z97O4dc51XteHf3d2t/v7+uJsBADXFzD4s5jzKPgAQIMIfAAJE+ANAgAh/AAgQ4Q8AASL8ASBAhD8ABIjwB4AAEf4AECDCHwACRPgDQIAIfwAIEOEPAAEi/AEgQIQ/AASoatfzB7Awg0fHtGHbbg3sHdaalW3qXdeljtbmuJuFKkP4A3Vk8OiY7n52q4ZGU2pKJPT6niH17divZ+66lC8ATEPZB6gjG7bt1tBoSu0tSS1ublR7S1JHRtPasG133E1DlSH8gToysHdYTYnp/1k3JkwDe4djahGqFeEP1JE1K9uUzmanHctkXWtWtsXUIlQrwh+oI73rutTektTQaErHxjI6MprWkpYm9a7rirtpqDIM+AJ1pKO1Wc/cdSmzfTAnwh+oMx2tzbrvqtVxNwNVjrIPAASI8AeAABH+ABAgwh8AAkT4A0CACH8ACBDhDwABKkv4m9l1ZvaOme00swcLvP91M3vTzN4ws81mdnY5rgsAWJiSw9/MGiR9X9L1ki6UdLuZXTjjtH+X1OPuayVtkPS9Uq8LAFi4cvT8L5O0091/7+4pST+RdHP+Ce7+kruP5F6+KumsMlwXALBA5Qj/MyXlLxa+J3dsNvdIerEM1wUALFCka/uY2Vcl9Uj64izv3yvpXklatWpVhC0DgLCUo+f/kaT89WLPyh2bxsyukfSIpJvcfazQB7n7U+7e4+49HR0dZWgaAKCQcoT/Vknnmdk5ZpaUdJukTfknmNkfS/qBJoL/QBmuCQAoQcnh7+4ZSQ9I+pWktyT91N0HzOw7ZnZT7rQnJJ0q6Wdm9lsz2zTLxwEAIlCWmr+790nqm3HsW3k/X1OO6wAAyoMnfAEgQIQ/AASI8AeAABH+ABAgwh8AAkT4A0CACH8ACBDhDwABIvwBIECEPwAEiPAHgAAR/gAQIMIfAAJE+ANAgAh/AAgQ4Q8AASL8ASBAhD8ABIjwB4AAEf4AECDCHwACRPgDQIAIfwAIEOEPAAFqjLsBwHwNHh3Thm27NbB3WGtWtql3XZc6WpvjbhZQUwh/1JTBo2O6+9mtGhpNqSmR0Ot7htS3Y7+euetSvgCAeaDsg5qyYdtuDY2m1N6S1OLmRrW3JHVkNK0N23bH3TSgphD+qCkDe4fVlJj+a9uYMA3sHY6pRUBtouyDqlWotr9mZZte3zM07bxM1rVmZVtMrQRqE+GPqjRbbf+J3rXq27F/6ngm61rS0qTedV1xNxmoKYQ/qlJ+bX/SkdG0XnrngJ6561Jm+wAlIvxRlU5W27/vqmbdd9XqmFoG1AcGfFGV1qxsUzqbnXaM2j5QPoQ/qlLvui61tyQ1NJrSsbGMjoymqe0DZUTZB1Wpo7WZ2j5QQfT8UZVYwgGoLHr+qDos4QBUHj1/VB2WcAAqj/BH1WEJB6DyCH9UHaZ5ApVHzR8VtZCB2951XSzhAFSYuXvcbSiop6fH+/v7424GSjBz4Dadzaq9JVnUwC2zfYCFMbNt7t4z13n0/DFvxQTz2/uGde+P+rX78KgSJrW3NKmjbdHUwO1cyzN0tLKEA1BJhD/mpZhpmG/vG9bN3/+NxjITdftxlw6OpHV0LKMzlrQwcAtUAQZ8MS/FTMN8rO8tpcazn/p3U+OuI6NpBm6BKkDPH/NysmmYk+WgV98/pNmGkrLuDNwCVYDwx7zMtpNW9/JTdPezW3XoWEqpzKd7/ZOWtjTp2/848KmxAgZ4gWgR/piX2aZhSqah0ZTGs1k1JEyZbOGu/4FPxvTm3uFpYwWSWM4BiBjhj3mZbbXNb//jgJoSCQ2nM0okTA3uGs/L/4aEJJeWLGrS4uaJX7v8sYJCu3YVMysIwMIQ/pi3QtMwJ8tBLU0JjaQyampIaDyTVcKkhJlMkiWkpYtPBHz+kg0s5wBEi9k+KIvJzVcaEgmZTOmsqykhLW5u1OLmRvV0L9WK1mY1NZz4lZtcsoHlHIDo0fNHWeSXg7bvGlIqPa5kY0KXnL10anZPfl1/5pINLOcARKssyzuY2XWS/rukBklPu/vjM97/gqS/k7RW0m3uvmGuz2R5h/pzshk9zPYByqPY5R1KDn8za5D0rqRrJe2RtFXS7e7+Zt453ZLaJH1D0ibCHwAqI8q1fS6TtNPdf5+78E8k3SxpKvzd/YPce7NPAEddyO/Bdy8/RSOpcf2/332sY2PjGj6e1vF0ViuXLNKjt16kK1aviLu5QLDKEf5nSsrfYmmPpMvL8LmoMfnr/mSzUt+OfSo03f/9gyO6/ekt+tw5y/TFz3ZQ4gFiUFWzfczsXjPrN7P+wcHBuJuDeZpc90cufTQ0WjD48/V/eFjrX9ulu5/dqsGjY9E0EoCk8oT/R5Lyp2WclTs2b+7+lLv3uHtPR0dHGZqGKA3sHVY649p9eLSo88fd2Z8XiEk5wn+rpPPM7BwzS0q6TdKmMnwuasyalW0aPHq86PMnH+zigS4geiWHv7tnJD0g6VeS3pL0U3cfMLPvmNlNkmRml5rZHkl/KukHZjZQ6nURj8GjY3ry5Z16YP12Pfnyzmnlmt51XXOWevKdubRFEg90AXEoy0Ne7t4nqW/GsW/l/bxVE+Ug1LDZNnJ5onetXnrngLZ/eFjJBtPYeOFvgNbmhqkNXtpPSco0sYYPD3QB0eMJXxQtfyOXSYeOpXTn/35NDQnTx0fHZl3N85JV7br2wtOnQp4HuoB4Ef4oWqGNXEZSGY2lx9W6qEkuqbmxQenxrFzSeNaVkLTs1KSGRtJa/9quqaWaWa0TiFdVTfVEdSu0ANtYOqtFTQ06nslqYu1OKZEwndrcqGWnNKm5KaHOJS2zbvkIIB70/FG0Qhu5tC5qVGNDQpnxrEZSGUkmudTSlNDw8YwWNTVM+4xyz+xhTSBgYQh/FK3QRi5f+uxp+qsNb+jgsTGZpNR4Vg1makgk1LqoUQ0Jm/YZ5ZzZM9sANDuAAXMj/DEvhTZymVrK+cPDSmWySjY16JJV7VNfDJVaqrnQADQ7gAHFIfxRskJfCJMKbflYrl55oQFoHhgDikP4o6JO9sVQqsmtI/PxwBhQHGb7oGZNbh05NJrSsbEMD4wB80DPHzWr0AA0s32A4hD+iFw5p2dWsqwE1DPCH5FieiZQHaj5I1L50zN56heID+GPSDE9E6gOhD8iVWh9IKZnAtEj/BEppmcC1YEBX0SK6ZlAdSD8ETmmZwLxo+wDAAGi51/n3t43rMf63tK7Bz7RZ047VQ/dcIHO72RwFQgd4V/H3t43rFv//jdKjbvMpANHx3Tr3/9GG+//fMlfAM9v2aW//uWAjqezWtSU0LdvXKOvXL6qTC0HUGmUferYY31vKTXuSjYk1JRIKNmQUGrc9VjfWyV97vNbdumbG3foeHpiyubxdFbf3LhDz2/ZVY5mA4gA4V/H3j3wiWz6RloymzheyODRMT358k49sH67nnx5pwaPjhU8769/OTCv4wCqD2WfOvaZ007VgRkB7j5xfNLkImvbPzysNz46osZEQs2NJ19zZ7LHP9NsxwFUH3r+deyhGy5QssGUGs8qnc0qNZ5VssH00A0XSDqxyNr613ap/8PD+viTlA4dS6m5MXHSNXcWNRX+tZntOIDqw3+tdez8zjZtvP/zuvLc5eo4tVlXnrt82mBv/iJrWZcazDSedR0eSUmafc2db9+4puD1ZjsOoPpQ9qlz53e26bl7Li/4Xv4ia4saExpJZWRmGs2Vb2Zbc2dyVg+zfYDaRfgHLH8P3KWLkxo+nlZq3NVgmnPNna9cvoqwB2oY4R+w3nVd6tuxf2pjlWWLm5UZz2ptV7suWdXOmjtAHSP8A8Yia0C4CP/AscgaECZm+wBAgAh/AAgQ4Q8AASL8ASBAhD8ABIjwB4AAEf4AECDCHwACRPgDQIAIfwAIEOEPAAEi/AEgQIQ/AASI8AeAABH+ABAgwh8AAkT4A0CACH8ACBDhDwABIvwBIECEPwAEqCzhb2bXmdk7ZrbTzB4s8H6zmT2fe3+LmXWX47oAgIUpOfzNrEHS9yVdL+lCSbeb2YUzTrtH0mF3Xy3pbyV9t9TrAgAWrhw9/8sk7XT337t7StJPJN0845ybJT2X+3mDpKvNzMpwbQDAApQj/M+UtDvv9Z7csYLnuHtG0hFJy8twbQDAAlTVgK+Z3Wtm/WbWPzg4GHdzAKBulSP8P5LUlff6rNyxgueYWaOkJZIOzvwgd3/K3Xvcvaejo6MMTQMAFFKO8N8q6TwzO8fMkpJuk7RpxjmbJN2Z+7lX0r+6u5fh2gCABWgs9QPcPWNmD0j6laQGSc+4+4CZfUdSv7tvkvRDST82s52SDmniCwIAEJOSw1+S3L1PUt+MY9/K+/m4pD8tx7UAAKWrqgFfAEA0CH8ACBDhDwABIvwBIECEPwAEiPAHgAAR/gAQIMIfAAJE+ANAgAh/AAgQ4Q8AASL8ASBAhD8ABIjwB4AAEf4AECDCHwACVJbNXBCNF9/Yp4d/vkNHRtNa0tKkR2+5SNev7Yy7WQBqED3/GvHiG/t03/rtOjySVtalwyNp3bd+u158Y1/cTQNQgwj/GvHwz3fM6zgAnAxlnxpxZDQ9r+MAasPg0TFt2LZbA3uHtWZlm3rXdamjtbni1yX8a8SSliYdHvl00C9paYqhNQDKYfDomO5+dquGRlNqSiT0+p4h9e3Yr2fuurTiXwCUfWrEo7dcNK/jAKrfhm27NTSaUntLUoubG9XektSR0bQ2bNtd8WsT/jXi+rWdevKOS7T0lCYlTFp6SpOevOMSZvsANWxg77CaEtNjuDFhGtg7XPFrU/apIdev7STsgTqyZmWbXt8zNO1YJutas7Kt4tem5w8AMeld16X2lqSGRlM6NpaZeoand11Xxa9Nzx8AYtLR2qxn7rqU2T4AEJqO1mbdd9XqyK9L2QcAAkT4A0CACH8ACBDhDwABIvwBIECEPwAEiPAHgAAR/gAQIMIfAAJE+ANAgAh/AAgQa/tEKK7t2gBgJsI/InFu14baR8cB5Ub4RyR/u7ZJk9u1xbGiH2oHHQdUAjX/iMS5XRtqW5z7vKJ+Ef4RWbOyTelsdtqxqLZrQ22j44BKIPwjEud2bahtdBxQCdT8IxLndm2obb3rutS3Y/9UzT+TdToOKJm5e9xtKKinp8f7+/vjbgZQFZjtg2KZ2TZ375nrPHr+QA2Ia59X1C9q/gAQIMIfAAJE+ANAgAh/AAgQ4Q8AAWK2D4CghTqNtqTwN7Nlkp6X1C3pA0lfdvfDBc77J0mfk/Rv7n5jKdcEgHIJedG8Uss+D0ra7O7nSdqce13IE5L+rMRrAUBZhbxoXqnhf7Ok53I/PyfplkInuftmSUdLvBYAlFXIi+aVWvM/3d335X7eL+n0Ej8PQERCrXXnW7OyTa/vGZp2LJRF8+YMfzP7taQzCrz1SP4Ld3czK2mhIDO7V9K9krRq1apSPgrASRRT6w7hyyHkRfPmDH93v2a298zsD2bW6e77zKxT0oFSGuPuT0l6SppY2K2UzwIwu7l2lgtlIDTk1XZLLftsknSnpMdzf/6i5BYBqLi5at0hbTsa6qJ5pQ74Pi7pWjN7T9I1udcysx4ze3ryJDP7v5J+JulqM9tjZv+hxOsCKMFcG8SEPBAaipJ6/u5+UNLVBY73S/pa3us/KeU6AMprrlp3yAOhoeAJXyBAc9W6Qx4IDQU7eQEoKITZPvWInbwAlCTUgdBQEP4AYsffMqJH+AOIVSjPFFQb1vMHEKuQF1eLE+EPIFY8UxAPwh9ArOZ64AyVQfgDiFXvui61tyQ1NJrSsbGMjoymeaYgAgz4AhFgNsvsQl5cLU485AVU2MzZLOlsVu0tSWazoCKKfciLsg9QYcxmQTUi/IEKYzYLqhE1fwQtilp8Na+QyVhEZfzNLwf0v/7tg6nXf3Fltx65cU18DSqA8EewonqytFpXyOTJ2sqYGfySpl5X0xcAZR8EK6pa/ORsljsuW6ULV7bp9su6qiJgGYuojJnBP9fxuNDzR7CirMWXe4XMcpRrGIsIG+GPYFW6Fl+penq5yjXVPBaByqPsg2BV8snSyYBe/9ouvbl3WOtf26W7n92qwaNjJX92frmmuTGhdCar3w1+om/89Lfz+nyerK2Mv7iye17H40LPH8Gq5JOl+QE9abKeXmr5Z7JckxnP6oODI8pks3JJr31wSHc/u7XovwHwZG1lTA7qMtsHqGKV2q2qkvX0yXLNyEhGmWxWjYmEMtms2hY1zfsLht26KuORG9dUXdjPRNkHqIBKrlQ5Wa4ZHk3LpdwXgGnp4iQDtiga4Q9UQCXr6ZPlmku7l6kpYVp2SlJnL1+spoYEA7YoGuEPVECl5/Z3tDbrv3z5Yq0+rVXJpoRSmSwDtpgXVvUEahjLM2CmYlf1ZMAXqGEM2GKhCH8A0/C3iTAQ/gCmsNhbOBjwBTCFxd7CQfgDmMJib+Eg/AFMqeTDaaguhD+AKSz2Fg4GfAFMYbG3cBD+AKbh2YEwUPYBgAAR/gAQIMIfAAJEzR/AnFjyof4Q/sA8hBiCLPlQnwh/oEihhmAl9yNGfKj5A0UKdd0blnyoT/T8UfOiKsWEGoKTG8bnY8mH2kfPHzVtshSz/rVdenPvsNa/tkt3P7tVg0fHyn6tUNe9YcmH+kT4o6ZFWYoJNQQrvR8x4kHZBzUtylJMyOvesORD/SH8UdOirkcTgqgXhD9qWu+6LvXt2D81/TKT9QWXYl7Z+bEe3rhD+4aPq7NtkR699SJdsXpFBVpdn0J8BqKWmbvH3YaCenp6vL+/P+5moAaUI3Re2fmx7nh6i/L/azBJ6792eVV/AVRL4M58BiKdzaq9JcnYQAzMbJu798x1Hj1/1LxylGIe3rhDLsnsxDH3ieMv/dWXSmtghVTTQ2c8CFZ7mO2D4A0eHdPuwyOSJgI/v/u/b/h4PI0qQjU9dBbqMxC1jPBH0CZ7z/nVT5/6H6mzbVEczSpKNQVuqM9A1DLCH0Gb7D13LTtl2nHXRM3/0VsviqVdxaimwA31GYhaVlL4m9kyM/sXM3sv9+fSAudcbGavmNmAmb1hZl8p5ZpAOU32nlsXNal7+SlKJiaK/ouTiaof7K2mwOVBsNpT0mwfM/uepEPu/riZPShpqbt/c8Y5n5Hk7v6ema2UtE3SBe4+VOAjpzDbB1F48uWd+vGrH2p83HU8k9WixoQaGxL66udW1cRAZbXM9kH1iGq2z82Srsr9/JyklyVNC393fzfv571mdkBSh6SThj8QhS999jT9j83vKTXuMpM+GZOSDaYvffa0uJtWFB46w0KVGv6nu/u+3M/7JZ1+spPN7DJJSUm/K/G6CFAlerkvvXNAyxY3azyb1Wg6q5amhBoSCb30zgGd38lgJerXnOFvZr+WdEaBtx7Jf+Hubmaz1pDMrFPSjyXd6e7ZWc65V9K9krRq1aq5moaAVGpO+8DeYTU3JrS4+cT89GNjGaYoou7NGf7ufs1s75nZH8ys09335cL9wCzntUl6QdIj7v7qSa71lKSnpIma/1xtQzgq9RBRJdYGog6PWlBq2WeTpDslPZ778xczTzCzpKSNkn7k7htKvB4CNd857cWu01POtYGk6nrqFjiZUuf5Py7pWjN7T9I1udcysx4zezp3zpclfUHSXWb229w/F5d4XQRmPnPaJ9fpef/giI6ns3r/4IjueHqLXtn58afOLfcUxWp66hY4mZJ6/u5+UNLVBY73S/pa7ud/kPQPpVwHmE8Pfb7r9JRzxkw1PXULnAwLu6EmzGcjldnW4yl0vNz1efa7Ra0g/FEziu2hd7Yt0vsHRwoez3ey+nz/+4f08M93TD01++gtF+n6tZ1zXrvcYwhApbC2D+rOo7deJNNEqWfyn0Lr9MxWn/+bFwZ03/rtOjySVtalwyNp3bd+u158Y1/B6+VjmQPUCnr+qDtXrF6h9V+7fM7ZPrPV51+YJeQf/vmOonr/PHWLWkD4oy5dsXrFnJuwzFafzxR8BHHiuQKgXlD2QbBmWxWzbVHhPtGSlqaIWwhUDj1/BGu2GUT97x/Sfeu3f+r8R2+p3rX9gfki/BG0QvX569d26kldsqDZPkCtIPyBAq5f20nYo65R8weAABH+ABAgwh8AAlS3NX/WVAeA2dVl+LOmOiqBDgXqSV2Gf6V2fUK46FCg3tRlzZ811VFubNKCelOX4T+fXZ+AYtChQL2py/Cfbc0W1lTHQhXqUIykxjXw0RFd8dhm3fnDLXp7H18EqB3m7nG3oaCenh7v7+9f8L/P4BzKaWbNfyQ1rj8MH1fCTJaY2DMg2WDaeP/ndX4nf8NEfMxsm7v3zHlevYY/UG75HYqBj45o16FRJRtP/OU5NZ7Vlecu13P3XB5jKxG6YsO/Lmf7AJWQvwjcFY9tls0omppJ7x74JIaWAfNXlzV/oNI+c9qpmvmXZveJ40AtIPyBBXjohguUbDClxrNKZ7NKjWeVbDA9dMMFcTcNKArhDyzA+Z1t2nj/53XlucvVcWqzrjx3OYO9qCnU/IEFOr+zjcFd1Cx6/gAQIMIfAAJE+ANAgAh/AAgQ4Q8AASL8ASBAhD8ABIjwB4AAEf4AECDCHwACRPgDQIAIfwAIEOEPAAEi/AEgQIQ/AASoajdwN7NBSR9GdLkVkj6O6Fq1gPtxAvdiOu7HCdV6L8529465Tqra8I+SmfUXs9t9KLgfJ3AvpuN+nFDr94KyDwAEiPAHgAAR/hOeirsBVYb7cQL3Yjruxwk1fS+o+QNAgOj5A0CAggx/M1tmZv9iZu/l/lx6knPbzGyPmf3PKNsYpWLuh5ldbGavmNmAmb1hZl+Jo62VYmbXmdk7ZrbTzB4s8H6zmT2fe3+LmXVH38poFHEvvm5mb+Z+Dzab2dlxtDMqc92PvPP+o5m5mdXEDKAgw1/Sg5I2u/t5kjbnXs/mP0v6P5G0Kj7F3I8RSX/u7mskXSfp78ysPcI2VoyZNUj6vqTrJV0o6XYzu3DGafdIOuzuqyX9raTvRtvKaBR5L/5dUo+7r5W0QdL3om1ldIq8HzKzVkl/KWlLtC1cuFDD/2ZJz+V+fk7SLYVOMrN1kk6X9M8RtSsuc94Pd3/X3d/L/bxX0gFJcz5IUiMuk7TT3X/v7ilJP9HEPcmXf482SLrazCzCNkZlznvh7i+5+0ju5auSzoq4jVEq5ndDmugkflfS8SgbV4pQw/90d9+X+3m/JgJ+GjNLSPqvkr4RZcNiMuf9yGdml0lKSvpdpRsWkTMl7c57vSd3rOA57p6RdETS8khaF61i7kW+eyS9WNEWxWvO+2Fml0jqcvcXomxYqRrjbkClmNmvJZ1R4K1H8l+4u5tZoSlP90vqc/c99dDBK8P9mPycTkk/lnSnu2fL20rUEjP7qqQeSV+Muy1xyXUS/5uku2JuyrzVbfi7+zWzvWdmfzCzTnfflwuzAwVOu0LSn5jZ/ZJOlZQ0s0/c/WTjA1WrDPdDZtYm6QVJj7j7qxVqahw+ktSV9/qs3LFC5+wxs0ZJSyQdjKZ5kSrmXsjMrtFEx+GL7j4WUdviMNf9aJX0R5JeznUSz5C0ycxucvf+yFq5AKGWfTZJujP3852SfjHzBHf/T+6+yt27NVH6+VGtBn8R5rwfZpaUtFET92FDhG2LwlZJ55nZObn/n7dp4p7ky79HvZL+1evzIZk574WZ/bGkH0i6yd0LdhTqyEnvh7sfcfcV7t6dy4pXNXFfqjr4pXDD/3FJ15rZe5Kuyb2WmfWY2dOxtiwexdyPL0v6gqS7zOy3uX8ujqe55ZWr4T8g6VeS3pL0U3cfMLPvmNlNudN+KGm5me2U9HWdfIZYzSryXjyhib8N/yz3ezDzi7JuFHk/ahJP+AJAgELt+QNA0Ah/AAgQ4Q8AASL8ASBAhD8ABIjwB4AAEf4AECDCHwAC9P8BvPN3DUue4MUAAAAASUVORK5CYII=\n",
      "text/plain": [
       "<matplotlib.figure.Figure at 0x118cdb7b8>"
      ]
     },
     "metadata": {},
     "output_type": "display_data"
    }
   ],
   "source": [
    "# y_test = range(x_train_encoded.shape[0])\n",
    "y_test = np.concatenate([list(range(n)) for _ in range(int(m/n)+1)])[:m] / n\n",
    "plt.figure(figsize=(6, 6))\n",
    "plt.scatter(x_train_encoded[:, 0], x_train_encoded[:, 1], alpha=0.8, s=30) # c=y_test, "
   ]
  },
  {
   "cell_type": "code",
   "execution_count": 35,
   "metadata": {},
   "outputs": [
    {
     "data": {
      "text/plain": [
       "<matplotlib.collections.PathCollection at 0x118d2ba90>"
      ]
     },
     "execution_count": 35,
     "metadata": {},
     "output_type": "execute_result"
    },
    {
     "data": {
      "image/png": "iVBORw0KGgoAAAANSUhEUgAAAYYAAAFpCAYAAACYko+yAAAABHNCSVQICAgIfAhkiAAAAAlwSFlzAAALEgAACxIB0t1+/AAAADl0RVh0U29mdHdhcmUAbWF0cGxvdGxpYiB2ZXJzaW9uIDIuMS4yLCBodHRwOi8vbWF0cGxvdGxpYi5vcmcvNQv5yAAAFvhJREFUeJzt3X+w3XWd3/Hna3NNHNKshhAhA6QgZofB3Sm2pyztDI4VBHS2hE5pxXU0tjKhP5xOZ2c74jCuM+hOtfuH1qnOksUfaJcFZaeSursyIYrlj4rcKIuySzY/bEuyUWIImIY1MfjuH+cbPZ/be3N/nHNzbuT5mDlzv9/P9/P9ft/5cO55ne/ne84lVYUkSSf90rgLkCQtLQaDJKlhMEiSGgaDJKlhMEiSGgaDJKlhMEiSGgaDJKlhMEiSGgaDJKkxMe4CFuKcc86piy66aNxlSNIZZceOHT+sqrWz9Tsjg+Giiy5icnJy3GVI0hklyf+eSz+nkiRJDYNBktQYSTAkuT7JziS7k9w2zfbXJ/lWkhNJbpqybVOSXd1j0yjqkSQt3NDBkGQZ8AngzcBlwNuSXDal2/8B3gXcM2Xfs4EPAL8OXAF8IMnqYWuSJC3cKK4YrgB2V9XeqjoO3AtsHOxQVf+rqp4Afjpl3+uAbVX1bFUdBrYB14+gJknSAo0iGM4Hnh5Y39e1Lfa+kqRFcMbcfE6yOclkksmDBw+OuxxJ+oU1imDYD1w4sH5B1zbSfatqS1X1qqq3du2s38+QJC3QKILhMWBDkouTLAduBrbOcd8HgWuTrO5uOl/btUmSxmToYKiqE8B76L+g/yXwhap6MskdSW4ASPL3k+wD/hlwZ5Inu32fBT5IP1weA+7o2iRJY5KqGncN89br9co/iSFJ85NkR1X1Zut3xtx8liSdHgaDJKlhMEiSGgaDJKlhMEiSGgaDJKlxRv4f3E6npw+9wJ2P7OGpA0e4dN0qbr3qEi5cc9a4y5KkRWMwnMLTh17gN+/6BkePvcjyibD34FG+vvMg99xypeEg6ReWU0mncOcjezh67EVWr1zOyhUvY/XK5Rw99iJ3PrJn3KVJ0qIxGE7hqQNHWD6Rpm35RHjqwJExVSRJi89gOIVL163i+In2T4YcP1Fcum7VmCqSpMVnMJzCrVddwsoVyzh89DhHj/2Ew0ePs3LFMm696pJxlyZJi8abz6dw4ZqzuOeWK/1UkqSXFINhFheuOYsP3fhr4y5Dkk4bp5IkSQ2DQZLUMBgkSQ2DQZLUMBgkSQ2DQZLUMBgkSQ2DQZLUMBgkSQ2DQZLUMBgkSQ2DQZLUMBgkSQ2DQZLUMBgkSQ2DQZLUMBgkSQ2DQZLUMBgkSQ2DQZLUMBgkSQ2DQZLUMBgkSQ2DQZLUGEkwJLk+yc4ku5PcNs32FUnu67Y/muSirv2iJH+T5PHu8fujqEeStHATwx4gyTLgE8CbgH3AY0m2VtVfDHR7N3C4ql6T5GbgI8Bbu217quryYeuQJI3GKK4YrgB2V9XeqjoO3AtsnNJnI3B3t3w/cHWSjODckqQRG0UwnA88PbC+r2ubtk9VnQCeB9Z02y5O8u0kX09y1QjqkSQNYeippCEdANZX1aEkfw/4UpLXVtWPpnZMshnYDLB+/frTXKYkvXSM4ophP3DhwPoFXdu0fZJMAK8ADlXVsao6BFBVO4A9wK9Md5Kq2lJVvarqrV27dgRlS5KmM4pgeAzYkOTiJMuBm4GtU/psBTZ1yzcBX62qSrK2u3lNklcDG4C9I6hJkrRAQ08lVdWJJO8BHgSWAZ+uqieT3AFMVtVW4FPA55PsBp6lHx4ArwfuSPIT4KfAv6qqZ4etSZK0cKmqcdcwb71eryYnJ8ddhiSdUZLsqKrebP385rMkqWEwSJIaBoMkqWEwSJIaBoMkqWEwSJIaBoMkqWEwSJIaBoMkqWEwSJIaBoMkqWEwSJIaBoMkqWEwSJIaBoMkqWEwSJIaBoMkqWEwSJIaBoMkqWEwSJIaBoMkqWEwSJIaBoMkqWEwSJIaBoMkqWEwSJIaBoMkqWEwSJIaBoMkqWEwSJIaBoMkqWEwSJIaBoMkqWEwSJIaBoMkqWEwSJIaBoMkqWEwSJIaIwmGJNcn2Zlkd5Lbptm+Isl93fZHk1w0sO19XfvOJNeNoh5J0sINHQxJlgGfAN4MXAa8LcllU7q9GzhcVa8BPgp8pNv3MuBm4LXA9cAnu+NJksZkFFcMVwC7q2pvVR0H7gU2TumzEbi7W74fuDpJuvZ7q+pYVX0P2N0dT5I0JqMIhvOBpwfW93Vt0/apqhPA88CaOe4rSTqNzpibz0k2J5lMMnnw4MFxlyNJv7BGEQz7gQsH1i/o2qbtk2QCeAVwaI77AlBVW6qqV1W9tWvXjqBsSdJ0RhEMjwEbklycZDn9m8lbp/TZCmzqlm8CvlpV1bXf3H1q6WJgA/DNEdQkSVqgiWEPUFUnkrwHeBBYBny6qp5McgcwWVVbgU8Bn0+yG3iWfnjQ9fsC8BfACeDfVtWLw9YkSVq49N+4n1l6vV5NTk6OuwxJOqMk2VFVvdn6nTE3nyVJp4fBIElqGAySpIbBIElqGAySpIbBIElqGAySpIbBIElqGAySpIbBIElqGAySpIbBIElqGAySpIbBIElqGAySpIbBIElqGAySpIbBIElqGAySpIbBIElqGAySpIbBIElqGAySpIbBIElqGAySpIbBIElqGAySpIbBIElqGAySpIbBIElqGAySpIbBIElqGAySpIbBIElqGAySpIbBIElqGAySpMZQwZDk7CTbkuzqfq6eod+mrs+uJJsG2h9OsjPJ493jVcPUI0ka3rBXDLcB26tqA7C9W28kORv4APDrwBXAB6YEyNur6vLu8cyQ9UiShjRsMGwE7u6W7wZunKbPdcC2qnq2qg4D24DrhzyvJGmRDBsM51bVgW75+8C50/Q5H3h6YH1f13bSZ7pppPcnyZD1SJKGNDFbhyQPAedNs+n2wZWqqiQ1z/O/var2J1kF/DHwDuBzM9SxGdgMsH79+nmeRpI0V7MGQ1VdM9O2JD9Isq6qDiRZB0x3j2A/8IaB9QuAh7tj7+9+HklyD/17ENMGQ1VtAbYA9Hq9+QaQJGmOhp1K2gqc/JTRJuCBafo8CFybZHV30/la4MEkE0nOAUjyMuA3gO8OWY8kaUjDBsOHgTcl2QVc062TpJfkLoCqehb4IPBY97ija1tBPyCeAB6nf2XxB0PWI0kaUqrOvFmZXq9Xk5OT4y5Dks4oSXZUVW+2fn7zWZLUMBgkSQ2DQZLUMBgkSQ2DQZLUMBgkSQ2DQZLUMBgkSQ2DQZLUMBgkSQ2DQZLUMBgkSQ2DQZLUMBgkSQ2DQZLUMBgkSQ2DQZLUMBgkSQ2DQZLUMBgkSQ2DQZLUMBgkSQ2DQZLUMBgkSQ2DQZLUMBgkSQ2DQZLUMBgkSQ2DQZLUMBgkSQ2DQZLUMBgkSQ2DQZLUMBgkSQ2DQZLUMBgkSQ2DQZLUMBgkSY2hgiHJ2Um2JdnV/Vw9Q7+vJHkuyZentF+c5NEku5Pcl2T5MPVIkoY37BXDbcD2qtoAbO/Wp/N7wDumaf8I8NGqeg1wGHj3kPVIkoY0bDBsBO7ulu8GbpyuU1VtB44MtiUJ8Ebg/tn2lySdPsMGw7lVdaBb/j5w7jz2XQM8V1UnuvV9wPlD1iNJGtLEbB2SPAScN82m2wdXqqqS1KgKm6aOzcBmgPXr1y/WaSTpJW/WYKiqa2baluQHSdZV1YEk64Bn5nHuQ8Ark0x0Vw0XAPtPUccWYAtAr9dbtACSpJe6YaeStgKbuuVNwANz3bGqCvgacNNC9pckLY5hg+HDwJuS7AKu6dZJ0kty18lOSR4BvghcnWRfkuu6Te8FfivJbvr3HD41ZD2SpCHNOpV0KlV1CLh6mvZJ4JaB9atm2H8vcMUwNUiSRstvPkuSGgaDJKlhMEiSGgaDJKlhMEiSGgaDJKlhMEiSGgaDJKlhMEiSGgaDJKlhMEiSGgaDJKlhMEiSGgaDJKlhMEiSGgaDJKlhMEiSGgaDJKlhMEiSGgaDJKlhMEiSGgaDJKlhMEiSGgaDJKlhMEiSGgaDJKlhMEiSGgaDJKlhMEiSGgaDJKlhMEiSGgaDJKlhMEiSGhPjLkCSXiq2fns/73/guxz58QlWvXyCD278VW543fnjLuv/YzBI0mmw9dv7+Xf3Pf6z9ed/fOJn60stHJxKkqTT4P0PfHde7eNkMEjSaXDkxyfm1T5OBoMknQarXj79zP1M7eM0VDAkOTvJtiS7up+rZ+j3lSTPJfnylPbPJvlekse7x+XD1CNJS9UHN/7qvNrHadgrhtuA7VW1AdjerU/n94B3zLDtP1TV5d3j8Rn6SNIZ7YbXnc/H33o5r3j5BL8EvOLlE3z8rZcvuRvPMPynkjYCb+iW7wYeBt47tVNVbU/yhqntkvRScsPrzl+SQTDVsFcM51bVgW75+8C5CzjG7yZ5IslHk6wYsh5J0pBmvWJI8hBw3jSbbh9cqapKUvM8//voB8pyYAv9q407ZqhjM7AZYP369fM8jSRprmYNhqq6ZqZtSX6QZF1VHUiyDnhmPicfuNo4luQzwG+fou8W+uFBr9ebbwBJkuZo2KmkrcCmbnkT8MB8du7ChCQBbgSW3jc9JOklZthg+DDwpiS7gGu6dZL0ktx1slOSR4AvAlcn2Zfkum7THyb5DvAd4BzgQ0PWI0ka0lCfSqqqQ8DV07RPArcMrF81w/5vHOb8kqTR85vPkqSGwSBJahgMkqSGwSBJahgMkqSGwSBJahgMkqSGwSBJahgMkqSGwSBJahgMkqSGwSBJahgMkqSGwSBJahgMkqSGwSBJahgMkqSGwSBJahgMkqSGwSBJahgMkqSGwSBJahgMkqSGwSBJahgMkqSGwSBJahgMkqSGwSBJahgMkqSGwSBJahgMkqSGwSBJahgMkqSGwSBJahgMkqSGwSBJahgMkqSGwSBJagwVDEnOTrItya7u5+pp+lye5H8meTLJE0neOrDt4iSPJtmd5L4ky4epR5I0vGGvGG4DtlfVBmB7tz7VC8A7q+q1wPXAx5K8stv2EeCjVfUa4DDw7iHrkSQNadhg2Ajc3S3fDdw4tUNV/VVV7eqW/xp4BlibJMAbgftPtb8k6fQaNhjOraoD3fL3gXNP1TnJFcByYA+wBniuqk50m/cB5w9ZjyRpSBOzdUjyEHDeNJtuH1ypqkpSpzjOOuDzwKaq+mn/gmHukmwGNgOsX79+XvtKkuZu1mCoqmtm2pbkB0nWVdWB7oX/mRn6/TLwJ8DtVfWNrvkQ8MokE91VwwXA/lPUsQXYAtDr9WYMIEnScIadStoKbOqWNwEPTO3QfdLovwGfq6qT9xOoqgK+Btx0qv0lSafXsMHwYeBNSXYB13TrJOkluavr88+B1wPvSvJ497i82/Ze4LeS7KZ/z+FTQ9YjSRpS+m/czyy9Xq8mJyfHXYYknVGS7Kiq3mz9/OazJKlhMEiSGgaDJKlhMEiSGgaDJKlhMEiSGrN+81mS1Hr60Avc+cgenjpwhEvXreLWqy7hwjVnjbuskTEYJGkenj70Ar951zc4euxFlk+EvQeP8vWdB7nnlit/YcLBqSRJmoc7H9nD0WMvsnrlclaueBmrVy7n6LEXufORPeMubWQMBkmah6cOHGH5RPvXoZdPhKcOHBlTRaNnMEjSPFy6bhXHT7R/Suj4ieLSdavGVNHoGQySNA+3XnUJK1cs4/DR4xw99hMOHz3OyhXLuPWqS8Zd2sh481mS5uHCNWdxzy1X+qkkSdLPXbjmLD5046+Nu4xF41SSJKlhMEiSGgaDJKlhMEiSGgaDJKlhMEiSGgaDJKlhMEiSGgaDJKlhMEiSGgaDJKlhMEiSGgaDJKlhMEiSGgaDJKlhMEiSGgaDJKlhMEiSGqmqcdcwb0mOADvHXcc8nAP8cNxFzIP1Li7rXVxnUr2nu9a/XVVrZ+t0pv4/n3dWVW/cRcxVkknrXTzWu7isd/Es1VqdSpIkNQwGSVLjTA2GLeMuYJ6sd3FZ7+Ky3sWzJGs9I28+S5IWz5l6xSBJWiRLJhiSnJ1kW5Jd3c/VM/T7SpLnknx5SvsjSR7vHn+d5Etd+xuSPD+w7XeWSL2fTfK9gbou79qT5ONJdid5IsnfXSL1/mGSnUm+m+TTSV7WtS/V8b04yaPdON6XZHnXvqJb391tv+g017up67MryaaubdXA+D2e5IdJPtZte1eSgwPbbhl3vV37w93z4WRdr+ral+L4npXkT5I8leTJJB8e6D/S8U1yfTcuu5PcNs32Gccnyfu69p1JrpvrMRdFVS2JB/CfgNu65duAj8zQ72rgHwNfPsWx/hh4Z7f8hlP1HVe9wGeBm6bp/xbgz4AAVwKPLpF639LVFOCPgH+9xMf3C8DN3fLvD9T7b4Df75ZvBu47XfUCZwN7u5+ru+XV0/TbAby+W34X8F/GMb6nqhd4GOhNs8+SG1/gLOAfdX2WA48Abx71+ALLgD3Aq7vz/Dlw2VzGB7is678CuLg7zrK5HHMxHkvmigHYCNzdLd8N3Dhdp6raDhyZ6SBJfhl4I/ClURc4xUjqneG4n6u+bwCvTLJuqEp/ftwF11tVf9rVVMA3gQtGUNOpLLjeJKH/HLh/mv0Hj3s/cHXX/3TUex2wraqerarDwDbg+im1/wrwKvovXotpJPXOctwlMb5V9UJVfQ2gqo4D32Jxnr9XALuram93nnu7umf6dwyOz0bg3qo6VlXfA3Z3x5vLMUduKQXDuVV1oFv+PnDuAo9zI7C9qn400PYPkvx5kj9L8tqhqvy5UdT7u9100UeTrOjazgeeHuizr2sb1kjGt5tCegfwlYHmpTa+a4DnqupEtz44hj8b3277813/Yc2l3rn8tz35LnLwUyH/tHue3J/kwhHUOqp6P9NNv7x/4MV/SY9vklfSv8LcPtA8qvGdy3/fmcZnpn0X6/XglE7rN5+TPAScN82m2wdXqqqSLPTjUm8D7hpY/xb9r4H/3yRvoX8lsWEJ1Ps++k/w5fQ/svZe4I55HqNxmsb3k8D/qKqT72iX6viO3Gmq92b6wXvSfwf+qKqOJbmV/rvNNy6Bet9eVfuTrKI/dfsO4HPzPEZjscc3yQT9adCPV9XernnB4/uL7LQGQ1VdM9O2JD9Isq6qDnRTJ8/M9/hJzqF/6fVPBs75o4HlP03yySTnVNWsf59kMesdePdzLMlngN/u1vcDg+9aLuja5nLMxR7fDwBrgVsHzrkUx/cQ/Sm4ie5d2eAYnhzffd0LxSu6/rMaQb376d+TOekC+nP1J4/xd4CJqtoxcM7B2u6iP9c+J4tZb1Xt734eSXIP/d+7z7GEx5f+G7BdVfWxgXMueHxnOP9sv7szjc+p9l3Q68EwltJU0lbg5KceNgEPLOAYN9G/Cfnjkw1Jzjt5mZvkCvr/5jk9UWcxVL0n7xt0td0IfHfguO9M35XA8wMhMs56b6E/h/u2qvrpQPuSG99uGuZr9J8PU/cfPO5NwFenTNss1FzqfRC4Nsnq9D9Vc23XdtLb6L+j/Zkp95duAP5yBLUOVW+Sie5N2Mmpxd+gff4uufFN8iH6L8L/fnCHEY/vY8CG9D8Rt5z+1d/WU/w7BsdnK3Bz+p9aupj+Vfc353jM0VuMO9oLedCfZ9sO7AIeAs7u2nvAXQP9HgEOAn9Df77tuoFtD9O/2TR43PcAT9K/m/8N4B8uhXqBrwLfof8L9V+Bv9W1B/gE/U8ifIdpPvkxpnpPdDU93j1+Z4mP76vp/2LtBr4IrOjaX96t7+62v/o01/svu3PvBv7FlGPsBS6d0vYfB8b3a1O3j6NeYCX9T0490dX2n4FlS3V86b/LLvov+iefv7csxvjS//TeX3W/K7d3bXcAN8w2PvSnzPbQ/8vRbz7VMRf74TefJUmNpTSVJElaAgwGSVLDYJAkNQwGSVLDYJAkNQwGSVLDYJAkNQwGSVLj/wHantyM3qdy3AAAAABJRU5ErkJggg==\n",
      "text/plain": [
       "<matplotlib.figure.Figure at 0x118bfdf98>"
      ]
     },
     "metadata": {},
     "output_type": "display_data"
    }
   ],
   "source": [
    "# display a 2D plot of the digit classes in the latent space\n",
    "x_test_encoded = encoder.predict(x_test, batch_size=batch_size)\n",
    "plt.figure(figsize=(6, 6))\n",
    "plt.scatter(x_test_encoded[:, 0], x_test_encoded[:, 1], alpha=0.6, s=30) # , c=y_test\n",
    "# plt.colorbar()"
   ]
  },
  {
   "cell_type": "code",
   "execution_count": 36,
   "metadata": {},
   "outputs": [],
   "source": [
    "# build a digit generator that can sample from the learned distribution\n",
    "decoder_input = Input(shape=(latent_dim,))\n",
    "_decoded = utils.composition(decoders, decoder_input, verbose=False)\n",
    "generator = Model(decoder_input, _decoded)"
   ]
  },
  {
   "cell_type": "code",
   "execution_count": 37,
   "metadata": {},
   "outputs": [],
   "source": [
    "# x_decoded[0].reshape(150,3)"
   ]
  },
  {
   "cell_type": "code",
   "execution_count": 38,
   "metadata": {},
   "outputs": [
    {
     "data": {
      "text/plain": [
       "(90, 40, 3, 1)"
      ]
     },
     "execution_count": 38,
     "metadata": {},
     "output_type": "execute_result"
    }
   ],
   "source": [
    "x_train.shape"
   ]
  },
  {
   "cell_type": "code",
   "execution_count": 39,
   "metadata": {},
   "outputs": [
    {
     "name": "stdout",
     "output_type": "stream",
     "text": [
      "(2,) [0. 0.]\n"
     ]
    },
    {
     "data": {
      "image/png": "iVBORw0KGgoAAAANSUhEUgAAAlMAAACqCAYAAACJQ8oQAAAABHNCSVQICAgIfAhkiAAAAAlwSFlzAAALEgAACxIB0t1+/AAAADl0RVh0U29mdHdhcmUAbWF0cGxvdGxpYiB2ZXJzaW9uIDIuMS4yLCBodHRwOi8vbWF0cGxvdGxpYi5vcmcvNQv5yAAAIABJREFUeJztnXm0FdWd/feJY5TQyIyATAKCigIPUJknEXAioCKiQFwhURHJ0J3h192ZbFsTlUQU8AEKdhwTk47LbmeJSVaiLUTjAAiSIPMkg4LI5Pn98e75vn19Ve/WHd59F97+rOVyc6iqc2rXOXWL8606X+e9hxBCCCGEyI0v1HYDhBBCCCGOZPQwJYQQQgiRB3qYEkIIIYTIAz1MCSGEEELkgR6mhBBCCCHyQA9TQgghhBB5oIcpIYQQQog8yOthyjl3kXPuPefc+8657xaqUUIIIYQQRwou10U7nXPHAFgJYDiA9QBeB3C1935Z4ZonhBBCCFHa5DMz1RvA+977v3vvDwB4DMBlhWmWEEIIIcSRwbF57NsSwDr683oAfarboXHjxr5t27Z5VCmEEEIIURyWLl263XvfJNN2+TxMJcI5NxXAVAA47bTTsGTJkpquUgghhBAib5xzHyTZLp+HqQ0AWtOfW6XK0vDelwMoB4CysjJ7Qet3v/udbXPZZZdVKROFIXgLyPNiIc+LjzwvPvK8+Mjz4sA+JyWfd6ZeB9DROdfOOXc8gPEAnsrjeEIIIYQQRxw5z0x57w8556YBeA7AMQAe8N6/W7CWCSGEEEIcAeT1zpT3/n8B/G+B2pLT1JrID3lefOR58ZHnxUeeFx95XntoBXQhhBBCiDyo8a/5ssE5Z3r69OmmmzdvbvqSSy4xfcIJJ5h+5plnAACNGze2sj179pju06dy1YalS5eavvXWWwEAU6dOtTJ+uu/QoYPpjz/+2PSdd95p+rTTTgMANGlS+fXkxo0bTf/TP/2T6ZkzZ5qeMmUKAOD444+3smHDhpn+7LPPTP/0pz+tUh8A7NixAwAwZswYK9u0aZPpq6++GtXBdU+bNs1006ZNTQ8fPtz0cccdZ3rx4sUA0q/Pzp07TZ977rmm33nnHdOzZs2q0rYLL7zQdKdOnSKPN2fOHNOtWrUCAJxyyilWtn37dtMNGjQwPXv2bNNXXXUVAODEE0+0svPPP9/0McccE7lf1DmOGjXKyvh6T5o0CdXxxS9+0TR7zn138ODBpvkavfLKKwCAFi1aWFnoAwDQrVs30+++Wxl1D96F8weAIUOGmO7cubPpDz/80PS8efNMn3rqqQDSveW6+Vrcf//9pq+44goA6eO1V69eprl87ty5pps1a1alnpEjR1rZhg2V37uEsRTHSSedZJo9b9SokemBAwdGtukPf/gDgHTP2aOzzz7b9LJllWsWz58/HwAwbtw4Kxs0aJBp7ufcdx944AHToU72nOvm9peXl5sOnvN4LSsrM839n68V9/NQz4gRI6yMPb/++utRHfXq1TN90003mW7YsKHpAQMGmOZ+/qc//QlAZZ8D0j0666yzTC9fvtx08G7s2LFWxte1Y8eOprdt22b6wQcfNB3q5Ps2183jNFxjoNJzvof07NnTNI97vlZRnvP9kO8tmTz/0pe+ZPrGG280zWMzk+fh3gqke8Ser1ixwnSU51wHe75161bTCxcuNB36OXvOdfNv64IFC0wHz/nZgfs5e879PKpfsef8G5oUzUwJIYQQQuSBHqaEEEIIIfIg59x8uVBWVubDop1Ra2QcPnzYyr7whcrnPJ7CKzSHDh2qUh/rJAQPa7KdhSDK83379lnZscceG6kLfV4hXMqhFA5HxNXHfTXTdeNjcL8K8FR8TRLl+d69e62MfWYPsu2Dmdi9ezeAdM95ij+uPvb8wIEDANK9Y82eh+vD8LnWJFGec4iefWZd6D4RwsEcUmP/k3i+f//+Km1jzcc4ePCg6XAtatPzjz76yMrYZ+53hfY8hIPjPI+rj1+piPI87n4Y5Tmfa01SKp6H0CSH1I4mz51zS733ZZm208yUEEIIIUQe6GFKCCGEECIPSuprvmKF9phCTIOXenivOuJCPTV5TvzFSTZwm7KZ1i1WSC8pcVPgNek5fyWTDdwmbncmihVeSgqHfeLCZIWGv6DKBvac252JYoWXksJt5/5Qk57zl4LZwG3icFUm+P5ZCtSG5/xFaTYcLZ4HNDMlhBBCCJEHepgSQgghhMiDkpqLP5LDZUcqpRYCqwuUWgisLlBqIbC6QKmGY45m5HntoZkpIYQQQog80MOUEEIIIUQelFS8gRchE4UhUxZxeV545HnxkefFR54XH3leHDL5HIVmpoQQQggh8kAPU0IIIYQQeVBSYb5cptZEfsjz4iPPi488Lz7yvPjI89pDM1NCCCGEEHlQUjNTvLz8LbfcYrpZs2amR48ebZrXjnnuuecApC9tv2/fPtM9evQw/dZbb5m+4447AABTpkyxslGjRpnu2LGj6d27d5v++c9/bvq0004DADRt2tTKNm7caLpevXqm7733XtPXXnstAOCkk06ysgEDBpjm7PEzZ8403bJlS9O7du0CAFxyySVWtnnzZtMTJkxAdfAy/tOnTzfN5zJkyBDT7PmLL74IAGjdurWVffzxx6bPOOMM08uXLzc9a9YsAMBVV11lZYMHDzbdqVMn0yEjOQDMmzfPdPCcr/fevXtNs6dz5swxffHFFwNIT6/Sq1cv0+zH/fffb5rrCZnZR4wYYWUbNmwwfd1116E6uG0zZswwzf28f//+pnntmJdeegkA0KFDBysLfeDz5StXrjR93333AQCuvPJKK+O+xvtt377d9IIFC0y3bdsWQLoXBw4cMM2pLGbPnm165MiRAIAGDRpYWVlZZRJ2Hh9z58413aRJE9PB86FDh1oZj7FMnnMKo5tvvtn0qaeeavqCCy6IPJfQz+PuBcEXIN3z4MEVV1xhZf369TPdvn1709u2bTP94IMPmm7Tpg2AdC8OHjxomvtruMZApef169e3MvacyzN5zuOf+/mkSZNQHVwH31uaN29u+vzzzzfN6YoWL14MIN7zMP4BYNWqVabDWGfP+/bta7pdu3amt2zZYnrhwoVVtonznMcv38/D7wb3tZ49e5rmew57zuM+jGW+H3I/z+Q518Gecx1xnr/88ssA0u/bO3fuNB3neXl5OQDgy1/+spWx5zw++LfpoYceMh3l+f79+02ffPLJprmfh+cBvofwbz33wdBOIL0PhnMcNGiQlW3atAnZknFmyjn3gHNuq3PuHSpr6Jx7wTm3KvX/3JJQCSGEEEIc4SQJ8y0EcNHnyr4L4CXvfUcAL6X+LIQQQghR53AcSordyLm2AJ723p+V+vN7AAZ57zc551oA+L33vnOm45SVlfklS5YASF8PI7w0x1OpnOaE08wUOuXMp59+CiA9fJVtipXDhw8DSA9TxrUzyu9ipdGJ8nzHjh1WxlO+rAuR/oTPO0yh8tQtT53Hpf4IPgOV143bFpclncO94dpy6KwQ/vP58fGiPF+/fr2V8XnzVHVcWohQT5I2f/bZZ6b//ve/V6mDQwJxWds5jPfJJ58ASB8fHA5jzzkkE/oSb1uINEZ8flx3lOfh/IF0DzgMwO1jsvGc+2gIbbPPDRs2NM3Xno/N/TXKc96Pz5vDs2Eb3jZuHMf13Sj4/LhNUZ5zyJN9Zj/Yc647XNsk9/5Dhw6ZXrZsWZX6GjdubJrvOQx7vmfPHgDp58d9hss5bBW24Tri7mVxv7tR58jnx9cwyvMVK1ZYGXvAIXYe67l6zr/VmTxn75jQt4Fozzlcyv2cQ3BhG/Y8073z82Ty/LjjjlvqvS+rstHnyPUF9Gbe+3BGmwE0q25jIYQQQoijlby/5vMVj3ux01vOuanOuSXOuSX8kqUQQgghxNFArvGbLc65FhTm2xq3ofe+HEA5UBHmq7YxNIVZrNBX3NR+NmQTsijWeSUlLrzG06qFgM+bv6DKBvY5bro+Cj7HmiKb6xoX5kjSj7Kph6/h6aefnng/hvsEhwoyweGsbMgm5JRNHz3llMpvZLjvJAlhZ+M5X8Ozzjor8X4M94m48GsU/IVSTZHNvY6/+owLfcV5m8215WvYrVu3xPsx7Hk294tWrVrlVF82/Tyb1yziwmuF9pyPd8455yTej+G+nc39nL8qzIaa8jyQ6y/mUwDCN5qTACghkBBCCCHqJEmWRngUwF8AdHbOrXfOXQ/gdgDDnXOrAAxL/VkIIYQQos6RcS7Le391zF8NjSnPmVILgdUFChHmFNnBX6mUOsUekzVVH4f5Sp2jxXMO85U6hX6tobbq4zBfqXO0eG7Hr9GjCyGEEEIc5ehhSgghhBAiD0oqNx8vQiYKQ6Ys4vK88Mjz4iPPi488Lz7yvDhk8jkKzUwJIYQQQuSBHqaEEEIIIfKgpMJ8uUytifyQ58VHnhcfeV585Hnxkee1h2amhBBCCCHyoKRmpjhVwS233GK6adOmpkeNGmWal7R/9tlnAQBNmjSxMs5K3b17d9Nvv/226TvvvBMAMHnyZCu76KKLTHMajt27d5u+5557TLdu3RoA0KxZZb7nDRs2mOZl/efOnWv6mmuuAZC+rH6/fv0QxS9+8QvTLVu2NL1z504AwMUXX2xlnFV74sSJkccLcN0zZswwzakpBg4caJozcj/33HMAgHbt2llZyP4NpHv33nvvmb733nsBAFdeeWVkHbzf9u3bTc+fP990qDPuevP6WXPmzDE9cuRIAOnrDpWVVSYE51QS999/v2lOjxLOcfjw4VaWjee8zhT3c06z079/f9Ps+fPPPw8A6Ny5s5Vxxns+xqpVq0yH/jN27FgrGzRokGm+hlu2bDH94IMPmu7QoQOA9L4RMs0D6eMxXGMAGDZsGID0a8WecyqJ8vJy07z9Rx99VKXNGzduNJ2r5+zjBRdcYJr7zyuvvAKg8vwBYP/+/ab5/rRs2TLTt99esZYx9/OhQyuX52vTpo1pzlvK/S60L9xjgPT7CbfjrrvuMh36Jqfe6Nmzp2nuUwsXLjTN97DQpsGDB1sZ39fGjRuH6qhfv75p9pzTj/Tp08c0e/6Xv/wFQLpHBw8eNM3rKb311lumf/SjHwEAJkyYYGU8TtkPvrfMnj3bdJcuXQCkjwke/6EvApXXGABGjx4NAGjbtq2V9ejRwzT/vj3yyCOmW7RoYTrcR/h+uHbtWtNjxoxBdXCqqunTp5vm37/evXubZs9fffVVAOmeHzhwwDR7/re//c30T37yEwDA1VdXLkkZxjyQ7jn3c74vB8/bt29vZbxOWfidA4A77rjDdPjdi/Oc15Z69NFHTfNvaLiP8D133bp1yBbNTAkhhBBC5IEepoQQQggh8sBxJuWapqyszC9ZsgRA+noY4aU5nlLkKVGeqit06oMQIuEQBdedpL7Dhw9X2TZu6XoOi2TattBEec7hKQ5xcfiPQwK5wue9Zs0aAOnhCg4JxKW44Wn+cN34Wp1wwgmm2dOPP/7YdLjOXEch/Ofz4+NFec6hoAYNGkRq9p/7VehrSdp86NAh02+++WaVOjikE5fiZu/evVU0Z1TnEB1fi/Xr15sOoQe+3nF9in3k844ah3x+3KYoz1944QUr47ADh1i4fVxfCKVxHXH+f/rpp6ZDnRx65TAGXwvmww8/rHI8ro/3Y8/DvRWoDNVweIqvFd/32UeuJ2gu43s0X8MozzmUFcI4QHpIhsc9E0L2XAefK8N99MknnwSQ/qoAh3I5VMUe8H0wXG8+b96P2xFeLwGArl27AkjvU3x+XB/3Ez5e6GNcxqFcvm9Fec5h+bPOOst0kn4X7pN8H+U+z7DnTzzxBACgY8eOVnbGGWeY5nA9e8Ah49CveNxx+Jz9eOqpp0yfffbZANLDdnx+XB+/BsLnFTSX8fU56aSTlnrvK99LiEEzU0IIIYQQeaCHKSGEEEKIPCipr/mSTKMXGg6n5Erc9HMUxc6UnQkO7/AUcjbnlAQ+b55yzgbuH3HhgSj4C5ds4CniTOHebK4rT19zaInPL66+bK4Lh6579eqVeD+GQ78hTJQk9M1fQtUUcSGIKDjswF9ychgp7hrGhZ2jYL9yXfOH2xeud6aQJ5D+NVIm4l5JyPRKRTYhf/5Sj8NkcSF2ri+MiyR9jcf3V77ylcTtYzgUFcZNktdL+OvYQJL7RqbwJe+XTf/r27evaT4n/p2LO6+o+yT/PZ8Xh9K++tWvVtk2CfyaQfAjyasy/KVmVNvi2sHhy6hXeXi/XJ4LSuuXXQghhBDiCEMPU0IIIYQQeVBSYb5SC4HVBTjMVOoU+kvO2qqPQx6lTrHHZE3Vx4teljocni0G2YRLs4EXOc2WYo/1bEJpmUjS9pq6xp06dcp530ztjvv7XK9VIV6xyaYNhfgqvTr09CKEEEIIkQd6mBJCCCGEyIOM87vOudYAHgLQDIAHUO69/4VzriGAxwG0BbAGwJXe+51xx0kCL0ImCkOmL4rkeeGR58VHnhcfeV585HlxyOVL3CQzU4cAfMt73xXAeQBucs51BfBdAC957zsCeCn1ZyGEEEKIOkXGhynv/Sbv/V9T+mMAywG0BHAZgEWpzRYBuLymGimEEEIIUapk9RmHc64tgO4AXgPQzHsfEhptRkUYMC9yXeRO5I48Lz7yvPjI8+Ijz4uPPK89Er+A7pyrB+BJADO89x/x3/mK5UcjMyY756Y655Y455Zs27Ytr8YKIYQQQpQaiWamnHPHoeJB6mHv/W9SxVuccy2895uccy0AbI3a13tfDqAcAMrKyiIfuAK8xPuMGTNM87L4o0aNMs1rdTzzzDMA0lN1cJboc8891/Q777xj+u677wYAXHfddVZ20UUXmebs47t27TI9a9Ys02ENG66bM2LzWk7z5s0zPX78eADpKSguuOAC07zmzj333GOaM2Tv3Fnxzj/7snnzZtMTJ05EdXDbpk+fbrp58+amBwwYYJrX6ggZ03k9Gfacs8OvXLnS9OzZswEA48aNs7KBAwea5nQz27dvN/3AAw9UOTb3Dc70ze28//77TY8YMQIA0KhRIyvr2bOnab4W5eXlpnltqJBdfciQIVaWjeecwof7OfvFqUE4DcJLL70EIH09Gc4qz31wxYoVpu+8804A6ekvhg4darpNmzam+R898+fPNx2ywrdq1crK2OdDhw6Z5vExePBgAOlrPZWVVSZh52Nw1nv2PIw97ifs+RVXXIHq4H7+jW98wzSnPOndu7dpXndo6dKlAIBTTz018tichuONN94w/f3vfx9AevqLkSNHmubrHcYxAMycOdN0t27dAKSnw+E0HJs2bTJ92223mb700ksBAJ07d7ays88+O7L9v/3tbyOPvXVrxS2dfVm/fr1pvk9GwWPp29/+duR+4fyA9Pv56tWrAQANGzaM/HseE3/9619N33jjjQCAyZMnW1nwAkjv52EcA8Ctt95qOpxv9+7draxFixamP/jgA9M/+MEPTF9zzTUAgDPPPNPK+F52+PBh06+88oppHrPhfte1a1crW7t2rel+/fqhOtjzb33rW6Z5xoqPzZ6G8+JUMfz3PE7DmAAq08mE/wPpnp922mmm9+7da/rf/u3fTJ933nkA0scje75mzZrI/aZMmVLlnLg+9vzVV181zb8bwfNwfwPS+3lSMs5MuYrVsBYAWO69v5v+6ikAk1J6EgB9RiCEEEKIOkeSmam+AK4F8LZz7s1U2fcB3A7gCefc9QA+AHBlzTRRCCGEEKJ0yfgw5b3/E4C4tdqHxpTnxL59+0xzyC9J9u4uXbokroenrUOoLS6LN9fHU6j/+Z//aTqEN+LayTpMSzJJUmjMnTs34za5sHz5ctMnn3xypOYpdSZ4nmQpf/Y8TOnWr1/fyjhUwj5zqOcnP/mJ6RBO5FQYcdnohw0bZjqcC6cyiMraDgB33XVX7Pl8ns8++yzxts8995xpDqfy1HNcmp8QQozrowyHqIO/HMbhsBtP7XNoJYSqgMrxyXXzNeRyridM13Mdcakk/vVf/9V0VAZ5Ljtw4EDkMaL493//d9McSudwKZ83Z6EPoTK+JjwmeFsOX44ZMwZAeoiOPeD+yn5NnTq1yrH5vHmscJs5bBvCZxxm4v24v15yySWR5xU03xuzSRHD44595j7Px+b7/6pVqwAA7dq1i9zvo48qX9tl70Kf51A6wz7yubIHYd/du3dbGfdzro+Pt2fPHgDp9yS+D3EYnP3nbXr06AEg/bpyn8lE2B9ID3exH1wfv7ry/PPPA0gPmXH/4fHGfoTwN5/3wYMHTfP4YC688ELT4Xw5dM/Xhz3YsWOH6RAO5nayt/wKBL/2wO0LfTPJ/bc6tAK6EEIIIUQe6GFKCCGEECIPXNwUXE1QVlbmlyxZAiB92fvwpUHc1KcoDFGe83R5XOirVK4F99ViZJUvRH1Rnm/cuNHKOPTCIY+ayiqfLRyaiAqHFvo6FKK+KM/fe+89K+OvpzjUxprrCfelXM812/34i6fQJ+LCuqyj+muSPsyhEA7VBOLC4EyU56+//rqVcciJw/j8OgHfZ0JIKcm9h7cJ55vk1RD2Jny5CFSGxHg8JvE81MlfkMW1I+oa8zZJ7r9Rnv/5z3+2Mg6RsuccwuJjh6+huQ/EPR9w+8L4SNJmPh5/8R7ug/wbxNvysdnfUB5VBqR7zl9vcggxbMPn/blXDJZ67yvj9zGUxq+kEEIIIcQRih6mhBBCCCHyIKt0MjVNqYST6hL8VUapU4zQXjHqi1v8sRSJCvscifXx4pXZUuz7Eoe+siGqvybpw3Ff6+ZLr169ct6XQ181BXvDX+jlS5I+nMvXYkngL1WzJe4L20wkCQMH2HNe/DcbosZjkjFa0791enoRQgghhMgDPUwJIYQQQuRBSYX5+OsEURgyZRGX54VHnhcfeV585HnxkefFIZPPUWhmSgghhBAiD/QwJYQQQgiRByUV5stlak3khzwvPvK8+Mjz4iPPi488rz00MyWEEEIIkQclNTPFKTSmT59umtM/jBw5MnL7Z555psq2n3zyielzzz3X9DvvvGN65syZAIBrr73WykaMGGE6ZCEH0jNs33fffabDukGc1Xz9+vWmOWP3vHnzTI8fPx5A+roy559/vmleO+Oee+4xzetzhAzao0aNsjLOvD1x4kRUB7ft5ptvNs3nMmDAANO8/suzzz4LIN0jTpPQtm1b0ytXrjQ9Z84cAMDYsWOtbODAgaY5DcL27dtNL1y40HTr1q0BpK8Pw1nnee2c+fPnmw6Z7Bs1amRlPXv2NM1pF8rLy01zRvGQgmfIkCFWlo3nvN7JLbfcYrpDhw6m+/fvH3kuL7/8MoB0zzmbO/f/d9991/Sdd94JAPjyl79sZcOHDzfdpk0b09u2bTO9YMGCKu3j1CC8Ng2nJeH+OnTo0Cr7sec8jhctWmSar+2HH34IAOjXr5+VbdmyxTT3pSi4n3/jG98wzevy8LpI7Pmbb74JAGjRooWV8djkY4d0WQDwve99DwAwYcIEK+P7F/dzvrfcddddps855xwAwJlnnmllPDbXrVtn+vbbbzcdZii6du1qZaw5ddfTTz9tmj0PY6979+6R9XH/iYLXUvrmN79pevTo0abPOuss09wP/vGPfwAAGjRoYGV87+Hrs3TpUtM33HADAGDy5MlWxrM13M85vciPf/xj03369AEAlJVVZhBhz9esWWP6hz/8oekw7vmc+B7IqZL+8pe/mG7cuLHp0M87depkZew5/z5EEdfPL7nkEtPcD9jTcF5xKa5Ys+df+9rXAABf/epXreziiy82Hec5exc87927t5XxeAv94fP7XXfddQDSxwfXx56/9tprpvn+H35DO3bsaGXseVI0MyWEEEIIkQd6mBJCCCGEyIOSCvNxiIin0eOyQDNdunRJXA9PJYZQG09hxtXH4bjbbrvNdJhKjMsQznrKlClV2pNkKfy5c+dm3CYXOBTE58f6xBNPjNw3eJ4kZQV7HjRPJ/N0PoeOOLz2ox/9yHQI4fK14v24nMNx4Vw4nBeXDoHDLZngsEkmeC0YDtlyiIVDJOzvVVddBSBZhnYOMYSwCNfH0+HsP+t//ud/Nh2yynN9vC23idsfwns8tc7+c3b473znO6Y/l7m9St0c3szEtGnTTHPYmkMeHH7l6xmuC/99XPu7detmevDgwQDSw3kchuF7DnsTQhdApadcB4e4OE1OCAkClZ7zNeY28/n17dvXdNQ9gMdVCK8ngcc898W4PhPC5wDwxz/+EUD6+fExQmgGSL+PhFcu+J518OBB03ze3Jc4ZBnax2Fk9vyUU04xzWGr8GoHh+i4Pu6vH3zwgWnu5yF8z+F67jOZ4NdZWrZsaZrHI3vOPobXNnhM8KsHHMbnNoVwHB+Xt2UP+FxD+B8AGjZsCADYuHGjlfH44D7DbV69ejUAoH379lZ2+PDhyHYsX77cNG8f+hj/1uSS0kkzU0IIIYQQeaCHKSGEEEKIPHA8fVzTlJWV+fC1C4c6wtcWcdOBScJIIjNRnvPUOk+Nc+bzJGHIYsB9tRh9ohD1RXnOX3rGfa3EujbhEEmYxq/Jsclf30SFzZPUF+U5f8HLXwlxCIs11xPCBknq5m1C/8nWr6gxmSSsG0VcH2bNX8HyF3Vhm7jXF5goz/mLNQ7RcbiRw09cTwgp830o7reKvQm/IUn84uNt2LDBdAgbxr3ewMfmkFIojyoD0r3j8CCHEMM2fN5x1y3K8z//+c9WFuc5h+jYm9APknjO24TzTfKbwcfjL+aC59xOho/H/oY6+b4Rd+15XGXynPf7whe+sNR7X/lpZwwZR6Vz7kTn3P855/7mnHvXOfejVHk759xrzrn3nXOPO+dK4+4vhBBCCFFEkvwTZz+AId77cwCcC+Ai59x5AO4AMNN7fzqAnQCur7lmCiGEEEKUJhm/5vMV83J7Un88LvWfBzAEQFiNbhGAHwKYk09jSiWcVJfgL5RKnWKHe2uqPv6irtThsE8x4Kn2QsILKWZL3Neemci1/xRyTCZpA4c3C0mmBSarI9c2ZXOt2Jtcx2TUb1aS37Gauu/yIrTZEhdiy0SunvPIdIXDAAAVyElEQVQivvnWl+S1CP7qsyZI9PTinDvGOfcmgK0AXgCwGsAu730IVK4H0DJm36nOuSXOuSW8srIQQgghxNFAoocp7/1h7/25AFoB6A3gjKQVeO/Lvfdl3vsyXsdBCCGEEOJoIKs5de/9LufcYgDnA2jgnDs2NTvVCsCG6vfODH+dIApDpizi8rzwyPPiI8+LjzwvPvK8OGTyOYokX/M1cc41SOkvAhgOYDmAxQDGpTabBEBXUQghhBB1jiQzUy0ALHLOHYOKh68nvPdPO+eWAXjMOXcrgDcALKjuIEIIIYQQRyNJvuZ7C0D3iPK/o+L9qYKRy9SayA95XnzkefGR58VHnhcfeV57aC0CIYQQQog8qJlFXXKE17SZPn26ac6gPXLkSNO8tsT//M//AKjM8A4An3zyiWnOps2pJWbOnAkgPVP7iBEjTHPW7F27dpm+7777TIdM5c2bN7eytWvXmuY1RebPn296/PjxANIzVPPaLLxeyaxZs0xzNvCQQXvUqFFWtnnzZtMTJ05EdXBqgWnTppnmlBv9+/c3zdfoueeeA5Du0Z49e0xzZu6VK1eanjt3LgBg3LhxVjZgwADT7dq1M719+3bTixYtMh3WheHrzSkaOBXEggWVEehwbUOWcgDo0aOHaV5rpby83DTXs3v3bgDA4MGDrYwzzGfynNc7ufnmm023bt3adN++fSPPJWR2P+OMyg9qOR0IX7cVK1aYDv318ssvtzJuf5s2bUxv3brV9C9/+csq7eP+xymguL/OmzfP9KBBgwCkjw/2nNcU4mvF2+/cuRNAej9hz8NYioM9v+WWW0x36dLFNI899vyPf/wjgPT0HJxmh79SfvPNN03/7Gc/A5Dez4cPH26aPedlYx544AHTYWxx3Xw/4RQZ99xzT5V6eL/u3SsDDLxWz2OPPWaa+3loE69dtHHjRtNjxoxBdXCqJPb8nHPOMd27d2Vwgz0PqWh4THAakUaNGpl+4403TN96660AgAkTJljZsGHDTMd5zv21Y8eOAIDTTz89sj4eH3fffbfpcA/m+yH/7vAaS7/+9a9Ns+ehT7PnnH7q0ksvRXWccsoppvk3tFu3bqZ79eplmj0PqWh4/SdO0xLXz2+77TYAwNVXX21lQ4cONc3HY+/4tzB4zt7xPZp/B8JvNlDpeVw/Z8+ffPJJ0/xMEdrE4589T4pmpoQQQggh8kAPU0IIIYQQeeDiskLXBGVlZX7JkiUAojNeHzhwwMriMj8XOsVHCAVyyDAu03ccYSo0rp2sOSwSKFYanSjPeTqTQ1wceuQM20zoO0k84in61atXA0gPvXC4kcM+fOz9+/ebDteNrxXvx55yeDZcZz7XXNOFMHHhrijPOSzB4QOeoq9Xr15kPcHHJGOC/XrttdcApE9vcxgtLtVCCGkClZ5z3bwf+xiuMVA5Xc/bcniBYR+jxhCXcaiNw89Rnv/mN7+xshBSANJDlnEehDAq1xHXZ/bu3Wv6v//7v6vUx6Hvxo0bRx5j06ZNpvmeGLUfp99ZvHix6RCi4rAvjzG+73M/4Wsbjs3nytvyNYzynEO2Z599tmkO43OfZ0K/4zrYf24/v1rwyCOPAADOPPNMK+vUqZNpDqnxMfi1jHA/577GIS72nM871MmhRD4/7tvcZj5euD/xuXIYn+9bUZ4vXLjQyrp27Wo6iechZMyex6V34lcqnnjiCQDprx5wn4/zfN26dabDWI7zPG58B885lBjnOY9NPq9w7DjPTz755KXe+zJkQDNTQgghhBB5oIcpIYQQQog8KKmv+XjqLS5MVmhyzZTNZJPpvlghvaRwaIPDeUnOKZvrwqECnnbPBg7FxoUeo+BQWjbwlHSmc83musaFXvj84urLpq/xdP3AgQMT78dw+8LXWUmuO4cYciVTPTwtnwn+woe/EmKP4kKnIeQd1x7uJzyeJk2alLh9TFR4I0lY9+KLL662bUn6VNQrDrxfXHg2Cv7ykkOTfIy4VypCqCZJX+PryV8kRx03jvBFNlA5DpO8tsFf7obyOM/5ePxKQtSY5v2y+Y3ir4D5vsf1xXmezfhmz7/+9a9X+fskx+D7YDaeX3PNNVXKk3jOvxlR945cPbe6st5DCCGEEEIYepgSQgghhMiDkgrzlVoIrC7AYZxSpybDvcWsj7+iK3WyCSsWgkJ8WRkFf82ULZn6QaH7STahtEwkaRuHlwsJf9GVLcX+Lcj1dY8of5N4ns1rCtkgz+Mp5LiKQk8vQgghhBB5oIcpIYQQQog8KKkwHy/GJQpDpizi8rzwyPPiI8+LjzwvPvK8OGTyOQrNTAkhhBBC5IEepoQQQggh8qCkwny5TK2J/JDnxUeeFx95XnzkefGR57WHZqaEEEIIIfKgpGameIn3GTNmmOZUBKNGjTLN66M8/fTTANIzVHOW6B49eph+++23Td99990AgMmTJ1vZiBEjTHfo0MH0zp07Td93332mw7L4vDz+mjVrTHOKifnz55ueMGECgPSl/i+44ALTvO7HrFmzTLdu3dr09u3bAQCjR4+2si1btlSpIw5eZ+qmm24yzT5yWgj2/PnnnweQnrE7ZB4HgM6dO5teuXKl6Tlz5gAArrzySisbNGiQaV4TKJwfADz00EOmw1pN3M4dO3aY5jVMOJN68ImvCfcNXv+Fs95zPbt27QIADB061MrYc04xEUVI2wAAN954Y5VzAtL7AbcpeM4esefcX1etWmW6vLwcADBu3Dgr69+/v+m2bdua3rp1q+lHHnmkSvvYC84ez/34wQcfNB3GU5znvN+iRYtM87jfvXs3gPR+wu3M5Dlnko/r53369DHNa9K8+OKLANI9D+0BgPbt25t+//33Tc+bNw8AMHbsWCvr16+faR43fC6PP/646SjP9+zZE9lO9m748OEA0sc3p9SpV6+e6f/6r/8yzWlCwjlyKqJt27aZzuQ5H4v7OZ9Lr169Is/lpZdeApDueRh3QLrnq1evNh3ur9zPeSyx5zxmf/WrX1VpXxLP+Z40bNgwAJXphwCgZ8+eprn8l7/8pWn2KYxlvudy37juuutQHZxC5oYbbqhyTgBQVlYWeS4vv/wygHTP+Z7K9xb2PNwnk3i+efNm07/+9a9NN23atEo74zzn/hrlOd9buPzhhx82zfeDcA/j+yF7npTEM1POuWOcc284555O/bmdc+4159z7zrnHnXM1s/KbEEIIIUQJk02Y7xYAy+nPdwCY6b0/HcBOANcXsmFCCCGEEEcCjrMtx27kXCsAiwD8B4BvArgEwDYAzb33h5xz5wP4ofd+RDWHQVlZmV+yZAmA9PUwwktzBw8etDIOcSXJmJ4r+/btA5Aevsq2vkOHDlXZL25p/s8++6xKWbGW8Y/ynKftOZzEoZeoDNvZwue9bt06AOlhH64vLtUC949PP/0UQHr6kbhryOHesD1PGxfC/7is5VGer1271so4HMmhl7jUB6GeJP3y8OHDpkOYlae3OQTE7eBjB5+BSh/Zc96Pyzk8EK4nb1uINDV8flx3lOccluCp//r165vmPsgehL4bl8We4T66fHnFvz3Zc+7zcamcPvnkE9NRnnP7uZzHcug/XEfcOI77DYg6x3CvA9KvYZTnHPLka88exPW7TJ5zm7lNy5YtA5DMcz4e3yNCeInPj8cme87hoNB/eNu4VD015Tn3c+7PhfCcKXQ/D6G2UvT8uOOOW+q9L6uy0edI+ivycwD/AiD8IjYCsMt7H2pcD6BlwmMJIYQQQhw1ZHyYcs5dDGCr935pLhU456Y655Y455bwv5yEEEIIIY4Gksy19wVwqXNuFIATAdQH8AsADZxzx6Zmp1oB2BC1s/e+HEA5UBHmq64insorVuiLp0JzJZuQRbEzc2eCQwY8PcrXohDwebdp0yanY3CYIpvQY9w0cybiQndRZBN+jgtvJulH2dTD17BLly6J92M45JpN1vUmTZrkVB+HgzONlWz6KIcgOMzB/SjO22zGLB+vW7duifdjuE/w+MzEqaeemlN92Xiezb2uJj3n/fh455xzTuL2MVGeJxlrLVvmFpCpKc/5S+EjqZ+Hth6JntsxM23gvf+e976V974tgPEAXvbeXwNgMYDwLeQkAEoKJIQQQog6Rz7TJN8B8E3n3PuoeIdqQYbthRBCCCGOOhJ9zVco+Gs+IYQQQuRG1Nd8ovA45wr6NZ8QQgghhIhAD1NCCCGEEHlQa7n5eIpSCCGEENWTKZyn39XCkEvYVDNTQgghhBB5oIcpIYQQQog8qLUwn74+EEIIIQqHfldrD81MCSGEEELkQUm8gB6epnmJ929/+9umGzVqZHr06NGmOdXFU089BQBo1qyZle3atct03759Tb/xxhum77jjDgDA1KlTrWzUqFGm27VrF3m8e++913Tjxo0BpC9zzxnTGzZsaHru3Lmmr7/+egDpS/MPGDDANC+t//Of/9x027ZtTW/ZsgUAcOmll1YpA4Dx48ebjvKcl/SfMWOGaU4FMXDgQNOcUuSFF14AADRt2tTKPvzwQ9O9evUyHbK5A8Ds2bMBABMnTrSyIUOGmO7QoYPp7du3m160aJHp+vXrAwCaN29uZWvXrjXNnvN+V111FYD0dAF9+vQxzSlKeD+uJ+SYHDFihJVxJvNrr73WdJTnnN5m2rRpptnzfv36meZ+vnjxYgCVfQ4AduzYYbqsrHI5lJDNHajsd9dcc42V8XVlzzmH5sMPP2w6tJvH2Pr16yPbz/uNHTsWQLq33Df4WvB+Uec4bNiwyHZOmjTJdJTnnMLnxhtvjGzz+eefb5r7+e9//3sA6SlyuF+y5ytWrDBdXl4OAJgwYYKV8fhmz7n/PProo6br1asHIN3zdevWmeZ+zvuNGTMGQLrnPXv2NM33HN4vynMem3zekydPNh3lOac2ueGGG0yz5+edd55p9vyVV16p0p4kns+bNw9AvOft27c3zZ4/9thjpkM6mbh+nslz/h3jdnI/5/oyec79fMqUKaiOJJ737t3bNN//g+fcz7nuOM/nz58PID/PQzoZvs8m8fzyyy8HkO4531u4/8d5vnPnTgDA4MGDrYz7WlI0MyWEEEIIkQd6mBJCCCGEyINaSycTNS18+PDhyoZRiCubbNbZcuDAAQDpU7DZ1heyUXOb47JfR/mdJFN2IYjyfN++fVbGU6L5+JGJjz76CED6tH6S+ti7cN24zazZ00OHDlU5Vi5ZwXMhyvO9e/daGbeZQy9cXgjCVDZP6yepjzOt79+/H0C6d7wfX7eDBw9WORbXV5NEeb5nzx4r4zYff/zxkeWFIIRsQggDyN3zJGMzjAmGz68mqUue870lqp/L86OrnyudjBBCCCFEEdDDlBBCCCFEHtTa13xR8FResUJfhZgezCYMVqzzSkrcdGxNtjN8iZct3Cb+wi0TxQrpJSVuyr0mw9n8NU82cJs4RJiJYoX0ksL9pVie8xdI2ZCr58UKLyVFnhcfeV57aGZKCCGEECIP9DAlhBBCCJEHRf2azzm3DcBeANmviFU3aAx5E4V8iUfeRCNf4pE30ciXaOq6L228900ybVTUhykAcM4tSfKZYV1E3kQjX+KRN9HIl3jkTTTyJRr5kgyF+YQQQggh8kAPU0IIIYQQeVAbD1PltVDnkYK8iUa+xCNvopEv8cibaORLNPIlAUV/Z0oIIYQQ4mhCYT4hhBBCiDwo6sOUc+4i59x7zrn3nXPfLWbdpYRzrrVzbrFzbplz7l3n3C2p8h865zY4595M/TeqtttaGzjn1jjn3k55sCRV1tA594JzblXq/7kt6X2E4pzrTP3iTefcR865GXW1zzjnHnDObXXOvUNlkX3EVXBP6r7zlnOuR+21vGaJ8eVnzrkVqXP/rXOuQaq8rXNuH/WdubXX8ponxpvY8eOc+16qz7znnBtRO62ueWJ8eZw8WeOcezNVXqf6TDYULcznnDsGwEoAwwGsB/A6gKu998uK0oASwjnXAkAL7/1fnXNfArAUwOUArgSwx3t/Z602sJZxzq0BUOa9305lPwWww3t/e+pB/BTv/Xdqq421SWosbQDQB8AU1ME+45wbAGAPgIe892elyiL7SOoH8mYAo1Dh2S+8931qq+01SYwvFwJ42Xt/yDl3BwCkfGkL4Omw3dFOjDc/RMT4cc51BfAogN4ATgXwIoBO3vvDRW10EYjy5XN/fxeA3d77H9e1PpMNxZyZ6g3gfe/93733BwA8BuCyItZfMnjvN3nv/5rSHwNYDqBl7baq5LkMwKKUXoSKh8+6ylAAq733H9R2Q2oL7/0fAOz4XHFcH7kMFT8U3nv/KoAGqX/QHHVE+eK9f957fyj1x1cBtCp6w0qAmD4Tx2UAHvPe7/fe/wPA+6j4DTvqqM4XV5EQ9UpUPFiKaijmw1RLAOvoz+uhBwiknvS7A3gtVTQtNR3/QF0LZREewPPOuaXOuampsmbe+00pvRlAs9ppWkkwHuk3N/WZCuL6iO49lXwFwDP053bOuTecc6845/rXVqNqmajxoz5TQX8AW7z3q6hMfSYCvYBeizjn6gF4EsAM7/1HAOYA6ADgXACbANxVi82rTfp573sAGAngptQ0tOErYtN18jNU59zxAC4F8KtUkfpMBHW5j8ThnPt/AA4BeDhVtAnAad777gC+CeAR51z92mpfLaHxUz1XI/0fbuozMRTzYWoDgNb051apsjqJc+44VDxIPey9/w0AeO+3eO8Pe+8/AzAPR+m0cia89xtS/98K4Leo8GFLCM2k/r+19lpYq4wE8Ffv/RZAfeZzxPWROn/vcc5NBnAxgGtSD5pIhbA+TOmlAFYD6FRrjawFqhk/6jPOHQvgywAeD2XqM/EU82HqdQAdnXPtUv+6Hg/gqSLWXzKk4tALACz33t9N5fwexxgA73x+36Md59zJqZfy4Zw7GcCFqPDhKQCTUptNAvC72mlhrZP2L0X1mTTi+shTAK5LfdV3Hipept0UdYCjEefcRQD+BcCl3vtPqLxJ6mMGOOfaA+gI4O+108raoZrx8xSA8c65E5xz7VDhzf8Vu321zDAAK7z360OB+kw8xxarotSXJNMAPAfgGAAPeO/fLVb9JUZfANcCeDt8cgrg+wCuds6di4rwxBoAX6ud5tUqzQD8tuJ5E8cCeMR7/6xz7nUATzjnrgfwASpeiqxTpB4uhyO9X/y0LvYZ59yjAAYBaOycWw/gBwBuR3Qf+V9UfMn3PoBPUPEF5FFJjC/fA3ACgBdS4+pV7/3XAQwA8GPn3EEAnwH4uvc+6QvaRxwx3gyKGj/e+3edc08AWIaK0OhNR+OXfEC0L977Baj6biZQx/pMNmgFdCGEEEKIPNAL6EIIIYQQeaCHKSGEEEKIPNDDlBBCCCFEHuhhSgghhBAiD/QwJYQQQgiRB3qYEkIIIYTIAz1MCSGEEELkgR6mhBBCCCHy4P8Dy+OLNQhuQwAAAAAASUVORK5CYII=\n",
      "text/plain": [
       "<matplotlib.figure.Figure at 0x118fac710>"
      ]
     },
     "metadata": {},
     "output_type": "display_data"
    }
   ],
   "source": [
    "min_y = 0.01\n",
    "max_y = 0.5\n",
    "plot.latent(generator, batch_size,\n",
    "       n=8,\n",
    "       m=6,\n",
    "       crop_size=30,\n",
    "       margin_top=1,\n",
    "       margin_left=1,\n",
    "       min_x=0.05,\n",
    "       max_x=0.95,\n",
    "       min_y=min_y,\n",
    "       max_y=max_y)"
   ]
  },
  {
   "cell_type": "code",
   "execution_count": 40,
   "metadata": {},
   "outputs": [
    {
     "name": "stdout",
     "output_type": "stream",
     "text": [
      "(2,) [0. 0.]\n"
     ]
    },
    {
     "data": {
      "image/png": "iVBORw0KGgoAAAANSUhEUgAAAlMAAACqCAYAAACJQ8oQAAAABHNCSVQICAgIfAhkiAAAAAlwSFlzAAALEgAACxIB0t1+/AAAADl0RVh0U29mdHdhcmUAbWF0cGxvdGxpYiB2ZXJzaW9uIDIuMS4yLCBodHRwOi8vbWF0cGxvdGxpYi5vcmcvNQv5yAAAIABJREFUeJztnXm0VNWZ9p/dmsTECRwYL/MQREa5MqnMKBCVGKKiogxGo61GxJih0yuxk89eJhraARAQVJz1W52OrqQV1PbTTredFqMmAiKDisCFyyjzvL8/bu33PsU951adW3WrCnh+a7l82Jw6e+/n7L3r8L51znbeewghhBBCiLrxd8VugBBCCCHEkYxupoQQQgghckA3U0IIIYQQOaCbKSGEEEKIHNDNlBBCCCFEDuhmSgghhBAiB3QzJYQQQgiRAzndTDnnRjjnljrnljvnfpKvRgkhhBBCHCm4ur600zl3HIBPAAwHsBrAuwCu8t4vzl/zhBBCCCFKm1wiU70BLPfer/Te7wPwPIDR+WmWEEIIIcSRwfE5fLY5gC/oz6sB9KntA2eccYZv3bp1DlUKIYQQQhSG9957b6P3/sxMx+VyM5UVzrkbAdwIAC1btsTChQvru0ohhBBCiJxxzn2ezXG53EytAdCC/lyWKkvDez8bwGwAKC8vtx9o/e53v7NjvvOd79QoE/kheAvI80IhzwuPPC888rzwyPPCwD5nSy6/mXoXQAfnXBvn3FcBjAXwcg7nE0IIIYQ44qhzZMp7f8A5dyuA+QCOA/CY935R3lomhBBCCHEEkNNvprz3/w7g3/PUljqF1kRuyPPCI88LjzwvPPK88Mjz4qE3oAshhBBC5EC9P82XhK985Sumb7vtNtOnnXaa6UGDBpn+6le/avrtt98GALRoUf2b+MrKStPdunUzvWTJEtOzZ88GAFx55ZVWNnDgQNMdO3aMPN+jjz5qunnz5gCABg0aRB575plnRn5u7NixAIC/+7vqe9ry8nLTX//6103PmDHDdFlZmen169cDAEaOHGllFRUVpm+88UbURjaesx/s+X/+538CqHpK8/D2AEDXrl1Nf/zxx6aDB1dccYWV8XXt0KFD5PnmzJljulmzZgDSPedjGzVqFPm5q666CgDgnLMy9vyEE04wPX36dNOtWrUyvW7dOgDAiBEjapQByTz/wQ9+YLphw4am4zwP45xfMcLXm8f50qVLTQcP2HOuo3379qbZx6hxfuqpp1oZ97tx48am586da/rqq6/G4cR5Pm3aNNNt2rQxHfrInnM7b7jhhhp1MHGe8/gZPHhw5PFvvfUWAKBt27ZWtnbtWtPdu3c3/cknn5ieOXMmgOoxB6SPcz4frxdhTQKi1xa+3nGejxs3DgBw6NAhKzv33HNNs+cPPvig6Xbt2tWohz3ndn7ve99DbfC6duedd5o+5ZRTTLPnPM7ffPPNGu1hz3v06GGax/kjjzwCoLr/QLznPH5mzZplOnjO83HNmupnq+I8Hz9+PIB4z7/2ta+Znjp1qmn+jgn1jBo1yso2bNhgetKkSagNXtemTJlimufs8OHDI9u0YMECAOme8/zu2bOnaV7Pw5ydMGGClQ0bNsw0r53cF57rwXP+3vn88+qH6Jo0aWKa16Sw1h48eNDK+vSpfkMTz+N//ud/Nt2lSxfTwfNvfetbVrZp0yYkRZEpIYQQQogc0M2UEEIIIUQO1HlvvrpQXl7uw0s7o96R8eWXX1oZh3xZH3fccXltUwjncUqNQ59x9XEod8+ePQCA44+vzpqy5tDr/v37a5RzKLI+kefVcP/qk1LxfPPmzQDS0ztJPd+7d2+NY48Uz7dt2xbZDp57+fZ8y5YtAOI95zQYk8RzPse+fftMl8LasmPHDivjdrCO86CuhLnFnmdTH38PBh/52CTrOR9bn0R5HtbFw9vB44fbnw927doFIH79yqa+4CN7zprPwfMj6th845x7z3tfnuk4RaaEEEIIIXJAN1NCCCGEEDlQUk/zcdonLpSdb04//fQ6fY7b9I1vfCPrzxUq1ZEt8rzwFMNzfkomCdwmbncmSs1zTvsUynN+GiwJR6PncembfMNPrSWB00icis1EodKo2cJjgPuU79Qek2QtjiOJj/U5fnKhNFslhBBCCHGEoJspIYQQQogcKKk0X6mFqY8F5HnhkeeFR54XnkI91SaqKdUU2LGAnBdCCCGEyAHdTAkhhBBC5EBJxWH5JWQiP2TaRVye5x95XnjkeeGR54VHnheGTD5HociUEEIIIUQO6GZKCCGEECIHSirNV5fQmsgNeV545HnhkeeFR54XHnlePBSZEkIIIYTIgZKKTPFr/KdMmWK6adOmpvv162eatyt4/fXXAQCdOnWysrBrOwC0bNnS9LJly0zPmDEDAHDFFVdY2fnnn2+6TZs2ptetW2f68ccfN922bVsAwJlnnmllYbd3ADjxxBNNP/zww6YvvvjiGn9/7rnnmuatER555BHT7MemTZsAAEOHDrWytWvXmp40aRJqgz284447Iutgz/kaBc87d+5sZRs3bjTdunVr08uXLzedyXP+XEVFhel58+bVOOaMM86wsjjPp0+fbvrSSy8FkL5NB3t+yimn1GgnADRv3tx08HzIkCGR7UziOY/zxo0bm+7fv79p9nzBggUAgC5duljZhg0bTPN4jfL8yiuvtDL2vFWrVpF9yeT57t27TZ900kk16gOA0aNHA0jvd5znfK3KyspMhz4OGzbMyng+Tpw4EbUR5znPWfaD30sVPD/77LOtbP369aY7dOhgmteWMGfHjh0bWUec50888USNY9jzHTt2mD755JNNz5w50/SYMWMApG/TwZ7z53hN4nUyeD58+HAr435PmDABtcEe/vCHPzTNWxsNHDgw8vj58+cDAM4666zIur/5zW+a5nE+bdo0AMC1115rZRdccIFp7h+fb+7cuTWO4bGxefNm07wus+dXXXUVgPT3a5WXl5vmbVceeugh07zeVVZWAgAuuuiiyHZm8py3jfnRj35kmrc24jnEnr/yyisA0sczz7Fu3bqZXrp0qekwfngODh482HSc57NmzTLdokULAOmer1mzxjSPf/Y81Mnv12LPed7ff//9ptu1a1ejTeH7GKi+DknIGJlyzj3mnKt0zn1EZac5515zzi1L/b9um1AJIYQQQhzhZJPmewLAiMPKfgLgDe99BwBvpP4shBBCCHHM4bz3mQ9yrjWAP3jvu6T+vBTAIO99hXOuKYD/573/Zi2nAACUl5f7hQsXAkh/H0b40dzixYutjEOpHKLk9AyHNA8dOlSjLG6n7P3795v+6KOPatTHIUUOhzO7du0yvX37dgDp4V1OeRx33HGmOQUX0huckorb9iLuOkX18cCBA6a5TVGeL1myxMrYgwYNGpjOt+eLFi2qUR97zt4xmTzna8VhX06hhGOK6TmHyNkD1hyerqvn3KZwnbkOTrewHwyn8ZKMc04PhHPzsXG7xNeX5ytXrrQyHies2fOoNsX5zBw8eNB0SD9xGpPnVdw13rNnj+mQ0uP+cbqIPQ/pZz43H5uP7V24f1x3lOc877gdvJ7kY5sfHjNffPEFgPSxxjquPl6fwjrD/eNrxWtLmBNA9ZiOO7auhDl/+PmiPOf2cF95vuV7y5nwc5q46xpXH1+38BMN9pzHK8+Pffv21SiPW0/ygXPuPe99eabj6upqY+99mCnrADSu7WAhhBBCiKOVnG9RfdXtZWx4yzl3o3NuoXNuIf9QVgghhBDiaKCucd/1zrmmlOaL/em79342gNlAVZqvtpPyL/njQrNxofYkoUsOCfbs2TPrzzEc0gwh7GzSAPwETxI4JJqpniThfPY8LvWVb8979OiR9ecY9jwuLRUFP02ShPrynFOa3A/2KB+ec5u6du2a9ecYTllwqiYT/CReEurLc05p8jjKJj2QzbwOcJqCnzhLAj+9GZd6jKJRo0Z1qi+J59y/THB6k9eTfKQbGW5zXec6jwNOhWciybFMEs+TzHkeL3yt8p3aY/hnOEngficZ5/lIDdcHdXX4ZQDjU3o8gJfy0xwhhBBCiCOLbF6N8ByAdwB80zm32jl3PYB7AQx3zi0DMCz1ZyGEEEKIY46M8Vbv/VUxfzU0przOcMqp1KnPsGkh6+OUU6lztHh++umn18t564OjxXN+iq7USZJWLOX6kqTijzXqy/P6fKpN1I62kxFCCCGEyAHdTAkhhBBC5EBJ7c3HLyET+SHTLuLyPP/I88IjzwuPPC888rwwZPI5CkWmhBBCCCFyQDdTQgghhBA5UFJpvrqE1kRuyPPCI88LjzwvPPK88Mjz4qHIlBBCCCFEDpRUZIq3UZgyZYrpXr16me7Tp49pfgX9O++8AyB9uxbeXZrfYfX++++b/sUvfgEAGDdunJVddNFFpvl8lZXVu+ZMmzbNdOfOnQEA7dq1szJ+l1DYVRsA7rnnHtOjR48GALRu3drKysurN6fmd+48/fTTpnmrjjVr1gAABg4caGWrVq0yPWbMGNQGe3jHHXeY7t69u2n2nLfiePvttwGk93v37t2mGzeu3v/6r3/9q+lf/epXANI9HzZsmGneEmLdunWmZ86cabpjx4416uatHXj39F//+temL7nkEgBAixYtrIw9560unnjiCdN8fPB88ODBVhZ2qweAK664ArXBHk6ePNk0bz/Sr18/0zwv3njjjRrH7tixw3SzZs1ML1myxHTw4JprrrGyQYMGmeb+VVRUmJ47d67p9u3b1ziW32tz8OBB0w8++KDpkSNHAkgfD+w5+zFr1izTPM7DOOBxsnbtWtNXX301aoPHOa8t3Jf+/fubZs9fffVVAECXLl2sjOc0n2PZsmWmH3jgAQDpng8YMMB08+bNTbPn8+bNM92mTRsA6deV1zXeWmP69OmmL774YgDpc4LX0ZNPPjnyc+z5xo0bAQBDh1a/UnD9+vWmr732WtQGe3jnnXea5m1vLrjggsjjX3nlFQDAWWedVaM9QPVYBIDly5ebfvjhh2u0jeuIGlMA8Pjjj5sO6zG3c9u2baZ5q7MZM2aYvvzyy2v0g8c5ex7aeXibQh/5O4jbOX78eNQGf2fcddddpnk7pSFDhpiO8py95evN45/HefgunDBhgpXFrS18vkcffbTGMfzeQ54TXM7fA9dddx2A9H6fe+65pnltmTp1qmn+Xg+ejxo1ysr4uz5bFJkSQgghhMgB3UwJIYQQQuSA492r65vy8nK/cOFCAOnvwwg/mpszZ46VdevWzXTbtm1N8w7V3PaQ6uCwZdzu5JwWee655wCkp01C2g5ITw9yfatXrza9d+9eAOmhRg4R8+7dv//9702HVBqH+7l/hw4dMr1r167IfoU0C5ft2bPHNIc5ozx/9tlnraxTp06mOQwatxVHaBOnGuJ2ld+5c6fp4AFf1w4dOpiO2+KG0zqhj9l4Pn/+fNMhbdCkSRMr41QIX2P2kc8XvOayJJ6/9tprVsYhcG7TKaecgihCioevN3sQ1/4333wTQPpY47rjdn7n1Eq43lwfp7PZjzDPuR4+llMl3OYDBw5E9itoLuP+cRovyvMPPvjAyjjlwW36xje+YZq3+wjpSy6L2w5k//79psPPCbgOXk847cPn4xR10Owtj1ceBytXrjQd+sh1sEfsedx3QGgTt437xyneKM8///xzK+PrzZrXaya0KZttVzi9vGLFCgDpHvFc4rnJhDUcqP5+YG95bPAY3Lx5s+ngLx8btx4mgb8HuO4ozzkdydcnmzW6rmzatAlAer+zqY/7FfUdyu3ncr5WYXxwffnGOfee974803GKTAkhhBBC5IBupoQQQgghcqCknubjpy44ZcOhWQ73cQiYw7qZ4JTGzTffXONc2cApmRCOjEpLHE7UEzAcZud28Dk4RM9h06hQfFwoOwp+8oHTa9l4zuH6qL/nfvH1yfREShw8JqI8j7uGUe9eifOc4TBzPj3nlCaPxTjPGR4HmTjxxBNNh6e7ksIpsZCiyibdxXM5E3Hny3Rtk3jB85VTX5xmiutLkrQIpxv4Kdgk8HULbc1mfeKfKmSCzxeXRoqqk+dEJnhs87WK+/lFXPsywdcnPOWbFL5unJbNBKdtk5DN+hOIWwuiiPM5yTmSksQvhtuUZP2MSw0XG0WmhBBCCCFyQDdTQgghhBA5UFJpviRh6sNJmqbL9XNJwpL5aEN9Pa3AKaekZGp3Xb2NI0laJxPF9Jxf0lrqJEnrlHJ9nOYrdfL9tFWx6ot7IrUUyfdaVaz66vOpNlE7ikwJIYQQQuSAbqaEEEIIIXIgY5rPOdcCwJMAGgPwAGZ77x90zp0G4AUArQF8BuAK7/2WuPNkA7+ETOSHTLuIy/P8I88LjzwvPPK88MjzwpDJ5yiyiUwdAHCn974zgL4AbnHOdQbwEwBveO87AHgj9WchhBBCiGOKjDdT3vsK7/1fUno7gCUAmgMYDSBsbz4PwLfrq5FCCCGEEKVKoqf5nHOtAfQE8GcAjb33Fam/WoeqNGBO1CW0JnJDnhceeV545HnhkeeFR54Xj6x/gO6cOwnAvwKY7L3fxn/nq17nGrlbpnPuRufcQufcwg0bNuTUWCGEEEKIUiOryJRz7iuoupF6xnsffuG23jnX1Htf4ZxrCqAy6rPe+9kAZgNAeXl59PbkKfj18j/+8Y9NX3bZZaa7dOlimt9J89lnnwEAGjRoEPn3/Ap63tE+bG1y0003RdbXqlUr02E3cQD46U9/avq8884DAPTt29fKmjZtWqNth/frhhtuqNEnro93Q//v//5v07yFwcaNGwGkv6Nr1apVpvv164faYI/uuusu08OHDzd9zjnnmOb3mCxevBhA+jYv/M4a3kWcPb/11lsBANdff72VXXLJJabZg61bt5r+1a9+ZTpsg9OzZ08ra9asmWn2/Oc//7npcePGAQDOOussK+vUqZNp9vzVV1+NPPe6desAAD169LCyzz//3PTQoUNRG/y+rClTpphmn3v37m2a32n2pz/9CQDQpk0bK+Nd1HlsfPjhh6bvvvtuAOlb+QwbNsx0ixYtTK9fv970jBkzTAef2rdvb2W83czmzZtN33vvvabDfOI6evXqZZrHzFNPPWW6efPmpisqqoLgAwcOtLLVq1ebzvQvcvbwjjvuMM3v/OK5wuvF/PnzAQCdO3e2Mh6XZWVlppctW2Z66tSpAKrHHAAMGDDANI+p0D8AePLJJ02H68zH8hjl+Ttt2jTTo0aNApC+HpaXV298z1tBzZw50zSvW2Ft4XESxj4QvTUWEzfOGzeuTmKEtfPw41955RUA6XMztAcA2rVrZ3rFihWmgwfctvPPP980X6s4z1u2bAkgfS7x2s/e8fz47ne/CyB9jeTtungbI75WfG3DHLrwwgutjOdjpq24eC7deeedpnmrMJ5DPC+C523bto2sm7+nli9fbnr69OkAgAkTJkTWEbe2zJkzx3SY6/xdwteHt6yZPXu26WuuuQZA+r0De879e+CBB0yHawwAmzZtAgCMHDnSyiorI29naiVjZMpVvV1sLoAl3vup9FcvAwhXdjyAlxLXLoQQQghxhJNNZOo8ANcC+Jtz7oNU2T8AuBfAi8656wF8DuCK+mmiEEIIIUTpkvFmynv/JwBx776vPZ+REA5DcxiOtyXgcN6WLdWvtQohSg5Fcih43759kecLYV/eYZvTJryjOjNixAjTIQS5du1aK+M0AYfaORUSwtOcNuH69uzZY3rJkiWm9+/fbzqk9zgkzbvOZ2LMmDGmOW3F6Q8OlbKPIfTNfnI4ltvJaamQzuLQM4en+RpzaPyqq64yHfzla8XpD24/p6JCPXxNOCzPbebwO/sb0j3cbw5PZ4JD/F27djXN47Vhw4ameYf5QYMGAYjfHZ6P5XPcfPPNAICOHTtaGfvPPnMaY/LkyabDteetMDhlw+2YOHGi6W7dugFIT7Fw23jMh3Yefr6QzuIynuuZePvtt03zGI2bN9zHMHZ5jMZtB9K9e3fTUeki9ovHIG93w2mWMMd4TrB33CZO9Ydre+qpp1pZ3BZY9913X2R5qJP7yvM/E7xm8ZjisRa3RdTZZ59do+44OFUYUrXc7zgP2HNO+wfP2VseG1zOP4cI5+afN/B4ZTg9mAle1zLB3y+8rrGO2z4ozNNsCOsQAHz721UP8nO/+fuP6+O5d//995sO33V8LKeweRxw2jyUxx3LPPbYY3HdqRVey2pDb0AXQgghhMgB3UwJIYQQQuSA47RAfVNeXu7DU1382vvwJE54UglID3Vz+JBDxBz6DmHCuJQHw6HEkGKISzMxfD5+kiiEkePC6HxuDtmG8qgyID1cuX37dtMcQg3HcL/5c6yjPH/33XetjJ+64LA2a/YmpMSy8YuPCeVcFhea5XOEpy64TXHhXT43p5FCeVTZ4ezatct0VD1xnjNRni9dutTKOAUUFybncyeZr1GfS7pb/e7du00HD+KuW6Zzc9vjjuW0bZS/cdeKifJ8zZo1VsZpH/aZr3ExOXDggOmolEzSa5ikvqhrm019UZ7zE4+8NrLP2VzPQpDN2Cy1+qI85zQsj5241J7IjHPuPe99eabjSmMkCyGEEEIcoehmSgghhBAiBxJtJ1Pf8MvVkhKXYstEkvAnh2M5JZaEqLB2NqFufnIsn/ALzpJSiLQIe85PnyUh6hpnc92TPBWZBH7qKil1TQnU9XN1nVd1bQOn3fIJvwC01Il7AuxIq4+fVix1CpHaK0R9/NSeKCyKTAkhhBBC5IBupoQQQgghcqCk0nz8dILID5n2LJPn+UeeFx55XnjkeeGR54Uhk89RKDIlhBBCCJEDupkSQgghhMiBkkrz1SW0JnJDnhceeV545HnhkeeFR54XD0WmhBBCCCFyoKQiU/zeorvuusv06NGjTfNO8fxOjU8//RRA+rtN+Hz8/hreQmXSpEkAgJtuuimyvtatW5vmLV1+9rOfmQ47lfft29fKmjZtanrlypWm//Ef/7FG3dwnro+3eXjnnXdM8/uWNm7cCCD93UWrVq0y3b9/f9QGe/jDH/7Q9IUXXmi6Z8+ekccvXrwYQPqWKPzOGt4eJWwjBAC33HILAODGG2+0sm9961umW7VqZZq3pLjnnntM9+rVq0bbmjVrZvqzzz4z/fOf/9x02HGcd4nv1KmTad7aZ8GCBaYbN25surKyEgDQvXt3K2PPhwwZgto44YQTTE+ZMsX0OeecY7p3796m+V1PYcslHie8hQRfiw8//ND0L37xCwDpO6APHTrUNL83bf369aZ5d/vgU4cOHazstNNOM83b/dx7772mw67yLVu2tLJw/YD0d34988wzpnkOrVu3DgAwYMAAK+MtnTL9i5w9nDx5smn2kecvX6P58+cDSB8nPC7ZuxUrVpieOnUqgPRd7rn9PF4rKipMP/nkk6bbtGlT41heF3iNmzZtmulRo0YBSN86p7y8ekeMk046yfTs2bNN8zjfvHkzgPRxwmPj2muvRW3EjXOug9cnPv6VV14BkL6uhbUOANq3b2+aPQ8ecNv4/YV8reI8D8c0atTIynjtZ+8eeeQR02EM8hrJ7/HjrdBmzpxpmv3YsmULAGD48OFWFtYbABg/fjxqg+cSe87rwsCBA01HeR7G3OF1d+3a1fSyZctMT58+HQAwYcIEKxs0aJDpuLVlzpw5psP4Zi/Wrl1r+vTTTzfN4/Waa64BkP7eLl47uX8PP/yw6bKyMtNh3RoxYkSNsiQoMiWEEEIIkQO6mRJCCCGEyIGSSvNxmoPDcBwe5a1XOBT3xz/+EUB6yoxDwbwbPZ8vbDPB6Sk+ltM+DKfBQqqDd6bnUG/Dhg0j2xxCpe3atYusb8+ePaYXLVoU2a+QeuAwbpJtUDg90q1bN9OcauMUCXuzbds2AOl+cgqS00+cTgkpHk4RcZiWrzGf+/LLLzcdwrfsEac/uP1cTzg3pz/itsXhkDP3q3PnzjXOwSmBTHA6Jm688pjhHeZD+JzT1tx+PpbPcfPNNwMAOnbsaGUcOmefOY3BKbFwPflasUeckuGQf0iH8pzmth06dMj097//fdM8J0MfuYy9y0RIjx5ed9y84T6G+cnjMm47EE47hzHPY4fHCf8koUmTJqbbtm1reseOHQDS0zf8OfaDU9ehTh6jnPJg7rvvPtPcr6C5jOd0JpYuXWqaU/481uLaFK5tNtuucBrvvPPOA5Deb96Ki9cy9py9C57H/WSBr8VFF11kOvSFj43bqofXgEzEfQdFEdKEQPq6wN9HcVtp8c8WMsFpvMsuuwxA+vyJq4/XnPvvv990+F7hOcbt53JO4Ybxkc02OnPnzs14TBS8ltWGIlNCCCGEEDmgmykhhBBCiBxwnBaob8rLy314qotfex9STRyK5ycKOGzKIVsO/e3evRtAelg1rm98TAihchmfl+F0xBdffGE6hN25nVw3hzk5ZBvq5PQUH8vt+PLLL01zaDyEOePaz2HyKM/5yUZ+6oJDtqz53CHkHxc2Zg/4c6E8m7QJn4Of5glt4vBuVIoirh18LeOu986dO01H1cOex7U/ynNOf3CaiccPp/Hi+pKJqM8l3a0+zCugOuwed90ynZvbHncsp5Gj/I27VkyU5/xkEK8hcenSYhK1HiS9bnWtL+raZlN3lOdxa1Zc+qaYZDM2S62+KM85DZvNd5rIjHPuPe99eabjMjrsnDvBOfe/zrkPnXOLnHP/lCpv45z7s3NuuXPuBedc5qSlEEIIIcRRRja3q3sBDPHedwfQA8AI51xfAL8G8C/e+/YAtgC4vv6aKYQQQghRmmR8ms9XxSN3pP74ldR/HsAQAFenyucBuBvAI4d/Pgn8VEZSOEWShLgUVRQcKuWnxXKtL5snEfgJnnzCL5VLSjbtzhUOgXNKLFeyue78VFs+4afeklLXlEBdP8dPP+VKNm3gtFs+4ZdeljpxT4AdafXxE3WlTiFSe4WorxBrsogmq0Sqc+4459wHACoBvAZgBYCt3vuQbF8NoHnMZ290zi10zi3csGFDPtoshBBCCFEyZHUz5b0/6L3vAaAMQG8AnTJ8hD8723tf7r0vz2dkQQghhBCiFEjw76JZAAAV0klEQVQU3/Xeb3XOvQmgH4AGzrnjU9GpMgBrav90ZvjpBJEfMu1ZJs/zjzwvPPK88MjzwiPPC0Mmn6PI5mm+M51zDVL66wCGA1gC4E0A300dNh7AS4lrF0IIIYQ4wskmMtUUwDzn3HGouvl60Xv/B+fcYgDPO+f+D4D3AdTtXe1CCCGEEEcw2TzN91cAPSPKV6Lq91N5oy6hNZEb8rzwyPPCI88LjzwvPPK8eOi1qEIIIYQQOVDYF5pkgN9pc8cdd5ju0aOH6T59+kQeH7ai4fc/7d+/3zQ/Sfj++++b/uUvfwkgfSfq4cOHm27ZsqXpyspK0zNnzjTdsWNHAECHDh2s7LTTTjPN26D85je/MX3ppZcCqN5dHgB69eplmt9F8uKLL5pu3Lix6fXr1wOo3i0dAFavXm06079U4jzv2rWr6d69e0ce/9ZbbwFI3/pnz549pps2bWr6ww8/NH3PPfcASPd86NChpnlbm3Xr1pmeM2eO6fbt2wNI947fxbV161bTU6dONX3xxRcDAMrKyqysvLx6pwB+586zzz5rOsrzAQMGWNmaNdXPX1x++eWoDX4n2uTJk023bdvWdJzn8+fPBwB06lT9QO22bdtMs3e8bc1vf/tbAOmec/ubN69+swlvvfLUU0+ZDl7zO5vitqmYNm2a6REjRgAAGjZsaGXcP/bjscceM92oUSPTmzZtAgAMGTLEynhsjBs3LrIdgbhxzn3htYW3P3n11VcBpL8fbPPmzab5ui1fvtz0ww8/DCDdc56nPAYrKipMP/3006bD9eS5tGvXrsh28poUxjn3mz0/+eSTTfO8OuOMM0yH7WDYc14Dx48fj9rgtt1+++2muS/9+vWLPD543q5dOysLYwBIvxbs+fTp0wHEj3P2nMfPk08+WaN93E6+3rwd0axZs0yHtZa3y+ExxeOcP8drS1i3eD3kfmfynN+fx543adLENPsR5Xncd1737t1NL1u2zHSY6xMnTrSywYMHm+bzhbUTSB93wQP2nLds43HJ3oV5z9+Vffv2Nc3v3QpjA0if91u2bAFQvU4B6Z5niyJTQgghhBA5oJspIYQQQogccEl2oc+V8vJyv3DhQgDRO17PnVv9QODZZ59tmsPonD5jQkg6bndy7ueOHTtMh1RO586drSyk7YD08CifY9WqVaY5nRjg0C2njn7/+9+b7tKlC4D0MCinQuLazP0KmuvgVBuHlqM8f+GFF6yMQ+qcPuM2MaFNvAVI3DYt3P6XXqp6iwZfV66bvWMPOJW2d+9eAOnhXU4LsR8LFiwwHa4th3k5Pcj17d69O/J8oY9xnnNqJcrzkJIG0tPPPNY4DcN9DLvCs89xqTZu03/9138BSPeIPYibV5ze2LlzZ426eWywH3/7299Mh37xsSeeeKJp9vzgwYOmud+hj9zXMAaA9DEY5fnHH38cWTf3m+cK1x3aFOczc+DAAdMfffQRgPTxxR5wuojr47myfft2AOne8tjgcp4f4RjeEiluq56474CoLU+4f1x3lOecLua6k7Qpm21XDh06ZPrTTz8FkO4t1xe3PVKYV0C1/9w//hyPf/45QUgpxR1bV7h/PAajPOexw+3n74x8tIkJawTPn2zq436FuczHcvu533ytwvjg+vKNc+497315puMUmRJCCCGEyAHdTAkhhBBC5EBJPc13/vnnm+Zf73P4kMOAHAIO4fNswsIc2r/11ltr/H025+CnDkKomkORfA7W/JRJFHF1c/qSw5/heK6b/crEOeecY/r000+PPEdcvziUHvX3nD7g9EZ4IiXpzumc/gsh9ahU0OFEPdHIbYtrB4eOozznz8WlD6LgtC6ngPgax/UlLi0SBV9DfkI1Cdy+MD7ixjZz7rnnZl1HVEoNiB93gSRe8NjmNB8/7RPXlyRpER4zPXvWeD1fVvB1CymqbOYKp+aTEJdGioLnQSY4HcnXKptzJFkbuM38c4Ek8HWLS3lHkeRYJpv1J5BNejkQ95OLJOdISl094DYlWT95zpYSikwJIYQQQuSAbqaEEEIIIXKgpNJ8/CK2pNRnGDMKThUkIWlqK8ApoHzCLxpNSqa+xP19XT1IEgrORDZtSJJGSgKn+Uqd+nxKppD18VOTpU6+n7YqVn2c5it16romlVp9hZ6vohpFpoQQQgghckA3U0IIIYQQOVBSaT5+CZnID5n25pPn+UeeFx55XnjkeeGR54Uhk89RKDIlhBBCCJEDupkSQgghhMiBkkrz1SW0JnJDnhceeV545HnhkeeFR54XD0WmhBBCCCFyoKQiU7y7N2/zwtuI8DYV/N6h119/HQDQtm1bK+Md79u3b296+fLlpmfNmgUAuPLKK63svPPOM81bNKxbt870c889Z7pJkyZp/wfSd+/md0Q9/vjjpi+88EIA6f0uL6/enJrfZfXkk0+a5tf3b9u2DQAwcOBAK6usrDQ9adIk1EY+PG/Tpo2Vbdq0yTS/w4o9nz17NgBg7NixVta/f3/T7HlFRYXp559/vkb7eFuf7du3m2bPn3jiCdNRnvfq1cs0e/7UU0+Z5u1wvvzySwDA4MGDrSyJ57xdyA9+8APTPH54HLDnr732GoB4zzt27Gg6apxfffXVVsbjvFWrVqbZ8xdeeMF02OKJPQ/j7/B+8TgfOXJkjX7EjfN58+aZ5i1gtm7dCiDd8w0bNpjO5DnXfdttt5nmvsSN8+A5j8uNGzeaPuuss0wvW7bM9MyZMwEA48aNszLeMivOc15bggfNmjWzsi1btpjmcTxnzhzTl156KYD0d6X17t07sn88P3gbr+D5kCFDrIz7PXHiRNQG181rC/elT58+kW1asGABAKBFixZWxuO8S5cuptnzRx55BABw3XXXWdmAAQNMx3n+9NNPmw7ra/Pmza1s/fr1pk899VTTc+fONT1mzBgA6dvlsOe8JvHnGjVqZDp4PmzYMCvjfk+YMAG1we9bvP32203z2sJ+cJteffVVAOnXh683r5Mff/yx6YceeggAcMMNN1gZjxl+rx6vkzxew/paVlZmZZ999plpfk9c+P4A0udWgOcYv0NtxowZpvnaBn/DOgWkz7FsyToy5Zw7zjn3vnPuD6k/t3HO/dk5t9w594JzrjQ3zBFCCCGEqEeSpPluB7CE/vxrAP/ivW8PYAuA6/PZMCGEEEKIIwHHu1fHHuRcGYB5AO4BMAXAJQA2AGjivT/gnOsH4G7v/UW1nae8vNwvXLgQQPr7MMKP5jgtwSFf3rmeUwn8Sv6w83ncjvbczwMHDphetGgRgPTUGYdxeUsEPt/OnTtNh/QSh3c5/M7lHOYMfeRj43bEjrtOUdsScP+47ijPV6xYUaM9QLrnXJ7Ec2b//v2mlyypuifn1Fmc58yuXbtM19XzENbmOuK2YKgvzzl8zWF29oDL6+o5t+mTTz4BkH5d2QP2js+3e/du01Gec4qOQ+qcmgjpnrjrw7DnmbbcOHjwYGTdUZ6vXbvWyniOsQdx2weFNmWzBUi4PgDw6aefAgBOOeUUK2O/4ubV3r17TYefC/AY5bHBPoYUEVDdR64jH9vGcP84pRTlOf/MgtvJbcrH9ic8ZkLqjsca+xW3vvJcCWOe28ztZB95TQrlPI7ysW1M3JyI8pznK18fbn++t14LP3vg68rexdXH/dq3bx+AdG9Zc7/5WkXVl2+cc+9578szHZetqw8A+BGAMJNOB7DVex96tRpA86gPCiGEEEIczWS8mXLOXQyg0nv/Xl0qcM7d6Jxb6JxbyD8YFUIIIYQ4GsgmNnYegEudc6MAnADgFAAPAmjgnDs+FZ0qA7Am6sPe+9kAZgNVab7aKuIUBIfDOUQZFzbNFLrkz/H5evToUevn4uCQZmhrNiFdfoogCXHh9SiShDzjUqj58Jzh83Xr1i3rzzFRnmcDP52ShPrynNN5cSmPfHjObercuXPWn2M4ZcFtzQQ/DZqEJKnVJGmruLRPNtctSaqGr0+7du2y/hzDqSh+ojET/FOFJCRJrSYZf3FjOx/pRobbXNe5zuMg7mcGUSRZh5gknicZf3HpvHyn9hhez5LA/YpLsUdRnym9XMjosPf+p977Mu99awBjAfyH9/4aAG8C+G7qsPEAXqq3VgohhBBClCi53K7+GMAU59xyVP2Gam6G44UQQgghjjqyepovX/DTfEIIIYSoG1FP84n8k++n+YQQQgghRAS6mRJCCCGEyIGi/SyeQ5RCCCGEqJ1M6Tx9r+aHuqRNFZkSQgghhMgB3UwJIYQQQuRA0dJ8evpACCGEyB/6Xi0eikwJIYQQQuRASfwAPdxN8/YDf//3f2+at1To27evaT7+zTffBAA0atTIyiorK0337t3b9JIlS0zPnj0bAHDNNddY2aBBg0y3b9/e9Lp160w/88wzpsOWAk2bNrWy1atXm+ZtHp5++mnTod+8vUKfPn1Mczl/7swzzzS9ZcsWAMDQoUOtjPdA/N73vme6mJ4vXrzY9KOPPgogN8/D1je8fUQSz3l7Be5fnOdnnHGG6a1btwIAhgwZYmUbN240nclz3s6EPec6uE28zc/rr78OAGjSpImVZeN5GOfXXnutlbHnvPVJnOfh2vOWSHGeP/XUU6ajxnm/fv1M87Xgz/E4z9Vz3q7illtuiayD28Tj/LXXXgOQ7jnPMfZ80aJFpmfOnAkAmDBhgpUNHjzYdJzn7EFoR1lZmZV98cUXpnmezps3z/SYMWMAxHvOW3I88cQTpnkuh7Vl2LBhVsaeX3/99aajPOetTW699dbIOvr372+ax/n8+fMBxHvO8+Ojjz4yPWPGDADApEmTrIzHTJzn7EHwvEWLFla2atUq0zxP586tflf12LFjAaSP5/PPP980l8+ZM8c0f29Eeb5582bTEydORG3wFi233XZbZB0XXHCBad4O549//COAeM+5Lx9++KHpBx98EABw0003WdmFF15ouk2bNqZ5rQrzg9vRsmVLK1u5cqVpHjPh+wOoXs946y/2jsunTZtmmuvZtGkTAGDkyJFWFq5DEhSZEkIIIYTIAd1MCSGEEELkQNG2k4kKC+/YscPKODzNu6jne8fxEELlEHM2O5xz+HDPnj0A0kPn/DkO7+7fv7/Gubh/9cnR7jlr9nzfvn2mQxic66tPojzfuXOnlXE769PzELZmz+PGK8Oe7927t9bPZRrnxfR8165dVsbtzGbc1ZWQmuSUYTae85ocPOdjs/E8jHOurz6J8jzMUSC9nXHzNB9s374dQHoqPc4vhj0P60Wc55xKO3DgQI3yfI+jOKI8jxoDh7eJy/NBuM48l9jnbOoLPsZ9jjWvSVH15RttJyOEEEIIUQB0MyWEEEIIkQNFe5ovCk5z1GcomOEnkJLAbeLUSSYKldLLFnleeOLSefXpecOGDev0OW4Tp6syUaiUXrbEpfPq0/MGDRrU6XOc0uB0VSZKzfO4lGa+00zMySefXKfPcZv4yc9MFCqNmi1xPten50nGaBxJfKzPOZsLpdkqIYQQQogjBN1MCSGEEELkQEGf5nPObQCwE8DGTMceo5wBeROFfIlH3kQjX+KRN9HIl2iOdV9aee/PzHRQQW+mAMA5tzCbxwyPReRNNPIlHnkTjXyJR95EI1+ikS/ZoTSfEEIIIUQO6GZKCCGEECIHinEzNbsIdR4pyJto5Es88iYa+RKPvIlGvkQjX7Kg4L+ZEkIIIYQ4mlCaTwghhBAiBwp6M+WcG+GcW+qcW+6c+0kh6y4lnHMtnHNvOucWO+cWOeduT5Xf7Zxb45z7IPXfqGK3tRg45z5zzv0t5cHCVNlpzrnXnHPLUv+v2yu9j1Ccc9+kcfGBc26bc27ysTpmnHOPOecqnXMfUVnkGHFVPJRad/7qnDuneC2vX2J8uc8593Gq7//mnGuQKm/tnNtNY2dm8Vpe/8R4Ezt/nHM/TY2Zpc65i4rT6vonxpcXyJPPnHMfpMqPqTGThIKl+ZxzxwH4BMBwAKsBvAvgKu/94oI0oIRwzjUF0NR7/xfn3MkA3gPwbQBXANjhvb+/qA0sMs65zwCUe+83UtlvAGz23t+buhFv6L3/cbHaWExSc2kNgD4AJuIYHDPOuQEAdgB40nvfJVUWOUZSX5C3ARiFKs8e9N73KVbb65MYXy4E8B/e+wPOuV8DQMqX1gD+EI472onx5m5EzB/nXGcAzwHoDaAZgNcBdPTeHyxoowtAlC+H/f1vAXzpvf/lsTZmklDIyFRvAMu99yu99/sAPA9gdAHrLxm89xXe+7+k9HYASwA0L26rSp7RAOal9DxU3XweqwwFsMJ7/3mxG1IsvPdvA9h8WHHcGBmNqi8K773/HwANUv+gOeqI8sV7v8B7fyD1x/8BUFbwhpUAMWMmjtEAnvfe7/XefwpgOaq+w446avPFVW3qdwWqbixFLRTyZqo5gC/oz6uhGwik7vR7AvhzqujWVDj+sWMtlUV4AAucc+85525MlTX23lek9DoAjYvTtJJgLNIXN42ZKuLGiNaeaiYBeIX+3MY5975z7i3n3AXFalSRiZo/GjNVXABgvfd+GZVpzESgH6AXEefcSQD+FcBk7/02AI8AaAegB4AKAL8tYvOKyfne+3MAjARwSyoMbfiq3PQx+Riqc+6rAC4F8H9TRRozERzLYyQO59zPABwA8EyqqAJAS+99TwBTADzrnDulWO0rEpo/tXMV0v/hpjETQyFvptYAaEF/LkuVHZM4576CqhupZ7z3vwMA7/167/1B7/0hAI/iKA0rZ8J7vyb1/0oA/4YqH9aH1Ezq/5XFa2FRGQngL9779YDGzGHEjZFjfu1xzk0AcDGAa1I3mkilsDal9HsAVgDoWLRGFoFa5o/GjHPHA/gOgBdCmcZMPIW8mXoXQAfnXJvUv67HAni5gPWXDKk89FwAS7z3U6mcf8dxGYCPDv/s0Y5z7sTUj/LhnDsRwIWo8uFlAONTh40H8FJxWlh00v6lqDGTRtwYeRnAdamn+vqi6se0FVEnOBpxzo0A8CMAl3rvd1H5mamHGeCcawugA4CVxWllcahl/rwMYKxz7mvOuTao8uZ/C92+IjMMwMfe+9WhQGMmnuMLVVHqSZJbAcwHcByAx7z3iwpVf4lxHoBrAfwtPHIK4B8AXOWc64Gq9MRnAL5fnOYVlcYA/q3qfhPHA3jWe/+qc+5dAC86564H8DmqfhR5TJG6uRyO9HHxm2NxzDjnngMwCMAZzrnVAH4B4F5Ej5F/R9WTfMsB7ELVE5BHJTG+/BTA1wC8lppX/+O9vwnAAAC/dM7tB3AIwE3e+2x/oH3EEePNoKj5471f5Jx7EcBiVKVGbzkan+QDon3x3s9Fzd9mAsfYmEmC3oAuhBBCCJED+gG6EEIIIUQO6GZKCCGEECIHdDMlhBBCCJEDupkSQgghhMgB3UwJIYQQQuSAbqaEEEIIIXJAN1NCCCGEEDmgmykhhBBCiBz4/3J4quKKWuRcAAAAAElFTkSuQmCC\n",
      "text/plain": [
       "<matplotlib.figure.Figure at 0x1195a4668>"
      ]
     },
     "metadata": {},
     "output_type": "display_data"
    }
   ],
   "source": [
    "min_y2 = max_y\n",
    "plot.latent(generator, batch_size,\n",
    "       n=8,\n",
    "       m=6,\n",
    "       crop_size=30,\n",
    "       margin_top=1,\n",
    "       margin_left=1,\n",
    "       min_x=0.05,\n",
    "       max_x=0.95,\n",
    "       min_y=min_y2,\n",
    "       max_y=0.95)"
   ]
  },
  {
   "cell_type": "code",
   "execution_count": null,
   "metadata": {},
   "outputs": [],
   "source": []
  },
  {
   "cell_type": "code",
   "execution_count": null,
   "metadata": {},
   "outputs": [],
   "source": []
  },
  {
   "cell_type": "code",
   "execution_count": null,
   "metadata": {},
   "outputs": [],
   "source": []
  },
  {
   "cell_type": "code",
   "execution_count": null,
   "metadata": {},
   "outputs": [],
   "source": []
  },
  {
   "cell_type": "code",
   "execution_count": null,
   "metadata": {},
   "outputs": [],
   "source": []
  },
  {
   "cell_type": "code",
   "execution_count": null,
   "metadata": {},
   "outputs": [],
   "source": []
  },
  {
   "cell_type": "code",
   "execution_count": null,
   "metadata": {},
   "outputs": [],
   "source": []
  }
 ],
 "metadata": {
  "kernelspec": {
   "display_name": "Python 3",
   "language": "python",
   "name": "python3"
  },
  "language_info": {
   "codemirror_mode": {
    "name": "ipython",
    "version": 3
   },
   "file_extension": ".py",
   "mimetype": "text/x-python",
   "name": "python",
   "nbconvert_exporter": "python",
   "pygments_lexer": "ipython3",
   "version": "3.6.4"
  }
 },
 "nbformat": 4,
 "nbformat_minor": 2
}
