{
 "cells": [
  {
   "cell_type": "code",
   "execution_count": 52,
   "metadata": {},
   "outputs": [],
   "source": [
    "from __future__ import division\n",
    "\n",
    "import numpy as np\n",
    "import matplotlib.pyplot as plt\n",
    "from scipy.stats import norm\n",
    "\n",
    "## NN libs\n",
    "import keras\n",
    "from keras import backend as K\n",
    "from keras import regularizers\n",
    "from keras.utils import to_categorical\n",
    "from keras.models import Sequential\n",
    "from keras.optimizers import SGD, Adam\n",
    "from keras.layers import Input, Dense, Activation, Reshape, Dropout, Flatten, Lambda\n",
    "from keras.layers import Conv2DTranspose, Conv1D, Conv2D, MaxPooling1D, MaxPooling2D, UpSampling2D, UpSampling1D \n",
    "from keras.layers import LocallyConnected1D, LocallyConnected2D, LSTM, RepeatVector\n",
    "from keras.preprocessing.image import ImageDataGenerator as IDG\n",
    "from keras.models import Model\n",
    "from keras.callbacks import TensorBoard"
   ]
  },
  {
   "cell_type": "code",
   "execution_count": 53,
   "metadata": {},
   "outputs": [],
   "source": [
    "import config\n",
    "import os, numpy as np, pandas, sklearn, scipy.signal as signal\n",
    "import mido\n",
    "import matplotlib.pyplot as plt\n",
    "%matplotlib inline"
   ]
  },
  {
   "cell_type": "code",
   "execution_count": 54,
   "metadata": {},
   "outputs": [],
   "source": [
    "# local libs\n",
    "import config, models, functions\n",
    "from data import data, midi, midi_generators as g\n",
    "from utils import io, models_io, utils, plot"
   ]
  },
  {
   "cell_type": "code",
   "execution_count": 55,
   "metadata": {},
   "outputs": [
    {
     "name": "stdout",
     "output_type": "stream",
     "text": [
      "Setting up params\n",
      "\n",
      "max min f 25.0 0.5\n",
      " >> Context(max_t=2.0, dt=0.02, n_instances=100, note_length=0.03, bpm=120.0, tempo=500000, ticks_per_beat=480)\n",
      "Setting up params\n",
      "\n",
      "max min f 25.0 0.5\n",
      " >> Context(max_t=2.0, dt=0.02, n_instances=100, note_length=0.03, bpm=120.0, tempo=500000, ticks_per_beat=480)\n",
      "Importing midi-data\n",
      "\n",
      "\u001b[92m [INFO] : \u001b[0m\n",
      " |  reading file: ../datasets/examples/01 16th Snare.mid\n",
      "\u001b[92m [INFO] : \u001b[0m\n",
      " |  reading file: ../datasets/examples/01 8th Cym.mid\n",
      "\n",
      "Encoding midi-data\n",
      " [<midi file '../datasets/examples/01 16th Snare.mid' type 0, 1 tracks, 182 messages>, <midi file '../datasets/examples/01 8th Cym.mid' type 0, 1 tracks, 68 messages>]\n",
      "> -> multi-track = True\n",
      "<meta message track_name name='01 16th Snare\\x00' time=0>\n",
      "<meta message time_signature numerator=4 denominator=4 clocks_per_click=36 notated_32nd_notes_per_beat=8 time=0>\n",
      "<meta message time_signature numerator=4 denominator=4 clocks_per_click=36 notated_32nd_notes_per_beat=8 time=0>\n",
      "note_on channel=0 note=36 velocity=104 time=0\n",
      "note_on channel=0 note=38 velocity=57 time=0\n",
      "note_off channel=0 note=38 velocity=64 time=0.08333333333333333\n",
      "note_off channel=0 note=36 velocity=64 time=0.020833333333333332\n",
      "note_on channel=0 note=38 velocity=73 time=0.010416666666666666\n",
      "note_off channel=0 note=38 velocity=64 time=0.08333333333333333\n",
      "note_on channel=0 note=38 velocity=107 time=0.041666666666666664\n",
      "note_off channel=0 note=38 velocity=64 time=0.109375\n",
      "note_on channel=0 note=38 velocity=104 time=0.020833333333333332\n",
      "note_off channel=0 note=38 velocity=64 time=0.09895833333333333\n",
      "note_on channel=0 note=38 velocity=64 time=0.020833333333333332\n",
      "note_on channel=0 note=36 velocity=103 time=0.005208333333333333\n",
      "note_on channel=0 note=44 velocity=105 time=0\n",
      "note_off channel=0 note=38 velocity=64 time=0.08854166666666666\n",
      "note_off channel=0 note=36 velocity=64 time=0.020833333333333332\n",
      "note_off channel=0 note=44 velocity=64 time=0.005208333333333333\n",
      "note_on channel=0 note=38 velocity=107 time=0.13020833333333331\n",
      "note_off channel=0 note=38 velocity=64 time=0.109375\n",
      "note_on channel=0 note=38 velocity=27 time=0.03125\n",
      "note_off channel=0 note=38 velocity=64 time=0.08333333333333333\n",
      "note_on channel=0 note=36 velocity=104 time=0.03645833333333333\n",
      "note_on channel=0 note=38 velocity=54 time=0\n",
      "note_off channel=0 note=36 velocity=64 time=0.078125\n",
      "note_off channel=0 note=38 velocity=64 time=0\n",
      "note_on channel=0 note=38 velocity=98 time=0.041666666666666664\n",
      "note_off channel=0 note=38 velocity=64 time=0.09375\n",
      "note_on channel=0 note=38 velocity=107 time=0.026041666666666664\n",
      "note_off channel=0 note=38 velocity=64 time=0.09895833333333333\n",
      "note_on channel=0 note=38 velocity=104 time=0.03125\n",
      "note_off channel=0 note=38 velocity=64 time=0.08333333333333333\n",
      "note_on channel=0 note=36 velocity=104 time=0.03645833333333333\n",
      "note_on channel=0 note=38 velocity=50 time=0\n",
      "note_on channel=0 note=44 velocity=107 time=0\n",
      "note_off channel=0 note=38 velocity=64 time=0.078125\n",
      "note_off channel=0 note=36 velocity=64 time=0.03125\n",
      "note_off channel=0 note=44 velocity=64 time=0\n",
      "note_on channel=0 note=38 velocity=74 time=0.005208333333333333\n",
      "note_off channel=0 note=38 velocity=64 time=0.08854166666666666\n",
      "note_on channel=0 note=38 velocity=107 time=0.03645833333333333\n",
      "note_on channel=0 note=36 velocity=99 time=0.010416666666666666\n",
      "note_off channel=0 note=38 velocity=64 time=0.08854166666666666\n",
      "note_off channel=0 note=36 velocity=64 time=0.026041666666666664\n",
      "note_on channel=0 note=38 velocity=34 time=0\n",
      "note_off channel=0 note=38 velocity=64 time=0.08854166666666666\n",
      "note_on channel=0 note=36 velocity=104 time=0.05208333333333333\n",
      "\u001b[91m [DEBUG] > \u001b[0m\n",
      " |>  to_array: msg.time > max_t; t, n\n",
      " |>  1.9947916666666667\n",
      " |>  100\n",
      "<meta message track_name name='01 8th Cym\\x00' time=0>\n",
      "<meta message time_signature numerator=4 denominator=4 clocks_per_click=36 notated_32nd_notes_per_beat=8 time=0>\n",
      "<meta message time_signature numerator=4 denominator=4 clocks_per_click=36 notated_32nd_notes_per_beat=8 time=0>\n",
      "note_on channel=0 note=36 velocity=123 time=0\n",
      "note_on channel=0 note=44 velocity=87 time=0\n",
      "note_on channel=0 note=57 velocity=118 time=0\n",
      "note_off channel=0 note=36 velocity=64 time=0.0625\n",
      "note_off channel=0 note=44 velocity=64 time=0\n",
      "note_off channel=0 note=57 velocity=64 time=0\n",
      "note_on channel=0 note=57 velocity=99 time=0.17708333333333331\n",
      "note_off channel=0 note=57 velocity=64 time=0.0625\n",
      "note_on channel=0 note=38 velocity=119 time=0.1875\n",
      "note_on channel=0 note=57 velocity=118 time=0.005208333333333333\n",
      "note_on channel=0 note=44 velocity=88 time=0.005208333333333333\n",
      "note_off channel=0 note=38 velocity=64 time=0.05208333333333333\n",
      "note_off channel=0 note=57 velocity=64 time=0.005208333333333333\n",
      "note_off channel=0 note=44 velocity=64 time=0.005208333333333333\n",
      "note_on channel=0 note=57 velocity=107 time=0.1875\n",
      "note_on channel=0 note=38 velocity=118 time=0.005208333333333333\n",
      "note_off channel=0 note=57 velocity=64 time=0.057291666666666664\n",
      "note_off channel=0 note=38 velocity=64 time=0.005208333333333333\n",
      "note_on channel=0 note=44 velocity=90 time=0.17708333333333331\n",
      "note_on channel=0 note=57 velocity=118 time=0.005208333333333333\n",
      "note_off channel=0 note=44 velocity=64 time=0.057291666666666664\n",
      "note_off channel=0 note=57 velocity=64 time=0.005208333333333333\n",
      "note_on channel=0 note=57 velocity=100 time=0.171875\n",
      "note_off channel=0 note=57 velocity=64 time=0.0625\n",
      "note_on channel=0 note=38 velocity=120 time=0.203125\n",
      "note_on channel=0 note=44 velocity=88 time=0\n",
      "note_on channel=0 note=57 velocity=119 time=0.010416666666666666\n",
      "note_off channel=0 note=38 velocity=64 time=0.05208333333333333\n",
      "note_off channel=0 note=44 velocity=64 time=0\n",
      "note_off channel=0 note=57 velocity=64 time=0.010416666666666666\n",
      "note_on channel=0 note=57 velocity=101 time=0.17708333333333331\n",
      "note_off channel=0 note=57 velocity=64 time=0.0625\n",
      "note_on channel=0 note=44 velocity=87 time=0.18229166666666666\n",
      "\u001b[91m [DEBUG] > \u001b[0m\n",
      " |>  to_array: msg.time > max_t; t, n\n",
      " |>  1.9947916666666667\n",
      " |>  100\n"
     ]
    }
   ],
   "source": [
    "context = data.init()\n",
    "n = 2\n",
    "multiTrack = True\n",
    "context, x_train, labels = data.import_data(data.init(), n, multiTrack=multiTrack)"
   ]
  },
  {
   "cell_type": "code",
   "execution_count": 56,
   "metadata": {},
   "outputs": [
    {
     "name": "stdout",
     "output_type": "stream",
     "text": [
      "note_on channel=0 note=62 velocity=127 time=0.06666666666666667\n",
      "note_off channel=0 note=62 velocity=127 time=0.019791666666666666\n",
      "note_on channel=0 note=61 velocity=127 time=0.04895833333333333\n",
      "note_on channel=0 note=62 velocity=127 time=0.0010416666666666667\n",
      "note_off channel=0 note=61 velocity=127 time=0.01875\n",
      "note_off channel=0 note=62 velocity=127 time=0.0010416666666666667\n",
      "note_on channel=0 note=60 velocity=127 time=0.00625\n",
      "note_off channel=0 note=60 velocity=127 time=0.019791666666666666\n",
      "note_on channel=0 note=62 velocity=127 time=0.02395833333333333\n",
      "note_off channel=0 note=62 velocity=127 time=0.019791666666666666\n",
      "note_on channel=0 note=62 velocity=127 time=0.05\n",
      "note_off channel=0 note=62 velocity=127 time=0.019791666666666666\n",
      "note_on channel=0 note=61 velocity=127 time=0.04895833333333333\n",
      "note_on channel=0 note=62 velocity=127 time=0.0020833333333333333\n",
      "note_off channel=0 note=61 velocity=127 time=0.01875\n",
      "note_off channel=0 note=62 velocity=127 time=0.0020833333333333333\n",
      "note_on channel=0 note=60 velocity=127 time=0.042708333333333334\n",
      "note_on channel=0 note=62 velocity=127 time=0.008333333333333333\n",
      "note_off channel=0 note=60 velocity=127 time=0.0125\n",
      "note_off channel=0 note=62 velocity=127 time=0.008333333333333333\n",
      "note_on channel=0 note=62 velocity=127 time=0.05\n",
      "note_off channel=0 note=62 velocity=127 time=0.019791666666666666\n",
      "note_on channel=0 note=61 velocity=127 time=0.04895833333333333\n",
      "note_on channel=0 note=62 velocity=127 time=0.0020833333333333333\n",
      "note_off channel=0 note=61 velocity=127 time=0.017708333333333333\n",
      "note_off channel=0 note=62 velocity=127 time=0.0020833333333333333\n",
      "note_on channel=0 note=62 velocity=127 time=0.05\n",
      "note_off channel=0 note=62 velocity=127 time=0.019791666666666666\n",
      "note_on channel=0 note=60 velocity=127 time=0.008333333333333333\n",
      "note_off channel=0 note=60 velocity=127 time=0.019791666666666666\n",
      "note_on channel=0 note=62 velocity=127 time=0.021875\n",
      "note_off channel=0 note=62 velocity=127 time=0.019791666666666666\n",
      "note_on channel=0 note=61 velocity=127 time=0.04791666666666666\n",
      "note_on channel=0 note=62 velocity=127 time=0.0020833333333333333\n",
      "note_off channel=0 note=61 velocity=127 time=0.017708333333333333\n",
      "note_off channel=0 note=62 velocity=127 time=0.0020833333333333333\n",
      "note_on channel=0 note=62 velocity=127 time=0.05\n",
      "note_off channel=0 note=62 velocity=127 time=0.019791666666666666\n",
      "note_on channel=0 note=60 velocity=127 time=0.04479166666666667\n",
      "note_on channel=0 note=62 velocity=127 time=0.005208333333333333\n",
      "note_off channel=0 note=60 velocity=127 time=0.014583333333333334\n",
      "note_off channel=0 note=62 velocity=127 time=0.005208333333333333\n",
      "note_on channel=0 note=61 velocity=127 time=0.04791666666666666\n",
      "note_on channel=0 note=62 velocity=127 time=0.003125\n",
      "note_off channel=0 note=61 velocity=127 time=0.017708333333333333\n",
      "note_off channel=0 note=62 velocity=127 time=0.003125\n",
      "note_on channel=0 note=62 velocity=127 time=0.05\n",
      "note_off channel=0 note=62 velocity=127 time=0.019791666666666666\n",
      "note_on channel=0 note=62 velocity=127 time=0.05\n",
      "note_off channel=0 note=62 velocity=127 time=0.019791666666666666\n",
      "note_on channel=0 note=60 velocity=127 time=0.011458333333333333\n",
      "note_off channel=0 note=60 velocity=127 time=0.019791666666666666\n",
      "note_on channel=0 note=61 velocity=127 time=0.016666666666666666\n",
      "note_on channel=0 note=62 velocity=127 time=0.003125\n",
      "note_off channel=0 note=61 velocity=127 time=0.016666666666666666\n",
      "note_off channel=0 note=62 velocity=127 time=0.003125\n",
      "note_on channel=0 note=62 velocity=127 time=0.05\n",
      "note_off channel=0 note=62 velocity=127 time=0.019791666666666666\n",
      "note_on channel=0 note=62 velocity=127 time=0.05\n",
      "note_off channel=0 note=62 velocity=127 time=0.019791666666666666\n",
      "note_on channel=0 note=61 velocity=127 time=0.046875\n",
      "note_on channel=0 note=60 velocity=127 time=0.0010416666666666667\n",
      "note_on channel=0 note=62 velocity=127 time=0.003125\n",
      "note_off channel=0 note=61 velocity=127 time=0.016666666666666666\n",
      "note_off channel=0 note=60 velocity=127 time=0.0010416666666666667\n",
      "note_off channel=0 note=62 velocity=127 time=0.003125\n",
      "note_on channel=0 note=62 velocity=127 time=0.05\n",
      "note_off channel=0 note=62 velocity=127 time=0.019791666666666666\n",
      "note_on channel=0 note=62 velocity=127 time=0.05\n",
      "note_off channel=0 note=62 velocity=127 time=0.019791666666666666\n",
      "note_on channel=0 note=61 velocity=127 time=0.046875\n",
      "note_on channel=0 note=62 velocity=127 time=0.004166666666666667\n",
      "note_off channel=0 note=61 velocity=127 time=0.016666666666666666\n",
      "note_off channel=0 note=62 velocity=127 time=0.004166666666666667\n",
      "note_on channel=0 note=60 velocity=127 time=0.013541666666666667\n",
      "note_off channel=0 note=60 velocity=127 time=0.019791666666666666\n",
      "note_on channel=0 note=62 velocity=127 time=0.016666666666666666\n",
      "note_off channel=0 note=62 velocity=127 time=0.019791666666666666\n",
      "note_on channel=0 note=62 velocity=127 time=0.05\n",
      "note_off channel=0 note=62 velocity=127 time=0.019791666666666666\n",
      "note_on channel=0 note=61 velocity=127 time=0.04583333333333333\n",
      "note_on channel=0 note=62 velocity=127 time=0.004166666666666667\n",
      "note_off channel=0 note=61 velocity=127 time=0.015625\n",
      "note_off channel=0 note=62 velocity=127 time=0.004166666666666667\n",
      "note_on channel=0 note=60 velocity=127 time=0.05\n",
      "note_on channel=0 note=62 velocity=127 time=0\n",
      "note_off channel=0 note=60 velocity=127 time=0.019791666666666666\n",
      "note_off channel=0 note=62 velocity=127 time=0\n",
      "note_on channel=0 note=62 velocity=127 time=0.05\n",
      "note_off channel=0 note=62 velocity=127 time=0.019791666666666666\n",
      "note_on channel=0 note=61 velocity=127 time=0.04583333333333333\n",
      "\u001b[91m [DEBUG] > \u001b[0m\n",
      " |>  to_array: msg.time > max_t; t, n\n",
      " |>  2.0291666666666663\n",
      " |>  100\n",
      "note_on channel=0 note=62 velocity=127 time=0.07604166666666666\n",
      "note_off channel=0 note=62 velocity=127 time=0.019791666666666666\n",
      "note_on channel=0 note=61 velocity=127 time=0.0010416666666666667\n",
      "note_off channel=0 note=61 velocity=127 time=0.019791666666666666\n",
      "note_on channel=0 note=60 velocity=127 time=0.010416666666666666\n",
      "note_off channel=0 note=60 velocity=127 time=0.019791666666666666\n",
      "note_on channel=0 note=62 velocity=127 time=0.07083333333333333\n",
      "note_on channel=0 note=61 velocity=127 time=0.0020833333333333333\n",
      "note_off channel=0 note=62 velocity=127 time=0.017708333333333333\n",
      "note_off channel=0 note=61 velocity=127 time=0.0020833333333333333\n",
      "note_on channel=0 note=60 velocity=127 time=0.042708333333333334\n",
      "note_off channel=0 note=60 velocity=127 time=0.019791666666666666\n",
      "note_on channel=0 note=61 velocity=127 time=0.041666666666666664\n",
      "note_on channel=0 note=62 velocity=127 time=0.015625\n",
      "note_off channel=0 note=61 velocity=127 time=0.004166666666666667\n",
      "note_off channel=0 note=62 velocity=127 time=0.015625\n",
      "note_on channel=0 note=60 velocity=127 time=0.058333333333333334\n",
      "note_off channel=0 note=60 velocity=127 time=0.019791666666666666\n",
      "note_on channel=0 note=61 velocity=127 time=0.009375\n",
      "note_off channel=0 note=61 velocity=127 time=0.019791666666666666\n",
      "note_on channel=0 note=62 velocity=127 time=0.014583333333333334\n",
      "note_off channel=0 note=62 velocity=127 time=0.019791666666666666\n",
      "note_on channel=0 note=61 velocity=127 time=0.06875\n",
      "note_on channel=0 note=60 velocity=127 time=0.0020833333333333333\n",
      "note_off channel=0 note=61 velocity=127 time=0.017708333333333333\n",
      "note_off channel=0 note=60 velocity=127 time=0.0020833333333333333\n",
      "note_on channel=0 note=62 velocity=127 time=0.030208333333333334\n",
      "note_off channel=0 note=62 velocity=127 time=0.019791666666666666\n",
      "note_on channel=0 note=61 velocity=127 time=0.051041666666666666\n",
      "note_off channel=0 note=61 velocity=127 time=0.019791666666666666\n",
      "note_on channel=0 note=60 velocity=127 time=0.013541666666666667\n",
      "note_off channel=0 note=60 velocity=127 time=0.019791666666666666\n",
      "note_on channel=0 note=62 velocity=127 time=0.016666666666666666\n",
      "note_off channel=0 note=62 velocity=127 time=0.019791666666666666\n",
      "note_on channel=0 note=61 velocity=127 time=0.03229166666666666\n",
      "note_off channel=0 note=61 velocity=127 time=0.019791666666666666\n",
      "note_on channel=0 note=60 velocity=127 time=0.04583333333333333\n",
      "note_off channel=0 note=60 velocity=127 time=0.019791666666666666\n",
      "note_on channel=0 note=62 velocity=127 time=0.004166666666666667\n",
      "note_off channel=0 note=62 velocity=127 time=0.019791666666666666\n",
      "note_on channel=0 note=61 velocity=127 time=0.014583333333333334\n",
      "note_off channel=0 note=61 velocity=127 time=0.019791666666666666\n",
      "note_on channel=0 note=60 velocity=127 time=0.07708333333333334\n",
      "note_on channel=0 note=62 velocity=127 time=0.010416666666666666\n",
      "note_off channel=0 note=60 velocity=127 time=0.009375\n",
      "note_on channel=0 note=61 velocity=127 time=0.00625\n",
      "note_off channel=0 note=62 velocity=127 time=0.004166666666666667\n",
      "note_off channel=0 note=61 velocity=127 time=0.015625\n",
      "note_on channel=0 note=61 velocity=127 time=0.103125\n",
      "note_on channel=0 note=62 velocity=127 time=0.0020833333333333333\n",
      "note_on channel=0 note=60 velocity=127 time=0.003125\n",
      "note_off channel=0 note=61 velocity=127 time=0.014583333333333334\n",
      "note_off channel=0 note=62 velocity=127 time=0.0020833333333333333\n",
      "note_off channel=0 note=60 velocity=127 time=0.003125\n",
      "note_on channel=0 note=61 velocity=127 time=0.09791666666666667\n",
      "note_off channel=0 note=61 velocity=127 time=0.019791666666666666\n",
      "note_on channel=0 note=62 velocity=127 time=0.0010416666666666667\n",
      "note_on channel=0 note=60 velocity=127 time=0.016666666666666666\n",
      "note_off channel=0 note=62 velocity=127 time=0.003125\n",
      "note_off channel=0 note=60 velocity=127 time=0.016666666666666666\n",
      "note_on channel=0 note=61 velocity=127 time=0.06666666666666667\n",
      "note_off channel=0 note=61 velocity=127 time=0.019791666666666666\n",
      "note_on channel=0 note=62 velocity=127 time=0.01875\n",
      "note_off channel=0 note=62 velocity=127 time=0.019791666666666666\n",
      "note_on channel=0 note=60 velocity=127 time=0.010416666666666666\n",
      "note_off channel=0 note=60 velocity=127 time=0.019791666666666666\n",
      "note_on channel=0 note=61 velocity=127 time=0.034375\n",
      "note_off channel=0 note=61 velocity=127 time=0.019791666666666666\n",
      "note_on channel=0 note=62 velocity=127 time=0.0375\n",
      "note_off channel=0 note=62 velocity=127 time=0.019791666666666666\n",
      "note_on channel=0 note=60 velocity=127 time=0.02395833333333333\n",
      "note_off channel=0 note=60 velocity=127 time=0.019791666666666666\n",
      "note_on channel=0 note=61 velocity=127 time=0.003125\n",
      "note_off channel=0 note=61 velocity=127 time=0.019791666666666666\n",
      "note_on channel=0 note=62 velocity=127 time=0.05520833333333333\n",
      "note_off channel=0 note=62 velocity=127 time=0.019791666666666666\n",
      "note_on channel=0 note=61 velocity=127 time=0.028125\n",
      "note_on channel=0 note=60 velocity=127 time=0.009375\n",
      "note_off channel=0 note=61 velocity=127 time=0.011458333333333333\n",
      "note_off channel=0 note=60 velocity=127 time=0.009375\n",
      "note_on channel=0 note=62 velocity=127 time=0.06458333333333333\n",
      "note_off channel=0 note=62 velocity=127 time=0.019791666666666666\n",
      "note_on channel=0 note=61 velocity=127 time=0.009375\n",
      "note_off channel=0 note=61 velocity=127 time=0.019791666666666666\n",
      "note_on channel=0 note=60 velocity=127 time=0.020833333333333332\n",
      "note_off channel=0 note=60 velocity=127 time=0.019791666666666666\n",
      "\u001b[91m [DEBUG] > \u001b[0m\n",
      " |>  to_array: msg.time > max_t; t, n\n",
      " |>  2.005208333333333\n",
      " |>  100\n",
      "note_on channel=0 note=60 velocity=127 time=0.003125\n",
      "note_off channel=0 note=60 velocity=127 time=0.019791666666666666\n",
      "note_on channel=0 note=62 velocity=127 time=0.004166666666666667\n",
      "note_off channel=0 note=62 velocity=127 time=0.019791666666666666\n",
      "note_on channel=0 note=60 velocity=127 time=0.046875\n",
      "note_off channel=0 note=60 velocity=127 time=0.019791666666666666\n",
      "note_on channel=0 note=62 velocity=127 time=0.034375\n",
      "note_off channel=0 note=62 velocity=127 time=0.019791666666666666\n",
      "note_on channel=0 note=61 velocity=127 time=0\n",
      "note_on channel=0 note=60 velocity=127 time=0.016666666666666666\n",
      "note_off channel=0 note=61 velocity=127 time=0.004166666666666667\n",
      "note_off channel=0 note=60 velocity=127 time=0.016666666666666666\n",
      "note_on channel=0 note=62 velocity=127 time=0.06458333333333333\n",
      "note_on channel=0 note=60 velocity=127 time=0.00625\n",
      "note_off channel=0 note=62 velocity=127 time=0.013541666666666667\n",
      "note_off channel=0 note=60 velocity=127 time=0.00625\n",
      "note_on channel=0 note=61 velocity=127 time=0.046875\n",
      "note_off channel=0 note=61 velocity=127 time=0.019791666666666666\n",
      "note_on channel=0 note=60 velocity=127 time=0.004166666666666667\n",
      "note_off channel=0 note=60 velocity=127 time=0.019791666666666666\n",
      "note_on channel=0 note=62 velocity=127 time=0.004166666666666667\n",
      "note_off channel=0 note=62 velocity=127 time=0.019791666666666666\n",
      "note_on channel=0 note=60 velocity=127 time=0.046875\n",
      "note_off channel=0 note=60 velocity=127 time=0.019791666666666666\n",
      "note_on channel=0 note=62 velocity=127 time=0.034375\n",
      "note_on channel=0 note=61 velocity=127 time=0.005208333333333333\n",
      "note_off channel=0 note=62 velocity=127 time=0.014583333333333334\n",
      "note_off channel=0 note=61 velocity=127 time=0.005208333333333333\n",
      "note_on channel=0 note=60 velocity=127 time=0.011458333333333333\n",
      "note_off channel=0 note=60 velocity=127 time=0.019791666666666666\n",
      "note_on channel=0 note=62 velocity=127 time=0.06458333333333333\n",
      "note_on channel=0 note=60 velocity=127 time=0.00625\n",
      "note_off channel=0 note=62 velocity=127 time=0.013541666666666667\n",
      "note_off channel=0 note=60 velocity=127 time=0.00625\n",
      "note_on channel=0 note=61 velocity=127 time=0.03229166666666666\n",
      "note_off channel=0 note=61 velocity=127 time=0.019791666666666666\n",
      "note_on channel=0 note=60 velocity=127 time=0.01875\n",
      "note_off channel=0 note=60 velocity=127 time=0.019791666666666666\n",
      "note_on channel=0 note=62 velocity=127 time=0.004166666666666667\n",
      "note_off channel=0 note=62 velocity=127 time=0.019791666666666666\n",
      "note_on channel=0 note=60 velocity=127 time=0.046875\n",
      "note_off channel=0 note=60 velocity=127 time=0.019791666666666666\n",
      "note_on channel=0 note=61 velocity=127 time=0.025\n",
      "note_on channel=0 note=62 velocity=127 time=0.009375\n",
      "note_off channel=0 note=61 velocity=127 time=0.011458333333333333\n",
      "note_off channel=0 note=62 velocity=127 time=0.009375\n",
      "note_on channel=0 note=60 velocity=127 time=0.016666666666666666\n",
      "note_off channel=0 note=60 velocity=127 time=0.019791666666666666\n",
      "note_on channel=0 note=62 velocity=127 time=0.06458333333333333\n",
      "note_on channel=0 note=60 velocity=127 time=0.00625\n",
      "note_off channel=0 note=62 velocity=127 time=0.013541666666666667\n",
      "note_off channel=0 note=60 velocity=127 time=0.00625\n",
      "note_on channel=0 note=61 velocity=127 time=0.017708333333333333\n",
      "note_off channel=0 note=61 velocity=127 time=0.019791666666666666\n",
      "note_on channel=0 note=60 velocity=127 time=0.03333333333333333\n",
      "note_off channel=0 note=60 velocity=127 time=0.019791666666666666\n",
      "note_on channel=0 note=62 velocity=127 time=0.003125\n",
      "note_off channel=0 note=62 velocity=127 time=0.019791666666666666\n",
      "note_on channel=0 note=60 velocity=127 time=0.04791666666666666\n",
      "note_off channel=0 note=60 velocity=127 time=0.019791666666666666\n",
      "note_on channel=0 note=61 velocity=127 time=0.010416666666666666\n",
      "note_off channel=0 note=61 velocity=127 time=0.019791666666666666\n",
      "note_on channel=0 note=62 velocity=127 time=0.003125\n",
      "note_off channel=0 note=62 velocity=127 time=0.019791666666666666\n",
      "note_on channel=0 note=60 velocity=127 time=0.016666666666666666\n",
      "note_off channel=0 note=60 velocity=127 time=0.019791666666666666\n",
      "note_on channel=0 note=62 velocity=127 time=0.06354166666666666\n",
      "note_on channel=0 note=60 velocity=127 time=0.007291666666666667\n",
      "note_off channel=0 note=62 velocity=127 time=0.013541666666666667\n",
      "note_off channel=0 note=60 velocity=127 time=0.007291666666666667\n",
      "note_on channel=0 note=61 velocity=127 time=0.003125\n",
      "note_off channel=0 note=61 velocity=127 time=0.019791666666666666\n",
      "note_on channel=0 note=60 velocity=127 time=0.04791666666666666\n",
      "note_off channel=0 note=60 velocity=127 time=0.019791666666666666\n",
      "note_on channel=0 note=62 velocity=127 time=0.003125\n",
      "note_off channel=0 note=62 velocity=127 time=0.019791666666666666\n",
      "note_on channel=0 note=60 velocity=127 time=0.04791666666666666\n",
      "note_on channel=0 note=61 velocity=127 time=0.015625\n",
      "note_off channel=0 note=60 velocity=127 time=0.004166666666666667\n",
      "note_off channel=0 note=61 velocity=127 time=0.015625\n",
      "note_on channel=0 note=62 velocity=127 time=0.017708333333333333\n",
      "note_off channel=0 note=62 velocity=127 time=0.019791666666666666\n",
      "note_on channel=0 note=60 velocity=127 time=0.017708333333333333\n",
      "note_off channel=0 note=60 velocity=127 time=0.019791666666666666\n",
      "note_on channel=0 note=62 velocity=127 time=0.06354166666666666\n",
      "note_on channel=0 note=60 velocity=127 time=0.007291666666666667\n",
      "note_on channel=0 note=61 velocity=127 time=0.008333333333333333\n",
      "note_off channel=0 note=62 velocity=127 time=0.005208333333333333\n",
      "note_off channel=0 note=60 velocity=127 time=0.007291666666666667\n",
      "note_off channel=0 note=61 velocity=127 time=0.008333333333333333\n",
      "note_on channel=0 note=60 velocity=127 time=0.0625\n",
      "note_off channel=0 note=60 velocity=127 time=0.019791666666666666\n",
      "note_on channel=0 note=62 velocity=127 time=0.003125\n",
      "note_off channel=0 note=62 velocity=127 time=0.019791666666666666\n",
      "note_on channel=0 note=60 velocity=127 time=0.04791666666666666\n",
      "note_on channel=0 note=61 velocity=127 time=0.0010416666666666667\n",
      "note_off channel=0 note=60 velocity=127 time=0.019791666666666666\n",
      "note_off channel=0 note=61 velocity=127 time=0.0010416666666666667\n",
      "note_on channel=0 note=62 velocity=127 time=0.03229166666666666\n",
      "note_off channel=0 note=62 velocity=127 time=0.019791666666666666\n",
      "note_on channel=0 note=60 velocity=127 time=0.017708333333333333\n",
      "\u001b[91m [DEBUG] > \u001b[0m\n",
      " |>  to_array: msg.time > max_t; t, n\n",
      " |>  2.001041666666666\n",
      " |>  100\n",
      "note_on channel=0 note=62 velocity=127 time=0.015625\n",
      "note_on channel=0 note=60 velocity=127 time=0.017708333333333333\n",
      "note_off channel=0 note=62 velocity=127 time=0.0020833333333333333\n",
      "note_off channel=0 note=60 velocity=127 time=0.017708333333333333\n",
      "note_on channel=0 note=62 velocity=127 time=0.030208333333333334\n",
      "note_off channel=0 note=62 velocity=127 time=0.019791666666666666\n",
      "note_on channel=0 note=61 velocity=127 time=0.021875\n",
      "note_off channel=0 note=61 velocity=127 time=0.019791666666666666\n",
      "note_on channel=0 note=62 velocity=127 time=0.00625\n",
      "note_off channel=0 note=62 velocity=127 time=0.019791666666666666\n",
      "note_on channel=0 note=62 velocity=127 time=0.04791666666666666\n",
      "note_off channel=0 note=62 velocity=127 time=0.019791666666666666\n",
      "note_on channel=0 note=60 velocity=127 time=0.0125\n",
      "note_on channel=0 note=61 velocity=127 time=0.010416666666666666\n",
      "note_off channel=0 note=60 velocity=127 time=0.009375\n",
      "note_off channel=0 note=61 velocity=127 time=0.010416666666666666\n",
      "note_on channel=0 note=62 velocity=127 time=0.005208333333333333\n",
      "note_off channel=0 note=62 velocity=127 time=0.019791666666666666\n",
      "note_on channel=0 note=62 velocity=127 time=0.04791666666666666\n",
      "note_off channel=0 note=62 velocity=127 time=0.019791666666666666\n",
      "note_on channel=0 note=61 velocity=127 time=0.02395833333333333\n",
      "note_off channel=0 note=61 velocity=127 time=0.019791666666666666\n",
      "note_on channel=0 note=62 velocity=127 time=0.005208333333333333\n",
      "note_off channel=0 note=62 velocity=127 time=0.019791666666666666\n",
      "note_on channel=0 note=60 velocity=127 time=0.027083333333333334\n",
      "note_off channel=0 note=60 velocity=127 time=0.019791666666666666\n",
      "note_on channel=0 note=62 velocity=127 time=0.0010416666666666667\n",
      "note_off channel=0 note=62 velocity=127 time=0.019791666666666666\n",
      "note_on channel=0 note=61 velocity=127 time=0.025\n",
      "note_off channel=0 note=61 velocity=127 time=0.019791666666666666\n",
      "note_on channel=0 note=62 velocity=127 time=0.004166666666666667\n",
      "note_off channel=0 note=62 velocity=127 time=0.019791666666666666\n",
      "note_on channel=0 note=62 velocity=127 time=0.04791666666666666\n",
      "note_off channel=0 note=62 velocity=127 time=0.019791666666666666\n",
      "note_on channel=0 note=61 velocity=127 time=0.025\n",
      "note_on channel=0 note=60 velocity=127 time=0.016666666666666666\n",
      "note_off channel=0 note=61 velocity=127 time=0.004166666666666667\n",
      "note_on channel=0 note=62 velocity=127 time=0.003125\n",
      "note_off channel=0 note=60 velocity=127 time=0.013541666666666667\n",
      "note_off channel=0 note=62 velocity=127 time=0.00625\n",
      "note_on channel=0 note=62 velocity=127 time=0.04791666666666666\n",
      "note_off channel=0 note=62 velocity=127 time=0.019791666666666666\n",
      "note_on channel=0 note=61 velocity=127 time=0.026041666666666668\n",
      "note_off channel=0 note=61 velocity=127 time=0.019791666666666666\n",
      "note_on channel=0 note=62 velocity=127 time=0.0020833333333333333\n",
      "note_off channel=0 note=62 velocity=127 time=0.019791666666666666\n",
      "note_on channel=0 note=62 velocity=127 time=0.04791666666666666\n",
      "note_on channel=0 note=60 velocity=127 time=0.008333333333333333\n",
      "note_off channel=0 note=62 velocity=127 time=0.0125\n",
      "note_off channel=0 note=60 velocity=127 time=0.008333333333333333\n",
      "note_on channel=0 note=61 velocity=127 time=0.019791666666666666\n",
      "note_off channel=0 note=61 velocity=127 time=0.019791666666666666\n",
      "note_on channel=0 note=62 velocity=127 time=0.0010416666666666667\n",
      "note_off channel=0 note=62 velocity=127 time=0.019791666666666666\n",
      "note_on channel=0 note=62 velocity=127 time=0.04791666666666666\n",
      "note_off channel=0 note=62 velocity=127 time=0.019791666666666666\n",
      "note_on channel=0 note=61 velocity=127 time=0.028125\n",
      "note_off channel=0 note=61 velocity=127 time=0.019791666666666666\n",
      "note_on channel=0 note=62 velocity=127 time=0\n",
      "note_off channel=0 note=62 velocity=127 time=0.019791666666666666\n",
      "note_on channel=0 note=60 velocity=127 time=0.0020833333333333333\n",
      "note_off channel=0 note=60 velocity=127 time=0.019791666666666666\n",
      "note_on channel=0 note=62 velocity=127 time=0.026041666666666668\n",
      "note_off channel=0 note=62 velocity=127 time=0.019791666666666666\n",
      "note_on channel=0 note=61 velocity=127 time=0.029166666666666667\n",
      "note_on channel=0 note=62 velocity=127 time=0.019791666666666666\n",
      "note_off channel=0 note=61 velocity=127 time=0.0010416666666666667\n",
      "note_off channel=0 note=62 velocity=127 time=0.019791666666666666\n",
      "note_on channel=0 note=62 velocity=127 time=0.04791666666666666\n",
      "note_off channel=0 note=62 velocity=127 time=0.019791666666666666\n",
      "note_on channel=0 note=60 velocity=127 time=0.016666666666666666\n",
      "note_on channel=0 note=61 velocity=127 time=0.0125\n",
      "note_off channel=0 note=60 velocity=127 time=0.007291666666666667\n",
      "note_on channel=0 note=62 velocity=127 time=0.011458333333333333\n",
      "note_off channel=0 note=61 velocity=127 time=0.0010416666666666667\n",
      "note_off channel=0 note=62 velocity=127 time=0.01875\n",
      "note_on channel=0 note=62 velocity=127 time=0.04791666666666666\n",
      "note_off channel=0 note=62 velocity=127 time=0.019791666666666666\n",
      "note_on channel=0 note=61 velocity=127 time=0.030208333333333334\n",
      "note_on channel=0 note=62 velocity=127 time=0.017708333333333333\n",
      "note_off channel=0 note=61 velocity=127 time=0.0020833333333333333\n",
      "note_off channel=0 note=62 velocity=127 time=0.017708333333333333\n",
      "note_on channel=0 note=60 velocity=127 time=0.03125\n",
      "note_on channel=0 note=62 velocity=127 time=0.016666666666666666\n",
      "note_off channel=0 note=60 velocity=127 time=0.003125\n",
      "note_off channel=0 note=62 velocity=127 time=0.016666666666666666\n",
      "note_on channel=0 note=61 velocity=127 time=0.03125\n",
      "note_on channel=0 note=62 velocity=127 time=0.016666666666666666\n",
      "note_off channel=0 note=61 velocity=127 time=0.003125\n",
      "note_off channel=0 note=62 velocity=127 time=0.016666666666666666\n",
      "note_on channel=0 note=62 velocity=127 time=0.04791666666666666\n",
      "note_off channel=0 note=62 velocity=127 time=0.019791666666666666\n",
      "note_on channel=0 note=61 velocity=127 time=0.03229166666666666\n",
      "note_on channel=0 note=60 velocity=127 time=0.013541666666666667\n",
      "note_on channel=0 note=62 velocity=127 time=0.0020833333333333333\n",
      "note_off channel=0 note=61 velocity=127 time=0.004166666666666667\n",
      "note_off channel=0 note=60 velocity=127 time=0.013541666666666667\n",
      "note_off channel=0 note=62 velocity=127 time=0.0020833333333333333\n",
      "note_on channel=0 note=62 velocity=127 time=0.04791666666666666\n",
      "note_off channel=0 note=62 velocity=127 time=0.019791666666666666\n",
      "note_on channel=0 note=61 velocity=127 time=0.03333333333333333\n",
      "note_on channel=0 note=62 velocity=127 time=0.014583333333333334\n",
      "note_off channel=0 note=61 velocity=127 time=0.005208333333333333\n",
      "note_off channel=0 note=62 velocity=127 time=0.014583333333333334\n",
      "note_on channel=0 note=62 velocity=127 time=0.04791666666666666\n",
      "note_on channel=0 note=60 velocity=127 time=0.0125\n",
      "\u001b[91m [DEBUG] > \u001b[0m\n",
      " |>  to_array: msg.time > max_t; t, n\n",
      " |>  1.9989583333333327\n",
      " |>  100\n",
      "note_on channel=0 note=62 velocity=127 time=0.019791666666666666\n",
      "note_on channel=0 note=61 velocity=127 time=0.014583333333333334\n",
      "note_off channel=0 note=62 velocity=127 time=0.00625\n",
      "note_off channel=0 note=61 velocity=127 time=0.014583333333333334\n",
      "note_on channel=0 note=60 velocity=127 time=0.0020833333333333333\n",
      "note_off channel=0 note=60 velocity=127 time=0.019791666666666666\n",
      "note_on channel=0 note=61 velocity=127 time=0.03125\n",
      "note_off channel=0 note=61 velocity=127 time=0.019791666666666666\n",
      "note_on channel=0 note=60 velocity=127 time=0.005208333333333333\n",
      "note_off channel=0 note=60 velocity=127 time=0.019791666666666666\n",
      "note_on channel=0 note=62 velocity=127 time=0.017708333333333333\n",
      "note_on channel=0 note=61 velocity=127 time=0.011458333333333333\n",
      "note_off channel=0 note=62 velocity=127 time=0.008333333333333333\n",
      "note_off channel=0 note=61 velocity=127 time=0.011458333333333333\n",
      "note_on channel=0 note=60 velocity=127 time=0.007291666666666667\n",
      "note_off channel=0 note=60 velocity=127 time=0.019791666666666666\n",
      "note_on channel=0 note=61 velocity=127 time=0.026041666666666668\n",
      "note_off channel=0 note=61 velocity=127 time=0.019791666666666666\n",
      "note_on channel=0 note=60 velocity=127 time=0.009375\n",
      "note_off channel=0 note=60 velocity=127 time=0.019791666666666666\n",
      "note_on channel=0 note=62 velocity=127 time=0.015625\n",
      "note_on channel=0 note=61 velocity=127 time=0.009375\n",
      "note_off channel=0 note=62 velocity=127 time=0.011458333333333333\n",
      "note_off channel=0 note=61 velocity=127 time=0.009375\n",
      "note_on channel=0 note=60 velocity=127 time=0.0125\n",
      "note_off channel=0 note=60 velocity=127 time=0.019791666666666666\n",
      "note_on channel=0 note=61 velocity=127 time=0.021875\n",
      "note_off channel=0 note=61 velocity=127 time=0.019791666666666666\n",
      "note_on channel=0 note=60 velocity=127 time=0.014583333333333334\n",
      "note_off channel=0 note=60 velocity=127 time=0.019791666666666666\n",
      "note_on channel=0 note=62 velocity=127 time=0.0125\n",
      "note_on channel=0 note=61 velocity=127 time=0.00625\n",
      "note_off channel=0 note=62 velocity=127 time=0.013541666666666667\n",
      "note_off channel=0 note=61 velocity=127 time=0.00625\n",
      "note_on channel=0 note=60 velocity=127 time=0.016666666666666666\n",
      "note_off channel=0 note=60 velocity=127 time=0.019791666666666666\n",
      "note_on channel=0 note=61 velocity=127 time=0.016666666666666666\n",
      "note_off channel=0 note=61 velocity=127 time=0.019791666666666666\n",
      "note_on channel=0 note=60 velocity=127 time=0.019791666666666666\n",
      "note_off channel=0 note=60 velocity=127 time=0.019791666666666666\n",
      "note_on channel=0 note=62 velocity=127 time=0.010416666666666666\n",
      "note_on channel=0 note=61 velocity=127 time=0.003125\n",
      "note_off channel=0 note=62 velocity=127 time=0.016666666666666666\n",
      "note_off channel=0 note=61 velocity=127 time=0.003125\n",
      "note_on channel=0 note=60 velocity=127 time=0.021875\n",
      "note_off channel=0 note=60 velocity=127 time=0.019791666666666666\n",
      "note_on channel=0 note=61 velocity=127 time=0.011458333333333333\n",
      "note_off channel=0 note=61 velocity=127 time=0.019791666666666666\n",
      "note_on channel=0 note=60 velocity=127 time=0.02395833333333333\n",
      "note_off channel=0 note=60 velocity=127 time=0.019791666666666666\n",
      "note_on channel=0 note=62 velocity=127 time=0.008333333333333333\n",
      "note_on channel=0 note=61 velocity=127 time=0.0010416666666666667\n",
      "note_off channel=0 note=62 velocity=127 time=0.01875\n",
      "note_off channel=0 note=61 velocity=127 time=0.0010416666666666667\n",
      "note_on channel=0 note=60 velocity=127 time=0.027083333333333334\n",
      "note_off channel=0 note=60 velocity=127 time=0.019791666666666666\n",
      "note_on channel=0 note=61 velocity=127 time=0.007291666666666667\n",
      "note_off channel=0 note=61 velocity=127 time=0.019791666666666666\n",
      "note_on channel=0 note=60 velocity=127 time=0.029166666666666667\n",
      "note_off channel=0 note=60 velocity=127 time=0.019791666666666666\n",
      "note_on channel=0 note=61 velocity=127 time=0.004166666666666667\n",
      "note_on channel=0 note=62 velocity=127 time=0.0020833333333333333\n",
      "note_off channel=0 note=61 velocity=127 time=0.01875\n",
      "note_off channel=0 note=62 velocity=127 time=0.0020833333333333333\n",
      "note_on channel=0 note=60 velocity=127 time=0.030208333333333334\n",
      "note_off channel=0 note=60 velocity=127 time=0.019791666666666666\n",
      "note_on channel=0 note=61 velocity=127 time=0.0020833333333333333\n",
      "note_off channel=0 note=61 velocity=127 time=0.019791666666666666\n",
      "note_on channel=0 note=60 velocity=127 time=0.034375\n",
      "note_on channel=0 note=61 velocity=127 time=0.019791666666666666\n",
      "note_off channel=0 note=60 velocity=127 time=0\n",
      "note_on channel=0 note=62 velocity=127 time=0.004166666666666667\n",
      "note_off channel=0 note=61 velocity=127 time=0.015625\n",
      "note_off channel=0 note=62 velocity=127 time=0.004166666666666667\n",
      "note_on channel=0 note=60 velocity=127 time=0.03229166666666666\n",
      "note_on channel=0 note=61 velocity=127 time=0.017708333333333333\n",
      "note_off channel=0 note=60 velocity=127 time=0.003125\n",
      "note_off channel=0 note=61 velocity=127 time=0.017708333333333333\n",
      "note_on channel=0 note=60 velocity=127 time=0.03958333333333333\n",
      "note_on channel=0 note=61 velocity=127 time=0.014583333333333334\n",
      "note_off channel=0 note=60 velocity=127 time=0.005208333333333333\n",
      "note_on channel=0 note=62 velocity=127 time=0.0020833333333333333\n",
      "note_off channel=0 note=61 velocity=127 time=0.0125\n",
      "note_off channel=0 note=62 velocity=127 time=0.007291666666666667\n",
      "note_on channel=0 note=60 velocity=127 time=0.034375\n",
      "note_on channel=0 note=61 velocity=127 time=0.0125\n",
      "note_off channel=0 note=60 velocity=127 time=0.007291666666666667\n",
      "note_off channel=0 note=61 velocity=127 time=0.0125\n",
      "note_on channel=0 note=60 velocity=127 time=0.04375\n",
      "note_on channel=0 note=61 velocity=127 time=0.010416666666666666\n",
      "note_on channel=0 note=62 velocity=127 time=0.009375\n",
      "note_off channel=0 note=60 velocity=127 time=0\n",
      "note_off channel=0 note=61 velocity=127 time=0.010416666666666666\n",
      "note_off channel=0 note=62 velocity=127 time=0.009375\n",
      "note_on channel=0 note=60 velocity=127 time=0.036458333333333336\n"
     ]
    },
    {
     "name": "stdout",
     "output_type": "stream",
     "text": [
      "note_on channel=0 note=61 velocity=127 time=0.007291666666666667\n",
      "note_off channel=0 note=60 velocity=127 time=0.0125\n",
      "note_off channel=0 note=61 velocity=127 time=0.007291666666666667\n",
      "note_on channel=0 note=60 velocity=127 time=0.04895833333333333\n",
      "note_on channel=0 note=61 velocity=127 time=0.005208333333333333\n",
      "note_on channel=0 note=62 velocity=127 time=0.0125\n",
      "note_off channel=0 note=60 velocity=127 time=0.003125\n",
      "note_off channel=0 note=61 velocity=127 time=0.005208333333333333\n",
      "note_off channel=0 note=62 velocity=127 time=0.0125\n",
      "note_on channel=0 note=60 velocity=127 time=0.03854166666666667\n",
      "note_on channel=0 note=61 velocity=127 time=0.0020833333333333333\n",
      "note_off channel=0 note=60 velocity=127 time=0.017708333333333333\n",
      "note_off channel=0 note=61 velocity=127 time=0.0020833333333333333\n",
      "note_on channel=0 note=60 velocity=127 time=0.05416666666666667\n",
      "note_on channel=0 note=61 velocity=127 time=0\n",
      "note_on channel=0 note=62 velocity=127 time=0.014583333333333334\n",
      "note_off channel=0 note=60 velocity=127 time=0.005208333333333333\n",
      "note_off channel=0 note=61 velocity=127 time=0\n",
      "note_off channel=0 note=62 velocity=127 time=0.014583333333333334\n",
      "note_on channel=0 note=61 velocity=127 time=0.03854166666666667\n",
      "note_on channel=0 note=60 velocity=127 time=0.0020833333333333333\n",
      "note_off channel=0 note=61 velocity=127 time=0.017708333333333333\n",
      "note_off channel=0 note=60 velocity=127 time=0.0020833333333333333\n",
      "note_on channel=0 note=61 velocity=127 time=0.052083333333333336\n",
      "note_on channel=0 note=60 velocity=127 time=0.005208333333333333\n",
      "note_on channel=0 note=62 velocity=127 time=0.0125\n",
      "note_off channel=0 note=61 velocity=127 time=0.0020833333333333333\n",
      "note_off channel=0 note=60 velocity=127 time=0.005208333333333333\n",
      "note_off channel=0 note=62 velocity=127 time=0.0125\n",
      "note_on channel=0 note=61 velocity=127 time=0.036458333333333336\n",
      "note_on channel=0 note=60 velocity=127 time=0.007291666666666667\n",
      "note_off channel=0 note=61 velocity=127 time=0.0125\n",
      "note_off channel=0 note=60 velocity=127 time=0.007291666666666667\n",
      "note_on channel=0 note=61 velocity=127 time=0.046875\n",
      "note_on channel=0 note=60 velocity=127 time=0.009375\n",
      "note_off channel=0 note=61 velocity=127 time=0.010416666666666666\n",
      "note_on channel=0 note=62 velocity=127 time=0\n",
      "note_off channel=0 note=60 velocity=127 time=0.009375\n",
      "note_off channel=0 note=62 velocity=127 time=0.010416666666666666\n",
      "\u001b[91m [DEBUG] > \u001b[0m\n",
      " |>  to_array: msg.time > max_t; t, n\n",
      " |>  1.9906250000000005\n",
      " |>  100\n",
      "note_on channel=0 note=60 velocity=127 time=0.030208333333333334\n",
      "note_on channel=0 note=61 velocity=127 time=0.0125\n",
      "note_off channel=0 note=60 velocity=127 time=0.007291666666666667\n",
      "note_on channel=0 note=62 velocity=127 time=0\n",
      "note_off channel=0 note=61 velocity=127 time=0.0125\n",
      "note_off channel=0 note=62 velocity=127 time=0.008333333333333333\n",
      "note_on channel=0 note=60 velocity=127 time=0.030208333333333334\n",
      "note_off channel=0 note=60 velocity=127 time=0.019791666666666666\n",
      "note_on channel=0 note=60 velocity=127 time=0.051041666666666666\n",
      "note_on channel=0 note=62 velocity=127 time=0.005208333333333333\n",
      "note_off channel=0 note=60 velocity=127 time=0.014583333333333334\n",
      "note_off channel=0 note=62 velocity=127 time=0.005208333333333333\n",
      "note_on channel=0 note=61 velocity=127 time=0.010416666666666666\n",
      "note_off channel=0 note=61 velocity=127 time=0.019791666666666666\n",
      "note_on channel=0 note=60 velocity=127 time=0.014583333333333334\n",
      "note_off channel=0 note=60 velocity=127 time=0.019791666666666666\n",
      "note_on channel=0 note=62 velocity=127 time=0.041666666666666664\n",
      "note_on channel=0 note=60 velocity=127 time=0.009375\n",
      "note_off channel=0 note=62 velocity=127 time=0.010416666666666666\n",
      "note_off channel=0 note=60 velocity=127 time=0.009375\n",
      "note_on channel=0 note=61 velocity=127 time=0.03854166666666667\n",
      "note_on channel=0 note=60 velocity=127 time=0.011458333333333333\n",
      "note_off channel=0 note=61 velocity=127 time=0.008333333333333333\n",
      "note_off channel=0 note=60 velocity=127 time=0.011458333333333333\n",
      "note_on channel=0 note=62 velocity=127 time=0.026041666666666668\n",
      "note_off channel=0 note=62 velocity=127 time=0.019791666666666666\n",
      "note_on channel=0 note=60 velocity=127 time=0.004166666666666667\n",
      "note_off channel=0 note=60 velocity=127 time=0.019791666666666666\n",
      "note_on channel=0 note=60 velocity=127 time=0.051041666666666666\n",
      "note_on channel=0 note=61 velocity=127 time=0.011458333333333333\n",
      "note_off channel=0 note=60 velocity=127 time=0.008333333333333333\n",
      "note_off channel=0 note=61 velocity=127 time=0.011458333333333333\n",
      "note_on channel=0 note=62 velocity=127 time=0\n",
      "note_off channel=0 note=62 velocity=127 time=0.019791666666666666\n",
      "note_on channel=0 note=60 velocity=127 time=0.01875\n",
      "note_off channel=0 note=60 velocity=127 time=0.019791666666666666\n",
      "note_on channel=0 note=60 velocity=127 time=0.051041666666666666\n",
      "note_on channel=0 note=62 velocity=127 time=0.016666666666666666\n",
      "note_off channel=0 note=60 velocity=127 time=0.003125\n",
      "note_on channel=0 note=61 velocity=127 time=0.014583333333333334\n",
      "note_off channel=0 note=62 velocity=127 time=0.0020833333333333333\n",
      "note_off channel=0 note=61 velocity=127 time=0.017708333333333333\n",
      "note_on channel=0 note=60 velocity=127 time=0.015625\n",
      "note_off channel=0 note=60 velocity=127 time=0.019791666666666666\n",
      "note_on channel=0 note=60 velocity=127 time=0.051041666666666666\n",
      "note_on channel=0 note=62 velocity=127 time=0.0020833333333333333\n",
      "note_off channel=0 note=60 velocity=127 time=0.017708333333333333\n",
      "note_off channel=0 note=62 velocity=127 time=0.0020833333333333333\n",
      "note_on channel=0 note=61 velocity=127 time=0.035416666666666666\n",
      "note_on channel=0 note=60 velocity=127 time=0.0125\n",
      "note_off channel=0 note=61 velocity=127 time=0.007291666666666667\n",
      "note_off channel=0 note=60 velocity=127 time=0.0125\n",
      "note_on channel=0 note=62 velocity=127 time=0.03854166666666667\n",
      "note_on channel=0 note=60 velocity=127 time=0.0125\n",
      "note_off channel=0 note=62 velocity=127 time=0.007291666666666667\n",
      "note_off channel=0 note=60 velocity=127 time=0.0125\n",
      "note_on channel=0 note=60 velocity=127 time=0.051041666666666666\n",
      "note_on channel=0 note=61 velocity=127 time=0.010416666666666666\n",
      "note_off channel=0 note=60 velocity=127 time=0.009375\n",
      "note_off channel=0 note=61 velocity=127 time=0.010416666666666666\n",
      "note_on channel=0 note=62 velocity=127 time=0.0125\n",
      "note_off channel=0 note=62 velocity=127 time=0.019791666666666666\n",
      "note_on channel=0 note=60 velocity=127 time=0.007291666666666667\n",
      "note_off channel=0 note=60 velocity=127 time=0.019791666666666666\n",
      "note_on channel=0 note=60 velocity=127 time=0.051041666666666666\n",
      "note_off channel=0 note=60 velocity=127 time=0.019791666666666666\n",
      "note_on channel=0 note=62 velocity=127 time=0.008333333333333333\n",
      "note_on channel=0 note=61 velocity=127 time=0.005208333333333333\n",
      "note_off channel=0 note=62 velocity=127 time=0.014583333333333334\n",
      "note_off channel=0 note=61 velocity=127 time=0.005208333333333333\n",
      "note_on channel=0 note=60 velocity=127 time=0.016666666666666666\n",
      "note_off channel=0 note=60 velocity=127 time=0.019791666666666666\n",
      "note_on channel=0 note=60 velocity=127 time=0.051041666666666666\n",
      "note_on channel=0 note=62 velocity=127 time=0.013541666666666667\n",
      "note_off channel=0 note=60 velocity=127 time=0.00625\n",
      "note_off channel=0 note=62 velocity=127 time=0.013541666666666667\n",
      "note_on channel=0 note=61 velocity=127 time=0.022916666666666665\n",
      "note_on channel=0 note=60 velocity=127 time=0.013541666666666667\n",
      "note_off channel=0 note=61 velocity=127 time=0.00625\n",
      "note_off channel=0 note=60 velocity=127 time=0.013541666666666667\n",
      "note_on channel=0 note=62 velocity=127 time=0.05\n",
      "note_on channel=0 note=60 velocity=127 time=0.0010416666666666667\n",
      "note_off channel=0 note=62 velocity=127 time=0.01875\n",
      "note_off channel=0 note=60 velocity=127 time=0.0010416666666666667\n",
      "note_on channel=0 note=60 velocity=127 time=0.051041666666666666\n",
      "note_on channel=0 note=61 velocity=127 time=0.010416666666666666\n",
      "note_off channel=0 note=60 velocity=127 time=0.010416666666666666\n",
      "note_off channel=0 note=61 velocity=127 time=0.010416666666666666\n",
      "note_on channel=0 note=62 velocity=127 time=0.025\n",
      "note_on channel=0 note=60 velocity=127 time=0.015625\n",
      "note_off channel=0 note=62 velocity=127 time=0.004166666666666667\n",
      "note_off channel=0 note=60 velocity=127 time=0.015625\n",
      "note_on channel=0 note=60 velocity=127 time=0.051041666666666666\n",
      "note_off channel=0 note=60 velocity=127 time=0.019791666666666666\n",
      "note_on channel=0 note=61 velocity=127 time=0.013541666666666667\n",
      "note_on channel=0 note=62 velocity=127 time=0.007291666666666667\n",
      "note_off channel=0 note=61 velocity=127 time=0.0125\n",
      "note_off channel=0 note=62 velocity=127 time=0.007291666666666667\n",
      "note_on channel=0 note=60 velocity=127 time=0.010416666666666666\n",
      "note_off channel=0 note=60 velocity=127 time=0.019791666666666666\n",
      "note_on channel=0 note=60 velocity=127 time=0.051041666666666666\n",
      "note_off channel=0 note=60 velocity=127 time=0.019791666666666666\n",
      "note_on channel=0 note=62 velocity=127 time=0.005208333333333333\n",
      "note_off channel=0 note=62 velocity=127 time=0.019791666666666666\n",
      "note_on channel=0 note=61 velocity=127 time=0.011458333333333333\n",
      "note_on channel=0 note=60 velocity=127 time=0.013541666666666667\n",
      "note_off channel=0 note=61 velocity=127 time=0.00625\n",
      "note_off channel=0 note=60 velocity=127 time=0.013541666666666667\n",
      "note_on channel=0 note=60 velocity=127 time=0.051041666666666666\n",
      "note_on channel=0 note=62 velocity=127 time=0.010416666666666666\n",
      "note_off channel=0 note=60 velocity=127 time=0.009375\n",
      "note_off channel=0 note=62 velocity=127 time=0.010416666666666666\n",
      "note_on channel=0 note=60 velocity=127 time=0.03958333333333333\n",
      "\u001b[91m [DEBUG] > \u001b[0m\n",
      " |>  to_array: msg.time > max_t; t, n\n",
      " |>  2.0031249999999994\n",
      " |>  100\n",
      "note_on channel=0 note=61 velocity=127 time=0.011458333333333333\n",
      "note_on channel=0 note=62 velocity=127 time=0.013541666666666667\n",
      "note_off channel=0 note=61 velocity=127 time=0.00625\n",
      "note_off channel=0 note=62 velocity=127 time=0.013541666666666667\n",
      "note_on channel=0 note=61 velocity=127 time=0.051041666666666666\n",
      "note_on channel=0 note=62 velocity=127 time=0.0125\n",
      "note_off channel=0 note=61 velocity=127 time=0.007291666666666667\n",
      "note_off channel=0 note=62 velocity=127 time=0.0125\n",
      "note_on channel=0 note=60 velocity=127 time=0.0125\n",
      "note_off channel=0 note=60 velocity=127 time=0.019791666666666666\n",
      "note_on channel=0 note=61 velocity=127 time=0.01875\n",
      "note_on channel=0 note=62 velocity=127 time=0.0125\n",
      "note_off channel=0 note=61 velocity=127 time=0.007291666666666667\n",
      "note_off channel=0 note=62 velocity=127 time=0.0125\n",
      "note_on channel=0 note=61 velocity=127 time=0.052083333333333336\n",
      "note_on channel=0 note=62 velocity=127 time=0.011458333333333333\n",
      "note_off channel=0 note=61 velocity=127 time=0.008333333333333333\n",
      "note_off channel=0 note=62 velocity=127 time=0.011458333333333333\n",
      "note_on channel=0 note=60 velocity=127 time=0.003125\n",
      "note_off channel=0 note=60 velocity=127 time=0.019791666666666666\n",
      "note_on channel=0 note=61 velocity=127 time=0.030208333333333334\n",
      "note_on channel=0 note=62 velocity=127 time=0.011458333333333333\n",
      "note_off channel=0 note=61 velocity=127 time=0.009375\n",
      "note_off channel=0 note=62 velocity=127 time=0.011458333333333333\n",
      "note_on channel=0 note=61 velocity=127 time=0.05416666666666667\n",
      "note_on channel=0 note=62 velocity=127 time=0.010416666666666666\n",
      "note_off channel=0 note=61 velocity=127 time=0.009375\n",
      "note_on channel=0 note=60 velocity=127 time=0.003125\n",
      "note_off channel=0 note=62 velocity=127 time=0.007291666666666667\n",
      "note_off channel=0 note=60 velocity=127 time=0.0125\n",
      "note_on channel=0 note=61 velocity=127 time=0.041666666666666664\n",
      "note_on channel=0 note=62 velocity=127 time=0.009375\n",
      "note_off channel=0 note=61 velocity=127 time=0.010416666666666666\n",
      "note_off channel=0 note=62 velocity=127 time=0.009375\n",
      "note_on channel=0 note=61 velocity=127 time=0.05520833333333333\n",
      "note_on channel=0 note=62 velocity=127 time=0.009375\n",
      "note_on channel=0 note=60 velocity=127 time=0.0020833333333333333\n",
      "note_off channel=0 note=61 velocity=127 time=0.008333333333333333\n",
      "note_off channel=0 note=62 velocity=127 time=0.009375\n",
      "note_off channel=0 note=60 velocity=127 time=0.0020833333333333333\n",
      "note_on channel=0 note=61 velocity=127 time=0.053125\n",
      "note_on channel=0 note=62 velocity=127 time=0.008333333333333333\n",
      "note_off channel=0 note=61 velocity=127 time=0.011458333333333333\n",
      "note_off channel=0 note=62 velocity=127 time=0.008333333333333333\n",
      "note_on channel=0 note=61 velocity=127 time=0.05625\n",
      "note_on channel=0 note=60 velocity=127 time=0\n",
      "note_on channel=0 note=62 velocity=127 time=0.007291666666666667\n",
      "note_off channel=0 note=61 velocity=127 time=0.0125\n",
      "note_off channel=0 note=60 velocity=127 time=0\n",
      "note_off channel=0 note=62 velocity=127 time=0.007291666666666667\n",
      "note_on channel=0 note=61 velocity=127 time=0.05625\n",
      "note_on channel=0 note=62 velocity=127 time=0.007291666666666667\n",
      "note_off channel=0 note=61 velocity=127 time=0.0125\n",
      "note_off channel=0 note=62 velocity=127 time=0.007291666666666667\n",
      "note_on channel=0 note=60 velocity=127 time=0.04583333333333333\n",
      "note_on channel=0 note=61 velocity=127 time=0.011458333333333333\n",
      "note_on channel=0 note=62 velocity=127 time=0.00625\n",
      "note_off channel=0 note=60 velocity=127 time=0.0020833333333333333\n",
      "note_off channel=0 note=61 velocity=127 time=0.011458333333333333\n",
      "note_off channel=0 note=62 velocity=127 time=0.00625\n",
      "note_on channel=0 note=61 velocity=127 time=0.058333333333333334\n",
      "note_on channel=0 note=62 velocity=127 time=0.00625\n",
      "note_off channel=0 note=61 velocity=127 time=0.013541666666666667\n",
      "note_off channel=0 note=62 velocity=127 time=0.00625\n",
      "note_on channel=0 note=60 velocity=127 time=0.036458333333333336\n",
      "note_off channel=0 note=60 velocity=127 time=0.019791666666666666\n",
      "note_on channel=0 note=61 velocity=127 time=0.0020833333333333333\n",
      "note_on channel=0 note=62 velocity=127 time=0.005208333333333333\n",
      "note_off channel=0 note=61 velocity=127 time=0.014583333333333334\n",
      "note_off channel=0 note=62 velocity=127 time=0.005208333333333333\n",
      "note_on channel=0 note=61 velocity=127 time=0.059375\n",
      "note_on channel=0 note=62 velocity=127 time=0.005208333333333333\n",
      "note_off channel=0 note=61 velocity=127 time=0.015625\n",
      "note_off channel=0 note=62 velocity=127 time=0.005208333333333333\n",
      "note_on channel=0 note=60 velocity=127 time=0.026041666666666668\n",
      "note_off channel=0 note=60 velocity=127 time=0.019791666666666666\n",
      "note_on channel=0 note=61 velocity=127 time=0.013541666666666667\n",
      "note_on channel=0 note=62 velocity=127 time=0.004166666666666667\n",
      "note_off channel=0 note=61 velocity=127 time=0.015625\n",
      "note_off channel=0 note=62 velocity=127 time=0.004166666666666667\n",
      "note_on channel=0 note=61 velocity=127 time=0.06041666666666667\n",
      "note_on channel=0 note=62 velocity=127 time=0.003125\n",
      "note_off channel=0 note=61 velocity=127 time=0.016666666666666666\n",
      "note_off channel=0 note=62 velocity=127 time=0.003125\n",
      "note_on channel=0 note=60 velocity=127 time=0.015625\n",
      "note_off channel=0 note=60 velocity=127 time=0.019791666666666666\n",
      "note_on channel=0 note=61 velocity=127 time=0.025\n",
      "note_on channel=0 note=62 velocity=127 time=0.003125\n",
      "note_off channel=0 note=61 velocity=127 time=0.016666666666666666\n",
      "note_off channel=0 note=62 velocity=127 time=0.003125\n",
      "note_on channel=0 note=61 velocity=127 time=0.06145833333333333\n",
      "note_on channel=0 note=62 velocity=127 time=0.0020833333333333333\n",
      "note_off channel=0 note=61 velocity=127 time=0.017708333333333333\n",
      "note_off channel=0 note=62 velocity=127 time=0.0020833333333333333\n",
      "note_on channel=0 note=60 velocity=127 time=0.00625\n",
      "note_off channel=0 note=60 velocity=127 time=0.019791666666666666\n",
      "note_on channel=0 note=61 velocity=127 time=0.036458333333333336\n",
      "note_on channel=0 note=62 velocity=127 time=0.0020833333333333333\n",
      "note_off channel=0 note=61 velocity=127 time=0.017708333333333333\n",
      "note_off channel=0 note=62 velocity=127 time=0.0020833333333333333\n",
      "note_on channel=0 note=61 velocity=127 time=0.0625\n",
      "note_on channel=0 note=62 velocity=127 time=0.0010416666666666667\n",
      "note_on channel=0 note=60 velocity=127 time=0.015625\n",
      "note_off channel=0 note=61 velocity=127 time=0.003125\n",
      "note_off channel=0 note=62 velocity=127 time=0.0010416666666666667\n",
      "note_off channel=0 note=60 velocity=127 time=0.015625\n",
      "note_on channel=0 note=61 velocity=127 time=0.04791666666666666\n",
      "note_on channel=0 note=62 velocity=127 time=0.0010416666666666667\n",
      "note_off channel=0 note=61 velocity=127 time=0.019791666666666666\n",
      "note_off channel=0 note=62 velocity=127 time=0.0010416666666666667\n",
      "note_on channel=0 note=62 velocity=127 time=0.06458333333333333\n",
      "note_on channel=0 note=61 velocity=127 time=0\n",
      "note_on channel=0 note=60 velocity=127 time=0.005208333333333333\n",
      "note_off channel=0 note=62 velocity=127 time=0.014583333333333334\n",
      "note_off channel=0 note=61 velocity=127 time=0\n",
      "note_off channel=0 note=60 velocity=127 time=0.005208333333333333\n",
      "note_on channel=0 note=62 velocity=127 time=0.058333333333333334\n",
      "note_on channel=0 note=61 velocity=127 time=0.0010416666666666667\n",
      "note_off channel=0 note=62 velocity=127 time=0.019791666666666666\n",
      "note_off channel=0 note=61 velocity=127 time=0.0010416666666666667\n",
      "note_on channel=0 note=60 velocity=127 time=0.059375\n",
      "\u001b[91m [DEBUG] > \u001b[0m\n",
      " |>  to_array: msg.time > max_t; t, n\n",
      " |>  2.034375\n",
      " |>  100\n",
      "note_on channel=0 note=60 velocity=127 time=0.041666666666666664\n",
      "note_off channel=0 note=60 velocity=127 time=0.019791666666666666\n",
      "note_on channel=0 note=61 velocity=127 time=0.019791666666666666\n",
      "note_off channel=0 note=61 velocity=127 time=0.019791666666666666\n",
      "note_on channel=0 note=62 velocity=127 time=0.0125\n",
      "note_off channel=0 note=62 velocity=127 time=0.019791666666666666\n",
      "note_on channel=0 note=60 velocity=127 time=0.029166666666666667\n",
      "note_off channel=0 note=60 velocity=127 time=0.019791666666666666\n",
      "note_on channel=0 note=61 velocity=127 time=0.078125\n",
      "note_off channel=0 note=61 velocity=127 time=0.019791666666666666\n",
      "note_on channel=0 note=60 velocity=127 time=0.004166666666666667\n",
      "note_off channel=0 note=60 velocity=127 time=0.019791666666666666\n",
      "note_on channel=0 note=62 velocity=127 time=0.021875\n",
      "note_off channel=0 note=62 velocity=127 time=0.019791666666666666\n",
      "note_on channel=0 note=60 velocity=127 time=0.06041666666666667\n",
      "note_off channel=0 note=60 velocity=127 time=0.019791666666666666\n",
      "note_on channel=0 note=61 velocity=127 time=0.013541666666666667\n",
      "note_off channel=0 note=61 velocity=127 time=0.019791666666666666\n",
      "note_on channel=0 note=60 velocity=127 time=0.06875\n",
      "note_on channel=0 note=62 velocity=127 time=0.011458333333333333\n",
      "note_off channel=0 note=60 velocity=127 time=0.008333333333333333\n",
      "note_off channel=0 note=62 velocity=127 time=0.011458333333333333\n",
      "note_on channel=0 note=61 velocity=127 time=0.06041666666666667\n",
      "note_off channel=0 note=61 velocity=127 time=0.019791666666666666\n",
      "note_on channel=0 note=60 velocity=127 time=0.010416666666666666\n",
      "note_off channel=0 note=60 velocity=127 time=0.019791666666666666\n",
      "note_on channel=0 note=62 velocity=127 time=0.08229166666666667\n",
      "note_on channel=0 note=60 velocity=127 time=0.019791666666666666\n",
      "note_off channel=0 note=62 velocity=127 time=0.0010416666666666667\n",
      "note_off channel=0 note=60 velocity=127 time=0.019791666666666666\n",
      "note_on channel=0 note=61 velocity=127 time=0.007291666666666667\n",
      "note_off channel=0 note=61 velocity=127 time=0.019791666666666666\n",
      "note_on channel=0 note=60 velocity=127 time=0.075\n",
      "note_off channel=0 note=60 velocity=127 time=0.019791666666666666\n",
      "note_on channel=0 note=62 velocity=127 time=0.052083333333333336\n",
      "note_on channel=0 note=61 velocity=127 time=0.0125\n",
      "note_off channel=0 note=62 velocity=127 time=0.007291666666666667\n",
      "note_off channel=0 note=61 velocity=127 time=0.0125\n",
      "note_on channel=0 note=60 velocity=127 time=0.016666666666666666\n",
      "note_off channel=0 note=60 velocity=127 time=0.019791666666666666\n",
      "note_on channel=0 note=60 velocity=127 time=0.10208333333333333\n",
      "note_off channel=0 note=60 velocity=127 time=0.019791666666666666\n",
      "note_on channel=0 note=61 velocity=127 time=0.0010416666666666667\n",
      "note_off channel=0 note=61 velocity=127 time=0.019791666666666666\n",
      "note_on channel=0 note=62 velocity=127 time=0\n",
      "note_off channel=0 note=62 velocity=127 time=0.019791666666666666\n",
      "note_on channel=0 note=60 velocity=127 time=0.06041666666666667\n",
      "note_off channel=0 note=60 velocity=127 time=0.019791666666666666\n",
      "note_on channel=0 note=61 velocity=127 time=0.058333333333333334\n",
      "note_off channel=0 note=61 velocity=127 time=0.019791666666666666\n",
      "note_on channel=0 note=60 velocity=127 time=0.022916666666666665\n",
      "note_on channel=0 note=62 velocity=127 time=0.010416666666666666\n",
      "note_off channel=0 note=60 velocity=127 time=0.009375\n",
      "note_off channel=0 note=62 velocity=127 time=0.010416666666666666\n",
      "note_on channel=0 note=60 velocity=127 time=0.09166666666666666\n",
      "note_on channel=0 note=61 velocity=127 time=0.014583333333333334\n",
      "note_off channel=0 note=60 velocity=127 time=0.005208333333333333\n",
      "note_off channel=0 note=61 velocity=127 time=0.014583333333333334\n",
      "note_on channel=0 note=62 velocity=127 time=0.06770833333333333\n",
      "note_on channel=0 note=60 velocity=127 time=0.019791666666666666\n",
      "note_off channel=0 note=62 velocity=127 time=0\n",
      "note_off channel=0 note=60 velocity=127 time=0.019791666666666666\n",
      "note_on channel=0 note=61 velocity=127 time=0.052083333333333336\n",
      "note_off channel=0 note=61 velocity=127 time=0.019791666666666666\n",
      "note_on channel=0 note=60 velocity=127 time=0.029166666666666667\n",
      "note_off channel=0 note=60 velocity=127 time=0.019791666666666666\n",
      "note_on channel=0 note=62 velocity=127 time=0.051041666666666666\n",
      "note_off channel=0 note=62 velocity=127 time=0.019791666666666666\n",
      "note_on channel=0 note=60 velocity=127 time=0.030208333333333334\n",
      "note_on channel=0 note=61 velocity=127 time=0.008333333333333333\n",
      "note_off channel=0 note=60 velocity=127 time=0.011458333333333333\n",
      "note_off channel=0 note=61 velocity=127 time=0.008333333333333333\n",
      "note_on channel=0 note=60 velocity=127 time=0.09375\n",
      "note_off channel=0 note=60 velocity=127 time=0.019791666666666666\n",
      "\u001b[91m [DEBUG] > \u001b[0m\n",
      " |>  to_array: msg.time > max_t; t, n\n",
      " |>  2.006249999999999\n",
      " |>  100\n",
      "note_on channel=0 note=62 velocity=127 time=0.003125\n",
      "note_on channel=0 note=61 velocity=127 time=0.011458333333333333\n",
      "note_off channel=0 note=62 velocity=127 time=0.009375\n",
      "note_off channel=0 note=61 velocity=127 time=0.011458333333333333\n",
      "note_on channel=0 note=60 velocity=127 time=0.03229166666666666\n",
      "note_off channel=0 note=60 velocity=127 time=0.019791666666666666\n",
      "note_on channel=0 note=62 velocity=127 time=0.03854166666666667\n",
      "note_off channel=0 note=62 velocity=127 time=0.019791666666666666\n",
      "note_on channel=0 note=61 velocity=127 time=0.009375\n",
      "note_off channel=0 note=61 velocity=127 time=0.019791666666666666\n",
      "note_on channel=0 note=60 velocity=127 time=0.0125\n",
      "note_off channel=0 note=60 velocity=127 time=0.019791666666666666\n",
      "note_on channel=0 note=62 velocity=127 time=0.03958333333333333\n",
      "note_off channel=0 note=62 velocity=127 time=0.019791666666666666\n",
      "note_on channel=0 note=61 velocity=127 time=0.028125\n",
      "note_on channel=0 note=60 velocity=127 time=0.013541666666666667\n",
      "note_off channel=0 note=61 velocity=127 time=0.007291666666666667\n",
      "note_off channel=0 note=60 velocity=127 time=0.013541666666666667\n",
      "note_on channel=0 note=62 velocity=127 time=0.040625\n",
      "note_off channel=0 note=62 velocity=127 time=0.019791666666666666\n",
      "note_on channel=0 note=60 velocity=127 time=0.03958333333333333\n",
      "note_on channel=0 note=61 velocity=127 time=0.00625\n",
      "note_off channel=0 note=60 velocity=127 time=0.013541666666666667\n",
      "note_off channel=0 note=61 velocity=127 time=0.00625\n",
      "note_on channel=0 note=62 velocity=127 time=0.034375\n",
      "note_off channel=0 note=62 velocity=127 time=0.019791666666666666\n",
      "note_on channel=0 note=60 velocity=127 time=0.03854166666666667\n",
      "note_off channel=0 note=60 velocity=127 time=0.019791666666666666\n",
      "note_on channel=0 note=61 velocity=127 time=0.00625\n",
      "note_off channel=0 note=61 velocity=127 time=0.019791666666666666\n",
      "note_on channel=0 note=62 velocity=127 time=0.016666666666666666\n",
      "note_off channel=0 note=62 velocity=127 time=0.019791666666666666\n",
      "note_on channel=0 note=60 velocity=127 time=0.0375\n",
      "note_off channel=0 note=60 velocity=127 time=0.019791666666666666\n",
      "note_on channel=0 note=61 velocity=127 time=0.026041666666666668\n",
      "note_on channel=0 note=62 velocity=127 time=0.017708333333333333\n",
      "note_off channel=0 note=61 velocity=127 time=0.0020833333333333333\n",
      "note_off channel=0 note=62 velocity=127 time=0.017708333333333333\n",
      "note_on channel=0 note=60 velocity=127 time=0.036458333333333336\n",
      "note_off channel=0 note=60 velocity=127 time=0.019791666666666666\n",
      "note_on channel=0 note=62 velocity=127 time=0.04479166666666667\n",
      "note_on channel=0 note=61 velocity=127 time=0.0010416666666666667\n",
      "note_off channel=0 note=62 velocity=127 time=0.01875\n",
      "note_off channel=0 note=61 velocity=127 time=0.0010416666666666667\n",
      "note_on channel=0 note=60 velocity=127 time=0.035416666666666666\n",
      "note_off channel=0 note=60 velocity=127 time=0.019791666666666666\n",
      "note_on channel=0 note=62 velocity=127 time=0.04583333333333333\n",
      "note_on channel=0 note=61 velocity=127 time=0.019791666666666666\n",
      "note_off channel=0 note=62 velocity=127 time=0.0010416666666666667\n",
      "note_off channel=0 note=61 velocity=127 time=0.019791666666666666\n",
      "note_on channel=0 note=60 velocity=127 time=0.015625\n",
      "note_off channel=0 note=60 velocity=127 time=0.019791666666666666\n",
      "note_on channel=0 note=62 velocity=127 time=0.046875\n",
      "note_off channel=0 note=62 velocity=127 time=0.019791666666666666\n",
      "note_on channel=0 note=61 velocity=127 time=0.017708333333333333\n",
      "note_on channel=0 note=60 velocity=127 time=0.015625\n",
      "note_off channel=0 note=61 velocity=127 time=0.004166666666666667\n",
      "note_off channel=0 note=60 velocity=127 time=0.015625\n",
      "note_on channel=0 note=62 velocity=127 time=0.04791666666666666\n",
      "note_off channel=0 note=62 velocity=127 time=0.019791666666666666\n",
      "note_on channel=0 note=60 velocity=127 time=0.03229166666666666\n",
      "note_on channel=0 note=61 velocity=127 time=0.004166666666666667\n",
      "note_off channel=0 note=60 velocity=127 time=0.015625\n",
      "note_off channel=0 note=61 velocity=127 time=0.004166666666666667\n",
      "note_on channel=0 note=62 velocity=127 time=0.04479166666666667\n",
      "note_off channel=0 note=62 velocity=127 time=0.019791666666666666\n",
      "note_on channel=0 note=60 velocity=127 time=0.03125\n",
      "note_off channel=0 note=60 velocity=127 time=0.019791666666666666\n",
      "note_on channel=0 note=61 velocity=127 time=0.003125\n",
      "note_off channel=0 note=61 velocity=127 time=0.019791666666666666\n",
      "note_on channel=0 note=62 velocity=127 time=0.026041666666666668\n",
      "note_off channel=0 note=62 velocity=127 time=0.019791666666666666\n",
      "note_on channel=0 note=60 velocity=127 time=0.030208333333333334\n",
      "note_off channel=0 note=60 velocity=127 time=0.019791666666666666\n",
      "note_on channel=0 note=61 velocity=127 time=0.022916666666666665\n",
      "note_off channel=0 note=61 velocity=127 time=0.019791666666666666\n",
      "note_on channel=0 note=62 velocity=127 time=0.008333333333333333\n",
      "note_off channel=0 note=62 velocity=127 time=0.019791666666666666\n",
      "note_on channel=0 note=60 velocity=127 time=0.029166666666666667\n",
      "note_off channel=0 note=60 velocity=127 time=0.019791666666666666\n",
      "note_on channel=0 note=61 velocity=127 time=0.042708333333333334\n",
      "note_on channel=0 note=62 velocity=127 time=0.009375\n",
      "note_off channel=0 note=61 velocity=127 time=0.010416666666666666\n",
      "note_off channel=0 note=62 velocity=127 time=0.009375\n",
      "note_on channel=0 note=60 velocity=127 time=0.028125\n",
      "note_off channel=0 note=60 velocity=127 time=0.019791666666666666\n",
      "note_on channel=0 note=62 velocity=127 time=0.053125\n",
      "note_on channel=0 note=61 velocity=127 time=0.009375\n",
      "note_off channel=0 note=62 velocity=127 time=0.010416666666666666\n",
      "note_off channel=0 note=61 velocity=127 time=0.009375\n",
      "note_on channel=0 note=60 velocity=127 time=0.017708333333333333\n",
      "note_off channel=0 note=60 velocity=127 time=0.019791666666666666\n",
      "note_on channel=0 note=62 velocity=127 time=0.05416666666666667\n",
      "note_off channel=0 note=62 velocity=127 time=0.019791666666666666\n",
      "note_on channel=0 note=61 velocity=127 time=0.007291666666666667\n",
      "note_on channel=0 note=60 velocity=127 time=0.01875\n",
      "note_off channel=0 note=61 velocity=127 time=0.0020833333333333333\n",
      "note_off channel=0 note=60 velocity=127 time=0.01875\n",
      "\u001b[91m [DEBUG] > \u001b[0m\n",
      " |>  to_array: msg.time > max_t; t, n\n",
      " |>  2.0083333333333333\n",
      " |>  100\n"
     ]
    },
    {
     "name": "stdout",
     "output_type": "stream",
     "text": [
      "note_on channel=0 note=62 velocity=127 time=0.07708333333333334\n",
      "note_on channel=0 note=60 velocity=127 time=0.004166666666666667\n",
      "note_off channel=0 note=62 velocity=127 time=0.015625\n",
      "note_off channel=0 note=60 velocity=127 time=0.004166666666666667\n",
      "note_on channel=0 note=61 velocity=127 time=0.09791666666666667\n",
      "note_on channel=0 note=62 velocity=127 time=0.009375\n",
      "note_off channel=0 note=61 velocity=127 time=0.011458333333333333\n",
      "note_off channel=0 note=62 velocity=127 time=0.009375\n",
      "note_on channel=0 note=60 velocity=127 time=0.1\n",
      "note_on channel=0 note=62 velocity=127 time=0.010416666666666666\n",
      "note_off channel=0 note=60 velocity=127 time=0.009375\n",
      "note_off channel=0 note=62 velocity=127 time=0.010416666666666666\n",
      "note_on channel=0 note=61 velocity=127 time=0.07916666666666666\n",
      "note_off channel=0 note=61 velocity=127 time=0.019791666666666666\n",
      "note_on channel=0 note=62 velocity=127 time=0.011458333333333333\n",
      "note_off channel=0 note=62 velocity=127 time=0.019791666666666666\n",
      "note_on channel=0 note=60 velocity=127 time=0.08541666666666667\n",
      "note_off channel=0 note=60 velocity=127 time=0.019791666666666666\n",
      "note_on channel=0 note=62 velocity=127 time=0.005208333333333333\n",
      "note_off channel=0 note=62 velocity=127 time=0.019791666666666666\n",
      "note_on channel=0 note=61 velocity=127 time=0.05625\n",
      "note_off channel=0 note=61 velocity=127 time=0.019791666666666666\n",
      "note_on channel=0 note=62 velocity=127 time=0.034375\n",
      "note_off channel=0 note=62 velocity=127 time=0.019791666666666666\n",
      "note_on channel=0 note=60 velocity=127 time=0.07083333333333333\n",
      "note_off channel=0 note=60 velocity=127 time=0.019791666666666666\n",
      "note_on channel=0 note=62 velocity=127 time=0.019791666666666666\n",
      "note_off channel=0 note=62 velocity=127 time=0.019791666666666666\n",
      "note_on channel=0 note=61 velocity=127 time=0.034375\n",
      "note_off channel=0 note=61 velocity=127 time=0.019791666666666666\n",
      "note_on channel=0 note=62 velocity=127 time=0.057291666666666664\n",
      "note_off channel=0 note=62 velocity=127 time=0.019791666666666666\n",
      "note_on channel=0 note=60 velocity=127 time=0.05625\n",
      "note_off channel=0 note=60 velocity=127 time=0.019791666666666666\n",
      "note_on channel=0 note=62 velocity=127 time=0.034375\n",
      "note_off channel=0 note=62 velocity=127 time=0.019791666666666666\n",
      "note_on channel=0 note=61 velocity=127 time=0.011458333333333333\n",
      "note_off channel=0 note=61 velocity=127 time=0.019791666666666666\n",
      "note_on channel=0 note=62 velocity=127 time=0.07916666666666666\n",
      "note_off channel=0 note=62 velocity=127 time=0.019791666666666666\n",
      "note_on channel=0 note=60 velocity=127 time=0.041666666666666664\n",
      "note_off channel=0 note=60 velocity=127 time=0.019791666666666666\n",
      "note_on channel=0 note=62 velocity=127 time=0.04895833333333333\n",
      "note_on channel=0 note=61 velocity=127 time=0.008333333333333333\n",
      "note_off channel=0 note=62 velocity=127 time=0.011458333333333333\n",
      "note_off channel=0 note=61 velocity=127 time=0.008333333333333333\n",
      "note_on channel=0 note=62 velocity=127 time=0.10208333333333333\n",
      "note_off channel=0 note=62 velocity=127 time=0.019791666666666666\n",
      "note_on channel=0 note=60 velocity=127 time=0.027083333333333334\n",
      "note_off channel=0 note=60 velocity=127 time=0.019791666666666666\n",
      "note_on channel=0 note=61 velocity=127 time=0.05\n",
      "note_on channel=0 note=62 velocity=127 time=0.013541666666666667\n",
      "note_off channel=0 note=61 velocity=127 time=0.00625\n",
      "note_off channel=0 note=62 velocity=127 time=0.013541666666666667\n",
      "note_on channel=0 note=62 velocity=127 time=0.11041666666666666\n",
      "note_off channel=0 note=62 velocity=127 time=0.019791666666666666\n",
      "note_on channel=0 note=60 velocity=127 time=0.0125\n",
      "note_off channel=0 note=60 velocity=127 time=0.019791666666666666\n",
      "note_on channel=0 note=61 velocity=127 time=0.041666666666666664\n",
      "note_off channel=0 note=61 velocity=127 time=0.019791666666666666\n",
      "note_on channel=0 note=62 velocity=127 time=0.016666666666666666\n",
      "note_off channel=0 note=62 velocity=127 time=0.019791666666666666\n",
      "note_on channel=0 note=62 velocity=127 time=0.11041666666666666\n",
      "\u001b[91m [DEBUG] > \u001b[0m\n",
      " |>  to_array: msg.time > max_t; t, n\n",
      " |>  2.033333333333333\n",
      " |>  100\n",
      "note_on channel=0 note=62 velocity=127 time=0.019791666666666666\n",
      "note_on channel=0 note=60 velocity=127 time=0.003125\n",
      "note_off channel=0 note=62 velocity=127 time=0.016666666666666666\n",
      "note_off channel=0 note=60 velocity=127 time=0.003125\n",
      "note_on channel=0 note=61 velocity=127 time=0.027083333333333334\n",
      "note_off channel=0 note=61 velocity=127 time=0.019791666666666666\n",
      "note_on channel=0 note=62 velocity=127 time=0.010416666666666666\n",
      "note_on channel=0 note=60 velocity=127 time=0.010416666666666666\n",
      "note_off channel=0 note=62 velocity=127 time=0.009375\n",
      "note_off channel=0 note=60 velocity=127 time=0.010416666666666666\n",
      "note_on channel=0 note=61 velocity=127 time=0.029166666666666667\n",
      "note_off channel=0 note=61 velocity=127 time=0.019791666666666666\n",
      "note_on channel=0 note=62 velocity=127 time=0.0010416666666666667\n",
      "note_on channel=0 note=60 velocity=127 time=0.017708333333333333\n",
      "note_off channel=0 note=62 velocity=127 time=0.0020833333333333333\n",
      "note_off channel=0 note=60 velocity=127 time=0.017708333333333333\n",
      "note_on channel=0 note=61 velocity=127 time=0.03125\n",
      "note_on channel=0 note=62 velocity=127 time=0.0125\n",
      "note_off channel=0 note=61 velocity=127 time=0.008333333333333333\n",
      "note_off channel=0 note=62 velocity=127 time=0.0125\n",
      "note_on channel=0 note=60 velocity=127 time=0.005208333333333333\n",
      "note_off channel=0 note=60 velocity=127 time=0.019791666666666666\n",
      "note_on channel=0 note=61 velocity=127 time=0.03229166666666666\n",
      "note_on channel=0 note=62 velocity=127 time=0.003125\n",
      "note_off channel=0 note=61 velocity=127 time=0.016666666666666666\n",
      "note_off channel=0 note=62 velocity=127 time=0.003125\n",
      "note_on channel=0 note=60 velocity=127 time=0.0125\n",
      "note_off channel=0 note=60 velocity=127 time=0.019791666666666666\n",
      "note_on channel=0 note=62 velocity=127 time=0.028125\n",
      "note_on channel=0 note=61 velocity=127 time=0.00625\n",
      "note_off channel=0 note=62 velocity=127 time=0.013541666666666667\n",
      "note_off channel=0 note=61 velocity=127 time=0.00625\n",
      "note_on channel=0 note=60 velocity=127 time=0.013541666666666667\n",
      "note_off channel=0 note=60 velocity=127 time=0.019791666666666666\n",
      "note_on channel=0 note=62 velocity=127 time=0.020833333333333332\n",
      "note_on channel=0 note=61 velocity=127 time=0.015625\n",
      "note_off channel=0 note=62 velocity=127 time=0.005208333333333333\n",
      "note_off channel=0 note=61 velocity=127 time=0.015625\n",
      "note_on channel=0 note=60 velocity=127 time=0.011458333333333333\n",
      "note_off channel=0 note=60 velocity=127 time=0.019791666666666666\n",
      "note_on channel=0 note=62 velocity=127 time=0.013541666666666667\n",
      "note_off channel=0 note=62 velocity=127 time=0.019791666666666666\n",
      "note_on channel=0 note=61 velocity=127 time=0.004166666666666667\n",
      "note_off channel=0 note=61 velocity=127 time=0.019791666666666666\n",
      "note_on channel=0 note=60 velocity=127 time=0.010416666666666666\n",
      "note_off channel=0 note=60 velocity=127 time=0.019791666666666666\n",
      "note_on channel=0 note=62 velocity=127 time=0.00625\n",
      "note_off channel=0 note=62 velocity=127 time=0.019791666666666666\n",
      "note_on channel=0 note=61 velocity=127 time=0.013541666666666667\n",
      "note_off channel=0 note=61 velocity=127 time=0.019791666666666666\n",
      "note_on channel=0 note=60 velocity=127 time=0.008333333333333333\n",
      "note_on channel=0 note=62 velocity=127 time=0.019791666666666666\n",
      "note_off channel=0 note=60 velocity=127 time=0.0010416666666666667\n",
      "note_off channel=0 note=62 velocity=127 time=0.019791666666666666\n",
      "note_on channel=0 note=61 velocity=127 time=0.022916666666666665\n",
      "note_off channel=0 note=61 velocity=127 time=0.019791666666666666\n",
      "note_on channel=0 note=60 velocity=127 time=0.00625\n",
      "note_on channel=0 note=62 velocity=127 time=0.0125\n",
      "note_off channel=0 note=60 velocity=127 time=0.008333333333333333\n",
      "note_off channel=0 note=62 velocity=127 time=0.0125\n",
      "note_on channel=0 note=61 velocity=127 time=0.03125\n",
      "note_off channel=0 note=61 velocity=127 time=0.019791666666666666\n",
      "note_on channel=0 note=60 velocity=127 time=0.004166666666666667\n",
      "note_on channel=0 note=62 velocity=127 time=0.005208333333333333\n",
      "note_off channel=0 note=60 velocity=127 time=0.015625\n",
      "note_off channel=0 note=62 velocity=127 time=0.005208333333333333\n",
      "note_on channel=0 note=61 velocity=127 time=0.040625\n",
      "note_off channel=0 note=61 velocity=127 time=0.019791666666666666\n",
      "note_on channel=0 note=62 velocity=127 time=0\n",
      "note_on channel=0 note=60 velocity=127 time=0.0020833333333333333\n",
      "note_off channel=0 note=62 velocity=127 time=0.017708333333333333\n",
      "note_off channel=0 note=60 velocity=127 time=0.0020833333333333333\n",
      "note_on channel=0 note=61 velocity=127 time=0.046875\n",
      "note_on channel=0 note=62 velocity=127 time=0.011458333333333333\n",
      "note_off channel=0 note=61 velocity=127 time=0.009375\n",
      "note_on channel=0 note=60 velocity=127 time=0.0010416666666666667\n",
      "note_off channel=0 note=62 velocity=127 time=0.010416666666666666\n",
      "note_off channel=0 note=60 velocity=127 time=0.009375\n",
      "note_on channel=0 note=61 velocity=127 time=0.04895833333333333\n",
      "note_on channel=0 note=62 velocity=127 time=0.0020833333333333333\n",
      "note_on channel=0 note=60 velocity=127 time=0.016666666666666666\n",
      "note_off channel=0 note=61 velocity=127 time=0.0010416666666666667\n",
      "note_off channel=0 note=62 velocity=127 time=0.0020833333333333333\n",
      "note_off channel=0 note=60 velocity=127 time=0.016666666666666666\n",
      "note_on channel=0 note=62 velocity=127 time=0.04375\n",
      "note_on channel=0 note=61 velocity=127 time=0.007291666666666667\n",
      "note_off channel=0 note=62 velocity=127 time=0.0125\n",
      "note_on channel=0 note=60 velocity=127 time=0.004166666666666667\n",
      "note_off channel=0 note=61 velocity=127 time=0.003125\n",
      "note_off channel=0 note=60 velocity=127 time=0.017708333333333333\n",
      "note_on channel=0 note=62 velocity=127 time=0.036458333333333336\n",
      "note_on channel=0 note=61 velocity=127 time=0.016666666666666666\n",
      "note_off channel=0 note=62 velocity=127 time=0.004166666666666667\n",
      "note_on channel=0 note=60 velocity=127 time=0.011458333333333333\n",
      "note_off channel=0 note=61 velocity=127 time=0.004166666666666667\n",
      "note_off channel=0 note=60 velocity=127 time=0.015625\n",
      "note_on channel=0 note=62 velocity=127 time=0.029166666666666667\n",
      "note_off channel=0 note=62 velocity=127 time=0.019791666666666666\n",
      "note_on channel=0 note=61 velocity=127 time=0.005208333333333333\n",
      "note_on channel=0 note=60 velocity=127 time=0.013541666666666667\n",
      "note_off channel=0 note=61 velocity=127 time=0.00625\n",
      "note_off channel=0 note=60 velocity=127 time=0.013541666666666667\n",
      "note_on channel=0 note=62 velocity=127 time=0.021875\n",
      "note_off channel=0 note=62 velocity=127 time=0.019791666666666666\n",
      "note_on channel=0 note=61 velocity=127 time=0.014583333333333334\n",
      "note_on channel=0 note=60 velocity=127 time=0.011458333333333333\n",
      "note_off channel=0 note=61 velocity=127 time=0.008333333333333333\n",
      "note_off channel=0 note=60 velocity=127 time=0.011458333333333333\n",
      "note_on channel=0 note=62 velocity=127 time=0.014583333333333334\n",
      "note_off channel=0 note=62 velocity=127 time=0.019791666666666666\n",
      "note_on channel=0 note=61 velocity=127 time=0.02395833333333333\n",
      "note_on channel=0 note=60 velocity=127 time=0.010416666666666666\n",
      "note_off channel=0 note=61 velocity=127 time=0.010416666666666666\n",
      "note_off channel=0 note=60 velocity=127 time=0.010416666666666666\n",
      "note_on channel=0 note=62 velocity=127 time=0.007291666666666667\n",
      "note_off channel=0 note=62 velocity=127 time=0.019791666666666666\n",
      "note_on channel=0 note=61 velocity=127 time=0.03229166666666666\n",
      "note_on channel=0 note=60 velocity=127 time=0.008333333333333333\n",
      "note_off channel=0 note=61 velocity=127 time=0.011458333333333333\n",
      "note_off channel=0 note=60 velocity=127 time=0.008333333333333333\n",
      "note_on channel=0 note=62 velocity=127 time=0\n",
      "note_off channel=0 note=62 velocity=127 time=0.019791666666666666\n",
      "note_on channel=0 note=61 velocity=127 time=0.041666666666666664\n",
      "note_on channel=0 note=60 velocity=127 time=0.00625\n",
      "note_on channel=0 note=62 velocity=127 time=0.0125\n",
      "note_off channel=0 note=61 velocity=127 time=0.0010416666666666667\n",
      "note_off channel=0 note=60 velocity=127 time=0.00625\n",
      "note_off channel=0 note=62 velocity=127 time=0.0125\n",
      "note_on channel=0 note=61 velocity=127 time=0.051041666666666666\n",
      "note_on channel=0 note=60 velocity=127 time=0.004166666666666667\n",
      "note_on channel=0 note=62 velocity=127 time=0.005208333333333333\n",
      "note_off channel=0 note=61 velocity=127 time=0.010416666666666666\n",
      "note_off channel=0 note=60 velocity=127 time=0.004166666666666667\n",
      "note_off channel=0 note=62 velocity=127 time=0.005208333333333333\n",
      "note_on channel=0 note=61 velocity=127 time=0.059375\n",
      "note_on channel=0 note=62 velocity=127 time=0.0010416666666666667\n",
      "note_on channel=0 note=60 velocity=127 time=0.0020833333333333333\n",
      "note_off channel=0 note=61 velocity=127 time=0.017708333333333333\n",
      "note_off channel=0 note=62 velocity=127 time=0.0010416666666666667\n",
      "note_off channel=0 note=60 velocity=127 time=0.0020833333333333333\n",
      "note_on channel=0 note=62 velocity=127 time=0.059375\n",
      "\u001b[91m [DEBUG] > \u001b[0m\n",
      " |>  to_array: msg.time > max_t; t, n\n",
      " |>  2.040625\n",
      " |>  100\n",
      "note_on channel=0 note=62 velocity=127 time=0.013541666666666667\n",
      "note_off channel=0 note=62 velocity=127 time=0.019791666666666666\n",
      "note_on channel=0 note=61 velocity=127 time=0.00625\n",
      "note_off channel=0 note=61 velocity=127 time=0.019791666666666666\n",
      "note_on channel=0 note=60 velocity=127 time=0.02395833333333333\n",
      "note_off channel=0 note=60 velocity=127 time=0.019791666666666666\n",
      "note_on channel=0 note=61 velocity=127 time=0.0125\n",
      "note_off channel=0 note=61 velocity=127 time=0.019791666666666666\n",
      "note_on channel=0 note=62 velocity=127 time=0.019791666666666666\n",
      "note_off channel=0 note=62 velocity=127 time=0.019791666666666666\n",
      "note_on channel=0 note=60 velocity=127 time=0.013541666666666667\n",
      "note_on channel=0 note=61 velocity=127 time=0.004166666666666667\n",
      "note_off channel=0 note=60 velocity=127 time=0.015625\n",
      "note_off channel=0 note=61 velocity=127 time=0.004166666666666667\n",
      "note_on channel=0 note=61 velocity=127 time=0.057291666666666664\n",
      "note_off channel=0 note=61 velocity=127 time=0.019791666666666666\n",
      "note_on channel=0 note=60 velocity=127 time=0.004166666666666667\n",
      "note_on channel=0 note=62 velocity=127 time=0.003125\n",
      "note_off channel=0 note=60 velocity=127 time=0.016666666666666666\n",
      "note_off channel=0 note=62 velocity=127 time=0.003125\n",
      "note_on channel=0 note=61 velocity=127 time=0.029166666666666667\n",
      "note_off channel=0 note=61 velocity=127 time=0.019791666666666666\n",
      "note_on channel=0 note=60 velocity=127 time=0.03333333333333333\n",
      "note_off channel=0 note=60 velocity=127 time=0.019791666666666666\n",
      "note_on channel=0 note=61 velocity=127 time=0.004166666666666667\n",
      "note_on channel=0 note=62 velocity=127 time=0.016666666666666666\n",
      "note_off channel=0 note=61 velocity=127 time=0.003125\n",
      "note_off channel=0 note=62 velocity=127 time=0.016666666666666666\n",
      "note_on channel=0 note=61 velocity=127 time=0.040625\n",
      "note_on channel=0 note=60 velocity=127 time=0.004166666666666667\n",
      "note_off channel=0 note=61 velocity=127 time=0.015625\n",
      "note_off channel=0 note=60 velocity=127 time=0.004166666666666667\n",
      "note_on channel=0 note=61 velocity=127 time=0.053125\n",
      "note_on channel=0 note=62 velocity=127 time=0.005208333333333333\n",
      "note_off channel=0 note=61 velocity=127 time=0.014583333333333334\n",
      "note_off channel=0 note=62 velocity=127 time=0.005208333333333333\n",
      "note_on channel=0 note=60 velocity=127 time=0.008333333333333333\n",
      "note_off channel=0 note=60 velocity=127 time=0.019791666666666666\n",
      "note_on channel=0 note=61 velocity=127 time=0.02395833333333333\n",
      "note_off channel=0 note=61 velocity=127 time=0.019791666666666666\n",
      "note_on channel=0 note=60 velocity=127 time=0.041666666666666664\n",
      "note_on channel=0 note=62 velocity=127 time=0.009375\n",
      "note_on channel=0 note=61 velocity=127 time=0.00625\n",
      "note_off channel=0 note=60 velocity=127 time=0.004166666666666667\n",
      "note_off channel=0 note=62 velocity=127 time=0.009375\n",
      "note_off channel=0 note=61 velocity=127 time=0.00625\n",
      "note_on channel=0 note=61 velocity=127 time=0.057291666666666664\n",
      "note_on channel=0 note=60 velocity=127 time=0.013541666666666667\n",
      "note_off channel=0 note=61 velocity=127 time=0.00625\n",
      "note_off channel=0 note=60 velocity=127 time=0.013541666666666667\n",
      "note_on channel=0 note=62 velocity=127 time=0.026041666666666668\n",
      "note_on channel=0 note=61 velocity=127 time=0.017708333333333333\n",
      "note_off channel=0 note=62 velocity=127 time=0.0020833333333333333\n",
      "note_off channel=0 note=61 velocity=127 time=0.017708333333333333\n",
      "note_on channel=0 note=60 velocity=127 time=0.021875\n",
      "note_off channel=0 note=60 velocity=127 time=0.019791666666666666\n",
      "note_on channel=0 note=61 velocity=127 time=0.015625\n",
      "note_off channel=0 note=61 velocity=127 time=0.019791666666666666\n",
      "note_on channel=0 note=62 velocity=127 time=0.028125\n",
      "note_off channel=0 note=62 velocity=127 time=0.019791666666666666\n",
      "note_on channel=0 note=60 velocity=127 time=0.0020833333333333333\n",
      "note_on channel=0 note=61 velocity=127 time=0.00625\n",
      "note_off channel=0 note=60 velocity=127 time=0.013541666666666667\n",
      "note_off channel=0 note=61 velocity=127 time=0.00625\n",
      "note_on channel=0 note=61 velocity=127 time=0.057291666666666664\n",
      "note_off channel=0 note=61 velocity=127 time=0.019791666666666666\n",
      "note_on channel=0 note=60 velocity=127 time=0.0020833333333333333\n",
      "note_on channel=0 note=62 velocity=127 time=0.014583333333333334\n",
      "note_off channel=0 note=60 velocity=127 time=0.005208333333333333\n",
      "note_off channel=0 note=62 velocity=127 time=0.014583333333333334\n",
      "note_on channel=0 note=61 velocity=127 time=0.020833333333333332\n",
      "note_off channel=0 note=61 velocity=127 time=0.019791666666666666\n",
      "note_on channel=0 note=60 velocity=127 time=0.030208333333333334\n",
      "note_off channel=0 note=60 velocity=127 time=0.019791666666666666\n",
      "note_on channel=0 note=61 velocity=127 time=0.00625\n",
      "note_off channel=0 note=61 velocity=127 time=0.019791666666666666\n",
      "note_on channel=0 note=62 velocity=127 time=0.005208333333333333\n",
      "note_off channel=0 note=62 velocity=127 time=0.019791666666666666\n",
      "note_on channel=0 note=61 velocity=127 time=0.03125\n",
      "note_on channel=0 note=60 velocity=127 time=0.0020833333333333333\n",
      "note_off channel=0 note=61 velocity=127 time=0.017708333333333333\n",
      "note_off channel=0 note=60 velocity=127 time=0.0020833333333333333\n",
      "note_on channel=0 note=61 velocity=127 time=0.05520833333333333\n",
      "note_on channel=0 note=62 velocity=127 time=0.014583333333333334\n",
      "note_off channel=0 note=61 velocity=127 time=0.00625\n",
      "note_on channel=0 note=60 velocity=127 time=0.010416666666666666\n",
      "note_off channel=0 note=62 velocity=127 time=0.003125\n",
      "note_off channel=0 note=60 velocity=127 time=0.016666666666666666\n",
      "note_on channel=0 note=61 velocity=127 time=0.026041666666666668\n",
      "note_off channel=0 note=61 velocity=127 time=0.019791666666666666\n",
      "note_on channel=0 note=60 velocity=127 time=0.03958333333333333\n",
      "note_on channel=0 note=61 velocity=127 time=0.017708333333333333\n",
      "note_off channel=0 note=60 velocity=127 time=0.0020833333333333333\n",
      "note_on channel=0 note=62 velocity=127 time=0.0010416666666666667\n",
      "note_off channel=0 note=61 velocity=127 time=0.017708333333333333\n",
      "note_off channel=0 note=62 velocity=127 time=0.003125\n",
      "note_on channel=0 note=61 velocity=127 time=0.05416666666666667\n",
      "note_on channel=0 note=60 velocity=127 time=0.010416666666666666\n",
      "note_off channel=0 note=61 velocity=127 time=0.009375\n",
      "note_off channel=0 note=60 velocity=127 time=0.010416666666666666\n",
      "note_on channel=0 note=62 velocity=127 time=0.0375\n",
      "note_on channel=0 note=61 velocity=127 time=0.008333333333333333\n",
      "note_off channel=0 note=62 velocity=127 time=0.011458333333333333\n",
      "note_off channel=0 note=61 velocity=127 time=0.008333333333333333\n",
      "note_on channel=0 note=60 velocity=127 time=0.019791666666666666\n",
      "note_off channel=0 note=60 velocity=127 time=0.019791666666666666\n",
      "note_on channel=0 note=61 velocity=127 time=0.017708333333333333\n",
      "note_off channel=0 note=61 velocity=127 time=0.019791666666666666\n",
      "note_on channel=0 note=62 velocity=127 time=0.0375\n",
      "note_on channel=0 note=60 velocity=127 time=0.010416666666666666\n",
      "note_on channel=0 note=61 velocity=127 time=0.009375\n",
      "note_off channel=0 note=62 velocity=127 time=0\n",
      "note_off channel=0 note=60 velocity=127 time=0.010416666666666666\n",
      "note_off channel=0 note=61 velocity=127 time=0.009375\n",
      "note_on channel=0 note=61 velocity=127 time=0.057291666666666664\n",
      "note_on channel=0 note=60 velocity=127 time=0.019791666666666666\n",
      "note_off channel=0 note=61 velocity=127 time=0\n",
      "note_off channel=0 note=60 velocity=127 time=0.019791666666666666\n",
      "\u001b[91m [DEBUG] > \u001b[0m\n",
      " |>  to_array: msg.time > max_t; t, n\n",
      " |>  2.001041666666668\n",
      " |>  100\n",
      "note_on channel=0 note=62 velocity=127 time=0.04791666666666666\n",
      "note_on channel=0 note=60 velocity=127 time=0\n",
      "note_off channel=0 note=62 velocity=127 time=0.019791666666666666\n",
      "note_off channel=0 note=60 velocity=127 time=0\n",
      "note_on channel=0 note=61 velocity=127 time=0.0020833333333333333\n",
      "note_off channel=0 note=61 velocity=127 time=0.019791666666666666\n",
      "note_on channel=0 note=62 velocity=127 time=0.05416666666666667\n",
      "note_on channel=0 note=61 velocity=127 time=0.009375\n",
      "note_off channel=0 note=62 velocity=127 time=0.010416666666666666\n",
      "note_off channel=0 note=61 velocity=127 time=0.009375\n",
      "note_on channel=0 note=60 velocity=127 time=0.020833333333333332\n",
      "note_off channel=0 note=60 velocity=127 time=0.019791666666666666\n",
      "note_on channel=0 note=61 velocity=127 time=0.022916666666666665\n",
      "note_on channel=0 note=62 velocity=127 time=0.003125\n",
      "note_off channel=0 note=61 velocity=127 time=0.016666666666666666\n",
      "note_off channel=0 note=62 velocity=127 time=0.003125\n",
      "note_on channel=0 note=61 velocity=127 time=0.06041666666666667\n",
      "note_on channel=0 note=62 velocity=127 time=0.015625\n",
      "note_on channel=0 note=60 velocity=127 time=0.004166666666666667\n",
      "note_off channel=0 note=61 velocity=127 time=0\n",
      "note_off channel=0 note=62 velocity=127 time=0.015625\n",
      "note_off channel=0 note=60 velocity=127 time=0.004166666666666667\n",
      "note_on channel=0 note=61 velocity=127 time=0.04375\n",
      "note_off channel=0 note=61 velocity=127 time=0.019791666666666666\n",
      "note_on channel=0 note=62 velocity=127 time=0.009375\n",
      "note_off channel=0 note=62 velocity=127 time=0.019791666666666666\n",
      "note_on channel=0 note=60 velocity=127 time=0.03333333333333333\n",
      "note_on channel=0 note=61 velocity=127 time=0.0010416666666666667\n",
      "note_off channel=0 note=60 velocity=127 time=0.01875\n",
      "note_off channel=0 note=61 velocity=127 time=0.0010416666666666667\n",
      "note_on channel=0 note=62 velocity=127 time=0.021875\n",
      "note_off channel=0 note=62 velocity=127 time=0.019791666666666666\n",
      "note_on channel=0 note=61 velocity=127 time=0.021875\n",
      "note_off channel=0 note=61 velocity=127 time=0.019791666666666666\n",
      "note_on channel=0 note=62 velocity=127 time=0.034375\n",
      "note_on channel=0 note=60 velocity=127 time=0.007291666666666667\n",
      "note_off channel=0 note=62 velocity=127 time=0.0125\n",
      "note_off channel=0 note=60 velocity=127 time=0.007291666666666667\n",
      "note_on channel=0 note=61 velocity=127 time=0.0020833333333333333\n",
      "note_off channel=0 note=61 velocity=127 time=0.019791666666666666\n",
      "note_on channel=0 note=62 velocity=127 time=0.046875\n",
      "note_on channel=0 note=61 velocity=127 time=0.015625\n",
      "note_off channel=0 note=62 velocity=127 time=0.004166666666666667\n"
     ]
    },
    {
     "name": "stdout",
     "output_type": "stream",
     "text": [
      "note_off channel=0 note=61 velocity=127 time=0.015625\n",
      "note_on channel=0 note=60 velocity=127 time=0.020833333333333332\n",
      "note_off channel=0 note=60 velocity=127 time=0.019791666666666666\n",
      "note_on channel=0 note=62 velocity=127 time=0.01875\n",
      "note_on channel=0 note=61 velocity=127 time=0.003125\n",
      "note_off channel=0 note=62 velocity=127 time=0.016666666666666666\n",
      "note_off channel=0 note=61 velocity=127 time=0.003125\n",
      "note_on channel=0 note=61 velocity=127 time=0.06354166666666666\n",
      "note_on channel=0 note=62 velocity=127 time=0.009375\n",
      "note_off channel=0 note=61 velocity=127 time=0.010416666666666666\n",
      "note_on channel=0 note=60 velocity=127 time=0\n",
      "note_off channel=0 note=62 velocity=127 time=0.009375\n",
      "note_off channel=0 note=60 velocity=127 time=0.010416666666666666\n",
      "note_on channel=0 note=61 velocity=127 time=0.042708333333333334\n",
      "note_off channel=0 note=61 velocity=127 time=0.019791666666666666\n",
      "note_on channel=0 note=62 velocity=127 time=0.0020833333333333333\n",
      "note_off channel=0 note=62 velocity=127 time=0.019791666666666666\n",
      "note_on channel=0 note=60 velocity=127 time=0.040625\n",
      "note_on channel=0 note=61 velocity=127 time=0\n",
      "note_off channel=0 note=60 velocity=127 time=0.019791666666666666\n",
      "note_off channel=0 note=61 velocity=127 time=0\n",
      "note_on channel=0 note=62 velocity=127 time=0.015625\n",
      "note_off channel=0 note=62 velocity=127 time=0.019791666666666666\n",
      "note_on channel=0 note=61 velocity=127 time=0.028125\n",
      "note_off channel=0 note=61 velocity=127 time=0.019791666666666666\n",
      "note_on channel=0 note=62 velocity=127 time=0.028125\n",
      "note_on channel=0 note=60 velocity=127 time=0.014583333333333334\n",
      "note_off channel=0 note=62 velocity=127 time=0.00625\n",
      "note_off channel=0 note=60 velocity=127 time=0.014583333333333334\n",
      "note_on channel=0 note=61 velocity=127 time=0.0010416666666666667\n",
      "note_off channel=0 note=61 velocity=127 time=0.019791666666666666\n",
      "note_on channel=0 note=62 velocity=127 time=0.040625\n",
      "note_off channel=0 note=62 velocity=127 time=0.019791666666666666\n",
      "note_on channel=0 note=61 velocity=127 time=0.0020833333333333333\n",
      "note_off channel=0 note=61 velocity=127 time=0.019791666666666666\n",
      "note_on channel=0 note=60 velocity=127 time=0.021875\n",
      "note_off channel=0 note=60 velocity=127 time=0.019791666666666666\n",
      "note_on channel=0 note=62 velocity=127 time=0.0125\n",
      "note_on channel=0 note=61 velocity=127 time=0.009375\n",
      "note_off channel=0 note=62 velocity=127 time=0.010416666666666666\n",
      "note_off channel=0 note=61 velocity=127 time=0.009375\n",
      "note_on channel=0 note=61 velocity=127 time=0.06354166666666666\n",
      "note_on channel=0 note=62 velocity=127 time=0.003125\n",
      "note_off channel=0 note=61 velocity=127 time=0.016666666666666666\n",
      "note_on channel=0 note=60 velocity=127 time=0.0010416666666666667\n",
      "note_off channel=0 note=62 velocity=127 time=0.0020833333333333333\n",
      "note_off channel=0 note=60 velocity=127 time=0.017708333333333333\n",
      "note_on channel=0 note=61 velocity=127 time=0.042708333333333334\n",
      "note_on channel=0 note=62 velocity=127 time=0.016666666666666666\n",
      "note_off channel=0 note=61 velocity=127 time=0.004166666666666667\n",
      "note_off channel=0 note=62 velocity=127 time=0.016666666666666666\n",
      "note_on channel=0 note=61 velocity=127 time=0.046875\n",
      "note_on channel=0 note=60 velocity=127 time=0\n",
      "note_off channel=0 note=61 velocity=127 time=0.019791666666666666\n",
      "note_off channel=0 note=60 velocity=127 time=0\n",
      "note_on channel=0 note=62 velocity=127 time=0.008333333333333333\n",
      "note_off channel=0 note=62 velocity=127 time=0.019791666666666666\n",
      "note_on channel=0 note=61 velocity=127 time=0.034375\n",
      "note_off channel=0 note=61 velocity=127 time=0.019791666666666666\n",
      "note_on channel=0 note=62 velocity=127 time=0.021875\n",
      "note_off channel=0 note=62 velocity=127 time=0.019791666666666666\n",
      "note_on channel=0 note=60 velocity=127 time=0.0010416666666666667\n",
      "note_off channel=0 note=60 velocity=127 time=0.019791666666666666\n",
      "note_on channel=0 note=61 velocity=127 time=0\n",
      "note_off channel=0 note=61 velocity=127 time=0.019791666666666666\n",
      "note_on channel=0 note=62 velocity=127 time=0.034375\n",
      "note_off channel=0 note=62 velocity=127 time=0.019791666666666666\n",
      "note_on channel=0 note=61 velocity=127 time=0.008333333333333333\n",
      "note_off channel=0 note=61 velocity=127 time=0.019791666666666666\n",
      "note_on channel=0 note=60 velocity=127 time=0.021875\n",
      "note_off channel=0 note=60 velocity=127 time=0.019791666666666666\n",
      "note_on channel=0 note=62 velocity=127 time=0.005208333333333333\n",
      "note_on channel=0 note=61 velocity=127 time=0.015625\n",
      "note_off channel=0 note=62 velocity=127 time=0.004166666666666667\n",
      "note_off channel=0 note=61 velocity=127 time=0.015625\n",
      "\u001b[91m [DEBUG] > \u001b[0m\n",
      " |>  to_array: msg.time > max_t; t, n\n",
      " |>  1.9989583333333332\n",
      " |>  100\n",
      "note_on channel=0 note=61 velocity=127 time=0.036458333333333336\n",
      "note_on channel=0 note=62 velocity=127 time=0.010416666666666666\n",
      "note_off channel=0 note=61 velocity=127 time=0.009375\n",
      "note_off channel=0 note=62 velocity=127 time=0.010416666666666666\n",
      "note_on channel=0 note=60 velocity=127 time=0.021875\n",
      "note_on channel=0 note=61 velocity=127 time=0.017708333333333333\n",
      "note_off channel=0 note=60 velocity=127 time=0.0020833333333333333\n",
      "note_off channel=0 note=61 velocity=127 time=0.017708333333333333\n",
      "note_on channel=0 note=62 velocity=127 time=0.034375\n",
      "note_on channel=0 note=61 velocity=127 time=0.016666666666666666\n",
      "note_off channel=0 note=62 velocity=127 time=0.003125\n",
      "note_off channel=0 note=61 velocity=127 time=0.016666666666666666\n",
      "note_on channel=0 note=61 velocity=127 time=0.05\n",
      "note_off channel=0 note=61 velocity=127 time=0.019791666666666666\n",
      "note_on channel=0 note=62 velocity=127 time=0.007291666666666667\n",
      "note_off channel=0 note=62 velocity=127 time=0.019791666666666666\n",
      "note_on channel=0 note=60 velocity=127 time=0.019791666666666666\n",
      "note_on channel=0 note=61 velocity=127 time=0.003125\n",
      "note_off channel=0 note=60 velocity=127 time=0.016666666666666666\n",
      "note_off channel=0 note=61 velocity=127 time=0.003125\n",
      "note_on channel=0 note=62 velocity=127 time=0.05\n",
      "note_on channel=0 note=61 velocity=127 time=0\n",
      "note_off channel=0 note=62 velocity=127 time=0.019791666666666666\n",
      "note_off channel=0 note=61 velocity=127 time=0\n",
      "note_on channel=0 note=61 velocity=127 time=0.05\n",
      "note_off channel=0 note=61 velocity=127 time=0.019791666666666666\n",
      "note_on channel=0 note=62 velocity=127 time=0.022916666666666665\n",
      "note_off channel=0 note=62 velocity=127 time=0.019791666666666666\n",
      "note_on channel=0 note=61 velocity=127 time=0.007291666666666667\n",
      "note_on channel=0 note=60 velocity=127 time=0.010416666666666666\n",
      "note_off channel=0 note=61 velocity=127 time=0.009375\n",
      "note_off channel=0 note=60 velocity=127 time=0.010416666666666666\n",
      "note_on channel=0 note=61 velocity=127 time=0.03958333333333333\n",
      "note_on channel=0 note=62 velocity=127 time=0.015625\n",
      "note_off channel=0 note=61 velocity=127 time=0.004166666666666667\n",
      "note_off channel=0 note=62 velocity=127 time=0.015625\n",
      "note_on channel=0 note=61 velocity=127 time=0.034375\n",
      "note_off channel=0 note=61 velocity=127 time=0.019791666666666666\n",
      "note_on channel=0 note=62 velocity=127 time=0.03854166666666667\n",
      "note_on channel=0 note=61 velocity=127 time=0.011458333333333333\n",
      "note_off channel=0 note=62 velocity=127 time=0.008333333333333333\n",
      "note_off channel=0 note=61 velocity=127 time=0.011458333333333333\n",
      "note_on channel=0 note=60 velocity=127 time=0.004166666666666667\n",
      "note_off channel=0 note=60 velocity=127 time=0.019791666666666666\n",
      "note_on channel=0 note=61 velocity=127 time=0.026041666666666668\n",
      "note_off channel=0 note=61 velocity=127 time=0.019791666666666666\n",
      "note_on channel=0 note=62 velocity=127 time=0.011458333333333333\n",
      "note_off channel=0 note=62 velocity=127 time=0.019791666666666666\n",
      "note_on channel=0 note=61 velocity=127 time=0.01875\n",
      "note_off channel=0 note=61 velocity=127 time=0.019791666666666666\n",
      "note_on channel=0 note=61 velocity=127 time=0.05\n",
      "note_on channel=0 note=62 velocity=127 time=0.004166666666666667\n",
      "note_off channel=0 note=61 velocity=127 time=0.015625\n",
      "note_off channel=0 note=62 velocity=127 time=0.004166666666666667\n",
      "note_on channel=0 note=60 velocity=127 time=0.013541666666666667\n",
      "note_off channel=0 note=60 velocity=127 time=0.019791666666666666\n",
      "note_on channel=0 note=61 velocity=127 time=0.0125\n",
      "note_off channel=0 note=61 velocity=127 time=0.019791666666666666\n",
      "note_on channel=0 note=62 velocity=127 time=0.028125\n",
      "note_off channel=0 note=62 velocity=127 time=0.019791666666666666\n",
      "note_on channel=0 note=61 velocity=127 time=0.003125\n",
      "note_off channel=0 note=61 velocity=127 time=0.019791666666666666\n",
      "note_on channel=0 note=61 velocity=127 time=0.05\n",
      "note_off channel=0 note=61 velocity=127 time=0.019791666666666666\n",
      "note_on channel=0 note=62 velocity=127 time=0\n",
      "note_off channel=0 note=62 velocity=127 time=0.019791666666666666\n",
      "note_on channel=0 note=60 velocity=127 time=0.011458333333333333\n",
      "note_on channel=0 note=61 velocity=127 time=0.017708333333333333\n",
      "note_off channel=0 note=60 velocity=127 time=0.0020833333333333333\n",
      "note_off channel=0 note=61 velocity=127 time=0.017708333333333333\n",
      "note_on channel=0 note=62 velocity=127 time=0.04375\n",
      "note_on channel=0 note=61 velocity=127 time=0.007291666666666667\n",
      "note_off channel=0 note=62 velocity=127 time=0.013541666666666667\n",
      "note_off channel=0 note=61 velocity=127 time=0.007291666666666667\n",
      "note_on channel=0 note=61 velocity=127 time=0.05\n",
      "note_off channel=0 note=61 velocity=127 time=0.019791666666666666\n",
      "note_on channel=0 note=62 velocity=127 time=0.016666666666666666\n",
      "note_off channel=0 note=62 velocity=127 time=0.019791666666666666\n",
      "note_on channel=0 note=60 velocity=127 time=0.009375\n",
      "note_on channel=0 note=61 velocity=127 time=0.004166666666666667\n",
      "note_off channel=0 note=60 velocity=127 time=0.015625\n",
      "note_off channel=0 note=61 velocity=127 time=0.004166666666666667\n",
      "note_on channel=0 note=61 velocity=127 time=0.05\n",
      "note_on channel=0 note=62 velocity=127 time=0.009375\n",
      "note_off channel=0 note=61 velocity=127 time=0.010416666666666666\n",
      "note_off channel=0 note=62 velocity=127 time=0.009375\n",
      "note_on channel=0 note=61 velocity=127 time=0.041666666666666664\n",
      "note_off channel=0 note=61 velocity=127 time=0.019791666666666666\n",
      "note_on channel=0 note=62 velocity=127 time=0.03229166666666666\n",
      "note_on channel=0 note=61 velocity=127 time=0.017708333333333333\n",
      "note_off channel=0 note=62 velocity=127 time=0.0020833333333333333\n",
      "note_on channel=0 note=60 velocity=127 time=0.007291666666666667\n",
      "note_off channel=0 note=61 velocity=127 time=0.010416666666666666\n",
      "note_off channel=0 note=60 velocity=127 time=0.009375\n",
      "note_on channel=0 note=61 velocity=127 time=0.040625\n",
      "note_off channel=0 note=61 velocity=127 time=0.019791666666666666\n",
      "note_on channel=0 note=62 velocity=127 time=0.005208333333333333\n",
      "note_off channel=0 note=62 velocity=127 time=0.019791666666666666\n",
      "note_on channel=0 note=61 velocity=127 time=0.025\n",
      "note_off channel=0 note=61 velocity=127 time=0.019791666666666666\n",
      "note_on channel=0 note=62 velocity=127 time=0.04791666666666666\n",
      "note_on channel=0 note=61 velocity=127 time=0.0020833333333333333\n",
      "note_off channel=0 note=62 velocity=127 time=0.017708333333333333\n",
      "note_off channel=0 note=61 velocity=127 time=0.0020833333333333333\n",
      "note_on channel=0 note=60 velocity=127 time=0.003125\n",
      "note_off channel=0 note=60 velocity=127 time=0.019791666666666666\n",
      "note_on channel=0 note=61 velocity=127 time=0.027083333333333334\n",
      "note_off channel=0 note=61 velocity=127 time=0.019791666666666666\n",
      "note_on channel=0 note=62 velocity=127 time=0.020833333333333332\n",
      "note_off channel=0 note=62 velocity=127 time=0.019791666666666666\n",
      "note_on channel=0 note=61 velocity=127 time=0.009375\n",
      "\u001b[91m [DEBUG] > \u001b[0m\n",
      " |>  to_array: msg.time > max_t; t, n\n",
      " |>  1.9947916666666665\n",
      " |>  100\n",
      "note_on channel=0 note=61 velocity=127 time=0.009375\n",
      "note_off channel=0 note=61 velocity=127 time=0.019791666666666666\n",
      "note_on channel=0 note=61 velocity=127 time=0.06041666666666667\n",
      "note_off channel=0 note=61 velocity=127 time=0.019791666666666666\n",
      "note_on channel=0 note=62 velocity=127 time=0.004166666666666667\n",
      "note_off channel=0 note=62 velocity=127 time=0.019791666666666666\n",
      "note_on channel=0 note=61 velocity=127 time=0.035416666666666666\n",
      "note_off channel=0 note=61 velocity=127 time=0.019791666666666666\n",
      "note_on channel=0 note=60 velocity=127 time=0.010416666666666666\n",
      "note_off channel=0 note=60 velocity=127 time=0.019791666666666666\n",
      "note_on channel=0 note=61 velocity=127 time=0.030208333333333334\n",
      "note_on channel=0 note=62 velocity=127 time=0.005208333333333333\n",
      "note_off channel=0 note=61 velocity=127 time=0.015625\n",
      "note_off channel=0 note=62 velocity=127 time=0.005208333333333333\n",
      "note_on channel=0 note=61 velocity=127 time=0.05520833333333333\n",
      "note_off channel=0 note=61 velocity=127 time=0.019791666666666666\n",
      "note_on channel=0 note=62 velocity=127 time=0.04479166666666667\n",
      "note_on channel=0 note=61 velocity=127 time=0.014583333333333334\n",
      "note_off channel=0 note=62 velocity=127 time=0.005208333333333333\n",
      "note_off channel=0 note=61 velocity=127 time=0.014583333333333334\n",
      "note_on channel=0 note=60 velocity=127 time=0.017708333333333333\n",
      "note_off channel=0 note=60 velocity=127 time=0.019791666666666666\n",
      "note_on channel=0 note=61 velocity=127 time=0.021875\n",
      "note_off channel=0 note=61 velocity=127 time=0.019791666666666666\n",
      "note_on channel=0 note=62 velocity=127 time=0.025\n",
      "note_off channel=0 note=62 velocity=127 time=0.019791666666666666\n",
      "note_on channel=0 note=61 velocity=127 time=0.014583333333333334\n",
      "note_off channel=0 note=61 velocity=127 time=0.019791666666666666\n",
      "note_on channel=0 note=61 velocity=127 time=0.06041666666666667\n",
      "note_off channel=0 note=61 velocity=127 time=0.019791666666666666\n",
      "note_on channel=0 note=62 velocity=127 time=0.005208333333333333\n",
      "note_off channel=0 note=62 velocity=127 time=0.019791666666666666\n",
      "note_on channel=0 note=60 velocity=127 time=0\n",
      "note_off channel=0 note=60 velocity=127 time=0.019791666666666666\n",
      "note_on channel=0 note=61 velocity=127 time=0.014583333333333334\n",
      "note_off channel=0 note=61 velocity=127 time=0.019791666666666666\n",
      "note_on channel=0 note=61 velocity=127 time=0.06041666666666667\n",
      "note_on channel=0 note=62 velocity=127 time=0.005208333333333333\n",
      "note_off channel=0 note=61 velocity=127 time=0.014583333333333334\n",
      "note_off channel=0 note=62 velocity=127 time=0.005208333333333333\n",
      "note_on channel=0 note=61 velocity=127 time=0.05416666666666667\n",
      "note_off channel=0 note=61 velocity=127 time=0.019791666666666666\n",
      "note_on channel=0 note=60 velocity=127 time=0.03333333333333333\n",
      "note_on channel=0 note=62 velocity=127 time=0.0125\n",
      "note_off channel=0 note=60 velocity=127 time=0.007291666666666667\n",
      "note_on channel=0 note=61 velocity=127 time=0.00625\n",
      "note_off channel=0 note=62 velocity=127 time=0.005208333333333333\n",
      "note_off channel=0 note=61 velocity=127 time=0.014583333333333334\n",
      "note_on channel=0 note=61 velocity=127 time=0.06041666666666667\n",
      "note_off channel=0 note=61 velocity=127 time=0.019791666666666666\n",
      "note_on channel=0 note=62 velocity=127 time=0.026041666666666668\n",
      "note_off channel=0 note=62 velocity=127 time=0.019791666666666666\n",
      "note_on channel=0 note=61 velocity=127 time=0.014583333333333334\n",
      "note_off channel=0 note=61 velocity=127 time=0.019791666666666666\n",
      "note_on channel=0 note=60 velocity=127 time=0.040625\n",
      "note_on channel=0 note=61 velocity=127 time=0.01875\n",
      "note_off channel=0 note=60 velocity=127 time=0.0010416666666666667\n",
      "note_off channel=0 note=61 velocity=127 time=0.01875\n",
      "note_on channel=0 note=62 velocity=127 time=0.00625\n",
      "note_off channel=0 note=62 velocity=127 time=0.019791666666666666\n",
      "note_on channel=0 note=61 velocity=127 time=0.034375\n",
      "note_off channel=0 note=61 velocity=127 time=0.019791666666666666\n",
      "note_on channel=0 note=61 velocity=127 time=0.06041666666666667\n",
      "note_on channel=0 note=62 velocity=127 time=0.00625\n",
      "note_off channel=0 note=61 velocity=127 time=0.013541666666666667\n",
      "note_off channel=0 note=62 velocity=127 time=0.00625\n",
      "note_on channel=0 note=60 velocity=127 time=0.042708333333333334\n",
      "note_on channel=0 note=61 velocity=127 time=0.011458333333333333\n",
      "note_off channel=0 note=60 velocity=127 time=0.009375\n",
      "note_off channel=0 note=61 velocity=127 time=0.011458333333333333\n",
      "note_on channel=0 note=62 velocity=127 time=0.04583333333333333\n",
      "note_on channel=0 note=61 velocity=127 time=0.013541666666666667\n",
      "note_off channel=0 note=62 velocity=127 time=0.00625\n",
      "note_off channel=0 note=61 velocity=127 time=0.013541666666666667\n",
      "note_on channel=0 note=61 velocity=127 time=0.06041666666666667\n",
      "note_off channel=0 note=61 velocity=127 time=0.019791666666666666\n",
      "note_on channel=0 note=62 velocity=127 time=0.026041666666666668\n",
      "note_off channel=0 note=62 velocity=127 time=0.019791666666666666\n",
      "note_on channel=0 note=60 velocity=127 time=0.010416666666666666\n",
      "note_on channel=0 note=61 velocity=127 time=0.003125\n",
      "note_off channel=0 note=60 velocity=127 time=0.016666666666666666\n",
      "note_off channel=0 note=61 velocity=127 time=0.003125\n",
      "note_on channel=0 note=61 velocity=127 time=0.06041666666666667\n",
      "note_off channel=0 note=61 velocity=127 time=0.019791666666666666\n",
      "note_on channel=0 note=62 velocity=127 time=0.00625\n",
      "note_off channel=0 note=62 velocity=127 time=0.019791666666666666\n",
      "note_on channel=0 note=61 velocity=127 time=0.03333333333333333\n",
      "note_off channel=0 note=61 velocity=127 time=0.019791666666666666\n",
      "note_on channel=0 note=61 velocity=127 time=0.06041666666666667\n",
      "note_on channel=0 note=60 velocity=127 time=0.004166666666666667\n",
      "note_on channel=0 note=62 velocity=127 time=0.0020833333333333333\n",
      "note_off channel=0 note=61 velocity=127 time=0.013541666666666667\n",
      "note_off channel=0 note=60 velocity=127 time=0.004166666666666667\n",
      "note_off channel=0 note=62 velocity=127 time=0.0020833333333333333\n",
      "note_on channel=0 note=61 velocity=127 time=0.053125\n",
      "\u001b[91m [DEBUG] > \u001b[0m\n",
      " |>  to_array: msg.time > max_t; t, n\n",
      " |>  2.0041666666666664\n",
      " |>  100\n",
      "note_on channel=0 note=60 velocity=127 time=0.011458333333333333\n",
      "note_on channel=0 note=62 velocity=127 time=0.01875\n",
      "note_off channel=0 note=60 velocity=127 time=0.0020833333333333333\n",
      "note_off channel=0 note=62 velocity=127 time=0.01875\n",
      "note_on channel=0 note=62 velocity=127 time=0.051041666666666666\n",
      "note_off channel=0 note=62 velocity=127 time=0.019791666666666666\n",
      "note_on channel=0 note=62 velocity=127 time=0.051041666666666666\n",
      "note_on channel=0 note=61 velocity=127 time=0.005208333333333333\n",
      "note_off channel=0 note=62 velocity=127 time=0.015625\n",
      "note_off channel=0 note=61 velocity=127 time=0.005208333333333333\n",
      "note_on channel=0 note=60 velocity=127 time=0.034375\n",
      "note_on channel=0 note=62 velocity=127 time=0.011458333333333333\n",
      "note_off channel=0 note=60 velocity=127 time=0.008333333333333333\n",
      "note_off channel=0 note=62 velocity=127 time=0.011458333333333333\n",
      "note_on channel=0 note=62 velocity=127 time=0.051041666666666666\n",
      "note_off channel=0 note=62 velocity=127 time=0.019791666666666666\n",
      "note_on channel=0 note=62 velocity=127 time=0.051041666666666666\n",
      "note_off channel=0 note=62 velocity=127 time=0.019791666666666666\n",
      "note_on channel=0 note=60 velocity=127 time=0.04583333333333333\n",
      "note_on channel=0 note=62 velocity=127 time=0.005208333333333333\n",
      "note_off channel=0 note=60 velocity=127 time=0.014583333333333334\n",
      "note_off channel=0 note=62 velocity=127 time=0.005208333333333333\n",
      "note_on channel=0 note=61 velocity=127 time=0.0125\n",
      "note_off channel=0 note=61 velocity=127 time=0.019791666666666666\n",
      "note_on channel=0 note=62 velocity=127 time=0.01875\n",
      "note_off channel=0 note=62 velocity=127 time=0.019791666666666666\n",
      "note_on channel=0 note=62 velocity=127 time=0.051041666666666666\n",
      "note_off channel=0 note=62 velocity=127 time=0.019791666666666666\n",
      "note_on channel=0 note=62 velocity=127 time=0.051041666666666666\n",
      "note_on channel=0 note=60 velocity=127 time=0.0010416666666666667\n",
      "note_off channel=0 note=62 velocity=127 time=0.01875\n",
      "note_off channel=0 note=60 velocity=127 time=0.0010416666666666667\n",
      "note_on channel=0 note=62 velocity=127 time=0.05\n",
      "note_off channel=0 note=62 velocity=127 time=0.019791666666666666\n",
      "note_on channel=0 note=61 velocity=127 time=0.040625\n",
      "note_on channel=0 note=62 velocity=127 time=0.010416666666666666\n",
      "note_off channel=0 note=61 velocity=127 time=0.009375\n",
      "note_off channel=0 note=62 velocity=127 time=0.010416666666666666\n",
      "note_on channel=0 note=62 velocity=127 time=0.051041666666666666\n",
      "note_on channel=0 note=60 velocity=127 time=0.008333333333333333\n",
      "note_off channel=0 note=62 velocity=127 time=0.011458333333333333\n",
      "note_off channel=0 note=60 velocity=127 time=0.008333333333333333\n",
      "note_on channel=0 note=62 velocity=127 time=0.042708333333333334\n",
      "note_off channel=0 note=62 velocity=127 time=0.019791666666666666\n",
      "note_on channel=0 note=62 velocity=127 time=0.051041666666666666\n",
      "note_off channel=0 note=62 velocity=127 time=0.019791666666666666\n",
      "note_on channel=0 note=62 velocity=127 time=0.051041666666666666\n",
      "note_on channel=0 note=60 velocity=127 time=0.014583333333333334\n",
      "note_on channel=0 note=61 velocity=127 time=0.003125\n",
      "note_off channel=0 note=62 velocity=127 time=0.003125\n",
      "note_off channel=0 note=60 velocity=127 time=0.014583333333333334\n",
      "note_off channel=0 note=61 velocity=127 time=0.003125\n",
      "note_on channel=0 note=62 velocity=127 time=0.03333333333333333\n",
      "note_off channel=0 note=62 velocity=127 time=0.019791666666666666\n",
      "note_on channel=0 note=62 velocity=127 time=0.051041666666666666\n",
      "note_off channel=0 note=62 velocity=127 time=0.019791666666666666\n",
      "note_on channel=0 note=62 velocity=127 time=0.051041666666666666\n",
      "note_off channel=0 note=62 velocity=127 time=0.019791666666666666\n",
      "note_on channel=0 note=60 velocity=127 time=0.0010416666666666667\n",
      "note_off channel=0 note=60 velocity=127 time=0.019791666666666666\n",
      "note_on channel=0 note=62 velocity=127 time=0.029166666666666667\n",
      "note_off channel=0 note=62 velocity=127 time=0.019791666666666666\n",
      "note_on channel=0 note=61 velocity=127 time=0.025\n",
      "note_off channel=0 note=61 velocity=127 time=0.019791666666666666\n",
      "note_on channel=0 note=62 velocity=127 time=0.00625\n",
      "note_off channel=0 note=62 velocity=127 time=0.019791666666666666\n",
      "note_on channel=0 note=62 velocity=127 time=0.051041666666666666\n",
      "note_off channel=0 note=62 velocity=127 time=0.019791666666666666\n",
      "note_on channel=0 note=60 velocity=127 time=0.008333333333333333\n",
      "note_off channel=0 note=60 velocity=127 time=0.019791666666666666\n",
      "note_on channel=0 note=62 velocity=127 time=0.022916666666666665\n",
      "note_off channel=0 note=62 velocity=127 time=0.019791666666666666\n",
      "note_on channel=0 note=62 velocity=127 time=0.051041666666666666\n",
      "note_off channel=0 note=62 velocity=127 time=0.019791666666666666\n",
      "note_on channel=0 note=62 velocity=127 time=0.051041666666666666\n",
      "note_on channel=0 note=61 velocity=127 time=0.0020833333333333333\n",
      "note_off channel=0 note=62 velocity=127 time=0.017708333333333333\n",
      "note_off channel=0 note=61 velocity=127 time=0.0020833333333333333\n",
      "note_on channel=0 note=60 velocity=127 time=0.0125\n",
      "note_off channel=0 note=60 velocity=127 time=0.019791666666666666\n",
      "note_on channel=0 note=62 velocity=127 time=0.016666666666666666\n",
      "note_off channel=0 note=62 velocity=127 time=0.019791666666666666\n",
      "note_on channel=0 note=62 velocity=127 time=0.051041666666666666\n",
      "note_off channel=0 note=62 velocity=127 time=0.019791666666666666\n",
      "note_on channel=0 note=62 velocity=127 time=0.051041666666666666\n",
      "note_off channel=0 note=62 velocity=127 time=0.019791666666666666\n",
      "note_on channel=0 note=60 velocity=127 time=0.020833333333333332\n",
      "note_off channel=0 note=60 velocity=127 time=0.019791666666666666\n",
      "\u001b[91m [DEBUG] > \u001b[0m\n",
      " |>  to_array: msg.time > max_t; t, n\n",
      " |>  2.0052083333333335\n",
      " |>  100\n",
      "note_on channel=0 note=60 velocity=127 time=0.016666666666666666\n",
      "note_off channel=0 note=60 velocity=127 time=0.019791666666666666\n",
      "note_on channel=0 note=62 velocity=127 time=0.010416666666666666\n",
      "note_off channel=0 note=62 velocity=127 time=0.019791666666666666\n",
      "note_on channel=0 note=61 velocity=127 time=0.01875\n",
      "note_off channel=0 note=61 velocity=127 time=0.019791666666666666\n",
      "note_on channel=0 note=62 velocity=127 time=0.011458333333333333\n",
      "note_on channel=0 note=60 velocity=127 time=0.00625\n",
      "note_off channel=0 note=62 velocity=127 time=0.013541666666666667\n",
      "note_off channel=0 note=60 velocity=127 time=0.00625\n",
      "note_on channel=0 note=62 velocity=127 time=0.04375\n",
      "note_on channel=0 note=61 velocity=127 time=0.008333333333333333\n",
      "note_off channel=0 note=62 velocity=127 time=0.011458333333333333\n",
      "note_off channel=0 note=61 velocity=127 time=0.008333333333333333\n",
      "note_on channel=0 note=60 velocity=127 time=0.014583333333333334\n",
      "note_off channel=0 note=60 velocity=127 time=0.019791666666666666\n",
      "note_on channel=0 note=62 velocity=127 time=0.007291666666666667\n",
      "note_off channel=0 note=62 velocity=127 time=0.019791666666666666\n",
      "note_on channel=0 note=61 velocity=127 time=0.028125\n",
      "note_off channel=0 note=61 velocity=127 time=0.019791666666666666\n",
      "note_on channel=0 note=62 velocity=127 time=0.0020833333333333333\n",
      "note_on channel=0 note=60 velocity=127 time=0.009375\n",
      "note_off channel=0 note=62 velocity=127 time=0.010416666666666666\n",
      "note_off channel=0 note=60 velocity=127 time=0.009375\n",
      "note_on channel=0 note=62 velocity=127 time=0.040625\n",
      "note_on channel=0 note=61 velocity=127 time=0.017708333333333333\n",
      "note_off channel=0 note=62 velocity=127 time=0.0020833333333333333\n",
      "note_off channel=0 note=61 velocity=127 time=0.017708333333333333\n",
      "note_on channel=0 note=60 velocity=127 time=0.008333333333333333\n",
      "note_off channel=0 note=60 velocity=127 time=0.019791666666666666\n",
      "note_on channel=0 note=62 velocity=127 time=0.003125\n",
      "note_off channel=0 note=62 velocity=127 time=0.019791666666666666\n"
     ]
    },
    {
     "name": "stdout",
     "output_type": "stream",
     "text": [
      "note_on channel=0 note=61 velocity=127 time=0.0375\n",
      "note_on channel=0 note=62 velocity=127 time=0.0125\n",
      "note_off channel=0 note=61 velocity=127 time=0.007291666666666667\n",
      "note_on channel=0 note=60 velocity=127 time=0.00625\n",
      "note_off channel=0 note=62 velocity=127 time=0.007291666666666667\n",
      "note_off channel=0 note=60 velocity=127 time=0.013541666666666667\n",
      "note_on channel=0 note=62 velocity=127 time=0.036458333333333336\n",
      "note_off channel=0 note=62 velocity=127 time=0.019791666666666666\n",
      "note_on channel=0 note=61 velocity=127 time=0.00625\n",
      "note_off channel=0 note=61 velocity=127 time=0.019791666666666666\n",
      "note_on channel=0 note=60 velocity=127 time=0.003125\n",
      "note_off channel=0 note=60 velocity=127 time=0.019791666666666666\n",
      "note_on channel=0 note=62 velocity=127 time=0\n",
      "note_off channel=0 note=62 velocity=127 time=0.019791666666666666\n",
      "note_on channel=0 note=61 velocity=127 time=0.046875\n",
      "note_on channel=0 note=62 velocity=127 time=0.003125\n",
      "note_off channel=0 note=61 velocity=127 time=0.016666666666666666\n",
      "note_on channel=0 note=60 velocity=127 time=0\n",
      "note_off channel=0 note=62 velocity=127 time=0.003125\n",
      "note_off channel=0 note=60 velocity=127 time=0.016666666666666666\n",
      "note_on channel=0 note=62 velocity=127 time=0.03333333333333333\n",
      "note_off channel=0 note=62 velocity=127 time=0.019791666666666666\n",
      "note_on channel=0 note=61 velocity=127 time=0.015625\n",
      "note_on channel=0 note=60 velocity=127 time=0.016666666666666666\n",
      "note_off channel=0 note=61 velocity=127 time=0.003125\n",
      "note_on channel=0 note=62 velocity=127 time=0.013541666666666667\n",
      "note_off channel=0 note=60 velocity=127 time=0.003125\n",
      "note_off channel=0 note=62 velocity=127 time=0.016666666666666666\n",
      "note_on channel=0 note=62 velocity=127 time=0.05\n",
      "note_on channel=0 note=61 velocity=127 time=0.005208333333333333\n",
      "note_on channel=0 note=60 velocity=127 time=0.014583333333333334\n",
      "note_off channel=0 note=62 velocity=127 time=0\n",
      "note_off channel=0 note=61 velocity=127 time=0.005208333333333333\n",
      "note_off channel=0 note=60 velocity=127 time=0.014583333333333334\n",
      "note_on channel=0 note=62 velocity=127 time=0.030208333333333334\n",
      "note_off channel=0 note=62 velocity=127 time=0.019791666666666666\n",
      "note_on channel=0 note=61 velocity=127 time=0.025\n",
      "note_on channel=0 note=60 velocity=127 time=0.011458333333333333\n",
      "note_off channel=0 note=61 velocity=127 time=0.008333333333333333\n",
      "note_on channel=0 note=62 velocity=127 time=0.005208333333333333\n",
      "note_off channel=0 note=60 velocity=127 time=0.00625\n",
      "note_off channel=0 note=62 velocity=127 time=0.013541666666666667\n",
      "note_on channel=0 note=62 velocity=127 time=0.05\n",
      "note_on channel=0 note=61 velocity=127 time=0.014583333333333334\n",
      "note_off channel=0 note=62 velocity=127 time=0.005208333333333333\n",
      "note_on channel=0 note=60 velocity=127 time=0.003125\n",
      "note_off channel=0 note=61 velocity=127 time=0.011458333333333333\n",
      "note_off channel=0 note=60 velocity=127 time=0.008333333333333333\n",
      "note_on channel=0 note=62 velocity=127 time=0.027083333333333334\n",
      "note_off channel=0 note=62 velocity=127 time=0.019791666666666666\n",
      "note_on channel=0 note=61 velocity=127 time=0.034375\n",
      "note_on channel=0 note=60 velocity=127 time=0.005208333333333333\n",
      "note_on channel=0 note=62 velocity=127 time=0.010416666666666666\n",
      "note_off channel=0 note=61 velocity=127 time=0.004166666666666667\n",
      "note_off channel=0 note=60 velocity=127 time=0.005208333333333333\n",
      "note_off channel=0 note=62 velocity=127 time=0.010416666666666666\n",
      "note_on channel=0 note=62 velocity=127 time=0.05\n",
      "note_off channel=0 note=62 velocity=127 time=0.019791666666666666\n",
      "note_on channel=0 note=61 velocity=127 time=0.004166666666666667\n",
      "note_on channel=0 note=60 velocity=127 time=0.0020833333333333333\n",
      "note_off channel=0 note=61 velocity=127 time=0.017708333333333333\n",
      "note_off channel=0 note=60 velocity=127 time=0.0020833333333333333\n",
      "note_on channel=0 note=62 velocity=127 time=0.02395833333333333\n",
      "note_off channel=0 note=62 velocity=127 time=0.019791666666666666\n",
      "note_on channel=0 note=60 velocity=127 time=0.042708333333333334\n",
      "note_on channel=0 note=61 velocity=127 time=0\n",
      "note_on channel=0 note=62 velocity=127 time=0.00625\n",
      "note_off channel=0 note=60 velocity=127 time=0.013541666666666667\n",
      "note_off channel=0 note=61 velocity=127 time=0\n",
      "note_off channel=0 note=62 velocity=127 time=0.00625\n",
      "note_on channel=0 note=62 velocity=127 time=0.05\n",
      "note_off channel=0 note=62 velocity=127 time=0.019791666666666666\n",
      "note_on channel=0 note=60 velocity=127 time=0.009375\n",
      "note_on channel=0 note=61 velocity=127 time=0.003125\n",
      "note_off channel=0 note=60 velocity=127 time=0.016666666666666666\n",
      "note_off channel=0 note=61 velocity=127 time=0.003125\n",
      "note_on channel=0 note=62 velocity=127 time=0.016666666666666666\n",
      "note_off channel=0 note=62 velocity=127 time=0.019791666666666666\n",
      "note_on channel=0 note=60 velocity=127 time=0.046875\n",
      "note_on channel=0 note=62 velocity=127 time=0.003125\n",
      "note_on channel=0 note=61 velocity=127 time=0.003125\n",
      "note_off channel=0 note=60 velocity=127 time=0.013541666666666667\n",
      "note_off channel=0 note=62 velocity=127 time=0.003125\n",
      "note_off channel=0 note=61 velocity=127 time=0.003125\n",
      "note_on channel=0 note=62 velocity=127 time=0.046875\n",
      "note_off channel=0 note=62 velocity=127 time=0.019791666666666666\n",
      "note_on channel=0 note=60 velocity=127 time=0.013541666666666667\n",
      "note_on channel=0 note=61 velocity=127 time=0.009375\n",
      "note_off channel=0 note=60 velocity=127 time=0.010416666666666666\n",
      "note_off channel=0 note=61 velocity=127 time=0.009375\n",
      "note_on channel=0 note=62 velocity=127 time=0.007291666666666667\n",
      "note_off channel=0 note=62 velocity=127 time=0.019791666666666666\n",
      "note_on channel=0 note=60 velocity=127 time=0.05\n",
      "note_on channel=0 note=62 velocity=127 time=0\n",
      "note_on channel=0 note=61 velocity=127 time=0.0125\n",
      "note_off channel=0 note=60 velocity=127 time=0.007291666666666667\n",
      "note_off channel=0 note=62 velocity=127 time=0\n",
      "note_off channel=0 note=61 velocity=127 time=0.0125\n",
      "note_on channel=0 note=62 velocity=127 time=0.0375\n",
      "\u001b[91m [DEBUG] > \u001b[0m\n",
      " |>  to_array: msg.time > max_t; t, n\n",
      " |>  1.9968750000000004\n",
      " |>  100\n",
      "note_on channel=0 note=62 velocity=127 time=0.003125\n",
      "note_off channel=0 note=62 velocity=127 time=0.019791666666666666\n",
      "note_on channel=0 note=60 velocity=127 time=0.003125\n",
      "note_off channel=0 note=60 velocity=127 time=0.019791666666666666\n",
      "note_on channel=0 note=61 velocity=127 time=0.010416666666666666\n",
      "note_off channel=0 note=61 velocity=127 time=0.019791666666666666\n",
      "note_on channel=0 note=62 velocity=127 time=0.030208333333333334\n",
      "note_off channel=0 note=62 velocity=127 time=0.019791666666666666\n",
      "note_on channel=0 note=60 velocity=127 time=0.009375\n",
      "note_on channel=0 note=61 velocity=127 time=0.0020833333333333333\n",
      "note_off channel=0 note=60 velocity=127 time=0.017708333333333333\n",
      "note_off channel=0 note=61 velocity=127 time=0.0020833333333333333\n",
      "note_on channel=0 note=62 velocity=127 time=0.053125\n",
      "note_on channel=0 note=61 velocity=127 time=0.009375\n",
      "note_off channel=0 note=62 velocity=127 time=0.010416666666666666\n",
      "note_off channel=0 note=61 velocity=127 time=0.009375\n",
      "note_on channel=0 note=60 velocity=127 time=0.00625\n",
      "note_off channel=0 note=60 velocity=127 time=0.019791666666666666\n",
      "note_on channel=0 note=61 velocity=127 time=0.035416666666666666\n",
      "note_on channel=0 note=62 velocity=127 time=0.013541666666666667\n",
      "note_off channel=0 note=61 velocity=127 time=0.007291666666666667\n",
      "note_off channel=0 note=62 velocity=127 time=0.013541666666666667\n",
      "note_on channel=0 note=60 velocity=127 time=0.020833333333333332\n",
      "note_off channel=0 note=60 velocity=127 time=0.019791666666666666\n",
      "note_on channel=0 note=61 velocity=127 time=0.007291666666666667\n",
      "note_off channel=0 note=61 velocity=127 time=0.019791666666666666\n",
      "note_on channel=0 note=62 velocity=127 time=0.015625\n",
      "note_off channel=0 note=62 velocity=127 time=0.019791666666666666\n",
      "note_on channel=0 note=61 velocity=127 time=0.027083333333333334\n",
      "note_on channel=0 note=60 velocity=127 time=0.0010416666666666667\n",
      "note_off channel=0 note=61 velocity=127 time=0.019791666666666666\n",
      "note_off channel=0 note=60 velocity=127 time=0.0010416666666666667\n",
      "note_on channel=0 note=62 velocity=127 time=0.0375\n",
      "note_off channel=0 note=62 velocity=127 time=0.019791666666666666\n",
      "note_on channel=0 note=61 velocity=127 time=0.004166666666666667\n",
      "note_off channel=0 note=61 velocity=127 time=0.019791666666666666\n",
      "note_on channel=0 note=60 velocity=127 time=0.009375\n",
      "note_off channel=0 note=60 velocity=127 time=0.019791666666666666\n",
      "note_on channel=0 note=62 velocity=127 time=0.03125\n",
      "note_on channel=0 note=61 velocity=127 time=0.0020833333333333333\n",
      "note_off channel=0 note=62 velocity=127 time=0.017708333333333333\n",
      "note_off channel=0 note=61 velocity=127 time=0.0020833333333333333\n",
      "note_on channel=0 note=60 velocity=127 time=0.0375\n",
      "note_off channel=0 note=60 velocity=127 time=0.019791666666666666\n",
      "note_on channel=0 note=61 velocity=127 time=0.005208333333333333\n",
      "note_off channel=0 note=61 velocity=127 time=0.019791666666666666\n",
      "note_on channel=0 note=62 velocity=127 time=0\n",
      "note_off channel=0 note=62 velocity=127 time=0.019791666666666666\n",
      "note_on channel=0 note=61 velocity=127 time=0.041666666666666664\n",
      "note_on channel=0 note=60 velocity=127 time=0.003125\n",
      "note_off channel=0 note=61 velocity=127 time=0.016666666666666666\n",
      "note_off channel=0 note=60 velocity=127 time=0.003125\n",
      "note_on channel=0 note=62 velocity=127 time=0.01875\n",
      "note_off channel=0 note=62 velocity=127 time=0.019791666666666666\n",
      "note_on channel=0 note=61 velocity=127 time=0.019791666666666666\n",
      "note_off channel=0 note=61 velocity=127 time=0.019791666666666666\n",
      "note_on channel=0 note=60 velocity=127 time=0.011458333333333333\n",
      "note_off channel=0 note=60 velocity=127 time=0.019791666666666666\n",
      "note_on channel=0 note=62 velocity=127 time=0.013541666666666667\n",
      "note_on channel=0 note=61 velocity=127 time=0.017708333333333333\n",
      "note_off channel=0 note=62 velocity=127 time=0.003125\n",
      "note_off channel=0 note=61 velocity=127 time=0.017708333333333333\n",
      "note_on channel=0 note=60 velocity=127 time=0.03958333333333333\n",
      "note_off channel=0 note=60 velocity=127 time=0.019791666666666666\n",
      "note_on channel=0 note=61 velocity=127 time=0.0020833333333333333\n",
      "note_on channel=0 note=62 velocity=127 time=0.005208333333333333\n",
      "note_off channel=0 note=61 velocity=127 time=0.014583333333333334\n",
      "note_off channel=0 note=62 velocity=127 time=0.005208333333333333\n",
      "note_on channel=0 note=61 velocity=127 time=0.057291666666666664\n",
      "note_on channel=0 note=60 velocity=127 time=0.00625\n",
      "note_off channel=0 note=61 velocity=127 time=0.014583333333333334\n",
      "note_off channel=0 note=60 velocity=127 time=0.00625\n",
      "note_on channel=0 note=62 velocity=127 time=0.0010416666666666667\n",
      "note_off channel=0 note=62 velocity=127 time=0.019791666666666666\n",
      "note_on channel=0 note=61 velocity=127 time=0.034375\n",
      "note_off channel=0 note=61 velocity=127 time=0.019791666666666666\n",
      "note_on channel=0 note=60 velocity=127 time=0.014583333333333334\n",
      "note_on channel=0 note=62 velocity=127 time=0.015625\n",
      "note_off channel=0 note=60 velocity=127 time=0.004166666666666667\n",
      "note_off channel=0 note=62 velocity=127 time=0.015625\n",
      "note_on channel=0 note=61 velocity=127 time=0.0125\n",
      "note_off channel=0 note=61 velocity=127 time=0.019791666666666666\n",
      "note_on channel=0 note=60 velocity=127 time=0.042708333333333334\n",
      "note_on channel=0 note=62 velocity=127 time=0.009375\n",
      "note_on channel=0 note=61 velocity=127 time=0.010416666666666666\n",
      "note_off channel=0 note=60 velocity=127 time=0\n",
      "note_off channel=0 note=62 velocity=127 time=0.009375\n",
      "note_off channel=0 note=61 velocity=127 time=0.010416666666666666\n",
      "note_on channel=0 note=61 velocity=127 time=0.0625\n",
      "note_on channel=0 note=60 velocity=127 time=0.008333333333333333\n",
      "note_on channel=0 note=62 velocity=127 time=0.004166666666666667\n",
      "note_off channel=0 note=61 velocity=127 time=0.007291666666666667\n",
      "note_off channel=0 note=60 velocity=127 time=0.008333333333333333\n",
      "note_off channel=0 note=62 velocity=127 time=0.004166666666666667\n",
      "note_on channel=0 note=61 velocity=127 time=0.05\n",
      "note_off channel=0 note=61 velocity=127 time=0.019791666666666666\n",
      "note_on channel=0 note=62 velocity=127 time=0.014583333333333334\n",
      "note_on channel=0 note=60 velocity=127 time=0.0020833333333333333\n",
      "note_off channel=0 note=62 velocity=127 time=0.017708333333333333\n",
      "note_off channel=0 note=60 velocity=127 time=0.0020833333333333333\n",
      "note_on channel=0 note=61 velocity=127 time=0.025\n",
      "note_off channel=0 note=61 velocity=127 time=0.019791666666666666\n",
      "note_on channel=0 note=62 velocity=127 time=0.036458333333333336\n",
      "note_on channel=0 note=60 velocity=127 time=0.008333333333333333\n",
      "note_off channel=0 note=62 velocity=127 time=0.011458333333333333\n",
      "note_on channel=0 note=61 velocity=127 time=0.005208333333333333\n",
      "note_off channel=0 note=60 velocity=127 time=0.003125\n",
      "note_off channel=0 note=61 velocity=127 time=0.016666666666666666\n",
      "note_on channel=0 note=62 velocity=127 time=0.059375\n",
      "note_on channel=0 note=61 velocity=127 time=0.003125\n",
      "note_on channel=0 note=60 velocity=127 time=0.011458333333333333\n",
      "note_off channel=0 note=62 velocity=127 time=0.00625\n",
      "note_off channel=0 note=61 velocity=127 time=0.003125\n",
      "note_off channel=0 note=60 velocity=127 time=0.011458333333333333\n",
      "note_on channel=0 note=61 velocity=127 time=0.051041666666666666\n",
      "note_on channel=0 note=62 velocity=127 time=0.019791666666666666\n",
      "note_off channel=0 note=61 velocity=127 time=0.0010416666666666667\n",
      "note_off channel=0 note=62 velocity=127 time=0.019791666666666666\n",
      "note_on channel=0 note=60 velocity=127 time=0\n",
      "note_off channel=0 note=60 velocity=127 time=0.019791666666666666\n",
      "note_on channel=0 note=61 velocity=127 time=0.022916666666666665\n",
      "note_off channel=0 note=61 velocity=127 time=0.019791666666666666\n",
      "note_on channel=0 note=62 velocity=127 time=0.021875\n",
      "note_off channel=0 note=62 velocity=127 time=0.019791666666666666\n",
      "\u001b[91m [DEBUG] > \u001b[0m\n",
      " |>  to_array: msg.time > max_t; t, n\n",
      " |>  2.007291666666667\n",
      " |>  100\n",
      "note_on channel=0 note=61 velocity=127 time=0.0020833333333333333\n",
      "note_off channel=0 note=61 velocity=127 time=0.019791666666666666\n",
      "note_on channel=0 note=62 velocity=127 time=0.0375\n",
      "note_off channel=0 note=62 velocity=127 time=0.019791666666666666\n",
      "note_on channel=0 note=61 velocity=127 time=0.029166666666666667\n",
      "note_on channel=0 note=60 velocity=127 time=0.0010416666666666667\n",
      "note_off channel=0 note=61 velocity=127 time=0.01875\n",
      "note_off channel=0 note=60 velocity=127 time=0.0010416666666666667\n",
      "note_on channel=0 note=62 velocity=127 time=0.0125\n",
      "note_off channel=0 note=62 velocity=127 time=0.019791666666666666\n",
      "note_on channel=0 note=61 velocity=127 time=0.053125\n",
      "note_on channel=0 note=62 velocity=127 time=0.009375\n",
      "note_off channel=0 note=61 velocity=127 time=0.010416666666666666\n",
      "note_off channel=0 note=62 velocity=127 time=0.009375\n",
      "note_on channel=0 note=62 velocity=127 time=0.0625\n",
      "note_on channel=0 note=61 velocity=127 time=0.013541666666666667\n",
      "note_off channel=0 note=62 velocity=127 time=0.00625\n",
      "note_off channel=0 note=61 velocity=127 time=0.013541666666666667\n",
      "note_on channel=0 note=60 velocity=127 time=0.020833333333333332\n",
      "note_off channel=0 note=60 velocity=127 time=0.019791666666666666\n",
      "note_on channel=0 note=62 velocity=127 time=0.008333333333333333\n",
      "note_off channel=0 note=62 velocity=127 time=0.019791666666666666\n",
      "note_on channel=0 note=61 velocity=127 time=0.017708333333333333\n",
      "note_off channel=0 note=61 velocity=127 time=0.019791666666666666\n",
      "note_on channel=0 note=62 velocity=127 time=0.025\n",
      "note_off channel=0 note=62 velocity=127 time=0.019791666666666666\n",
      "note_on channel=0 note=61 velocity=127 time=0.040625\n",
      "note_off channel=0 note=61 velocity=127 time=0.019791666666666666\n",
      "note_on channel=0 note=62 velocity=127 time=0.0020833333333333333\n",
      "note_off channel=0 note=62 velocity=127 time=0.019791666666666666\n",
      "note_on channel=0 note=60 velocity=127 time=0.0375\n",
      "note_off channel=0 note=60 velocity=127 time=0.019791666666666666\n",
      "note_on channel=0 note=62 velocity=127 time=0.005208333333333333\n",
      "note_on channel=0 note=61 velocity=127 time=0.0020833333333333333\n",
      "note_off channel=0 note=62 velocity=127 time=0.017708333333333333\n",
      "note_off channel=0 note=61 velocity=127 time=0.0020833333333333333\n",
      "note_on channel=0 note=62 velocity=127 time=0.06041666666666667\n",
      "note_off channel=0 note=62 velocity=127 time=0.019791666666666666\n",
      "note_on channel=0 note=61 velocity=127 time=0.005208333333333333\n",
      "note_off channel=0 note=61 velocity=127 time=0.019791666666666666\n",
      "note_on channel=0 note=62 velocity=127 time=0.0375\n",
      "note_off channel=0 note=62 velocity=127 time=0.019791666666666666\n",
      "note_on channel=0 note=61 velocity=127 time=0.029166666666666667\n",
      "note_on channel=0 note=60 velocity=127 time=0.0125\n",
      "note_off channel=0 note=61 velocity=127 time=0.007291666666666667\n",
      "note_off channel=0 note=60 velocity=127 time=0.0125\n",
      "note_on channel=0 note=62 velocity=127 time=0.0010416666666666667\n",
      "note_off channel=0 note=62 velocity=127 time=0.019791666666666666\n",
      "note_on channel=0 note=61 velocity=127 time=0.053125\n",
      "note_on channel=0 note=62 velocity=127 time=0.010416666666666666\n",
      "note_off channel=0 note=61 velocity=127 time=0.010416666666666666\n",
      "note_off channel=0 note=62 velocity=127 time=0.010416666666666666\n",
      "note_on channel=0 note=62 velocity=127 time=0.0625\n",
      "note_on channel=0 note=61 velocity=127 time=0.013541666666666667\n",
      "note_off channel=0 note=62 velocity=127 time=0.00625\n",
      "note_off channel=0 note=61 velocity=127 time=0.013541666666666667\n",
      "note_on channel=0 note=60 velocity=127 time=0.03125\n",
      "note_on channel=0 note=62 velocity=127 time=0.017708333333333333\n",
      "note_off channel=0 note=60 velocity=127 time=0.003125\n",
      "note_off channel=0 note=62 velocity=127 time=0.017708333333333333\n",
      "note_on channel=0 note=61 velocity=127 time=0.017708333333333333\n",
      "note_off channel=0 note=61 velocity=127 time=0.019791666666666666\n",
      "note_on channel=0 note=62 velocity=127 time=0.025\n",
      "note_off channel=0 note=62 velocity=127 time=0.019791666666666666\n",
      "note_on channel=0 note=61 velocity=127 time=0.040625\n",
      "note_off channel=0 note=61 velocity=127 time=0.019791666666666666\n",
      "note_on channel=0 note=62 velocity=127 time=0.0020833333333333333\n",
      "note_off channel=0 note=62 velocity=127 time=0.019791666666666666\n",
      "note_on channel=0 note=60 velocity=127 time=0.04895833333333333\n",
      "note_on channel=0 note=62 velocity=127 time=0.013541666666666667\n",
      "note_on channel=0 note=61 velocity=127 time=0.0020833333333333333\n",
      "note_off channel=0 note=60 velocity=127 time=0.004166666666666667\n",
      "note_off channel=0 note=62 velocity=127 time=0.013541666666666667\n",
      "note_off channel=0 note=61 velocity=127 time=0.0020833333333333333\n",
      "note_on channel=0 note=62 velocity=127 time=0.06041666666666667\n",
      "note_off channel=0 note=62 velocity=127 time=0.019791666666666666\n",
      "note_on channel=0 note=61 velocity=127 time=0.005208333333333333\n",
      "note_off channel=0 note=61 velocity=127 time=0.019791666666666666\n",
      "note_on channel=0 note=62 velocity=127 time=0.0375\n",
      "note_off channel=0 note=62 velocity=127 time=0.019791666666666666\n",
      "note_on channel=0 note=61 velocity=127 time=0.029166666666666667\n",
      "note_off channel=0 note=61 velocity=127 time=0.019791666666666666\n",
      "note_on channel=0 note=60 velocity=127 time=0.004166666666666667\n",
      "note_on channel=0 note=62 velocity=127 time=0.009375\n",
      "note_off channel=0 note=60 velocity=127 time=0.010416666666666666\n",
      "note_off channel=0 note=62 velocity=127 time=0.009375\n",
      "note_on channel=0 note=61 velocity=127 time=0.053125\n",
      "note_on channel=0 note=62 velocity=127 time=0.010416666666666666\n",
      "note_off channel=0 note=61 velocity=127 time=0.010416666666666666\n",
      "note_off channel=0 note=62 velocity=127 time=0.010416666666666666\n",
      "note_on channel=0 note=62 velocity=127 time=0.0625\n",
      "note_on channel=0 note=61 velocity=127 time=0.013541666666666667\n",
      "note_off channel=0 note=62 velocity=127 time=0.00625\n",
      "note_off channel=0 note=61 velocity=127 time=0.013541666666666667\n",
      "note_on channel=0 note=60 velocity=127 time=0.042708333333333334\n",
      "note_on channel=0 note=62 velocity=127 time=0.00625\n",
      "note_off channel=0 note=60 velocity=127 time=0.013541666666666667\n",
      "note_off channel=0 note=62 velocity=127 time=0.00625\n",
      "note_on channel=0 note=61 velocity=127 time=0.017708333333333333\n",
      "note_off channel=0 note=61 velocity=127 time=0.019791666666666666\n",
      "note_on channel=0 note=62 velocity=127 time=0.025\n",
      "note_off channel=0 note=62 velocity=127 time=0.019791666666666666\n",
      "note_on channel=0 note=61 velocity=127 time=0.040625\n",
      "\u001b[91m [DEBUG] > \u001b[0m\n",
      " |>  to_array: msg.time > max_t; t, n\n",
      " |>  2.017708333333333\n",
      " |>  100\n",
      "note_on channel=0 note=62 velocity=127 time=0.08020833333333333\n",
      "note_off channel=0 note=62 velocity=127 time=0.019791666666666666\n",
      "note_on channel=0 note=60 velocity=127 time=0.025\n",
      "note_off channel=0 note=60 velocity=127 time=0.019791666666666666\n",
      "note_on channel=0 note=61 velocity=127 time=0.010416666666666666\n",
      "note_off channel=0 note=61 velocity=127 time=0.019791666666666666\n",
      "note_on channel=0 note=62 velocity=127 time=0.028125\n",
      "note_off channel=0 note=62 velocity=127 time=0.019791666666666666\n",
      "note_on channel=0 note=60 velocity=127 time=0.035416666666666666\n",
      "note_off channel=0 note=60 velocity=127 time=0.019791666666666666\n",
      "note_on channel=0 note=62 velocity=127 time=0.04791666666666666\n",
      "note_off channel=0 note=62 velocity=127 time=0.019791666666666666\n",
      "note_on channel=0 note=61 velocity=127 time=0.019791666666666666\n",
      "note_off channel=0 note=61 velocity=127 time=0.019791666666666666\n",
      "note_on channel=0 note=60 velocity=127 time=0.00625\n",
      "note_off channel=0 note=60 velocity=127 time=0.019791666666666666\n",
      "note_on channel=0 note=62 velocity=127 time=0.0375\n",
      "note_off channel=0 note=62 velocity=127 time=0.019791666666666666\n",
      "note_on channel=0 note=60 velocity=127 time=0.057291666666666664\n",
      "note_off channel=0 note=60 velocity=127 time=0.019791666666666666\n",
      "note_on channel=0 note=62 velocity=127 time=0.026041666666666668\n",
      "note_on channel=0 note=61 velocity=127 time=0.005208333333333333\n",
      "note_off channel=0 note=62 velocity=127 time=0.015625\n",
      "note_off channel=0 note=61 velocity=127 time=0.005208333333333333\n",
      "note_on channel=0 note=60 velocity=127 time=0.06354166666666666\n",
      "note_off channel=0 note=60 velocity=127 time=0.019791666666666666\n",
      "note_on channel=0 note=62 velocity=127 time=0.015625\n",
      "note_off channel=0 note=62 velocity=127 time=0.019791666666666666\n",
      "note_on channel=0 note=61 velocity=127 time=0.07291666666666667\n",
      "note_on channel=0 note=60 velocity=127 time=0.00625\n",
      "note_off channel=0 note=61 velocity=127 time=0.013541666666666667\n",
      "note_off channel=0 note=60 velocity=127 time=0.00625\n",
      "note_on channel=0 note=62 velocity=127 time=0.004166666666666667\n",
      "note_off channel=0 note=62 velocity=127 time=0.019791666666666666\n",
      "note_on channel=0 note=60 velocity=127 time=0.090625\n",
      "note_on channel=0 note=62 velocity=127 time=0.013541666666666667\n",
      "note_off channel=0 note=60 velocity=127 time=0.00625\n",
      "note_off channel=0 note=62 velocity=127 time=0.013541666666666667\n",
      "note_on channel=0 note=61 velocity=127 time=0.0375\n",
      "note_off channel=0 note=61 velocity=127 time=0.019791666666666666\n",
      "note_on channel=0 note=60 velocity=127 time=0.042708333333333334\n",
      "note_on channel=0 note=62 velocity=127 time=0.003125\n",
      "note_off channel=0 note=60 velocity=127 time=0.017708333333333333\n",
      "note_off channel=0 note=62 velocity=127 time=0.003125\n",
      "note_on channel=0 note=62 velocity=127 time=0.10416666666666667\n",
      "note_on channel=0 note=60 velocity=127 time=0.008333333333333333\n",
      "note_off channel=0 note=62 velocity=127 time=0.011458333333333333\n",
      "note_on channel=0 note=61 velocity=127 time=0.003125\n",
      "note_off channel=0 note=60 velocity=127 time=0.005208333333333333\n",
      "note_off channel=0 note=61 velocity=127 time=0.014583333333333334\n",
      "note_on channel=0 note=62 velocity=127 time=0.08125\n",
      "note_on channel=0 note=60 velocity=127 time=0.01875\n",
      "note_off channel=0 note=62 velocity=127 time=0.0010416666666666667\n",
      "note_off channel=0 note=60 velocity=127 time=0.01875\n",
      "note_on channel=0 note=61 velocity=127 time=0.071875\n",
      "note_on channel=0 note=62 velocity=127 time=0.0125\n",
      "note_off channel=0 note=61 velocity=127 time=0.007291666666666667\n",
      "note_off channel=0 note=62 velocity=127 time=0.0125\n",
      "note_on channel=0 note=60 velocity=127 time=0.010416666666666666\n",
      "note_off channel=0 note=60 velocity=127 time=0.019791666666666666\n",
      "note_on channel=0 note=62 velocity=127 time=0.07395833333333333\n",
      "note_off channel=0 note=62 velocity=127 time=0.019791666666666666\n",
      "note_on channel=0 note=60 velocity=127 time=0.020833333333333332\n",
      "note_off channel=0 note=60 velocity=127 time=0.019791666666666666\n",
      "note_on channel=0 note=61 velocity=127 time=0.014583333333333334\n",
      "note_off channel=0 note=61 velocity=127 time=0.019791666666666666\n",
      "note_on channel=0 note=62 velocity=127 time=0.028125\n",
      "note_off channel=0 note=62 velocity=127 time=0.019791666666666666\n",
      "note_on channel=0 note=60 velocity=127 time=0.03125\n",
      "note_off channel=0 note=60 velocity=127 time=0.019791666666666666\n",
      "note_on channel=0 note=62 velocity=127 time=0.052083333333333336\n",
      "note_off channel=0 note=62 velocity=127 time=0.019791666666666666\n",
      "note_on channel=0 note=61 velocity=127 time=0.020833333333333332\n",
      "note_off channel=0 note=61 velocity=127 time=0.019791666666666666\n",
      "note_on channel=0 note=60 velocity=127 time=0.0020833333333333333\n",
      "note_off channel=0 note=60 velocity=127 time=0.019791666666666666\n",
      "note_on channel=0 note=62 velocity=127 time=0.040625\n",
      "note_off channel=0 note=62 velocity=127 time=0.019791666666666666\n",
      "note_on channel=0 note=60 velocity=127 time=0.053125\n",
      "\u001b[91m [DEBUG] > \u001b[0m\n",
      " |>  to_array: msg.time > max_t; t, n\n",
      " |>  2.0041666666666664\n",
      " |>  100\n",
      "note_on channel=0 note=61 velocity=127 time=0.003125\n",
      "note_on channel=0 note=60 velocity=127 time=0.017708333333333333\n",
      "note_off channel=0 note=61 velocity=127 time=0.0020833333333333333\n",
      "note_off channel=0 note=60 velocity=127 time=0.017708333333333333\n",
      "note_on channel=0 note=61 velocity=127 time=0.03854166666666667\n",
      "note_on channel=0 note=60 velocity=127 time=0.010416666666666666\n",
      "note_off channel=0 note=61 velocity=127 time=0.009375\n",
      "note_off channel=0 note=60 velocity=127 time=0.010416666666666666\n",
      "note_on channel=0 note=61 velocity=127 time=0.046875\n",
      "note_on channel=0 note=60 velocity=127 time=0.0020833333333333333\n",
      "note_off channel=0 note=61 velocity=127 time=0.017708333333333333\n",
      "note_off channel=0 note=60 velocity=127 time=0.0020833333333333333\n",
      "note_on channel=0 note=62 velocity=127 time=0.0010416666666666667\n",
      "note_off channel=0 note=62 velocity=127 time=0.019791666666666666\n",
      "note_on channel=0 note=60 velocity=127 time=0.028125\n",
      "note_on channel=0 note=61 velocity=127 time=0.00625\n",
      "note_off channel=0 note=60 velocity=127 time=0.014583333333333334\n"
     ]
    },
    {
     "name": "stdout",
     "output_type": "stream",
     "text": [
      "note_off channel=0 note=61 velocity=127 time=0.00625\n",
      "note_on channel=0 note=60 velocity=127 time=0.04375\n",
      "note_on channel=0 note=61 velocity=127 time=0.013541666666666667\n",
      "note_off channel=0 note=60 velocity=127 time=0.00625\n",
      "note_off channel=0 note=61 velocity=127 time=0.013541666666666667\n",
      "note_on channel=0 note=60 velocity=127 time=0.035416666666666666\n",
      "note_off channel=0 note=60 velocity=127 time=0.019791666666666666\n",
      "note_on channel=0 note=62 velocity=127 time=0.0010416666666666667\n",
      "note_on channel=0 note=61 velocity=127 time=0\n",
      "note_off channel=0 note=62 velocity=127 time=0.019791666666666666\n",
      "note_off channel=0 note=61 velocity=127 time=0\n",
      "note_on channel=0 note=60 velocity=127 time=0.027083333333333334\n",
      "note_off channel=0 note=60 velocity=127 time=0.019791666666666666\n",
      "note_on channel=0 note=61 velocity=127 time=0.009375\n",
      "note_off channel=0 note=61 velocity=127 time=0.019791666666666666\n",
      "note_on channel=0 note=60 velocity=127 time=0.019791666666666666\n",
      "note_off channel=0 note=60 velocity=127 time=0.019791666666666666\n",
      "note_on channel=0 note=61 velocity=127 time=0.017708333333333333\n",
      "note_off channel=0 note=61 velocity=127 time=0.019791666666666666\n",
      "note_on channel=0 note=60 velocity=127 time=0.011458333333333333\n",
      "note_off channel=0 note=60 velocity=127 time=0.019791666666666666\n",
      "note_on channel=0 note=62 velocity=127 time=0.0010416666666666667\n",
      "note_off channel=0 note=62 velocity=127 time=0.019791666666666666\n",
      "note_on channel=0 note=61 velocity=127 time=0.004166666666666667\n",
      "note_off channel=0 note=61 velocity=127 time=0.019791666666666666\n",
      "note_on channel=0 note=60 velocity=127 time=0.003125\n",
      "note_off channel=0 note=60 velocity=127 time=0.019791666666666666\n",
      "note_on channel=0 note=61 velocity=127 time=0.03333333333333333\n",
      "note_on channel=0 note=60 velocity=127 time=0.015625\n",
      "note_off channel=0 note=61 velocity=127 time=0.004166666666666667\n",
      "note_off channel=0 note=60 velocity=127 time=0.015625\n",
      "note_on channel=0 note=61 velocity=127 time=0.041666666666666664\n",
      "note_on channel=0 note=60 velocity=127 time=0.007291666666666667\n",
      "note_off channel=0 note=61 velocity=127 time=0.0125\n",
      "note_off channel=0 note=60 velocity=127 time=0.007291666666666667\n",
      "note_on channel=0 note=62 velocity=127 time=0.0020833333333333333\n",
      "note_off channel=0 note=62 velocity=127 time=0.019791666666666666\n",
      "note_on channel=0 note=60 velocity=127 time=0.027083333333333334\n",
      "note_on channel=0 note=61 velocity=127 time=0\n",
      "note_off channel=0 note=60 velocity=127 time=0.019791666666666666\n",
      "note_off channel=0 note=61 velocity=127 time=0\n",
      "note_on channel=0 note=60 velocity=127 time=0.04895833333333333\n",
      "note_on channel=0 note=61 velocity=127 time=0.008333333333333333\n",
      "note_off channel=0 note=60 velocity=127 time=0.011458333333333333\n",
      "note_off channel=0 note=61 velocity=127 time=0.008333333333333333\n",
      "note_on channel=0 note=60 velocity=127 time=0.040625\n",
      "note_on channel=0 note=61 velocity=127 time=0.015625\n",
      "note_off channel=0 note=60 velocity=127 time=0.004166666666666667\n",
      "note_on channel=0 note=62 velocity=127 time=0.0020833333333333333\n",
      "note_off channel=0 note=61 velocity=127 time=0.014583333333333334\n",
      "note_off channel=0 note=62 velocity=127 time=0.00625\n",
      "note_on channel=0 note=60 velocity=127 time=0.027083333333333334\n",
      "note_off channel=0 note=60 velocity=127 time=0.019791666666666666\n",
      "note_on channel=0 note=61 velocity=127 time=0.004166666666666667\n",
      "note_off channel=0 note=61 velocity=127 time=0.019791666666666666\n",
      "note_on channel=0 note=60 velocity=127 time=0.025\n",
      "note_off channel=0 note=60 velocity=127 time=0.019791666666666666\n",
      "note_on channel=0 note=61 velocity=127 time=0.011458333333333333\n",
      "note_off channel=0 note=61 velocity=127 time=0.019791666666666666\n",
      "note_on channel=0 note=60 velocity=127 time=0.016666666666666666\n",
      "note_off channel=0 note=60 velocity=127 time=0.019791666666666666\n",
      "note_on channel=0 note=62 velocity=127 time=0.0020833333333333333\n",
      "note_on channel=0 note=61 velocity=127 time=0.017708333333333333\n",
      "note_off channel=0 note=62 velocity=127 time=0.0020833333333333333\n",
      "note_off channel=0 note=61 velocity=127 time=0.017708333333333333\n",
      "note_on channel=0 note=60 velocity=127 time=0.009375\n",
      "note_off channel=0 note=60 velocity=127 time=0.019791666666666666\n",
      "note_on channel=0 note=61 velocity=127 time=0.028125\n",
      "note_off channel=0 note=61 velocity=127 time=0.019791666666666666\n",
      "note_on channel=0 note=60 velocity=127 time=0.0010416666666666667\n",
      "note_off channel=0 note=60 velocity=127 time=0.019791666666666666\n",
      "note_on channel=0 note=61 velocity=127 time=0.035416666666666666\n",
      "note_on channel=0 note=60 velocity=127 time=0.013541666666666667\n",
      "note_off channel=0 note=61 velocity=127 time=0.00625\n",
      "note_off channel=0 note=60 velocity=127 time=0.013541666666666667\n",
      "note_on channel=0 note=62 velocity=127 time=0.0020833333333333333\n",
      "note_off channel=0 note=62 velocity=127 time=0.019791666666666666\n",
      "note_on channel=0 note=61 velocity=127 time=0.021875\n",
      "note_on channel=0 note=60 velocity=127 time=0.005208333333333333\n",
      "note_off channel=0 note=61 velocity=127 time=0.014583333333333334\n",
      "note_off channel=0 note=60 velocity=127 time=0.005208333333333333\n",
      "note_on channel=0 note=60 velocity=127 time=0.04895833333333333\n",
      "note_on channel=0 note=61 velocity=127 time=0.0020833333333333333\n",
      "note_off channel=0 note=60 velocity=127 time=0.017708333333333333\n",
      "note_off channel=0 note=61 velocity=127 time=0.0020833333333333333\n",
      "note_on channel=0 note=60 velocity=127 time=0.046875\n",
      "note_on channel=0 note=61 velocity=127 time=0.010416666666666666\n",
      "note_off channel=0 note=60 velocity=127 time=0.009375\n",
      "note_on channel=0 note=62 velocity=127 time=0.0020833333333333333\n",
      "note_off channel=0 note=61 velocity=127 time=0.008333333333333333\n",
      "note_off channel=0 note=62 velocity=127 time=0.011458333333333333\n",
      "note_on channel=0 note=60 velocity=127 time=0.027083333333333334\n",
      "note_on channel=0 note=61 velocity=127 time=0.01875\n",
      "note_off channel=0 note=60 velocity=127 time=0.0020833333333333333\n",
      "note_off channel=0 note=61 velocity=127 time=0.01875\n",
      "note_on channel=0 note=60 velocity=127 time=0.030208333333333334\n",
      "note_off channel=0 note=60 velocity=127 time=0.019791666666666666\n",
      "note_on channel=0 note=61 velocity=127 time=0.00625\n",
      "note_off channel=0 note=61 velocity=127 time=0.019791666666666666\n",
      "note_on channel=0 note=60 velocity=127 time=0.022916666666666665\n",
      "note_off channel=0 note=60 velocity=127 time=0.019791666666666666\n",
      "note_on channel=0 note=62 velocity=127 time=0.0020833333333333333\n",
      "note_on channel=0 note=61 velocity=127 time=0.011458333333333333\n",
      "note_off channel=0 note=62 velocity=127 time=0.008333333333333333\n",
      "note_off channel=0 note=61 velocity=127 time=0.011458333333333333\n",
      "note_on channel=0 note=60 velocity=127 time=0.014583333333333334\n",
      "note_off channel=0 note=60 velocity=127 time=0.019791666666666666\n",
      "note_on channel=0 note=61 velocity=127 time=0.021875\n",
      "note_off channel=0 note=61 velocity=127 time=0.019791666666666666\n",
      "note_on channel=0 note=60 velocity=127 time=0.007291666666666667\n",
      "note_off channel=0 note=60 velocity=127 time=0.019791666666666666\n",
      "note_on channel=0 note=61 velocity=127 time=0.030208333333333334\n",
      "\u001b[91m [DEBUG] > \u001b[0m\n",
      " |>  to_array: msg.time > max_t; t, n\n",
      " |>  1.9958333333333345\n",
      " |>  100\n",
      "note_on channel=0 note=60 velocity=127 time=0.017708333333333333\n",
      "note_off channel=0 note=60 velocity=127 time=0.019791666666666666\n",
      "note_on channel=0 note=62 velocity=127 time=0.007291666666666667\n",
      "note_off channel=0 note=62 velocity=127 time=0.019791666666666666\n",
      "note_on channel=0 note=61 velocity=127 time=0.005208333333333333\n",
      "note_off channel=0 note=61 velocity=127 time=0.019791666666666666\n",
      "note_on channel=0 note=60 velocity=127 time=0.035416666666666666\n",
      "note_on channel=0 note=61 velocity=127 time=0.015625\n",
      "note_off channel=0 note=60 velocity=127 time=0.004166666666666667\n",
      "note_on channel=0 note=62 velocity=127 time=0.008333333333333333\n",
      "note_off channel=0 note=61 velocity=127 time=0.00625\n",
      "note_off channel=0 note=62 velocity=127 time=0.013541666666666667\n",
      "note_on channel=0 note=61 velocity=127 time=0.0375\n",
      "note_off channel=0 note=61 velocity=127 time=0.019791666666666666\n",
      "note_on channel=0 note=60 velocity=127 time=0.0010416666666666667\n",
      "note_off channel=0 note=60 velocity=127 time=0.019791666666666666\n",
      "note_on channel=0 note=62 velocity=127 time=0.010416666666666666\n",
      "note_on channel=0 note=61 velocity=127 time=0.019791666666666666\n",
      "note_off channel=0 note=62 velocity=127 time=0\n",
      "note_off channel=0 note=61 velocity=127 time=0.019791666666666666\n",
      "note_on channel=0 note=60 velocity=127 time=0.03854166666666667\n",
      "note_on channel=0 note=61 velocity=127 time=0.0125\n",
      "note_off channel=0 note=60 velocity=127 time=0.007291666666666667\n",
      "note_on channel=0 note=62 velocity=127 time=0.011458333333333333\n",
      "note_off channel=0 note=61 velocity=127 time=0.0010416666666666667\n",
      "note_off channel=0 note=62 velocity=127 time=0.01875\n",
      "note_on channel=0 note=61 velocity=127 time=0.03229166666666666\n",
      "note_off channel=0 note=61 velocity=127 time=0.019791666666666666\n",
      "note_on channel=0 note=60 velocity=127 time=0.004166666666666667\n",
      "note_off channel=0 note=60 velocity=127 time=0.019791666666666666\n",
      "note_on channel=0 note=62 velocity=127 time=0.0125\n",
      "note_on channel=0 note=61 velocity=127 time=0.014583333333333334\n",
      "note_off channel=0 note=62 velocity=127 time=0.005208333333333333\n",
      "note_off channel=0 note=61 velocity=127 time=0.014583333333333334\n",
      "note_on channel=0 note=60 velocity=127 time=0.041666666666666664\n",
      "note_on channel=0 note=61 velocity=127 time=0.009375\n",
      "note_off channel=0 note=60 velocity=127 time=0.010416666666666666\n",
      "note_off channel=0 note=61 velocity=127 time=0.009375\n",
      "note_on channel=0 note=62 velocity=127 time=0.003125\n",
      "note_off channel=0 note=62 velocity=127 time=0.019791666666666666\n",
      "note_on channel=0 note=61 velocity=127 time=0.027083333333333334\n",
      "note_off channel=0 note=61 velocity=127 time=0.019791666666666666\n",
      "note_on channel=0 note=60 velocity=127 time=0.007291666666666667\n",
      "note_off channel=0 note=60 velocity=127 time=0.019791666666666666\n",
      "note_on channel=0 note=62 velocity=127 time=0.014583333333333334\n",
      "note_on channel=0 note=61 velocity=127 time=0.009375\n",
      "note_off channel=0 note=62 velocity=127 time=0.010416666666666666\n",
      "note_off channel=0 note=61 velocity=127 time=0.009375\n",
      "note_on channel=0 note=60 velocity=127 time=0.04479166666666667\n",
      "note_on channel=0 note=61 velocity=127 time=0.00625\n",
      "note_off channel=0 note=60 velocity=127 time=0.013541666666666667\n",
      "note_off channel=0 note=61 velocity=127 time=0.00625\n",
      "note_on channel=0 note=62 velocity=127 time=0.008333333333333333\n",
      "note_off channel=0 note=62 velocity=127 time=0.019791666666666666\n",
      "note_on channel=0 note=61 velocity=127 time=0.021875\n",
      "note_off channel=0 note=61 velocity=127 time=0.019791666666666666\n",
      "note_on channel=0 note=60 velocity=127 time=0.010416666666666666\n",
      "note_off channel=0 note=60 velocity=127 time=0.019791666666666666\n",
      "note_on channel=0 note=62 velocity=127 time=0.016666666666666666\n",
      "note_on channel=0 note=61 velocity=127 time=0.004166666666666667\n",
      "note_off channel=0 note=62 velocity=127 time=0.015625\n",
      "note_off channel=0 note=61 velocity=127 time=0.004166666666666667\n",
      "note_on channel=0 note=60 velocity=127 time=0.04791666666666666\n",
      "note_on channel=0 note=61 velocity=127 time=0.003125\n",
      "note_off channel=0 note=60 velocity=127 time=0.016666666666666666\n",
      "note_off channel=0 note=61 velocity=127 time=0.003125\n",
      "note_on channel=0 note=62 velocity=127 time=0.013541666666666667\n",
      "note_off channel=0 note=62 velocity=127 time=0.019791666666666666\n",
      "note_on channel=0 note=61 velocity=127 time=0.016666666666666666\n",
      "note_off channel=0 note=61 velocity=127 time=0.019791666666666666\n",
      "note_on channel=0 note=60 velocity=127 time=0.013541666666666667\n",
      "note_off channel=0 note=60 velocity=127 time=0.019791666666666666\n",
      "note_on channel=0 note=61 velocity=127 time=0.017708333333333333\n",
      "note_on channel=0 note=62 velocity=127 time=0.0010416666666666667\n",
      "note_off channel=0 note=61 velocity=127 time=0.01875\n",
      "note_off channel=0 note=62 velocity=127 time=0.0010416666666666667\n",
      "note_on channel=0 note=60 velocity=127 time=0.04895833333333333\n",
      "note_on channel=0 note=61 velocity=127 time=0\n",
      "note_off channel=0 note=60 velocity=127 time=0.019791666666666666\n",
      "note_off channel=0 note=61 velocity=127 time=0\n",
      "note_on channel=0 note=62 velocity=127 time=0.01875\n",
      "note_off channel=0 note=62 velocity=127 time=0.019791666666666666\n",
      "note_on channel=0 note=61 velocity=127 time=0.011458333333333333\n",
      "note_off channel=0 note=61 velocity=127 time=0.019791666666666666\n",
      "note_on channel=0 note=60 velocity=127 time=0.016666666666666666\n",
      "note_off channel=0 note=60 velocity=127 time=0.019791666666666666\n",
      "note_on channel=0 note=61 velocity=127 time=0.014583333333333334\n",
      "note_on channel=0 note=62 velocity=127 time=0.00625\n",
      "note_off channel=0 note=61 velocity=127 time=0.013541666666666667\n",
      "note_off channel=0 note=62 velocity=127 time=0.00625\n",
      "note_on channel=0 note=61 velocity=127 time=0.04479166666666667\n",
      "note_on channel=0 note=60 velocity=127 time=0.0020833333333333333\n",
      "note_off channel=0 note=61 velocity=127 time=0.017708333333333333\n",
      "note_off channel=0 note=60 velocity=127 time=0.0020833333333333333\n",
      "note_on channel=0 note=62 velocity=127 time=0.021875\n",
      "note_off channel=0 note=62 velocity=127 time=0.019791666666666666\n",
      "note_on channel=0 note=61 velocity=127 time=0.00625\n",
      "note_off channel=0 note=61 velocity=127 time=0.019791666666666666\n",
      "note_on channel=0 note=60 velocity=127 time=0.019791666666666666\n",
      "note_off channel=0 note=60 velocity=127 time=0.019791666666666666\n",
      "note_on channel=0 note=61 velocity=127 time=0.011458333333333333\n",
      "note_on channel=0 note=62 velocity=127 time=0.011458333333333333\n",
      "note_off channel=0 note=61 velocity=127 time=0.008333333333333333\n",
      "note_off channel=0 note=62 velocity=127 time=0.011458333333333333\n",
      "note_on channel=0 note=61 velocity=127 time=0.03958333333333333\n",
      "note_on channel=0 note=60 velocity=127 time=0.005208333333333333\n",
      "note_off channel=0 note=61 velocity=127 time=0.014583333333333334\n",
      "note_off channel=0 note=60 velocity=127 time=0.005208333333333333\n",
      "note_on channel=0 note=62 velocity=127 time=0.02395833333333333\n",
      "note_off channel=0 note=62 velocity=127 time=0.019791666666666666\n",
      "note_on channel=0 note=61 velocity=127 time=0.0010416666666666667\n",
      "note_off channel=0 note=61 velocity=127 time=0.019791666666666666\n",
      "note_on channel=0 note=60 velocity=127 time=0.022916666666666665\n",
      "note_off channel=0 note=60 velocity=127 time=0.019791666666666666\n",
      "note_on channel=0 note=61 velocity=127 time=0.008333333333333333\n",
      "note_on channel=0 note=62 velocity=127 time=0.016666666666666666\n",
      "note_off channel=0 note=61 velocity=127 time=0.003125\n",
      "note_off channel=0 note=62 velocity=127 time=0.016666666666666666\n",
      "note_on channel=0 note=61 velocity=127 time=0.034375\n",
      "note_on channel=0 note=60 velocity=127 time=0.008333333333333333\n",
      "note_off channel=0 note=61 velocity=127 time=0.011458333333333333\n",
      "note_off channel=0 note=60 velocity=127 time=0.008333333333333333\n",
      "note_on channel=0 note=62 velocity=127 time=0.026041666666666668\n",
      "note_on channel=0 note=61 velocity=127 time=0.016666666666666666\n",
      "note_off channel=0 note=62 velocity=127 time=0.004166666666666667\n",
      "note_off channel=0 note=61 velocity=127 time=0.016666666666666666\n",
      "note_on channel=0 note=60 velocity=127 time=0.026041666666666668\n",
      "note_off channel=0 note=60 velocity=127 time=0.019791666666666666\n",
      "note_on channel=0 note=61 velocity=127 time=0.005208333333333333\n",
      "note_off channel=0 note=61 velocity=127 time=0.019791666666666666\n",
      "\u001b[91m [DEBUG] > \u001b[0m\n",
      " |>  to_array: msg.time > max_t; t, n\n",
      " |>  1.9947916666666663\n",
      " |>  100\n",
      "note_on channel=0 note=61 velocity=127 time=0.02395833333333333\n",
      "note_off channel=0 note=61 velocity=127 time=0.019791666666666666\n",
      "note_on channel=0 note=62 velocity=127 time=0.00625\n",
      "note_off channel=0 note=62 velocity=127 time=0.019791666666666666\n",
      "note_on channel=0 note=60 velocity=127 time=0.0010416666666666667\n",
      "note_off channel=0 note=60 velocity=127 time=0.019791666666666666\n",
      "note_on channel=0 note=62 velocity=127 time=0.029166666666666667\n",
      "note_on channel=0 note=61 velocity=127 time=0.0125\n",
      "note_off channel=0 note=62 velocity=127 time=0.008333333333333333\n",
      "note_off channel=0 note=61 velocity=127 time=0.0125\n",
      "note_on channel=0 note=60 velocity=127 time=0.017708333333333333\n",
      "note_off channel=0 note=60 velocity=127 time=0.019791666666666666\n",
      "note_on channel=0 note=62 velocity=127 time=0.0010416666666666667\n",
      "note_off channel=0 note=62 velocity=127 time=0.019791666666666666\n",
      "note_on channel=0 note=61 velocity=127 time=0.03125\n",
      "note_on channel=0 note=62 velocity=127 time=0.01875\n",
      "note_off channel=0 note=61 velocity=127 time=0.0010416666666666667\n",
      "note_on channel=0 note=60 velocity=127 time=0.007291666666666667\n",
      "note_off channel=0 note=62 velocity=127 time=0.0125\n",
      "note_off channel=0 note=60 velocity=127 time=0.007291666666666667\n",
      "note_on channel=0 note=62 velocity=127 time=0.042708333333333334\n",
      "note_on channel=0 note=61 velocity=127 time=0.019791666666666666\n",
      "note_off channel=0 note=62 velocity=127 time=0\n",
      "note_on channel=0 note=60 velocity=127 time=0.015625\n",
      "note_off channel=0 note=61 velocity=127 time=0.004166666666666667\n",
      "note_off channel=0 note=60 velocity=127 time=0.016666666666666666\n",
      "note_on channel=0 note=62 velocity=127 time=0.014583333333333334\n",
      "note_off channel=0 note=62 velocity=127 time=0.019791666666666666\n",
      "note_on channel=0 note=61 velocity=127 time=0.03854166666666667\n",
      "note_on channel=0 note=60 velocity=127 time=0.00625\n",
      "note_on channel=0 note=62 velocity=127 time=0.00625\n",
      "note_off channel=0 note=61 velocity=127 time=0.008333333333333333\n",
      "note_off channel=0 note=60 velocity=127 time=0.00625\n",
      "note_off channel=0 note=62 velocity=127 time=0.00625\n",
      "note_on channel=0 note=62 velocity=127 time=0.05\n",
      "note_off channel=0 note=62 velocity=127 time=0.019791666666666666\n",
      "note_on channel=0 note=60 velocity=127 time=0.0020833333333333333\n",
      "note_on channel=0 note=61 velocity=127 time=0.005208333333333333\n",
      "note_off channel=0 note=60 velocity=127 time=0.015625\n",
      "note_off channel=0 note=61 velocity=127 time=0.005208333333333333\n",
      "note_on channel=0 note=62 velocity=127 time=0.022916666666666665\n",
      "note_off channel=0 note=62 velocity=127 time=0.019791666666666666\n",
      "note_on channel=0 note=60 velocity=127 time=0.030208333333333334\n",
      "note_on channel=0 note=61 velocity=127 time=0.015625\n",
      "note_on channel=0 note=62 velocity=127 time=0.004166666666666667\n",
      "note_off channel=0 note=60 velocity=127 time=0\n",
      "note_off channel=0 note=61 velocity=127 time=0.015625\n",
      "note_off channel=0 note=62 velocity=127 time=0.004166666666666667\n",
      "note_on channel=0 note=62 velocity=127 time=0.05\n",
      "note_on channel=0 note=60 velocity=127 time=0.008333333333333333\n",
      "note_off channel=0 note=62 velocity=127 time=0.011458333333333333\n",
      "note_off channel=0 note=60 velocity=127 time=0.008333333333333333\n",
      "note_on channel=0 note=61 velocity=127 time=0.00625\n",
      "note_off channel=0 note=61 velocity=127 time=0.019791666666666666\n",
      "note_on channel=0 note=62 velocity=127 time=0.015625\n",
      "note_off channel=0 note=62 velocity=127 time=0.019791666666666666\n",
      "note_on channel=0 note=60 velocity=127 time=0.016666666666666666\n",
      "note_off channel=0 note=60 velocity=127 time=0.019791666666666666\n",
      "note_on channel=0 note=62 velocity=127 time=0.013541666666666667\n",
      "note_on channel=0 note=61 velocity=127 time=0.003125\n",
      "note_off channel=0 note=62 velocity=127 time=0.016666666666666666\n",
      "note_off channel=0 note=61 velocity=127 time=0.003125\n",
      "note_on channel=0 note=60 velocity=127 time=0.041666666666666664\n",
      "note_on channel=0 note=62 velocity=127 time=0.005208333333333333\n",
      "note_off channel=0 note=60 velocity=127 time=0.015625\n",
      "note_off channel=0 note=62 velocity=127 time=0.005208333333333333\n",
      "note_on channel=0 note=61 velocity=127 time=0.021875\n",
      "note_off channel=0 note=61 velocity=127 time=0.019791666666666666\n",
      "note_on channel=0 note=62 velocity=127 time=0.008333333333333333\n",
      "note_off channel=0 note=62 velocity=127 time=0.019791666666666666\n",
      "note_on channel=0 note=60 velocity=127 time=0.003125\n",
      "note_off channel=0 note=60 velocity=127 time=0.019791666666666666\n",
      "note_on channel=0 note=62 velocity=127 time=0.027083333333333334\n",
      "note_on channel=0 note=61 velocity=127 time=0.010416666666666666\n",
      "note_off channel=0 note=62 velocity=127 time=0.009375\n",
      "note_off channel=0 note=61 velocity=127 time=0.010416666666666666\n",
      "note_on channel=0 note=60 velocity=127 time=0.020833333333333332\n",
      "note_on channel=0 note=62 velocity=127 time=0.01875\n",
      "note_off channel=0 note=60 velocity=127 time=0.0020833333333333333\n",
      "note_off channel=0 note=62 velocity=127 time=0.01875\n",
      "note_on channel=0 note=61 velocity=127 time=0.029166666666666667\n",
      "note_off channel=0 note=61 velocity=127 time=0.019791666666666666\n",
      "note_on channel=0 note=62 velocity=127 time=0\n",
      "note_on channel=0 note=60 velocity=127 time=0.010416666666666666\n",
      "note_off channel=0 note=62 velocity=127 time=0.010416666666666666\n",
      "note_off channel=0 note=60 velocity=127 time=0.010416666666666666\n",
      "note_on channel=0 note=62 velocity=127 time=0.040625\n",
      "note_on channel=0 note=61 velocity=127 time=0.01875\n",
      "note_off channel=0 note=62 velocity=127 time=0.0020833333333333333\n",
      "note_on channel=0 note=60 velocity=127 time=0.017708333333333333\n",
      "note_off channel=0 note=61 velocity=127 time=0\n",
      "note_off channel=0 note=60 velocity=127 time=0.019791666666666666\n",
      "note_on channel=0 note=62 velocity=127 time=0.011458333333333333\n",
      "note_off channel=0 note=62 velocity=127 time=0.019791666666666666\n",
      "note_on channel=0 note=61 velocity=127 time=0.0375\n",
      "note_on channel=0 note=60 velocity=127 time=0.009375\n",
      "note_on channel=0 note=62 velocity=127 time=0.003125\n",
      "note_off channel=0 note=61 velocity=127 time=0.007291666666666667\n",
      "note_off channel=0 note=60 velocity=127 time=0.009375\n",
      "note_off channel=0 note=62 velocity=127 time=0.003125\n",
      "note_on channel=0 note=62 velocity=127 time=0.05\n",
      "note_off channel=0 note=62 velocity=127 time=0.019791666666666666\n",
      "note_on channel=0 note=60 velocity=127 time=0.004166666666666667\n",
      "note_on channel=0 note=61 velocity=127 time=0.0010416666666666667\n",
      "note_off channel=0 note=60 velocity=127 time=0.01875\n",
      "note_off channel=0 note=61 velocity=127 time=0.0010416666666666667\n",
      "note_on channel=0 note=62 velocity=127 time=0.02395833333333333\n",
      "note_off channel=0 note=62 velocity=127 time=0.019791666666666666\n",
      "note_on channel=0 note=60 velocity=127 time=0.03333333333333333\n",
      "note_on channel=0 note=61 velocity=127 time=0.011458333333333333\n",
      "note_on channel=0 note=62 velocity=127 time=0.005208333333333333\n",
      "note_off channel=0 note=60 velocity=127 time=0.003125\n",
      "note_off channel=0 note=61 velocity=127 time=0.011458333333333333\n",
      "note_off channel=0 note=62 velocity=127 time=0.005208333333333333\n",
      "note_on channel=0 note=62 velocity=127 time=0.05\n",
      "note_on channel=0 note=60 velocity=127 time=0.011458333333333333\n",
      "note_off channel=0 note=62 velocity=127 time=0.009375\n",
      "note_off channel=0 note=60 velocity=127 time=0.011458333333333333\n",
      "note_on channel=0 note=61 velocity=127 time=0.0020833333333333333\n",
      "note_off channel=0 note=61 velocity=127 time=0.019791666666666666\n",
      "note_on channel=0 note=62 velocity=127 time=0.016666666666666666\n",
      "note_off channel=0 note=62 velocity=127 time=0.019791666666666666\n",
      "note_on channel=0 note=60 velocity=127 time=0.019791666666666666\n",
      "note_off channel=0 note=60 velocity=127 time=0.019791666666666666\n",
      "note_on channel=0 note=62 velocity=127 time=0.010416666666666666\n",
      "note_on channel=0 note=61 velocity=127 time=0.0020833333333333333\n",
      "note_off channel=0 note=62 velocity=127 time=0.017708333333333333\n",
      "note_off channel=0 note=61 velocity=127 time=0.0020833333333333333\n",
      "note_on channel=0 note=60 velocity=127 time=0.04583333333333333\n",
      "note_on channel=0 note=62 velocity=127 time=0.0020833333333333333\n",
      "note_off channel=0 note=60 velocity=127 time=0.017708333333333333\n",
      "note_off channel=0 note=62 velocity=127 time=0.0020833333333333333\n",
      "note_on channel=0 note=61 velocity=127 time=0.020833333333333332\n",
      "note_off channel=0 note=61 velocity=127 time=0.019791666666666666\n",
      "\u001b[91m [DEBUG] > \u001b[0m\n",
      " |>  to_array: msg.time > max_t; t, n\n",
      " |>  2.0052083333333344\n",
      " |>  100\n",
      "note_on channel=0 note=60 velocity=127 time=0.06666666666666667\n",
      "note_off channel=0 note=60 velocity=127 time=0.019791666666666666\n",
      "note_on channel=0 note=61 velocity=127 time=0.007291666666666667\n",
      "note_off channel=0 note=61 velocity=127 time=0.019791666666666666\n",
      "note_on channel=0 note=62 velocity=127 time=0.004166666666666667\n",
      "note_off channel=0 note=62 velocity=127 time=0.019791666666666666\n",
      "note_on channel=0 note=60 velocity=127 time=0.00625\n",
      "note_off channel=0 note=60 velocity=127 time=0.019791666666666666\n",
      "note_on channel=0 note=60 velocity=127 time=0.058333333333333334\n",
      "note_off channel=0 note=60 velocity=127 time=0.019791666666666666\n",
      "note_on channel=0 note=61 velocity=127 time=0.007291666666666667\n",
      "note_off channel=0 note=61 velocity=127 time=0.019791666666666666\n",
      "note_on channel=0 note=60 velocity=127 time=0.03125\n",
      "note_off channel=0 note=60 velocity=127 time=0.019791666666666666\n",
      "note_on channel=0 note=62 velocity=127 time=0.030208333333333334\n",
      "note_off channel=0 note=62 velocity=127 time=0.019791666666666666\n",
      "note_on channel=0 note=60 velocity=127 time=0.007291666666666667\n",
      "note_off channel=0 note=60 velocity=127 time=0.019791666666666666\n",
      "note_on channel=0 note=61 velocity=127 time=0.00625\n",
      "note_off channel=0 note=61 velocity=127 time=0.019791666666666666\n",
      "note_on channel=0 note=60 velocity=127 time=0.03125\n",
      "note_off channel=0 note=60 velocity=127 time=0.019791666666666666\n",
      "note_on channel=0 note=60 velocity=127 time=0.058333333333333334\n",
      "note_off channel=0 note=60 velocity=127 time=0.019791666666666666\n",
      "note_on channel=0 note=61 velocity=127 time=0.00625\n",
      "note_off channel=0 note=61 velocity=127 time=0.019791666666666666\n",
      "note_on channel=0 note=62 velocity=127 time=0.003125\n",
      "note_off channel=0 note=62 velocity=127 time=0.019791666666666666\n",
      "note_on channel=0 note=60 velocity=127 time=0.009375\n",
      "note_off channel=0 note=60 velocity=127 time=0.019791666666666666\n",
      "note_on channel=0 note=60 velocity=127 time=0.058333333333333334\n",
      "note_off channel=0 note=60 velocity=127 time=0.019791666666666666\n",
      "note_on channel=0 note=61 velocity=127 time=0.005208333333333333\n",
      "note_off channel=0 note=61 velocity=127 time=0.019791666666666666\n",
      "note_on channel=0 note=60 velocity=127 time=0.03229166666666666\n",
      "note_off channel=0 note=60 velocity=127 time=0.019791666666666666\n",
      "note_on channel=0 note=62 velocity=127 time=0.028125\n",
      "note_off channel=0 note=62 velocity=127 time=0.019791666666666666\n",
      "note_on channel=0 note=60 velocity=127 time=0.010416666666666666\n",
      "note_off channel=0 note=60 velocity=127 time=0.019791666666666666\n",
      "note_on channel=0 note=61 velocity=127 time=0.005208333333333333\n",
      "note_off channel=0 note=61 velocity=127 time=0.019791666666666666\n",
      "note_on channel=0 note=60 velocity=127 time=0.03333333333333333\n",
      "note_off channel=0 note=60 velocity=127 time=0.019791666666666666\n",
      "note_on channel=0 note=60 velocity=127 time=0.058333333333333334\n",
      "note_off channel=0 note=60 velocity=127 time=0.019791666666666666\n",
      "note_on channel=0 note=61 velocity=127 time=0.005208333333333333\n",
      "note_off channel=0 note=61 velocity=127 time=0.019791666666666666\n",
      "note_on channel=0 note=62 velocity=127 time=0.0020833333333333333\n",
      "note_off channel=0 note=62 velocity=127 time=0.019791666666666666\n",
      "note_on channel=0 note=60 velocity=127 time=0.011458333333333333\n",
      "note_off channel=0 note=60 velocity=127 time=0.019791666666666666\n",
      "note_on channel=0 note=60 velocity=127 time=0.058333333333333334\n",
      "note_off channel=0 note=60 velocity=127 time=0.019791666666666666\n",
      "note_on channel=0 note=61 velocity=127 time=0.004166666666666667\n",
      "note_off channel=0 note=61 velocity=127 time=0.019791666666666666\n",
      "note_on channel=0 note=60 velocity=127 time=0.03333333333333333\n",
      "note_off channel=0 note=60 velocity=127 time=0.019791666666666666\n",
      "note_on channel=0 note=62 velocity=127 time=0.026041666666666668\n",
      "note_off channel=0 note=62 velocity=127 time=0.019791666666666666\n",
      "note_on channel=0 note=60 velocity=127 time=0.0125\n",
      "note_off channel=0 note=60 velocity=127 time=0.019791666666666666\n",
      "note_on channel=0 note=61 velocity=127 time=0.004166666666666667\n",
      "note_off channel=0 note=61 velocity=127 time=0.019791666666666666\n",
      "note_on channel=0 note=60 velocity=127 time=0.034375\n",
      "note_off channel=0 note=60 velocity=127 time=0.019791666666666666\n",
      "note_on channel=0 note=60 velocity=127 time=0.058333333333333334\n",
      "note_off channel=0 note=60 velocity=127 time=0.019791666666666666\n",
      "note_on channel=0 note=61 velocity=127 time=0.003125\n",
      "note_off channel=0 note=61 velocity=127 time=0.019791666666666666\n",
      "note_on channel=0 note=62 velocity=127 time=0.0010416666666666667\n",
      "note_off channel=0 note=62 velocity=127 time=0.019791666666666666\n",
      "note_on channel=0 note=60 velocity=127 time=0.013541666666666667\n",
      "note_off channel=0 note=60 velocity=127 time=0.019791666666666666\n",
      "note_on channel=0 note=60 velocity=127 time=0.058333333333333334\n",
      "note_off channel=0 note=60 velocity=127 time=0.019791666666666666\n",
      "note_on channel=0 note=61 velocity=127 time=0.003125\n",
      "note_off channel=0 note=61 velocity=127 time=0.019791666666666666\n",
      "note_on channel=0 note=60 velocity=127 time=0.035416666666666666\n"
     ]
    },
    {
     "name": "stdout",
     "output_type": "stream",
     "text": [
      "note_off channel=0 note=60 velocity=127 time=0.019791666666666666\n",
      "note_on channel=0 note=62 velocity=127 time=0.022916666666666665\n",
      "note_off channel=0 note=62 velocity=127 time=0.019791666666666666\n",
      "note_on channel=0 note=60 velocity=127 time=0.014583333333333334\n",
      "note_off channel=0 note=60 velocity=127 time=0.019791666666666666\n",
      "note_on channel=0 note=61 velocity=127 time=0.003125\n",
      "note_off channel=0 note=61 velocity=127 time=0.019791666666666666\n",
      "note_on channel=0 note=60 velocity=127 time=0.035416666666666666\n",
      "note_off channel=0 note=60 velocity=127 time=0.019791666666666666\n",
      "note_on channel=0 note=60 velocity=127 time=0.058333333333333334\n",
      "note_off channel=0 note=60 velocity=127 time=0.019791666666666666\n",
      "note_on channel=0 note=61 velocity=127 time=0.0020833333333333333\n",
      "note_on channel=0 note=62 velocity=127 time=0.019791666666666666\n",
      "note_off channel=0 note=61 velocity=127 time=0\n",
      "note_off channel=0 note=62 velocity=127 time=0.019791666666666666\n",
      "\u001b[91m [DEBUG] > \u001b[0m\n",
      " |>  to_array: msg.time > max_t; t, n\n",
      " |>  1.9958333333333333\n",
      " |>  100\n",
      "note_on channel=0 note=62 velocity=127 time=0.034375\n",
      "note_off channel=0 note=62 velocity=127 time=0.019791666666666666\n",
      "note_on channel=0 note=60 velocity=127 time=0.026041666666666668\n",
      "note_off channel=0 note=60 velocity=127 time=0.019791666666666666\n",
      "note_on channel=0 note=61 velocity=127 time=0.041666666666666664\n",
      "note_off channel=0 note=61 velocity=127 time=0.019791666666666666\n",
      "note_on channel=0 note=60 velocity=127 time=0.009375\n",
      "note_on channel=0 note=62 velocity=127 time=0.008333333333333333\n",
      "note_off channel=0 note=60 velocity=127 time=0.011458333333333333\n",
      "note_off channel=0 note=62 velocity=127 time=0.008333333333333333\n",
      "note_on channel=0 note=60 velocity=127 time=0.0625\n",
      "note_off channel=0 note=60 velocity=127 time=0.019791666666666666\n",
      "note_on channel=0 note=62 velocity=127 time=0.042708333333333334\n",
      "note_off channel=0 note=62 velocity=127 time=0.019791666666666666\n",
      "note_on channel=0 note=60 velocity=127 time=0.008333333333333333\n",
      "note_off channel=0 note=60 velocity=127 time=0.019791666666666666\n",
      "note_on channel=0 note=61 velocity=127 time=0.058333333333333334\n",
      "note_on channel=0 note=60 velocity=127 time=0.0125\n",
      "note_off channel=0 note=61 velocity=127 time=0.007291666666666667\n",
      "note_off channel=0 note=60 velocity=127 time=0.0125\n",
      "note_on channel=0 note=62 velocity=127 time=0.00625\n",
      "note_off channel=0 note=62 velocity=127 time=0.019791666666666666\n",
      "note_on channel=0 note=60 velocity=127 time=0.04479166666666667\n",
      "note_off channel=0 note=60 velocity=127 time=0.019791666666666666\n",
      "note_on channel=0 note=62 velocity=127 time=0.06041666666666667\n",
      "note_on channel=0 note=60 velocity=127 time=0.010416666666666666\n",
      "note_off channel=0 note=62 velocity=127 time=0.009375\n",
      "note_off channel=0 note=60 velocity=127 time=0.010416666666666666\n",
      "note_on channel=0 note=60 velocity=127 time=0.07083333333333333\n",
      "note_on channel=0 note=61 velocity=127 time=0.004166666666666667\n",
      "note_off channel=0 note=60 velocity=127 time=0.015625\n",
      "note_off channel=0 note=61 velocity=127 time=0.004166666666666667\n",
      "note_on channel=0 note=62 velocity=127 time=0.019791666666666666\n",
      "note_off channel=0 note=62 velocity=127 time=0.019791666666666666\n",
      "note_on channel=0 note=60 velocity=127 time=0.027083333333333334\n",
      "note_off channel=0 note=60 velocity=127 time=0.019791666666666666\n",
      "note_on channel=0 note=60 velocity=127 time=0.07083333333333333\n",
      "note_on channel=0 note=62 velocity=127 time=0.007291666666666667\n",
      "note_off channel=0 note=60 velocity=127 time=0.0125\n",
      "note_off channel=0 note=62 velocity=127 time=0.007291666666666667\n",
      "note_on channel=0 note=60 velocity=127 time=0.06354166666666666\n",
      "note_off channel=0 note=60 velocity=127 time=0.019791666666666666\n",
      "note_on channel=0 note=61 velocity=127 time=0.0010416666666666667\n",
      "note_off channel=0 note=61 velocity=127 time=0.019791666666666666\n",
      "note_on channel=0 note=62 velocity=127 time=0.020833333333333332\n",
      "note_off channel=0 note=62 velocity=127 time=0.019791666666666666\n",
      "note_on channel=0 note=60 velocity=127 time=0.009375\n",
      "note_off channel=0 note=60 velocity=127 time=0.019791666666666666\n",
      "note_on channel=0 note=60 velocity=127 time=0.07083333333333333\n",
      "note_off channel=0 note=60 velocity=127 time=0.019791666666666666\n",
      "note_on channel=0 note=62 velocity=127 time=0.005208333333333333\n",
      "note_off channel=0 note=62 velocity=127 time=0.019791666666666666\n",
      "note_on channel=0 note=60 velocity=127 time=0.04583333333333333\n",
      "note_off channel=0 note=60 velocity=127 time=0.019791666666666666\n",
      "note_on channel=0 note=61 velocity=127 time=0.017708333333333333\n",
      "note_off channel=0 note=61 velocity=127 time=0.019791666666666666\n",
      "note_on channel=0 note=62 velocity=127 time=0.021875\n",
      "note_on channel=0 note=60 velocity=127 time=0.011458333333333333\n",
      "note_off channel=0 note=62 velocity=127 time=0.008333333333333333\n",
      "note_off channel=0 note=60 velocity=127 time=0.011458333333333333\n",
      "note_on channel=0 note=60 velocity=127 time=0.07083333333333333\n",
      "note_off channel=0 note=60 velocity=127 time=0.019791666666666666\n",
      "note_on channel=0 note=62 velocity=127 time=0.022916666666666665\n",
      "note_off channel=0 note=62 velocity=127 time=0.019791666666666666\n",
      "note_on channel=0 note=60 velocity=127 time=0.028125\n",
      "note_off channel=0 note=60 velocity=127 time=0.019791666666666666\n",
      "note_on channel=0 note=61 velocity=127 time=0.034375\n",
      "note_off channel=0 note=61 velocity=127 time=0.019791666666666666\n",
      "note_on channel=0 note=60 velocity=127 time=0.016666666666666666\n",
      "note_on channel=0 note=62 velocity=127 time=0.00625\n",
      "note_off channel=0 note=60 velocity=127 time=0.013541666666666667\n",
      "note_off channel=0 note=62 velocity=127 time=0.00625\n",
      "note_on channel=0 note=60 velocity=127 time=0.06458333333333333\n",
      "note_off channel=0 note=60 velocity=127 time=0.019791666666666666\n",
      "note_on channel=0 note=62 velocity=127 time=0.040625\n",
      "note_off channel=0 note=62 velocity=127 time=0.019791666666666666\n",
      "note_on channel=0 note=60 velocity=127 time=0.010416666666666666\n",
      "note_off channel=0 note=60 velocity=127 time=0.019791666666666666\n",
      "note_on channel=0 note=61 velocity=127 time=0.051041666666666666\n",
      "note_off channel=0 note=61 velocity=127 time=0.019791666666666666\n",
      "note_on channel=0 note=60 velocity=127 time=0\n",
      "note_off channel=0 note=60 velocity=127 time=0.019791666666666666\n",
      "note_on channel=0 note=62 velocity=127 time=0.004166666666666667\n",
      "note_off channel=0 note=62 velocity=127 time=0.019791666666666666\n",
      "note_on channel=0 note=60 velocity=127 time=0.046875\n",
      "note_off channel=0 note=60 velocity=127 time=0.019791666666666666\n",
      "\u001b[91m [DEBUG] > \u001b[0m\n",
      " |>  to_array: msg.time > max_t; t, n\n",
      " |>  2.0031249999999994\n",
      " |>  100\n",
      "note_on channel=0 note=60 velocity=127 time=0.0010416666666666667\n",
      "note_on channel=0 note=61 velocity=127 time=0.010416666666666666\n",
      "note_off channel=0 note=60 velocity=127 time=0.009375\n",
      "note_off channel=0 note=61 velocity=127 time=0.010416666666666666\n",
      "note_on channel=0 note=61 velocity=127 time=0.057291666666666664\n",
      "note_on channel=0 note=62 velocity=127 time=0\n",
      "note_off channel=0 note=61 velocity=127 time=0.019791666666666666\n",
      "note_off channel=0 note=62 velocity=127 time=0\n",
      "note_on channel=0 note=61 velocity=127 time=0.057291666666666664\n",
      "note_off channel=0 note=61 velocity=127 time=0.019791666666666666\n",
      "note_on channel=0 note=62 velocity=127 time=0.0125\n",
      "note_off channel=0 note=62 velocity=127 time=0.019791666666666666\n",
      "note_on channel=0 note=61 velocity=127 time=0.025\n",
      "note_on channel=0 note=60 velocity=127 time=0.004166666666666667\n",
      "note_off channel=0 note=61 velocity=127 time=0.015625\n",
      "note_off channel=0 note=60 velocity=127 time=0.004166666666666667\n",
      "note_on channel=0 note=62 velocity=127 time=0.040625\n",
      "note_on channel=0 note=61 velocity=127 time=0.013541666666666667\n",
      "note_off channel=0 note=62 velocity=127 time=0.00625\n",
      "note_off channel=0 note=61 velocity=127 time=0.013541666666666667\n",
      "note_on channel=0 note=61 velocity=127 time=0.057291666666666664\n",
      "note_on channel=0 note=62 velocity=127 time=0.01875\n",
      "note_off channel=0 note=61 velocity=127 time=0.0010416666666666667\n",
      "note_off channel=0 note=62 velocity=127 time=0.01875\n",
      "note_on channel=0 note=61 velocity=127 time=0.03854166666666667\n",
      "note_on channel=0 note=60 velocity=127 time=0.01875\n",
      "note_off channel=0 note=61 velocity=127 time=0.0020833333333333333\n",
      "note_off channel=0 note=60 velocity=127 time=0.01875\n",
      "note_on channel=0 note=62 velocity=127 time=0.0125\n",
      "note_off channel=0 note=62 velocity=127 time=0.019791666666666666\n",
      "note_on channel=0 note=61 velocity=127 time=0.00625\n",
      "note_off channel=0 note=61 velocity=127 time=0.019791666666666666\n",
      "note_on channel=0 note=61 velocity=127 time=0.057291666666666664\n",
      "note_on channel=0 note=62 velocity=127 time=0.005208333333333333\n",
      "note_off channel=0 note=61 velocity=127 time=0.014583333333333334\n",
      "note_off channel=0 note=62 velocity=127 time=0.005208333333333333\n",
      "note_on channel=0 note=61 velocity=127 time=0.052083333333333336\n",
      "note_off channel=0 note=61 velocity=127 time=0.019791666666666666\n",
      "note_on channel=0 note=60 velocity=127 time=0.0125\n",
      "note_on channel=0 note=62 velocity=127 time=0.005208333333333333\n",
      "note_off channel=0 note=60 velocity=127 time=0.015625\n",
      "note_off channel=0 note=62 velocity=127 time=0.005208333333333333\n",
      "note_on channel=0 note=61 velocity=127 time=0.019791666666666666\n",
      "note_off channel=0 note=61 velocity=127 time=0.019791666666666666\n",
      "note_on channel=0 note=62 velocity=127 time=0.04895833333333333\n",
      "note_on channel=0 note=61 velocity=127 time=0.008333333333333333\n",
      "note_off channel=0 note=62 velocity=127 time=0.011458333333333333\n",
      "note_off channel=0 note=61 velocity=127 time=0.008333333333333333\n",
      "note_on channel=0 note=61 velocity=127 time=0.057291666666666664\n",
      "note_off channel=0 note=61 velocity=127 time=0.019791666666666666\n",
      "note_on channel=0 note=62 velocity=127 time=0.004166666666666667\n",
      "note_off channel=0 note=62 velocity=127 time=0.019791666666666666\n",
      "note_on channel=0 note=60 velocity=127 time=0.003125\n",
      "note_off channel=0 note=60 velocity=127 time=0.019791666666666666\n",
      "note_on channel=0 note=61 velocity=127 time=0.010416666666666666\n",
      "note_off channel=0 note=61 velocity=127 time=0.019791666666666666\n",
      "note_on channel=0 note=62 velocity=127 time=0.036458333333333336\n",
      "note_off channel=0 note=62 velocity=127 time=0.019791666666666666\n",
      "note_on channel=0 note=61 velocity=127 time=0.0010416666666666667\n",
      "note_off channel=0 note=61 velocity=127 time=0.019791666666666666\n",
      "note_on channel=0 note=61 velocity=127 time=0.057291666666666664\n",
      "note_on channel=0 note=62 velocity=127 time=0.010416666666666666\n",
      "note_off channel=0 note=61 velocity=127 time=0.009375\n",
      "note_off channel=0 note=62 velocity=127 time=0.010416666666666666\n",
      "note_on channel=0 note=60 velocity=127 time=0.03125\n",
      "note_on channel=0 note=61 velocity=127 time=0.015625\n",
      "note_off channel=0 note=60 velocity=127 time=0.004166666666666667\n",
      "note_off channel=0 note=61 velocity=127 time=0.015625\n",
      "note_on channel=0 note=62 velocity=127 time=0.022916666666666665\n",
      "note_off channel=0 note=62 velocity=127 time=0.019791666666666666\n",
      "note_on channel=0 note=61 velocity=127 time=0.014583333333333334\n",
      "note_off channel=0 note=61 velocity=127 time=0.019791666666666666\n",
      "note_on channel=0 note=62 velocity=127 time=0.05416666666666667\n",
      "note_on channel=0 note=61 velocity=127 time=0.003125\n",
      "note_off channel=0 note=62 velocity=127 time=0.016666666666666666\n",
      "note_off channel=0 note=61 velocity=127 time=0.003125\n",
      "note_on channel=0 note=60 velocity=127 time=0.05625\n",
      "note_on channel=0 note=61 velocity=127 time=0.0020833333333333333\n",
      "note_off channel=0 note=60 velocity=127 time=0.01875\n",
      "note_off channel=0 note=61 velocity=127 time=0.0020833333333333333\n",
      "note_on channel=0 note=62 velocity=127 time=0.009375\n",
      "note_off channel=0 note=62 velocity=127 time=0.019791666666666666\n",
      "note_on channel=0 note=61 velocity=127 time=0.028125\n",
      "note_off channel=0 note=61 velocity=127 time=0.019791666666666666\n",
      "note_on channel=0 note=62 velocity=127 time=0.041666666666666664\n",
      "note_on channel=0 note=61 velocity=127 time=0.016666666666666666\n",
      "note_off channel=0 note=62 velocity=127 time=0.004166666666666667\n",
      "note_off channel=0 note=61 velocity=127 time=0.016666666666666666\n",
      "note_on channel=0 note=61 velocity=127 time=0.057291666666666664\n",
      "note_on channel=0 note=60 velocity=127 time=0.0125\n",
      "note_on channel=0 note=62 velocity=127 time=0.003125\n",
      "note_off channel=0 note=61 velocity=127 time=0.004166666666666667\n",
      "note_off channel=0 note=60 velocity=127 time=0.0125\n",
      "note_off channel=0 note=62 velocity=127 time=0.003125\n",
      "note_on channel=0 note=61 velocity=127 time=0.041666666666666664\n",
      "note_off channel=0 note=61 velocity=127 time=0.019791666666666666\n",
      "note_on channel=0 note=62 velocity=127 time=0.028125\n",
      "note_off channel=0 note=62 velocity=127 time=0.019791666666666666\n",
      "note_on channel=0 note=61 velocity=127 time=0.009375\n",
      "note_off channel=0 note=61 velocity=127 time=0.019791666666666666\n",
      "note_on channel=0 note=61 velocity=127 time=0.057291666666666664\n",
      "note_on channel=0 note=62 velocity=127 time=0.0020833333333333333\n",
      "note_off channel=0 note=61 velocity=127 time=0.017708333333333333\n",
      "note_off channel=0 note=62 velocity=127 time=0.0020833333333333333\n",
      "note_on channel=0 note=60 velocity=127 time=0.005208333333333333\n",
      "note_off channel=0 note=60 velocity=127 time=0.019791666666666666\n",
      "\u001b[91m [DEBUG] > \u001b[0m\n",
      " |>  to_array: msg.time > max_t; t, n\n",
      " |>  1.9927083333333335\n",
      " |>  100\n",
      "note_on channel=0 note=61 velocity=127 time=0.04583333333333333\n",
      "note_on channel=0 note=60 velocity=127 time=0.008333333333333333\n",
      "note_off channel=0 note=61 velocity=127 time=0.0125\n",
      "note_off channel=0 note=60 velocity=127 time=0.008333333333333333\n",
      "note_on channel=0 note=62 velocity=127 time=0.0010416666666666667\n",
      "note_off channel=0 note=62 velocity=127 time=0.019791666666666666\n",
      "note_on channel=0 note=61 velocity=127 time=0.025\n",
      "note_on channel=0 note=60 velocity=127 time=0.0010416666666666667\n",
      "note_off channel=0 note=61 velocity=127 time=0.01875\n",
      "note_off channel=0 note=60 velocity=127 time=0.0010416666666666667\n",
      "note_on channel=0 note=60 velocity=127 time=0.046875\n",
      "note_on channel=0 note=61 velocity=127 time=0.005208333333333333\n",
      "note_off channel=0 note=60 velocity=127 time=0.014583333333333334\n",
      "note_off channel=0 note=61 velocity=127 time=0.005208333333333333\n",
      "note_on channel=0 note=62 velocity=127 time=0.013541666666666667\n",
      "note_off channel=0 note=62 velocity=127 time=0.019791666666666666\n",
      "note_on channel=0 note=60 velocity=127 time=0.008333333333333333\n",
      "note_on channel=0 note=61 velocity=127 time=0.0125\n",
      "note_off channel=0 note=60 velocity=127 time=0.008333333333333333\n",
      "note_off channel=0 note=61 velocity=127 time=0.0125\n",
      "note_on channel=0 note=60 velocity=127 time=0.035416666666666666\n",
      "note_on channel=0 note=61 velocity=127 time=0.01875\n",
      "note_off channel=0 note=60 velocity=127 time=0.0010416666666666667\n",
      "note_off channel=0 note=61 velocity=127 time=0.01875\n",
      "note_on channel=0 note=62 velocity=127 time=0.017708333333333333\n",
      "note_on channel=0 note=60 velocity=127 time=0.010416666666666666\n",
      "note_off channel=0 note=62 velocity=127 time=0.009375\n",
      "note_off channel=0 note=60 velocity=127 time=0.010416666666666666\n",
      "note_on channel=0 note=61 velocity=127 time=0.005208333333333333\n",
      "note_off channel=0 note=61 velocity=127 time=0.019791666666666666\n",
      "note_on channel=0 note=60 velocity=127 time=0.021875\n",
      "note_off channel=0 note=60 velocity=127 time=0.019791666666666666\n",
      "note_on channel=0 note=61 velocity=127 time=0.0125\n",
      "note_off channel=0 note=61 velocity=127 time=0.019791666666666666\n",
      "note_on channel=0 note=60 velocity=127 time=0.014583333333333334\n",
      "note_on channel=0 note=62 velocity=127 time=0.007291666666666667\n",
      "note_off channel=0 note=60 velocity=127 time=0.0125\n",
      "note_off channel=0 note=62 velocity=127 time=0.007291666666666667\n",
      "note_on channel=0 note=61 velocity=127 time=0.011458333333333333\n",
      "note_off channel=0 note=61 velocity=127 time=0.019791666666666666\n",
      "note_on channel=0 note=60 velocity=127 time=0.008333333333333333\n",
      "note_off channel=0 note=60 velocity=127 time=0.019791666666666666\n",
      "note_on channel=0 note=61 velocity=127 time=0.025\n",
      "note_off channel=0 note=61 velocity=127 time=0.019791666666666666\n",
      "note_on channel=0 note=60 velocity=127 time=0.0020833333333333333\n",
      "note_off channel=0 note=60 velocity=127 time=0.019791666666666666\n",
      "note_on channel=0 note=62 velocity=127 time=0.005208333333333333\n",
      "note_off channel=0 note=62 velocity=127 time=0.019791666666666666\n",
      "note_on channel=0 note=61 velocity=127 time=0.00625\n",
      "note_on channel=0 note=60 velocity=127 time=0.014583333333333334\n",
      "note_off channel=0 note=61 velocity=127 time=0.005208333333333333\n",
      "note_off channel=0 note=60 velocity=127 time=0.014583333333333334\n",
      "note_on channel=0 note=61 velocity=127 time=0.03854166666666667\n",
      "note_on channel=0 note=60 velocity=127 time=0.008333333333333333\n",
      "note_off channel=0 note=61 velocity=127 time=0.011458333333333333\n",
      "note_off channel=0 note=60 velocity=127 time=0.008333333333333333\n",
      "note_on channel=0 note=62 velocity=127 time=0.02395833333333333\n",
      "note_off channel=0 note=62 velocity=127 time=0.019791666666666666\n",
      "note_on channel=0 note=61 velocity=127 time=0.0020833333333333333\n",
      "note_on channel=0 note=60 velocity=127 time=0.0020833333333333333\n",
      "note_off channel=0 note=61 velocity=127 time=0.01875\n",
      "note_off channel=0 note=60 velocity=127 time=0.0020833333333333333\n",
      "note_on channel=0 note=60 velocity=127 time=0.046875\n",
      "note_on channel=0 note=61 velocity=127 time=0.005208333333333333\n",
      "note_off channel=0 note=60 velocity=127 time=0.014583333333333334\n",
      "note_off channel=0 note=61 velocity=127 time=0.005208333333333333\n",
      "note_on channel=0 note=62 velocity=127 time=0.036458333333333336\n",
      "note_on channel=0 note=60 velocity=127 time=0.005208333333333333\n",
      "note_on channel=0 note=61 velocity=127 time=0.011458333333333333\n",
      "note_off channel=0 note=62 velocity=127 time=0.003125\n",
      "note_off channel=0 note=60 velocity=127 time=0.005208333333333333\n",
      "note_off channel=0 note=61 velocity=127 time=0.011458333333333333\n",
      "note_on channel=0 note=60 velocity=127 time=0.035416666666666666\n",
      "note_on channel=0 note=61 velocity=127 time=0.01875\n",
      "note_off channel=0 note=60 velocity=127 time=0.0010416666666666667\n",
      "note_off channel=0 note=61 velocity=127 time=0.01875\n",
      "note_on channel=0 note=60 velocity=127 time=0.029166666666666667\n",
      "note_on channel=0 note=62 velocity=127 time=0.0125\n",
      "note_off channel=0 note=60 velocity=127 time=0.007291666666666667\n",
      "note_on channel=0 note=61 velocity=127 time=0.005208333333333333\n",
      "note_off channel=0 note=62 velocity=127 time=0.007291666666666667\n",
      "note_off channel=0 note=61 velocity=127 time=0.0125\n",
      "note_on channel=0 note=60 velocity=127 time=0.021875\n",
      "note_off channel=0 note=60 velocity=127 time=0.019791666666666666\n",
      "note_on channel=0 note=61 velocity=127 time=0.011458333333333333\n",
      "note_off channel=0 note=61 velocity=127 time=0.019791666666666666\n",
      "note_on channel=0 note=60 velocity=127 time=0.015625\n",
      "note_off channel=0 note=60 velocity=127 time=0.019791666666666666\n",
      "note_on channel=0 note=62 velocity=127 time=0.010416666666666666\n",
      "note_on channel=0 note=61 velocity=127 time=0.008333333333333333\n",
      "note_off channel=0 note=62 velocity=127 time=0.011458333333333333\n",
      "note_off channel=0 note=61 velocity=127 time=0.008333333333333333\n",
      "note_on channel=0 note=60 velocity=127 time=0.008333333333333333\n",
      "note_off channel=0 note=60 velocity=127 time=0.019791666666666666\n",
      "note_on channel=0 note=61 velocity=127 time=0.025\n",
      "note_off channel=0 note=61 velocity=127 time=0.019791666666666666\n",
      "note_on channel=0 note=60 velocity=127 time=0.0020833333333333333\n",
      "note_off channel=0 note=60 velocity=127 time=0.019791666666666666\n",
      "note_on channel=0 note=62 velocity=127 time=0.028125\n",
      "note_on channel=0 note=61 velocity=127 time=0.004166666666666667\n",
      "note_on channel=0 note=60 velocity=127 time=0.015625\n",
      "note_off channel=0 note=62 velocity=127 time=0.0010416666666666667\n",
      "note_off channel=0 note=61 velocity=127 time=0.004166666666666667\n",
      "note_off channel=0 note=60 velocity=127 time=0.015625\n",
      "note_on channel=0 note=61 velocity=127 time=0.03854166666666667\n",
      "note_on channel=0 note=60 velocity=127 time=0.008333333333333333\n",
      "note_off channel=0 note=61 velocity=127 time=0.011458333333333333\n",
      "note_off channel=0 note=60 velocity=127 time=0.008333333333333333\n",
      "note_on channel=0 note=61 velocity=127 time=0.04479166666666667\n",
      "note_on channel=0 note=62 velocity=127 time=0.0010416666666666667\n",
      "note_on channel=0 note=60 velocity=127 time=0.0010416666666666667\n",
      "note_off channel=0 note=61 velocity=127 time=0.017708333333333333\n",
      "note_off channel=0 note=62 velocity=127 time=0.0010416666666666667\n",
      "note_off channel=0 note=60 velocity=127 time=0.0010416666666666667\n",
      "note_on channel=0 note=60 velocity=127 time=0.046875\n",
      "note_on channel=0 note=61 velocity=127 time=0.005208333333333333\n",
      "note_off channel=0 note=60 velocity=127 time=0.015625\n",
      "note_off channel=0 note=61 velocity=127 time=0.005208333333333333\n",
      "note_on channel=0 note=60 velocity=127 time=0.042708333333333334\n",
      "note_on channel=0 note=61 velocity=127 time=0.011458333333333333\n",
      "note_on channel=0 note=62 velocity=127 time=0.005208333333333333\n",
      "note_off channel=0 note=60 velocity=127 time=0.003125\n",
      "note_off channel=0 note=61 velocity=127 time=0.011458333333333333\n",
      "note_off channel=0 note=62 velocity=127 time=0.005208333333333333\n",
      "note_on channel=0 note=60 velocity=127 time=0.030208333333333334\n",
      "note_on channel=0 note=61 velocity=127 time=0.017708333333333333\n",
      "note_off channel=0 note=60 velocity=127 time=0.0020833333333333333\n",
      "note_off channel=0 note=61 velocity=127 time=0.017708333333333333\n",
      "note_on channel=0 note=60 velocity=127 time=0.029166666666666667\n",
      "note_off channel=0 note=60 velocity=127 time=0.019791666666666666\n",
      "note_on channel=0 note=61 velocity=127 time=0.005208333333333333\n",
      "note_on channel=0 note=62 velocity=127 time=0.010416666666666666\n",
      "note_off channel=0 note=61 velocity=127 time=0.010416666666666666\n",
      "note_off channel=0 note=62 velocity=127 time=0.010416666666666666\n",
      "note_on channel=0 note=60 velocity=127 time=0.0125\n",
      "note_off channel=0 note=60 velocity=127 time=0.019791666666666666\n",
      "note_on channel=0 note=61 velocity=127 time=0.011458333333333333\n",
      "note_off channel=0 note=61 velocity=127 time=0.019791666666666666\n",
      "note_on channel=0 note=60 velocity=127 time=0.015625\n",
      "\u001b[91m [DEBUG] > \u001b[0m\n",
      " |>  to_array: msg.time > max_t; t, n\n",
      " |>  1.9989583333333327\n",
      " |>  100\n",
      "note_on channel=0 note=61 velocity=127 time=0.026041666666666668\n",
      "note_off channel=0 note=61 velocity=127 time=0.019791666666666666\n",
      "note_on channel=0 note=60 velocity=127 time=0.0010416666666666667\n",
      "note_off channel=0 note=60 velocity=127 time=0.019791666666666666\n",
      "note_on channel=0 note=61 velocity=127 time=0.05520833333333333\n",
      "note_on channel=0 note=62 velocity=127 time=0.003125\n",
      "note_off channel=0 note=61 velocity=127 time=0.016666666666666666\n",
      "note_off channel=0 note=62 velocity=127 time=0.003125\n",
      "note_on channel=0 note=61 velocity=127 time=0.07291666666666667\n",
      "note_off channel=0 note=61 velocity=127 time=0.019791666666666666\n",
      "note_on channel=0 note=60 velocity=127 time=0.06354166666666666\n",
      "note_on channel=0 note=61 velocity=127 time=0.0125\n",
      "note_off channel=0 note=60 velocity=127 time=0.007291666666666667\n",
      "note_off channel=0 note=61 velocity=127 time=0.0125\n",
      "note_on channel=0 note=62 velocity=127 time=0.003125\n",
      "note_off channel=0 note=62 velocity=127 time=0.019791666666666666\n",
      "note_on channel=0 note=61 velocity=127 time=0.053125\n",
      "note_off channel=0 note=61 velocity=127 time=0.019791666666666666\n",
      "note_on channel=0 note=61 velocity=127 time=0.07604166666666666\n",
      "note_off channel=0 note=61 velocity=127 time=0.019791666666666666\n",
      "note_on channel=0 note=62 velocity=127 time=0.021875\n",
      "note_on channel=0 note=60 velocity=127 time=0.007291666666666667\n",
      "note_off channel=0 note=62 velocity=127 time=0.0125\n",
      "note_off channel=0 note=60 velocity=127 time=0.007291666666666667\n",
      "note_on channel=0 note=61 velocity=127 time=0.026041666666666668\n",
      "note_off channel=0 note=61 velocity=127 time=0.019791666666666666\n",
      "note_on channel=0 note=61 velocity=127 time=0.07604166666666666\n",
      "note_off channel=0 note=61 velocity=127 time=0.019791666666666666\n",
      "note_on channel=0 note=62 velocity=127 time=0.041666666666666664\n",
      "note_off channel=0 note=62 velocity=127 time=0.019791666666666666\n",
      "note_on channel=0 note=61 velocity=127 time=0.014583333333333334\n",
      "note_on channel=0 note=60 velocity=127 time=0.015625\n",
      "note_off channel=0 note=61 velocity=127 time=0.004166666666666667\n",
      "note_off channel=0 note=60 velocity=127 time=0.015625\n",
      "note_on channel=0 note=61 velocity=127 time=0.059375\n",
      "note_off channel=0 note=61 velocity=127 time=0.019791666666666666\n",
      "note_on channel=0 note=62 velocity=127 time=0.06145833333333333\n",
      "note_on channel=0 note=61 velocity=127 time=0.014583333333333334\n",
      "note_off channel=0 note=62 velocity=127 time=0.005208333333333333\n",
      "note_off channel=0 note=61 velocity=127 time=0.014583333333333334\n",
      "note_on channel=0 note=60 velocity=127 time=0.058333333333333334\n",
      "note_on channel=0 note=61 velocity=127 time=0.017708333333333333\n",
      "note_off channel=0 note=60 velocity=127 time=0.0020833333333333333\n",
      "note_off channel=0 note=61 velocity=127 time=0.017708333333333333\n",
      "note_on channel=0 note=61 velocity=127 time=0.07604166666666666\n",
      "note_on channel=0 note=62 velocity=127 time=0.005208333333333333\n",
      "note_off channel=0 note=61 velocity=127 time=0.014583333333333334\n",
      "note_off channel=0 note=62 velocity=127 time=0.005208333333333333\n",
      "note_on channel=0 note=61 velocity=127 time=0.07083333333333333\n",
      "note_off channel=0 note=61 velocity=127 time=0.019791666666666666\n",
      "note_on channel=0 note=60 velocity=127 time=0.025\n",
      "note_off channel=0 note=60 velocity=127 time=0.019791666666666666\n",
      "note_on channel=0 note=61 velocity=127 time=0.03125\n",
      "note_off channel=0 note=61 velocity=127 time=0.019791666666666666\n",
      "note_on channel=0 note=62 velocity=127 time=0.004166666666666667\n",
      "note_off channel=0 note=62 velocity=127 time=0.019791666666666666\n",
      "note_on channel=0 note=61 velocity=127 time=0.051041666666666666\n",
      "note_off channel=0 note=61 velocity=127 time=0.019791666666666666\n",
      "note_on channel=0 note=61 velocity=127 time=0.07604166666666666\n",
      "note_on channel=0 note=60 velocity=127 time=0.011458333333333333\n",
      "note_off channel=0 note=61 velocity=127 time=0.009375\n",
      "note_off channel=0 note=60 velocity=127 time=0.011458333333333333\n",
      "note_on channel=0 note=62 velocity=127 time=0.0125\n",
      "note_off channel=0 note=62 velocity=127 time=0.019791666666666666\n",
      "note_on channel=0 note=61 velocity=127 time=0.03229166666666666\n",
      "note_off channel=0 note=61 velocity=127 time=0.019791666666666666\n",
      "note_on channel=0 note=61 velocity=127 time=0.07604166666666666\n",
      "note_off channel=0 note=61 velocity=127 time=0.019791666666666666\n",
      "note_on channel=0 note=62 velocity=127 time=0.04375\n",
      "note_on channel=0 note=60 velocity=127 time=0.009375\n",
      "note_off channel=0 note=62 velocity=127 time=0.010416666666666666\n",
      "note_off channel=0 note=60 velocity=127 time=0.009375\n",
      "note_on channel=0 note=61 velocity=127 time=0.0020833333333333333\n",
      "note_off channel=0 note=61 velocity=127 time=0.019791666666666666\n",
      "note_on channel=0 note=61 velocity=127 time=0.07604166666666666\n",
      "note_off channel=0 note=61 velocity=127 time=0.019791666666666666\n",
      "note_on channel=0 note=62 velocity=127 time=0.06354166666666666\n",
      "\u001b[91m [DEBUG] > \u001b[0m\n",
      " |>  to_array: msg.time > max_t; t, n\n",
      " |>  2.022916666666666\n",
      " |>  100\n"
     ]
    },
    {
     "name": "stdout",
     "output_type": "stream",
     "text": [
      "note_on channel=0 note=61 velocity=127 time=0.02395833333333333\n",
      "note_off channel=0 note=61 velocity=127 time=0.019791666666666666\n",
      "note_on channel=0 note=60 velocity=127 time=0.0010416666666666667\n",
      "note_off channel=0 note=60 velocity=127 time=0.019791666666666666\n",
      "note_on channel=0 note=61 velocity=127 time=0.042708333333333334\n",
      "note_off channel=0 note=61 velocity=127 time=0.019791666666666666\n",
      "note_on channel=0 note=61 velocity=127 time=0.06354166666666666\n",
      "note_off channel=0 note=61 velocity=127 time=0.019791666666666666\n",
      "note_on channel=0 note=62 velocity=127 time=0.003125\n",
      "note_off channel=0 note=62 velocity=127 time=0.019791666666666666\n",
      "note_on channel=0 note=60 velocity=127 time=0.005208333333333333\n",
      "note_off channel=0 note=60 velocity=127 time=0.019791666666666666\n",
      "note_on channel=0 note=61 velocity=127 time=0.015625\n",
      "note_off channel=0 note=61 velocity=127 time=0.019791666666666666\n",
      "note_on channel=0 note=61 velocity=127 time=0.06354166666666666\n",
      "note_off channel=0 note=61 velocity=127 time=0.019791666666666666\n",
      "note_on channel=0 note=62 velocity=127 time=0.05416666666666667\n",
      "note_on channel=0 note=60 velocity=127 time=0\n",
      "note_on channel=0 note=61 velocity=127 time=0.009375\n",
      "note_off channel=0 note=62 velocity=127 time=0.010416666666666666\n",
      "note_off channel=0 note=60 velocity=127 time=0\n",
      "note_off channel=0 note=61 velocity=127 time=0.009375\n",
      "note_on channel=0 note=61 velocity=127 time=0.06354166666666666\n",
      "note_off channel=0 note=61 velocity=127 time=0.019791666666666666\n",
      "note_on channel=0 note=61 velocity=127 time=0.06354166666666666\n",
      "note_on channel=0 note=60 velocity=127 time=0.016666666666666666\n",
      "note_off channel=0 note=61 velocity=127 time=0.003125\n",
      "note_off channel=0 note=60 velocity=127 time=0.016666666666666666\n",
      "note_on channel=0 note=62 velocity=127 time=0.004166666666666667\n",
      "note_off channel=0 note=62 velocity=127 time=0.019791666666666666\n",
      "note_on channel=0 note=61 velocity=127 time=0.022916666666666665\n",
      "note_off channel=0 note=61 velocity=127 time=0.019791666666666666\n",
      "note_on channel=0 note=61 velocity=127 time=0.06354166666666666\n",
      "note_off channel=0 note=61 velocity=127 time=0.019791666666666666\n",
      "note_on channel=0 note=60 velocity=127 time=0.02395833333333333\n",
      "note_off channel=0 note=60 velocity=127 time=0.019791666666666666\n",
      "note_on channel=0 note=61 velocity=127 time=0.020833333333333332\n",
      "note_on channel=0 note=62 velocity=127 time=0.008333333333333333\n",
      "note_off channel=0 note=61 velocity=127 time=0.011458333333333333\n",
      "note_off channel=0 note=62 velocity=127 time=0.008333333333333333\n",
      "note_on channel=0 note=61 velocity=127 time=0.05520833333333333\n",
      "note_off channel=0 note=61 velocity=127 time=0.019791666666666666\n",
      "note_on channel=0 note=60 velocity=127 time=0.05\n",
      "note_on channel=0 note=61 velocity=127 time=0.013541666666666667\n",
      "note_off channel=0 note=60 velocity=127 time=0.00625\n",
      "note_off channel=0 note=61 velocity=127 time=0.013541666666666667\n",
      "note_on channel=0 note=62 velocity=127 time=0.03958333333333333\n",
      "note_off channel=0 note=62 velocity=127 time=0.019791666666666666\n",
      "note_on channel=0 note=61 velocity=127 time=0.004166666666666667\n",
      "note_off channel=0 note=61 velocity=127 time=0.019791666666666666\n",
      "note_on channel=0 note=61 velocity=127 time=0.06354166666666666\n",
      "note_on channel=0 note=60 velocity=127 time=0.0125\n",
      "note_off channel=0 note=61 velocity=127 time=0.007291666666666667\n",
      "note_off channel=0 note=60 velocity=127 time=0.0125\n",
      "note_on channel=0 note=61 velocity=127 time=0.051041666666666666\n",
      "note_off channel=0 note=61 velocity=127 time=0.019791666666666666\n",
      "note_on channel=0 note=62 velocity=127 time=0.007291666666666667\n",
      "note_off channel=0 note=62 velocity=127 time=0.019791666666666666\n",
      "note_on channel=0 note=61 velocity=127 time=0.0375\n",
      "note_off channel=0 note=61 velocity=127 time=0.019791666666666666\n",
      "note_on channel=0 note=60 velocity=127 time=0.01875\n",
      "note_off channel=0 note=60 velocity=127 time=0.019791666666666666\n",
      "note_on channel=0 note=61 velocity=127 time=0.025\n",
      "note_off channel=0 note=61 velocity=127 time=0.019791666666666666\n",
      "note_on channel=0 note=62 velocity=127 time=0.058333333333333334\n",
      "note_on channel=0 note=61 velocity=127 time=0.00625\n",
      "note_off channel=0 note=62 velocity=127 time=0.013541666666666667\n",
      "note_off channel=0 note=61 velocity=127 time=0.00625\n",
      "note_on channel=0 note=60 velocity=127 time=0.04583333333333333\n",
      "note_on channel=0 note=61 velocity=127 time=0.017708333333333333\n",
      "note_off channel=0 note=60 velocity=127 time=0.0020833333333333333\n",
      "note_off channel=0 note=61 velocity=127 time=0.017708333333333333\n",
      "note_on channel=0 note=61 velocity=127 time=0.06354166666666666\n",
      "note_off channel=0 note=61 velocity=127 time=0.019791666666666666\n",
      "note_on channel=0 note=62 velocity=127 time=0.025\n",
      "note_off channel=0 note=62 velocity=127 time=0.019791666666666666\n",
      "note_on channel=0 note=61 velocity=127 time=0.01875\n",
      "note_on channel=0 note=60 velocity=127 time=0.008333333333333333\n",
      "note_off channel=0 note=61 velocity=127 time=0.011458333333333333\n",
      "note_off channel=0 note=60 velocity=127 time=0.008333333333333333\n",
      "note_on channel=0 note=61 velocity=127 time=0.05520833333333333\n",
      "note_off channel=0 note=61 velocity=127 time=0.019791666666666666\n",
      "note_on channel=0 note=61 velocity=127 time=0.06354166666666666\n",
      "note_on channel=0 note=62 velocity=127 time=0.0125\n",
      "note_off channel=0 note=61 velocity=127 time=0.008333333333333333\n",
      "note_off channel=0 note=62 velocity=127 time=0.0125\n",
      "note_on channel=0 note=60 velocity=127 time=0.003125\n",
      "note_off channel=0 note=60 velocity=127 time=0.019791666666666666\n",
      "\u001b[91m [DEBUG] > \u001b[0m\n",
      " |>  to_array: msg.time > max_t; t, n\n",
      " |>  1.9999999999999996\n",
      " |>  100\n",
      "note_on channel=0 note=62 velocity=127 time=0.008333333333333333\n",
      "note_off channel=0 note=62 velocity=127 time=0.019791666666666666\n",
      "note_on channel=0 note=61 velocity=127 time=0.007291666666666667\n",
      "note_off channel=0 note=61 velocity=127 time=0.019791666666666666\n",
      "note_on channel=0 note=62 velocity=127 time=0.025\n",
      "note_on channel=0 note=60 velocity=127 time=0.00625\n",
      "note_off channel=0 note=62 velocity=127 time=0.013541666666666667\n",
      "note_off channel=0 note=60 velocity=127 time=0.00625\n",
      "note_on channel=0 note=61 velocity=127 time=0\n",
      "note_off channel=0 note=61 velocity=127 time=0.019791666666666666\n",
      "note_on channel=0 note=62 velocity=127 time=0.027083333333333334\n",
      "note_off channel=0 note=62 velocity=127 time=0.019791666666666666\n",
      "note_on channel=0 note=61 velocity=127 time=0.004166666666666667\n",
      "note_off channel=0 note=61 velocity=127 time=0.019791666666666666\n",
      "note_on channel=0 note=62 velocity=127 time=0.029166666666666667\n",
      "note_off channel=0 note=62 velocity=127 time=0.019791666666666666\n",
      "note_on channel=0 note=61 velocity=127 time=0.003125\n",
      "note_off channel=0 note=61 velocity=127 time=0.019791666666666666\n",
      "note_on channel=0 note=62 velocity=127 time=0.030208333333333334\n",
      "note_on channel=0 note=60 velocity=127 time=0.004166666666666667\n",
      "note_off channel=0 note=62 velocity=127 time=0.015625\n",
      "note_on channel=0 note=61 velocity=127 time=0.0010416666666666667\n",
      "note_off channel=0 note=60 velocity=127 time=0.003125\n",
      "note_off channel=0 note=61 velocity=127 time=0.016666666666666666\n",
      "note_on channel=0 note=62 velocity=127 time=0.03229166666666666\n",
      "note_on channel=0 note=61 velocity=127 time=0.019791666666666666\n",
      "note_off channel=0 note=62 velocity=127 time=0\n",
      "note_off channel=0 note=61 velocity=127 time=0.019791666666666666\n",
      "note_on channel=0 note=62 velocity=127 time=0.03333333333333333\n",
      "note_on channel=0 note=61 velocity=127 time=0.017708333333333333\n",
      "note_off channel=0 note=62 velocity=127 time=0.0020833333333333333\n",
      "note_off channel=0 note=61 velocity=127 time=0.017708333333333333\n",
      "note_on channel=0 note=62 velocity=127 time=0.035416666666666666\n",
      "note_on channel=0 note=60 velocity=127 time=0.0020833333333333333\n",
      "note_on channel=0 note=61 velocity=127 time=0.013541666666666667\n",
      "note_off channel=0 note=62 velocity=127 time=0.003125\n",
      "note_off channel=0 note=60 velocity=127 time=0.0020833333333333333\n",
      "note_off channel=0 note=61 velocity=127 time=0.013541666666666667\n",
      "note_on channel=0 note=62 velocity=127 time=0.036458333333333336\n",
      "note_on channel=0 note=61 velocity=127 time=0.014583333333333334\n",
      "note_off channel=0 note=62 velocity=127 time=0.005208333333333333\n",
      "note_off channel=0 note=61 velocity=127 time=0.014583333333333334\n",
      "note_on channel=0 note=62 velocity=127 time=0.03854166666666667\n",
      "note_on channel=0 note=61 velocity=127 time=0.013541666666666667\n",
      "note_off channel=0 note=62 velocity=127 time=0.007291666666666667\n",
      "note_off channel=0 note=61 velocity=127 time=0.013541666666666667\n",
      "note_on channel=0 note=62 velocity=127 time=0.03958333333333333\n",
      "note_on channel=0 note=60 velocity=127 time=0.0010416666666666667\n",
      "note_on channel=0 note=61 velocity=127 time=0.011458333333333333\n",
      "note_off channel=0 note=62 velocity=127 time=0.008333333333333333\n",
      "note_off channel=0 note=60 velocity=127 time=0.0010416666666666667\n",
      "note_off channel=0 note=61 velocity=127 time=0.011458333333333333\n",
      "note_on channel=0 note=62 velocity=127 time=0.041666666666666664\n",
      "note_on channel=0 note=61 velocity=127 time=0.010416666666666666\n",
      "note_off channel=0 note=62 velocity=127 time=0.010416666666666666\n",
      "note_off channel=0 note=61 velocity=127 time=0.010416666666666666\n",
      "note_on channel=0 note=62 velocity=127 time=0.042708333333333334\n",
      "note_on channel=0 note=61 velocity=127 time=0.008333333333333333\n",
      "note_off channel=0 note=62 velocity=127 time=0.011458333333333333\n",
      "note_off channel=0 note=61 velocity=127 time=0.008333333333333333\n",
      "note_on channel=0 note=60 velocity=127 time=0.04375\n",
      "note_on channel=0 note=62 velocity=127 time=0.0010416666666666667\n",
      "note_on channel=0 note=61 velocity=127 time=0.007291666666666667\n",
      "note_off channel=0 note=60 velocity=127 time=0.011458333333333333\n",
      "note_off channel=0 note=62 velocity=127 time=0.0010416666666666667\n",
      "note_off channel=0 note=61 velocity=127 time=0.007291666666666667\n",
      "note_on channel=0 note=62 velocity=127 time=0.04583333333333333\n",
      "note_on channel=0 note=61 velocity=127 time=0.005208333333333333\n",
      "note_off channel=0 note=62 velocity=127 time=0.014583333333333334\n",
      "note_off channel=0 note=61 velocity=127 time=0.005208333333333333\n",
      "note_on channel=0 note=62 velocity=127 time=0.04791666666666666\n",
      "note_on channel=0 note=61 velocity=127 time=0.003125\n",
      "note_off channel=0 note=62 velocity=127 time=0.016666666666666666\n",
      "note_off channel=0 note=61 velocity=127 time=0.003125\n",
      "note_on channel=0 note=60 velocity=127 time=0.04583333333333333\n",
      "note_on channel=0 note=62 velocity=127 time=0.003125\n",
      "note_on channel=0 note=61 velocity=127 time=0.0020833333333333333\n",
      "note_off channel=0 note=60 velocity=127 time=0.014583333333333334\n",
      "note_off channel=0 note=62 velocity=127 time=0.003125\n",
      "note_off channel=0 note=61 velocity=127 time=0.0020833333333333333\n",
      "note_on channel=0 note=62 velocity=127 time=0.051041666666666666\n",
      "note_on channel=0 note=61 velocity=127 time=0\n",
      "note_off channel=0 note=62 velocity=127 time=0.019791666666666666\n",
      "note_off channel=0 note=61 velocity=127 time=0\n",
      "note_on channel=0 note=61 velocity=127 time=0.051041666666666666\n",
      "note_on channel=0 note=62 velocity=127 time=0.0010416666666666667\n",
      "note_off channel=0 note=61 velocity=127 time=0.01875\n",
      "note_off channel=0 note=62 velocity=127 time=0.0010416666666666667\n",
      "note_on channel=0 note=60 velocity=127 time=0.04791666666666666\n",
      "note_on channel=0 note=61 velocity=127 time=0.0020833333333333333\n",
      "note_on channel=0 note=62 velocity=127 time=0.003125\n",
      "note_off channel=0 note=60 velocity=127 time=0.014583333333333334\n",
      "note_off channel=0 note=61 velocity=127 time=0.0020833333333333333\n",
      "note_off channel=0 note=62 velocity=127 time=0.003125\n",
      "note_on channel=0 note=61 velocity=127 time=0.04895833333333333\n",
      "note_on channel=0 note=62 velocity=127 time=0.004166666666666667\n",
      "note_off channel=0 note=61 velocity=127 time=0.015625\n",
      "note_off channel=0 note=62 velocity=127 time=0.004166666666666667\n",
      "note_on channel=0 note=61 velocity=127 time=0.046875\n",
      "note_on channel=0 note=62 velocity=127 time=0.00625\n",
      "note_off channel=0 note=61 velocity=127 time=0.013541666666666667\n",
      "note_off channel=0 note=62 velocity=127 time=0.00625\n",
      "note_on channel=0 note=61 velocity=127 time=0.04583333333333333\n",
      "note_on channel=0 note=60 velocity=127 time=0.0010416666666666667\n",
      "note_on channel=0 note=62 velocity=127 time=0.007291666666666667\n",
      "note_off channel=0 note=61 velocity=127 time=0.0125\n",
      "note_off channel=0 note=60 velocity=127 time=0.0010416666666666667\n",
      "note_off channel=0 note=62 velocity=127 time=0.007291666666666667\n",
      "note_on channel=0 note=61 velocity=127 time=0.04375\n",
      "note_on channel=0 note=62 velocity=127 time=0.009375\n",
      "note_off channel=0 note=61 velocity=127 time=0.010416666666666666\n",
      "note_off channel=0 note=62 velocity=127 time=0.009375\n",
      "note_on channel=0 note=61 velocity=127 time=0.042708333333333334\n",
      "note_on channel=0 note=62 velocity=127 time=0.010416666666666666\n",
      "note_off channel=0 note=61 velocity=127 time=0.009375\n",
      "note_off channel=0 note=62 velocity=127 time=0.010416666666666666\n",
      "note_on channel=0 note=61 velocity=127 time=0.040625\n",
      "note_on channel=0 note=60 velocity=127 time=0.004166666666666667\n",
      "note_on channel=0 note=62 velocity=127 time=0.008333333333333333\n",
      "note_off channel=0 note=61 velocity=127 time=0.007291666666666667\n",
      "note_off channel=0 note=60 velocity=127 time=0.004166666666666667\n",
      "note_off channel=0 note=62 velocity=127 time=0.008333333333333333\n",
      "note_on channel=0 note=61 velocity=127 time=0.03854166666666667\n",
      "note_on channel=0 note=62 velocity=127 time=0.013541666666666667\n",
      "note_off channel=0 note=61 velocity=127 time=0.00625\n",
      "note_off channel=0 note=62 velocity=127 time=0.013541666666666667\n",
      "note_on channel=0 note=61 velocity=127 time=0.0375\n",
      "note_on channel=0 note=62 velocity=127 time=0.015625\n",
      "note_off channel=0 note=61 velocity=127 time=0.004166666666666667\n",
      "note_off channel=0 note=62 velocity=127 time=0.015625\n",
      "\u001b[91m [DEBUG] > \u001b[0m\n",
      " |>  to_array: msg.time > max_t; t, n\n",
      " |>  1.9968750000000004\n",
      " |>  100\n",
      "note_on channel=0 note=60 velocity=127 time=0.008333333333333333\n",
      "note_on channel=0 note=62 velocity=127 time=0.017708333333333333\n",
      "note_on channel=0 note=61 velocity=127 time=0\n",
      "note_off channel=0 note=60 velocity=127 time=0.0020833333333333333\n",
      "note_off channel=0 note=62 velocity=127 time=0.017708333333333333\n",
      "note_off channel=0 note=61 velocity=127 time=0\n",
      "note_on channel=0 note=60 velocity=127 time=0.08020833333333333\n",
      "note_on channel=0 note=62 velocity=127 time=0.0020833333333333333\n",
      "note_on channel=0 note=61 velocity=127 time=0.003125\n",
      "note_off channel=0 note=60 velocity=127 time=0.014583333333333334\n",
      "note_off channel=0 note=62 velocity=127 time=0.0020833333333333333\n",
      "note_off channel=0 note=61 velocity=127 time=0.003125\n",
      "note_on channel=0 note=62 velocity=127 time=0.07916666666666666\n",
      "note_on channel=0 note=61 velocity=127 time=0.005208333333333333\n",
      "note_on channel=0 note=60 velocity=127 time=0.008333333333333333\n",
      "note_off channel=0 note=62 velocity=127 time=0.00625\n",
      "note_off channel=0 note=61 velocity=127 time=0.005208333333333333\n",
      "note_off channel=0 note=60 velocity=127 time=0.008333333333333333\n",
      "note_on channel=0 note=62 velocity=127 time=0.06875\n",
      "note_on channel=0 note=61 velocity=127 time=0.008333333333333333\n",
      "note_off channel=0 note=62 velocity=127 time=0.011458333333333333\n",
      "note_off channel=0 note=61 velocity=127 time=0.008333333333333333\n",
      "note_on channel=0 note=60 velocity=127 time=0.0010416666666666667\n",
      "note_off channel=0 note=60 velocity=127 time=0.019791666666666666\n",
      "note_on channel=0 note=62 velocity=127 time=0.053125\n",
      "note_on channel=0 note=61 velocity=127 time=0.011458333333333333\n",
      "note_off channel=0 note=62 velocity=127 time=0.009375\n",
      "note_off channel=0 note=61 velocity=127 time=0.011458333333333333\n",
      "note_on channel=0 note=60 velocity=127 time=0.013541666666666667\n",
      "note_off channel=0 note=60 velocity=127 time=0.019791666666666666\n",
      "note_on channel=0 note=62 velocity=127 time=0.0375\n",
      "note_on channel=0 note=61 velocity=127 time=0.013541666666666667\n",
      "note_off channel=0 note=62 velocity=127 time=0.00625\n",
      "note_off channel=0 note=61 velocity=127 time=0.013541666666666667\n",
      "note_on channel=0 note=60 velocity=127 time=0.027083333333333334\n",
      "note_off channel=0 note=60 velocity=127 time=0.019791666666666666\n",
      "note_on channel=0 note=62 velocity=127 time=0.021875\n",
      "note_on channel=0 note=61 velocity=127 time=0.016666666666666666\n",
      "note_off channel=0 note=62 velocity=127 time=0.003125\n",
      "note_off channel=0 note=61 velocity=127 time=0.016666666666666666\n",
      "note_on channel=0 note=60 velocity=127 time=0.03958333333333333\n",
      "note_off channel=0 note=60 velocity=127 time=0.019791666666666666\n",
      "note_on channel=0 note=62 velocity=127 time=0.00625\n",
      "note_on channel=0 note=61 velocity=127 time=0.01875\n",
      "note_off channel=0 note=62 velocity=127 time=0.0010416666666666667\n",
      "note_off channel=0 note=61 velocity=127 time=0.01875\n",
      "note_on channel=0 note=60 velocity=127 time=0.053125\n",
      "note_on channel=0 note=62 velocity=127 time=0.010416666666666666\n",
      "note_off channel=0 note=60 velocity=127 time=0.009375\n",
      "note_off channel=0 note=62 velocity=127 time=0.010416666666666666\n",
      "note_on channel=0 note=61 velocity=127 time=0.0020833333333333333\n",
      "note_off channel=0 note=61 velocity=127 time=0.019791666666666666\n",
      "note_on channel=0 note=62 velocity=127 time=0.06041666666666667\n",
      "note_on channel=0 note=60 velocity=127 time=0.005208333333333333\n",
      "note_off channel=0 note=62 velocity=127 time=0.014583333333333334\n",
      "note_on channel=0 note=61 velocity=127 time=0.004166666666666667\n",
      "note_off channel=0 note=60 velocity=127 time=0\n",
      "note_off channel=0 note=61 velocity=127 time=0.019791666666666666\n",
      "note_on channel=0 note=62 velocity=127 time=0.058333333333333334\n",
      "note_off channel=0 note=62 velocity=127 time=0.019791666666666666\n",
      "note_on channel=0 note=60 velocity=127 time=0.0010416666666666667\n",
      "note_on channel=0 note=61 velocity=127 time=0.00625\n",
      "note_off channel=0 note=60 velocity=127 time=0.013541666666666667\n",
      "note_off channel=0 note=61 velocity=127 time=0.00625\n",
      "note_on channel=0 note=62 velocity=127 time=0.05520833333333333\n",
      "note_off channel=0 note=62 velocity=127 time=0.019791666666666666\n",
      "note_on channel=0 note=61 velocity=127 time=0.010416666666666666\n",
      "note_on channel=0 note=60 velocity=127 time=0.00625\n",
      "note_off channel=0 note=61 velocity=127 time=0.013541666666666667\n",
      "note_off channel=0 note=60 velocity=127 time=0.00625\n",
      "note_on channel=0 note=62 velocity=127 time=0.04583333333333333\n",
      "note_off channel=0 note=62 velocity=127 time=0.019791666666666666\n",
      "note_on channel=0 note=61 velocity=127 time=0.0125\n",
      "note_on channel=0 note=60 velocity=127 time=0.019791666666666666\n",
      "note_off channel=0 note=61 velocity=127 time=0\n",
      "note_off channel=0 note=60 velocity=127 time=0.019791666666666666\n",
      "note_on channel=0 note=62 velocity=127 time=0.030208333333333334\n",
      "note_off channel=0 note=62 velocity=127 time=0.019791666666666666\n",
      "note_on channel=0 note=61 velocity=127 time=0.015625\n",
      "note_off channel=0 note=61 velocity=127 time=0.019791666666666666\n",
      "note_on channel=0 note=60 velocity=127 time=0.0125\n",
      "note_off channel=0 note=60 velocity=127 time=0.019791666666666666\n",
      "note_on channel=0 note=62 velocity=127 time=0.014583333333333334\n",
      "note_off channel=0 note=62 velocity=127 time=0.019791666666666666\n",
      "note_on channel=0 note=61 velocity=127 time=0.017708333333333333\n",
      "note_off channel=0 note=61 velocity=127 time=0.019791666666666666\n",
      "note_on channel=0 note=60 velocity=127 time=0.025\n",
      "note_on channel=0 note=62 velocity=127 time=0.01875\n",
      "note_off channel=0 note=60 velocity=127 time=0.0010416666666666667\n",
      "note_off channel=0 note=62 velocity=127 time=0.01875\n",
      "note_on channel=0 note=61 velocity=127 time=0.020833333333333332\n",
      "note_off channel=0 note=61 velocity=127 time=0.019791666666666666\n",
      "note_on channel=0 note=60 velocity=127 time=0.03854166666666667\n",
      "note_on channel=0 note=62 velocity=127 time=0.003125\n",
      "note_off channel=0 note=60 velocity=127 time=0.016666666666666666\n",
      "note_off channel=0 note=62 velocity=127 time=0.003125\n",
      "note_on channel=0 note=61 velocity=127 time=0.02395833333333333\n",
      "note_off channel=0 note=61 velocity=127 time=0.019791666666666666\n",
      "note_on channel=0 note=62 velocity=127 time=0.03854166666666667\n",
      "note_on channel=0 note=60 velocity=127 time=0.0125\n",
      "note_off channel=0 note=62 velocity=127 time=0.007291666666666667\n",
      "note_off channel=0 note=60 velocity=127 time=0.0125\n",
      "note_on channel=0 note=61 velocity=127 time=0.013541666666666667\n",
      "note_off channel=0 note=61 velocity=127 time=0.019791666666666666\n",
      "note_on channel=0 note=62 velocity=127 time=0.036458333333333336\n",
      "note_off channel=0 note=62 velocity=127 time=0.019791666666666666\n",
      "note_on channel=0 note=60 velocity=127 time=0.008333333333333333\n",
      "note_off channel=0 note=60 velocity=127 time=0.019791666666666666\n",
      "note_on channel=0 note=61 velocity=127 time=0.0010416666666666667\n",
      "note_off channel=0 note=61 velocity=127 time=0.019791666666666666\n",
      "note_on channel=0 note=62 velocity=127 time=0.03333333333333333\n",
      "note_off channel=0 note=62 velocity=127 time=0.019791666666666666\n",
      "note_on channel=0 note=60 velocity=127 time=0.02395833333333333\n",
      "\u001b[91m [DEBUG] > \u001b[0m\n",
      " |>  to_array: msg.time > max_t; t, n\n",
      " |>  2.009375\n",
      " |>  100\n",
      "note_on channel=0 note=61 velocity=127 time=0.020833333333333332\n",
      "note_on channel=0 note=60 velocity=127 time=0.016666666666666666\n",
      "note_off channel=0 note=61 velocity=127 time=0.003125\n",
      "note_off channel=0 note=60 velocity=127 time=0.016666666666666666\n",
      "note_on channel=0 note=62 velocity=127 time=0.016666666666666666\n",
      "note_on channel=0 note=61 velocity=127 time=0.015625\n",
      "note_off channel=0 note=62 velocity=127 time=0.005208333333333333\n",
      "note_off channel=0 note=61 velocity=127 time=0.015625\n",
      "note_on channel=0 note=60 velocity=127 time=0.014583333333333334\n",
      "note_off channel=0 note=60 velocity=127 time=0.019791666666666666\n",
      "note_on channel=0 note=61 velocity=127 time=0.013541666666666667\n",
      "note_on channel=0 note=62 velocity=127 time=0.003125\n",
      "note_off channel=0 note=61 velocity=127 time=0.016666666666666666\n",
      "note_off channel=0 note=62 velocity=127 time=0.003125\n",
      "note_on channel=0 note=60 velocity=127 time=0.029166666666666667\n",
      "note_on channel=0 note=61 velocity=127 time=0.015625\n",
      "note_off channel=0 note=60 velocity=127 time=0.004166666666666667\n",
      "note_off channel=0 note=61 velocity=127 time=0.015625\n",
      "note_on channel=0 note=62 velocity=127 time=0.0010416666666666667\n",
      "note_off channel=0 note=62 velocity=127 time=0.019791666666666666\n",
      "note_on channel=0 note=61 velocity=127 time=0.027083333333333334\n",
      "note_on channel=0 note=60 velocity=127 time=0.0020833333333333333\n",
      "note_off channel=0 note=61 velocity=127 time=0.017708333333333333\n",
      "note_off channel=0 note=60 velocity=127 time=0.0020833333333333333\n",
      "note_on channel=0 note=62 velocity=127 time=0.017708333333333333\n",
      "note_off channel=0 note=62 velocity=127 time=0.019791666666666666\n",
      "note_on channel=0 note=61 velocity=127 time=0.008333333333333333\n",
      "note_on channel=0 note=60 velocity=127 time=0.019791666666666666\n",
      "note_off channel=0 note=61 velocity=127 time=0\n",
      "note_off channel=0 note=60 velocity=127 time=0.019791666666666666\n",
      "note_on channel=0 note=62 velocity=127 time=0.01875\n",
      "note_on channel=0 note=61 velocity=127 time=0.010416666666666666\n",
      "note_off channel=0 note=62 velocity=127 time=0.009375\n",
      "note_off channel=0 note=61 velocity=127 time=0.010416666666666666\n",
      "note_on channel=0 note=60 velocity=127 time=0.017708333333333333\n",
      "note_off channel=0 note=60 velocity=127 time=0.019791666666666666\n",
      "note_on channel=0 note=61 velocity=127 time=0.011458333333333333\n",
      "note_on channel=0 note=62 velocity=127 time=0.008333333333333333\n",
      "note_off channel=0 note=61 velocity=127 time=0.0125\n",
      "note_off channel=0 note=62 velocity=127 time=0.008333333333333333\n",
      "note_on channel=0 note=60 velocity=127 time=0.027083333333333334\n",
      "note_on channel=0 note=61 velocity=127 time=0.013541666666666667\n",
      "note_off channel=0 note=60 velocity=127 time=0.007291666666666667\n",
      "note_off channel=0 note=61 velocity=127 time=0.013541666666666667\n",
      "note_on channel=0 note=62 velocity=127 time=0.00625\n",
      "note_off channel=0 note=62 velocity=127 time=0.019791666666666666\n",
      "note_on channel=0 note=61 velocity=127 time=0.021875\n",
      "note_on channel=0 note=60 velocity=127 time=0.005208333333333333\n",
      "note_off channel=0 note=61 velocity=127 time=0.015625\n",
      "note_off channel=0 note=60 velocity=127 time=0.005208333333333333\n",
      "note_on channel=0 note=62 velocity=127 time=0.019791666666666666\n",
      "note_off channel=0 note=62 velocity=127 time=0.019791666666666666\n",
      "note_on channel=0 note=61 velocity=127 time=0.004166666666666667\n",
      "note_off channel=0 note=61 velocity=127 time=0.019791666666666666\n",
      "note_on channel=0 note=60 velocity=127 time=0.003125\n",
      "note_off channel=0 note=60 velocity=127 time=0.019791666666666666\n",
      "note_on channel=0 note=62 velocity=127 time=0.019791666666666666\n",
      "note_on channel=0 note=61 velocity=127 time=0.005208333333333333\n",
      "note_off channel=0 note=62 velocity=127 time=0.014583333333333334\n",
      "note_off channel=0 note=61 velocity=127 time=0.005208333333333333\n",
      "note_on channel=0 note=60 velocity=127 time=0.020833333333333332\n",
      "note_off channel=0 note=60 velocity=127 time=0.019791666666666666\n",
      "note_on channel=0 note=61 velocity=127 time=0.008333333333333333\n",
      "note_on channel=0 note=62 velocity=127 time=0.0125\n",
      "note_off channel=0 note=61 velocity=127 time=0.007291666666666667\n",
      "note_off channel=0 note=62 velocity=127 time=0.0125\n",
      "note_on channel=0 note=60 velocity=127 time=0.026041666666666668\n",
      "note_on channel=0 note=61 velocity=127 time=0.010416666666666666\n",
      "note_off channel=0 note=60 velocity=127 time=0.010416666666666666\n",
      "note_off channel=0 note=61 velocity=127 time=0.010416666666666666\n",
      "note_on channel=0 note=62 velocity=127 time=0.011458333333333333\n",
      "note_off channel=0 note=62 velocity=127 time=0.019791666666666666\n",
      "note_on channel=0 note=61 velocity=127 time=0.017708333333333333\n",
      "note_on channel=0 note=60 velocity=127 time=0.007291666666666667\n",
      "note_off channel=0 note=61 velocity=127 time=0.0125\n",
      "note_off channel=0 note=60 velocity=127 time=0.007291666666666667\n",
      "note_on channel=0 note=62 velocity=127 time=0.021875\n",
      "note_on channel=0 note=61 velocity=127 time=0.01875\n",
      "note_off channel=0 note=62 velocity=127 time=0.0010416666666666667\n",
      "note_off channel=0 note=61 velocity=127 time=0.01875\n",
      "note_on channel=0 note=60 velocity=127 time=0.005208333333333333\n",
      "note_off channel=0 note=60 velocity=127 time=0.019791666666666666\n",
      "note_on channel=0 note=62 velocity=127 time=0.021875\n",
      "note_on channel=0 note=61 velocity=127 time=0.0010416666666666667\n",
      "note_off channel=0 note=62 velocity=127 time=0.01875\n",
      "note_off channel=0 note=61 velocity=127 time=0.0010416666666666667\n",
      "note_on channel=0 note=60 velocity=127 time=0.02395833333333333\n",
      "note_off channel=0 note=60 velocity=127 time=0.019791666666666666\n",
      "note_on channel=0 note=61 velocity=127 time=0.005208333333333333\n",
      "note_on channel=0 note=62 velocity=127 time=0.017708333333333333\n",
      "note_off channel=0 note=61 velocity=127 time=0.0020833333333333333\n",
      "note_off channel=0 note=62 velocity=127 time=0.017708333333333333\n",
      "note_on channel=0 note=60 velocity=127 time=0.02395833333333333\n",
      "note_on channel=0 note=61 velocity=127 time=0.007291666666666667\n",
      "note_off channel=0 note=60 velocity=127 time=0.0125\n",
      "note_off channel=0 note=61 velocity=127 time=0.007291666666666667\n",
      "note_on channel=0 note=62 velocity=127 time=0.015625\n",
      "note_off channel=0 note=62 velocity=127 time=0.019791666666666666\n",
      "note_on channel=0 note=61 velocity=127 time=0.0125\n",
      "note_on channel=0 note=60 velocity=127 time=0.010416666666666666\n",
      "note_off channel=0 note=61 velocity=127 time=0.009375\n",
      "note_off channel=0 note=60 velocity=127 time=0.010416666666666666\n",
      "note_on channel=0 note=62 velocity=127 time=0.022916666666666665\n",
      "note_on channel=0 note=61 velocity=127 time=0.014583333333333334\n",
      "note_off channel=0 note=62 velocity=127 time=0.005208333333333333\n",
      "note_off channel=0 note=61 velocity=127 time=0.014583333333333334\n",
      "note_on channel=0 note=60 velocity=127 time=0.008333333333333333\n",
      "note_off channel=0 note=60 velocity=127 time=0.019791666666666666\n",
      "note_on channel=0 note=61 velocity=127 time=0.019791666666666666\n",
      "note_on channel=0 note=62 velocity=127 time=0.004166666666666667\n",
      "note_off channel=0 note=61 velocity=127 time=0.015625\n",
      "note_off channel=0 note=62 velocity=127 time=0.004166666666666667\n",
      "note_on channel=0 note=60 velocity=127 time=0.022916666666666665\n",
      "note_off channel=0 note=60 velocity=127 time=0.019791666666666666\n",
      "note_on channel=0 note=61 velocity=127 time=0.0020833333333333333\n",
      "note_off channel=0 note=61 velocity=127 time=0.019791666666666666\n",
      "note_on channel=0 note=62 velocity=127 time=0.0020833333333333333\n",
      "note_off channel=0 note=62 velocity=127 time=0.019791666666666666\n",
      "note_on channel=0 note=60 velocity=127 time=0.021875\n",
      "note_on channel=0 note=61 velocity=127 time=0.004166666666666667\n",
      "note_off channel=0 note=60 velocity=127 time=0.015625\n",
      "note_off channel=0 note=61 velocity=127 time=0.004166666666666667\n",
      "note_on channel=0 note=62 velocity=127 time=0.020833333333333332\n",
      "note_off channel=0 note=62 velocity=127 time=0.019791666666666666\n",
      "note_on channel=0 note=61 velocity=127 time=0.008333333333333333\n",
      "note_on channel=0 note=60 velocity=127 time=0.013541666666666667\n",
      "note_off channel=0 note=61 velocity=127 time=0.00625\n",
      "note_off channel=0 note=60 velocity=127 time=0.013541666666666667\n",
      "note_on channel=0 note=62 velocity=127 time=0.025\n",
      "note_on channel=0 note=61 velocity=127 time=0.009375\n",
      "note_off channel=0 note=62 velocity=127 time=0.010416666666666666\n",
      "note_off channel=0 note=61 velocity=127 time=0.009375\n",
      "note_on channel=0 note=60 velocity=127 time=0.011458333333333333\n",
      "note_off channel=0 note=60 velocity=127 time=0.019791666666666666\n",
      "note_on channel=0 note=61 velocity=127 time=0.016666666666666666\n",
      "note_on channel=0 note=62 velocity=127 time=0.008333333333333333\n",
      "note_off channel=0 note=61 velocity=127 time=0.011458333333333333\n",
      "note_off channel=0 note=62 velocity=127 time=0.008333333333333333\n",
      "note_on channel=0 note=60 velocity=127 time=0.020833333333333332\n",
      "note_on channel=0 note=61 velocity=127 time=0.01875\n",
      "note_off channel=0 note=60 velocity=127 time=0.0010416666666666667\n",
      "note_off channel=0 note=61 velocity=127 time=0.01875\n",
      "note_on channel=0 note=62 velocity=127 time=0.007291666666666667\n",
      "note_off channel=0 note=62 velocity=127 time=0.019791666666666666\n",
      "note_on channel=0 note=60 velocity=127 time=0.020833333333333332\n",
      "note_on channel=0 note=61 velocity=127 time=0.0010416666666666667\n",
      "note_off channel=0 note=60 velocity=127 time=0.01875\n",
      "note_off channel=0 note=61 velocity=127 time=0.0010416666666666667\n",
      "note_on channel=0 note=62 velocity=127 time=0.025\n",
      "note_off channel=0 note=62 velocity=127 time=0.019791666666666666\n",
      "\u001b[91m [DEBUG] > \u001b[0m\n",
      " |>  to_array: msg.time > max_t; t, n\n",
      " |>  1.9999999999999996\n",
      " |>  100\n",
      "note_on channel=0 note=62 velocity=127 time=0.019791666666666666\n",
      "note_off channel=0 note=62 velocity=127 time=0.019791666666666666\n",
      "note_on channel=0 note=61 velocity=127 time=0.057291666666666664\n",
      "note_on channel=0 note=62 velocity=127 time=0.003125\n",
      "note_off channel=0 note=61 velocity=127 time=0.016666666666666666\n",
      "note_off channel=0 note=62 velocity=127 time=0.003125\n",
      "note_on channel=0 note=62 velocity=127 time=0.059375\n",
      "note_off channel=0 note=62 velocity=127 time=0.019791666666666666\n",
      "note_on channel=0 note=61 velocity=127 time=0.005208333333333333\n",
      "note_off channel=0 note=61 velocity=127 time=0.019791666666666666\n"
     ]
    },
    {
     "name": "stdout",
     "output_type": "stream",
     "text": [
      "note_on channel=0 note=62 velocity=127 time=0.034375\n",
      "note_on channel=0 note=60 velocity=127 time=0.014583333333333334\n",
      "note_off channel=0 note=62 velocity=127 time=0.005208333333333333\n",
      "note_off channel=0 note=60 velocity=127 time=0.014583333333333334\n",
      "note_on channel=0 note=61 velocity=127 time=0.019791666666666666\n",
      "note_off channel=0 note=61 velocity=127 time=0.019791666666666666\n",
      "note_on channel=0 note=62 velocity=127 time=0.00625\n",
      "note_off channel=0 note=62 velocity=127 time=0.019791666666666666\n",
      "note_on channel=0 note=62 velocity=127 time=0.059375\n",
      "note_on channel=0 note=61 velocity=127 time=0.0020833333333333333\n",
      "note_off channel=0 note=62 velocity=127 time=0.017708333333333333\n",
      "note_off channel=0 note=61 velocity=127 time=0.0020833333333333333\n",
      "note_on channel=0 note=62 velocity=127 time=0.057291666666666664\n",
      "note_off channel=0 note=62 velocity=127 time=0.019791666666666666\n",
      "note_on channel=0 note=61 velocity=127 time=0.010416666666666666\n",
      "note_off channel=0 note=61 velocity=127 time=0.019791666666666666\n",
      "note_on channel=0 note=60 velocity=127 time=0.02395833333333333\n",
      "note_on channel=0 note=62 velocity=127 time=0.005208333333333333\n",
      "note_off channel=0 note=60 velocity=127 time=0.014583333333333334\n",
      "note_off channel=0 note=62 velocity=127 time=0.005208333333333333\n",
      "note_on channel=0 note=61 velocity=127 time=0.03958333333333333\n",
      "note_off channel=0 note=61 velocity=127 time=0.019791666666666666\n",
      "note_on channel=0 note=62 velocity=127 time=0.0010416666666666667\n",
      "note_off channel=0 note=62 velocity=127 time=0.019791666666666666\n",
      "note_on channel=0 note=62 velocity=127 time=0.059375\n",
      "note_on channel=0 note=61 velocity=127 time=0.008333333333333333\n",
      "note_off channel=0 note=62 velocity=127 time=0.0125\n",
      "note_off channel=0 note=61 velocity=127 time=0.008333333333333333\n",
      "note_on channel=0 note=62 velocity=127 time=0.052083333333333336\n",
      "note_off channel=0 note=62 velocity=127 time=0.019791666666666666\n",
      "note_on channel=0 note=61 velocity=127 time=0.016666666666666666\n",
      "note_on channel=0 note=60 velocity=127 time=0.01875\n",
      "note_off channel=0 note=61 velocity=127 time=0.0010416666666666667\n",
      "note_off channel=0 note=60 velocity=127 time=0.01875\n",
      "note_on channel=0 note=62 velocity=127 time=0.004166666666666667\n",
      "note_off channel=0 note=62 velocity=127 time=0.019791666666666666\n",
      "note_on channel=0 note=61 velocity=127 time=0.04479166666666667\n",
      "note_on channel=0 note=62 velocity=127 time=0.015625\n",
      "note_off channel=0 note=61 velocity=127 time=0.005208333333333333\n",
      "note_off channel=0 note=62 velocity=127 time=0.015625\n",
      "note_on channel=0 note=62 velocity=127 time=0.059375\n",
      "note_on channel=0 note=61 velocity=127 time=0.013541666666666667\n",
      "note_off channel=0 note=62 velocity=127 time=0.007291666666666667\n",
      "note_off channel=0 note=61 velocity=127 time=0.013541666666666667\n",
      "note_on channel=0 note=62 velocity=127 time=0.046875\n",
      "note_off channel=0 note=62 velocity=127 time=0.019791666666666666\n",
      "note_on channel=0 note=60 velocity=127 time=0.015625\n",
      "note_on channel=0 note=61 velocity=127 time=0.005208333333333333\n",
      "note_off channel=0 note=60 velocity=127 time=0.014583333333333334\n",
      "note_off channel=0 note=61 velocity=127 time=0.005208333333333333\n",
      "note_on channel=0 note=62 velocity=127 time=0.01875\n",
      "note_off channel=0 note=62 velocity=127 time=0.019791666666666666\n",
      "note_on channel=0 note=61 velocity=127 time=0.05\n",
      "note_on channel=0 note=62 velocity=127 time=0.009375\n",
      "note_off channel=0 note=61 velocity=127 time=0.010416666666666666\n",
      "note_off channel=0 note=62 velocity=127 time=0.009375\n",
      "note_on channel=0 note=62 velocity=127 time=0.059375\n",
      "note_on channel=0 note=61 velocity=127 time=0.01875\n",
      "note_off channel=0 note=62 velocity=127 time=0.0010416666666666667\n",
      "note_off channel=0 note=61 velocity=127 time=0.01875\n",
      "note_on channel=0 note=62 velocity=127 time=0.041666666666666664\n",
      "note_on channel=0 note=60 velocity=127 time=0.016666666666666666\n",
      "note_off channel=0 note=62 velocity=127 time=0.003125\n",
      "note_off channel=0 note=60 velocity=127 time=0.016666666666666666\n",
      "note_on channel=0 note=61 velocity=127 time=0.010416666666666666\n",
      "note_off channel=0 note=61 velocity=127 time=0.019791666666666666\n",
      "note_on channel=0 note=62 velocity=127 time=0.0125\n",
      "note_off channel=0 note=62 velocity=127 time=0.019791666666666666\n",
      "note_on channel=0 note=61 velocity=127 time=0.05520833333333333\n",
      "note_on channel=0 note=62 velocity=127 time=0.004166666666666667\n",
      "note_off channel=0 note=61 velocity=127 time=0.015625\n",
      "note_off channel=0 note=62 velocity=127 time=0.004166666666666667\n",
      "note_on channel=0 note=62 velocity=127 time=0.059375\n",
      "note_off channel=0 note=62 velocity=127 time=0.019791666666666666\n",
      "note_on channel=0 note=61 velocity=127 time=0.004166666666666667\n",
      "note_off channel=0 note=61 velocity=127 time=0.019791666666666666\n",
      "note_on channel=0 note=60 velocity=127 time=0.03333333333333333\n",
      "note_on channel=0 note=62 velocity=127 time=0.003125\n",
      "note_off channel=0 note=60 velocity=127 time=0.016666666666666666\n",
      "note_off channel=0 note=62 velocity=127 time=0.003125\n",
      "note_on channel=0 note=61 velocity=127 time=0.03229166666666666\n",
      "note_off channel=0 note=61 velocity=127 time=0.019791666666666666\n",
      "note_on channel=0 note=62 velocity=127 time=0.007291666666666667\n",
      "note_off channel=0 note=62 velocity=127 time=0.019791666666666666\n",
      "note_on channel=0 note=62 velocity=127 time=0.059375\n",
      "note_on channel=0 note=61 velocity=127 time=0.0010416666666666667\n",
      "note_off channel=0 note=62 velocity=127 time=0.01875\n",
      "note_off channel=0 note=61 velocity=127 time=0.0010416666666666667\n",
      "note_on channel=0 note=62 velocity=127 time=0.059375\n",
      "\u001b[91m [DEBUG] > \u001b[0m\n",
      " |>  to_array: msg.time > max_t; t, n\n",
      " |>  2.0114583333333327\n",
      " |>  100\n",
      "note_on channel=0 note=60 velocity=127 time=0.04791666666666666\n",
      "note_on channel=0 note=62 velocity=127 time=0.007291666666666667\n",
      "note_off channel=0 note=60 velocity=127 time=0.0125\n",
      "note_off channel=0 note=62 velocity=127 time=0.007291666666666667\n",
      "note_on channel=0 note=60 velocity=127 time=0.0875\n",
      "note_off channel=0 note=60 velocity=127 time=0.019791666666666666\n",
      "note_on channel=0 note=61 velocity=127 time=0.026041666666666668\n",
      "note_off channel=0 note=61 velocity=127 time=0.019791666666666666\n",
      "note_on channel=0 note=60 velocity=127 time=0.04791666666666666\n",
      "note_off channel=0 note=60 velocity=127 time=0.019791666666666666\n",
      "note_on channel=0 note=62 velocity=127 time=0.05520833333333333\n",
      "note_off channel=0 note=62 velocity=127 time=0.019791666666666666\n",
      "note_on channel=0 note=60 velocity=127 time=0.019791666666666666\n",
      "note_off channel=0 note=60 velocity=127 time=0.019791666666666666\n",
      "note_on channel=0 note=61 velocity=127 time=0.007291666666666667\n",
      "note_off channel=0 note=61 velocity=127 time=0.019791666666666666\n",
      "note_on channel=0 note=60 velocity=127 time=0.06666666666666667\n",
      "note_off channel=0 note=60 velocity=127 time=0.019791666666666666\n",
      "note_on channel=0 note=60 velocity=127 time=0.09479166666666666\n",
      "note_on channel=0 note=61 velocity=127 time=0.009375\n",
      "note_off channel=0 note=60 velocity=127 time=0.010416666666666666\n",
      "note_on channel=0 note=62 velocity=127 time=0.008333333333333333\n",
      "note_off channel=0 note=61 velocity=127 time=0.0010416666666666667\n",
      "note_off channel=0 note=62 velocity=127 time=0.01875\n",
      "note_on channel=0 note=60 velocity=127 time=0.065625\n",
      "note_off channel=0 note=60 velocity=127 time=0.019791666666666666\n",
      "note_on channel=0 note=61 velocity=127 time=0.08541666666666667\n",
      "note_on channel=0 note=60 velocity=127 time=0.009375\n",
      "note_off channel=0 note=61 velocity=127 time=0.010416666666666666\n",
      "note_off channel=0 note=60 velocity=127 time=0.009375\n",
      "note_on channel=0 note=62 velocity=127 time=0.07604166666666666\n",
      "note_on channel=0 note=60 velocity=127 time=0.017708333333333333\n",
      "note_off channel=0 note=62 velocity=127 time=0.0020833333333333333\n",
      "note_off channel=0 note=60 velocity=127 time=0.017708333333333333\n",
      "note_on channel=0 note=61 velocity=127 time=0.06666666666666667\n",
      "note_off channel=0 note=61 velocity=127 time=0.019791666666666666\n",
      "note_on channel=0 note=60 velocity=127 time=0.008333333333333333\n",
      "note_off channel=0 note=60 velocity=127 time=0.019791666666666666\n",
      "note_on channel=0 note=60 velocity=127 time=0.09479166666666666\n",
      "note_off channel=0 note=60 velocity=127 time=0.019791666666666666\n",
      "note_on channel=0 note=62 velocity=127 time=0.029166666666666667\n",
      "note_on channel=0 note=61 velocity=127 time=0.017708333333333333\n",
      "note_off channel=0 note=62 velocity=127 time=0.0020833333333333333\n",
      "note_off channel=0 note=61 velocity=127 time=0.017708333333333333\n",
      "note_on channel=0 note=60 velocity=127 time=0.027083333333333334\n",
      "note_off channel=0 note=60 velocity=127 time=0.019791666666666666\n",
      "note_on channel=0 note=60 velocity=127 time=0.09479166666666666\n",
      "note_off channel=0 note=60 velocity=127 time=0.019791666666666666\n",
      "note_on channel=0 note=61 velocity=127 time=0.029166666666666667\n",
      "note_off channel=0 note=61 velocity=127 time=0.019791666666666666\n",
      "note_on channel=0 note=60 velocity=127 time=0.04479166666666667\n",
      "note_on channel=0 note=62 velocity=127 time=0.003125\n",
      "note_off channel=0 note=60 velocity=127 time=0.016666666666666666\n",
      "note_off channel=0 note=62 velocity=127 time=0.003125\n",
      "note_on channel=0 note=60 velocity=127 time=0.09166666666666666\n",
      "note_off channel=0 note=60 velocity=127 time=0.019791666666666666\n",
      "note_on channel=0 note=61 velocity=127 time=0.010416666666666666\n",
      "note_off channel=0 note=61 velocity=127 time=0.019791666666666666\n",
      "note_on channel=0 note=60 velocity=127 time=0.06354166666666666\n",
      "note_off channel=0 note=60 velocity=127 time=0.019791666666666666\n",
      "note_on channel=0 note=62 velocity=127 time=0.051041666666666666\n",
      "note_off channel=0 note=62 velocity=127 time=0.019791666666666666\n",
      "note_on channel=0 note=60 velocity=127 time=0.022916666666666665\n",
      "note_on channel=0 note=61 velocity=127 time=0.011458333333333333\n",
      "note_off channel=0 note=60 velocity=127 time=0.008333333333333333\n",
      "note_off channel=0 note=61 velocity=127 time=0.011458333333333333\n",
      "note_on channel=0 note=60 velocity=127 time=0.08229166666666667\n",
      "note_off channel=0 note=60 velocity=127 time=0.019791666666666666\n",
      "\u001b[91m [DEBUG] > \u001b[0m\n",
      " |>  to_array: msg.time > max_t; t, n\n",
      " |>  2.0062499999999996\n",
      " |>  100\n",
      "note_on channel=0 note=60 velocity=127 time=0.009375\n",
      "note_off channel=0 note=60 velocity=127 time=0.019791666666666666\n",
      "note_on channel=0 note=62 velocity=127 time=0.03229166666666666\n",
      "note_on channel=0 note=61 velocity=127 time=0.011458333333333333\n",
      "note_off channel=0 note=62 velocity=127 time=0.008333333333333333\n",
      "note_off channel=0 note=61 velocity=127 time=0.011458333333333333\n",
      "note_on channel=0 note=60 velocity=127 time=0.022916666666666665\n",
      "note_on channel=0 note=62 velocity=127 time=0.0125\n",
      "note_off channel=0 note=60 velocity=127 time=0.007291666666666667\n",
      "note_off channel=0 note=62 velocity=127 time=0.0125\n",
      "note_on channel=0 note=61 velocity=127 time=0.008333333333333333\n",
      "note_off channel=0 note=61 velocity=127 time=0.019791666666666666\n",
      "note_on channel=0 note=62 velocity=127 time=0.017708333333333333\n",
      "note_off channel=0 note=62 velocity=127 time=0.019791666666666666\n",
      "note_on channel=0 note=60 velocity=127 time=0.00625\n",
      "note_on channel=0 note=61 velocity=127 time=0.019791666666666666\n",
      "note_off channel=0 note=60 velocity=127 time=0.0010416666666666667\n",
      "note_off channel=0 note=61 velocity=127 time=0.019791666666666666\n",
      "note_on channel=0 note=62 velocity=127 time=0.0010416666666666667\n",
      "note_off channel=0 note=62 velocity=127 time=0.019791666666666666\n",
      "note_on channel=0 note=61 velocity=127 time=0.04375\n",
      "note_on channel=0 note=60 velocity=127 time=0.003125\n",
      "note_on channel=0 note=62 velocity=127 time=0.0010416666666666667\n",
      "note_off channel=0 note=61 velocity=127 time=0.016666666666666666\n",
      "note_off channel=0 note=60 velocity=127 time=0.003125\n",
      "note_off channel=0 note=62 velocity=127 time=0.0010416666666666667\n",
      "note_on channel=0 note=62 velocity=127 time=0.046875\n",
      "note_on channel=0 note=61 velocity=127 time=0.013541666666666667\n",
      "note_off channel=0 note=62 velocity=127 time=0.00625\n",
      "note_off channel=0 note=61 velocity=127 time=0.013541666666666667\n",
      "note_on channel=0 note=60 velocity=127 time=0.004166666666666667\n",
      "note_off channel=0 note=60 velocity=127 time=0.019791666666666666\n",
      "note_on channel=0 note=62 velocity=127 time=0.008333333333333333\n",
      "note_off channel=0 note=62 velocity=127 time=0.019791666666666666\n",
      "note_on channel=0 note=61 velocity=127 time=0.011458333333333333\n",
      "note_off channel=0 note=61 velocity=127 time=0.019791666666666666\n",
      "note_on channel=0 note=62 velocity=127 time=0.015625\n",
      "note_on channel=0 note=60 velocity=127 time=0.011458333333333333\n",
      "note_off channel=0 note=62 velocity=127 time=0.009375\n",
      "note_off channel=0 note=60 velocity=127 time=0.011458333333333333\n",
      "note_on channel=0 note=61 velocity=127 time=0.017708333333333333\n",
      "note_on channel=0 note=62 velocity=127 time=0.01875\n",
      "note_off channel=0 note=61 velocity=127 time=0.0020833333333333333\n",
      "note_off channel=0 note=62 velocity=127 time=0.01875\n",
      "note_on channel=0 note=60 velocity=127 time=0.030208333333333334\n",
      "note_on channel=0 note=61 velocity=127 time=0.015625\n",
      "note_on channel=0 note=62 velocity=127 time=0.0010416666666666667\n",
      "note_off channel=0 note=60 velocity=127 time=0.004166666666666667\n",
      "note_off channel=0 note=61 velocity=127 time=0.015625\n",
      "note_off channel=0 note=62 velocity=127 time=0.0010416666666666667\n",
      "note_on channel=0 note=62 velocity=127 time=0.046875\n",
      "note_on channel=0 note=61 velocity=127 time=0.015625\n",
      "note_off channel=0 note=62 velocity=127 time=0.004166666666666667\n",
      "note_on channel=0 note=60 velocity=127 time=0.003125\n",
      "note_off channel=0 note=61 velocity=127 time=0.013541666666666667\n",
      "note_off channel=0 note=60 velocity=127 time=0.007291666666666667\n",
      "note_on channel=0 note=62 velocity=127 time=0.02395833333333333\n",
      "note_off channel=0 note=62 velocity=127 time=0.019791666666666666\n",
      "note_on channel=0 note=61 velocity=127 time=0.013541666666666667\n",
      "note_off channel=0 note=61 velocity=127 time=0.019791666666666666\n",
      "note_on channel=0 note=60 velocity=127 time=0.009375\n",
      "note_on channel=0 note=62 velocity=127 time=0.004166666666666667\n",
      "note_off channel=0 note=60 velocity=127 time=0.015625\n",
      "note_off channel=0 note=62 velocity=127 time=0.004166666666666667\n",
      "note_on channel=0 note=61 velocity=127 time=0.030208333333333334\n",
      "note_on channel=0 note=62 velocity=127 time=0.016666666666666666\n",
      "note_off channel=0 note=61 velocity=127 time=0.004166666666666667\n",
      "note_off channel=0 note=62 velocity=127 time=0.016666666666666666\n",
      "note_on channel=0 note=60 velocity=127 time=0.014583333333333334\n",
      "note_off channel=0 note=60 velocity=127 time=0.019791666666666666\n",
      "note_on channel=0 note=62 velocity=127 time=0.011458333333333333\n",
      "note_on channel=0 note=61 velocity=127 time=0.0010416666666666667\n",
      "note_off channel=0 note=62 velocity=127 time=0.01875\n",
      "note_off channel=0 note=61 velocity=127 time=0.0010416666666666667\n",
      "note_on channel=0 note=62 velocity=127 time=0.04583333333333333\n",
      "note_on channel=0 note=60 velocity=127 time=0.007291666666666667\n",
      "note_on channel=0 note=61 velocity=127 time=0.010416666666666666\n",
      "note_off channel=0 note=62 velocity=127 time=0.0020833333333333333\n",
      "note_off channel=0 note=60 velocity=127 time=0.007291666666666667\n",
      "note_off channel=0 note=61 velocity=127 time=0.010416666666666666\n",
      "note_on channel=0 note=62 velocity=127 time=0.028125\n",
      "note_off channel=0 note=62 velocity=127 time=0.019791666666666666\n",
      "note_on channel=0 note=61 velocity=127 time=0.015625\n",
      "note_on channel=0 note=60 velocity=127 time=0.011458333333333333\n",
      "note_off channel=0 note=61 velocity=127 time=0.009375\n",
      "note_off channel=0 note=60 velocity=127 time=0.011458333333333333\n",
      "note_on channel=0 note=62 velocity=127 time=0\n",
      "note_off channel=0 note=62 velocity=127 time=0.019791666666666666\n",
      "note_on channel=0 note=61 velocity=127 time=0.03229166666666666\n",
      "note_on channel=0 note=62 velocity=127 time=0.013541666666666667\n",
      "note_off channel=0 note=61 velocity=127 time=0.00625\n",
      "note_on channel=0 note=60 velocity=127 time=0.013541666666666667\n",
      "note_off channel=0 note=62 velocity=127 time=0.0010416666666666667\n",
      "note_off channel=0 note=60 velocity=127 time=0.01875\n",
      "note_on channel=0 note=62 velocity=127 time=0.027083333333333334\n",
      "note_on channel=0 note=61 velocity=127 time=0.003125\n",
      "note_off channel=0 note=62 velocity=127 time=0.016666666666666666\n",
      "note_off channel=0 note=61 velocity=127 time=0.003125\n",
      "note_on channel=0 note=60 velocity=127 time=0.035416666666666666\n",
      "note_on channel=0 note=62 velocity=127 time=0.008333333333333333\n",
      "note_off channel=0 note=60 velocity=127 time=0.011458333333333333\n",
      "note_off channel=0 note=62 velocity=127 time=0.008333333333333333\n",
      "note_on channel=0 note=61 velocity=127 time=0\n",
      "note_off channel=0 note=61 velocity=127 time=0.019791666666666666\n",
      "note_on channel=0 note=62 velocity=127 time=0.026041666666666668\n",
      "note_off channel=0 note=62 velocity=127 time=0.019791666666666666\n",
      "note_on channel=0 note=60 velocity=127 time=0.011458333333333333\n",
      "note_on channel=0 note=61 velocity=127 time=0.00625\n",
      "note_off channel=0 note=60 velocity=127 time=0.013541666666666667\n",
      "note_off channel=0 note=61 velocity=127 time=0.00625\n",
      "note_on channel=0 note=62 velocity=127 time=0.009375\n",
      "note_off channel=0 note=62 velocity=127 time=0.019791666666666666\n",
      "note_on channel=0 note=61 velocity=127 time=0.035416666666666666\n",
      "note_on channel=0 note=62 velocity=127 time=0.011458333333333333\n",
      "note_on channel=0 note=60 velocity=127 time=0.004166666666666667\n",
      "note_off channel=0 note=61 velocity=127 time=0.004166666666666667\n",
      "note_off channel=0 note=62 velocity=127 time=0.011458333333333333\n",
      "note_off channel=0 note=60 velocity=127 time=0.004166666666666667\n",
      "note_on channel=0 note=62 velocity=127 time=0.042708333333333334\n",
      "note_on channel=0 note=61 velocity=127 time=0.005208333333333333\n",
      "note_off channel=0 note=62 velocity=127 time=0.014583333333333334\n",
      "note_off channel=0 note=61 velocity=127 time=0.005208333333333333\n",
      "note_on channel=0 note=60 velocity=127 time=0.017708333333333333\n",
      "note_off channel=0 note=60 velocity=127 time=0.019791666666666666\n",
      "note_on channel=0 note=62 velocity=127 time=0.004166666666666667\n",
      "note_off channel=0 note=62 velocity=127 time=0.019791666666666666\n",
      "note_on channel=0 note=61 velocity=127 time=0.003125\n",
      "note_off channel=0 note=61 velocity=127 time=0.019791666666666666\n",
      "note_on channel=0 note=62 velocity=127 time=0.02395833333333333\n",
      "note_on channel=0 note=60 velocity=127 time=0.015625\n",
      "note_off channel=0 note=62 velocity=127 time=0.004166666666666667\n",
      "note_off channel=0 note=60 velocity=127 time=0.015625\n",
      "note_on channel=0 note=61 velocity=127 time=0.004166666666666667\n",
      "note_off channel=0 note=61 velocity=127 time=0.019791666666666666\n",
      "note_on channel=0 note=62 velocity=127 time=0.00625\n",
      "note_off channel=0 note=62 velocity=127 time=0.019791666666666666\n",
      "note_on channel=0 note=60 velocity=127 time=0.034375\n",
      "note_on channel=0 note=61 velocity=127 time=0.0020833333333333333\n",
      "note_on channel=0 note=62 velocity=127 time=0.009375\n",
      "note_off channel=0 note=60 velocity=127 time=0.008333333333333333\n",
      "note_off channel=0 note=61 velocity=127 time=0.0020833333333333333\n",
      "note_off channel=0 note=62 velocity=127 time=0.009375\n",
      "note_on channel=0 note=62 velocity=127 time=0.046875\n",
      "\u001b[91m [DEBUG] > \u001b[0m\n",
      " |>  to_array: msg.time > max_t; t, n\n",
      " |>  1.996875\n",
      " |>  100\n",
      "note_on channel=0 note=61 velocity=127 time=0.030208333333333334\n",
      "note_off channel=0 note=61 velocity=127 time=0.019791666666666666\n",
      "note_on channel=0 note=62 velocity=127 time=0.022916666666666665\n",
      "note_off channel=0 note=62 velocity=127 time=0.019791666666666666\n",
      "note_on channel=0 note=61 velocity=127 time=0.028125\n",
      "note_on channel=0 note=60 velocity=127 time=0.01875\n",
      "note_off channel=0 note=61 velocity=127 time=0.0010416666666666667\n",
      "note_on channel=0 note=62 velocity=127 time=0.005208333333333333\n",
      "note_off channel=0 note=60 velocity=127 time=0.013541666666666667\n",
      "note_off channel=0 note=62 velocity=127 time=0.00625\n",
      "note_on channel=0 note=61 velocity=127 time=0.04479166666666667\n",
      "note_on channel=0 note=62 velocity=127 time=0.008333333333333333\n",
      "note_off channel=0 note=61 velocity=127 time=0.011458333333333333\n",
      "note_off channel=0 note=62 velocity=127 time=0.008333333333333333\n",
      "note_on channel=0 note=62 velocity=127 time=0.053125\n",
      "note_on channel=0 note=61 velocity=127 time=0.008333333333333333\n",
      "note_on channel=0 note=60 velocity=127 time=0.0010416666666666667\n",
      "note_off channel=0 note=62 velocity=127 time=0.010416666666666666\n",
      "note_off channel=0 note=61 velocity=127 time=0.008333333333333333\n",
      "note_off channel=0 note=60 velocity=127 time=0.0010416666666666667\n",
      "note_on channel=0 note=62 velocity=127 time=0.04375\n",
      "note_off channel=0 note=62 velocity=127 time=0.019791666666666666\n",
      "note_on channel=0 note=61 velocity=127 time=0.005208333333333333\n",
      "note_off channel=0 note=61 velocity=127 time=0.019791666666666666\n",
      "note_on channel=0 note=62 velocity=127 time=0.028125\n",
      "note_off channel=0 note=62 velocity=127 time=0.019791666666666666\n",
      "note_on channel=0 note=60 velocity=127 time=0.00625\n",
      "note_on channel=0 note=61 velocity=127 time=0.016666666666666666\n",
      "note_off channel=0 note=60 velocity=127 time=0.003125\n",
      "note_off channel=0 note=61 velocity=127 time=0.016666666666666666\n",
      "note_on channel=0 note=62 velocity=127 time=0.010416666666666666\n",
      "note_off channel=0 note=62 velocity=127 time=0.019791666666666666\n",
      "note_on channel=0 note=61 velocity=127 time=0.03958333333333333\n",
      "note_on channel=0 note=62 velocity=127 time=0.013541666666666667\n",
      "note_off channel=0 note=61 velocity=127 time=0.00625\n",
      "note_off channel=0 note=62 velocity=127 time=0.013541666666666667\n",
      "note_on channel=0 note=60 velocity=127 time=0.021875\n",
      "note_off channel=0 note=60 velocity=127 time=0.019791666666666666\n",
      "note_on channel=0 note=62 velocity=127 time=0.011458333333333333\n",
      "note_on channel=0 note=61 velocity=127 time=0.003125\n",
      "note_off channel=0 note=62 velocity=127 time=0.016666666666666666\n",
      "note_off channel=0 note=61 velocity=127 time=0.003125\n",
      "note_on channel=0 note=62 velocity=127 time=0.05\n",
      "note_off channel=0 note=62 velocity=127 time=0.019791666666666666\n",
      "note_on channel=0 note=61 velocity=127 time=0\n",
      "note_off channel=0 note=61 velocity=127 time=0.019791666666666666\n",
      "note_on channel=0 note=60 velocity=127 time=0.017708333333333333\n",
      "note_on channel=0 note=62 velocity=127 time=0.015625\n",
      "note_off channel=0 note=60 velocity=127 time=0.004166666666666667\n",
      "note_off channel=0 note=62 velocity=127 time=0.015625\n",
      "note_on channel=0 note=61 velocity=127 time=0.017708333333333333\n",
      "note_off channel=0 note=61 velocity=127 time=0.019791666666666666\n",
      "note_on channel=0 note=62 velocity=127 time=0.015625\n",
      "note_off channel=0 note=62 velocity=127 time=0.019791666666666666\n",
      "note_on channel=0 note=61 velocity=127 time=0.034375\n",
      "note_on channel=0 note=62 velocity=127 time=0.01875\n",
      "note_on channel=0 note=60 velocity=127 time=0.0010416666666666667\n",
      "note_off channel=0 note=61 velocity=127 time=0\n",
      "note_off channel=0 note=62 velocity=127 time=0.01875\n",
      "note_off channel=0 note=60 velocity=127 time=0.0010416666666666667\n",
      "note_on channel=0 note=61 velocity=127 time=0.051041666666666666\n",
      "note_on channel=0 note=62 velocity=127 time=0.0020833333333333333\n",
      "note_off channel=0 note=61 velocity=127 time=0.017708333333333333\n",
      "note_off channel=0 note=62 velocity=127 time=0.0020833333333333333\n",
      "note_on channel=0 note=62 velocity=127 time=0.053125\n",
      "note_on channel=0 note=61 velocity=127 time=0.014583333333333334\n",
      "note_on channel=0 note=60 velocity=127 time=0.0020833333333333333\n",
      "note_off channel=0 note=62 velocity=127 time=0.003125\n",
      "note_off channel=0 note=61 velocity=127 time=0.014583333333333334\n",
      "note_off channel=0 note=60 velocity=127 time=0.0020833333333333333\n",
      "note_on channel=0 note=62 velocity=127 time=0.036458333333333336\n",
      "note_off channel=0 note=62 velocity=127 time=0.019791666666666666\n",
      "note_on channel=0 note=61 velocity=127 time=0.0125\n",
      "note_off channel=0 note=61 velocity=127 time=0.019791666666666666\n",
      "note_on channel=0 note=62 velocity=127 time=0.020833333333333332\n",
      "note_off channel=0 note=62 velocity=127 time=0.019791666666666666\n",
      "note_on channel=0 note=60 velocity=127 time=0.0125\n",
      "note_on channel=0 note=61 velocity=127 time=0.015625\n",
      "note_off channel=0 note=60 velocity=127 time=0.004166666666666667\n",
      "note_off channel=0 note=61 velocity=127 time=0.015625\n",
      "note_on channel=0 note=62 velocity=127 time=0.004166666666666667\n",
      "note_off channel=0 note=62 velocity=127 time=0.019791666666666666\n",
      "note_on channel=0 note=61 velocity=127 time=0.04583333333333333\n",
      "note_on channel=0 note=62 velocity=127 time=0.007291666666666667\n",
      "note_off channel=0 note=61 velocity=127 time=0.0125\n",
      "note_off channel=0 note=62 velocity=127 time=0.007291666666666667\n",
      "note_on channel=0 note=60 velocity=127 time=0.029166666666666667\n",
      "note_off channel=0 note=60 velocity=127 time=0.019791666666666666\n",
      "note_on channel=0 note=62 velocity=127 time=0.004166666666666667\n",
      "note_on channel=0 note=61 velocity=127 time=0.009375\n",
      "note_off channel=0 note=62 velocity=127 time=0.010416666666666666\n",
      "note_off channel=0 note=61 velocity=127 time=0.009375\n",
      "note_on channel=0 note=62 velocity=127 time=0.04375\n",
      "note_off channel=0 note=62 velocity=127 time=0.019791666666666666\n",
      "note_on channel=0 note=61 velocity=127 time=0.00625\n",
      "note_off channel=0 note=61 velocity=127 time=0.019791666666666666\n",
      "note_on channel=0 note=60 velocity=127 time=0.01875\n",
      "note_on channel=0 note=62 velocity=127 time=0.008333333333333333\n",
      "note_off channel=0 note=60 velocity=127 time=0.011458333333333333\n",
      "note_off channel=0 note=62 velocity=127 time=0.008333333333333333\n",
      "note_on channel=0 note=61 velocity=127 time=0.02395833333333333\n",
      "note_off channel=0 note=61 velocity=127 time=0.019791666666666666\n",
      "note_on channel=0 note=62 velocity=127 time=0.009375\n",
      "note_off channel=0 note=62 velocity=127 time=0.019791666666666666\n",
      "note_on channel=0 note=61 velocity=127 time=0.040625\n",
      "note_on channel=0 note=62 velocity=127 time=0.0125\n",
      "note_off channel=0 note=61 velocity=127 time=0.007291666666666667\n",
      "note_on channel=0 note=60 velocity=127 time=0\n",
      "note_off channel=0 note=62 velocity=127 time=0.0125\n",
      "note_off channel=0 note=60 velocity=127 time=0.007291666666666667\n",
      "note_on channel=0 note=62 velocity=127 time=0.04583333333333333\n",
      "note_on channel=0 note=61 velocity=127 time=0.004166666666666667\n",
      "note_off channel=0 note=62 velocity=127 time=0.015625\n",
      "note_off channel=0 note=61 velocity=127 time=0.004166666666666667\n",
      "note_on channel=0 note=62 velocity=127 time=0.04895833333333333\n",
      "note_off channel=0 note=62 velocity=127 time=0.019791666666666666\n",
      "note_on channel=0 note=61 velocity=127 time=0.0010416666666666667\n",
      "note_on channel=0 note=60 velocity=127 time=0.0020833333333333333\n",
      "note_off channel=0 note=61 velocity=127 time=0.017708333333333333\n",
      "note_off channel=0 note=60 velocity=127 time=0.0020833333333333333\n",
      "note_on channel=0 note=62 velocity=127 time=0.029166666666666667\n",
      "note_off channel=0 note=62 velocity=127 time=0.019791666666666666\n",
      "note_on channel=0 note=61 velocity=127 time=0.01875\n",
      "\u001b[91m [DEBUG] > \u001b[0m\n",
      " |>  to_array: msg.time > max_t; t, n\n",
      " |>  2.0062500000000005\n",
      " |>  100\n"
     ]
    },
    {
     "name": "stdout",
     "output_type": "stream",
     "text": [
      "note_on channel=0 note=62 velocity=127 time=0.005208333333333333\n",
      "note_on channel=0 note=61 velocity=127 time=0.008333333333333333\n",
      "note_off channel=0 note=62 velocity=127 time=0.0125\n",
      "note_off channel=0 note=61 velocity=127 time=0.008333333333333333\n",
      "note_on channel=0 note=60 velocity=127 time=0.028125\n",
      "note_off channel=0 note=60 velocity=127 time=0.019791666666666666\n",
      "note_on channel=0 note=61 velocity=127 time=0.004166666666666667\n",
      "note_off channel=0 note=61 velocity=127 time=0.019791666666666666\n",
      "note_on channel=0 note=61 velocity=127 time=0.051041666666666666\n",
      "note_on channel=0 note=60 velocity=127 time=0.0010416666666666667\n",
      "note_on channel=0 note=62 velocity=127 time=0.013541666666666667\n",
      "note_off channel=0 note=61 velocity=127 time=0.00625\n",
      "note_off channel=0 note=60 velocity=127 time=0.0010416666666666667\n",
      "note_off channel=0 note=62 velocity=127 time=0.013541666666666667\n",
      "note_on channel=0 note=61 velocity=127 time=0.0375\n",
      "note_off channel=0 note=61 velocity=127 time=0.019791666666666666\n",
      "note_on channel=0 note=60 velocity=127 time=0.005208333333333333\n",
      "note_off channel=0 note=60 velocity=127 time=0.019791666666666666\n",
      "note_on channel=0 note=61 velocity=127 time=0.026041666666666668\n",
      "note_off channel=0 note=61 velocity=127 time=0.019791666666666666\n",
      "note_on channel=0 note=62 velocity=127 time=0.015625\n",
      "note_on channel=0 note=60 velocity=127 time=0.013541666666666667\n",
      "note_off channel=0 note=62 velocity=127 time=0.00625\n",
      "note_off channel=0 note=60 velocity=127 time=0.013541666666666667\n",
      "note_on channel=0 note=61 velocity=127 time=0.0020833333333333333\n",
      "note_off channel=0 note=61 velocity=127 time=0.019791666666666666\n",
      "note_on channel=0 note=61 velocity=127 time=0.051041666666666666\n",
      "note_on channel=0 note=60 velocity=127 time=0.003125\n",
      "note_off channel=0 note=61 velocity=127 time=0.016666666666666666\n",
      "note_off channel=0 note=60 velocity=127 time=0.003125\n",
      "note_on channel=0 note=62 velocity=127 time=0.034375\n",
      "note_on channel=0 note=61 velocity=127 time=0.013541666666666667\n",
      "note_off channel=0 note=62 velocity=127 time=0.00625\n",
      "note_off channel=0 note=61 velocity=127 time=0.013541666666666667\n",
      "note_on channel=0 note=60 velocity=127 time=0.007291666666666667\n",
      "note_off channel=0 note=60 velocity=127 time=0.019791666666666666\n",
      "note_on channel=0 note=61 velocity=127 time=0.02395833333333333\n",
      "note_off channel=0 note=61 velocity=127 time=0.019791666666666666\n",
      "note_on channel=0 note=60 velocity=127 time=0.03229166666666666\n",
      "note_on channel=0 note=61 velocity=127 time=0.019791666666666666\n",
      "note_off channel=0 note=60 velocity=127 time=0\n",
      "note_on channel=0 note=62 velocity=127 time=0.007291666666666667\n",
      "note_off channel=0 note=61 velocity=127 time=0.0125\n",
      "note_off channel=0 note=62 velocity=127 time=0.008333333333333333\n",
      "note_on channel=0 note=61 velocity=127 time=0.04375\n",
      "note_on channel=0 note=60 velocity=127 time=0.005208333333333333\n",
      "note_off channel=0 note=61 velocity=127 time=0.014583333333333334\n",
      "note_off channel=0 note=60 velocity=127 time=0.005208333333333333\n",
      "note_on channel=0 note=61 velocity=127 time=0.046875\n",
      "note_off channel=0 note=61 velocity=127 time=0.019791666666666666\n",
      "note_on channel=0 note=60 velocity=127 time=0.009375\n",
      "note_on channel=0 note=62 velocity=127 time=0\n",
      "note_off channel=0 note=60 velocity=127 time=0.019791666666666666\n",
      "note_off channel=0 note=62 velocity=127 time=0\n",
      "note_on channel=0 note=61 velocity=127 time=0.021875\n",
      "note_off channel=0 note=61 velocity=127 time=0.019791666666666666\n",
      "note_on channel=0 note=60 velocity=127 time=0.034375\n",
      "note_on channel=0 note=61 velocity=127 time=0.017708333333333333\n",
      "note_off channel=0 note=60 velocity=127 time=0.003125\n",
      "note_off channel=0 note=61 velocity=127 time=0.017708333333333333\n",
      "note_on channel=0 note=62 velocity=127 time=0.03125\n",
      "note_on channel=0 note=61 velocity=127 time=0.019791666666666666\n",
      "note_off channel=0 note=62 velocity=127 time=0\n",
      "note_on channel=0 note=60 velocity=127 time=0.007291666666666667\n",
      "note_off channel=0 note=61 velocity=127 time=0.0125\n",
      "note_off channel=0 note=60 velocity=127 time=0.007291666666666667\n",
      "note_on channel=0 note=61 velocity=127 time=0.04479166666666667\n",
      "note_off channel=0 note=61 velocity=127 time=0.019791666666666666\n",
      "note_on channel=0 note=60 velocity=127 time=0.011458333333333333\n",
      "note_off channel=0 note=60 velocity=127 time=0.019791666666666666\n",
      "note_on channel=0 note=61 velocity=127 time=0.019791666666666666\n",
      "note_on channel=0 note=62 velocity=127 time=0.0020833333333333333\n",
      "note_off channel=0 note=61 velocity=127 time=0.017708333333333333\n",
      "note_off channel=0 note=62 velocity=127 time=0.0020833333333333333\n",
      "note_on channel=0 note=60 velocity=127 time=0.034375\n",
      "note_on channel=0 note=61 velocity=127 time=0.015625\n",
      "note_off channel=0 note=60 velocity=127 time=0.005208333333333333\n",
      "note_off channel=0 note=61 velocity=127 time=0.015625\n",
      "note_on channel=0 note=61 velocity=127 time=0.051041666666666666\n",
      "note_on channel=0 note=60 velocity=127 time=0.009375\n",
      "note_off channel=0 note=61 velocity=127 time=0.010416666666666666\n",
      "note_on channel=0 note=62 velocity=127 time=0.004166666666666667\n",
      "note_off channel=0 note=60 velocity=127 time=0.005208333333333333\n",
      "note_off channel=0 note=62 velocity=127 time=0.014583333333333334\n",
      "note_on channel=0 note=61 velocity=127 time=0.027083333333333334\n",
      "note_off channel=0 note=61 velocity=127 time=0.019791666666666666\n",
      "note_on channel=0 note=60 velocity=127 time=0.013541666666666667\n",
      "note_off channel=0 note=60 velocity=127 time=0.019791666666666666\n",
      "note_on channel=0 note=61 velocity=127 time=0.017708333333333333\n",
      "note_off channel=0 note=61 velocity=127 time=0.019791666666666666\n",
      "note_on channel=0 note=62 velocity=127 time=0.026041666666666668\n",
      "note_on channel=0 note=60 velocity=127 time=0.0125\n",
      "note_off channel=0 note=62 velocity=127 time=0.007291666666666667\n",
      "note_on channel=0 note=61 velocity=127 time=0.005208333333333333\n",
      "note_off channel=0 note=60 velocity=127 time=0.007291666666666667\n",
      "note_off channel=0 note=61 velocity=127 time=0.013541666666666667\n",
      "note_on channel=0 note=61 velocity=127 time=0.051041666666666666\n",
      "note_on channel=0 note=60 velocity=127 time=0.011458333333333333\n",
      "note_off channel=0 note=61 velocity=127 time=0.008333333333333333\n",
      "note_off channel=0 note=60 velocity=127 time=0.011458333333333333\n",
      "note_on channel=0 note=62 velocity=127 time=0.036458333333333336\n",
      "note_on channel=0 note=61 velocity=127 time=0.004166666666666667\n",
      "note_off channel=0 note=62 velocity=127 time=0.016666666666666666\n",
      "note_off channel=0 note=61 velocity=127 time=0.004166666666666667\n",
      "note_on channel=0 note=60 velocity=127 time=0.015625\n",
      "note_off channel=0 note=60 velocity=127 time=0.019791666666666666\n",
      "note_on channel=0 note=61 velocity=127 time=0.015625\n",
      "note_off channel=0 note=61 velocity=127 time=0.019791666666666666\n",
      "note_on channel=0 note=60 velocity=127 time=0.040625\n",
      "note_on channel=0 note=61 velocity=127 time=0.010416666666666666\n",
      "note_off channel=0 note=60 velocity=127 time=0.009375\n",
      "note_on channel=0 note=62 velocity=127 time=0.009375\n",
      "note_off channel=0 note=61 velocity=127 time=0.0020833333333333333\n",
      "note_off channel=0 note=62 velocity=127 time=0.017708333333333333\n",
      "note_on channel=0 note=61 velocity=127 time=0.03333333333333333\n",
      "note_on channel=0 note=60 velocity=127 time=0.013541666666666667\n",
      "note_off channel=0 note=61 velocity=127 time=0.00625\n",
      "note_off channel=0 note=60 velocity=127 time=0.013541666666666667\n",
      "note_on channel=0 note=61 velocity=127 time=0.0375\n",
      "note_off channel=0 note=61 velocity=127 time=0.019791666666666666\n",
      "note_on channel=0 note=60 velocity=127 time=0.017708333333333333\n",
      "note_on channel=0 note=62 velocity=127 time=0.0020833333333333333\n",
      "note_off channel=0 note=60 velocity=127 time=0.01875\n",
      "\u001b[91m [DEBUG] > \u001b[0m\n",
      " |>  to_array: msg.time > max_t; t, n\n",
      " |>  2.0010416666666666\n",
      " |>  100\n",
      "note_on channel=0 note=62 velocity=127 time=0.036458333333333336\n",
      "note_off channel=0 note=62 velocity=127 time=0.019791666666666666\n",
      "note_on channel=0 note=61 velocity=127 time=0.025\n",
      "note_off channel=0 note=61 velocity=127 time=0.019791666666666666\n",
      "note_on channel=0 note=60 velocity=127 time=0.0125\n",
      "note_off channel=0 note=60 velocity=127 time=0.019791666666666666\n",
      "note_on channel=0 note=62 velocity=127 time=0.0020833333333333333\n",
      "note_off channel=0 note=62 velocity=127 time=0.019791666666666666\n",
      "note_on channel=0 note=61 velocity=127 time=0.0125\n",
      "note_off channel=0 note=61 velocity=127 time=0.019791666666666666\n",
      "note_on channel=0 note=62 velocity=127 time=0.046875\n",
      "note_off channel=0 note=62 velocity=127 time=0.019791666666666666\n",
      "note_on channel=0 note=61 velocity=127 time=0.0010416666666666667\n",
      "note_off channel=0 note=61 velocity=127 time=0.019791666666666666\n",
      "note_on channel=0 note=60 velocity=127 time=0.04479166666666667\n",
      "note_on channel=0 note=62 velocity=127 time=0.013541666666666667\n",
      "note_off channel=0 note=60 velocity=127 time=0.00625\n",
      "note_on channel=0 note=61 velocity=127 time=0.003125\n",
      "note_off channel=0 note=62 velocity=127 time=0.010416666666666666\n",
      "note_off channel=0 note=61 velocity=127 time=0.009375\n",
      "note_on channel=0 note=61 velocity=127 time=0.06770833333333333\n",
      "note_on channel=0 note=62 velocity=127 time=0.0020833333333333333\n",
      "note_off channel=0 note=61 velocity=127 time=0.017708333333333333\n",
      "note_off channel=0 note=62 velocity=127 time=0.0020833333333333333\n",
      "note_on channel=0 note=61 velocity=127 time=0.065625\n",
      "note_on channel=0 note=60 velocity=127 time=0.008333333333333333\n",
      "note_on channel=0 note=62 velocity=127 time=0.00625\n",
      "note_off channel=0 note=61 velocity=127 time=0.00625\n",
      "note_off channel=0 note=60 velocity=127 time=0.008333333333333333\n",
      "note_off channel=0 note=62 velocity=127 time=0.00625\n",
      "note_on channel=0 note=61 velocity=127 time=0.05416666666666667\n",
      "note_off channel=0 note=61 velocity=127 time=0.019791666666666666\n",
      "note_on channel=0 note=62 velocity=127 time=0.005208333333333333\n",
      "note_off channel=0 note=62 velocity=127 time=0.019791666666666666\n",
      "note_on channel=0 note=61 velocity=127 time=0.042708333333333334\n",
      "note_off channel=0 note=61 velocity=127 time=0.019791666666666666\n",
      "note_on channel=0 note=62 velocity=127 time=0.017708333333333333\n",
      "note_on channel=0 note=60 velocity=127 time=0.0020833333333333333\n",
      "note_off channel=0 note=62 velocity=127 time=0.017708333333333333\n",
      "note_off channel=0 note=60 velocity=127 time=0.0020833333333333333\n",
      "note_on channel=0 note=61 velocity=127 time=0.028125\n",
      "note_off channel=0 note=61 velocity=127 time=0.019791666666666666\n",
      "note_on channel=0 note=62 velocity=127 time=0.029166666666666667\n",
      "note_off channel=0 note=62 velocity=127 time=0.019791666666666666\n",
      "note_on channel=0 note=61 velocity=127 time=0.01875\n",
      "note_off channel=0 note=61 velocity=127 time=0.019791666666666666\n",
      "note_on channel=0 note=62 velocity=127 time=0.040625\n",
      "note_on channel=0 note=60 velocity=127 time=0.010416666666666666\n",
      "note_off channel=0 note=62 velocity=127 time=0.009375\n",
      "note_on channel=0 note=61 velocity=127 time=0.007291666666666667\n",
      "note_off channel=0 note=60 velocity=127 time=0.003125\n",
      "note_off channel=0 note=61 velocity=127 time=0.016666666666666666\n",
      "note_on channel=0 note=62 velocity=127 time=0.052083333333333336\n",
      "note_on channel=0 note=61 velocity=127 time=0.015625\n",
      "note_off channel=0 note=62 velocity=127 time=0.004166666666666667\n",
      "note_off channel=0 note=61 velocity=127 time=0.015625\n",
      "note_on channel=0 note=62 velocity=127 time=0.06458333333333333\n",
      "note_on channel=0 note=61 velocity=127 time=0.004166666666666667\n",
      "note_on channel=0 note=60 velocity=127 time=0.014583333333333334\n",
      "note_off channel=0 note=62 velocity=127 time=0.0010416666666666667\n",
      "note_off channel=0 note=61 velocity=127 time=0.004166666666666667\n",
      "note_off channel=0 note=60 velocity=127 time=0.014583333333333334\n",
      "note_on channel=0 note=61 velocity=127 time=0.053125\n",
      "note_on channel=0 note=62 velocity=127 time=0.008333333333333333\n",
      "note_off channel=0 note=61 velocity=127 time=0.0125\n",
      "note_off channel=0 note=62 velocity=127 time=0.008333333333333333\n",
      "note_on channel=0 note=61 velocity=127 time=0.06041666666666667\n",
      "note_on channel=0 note=62 velocity=127 time=0.019791666666666666\n",
      "note_off channel=0 note=61 velocity=127 time=0\n",
      "note_off channel=0 note=62 velocity=127 time=0.019791666666666666\n",
      "note_on channel=0 note=60 velocity=127 time=0.007291666666666667\n",
      "note_off channel=0 note=60 velocity=127 time=0.019791666666666666\n",
      "note_on channel=0 note=61 velocity=127 time=0.021875\n",
      "note_off channel=0 note=61 velocity=127 time=0.019791666666666666\n",
      "note_on channel=0 note=62 velocity=127 time=0.011458333333333333\n",
      "note_off channel=0 note=62 velocity=127 time=0.019791666666666666\n",
      "note_on channel=0 note=61 velocity=127 time=0.036458333333333336\n",
      "note_off channel=0 note=61 velocity=127 time=0.019791666666666666\n",
      "note_on channel=0 note=62 velocity=127 time=0.022916666666666665\n",
      "note_off channel=0 note=62 velocity=127 time=0.019791666666666666\n",
      "note_on channel=0 note=60 velocity=127 time=0.014583333333333334\n",
      "note_on channel=0 note=61 velocity=127 time=0.010416666666666666\n",
      "note_off channel=0 note=60 velocity=127 time=0.010416666666666666\n",
      "note_off channel=0 note=61 velocity=127 time=0.010416666666666666\n",
      "note_on channel=0 note=62 velocity=127 time=0.034375\n",
      "note_off channel=0 note=62 velocity=127 time=0.019791666666666666\n",
      "note_on channel=0 note=61 velocity=127 time=0.013541666666666667\n",
      "note_off channel=0 note=61 velocity=127 time=0.019791666666666666\n",
      "note_on channel=0 note=62 velocity=127 time=0.04583333333333333\n",
      "note_off channel=0 note=62 velocity=127 time=0.019791666666666666\n",
      "note_on channel=0 note=61 velocity=127 time=0.0010416666666666667\n",
      "note_off channel=0 note=61 velocity=127 time=0.019791666666666666\n",
      "note_on channel=0 note=60 velocity=127 time=0.0020833333333333333\n",
      "note_off channel=0 note=60 velocity=127 time=0.019791666666666666\n",
      "note_on channel=0 note=62 velocity=127 time=0.036458333333333336\n",
      "note_on channel=0 note=61 velocity=127 time=0.009375\n",
      "note_off channel=0 note=62 velocity=127 time=0.010416666666666666\n",
      "note_off channel=0 note=61 velocity=127 time=0.009375\n",
      "note_on channel=0 note=61 velocity=127 time=0.06770833333333333\n",
      "note_on channel=0 note=62 velocity=127 time=0.0020833333333333333\n",
      "note_off channel=0 note=61 velocity=127 time=0.017708333333333333\n",
      "note_off channel=0 note=62 velocity=127 time=0.0020833333333333333\n",
      "note_on channel=0 note=60 velocity=127 time=0.03125\n",
      "note_off channel=0 note=60 velocity=127 time=0.019791666666666666\n",
      "\u001b[91m [DEBUG] > \u001b[0m\n",
      " |>  to_array: msg.time > max_t; t, n\n",
      " |>  1.996875\n",
      " |>  100\n",
      "note_on channel=0 note=62 velocity=127 time=0.036458333333333336\n",
      "note_off channel=0 note=62 velocity=127 time=0.019791666666666666\n",
      "note_on channel=0 note=61 velocity=127 time=0.07291666666666667\n",
      "note_off channel=0 note=61 velocity=127 time=0.019791666666666666\n",
      "note_on channel=0 note=62 velocity=127 time=0.04791666666666666\n",
      "note_off channel=0 note=62 velocity=127 time=0.019791666666666666\n",
      "note_on channel=0 note=60 velocity=127 time=0.029166666666666667\n",
      "note_off channel=0 note=60 velocity=127 time=0.019791666666666666\n",
      "note_on channel=0 note=61 velocity=127 time=0.042708333333333334\n",
      "note_off channel=0 note=61 velocity=127 time=0.019791666666666666\n",
      "note_on channel=0 note=62 velocity=127 time=0.028125\n",
      "note_off channel=0 note=62 velocity=127 time=0.019791666666666666\n",
      "note_on channel=0 note=61 velocity=127 time=0.11145833333333333\n",
      "note_off channel=0 note=61 velocity=127 time=0.019791666666666666\n",
      "note_on channel=0 note=62 velocity=127 time=0.008333333333333333\n",
      "note_on channel=0 note=60 velocity=127 time=0.009375\n",
      "note_off channel=0 note=62 velocity=127 time=0.010416666666666666\n",
      "note_off channel=0 note=60 velocity=127 time=0.009375\n",
      "note_on channel=0 note=61 velocity=127 time=0.12083333333333333\n",
      "note_on channel=0 note=62 velocity=127 time=0.009375\n",
      "note_off channel=0 note=61 velocity=127 time=0.010416666666666666\n",
      "note_off channel=0 note=62 velocity=127 time=0.009375\n",
      "note_on channel=0 note=60 velocity=127 time=0.11041666666666666\n",
      "note_off channel=0 note=60 velocity=127 time=0.019791666666666666\n",
      "note_on channel=0 note=62 velocity=127 time=0.009375\n",
      "note_on channel=0 note=61 velocity=127 time=0.010416666666666666\n",
      "note_off channel=0 note=62 velocity=127 time=0.010416666666666666\n",
      "note_off channel=0 note=61 velocity=127 time=0.010416666666666666\n",
      "note_on channel=0 note=62 velocity=127 time=0.13020833333333334\n",
      "note_off channel=0 note=62 velocity=127 time=0.019791666666666666\n",
      "note_on channel=0 note=61 velocity=127 time=0.009375\n",
      "note_off channel=0 note=61 velocity=127 time=0.019791666666666666\n",
      "note_on channel=0 note=60 velocity=127 time=0.041666666666666664\n",
      "note_off channel=0 note=60 velocity=127 time=0.019791666666666666\n",
      "note_on channel=0 note=62 velocity=127 time=0.04895833333333333\n",
      "note_off channel=0 note=62 velocity=127 time=0.019791666666666666\n",
      "note_on channel=0 note=61 velocity=127 time=0.029166666666666667\n",
      "note_off channel=0 note=61 velocity=127 time=0.019791666666666666\n",
      "note_on channel=0 note=62 velocity=127 time=0.09166666666666666\n",
      "note_off channel=0 note=62 velocity=127 time=0.019791666666666666\n",
      "note_on channel=0 note=60 velocity=127 time=0.03125\n",
      "note_on channel=0 note=61 velocity=127 time=0.016666666666666666\n",
      "note_off channel=0 note=60 velocity=127 time=0.003125\n",
      "note_off channel=0 note=61 velocity=127 time=0.016666666666666666\n",
      "note_on channel=0 note=62 velocity=127 time=0.071875\n",
      "note_off channel=0 note=62 velocity=127 time=0.019791666666666666\n",
      "note_on channel=0 note=61 velocity=127 time=0.06770833333333333\n",
      "note_off channel=0 note=61 velocity=127 time=0.019791666666666666\n",
      "note_on channel=0 note=62 velocity=127 time=0.052083333333333336\n",
      "note_on channel=0 note=60 velocity=127 time=0.0125\n",
      "note_off channel=0 note=62 velocity=127 time=0.007291666666666667\n",
      "note_off channel=0 note=60 velocity=127 time=0.0125\n",
      "note_on channel=0 note=61 velocity=127 time=0.075\n",
      "note_off channel=0 note=61 velocity=127 time=0.019791666666666666\n",
      "note_on channel=0 note=62 velocity=127 time=0.03333333333333333\n",
      "note_off channel=0 note=62 velocity=127 time=0.019791666666666666\n",
      "note_on channel=0 note=61 velocity=127 time=0.10625\n",
      "note_on channel=0 note=60 velocity=127 time=0.00625\n",
      "note_off channel=0 note=61 velocity=127 time=0.013541666666666667\n",
      "note_off channel=0 note=60 velocity=127 time=0.00625\n",
      "note_on channel=0 note=62 velocity=127 time=0.007291666666666667\n",
      "note_off channel=0 note=62 velocity=127 time=0.019791666666666666\n",
      "note_on channel=0 note=61 velocity=127 time=0.12604166666666666\n",
      "\u001b[91m [DEBUG] > \u001b[0m\n",
      " |>  to_array: msg.time > max_t; t, n\n",
      " |>  2.0999999999999996\n",
      " |>  100\n",
      "note_on channel=0 note=61 velocity=127 time=0.0010416666666666667\n",
      "note_off channel=0 note=61 velocity=127 time=0.019791666666666666\n",
      "note_on channel=0 note=62 velocity=127 time=0.046875\n",
      "note_on channel=0 note=60 velocity=127 time=0.0020833333333333333\n",
      "note_off channel=0 note=62 velocity=127 time=0.017708333333333333\n",
      "note_off channel=0 note=60 velocity=127 time=0.0020833333333333333\n",
      "note_on channel=0 note=62 velocity=127 time=0.06458333333333333\n",
      "note_on channel=0 note=60 velocity=127 time=0.015625\n",
      "note_off channel=0 note=62 velocity=127 time=0.004166666666666667\n",
      "note_off channel=0 note=60 velocity=127 time=0.015625\n",
      "note_on channel=0 note=62 velocity=127 time=0.051041666666666666\n",
      "note_on channel=0 note=61 velocity=127 time=0.003125\n",
      "note_off channel=0 note=62 velocity=127 time=0.016666666666666666\n",
      "note_off channel=0 note=61 velocity=127 time=0.003125\n",
      "note_on channel=0 note=60 velocity=127 time=0.00625\n",
      "note_off channel=0 note=60 velocity=127 time=0.019791666666666666\n",
      "note_on channel=0 note=62 velocity=127 time=0.03854166666666667\n",
      "note_off channel=0 note=62 velocity=127 time=0.019791666666666666\n",
      "note_on channel=0 note=60 velocity=127 time=0.021875\n",
      "note_off channel=0 note=60 velocity=127 time=0.019791666666666666\n",
      "note_on channel=0 note=62 velocity=127 time=0.025\n",
      "note_off channel=0 note=62 velocity=127 time=0.019791666666666666\n",
      "note_on channel=0 note=60 velocity=127 time=0.034375\n",
      "note_on channel=0 note=61 velocity=127 time=0.017708333333333333\n",
      "note_off channel=0 note=60 velocity=127 time=0.0020833333333333333\n",
      "note_on channel=0 note=62 velocity=127 time=0.0125\n",
      "note_off channel=0 note=61 velocity=127 time=0.00625\n",
      "note_off channel=0 note=62 velocity=127 time=0.013541666666666667\n",
      "note_on channel=0 note=60 velocity=127 time=0.04791666666666666\n",
      "note_on channel=0 note=62 velocity=127 time=0.01875\n",
      "note_off channel=0 note=60 velocity=127 time=0.0010416666666666667\n",
      "note_off channel=0 note=62 velocity=127 time=0.01875\n",
      "note_on channel=0 note=60 velocity=127 time=0.06145833333333333\n",
      "note_on channel=0 note=62 velocity=127 time=0.00625\n",
      "note_off channel=0 note=60 velocity=127 time=0.014583333333333334\n",
      "note_off channel=0 note=62 velocity=127 time=0.00625\n",
      "note_on channel=0 note=61 velocity=127 time=0.036458333333333336\n",
      "note_off channel=0 note=61 velocity=127 time=0.019791666666666666\n",
      "note_on channel=0 note=62 velocity=127 time=0.010416666666666666\n",
      "note_on channel=0 note=60 velocity=127 time=0.007291666666666667\n",
      "note_off channel=0 note=62 velocity=127 time=0.0125\n",
      "note_off channel=0 note=60 velocity=127 time=0.007291666666666667\n",
      "note_on channel=0 note=62 velocity=127 time=0.059375\n",
      "note_off channel=0 note=62 velocity=127 time=0.019791666666666666\n",
      "note_on channel=0 note=60 velocity=127 time=0\n",
      "note_off channel=0 note=60 velocity=127 time=0.019791666666666666\n",
      "note_on channel=0 note=62 velocity=127 time=0.046875\n",
      "note_off channel=0 note=62 velocity=127 time=0.019791666666666666\n",
      "note_on channel=0 note=60 velocity=127 time=0.013541666666666667\n",
      "note_on channel=0 note=61 velocity=127 time=0.00625\n",
      "note_off channel=0 note=60 velocity=127 time=0.014583333333333334\n",
      "note_off channel=0 note=61 velocity=127 time=0.00625\n",
      "note_on channel=0 note=62 velocity=127 time=0.028125\n",
      "note_off channel=0 note=62 velocity=127 time=0.019791666666666666\n",
      "note_on channel=0 note=60 velocity=127 time=0.026041666666666668\n",
      "note_off channel=0 note=60 velocity=127 time=0.019791666666666666\n",
      "note_on channel=0 note=62 velocity=127 time=0.020833333333333332\n",
      "note_off channel=0 note=62 velocity=127 time=0.019791666666666666\n",
      "note_on channel=0 note=60 velocity=127 time=0.03958333333333333\n",
      "note_off channel=0 note=60 velocity=127 time=0.019791666666666666\n",
      "note_on channel=0 note=62 velocity=127 time=0.007291666666666667\n",
      "note_off channel=0 note=62 velocity=127 time=0.019791666666666666\n",
      "note_on channel=0 note=61 velocity=127 time=0.0020833333333333333\n",
      "note_off channel=0 note=61 velocity=127 time=0.019791666666666666\n",
      "note_on channel=0 note=60 velocity=127 time=0.030208333333333334\n",
      "note_on channel=0 note=62 velocity=127 time=0.014583333333333334\n",
      "note_off channel=0 note=60 velocity=127 time=0.005208333333333333\n",
      "note_off channel=0 note=62 velocity=127 time=0.014583333333333334\n",
      "note_on channel=0 note=60 velocity=127 time=0.065625\n",
      "note_on channel=0 note=62 velocity=127 time=0.0010416666666666667\n",
      "note_off channel=0 note=60 velocity=127 time=0.01875\n",
      "note_off channel=0 note=62 velocity=127 time=0.0010416666666666667\n",
      "note_on channel=0 note=62 velocity=127 time=0.06666666666666667\n",
      "note_on channel=0 note=61 velocity=127 time=0.005208333333333333\n",
      "note_on channel=0 note=60 velocity=127 time=0.00625\n",
      "note_off channel=0 note=62 velocity=127 time=0.008333333333333333\n",
      "note_off channel=0 note=61 velocity=127 time=0.005208333333333333\n",
      "note_off channel=0 note=60 velocity=127 time=0.00625\n",
      "note_on channel=0 note=62 velocity=127 time=0.05520833333333333\n",
      "note_off channel=0 note=62 velocity=127 time=0.019791666666666666\n",
      "note_on channel=0 note=60 velocity=127 time=0.005208333333333333\n",
      "note_off channel=0 note=60 velocity=127 time=0.019791666666666666\n",
      "note_on channel=0 note=62 velocity=127 time=0.041666666666666664\n",
      "note_off channel=0 note=62 velocity=127 time=0.019791666666666666\n",
      "note_on channel=0 note=60 velocity=127 time=0.017708333333333333\n",
      "note_off channel=0 note=60 velocity=127 time=0.019791666666666666\n",
      "note_on channel=0 note=61 velocity=127 time=0.017708333333333333\n",
      "note_on channel=0 note=62 velocity=127 time=0.011458333333333333\n",
      "note_off channel=0 note=61 velocity=127 time=0.008333333333333333\n",
      "note_off channel=0 note=62 velocity=127 time=0.011458333333333333\n",
      "note_on channel=0 note=60 velocity=127 time=0.03125\n",
      "note_off channel=0 note=60 velocity=127 time=0.019791666666666666\n",
      "note_on channel=0 note=62 velocity=127 time=0.015625\n",
      "note_off channel=0 note=62 velocity=127 time=0.019791666666666666\n",
      "note_on channel=0 note=60 velocity=127 time=0.04375\n",
      "note_off channel=0 note=60 velocity=127 time=0.019791666666666666\n",
      "note_on channel=0 note=62 velocity=127 time=0.003125\n",
      "note_off channel=0 note=62 velocity=127 time=0.019791666666666666\n",
      "note_on channel=0 note=61 velocity=127 time=0.03854166666666667\n",
      "note_on channel=0 note=60 velocity=127 time=0.01875\n",
      "note_off channel=0 note=61 velocity=127 time=0.0010416666666666667\n",
      "note_on channel=0 note=62 velocity=127 time=0.008333333333333333\n",
      "note_off channel=0 note=60 velocity=127 time=0.010416666666666666\n",
      "note_off channel=0 note=62 velocity=127 time=0.009375\n",
      "\u001b[91m [DEBUG] > \u001b[0m\n",
      " |>  to_array: msg.time > max_t; t, n\n",
      " |>  1.9947916666666665\n",
      " |>  100\n",
      "note_on channel=0 note=62 velocity=127 time=0.015625\n",
      "note_off channel=0 note=62 velocity=127 time=0.019791666666666666\n",
      "note_on channel=0 note=62 velocity=127 time=0.04791666666666666\n",
      "note_on channel=0 note=61 velocity=127 time=0.004166666666666667\n"
     ]
    },
    {
     "name": "stdout",
     "output_type": "stream",
     "text": [
      "note_off channel=0 note=62 velocity=127 time=0.016666666666666666\n",
      "note_off channel=0 note=61 velocity=127 time=0.004166666666666667\n",
      "note_on channel=0 note=60 velocity=127 time=0.030208333333333334\n",
      "note_on channel=0 note=62 velocity=127 time=0.014583333333333334\n",
      "note_off channel=0 note=60 velocity=127 time=0.00625\n",
      "note_off channel=0 note=62 velocity=127 time=0.014583333333333334\n",
      "note_on channel=0 note=61 velocity=127 time=0.005208333333333333\n",
      "note_off channel=0 note=61 velocity=127 time=0.019791666666666666\n",
      "note_on channel=0 note=62 velocity=127 time=0.022916666666666665\n",
      "note_off channel=0 note=62 velocity=127 time=0.019791666666666666\n",
      "note_on channel=0 note=61 velocity=127 time=0.027083333333333334\n",
      "note_off channel=0 note=61 velocity=127 time=0.019791666666666666\n",
      "note_on channel=0 note=62 velocity=127 time=0.0010416666666666667\n",
      "note_off channel=0 note=62 velocity=127 time=0.019791666666666666\n",
      "note_on channel=0 note=62 velocity=127 time=0.04791666666666666\n",
      "note_on channel=0 note=61 velocity=127 time=0.0010416666666666667\n",
      "note_off channel=0 note=62 velocity=127 time=0.01875\n",
      "note_off channel=0 note=61 velocity=127 time=0.0010416666666666667\n",
      "note_on channel=0 note=60 velocity=127 time=0.007291666666666667\n",
      "note_off channel=0 note=60 velocity=127 time=0.019791666666666666\n",
      "note_on channel=0 note=62 velocity=127 time=0.019791666666666666\n",
      "note_off channel=0 note=62 velocity=127 time=0.019791666666666666\n",
      "note_on channel=0 note=61 velocity=127 time=0.003125\n",
      "note_off channel=0 note=61 velocity=127 time=0.019791666666666666\n",
      "note_on channel=0 note=62 velocity=127 time=0.025\n",
      "note_off channel=0 note=62 velocity=127 time=0.019791666666666666\n",
      "note_on channel=0 note=61 velocity=127 time=0.025\n",
      "note_off channel=0 note=61 velocity=127 time=0.019791666666666666\n",
      "note_on channel=0 note=62 velocity=127 time=0.003125\n",
      "note_off channel=0 note=62 velocity=127 time=0.019791666666666666\n",
      "note_on channel=0 note=61 velocity=127 time=0.046875\n",
      "note_on channel=0 note=62 velocity=127 time=0.0020833333333333333\n",
      "note_on channel=0 note=60 velocity=127 time=0.003125\n",
      "note_off channel=0 note=61 velocity=127 time=0.014583333333333334\n",
      "note_off channel=0 note=62 velocity=127 time=0.0020833333333333333\n",
      "note_off channel=0 note=60 velocity=127 time=0.003125\n",
      "note_on channel=0 note=62 velocity=127 time=0.04479166666666667\n",
      "note_off channel=0 note=62 velocity=127 time=0.019791666666666666\n",
      "note_on channel=0 note=61 velocity=127 time=0\n",
      "note_off channel=0 note=61 velocity=127 time=0.019791666666666666\n",
      "note_on channel=0 note=62 velocity=127 time=0.028125\n",
      "note_off channel=0 note=62 velocity=127 time=0.019791666666666666\n",
      "note_on channel=0 note=61 velocity=127 time=0.021875\n",
      "note_off channel=0 note=61 velocity=127 time=0.019791666666666666\n",
      "note_on channel=0 note=62 velocity=127 time=0.00625\n",
      "note_off channel=0 note=62 velocity=127 time=0.019791666666666666\n",
      "note_on channel=0 note=60 velocity=127 time=0.026041666666666668\n",
      "note_on channel=0 note=61 velocity=127 time=0.017708333333333333\n",
      "note_off channel=0 note=60 velocity=127 time=0.003125\n",
      "note_on channel=0 note=62 velocity=127 time=0.0020833333333333333\n",
      "note_off channel=0 note=61 velocity=127 time=0.015625\n",
      "note_off channel=0 note=62 velocity=127 time=0.004166666666666667\n",
      "note_on channel=0 note=62 velocity=127 time=0.04791666666666666\n",
      "note_on channel=0 note=61 velocity=127 time=0.017708333333333333\n",
      "note_off channel=0 note=62 velocity=127 time=0.0020833333333333333\n",
      "note_off channel=0 note=61 velocity=127 time=0.017708333333333333\n",
      "note_on channel=0 note=62 velocity=127 time=0.030208333333333334\n",
      "note_off channel=0 note=62 velocity=127 time=0.019791666666666666\n",
      "note_on channel=0 note=61 velocity=127 time=0.019791666666666666\n",
      "note_off channel=0 note=61 velocity=127 time=0.019791666666666666\n",
      "note_on channel=0 note=62 velocity=127 time=0.008333333333333333\n",
      "note_off channel=0 note=62 velocity=127 time=0.019791666666666666\n",
      "note_on channel=0 note=60 velocity=127 time=0.0010416666666666667\n",
      "note_off channel=0 note=60 velocity=127 time=0.019791666666666666\n",
      "note_on channel=0 note=61 velocity=127 time=0.019791666666666666\n",
      "note_on channel=0 note=62 velocity=127 time=0.007291666666666667\n",
      "note_off channel=0 note=61 velocity=127 time=0.013541666666666667\n",
      "note_off channel=0 note=62 velocity=127 time=0.007291666666666667\n",
      "note_on channel=0 note=62 velocity=127 time=0.04791666666666666\n",
      "note_on channel=0 note=61 velocity=127 time=0.014583333333333334\n",
      "note_off channel=0 note=62 velocity=127 time=0.005208333333333333\n",
      "note_off channel=0 note=61 velocity=127 time=0.014583333333333334\n",
      "note_on channel=0 note=62 velocity=127 time=0.03333333333333333\n",
      "note_off channel=0 note=62 velocity=127 time=0.019791666666666666\n",
      "note_on channel=0 note=61 velocity=127 time=0.016666666666666666\n",
      "note_off channel=0 note=61 velocity=127 time=0.019791666666666666\n",
      "note_on channel=0 note=60 velocity=127 time=0.007291666666666667\n",
      "note_on channel=0 note=62 velocity=127 time=0.004166666666666667\n",
      "note_off channel=0 note=60 velocity=127 time=0.015625\n",
      "note_off channel=0 note=62 velocity=127 time=0.004166666666666667\n",
      "note_on channel=0 note=61 velocity=127 time=0.03854166666666667\n",
      "note_on channel=0 note=62 velocity=127 time=0.009375\n",
      "note_off channel=0 note=61 velocity=127 time=0.010416666666666666\n",
      "note_off channel=0 note=62 velocity=127 time=0.009375\n",
      "note_on channel=0 note=62 velocity=127 time=0.04791666666666666\n",
      "note_on channel=0 note=61 velocity=127 time=0.0125\n",
      "note_off channel=0 note=62 velocity=127 time=0.008333333333333333\n",
      "note_off channel=0 note=61 velocity=127 time=0.0125\n",
      "note_on channel=0 note=62 velocity=127 time=0.035416666666666666\n",
      "note_off channel=0 note=62 velocity=127 time=0.019791666666666666\n",
      "note_on channel=0 note=61 velocity=127 time=0.013541666666666667\n",
      "note_on channel=0 note=60 velocity=127 time=0.005208333333333333\n",
      "note_off channel=0 note=61 velocity=127 time=0.014583333333333334\n",
      "note_off channel=0 note=60 velocity=127 time=0.005208333333333333\n",
      "note_on channel=0 note=62 velocity=127 time=0.009375\n",
      "note_off channel=0 note=62 velocity=127 time=0.019791666666666666\n",
      "note_on channel=0 note=61 velocity=127 time=0.035416666666666666\n",
      "note_on channel=0 note=62 velocity=127 time=0.0125\n",
      "note_off channel=0 note=61 velocity=127 time=0.007291666666666667\n",
      "note_off channel=0 note=62 velocity=127 time=0.0125\n",
      "note_on channel=0 note=62 velocity=127 time=0.04791666666666666\n",
      "note_on channel=0 note=61 velocity=127 time=0.009375\n",
      "note_off channel=0 note=62 velocity=127 time=0.010416666666666666\n",
      "note_off channel=0 note=61 velocity=127 time=0.009375\n",
      "note_on channel=0 note=62 velocity=127 time=0.03854166666666667\n",
      "note_on channel=0 note=60 velocity=127 time=0.013541666666666667\n",
      "note_off channel=0 note=62 velocity=127 time=0.00625\n",
      "note_on channel=0 note=61 velocity=127 time=0.011458333333333333\n",
      "note_off channel=0 note=60 velocity=127 time=0.0020833333333333333\n",
      "note_off channel=0 note=61 velocity=127 time=0.017708333333333333\n",
      "note_on channel=0 note=62 velocity=127 time=0.016666666666666666\n",
      "note_off channel=0 note=62 velocity=127 time=0.019791666666666666\n",
      "note_on channel=0 note=61 velocity=127 time=0.03333333333333333\n",
      "note_on channel=0 note=62 velocity=127 time=0.014583333333333334\n",
      "note_off channel=0 note=61 velocity=127 time=0.005208333333333333\n",
      "\u001b[91m [DEBUG] > \u001b[0m\n",
      " |>  to_array: msg.time > max_t; t, n\n",
      " |>  1.9916666666666658\n",
      " |>  100\n",
      "note_on channel=0 note=61 velocity=127 time=0.017708333333333333\n",
      "note_on channel=0 note=60 velocity=127 time=0.005208333333333333\n",
      "note_off channel=0 note=61 velocity=127 time=0.014583333333333334\n",
      "note_off channel=0 note=60 velocity=127 time=0.005208333333333333\n",
      "note_on channel=0 note=60 velocity=127 time=0.04895833333333333\n",
      "note_off channel=0 note=60 velocity=127 time=0.019791666666666666\n",
      "note_on channel=0 note=62 velocity=127 time=0.01875\n",
      "note_off channel=0 note=62 velocity=127 time=0.019791666666666666\n",
      "note_on channel=0 note=60 velocity=127 time=0.010416666666666666\n",
      "note_off channel=0 note=60 velocity=127 time=0.019791666666666666\n",
      "note_on channel=0 note=61 velocity=127 time=0.042708333333333334\n",
      "note_on channel=0 note=60 velocity=127 time=0.00625\n",
      "note_off channel=0 note=61 velocity=127 time=0.014583333333333334\n",
      "note_off channel=0 note=60 velocity=127 time=0.00625\n",
      "note_on channel=0 note=62 velocity=127 time=0.014583333333333334\n",
      "note_off channel=0 note=62 velocity=127 time=0.019791666666666666\n",
      "note_on channel=0 note=60 velocity=127 time=0.014583333333333334\n",
      "note_off channel=0 note=60 velocity=127 time=0.019791666666666666\n",
      "note_on channel=0 note=60 velocity=127 time=0.04895833333333333\n",
      "note_off channel=0 note=60 velocity=127 time=0.019791666666666666\n",
      "note_on channel=0 note=62 velocity=127 time=0.010416666666666666\n",
      "note_off channel=0 note=62 velocity=127 time=0.019791666666666666\n",
      "note_on channel=0 note=61 velocity=127 time=0.0125\n",
      "note_on channel=0 note=60 velocity=127 time=0.00625\n",
      "note_off channel=0 note=61 velocity=127 time=0.013541666666666667\n",
      "note_off channel=0 note=60 velocity=127 time=0.00625\n",
      "note_on channel=0 note=60 velocity=127 time=0.04895833333333333\n",
      "note_off channel=0 note=60 velocity=127 time=0.019791666666666666\n",
      "note_on channel=0 note=62 velocity=127 time=0.005208333333333333\n",
      "note_off channel=0 note=62 velocity=127 time=0.019791666666666666\n",
      "note_on channel=0 note=60 velocity=127 time=0.022916666666666665\n",
      "note_off channel=0 note=60 velocity=127 time=0.019791666666666666\n",
      "note_on channel=0 note=61 velocity=127 time=0.041666666666666664\n",
      "note_on channel=0 note=60 velocity=127 time=0.007291666666666667\n",
      "note_off channel=0 note=61 velocity=127 time=0.0125\n",
      "note_off channel=0 note=60 velocity=127 time=0.007291666666666667\n",
      "note_on channel=0 note=62 velocity=127 time=0.0010416666666666667\n",
      "note_off channel=0 note=62 velocity=127 time=0.019791666666666666\n",
      "note_on channel=0 note=60 velocity=127 time=0.027083333333333334\n",
      "note_off channel=0 note=60 velocity=127 time=0.019791666666666666\n",
      "note_on channel=0 note=60 velocity=127 time=0.04895833333333333\n",
      "note_on channel=0 note=62 velocity=127 time=0.016666666666666666\n",
      "note_off channel=0 note=60 velocity=127 time=0.003125\n",
      "note_off channel=0 note=62 velocity=127 time=0.016666666666666666\n",
      "note_on channel=0 note=61 velocity=127 time=0.02395833333333333\n",
      "note_on channel=0 note=60 velocity=127 time=0.007291666666666667\n",
      "note_off channel=0 note=61 velocity=127 time=0.0125\n",
      "note_off channel=0 note=60 velocity=127 time=0.007291666666666667\n",
      "note_on channel=0 note=60 velocity=127 time=0.04895833333333333\n",
      "note_on channel=0 note=62 velocity=127 time=0.0125\n",
      "note_off channel=0 note=60 velocity=127 time=0.007291666666666667\n",
      "note_off channel=0 note=62 velocity=127 time=0.0125\n",
      "note_on channel=0 note=60 velocity=127 time=0.036458333333333336\n",
      "note_off channel=0 note=60 velocity=127 time=0.019791666666666666\n",
      "note_on channel=0 note=61 velocity=127 time=0.040625\n",
      "note_on channel=0 note=60 velocity=127 time=0.008333333333333333\n",
      "note_on channel=0 note=62 velocity=127 time=0.008333333333333333\n",
      "note_off channel=0 note=61 velocity=127 time=0.003125\n",
      "note_off channel=0 note=60 velocity=127 time=0.008333333333333333\n",
      "note_off channel=0 note=62 velocity=127 time=0.008333333333333333\n",
      "note_on channel=0 note=60 velocity=127 time=0.040625\n",
      "note_off channel=0 note=60 velocity=127 time=0.019791666666666666\n",
      "note_on channel=0 note=60 velocity=127 time=0.04895833333333333\n",
      "note_on channel=0 note=62 velocity=127 time=0.003125\n",
      "note_off channel=0 note=60 velocity=127 time=0.016666666666666666\n",
      "note_off channel=0 note=62 velocity=127 time=0.003125\n",
      "note_on channel=0 note=61 velocity=127 time=0.036458333333333336\n",
      "note_on channel=0 note=60 velocity=127 time=0.009375\n",
      "note_off channel=0 note=61 velocity=127 time=0.010416666666666666\n",
      "note_off channel=0 note=60 velocity=127 time=0.009375\n",
      "note_on channel=0 note=62 velocity=127 time=0.04791666666666666\n",
      "note_on channel=0 note=60 velocity=127 time=0.0010416666666666667\n",
      "note_off channel=0 note=62 velocity=127 time=0.01875\n",
      "note_off channel=0 note=60 velocity=127 time=0.0010416666666666667\n",
      "note_on channel=0 note=60 velocity=127 time=0.04895833333333333\n",
      "note_off channel=0 note=60 velocity=127 time=0.019791666666666666\n",
      "note_on channel=0 note=61 velocity=127 time=0.03854166666666667\n",
      "note_on channel=0 note=62 velocity=127 time=0.004166666666666667\n",
      "note_on channel=0 note=60 velocity=127 time=0.005208333333333333\n",
      "note_off channel=0 note=61 velocity=127 time=0.010416666666666666\n",
      "note_off channel=0 note=62 velocity=127 time=0.004166666666666667\n",
      "note_off channel=0 note=60 velocity=127 time=0.005208333333333333\n",
      "note_on channel=0 note=60 velocity=127 time=0.04895833333333333\n",
      "note_off channel=0 note=60 velocity=127 time=0.019791666666666666\n",
      "note_on channel=0 note=62 velocity=127 time=0.03958333333333333\n",
      "note_on channel=0 note=60 velocity=127 time=0.009375\n",
      "note_off channel=0 note=62 velocity=127 time=0.010416666666666666\n",
      "note_off channel=0 note=60 velocity=127 time=0.009375\n",
      "note_on channel=0 note=61 velocity=127 time=0.03854166666666667\n",
      "note_on channel=0 note=60 velocity=127 time=0.010416666666666666\n",
      "note_off channel=0 note=61 velocity=127 time=0.009375\n",
      "note_off channel=0 note=60 velocity=127 time=0.010416666666666666\n",
      "note_on channel=0 note=62 velocity=127 time=0.034375\n",
      "note_on channel=0 note=60 velocity=127 time=0.013541666666666667\n",
      "note_off channel=0 note=62 velocity=127 time=0.00625\n",
      "note_off channel=0 note=60 velocity=127 time=0.013541666666666667\n",
      "note_on channel=0 note=60 velocity=127 time=0.04895833333333333\n",
      "note_off channel=0 note=60 velocity=127 time=0.019791666666666666\n",
      "note_on channel=0 note=62 velocity=127 time=0.030208333333333334\n",
      "note_on channel=0 note=61 velocity=127 time=0.007291666666666667\n",
      "note_on channel=0 note=60 velocity=127 time=0.011458333333333333\n",
      "note_off channel=0 note=62 velocity=127 time=0.0020833333333333333\n",
      "note_off channel=0 note=61 velocity=127 time=0.007291666666666667\n",
      "note_off channel=0 note=60 velocity=127 time=0.011458333333333333\n",
      "note_on channel=0 note=60 velocity=127 time=0.04895833333333333\n",
      "note_off channel=0 note=60 velocity=127 time=0.019791666666666666\n",
      "note_on channel=0 note=62 velocity=127 time=0.026041666666666668\n",
      "\u001b[91m [DEBUG] > \u001b[0m\n",
      " |>  to_array: msg.time > max_t; t, n\n",
      " |>  1.9906250000000003\n",
      " |>  100\n",
      "note_on channel=0 note=61 velocity=127 time=0.014583333333333334\n",
      "note_off channel=0 note=61 velocity=127 time=0.019791666666666666\n",
      "note_on channel=0 note=62 velocity=127 time=0.011458333333333333\n",
      "note_on channel=0 note=60 velocity=127 time=0.007291666666666667\n",
      "note_off channel=0 note=62 velocity=127 time=0.013541666666666667\n",
      "note_off channel=0 note=60 velocity=127 time=0.007291666666666667\n",
      "note_on channel=0 note=61 velocity=127 time=0.036458333333333336\n",
      "note_on channel=0 note=62 velocity=127 time=0.011458333333333333\n",
      "note_off channel=0 note=61 velocity=127 time=0.009375\n",
      "note_off channel=0 note=62 velocity=127 time=0.011458333333333333\n",
      "note_on channel=0 note=60 velocity=127 time=0.021875\n",
      "note_off channel=0 note=60 velocity=127 time=0.019791666666666666\n",
      "note_on channel=0 note=62 velocity=127 time=0.0125\n",
      "note_on channel=0 note=61 velocity=127 time=0.009375\n",
      "note_off channel=0 note=62 velocity=127 time=0.010416666666666666\n",
      "note_off channel=0 note=61 velocity=127 time=0.009375\n",
      "note_on channel=0 note=62 velocity=127 time=0.04479166666666667\n",
      "note_on channel=0 note=60 velocity=127 time=0.003125\n",
      "note_off channel=0 note=62 velocity=127 time=0.017708333333333333\n",
      "note_off channel=0 note=60 velocity=127 time=0.003125\n",
      "note_on channel=0 note=61 velocity=127 time=0.00625\n",
      "note_off channel=0 note=61 velocity=127 time=0.019791666666666666\n",
      "note_on channel=0 note=62 velocity=127 time=0.025\n",
      "note_off channel=0 note=62 velocity=127 time=0.019791666666666666\n",
      "note_on channel=0 note=60 velocity=127 time=0.017708333333333333\n",
      "note_on channel=0 note=61 velocity=127 time=0.011458333333333333\n",
      "note_off channel=0 note=60 velocity=127 time=0.008333333333333333\n",
      "note_off channel=0 note=61 velocity=127 time=0.011458333333333333\n",
      "note_on channel=0 note=62 velocity=127 time=0.004166666666666667\n",
      "note_off channel=0 note=62 velocity=127 time=0.019791666666666666\n",
      "note_on channel=0 note=61 velocity=127 time=0.05\n",
      "note_on channel=0 note=60 velocity=127 time=0.003125\n",
      "note_on channel=0 note=62 velocity=127 time=0.0010416666666666667\n",
      "note_off channel=0 note=61 velocity=127 time=0.015625\n",
      "note_off channel=0 note=60 velocity=127 time=0.003125\n",
      "note_off channel=0 note=62 velocity=127 time=0.0010416666666666667\n",
      "note_on channel=0 note=62 velocity=127 time=0.05416666666666667\n",
      "note_on channel=0 note=61 velocity=127 time=0.015625\n",
      "note_off channel=0 note=62 velocity=127 time=0.004166666666666667\n",
      "note_on channel=0 note=60 velocity=127 time=0.013541666666666667\n",
      "note_off channel=0 note=61 velocity=127 time=0.0020833333333333333\n",
      "note_off channel=0 note=60 velocity=127 time=0.017708333333333333\n",
      "note_on channel=0 note=62 velocity=127 time=0.019791666666666666\n",
      "note_off channel=0 note=62 velocity=127 time=0.019791666666666666\n",
      "note_on channel=0 note=61 velocity=127 time=0.016666666666666666\n",
      "note_off channel=0 note=61 velocity=127 time=0.019791666666666666\n",
      "note_on channel=0 note=60 velocity=127 time=0.0125\n",
      "note_on channel=0 note=62 velocity=127 time=0.005208333333333333\n",
      "note_off channel=0 note=60 velocity=127 time=0.014583333333333334\n",
      "note_off channel=0 note=62 velocity=127 time=0.005208333333333333\n",
      "note_on channel=0 note=61 velocity=127 time=0.036458333333333336\n",
      "note_on channel=0 note=62 velocity=127 time=0.017708333333333333\n",
      "note_off channel=0 note=61 velocity=127 time=0.003125\n",
      "note_off channel=0 note=62 velocity=127 time=0.017708333333333333\n",
      "note_on channel=0 note=60 velocity=127 time=0.009375\n",
      "note_off channel=0 note=60 velocity=127 time=0.019791666666666666\n",
      "note_on channel=0 note=62 velocity=127 time=0.02395833333333333\n",
      "note_on channel=0 note=61 velocity=127 time=0.003125\n",
      "note_off channel=0 note=62 velocity=127 time=0.016666666666666666\n",
      "note_off channel=0 note=61 velocity=127 time=0.003125\n",
      "note_on channel=0 note=60 velocity=127 time=0.041666666666666664\n",
      "note_on channel=0 note=62 velocity=127 time=0.009375\n",
      "note_off channel=0 note=60 velocity=127 time=0.010416666666666666\n",
      "note_off channel=0 note=62 velocity=127 time=0.009375\n",
      "note_on channel=0 note=61 velocity=127 time=0.003125\n",
      "note_off channel=0 note=61 velocity=127 time=0.019791666666666666\n",
      "note_on channel=0 note=62 velocity=127 time=0.03125\n",
      "note_off channel=0 note=62 velocity=127 time=0.019791666666666666\n",
      "note_on channel=0 note=60 velocity=127 time=0.005208333333333333\n",
      "note_on channel=0 note=61 velocity=127 time=0.017708333333333333\n",
      "note_off channel=0 note=60 velocity=127 time=0.0020833333333333333\n",
      "note_off channel=0 note=61 velocity=127 time=0.017708333333333333\n",
      "note_on channel=0 note=62 velocity=127 time=0.010416666666666666\n",
      "note_off channel=0 note=62 velocity=127 time=0.019791666666666666\n",
      "note_on channel=0 note=60 velocity=127 time=0.040625\n",
      "note_on channel=0 note=61 velocity=127 time=0.003125\n",
      "note_on channel=0 note=62 velocity=127 time=0.010416666666666666\n",
      "note_off channel=0 note=60 velocity=127 time=0.00625\n",
      "note_off channel=0 note=61 velocity=127 time=0.003125\n",
      "note_off channel=0 note=62 velocity=127 time=0.010416666666666666\n",
      "note_on channel=0 note=62 velocity=127 time=0.05416666666666667\n",
      "note_on channel=0 note=61 velocity=127 time=0.009375\n",
      "note_off channel=0 note=62 velocity=127 time=0.010416666666666666\n",
      "note_on channel=0 note=60 velocity=127 time=0.0010416666666666667\n",
      "note_off channel=0 note=61 velocity=127 time=0.008333333333333333\n",
      "note_off channel=0 note=60 velocity=127 time=0.011458333333333333\n",
      "note_on channel=0 note=62 velocity=127 time=0.03229166666666666\n",
      "note_off channel=0 note=62 velocity=127 time=0.019791666666666666\n",
      "note_on channel=0 note=61 velocity=127 time=0.010416666666666666\n",
      "note_off channel=0 note=61 velocity=127 time=0.019791666666666666\n",
      "note_on channel=0 note=60 velocity=127 time=0.00625\n",
      "note_on channel=0 note=62 velocity=127 time=0.017708333333333333\n",
      "note_off channel=0 note=60 velocity=127 time=0.0020833333333333333\n",
      "note_off channel=0 note=62 velocity=127 time=0.017708333333333333\n",
      "note_on channel=0 note=61 velocity=127 time=0.030208333333333334\n",
      "note_off channel=0 note=61 velocity=127 time=0.019791666666666666\n",
      "note_on channel=0 note=62 velocity=127 time=0.004166666666666667\n",
      "note_on channel=0 note=60 velocity=127 time=0.017708333333333333\n",
      "note_off channel=0 note=62 velocity=127 time=0.003125\n",
      "note_off channel=0 note=60 velocity=127 time=0.017708333333333333\n",
      "note_on channel=0 note=61 velocity=127 time=0.03333333333333333\n",
      "note_on channel=0 note=62 velocity=127 time=0.003125\n",
      "note_off channel=0 note=61 velocity=127 time=0.016666666666666666\n",
      "note_off channel=0 note=62 velocity=127 time=0.003125\n",
      "note_on channel=0 note=60 velocity=127 time=0.03229166666666666\n",
      "note_off channel=0 note=60 velocity=127 time=0.019791666666666666\n",
      "note_on channel=0 note=62 velocity=127 time=0.0020833333333333333\n",
      "note_on channel=0 note=61 velocity=127 time=0.016666666666666666\n",
      "note_off channel=0 note=62 velocity=127 time=0.003125\n",
      "note_off channel=0 note=61 velocity=127 time=0.016666666666666666\n",
      "note_on channel=0 note=62 velocity=127 time=0.0375\n",
      "note_on channel=0 note=60 velocity=127 time=0.013541666666666667\n",
      "note_off channel=0 note=62 velocity=127 time=0.007291666666666667\n",
      "note_off channel=0 note=60 velocity=127 time=0.013541666666666667\n",
      "note_on channel=0 note=61 velocity=127 time=0.004166666666666667\n",
      "note_off channel=0 note=61 velocity=127 time=0.019791666666666666\n",
      "note_on channel=0 note=62 velocity=127 time=0.016666666666666666\n",
      "note_off channel=0 note=62 velocity=127 time=0.019791666666666666\n",
      "note_on channel=0 note=60 velocity=127 time=0.028125\n",
      "note_on channel=0 note=61 velocity=127 time=0.009375\n",
      "note_off channel=0 note=60 velocity=127 time=0.011458333333333333\n",
      "note_on channel=0 note=62 velocity=127 time=0.00625\n",
      "note_off channel=0 note=61 velocity=127 time=0.003125\n",
      "note_off channel=0 note=62 velocity=127 time=0.016666666666666666\n",
      "note_on channel=0 note=62 velocity=127 time=0.05416666666666667\n",
      "note_on channel=0 note=61 velocity=127 time=0.003125\n",
      "note_on channel=0 note=60 velocity=127 time=0.00625\n",
      "note_off channel=0 note=62 velocity=127 time=0.010416666666666666\n",
      "note_off channel=0 note=61 velocity=127 time=0.003125\n",
      "note_off channel=0 note=60 velocity=127 time=0.00625\n",
      "note_on channel=0 note=62 velocity=127 time=0.04479166666666667\n",
      "note_off channel=0 note=62 velocity=127 time=0.019791666666666666\n",
      "\u001b[91m [DEBUG] > \u001b[0m\n",
      " |>  to_array: msg.time > max_t; t, n\n",
      " |>  1.9916666666666683\n",
      " |>  100\n",
      "note_on channel=0 note=62 velocity=127 time=0.08541666666666667\n",
      "note_off channel=0 note=62 velocity=127 time=0.019791666666666666\n",
      "note_on channel=0 note=61 velocity=127 time=0.09166666666666666\n",
      "note_on channel=0 note=62 velocity=127 time=0.00625\n",
      "note_off channel=0 note=61 velocity=127 time=0.013541666666666667\n",
      "note_off channel=0 note=62 velocity=127 time=0.00625\n",
      "note_on channel=0 note=60 velocity=127 time=0.04375\n",
      "note_off channel=0 note=60 velocity=127 time=0.019791666666666666\n",
      "note_on channel=0 note=62 velocity=127 time=0.03333333333333333\n",
      "note_off channel=0 note=62 velocity=127 time=0.019791666666666666\n",
      "note_on channel=0 note=62 velocity=127 time=0.096875\n",
      "note_on channel=0 note=61 velocity=127 time=0.01875\n",
      "note_off channel=0 note=62 velocity=127 time=0.0010416666666666667\n",
      "note_off channel=0 note=61 velocity=127 time=0.01875\n",
      "note_on channel=0 note=60 velocity=127 time=0.059375\n",
      "note_on channel=0 note=62 velocity=127 time=0.01875\n",
      "note_off channel=0 note=60 velocity=127 time=0.0010416666666666667\n",
      "note_off channel=0 note=62 velocity=127 time=0.01875\n",
      "note_on channel=0 note=62 velocity=127 time=0.096875\n",
      "note_off channel=0 note=62 velocity=127 time=0.019791666666666666\n",
      "note_on channel=0 note=61 velocity=127 time=0.02395833333333333\n",
      "note_off channel=0 note=61 velocity=127 time=0.019791666666666666\n",
      "note_on channel=0 note=62 velocity=127 time=0.053125\n",
      "note_on channel=0 note=60 velocity=127 time=0.016666666666666666\n",
      "note_off channel=0 note=62 velocity=127 time=0.004166666666666667\n",
      "note_off channel=0 note=60 velocity=127 time=0.016666666666666666\n",
      "note_on channel=0 note=62 velocity=127 time=0.08125\n",
      "note_off channel=0 note=62 velocity=127 time=0.019791666666666666\n",
      "note_on channel=0 note=61 velocity=127 time=0.04895833333333333\n",
      "note_off channel=0 note=61 velocity=127 time=0.019791666666666666\n",
      "note_on channel=0 note=62 velocity=127 time=0.028125\n",
      "note_off channel=0 note=62 velocity=127 time=0.019791666666666666\n",
      "note_on channel=0 note=60 velocity=127 time=0.03125\n",
      "note_off channel=0 note=60 velocity=127 time=0.019791666666666666\n",
      "note_on channel=0 note=62 velocity=127 time=0.04583333333333333\n",
      "note_off channel=0 note=62 velocity=127 time=0.019791666666666666\n",
      "note_on channel=0 note=61 velocity=127 time=0.07395833333333333\n",
      "note_off channel=0 note=61 velocity=127 time=0.019791666666666666\n",
      "note_on channel=0 note=62 velocity=127 time=0.003125\n",
      "note_off channel=0 note=62 velocity=127 time=0.019791666666666666\n",
      "note_on channel=0 note=60 velocity=127 time=0.06666666666666667\n",
      "note_off channel=0 note=60 velocity=127 time=0.019791666666666666\n",
      "note_on channel=0 note=62 velocity=127 time=0.010416666666666666\n",
      "note_off channel=0 note=62 velocity=127 time=0.019791666666666666\n",
      "note_on channel=0 note=62 velocity=127 time=0.096875\n",
      "note_on channel=0 note=61 velocity=127 time=0.0020833333333333333\n",
      "note_off channel=0 note=62 velocity=127 time=0.017708333333333333\n",
      "note_off channel=0 note=61 velocity=127 time=0.0020833333333333333\n",
      "note_on channel=0 note=62 velocity=127 time=0.09479166666666666\n",
      "note_on channel=0 note=60 velocity=127 time=0.004166666666666667\n",
      "note_off channel=0 note=62 velocity=127 time=0.015625\n",
      "note_off channel=0 note=60 velocity=127 time=0.004166666666666667\n",
      "note_on channel=0 note=62 velocity=127 time=0.09270833333333334\n",
      "note_off channel=0 note=62 velocity=127 time=0.019791666666666666\n",
      "note_on channel=0 note=61 velocity=127 time=0.007291666666666667\n",
      "note_off channel=0 note=61 velocity=127 time=0.019791666666666666\n",
      "note_on channel=0 note=62 velocity=127 time=0.06979166666666667\n",
      "note_off channel=0 note=62 velocity=127 time=0.019791666666666666\n",
      "note_on channel=0 note=60 velocity=127 time=0.01875\n",
      "note_off channel=0 note=60 velocity=127 time=0.019791666666666666\n",
      "note_on channel=0 note=62 velocity=127 time=0.058333333333333334\n",
      "note_off channel=0 note=62 velocity=127 time=0.019791666666666666\n",
      "note_on channel=0 note=61 velocity=127 time=0.03229166666666666\n",
      "\u001b[91m [DEBUG] > \u001b[0m\n",
      " |>  to_array: msg.time > max_t; t, n\n",
      " |>  2.007291666666667\n",
      " |>  100\n",
      "note_on channel=0 note=61 velocity=127 time=0.025\n",
      "note_off channel=0 note=61 velocity=127 time=0.019791666666666666\n",
      "note_on channel=0 note=61 velocity=127 time=0.057291666666666664\n",
      "note_off channel=0 note=61 velocity=127 time=0.019791666666666666\n",
      "note_on channel=0 note=62 velocity=127 time=0\n",
      "note_on channel=0 note=60 velocity=127 time=0.011458333333333333\n",
      "note_off channel=0 note=62 velocity=127 time=0.008333333333333333\n",
      "note_off channel=0 note=60 velocity=127 time=0.011458333333333333\n",
      "note_on channel=0 note=61 velocity=127 time=0.025\n",
      "note_off channel=0 note=61 velocity=127 time=0.019791666666666666\n",
      "note_on channel=0 note=61 velocity=127 time=0.057291666666666664\n",
      "note_off channel=0 note=61 velocity=127 time=0.019791666666666666\n",
      "note_on channel=0 note=60 velocity=127 time=0.017708333333333333\n",
      "note_off channel=0 note=60 velocity=127 time=0.019791666666666666\n",
      "note_on channel=0 note=61 velocity=127 time=0.019791666666666666\n",
      "note_off channel=0 note=61 velocity=127 time=0.019791666666666666\n",
      "note_on channel=0 note=62 velocity=127 time=0.016666666666666666\n",
      "note_off channel=0 note=62 velocity=127 time=0.019791666666666666\n",
      "note_on channel=0 note=61 velocity=127 time=0.020833333333333332\n",
      "note_off channel=0 note=61 velocity=127 time=0.019791666666666666\n",
      "note_on channel=0 note=60 velocity=127 time=0.022916666666666665\n",
      "note_off channel=0 note=60 velocity=127 time=0.019791666666666666\n",
      "note_on channel=0 note=61 velocity=127 time=0.014583333333333334\n",
      "note_off channel=0 note=61 velocity=127 time=0.019791666666666666\n",
      "note_on channel=0 note=61 velocity=127 time=0.057291666666666664\n",
      "note_off channel=0 note=61 velocity=127 time=0.019791666666666666\n",
      "note_on channel=0 note=60 velocity=127 time=0.028125\n",
      "note_on channel=0 note=62 velocity=127 time=0.004166666666666667\n",
      "note_off channel=0 note=60 velocity=127 time=0.015625\n",
      "note_off channel=0 note=62 velocity=127 time=0.004166666666666667\n",
      "note_on channel=0 note=61 velocity=127 time=0.005208333333333333\n",
      "note_off channel=0 note=61 velocity=127 time=0.019791666666666666\n",
      "note_on channel=0 note=61 velocity=127 time=0.057291666666666664\n",
      "note_off channel=0 note=61 velocity=127 time=0.019791666666666666\n",
      "note_on channel=0 note=60 velocity=127 time=0.03333333333333333\n",
      "note_off channel=0 note=60 velocity=127 time=0.019791666666666666\n",
      "note_on channel=0 note=61 velocity=127 time=0.004166666666666667\n",
      "note_off channel=0 note=61 velocity=127 time=0.019791666666666666\n",
      "note_on channel=0 note=62 velocity=127 time=0.04791666666666666\n",
      "note_on channel=0 note=61 velocity=127 time=0.009375\n",
      "note_off channel=0 note=62 velocity=127 time=0.010416666666666666\n",
      "note_off channel=0 note=61 velocity=127 time=0.009375\n",
      "note_on channel=0 note=60 velocity=127 time=0.03854166666666667\n",
      "note_on channel=0 note=61 velocity=127 time=0.01875\n",
      "note_off channel=0 note=60 velocity=127 time=0.0010416666666666667\n",
      "note_off channel=0 note=61 velocity=127 time=0.01875\n",
      "note_on channel=0 note=61 velocity=127 time=0.057291666666666664\n",
      "note_off channel=0 note=61 velocity=127 time=0.019791666666666666\n"
     ]
    },
    {
     "name": "stdout",
     "output_type": "stream",
     "text": [
      "note_on channel=0 note=60 velocity=127 time=0.04375\n",
      "note_on channel=0 note=61 velocity=127 time=0.013541666666666667\n",
      "note_on channel=0 note=62 velocity=127 time=0.00625\n",
      "note_off channel=0 note=60 velocity=127 time=0\n",
      "note_off channel=0 note=61 velocity=127 time=0.013541666666666667\n",
      "note_off channel=0 note=62 velocity=127 time=0.00625\n",
      "note_on channel=0 note=61 velocity=127 time=0.051041666666666666\n",
      "note_off channel=0 note=61 velocity=127 time=0.019791666666666666\n",
      "note_on channel=0 note=60 velocity=127 time=0.05\n",
      "note_on channel=0 note=61 velocity=127 time=0.008333333333333333\n",
      "note_off channel=0 note=60 velocity=127 time=0.0125\n",
      "note_off channel=0 note=61 velocity=127 time=0.008333333333333333\n",
      "note_on channel=0 note=61 velocity=127 time=0.057291666666666664\n",
      "note_off channel=0 note=61 velocity=127 time=0.019791666666666666\n",
      "note_on channel=0 note=62 velocity=127 time=0.0020833333333333333\n",
      "note_off channel=0 note=62 velocity=127 time=0.019791666666666666\n",
      "note_on channel=0 note=60 velocity=127 time=0.03229166666666666\n",
      "note_on channel=0 note=61 velocity=127 time=0.0020833333333333333\n",
      "note_off channel=0 note=60 velocity=127 time=0.017708333333333333\n",
      "note_off channel=0 note=61 velocity=127 time=0.0020833333333333333\n",
      "note_on channel=0 note=61 velocity=127 time=0.057291666666666664\n",
      "note_off channel=0 note=61 velocity=127 time=0.019791666666666666\n",
      "note_on channel=0 note=61 velocity=127 time=0.057291666666666664\n",
      "note_on channel=0 note=60 velocity=127 time=0.003125\n",
      "note_off channel=0 note=61 velocity=127 time=0.016666666666666666\n",
      "note_off channel=0 note=60 velocity=127 time=0.003125\n",
      "note_on channel=0 note=62 velocity=127 time=0.015625\n",
      "note_off channel=0 note=62 velocity=127 time=0.019791666666666666\n",
      "note_on channel=0 note=61 velocity=127 time=0.01875\n",
      "note_off channel=0 note=61 velocity=127 time=0.019791666666666666\n",
      "note_on channel=0 note=61 velocity=127 time=0.057291666666666664\n",
      "note_on channel=0 note=60 velocity=127 time=0.008333333333333333\n",
      "note_off channel=0 note=61 velocity=127 time=0.011458333333333333\n",
      "note_off channel=0 note=60 velocity=127 time=0.008333333333333333\n",
      "note_on channel=0 note=61 velocity=127 time=0.04895833333333333\n",
      "note_off channel=0 note=61 velocity=127 time=0.019791666666666666\n",
      "note_on channel=0 note=62 velocity=127 time=0.034375\n",
      "note_off channel=0 note=62 velocity=127 time=0.019791666666666666\n",
      "note_on channel=0 note=61 velocity=127 time=0.003125\n",
      "note_on channel=0 note=60 velocity=127 time=0.013541666666666667\n",
      "note_off channel=0 note=61 velocity=127 time=0.00625\n",
      "note_off channel=0 note=60 velocity=127 time=0.013541666666666667\n",
      "note_on channel=0 note=61 velocity=127 time=0.04375\n",
      "note_off channel=0 note=61 velocity=127 time=0.019791666666666666\n",
      "note_on channel=0 note=61 velocity=127 time=0.057291666666666664\n",
      "\u001b[91m [DEBUG] > \u001b[0m\n",
      " |>  to_array: msg.time > max_t; t, n\n",
      " |>  2.029166666666667\n",
      " |>  100\n",
      "note_on channel=0 note=62 velocity=127 time=0.004166666666666667\n",
      "note_on channel=0 note=60 velocity=127 time=0.014583333333333334\n",
      "note_off channel=0 note=62 velocity=127 time=0.005208333333333333\n",
      "note_off channel=0 note=60 velocity=127 time=0.014583333333333334\n",
      "note_on channel=0 note=61 velocity=127 time=0.022916666666666665\n",
      "note_off channel=0 note=61 velocity=127 time=0.019791666666666666\n",
      "note_on channel=0 note=60 velocity=127 time=0.028125\n",
      "note_off channel=0 note=60 velocity=127 time=0.019791666666666666\n",
      "note_on channel=0 note=61 velocity=127 time=0.010416666666666666\n",
      "note_off channel=0 note=61 velocity=127 time=0.019791666666666666\n",
      "note_on channel=0 note=60 velocity=127 time=0.040625\n",
      "note_on channel=0 note=61 velocity=127 time=0.01875\n",
      "note_off channel=0 note=60 velocity=127 time=0.0010416666666666667\n",
      "note_off channel=0 note=61 velocity=127 time=0.01875\n",
      "note_on channel=0 note=60 velocity=127 time=0.052083333333333336\n",
      "note_on channel=0 note=61 velocity=127 time=0.007291666666666667\n",
      "note_on channel=0 note=62 velocity=127 time=0.003125\n",
      "note_off channel=0 note=60 velocity=127 time=0.010416666666666666\n",
      "note_off channel=0 note=61 velocity=127 time=0.007291666666666667\n",
      "note_off channel=0 note=62 velocity=127 time=0.003125\n",
      "note_on channel=0 note=61 velocity=127 time=0.05625\n",
      "note_on channel=0 note=60 velocity=127 time=0.005208333333333333\n",
      "note_off channel=0 note=61 velocity=127 time=0.014583333333333334\n",
      "note_off channel=0 note=60 velocity=127 time=0.005208333333333333\n",
      "note_on channel=0 note=61 velocity=127 time=0.05416666666666667\n",
      "note_on channel=0 note=60 velocity=127 time=0.016666666666666666\n",
      "note_off channel=0 note=61 velocity=127 time=0.003125\n",
      "note_off channel=0 note=60 velocity=127 time=0.016666666666666666\n",
      "note_on channel=0 note=61 velocity=127 time=0.041666666666666664\n",
      "note_off channel=0 note=61 velocity=127 time=0.019791666666666666\n",
      "note_on channel=0 note=60 velocity=127 time=0.009375\n",
      "note_off channel=0 note=60 velocity=127 time=0.019791666666666666\n",
      "note_on channel=0 note=62 velocity=127 time=0.014583333333333334\n",
      "note_on channel=0 note=61 velocity=127 time=0.015625\n",
      "note_off channel=0 note=62 velocity=127 time=0.005208333333333333\n",
      "note_off channel=0 note=61 velocity=127 time=0.015625\n",
      "note_on channel=0 note=60 velocity=127 time=0.020833333333333332\n",
      "note_off channel=0 note=60 velocity=127 time=0.019791666666666666\n",
      "note_on channel=0 note=61 velocity=127 time=0.017708333333333333\n",
      "note_off channel=0 note=61 velocity=127 time=0.019791666666666666\n",
      "note_on channel=0 note=60 velocity=127 time=0.03333333333333333\n",
      "note_off channel=0 note=60 velocity=127 time=0.019791666666666666\n",
      "note_on channel=0 note=61 velocity=127 time=0.00625\n",
      "note_off channel=0 note=61 velocity=127 time=0.019791666666666666\n",
      "note_on channel=0 note=60 velocity=127 time=0.04479166666666667\n",
      "note_on channel=0 note=61 velocity=127 time=0.014583333333333334\n",
      "note_off channel=0 note=60 velocity=127 time=0.00625\n",
      "note_off channel=0 note=61 velocity=127 time=0.014583333333333334\n",
      "note_on channel=0 note=62 velocity=127 time=0.025\n",
      "note_off channel=0 note=62 velocity=127 time=0.019791666666666666\n",
      "note_on channel=0 note=60 velocity=127 time=0.011458333333333333\n",
      "note_on channel=0 note=61 velocity=127 time=0.0020833333333333333\n",
      "note_off channel=0 note=60 velocity=127 time=0.017708333333333333\n",
      "note_off channel=0 note=61 velocity=127 time=0.0020833333333333333\n",
      "note_on channel=0 note=61 velocity=127 time=0.059375\n",
      "note_on channel=0 note=60 velocity=127 time=0.009375\n",
      "note_off channel=0 note=61 velocity=127 time=0.010416666666666666\n",
      "note_off channel=0 note=60 velocity=127 time=0.009375\n",
      "note_on channel=0 note=61 velocity=127 time=0.04895833333333333\n",
      "note_off channel=0 note=61 velocity=127 time=0.019791666666666666\n",
      "note_on channel=0 note=60 velocity=127 time=0.0020833333333333333\n",
      "note_off channel=0 note=60 velocity=127 time=0.019791666666666666\n",
      "note_on channel=0 note=61 velocity=127 time=0.0375\n",
      "note_off channel=0 note=61 velocity=127 time=0.019791666666666666\n",
      "note_on channel=0 note=62 velocity=127 time=0.007291666666666667\n",
      "note_on channel=0 note=60 velocity=127 time=0.00625\n",
      "note_off channel=0 note=62 velocity=127 time=0.013541666666666667\n",
      "note_off channel=0 note=60 velocity=127 time=0.00625\n",
      "note_on channel=0 note=61 velocity=127 time=0.025\n",
      "note_off channel=0 note=61 velocity=127 time=0.019791666666666666\n",
      "note_on channel=0 note=60 velocity=127 time=0.026041666666666668\n",
      "note_off channel=0 note=60 velocity=127 time=0.019791666666666666\n",
      "note_on channel=0 note=61 velocity=127 time=0.013541666666666667\n",
      "note_off channel=0 note=61 velocity=127 time=0.019791666666666666\n",
      "note_on channel=0 note=60 velocity=127 time=0.0375\n",
      "note_off channel=0 note=60 velocity=127 time=0.019791666666666666\n",
      "note_on channel=0 note=61 velocity=127 time=0.0010416666666666667\n",
      "note_off channel=0 note=61 velocity=127 time=0.019791666666666666\n",
      "note_on channel=0 note=60 velocity=127 time=0.05\n",
      "note_on channel=0 note=61 velocity=127 time=0.009375\n",
      "note_on channel=0 note=62 velocity=127 time=0.009375\n",
      "note_off channel=0 note=60 velocity=127 time=0.0020833333333333333\n",
      "note_off channel=0 note=61 velocity=127 time=0.009375\n",
      "note_off channel=0 note=62 velocity=127 time=0.009375\n",
      "note_on channel=0 note=61 velocity=127 time=0.05\n",
      "note_on channel=0 note=60 velocity=127 time=0.0020833333333333333\n",
      "note_off channel=0 note=61 velocity=127 time=0.017708333333333333\n",
      "note_off channel=0 note=60 velocity=127 time=0.0020833333333333333\n",
      "note_on channel=0 note=61 velocity=127 time=0.05625\n",
      "note_on channel=0 note=60 velocity=127 time=0.014583333333333334\n",
      "note_off channel=0 note=61 velocity=127 time=0.005208333333333333\n",
      "note_off channel=0 note=60 velocity=127 time=0.014583333333333334\n",
      "note_on channel=0 note=61 velocity=127 time=0.04479166666666667\n",
      "note_off channel=0 note=61 velocity=127 time=0.019791666666666666\n",
      "note_on channel=0 note=60 velocity=127 time=0.00625\n",
      "note_off channel=0 note=60 velocity=127 time=0.019791666666666666\n",
      "note_on channel=0 note=62 velocity=127 time=0.022916666666666665\n",
      "note_on channel=0 note=61 velocity=127 time=0.009375\n",
      "note_off channel=0 note=62 velocity=127 time=0.010416666666666666\n",
      "note_off channel=0 note=61 velocity=127 time=0.009375\n",
      "note_on channel=0 note=60 velocity=127 time=0.01875\n",
      "note_off channel=0 note=60 velocity=127 time=0.019791666666666666\n",
      "note_on channel=0 note=61 velocity=127 time=0.020833333333333332\n",
      "note_off channel=0 note=61 velocity=127 time=0.019791666666666666\n",
      "note_on channel=0 note=60 velocity=127 time=0.030208333333333334\n",
      "note_off channel=0 note=60 velocity=127 time=0.019791666666666666\n",
      "note_on channel=0 note=61 velocity=127 time=0.008333333333333333\n",
      "note_off channel=0 note=61 velocity=127 time=0.019791666666666666\n",
      "note_on channel=0 note=60 velocity=127 time=0.042708333333333334\n",
      "\u001b[91m [DEBUG] > \u001b[0m\n",
      " |>  to_array: msg.time > max_t; t, n\n",
      " |>  2.0177083333333328\n",
      " |>  100\n",
      "note_on channel=0 note=60 velocity=127 time=0.010416666666666666\n",
      "note_off channel=0 note=60 velocity=127 time=0.019791666666666666\n",
      "note_on channel=0 note=61 velocity=127 time=0.013541666666666667\n",
      "note_off channel=0 note=61 velocity=127 time=0.019791666666666666\n",
      "note_on channel=0 note=61 velocity=127 time=0.057291666666666664\n",
      "note_off channel=0 note=61 velocity=127 time=0.019791666666666666\n",
      "note_on channel=0 note=62 velocity=127 time=0.04375\n",
      "note_on channel=0 note=61 velocity=127 time=0.013541666666666667\n",
      "note_off channel=0 note=62 velocity=127 time=0.00625\n",
      "note_on channel=0 note=60 velocity=127 time=0.0125\n",
      "note_off channel=0 note=61 velocity=127 time=0.0020833333333333333\n",
      "note_off channel=0 note=60 velocity=127 time=0.017708333333333333\n",
      "note_on channel=0 note=61 velocity=127 time=0.03958333333333333\n",
      "note_off channel=0 note=61 velocity=127 time=0.019791666666666666\n",
      "note_on channel=0 note=61 velocity=127 time=0.057291666666666664\n",
      "note_off channel=0 note=61 velocity=127 time=0.019791666666666666\n",
      "note_on channel=0 note=62 velocity=127 time=0.005208333333333333\n",
      "note_off channel=0 note=62 velocity=127 time=0.019791666666666666\n",
      "note_on channel=0 note=60 velocity=127 time=0.025\n",
      "note_on channel=0 note=61 velocity=127 time=0.007291666666666667\n",
      "note_off channel=0 note=60 velocity=127 time=0.0125\n",
      "note_off channel=0 note=61 velocity=127 time=0.007291666666666667\n",
      "note_on channel=0 note=61 velocity=127 time=0.057291666666666664\n",
      "note_off channel=0 note=61 velocity=127 time=0.019791666666666666\n",
      "note_on channel=0 note=62 velocity=127 time=0.04375\n",
      "note_on channel=0 note=61 velocity=127 time=0.013541666666666667\n",
      "note_off channel=0 note=62 velocity=127 time=0.00625\n",
      "note_off channel=0 note=61 velocity=127 time=0.013541666666666667\n",
      "note_on channel=0 note=60 velocity=127 time=0.02395833333333333\n",
      "note_off channel=0 note=60 velocity=127 time=0.019791666666666666\n",
      "note_on channel=0 note=61 velocity=127 time=0.013541666666666667\n",
      "note_off channel=0 note=61 velocity=127 time=0.019791666666666666\n",
      "note_on channel=0 note=61 velocity=127 time=0.057291666666666664\n",
      "note_off channel=0 note=61 velocity=127 time=0.019791666666666666\n",
      "note_on channel=0 note=62 velocity=127 time=0.005208333333333333\n",
      "note_off channel=0 note=62 velocity=127 time=0.019791666666666666\n",
      "note_on channel=0 note=61 velocity=127 time=0.03229166666666666\n",
      "note_on channel=0 note=60 velocity=127 time=0.01875\n",
      "note_off channel=0 note=61 velocity=127 time=0.0010416666666666667\n",
      "note_off channel=0 note=60 velocity=127 time=0.01875\n",
      "note_on channel=0 note=61 velocity=127 time=0.03854166666666667\n",
      "note_off channel=0 note=61 velocity=127 time=0.019791666666666666\n",
      "note_on channel=0 note=62 velocity=127 time=0.04479166666666667\n",
      "note_on channel=0 note=61 velocity=127 time=0.013541666666666667\n",
      "note_off channel=0 note=62 velocity=127 time=0.007291666666666667\n",
      "note_off channel=0 note=61 velocity=127 time=0.013541666666666667\n",
      "note_on channel=0 note=60 velocity=127 time=0.051041666666666666\n",
      "note_on channel=0 note=61 velocity=127 time=0.007291666666666667\n",
      "note_off channel=0 note=60 velocity=127 time=0.0125\n",
      "note_off channel=0 note=61 velocity=127 time=0.007291666666666667\n",
      "note_on channel=0 note=61 velocity=127 time=0.057291666666666664\n",
      "note_off channel=0 note=61 velocity=127 time=0.019791666666666666\n",
      "note_on channel=0 note=62 velocity=127 time=0.00625\n",
      "note_off channel=0 note=62 velocity=127 time=0.019791666666666666\n",
      "note_on channel=0 note=61 velocity=127 time=0.03125\n",
      "note_off channel=0 note=61 velocity=127 time=0.019791666666666666\n",
      "note_on channel=0 note=60 velocity=127 time=0.025\n",
      "note_off channel=0 note=60 velocity=127 time=0.019791666666666666\n",
      "note_on channel=0 note=61 velocity=127 time=0.0125\n",
      "note_off channel=0 note=61 velocity=127 time=0.019791666666666666\n",
      "note_on channel=0 note=62 velocity=127 time=0.04479166666666667\n",
      "note_on channel=0 note=61 velocity=127 time=0.0125\n",
      "note_off channel=0 note=62 velocity=127 time=0.007291666666666667\n",
      "note_off channel=0 note=61 velocity=127 time=0.0125\n",
      "note_on channel=0 note=61 velocity=127 time=0.057291666666666664\n",
      "note_on channel=0 note=60 velocity=127 time=0.01875\n",
      "note_off channel=0 note=61 velocity=127 time=0.0010416666666666667\n",
      "note_off channel=0 note=60 velocity=127 time=0.01875\n",
      "note_on channel=0 note=61 velocity=127 time=0.03854166666666667\n",
      "note_off channel=0 note=61 velocity=127 time=0.019791666666666666\n",
      "note_on channel=0 note=62 velocity=127 time=0.00625\n",
      "note_off channel=0 note=62 velocity=127 time=0.019791666666666666\n",
      "note_on channel=0 note=61 velocity=127 time=0.03125\n",
      "note_off channel=0 note=61 velocity=127 time=0.019791666666666666\n",
      "note_on channel=0 note=60 velocity=127 time=0.051041666666666666\n",
      "note_on channel=0 note=61 velocity=127 time=0.00625\n",
      "note_off channel=0 note=60 velocity=127 time=0.013541666666666667\n",
      "note_off channel=0 note=61 velocity=127 time=0.00625\n",
      "note_on channel=0 note=62 velocity=127 time=0.04479166666666667\n",
      "note_on channel=0 note=61 velocity=127 time=0.0125\n",
      "note_off channel=0 note=62 velocity=127 time=0.007291666666666667\n",
      "note_off channel=0 note=61 velocity=127 time=0.0125\n",
      "note_on channel=0 note=61 velocity=127 time=0.057291666666666664\n",
      "note_off channel=0 note=61 velocity=127 time=0.019791666666666666\n",
      "note_on channel=0 note=60 velocity=127 time=0.025\n",
      "note_off channel=0 note=60 velocity=127 time=0.019791666666666666\n",
      "note_on channel=0 note=61 velocity=127 time=0.0125\n",
      "note_off channel=0 note=61 velocity=127 time=0.019791666666666666\n",
      "note_on channel=0 note=62 velocity=127 time=0.00625\n",
      "note_off channel=0 note=62 velocity=127 time=0.019791666666666666\n",
      "note_on channel=0 note=61 velocity=127 time=0.03125\n",
      "note_off channel=0 note=61 velocity=127 time=0.019791666666666666\n",
      "\u001b[91m [DEBUG] > \u001b[0m\n",
      " |>  to_array: msg.time > max_t; t, n\n",
      " |>  1.9947916666666665\n",
      " |>  100\n",
      "note_on channel=0 note=60 velocity=127 time=0.0010416666666666667\n",
      "note_off channel=0 note=60 velocity=127 time=0.019791666666666666\n",
      "note_on channel=0 note=61 velocity=127 time=0.005208333333333333\n",
      "note_off channel=0 note=61 velocity=127 time=0.019791666666666666\n",
      "note_on channel=0 note=60 velocity=127 time=0.0375\n",
      "note_on channel=0 note=61 velocity=127 time=0.0125\n",
      "note_off channel=0 note=60 velocity=127 time=0.007291666666666667\n",
      "note_off channel=0 note=61 velocity=127 time=0.0125\n",
      "note_on channel=0 note=62 velocity=127 time=0.02395833333333333\n",
      "note_off channel=0 note=62 velocity=127 time=0.019791666666666666\n",
      "note_on channel=0 note=60 velocity=127 time=0.005208333333333333\n",
      "note_on channel=0 note=61 velocity=127 time=0\n",
      "note_off channel=0 note=60 velocity=127 time=0.019791666666666666\n",
      "note_off channel=0 note=61 velocity=127 time=0\n",
      "note_on channel=0 note=61 velocity=127 time=0.05\n",
      "note_on channel=0 note=60 velocity=127 time=0.0125\n",
      "note_off channel=0 note=61 velocity=127 time=0.007291666666666667\n",
      "note_off channel=0 note=60 velocity=127 time=0.0125\n",
      "note_on channel=0 note=61 velocity=127 time=0.0375\n",
      "note_on channel=0 note=62 velocity=127 time=0.0020833333333333333\n",
      "note_off channel=0 note=61 velocity=127 time=0.017708333333333333\n",
      "note_off channel=0 note=62 velocity=127 time=0.0020833333333333333\n",
      "note_on channel=0 note=60 velocity=127 time=0.003125\n",
      "note_off channel=0 note=60 velocity=127 time=0.019791666666666666\n",
      "note_on channel=0 note=61 velocity=127 time=0.025\n",
      "note_off channel=0 note=61 velocity=127 time=0.019791666666666666\n",
      "note_on channel=0 note=60 velocity=127 time=0.017708333333333333\n",
      "note_off channel=0 note=60 velocity=127 time=0.019791666666666666\n",
      "note_on channel=0 note=61 velocity=127 time=0.0125\n",
      "note_off channel=0 note=61 velocity=127 time=0.019791666666666666\n",
      "note_on channel=0 note=62 velocity=127 time=0.009375\n",
      "note_off channel=0 note=62 velocity=127 time=0.019791666666666666\n",
      "note_on channel=0 note=60 velocity=127 time=0\n",
      "note_off channel=0 note=60 velocity=127 time=0.019791666666666666\n",
      "note_on channel=0 note=61 velocity=127 time=0\n",
      "note_off channel=0 note=61 velocity=127 time=0.019791666666666666\n",
      "note_on channel=0 note=60 velocity=127 time=0.042708333333333334\n",
      "note_on channel=0 note=61 velocity=127 time=0.007291666666666667\n",
      "note_off channel=0 note=60 velocity=127 time=0.0125\n",
      "note_off channel=0 note=61 velocity=127 time=0.007291666666666667\n",
      "note_on channel=0 note=62 velocity=127 time=0.0375\n",
      "note_on channel=0 note=61 velocity=127 time=0.0125\n",
      "note_on channel=0 note=60 velocity=127 time=0.005208333333333333\n",
      "note_off channel=0 note=62 velocity=127 time=0.0020833333333333333\n",
      "note_off channel=0 note=61 velocity=127 time=0.0125\n",
      "note_off channel=0 note=60 velocity=127 time=0.005208333333333333\n",
      "note_on channel=0 note=61 velocity=127 time=0.04479166666666667\n",
      "note_on channel=0 note=60 velocity=127 time=0.017708333333333333\n",
      "note_off channel=0 note=61 velocity=127 time=0.0020833333333333333\n",
      "note_off channel=0 note=60 velocity=127 time=0.017708333333333333\n",
      "note_on channel=0 note=61 velocity=127 time=0.03229166666666666\n",
      "note_on channel=0 note=62 velocity=127 time=0.015625\n",
      "note_off channel=0 note=61 velocity=127 time=0.005208333333333333\n",
      "note_on channel=0 note=60 velocity=127 time=0.010416666666666666\n",
      "note_off channel=0 note=62 velocity=127 time=0.005208333333333333\n",
      "note_off channel=0 note=60 velocity=127 time=0.014583333333333334\n",
      "note_on channel=0 note=61 velocity=127 time=0.019791666666666666\n",
      "note_off channel=0 note=61 velocity=127 time=0.019791666666666666\n",
      "note_on channel=0 note=60 velocity=127 time=0.022916666666666665\n",
      "note_off channel=0 note=60 velocity=127 time=0.019791666666666666\n",
      "note_on channel=0 note=61 velocity=127 time=0.007291666666666667\n",
      "note_off channel=0 note=61 velocity=127 time=0.019791666666666666\n",
      "note_on channel=0 note=62 velocity=127 time=0.022916666666666665\n",
      "note_on channel=0 note=60 velocity=127 time=0.0125\n",
      "note_off channel=0 note=62 velocity=127 time=0.007291666666666667\n",
      "note_on channel=0 note=61 velocity=127 time=0.007291666666666667\n",
      "note_off channel=0 note=60 velocity=127 time=0.005208333333333333\n",
      "note_off channel=0 note=61 velocity=127 time=0.014583333333333334\n",
      "note_on channel=0 note=60 velocity=127 time=0.04791666666666666\n",
      "note_on channel=0 note=61 velocity=127 time=0.0020833333333333333\n",
      "note_off channel=0 note=60 velocity=127 time=0.017708333333333333\n",
      "note_off channel=0 note=61 velocity=127 time=0.0020833333333333333\n",
      "note_on channel=0 note=61 velocity=127 time=0.05\n",
      "note_on channel=0 note=62 velocity=127 time=0\n",
      "note_on channel=0 note=60 velocity=127 time=0.009375\n",
      "note_off channel=0 note=61 velocity=127 time=0.009375\n",
      "note_off channel=0 note=62 velocity=127 time=0\n",
      "note_off channel=0 note=60 velocity=127 time=0.009375\n",
      "note_on channel=0 note=61 velocity=127 time=0.03958333333333333\n",
      "note_off channel=0 note=61 velocity=127 time=0.019791666666666666\n",
      "note_on channel=0 note=60 velocity=127 time=0.003125\n",
      "note_off channel=0 note=60 velocity=127 time=0.019791666666666666\n",
      "note_on channel=0 note=61 velocity=127 time=0.027083333333333334\n",
      "note_off channel=0 note=61 velocity=127 time=0.019791666666666666\n",
      "note_on channel=0 note=62 velocity=127 time=0.008333333333333333\n",
      "note_on channel=0 note=60 velocity=127 time=0.007291666666666667\n",
      "note_off channel=0 note=62 velocity=127 time=0.0125\n",
      "note_off channel=0 note=60 velocity=127 time=0.007291666666666667\n",
      "note_on channel=0 note=61 velocity=127 time=0.014583333333333334\n",
      "note_off channel=0 note=61 velocity=127 time=0.019791666666666666\n",
      "note_on channel=0 note=60 velocity=127 time=0.028125\n",
      "note_off channel=0 note=60 velocity=127 time=0.019791666666666666\n",
      "note_on channel=0 note=61 velocity=127 time=0.0020833333333333333\n",
      "note_off channel=0 note=61 velocity=127 time=0.019791666666666666\n",
      "note_on channel=0 note=62 velocity=127 time=0.036458333333333336\n",
      "note_on channel=0 note=60 velocity=127 time=0.004166666666666667\n",
      "note_on channel=0 note=61 velocity=127 time=0.009375\n",
      "note_off channel=0 note=62 velocity=127 time=0.00625\n",
      "note_off channel=0 note=60 velocity=127 time=0.004166666666666667\n",
      "note_off channel=0 note=61 velocity=127 time=0.009375\n",
      "note_on channel=0 note=61 velocity=127 time=0.05\n",
      "note_on channel=0 note=60 velocity=127 time=0.003125\n",
      "note_off channel=0 note=61 velocity=127 time=0.016666666666666666\n",
      "note_off channel=0 note=60 velocity=127 time=0.003125\n",
      "note_on channel=0 note=61 velocity=127 time=0.046875\n",
      "note_on channel=0 note=62 velocity=127 time=0.013541666666666667\n",
      "note_on channel=0 note=60 velocity=127 time=0.0020833333333333333\n",
      "note_off channel=0 note=61 velocity=127 time=0.004166666666666667\n",
      "note_off channel=0 note=62 velocity=127 time=0.013541666666666667\n",
      "note_off channel=0 note=60 velocity=127 time=0.0020833333333333333\n",
      "note_on channel=0 note=61 velocity=127 time=0.034375\n",
      "note_off channel=0 note=61 velocity=127 time=0.019791666666666666\n",
      "note_on channel=0 note=60 velocity=127 time=0.008333333333333333\n",
      "note_off channel=0 note=60 velocity=127 time=0.019791666666666666\n",
      "note_on channel=0 note=61 velocity=127 time=0.021875\n",
      "note_off channel=0 note=61 velocity=127 time=0.019791666666666666\n",
      "note_on channel=0 note=60 velocity=127 time=0.020833333333333332\n",
      "note_on channel=0 note=62 velocity=127 time=0.0010416666666666667\n",
      "note_off channel=0 note=60 velocity=127 time=0.01875\n",
      "note_off channel=0 note=62 velocity=127 time=0.0010416666666666667\n",
      "note_on channel=0 note=61 velocity=127 time=0.008333333333333333\n",
      "note_off channel=0 note=61 velocity=127 time=0.019791666666666666\n",
      "note_on channel=0 note=60 velocity=127 time=0.03333333333333333\n",
      "note_on channel=0 note=61 velocity=127 time=0.016666666666666666\n",
      "note_off channel=0 note=60 velocity=127 time=0.003125\n",
      "note_off channel=0 note=61 velocity=127 time=0.016666666666666666\n",
      "note_on channel=0 note=60 velocity=127 time=0.04583333333333333\n",
      "note_on channel=0 note=62 velocity=127 time=0.003125\n",
      "note_on channel=0 note=61 velocity=127 time=0.0010416666666666667\n",
      "note_off channel=0 note=60 velocity=127 time=0.015625\n",
      "\u001b[91m [DEBUG] > \u001b[0m\n",
      " |>  to_array: msg.time > max_t; t, n\n",
      " |>  1.992708333333333\n",
      " |>  100\n",
      "note_on channel=0 note=62 velocity=127 time=0.03854166666666667\n",
      "note_on channel=0 note=61 velocity=127 time=0.014583333333333334\n",
      "note_off channel=0 note=62 velocity=127 time=0.005208333333333333\n",
      "note_on channel=0 note=60 velocity=127 time=0.008333333333333333\n",
      "note_off channel=0 note=61 velocity=127 time=0.007291666666666667\n",
      "note_off channel=0 note=60 velocity=127 time=0.0125\n",
      "note_on channel=0 note=60 velocity=127 time=0.06875\n",
      "note_on channel=0 note=62 velocity=127 time=0.016666666666666666\n",
      "note_on channel=0 note=61 velocity=127 time=0\n",
      "note_off channel=0 note=60 velocity=127 time=0.003125\n",
      "note_off channel=0 note=62 velocity=127 time=0.016666666666666666\n",
      "note_off channel=0 note=61 velocity=127 time=0\n",
      "note_on channel=0 note=60 velocity=127 time=0.052083333333333336\n",
      "note_off channel=0 note=60 velocity=127 time=0.019791666666666666\n",
      "note_on channel=0 note=61 velocity=127 time=0.026041666666666668\n",
      "note_on channel=0 note=62 velocity=127 time=0.014583333333333334\n",
      "note_off channel=0 note=61 velocity=127 time=0.00625\n",
      "note_off channel=0 note=62 velocity=127 time=0.014583333333333334\n",
      "note_on channel=0 note=60 velocity=127 time=0.008333333333333333\n",
      "note_off channel=0 note=60 velocity=127 time=0.019791666666666666\n",
      "note_on channel=0 note=61 velocity=127 time=0.05625\n",
      "note_on channel=0 note=60 velocity=127 time=0.013541666666666667\n",
      "note_off channel=0 note=61 velocity=127 time=0.007291666666666667\n",
      "note_on channel=0 note=62 velocity=127 time=0.008333333333333333\n",
      "note_off channel=0 note=60 velocity=127 time=0.004166666666666667\n",
      "note_off channel=0 note=62 velocity=127 time=0.015625\n",
      "note_on channel=0 note=60 velocity=127 time=0.053125\n",
      "note_on channel=0 note=61 velocity=127 time=0.016666666666666666\n",
      "note_off channel=0 note=60 velocity=127 time=0.003125\n",
      "note_off channel=0 note=61 velocity=127 time=0.016666666666666666\n",
      "note_on channel=0 note=62 velocity=127 time=0.022916666666666665\n",
      "note_off channel=0 note=62 velocity=127 time=0.019791666666666666\n",
      "note_on channel=0 note=60 velocity=127 time=0.009375\n",
      "note_off channel=0 note=60 velocity=127 time=0.019791666666666666\n",
      "note_on channel=0 note=61 velocity=127 time=0.026041666666666668\n",
      "note_off channel=0 note=61 velocity=127 time=0.019791666666666666\n",
      "note_on channel=0 note=60 velocity=127 time=0.022916666666666665\n",
      "note_on channel=0 note=62 velocity=127 time=0.014583333333333334\n",
      "note_off channel=0 note=60 velocity=127 time=0.005208333333333333\n",
      "note_off channel=0 note=62 velocity=127 time=0.014583333333333334\n",
      "note_on channel=0 note=61 velocity=127 time=0.040625\n",
      "note_on channel=0 note=60 velocity=127 time=0.013541666666666667\n",
      "note_off channel=0 note=61 velocity=127 time=0.00625\n",
      "note_off channel=0 note=60 velocity=127 time=0.013541666666666667\n",
      "note_on channel=0 note=62 velocity=127 time=0.03958333333333333\n",
      "note_off channel=0 note=62 velocity=127 time=0.019791666666666666\n",
      "note_on channel=0 note=60 velocity=127 time=0.010416666666666666\n",
      "note_on channel=0 note=61 velocity=127 time=0.016666666666666666\n",
      "note_off channel=0 note=60 velocity=127 time=0.003125\n",
      "note_off channel=0 note=61 velocity=127 time=0.016666666666666666\n",
      "note_on channel=0 note=60 velocity=127 time=0.053125\n",
      "note_on channel=0 note=62 velocity=127 time=0.014583333333333334\n",
      "note_off channel=0 note=60 velocity=127 time=0.00625\n"
     ]
    },
    {
     "name": "stdout",
     "output_type": "stream",
     "text": [
      "note_off channel=0 note=62 velocity=127 time=0.014583333333333334\n",
      "note_on channel=0 note=61 velocity=127 time=0.011458333333333333\n",
      "note_off channel=0 note=61 velocity=127 time=0.019791666666666666\n",
      "note_on channel=0 note=60 velocity=127 time=0.022916666666666665\n",
      "note_off channel=0 note=60 velocity=127 time=0.019791666666666666\n",
      "note_on channel=0 note=62 velocity=127 time=0.03854166666666667\n",
      "note_on channel=0 note=61 velocity=127 time=0.017708333333333333\n",
      "note_off channel=0 note=62 velocity=127 time=0.003125\n",
      "note_on channel=0 note=60 velocity=127 time=0.010416666666666666\n",
      "note_off channel=0 note=61 velocity=127 time=0.00625\n",
      "note_off channel=0 note=60 velocity=127 time=0.013541666666666667\n",
      "note_on channel=0 note=60 velocity=127 time=0.06875\n",
      "note_on channel=0 note=62 velocity=127 time=0.013541666666666667\n",
      "note_on channel=0 note=61 velocity=127 time=0.003125\n",
      "note_off channel=0 note=60 velocity=127 time=0.004166666666666667\n",
      "note_off channel=0 note=62 velocity=127 time=0.013541666666666667\n",
      "note_off channel=0 note=61 velocity=127 time=0.003125\n",
      "note_on channel=0 note=60 velocity=127 time=0.053125\n",
      "note_off channel=0 note=60 velocity=127 time=0.019791666666666666\n",
      "note_on channel=0 note=61 velocity=127 time=0.026041666666666668\n",
      "note_on channel=0 note=62 velocity=127 time=0.011458333333333333\n",
      "note_off channel=0 note=61 velocity=127 time=0.008333333333333333\n",
      "note_off channel=0 note=62 velocity=127 time=0.011458333333333333\n",
      "note_on channel=0 note=60 velocity=127 time=0.011458333333333333\n",
      "note_off channel=0 note=60 velocity=127 time=0.019791666666666666\n",
      "note_on channel=0 note=61 velocity=127 time=0.05520833333333333\n",
      "note_on channel=0 note=60 velocity=127 time=0.013541666666666667\n",
      "note_off channel=0 note=61 velocity=127 time=0.00625\n",
      "note_on channel=0 note=62 velocity=127 time=0.00625\n",
      "note_off channel=0 note=60 velocity=127 time=0.007291666666666667\n",
      "note_off channel=0 note=62 velocity=127 time=0.0125\n",
      "note_on channel=0 note=60 velocity=127 time=0.05625\n",
      "note_on channel=0 note=61 velocity=127 time=0.016666666666666666\n",
      "note_off channel=0 note=60 velocity=127 time=0.004166666666666667\n",
      "note_off channel=0 note=61 velocity=127 time=0.016666666666666666\n",
      "note_on channel=0 note=62 velocity=127 time=0.020833333333333332\n",
      "note_off channel=0 note=62 velocity=127 time=0.019791666666666666\n",
      "note_on channel=0 note=60 velocity=127 time=0.0125\n",
      "note_off channel=0 note=60 velocity=127 time=0.019791666666666666\n",
      "note_on channel=0 note=61 velocity=127 time=0.026041666666666668\n",
      "note_off channel=0 note=61 velocity=127 time=0.019791666666666666\n",
      "note_on channel=0 note=60 velocity=127 time=0.022916666666666665\n",
      "note_on channel=0 note=62 velocity=127 time=0.0125\n",
      "note_off channel=0 note=60 velocity=127 time=0.008333333333333333\n",
      "note_off channel=0 note=62 velocity=127 time=0.0125\n",
      "note_on channel=0 note=61 velocity=127 time=0.04375\n",
      "note_on channel=0 note=60 velocity=127 time=0.013541666666666667\n",
      "note_off channel=0 note=61 velocity=127 time=0.00625\n",
      "note_off channel=0 note=60 velocity=127 time=0.013541666666666667\n",
      "note_on channel=0 note=62 velocity=127 time=0.036458333333333336\n",
      "note_off channel=0 note=62 velocity=127 time=0.019791666666666666\n",
      "note_on channel=0 note=60 velocity=127 time=0.0125\n",
      "note_on channel=0 note=61 velocity=127 time=0.015625\n",
      "note_off channel=0 note=60 velocity=127 time=0.004166666666666667\n",
      "note_off channel=0 note=61 velocity=127 time=0.015625\n",
      "note_on channel=0 note=60 velocity=127 time=0.053125\n",
      "\u001b[91m [DEBUG] > \u001b[0m\n",
      " |>  to_array: msg.time > max_t; t, n\n",
      " |>  2.027083333333333\n",
      " |>  100\n",
      "note_on channel=0 note=60 velocity=127 time=0.03125\n",
      "note_off channel=0 note=60 velocity=127 time=0.019791666666666666\n",
      "note_on channel=0 note=61 velocity=127 time=0.0020833333333333333\n",
      "note_off channel=0 note=61 velocity=127 time=0.019791666666666666\n",
      "note_on channel=0 note=62 velocity=127 time=0.021875\n",
      "note_on channel=0 note=60 velocity=127 time=0.0125\n",
      "note_off channel=0 note=62 velocity=127 time=0.007291666666666667\n",
      "note_on channel=0 note=61 velocity=127 time=0.00625\n",
      "note_off channel=0 note=60 velocity=127 time=0.00625\n",
      "note_off channel=0 note=61 velocity=127 time=0.013541666666666667\n",
      "note_on channel=0 note=60 velocity=127 time=0.042708333333333334\n",
      "note_on channel=0 note=61 velocity=127 time=0.005208333333333333\n",
      "note_on channel=0 note=62 velocity=127 time=0.00625\n",
      "note_off channel=0 note=60 velocity=127 time=0.009375\n",
      "note_off channel=0 note=61 velocity=127 time=0.005208333333333333\n",
      "note_off channel=0 note=62 velocity=127 time=0.00625\n",
      "note_on channel=0 note=61 velocity=127 time=0.041666666666666664\n",
      "note_on channel=0 note=60 velocity=127 time=0.004166666666666667\n",
      "note_off channel=0 note=61 velocity=127 time=0.016666666666666666\n",
      "note_off channel=0 note=60 velocity=127 time=0.004166666666666667\n",
      "note_on channel=0 note=62 velocity=127 time=0.014583333333333334\n",
      "note_off channel=0 note=62 velocity=127 time=0.019791666666666666\n",
      "note_on channel=0 note=61 velocity=127 time=0.009375\n",
      "note_on channel=0 note=60 velocity=127 time=0.0125\n",
      "note_off channel=0 note=61 velocity=127 time=0.007291666666666667\n",
      "note_off channel=0 note=60 velocity=127 time=0.0125\n",
      "note_on channel=0 note=61 velocity=127 time=0.035416666666666666\n",
      "note_on channel=0 note=62 velocity=127 time=0.003125\n",
      "note_off channel=0 note=61 velocity=127 time=0.017708333333333333\n",
      "note_on channel=0 note=60 velocity=127 time=0.0010416666666666667\n",
      "note_off channel=0 note=62 velocity=127 time=0.0010416666666666667\n",
      "note_off channel=0 note=60 velocity=127 time=0.01875\n",
      "note_on channel=0 note=61 velocity=127 time=0.027083333333333334\n",
      "note_off channel=0 note=61 velocity=127 time=0.019791666666666666\n",
      "note_on channel=0 note=60 velocity=127 time=0.010416666666666666\n",
      "note_on channel=0 note=62 velocity=127 time=0.005208333333333333\n",
      "note_off channel=0 note=60 velocity=127 time=0.015625\n",
      "note_off channel=0 note=62 velocity=127 time=0.005208333333333333\n",
      "note_on channel=0 note=61 velocity=127 time=0.0125\n",
      "note_off channel=0 note=61 velocity=127 time=0.019791666666666666\n",
      "note_on channel=0 note=60 velocity=127 time=0.01875\n",
      "note_off channel=0 note=60 velocity=127 time=0.019791666666666666\n",
      "note_on channel=0 note=62 velocity=127 time=0.008333333333333333\n",
      "note_on channel=0 note=61 velocity=127 time=0.0010416666666666667\n",
      "note_off channel=0 note=62 velocity=127 time=0.019791666666666666\n",
      "note_off channel=0 note=61 velocity=127 time=0.0010416666666666667\n",
      "note_on channel=0 note=60 velocity=127 time=0.027083333333333334\n",
      "note_off channel=0 note=60 velocity=127 time=0.019791666666666666\n",
      "note_on channel=0 note=61 velocity=127 time=0\n",
      "note_off channel=0 note=61 velocity=127 time=0.019791666666666666\n",
      "note_on channel=0 note=62 velocity=127 time=0.011458333333333333\n",
      "note_off channel=0 note=62 velocity=127 time=0.019791666666666666\n",
      "note_on channel=0 note=60 velocity=127 time=0.005208333333333333\n",
      "note_on channel=0 note=61 velocity=127 time=0.011458333333333333\n",
      "note_off channel=0 note=60 velocity=127 time=0.008333333333333333\n",
      "note_off channel=0 note=61 velocity=127 time=0.011458333333333333\n",
      "note_on channel=0 note=62 velocity=127 time=0.04375\n",
      "note_on channel=0 note=60 velocity=127 time=0.0010416666666666667\n",
      "note_on channel=0 note=61 velocity=127 time=0.003125\n",
      "note_off channel=0 note=62 velocity=127 time=0.015625\n",
      "note_off channel=0 note=60 velocity=127 time=0.0010416666666666667\n",
      "note_off channel=0 note=61 velocity=127 time=0.003125\n",
      "note_on channel=0 note=61 velocity=127 time=0.04791666666666666\n",
      "note_on channel=0 note=60 velocity=127 time=0.00625\n",
      "note_off channel=0 note=61 velocity=127 time=0.013541666666666667\n",
      "note_off channel=0 note=60 velocity=127 time=0.00625\n",
      "note_on channel=0 note=62 velocity=127 time=0.0020833333333333333\n",
      "note_off channel=0 note=62 velocity=127 time=0.019791666666666666\n",
      "note_on channel=0 note=61 velocity=127 time=0.019791666666666666\n",
      "note_on channel=0 note=60 velocity=127 time=0.014583333333333334\n",
      "note_off channel=0 note=61 velocity=127 time=0.005208333333333333\n",
      "note_off channel=0 note=60 velocity=127 time=0.014583333333333334\n",
      "note_on channel=0 note=62 velocity=127 time=0.026041666666666668\n",
      "note_on channel=0 note=61 velocity=127 time=0.007291666666666667\n",
      "note_off channel=0 note=62 velocity=127 time=0.0125\n",
      "note_off channel=0 note=61 velocity=127 time=0.007291666666666667\n",
      "note_on channel=0 note=60 velocity=127 time=0.003125\n",
      "note_off channel=0 note=60 velocity=127 time=0.019791666666666666\n",
      "note_on channel=0 note=61 velocity=127 time=0.02395833333333333\n",
      "note_off channel=0 note=61 velocity=127 time=0.019791666666666666\n",
      "note_on channel=0 note=62 velocity=127 time=0.005208333333333333\n",
      "note_on channel=0 note=60 velocity=127 time=0.007291666666666667\n",
      "note_off channel=0 note=62 velocity=127 time=0.0125\n",
      "note_off channel=0 note=60 velocity=127 time=0.007291666666666667\n",
      "note_on channel=0 note=61 velocity=127 time=0.015625\n",
      "note_off channel=0 note=61 velocity=127 time=0.019791666666666666\n",
      "note_on channel=0 note=60 velocity=127 time=0.020833333333333332\n",
      "note_on channel=0 note=62 velocity=127 time=0.016666666666666666\n",
      "note_off channel=0 note=60 velocity=127 time=0.004166666666666667\n",
      "note_on channel=0 note=61 velocity=127 time=0.007291666666666667\n",
      "note_off channel=0 note=62 velocity=127 time=0.009375\n",
      "note_off channel=0 note=61 velocity=127 time=0.010416666666666666\n",
      "note_on channel=0 note=60 velocity=127 time=0.030208333333333334\n",
      "note_on channel=0 note=61 velocity=127 time=0.017708333333333333\n",
      "note_off channel=0 note=60 velocity=127 time=0.0020833333333333333\n",
      "note_off channel=0 note=61 velocity=127 time=0.017708333333333333\n",
      "note_on channel=0 note=62 velocity=127 time=0.0020833333333333333\n",
      "note_off channel=0 note=62 velocity=127 time=0.019791666666666666\n",
      "note_on channel=0 note=60 velocity=127 time=0.016666666666666666\n",
      "note_on channel=0 note=61 velocity=127 time=0.009375\n",
      "note_off channel=0 note=60 velocity=127 time=0.010416666666666666\n",
      "note_off channel=0 note=61 velocity=127 time=0.009375\n",
      "note_on channel=0 note=62 velocity=127 time=0.034375\n",
      "note_on channel=0 note=60 velocity=127 time=0.013541666666666667\n",
      "note_on channel=0 note=61 velocity=127 time=0.0010416666666666667\n",
      "note_off channel=0 note=62 velocity=127 time=0.00625\n",
      "note_off channel=0 note=60 velocity=127 time=0.013541666666666667\n",
      "note_off channel=0 note=61 velocity=127 time=0.0010416666666666667\n",
      "note_on channel=0 note=61 velocity=127 time=0.04791666666666666\n",
      "note_on channel=0 note=60 velocity=127 time=0.008333333333333333\n",
      "note_on channel=0 note=62 velocity=127 time=0.010416666666666666\n",
      "note_off channel=0 note=61 velocity=127 time=0.0020833333333333333\n",
      "note_off channel=0 note=60 velocity=127 time=0.008333333333333333\n",
      "note_off channel=0 note=62 velocity=127 time=0.010416666666666666\n",
      "note_on channel=0 note=61 velocity=127 time=0.029166666666666667\n",
      "note_on channel=0 note=60 velocity=127 time=0.016666666666666666\n",
      "note_off channel=0 note=61 velocity=127 time=0.003125\n",
      "note_off channel=0 note=60 velocity=127 time=0.016666666666666666\n",
      "note_on channel=0 note=62 velocity=127 time=0.013541666666666667\n",
      "note_on channel=0 note=61 velocity=127 time=0.017708333333333333\n",
      "note_off channel=0 note=62 velocity=127 time=0.003125\n",
      "note_off channel=0 note=61 velocity=127 time=0.017708333333333333\n",
      "note_on channel=0 note=60 velocity=127 time=0.005208333333333333\n",
      "note_off channel=0 note=60 velocity=127 time=0.019791666666666666\n",
      "note_on channel=0 note=61 velocity=127 time=0.021875\n",
      "note_on channel=0 note=62 velocity=127 time=0.014583333333333334\n",
      "note_off channel=0 note=61 velocity=127 time=0.005208333333333333\n",
      "note_on channel=0 note=60 velocity=127 time=0.014583333333333334\n",
      "note_off channel=0 note=62 velocity=127 time=0.0010416666666666667\n",
      "note_off channel=0 note=60 velocity=127 time=0.019791666666666666\n",
      "note_on channel=0 note=61 velocity=127 time=0.013541666666666667\n",
      "note_off channel=0 note=61 velocity=127 time=0.019791666666666666\n",
      "note_on channel=0 note=60 velocity=127 time=0.022916666666666665\n",
      "note_on channel=0 note=62 velocity=127 time=0.004166666666666667\n",
      "note_off channel=0 note=60 velocity=127 time=0.015625\n",
      "note_off channel=0 note=62 velocity=127 time=0.004166666666666667\n",
      "note_on channel=0 note=61 velocity=127 time=0.0010416666666666667\n",
      "note_off channel=0 note=61 velocity=127 time=0.019791666666666666\n",
      "note_on channel=0 note=60 velocity=127 time=0.03229166666666666\n",
      "note_on channel=0 note=61 velocity=127 time=0.015625\n",
      "note_off channel=0 note=60 velocity=127 time=0.004166666666666667\n",
      "note_on channel=0 note=62 velocity=127 time=0.007291666666666667\n",
      "note_off channel=0 note=61 velocity=127 time=0.008333333333333333\n",
      "note_off channel=0 note=62 velocity=127 time=0.011458333333333333\n",
      "note_on channel=0 note=60 velocity=127 time=0.029166666666666667\n",
      "note_on channel=0 note=61 velocity=127 time=0.007291666666666667\n",
      "note_off channel=0 note=60 velocity=127 time=0.0125\n",
      "note_off channel=0 note=61 velocity=127 time=0.007291666666666667\n",
      "note_on channel=0 note=62 velocity=127 time=0.02395833333333333\n",
      "\u001b[91m [DEBUG] > \u001b[0m\n",
      " |>  to_array: msg.time > max_t; t, n\n",
      " |>  2.001041666666666\n",
      " |>  100\n",
      "note_on channel=0 note=62 velocity=127 time=0.046875\n",
      "note_off channel=0 note=62 velocity=127 time=0.019791666666666666\n",
      "note_on channel=0 note=61 velocity=127 time=0.007291666666666667\n",
      "note_on channel=0 note=60 velocity=127 time=0.007291666666666667\n",
      "note_off channel=0 note=61 velocity=127 time=0.0125\n",
      "note_off channel=0 note=60 velocity=127 time=0.007291666666666667\n",
      "note_on channel=0 note=62 velocity=127 time=0.03958333333333333\n",
      "note_off channel=0 note=62 velocity=127 time=0.019791666666666666\n",
      "note_on channel=0 note=60 velocity=127 time=0.008333333333333333\n",
      "note_on channel=0 note=61 velocity=127 time=0.011458333333333333\n",
      "note_off channel=0 note=60 velocity=127 time=0.008333333333333333\n",
      "note_off channel=0 note=61 velocity=127 time=0.011458333333333333\n",
      "note_on channel=0 note=62 velocity=127 time=0.034375\n",
      "note_off channel=0 note=62 velocity=127 time=0.019791666666666666\n",
      "note_on channel=0 note=60 velocity=127 time=0.0020833333333333333\n",
      "note_off channel=0 note=60 velocity=127 time=0.019791666666666666\n",
      "note_on channel=0 note=61 velocity=127 time=0.010416666666666666\n",
      "note_off channel=0 note=61 velocity=127 time=0.019791666666666666\n",
      "note_on channel=0 note=62 velocity=127 time=0.021875\n",
      "note_on channel=0 note=60 velocity=127 time=0.015625\n",
      "note_off channel=0 note=62 velocity=127 time=0.004166666666666667\n",
      "note_off channel=0 note=60 velocity=127 time=0.015625\n",
      "note_on channel=0 note=61 velocity=127 time=0.030208333333333334\n",
      "note_off channel=0 note=61 velocity=127 time=0.019791666666666666\n",
      "note_on channel=0 note=62 velocity=127 time=0.009375\n",
      "note_on channel=0 note=60 velocity=127 time=0.009375\n",
      "note_off channel=0 note=62 velocity=127 time=0.010416666666666666\n",
      "note_off channel=0 note=60 velocity=127 time=0.009375\n",
      "note_on channel=0 note=61 velocity=127 time=0.04895833333333333\n",
      "note_on channel=0 note=62 velocity=127 time=0.016666666666666666\n",
      "note_on channel=0 note=60 velocity=127 time=0.003125\n",
      "note_off channel=0 note=61 velocity=127 time=0.0010416666666666667\n",
      "note_off channel=0 note=62 velocity=127 time=0.016666666666666666\n",
      "note_off channel=0 note=60 velocity=127 time=0.003125\n",
      "note_on channel=0 note=61 velocity=127 time=0.06875\n",
      "note_on channel=0 note=60 velocity=127 time=0\n",
      "note_on channel=0 note=62 velocity=127 time=0.003125\n",
      "note_off channel=0 note=61 velocity=127 time=0.016666666666666666\n",
      "note_off channel=0 note=60 velocity=127 time=0\n",
      "note_off channel=0 note=62 velocity=127 time=0.003125\n",
      "note_on channel=0 note=60 velocity=127 time=0.065625\n",
      "note_on channel=0 note=62 velocity=127 time=0.009375\n",
      "note_on channel=0 note=61 velocity=127 time=0.009375\n",
      "note_off channel=0 note=60 velocity=127 time=0.0010416666666666667\n",
      "note_off channel=0 note=62 velocity=127 time=0.009375\n",
      "note_off channel=0 note=61 velocity=127 time=0.009375\n",
      "note_on channel=0 note=60 velocity=127 time=0.05\n",
      "note_on channel=0 note=62 velocity=127 time=0.016666666666666666\n",
      "note_off channel=0 note=60 velocity=127 time=0.004166666666666667\n",
      "note_off channel=0 note=62 velocity=127 time=0.016666666666666666\n",
      "note_on channel=0 note=61 velocity=127 time=0.0020833333333333333\n",
      "note_off channel=0 note=61 velocity=127 time=0.019791666666666666\n",
      "note_on channel=0 note=60 velocity=127 time=0.030208333333333334\n",
      "note_off channel=0 note=60 velocity=127 time=0.019791666666666666\n",
      "note_on channel=0 note=62 velocity=127 time=0.003125\n",
      "note_off channel=0 note=62 velocity=127 time=0.019791666666666666\n",
      "note_on channel=0 note=61 velocity=127 time=0.014583333333333334\n",
      "note_off channel=0 note=61 velocity=127 time=0.019791666666666666\n",
      "note_on channel=0 note=60 velocity=127 time=0.011458333333333333\n",
      "note_off channel=0 note=60 velocity=127 time=0.019791666666666666\n",
      "note_on channel=0 note=62 velocity=127 time=0.009375\n",
      "note_off channel=0 note=62 velocity=127 time=0.019791666666666666\n",
      "note_on channel=0 note=61 velocity=127 time=0.027083333333333334\n",
      "note_on channel=0 note=60 velocity=127 time=0.0125\n",
      "note_off channel=0 note=61 velocity=127 time=0.008333333333333333\n",
      "note_off channel=0 note=60 velocity=127 time=0.0125\n",
      "note_on channel=0 note=62 velocity=127 time=0.015625\n",
      "note_off channel=0 note=62 velocity=127 time=0.019791666666666666\n",
      "note_on channel=0 note=60 velocity=127 time=0.03333333333333333\n",
      "note_on channel=0 note=61 velocity=127 time=0.007291666666666667\n",
      "note_off channel=0 note=60 velocity=127 time=0.0125\n",
      "note_off channel=0 note=61 velocity=127 time=0.007291666666666667\n",
      "note_on channel=0 note=62 velocity=127 time=0.014583333333333334\n",
      "note_off channel=0 note=62 velocity=127 time=0.019791666666666666\n",
      "note_on channel=0 note=60 velocity=127 time=0.027083333333333334\n",
      "note_off channel=0 note=60 velocity=127 time=0.019791666666666666\n",
      "note_on channel=0 note=61 velocity=127 time=0.00625\n",
      "note_off channel=0 note=61 velocity=127 time=0.019791666666666666\n",
      "note_on channel=0 note=62 velocity=127 time=0.0020833333333333333\n",
      "note_off channel=0 note=62 velocity=127 time=0.019791666666666666\n",
      "note_on channel=0 note=60 velocity=127 time=0.019791666666666666\n",
      "note_off channel=0 note=60 velocity=127 time=0.019791666666666666\n",
      "note_on channel=0 note=61 velocity=127 time=0.025\n",
      "note_on channel=0 note=62 velocity=127 time=0.009375\n",
      "note_off channel=0 note=61 velocity=127 time=0.010416666666666666\n",
      "note_off channel=0 note=62 velocity=127 time=0.009375\n",
      "note_on channel=0 note=60 velocity=127 time=0.013541666666666667\n",
      "note_off channel=0 note=60 velocity=127 time=0.019791666666666666\n",
      "note_on channel=0 note=62 velocity=127 time=0.041666666666666664\n",
      "note_on channel=0 note=61 velocity=127 time=0.003125\n",
      "note_off channel=0 note=62 velocity=127 time=0.016666666666666666\n",
      "note_off channel=0 note=61 velocity=127 time=0.003125\n",
      "note_on channel=0 note=60 velocity=127 time=0.004166666666666667\n",
      "note_off channel=0 note=60 velocity=127 time=0.019791666666666666\n",
      "note_on channel=0 note=62 velocity=127 time=0.04791666666666666\n",
      "note_on channel=0 note=61 velocity=127 time=0.016666666666666666\n",
      "note_off channel=0 note=62 velocity=127 time=0.004166666666666667\n",
      "note_on channel=0 note=60 velocity=127 time=0.0010416666666666667\n",
      "note_off channel=0 note=61 velocity=127 time=0.015625\n",
      "note_off channel=0 note=60 velocity=127 time=0.005208333333333333\n",
      "note_on channel=0 note=62 velocity=127 time=0.05416666666666667\n",
      "note_on channel=0 note=60 velocity=127 time=0.014583333333333334\n",
      "note_off channel=0 note=62 velocity=127 time=0.005208333333333333\n",
      "note_on channel=0 note=61 velocity=127 time=0.009375\n",
      "note_off channel=0 note=60 velocity=127 time=0.005208333333333333\n",
      "note_off channel=0 note=61 velocity=127 time=0.014583333333333334\n",
      "note_on channel=0 note=62 velocity=127 time=0.04583333333333333\n",
      "note_on channel=0 note=60 velocity=127 time=0.008333333333333333\n",
      "note_off channel=0 note=62 velocity=127 time=0.011458333333333333\n",
      "note_off channel=0 note=60 velocity=127 time=0.008333333333333333\n",
      "note_on channel=0 note=61 velocity=127 time=0.013541666666666667\n",
      "note_off channel=0 note=61 velocity=127 time=0.019791666666666666\n",
      "note_on channel=0 note=62 velocity=127 time=0.03333333333333333\n",
      "note_on channel=0 note=60 velocity=127 time=0.0020833333333333333\n",
      "note_off channel=0 note=62 velocity=127 time=0.01875\n",
      "note_off channel=0 note=60 velocity=127 time=0.0020833333333333333\n",
      "note_on channel=0 note=61 velocity=127 time=0.03229166666666666\n",
      "note_off channel=0 note=61 velocity=127 time=0.019791666666666666\n",
      "note_on channel=0 note=60 velocity=127 time=0.015625\n",
      "note_on channel=0 note=62 velocity=127 time=0.005208333333333333\n",
      "note_off channel=0 note=60 velocity=127 time=0.015625\n",
      "note_off channel=0 note=62 velocity=127 time=0.005208333333333333\n",
      "note_on channel=0 note=61 velocity=127 time=0.046875\n",
      "\u001b[91m [DEBUG] > \u001b[0m\n",
      " |>  to_array: msg.time > max_t; t, n\n",
      " |>  2.013541666666667\n",
      " |>  100\n",
      "note_on channel=0 note=62 velocity=127 time=0.0125\n",
      "note_on channel=0 note=61 velocity=127 time=0.007291666666666667\n"
     ]
    },
    {
     "name": "stdout",
     "output_type": "stream",
     "text": [
      "note_off channel=0 note=62 velocity=127 time=0.0125\n",
      "note_off channel=0 note=61 velocity=127 time=0.007291666666666667\n",
      "note_on channel=0 note=60 velocity=127 time=0.035416666666666666\n",
      "note_off channel=0 note=60 velocity=127 time=0.019791666666666666\n",
      "note_on channel=0 note=62 velocity=127 time=0.02395833333333333\n",
      "note_off channel=0 note=62 velocity=127 time=0.019791666666666666\n",
      "note_on channel=0 note=61 velocity=127 time=0.021875\n",
      "note_off channel=0 note=61 velocity=127 time=0.019791666666666666\n",
      "note_on channel=0 note=62 velocity=127 time=0.04479166666666667\n",
      "note_on channel=0 note=60 velocity=127 time=0.013541666666666667\n",
      "note_off channel=0 note=62 velocity=127 time=0.00625\n",
      "note_off channel=0 note=60 velocity=127 time=0.013541666666666667\n",
      "note_on channel=0 note=61 velocity=127 time=0.04375\n",
      "note_off channel=0 note=61 velocity=127 time=0.019791666666666666\n",
      "note_on channel=0 note=62 velocity=127 time=0.010416666666666666\n",
      "note_off channel=0 note=62 velocity=127 time=0.019791666666666666\n",
      "note_on channel=0 note=60 velocity=127 time=0.051041666666666666\n",
      "note_off channel=0 note=60 velocity=127 time=0.019791666666666666\n",
      "note_on channel=0 note=62 velocity=127 time=0.015625\n",
      "note_on channel=0 note=61 velocity=127 time=0.004166666666666667\n",
      "note_off channel=0 note=62 velocity=127 time=0.015625\n",
      "note_off channel=0 note=61 velocity=127 time=0.004166666666666667\n",
      "note_on channel=0 note=62 velocity=127 time=0.08229166666666667\n",
      "note_off channel=0 note=62 velocity=127 time=0.019791666666666666\n",
      "note_on channel=0 note=60 velocity=127 time=0.0020833333333333333\n",
      "note_on channel=0 note=61 velocity=127 time=0.017708333333333333\n",
      "note_off channel=0 note=60 velocity=127 time=0.003125\n",
      "note_off channel=0 note=61 velocity=127 time=0.017708333333333333\n",
      "note_on channel=0 note=62 velocity=127 time=0.04791666666666666\n",
      "note_off channel=0 note=62 velocity=127 time=0.019791666666666666\n",
      "note_on channel=0 note=61 velocity=127 time=0.053125\n",
      "note_on channel=0 note=60 velocity=127 time=0.00625\n",
      "note_off channel=0 note=61 velocity=127 time=0.014583333333333334\n",
      "note_off channel=0 note=60 velocity=127 time=0.00625\n",
      "note_on channel=0 note=62 velocity=127 time=0.007291666666666667\n",
      "note_off channel=0 note=62 velocity=127 time=0.019791666666666666\n",
      "note_on channel=0 note=62 velocity=127 time=0.08645833333333333\n",
      "note_on channel=0 note=61 velocity=127 time=0.0010416666666666667\n",
      "note_off channel=0 note=62 velocity=127 time=0.01875\n",
      "note_off channel=0 note=61 velocity=127 time=0.0010416666666666667\n",
      "note_on channel=0 note=60 velocity=127 time=0.009375\n",
      "note_off channel=0 note=60 velocity=127 time=0.019791666666666666\n",
      "note_on channel=0 note=62 velocity=127 time=0.05625\n",
      "note_off channel=0 note=62 velocity=127 time=0.019791666666666666\n",
      "note_on channel=0 note=61 velocity=127 time=0.015625\n",
      "note_off channel=0 note=61 velocity=127 time=0.019791666666666666\n",
      "note_on channel=0 note=60 velocity=127 time=0.03229166666666666\n",
      "note_on channel=0 note=62 velocity=127 time=0.01875\n",
      "note_off channel=0 note=60 velocity=127 time=0.0010416666666666667\n",
      "note_off channel=0 note=62 velocity=127 time=0.01875\n",
      "note_on channel=0 note=61 velocity=127 time=0.05\n",
      "note_off channel=0 note=61 velocity=127 time=0.019791666666666666\n",
      "note_on channel=0 note=62 velocity=127 time=0.016666666666666666\n",
      "note_off channel=0 note=62 velocity=127 time=0.019791666666666666\n",
      "note_on channel=0 note=60 velocity=127 time=0.01875\n",
      "note_off channel=0 note=60 velocity=127 time=0.019791666666666666\n",
      "note_on channel=0 note=61 velocity=127 time=0.04583333333333333\n",
      "note_on channel=0 note=62 velocity=127 time=0.0020833333333333333\n",
      "note_off channel=0 note=61 velocity=127 time=0.017708333333333333\n",
      "note_off channel=0 note=62 velocity=127 time=0.0020833333333333333\n",
      "note_on channel=0 note=60 velocity=127 time=0.07604166666666666\n",
      "note_on channel=0 note=62 velocity=127 time=0.010416666666666666\n",
      "note_off channel=0 note=60 velocity=127 time=0.009375\n",
      "note_off channel=0 note=62 velocity=127 time=0.010416666666666666\n",
      "note_on channel=0 note=61 velocity=127 time=0.0125\n",
      "note_off channel=0 note=61 velocity=127 time=0.019791666666666666\n",
      "note_on channel=0 note=62 velocity=127 time=0.05416666666666667\n",
      "note_off channel=0 note=62 velocity=127 time=0.019791666666666666\n",
      "note_on channel=0 note=60 velocity=127 time=0.027083333333333334\n",
      "note_off channel=0 note=60 velocity=127 time=0.019791666666666666\n",
      "note_on channel=0 note=61 velocity=127 time=0\n",
      "note_off channel=0 note=61 velocity=127 time=0.019791666666666666\n",
      "note_on channel=0 note=62 velocity=127 time=0.019791666666666666\n",
      "note_off channel=0 note=62 velocity=127 time=0.019791666666666666\n",
      "note_on channel=0 note=61 velocity=127 time=0.08229166666666667\n",
      "note_on channel=0 note=60 velocity=127 time=0.003125\n",
      "note_on channel=0 note=62 velocity=127 time=0.0020833333333333333\n",
      "note_off channel=0 note=61 velocity=127 time=0.014583333333333334\n",
      "note_off channel=0 note=60 velocity=127 time=0.003125\n",
      "note_off channel=0 note=62 velocity=127 time=0.0020833333333333333\n",
      "note_on channel=0 note=62 velocity=127 time=0.08645833333333333\n",
      "note_off channel=0 note=62 velocity=127 time=0.019791666666666666\n",
      "note_on channel=0 note=61 velocity=127 time=0.009375\n",
      "note_off channel=0 note=61 velocity=127 time=0.019791666666666666\n",
      "note_on channel=0 note=60 velocity=127 time=0.00625\n",
      "note_off channel=0 note=60 velocity=127 time=0.019791666666666666\n",
      "note_on channel=0 note=62 velocity=127 time=0.03125\n",
      "note_off channel=0 note=62 velocity=127 time=0.019791666666666666\n",
      "note_on channel=0 note=61 velocity=127 time=0.04375\n",
      "\u001b[91m [DEBUG] > \u001b[0m\n",
      " |>  to_array: msg.time > max_t; t, n\n",
      " |>  1.9937500000000004\n",
      " |>  100\n",
      "note_on channel=0 note=60 velocity=127 time=0.036458333333333336\n",
      "note_on channel=0 note=61 velocity=127 time=0.017708333333333333\n",
      "note_off channel=0 note=60 velocity=127 time=0.0020833333333333333\n",
      "note_off channel=0 note=61 velocity=127 time=0.017708333333333333\n",
      "note_on channel=0 note=62 velocity=127 time=0.020833333333333332\n",
      "note_off channel=0 note=62 velocity=127 time=0.019791666666666666\n",
      "note_on channel=0 note=61 velocity=127 time=0.009375\n",
      "note_off channel=0 note=61 velocity=127 time=0.019791666666666666\n",
      "note_on channel=0 note=61 velocity=127 time=0.05\n",
      "note_on channel=0 note=60 velocity=127 time=0.005208333333333333\n",
      "note_off channel=0 note=61 velocity=127 time=0.014583333333333334\n",
      "note_on channel=0 note=62 velocity=127 time=0.004166666666666667\n",
      "note_off channel=0 note=60 velocity=127 time=0.0010416666666666667\n",
      "note_off channel=0 note=62 velocity=127 time=0.01875\n",
      "note_on channel=0 note=61 velocity=127 time=0.026041666666666668\n",
      "note_off channel=0 note=61 velocity=127 time=0.019791666666666666\n",
      "note_on channel=0 note=61 velocity=127 time=0.05\n",
      "note_on channel=0 note=62 velocity=127 time=0.007291666666666667\n",
      "note_off channel=0 note=61 velocity=127 time=0.0125\n",
      "note_off channel=0 note=62 velocity=127 time=0.007291666666666667\n",
      "note_on channel=0 note=60 velocity=127 time=0.0020833333333333333\n",
      "note_off channel=0 note=60 velocity=127 time=0.019791666666666666\n",
      "note_on channel=0 note=61 velocity=127 time=0.021875\n",
      "note_off channel=0 note=61 velocity=127 time=0.019791666666666666\n",
      "note_on channel=0 note=62 velocity=127 time=0.040625\n",
      "note_on channel=0 note=61 velocity=127 time=0.009375\n",
      "note_off channel=0 note=62 velocity=127 time=0.010416666666666666\n",
      "note_off channel=0 note=61 velocity=127 time=0.009375\n",
      "note_on channel=0 note=60 velocity=127 time=0.03229166666666666\n",
      "note_on channel=0 note=61 velocity=127 time=0.017708333333333333\n",
      "note_off channel=0 note=60 velocity=127 time=0.0020833333333333333\n",
      "note_off channel=0 note=61 velocity=127 time=0.017708333333333333\n",
      "note_on channel=0 note=62 velocity=127 time=0.02395833333333333\n",
      "note_off channel=0 note=62 velocity=127 time=0.019791666666666666\n",
      "note_on channel=0 note=61 velocity=127 time=0.00625\n",
      "note_off channel=0 note=61 velocity=127 time=0.019791666666666666\n",
      "note_on channel=0 note=61 velocity=127 time=0.05\n",
      "note_on channel=0 note=60 velocity=127 time=0.005208333333333333\n",
      "note_off channel=0 note=61 velocity=127 time=0.014583333333333334\n",
      "note_off channel=0 note=60 velocity=127 time=0.005208333333333333\n",
      "note_on channel=0 note=62 velocity=127 time=0.0020833333333333333\n",
      "note_off channel=0 note=62 velocity=127 time=0.019791666666666666\n",
      "note_on channel=0 note=61 velocity=127 time=0.022916666666666665\n",
      "note_off channel=0 note=61 velocity=127 time=0.019791666666666666\n",
      "note_on channel=0 note=61 velocity=127 time=0.05\n",
      "note_on channel=0 note=62 velocity=127 time=0.010416666666666666\n",
      "note_off channel=0 note=61 velocity=127 time=0.009375\n",
      "note_on channel=0 note=60 velocity=127 time=0.008333333333333333\n",
      "note_off channel=0 note=62 velocity=127 time=0.0020833333333333333\n",
      "note_off channel=0 note=60 velocity=127 time=0.01875\n",
      "note_on channel=0 note=61 velocity=127 time=0.021875\n",
      "note_off channel=0 note=61 velocity=127 time=0.019791666666666666\n",
      "note_on channel=0 note=62 velocity=127 time=0.04375\n",
      "note_on channel=0 note=61 velocity=127 time=0.00625\n",
      "note_off channel=0 note=62 velocity=127 time=0.013541666666666667\n",
      "note_off channel=0 note=61 velocity=127 time=0.00625\n",
      "note_on channel=0 note=60 velocity=127 time=0.03229166666666666\n",
      "note_on channel=0 note=61 velocity=127 time=0.01875\n",
      "note_off channel=0 note=60 velocity=127 time=0.0010416666666666667\n",
      "note_off channel=0 note=61 velocity=127 time=0.01875\n",
      "note_on channel=0 note=62 velocity=127 time=0.027083333333333334\n",
      "note_off channel=0 note=62 velocity=127 time=0.019791666666666666\n",
      "note_on channel=0 note=61 velocity=127 time=0.003125\n",
      "note_off channel=0 note=61 velocity=127 time=0.019791666666666666\n",
      "note_on channel=0 note=61 velocity=127 time=0.05\n",
      "note_on channel=0 note=60 velocity=127 time=0.005208333333333333\n",
      "note_off channel=0 note=61 velocity=127 time=0.015625\n",
      "note_off channel=0 note=60 velocity=127 time=0.005208333333333333\n",
      "note_on channel=0 note=62 velocity=127 time=0.005208333333333333\n",
      "note_off channel=0 note=62 velocity=127 time=0.019791666666666666\n",
      "note_on channel=0 note=61 velocity=127 time=0.020833333333333332\n",
      "note_off channel=0 note=61 velocity=127 time=0.019791666666666666\n",
      "note_on channel=0 note=61 velocity=127 time=0.05\n",
      "note_on channel=0 note=62 velocity=127 time=0.013541666666666667\n",
      "note_off channel=0 note=61 velocity=127 time=0.007291666666666667\n",
      "note_on channel=0 note=60 velocity=127 time=0.008333333333333333\n",
      "note_off channel=0 note=62 velocity=127 time=0.005208333333333333\n",
      "note_off channel=0 note=60 velocity=127 time=0.014583333333333334\n",
      "note_on channel=0 note=61 velocity=127 time=0.021875\n",
      "note_off channel=0 note=61 velocity=127 time=0.019791666666666666\n",
      "note_on channel=0 note=62 velocity=127 time=0.046875\n",
      "note_on channel=0 note=61 velocity=127 time=0.004166666666666667\n",
      "note_off channel=0 note=62 velocity=127 time=0.016666666666666666\n",
      "note_off channel=0 note=61 velocity=127 time=0.004166666666666667\n",
      "note_on channel=0 note=60 velocity=127 time=0.03125\n",
      "note_on channel=0 note=61 velocity=127 time=0.01875\n",
      "note_off channel=0 note=60 velocity=127 time=0.0010416666666666667\n",
      "note_off channel=0 note=61 velocity=127 time=0.01875\n",
      "note_on channel=0 note=62 velocity=127 time=0.030208333333333334\n",
      "note_off channel=0 note=62 velocity=127 time=0.019791666666666666\n",
      "note_on channel=0 note=61 velocity=127 time=0.0010416666666666667\n",
      "note_off channel=0 note=61 velocity=127 time=0.019791666666666666\n",
      "note_on channel=0 note=61 velocity=127 time=0.05\n",
      "note_on channel=0 note=60 velocity=127 time=0.004166666666666667\n",
      "note_off channel=0 note=61 velocity=127 time=0.015625\n",
      "note_off channel=0 note=60 velocity=127 time=0.004166666666666667\n",
      "note_on channel=0 note=62 velocity=127 time=0.008333333333333333\n",
      "note_off channel=0 note=62 velocity=127 time=0.019791666666666666\n",
      "note_on channel=0 note=61 velocity=127 time=0.017708333333333333\n",
      "note_off channel=0 note=61 velocity=127 time=0.019791666666666666\n",
      "note_on channel=0 note=61 velocity=127 time=0.05\n",
      "note_on channel=0 note=62 velocity=127 time=0.015625\n",
      "note_off channel=0 note=61 velocity=127 time=0.004166666666666667\n",
      "note_on channel=0 note=60 velocity=127 time=0.007291666666666667\n",
      "note_off channel=0 note=62 velocity=127 time=0.008333333333333333\n",
      "note_off channel=0 note=60 velocity=127 time=0.011458333333333333\n",
      "note_on channel=0 note=61 velocity=127 time=0.022916666666666665\n",
      "note_off channel=0 note=61 velocity=127 time=0.019791666666666666\n",
      "note_on channel=0 note=62 velocity=127 time=0.05\n",
      "note_on channel=0 note=61 velocity=127 time=0.0010416666666666667\n",
      "note_off channel=0 note=62 velocity=127 time=0.01875\n",
      "note_off channel=0 note=61 velocity=127 time=0.0010416666666666667\n",
      "note_on channel=0 note=60 velocity=127 time=0.03125\n",
      "\u001b[91m [DEBUG] > \u001b[0m\n",
      " |>  to_array: msg.time > max_t; t, n\n",
      " |>  1.9999999999999996\n",
      " |>  100\n",
      "note_on channel=0 note=61 velocity=127 time=0.021875\n",
      "note_on channel=0 note=62 velocity=127 time=0.017708333333333333\n",
      "note_off channel=0 note=61 velocity=127 time=0.0020833333333333333\n",
      "note_on channel=0 note=60 velocity=127 time=0.0125\n",
      "note_off channel=0 note=62 velocity=127 time=0.00625\n",
      "note_off channel=0 note=60 velocity=127 time=0.014583333333333334\n",
      "note_on channel=0 note=61 velocity=127 time=0.015625\n",
      "note_off channel=0 note=61 velocity=127 time=0.019791666666666666\n",
      "note_on channel=0 note=61 velocity=127 time=0.04791666666666666\n",
      "note_on channel=0 note=60 velocity=127 time=0.003125\n",
      "note_off channel=0 note=61 velocity=127 time=0.016666666666666666\n",
      "note_off channel=0 note=60 velocity=127 time=0.003125\n",
      "note_on channel=0 note=61 velocity=127 time=0.04479166666666667\n",
      "note_off channel=0 note=61 velocity=127 time=0.019791666666666666\n",
      "note_on channel=0 note=62 velocity=127 time=0.011458333333333333\n",
      "note_on channel=0 note=60 velocity=127 time=0.010416666666666666\n",
      "note_off channel=0 note=62 velocity=127 time=0.009375\n",
      "note_off channel=0 note=60 velocity=127 time=0.010416666666666666\n",
      "note_on channel=0 note=61 velocity=127 time=0.00625\n",
      "note_off channel=0 note=61 velocity=127 time=0.019791666666666666\n",
      "note_on channel=0 note=61 velocity=127 time=0.04791666666666666\n",
      "note_on channel=0 note=60 velocity=127 time=0.013541666666666667\n",
      "note_off channel=0 note=61 velocity=127 time=0.007291666666666667\n",
      "note_off channel=0 note=60 velocity=127 time=0.013541666666666667\n",
      "note_on channel=0 note=61 velocity=127 time=0.035416666666666666\n",
      "note_off channel=0 note=61 velocity=127 time=0.019791666666666666\n",
      "note_on channel=0 note=62 velocity=127 time=0.025\n",
      "note_on channel=0 note=60 velocity=127 time=0.007291666666666667\n",
      "note_off channel=0 note=62 velocity=127 time=0.013541666666666667\n",
      "note_on channel=0 note=61 velocity=127 time=0.003125\n",
      "note_off channel=0 note=60 velocity=127 time=0.004166666666666667\n",
      "note_off channel=0 note=61 velocity=127 time=0.015625\n",
      "note_on channel=0 note=61 velocity=127 time=0.04791666666666666\n",
      "note_off channel=0 note=61 velocity=127 time=0.019791666666666666\n",
      "note_on channel=0 note=60 velocity=127 time=0.003125\n",
      "note_off channel=0 note=60 velocity=127 time=0.019791666666666666\n",
      "note_on channel=0 note=61 velocity=127 time=0.025\n",
      "note_off channel=0 note=61 velocity=127 time=0.019791666666666666\n",
      "note_on channel=0 note=62 velocity=127 time=0.03854166666666667\n",
      "note_on channel=0 note=60 velocity=127 time=0.003125\n",
      "note_on channel=0 note=61 velocity=127 time=0.00625\n",
      "note_off channel=0 note=62 velocity=127 time=0.010416666666666666\n",
      "note_off channel=0 note=60 velocity=127 time=0.003125\n",
      "note_off channel=0 note=61 velocity=127 time=0.00625\n",
      "note_on channel=0 note=61 velocity=127 time=0.04791666666666666\n",
      "note_off channel=0 note=61 velocity=127 time=0.019791666666666666\n",
      "note_on channel=0 note=60 velocity=127 time=0.0125\n",
      "note_off channel=0 note=60 velocity=127 time=0.019791666666666666\n",
      "note_on channel=0 note=61 velocity=127 time=0.015625\n",
      "note_off channel=0 note=61 velocity=127 time=0.019791666666666666\n",
      "note_on channel=0 note=61 velocity=127 time=0.04791666666666666\n",
      "note_on channel=0 note=60 velocity=127 time=0.004166666666666667\n",
      "note_on channel=0 note=62 velocity=127 time=0\n",
      "note_off channel=0 note=61 velocity=127 time=0.015625\n",
      "note_off channel=0 note=60 velocity=127 time=0.004166666666666667\n",
      "note_off channel=0 note=62 velocity=127 time=0\n",
      "note_on channel=0 note=61 velocity=127 time=0.04375\n",
      "note_off channel=0 note=61 velocity=127 time=0.019791666666666666\n",
      "note_on channel=0 note=60 velocity=127 time=0.022916666666666665\n",
      "note_off channel=0 note=60 velocity=127 time=0.019791666666666666\n",
      "note_on channel=0 note=61 velocity=127 time=0.005208333333333333\n",
      "note_off channel=0 note=61 velocity=127 time=0.019791666666666666\n",
      "note_on channel=0 note=61 velocity=127 time=0.04791666666666666\n",
      "note_on channel=0 note=60 velocity=127 time=0.013541666666666667\n",
      "note_on channel=0 note=62 velocity=127 time=0.004166666666666667\n",
      "note_off channel=0 note=61 velocity=127 time=0.0020833333333333333\n",
      "note_off channel=0 note=60 velocity=127 time=0.013541666666666667\n",
      "note_off channel=0 note=62 velocity=127 time=0.004166666666666667\n",
      "note_on channel=0 note=61 velocity=127 time=0.030208333333333334\n",
      "note_off channel=0 note=61 velocity=127 time=0.019791666666666666\n",
      "note_on channel=0 note=60 velocity=127 time=0.03229166666666666\n",
      "note_on channel=0 note=61 velocity=127 time=0.015625\n",
      "note_off channel=0 note=60 velocity=127 time=0.005208333333333333\n",
      "note_off channel=0 note=61 velocity=127 time=0.015625\n",
      "note_on channel=0 note=61 velocity=127 time=0.04791666666666666\n",
      "note_off channel=0 note=61 velocity=127 time=0.019791666666666666\n",
      "note_on channel=0 note=60 velocity=127 time=0.004166666666666667\n",
      "note_on channel=0 note=62 velocity=127 time=0.007291666666666667\n",
      "note_off channel=0 note=60 velocity=127 time=0.0125\n",
      "note_off channel=0 note=62 velocity=127 time=0.007291666666666667\n",
      "note_on channel=0 note=61 velocity=127 time=0.016666666666666666\n",
      "note_off channel=0 note=61 velocity=127 time=0.019791666666666666\n",
      "note_on channel=0 note=60 velocity=127 time=0.042708333333333334\n",
      "note_on channel=0 note=61 velocity=127 time=0.005208333333333333\n",
      "note_off channel=0 note=60 velocity=127 time=0.014583333333333334\n",
      "note_off channel=0 note=61 velocity=127 time=0.005208333333333333\n",
      "note_on channel=0 note=61 velocity=127 time=0.04791666666666666\n",
      "note_off channel=0 note=61 velocity=127 time=0.019791666666666666\n",
      "note_on channel=0 note=60 velocity=127 time=0.013541666666666667\n",
      "note_on channel=0 note=62 velocity=127 time=0.011458333333333333\n",
      "note_off channel=0 note=60 velocity=127 time=0.008333333333333333\n",
      "note_off channel=0 note=62 velocity=127 time=0.011458333333333333\n",
      "note_on channel=0 note=61 velocity=127 time=0.003125\n",
      "note_off channel=0 note=61 velocity=127 time=0.019791666666666666\n",
      "note_on channel=0 note=61 velocity=127 time=0.04791666666666666\n",
      "note_on channel=0 note=60 velocity=127 time=0.004166666666666667\n",
      "note_off channel=0 note=61 velocity=127 time=0.015625\n",
      "note_off channel=0 note=60 velocity=127 time=0.004166666666666667\n",
      "note_on channel=0 note=61 velocity=127 time=0.04375\n",
      "note_off channel=0 note=61 velocity=127 time=0.019791666666666666\n",
      "note_on channel=0 note=60 velocity=127 time=0.02395833333333333\n",
      "note_on channel=0 note=62 velocity=127 time=0.014583333333333334\n",
      "note_off channel=0 note=60 velocity=127 time=0.005208333333333333\n",
      "note_on channel=0 note=61 velocity=127 time=0.004166666666666667\n",
      "note_off channel=0 note=62 velocity=127 time=0.010416666666666666\n",
      "note_off channel=0 note=61 velocity=127 time=0.009375\n",
      "note_on channel=0 note=61 velocity=127 time=0.04791666666666666\n",
      "note_on channel=0 note=60 velocity=127 time=0.014583333333333334\n",
      "note_off channel=0 note=61 velocity=127 time=0.005208333333333333\n",
      "note_off channel=0 note=60 velocity=127 time=0.014583333333333334\n",
      "note_on channel=0 note=61 velocity=127 time=0.03333333333333333\n",
      "note_off channel=0 note=61 velocity=127 time=0.019791666666666666\n",
      "note_on channel=0 note=60 velocity=127 time=0.03333333333333333\n",
      "note_on channel=0 note=61 velocity=127 time=0.014583333333333334\n",
      "\u001b[91m [DEBUG] > \u001b[0m\n",
      " |>  to_array: msg.time > max_t; t, n\n",
      " |>  1.990624999999999\n",
      " |>  100\n",
      "note_on channel=0 note=61 velocity=127 time=0.03125\n",
      "note_on channel=0 note=62 velocity=127 time=0.017708333333333333\n",
      "note_off channel=0 note=61 velocity=127 time=0.003125\n",
      "note_off channel=0 note=62 velocity=127 time=0.017708333333333333\n",
      "note_on channel=0 note=61 velocity=127 time=0.030208333333333334\n",
      "note_off channel=0 note=61 velocity=127 time=0.019791666666666666\n",
      "note_on channel=0 note=61 velocity=127 time=0.046875\n",
      "note_off channel=0 note=61 velocity=127 time=0.019791666666666666\n",
      "note_on channel=0 note=61 velocity=127 time=0.046875\n",
      "note_on channel=0 note=60 velocity=127 time=0.009375\n",
      "note_off channel=0 note=61 velocity=127 time=0.010416666666666666\n",
      "note_off channel=0 note=60 velocity=127 time=0.009375\n",
      "note_on channel=0 note=62 velocity=127 time=0.00625\n",
      "note_off channel=0 note=62 velocity=127 time=0.019791666666666666\n",
      "note_on channel=0 note=61 velocity=127 time=0.011458333333333333\n",
      "note_off channel=0 note=61 velocity=127 time=0.019791666666666666\n",
      "note_on channel=0 note=61 velocity=127 time=0.046875\n",
      "note_off channel=0 note=61 velocity=127 time=0.019791666666666666\n",
      "note_on channel=0 note=61 velocity=127 time=0.046875\n",
      "note_off channel=0 note=61 velocity=127 time=0.019791666666666666\n",
      "note_on channel=0 note=62 velocity=127 time=0.034375\n",
      "note_on channel=0 note=61 velocity=127 time=0.013541666666666667\n",
      "note_off channel=0 note=62 velocity=127 time=0.00625\n",
      "note_off channel=0 note=61 velocity=127 time=0.013541666666666667\n",
      "note_on channel=0 note=60 velocity=127 time=0.005208333333333333\n",
      "note_off channel=0 note=60 velocity=127 time=0.019791666666666666\n",
      "note_on channel=0 note=61 velocity=127 time=0.021875\n",
      "note_off channel=0 note=61 velocity=127 time=0.019791666666666666\n",
      "note_on channel=0 note=61 velocity=127 time=0.046875\n",
      "note_off channel=0 note=61 velocity=127 time=0.019791666666666666\n",
      "note_on channel=0 note=61 velocity=127 time=0.046875\n",
      "note_on channel=0 note=62 velocity=127 time=0.005208333333333333\n",
      "note_off channel=0 note=61 velocity=127 time=0.014583333333333334\n",
      "note_off channel=0 note=62 velocity=127 time=0.005208333333333333\n",
      "note_on channel=0 note=61 velocity=127 time=0.041666666666666664\n",
      "note_off channel=0 note=61 velocity=127 time=0.019791666666666666\n",
      "note_on channel=0 note=60 velocity=127 time=0.020833333333333332\n",
      "note_off channel=0 note=60 velocity=127 time=0.019791666666666666\n",
      "note_on channel=0 note=61 velocity=127 time=0.00625\n",
      "note_off channel=0 note=61 velocity=127 time=0.019791666666666666\n",
      "note_on channel=0 note=61 velocity=127 time=0.046875\n",
      "note_off channel=0 note=61 velocity=127 time=0.019791666666666666\n",
      "note_on channel=0 note=62 velocity=127 time=0.003125\n",
      "note_off channel=0 note=62 velocity=127 time=0.019791666666666666\n",
      "note_on channel=0 note=61 velocity=127 time=0.02395833333333333\n",
      "note_off channel=0 note=61 velocity=127 time=0.019791666666666666\n",
      "note_on channel=0 note=61 velocity=127 time=0.046875\n",
      "note_off channel=0 note=61 velocity=127 time=0.019791666666666666\n",
      "note_on channel=0 note=60 velocity=127 time=0.0375\n",
      "note_on channel=0 note=61 velocity=127 time=0.010416666666666666\n",
      "note_off channel=0 note=60 velocity=127 time=0.010416666666666666\n",
      "note_off channel=0 note=61 velocity=127 time=0.010416666666666666\n",
      "note_on channel=0 note=62 velocity=127 time=0.021875\n",
      "note_off channel=0 note=62 velocity=127 time=0.019791666666666666\n",
      "note_on channel=0 note=61 velocity=127 time=0.005208333333333333\n",
      "note_off channel=0 note=61 velocity=127 time=0.019791666666666666\n",
      "note_on channel=0 note=61 velocity=127 time=0.046875\n",
      "note_off channel=0 note=61 velocity=127 time=0.019791666666666666\n",
      "note_on channel=0 note=61 velocity=127 time=0.046875\n",
      "note_off channel=0 note=61 velocity=127 time=0.019791666666666666\n",
      "note_on channel=0 note=62 velocity=127 time=0.040625\n",
      "note_on channel=0 note=61 velocity=127 time=0.007291666666666667\n",
      "note_on channel=0 note=60 velocity=127 time=0.00625\n",
      "note_off channel=0 note=62 velocity=127 time=0.007291666666666667\n",
      "note_off channel=0 note=61 velocity=127 time=0.007291666666666667\n",
      "note_off channel=0 note=60 velocity=127 time=0.00625\n",
      "note_on channel=0 note=61 velocity=127 time=0.040625\n",
      "note_off channel=0 note=61 velocity=127 time=0.019791666666666666\n",
      "note_on channel=0 note=61 velocity=127 time=0.046875\n",
      "note_off channel=0 note=61 velocity=127 time=0.019791666666666666\n",
      "note_on channel=0 note=61 velocity=127 time=0.046875\n",
      "note_on channel=0 note=62 velocity=127 time=0.011458333333333333\n",
      "note_off channel=0 note=61 velocity=127 time=0.008333333333333333\n",
      "note_off channel=0 note=62 velocity=127 time=0.011458333333333333\n",
      "note_on channel=0 note=61 velocity=127 time=0.035416666666666666\n",
      "note_off channel=0 note=61 velocity=127 time=0.019791666666666666\n",
      "note_on channel=0 note=60 velocity=127 time=0.0020833333333333333\n",
      "note_off channel=0 note=60 velocity=127 time=0.019791666666666666\n",
      "note_on channel=0 note=61 velocity=127 time=0.025\n",
      "note_off channel=0 note=61 velocity=127 time=0.019791666666666666\n",
      "note_on channel=0 note=61 velocity=127 time=0.046875\n",
      "note_off channel=0 note=61 velocity=127 time=0.019791666666666666\n",
      "note_on channel=0 note=62 velocity=127 time=0.009375\n",
      "note_off channel=0 note=62 velocity=127 time=0.019791666666666666\n",
      "note_on channel=0 note=61 velocity=127 time=0.017708333333333333\n",
      "note_off channel=0 note=61 velocity=127 time=0.019791666666666666\n",
      "note_on channel=0 note=61 velocity=127 time=0.046875\n",
      "note_off channel=0 note=61 velocity=127 time=0.019791666666666666\n",
      "note_on channel=0 note=60 velocity=127 time=0.01875\n",
      "note_off channel=0 note=60 velocity=127 time=0.019791666666666666\n",
      "note_on channel=0 note=61 velocity=127 time=0.009375\n",
      "note_off channel=0 note=61 velocity=127 time=0.019791666666666666\n",
      "\u001b[91m [DEBUG] > \u001b[0m\n",
      " |>  to_array: msg.time > max_t; t, n\n",
      " |>  1.9927083333333333\n",
      " |>  100\n",
      "note_on channel=0 note=62 velocity=127 time=0.06875\n",
      "note_on channel=0 note=60 velocity=127 time=0.009375\n",
      "note_off channel=0 note=62 velocity=127 time=0.010416666666666666\n",
      "note_off channel=0 note=60 velocity=127 time=0.009375\n",
      "note_on channel=0 note=61 velocity=127 time=0.0125\n",
      "note_off channel=0 note=61 velocity=127 time=0.019791666666666666\n",
      "note_on channel=0 note=62 velocity=127 time=0.0625\n",
      "note_off channel=0 note=62 velocity=127 time=0.019791666666666666\n",
      "note_on channel=0 note=61 velocity=127 time=0.027083333333333334\n",
      "note_off channel=0 note=61 velocity=127 time=0.019791666666666666\n",
      "note_on channel=0 note=62 velocity=127 time=0.05625\n",
      "note_off channel=0 note=62 velocity=127 time=0.019791666666666666\n",
      "note_on channel=0 note=60 velocity=127 time=0.029166666666666667\n",
      "note_on channel=0 note=61 velocity=127 time=0.004166666666666667\n",
      "note_off channel=0 note=60 velocity=127 time=0.015625\n",
      "note_off channel=0 note=61 velocity=127 time=0.004166666666666667\n",
      "note_on channel=0 note=62 velocity=127 time=0.05\n",
      "note_off channel=0 note=62 velocity=127 time=0.019791666666666666\n",
      "note_on channel=0 note=61 velocity=127 time=0.03958333333333333\n",
      "note_off channel=0 note=61 velocity=127 time=0.019791666666666666\n",
      "note_on channel=0 note=62 velocity=127 time=0.04375\n",
      "note_off channel=0 note=62 velocity=127 time=0.019791666666666666\n",
      "note_on channel=0 note=61 velocity=127 time=0.04583333333333333\n",
      "note_off channel=0 note=61 velocity=127 time=0.019791666666666666\n",
      "note_on channel=0 note=60 velocity=127 time=0.003125\n",
      "note_off channel=0 note=60 velocity=127 time=0.019791666666666666\n",
      "note_on channel=0 note=62 velocity=127 time=0.013541666666666667\n",
      "note_off channel=0 note=62 velocity=127 time=0.019791666666666666\n",
      "note_on channel=0 note=61 velocity=127 time=0.052083333333333336\n",
      "note_off channel=0 note=61 velocity=127 time=0.019791666666666666\n",
      "note_on channel=0 note=62 velocity=127 time=0.03125\n"
     ]
    },
    {
     "name": "stdout",
     "output_type": "stream",
     "text": [
      "note_off channel=0 note=62 velocity=127 time=0.019791666666666666\n",
      "note_on channel=0 note=61 velocity=127 time=0.058333333333333334\n",
      "note_off channel=0 note=61 velocity=127 time=0.019791666666666666\n",
      "note_on channel=0 note=62 velocity=127 time=0.025\n",
      "note_on channel=0 note=60 velocity=127 time=0.00625\n",
      "note_off channel=0 note=62 velocity=127 time=0.013541666666666667\n",
      "note_off channel=0 note=60 velocity=127 time=0.00625\n",
      "note_on channel=0 note=61 velocity=127 time=0.058333333333333334\n",
      "note_off channel=0 note=61 velocity=127 time=0.019791666666666666\n",
      "note_on channel=0 note=62 velocity=127 time=0.01875\n",
      "note_off channel=0 note=62 velocity=127 time=0.019791666666666666\n",
      "note_on channel=0 note=61 velocity=127 time=0.07083333333333333\n",
      "note_off channel=0 note=61 velocity=127 time=0.019791666666666666\n",
      "note_on channel=0 note=62 velocity=127 time=0.0125\n",
      "note_off channel=0 note=62 velocity=127 time=0.019791666666666666\n",
      "note_on channel=0 note=60 velocity=127 time=0.027083333333333334\n",
      "note_off channel=0 note=60 velocity=127 time=0.019791666666666666\n",
      "note_on channel=0 note=61 velocity=127 time=0.030208333333333334\n",
      "note_off channel=0 note=61 velocity=127 time=0.019791666666666666\n",
      "note_on channel=0 note=62 velocity=127 time=0.00625\n",
      "note_off channel=0 note=62 velocity=127 time=0.019791666666666666\n",
      "note_on channel=0 note=61 velocity=127 time=0.084375\n",
      "note_on channel=0 note=62 velocity=127 time=0.019791666666666666\n",
      "note_off channel=0 note=61 velocity=127 time=0\n",
      "note_off channel=0 note=62 velocity=127 time=0.019791666666666666\n",
      "note_on channel=0 note=60 velocity=127 time=0.06770833333333333\n",
      "note_off channel=0 note=60 velocity=127 time=0.019791666666666666\n",
      "note_on channel=0 note=61 velocity=127 time=0.003125\n",
      "note_on channel=0 note=62 velocity=127 time=0.013541666666666667\n",
      "note_off channel=0 note=61 velocity=127 time=0.00625\n",
      "note_off channel=0 note=62 velocity=127 time=0.013541666666666667\n",
      "note_on channel=0 note=61 velocity=127 time=0.096875\n",
      "note_on channel=0 note=62 velocity=127 time=0.007291666666666667\n",
      "note_off channel=0 note=61 velocity=127 time=0.0125\n",
      "note_off channel=0 note=62 velocity=127 time=0.007291666666666667\n",
      "note_on channel=0 note=61 velocity=127 time=0.103125\n",
      "note_on channel=0 note=62 velocity=127 time=0.0010416666666666667\n",
      "note_on channel=0 note=60 velocity=127 time=0.004166666666666667\n",
      "note_off channel=0 note=61 velocity=127 time=0.015625\n",
      "note_off channel=0 note=62 velocity=127 time=0.0010416666666666667\n",
      "note_off channel=0 note=60 velocity=127 time=0.004166666666666667\n",
      "note_on channel=0 note=62 velocity=127 time=0.1\n",
      "note_on channel=0 note=61 velocity=127 time=0.005208333333333333\n",
      "note_off channel=0 note=62 velocity=127 time=0.014583333333333334\n",
      "note_off channel=0 note=61 velocity=127 time=0.005208333333333333\n",
      "note_on channel=0 note=62 velocity=127 time=0.09791666666666667\n",
      "\u001b[91m [DEBUG] > \u001b[0m\n",
      " |>  to_array: msg.time > max_t; t, n\n",
      " |>  2.041666666666666\n",
      " |>  100\n",
      "note_on channel=0 note=62 velocity=127 time=0.026041666666666668\n",
      "note_on channel=0 note=61 velocity=127 time=0.015625\n",
      "note_off channel=0 note=62 velocity=127 time=0.004166666666666667\n",
      "note_off channel=0 note=61 velocity=127 time=0.015625\n",
      "note_on channel=0 note=60 velocity=127 time=0.034375\n",
      "note_on channel=0 note=61 velocity=127 time=0.015625\n",
      "note_off channel=0 note=60 velocity=127 time=0.004166666666666667\n",
      "note_off channel=0 note=61 velocity=127 time=0.015625\n",
      "note_on channel=0 note=62 velocity=127 time=0.003125\n",
      "note_off channel=0 note=62 velocity=127 time=0.019791666666666666\n",
      "note_on channel=0 note=61 velocity=127 time=0.026041666666666668\n",
      "note_off channel=0 note=61 velocity=127 time=0.019791666666666666\n",
      "note_on channel=0 note=62 velocity=127 time=0.04375\n",
      "note_on channel=0 note=61 velocity=127 time=0.00625\n",
      "note_off channel=0 note=62 velocity=127 time=0.013541666666666667\n",
      "note_off channel=0 note=61 velocity=127 time=0.00625\n",
      "note_on channel=0 note=60 velocity=127 time=0.025\n",
      "note_off channel=0 note=60 velocity=127 time=0.019791666666666666\n",
      "note_on channel=0 note=61 velocity=127 time=0.004166666666666667\n",
      "note_off channel=0 note=61 velocity=127 time=0.019791666666666666\n",
      "note_on channel=0 note=62 velocity=127 time=0.013541666666666667\n",
      "note_off channel=0 note=62 velocity=127 time=0.019791666666666666\n",
      "note_on channel=0 note=61 velocity=127 time=0.016666666666666666\n",
      "note_off channel=0 note=61 velocity=127 time=0.019791666666666666\n",
      "note_on channel=0 note=61 velocity=127 time=0.05\n",
      "note_on channel=0 note=62 velocity=127 time=0.003125\n",
      "note_off channel=0 note=61 velocity=127 time=0.016666666666666666\n",
      "note_off channel=0 note=62 velocity=127 time=0.003125\n",
      "note_on channel=0 note=60 velocity=127 time=0.013541666666666667\n",
      "note_off channel=0 note=60 velocity=127 time=0.019791666666666666\n",
      "note_on channel=0 note=61 velocity=127 time=0.013541666666666667\n",
      "note_off channel=0 note=61 velocity=127 time=0.019791666666666666\n",
      "note_on channel=0 note=62 velocity=127 time=0.022916666666666665\n",
      "note_off channel=0 note=62 velocity=127 time=0.019791666666666666\n",
      "note_on channel=0 note=61 velocity=127 time=0.007291666666666667\n",
      "note_off channel=0 note=61 velocity=127 time=0.019791666666666666\n",
      "note_on channel=0 note=61 velocity=127 time=0.05\n",
      "note_on channel=0 note=62 velocity=127 time=0.0125\n",
      "note_off channel=0 note=61 velocity=127 time=0.007291666666666667\n",
      "note_on channel=0 note=60 velocity=127 time=0.007291666666666667\n",
      "note_off channel=0 note=62 velocity=127 time=0.005208333333333333\n",
      "note_off channel=0 note=60 velocity=127 time=0.015625\n",
      "note_on channel=0 note=61 velocity=127 time=0.021875\n",
      "note_off channel=0 note=61 velocity=127 time=0.019791666666666666\n",
      "note_on channel=0 note=62 velocity=127 time=0.03229166666666666\n",
      "note_on channel=0 note=61 velocity=127 time=0.017708333333333333\n",
      "note_off channel=0 note=62 velocity=127 time=0.0020833333333333333\n",
      "note_off channel=0 note=61 velocity=127 time=0.017708333333333333\n",
      "note_on channel=0 note=61 velocity=127 time=0.05\n",
      "note_on channel=0 note=60 velocity=127 time=0.01875\n",
      "note_off channel=0 note=61 velocity=127 time=0.0010416666666666667\n",
      "note_on channel=0 note=62 velocity=127 time=0.0020833333333333333\n",
      "note_off channel=0 note=60 velocity=127 time=0.016666666666666666\n",
      "note_off channel=0 note=62 velocity=127 time=0.003125\n",
      "note_on channel=0 note=61 velocity=127 time=0.027083333333333334\n",
      "note_off channel=0 note=61 velocity=127 time=0.019791666666666666\n",
      "note_on channel=0 note=62 velocity=127 time=0.041666666666666664\n",
      "note_on channel=0 note=61 velocity=127 time=0.008333333333333333\n",
      "note_off channel=0 note=62 velocity=127 time=0.0125\n",
      "note_off channel=0 note=61 velocity=127 time=0.008333333333333333\n",
      "note_on channel=0 note=61 velocity=127 time=0.05\n",
      "note_on channel=0 note=60 velocity=127 time=0.010416666666666666\n",
      "note_off channel=0 note=61 velocity=127 time=0.009375\n",
      "note_off channel=0 note=60 velocity=127 time=0.010416666666666666\n",
      "note_on channel=0 note=62 velocity=127 time=0.0010416666666666667\n",
      "note_off channel=0 note=62 velocity=127 time=0.019791666666666666\n",
      "note_on channel=0 note=61 velocity=127 time=0.017708333333333333\n",
      "note_off channel=0 note=61 velocity=127 time=0.019791666666666666\n",
      "note_on channel=0 note=61 velocity=127 time=0.05\n",
      "note_on channel=0 note=62 velocity=127 time=0.0020833333333333333\n",
      "note_off channel=0 note=61 velocity=127 time=0.01875\n",
      "note_off channel=0 note=62 velocity=127 time=0.0020833333333333333\n",
      "note_on channel=0 note=61 velocity=127 time=0.04791666666666666\n",
      "note_on channel=0 note=60 velocity=127 time=0.0010416666666666667\n",
      "note_off channel=0 note=61 velocity=127 time=0.01875\n",
      "note_off channel=0 note=60 velocity=127 time=0.0010416666666666667\n",
      "note_on channel=0 note=62 velocity=127 time=0.019791666666666666\n",
      "note_off channel=0 note=62 velocity=127 time=0.019791666666666666\n",
      "note_on channel=0 note=61 velocity=127 time=0.008333333333333333\n",
      "note_off channel=0 note=61 velocity=127 time=0.019791666666666666\n",
      "note_on channel=0 note=61 velocity=127 time=0.05\n",
      "note_on channel=0 note=62 velocity=127 time=0.011458333333333333\n",
      "note_off channel=0 note=61 velocity=127 time=0.009375\n",
      "note_off channel=0 note=62 velocity=127 time=0.011458333333333333\n",
      "note_on channel=0 note=60 velocity=127 time=0.03125\n",
      "note_on channel=0 note=61 velocity=127 time=0.007291666666666667\n",
      "note_off channel=0 note=60 velocity=127 time=0.0125\n",
      "note_off channel=0 note=61 velocity=127 time=0.007291666666666667\n",
      "note_on channel=0 note=62 velocity=127 time=0.030208333333333334\n",
      "note_on channel=0 note=61 velocity=127 time=0.01875\n",
      "note_off channel=0 note=62 velocity=127 time=0.0010416666666666667\n",
      "note_off channel=0 note=61 velocity=127 time=0.01875\n",
      "note_on channel=0 note=61 velocity=127 time=0.05\n",
      "note_off channel=0 note=61 velocity=127 time=0.019791666666666666\n",
      "note_on channel=0 note=62 velocity=127 time=0.0010416666666666667\n",
      "note_off channel=0 note=62 velocity=127 time=0.019791666666666666\n",
      "note_on channel=0 note=60 velocity=127 time=0.0125\n",
      "note_on channel=0 note=61 velocity=127 time=0.016666666666666666\n",
      "note_off channel=0 note=60 velocity=127 time=0.004166666666666667\n",
      "note_off channel=0 note=61 velocity=127 time=0.016666666666666666\n",
      "note_on channel=0 note=62 velocity=127 time=0.040625\n",
      "note_on channel=0 note=61 velocity=127 time=0.009375\n",
      "note_off channel=0 note=62 velocity=127 time=0.010416666666666666\n",
      "note_off channel=0 note=61 velocity=127 time=0.009375\n",
      "note_on channel=0 note=61 velocity=127 time=0.05\n",
      "note_off channel=0 note=61 velocity=127 time=0.019791666666666666\n",
      "note_on channel=0 note=62 velocity=127 time=0.010416666666666666\n",
      "note_on channel=0 note=60 velocity=127 time=0.014583333333333334\n",
      "note_off channel=0 note=62 velocity=127 time=0.005208333333333333\n",
      "note_off channel=0 note=60 velocity=127 time=0.014583333333333334\n",
      "note_on channel=0 note=61 velocity=127 time=0.005208333333333333\n",
      "note_off channel=0 note=61 velocity=127 time=0.019791666666666666\n",
      "note_on channel=0 note=61 velocity=127 time=0.05\n",
      "\u001b[91m [DEBUG] > \u001b[0m\n",
      " |>  to_array: msg.time > max_t; t, n\n",
      " |>  1.9937500000000001\n",
      " |>  100\n",
      "note_on channel=0 note=60 velocity=127 time=0.06666666666666667\n",
      "note_off channel=0 note=60 velocity=127 time=0.019791666666666666\n",
      "note_on channel=0 note=61 velocity=127 time=0.004166666666666667\n",
      "note_on channel=0 note=62 velocity=127 time=0.007291666666666667\n",
      "note_off channel=0 note=61 velocity=127 time=0.0125\n",
      "note_off channel=0 note=62 velocity=127 time=0.007291666666666667\n",
      "note_on channel=0 note=60 velocity=127 time=0.015625\n",
      "note_off channel=0 note=60 velocity=127 time=0.019791666666666666\n",
      "note_on channel=0 note=60 velocity=127 time=0.04791666666666666\n",
      "note_off channel=0 note=60 velocity=127 time=0.019791666666666666\n",
      "note_on channel=0 note=61 velocity=127 time=0.042708333333333334\n",
      "note_on channel=0 note=60 velocity=127 time=0.005208333333333333\n",
      "note_off channel=0 note=61 velocity=127 time=0.015625\n",
      "note_on channel=0 note=62 velocity=127 time=0.0010416666666666667\n",
      "note_off channel=0 note=60 velocity=127 time=0.004166666666666667\n",
      "note_off channel=0 note=62 velocity=127 time=0.015625\n",
      "note_on channel=0 note=60 velocity=127 time=0.03125\n",
      "note_off channel=0 note=60 velocity=127 time=0.019791666666666666\n",
      "note_on channel=0 note=60 velocity=127 time=0.04791666666666666\n",
      "note_off channel=0 note=60 velocity=127 time=0.019791666666666666\n",
      "note_on channel=0 note=61 velocity=127 time=0.013541666666666667\n",
      "note_off channel=0 note=61 velocity=127 time=0.019791666666666666\n",
      "note_on channel=0 note=60 velocity=127 time=0.013541666666666667\n",
      "note_on channel=0 note=62 velocity=127 time=0\n",
      "note_off channel=0 note=60 velocity=127 time=0.019791666666666666\n",
      "note_off channel=0 note=62 velocity=127 time=0\n",
      "note_on channel=0 note=60 velocity=127 time=0.046875\n",
      "note_off channel=0 note=60 velocity=127 time=0.019791666666666666\n",
      "note_on channel=0 note=60 velocity=127 time=0.04791666666666666\n",
      "note_on channel=0 note=61 velocity=127 time=0.004166666666666667\n",
      "note_off channel=0 note=60 velocity=127 time=0.015625\n",
      "note_off channel=0 note=61 velocity=127 time=0.004166666666666667\n",
      "note_on channel=0 note=62 velocity=127 time=0.028125\n",
      "note_on channel=0 note=60 velocity=127 time=0.015625\n",
      "note_off channel=0 note=62 velocity=127 time=0.005208333333333333\n",
      "note_off channel=0 note=60 velocity=127 time=0.015625\n",
      "note_on channel=0 note=60 velocity=127 time=0.04791666666666666\n",
      "note_off channel=0 note=60 velocity=127 time=0.019791666666666666\n",
      "note_on channel=0 note=61 velocity=127 time=0.022916666666666665\n",
      "note_off channel=0 note=61 velocity=127 time=0.019791666666666666\n",
      "note_on channel=0 note=60 velocity=127 time=0.005208333333333333\n",
      "note_off channel=0 note=60 velocity=127 time=0.019791666666666666\n",
      "note_on channel=0 note=62 velocity=127 time=0.016666666666666666\n",
      "note_off channel=0 note=62 velocity=127 time=0.019791666666666666\n",
      "note_on channel=0 note=60 velocity=127 time=0.010416666666666666\n",
      "note_off channel=0 note=60 velocity=127 time=0.019791666666666666\n",
      "note_on channel=0 note=60 velocity=127 time=0.04791666666666666\n",
      "note_on channel=0 note=61 velocity=127 time=0.013541666666666667\n",
      "note_off channel=0 note=60 velocity=127 time=0.00625\n",
      "note_off channel=0 note=61 velocity=127 time=0.013541666666666667\n",
      "note_on channel=0 note=60 velocity=127 time=0.034375\n",
      "note_off channel=0 note=60 velocity=127 time=0.019791666666666666\n",
      "note_on channel=0 note=62 velocity=127 time=0.0010416666666666667\n",
      "note_off channel=0 note=62 velocity=127 time=0.019791666666666666\n",
      "note_on channel=0 note=60 velocity=127 time=0.026041666666666668\n",
      "note_off channel=0 note=60 velocity=127 time=0.019791666666666666\n",
      "note_on channel=0 note=61 velocity=127 time=0.03125\n",
      "note_on channel=0 note=60 velocity=127 time=0.015625\n",
      "note_off channel=0 note=61 velocity=127 time=0.004166666666666667\n",
      "note_off channel=0 note=60 velocity=127 time=0.015625\n",
      "note_on channel=0 note=60 velocity=127 time=0.04791666666666666\n",
      "note_on channel=0 note=62 velocity=127 time=0.005208333333333333\n",
      "note_off channel=0 note=60 velocity=127 time=0.014583333333333334\n",
      "note_off channel=0 note=62 velocity=127 time=0.005208333333333333\n",
      "note_on channel=0 note=60 velocity=127 time=0.041666666666666664\n",
      "note_off channel=0 note=60 velocity=127 time=0.019791666666666666\n",
      "note_on channel=0 note=61 velocity=127 time=0.0020833333333333333\n",
      "note_off channel=0 note=61 velocity=127 time=0.019791666666666666\n",
      "note_on channel=0 note=60 velocity=127 time=0.025\n",
      "note_off channel=0 note=60 velocity=127 time=0.019791666666666666\n",
      "note_on channel=0 note=62 velocity=127 time=0.0375\n",
      "note_on channel=0 note=60 velocity=127 time=0.010416666666666666\n",
      "note_off channel=0 note=62 velocity=127 time=0.009375\n",
      "note_off channel=0 note=60 velocity=127 time=0.010416666666666666\n",
      "note_on channel=0 note=61 velocity=127 time=0.040625\n",
      "note_on channel=0 note=60 velocity=127 time=0.00625\n",
      "note_off channel=0 note=61 velocity=127 time=0.013541666666666667\n",
      "note_off channel=0 note=60 velocity=127 time=0.00625\n",
      "note_on channel=0 note=60 velocity=127 time=0.04791666666666666\n",
      "note_off channel=0 note=60 velocity=127 time=0.019791666666666666\n",
      "note_on channel=0 note=62 velocity=127 time=0.021875\n",
      "note_off channel=0 note=62 velocity=127 time=0.019791666666666666\n",
      "note_on channel=0 note=60 velocity=127 time=0.00625\n",
      "note_off channel=0 note=60 velocity=127 time=0.019791666666666666\n",
      "note_on channel=0 note=61 velocity=127 time=0.011458333333333333\n",
      "note_off channel=0 note=61 velocity=127 time=0.019791666666666666\n",
      "note_on channel=0 note=60 velocity=127 time=0.015625\n",
      "note_off channel=0 note=60 velocity=127 time=0.019791666666666666\n",
      "note_on channel=0 note=60 velocity=127 time=0.04791666666666666\n",
      "note_off channel=0 note=60 velocity=127 time=0.019791666666666666\n",
      "note_on channel=0 note=62 velocity=127 time=0.00625\n",
      "note_off channel=0 note=62 velocity=127 time=0.019791666666666666\n",
      "note_on channel=0 note=60 velocity=127 time=0.021875\n",
      "note_on channel=0 note=61 velocity=127 time=0.0020833333333333333\n",
      "note_off channel=0 note=60 velocity=127 time=0.017708333333333333\n",
      "note_off channel=0 note=61 velocity=127 time=0.0020833333333333333\n",
      "note_on channel=0 note=60 velocity=127 time=0.04479166666666667\n",
      "note_off channel=0 note=60 velocity=127 time=0.019791666666666666\n",
      "note_on channel=0 note=60 velocity=127 time=0.04791666666666666\n",
      "note_on channel=0 note=62 velocity=127 time=0.010416666666666666\n",
      "note_off channel=0 note=60 velocity=127 time=0.010416666666666666\n",
      "note_off channel=0 note=62 velocity=127 time=0.010416666666666666\n",
      "note_on channel=0 note=61 velocity=127 time=0.010416666666666666\n",
      "\u001b[91m [DEBUG] > \u001b[0m\n",
      " |>  to_array: msg.time > max_t; t, n\n",
      " |>  1.9937500000000004\n",
      " |>  100\n",
      "note_on channel=0 note=61 velocity=127 time=0.007291666666666667\n",
      "note_on channel=0 note=62 velocity=127 time=0.004166666666666667\n",
      "note_off channel=0 note=61 velocity=127 time=0.016666666666666666\n",
      "note_off channel=0 note=62 velocity=127 time=0.004166666666666667\n",
      "note_on channel=0 note=60 velocity=127 time=0.008333333333333333\n",
      "note_off channel=0 note=60 velocity=127 time=0.019791666666666666\n",
      "note_on channel=0 note=62 velocity=127 time=0.0375\n",
      "note_off channel=0 note=62 velocity=127 time=0.019791666666666666\n",
      "note_on channel=0 note=60 velocity=127 time=0.026041666666666668\n",
      "note_off channel=0 note=60 velocity=127 time=0.019791666666666666\n",
      "note_on channel=0 note=62 velocity=127 time=0.020833333333333332\n",
      "note_off channel=0 note=62 velocity=127 time=0.019791666666666666\n",
      "note_on channel=0 note=61 velocity=127 time=0.008333333333333333\n",
      "note_off channel=0 note=61 velocity=127 time=0.019791666666666666\n",
      "note_on channel=0 note=60 velocity=127 time=0.014583333333333334\n",
      "note_off channel=0 note=60 velocity=127 time=0.019791666666666666\n",
      "note_on channel=0 note=62 velocity=127 time=0.003125\n",
      "note_off channel=0 note=62 velocity=127 time=0.019791666666666666\n",
      "note_on channel=0 note=60 velocity=127 time=0.06041666666666667\n",
      "note_on channel=0 note=62 velocity=127 time=0.00625\n",
      "note_off channel=0 note=60 velocity=127 time=0.013541666666666667\n",
      "note_off channel=0 note=62 velocity=127 time=0.00625\n",
      "note_on channel=0 note=61 velocity=127 time=0.041666666666666664\n",
      "note_off channel=0 note=61 velocity=127 time=0.019791666666666666\n",
      "note_on channel=0 note=62 velocity=127 time=0.005208333333333333\n",
      "note_on channel=0 note=60 velocity=127 time=0.011458333333333333\n",
      "note_off channel=0 note=62 velocity=127 time=0.009375\n",
      "note_off channel=0 note=60 velocity=127 time=0.011458333333333333\n",
      "note_on channel=0 note=62 velocity=127 time=0.05520833333333333\n",
      "note_off channel=0 note=62 velocity=127 time=0.019791666666666666\n",
      "note_on channel=0 note=60 velocity=127 time=0.008333333333333333\n",
      "note_off channel=0 note=60 velocity=127 time=0.019791666666666666\n",
      "note_on channel=0 note=62 velocity=127 time=0.03854166666666667\n",
      "note_on channel=0 note=61 velocity=127 time=0.007291666666666667\n",
      "note_off channel=0 note=62 velocity=127 time=0.0125\n",
      "note_off channel=0 note=61 velocity=127 time=0.007291666666666667\n",
      "note_on channel=0 note=60 velocity=127 time=0.017708333333333333\n",
      "note_off channel=0 note=60 velocity=127 time=0.019791666666666666\n",
      "note_on channel=0 note=62 velocity=127 time=0.020833333333333332\n",
      "note_off channel=0 note=62 velocity=127 time=0.019791666666666666\n",
      "note_on channel=0 note=60 velocity=127 time=0.042708333333333334\n",
      "note_off channel=0 note=60 velocity=127 time=0.019791666666666666\n",
      "note_on channel=0 note=62 velocity=127 time=0.004166666666666667\n",
      "note_off channel=0 note=62 velocity=127 time=0.019791666666666666\n",
      "note_on channel=0 note=61 velocity=127 time=0.019791666666666666\n",
      "note_off channel=0 note=61 velocity=127 time=0.019791666666666666\n",
      "note_on channel=0 note=60 velocity=127 time=0.019791666666666666\n",
      "note_on channel=0 note=62 velocity=127 time=0.007291666666666667\n",
      "note_off channel=0 note=60 velocity=127 time=0.013541666666666667\n",
      "note_off channel=0 note=62 velocity=127 time=0.007291666666666667\n",
      "note_on channel=0 note=62 velocity=127 time=0.06666666666666667\n",
      "note_on channel=0 note=60 velocity=127 time=0.010416666666666666\n",
      "note_off channel=0 note=62 velocity=127 time=0.009375\n",
      "note_off channel=0 note=60 velocity=127 time=0.010416666666666666\n",
      "note_on channel=0 note=61 velocity=127 time=0.042708333333333334\n",
      "note_on channel=0 note=62 velocity=127 time=0.013541666666666667\n",
      "note_off channel=0 note=61 velocity=127 time=0.00625\n",
      "note_off channel=0 note=62 velocity=127 time=0.013541666666666667\n",
      "note_on channel=0 note=60 velocity=127 time=0.007291666666666667\n",
      "note_off channel=0 note=60 velocity=127 time=0.019791666666666666\n",
      "note_on channel=0 note=62 velocity=127 time=0.03854166666666667\n",
      "note_off channel=0 note=62 velocity=127 time=0.019791666666666666\n",
      "note_on channel=0 note=60 velocity=127 time=0.025\n",
      "note_off channel=0 note=60 velocity=127 time=0.019791666666666666\n",
      "note_on channel=0 note=62 velocity=127 time=0.021875\n",
      "note_on channel=0 note=61 velocity=127 time=0.01875\n",
      "note_off channel=0 note=62 velocity=127 time=0.0010416666666666667\n",
      "note_off channel=0 note=61 velocity=127 time=0.01875\n",
      "note_on channel=0 note=60 velocity=127 time=0.022916666666666665\n",
      "note_off channel=0 note=60 velocity=127 time=0.019791666666666666\n",
      "note_on channel=0 note=62 velocity=127 time=0.004166666666666667\n",
      "note_off channel=0 note=62 velocity=127 time=0.019791666666666666\n",
      "note_on channel=0 note=60 velocity=127 time=0.059375\n",
      "note_on channel=0 note=62 velocity=127 time=0.007291666666666667\n",
      "note_off channel=0 note=60 velocity=127 time=0.0125\n",
      "note_off channel=0 note=62 velocity=127 time=0.007291666666666667\n",
      "note_on channel=0 note=61 velocity=127 time=0.03125\n",
      "note_off channel=0 note=61 velocity=127 time=0.019791666666666666\n",
      "note_on channel=0 note=62 velocity=127 time=0.015625\n",
      "note_on channel=0 note=60 velocity=127 time=0.009375\n",
      "note_off channel=0 note=62 velocity=127 time=0.010416666666666666\n",
      "note_off channel=0 note=60 velocity=127 time=0.009375\n",
      "note_on channel=0 note=62 velocity=127 time=0.057291666666666664\n",
      "note_off channel=0 note=62 velocity=127 time=0.019791666666666666\n",
      "note_on channel=0 note=60 velocity=127 time=0.007291666666666667\n",
      "note_off channel=0 note=60 velocity=127 time=0.019791666666666666\n",
      "note_on channel=0 note=61 velocity=127 time=0.036458333333333336\n",
      "note_on channel=0 note=62 velocity=127 time=0.003125\n",
      "note_off channel=0 note=61 velocity=127 time=0.017708333333333333\n",
      "note_off channel=0 note=62 velocity=127 time=0.003125\n",
      "note_on channel=0 note=60 velocity=127 time=0.02395833333333333\n",
      "note_off channel=0 note=60 velocity=127 time=0.019791666666666666\n",
      "note_on channel=0 note=62 velocity=127 time=0.022916666666666665\n",
      "note_off channel=0 note=62 velocity=127 time=0.019791666666666666\n",
      "note_on channel=0 note=60 velocity=127 time=0.041666666666666664\n",
      "note_off channel=0 note=60 velocity=127 time=0.019791666666666666\n",
      "note_on channel=0 note=62 velocity=127 time=0.005208333333333333\n",
      "note_off channel=0 note=62 velocity=127 time=0.019791666666666666\n",
      "note_on channel=0 note=61 velocity=127 time=0.010416666666666666\n",
      "note_off channel=0 note=61 velocity=127 time=0.019791666666666666\n",
      "note_on channel=0 note=60 velocity=127 time=0.028125\n",
      "note_on channel=0 note=62 velocity=127 time=0.008333333333333333\n",
      "note_off channel=0 note=60 velocity=127 time=0.011458333333333333\n",
      "note_off channel=0 note=62 velocity=127 time=0.008333333333333333\n",
      "note_on channel=0 note=62 velocity=127 time=0.06666666666666667\n",
      "\u001b[91m [DEBUG] > \u001b[0m\n",
      " |>  to_array: msg.time > max_t; t, n\n",
      " |>  1.998958333333333\n",
      " |>  100\n",
      "note_on channel=0 note=61 velocity=127 time=0.0125\n",
      "note_off channel=0 note=61 velocity=127 time=0.019791666666666666\n",
      "note_on channel=0 note=62 velocity=127 time=0.036458333333333336\n",
      "note_off channel=0 note=62 velocity=127 time=0.019791666666666666\n",
      "note_on channel=0 note=60 velocity=127 time=0.0020833333333333333\n",
      "note_on channel=0 note=61 velocity=127 time=0.00625\n",
      "note_off channel=0 note=60 velocity=127 time=0.013541666666666667\n",
      "note_off channel=0 note=61 velocity=127 time=0.00625\n",
      "note_on channel=0 note=62 velocity=127 time=0.030208333333333334\n",
      "note_off channel=0 note=62 velocity=127 time=0.019791666666666666\n",
      "note_on channel=0 note=61 velocity=127 time=0.014583333333333334\n",
      "note_off channel=0 note=61 velocity=127 time=0.019791666666666666\n",
      "note_on channel=0 note=60 velocity=127 time=0.021875\n"
     ]
    },
    {
     "name": "stdout",
     "output_type": "stream",
     "text": [
      "note_on channel=0 note=62 velocity=127 time=0.0020833333333333333\n",
      "note_off channel=0 note=60 velocity=127 time=0.017708333333333333\n",
      "note_off channel=0 note=62 velocity=127 time=0.0020833333333333333\n",
      "note_on channel=0 note=61 velocity=127 time=0.019791666666666666\n",
      "note_off channel=0 note=61 velocity=127 time=0.019791666666666666\n",
      "note_on channel=0 note=62 velocity=127 time=0.01875\n",
      "note_off channel=0 note=62 velocity=127 time=0.019791666666666666\n",
      "note_on channel=0 note=61 velocity=127 time=0.025\n",
      "note_on channel=0 note=60 velocity=127 time=0.00625\n",
      "note_off channel=0 note=61 velocity=127 time=0.013541666666666667\n",
      "note_off channel=0 note=60 velocity=127 time=0.00625\n",
      "note_on channel=0 note=62 velocity=127 time=0.007291666666666667\n",
      "note_off channel=0 note=62 velocity=127 time=0.019791666666666666\n",
      "note_on channel=0 note=61 velocity=127 time=0.03125\n",
      "note_off channel=0 note=61 velocity=127 time=0.019791666666666666\n",
      "note_on channel=0 note=62 velocity=127 time=0.007291666666666667\n",
      "note_off channel=0 note=62 velocity=127 time=0.019791666666666666\n",
      "note_on channel=0 note=60 velocity=127 time=0.00625\n",
      "note_off channel=0 note=60 velocity=127 time=0.019791666666666666\n",
      "note_on channel=0 note=61 velocity=127 time=0.010416666666666666\n",
      "note_off channel=0 note=61 velocity=127 time=0.019791666666666666\n",
      "note_on channel=0 note=62 velocity=127 time=0.0020833333333333333\n",
      "note_off channel=0 note=62 velocity=127 time=0.019791666666666666\n",
      "note_on channel=0 note=61 velocity=127 time=0.042708333333333334\n",
      "note_on channel=0 note=62 velocity=127 time=0.016666666666666666\n",
      "note_on channel=0 note=60 velocity=127 time=0.0020833333333333333\n",
      "note_off channel=0 note=61 velocity=127 time=0.0020833333333333333\n",
      "note_off channel=0 note=62 velocity=127 time=0.016666666666666666\n",
      "note_off channel=0 note=60 velocity=127 time=0.0020833333333333333\n",
      "note_on channel=0 note=61 velocity=127 time=0.04583333333333333\n",
      "note_on channel=0 note=62 velocity=127 time=0.010416666666666666\n",
      "note_off channel=0 note=61 velocity=127 time=0.009375\n",
      "note_off channel=0 note=62 velocity=127 time=0.010416666666666666\n",
      "note_on channel=0 note=60 velocity=127 time=0.035416666666666666\n",
      "note_on channel=0 note=61 velocity=127 time=0.017708333333333333\n",
      "note_off channel=0 note=60 velocity=127 time=0.0020833333333333333\n",
      "note_on channel=0 note=62 velocity=127 time=0.003125\n",
      "note_off channel=0 note=61 velocity=127 time=0.014583333333333334\n",
      "note_off channel=0 note=62 velocity=127 time=0.005208333333333333\n",
      "note_on channel=0 note=62 velocity=127 time=0.058333333333333334\n",
      "note_on channel=0 note=61 velocity=127 time=0\n",
      "note_off channel=0 note=62 velocity=127 time=0.019791666666666666\n",
      "note_off channel=0 note=61 velocity=127 time=0\n",
      "note_on channel=0 note=60 velocity=127 time=0.010416666666666666\n",
      "note_off channel=0 note=60 velocity=127 time=0.019791666666666666\n",
      "note_on channel=0 note=62 velocity=127 time=0.028125\n",
      "note_on channel=0 note=61 velocity=127 time=0.00625\n",
      "note_off channel=0 note=62 velocity=127 time=0.013541666666666667\n",
      "note_off channel=0 note=61 velocity=127 time=0.00625\n",
      "note_on channel=0 note=62 velocity=127 time=0.053125\n",
      "note_on channel=0 note=60 velocity=127 time=0.00625\n",
      "note_on channel=0 note=61 velocity=127 time=0.005208333333333333\n",
      "note_off channel=0 note=62 velocity=127 time=0.008333333333333333\n",
      "note_off channel=0 note=60 velocity=127 time=0.00625\n",
      "note_off channel=0 note=61 velocity=127 time=0.005208333333333333\n",
      "note_on channel=0 note=62 velocity=127 time=0.046875\n",
      "note_on channel=0 note=61 velocity=127 time=0.017708333333333333\n",
      "note_off channel=0 note=62 velocity=127 time=0.0020833333333333333\n",
      "note_off channel=0 note=61 velocity=127 time=0.017708333333333333\n",
      "note_on channel=0 note=60 velocity=127 time=0.022916666666666665\n",
      "note_on channel=0 note=62 velocity=127 time=0.01875\n",
      "note_off channel=0 note=60 velocity=127 time=0.0010416666666666667\n",
      "note_off channel=0 note=62 velocity=127 time=0.01875\n",
      "note_on channel=0 note=61 velocity=127 time=0.003125\n",
      "note_off channel=0 note=61 velocity=127 time=0.019791666666666666\n",
      "note_on channel=0 note=62 velocity=127 time=0.035416666666666666\n",
      "note_off channel=0 note=62 velocity=127 time=0.019791666666666666\n",
      "note_on channel=0 note=61 velocity=127 time=0.008333333333333333\n",
      "note_on channel=0 note=60 velocity=127 time=0.00625\n",
      "note_off channel=0 note=61 velocity=127 time=0.013541666666666667\n",
      "note_off channel=0 note=60 velocity=127 time=0.00625\n",
      "note_on channel=0 note=62 velocity=127 time=0.02395833333333333\n",
      "note_off channel=0 note=62 velocity=127 time=0.019791666666666666\n",
      "note_on channel=0 note=61 velocity=127 time=0.014583333333333334\n",
      "note_off channel=0 note=61 velocity=127 time=0.019791666666666666\n",
      "note_on channel=0 note=62 velocity=127 time=0.02395833333333333\n",
      "note_on channel=0 note=60 velocity=127 time=0.010416666666666666\n",
      "note_off channel=0 note=62 velocity=127 time=0.009375\n",
      "note_off channel=0 note=60 velocity=127 time=0.010416666666666666\n",
      "note_on channel=0 note=61 velocity=127 time=0.009375\n",
      "note_off channel=0 note=61 velocity=127 time=0.019791666666666666\n",
      "note_on channel=0 note=62 velocity=127 time=0.01875\n",
      "note_off channel=0 note=62 velocity=127 time=0.019791666666666666\n",
      "note_on channel=0 note=61 velocity=127 time=0.026041666666666668\n",
      "note_on channel=0 note=60 velocity=127 time=0.01875\n",
      "note_off channel=0 note=61 velocity=127 time=0.0010416666666666667\n",
      "note_on channel=0 note=62 velocity=127 time=0.013541666666666667\n",
      "note_off channel=0 note=60 velocity=127 time=0.005208333333333333\n",
      "note_off channel=0 note=62 velocity=127 time=0.014583333333333334\n",
      "note_on channel=0 note=61 velocity=127 time=0.03125\n",
      "note_off channel=0 note=61 velocity=127 time=0.019791666666666666\n",
      "note_on channel=0 note=62 velocity=127 time=0.007291666666666667\n",
      "note_off channel=0 note=62 velocity=127 time=0.019791666666666666\n",
      "note_on channel=0 note=60 velocity=127 time=0.019791666666666666\n",
      "note_on channel=0 note=61 velocity=127 time=0.017708333333333333\n",
      "note_off channel=0 note=60 velocity=127 time=0.003125\n",
      "note_off channel=0 note=61 velocity=127 time=0.017708333333333333\n",
      "note_on channel=0 note=62 velocity=127 time=0.0020833333333333333\n",
      "note_off channel=0 note=62 velocity=127 time=0.019791666666666666\n",
      "note_on channel=0 note=61 velocity=127 time=0.042708333333333334\n",
      "note_on channel=0 note=62 velocity=127 time=0.015625\n",
      "note_off channel=0 note=61 velocity=127 time=0.004166666666666667\n",
      "note_on channel=0 note=60 velocity=127 time=0.011458333333333333\n",
      "note_off channel=0 note=62 velocity=127 time=0.005208333333333333\n",
      "note_off channel=0 note=60 velocity=127 time=0.014583333333333334\n",
      "note_on channel=0 note=61 velocity=127 time=0.03333333333333333\n",
      "note_on channel=0 note=62 velocity=127 time=0.010416666666666666\n",
      "note_off channel=0 note=61 velocity=127 time=0.009375\n",
      "note_off channel=0 note=62 velocity=127 time=0.010416666666666666\n",
      "note_on channel=0 note=60 velocity=127 time=0.04895833333333333\n",
      "note_on channel=0 note=61 velocity=127 time=0.005208333333333333\n",
      "note_on channel=0 note=62 velocity=127 time=0.005208333333333333\n",
      "note_off channel=0 note=60 velocity=127 time=0.010416666666666666\n",
      "note_off channel=0 note=61 velocity=127 time=0.005208333333333333\n",
      "note_off channel=0 note=62 velocity=127 time=0.005208333333333333\n",
      "note_on channel=0 note=62 velocity=127 time=0.058333333333333334\n",
      "\u001b[91m [DEBUG] > \u001b[0m\n",
      " |>  to_array: msg.time > max_t; t, n\n",
      " |>  2.032291666666667\n",
      " |>  100\n",
      "note_on channel=0 note=62 velocity=127 time=0.017708333333333333\n",
      "note_on channel=0 note=60 velocity=127 time=0.01875\n",
      "note_off channel=0 note=62 velocity=127 time=0.0010416666666666667\n",
      "note_on channel=0 note=61 velocity=127 time=0.0010416666666666667\n",
      "note_off channel=0 note=60 velocity=127 time=0.017708333333333333\n",
      "note_off channel=0 note=61 velocity=127 time=0.0020833333333333333\n",
      "note_on channel=0 note=60 velocity=127 time=0.04791666666666666\n",
      "note_off channel=0 note=60 velocity=127 time=0.019791666666666666\n",
      "note_on channel=0 note=61 velocity=127 time=0.027083333333333334\n",
      "note_off channel=0 note=61 velocity=127 time=0.019791666666666666\n",
      "note_on channel=0 note=60 velocity=127 time=0.003125\n",
      "note_off channel=0 note=60 velocity=127 time=0.019791666666666666\n",
      "note_on channel=0 note=60 velocity=127 time=0.05\n",
      "note_off channel=0 note=60 velocity=127 time=0.019791666666666666\n",
      "note_on channel=0 note=61 velocity=127 time=0.0020833333333333333\n",
      "note_on channel=0 note=62 velocity=127 time=0.008333333333333333\n",
      "note_off channel=0 note=61 velocity=127 time=0.011458333333333333\n",
      "note_off channel=0 note=62 velocity=127 time=0.008333333333333333\n",
      "note_on channel=0 note=60 velocity=127 time=0.020833333333333332\n",
      "note_off channel=0 note=60 velocity=127 time=0.019791666666666666\n",
      "note_on channel=0 note=61 velocity=127 time=0.046875\n",
      "note_on channel=0 note=60 velocity=127 time=0.004166666666666667\n",
      "note_off channel=0 note=61 velocity=127 time=0.016666666666666666\n",
      "note_off channel=0 note=60 velocity=127 time=0.004166666666666667\n",
      "note_on channel=0 note=60 velocity=127 time=0.05\n",
      "note_off channel=0 note=60 velocity=127 time=0.019791666666666666\n",
      "note_on channel=0 note=61 velocity=127 time=0.020833333333333332\n",
      "note_off channel=0 note=61 velocity=127 time=0.019791666666666666\n",
      "note_on channel=0 note=60 velocity=127 time=0.009375\n",
      "note_on channel=0 note=62 velocity=127 time=0.008333333333333333\n",
      "note_off channel=0 note=60 velocity=127 time=0.011458333333333333\n",
      "note_off channel=0 note=62 velocity=127 time=0.008333333333333333\n",
      "note_on channel=0 note=60 velocity=127 time=0.041666666666666664\n",
      "note_on channel=0 note=61 velocity=127 time=0.015625\n",
      "note_off channel=0 note=60 velocity=127 time=0.004166666666666667\n",
      "note_off channel=0 note=61 velocity=127 time=0.015625\n",
      "note_on channel=0 note=60 velocity=127 time=0.034375\n",
      "note_off channel=0 note=60 velocity=127 time=0.019791666666666666\n",
      "note_on channel=0 note=61 velocity=127 time=0.040625\n",
      "note_on channel=0 note=60 velocity=127 time=0.009375\n",
      "note_off channel=0 note=61 velocity=127 time=0.010416666666666666\n",
      "note_off channel=0 note=60 velocity=127 time=0.009375\n",
      "note_on channel=0 note=62 velocity=127 time=0.0375\n",
      "note_on channel=0 note=60 velocity=127 time=0.0125\n",
      "note_off channel=0 note=62 velocity=127 time=0.007291666666666667\n",
      "note_off channel=0 note=60 velocity=127 time=0.0125\n",
      "note_on channel=0 note=61 velocity=127 time=0.015625\n",
      "note_off channel=0 note=61 velocity=127 time=0.019791666666666666\n",
      "note_on channel=0 note=60 velocity=127 time=0.014583333333333334\n",
      "note_off channel=0 note=60 velocity=127 time=0.019791666666666666\n",
      "note_on channel=0 note=60 velocity=127 time=0.05\n",
      "note_on channel=0 note=61 velocity=127 time=0.010416666666666666\n",
      "note_off channel=0 note=60 velocity=127 time=0.010416666666666666\n",
      "note_off channel=0 note=61 velocity=127 time=0.010416666666666666\n",
      "note_on channel=0 note=60 velocity=127 time=0.040625\n",
      "note_off channel=0 note=60 velocity=127 time=0.019791666666666666\n",
      "note_on channel=0 note=62 velocity=127 time=0.016666666666666666\n",
      "note_on channel=0 note=61 velocity=127 time=0.01875\n",
      "note_off channel=0 note=62 velocity=127 time=0.0020833333333333333\n",
      "note_on channel=0 note=60 velocity=127 time=0.013541666666666667\n",
      "note_off channel=0 note=61 velocity=127 time=0.004166666666666667\n",
      "note_off channel=0 note=60 velocity=127 time=0.015625\n",
      "note_on channel=0 note=60 velocity=127 time=0.05\n",
      "note_off channel=0 note=60 velocity=127 time=0.019791666666666666\n",
      "note_on channel=0 note=61 velocity=127 time=0.009375\n",
      "note_off channel=0 note=61 velocity=127 time=0.019791666666666666\n",
      "note_on channel=0 note=60 velocity=127 time=0.020833333333333332\n",
      "note_off channel=0 note=60 velocity=127 time=0.019791666666666666\n",
      "note_on channel=0 note=60 velocity=127 time=0.05\n",
      "note_on channel=0 note=61 velocity=127 time=0.004166666666666667\n",
      "note_on channel=0 note=62 velocity=127 time=0.011458333333333333\n",
      "note_off channel=0 note=60 velocity=127 time=0.004166666666666667\n",
      "note_off channel=0 note=61 velocity=127 time=0.004166666666666667\n",
      "note_off channel=0 note=62 velocity=127 time=0.011458333333333333\n",
      "note_on channel=0 note=60 velocity=127 time=0.035416666666666666\n",
      "note_off channel=0 note=60 velocity=127 time=0.019791666666666666\n",
      "note_on channel=0 note=61 velocity=127 time=0.029166666666666667\n",
      "note_off channel=0 note=61 velocity=127 time=0.019791666666666666\n",
      "note_on channel=0 note=60 velocity=127 time=0.0010416666666666667\n",
      "note_off channel=0 note=60 velocity=127 time=0.019791666666666666\n",
      "note_on channel=0 note=60 velocity=127 time=0.05\n",
      "note_off channel=0 note=60 velocity=127 time=0.019791666666666666\n",
      "note_on channel=0 note=61 velocity=127 time=0.004166666666666667\n",
      "note_off channel=0 note=61 velocity=127 time=0.019791666666666666\n",
      "note_on channel=0 note=62 velocity=127 time=0.020833333333333332\n",
      "note_on channel=0 note=60 velocity=127 time=0.00625\n",
      "note_off channel=0 note=62 velocity=127 time=0.014583333333333334\n",
      "note_off channel=0 note=60 velocity=127 time=0.00625\n",
      "note_on channel=0 note=61 velocity=127 time=0.04895833333333333\n",
      "note_on channel=0 note=60 velocity=127 time=0.0020833333333333333\n",
      "note_off channel=0 note=61 velocity=127 time=0.01875\n",
      "note_off channel=0 note=60 velocity=127 time=0.0020833333333333333\n",
      "note_on channel=0 note=60 velocity=127 time=0.05\n",
      "note_off channel=0 note=60 velocity=127 time=0.019791666666666666\n",
      "note_on channel=0 note=61 velocity=127 time=0.022916666666666665\n",
      "note_off channel=0 note=61 velocity=127 time=0.019791666666666666\n",
      "note_on channel=0 note=60 velocity=127 time=0.007291666666666667\n",
      "note_off channel=0 note=60 velocity=127 time=0.019791666666666666\n",
      "note_on channel=0 note=62 velocity=127 time=0.022916666666666665\n",
      "note_off channel=0 note=62 velocity=127 time=0.019791666666666666\n",
      "note_on channel=0 note=60 velocity=127 time=0.007291666666666667\n",
      "note_on channel=0 note=61 velocity=127 time=0.017708333333333333\n",
      "note_off channel=0 note=60 velocity=127 time=0.0020833333333333333\n",
      "note_off channel=0 note=61 velocity=127 time=0.017708333333333333\n",
      "note_on channel=0 note=60 velocity=127 time=0.03229166666666666\n",
      "note_off channel=0 note=60 velocity=127 time=0.019791666666666666\n",
      "note_on channel=0 note=61 velocity=127 time=0.042708333333333334\n",
      "\u001b[91m [DEBUG] > \u001b[0m\n",
      " |>  to_array: msg.time > max_t; t, n\n",
      " |>  1.9947916666666667\n",
      " |>  100\n",
      "note_on channel=0 note=61 velocity=127 time=0.042708333333333334\n",
      "note_off channel=0 note=61 velocity=127 time=0.019791666666666666\n",
      "note_on channel=0 note=62 velocity=127 time=0.0010416666666666667\n",
      "note_off channel=0 note=62 velocity=127 time=0.019791666666666666\n",
      "note_on channel=0 note=60 velocity=127 time=0.003125\n",
      "note_off channel=0 note=60 velocity=127 time=0.019791666666666666\n",
      "note_on channel=0 note=62 velocity=127 time=0.058333333333333334\n",
      "note_off channel=0 note=62 velocity=127 time=0.019791666666666666\n",
      "note_on channel=0 note=61 velocity=127 time=0.03854166666666667\n",
      "note_off channel=0 note=61 velocity=127 time=0.019791666666666666\n",
      "note_on channel=0 note=62 velocity=127 time=0.022916666666666665\n",
      "note_off channel=0 note=62 velocity=127 time=0.019791666666666666\n",
      "note_on channel=0 note=60 velocity=127 time=0.07604166666666666\n",
      "note_on channel=0 note=62 velocity=127 time=0.005208333333333333\n",
      "note_off channel=0 note=60 velocity=127 time=0.014583333333333334\n",
      "note_off channel=0 note=62 velocity=127 time=0.005208333333333333\n",
      "note_on channel=0 note=61 velocity=127 time=0.015625\n",
      "note_off channel=0 note=61 velocity=127 time=0.019791666666666666\n",
      "note_on channel=0 note=62 velocity=127 time=0.04583333333333333\n",
      "note_off channel=0 note=62 velocity=127 time=0.019791666666666666\n",
      "note_on channel=0 note=62 velocity=127 time=0.08125\n",
      "note_on channel=0 note=61 velocity=127 time=0.013541666666666667\n",
      "note_off channel=0 note=62 velocity=127 time=0.00625\n",
      "note_off channel=0 note=61 velocity=127 time=0.013541666666666667\n",
      "note_on channel=0 note=60 velocity=127 time=0.034375\n",
      "note_off channel=0 note=60 velocity=127 time=0.019791666666666666\n",
      "note_on channel=0 note=62 velocity=127 time=0.013541666666666667\n",
      "note_off channel=0 note=62 velocity=127 time=0.019791666666666666\n",
      "note_on channel=0 note=61 velocity=127 time=0.071875\n",
      "note_on channel=0 note=62 velocity=127 time=0.009375\n",
      "note_off channel=0 note=61 velocity=127 time=0.010416666666666666\n",
      "note_off channel=0 note=62 velocity=127 time=0.009375\n",
      "note_on channel=0 note=62 velocity=127 time=0.08125\n",
      "note_off channel=0 note=62 velocity=127 time=0.019791666666666666\n",
      "note_on channel=0 note=60 velocity=127 time=0.019791666666666666\n",
      "note_off channel=0 note=60 velocity=127 time=0.019791666666666666\n",
      "note_on channel=0 note=61 velocity=127 time=0.010416666666666666\n",
      "note_off channel=0 note=61 velocity=127 time=0.019791666666666666\n",
      "note_on channel=0 note=62 velocity=127 time=0.011458333333333333\n",
      "note_off channel=0 note=62 velocity=127 time=0.019791666666666666\n",
      "note_on channel=0 note=62 velocity=127 time=0.08125\n",
      "note_off channel=0 note=62 velocity=127 time=0.019791666666666666\n",
      "note_on channel=0 note=61 velocity=127 time=0.027083333333333334\n",
      "note_off channel=0 note=61 velocity=127 time=0.019791666666666666\n",
      "note_on channel=0 note=62 velocity=127 time=0.034375\n",
      "note_on channel=0 note=60 velocity=127 time=0.010416666666666666\n",
      "note_off channel=0 note=62 velocity=127 time=0.009375\n",
      "note_off channel=0 note=60 velocity=127 time=0.010416666666666666\n",
      "note_on channel=0 note=62 velocity=127 time=0.07083333333333333\n",
      "note_off channel=0 note=62 velocity=127 time=0.019791666666666666\n",
      "note_on channel=0 note=61 velocity=127 time=0.005208333333333333\n",
      "note_off channel=0 note=61 velocity=127 time=0.019791666666666666\n",
      "note_on channel=0 note=62 velocity=127 time=0.05625\n",
      "note_off channel=0 note=62 velocity=127 time=0.019791666666666666\n",
      "note_on channel=0 note=60 velocity=127 time=0.06354166666666666\n",
      "note_on channel=0 note=62 velocity=127 time=0.017708333333333333\n",
      "note_on channel=0 note=61 velocity=127 time=0.0020833333333333333\n",
      "note_off channel=0 note=60 velocity=127 time=0\n",
      "note_off channel=0 note=62 velocity=127 time=0.017708333333333333\n",
      "note_off channel=0 note=61 velocity=127 time=0.0020833333333333333\n",
      "note_on channel=0 note=62 velocity=127 time=0.07916666666666666\n",
      "note_off channel=0 note=62 velocity=127 time=0.019791666666666666\n",
      "note_on channel=0 note=61 velocity=127 time=0.06145833333333333\n",
      "note_off channel=0 note=61 velocity=127 time=0.019791666666666666\n",
      "note_on channel=0 note=62 velocity=127 time=0\n",
      "note_off channel=0 note=62 velocity=127 time=0.019791666666666666\n",
      "note_on channel=0 note=60 velocity=127 time=0.035416666666666666\n",
      "note_off channel=0 note=60 velocity=127 time=0.019791666666666666\n",
      "note_on channel=0 note=62 velocity=127 time=0.026041666666666668\n",
      "note_off channel=0 note=62 velocity=127 time=0.019791666666666666\n",
      "note_on channel=0 note=61 velocity=127 time=0.03854166666666667\n",
      "note_off channel=0 note=61 velocity=127 time=0.019791666666666666\n",
      "note_on channel=0 note=62 velocity=127 time=0.022916666666666665\n",
      "note_off channel=0 note=62 velocity=127 time=0.019791666666666666\n",
      "note_on channel=0 note=62 velocity=127 time=0.08125\n",
      "note_off channel=0 note=62 velocity=127 time=0.019791666666666666\n",
      "\u001b[91m [DEBUG] > \u001b[0m\n",
      " |>  to_array: msg.time > max_t; t, n\n",
      " |>  2.0031250000000003\n",
      " |>  100\n",
      "note_on channel=0 note=60 velocity=127 time=0.0375\n",
      "note_on channel=0 note=62 velocity=127 time=0.019791666666666666\n",
      "note_off channel=0 note=60 velocity=127 time=0\n",
      "note_off channel=0 note=62 velocity=127 time=0.019791666666666666\n",
      "note_on channel=0 note=62 velocity=127 time=0.084375\n",
      "note_off channel=0 note=62 velocity=127 time=0.019791666666666666\n",
      "note_on channel=0 note=61 velocity=127 time=0.014583333333333334\n",
      "note_off channel=0 note=61 velocity=127 time=0.019791666666666666\n",
      "note_on channel=0 note=62 velocity=127 time=0.04895833333333333\n",
      "note_on channel=0 note=60 velocity=127 time=0.010416666666666666\n",
      "note_off channel=0 note=62 velocity=127 time=0.009375\n",
      "note_off channel=0 note=60 velocity=127 time=0.010416666666666666\n",
      "note_on channel=0 note=62 velocity=127 time=0.07395833333333333\n",
      "note_off channel=0 note=62 velocity=127 time=0.019791666666666666\n",
      "note_on channel=0 note=61 velocity=127 time=0.03958333333333333\n",
      "note_off channel=0 note=61 velocity=127 time=0.019791666666666666\n",
      "note_on channel=0 note=62 velocity=127 time=0.02395833333333333\n",
      "note_off channel=0 note=62 velocity=127 time=0.019791666666666666\n",
      "note_on channel=0 note=60 velocity=127 time=0.020833333333333332\n",
      "note_off channel=0 note=60 velocity=127 time=0.019791666666666666\n",
      "note_on channel=0 note=62 velocity=127 time=0.042708333333333334\n",
      "note_off channel=0 note=62 velocity=127 time=0.019791666666666666\n",
      "note_on channel=0 note=61 velocity=127 time=0.06458333333333333\n",
      "note_on channel=0 note=62 velocity=127 time=0.019791666666666666\n",
      "note_off channel=0 note=61 velocity=127 time=0\n",
      "note_off channel=0 note=62 velocity=127 time=0.019791666666666666\n",
      "note_on channel=0 note=60 velocity=127 time=0.051041666666666666\n",
      "note_off channel=0 note=60 velocity=127 time=0.019791666666666666\n",
      "note_on channel=0 note=62 velocity=127 time=0.0125\n",
      "note_off channel=0 note=62 velocity=127 time=0.019791666666666666\n",
      "note_on channel=0 note=62 velocity=127 time=0.084375\n",
      "note_on channel=0 note=61 velocity=127 time=0.005208333333333333\n",
      "note_off channel=0 note=62 velocity=127 time=0.014583333333333334\n",
      "note_off channel=0 note=61 velocity=127 time=0.005208333333333333\n",
      "note_on channel=0 note=60 velocity=127 time=0.07604166666666666\n",
      "note_on channel=0 note=62 velocity=127 time=0.0020833333333333333\n",
      "note_off channel=0 note=60 velocity=127 time=0.017708333333333333\n",
      "note_off channel=0 note=62 velocity=127 time=0.0020833333333333333\n",
      "note_on channel=0 note=62 velocity=127 time=0.084375\n",
      "note_off channel=0 note=62 velocity=127 time=0.019791666666666666\n",
      "note_on channel=0 note=61 velocity=127 time=0.010416666666666666\n",
      "note_off channel=0 note=61 velocity=127 time=0.019791666666666666\n",
      "note_on channel=0 note=62 velocity=127 time=0.05416666666666667\n",
      "note_off channel=0 note=62 velocity=127 time=0.019791666666666666\n",
      "note_on channel=0 note=60 velocity=127 time=0.008333333333333333\n",
      "note_off channel=0 note=60 velocity=127 time=0.019791666666666666\n",
      "note_on channel=0 note=62 velocity=127 time=0.05625\n",
      "note_off channel=0 note=62 velocity=127 time=0.019791666666666666\n",
      "note_on channel=0 note=61 velocity=127 time=0.035416666666666666\n",
      "note_off channel=0 note=61 velocity=127 time=0.019791666666666666\n",
      "note_on channel=0 note=62 velocity=127 time=0.029166666666666667\n",
      "note_off channel=0 note=62 velocity=127 time=0.019791666666666666\n",
      "note_on channel=0 note=60 velocity=127 time=0.03854166666666667\n",
      "note_off channel=0 note=60 velocity=127 time=0.019791666666666666\n",
      "note_on channel=0 note=62 velocity=127 time=0.025\n",
      "note_off channel=0 note=62 velocity=127 time=0.019791666666666666\n",
      "note_on channel=0 note=61 velocity=127 time=0.059375\n",
      "note_off channel=0 note=61 velocity=127 time=0.019791666666666666\n",
      "note_on channel=0 note=62 velocity=127 time=0.004166666666666667\n",
      "note_off channel=0 note=62 velocity=127 time=0.019791666666666666\n",
      "note_on channel=0 note=60 velocity=127 time=0.06875\n",
      "note_on channel=0 note=62 velocity=127 time=0.014583333333333334\n",
      "note_off channel=0 note=60 velocity=127 time=0.005208333333333333\n",
      "note_off channel=0 note=62 velocity=127 time=0.014583333333333334\n",
      "note_on channel=0 note=62 velocity=127 time=0.084375\n",
      "note_on channel=0 note=61 velocity=127 time=0.0010416666666666667\n",
      "note_off channel=0 note=62 velocity=127 time=0.019791666666666666\n",
      "note_off channel=0 note=61 velocity=127 time=0.0010416666666666667\n",
      "note_on channel=0 note=62 velocity=127 time=0.08333333333333333\n",
      "note_on channel=0 note=60 velocity=127 time=0.015625\n",
      "note_off channel=0 note=62 velocity=127 time=0.004166666666666667\n",
      "note_off channel=0 note=60 velocity=127 time=0.015625\n",
      "note_on channel=0 note=62 velocity=127 time=0.06875\n",
      "\u001b[91m [DEBUG] > \u001b[0m\n",
      " |>  to_array: msg.time > max_t; t, n\n",
      " |>  2.0291666666666663\n",
      " |>  100\n",
      "note_on channel=0 note=61 velocity=127 time=0.04791666666666666\n",
      "note_on channel=0 note=62 velocity=127 time=0.008333333333333333\n",
      "note_off channel=0 note=61 velocity=127 time=0.011458333333333333\n",
      "note_off channel=0 note=62 velocity=127 time=0.008333333333333333\n",
      "note_on channel=0 note=61 velocity=127 time=0.04375\n",
      "note_off channel=0 note=61 velocity=127 time=0.019791666666666666\n",
      "note_on channel=0 note=60 velocity=127 time=0.013541666666666667\n",
      "note_on channel=0 note=62 velocity=127 time=0.016666666666666666\n",
      "note_off channel=0 note=60 velocity=127 time=0.003125\n",
      "note_off channel=0 note=62 velocity=127 time=0.016666666666666666\n",
      "note_on channel=0 note=61 velocity=127 time=0.0020833333333333333\n",
      "note_off channel=0 note=61 velocity=127 time=0.019791666666666666\n",
      "note_on channel=0 note=61 velocity=127 time=0.051041666666666666\n",
      "note_on channel=0 note=62 velocity=127 time=0.019791666666666666\n",
      "note_off channel=0 note=61 velocity=127 time=0\n",
      "note_off channel=0 note=62 velocity=127 time=0.019791666666666666\n",
      "note_on channel=0 note=61 velocity=127 time=0.03229166666666666\n",
      "note_off channel=0 note=61 velocity=127 time=0.019791666666666666\n",
      "note_on channel=0 note=60 velocity=127 time=0.027083333333333334\n",
      "note_on channel=0 note=62 velocity=127 time=0.014583333333333334\n",
      "note_off channel=0 note=60 velocity=127 time=0.005208333333333333\n",
      "note_on channel=0 note=61 velocity=127 time=0.005208333333333333\n",
      "note_off channel=0 note=62 velocity=127 time=0.009375\n",
      "note_off channel=0 note=61 velocity=127 time=0.010416666666666666\n",
      "note_on channel=0 note=61 velocity=127 time=0.051041666666666666\n",
      "note_off channel=0 note=61 velocity=127 time=0.019791666666666666\n",
      "note_on channel=0 note=62 velocity=127 time=0.010416666666666666\n",
      "note_off channel=0 note=62 velocity=127 time=0.019791666666666666\n",
      "note_on channel=0 note=61 velocity=127 time=0.020833333333333332\n",
      "note_off channel=0 note=61 velocity=127 time=0.019791666666666666\n",
      "note_on channel=0 note=60 velocity=127 time=0.03958333333333333\n",
      "note_on channel=0 note=61 velocity=127 time=0.011458333333333333\n",
      "note_on channel=0 note=62 velocity=127 time=0.0010416666666666667\n",
      "note_off channel=0 note=60 velocity=127 time=0.007291666666666667\n",
      "note_off channel=0 note=61 velocity=127 time=0.011458333333333333\n",
      "note_off channel=0 note=62 velocity=127 time=0.0010416666666666667\n",
      "note_on channel=0 note=61 velocity=127 time=0.051041666666666666\n",
      "note_off channel=0 note=61 velocity=127 time=0.019791666666666666\n",
      "note_on channel=0 note=62 velocity=127 time=0.021875\n",
      "note_off channel=0 note=62 velocity=127 time=0.019791666666666666\n",
      "note_on channel=0 note=61 velocity=127 time=0.009375\n",
      "note_off channel=0 note=61 velocity=127 time=0.019791666666666666\n",
      "note_on channel=0 note=61 velocity=127 time=0.051041666666666666\n",
      "note_on channel=0 note=60 velocity=127 time=0.0020833333333333333\n",
      "note_on channel=0 note=62 velocity=127 time=0.010416666666666666\n",
      "note_off channel=0 note=61 velocity=127 time=0.008333333333333333\n",
      "note_off channel=0 note=60 velocity=127 time=0.0020833333333333333\n",
      "note_off channel=0 note=62 velocity=127 time=0.010416666666666666\n"
     ]
    },
    {
     "name": "stdout",
     "output_type": "stream",
     "text": [
      "note_on channel=0 note=61 velocity=127 time=0.03958333333333333\n",
      "note_off channel=0 note=61 velocity=127 time=0.019791666666666666\n",
      "note_on channel=0 note=62 velocity=127 time=0.03333333333333333\n",
      "note_on channel=0 note=61 velocity=127 time=0.017708333333333333\n",
      "note_off channel=0 note=62 velocity=127 time=0.0020833333333333333\n",
      "note_off channel=0 note=61 velocity=127 time=0.017708333333333333\n",
      "note_on channel=0 note=61 velocity=127 time=0.051041666666666666\n",
      "note_on channel=0 note=60 velocity=127 time=0.014583333333333334\n",
      "note_off channel=0 note=61 velocity=127 time=0.005208333333333333\n",
      "note_on channel=0 note=62 velocity=127 time=0.003125\n",
      "note_off channel=0 note=60 velocity=127 time=0.011458333333333333\n",
      "note_off channel=0 note=62 velocity=127 time=0.008333333333333333\n",
      "note_on channel=0 note=61 velocity=127 time=0.028125\n",
      "note_off channel=0 note=61 velocity=127 time=0.019791666666666666\n",
      "note_on channel=0 note=62 velocity=127 time=0.04479166666666667\n",
      "note_on channel=0 note=61 velocity=127 time=0.00625\n",
      "note_off channel=0 note=62 velocity=127 time=0.013541666666666667\n",
      "note_off channel=0 note=61 velocity=127 time=0.00625\n",
      "note_on channel=0 note=61 velocity=127 time=0.051041666666666666\n",
      "note_off channel=0 note=61 velocity=127 time=0.019791666666666666\n",
      "note_on channel=0 note=60 velocity=127 time=0.008333333333333333\n",
      "note_on channel=0 note=62 velocity=127 time=0.00625\n",
      "note_off channel=0 note=60 velocity=127 time=0.013541666666666667\n",
      "note_off channel=0 note=62 velocity=127 time=0.00625\n",
      "note_on channel=0 note=61 velocity=127 time=0.016666666666666666\n",
      "note_off channel=0 note=61 velocity=127 time=0.019791666666666666\n",
      "note_on channel=0 note=61 velocity=127 time=0.051041666666666666\n",
      "note_on channel=0 note=62 velocity=127 time=0.004166666666666667\n",
      "note_off channel=0 note=61 velocity=127 time=0.015625\n",
      "note_off channel=0 note=62 velocity=127 time=0.004166666666666667\n",
      "note_on channel=0 note=61 velocity=127 time=0.046875\n",
      "note_off channel=0 note=61 velocity=127 time=0.019791666666666666\n",
      "note_on channel=0 note=60 velocity=127 time=0.021875\n",
      "note_on channel=0 note=62 velocity=127 time=0.004166666666666667\n",
      "note_off channel=0 note=60 velocity=127 time=0.015625\n",
      "note_off channel=0 note=62 velocity=127 time=0.004166666666666667\n",
      "note_on channel=0 note=61 velocity=127 time=0.005208333333333333\n",
      "note_off channel=0 note=61 velocity=127 time=0.019791666666666666\n",
      "note_on channel=0 note=61 velocity=127 time=0.051041666666666666\n",
      "note_on channel=0 note=62 velocity=127 time=0.015625\n",
      "note_off channel=0 note=61 velocity=127 time=0.004166666666666667\n",
      "note_off channel=0 note=62 velocity=127 time=0.015625\n",
      "note_on channel=0 note=61 velocity=127 time=0.035416666666666666\n",
      "note_off channel=0 note=61 velocity=127 time=0.019791666666666666\n",
      "note_on channel=0 note=60 velocity=127 time=0.035416666666666666\n",
      "note_on channel=0 note=62 velocity=127 time=0.0020833333333333333\n",
      "note_on channel=0 note=61 velocity=127 time=0.014583333333333334\n",
      "note_off channel=0 note=60 velocity=127 time=0.003125\n",
      "note_off channel=0 note=62 velocity=127 time=0.0020833333333333333\n",
      "note_off channel=0 note=61 velocity=127 time=0.014583333333333334\n",
      "note_on channel=0 note=61 velocity=127 time=0.051041666666666666\n",
      "note_off channel=0 note=61 velocity=127 time=0.019791666666666666\n",
      "note_on channel=0 note=62 velocity=127 time=0.007291666666666667\n",
      "note_off channel=0 note=62 velocity=127 time=0.019791666666666666\n",
      "note_on channel=0 note=61 velocity=127 time=0.02395833333333333\n",
      "note_off channel=0 note=61 velocity=127 time=0.019791666666666666\n",
      "note_on channel=0 note=60 velocity=127 time=0.04895833333333333\n",
      "note_on channel=0 note=62 velocity=127 time=0\n",
      "note_on channel=0 note=61 velocity=127 time=0.003125\n",
      "note_off channel=0 note=60 velocity=127 time=0.016666666666666666\n",
      "note_off channel=0 note=62 velocity=127 time=0\n",
      "note_off channel=0 note=61 velocity=127 time=0.003125\n",
      "note_on channel=0 note=61 velocity=127 time=0.051041666666666666\n",
      "\u001b[91m [DEBUG] > \u001b[0m\n",
      " |>  to_array: msg.time > max_t; t, n\n",
      " |>  2.040625\n",
      " |>  100\n",
      "note_on channel=0 note=61 velocity=127 time=0.030208333333333334\n",
      "note_off channel=0 note=61 velocity=127 time=0.019791666666666666\n",
      "note_on channel=0 note=62 velocity=127 time=0.04479166666666667\n",
      "note_on channel=0 note=60 velocity=127 time=0.009375\n",
      "note_off channel=0 note=62 velocity=127 time=0.011458333333333333\n",
      "note_off channel=0 note=60 velocity=127 time=0.009375\n",
      "note_on channel=0 note=61 velocity=127 time=0.022916666666666665\n",
      "note_off channel=0 note=61 velocity=127 time=0.019791666666666666\n",
      "note_on channel=0 note=62 velocity=127 time=0.052083333333333336\n",
      "note_on channel=0 note=60 velocity=127 time=0.003125\n",
      "note_off channel=0 note=62 velocity=127 time=0.016666666666666666\n",
      "note_off channel=0 note=60 velocity=127 time=0.003125\n",
      "note_on channel=0 note=61 velocity=127 time=0.020833333333333332\n",
      "note_off channel=0 note=61 velocity=127 time=0.019791666666666666\n",
      "note_on channel=0 note=60 velocity=127 time=0.057291666666666664\n",
      "note_on channel=0 note=62 velocity=127 time=0.0020833333333333333\n",
      "note_off channel=0 note=60 velocity=127 time=0.017708333333333333\n",
      "note_off channel=0 note=62 velocity=127 time=0.0020833333333333333\n",
      "note_on channel=0 note=61 velocity=127 time=0.016666666666666666\n",
      "note_off channel=0 note=61 velocity=127 time=0.019791666666666666\n",
      "note_on channel=0 note=60 velocity=127 time=0.059375\n",
      "note_on channel=0 note=62 velocity=127 time=0.007291666666666667\n",
      "note_off channel=0 note=60 velocity=127 time=0.0125\n",
      "note_off channel=0 note=62 velocity=127 time=0.007291666666666667\n",
      "note_on channel=0 note=61 velocity=127 time=0.009375\n",
      "note_off channel=0 note=61 velocity=127 time=0.019791666666666666\n",
      "note_on channel=0 note=60 velocity=127 time=0.06145833333333333\n",
      "note_on channel=0 note=62 velocity=127 time=0.013541666666666667\n",
      "note_off channel=0 note=60 velocity=127 time=0.007291666666666667\n",
      "note_off channel=0 note=62 velocity=127 time=0.013541666666666667\n",
      "note_on channel=0 note=61 velocity=127 time=0.0010416666666666667\n",
      "note_off channel=0 note=61 velocity=127 time=0.019791666666666666\n",
      "note_on channel=0 note=60 velocity=127 time=0.06354166666666666\n",
      "note_on channel=0 note=62 velocity=127 time=0.01875\n",
      "note_off channel=0 note=60 velocity=127 time=0.0010416666666666667\n",
      "note_on channel=0 note=61 velocity=127 time=0.0125\n",
      "note_off channel=0 note=62 velocity=127 time=0.00625\n",
      "note_off channel=0 note=61 velocity=127 time=0.014583333333333334\n",
      "note_on channel=0 note=60 velocity=127 time=0.065625\n",
      "note_off channel=0 note=60 velocity=127 time=0.019791666666666666\n",
      "note_on channel=0 note=62 velocity=127 time=0.004166666666666667\n",
      "note_on channel=0 note=61 velocity=127 time=0.00625\n",
      "note_off channel=0 note=62 velocity=127 time=0.013541666666666667\n",
      "note_off channel=0 note=61 velocity=127 time=0.00625\n",
      "note_on channel=0 note=60 velocity=127 time=0.06770833333333333\n",
      "note_off channel=0 note=60 velocity=127 time=0.019791666666666666\n",
      "note_on channel=0 note=61 velocity=127 time=0.008333333333333333\n",
      "note_on channel=0 note=62 velocity=127 time=0.0010416666666666667\n",
      "note_off channel=0 note=61 velocity=127 time=0.01875\n",
      "note_off channel=0 note=62 velocity=127 time=0.0010416666666666667\n",
      "note_on channel=0 note=60 velocity=127 time=0.06875\n",
      "note_off channel=0 note=60 velocity=127 time=0.019791666666666666\n",
      "note_on channel=0 note=61 velocity=127 time=0.00625\n",
      "note_on channel=0 note=62 velocity=127 time=0.008333333333333333\n",
      "note_off channel=0 note=61 velocity=127 time=0.011458333333333333\n",
      "note_off channel=0 note=62 velocity=127 time=0.008333333333333333\n",
      "note_on channel=0 note=60 velocity=127 time=0.06354166666666666\n",
      "note_off channel=0 note=60 velocity=127 time=0.019791666666666666\n",
      "note_on channel=0 note=61 velocity=127 time=0.005208333333333333\n",
      "note_on channel=0 note=62 velocity=127 time=0.015625\n",
      "note_off channel=0 note=61 velocity=127 time=0.004166666666666667\n",
      "note_off channel=0 note=62 velocity=127 time=0.015625\n",
      "note_on channel=0 note=60 velocity=127 time=0.057291666666666664\n",
      "note_off channel=0 note=60 velocity=127 time=0.019791666666666666\n",
      "note_on channel=0 note=61 velocity=127 time=0.003125\n",
      "note_off channel=0 note=61 velocity=127 time=0.019791666666666666\n",
      "note_on channel=0 note=62 velocity=127 time=0.003125\n",
      "note_off channel=0 note=62 velocity=127 time=0.019791666666666666\n",
      "note_on channel=0 note=60 velocity=127 time=0.052083333333333336\n",
      "note_off channel=0 note=60 velocity=127 time=0.019791666666666666\n",
      "note_on channel=0 note=61 velocity=127 time=0.0010416666666666667\n",
      "note_off channel=0 note=61 velocity=127 time=0.019791666666666666\n",
      "note_on channel=0 note=62 velocity=127 time=0.010416666666666666\n",
      "note_off channel=0 note=62 velocity=127 time=0.019791666666666666\n",
      "note_on channel=0 note=60 velocity=127 time=0.046875\n",
      "note_on channel=0 note=61 velocity=127 time=0.01875\n",
      "note_off channel=0 note=60 velocity=127 time=0.0010416666666666667\n",
      "note_off channel=0 note=61 velocity=127 time=0.01875\n",
      "note_on channel=0 note=62 velocity=127 time=0.01875\n",
      "note_off channel=0 note=62 velocity=127 time=0.019791666666666666\n",
      "note_on channel=0 note=60 velocity=127 time=0.041666666666666664\n",
      "note_on channel=0 note=61 velocity=127 time=0.016666666666666666\n",
      "note_off channel=0 note=60 velocity=127 time=0.003125\n",
      "note_off channel=0 note=61 velocity=127 time=0.016666666666666666\n",
      "note_on channel=0 note=62 velocity=127 time=0.026041666666666668\n",
      "note_off channel=0 note=62 velocity=127 time=0.019791666666666666\n",
      "note_on channel=0 note=60 velocity=127 time=0.035416666666666666\n",
      "note_on channel=0 note=61 velocity=127 time=0.014583333333333334\n",
      "note_off channel=0 note=60 velocity=127 time=0.005208333333333333\n",
      "note_off channel=0 note=61 velocity=127 time=0.014583333333333334\n",
      "note_on channel=0 note=62 velocity=127 time=0.03333333333333333\n",
      "note_off channel=0 note=62 velocity=127 time=0.019791666666666666\n",
      "note_on channel=0 note=60 velocity=127 time=0.030208333333333334\n",
      "note_on channel=0 note=61 velocity=127 time=0.0125\n",
      "note_off channel=0 note=60 velocity=127 time=0.007291666666666667\n",
      "note_off channel=0 note=61 velocity=127 time=0.0125\n",
      "note_on channel=0 note=62 velocity=127 time=0.040625\n",
      "note_off channel=0 note=62 velocity=127 time=0.019791666666666666\n",
      "note_on channel=0 note=60 velocity=127 time=0.025\n",
      "\u001b[91m [DEBUG] > \u001b[0m\n",
      " |>  to_array: msg.time > max_t; t, n\n",
      " |>  1.9916666666666667\n",
      " |>  100\n",
      "note_on channel=0 note=61 velocity=127 time=0.034375\n",
      "note_on channel=0 note=62 velocity=127 time=0.016666666666666666\n",
      "note_off channel=0 note=61 velocity=127 time=0.003125\n",
      "note_off channel=0 note=62 velocity=127 time=0.016666666666666666\n",
      "note_on channel=0 note=60 velocity=127 time=0.030208333333333334\n",
      "note_on channel=0 note=61 velocity=127 time=0.009375\n",
      "note_off channel=0 note=60 velocity=127 time=0.010416666666666666\n",
      "note_off channel=0 note=61 velocity=127 time=0.009375\n",
      "note_on channel=0 note=61 velocity=127 time=0.05625\n",
      "note_on channel=0 note=60 velocity=127 time=0.019791666666666666\n",
      "note_off channel=0 note=61 velocity=127 time=0\n",
      "note_off channel=0 note=60 velocity=127 time=0.019791666666666666\n",
      "note_on channel=0 note=61 velocity=127 time=0.036458333333333336\n",
      "note_off channel=0 note=61 velocity=127 time=0.019791666666666666\n",
      "note_on channel=0 note=60 velocity=127 time=0.029166666666666667\n",
      "note_off channel=0 note=60 velocity=127 time=0.019791666666666666\n",
      "note_on channel=0 note=61 velocity=127 time=0.007291666666666667\n",
      "note_off channel=0 note=61 velocity=127 time=0.019791666666666666\n",
      "note_on channel=0 note=62 velocity=127 time=0.017708333333333333\n",
      "note_off channel=0 note=62 velocity=127 time=0.019791666666666666\n",
      "note_on channel=0 note=61 velocity=127 time=0.01875\n",
      "note_on channel=0 note=60 velocity=127 time=0.0010416666666666667\n",
      "note_off channel=0 note=61 velocity=127 time=0.01875\n",
      "note_off channel=0 note=60 velocity=127 time=0.0010416666666666667\n",
      "note_on channel=0 note=61 velocity=127 time=0.05520833333333333\n",
      "note_off channel=0 note=61 velocity=127 time=0.019791666666666666\n",
      "note_on channel=0 note=60 velocity=127 time=0.010416666666666666\n",
      "note_off channel=0 note=60 velocity=127 time=0.019791666666666666\n",
      "note_on channel=0 note=61 velocity=127 time=0.026041666666666668\n",
      "note_off channel=0 note=61 velocity=127 time=0.019791666666666666\n",
      "note_on channel=0 note=60 velocity=127 time=0.03958333333333333\n",
      "note_on channel=0 note=61 velocity=127 time=0.016666666666666666\n",
      "note_off channel=0 note=60 velocity=127 time=0.003125\n",
      "note_off channel=0 note=61 velocity=127 time=0.016666666666666666\n",
      "note_on channel=0 note=62 velocity=127 time=0.03854166666666667\n",
      "note_on channel=0 note=61 velocity=127 time=0.017708333333333333\n",
      "note_off channel=0 note=62 velocity=127 time=0.0020833333333333333\n",
      "note_on channel=0 note=60 velocity=127 time=0.010416666666666666\n",
      "note_off channel=0 note=61 velocity=127 time=0.008333333333333333\n",
      "note_off channel=0 note=60 velocity=127 time=0.0125\n",
      "note_on channel=0 note=61 velocity=127 time=0.04375\n",
      "note_off channel=0 note=61 velocity=127 time=0.019791666666666666\n",
      "note_on channel=0 note=60 velocity=127 time=0.020833333333333332\n",
      "note_off channel=0 note=60 velocity=127 time=0.019791666666666666\n",
      "note_on channel=0 note=61 velocity=127 time=0.015625\n",
      "note_off channel=0 note=61 velocity=127 time=0.019791666666666666\n",
      "note_on channel=0 note=60 velocity=127 time=0.05\n",
      "note_on channel=0 note=61 velocity=127 time=0.00625\n",
      "note_off channel=0 note=60 velocity=127 time=0.013541666666666667\n",
      "note_off channel=0 note=61 velocity=127 time=0.00625\n",
      "note_on channel=0 note=61 velocity=127 time=0.05625\n",
      "note_on channel=0 note=62 velocity=127 time=0.003125\n",
      "note_off channel=0 note=61 velocity=127 time=0.017708333333333333\n",
      "note_off channel=0 note=62 velocity=127 time=0.003125\n",
      "note_on channel=0 note=60 velocity=127 time=0\n",
      "note_off channel=0 note=60 velocity=127 time=0.019791666666666666\n",
      "note_on channel=0 note=61 velocity=127 time=0.03333333333333333\n",
      "note_off channel=0 note=61 velocity=127 time=0.019791666666666666\n",
      "note_on channel=0 note=60 velocity=127 time=0.03125\n",
      "note_off channel=0 note=60 velocity=127 time=0.019791666666666666\n",
      "note_on channel=0 note=61 velocity=127 time=0.004166666666666667\n",
      "note_off channel=0 note=61 velocity=127 time=0.019791666666666666\n",
      "note_on channel=0 note=61 velocity=127 time=0.05625\n",
      "note_on channel=0 note=60 velocity=127 time=0.004166666666666667\n",
      "note_off channel=0 note=61 velocity=127 time=0.015625\n",
      "note_off channel=0 note=60 velocity=127 time=0.004166666666666667\n",
      "note_on channel=0 note=61 velocity=127 time=0.052083333333333336\n",
      "note_off channel=0 note=61 velocity=127 time=0.019791666666666666\n",
      "note_on channel=0 note=62 velocity=127 time=0.003125\n",
      "note_on channel=0 note=60 velocity=127 time=0.010416666666666666\n",
      "note_off channel=0 note=62 velocity=127 time=0.009375\n",
      "note_off channel=0 note=60 velocity=127 time=0.010416666666666666\n",
      "note_on channel=0 note=61 velocity=127 time=0.022916666666666665\n",
      "note_off channel=0 note=61 velocity=127 time=0.019791666666666666\n",
      "note_on channel=0 note=60 velocity=127 time=0.042708333333333334\n",
      "note_on channel=0 note=61 velocity=127 time=0.013541666666666667\n",
      "note_off channel=0 note=60 velocity=127 time=0.00625\n",
      "note_off channel=0 note=61 velocity=127 time=0.013541666666666667\n",
      "note_on channel=0 note=61 velocity=127 time=0.05625\n",
      "note_on channel=0 note=60 velocity=127 time=0.015625\n",
      "note_off channel=0 note=61 velocity=127 time=0.005208333333333333\n",
      "note_off channel=0 note=60 velocity=127 time=0.015625\n",
      "note_on channel=0 note=61 velocity=127 time=0.040625\n",
      "note_off channel=0 note=61 velocity=127 time=0.019791666666666666\n",
      "note_on channel=0 note=62 velocity=127 time=0.02395833333333333\n",
      "note_on channel=0 note=60 velocity=127 time=0\n",
      "note_off channel=0 note=62 velocity=127 time=0.019791666666666666\n",
      "note_off channel=0 note=60 velocity=127 time=0\n",
      "note_on channel=0 note=61 velocity=127 time=0.0125\n",
      "note_off channel=0 note=61 velocity=127 time=0.019791666666666666\n",
      "note_on channel=0 note=60 velocity=127 time=0.053125\n",
      "note_on channel=0 note=61 velocity=127 time=0.003125\n",
      "note_off channel=0 note=60 velocity=127 time=0.016666666666666666\n",
      "note_off channel=0 note=61 velocity=127 time=0.003125\n",
      "note_on channel=0 note=61 velocity=127 time=0.05625\n",
      "note_off channel=0 note=61 velocity=127 time=0.019791666666666666\n",
      "note_on channel=0 note=60 velocity=127 time=0.00625\n",
      "note_off channel=0 note=60 velocity=127 time=0.019791666666666666\n",
      "note_on channel=0 note=61 velocity=127 time=0.030208333333333334\n",
      "note_off channel=0 note=61 velocity=127 time=0.019791666666666666\n",
      "note_on channel=0 note=60 velocity=127 time=0.034375\n",
      "\u001b[91m [DEBUG] > \u001b[0m\n",
      " |>  to_array: msg.time > max_t; t, n\n",
      " |>  1.9916666666666663\n",
      " |>  100\n",
      "note_on channel=0 note=61 velocity=127 time=0.003125\n",
      "note_off channel=0 note=61 velocity=127 time=0.019791666666666666\n",
      "note_on channel=0 note=60 velocity=127 time=0.06354166666666666\n",
      "note_off channel=0 note=60 velocity=127 time=0.019791666666666666\n",
      "note_on channel=0 note=61 velocity=127 time=0.11354166666666667\n",
      "note_on channel=0 note=62 velocity=127 time=0.0020833333333333333\n",
      "note_off channel=0 note=61 velocity=127 time=0.017708333333333333\n",
      "note_off channel=0 note=62 velocity=127 time=0.0020833333333333333\n",
      "note_on channel=0 note=60 velocity=127 time=0.08958333333333333\n",
      "note_off channel=0 note=60 velocity=127 time=0.019791666666666666\n",
      "note_on channel=0 note=61 velocity=127 time=0.08645833333333333\n",
      "note_on channel=0 note=62 velocity=127 time=0.016666666666666666\n",
      "note_off channel=0 note=61 velocity=127 time=0.003125\n",
      "note_off channel=0 note=62 velocity=127 time=0.016666666666666666\n",
      "note_on channel=0 note=60 velocity=127 time=0.10208333333333333\n",
      "note_off channel=0 note=60 velocity=127 time=0.019791666666666666\n",
      "note_on channel=0 note=61 velocity=127 time=0.058333333333333334\n",
      "note_off channel=0 note=61 velocity=127 time=0.019791666666666666\n",
      "note_on channel=0 note=62 velocity=127 time=0.011458333333333333\n",
      "note_off channel=0 note=62 velocity=127 time=0.019791666666666666\n",
      "note_on channel=0 note=60 velocity=127 time=0.11562499999999999\n",
      "note_off channel=0 note=60 velocity=127 time=0.019791666666666666\n",
      "note_on channel=0 note=61 velocity=127 time=0.03125\n",
      "note_off channel=0 note=61 velocity=127 time=0.019791666666666666\n",
      "note_on channel=0 note=62 velocity=127 time=0.026041666666666668\n",
      "note_off channel=0 note=62 velocity=127 time=0.019791666666666666\n",
      "note_on channel=0 note=60 velocity=127 time=0.128125\n",
      "note_off channel=0 note=60 velocity=127 time=0.019791666666666666\n",
      "note_on channel=0 note=61 velocity=127 time=0.003125\n",
      "note_off channel=0 note=61 velocity=127 time=0.019791666666666666\n",
      "note_on channel=0 note=62 velocity=127 time=0.040625\n",
      "note_off channel=0 note=62 velocity=127 time=0.019791666666666666\n",
      "note_on channel=0 note=61 velocity=127 time=0.13645833333333332\n",
      "note_on channel=0 note=60 velocity=127 time=0.004166666666666667\n",
      "note_off channel=0 note=61 velocity=127 time=0.015625\n",
      "note_off channel=0 note=60 velocity=127 time=0.004166666666666667\n",
      "note_on channel=0 note=62 velocity=127 time=0.051041666666666666\n",
      "note_off channel=0 note=62 velocity=127 time=0.019791666666666666\n",
      "note_on channel=0 note=61 velocity=127 time=0.121875\n",
      "note_off channel=0 note=61 velocity=127 time=0.019791666666666666\n",
      "note_on channel=0 note=60 velocity=127 time=0.011458333333333333\n",
      "note_off channel=0 note=60 velocity=127 time=0.019791666666666666\n",
      "note_on channel=0 note=62 velocity=127 time=0.03854166666666667\n",
      "note_off channel=0 note=62 velocity=127 time=0.019791666666666666\n",
      "note_on channel=0 note=61 velocity=127 time=0.10729166666666666\n",
      "note_off channel=0 note=61 velocity=127 time=0.019791666666666666\n",
      "note_on channel=0 note=60 velocity=127 time=0.03958333333333333\n",
      "note_off channel=0 note=60 velocity=127 time=0.019791666666666666\n",
      "note_on channel=0 note=62 velocity=127 time=0.025\n",
      "note_off channel=0 note=62 velocity=127 time=0.019791666666666666\n",
      "note_on channel=0 note=61 velocity=127 time=0.09270833333333334\n",
      "note_off channel=0 note=61 velocity=127 time=0.019791666666666666\n",
      "note_on channel=0 note=60 velocity=127 time=0.06666666666666667\n",
      "\u001b[91m [DEBUG] > \u001b[0m\n",
      " |>  to_array: msg.time > max_t; t, n\n",
      " |>  2.041666666666666\n",
      " |>  100\n",
      "note_on channel=0 note=60 velocity=127 time=0.05\n",
      "note_on channel=0 note=62 velocity=127 time=0.014583333333333334\n",
      "note_off channel=0 note=60 velocity=127 time=0.00625\n",
      "note_off channel=0 note=62 velocity=127 time=0.014583333333333334\n",
      "note_on channel=0 note=61 velocity=127 time=0.04479166666666667\n",
      "note_on channel=0 note=62 velocity=127 time=0.009375\n",
      "note_off channel=0 note=61 velocity=127 time=0.010416666666666666\n",
      "note_on channel=0 note=60 velocity=127 time=0.008333333333333333\n",
      "note_off channel=0 note=62 velocity=127 time=0.0010416666666666667\n",
      "note_off channel=0 note=60 velocity=127 time=0.01875\n",
      "note_on channel=0 note=62 velocity=127 time=0.035416666666666666\n",
      "note_off channel=0 note=62 velocity=127 time=0.019791666666666666\n",
      "note_on channel=0 note=60 velocity=127 time=0.03229166666666666\n",
      "note_off channel=0 note=60 velocity=127 time=0.019791666666666666\n",
      "note_on channel=0 note=62 velocity=127 time=0.0020833333333333333\n",
      "note_on channel=0 note=61 velocity=127 time=0.010416666666666666\n",
      "note_off channel=0 note=62 velocity=127 time=0.010416666666666666\n",
      "note_off channel=0 note=61 velocity=127 time=0.010416666666666666\n",
      "note_on channel=0 note=62 velocity=127 time=0.04375\n",
      "note_on channel=0 note=60 velocity=127 time=0.011458333333333333\n",
      "note_off channel=0 note=62 velocity=127 time=0.009375\n",
      "note_off channel=0 note=60 velocity=127 time=0.011458333333333333\n",
      "note_on channel=0 note=62 velocity=127 time=0.042708333333333334\n",
      "note_off channel=0 note=62 velocity=127 time=0.019791666666666666\n",
      "note_on channel=0 note=61 velocity=127 time=0.009375\n",
      "note_on channel=0 note=60 velocity=127 time=0.014583333333333334\n",
      "note_off channel=0 note=61 velocity=127 time=0.005208333333333333\n",
      "note_off channel=0 note=60 velocity=127 time=0.014583333333333334\n",
      "note_on channel=0 note=62 velocity=127 time=0.009375\n",
      "note_off channel=0 note=62 velocity=127 time=0.019791666666666666\n",
      "note_on channel=0 note=62 velocity=127 time=0.05416666666666667\n",
      "note_on channel=0 note=60 velocity=127 time=0.003125\n",
      "note_off channel=0 note=62 velocity=127 time=0.016666666666666666\n",
      "note_off channel=0 note=60 velocity=127 time=0.003125\n",
      "note_on channel=0 note=61 velocity=127 time=0.026041666666666668\n",
      "note_off channel=0 note=61 velocity=127 time=0.019791666666666666\n",
      "note_on channel=0 note=62 velocity=127 time=0.005208333333333333\n",
      "note_off channel=0 note=62 velocity=127 time=0.019791666666666666\n",
      "note_on channel=0 note=60 velocity=127 time=0.016666666666666666\n",
      "note_off channel=0 note=60 velocity=127 time=0.019791666666666666\n",
      "note_on channel=0 note=62 velocity=127 time=0.017708333333333333\n",
      "note_off channel=0 note=62 velocity=127 time=0.019791666666666666\n",
      "note_on channel=0 note=61 velocity=127 time=0.04791666666666666\n",
      "note_on channel=0 note=60 velocity=127 time=0.0010416666666666667\n",
      "note_on channel=0 note=62 velocity=127 time=0.004166666666666667\n",
      "note_off channel=0 note=61 velocity=127 time=0.014583333333333334\n",
      "note_off channel=0 note=60 velocity=127 time=0.0010416666666666667\n",
      "note_off channel=0 note=62 velocity=127 time=0.004166666666666667\n",
      "note_on channel=0 note=62 velocity=127 time=0.05416666666666667\n",
      "note_off channel=0 note=62 velocity=127 time=0.019791666666666666\n",
      "note_on channel=0 note=60 velocity=127 time=0.008333333333333333\n",
      "note_off channel=0 note=60 velocity=127 time=0.019791666666666666\n",
      "note_on channel=0 note=62 velocity=127 time=0.025\n",
      "note_on channel=0 note=61 velocity=127 time=0.013541666666666667\n",
      "note_off channel=0 note=62 velocity=127 time=0.00625\n",
      "note_off channel=0 note=61 velocity=127 time=0.013541666666666667\n",
      "note_on channel=0 note=60 velocity=127 time=0.027083333333333334\n",
      "note_on channel=0 note=62 velocity=127 time=0.0125\n",
      "note_off channel=0 note=60 velocity=127 time=0.007291666666666667\n",
      "note_off channel=0 note=62 velocity=127 time=0.0125\n",
      "note_on channel=0 note=62 velocity=127 time=0.05416666666666667\n",
      "note_off channel=0 note=62 velocity=127 time=0.019791666666666666\n",
      "note_on channel=0 note=60 velocity=127 time=0\n",
      "note_on channel=0 note=61 velocity=127 time=0.0125\n",
      "note_off channel=0 note=60 velocity=127 time=0.007291666666666667\n",
      "note_off channel=0 note=61 velocity=127 time=0.0125\n",
      "note_on channel=0 note=62 velocity=127 time=0.020833333333333332\n",
      "note_off channel=0 note=62 velocity=127 time=0.019791666666666666\n",
      "note_on channel=0 note=60 velocity=127 time=0.03333333333333333\n",
      "note_off channel=0 note=60 velocity=127 time=0.019791666666666666\n",
      "note_on channel=0 note=62 velocity=127 time=0\n",
      "note_off channel=0 note=62 velocity=127 time=0.019791666666666666\n",
      "note_on channel=0 note=61 velocity=127 time=0.03333333333333333\n",
      "note_off channel=0 note=61 velocity=127 time=0.019791666666666666\n",
      "note_on channel=0 note=62 velocity=127 time=0.0010416666666666667\n",
      "note_on channel=0 note=60 velocity=127 time=0.0125\n",
      "note_off channel=0 note=62 velocity=127 time=0.007291666666666667\n",
      "note_off channel=0 note=60 velocity=127 time=0.0125\n",
      "note_on channel=0 note=62 velocity=127 time=0.041666666666666664\n",
      "note_off channel=0 note=62 velocity=127 time=0.019791666666666666\n",
      "note_on channel=0 note=60 velocity=127 time=0.026041666666666668\n",
      "note_off channel=0 note=60 velocity=127 time=0.019791666666666666\n",
      "note_on channel=0 note=61 velocity=127 time=0.00625\n",
      "note_on channel=0 note=62 velocity=127 time=0.0010416666666666667\n",
      "note_off channel=0 note=61 velocity=127 time=0.01875\n",
      "note_off channel=0 note=62 velocity=127 time=0.0010416666666666667\n",
      "note_on channel=0 note=62 velocity=127 time=0.05416666666666667\n",
      "note_on channel=0 note=60 velocity=127 time=0.005208333333333333\n",
      "note_off channel=0 note=62 velocity=127 time=0.015625\n",
      "note_off channel=0 note=60 velocity=127 time=0.005208333333333333\n",
      "note_on channel=0 note=62 velocity=127 time=0.04895833333333333\n",
      "note_on channel=0 note=61 velocity=127 time=0.017708333333333333\n",
      "note_off channel=0 note=62 velocity=127 time=0.0020833333333333333\n",
      "note_on channel=0 note=60 velocity=127 time=0.017708333333333333\n",
      "note_off channel=0 note=61 velocity=127 time=0\n"
     ]
    },
    {
     "name": "stdout",
     "output_type": "stream",
     "text": [
      "note_off channel=0 note=60 velocity=127 time=0.019791666666666666\n",
      "note_on channel=0 note=62 velocity=127 time=0.015625\n",
      "note_off channel=0 note=62 velocity=127 time=0.019791666666666666\n",
      "note_on channel=0 note=60 velocity=127 time=0.051041666666666666\n",
      "note_on channel=0 note=62 velocity=127 time=0.003125\n",
      "note_off channel=0 note=60 velocity=127 time=0.016666666666666666\n",
      "note_off channel=0 note=62 velocity=127 time=0.003125\n",
      "note_on channel=0 note=61 velocity=127 time=0.017708333333333333\n",
      "note_off channel=0 note=61 velocity=127 time=0.019791666666666666\n",
      "note_on channel=0 note=62 velocity=127 time=0.016666666666666666\n",
      "note_off channel=0 note=62 velocity=127 time=0.019791666666666666\n",
      "note_on channel=0 note=60 velocity=127 time=0.009375\n",
      "note_off channel=0 note=60 velocity=127 time=0.019791666666666666\n",
      "note_on channel=0 note=62 velocity=127 time=0.02395833333333333\n",
      "note_off channel=0 note=62 velocity=127 time=0.019791666666666666\n",
      "note_on channel=0 note=61 velocity=127 time=0.036458333333333336\n",
      "note_on channel=0 note=60 velocity=127 time=0.00625\n",
      "note_on channel=0 note=62 velocity=127 time=0.011458333333333333\n",
      "note_off channel=0 note=61 velocity=127 time=0.003125\n",
      "note_off channel=0 note=60 velocity=127 time=0.00625\n",
      "\u001b[91m [DEBUG] > \u001b[0m\n",
      " |>  to_array: msg.time > max_t; t, n\n",
      " |>  1.9916666666666671\n",
      " |>  100\n",
      "note_on channel=0 note=60 velocity=127 time=0.020833333333333332\n",
      "note_on channel=0 note=61 velocity=127 time=0.003125\n",
      "note_off channel=0 note=60 velocity=127 time=0.016666666666666666\n",
      "note_off channel=0 note=61 velocity=127 time=0.003125\n",
      "note_on channel=0 note=61 velocity=127 time=0.07708333333333334\n",
      "note_on channel=0 note=60 velocity=127 time=0.00625\n",
      "note_off channel=0 note=61 velocity=127 time=0.013541666666666667\n",
      "note_off channel=0 note=60 velocity=127 time=0.00625\n",
      "note_on channel=0 note=62 velocity=127 time=0.03229166666666666\n",
      "note_off channel=0 note=62 velocity=127 time=0.019791666666666666\n",
      "note_on channel=0 note=61 velocity=127 time=0.017708333333333333\n",
      "note_on channel=0 note=60 velocity=127 time=0.015625\n",
      "note_off channel=0 note=61 velocity=127 time=0.005208333333333333\n",
      "note_off channel=0 note=60 velocity=127 time=0.015625\n",
      "note_on channel=0 note=61 velocity=127 time=0.06145833333333333\n",
      "note_off channel=0 note=61 velocity=127 time=0.019791666666666666\n",
      "note_on channel=0 note=60 velocity=127 time=0.004166666666666667\n",
      "note_off channel=0 note=60 velocity=127 time=0.019791666666666666\n",
      "note_on channel=0 note=62 velocity=127 time=0.03333333333333333\n",
      "note_on channel=0 note=61 velocity=127 time=0.01875\n",
      "note_off channel=0 note=62 velocity=127 time=0.0010416666666666667\n",
      "note_off channel=0 note=61 velocity=127 time=0.01875\n",
      "note_on channel=0 note=60 velocity=127 time=0.013541666666666667\n",
      "note_off channel=0 note=60 velocity=127 time=0.019791666666666666\n",
      "note_on channel=0 note=61 velocity=127 time=0.042708333333333334\n",
      "note_off channel=0 note=61 velocity=127 time=0.019791666666666666\n",
      "note_on channel=0 note=60 velocity=127 time=0.022916666666666665\n",
      "note_off channel=0 note=60 velocity=127 time=0.019791666666666666\n",
      "note_on channel=0 note=61 velocity=127 time=0.03333333333333333\n",
      "note_on channel=0 note=62 velocity=127 time=0\n",
      "note_off channel=0 note=61 velocity=127 time=0.019791666666666666\n",
      "note_off channel=0 note=62 velocity=127 time=0\n",
      "note_on channel=0 note=60 velocity=127 time=0.03229166666666666\n",
      "note_off channel=0 note=60 velocity=127 time=0.019791666666666666\n",
      "note_on channel=0 note=61 velocity=127 time=0.025\n",
      "note_off channel=0 note=61 velocity=127 time=0.019791666666666666\n",
      "note_on channel=0 note=60 velocity=127 time=0.041666666666666664\n",
      "note_off channel=0 note=60 velocity=127 time=0.019791666666666666\n",
      "note_on channel=0 note=61 velocity=127 time=0.015625\n",
      "note_on channel=0 note=62 velocity=127 time=0.019791666666666666\n",
      "note_off channel=0 note=61 velocity=127 time=0\n",
      "note_off channel=0 note=62 velocity=127 time=0.019791666666666666\n",
      "note_on channel=0 note=60 velocity=127 time=0.03125\n",
      "note_off channel=0 note=60 velocity=127 time=0.019791666666666666\n",
      "note_on channel=0 note=61 velocity=127 time=0.00625\n",
      "note_off channel=0 note=61 velocity=127 time=0.019791666666666666\n",
      "note_on channel=0 note=60 velocity=127 time=0.06041666666666667\n",
      "note_on channel=0 note=61 velocity=127 time=0.016666666666666666\n",
      "note_off channel=0 note=60 velocity=127 time=0.003125\n",
      "note_off channel=0 note=61 velocity=127 time=0.016666666666666666\n",
      "note_on channel=0 note=62 velocity=127 time=0.01875\n",
      "note_off channel=0 note=62 velocity=127 time=0.019791666666666666\n",
      "note_on channel=0 note=60 velocity=127 time=0.030208333333333334\n",
      "note_on channel=0 note=61 velocity=127 time=0.007291666666666667\n",
      "note_off channel=0 note=60 velocity=127 time=0.0125\n",
      "note_off channel=0 note=61 velocity=127 time=0.007291666666666667\n",
      "note_on channel=0 note=61 velocity=127 time=0.07708333333333334\n",
      "note_on channel=0 note=60 velocity=127 time=0.0020833333333333333\n",
      "note_off channel=0 note=61 velocity=127 time=0.017708333333333333\n",
      "note_off channel=0 note=60 velocity=127 time=0.0020833333333333333\n",
      "note_on channel=0 note=62 velocity=127 time=0.036458333333333336\n",
      "note_off channel=0 note=62 velocity=127 time=0.019791666666666666\n",
      "note_on channel=0 note=61 velocity=127 time=0.01875\n",
      "note_on channel=0 note=60 velocity=127 time=0.011458333333333333\n",
      "note_off channel=0 note=61 velocity=127 time=0.008333333333333333\n",
      "note_off channel=0 note=60 velocity=127 time=0.011458333333333333\n",
      "note_on channel=0 note=61 velocity=127 time=0.065625\n",
      "note_off channel=0 note=61 velocity=127 time=0.019791666666666666\n",
      "note_on channel=0 note=60 velocity=127 time=0.0010416666666666667\n",
      "note_off channel=0 note=60 velocity=127 time=0.019791666666666666\n",
      "note_on channel=0 note=62 velocity=127 time=0.0375\n",
      "note_on channel=0 note=61 velocity=127 time=0.01875\n",
      "note_off channel=0 note=62 velocity=127 time=0.0010416666666666667\n",
      "note_off channel=0 note=61 velocity=127 time=0.01875\n",
      "note_on channel=0 note=60 velocity=127 time=0.009375\n",
      "note_off channel=0 note=60 velocity=127 time=0.019791666666666666\n",
      "note_on channel=0 note=61 velocity=127 time=0.046875\n",
      "note_off channel=0 note=61 velocity=127 time=0.019791666666666666\n",
      "note_on channel=0 note=60 velocity=127 time=0.01875\n",
      "note_off channel=0 note=60 velocity=127 time=0.019791666666666666\n",
      "note_on channel=0 note=61 velocity=127 time=0.0375\n",
      "note_on channel=0 note=62 velocity=127 time=0\n",
      "note_off channel=0 note=61 velocity=127 time=0.019791666666666666\n",
      "note_off channel=0 note=62 velocity=127 time=0\n",
      "note_on channel=0 note=60 velocity=127 time=0.028125\n",
      "note_off channel=0 note=60 velocity=127 time=0.019791666666666666\n",
      "note_on channel=0 note=61 velocity=127 time=0.028125\n",
      "note_off channel=0 note=61 velocity=127 time=0.019791666666666666\n",
      "note_on channel=0 note=60 velocity=127 time=0.0375\n",
      "note_off channel=0 note=60 velocity=127 time=0.019791666666666666\n",
      "note_on channel=0 note=61 velocity=127 time=0.01875\n",
      "note_on channel=0 note=62 velocity=127 time=0.019791666666666666\n",
      "note_off channel=0 note=61 velocity=127 time=0\n",
      "note_off channel=0 note=62 velocity=127 time=0.019791666666666666\n",
      "note_on channel=0 note=60 velocity=127 time=0.027083333333333334\n",
      "note_off channel=0 note=60 velocity=127 time=0.019791666666666666\n",
      "note_on channel=0 note=61 velocity=127 time=0.010416666666666666\n",
      "note_off channel=0 note=61 velocity=127 time=0.019791666666666666\n",
      "note_on channel=0 note=60 velocity=127 time=0.05625\n",
      "\u001b[91m [DEBUG] > \u001b[0m\n",
      " |>  to_array: msg.time > max_t; t, n\n",
      " |>  2.0291666666666672\n",
      " |>  100\n",
      "note_on channel=0 note=61 velocity=127 time=0.03958333333333333\n",
      "note_off channel=0 note=61 velocity=127 time=0.019791666666666666\n",
      "note_on channel=0 note=62 velocity=127 time=0.05625\n",
      "note_on channel=0 note=61 velocity=127 time=0.011458333333333333\n",
      "note_on channel=0 note=60 velocity=127 time=0.004166666666666667\n",
      "note_off channel=0 note=62 velocity=127 time=0.004166666666666667\n",
      "note_off channel=0 note=61 velocity=127 time=0.011458333333333333\n",
      "note_off channel=0 note=60 velocity=127 time=0.004166666666666667\n",
      "note_on channel=0 note=61 velocity=127 time=0.06354166666666666\n",
      "note_off channel=0 note=61 velocity=127 time=0.019791666666666666\n",
      "note_on channel=0 note=61 velocity=127 time=0.06770833333333333\n",
      "note_on channel=0 note=62 velocity=127 time=0.0020833333333333333\n",
      "note_off channel=0 note=61 velocity=127 time=0.017708333333333333\n",
      "note_off channel=0 note=62 velocity=127 time=0.0020833333333333333\n",
      "note_on channel=0 note=60 velocity=127 time=0.0010416666666666667\n",
      "note_off channel=0 note=60 velocity=127 time=0.019791666666666666\n",
      "note_on channel=0 note=61 velocity=127 time=0.04479166666666667\n",
      "note_off channel=0 note=61 velocity=127 time=0.019791666666666666\n",
      "note_on channel=0 note=61 velocity=127 time=0.06770833333333333\n",
      "note_on channel=0 note=62 velocity=127 time=0.016666666666666666\n",
      "note_off channel=0 note=61 velocity=127 time=0.004166666666666667\n",
      "note_off channel=0 note=62 velocity=127 time=0.016666666666666666\n",
      "note_on channel=0 note=60 velocity=127 time=0.00625\n",
      "note_off channel=0 note=60 velocity=127 time=0.019791666666666666\n",
      "note_on channel=0 note=61 velocity=127 time=0.025\n",
      "note_off channel=0 note=61 velocity=127 time=0.019791666666666666\n",
      "note_on channel=0 note=61 velocity=127 time=0.06770833333333333\n",
      "note_off channel=0 note=61 velocity=127 time=0.019791666666666666\n",
      "note_on channel=0 note=62 velocity=127 time=0.010416666666666666\n",
      "note_off channel=0 note=62 velocity=127 time=0.019791666666666666\n",
      "note_on channel=0 note=60 velocity=127 time=0.011458333333333333\n",
      "note_off channel=0 note=60 velocity=127 time=0.019791666666666666\n",
      "note_on channel=0 note=61 velocity=127 time=0.00625\n",
      "note_off channel=0 note=61 velocity=127 time=0.019791666666666666\n",
      "note_on channel=0 note=61 velocity=127 time=0.06770833333333333\n",
      "note_off channel=0 note=61 velocity=127 time=0.019791666666666666\n",
      "note_on channel=0 note=62 velocity=127 time=0.02395833333333333\n",
      "note_off channel=0 note=62 velocity=127 time=0.019791666666666666\n",
      "note_on channel=0 note=60 velocity=127 time=0.016666666666666666\n",
      "note_on channel=0 note=61 velocity=127 time=0.007291666666666667\n",
      "note_off channel=0 note=60 velocity=127 time=0.013541666666666667\n",
      "note_off channel=0 note=61 velocity=127 time=0.007291666666666667\n",
      "note_on channel=0 note=61 velocity=127 time=0.06770833333333333\n",
      "note_off channel=0 note=61 velocity=127 time=0.019791666666666666\n",
      "note_on channel=0 note=62 velocity=127 time=0.03854166666666667\n",
      "note_off channel=0 note=62 velocity=127 time=0.019791666666666666\n",
      "note_on channel=0 note=61 velocity=127 time=0.009375\n",
      "note_on channel=0 note=60 velocity=127 time=0.0125\n",
      "note_off channel=0 note=61 velocity=127 time=0.007291666666666667\n",
      "note_off channel=0 note=60 velocity=127 time=0.0125\n",
      "note_on channel=0 note=61 velocity=127 time=0.05520833333333333\n",
      "note_off channel=0 note=61 velocity=127 time=0.019791666666666666\n",
      "note_on channel=0 note=62 velocity=127 time=0.052083333333333336\n",
      "note_on channel=0 note=61 velocity=127 time=0.015625\n",
      "note_off channel=0 note=62 velocity=127 time=0.004166666666666667\n",
      "note_off channel=0 note=61 velocity=127 time=0.015625\n",
      "note_on channel=0 note=60 velocity=127 time=0.011458333333333333\n",
      "note_off channel=0 note=60 velocity=127 time=0.019791666666666666\n",
      "note_on channel=0 note=61 velocity=127 time=0.036458333333333336\n",
      "note_off channel=0 note=61 velocity=127 time=0.019791666666666666\n",
      "note_on channel=0 note=62 velocity=127 time=0.06666666666666667\n",
      "note_on channel=0 note=61 velocity=127 time=0.0010416666666666667\n",
      "note_off channel=0 note=62 velocity=127 time=0.01875\n",
      "note_off channel=0 note=61 velocity=127 time=0.0010416666666666667\n",
      "note_on channel=0 note=60 velocity=127 time=0.03125\n",
      "note_off channel=0 note=60 velocity=127 time=0.019791666666666666\n",
      "note_on channel=0 note=61 velocity=127 time=0.016666666666666666\n",
      "note_off channel=0 note=61 velocity=127 time=0.019791666666666666\n",
      "note_on channel=0 note=61 velocity=127 time=0.06770833333333333\n",
      "note_on channel=0 note=62 velocity=127 time=0.0125\n",
      "note_off channel=0 note=61 velocity=127 time=0.007291666666666667\n",
      "note_off channel=0 note=62 velocity=127 time=0.0125\n",
      "note_on channel=0 note=60 velocity=127 time=0.0375\n",
      "note_on channel=0 note=61 velocity=127 time=0.017708333333333333\n",
      "note_off channel=0 note=60 velocity=127 time=0.0020833333333333333\n",
      "note_off channel=0 note=61 velocity=127 time=0.017708333333333333\n",
      "note_on channel=0 note=61 velocity=127 time=0.06770833333333333\n",
      "note_off channel=0 note=61 velocity=127 time=0.019791666666666666\n",
      "note_on channel=0 note=62 velocity=127 time=0.007291666666666667\n",
      "note_off channel=0 note=62 velocity=127 time=0.019791666666666666\n",
      "note_on channel=0 note=61 velocity=127 time=0.040625\n",
      "note_on channel=0 note=60 velocity=127 time=0.0020833333333333333\n",
      "note_off channel=0 note=61 velocity=127 time=0.017708333333333333\n",
      "note_off channel=0 note=60 velocity=127 time=0.0020833333333333333\n",
      "note_on channel=0 note=61 velocity=127 time=0.065625\n",
      "note_off channel=0 note=61 velocity=127 time=0.019791666666666666\n",
      "note_on channel=0 note=62 velocity=127 time=0.020833333333333332\n",
      "\u001b[91m [DEBUG] > \u001b[0m\n",
      " |>  to_array: msg.time > max_t; t, n\n",
      " |>  2.0072916666666667\n",
      " |>  100\n",
      "note_on channel=0 note=60 velocity=127 time=0.029166666666666667\n",
      "note_off channel=0 note=60 velocity=127 time=0.019791666666666666\n",
      "note_on channel=0 note=61 velocity=127 time=0.042708333333333334\n",
      "note_off channel=0 note=61 velocity=127 time=0.019791666666666666\n",
      "note_on channel=0 note=62 velocity=127 time=0.034375\n",
      "note_off channel=0 note=62 velocity=127 time=0.019791666666666666\n",
      "note_on channel=0 note=61 velocity=127 time=0.057291666666666664\n",
      "note_off channel=0 note=61 velocity=127 time=0.019791666666666666\n",
      "note_on channel=0 note=60 velocity=127 time=0.007291666666666667\n",
      "note_off channel=0 note=60 velocity=127 time=0.019791666666666666\n",
      "note_on channel=0 note=62 velocity=127 time=0.06770833333333333\n",
      "note_on channel=0 note=61 velocity=127 time=0.015625\n",
      "note_off channel=0 note=62 velocity=127 time=0.004166666666666667\n",
      "note_off channel=0 note=61 velocity=127 time=0.015625\n",
      "note_on channel=0 note=60 velocity=127 time=0.09791666666666667\n",
      "note_on channel=0 note=61 velocity=127 time=0.013541666666666667\n",
      "note_off channel=0 note=60 velocity=127 time=0.00625\n",
      "note_off channel=0 note=61 velocity=127 time=0.013541666666666667\n",
      "note_on channel=0 note=62 velocity=127 time=0.025\n",
      "note_off channel=0 note=62 velocity=127 time=0.019791666666666666\n",
      "note_on channel=0 note=61 velocity=127 time=0.06666666666666667\n",
      "note_off channel=0 note=61 velocity=127 time=0.019791666666666666\n",
      "note_on channel=0 note=60 velocity=127 time=0.05625\n",
      "note_off channel=0 note=60 velocity=127 time=0.019791666666666666\n",
      "note_on channel=0 note=62 velocity=127 time=0.009375\n",
      "note_off channel=0 note=62 velocity=127 time=0.019791666666666666\n",
      "note_on channel=0 note=61 velocity=127 time=0.005208333333333333\n",
      "note_off channel=0 note=61 velocity=127 time=0.019791666666666666\n",
      "note_on channel=0 note=61 velocity=127 time=0.11145833333333333\n",
      "note_off channel=0 note=61 velocity=127 time=0.019791666666666666\n",
      "note_on channel=0 note=60 velocity=127 time=0.015625\n",
      "note_on channel=0 note=62 velocity=127 time=0.0010416666666666667\n",
      "note_off channel=0 note=60 velocity=127 time=0.01875\n",
      "note_off channel=0 note=62 velocity=127 time=0.0010416666666666667\n",
      "note_on channel=0 note=61 velocity=127 time=0.075\n",
      "note_off channel=0 note=61 velocity=127 time=0.019791666666666666\n",
      "note_on channel=0 note=62 velocity=127 time=0.078125\n",
      "note_off channel=0 note=62 velocity=127 time=0.019791666666666666\n",
      "note_on channel=0 note=60 velocity=127 time=0.008333333333333333\n",
      "note_on channel=0 note=61 velocity=127 time=0.005208333333333333\n",
      "note_off channel=0 note=60 velocity=127 time=0.014583333333333334\n",
      "note_off channel=0 note=61 velocity=127 time=0.005208333333333333\n",
      "note_on channel=0 note=61 velocity=127 time=0.11145833333333333\n",
      "note_off channel=0 note=61 velocity=127 time=0.019791666666666666\n",
      "note_on channel=0 note=62 velocity=127 time=0.007291666666666667\n",
      "note_off channel=0 note=62 velocity=127 time=0.019791666666666666\n",
      "note_on channel=0 note=60 velocity=127 time=0.0375\n",
      "note_off channel=0 note=60 velocity=127 time=0.019791666666666666\n",
      "note_on channel=0 note=61 velocity=127 time=0.027083333333333334\n",
      "note_off channel=0 note=61 velocity=127 time=0.019791666666666666\n",
      "note_on channel=0 note=62 velocity=127 time=0.06875\n",
      "note_off channel=0 note=62 velocity=127 time=0.019791666666666666\n",
      "note_on channel=0 note=61 velocity=127 time=0.022916666666666665\n",
      "note_off channel=0 note=61 velocity=127 time=0.019791666666666666\n",
      "note_on channel=0 note=60 velocity=127 time=0.02395833333333333\n",
      "note_off channel=0 note=60 velocity=127 time=0.019791666666666666\n",
      "note_on channel=0 note=61 velocity=127 time=0.06770833333333333\n",
      "note_on channel=0 note=62 velocity=127 time=0.01875\n",
      "note_off channel=0 note=61 velocity=127 time=0.0010416666666666667\n",
      "note_off channel=0 note=62 velocity=127 time=0.01875\n",
      "note_on channel=0 note=61 velocity=127 time=0.09270833333333334\n",
      "note_on channel=0 note=60 velocity=127 time=0.0020833333333333333\n",
      "note_off channel=0 note=61 velocity=127 time=0.017708333333333333\n",
      "note_off channel=0 note=60 velocity=127 time=0.0020833333333333333\n",
      "note_on channel=0 note=62 velocity=127 time=0.058333333333333334\n",
      "note_off channel=0 note=62 velocity=127 time=0.019791666666666666\n",
      "note_on channel=0 note=61 velocity=127 time=0.03125\n",
      "note_off channel=0 note=61 velocity=127 time=0.019791666666666666\n",
      "note_on channel=0 note=60 velocity=127 time=0.07291666666666667\n",
      "\u001b[91m [DEBUG] > \u001b[0m\n",
      " |>  to_array: msg.time > max_t; t, n\n",
      " |>  2.019791666666667\n",
      " |>  100\n",
      "note_on channel=0 note=62 velocity=127 time=0.05520833333333333\n",
      "note_off channel=0 note=62 velocity=127 time=0.019791666666666666\n",
      "note_on channel=0 note=61 velocity=127 time=0.08229166666666667\n",
      "note_off channel=0 note=61 velocity=127 time=0.019791666666666666\n",
      "note_on channel=0 note=60 velocity=127 time=0.013541666666666667\n",
      "note_off channel=0 note=60 velocity=127 time=0.019791666666666666\n",
      "note_on channel=0 note=62 velocity=127 time=0.11354166666666667\n",
      "note_off channel=0 note=62 velocity=127 time=0.019791666666666666\n",
      "note_on channel=0 note=61 velocity=127 time=0.009375\n",
      "note_off channel=0 note=61 velocity=127 time=0.019791666666666666\n",
      "note_on channel=0 note=60 velocity=127 time=0.06354166666666666\n",
      "note_off channel=0 note=60 velocity=127 time=0.019791666666666666\n",
      "note_on channel=0 note=61 velocity=127 time=0.09270833333333334\n",
      "note_off channel=0 note=61 velocity=127 time=0.019791666666666666\n",
      "note_on channel=0 note=62 velocity=127 time=0.022916666666666665\n",
      "note_off channel=0 note=62 velocity=127 time=0.019791666666666666\n",
      "note_on channel=0 note=60 velocity=127 time=0.07083333333333333\n",
      "note_off channel=0 note=60 velocity=127 time=0.019791666666666666\n",
      "note_on channel=0 note=61 velocity=127 time=0.041666666666666664\n",
      "note_off channel=0 note=61 velocity=127 time=0.019791666666666666\n",
      "note_on channel=0 note=62 velocity=127 time=0.096875\n",
      "note_off channel=0 note=62 velocity=127 time=0.019791666666666666\n",
      "note_on channel=0 note=60 velocity=127 time=0.04791666666666666\n",
      "note_on channel=0 note=61 velocity=127 time=0.011458333333333333\n",
      "note_off channel=0 note=60 velocity=127 time=0.008333333333333333\n",
      "note_off channel=0 note=61 velocity=127 time=0.011458333333333333\n",
      "note_on channel=0 note=62 velocity=127 time=0.16979166666666667\n",
      "note_on channel=0 note=61 velocity=127 time=0.00625\n",
      "note_off channel=0 note=62 velocity=127 time=0.013541666666666667\n",
      "note_off channel=0 note=61 velocity=127 time=0.00625\n",
      "note_on channel=0 note=60 velocity=127 time=0.01875\n",
      "note_off channel=0 note=60 velocity=127 time=0.019791666666666666\n",
      "note_on channel=0 note=61 velocity=127 time=0.1375\n",
      "note_off channel=0 note=61 velocity=127 time=0.019791666666666666\n",
      "note_on channel=0 note=62 velocity=127 time=0.04583333333333333\n",
      "note_off channel=0 note=62 velocity=127 time=0.019791666666666666\n",
      "note_on channel=0 note=60 velocity=127 time=0.003125\n",
      "note_off channel=0 note=60 velocity=127 time=0.019791666666666666\n",
      "note_on channel=0 note=61 velocity=127 time=0.0875\n",
      "note_off channel=0 note=61 velocity=127 time=0.019791666666666666\n",
      "note_on channel=0 note=62 velocity=127 time=0.11875\n",
      "note_on channel=0 note=60 velocity=127 time=0\n",
      "note_off channel=0 note=62 velocity=127 time=0.019791666666666666\n",
      "note_off channel=0 note=60 velocity=127 time=0\n",
      "note_on channel=0 note=61 velocity=127 time=0.036458333333333336\n",
      "note_off channel=0 note=61 velocity=127 time=0.019791666666666666\n",
      "note_on channel=0 note=60 velocity=127 time=0.16979166666666667\n",
      "note_on channel=0 note=61 velocity=127 time=0.00625\n",
      "note_off channel=0 note=60 velocity=127 time=0.013541666666666667\n",
      "note_on channel=0 note=62 velocity=127 time=0.003125\n",
      "note_off channel=0 note=61 velocity=127 time=0.004166666666666667\n",
      "note_off channel=0 note=62 velocity=127 time=0.015625\n",
      "note_on channel=0 note=61 velocity=127 time=0.16041666666666665\n",
      "\u001b[91m [DEBUG] > \u001b[0m\n",
      " |>  to_array: msg.time > max_t; t, n\n",
      " |>  2.114583333333333\n",
      " |>  100\n",
      "note_on channel=0 note=62 velocity=127 time=0.0010416666666666667\n",
      "note_off channel=0 note=62 velocity=127 time=0.019791666666666666\n",
      "note_on channel=0 note=61 velocity=127 time=0.0375\n",
      "note_off channel=0 note=61 velocity=127 time=0.019791666666666666\n",
      "note_on channel=0 note=60 velocity=127 time=0.021875\n",
      "note_off channel=0 note=60 velocity=127 time=0.019791666666666666\n",
      "note_on channel=0 note=61 velocity=127 time=0.051041666666666666\n",
      "note_off channel=0 note=61 velocity=127 time=0.019791666666666666\n",
      "note_on channel=0 note=62 velocity=127 time=0.00625\n",
      "note_on channel=0 note=60 velocity=127 time=0.013541666666666667\n",
      "note_off channel=0 note=62 velocity=127 time=0.00625\n",
      "note_off channel=0 note=60 velocity=127 time=0.013541666666666667\n",
      "note_on channel=0 note=61 velocity=127 time=0.053125\n",
      "note_off channel=0 note=61 velocity=127 time=0.019791666666666666\n",
      "note_on channel=0 note=60 velocity=127 time=0.01875\n",
      "note_off channel=0 note=60 velocity=127 time=0.019791666666666666\n",
      "note_on channel=0 note=62 velocity=127 time=0.052083333333333336\n",
      "note_on channel=0 note=61 velocity=127 time=0.0020833333333333333\n",
      "note_off channel=0 note=62 velocity=127 time=0.017708333333333333\n",
      "note_off channel=0 note=61 velocity=127 time=0.0020833333333333333\n",
      "note_on channel=0 note=60 velocity=127 time=0.016666666666666666\n",
      "note_off channel=0 note=60 velocity=127 time=0.019791666666666666\n",
      "note_on channel=0 note=61 velocity=127 time=0.05625\n",
      "note_off channel=0 note=61 velocity=127 time=0.019791666666666666\n",
      "note_on channel=0 note=60 velocity=127 time=0.014583333333333334\n",
      "note_off channel=0 note=60 velocity=127 time=0.019791666666666666\n",
      "note_on channel=0 note=62 velocity=127 time=0.027083333333333334\n",
      "note_off channel=0 note=62 velocity=127 time=0.019791666666666666\n",
      "note_on channel=0 note=61 velocity=127 time=0.011458333333333333\n",
      "note_off channel=0 note=61 velocity=127 time=0.019791666666666666\n",
      "note_on channel=0 note=60 velocity=127 time=0.0125\n",
      "note_off channel=0 note=60 velocity=127 time=0.019791666666666666\n",
      "note_on channel=0 note=61 velocity=127 time=0.06041666666666667\n",
      "note_off channel=0 note=61 velocity=127 time=0.019791666666666666\n",
      "note_on channel=0 note=60 velocity=127 time=0.011458333333333333\n",
      "note_off channel=0 note=60 velocity=127 time=0.019791666666666666\n",
      "note_on channel=0 note=62 velocity=127 time=0.0010416666666666667\n",
      "note_off channel=0 note=62 velocity=127 time=0.019791666666666666\n",
      "note_on channel=0 note=61 velocity=127 time=0.040625\n",
      "note_off channel=0 note=61 velocity=127 time=0.019791666666666666\n",
      "note_on channel=0 note=60 velocity=127 time=0.009375\n",
      "note_off channel=0 note=60 velocity=127 time=0.019791666666666666\n",
      "note_on channel=0 note=61 velocity=127 time=0.06458333333333333\n",
      "note_off channel=0 note=61 velocity=127 time=0.019791666666666666\n",
      "note_on channel=0 note=62 velocity=127 time=0.003125\n",
      "note_on channel=0 note=60 velocity=127 time=0.004166666666666667\n",
      "note_off channel=0 note=62 velocity=127 time=0.015625\n",
      "note_off channel=0 note=60 velocity=127 time=0.004166666666666667\n",
      "note_on channel=0 note=61 velocity=127 time=0.065625\n",
      "note_off channel=0 note=61 velocity=127 time=0.019791666666666666\n",
      "note_on channel=0 note=60 velocity=127 time=0.005208333333333333\n",
      "note_off channel=0 note=60 velocity=127 time=0.019791666666666666\n",
      "note_on channel=0 note=62 velocity=127 time=0.0625\n",
      "note_on channel=0 note=61 velocity=127 time=0.005208333333333333\n",
      "note_off channel=0 note=62 velocity=127 time=0.014583333333333334\n",
      "note_off channel=0 note=61 velocity=127 time=0.005208333333333333\n",
      "note_on channel=0 note=60 velocity=127 time=0.003125\n",
      "note_off channel=0 note=60 velocity=127 time=0.019791666666666666\n",
      "note_on channel=0 note=61 velocity=127 time=0.06979166666666667\n",
      "note_off channel=0 note=61 velocity=127 time=0.019791666666666666\n",
      "note_on channel=0 note=60 velocity=127 time=0.0020833333333333333\n",
      "note_off channel=0 note=60 velocity=127 time=0.019791666666666666\n",
      "note_on channel=0 note=62 velocity=127 time=0.036458333333333336\n",
      "note_off channel=0 note=62 velocity=127 time=0.019791666666666666\n",
      "note_on channel=0 note=61 velocity=127 time=0.014583333333333334\n",
      "note_on channel=0 note=60 velocity=127 time=0.019791666666666666\n",
      "note_off channel=0 note=61 velocity=127 time=0\n",
      "note_off channel=0 note=60 velocity=127 time=0.019791666666666666\n",
      "note_on channel=0 note=61 velocity=127 time=0.07395833333333333\n",
      "note_on channel=0 note=60 velocity=127 time=0.017708333333333333\n",
      "note_off channel=0 note=61 velocity=127 time=0.0020833333333333333\n",
      "note_off channel=0 note=60 velocity=127 time=0.017708333333333333\n",
      "note_on channel=0 note=62 velocity=127 time=0.011458333333333333\n",
      "note_off channel=0 note=62 velocity=127 time=0.019791666666666666\n",
      "note_on channel=0 note=61 velocity=127 time=0.04375\n",
      "note_on channel=0 note=60 velocity=127 time=0.015625\n",
      "note_off channel=0 note=61 velocity=127 time=0.004166666666666667\n",
      "note_off channel=0 note=60 velocity=127 time=0.015625\n",
      "note_on channel=0 note=61 velocity=127 time=0.07708333333333334\n",
      "note_on channel=0 note=60 velocity=127 time=0.014583333333333334\n",
      "note_off channel=0 note=61 velocity=127 time=0.00625\n",
      "note_on channel=0 note=62 velocity=127 time=0\n",
      "note_off channel=0 note=60 velocity=127 time=0.013541666666666667\n",
      "note_off channel=0 note=62 velocity=127 time=0.00625\n",
      "note_on channel=0 note=61 velocity=127 time=0.07291666666666667\n",
      "note_on channel=0 note=60 velocity=127 time=0.0125\n",
      "note_off channel=0 note=61 velocity=127 time=0.007291666666666667\n",
      "note_off channel=0 note=60 velocity=127 time=0.0125\n",
      "note_on channel=0 note=62 velocity=127 time=0.071875\n",
      "note_on channel=0 note=61 velocity=127 time=0.008333333333333333\n",
      "note_on channel=0 note=60 velocity=127 time=0.010416666666666666\n",
      "note_off channel=0 note=62 velocity=127 time=0.0010416666666666667\n",
      "note_off channel=0 note=61 velocity=127 time=0.008333333333333333\n",
      "\u001b[91m [DEBUG] > \u001b[0m\n",
      " |>  to_array: msg.time > max_t; t, n\n",
      " |>  1.9937500000000001\n",
      " |>  100\n"
     ]
    },
    {
     "name": "stdout",
     "output_type": "stream",
     "text": [
      "note_on channel=0 note=60 velocity=127 time=0.02395833333333333\n",
      "note_on channel=0 note=62 velocity=127 time=0.004166666666666667\n",
      "note_off channel=0 note=60 velocity=127 time=0.015625\n",
      "note_off channel=0 note=62 velocity=127 time=0.004166666666666667\n",
      "note_on channel=0 note=61 velocity=127 time=0.022916666666666665\n",
      "note_off channel=0 note=61 velocity=127 time=0.019791666666666666\n",
      "note_on channel=0 note=60 velocity=127 time=0.0010416666666666667\n",
      "note_off channel=0 note=60 velocity=127 time=0.019791666666666666\n",
      "note_on channel=0 note=61 velocity=127 time=0.03125\n",
      "note_on channel=0 note=60 velocity=127 time=0.016666666666666666\n",
      "note_off channel=0 note=61 velocity=127 time=0.003125\n",
      "note_on channel=0 note=62 velocity=127 time=0.00625\n",
      "note_off channel=0 note=60 velocity=127 time=0.010416666666666666\n",
      "note_off channel=0 note=62 velocity=127 time=0.009375\n",
      "note_on channel=0 note=61 velocity=127 time=0.026041666666666668\n",
      "note_on channel=0 note=60 velocity=127 time=0.013541666666666667\n",
      "note_off channel=0 note=61 velocity=127 time=0.007291666666666667\n",
      "note_off channel=0 note=60 velocity=127 time=0.013541666666666667\n",
      "note_on channel=0 note=61 velocity=127 time=0.03854166666666667\n",
      "note_on channel=0 note=60 velocity=127 time=0.009375\n",
      "note_off channel=0 note=61 velocity=127 time=0.010416666666666666\n",
      "note_on channel=0 note=62 velocity=127 time=0.003125\n",
      "note_off channel=0 note=60 velocity=127 time=0.00625\n",
      "note_off channel=0 note=62 velocity=127 time=0.014583333333333334\n",
      "note_on channel=0 note=61 velocity=127 time=0.028125\n",
      "note_on channel=0 note=60 velocity=127 time=0.005208333333333333\n",
      "note_off channel=0 note=61 velocity=127 time=0.014583333333333334\n",
      "note_off channel=0 note=60 velocity=127 time=0.005208333333333333\n",
      "note_on channel=0 note=61 velocity=127 time=0.04583333333333333\n",
      "note_on channel=0 note=60 velocity=127 time=0.0020833333333333333\n",
      "note_off channel=0 note=61 velocity=127 time=0.017708333333333333\n",
      "note_on channel=0 note=62 velocity=127 time=0.0010416666666666667\n",
      "note_off channel=0 note=60 velocity=127 time=0.0010416666666666667\n",
      "note_off channel=0 note=62 velocity=127 time=0.01875\n",
      "note_on channel=0 note=60 velocity=127 time=0.029166666666666667\n",
      "note_on channel=0 note=61 velocity=127 time=0.0020833333333333333\n",
      "note_off channel=0 note=60 velocity=127 time=0.017708333333333333\n",
      "note_off channel=0 note=61 velocity=127 time=0.0020833333333333333\n",
      "note_on channel=0 note=60 velocity=127 time=0.04583333333333333\n",
      "note_on channel=0 note=61 velocity=127 time=0.005208333333333333\n",
      "note_off channel=0 note=60 velocity=127 time=0.014583333333333334\n",
      "note_on channel=0 note=62 velocity=127 time=0.004166666666666667\n",
      "note_off channel=0 note=61 velocity=127 time=0.0020833333333333333\n",
      "note_off channel=0 note=62 velocity=127 time=0.01875\n",
      "note_on channel=0 note=60 velocity=127 time=0.02395833333333333\n",
      "note_on channel=0 note=61 velocity=127 time=0.009375\n",
      "note_off channel=0 note=60 velocity=127 time=0.010416666666666666\n",
      "note_off channel=0 note=61 velocity=127 time=0.009375\n",
      "note_on channel=0 note=60 velocity=127 time=0.03854166666666667\n",
      "note_on channel=0 note=61 velocity=127 time=0.013541666666666667\n",
      "note_off channel=0 note=60 velocity=127 time=0.007291666666666667\n",
      "note_on channel=0 note=62 velocity=127 time=0.009375\n",
      "note_off channel=0 note=61 velocity=127 time=0.004166666666666667\n",
      "note_off channel=0 note=62 velocity=127 time=0.015625\n",
      "note_on channel=0 note=60 velocity=127 time=0.01875\n",
      "note_on channel=0 note=61 velocity=127 time=0.016666666666666666\n",
      "note_off channel=0 note=60 velocity=127 time=0.003125\n",
      "note_off channel=0 note=61 velocity=127 time=0.016666666666666666\n",
      "note_on channel=0 note=60 velocity=127 time=0.03125\n",
      "note_off channel=0 note=60 velocity=127 time=0.019791666666666666\n",
      "note_on channel=0 note=61 velocity=127 time=0.0010416666666666667\n",
      "note_on channel=0 note=62 velocity=127 time=0.013541666666666667\n",
      "note_off channel=0 note=61 velocity=127 time=0.00625\n",
      "note_off channel=0 note=62 velocity=127 time=0.013541666666666667\n",
      "note_on channel=0 note=60 velocity=127 time=0.013541666666666667\n",
      "note_off channel=0 note=60 velocity=127 time=0.019791666666666666\n",
      "note_on channel=0 note=61 velocity=127 time=0.004166666666666667\n",
      "note_off channel=0 note=61 velocity=127 time=0.019791666666666666\n",
      "note_on channel=0 note=60 velocity=127 time=0.022916666666666665\n",
      "note_off channel=0 note=60 velocity=127 time=0.019791666666666666\n",
      "note_on channel=0 note=61 velocity=127 time=0.008333333333333333\n",
      "note_on channel=0 note=62 velocity=127 time=0.010416666666666666\n",
      "note_off channel=0 note=61 velocity=127 time=0.009375\n",
      "note_off channel=0 note=62 velocity=127 time=0.010416666666666666\n",
      "note_on channel=0 note=60 velocity=127 time=0.008333333333333333\n",
      "note_off channel=0 note=60 velocity=127 time=0.019791666666666666\n",
      "note_on channel=0 note=61 velocity=127 time=0.011458333333333333\n",
      "note_off channel=0 note=61 velocity=127 time=0.019791666666666666\n",
      "note_on channel=0 note=60 velocity=127 time=0.015625\n",
      "note_off channel=0 note=60 velocity=127 time=0.019791666666666666\n",
      "note_on channel=0 note=61 velocity=127 time=0.015625\n",
      "note_on channel=0 note=62 velocity=127 time=0.008333333333333333\n",
      "note_off channel=0 note=61 velocity=127 time=0.011458333333333333\n",
      "note_off channel=0 note=62 velocity=127 time=0.008333333333333333\n",
      "note_on channel=0 note=60 velocity=127 time=0.004166666666666667\n",
      "note_off channel=0 note=60 velocity=127 time=0.019791666666666666\n",
      "note_on channel=0 note=61 velocity=127 time=0.019791666666666666\n",
      "note_off channel=0 note=61 velocity=127 time=0.019791666666666666\n",
      "note_on channel=0 note=60 velocity=127 time=0.008333333333333333\n",
      "note_off channel=0 note=60 velocity=127 time=0.019791666666666666\n",
      "note_on channel=0 note=61 velocity=127 time=0.022916666666666665\n",
      "note_on channel=0 note=62 velocity=127 time=0.00625\n",
      "note_off channel=0 note=61 velocity=127 time=0.014583333333333334\n",
      "note_on channel=0 note=60 velocity=127 time=0.004166666666666667\n",
      "note_off channel=0 note=62 velocity=127 time=0.0010416666666666667\n",
      "note_off channel=0 note=60 velocity=127 time=0.01875\n",
      "note_on channel=0 note=61 velocity=127 time=0.027083333333333334\n",
      "note_off channel=0 note=61 velocity=127 time=0.019791666666666666\n",
      "note_on channel=0 note=60 velocity=127 time=0.0010416666666666667\n",
      "note_off channel=0 note=60 velocity=127 time=0.019791666666666666\n",
      "note_on channel=0 note=61 velocity=127 time=0.030208333333333334\n",
      "note_on channel=0 note=62 velocity=127 time=0.003125\n",
      "note_on channel=0 note=60 velocity=127 time=0.013541666666666667\n",
      "note_off channel=0 note=61 velocity=127 time=0.003125\n",
      "note_off channel=0 note=62 velocity=127 time=0.003125\n",
      "note_off channel=0 note=60 velocity=127 time=0.013541666666666667\n",
      "note_on channel=0 note=61 velocity=127 time=0.034375\n",
      "note_on channel=0 note=60 velocity=127 time=0.013541666666666667\n",
      "note_off channel=0 note=61 velocity=127 time=0.00625\n",
      "note_off channel=0 note=60 velocity=127 time=0.013541666666666667\n",
      "note_on channel=0 note=61 velocity=127 time=0.03854166666666667\n",
      "note_on channel=0 note=62 velocity=127 time=0.0010416666666666667\n",
      "note_on channel=0 note=60 velocity=127 time=0.009375\n",
      "note_off channel=0 note=61 velocity=127 time=0.010416666666666666\n",
      "note_off channel=0 note=62 velocity=127 time=0.0010416666666666667\n",
      "note_off channel=0 note=60 velocity=127 time=0.009375\n",
      "note_on channel=0 note=61 velocity=127 time=0.041666666666666664\n",
      "note_on channel=0 note=60 velocity=127 time=0.00625\n",
      "note_off channel=0 note=61 velocity=127 time=0.014583333333333334\n",
      "note_off channel=0 note=60 velocity=127 time=0.00625\n",
      "note_on channel=0 note=62 velocity=127 time=0.04375\n",
      "note_on channel=0 note=61 velocity=127 time=0.0020833333333333333\n",
      "note_on channel=0 note=60 velocity=127 time=0.0020833333333333333\n",
      "note_off channel=0 note=62 velocity=127 time=0.015625\n",
      "note_off channel=0 note=61 velocity=127 time=0.0020833333333333333\n",
      "note_off channel=0 note=60 velocity=127 time=0.0020833333333333333\n",
      "note_on channel=0 note=60 velocity=127 time=0.04791666666666666\n",
      "note_on channel=0 note=61 velocity=127 time=0.0020833333333333333\n",
      "note_off channel=0 note=60 velocity=127 time=0.01875\n",
      "note_off channel=0 note=61 velocity=127 time=0.0020833333333333333\n",
      "note_on channel=0 note=60 velocity=127 time=0.04583333333333333\n",
      "note_on channel=0 note=62 velocity=127 time=0.0010416666666666667\n",
      "note_on channel=0 note=61 velocity=127 time=0.004166666666666667\n",
      "note_off channel=0 note=60 velocity=127 time=0.014583333333333334\n",
      "note_off channel=0 note=62 velocity=127 time=0.0010416666666666667\n",
      "note_off channel=0 note=61 velocity=127 time=0.004166666666666667\n",
      "note_on channel=0 note=60 velocity=127 time=0.042708333333333334\n",
      "note_on channel=0 note=61 velocity=127 time=0.009375\n",
      "note_off channel=0 note=60 velocity=127 time=0.010416666666666666\n",
      "note_off channel=0 note=61 velocity=127 time=0.009375\n",
      "note_on channel=0 note=60 velocity=127 time=0.03854166666666667\n",
      "\u001b[91m [DEBUG] > \u001b[0m\n",
      " |>  to_array: msg.time > max_t; t, n\n",
      " |>  1.9916666666666674\n",
      " |>  100\n",
      "note_on channel=0 note=62 velocity=127 time=0.00625\n",
      "note_off channel=0 note=62 velocity=127 time=0.019791666666666666\n",
      "note_on channel=0 note=60 velocity=127 time=0.05416666666666667\n",
      "note_off channel=0 note=60 velocity=127 time=0.019791666666666666\n",
      "note_on channel=0 note=62 velocity=127 time=0.005208333333333333\n",
      "note_off channel=0 note=62 velocity=127 time=0.019791666666666666\n",
      "note_on channel=0 note=62 velocity=127 time=0.07916666666666666\n",
      "note_on channel=0 note=60 velocity=127 time=0.007291666666666667\n",
      "note_off channel=0 note=62 velocity=127 time=0.013541666666666667\n",
      "note_off channel=0 note=60 velocity=127 time=0.007291666666666667\n",
      "note_on channel=0 note=62 velocity=127 time=0.07291666666666667\n",
      "note_on channel=0 note=61 velocity=127 time=0.0125\n",
      "note_off channel=0 note=62 velocity=127 time=0.008333333333333333\n",
      "note_off channel=0 note=61 velocity=127 time=0.0125\n",
      "note_on channel=0 note=60 velocity=127 time=0.00625\n",
      "note_off channel=0 note=60 velocity=127 time=0.019791666666666666\n",
      "note_on channel=0 note=62 velocity=127 time=0.040625\n",
      "note_off channel=0 note=62 velocity=127 time=0.019791666666666666\n",
      "note_on channel=0 note=60 velocity=127 time=0.051041666666666666\n",
      "note_off channel=0 note=60 velocity=127 time=0.019791666666666666\n",
      "note_on channel=0 note=62 velocity=127 time=0.008333333333333333\n",
      "note_off channel=0 note=62 velocity=127 time=0.019791666666666666\n",
      "note_on channel=0 note=62 velocity=127 time=0.07916666666666666\n",
      "note_on channel=0 note=60 velocity=127 time=0.004166666666666667\n",
      "note_off channel=0 note=62 velocity=127 time=0.016666666666666666\n",
      "note_off channel=0 note=60 velocity=127 time=0.004166666666666667\n",
      "note_on channel=0 note=61 velocity=127 time=0.007291666666666667\n",
      "note_off channel=0 note=61 velocity=127 time=0.019791666666666666\n",
      "note_on channel=0 note=62 velocity=127 time=0.04791666666666666\n",
      "note_off channel=0 note=62 velocity=127 time=0.019791666666666666\n",
      "note_on channel=0 note=60 velocity=127 time=0.015625\n",
      "note_off channel=0 note=60 velocity=127 time=0.019791666666666666\n",
      "note_on channel=0 note=62 velocity=127 time=0.04375\n",
      "note_off channel=0 note=62 velocity=127 time=0.019791666666666666\n",
      "note_on channel=0 note=60 velocity=127 time=0.04791666666666666\n",
      "note_off channel=0 note=60 velocity=127 time=0.019791666666666666\n",
      "note_on channel=0 note=62 velocity=127 time=0.011458333333333333\n",
      "note_off channel=0 note=62 velocity=127 time=0.019791666666666666\n",
      "note_on channel=0 note=61 velocity=127 time=0.030208333333333334\n",
      "note_off channel=0 note=61 velocity=127 time=0.019791666666666666\n",
      "note_on channel=0 note=62 velocity=127 time=0.029166666666666667\n",
      "note_on channel=0 note=60 velocity=127 time=0.0010416666666666667\n",
      "note_off channel=0 note=62 velocity=127 time=0.019791666666666666\n",
      "note_off channel=0 note=60 velocity=127 time=0.0010416666666666667\n",
      "note_on channel=0 note=62 velocity=127 time=0.078125\n",
      "note_off channel=0 note=62 velocity=127 time=0.019791666666666666\n",
      "note_on channel=0 note=60 velocity=127 time=0.0125\n",
      "note_off channel=0 note=60 velocity=127 time=0.019791666666666666\n",
      "note_on channel=0 note=62 velocity=127 time=0.046875\n",
      "note_off channel=0 note=62 velocity=127 time=0.019791666666666666\n",
      "note_on channel=0 note=60 velocity=127 time=0.04479166666666667\n",
      "note_on channel=0 note=61 velocity=127 time=0.004166666666666667\n",
      "note_off channel=0 note=60 velocity=127 time=0.015625\n",
      "note_off channel=0 note=61 velocity=127 time=0.004166666666666667\n",
      "note_on channel=0 note=62 velocity=127 time=0.010416666666666666\n",
      "note_off channel=0 note=62 velocity=127 time=0.019791666666666666\n",
      "note_on channel=0 note=60 velocity=127 time=0.07708333333333334\n",
      "note_on channel=0 note=62 velocity=127 time=0.0020833333333333333\n",
      "note_off channel=0 note=60 velocity=127 time=0.017708333333333333\n",
      "note_off channel=0 note=62 velocity=127 time=0.0020833333333333333\n",
      "note_on channel=0 note=62 velocity=127 time=0.07916666666666666\n",
      "note_off channel=0 note=62 velocity=127 time=0.019791666666666666\n",
      "note_on channel=0 note=60 velocity=127 time=0.009375\n",
      "note_off channel=0 note=60 velocity=127 time=0.019791666666666666\n",
      "note_on channel=0 note=61 velocity=127 time=0.03854166666666667\n",
      "note_on channel=0 note=62 velocity=127 time=0.011458333333333333\n",
      "note_off channel=0 note=61 velocity=127 time=0.009375\n",
      "note_off channel=0 note=62 velocity=127 time=0.011458333333333333\n",
      "note_on channel=0 note=60 velocity=127 time=0.041666666666666664\n",
      "note_off channel=0 note=60 velocity=127 time=0.019791666666666666\n",
      "note_on channel=0 note=62 velocity=127 time=0.017708333333333333\n",
      "note_off channel=0 note=62 velocity=127 time=0.019791666666666666\n",
      "note_on channel=0 note=60 velocity=127 time=0.07395833333333333\n",
      "note_on channel=0 note=62 velocity=127 time=0.005208333333333333\n",
      "note_off channel=0 note=60 velocity=127 time=0.014583333333333334\n",
      "note_off channel=0 note=62 velocity=127 time=0.005208333333333333\n",
      "note_on channel=0 note=62 velocity=127 time=0.07916666666666666\n",
      "note_on channel=0 note=61 velocity=127 time=0.008333333333333333\n",
      "note_off channel=0 note=62 velocity=127 time=0.0125\n",
      "note_on channel=0 note=60 velocity=127 time=0.00625\n",
      "note_off channel=0 note=61 velocity=127 time=0.0010416666666666667\n",
      "note_off channel=0 note=60 velocity=127 time=0.01875\n",
      "note_on channel=0 note=62 velocity=127 time=0.053125\n",
      "\u001b[91m [DEBUG] > \u001b[0m\n",
      " |>  to_array: msg.time > max_t; t, n\n",
      " |>  1.992708333333333\n",
      " |>  100\n",
      "note_on channel=0 note=61 velocity=127 time=0.008333333333333333\n",
      "note_off channel=0 note=61 velocity=127 time=0.019791666666666666\n",
      "note_on channel=0 note=60 velocity=127 time=0.0020833333333333333\n",
      "note_off channel=0 note=60 velocity=127 time=0.019791666666666666\n",
      "note_on channel=0 note=62 velocity=127 time=0.035416666666666666\n",
      "note_on channel=0 note=61 velocity=127 time=0.008333333333333333\n",
      "note_off channel=0 note=62 velocity=127 time=0.011458333333333333\n",
      "note_off channel=0 note=61 velocity=127 time=0.008333333333333333\n",
      "note_on channel=0 note=61 velocity=127 time=0.065625\n",
      "note_on channel=0 note=60 velocity=127 time=0.007291666666666667\n",
      "note_on channel=0 note=62 velocity=127 time=0.0010416666666666667\n",
      "note_off channel=0 note=61 velocity=127 time=0.011458333333333333\n",
      "note_off channel=0 note=60 velocity=127 time=0.007291666666666667\n",
      "note_off channel=0 note=62 velocity=127 time=0.0010416666666666667\n",
      "note_on channel=0 note=61 velocity=127 time=0.057291666666666664\n",
      "note_off channel=0 note=61 velocity=127 time=0.019791666666666666\n",
      "note_on channel=0 note=62 velocity=127 time=0.005208333333333333\n",
      "note_off channel=0 note=62 velocity=127 time=0.019791666666666666\n",
      "note_on channel=0 note=60 velocity=127 time=0.034375\n",
      "note_on channel=0 note=61 velocity=127 time=0.00625\n",
      "note_off channel=0 note=60 velocity=127 time=0.013541666666666667\n",
      "note_off channel=0 note=61 velocity=127 time=0.00625\n",
      "note_on channel=0 note=62 velocity=127 time=0.021875\n",
      "note_off channel=0 note=62 velocity=127 time=0.019791666666666666\n",
      "note_on channel=0 note=61 velocity=127 time=0.02395833333333333\n",
      "note_off channel=0 note=61 velocity=127 time=0.019791666666666666\n",
      "note_on channel=0 note=62 velocity=127 time=0.03854166666666667\n",
      "note_on channel=0 note=60 velocity=127 time=0.00625\n",
      "note_off channel=0 note=62 velocity=127 time=0.013541666666666667\n",
      "note_off channel=0 note=60 velocity=127 time=0.00625\n",
      "note_on channel=0 note=61 velocity=127 time=0\n",
      "note_off channel=0 note=61 velocity=127 time=0.019791666666666666\n",
      "note_on channel=0 note=62 velocity=127 time=0.05520833333333333\n",
      "note_on channel=0 note=61 velocity=127 time=0.010416666666666666\n",
      "note_off channel=0 note=62 velocity=127 time=0.009375\n",
      "note_off channel=0 note=61 velocity=127 time=0.010416666666666666\n",
      "note_on channel=0 note=60 velocity=127 time=0.03125\n",
      "note_off channel=0 note=60 velocity=127 time=0.019791666666666666\n",
      "note_on channel=0 note=61 velocity=127 time=0.014583333333333334\n",
      "note_on channel=0 note=62 velocity=127 time=0.00625\n",
      "note_off channel=0 note=61 velocity=127 time=0.013541666666666667\n",
      "note_off channel=0 note=62 velocity=127 time=0.00625\n",
      "note_on channel=0 note=61 velocity=127 time=0.059375\n",
      "note_off channel=0 note=61 velocity=127 time=0.019791666666666666\n",
      "note_on channel=0 note=62 velocity=127 time=0.003125\n",
      "note_on channel=0 note=60 velocity=127 time=0.013541666666666667\n",
      "note_off channel=0 note=62 velocity=127 time=0.00625\n",
      "note_off channel=0 note=60 velocity=127 time=0.013541666666666667\n",
      "note_on channel=0 note=61 velocity=127 time=0.029166666666666667\n",
      "note_off channel=0 note=61 velocity=127 time=0.019791666666666666\n",
      "note_on channel=0 note=62 velocity=127 time=0.019791666666666666\n",
      "note_off channel=0 note=62 velocity=127 time=0.019791666666666666\n",
      "note_on channel=0 note=61 velocity=127 time=0.026041666666666668\n",
      "note_off channel=0 note=61 velocity=127 time=0.019791666666666666\n",
      "note_on channel=0 note=60 velocity=127 time=0.003125\n",
      "note_off channel=0 note=60 velocity=127 time=0.019791666666666666\n",
      "note_on channel=0 note=62 velocity=127 time=0.014583333333333334\n",
      "note_off channel=0 note=62 velocity=127 time=0.019791666666666666\n",
      "note_on channel=0 note=61 velocity=127 time=0.008333333333333333\n",
      "note_off channel=0 note=61 velocity=127 time=0.019791666666666666\n",
      "note_on channel=0 note=62 velocity=127 time=0.05416666666666667\n",
      "note_on channel=0 note=61 velocity=127 time=0.0125\n",
      "note_off channel=0 note=62 velocity=127 time=0.008333333333333333\n",
      "note_on channel=0 note=60 velocity=127 time=0.0010416666666666667\n",
      "note_off channel=0 note=61 velocity=127 time=0.011458333333333333\n",
      "note_off channel=0 note=60 velocity=127 time=0.008333333333333333\n",
      "note_on channel=0 note=61 velocity=127 time=0.057291666666666664\n",
      "note_on channel=0 note=62 velocity=127 time=0.005208333333333333\n",
      "note_off channel=0 note=61 velocity=127 time=0.015625\n",
      "note_off channel=0 note=62 velocity=127 time=0.005208333333333333\n",
      "note_on channel=0 note=60 velocity=127 time=0.05520833333333333\n",
      "note_on channel=0 note=61 velocity=127 time=0.005208333333333333\n",
      "note_off channel=0 note=60 velocity=127 time=0.014583333333333334\n",
      "note_off channel=0 note=61 velocity=127 time=0.005208333333333333\n",
      "note_on channel=0 note=62 velocity=127 time=0.0020833333333333333\n",
      "note_off channel=0 note=62 velocity=127 time=0.019791666666666666\n",
      "note_on channel=0 note=61 velocity=127 time=0.04375\n",
      "note_off channel=0 note=61 velocity=127 time=0.019791666666666666\n",
      "note_on channel=0 note=62 velocity=127 time=0.01875\n",
      "note_off channel=0 note=62 velocity=127 time=0.019791666666666666\n",
      "note_on channel=0 note=60 velocity=127 time=0.008333333333333333\n",
      "note_on channel=0 note=61 velocity=127 time=0.019791666666666666\n",
      "note_off channel=0 note=60 velocity=127 time=0\n",
      "note_off channel=0 note=61 velocity=127 time=0.019791666666666666\n",
      "note_on channel=0 note=62 velocity=127 time=0.035416666666666666\n",
      "note_off channel=0 note=62 velocity=127 time=0.019791666666666666\n",
      "note_on channel=0 note=61 velocity=127 time=0.010416666666666666\n",
      "note_off channel=0 note=61 velocity=127 time=0.019791666666666666\n",
      "note_on channel=0 note=60 velocity=127 time=0.03229166666666666\n",
      "note_on channel=0 note=62 velocity=127 time=0.019791666666666666\n",
      "note_off channel=0 note=60 velocity=127 time=0\n",
      "note_on channel=0 note=61 velocity=127 time=0.013541666666666667\n",
      "note_off channel=0 note=62 velocity=127 time=0.00625\n",
      "note_off channel=0 note=61 velocity=127 time=0.013541666666666667\n",
      "note_on channel=0 note=61 velocity=127 time=0.065625\n",
      "note_on channel=0 note=62 velocity=127 time=0.003125\n",
      "note_off channel=0 note=61 velocity=127 time=0.016666666666666666\n",
      "note_off channel=0 note=62 velocity=127 time=0.003125\n",
      "note_on channel=0 note=60 velocity=127 time=0.014583333333333334\n",
      "note_off channel=0 note=60 velocity=127 time=0.019791666666666666\n",
      "note_on channel=0 note=61 velocity=127 time=0.028125\n",
      "note_on channel=0 note=62 velocity=127 time=0.019791666666666666\n",
      "note_off channel=0 note=61 velocity=127 time=0\n",
      "note_off channel=0 note=62 velocity=127 time=0.019791666666666666\n",
      "note_on channel=0 note=61 velocity=127 time=0.04583333333333333\n",
      "note_off channel=0 note=61 velocity=127 time=0.019791666666666666\n",
      "note_on channel=0 note=60 velocity=127 time=0.004166666666666667\n",
      "note_on channel=0 note=62 velocity=127 time=0.0125\n",
      "note_off channel=0 note=60 velocity=127 time=0.007291666666666667\n",
      "note_off channel=0 note=62 velocity=127 time=0.0125\n",
      "note_on channel=0 note=61 velocity=127 time=0.029166666666666667\n",
      "note_off channel=0 note=61 velocity=127 time=0.019791666666666666\n",
      "\u001b[91m [DEBUG] > \u001b[0m\n",
      " |>  to_array: msg.time > max_t; t, n\n",
      " |>  1.9958333333333322\n",
      " |>  100\n",
      "note_on channel=0 note=61 velocity=127 time=0.003125\n",
      "note_on channel=0 note=62 velocity=127 time=0.0125\n",
      "note_off channel=0 note=61 velocity=127 time=0.007291666666666667\n",
      "note_off channel=0 note=62 velocity=127 time=0.0125\n",
      "note_on channel=0 note=62 velocity=127 time=0.06458333333333333\n",
      "note_on channel=0 note=60 velocity=127 time=0.0020833333333333333\n",
      "note_off channel=0 note=62 velocity=127 time=0.017708333333333333\n",
      "note_off channel=0 note=60 velocity=127 time=0.0020833333333333333\n",
      "note_on channel=0 note=61 velocity=127 time=0.020833333333333332\n",
      "note_off channel=0 note=61 velocity=127 time=0.019791666666666666\n",
      "note_on channel=0 note=62 velocity=127 time=0.020833333333333332\n",
      "note_off channel=0 note=62 velocity=127 time=0.019791666666666666\n",
      "note_on channel=0 note=62 velocity=127 time=0.06458333333333333\n",
      "note_on channel=0 note=61 velocity=127 time=0.014583333333333334\n",
      "note_off channel=0 note=62 velocity=127 time=0.005208333333333333\n",
      "note_off channel=0 note=61 velocity=127 time=0.014583333333333334\n",
      "note_on channel=0 note=62 velocity=127 time=0.04895833333333333\n",
      "note_off channel=0 note=62 velocity=127 time=0.019791666666666666\n",
      "note_on channel=0 note=60 velocity=127 time=0.0125\n",
      "note_off channel=0 note=60 velocity=127 time=0.019791666666666666\n",
      "note_on channel=0 note=61 velocity=127 time=0.01875\n",
      "note_on channel=0 note=62 velocity=127 time=0.013541666666666667\n",
      "note_off channel=0 note=61 velocity=127 time=0.00625\n",
      "note_off channel=0 note=62 velocity=127 time=0.013541666666666667\n",
      "note_on channel=0 note=62 velocity=127 time=0.06458333333333333\n",
      "note_off channel=0 note=62 velocity=127 time=0.019791666666666666\n",
      "note_on channel=0 note=61 velocity=127 time=0.022916666666666665\n",
      "note_off channel=0 note=61 velocity=127 time=0.019791666666666666\n",
      "note_on channel=0 note=62 velocity=127 time=0.021875\n",
      "note_off channel=0 note=62 velocity=127 time=0.019791666666666666\n",
      "note_on channel=0 note=60 velocity=127 time=0.042708333333333334\n",
      "note_off channel=0 note=60 velocity=127 time=0.019791666666666666\n",
      "note_on channel=0 note=62 velocity=127 time=0.0010416666666666667\n",
      "note_on channel=0 note=61 velocity=127 time=0.014583333333333334\n",
      "note_off channel=0 note=62 velocity=127 time=0.005208333333333333\n",
      "note_off channel=0 note=61 velocity=127 time=0.014583333333333334\n",
      "note_on channel=0 note=62 velocity=127 time=0.05\n",
      "note_off channel=0 note=62 velocity=127 time=0.019791666666666666\n",
      "note_on channel=0 note=61 velocity=127 time=0.05\n",
      "note_on channel=0 note=62 velocity=127 time=0.013541666666666667\n",
      "note_off channel=0 note=61 velocity=127 time=0.00625\n",
      "note_off channel=0 note=62 velocity=127 time=0.013541666666666667\n",
      "note_on channel=0 note=62 velocity=127 time=0.06458333333333333\n",
      "note_on channel=0 note=60 velocity=127 time=0.009375\n",
      "note_off channel=0 note=62 velocity=127 time=0.011458333333333333\n",
      "note_off channel=0 note=60 velocity=127 time=0.009375\n",
      "note_on channel=0 note=61 velocity=127 time=0.013541666666666667\n",
      "note_off channel=0 note=61 velocity=127 time=0.019791666666666666\n",
      "note_on channel=0 note=62 velocity=127 time=0.021875\n",
      "note_off channel=0 note=62 velocity=127 time=0.019791666666666666\n",
      "note_on channel=0 note=62 velocity=127 time=0.06458333333333333\n",
      "note_on channel=0 note=61 velocity=127 time=0.013541666666666667\n",
      "note_off channel=0 note=62 velocity=127 time=0.00625\n",
      "note_off channel=0 note=61 velocity=127 time=0.013541666666666667\n",
      "note_on channel=0 note=62 velocity=127 time=0.05\n",
      "note_off channel=0 note=62 velocity=127 time=0.019791666666666666\n",
      "note_on channel=0 note=60 velocity=127 time=0.019791666666666666\n",
      "note_off channel=0 note=60 velocity=127 time=0.019791666666666666\n",
      "note_on channel=0 note=61 velocity=127 time=0.010416666666666666\n",
      "note_on channel=0 note=62 velocity=127 time=0.014583333333333334\n",
      "note_off channel=0 note=61 velocity=127 time=0.005208333333333333\n",
      "note_off channel=0 note=62 velocity=127 time=0.014583333333333334\n",
      "note_on channel=0 note=62 velocity=127 time=0.06458333333333333\n",
      "note_off channel=0 note=62 velocity=127 time=0.019791666666666666\n",
      "note_on channel=0 note=61 velocity=127 time=0.021875\n",
      "note_off channel=0 note=61 velocity=127 time=0.019791666666666666\n",
      "note_on channel=0 note=62 velocity=127 time=0.022916666666666665\n",
      "note_off channel=0 note=62 velocity=127 time=0.019791666666666666\n",
      "note_on channel=0 note=60 velocity=127 time=0.05\n",
      "note_on channel=0 note=62 velocity=127 time=0.014583333333333334\n",
      "note_off channel=0 note=60 velocity=127 time=0.005208333333333333\n",
      "note_on channel=0 note=61 velocity=127 time=0.007291666666666667\n",
      "note_off channel=0 note=62 velocity=127 time=0.00625\n",
      "note_off channel=0 note=61 velocity=127 time=0.013541666666666667\n",
      "note_on channel=0 note=62 velocity=127 time=0.051041666666666666\n",
      "note_off channel=0 note=62 velocity=127 time=0.019791666666666666\n",
      "note_on channel=0 note=61 velocity=127 time=0.04895833333333333\n",
      "note_on channel=0 note=62 velocity=127 time=0.014583333333333334\n",
      "note_off channel=0 note=61 velocity=127 time=0.005208333333333333\n",
      "note_off channel=0 note=62 velocity=127 time=0.014583333333333334\n",
      "note_on channel=0 note=62 velocity=127 time=0.06458333333333333\n",
      "note_on channel=0 note=60 velocity=127 time=0.015625\n",
      "note_off channel=0 note=62 velocity=127 time=0.004166666666666667\n",
      "note_off channel=0 note=60 velocity=127 time=0.015625\n",
      "note_on channel=0 note=61 velocity=127 time=0.005208333333333333\n",
      "note_off channel=0 note=61 velocity=127 time=0.019791666666666666\n",
      "note_on channel=0 note=62 velocity=127 time=0.022916666666666665\n",
      "note_off channel=0 note=62 velocity=127 time=0.019791666666666666\n",
      "note_on channel=0 note=62 velocity=127 time=0.06458333333333333\n",
      "note_on channel=0 note=61 velocity=127 time=0.0125\n",
      "note_off channel=0 note=62 velocity=127 time=0.007291666666666667\n",
      "note_off channel=0 note=61 velocity=127 time=0.0125\n",
      "note_on channel=0 note=62 velocity=127 time=0.051041666666666666\n",
      "\u001b[91m [DEBUG] > \u001b[0m\n",
      " |>  to_array: msg.time > max_t; t, n\n",
      " |>  2.0322916666666666\n",
      " |>  100\n",
      "note_on channel=0 note=62 velocity=127 time=0.029166666666666667\n",
      "note_off channel=0 note=62 velocity=127 time=0.019791666666666666\n",
      "note_on channel=0 note=60 velocity=127 time=0.00625\n",
      "note_off channel=0 note=60 velocity=127 time=0.019791666666666666\n",
      "note_on channel=0 note=61 velocity=127 time=0.014583333333333334\n",
      "note_on channel=0 note=62 velocity=127 time=0.007291666666666667\n",
      "note_off channel=0 note=61 velocity=127 time=0.0125\n",
      "note_off channel=0 note=62 velocity=127 time=0.007291666666666667\n",
      "note_on channel=0 note=62 velocity=127 time=0.04895833333333333\n",
      "note_off channel=0 note=62 velocity=127 time=0.019791666666666666\n",
      "note_on channel=0 note=60 velocity=127 time=0.003125\n",
      "note_off channel=0 note=60 velocity=127 time=0.019791666666666666\n",
      "note_on channel=0 note=62 velocity=127 time=0.026041666666666668\n",
      "note_off channel=0 note=62 velocity=127 time=0.019791666666666666\n",
      "note_on channel=0 note=62 velocity=127 time=0.04895833333333333\n",
      "note_on channel=0 note=60 velocity=127 time=0.019791666666666666\n",
      "note_off channel=0 note=62 velocity=127 time=0\n",
      "note_off channel=0 note=60 velocity=127 time=0.019791666666666666\n",
      "note_on channel=0 note=62 velocity=127 time=0.029166666666666667\n",
      "note_off channel=0 note=62 velocity=127 time=0.019791666666666666\n",
      "note_on channel=0 note=61 velocity=127 time=0.01875\n",
      "note_off channel=0 note=61 velocity=127 time=0.019791666666666666\n",
      "note_on channel=0 note=62 velocity=127 time=0.010416666666666666\n",
      "note_on channel=0 note=60 velocity=127 time=0.016666666666666666\n",
      "note_off channel=0 note=62 velocity=127 time=0.003125\n",
      "note_off channel=0 note=60 velocity=127 time=0.016666666666666666\n",
      "note_on channel=0 note=62 velocity=127 time=0.03229166666666666\n",
      "note_off channel=0 note=62 velocity=127 time=0.019791666666666666\n",
      "note_on channel=0 note=62 velocity=127 time=0.04895833333333333\n",
      "note_on channel=0 note=60 velocity=127 time=0.013541666666666667\n"
     ]
    },
    {
     "name": "stdout",
     "output_type": "stream",
     "text": [
      "note_off channel=0 note=62 velocity=127 time=0.00625\n",
      "note_off channel=0 note=60 velocity=127 time=0.013541666666666667\n",
      "note_on channel=0 note=62 velocity=127 time=0.035416666666666666\n",
      "note_off channel=0 note=62 velocity=127 time=0.019791666666666666\n",
      "note_on channel=0 note=62 velocity=127 time=0.04895833333333333\n",
      "note_on channel=0 note=60 velocity=127 time=0.010416666666666666\n",
      "note_on channel=0 note=61 velocity=127 time=0.005208333333333333\n",
      "note_off channel=0 note=62 velocity=127 time=0.004166666666666667\n",
      "note_off channel=0 note=60 velocity=127 time=0.010416666666666666\n",
      "note_off channel=0 note=61 velocity=127 time=0.005208333333333333\n",
      "note_on channel=0 note=62 velocity=127 time=0.03333333333333333\n",
      "note_off channel=0 note=62 velocity=127 time=0.019791666666666666\n",
      "note_on channel=0 note=62 velocity=127 time=0.04895833333333333\n",
      "note_on channel=0 note=60 velocity=127 time=0.007291666666666667\n",
      "note_off channel=0 note=62 velocity=127 time=0.0125\n",
      "note_off channel=0 note=60 velocity=127 time=0.007291666666666667\n",
      "note_on channel=0 note=62 velocity=127 time=0.041666666666666664\n",
      "note_off channel=0 note=62 velocity=127 time=0.019791666666666666\n",
      "note_on channel=0 note=62 velocity=127 time=0.04895833333333333\n",
      "note_on channel=0 note=60 velocity=127 time=0.004166666666666667\n",
      "note_off channel=0 note=62 velocity=127 time=0.016666666666666666\n",
      "note_off channel=0 note=60 velocity=127 time=0.004166666666666667\n",
      "note_on channel=0 note=61 velocity=127 time=0.0375\n",
      "note_on channel=0 note=62 velocity=127 time=0.007291666666666667\n",
      "note_off channel=0 note=61 velocity=127 time=0.0125\n",
      "note_off channel=0 note=62 velocity=127 time=0.007291666666666667\n",
      "note_on channel=0 note=62 velocity=127 time=0.04895833333333333\n",
      "note_on channel=0 note=60 velocity=127 time=0.0010416666666666667\n",
      "note_off channel=0 note=62 velocity=127 time=0.019791666666666666\n",
      "note_off channel=0 note=60 velocity=127 time=0.0010416666666666667\n",
      "note_on channel=0 note=62 velocity=127 time=0.04791666666666666\n",
      "note_off channel=0 note=62 velocity=127 time=0.019791666666666666\n",
      "note_on channel=0 note=60 velocity=127 time=0.04583333333333333\n",
      "note_on channel=0 note=62 velocity=127 time=0.0020833333333333333\n",
      "note_off channel=0 note=60 velocity=127 time=0.017708333333333333\n",
      "note_off channel=0 note=62 velocity=127 time=0.0020833333333333333\n",
      "note_on channel=0 note=62 velocity=127 time=0.04895833333333333\n",
      "note_off channel=0 note=62 velocity=127 time=0.019791666666666666\n",
      "note_on channel=0 note=61 velocity=127 time=0.01875\n",
      "note_off channel=0 note=61 velocity=127 time=0.019791666666666666\n",
      "note_on channel=0 note=60 velocity=127 time=0.004166666666666667\n",
      "note_on channel=0 note=62 velocity=127 time=0.00625\n",
      "note_off channel=0 note=60 velocity=127 time=0.014583333333333334\n",
      "note_off channel=0 note=62 velocity=127 time=0.00625\n",
      "note_on channel=0 note=62 velocity=127 time=0.04895833333333333\n",
      "note_off channel=0 note=62 velocity=127 time=0.019791666666666666\n",
      "note_on channel=0 note=60 velocity=127 time=0.03958333333333333\n",
      "note_on channel=0 note=62 velocity=127 time=0.009375\n",
      "note_off channel=0 note=60 velocity=127 time=0.011458333333333333\n",
      "note_off channel=0 note=62 velocity=127 time=0.009375\n",
      "note_on channel=0 note=62 velocity=127 time=0.04895833333333333\n",
      "note_off channel=0 note=62 velocity=127 time=0.019791666666666666\n",
      "note_on channel=0 note=60 velocity=127 time=0.036458333333333336\n",
      "note_on channel=0 note=62 velocity=127 time=0.0125\n",
      "note_off channel=0 note=60 velocity=127 time=0.008333333333333333\n",
      "note_on channel=0 note=61 velocity=127 time=0.007291666666666667\n",
      "note_off channel=0 note=62 velocity=127 time=0.004166666666666667\n",
      "note_off channel=0 note=61 velocity=127 time=0.015625\n",
      "note_on channel=0 note=62 velocity=127 time=0.03333333333333333\n",
      "note_off channel=0 note=62 velocity=127 time=0.019791666666666666\n",
      "note_on channel=0 note=60 velocity=127 time=0.03333333333333333\n",
      "note_on channel=0 note=62 velocity=127 time=0.015625\n",
      "note_off channel=0 note=60 velocity=127 time=0.004166666666666667\n",
      "note_off channel=0 note=62 velocity=127 time=0.015625\n",
      "note_on channel=0 note=62 velocity=127 time=0.04895833333333333\n",
      "note_off channel=0 note=62 velocity=127 time=0.019791666666666666\n",
      "note_on channel=0 note=60 velocity=127 time=0.030208333333333334\n",
      "note_on channel=0 note=62 velocity=127 time=0.01875\n",
      "note_off channel=0 note=60 velocity=127 time=0.0010416666666666667\n",
      "note_off channel=0 note=62 velocity=127 time=0.01875\n",
      "note_on channel=0 note=61 velocity=127 time=0.041666666666666664\n",
      "\u001b[91m [DEBUG] > \u001b[0m\n",
      " |>  to_array: msg.time > max_t; t, n\n",
      " |>  2.017708333333334\n",
      " |>  100\n",
      "note_on channel=0 note=60 velocity=127 time=0.003125\n",
      "note_off channel=0 note=60 velocity=127 time=0.019791666666666666\n",
      "note_on channel=0 note=62 velocity=127 time=0.003125\n",
      "note_on channel=0 note=61 velocity=127 time=0.009375\n",
      "note_off channel=0 note=62 velocity=127 time=0.010416666666666666\n",
      "note_off channel=0 note=61 velocity=127 time=0.009375\n",
      "note_on channel=0 note=60 velocity=127 time=0.019791666666666666\n",
      "note_off channel=0 note=60 velocity=127 time=0.019791666666666666\n",
      "note_on channel=0 note=62 velocity=127 time=0.014583333333333334\n",
      "note_off channel=0 note=62 velocity=127 time=0.019791666666666666\n",
      "note_on channel=0 note=60 velocity=127 time=0.017708333333333333\n",
      "note_off channel=0 note=60 velocity=127 time=0.019791666666666666\n",
      "note_on channel=0 note=62 velocity=127 time=0.026041666666666668\n",
      "note_off channel=0 note=62 velocity=127 time=0.019791666666666666\n",
      "note_on channel=0 note=60 velocity=127 time=0.005208333333333333\n",
      "note_on channel=0 note=61 velocity=127 time=0.0020833333333333333\n",
      "note_off channel=0 note=60 velocity=127 time=0.01875\n",
      "note_off channel=0 note=61 velocity=127 time=0.0020833333333333333\n",
      "note_on channel=0 note=62 velocity=127 time=0.036458333333333336\n",
      "note_on channel=0 note=60 velocity=127 time=0.013541666666666667\n",
      "note_off channel=0 note=62 velocity=127 time=0.00625\n",
      "note_off channel=0 note=60 velocity=127 time=0.013541666666666667\n",
      "note_on channel=0 note=62 velocity=127 time=0.05\n",
      "note_on channel=0 note=60 velocity=127 time=0.0020833333333333333\n",
      "note_off channel=0 note=62 velocity=127 time=0.017708333333333333\n",
      "note_off channel=0 note=60 velocity=127 time=0.0020833333333333333\n",
      "note_on channel=0 note=61 velocity=127 time=0.022916666666666665\n",
      "note_off channel=0 note=61 velocity=127 time=0.019791666666666666\n",
      "note_on channel=0 note=60 velocity=127 time=0.009375\n",
      "note_on channel=0 note=62 velocity=127 time=0.009375\n",
      "note_off channel=0 note=60 velocity=127 time=0.010416666666666666\n",
      "note_off channel=0 note=62 velocity=127 time=0.009375\n",
      "note_on channel=0 note=60 velocity=127 time=0.042708333333333334\n",
      "note_off channel=0 note=60 velocity=127 time=0.019791666666666666\n",
      "note_on channel=0 note=62 velocity=127 time=0.0010416666666666667\n",
      "note_off channel=0 note=62 velocity=127 time=0.019791666666666666\n",
      "note_on channel=0 note=60 velocity=127 time=0.030208333333333334\n",
      "note_on channel=0 note=61 velocity=127 time=0.0125\n",
      "note_off channel=0 note=60 velocity=127 time=0.007291666666666667\n",
      "note_off channel=0 note=61 velocity=127 time=0.0125\n",
      "note_on channel=0 note=62 velocity=127 time=0.0010416666666666667\n",
      "note_off channel=0 note=62 velocity=127 time=0.019791666666666666\n",
      "note_on channel=0 note=60 velocity=127 time=0.01875\n",
      "note_off channel=0 note=60 velocity=127 time=0.019791666666666666\n",
      "note_on channel=0 note=62 velocity=127 time=0.025\n",
      "note_off channel=0 note=62 velocity=127 time=0.019791666666666666\n",
      "note_on channel=0 note=60 velocity=127 time=0.007291666666666667\n",
      "note_off channel=0 note=60 velocity=127 time=0.019791666666666666\n",
      "note_on channel=0 note=61 velocity=127 time=0.034375\n",
      "note_on channel=0 note=62 velocity=127 time=0.003125\n",
      "note_on channel=0 note=60 velocity=127 time=0.015625\n",
      "note_off channel=0 note=61 velocity=127 time=0.0020833333333333333\n",
      "note_off channel=0 note=62 velocity=127 time=0.003125\n",
      "note_off channel=0 note=60 velocity=127 time=0.015625\n",
      "note_on channel=0 note=62 velocity=127 time=0.04895833333333333\n",
      "note_on channel=0 note=60 velocity=127 time=0.003125\n",
      "note_off channel=0 note=62 velocity=127 time=0.016666666666666666\n",
      "note_off channel=0 note=60 velocity=127 time=0.003125\n",
      "note_on channel=0 note=60 velocity=127 time=0.052083333333333336\n",
      "note_on channel=0 note=62 velocity=127 time=0.008333333333333333\n",
      "note_off channel=0 note=60 velocity=127 time=0.011458333333333333\n",
      "note_on channel=0 note=61 velocity=127 time=0.003125\n",
      "note_off channel=0 note=62 velocity=127 time=0.005208333333333333\n",
      "note_off channel=0 note=61 velocity=127 time=0.014583333333333334\n",
      "note_on channel=0 note=60 velocity=127 time=0.029166666666666667\n",
      "note_off channel=0 note=60 velocity=127 time=0.019791666666666666\n",
      "note_on channel=0 note=62 velocity=127 time=0\n",
      "note_off channel=0 note=62 velocity=127 time=0.019791666666666666\n",
      "note_on channel=0 note=60 velocity=127 time=0.03229166666666666\n",
      "note_off channel=0 note=60 velocity=127 time=0.019791666666666666\n",
      "note_on channel=0 note=62 velocity=127 time=0.011458333333333333\n",
      "note_off channel=0 note=62 velocity=127 time=0.019791666666666666\n",
      "note_on channel=0 note=61 velocity=127 time=0.0125\n",
      "note_on channel=0 note=60 velocity=127 time=0.007291666666666667\n",
      "note_off channel=0 note=61 velocity=127 time=0.0125\n",
      "note_off channel=0 note=60 velocity=127 time=0.007291666666666667\n",
      "note_on channel=0 note=62 velocity=127 time=0.02395833333333333\n",
      "note_off channel=0 note=62 velocity=127 time=0.019791666666666666\n",
      "note_on channel=0 note=60 velocity=127 time=0.008333333333333333\n",
      "note_off channel=0 note=60 velocity=127 time=0.019791666666666666\n",
      "note_on channel=0 note=62 velocity=127 time=0.035416666666666666\n",
      "note_on channel=0 note=60 velocity=127 time=0.016666666666666666\n",
      "note_off channel=0 note=62 velocity=127 time=0.003125\n",
      "note_off channel=0 note=60 velocity=127 time=0.016666666666666666\n",
      "note_on channel=0 note=61 velocity=127 time=0.013541666666666667\n",
      "note_off channel=0 note=61 velocity=127 time=0.019791666666666666\n",
      "note_on channel=0 note=62 velocity=127 time=0.013541666666666667\n",
      "note_on channel=0 note=60 velocity=127 time=0.005208333333333333\n",
      "note_off channel=0 note=62 velocity=127 time=0.014583333333333334\n",
      "note_off channel=0 note=60 velocity=127 time=0.005208333333333333\n",
      "note_on channel=0 note=60 velocity=127 time=0.052083333333333336\n",
      "note_on channel=0 note=62 velocity=127 time=0.007291666666666667\n",
      "note_off channel=0 note=60 velocity=127 time=0.013541666666666667\n",
      "note_off channel=0 note=62 velocity=127 time=0.007291666666666667\n",
      "note_on channel=0 note=60 velocity=127 time=0.04583333333333333\n",
      "note_on channel=0 note=61 velocity=127 time=0.003125\n",
      "note_on channel=0 note=62 velocity=127 time=0.015625\n",
      "note_off channel=0 note=60 velocity=127 time=0.0010416666666666667\n",
      "note_off channel=0 note=61 velocity=127 time=0.003125\n",
      "note_off channel=0 note=62 velocity=127 time=0.015625\n",
      "note_on channel=0 note=60 velocity=127 time=0.03333333333333333\n",
      "note_off channel=0 note=60 velocity=127 time=0.019791666666666666\n",
      "note_on channel=0 note=62 velocity=127 time=0.010416666666666666\n",
      "note_off channel=0 note=62 velocity=127 time=0.019791666666666666\n",
      "note_on channel=0 note=60 velocity=127 time=0.021875\n",
      "note_off channel=0 note=60 velocity=127 time=0.019791666666666666\n",
      "note_on channel=0 note=62 velocity=127 time=0.021875\n",
      "note_on channel=0 note=61 velocity=127 time=0.0020833333333333333\n",
      "note_off channel=0 note=62 velocity=127 time=0.017708333333333333\n",
      "note_off channel=0 note=61 velocity=127 time=0.0020833333333333333\n",
      "note_on channel=0 note=60 velocity=127 time=0.007291666666666667\n",
      "note_off channel=0 note=60 velocity=127 time=0.019791666666666666\n",
      "note_on channel=0 note=62 velocity=127 time=0.034375\n",
      "note_on channel=0 note=60 velocity=127 time=0.017708333333333333\n",
      "note_off channel=0 note=62 velocity=127 time=0.0020833333333333333\n",
      "note_off channel=0 note=60 velocity=127 time=0.017708333333333333\n",
      "note_on channel=0 note=62 velocity=127 time=0.04583333333333333\n",
      "note_on channel=0 note=60 velocity=127 time=0.00625\n",
      "note_off channel=0 note=62 velocity=127 time=0.013541666666666667\n",
      "note_on channel=0 note=61 velocity=127 time=0\n",
      "note_off channel=0 note=60 velocity=127 time=0.00625\n",
      "note_off channel=0 note=61 velocity=127 time=0.013541666666666667\n",
      "note_on channel=0 note=60 velocity=127 time=0.03854166666666667\n",
      "note_on channel=0 note=62 velocity=127 time=0.005208333333333333\n",
      "note_off channel=0 note=60 velocity=127 time=0.014583333333333334\n",
      "note_off channel=0 note=62 velocity=127 time=0.005208333333333333\n",
      "note_on channel=0 note=60 velocity=127 time=0.046875\n",
      "\u001b[91m [DEBUG] > \u001b[0m\n",
      " |>  to_array: msg.time > max_t; t, n\n",
      " |>  2.0166666666666675\n",
      " |>  100\n",
      "note_on channel=0 note=62 velocity=127 time=0.0020833333333333333\n",
      "note_on channel=0 note=60 velocity=127 time=0.013541666666666667\n",
      "note_off channel=0 note=62 velocity=127 time=0.00625\n",
      "note_off channel=0 note=60 velocity=127 time=0.013541666666666667\n",
      "note_on channel=0 note=61 velocity=127 time=0.052083333333333336\n",
      "note_on channel=0 note=62 velocity=127 time=0.015625\n",
      "note_off channel=0 note=61 velocity=127 time=0.004166666666666667\n",
      "note_off channel=0 note=62 velocity=127 time=0.015625\n",
      "note_on channel=0 note=61 velocity=127 time=0.0625\n",
      "note_on channel=0 note=62 velocity=127 time=0.01875\n",
      "note_off channel=0 note=61 velocity=127 time=0.0010416666666666667\n",
      "note_on channel=0 note=60 velocity=127 time=0.016666666666666666\n",
      "note_off channel=0 note=62 velocity=127 time=0.0020833333333333333\n",
      "note_off channel=0 note=60 velocity=127 time=0.017708333333333333\n",
      "note_on channel=0 note=61 velocity=127 time=0.040625\n",
      "note_off channel=0 note=61 velocity=127 time=0.019791666666666666\n",
      "note_on channel=0 note=62 velocity=127 time=0.0020833333333333333\n",
      "note_off channel=0 note=62 velocity=127 time=0.019791666666666666\n",
      "note_on channel=0 note=61 velocity=127 time=0.05520833333333333\n",
      "note_off channel=0 note=61 velocity=127 time=0.019791666666666666\n",
      "note_on channel=0 note=62 velocity=127 time=0.00625\n",
      "note_off channel=0 note=62 velocity=127 time=0.019791666666666666\n",
      "note_on channel=0 note=60 velocity=127 time=0.0020833333333333333\n",
      "note_off channel=0 note=60 velocity=127 time=0.019791666666666666\n",
      "note_on channel=0 note=61 velocity=127 time=0.030208333333333334\n",
      "note_off channel=0 note=61 velocity=127 time=0.019791666666666666\n",
      "note_on channel=0 note=62 velocity=127 time=0.009375\n",
      "note_off channel=0 note=62 velocity=127 time=0.019791666666666666\n",
      "note_on channel=0 note=61 velocity=127 time=0.04791666666666666\n",
      "note_off channel=0 note=61 velocity=127 time=0.019791666666666666\n",
      "note_on channel=0 note=62 velocity=127 time=0.0125\n",
      "note_off channel=0 note=62 velocity=127 time=0.019791666666666666\n",
      "note_on channel=0 note=60 velocity=127 time=0.00625\n",
      "note_off channel=0 note=60 velocity=127 time=0.019791666666666666\n",
      "note_on channel=0 note=61 velocity=127 time=0.01875\n",
      "note_off channel=0 note=61 velocity=127 time=0.019791666666666666\n",
      "note_on channel=0 note=62 velocity=127 time=0.016666666666666666\n",
      "note_off channel=0 note=62 velocity=127 time=0.019791666666666666\n",
      "note_on channel=0 note=61 velocity=127 time=0.041666666666666664\n",
      "note_off channel=0 note=61 velocity=127 time=0.019791666666666666\n",
      "note_on channel=0 note=62 velocity=127 time=0.019791666666666666\n",
      "note_off channel=0 note=62 velocity=127 time=0.019791666666666666\n",
      "note_on channel=0 note=60 velocity=127 time=0.010416666666666666\n",
      "note_off channel=0 note=60 velocity=127 time=0.019791666666666666\n",
      "note_on channel=0 note=61 velocity=127 time=0.007291666666666667\n",
      "note_off channel=0 note=61 velocity=127 time=0.019791666666666666\n",
      "note_on channel=0 note=62 velocity=127 time=0.022916666666666665\n",
      "note_off channel=0 note=62 velocity=127 time=0.019791666666666666\n",
      "note_on channel=0 note=61 velocity=127 time=0.034375\n",
      "note_off channel=0 note=61 velocity=127 time=0.019791666666666666\n",
      "note_on channel=0 note=62 velocity=127 time=0.027083333333333334\n",
      "note_off channel=0 note=62 velocity=127 time=0.019791666666666666\n",
      "note_on channel=0 note=60 velocity=127 time=0.014583333333333334\n",
      "note_on channel=0 note=61 velocity=127 time=0.016666666666666666\n",
      "note_off channel=0 note=60 velocity=127 time=0.003125\n",
      "note_off channel=0 note=61 velocity=127 time=0.016666666666666666\n",
      "note_on channel=0 note=62 velocity=127 time=0.030208333333333334\n",
      "note_off channel=0 note=62 velocity=127 time=0.019791666666666666\n",
      "note_on channel=0 note=61 velocity=127 time=0.027083333333333334\n",
      "note_off channel=0 note=61 velocity=127 time=0.019791666666666666\n",
      "note_on channel=0 note=62 velocity=127 time=0.03333333333333333\n",
      "note_off channel=0 note=62 velocity=127 time=0.019791666666666666\n",
      "note_on channel=0 note=60 velocity=127 time=0.01875\n",
      "note_on channel=0 note=61 velocity=127 time=0.005208333333333333\n",
      "note_off channel=0 note=60 velocity=127 time=0.014583333333333334\n",
      "note_off channel=0 note=61 velocity=127 time=0.005208333333333333\n",
      "note_on channel=0 note=62 velocity=127 time=0.0375\n",
      "note_off channel=0 note=62 velocity=127 time=0.019791666666666666\n",
      "note_on channel=0 note=61 velocity=127 time=0.020833333333333332\n",
      "note_off channel=0 note=61 velocity=127 time=0.019791666666666666\n",
      "note_on channel=0 note=62 velocity=127 time=0.040625\n",
      "note_off channel=0 note=62 velocity=127 time=0.019791666666666666\n",
      "note_on channel=0 note=61 velocity=127 time=0.016666666666666666\n",
      "note_on channel=0 note=60 velocity=127 time=0.00625\n",
      "note_off channel=0 note=61 velocity=127 time=0.014583333333333334\n",
      "note_off channel=0 note=60 velocity=127 time=0.00625\n",
      "note_on channel=0 note=62 velocity=127 time=0.03854166666666667\n",
      "note_off channel=0 note=62 velocity=127 time=0.019791666666666666\n",
      "note_on channel=0 note=61 velocity=127 time=0.013541666666666667\n",
      "note_off channel=0 note=61 velocity=127 time=0.019791666666666666\n",
      "note_on channel=0 note=62 velocity=127 time=0.04791666666666666\n",
      "note_off channel=0 note=62 velocity=127 time=0.019791666666666666\n",
      "note_on channel=0 note=61 velocity=127 time=0.010416666666666666\n",
      "note_on channel=0 note=60 velocity=127 time=0.016666666666666666\n",
      "note_off channel=0 note=61 velocity=127 time=0.003125\n",
      "note_off channel=0 note=60 velocity=127 time=0.016666666666666666\n",
      "note_on channel=0 note=62 velocity=127 time=0.034375\n",
      "note_off channel=0 note=62 velocity=127 time=0.019791666666666666\n",
      "note_on channel=0 note=61 velocity=127 time=0.00625\n",
      "note_off channel=0 note=61 velocity=127 time=0.019791666666666666\n",
      "note_on channel=0 note=62 velocity=127 time=0.05416666666666667\n",
      "note_off channel=0 note=62 velocity=127 time=0.019791666666666666\n",
      "note_on channel=0 note=61 velocity=127 time=0.003125\n",
      "note_off channel=0 note=61 velocity=127 time=0.019791666666666666\n",
      "note_on channel=0 note=60 velocity=127 time=0.008333333333333333\n",
      "note_off channel=0 note=60 velocity=127 time=0.019791666666666666\n",
      "note_on channel=0 note=62 velocity=127 time=0.030208333333333334\n",
      "note_on channel=0 note=61 velocity=127 time=0.019791666666666666\n",
      "note_off channel=0 note=62 velocity=127 time=0\n",
      "note_off channel=0 note=61 velocity=127 time=0.019791666666666666\n",
      "note_on channel=0 note=62 velocity=127 time=0.06145833333333333\n",
      "\u001b[91m [DEBUG] > \u001b[0m\n",
      " |>  to_array: msg.time > max_t; t, n\n",
      " |>  2.01875\n",
      " |>  100\n",
      "note_on channel=0 note=60 velocity=127 time=0.051041666666666666\n",
      "note_off channel=0 note=60 velocity=127 time=0.019791666666666666\n",
      "note_on channel=0 note=62 velocity=127 time=0.017708333333333333\n",
      "note_on channel=0 note=61 velocity=127 time=0.003125\n",
      "note_off channel=0 note=62 velocity=127 time=0.017708333333333333\n",
      "note_off channel=0 note=61 velocity=127 time=0.003125\n",
      "note_on channel=0 note=60 velocity=127 time=0.025\n",
      "note_off channel=0 note=60 velocity=127 time=0.019791666666666666\n",
      "note_on channel=0 note=62 velocity=127 time=0.03333333333333333\n",
      "note_on channel=0 note=61 velocity=127 time=0.011458333333333333\n",
      "note_off channel=0 note=62 velocity=127 time=0.008333333333333333\n",
      "note_off channel=0 note=61 velocity=127 time=0.011458333333333333\n",
      "note_on channel=0 note=60 velocity=127 time=0.0010416666666666667\n",
      "note_off channel=0 note=60 velocity=127 time=0.019791666666666666\n",
      "note_on channel=0 note=62 velocity=127 time=0.04895833333333333\n",
      "note_on channel=0 note=60 velocity=127 time=0.016666666666666666\n",
      "note_on channel=0 note=61 velocity=127 time=0.0020833333333333333\n",
      "note_off channel=0 note=62 velocity=127 time=0\n",
      "note_off channel=0 note=60 velocity=127 time=0.016666666666666666\n",
      "note_off channel=0 note=61 velocity=127 time=0.0020833333333333333\n",
      "note_on channel=0 note=62 velocity=127 time=0.06145833333333333\n",
      "note_on channel=0 note=60 velocity=127 time=0.0020833333333333333\n",
      "note_off channel=0 note=62 velocity=127 time=0.017708333333333333\n",
      "note_off channel=0 note=60 velocity=127 time=0.0020833333333333333\n",
      "note_on channel=0 note=61 velocity=127 time=0.00625\n",
      "note_off channel=0 note=61 velocity=127 time=0.019791666666666666\n",
      "note_on channel=0 note=60 velocity=127 time=0.03958333333333333\n",
      "note_on channel=0 note=62 velocity=127 time=0.013541666666666667\n",
      "note_off channel=0 note=60 velocity=127 time=0.00625\n",
      "note_off channel=0 note=62 velocity=127 time=0.013541666666666667\n",
      "note_on channel=0 note=61 velocity=127 time=0.016666666666666666\n",
      "note_off channel=0 note=61 velocity=127 time=0.019791666666666666\n",
      "note_on channel=0 note=60 velocity=127 time=0.015625\n",
      "note_off channel=0 note=60 velocity=127 time=0.019791666666666666\n",
      "note_on channel=0 note=62 velocity=127 time=0.008333333333333333\n",
      "note_off channel=0 note=62 velocity=127 time=0.019791666666666666\n",
      "note_on channel=0 note=61 velocity=127 time=0.025\n",
      "note_on channel=0 note=60 velocity=127 time=0.0125\n",
      "note_off channel=0 note=61 velocity=127 time=0.007291666666666667\n",
      "note_off channel=0 note=60 velocity=127 time=0.0125\n",
      "note_on channel=0 note=62 velocity=127 time=0.02395833333333333\n",
      "note_off channel=0 note=62 velocity=127 time=0.019791666666666666\n",
      "note_on channel=0 note=60 velocity=127 time=0.021875\n",
      "note_on channel=0 note=61 velocity=127 time=0.011458333333333333\n",
      "note_off channel=0 note=60 velocity=127 time=0.008333333333333333\n",
      "note_off channel=0 note=61 velocity=127 time=0.011458333333333333\n",
      "note_on channel=0 note=62 velocity=127 time=0.028125\n",
      "note_off channel=0 note=62 velocity=127 time=0.019791666666666666\n",
      "note_on channel=0 note=60 velocity=127 time=0.00625\n",
      "note_off channel=0 note=60 velocity=127 time=0.019791666666666666\n",
      "note_on channel=0 note=61 velocity=127 time=0.014583333333333334\n",
      "note_off channel=0 note=61 velocity=127 time=0.019791666666666666\n",
      "note_on channel=0 note=62 velocity=127 time=0.019791666666666666\n",
      "note_on channel=0 note=60 velocity=127 time=0.011458333333333333\n",
      "note_off channel=0 note=62 velocity=127 time=0.008333333333333333\n",
      "note_off channel=0 note=60 velocity=127 time=0.011458333333333333\n",
      "note_on channel=0 note=61 velocity=127 time=0.03854166666666667\n",
      "note_off channel=0 note=61 velocity=127 time=0.019791666666666666\n",
      "note_on channel=0 note=60 velocity=127 time=0.007291666666666667\n",
      "note_on channel=0 note=62 velocity=127 time=0.004166666666666667\n",
      "note_off channel=0 note=60 velocity=127 time=0.016666666666666666\n",
      "note_off channel=0 note=62 velocity=127 time=0.004166666666666667\n",
      "note_on channel=0 note=61 velocity=127 time=0.058333333333333334\n",
      "note_on channel=0 note=60 velocity=127 time=0.003125\n",
      "note_off channel=0 note=61 velocity=127 time=0.016666666666666666\n",
      "note_on channel=0 note=62 velocity=127 time=0.003125\n",
      "note_off channel=0 note=60 velocity=127 time=0.0010416666666666667\n",
      "note_off channel=0 note=62 velocity=127 time=0.01875\n",
      "note_on channel=0 note=60 velocity=127 time=0.046875\n",
      "note_off channel=0 note=60 velocity=127 time=0.019791666666666666\n",
      "note_on channel=0 note=61 velocity=127 time=0\n",
      "note_on channel=0 note=62 velocity=127 time=0.014583333333333334\n",
      "note_off channel=0 note=61 velocity=127 time=0.00625\n",
      "note_off channel=0 note=62 velocity=127 time=0.014583333333333334\n",
      "note_on channel=0 note=60 velocity=127 time=0.03125\n",
      "note_off channel=0 note=60 velocity=127 time=0.019791666666666666\n",
      "note_on channel=0 note=61 velocity=127 time=0.02395833333333333\n",
      "note_on channel=0 note=62 velocity=127 time=0.00625\n",
      "note_off channel=0 note=61 velocity=127 time=0.014583333333333334\n",
      "note_off channel=0 note=62 velocity=127 time=0.00625\n",
      "note_on channel=0 note=60 velocity=127 time=0.016666666666666666\n",
      "note_off channel=0 note=60 velocity=127 time=0.019791666666666666\n",
      "note_on channel=0 note=62 velocity=127 time=0.04479166666666667\n",
      "note_on channel=0 note=61 velocity=127 time=0.0020833333333333333\n",
      "note_off channel=0 note=62 velocity=127 time=0.017708333333333333\n",
      "note_on channel=0 note=60 velocity=127 time=0.0010416666666666667\n",
      "note_off channel=0 note=61 velocity=127 time=0.0020833333333333333\n",
      "note_off channel=0 note=60 velocity=127 time=0.01875\n",
      "note_on channel=0 note=62 velocity=127 time=0.06041666666666667\n",
      "note_on channel=0 note=60 velocity=127 time=0.005208333333333333\n",
      "note_on channel=0 note=61 velocity=127 time=0.005208333333333333\n",
      "note_off channel=0 note=62 velocity=127 time=0.009375\n",
      "note_off channel=0 note=60 velocity=127 time=0.005208333333333333\n",
      "note_off channel=0 note=61 velocity=127 time=0.005208333333333333\n",
      "note_on channel=0 note=60 velocity=127 time=0.06041666666666667\n",
      "note_on channel=0 note=62 velocity=127 time=0.009375\n",
      "note_off channel=0 note=60 velocity=127 time=0.010416666666666666\n",
      "note_on channel=0 note=61 velocity=127 time=0.009375\n",
      "note_off channel=0 note=62 velocity=127 time=0.0010416666666666667\n",
      "note_off channel=0 note=61 velocity=127 time=0.019791666666666666\n",
      "note_on channel=0 note=60 velocity=127 time=0.036458333333333336\n",
      "note_off channel=0 note=60 velocity=127 time=0.019791666666666666\n",
      "note_on channel=0 note=62 velocity=127 time=0.005208333333333333\n",
      "note_off channel=0 note=62 velocity=127 time=0.019791666666666666\n",
      "note_on channel=0 note=61 velocity=127 time=0.007291666666666667\n",
      "note_off channel=0 note=61 velocity=127 time=0.019791666666666666\n",
      "note_on channel=0 note=60 velocity=127 time=0.013541666666666667\n",
      "note_off channel=0 note=60 velocity=127 time=0.019791666666666666\n",
      "note_on channel=0 note=62 velocity=127 time=0.019791666666666666\n",
      "note_off channel=0 note=62 velocity=127 time=0.019791666666666666\n",
      "note_on channel=0 note=61 velocity=127 time=0.016666666666666666\n",
      "note_on channel=0 note=60 velocity=127 time=0.009375\n",
      "note_off channel=0 note=61 velocity=127 time=0.010416666666666666\n",
      "note_off channel=0 note=60 velocity=127 time=0.009375\n",
      "note_on channel=0 note=62 velocity=127 time=0.035416666666666666\n",
      "note_off channel=0 note=62 velocity=127 time=0.019791666666666666\n",
      "note_on channel=0 note=60 velocity=127 time=0.010416666666666666\n",
      "note_on channel=0 note=61 velocity=127 time=0.014583333333333334\n",
      "note_off channel=0 note=60 velocity=127 time=0.00625\n",
      "note_off channel=0 note=61 velocity=127 time=0.014583333333333334\n",
      "note_on channel=0 note=62 velocity=127 time=0.036458333333333336\n",
      "\u001b[91m [DEBUG] > \u001b[0m\n",
      " |>  to_array: msg.time > max_t; t, n\n",
      " |>  2.009374999999999\n",
      " |>  100\n"
     ]
    },
    {
     "name": "stdout",
     "output_type": "stream",
     "text": [
      "note_on channel=0 note=61 velocity=127 time=0.016666666666666666\n",
      "note_off channel=0 note=61 velocity=127 time=0.019791666666666666\n",
      "note_on channel=0 note=62 velocity=127 time=0.0125\n",
      "note_off channel=0 note=62 velocity=127 time=0.019791666666666666\n",
      "note_on channel=0 note=61 velocity=127 time=0.016666666666666666\n",
      "note_off channel=0 note=61 velocity=127 time=0.019791666666666666\n",
      "note_on channel=0 note=62 velocity=127 time=0.0125\n",
      "note_on channel=0 note=60 velocity=127 time=0.003125\n",
      "note_off channel=0 note=62 velocity=127 time=0.016666666666666666\n",
      "note_off channel=0 note=60 velocity=127 time=0.003125\n",
      "note_on channel=0 note=61 velocity=127 time=0.0125\n",
      "note_off channel=0 note=61 velocity=127 time=0.019791666666666666\n",
      "note_on channel=0 note=62 velocity=127 time=0.013541666666666667\n",
      "note_off channel=0 note=62 velocity=127 time=0.019791666666666666\n",
      "note_on channel=0 note=61 velocity=127 time=0.015625\n",
      "note_off channel=0 note=61 velocity=127 time=0.019791666666666666\n",
      "note_on channel=0 note=62 velocity=127 time=0.013541666666666667\n",
      "note_off channel=0 note=62 velocity=127 time=0.019791666666666666\n",
      "note_on channel=0 note=60 velocity=127 time=0.003125\n",
      "note_on channel=0 note=61 velocity=127 time=0.0125\n",
      "note_off channel=0 note=60 velocity=127 time=0.007291666666666667\n",
      "note_off channel=0 note=61 velocity=127 time=0.0125\n",
      "note_on channel=0 note=62 velocity=127 time=0.013541666666666667\n",
      "note_off channel=0 note=62 velocity=127 time=0.019791666666666666\n",
      "note_on channel=0 note=61 velocity=127 time=0.015625\n",
      "note_off channel=0 note=61 velocity=127 time=0.019791666666666666\n",
      "note_on channel=0 note=62 velocity=127 time=0.013541666666666667\n",
      "note_off channel=0 note=62 velocity=127 time=0.019791666666666666\n",
      "note_on channel=0 note=61 velocity=127 time=0.015625\n",
      "note_on channel=0 note=60 velocity=127 time=0.007291666666666667\n",
      "note_off channel=0 note=61 velocity=127 time=0.0125\n",
      "note_off channel=0 note=60 velocity=127 time=0.007291666666666667\n",
      "note_on channel=0 note=62 velocity=127 time=0.00625\n",
      "note_off channel=0 note=62 velocity=127 time=0.019791666666666666\n",
      "note_on channel=0 note=61 velocity=127 time=0.015625\n",
      "note_off channel=0 note=61 velocity=127 time=0.019791666666666666\n",
      "note_on channel=0 note=62 velocity=127 time=0.013541666666666667\n",
      "note_off channel=0 note=62 velocity=127 time=0.019791666666666666\n",
      "note_on channel=0 note=61 velocity=127 time=0.015625\n",
      "note_off channel=0 note=61 velocity=127 time=0.019791666666666666\n",
      "note_on channel=0 note=60 velocity=127 time=0.00625\n",
      "note_on channel=0 note=62 velocity=127 time=0.00625\n",
      "note_off channel=0 note=60 velocity=127 time=0.013541666666666667\n",
      "note_off channel=0 note=62 velocity=127 time=0.00625\n",
      "note_on channel=0 note=61 velocity=127 time=0.015625\n",
      "note_off channel=0 note=61 velocity=127 time=0.019791666666666666\n",
      "note_on channel=0 note=62 velocity=127 time=0.013541666666666667\n",
      "note_off channel=0 note=62 velocity=127 time=0.019791666666666666\n",
      "note_on channel=0 note=61 velocity=127 time=0.015625\n",
      "note_off channel=0 note=61 velocity=127 time=0.019791666666666666\n",
      "note_on channel=0 note=62 velocity=127 time=0.013541666666666667\n",
      "note_on channel=0 note=60 velocity=127 time=0.0125\n",
      "note_off channel=0 note=62 velocity=127 time=0.007291666666666667\n",
      "note_off channel=0 note=60 velocity=127 time=0.0125\n",
      "note_on channel=0 note=61 velocity=127 time=0.003125\n",
      "note_off channel=0 note=61 velocity=127 time=0.019791666666666666\n",
      "note_on channel=0 note=62 velocity=127 time=0.013541666666666667\n",
      "note_off channel=0 note=62 velocity=127 time=0.019791666666666666\n",
      "note_on channel=0 note=61 velocity=127 time=0.015625\n",
      "note_off channel=0 note=61 velocity=127 time=0.019791666666666666\n",
      "note_on channel=0 note=62 velocity=127 time=0.013541666666666667\n",
      "note_off channel=0 note=62 velocity=127 time=0.019791666666666666\n",
      "note_on channel=0 note=60 velocity=127 time=0.0125\n",
      "note_on channel=0 note=61 velocity=127 time=0.003125\n",
      "note_off channel=0 note=60 velocity=127 time=0.016666666666666666\n",
      "note_off channel=0 note=61 velocity=127 time=0.003125\n",
      "note_on channel=0 note=62 velocity=127 time=0.013541666666666667\n",
      "note_off channel=0 note=62 velocity=127 time=0.019791666666666666\n",
      "note_on channel=0 note=61 velocity=127 time=0.015625\n",
      "note_off channel=0 note=61 velocity=127 time=0.019791666666666666\n",
      "note_on channel=0 note=62 velocity=127 time=0.013541666666666667\n",
      "note_off channel=0 note=62 velocity=127 time=0.019791666666666666\n",
      "note_on channel=0 note=61 velocity=127 time=0.015625\n",
      "note_on channel=0 note=60 velocity=127 time=0.016666666666666666\n",
      "note_off channel=0 note=61 velocity=127 time=0.003125\n",
      "note_on channel=0 note=62 velocity=127 time=0.013541666666666667\n",
      "note_off channel=0 note=60 velocity=127 time=0.003125\n",
      "note_off channel=0 note=62 velocity=127 time=0.016666666666666666\n",
      "note_on channel=0 note=61 velocity=127 time=0.014583333333333334\n",
      "note_off channel=0 note=61 velocity=127 time=0.019791666666666666\n",
      "note_on channel=0 note=62 velocity=127 time=0.014583333333333334\n",
      "note_off channel=0 note=62 velocity=127 time=0.019791666666666666\n",
      "note_on channel=0 note=61 velocity=127 time=0.014583333333333334\n",
      "note_off channel=0 note=61 velocity=127 time=0.019791666666666666\n",
      "note_on channel=0 note=62 velocity=127 time=0.014583333333333334\n",
      "note_on channel=0 note=60 velocity=127 time=0.0020833333333333333\n",
      "note_off channel=0 note=62 velocity=127 time=0.017708333333333333\n",
      "note_off channel=0 note=60 velocity=127 time=0.0020833333333333333\n",
      "note_on channel=0 note=61 velocity=127 time=0.0125\n",
      "note_off channel=0 note=61 velocity=127 time=0.019791666666666666\n",
      "note_on channel=0 note=62 velocity=127 time=0.014583333333333334\n",
      "note_off channel=0 note=62 velocity=127 time=0.019791666666666666\n",
      "note_on channel=0 note=61 velocity=127 time=0.014583333333333334\n",
      "note_off channel=0 note=61 velocity=127 time=0.019791666666666666\n",
      "note_on channel=0 note=62 velocity=127 time=0.014583333333333334\n",
      "note_off channel=0 note=62 velocity=127 time=0.019791666666666666\n",
      "note_on channel=0 note=60 velocity=127 time=0.0020833333333333333\n",
      "note_on channel=0 note=61 velocity=127 time=0.0125\n",
      "note_off channel=0 note=60 velocity=127 time=0.007291666666666667\n",
      "note_off channel=0 note=61 velocity=127 time=0.0125\n",
      "note_on channel=0 note=62 velocity=127 time=0.014583333333333334\n",
      "note_off channel=0 note=62 velocity=127 time=0.019791666666666666\n",
      "note_on channel=0 note=61 velocity=127 time=0.014583333333333334\n",
      "note_off channel=0 note=61 velocity=127 time=0.019791666666666666\n",
      "note_on channel=0 note=62 velocity=127 time=0.014583333333333334\n",
      "note_off channel=0 note=62 velocity=127 time=0.019791666666666666\n",
      "note_on channel=0 note=61 velocity=127 time=0.014583333333333334\n",
      "note_on channel=0 note=60 velocity=127 time=0.007291666666666667\n",
      "note_off channel=0 note=61 velocity=127 time=0.0125\n",
      "note_off channel=0 note=60 velocity=127 time=0.007291666666666667\n",
      "note_on channel=0 note=62 velocity=127 time=0.007291666666666667\n",
      "note_off channel=0 note=62 velocity=127 time=0.019791666666666666\n",
      "note_on channel=0 note=61 velocity=127 time=0.014583333333333334\n",
      "note_off channel=0 note=61 velocity=127 time=0.019791666666666666\n",
      "note_on channel=0 note=62 velocity=127 time=0.014583333333333334\n",
      "note_off channel=0 note=62 velocity=127 time=0.019791666666666666\n",
      "note_on channel=0 note=61 velocity=127 time=0.014583333333333334\n",
      "note_off channel=0 note=61 velocity=127 time=0.019791666666666666\n",
      "note_on channel=0 note=60 velocity=127 time=0.007291666666666667\n",
      "note_on channel=0 note=62 velocity=127 time=0.008333333333333333\n",
      "note_off channel=0 note=60 velocity=127 time=0.0125\n",
      "note_off channel=0 note=62 velocity=127 time=0.008333333333333333\n",
      "note_on channel=0 note=61 velocity=127 time=0.014583333333333334\n",
      "note_off channel=0 note=61 velocity=127 time=0.019791666666666666\n",
      "note_on channel=0 note=62 velocity=127 time=0.014583333333333334\n",
      "note_off channel=0 note=62 velocity=127 time=0.019791666666666666\n",
      "note_on channel=0 note=61 velocity=127 time=0.014583333333333334\n",
      "note_off channel=0 note=61 velocity=127 time=0.019791666666666666\n",
      "note_on channel=0 note=62 velocity=127 time=0.014583333333333334\n",
      "note_on channel=0 note=60 velocity=127 time=0.011458333333333333\n",
      "note_off channel=0 note=62 velocity=127 time=0.008333333333333333\n",
      "note_off channel=0 note=60 velocity=127 time=0.011458333333333333\n",
      "note_on channel=0 note=61 velocity=127 time=0.0020833333333333333\n",
      "note_off channel=0 note=61 velocity=127 time=0.019791666666666666\n",
      "note_on channel=0 note=62 velocity=127 time=0.014583333333333334\n",
      "note_off channel=0 note=62 velocity=127 time=0.019791666666666666\n",
      "note_on channel=0 note=61 velocity=127 time=0.014583333333333334\n",
      "note_off channel=0 note=61 velocity=127 time=0.019791666666666666\n",
      "note_on channel=0 note=62 velocity=127 time=0.014583333333333334\n",
      "note_off channel=0 note=62 velocity=127 time=0.019791666666666666\n",
      "\u001b[91m [DEBUG] > \u001b[0m\n",
      " |>  to_array: msg.time > max_t; t, n\n",
      " |>  1.9937500000000008\n",
      " |>  100\n",
      "note_on channel=0 note=61 velocity=127 time=0.07395833333333333\n",
      "note_on channel=0 note=62 velocity=127 time=0.016666666666666666\n",
      "note_off channel=0 note=61 velocity=127 time=0.003125\n",
      "note_off channel=0 note=62 velocity=127 time=0.016666666666666666\n",
      "note_on channel=0 note=60 velocity=127 time=0.013541666666666667\n",
      "note_off channel=0 note=60 velocity=127 time=0.019791666666666666\n",
      "note_on channel=0 note=62 velocity=127 time=0.052083333333333336\n",
      "note_off channel=0 note=62 velocity=127 time=0.019791666666666666\n",
      "note_on channel=0 note=61 velocity=127 time=0.019791666666666666\n",
      "note_off channel=0 note=61 velocity=127 time=0.019791666666666666\n",
      "note_on channel=0 note=60 velocity=127 time=0.02395833333333333\n",
      "note_off channel=0 note=60 velocity=127 time=0.019791666666666666\n",
      "note_on channel=0 note=62 velocity=127 time=0.0020833333333333333\n",
      "note_off channel=0 note=62 velocity=127 time=0.019791666666666666\n",
      "note_on channel=0 note=61 velocity=127 time=0.07604166666666666\n",
      "note_on channel=0 note=62 velocity=127 time=0.009375\n",
      "note_off channel=0 note=61 velocity=127 time=0.010416666666666666\n",
      "note_off channel=0 note=62 velocity=127 time=0.009375\n",
      "note_on channel=0 note=60 velocity=127 time=0.008333333333333333\n",
      "note_off channel=0 note=60 velocity=127 time=0.019791666666666666\n",
      "note_on channel=0 note=62 velocity=127 time=0.057291666666666664\n",
      "note_off channel=0 note=62 velocity=127 time=0.019791666666666666\n",
      "note_on channel=0 note=61 velocity=127 time=0.027083333333333334\n",
      "note_off channel=0 note=61 velocity=127 time=0.019791666666666666\n",
      "note_on channel=0 note=60 velocity=127 time=0.011458333333333333\n",
      "note_off channel=0 note=60 velocity=127 time=0.019791666666666666\n",
      "note_on channel=0 note=62 velocity=127 time=0.007291666666666667\n",
      "note_off channel=0 note=62 velocity=127 time=0.019791666666666666\n",
      "note_on channel=0 note=61 velocity=127 time=0.08333333333333333\n",
      "note_on channel=0 note=62 velocity=127 time=0.0020833333333333333\n",
      "note_off channel=0 note=61 velocity=127 time=0.017708333333333333\n",
      "note_off channel=0 note=62 velocity=127 time=0.0020833333333333333\n",
      "note_on channel=0 note=60 velocity=127 time=0.0020833333333333333\n",
      "note_off channel=0 note=60 velocity=127 time=0.019791666666666666\n",
      "note_on channel=0 note=62 velocity=127 time=0.0625\n",
      "note_off channel=0 note=62 velocity=127 time=0.019791666666666666\n",
      "note_on channel=0 note=61 velocity=127 time=0.034375\n",
      "note_on channel=0 note=60 velocity=127 time=0.017708333333333333\n",
      "note_off channel=0 note=61 velocity=127 time=0.0020833333333333333\n",
      "note_off channel=0 note=60 velocity=127 time=0.017708333333333333\n",
      "note_on channel=0 note=62 velocity=127 time=0.013541666666666667\n",
      "note_off channel=0 note=62 velocity=127 time=0.019791666666666666\n",
      "note_on channel=0 note=62 velocity=127 time=0.08541666666666667\n",
      "note_on channel=0 note=61 velocity=127 time=0.005208333333333333\n",
      "note_on channel=0 note=60 velocity=127 time=0.011458333333333333\n",
      "note_off channel=0 note=62 velocity=127 time=0.003125\n",
      "note_off channel=0 note=61 velocity=127 time=0.005208333333333333\n",
      "note_off channel=0 note=60 velocity=127 time=0.011458333333333333\n",
      "note_on channel=0 note=62 velocity=127 time=0.06875\n",
      "note_off channel=0 note=62 velocity=127 time=0.019791666666666666\n",
      "note_on channel=0 note=61 velocity=127 time=0.041666666666666664\n",
      "note_on channel=0 note=60 velocity=127 time=0.005208333333333333\n",
      "note_off channel=0 note=61 velocity=127 time=0.014583333333333334\n",
      "note_off channel=0 note=60 velocity=127 time=0.005208333333333333\n",
      "note_on channel=0 note=62 velocity=127 time=0.01875\n",
      "note_off channel=0 note=62 velocity=127 time=0.019791666666666666\n",
      "note_on channel=0 note=62 velocity=127 time=0.08541666666666667\n",
      "note_on channel=0 note=60 velocity=127 time=0.010416666666666666\n",
      "note_on channel=0 note=61 velocity=127 time=0.0010416666666666667\n",
      "note_off channel=0 note=62 velocity=127 time=0.007291666666666667\n",
      "note_off channel=0 note=60 velocity=127 time=0.010416666666666666\n",
      "note_off channel=0 note=61 velocity=127 time=0.0010416666666666667\n",
      "note_on channel=0 note=62 velocity=127 time=0.07291666666666667\n",
      "note_off channel=0 note=62 velocity=127 time=0.019791666666666666\n",
      "note_on channel=0 note=60 velocity=127 time=0.040625\n",
      "note_on channel=0 note=61 velocity=127 time=0.008333333333333333\n",
      "note_off channel=0 note=60 velocity=127 time=0.011458333333333333\n",
      "note_off channel=0 note=61 velocity=127 time=0.008333333333333333\n",
      "note_on channel=0 note=62 velocity=127 time=0.016666666666666666\n",
      "note_off channel=0 note=62 velocity=127 time=0.019791666666666666\n",
      "note_on channel=0 note=62 velocity=127 time=0.08541666666666667\n",
      "note_on channel=0 note=60 velocity=127 time=0.005208333333333333\n",
      "note_on channel=0 note=61 velocity=127 time=0.014583333333333334\n",
      "note_off channel=0 note=62 velocity=127 time=0\n",
      "note_off channel=0 note=60 velocity=127 time=0.005208333333333333\n",
      "note_off channel=0 note=61 velocity=127 time=0.014583333333333334\n",
      "note_on channel=0 note=62 velocity=127 time=0.065625\n",
      "note_off channel=0 note=62 velocity=127 time=0.019791666666666666\n",
      "note_on channel=0 note=60 velocity=127 time=0.035416666666666666\n",
      "note_off channel=0 note=60 velocity=127 time=0.019791666666666666\n",
      "note_on channel=0 note=61 velocity=127 time=0.0010416666666666667\n",
      "note_off channel=0 note=61 velocity=127 time=0.019791666666666666\n",
      "note_on channel=0 note=62 velocity=127 time=0.009375\n",
      "note_off channel=0 note=62 velocity=127 time=0.019791666666666666\n",
      "note_on channel=0 note=60 velocity=127 time=0.084375\n",
      "note_on channel=0 note=62 velocity=127 time=0\n",
      "note_off channel=0 note=60 velocity=127 time=0.019791666666666666\n",
      "\u001b[91m [DEBUG] > \u001b[0m\n",
      " |>  to_array: msg.time > max_t; t, n\n",
      " |>  1.9999999999999998\n",
      " |>  100\n",
      "note_on channel=0 note=60 velocity=127 time=0.052083333333333336\n",
      "note_on channel=0 note=61 velocity=127 time=0.008333333333333333\n",
      "note_off channel=0 note=60 velocity=127 time=0.011458333333333333\n",
      "note_off channel=0 note=61 velocity=127 time=0.008333333333333333\n",
      "note_on channel=0 note=61 velocity=127 time=0.084375\n",
      "note_off channel=0 note=61 velocity=127 time=0.019791666666666666\n",
      "note_on channel=0 note=62 velocity=127 time=0.011458333333333333\n",
      "note_off channel=0 note=62 velocity=127 time=0.019791666666666666\n",
      "note_on channel=0 note=60 velocity=127 time=0.0125\n",
      "note_off channel=0 note=60 velocity=127 time=0.019791666666666666\n",
      "note_on channel=0 note=61 velocity=127 time=0.019791666666666666\n",
      "note_off channel=0 note=61 velocity=127 time=0.019791666666666666\n",
      "note_on channel=0 note=61 velocity=127 time=0.084375\n",
      "note_off channel=0 note=61 velocity=127 time=0.019791666666666666\n",
      "note_on channel=0 note=60 velocity=127 time=0.0125\n",
      "note_on channel=0 note=62 velocity=127 time=0.0125\n",
      "note_off channel=0 note=60 velocity=127 time=0.007291666666666667\n",
      "note_off channel=0 note=62 velocity=127 time=0.0125\n",
      "note_on channel=0 note=61 velocity=127 time=0.03854166666666667\n",
      "note_off channel=0 note=61 velocity=127 time=0.019791666666666666\n",
      "note_on channel=0 note=61 velocity=127 time=0.084375\n",
      "note_on channel=0 note=60 velocity=127 time=0.0010416666666666667\n",
      "note_off channel=0 note=61 velocity=127 time=0.01875\n",
      "note_off channel=0 note=60 velocity=127 time=0.0010416666666666667\n",
      "note_on channel=0 note=62 velocity=127 time=0.0375\n",
      "note_off channel=0 note=62 velocity=127 time=0.019791666666666666\n",
      "note_on channel=0 note=61 velocity=127 time=0.02395833333333333\n",
      "note_off channel=0 note=61 velocity=127 time=0.019791666666666666\n",
      "note_on channel=0 note=60 velocity=127 time=0.05416666666666667\n",
      "note_off channel=0 note=60 velocity=127 time=0.019791666666666666\n",
      "note_on channel=0 note=61 velocity=127 time=0.009375\n",
      "note_off channel=0 note=61 velocity=127 time=0.019791666666666666\n",
      "note_on channel=0 note=62 velocity=127 time=0.053125\n",
      "note_off channel=0 note=62 velocity=127 time=0.019791666666666666\n",
      "note_on channel=0 note=61 velocity=127 time=0.010416666666666666\n",
      "note_off channel=0 note=61 velocity=127 time=0.019791666666666666\n",
      "note_on channel=0 note=60 velocity=127 time=0.022916666666666665\n",
      "note_off channel=0 note=60 velocity=127 time=0.019791666666666666\n",
      "note_on channel=0 note=61 velocity=127 time=0.041666666666666664\n",
      "note_off channel=0 note=61 velocity=127 time=0.019791666666666666\n",
      "note_on channel=0 note=62 velocity=127 time=0.06770833333333333\n",
      "note_on channel=0 note=61 velocity=127 time=0.016666666666666666\n",
      "note_off channel=0 note=62 velocity=127 time=0.003125\n",
      "note_on channel=0 note=60 velocity=127 time=0.007291666666666667\n",
      "note_off channel=0 note=61 velocity=127 time=0.008333333333333333\n",
      "note_off channel=0 note=60 velocity=127 time=0.011458333333333333\n",
      "note_on channel=0 note=61 velocity=127 time=0.07291666666666667\n",
      "note_off channel=0 note=61 velocity=127 time=0.019791666666666666\n",
      "note_on channel=0 note=60 velocity=127 time=0.06354166666666666\n",
      "note_on channel=0 note=62 velocity=127 time=0.017708333333333333\n",
      "note_off channel=0 note=60 velocity=127 time=0.0020833333333333333\n",
      "note_on channel=0 note=61 velocity=127 time=0\n",
      "note_off channel=0 note=62 velocity=127 time=0.017708333333333333\n",
      "note_off channel=0 note=61 velocity=127 time=0.0020833333333333333\n",
      "note_on channel=0 note=61 velocity=127 time=0.084375\n",
      "note_off channel=0 note=61 velocity=127 time=0.019791666666666666\n",
      "note_on channel=0 note=60 velocity=127 time=0.03229166666666666\n",
      "note_off channel=0 note=60 velocity=127 time=0.019791666666666666\n",
      "note_on channel=0 note=61 velocity=127 time=0.03125\n",
      "note_on channel=0 note=62 velocity=127 time=0.011458333333333333\n",
      "note_off channel=0 note=61 velocity=127 time=0.008333333333333333\n",
      "note_off channel=0 note=62 velocity=127 time=0.011458333333333333\n",
      "note_on channel=0 note=61 velocity=127 time=0.071875\n",
      "note_off channel=0 note=61 velocity=127 time=0.019791666666666666\n",
      "note_on channel=0 note=60 velocity=127 time=0.0010416666666666667\n",
      "note_off channel=0 note=60 velocity=127 time=0.019791666666666666\n",
      "note_on channel=0 note=61 velocity=127 time=0.0625\n",
      "note_off channel=0 note=61 velocity=127 time=0.019791666666666666\n",
      "note_on channel=0 note=62 velocity=127 time=0.005208333333333333\n",
      "note_off channel=0 note=62 velocity=127 time=0.019791666666666666\n",
      "note_on channel=0 note=60 velocity=127 time=0.04791666666666666\n",
      "note_on channel=0 note=61 velocity=127 time=0.010416666666666666\n",
      "note_off channel=0 note=60 velocity=127 time=0.009375\n",
      "note_off channel=0 note=61 velocity=127 time=0.010416666666666666\n",
      "note_on channel=0 note=61 velocity=127 time=0.084375\n",
      "note_off channel=0 note=61 velocity=127 time=0.019791666666666666\n",
      "note_on channel=0 note=62 velocity=127 time=0.019791666666666666\n",
      "note_off channel=0 note=62 velocity=127 time=0.019791666666666666\n",
      "note_on channel=0 note=60 velocity=127 time=0.003125\n",
      "note_off channel=0 note=60 velocity=127 time=0.019791666666666666\n",
      "\u001b[91m [DEBUG] > \u001b[0m\n",
      " |>  to_array: msg.time > max_t; t, n\n",
      " |>  2.0052083333333335\n",
      " |>  100\n",
      "note_on channel=0 note=61 velocity=127 time=0.03333333333333333\n",
      "note_on channel=0 note=62 velocity=127 time=0.016666666666666666\n",
      "note_off channel=0 note=61 velocity=127 time=0.004166666666666667\n",
      "note_off channel=0 note=62 velocity=127 time=0.016666666666666666\n",
      "note_on channel=0 note=60 velocity=127 time=0.003125\n",
      "note_off channel=0 note=60 velocity=127 time=0.019791666666666666\n",
      "note_on channel=0 note=61 velocity=127 time=0.010416666666666666\n",
      "note_off channel=0 note=61 velocity=127 time=0.019791666666666666\n",
      "note_on channel=0 note=60 velocity=127 time=0.021875\n",
      "note_on channel=0 note=62 velocity=127 time=0.014583333333333334\n",
      "note_off channel=0 note=60 velocity=127 time=0.005208333333333333\n",
      "note_on channel=0 note=61 velocity=127 time=0.008333333333333333\n",
      "note_off channel=0 note=62 velocity=127 time=0.007291666666666667\n",
      "note_off channel=0 note=61 velocity=127 time=0.0125\n",
      "note_on channel=0 note=60 velocity=127 time=0.025\n",
      "note_off channel=0 note=60 velocity=127 time=0.019791666666666666\n",
      "note_on channel=0 note=61 velocity=127 time=0.005208333333333333\n",
      "note_off channel=0 note=61 velocity=127 time=0.019791666666666666\n",
      "note_on channel=0 note=62 velocity=127 time=0.008333333333333333\n",
      "note_on channel=0 note=60 velocity=127 time=0.019791666666666666\n",
      "note_off channel=0 note=62 velocity=127 time=0\n",
      "note_off channel=0 note=60 velocity=127 time=0.019791666666666666\n",
      "note_on channel=0 note=61 velocity=127 time=0.0020833333333333333\n",
      "note_off channel=0 note=61 velocity=127 time=0.019791666666666666\n",
      "note_on channel=0 note=60 velocity=127 time=0.03125\n",
      "note_on channel=0 note=62 velocity=127 time=0.017708333333333333\n",
      "note_on channel=0 note=61 velocity=127 time=0.0010416666666666667\n",
      "note_off channel=0 note=60 velocity=127 time=0.0010416666666666667\n",
      "note_off channel=0 note=62 velocity=127 time=0.017708333333333333\n",
      "note_off channel=0 note=61 velocity=127 time=0.0010416666666666667\n",
      "note_on channel=0 note=60 velocity=127 time=0.034375\n",
      "note_on channel=0 note=61 velocity=127 time=0.016666666666666666\n",
      "note_off channel=0 note=60 velocity=127 time=0.004166666666666667\n",
      "note_off channel=0 note=61 velocity=127 time=0.016666666666666666\n",
      "note_on channel=0 note=62 velocity=127 time=0.019791666666666666\n",
      "note_on channel=0 note=60 velocity=127 time=0.016666666666666666\n",
      "note_off channel=0 note=62 velocity=127 time=0.003125\n",
      "note_on channel=0 note=61 velocity=127 time=0.010416666666666666\n",
      "note_off channel=0 note=60 velocity=127 time=0.00625\n",
      "note_off channel=0 note=61 velocity=127 time=0.013541666666666667\n",
      "note_on channel=0 note=60 velocity=127 time=0.03958333333333333\n",
      "note_on channel=0 note=61 velocity=127 time=0.010416666666666666\n",
      "note_off channel=0 note=60 velocity=127 time=0.009375\n",
      "note_on channel=0 note=62 velocity=127 time=0.0010416666666666667\n",
      "note_off channel=0 note=61 velocity=127 time=0.009375\n",
      "note_off channel=0 note=62 velocity=127 time=0.010416666666666666\n",
      "note_on channel=0 note=60 velocity=127 time=0.03125\n",
      "note_on channel=0 note=61 velocity=127 time=0.007291666666666667\n",
      "note_off channel=0 note=60 velocity=127 time=0.0125\n",
      "note_off channel=0 note=61 velocity=127 time=0.007291666666666667\n",
      "note_on channel=0 note=62 velocity=127 time=0.03229166666666666\n",
      "note_on channel=0 note=60 velocity=127 time=0.013541666666666667\n",
      "note_on channel=0 note=61 velocity=127 time=0.005208333333333333\n",
      "note_off channel=0 note=62 velocity=127 time=0.0020833333333333333\n",
      "note_off channel=0 note=60 velocity=127 time=0.013541666666666667\n",
      "note_off channel=0 note=61 velocity=127 time=0.005208333333333333\n",
      "note_on channel=0 note=60 velocity=127 time=0.04791666666666666\n",
      "note_on channel=0 note=61 velocity=127 time=0.0020833333333333333\n",
      "note_off channel=0 note=60 velocity=127 time=0.017708333333333333\n",
      "note_off channel=0 note=61 velocity=127 time=0.0020833333333333333\n",
      "note_on channel=0 note=62 velocity=127 time=0.003125\n",
      "note_off channel=0 note=62 velocity=127 time=0.019791666666666666\n",
      "note_on channel=0 note=61 velocity=127 time=0.027083333333333334\n",
      "note_on channel=0 note=60 velocity=127 time=0.0010416666666666667\n",
      "note_off channel=0 note=61 velocity=127 time=0.01875\n",
      "note_off channel=0 note=60 velocity=127 time=0.0010416666666666667\n",
      "note_on channel=0 note=62 velocity=127 time=0.042708333333333334\n",
      "note_on channel=0 note=61 velocity=127 time=0.00625\n",
      "note_on channel=0 note=60 velocity=127 time=0.004166666666666667\n",
      "note_off channel=0 note=62 velocity=127 time=0.009375\n",
      "note_off channel=0 note=61 velocity=127 time=0.00625\n",
      "note_off channel=0 note=60 velocity=127 time=0.004166666666666667\n",
      "note_on channel=0 note=61 velocity=127 time=0.04583333333333333\n",
      "note_on channel=0 note=60 velocity=127 time=0.007291666666666667\n",
      "note_off channel=0 note=61 velocity=127 time=0.013541666666666667\n",
      "note_off channel=0 note=60 velocity=127 time=0.007291666666666667\n",
      "note_on channel=0 note=62 velocity=127 time=0.007291666666666667\n",
      "note_off channel=0 note=62 velocity=127 time=0.019791666666666666\n",
      "note_on channel=0 note=61 velocity=127 time=0.015625\n",
      "note_on channel=0 note=60 velocity=127 time=0.009375\n",
      "note_off channel=0 note=61 velocity=127 time=0.010416666666666666\n",
      "note_off channel=0 note=60 velocity=127 time=0.009375\n",
      "note_on channel=0 note=61 velocity=127 time=0.040625\n",
      "note_on channel=0 note=62 velocity=127 time=0.005208333333333333\n",
      "note_on channel=0 note=60 velocity=127 time=0.007291666666666667\n",
      "note_off channel=0 note=61 velocity=127 time=0.007291666666666667\n",
      "note_off channel=0 note=62 velocity=127 time=0.005208333333333333\n",
      "note_off channel=0 note=60 velocity=127 time=0.007291666666666667\n",
      "note_on channel=0 note=61 velocity=127 time=0.0375\n",
      "note_on channel=0 note=60 velocity=127 time=0.015625\n",
      "note_off channel=0 note=61 velocity=127 time=0.004166666666666667\n",
      "note_off channel=0 note=60 velocity=127 time=0.015625\n",
      "note_on channel=0 note=62 velocity=127 time=0.011458333333333333\n",
      "note_off channel=0 note=62 velocity=127 time=0.019791666666666666\n",
      "note_on channel=0 note=61 velocity=127 time=0.004166666666666667\n",
      "note_on channel=0 note=60 velocity=127 time=0.01875\n",
      "note_off channel=0 note=61 velocity=127 time=0.0010416666666666667\n",
      "note_off channel=0 note=60 velocity=127 time=0.01875\n",
      "note_on channel=0 note=61 velocity=127 time=0.03229166666666666\n",
      "note_on channel=0 note=62 velocity=127 time=0.017708333333333333\n",
      "note_off channel=0 note=61 velocity=127 time=0.003125\n",
      "note_on channel=0 note=60 velocity=127 time=0.0010416666666666667\n",
      "note_off channel=0 note=62 velocity=127 time=0.015625\n",
      "note_off channel=0 note=60 velocity=127 time=0.004166666666666667\n",
      "note_on channel=0 note=61 velocity=127 time=0.029166666666666667\n",
      "note_off channel=0 note=61 velocity=127 time=0.019791666666666666\n",
      "note_on channel=0 note=60 velocity=127 time=0.004166666666666667\n",
      "note_off channel=0 note=60 velocity=127 time=0.019791666666666666\n",
      "note_on channel=0 note=62 velocity=127 time=0.014583333333333334\n",
      "note_on channel=0 note=61 velocity=127 time=0.011458333333333333\n",
      "note_off channel=0 note=62 velocity=127 time=0.008333333333333333\n",
      "note_off channel=0 note=61 velocity=127 time=0.011458333333333333\n",
      "note_on channel=0 note=60 velocity=127 time=0.007291666666666667\n",
      "note_off channel=0 note=60 velocity=127 time=0.019791666666666666\n",
      "note_on channel=0 note=61 velocity=127 time=0.022916666666666665\n",
      "note_off channel=0 note=61 velocity=127 time=0.019791666666666666\n",
      "note_on channel=0 note=62 velocity=127 time=0.009375\n",
      "note_on channel=0 note=60 velocity=127 time=0.0010416666666666667\n",
      "note_off channel=0 note=62 velocity=127 time=0.01875\n",
      "note_off channel=0 note=60 velocity=127 time=0.0010416666666666667\n",
      "note_on channel=0 note=61 velocity=127 time=0.019791666666666666\n",
      "note_off channel=0 note=61 velocity=127 time=0.019791666666666666\n",
      "note_on channel=0 note=60 velocity=127 time=0.0125\n",
      "note_off channel=0 note=60 velocity=127 time=0.019791666666666666\n",
      "note_on channel=0 note=61 velocity=127 time=0.017708333333333333\n",
      "note_on channel=0 note=62 velocity=127 time=0\n",
      "note_off channel=0 note=61 velocity=127 time=0.019791666666666666\n",
      "note_off channel=0 note=62 velocity=127 time=0\n",
      "note_on channel=0 note=60 velocity=127 time=0.015625\n",
      "note_off channel=0 note=60 velocity=127 time=0.019791666666666666\n",
      "note_on channel=0 note=61 velocity=127 time=0.014583333333333334\n",
      "note_off channel=0 note=61 velocity=127 time=0.019791666666666666\n",
      "note_on channel=0 note=60 velocity=127 time=0.01875\n",
      "note_on channel=0 note=62 velocity=127 time=0.0020833333333333333\n",
      "note_off channel=0 note=60 velocity=127 time=0.017708333333333333\n",
      "note_off channel=0 note=62 velocity=127 time=0.0020833333333333333\n",
      "note_on channel=0 note=61 velocity=127 time=0.009375\n",
      "note_off channel=0 note=61 velocity=127 time=0.019791666666666666\n",
      "note_on channel=0 note=60 velocity=127 time=0.021875\n",
      "note_off channel=0 note=60 velocity=127 time=0.019791666666666666\n",
      "note_on channel=0 note=61 velocity=127 time=0.008333333333333333\n",
      "note_on channel=0 note=62 velocity=127 time=0.011458333333333333\n",
      "note_off channel=0 note=61 velocity=127 time=0.008333333333333333\n",
      "note_off channel=0 note=62 velocity=127 time=0.011458333333333333\n",
      "note_on channel=0 note=60 velocity=127 time=0.0125\n",
      "note_off channel=0 note=60 velocity=127 time=0.019791666666666666\n",
      "note_on channel=0 note=61 velocity=127 time=0.005208333333333333\n",
      "\u001b[91m [DEBUG] > \u001b[0m\n",
      " |>  to_array: msg.time > max_t; t, n\n",
      " |>  1.9947916666666667\n",
      " |>  100\n",
      "note_on channel=0 note=60 velocity=127 time=0.071875\n",
      "note_off channel=0 note=60 velocity=127 time=0.019791666666666666\n",
      "note_on channel=0 note=62 velocity=127 time=0.0020833333333333333\n",
      "note_off channel=0 note=62 velocity=127 time=0.019791666666666666\n",
      "note_on channel=0 note=61 velocity=127 time=0.011458333333333333\n",
      "note_off channel=0 note=61 velocity=127 time=0.019791666666666666\n",
      "note_on channel=0 note=60 velocity=127 time=0.0020833333333333333\n",
      "note_off channel=0 note=60 velocity=127 time=0.019791666666666666\n",
      "note_on channel=0 note=62 velocity=127 time=0.030208333333333334\n",
      "note_off channel=0 note=62 velocity=127 time=0.019791666666666666\n",
      "note_on channel=0 note=60 velocity=127 time=0.005208333333333333\n",
      "note_off channel=0 note=60 velocity=127 time=0.019791666666666666\n",
      "note_on channel=0 note=60 velocity=127 time=0.05520833333333333\n",
      "note_on channel=0 note=62 velocity=127 time=0.004166666666666667\n",
      "note_off channel=0 note=60 velocity=127 time=0.015625\n",
      "note_off channel=0 note=62 velocity=127 time=0.004166666666666667\n",
      "note_on channel=0 note=61 velocity=127 time=0.022916666666666665\n",
      "note_off channel=0 note=61 velocity=127 time=0.019791666666666666\n",
      "note_on channel=0 note=60 velocity=127 time=0.008333333333333333\n",
      "note_off channel=0 note=60 velocity=127 time=0.019791666666666666\n",
      "note_on channel=0 note=62 velocity=127 time=0.0125\n",
      "note_off channel=0 note=62 velocity=127 time=0.019791666666666666\n",
      "note_on channel=0 note=60 velocity=127 time=0.022916666666666665\n",
      "note_off channel=0 note=60 velocity=127 time=0.019791666666666666\n",
      "note_on channel=0 note=62 velocity=127 time=0.041666666666666664\n",
      "note_on channel=0 note=60 velocity=127 time=0.013541666666666667\n",
      "note_off channel=0 note=62 velocity=127 time=0.00625\n",
      "note_off channel=0 note=60 velocity=127 time=0.013541666666666667\n",
      "note_on channel=0 note=61 velocity=127 time=0.019791666666666666\n",
      "note_off channel=0 note=61 velocity=127 time=0.019791666666666666\n",
      "note_on channel=0 note=60 velocity=127 time=0.015625\n",
      "note_on channel=0 note=62 velocity=127 time=0.014583333333333334\n",
      "note_off channel=0 note=60 velocity=127 time=0.005208333333333333\n",
      "note_off channel=0 note=62 velocity=127 time=0.014583333333333334\n",
      "note_on channel=0 note=60 velocity=127 time=0.040625\n",
      "note_off channel=0 note=60 velocity=127 time=0.019791666666666666\n",
      "note_on channel=0 note=62 velocity=127 time=0.022916666666666665\n",
      "note_off channel=0 note=62 velocity=127 time=0.019791666666666666\n",
      "note_on channel=0 note=60 velocity=127 time=0.011458333333333333\n",
      "note_off channel=0 note=60 velocity=127 time=0.019791666666666666\n",
      "note_on channel=0 note=61 velocity=127 time=0.0125\n",
      "note_off channel=0 note=61 velocity=127 time=0.019791666666666666\n",
      "note_on channel=0 note=62 velocity=127 time=0.01875\n",
      "note_on channel=0 note=60 velocity=127 time=0.003125\n",
      "note_off channel=0 note=62 velocity=127 time=0.016666666666666666\n",
      "note_off channel=0 note=60 velocity=127 time=0.003125\n",
      "note_on channel=0 note=60 velocity=127 time=0.05520833333333333\n",
      "note_off channel=0 note=60 velocity=127 time=0.019791666666666666\n",
      "note_on channel=0 note=62 velocity=127 time=0.005208333333333333\n",
      "note_off channel=0 note=62 velocity=127 time=0.019791666666666666\n",
      "note_on channel=0 note=60 velocity=127 time=0.030208333333333334\n",
      "note_off channel=0 note=60 velocity=127 time=0.019791666666666666\n",
      "note_on channel=0 note=61 velocity=127 time=0.00625\n",
      "note_off channel=0 note=61 velocity=127 time=0.019791666666666666\n",
      "note_on channel=0 note=62 velocity=127 time=0.008333333333333333\n",
      "note_off channel=0 note=62 velocity=127 time=0.019791666666666666\n",
      "note_on channel=0 note=60 velocity=127 time=0.0010416666666666667\n",
      "note_off channel=0 note=60 velocity=127 time=0.019791666666666666\n",
      "note_on channel=0 note=60 velocity=127 time=0.05520833333333333\n",
      "note_on channel=0 note=62 velocity=127 time=0.007291666666666667\n",
      "note_off channel=0 note=60 velocity=127 time=0.0125\n",
      "note_off channel=0 note=62 velocity=127 time=0.007291666666666667\n"
     ]
    },
    {
     "name": "stdout",
     "output_type": "stream",
     "text": [
      "note_on channel=0 note=60 velocity=127 time=0.04791666666666666\n",
      "note_on channel=0 note=61 velocity=127 time=0.01875\n",
      "note_off channel=0 note=60 velocity=127 time=0.0010416666666666667\n",
      "note_on channel=0 note=62 velocity=127 time=0.016666666666666666\n",
      "note_off channel=0 note=61 velocity=127 time=0.003125\n",
      "note_off channel=0 note=62 velocity=127 time=0.016666666666666666\n",
      "note_on channel=0 note=60 velocity=127 time=0.01875\n",
      "note_off channel=0 note=60 velocity=127 time=0.019791666666666666\n",
      "note_on channel=0 note=62 velocity=127 time=0.04479166666666667\n",
      "note_on channel=0 note=60 velocity=127 time=0.010416666666666666\n",
      "note_off channel=0 note=62 velocity=127 time=0.009375\n",
      "note_off channel=0 note=60 velocity=127 time=0.010416666666666666\n",
      "note_on channel=0 note=60 velocity=127 time=0.05520833333333333\n",
      "note_on channel=0 note=61 velocity=127 time=0.0125\n",
      "note_on channel=0 note=62 velocity=127 time=0.00625\n",
      "note_off channel=0 note=60 velocity=127 time=0.0020833333333333333\n",
      "note_off channel=0 note=61 velocity=127 time=0.0125\n",
      "note_off channel=0 note=62 velocity=127 time=0.00625\n",
      "note_on channel=0 note=60 velocity=127 time=0.036458333333333336\n",
      "note_off channel=0 note=60 velocity=127 time=0.019791666666666666\n",
      "note_on channel=0 note=62 velocity=127 time=0.027083333333333334\n",
      "note_off channel=0 note=62 velocity=127 time=0.019791666666666666\n",
      "note_on channel=0 note=60 velocity=127 time=0.008333333333333333\n",
      "note_off channel=0 note=60 velocity=127 time=0.019791666666666666\n",
      "note_on channel=0 note=60 velocity=127 time=0.05520833333333333\n",
      "note_on channel=0 note=62 velocity=127 time=0\n",
      "note_on channel=0 note=61 velocity=127 time=0.005208333333333333\n",
      "note_off channel=0 note=60 velocity=127 time=0.014583333333333334\n",
      "note_off channel=0 note=62 velocity=127 time=0\n",
      "note_off channel=0 note=61 velocity=127 time=0.005208333333333333\n",
      "note_on channel=0 note=60 velocity=127 time=0.05\n",
      "note_off channel=0 note=60 velocity=127 time=0.019791666666666666\n",
      "note_on channel=0 note=62 velocity=127 time=0.009375\n",
      "note_off channel=0 note=62 velocity=127 time=0.019791666666666666\n",
      "note_on channel=0 note=60 velocity=127 time=0.026041666666666668\n",
      "note_off channel=0 note=60 velocity=127 time=0.019791666666666666\n",
      "note_on channel=0 note=62 velocity=127 time=0.0375\n",
      "note_on channel=0 note=61 velocity=127 time=0.015625\n",
      "note_on channel=0 note=60 velocity=127 time=0.0020833333333333333\n",
      "note_off channel=0 note=62 velocity=127 time=0.0020833333333333333\n",
      "note_off channel=0 note=61 velocity=127 time=0.015625\n",
      "note_off channel=0 note=60 velocity=127 time=0.0020833333333333333\n",
      "note_on channel=0 note=60 velocity=127 time=0.05520833333333333\n",
      "note_on channel=0 note=62 velocity=127 time=0.011458333333333333\n",
      "note_off channel=0 note=60 velocity=127 time=0.008333333333333333\n",
      "note_off channel=0 note=62 velocity=127 time=0.011458333333333333\n",
      "note_on channel=0 note=60 velocity=127 time=0.04375\n",
      "\u001b[91m [DEBUG] > \u001b[0m\n",
      " |>  to_array: msg.time > max_t; t, n\n",
      " |>  2.020833333333333\n",
      " |>  100\n",
      "note_on channel=0 note=62 velocity=127 time=0.015625\n",
      "note_on channel=0 note=61 velocity=127 time=0.0125\n",
      "note_off channel=0 note=62 velocity=127 time=0.007291666666666667\n",
      "note_on channel=0 note=60 velocity=127 time=0.008333333333333333\n",
      "note_off channel=0 note=61 velocity=127 time=0.005208333333333333\n",
      "note_off channel=0 note=60 velocity=127 time=0.014583333333333334\n",
      "note_on channel=0 note=61 velocity=127 time=0.08229166666666667\n",
      "note_off channel=0 note=61 velocity=127 time=0.019791666666666666\n",
      "note_on channel=0 note=60 velocity=127 time=0.003125\n",
      "note_on channel=0 note=62 velocity=127 time=0.017708333333333333\n",
      "note_off channel=0 note=60 velocity=127 time=0.0020833333333333333\n",
      "note_off channel=0 note=62 velocity=127 time=0.017708333333333333\n",
      "note_on channel=0 note=61 velocity=127 time=0.057291666666666664\n",
      "note_off channel=0 note=61 velocity=127 time=0.019791666666666666\n",
      "note_on channel=0 note=60 velocity=127 time=0.010416666666666666\n",
      "note_off channel=0 note=60 velocity=127 time=0.019791666666666666\n",
      "note_on channel=0 note=62 velocity=127 time=0.042708333333333334\n",
      "note_off channel=0 note=62 velocity=127 time=0.019791666666666666\n",
      "note_on channel=0 note=61 velocity=127 time=0.004166666666666667\n",
      "note_off channel=0 note=61 velocity=127 time=0.019791666666666666\n",
      "note_on channel=0 note=60 velocity=127 time=0.017708333333333333\n",
      "note_off channel=0 note=60 velocity=127 time=0.019791666666666666\n",
      "note_on channel=0 note=61 velocity=127 time=0.059375\n",
      "note_off channel=0 note=61 velocity=127 time=0.019791666666666666\n",
      "note_on channel=0 note=62 velocity=127 time=0.008333333333333333\n",
      "note_on channel=0 note=60 velocity=127 time=0.016666666666666666\n",
      "note_off channel=0 note=62 velocity=127 time=0.003125\n",
      "note_off channel=0 note=60 velocity=127 time=0.016666666666666666\n",
      "note_on channel=0 note=61 velocity=127 time=0.052083333333333336\n",
      "note_off channel=0 note=61 velocity=127 time=0.019791666666666666\n",
      "note_on channel=0 note=60 velocity=127 time=0.03333333333333333\n",
      "note_off channel=0 note=60 velocity=127 time=0.019791666666666666\n",
      "note_on channel=0 note=62 velocity=127 time=0.008333333333333333\n",
      "note_off channel=0 note=62 velocity=127 time=0.019791666666666666\n",
      "note_on channel=0 note=61 velocity=127 time=0.015625\n",
      "note_off channel=0 note=61 velocity=127 time=0.019791666666666666\n",
      "note_on channel=0 note=60 velocity=127 time=0.040625\n",
      "note_off channel=0 note=60 velocity=127 time=0.019791666666666666\n",
      "note_on channel=0 note=61 velocity=127 time=0.036458333333333336\n",
      "note_on channel=0 note=62 velocity=127 time=0.016666666666666666\n",
      "note_off channel=0 note=61 velocity=127 time=0.003125\n",
      "note_off channel=0 note=62 velocity=127 time=0.016666666666666666\n",
      "note_on channel=0 note=60 velocity=127 time=0.03125\n",
      "note_off channel=0 note=60 velocity=127 time=0.019791666666666666\n",
      "note_on channel=0 note=61 velocity=127 time=0.029166666666666667\n",
      "note_off channel=0 note=61 velocity=127 time=0.019791666666666666\n",
      "note_on channel=0 note=62 velocity=127 time=0.05\n",
      "note_on channel=0 note=60 velocity=127 time=0.00625\n",
      "note_off channel=0 note=62 velocity=127 time=0.013541666666666667\n",
      "note_off channel=0 note=60 velocity=127 time=0.00625\n",
      "note_on channel=0 note=61 velocity=127 time=0.020833333333333332\n",
      "note_off channel=0 note=61 velocity=127 time=0.019791666666666666\n",
      "note_on channel=0 note=60 velocity=127 time=0.06354166666666666\n",
      "note_off channel=0 note=60 velocity=127 time=0.019791666666666666\n",
      "note_on channel=0 note=61 velocity=127 time=0.013541666666666667\n",
      "note_on channel=0 note=62 velocity=127 time=0.005208333333333333\n",
      "note_off channel=0 note=61 velocity=127 time=0.014583333333333334\n",
      "note_off channel=0 note=62 velocity=127 time=0.005208333333333333\n",
      "note_on channel=0 note=60 velocity=127 time=0.065625\n",
      "note_off channel=0 note=60 velocity=127 time=0.019791666666666666\n",
      "note_on channel=0 note=61 velocity=127 time=0.00625\n",
      "note_off channel=0 note=61 velocity=127 time=0.019791666666666666\n",
      "note_on channel=0 note=62 velocity=127 time=0.03854166666666667\n",
      "note_off channel=0 note=62 velocity=127 time=0.019791666666666666\n",
      "note_on channel=0 note=60 velocity=127 time=0.020833333333333332\n",
      "note_on channel=0 note=61 velocity=127 time=0.017708333333333333\n",
      "note_off channel=0 note=60 velocity=127 time=0.0020833333333333333\n",
      "note_off channel=0 note=61 velocity=127 time=0.017708333333333333\n",
      "note_on channel=0 note=60 velocity=127 time=0.08645833333333333\n",
      "note_on channel=0 note=62 velocity=127 time=0.004166666666666667\n",
      "note_on channel=0 note=61 velocity=127 time=0.00625\n",
      "note_off channel=0 note=60 velocity=127 time=0.009375\n",
      "note_off channel=0 note=62 velocity=127 time=0.004166666666666667\n",
      "note_off channel=0 note=61 velocity=127 time=0.00625\n",
      "note_on channel=0 note=60 velocity=127 time=0.09479166666666666\n",
      "note_on channel=0 note=61 velocity=127 time=0.003125\n",
      "note_off channel=0 note=60 velocity=127 time=0.016666666666666666\n",
      "note_off channel=0 note=61 velocity=127 time=0.003125\n",
      "note_on channel=0 note=62 velocity=127 time=0.027083333333333334\n",
      "note_off channel=0 note=62 velocity=127 time=0.019791666666666666\n",
      "note_on channel=0 note=61 velocity=127 time=0.05\n",
      "note_on channel=0 note=60 velocity=127 time=0.005208333333333333\n",
      "note_off channel=0 note=61 velocity=127 time=0.015625\n",
      "note_off channel=0 note=60 velocity=127 time=0.005208333333333333\n",
      "note_on channel=0 note=62 velocity=127 time=0.075\n",
      "note_on channel=0 note=61 velocity=127 time=0.017708333333333333\n",
      "note_off channel=0 note=62 velocity=127 time=0.0020833333333333333\n",
      "note_on channel=0 note=60 velocity=127 time=0.010416666666666666\n",
      "note_off channel=0 note=61 velocity=127 time=0.007291666666666667\n",
      "note_off channel=0 note=60 velocity=127 time=0.0125\n",
      "note_on channel=0 note=61 velocity=127 time=0.08541666666666667\n",
      "\u001b[91m [DEBUG] > \u001b[0m\n",
      " |>  to_array: msg.time > max_t; t, n\n",
      " |>  2.0177083333333337\n",
      " |>  100\n",
      "note_on channel=0 note=60 velocity=127 time=0.0375\n",
      "note_off channel=0 note=60 velocity=127 time=0.019791666666666666\n",
      "note_on channel=0 note=61 velocity=127 time=0.026041666666666668\n",
      "note_on channel=0 note=62 velocity=127 time=0.019791666666666666\n",
      "note_off channel=0 note=61 velocity=127 time=0.0010416666666666667\n",
      "note_off channel=0 note=62 velocity=127 time=0.019791666666666666\n",
      "note_on channel=0 note=60 velocity=127 time=0.010416666666666666\n",
      "note_off channel=0 note=60 velocity=127 time=0.019791666666666666\n",
      "note_on channel=0 note=60 velocity=127 time=0.07604166666666666\n",
      "note_off channel=0 note=60 velocity=127 time=0.019791666666666666\n",
      "note_on channel=0 note=61 velocity=127 time=0.0020833333333333333\n",
      "note_on channel=0 note=62 velocity=127 time=0.013541666666666667\n",
      "note_off channel=0 note=61 velocity=127 time=0.00625\n",
      "note_off channel=0 note=62 velocity=127 time=0.013541666666666667\n",
      "note_on channel=0 note=60 velocity=127 time=0.040625\n",
      "note_off channel=0 note=60 velocity=127 time=0.019791666666666666\n",
      "note_on channel=0 note=61 velocity=127 time=0.07291666666666667\n",
      "note_on channel=0 note=60 velocity=127 time=0.0020833333333333333\n",
      "note_on channel=0 note=62 velocity=127 time=0.005208333333333333\n",
      "note_off channel=0 note=61 velocity=127 time=0.0125\n",
      "note_off channel=0 note=60 velocity=127 time=0.0020833333333333333\n",
      "note_off channel=0 note=62 velocity=127 time=0.005208333333333333\n",
      "note_on channel=0 note=60 velocity=127 time=0.07083333333333333\n",
      "note_off channel=0 note=60 velocity=127 time=0.019791666666666666\n",
      "note_on channel=0 note=61 velocity=127 time=0.04895833333333333\n",
      "note_on channel=0 note=62 velocity=127 time=0.0010416666666666667\n",
      "note_off channel=0 note=61 velocity=127 time=0.01875\n",
      "note_off channel=0 note=62 velocity=127 time=0.0010416666666666667\n",
      "note_on channel=0 note=60 velocity=127 time=0.005208333333333333\n",
      "note_off channel=0 note=60 velocity=127 time=0.019791666666666666\n",
      "note_on channel=0 note=60 velocity=127 time=0.07604166666666666\n",
      "note_off channel=0 note=60 velocity=127 time=0.019791666666666666\n",
      "note_on channel=0 note=62 velocity=127 time=0.019791666666666666\n",
      "note_on channel=0 note=61 velocity=127 time=0.005208333333333333\n",
      "note_off channel=0 note=62 velocity=127 time=0.015625\n",
      "note_off channel=0 note=61 velocity=127 time=0.005208333333333333\n",
      "note_on channel=0 note=60 velocity=127 time=0.03125\n",
      "note_off channel=0 note=60 velocity=127 time=0.019791666666666666\n",
      "note_on channel=0 note=60 velocity=127 time=0.07604166666666666\n",
      "note_on channel=0 note=62 velocity=127 time=0.010416666666666666\n",
      "note_off channel=0 note=60 velocity=127 time=0.010416666666666666\n",
      "note_on channel=0 note=61 velocity=127 time=0.0010416666666666667\n",
      "note_off channel=0 note=62 velocity=127 time=0.009375\n",
      "note_off channel=0 note=61 velocity=127 time=0.010416666666666666\n",
      "note_on channel=0 note=60 velocity=127 time=0.05520833333333333\n",
      "note_off channel=0 note=60 velocity=127 time=0.019791666666666666\n",
      "note_on channel=0 note=62 velocity=127 time=0.05520833333333333\n",
      "note_on channel=0 note=61 velocity=127 time=0.016666666666666666\n",
      "note_off channel=0 note=62 velocity=127 time=0.003125\n",
      "note_on channel=0 note=60 velocity=127 time=0\n",
      "note_off channel=0 note=61 velocity=127 time=0.016666666666666666\n",
      "note_off channel=0 note=60 velocity=127 time=0.003125\n",
      "note_on channel=0 note=60 velocity=127 time=0.07604166666666666\n",
      "note_off channel=0 note=60 velocity=127 time=0.019791666666666666\n",
      "note_on channel=0 note=62 velocity=127 time=0.025\n",
      "note_off channel=0 note=62 velocity=127 time=0.019791666666666666\n",
      "note_on channel=0 note=61 velocity=127 time=0.003125\n",
      "note_off channel=0 note=61 velocity=127 time=0.019791666666666666\n",
      "note_on channel=0 note=60 velocity=127 time=0.007291666666666667\n",
      "note_off channel=0 note=60 velocity=127 time=0.019791666666666666\n",
      "note_on channel=0 note=60 velocity=127 time=0.07604166666666666\n",
      "note_on channel=0 note=62 velocity=127 time=0.014583333333333334\n",
      "note_off channel=0 note=60 velocity=127 time=0.005208333333333333\n",
      "note_off channel=0 note=62 velocity=127 time=0.014583333333333334\n",
      "note_on channel=0 note=61 velocity=127 time=0.008333333333333333\n",
      "note_off channel=0 note=61 velocity=127 time=0.019791666666666666\n",
      "note_on channel=0 note=60 velocity=127 time=0.03229166666666666\n",
      "note_off channel=0 note=60 velocity=127 time=0.019791666666666666\n",
      "note_on channel=0 note=62 velocity=127 time=0.06041666666666667\n",
      "note_on channel=0 note=60 velocity=127 time=0.015625\n",
      "note_off channel=0 note=62 velocity=127 time=0.004166666666666667\n",
      "note_on channel=0 note=61 velocity=127 time=0.014583333333333334\n",
      "note_off channel=0 note=60 velocity=127 time=0.0010416666666666667\n",
      "note_off channel=0 note=61 velocity=127 time=0.019791666666666666\n",
      "note_on channel=0 note=60 velocity=127 time=0.05625\n",
      "note_off channel=0 note=60 velocity=127 time=0.019791666666666666\n",
      "note_on channel=0 note=62 velocity=127 time=0.030208333333333334\n",
      "note_off channel=0 note=62 velocity=127 time=0.019791666666666666\n",
      "note_on channel=0 note=61 velocity=127 time=0.020833333333333332\n",
      "note_on channel=0 note=60 velocity=127 time=0.005208333333333333\n",
      "note_off channel=0 note=61 velocity=127 time=0.015625\n",
      "note_off channel=0 note=60 velocity=127 time=0.005208333333333333\n",
      "note_on channel=0 note=60 velocity=127 time=0.07604166666666666\n",
      "note_on channel=0 note=62 velocity=127 time=0.019791666666666666\n",
      "note_off channel=0 note=60 velocity=127 time=0\n",
      "note_off channel=0 note=62 velocity=127 time=0.019791666666666666\n",
      "note_on channel=0 note=61 velocity=127 time=0.027083333333333334\n",
      "note_off channel=0 note=61 velocity=127 time=0.019791666666666666\n",
      "note_on channel=0 note=60 velocity=127 time=0.009375\n",
      "note_off channel=0 note=60 velocity=127 time=0.019791666666666666\n",
      "note_on channel=0 note=62 velocity=127 time=0.065625\n",
      "\u001b[91m [DEBUG] > \u001b[0m\n",
      " |>  to_array: msg.time > max_t; t, n\n",
      " |>  2.038541666666666\n",
      " |>  100\n",
      "note_on channel=0 note=60 velocity=127 time=0.04791666666666666\n",
      "note_off channel=0 note=60 velocity=127 time=0.019791666666666666\n",
      "note_on channel=0 note=61 velocity=127 time=0.004166666666666667\n",
      "note_off channel=0 note=61 velocity=127 time=0.019791666666666666\n",
      "note_on channel=0 note=61 velocity=127 time=0.07395833333333333\n",
      "note_off channel=0 note=61 velocity=127 time=0.019791666666666666\n",
      "note_on channel=0 note=62 velocity=127 time=0.007291666666666667\n",
      "note_off channel=0 note=62 velocity=127 time=0.019791666666666666\n",
      "note_on channel=0 note=60 velocity=127 time=0.0010416666666666667\n",
      "note_off channel=0 note=60 velocity=127 time=0.019791666666666666\n",
      "note_on channel=0 note=61 velocity=127 time=0.025\n",
      "note_off channel=0 note=61 velocity=127 time=0.019791666666666666\n",
      "note_on channel=0 note=61 velocity=127 time=0.07395833333333333\n",
      "note_off channel=0 note=61 velocity=127 time=0.019791666666666666\n",
      "note_on channel=0 note=60 velocity=127 time=0.008333333333333333\n",
      "note_on channel=0 note=62 velocity=127 time=0.01875\n",
      "note_off channel=0 note=60 velocity=127 time=0.0010416666666666667\n",
      "note_off channel=0 note=62 velocity=127 time=0.01875\n",
      "note_on channel=0 note=61 velocity=127 time=0.027083333333333334\n",
      "note_off channel=0 note=61 velocity=127 time=0.019791666666666666\n",
      "note_on channel=0 note=61 velocity=127 time=0.07395833333333333\n",
      "note_on channel=0 note=60 velocity=127 time=0.007291666666666667\n",
      "note_off channel=0 note=61 velocity=127 time=0.0125\n",
      "note_off channel=0 note=60 velocity=127 time=0.007291666666666667\n",
      "note_on channel=0 note=62 velocity=127 time=0.03854166666666667\n",
      "note_off channel=0 note=62 velocity=127 time=0.019791666666666666\n",
      "note_on channel=0 note=61 velocity=127 time=0.008333333333333333\n",
      "note_off channel=0 note=61 velocity=127 time=0.019791666666666666\n",
      "note_on channel=0 note=60 velocity=127 time=0.06041666666666667\n",
      "note_on channel=0 note=61 velocity=127 time=0.013541666666666667\n",
      "note_off channel=0 note=60 velocity=127 time=0.00625\n",
      "note_off channel=0 note=61 velocity=127 time=0.013541666666666667\n",
      "note_on channel=0 note=62 velocity=127 time=0.065625\n",
      "note_on channel=0 note=61 velocity=127 time=0.009375\n",
      "note_off channel=0 note=62 velocity=127 time=0.011458333333333333\n",
      "note_off channel=0 note=61 velocity=127 time=0.009375\n",
      "note_on channel=0 note=60 velocity=127 time=0.03958333333333333\n",
      "note_off channel=0 note=60 velocity=127 time=0.019791666666666666\n",
      "note_on channel=0 note=61 velocity=127 time=0.014583333333333334\n",
      "note_off channel=0 note=61 velocity=127 time=0.019791666666666666\n",
      "note_on channel=0 note=61 velocity=127 time=0.07395833333333333\n",
      "note_on channel=0 note=62 velocity=127 time=0.010416666666666666\n",
      "note_off channel=0 note=61 velocity=127 time=0.009375\n",
      "note_off channel=0 note=62 velocity=127 time=0.010416666666666666\n",
      "note_on channel=0 note=60 velocity=127 time=0.008333333333333333\n",
      "note_off channel=0 note=60 velocity=127 time=0.019791666666666666\n",
      "note_on channel=0 note=61 velocity=127 time=0.035416666666666666\n",
      "note_off channel=0 note=61 velocity=127 time=0.019791666666666666\n",
      "note_on channel=0 note=61 velocity=127 time=0.07395833333333333\n",
      "note_on channel=0 note=60 velocity=127 time=0.01875\n",
      "note_off channel=0 note=61 velocity=127 time=0.0020833333333333333\n",
      "note_on channel=0 note=62 velocity=127 time=0.009375\n",
      "note_off channel=0 note=60 velocity=127 time=0.008333333333333333\n",
      "note_off channel=0 note=62 velocity=127 time=0.011458333333333333\n",
      "note_on channel=0 note=61 velocity=127 time=0.04479166666666667\n",
      "note_off channel=0 note=61 velocity=127 time=0.019791666666666666\n",
      "note_on channel=0 note=60 velocity=127 time=0.071875\n",
      "note_on channel=0 note=61 velocity=127 time=0.0020833333333333333\n",
      "note_off channel=0 note=60 velocity=127 time=0.017708333333333333\n",
      "note_off channel=0 note=61 velocity=127 time=0.0020833333333333333\n",
      "note_on channel=0 note=62 velocity=127 time=0.029166666666666667\n",
      "note_off channel=0 note=62 velocity=127 time=0.019791666666666666\n",
      "note_on channel=0 note=61 velocity=127 time=0.025\n",
      "note_off channel=0 note=61 velocity=127 time=0.019791666666666666\n",
      "note_on channel=0 note=60 velocity=127 time=0.051041666666666666\n",
      "note_off channel=0 note=60 velocity=127 time=0.019791666666666666\n",
      "note_on channel=0 note=61 velocity=127 time=0.003125\n",
      "note_off channel=0 note=61 velocity=127 time=0.019791666666666666\n",
      "note_on channel=0 note=62 velocity=127 time=0.04791666666666666\n",
      "note_off channel=0 note=62 velocity=127 time=0.019791666666666666\n",
      "note_on channel=0 note=61 velocity=127 time=0.00625\n",
      "note_off channel=0 note=61 velocity=127 time=0.019791666666666666\n",
      "note_on channel=0 note=60 velocity=127 time=0.030208333333333334\n",
      "note_off channel=0 note=60 velocity=127 time=0.019791666666666666\n",
      "note_on channel=0 note=61 velocity=127 time=0.02395833333333333\n",
      "note_off channel=0 note=61 velocity=127 time=0.019791666666666666\n",
      "note_on channel=0 note=62 velocity=127 time=0.06770833333333333\n",
      "note_on channel=0 note=61 velocity=127 time=0.007291666666666667\n",
      "note_off channel=0 note=62 velocity=127 time=0.013541666666666667\n",
      "note_off channel=0 note=61 velocity=127 time=0.007291666666666667\n",
      "note_on channel=0 note=60 velocity=127 time=0.009375\n",
      "note_off channel=0 note=60 velocity=127 time=0.019791666666666666\n",
      "note_on channel=0 note=61 velocity=127 time=0.04479166666666667\n",
      "note_off channel=0 note=61 velocity=127 time=0.019791666666666666\n",
      "note_on channel=0 note=61 velocity=127 time=0.07395833333333333\n",
      "\u001b[91m [DEBUG] > \u001b[0m\n",
      " |>  to_array: msg.time > max_t; t, n\n",
      " |>  2.044791666666666\n",
      " |>  100\n",
      "note_on channel=0 note=62 velocity=127 time=0.042708333333333334\n",
      "note_on channel=0 note=61 velocity=127 time=0.016666666666666666\n",
      "note_on channel=0 note=60 velocity=127 time=0.0020833333333333333\n",
      "note_off channel=0 note=62 velocity=127 time=0.0010416666666666667\n",
      "note_off channel=0 note=61 velocity=127 time=0.016666666666666666\n",
      "note_off channel=0 note=60 velocity=127 time=0.0020833333333333333\n",
      "note_on channel=0 note=61 velocity=127 time=0.05\n",
      "note_off channel=0 note=61 velocity=127 time=0.019791666666666666\n",
      "note_on channel=0 note=62 velocity=127 time=0.015625\n",
      "note_off channel=0 note=62 velocity=127 time=0.019791666666666666\n",
      "note_on channel=0 note=61 velocity=127 time=0.017708333333333333\n",
      "note_off channel=0 note=61 velocity=127 time=0.019791666666666666\n",
      "note_on channel=0 note=60 velocity=127 time=0.010416666666666666\n",
      "note_off channel=0 note=60 velocity=127 time=0.019791666666666666\n",
      "note_on channel=0 note=61 velocity=127 time=0.022916666666666665\n",
      "note_on channel=0 note=62 velocity=127 time=0.015625\n",
      "note_off channel=0 note=61 velocity=127 time=0.004166666666666667\n",
      "note_off channel=0 note=62 velocity=127 time=0.015625\n",
      "note_on channel=0 note=61 velocity=127 time=0.0375\n",
      "note_off channel=0 note=61 velocity=127 time=0.019791666666666666\n",
      "note_on channel=0 note=60 velocity=127 time=0.0375\n",
      "note_on channel=0 note=62 velocity=127 time=0.010416666666666666\n",
      "note_on channel=0 note=61 velocity=127 time=0.005208333333333333\n",
      "note_off channel=0 note=60 velocity=127 time=0.005208333333333333\n",
      "note_off channel=0 note=62 velocity=127 time=0.010416666666666666\n",
      "note_off channel=0 note=61 velocity=127 time=0.005208333333333333\n",
      "note_on channel=0 note=61 velocity=127 time=0.053125\n",
      "note_off channel=0 note=61 velocity=127 time=0.019791666666666666\n",
      "note_on channel=0 note=62 velocity=127 time=0.028125\n",
      "note_off channel=0 note=62 velocity=127 time=0.019791666666666666\n",
      "note_on channel=0 note=61 velocity=127 time=0.005208333333333333\n",
      "note_on channel=0 note=60 velocity=127 time=0.0125\n",
      "note_off channel=0 note=61 velocity=127 time=0.007291666666666667\n",
      "note_off channel=0 note=60 velocity=127 time=0.0125\n",
      "note_on channel=0 note=61 velocity=127 time=0.03958333333333333\n",
      "note_off channel=0 note=61 velocity=127 time=0.019791666666666666\n",
      "note_on channel=0 note=62 velocity=127 time=0.007291666666666667\n",
      "note_off channel=0 note=62 velocity=127 time=0.019791666666666666\n",
      "note_on channel=0 note=61 velocity=127 time=0.025\n",
      "note_off channel=0 note=61 velocity=127 time=0.019791666666666666\n",
      "note_on channel=0 note=60 velocity=127 time=0.020833333333333332\n",
      "note_off channel=0 note=60 velocity=127 time=0.019791666666666666\n",
      "note_on channel=0 note=61 velocity=127 time=0.0125\n",
      "note_on channel=0 note=62 velocity=127 time=0.007291666666666667\n",
      "note_off channel=0 note=61 velocity=127 time=0.0125\n",
      "note_off channel=0 note=62 velocity=127 time=0.007291666666666667\n",
      "note_on channel=0 note=61 velocity=127 time=0.04479166666666667\n",
      "note_off channel=0 note=61 velocity=127 time=0.019791666666666666\n",
      "note_on channel=0 note=62 velocity=127 time=0.040625\n",
      "note_on channel=0 note=60 velocity=127 time=0.008333333333333333\n",
      "note_on channel=0 note=61 velocity=127 time=0.004166666666666667\n",
      "note_off channel=0 note=62 velocity=127 time=0.007291666666666667\n",
      "note_off channel=0 note=60 velocity=127 time=0.008333333333333333\n",
      "note_off channel=0 note=61 velocity=127 time=0.004166666666666667\n",
      "note_on channel=0 note=61 velocity=127 time=0.053125\n",
      "note_off channel=0 note=61 velocity=127 time=0.019791666666666666\n",
      "note_on channel=0 note=62 velocity=127 time=0.019791666666666666\n",
      "note_off channel=0 note=62 velocity=127 time=0.019791666666666666\n",
      "note_on channel=0 note=61 velocity=127 time=0.0125\n",
      "note_off channel=0 note=61 velocity=127 time=0.019791666666666666\n",
      "note_on channel=0 note=60 velocity=127 time=0.003125\n",
      "note_off channel=0 note=60 velocity=127 time=0.019791666666666666\n",
      "note_on channel=0 note=61 velocity=127 time=0.029166666666666667\n",
      "note_on channel=0 note=62 velocity=127 time=0.019791666666666666\n",
      "note_off channel=0 note=61 velocity=127 time=0\n",
      "note_off channel=0 note=62 velocity=127 time=0.019791666666666666\n",
      "note_on channel=0 note=61 velocity=127 time=0.03333333333333333\n",
      "note_off channel=0 note=61 velocity=127 time=0.019791666666666666\n",
      "note_on channel=0 note=60 velocity=127 time=0.03125\n",
      "note_off channel=0 note=60 velocity=127 time=0.019791666666666666\n",
      "note_on channel=0 note=62 velocity=127 time=0.0010416666666666667\n",
      "note_on channel=0 note=61 velocity=127 time=0\n",
      "note_off channel=0 note=62 velocity=127 time=0.019791666666666666\n",
      "note_off channel=0 note=61 velocity=127 time=0\n",
      "note_on channel=0 note=61 velocity=127 time=0.053125\n",
      "note_off channel=0 note=61 velocity=127 time=0.019791666666666666\n",
      "note_on channel=0 note=62 velocity=127 time=0.03229166666666666\n",
      "note_off channel=0 note=62 velocity=127 time=0.019791666666666666\n",
      "note_on channel=0 note=61 velocity=127 time=0\n",
      "note_on channel=0 note=60 velocity=127 time=0.00625\n",
      "note_off channel=0 note=61 velocity=127 time=0.013541666666666667\n",
      "note_off channel=0 note=60 velocity=127 time=0.00625\n",
      "note_on channel=0 note=61 velocity=127 time=0.046875\n",
      "note_off channel=0 note=61 velocity=127 time=0.019791666666666666\n",
      "note_on channel=0 note=62 velocity=127 time=0.0125\n",
      "note_off channel=0 note=62 velocity=127 time=0.019791666666666666\n",
      "note_on channel=0 note=61 velocity=127 time=0.020833333333333332\n",
      "note_off channel=0 note=61 velocity=127 time=0.019791666666666666\n",
      "note_on channel=0 note=60 velocity=127 time=0.013541666666666667\n",
      "note_off channel=0 note=60 velocity=127 time=0.019791666666666666\n",
      "note_on channel=0 note=61 velocity=127 time=0.01875\n",
      "note_on channel=0 note=62 velocity=127 time=0.0125\n",
      "note_off channel=0 note=61 velocity=127 time=0.008333333333333333\n",
      "note_off channel=0 note=62 velocity=127 time=0.0125\n",
      "note_on channel=0 note=61 velocity=127 time=0.040625\n",
      "note_off channel=0 note=61 velocity=127 time=0.019791666666666666\n",
      "note_on channel=0 note=60 velocity=127 time=0.041666666666666664\n",
      "note_on channel=0 note=62 velocity=127 time=0.003125\n",
      "note_on channel=0 note=61 velocity=127 time=0.008333333333333333\n",
      "note_off channel=0 note=60 velocity=127 time=0.008333333333333333\n",
      "note_off channel=0 note=62 velocity=127 time=0.003125\n",
      "note_off channel=0 note=61 velocity=127 time=0.008333333333333333\n",
      "note_on channel=0 note=61 velocity=127 time=0.053125\n",
      "note_off channel=0 note=61 velocity=127 time=0.019791666666666666\n",
      "note_on channel=0 note=62 velocity=127 time=0.025\n",
      "note_off channel=0 note=62 velocity=127 time=0.019791666666666666\n",
      "note_on channel=0 note=61 velocity=127 time=0.008333333333333333\n",
      "note_on channel=0 note=60 velocity=127 time=0.016666666666666666\n",
      "note_off channel=0 note=61 velocity=127 time=0.003125\n",
      "note_off channel=0 note=60 velocity=127 time=0.016666666666666666\n",
      "note_on channel=0 note=61 velocity=127 time=0.036458333333333336\n",
      "\u001b[91m [DEBUG] > \u001b[0m\n",
      " |>  to_array: msg.time > max_t; t, n\n",
      " |>  2.0208333333333326\n",
      " |>  100\n",
      "note_on channel=0 note=60 velocity=127 time=0.051041666666666666\n",
      "note_on channel=0 note=61 velocity=127 time=0.013541666666666667\n",
      "note_off channel=0 note=60 velocity=127 time=0.00625\n",
      "note_off channel=0 note=61 velocity=127 time=0.013541666666666667\n",
      "note_on channel=0 note=60 velocity=127 time=0.03333333333333333\n",
      "note_off channel=0 note=60 velocity=127 time=0.019791666666666666\n",
      "note_on channel=0 note=62 velocity=127 time=0.005208333333333333\n",
      "note_on channel=0 note=61 velocity=127 time=0.010416666666666666\n",
      "note_off channel=0 note=62 velocity=127 time=0.009375\n",
      "note_off channel=0 note=61 velocity=127 time=0.010416666666666666\n",
      "note_on channel=0 note=60 velocity=127 time=0.011458333333333333\n",
      "note_off channel=0 note=60 velocity=127 time=0.019791666666666666\n",
      "note_on channel=0 note=61 velocity=127 time=0.0375\n",
      "note_on channel=0 note=60 velocity=127 time=0.009375\n",
      "note_off channel=0 note=61 velocity=127 time=0.011458333333333333\n",
      "note_off channel=0 note=60 velocity=127 time=0.009375\n",
      "note_on channel=0 note=60 velocity=127 time=0.046875\n",
      "note_on channel=0 note=61 velocity=127 time=0.0125\n",
      "note_off channel=0 note=60 velocity=127 time=0.007291666666666667\n",
      "note_off channel=0 note=61 velocity=127 time=0.0125\n",
      "note_on channel=0 note=62 velocity=127 time=0.016666666666666666\n",
      "note_on channel=0 note=60 velocity=127 time=0.017708333333333333\n",
      "note_off channel=0 note=62 velocity=127 time=0.0020833333333333333\n",
      "note_off channel=0 note=60 velocity=127 time=0.017708333333333333\n",
      "note_on channel=0 note=61 velocity=127 time=0.014583333333333334\n",
      "note_off channel=0 note=61 velocity=127 time=0.019791666666666666\n",
      "note_on channel=0 note=60 velocity=127 time=0.011458333333333333\n",
      "note_off channel=0 note=60 velocity=127 time=0.019791666666666666\n",
      "note_on channel=0 note=61 velocity=127 time=0.036458333333333336\n",
      "note_on channel=0 note=60 velocity=127 time=0.009375\n",
      "note_off channel=0 note=61 velocity=127 time=0.010416666666666666\n",
      "note_off channel=0 note=60 velocity=127 time=0.009375\n",
      "note_on channel=0 note=60 velocity=127 time=0.046875\n",
      "note_on channel=0 note=62 velocity=127 time=0.00625\n",
      "note_on channel=0 note=61 velocity=127 time=0.005208333333333333\n",
      "note_off channel=0 note=60 velocity=127 time=0.008333333333333333\n"
     ]
    },
    {
     "name": "stdout",
     "output_type": "stream",
     "text": [
      "note_off channel=0 note=62 velocity=127 time=0.00625\n",
      "note_off channel=0 note=61 velocity=127 time=0.005208333333333333\n",
      "note_on channel=0 note=60 velocity=127 time=0.034375\n",
      "note_off channel=0 note=60 velocity=127 time=0.019791666666666666\n",
      "note_on channel=0 note=61 velocity=127 time=0.013541666666666667\n",
      "note_off channel=0 note=61 velocity=127 time=0.019791666666666666\n",
      "note_on channel=0 note=60 velocity=127 time=0.0125\n",
      "note_off channel=0 note=60 velocity=127 time=0.019791666666666666\n",
      "note_on channel=0 note=61 velocity=127 time=0.036458333333333336\n",
      "note_on channel=0 note=60 velocity=127 time=0.010416666666666666\n",
      "note_off channel=0 note=61 velocity=127 time=0.009375\n",
      "note_off channel=0 note=60 velocity=127 time=0.010416666666666666\n",
      "note_on channel=0 note=62 velocity=127 time=0.010416666666666666\n",
      "note_off channel=0 note=62 velocity=127 time=0.019791666666666666\n",
      "note_on channel=0 note=60 velocity=127 time=0.015625\n",
      "note_on channel=0 note=61 velocity=127 time=0.011458333333333333\n",
      "note_off channel=0 note=60 velocity=127 time=0.008333333333333333\n",
      "note_off channel=0 note=61 velocity=127 time=0.011458333333333333\n",
      "note_on channel=0 note=60 velocity=127 time=0.035416666666666666\n",
      "note_off channel=0 note=60 velocity=127 time=0.019791666666666666\n",
      "note_on channel=0 note=61 velocity=127 time=0.013541666666666667\n",
      "note_off channel=0 note=61 velocity=127 time=0.019791666666666666\n",
      "note_on channel=0 note=60 velocity=127 time=0.013541666666666667\n",
      "note_off channel=0 note=60 velocity=127 time=0.019791666666666666\n",
      "note_on channel=0 note=62 velocity=127 time=0.034375\n",
      "note_on channel=0 note=61 velocity=127 time=0\n",
      "note_on channel=0 note=60 velocity=127 time=0.011458333333333333\n",
      "note_off channel=0 note=62 velocity=127 time=0.008333333333333333\n",
      "note_off channel=0 note=61 velocity=127 time=0\n",
      "note_off channel=0 note=60 velocity=127 time=0.011458333333333333\n",
      "note_on channel=0 note=60 velocity=127 time=0.046875\n",
      "note_on channel=0 note=61 velocity=127 time=0.010416666666666666\n",
      "note_off channel=0 note=60 velocity=127 time=0.009375\n",
      "note_off channel=0 note=61 velocity=127 time=0.010416666666666666\n",
      "note_on channel=0 note=60 velocity=127 time=0.036458333333333336\n",
      "note_off channel=0 note=60 velocity=127 time=0.019791666666666666\n",
      "note_on channel=0 note=61 velocity=127 time=0.0125\n",
      "note_off channel=0 note=61 velocity=127 time=0.019791666666666666\n",
      "note_on channel=0 note=60 velocity=127 time=0.014583333333333334\n",
      "note_on channel=0 note=62 velocity=127 time=0.0125\n",
      "note_off channel=0 note=60 velocity=127 time=0.007291666666666667\n",
      "note_off channel=0 note=62 velocity=127 time=0.0125\n",
      "note_on channel=0 note=61 velocity=127 time=0.021875\n",
      "note_on channel=0 note=60 velocity=127 time=0.0125\n",
      "note_off channel=0 note=61 velocity=127 time=0.007291666666666667\n",
      "note_off channel=0 note=60 velocity=127 time=0.0125\n",
      "note_on channel=0 note=60 velocity=127 time=0.046875\n",
      "note_on channel=0 note=61 velocity=127 time=0.009375\n",
      "note_off channel=0 note=60 velocity=127 time=0.010416666666666666\n",
      "note_off channel=0 note=61 velocity=127 time=0.009375\n",
      "note_on channel=0 note=60 velocity=127 time=0.0375\n",
      "note_off channel=0 note=60 velocity=127 time=0.019791666666666666\n",
      "note_on channel=0 note=61 velocity=127 time=0.011458333333333333\n",
      "note_on channel=0 note=62 velocity=127 time=0.005208333333333333\n",
      "note_off channel=0 note=61 velocity=127 time=0.015625\n",
      "note_off channel=0 note=62 velocity=127 time=0.005208333333333333\n",
      "note_on channel=0 note=60 velocity=127 time=0.010416666666666666\n",
      "note_off channel=0 note=60 velocity=127 time=0.019791666666666666\n",
      "note_on channel=0 note=61 velocity=127 time=0.03333333333333333\n",
      "note_on channel=0 note=60 velocity=127 time=0.013541666666666667\n",
      "note_off channel=0 note=61 velocity=127 time=0.007291666666666667\n",
      "note_off channel=0 note=60 velocity=127 time=0.013541666666666667\n",
      "note_on channel=0 note=60 velocity=127 time=0.046875\n",
      "note_on channel=0 note=61 velocity=127 time=0.008333333333333333\n",
      "note_off channel=0 note=60 velocity=127 time=0.011458333333333333\n",
      "note_off channel=0 note=61 velocity=127 time=0.008333333333333333\n",
      "note_on channel=0 note=62 velocity=127 time=0.03125\n",
      "note_on channel=0 note=60 velocity=127 time=0.00625\n",
      "note_off channel=0 note=62 velocity=127 time=0.013541666666666667\n",
      "note_off channel=0 note=60 velocity=127 time=0.00625\n",
      "note_on channel=0 note=61 velocity=127 time=0.010416666666666666\n",
      "note_off channel=0 note=61 velocity=127 time=0.019791666666666666\n",
      "note_on channel=0 note=60 velocity=127 time=0.015625\n",
      "note_off channel=0 note=60 velocity=127 time=0.019791666666666666\n",
      "note_on channel=0 note=61 velocity=127 time=0.03229166666666666\n",
      "note_on channel=0 note=60 velocity=127 time=0.013541666666666667\n",
      "note_off channel=0 note=61 velocity=127 time=0.00625\n",
      "note_off channel=0 note=60 velocity=127 time=0.013541666666666667\n",
      "note_on channel=0 note=60 velocity=127 time=0.046875\n",
      "note_on channel=0 note=61 velocity=127 time=0.008333333333333333\n",
      "note_on channel=0 note=62 velocity=127 time=0.010416666666666666\n",
      "note_off channel=0 note=60 velocity=127 time=0.0020833333333333333\n",
      "note_off channel=0 note=61 velocity=127 time=0.008333333333333333\n",
      "note_off channel=0 note=62 velocity=127 time=0.010416666666666666\n",
      "note_on channel=0 note=60 velocity=127 time=0.029166666666666667\n",
      "note_off channel=0 note=60 velocity=127 time=0.019791666666666666\n",
      "\u001b[91m [DEBUG] > \u001b[0m\n",
      " |>  to_array: msg.time > max_t; t, n\n",
      " |>  1.9999999999999996\n",
      " |>  100\n",
      "note_on channel=0 note=61 velocity=127 time=0.017708333333333333\n",
      "note_off channel=0 note=61 velocity=127 time=0.019791666666666666\n",
      "note_on channel=0 note=61 velocity=127 time=0.05\n",
      "note_on channel=0 note=60 velocity=127 time=0.019791666666666666\n",
      "note_off channel=0 note=61 velocity=127 time=0\n",
      "note_off channel=0 note=60 velocity=127 time=0.019791666666666666\n",
      "note_on channel=0 note=62 velocity=127 time=0.009375\n",
      "note_off channel=0 note=62 velocity=127 time=0.019791666666666666\n",
      "note_on channel=0 note=61 velocity=127 time=0.0010416666666666667\n",
      "note_off channel=0 note=61 velocity=127 time=0.019791666666666666\n",
      "note_on channel=0 note=60 velocity=127 time=0.041666666666666664\n",
      "note_on channel=0 note=61 velocity=127 time=0.007291666666666667\n",
      "note_off channel=0 note=60 velocity=127 time=0.0125\n",
      "note_off channel=0 note=61 velocity=127 time=0.007291666666666667\n",
      "note_on channel=0 note=61 velocity=127 time=0.05\n",
      "note_on channel=0 note=62 velocity=127 time=0.0125\n",
      "note_off channel=0 note=61 velocity=127 time=0.007291666666666667\n",
      "note_off channel=0 note=62 velocity=127 time=0.0125\n",
      "note_on channel=0 note=60 velocity=127 time=0.0020833333333333333\n",
      "note_off channel=0 note=60 velocity=127 time=0.019791666666666666\n",
      "note_on channel=0 note=61 velocity=127 time=0.014583333333333334\n",
      "note_off channel=0 note=61 velocity=127 time=0.019791666666666666\n",
      "note_on channel=0 note=61 velocity=127 time=0.05\n",
      "note_on channel=0 note=60 velocity=127 time=0.007291666666666667\n",
      "note_off channel=0 note=61 velocity=127 time=0.0125\n",
      "note_off channel=0 note=60 velocity=127 time=0.007291666666666667\n",
      "note_on channel=0 note=62 velocity=127 time=0.01875\n",
      "note_off channel=0 note=62 velocity=127 time=0.019791666666666666\n",
      "note_on channel=0 note=61 velocity=127 time=0.004166666666666667\n",
      "note_off channel=0 note=61 velocity=127 time=0.019791666666666666\n",
      "note_on channel=0 note=60 velocity=127 time=0.030208333333333334\n",
      "note_on channel=0 note=61 velocity=127 time=0.019791666666666666\n",
      "note_off channel=0 note=60 velocity=127 time=0\n",
      "note_off channel=0 note=61 velocity=127 time=0.019791666666666666\n",
      "note_on channel=0 note=61 velocity=127 time=0.05\n",
      "note_on channel=0 note=62 velocity=127 time=0.009375\n",
      "note_off channel=0 note=61 velocity=127 time=0.010416666666666666\n",
      "note_on channel=0 note=60 velocity=127 time=0.0020833333333333333\n",
      "note_off channel=0 note=62 velocity=127 time=0.007291666666666667\n",
      "note_off channel=0 note=60 velocity=127 time=0.013541666666666667\n",
      "note_on channel=0 note=61 velocity=127 time=0.027083333333333334\n",
      "note_off channel=0 note=61 velocity=127 time=0.019791666666666666\n",
      "note_on channel=0 note=60 velocity=127 time=0.04479166666666667\n",
      "note_on channel=0 note=61 velocity=127 time=0.005208333333333333\n",
      "note_off channel=0 note=60 velocity=127 time=0.015625\n",
      "note_off channel=0 note=61 velocity=127 time=0.005208333333333333\n",
      "note_on channel=0 note=62 velocity=127 time=0.022916666666666665\n",
      "note_off channel=0 note=62 velocity=127 time=0.019791666666666666\n",
      "note_on channel=0 note=61 velocity=127 time=0.007291666666666667\n",
      "note_off channel=0 note=61 velocity=127 time=0.019791666666666666\n",
      "note_on channel=0 note=60 velocity=127 time=0.017708333333333333\n",
      "note_off channel=0 note=60 velocity=127 time=0.019791666666666666\n",
      "note_on channel=0 note=61 velocity=127 time=0.011458333333333333\n",
      "note_off channel=0 note=61 velocity=127 time=0.019791666666666666\n",
      "note_on channel=0 note=61 velocity=127 time=0.05\n",
      "note_on channel=0 note=62 velocity=127 time=0.00625\n",
      "note_on channel=0 note=60 velocity=127 time=0.004166666666666667\n",
      "note_off channel=0 note=61 velocity=127 time=0.009375\n",
      "note_off channel=0 note=62 velocity=127 time=0.00625\n",
      "note_off channel=0 note=60 velocity=127 time=0.004166666666666667\n",
      "note_on channel=0 note=61 velocity=127 time=0.03958333333333333\n",
      "note_off channel=0 note=61 velocity=127 time=0.019791666666666666\n",
      "note_on channel=0 note=60 velocity=127 time=0.03229166666666666\n",
      "note_on channel=0 note=61 velocity=127 time=0.016666666666666666\n",
      "note_off channel=0 note=60 velocity=127 time=0.003125\n",
      "note_off channel=0 note=61 velocity=127 time=0.016666666666666666\n",
      "note_on channel=0 note=62 velocity=127 time=0.019791666666666666\n",
      "note_off channel=0 note=62 velocity=127 time=0.019791666666666666\n",
      "note_on channel=0 note=61 velocity=127 time=0.010416666666666666\n",
      "note_off channel=0 note=61 velocity=127 time=0.019791666666666666\n",
      "note_on channel=0 note=60 velocity=127 time=0.005208333333333333\n",
      "note_off channel=0 note=60 velocity=127 time=0.019791666666666666\n",
      "note_on channel=0 note=61 velocity=127 time=0.02395833333333333\n",
      "note_off channel=0 note=61 velocity=127 time=0.019791666666666666\n",
      "note_on channel=0 note=60 velocity=127 time=0.04791666666666666\n",
      "note_on channel=0 note=61 velocity=127 time=0.0020833333333333333\n",
      "note_on channel=0 note=62 velocity=127 time=0.003125\n",
      "note_off channel=0 note=60 velocity=127 time=0.014583333333333334\n",
      "note_off channel=0 note=61 velocity=127 time=0.0020833333333333333\n",
      "note_off channel=0 note=62 velocity=127 time=0.003125\n",
      "note_on channel=0 note=61 velocity=127 time=0.046875\n",
      "note_off channel=0 note=61 velocity=127 time=0.019791666666666666\n",
      "note_on channel=0 note=60 velocity=127 time=0.020833333333333332\n",
      "note_off channel=0 note=60 velocity=127 time=0.019791666666666666\n",
      "note_on channel=0 note=61 velocity=127 time=0.009375\n",
      "note_off channel=0 note=61 velocity=127 time=0.019791666666666666\n",
      "note_on channel=0 note=62 velocity=127 time=0.016666666666666666\n",
      "note_off channel=0 note=62 velocity=127 time=0.019791666666666666\n",
      "note_on channel=0 note=61 velocity=127 time=0.013541666666666667\n",
      "note_on channel=0 note=60 velocity=127 time=0.013541666666666667\n",
      "note_off channel=0 note=61 velocity=127 time=0.00625\n",
      "note_off channel=0 note=60 velocity=127 time=0.013541666666666667\n",
      "note_on channel=0 note=61 velocity=127 time=0.036458333333333336\n",
      "note_off channel=0 note=61 velocity=127 time=0.019791666666666666\n",
      "note_on channel=0 note=60 velocity=127 time=0.035416666666666666\n",
      "note_on channel=0 note=61 velocity=127 time=0.013541666666666667\n",
      "note_on channel=0 note=62 velocity=127 time=0\n",
      "note_off channel=0 note=60 velocity=127 time=0.00625\n",
      "note_off channel=0 note=61 velocity=127 time=0.013541666666666667\n",
      "note_off channel=0 note=62 velocity=127 time=0\n",
      "note_on channel=0 note=61 velocity=127 time=0.05\n",
      "note_off channel=0 note=61 velocity=127 time=0.019791666666666666\n",
      "note_on channel=0 note=60 velocity=127 time=0.008333333333333333\n",
      "note_off channel=0 note=60 velocity=127 time=0.019791666666666666\n",
      "note_on channel=0 note=61 velocity=127 time=0.020833333333333332\n",
      "note_off channel=0 note=61 velocity=127 time=0.019791666666666666\n",
      "note_on channel=0 note=62 velocity=127 time=0.013541666666666667\n",
      "note_off channel=0 note=62 velocity=127 time=0.019791666666666666\n",
      "note_on channel=0 note=61 velocity=127 time=0.016666666666666666\n",
      "note_on channel=0 note=60 velocity=127 time=0.0010416666666666667\n",
      "note_off channel=0 note=61 velocity=127 time=0.01875\n",
      "note_off channel=0 note=60 velocity=127 time=0.0010416666666666667\n",
      "note_on channel=0 note=61 velocity=127 time=0.04895833333333333\n",
      "note_off channel=0 note=61 velocity=127 time=0.019791666666666666\n",
      "note_on channel=0 note=60 velocity=127 time=0.02395833333333333\n",
      "\u001b[91m [DEBUG] > \u001b[0m\n",
      " |>  to_array: msg.time > max_t; t, n\n",
      " |>  2.009374999999999\n",
      " |>  100\n",
      "note_on channel=0 note=60 velocity=127 time=0.03125\n",
      "note_on channel=0 note=62 velocity=127 time=0.0020833333333333333\n",
      "note_off channel=0 note=60 velocity=127 time=0.017708333333333333\n",
      "note_off channel=0 note=62 velocity=127 time=0.0020833333333333333\n",
      "note_on channel=0 note=61 velocity=127 time=0.004166666666666667\n",
      "note_off channel=0 note=61 velocity=127 time=0.019791666666666666\n",
      "note_on channel=0 note=62 velocity=127 time=0.021875\n",
      "note_on channel=0 note=60 velocity=127 time=0.011458333333333333\n",
      "note_off channel=0 note=62 velocity=127 time=0.009375\n",
      "note_off channel=0 note=60 velocity=127 time=0.011458333333333333\n",
      "note_on channel=0 note=62 velocity=127 time=0.035416666666666666\n",
      "note_off channel=0 note=62 velocity=127 time=0.019791666666666666\n",
      "note_on channel=0 note=60 velocity=127 time=0.004166666666666667\n",
      "note_off channel=0 note=60 velocity=127 time=0.019791666666666666\n",
      "note_on channel=0 note=62 velocity=127 time=0.021875\n",
      "note_off channel=0 note=62 velocity=127 time=0.019791666666666666\n",
      "note_on channel=0 note=61 velocity=127 time=0.010416666666666666\n",
      "note_on channel=0 note=60 velocity=127 time=0.007291666666666667\n",
      "note_off channel=0 note=61 velocity=127 time=0.0125\n",
      "note_off channel=0 note=60 velocity=127 time=0.007291666666666667\n",
      "note_on channel=0 note=62 velocity=127 time=0.009375\n",
      "note_off channel=0 note=62 velocity=127 time=0.019791666666666666\n",
      "note_on channel=0 note=60 velocity=127 time=0.03125\n",
      "note_on channel=0 note=62 velocity=127 time=0.015625\n",
      "note_off channel=0 note=60 velocity=127 time=0.004166666666666667\n",
      "note_off channel=0 note=62 velocity=127 time=0.015625\n",
      "note_on channel=0 note=60 velocity=127 time=0.04479166666666667\n",
      "note_on channel=0 note=62 velocity=127 time=0.0020833333333333333\n",
      "note_off channel=0 note=60 velocity=127 time=0.017708333333333333\n",
      "note_off channel=0 note=62 velocity=127 time=0.0020833333333333333\n",
      "note_on channel=0 note=61 velocity=127 time=0.016666666666666666\n",
      "note_off channel=0 note=61 velocity=127 time=0.019791666666666666\n",
      "note_on channel=0 note=62 velocity=127 time=0.009375\n",
      "note_on channel=0 note=60 velocity=127 time=0.011458333333333333\n",
      "note_off channel=0 note=62 velocity=127 time=0.008333333333333333\n",
      "note_off channel=0 note=60 velocity=127 time=0.011458333333333333\n",
      "note_on channel=0 note=62 velocity=127 time=0.035416666666666666\n",
      "note_off channel=0 note=62 velocity=127 time=0.019791666666666666\n",
      "note_on channel=0 note=60 velocity=127 time=0.005208333333333333\n",
      "note_off channel=0 note=60 velocity=127 time=0.019791666666666666\n",
      "note_on channel=0 note=62 velocity=127 time=0.021875\n",
      "note_off channel=0 note=62 velocity=127 time=0.019791666666666666\n",
      "note_on channel=0 note=60 velocity=127 time=0.01875\n",
      "note_on channel=0 note=61 velocity=127 time=0.004166666666666667\n",
      "note_off channel=0 note=60 velocity=127 time=0.015625\n",
      "note_off channel=0 note=61 velocity=127 time=0.004166666666666667\n",
      "note_on channel=0 note=62 velocity=127 time=0.003125\n",
      "note_off channel=0 note=62 velocity=127 time=0.019791666666666666\n",
      "note_on channel=0 note=60 velocity=127 time=0.03229166666666666\n",
      "note_on channel=0 note=62 velocity=127 time=0.014583333333333334\n",
      "note_off channel=0 note=60 velocity=127 time=0.005208333333333333\n",
      "note_off channel=0 note=62 velocity=127 time=0.014583333333333334\n",
      "note_on channel=0 note=60 velocity=127 time=0.04583333333333333\n",
      "note_on channel=0 note=62 velocity=127 time=0.0010416666666666667\n",
      "note_off channel=0 note=60 velocity=127 time=0.01875\n",
      "note_off channel=0 note=62 velocity=127 time=0.0010416666666666667\n",
      "note_on channel=0 note=61 velocity=127 time=0.029166666666666667\n",
      "note_on channel=0 note=62 velocity=127 time=0.017708333333333333\n",
      "note_off channel=0 note=61 velocity=127 time=0.003125\n",
      "note_on channel=0 note=60 velocity=127 time=0.009375\n",
      "note_off channel=0 note=62 velocity=127 time=0.007291666666666667\n",
      "note_off channel=0 note=60 velocity=127 time=0.0125\n",
      "note_on channel=0 note=62 velocity=127 time=0.034375\n",
      "note_off channel=0 note=62 velocity=127 time=0.019791666666666666\n",
      "note_on channel=0 note=60 velocity=127 time=0.005208333333333333\n",
      "note_off channel=0 note=60 velocity=127 time=0.019791666666666666\n",
      "note_on channel=0 note=62 velocity=127 time=0.020833333333333332\n",
      "note_off channel=0 note=62 velocity=127 time=0.019791666666666666\n",
      "note_on channel=0 note=60 velocity=127 time=0.01875\n",
      "note_on channel=0 note=61 velocity=127 time=0.016666666666666666\n",
      "note_off channel=0 note=60 velocity=127 time=0.003125\n",
      "note_on channel=0 note=62 velocity=127 time=0.007291666666666667\n",
      "note_off channel=0 note=61 velocity=127 time=0.009375\n",
      "note_off channel=0 note=62 velocity=127 time=0.011458333333333333\n",
      "note_on channel=0 note=60 velocity=127 time=0.03229166666666666\n",
      "note_on channel=0 note=62 velocity=127 time=0.014583333333333334\n",
      "note_off channel=0 note=60 velocity=127 time=0.00625\n",
      "note_off channel=0 note=62 velocity=127 time=0.014583333333333334\n",
      "note_on channel=0 note=60 velocity=127 time=0.04583333333333333\n",
      "note_on channel=0 note=62 velocity=127 time=0.0010416666666666667\n",
      "note_off channel=0 note=60 velocity=127 time=0.019791666666666666\n",
      "note_off channel=0 note=62 velocity=127 time=0.0010416666666666667\n",
      "note_on channel=0 note=61 velocity=127 time=0.041666666666666664\n",
      "note_on channel=0 note=62 velocity=127 time=0.005208333333333333\n",
      "note_on channel=0 note=60 velocity=127 time=0.0125\n",
      "note_off channel=0 note=61 velocity=127 time=0.0020833333333333333\n",
      "note_off channel=0 note=62 velocity=127 time=0.005208333333333333\n",
      "note_off channel=0 note=60 velocity=127 time=0.0125\n",
      "note_on channel=0 note=62 velocity=127 time=0.034375\n",
      "note_off channel=0 note=62 velocity=127 time=0.019791666666666666\n",
      "note_on channel=0 note=60 velocity=127 time=0.00625\n",
      "note_off channel=0 note=60 velocity=127 time=0.019791666666666666\n",
      "note_on channel=0 note=62 velocity=127 time=0.020833333333333332\n",
      "note_off channel=0 note=62 velocity=127 time=0.019791666666666666\n",
      "note_on channel=0 note=60 velocity=127 time=0.019791666666666666\n",
      "note_off channel=0 note=60 velocity=127 time=0.019791666666666666\n",
      "note_on channel=0 note=62 velocity=127 time=0.007291666666666667\n",
      "note_on channel=0 note=61 velocity=127 time=0.0010416666666666667\n",
      "note_off channel=0 note=62 velocity=127 time=0.01875\n",
      "note_off channel=0 note=61 velocity=127 time=0.0010416666666666667\n",
      "note_on channel=0 note=60 velocity=127 time=0.03229166666666666\n",
      "note_on channel=0 note=62 velocity=127 time=0.013541666666666667\n",
      "note_off channel=0 note=60 velocity=127 time=0.00625\n",
      "note_off channel=0 note=62 velocity=127 time=0.013541666666666667\n",
      "note_on channel=0 note=62 velocity=127 time=0.046875\n",
      "note_on channel=0 note=60 velocity=127 time=0\n",
      "note_off channel=0 note=62 velocity=127 time=0.019791666666666666\n",
      "note_off channel=0 note=60 velocity=127 time=0\n",
      "note_on channel=0 note=62 velocity=127 time=0.046875\n",
      "note_on channel=0 note=61 velocity=127 time=0.007291666666666667\n",
      "note_on channel=0 note=60 velocity=127 time=0.005208333333333333\n",
      "note_off channel=0 note=62 velocity=127 time=0.00625\n",
      "note_off channel=0 note=61 velocity=127 time=0.007291666666666667\n",
      "note_off channel=0 note=60 velocity=127 time=0.005208333333333333\n",
      "note_on channel=0 note=62 velocity=127 time=0.03333333333333333\n",
      "note_off channel=0 note=62 velocity=127 time=0.019791666666666666\n",
      "note_on channel=0 note=60 velocity=127 time=0.007291666666666667\n",
      "note_off channel=0 note=60 velocity=127 time=0.019791666666666666\n",
      "note_on channel=0 note=62 velocity=127 time=0.019791666666666666\n",
      "note_off channel=0 note=62 velocity=127 time=0.019791666666666666\n",
      "note_on channel=0 note=60 velocity=127 time=0.020833333333333332\n",
      "note_off channel=0 note=60 velocity=127 time=0.019791666666666666\n",
      "note_on channel=0 note=62 velocity=127 time=0.00625\n",
      "note_on channel=0 note=61 velocity=127 time=0.013541666666666667\n",
      "note_off channel=0 note=62 velocity=127 time=0.00625\n",
      "note_off channel=0 note=61 velocity=127 time=0.013541666666666667\n",
      "note_on channel=0 note=60 velocity=127 time=0.019791666666666666\n",
      "note_on channel=0 note=62 velocity=127 time=0.0125\n",
      "note_off channel=0 note=60 velocity=127 time=0.007291666666666667\n",
      "note_off channel=0 note=62 velocity=127 time=0.0125\n",
      "note_on channel=0 note=62 velocity=127 time=0.046875\n",
      "\u001b[91m [DEBUG] > \u001b[0m\n",
      " |>  to_array: msg.time > max_t; t, n\n",
      " |>  2.0281249999999997\n",
      " |>  100\n",
      "note_on channel=0 note=60 velocity=127 time=0.05416666666666667\n",
      "note_off channel=0 note=60 velocity=127 time=0.019791666666666666\n",
      "note_on channel=0 note=61 velocity=127 time=0.0010416666666666667\n",
      "note_on channel=0 note=62 velocity=127 time=0.00625\n",
      "note_off channel=0 note=61 velocity=127 time=0.013541666666666667\n",
      "note_off channel=0 note=62 velocity=127 time=0.00625\n",
      "note_on channel=0 note=60 velocity=127 time=0.020833333333333332\n",
      "note_off channel=0 note=60 velocity=127 time=0.019791666666666666\n",
      "note_on channel=0 note=61 velocity=127 time=0.028125\n",
      "note_off channel=0 note=61 velocity=127 time=0.019791666666666666\n",
      "note_on channel=0 note=60 velocity=127 time=0\n",
      "note_off channel=0 note=60 velocity=127 time=0.019791666666666666\n",
      "note_on channel=0 note=62 velocity=127 time=0.035416666666666666\n",
      "note_on channel=0 note=60 velocity=127 time=0.0125\n",
      "note_on channel=0 note=61 velocity=127 time=0.007291666666666667\n",
      "note_off channel=0 note=62 velocity=127 time=0.0010416666666666667\n",
      "note_off channel=0 note=60 velocity=127 time=0.0125\n",
      "note_off channel=0 note=61 velocity=127 time=0.007291666666666667\n",
      "note_on channel=0 note=60 velocity=127 time=0.041666666666666664\n",
      "note_off channel=0 note=60 velocity=127 time=0.019791666666666666\n",
      "note_on channel=0 note=61 velocity=127 time=0.013541666666666667\n",
      "note_off channel=0 note=61 velocity=127 time=0.019791666666666666\n",
      "note_on channel=0 note=60 velocity=127 time=0.014583333333333334\n",
      "note_on channel=0 note=62 velocity=127 time=0.015625\n",
      "note_off channel=0 note=60 velocity=127 time=0.004166666666666667\n",
      "note_off channel=0 note=62 velocity=127 time=0.015625\n",
      "note_on channel=0 note=61 velocity=127 time=0.025\n",
      "note_on channel=0 note=60 velocity=127 time=0.007291666666666667\n",
      "note_off channel=0 note=61 velocity=127 time=0.0125\n",
      "note_off channel=0 note=60 velocity=127 time=0.007291666666666667\n",
      "note_on channel=0 note=60 velocity=127 time=0.04791666666666666\n",
      "note_on channel=0 note=61 velocity=127 time=0.019791666666666666\n",
      "note_off channel=0 note=60 velocity=127 time=0\n",
      "note_off channel=0 note=61 velocity=127 time=0.019791666666666666\n",
      "note_on channel=0 note=62 velocity=127 time=0.005208333333333333\n",
      "note_off channel=0 note=62 velocity=127 time=0.019791666666666666\n",
      "note_on channel=0 note=60 velocity=127 time=0.004166666666666667\n",
      "note_off channel=0 note=60 velocity=127 time=0.019791666666666666\n",
      "note_on channel=0 note=61 velocity=127 time=0.026041666666666668\n",
      "note_off channel=0 note=61 velocity=127 time=0.019791666666666666\n",
      "note_on channel=0 note=60 velocity=127 time=0.0020833333333333333\n",
      "note_off channel=0 note=60 velocity=127 time=0.019791666666666666\n",
      "note_on channel=0 note=60 velocity=127 time=0.04791666666666666\n",
      "note_on channel=0 note=62 velocity=127 time=0.004166666666666667\n",
      "note_on channel=0 note=61 velocity=127 time=0.0010416666666666667\n",
      "note_off channel=0 note=60 velocity=127 time=0.014583333333333334\n",
      "note_off channel=0 note=62 velocity=127 time=0.004166666666666667\n",
      "note_off channel=0 note=61 velocity=127 time=0.0010416666666666667\n",
      "note_on channel=0 note=60 velocity=127 time=0.042708333333333334\n",
      "note_off channel=0 note=60 velocity=127 time=0.019791666666666666\n",
      "note_on channel=0 note=61 velocity=127 time=0.0125\n",
      "note_off channel=0 note=61 velocity=127 time=0.019791666666666666\n",
      "note_on channel=0 note=60 velocity=127 time=0.015625\n",
      "note_off channel=0 note=60 velocity=127 time=0.019791666666666666\n",
      "note_on channel=0 note=62 velocity=127 time=0.013541666666666667\n",
      "note_off channel=0 note=62 velocity=127 time=0.019791666666666666\n",
      "note_on channel=0 note=61 velocity=127 time=0.00625\n",
      "note_on channel=0 note=60 velocity=127 time=0.009375\n",
      "note_off channel=0 note=61 velocity=127 time=0.010416666666666666\n",
      "note_off channel=0 note=60 velocity=127 time=0.009375\n",
      "note_on channel=0 note=60 velocity=127 time=0.04791666666666666\n",
      "note_on channel=0 note=61 velocity=127 time=0.017708333333333333\n",
      "note_off channel=0 note=60 velocity=127 time=0.0020833333333333333\n",
      "note_off channel=0 note=61 velocity=127 time=0.017708333333333333\n",
      "note_on channel=0 note=62 velocity=127 time=0.02395833333333333\n",
      "note_on channel=0 note=60 velocity=127 time=0.00625\n",
      "note_off channel=0 note=62 velocity=127 time=0.013541666666666667\n",
      "note_off channel=0 note=60 velocity=127 time=0.00625\n",
      "note_on channel=0 note=61 velocity=127 time=0.025\n",
      "note_off channel=0 note=61 velocity=127 time=0.019791666666666666\n",
      "note_on channel=0 note=60 velocity=127 time=0.003125\n",
      "note_off channel=0 note=60 velocity=127 time=0.019791666666666666\n",
      "note_on channel=0 note=60 velocity=127 time=0.04791666666666666\n",
      "note_on channel=0 note=61 velocity=127 time=0.003125\n",
      "note_off channel=0 note=60 velocity=127 time=0.016666666666666666\n",
      "note_on channel=0 note=62 velocity=127 time=0.0020833333333333333\n",
      "note_off channel=0 note=61 velocity=127 time=0.0020833333333333333\n",
      "note_off channel=0 note=62 velocity=127 time=0.01875\n",
      "note_on channel=0 note=60 velocity=127 time=0.026041666666666668\n",
      "note_off channel=0 note=60 velocity=127 time=0.019791666666666666\n",
      "note_on channel=0 note=61 velocity=127 time=0.010416666666666666\n",
      "note_off channel=0 note=61 velocity=127 time=0.019791666666666666\n",
      "note_on channel=0 note=60 velocity=127 time=0.017708333333333333\n",
      "note_off channel=0 note=60 velocity=127 time=0.019791666666666666\n",
      "note_on channel=0 note=62 velocity=127 time=0.030208333333333334\n",
      "note_on channel=0 note=61 velocity=127 time=0.007291666666666667\n",
      "note_on channel=0 note=60 velocity=127 time=0.010416666666666666\n",
      "note_off channel=0 note=62 velocity=127 time=0.0020833333333333333\n",
      "note_off channel=0 note=61 velocity=127 time=0.007291666666666667\n",
      "note_off channel=0 note=60 velocity=127 time=0.010416666666666666\n",
      "note_on channel=0 note=60 velocity=127 time=0.04791666666666666\n",
      "note_on channel=0 note=61 velocity=127 time=0.016666666666666666\n",
      "note_off channel=0 note=60 velocity=127 time=0.004166666666666667\n",
      "note_off channel=0 note=61 velocity=127 time=0.016666666666666666\n",
      "note_on channel=0 note=60 velocity=127 time=0.03229166666666666\n",
      "note_on channel=0 note=62 velocity=127 time=0.010416666666666666\n",
      "note_off channel=0 note=60 velocity=127 time=0.009375\n",
      "note_off channel=0 note=62 velocity=127 time=0.010416666666666666\n",
      "note_on channel=0 note=61 velocity=127 time=0.0125\n",
      "note_off channel=0 note=61 velocity=127 time=0.019791666666666666\n",
      "note_on channel=0 note=60 velocity=127 time=0.005208333333333333\n",
      "note_off channel=0 note=60 velocity=127 time=0.019791666666666666\n",
      "note_on channel=0 note=60 velocity=127 time=0.04791666666666666\n",
      "note_on channel=0 note=61 velocity=127 time=0.0020833333333333333\n",
      "note_off channel=0 note=60 velocity=127 time=0.017708333333333333\n",
      "note_off channel=0 note=61 velocity=127 time=0.0020833333333333333\n",
      "note_on channel=0 note=62 velocity=127 time=0.016666666666666666\n",
      "note_off channel=0 note=62 velocity=127 time=0.019791666666666666\n",
      "note_on channel=0 note=60 velocity=127 time=0.009375\n",
      "note_off channel=0 note=60 velocity=127 time=0.019791666666666666\n",
      "note_on channel=0 note=61 velocity=127 time=0.008333333333333333\n",
      "note_off channel=0 note=61 velocity=127 time=0.019791666666666666\n",
      "note_on channel=0 note=60 velocity=127 time=0.019791666666666666\n",
      "note_off channel=0 note=60 velocity=127 time=0.019791666666666666\n",
      "note_on channel=0 note=61 velocity=127 time=0.035416666666666666\n",
      "note_on channel=0 note=62 velocity=127 time=0.011458333333333333\n",
      "note_on channel=0 note=60 velocity=127 time=0.0010416666666666667\n",
      "note_off channel=0 note=61 velocity=127 time=0.007291666666666667\n",
      "note_off channel=0 note=62 velocity=127 time=0.011458333333333333\n",
      "note_off channel=0 note=60 velocity=127 time=0.0010416666666666667\n",
      "note_on channel=0 note=60 velocity=127 time=0.04791666666666666\n",
      "note_on channel=0 note=61 velocity=127 time=0.014583333333333334\n",
      "note_off channel=0 note=60 velocity=127 time=0.005208333333333333\n",
      "note_off channel=0 note=61 velocity=127 time=0.014583333333333334\n",
      "\u001b[91m [DEBUG] > \u001b[0m\n",
      " |>  to_array: msg.time > max_t; t, n\n",
      " |>  1.991666666666667\n",
      " |>  100\n"
     ]
    },
    {
     "name": "stdout",
     "output_type": "stream",
     "text": [
      "note_on channel=0 note=62 velocity=127 time=0.041666666666666664\n",
      "note_on channel=0 note=61 velocity=127 time=0.0125\n",
      "note_off channel=0 note=62 velocity=127 time=0.007291666666666667\n",
      "note_off channel=0 note=61 velocity=127 time=0.0125\n",
      "note_on channel=0 note=62 velocity=127 time=0.034375\n",
      "note_on channel=0 note=60 velocity=127 time=0.004166666666666667\n",
      "note_off channel=0 note=62 velocity=127 time=0.016666666666666666\n",
      "note_on channel=0 note=61 velocity=127 time=0.0020833333333333333\n",
      "note_off channel=0 note=60 velocity=127 time=0.0010416666666666667\n",
      "note_off channel=0 note=61 velocity=127 time=0.01875\n",
      "note_on channel=0 note=62 velocity=127 time=0.02395833333333333\n",
      "note_off channel=0 note=62 velocity=127 time=0.019791666666666666\n",
      "note_on channel=0 note=61 velocity=127 time=0.0125\n",
      "note_off channel=0 note=61 velocity=127 time=0.019791666666666666\n",
      "note_on channel=0 note=60 velocity=127 time=0.008333333333333333\n",
      "note_on channel=0 note=62 velocity=127 time=0.00625\n",
      "note_off channel=0 note=60 velocity=127 time=0.013541666666666667\n",
      "note_off channel=0 note=62 velocity=127 time=0.00625\n",
      "note_on channel=0 note=61 velocity=127 time=0.021875\n",
      "note_off channel=0 note=61 velocity=127 time=0.019791666666666666\n",
      "note_on channel=0 note=62 velocity=127 time=0.005208333333333333\n",
      "note_off channel=0 note=62 velocity=127 time=0.019791666666666666\n",
      "note_on channel=0 note=60 velocity=127 time=0.03125\n",
      "note_on channel=0 note=61 velocity=127 time=0\n",
      "note_on channel=0 note=62 velocity=127 time=0.015625\n",
      "note_off channel=0 note=60 velocity=127 time=0.004166666666666667\n",
      "note_off channel=0 note=61 velocity=127 time=0\n",
      "note_off channel=0 note=62 velocity=127 time=0.015625\n",
      "note_on channel=0 note=61 velocity=127 time=0.041666666666666664\n",
      "note_on channel=0 note=62 velocity=127 time=0.005208333333333333\n",
      "note_off channel=0 note=61 velocity=127 time=0.014583333333333334\n",
      "note_off channel=0 note=62 velocity=127 time=0.005208333333333333\n",
      "note_on channel=0 note=60 velocity=127 time=0.020833333333333332\n",
      "note_off channel=0 note=60 velocity=127 time=0.019791666666666666\n",
      "note_on channel=0 note=62 velocity=127 time=0.005208333333333333\n",
      "note_on channel=0 note=61 velocity=127 time=0.004166666666666667\n",
      "note_off channel=0 note=62 velocity=127 time=0.015625\n",
      "note_off channel=0 note=61 velocity=127 time=0.004166666666666667\n",
      "note_on channel=0 note=62 velocity=127 time=0.042708333333333334\n",
      "note_on channel=0 note=61 velocity=127 time=0.013541666666666667\n",
      "note_off channel=0 note=62 velocity=127 time=0.00625\n",
      "note_on channel=0 note=60 velocity=127 time=0.011458333333333333\n",
      "note_off channel=0 note=61 velocity=127 time=0.0020833333333333333\n",
      "note_off channel=0 note=60 velocity=127 time=0.017708333333333333\n",
      "note_on channel=0 note=62 velocity=127 time=0.014583333333333334\n",
      "note_off channel=0 note=62 velocity=127 time=0.019791666666666666\n",
      "note_on channel=0 note=61 velocity=127 time=0.004166666666666667\n",
      "note_off channel=0 note=61 velocity=127 time=0.019791666666666666\n",
      "note_on channel=0 note=62 velocity=127 time=0.022916666666666665\n",
      "note_off channel=0 note=62 velocity=127 time=0.019791666666666666\n",
      "note_on channel=0 note=60 velocity=127 time=0.0020833333333333333\n",
      "note_on channel=0 note=61 velocity=127 time=0.011458333333333333\n",
      "note_off channel=0 note=60 velocity=127 time=0.008333333333333333\n",
      "note_off channel=0 note=61 velocity=127 time=0.011458333333333333\n",
      "note_on channel=0 note=62 velocity=127 time=0.013541666666666667\n",
      "note_off channel=0 note=62 velocity=127 time=0.019791666666666666\n",
      "note_on channel=0 note=61 velocity=127 time=0.022916666666666665\n",
      "note_off channel=0 note=61 velocity=127 time=0.019791666666666666\n",
      "note_on channel=0 note=62 velocity=127 time=0.003125\n",
      "note_on channel=0 note=60 velocity=127 time=0.0125\n",
      "note_off channel=0 note=62 velocity=127 time=0.007291666666666667\n",
      "note_off channel=0 note=60 velocity=127 time=0.0125\n",
      "note_on channel=0 note=61 velocity=127 time=0.020833333333333332\n",
      "note_on channel=0 note=62 velocity=127 time=0.013541666666666667\n",
      "note_off channel=0 note=61 velocity=127 time=0.00625\n",
      "note_off channel=0 note=62 velocity=127 time=0.013541666666666667\n",
      "note_on channel=0 note=61 velocity=127 time=0.042708333333333334\n",
      "note_on channel=0 note=62 velocity=127 time=0.004166666666666667\n",
      "note_on channel=0 note=60 velocity=127 time=0.0020833333333333333\n",
      "note_off channel=0 note=61 velocity=127 time=0.013541666666666667\n",
      "note_off channel=0 note=62 velocity=127 time=0.004166666666666667\n",
      "note_off channel=0 note=60 velocity=127 time=0.0020833333333333333\n",
      "note_on channel=0 note=62 velocity=127 time=0.04375\n",
      "note_on channel=0 note=61 velocity=127 time=0.005208333333333333\n",
      "note_off channel=0 note=62 velocity=127 time=0.014583333333333334\n",
      "note_off channel=0 note=61 velocity=127 time=0.005208333333333333\n",
      "note_on channel=0 note=60 velocity=127 time=0.034375\n",
      "note_on channel=0 note=62 velocity=127 time=0.007291666666666667\n",
      "note_off channel=0 note=60 velocity=127 time=0.0125\n",
      "note_on channel=0 note=61 velocity=127 time=0.0020833333333333333\n",
      "note_off channel=0 note=62 velocity=127 time=0.004166666666666667\n",
      "note_off channel=0 note=61 velocity=127 time=0.015625\n",
      "note_on channel=0 note=62 velocity=127 time=0.03125\n",
      "note_off channel=0 note=62 velocity=127 time=0.019791666666666666\n",
      "note_on channel=0 note=61 velocity=127 time=0.005208333333333333\n",
      "note_off channel=0 note=61 velocity=127 time=0.019791666666666666\n",
      "note_on channel=0 note=60 velocity=127 time=0.005208333333333333\n",
      "note_on channel=0 note=62 velocity=127 time=0.016666666666666666\n",
      "note_off channel=0 note=60 velocity=127 time=0.003125\n",
      "note_off channel=0 note=62 velocity=127 time=0.016666666666666666\n",
      "note_on channel=0 note=61 velocity=127 time=0.014583333333333334\n",
      "note_off channel=0 note=61 velocity=127 time=0.019791666666666666\n",
      "note_on channel=0 note=62 velocity=127 time=0.011458333333333333\n",
      "note_off channel=0 note=62 velocity=127 time=0.019791666666666666\n",
      "note_on channel=0 note=60 velocity=127 time=0.019791666666666666\n",
      "note_on channel=0 note=61 velocity=127 time=0.004166666666666667\n",
      "note_off channel=0 note=60 velocity=127 time=0.015625\n",
      "note_off channel=0 note=61 velocity=127 time=0.004166666666666667\n",
      "note_on channel=0 note=62 velocity=127 time=0.0020833333333333333\n",
      "note_off channel=0 note=62 velocity=127 time=0.019791666666666666\n",
      "note_on channel=0 note=61 velocity=127 time=0.034375\n",
      "note_on channel=0 note=62 velocity=127 time=0.0125\n",
      "note_off channel=0 note=61 velocity=127 time=0.007291666666666667\n",
      "note_off channel=0 note=62 velocity=127 time=0.0125\n",
      "note_on channel=0 note=60 velocity=127 time=0.010416666666666666\n",
      "note_off channel=0 note=60 velocity=127 time=0.019791666666666666\n",
      "note_on channel=0 note=61 velocity=127 time=0.013541666666666667\n",
      "note_on channel=0 note=62 velocity=127 time=0.003125\n",
      "note_off channel=0 note=61 velocity=127 time=0.017708333333333333\n",
      "note_off channel=0 note=62 velocity=127 time=0.003125\n",
      "note_on channel=0 note=62 velocity=127 time=0.046875\n",
      "note_on channel=0 note=61 velocity=127 time=0.007291666666666667\n",
      "note_off channel=0 note=62 velocity=127 time=0.0125\n",
      "note_on channel=0 note=60 velocity=127 time=0.0010416666666666667\n",
      "note_off channel=0 note=61 velocity=127 time=0.00625\n",
      "note_off channel=0 note=60 velocity=127 time=0.013541666666666667\n",
      "note_on channel=0 note=62 velocity=127 time=0.026041666666666668\n",
      "note_on channel=0 note=61 velocity=127 time=0.016666666666666666\n",
      "note_off channel=0 note=62 velocity=127 time=0.003125\n",
      "note_off channel=0 note=61 velocity=127 time=0.016666666666666666\n",
      "note_on channel=0 note=62 velocity=127 time=0.030208333333333334\n",
      "note_on channel=0 note=60 velocity=127 time=0.011458333333333333\n",
      "note_off channel=0 note=62 velocity=127 time=0.009375\n",
      "note_on channel=0 note=61 velocity=127 time=0.00625\n",
      "note_off channel=0 note=60 velocity=127 time=0.004166666666666667\n",
      "note_off channel=0 note=61 velocity=127 time=0.015625\n",
      "note_on channel=0 note=62 velocity=127 time=0.019791666666666666\n",
      "note_off channel=0 note=62 velocity=127 time=0.019791666666666666\n",
      "note_on channel=0 note=61 velocity=127 time=0.016666666666666666\n",
      "note_off channel=0 note=61 velocity=127 time=0.019791666666666666\n",
      "note_on channel=0 note=62 velocity=127 time=0.010416666666666666\n",
      "note_on channel=0 note=60 velocity=127 time=0.0010416666666666667\n",
      "note_off channel=0 note=62 velocity=127 time=0.01875\n",
      "note_off channel=0 note=60 velocity=127 time=0.0010416666666666667\n",
      "note_on channel=0 note=61 velocity=127 time=0.025\n",
      "note_off channel=0 note=61 velocity=127 time=0.019791666666666666\n",
      "note_on channel=0 note=62 velocity=127 time=0.0010416666666666667\n",
      "note_off channel=0 note=62 velocity=127 time=0.019791666666666666\n",
      "note_on channel=0 note=61 velocity=127 time=0.035416666666666666\n",
      "note_on channel=0 note=60 velocity=127 time=0.003125\n",
      "note_on channel=0 note=62 velocity=127 time=0.008333333333333333\n",
      "note_off channel=0 note=61 velocity=127 time=0.009375\n",
      "note_off channel=0 note=60 velocity=127 time=0.003125\n",
      "note_off channel=0 note=62 velocity=127 time=0.008333333333333333\n",
      "note_on channel=0 note=61 velocity=127 time=0.04583333333333333\n",
      "\u001b[91m [DEBUG] > \u001b[0m\n",
      " |>  to_array: msg.time > max_t; t, n\n",
      " |>  2.035416666666666\n",
      " |>  100\n",
      "note_on channel=0 note=62 velocity=127 time=0.06458333333333333\n",
      "note_on channel=0 note=61 velocity=127 time=0.00625\n",
      "note_on channel=0 note=60 velocity=127 time=0.00625\n",
      "note_off channel=0 note=62 velocity=127 time=0.008333333333333333\n",
      "note_off channel=0 note=61 velocity=127 time=0.00625\n",
      "note_off channel=0 note=60 velocity=127 time=0.00625\n",
      "note_on channel=0 note=61 velocity=127 time=0.0625\n",
      "note_off channel=0 note=61 velocity=127 time=0.019791666666666666\n",
      "note_on channel=0 note=60 velocity=127 time=0.030208333333333334\n",
      "note_off channel=0 note=60 velocity=127 time=0.019791666666666666\n",
      "note_on channel=0 note=61 velocity=127 time=0.017708333333333333\n",
      "note_off channel=0 note=61 velocity=127 time=0.019791666666666666\n",
      "note_on channel=0 note=62 velocity=127 time=0.013541666666666667\n",
      "note_off channel=0 note=62 velocity=127 time=0.019791666666666666\n",
      "note_on channel=0 note=61 velocity=127 time=0.034375\n",
      "note_on channel=0 note=60 velocity=127 time=0.00625\n",
      "note_off channel=0 note=61 velocity=127 time=0.013541666666666667\n",
      "note_off channel=0 note=60 velocity=127 time=0.00625\n",
      "note_on channel=0 note=61 velocity=127 time=0.06145833333333333\n",
      "note_off channel=0 note=61 velocity=127 time=0.019791666666666666\n",
      "note_on channel=0 note=60 velocity=127 time=0.030208333333333334\n",
      "note_off channel=0 note=60 velocity=127 time=0.019791666666666666\n",
      "note_on channel=0 note=62 velocity=127 time=0.003125\n",
      "note_on channel=0 note=61 velocity=127 time=0.014583333333333334\n",
      "note_off channel=0 note=62 velocity=127 time=0.005208333333333333\n",
      "note_off channel=0 note=61 velocity=127 time=0.014583333333333334\n",
      "note_on channel=0 note=61 velocity=127 time=0.06770833333333333\n",
      "note_on channel=0 note=60 velocity=127 time=0.00625\n",
      "note_off channel=0 note=61 velocity=127 time=0.013541666666666667\n",
      "note_off channel=0 note=60 velocity=127 time=0.00625\n",
      "note_on channel=0 note=61 velocity=127 time=0.06145833333333333\n",
      "note_off channel=0 note=61 velocity=127 time=0.019791666666666666\n",
      "note_on channel=0 note=62 velocity=127 time=0.005208333333333333\n",
      "note_off channel=0 note=62 velocity=127 time=0.019791666666666666\n",
      "note_on channel=0 note=60 velocity=127 time=0.005208333333333333\n",
      "note_off channel=0 note=60 velocity=127 time=0.019791666666666666\n",
      "note_on channel=0 note=61 velocity=127 time=0.017708333333333333\n",
      "note_off channel=0 note=61 velocity=127 time=0.019791666666666666\n",
      "note_on channel=0 note=61 velocity=127 time=0.06770833333333333\n",
      "note_on channel=0 note=60 velocity=127 time=0.007291666666666667\n",
      "note_off channel=0 note=61 velocity=127 time=0.013541666666666667\n",
      "note_off channel=0 note=60 velocity=127 time=0.007291666666666667\n",
      "note_on channel=0 note=62 velocity=127 time=0.0375\n",
      "note_off channel=0 note=62 velocity=127 time=0.019791666666666666\n",
      "note_on channel=0 note=61 velocity=127 time=0.003125\n",
      "note_off channel=0 note=61 velocity=127 time=0.019791666666666666\n",
      "note_on channel=0 note=60 velocity=127 time=0.03125\n",
      "note_off channel=0 note=60 velocity=127 time=0.019791666666666666\n",
      "note_on channel=0 note=61 velocity=127 time=0.016666666666666666\n",
      "note_off channel=0 note=61 velocity=127 time=0.019791666666666666\n",
      "note_on channel=0 note=61 velocity=127 time=0.06770833333333333\n",
      "note_on channel=0 note=60 velocity=127 time=0.007291666666666667\n",
      "note_on channel=0 note=62 velocity=127 time=0.009375\n",
      "note_off channel=0 note=61 velocity=127 time=0.003125\n",
      "note_off channel=0 note=60 velocity=127 time=0.007291666666666667\n",
      "note_off channel=0 note=62 velocity=127 time=0.009375\n",
      "note_on channel=0 note=61 velocity=127 time=0.052083333333333336\n",
      "note_off channel=0 note=61 velocity=127 time=0.019791666666666666\n",
      "note_on channel=0 note=60 velocity=127 time=0.03125\n",
      "note_off channel=0 note=60 velocity=127 time=0.019791666666666666\n",
      "note_on channel=0 note=61 velocity=127 time=0.016666666666666666\n",
      "note_off channel=0 note=61 velocity=127 time=0.019791666666666666\n",
      "note_on channel=0 note=62 velocity=127 time=0.036458333333333336\n",
      "note_off channel=0 note=62 velocity=127 time=0.019791666666666666\n",
      "note_on channel=0 note=61 velocity=127 time=0.0125\n",
      "note_on channel=0 note=60 velocity=127 time=0.007291666666666667\n",
      "note_off channel=0 note=61 velocity=127 time=0.0125\n",
      "note_off channel=0 note=60 velocity=127 time=0.007291666666666667\n",
      "note_on channel=0 note=61 velocity=127 time=0.06041666666666667\n",
      "note_off channel=0 note=61 velocity=127 time=0.019791666666666666\n",
      "note_on channel=0 note=60 velocity=127 time=0.03229166666666666\n",
      "note_off channel=0 note=60 velocity=127 time=0.019791666666666666\n",
      "note_on channel=0 note=61 velocity=127 time=0.015625\n",
      "note_on channel=0 note=62 velocity=127 time=0.007291666666666667\n",
      "note_off channel=0 note=61 velocity=127 time=0.0125\n",
      "note_off channel=0 note=62 velocity=127 time=0.007291666666666667\n",
      "note_on channel=0 note=61 velocity=127 time=0.06041666666666667\n",
      "note_on channel=0 note=60 velocity=127 time=0.008333333333333333\n",
      "note_off channel=0 note=61 velocity=127 time=0.011458333333333333\n",
      "note_off channel=0 note=60 velocity=127 time=0.008333333333333333\n",
      "note_on channel=0 note=61 velocity=127 time=0.059375\n",
      "note_off channel=0 note=61 velocity=127 time=0.019791666666666666\n",
      "note_on channel=0 note=62 velocity=127 time=0.027083333333333334\n",
      "note_on channel=0 note=60 velocity=127 time=0.005208333333333333\n",
      "note_off channel=0 note=62 velocity=127 time=0.014583333333333334\n",
      "note_off channel=0 note=60 velocity=127 time=0.005208333333333333\n",
      "note_on channel=0 note=61 velocity=127 time=0.015625\n",
      "note_off channel=0 note=61 velocity=127 time=0.019791666666666666\n",
      "note_on channel=0 note=61 velocity=127 time=0.06770833333333333\n",
      "note_on channel=0 note=60 velocity=127 time=0.008333333333333333\n",
      "note_off channel=0 note=61 velocity=127 time=0.011458333333333333\n",
      "note_off channel=0 note=60 velocity=127 time=0.008333333333333333\n",
      "note_on channel=0 note=62 velocity=127 time=0.058333333333333334\n",
      "\u001b[91m [DEBUG] > \u001b[0m\n",
      " |>  to_array: msg.time > max_t; t, n\n",
      " |>  1.999999999999999\n",
      " |>  100\n",
      "note_on channel=0 note=62 velocity=127 time=0.06875\n",
      "note_on channel=0 note=61 velocity=127 time=0.0125\n",
      "note_on channel=0 note=60 velocity=127 time=0.007291666666666667\n",
      "note_off channel=0 note=62 velocity=127 time=0\n",
      "note_off channel=0 note=61 velocity=127 time=0.0125\n",
      "note_off channel=0 note=60 velocity=127 time=0.007291666666666667\n",
      "note_on channel=0 note=62 velocity=127 time=0.06666666666666667\n",
      "note_on channel=0 note=61 velocity=127 time=0.00625\n",
      "note_off channel=0 note=62 velocity=127 time=0.013541666666666667\n",
      "note_off channel=0 note=61 velocity=127 time=0.00625\n",
      "note_on channel=0 note=61 velocity=127 time=0.07916666666666666\n",
      "note_on channel=0 note=60 velocity=127 time=0\n",
      "note_on channel=0 note=62 velocity=127 time=0\n",
      "note_off channel=0 note=61 velocity=127 time=0.019791666666666666\n",
      "note_off channel=0 note=60 velocity=127 time=0\n",
      "note_off channel=0 note=62 velocity=127 time=0\n",
      "note_on channel=0 note=61 velocity=127 time=0.07916666666666666\n",
      "note_on channel=0 note=62 velocity=127 time=0.007291666666666667\n",
      "note_off channel=0 note=61 velocity=127 time=0.0125\n",
      "note_off channel=0 note=62 velocity=127 time=0.007291666666666667\n",
      "note_on channel=0 note=60 velocity=127 time=0.065625\n",
      "note_on channel=0 note=61 velocity=127 time=0.00625\n",
      "note_off channel=0 note=60 velocity=127 time=0.013541666666666667\n",
      "note_on channel=0 note=62 velocity=127 time=0\n",
      "note_off channel=0 note=61 velocity=127 time=0.00625\n",
      "note_off channel=0 note=62 velocity=127 time=0.013541666666666667\n",
      "note_on channel=0 note=61 velocity=127 time=0.065625\n",
      "note_off channel=0 note=61 velocity=127 time=0.019791666666666666\n",
      "note_on channel=0 note=62 velocity=127 time=0\n",
      "note_off channel=0 note=62 velocity=127 time=0.019791666666666666\n",
      "note_on channel=0 note=60 velocity=127 time=0.04583333333333333\n",
      "note_on channel=0 note=61 velocity=127 time=0.013541666666666667\n",
      "note_off channel=0 note=60 velocity=127 time=0.00625\n",
      "note_off channel=0 note=61 velocity=127 time=0.013541666666666667\n",
      "note_on channel=0 note=62 velocity=127 time=0.00625\n",
      "note_off channel=0 note=62 velocity=127 time=0.019791666666666666\n",
      "note_on channel=0 note=61 velocity=127 time=0.053125\n",
      "note_off channel=0 note=61 velocity=127 time=0.019791666666666666\n",
      "note_on channel=0 note=62 velocity=127 time=0.013541666666666667\n",
      "note_off channel=0 note=62 velocity=127 time=0.019791666666666666\n",
      "note_on channel=0 note=60 velocity=127 time=0.026041666666666668\n",
      "note_off channel=0 note=60 velocity=127 time=0.019791666666666666\n",
      "note_on channel=0 note=61 velocity=127 time=0.0010416666666666667\n",
      "note_off channel=0 note=61 velocity=127 time=0.019791666666666666\n",
      "note_on channel=0 note=62 velocity=127 time=0.019791666666666666\n",
      "note_off channel=0 note=62 velocity=127 time=0.019791666666666666\n",
      "note_on channel=0 note=61 velocity=127 time=0.03958333333333333\n",
      "note_off channel=0 note=61 velocity=127 time=0.019791666666666666\n",
      "note_on channel=0 note=62 velocity=127 time=0.026041666666666668\n",
      "note_off channel=0 note=62 velocity=127 time=0.019791666666666666\n",
      "note_on channel=0 note=60 velocity=127 time=0.005208333333333333\n",
      "note_off channel=0 note=60 velocity=127 time=0.019791666666666666\n",
      "note_on channel=0 note=61 velocity=127 time=0.007291666666666667\n",
      "note_off channel=0 note=61 velocity=127 time=0.019791666666666666\n",
      "note_on channel=0 note=62 velocity=127 time=0.03333333333333333\n",
      "note_off channel=0 note=62 velocity=127 time=0.019791666666666666\n",
      "note_on channel=0 note=61 velocity=127 time=0.027083333333333334\n",
      "note_off channel=0 note=61 velocity=127 time=0.019791666666666666\n",
      "note_on channel=0 note=62 velocity=127 time=0.03958333333333333\n",
      "note_on channel=0 note=60 velocity=127 time=0.005208333333333333\n",
      "note_off channel=0 note=62 velocity=127 time=0.014583333333333334\n",
      "note_off channel=0 note=60 velocity=127 time=0.005208333333333333\n",
      "note_on channel=0 note=61 velocity=127 time=0.014583333333333334\n",
      "note_off channel=0 note=61 velocity=127 time=0.019791666666666666\n",
      "note_on channel=0 note=62 velocity=127 time=0.04583333333333333\n",
      "note_off channel=0 note=62 velocity=127 time=0.019791666666666666\n",
      "note_on channel=0 note=61 velocity=127 time=0.013541666666666667\n",
      "note_off channel=0 note=61 velocity=127 time=0.019791666666666666\n",
      "note_on channel=0 note=60 velocity=127 time=0.03854166666666667\n",
      "note_on channel=0 note=62 velocity=127 time=0.014583333333333334\n",
      "note_off channel=0 note=60 velocity=127 time=0.005208333333333333\n",
      "note_off channel=0 note=62 velocity=127 time=0.014583333333333334\n",
      "note_on channel=0 note=61 velocity=127 time=0.007291666666666667\n",
      "note_off channel=0 note=61 velocity=127 time=0.019791666666666666\n",
      "note_on channel=0 note=62 velocity=127 time=0.059375\n",
      "note_off channel=0 note=62 velocity=127 time=0.019791666666666666\n",
      "note_on channel=0 note=61 velocity=127 time=0.0010416666666666667\n",
      "note_off channel=0 note=61 velocity=127 time=0.019791666666666666\n",
      "note_on channel=0 note=60 velocity=127 time=0.03125\n",
      "note_off channel=0 note=60 velocity=127 time=0.019791666666666666\n",
      "note_on channel=0 note=62 velocity=127 time=0.014583333333333334\n",
      "note_on channel=0 note=61 velocity=127 time=0.013541666666666667\n",
      "note_off channel=0 note=62 velocity=127 time=0.00625\n",
      "note_off channel=0 note=61 velocity=127 time=0.013541666666666667\n",
      "note_on channel=0 note=62 velocity=127 time=0.071875\n",
      "note_on channel=0 note=61 velocity=127 time=0.007291666666666667\n",
      "note_off channel=0 note=62 velocity=127 time=0.0125\n",
      "note_off channel=0 note=61 velocity=127 time=0.007291666666666667\n",
      "note_on channel=0 note=60 velocity=127 time=0.02395833333333333\n",
      "note_off channel=0 note=60 velocity=127 time=0.019791666666666666\n",
      "note_on channel=0 note=62 velocity=127 time=0.034375\n",
      "note_on channel=0 note=61 velocity=127 time=0.0010416666666666667\n",
      "note_off channel=0 note=62 velocity=127 time=0.01875\n",
      "note_off channel=0 note=61 velocity=127 time=0.0010416666666666667\n",
      "note_on channel=0 note=61 velocity=127 time=0.07916666666666666\n",
      "note_on channel=0 note=62 velocity=127 time=0.005208333333333333\n",
      "note_off channel=0 note=61 velocity=127 time=0.014583333333333334\n",
      "note_off channel=0 note=62 velocity=127 time=0.005208333333333333\n",
      "\u001b[91m [DEBUG] > \u001b[0m\n",
      " |>  to_array: msg.time > max_t; t, n\n",
      " |>  1.9906249999999992\n",
      " |>  100\n",
      "note_on channel=0 note=62 velocity=127 time=0.0125\n",
      "note_off channel=0 note=62 velocity=127 time=0.019791666666666666\n",
      "note_on channel=0 note=60 velocity=127 time=0.01875\n",
      "note_on channel=0 note=61 velocity=127 time=0.011458333333333333\n",
      "note_off channel=0 note=60 velocity=127 time=0.008333333333333333\n",
      "note_off channel=0 note=61 velocity=127 time=0.011458333333333333\n",
      "note_on channel=0 note=60 velocity=127 time=0.03854166666666667\n",
      "note_on channel=0 note=61 velocity=127 time=0.009375\n",
      "note_off channel=0 note=60 velocity=127 time=0.010416666666666666\n",
      "note_off channel=0 note=61 velocity=127 time=0.009375\n",
      "note_on channel=0 note=62 velocity=127 time=0\n",
      "note_off channel=0 note=62 velocity=127 time=0.019791666666666666\n",
      "note_on channel=0 note=60 velocity=127 time=0.020833333333333332\n",
      "note_on channel=0 note=61 velocity=127 time=0.007291666666666667\n",
      "note_off channel=0 note=60 velocity=127 time=0.0125\n",
      "note_off channel=0 note=61 velocity=127 time=0.007291666666666667\n",
      "note_on channel=0 note=60 velocity=127 time=0.042708333333333334\n",
      "note_on channel=0 note=61 velocity=127 time=0.005208333333333333\n",
      "note_off channel=0 note=60 velocity=127 time=0.014583333333333334\n",
      "note_off channel=0 note=61 velocity=127 time=0.005208333333333333\n",
      "note_on channel=0 note=62 velocity=127 time=0.0020833333333333333\n",
      "note_off channel=0 note=62 velocity=127 time=0.019791666666666666\n",
      "note_on channel=0 note=60 velocity=127 time=0.022916666666666665\n",
      "note_on channel=0 note=61 velocity=127 time=0.003125\n",
      "note_off channel=0 note=60 velocity=127 time=0.016666666666666666\n",
      "note_off channel=0 note=61 velocity=127 time=0.003125\n",
      "note_on channel=0 note=60 velocity=127 time=0.046875\n",
      "note_on channel=0 note=61 velocity=127 time=0.0010416666666666667\n",
      "note_off channel=0 note=60 velocity=127 time=0.01875\n",
      "note_off channel=0 note=61 velocity=127 time=0.0010416666666666667\n",
      "note_on channel=0 note=62 velocity=127 time=0.004166666666666667\n",
      "note_off channel=0 note=62 velocity=127 time=0.019791666666666666\n",
      "note_on channel=0 note=61 velocity=127 time=0.02395833333333333\n",
      "note_on channel=0 note=60 velocity=127 time=0.0010416666666666667\n",
      "note_off channel=0 note=61 velocity=127 time=0.019791666666666666\n",
      "note_off channel=0 note=60 velocity=127 time=0.0010416666666666667\n",
      "note_on channel=0 note=61 velocity=127 time=0.04791666666666666\n",
      "note_on channel=0 note=60 velocity=127 time=0.003125\n",
      "note_off channel=0 note=61 velocity=127 time=0.017708333333333333\n",
      "note_off channel=0 note=60 velocity=127 time=0.003125\n",
      "note_on channel=0 note=62 velocity=127 time=0.003125\n",
      "note_off channel=0 note=62 velocity=127 time=0.019791666666666666\n",
      "note_on channel=0 note=61 velocity=127 time=0.022916666666666665\n",
      "note_on channel=0 note=60 velocity=127 time=0.005208333333333333\n",
      "note_off channel=0 note=61 velocity=127 time=0.015625\n",
      "note_off channel=0 note=60 velocity=127 time=0.005208333333333333\n",
      "note_on channel=0 note=61 velocity=127 time=0.04375\n",
      "note_on channel=0 note=60 velocity=127 time=0.00625\n",
      "note_off channel=0 note=61 velocity=127 time=0.013541666666666667\n",
      "note_off channel=0 note=60 velocity=127 time=0.00625\n",
      "note_on channel=0 note=62 velocity=127 time=0.0010416666666666667\n",
      "note_off channel=0 note=62 velocity=127 time=0.019791666666666666\n",
      "note_on channel=0 note=61 velocity=127 time=0.020833333333333332\n",
      "note_on channel=0 note=60 velocity=127 time=0.008333333333333333\n",
      "note_off channel=0 note=61 velocity=127 time=0.011458333333333333\n",
      "note_off channel=0 note=60 velocity=127 time=0.008333333333333333\n",
      "note_on channel=0 note=61 velocity=127 time=0.03958333333333333\n",
      "note_on channel=0 note=60 velocity=127 time=0.010416666666666666\n",
      "note_off channel=0 note=61 velocity=127 time=0.009375\n",
      "note_on channel=0 note=62 velocity=127 time=0.009375\n",
      "note_off channel=0 note=60 velocity=127 time=0.0020833333333333333\n",
      "note_off channel=0 note=62 velocity=127 time=0.01875\n",
      "note_on channel=0 note=61 velocity=127 time=0.01875\n",
      "note_on channel=0 note=60 velocity=127 time=0.0125\n",
      "note_off channel=0 note=61 velocity=127 time=0.007291666666666667\n",
      "note_off channel=0 note=60 velocity=127 time=0.0125\n",
      "note_on channel=0 note=61 velocity=127 time=0.035416666666666666\n",
      "note_on channel=0 note=60 velocity=127 time=0.014583333333333334\n",
      "note_off channel=0 note=61 velocity=127 time=0.005208333333333333\n",
      "note_on channel=0 note=62 velocity=127 time=0.010416666666666666\n",
      "note_off channel=0 note=60 velocity=127 time=0.004166666666666667\n",
      "note_off channel=0 note=62 velocity=127 time=0.015625\n",
      "note_on channel=0 note=61 velocity=127 time=0.017708333333333333\n",
      "note_on channel=0 note=60 velocity=127 time=0.016666666666666666\n",
      "note_off channel=0 note=61 velocity=127 time=0.003125\n",
      "note_off channel=0 note=60 velocity=127 time=0.016666666666666666\n",
      "note_on channel=0 note=61 velocity=127 time=0.03125\n",
      "note_on channel=0 note=60 velocity=127 time=0.01875\n",
      "note_off channel=0 note=61 velocity=127 time=0.0010416666666666667\n",
      "note_on channel=0 note=62 velocity=127 time=0.0125\n",
      "note_off channel=0 note=60 velocity=127 time=0.00625\n",
      "note_off channel=0 note=62 velocity=127 time=0.013541666666666667\n",
      "note_on channel=0 note=61 velocity=127 time=0.015625\n",
      "note_off channel=0 note=61 velocity=127 time=0.019791666666666666\n",
      "note_on channel=0 note=60 velocity=127 time=0.0010416666666666667\n",
      "note_off channel=0 note=60 velocity=127 time=0.019791666666666666\n",
      "note_on channel=0 note=61 velocity=127 time=0.027083333333333334\n",
      "note_off channel=0 note=61 velocity=127 time=0.019791666666666666\n",
      "note_on channel=0 note=60 velocity=127 time=0.003125\n",
      "note_on channel=0 note=62 velocity=127 time=0.011458333333333333\n",
      "note_off channel=0 note=60 velocity=127 time=0.008333333333333333\n",
      "note_off channel=0 note=62 velocity=127 time=0.011458333333333333\n",
      "note_on channel=0 note=61 velocity=127 time=0.013541666666666667\n",
      "note_off channel=0 note=61 velocity=127 time=0.019791666666666666\n",
      "note_on channel=0 note=60 velocity=127 time=0.005208333333333333\n",
      "note_off channel=0 note=60 velocity=127 time=0.019791666666666666\n",
      "note_on channel=0 note=61 velocity=127 time=0.022916666666666665\n",
      "note_off channel=0 note=61 velocity=127 time=0.019791666666666666\n",
      "note_on channel=0 note=60 velocity=127 time=0.00625\n",
      "note_on channel=0 note=62 velocity=127 time=0.009375\n",
      "note_off channel=0 note=60 velocity=127 time=0.010416666666666666\n",
      "note_off channel=0 note=62 velocity=127 time=0.009375\n",
      "note_on channel=0 note=61 velocity=127 time=0.0125\n",
      "note_off channel=0 note=61 velocity=127 time=0.019791666666666666\n",
      "note_on channel=0 note=60 velocity=127 time=0.008333333333333333\n",
      "note_off channel=0 note=60 velocity=127 time=0.019791666666666666\n",
      "note_on channel=0 note=61 velocity=127 time=0.019791666666666666\n",
      "note_off channel=0 note=61 velocity=127 time=0.019791666666666666\n",
      "note_on channel=0 note=60 velocity=127 time=0.010416666666666666\n",
      "note_on channel=0 note=62 velocity=127 time=0.007291666666666667\n",
      "note_off channel=0 note=60 velocity=127 time=0.013541666666666667\n",
      "note_off channel=0 note=62 velocity=127 time=0.007291666666666667\n",
      "note_on channel=0 note=61 velocity=127 time=0.010416666666666666\n",
      "note_off channel=0 note=61 velocity=127 time=0.019791666666666666\n",
      "note_on channel=0 note=60 velocity=127 time=0.0125\n",
      "note_off channel=0 note=60 velocity=127 time=0.019791666666666666\n",
      "note_on channel=0 note=61 velocity=127 time=0.015625\n",
      "note_off channel=0 note=61 velocity=127 time=0.019791666666666666\n",
      "note_on channel=0 note=60 velocity=127 time=0.014583333333333334\n",
      "note_on channel=0 note=62 velocity=127 time=0.004166666666666667\n",
      "note_off channel=0 note=60 velocity=127 time=0.015625\n",
      "note_off channel=0 note=62 velocity=127 time=0.004166666666666667\n",
      "note_on channel=0 note=61 velocity=127 time=0.008333333333333333\n",
      "note_off channel=0 note=61 velocity=127 time=0.019791666666666666\n",
      "note_on channel=0 note=60 velocity=127 time=0.016666666666666666\n",
      "note_off channel=0 note=60 velocity=127 time=0.019791666666666666\n",
      "note_on channel=0 note=61 velocity=127 time=0.011458333333333333\n",
      "note_off channel=0 note=61 velocity=127 time=0.019791666666666666\n",
      "note_on channel=0 note=60 velocity=127 time=0.01875\n",
      "note_on channel=0 note=62 velocity=127 time=0.0020833333333333333\n",
      "note_off channel=0 note=60 velocity=127 time=0.017708333333333333\n",
      "note_off channel=0 note=62 velocity=127 time=0.0020833333333333333\n",
      "note_on channel=0 note=61 velocity=127 time=0.007291666666666667\n",
      "note_off channel=0 note=61 velocity=127 time=0.019791666666666666\n",
      "note_on channel=0 note=60 velocity=127 time=0.020833333333333332\n",
      "note_off channel=0 note=60 velocity=127 time=0.019791666666666666\n",
      "note_on channel=0 note=61 velocity=127 time=0.007291666666666667\n",
      "note_off channel=0 note=61 velocity=127 time=0.019791666666666666\n",
      "note_on channel=0 note=60 velocity=127 time=0.022916666666666665\n",
      "note_on channel=0 note=62 velocity=127 time=0\n",
      "note_off channel=0 note=60 velocity=127 time=0.019791666666666666\n",
      "note_off channel=0 note=62 velocity=127 time=0\n",
      "note_on channel=0 note=61 velocity=127 time=0.005208333333333333\n",
      "note_off channel=0 note=61 velocity=127 time=0.019791666666666666\n",
      "note_on channel=0 note=60 velocity=127 time=0.025\n",
      "\u001b[91m [DEBUG] > \u001b[0m\n",
      " |>  to_array: msg.time > max_t; t, n\n",
      " |>  2.010416666666666\n",
      " |>  100\n",
      "note_on channel=0 note=60 velocity=127 time=0.046875\n",
      "note_off channel=0 note=60 velocity=127 time=0.019791666666666666\n",
      "note_on channel=0 note=62 velocity=127 time=0.0020833333333333333\n",
      "note_off channel=0 note=62 velocity=127 time=0.019791666666666666\n",
      "note_on channel=0 note=60 velocity=127 time=0.07083333333333333\n",
      "note_off channel=0 note=60 velocity=127 time=0.019791666666666666\n",
      "note_on channel=0 note=61 velocity=127 time=0.04895833333333333\n",
      "note_off channel=0 note=61 velocity=127 time=0.019791666666666666\n",
      "note_on channel=0 note=60 velocity=127 time=0.025\n",
      "note_off channel=0 note=60 velocity=127 time=0.019791666666666666\n",
      "note_on channel=0 note=60 velocity=127 time=0.09375\n",
      "note_on channel=0 note=62 velocity=127 time=0.013541666666666667\n",
      "note_off channel=0 note=60 velocity=127 time=0.00625\n"
     ]
    },
    {
     "name": "stdout",
     "output_type": "stream",
     "text": [
      "note_off channel=0 note=62 velocity=127 time=0.013541666666666667\n",
      "note_on channel=0 note=61 velocity=127 time=0.05625\n",
      "note_off channel=0 note=61 velocity=127 time=0.019791666666666666\n",
      "note_on channel=0 note=60 velocity=127 time=0.003125\n",
      "note_off channel=0 note=60 velocity=127 time=0.019791666666666666\n",
      "note_on channel=0 note=60 velocity=127 time=0.09375\n",
      "note_off channel=0 note=60 velocity=127 time=0.019791666666666666\n",
      "note_on channel=0 note=61 velocity=127 time=0.09166666666666666\n",
      "note_on channel=0 note=60 velocity=127 time=0.0020833333333333333\n",
      "note_on channel=0 note=62 velocity=127 time=0.005208333333333333\n",
      "note_off channel=0 note=61 velocity=127 time=0.0125\n",
      "note_off channel=0 note=60 velocity=127 time=0.0020833333333333333\n",
      "note_off channel=0 note=62 velocity=127 time=0.005208333333333333\n",
      "note_on channel=0 note=60 velocity=127 time=0.0875\n",
      "note_off channel=0 note=60 velocity=127 time=0.019791666666666666\n",
      "note_on channel=0 note=60 velocity=127 time=0.09375\n",
      "note_on channel=0 note=61 velocity=127 time=0.019791666666666666\n",
      "note_off channel=0 note=60 velocity=127 time=0\n",
      "note_off channel=0 note=61 velocity=127 time=0.019791666666666666\n",
      "note_on channel=0 note=62 velocity=127 time=0.07083333333333333\n",
      "note_on channel=0 note=60 velocity=127 time=0.0020833333333333333\n",
      "note_off channel=0 note=62 velocity=127 time=0.017708333333333333\n",
      "note_off channel=0 note=60 velocity=127 time=0.0020833333333333333\n",
      "note_on channel=0 note=60 velocity=127 time=0.09375\n",
      "note_off channel=0 note=60 velocity=127 time=0.019791666666666666\n",
      "note_on channel=0 note=61 velocity=127 time=0.020833333333333332\n",
      "note_off channel=0 note=61 velocity=127 time=0.019791666666666666\n",
      "note_on channel=0 note=60 velocity=127 time=0.052083333333333336\n",
      "note_off channel=0 note=60 velocity=127 time=0.019791666666666666\n",
      "note_on channel=0 note=62 velocity=127 time=0.08229166666666667\n",
      "note_on channel=0 note=60 velocity=127 time=0.010416666666666666\n",
      "note_off channel=0 note=62 velocity=127 time=0.009375\n",
      "note_off channel=0 note=60 velocity=127 time=0.010416666666666666\n",
      "note_on channel=0 note=61 velocity=127 time=0.042708333333333334\n",
      "note_off channel=0 note=61 velocity=127 time=0.019791666666666666\n",
      "note_on channel=0 note=60 velocity=127 time=0.03125\n",
      "note_off channel=0 note=60 velocity=127 time=0.019791666666666666\n",
      "note_on channel=0 note=60 velocity=127 time=0.09375\n",
      "note_off channel=0 note=60 velocity=127 time=0.019791666666666666\n",
      "note_on channel=0 note=61 velocity=127 time=0.06354166666666666\n",
      "note_on channel=0 note=62 velocity=127 time=0.010416666666666666\n",
      "note_off channel=0 note=61 velocity=127 time=0.009375\n",
      "note_on channel=0 note=60 velocity=127 time=0.009375\n",
      "note_off channel=0 note=62 velocity=127 time=0.0010416666666666667\n",
      "note_off channel=0 note=60 velocity=127 time=0.01875\n",
      "note_on channel=0 note=60 velocity=127 time=0.09375\n",
      "note_off channel=0 note=60 velocity=127 time=0.019791666666666666\n",
      "note_on channel=0 note=61 velocity=127 time=0.08541666666666667\n",
      "note_on channel=0 note=60 velocity=127 time=0.008333333333333333\n",
      "note_off channel=0 note=61 velocity=127 time=0.011458333333333333\n",
      "note_off channel=0 note=60 velocity=127 time=0.008333333333333333\n",
      "note_on channel=0 note=62 velocity=127 time=0.065625\n",
      "\u001b[91m [DEBUG] > \u001b[0m\n",
      " |>  to_array: msg.time > max_t; t, n\n",
      " |>  2.0552083333333333\n",
      " |>  100\n",
      "note_on channel=0 note=62 velocity=127 time=0.009375\n",
      "note_off channel=0 note=62 velocity=127 time=0.019791666666666666\n",
      "note_on channel=0 note=61 velocity=127 time=0.03958333333333333\n",
      "note_off channel=0 note=61 velocity=127 time=0.019791666666666666\n",
      "note_on channel=0 note=60 velocity=127 time=0.028125\n",
      "note_off channel=0 note=60 velocity=127 time=0.019791666666666666\n",
      "note_on channel=0 note=61 velocity=127 time=0.010416666666666666\n",
      "note_off channel=0 note=61 velocity=127 time=0.019791666666666666\n",
      "note_on channel=0 note=61 velocity=127 time=0.058333333333333334\n",
      "note_on channel=0 note=62 velocity=127 time=0.005208333333333333\n",
      "note_off channel=0 note=61 velocity=127 time=0.014583333333333334\n",
      "note_off channel=0 note=62 velocity=127 time=0.005208333333333333\n",
      "note_on channel=0 note=61 velocity=127 time=0.052083333333333336\n",
      "note_off channel=0 note=61 velocity=127 time=0.019791666666666666\n",
      "note_on channel=0 note=60 velocity=127 time=0.035416666666666666\n",
      "note_off channel=0 note=60 velocity=127 time=0.019791666666666666\n",
      "note_on channel=0 note=61 velocity=127 time=0.003125\n",
      "note_off channel=0 note=61 velocity=127 time=0.019791666666666666\n",
      "note_on channel=0 note=62 velocity=127 time=0.051041666666666666\n",
      "note_on channel=0 note=61 velocity=127 time=0.007291666666666667\n",
      "note_off channel=0 note=62 velocity=127 time=0.0125\n",
      "note_off channel=0 note=61 velocity=127 time=0.007291666666666667\n",
      "note_on channel=0 note=61 velocity=127 time=0.058333333333333334\n",
      "note_off channel=0 note=61 velocity=127 time=0.019791666666666666\n",
      "note_on channel=0 note=60 velocity=127 time=0.042708333333333334\n",
      "note_on channel=0 note=61 velocity=127 time=0.015625\n",
      "note_off channel=0 note=60 velocity=127 time=0.004166666666666667\n",
      "note_off channel=0 note=61 velocity=127 time=0.015625\n",
      "note_on channel=0 note=62 velocity=127 time=0.0375\n",
      "note_off channel=0 note=62 velocity=127 time=0.019791666666666666\n",
      "note_on channel=0 note=61 velocity=127 time=0\n",
      "note_off channel=0 note=61 velocity=127 time=0.019791666666666666\n",
      "note_on channel=0 note=61 velocity=127 time=0.058333333333333334\n",
      "note_off channel=0 note=61 velocity=127 time=0.019791666666666666\n",
      "note_on channel=0 note=60 velocity=127 time=0.05\n",
      "note_on channel=0 note=61 velocity=127 time=0.008333333333333333\n",
      "note_off channel=0 note=60 velocity=127 time=0.011458333333333333\n",
      "note_off channel=0 note=61 velocity=127 time=0.008333333333333333\n",
      "note_on channel=0 note=62 velocity=127 time=0.025\n",
      "note_off channel=0 note=62 velocity=127 time=0.019791666666666666\n",
      "note_on channel=0 note=61 velocity=127 time=0.013541666666666667\n",
      "note_off channel=0 note=61 velocity=127 time=0.019791666666666666\n",
      "note_on channel=0 note=61 velocity=127 time=0.058333333333333334\n",
      "note_off channel=0 note=61 velocity=127 time=0.019791666666666666\n",
      "note_on channel=0 note=60 velocity=127 time=0.057291666666666664\n",
      "note_on channel=0 note=61 velocity=127 time=0.0010416666666666667\n",
      "note_off channel=0 note=60 velocity=127 time=0.01875\n",
      "note_off channel=0 note=61 velocity=127 time=0.0010416666666666667\n",
      "note_on channel=0 note=62 velocity=127 time=0.011458333333333333\n",
      "note_off channel=0 note=62 velocity=127 time=0.019791666666666666\n",
      "note_on channel=0 note=61 velocity=127 time=0.027083333333333334\n",
      "note_off channel=0 note=61 velocity=127 time=0.019791666666666666\n",
      "note_on channel=0 note=61 velocity=127 time=0.058333333333333334\n",
      "note_off channel=0 note=61 velocity=127 time=0.019791666666666666\n",
      "note_on channel=0 note=61 velocity=127 time=0.058333333333333334\n",
      "note_on channel=0 note=60 velocity=127 time=0.00625\n",
      "note_on channel=0 note=62 velocity=127 time=0.0125\n",
      "note_off channel=0 note=61 velocity=127 time=0.0010416666666666667\n",
      "note_off channel=0 note=60 velocity=127 time=0.00625\n",
      "note_off channel=0 note=62 velocity=127 time=0.0125\n",
      "note_on channel=0 note=61 velocity=127 time=0.03958333333333333\n",
      "note_off channel=0 note=61 velocity=127 time=0.019791666666666666\n",
      "note_on channel=0 note=61 velocity=127 time=0.058333333333333334\n",
      "note_off channel=0 note=61 velocity=127 time=0.019791666666666666\n",
      "note_on channel=0 note=61 velocity=127 time=0.058333333333333334\n",
      "note_on channel=0 note=62 velocity=127 time=0.005208333333333333\n",
      "note_on channel=0 note=60 velocity=127 time=0.008333333333333333\n",
      "note_off channel=0 note=61 velocity=127 time=0.00625\n",
      "note_off channel=0 note=62 velocity=127 time=0.005208333333333333\n",
      "note_off channel=0 note=60 velocity=127 time=0.008333333333333333\n",
      "note_on channel=0 note=61 velocity=127 time=0.04479166666666667\n",
      "note_off channel=0 note=61 velocity=127 time=0.019791666666666666\n",
      "note_on channel=0 note=61 velocity=127 time=0.058333333333333334\n",
      "note_off channel=0 note=61 velocity=127 time=0.019791666666666666\n",
      "note_on channel=0 note=62 velocity=127 time=0.051041666666666666\n",
      "note_on channel=0 note=61 velocity=127 time=0.007291666666666667\n",
      "note_off channel=0 note=62 velocity=127 time=0.0125\n",
      "note_off channel=0 note=61 velocity=127 time=0.007291666666666667\n",
      "note_on channel=0 note=60 velocity=127 time=0.0010416666666666667\n",
      "note_off channel=0 note=60 velocity=127 time=0.019791666666666666\n",
      "note_on channel=0 note=61 velocity=127 time=0.0375\n",
      "note_off channel=0 note=61 velocity=127 time=0.019791666666666666\n",
      "note_on channel=0 note=61 velocity=127 time=0.058333333333333334\n",
      "note_off channel=0 note=61 velocity=127 time=0.019791666666666666\n",
      "note_on channel=0 note=62 velocity=127 time=0.0375\n",
      "\u001b[91m [DEBUG] > \u001b[0m\n",
      " |>  to_array: msg.time > max_t; t, n\n",
      " |>  1.998958333333333\n",
      " |>  100\n"
     ]
    }
   ],
   "source": [
    "n = 100\n",
    "min_f = 3\n",
    "max_f = 15\n",
    "# x_train = g.gen_data(context, n, max_f=max_f, min_f=min_f)\n",
    "# x_train = g.gen_data_complex(context, n, max_f=max_f, min_f=min_f, multiTrack=multiTrack)\n",
    "x_train = g.gen_data_complex(context, n, max_f=max_f, min_f=min_f, \n",
    "    n_polyrythms=1,\n",
    "    n_channels=midi.N_NOTES,\n",
    "    multiTrack=multiTrack)"
   ]
  },
  {
   "cell_type": "code",
   "execution_count": 57,
   "metadata": {},
   "outputs": [],
   "source": [
    "n = 3\n",
    "total = 1000 * 1\n",
    "x_test = x_train[n:]\n",
    "x_train = np.concatenate([x_train[:n] for _ in range(int(total/n))])"
   ]
  },
  {
   "cell_type": "code",
   "execution_count": 58,
   "metadata": {},
   "outputs": [
    {
     "name": "stdout",
     "output_type": "stream",
     "text": [
      "m (30, 3)\n"
     ]
    },
    {
     "data": {
      "image/png": "iVBORw0KGgoAAAANSUhEUgAAAXcAAABECAYAAAB6WXVJAAAABHNCSVQICAgIfAhkiAAAAAlwSFlzAAALEgAACxIB0t1+/AAAADl0RVh0U29mdHdhcmUAbWF0cGxvdGxpYiB2ZXJzaW9uIDIuMS4yLCBodHRwOi8vbWF0cGxvdGxpYi5vcmcvNQv5yAAABqRJREFUeJzt3V+IHWcdxvHvY2pzsUapbqgljW7VRaheqIQkYiMBUdoiREMtyUVIQVgRCwpeWHpRi1BQ8S9UlEoDUdQq1j+LVGpBsfWmZLfUpn+ILiWlCTFJG6kGlBLzeHEmcFzP7s6cnc2c8+7zgWXnzHl35vfbd85v57xn5l3ZJiIiyvKargOIiIj2pbhHRBQoxT0iokAp7hERBUpxj4goUIp7RESBUtwjIgqU4h4RUaAU94iIAl3R1Y4nJyc9NTXV1e7Xhfn5+dptJycnG21706ZNtdtu3LixdtuJiYlGccTaanIMQbPjKMfQcObn51+yvXmldp0V96mpKebm5rra/bogqXbbvXv3Ntr2rl27arednp6u3XbHjh2N4oi11eQYgmbHUY6h4Uh6oU67WsMykm6UdEzSgqQ7Bjy/UdJPq+cflzTVLNyIiGjTisVd0gbgO8BNwPXAfknXL2r2SeDvtt8BfBP4StuBRkREfXXO3LcDC7aft/0q8ACwZ1GbPcDhavnnwIfU9P1cRES0pk5x3wK82Pf4RLVuYBvbF4BXgDe1EWBERDR3WS+FlDQjaU7S3NmzZy/nriMi1pU6xf0ksLXv8bXVuoFtJF0BvAF4efGGbN9ne5vtbZs3r3glT0REDKlOcT8CTEu6TtKVwD5gdlGbWeBgtXwL8HvnXzxFRHRmxevcbV+QdDvwMLABOGT7GUlfAuZszwL3Az+UtACco/cHICIiOlLrJibbDwEPLVp3V9/yv4FPtBtaREQMq7M7VGM4Ta4wnZmZqd22yd2CkDsGhzUK/dek7zK6Ory16uu6MnFYRESBUtwjIgqU4h4RUaAU94iIAqW4R0QUKMU9IqJAKe4REQVKcY+IKFCKe0REgVLcIyIKlOIeEVGgdT23TNP/BDgKc32Mip07d9ZuOwq/t7WKF5rPyzNORuU1cuDAgc5jGLfXac7cIyIKlOIeEVGgFPeIiAKluEdEFCjFPSKiQCnuEREFWrG4S9oq6Q+SnpX0jKTPDmizW9Irkp6svu4atK2IiLg86lznfgH4vO0nJG0C5iU9YvvZRe0es/3R9kOMiIimVjxzt33K9hPV8j+B54Atax1YREQMr9GYu6Qp4L3A4wOefr+kP0v6raR3tRBbREQMSbbrNZReB/wRuMf2LxY993rgou3zkm4Gvm37/+7VlTQDXLo3+J3AsQG7mgReqp/C2Ck5v5Jzg+Q37krJ7622N6/UqFZxl/Ra4DfAw7a/UaP9cWCb7ca/SElztrc1/blxUXJ+JecGyW/clZ7fYnWulhFwP/DcUoVd0purdkjaXm335TYDjYiI+upcLfMB4ABwVNKT1bo7gbcA2P4ecAvwaUkXgH8B+1x3vCciIlq3YnG3/Sdg2Xk/bd8L3NtSTPe1tJ1RVXJ+JecGyW/clZ7f/6j9gWpERIyPTD8QEVGgkSnukm6UdEzSgqQ7uo6nbZKOSzpaTc8w13U8qyXpkKQzkp7uW/dGSY9I+mv1/aouY1yNJfK7W9LJvmk2bu4yxmEtNaVIKf23TH5F9F9dIzEsI2kD8Bfgw8AJ4Aiwf8AUB2NrNZeHjiJJHwTOAz+w/e5q3VeBc7a/XP2Bvsr2F7qMc1hL5Hc3cN7217qMbbUkXQNc0z+lCPAx4DYK6L9l8ruVAvqvrlE5c98OLNh+3varwAPAno5jimXYfhQ4t2j1HuBwtXyY3gtqLC2RXxGWmVKkiP7LlCk9o1LctwAv9j0+QXmdYeB3kuarO3VLdLXtU9Xy34Cruwxmjdwu6alq2GYshy36LZpSpLj+GzBlSlH9t5xRKe7rwQ223wfcBHymettfrOo+h+7H/Nr1XeDtwHuAU8DXuw1ndaopRR4EPmf7H/3PldB/A/Irqv9WMirF/SSwte/xtdW6Ytg+WX0/A/yS3lBUaU5X452Xxj3PdBxPq2yftv0f2xeB7zPGfVhNKfIg8KO+uaKK6b9B+ZXUf3WMSnE/AkxLuk7SlcA+YLbjmFojaaL6YAdJE8BHgKeX/6mxNAscrJYPAr/uMJbWXSp8lY8zpn24zJQiRfTfUvmV0n91jcTVMgDVZUnfAjYAh2zf03FIrZH0Nnpn69C7K/jH456fpJ8Au+nNtHca+CLwK+Bn9KameAG41fZYfii5RH676b2lN3Ac+FTfGPXYkHQD8BhwFLhYrb6T3rj02PffMvntp4D+q2tkintERLRnVIZlIiKiRSnuEREFSnGPiChQintERIFS3CMiCpTiHhFRoBT3iIgCpbhHRBTov0q2TSVQLEebAAAAAElFTkSuQmCC\n",
      "text/plain": [
       "<matplotlib.figure.Figure at 0x11e8238d0>"
      ]
     },
     "metadata": {},
     "output_type": "display_data"
    }
   ],
   "source": [
    "plot.multi(x_train[0, :30])"
   ]
  },
  {
   "cell_type": "code",
   "execution_count": 59,
   "metadata": {},
   "outputs": [
    {
     "name": "stdout",
     "output_type": "stream",
     "text": [
      "m (30, 3)\n"
     ]
    },
    {
     "data": {
      "image/png": "iVBORw0KGgoAAAANSUhEUgAAAXcAAABECAYAAAB6WXVJAAAABHNCSVQICAgIfAhkiAAAAAlwSFlzAAALEgAACxIB0t1+/AAAADl0RVh0U29mdHdhcmUAbWF0cGxvdGxpYiB2ZXJzaW9uIDIuMS4yLCBodHRwOi8vbWF0cGxvdGxpYi5vcmcvNQv5yAAABq1JREFUeJzt3V+IXGcZx/Hvz9TmYo1S3VBLGt2qi1C9UAkJYiMBUdoiREMtyYVEEFbEgoIXll7UIhRU/AsVpdJAFLWK9c8ilVpQtL1IyW6ppn+IWUpKE2KSNlINKCXm58WcwDjOzpzZncmZ8/b3gbBnzjw78zznnXl29t1z3sg2ERFRllc1nUBERIxfmntERIHS3CMiCpTmHhFRoDT3iIgCpblHRBQozT0iokBp7hERBUpzj4go0BVNPfHs7Kzn5uaaevqpsry8XDt2dna2duymTZtqx27cuLF2LMDMzMxI8U2b1DGGyR3nth1jaN9ruaXH+AXbm4fFNdbc5+bmWFpaaurpp4qk2rF79uypHbtz587asfPz87VjAXbs2DFSfNMmdYxhcse5bccY2vdabukxfq5OXK1pGUk3SjoqaUXS7X3u3yjpp9X9j0maGy3diIgYp6HNXdIG4DvATcD1wD5J1/eEfRL4u+23Ad8EvjLuRCMior46n9y3Ayu2n7X9MnA/sLsnZjdwsNr+OfABjfL7WUREjFWd5r4FeL7r9olqX98Y2xeAl4A3jCPBiIgY3WU9FVLSgqQlSUtnz569nE8dEfGKUqe5nwS2dt2+ttrXN0bSFcDrgBd7H8j2vba32d62efPQM3kiImKN6jT3w8C8pOskXQnsBRZ7YhaB/dX2LcDvnf/iKSKiMUPPc7d9QdJtwEPABuCA7ackfQlYsr0I3Af8UNIKcI7OD4CIiGhIrYuYbD8IPNiz786u7X8DHxtvahERsVaNXaFaulHOBF1YWKgd28Yr9abhWBw6dKh2bOnHYpKvi1FmY9t2tvS0vC7qysJhEREFSnOPiChQmntERIHS3CMiCpTmHhFRoDT3iIgCpblHRBQozT0iokBp7hERBUpzj4goUJp7RESBsrbMCEpfFyQmr+S1V2C019ykVgWf1Pv02LFjI+Uxynt1Eq+LfHKPiChQmntERIHS3CMiCpTmHhFRoDT3iIgCpblHRBRoaHOXtFXSHyQ9LekpSZ/tE7NL0kuSnqj+3dnvsSIi4vKoc577BeDzth+XtAlYlvSw7ad74h6x/eHxpxgREaMa+snd9inbj1fb/wSeAbZMOrGIiFi7kebcJc0B7wYe63P3eyX9WdJvJb1jDLlFRMQaqe5lr5JeA/wRuNv2L3ruey1w0fZ5STcD37b9f9feSloALl3v+3bgaJ+nmgVeqF9C65RcX8m1Qepru1Lqe7PtzcOCajV3Sa8GfgM8ZPsbNeKPA9tsj3wgJS3Z3jbq97VFyfWVXBukvrYrvb5edc6WEXAf8MxqjV3SG6s4JG2vHvfFcSYaERH11Tlb5n3Ax4Ejkp6o9t0BvAnA9veAW4BPS7oA/AvY60kt+RYREUMNbe62HwUGrjFp+x7gnjHldO+YHmdalVxfybVB6mu70uv7H7X/oBoREe2R5QciIgo0Nc1d0o2SjkpakXR70/mMm6Tjko5UyzMsNZ3Pekk6IOmMpCe79r1e0sOSjlVfr2oyx/VYpb67JJ3sWmbj5iZzXKvVlhQpZfwG1FfE+NU1FdMykjYAfwU+CJwADgP7+ixx0FrrOT10Gkl6P3Ae+IHtd1b7vgqcs/3l6gf0Vba/0GSea7VKfXcB521/rcnc1kvSNcA13UuKAB8BPkEB4zegvlspYPzqmpZP7tuBFdvP2n4ZuB/Y3XBOMYDtPwHnenbvBg5W2wfpvKFaaZX6ijBgSZEixi9LpnRMS3PfAjzfdfsE5Q2Ggd9JWq6u1C3R1bZPVdt/A65uMpkJuU3SX6ppm1ZOW3TrWVKkuPHrs2RKUeM3yLQ091eCG2y/B7gJ+Ez1a3+xquscmp/zG6/vAm8F3gWcAr7ebDrrUy0p8gDwOdv/6L6vhPHrU19R4zfMtDT3k8DWrtvXVvuKYftk9fUM8Es6U1GlOV3Nd16a9zzTcD5jZfu07f/Yvgh8nxaPYbWkyAPAj7rWiipm/PrVV9L41TEtzf0wMC/pOklXAnuBxYZzGhtJM9UfdpA0A3wIeHLwd7XSIrC/2t4P/LrBXMbuUuOrfJSWjuGAJUWKGL/V6itl/OqairNlAKrTkr4FbAAO2L674ZTGRtJb6Hxah85VwT9ue32SfgLsorPS3mngi8CvgJ/RWZriOeBW2638o+Qq9e2i8yu9gePAp7rmqFtD0g3AI8AR4GK1+w4689KtH78B9e2jgPGra2qae0REjM+0TMtERMQYpblHRBQozT0iokBp7hERBUpzj4goUJp7RESB0twjIgqU5h4RUaD/AvKAW33AWq3uAAAAAElFTkSuQmCC\n",
      "text/plain": [
       "<matplotlib.figure.Figure at 0x119412f28>"
      ]
     },
     "metadata": {},
     "output_type": "display_data"
    }
   ],
   "source": [
    "plot.multi(x_train[1, :30])"
   ]
  },
  {
   "cell_type": "code",
   "execution_count": 60,
   "metadata": {},
   "outputs": [
    {
     "data": {
      "text/plain": [
       "(999, 100, 3)"
      ]
     },
     "execution_count": 60,
     "metadata": {},
     "output_type": "execute_result"
    }
   ],
   "source": [
    "x_train.shape"
   ]
  },
  {
   "cell_type": "code",
   "execution_count": 61,
   "metadata": {},
   "outputs": [],
   "source": [
    "params = {'batch_size': 64, 'shuffle': True}"
   ]
  },
  {
   "cell_type": "code",
   "execution_count": 70,
   "metadata": {},
   "outputs": [],
   "source": [
    "x_train = x_train.reshape(list(x_train.shape) + [1])"
   ]
  },
  {
   "cell_type": "code",
   "execution_count": 71,
   "metadata": {},
   "outputs": [
    {
     "data": {
      "text/plain": [
       "(999, 100, 3, 1)"
      ]
     },
     "execution_count": 71,
     "metadata": {},
     "output_type": "execute_result"
    }
   ],
   "source": [
    "x_train.shape"
   ]
  },
  {
   "cell_type": "code",
   "execution_count": 64,
   "metadata": {},
   "outputs": [],
   "source": [
    "datagen = IDG(\n",
    "#         featurewise_center=False,  # set input mean to 0 over the dataset\n",
    "#         samplewise_center=False,  # set each sample mean to 0\n",
    "#         featurewise_std_normalization=False,  # divide inputs by dataset std\n",
    "#         samplewise_std_normalization=False,  # divide each input by its std\n",
    "#         zca_whitening=False,  # apply ZCA whitening\n",
    "#         rotation_range=0,  # randomly rotate images in 0 to 180 degrees\n",
    "#         width_shift_range=0.1,  # randomly shift images horizontally\n",
    "#         height_shift_range=0.1,  # randomly shift images vertically\n",
    "#         horizontal_flip=True,  # randomly flip images\n",
    "#         vertical_flip=False)  # randomly flip images\n",
    ")"
   ]
  },
  {
   "cell_type": "code",
   "execution_count": 65,
   "metadata": {},
   "outputs": [
    {
     "ename": "ValueError",
     "evalue": "Input to `.fit()` should have rank 4. Got array with shape: (999, 100, 3)",
     "output_type": "error",
     "traceback": [
      "\u001b[0;31m---------------------------------------------------------------------------\u001b[0m",
      "\u001b[0;31mValueError\u001b[0m                                Traceback (most recent call last)",
      "\u001b[0;32m<ipython-input-65-c41db1eabcbb>\u001b[0m in \u001b[0;36m<module>\u001b[0;34m()\u001b[0m\n\u001b[1;32m      1\u001b[0m \u001b[0;31m# class ImageDataGenerator(IDG):\u001b[0m\u001b[0;34m\u001b[0m\u001b[0;34m\u001b[0m\u001b[0m\n\u001b[0;32m----> 2\u001b[0;31m \u001b[0mdatagen\u001b[0m\u001b[0;34m.\u001b[0m\u001b[0mfit\u001b[0m\u001b[0;34m(\u001b[0m\u001b[0mx_train\u001b[0m\u001b[0;34m)\u001b[0m\u001b[0;34m\u001b[0m\u001b[0m\n\u001b[0m",
      "\u001b[0;32m/Library/Frameworks/Python.framework/Versions/3.6/lib/python3.6/site-packages/keras/preprocessing/image.py\u001b[0m in \u001b[0;36mfit\u001b[0;34m(self, x, augment, rounds, seed)\u001b[0m\n\u001b[1;32m    738\u001b[0m         \u001b[0;32mif\u001b[0m \u001b[0mx\u001b[0m\u001b[0;34m.\u001b[0m\u001b[0mndim\u001b[0m \u001b[0;34m!=\u001b[0m \u001b[0;36m4\u001b[0m\u001b[0;34m:\u001b[0m\u001b[0;34m\u001b[0m\u001b[0m\n\u001b[1;32m    739\u001b[0m             raise ValueError('Input to `.fit()` should have rank 4. '\n\u001b[0;32m--> 740\u001b[0;31m                              'Got array with shape: ' + str(x.shape))\n\u001b[0m\u001b[1;32m    741\u001b[0m         \u001b[0;32mif\u001b[0m \u001b[0mx\u001b[0m\u001b[0;34m.\u001b[0m\u001b[0mshape\u001b[0m\u001b[0;34m[\u001b[0m\u001b[0mself\u001b[0m\u001b[0;34m.\u001b[0m\u001b[0mchannel_axis\u001b[0m\u001b[0;34m]\u001b[0m \u001b[0;32mnot\u001b[0m \u001b[0;32min\u001b[0m \u001b[0;34m{\u001b[0m\u001b[0;36m1\u001b[0m\u001b[0;34m,\u001b[0m \u001b[0;36m3\u001b[0m\u001b[0;34m,\u001b[0m \u001b[0;36m4\u001b[0m\u001b[0;34m}\u001b[0m\u001b[0;34m:\u001b[0m\u001b[0;34m\u001b[0m\u001b[0m\n\u001b[1;32m    742\u001b[0m             warnings.warn(\n",
      "\u001b[0;31mValueError\u001b[0m: Input to `.fit()` should have rank 4. Got array with shape: (999, 100, 3)"
     ]
    }
   ],
   "source": [
    "# class ImageDataGenerator(IDG):\n",
    "datagen.fit(x_train)"
   ]
  },
  {
   "cell_type": "code",
   "execution_count": null,
   "metadata": {},
   "outputs": [],
   "source": []
  },
  {
   "cell_type": "code",
   "execution_count": null,
   "metadata": {},
   "outputs": [],
   "source": []
  },
  {
   "cell_type": "code",
   "execution_count": 35,
   "metadata": {},
   "outputs": [
    {
     "data": {
      "text/plain": [
       "(100, 3)"
      ]
     },
     "execution_count": 35,
     "metadata": {},
     "output_type": "execute_result"
    }
   ],
   "source": [
    "input_shape = x_train[0].shape\n",
    "input_shape"
   ]
  },
  {
   "cell_type": "code",
   "execution_count": 36,
   "metadata": {},
   "outputs": [],
   "source": [
    "batch_size = 100\n",
    "latent_dim = 2\n",
    "intermediate_dim = 128\n",
    "epsilon_std = 1.0"
   ]
  },
  {
   "cell_type": "code",
   "execution_count": 49,
   "metadata": {},
   "outputs": [],
   "source": [
    "def encoder(input_size, dropout=0.1):\n",
    "    encoder_input = Input(shape=original_img_size)\n",
    "    \n",
    "    # Convolve & Pool\n",
    "    h = encoder_input\n",
    "    h = Conv1D(32, kernel_size=2, strides=2, activation='relu', padding='same')(h)\n",
    "    h = Conv1D(32, kernel_size=2, strides=1, activation='relu', padding='same')(h)\n",
    "    h = Conv1D(64, kernel_size=2, strides=2, activation='relu', padding='same')(h)\n",
    "    h = Conv1D(64, kernel_size=2, strides=1, activation='relu', padding='same')(h)\n",
    "    #     x = AveragePooling2D((2, 2))(x)\n",
    "    h = Conv1D(128, kernel_size=2, strides=2, activation='relu', padding='same')(h)\n",
    "\n",
    "    # Dense layers\n",
    "    h = Dropout(dropout)(h) # uncomment when using larger batches\n",
    "    h = Flatten()(h)\n",
    "    h = Dropout(dropout)(h) # uncomment when using larger batches\n",
    "\n",
    "    h = Dense(intermediate_dim, activation='relu')(h)\n",
    "    #     h = Dense(intermediate_dim, activation='relu')(h)\n",
    "    #     h = Dense(intermediate_dim, activation='relu')(h)    \n",
    "    #     h = Dense(intermediate_dim, activation='relu')(h)\n",
    "        # h = Dense(intermediate_dim, activation='relu', kernel_regularizer=k_reg, activity_regularizer=a_reg)(h)\n",
    "    \n",
    "    # Z Mean, Variance\n",
    "    z_mean = Dense(latent_dim, name='z_mean')(h) # , activation='relu'\n",
    "    z_log_var = Dense(latent_dim, name='z_log_var')(h) # , activation='relu'\n",
    "        \n",
    "    encoder_output = [z_mean, z_log_var]\n",
    "    encoder_model = Model(encoder_input, encoder_output, name='encoder_model-')\n",
    "    return encoder_model, encoder_input, z_mean, z_log_var"
   ]
  },
  {
   "cell_type": "code",
   "execution_count": 50,
   "metadata": {},
   "outputs": [
    {
     "name": "stdout",
     "output_type": "stream",
     "text": [
      "__________________________________________________________________________________________________\n",
      "Layer (type)                    Output Shape         Param #     Connected to                     \n",
      "==================================================================================================\n",
      "input_7 (InputLayer)            (None, 100, 3)       0                                            \n",
      "__________________________________________________________________________________________________\n",
      "conv1d_23 (Conv1D)              (None, 50, 32)       224         input_7[0][0]                    \n",
      "__________________________________________________________________________________________________\n",
      "conv1d_24 (Conv1D)              (None, 50, 32)       2080        conv1d_23[0][0]                  \n",
      "__________________________________________________________________________________________________\n",
      "conv1d_25 (Conv1D)              (None, 25, 64)       4160        conv1d_24[0][0]                  \n",
      "__________________________________________________________________________________________________\n",
      "conv1d_26 (Conv1D)              (None, 25, 64)       8256        conv1d_25[0][0]                  \n",
      "__________________________________________________________________________________________________\n",
      "conv1d_27 (Conv1D)              (None, 13, 128)      16512       conv1d_26[0][0]                  \n",
      "__________________________________________________________________________________________________\n",
      "dropout_1 (Dropout)             (None, 13, 128)      0           conv1d_27[0][0]                  \n",
      "__________________________________________________________________________________________________\n",
      "flatten_7 (Flatten)             (None, 1664)         0           dropout_1[0][0]                  \n",
      "__________________________________________________________________________________________________\n",
      "dropout_2 (Dropout)             (None, 1664)         0           flatten_7[0][0]                  \n",
      "__________________________________________________________________________________________________\n",
      "dense_9 (Dense)                 (None, 128)          213120      dropout_2[0][0]                  \n",
      "__________________________________________________________________________________________________\n",
      "z_mean (Dense)                  (None, 2)            258         dense_9[0][0]                    \n",
      "__________________________________________________________________________________________________\n",
      "z_log_var (Dense)               (None, 2)            258         dense_9[0][0]                    \n",
      "==================================================================================================\n",
      "Total params: 244,868\n",
      "Trainable params: 244,868\n",
      "Non-trainable params: 0\n",
      "__________________________________________________________________________________________________\n"
     ]
    }
   ],
   "source": [
    "encoder_model, encoder_input, z_mean, z_log_var = encoder(input_shape)\n",
    "encoder_model.summary()"
   ]
  },
  {
   "cell_type": "code",
   "execution_count": 45,
   "metadata": {},
   "outputs": [],
   "source": [
    "sample_ = lambda args: models.sample(args, z_mean, z_log_var, latent_dim, epsilon_std)"
   ]
  },
  {
   "cell_type": "code",
   "execution_count": 17,
   "metadata": {},
   "outputs": [],
   "source": [
    "# z = Lambda(sampling)([z_mean, z_log_var])\n",
    "z_input = encoder_model(encoder_input)\n",
    "z_output = Lambda(sample_)(z_input)"
   ]
  },
  {
   "cell_type": "code",
   "execution_count": 18,
   "metadata": {},
   "outputs": [],
   "source": [
    "def list_decoders(output_size, p='valid'):\n",
    "    # decoder_input = z_output\n",
    "    # h = decoder_input\n",
    "    # :output_shape = (timesteps, channels, channels) || (batches, filters, timesteps, channels)\n",
    "    # keras offers just Conv2DTranspose and not Conv1DTranspose\n",
    "    # - use 2D images during upsampling :: (timesteps, notes, channels) => (timesteps, notes, filters)\n",
    "    # - use 1D images to optimize reconstruction :: (timesteps, filters) => (timesteps, notes)\n",
    "    \n",
    "    # image_data_format = 'channels_last'\n",
    "    # goal shape: (timesteps, notes, channels)\n",
    "    # start with the 'reverse': lots of small imgs => few large img\n",
    "    \n",
    "    timesteps = output_size[-2] # cols\n",
    "    notes = output_size[-1] # rows\n",
    "    channels = 1 # rgb\n",
    "    m = 4 # multiplier for dims\n",
    "    \n",
    "    # at the start of upsampling, the image-structure does not yet have to correspond to the goal structure \n",
    "    # ?TODO use y*y*y starting dims, may conv, and only then correct the structure (?)\n",
    "    output_shape = (channels, notes * m, timesteps)\n",
    "    \n",
    "    # we instantiate these layers separately so as to reuse them later\n",
    "    decoders = []\n",
    "    decoders += [ Dense(intermediate_dim, activation='relu') ]\n",
    "    decoders += [ Dense(np.prod(output_shape[-3:]), activation='relu') ]\n",
    "    decoders += [ Reshape(output_shape[-3:]) ]\n",
    "    \n",
    "    # Convolve & Pool\n",
    "    \n",
    "    # Note that the kernel windows do not yet correspond to 'temporal' features, but rather to just spatial features\n",
    "    k = (3,2) # (2,1) :: (timesteps, notes)\n",
    "    s = (1,3)\n",
    "    timesteps_ = int(timesteps / 2)\n",
    "    \n",
    "    decoders += [ Conv2DTranspose(timesteps_, kernel_size=k, strides=3, activation='relu', padding=p) ]\n",
    "    decoders += [ Conv2DTranspose(32, kernel_size=k, strides=3, activation='relu', padding=p) ]\n",
    "    # decoder += [Conv2DTranspose(32, kernel_size=k, strides=3, activation='relu', padding=p)]\n",
    "    decoders += [ Conv2DTranspose(16, kernel_size=k, strides=(3,1), activation='relu', padding=p)]\n",
    "    decoders += [ Conv2DTranspose(16, kernel_size=k, strides=3, activation='relu', padding=p)]\n",
    "    \n",
    "    # 'end' of upsampling\n",
    "    decoders += [ Conv2D(1, kernel_size=(1,2), strides=1, activation='relu', padding=p) ]\n",
    "    # shape = ()\n",
    "    # decoder_reshape2 = Reshape(dims[0:2])\n",
    "    # #     h = Conv1D(16, kernel_size=2, strides=1, activation='relu', padding=p)(h)\n",
    "    # decoder_conv2 = Conv1D(notes * m, kernel_size=2, strides=2, activation='relu', padding=p)\n",
    "    \n",
    "    \n",
    "    # Mean (output)\n",
    "    #     h = Conv2D(1, kernel_size=1, strides=s, activation='sigmoid', padding='same')(h)\n",
    "    output_shape = (timesteps, notes)\n",
    "    \n",
    "    decoders += [ Flatten()]\n",
    "    decoders += [ Dense(np.prod(output_shape), activation='sigmoid')]\n",
    "    decoders += [ Reshape(output_shape)]\n",
    "    return decoders"
   ]
  },
  {
   "cell_type": "code",
   "execution_count": 19,
   "metadata": {},
   "outputs": [],
   "source": [
    "decoders = list_decoders(original_input_size)"
   ]
  },
  {
   "cell_type": "code",
   "execution_count": 20,
   "metadata": {},
   "outputs": [],
   "source": [
    "decoded = utils.composition(decoders, z_output, verbose=False)"
   ]
  },
  {
   "cell_type": "code",
   "execution_count": 21,
   "metadata": {},
   "outputs": [
    {
     "name": "stdout",
     "output_type": "stream",
     "text": [
      "__________________________________________________________________________________________________\n",
      "Layer (type)                    Output Shape         Param #     Connected to                     \n",
      "==================================================================================================\n",
      "input_1 (InputLayer)            (None, 100, 3)       0                                            \n",
      "__________________________________________________________________________________________________\n",
      "encoder_model- (Model)          [(None, 2), (None, 2 414628      input_1[0][0]                    \n",
      "__________________________________________________________________________________________________\n",
      "lambda_1 (Lambda)               (None, 2)            0           encoder_model-[1][0]             \n",
      "                                                                 encoder_model-[1][1]             \n",
      "__________________________________________________________________________________________________\n",
      "dense_3 (Dense)                 (None, 1200)         3600        lambda_1[0][0]                   \n",
      "__________________________________________________________________________________________________\n",
      "reshape_1 (Reshape)             (None, 1, 12, 100)   0           dense_3[0][0]                    \n",
      "__________________________________________________________________________________________________\n",
      "conv2d_transpose_1 (Conv2DTrans (None, 3, 36, 50)    30050       reshape_1[0][0]                  \n",
      "__________________________________________________________________________________________________\n",
      "conv2d_transpose_2 (Conv2DTrans (None, 9, 108, 32)   9632        conv2d_transpose_1[0][0]         \n",
      "__________________________________________________________________________________________________\n",
      "conv2d_transpose_3 (Conv2DTrans (None, 27, 109, 16)  3088        conv2d_transpose_2[0][0]         \n",
      "__________________________________________________________________________________________________\n",
      "conv2d_transpose_4 (Conv2DTrans (None, 81, 327, 16)  1552        conv2d_transpose_3[0][0]         \n",
      "__________________________________________________________________________________________________\n",
      "conv2d_1 (Conv2D)               (None, 81, 326, 1)   33          conv2d_transpose_4[0][0]         \n",
      "__________________________________________________________________________________________________\n",
      "flatten_2 (Flatten)             (None, 26406)        0           conv2d_1[0][0]                   \n",
      "__________________________________________________________________________________________________\n",
      "dense_4 (Dense)                 (None, 300)          7922100     flatten_2[0][0]                  \n",
      "__________________________________________________________________________________________________\n",
      "reshape_2 (Reshape)             (None, 100, 3)       0           dense_4[0][0]                    \n",
      "==================================================================================================\n",
      "Total params: 8,384,683\n",
      "Trainable params: 8,384,683\n",
      "Non-trainable params: 0\n",
      "__________________________________________________________________________________________________\n"
     ]
    }
   ],
   "source": [
    "# instantiate VAE model\n",
    "vae_input = encoder_input\n",
    "vae_output = decoded\n",
    "vae = Model(vae_input, vae_output)\n",
    "vae.summary()"
   ]
  },
  {
   "cell_type": "code",
   "execution_count": 22,
   "metadata": {
    "scrolled": true
   },
   "outputs": [
    {
     "name": "stderr",
     "output_type": "stream",
     "text": [
      "/Library/Frameworks/Python.framework/Versions/3.6/lib/python3.6/site-packages/ipykernel_launcher.py:12: UserWarning: Output \"reshape_2\" missing from loss dictionary. We assume this was done on purpose, and we will not be expecting any data to be passed to \"reshape_2\" during training.\n",
      "  if sys.path[0] == '':\n"
     ]
    }
   ],
   "source": [
    "# Compute VAE loss\n",
    "# no img_cols! no notes!\n",
    "def vae_loss(beta=1.):\n",
    "    # y_true, y_pred, z_mean, z_log_var, timesteps=150, notes=3, beta=1.\n",
    "    xent_loss = timesteps * keras.metrics.binary_crossentropy(K.flatten(vae_input), K.flatten(vae_output))\n",
    "    kl_loss = - 0.5 * K.sum(1 + z_log_var - K.square(z_mean) - K.exp(z_log_var), axis=-1)\n",
    "    vae_loss = K.mean(xent_loss + kl_loss)\n",
    "    return vae_loss\n",
    "\n",
    "vae_loss = vae_loss()\n",
    "vae.add_loss(vae_loss)\n",
    "vae.compile(optimizer='rmsprop')\n",
    "# vae.compile(optimizer=optimizer, loss=loss, metrics=metrics)"
   ]
  },
  {
   "cell_type": "code",
   "execution_count": 23,
   "metadata": {},
   "outputs": [],
   "source": [
    "# train the VAE on MNIST digits\n",
    "# (x_train, _), (x_test, y_test) = mnist.load_data()\n",
    "x_test = x_train[-100:]\n",
    "y_test = x_test"
   ]
  },
  {
   "cell_type": "code",
   "execution_count": 24,
   "metadata": {},
   "outputs": [
    {
     "data": {
      "text/plain": [
       "(999, 100, 3)"
      ]
     },
     "execution_count": 24,
     "metadata": {},
     "output_type": "execute_result"
    }
   ],
   "source": [
    "x_train.shape"
   ]
  },
  {
   "cell_type": "code",
   "execution_count": 25,
   "metadata": {},
   "outputs": [
    {
     "name": "stdout",
     "output_type": "stream",
     "text": [
      "x_train.shape: (999, 100, 3)\n"
     ]
    }
   ],
   "source": [
    "print('x_train.shape:', x_train.shape)"
   ]
  },
  {
   "cell_type": "code",
   "execution_count": 28,
   "metadata": {
    "scrolled": true
   },
   "outputs": [
    {
     "name": "stdout",
     "output_type": "stream",
     "text": [
      "Epoch 1/50\n",
      "15/15 [==============================] - 14s 948ms/step - loss: 63.4891 - val_loss: 63.5382\n",
      "Epoch 2/50\n",
      "15/15 [==============================] - 14s 901ms/step - loss: 63.4760 - val_loss: 63.1686\n",
      "Epoch 3/50\n",
      "15/15 [==============================] - 13s 895ms/step - loss: 63.5143 - val_loss: 63.6121\n",
      "Epoch 4/50\n",
      "15/15 [==============================] - 14s 921ms/step - loss: 63.3552 - val_loss: 63.9185\n",
      "Epoch 5/50\n",
      "15/15 [==============================] - 14s 905ms/step - loss: 63.4005 - val_loss: 63.1932\n",
      "Epoch 6/50\n",
      "15/15 [==============================] - 14s 915ms/step - loss: 63.4084 - val_loss: 62.7233\n",
      "Epoch 7/50\n",
      "15/15 [==============================] - 14s 909ms/step - loss: 63.2814 - val_loss: 63.7910\n",
      "Epoch 8/50\n",
      "15/15 [==============================] - 14s 904ms/step - loss: 63.2398 - val_loss: 63.0896\n",
      "Epoch 9/50\n",
      "15/15 [==============================] - 13s 887ms/step - loss: 63.2182 - val_loss: 63.5656\n",
      "Epoch 10/50\n",
      "15/15 [==============================] - 14s 946ms/step - loss: 63.2275 - val_loss: 63.2177\n",
      "Epoch 11/50\n",
      "15/15 [==============================] - 14s 920ms/step - loss: 63.1996 - val_loss: 64.2073\n",
      "Epoch 12/50\n",
      "15/15 [==============================] - 13s 891ms/step - loss: 63.2406 - val_loss: 63.6859\n",
      "Epoch 13/50\n",
      "15/15 [==============================] - 14s 903ms/step - loss: 63.2305 - val_loss: 63.4233\n",
      "Epoch 14/50\n",
      "15/15 [==============================] - 14s 905ms/step - loss: 63.2010 - val_loss: 63.2536\n",
      "Epoch 15/50\n",
      "15/15 [==============================] - 13s 896ms/step - loss: 63.1741 - val_loss: 63.4330\n",
      "Epoch 16/50\n",
      " 9/15 [=================>............] - ETA: 4s - loss: 63.1679"
     ]
    },
    {
     "name": "stderr",
     "output_type": "stream",
     "text": [
      "Process ForkPoolWorker-40:\n",
      "Process ForkPoolWorker-39:\n",
      "Traceback (most recent call last):\n",
      "Traceback (most recent call last):\n",
      "  File \"/Library/Frameworks/Python.framework/Versions/3.6/lib/python3.6/multiprocessing/process.py\", line 258, in _bootstrap\n",
      "    self.run()\n",
      "  File \"/Library/Frameworks/Python.framework/Versions/3.6/lib/python3.6/multiprocessing/process.py\", line 258, in _bootstrap\n",
      "    self.run()\n",
      "  File \"/Library/Frameworks/Python.framework/Versions/3.6/lib/python3.6/multiprocessing/process.py\", line 93, in run\n",
      "    self._target(*self._args, **self._kwargs)\n",
      "  File \"/Library/Frameworks/Python.framework/Versions/3.6/lib/python3.6/multiprocessing/process.py\", line 93, in run\n",
      "    self._target(*self._args, **self._kwargs)\n",
      "  File \"/Library/Frameworks/Python.framework/Versions/3.6/lib/python3.6/multiprocessing/pool.py\", line 108, in worker\n",
      "    task = get()\n",
      "  File \"/Library/Frameworks/Python.framework/Versions/3.6/lib/python3.6/multiprocessing/pool.py\", line 108, in worker\n",
      "    task = get()\n",
      "  File \"/Library/Frameworks/Python.framework/Versions/3.6/lib/python3.6/multiprocessing/queues.py\", line 335, in get\n",
      "    res = self._reader.recv_bytes()\n",
      "  File \"/Library/Frameworks/Python.framework/Versions/3.6/lib/python3.6/multiprocessing/queues.py\", line 334, in get\n",
      "    with self._rlock:\n",
      "  File \"/Library/Frameworks/Python.framework/Versions/3.6/lib/python3.6/multiprocessing/connection.py\", line 216, in recv_bytes\n",
      "    buf = self._recv_bytes(maxlength)\n",
      "  File \"/Library/Frameworks/Python.framework/Versions/3.6/lib/python3.6/multiprocessing/synchronize.py\", line 96, in __enter__\n",
      "    return self._semlock.__enter__()\n",
      "KeyboardInterrupt\n",
      "  File \"/Library/Frameworks/Python.framework/Versions/3.6/lib/python3.6/multiprocessing/connection.py\", line 407, in _recv_bytes\n",
      "    buf = self._recv(4)\n",
      "  File \"/Library/Frameworks/Python.framework/Versions/3.6/lib/python3.6/multiprocessing/connection.py\", line 379, in _recv\n",
      "    chunk = read(handle, remaining)\n",
      "KeyboardInterrupt\n"
     ]
    },
    {
     "ename": "KeyboardInterrupt",
     "evalue": "",
     "output_type": "error",
     "traceback": [
      "\u001b[0;31m---------------------------------------------------------------------------\u001b[0m",
      "\u001b[0;31mKeyboardInterrupt\u001b[0m                         Traceback (most recent call last)",
      "\u001b[0;32m<ipython-input-28-52772ebb7772>\u001b[0m in \u001b[0;36m<module>\u001b[0;34m()\u001b[0m\n\u001b[1;32m      5\u001b[0m     \u001b[0mX\u001b[0m\u001b[0;34m,\u001b[0m \u001b[0mepochs\u001b[0m\u001b[0;34m=\u001b[0m\u001b[0mepochs\u001b[0m\u001b[0;34m,\u001b[0m \u001b[0msteps_per_epoch\u001b[0m\u001b[0;34m=\u001b[0m\u001b[0mX\u001b[0m\u001b[0;34m.\u001b[0m\u001b[0m__len__\u001b[0m\u001b[0;34m(\u001b[0m\u001b[0;34m)\u001b[0m\u001b[0;34m,\u001b[0m\u001b[0;34m\u001b[0m\u001b[0m\n\u001b[1;32m      6\u001b[0m     \u001b[0muse_multiprocessing\u001b[0m\u001b[0;34m=\u001b[0m\u001b[0;32mTrue\u001b[0m\u001b[0;34m,\u001b[0m \u001b[0mworkers\u001b[0m\u001b[0;34m=\u001b[0m\u001b[0;36m2\u001b[0m\u001b[0;34m,\u001b[0m\u001b[0;34m\u001b[0m\u001b[0m\n\u001b[0;32m----> 7\u001b[0;31m     validation_data=(x_test, None))\n\u001b[0m",
      "\u001b[0;32m/Library/Frameworks/Python.framework/Versions/3.6/lib/python3.6/site-packages/keras/legacy/interfaces.py\u001b[0m in \u001b[0;36mwrapper\u001b[0;34m(*args, **kwargs)\u001b[0m\n\u001b[1;32m     89\u001b[0m                 warnings.warn('Update your `' + object_name +\n\u001b[1;32m     90\u001b[0m                               '` call to the Keras 2 API: ' + signature, stacklevel=2)\n\u001b[0;32m---> 91\u001b[0;31m             \u001b[0;32mreturn\u001b[0m \u001b[0mfunc\u001b[0m\u001b[0;34m(\u001b[0m\u001b[0;34m*\u001b[0m\u001b[0margs\u001b[0m\u001b[0;34m,\u001b[0m \u001b[0;34m**\u001b[0m\u001b[0mkwargs\u001b[0m\u001b[0;34m)\u001b[0m\u001b[0;34m\u001b[0m\u001b[0m\n\u001b[0m\u001b[1;32m     92\u001b[0m         \u001b[0mwrapper\u001b[0m\u001b[0;34m.\u001b[0m\u001b[0m_original_function\u001b[0m \u001b[0;34m=\u001b[0m \u001b[0mfunc\u001b[0m\u001b[0;34m\u001b[0m\u001b[0m\n\u001b[1;32m     93\u001b[0m         \u001b[0;32mreturn\u001b[0m \u001b[0mwrapper\u001b[0m\u001b[0;34m\u001b[0m\u001b[0m\n",
      "\u001b[0;32m/Library/Frameworks/Python.framework/Versions/3.6/lib/python3.6/site-packages/keras/engine/training.py\u001b[0m in \u001b[0;36mfit_generator\u001b[0;34m(self, generator, steps_per_epoch, epochs, verbose, callbacks, validation_data, validation_steps, class_weight, max_queue_size, workers, use_multiprocessing, shuffle, initial_epoch)\u001b[0m\n\u001b[1;32m   2222\u001b[0m                     outs = self.train_on_batch(x, y,\n\u001b[1;32m   2223\u001b[0m                                                \u001b[0msample_weight\u001b[0m\u001b[0;34m=\u001b[0m\u001b[0msample_weight\u001b[0m\u001b[0;34m,\u001b[0m\u001b[0;34m\u001b[0m\u001b[0m\n\u001b[0;32m-> 2224\u001b[0;31m                                                class_weight=class_weight)\n\u001b[0m\u001b[1;32m   2225\u001b[0m \u001b[0;34m\u001b[0m\u001b[0m\n\u001b[1;32m   2226\u001b[0m                     \u001b[0;32mif\u001b[0m \u001b[0;32mnot\u001b[0m \u001b[0misinstance\u001b[0m\u001b[0;34m(\u001b[0m\u001b[0mouts\u001b[0m\u001b[0;34m,\u001b[0m \u001b[0mlist\u001b[0m\u001b[0;34m)\u001b[0m\u001b[0;34m:\u001b[0m\u001b[0;34m\u001b[0m\u001b[0m\n",
      "\u001b[0;32m/Library/Frameworks/Python.framework/Versions/3.6/lib/python3.6/site-packages/keras/engine/training.py\u001b[0m in \u001b[0;36mtrain_on_batch\u001b[0;34m(self, x, y, sample_weight, class_weight)\u001b[0m\n\u001b[1;32m   1881\u001b[0m             \u001b[0mins\u001b[0m \u001b[0;34m=\u001b[0m \u001b[0mx\u001b[0m \u001b[0;34m+\u001b[0m \u001b[0my\u001b[0m \u001b[0;34m+\u001b[0m \u001b[0msample_weights\u001b[0m\u001b[0;34m\u001b[0m\u001b[0m\n\u001b[1;32m   1882\u001b[0m         \u001b[0mself\u001b[0m\u001b[0;34m.\u001b[0m\u001b[0m_make_train_function\u001b[0m\u001b[0;34m(\u001b[0m\u001b[0;34m)\u001b[0m\u001b[0;34m\u001b[0m\u001b[0m\n\u001b[0;32m-> 1883\u001b[0;31m         \u001b[0moutputs\u001b[0m \u001b[0;34m=\u001b[0m \u001b[0mself\u001b[0m\u001b[0;34m.\u001b[0m\u001b[0mtrain_function\u001b[0m\u001b[0;34m(\u001b[0m\u001b[0mins\u001b[0m\u001b[0;34m)\u001b[0m\u001b[0;34m\u001b[0m\u001b[0m\n\u001b[0m\u001b[1;32m   1884\u001b[0m         \u001b[0;32mif\u001b[0m \u001b[0mlen\u001b[0m\u001b[0;34m(\u001b[0m\u001b[0moutputs\u001b[0m\u001b[0;34m)\u001b[0m \u001b[0;34m==\u001b[0m \u001b[0;36m1\u001b[0m\u001b[0;34m:\u001b[0m\u001b[0;34m\u001b[0m\u001b[0m\n\u001b[1;32m   1885\u001b[0m             \u001b[0;32mreturn\u001b[0m \u001b[0moutputs\u001b[0m\u001b[0;34m[\u001b[0m\u001b[0;36m0\u001b[0m\u001b[0;34m]\u001b[0m\u001b[0;34m\u001b[0m\u001b[0m\n",
      "\u001b[0;32m/Library/Frameworks/Python.framework/Versions/3.6/lib/python3.6/site-packages/keras/backend/tensorflow_backend.py\u001b[0m in \u001b[0;36m__call__\u001b[0;34m(self, inputs)\u001b[0m\n\u001b[1;32m   2476\u001b[0m         \u001b[0msession\u001b[0m \u001b[0;34m=\u001b[0m \u001b[0mget_session\u001b[0m\u001b[0;34m(\u001b[0m\u001b[0;34m)\u001b[0m\u001b[0;34m\u001b[0m\u001b[0m\n\u001b[1;32m   2477\u001b[0m         updated = session.run(fetches=fetches, feed_dict=feed_dict,\n\u001b[0;32m-> 2478\u001b[0;31m                               **self.session_kwargs)\n\u001b[0m\u001b[1;32m   2479\u001b[0m         \u001b[0;32mreturn\u001b[0m \u001b[0mupdated\u001b[0m\u001b[0;34m[\u001b[0m\u001b[0;34m:\u001b[0m\u001b[0mlen\u001b[0m\u001b[0;34m(\u001b[0m\u001b[0mself\u001b[0m\u001b[0;34m.\u001b[0m\u001b[0moutputs\u001b[0m\u001b[0;34m)\u001b[0m\u001b[0;34m]\u001b[0m\u001b[0;34m\u001b[0m\u001b[0m\n\u001b[1;32m   2480\u001b[0m \u001b[0;34m\u001b[0m\u001b[0m\n",
      "\u001b[0;32m/Library/Frameworks/Python.framework/Versions/3.6/lib/python3.6/site-packages/tensorflow/python/client/session.py\u001b[0m in \u001b[0;36mrun\u001b[0;34m(self, fetches, feed_dict, options, run_metadata)\u001b[0m\n\u001b[1;32m    893\u001b[0m     \u001b[0;32mtry\u001b[0m\u001b[0;34m:\u001b[0m\u001b[0;34m\u001b[0m\u001b[0m\n\u001b[1;32m    894\u001b[0m       result = self._run(None, fetches, feed_dict, options_ptr,\n\u001b[0;32m--> 895\u001b[0;31m                          run_metadata_ptr)\n\u001b[0m\u001b[1;32m    896\u001b[0m       \u001b[0;32mif\u001b[0m \u001b[0mrun_metadata\u001b[0m\u001b[0;34m:\u001b[0m\u001b[0;34m\u001b[0m\u001b[0m\n\u001b[1;32m    897\u001b[0m         \u001b[0mproto_data\u001b[0m \u001b[0;34m=\u001b[0m \u001b[0mtf_session\u001b[0m\u001b[0;34m.\u001b[0m\u001b[0mTF_GetBuffer\u001b[0m\u001b[0;34m(\u001b[0m\u001b[0mrun_metadata_ptr\u001b[0m\u001b[0;34m)\u001b[0m\u001b[0;34m\u001b[0m\u001b[0m\n",
      "\u001b[0;32m/Library/Frameworks/Python.framework/Versions/3.6/lib/python3.6/site-packages/tensorflow/python/client/session.py\u001b[0m in \u001b[0;36m_run\u001b[0;34m(self, handle, fetches, feed_dict, options, run_metadata)\u001b[0m\n\u001b[1;32m   1126\u001b[0m     \u001b[0;32mif\u001b[0m \u001b[0mfinal_fetches\u001b[0m \u001b[0;32mor\u001b[0m \u001b[0mfinal_targets\u001b[0m \u001b[0;32mor\u001b[0m \u001b[0;34m(\u001b[0m\u001b[0mhandle\u001b[0m \u001b[0;32mand\u001b[0m \u001b[0mfeed_dict_tensor\u001b[0m\u001b[0;34m)\u001b[0m\u001b[0;34m:\u001b[0m\u001b[0;34m\u001b[0m\u001b[0m\n\u001b[1;32m   1127\u001b[0m       results = self._do_run(handle, final_targets, final_fetches,\n\u001b[0;32m-> 1128\u001b[0;31m                              feed_dict_tensor, options, run_metadata)\n\u001b[0m\u001b[1;32m   1129\u001b[0m     \u001b[0;32melse\u001b[0m\u001b[0;34m:\u001b[0m\u001b[0;34m\u001b[0m\u001b[0m\n\u001b[1;32m   1130\u001b[0m       \u001b[0mresults\u001b[0m \u001b[0;34m=\u001b[0m \u001b[0;34m[\u001b[0m\u001b[0;34m]\u001b[0m\u001b[0;34m\u001b[0m\u001b[0m\n",
      "\u001b[0;32m/Library/Frameworks/Python.framework/Versions/3.6/lib/python3.6/site-packages/tensorflow/python/client/session.py\u001b[0m in \u001b[0;36m_do_run\u001b[0;34m(self, handle, target_list, fetch_list, feed_dict, options, run_metadata)\u001b[0m\n\u001b[1;32m   1342\u001b[0m     \u001b[0;32mif\u001b[0m \u001b[0mhandle\u001b[0m \u001b[0;32mis\u001b[0m \u001b[0;32mNone\u001b[0m\u001b[0;34m:\u001b[0m\u001b[0;34m\u001b[0m\u001b[0m\n\u001b[1;32m   1343\u001b[0m       return self._do_call(_run_fn, self._session, feeds, fetches, targets,\n\u001b[0;32m-> 1344\u001b[0;31m                            options, run_metadata)\n\u001b[0m\u001b[1;32m   1345\u001b[0m     \u001b[0;32melse\u001b[0m\u001b[0;34m:\u001b[0m\u001b[0;34m\u001b[0m\u001b[0m\n\u001b[1;32m   1346\u001b[0m       \u001b[0;32mreturn\u001b[0m \u001b[0mself\u001b[0m\u001b[0;34m.\u001b[0m\u001b[0m_do_call\u001b[0m\u001b[0;34m(\u001b[0m\u001b[0m_prun_fn\u001b[0m\u001b[0;34m,\u001b[0m \u001b[0mself\u001b[0m\u001b[0;34m.\u001b[0m\u001b[0m_session\u001b[0m\u001b[0;34m,\u001b[0m \u001b[0mhandle\u001b[0m\u001b[0;34m,\u001b[0m \u001b[0mfeeds\u001b[0m\u001b[0;34m,\u001b[0m \u001b[0mfetches\u001b[0m\u001b[0;34m)\u001b[0m\u001b[0;34m\u001b[0m\u001b[0m\n",
      "\u001b[0;32m/Library/Frameworks/Python.framework/Versions/3.6/lib/python3.6/site-packages/tensorflow/python/client/session.py\u001b[0m in \u001b[0;36m_do_call\u001b[0;34m(self, fn, *args)\u001b[0m\n\u001b[1;32m   1348\u001b[0m   \u001b[0;32mdef\u001b[0m \u001b[0m_do_call\u001b[0m\u001b[0;34m(\u001b[0m\u001b[0mself\u001b[0m\u001b[0;34m,\u001b[0m \u001b[0mfn\u001b[0m\u001b[0;34m,\u001b[0m \u001b[0;34m*\u001b[0m\u001b[0margs\u001b[0m\u001b[0;34m)\u001b[0m\u001b[0;34m:\u001b[0m\u001b[0;34m\u001b[0m\u001b[0m\n\u001b[1;32m   1349\u001b[0m     \u001b[0;32mtry\u001b[0m\u001b[0;34m:\u001b[0m\u001b[0;34m\u001b[0m\u001b[0m\n\u001b[0;32m-> 1350\u001b[0;31m       \u001b[0;32mreturn\u001b[0m \u001b[0mfn\u001b[0m\u001b[0;34m(\u001b[0m\u001b[0;34m*\u001b[0m\u001b[0margs\u001b[0m\u001b[0;34m)\u001b[0m\u001b[0;34m\u001b[0m\u001b[0m\n\u001b[0m\u001b[1;32m   1351\u001b[0m     \u001b[0;32mexcept\u001b[0m \u001b[0merrors\u001b[0m\u001b[0;34m.\u001b[0m\u001b[0mOpError\u001b[0m \u001b[0;32mas\u001b[0m \u001b[0me\u001b[0m\u001b[0;34m:\u001b[0m\u001b[0;34m\u001b[0m\u001b[0m\n\u001b[1;32m   1352\u001b[0m       \u001b[0mmessage\u001b[0m \u001b[0;34m=\u001b[0m \u001b[0mcompat\u001b[0m\u001b[0;34m.\u001b[0m\u001b[0mas_text\u001b[0m\u001b[0;34m(\u001b[0m\u001b[0me\u001b[0m\u001b[0;34m.\u001b[0m\u001b[0mmessage\u001b[0m\u001b[0;34m)\u001b[0m\u001b[0;34m\u001b[0m\u001b[0m\n",
      "\u001b[0;32m/Library/Frameworks/Python.framework/Versions/3.6/lib/python3.6/site-packages/tensorflow/python/client/session.py\u001b[0m in \u001b[0;36m_run_fn\u001b[0;34m(session, feed_dict, fetch_list, target_list, options, run_metadata)\u001b[0m\n\u001b[1;32m   1327\u001b[0m           return tf_session.TF_Run(session, options,\n\u001b[1;32m   1328\u001b[0m                                    \u001b[0mfeed_dict\u001b[0m\u001b[0;34m,\u001b[0m \u001b[0mfetch_list\u001b[0m\u001b[0;34m,\u001b[0m \u001b[0mtarget_list\u001b[0m\u001b[0;34m,\u001b[0m\u001b[0;34m\u001b[0m\u001b[0m\n\u001b[0;32m-> 1329\u001b[0;31m                                    status, run_metadata)\n\u001b[0m\u001b[1;32m   1330\u001b[0m \u001b[0;34m\u001b[0m\u001b[0m\n\u001b[1;32m   1331\u001b[0m     \u001b[0;32mdef\u001b[0m \u001b[0m_prun_fn\u001b[0m\u001b[0;34m(\u001b[0m\u001b[0msession\u001b[0m\u001b[0;34m,\u001b[0m \u001b[0mhandle\u001b[0m\u001b[0;34m,\u001b[0m \u001b[0mfeed_dict\u001b[0m\u001b[0;34m,\u001b[0m \u001b[0mfetch_list\u001b[0m\u001b[0;34m)\u001b[0m\u001b[0;34m:\u001b[0m\u001b[0;34m\u001b[0m\u001b[0m\n",
      "\u001b[0;31mKeyboardInterrupt\u001b[0m: "
     ]
    }
   ],
   "source": [
    "epochs = 50\n",
    "X = models.DataGenerator(x_train, **params)\n",
    "# history = vae.fit(x_train,shuffle=True, epochs=epochs, batch_size=batch_size, validation_data=(x_test, None))\n",
    "history = vae.fit_generator(\n",
    "    X, epochs=epochs, steps_per_epoch=X.__len__(),\n",
    "    use_multiprocessing=True, workers=2,\n",
    "    validation_data=(x_test, None))"
   ]
  },
  {
   "cell_type": "code",
   "execution_count": null,
   "metadata": {},
   "outputs": [],
   "source": [
    "plt.plot(history.history['loss'])\n",
    "plt.plot(history.history['val_loss'])"
   ]
  },
  {
   "cell_type": "code",
   "execution_count": null,
   "metadata": {},
   "outputs": [],
   "source": [
    "x = vae.predict(x_train[:10])\n",
    "plot.multi(x[0, :30])"
   ]
  },
  {
   "cell_type": "code",
   "execution_count": null,
   "metadata": {},
   "outputs": [],
   "source": [
    "plot.multi(x[3, :30])"
   ]
  },
  {
   "cell_type": "code",
   "execution_count": null,
   "metadata": {},
   "outputs": [],
   "source": [
    "# interpolate - mean\n",
    "m = x.mean(axis=0)\n",
    "plot.multi(m[:30])"
   ]
  },
  {
   "cell_type": "code",
   "execution_count": null,
   "metadata": {},
   "outputs": [],
   "source": [
    "# interpolate - min: these pixels are 'always' active\n",
    "m = x.min(axis=0)\n",
    "plot.multi(m[:30])"
   ]
  },
  {
   "cell_type": "code",
   "execution_count": null,
   "metadata": {},
   "outputs": [],
   "source": [
    "# build a model to project inputs on the latent space\n",
    "encoder = Model(encoder_input, z_mean)"
   ]
  },
  {
   "cell_type": "code",
   "execution_count": null,
   "metadata": {},
   "outputs": [],
   "source": [
    "x_test.shape"
   ]
  },
  {
   "cell_type": "code",
   "execution_count": null,
   "metadata": {},
   "outputs": [],
   "source": [
    "m = 100\n",
    "x_train_encoded = encoder.predict(x_train[:m], batch_size=batch_size)\n",
    "x_train_encoded.shape"
   ]
  },
  {
   "cell_type": "code",
   "execution_count": null,
   "metadata": {},
   "outputs": [],
   "source": [
    "# y_test = range(x_train_encoded.shape[0])\n",
    "y_test = np.concatenate([list(range(n)) for _ in range(int(m/n)+1)])[:m] / n\n",
    "plt.figure(figsize=(6, 6))\n",
    "plt.scatter(x_train_encoded[:, 0], x_train_encoded[:, 1], c=y_test, alpha=0.1, s=30)"
   ]
  },
  {
   "cell_type": "code",
   "execution_count": null,
   "metadata": {},
   "outputs": [],
   "source": [
    "# display a 2D plot of the digit classes in the latent space\n",
    "x_test_encoded = encoder.predict(x_test, batch_size=batch_size)\n",
    "plt.figure(figsize=(6, 6))\n",
    "plt.scatter(x_test_encoded[:, 0], x_test_encoded[:, 1], c=y_test)\n",
    "plt.colorbar()\n",
    "plt.show()"
   ]
  },
  {
   "cell_type": "code",
   "execution_count": null,
   "metadata": {},
   "outputs": [],
   "source": [
    "# build a digit generator that can sample from the learned distribution\n",
    "decoder_input = Input(shape=(latent_dim,))\n",
    "_decoded = utils.composition(decoders, decoder_input, verbose=False)\n",
    "generator = Model(decoder_input, _decoded)"
   ]
  },
  {
   "cell_type": "code",
   "execution_count": null,
   "metadata": {},
   "outputs": [],
   "source": [
    "# x_decoded[0].reshape(150,3)"
   ]
  },
  {
   "cell_type": "code",
   "execution_count": null,
   "metadata": {},
   "outputs": [],
   "source": [
    "# display a 2D manifold of the digits\n",
    "n = 3  # figure with 15x15 digits\n",
    "digit_size1 = x_decoded.shape[-2]\n",
    "digit_size2 = x_decoded.shape[-1]\n",
    "figure = np.zeros((digit_size1 * n, digit_size1 * n))\n",
    "# linearly spaced coordinates on the unit square were transformed through the inverse CDF (ppf) of the Gaussian\n",
    "# to produce values of the latent variables z, since the prior of the latent space is Gaussian\n",
    "grid_x = norm.ppf(np.linspace(0.05, 0.95, n))\n",
    "grid_y = norm.ppf(np.linspace(0.05, 0.95, n))\n",
    "\n",
    "for i, yi in enumerate(grid_x):\n",
    "    for j, xi in enumerate(grid_y):\n",
    "        z_sample = np.array([[xi, yi]])\n",
    "        z_sample = np.tile(z_sample, batch_size).reshape(batch_size, 2)\n",
    "        x_decoded = generator.predict(z_sample, batch_size=batch_size)\n",
    "        digit = x_decoded[0].reshape(digit_size1, digit_size2)\n",
    "        figure[i * digit_size1: (i + 1) * digit_size1,\n",
    "               j * digit_size2: (j + 1) * digit_size2] = digit\n",
    "\n",
    "plt.figure(figsize=(10, 10))\n",
    "plt.imshow(figure, cmap='Greys_r')\n",
    "plt.show()"
   ]
  },
  {
   "cell_type": "code",
   "execution_count": null,
   "metadata": {},
   "outputs": [],
   "source": []
  },
  {
   "cell_type": "code",
   "execution_count": null,
   "metadata": {},
   "outputs": [],
   "source": []
  },
  {
   "cell_type": "code",
   "execution_count": null,
   "metadata": {},
   "outputs": [],
   "source": []
  },
  {
   "cell_type": "code",
   "execution_count": null,
   "metadata": {},
   "outputs": [],
   "source": []
  }
 ],
 "metadata": {
  "kernelspec": {
   "display_name": "Python 3",
   "language": "python",
   "name": "python3"
  },
  "language_info": {
   "codemirror_mode": {
    "name": "ipython",
    "version": 3
   },
   "file_extension": ".py",
   "mimetype": "text/x-python",
   "name": "python",
   "nbconvert_exporter": "python",
   "pygments_lexer": "ipython3",
   "version": "3.6.4"
  }
 },
 "nbformat": 4,
 "nbformat_minor": 2
}
